<?xml version="1.0" encoding="utf-8"?>
<svg id="master-artboard" viewBox="0 0 548 390" version="1.1" xmlns="http://www.w3.org/2000/svg" x="0px" y="0px" style="enable-background:new 0 0 548 390;" width="548px" height="390px">

<radialGradient id="SVGID_1_" cx="205.4664" cy="155.7293" r="304.1152" gradientTransform="matrix(1.1241 0 0 1 -31.0462 0)" gradientUnits="userSpaceOnUse">
	<stop offset="2.181820e-02" style="stop-color:#F8E58B"/>
	<stop offset="0.2473" style="stop-color:#F8C765"/>
	<stop offset="0.3662" style="stop-color:#F5B760"/>
	<stop offset="0.8145" style="stop-color:#EC7D4C"/>
	<stop offset="1" style="stop-color:#E56D56"/>
</radialGradient>
<path d="M 0 0 H 548 V 390 H 0 V 0 Z" class="st0" style="fill: url('#SVGID_1_');"/>
<g>
	<g>
		<path class="st1" d="M428,280.7c-16.7-3.1-29.3,2.6-44.7,6c-20.2,4.5-42.2,11.6-65.4,9.6c-20.2-1.7-36.7-9.2-50.5-15.7&#10;&#9;&#9;&#9;c-14.6-6.9-24.9,1.4-36.4,7c-17,8.3-33.8,10-53.9,3.8c-13.1-4.1-26.8-7.8-39.3-12.3c-16.3-5.9-33.8,11.1-66.4,19.3&#10;&#9;&#9;&#9;c43.6-0.4,97,2.3,155.2,9.1c136.1-12.3,261-6.3,321.3,3.6V303c-28.1-0.6-56.7-8.4-81.5-13.9C453.8,286.2,441.1,283.1,428,280.7z" style="fill: rgb(176, 51, 36);"/>
		<path class="st2" d="M52.5,327.5c36.9-7.7,46.6-22.7,67.6-23.2c11.3-0.3,27.2,3.5,39.8,7.9c2.3,0.8,4.7,1.4,7,1.8&#10;&#9;&#9;&#9;c12.1-1.6,24.2-3,36.2-4.3c3.2-0.8,6.2-1.4,8.9-1.6c2.8-0.3,6-0.3,9.5-0.2c1.7-0.2,3.4-0.3,5.2-0.5c-58.2-6.8-111.6-9.4-155.2-9.1&#10;&#9;&#9;&#9;c-28.4,0.2-52.6,1.8-71.5,4.3V329C10.8,328.5,29.9,332.2,52.5,327.5z" style="fill: rgb(130, 41, 23);"/>
		<path class="st2" d="M226.7,307.4c-1.7,0.2-3.4,0.3-5.2,0.5c22.7,0.7,57.5,12.5,74.5,14.2c22.4,2.2,45.5-6.6,65-11.5&#10;&#9;&#9;&#9;c14.8-3.7,31.9,1.1,48,4.5c12.7,2.7,17.7-2.1,30,1c23.6,6,79.7-3.8,109-4v-1.1C487.7,301.1,362.8,295,226.7,307.4z" style="fill: rgb(130, 41, 23);"/>
		<path class="st2" d="M485.6,277.1c-2.6-1.3-5.8-1.4-8.7-1.5c-2.9-0.1-2.4,0.8-3.9,0.9c-1.5,0.2-1.3-0.7-2.3-1.4&#10;&#9;&#9;&#9;c-1-0.8-5.5-1-8.7,0.3c-0.2,0.1-0.3,0.1-0.5,0.2c0.1-1.1-1.1-2.1-3.9-2c-3.4,0.1-2.8,0.8-3.8,0.8c-1,0.1-3.4-0.3-4.8,0.2&#10;&#9;&#9;&#9;c-1.4,0.5-2.8,1.4-4.1,1.4c-1.4,0-4.8,0.6-4.2,2.6c0.2,0.9,1.3,1.1,2.4,0.9c0.2,0.4,0.7,0.5,1.2,0.5c0.5,0,1,0,1.4,0&#10;&#9;&#9;&#9;c0.2,0.2,0.4,0.3,0.6,0.5c0.4,0.8,1,1.3,1.8,1.6c0.6,0.5,1.1,1,1.5,1.3c1.5,1.4,4.3,3.8,5,5.3l0-0.2c0,0.1,0.1,0.3,0.1,0.4&#10;&#9;&#9;&#9;c0.6,2.2,0.4,14.4,0.4,14.4c0.5,0.4,1.2,0.2,1.2,0.2s0-10.5-0.2-12.1c0.2-1.8,0.8-2.9,1.2-3.9c0.4-1,1.9-4.1,2.8-5.3&#10;&#9;&#9;&#9;c0.1,0,0.3,0,0.4,0c1.7,1.7,3.7,3.9,4.3,5c0.9,1.8,2,12.4,2.8,15.8l0.8,0c0,0-0.6-7.1-0.8-8c-0.2-1-0.9-4.3-1.2-5.1&#10;&#9;&#9;&#9;c-0.4-0.8-0.9-2.9-1.9-4.1c-0.5-0.7-2-2.2-3.3-3.5c0.1,0,0.2,0,0.2,0c1.9,0.2,3,0.6,4.7,0.9c0,0.4,0.1,0.7,0.2,1&#10;&#9;&#9;&#9;c0.4,1.4,1.9,5,1.9,5c-0.1,1.4,0.6,12.5,0.8,14l0.8,0.1l0-6.6l0.4,6.4c-0.1-0.5,0.2-9.2,0.7-11.2c1.5-1.6,3.8-3.7,5.4-4.9&#10;&#9;&#9;&#9;c1.8-1.4,2.3-1.6,3.1-2.7c0.3-0.3,0.7-0.8,1.2-1.2c0.6,0.3,1.5,0.7,3,0.8c3.8,0.4,2.9-0.8,3.7-1.9c0.6-0.8-0.4-1.2-1.6-1.6&#10;&#9;&#9;&#9;c1-0.1,1.8-0.2,2.6-0.7C490.2,278.5,488.2,278.3,485.6,277.1z M470.3,290.2c-0.1-0.9,0.1-1.7,0.3-2.2c0.4-0.8,2.1-2.4,2.5-4&#10;&#9;&#9;&#9;c0-0.2,0.1-0.3,0.1-0.6c0.6,0,1.1-0.1,1.7-0.1c-0.5,0.7-1,1.3-1.3,1.8C472.6,286.5,471.2,288.5,470.3,290.2z M453,282.4&#10;&#9;&#9;&#9;c-0.1-0.1-0.2-0.3-0.3-0.5c0.1,0,0.2,0,0.3,0C453,282.1,453,282.2,453,282.4z M471.5,283.5c0.5,0,1,0,1.6,0&#10;&#9;&#9;&#9;c-0.1,0.4-0.2,0.7-0.3,0.8c-0.7,1-2,2.5-2.5,3.5c0.1-1,0.5-2.1,1-3.2C471.4,284.2,471.4,283.8,471.5,283.5z M449.1,282.6&#10;&#9;&#9;&#9;c-0.1-0.1-0.2-0.2-0.4-0.4c0.9,0.1,1.9,0.1,2.8-0.1c0.2,0,0.5-0.1,0.7-0.1c0.3,0.4,0.5,0.7,0.6,1c0.3,0.8,0.7,2.4,1.2,4&#10;&#9;&#9;&#9;C453,286.1,449.8,283.3,449.1,282.6z M453.4,283.1c0-0.4-0.1-0.8-0.1-1.2c0.8,0,1.6-0.1,2.5,0c-0.1,0.8-0.2,1.6-0.3,2.1&#10;&#9;&#9;&#9;c-0.2,1.2-0.4,2.6-0.5,3.4C454.5,286.1,453.7,284,453.4,283.1z M456.2,287.2c0,0.6-0.2,1.1-0.2,1.1l-0.3,1&#10;&#9;&#9;&#9;c-0.1-0.4-0.2-0.8-0.4-1.3c0.2-1.7,0.2-2.7,0.6-4.9c0.1-0.4,0.1-0.9,0.2-1.4c0.5,0,1,0,1.5,0.1c-0.4,1.1-0.8,2-1.1,3.1&#10;&#9;&#9;&#9;C456.2,286.5,456.2,286.6,456.2,287.2z M457.8,284.9c-0.6,1.1-1.2,2.5-1.2,2.5s-0.1-1.6,0.4-2.9c0.2-0.5,0.6-1.5,0.9-2.7&#10;&#9;&#9;&#9;c0.6,0,1.2,0.1,1.7,0.1C459.1,283,458.4,283.9,457.8,284.9z M466.9,283.5c0-0.1,0-0.2-0.1-0.3c0.2,0,0.5,0.1,0.7,0.1&#10;&#9;&#9;&#9;c0.2,0,0.4,0,0.6,0.1c0.1,0.7,0.1,1.3,0.1,1.6c0,0.6,0,1.7,0,2.7C467.8,286.3,467.1,284.9,466.9,283.5z M468.8,284.3&#10;&#9;&#9;&#9;c0-0.3-0.1-0.6-0.1-0.9c0.8,0.1,1.6,0.1,2.5,0.1c0,0.1,0,0.2,0,0.2c-0.3,1.1-1.4,3-1.4,4c0,0.5,0,0.9,0,1.2&#10;&#9;&#9;&#9;c-0.1,0.4-0.1,0.8,0,1.5c0,0.3,0.1,0.5,0.1,0.7c-0.2,0.5-0.3,0.9-0.4,1.2c-0.1-0.8-0.2-1.6-0.3-2.4&#10;&#9;&#9;&#9;C469,287.7,469,285.7,468.8,284.3z M475.8,286.8c-0.7,0.7-3.9,2.9-4.5,3.4c0.1-0.3,0.2-0.6,0.3-0.9c0.6-1.5,2.5-4.1,3.9-6&#10;&#9;&#9;&#9;c0.8-0.1,1.5-0.2,2.2-0.3c0.3-0.1,0.7-0.1,1-0.1c-0.1,0.4-0.3,1.3-0.4,1.7C477.5,285.4,476.4,286.3,475.8,286.8z M479.3,283.7&#10;&#9;&#9;&#9;c-0.1,0.1-0.2,0.2-0.3,0.3c-0.1-0.1-0.1-0.4,0.1-1.1c0-0.1,0-0.1,0.1-0.2c0.4,0,0.7-0.1,1.1-0.1c0.1,0,0.1,0.1,0.2,0.1&#10;&#9;&#9;&#9;C479.9,283.1,479.5,283.4,479.3,283.7z" style="fill: rgb(130, 41, 23);"/>
		<path class="st2" d="M203.1,309.7c-12,1.3-24.1,2.7-36.2,4.3C181.5,324,192.7,312.1,203.1,309.7z" style="fill: rgb(130, 41, 23);"/>
		<path class="st3" d="M548,390V312c-29.3,0.2-84.9,3.7-108.5-2.2c-12.3-3.1-17.4,2.8-30.1,0.1c-16.1-3.4-35.5-6.5-50.3-2.7&#10;&#9;&#9;&#9;c-19.5,4.9-40.8,12.6-63.2,10.4c-16.9-1.6-51.7-9.1-74.4-9.7c-3.5-0.1-6.7-0.1-9.5,0.2c-2.7,0.2-5.7,0.9-8.9,1.6&#10;&#9;&#9;&#9;c-10.4,2.5-23.1,6.4-36.2,4.3c-2.3-0.4-4.7-1-7-1.8c-12.7-4.4-28.5-8.2-39.8-7.9c-20.9,0.6-33.6,9.9-70.4,17.6&#10;&#9;&#9;&#9;C27,326.6,10.8,328.5,0,329v61L548,390z" style="fill: rgb(110, 34, 20);"/>
	</g>
	<g>
		<path class="st2" d="M263.8,305c0.7-0.2,0.9-0.3,0.9-0.5c0-0.2,0.3-0.2,0.3-0.2s0.2,0.4,0.1,0.7c-0.1,0.3,1.3,0.4,2,0.1&#10;&#9;&#9;&#9;c0.7-0.3-0.1-0.8-0.6-1.2c-0.5-0.5-0.6-0.8-0.6-1.4c0-0.6-0.1-5.4,0.5-7.3c0.6-1.9,2-5.3,2.2-5.9c0.2-0.6,0.8-0.7,0.8-0.9&#10;&#9;&#9;&#9;c0-0.1,1.9,0.3,2.3,0c0.2,0.7,0.4,1.4,0.5,2.6c0.1,1.2,0.3,2.3,0,3.1c-0.3,0.8-0.1,1.2,0.1,1.5c0.1,0.4,0.1,5.1-0.3,6&#10;&#9;&#9;&#9;c-0.4,0.9-0.3,1.2-0.2,1.4c0.1,0.2,0,0.4,0,0.8c-0.1,0.4,0.6,0.6,1.3,0.5c0.7-0.1,1.4-0.3,0.9-1c-0.6-0.7-0.7-0.8-0.6-0.9&#10;&#9;&#9;&#9;c0.1-0.1,0-0.8-0.1-1c-0.1-0.2,0-4.6,0.4-5.2c0.4-0.6,0.5-1.9,0.3-2.6c-0.3-0.7,0.4-4.5,0.7-5.2c0.2,0.1,0.4,3.9,0.1,4.8&#10;&#9;&#9;&#9;c-0.2,0.8-0.4,1.6-0.2,2.3c0.2,0.8,0.4,5.7,0.3,6.4c-0.1,0.6,0,0.9,0.2,1.1c0.2,0.2,0.1,0.8,0.1,1.1c0.1,0.3,1.1,0.5,2.2,0&#10;&#9;&#9;&#9;c0.1-0.3-0.7-0.7-0.8-0.9c-0.2-0.2-0.5-0.7-0.5-1.1c0-0.4-0.5-5.1-0.2-5.9c0.3-0.8,0.6-1.6,0.6-2.3c0-0.8,0.8-4.5,1.1-5.6&#10;&#9;&#9;&#9;c0.3-1.1,0.5-3.3,0.6-3.7c0.1-0.4,0.7-2,0.1-3.3c-0.6-1.3-1-2.6-0.4-3.5c0.7-0.9,2.8-6.8,2.6-10.3c0-2.4,0.4-4.2,1-4.6&#10;&#9;&#9;&#9;c0.5-0.4,0.9-0.4,1.2-0.2c0.3,0.2,1.6,0.3,2.2,0c0.3,0.1,0.8,0.5,1.1,0.5c0.3,0,0.3-0.2,0.3-0.2s0.3,0.3,0.4,0.1&#10;&#9;&#9;&#9;c0,0,0.1-1-0.7-1.6c-0.5-0.7-1-1.7-1.4-1.9c-0.4-0.2-1.3-1.3-1.7-1.1c-0.2-0.4-0.4-1.8-0.9-1.8c-0.5,0-0.6,0.2-0.6,0.2&#10;&#9;&#9;&#9;s0.1-0.7-0.8,0.1c0.1,0.4,0.6,1.2,0.3,1.3c-0.3,0.2-0.8-0.5-1.2-0.5c-0.4,0,0.1,0.7,0.1,1.1c0,0.5-2.1,3.2-2.7,5.3&#10;&#9;&#9;&#9;c-0.5,2.1-2,5.5-2.9,6.6c-0.9,1.1-3.9,4.3-3.9,4.9c0,0.5-0.1,1.3-0.8,1.9c-0.7,0.6-3.1,1.4-4.1,1.9c-1,0.5-1.9,1.3-2.6,2.8&#10;&#9;&#9;&#9;c-0.7,1.5-1.4,3.1-0.3,7.2c0.4,2.8,0.6,3.9,0.2,4.5c0.1,0.8,0.8,3.9,0.7,5c-0.1,1.1,0.3,3.1,0,3.5c-0.2,0.4-0.4,0.7-0.3,0.9&#10;&#9;&#9;&#9;c0.1,0.2-0.4,0.4-0.4,0.9C262.4,305,263.1,305.2,263.8,305z M264.6,295c0.5,1.5,0.3,6.8,0.2,7.2c-0.1,0.4-0.2,0.7-0.2,1.5&#10;&#9;&#9;&#9;C263.6,301.4,264.6,295,264.6,295z" style="fill: rgb(130, 41, 23);"/>
		<path class="st4" d="M192.5,280.1c0,0.2,0,0.4,0,0.7c-0.1,0.9,0.4,2.2,1,2.4c0.3,0.1,0.7,0,0.9-0.1c0.2,0,0.4,0,0.5,0&#10;&#9;&#9;&#9;c0.6-0.2,0.1-0.6,0-0.9c-0.4-0.7-0.6-1.5-0.7-2.3c-0.3-0.3-0.1-0.8-0.3-1.1c-0.2-1.6,0.5-3.5,1.9-3.6c0-0.1,0.1,0,0.1,0&#10;&#9;&#9;&#9;c0,0,0,0.1,0.1,0.1c-0.3,0.5-1.3,1-1.3,1.8c0,0.1,0.1,0.2,0.1,0.3c0,0.3,0,0.7,0.4,0.8c0.4-0.3,0.7-0.8,1.2-1&#10;&#9;&#9;&#9;c0.5-0.1,0.9,0.1,1.3,0.2c-0.1,0.4,0.4,0.5,0.5,0.9c-0.2,0-0.2-0.1-0.4-0.1c-0.2,0.1-0.5,0-0.7,0.1c-0.2,0.1-0.4,0.3-0.7,0.5&#10;&#9;&#9;&#9;c-0.2,0.1-0.4,0.2-0.6,0.2c-0.8,0.5-0.7,1.5-0.3,2.3c0.4,0,0.6,0.1,0.9,0.2c0.3-0.2,0.1-0.9,0.2-1.1c0.3,0.2,0,0.9,0.1,1.1&#10;&#9;&#9;&#9;c0.9-0.3,2.2-0.9,1.9-2.3c0.6,0.5,0,1.4-0.3,1.9c-0.5,0.5-1.2,0.6-1.9,1c-0.1,0.2-0.2,0.4-0.2,0.6c0.1,0.2,0.2,0.4,0.4,0.2&#10;&#9;&#9;&#9;c0,0.6,0.5,0.8,0.9,1.1c0.5,0,0.8-0.2,0.9-0.8c0.2,0,0,0.3,0.1,0.4c0.5-0.2,0.9-0.6,1.2-1.4c0.2,0.1,0.1,0.5,0.1,0.6&#10;&#9;&#9;&#9;c-0.1,0.3-0.5,0.8-0.8,1.1c-0.2,0.2-0.6,0.2-0.7,0.5c-0.1,0.3,0,0.8,0.3,0.8c0.1,0,0.1-0.1,0.2-0.1c0.6-0.1,1.2-0.9,1.1-1.5&#10;&#9;&#9;&#9;c0.5,0.7-0.6,1.6-1,1.9c0.1,0.2,0.3,0.4,0.5,0.5c0.4-0.3,1-0.4,1.5-0.6c1-1.1-0.6-2.9,0.7-3.4c0.1,0.2-0.2,0.3-0.2,0.5&#10;&#9;&#9;&#9;c0,0.2,0,0.4,0,0.6c0.5,0.7,0.3,2.2-0.3,3c-0.4,0.1-0.7,0.2-0.9,0.6c0.2,0.1,0.5,0.2,0.4,0.4c0.5,0.2,1.4,0.1,1.7,0.7&#10;&#9;&#9;&#9;c0.8-0.1,0.9,0.5,1.5,0.1c0.6-0.4,1.4-1.9,1-2.5c0.9,0.7-0.3,2.3-0.7,2.8c0.3-0.1,0.8-0.4,1-0.7c0.2-0.3,0.6-1,0.6-1.2&#10;&#9;&#9;&#9;c0.1-0.3,0-0.8-0.2-1.1c-0.1-0.2-0.4-0.3-0.3-0.5c0.7,0.4,1,1.3,0.7,2.3c-0.1,0.1-0.3,0.2-0.2,0.4c-0.4,0.5-0.7,1.3-1.4,1.3&#10;&#9;&#9;&#9;c-0.2,0-0.5-0.1-0.5,0.1c0.6,0.5,1.5,0,2.3,0.1c0.4-0.2,0.6-0.6,0.9-0.9c0.1-0.1,0.2-0.1,0.3-0.3c0.2-0.5,0-0.9,0-1.4&#10;&#9;&#9;&#9;c0.6,0.3,0.6,1.2,0.4,1.6c-0.1,0.2-0.5,0.7-0.8,1c-0.5,0.4-1.1,0.6-1.8,0.8c-1,0.2-1.4-0.2-2.1-0.6c0,0.3-0.2,0.4-0.4,0.7&#10;&#9;&#9;&#9;c0.6,0.4,1.1,1.2,2,1.2c0.2,0.2,0.6,0.5,0.6,0.9c0,0.1-0.2,0.3-0.2,0.5c-0.1,0.7,0.8,1.7,1.3,2c0.1,0.1,0.2,0.1,0.3,0.2&#10;&#9;&#9;&#9;c0.3,0.4,0.6,1.7-0.1,1.8c-0.5,0-0.6-0.4-1-0.4c0,0.2,0.3,0.2,0.3,0.5c-0.9,0.5-1.3-0.9-2.1-1.1c-0.4-0.1-0.7,0-1-0.1&#10;&#9;&#9;&#9;c-0.3-0.1-0.4-0.4-0.7-0.6c-0.9,3-1.6,6.6-4.6,6.7c-0.2,0.2-0.4,0.4-0.6,0.6c0,0.8-0.4,1.3-0.5,1.8c-0.3,0.8-0.3,2-0.3,2.7&#10;&#9;&#9;&#9;c0,0.5,0,1,0.3,1.4c-0.1,0.5,0.2,0.9-0.2,1.3c0.1,0.1,0,0.3,0,0.4c-0.1,0.9,0.1,2.3,0.2,3.1c0,0.3,0,0.6,0.1,0.8&#10;&#9;&#9;&#9;c0,0.1,0.2,0.2,0.2,0.3c0.2,0.5,0.2,1.1,0.8,1.1c0.2,0.5,0.8,0.7,1.1,1.1c0,0.2-0.2,0-0.2,0.1c0,0.1,0.1,0.2,0,0.4&#10;&#9;&#9;&#9;c-0.7-0.2-1-0.2-1.3-0.5c-0.4-0.5-0.1-1.6-1.1-1.5c-0.3-0.7,0.1-1.5,0.1-2.4c0-0.7-0.3-1.4-0.4-2.1c0-0.3,0-0.6,0-0.8&#10;&#9;&#9;&#9;c-0.1-0.4-0.5-0.9-0.5-1.4c0,0-0.1-0.1-0.2-0.1c0.2-0.2,0.3-0.5,0.2-0.9c-0.1-0.9-0.1-2.3-0.3-2.9c-0.1,0.1-0.3-0.1-0.4,0.1&#10;&#9;&#9;&#9;c-0.1,1.1,0,2.2,0.2,3.1c0.1,0.1,0.1,0.2,0.3,0.2c-0.2,0.4,0,0.9-0.1,1.3c0,0.1-0.2,0.2-0.2,0.4c-0.1,0.3-0.2,0.8-0.2,1.2&#10;&#9;&#9;&#9;c-0.1,0.6-0.1,1.7,0,2.2c0.1,0.4,0.4,0.7,0.3,1.1c0,0.4-0.2,0.6-0.1,1c0.3,0.7,1.1,1.2,1.3,2c-0.3-0.1-0.4-0.4-0.6-0.5&#10;&#9;&#9;&#9;c-0.3,0.2,0.1,0.5,0,0.9c-0.5-0.1-0.8-0.7-1.1-1c0-0.7,0.1-1.4-0.3-1.8c-0.1,0-0.2,0.1-0.3,0c-0.1-0.3,0.1-0.7,0.2-0.9&#10;&#9;&#9;&#9;c-0.1-0.6,0.2-1,0.2-1.7c0-0.9-0.1-1.8-0.3-2.5c-0.3-1-0.5-1.9-0.6-3c-0.1-0.7-0.3-1.5-0.4-2.2c-0.6-0.2-1,0.2-1.5-0.1&#10;&#9;&#9;&#9;c-1.1,0.1-2.1,0.2-3.2,0.2c-0.7,0.6-1.1-0.6-1.9-0.7c-0.3,0.4-0.3,1-0.6,1.5c-0.3,0.5-0.9,0.7-1.2,1.1c-0.1,0.2-0.2,0.5-0.3,0.7&#10;&#9;&#9;&#9;c-0.3,0.5-0.4,1-0.4,1.7c0,1.1,0.2,2.3,0.4,3.4c0.2,0.5,0.3,1.1,0.6,1.5c0.5,0.4,0.7,0.9,1,1.4c-0.2,0.1-0.3-0.1-0.5-0.2&#10;&#9;&#9;&#9;c-0.1,0,0.1,0.3-0.1,0.3c-0.6-0.2-0.9-0.6-1.2-1.1c0.1-0.5-0.1-1.1-0.6-1.1c0-0.5,0.2-1,0.2-1.4c0.1-0.7-0.2-1.6-0.3-2.4&#10;&#9;&#9;&#9;c0-0.4-0.1-0.8-0.2-1.2c-0.1-0.4-0.3-0.7-0.4-1c-0.3-0.9,0.9-1.4,1.3-2c0.3-0.4,1.4-2.3,0-2.2c-0.2,0-0.3,0.2-0.5,0.3&#10;&#9;&#9;&#9;c-0.3,0.2-0.7,0.3-0.9,0.5c-0.3,0.3-0.3,0.7-0.6,0.9c-0.4,0.4-0.9,0.5-1.4,0.8c-1.4,0.8-1.9,3.7-2.3,5.5c-0.1,0.6-0.1,1.2-0.2,1.7&#10;&#9;&#9;&#9;c0,0.4,0.3,0.7,0.5,1c0.2,0.4,0.3,0.8,0.5,1.2c-0.2,0.1-0.2-0.1-0.4-0.2c-0.1,0.1,0,0.3-0.1,0.3c-0.5-0.3-1-0.6-1-1.3&#10;&#9;&#9;&#9;c0-0.3,0.2-0.7,0-1c-0.1-0.1-0.2,0-0.3-0.2c0.1-0.3,0-0.6,0.1-0.9c0-0.2,0.2-0.4,0.3-0.6c0.4-0.9,0.6-2.3,0.8-3.4&#10;&#9;&#9;&#9;c0.1-0.7,0.4-1.6,0.4-2c0-0.3-0.3-0.6-0.2-0.8c0.1-0.4,0.7-0.4,1.1-0.4c0.7-0.5,1.4-1.1,1.7-2.1c-0.1-0.2-0.1-0.5-0.2-0.8&#10;&#9;&#9;&#9;c-0.1,0-0.1,0.2-0.3,0.1c-0.2-0.3,0.2-0.7,0.1-0.9c-0.2,0-0.3,0.2-0.5,0.1c0-0.4,0.3-0.6,0.2-0.9c-0.2-0.1-0.3,0.3-0.5,0.1&#10;&#9;&#9;&#9;c0.1-0.3,0.2-0.5,0.4-0.8c0-0.1-0.3-0.1-0.3-0.1c0.1-0.3,0.3-0.4,0.3-0.7c-0.3-0.1-0.4,0.3-0.6,0.1c0-0.4,0.3-0.4,0.4-0.7&#10;&#9;&#9;&#9;c-0.2-0.1-0.2,0.1-0.4,0c0.1-0.3,0.3-0.3,0.4-0.5c-0.1,0-0.2,0.1-0.3-0.1c0.1-0.2-0.1-0.2-0.1-0.4c0.1-0.1,0.4-0.1,0.3-0.3&#10;&#9;&#9;&#9;c-0.1-0.1-0.4,0.1-0.4-0.1c-0.1-0.3,0.2-0.6,0-1c0.1-0.2,0.2-0.2,0.2-0.4c-0.1-0.1-0.2-0.1-0.3-0.2c-0.2-0.6-1-0.8-1.4-1.3&#10;&#9;&#9;&#9;c0.1-0.2,0.5,0.1,0.5-0.1c0-0.4-0.5-0.4-0.5-0.8c0.1-0.1,0.3,0.2,0.4,0c0.1-0.3-0.3-0.7,0.1-0.8c0,0.1,0,0.5,0.1,0.6&#10;&#9;&#9;&#9;c0.6,0.7,1.2,1.8,2.2,1.7c0.7,0,1.7-0.2,2.5-0.1c0.5,0.1,0.9,0,1.3,0.1c0.5,0,1,0.2,1.5,0.3c1.8,0.2,3.8,0.8,5.3,1.6&#10;&#9;&#9;&#9;c0.9-0.7,2.4,0.3,3.5,0.5c0.6-0.2,1.2-0.2,1.7-0.4c0.5-0.2,1.3-1,1.5-1.4c0.1-0.3,0.1-0.6,0.2-0.8c0.2-0.3,0.4-0.6,0.6-0.9&#10;&#9;&#9;&#9;c0.3-0.5,0.4-1,0.8-1.5c-0.5-0.3-1-0.6-1.2-1c0.2-0.4-0.2-0.6-0.1-0.8c0.4-0.1,0.7,0.3,1,0.3c0.1-0.3-0.3-0.5-0.1-0.8&#10;&#9;&#9;&#9;c0.4,0,0.5,0.4,0.9,0.6c0.3,0.1,0.6,0.1,0.8,0.3c0.1,0,0.2-0.1,0.3-0.3c-0.3-0.7-0.8-1.1-1.3-1.7c-1.1-0.4-1.9-0.8-3-1.2&#10;&#9;&#9;&#9;c-1.6-1-2.6-2.5-4.1-3.6c-0.3-0.4-0.4-1-0.8-1.3c0-0.3-0.1-0.6-0.1-0.9c-0.4-0.5-0.9-1-1.1-1.7c-0.1-0.2-0.2-0.8,0.1-0.9&#10;&#9;&#9;&#9;c0.2,0.7,0.3,1.4,0.9,1.8c-0.3-0.9,0.1-3.8,1.1-3.3c0,0.3-0.4,0.3-0.6,0.7c-0.2,0.6,0,1.5,0.5,1.8c0.4-0.1,0.8-0.9,1.3-0.5&#10;&#9;&#9;&#9;C193.3,279.1,192.7,279.3,192.5,280.1z M195.2,278.8c0.5-0.1,1.1-0.7,1.6-1c0-0.1,0-0.1,0-0.2&#10;&#9;&#9;&#9;C196.1,277.3,195.7,278.4,195.2,278.8z M196.1,277.5c-0.1,0-0.1,0-0.2,0.1C196.1,277.7,196.1,277.7,196.1,277.5&#10;&#9;&#9;&#9;C196.1,277.5,196.1,277.5,196.1,277.5z M195.6,281.9c-0.1,0.2,0,0.3,0.1,0.4c0.1-0.1,0.3-0.1,0.3-0.4&#10;&#9;&#9;&#9;C195.9,281.9,195.7,281.8,195.6,281.9z M195.5,284.9c0.6,0.1,1.1,0.1,1.6-0.1c-0.3-0.3-0.6-0.6-0.9-0.9c-0.1,0.1,0,0.2-0.1,0.2&#10;&#9;&#9;&#9;c0.1-0.4-0.3-0.7-0.4-1c-0.4,0-0.6,0.3-0.9,0.4C194.3,284.2,195.2,284.5,195.5,284.9z M196.2,285.5c0.3,0.1,0.3,0.4,0.8,0.4&#10;&#9;&#9;&#9;c0.1-0.3,0.4-0.3,0.5-0.6C197.2,285.3,196.6,285.3,196.2,285.5z M197.8,286c-0.1,0.2-0.3,0.1-0.3,0.3c0.1,0.1,0.4,0.3,0.6,0.2&#10;&#9;&#9;&#9;C198,286.3,197.9,286.1,197.8,286z" style="fill-rule: evenodd; clip-rule: evenodd; fill: rgb(110, 34, 20);"/>
		<path class="st4" d="M376.1,291.6c0,0.2-0.4,0.2-0.5,0.2c-0.7,0-1.4-0.5-2.1-0.6c-0.3-0.4-0.8-0.5-1.1-0.8c0.5,1,1.6,1.6,2.5,2.3&#10;&#9;&#9;&#9;c0.4,0.2,0.9,0.2,1,0.8c-0.3,0.1-0.6,0.1-0.9,0.1c-0.4-0.1-0.7-0.4-1-0.6c-0.5-0.2-1-0.2-1.3-0.6c0.4,1.2,1,2.4,1.6,3.6&#10;&#9;&#9;&#9;c0.4,0.7,0.6,1.1,0.9,2c0.1,0.4,0.3,0.8,0.2,1.2c0.4,0.9,0.2,1.7,0.3,2.7c-0.2,0.4-0.5,0.7-0.9,1c-0.7,0.5-1.8,1.2-2.9,1.1&#10;&#9;&#9;&#9;c-0.1-0.5,0.3-0.5,0.5-0.7c-0.1-0.3-0.4-0.5-0.4-0.9c0.5-0.7,1.3,0.4,1.9-0.4c0.1-0.1,0.4-1,0.4-1.2c0-0.5-0.2-1-0.4-1.4&#10;&#9;&#9;&#9;c-0.3-0.7-0.9-1.5-1.3-2.2c-0.2-0.3-0.2-0.5-0.4-0.8c-0.4-0.6-0.9-1.2-1.3-1.9c-0.4-0.6-0.9-1.2-1.2-1.9c-0.5-1-0.5-2.1-0.8-3.2&#10;&#9;&#9;&#9;c-0.3,0.5-0.8,2-1.6,1.3c0.1-0.6,0.4-1.4,0.1-1.9c-0.4-0.5-1.3-0.5-1.9-0.8c-0.4-0.2-0.5-0.4-0.8-0.5c-0.2,0.4,0.1,0.9,0,1.4&#10;&#9;&#9;&#9;c-0.1,0.6-0.8,0.9-1,1.3c0,0.7-0.2,1.3-0.1,2c0,0.2,0.2,0.4,0.3,0.6c0.1,0.3-0.1,0.7-0.1,1c0,0.4,0.1,0.9,0.1,1.4&#10;&#9;&#9;&#9;c0.1,1.3,0,2.9,0.1,4.3c0.1,1.4,0.5,2.7,0.3,3.8c0,0.3,0,0.5-0.1,0.9c-0.1,0.7-0.5,1.4-0.5,1.9c0.1,0.5,0.5,0.8,0.7,1.2&#10;&#9;&#9;&#9;c1-0.1,1.7,1.1,1.2,1.8c-1.1-0.1-2.1,0.6-2.9,0.2c-0.2,0-0.6,0.2-0.8,0c-0.5,0.3-1.2,0-1.3-0.4c-0.1-0.7,0.4-1.2,0.2-2&#10;&#9;&#9;&#9;c0-0.2-0.2-0.4-0.2-0.6c-0.2-0.9,0.1-1.8,0-2.8c0-1.6-0.5-3.2-0.7-4.5c-0.4,1.1-0.5,2.6-0.7,3.9c0,0.1-0.2,0.2-0.2,0.3&#10;&#9;&#9;&#9;c-0.1,0.6-0.2,1.4-0.5,2.1c-0.3,0.7-0.9,2-0.5,3.1c0.2,0.4,0.6,0.5,1,0.7c0.2,0.4,0.4,0.7,0.5,1.1c-0.7,0.7-2.2,0.9-3.5,1&#10;&#9;&#9;&#9;c-0.5,0-1-0.1-1.6-0.2c-0.6-0.5-0.3-1.2,0-1.8c-0.1-0.4-0.3-0.9-0.3-1.4c0-0.4,0.3-0.8,0.4-1.2c0.1-0.6,0-1.3,0.1-2&#10;&#9;&#9;&#9;c0.1-0.8,0.4-1.5,0.4-2.2c0-0.7,0.1-1.6-0.1-2.3c-0.2-0.7-1-1.3-0.8-2.6c-0.4,0.3-1,0.8-1.5,1.1c-0.8,0.4-1.5,0.5-2.2,0.8&#10;&#9;&#9;&#9;c-0.8,0.4-1.5,0.9-2.1,1.6c-0.1,0.2-0.2,0.4-0.3,0.6c-0.3,0.4-0.5,0.7-0.7,1.3c0.1,0.7-0.2,1.2,0.1,1.9c0.1,0.2,0.2,0.3,0.3,0.5&#10;&#9;&#9;&#9;c0.1,0.2,0.1,0.4,0.2,0.7c0.1,0.3,0.3,0.6,0.4,0.9c0.1,0.5,0.1,1,0.2,1.4c0.3,0.8,1.2,1.3,1.5,1.9c0.3,0.6,0.2,1-0.1,1.4&#10;&#9;&#9;&#9;c-1.2,0.6-2.7,0.7-4.4,0.6c-0.3-0.3-0.7-0.4-1-0.7c-0.3-0.6,0.2-1.2,0.2-1.7c0-0.7-0.8-1.4-0.8-2.1c-0.1-0.9,0.7-1.7,0.1-2.8&#10;&#9;&#9;&#9;c-0.3,0.7-0.2,1.5-0.4,2.3c-0.1,0.5-0.4,0.7-0.5,1.4c0,0.3,0,0.7,0,0.8c0.1,0.6,1.1,0.9,0.7,1.7c-0.3,0.2-0.7,0.2-0.9,0.6&#10;&#9;&#9;&#9;c-1.2,0-2-0.1-3.1-0.3c-0.4-0.5-1.5-0.8-1.5-1.6c0-0.3,0.2-0.8,0.4-1.1c-0.1-0.7,0-1.6,0.3-2.1c-0.4-1-0.9-1.8-0.8-3&#10;&#9;&#9;&#9;c0-0.4,0.3-0.8,0.2-1.2c0-1-0.5-2-0.8-3c-0.2-0.7-0.3-1.5-0.5-2.2c-0.4-1.3-0.8-2.3-0.7-3.9c0-0.3,0.2-0.7,0.3-1.1&#10;&#9;&#9;&#9;c0.2-0.5,0.2-1.1,0.3-1.6c0.4-0.4,0.4-0.9,0.5-1.4c0.1-0.1,0.2-0.2,0.3-0.4c0.1-0.2,0.1-0.5,0.2-0.7c0.2-0.5,0.5-1,0.8-1.5&#10;&#9;&#9;&#9;c0-0.1,0-0.3,0.1-0.4c0.2-0.5,0.6-1,0.9-1.5c0.3-0.5,0.5-1.1,0.8-1.6c0.1-0.1,0.3-0.2,0.4-0.3c0.1-0.2,0.2-0.4,0.3-0.5&#10;&#9;&#9;&#9;c0.3-0.3,0.7-0.5,0.9-0.8c0.5,0,0.8-0.4,1.1-0.6c0.1-0.1,0.2,0,0.4-0.1c0.2-0.1,0.5-0.4,0.8-0.5c0.6-0.3,1.2-0.5,1.6-1&#10;&#9;&#9;&#9;c0.4,0,0.5-0.3,0.8-0.2c1.1-0.9,3.3-0.9,4.9-1c0.4-0.2,1-0.1,1.5-0.2c0.5-0.1,0.9-0.2,1.3-0.3c0.3,0,0.7,0,1,0&#10;&#9;&#9;&#9;c0.4-0.1,0.8-0.3,1.2,0.1c0.5,0.1,1.2,0,1.3,0.3c1.1,0,1.9,0.6,3.1,0.6c0.3-0.3,0.7-0.1,0.8-0.4c0.2,0,0,0.1,0.1,0.2&#10;&#9;&#9;&#9;c0.2-0.4,0.6-0.3,1.1-0.5c0.5-0.1,0.7-0.6,1.2-0.8c0.1-0.1,0.3-0.1,0.4-0.1c0.7-0.3,1.3-1,2.3-0.7c1.2,0.4,2,1.8,2.5,3.1&#10;&#9;&#9;&#9;c0.4,0.4,0.7,0.8,1.2,1c0.6,0.6,0.4,1.8,0.7,2.8c0.1,0.4,0.2,0.9,0.3,1.5c0.2,1,0.6,2,0.1,2.9c0.1,1.1,0.7,1.5,1.4,2.1&#10;&#9;&#9;&#9;c0.7,0.7,1.4,1.1,2.2,1.6C375.6,291.2,376.1,291.4,376.1,291.6z M371.5,289.7c-0.2-0.4-0.4-1.1-0.8-1.2&#10;&#9;&#9;&#9;C371,289,371.2,289.4,371.5,289.7z M337.5,294.3c0.1,0.9,0,1.9,0.3,2.8c0.2,0.8,0.6,1.5,0.8,2.5c0.1,0.6,0.3,1.3,0.3,2&#10;&#9;&#9;&#9;c0,0.5-0.1,1,0,1.5c0.1,0.3,0.4,0.6,0.5,0.9c0.1,0.7,0.1,1.2-0.3,1.7c0,0.2,0.1,0.2,0.1,0.4c0.5-0.5,0.5-1.3,0.9-1.8&#10;&#9;&#9;&#9;c0-1.1,0.3-2.3,0.1-3.4c-0.1-0.7-0.5-1.5-0.7-2.4c-0.4-1.7-1-2.8-1.8-3.8c-0.1-0.1-0.1-0.3-0.2-0.4c-0.1,0-0.1-0.1-0.1-0.1&#10;&#9;&#9;&#9;C337.5,294.2,337.5,294.2,337.5,294.3z M339,305.1c0.1-0.1,0-0.3-0.1-0.4C338.8,304.8,338.9,305,339,305.1z" style="fill-rule: evenodd; clip-rule: evenodd; fill: rgb(110, 34, 20);"/>
		<path class="st3" d="M90.3,282.6c-4.9-2.4-10.8-2.7-16.2-2.8c-5.3-0.2-4.4,1.4-7.2,1.7c-2.8,0.3-2.4-1.3-4.2-2.7&#10;&#9;&#9;&#9;c-1.9-1.4-10.1-1.8-16.2,0.5c-0.3,0.1-0.6,0.2-0.8,0.3c0.2-2-2.1-3.9-7.2-3.8c-6.3,0.2-5.2,1.4-7.1,1.6c-1.9,0.2-6.3-0.6-8.9,0.3&#10;&#9;&#9;&#9;c-2.7,0.9-5.2,2.7-7.7,2.7c-2.5,0-8.9,1.1-7.8,4.9c0.5,1.6,2.4,2.1,4.4,1.7c0.4,0.7,1.3,0.9,2.2,0.9c1,0,1.9,0,2.6-0.1&#10;&#9;&#9;&#9;c0.3,0.3,0.7,0.6,1.1,0.9c0.7,1.5,1.9,2.5,3.4,3c1.1,0.9,2,1.8,2.7,2.4c2.8,2.6,7.9,7,9.2,9.9l0-0.4c0.1,0.2,0.1,0.5,0.2,0.7&#10;&#9;&#9;&#9;c1.1,4.1,0.7,26.7,0.7,26.7c1,0.7,2.3,0.3,2.3,0.3s0-19.4-0.3-22.5c0.4-3.4,1.4-5.3,2.2-7.2c0.8-1.9,3.6-7.6,5.3-9.9&#10;&#9;&#9;&#9;c0.3,0,0.5,0,0.8,0.1c3.2,3.2,6.9,7.3,7.9,9.3c1.7,3.4,3.7,23,5.3,29.3l1.6,0.1c0,0-1.2-13.1-1.5-14.9c-0.4-1.8-1.6-8-2.3-9.5&#10;&#9;&#9;&#9;c-0.7-1.5-1.6-5.4-3.5-7.7c-1-1.2-3.6-4.1-6.2-6.6c0.1,0,0.3,0,0.4,0c3.6,0.4,5.6,1,8.7,1.6c0.1,0.7,0.2,1.4,0.4,1.9&#10;&#9;&#9;&#9;c0.7,2.5,3.6,9.4,3.6,9.4c-0.2,2.6,1.2,23.3,1.4,25.9L61,331l0-12.2l0.7,11.9c-0.2-0.9,0.4-17.1,1.3-20.9c2.8-2.9,7-6.8,10.1-9.2&#10;&#9;&#9;&#9;c3.4-2.5,4.2-3,5.7-5c0.5-0.6,1.3-1.4,2.2-2.2c1.2,0.6,2.9,1.2,5.6,1.5c7.1,0.8,5.3-1.6,6.9-3.6c1.2-1.5-0.7-2.3-3-3&#10;&#9;&#9;&#9;c1.8-0.1,3.4-0.4,4.9-1.2C98.9,285.3,95.1,285,90.3,282.6z M62,307c-0.1-1.6,0.2-3.2,0.6-4.2c0.7-1.5,3.9-4.5,4.6-7.4&#10;&#9;&#9;&#9;c0.1-0.3,0.1-0.6,0.2-1c1.1,0,2.1-0.1,3.2-0.2c-1,1.3-1.9,2.4-2.5,3.3C66.3,300.1,63.7,303.9,62,307z M29.8,292.5&#10;&#9;&#9;&#9;c-0.2-0.3-0.4-0.5-0.6-0.9c0.2,0,0.4,0,0.6-0.1C29.8,291.9,29.8,292.2,29.8,292.5z M64.1,294.5c1,0,1.9,0,2.9-0.1&#10;&#9;&#9;&#9;c-0.1,0.7-0.3,1.2-0.5,1.6c-1.2,1.8-3.7,4.7-4.7,6.5c0.2-1.9,1-3.8,1.9-6C64,295.8,64.1,295.1,64.1,294.5z M22.6,292.8&#10;&#9;&#9;&#9;c-0.2-0.2-0.4-0.4-0.7-0.7c1.6,0.3,3.5,0.1,5.3-0.2c0.4-0.1,0.8-0.2,1.3-0.2c0.5,0.7,0.9,1.3,1.1,1.8c0.5,1.4,1.3,4.4,2.2,7.5&#10;&#9;&#9;&#9;C29.9,299.4,24,294.1,22.6,292.8z M30.5,293.8c-0.1-0.7-0.1-1.5-0.1-2.3c1.4-0.1,3-0.1,4.6-0.1c-0.2,1.5-0.4,2.9-0.6,3.8&#10;&#9;&#9;&#9;c-0.4,2.1-0.7,4.8-0.9,6.3C32.6,299.3,31.2,295.5,30.5,293.8z M35.8,301.5c0,1.2-0.3,2-0.3,2l-0.6,1.9c-0.2-0.8-0.4-1.5-0.7-2.4&#10;&#9;&#9;&#9;c0.5-3.2,0.3-5,1.1-9.1c0.1-0.8,0.3-1.6,0.4-2.5c1,0,1.9,0.1,2.8,0.1c-0.7,2.1-1.5,3.8-2,5.8C35.8,300.2,35.8,300.3,35.8,301.5z&#10;&#9;&#9;&#9; M38.8,297.2c-1.2,2-2.2,4.7-2.2,4.7s-0.2-2.9,0.8-5.4c0.4-0.9,1-2.9,1.7-4.9c1.1,0.1,2.2,0.1,3.2,0.2&#10;&#9;&#9;&#9;C41.2,293.6,39.9,295.3,38.8,297.2z M55.6,294.5c0-0.2-0.1-0.4-0.1-0.6c0.4,0.1,0.8,0.1,1.3,0.2c0.4,0,0.7,0.1,1.1,0.1&#10;&#9;&#9;&#9;c0.1,1.3,0.2,2.5,0.2,3c0,1.1,0.1,3.1,0,5.1C57.3,299.7,56.1,297.2,55.6,294.5z M59.2,296.1c0-0.5-0.1-1.1-0.2-1.8&#10;&#9;&#9;&#9;c1.4,0.1,3,0.2,4.6,0.2c0,0.2,0,0.3-0.1,0.4c-0.6,2.1-2.6,5.6-2.6,7.5c0,0.9,0,1.6,0.1,2.2c-0.2,0.7-0.1,1.5,0,2.7&#10;&#9;&#9;&#9;c0.1,0.5,0.1,0.9,0.2,1.3c-0.4,0.8-0.6,1.6-0.7,2.2c-0.2-1.4-0.4-3-0.6-4.4C59.5,302.4,59.5,298.7,59.2,296.1z M72.2,300.7&#10;&#9;&#9;&#9;c-1.2,1.2-7.3,5.5-8.4,6.2c0.2-0.6,0.4-1.2,0.6-1.7c1.2-2.7,4.7-7.7,7.2-11.1c1.4-0.1,2.8-0.3,4.2-0.5c0.6-0.1,1.2-0.2,1.8-0.3&#10;&#9;&#9;&#9;c-0.2,0.8-0.5,2.3-0.7,3.2C75.3,298.1,73.2,299.7,72.2,300.7z M78.6,295c-0.2,0.2-0.4,0.4-0.6,0.6c-0.1-0.2-0.2-0.8,0.1-1.9&#10;&#9;&#9;&#9;c0-0.1,0.1-0.2,0.1-0.3c0.7-0.1,1.4-0.2,2-0.3c0.1,0.1,0.2,0.1,0.4,0.2C79.8,293.9,79,294.5,78.6,295z" style="fill: rgb(110, 34, 20);"/>
		<path class="st3" d="M149.3,286.2c-2.6-1.3-5.8-1.4-8.7-1.5c-2.9-0.1-2.4,0.8-3.9,0.9c-1.5,0.2-1.3-0.7-2.3-1.4&#10;&#9;&#9;&#9;c-1-0.8-5.5-1-8.7,0.3c-0.2,0.1-0.3,0.1-0.5,0.2c0.1-1.1-1.1-2.1-3.9-2c-3.4,0.1-2.8,0.8-3.8,0.8c-1,0.1-3.4-0.3-4.8,0.2&#10;&#9;&#9;&#9;c-1.4,0.5-2.8,1.4-4.1,1.4c-1.4,0-4.8,0.6-4.2,2.6c0.2,0.9,1.3,1.1,2.4,0.9c0.2,0.4,0.7,0.5,1.2,0.5c0.5,0,1,0,1.4,0&#10;&#9;&#9;&#9;c0.2,0.2,0.4,0.3,0.6,0.5c0.4,0.8,1,1.3,1.8,1.6c0.6,0.5,1.1,1,1.5,1.3c1.5,1.4,4.3,3.8,5,5.3l0-0.2c0,0.1,0.1,0.3,0.1,0.4&#10;&#9;&#9;&#9;c0.6,2.2,0.4,14.4,0.4,14.4c0.5,0.4,1.2,0.2,1.2,0.2s0-10.5-0.2-12.1c0.2-1.8,0.8-2.9,1.2-3.9c0.4-1,1.9-4.1,2.8-5.3&#10;&#9;&#9;&#9;c0.1,0,0.3,0,0.4,0c1.7,1.7,3.7,3.9,4.3,5c0.9,1.8,2,12.4,2.8,15.8l0.8,0c0,0-0.6-7.1-0.8-8c-0.2-1-0.9-4.3-1.2-5.1&#10;&#9;&#9;&#9;c-0.4-0.8-0.9-2.9-1.9-4.1c-0.5-0.7-2-2.2-3.3-3.5c0.1,0,0.2,0,0.2,0c1.9,0.2,3,0.6,4.7,0.9c0,0.4,0.1,0.7,0.2,1&#10;&#9;&#9;&#9;c0.4,1.4,1.9,5,1.9,5c-0.1,1.4,0.6,12.5,0.8,14l0.8,0.1l0-6.6l0.4,6.4c-0.1-0.5,0.2-9.2,0.7-11.2c1.5-1.6,3.8-3.7,5.4-4.9&#10;&#9;&#9;&#9;c1.8-1.4,2.3-1.6,3.1-2.7c0.3-0.3,0.7-0.8,1.2-1.2c0.6,0.3,1.5,0.7,3,0.8c3.8,0.4,2.9-0.8,3.7-1.9c0.6-0.8-0.4-1.2-1.6-1.6&#10;&#9;&#9;&#9;c1-0.1,1.8-0.2,2.6-0.7C153.9,287.7,151.9,287.5,149.3,286.2z M134,299.3c-0.1-0.9,0.1-1.7,0.3-2.2c0.4-0.8,2.1-2.4,2.5-4&#10;&#9;&#9;&#9;c0-0.2,0.1-0.3,0.1-0.6c0.6,0,1.1-0.1,1.7-0.1c-0.5,0.7-1,1.3-1.3,1.8C136.3,295.7,134.9,297.7,134,299.3z M116.7,291.5&#10;&#9;&#9;&#9;c-0.1-0.1-0.2-0.3-0.3-0.5c0.1,0,0.2,0,0.3,0C116.7,291.2,116.7,291.4,116.7,291.5z M135.1,292.6c0.5,0,1,0,1.6,0&#10;&#9;&#9;&#9;c-0.1,0.4-0.2,0.7-0.3,0.8c-0.7,1-2,2.5-2.5,3.5c0.1-1,0.5-2.1,1-3.2C135.1,293.3,135.1,292.9,135.1,292.6z M112.8,291.7&#10;&#9;&#9;&#9;c-0.1-0.1-0.2-0.2-0.4-0.4c0.9,0.1,1.9,0.1,2.8-0.1c0.2,0,0.5-0.1,0.7-0.1c0.3,0.4,0.5,0.7,0.6,1c0.3,0.8,0.7,2.4,1.2,4&#10;&#9;&#9;&#9;C116.7,295.2,113.5,292.4,112.8,291.7z M117.1,292.3c0-0.4-0.1-0.8-0.1-1.2c0.8,0,1.6-0.1,2.5,0c-0.1,0.8-0.2,1.6-0.3,2.1&#10;&#9;&#9;&#9;c-0.2,1.2-0.4,2.6-0.5,3.4C118.2,295.2,117.4,293.1,117.1,292.3z M119.9,296.4c0,0.6-0.2,1.1-0.2,1.1l-0.3,1&#10;&#9;&#9;&#9;c-0.1-0.4-0.2-0.8-0.4-1.3c0.2-1.7,0.2-2.7,0.6-4.9c0.1-0.4,0.1-0.9,0.2-1.4c0.5,0,1,0,1.5,0.1c-0.4,1.1-0.8,2-1.1,3.1&#10;&#9;&#9;&#9;C119.9,295.7,119.9,295.8,119.9,296.4z M121.5,294.1c-0.6,1.1-1.2,2.5-1.2,2.5s-0.1-1.6,0.4-2.9c0.2-0.5,0.6-1.5,0.9-2.7&#10;&#9;&#9;&#9;c0.6,0,1.2,0.1,1.7,0.1C122.8,292.2,122.1,293,121.5,294.1z M130.6,292.6c0-0.1,0-0.2-0.1-0.3c0.2,0,0.5,0.1,0.7,0.1&#10;&#9;&#9;&#9;c0.2,0,0.4,0,0.6,0.1c0.1,0.7,0.1,1.3,0.1,1.6c0,0.6,0,1.7,0,2.7C131.5,295.4,130.8,294.1,130.6,292.6z M132.5,293.5&#10;&#9;&#9;&#9;c0-0.3-0.1-0.6-0.1-0.9c0.8,0.1,1.6,0.1,2.5,0.1c0,0.1,0,0.2,0,0.2c-0.3,1.1-1.4,3-1.4,4c0,0.5,0,0.9,0,1.2&#10;&#9;&#9;&#9;c-0.1,0.4-0.1,0.8,0,1.5c0,0.3,0.1,0.5,0.1,0.7c-0.2,0.5-0.3,0.9-0.4,1.2c-0.1-0.8-0.2-1.6-0.3-2.4&#10;&#9;&#9;&#9;C132.7,296.9,132.7,294.9,132.5,293.5z M139.5,296c-0.7,0.7-3.9,2.9-4.5,3.4c0.1-0.3,0.2-0.6,0.3-0.9c0.6-1.5,2.5-4.1,3.9-6&#10;&#9;&#9;&#9;c0.8-0.1,1.5-0.2,2.2-0.3c0.3-0.1,0.7-0.1,1-0.1c-0.1,0.4-0.3,1.3-0.4,1.7C141.2,294.5,140,295.4,139.5,296z M142.9,292.9&#10;&#9;&#9;&#9;c-0.1,0.1-0.2,0.2-0.3,0.3c-0.1-0.1-0.1-0.4,0.1-1.1c0-0.1,0-0.1,0.1-0.2c0.4,0,0.7-0.1,1.1-0.1c0.1,0,0.1,0.1,0.2,0.1&#10;&#9;&#9;&#9;C143.6,292.3,143.2,292.6,142.9,292.9z" style="fill: rgb(110, 34, 20);"/>
	</g>
</g>
<path d="M 241.100006 152.199997 A 34.5 34.5 0 0 1 206.600006 186.699997 A 34.5 34.5 0 0 1 172.100006 152.199997 A 34.5 34.5 0 0 1 206.600006 117.699997 A 34.5 34.5 0 0 1 241.100006 152.199997 Z" class="st5" style="fill: rgb(255, 252, 213);"/>
</svg>