<?xml version="1.0" encoding="utf-8"?>
<svg id="master-artboard" viewBox="0 0 1400 980" version="1.1" xmlns="http://www.w3.org/2000/svg" x="0px" y="0px" style="enable-background:new 0 0 1400 980;" width="1400px" height="980px">

<linearGradient id="SVGID_1_" gradientUnits="userSpaceOnUse" x1="700.0937" y1="-4.5171" x2="700.0937" y2="981.3104">
		<stop offset="0" style="stop-color:#553054"/>
		<stop offset="0.3018" style="stop-color:#5F375C"/>
		<stop offset="0.807" style="stop-color:#794971"/>
		<stop offset="0.9956" style="stop-color:#84517A"/>
	</linearGradient><path d="M 0.1 0 H 1400.1 V 980 H 0.1 V 0 Z" class="st0" style="fill: url('#SVGID_1_');" transform="matrix(1, 0, 0, 1, 2.842170943040401e-14, 7.105427357601002e-15)"/>
<g transform="matrix(1, 0, 0, 1, 2.842170943040401e-14, 7.105427357601002e-15)">
		<path class="st1" d="M1039.8,5c-20.4-2-39.5,6.8-51.4,21.7c-5.6-10.4-13.5-19.6-23-26.8H865.2c-2.3,1.7-4.5,3.6-6.6,5.5&#10;&#9;&#9;&#9;c-2.9-2.1-5.9-4-9.2-5.5h-48.1c-6.8,3.2-12.8,7.8-17.8,13.4c-6.1-6-13.6-10.7-22-13.4h-34.5c-20.4,6.6-36,24.8-38.2,47.4&#10;&#9;&#9;&#9;c-3,30.6,19.4,57.8,50,60.8c18.5,1.8,35.8-5.6,47.3-18.6c8.8,8.7,20.5,14.5,33.7,15.8c7.4,0.7,14.7,0,21.4-2.1&#10;&#9;&#9;&#9;c12.4,24.3,36.6,42.1,65.9,45c24.6,2.4,47.8-6.2,64.6-21.7c4.4,6.4,11.5,10.9,19.8,11.7c13.1,1.3,25-6.9,28.8-19.1&#10;&#9;&#9;&#9;c2.6,0.6,5.2,1.1,8,1.4c32,3.2,60.5-20.2,63.7-52.1C1095.2,36.7,1071.8,8.2,1039.8,5z" style="fill: rgb(66, 33, 65);"/>
		<path class="st2" d="M350.2,242.1c20.4,2,39.5-6.8,51.4-21.7c12.7,23.4,36.4,40.4,64.9,43.2c24.8,2.4,48-6.2,64.9-22&#10;&#9;&#9;&#9;c7.8,5.8,17.3,9.7,27.8,10.7c18.5,1.8,35.8-5.6,47.3-18.6c8.8,8.7,20.5,14.5,33.7,15.8c30.6,3,57.9-19.3,61-49.9&#10;&#9;&#9;&#9;c3-30.6-19.4-57.8-50-60.8c-18.5-1.8-35.8,5.6-47.3,18.6c-8.8-8.7-20.5-14.5-33.7-15.8c-7.4-0.7-14.7,0-21.4,2.1&#10;&#9;&#9;&#9;c-12.4-24.3-36.6-42.1-65.9-45c-24.6-2.4-47.8,6.2-64.6,21.7c-4.4-6.4-11.5-10.9-19.8-11.7c-13.1-1.3-25,6.9-28.8,19.1&#10;&#9;&#9;&#9;c-2.6-0.6-5.2-1.1-8-1.4c-32-3.2-60.5,20.2-63.7,52.1S318.2,239,350.2,242.1z" style="fill: rgb(74, 39, 73);"/>
		<path class="st2" d="M864.3,82.3c-18.8,0-35.2,9.7-44.7,24.3c-13.6-20.2-36.7-33.4-62.9-33.4c-22.7,0-43.1,10-57,25.8&#10;&#9;&#9;&#9;c-7.7-4.6-16.6-7.2-26.2-7.2c-17,0-32,8.3-41.3,21.1c-8.8-7.1-19.9-11.4-32.1-11.4c-28.1,0-50.9,22.7-50.9,50.8&#10;&#9;&#9;&#9;s22.8,50.8,50.9,50.8c17,0,32-8.3,41.3-21.1c8.8,7.1,19.9,11.4,32.1,11.4c6.8,0,13.3-1.4,19.3-3.8c13.5,21,37,34.9,63.9,34.9&#10;&#9;&#9;&#9;c22.6,0,42.9-9.9,56.7-25.5c4.6,5.4,11.4,8.8,19,8.8c12.1,0,22.1-8.5,24.4-19.9c2.4,0.3,4.9,0.5,7.4,0.5&#10;&#9;&#9;&#9;c29.4,0,53.2-23.8,53.2-53.1S893.7,82.3,864.3,82.3z" style="fill: rgb(74, 39, 73);"/>
		<path class="st2" d="M1400.1,114.5c-8.7-13.1-23.7-21.7-40.6-21.7c-14.7,0-27.9,6.5-36.9,16.8c-8.4-6.2-18.9-9.9-30.2-9.9&#10;&#9;&#9;&#9;c-20.6,0-38.2,12.2-46.2,29.7c-3.8-1.4-7.9-2.1-12.1-2.1c-0.1,0-0.2,0-0.3,0c-3.3-32.7-31-58.2-64.6-58.2&#10;&#9;&#9;&#9;c-35.9,0-64.9,29-64.9,64.8c0,0.6,0,1.2,0,1.8c-4.1-1.2-8.5-1.8-13-1.8c-3.7,0-7.3,0.4-10.8,1.3c-10.3-33.6-41.6-58.1-78.7-58.1&#10;&#9;&#9;&#9;c-33.9,0-63.1,20.5-75.7,49.8c-5.6-4.5-12.7-7.1-20.5-7.1c-18.2,0-33,14.8-33,33c0,15.6,10.8,28.6,25.4,32.1&#10;&#9;&#9;&#9;c-0.3,1.7-0.4,3.4-0.4,5.2c0,16.8,13.7,30.5,30.5,30.5c5.4,0,10.4-1.4,14.8-3.8c14.9,15.3,35.8,24.7,58.8,24.7&#10;&#9;&#9;&#9;c23.4,0,44.6-9.8,59.5-25.5c8.1,6.8,18.6,10.9,30,10.9c13,0,24.8-5.3,33.2-13.9c4,4.7,10,7.7,16.7,7.7c12.1,0,21.9-9.8,21.9-21.9&#10;&#9;&#9;&#9;c0-0.1,0-0.2,0-0.3c2,0.2,3.9,0.3,5.9,0.3c14.2,0,27.3-4.6,38-12.2c6.6,7.5,16.2,12.2,27,12.2c9.7,0,18.5-3.9,24.9-10.1&#10;&#9;&#9;&#9;c8.9,7.8,20.6,12.5,33.4,12.5c7,0,13.7-1.4,19.8-4c1.6,9.4,9.7,16.6,19.6,16.6c11,0,19.9-8.9,19.9-19.9c0-1.5-0.2-2.9-0.5-4.4&#10;&#9;&#9;&#9;c2.7,0.5,5.4,0.7,8.2,0.7c16.9,0,31.9-8.6,40.6-21.7V114.5z" style="fill: rgb(74, 39, 73);"/>
		<path class="st2" d="M442.3,86.5c-14.7,0-27.9,6.5-36.9,16.8c-8.4-6.2-18.9-9.9-30.2-9.9c-20.6,0-38.2,12.2-46.2,29.7&#10;&#9;&#9;&#9;c-3.8-1.4-7.9-2.1-12.1-2.1c-0.1,0-0.2,0-0.3,0c-3.3-32.7-31-58.2-64.6-58.2c-35.9,0-64.9,29-64.9,64.8c0,0.6,0,1.2,0,1.8&#10;&#9;&#9;&#9;c-4.1-1.2-8.5-1.8-13-1.8c-3.7,0-7.3,0.4-10.8,1.3c-10.3-33.6-41.6-58.1-78.7-58.1c-33.9,0-63.1,20.5-75.7,49.8&#10;&#9;&#9;&#9;c-2.7-2.1-5.7-3.8-9-5v96.6c3.4,1.3,7.1,2,10.9,2c5.4,0,10.4-1.4,14.8-3.8C40.8,225.5,61.6,235,84.7,235&#10;&#9;&#9;&#9;c23.4,0,44.6-9.8,59.5-25.5c8.1,6.8,18.6,10.9,30,10.9c13,0,24.8-5.3,33.2-13.9c4,4.7,10,7.7,16.7,7.7c12.1,0,21.9-9.8,21.9-21.9&#10;&#9;&#9;&#9;c0-0.1,0-0.2,0-0.3c2,0.2,3.9,0.3,5.9,0.3c14.2,0,27.3-4.6,38-12.2c6.6,7.5,16.2,12.2,27,12.2c9.7,0,18.5-3.9,24.9-10.1&#10;&#9;&#9;&#9;c8.9,7.8,20.6,12.5,33.4,12.5c7,0,13.7-1.4,19.8-4c1.6,9.4,9.7,16.6,19.6,16.6c11,0,19.9-8.9,19.9-19.9c0-1.5-0.2-2.9-0.5-4.4&#10;&#9;&#9;&#9;c2.7,0.5,5.4,0.7,8.2,0.7c26.9,0,48.8-21.8,48.8-48.7S469.3,86.5,442.3,86.5z" style="fill: rgb(74, 39, 73);"/>
		<path class="st1" d="M509.4,175.6c18.8,0,35.2-9.7,44.7-24.3c13.6,20.2,36.7,33.4,62.9,33.4c22.7,0,43.1-10,57-25.8&#10;&#9;&#9;&#9;c7.7,4.6,16.6,7.2,26.2,7.2c17,0,32-8.3,41.3-21.1c8.8,7.1,19.9,11.4,32.1,11.4c28.1,0,50.9-22.7,50.9-50.8s-22.8-50.8-50.9-50.8&#10;&#9;&#9;&#9;c-17,0-32,8.3-41.3,21.1c-8.8-7.1-19.9-11.4-32.1-11.4c-6.8,0-13.3,1.4-19.3,3.8c-13.5-21-37-34.9-63.9-34.9&#10;&#9;&#9;&#9;c-22.6,0-42.9,9.9-56.7,25.5c-4.6-5.4-11.4-8.8-19-8.8c-12.1,0-22.1,8.5-24.4,19.9c-2.4-0.3-4.9-0.5-7.4-0.5&#10;&#9;&#9;&#9;c-29.4,0-53.2,23.8-53.2,53.1S480.1,175.6,509.4,175.6z" style="fill: rgb(66, 33, 65);"/>
		<path class="st1" d="M495.3,65.5c0.3-1.7,0.4-3.4,0.4-5.2c0-16.8-13.7-30.5-30.5-30.5c-5.4,0-10.4,1.4-14.8,3.8&#10;&#9;&#9;&#9;C435.4,18.5,414.6,9,391.5,9c-23.4,0-44.6,9.8-59.5,25.5c-8.1-6.8-18.6-10.9-30-10.9c-13,0-24.8,5.3-33.2,13.9&#10;&#9;&#9;&#9;c-4-4.7-10-7.7-16.7-7.7c-12.1,0-21.9,9.8-21.9,21.9c0,0.1,0,0.2,0,0.3c-2-0.2-3.9-0.3-5.9-0.3c-14.2,0-27.3,4.6-38,12.2&#10;&#9;&#9;&#9;c-6.6-7.5-16.2-12.2-27-12.2c-9.7,0-18.5,3.9-24.9,10.1c-8.9-7.8-20.6-12.5-33.4-12.5c-7,0-13.7,1.4-19.8,4&#10;&#9;&#9;&#9;c-1.6-9.4-9.7-16.6-19.6-16.6c-11,0-19.9,8.9-19.9,19.9c0,1.5,0.2,2.9,0.5,4.4c-2.7-0.5-5.4-0.7-8.2-0.7c-13.1,0-25,5.2-33.8,13.6&#10;&#9;&#9;&#9;v70.1c8.8,8.4,20.7,13.6,33.8,13.6c14.7,0,27.9-6.5,36.9-16.8c8.4,6.2,18.9,9.9,30.2,9.9c20.6,0,38.2-12.2,46.2-29.7&#10;&#9;&#9;&#9;c3.8,1.4,7.9,2.1,12.1,2.1c0.1,0,0.2,0,0.3,0c3.3,32.7,31,58.2,64.6,58.2c35.9,0,64.9-29,64.9-64.8c0-0.6,0-1.2,0-1.8&#10;&#9;&#9;&#9;c4.1,1.2,8.5,1.8,13,1.8c3.7,0,7.3-0.4,10.8-1.3c10.3,33.6,41.6,58.1,78.7,58.1c33.9,0,63.1-20.5,75.7-49.8&#10;&#9;&#9;&#9;c5.6,4.5,12.7,7.1,20.5,7.1c18.2,0,33-14.8,33-33C520.7,82,509.8,69,495.3,65.5z" style="fill: rgb(66, 33, 65);"/>
		<path class="st1" d="M1400.1,44.7c-2.4-0.6-4.9-0.9-7.5-0.9c-5.4,0-10.4,1.4-14.8,3.8c-14.9-15.3-35.8-24.7-58.8-24.7&#10;&#9;&#9;&#9;c-23.4,0-44.6,9.8-59.5,25.5c-8.1-6.8-18.6-10.9-30-10.9c-13,0-24.8,5.3-33.2,13.9c-4-4.7-10-7.7-16.7-7.7&#10;&#9;&#9;&#9;c-12.1,0-21.9,9.8-21.9,21.9c0,0.1,0,0.2,0,0.3c-2-0.2-3.9-0.3-5.9-0.3c-14.2,0-27.3,4.6-38,12.2c-6.6-7.5-16.2-12.2-27-12.2&#10;&#9;&#9;&#9;c-9.7,0-18.5,3.9-24.9,10.1c-8.9-7.8-20.6-12.5-33.4-12.5c-7,0-13.7,1.4-19.8,4c-1.6-9.4-9.7-16.6-19.6-16.6&#10;&#9;&#9;&#9;c-11,0-19.9,8.9-19.9,19.9c0,1.5,0.2,2.9,0.5,4.4c-2.7-0.5-5.4-0.7-8.2-0.7c-26.9,0-48.8,21.8-48.8,48.7s21.8,48.7,48.8,48.7&#10;&#9;&#9;&#9;c14.7,0,27.9-6.5,36.9-16.8c8.4,6.2,18.9,9.9,30.2,9.9c20.6,0,38.2-12.2,46.2-29.7c3.8,1.4,7.9,2.1,12.1,2.1c0.1,0,0.2,0,0.3,0&#10;&#9;&#9;&#9;c3.3,32.7,31,58.2,64.6,58.2c35.9,0,64.9-29,64.9-64.8c0-0.6,0-1.2,0-1.8c4.1,1.2,8.5,1.8,13,1.8c3.7,0,7.3-0.4,10.8-1.3&#10;&#9;&#9;&#9;c10.3,33.6,41.6,58.1,78.7,58.1c33.9,0,63.1-20.5,75.7-49.8c1.7,1.4,3.6,2.5,5.5,3.5V44.7z" style="fill: rgb(66, 33, 65);"/>
		<path class="st3" d="M0.1,0v74.2c9.4,7.3,21.2,11.6,34,11.6c18.6,0,35.1-9.1,45.2-23.1c9.6,7.8,21.8,12.5,35.1,12.5&#10;&#9;&#9;&#9;c7.5,0,14.6-1.5,21.1-4.1c14.8,23,40.6,38.3,70,38.3c24.7,0,46.9-10.8,62.2-28c5,5.9,12.5,9.7,20.9,9.7c13.2,0,24.2-9.4,26.8-21.8&#10;&#9;&#9;&#9;c2.6,0.4,5.3,0.6,8.1,0.6c32.2,0,58.3-26,58.3-58.1c0-4-0.4-7.9-1.2-11.6H0.1z" style="fill: rgb(54, 23, 54);"/>
		<path class="st3" d="M1013.5,0c-10.6,10.5-17.1,25.1-17.1,41.2c0,32.1,26.1,58.1,58.3,58.1c20.5,0,38.6-10.6,49-26.7&#10;&#9;&#9;&#9;c14.9,22.1,40.2,36.6,68.9,36.6c24.9,0,47.2-10.9,62.4-28.2c8.4,5,18.2,7.9,28.7,7.9c18.6,0,35.1-9.1,45.2-23.1&#10;&#9;&#9;&#9;c9.6,7.8,21.8,12.5,35.1,12.5c30.8,0,55.8-24.9,55.8-55.6c0-8.1-1.7-15.7-4.8-22.6H1013.5z" style="fill: rgb(54, 23, 54);"/>
		<path class="st3" d="M356.5,0c-0.2,1.7-0.3,3.4-0.3,5.1c0,19.8,13.8,36.4,32.2,40.7c-0.4,2.1-0.6,4.3-0.6,6.5&#10;&#9;&#9;&#9;c0,21.4,17.4,38.7,38.8,38.7c6.8,0,13.3-1.8,18.9-4.9c19,19.4,45.5,31.4,74.8,31.4c29.8,0,56.6-12.4,75.6-32.4&#10;&#9;&#9;&#9;c10.3,8.7,23.6,13.9,38.1,13.9c16.5,0,31.5-6.8,42.2-17.7c5.1,6,12.7,9.8,21.3,9.8c15.4,0,27.9-12.5,27.9-27.8c0-0.1,0-0.2,0-0.4&#10;&#9;&#9;&#9;c2.5,0.2,5,0.4,7.6,0.4c18,0,34.7-5.8,48.2-15.6c8.3,9.5,20.6,15.6,34.2,15.6c12.3,0,23.5-4.9,31.7-12.9&#10;&#9;&#9;&#9;c11.3,9.9,26.2,15.9,42.4,15.9c8.9,0,17.4-1.8,25.2-5.1c2,11.9,12.4,21,24.9,21c14,0,25.3-11.3,25.3-25.2c0-1.9-0.2-3.7-0.6-5.5&#10;&#9;&#9;&#9;c3.4,0.6,6.9,0.9,10.4,0.9c31.1,0,56.8-22.8,61.3-52.6H356.5z" style="fill: rgb(54, 23, 54);"/>
	</g>
<g transform="matrix(1, 0, 0, 1, 2.842170943040401e-14, 7.105427357601002e-15)">
		<g>
			<path d="M 1005.299988 764.299988 L 1399.800049 765.299988 L 1399.800049 602.400024 L 1273.099976 452.899994 L 1181.5 562.700012 L 1182.599976 563.900024" class="st4" style="fill-rule: evenodd; clip-rule: evenodd; fill: rgb(48, 184, 61);"/>
			<path d="M 1005.2999877929688 765.2999877929688 L 1157.9000244140625 591.0999755859375 L 1199.5999755859375 579.7000122070312 L 1281.800048828125 623.5999755859375 L 1313.5999755859375 669.7999877929688 L 1295.199951171875 718 L 1303.9000244140625 765.7000122070312 Z" class="st5" style="fill-rule: evenodd; clip-rule: evenodd; fill: rgb(50, 150, 0);"/>
			<path d="M 1157.9000244140625 591.0999755859375 L 1273.0999755859375 452.8999938964844 L 1393.9000244140625 595.2999877929688 L 1312.800048828125 563.9000244140625 L 1281.800048828125 623.5999755859375 L 1199.5999755859375 579.7000122070312 Z" class="st6" style="fill-rule: evenodd; clip-rule: evenodd; fill: rgb(203, 203, 205);"/>
			<path d="M 1281.800048828125 623.5999755859375 L 1273.0999755859375 452.8999938964844 L 1393.9000244140625 595.2999877929688 L 1312.800048828125 563.9000244140625 Z" class="st7" style="fill-rule: evenodd; clip-rule: evenodd; fill: rgb(177, 178, 177);"/>
			<g>
				<path d="M 1367.300049 781.799988 L 1011.599976 362.200012 L 870.799988 538 L 739.299988 735.799988 L 572.799988 763.299988 L 1005.299988 764.299988" class="st4" style="fill-rule: evenodd; clip-rule: evenodd; fill: rgb(48, 184, 61);"/>
			</g>
			<path d="M 897.5999755859375 499.70001220703125 L 1010.0999755859375 355.5 L 1113.800048828125 497.5 L 988.5999755859375 490.8999938964844 L 957.4000244140625 508.5 L 927.9000244140625 491.79998779296875 Z" class="st6" style="fill-rule: evenodd; clip-rule: evenodd; fill: rgb(203, 203, 205);"/>
			<path d="M 897.5999755859375 499.70001220703125 L 927.9000244140625 491.79998779296875 L 957.4000244140625 508.5 L 988.5999755859375 490.8999938964844 L 966.0999755859375 554 L 1010.0999755859375 623.0999755859375 L 1005.2999877929688 765.7000122070312 L 572.7999877929688 763.2999877929688 L 739.2999877929688 735.7999877929688 Z" class="st5" style="fill-rule: evenodd; clip-rule: evenodd; fill: rgb(50, 150, 0);"/>
			<path d="M 988.5999755859375 490.8999938964844 L 1010.0999755859375 355.5 L 1129.5 501.3999938964844 Z" class="st7" style="fill-rule: evenodd; clip-rule: evenodd; fill: rgb(177, 178, 177);"/>
		</g>
		<g>
			<g>
				<path d="M 220.39999389648438 343.1000061035156 L 64.80000305175781 529.5999755859375 L 0.10000000149011612 611.5999755859375 L 0.10000000149011612 763.9000244140625 L 427.70001220703125 762.9000244140625 L 429.1000061035156 595.5 Z" class="st4" style="fill-rule: evenodd; clip-rule: evenodd; fill: rgb(48, 184, 61);"/>
				<path d="M 905.799988 489.100006 L 678.400024 220.899994 L 476.299988 514.5 L 235.5 765.700012 L 722.400024 764.5" class="st4" style="fill-rule: evenodd; clip-rule: evenodd; fill: rgb(48, 184, 61);"/>
			</g>
			<path d="M 524.5 406.5 L 676.5 211.89999389648438 L 816.5 403.6000061035156 L 647.4000244140625 394.70001220703125 L 605.4000244140625 418.3999938964844 L 565.5 395.8999938964844 Z" class="st6" style="fill-rule: evenodd; clip-rule: evenodd; fill: rgb(203, 203, 205);"/>
			<path d="M 524.5 406.5 L 565.5 395.8999938964844 L 605.4000244140625 418.3999938964844 L 647.5 394.70001220703125 L 617 479.8999938964844 L 676.5 573.2000122070312 L 669.9000244140625 765.7000122070312 L 235.5 765.7000122070312 L 439.79998779296875 514.5 Z" class="st5" style="fill-rule: evenodd; clip-rule: evenodd; fill: rgb(50, 150, 0);"/>
			<path d="M 275.1000061035156 635.9000244140625 L 232.10000610351562 573.5 L 121.19999694824219 514.2000122070312 L 64.80000305175781 529.5999755859375 L 0.10000000149011612 611.7999877929688 L 0.10000000149011612 765 L 261.8999938964844 765.2999877929688 Z" class="st5" style="fill-rule: evenodd; clip-rule: evenodd; fill: rgb(50, 150, 0);"/>
			<path d="M 64.80000305175781 529.5999755859375 L 220.39999389648438 343.1000061035156 L 381.5 538 L 274 493 L 232.10000610351562 573.5 L 121.19999694824219 514.2000122070312 Z" class="st6" style="fill-rule: evenodd; clip-rule: evenodd; fill: rgb(203, 203, 205);"/>
			<path d="M 647.4000244140625 394.70001220703125 L 676.5 211.89999389648438 L 837.7000122070312 408.79998779296875 Z" class="st7" style="fill-rule: evenodd; clip-rule: evenodd; fill: rgb(177, 178, 177);"/>
			<path d="M 232.10000610351562 573.5 L 220.39999389648438 343.1000061035156 L 381.5 538 L 274 493 Z" class="st7" style="fill-rule: evenodd; clip-rule: evenodd; fill: rgb(177, 178, 177);"/>
		</g>
	</g>
<g transform="matrix(1, 0, 0, 1, 2.842170943040401e-14, 7.105427357601002e-15)">
		<path class="st8" d="M1379.5,866.4c0-267.9-339.1-80.6-505.4-110.7c-86.2-15.6-152.8-132.9-238.8-147.9&#10;&#9;&#9;&#9;c-85.9-15.1-173.2,14.8-253.7,73.4c-25.8,18.8-51.8,40.7-79.4,41.6c-37,1.2-71-35.5-103.6-68.5C136.9,592,70,537.7,0.1,539.6V897&#10;&#9;&#9;&#9;L1379.5,866.4z" style="fill: rgb(130, 195, 65);"/>
	</g>
<g transform="matrix(1, 0, 0, 1, 2.842170943040401e-14, 7.105427357601002e-15)">
		<path class="st9" d="M814.1,807.3C761,823.4,706.7,842.2,653,830.9c-41.4-8.7-80.9-35.1-122.7-35.6&#10;&#9;&#9;&#9;c-46.9-0.5-90.5,31.6-135.2,51.6c-50.3,22.4-105.2,29.5-155.6,7.7c-42.5-18.3-79.5-55.9-120.7-79.6c-38-21.8-84.2-29.8-118.6-0.4&#10;&#9;&#9;&#9;V980h1400l-0.3-260.5C1324.4,678.7,920.6,775.1,814.1,807.3z" style="fill: rgb(72, 178, 107);"/>
	</g>
<g transform="matrix(1, 0, 0, 1, 2.842170943040401e-14, 7.105427357601002e-15)">
		<g>
			<path d="M 113 672 L 50 837.4000244140625 L 113 837.4000244140625 L 176 837.4000244140625 Z" class="st10" style="fill: rgb(0, 126, 60);"/>
			<path d="M 113 626.2999877929688 L 60.5 791.7999877929688 L 113 791.7999877929688 L 165.5 791.7999877929688 Z" class="st10" style="fill: rgb(0, 126, 60);"/>
			<path d="M 113 580.5999755859375 L 67.9000015258789 746.0999755859375 L 113 746.0999755859375 L 158 746.0999755859375 Z" class="st10" style="fill: rgb(0, 126, 60);"/>
		</g>
		<g>
			<path d="M 601.5 558 L 578.5999755859375 618.2000122070312 L 601.5 618.2000122070312 L 624.4000244140625 618.2000122070312 Z" class="st11" style="fill: rgb(50, 150, 0);"/>
			<path d="M 601.5 541.2999877929688 L 582.4000244140625 601.5999755859375 L 601.5 601.5999755859375 L 620.5999755859375 601.5999755859375 Z" class="st11" style="fill: rgb(50, 150, 0);"/>
			<path d="M 601.5 524.7000122070312 L 585.0999755859375 584.9000244140625 L 601.5 584.9000244140625 L 617.9000244140625 584.9000244140625 Z" class="st11" style="fill: rgb(50, 150, 0);"/>
		</g>
		<g>
			<path d="M 561.0999755859375 557.7999877929688 L 536.7000122070312 621.9000244140625 L 561.0999755859375 621.9000244140625 L 585.5 621.9000244140625 Z" class="st10" style="fill: rgb(0, 126, 60);"/>
			<path d="M 561.0999755859375 540.0999755859375 L 540.7999877929688 604.2999877929688 L 561.0999755859375 604.2999877929688 L 581.4000244140625 604.2999877929688 Z" class="st10" style="fill: rgb(0, 126, 60);"/>
			<path d="M 561.0999755859375 522.4000244140625 L 543.5999755859375 586.5999755859375 L 561.0999755859375 586.5999755859375 L 578.5999755859375 586.5999755859375 Z" class="st10" style="fill: rgb(0, 126, 60);"/>
		</g>
		<g>
			<path d="M 625.5 577.7000122070312 L 603.7000122070312 635.0999755859375 L 625.5 635.0999755859375 L 647.2999877929688 635.0999755859375 Z" class="st10" style="fill: rgb(0, 126, 60);"/>
			<path d="M 625.5 561.9000244140625 L 607.2999877929688 619.2000122070312 L 625.5 619.2000122070312 L 643.7000122070312 619.2000122070312 Z" class="st10" style="fill: rgb(0, 126, 60);"/>
			<path d="M 625.5 546 L 609.9000244140625 603.4000244140625 L 625.5 603.4000244140625 L 641.0999755859375 603.4000244140625 Z" class="st10" style="fill: rgb(0, 126, 60);"/>
		</g>
		<g>
			<path d="M 315.5 664.2999877929688 L 283.79998779296875 747.5999755859375 L 315.5 747.5999755859375 L 347.20001220703125 747.5999755859375 Z" class="st10" style="fill: rgb(0, 126, 60);"/>
			<path d="M 315.5 641.2999877929688 L 289.1000061035156 724.5999755859375 L 315.5 724.5999755859375 L 342 724.5999755859375 Z" class="st10" style="fill: rgb(0, 126, 60);"/>
			<path d="M 315.5 618.2999877929688 L 292.79998779296875 701.5999755859375 L 315.5 701.5999755859375 L 338.20001220703125 701.5999755859375 Z" class="st10" style="fill: rgb(0, 126, 60);"/>
		</g>
		<g>
			<path d="M 257.5 677.4000244140625 L 223.8000030517578 765.9000244140625 L 257.5 765.9000244140625 L 291.20001220703125 765.9000244140625 Z" class="st10" style="fill: rgb(0, 126, 60);"/>
			<path d="M 257.5 653 L 229.39999389648438 741.5 L 257.5 741.5 L 285.6000061035156 741.5 Z" class="st10" style="fill: rgb(0, 126, 60);"/>
			<path d="M 257.5 628.5999755859375 L 233.39999389648438 717 L 257.5 717 L 281.6000061035156 717 Z" class="st10" style="fill: rgb(0, 126, 60);"/>
		</g>
		<g>
			<path d="M 372.3999938964844 711.7999877929688 L 332.70001220703125 816.2000122070312 L 372.3999938964844 816.2000122070312 L 412.20001220703125 816.2000122070312 Z" class="st10" style="fill: rgb(0, 126, 60);"/>
			<path d="M 372.3999938964844 683 L 339.29998779296875 787.4000244140625 L 372.3999938964844 787.4000244140625 L 405.5 787.4000244140625 Z" class="st10" style="fill: rgb(0, 126, 60);"/>
			<path d="M 372.3999938964844 654.2000122070312 L 344 758.5999755859375 L 372.3999938964844 758.5999755859375 L 400.79998779296875 758.5999755859375 Z" class="st10" style="fill: rgb(0, 126, 60);"/>
		</g>
		<g>
			<path d="M 480 572.2999877929688 L 455.6000061035156 636.4000244140625 L 480 636.4000244140625 L 504.3999938964844 636.4000244140625 Z" class="st10" style="fill: rgb(0, 126, 60);"/>
			<path d="M 480 554.5999755859375 L 459.6000061035156 618.7000122070312 L 480 618.7000122070312 L 500.29998779296875 618.7000122070312 Z" class="st10" style="fill: rgb(0, 126, 60);"/>
			<path d="M 480 536.9000244140625 L 462.5 601 L 480 601 L 497.3999938964844 601 Z" class="st10" style="fill: rgb(0, 126, 60);"/>
		</g>
		<g>
			<path d="M 662.7000122070312 592.7999877929688 L 630.0999755859375 678.2999877929688 L 662.7000122070312 678.2999877929688 L 695.2999877929688 678.2999877929688 Z" class="st10" style="fill: rgb(0, 126, 60);"/>
			<path d="M 662.7000122070312 569.0999755859375 L 635.5 654.7000122070312 L 662.7000122070312 654.7000122070312 L 689.7999877929688 654.7000122070312 Z" class="st10" style="fill: rgb(0, 126, 60);"/>
			<path d="M 662.7000122070312 545.5 L 639.4000244140625 631.0999755859375 L 662.7000122070312 631.0999755859375 L 686 631.0999755859375 Z" class="st10" style="fill: rgb(0, 126, 60);"/>
		</g>
		<g>
			<path d="M 733.4000244140625 620.4000244140625 L 700.5 706.9000244140625 L 733.4000244140625 706.9000244140625 L 766.2999877929688 706.9000244140625 Z" class="st10" style="fill: rgb(0, 126, 60);"/>
			<path d="M 733.4000244140625 596.5 L 706 683 L 733.4000244140625 683 L 760.7999877929688 683 Z" class="st10" style="fill: rgb(0, 126, 60);"/>
			<path d="M 733.4000244140625 572.5999755859375 L 709.7999877929688 659.0999755859375 L 733.4000244140625 659.0999755859375 L 756.9000244140625 659.0999755859375 Z" class="st10" style="fill: rgb(0, 126, 60);"/>
		</g>
		<g>
			<path d="M 1016.4000244140625 685.4000244140625 L 971.5999755859375 803.0999755859375 L 1016.4000244140625 803.0999755859375 L 1061.0999755859375 803.0999755859375 Z" class="st10" style="fill: rgb(0, 126, 60);"/>
			<path d="M 1016.4000244140625 653 L 979 770.5999755859375 L 1016.4000244140625 770.5999755859375 L 1053.699951171875 770.5999755859375 Z" class="st10" style="fill: rgb(0, 126, 60);"/>
			<path d="M 1016.4000244140625 620.5 L 984.2999877929688 738.0999755859375 L 1016.4000244140625 738.0999755859375 L 1048.4000244140625 738.0999755859375 Z" class="st10" style="fill: rgb(0, 126, 60);"/>
		</g>
		<g>
			<path d="M 320.29998779296875 762.2000122070312 L 295.79998779296875 826.7000122070312 L 320.29998779296875 826.7000122070312 L 344.8999938964844 826.7000122070312 Z" class="st12" style="fill: rgb(0, 104, 51);"/>
			<path d="M 320.29998779296875 744.4000244140625 L 299.8999938964844 808.9000244140625 L 320.29998779296875 808.9000244140625 L 340.79998779296875 808.9000244140625 Z" class="st12" style="fill: rgb(0, 104, 51);"/>
			<path d="M 320.29998779296875 726.5999755859375 L 302.79998779296875 791.0999755859375 L 320.29998779296875 791.0999755859375 L 337.8999938964844 791.0999755859375 Z" class="st12" style="fill: rgb(0, 104, 51);"/>
		</g>
		<g>
			<path d="M 196.89999389648438 702.7000122070312 L 118.69999694824219 908.2000122070312 L 196.89999389648438 908.2000122070312 L 275.20001220703125 908.2000122070312 Z" class="st12" style="fill: rgb(0, 104, 51);"/>
			<path d="M 196.89999389648438 646 L 131.8000030517578 851.5 L 196.89999389648438 851.5 L 262.1000061035156 851.5 Z" class="st12" style="fill: rgb(0, 104, 51);"/>
			<path d="M 196.89999389648438 589.2999877929688 L 141 794.7000122070312 L 196.89999389648438 794.7000122070312 L 252.89999389648438 794.7000122070312 Z" class="st12" style="fill: rgb(0, 104, 51);"/>
		</g>
		<g>
			<path d="M 1115 636.5 L 1072.0999755859375 749.0999755859375 L 1115 749.0999755859375 L 1157.800048828125 749.0999755859375 Z" class="st10" style="fill: rgb(0, 126, 60);"/>
			<path d="M 1115 605.5 L 1079.300048828125 718 L 1115 718 L 1150.699951171875 718 Z" class="st10" style="fill: rgb(0, 126, 60);"/>
			<path d="M 1115 574.4000244140625 L 1084.300048828125 686.9000244140625 L 1115 686.9000244140625 L 1145.5999755859375 686.9000244140625 Z" class="st10" style="fill: rgb(0, 126, 60);"/>
		</g>
		<g>
			<path d="M 1265.5 636.5 L 1214.699951171875 749.0999755859375 L 1265.5 749.0999755859375 L 1316.300048828125 749.0999755859375 Z" class="st10" style="fill: rgb(0, 126, 60);"/>
			<path d="M 1265.5 605.5 L 1223.0999755859375 718 L 1265.5 718 L 1307.800048828125 718 Z" class="st10" style="fill: rgb(0, 126, 60);"/>
			<path d="M 1265.5 574.4000244140625 L 1229.0999755859375 686.9000244140625 L 1265.5 686.9000244140625 L 1301.800048828125 686.9000244140625 Z" class="st10" style="fill: rgb(0, 126, 60);"/>
		</g>
		<g>
			<path d="M 1207.5999755859375 582.2000122070312 L 1140 759.7999877929688 L 1207.5999755859375 759.7999877929688 L 1275.199951171875 759.7999877929688 Z" class="st12" style="fill: rgb(0, 104, 51);"/>
			<path d="M 1207.5999755859375 533.0999755859375 L 1151.300048828125 710.7999877929688 L 1207.5999755859375 710.7999877929688 L 1264 710.7999877929688 Z" class="st12" style="fill: rgb(0, 104, 51);"/>
			<path d="M 1207.5999755859375 484.1000061035156 L 1159.300048828125 661.7000122070312 L 1207.5999755859375 661.7000122070312 L 1256 661.7000122070312 Z" class="st12" style="fill: rgb(0, 104, 51);"/>
		</g>
		<g>
			<path d="M 44.099998474121094 775.9000244140625 L 0 891.7000122070312 L 44.099998474121094 891.7000122070312 L 88.19999694824219 891.7000122070312 Z" class="st12" style="fill: rgb(0, 104, 51);"/>
			<path d="M 44.099998474121094 743.9000244140625 L 7.400000095367432 859.7999877929688 L 44.099998474121094 859.7999877929688 L 80.9000015258789 859.7999877929688 Z" class="st12" style="fill: rgb(0, 104, 51);"/>
			<path d="M 44.099998474121094 712 L 12.600000381469727 827.7999877929688 L 44.099998474121094 827.7999877929688 L 75.69999694824219 827.7999877929688 Z" class="st12" style="fill: rgb(0, 104, 51);"/>
		</g>
	</g>
<g class="st13" transform="matrix(1, 0, 0, 1, 2.842170943040401e-14, 7.105427357601002e-15)" style="opacity: 0.2;">
		<g>
			<path class="st14" d="M837.1,158.9c0,0,9.1,14.5,22.7,36.2c6.8,10.9,14.7,23.5,23.3,37.1c8.5,13.6,17.5,28.1,26.6,42.6&#10;&#9;&#9;&#9;&#9;c9.1,14.5,18.2,28.9,26.6,42.6c4.1,6.9,8.2,13.4,12,19.8c3.8,6.3,7.3,12.3,10.6,17.8c3.3,5.5,6.2,10.6,8.8,15.1&#10;&#9;&#9;&#9;&#9;c2.6,4.5,4.9,8.4,6.7,11.7c3.7,6.5,5.8,10.2,5.8,10.2l-0.3,0.2c0,0-2.4-3.5-6.5-9.8c-2.1-3.1-4.6-6.9-7.4-11.3&#10;&#9;&#9;&#9;&#9;c-2.8-4.4-6.1-9.3-9.5-14.7c-3.5-5.4-7.2-11.3-11.1-17.5c-3.9-6.2-8-12.8-12.2-19.6c-8.3-13.7-17.1-28.4-25.9-43&#10;&#9;&#9;&#9;&#9;c-8.8-14.6-17.7-29.3-25.9-43c-8.3-13.7-16-26.6-22.6-37.5c-13.2-22-22-36.7-22-36.7L837.1,158.9z" style="fill: rgb(255, 255, 255);"/>
		</g>
		<g>
			<path class="st14" d="M804.4,158.9c0,0,2.3,3.4,5.8,8.5c3.5,5.1,8,12,12.5,18.9c1.1,1.7,2.3,3.4,3.4,5.1c1.1,1.7,2.2,3.3,3.3,5&#10;&#9;&#9;&#9;&#9;c1,1.6,2,3.2,2.8,4.8c0.9,1.5,1.6,3,2.4,4.4c0.7,1.4,1.3,2.7,1.9,3.8c0.5,1.1,1,2.1,1.4,3c0.7,1.7,1.1,2.6,1.1,2.6l-0.3,0.2&#10;&#9;&#9;&#9;&#9;c0,0-0.7-0.8-1.9-2.2c-0.6-0.7-1.3-1.6-2-2.6c-0.8-1-1.6-2.1-2.5-3.4c-0.9-1.3-1.9-2.6-2.9-4.1c-1-1.5-2-3-3-4.7&#10;&#9;&#9;&#9;&#9;c-1-1.7-2-3.4-2.9-5.2c-1-1.8-2-3.6-3-5.4c-4.1-7.2-8.2-14.3-11.2-19.7c-3-5.4-5-9-5-9L804.4,158.9z" style="fill: rgb(255, 255, 255);"/>
		</g>
		<g>
			<path class="st14" d="M688,186.3c0,0,7.1,11.3,17.9,28.3c5.3,8.5,11.6,18.4,18.3,29c6.7,10.6,13.8,22,20.9,33.3&#10;&#9;&#9;&#9;&#9;c3.6,5.7,7.1,11.3,10.6,16.9c3.5,5.6,7,11.1,10.3,16.4c3.2,5.4,6.4,10.5,9.3,15.5c2.9,4.9,5.7,9.6,8.2,14&#10;&#9;&#9;&#9;&#9;c10.1,17.3,16.4,29.1,16.4,29.1l-0.3,0.2c0,0-7.7-11-18.5-27.9c-2.7-4.2-5.7-8.8-8.7-13.7c-3.1-4.8-6.2-10-9.6-15.3&#10;&#9;&#9;&#9;&#9;c-3.2-5.4-6.6-10.9-10-16.6c-3.4-5.7-6.8-11.4-10.2-17.1c-6.9-11.5-13.8-22.9-20.2-33.7c-6.4-10.8-12.4-20.8-17.6-29.4&#10;&#9;&#9;&#9;&#9;c-10.3-17.2-17.1-28.7-17.1-28.7L688,186.3z" style="fill: rgb(255, 255, 255);"/>
		</g>
		<g>
			<path class="st14" d="M715.2,278.6c0,0,5,7.9,12.6,19.6c7.6,11.8,17.5,27.6,27.5,43.3c2.5,3.9,5,7.9,7.5,11.7&#10;&#9;&#9;&#9;&#9;c2.5,3.9,4.9,7.7,7.2,11.4c2.3,3.7,4.5,7.3,6.5,10.8c2,3.5,3.9,6.7,5.7,9.8c1.7,3,3.3,5.8,4.7,8.3c1.4,2.5,2.6,4.7,3.5,6.5&#10;&#9;&#9;&#9;&#9;c1.9,3.6,3,5.7,3,5.7L793,406c0,0-1.4-1.9-3.7-5.2c-1.2-1.7-2.6-3.7-4.2-6.1c-1.6-2.4-3.4-5-5.3-7.9c-1.9-2.9-4-6.1-6.2-9.5&#10;&#9;&#9;&#9;&#9;c-2.2-3.4-4.4-7-6.7-10.7c-2.3-3.7-4.6-7.6-6.9-11.6c-2.3-4-4.7-8-7.1-12c-9.5-16.1-19.1-32.1-26.2-44.2&#10;&#9;&#9;&#9;&#9;c-7.1-12.1-11.8-20.1-11.8-20.1L715.2,278.6z" style="fill: rgb(255, 255, 255);"/>
		</g>
		<g>
			<path class="st14" d="M823.8,434c0,0,5,7.9,12.6,19.6c7.6,11.8,17.5,27.6,27.5,43.3c2.5,3.9,5,7.9,7.5,11.7&#10;&#9;&#9;&#9;&#9;c2.5,3.9,4.9,7.7,7.2,11.4c2.3,3.7,4.5,7.3,6.5,10.8c2,3.5,3.9,6.7,5.7,9.8c1.7,3,3.3,5.8,4.7,8.3c1.4,2.5,2.6,4.7,3.5,6.5&#10;&#9;&#9;&#9;&#9;c1.9,3.6,3,5.7,3,5.7l-0.3,0.2c0,0-1.4-1.9-3.7-5.2c-1.2-1.7-2.6-3.7-4.2-6.1c-1.6-2.4-3.4-5-5.3-7.9c-1.9-2.9-4-6.1-6.2-9.5&#10;&#9;&#9;&#9;&#9;c-2.2-3.4-4.4-7-6.7-10.7c-2.3-3.7-4.6-7.6-6.9-11.6c-2.3-4-4.7-8-7.1-12c-9.5-16.1-19.1-32.1-26.2-44.2&#10;&#9;&#9;&#9;&#9;c-7.1-12.1-11.8-20.1-11.8-20.1L823.8,434z" style="fill: rgb(255, 255, 255);"/>
		</g>
		<g>
			<path class="st14" d="M818,369.2c0,0,7.3,11.6,18.3,29.1c5.5,8.7,11.9,18.9,18.8,29.8c6.8,10.9,14.1,22.6,21.4,34.2&#10;&#9;&#9;&#9;&#9;c3.7,5.8,7.3,11.6,10.9,17.4c3.6,5.7,7.1,11.4,10.5,16.8c3.3,5.5,6.6,10.8,9.6,15.9c3,5.1,5.9,9.9,8.5,14.3&#10;&#9;&#9;&#9;&#9;c10.4,17.8,16.9,29.9,16.9,29.9l-0.3,0.2c0,0-7.9-11.3-19-28.6c-2.8-4.3-5.8-9-9-14c-3.2-5-6.4-10.3-9.8-15.8&#10;&#9;&#9;&#9;&#9;c-3.3-5.5-6.8-11.2-10.2-17c-3.5-5.8-7-11.7-10.5-17.6c-7.1-11.8-14.1-23.6-20.8-34.6c-6.6-11.1-12.8-21.4-18.1-30.2&#10;&#9;&#9;&#9;&#9;c-10.6-17.7-17.6-29.5-17.6-29.5L818,369.2z" style="fill: rgb(255, 255, 255);"/>
		</g>
		<g>
			<path class="st14" d="M948.2,474.3c0,0,5.4,8.4,13.4,21c4,6.3,8.7,13.6,13.7,21.5c5,7.9,10.3,16.3,15.6,24.7&#10;&#9;&#9;&#9;&#9;c2.7,4.2,5.3,8.4,8,12.5c2.7,4.1,5.2,8.2,7.7,12.2c2.4,4,4.8,7.8,6.9,11.5c2.2,3.7,4.2,7.2,6,10.4c7.4,12.9,11.9,21.8,11.9,21.8&#10;&#9;&#9;&#9;&#9;l-0.3,0.2c0,0-5.9-8.1-14.1-20.5c-2.1-3.1-4.3-6.5-6.5-10.1c-2.3-3.6-4.7-7.4-7.1-11.4c-2.4-4-4.9-8.1-7.4-12.3&#10;&#9;&#9;&#9;&#9;c-2.5-4.2-5-8.5-7.6-12.8c-5.1-8.5-10.2-17.1-14.9-25.1c-4.8-8-9.2-15.5-13-21.9c-7.6-12.9-12.6-21.4-12.6-21.4L948.2,474.3z" style="fill: rgb(255, 255, 255);"/>
		</g>
		<g>
			<path class="st14" d="M1011.6,604.4c0,0,5.4,8.4,13.4,21c4,6.3,8.7,13.6,13.7,21.5c5,7.9,10.3,16.3,15.6,24.7&#10;&#9;&#9;&#9;&#9;c2.7,4.2,5.3,8.4,8,12.5c2.7,4.1,5.2,8.2,7.7,12.2c2.4,4,4.8,7.8,6.9,11.5c2.2,3.7,4.2,7.2,6,10.4c7.4,12.9,11.9,21.8,11.9,21.8&#10;&#9;&#9;&#9;&#9;l-0.3,0.2c0,0-5.9-8.1-14.1-20.5c-2.1-3.1-4.3-6.5-6.5-10.1c-2.3-3.6-4.7-7.4-7.1-11.4c-2.4-4-4.9-8.1-7.4-12.3&#10;&#9;&#9;&#9;&#9;c-2.5-4.2-5-8.5-7.6-12.8c-5.1-8.5-10.2-17.1-14.9-25.1c-4.8-8-9.2-15.5-13-21.9c-7.6-12.9-12.6-21.4-12.6-21.4L1011.6,604.4z" style="fill: rgb(255, 255, 255);"/>
		</g>
		<g>
			<path class="st14" d="M925,572.6c0,0,4.8,7.5,12,18.7c7.2,11.2,16.7,26.3,26.3,41.3c2.4,3.8,4.8,7.5,7.2,11.2&#10;&#9;&#9;&#9;&#9;c2.4,3.7,4.7,7.3,6.9,10.9c2.2,3.6,4.3,7,6.2,10.3c1.9,3.3,3.7,6.4,5.4,9.3c1.7,2.9,3.1,5.6,4.4,8c1.3,2.4,2.4,4.5,3.3,6.2&#10;&#9;&#9;&#9;&#9;c1.8,3.4,2.8,5.5,2.8,5.5l-0.3,0.2c0,0-1.3-1.8-3.6-5c-1.1-1.6-2.5-3.5-4-5.8c-1.5-2.2-3.3-4.8-5.1-7.6c-1.8-2.8-3.8-5.8-5.9-9&#10;&#9;&#9;&#9;&#9;c-2.1-3.2-4.2-6.6-6.4-10.2c-2.2-3.6-4.4-7.3-6.6-11.1c-2.2-3.8-4.5-7.6-6.7-11.4c-9.1-15.3-18.2-30.6-24.9-42.1&#10;&#9;&#9;&#9;&#9;c-6.8-11.5-11.3-19.2-11.3-19.2L925,572.6z" style="fill: rgb(255, 255, 255);"/>
		</g>
		<g>
			<path class="st14" d="M996,629.2c0,0,3,4.5,7.4,11.3c4.5,6.8,10.3,15.8,16.2,24.9c1.5,2.3,3,4.5,4.4,6.7c1.5,2.2,2.9,4.4,4.2,6.6&#10;&#9;&#9;&#9;&#9;c1.3,2.2,2.6,4.3,3.7,6.3c1.2,2,2.2,3.9,3.2,5.7c1,1.8,1.8,3.4,2.6,4.9c0.7,1.5,1.4,2.8,1.9,3.8c1,2.1,1.6,3.4,1.6,3.4l-0.3,0.2&#10;&#9;&#9;&#9;&#9;c0,0-0.9-1-2.3-2.9c-0.7-0.9-1.6-2.1-2.6-3.4c-1-1.3-2.1-2.8-3.2-4.5c-1.2-1.7-2.4-3.5-3.7-5.4c-1.3-1.9-2.6-4-3.9-6.1&#10;&#9;&#9;&#9;&#9;c-1.3-2.2-2.6-4.4-3.9-6.7c-1.3-2.3-2.7-4.6-4-7c-5.4-9.3-10.9-18.7-14.9-25.7c-4-7-6.7-11.7-6.7-11.7L996,629.2z" style="fill: rgb(255, 255, 255);"/>
		</g>
		<g>
			<path class="st14" d="M999.2,741.5c0,0,5.2,8.1,12.9,20.2c3.9,6,8.4,13.1,13.2,20.7c4.8,7.6,9.9,15.7,15,23.7&#10;&#9;&#9;&#9;&#9;c2.6,4,5.1,8.1,7.7,12c2.6,4,5,7.9,7.4,11.7c2.3,3.8,4.6,7.5,6.7,11.1c2.1,3.5,4,6.9,5.8,10c7.1,12.5,11.5,21,11.5,21l-0.3,0.2&#10;&#9;&#9;&#9;&#9;c0,0-5.7-7.7-13.6-19.7c-2-3-4.1-6.3-6.3-9.7c-2.2-3.4-4.5-7.2-6.9-11c-2.3-3.8-4.7-7.8-7.1-11.9c-2.4-4.1-4.8-8.2-7.3-12.3&#10;&#9;&#9;&#9;&#9;c-4.9-8.2-9.8-16.4-14.4-24.2c-4.6-7.7-8.8-14.9-12.5-21.1c-7.3-12.4-12.1-20.6-12.1-20.6L999.2,741.5z" style="fill: rgb(255, 255, 255);"/>
		</g>
		<g>
			<path class="st14" d="M900.2,673.4c0,0,7.9,12.5,19.7,31.2c5.9,9.4,12.8,20.3,20.1,32c7.3,11.7,15.2,24.2,23,36.8&#10;&#9;&#9;&#9;&#9;c3.9,6.2,7.9,12.5,11.7,18.6c3.9,6.1,7.7,12.2,11.3,18.1c3.6,5.9,7.1,11.6,10.3,17.1c3.3,5.4,6.3,10.6,9.1,15.4&#10;&#9;&#9;&#9;&#9;c11.2,19.1,18.2,32.1,18.2,32.1l-0.3,0.2c0,0-8.4-12.2-20.4-30.8c-3-4.7-6.2-9.7-9.6-15.1c-3.4-5.4-6.9-11.1-10.5-16.9&#10;&#9;&#9;&#9;&#9;c-3.6-5.9-7.3-12-11-18.3c-3.7-6.2-7.5-12.6-11.3-18.9c-7.6-12.6-15.2-25.3-22.3-37.2c-7.1-11.9-13.7-23-19.4-32.4&#10;&#9;&#9;&#9;&#9;c-11.4-19-18.9-31.7-18.9-31.7L900.2,673.4z" style="fill: rgb(255, 255, 255);"/>
		</g>
		<g>
			<path class="st14" d="M682.3,442.9c0,0,4.7,7.2,11.6,18.1c7,10.8,16.2,25.4,25.4,39.9c2.3,3.6,4.6,7.2,6.9,10.8&#10;&#9;&#9;&#9;&#9;c2.3,3.6,4.5,7.1,6.7,10.5c2.1,3.4,4.1,6.8,6,10c1.9,3.2,3.6,6.2,5.2,9c1.6,2.8,3,5.4,4.3,7.7c1.3,2.3,2.3,4.3,3.2,6&#10;&#9;&#9;&#9;&#9;c1.8,3.3,2.7,5.3,2.7,5.3l-0.3,0.2c0,0-1.3-1.7-3.5-4.8c-1.1-1.5-2.4-3.4-3.9-5.6c-1.5-2.2-3.1-4.6-4.9-7.3&#10;&#9;&#9;&#9;&#9;c-1.8-2.7-3.7-5.6-5.7-8.7c-2-3.1-4.1-6.4-6.2-9.8c-2.1-3.4-4.2-7-6.3-10.7c-2.1-3.6-4.3-7.4-6.5-11.1&#10;&#9;&#9;&#9;&#9;c-8.8-14.8-17.6-29.6-24.1-40.7c-6.5-11.1-10.9-18.6-10.9-18.6L682.3,442.9z" style="fill: rgb(255, 255, 255);"/>
		</g>
		<g>
			<path class="st14" d="M590.4,309.4c0,0,4.7,7.2,11.6,18.1c7,10.8,16.2,25.4,25.4,39.9c2.3,3.6,4.6,7.2,6.9,10.8&#10;&#9;&#9;&#9;&#9;c2.3,3.6,4.5,7.1,6.7,10.5c2.1,3.4,4.1,6.8,6,10c1.9,3.2,3.6,6.2,5.2,9c1.6,2.8,3,5.4,4.3,7.7c1.3,2.3,2.3,4.3,3.2,6&#10;&#9;&#9;&#9;&#9;c1.8,3.3,2.7,5.3,2.7,5.3l-0.3,0.2c0,0-1.3-1.7-3.5-4.8c-1.1-1.5-2.4-3.4-3.9-5.6c-1.5-2.2-3.1-4.6-4.9-7.3&#10;&#9;&#9;&#9;&#9;c-1.8-2.7-3.7-5.6-5.7-8.7c-2-3.1-4.1-6.4-6.2-9.8c-2.1-3.4-4.2-7-6.3-10.7c-2.1-3.6-4.3-7.4-6.5-11.1&#10;&#9;&#9;&#9;&#9;c-8.8-14.8-17.6-29.6-24.1-40.7c-6.5-11.1-10.9-18.6-10.9-18.6L590.4,309.4z" style="fill: rgb(255, 255, 255);"/>
		</g>
		<g>
			<path class="st14" d="M606.2,166.4c0,0,4.7,7.2,11.6,18.1c7,10.8,16.2,25.4,25.4,39.9c2.3,3.6,4.6,7.2,6.9,10.8&#10;&#9;&#9;&#9;&#9;c2.3,3.6,4.5,7.1,6.7,10.5c2.1,3.4,4.1,6.8,6,10c1.9,3.2,3.6,6.2,5.2,9c1.6,2.8,3,5.4,4.3,7.7c1.3,2.3,2.3,4.3,3.2,6&#10;&#9;&#9;&#9;&#9;c1.8,3.3,2.7,5.3,2.7,5.3l-0.3,0.2c0,0-1.3-1.7-3.5-4.8c-1.1-1.5-2.4-3.4-3.9-5.6c-1.5-2.2-3.1-4.6-4.9-7.3&#10;&#9;&#9;&#9;&#9;c-1.8-2.7-3.7-5.6-5.7-8.7c-2-3.1-4.1-6.4-6.2-9.8c-2.1-3.4-4.2-7-6.3-10.7c-2.1-3.6-4.3-7.4-6.5-11.1&#10;&#9;&#9;&#9;&#9;c-8.8-14.8-17.6-29.6-24.1-40.7c-6.5-11.1-10.9-18.6-10.9-18.6L606.2,166.4z" style="fill: rgb(255, 255, 255);"/>
		</g>
		<g>
			<path class="st14" d="M566.1,166.4c0,0,1.8,2.8,4.5,7.1c2.7,4.3,6.2,10.1,9.7,15.8c0.9,1.4,1.8,2.9,2.7,4.3&#10;&#9;&#9;&#9;&#9;c0.9,1.4,1.8,2.8,2.5,4.2c0.8,1.4,1.5,2.7,2.1,4c0.6,1.3,1.2,2.5,1.7,3.7c0.5,1.2,1,2.2,1.3,3.2c0.4,1,0.7,1.8,0.9,2.5&#10;&#9;&#9;&#9;&#9;c0.5,1.4,0.7,2.2,0.7,2.2l-0.3,0.2c0,0-0.6-0.6-1.5-1.8c-0.5-0.6-1-1.3-1.6-2.1c-0.6-0.8-1.3-1.8-2-2.8c-0.7-1-1.5-2.2-2.2-3.4&#10;&#9;&#9;&#9;&#9;c-0.8-1.2-1.6-2.5-2.3-3.9c-0.8-1.4-1.5-2.8-2.2-4.3c-0.7-1.5-1.5-3-2.2-4.5c-3-6-6.1-12-8.3-16.6c-2.3-4.5-3.7-7.6-3.7-7.6&#10;&#9;&#9;&#9;&#9;L566.1,166.4z" style="fill: rgb(255, 255, 255);"/>
		</g>
		<g>
			<path class="st14" d="M534.4,240.3c0,0,3.7,5.8,9.1,14.4c5.5,8.6,12.7,20.2,19.9,31.8c1.8,2.9,3.6,5.8,5.4,8.6&#10;&#9;&#9;&#9;&#9;c1.8,2.8,3.6,5.6,5.2,8.4c1.6,2.7,3.2,5.4,4.6,8c1.4,2.6,2.8,5,4,7.2c1.2,2.3,2.3,4.3,3.3,6.2c0.9,1.9,1.8,3.5,2.4,4.8&#10;&#9;&#9;&#9;&#9;c1.3,2.7,2,4.3,2,4.3l-0.3,0.2c0,0-1.1-1.4-2.8-3.8c-0.9-1.2-1.9-2.7-3.1-4.4c-1.2-1.7-2.5-3.7-3.9-5.8c-1.4-2.1-2.9-4.5-4.5-6.9&#10;&#9;&#9;&#9;&#9;c-1.6-2.5-3.2-5.1-4.8-7.8c-1.6-2.8-3.3-5.6-4.9-8.6c-1.7-2.9-3.3-5.9-5-8.9c-6.8-11.9-13.6-23.7-18.6-32.6&#10;&#9;&#9;&#9;&#9;c-5-8.9-8.4-14.9-8.4-14.9L534.4,240.3z" style="fill: rgb(255, 255, 255);"/>
		</g>
		<g>
			<path class="st14" d="M633.2,435c0,0,2.5,3.8,6.2,9.6c3.8,5.7,8.6,13.4,13.5,21.1c1.2,1.9,2.5,3.8,3.7,5.7&#10;&#9;&#9;&#9;&#9;c1.2,1.9,2.4,3.7,3.5,5.6c1.1,1.8,2.1,3.6,3,5.4c0.9,1.7,1.8,3.4,2.6,4.9c0.8,1.5,1.5,2.9,2.1,4.2c0.6,1.3,1.1,2.4,1.5,3.3&#10;&#9;&#9;&#9;&#9;c0.8,1.8,1.2,2.9,1.2,2.9l-0.3,0.2c0,0-0.8-0.9-2-2.5c-0.6-0.8-1.4-1.8-2.2-2.9c-0.8-1.1-1.8-2.4-2.7-3.8c-1-1.4-2-2.9-3.1-4.6&#10;&#9;&#9;&#9;&#9;c-1.1-1.6-2.2-3.4-3.3-5.2c-1.1-1.8-2.2-3.8-3.2-5.8c-1.1-2-2.2-4-3.3-6c-4.4-8-8.9-15.9-12.2-21.9c-3.3-6-5.5-10-5.5-10&#10;&#9;&#9;&#9;&#9;L633.2,435z" style="fill: rgb(255, 255, 255);"/>
		</g>
		<g>
			<path class="st14" d="M616.8,452.4c0,0,3.5,5.5,8.8,13.8c5.3,8.3,12.2,19.4,19.1,30.4c1.7,2.8,3.5,5.5,5.2,8.2&#10;&#9;&#9;&#9;&#9;c1.7,2.7,3.4,5.4,5,8c1.6,2.6,3.1,5.2,4.4,7.6c1.4,2.4,2.6,4.8,3.8,6.9c1.2,2.2,2.2,4.2,3.1,5.9c0.9,1.8,1.7,3.3,2.3,4.6&#10;&#9;&#9;&#9;&#9;c1.3,2.6,1.9,4.1,1.9,4.1l-0.3,0.2c0,0-1-1.3-2.7-3.6c-0.8-1.2-1.8-2.6-3-4.2c-1.1-1.6-2.4-3.5-3.8-5.5c-1.4-2-2.8-4.3-4.3-6.6&#10;&#9;&#9;&#9;&#9;c-1.5-2.4-3.1-4.9-4.6-7.5c-1.6-2.6-3.1-5.4-4.7-8.2c-1.6-2.8-3.2-5.6-4.8-8.5c-6.5-11.4-13-22.7-17.7-31.2&#10;&#9;&#9;&#9;&#9;c-4.8-8.5-8-14.2-8-14.2L616.8,452.4z" style="fill: rgb(255, 255, 255);"/>
		</g>
		<g>
			<path class="st14" d="M682.4,562.3c0,0,2.4,3.7,6,9.1c3.6,5.5,8.3,12.9,13,20.2c1.2,1.8,2.4,3.7,3.5,5.5c1.2,1.8,2.3,3.6,3.4,5.3&#10;&#9;&#9;&#9;&#9;c1,1.8,2,3.5,2.9,5.1c0.9,1.6,1.7,3.2,2.5,4.7c0.7,1.5,1.4,2.8,2,4c0.6,1.2,1,2.3,1.4,3.2c0.8,1.8,1.1,2.8,1.1,2.8l-0.3,0.2&#10;&#9;&#9;&#9;&#9;c0,0-0.7-0.8-1.9-2.3c-0.6-0.8-1.3-1.7-2.1-2.8c-0.8-1.1-1.7-2.3-2.6-3.6c-0.9-1.3-1.9-2.8-3-4.4c-1-1.6-2.1-3.2-3.1-5&#10;&#9;&#9;&#9;&#9;c-1-1.8-2.1-3.6-3.1-5.5c-1-1.9-2.1-3.8-3.1-5.7c-4.2-7.6-8.5-15.2-11.6-21c-3.1-5.8-5.2-9.6-5.2-9.6L682.4,562.3z" style="fill: rgb(255, 255, 255);"/>
		</g>
		<g>
			<path class="st14" d="M576.3,515.5c0,0,7.1,12.5,17.8,31.3c5.3,9.4,11.5,20.4,18.2,32.1c6.6,11.8,13.7,24.3,20.8,36.9&#10;&#9;&#9;&#9;&#9;c3.6,6.3,7.1,12.5,10.6,18.7c3.5,6.2,6.9,12.3,10.2,18.1c3.2,5.9,6.4,11.6,9.3,17.1c2.9,5.5,5.7,10.6,8.2,15.4&#10;&#9;&#9;&#9;&#9;c10,19.1,16.3,32.1,16.3,32.1l-0.3,0.2c0,0-7.6-12.2-18.5-30.9c-2.7-4.7-5.6-9.8-8.7-15.1c-3.1-5.4-6.2-11.1-9.5-17&#10;&#9;&#9;&#9;&#9;c-3.2-5.9-6.6-12.1-9.9-18.3c-3.4-6.2-6.8-12.6-10.2-18.9c-6.8-12.7-13.7-25.4-20.1-37.3c-6.4-11.9-12.4-23-17.5-32.5&#10;&#9;&#9;&#9;&#9;c-10.2-19.1-17-31.8-17-31.8L576.3,515.5z" style="fill: rgb(255, 255, 255);"/>
		</g>
		<g>
			<path class="st14" d="M506.7,478.3c0,0,5.3,9.2,13.2,23c4,6.9,8.6,14.9,13.5,23.6c4.9,8.6,10.1,17.9,15.4,27.1&#10;&#9;&#9;&#9;&#9;c2.6,4.6,5.3,9.2,7.9,13.7c2.6,4.5,5.1,9,7.6,13.3c2.4,4.4,4.7,8.6,6.8,12.6c2.1,4,4.1,7.8,5.9,11.4&#10;&#9;&#9;&#9;&#9;c7.3,14.1,11.7,23.8,11.7,23.8l-0.3,0.2c0,0-5.8-8.9-13.9-22.6c-2-3.4-4.2-7.1-6.5-11.1c-2.3-3.9-4.6-8.2-7-12.5&#10;&#9;&#9;&#9;&#9;c-2.4-4.4-4.8-8.9-7.2-13.5c-2.5-4.6-4.9-9.3-7.4-14c-5-9.3-10-18.7-14.7-27.5c-4.7-8.8-9-17-12.8-24&#10;&#9;&#9;&#9;&#9;c-7.4-14.1-12.4-23.4-12.4-23.4L506.7,478.3z" style="fill: rgb(255, 255, 255);"/>
		</g>
		<g>
			<path class="st14" d="M396.7,482.3c0,0,8.7,14.7,21.8,36.6c6.5,11,14.2,23.8,22.4,37.6c8.2,13.8,16.9,28.4,25.6,43.1&#10;&#9;&#9;&#9;&#9;c8.7,14.7,17.5,29.3,25.6,43.1c4,6.9,7.9,13.6,11.5,20c3.6,6.4,7,12.4,10.1,18c3.1,5.6,5.9,10.7,8.4,15.3&#10;&#9;&#9;&#9;&#9;c2.5,4.6,4.7,8.5,6.4,11.8c3.5,6.6,5.5,10.4,5.5,10.4l-0.3,0.2c0,0-2.3-3.6-6.3-9.9c-2-3.2-4.4-7-7.1-11.4&#10;&#9;&#9;&#9;&#9;c-2.7-4.4-5.8-9.4-9.1-14.9c-3.3-5.5-6.9-11.4-10.7-17.7c-3.8-6.3-7.7-13-11.7-19.9c-8-13.9-16.4-28.7-24.9-43.5&#10;&#9;&#9;&#9;&#9;c-8.5-14.8-16.9-29.6-24.9-43.5c-7.9-13.9-15.3-26.9-21.7-38c-12.7-22.3-21.1-37.1-21.1-37.1L396.7,482.3z" style="fill: rgb(255, 255, 255);"/>
		</g>
		<g>
			<path class="st14" d="M439.4,608.7c0,0,4.7,8.1,11.9,20.3c3.6,6.1,7.7,13.2,12.1,20.9c4.4,7.7,9.1,15.8,13.8,24&#10;&#9;&#9;&#9;&#9;c2.4,4.1,4.7,8.1,7.1,12.2c2.4,4,4.6,8,6.8,11.8c2.1,3.9,4.2,7.6,6.1,11.2c1.9,3.6,3.7,7,5.3,10.1c6.5,12.6,10.4,21.2,10.4,21.2&#10;&#9;&#9;&#9;&#9;l-0.3,0.2c0,0-5.3-7.8-12.5-20c-1.8-3-3.8-6.3-5.8-9.8c-2.1-3.5-4.1-7.2-6.3-11.1c-2.1-3.9-4.3-7.9-6.5-12&#10;&#9;&#9;&#9;&#9;c-2.2-4.1-4.4-8.2-6.6-12.4c-4.5-8.3-8.9-16.6-13.1-24.4c-4.2-7.8-8.1-15-11.4-21.3c-6.7-12.5-11.1-20.8-11.1-20.8L439.4,608.7z" style="fill: rgb(255, 255, 255);"/>
		</g>
		<g>
			<path class="st14" d="M640.9,708.2c0,0,4.7,8.1,11.9,20.3c3.6,6.1,7.7,13.2,12.1,20.9c4.4,7.7,9.1,15.8,13.8,24&#10;&#9;&#9;&#9;&#9;c2.4,4.1,4.7,8.1,7.1,12.2c2.4,4,4.6,8,6.8,11.8c2.1,3.9,4.2,7.6,6.1,11.2c1.9,3.6,3.7,7,5.3,10.1c6.5,12.6,10.4,21.2,10.4,21.2&#10;&#9;&#9;&#9;&#9;L714,840c0,0-5.3-7.8-12.5-20c-1.8-3-3.8-6.3-5.8-9.8c-2.1-3.5-4.1-7.2-6.3-11.1c-2.1-3.9-4.3-7.9-6.5-12&#10;&#9;&#9;&#9;&#9;c-2.2-4.1-4.4-8.2-6.6-12.4c-4.5-8.3-8.9-16.6-13.1-24.4c-4.2-7.8-8.1-15-11.4-21.3c-6.7-12.5-11.1-20.8-11.1-20.8L640.9,708.2z" style="fill: rgb(255, 255, 255);"/>
		</g>
		<g>
			<path class="st14" d="M540.2,642c0,0,2.7,4.5,6.8,11.3c4.1,6.8,9.4,15.9,14.8,25c1.4,2.3,2.7,4.5,4,6.8c1.4,2.2,2.7,4.4,3.9,6.6&#10;&#9;&#9;&#9;&#9;c1.2,2.2,2.3,4.3,3.4,6.3c1,2,2,3.9,2.9,5.7c0.9,1.8,1.6,3.4,2.3,4.9c0.7,1.5,1.2,2.8,1.7,3.8c0.9,2.1,1.4,3.4,1.4,3.4l-0.3,0.2&#10;&#9;&#9;&#9;&#9;c0,0-0.8-1.1-2.2-2.9c-0.7-0.9-1.5-2.1-2.4-3.4c-0.9-1.3-1.9-2.9-3-4.5c-1.1-1.7-2.2-3.5-3.4-5.4c-1.2-1.9-2.4-4-3.6-6.2&#10;&#9;&#9;&#9;&#9;c-1.2-2.2-2.4-4.4-3.6-6.8c-1.2-2.3-2.4-4.7-3.6-7c-4.9-9.4-9.9-18.7-13.5-25.7c-3.6-7-6-11.7-6-11.7L540.2,642z" style="fill: rgb(255, 255, 255);"/>
		</g>
		<g>
			<path class="st14" d="M729.2,612.2c0,0,5.2,8.4,13.1,21c3.9,6.3,8.5,13.6,13.3,21.5c4.9,7.9,10,16.3,15.2,24.7&#10;&#9;&#9;&#9;&#9;c2.6,4.2,5.2,8.4,7.8,12.5c2.6,4.1,5.1,8.2,7.5,12.2c2.3,4,4.7,7.8,6.7,11.5c2.1,3.7,4.1,7.2,5.9,10.4&#10;&#9;&#9;&#9;&#9;c7.2,13,11.6,21.9,11.6,21.9l-0.3,0.2c0,0-5.7-8.1-13.7-20.6c-2-3.1-4.2-6.5-6.4-10.1c-2.3-3.6-4.5-7.5-7-11.4&#10;&#9;&#9;&#9;&#9;c-2.3-4-4.8-8.1-7.2-12.4c-2.4-4.2-4.9-8.5-7.4-12.8c-5-8.6-9.9-17.1-14.6-25.1c-4.7-8-9-15.5-12.6-22&#10;&#9;&#9;&#9;&#9;c-7.4-12.9-12.3-21.4-12.3-21.4L729.2,612.2z" style="fill: rgb(255, 255, 255);"/>
		</g>
		<g>
			<path class="st14" d="M751.5,446.2c0,0,6.9,11.3,17.4,28.2c5.2,8.5,11.3,18.4,17.8,28.9c6.5,10.6,13.4,21.9,20.3,33.2&#10;&#9;&#9;&#9;&#9;c3.5,5.6,6.9,11.3,10.3,16.9c3.4,5.5,6.8,11,10,16.3c3.1,5.4,6.2,10.5,9.1,15.4c2.9,4.9,5.5,9.6,8,13.9&#10;&#9;&#9;&#9;&#9;c9.8,17.3,15.9,29.1,15.9,29.1l-0.3,0.2c0,0-7.5-11-18.1-27.8c-2.7-4.2-5.5-8.8-8.5-13.6c-3-4.8-6.1-10-9.3-15.3&#10;&#9;&#9;&#9;&#9;c-3.1-5.4-6.4-10.9-9.7-16.5c-3.3-5.6-6.6-11.4-9.9-17.1c-6.7-11.4-13.4-22.9-19.6-33.6c-6.2-10.7-12.1-20.8-17.1-29.4&#10;&#9;&#9;&#9;&#9;c-10-17.2-16.6-28.7-16.6-28.7L751.5,446.2z" style="fill: rgb(255, 255, 255);"/>
		</g>
		<g>
			<path class="st14" d="M822.3,266.5c0,0,5.4,8.7,13.5,21.7c4,6.5,8.8,14.1,13.8,22.2c5,8.1,10.4,16.8,15.7,25.5&#10;&#9;&#9;&#9;&#9;c2.7,4.3,5.4,8.7,8,12.9c2.7,4.3,5.2,8.5,7.7,12.6c2.4,4.1,4.8,8.1,7,11.9c2.2,3.8,4.2,7.4,6.1,10.8c7.5,13.4,12,22.5,12,22.5&#10;&#9;&#9;&#9;&#9;l-0.3,0.2c0,0-5.9-8.4-14.1-21.3c-2.1-3.2-4.3-6.7-6.6-10.5c-2.3-3.7-4.7-7.7-7.2-11.8c-2.4-4.1-4.9-8.4-7.4-12.8&#10;&#9;&#9;&#9;&#9;c-2.5-4.4-5.1-8.8-7.6-13.2c-5.1-8.8-10.2-17.7-15-25.9c-4.8-8.3-9.3-16-13.1-22.7c-7.6-13.3-12.7-22.1-12.7-22.1L822.3,266.5z" style="fill: rgb(255, 255, 255);"/>
		</g>
		<g>
			<path class="st14" d="M725.9,649.3c0,0,10.3,16.9,25.8,42.4c15.4,25.4,36,59.4,56.6,93.3c10.3,17,20.7,33.9,30.3,49.8&#10;&#9;&#9;&#9;&#9;c4.7,8,9.4,15.7,13.6,23.1c4.3,7.4,8.4,14.3,12.1,20.8c3.7,6.4,7.1,12.4,10.1,17.6c3,5.2,5.6,9.8,7.7,13.6&#10;&#9;&#9;&#9;&#9;c4.2,7.6,6.6,11.9,6.6,11.9l-0.3,0.2c0,0-2.7-4.2-7.4-11.5c-2.3-3.7-5.2-8.1-8.4-13.2c-3.2-5.1-6.9-10.9-10.8-17.2&#10;&#9;&#9;&#9;&#9;c-3.9-6.3-8.1-13.2-12.6-20.5c-4.5-7.3-9.1-15-13.9-23c-9.5-16-19.5-33.1-29.5-50.3c-20.1-34.2-40.2-68.4-55.3-94.1&#10;&#9;&#9;&#9;&#9;c-15-25.7-25.1-42.8-25.1-42.8L725.9,649.3z" style="fill: rgb(255, 255, 255);"/>
		</g>
		<g>
			<path class="st14" d="M920.8,162.1c0,0,9.1,14.5,22.7,36.2c6.8,10.9,14.7,23.5,23.3,37.1c8.5,13.6,17.5,28.1,26.6,42.6&#10;&#9;&#9;&#9;&#9;c9.1,14.5,18.2,28.9,26.6,42.6c4.1,6.9,8.2,13.4,12,19.8c3.8,6.3,7.3,12.3,10.6,17.8c3.3,5.5,6.2,10.6,8.8,15.1&#10;&#9;&#9;&#9;&#9;c2.6,4.5,4.9,8.4,6.7,11.7c3.7,6.5,5.8,10.2,5.8,10.2l-0.3,0.2c0,0-2.4-3.5-6.5-9.8c-2.1-3.1-4.6-6.9-7.4-11.3&#10;&#9;&#9;&#9;&#9;c-2.8-4.4-6.1-9.3-9.5-14.7c-3.5-5.4-7.2-11.3-11.1-17.5c-3.9-6.2-8-12.8-12.2-19.6c-8.3-13.7-17.1-28.4-25.9-43&#10;&#9;&#9;&#9;&#9;c-8.8-14.6-17.7-29.3-25.9-43c-8.3-13.7-16-26.6-22.6-37.5c-13.2-22-22-36.7-22-36.7L920.8,162.1z" style="fill: rgb(255, 255, 255);"/>
		</g>
		<g>
			<path class="st14" d="M1071.3,357.8c0,0,5.2,8.5,13,21.3c3.9,6.4,8.5,13.8,13.3,21.9c4.9,8,10,16.5,15.2,25.1&#10;&#9;&#9;&#9;&#9;c2.6,4.3,5.2,8.5,7.8,12.7c2.6,4.2,5.1,8.3,7.5,12.3c2.3,4.1,4.6,7.9,6.7,11.7c2.1,3.7,4.1,7.3,5.9,10.6&#10;&#9;&#9;&#9;&#9;c7.2,13.1,11.6,22.1,11.6,22.1l-0.3,0.2c0,0-5.7-8.2-13.7-20.9c-2-3.2-4.1-6.6-6.4-10.3c-2.3-3.6-4.5-7.6-7-11.6&#10;&#9;&#9;&#9;&#9;c-2.3-4.1-4.8-8.2-7.2-12.5c-2.4-4.3-4.9-8.6-7.3-13c-4.9-8.7-9.9-17.4-14.5-25.5c-4.7-8.1-8.9-15.7-12.6-22.3&#10;&#9;&#9;&#9;&#9;c-7.4-13-12.3-21.7-12.3-21.7L1071.3,357.8z" style="fill: rgb(255, 255, 255);"/>
		</g>
		<g>
			<path class="st14" d="M1136.7,282c0,0,6.3,10.4,15.8,26.1c4.7,7.8,10.3,17,16.2,26.7c5.9,9.8,12.2,20.2,18.5,30.7&#10;&#9;&#9;&#9;&#9;c3.2,5.2,6.3,10.4,9.4,15.6c3.1,5.1,6.2,10.2,9.1,15.1c2.9,5,5.7,9.7,8.2,14.3c2.6,4.6,5,8.9,7.2,12.9&#10;&#9;&#9;&#9;&#9;c8.9,16,14.4,26.9,14.4,26.9l-0.3,0.2c0,0-6.9-10.1-16.5-25.7c-2.4-3.9-5-8.1-7.7-12.6c-2.7-4.5-5.5-9.2-8.5-14.1&#10;&#9;&#9;&#9;&#9;c-2.9-5-5.8-10.1-8.8-15.3c-3-5.2-6-10.5-9-15.8c-6.1-10.6-12.1-21.2-17.8-31.1c-5.7-9.9-11-19.2-15.5-27.2&#10;&#9;&#9;&#9;&#9;c-9-15.9-15.1-26.5-15.1-26.5L1136.7,282z" style="fill: rgb(255, 255, 255);"/>
		</g>
		<g>
			<path class="st14" d="M1144.9,242.4c0,0,7.6,12.5,18.9,31.3c5.7,9.4,12.3,20.3,19.3,32.1c7,11.7,14.6,24.3,22.1,36.8&#10;&#9;&#9;&#9;&#9;c3.8,6.3,7.5,12.5,11.3,18.7c3.7,6.1,7.3,12.2,10.9,18.1c3.4,5.9,6.8,11.6,9.9,17.1c3.1,5.4,6,10.6,8.7,15.4&#10;&#9;&#9;&#9;&#9;c10.7,19.1,17.4,32.1,17.4,32.1l-0.3,0.2c0,0-8.1-12.2-19.6-30.9c-2.9-4.7-6-9.7-9.2-15.1c-3.3-5.4-6.6-11.1-10.1-17&#10;&#9;&#9;&#9;&#9;c-3.4-5.9-7-12-10.5-18.3c-3.6-6.2-7.2-12.6-10.8-18.9c-7.3-12.7-14.6-25.3-21.4-37.2c-6.8-11.9-13.2-23-18.6-32.5&#10;&#9;&#9;&#9;&#9;c-10.9-19-18.1-31.7-18.1-31.7L1144.9,242.4z" style="fill: rgb(255, 255, 255);"/>
		</g>
		<g>
			<path class="st14" d="M1289.3,488c0,0,5.2,8.5,13,21.2c3.9,6.4,8.4,13.8,13.3,21.7c4.8,8,10,16.5,15.1,25&#10;&#9;&#9;&#9;&#9;c2.6,4.2,5.2,8.5,7.7,12.7c2.6,4.2,5,8.3,7.4,12.3c2.3,4,4.6,7.9,6.7,11.6c2.1,3.7,4.1,7.2,5.8,10.5c7.2,13.1,11.5,22,11.5,22&#10;&#9;&#9;&#9;&#9;l-0.3,0.2c0,0-5.7-8.2-13.7-20.8c-2-3.2-4.1-6.6-6.4-10.2c-2.3-3.6-4.5-7.5-6.9-11.5c-2.3-4-4.7-8.2-7.1-12.5&#10;&#9;&#9;&#9;&#9;c-2.4-4.3-4.9-8.6-7.3-12.9c-4.9-8.6-9.8-17.3-14.5-25.4c-4.6-8.1-8.9-15.7-12.6-22.2c-7.3-13-12.2-21.6-12.2-21.6L1289.3,488z" style="fill: rgb(255, 255, 255);"/>
		</g>
		<g>
			<path class="st14" d="M1209.2,501c0,0,6.2,10.3,15.6,25.6c4.7,7.7,10.1,16.7,15.9,26.3c5.8,9.6,12,19.9,18.2,30.2&#10;&#9;&#9;&#9;&#9;c3.1,5.1,6.2,10.3,9.3,15.3c3.1,5,6.1,10,9,14.9c2.8,4.9,5.6,9.6,8.1,14.1c2.6,4.5,4.9,8.7,7.1,12.7&#10;&#9;&#9;&#9;&#9;c8.7,15.8,14.1,26.5,14.1,26.5l-0.3,0.2c0,0-6.8-10-16.3-25.2c-2.4-3.8-4.9-8-7.6-12.4c-2.7-4.4-5.4-9.1-8.3-13.9&#10;&#9;&#9;&#9;&#9;c-2.8-4.9-5.7-9.9-8.6-15c-2.9-5.1-5.9-10.3-8.9-15.6c-6-10.4-11.9-20.8-17.5-30.6c-5.6-9.8-10.8-18.9-15.2-26.7&#10;&#9;&#9;&#9;&#9;c-8.9-15.7-14.8-26.1-14.8-26.1L1209.2,501z" style="fill: rgb(255, 255, 255);"/>
		</g>
		<g>
			<path class="st14" d="M1312.5,602.8c0,0,4.6,7.5,11.6,18.9c7,11.3,16.2,26.5,25.4,41.6c2.3,3.8,4.6,7.6,6.9,11.3&#10;&#9;&#9;&#9;&#9;c2.3,3.7,4.5,7.4,6.7,10.9c2.1,3.6,4.1,7.1,6,10.4c1.9,3.3,3.6,6.5,5.2,9.4c1.6,2.9,3,5.6,4.3,8c1.3,2.4,2.3,4.5,3.2,6.2&#10;&#9;&#9;&#9;&#9;c1.7,3.5,2.7,5.5,2.7,5.5l-0.3,0.2c0,0-1.3-1.8-3.5-5c-1.1-1.6-2.4-3.6-3.9-5.8c-1.5-2.3-3.1-4.8-4.9-7.6&#10;&#9;&#9;&#9;&#9;c-1.8-2.8-3.7-5.9-5.7-9.1c-2-3.2-4.1-6.7-6.2-10.3c-2.1-3.6-4.2-7.3-6.3-11.1c-2.1-3.8-4.3-7.7-6.5-11.5&#10;&#9;&#9;&#9;&#9;c-8.7-15.4-17.5-30.8-24-42.4c-6.5-11.6-10.8-19.3-10.8-19.3L1312.5,602.8z" style="fill: rgb(255, 255, 255);"/>
		</g>
		<g>
			<path class="st14" d="M1204.1,594.9c0,0,5.1,8.3,12.7,20.7c3.8,6.2,8.2,13.4,12.9,21.2c4.7,7.8,9.7,16.1,14.8,24.4&#10;&#9;&#9;&#9;&#9;c2.5,4.1,5.1,8.3,7.5,12.3c2.5,4.1,4.9,8.1,7.3,12c2.3,3.9,4.5,7.7,6.5,11.4c2,3.6,4,7.1,5.7,10.3c7,12.8,11.2,21.5,11.2,21.5&#10;&#9;&#9;&#9;&#9;l-0.3,0.2c0,0-5.6-8-13.3-20.3c-1.9-3.1-4-6.4-6.2-10c-2.2-3.5-4.4-7.3-6.8-11.2c-2.3-3.9-4.6-8-6.9-12.2&#10;&#9;&#9;&#9;&#9;c-2.3-4.2-4.7-8.4-7.1-12.6c-4.8-8.4-9.6-16.8-14.1-24.7c-4.5-7.9-8.7-15.3-12.2-21.6c-7.1-12.7-11.9-21.1-11.9-21.1&#10;&#9;&#9;&#9;&#9;L1204.1,594.9z" style="fill: rgb(255, 255, 255);"/>
		</g>
		<g>
			<path class="st14" d="M1133,535.4c0,0,5.1,8.3,12.7,20.7c3.8,6.2,8.2,13.4,12.9,21.2c4.7,7.8,9.7,16.1,14.8,24.4&#10;&#9;&#9;&#9;&#9;c2.5,4.1,5.1,8.3,7.5,12.3c2.5,4.1,4.9,8.1,7.3,12c2.3,3.9,4.5,7.7,6.5,11.4c2,3.6,4,7.1,5.7,10.3c7,12.8,11.2,21.5,11.2,21.5&#10;&#9;&#9;&#9;&#9;l-0.3,0.2c0,0-5.6-8-13.3-20.3c-1.9-3.1-4-6.4-6.2-10c-2.2-3.5-4.4-7.3-6.8-11.2c-2.3-3.9-4.6-8-6.9-12.2&#10;&#9;&#9;&#9;&#9;c-2.3-4.2-4.7-8.4-7.1-12.6c-4.8-8.4-9.6-16.8-14.1-24.7c-4.5-7.9-8.7-15.3-12.2-21.6c-7.1-12.7-11.9-21.1-11.9-21.1L1133,535.4z&#10;&#9;&#9;&#9;&#9;" style="fill: rgb(255, 255, 255);"/>
		</g>
		<g>
			<path class="st14" d="M1135.7,509.4c0,0,2.4,3.8,6.1,9.5c3.7,5.7,8.4,13.4,13.3,21c1.2,1.9,2.4,3.8,3.6,5.7&#10;&#9;&#9;&#9;&#9;c1.2,1.9,2.4,3.7,3.5,5.5c1.1,1.8,2.1,3.6,3,5.3c0.9,1.7,1.8,3.3,2.5,4.9c0.8,1.5,1.4,2.9,2,4.2c0.6,1.3,1.1,2.4,1.5,3.3&#10;&#9;&#9;&#9;&#9;c0.8,1.8,1.2,2.9,1.2,2.9l-0.3,0.2c0,0-0.7-0.9-2-2.4c-0.6-0.8-1.3-1.8-2.1-2.9c-0.8-1.1-1.7-2.4-2.7-3.8c-1-1.4-2-2.9-3-4.6&#10;&#9;&#9;&#9;&#9;c-1.1-1.6-2.1-3.4-3.2-5.2c-1.1-1.8-2.1-3.8-3.1-5.7c-1.1-2-2.1-3.9-3.2-5.9c-4.3-7.9-8.7-15.8-11.9-21.8c-3.2-6-5.3-10-5.3-10&#10;&#9;&#9;&#9;&#9;L1135.7,509.4z" style="fill: rgb(255, 255, 255);"/>
		</g>
		<g>
			<path class="st14" d="M1034.4,438c0,0,5.8,9.4,14.4,23.6c4.3,7.1,9.4,15.3,14.7,24.2c5.4,8.9,11.1,18.3,16.8,27.8&#10;&#9;&#9;&#9;&#9;c2.9,4.7,5.7,9.5,8.6,14.1c2.9,4.6,5.6,9.2,8.3,13.7c2.6,4.5,5.1,8.8,7.5,13c2.3,4.1,4.5,8.1,6.5,11.7&#10;&#9;&#9;&#9;&#9;c8,14.5,12.9,24.5,12.9,24.5l-0.3,0.2c0,0-6.3-9.1-15.1-23.2c-2.2-3.5-4.6-7.3-7-11.4c-2.5-4-5-8.4-7.7-12.8&#10;&#9;&#9;&#9;&#9;c-2.6-4.5-5.3-9.1-7.9-13.9c-2.7-4.7-5.4-9.5-8.2-14.4c-5.5-9.6-11-19.2-16.1-28.2c-5.2-9-9.9-17.4-14-24.6&#10;&#9;&#9;&#9;&#9;c-8.2-14.4-13.6-24.1-13.6-24.1L1034.4,438z" style="fill: rgb(255, 255, 255);"/>
		</g>
		<g>
			<path class="st14" d="M1147.7,630.8c0,0,2.4,3.7,5.9,9.2c3.6,5.5,8.2,13,12.9,20.4c1.2,1.8,2.4,3.7,3.5,5.5&#10;&#9;&#9;&#9;&#9;c1.2,1.8,2.3,3.6,3.4,5.4c1,1.8,2,3.5,2.9,5.2c0.9,1.7,1.7,3.2,2.4,4.7c0.7,1.5,1.4,2.8,1.9,4.1c0.6,1.2,1,2.3,1.4,3.2&#10;&#9;&#9;&#9;&#9;c0.8,1.8,1.1,2.8,1.1,2.8l-0.3,0.2c0,0-0.7-0.8-1.9-2.4c-0.6-0.8-1.3-1.7-2.1-2.8c-0.8-1.1-1.7-2.3-2.6-3.7&#10;&#9;&#9;&#9;&#9;c-0.9-1.4-1.9-2.8-2.9-4.4c-1-1.6-2.1-3.3-3.1-5c-1-1.8-2-3.6-3.1-5.6c-1-1.9-2.1-3.8-3.1-5.8c-4.2-7.7-8.5-15.4-11.5-21.2&#10;&#9;&#9;&#9;&#9;c-3.1-5.8-5.2-9.7-5.2-9.7L1147.7,630.8z" style="fill: rgb(255, 255, 255);"/>
		</g>
		<g>
			<path class="st14" d="M1259.3,820.5c0,0,4.1,6.7,10.3,16.7c6.2,10,14.4,23.4,22.6,36.8c2.1,3.3,4.1,6.7,6.1,10&#10;&#9;&#9;&#9;&#9;c2,3.3,4,6.5,5.9,9.7c1.9,3.2,3.6,6.3,5.3,9.2c1.6,2.9,3.2,5.7,4.6,8.3c1.4,2.6,2.6,5,3.7,7.1c1.1,2.1,2,4,2.8,5.5&#10;&#9;&#9;&#9;&#9;c1.5,3.1,2.3,4.9,2.3,4.9l-0.3,0.2c0,0-1.2-1.6-3.1-4.4c-1-1.4-2.2-3.1-3.5-5.1c-1.3-2-2.8-4.3-4.4-6.7c-1.6-2.5-3.3-5.2-5.1-8&#10;&#9;&#9;&#9;&#9;c-1.8-2.9-3.6-5.9-5.5-9.1c-1.9-3.2-3.7-6.5-5.6-9.9c-1.9-3.4-3.8-6.8-5.7-10.2c-7.7-13.7-15.5-27.3-21.2-37.6&#10;&#9;&#9;&#9;&#9;c-5.7-10.3-9.6-17.2-9.6-17.2L1259.3,820.5z" style="fill: rgb(255, 255, 255);"/>
		</g>
		<g>
			<path class="st14" d="M902.5,815.7c0,0,5.2,8.4,12.9,21.1c3.9,6.3,8.4,13.7,13.2,21.6c4.8,7.9,9.9,16.4,15,24.8&#10;&#9;&#9;&#9;&#9;c2.6,4.2,5.1,8.4,7.7,12.6c2.6,4.1,5,8.3,7.4,12.2c2.3,4,4.6,7.9,6.7,11.6c2.1,3.7,4,7.2,5.8,10.5c7.1,13,11.5,21.9,11.5,21.9&#10;&#9;&#9;&#9;&#9;l-0.3,0.2c0,0-5.7-8.1-13.6-20.7c-2-3.1-4.1-6.5-6.3-10.2c-2.2-3.6-4.5-7.5-6.9-11.4c-2.3-4-4.7-8.2-7.1-12.4&#10;&#9;&#9;&#9;&#9;c-2.4-4.2-4.8-8.5-7.3-12.8c-4.9-8.6-9.8-17.2-14.4-25.2c-4.6-8-8.8-15.6-12.5-22c-7.3-12.9-12.1-21.5-12.1-21.5L902.5,815.7z" style="fill: rgb(255, 255, 255);"/>
		</g>
		<g>
			<path class="st14" d="M1111.8,676.6c0,0,4.1,6.7,10.3,16.7c6.2,10,14.4,23.4,22.6,36.8c2.1,3.3,4.1,6.7,6.1,10&#10;&#9;&#9;&#9;&#9;c2,3.3,4,6.5,5.9,9.7c1.9,3.2,3.6,6.3,5.3,9.2c1.6,2.9,3.2,5.7,4.6,8.3c1.4,2.6,2.6,5,3.7,7.1c1.1,2.1,2,4,2.8,5.5&#10;&#9;&#9;&#9;&#9;c1.5,3.1,2.3,4.9,2.3,4.9l-0.3,0.2c0,0-1.2-1.6-3.1-4.4c-1-1.4-2.2-3.1-3.5-5.1c-1.3-2-2.8-4.3-4.4-6.7c-1.6-2.5-3.3-5.2-5.1-8&#10;&#9;&#9;&#9;&#9;c-1.8-2.9-3.6-5.9-5.5-9.1c-1.9-3.2-3.7-6.5-5.6-9.9c-1.9-3.4-3.8-6.8-5.7-10.2c-7.7-13.7-15.5-27.3-21.2-37.6&#10;&#9;&#9;&#9;&#9;c-5.7-10.3-9.6-17.2-9.6-17.2L1111.8,676.6z" style="fill: rgb(255, 255, 255);"/>
		</g>
		<g>
			<path class="st14" d="M1132.4,744.2c0,0,5.1,8.4,12.9,21c3.9,6.3,8.4,13.6,13.1,21.5c4.8,7.9,9.9,16.3,15,24.7&#10;&#9;&#9;&#9;&#9;c2.6,4.2,5.1,8.4,7.7,12.5c2.5,4.1,5,8.2,7.4,12.2c2.3,4,4.6,7.8,6.6,11.5c2.1,3.7,4,7.2,5.8,10.4c7.1,13,11.4,21.8,11.4,21.8&#10;&#9;&#9;&#9;&#9;l-0.3,0.2c0,0-5.7-8.1-13.5-20.6c-2-3.1-4.1-6.5-6.3-10.1c-2.2-3.6-4.5-7.4-6.9-11.4c-2.3-4-4.7-8.1-7-12.4&#10;&#9;&#9;&#9;&#9;c-2.4-4.2-4.8-8.5-7.2-12.8c-4.9-8.6-9.7-17.1-14.3-25.1c-4.6-8-8.8-15.5-12.4-21.9c-7.3-12.9-12.1-21.4-12.1-21.4L1132.4,744.2z&#10;&#9;&#9;&#9;&#9;" style="fill: rgb(255, 255, 255);"/>
		</g>
		<g>
			<path class="st14" d="M969.3,441.8c0,0,8.8,14.3,22,35.6c6.6,10.7,14.3,23.2,22.5,36.5c8.2,13.4,17,27.7,25.8,41.9&#10;&#9;&#9;&#9;&#9;c8.8,14.3,17.6,28.5,25.8,41.9c4,6.7,8,13.2,11.6,19.5c3.7,6.2,7.1,12.1,10.2,17.5c3.2,5.4,6,10.5,8.5,14.9&#10;&#9;&#9;&#9;&#9;c2.5,4.4,4.7,8.3,6.5,11.5c3.6,6.4,5.6,10.1,5.6,10.1l-0.3,0.2c0,0-2.3-3.5-6.3-9.6c-2-3.1-4.4-6.8-7.2-11.1&#10;&#9;&#9;&#9;&#9;c-2.7-4.3-5.9-9.1-9.2-14.5c-3.4-5.3-7-11.1-10.7-17.2c-3.8-6.1-7.7-12.6-11.8-19.3c-8.1-13.5-16.6-27.9-25.1-42.4&#10;&#9;&#9;&#9;&#9;c-8.5-14.4-17.1-28.8-25.1-42.3c-8-13.5-15.5-26.1-21.8-37C977.5,456.5,969,442,969,442L969.3,441.8z" style="fill: rgb(255, 255, 255);"/>
		</g>
		<g>
			<path class="st14" d="M378,772.1c0,0,5.4,8.4,13.4,21c4,6.3,8.7,13.6,13.7,21.5c5,7.9,10.3,16.3,15.6,24.7&#10;&#9;&#9;&#9;&#9;c2.7,4.2,5.3,8.4,8,12.5c2.7,4.1,5.2,8.2,7.7,12.2c2.4,4,4.8,7.8,6.9,11.5c2.2,3.7,4.2,7.2,6,10.4c7.4,12.9,11.9,21.8,11.9,21.8&#10;&#9;&#9;&#9;&#9;l-0.3,0.2c0,0-5.9-8.1-14.1-20.5c-2.1-3.1-4.3-6.5-6.5-10.1c-2.3-3.6-4.7-7.4-7.1-11.4c-2.4-4-4.9-8.1-7.4-12.3&#10;&#9;&#9;&#9;&#9;c-2.5-4.2-5-8.5-7.6-12.8c-5.1-8.5-10.2-17.1-14.9-25.1c-4.8-8-9.2-15.5-13-21.9c-7.6-12.9-12.6-21.4-12.6-21.4L378,772.1z" style="fill: rgb(255, 255, 255);"/>
		</g>
		<g>
			<path class="st14" d="M441.4,902.2c0,0,3.1,4.8,7.8,11.9c4.7,7.1,10.9,16.7,17.1,26.3c1.6,2.4,3.1,4.8,4.7,7.1&#10;&#9;&#9;&#9;&#9;c1.6,2.3,3.1,4.7,4.5,6.9c1.4,2.3,2.7,4.5,3.9,6.6c1.2,2.1,2.3,4.2,3.4,6c1,1.9,1.9,3.6,2.7,5.2c0.8,1.6,1.5,2.9,2,4&#10;&#9;&#9;&#9;&#9;c1.1,2.3,1.7,3.6,1.7,3.6l-0.3,0.2c0,0-0.9-1.1-2.4-3.1c-0.8-1-1.7-2.2-2.7-3.6c-1-1.4-2.2-3-3.4-4.8c-1.2-1.8-2.5-3.7-3.9-5.7&#10;&#9;&#9;&#9;&#9;c-1.4-2-2.7-4.2-4.1-6.5c-1.4-2.3-2.8-4.7-4.2-7.1c-1.4-2.4-2.8-4.9-4.2-7.4c-5.7-9.9-11.5-19.7-15.7-27.1&#10;&#9;&#9;&#9;&#9;c-4.2-7.4-7.1-12.4-7.1-12.4L441.4,902.2z" style="fill: rgb(255, 255, 255);"/>
		</g>
		<g>
			<path class="st14" d="M425.8,927c0,0,2.2,3.2,5.5,8c3.3,4.8,7.5,11.3,11.8,17.8c1.1,1.6,2.2,3.2,3.2,4.8c1.1,1.6,2.1,3.1,3.1,4.7&#10;&#9;&#9;&#9;&#9;c0.9,1.6,1.8,3.1,2.6,4.5c0.8,1.5,1.5,2.9,2.2,4.2c0.7,1.3,1.2,2.5,1.8,3.6c0.5,1.1,0.9,2,1.3,2.8c0.7,1.6,1,2.5,1,2.5l-0.3,0.2&#10;&#9;&#9;&#9;&#9;c0,0-0.7-0.7-1.8-2c-0.6-0.7-1.2-1.5-1.9-2.4c-0.7-0.9-1.5-2-2.4-3.2c-0.9-1.2-1.8-2.5-2.7-3.9c-1-1.4-1.9-2.9-2.9-4.4&#10;&#9;&#9;&#9;&#9;c-0.9-1.6-1.9-3.2-2.8-4.9c-0.9-1.7-1.9-3.4-2.8-5.1c-3.8-6.8-7.7-13.5-10.5-18.6c-2.8-5.1-4.7-8.5-4.7-8.5L425.8,927z" style="fill: rgb(255, 255, 255);"/>
		</g>
		<g>
			<path class="st14" d="M212.6,555.4c0,0,3,4.5,7.4,11.3c4.5,6.8,10.3,15.8,16.2,24.9c1.5,2.3,3,4.5,4.4,6.7&#10;&#9;&#9;&#9;&#9;c1.5,2.2,2.9,4.4,4.2,6.6c1.3,2.2,2.6,4.3,3.7,6.3c1.2,2,2.2,3.9,3.2,5.7c1,1.8,1.8,3.4,2.6,4.9c0.7,1.5,1.4,2.8,1.9,3.8&#10;&#9;&#9;&#9;&#9;c1,2.1,1.6,3.4,1.6,3.4l-0.3,0.2c0,0-0.9-1-2.3-2.9c-0.7-0.9-1.6-2.1-2.6-3.4c-1-1.3-2.1-2.8-3.2-4.5c-1.2-1.7-2.4-3.5-3.7-5.4&#10;&#9;&#9;&#9;&#9;c-1.3-1.9-2.6-4-3.9-6.1c-1.3-2.2-2.6-4.4-3.9-6.7c-1.3-2.3-2.7-4.6-4-7c-5.4-9.3-10.9-18.7-14.9-25.7c-4-7-6.7-11.7-6.7-11.7&#10;&#9;&#9;&#9;&#9;L212.6,555.4z" style="fill: rgb(255, 255, 255);"/>
		</g>
		<g>
			<path class="st14" d="M42.4,614.3c0,0,6.1,9.6,15.3,24c4.6,7.2,9.9,15.6,15.6,24.7c5.7,9,11.8,18.7,17.8,28.3&#10;&#9;&#9;&#9;&#9;c3,4.8,6.1,9.6,9.1,14.4c3,4.7,5.9,9.4,8.8,13.9c2.8,4.6,5.5,9,7.9,13.2c2.5,4.2,4.8,8.2,7,11.9c8.6,14.8,13.8,24.9,13.8,24.9&#10;&#9;&#9;&#9;&#9;l-0.3,0.2c0,0-6.6-9.3-16-23.6c-2.3-3.6-4.8-7.5-7.5-11.6c-2.7-4.1-5.3-8.5-8.2-13.1c-2.8-4.6-5.6-9.3-8.5-14.1&#10;&#9;&#9;&#9;&#9;c-2.9-4.8-5.8-9.7-8.7-14.6c-5.8-9.8-11.7-19.6-17.2-28.7C66,655,61,646.4,56.6,639c-8.7-14.7-14.5-24.5-14.5-24.5L42.4,614.3z" style="fill: rgb(255, 255, 255);"/>
		</g>
		<g>
			<path class="st14" d="M18.9,795c0,0,6.6,10.5,16.6,26.1c5,7.9,10.7,17,16.9,26.8c6.2,9.8,12.8,20.3,19.3,30.8&#10;&#9;&#9;&#9;&#9;c3.3,5.2,6.6,10.5,9.9,15.6c3.3,5.1,6.4,10.2,9.5,15.2c3,5,5.9,9.7,8.6,14.3c2.7,4.6,5.3,8.9,7.6,12.9c9.3,16.1,15.1,27,15.1,27&#10;&#9;&#9;&#9;&#9;l-0.3,0.2c0,0-7.1-10.1-17.2-25.7c-2.5-3.9-5.2-8.1-8.1-12.6c-2.9-4.5-5.8-9.3-8.9-14.2c-3-5-6.1-10.1-9.2-15.3&#10;&#9;&#9;&#9;&#9;c-3.1-5.2-6.3-10.6-9.5-15.9C63,869.6,56.6,859,50.6,849c-5.9-10-11.5-19.3-16.2-27.2c-9.5-16-15.8-26.6-15.8-26.6L18.9,795z" style="fill: rgb(255, 255, 255);"/>
		</g>
		<g>
			<path class="st14" d="M148.7,323.4c0,0,8.5,14.9,21.3,37.3c6.4,11.2,13.8,24.3,21.8,38.3c8,14,16.4,28.9,24.9,43.9&#10;&#9;&#9;&#9;&#9;c8.5,14.9,17.1,29.8,24.9,43.9c3.9,7.1,7.7,13.8,11.2,20.3c3.5,6.5,6.8,12.6,9.9,18.3c3,5.7,5.8,10.9,8.2,15.6&#10;&#9;&#9;&#9;&#9;c2.4,4.6,4.6,8.7,6.3,12c3.4,6.7,5.4,10.5,5.4,10.5l-0.3,0.2c0,0-2.3-3.7-6.1-10.1c-2-3.2-4.3-7.1-6.9-11.7&#10;&#9;&#9;&#9;&#9;c-2.6-4.5-5.7-9.6-8.9-15.2c-3.2-5.6-6.7-11.6-10.4-18c-3.7-6.4-7.5-13.2-11.4-20.2c-7.8-14.1-16-29.2-24.2-44.3&#10;&#9;&#9;&#9;&#9;c-8.3-15.1-16.5-30.1-24.2-44.3c-7.7-14.1-14.9-27.3-21.1-38.6c-12.3-22.6-20.5-37.7-20.5-37.7L148.7,323.4z" style="fill: rgb(255, 255, 255);"/>
		</g>
		<g>
			<path class="st14" d="M60.9,726.9c0,0,5.2,8.1,12.9,20.2c3.9,6,8.4,13.1,13.2,20.7c4.8,7.6,9.9,15.7,15,23.7&#10;&#9;&#9;&#9;&#9;c2.6,4,5.1,8.1,7.7,12c2.6,4,5,7.9,7.4,11.7c2.3,3.8,4.6,7.5,6.7,11.1c2.1,3.5,4,6.9,5.8,10c7.1,12.5,11.5,21,11.5,21l-0.3,0.2&#10;&#9;&#9;&#9;&#9;c0,0-5.7-7.7-13.6-19.7c-2-3-4.1-6.3-6.3-9.7c-2.2-3.4-4.5-7.2-6.9-11c-2.3-3.8-4.7-7.8-7.1-11.9c-2.4-4.1-4.8-8.2-7.3-12.3&#10;&#9;&#9;&#9;&#9;c-4.9-8.2-9.8-16.4-14.4-24.2c-4.6-7.7-8.8-14.9-12.5-21.1c-7.3-12.4-12.1-20.6-12.1-20.6L60.9,726.9z" style="fill: rgb(255, 255, 255);"/>
		</g>
		<g>
			<path class="st14" d="M719,785.8c0,0,5.2,8.5,13,21.2c3.9,6.4,8.4,13.8,13.3,21.7c4.8,8,10,16.5,15.1,25&#10;&#9;&#9;&#9;&#9;c2.6,4.2,5.2,8.5,7.7,12.7c2.6,4.2,5,8.3,7.4,12.3c2.3,4,4.6,7.9,6.7,11.6c2.1,3.7,4.1,7.2,5.8,10.5c7.2,13.1,11.5,22,11.5,22&#10;&#9;&#9;&#9;&#9;l-0.3,0.2c0,0-5.7-8.2-13.7-20.8c-2-3.2-4.1-6.6-6.4-10.2c-2.3-3.6-4.5-7.5-6.9-11.5c-2.3-4-4.7-8.2-7.1-12.5&#10;&#9;&#9;&#9;&#9;c-2.4-4.3-4.9-8.6-7.3-12.9c-4.9-8.6-9.8-17.3-14.5-25.4c-4.6-8.1-8.9-15.7-12.6-22.2c-7.3-13-12.2-21.6-12.2-21.6L719,785.8z" style="fill: rgb(255, 255, 255);"/>
		</g>
		<g>
			<path class="st14" d="M639,798.8c0,0,6.2,10.3,15.6,25.6c4.7,7.7,10.1,16.7,15.9,26.3c5.8,9.6,12,19.9,18.2,30.2&#10;&#9;&#9;&#9;&#9;c3.1,5.1,6.2,10.3,9.3,15.3c3.1,5,6.1,10,9,14.9c2.8,4.9,5.6,9.6,8.1,14.1c2.6,4.5,4.9,8.7,7.1,12.7&#10;&#9;&#9;&#9;&#9;c8.7,15.8,14.1,26.5,14.1,26.5l-0.3,0.2c0,0-6.8-10-16.3-25.2c-2.4-3.8-4.9-8-7.6-12.4c-2.7-4.4-5.4-9.1-8.3-13.9&#10;&#9;&#9;&#9;&#9;c-2.8-4.9-5.7-9.9-8.6-15c-2.9-5.1-5.9-10.3-8.9-15.6c-6-10.4-11.9-20.8-17.5-30.6c-5.6-9.8-10.8-18.9-15.2-26.7&#10;&#9;&#9;&#9;&#9;c-8.9-15.7-14.8-26.1-14.8-26.1L639,798.8z" style="fill: rgb(255, 255, 255);"/>
		</g>
		<g>
			<path class="st14" d="M742.2,900.6c0,0,3.1,4.9,7.7,12.2c4.6,7.3,10.6,17.1,16.7,26.9c1.5,2.4,3.1,4.9,4.6,7.3&#10;&#9;&#9;&#9;&#9;c1.5,2.4,3,4.8,4.4,7.1c1.4,2.3,2.7,4.6,3.8,6.8c1.2,2.2,2.3,4.2,3.3,6.2c1,1.9,1.9,3.7,2.7,5.3c0.8,1.6,1.4,3,2,4.1&#10;&#9;&#9;&#9;&#9;c1.1,2.3,1.6,3.6,1.6,3.6l-0.3,0.2c0,0-0.9-1.1-2.4-3.2c-0.7-1-1.6-2.3-2.6-3.7c-1-1.4-2.1-3.1-3.3-4.9c-1.2-1.8-2.5-3.8-3.8-5.9&#10;&#9;&#9;&#9;&#9;c-1.3-2.1-2.7-4.3-4.1-6.6c-1.4-2.3-2.7-4.8-4.1-7.3c-1.4-2.5-2.8-5-4.1-7.5c-5.6-10.1-11.2-20.1-15.4-27.7&#10;&#9;&#9;&#9;&#9;c-4.1-7.6-6.9-12.6-6.9-12.6L742.2,900.6z" style="fill: rgb(255, 255, 255);"/>
		</g>
		<g>
			<path class="st14" d="M633.8,892.7c0,0,3.4,5.4,8.4,13.4c5.1,8,11.7,18.8,18.3,29.6c1.7,2.7,3.3,5.4,5,8c1.7,2.6,3.3,5.2,4.8,7.8&#10;&#9;&#9;&#9;&#9;c1.5,2.6,2.9,5,4.2,7.4c1.3,2.4,2.5,4.6,3.6,6.8c1.1,2.1,2.1,4,3,5.8c0.9,1.7,1.6,3.2,2.2,4.5c1.2,2.5,1.8,4,1.8,4l-0.3,0.2&#10;&#9;&#9;&#9;&#9;c0,0-1-1.3-2.6-3.5c-0.8-1.1-1.8-2.5-2.9-4.1c-1.1-1.6-2.3-3.4-3.6-5.4c-1.3-2-2.7-4.1-4.1-6.5c-1.5-2.3-2.9-4.7-4.4-7.3&#10;&#9;&#9;&#9;&#9;c-1.5-2.6-3-5.2-4.5-8c-1.5-2.7-3-5.5-4.6-8.3c-6.2-11-12.4-22.1-17-30.4c-4.6-8.3-7.6-13.9-7.6-13.9L633.8,892.7z" style="fill: rgb(255, 255, 255);"/>
		</g>
		<g>
			<path class="st14" d="M562.8,833.1c0,0,5.1,8.3,12.7,20.7c3.8,6.2,8.2,13.4,12.9,21.2c4.7,7.8,9.7,16.1,14.8,24.4&#10;&#9;&#9;&#9;&#9;c2.5,4.1,5.1,8.3,7.5,12.3c2.5,4.1,4.9,8.1,7.3,12c2.3,3.9,4.5,7.7,6.5,11.4c2,3.6,4,7.1,5.7,10.3c7,12.8,11.2,21.5,11.2,21.5&#10;&#9;&#9;&#9;&#9;l-0.3,0.2c0,0-5.6-8-13.3-20.3c-1.9-3.1-4-6.4-6.2-10c-2.2-3.5-4.4-7.3-6.8-11.2c-2.3-3.9-4.6-8-6.9-12.2&#10;&#9;&#9;&#9;&#9;c-2.3-4.2-4.7-8.4-7.1-12.6c-4.8-8.4-9.6-16.8-14.1-24.7c-4.5-7.9-8.7-15.3-12.2-21.6c-7.1-12.7-11.9-21.1-11.9-21.1L562.8,833.1&#10;&#9;&#9;&#9;&#9;z" style="fill: rgb(255, 255, 255);"/>
		</g>
		<g>
			<path class="st14" d="M565.5,807.2c0,0,2.4,3.8,6.1,9.5c3.7,5.7,8.4,13.4,13.3,21c1.2,1.9,2.4,3.8,3.6,5.7&#10;&#9;&#9;&#9;&#9;c1.2,1.9,2.4,3.7,3.5,5.5c1.1,1.8,2.1,3.6,3,5.3c0.9,1.7,1.8,3.3,2.5,4.9c0.8,1.5,1.4,2.9,2,4.2c0.6,1.3,1.1,2.4,1.5,3.3&#10;&#9;&#9;&#9;&#9;c0.8,1.8,1.2,2.9,1.2,2.9l-0.3,0.2c0,0-0.7-0.9-2-2.4c-0.6-0.8-1.3-1.8-2.1-2.9c-0.8-1.1-1.7-2.4-2.7-3.8c-1-1.4-2-2.9-3-4.6&#10;&#9;&#9;&#9;&#9;c-1.1-1.6-2.1-3.4-3.2-5.2c-1.1-1.8-2.1-3.8-3.1-5.7c-1.1-2-2.1-3.9-3.2-5.9c-4.3-7.9-8.7-15.8-11.9-21.8c-3.2-6-5.3-10-5.3-10&#10;&#9;&#9;&#9;&#9;L565.5,807.2z" style="fill: rgb(255, 255, 255);"/>
		</g>
		<g>
			<path class="st14" d="M464.2,735.7c0,0,5.8,9.4,14.4,23.6c4.3,7.1,9.4,15.3,14.7,24.2c5.4,8.9,11.1,18.3,16.8,27.8&#10;&#9;&#9;&#9;&#9;c2.9,4.7,5.7,9.5,8.6,14.1c2.9,4.6,5.6,9.2,8.3,13.7c2.6,4.5,5.1,8.8,7.5,13c2.3,4.1,4.5,8.1,6.5,11.7&#10;&#9;&#9;&#9;&#9;c8,14.5,12.9,24.5,12.9,24.5l-0.3,0.2c0,0-6.3-9.1-15.1-23.2c-2.2-3.5-4.6-7.3-7-11.4c-2.5-4-5-8.4-7.7-12.8&#10;&#9;&#9;&#9;&#9;c-2.6-4.5-5.3-9.1-7.9-13.9c-2.7-4.7-5.4-9.5-8.2-14.4c-5.5-9.6-11-19.2-16.1-28.2c-5.2-9-9.9-17.4-14-24.6&#10;&#9;&#9;&#9;&#9;c-8.2-14.4-13.6-24.1-13.6-24.1L464.2,735.7z" style="fill: rgb(255, 255, 255);"/>
		</g>
		<g>
			<path class="st14" d="M577.5,928.6c0,0,2.1,3.1,5.1,7.8c3.1,4.7,7,11,11,17.2c1,1.6,2,3.1,3,4.7c1,1.5,2,3,2.9,4.5&#10;&#9;&#9;&#9;&#9;c0.9,1.5,1.7,3,2.4,4.4c0.7,1.4,1.4,2.8,2,4c0.6,1.3,1.1,2.4,1.6,3.5c0.5,1,0.8,2,1.1,2.7c0.6,1.5,0.9,2.4,0.9,2.4l-0.3,0.2&#10;&#9;&#9;&#9;&#9;c0,0-0.6-0.7-1.7-2c-0.5-0.6-1.1-1.4-1.8-2.3c-0.7-0.9-1.5-1.9-2.3-3.1c-0.8-1.1-1.7-2.4-2.5-3.7c-0.9-1.3-1.8-2.8-2.7-4.3&#10;&#9;&#9;&#9;&#9;c-0.9-1.5-1.7-3.1-2.6-4.7c-0.9-1.6-1.7-3.3-2.6-4.9c-3.5-6.6-7.1-13.1-9.7-18c-2.6-4.9-4.3-8.2-4.3-8.2L577.5,928.6z" style="fill: rgb(255, 255, 255);"/>
		</g>
		<g>
			<path class="st14" d="M13.9,401c0,0,10.1,16.8,25.1,41.9c15,25.2,35.1,58.7,55.2,92.3c10,16.8,20.1,33.5,29.5,49.3&#10;&#9;&#9;&#9;&#9;c4.6,7.9,9.1,15.5,13.3,22.8c4.2,7.3,8.1,14.2,11.7,20.6c3.6,6.4,6.9,12.3,9.8,17.4c2.9,5.2,5.4,9.7,7.5,13.5&#10;&#9;&#9;&#9;&#9;c4.1,7.5,6.4,11.8,6.4,11.8l-0.3,0.2c0,0-2.7-4.1-7.2-11.4c-2.3-3.6-5-8-8.2-13.1c-3.1-5.1-6.7-10.8-10.5-17&#10;&#9;&#9;&#9;&#9;c-3.8-6.3-7.9-13.1-12.2-20.3c-4.3-7.2-8.8-14.8-13.5-22.7c-9.2-15.8-19-32.8-28.7-49.7c-19.6-33.8-39.1-67.7-53.8-93.1&#10;&#9;&#9;&#9;&#9;c-14.6-25.4-24.4-42.3-24.4-42.3L13.9,401z" style="fill: rgb(255, 255, 255);"/>
		</g>
		<g>
			<path class="st14" d="M198.9,719.4c0,0,5.1,8.4,12.9,21c3.9,6.3,8.4,13.6,13.1,21.5c4.8,7.9,9.9,16.3,15,24.7&#10;&#9;&#9;&#9;&#9;c2.6,4.2,5.1,8.4,7.7,12.5c2.5,4.1,5,8.2,7.4,12.2c2.3,4,4.6,7.8,6.6,11.5c2.1,3.7,4,7.2,5.8,10.4c7.1,13,11.4,21.8,11.4,21.8&#10;&#9;&#9;&#9;&#9;l-0.3,0.2c0,0-5.7-8.1-13.5-20.6c-2-3.1-4.1-6.5-6.3-10.1c-2.2-3.6-4.5-7.4-6.9-11.4c-2.3-4-4.7-8.1-7-12.4&#10;&#9;&#9;&#9;&#9;c-2.4-4.2-4.8-8.5-7.2-12.8c-4.9-8.6-9.7-17.1-14.3-25.1c-4.6-8-8.8-15.5-12.4-21.9c-7.3-12.9-12.1-21.4-12.1-21.4L198.9,719.4z" style="fill: rgb(255, 255, 255);"/>
		</g>
		<g>
			<path class="st14" d="M192.2,838.5c0,0,5.2,8.1,12.9,20.2c3.9,6,8.4,13.1,13.2,20.7c4.8,7.6,9.9,15.7,15,23.7&#10;&#9;&#9;&#9;&#9;c2.6,4,5.1,8.1,7.7,12c2.6,4,5,7.9,7.4,11.7c2.3,3.8,4.6,7.5,6.7,11.1c2.1,3.5,4,6.9,5.8,10c7.1,12.5,11.5,21,11.5,21l-0.3,0.2&#10;&#9;&#9;&#9;&#9;c0,0-5.7-7.7-13.6-19.7c-2-3-4.1-6.3-6.3-9.7c-2.2-3.4-4.5-7.2-6.9-11c-2.3-3.8-4.7-7.8-7.1-11.9c-2.4-4.1-4.8-8.2-7.3-12.3&#10;&#9;&#9;&#9;&#9;c-4.9-8.2-9.8-16.4-14.4-24.2c-4.6-7.7-8.8-14.9-12.5-21.1c-7.3-12.4-12.1-20.6-12.1-20.6L192.2,838.5z" style="fill: rgb(255, 255, 255);"/>
		</g>
		<g>
			<path class="st14" d="M232.2,672.6c0,0,11.3,18.3,28.2,45.7c16.9,27.5,39.3,64.1,61.8,100.7c11.2,18.3,22.5,36.6,33,53.8&#10;&#9;&#9;&#9;&#9;c5.2,8.6,10.2,17,14.9,24.9c4.7,7.9,9.1,15.5,13.2,22.4c4.1,6.9,7.7,13.4,11,19c3.3,5.7,6.1,10.6,8.4,14.7&#10;&#9;&#9;&#9;&#9;c4.7,8.2,7.3,12.9,7.3,12.9l-0.3,0.2c0,0-3-4.5-8-12.4c-2.6-3.9-5.6-8.8-9.1-14.3c-3.5-5.5-7.5-11.8-11.7-18.6&#10;&#9;&#9;&#9;&#9;c-4.3-6.8-8.9-14.2-13.7-22.1c-4.9-7.8-9.9-16.2-15.1-24.8c-10.4-17.3-21.3-35.8-32.3-54.2c-22-36.9-43.9-73.8-60.4-101.5&#10;&#9;&#9;&#9;&#9;c-16.4-27.7-27.4-46.2-27.4-46.2L232.2,672.6z" style="fill: rgb(255, 255, 255);"/>
		</g>
		<g>
			<path class="st14" d="M399.1,739.6c0,0,8.8,14.3,22,35.6c6.6,10.7,14.3,23.2,22.5,36.5c8.2,13.4,17,27.7,25.8,41.9&#10;&#9;&#9;&#9;&#9;c8.8,14.3,17.6,28.5,25.8,41.9c4,6.7,8,13.2,11.6,19.5c3.7,6.2,7.1,12.1,10.2,17.5c3.2,5.4,6,10.5,8.5,14.9&#10;&#9;&#9;&#9;&#9;c2.5,4.4,4.7,8.3,6.5,11.5c3.6,6.4,5.6,10.1,5.6,10.1l-0.3,0.2c0,0-2.3-3.5-6.3-9.6c-2-3.1-4.4-6.8-7.2-11.1&#10;&#9;&#9;&#9;&#9;c-2.7-4.3-5.9-9.1-9.2-14.5c-3.4-5.3-7-11.1-10.7-17.2c-3.8-6.1-7.7-12.6-11.8-19.3c-8.1-13.5-16.6-27.9-25.1-42.4&#10;&#9;&#9;&#9;&#9;c-8.5-14.4-17.1-28.8-25.1-42.3c-8-13.5-15.5-26.1-21.8-37c-12.8-21.7-21.3-36.1-21.3-36.1L399.1,739.6z" style="fill: rgb(255, 255, 255);"/>
		</g>
		<g>
			<path class="st14" d="M1132.5,158.9c0,0,3.5,5.6,8.8,14c5.3,8.4,12.2,19.7,19.1,30.9c1.7,2.8,3.5,5.6,5.2,8.4&#10;&#9;&#9;&#9;&#9;c1.7,2.8,3.4,5.5,5,8.1c1.6,2.7,3.1,5.3,4.4,7.8c1.4,2.5,2.7,4.9,3.8,7.1c1.2,2.2,2.2,4.2,3.1,6c0.9,1.8,1.7,3.4,2.3,4.7&#10;&#9;&#9;&#9;&#9;c1.3,2.6,1.9,4.1,1.9,4.1l-0.3,0.2c0,0-1-1.3-2.7-3.7c-0.8-1.2-1.8-2.6-3-4.3c-1.1-1.7-2.4-3.6-3.8-5.6c-1.4-2.1-2.8-4.3-4.3-6.8&#10;&#9;&#9;&#9;&#9;c-1.5-2.4-3.1-5-4.6-7.6c-1.6-2.7-3.1-5.5-4.7-8.3c-1.6-2.8-3.2-5.7-4.8-8.6c-6.5-11.5-13-23-17.8-31.7c-4.8-8.7-8-14.5-8-14.5&#10;&#9;&#9;&#9;&#9;L1132.5,158.9z" style="fill: rgb(255, 255, 255);"/>
		</g>
		<g>
			<path class="st14" d="M1321.6,372.7c0,0,1.9,2.7,4.6,6.9c2.8,4.1,6.3,9.7,9.9,15.3c0.9,1.4,1.8,2.8,2.7,4.1&#10;&#9;&#9;&#9;&#9;c0.9,1.4,1.8,2.7,2.6,4c0.8,1.3,1.5,2.6,2.2,3.9c0.7,1.3,1.3,2.5,1.8,3.6c0.5,1.1,1,2.2,1.4,3.1c0.4,0.9,0.7,1.8,1,2.5&#10;&#9;&#9;&#9;&#9;c0.5,1.4,0.8,2.2,0.8,2.2l-0.3,0.2c0,0-0.6-0.6-1.5-1.7c-0.5-0.6-1-1.2-1.7-2c-0.6-0.8-1.3-1.7-2-2.7c-0.7-1-1.5-2.1-2.3-3.3&#10;&#9;&#9;&#9;&#9;c-0.8-1.2-1.6-2.5-2.4-3.8c-0.8-1.3-1.5-2.8-2.3-4.2c-0.8-1.4-1.5-2.9-2.3-4.4c-3.1-5.8-6.3-11.7-8.5-16.1&#10;&#9;&#9;&#9;&#9;c-2.3-4.4-3.8-7.4-3.8-7.4L1321.6,372.7z" style="fill: rgb(255, 255, 255);"/>
		</g>
		<g>
			<path class="st14" d="M1309.7,418.3c0,0,4.6,7.4,11.4,18.5c6.9,11.1,15.9,26,24.9,40.8c2.3,3.7,4.5,7.4,6.8,11.1&#10;&#9;&#9;&#9;&#9;c2.3,3.6,4.4,7.2,6.5,10.7c2.1,3.5,4,6.9,5.8,10.2c1.8,3.3,3.5,6.4,5.1,9.2c1.6,2.9,2.9,5.5,4.2,7.9c1.2,2.4,2.3,4.4,3.1,6.1&#10;&#9;&#9;&#9;&#9;c1.7,3.4,2.6,5.4,2.6,5.4l-0.3,0.2c0,0-1.3-1.8-3.4-4.9c-1.1-1.6-2.4-3.5-3.8-5.7c-1.5-2.2-3.1-4.7-4.8-7.5&#10;&#9;&#9;&#9;&#9;c-1.8-2.7-3.6-5.7-5.6-8.9c-2-3.2-4-6.5-6.1-10.1c-2.1-3.5-4.1-7.2-6.2-10.9c-2.1-3.7-4.2-7.5-6.4-11.3&#10;&#9;&#9;&#9;&#9;c-8.6-15.1-17.2-30.2-23.5-41.6c-6.4-11.4-10.6-19-10.6-19L1309.7,418.3z" style="fill: rgb(255, 255, 255);"/>
		</g>
		<g>
			<path class="st14" d="M1142.2,814.2c0,0,1.9,2.7,4.6,6.9c2.8,4.1,6.3,9.7,9.9,15.3c0.9,1.4,1.8,2.8,2.7,4.1&#10;&#9;&#9;&#9;&#9;c0.9,1.4,1.8,2.7,2.6,4c0.8,1.3,1.5,2.6,2.2,3.9c0.7,1.3,1.3,2.5,1.8,3.6c0.5,1.1,1,2.2,1.4,3.1c0.4,0.9,0.7,1.8,1,2.5&#10;&#9;&#9;&#9;&#9;c0.5,1.4,0.8,2.2,0.8,2.2l-0.3,0.2c0,0-0.6-0.6-1.5-1.7c-0.5-0.6-1-1.2-1.7-2c-0.6-0.8-1.3-1.7-2-2.7c-0.7-1-1.5-2.1-2.3-3.3&#10;&#9;&#9;&#9;&#9;c-0.8-1.2-1.6-2.5-2.4-3.8c-0.8-1.3-1.5-2.8-2.3-4.2c-0.8-1.4-1.5-2.9-2.3-4.4c-3.1-5.8-6.3-11.7-8.5-16.1&#10;&#9;&#9;&#9;&#9;c-2.3-4.4-3.8-7.4-3.8-7.4L1142.2,814.2z" style="fill: rgb(255, 255, 255);"/>
		</g>
		<g>
			<path class="st14" d="M1321.6,765.6c0,0,1.9,2.7,4.6,6.9c2.8,4.1,6.3,9.7,9.9,15.3c0.9,1.4,1.8,2.8,2.7,4.1&#10;&#9;&#9;&#9;&#9;c0.9,1.4,1.8,2.7,2.6,4c0.8,1.3,1.5,2.6,2.2,3.9c0.7,1.3,1.3,2.5,1.8,3.6c0.5,1.1,1,2.2,1.4,3.1c0.4,0.9,0.7,1.8,1,2.5&#10;&#9;&#9;&#9;&#9;c0.5,1.4,0.8,2.2,0.8,2.2l-0.3,0.2c0,0-0.6-0.6-1.5-1.7c-0.5-0.6-1-1.2-1.7-2c-0.6-0.8-1.3-1.7-2-2.7c-0.7-1-1.5-2.1-2.3-3.3&#10;&#9;&#9;&#9;&#9;c-0.8-1.2-1.6-2.5-2.4-3.8c-0.8-1.3-1.5-2.8-2.3-4.2c-0.8-1.4-1.5-2.9-2.3-4.4c-3.1-5.8-6.3-11.7-8.5-16.1&#10;&#9;&#9;&#9;&#9;c-2.3-4.4-3.8-7.4-3.8-7.4L1321.6,765.6z" style="fill: rgb(255, 255, 255);"/>
		</g>
		<g>
			<path class="st14" d="M1130.3,859.8c0,0,4.6,7.4,11.4,18.5c6.9,11.1,15.9,26,24.9,40.8c2.3,3.7,4.5,7.4,6.8,11.1&#10;&#9;&#9;&#9;&#9;c2.3,3.6,4.4,7.2,6.5,10.7c2.1,3.5,4,6.9,5.8,10.2c1.8,3.3,3.5,6.4,5.1,9.2c1.6,2.9,2.9,5.5,4.2,7.9c1.2,2.4,2.3,4.4,3.1,6.1&#10;&#9;&#9;&#9;&#9;c1.7,3.4,2.6,5.4,2.6,5.4l-0.3,0.2c0,0-1.3-1.8-3.4-4.9c-1.1-1.6-2.4-3.5-3.8-5.7c-1.5-2.2-3.1-4.7-4.8-7.5&#10;&#9;&#9;&#9;&#9;c-1.8-2.7-3.6-5.7-5.6-8.9c-2-3.2-4-6.5-6.1-10.1c-2.1-3.5-4.1-7.2-6.2-10.9c-2.1-3.7-4.2-7.5-6.4-11.3&#10;&#9;&#9;&#9;&#9;c-8.6-15.1-17.2-30.2-23.5-41.6c-6.4-11.4-10.6-19-10.6-19L1130.3,859.8z" style="fill: rgb(255, 255, 255);"/>
		</g>
		<g>
			<path class="st14" d="M136.9,158.9c0,0,9.1,14.5,22.7,36.2c6.8,10.9,14.7,23.5,23.3,37.1c8.5,13.6,17.5,28.1,26.6,42.6&#10;&#9;&#9;&#9;&#9;c9.1,14.5,18.2,28.9,26.6,42.6c4.1,6.9,8.2,13.4,12,19.8c3.8,6.3,7.3,12.3,10.6,17.8c3.3,5.5,6.2,10.6,8.8,15.1&#10;&#9;&#9;&#9;&#9;c2.6,4.5,4.9,8.4,6.7,11.7c3.7,6.5,5.8,10.2,5.8,10.2l-0.3,0.2c0,0-2.4-3.5-6.5-9.8c-2.1-3.1-4.6-6.9-7.4-11.3&#10;&#9;&#9;&#9;&#9;c-2.8-4.4-6.1-9.3-9.5-14.7c-3.5-5.4-7.2-11.3-11.1-17.5c-3.9-6.2-8-12.8-12.2-19.6c-8.3-13.7-17.1-28.4-25.9-43&#10;&#9;&#9;&#9;&#9;c-8.8-14.6-17.7-29.3-25.9-43c-8.3-13.7-16-26.6-22.6-37.5c-13.2-22-22-36.7-22-36.7L136.9,158.9z" style="fill: rgb(255, 255, 255);"/>
		</g>
		<g>
			<path class="st14" d="M0.7,210c0,0,5.3,8.3,13.2,20.7c4,6.2,8.6,13.4,13.5,21.2c4.9,7.8,10.1,16.1,15.4,24.3&#10;&#9;&#9;&#9;&#9;c2.6,4.1,5.3,8.3,7.9,12.3c2.6,4.1,5.1,8.1,7.6,12c2.4,3.9,4.7,7.7,6.8,11.4c2.1,3.6,4.1,7.1,6,10.3&#10;&#9;&#9;&#9;&#9;c7.3,12.8,11.8,21.5,11.8,21.5l-0.3,0.2c0,0-5.8-7.9-13.9-20.2c-2-3.1-4.2-6.4-6.5-10c-2.3-3.5-4.6-7.3-7-11.2&#10;&#9;&#9;&#9;&#9;c-2.4-3.9-4.8-8-7.3-12.2c-2.5-4.2-4.9-8.4-7.4-12.6c-5-8.4-10-16.8-14.7-24.7c-4.7-7.9-9.1-15.3-12.8-21.6&#10;&#9;&#9;&#9;&#9;c-7.5-12.7-12.4-21.1-12.4-21.1L0.7,210z" style="fill: rgb(255, 255, 255);"/>
		</g>
		<g>
			<path class="st14" d="M67.1,183.8c0,0,3,4.6,7.5,11.4c4.5,6.8,10.4,16,16.4,25.2c1.5,2.3,3,4.6,4.5,6.8c1.5,2.2,2.9,4.5,4.3,6.6&#10;&#9;&#9;&#9;&#9;c1.3,2.2,2.6,4.3,3.7,6.4c1.2,2,2.2,4,3.2,5.8c1,1.8,1.8,3.5,2.6,5c0.8,1.5,1.4,2.8,1.9,3.9c1,2.2,1.6,3.4,1.6,3.4l-0.3,0.2&#10;&#9;&#9;&#9;&#9;c0,0-0.9-1.1-2.4-3c-0.7-1-1.6-2.1-2.6-3.5c-1-1.4-2.1-2.9-3.2-4.6c-1.2-1.7-2.4-3.5-3.7-5.5c-1.3-1.9-2.6-4-4-6.2&#10;&#9;&#9;&#9;&#9;c-1.3-2.2-2.6-4.5-4-6.8c-1.3-2.3-2.7-4.7-4.1-7.1c-5.5-9.5-11-18.9-15-26c-4.1-7.1-6.8-11.9-6.8-11.9L67.1,183.8z" style="fill: rgb(255, 255, 255);"/>
		</g>
		<g>
			<path class="st14" d="M91.7,406.2c0,0,7.1,12.1,17.8,30.2c5.3,9.1,11.6,19.6,18.2,31c6.6,11.3,13.7,23.4,20.8,35.5&#10;&#9;&#9;&#9;&#9;c3.6,6,7.1,12.1,10.6,18c3.5,5.9,6.9,11.8,10.2,17.5c3.2,5.7,6.4,11.2,9.3,16.5c2.9,5.3,5.7,10.3,8.2,14.9&#10;&#9;&#9;&#9;&#9;c10.1,18.5,16.4,31,16.4,31l-0.3,0.2c0,0-7.7-11.8-18.5-29.8c-2.7-4.5-5.6-9.4-8.7-14.6c-3.1-5.2-6.2-10.7-9.5-16.4&#10;&#9;&#9;&#9;&#9;c-3.2-5.7-6.6-11.6-9.9-17.7c-3.4-6-6.8-12.2-10.2-18.3c-6.9-12.2-13.7-24.5-20.2-35.9c-6.4-11.5-12.4-22.2-17.5-31.4&#10;&#9;&#9;&#9;&#9;c-10.2-18.4-17.1-30.6-17.1-30.6L91.7,406.2z" style="fill: rgb(255, 255, 255);"/>
		</g>
		<g>
			<path class="st14" d="M220.7,162.1c0,0,9.1,14.5,22.7,36.2c6.8,10.9,14.7,23.5,23.3,37.1c8.5,13.6,17.5,28.1,26.6,42.6&#10;&#9;&#9;&#9;&#9;c9.1,14.5,18.2,28.9,26.6,42.6c4.1,6.9,8.2,13.4,12,19.8c3.8,6.3,7.3,12.3,10.6,17.8c3.3,5.5,6.2,10.6,8.8,15.1&#10;&#9;&#9;&#9;&#9;c2.6,4.5,4.9,8.4,6.7,11.7c3.7,6.5,5.8,10.2,5.8,10.2l-0.3,0.2c0,0-2.4-3.5-6.5-9.8c-2.1-3.1-4.6-6.9-7.4-11.3&#10;&#9;&#9;&#9;&#9;c-2.8-4.4-6.1-9.3-9.5-14.7c-3.5-5.4-7.2-11.3-11.1-17.5c-3.9-6.2-8-12.8-12.2-19.6c-8.3-13.7-17.1-28.4-25.9-43&#10;&#9;&#9;&#9;&#9;c-8.8-14.6-17.7-29.3-25.9-43c-8.3-13.7-16-26.6-22.6-37.5c-13.2-22-22-36.7-22-36.7L220.7,162.1z" style="fill: rgb(255, 255, 255);"/>
		</g>
		<g>
			<path class="st14" d="M371.2,357.8c0,0,5.2,8.5,13,21.3c3.9,6.4,8.5,13.8,13.3,21.9c4.9,8,10,16.5,15.2,25.1&#10;&#9;&#9;&#9;&#9;c2.6,4.3,5.2,8.5,7.8,12.7c2.6,4.2,5.1,8.3,7.5,12.3c2.3,4.1,4.6,7.9,6.7,11.7c2.1,3.7,4.1,7.3,5.9,10.6&#10;&#9;&#9;&#9;&#9;c7.2,13.1,11.6,22.1,11.6,22.1l-0.3,0.2c0,0-5.7-8.2-13.7-20.9c-2-3.2-4.1-6.6-6.4-10.3c-2.3-3.6-4.5-7.6-7-11.6&#10;&#9;&#9;&#9;&#9;c-2.3-4.1-4.8-8.2-7.2-12.5c-2.4-4.3-4.9-8.6-7.3-13c-4.9-8.7-9.9-17.4-14.5-25.5c-4.7-8.1-8.9-15.7-12.6-22.3&#10;&#9;&#9;&#9;&#9;c-7.4-13-12.3-21.7-12.3-21.7L371.2,357.8z" style="fill: rgb(255, 255, 255);"/>
		</g>
		<g>
			<path class="st14" d="M436.5,282c0,0,6.3,10.4,15.8,26.1c4.7,7.8,10.3,17,16.2,26.7c5.9,9.8,12.2,20.2,18.5,30.7&#10;&#9;&#9;&#9;&#9;c3.2,5.2,6.3,10.4,9.4,15.6c3.1,5.1,6.2,10.2,9.1,15.1c2.9,5,5.7,9.7,8.2,14.3c2.6,4.6,5,8.9,7.2,12.9&#10;&#9;&#9;&#9;&#9;c8.9,16,14.4,26.9,14.4,26.9l-0.3,0.2c0,0-6.9-10.1-16.5-25.7c-2.4-3.9-5-8.1-7.7-12.6c-2.7-4.5-5.5-9.2-8.5-14.1&#10;&#9;&#9;&#9;&#9;c-2.9-5-5.8-10.1-8.8-15.3c-3-5.2-6-10.5-9-15.8c-6.1-10.6-12.1-21.2-17.8-31.1c-5.7-9.9-11-19.2-15.5-27.2&#10;&#9;&#9;&#9;&#9;c-9-15.9-15.1-26.5-15.1-26.5L436.5,282z" style="fill: rgb(255, 255, 255);"/>
		</g>
		<g>
			<path class="st14" d="M444.7,242.4c0,0,7.6,12.5,18.9,31.3c5.7,9.4,12.3,20.3,19.3,32.1c7,11.7,14.6,24.3,22.1,36.8&#10;&#9;&#9;&#9;&#9;c3.8,6.3,7.5,12.5,11.3,18.7c3.7,6.1,7.3,12.2,10.9,18.1c3.4,5.9,6.8,11.6,9.9,17.1c3.1,5.4,6,10.6,8.7,15.4&#10;&#9;&#9;&#9;&#9;c10.7,19.1,17.4,32.1,17.4,32.1l-0.3,0.2c0,0-8.1-12.2-19.6-30.9c-2.9-4.7-6-9.7-9.2-15.1c-3.3-5.4-6.6-11.1-10.1-17&#10;&#9;&#9;&#9;&#9;c-3.4-5.9-7-12-10.5-18.3c-3.6-6.2-7.2-12.6-10.8-18.9c-7.3-12.7-14.6-25.3-21.4-37.2c-6.8-11.9-13.2-23-18.6-32.5&#10;&#9;&#9;&#9;&#9;c-10.9-19-18.1-31.7-18.1-31.7L444.7,242.4z" style="fill: rgb(255, 255, 255);"/>
		</g>
		<g>
			<path class="st14" d="M334.2,438c0,0,5.8,9.4,14.4,23.6c4.3,7.1,9.4,15.3,14.7,24.2c5.4,8.9,11.1,18.3,16.8,27.8&#10;&#9;&#9;&#9;&#9;c2.9,4.7,5.7,9.5,8.6,14.1c2.9,4.6,5.6,9.2,8.3,13.7c2.6,4.5,5.1,8.8,7.5,13c2.3,4.1,4.5,8.1,6.5,11.7&#10;&#9;&#9;&#9;&#9;c8,14.5,12.9,24.5,12.9,24.5l-0.3,0.2c0,0-6.3-9.1-15.1-23.2c-2.2-3.5-4.6-7.3-7-11.4c-2.5-4-5-8.4-7.7-12.8&#10;&#9;&#9;&#9;&#9;c-2.6-4.5-5.3-9.1-7.9-13.9c-2.7-4.7-5.4-9.5-8.2-14.4c-5.5-9.6-11-19.2-16.1-28.2c-5.2-9-9.9-17.4-14-24.6&#10;&#9;&#9;&#9;&#9;c-8.2-14.4-13.6-24.1-13.6-24.1L334.2,438z" style="fill: rgb(255, 255, 255);"/>
		</g>
		<g>
			<path class="st14" d="M269.1,441.8c0,0,8.8,14.3,22,35.6c6.6,10.7,14.3,23.2,22.5,36.5c8.2,13.4,17,27.7,25.8,41.9&#10;&#9;&#9;&#9;&#9;c8.8,14.3,17.6,28.5,25.8,41.9c4,6.7,8,13.2,11.6,19.5c3.7,6.2,7.1,12.1,10.2,17.5c3.2,5.4,6,10.5,8.5,14.9&#10;&#9;&#9;&#9;&#9;c2.5,4.4,4.7,8.3,6.5,11.5c3.6,6.4,5.6,10.1,5.6,10.1l-0.3,0.2c0,0-2.3-3.5-6.3-9.6c-2-3.1-4.4-6.8-7.2-11.1&#10;&#9;&#9;&#9;&#9;c-2.7-4.3-5.9-9.1-9.2-14.5c-3.4-5.3-7-11.1-10.7-17.2c-3.8-6.1-7.7-12.6-11.8-19.3c-8.1-13.5-16.6-27.9-25.1-42.4&#10;&#9;&#9;&#9;&#9;c-8.5-14.4-17.1-28.8-25.1-42.3c-8-13.5-15.5-26.1-21.8-37c-12.8-21.7-21.3-36.1-21.3-36.1L269.1,441.8z" style="fill: rgb(255, 255, 255);"/>
		</g>
		<g>
			<path class="st14" d="M432.4,158.9c0,0,3.5,5.6,8.8,14c5.3,8.4,12.2,19.7,19.1,30.9c1.7,2.8,3.5,5.6,5.2,8.4&#10;&#9;&#9;&#9;&#9;c1.7,2.8,3.4,5.5,5,8.1c1.6,2.7,3.1,5.3,4.4,7.8c1.4,2.5,2.7,4.9,3.8,7.1c1.2,2.2,2.2,4.2,3.1,6c0.9,1.8,1.7,3.4,2.3,4.7&#10;&#9;&#9;&#9;&#9;c1.3,2.6,1.9,4.1,1.9,4.1l-0.3,0.2c0,0-1-1.3-2.7-3.7c-0.8-1.2-1.8-2.6-3-4.3c-1.1-1.7-2.4-3.6-3.8-5.6c-1.4-2.1-2.8-4.3-4.3-6.8&#10;&#9;&#9;&#9;&#9;c-1.5-2.4-3.1-5-4.6-7.6c-1.6-2.7-3.1-5.5-4.7-8.3c-1.6-2.8-3.2-5.7-4.8-8.6c-6.5-11.5-13-23-17.8-31.7c-4.8-8.7-8-14.5-8-14.5&#10;&#9;&#9;&#9;&#9;L432.4,158.9z" style="fill: rgb(255, 255, 255);"/>
		</g>
		<g>
			<path class="st14" d="M1194.7,222.7c0,0,5.1,8.3,12.7,20.7c3.8,6.2,8.2,13.4,12.9,21.2c4.7,7.8,9.7,16.1,14.8,24.4&#10;&#9;&#9;&#9;&#9;c2.5,4.1,5.1,8.3,7.5,12.3c2.5,4.1,4.9,8.1,7.3,12c2.3,3.9,4.5,7.7,6.5,11.4c2,3.6,4,7.1,5.7,10.3c7,12.8,11.2,21.5,11.2,21.5&#10;&#9;&#9;&#9;&#9;l-0.3,0.2c0,0-5.6-8-13.3-20.3c-1.9-3.1-4-6.4-6.2-10c-2.2-3.5-4.4-7.3-6.8-11.2c-2.3-3.9-4.6-8-6.9-12.2&#10;&#9;&#9;&#9;&#9;c-2.3-4.2-4.7-8.4-7.1-12.6c-4.8-8.4-9.6-16.8-14.1-24.7c-4.5-7.9-8.7-15.3-12.2-21.6c-7.1-12.7-11.9-21.1-11.9-21.1&#10;&#9;&#9;&#9;&#9;L1194.7,222.7z" style="fill: rgb(255, 255, 255);"/>
		</g>
		<g>
			<path class="st14" d="M1241,162.6c0,0,7.9,13,19.6,32.5c5.9,9.8,12.7,21.1,20.1,33.4c7.3,12.2,15.1,25.2,23,38.3&#10;&#9;&#9;&#9;&#9;c3.9,6.5,7.8,13,11.7,19.4c3.9,6.4,7.6,12.7,11.3,18.8c3.6,6.2,7.1,12.1,10.3,17.8c3.2,5.7,6.3,11,9.1,16&#10;&#9;&#9;&#9;&#9;c11.2,19.9,18.2,33.4,18.2,33.4l-0.3,0.2c0,0-8.4-12.7-20.3-32.1c-3-4.8-6.2-10.1-9.6-15.7c-3.4-5.6-6.9-11.5-10.5-17.6&#10;&#9;&#9;&#9;&#9;c-3.6-6.2-7.3-12.5-11-19c-3.7-6.5-7.5-13.1-11.3-19.7c-7.6-13.2-15.2-26.3-22.3-38.7c-7.1-12.4-13.7-23.9-19.4-33.8&#10;&#9;&#9;&#9;&#9;c-11.3-19.8-18.9-33-18.9-33L1241,162.6z" style="fill: rgb(255, 255, 255);"/>
		</g>
		<g>
			<path class="st14" d="M1273.8,161.1c0,0,7,11.5,17.4,28.7c5.2,8.6,11.3,18.7,17.8,29.4c6.5,10.8,13.4,22.3,20.3,33.8&#10;&#9;&#9;&#9;&#9;c3.5,5.7,6.9,11.5,10.4,17.1c3.4,5.6,6.8,11.2,10,16.6c3.1,5.4,6.2,10.7,9.1,15.7c2.9,5,5.5,9.8,8,14.2&#10;&#9;&#9;&#9;&#9;c9.8,17.6,15.9,29.5,15.9,29.5l-0.3,0.2c0,0-7.5-11.2-18.1-28.3c-2.7-4.3-5.5-8.9-8.5-13.9c-3-4.9-6.1-10.2-9.3-15.6&#10;&#9;&#9;&#9;&#9;c-3.1-5.4-6.4-11.1-9.7-16.8c-3.3-5.7-6.6-11.6-9.9-17.4c-6.7-11.6-13.4-23.3-19.6-34.2c-6.2-10.9-12.1-21.1-17.1-29.8&#10;&#9;&#9;&#9;&#9;c-10-17.5-16.6-29.1-16.6-29.1L1273.8,161.1z" style="fill: rgb(255, 255, 255);"/>
		</g>
		<g>
			<path class="st14" d="M1317.3,161.1c0,0,4.4,7.1,10.9,17.6c6.5,10.6,15.1,24.7,23.8,38.9c2.2,3.5,4.3,7.1,6.5,10.5&#10;&#9;&#9;&#9;&#9;c2.2,3.5,4.2,6.9,6.2,10.2c2,3.3,3.8,6.6,5.6,9.7c1.7,3.1,3.4,6.1,4.8,8.8c1.5,2.7,2.8,5.3,4,7.5c1.2,2.2,2.2,4.2,3,5.8&#10;&#9;&#9;&#9;&#9;c1.6,3.3,2.5,5.1,2.5,5.1l-0.3,0.2c0,0-1.2-1.7-3.3-4.7c-1-1.5-2.3-3.3-3.7-5.4c-1.4-2.1-3-4.5-4.6-7.1c-1.7-2.6-3.5-5.5-5.3-8.5&#10;&#9;&#9;&#9;&#9;c-1.9-3-3.8-6.2-5.8-9.6c-2-3.4-3.9-6.9-5.9-10.4c-2-3.6-4-7.2-6.1-10.8c-8.2-14.4-16.4-28.8-22.4-39.7&#10;&#9;&#9;&#9;&#9;c-6.1-10.9-10.1-18.1-10.1-18.1L1317.3,161.1z" style="fill: rgb(255, 255, 255);"/>
		</g>
	</g>
</svg>