<?xml version="1.0" encoding="utf-8"?>
<svg id="master-artboard" viewBox="0 0 1400 980" version="1.1" xmlns="http://www.w3.org/2000/svg" x="0px" y="0px" style="enable-background:new 0 0 1400 980;" width="1400px" height="980px" xmlns:xlink="http://www.w3.org/1999/xlink">

<defs>
		<path d="M 0 0 H 1400 V 982 H 0 V 0 Z" id="SVGID_1_"/>
	</defs><clipPath id="SVGID_2_">
		<use style="overflow:visible;" xlink:href="#SVGID_1_"/>
	</clipPath><linearGradient id="SVGID_3_" gradientUnits="userSpaceOnUse" x1="1042.4844" y1="-182.1633" x2="357.5157" y2="1162.1633" gradientTransform="matrix(-1 0 0 1 1400 0)" style="clip-path: url('#SVGID_2_');">
			<stop offset="0" style="stop-color:#D9CFE0"/>
			<stop offset="0.2024" style="stop-color:#D3D6E1"/>
			<stop offset="0.6909" style="stop-color:#C7E3E3"/>
		</linearGradient><path d="M 0 0 H 1400 V 980 H 0 V 0 Z" class="st1" style="opacity: 0.7; fill: url('#SVGID_3_'); clip-path: url('#SVGID_2_');" transform="matrix(1, 0, 0, 1, 5.684341886080802e-14, 1.4210854715202004e-14)"/><linearGradient id="SVGID_4_" gradientUnits="userSpaceOnUse" x1="-1" y1="714.1792" x2="418.3604" y2="714.1792" style="clip-path: url('#SVGID_2_');">
			<stop offset="0" style="stop-color:#C7D3A1"/>
			<stop offset="0.3689" style="stop-color:#D1D9A7"/>
			<stop offset="1" style="stop-color:#DEE2AF"/>
		</linearGradient><path class="st2" d="M-1,530.1c0,0,256-127.3,396,199.3S0,870,0,870L-1,530.1z" style="fill: url('#SVGID_4_'); clip-path: url('#SVGID_2_');" transform="matrix(1, 0, 0, 1, 5.684341886080802e-14, 1.4210854715202004e-14)"/><linearGradient id="SVGID_5_" gradientUnits="userSpaceOnUse" x1="-987" y1="682.1792" x2="-477.7276" y2="682.1792" gradientTransform="matrix(-1 0 0 1 417.3604 0)" style="clip-path: url('#SVGID_2_');">
			<stop offset="0" style="stop-color:#DEE2AF"/>
			<stop offset="0.6242" style="stop-color:#C7D3A1"/>
		</linearGradient><path class="st3" d="M1404.4,498.1c0,0-310.9-127.3-480.9,199.3S1403.1,838,1403.1,838L1404.4,498.1z" style="fill: url('#SVGID_5_'); clip-path: url('#SVGID_2_');" transform="matrix(1, 0, 0, 1, 5.684341886080802e-14, 1.4210854715202004e-14)"/><linearGradient id="SVGID_6_" gradientUnits="userSpaceOnUse" x1="154.9922" y1="655.196" x2="1006.1143" y2="655.196" style="clip-path: url('#SVGID_2_');">
			<stop offset="0" style="stop-color:#C7D3A1"/>
			<stop offset="0.3689" style="stop-color:#D1D9A7"/>
			<stop offset="1" style="stop-color:#DEE2AF"/>
		</linearGradient><path class="st4" d="M155,773.4c0,0,274.8-242.8,460.3-236.4c185.4,6.5,335,135.4,390.8,218.2" style="fill: url('#SVGID_6_'); clip-path: url('#SVGID_2_');" transform="matrix(1, 0, 0, 1, 5.684341886080802e-14, 1.4210854715202004e-14)"/><linearGradient id="SVGID_7_" gradientUnits="userSpaceOnUse" x1="786.7087" y1="559.2126" x2="630.6294" y2="1141.7087" style="clip-path: url('#SVGID_2_');">
			<stop offset="0" style="stop-color:#C9DB80"/>
			<stop offset="6.739486e-03" style="stop-color:#CADB92"/>
			<stop offset="1.635738e-02" style="stop-color:#CADBA6"/>
			<stop offset="2.616454e-02" style="stop-color:#CBDBB1"/>
			<stop offset="3.636360e-02" style="stop-color:#CBDBB5"/>
			<stop offset="1" style="stop-color:#FEE8D4"/>
		</linearGradient><path class="st5" d="M1401,973H1V785.2c0,0,714.3-73.9,963.4-86.9c242-12.6,436.6,25.5,436.6,25.5V973z" style="fill: url('#SVGID_7_'); clip-path: url('#SVGID_2_');" transform="matrix(1, 0, 0, 1, 5.684341886080802e-14, 1.4210854715202004e-14)"/><linearGradient id="SVGID_8_" gradientUnits="userSpaceOnUse" x1="-426.1671" y1="419.0917" x2="673.145" y2="1160.587" style="clip-path: url('#SVGID_2_');">
				<stop offset="0" style="stop-color:#D1B8A3"/>
				<stop offset="1" style="stop-color:#FEE8D4"/>
			</linearGradient><path class="st6" d="M368.4,791.6C264.3,746.9,138,716.8,0,707.3V870C106,831,231.5,803.5,368.4,791.6z" style="fill: url('#SVGID_8_'); clip-path: url('#SVGID_2_');" transform="matrix(1, 0, 0, 1, 8.526512829121202e-14, 2.1316282072803006e-14)"/><linearGradient id="SVGID_9_" gradientUnits="userSpaceOnUse" x1="-448.3792" y1="452.0241" x2="650.9366" y2="1193.522" style="clip-path: url('#SVGID_2_');">
				<stop offset="0" style="stop-color:#D1B8A3"/>
				<stop offset="1" style="stop-color:#FEE8D4"/>
			</linearGradient><path class="st7" d="M368.4,791.6C231.5,803.5,106,831,0,870v112h615.3C568.1,906.1,481.3,840.2,368.4,791.6z" style="fill: url('#SVGID_9_'); clip-path: url('#SVGID_2_');" transform="matrix(1, 0, 0, 1, 8.526512829121202e-14, 2.1316282072803006e-14)"/><linearGradient id="SVGID_10_" gradientUnits="userSpaceOnUse" x1="-31.3254" y1="548.7788" x2="1896.0449" y2="1848.8065" style="clip-path: url('#SVGID_2_');">
				<stop offset="0" style="stop-color:#D1C7A3"/>
				<stop offset="1" style="stop-color:#FEE8D4"/>
			</linearGradient><path class="st8" d="M523,785c-52.8,0-104.4,2.3-154.6,6.6C231.5,803.5,106,831,0,870v112h615.3h333.4&#10;&#9;&#9;&#9;&#9;c31-38.2,71.6-73.1,119.8-103.5C920.2,820.1,730.2,785,523,785z" style="fill: url('#SVGID_10_'); clip-path: url('#SVGID_2_');" transform="matrix(1, 0, 0, 1, 8.526512829121202e-14, 2.1316282072803006e-14)"/><linearGradient id="SVGID_11_" gradientUnits="userSpaceOnUse" x1="1111.4398" y1="738.1025" x2="2120.2566" y2="1418.5581" style="clip-path: url('#SVGID_2_');">
				<stop offset="0" style="stop-color:#D1B8A3"/>
				<stop offset="1" style="stop-color:#FEE8D4"/>
			</linearGradient><path class="st9" d="M1256.3,982H1400V763.3c-128.6,18.7-243,59.4-331.5,115.2C1142.5,907.7,1206.1,942.7,1256.3,982z" style="fill: url('#SVGID_11_'); clip-path: url('#SVGID_2_');" transform="matrix(1, 0, 0, 1, 8.526512829121202e-14, 2.1316282072803006e-14)"/><linearGradient id="SVGID_12_" gradientUnits="userSpaceOnUse" x1="183.588" y1="361.3587" x2="1423.0848" y2="1197.4098" style="clip-path: url('#SVGID_2_');">
				<stop offset="0" style="stop-color:#D1B8A3"/>
				<stop offset="1" style="stop-color:#FEE8D4"/>
			</linearGradient><path class="st10" d="M948.7,982h307.6c-50.1-39.3-113.8-74.3-187.8-103.5C1020.2,908.9,979.7,943.8,948.7,982z" style="fill: url('#SVGID_12_'); clip-path: url('#SVGID_2_');" transform="matrix(1, 0, 0, 1, 8.526512829121202e-14, 2.1316282072803006e-14)"/><linearGradient id="SVGID_13_" gradientUnits="userSpaceOnUse" x1="995.9592" y1="909.3099" x2="2004.7754" y2="1589.765" style="clip-path: url('#SVGID_2_');">
				<stop offset="0" style="stop-color:#D1B8A3"/>
				<stop offset="1" style="stop-color:#FEE8D4"/>
			</linearGradient><path class="st11" d="M948.7,982h307.6c-50.1-39.3-113.8-74.3-187.8-103.5C1020.2,908.9,979.7,943.8,948.7,982z" style="fill: url('#SVGID_13_'); clip-path: url('#SVGID_2_');" transform="matrix(1, 0, 0, 1, 8.526512829121202e-14, 2.1316282072803006e-14)"/><g transform="matrix(1, 0, 0, 1, 8.526512829121202e-14, 2.1316282072803006e-14)" style="clip-path: url('#SVGID_2_');">
				<g>
					<g>
						<path class="st12" d="M828,931.7c0,5.8-7,7.8-11,7.8v1.5c-4,0-10-3.5-10-9.3V597.1c0-5.8,6.2-10.5,10.5-10.5l0,0&#10;&#9;&#9;&#9;&#9;&#9;&#9;&#9;c4.3,0,10.5,4.7,10.5,10.5V931.7z" style="fill: rgb(178, 139, 119);"/>
					</g>
					<path class="st13" d="M811.2,601.4c0-12.6-22.8-26.1-65.5-30.4c-42.7-4.3-56.2-5.2-75.1-17.4" style="fill: none; stroke: rgb(81, 57, 51); stroke-width: 8; stroke-miterlimit: 10;"/>
					<path class="st13" d="M824.4,600.5c0-12.6,22.8-26.1,65.5-30.4c42.7-4.3,22-25.2,40.9-37.4" style="fill: none; stroke: rgb(81, 57, 51); stroke-width: 8; stroke-miterlimit: 10;"/>
					<path class="st13" d="M816.9,604.8c0,0,6.9-36.3-38.5-63.4c-14.5-8.7-18.5-24.3-18.5-24.3" style="fill: none; stroke: rgb(81, 57, 51); stroke-width: 8; stroke-miterlimit: 10;"/>
					<path class="st13" d="M817.3,599.5c0,0,13.9-41.5,29.5-45.9c15.7-4.3,22.8-21.7,22.8-31.3" style="fill: none; stroke: rgb(81, 57, 51); stroke-width: 8; stroke-miterlimit: 10;"/>
				</g>
				<g>
					
						<linearGradient id="SVGID_14_" gradientUnits="userSpaceOnUse" x1="793.7496" y1="437.499" x2="1053.8423" y2="437.499" gradientTransform="matrix(0.9963 8.600000e-02 -8.600000e-02 0.9963 35.4941 -59.4489)">
						<stop offset="0" style="stop-color:#F38A8C"/>
						<stop offset="0.2114" style="stop-color:#F38E8E"/>
						<stop offset="0.4403" style="stop-color:#F49B94"/>
						<stop offset="0.6774" style="stop-color:#F5B19F"/>
						<stop offset="0.9186" style="stop-color:#F6CFAD"/>
						<stop offset="1" style="stop-color:#F7DBB3"/>
					</linearGradient>
					<path class="st14" d="M1049.8,443.9c2.4-27.6-19.3-52.1-48.3-54.6c-2.2-0.2-4.3-0.2-6.4-0.2c-10.9-16.6-36.5-29.6-67.3-32.3&#10;&#9;&#9;&#9;&#9;&#9;&#9;c-33.5-2.9-63,7.4-75.1,24.2c-35.7,9-61.1,29.7-63.3,55.9c-0.8,9.4,1.4,18.6,6.2,27.2c-5.9,5.3-9.6,11.9-10.2,19.2&#10;&#9;&#9;&#9;&#9;&#9;&#9;c-1.8,21.1,22.5,40.4,54.4,43.1c11.4,1,22.2-0.3,31.5-3.3c4.9,16.9,24.3,30.7,48.6,32.8c25.1,2.2,47.2-8.9,54.2-25.6&#10;&#9;&#9;&#9;&#9;&#9;&#9;c3.2,1,6.6,1.7,10.1,2c21,1.8,39.3-10.8,40.8-28.2c0.6-6.9-1.5-13.5-5.6-19C1036,477.9,1048.2,462.6,1049.8,443.9z" style="fill: url('#SVGID_14_');"/>
					
						<linearGradient id="SVGID_15_" gradientUnits="userSpaceOnUse" x1="577.0881" y1="469.4457" x2="842.467" y2="469.4457" gradientTransform="matrix(0.9963 8.600000e-02 -8.600000e-02 0.9963 35.4941 -59.4489)">
						<stop offset="0" style="stop-color:#F38A8C"/>
						<stop offset="0.2114" style="stop-color:#F38E8E"/>
						<stop offset="0.4403" style="stop-color:#F49B94"/>
						<stop offset="0.6774" style="stop-color:#F5B19F"/>
						<stop offset="0.9186" style="stop-color:#F6CFAD"/>
						<stop offset="1" style="stop-color:#F7DBB3"/>
					</linearGradient>
					<path class="st15" d="M569.4,468.4c-5.1,27.3,13.9,53.8,42.6,59.2c2.1,0.4,4.3,0.7,6.4,0.8c9.2,17.6,33.4,33.1,63.7,38.9&#10;&#9;&#9;&#9;&#9;&#9;&#9;c33,6.2,63.4-1,77.1-16.5c36.4-5.4,63.7-23.5,68.6-49.2c1.7-9.3,0.4-18.6-3.4-27.7c6.4-4.7,10.7-10.9,12.1-18.1&#10;&#9;&#9;&#9;&#9;&#9;&#9;c3.9-20.8-18.4-42.4-49.8-48.3c-11.3-2.1-22.1-1.9-31.7,0.1c-3.2-17.3-21.1-33-45-37.5c-24.7-4.7-47.8,4.1-56.5,20.1&#10;&#9;&#9;&#9;&#9;&#9;&#9;c-3.1-1.3-6.4-2.4-9.9-3c-20.8-3.9-40.2,6.8-43.4,23.9c-1.3,6.8,0.2,13.5,3.7,19.5C586.6,435.9,572.9,450,569.4,468.4z" style="fill: url('#SVGID_15_');"/>
					
						<linearGradient id="SVGID_16_" gradientUnits="userSpaceOnUse" x1="723.4014" y1="338.4653" x2="978.3413" y2="338.4653" gradientTransform="matrix(0.9963 8.600000e-02 -8.600000e-02 0.9963 35.4941 -59.4489)">
						<stop offset="0" style="stop-color:#F38A8C"/>
						<stop offset="0.2114" style="stop-color:#F38E8E"/>
						<stop offset="0.4403" style="stop-color:#F49B94"/>
						<stop offset="0.6774" style="stop-color:#F5B19F"/>
						<stop offset="0.9186" style="stop-color:#F6CFAD"/>
						<stop offset="1" style="stop-color:#F7DBB3"/>
					</linearGradient>
					<path class="st16" d="M979.8,376.7c1-11.7-6-22.9-17.8-30.9c0.8-2.7,1.3-5.6,1.5-8.5c2.1-24.3-14.9-45.6-37.9-47.6&#10;&#9;&#9;&#9;&#9;&#9;&#9;c-7.1-0.6-13.9,0.7-20,3.5c-2.3-18.8-21.2-34.6-45.3-36.7c-22.6-2-42.7,8.7-49.7,24.9c-4.8-1.5-9.9-2.5-15.2-3&#10;&#9;&#9;&#9;&#9;&#9;&#9;c-34.5-3-64.6,19.1-67.2,49.3c-1.9,22,11.3,42.2,31.8,52.7c-2.7,4.4-4.4,9.3-4.9,14.6c-2,23.2,21,44.1,51.4,46.8&#10;&#9;&#9;&#9;&#9;&#9;&#9;c12.7,1.1,24.6-1.2,34.4-5.9c10.4,6.4,23.7,10.9,38.6,12.1c35.4,3.1,65.8-13.1,67.8-36.2c0.1-1.5,0.1-2.9,0-4.4&#10;&#9;&#9;&#9;&#9;&#9;&#9;C965.5,402.7,978.6,391.2,979.8,376.7z" style="fill: url('#SVGID_16_');"/>
					
						<linearGradient id="SVGID_17_" gradientUnits="userSpaceOnUse" x1="570.6338" y1="314.5113" x2="796.3564" y2="369.1419" gradientTransform="matrix(1.0672 8.280000e-02 -0.1002 1.0525 9.8353 -75.487)">
						<stop offset="0" style="stop-color:#F38A8C"/>
						<stop offset="0.2114" style="stop-color:#F38E8E"/>
						<stop offset="0.4403" style="stop-color:#F49B94"/>
						<stop offset="0.6774" style="stop-color:#F5B19F"/>
						<stop offset="0.9186" style="stop-color:#F6CFAD"/>
						<stop offset="1" style="stop-color:#F7DBB3"/>
					</linearGradient>
					<path class="st17" d="M570.4,383.6c4.7,11.5,16.9,18.5,32,20.1c0.6,2.9,1.5,5.8,2.7,8.7c9.8,23.7,36.3,35.2,59.3,25.7&#10;&#9;&#9;&#9;&#9;&#9;&#9;c7.1-2.9,12.9-7.5,17.5-13.1c11.3,16.4,37,21.9,61.1,11.9c22.6-9.3,36.6-29.2,35.4-47.8c5.3-1,10.7-2.5,16-4.7&#10;&#9;&#9;&#9;&#9;&#9;&#9;c34.4-14.2,52.5-49.7,40.3-79.2c-8.9-21.4-31.2-33.8-56-33.5c0.4-5.5-0.3-10.9-2.4-16c-9.4-22.7-41.5-30.9-71.8-18.3&#10;&#9;&#9;&#9;&#9;&#9;&#9;c-12.6,5.2-22.9,13.2-30,22.4c-13-0.9-28,1.5-42.7,7.6c-35.4,14.6-56.5,44.7-47.2,67.2c0.6,1.4,1.3,2.8,2.1,4.1&#10;&#9;&#9;&#9;&#9;&#9;&#9;C571.4,352.3,564.5,369.5,570.4,383.6z" style="fill: url('#SVGID_17_');"/>
					
						<linearGradient id="SVGID_18_" gradientUnits="userSpaceOnUse" x1="759.786" y1="477.2536" x2="905.8796" y2="477.2536" gradientTransform="matrix(0.9963 8.600000e-02 -8.600000e-02 0.9963 35.4941 -59.4489)">
						<stop offset="0" style="stop-color:#F38A8C"/>
						<stop offset="0.2114" style="stop-color:#F38E8E"/>
						<stop offset="0.4403" style="stop-color:#F49B94"/>
						<stop offset="0.6774" style="stop-color:#F5B19F"/>
						<stop offset="0.9186" style="stop-color:#F6CFAD"/>
						<stop offset="1" style="stop-color:#F7DBB3"/>
					</linearGradient>
					<path class="st18" d="M896.3,502.3c1.5-17-10.8-31.9-27.4-33.4c-0.3,0-0.6,0-0.9-0.1c0.8-2.3,1.3-4.8,1.5-7.3&#10;&#9;&#9;&#9;&#9;&#9;&#9;c1.8-21.1-16.9-39.9-41.8-42c-24.9-2.1-46.5,13.2-48.4,34.3c0,0.4,0,0.8-0.1,1.2c-15.7,6.3-27.5,21.3-29,39.7&#10;&#9;&#9;&#9;&#9;&#9;&#9;c-2.2,25.7,16.3,48.4,41.4,50.5c7.2,0.6,14.2-0.5,20.5-3.1c3.9,8,12.9,14.1,23.7,15c15.4,1.3,28.7-8.1,29.9-21&#10;&#9;&#9;&#9;&#9;&#9;&#9;c0.2-1.9,0.1-3.7-0.3-5.5C881.3,530.9,894.8,518.6,896.3,502.3z" style="fill: url('#SVGID_18_');"/>
				</g>
			</g><path class="st12" d="M815.4,759c-12.7-15.5-25.9-31-42.6-42.4c-4.7-3.2-9,4.4-4.4,7.5c16,10.9,28.6,26.2,40.8,41&#10;&#9;&#9;&#9;&#9;&#9;C812.8,769.5,818.9,763.3,815.4,759z" style="fill: rgb(178, 139, 119); clip-path: url('#SVGID_2_');" transform="matrix(1, 0, 0, 1, 1.1368683772161603e-13, 2.842170943040401e-14)"/><path class="st12" d="M840.5,826.7c-9.3,8.5-15.9,19.4-23.3,29.5c-3.3,4.5,4.3,8.9,7.5,4.4c6.9-9.6,13.2-19.7,21.9-27.8&#10;&#9;&#9;&#9;&#9;&#9;C850.8,829.1,844.6,823,840.5,826.7z" style="fill: rgb(178, 139, 119); clip-path: url('#SVGID_2_');" transform="matrix(1, 0, 0, 1, 1.1368683772161603e-13, 2.842170943040401e-14)"/><g transform="matrix(1, 0, 0, 1, 8.526512829121202e-14, 2.1316282072803006e-14)" style="clip-path: url('#SVGID_2_');">
				<g>
					<g>
						<path class="st12" d="M1128,909.5c0,4.7-3.8,7.5-8.5,7.5l0,0c-4.7,0-8.5-2.8-8.5-7.5V639.7c0-4.7,3.8-8.5,8.5-8.5l0,0&#10;&#9;&#9;&#9;&#9;&#9;&#9;&#9;c4.7,0,8.5,3.8,8.5,8.5V909.5z" style="fill: rgb(178, 139, 119);"/>
					</g>
					<g>
						<g>
							<path class="st12" d="M1130,649h-8c0-16,24.5-29.9,62.5-34.1c36.4-4.1,52.1-11.6,64.6-31.1l6.7,4.4&#10;&#9;&#9;&#9;&#9;&#9;&#9;&#9;&#9;c-13.9,21.7-31.7,30.2-70.5,34.6C1149,626.9,1130,639,1130,649z" style="fill: rgb(178, 139, 119);"/>
						</g>
						<g>
							<path class="st12" d="M1118.1,649h-8c0-10-19-22.5-55.4-26.6c-24.6-2.8-28.6-12.3-31.2-24.2c-1.2-5.5-2.2-10.2-7.5-14&#10;&#9;&#9;&#9;&#9;&#9;&#9;&#9;&#9;l4.7-6.5c7.7,5.5,9.3,12.5,10.6,18.7c1.9,8.7,3.4,15.7,24.3,18.1C1093.6,618.7,1118.1,632,1118.1,649z" style="fill: rgb(178, 139, 119);"/>
						</g>
						<g>
							<path class="st12" d="M1116.9,653.6c-0.3-1.6-6.2-39.2,36.3-67.4c11.6-7.7,14.9-21.7,15-21.9l7.8,1.8&#10;&#9;&#9;&#9;&#9;&#9;&#9;&#9;&#9;c-0.2,0.7-4.1,17.3-18.3,26.8c-38,25.2-33.1,58-32.9,59.4L1116.9,653.6z" style="fill: rgb(178, 139, 119);"/>
						</g>
						<g>
							<path class="st12" d="M1116.7,648.7c-4.6-15.3-15.1-40.7-23.9-43.4c-15.9-4.9-23.3-23.3-23.3-35.3h8c0,8,5.3,23.9,17.7,27.7&#10;&#9;&#9;&#9;&#9;&#9;&#9;&#9;&#9;c15.4,4.7,27,41.4,29.2,48.6L1116.7,648.7z" style="fill: rgb(178, 139, 119);"/>
						</g>
					</g>
				</g>
				<g>
					
						<linearGradient id="SVGID_19_" gradientUnits="userSpaceOnUse" x1="1141.2722" y1="507.0499" x2="1349.2095" y2="507.0499" gradientTransform="matrix(0.9963 8.600000e-02 -8.600000e-02 0.9963 35.4941 -59.4489)">
						<stop offset="0" style="stop-color:#F38A8C"/>
						<stop offset="0.2114" style="stop-color:#F38E8E"/>
						<stop offset="0.4403" style="stop-color:#F49B94"/>
						<stop offset="0.6774" style="stop-color:#F5B19F"/>
						<stop offset="0.9186" style="stop-color:#F6CFAD"/>
						<stop offset="1" style="stop-color:#F7DBB3"/>
					</linearGradient>
					<path class="st19" d="M1337.7,543.2c1.9-22.1-15.4-41.6-38.6-43.7c-1.7-0.2-3.4-0.2-5.1-0.1c-8.7-13.3-29.2-23.7-53.8-25.8&#10;&#9;&#9;&#9;&#9;&#9;&#9;c-26.8-2.3-50.4,5.9-60,19.4c-28.5,7.2-48.8,23.8-50.6,44.7c-0.6,7.5,1.2,14.9,5,21.8c-4.7,4.3-7.7,9.5-8.2,15.3&#10;&#9;&#9;&#9;&#9;&#9;&#9;c-1.5,16.8,18,32.3,43.5,34.5c9.1,0.8,17.8-0.2,25.2-2.6c3.9,13.5,19.4,24.6,38.8,26.2c20,1.7,37.7-7.1,43.3-20.5&#10;&#9;&#9;&#9;&#9;&#9;&#9;c2.5,0.8,5.3,1.4,8.1,1.6c16.8,1.5,31.4-8.6,32.6-22.5c0.5-5.5-1.2-10.8-4.5-15.2C1326.7,570.4,1336.4,558.2,1337.7,543.2z" style="fill: url('#SVGID_19_');"/>
					
						<linearGradient id="SVGID_20_" gradientUnits="userSpaceOnUse" x1="887.8329" y1="545.9468" x2="1101.5956" y2="527.4951" gradientTransform="matrix(0.9963 8.600000e-02 -8.600000e-02 0.9963 35.4941 -59.4489)">
						<stop offset="0" style="stop-color:#F38A8C"/>
						<stop offset="0.2114" style="stop-color:#F38E8E"/>
						<stop offset="0.4403" style="stop-color:#F49B94"/>
						<stop offset="0.6774" style="stop-color:#F5B19F"/>
						<stop offset="0.9186" style="stop-color:#F6CFAD"/>
						<stop offset="1" style="stop-color:#F7DBB3"/>
					</linearGradient>
					<path class="st20" d="M873.7,560.2c-4.1,21.8,11.1,43,34.1,47.3c1.7,0.3,3.4,0.5,5.1,0.7c7.4,14.1,26.7,26.5,50.9,31.1&#10;&#9;&#9;&#9;&#9;&#9;&#9;c26.4,5,50.7-0.8,61.7-13.2c29.1-4.3,51-18.8,54.8-39.4c1.4-7.4,0.3-14.9-2.8-22.2c5.1-3.8,8.6-8.7,9.7-14.4&#10;&#9;&#9;&#9;&#9;&#9;&#9;c3.1-16.6-14.7-33.9-39.8-38.6c-9-1.7-17.7-1.5-25.3,0.1c-2.5-13.9-16.9-26.4-36-30c-19.8-3.7-38.2,3.3-45.2,16&#10;&#9;&#9;&#9;&#9;&#9;&#9;c-2.5-1.1-5.1-1.9-7.9-2.4c-16.6-3.1-32.1,5.4-34.7,19.1c-1,5.4,0.1,10.8,2.9,15.6C887.4,534.2,876.5,545.5,873.7,560.2z" style="fill: url('#SVGID_20_');"/>
					
						<linearGradient id="SVGID_21_" gradientUnits="userSpaceOnUse" x1="1089.9078" y1="393.4527" x2="1293.7233" y2="393.4527" gradientTransform="matrix(0.9963 8.600000e-02 -8.600000e-02 0.9963 35.4941 -59.4489)">
						<stop offset="0" style="stop-color:#F38A8C"/>
						<stop offset="0.2114" style="stop-color:#F38E8E"/>
						<stop offset="0.4403" style="stop-color:#F49B94"/>
						<stop offset="0.6774" style="stop-color:#F5B19F"/>
						<stop offset="0.9186" style="stop-color:#F6CFAD"/>
						<stop offset="1" style="stop-color:#F7DBB3"/>
					</linearGradient>
					<path class="st21" d="M1289.6,455.6c0.8-9.4-4.8-18.3-14.2-24.7c0.6-2.2,1-4.5,1.2-6.8c1.7-19.4-11.9-36.4-30.3-38&#10;&#9;&#9;&#9;&#9;&#9;&#9;c-5.7-0.5-11.1,0.5-16,2.8c-1.9-15-16.9-27.6-36.2-29.3c-18.1-1.6-34.1,7-39.7,19.9c-3.8-1.2-7.9-2-12.1-2.4&#10;&#9;&#9;&#9;&#9;&#9;&#9;c-27.6-2.4-51.7,15.3-53.8,39.4c-1.5,17.6,9,33.7,25.4,42.1c-2.2,3.5-3.5,7.5-3.9,11.7c-1.6,18.5,16.8,35.3,41.1,37.4&#10;&#9;&#9;&#9;&#9;&#9;&#9;c10.1,0.9,19.7-0.9,27.5-4.7c8.3,5.1,19,8.7,30.8,9.7c28.3,2.4,52.6-10.5,54.2-28.9c0.1-1.2,0.1-2.4,0-3.5&#10;&#9;&#9;&#9;&#9;&#9;&#9;C1278.1,476.4,1288.6,467.2,1289.6,455.6z" style="fill: url('#SVGID_21_');"/>
					
						<linearGradient id="SVGID_22_" gradientUnits="userSpaceOnUse" x1="896.6279" y1="418.8588" x2="1077.0854" y2="462.5341" gradientTransform="matrix(1.2069 0.1415 -7.190000e-02 1.2657 -127.4364 -251.3846)">
						<stop offset="0" style="stop-color:#F38A8C"/>
						<stop offset="0.2114" style="stop-color:#F38E8E"/>
						<stop offset="0.4403" style="stop-color:#F49B94"/>
						<stop offset="0.6774" style="stop-color:#F5B19F"/>
						<stop offset="0.9186" style="stop-color:#F6CFAD"/>
						<stop offset="1" style="stop-color:#F7DBB3"/>
					</linearGradient>
					<path class="st22" d="M911.8,483.1c4.6,11.2,15.8,18.3,29.5,20.4c0.6,2.8,1.5,5.7,2.7,8.5c9.6,23.2,33.9,35.1,54.3,26.7&#10;&#9;&#9;&#9;&#9;&#9;&#9;c6.3-2.6,11.4-6.8,15.3-12.1c10.7,16.2,34.1,22.2,55.5,13.4c20.1-8.3,32.1-27,30.4-45c4.8-0.8,9.5-2.1,14.2-4&#10;&#9;&#9;&#9;&#9;&#9;&#9;c30.6-12.6,45.8-46.3,33.9-75.1c-8.6-20.9-29.2-33.6-51.6-34.1c0.2-5.3-0.6-10.5-2.7-15.5c-9.1-22.1-38.4-31.1-65.3-19.9&#10;&#9;&#9;&#9;&#9;&#9;&#9;c-11.2,4.6-20.3,12-26.4,20.7c-11.8-1.3-25.2,0.6-38.3,6c-31.4,13-49.5,41.3-40.5,63.3c0.6,1.4,1.3,2.8,2,4&#10;&#9;&#9;&#9;&#9;&#9;&#9;C911.8,452.9,906.1,469.3,911.8,483.1z" style="fill: url('#SVGID_22_');"/>
					
						<linearGradient id="SVGID_23_" gradientUnits="userSpaceOnUse" x1="1065.9829" y1="506.3704" x2="1182.7802" y2="506.3704" gradientTransform="matrix(0.9963 8.600000e-02 -8.600000e-02 0.9963 35.4941 -59.4489)">
						<stop offset="0" style="stop-color:#F38A8C"/>
						<stop offset="0.2114" style="stop-color:#F38E8E"/>
						<stop offset="0.4403" style="stop-color:#F49B94"/>
						<stop offset="0.6774" style="stop-color:#F5B19F"/>
						<stop offset="0.9186" style="stop-color:#F6CFAD"/>
						<stop offset="1" style="stop-color:#F7DBB3"/>
					</linearGradient>
					<path class="st23" d="M1169.8,553.4c1.2-13.6-8.6-25.5-21.9-26.7c-0.2,0-0.5,0-0.7,0c0.6-1.9,1-3.8,1.2-5.9&#10;&#9;&#9;&#9;&#9;&#9;&#9;c1.5-16.8-13.5-31.9-33.4-33.6c-19.9-1.7-37.2,10.5-38.7,27.4c0,0.3,0,0.6-0.1,0.9c-12.6,5-22,17-23.2,31.7&#10;&#9;&#9;&#9;&#9;&#9;&#9;c-1.8,20.6,13,38.7,33.1,40.4c5.8,0.5,11.3-0.4,16.4-2.5c3.1,6.4,10.3,11.3,19,12c12.3,1.1,23-6.5,23.9-16.8&#10;&#9;&#9;&#9;&#9;&#9;&#9;c0.1-1.5,0-3-0.2-4.4C1157.8,576.3,1168.6,566.5,1169.8,553.4z" style="fill: url('#SVGID_23_');"/>
				</g>
			</g><path class="st12" d="M1141.5,678.6c-10.9,9.9-17.2,23.4-27.4,33.9c-3.9,4,2.2,10.2,6.1,6.1c10.2-10.5,16.5-24,27.4-33.9&#10;&#9;&#9;&#9;&#9;&#9;C1151.8,681,1145.7,674.8,1141.5,678.6z" style="fill: rgb(178, 139, 119); clip-path: url('#SVGID_2_');" transform="matrix(1, 0, 0, 1, 1.1368683772161603e-13, 2.842170943040401e-14)"/><path class="st12" d="M1120.3,747.7c-7.2-5.7-14.8-10.8-23-15c-5-2.5-9.4,5-4.4,7.5c7.5,3.8,14.6,8.4,21.3,13.7&#10;&#9;&#9;&#9;&#9;&#9;C1118.5,757.2,1124.7,751.1,1120.3,747.7z" style="fill: rgb(178, 139, 119); clip-path: url('#SVGID_2_');" transform="matrix(1, 0, 0, 1, 1.1368683772161603e-13, 2.842170943040401e-14)"/><g transform="matrix(1, 0, 0, 1, 8.526512829121202e-14, 2.1316282072803006e-14)" style="clip-path: url('#SVGID_2_');">
				<g>
					<g>
						<path class="st12" d="M967,867.3c0,5.4,6,7.3,10,7.3v1.4c3,0,8-3.3,8-8.7V555.4c0-5.4-5.4-9.8-9-9.8l0,0c-3.6,0-9,4.4-9,9.8&#10;&#9;&#9;&#9;&#9;&#9;&#9;&#9;V867.3z" style="fill: rgb(178, 139, 119);"/>
					</g>
					<g>
						<path class="st12" d="M985.3,559h-8c0-15,22.8-28.1,58.1-32.1l4.8-0.5c31.2-3.5,41.8-4.7,55.9-14.9l4.7,6.5&#10;&#9;&#9;&#9;&#9;&#9;&#9;&#9;c-15.9,11.4-27.8,12.8-59.7,16.4l-4.8,0.4C1003.2,538.6,985.3,550,985.3,559z" style="fill: rgb(178, 139, 119);"/>
					</g>
					<g>
						<path class="st12" d="M974.3,559h-8c0-9-17.9-20.8-51-24.6c-23-2.6-26.7-11.6-29.2-22.8c-1.1-5-2-9.5-6.8-12.9l4.7-6.5&#10;&#9;&#9;&#9;&#9;&#9;&#9;&#9;c7.3,5.2,8.8,12.1,10,17.6c1.8,8.3,3.1,14.5,22.3,16.7C951.5,530.5,974.3,543,974.3,559z" style="fill: rgb(178, 139, 119);"/>
					</g>
					<g>
						<path class="st12" d="M972.6,563.3c-0.3-1.5-5.7-36.7,33.8-63.1c10.7-7.1,13.7-20.1,13.8-20.2l7.8,1.8&#10;&#9;&#9;&#9;&#9;&#9;&#9;&#9;c-0.2,0.7-3.8,16.2-17.1,25.1c-35,23.4-30.5,53.9-30.3,55.1L972.6,563.3z" style="fill: rgb(178, 139, 119);"/>
					</g>
					<g>
						<path class="st12" d="M972.4,558.7c-4.6-15.2-14.4-37.6-22-39.9c-14.9-4.6-21.8-22.8-21.8-32.8h8c0,7,4.9,21.7,16.2,25.2&#10;&#9;&#9;&#9;&#9;&#9;&#9;&#9;c14.4,4.5,25.2,38.5,27.3,45.3L972.4,558.7z" style="fill: rgb(178, 139, 119);"/>
					</g>
				</g>
				<g>
					
						<linearGradient id="SVGID_24_" gradientUnits="userSpaceOnUse" x1="907.9597" y1="397.2544" x2="1124.6838" y2="397.2544" gradientTransform="matrix(-0.9963 8.600000e-02 8.600000e-02 0.9963 1870.6501 -59.4489)">
						<stop offset="0" style="stop-color:#F38A8C"/>
						<stop offset="0.2114" style="stop-color:#F38E8E"/>
						<stop offset="0.4403" style="stop-color:#F49B94"/>
						<stop offset="0.6774" style="stop-color:#F5B19F"/>
						<stop offset="0.9186" style="stop-color:#F6CFAD"/>
						<stop offset="1" style="stop-color:#F7DBB3"/>
					</linearGradient>
					<path class="st24" d="M782.5,412.5c-2-25.8,16-48.6,40.3-50.9c1.8-0.2,3.6-0.2,5.4-0.2c9.1-15.5,30.4-27.6,56.1-30.1&#10;&#9;&#9;&#9;&#9;&#9;&#9;c27.9-2.7,52.5,6.9,62.5,22.6c29.7,8.4,50.9,27.7,52.7,52.1c0.7,8.7-1.2,17.3-5.2,25.4c4.9,5,8,11.1,8.5,17.9&#10;&#9;&#9;&#9;&#9;&#9;&#9;c1.5,19.6-18.8,37.6-45.3,40.2c-9.5,0.9-18.5-0.3-26.2-3.1c-4.1,15.8-20.2,28.6-40.4,30.6c-20.9,2-39.3-8.3-45.1-23.9&#10;&#9;&#9;&#9;&#9;&#9;&#9;c-2.7,1-5.5,1.6-8.4,1.9c-17.5,1.7-32.7-10.1-34-26.3c-0.5-6.4,1.3-12.5,4.7-17.7C794,444.2,783.9,429.9,782.5,412.5z" style="fill: url('#SVGID_24_');"/>
					
						<linearGradient id="SVGID_25_" gradientUnits="userSpaceOnUse" x1="727.7902" y1="425.1202" x2="948.6841" y2="425.1202" gradientTransform="matrix(-0.9963 8.600000e-02 8.600000e-02 0.9963 1870.6501 -59.4489)">
						<stop offset="0" style="stop-color:#F38A8C"/>
						<stop offset="0.2114" style="stop-color:#F38E8E"/>
						<stop offset="0.4403" style="stop-color:#F49B94"/>
						<stop offset="0.6774" style="stop-color:#F5B19F"/>
						<stop offset="0.9186" style="stop-color:#F6CFAD"/>
						<stop offset="1" style="stop-color:#F7DBB3"/>
					</linearGradient>
					<path class="st25" d="M1182.7,435.4c4.3,25.4-11.6,50.1-35.5,55.2c-1.8,0.4-3.6,0.6-5.3,0.8c-7.7,16.4-27.8,30.9-53.1,36.2&#10;&#9;&#9;&#9;&#9;&#9;&#9;c-27.5,5.8-52.8-0.9-64.3-15.4c-30.3-5-53.1-21.9-57.1-45.9c-1.5-8.6-0.4-17.4,2.9-25.8c-5.3-4.4-8.9-10.1-10.1-16.8&#10;&#9;&#9;&#9;&#9;&#9;&#9;c-3.3-19.4,15.3-39.5,41.5-45.1c9.4-2,18.4-1.8,26.4,0.1c2.6-16.2,17.6-30.8,37.5-35c20.6-4.4,39.8,3.8,47.1,18.7&#10;&#9;&#9;&#9;&#9;&#9;&#9;c2.6-1.3,5.3-2.2,8.2-2.8c17.3-3.7,33.5,6.3,36.2,22.3c1.1,6.3-0.1,12.6-3.1,18.2C1168.4,405.1,1179.8,418.2,1182.7,435.4z" style="fill: url('#SVGID_25_');"/>
					
						<linearGradient id="SVGID_26_" gradientUnits="userSpaceOnUse" x1="848.4272" y1="304.4631" x2="1061.2161" y2="304.4631" gradientTransform="matrix(-0.9963 8.600000e-02 8.600000e-02 0.9963 1870.6501 -59.4489)">
						<stop offset="0" style="stop-color:#F38A8C"/>
						<stop offset="0.2114" style="stop-color:#F38E8E"/>
						<stop offset="0.4403" style="stop-color:#F49B94"/>
						<stop offset="0.6774" style="stop-color:#F5B19F"/>
						<stop offset="0.9186" style="stop-color:#F6CFAD"/>
						<stop offset="1" style="stop-color:#F7DBB3"/>
					</linearGradient>
					<path class="st26" d="M840.8,349.9c-0.8-11,5-21.4,14.8-28.8c-0.6-2.5-1.1-5.2-1.3-7.9c-1.7-22.6,12.4-42.5,31.6-44.3&#10;&#9;&#9;&#9;&#9;&#9;&#9;c5.9-0.6,11.6,0.6,16.7,3.2c1.9-17.5,17.6-32.2,37.8-34.2c18.8-1.8,35.6,8.1,41.4,23.3c4-1.4,8.2-2.4,12.6-2.8&#10;&#9;&#9;&#9;&#9;&#9;&#9;c28.8-2.8,53.8,17.8,56,46c1.6,20.5-9.4,39.3-26.5,49.1c2.2,4.1,3.7,8.7,4,13.6c1.7,21.6-17.5,41.1-42.8,43.6&#10;&#9;&#9;&#9;&#9;&#9;&#9;c-10.5,1-20.5-1.1-28.6-5.5c-8.7,6-19.8,10.1-32.1,11.3c-29.5,2.9-54.8-12.3-56.5-33.8c-0.1-1.4-0.1-2.7,0-4.1&#10;&#9;&#9;&#9;&#9;&#9;&#9;C852.8,374.1,841.9,363.4,840.8,349.9z" style="fill: url('#SVGID_26_');"/>
					
						<linearGradient id="SVGID_27_" gradientUnits="userSpaceOnUse" x1="708.7167" y1="285.886" x2="897.7394" y2="331.6342" gradientTransform="matrix(-1.0672 8.280000e-02 0.1002 1.0525 1896.3094 -75.487)">
						<stop offset="0" style="stop-color:#F38A8C"/>
						<stop offset="0.2114" style="stop-color:#F38E8E"/>
						<stop offset="0.4403" style="stop-color:#F49B94"/>
						<stop offset="0.6774" style="stop-color:#F5B19F"/>
						<stop offset="0.9186" style="stop-color:#F6CFAD"/>
						<stop offset="1" style="stop-color:#F7DBB3"/>
					</linearGradient>
					<path class="st27" d="M1181.9,356.4c-3.9,10.7-14.1,17.2-26.7,18.7c-0.5,2.7-1.2,5.4-2.2,8.1c-8.2,22.1-30.3,32.9-49.4,24&#10;&#9;&#9;&#9;&#9;&#9;&#9;c-5.9-2.7-10.8-7-14.5-12.2c-9.4,15.3-30.8,20.4-50.9,11.1c-18.8-8.7-30.5-27.2-29.5-44.5c-4.4-0.9-8.9-2.3-13.3-4.4&#10;&#9;&#9;&#9;&#9;&#9;&#9;c-28.7-13.3-43.7-46.3-33.6-73.8c7.4-20,26-31.5,46.7-31.3c-0.4-5.1,0.3-10.2,2-14.9c7.8-21.1,34.6-28.8,59.8-17.1&#10;&#9;&#9;&#9;&#9;&#9;&#9;c10.5,4.9,19.1,12.3,25,20.9c10.9-0.8,23.3,1.4,35.6,7.1c29.5,13.6,47,41.7,39.3,62.6c-0.5,1.3-1.1,2.6-1.8,3.8&#10;&#9;&#9;&#9;&#9;&#9;&#9;C1181,327.1,1186.8,343.2,1181.9,356.4z" style="fill: url('#SVGID_27_');"/>
					
						<linearGradient id="SVGID_28_" gradientUnits="userSpaceOnUse" x1="880.1611" y1="433.5339" x2="1001.928" y2="433.5339" gradientTransform="matrix(-0.9963 8.600000e-02 8.600000e-02 0.9963 1870.6501 -59.4489)">
						<stop offset="0" style="stop-color:#F38A8C"/>
						<stop offset="0.2114" style="stop-color:#F38E8E"/>
						<stop offset="0.4403" style="stop-color:#F49B94"/>
						<stop offset="0.6774" style="stop-color:#F5B19F"/>
						<stop offset="0.9186" style="stop-color:#F6CFAD"/>
						<stop offset="1" style="stop-color:#F7DBB3"/>
					</linearGradient>
					<path class="st28" d="M910.4,467c-1.2-15.8,9-29.8,22.8-31.1c0.2,0,0.5,0,0.7,0c-0.6-2.2-1.1-4.5-1.2-6.8&#10;&#9;&#9;&#9;&#9;&#9;&#9;c-1.5-19.6,14.1-37.2,34.8-39.2c20.7-2,38.8,12.3,40.3,31.9c0,0.4,0,0.7,0.1,1.1c13.1,5.9,22.9,19.8,24.2,37&#10;&#9;&#9;&#9;&#9;&#9;&#9;c1.8,24-13.6,45.1-34.5,47.1c-6,0.6-11.8-0.5-17.1-2.9c-3.3,7.5-10.7,13.1-19.8,14c-12.8,1.2-23.9-7.5-24.9-19.6&#10;&#9;&#9;&#9;&#9;&#9;&#9;c-0.1-1.7,0-3.5,0.2-5.1C922.9,493.7,911.6,482.2,910.4,467z" style="fill: url('#SVGID_28_');"/>
				</g>
			</g><path class="st12" d="M977.8,706.3c10.6-14.4,21.5-28.9,35.5-39.5c3.9-2.9,7.5,4.1,3.7,7c-13.4,10.1-23.8,24.4-34,38.2&#10;&#9;&#9;&#9;&#9;&#9;C980,716.1,974.9,710.3,977.8,706.3z" style="fill: rgb(178, 139, 119); clip-path: url('#SVGID_2_');" transform="matrix(1, 0, 0, 1, 1.1368683772161603e-13, 2.842170943040401e-14)"/><path class="st12" d="M956.9,769.5c7.7,8,13.3,18.1,19.4,27.5c2.7,4.2-3.5,8.3-6.2,4.1c-5.8-8.9-11-18.4-18.2-25.9&#10;&#9;&#9;&#9;&#9;&#9;C948.3,771.7,953.5,765.9,956.9,769.5z" style="fill: rgb(178, 139, 119); clip-path: url('#SVGID_2_');" transform="matrix(1, 0, 0, 1, 1.1368683772161603e-13, 2.842170943040401e-14)"/><g transform="matrix(1, 0, 0, 1, 8.526512829121202e-14, 2.1316282072803006e-14)" style="clip-path: url('#SVGID_2_');">
				<g>
					<g>
						<path class="st12" d="M1297,880.4c0,4.1-4,5.6-7,5.6v1.1c-3,0-7-2.5-7-6.6V642.7c0-4.1,4.3-7.5,7-7.5l0,0c2.7,0,7,3.3,7,7.5&#10;&#9;&#9;&#9;&#9;&#9;&#9;&#9;V880.4z" style="fill: rgb(178, 139, 119);"/>
					</g>
					<g>
						<path class="st12" d="M1290.3,646h-8c0-5-10.3-14.6-38.1-17.8l-3.6-0.5c-24.5-2.8-33.7-3.8-46-12.7l4.7-6.5&#10;&#9;&#9;&#9;&#9;&#9;&#9;&#9;c10.6,7.6,17.9,8.4,42.2,11.2l3.6,0.6C1272.6,623.4,1290.3,633,1290.3,646z" style="fill: rgb(178, 139, 119);"/>
					</g>
					<g>
						<path class="st12" d="M1298.7,645h-8c0-12,17.7-22.4,45.2-25.5c13.9-1.6,14.8-5.6,16.1-11.8c1-4.4,2.1-9.8,8-14l4.7,6.5&#10;&#9;&#9;&#9;&#9;&#9;&#9;&#9;c-3.3,2.4-4,5.4-4.8,9.2c-1.9,8.7-4.9,16-23,18C1309,630.6,1298.7,640,1298.7,645z" style="fill: rgb(178, 139, 119);"/>
					</g>
					<g>
						<path class="st12" d="M1293.9,648.8l-7.9-1.3l3.9,0.7l-3.9-0.7c0.2-1,3.4-23.6-22.7-41.1c-10.4-7-13.3-19.2-13.4-19.7l7.8-1.8&#10;&#9;&#9;&#9;&#9;&#9;&#9;&#9;c0,0.1,2.3,9.7,10.1,14.8C1298.3,620.3,1294,647.7,1293.9,648.8z" style="fill: rgb(178, 139, 119);"/>
					</g>
					<g>
						<path class="st12" d="M1294,645.5l-7.7-2.3c1.6-5.3,10-31.5,21.4-35c8.1-2.5,11.7-13.2,11.7-18.2h8c0,8-5.5,22.2-17.3,25.8&#10;&#9;&#9;&#9;&#9;&#9;&#9;&#9;C1304.7,617.5,1297.3,634.4,1294,645.5z" style="fill: rgb(178, 139, 119);"/>
					</g>
				</g>
				<g>
					
						<linearGradient id="SVGID_29_" gradientUnits="userSpaceOnUse" x1="605.6122" y1="544.6344" x2="770.7667" y2="544.6344" gradientTransform="matrix(0.9963 8.600000e-02 -8.600000e-02 0.9963 715.3497 -59.4489)">
						<stop offset="0" style="stop-color:#F38A8C"/>
						<stop offset="0.2114" style="stop-color:#F38E8E"/>
						<stop offset="0.4403" style="stop-color:#F49B94"/>
						<stop offset="0.6774" style="stop-color:#F5B19F"/>
						<stop offset="0.9186" style="stop-color:#F6CFAD"/>
						<stop offset="1" style="stop-color:#F7DBB3"/>
					</linearGradient>
					<path class="st29" d="M1437.8,533.8c1.5-19.6-12.2-37-30.7-38.8c-1.4-0.1-2.7-0.2-4.1-0.1c-6.9-11.8-23.2-21-42.7-22.9&#10;&#9;&#9;&#9;&#9;&#9;&#9;c-21.2-2.1-40,5.2-47.7,17.2c-22.7,6.4-38.8,21.1-40.2,39.7c-0.5,6.7,0.9,13.2,3.9,19.4c-3.7,3.8-6.1,8.4-6.5,13.6&#10;&#9;&#9;&#9;&#9;&#9;&#9;c-1.2,15,14.3,28.7,34.5,30.6c7.2,0.7,14.1-0.2,20-2.3c3.1,12,15.4,21.8,30.8,23.3c15.9,1.5,30-6.3,34.4-18.2&#10;&#9;&#9;&#9;&#9;&#9;&#9;c2,0.7,4.2,1.2,6.4,1.4c13.4,1.3,25-7.7,25.9-20c0.4-4.9-1-9.6-3.6-13.5C1429,558,1436.8,547.1,1437.8,533.8z" style="fill: url('#SVGID_29_');"/>
					
						<linearGradient id="SVGID_30_" gradientUnits="userSpaceOnUse" x1="468.3134" y1="565.8693" x2="636.6461" y2="565.8693" gradientTransform="matrix(0.9963 8.600000e-02 -8.600000e-02 0.9963 715.3497 -59.4489)">
						<stop offset="0" style="stop-color:#F38A8C"/>
						<stop offset="0.2114" style="stop-color:#F38E8E"/>
						<stop offset="0.4403" style="stop-color:#F49B94"/>
						<stop offset="0.6774" style="stop-color:#F5B19F"/>
						<stop offset="0.9186" style="stop-color:#F6CFAD"/>
						<stop offset="1" style="stop-color:#F7DBB3"/>
					</linearGradient>
					<path class="st30" d="M1132.8,551.2c-3.3,19.4,8.8,38.2,27,42c1.4,0.3,2.7,0.5,4,0.6c5.8,12.5,21.2,23.5,40.5,27.6&#10;&#9;&#9;&#9;&#9;&#9;&#9;c21,4.4,40.3-0.7,49-11.8c23.1-3.8,40.5-16.7,43.5-35c1.1-6.6,0.3-13.2-2.2-19.7c4.1-3.3,6.8-7.7,7.7-12.8&#10;&#9;&#9;&#9;&#9;&#9;&#9;c2.5-14.8-11.7-30.1-31.6-34.3c-7.1-1.5-14.1-1.4-20.1,0.1c-2-12.3-13.4-23.4-28.6-26.7c-15.7-3.3-30.4,2.9-35.9,14.2&#10;&#9;&#9;&#9;&#9;&#9;&#9;c-1.9-1-4-1.7-6.3-2.2c-13.2-2.8-25.5,4.8-27.6,17c-0.8,4.8,0.1,9.6,2.3,13.8C1143.7,528.1,1135,538.1,1132.8,551.2z" style="fill: url('#SVGID_30_');"/>
					
						<linearGradient id="SVGID_31_" gradientUnits="userSpaceOnUse" x1="560.2454" y1="473.9228" x2="722.4013" y2="473.9228" gradientTransform="matrix(0.9963 8.600000e-02 -8.600000e-02 0.9963 715.3497 -59.4489)">
						<stop offset="0" style="stop-color:#F38A8C"/>
						<stop offset="0.2114" style="stop-color:#F38E8E"/>
						<stop offset="0.4403" style="stop-color:#F49B94"/>
						<stop offset="0.6774" style="stop-color:#F5B19F"/>
						<stop offset="0.9186" style="stop-color:#F6CFAD"/>
						<stop offset="1" style="stop-color:#F7DBB3"/>
					</linearGradient>
					<path class="st31" d="M1393.4,486.1c0.6-8.3-3.8-16.3-11.3-22c0.5-1.9,0.8-4,1-6c1.3-17.2-9.4-32.4-24.1-33.8&#10;&#9;&#9;&#9;&#9;&#9;&#9;c-4.5-0.4-8.8,0.5-12.7,2.5c-1.5-13.3-13.4-24.6-28.8-26c-14.4-1.4-27.1,6.2-31.6,17.7c-3.1-1.1-6.3-1.8-9.6-2.1&#10;&#9;&#9;&#9;&#9;&#9;&#9;c-21.9-2.1-41,13.6-42.7,35c-1.2,15.6,7.1,29.9,20.2,37.4c-1.7,3.1-2.8,6.6-3.1,10.4c-1.3,16.5,13.3,31.4,32.6,33.2&#10;&#9;&#9;&#9;&#9;&#9;&#9;c8,0.8,15.6-0.8,21.8-4.2c6.6,4.6,15.1,7.7,24.5,8.6c22.5,2.2,41.8-9.3,43-25.7c0.1-1.1,0.1-2.1,0-3.1&#10;&#9;&#9;&#9;&#9;&#9;&#9;C1384.2,504.5,1392.6,496.3,1393.4,486.1z" style="fill: url('#SVGID_31_');"/>
					
						<linearGradient id="SVGID_32_" gradientUnits="userSpaceOnUse" x1="467.4542" y1="449.1365" x2="611.4984" y2="483.9989" gradientTransform="matrix(1.0672 8.280000e-02 -0.1002 1.0525 689.6905 -75.487)">
						<stop offset="0" style="stop-color:#F38A8C"/>
						<stop offset="0.2114" style="stop-color:#F38E8E"/>
						<stop offset="0.4403" style="stop-color:#F49B94"/>
						<stop offset="0.6774" style="stop-color:#F5B19F"/>
						<stop offset="0.9186" style="stop-color:#F6CFAD"/>
						<stop offset="1" style="stop-color:#F7DBB3"/>
					</linearGradient>
					<path class="st32" d="M1133.4,491c3,8.2,10.7,13.1,20.3,14.3c0.4,2.1,0.9,4.1,1.7,6.2c6.2,16.8,23.1,25,37.7,18.3&#10;&#9;&#9;&#9;&#9;&#9;&#9;c4.5-2.1,8.2-5.3,11.1-9.3c7.2,11.7,23.5,15.5,38.8,8.5c14.3-6.6,23.2-20.7,22.5-33.9c3.4-0.7,6.8-1.8,10.1-3.3&#10;&#9;&#9;&#9;&#9;&#9;&#9;c21.9-10.1,33.3-35.3,25.6-56.2c-5.6-15.2-19.8-24-35.6-23.8c0.3-3.9-0.2-7.7-1.5-11.4c-5.9-16.1-26.4-21.9-45.6-13&#10;&#9;&#9;&#9;&#9;&#9;&#9;c-8,3.7-14.6,9.4-19,15.9c-8.3-0.6-17.7,1.1-27.1,5.4c-22.4,10.4-35.9,31.7-30,47.7c0.4,1,0.8,2,1.3,2.9&#10;&#9;&#9;&#9;&#9;&#9;&#9;C1134.1,468.7,1129.7,481,1133.4,491z" style="fill: url('#SVGID_32_');"/>
					
						<linearGradient id="SVGID_33_" gradientUnits="userSpaceOnUse" x1="584.4285" y1="572.2809" x2="677.2207" y2="572.2809" gradientTransform="matrix(0.9963 8.600000e-02 -8.600000e-02 0.9963 715.3497 -59.4489)">
						<stop offset="0" style="stop-color:#F38A8C"/>
						<stop offset="0.2114" style="stop-color:#F38E8E"/>
						<stop offset="0.4403" style="stop-color:#F49B94"/>
						<stop offset="0.6774" style="stop-color:#F5B19F"/>
						<stop offset="0.9186" style="stop-color:#F6CFAD"/>
						<stop offset="1" style="stop-color:#F7DBB3"/>
					</linearGradient>
					<path class="st33" d="M1340.3,575.3c0.9-12.1-6.9-22.7-17.4-23.7c-0.2,0-0.4,0-0.5,0c0.5-1.7,0.8-3.4,0.9-5.2&#10;&#9;&#9;&#9;&#9;&#9;&#9;c1.2-15-10.7-28.3-26.5-29.9c-15.8-1.5-29.5,9.4-30.7,24.3c0,0.3,0,0.6,0,0.8c-10,4.5-17.4,15.1-18.4,28.2&#10;&#9;&#9;&#9;&#9;&#9;&#9;c-1.4,18.3,10.4,34.4,26.3,35.9c4.6,0.4,9-0.4,13-2.2c2.5,5.7,8.2,10,15.1,10.7c9.8,0.9,18.2-5.7,19-14.9&#10;&#9;&#9;&#9;&#9;&#9;&#9;c0.1-1.3,0-2.6-0.2-3.9C1330.8,595.6,1339.4,586.9,1340.3,575.3z" style="fill: url('#SVGID_33_');"/>
				</g>
			</g><path class="st12" d="M1288.9,757.7c-8.1-11-16.4-22.1-27-30.1c-3-2.2-5.7,3.1-2.8,5.3c10.2,7.7,18.2,18.6,25.9,29.1&#10;&#9;&#9;&#9;&#9;&#9;C1287.3,765.1,1291.2,760.7,1288.9,757.7z" style="fill: rgb(178, 139, 119); clip-path: url('#SVGID_2_');" transform="matrix(1, 0, 0, 1, 1.1368683772161603e-13, 2.842170943040401e-14)"/><path class="st12" d="M1304.9,805.8c-5.9,6.1-10.1,13.8-14.8,21c-2.1,3.2,2.7,6.3,4.8,3.1c4.4-6.8,8.4-14,13.9-19.7&#10;&#9;&#9;&#9;&#9;&#9;C1311.4,807.5,1307.5,803.1,1304.9,805.8z" style="fill: rgb(178, 139, 119); clip-path: url('#SVGID_2_');" transform="matrix(1, 0, 0, 1, 1.1368683772161603e-13, 2.842170943040401e-14)"/><g transform="matrix(1, 0, 0, 1, 8.526512829121202e-14, 2.1316282072803006e-14)" style="clip-path: url('#SVGID_2_');">
				<g>
					<g>
						<path class="st12" d="M640,892.5c0,4.7,3.8,7.5,8.5,7.5l0,0c4.7,0,8.5-2.8,8.5-7.5V622.7c0-4.7-3.8-8.5-8.5-8.5l0,0&#10;&#9;&#9;&#9;&#9;&#9;&#9;&#9;c-4.7,0-8.5,3.8-8.5,8.5V892.5z" style="fill: rgb(178, 139, 119);"/>
					</g>
					<g>
						<g>
							<path class="st12" d="M646.1,632h-8c0-10-19-22.1-55.4-26.2c-38.8-4.4-56.6-13.1-70.5-34.7l6.7-4.3&#10;&#9;&#9;&#9;&#9;&#9;&#9;&#9;&#9;c12.5,19.5,28.2,26.9,64.6,31C621.6,602.1,646.1,616,646.1,632z" style="fill: rgb(178, 139, 119);"/>
						</g>
						<g>
							<path class="st12" d="M658,632h-8c0-17,24.5-30.3,62.5-34.6c20.9-2.4,22.4-9.3,24.3-18c1.4-6.2,2.9-13.2,10.6-18.8l4.7,6.5&#10;&#9;&#9;&#9;&#9;&#9;&#9;&#9;&#9;c-5.2,3.8-6.3,8.5-7.5,13.9c-2.6,12-6.6,21.5-31.2,24.3C677,609.5,658,622,658,632z" style="fill: rgb(178, 139, 119);"/>
						</g>
						<g>
							<path class="st12" d="M651.2,636.6l-7.9-1.3c0.2-1.4,5.1-34.2-32.9-59.4c-14.2-9.5-18.2-26.1-18.3-26.8l7.8-1.8&#10;&#9;&#9;&#9;&#9;&#9;&#9;&#9;&#9;c0,0.1,3.4,14.2,15,21.9C657.4,597.4,651.5,635,651.2,636.6z" style="fill: rgb(178, 139, 119);"/>
						</g>
						<g>
							<path class="st12" d="M651.4,631.7l-7.7-2.3c2.2-7.3,13.9-44,29.2-48.7c12.3-3.8,17.7-19.7,17.7-27.7h8&#10;&#9;&#9;&#9;&#9;&#9;&#9;&#9;&#9;c0,12-7.4,30.4-23.3,35.3C666.6,591,656,616.4,651.4,631.7z" style="fill: rgb(178, 139, 119);"/>
						</g>
					</g>
				</g>
				<g>
					
						<linearGradient id="SVGID_34_" gradientUnits="userSpaceOnUse" x1="1277.298" y1="478.2451" x2="1485.2352" y2="478.2451" gradientTransform="matrix(-0.9963 8.600000e-02 8.600000e-02 0.9963 1870.6501 -59.4489)">
						<stop offset="0" style="stop-color:#F38A8C"/>
						<stop offset="0.2114" style="stop-color:#F38E8E"/>
						<stop offset="0.4403" style="stop-color:#F49B94"/>
						<stop offset="0.6774" style="stop-color:#F5B19F"/>
						<stop offset="0.9186" style="stop-color:#F6CFAD"/>
						<stop offset="1" style="stop-color:#F7DBB3"/>
					</linearGradient>
					<path class="st34" d="M430.4,526.2c-1.9-22.1,15.4-41.6,38.6-43.7c1.7-0.2,3.4-0.2,5.1-0.1c8.7-13.3,29.2-23.7,53.8-25.8&#10;&#9;&#9;&#9;&#9;&#9;&#9;c26.8-2.3,50.4,5.9,60,19.4c28.5,7.2,48.8,23.8,50.6,44.7c0.6,7.5-1.2,14.9-5,21.8c4.7,4.3,7.7,9.5,8.2,15.3&#10;&#9;&#9;&#9;&#9;&#9;&#9;c1.5,16.8-18,32.3-43.5,34.5c-9.1,0.8-17.8-0.2-25.2-2.6c-3.9,13.5-19.4,24.6-38.8,26.2c-20,1.7-37.7-7.1-43.3-20.5&#10;&#9;&#9;&#9;&#9;&#9;&#9;c-2.5,0.8-5.3,1.4-8.1,1.6c-16.8,1.5-31.4-8.6-32.6-22.5c-0.5-5.5,1.2-10.8,4.5-15.2C441.5,553.4,431.7,541.2,430.4,526.2z" style="fill: url('#SVGID_34_');"/>
					
						<linearGradient id="SVGID_35_" gradientUnits="userSpaceOnUse" x1="1023.8595" y1="517.142" x2="1237.6221" y2="498.6902" gradientTransform="matrix(-0.9963 8.600000e-02 8.600000e-02 0.9963 1870.6501 -59.4489)">
						<stop offset="0" style="stop-color:#F38A8C"/>
						<stop offset="0.2114" style="stop-color:#F38E8E"/>
						<stop offset="0.4403" style="stop-color:#F49B94"/>
						<stop offset="0.6774" style="stop-color:#F5B19F"/>
						<stop offset="0.9186" style="stop-color:#F6CFAD"/>
						<stop offset="1" style="stop-color:#F7DBB3"/>
					</linearGradient>
					<path class="st35" d="M894.4,543.2c4.1,21.8-11.1,43-34.1,47.3c-1.7,0.3-3.4,0.5-5.1,0.7c-7.4,14.1-26.7,26.5-50.9,31.1&#10;&#9;&#9;&#9;&#9;&#9;&#9;c-26.4,5-50.7-0.8-61.7-13.2c-29.1-4.3-51-18.8-54.8-39.4c-1.4-7.4-0.3-14.9,2.8-22.2c-5.1-3.8-8.6-8.7-9.7-14.4&#10;&#9;&#9;&#9;&#9;&#9;&#9;c-3.1-16.6,14.7-33.9,39.8-38.6c9-1.7,17.7-1.5,25.3,0.1c2.5-13.9,16.9-26.4,36-30c19.8-3.7,38.2,3.3,45.2,16&#10;&#9;&#9;&#9;&#9;&#9;&#9;c2.5-1.1,5.1-1.9,7.9-2.4c16.6-3.1,32.1,5.4,34.7,19.1c1,5.4-0.1,10.8-2.9,15.6C880.7,517.2,891.6,528.5,894.4,543.2z" style="fill: url('#SVGID_35_');"/>
					
						<linearGradient id="SVGID_36_" gradientUnits="userSpaceOnUse" x1="1225.9337" y1="364.6479" x2="1429.7491" y2="364.6479" gradientTransform="matrix(-0.9963 8.600000e-02 8.600000e-02 0.9963 1870.6501 -59.4489)">
						<stop offset="0" style="stop-color:#F38A8C"/>
						<stop offset="0.2114" style="stop-color:#F38E8E"/>
						<stop offset="0.4403" style="stop-color:#F49B94"/>
						<stop offset="0.6774" style="stop-color:#F5B19F"/>
						<stop offset="0.9186" style="stop-color:#F6CFAD"/>
						<stop offset="1" style="stop-color:#F7DBB3"/>
					</linearGradient>
					<path class="st36" d="M478.6,438.6c-0.8-9.4,4.8-18.3,14.2-24.7c-0.6-2.2-1-4.5-1.2-6.8c-1.7-19.4,11.9-36.4,30.3-38&#10;&#9;&#9;&#9;&#9;&#9;&#9;c5.7-0.5,11.1,0.5,16,2.8c1.9-15,16.9-27.6,36.2-29.3c18.1-1.6,34.1,7,39.7,19.9c3.8-1.2,7.9-2,12.1-2.4&#10;&#9;&#9;&#9;&#9;&#9;&#9;c27.6-2.4,51.7,15.3,53.8,39.4c1.5,17.6-9,33.7-25.4,42.1c2.2,3.5,3.5,7.5,3.9,11.7c1.6,18.5-16.8,35.3-41.1,37.4&#10;&#9;&#9;&#9;&#9;&#9;&#9;c-10.1,0.9-19.7-0.9-27.5-4.7c-8.3,5.1-19,8.7-30.8,9.7c-28.3,2.4-52.6-10.5-54.2-28.9c-0.1-1.2-0.1-2.4,0-3.5&#10;&#9;&#9;&#9;&#9;&#9;&#9;C490,459.4,479.6,450.2,478.6,438.6z" style="fill: url('#SVGID_36_');"/>
					
						<linearGradient id="SVGID_37_" gradientUnits="userSpaceOnUse" x1="1009.4196" y1="392.8178" x2="1189.8772" y2="436.4931" gradientTransform="matrix(-1.2069 0.1415 7.190000e-02 1.2657 2033.5815 -251.3846)">
						<stop offset="0" style="stop-color:#F38A8C"/>
						<stop offset="0.2114" style="stop-color:#F38E8E"/>
						<stop offset="0.4403" style="stop-color:#F49B94"/>
						<stop offset="0.6774" style="stop-color:#F5B19F"/>
						<stop offset="0.9186" style="stop-color:#F6CFAD"/>
						<stop offset="1" style="stop-color:#F7DBB3"/>
					</linearGradient>
					<path class="st37" d="M856.3,466.1c-4.6,11.2-15.8,18.3-29.5,20.4c-0.6,2.8-1.5,5.7-2.7,8.5c-9.6,23.2-33.9,35.1-54.3,26.7&#10;&#9;&#9;&#9;&#9;&#9;&#9;c-6.3-2.6-11.4-6.8-15.3-12.1c-10.7,16.2-34.1,22.2-55.5,13.4c-20.1-8.3-32.1-27-30.4-45c-4.8-0.8-9.5-2.1-14.2-4&#10;&#9;&#9;&#9;&#9;&#9;&#9;c-30.6-12.6-45.8-46.3-33.9-75.1c8.6-20.9,29.2-33.6,51.6-34.1c-0.2-5.3,0.6-10.5,2.7-15.5c9.1-22.1,38.4-31.1,65.3-19.9&#10;&#9;&#9;&#9;&#9;&#9;&#9;c11.2,4.6,20.3,12,26.4,20.7c11.8-1.3,25.2,0.6,38.3,6c31.4,13,49.5,41.3,40.5,63.3c-0.6,1.4-1.3,2.8-2,4&#10;&#9;&#9;&#9;&#9;&#9;&#9;C856.3,435.9,862,452.3,856.3,466.1z" style="fill: url('#SVGID_37_');"/>
					
						<linearGradient id="SVGID_38_" gradientUnits="userSpaceOnUse" x1="1202.0088" y1="477.5656" x2="1318.806" y2="477.5656" gradientTransform="matrix(-0.9963 8.600000e-02 8.600000e-02 0.9963 1870.6501 -59.4489)">
						<stop offset="0" style="stop-color:#F38A8C"/>
						<stop offset="0.2114" style="stop-color:#F38E8E"/>
						<stop offset="0.4403" style="stop-color:#F49B94"/>
						<stop offset="0.6774" style="stop-color:#F5B19F"/>
						<stop offset="0.9186" style="stop-color:#F6CFAD"/>
						<stop offset="1" style="stop-color:#F7DBB3"/>
					</linearGradient>
					<path class="st38" d="M598.4,536.4c-1.2-13.6,8.6-25.5,21.9-26.7c0.2,0,0.5,0,0.7,0c-0.6-1.9-1-3.8-1.2-5.9&#10;&#9;&#9;&#9;&#9;&#9;&#9;c-1.5-16.8,13.5-31.9,33.4-33.6c19.9-1.7,37.2,10.5,38.7,27.4c0,0.3,0,0.6,0.1,0.9c12.6,5,22,17,23.2,31.7&#10;&#9;&#9;&#9;&#9;&#9;&#9;c1.8,20.6-13,38.7-33.1,40.4c-5.8,0.5-11.3-0.4-16.4-2.5c-3.1,6.4-10.3,11.3-19,12c-12.3,1.1-23-6.5-23.9-16.8&#10;&#9;&#9;&#9;&#9;&#9;&#9;c-0.1-1.5,0-3,0.2-4.4C610.4,559.3,599.5,549.5,598.4,536.4z" style="fill: url('#SVGID_38_');"/>
				</g>
			</g><path class="st12" d="M626.6,661.6c10.9,9.9,17.2,23.4,27.4,33.9c3.9,4-2.2,10.2-6.1,6.1c-10.2-10.5-16.5-24-27.4-33.9&#10;&#9;&#9;&#9;&#9;&#9;C616.3,664,622.5,657.8,626.6,661.6z" style="fill: rgb(178, 139, 119); clip-path: url('#SVGID_2_');" transform="matrix(1, 0, 0, 1, 1.1368683772161603e-13, 2.842170943040401e-14)"/><path class="st12" d="M647.8,730.7c7.2-5.7,14.8-10.8,23-15c5-2.5,9.4,5,4.4,7.5c-7.5,3.8-14.6,8.4-21.3,13.7&#10;&#9;&#9;&#9;&#9;&#9;C649.6,740.2,643.4,734.1,647.8,730.7z" style="fill: rgb(178, 139, 119); clip-path: url('#SVGID_2_');" transform="matrix(1, 0, 0, 1, 1.1368683772161603e-13, 2.842170943040401e-14)"/><g transform="matrix(1, 0, 0, 1, 8.526512829121202e-14, 2.1316282072803006e-14)" style="clip-path: url('#SVGID_2_');">
				<path class="st39" d="M128.3,799.2c0.2-0.3,0.4-0.6,0.6-0.9c-0.1,0-0.3-0.1-0.4-0.1C128.5,798.5,128.4,798.8,128.3,799.2z" style="fill: none;"/>
				<path class="st40" d="M155,773.4c0.6,2.6,0.5,5.3,0.2,8c-0.3,0.9-0.5,1.9-0.6,2.9c-0.1,0.4-0.1,0.9-0.1,1.3&#10;&#9;&#9;&#9;&#9;&#9;c-0.4,1.6-0.8,3.2-1.2,4.8c-1.9,7.5-3.6,14.6-3.2,22.4c1.4,29.1,28.2,46.8,32.2,75.1c0.5,3.8,2.2,2.8,5.6,2.9&#10;&#9;&#9;&#9;&#9;&#9;c7.6,0.2,4.4-1.8,3.9-5.6c-4-27.9-27.2-46.7-27.8-75.2c0-0.3,0-0.7,0-1c0.3-1,0.7-2.2,1-3.9c0.6-3,2.2-5.6,3.8-8.2&#10;&#9;&#9;&#9;&#9;&#9;c2.5-3.4,6.2-6.4,8.7-8.9c6.4-6.4,12.3-13.4,17.7-20.6c0.1,0,0.2,0,0.3,0.1c-4.6-1.3-17.9-5.2-31.1-11.2&#10;&#9;&#9;&#9;&#9;&#9;C164.3,756.2,159.8,764.7,155,773.4z" style="fill: rgb(153, 121, 100);"/>
				<path class="st41" d="M392.9,655.4C374,640.7,360.8,625,360.8,625l-0.1,0.2c-1.2-1.7-2.5-3.2-4.1-4.6c0.3-0.3,0.5-0.6,0.8-0.9&#10;&#9;&#9;&#9;&#9;&#9;c19.5-22.5,4.7-16.6-6.3-11.9c-4.8,2-11.4,3.1-16.9,5.3c-0.2-0.2-0.3-0.5-0.5-0.7c-3.9-6.7-24.9-16.2-30.3-11.9&#10;&#9;&#9;&#9;&#9;&#9;c-4,3.2-2.6,18.9,13.2,26.3c-4.2,5.1-9.5,12.2-17.1,21.9c-0.8,1.1-2.3,2.1-2.4,2.9l-14.9,17.5c-0.6,0.2-1.1,0.6-1.6,1.2&#10;&#9;&#9;&#9;&#9;&#9;c-10.1,13.1-24,20.7-40.5,21.8c-15.4,1-30.8-2.5-45.8-5.1c-15.1-2.7-29.3-4.8-44.5-2.3c-16.5,2.7-29.4,12.4-39.6,25.4&#10;&#9;&#9;&#9;&#9;&#9;c-0.2,0.2-0.3,0.4-0.4,0.7c-0.5,0.4-0.9,0.9-1.1,1.6c-1.8,5.5-2.3,11.4-2.7,17.2c-0.1,0.8,0,1.5,0.1,2.3c0,0,0,0.1,0,0.1&#10;&#9;&#9;&#9;&#9;&#9;c0.8,6.1,1.6,12,4,17.6c2.6,6.1,6.1,11.1,8.6,17.2c4.8,11.6-3,23.4-5.1,34.9c-5.6,31,10.6,57.9,14.7,88.1&#10;&#9;&#9;&#9;&#9;&#9;c0.5,3.8,2.2,3.9,5.6,3.9c5.9,0,4.4-1.8,3.9-5.6c-3.2-23.6-11.5-46.6-11.5-70.3c1.9-5.3,5.1-10.3,8.2-15&#10;&#9;&#9;&#9;&#9;&#9;c4.2-6.5,8.9-12.7,13.5-18.9c2.6-3.5,5-7,7.1-10.8c0,0,0,0,0,0c0,0.1,0,0.2,0.1,0.3c4.8-8.8,9.3-17.3,9.3-17.3&#10;&#9;&#9;&#9;&#9;&#9;c13.2,6,26.5,9.9,31.1,11.2c19.3,4.1,42.7,6.7,62.6,1.6c2.2-0.1,4.3-0.2,6.5-0.3c0,0,0,0.1,0,0.1c2.4,8,7,15.5,7.1,23.9&#10;&#9;&#9;&#9;&#9;&#9;c0.1,7.3,1.3,13,1.3,21.9c0,0.2,0,0.3,0.1,0.5c0,0.1,0,0.2,0,0.2c-0.1,0.5-0.2,1-0.2,1.5c-3.4,23.1-5.8,46.6-5.9,70&#10;&#9;&#9;&#9;&#9;&#9;c0,4.4,2.6,3.7,5.3,3.8c2.8,0.1,4.7,0.9,4.7-3.8c0.1-23.9,6.5-47.8,10.1-71.4c0.5-3,1-6.1,1.5-9.1c0,0.1,0,0.3,0.1,0.4&#10;&#9;&#9;&#9;&#9;&#9;c2-10.1,7.9-27.8,26.1-48.8c1.1-1.3,2.1-2.7,3.1-4.3c0.7-1.9,1.3-3.8,1.9-5.8c3.1-10.3,3.1-20.9,2.7-31.5&#10;&#9;&#9;&#9;&#9;&#9;c-0.1-2.9-0.2-5.8-0.5-8.7c4.1-15.2,17.8-39,23-47.8c12.7,3.5,27.1,7.5,37.5,9.7C392.8,671.7,396.4,658.1,392.9,655.4z&#10;&#9;&#9;&#9;&#9;&#9; M128.3,799.2c0.1-0.4,0.2-0.7,0.3-1.1c0.1,0,0.3,0.1,0.4,0.1C128.8,798.5,128.6,798.9,128.3,799.2z" style="fill: rgb(170, 136, 113);"/>
				<path class="st40" d="M288.7,806.8c0.4,2.9,1,6.1,1.8,9.8c-1.1,22.6,0.1,46.3,0.2,68.9c0,4.5,2.8,3.8,5.5,3.8s4.5,0.7,4.5-3.8&#10;&#9;&#9;&#9;&#9;&#9;c0-24.2,2.7-49.5,4.1-73.7c0.7-11.8,2-23.7,5-35.2c2-7.9,5.4-15.3,8.1-22.9c-0.9,1.5-1.9,3-3.1,4.3&#10;&#9;&#9;&#9;&#9;&#9;C296.6,779,290.6,796.7,288.7,806.8z" style="fill: rgb(153, 121, 100);"/>
			</g><path class="st42" d="M357.5,636.2c0,2.6-2.1,2.8-4.8,2.8s-4.8-0.1-4.8-2.8s2.1-4.8,4.8-4.8S357.5,633.6,357.5,636.2z" style="fill: rgb(89, 73, 62); clip-path: url('#SVGID_2_');" transform="matrix(1, 0, 0, 1, 1.1368683772161603e-13, 2.842170943040401e-14)"/><path d="M 355.099994 633.599976 A 1.2 1.2 0 0 1 353.899994 634.799976 A 1.2 1.2 0 0 1 352.699994 633.599976 A 1.2 1.2 0 0 1 353.899994 632.399976 A 1.2 1.2 0 0 1 355.099994 633.599976 Z" class="st42" style="fill: rgb(89, 73, 62); clip-path: url('#SVGID_2_');" transform="matrix(1, 0, 0, 1, 1.1368683772161603e-13, 2.842170943040401e-14)"/><path d="M 352.099988 635.200012 A 0.8 0.8 0 0 1 351.299988 636.000012 A 0.8 0.8 0 0 1 350.499988 635.200012 A 0.8 0.8 0 0 1 351.299988 634.400012 A 0.8 0.8 0 0 1 352.099988 635.200012 Z" class="st42" style="fill: rgb(89, 73, 62); clip-path: url('#SVGID_2_');" transform="matrix(1, 0, 0, 1, 1.1368683772161603e-13, 2.842170943040401e-14)"/><path class="st42" d="M332.5,620.8c0,0-2.7-14.5-24.8-17.8c0,0-6.7,0.5-1.2,7.7s8.3,13.2,18.2,13.2" style="fill: rgb(89, 73, 62); clip-path: url('#SVGID_2_');" transform="matrix(1, 0, 0, 1, 1.1368683772161603e-13, 2.842170943040401e-14)"/><path class="st42" d="M388.2,655.8c0,0,3.4,1.8,3.8,2.8c0.3,0.8-1,3.5-1,3.5S385,661.7,388.2,655.8z" style="fill: rgb(89, 73, 62); clip-path: url('#SVGID_2_');" transform="matrix(1, 0, 0, 1, 1.1368683772161603e-13, 2.842170943040401e-14)"/><path class="st42" d="M356.5,620.6l-5.2-3.7c0,0,14.6-6.8,15.4-10.7S367.1,609.8,356.5,620.6z" style="fill: rgb(89, 73, 62); clip-path: url('#SVGID_2_');" transform="matrix(1, 0, 0, 1, 1.1368683772161603e-13, 2.842170943040401e-14)"/><path class="st43" d="M389,668.6c0,0-10.5-3.4-12-4.1" style="fill: none; stroke: rgb(89, 73, 62); stroke-miterlimit: 10; clip-path: url('#SVGID_2_');" transform="matrix(1, 0, 0, 1, 1.1368683772161603e-13, 2.842170943040401e-14)"/><path class="st40" d="M116,715.5c0,8.9-5.8,12.4-6.8,16.2c-2.4,8.8-7.1-7.2-7.1-16.2s12.9-16.2,16.9-16.2S116,706.6,116,715.5z" style="fill: rgb(153, 121, 100); clip-path: url('#SVGID_2_');" transform="matrix(1, 0, 0, 1, 8.526512829121202e-14, 2.1316282072803006e-14)"/><g transform="matrix(1, 0, 0, 1, 8.526512829121202e-14, 2.1316282072803006e-14)" style="clip-path: url('#SVGID_2_');">
				
					<linearGradient id="SVGID_39_" gradientUnits="userSpaceOnUse" x1="805.0958" y1="685.8736" x2="857.5349" y2="685.8736" gradientTransform="matrix(-0.6791 -0.734 0.734 -0.6791 840.4408 1721.5601)">
					<stop offset="0" style="stop-color:#F38A8C"/>
					<stop offset="0.2114" style="stop-color:#F38E8E"/>
					<stop offset="0.4403" style="stop-color:#F49B94"/>
					<stop offset="0.6774" style="stop-color:#F5B19F"/>
					<stop offset="0.9186" style="stop-color:#F6CFAD"/>
					<stop offset="1" style="stop-color:#F7DBB3"/>
				</linearGradient>
				<path class="st44" d="M767.4,636c-1.3,0.9-2.6,2-3.9,3c-20.2,16.3-10.3,12.1-7.1,15.7c0.6,0.7,1.5,1.2,2.4,1.5&#10;&#9;&#9;&#9;&#9;&#9;c-1.6,2.8-5.6,10.1-3.8,12c1.8,2,8.9-2,11.9-3.6c0.2,1.1,0.6,2.1,1.3,2.9c3.3,3.5-0.2,14.7,16.2-5.8c1.1-1.4,2.4-2.4,3.3-3.7&#10;&#9;&#9;&#9;&#9;&#9;c3.5,2.9,2.2,18.9,16.1-1.2c4-5.8,9.6-14.2,6.3-17.7c-0.5-0.5-1-0.9-1.6-1.2c2.5-6.6-0.9-10.6-4.9-14.9c-4-4.3-7.7-8-14.5-6&#10;&#9;&#9;&#9;&#9;&#9;c-0.3-0.6-0.6-1.2-1.1-1.6c-3.3-3.6-12.3,1.1-18.2,4.9C750.6,632.2,764.7,632.3,767.4,636z" style="fill: url('#SVGID_39_');"/>
				<path class="st45" d="M812.4,612.1c0,0-40.6,42.3-51.6,50.6" style="fill: none; stroke: rgb(158, 125, 102); stroke-miterlimit: 10;"/>
				<path class="st45" d="M796.2,628.7c0,0-18.9-1.5-22.9-1.2" style="fill: none; stroke: rgb(158, 125, 102); stroke-miterlimit: 10;"/>
				<path d="M 779.400024 645.599976 L 760.200012 648.200012" class="st45" style="fill: none; stroke: rgb(158, 125, 102); stroke-miterlimit: 10;"/>
				<path d="M 792.099976 632.900024 L 796.400024 657.900024" class="st45" style="fill: none; stroke: rgb(158, 125, 102); stroke-miterlimit: 10;"/>
				<path d="M 773.799988 651.200012 L 773.5 666.200012" class="st45" style="fill: none; stroke: rgb(158, 125, 102); stroke-miterlimit: 10;"/>
			</g><linearGradient id="SVGID_40_" gradientUnits="userSpaceOnUse" x1="616.2259" y1="835.7379" x2="652.1131" y2="835.7379" gradientTransform="matrix(-0.6791 -0.734 0.734 -0.6791 840.4408 1721.5601)" style="clip-path: url('#SVGID_2_');">
					<stop offset="0" style="stop-color:#F38A8C"/>
					<stop offset="0.2114" style="stop-color:#F38E8E"/>
					<stop offset="0.4403" style="stop-color:#F49B94"/>
					<stop offset="0.6774" style="stop-color:#F5B19F"/>
					<stop offset="0.9186" style="stop-color:#F6CFAD"/>
					<stop offset="1" style="stop-color:#F7DBB3"/>
				</linearGradient><path class="st46" d="M1015,682c-0.9,0.6-1.8,1.3-2.7,2.1c-13.9,11.2-7.1,8.3-4.8,10.7c0.4,0.5,1,0.8,1.7,1&#10;&#9;&#9;&#9;&#9;&#9;c-1.1,1.9-3.8,6.9-2.6,8.2c1.2,1.3,6.1-1.4,8.1-2.4c0.1,0.8,0.4,1.4,0.9,2c2.2,2.4-0.2,10.1,11.1-4c0.7-0.9,1.6-1.7,2.3-2.5&#10;&#9;&#9;&#9;&#9;&#9;c2.4,2,1.5,13,11-0.8c2.7-3.9,6.5-9.7,4.3-12.1c-0.3-0.3-0.7-0.6-1.1-0.8c1.7-4.5-0.6-7.2-3.3-10.2c-2.7-3-5.3-5.5-9.9-4.1&#10;&#9;&#9;&#9;&#9;&#9;c-0.2-0.4-0.4-0.8-0.7-1.1c-2.3-2.4-8.4,0.8-12.4,3.3C1003.5,679.4,1013.2,679.5,1015,682z" style="fill: url('#SVGID_40_'); clip-path: url('#SVGID_2_');" transform="matrix(1, 0, 0, 1, 1.1368683772161603e-13, 2.842170943040401e-14)"/><path class="st45" d="M1045.8,665.6c0,0-27.8,28.9-35.3,34.6" style="fill: none; stroke: rgb(158, 125, 102); stroke-miterlimit: 10; clip-path: url('#SVGID_2_');" transform="matrix(1, 0, 0, 1, 1.1368683772161603e-13, 2.842170943040401e-14)"/><path class="st45" d="M1034.8,677c0,0-13-1-15.7-0.8" style="fill: none; stroke: rgb(158, 125, 102); stroke-miterlimit: 10; clip-path: url('#SVGID_2_');" transform="matrix(1, 0, 0, 1, 1.1368683772161603e-13, 2.842170943040401e-14)"/><path d="M 1023.200012 688.599976 L 1010.099976 690.299988" class="st45" style="fill: none; stroke: rgb(158, 125, 102); stroke-miterlimit: 10; clip-path: url('#SVGID_2_');" transform="matrix(1, 0, 0, 1, 1.1368683772161603e-13, 2.842170943040401e-14)"/><path d="M 1031.900024 679.900024 L 1034.900024 696.900024" class="st45" style="fill: none; stroke: rgb(158, 125, 102); stroke-miterlimit: 10; clip-path: url('#SVGID_2_');" transform="matrix(1, 0, 0, 1, 1.1368683772161603e-13, 2.842170943040401e-14)"/><path d="M 1019.400024 692.400024 L 1019.200012 702.599976" class="st45" style="fill: none; stroke: rgb(158, 125, 102); stroke-miterlimit: 10; clip-path: url('#SVGID_2_');" transform="matrix(1, 0, 0, 1, 1.1368683772161603e-13, 2.842170943040401e-14)"/><linearGradient id="SVGID_41_" gradientUnits="userSpaceOnUse" x1="667.4841" y1="723.6153" x2="703.3707" y2="723.6153" gradientTransform="matrix(-0.1437 -0.9896 0.9896 -0.1437 253.4093 1528.2883)" style="clip-path: url('#SVGID_2_');">
					<stop offset="0" style="stop-color:#F38A8C"/>
					<stop offset="0.2114" style="stop-color:#F38E8E"/>
					<stop offset="0.4403" style="stop-color:#F49B94"/>
					<stop offset="0.6774" style="stop-color:#F5B19F"/>
					<stop offset="0.9186" style="stop-color:#F6CFAD"/>
					<stop offset="1" style="stop-color:#F7DBB3"/>
				</linearGradient><path class="st47" d="M868,736c-1.1,0-2.2,0.1-3.4,0.2c-17.8,1.4-10.5,2.8-10.1,6.1c0.1,0.6,0.4,1.2,0.8,1.8&#10;&#9;&#9;&#9;&#9;&#9;c-2,0.9-7.1,3.5-6.8,5.3c0.3,1.8,5.8,2.3,8.1,2.6c-0.3,0.7-0.5,1.4-0.4,2.1c0.5,3.2-5.8,8.2,11.4,3c1.1-0.3,2.3-0.4,3.3-0.8&#10;&#9;&#9;&#9;&#9;&#9;c0.8,3-6.1,11.5,9.5,5.6c4.5-1.7,10.9-4.3,10.4-7.6c-0.1-0.5-0.2-0.9-0.4-1.3c4-2.8,3.6-6.3,3-10.3c-0.6-4-1.2-7.5-5.8-9&#10;&#9;&#9;&#9;&#9;&#9;c0.1-0.4,0.1-0.9,0-1.3c-0.5-3.3-7.4-4.1-12.1-4.3C860,727.3,867.9,732.9,868,736z" style="fill: url('#SVGID_41_'); clip-path: url('#SVGID_2_');" transform="matrix(1, 0, 0, 1, 1.1368683772161603e-13, 2.842170943040401e-14)"/><path class="st45" d="M902.6,740c0,0-39.3,8.1-48.7,8.5" style="fill: none; stroke: rgb(158, 125, 102); stroke-miterlimit: 10; clip-path: url('#SVGID_2_');" transform="matrix(1, 0, 0, 1, 1.1368683772161603e-13, 2.842170943040401e-14)"/><path class="st45" d="M887.1,743.1c0,0-10.1-8.2-12.5-9.6" style="fill: none; stroke: rgb(158, 125, 102); stroke-miterlimit: 10; clip-path: url('#SVGID_2_');" transform="matrix(1, 0, 0, 1, 1.1368683772161603e-13, 2.842170943040401e-14)"/><path d="M 871 746 L 859.200012 740" class="st45" style="fill: none; stroke: rgb(158, 125, 102); stroke-miterlimit: 10; clip-path: url('#SVGID_2_');" transform="matrix(1, 0, 0, 1, 1.1368683772161603e-13, 2.842170943040401e-14)"/><path d="M 883.099976 743.799988 L 875.900024 759.599976" class="st45" style="fill: none; stroke: rgb(158, 125, 102); stroke-miterlimit: 10; clip-path: url('#SVGID_2_');" transform="matrix(1, 0, 0, 1, 1.1368683772161603e-13, 2.842170943040401e-14)"/><path d="M 865.700012 747 L 859.700012 755.299988" class="st45" style="fill: none; stroke: rgb(158, 125, 102); stroke-miterlimit: 10; clip-path: url('#SVGID_2_');" transform="matrix(1, 0, 0, 1, 1.1368683772161603e-13, 2.842170943040401e-14)"/><linearGradient id="SVGID_42_" gradientUnits="userSpaceOnUse" x1="599.5206" y1="334.1224" x2="629.4006" y2="334.1224" gradientTransform="matrix(-0.1437 -0.9896 0.9896 -0.1437 253.4093 1528.2883)" style="clip-path: url('#SVGID_2_');">
					<stop offset="0" style="stop-color:#F38A8C"/>
					<stop offset="0.2114" style="stop-color:#F38E8E"/>
					<stop offset="0.4403" style="stop-color:#F49B94"/>
					<stop offset="0.6774" style="stop-color:#F5B19F"/>
					<stop offset="0.9186" style="stop-color:#F6CFAD"/>
					<stop offset="1" style="stop-color:#F7DBB3"/>
				</linearGradient><path class="st48" d="M493.2,863.8c-0.9,0-1.8,0.1-2.8,0.2c-14.8,1.1-8.8,2.4-8.4,5.1c0.1,0.5,0.3,1,0.7,1.5&#10;&#9;&#9;&#9;&#9;&#9;c-1.7,0.8-5.9,2.9-5.7,4.4c0.2,1.5,4.9,1.9,6.7,2.2c-0.3,0.6-0.4,1.2-0.3,1.8c0.4,2.7-4.8,6.8,9.5,2.5c0.9-0.3,1.9-0.4,2.8-0.7&#10;&#9;&#9;&#9;&#9;&#9;c0.7,2.5-5.1,9.6,7.9,4.6c3.7-1.4,9.1-3.6,8.7-6.3c-0.1-0.4-0.2-0.7-0.3-1.1c3.3-2.3,3-5.2,2.5-8.6c-0.5-3.3-1-6.3-4.9-7.5&#10;&#9;&#9;&#9;&#9;&#9;c0.1-0.4,0.1-0.7,0-1.1c-0.4-2.7-6.1-3.4-10.1-3.6C486.6,856.6,493.2,861.3,493.2,863.8z" style="fill: url('#SVGID_42_'); clip-path: url('#SVGID_2_');" transform="matrix(1, 0, 0, 1, 1.1368683772161603e-13, 2.842170943040401e-14)"/><path class="st45" d="M522.1,867.2c0,0-32.7,6.8-40.6,7.1" style="fill: none; stroke: rgb(158, 125, 102); stroke-miterlimit: 10; clip-path: url('#SVGID_2_');" transform="matrix(1, 0, 0, 1, 1.1368683772161603e-13, 2.842170943040401e-14)"/><path class="st45" d="M509.1,869.7c0,0-8.4-6.8-10.4-8" style="fill: none; stroke: rgb(158, 125, 102); stroke-miterlimit: 10; clip-path: url('#SVGID_2_');" transform="matrix(1, 0, 0, 1, 1.1368683772161603e-13, 2.842170943040401e-14)"/><path d="M 495.799988 872.200012 L 486 867.200012" class="st45" style="fill: none; stroke: rgb(158, 125, 102); stroke-miterlimit: 10; clip-path: url('#SVGID_2_');" transform="matrix(1, 0, 0, 1, 1.1368683772161603e-13, 2.842170943040401e-14)"/><path d="M 505.799988 870.400024 L 499.799988 883.5" class="st45" style="fill: none; stroke: rgb(158, 125, 102); stroke-miterlimit: 10; clip-path: url('#SVGID_2_');" transform="matrix(1, 0, 0, 1, 1.1368683772161603e-13, 2.842170943040401e-14)"/><path d="M 491.299988 873 L 486.399994 880" class="st45" style="fill: none; stroke: rgb(158, 125, 102); stroke-miterlimit: 10; clip-path: url('#SVGID_2_');" transform="matrix(1, 0, 0, 1, 1.1368683772161603e-13, 2.842170943040401e-14)"/><linearGradient id="SVGID_43_" gradientUnits="userSpaceOnUse" x1="759.7009" y1="406.7793" x2="798.2311" y2="406.7793" gradientTransform="matrix(-0.9682 -0.25 0.25 -0.9682 1197.7852 1287.7941)" style="clip-path: url('#SVGID_2_');">
					<stop offset="0" style="stop-color:#F38A8C"/>
					<stop offset="0.2114" style="stop-color:#F38E8E"/>
					<stop offset="0.4403" style="stop-color:#F49B94"/>
					<stop offset="0.6774" style="stop-color:#F5B19F"/>
					<stop offset="0.9186" style="stop-color:#F6CFAD"/>
					<stop offset="1" style="stop-color:#F7DBB3"/>
				</linearGradient><path class="st49" d="M534.1,698c-0.5,1.1-0.8,2.2-1.2,3.4c-6,18.1-1.6,11.6,1.9,12.5c0.7,0.2,1.4,0.1,2.1-0.1&#10;&#9;&#9;&#9;&#9;&#9;c0.1,2.4,0.5,8.4,2.4,8.9c1.9,0.5,4.7-4.8,5.9-6.9c0.6,0.6,1.2,1.1,2,1.3c3.4,0.9,5.7,9.2,7.7-10c0.1-1.3,0.5-2.4,0.6-3.6&#10;&#9;&#9;&#9;&#9;&#9;c3.3,0.4,8.9,10.8,9.4-7.1c0.2-5.1,0.3-12.6-3.2-13.5c-0.5-0.1-1-0.2-1.5-0.1c-1.1-5.1-4.7-6.2-8.9-7.3c-4.2-1.1-7.9-1.9-11.3,2&#10;&#9;&#9;&#9;&#9;&#9;c-0.4-0.3-0.8-0.5-1.3-0.6c-3.4-0.9-7.1,5.6-9.3,10.2C522.2,702.4,531,696.8,534.1,698z" style="fill: url('#SVGID_43_'); clip-path: url('#SVGID_2_');" transform="matrix(1, 0, 0, 1, 1.1368683772161603e-13, 2.842170943040401e-14)"/><path class="st45" d="M552.4,665.4c0,0-8.3,42.3-11.8,51.8" style="fill: none; stroke: rgb(158, 125, 102); stroke-miterlimit: 10; clip-path: url('#SVGID_2_');" transform="matrix(1, 0, 0, 1, 1.1368683772161603e-13, 2.842170943040401e-14)"/><path class="st45" d="M549,682.1c0,0-12.3,6.6-14.7,8.4" style="fill: none; stroke: rgb(158, 125, 102); stroke-miterlimit: 10; clip-path: url('#SVGID_2_');" transform="matrix(1, 0, 0, 1, 1.1368683772161603e-13, 2.842170943040401e-14)"/><path d="M 545.299988 699.200012 L 534.5 708.400024" class="st45" style="fill: none; stroke: rgb(158, 125, 102); stroke-miterlimit: 10; clip-path: url('#SVGID_2_');" transform="matrix(1, 0, 0, 1, 1.1368683772161603e-13, 2.842170943040401e-14)"/><path d="M 548.099976 686.299988 L 560.700012 700" class="st45" style="fill: none; stroke: rgb(158, 125, 102); stroke-miterlimit: 10; clip-path: url('#SVGID_2_');" transform="matrix(1, 0, 0, 1, 1.1368683772161603e-13, 2.842170943040401e-14)"/><path d="M 544.099976 704.900024 L 549.799988 714.299988" class="st45" style="fill: none; stroke: rgb(158, 125, 102); stroke-miterlimit: 10; clip-path: url('#SVGID_2_');" transform="matrix(1, 0, 0, 1, 1.1368683772161603e-13, 2.842170943040401e-14)"/><linearGradient id="SVGID_44_" gradientUnits="userSpaceOnUse" x1="472.7657" y1="294.6697" x2="511.294" y2="294.6697" gradientTransform="matrix(-0.5395 -0.842 0.842 -0.5395 808.6268 1450.3026)" style="clip-path: url('#SVGID_2_');">
					<stop offset="0" style="stop-color:#F38A8C"/>
					<stop offset="0.2114" style="stop-color:#F38E8E"/>
					<stop offset="0.4403" style="stop-color:#F49B94"/>
					<stop offset="0.6774" style="stop-color:#F5B19F"/>
					<stop offset="0.9186" style="stop-color:#F6CFAD"/>
					<stop offset="1" style="stop-color:#F7DBB3"/>
				</linearGradient><path class="st50" d="M783.9,868.6c-1.1,0.4-2.1,1.1-3.2,1.7c-16.8,9.2-9,7.4-7.1,10.4c0.4,0.6,0.9,1,1.6,1.4&#10;&#9;&#9;&#9;&#9;&#9;c-1.5,1.8-5.4,6.6-4.3,8.2c1.1,1.7,6.7-0.3,9.1-1c0,0.8,0.2,1.6,0.6,2.3c1.9,3-2.1,10.6,12.4-2.1c1-0.8,2-1.4,2.9-2.2&#10;&#9;&#9;&#9;&#9;&#9;c2.1,2.6-0.9,14,11.8,1.2c3.6-3.7,8.7-9,6.8-12c-0.3-0.4-0.6-0.8-1-1.1c2.7-4.5,0.7-7.8-1.6-11.4c-2.3-3.7-4.5-6.8-9.7-6.2&#10;&#9;&#9;&#9;&#9;&#9;c-0.1-0.5-0.3-0.9-0.6-1.3c-1.9-3-9-0.8-13.8,1.2C772.2,863.6,782.4,865.6,783.9,868.6z" style="fill: url('#SVGID_44_'); clip-path: url('#SVGID_2_');" transform="matrix(1, 0, 0, 1, 1.1368683772161603e-13, 2.842170943040401e-14)"/><path class="st45" d="M819.5,857.1c0,0-34.8,25.3-43.9,29.9" style="fill: none; stroke: rgb(158, 125, 102); stroke-miterlimit: 10; clip-path: url('#SVGID_2_');" transform="matrix(1, 0, 0, 1, 1.1368683772161603e-13, 2.842170943040401e-14)"/><path class="st45" d="M805.7,867c0,0-13.5-3.5-16.4-3.8" style="fill: none; stroke: rgb(158, 125, 102); stroke-miterlimit: 10; clip-path: url('#SVGID_2_');" transform="matrix(1, 0, 0, 1, 1.1368683772161603e-13, 2.842170943040401e-14)"/><path d="M 791.299988 877.099976 L 777.099976 876.400024" class="st45" style="fill: none; stroke: rgb(158, 125, 102); stroke-miterlimit: 10; clip-path: url('#SVGID_2_');" transform="matrix(1, 0, 0, 1, 1.1368683772161603e-13, 2.842170943040401e-14)"/><path d="M 802.099976 869.5 L 802.099976 888.099976" class="st45" style="fill: none; stroke: rgb(158, 125, 102); stroke-miterlimit: 10; clip-path: url('#SVGID_2_');" transform="matrix(1, 0, 0, 1, 1.1368683772161603e-13, 2.842170943040401e-14)"/><path d="M 786.5 880.400024 L 784.400024 891.200012" class="st45" style="fill: none; stroke: rgb(158, 125, 102); stroke-miterlimit: 10; clip-path: url('#SVGID_2_');" transform="matrix(1, 0, 0, 1, 1.1368683772161603e-13, 2.842170943040401e-14)"/><linearGradient id="SVGID_45_" gradientUnits="userSpaceOnUse" x1="336.7001" y1="803.6733" x2="360.6573" y2="803.6733" gradientTransform="matrix(-0.5395 -0.842 0.842 -0.5395 808.6268 1450.3026)" style="clip-path: url('#SVGID_2_');">
					<stop offset="0" style="stop-color:#F38A8C"/>
					<stop offset="0.2114" style="stop-color:#F38E8E"/>
					<stop offset="0.4403" style="stop-color:#F49B94"/>
					<stop offset="0.6774" style="stop-color:#F5B19F"/>
					<stop offset="0.9186" style="stop-color:#F6CFAD"/>
					<stop offset="1" style="stop-color:#F7DBB3"/>
				</linearGradient><path class="st51" d="M1292.6,717.9c-0.7,0.3-1.3,0.7-2,1.1c-10.4,5.7-5.6,4.6-4.4,6.5c0.2,0.4,0.6,0.6,1,0.9&#10;&#9;&#9;&#9;&#9;&#9;c-1,1.1-3.3,4.1-2.7,5.1c0.7,1,4.2-0.2,5.6-0.6c0,0.5,0.1,1,0.4,1.4c1.2,1.8-1.3,6.6,7.7-1.3c0.6-0.5,1.3-0.9,1.8-1.4&#10;&#9;&#9;&#9;&#9;&#9;c1.3,1.6-0.5,8.7,7.3,0.8c2.2-2.3,5.4-5.6,4.2-7.5c-0.2-0.3-0.4-0.5-0.6-0.7c1.7-2.8,0.5-4.8-1-7.1c-1.5-2.3-2.8-4.2-6-3.9&#10;&#9;&#9;&#9;&#9;&#9;c-0.1-0.3-0.2-0.6-0.4-0.8c-1.2-1.9-5.6-0.5-8.6,0.7C1285.3,714.8,1291.7,716,1292.6,717.9z" style="fill: url('#SVGID_45_'); clip-path: url('#SVGID_2_');" transform="matrix(1, 0, 0, 1, 1.1368683772161603e-13, 2.842170943040401e-14)"/><path class="st45" d="M1314.8,710.7c0,0-21.6,15.8-27.3,18.6" style="fill: none; stroke: rgb(158, 125, 102); stroke-miterlimit: 10; clip-path: url('#SVGID_2_');" transform="matrix(1, 0, 0, 1, 1.1368683772161603e-13, 2.842170943040401e-14)"/><path class="st45" d="M1306.2,716.9c0,0-8.4-2.2-10.2-2.4" style="fill: none; stroke: rgb(158, 125, 102); stroke-miterlimit: 10; clip-path: url('#SVGID_2_');" transform="matrix(1, 0, 0, 1, 1.1368683772161603e-13, 2.842170943040401e-14)"/><path d="M 1297.199951 723.200012 L 1288.400024 722.700012" class="st45" style="fill: none; stroke: rgb(158, 125, 102); stroke-miterlimit: 10; clip-path: url('#SVGID_2_');" transform="matrix(1, 0, 0, 1, 1.1368683772161603e-13, 2.842170943040401e-14)"/><path d="M 1304 718.5 L 1303.900024 730" class="st45" style="fill: none; stroke: rgb(158, 125, 102); stroke-miterlimit: 10; clip-path: url('#SVGID_2_');" transform="matrix(1, 0, 0, 1, 1.1368683772161603e-13, 2.842170943040401e-14)"/><path d="M 1294.300049 725.200012 L 1292.900024 731.900024" class="st45" style="fill: none; stroke: rgb(158, 125, 102); stroke-miterlimit: 10; clip-path: url('#SVGID_2_');" transform="matrix(1, 0, 0, 1, 1.1368683772161603e-13, 2.842170943040401e-14)"/><linearGradient id="SVGID_46_" gradientUnits="userSpaceOnUse" x1="301.2451" y1="651.9183" x2="334.3285" y2="651.9183" gradientTransform="matrix(-0.835 -0.5502 0.5502 -0.835 1094.2595 1552.025)" style="clip-path: url('#SVGID_2_');">
					<stop offset="0" style="stop-color:#F38A8C"/>
					<stop offset="0.2114" style="stop-color:#F38E8E"/>
					<stop offset="0.4403" style="stop-color:#F49B94"/>
					<stop offset="0.6774" style="stop-color:#F5B19F"/>
					<stop offset="0.9186" style="stop-color:#F6CFAD"/>
					<stop offset="1" style="stop-color:#F7DBB3"/>
				</linearGradient><path class="st52" d="M1178.8,828.8c-0.7,0.7-1.3,1.6-2,2.5c-9.9,13.1-4.5,9-2,10.7c0.5,0.3,1.1,0.5,1.7,0.5&#10;&#9;&#9;&#9;&#9;&#9;c-0.6,2-1.9,7-0.5,7.9c1.4,0.9,5.2-2.6,6.7-4c0.3,0.7,0.7,1.2,1.2,1.6c2.5,1.7,2.1,9,9-6c0.5-1,1.1-1.8,1.5-2.8&#10;&#9;&#9;&#9;&#9;&#9;c2.6,1.3,4.2,11.3,9.7-3.2c1.6-4.1,3.7-10.1,1.2-11.8c-0.4-0.2-0.7-0.4-1.1-0.5c0.6-4.5-2.1-6.4-5.2-8.4c-3.1-2-5.9-3.8-9.8-1.5&#10;&#9;&#9;&#9;&#9;&#9;c-0.3-0.3-0.6-0.6-0.9-0.8c-2.5-1.7-7.3,2.6-10.4,5.7C1167.9,829,1176.6,826.9,1178.8,828.8z" style="fill: url('#SVGID_46_'); clip-path: url('#SVGID_2_');" transform="matrix(1, 0, 0, 1, 1.1368683772161603e-13, 2.842170943040401e-14)"/><path class="st45" d="M1202.8,807.3c0,0-18.5,32-24,38.8" style="fill: none; stroke: rgb(158, 125, 102); stroke-miterlimit: 10; clip-path: url('#SVGID_2_');" transform="matrix(1, 0, 0, 1, 1.1368683772161603e-13, 2.842170943040401e-14)"/><path class="st45" d="M1195.4,820c0,0-11.8,1.9-14.2,2.7" style="fill: none; stroke: rgb(158, 125, 102); stroke-miterlimit: 10; clip-path: url('#SVGID_2_');" transform="matrix(1, 0, 0, 1, 1.1368683772161603e-13, 2.842170943040401e-14)"/><path d="M 1187.599976 832.799988 L 1176.300049 837.299988" class="st45" style="fill: none; stroke: rgb(158, 125, 102); stroke-miterlimit: 10; clip-path: url('#SVGID_2_');" transform="matrix(1, 0, 0, 1, 1.1368683772161603e-13, 2.842170943040401e-14)"/><path d="M 1193.5 823.099976 L 1199.900024 837.799988" class="st45" style="fill: none; stroke: rgb(158, 125, 102); stroke-miterlimit: 10; clip-path: url('#SVGID_2_');" transform="matrix(1, 0, 0, 1, 1.1368683772161603e-13, 2.842170943040401e-14)"/><path d="M 1185 837.099976 L 1187.099976 846.299988" class="st45" style="fill: none; stroke: rgb(158, 125, 102); stroke-miterlimit: 10; clip-path: url('#SVGID_2_');" transform="matrix(1, 0, 0, 1, 1.1368683772161603e-13, 2.842170943040401e-14)"/><linearGradient id="SVGID_47_" gradientUnits="userSpaceOnUse" x1="421.1549" y1="532.1885" x2="454.2383" y2="532.1885" gradientTransform="matrix(-0.835 -0.5502 0.5502 -0.835 1094.2595 1552.025)" style="clip-path: url('#SVGID_2_');">
					<stop offset="0" style="stop-color:#F38A8C"/>
					<stop offset="0.2114" style="stop-color:#F38E8E"/>
					<stop offset="0.4403" style="stop-color:#F49B94"/>
					<stop offset="0.6774" style="stop-color:#F5B19F"/>
					<stop offset="0.9186" style="stop-color:#F6CFAD"/>
					<stop offset="1" style="stop-color:#F7DBB3"/>
				</linearGradient><path class="st53" d="M1012.8,862.8c-0.7,0.7-1.3,1.6-2,2.5c-9.9,13.1-4.5,9-2,10.7c0.5,0.3,1.1,0.5,1.7,0.5&#10;&#9;&#9;&#9;&#9;&#9;c-0.6,2-1.9,7-0.5,7.9c1.4,0.9,5.2-2.6,6.7-4c0.3,0.7,0.7,1.2,1.2,1.6c2.5,1.7,2.1,9,9-6c0.5-1,1.1-1.8,1.5-2.8&#10;&#9;&#9;&#9;&#9;&#9;c2.6,1.3,4.2,11.3,9.7-3.2c1.6-4.1,3.7-10.1,1.2-11.8c-0.4-0.2-0.7-0.4-1.1-0.5c0.6-4.5-2.1-6.4-5.2-8.4c-3.1-2-5.9-3.8-9.8-1.5&#10;&#9;&#9;&#9;&#9;&#9;c-0.3-0.3-0.6-0.6-0.9-0.8c-2.5-1.7-7.3,2.6-10.4,5.7C1001.9,863,1010.6,860.9,1012.8,862.8z" style="fill: url('#SVGID_47_'); clip-path: url('#SVGID_2_');" transform="matrix(1, 0, 0, 1, 1.1368683772161603e-13, 2.842170943040401e-14)"/><path class="st45" d="M1036.8,841.3c0,0-18.5,32-24,38.8" style="fill: none; stroke: rgb(158, 125, 102); stroke-miterlimit: 10; clip-path: url('#SVGID_2_');" transform="matrix(1, 0, 0, 1, 1.1368683772161603e-13, 2.842170943040401e-14)"/><path class="st45" d="M1029.4,854c0,0-11.8,1.9-14.2,2.7" style="fill: none; stroke: rgb(158, 125, 102); stroke-miterlimit: 10; clip-path: url('#SVGID_2_');" transform="matrix(1, 0, 0, 1, 1.1368683772161603e-13, 2.842170943040401e-14)"/><path d="M 1021.599976 866.799988 L 1010.299988 871.299988" class="st45" style="fill: none; stroke: rgb(158, 125, 102); stroke-miterlimit: 10; clip-path: url('#SVGID_2_');" transform="matrix(1, 0, 0, 1, 1.1368683772161603e-13, 2.842170943040401e-14)"/><path d="M 1027.5 857.099976 L 1033.900024 871.799988" class="st45" style="fill: none; stroke: rgb(158, 125, 102); stroke-miterlimit: 10; clip-path: url('#SVGID_2_');" transform="matrix(1, 0, 0, 1, 1.1368683772161603e-13, 2.842170943040401e-14)"/><path d="M 1019 871.099976 L 1021.099976 880.299988" class="st45" style="fill: none; stroke: rgb(158, 125, 102); stroke-miterlimit: 10; clip-path: url('#SVGID_2_');" transform="matrix(1, 0, 0, 1, 1.1368683772161603e-13, 2.842170943040401e-14)"/><linearGradient id="SVGID_48_" gradientUnits="userSpaceOnUse" x1="389.0351" y1="793.8421" x2="422.118" y2="793.8421" gradientTransform="matrix(-0.9501 -0.3119 0.3119 -0.9501 1331.3678 1547.0558)" style="clip-path: url('#SVGID_2_');">
					<stop offset="0" style="stop-color:#F38A8C"/>
					<stop offset="0.2114" style="stop-color:#F38E8E"/>
					<stop offset="0.4403" style="stop-color:#F49B94"/>
					<stop offset="0.6774" style="stop-color:#F5B19F"/>
					<stop offset="0.9186" style="stop-color:#F6CFAD"/>
					<stop offset="1" style="stop-color:#F7DBB3"/>
				</linearGradient><path class="st54" d="M1184.1,664.7c-0.5,0.9-0.8,1.9-1.2,2.9c-6.2,15.2-2,9.9,0.9,10.8c0.6,0.2,1.2,0.2,1.8,0.1&#10;&#9;&#9;&#9;&#9;&#9;c-0.1,2,0,7.3,1.6,7.8c1.6,0.5,4.3-3.9,5.5-5.6c0.4,0.6,1,1,1.6,1.2c2.9,0.9,4.4,8.2,7.1-8.2c0.2-1.1,0.6-2.1,0.7-3.1&#10;&#9;&#9;&#9;&#9;&#9;c2.8,0.6,7,9.8,8.5-5.6c0.4-4.4,0.9-10.8-2-11.7c-0.4-0.1-0.8-0.2-1.2-0.2c-0.6-4.4-3.7-5.6-7.3-6.7c-3.5-1.2-6.7-2.1-9.8,1.1&#10;&#9;&#9;&#9;&#9;&#9;c-0.3-0.2-0.7-0.4-1.1-0.6c-2.9-1-6.4,4.4-8.5,8.3C1173.7,667.8,1181.5,663.5,1184.1,664.7z" style="fill: url('#SVGID_48_'); clip-path: url('#SVGID_2_');" transform="matrix(1, 0, 0, 1, 1.1368683772161603e-13, 2.842170943040401e-14)"/><path class="st45" d="M1201.6,637.8c0,0-9.4,35.8-12.9,43.7" style="fill: none; stroke: rgb(158, 125, 102); stroke-miterlimit: 10; clip-path: url('#SVGID_2_');" transform="matrix(1, 0, 0, 1, 1.1368683772161603e-13, 2.842170943040401e-14)"/><path class="st45" d="M1197.8,651.9c0,0-10.9,5-13,6.3" style="fill: none; stroke: rgb(158, 125, 102); stroke-miterlimit: 10; clip-path: url('#SVGID_2_');" transform="matrix(1, 0, 0, 1, 1.1368683772161603e-13, 2.842170943040401e-14)"/><path d="M 1193.699951 666.299988 L 1183.900024 673.599976" class="st45" style="fill: none; stroke: rgb(158, 125, 102); stroke-miterlimit: 10; clip-path: url('#SVGID_2_');" transform="matrix(1, 0, 0, 1, 1.1368683772161603e-13, 2.842170943040401e-14)"/><path d="M 1196.800049 655.400024 L 1206.800049 667.900024" class="st45" style="fill: none; stroke: rgb(158, 125, 102); stroke-miterlimit: 10; clip-path: url('#SVGID_2_');" transform="matrix(1, 0, 0, 1, 1.1368683772161603e-13, 2.842170943040401e-14)"/><path d="M 1192.300049 671.099976 L 1196.699951 679.5" class="st45" style="fill: none; stroke: rgb(158, 125, 102); stroke-miterlimit: 10; clip-path: url('#SVGID_2_');" transform="matrix(1, 0, 0, 1, 1.1368683772161603e-13, 2.842170943040401e-14)"/><path class="st55" d="M307,189.1c0,16.5-13.4,29.9-29.9,29.9H140.9c-16.5,0-29.9-13.4-29.9-29.9v-0.2c0-16.5,13.4-29.9,29.9-29.9&#10;&#9;&#9;&#9;&#9;h136.2c16.5,0,29.9,13.4,29.9,29.9V189.1z" style="fill: rgb(255, 255, 255); clip-path: url('#SVGID_2_');" transform="matrix(1, 0, 0, 1, 8.526512829121202e-14, 2.1316282072803006e-14)"/><linearGradient id="SVGID_49_" gradientUnits="userSpaceOnUse" x1="155.1246" y1="145.8297" x2="121.0696" y2="212.6664" gradientTransform="matrix(0.7477 -0.6641 0.6641 0.7477 -83.7938 137.1865)" style="clip-path: url('#SVGID_2_');">
				<stop offset="0" style="stop-color:#E6E6E6"/>
				<stop offset="0.4102" style="stop-color:#F2F2F2"/>
				<stop offset="1" style="stop-color:#FFFFFF"/>
			</linearGradient><path d="M 176 179.5 A 37.5 37.5 0 0 1 138.5 217 A 37.5 37.5 0 0 1 101 179.5 A 37.5 37.5 0 0 1 138.5 142 A 37.5 37.5 0 0 1 176 179.5 Z" class="st56" style="fill: url('#SVGID_49_'); clip-path: url('#SVGID_2_');" transform="matrix(1, 0, 0, 1, 8.526512829121202e-14, 2.1316282072803006e-14)"/><linearGradient id="SVGID_50_" gradientUnits="userSpaceOnUse" x1="262.5195" y1="123.995" x2="228.4633" y2="190.8342" gradientTransform="matrix(0.495 -0.8689 0.8689 0.495 -12.7958 292.8874)" style="clip-path: url('#SVGID_2_');">
				<stop offset="0" style="stop-color:#E6E6E6"/>
				<stop offset="0.4102" style="stop-color:#F2F2F2"/>
				<stop offset="1" style="stop-color:#FFFFFF"/>
			</linearGradient><path d="M 283 157.5 A 37.5 37.5 0 0 1 245.5 195 A 37.5 37.5 0 0 1 208 157.5 A 37.5 37.5 0 0 1 245.5 120 A 37.5 37.5 0 0 1 283 157.5 Z" class="st57" style="fill: url('#SVGID_50_'); clip-path: url('#SVGID_2_');" transform="matrix(1, 0, 0, 1, 8.526512829121202e-14, 2.1316282072803006e-14)"/><linearGradient id="SVGID_51_" gradientUnits="userSpaceOnUse" x1="204.7429" y1="106.2486" x2="162.7562" y2="188.6522" gradientTransform="matrix(0.8954 -0.4453 0.4453 0.8954 -45.9561 97.0295)" style="clip-path: url('#SVGID_2_');">
				<stop offset="0" style="stop-color:#E6E6E6"/>
				<stop offset="0.4102" style="stop-color:#F2F2F2"/>
				<stop offset="1" style="stop-color:#FFFFFF"/>
			</linearGradient><path d="M 230.399998 147.199997 A 46.200001 46.200001 0 0 1 184.199997 193.399998 A 46.200001 46.200001 0 0 1 137.999996 147.199997 A 46.200001 46.200001 0 0 1 184.199997 100.999996 A 46.200001 46.200001 0 0 1 230.399998 147.199997 Z" class="st58" style="fill: url('#SVGID_51_'); clip-path: url('#SVGID_2_');" transform="matrix(1, 0, 0, 1, 8.526512829121202e-14, 2.1316282072803006e-14)"/><path class="st55" d="M539,168.1c0,16.5,13.4,29.9,29.9,29.9h136.2c16.5,0,29.9-13.4,29.9-29.9v-0.2c0-16.5-13.4-29.9-29.9-29.9&#10;&#9;&#9;&#9;&#9;H568.9c-16.5,0-29.9,13.4-29.9,29.9V168.1z" style="fill: rgb(255, 255, 255); clip-path: url('#SVGID_2_');" transform="matrix(1, 0, 0, 1, 8.526512829121202e-14, 2.1316282072803006e-14)"/><linearGradient id="SVGID_52_" gradientUnits="userSpaceOnUse" x1="351.4931" y1="292.1562" x2="317.4382" y2="358.9927" gradientTransform="matrix(-0.7477 -0.6641 -0.6641 0.7477 1173.7939 137.1865)" style="clip-path: url('#SVGID_2_');">
				<stop offset="0" style="stop-color:#E6E6E6"/>
				<stop offset="0.4102" style="stop-color:#F2F2F2"/>
				<stop offset="1" style="stop-color:#FFFFFF"/>
			</linearGradient><path d="M 745 158.5 A 37.5 37.5 0 0 1 707.5 196 A 37.5 37.5 0 0 1 670 158.5 A 37.5 37.5 0 0 1 707.5 121 A 37.5 37.5 0 0 1 745 158.5 Z" class="st59" style="fill: url('#SVGID_52_'); clip-path: url('#SVGID_2_');" transform="matrix(1, 0, 0, 1, 8.526512829121202e-14, 2.1316282072803006e-14)"/><linearGradient id="SVGID_53_" gradientUnits="userSpaceOnUse" x1="401.545" y1="325.6096" x2="367.4887" y2="392.449" gradientTransform="matrix(-0.495 -0.8689 -0.8689 0.495 1102.7963 292.8874)" style="clip-path: url('#SVGID_2_');">
				<stop offset="0" style="stop-color:#E6E6E6"/>
				<stop offset="0.4102" style="stop-color:#F2F2F2"/>
				<stop offset="1" style="stop-color:#FFFFFF"/>
			</linearGradient><path d="M 638 136.5 A 37.5 37.5 0 0 1 600.5 174 A 37.5 37.5 0 0 1 563 136.5 A 37.5 37.5 0 0 1 600.5 99 A 37.5 37.5 0 0 1 638 136.5 Z" class="st60" style="fill: url('#SVGID_53_'); clip-path: url('#SVGID_2_');" transform="matrix(1, 0, 0, 1, 8.526512829121202e-14, 2.1316282072803006e-14)"/><linearGradient id="SVGID_54_" gradientUnits="userSpaceOnUse" x1="432.5639" y1="196.0952" x2="390.5771" y2="278.4989" gradientTransform="matrix(-0.8954 -0.4453 -0.4453 0.8954 1135.9556 97.0295)" style="clip-path: url('#SVGID_2_');">
				<stop offset="0" style="stop-color:#E6E6E6"/>
				<stop offset="0.4102" style="stop-color:#F2F2F2"/>
				<stop offset="1" style="stop-color:#FFFFFF"/>
			</linearGradient><path d="M 707.999989 126.199997 A 46.200001 46.200001 0 0 1 661.799988 172.399998 A 46.200001 46.200001 0 0 1 615.599987 126.199997 A 46.200001 46.200001 0 0 1 661.799988 79.999996 A 46.200001 46.200001 0 0 1 707.999989 126.199997 Z" class="st61" style="fill: url('#SVGID_54_'); clip-path: url('#SVGID_2_');" transform="matrix(1, 0, 0, 1, 8.526512829121202e-14, 2.1316282072803006e-14)"/>
</svg>