<?xml version="1.0" encoding="utf-8"?>
<svg id="master-artboard" viewBox="0 0 1400 980" version="1.1" xmlns="http://www.w3.org/2000/svg" x="0px" y="0px" width="1400px" height="980px" enable-background="new 0 0 1400 980" xmlns:xlink="http://www.w3.org/1999/xlink">
<g id="XMLID_800_" transform="matrix(1, 0, 0, 1, 2.842170943040401e-14, 7.105427357601002e-15)">
		<defs>
			<path d="M 0 0 H 1400 V 980 H 0 V 0 Z" id="XMLID_796_"/>
		</defs>
		<clipPath id="XMLID_10_">
			<use overflow="visible" xlink:href="#XMLID_796_"/>
		</clipPath>
		<linearGradient id="XMLID_12_" gradientUnits="userSpaceOnUse" x1="700.0001" y1="-209.2508" x2="700.0001" y2="479.4929">
			<stop offset="0" style="stop-color:#F49397"/>
			<stop offset="0.4323" style="stop-color:#FBCDB8"/>
			<stop offset="0.9956" style="stop-color:#FFFFFF"/>
		</linearGradient>
		<path id="XMLID_816_" clip-path="url(#XMLID_10_)" fill="url(#XMLID_12_)" d="M0,0v980h1400V0H0z M1021,817c0-1,0-2,0-3&#10;&#9;&#9;&#9;C1021,815,1021,816,1021,817z"/>
		<path id="XMLID_89_" clip-path="url(#XMLID_10_)" fill="#FFFFFF" d="M-34.6,243.2c26.1-23.9,65.7-31.8,99-19.8&#10;&#9;&#9;&#9;c27.3,9.9,48.7,31.2,69.1,52c38.7,39.4,77.5,78.8,116.2,118.2c23.9,24.3,49.4,49.6,82.4,58.6c50.9,13.8,103.6-15,156.4-14.2&#10;&#9;&#9;&#9;c72.2,1.1,145.9,56.9,210.8,25.1c29.6-14.5,49.8-45.2,80.9-56.3c52.3-18.5,107.6,26,162.8,20.9c35.3-3.3,65.8-26.7,88.8-53.8&#10;&#9;&#9;&#9;c23-27.1,40.5-58.4,63.3-85.6c52.4-62.5,133.9-100.4,215.4-97.2c81.5,3.2,160.9,48.6,202.5,118.7c41.6,70.2,42.7,163.3,0.3,233&#10;&#9;&#9;&#9;c-37.4,61.5-102.6,100.5-169,128.4c-183.2,77.1-387.2,85.6-586,84.9c-272-1-548.4-18.1-804.6-109.7c-26.8-9.6-54.3-20.6-73.4-41.6&#10;&#9;&#9;&#9;s-27-54.9-10.6-78.1L-34.6,243.2z"/>
		<linearGradient id="XMLID_14_" gradientUnits="userSpaceOnUse" x1="413.0001" y1="436.0931" x2="413.0001" y2="132.2852">
			<stop offset="0" style="stop-color:#FBCDB8"/>
			<stop offset="0.3624" style="stop-color:#F27E8B"/>
			<stop offset="1" style="stop-color:#395175"/>
		</linearGradient>
		<path id="XMLID_797_" clip-path="url(#XMLID_10_)" fill="url(#XMLID_14_)" d="M718.2,487.2l-7.4-40.6l-6.2,34&#10;&#9;&#9;&#9;c-23.8-11.4-47.8-23-71.3-34.3l-15.7-86l-13.2,72.1c-1.6-0.8-3.2-1.5-4.7-2.3l-8.5-46.8l-7.2,39.2c-27.4-13.2-53.5-25.8-77.6-37.4&#10;&#9;&#9;&#9;l-10.2-55.9l-4.8,26.5l-7.4-40.8l-9.9,54.6C413,340.2,372,320.4,372,320.4l-93.8,45.4l-10.2-56l-12.2,66.9l-0.4,0.2l-7.4-40.5&#10;&#9;&#9;&#9;l-8.8,48.4L181,412.9l-14-76.5l-16.7,91.4l-24,11.6l-6.6-36.3l-7.9,43.4l-291.4,141.1L429.9,864l575.6-240.5&#10;&#9;&#9;&#9;C1001,622.6,863.8,557.1,718.2,487.2z"/>
		<linearGradient id="XMLID_15_" gradientUnits="userSpaceOnUse" x1="1301.5153" y1="698.58" x2="1301.5153" y2="154.1072">
			<stop offset="0" style="stop-color:#FBCDB8"/>
			<stop offset="0.3624" style="stop-color:#F27E8B"/>
			<stop offset="1" style="stop-color:#395175"/>
		</linearGradient>
		<path id="XMLID_813_" clip-path="url(#XMLID_10_)" fill="url(#XMLID_15_)" d="M1606.7,569.5l-7.4-40.6l-6.2,34&#10;&#9;&#9;&#9;c-23.8-11.4-47.8-23-71.3-34.3l-15.7-86l-13.2,72.1c-1.6-0.8-3.2-1.5-4.7-2.3l-8.5-46.8l-7.2,39.2c-27.4-13.2-53.5-25.8-77.6-37.4&#10;&#9;&#9;&#9;l-10.2-55.9l-4.8,26.5l-7.4-40.8l-9.9,54.6c-61.1-29.5-102.1-49.2-102.1-49.2l-93.8,45.4l-10.2-56l-12.2,66.9l-0.4,0.2l-7.4-40.5&#10;&#9;&#9;&#9;l-8.8,48.4l-58.2,28.2l-14-76.5l-16.7,91.4l-24,11.6l-6.6-36.3l-7.9,43.4L709,669.8l609.4,276.5L1894,705.8&#10;&#9;&#9;&#9;C1889.5,705,1752.3,639.4,1606.7,569.5z"/>
		<linearGradient id="XMLID_16_" gradientUnits="userSpaceOnUse" x1="829.4126" y1="690.1042" x2="1416.9065" y2="690.1042">
			<stop offset="0" style="stop-color:#00364F"/>
			<stop offset="0.2519" style="stop-color:#0F4666"/>
			<stop offset="0.5132" style="stop-color:#394E6C"/>
			<stop offset="1" style="stop-color:#865E78"/>
		</linearGradient>
		<path id="XMLID_798_" clip-path="url(#XMLID_10_)" fill="url(#XMLID_16_)" d="M854.4,608.8c25.7,21.4,61.3,30.5,94.2,24.1&#10;&#9;&#9;&#9;c26.2-5.2,52.3-19.6,78.2-12.8c15.2,4,27.7,15,42.7,19.8c34.3,11.1,73.4-11.6,106.9,1.6c20.4,8,34.9,28.1,56.1,33.3&#10;&#9;&#9;&#9;c17,4.2,34.5-2,51.6-5.3c31.4-6,64.7-1.9,93.8,11.4c21.5,9.9,42.9,30.1,38.3,53.3c-2.6,13.3-13.5,23.7-25.9,29.1&#10;&#9;&#9;&#9;s-26.1,6.6-39.6,7.3c-98.2,4.9-196-13.3-292.6-31.3c-41.9-7.8-84-15.7-123.9-30.7s-77.8-37.6-104.8-70.5L854.4,608.8z"/>
		<linearGradient id="XMLID_17_" gradientUnits="userSpaceOnUse" x1="-42.1481" y1="543.2986" x2="898.6554" y2="543.2986">
			<stop offset="0" style="stop-color:#00364F"/>
			<stop offset="0.2519" style="stop-color:#0F4666"/>
			<stop offset="0.5132" style="stop-color:#394E6C"/>
			<stop offset="1" style="stop-color:#865E78"/>
		</linearGradient>
		<path id="XMLID_795_" clip-path="url(#XMLID_10_)" fill="url(#XMLID_17_)" d="M-22.7,449.7c27.1-27.3,73.3-33.1,106.4-13.3&#10;&#9;&#9;&#9;c17.3,10.4,30.9,26.7,49.4,34.9c15.2,6.8,32.4,7.5,49.1,8.1c25.6,0.9,51.6,1.8,76.3-4.9c30.2-8.1,56.5-26.9,86.2-36.3&#10;&#9;&#9;&#9;c43.8-13.9,94.1-5.5,131,21.9c23.1,17.1,41.9,41.5,69.1,50.9c24.5,8.5,52.2,3.4,76.7,12.1c23.9,8.4,42,29,65.8,37.5&#10;&#9;&#9;&#9;c32.3,11.5,67.9-1.2,102.1,0.9c53.4,3.3,101.4,47.4,109.3,100.3C590.9,595.3,272.7,599.5-42.1,604L-22.7,449.7z"/>
		<linearGradient id="XMLID_18_" gradientUnits="userSpaceOnUse" x1="974.8215" y1="1023.8875" x2="1198.2115" y2="558.3427">
			<stop offset="5.102040e-002" style="stop-color:#0F4565"/>
			<stop offset="0.5914" style="stop-color:#FF7F8C"/>
			<stop offset="0.9694" style="stop-color:#FFCFB9"/>
		</linearGradient>
		<path id="XMLID_819_" clip-path="url(#XMLID_10_)" fill="url(#XMLID_18_)" d="M1150,957c8-17-22-19-36-24c-5-2-12-5-12-8&#10;&#9;&#9;&#9;c0-18,25-21,35-32c5-5-2-13-9-16c-29-12-60-14-90-24c-11-4-12-15-6-24c9-13,23-18,36-24c64.2-26.8,127-60.9,193.9-78.6&#10;&#9;&#9;&#9;c-13.4-0.9-29.9-1.4-50.1-0.9c-42.7,9-85.2,21.5-128.8,32.5c-38,10-72,26-106,45c-15,8-33,19-29,37c1,7,10,12,18,15&#10;&#9;&#9;&#9;c36,10,72,12,105,31c6,3,10,14,3,19c-38,38-84,60-131,83c-40.2,18.7-80.6,35.3-120.6,52.8l118.9,19.6&#10;&#9;&#9;&#9;c52.7-31.9,111.1-52.3,168.7-76.4C1125,977,1144,971,1150,957z M1021,817c0-1,0-2,0-3C1021,815,1021,816,1021,817z"/>
		<linearGradient id="XMLID_19_" gradientUnits="userSpaceOnUse" x1="1143.3738" y1="1013.3972" x2="1358.9379" y2="564.1616">
			<stop offset="5.102040e-002" style="stop-color:#0F4565"/>
			<stop offset="0.5914" style="stop-color:#FF7F8C"/>
			<stop offset="0.9694" style="stop-color:#FFCFB9"/>
		</linearGradient>
		<path id="XMLID_824_" clip-path="url(#XMLID_10_)" fill="url(#XMLID_19_)" d="M1323,811.9l-11-80.4c-6.6,0.3-21.4-3.2-50.1-5&#10;&#9;&#9;&#9;c-66.9,17.7-129.7,51.8-193.9,78.6c-13,6-27,11-36,24c-6,9-5,20,6,24c30,10,61,12,90,24c7,3,14,11,9,16c-10,11-35,14-35,32&#10;&#9;&#9;&#9;c0,3,7,6,12,8c14,5,44,7,36,24c-6,14-25,20-40,27c-57.6,24.1-116,44.5-168.7,76.4l18.7,3.1h352l10-5.3l18-115.9L1323,811.9z"/>
		<linearGradient id="XMLID_20_" gradientUnits="userSpaceOnUse" x1="883.0382" y1="959.5196" x2="1104.6143" y2="497.7551">
			<stop offset="5.102040e-002" style="stop-color:#0F4565"/>
			<stop offset="0.5914" style="stop-color:#FF7F8C"/>
			<stop offset="0.9694" style="stop-color:#FFCFB9"/>
		</linearGradient>
		<path id="XMLID_807_" clip-path="url(#XMLID_10_)" fill="url(#XMLID_20_)" d="M1047,894c-2-16-26-16-42-19c-11-3-22-5-33-6&#10;&#9;&#9;&#9;c-30-2-59-7-85-21c-4-2-7-9-3-13c17-26,45-35,71-44c70.5-23,139.8-44.7,210.2-63.1c-37.6,2.9-84,8.7-141.2,19.3&#10;&#9;&#9;&#9;c-205,37.8-267,128.1-221,143s88,40.9,88,40.9l-207,86.9l110.9,18.3C855.5,1008.6,917,987.4,977,956C1005,941,1051,929,1047,894z"/>
		<linearGradient id="XMLID_21_" gradientUnits="userSpaceOnUse" x1="883.7091" y1="1121.9681" x2="1100.9607" y2="669.216">
			<stop offset="5.102040e-002" style="stop-color:#0F4565"/>
			<stop offset="0.5914" style="stop-color:#FF7F8C"/>
			<stop offset="0.9694" style="stop-color:#FFCFB9"/>
		</linearGradient>
		<path id="XMLID_812_" clip-path="url(#XMLID_10_)" fill="url(#XMLID_21_)" d="M955,791c-26,9-54,18-71,44c-4,4-1,11,3,13&#10;&#9;&#9;&#9;c26,14,55,19,85,21c11,1,22,3,33,6c16,3,40,3,42,19c4,35-42,47-70,62c-60,31.4-121.5,52.6-182.1,80.2l27.5,4.5&#10;&#9;&#9;&#9;c39.9-17.5,80.4-34.1,120.6-52.8c47-23,93-45,131-83c7-5,3-16-3-19c-33-19-69-21-105-31c-8-3-17-8-18-15c-4-18,14-29,29-37&#10;&#9;&#9;&#9;c34-19,68-35,106-45c43.6-11,86.1-23.5,128.8-32.5c-13.8,0.3-29.2,1-46.6,2.4C1094.8,746.3,1025.5,768,955,791z"/>
		<linearGradient id="XMLID_22_" gradientUnits="userSpaceOnUse" x1="225.5315" y1="658.4179" x2="-55.1993" y2="1083.6833">
			<stop offset="0" style="stop-color:#FBCDB8"/>
			<stop offset="0.3624" style="stop-color:#F27E8B"/>
			<stop offset="1" style="stop-color:#395175"/>
		</linearGradient>
		<path id="XMLID_802_" clip-path="url(#XMLID_10_)" fill="url(#XMLID_22_)" d="M-66.3,760l-28.6,281.3l18.7-0.2&#10;&#9;&#9;&#9;c26.9-43.9,59.1-84.9,97.2-122c122.9-119,264.4-200.3,423.8-252.2c-109.8,0.2-219.3,5.8-328.8,33.2C53.4,715.5-7.7,735.4-66.3,760&#10;&#9;&#9;&#9;z"/>
		<linearGradient id="XMLID_23_" gradientUnits="userSpaceOnUse" x1="362.2259" y1="541.8438" x2="125.586" y2="900.3182">
			<stop offset="0" style="stop-color:#FBCDB8"/>
			<stop offset="0.3624" style="stop-color:#F27E8B"/>
			<stop offset="1" style="stop-color:#395175"/>
		</linearGradient>
		<path id="XMLID_810_" clip-path="url(#XMLID_10_)" fill="url(#XMLID_23_)" d="M652.3,618.4C466.4,587.8,276.7,591.6,84,624&#10;&#9;&#9;&#9;c-47.9,8.4-94.8,20.2-140.1,35.6L-66.3,760c58.6-24.6,119.7-44.5,182.3-60c109.5-27.4,218.9-32.9,328.8-33.2&#10;&#9;&#9;&#9;C485,653.7,526.4,642.5,569,633C596.9,626.7,624.7,621.9,652.3,618.4z"/>
		<linearGradient id="XMLID_24_" gradientUnits="userSpaceOnUse" x1="471.3714" y1="483.6723" x2="223.8128" y2="858.6868">
			<stop offset="0" style="stop-color:#FBCDB8"/>
			<stop offset="0.3624" style="stop-color:#F27E8B"/>
			<stop offset="1" style="stop-color:#395175"/>
		</linearGradient>
		<path id="XMLID_809_" clip-path="url(#XMLID_10_)" fill="url(#XMLID_24_)" d="M848.5,612.4c-115.1-26.1-240.6-50.6-361.4-66.4&#10;&#9;&#9;&#9;c-381-49.8-534,16.8-534,22.8l-9.2,90.8C-10.8,644.2,36.1,632.4,84,624c192.7-32.4,382.4-36.2,568.3-5.6&#10;&#9;&#9;&#9;C718.4,609.9,783.7,608.7,848.5,612.4z"/>
		<linearGradient id="XMLID_25_" gradientUnits="userSpaceOnUse" x1="632.1787" y1="573.3037" x2="640.1787" y2="430.3037">
			<stop offset="0" style="stop-color:#00364F"/>
			<stop offset="0.2519" style="stop-color:#0F4666"/>
			<stop offset="0.5132" style="stop-color:#394E6C"/>
			<stop offset="1" style="stop-color:#865E78"/>
		</linearGradient>
		<path id="XMLID_91_" clip-path="url(#XMLID_10_)" fill="url(#XMLID_25_)" d="M689.1,542.2c3.6,8.1,6.7,16.4,5.7,25.1&#10;&#9;&#9;&#9;c-1.7,15.6-16.4,27.3-31.8,30.7c-24.1,5.3-55.9-0.3-73.9-17.9c-16-15.6-23.7-39.9-11.3-60.1c8.2-13.2,24.4-21.3,28.5-36.4&#10;&#9;&#9;&#9;c2.8-10.4-1.1-21.3-0.3-32c1.2-16.5,15.1-31.2,31.5-33.4c16.4-2.2,33.6,8.3,39.2,23.9c9.9,27.8-5.1,57,5.8,85.2&#10;&#9;&#9;&#9;C684.4,532.4,686.9,537.3,689.1,542.2z"/>
		<linearGradient id="XMLID_26_" gradientUnits="userSpaceOnUse" x1="620.7179" y1="642.5924" x2="631.7179" y2="497.5924">
			<stop offset="0" style="stop-color:#FBCDB8"/>
			<stop offset="0.3624" style="stop-color:#F27E8B"/>
			<stop offset="1" style="stop-color:#395175"/>
		</linearGradient>
		<path id="XMLID_697_" clip-path="url(#XMLID_10_)" fill="url(#XMLID_26_)" d="M621.9,657.4c7.8-37.5,5.8-77-5.6-113.6&#10;&#9;&#9;&#9;c5.8,7.8,10.7,16.3,14.6,25.3c2.3-10.7,4.6-21.3,6.9-32c-0.1,39.7-2.3,79.4-6.6,118.9L621.9,657.4z"/>
		<linearGradient id="XMLID_27_" gradientUnits="userSpaceOnUse" x1="779.3749" y1="554.7767" x2="785.3749" y2="447.7767">
			<stop offset="0" style="stop-color:#00364F"/>
			<stop offset="0.2519" style="stop-color:#0F4666"/>
			<stop offset="0.5132" style="stop-color:#394E6C"/>
			<stop offset="1" style="stop-color:#865E78"/>
		</linearGradient>
		<path id="XMLID_698_" clip-path="url(#XMLID_10_)" fill="url(#XMLID_27_)" d="M807.9,528.2c-3.5-13,3.9-26.3-9.2-36.2&#10;&#9;&#9;&#9;c-13.5-10.3-29.3-3.1-34.4,11.7c-3,8.6-1.4,18.5-5.4,26.7c-2.8,5.8-8.1,10-11.1,15.8c-5.3,10.5-1.2,24,7.5,31.9&#10;&#9;&#9;&#9;c10.3,9.4,26.6,11.7,39.1,5.4c12.5-6.3,20.4-20.6,19.1-34.5C812.6,541.8,809.7,535.1,807.9,528.2z"/>
		<linearGradient id="XMLID_28_" gradientUnits="userSpaceOnUse" x1="779.3998" y1="616" x2="779.3998" y2="549">
			<stop offset="0" style="stop-color:#FBCDB8"/>
			<stop offset="0.3624" style="stop-color:#F27E8B"/>
			<stop offset="1" style="stop-color:#395175"/>
		</linearGradient>
		<path id="XMLID_742_" clip-path="url(#XMLID_10_)" fill="url(#XMLID_28_)" d="M777.3,628c-1.2-25.6-2.4-51.1-3.6-76.7&#10;&#9;&#9;&#9;c1.2,6.1,3.3,12,6.3,17.5c1.7-4.5,3.4-9,5.1-13.5c-2.5,25.2-3.8,50.5-3.9,75.8L777.3,628z"/>
		<linearGradient id="XMLID_29_" gradientUnits="userSpaceOnUse" x1="275.0091" y1="688.5917" x2="624.769" y2="688.5917">
			<stop offset="0" style="stop-color:#00364F"/>
			<stop offset="0.2519" style="stop-color:#0F4666"/>
			<stop offset="0.5132" style="stop-color:#394E6C"/>
			<stop offset="1" style="stop-color:#865E78"/>
		</linearGradient>
		<path id="XMLID_799_" clip-path="url(#XMLID_10_)" fill="url(#XMLID_29_)" d="M624.8,642.6c-19.5-9.9-39.1-19.9-60.3-25.4&#10;&#9;&#9;&#9;c-21.2-5.5-44.3-6.1-64.3,2.5c-15.5,6.6-29,18.5-45.6,21c-14.9,2.2-29.6-3.5-44.4-6.4c-30.8-5.8-63.9,1.7-89.1,20.3&#10;&#9;&#9;&#9;c-25.2,18.6-42.2,48-45.7,79.1c-1.3,11.9,1.6,27.1,13.2,29.9c5.5,1.3,11.1-0.8,16.3-2.8c57.5-22.5,115-45,172.5-67.5L624.8,642.6z&#10;&#9;&#9;&#9;"/>
		<linearGradient id="XMLID_30_" gradientUnits="userSpaceOnUse" x1="764.7665" y1="537.7346" x2="377.2615" y2="1124.7472">
			<stop offset="0" style="stop-color:#FBCDB8"/>
			<stop offset="0.3624" style="stop-color:#F27E8B"/>
			<stop offset="1" style="stop-color:#395175"/>
		</linearGradient>
		<path id="XMLID_811_" clip-path="url(#XMLID_10_)" fill="url(#XMLID_30_)" d="M906.3,625.9c-137-7.4-271.1,29.5-398.3,81.1&#10;&#9;&#9;&#9;c-25,11-50,22-75,34c-75,38-147,75-209,133c-54.4,49.8-100.5,105.1-139.8,164.9l64.8-0.8c80.7-104.5,189.4-200.5,322.3-217.8&#10;&#9;&#9;&#9;C544.7,766.7,627.5,725.9,719,703c105.3-26.7,210-41.7,316.1-45C995,647.6,951.7,636.7,906.3,625.9z"/>
		<linearGradient id="XMLID_31_" gradientUnits="userSpaceOnUse" x1="923.798" y1="631.6134" x2="693.601" y2="980.3277">
			<stop offset="0" style="stop-color:#FBCDB8"/>
			<stop offset="0.3624" style="stop-color:#F27E8B"/>
			<stop offset="1" style="stop-color:#395175"/>
		</linearGradient>
		<path id="XMLID_803_" clip-path="url(#XMLID_10_)" fill="url(#XMLID_31_)" d="M1035.1,658c-106,3.2-210.7,18.2-316.1,45&#10;&#9;&#9;&#9;c-91.5,22.9-174.3,63.7-247.8,117.2c7.8-1,15.8-1.8,23.8-2.2c44.8-2.3,89.4-2.9,133.8-0.2C717,772.1,815,746.2,916,729&#10;&#9;&#9;&#9;c97.2-16.4,192.4-24.7,287.7-24.4C1159.6,691.7,1101.8,675.5,1035.1,658z"/>
		<linearGradient id="XMLID_32_" gradientUnits="userSpaceOnUse" x1="1037.9264" y1="660.2941" x2="835.9622" y2="966.2399">
			<stop offset="0" style="stop-color:#FBCDB8"/>
			<stop offset="0.3624" style="stop-color:#F27E8B"/>
			<stop offset="1" style="stop-color:#395175"/>
		</linearGradient>
		<path id="XMLID_808_" clip-path="url(#XMLID_10_)" fill="url(#XMLID_32_)" d="M895.1,801.3c162-54,400.5-69,400.5-69&#10;&#9;&#9;&#9;s-34.2-10.9-91.9-27.7c-95.3-0.3-190.5,8-287.7,24.4c-101,17.2-199,43.1-287.2,88.8c53.7,3.2,107.1,11.3,160.2,27.2c9,3,18,4,28,6&#10;&#9;&#9;&#9;c10.9,1.6,21.3,6.2,32.4,8.6C826.3,843.4,823.6,825.1,895.1,801.3z"/>
		<linearGradient id="XMLID_33_" gradientUnits="userSpaceOnUse" x1="634.8038" y1="831.1819" x2="385.5905" y2="1208.703">
			<stop offset="0" style="stop-color:#FBCDB8"/>
			<stop offset="0.3624" style="stop-color:#F27E8B"/>
			<stop offset="1" style="stop-color:#395175"/>
		</linearGradient>
		<path id="XMLID_806_" clip-path="url(#XMLID_10_)" fill="url(#XMLID_33_)" d="M849.4,859.6c-11.2-2.4-21.5-7-32.4-8.6&#10;&#9;&#9;&#9;c-10-2-19-3-28-6c-97-29-195-32-294-27c-143.7,8.2-260.6,109.5-346.1,220.1l444.6-5.8c0,0,307.5-76.5,333-114&#10;&#9;&#9;&#9;C940.8,897.3,878.7,880.1,849.4,859.6z"/>
		<linearGradient id="XMLID_34_" gradientUnits="userSpaceOnUse" x1="609.1807" y1="539.0167" x2="200.5075" y2="1158.0958">
			<stop offset="0" style="stop-color:#FBCDB8"/>
			<stop offset="0.3624" style="stop-color:#F27E8B"/>
			<stop offset="1" style="stop-color:#395175"/>
		</linearGradient>
		<path id="XMLID_805_" clip-path="url(#XMLID_10_)" fill="url(#XMLID_34_)" d="M224,874c62-58,134-95,209-133c25-12,50-23,75-34&#10;&#9;&#9;&#9;c127.1-51.7,261.2-88.5,398.3-81.1c-18.9-4.5-38.2-9-57.7-13.4c-91.9-5.3-184.7-0.7-279.5,20.6C358,680,175,770,21,919&#10;&#9;&#9;&#9;c-38.1,37.1-70.2,78.1-97.2,122l160.3-2.1C123.5,979.1,169.6,923.8,224,874z"/>
		<g id="XMLID_628_" clip-path="url(#XMLID_10_)">
			<linearGradient id="XMLID_35_" gradientUnits="userSpaceOnUse" x1="186.6747" y1="729.9833" x2="304.8119" y2="492.5275">
				<stop offset="0" style="stop-color:#00364F"/>
				<stop offset="0.2519" style="stop-color:#0F4666"/>
				<stop offset="0.5132" style="stop-color:#394E6C"/>
				<stop offset="1" style="stop-color:#865E78"/>
			</linearGradient>
			<path id="XMLID_692_" fill="url(#XMLID_35_)" d="M202.7,679.8c-15.8-9.9-33.3-28.7-37-45.7c-3.2-14.7,1.4-31,11.9-41.8&#10;&#9;&#9;&#9;&#9;c6.1-6.3,14.7-11.9,15.4-20.7c1.2-14.6-19.6-21.6-23.3-35.8c-1.8-6.8,0.9-14.2,5.4-19.7c4.5-5.5,10.5-9.4,16.4-13.2&#10;&#9;&#9;&#9;&#9;c19.4-12.6,38.9-25.2,60.4-33.8c14.1-5.7,29.6-9.6,44.5-6.8c15,2.8,29.2,13.6,32.2,28.5c4.2,21.1-14,44.2-3.8,63.2&#10;&#9;&#9;&#9;&#9;c5.8,10.8,18.7,15.6,26.8,24.7c12.5,14,11.5,36.1,2.7,52.7c-12.2,23-40.4,50.2-65.2,58.5c-26.6,8.9-56.7,5.5-81.5-7.3&#10;&#9;&#9;&#9;&#9;C206,681.8,204.4,680.9,202.7,679.8z"/>
			<linearGradient id="XMLID_36_" gradientUnits="userSpaceOnUse" x1="269.8453" y1="752.7764" x2="269.8453" y2="566.2938">
				<stop offset="0" style="stop-color:#FBCDB8"/>
				<stop offset="0.3624" style="stop-color:#F27E8B"/>
				<stop offset="1" style="stop-color:#395175"/>
			</linearGradient>
			<path id="XMLID_690_" fill="url(#XMLID_36_)" d="M245.4,760.7c5.4-32.1,2.8-60.7-2.7-92c-5.6-31.3-8.8-65.6,3.7-95.7&#10;&#9;&#9;&#9;&#9;c-0.6,31.3,2.6,62.6,9.5,93.1c10.8-18.8,26.9-34.4,46.1-44.6c-15.3,8.1-37.4,48.9-39.4,65.6c-3,25.5,1.9,57.1,6.6,82.3&#10;&#9;&#9;&#9;&#9;L245.4,760.7z"/>
		</g>
		<g id="XMLID_626_" clip-path="url(#XMLID_10_)">
			<linearGradient id="XMLID_37_" gradientUnits="userSpaceOnUse" x1="19.2993" y1="629.7173" x2="190.9926" y2="284.6137">
				<stop offset="0" style="stop-color:#00364F"/>
				<stop offset="0.2519" style="stop-color:#0F4666"/>
				<stop offset="0.5132" style="stop-color:#394E6C"/>
				<stop offset="1" style="stop-color:#865E78"/>
			</linearGradient>
			<path id="XMLID_624_" fill="url(#XMLID_37_)" d="M4,598.2c-46.6-27-76.1-89.1-47.5-139.9c10.7-19,29.5-31,40-49.8&#10;&#9;&#9;&#9;&#9;c10.2-18.3,17.5-39.8,25.4-59.2c9.2-22.7,19.4-45.9,37.4-62.6s45.8-25.2,67.6-14.1c25,12.7,32.7,44.5,34.4,72.4&#10;&#9;&#9;&#9;&#9;c1.2,19.5,0.6,39.9,6.4,58.8c6.7,21.8,19.1,25.3,33.1,39.6c28.5,28.9,20.2,86.5,0.5,117.3C158.5,627.7,69,635.8,4,598.2z"/>
			<linearGradient id="XMLID_38_" gradientUnits="userSpaceOnUse" x1="79.2247" y1="707.6346" x2="79.2247" y2="431.5458">
				<stop offset="0" style="stop-color:#FBCDB8"/>
				<stop offset="0.3624" style="stop-color:#F27E8B"/>
				<stop offset="1" style="stop-color:#395175"/>
			</linearGradient>
			<path id="XMLID_625_" fill="url(#XMLID_38_)" d="M68,719.2c12.4-74.3,3.9-152.1-24.4-221.9c18.1,21.2,32.1,45.9,41,72.3&#10;&#9;&#9;&#9;&#9;c0.1-44.2,10.5-88.4,30.1-128.1c-14.6,96.4-29.2,195-11.3,290.8L68,719.2z"/>
		</g>
		<linearGradient id="XMLID_39_" gradientUnits="userSpaceOnUse" x1="450.939" y1="710.7706" x2="253.2053" y2="1010.3078">
			<stop offset="0" style="stop-color:#FBCDB8"/>
			<stop offset="0.3624" style="stop-color:#F27E8B"/>
			<stop offset="1" style="stop-color:#395175"/>
		</linearGradient>
		<path id="XMLID_92_" clip-path="url(#XMLID_10_)" fill="url(#XMLID_39_)" d="M779.6,1007.6c-6-4.2-457.5-349.1-808.5-364.6&#10;&#9;&#9;&#9;c-3,339.1-3,339.1-3,339.1L779.6,1007.6z"/>
		<path id="XMLID_781_" clip-path="url(#XMLID_10_)" fill="#00364F" d="M376.2,1039.8c7.8-20.4,3.4-44-7.9-62.6&#10;&#9;&#9;&#9;s-28.8-32.8-47.5-43.9c-10.6-6.3-22.1-11.9-34.4-13c-12.3-1.1-25.7,3-33,13c-6.5,8.9-7.3,20.9-5.1,31.8&#10;&#9;&#9;&#9;c4.1,20.4,17.5,38.1,34,50.8c16.5,12.7,36.1,20.8,55.8,27.5L376.2,1039.8z"/>
		<path id="XMLID_780_" clip-path="url(#XMLID_10_)" fill="#00364F" d="M162.6,1008.3c2.5-38.2-0.8-76.8-9.6-114.1&#10;&#9;&#9;&#9;c-6.5-27.3-18.9-57.2-45.2-66.9c-13.4-5-29-3.6-41.3,3.7s-21,20.3-23.1,34.4c3.7-32.1-9.6-66.3-35.8-85.2s-64.7-20.1-90.5-0.7&#10;&#9;&#9;&#9;c-19.2,14.4-29.8,38-33.6,61.7c-9.3,58.5,21.2,119.1,68.8,154.3S62,1042.5,121,1037.1L162.6,1008.3z"/>
		<path id="XMLID_779_" clip-path="url(#XMLID_10_)" fill="#00364F" d="M398.3,1041.4c16.4-49.2,35-98.3,63.9-141.3&#10;&#9;&#9;&#9;c29-43,69.4-80,118.6-96.4c5.6-1.9,12.5-3.2,16.7,0.9c5.5,5.3,1.6,14.5-2.5,20.9c-31.9,49.8-65.9,98.3-101.8,145.3&#10;&#9;&#9;&#9;c48.9-40.2,106.1-72.2,168.6-82.5c10.7-1.8,22-2.9,32.3,0.5c10.4,3.3,19.7,12,20.6,22.9c1.1,13.3-9.9,24.2-20.2,32.7&#10;&#9;&#9;&#9;c-37.9,31.6-78,60.5-119.9,86.5c-26.5,16.5-55.3,32.2-86.5,32.5L398.3,1041.4z"/>
		<path id="XMLID_777_" clip-path="url(#XMLID_10_)" fill="#00364F" d="M413,923.6c40.9,33.7,35.3,110-25.7,115&#10;&#9;&#9;&#9;c-23.9,1.9-51.2-15.2-65.8-33.6c-16.9-21.4-16.9-55.6-4.3-78.9c4.7-8.6,11.3-17.3,10.2-27c-1.4-12.6-15.1-21.2-16.5-33.8&#10;&#9;&#9;&#9;c-1.9-16.6,18-28.5,19.7-45.2c0.9-8.9-3.6-17.2-7.1-25.4c-6.5-15.4-9.8-32.2-9.5-48.9c0.2-9.1,1.5-18.6,6.4-26.3&#10;&#9;&#9;&#9;c4.9-7.7,14.2-13.1,23.1-11.3c8.5,1.7,14.8,9.6,17.2,17.9c2.5,8.3,1.8,17.2,1.3,25.9c-1.1,16.1-1.6,33.3,6.9,47.1&#10;&#9;&#9;&#9;c6.6,10.7,17.8,17.7,25.4,27.7c9.6,12.5,13,29.6,8.8,44.8c-3.2,11.9-10.8,24.2-6,35.6C399.9,914.3,407,918.7,413,923.6z"/>
		<g id="XMLID_775_" clip-path="url(#XMLID_10_)">
			<linearGradient id="SVGID_1_" gradientUnits="userSpaceOnUse" x1="466.005" y1="911.5757" x2="525.7998" y2="911.5757">
				<stop offset="0" style="stop-color:#00364F"/>
				<stop offset="0.2519" style="stop-color:#0F4666"/>
				<stop offset="1" style="stop-color:#865E78"/>
			</linearGradient>
			<path fill="url(#SVGID_1_)" d="M471.3,1059.6l-5.3-2.8c47-88,55.1-162.4,53.6-209.3c-1.6-50.8-14.4-81.3-14.5-81.6l5.5-2.4&#10;&#9;&#9;&#9;&#9;c0.5,1.3,13.3,31.5,15,83.4C527.2,894.7,519,970.3,471.3,1059.6z"/>
		</g>
		<linearGradient id="XMLID_40_" gradientUnits="userSpaceOnUse" x1="258.3138" y1="976.3813" x2="338.3138" y2="842.3813">
			<stop offset="0" style="stop-color:#00364F"/>
			<stop offset="0.2519" style="stop-color:#0F4666"/>
			<stop offset="1" style="stop-color:#865E78"/>
		</linearGradient>
		<path id="XMLID_611_" clip-path="url(#XMLID_10_)" fill="url(#XMLID_40_)" d="M270.7,1018.4c-20.6-56.5-14.1-122.1,17.1-173.5&#10;&#9;&#9;&#9;c7-11.5,18-23.6,31.3-21.5c13.6,2.2,20.3,17.8,21.7,31.5c2.6,25-4.1,50-12.8,73.5c-13.3,35.6-31.5,69.4-54,100.1L270.7,1018.4z"/>
		<g id="XMLID_743_" clip-path="url(#XMLID_10_)">
			<g id="XMLID_773_">
				
					<linearGradient id="XMLID_41_" gradientUnits="userSpaceOnUse" x1="572.7444" y1="889.6066" x2="572.7444" y2="819.3054" gradientTransform="matrix(-0.9925 0.122 0.122 0.9925 964.9738 -170.4678)">
					<stop offset="0" style="stop-color:#F49397"/>
					<stop offset="0.4323" style="stop-color:#FBCDB8"/>
					<stop offset="0.9956" style="stop-color:#FFFFFF"/>
				</linearGradient>
				<path id="XMLID_774_" fill="url(#XMLID_41_)" d="M501,782.6c0.6-2.1-0.4-5.9-0.6-8.1c-0.2-2.5-0.8-4.9-1.2-7.4&#10;&#9;&#9;&#9;&#9;&#9;c-0.9-5.2-2.4-10.1-3.4-15.3c-1-5-2.4-10-3.9-14.9c-1.9-5.8-3.2-11.8-5-17.7c-1.4-4.5,0.1-9.6,4.8-11.5&#10;&#9;&#9;&#9;&#9;&#9;c4.1-1.7,10.1,0.2,11.5,4.8c4,12.6,7.6,25.4,8.7,38.6c0.5,5.7-0.2,11.8-1.8,17.3c-0.8,2.9-2,5.5-3.3,8.1&#10;&#9;&#9;&#9;&#9;&#9;c-1.2,2.4-3.6,3.9-4.8,6.3C501.7,783.3,500.8,783.1,501,782.6L501,782.6z"/>
			</g>
			<g id="XMLID_771_">
				
					<linearGradient id="XMLID_42_" gradientUnits="userSpaceOnUse" x1="588.0826" y1="891.5743" x2="588.0826" y2="822.7229" gradientTransform="matrix(-0.9925 0.122 0.122 0.9925 964.9738 -170.4678)">
					<stop offset="0" style="stop-color:#F49397"/>
					<stop offset="0.4323" style="stop-color:#FBCDB8"/>
					<stop offset="0.9956" style="stop-color:#FFFFFF"/>
				</linearGradient>
				<path id="XMLID_772_" fill="url(#XMLID_42_)" d="M502.4,784.7c-2.9-5.4-7.7-9.4-10.8-14.7c-2.9-5-6-9.9-8.6-15&#10;&#9;&#9;&#9;&#9;&#9;c-5.2-10.4-10-21-15.2-31.5c-2.1-4.3,0.6-9.9,4.8-11.6c4.8-2,9.4,0.5,11.6,4.8c5.5,10.6,10.6,21.3,14.3,32.6&#10;&#9;&#9;&#9;&#9;&#9;c1.8,5.6,3.3,11.9,4.1,17.7c0.8,5.8-0.2,11.7,0.5,17.5C503.3,785,502.6,785.2,502.4,784.7L502.4,784.7z"/>
			</g>
			<g id="XMLID_769_">
				
					<linearGradient id="XMLID_43_" gradientUnits="userSpaceOnUse" x1="563.689" y1="889.4046" x2="563.689" y2="829.1211" gradientTransform="matrix(-0.9925 0.122 0.122 0.9925 964.9738 -170.4678)">
					<stop offset="0" style="stop-color:#F49397"/>
					<stop offset="0.4323" style="stop-color:#FBCDB8"/>
					<stop offset="0.9956" style="stop-color:#FFFFFF"/>
				</linearGradient>
				<path id="XMLID_770_" fill="url(#XMLID_43_)" d="M501.3,781.9c2.3-4.4,4.8-8.8,5.5-13.8c0.7-4.9,0.8-10.1,0.5-15&#10;&#9;&#9;&#9;&#9;&#9;c-0.2-4.2-0.4-9.2-1.7-13.2c-1.5-4.8-2.5-10-5-14.5c-2.2-3.9,0.7-9.2,4.4-10.7c4.2-1.7,8.9,0.4,10.7,4.4&#10;&#9;&#9;&#9;&#9;&#9;c2.5,5.6,5,10.9,5.6,17.2c0.6,6.3,0.3,12.2-1,18.4c-1.2,5.6-4,10.8-7.3,15.5c-3.1,4.5-6.2,9.2-10.5,12.7&#10;&#9;&#9;&#9;&#9;&#9;C502,783.5,501,782.7,501.3,781.9L501.3,781.9z"/>
			</g>
			<g id="XMLID_767_">
				
					<linearGradient id="XMLID_44_" gradientUnits="userSpaceOnUse" x1="581.222" y1="893.008" x2="581.222" y2="838.8159" gradientTransform="matrix(-0.9925 0.122 0.122 0.9925 964.9738 -170.4678)">
					<stop offset="0" style="stop-color:#F49397"/>
					<stop offset="0.4323" style="stop-color:#FBCDB8"/>
					<stop offset="0.9956" style="stop-color:#FFFFFF"/>
				</linearGradient>
				<path id="XMLID_768_" fill="url(#XMLID_44_)" d="M502.7,786c-0.5-4.9-1-8.9-3.2-13.3c-0.9-1.8-1.3-3.5-2.4-5.2&#10;&#9;&#9;&#9;&#9;&#9;c-1.3-1.9-2.5-3.8-3.6-5.8c-3.9-7.3-7.9-14.7-13.9-20.5c-4-3.8-5-9.7-0.8-13.9c4.2-4.2,10.1-3.1,13.9,0.9&#10;&#9;&#9;&#9;&#9;&#9;c7.4,7.9,13.4,17.9,15.2,28.7c0.4,2.6,0.4,5.2,0,7.8c-0.3,2.3-0.3,4.7-0.8,7c-1,4.7-2,9.8-3.7,14.4&#10;&#9;&#9;&#9;&#9;&#9;C503.2,786.5,502.7,786.4,502.7,786L502.7,786z"/>
			</g>
			<g id="XMLID_765_">
				
					<linearGradient id="XMLID_45_" gradientUnits="userSpaceOnUse" x1="594.135" y1="889.7567" x2="594.135" y2="837.5295" gradientTransform="matrix(-0.9925 0.122 0.122 0.9925 964.9738 -170.4678)">
					<stop offset="0" style="stop-color:#F49397"/>
					<stop offset="0.4323" style="stop-color:#FBCDB8"/>
					<stop offset="0.9956" style="stop-color:#FFFFFF"/>
				</linearGradient>
				<path id="XMLID_766_" fill="url(#XMLID_45_)" d="M502,782.9c-4.1-0.1-7.5-3.3-10.5-5.7c-4-3.1-8.5-5.5-12.3-8.7&#10;&#9;&#9;&#9;&#9;&#9;c-9-7.3-14.6-19.3-19.5-29.6c-2.1-4.5,0.6-10.3,5-12.1c4.9-2,9.8,0.5,12.1,5c4.5,9,10.2,17.7,13.7,27.2&#10;&#9;&#9;&#9;&#9;&#9;c1.6,4.4,1.9,8.9,3.7,13.3c1.8,4.3,5.1,6.7,8.2,10C502.6,782.6,502.3,782.9,502,782.9L502,782.9z"/>
			</g>
			<g id="XMLID_763_">
				
					<linearGradient id="XMLID_46_" gradientUnits="userSpaceOnUse" x1="600.1888" y1="888.4451" x2="600.1888" y2="847.9357" gradientTransform="matrix(-0.9925 0.122 0.122 0.9925 964.9738 -170.4678)">
					<stop offset="0" style="stop-color:#F49397"/>
					<stop offset="0.4323" style="stop-color:#FBCDB8"/>
					<stop offset="0.9956" style="stop-color:#FFFFFF"/>
				</linearGradient>
				<path id="XMLID_764_" fill="url(#XMLID_46_)" d="M504.6,781.8c-11.1,1-22.5-0.3-32.4-5.9c-10.3-5.8-20.7-14.8-26.5-25.2&#10;&#9;&#9;&#9;&#9;&#9;c-2-3.6,0.3-8.5,3.6-10.3c3.9-2.1,7.8-1,10.7,2.1c3.3,3.5,6.1,7.5,9.5,11c3.3,3.4,7.4,6.4,11.2,9.2c7.9,5.9,15.5,12.4,24.1,17.4&#10;&#9;&#9;&#9;&#9;&#9;C505.6,780.5,505.6,781.7,504.6,781.8L504.6,781.8z"/>
			</g>
			<g id="XMLID_761_">
				
					<linearGradient id="XMLID_47_" gradientUnits="userSpaceOnUse" x1="553.498" y1="889.2054" x2="553.498" y2="832.4013" gradientTransform="matrix(-0.9925 0.122 0.122 0.9925 964.9738 -170.4678)">
					<stop offset="0" style="stop-color:#F49397"/>
					<stop offset="0.4323" style="stop-color:#FBCDB8"/>
					<stop offset="0.9956" style="stop-color:#FFFFFF"/>
				</linearGradient>
				<path id="XMLID_762_" fill="url(#XMLID_47_)" d="M501.5,781.9c2.4-4.7,5.3-9.1,7-14.2c1.7-5.2,4-10.1,6.5-14.9&#10;&#9;&#9;&#9;&#9;&#9;c4.8-9.4,7.3-18.3,7.2-28.8c0-4.8,2.6-9.3,7.7-9.9c5-0.6,9,3,9.9,7.7c2.4,12.7-2.6,26.7-9.2,37.4c-3.4,5.5-8,10.6-13.6,13.8&#10;&#9;&#9;&#9;&#9;&#9;c-5.2,2.9-10,6.4-15.2,9.3C501.7,782.6,501.4,782.2,501.5,781.9L501.5,781.9z"/>
			</g>
			<g id="XMLID_759_">
				
					<linearGradient id="XMLID_48_" gradientUnits="userSpaceOnUse" x1="607.7527" y1="887.619" x2="607.7527" y2="864.7338" gradientTransform="matrix(-0.9925 0.122 0.122 0.9925 964.9738 -170.4678)">
					<stop offset="0" style="stop-color:#F49397"/>
					<stop offset="0.4323" style="stop-color:#FBCDB8"/>
					<stop offset="0.9956" style="stop-color:#FFFFFF"/>
				</linearGradient>
				<path id="XMLID_760_" fill="url(#XMLID_48_)" d="M504.9,779.3c-5.4,2.9-11.4,5.5-17.2,7.5c-6.5,2.2-13.5,1.8-20.2,0.8&#10;&#9;&#9;&#9;&#9;&#9;c-6.6-0.9-12.9-3-18.8-5.9c-3-1.5-5.9-3.3-8.8-5.1c-3-1.9-6.5-4.1-7.6-7.6c-1.3-4.4,1.6-8.2,6.2-7.9c3.3,0.2,5.9,2.6,8.6,4.3&#10;&#9;&#9;&#9;&#9;&#9;c2.4,1.5,5,2.7,7.6,3.8c4.9,2.1,10.2,3.9,15.4,5.1c5.4,1.3,11,1.7,16.5,2.9c6.2,1.5,11.7,1.7,18,0.9&#10;&#9;&#9;&#9;&#9;&#9;C505.3,778,505.5,779,504.9,779.3L504.9,779.3z"/>
			</g>
			<g id="XMLID_757_">
				
					<linearGradient id="XMLID_49_" gradientUnits="userSpaceOnUse" x1="548.1257" y1="888.445" x2="548.1257" y2="844.1973" gradientTransform="matrix(-0.9925 0.122 0.122 0.9925 964.9738 -170.4678)">
					<stop offset="0" style="stop-color:#F49397"/>
					<stop offset="0.4323" style="stop-color:#FBCDB8"/>
					<stop offset="0.9956" style="stop-color:#FFFFFF"/>
				</linearGradient>
				<path id="XMLID_758_" fill="url(#XMLID_49_)" d="M497.7,780.7c6.1-1.8,11.3-4.6,16.3-8.6c4.4-3.6,7.7-8.4,11.5-12.6&#10;&#9;&#9;&#9;&#9;&#9;c6.8-7.7,12.3-17.8,13.6-28.1c1.3-11.2,19.6-8.3,17.2,2.5c-1.5,6.7-3,13.3-6.4,19.4c-3.5,6.3-7.5,12-12.8,16.9&#10;&#9;&#9;&#9;&#9;&#9;c-9.9,9.2-25.6,12-38.8,12.4C497.1,782.7,496.5,781.1,497.7,780.7L497.7,780.7z"/>
			</g>
			<g id="XMLID_755_">
				
					<linearGradient id="XMLID_50_" gradientUnits="userSpaceOnUse" x1="557.2734" y1="890.8852" x2="557.2734" y2="858.8501" gradientTransform="matrix(-0.9925 0.122 0.122 0.9925 964.9738 -170.4678)">
					<stop offset="0" style="stop-color:#F49397"/>
					<stop offset="0.4323" style="stop-color:#FBCDB8"/>
					<stop offset="0.9956" style="stop-color:#FFFFFF"/>
				</linearGradient>
				<path id="XMLID_756_" fill="url(#XMLID_50_)" d="M498.5,783.3c2.1-3,4.4-5.9,6.9-8.6c2.6-2.7,3.8-6.3,5.8-9.5&#10;&#9;&#9;&#9;&#9;&#9;c4-6.2,7.8-12.3,10.3-19.3c1.7-4.7,7.7-6.7,12.1-4.8c4.8,2.1,6.5,7.4,4.8,12.1c-3.3,9-8.4,17.3-15.9,23.4&#10;&#9;&#9;&#9;&#9;&#9;c-3.4,2.8-7.8,4.1-11.7,6.1c-3.5,1.8-7.7,2.5-11.6,2.4C498.4,785.1,498.1,783.9,498.5,783.3L498.5,783.3z"/>
			</g>
			<g id="XMLID_753_">
				
					<linearGradient id="XMLID_51_" gradientUnits="userSpaceOnUse" x1="594.6071" y1="889.0562" x2="594.6071" y2="857.7424" gradientTransform="matrix(-0.9925 0.122 0.122 0.9925 964.9738 -170.4678)">
					<stop offset="0" style="stop-color:#F49397"/>
					<stop offset="0.4323" style="stop-color:#FBCDB8"/>
					<stop offset="0.9956" style="stop-color:#FFFFFF"/>
				</linearGradient>
				<path id="XMLID_754_" fill="url(#XMLID_51_)" d="M503.7,782.3c-4,0.4-7.6,1.7-11.7,1.3c-4.5-0.4-8.5-2.2-12.6-4.1&#10;&#9;&#9;&#9;&#9;&#9;c-4.3-1.9-7.6-4.8-10.9-8.1c-3.3-3.3-5.4-7.1-8.2-10.7c-3.1-4-1.8-9.9,2.5-12.4c4.2-2.4,10.2-0.8,12,4&#10;&#9;&#9;&#9;&#9;&#9;c2.2,6.1,8.6,11.1,12.9,15.7c2.1,2.3,4.8,4,7.2,5.9c2.8,2.3,5.6,5.6,8.9,7.1C504.4,781.3,504.3,782.2,503.7,782.3L503.7,782.3z"/>
			</g>
			<g id="XMLID_746_">
				
					<linearGradient id="XMLID_52_" gradientUnits="userSpaceOnUse" x1="569.3586" y1="888.3776" x2="569.3586" y2="856.0033" gradientTransform="matrix(-0.9925 0.122 0.122 0.9925 964.9738 -170.4678)">
					<stop offset="0" style="stop-color:#F49397"/>
					<stop offset="0.4323" style="stop-color:#FBCDB8"/>
					<stop offset="0.9956" style="stop-color:#FFFFFF"/>
				</linearGradient>
				<path id="XMLID_747_" fill="url(#XMLID_52_)" d="M498.4,781.4c-2.1-4.5-0.4-10.4,0.4-15c0.8-4.8,1-9.1-0.7-13.6&#10;&#9;&#9;&#9;&#9;&#9;c-3.7-9.9,11.5-16.2,15.2-6.3c2.9,7.9,3.7,17.3,0.7,25.4c-1.5,3.9-4.1,7.3-7.7,9.5C504.5,782.5,499.7,784.1,498.4,781.4&#10;&#9;&#9;&#9;&#9;&#9;L498.4,781.4z"/>
			</g>
			<g id="XMLID_744_">
				
					<linearGradient id="XMLID_53_" gradientUnits="userSpaceOnUse" x1="540.9285" y1="889.881" x2="540.9285" y2="865.6866" gradientTransform="matrix(-0.9925 0.122 0.122 0.9925 964.9738 -170.4678)">
					<stop offset="0" style="stop-color:#F49397"/>
					<stop offset="0.4323" style="stop-color:#FBCDB8"/>
					<stop offset="0.9956" style="stop-color:#FFFFFF"/>
				</linearGradient>
				<path id="XMLID_745_" fill="url(#XMLID_53_)" d="M501.6,781.3c5.5-0.7,10.6-2,15.5-4.5c4.8-2.4,9.3-5.5,13.9-8.2&#10;&#9;&#9;&#9;&#9;&#9;c9-5.2,16.6-12,23.7-19.5c-0.6,2.1-1.1,4.1-1.7,6.2c0-0.3,0-0.6-0.1-0.9c-0.5-5.3,3.7-8.7,8.7-8.5c0.3,0,0.6,0,0.9,0&#10;&#9;&#9;&#9;&#9;&#9;c6.8,0.3,8.5,8.8,5.4,13.5c-7.1,10.4-18.6,18.4-30.4,22.5c-11.2,4-24.5,2.5-36,0.4C501,782.2,501,781.4,501.6,781.3L501.6,781.3&#10;&#9;&#9;&#9;&#9;&#9;z"/>
			</g>
		</g>
		<linearGradient id="XMLID_54_" gradientUnits="userSpaceOnUse" x1="1242.2256" y1="730.8213" x2="1339.2256" y2="1121.8213">
			<stop offset="0" style="stop-color:#FBCDB8"/>
			<stop offset="0.3624" style="stop-color:#F27E8B"/>
			<stop offset="1" style="stop-color:#395175"/>
		</linearGradient>
		<path id="XMLID_13_" clip-path="url(#XMLID_10_)" fill="url(#XMLID_54_)" d="M1449.6,632.5c-4.5-1.3-161.5,90.1-271,163.6&#10;&#9;&#9;&#9;c-109.5,73.5,34.5,69.9,9,140.7s-105,97.8-100.5,102.3s270,24,294,18c24-6,115.5-16.5,87-105S1449.6,632.5,1449.6,632.5z"/>
		<g id="XMLID_612_" clip-path="url(#XMLID_10_)">
			<g id="XMLID_622_">
				<path id="XMLID_623_" fill="#00364F" d="M-16.8,654.9c22.4,36,38.3,75.9,47.1,117.4c4.5,21.1,7.1,42.5,8.3,64&#10;&#9;&#9;&#9;&#9;&#9;c1.2,23-0.6,45.2-4.1,67.9c-3.9,25.4-8.3,50.8-19.5,74.1c-0.7,1.5-3,0.2-2.3-1.3c9.9-20.5,14.4-42.8,18-65.1&#10;&#9;&#9;&#9;&#9;&#9;c3.6-22.7,6.4-44.9,5.6-67.9c-1.4-42.2-9.2-84.3-24-123.9C4,697.8-6.5,676.4-19.1,656.2C-20,654.7-17.7,653.4-16.8,654.9&#10;&#9;&#9;&#9;&#9;&#9;L-16.8,654.9z"/>
			</g>
			<path id="XMLID_621_" fill="#00364F" d="M34.8,891.3c24.2,9.5,41.2-9.7,50.5-37.7C55.6,846.3,34.6,877.8,34.8,891.3z"/>
			<path id="XMLID_620_" fill="#00364F" d="M34,886.4c13.3-32.9-23.6-52.1-36.2-52.1C-7.1,876.9,34,886.4,34,886.4z"/>
			<path id="XMLID_619_" fill="#00364F" d="M36.5,829.7c25,10.4,46.5-20.7,46.4-37.6C55.5,790,37.5,812.8,36.5,829.7z"/>
			<path id="XMLID_618_" fill="#00364F" d="M29.1,769.2c21.6,3.3,32.3-25.3,28.9-38.5C36.2,734.4,26.5,755.8,29.1,769.2z"/>
			<path id="XMLID_617_" fill="#00364F" d="M9.7,707.3c17.7-2.5,19.3-27.4,13.6-36.9C7,678.5,4.5,697.5,9.7,707.3z"/>
			<path id="XMLID_616_" fill="#00364F" d="M-13.3,665.4c7.1-16.4-13.2-30.9-24.3-30.9C-39.3,652.6-24.4,664.7-13.3,665.4z"/>
			<path id="XMLID_615_" fill="#00364F" d="M36.4,824.3c-2-34.8-26.9-45.8-46-44.1C-9,812,23.5,827.8,36.4,824.3z"/>
			<path id="XMLID_614_" fill="#00364F" d="M25,762.6c-1.7-30.3-23.4-39.9-40.1-38.3C-14.5,751.9,13.8,765.7,25,762.6z"/>
			<path id="XMLID_613_" fill="#00364F" d="M6.8,700.8c-8.2-25.8-29.1-29.3-43.1-24.3C-29.7,700.3-2.2,705.9,6.8,700.8z"/>
		</g>
		<g id="XMLID_782_" clip-path="url(#XMLID_10_)">
			<g id="XMLID_792_">
				<path id="XMLID_793_" fill="#00364F" d="M439.6,706.2c-30.2,29.8-55,64.8-73.3,103.1c-9.3,19.4-16.9,39.6-23.1,60.3&#10;&#9;&#9;&#9;&#9;&#9;c-6.6,22.1-10,44.1-12,67c-2.2,25.6-3.8,51.3,1.6,76.6c0.4,1.7,2.9,0.9,2.5-0.7c-4.8-22.2-4-44.9-2.2-67.5&#10;&#9;&#9;&#9;&#9;&#9;c1.8-22.9,4.3-45.2,10.5-67.4c11.3-40.7,28.7-79.8,52.4-114.8c13.3-19.7,28.6-38,45.6-54.8C442.7,706.8,440.8,705,439.6,706.2&#10;&#9;&#9;&#9;&#9;&#9;L439.6,706.2z"/>
			</g>
			<path id="XMLID_791_" fill="#00364F" d="M334,923.9c-25.7,3.6-37.8-19.1-40.2-48.5C324.4,875.4,337.4,910.9,334,923.9z"/>
			<path id="XMLID_790_" fill="#00364F" d="M336,919.4c-5.2-35.1,35.1-45.1,47.4-42.1C378.1,919.8,336,919.4,336,919.4z"/>
			<path id="XMLID_789_" fill="#00364F" d="M346.8,863.7c-26.7,4.3-40.4-31-36.3-47.4C337.6,820.7,349.8,847.1,346.8,863.7z"/>
			<path id="XMLID_788_" fill="#00364F" d="M368.2,806.6c-21.8-1.9-25.5-32.2-19.1-44.2C369.5,771.1,373.8,794.2,368.2,806.6z"/>
			<path id="XMLID_787_" fill="#00364F" d="M401.6,751c-16.6-6.6-12.4-31.2-4.5-39.1C410.9,723.6,408.9,742.6,401.6,751z"/>
			<path id="XMLID_786_" fill="#00364F" d="M433.8,715.7c-3.1-17.6,20.1-26.9,30.9-24.4C462,709.2,444.7,717.6,433.8,715.7z"/>
			<path id="XMLID_785_" fill="#00364F" d="M348.2,858.5c10.1-33.4,36.9-38.3,55.1-32C395.2,857.2,359.9,864.9,348.2,858.5z"/>
			<path id="XMLID_784_" fill="#00364F" d="M373.7,801.2c8.8-29,32.1-33.3,47.9-27.9C414.6,800,383.8,806.8,373.7,801.2z"/>
			<path id="XMLID_783_" fill="#00364F" d="M405.9,745.3c14-23.2,35.1-21.7,47.6-13.5C441.5,753.4,413.4,752.4,405.9,745.3z"/>
		</g>
		<path id="XMLID_778_" clip-path="url(#XMLID_10_)" fill="#00364F" d="M246.3,994.3c29.8-31.4,43.3-77.4,35.1-119.9&#10;&#9;&#9;&#9;c-1.8-9.6-4.9-19.4-11.5-26.7c-6.5-7.3-17.2-11.6-26.5-8.2c-6,2.2-10.4,7.1-15.6,10.8c-5.1,3.7-12.1,6.4-17.7,3.3&#10;&#9;&#9;&#9;c-5.9-3.2-7.3-10.9-8.4-17.6c-3.7-21.8-12.1-42.8-24.6-61c-9.1-13.4-23.4-26.4-39.3-23.4c-12.1,2.3-20.5,13.2-26.1,24.2&#10;&#9;&#9;&#9;c-14.3,28.2-17,61.3-12.4,92.5c4.6,31.3,16.2,61.1,29.2,89.9c8.5,18.8,18.2,38,34.4,50.9s40.5,17.8,57.6,6.2L246.3,994.3z"/>
		<g id="XMLID_2_" clip-path="url(#XMLID_10_)">
			<g id="XMLID_4_">
				<linearGradient id="SVGID_2_" gradientUnits="userSpaceOnUse" x1="31.7075" y1="854.9766" x2="97.4376" y2="854.9766">
					<stop offset="0" style="stop-color:#00364F"/>
					<stop offset="0.2519" style="stop-color:#0F4666"/>
					<stop offset="1" style="stop-color:#865E78"/>
				</linearGradient>
				<path fill="url(#SVGID_2_)" d="M55.3,1019.2c-13.4-28-25.8-85.1-23.3-149.4c2.1-51.3,14.3-124,60.8-179l4.6,3.9&#10;&#9;&#9;&#9;&#9;&#9;C52,748.3,40.1,819.7,38,870c-2.5,63.3,9.6,119.2,22.7,146.6L55.3,1019.2z"/>
			</g>
			<g id="XMLID_5_">
				<linearGradient id="SVGID_3_" gradientUnits="userSpaceOnUse" x1="92.482" y1="643.396" x2="182.9044" y2="643.396">
					<stop offset="0" style="stop-color:#00364F"/>
					<stop offset="0.2519" style="stop-color:#0F4666"/>
					<stop offset="1" style="stop-color:#865E78"/>
				</linearGradient>
				<path fill="url(#SVGID_3_)" d="M97.8,694.1l-5.3-2.8c32.3-62.5,86.6-98.2,87.2-98.6l3.3,5C182.4,598.1,129.4,633.1,97.8,694.1z"/>
			</g>
			<path d="M 185.8 595.200012 A 8.3 8.3 0 0 1 177.5 603.500012 A 8.3 8.3 0 0 1 169.2 595.200012 A 8.3 8.3 0 0 1 177.5 586.900012 A 8.3 8.3 0 0 1 185.8 595.200012 Z" id="XMLID_3_" fill="#00364F"/>
			<path d="M 156.600003 603.599976 A 5.8 5.8 0 0 1 150.800003 609.399976 A 5.8 5.8 0 0 1 145.000003 603.599976 A 5.8 5.8 0 0 1 150.800003 597.799975 A 5.8 5.8 0 0 1 156.600003 603.599976 Z" id="XMLID_6_" fill="#00364F"/>
			<path d="M 163.299994 627 A 6.4 6.4 0 0 1 156.899994 633.4 A 6.4 6.4 0 0 1 150.499994 627 A 6.4 6.4 0 0 1 156.899994 620.6 A 6.4 6.4 0 0 1 163.299994 627 Z" id="XMLID_7_" fill="#00364F"/>
			<path d="M 137.999997 629.799988 A 5.3 5.3 0 0 1 132.699997 635.099988 A 5.3 5.3 0 0 1 127.399997 629.799988 A 5.3 5.3 0 0 1 132.699997 624.499988 A 5.3 5.3 0 0 1 137.999997 629.799988 Z" id="XMLID_8_" fill="#00364F"/>
			<linearGradient id="XMLID_55_" gradientUnits="userSpaceOnUse" x1="37.1532" y1="963.3276" x2="111.1532" y2="766.661">
				<stop offset="0" style="stop-color:#00364F"/>
				<stop offset="0.2519" style="stop-color:#0F4666"/>
				<stop offset="1" style="stop-color:#865E78"/>
			</linearGradient>
			<path id="XMLID_9_" fill="url(#XMLID_55_)" d="M58,1010.5c-5,3.4-44-190.1,16.9-228.1S76.8,997.7,58,1010.5z"/>
			<linearGradient id="XMLID_56_" gradientUnits="userSpaceOnUse" x1="33.465" y1="1050.4434" x2="24.7983" y2="828.4433">
				<stop offset="0" style="stop-color:#00364F"/>
				<stop offset="0.3248" style="stop-color:#1B4868"/>
				<stop offset="1" style="stop-color:#865E78"/>
			</linearGradient>
			<path id="XMLID_11_" fill="url(#XMLID_56_)" d="M63.3,1020.7c0-3-10.9-137-34.6-173.9s-44.8,17.7-25.2,68.5&#10;&#9;&#9;&#9;&#9;C23,966.1,63.3,1020.7,63.3,1020.7z"/>
			<linearGradient id="XMLID_57_" gradientUnits="userSpaceOnUse" x1="82.2875" y1="672.7718" x2="131.6209" y2="542.1051">
				<stop offset="0" style="stop-color:#F49397"/>
				<stop offset="0.4323" style="stop-color:#FBCDB8"/>
				<stop offset="0.9956" style="stop-color:#FFFFFF"/>
			</linearGradient>
			<path id="XMLID_88_" fill="url(#XMLID_57_)" d="M97.1,563.3c0,0-58.7,86.9-6.6,139C156,628.2,112.3,578.6,97.1,563.3z"/>
			<linearGradient id="XMLID_58_" gradientUnits="userSpaceOnUse" x1="91.6283" y1="667.154" x2="209.9446" y2="667.154">
				<stop offset="0" style="stop-color:#F49397"/>
				<stop offset="0.4323" style="stop-color:#FBCDB8"/>
				<stop offset="0.9956" style="stop-color:#FFFFFF"/>
			</linearGradient>
			<path id="XMLID_169_" fill="url(#XMLID_58_)" d="M91.6,702.3c8.8-47.8,75.6-93.9,118.3-65.7C162.8,703.9,126.4,713.8,91.6,702.3z&#10;&#9;&#9;&#9;&#9;"/>
		</g>
		<g id="XMLID_400_" clip-path="url(#XMLID_10_)">
			<linearGradient id="SVGID_4_" gradientUnits="userSpaceOnUse" x1="220.6192" y1="933.3086" x2="260.2522" y2="933.3086">
				<stop offset="0" style="stop-color:#00364F"/>
				<stop offset="0.2519" style="stop-color:#0F4666"/>
				<stop offset="1" style="stop-color:#865E78"/>
			</linearGradient>
			<path fill="url(#SVGID_4_)" d="M260.1,1010.7l-6-0.2c1.5-57.4-12.6-121-33.5-151.1l4.9-3.4C247.1,887.1,261.6,952.1,260.1,1010.7&#10;&#9;&#9;&#9;&#9;z"/>
		</g>
		<g id="XMLID_580_" clip-path="url(#XMLID_10_)">
			<linearGradient id="SVGID_5_" gradientUnits="userSpaceOnUse" x1="410.0509" y1="980.2676" x2="483.2223" y2="980.2676">
				<stop offset="0" style="stop-color:#00364F"/>
				<stop offset="0.2519" style="stop-color:#0F4666"/>
				<stop offset="1" style="stop-color:#865E78"/>
			</linearGradient>
			<path fill="url(#SVGID_5_)" d="M415.9,1052.2l-5.9-1.1c10.4-55.9,28.7-91.7,42.2-111.8c14.8-22,27-30.6,27.5-31l3.4,4.9l-1.7-2.5&#10;&#9;&#9;&#9;&#9;l1.7,2.5c-0.1,0.1-12,8.5-26.2,29.8C443.9,962.6,426.1,997.5,415.9,1052.2z"/>
		</g>
		<linearGradient id="XMLID_59_" gradientUnits="userSpaceOnUse" x1="462.7867" y1="985.7753" x2="390.6021" y2="749.3687">
			<stop offset="0" style="stop-color:#00364F"/>
			<stop offset="0.2519" style="stop-color:#0F4666"/>
			<stop offset="1" style="stop-color:#865E78"/>
		</linearGradient>
		<path id="XMLID_609_" clip-path="url(#XMLID_10_)" fill="url(#XMLID_59_)" d="M417.7,999.5c0,0,70.5-147.7,37.9-238.8&#10;&#9;&#9;&#9;s-71.9,90.8-66.6,164.6S417.7,999.5,417.7,999.5z"/>
		<linearGradient id="XMLID_60_" gradientUnits="userSpaceOnUse" x1="569.3774" y1="1003.434" x2="532.6222" y2="883.0596">
			<stop offset="0" style="stop-color:#00364F"/>
			<stop offset="0.2519" style="stop-color:#0F4666"/>
			<stop offset="1" style="stop-color:#865E78"/>
		</linearGradient>
		<path id="XMLID_610_" clip-path="url(#XMLID_10_)" fill="url(#XMLID_60_)" d="M463.3,1011.1c0,0,49.6-100,137.6-147&#10;&#9;&#9;&#9;s-10.6,128.4-63.7,148.7C484.1,1033.1,463.3,1011.1,463.3,1011.1z"/>
		<linearGradient id="XMLID_61_" gradientUnits="userSpaceOnUse" x1="335.6667" y1="1039.063" x2="335.6667" y2="1039.063">
			<stop offset="0" style="stop-color:#F49397"/>
			<stop offset="0.4323" style="stop-color:#FBCDB8"/>
			<stop offset="0.9956" style="stop-color:#FFFFFF"/>
		</linearGradient>
		<path id="XMLID_399_" clip-path="url(#XMLID_10_)" fill="url(#XMLID_61_)" d="M335.7,1039.1"/>
		<g id="XMLID_401_" clip-path="url(#XMLID_10_)">
			<g id="XMLID_436_">
				
					<linearGradient id="XMLID_62_" gradientUnits="userSpaceOnUse" x1="514.9608" y1="1028.7273" x2="514.9608" y2="938.5397" gradientTransform="matrix(-0.8703 -0.4925 -0.4925 0.8703 1414.0374 293.2244)">
					<stop offset="0" style="stop-color:#F49397"/>
					<stop offset="0.4323" style="stop-color:#FBCDB8"/>
					<stop offset="0.9956" style="stop-color:#FFFFFF"/>
				</linearGradient>
				<path id="XMLID_437_" fill="url(#XMLID_62_)" d="M454.8,931.9c2.2-1.7,4.1-6.4,5.6-8.8c1.6-2.7,2.9-5.7,4.4-8.6&#10;&#9;&#9;&#9;&#9;&#9;c3-6,5.3-12.3,8.1-18.4c2.8-6,5.2-12.1,7.3-18.4c2.5-7.4,5.7-14.6,8.4-22c2.1-5.7,7.4-9.8,13.7-8.2c5.5,1.4,10.2,7.9,8.2,13.7&#10;&#9;&#9;&#9;&#9;&#9;c-5.5,16-11.5,32-20.5,46.5c-3.9,6.2-9.3,12-15,16.5c-3,2.4-6.2,4.1-9.6,5.8c-3.1,1.5-6.8,1.3-9.7,2.8&#10;&#9;&#9;&#9;&#9;&#9;C455,933.2,454.2,932.4,454.8,931.9L454.8,931.9z"/>
			</g>
			<g id="XMLID_434_">
				
					<linearGradient id="XMLID_63_" gradientUnits="userSpaceOnUse" x1="534.6378" y1="1031.2516" x2="534.6378" y2="942.9241" gradientTransform="matrix(-0.8703 -0.4925 -0.4925 0.8703 1414.0374 293.2244)">
					<stop offset="0" style="stop-color:#F49397"/>
					<stop offset="0.4323" style="stop-color:#FBCDB8"/>
					<stop offset="0.9956" style="stop-color:#FFFFFF"/>
				</linearGradient>
				<path id="XMLID_435_" fill="url(#XMLID_63_)" d="M454.6,935.2c1.1-7.8-0.8-15.6,0.1-23.4c0.8-7.3,1.4-14.8,2.7-22&#10;&#9;&#9;&#9;&#9;&#9;c2.6-14.7,5.7-29.3,8.4-44.1c1.1-6.1,8.2-9.7,13.8-8.3c6.4,1.6,9.3,7.7,8.3,13.8c-2.4,15.1-5.3,30.1-10.2,44.6&#10;&#9;&#9;&#9;&#9;&#9;c-2.4,7.1-5.6,14.7-9.2,21.3c-3.6,6.6-9.2,11.8-12.8,18.5C455.3,936.2,454.5,935.8,454.6,935.2L454.6,935.2z"/>
			</g>
			<g id="XMLID_430_">
				
					<linearGradient id="XMLID_64_" gradientUnits="userSpaceOnUse" x1="503.3439" y1="1028.4681" x2="503.3439" y2="951.1321" gradientTransform="matrix(-0.8703 -0.4925 -0.4925 0.8703 1414.0374 293.2244)">
					<stop offset="0" style="stop-color:#F49397"/>
					<stop offset="0.4323" style="stop-color:#FBCDB8"/>
					<stop offset="0.9956" style="stop-color:#FFFFFF"/>
				</linearGradient>
				<path id="XMLID_432_" fill="url(#XMLID_64_)" d="M455.7,931.5c5.7-2.8,11.7-5.4,16.2-10c4.5-4.5,8.5-9.8,12-15.1&#10;&#9;&#9;&#9;&#9;&#9;c3-4.5,6.6-9.8,8.4-14.9c2.1-6,5.1-12.2,5.9-18.7c0.7-5.6,7.7-8.9,12.8-7.6c5.7,1.4,8.9,7.2,7.6,12.8&#10;&#9;&#9;&#9;&#9;&#9;c-1.7,7.7-3.2,15.1-7.4,21.9c-4.3,7-9,12.8-15.1,18.2c-5.5,4.9-12.4,8-19.4,10.4c-6.7,2.3-13.4,4.7-20.5,5.1&#10;&#9;&#9;&#9;&#9;&#9;C455.2,933.6,454.7,932,455.7,931.5L455.7,931.5z"/>
			</g>
			<g id="XMLID_428_">
				
					<linearGradient id="XMLID_65_" gradientUnits="userSpaceOnUse" x1="525.8366" y1="1033.0908" x2="525.8366" y2="963.5693" gradientTransform="matrix(-0.8703 -0.4925 -0.4925 0.8703 1414.0374 293.2244)">
					<stop offset="0" style="stop-color:#F49397"/>
					<stop offset="0.4323" style="stop-color:#FBCDB8"/>
					<stop offset="0.9956" style="stop-color:#FFFFFF"/>
				</linearGradient>
				<path id="XMLID_429_" fill="url(#XMLID_65_)" d="M453.9,936.8c3.2-5.4,5.7-10,6.9-16.2c0.5-2.5,1.4-4.6,1.4-7.2&#10;&#9;&#9;&#9;&#9;&#9;c0.1-2.9,0.3-5.8,0.7-8.7c1.5-10.5,3.1-21.2,1.3-31.8c-1.2-7,2.2-13.8,9.8-14.9c7.5-1.1,12.8,4.5,13.6,11.5&#10;&#9;&#9;&#9;&#9;&#9;c1.6,13.8,0.2,28.7-6.2,41.2c-1.5,3-3.6,5.7-6,8c-2.1,2.1-4,4.6-6.2,6.6c-4.6,4.1-9.6,8.6-14.8,12&#10;&#9;&#9;&#9;&#9;&#9;C454.2,937.7,453.7,937.1,453.9,936.8L453.9,936.8z"/>
			</g>
			<g id="XMLID_425_">
				
					<linearGradient id="XMLID_66_" gradientUnits="userSpaceOnUse" x1="542.4023" y1="1028.9198" x2="542.4023" y2="961.9191" gradientTransform="matrix(-0.8703 -0.4925 -0.4925 0.8703 1414.0374 293.2244)">
					<stop offset="0" style="stop-color:#F49397"/>
					<stop offset="0.4323" style="stop-color:#FBCDB8"/>
					<stop offset="0.9956" style="stop-color:#FFFFFF"/>
				</linearGradient>
				<path id="XMLID_427_" fill="url(#XMLID_66_)" d="M455.6,933.1c-4.2-3.2-5.2-9.1-6.5-13.9c-1.7-6.2-4.5-12.2-6.1-18.4&#10;&#9;&#9;&#9;&#9;&#9;c-3.7-14.4-0.4-31.1,2.5-45.4c1.3-6.3,8.4-10.1,14.4-8.6c6.6,1.7,9.7,8.1,8.6,14.4c-2.2,12.7-3,26.1-6.7,38.5&#10;&#9;&#9;&#9;&#9;&#9;c-1.7,5.7-4.9,10.7-6.3,16.5c-1.4,5.8,0.2,10.8,0.9,16.5C456.5,933.2,455.9,933.3,455.6,933.1L455.6,933.1z"/>
			</g>
			<g id="XMLID_422_">
				
					<linearGradient id="XMLID_67_" gradientUnits="userSpaceOnUse" x1="550.1685" y1="1027.2372" x2="550.1685" y2="975.2689" gradientTransform="matrix(-0.8703 -0.4925 -0.4925 0.8703 1414.0374 293.2244)">
					<stop offset="0" style="stop-color:#F49397"/>
					<stop offset="0.4323" style="stop-color:#FBCDB8"/>
					<stop offset="0.9956" style="stop-color:#FFFFFF"/>
				</linearGradient>
				<path id="XMLID_423_" fill="url(#XMLID_67_)" d="M459.2,933.9c-12.2-7.4-23-17.5-28.9-30.8c-6.1-13.9-10.1-31-8-46.2&#10;&#9;&#9;&#9;&#9;&#9;c0.7-5.2,6.8-8.5,11.5-7.9c5.6,0.7,8.8,4.9,9.4,10.3c0.7,6.1,0.6,12.4,1.4,18.6c0.8,6.1,2.8,12.2,4.5,18.1&#10;&#9;&#9;&#9;&#9;&#9;c3.6,12.2,6.5,24.7,11.5,36.3C461.1,933.3,460.2,934.5,459.2,933.9L459.2,933.9z"/>
			</g>
			<g id="XMLID_420_">
				
					<linearGradient id="XMLID_68_" gradientUnits="userSpaceOnUse" x1="490.2702" y1="1028.2125" x2="490.2702" y2="955.3402" gradientTransform="matrix(-0.8703 -0.4925 -0.4925 0.8703 1414.0374 293.2244)">
					<stop offset="0" style="stop-color:#F49397"/>
					<stop offset="0.4323" style="stop-color:#FBCDB8"/>
					<stop offset="0.9956" style="stop-color:#FFFFFF"/>
				</linearGradient>
				<path id="XMLID_421_" fill="url(#XMLID_68_)" d="M455.8,931.7c6.1-3.1,12.5-5.4,18.1-9.3c5.8-4,11.8-7.3,18.1-10.4&#10;&#9;&#9;&#9;&#9;&#9;c12.1-6,21.4-13.3,29.5-24.2c3.7-5,9.7-7.6,15.5-4.3c5.6,3.2,7,10,4.3,15.5c-7.3,14.9-23.1,25.5-38,31.6&#10;&#9;&#9;&#9;&#9;&#9;c-7.7,3.1-16.3,4.9-24.6,3.9c-7.6-0.9-15.2-1-22.8-2C455.5,932.5,455.5,931.8,455.8,931.7L455.8,931.7z"/>
			</g>
			<g id="XMLID_416_">
				
					<linearGradient id="XMLID_69_" gradientUnits="userSpaceOnUse" x1="559.8719" y1="1026.1774" x2="559.8719" y2="996.8187" gradientTransform="matrix(-0.8703 -0.4925 -0.4925 0.8703 1414.0374 293.2244)">
					<stop offset="0" style="stop-color:#F49397"/>
					<stop offset="0.4323" style="stop-color:#FBCDB8"/>
					<stop offset="0.9956" style="stop-color:#FFFFFF"/>
				</linearGradient>
				<path id="XMLID_418_" fill="url(#XMLID_69_)" d="M461.4,931.5c-7.8-1.2-15.9-3-23.4-5.4c-8.3-2.7-15.3-8.5-21.5-14.6&#10;&#9;&#9;&#9;&#9;&#9;c-6.1-6-11-12.9-14.9-20.5c-2-3.8-3.6-7.9-5.1-11.9c-1.6-4.2-3.6-9.2-2.1-13.6c2-5.6,7.9-7.2,12.5-3.5c3.3,2.7,4.1,7.2,5.6,11&#10;&#9;&#9;&#9;&#9;&#9;c1.3,3.4,3.1,6.5,4.9,9.7c3.4,6,7.5,11.7,12,17c4.6,5.5,10.1,10.1,14.7,15.6c5.3,6.2,10.7,10.7,17.9,14.7&#10;&#9;&#9;&#9;&#9;&#9;C462.8,930.5,462.2,931.7,461.4,931.5L461.4,931.5z"/>
			</g>
			<g id="XMLID_414_">
				
					<linearGradient id="XMLID_70_" gradientUnits="userSpaceOnUse" x1="483.3782" y1="1027.2371" x2="483.3782" y2="970.473" gradientTransform="matrix(-0.8703 -0.4925 -0.4925 0.8703 1414.0374 293.2244)">
					<stop offset="0" style="stop-color:#F49397"/>
					<stop offset="0.4323" style="stop-color:#FBCDB8"/>
					<stop offset="0.9956" style="stop-color:#FFFFFF"/>
				</linearGradient>
				<path id="XMLID_415_" fill="url(#XMLID_70_)" d="M452.8,927.5c7.7,2.8,15.2,4,23.3,3.6c7.3-0.4,14.4-2.7,21.5-4.2&#10;&#9;&#9;&#9;&#9;&#9;c12.9-2.7,26.3-8.9,35.4-18.6c9.9-10.5,26.5,6.4,15.8,15.7c-6.7,5.8-13.3,11.4-21.5,15.1c-8.4,3.8-16.9,6.7-26.1,7.7&#10;&#9;&#9;&#9;&#9;&#9;c-17.3,1.9-35.6-7.2-49.4-16.8C450.7,929.2,451.3,927,452.8,927.5L452.8,927.5z"/>
			</g>
			<g id="XMLID_411_">
				
					<linearGradient id="XMLID_71_" gradientUnits="userSpaceOnUse" x1="495.1135" y1="1030.3676" x2="495.1135" y2="989.2706" gradientTransform="matrix(-0.8703 -0.4925 -0.4925 0.8703 1414.0374 293.2244)">
					<stop offset="0" style="stop-color:#F49397"/>
					<stop offset="0.4323" style="stop-color:#FBCDB8"/>
					<stop offset="0.9956" style="stop-color:#FFFFFF"/>
				</linearGradient>
				<path id="XMLID_413_" fill="url(#XMLID_71_)" d="M451.8,930.8c4.4-1.5,9.1-2.7,13.7-3.6c4.7-0.9,8.8-3.6,13.2-5.3&#10;&#9;&#9;&#9;&#9;&#9;c8.8-3.3,17.4-6.7,25.3-12c5.3-3.5,13-1,16.1,4.3c3.3,5.8,1.1,12.6-4.3,16.1c-10.3,6.8-21.9,11.5-34.2,12.1&#10;&#9;&#9;&#9;&#9;&#9;c-5.6,0.3-11.2-1.8-16.7-2.7c-4.9-0.8-9.9-3.3-13.8-6.4C450.1,932.5,450.8,931.1,451.8,930.8L451.8,930.8z"/>
			</g>
			<g id="XMLID_408_">
				
					<linearGradient id="XMLID_72_" gradientUnits="userSpaceOnUse" x1="543.0079" y1="1028.0212" x2="543.0079" y2="987.8496" gradientTransform="matrix(-0.8703 -0.4925 -0.4925 0.8703 1414.0374 293.2244)">
					<stop offset="0" style="stop-color:#F49397"/>
					<stop offset="0.4323" style="stop-color:#FBCDB8"/>
					<stop offset="0.9956" style="stop-color:#FFFFFF"/>
				</linearGradient>
				<path id="XMLID_409_" fill="url(#XMLID_72_)" d="M457.8,933.7c-4.4-2.7-9.1-4.1-13.1-7.6c-4.3-3.9-7.1-8.8-9.9-13.8&#10;&#9;&#9;&#9;&#9;&#9;c-3-5.3-4.2-10.8-5.1-16.7c-0.8-5.9-0.2-11.4-0.3-17.3c-0.1-6.5,5.7-11.6,12.1-10.8c6.2,0.7,11.1,7,9.3,13.3&#10;&#9;&#9;&#9;&#9;&#9;c-2.4,8,0.4,18,1.3,26c0.5,3.9,1.9,7.8,2.9,11.6c1.2,4.5,1.5,10,3.8,14.1C459.3,933.2,458.5,934.1,457.8,933.7L457.8,933.7z"/>
			</g>
			<g id="XMLID_406_">
				
					<linearGradient id="XMLID_73_" gradientUnits="userSpaceOnUse" x1="510.6173" y1="1027.1505" x2="510.6173" y2="985.6185" gradientTransform="matrix(-0.8703 -0.4925 -0.4925 0.8703 1414.0374 293.2244)">
					<stop offset="0" style="stop-color:#F49397"/>
					<stop offset="0.4323" style="stop-color:#FBCDB8"/>
					<stop offset="0.9956" style="stop-color:#FFFFFF"/>
				</linearGradient>
				<path id="XMLID_407_" fill="url(#XMLID_73_)" d="M453,928.8c1.3-6.2,7.5-11.1,11.9-15.2c4.5-4.3,8-8.6,9.7-14.5&#10;&#9;&#9;&#9;&#9;&#9;c3.8-13,24.3-7.9,20.5,5.1c-3,10.3-9.3,20.7-18.7,26.7c-4.5,2.9-9.8,4.4-15.2,3.9C458.5,934.5,452.3,932.5,453,928.8L453,928.8z&#10;&#9;&#9;&#9;&#9;&#9;"/>
			</g>
			<g id="XMLID_402_">
				
					<linearGradient id="XMLID_74_" gradientUnits="userSpaceOnUse" x1="474.1451" y1="1029.0792" x2="474.1451" y2="998.0411" gradientTransform="matrix(-0.8703 -0.4925 -0.4925 0.8703 1414.0374 293.2244)">
					<stop offset="0" style="stop-color:#F49397"/>
					<stop offset="0.4323" style="stop-color:#FBCDB8"/>
					<stop offset="0.9956" style="stop-color:#FFFFFF"/>
				</linearGradient>
				<path id="XMLID_404_" fill="url(#XMLID_74_)" d="M456.4,931.1c6.2,3.5,12.4,6,19.4,7.2c6.8,1.2,13.8,1.4,20.6,2.2&#10;&#9;&#9;&#9;&#9;&#9;c13.3,1.5,26.3,0.3,39.4-2c-2.2,1.7-4.3,3.4-6.5,5.1c0.2-0.3,0.4-0.6,0.6-1c3.6-5.8,10.4-6.1,15.4-2.1c0.3,0.3,0.6,0.5,0.9,0.8&#10;&#9;&#9;&#9;&#9;&#9;c6.8,5.5,2.1,15.6-4.7,18c-15.3,5.4-33.2,4.7-48.5,0c-14.6-4.5-27.2-16.1-37.4-27.1C455.1,931.6,455.7,930.7,456.4,931.1&#10;&#9;&#9;&#9;&#9;&#9;L456.4,931.1z"/>
			</g>
		</g>
		<g id="XMLID_694_" clip-path="url(#XMLID_10_)">
			<linearGradient id="XMLID_75_" gradientUnits="userSpaceOnUse" x1="345.6586" y1="974.5782" x2="346.0449" y2="974.5782">
				<stop offset="5.102040e-002" style="stop-color:#0F4565"/>
				<stop offset="0.5914" style="stop-color:#FF7F8C"/>
				<stop offset="0.9694" style="stop-color:#FFCFB9"/>
			</linearGradient>
			<path id="XMLID_696_" fill="url(#XMLID_75_)" d="M253.9,989.2c-29-31.3-61.2-57.3-99.8-78.4c-5.8-3.6-11.9-6.7-18.3-9&#10;&#9;&#9;&#9;&#9;c38.9,63.6,50.3,192.2,175.5,127.9c0,0-0.1-0.4-0.4-1.2C287.4,1026.5,269.7,1005.8,253.9,989.2z"/>
			
				<linearGradient id="XMLID_76_" gradientUnits="userSpaceOnUse" x1="208.8122" y1="1055.6625" x2="348.9123" y2="746.0583" gradientTransform="matrix(0.9054 -0.4245 0.4245 0.9054 -413.4252 159.2791)">
				<stop offset="5.102040e-002" style="stop-color:#0F4565"/>
				<stop offset="0.5914" style="stop-color:#FF7F8C"/>
				<stop offset="0.9694" style="stop-color:#FFCFB9"/>
			</linearGradient>
			<path id="XMLID_695_" fill="url(#XMLID_76_)" d="M134.9,900.4c0.3,0.5,0.6,1,0.9,1.5c6.5,2.3,12.6,5.4,18.3,9&#10;&#9;&#9;&#9;&#9;c38.5,21.1,70.8,47.1,99.8,78.4c15.8,16.6,33.4,37.2,57,39.3C307.1,1016.6,271.4,915.9,134.9,900.4z"/>
		</g>
		<g id="XMLID_395_" clip-path="url(#XMLID_10_)">
			<g id="XMLID_380_">
				
					<linearGradient id="XMLID_77_" gradientUnits="userSpaceOnUse" x1="210.1098" y1="877.7902" x2="210.1098" y2="768.5154" gradientTransform="matrix(0.9564 -0.292 0.292 0.9564 -231.4961 97.0779)">
					<stop offset="0" style="stop-color:#F49397"/>
					<stop offset="0.4323" style="stop-color:#FBCDB8"/>
					<stop offset="0.9956" style="stop-color:#FFFFFF"/>
				</linearGradient>
				<path id="XMLID_403_" fill="url(#XMLID_77_)" d="M231.7,872.9c-2.2-2.6-3.2-8.6-4.3-11.9c-1.2-3.7-2-7.5-2.9-11.3&#10;&#9;&#9;&#9;&#9;&#9;c-2-7.9-3-15.9-4.8-23.9c-1.7-7.8-2.9-15.7-3.8-23.6c-1.1-9.5-2.9-18.8-4.1-28.2c-0.9-7.3-6.2-13.5-14-13.3&#10;&#9;&#9;&#9;&#9;&#9;c-6.9,0.2-14.1,6.7-13.3,14c2.3,20.3,5.2,40.9,12,60.3c2.9,8.4,7.8,16.6,13.5,23.5c2.9,3.6,6.3,6.5,9.9,9.4&#10;&#9;&#9;&#9;&#9;&#9;c3.3,2.6,7.7,3.3,10.8,5.8C231.2,874.3,232.3,873.6,231.7,872.9L231.7,872.9z"/>
			</g>
			<g id="XMLID_381_">
				
					<linearGradient id="XMLID_78_" gradientUnits="userSpaceOnUse" x1="233.9511" y1="880.8488" x2="233.9511" y2="773.8276" gradientTransform="matrix(0.9564 -0.292 0.292 0.9564 -231.4961 97.0779)">
					<stop offset="0" style="stop-color:#F49397"/>
					<stop offset="0.4323" style="stop-color:#FBCDB8"/>
					<stop offset="0.9956" style="stop-color:#FFFFFF"/>
				</linearGradient>
				<path id="XMLID_410_" fill="url(#XMLID_78_)" d="M231.1,876.9c0.8-9.5,5-18.2,6-27.7c0.9-8.9,2.3-17.9,2.6-26.8&#10;&#9;&#9;&#9;&#9;&#9;c0.8-18.1,0.9-36.2,1.7-54.3c0.3-7.5-7.1-13.6-14.2-13.4c-8,0.2-13,6.7-13.4,14.2c-1.1,18.5-1.6,36.9,0.3,55.4&#10;&#9;&#9;&#9;&#9;&#9;c0.9,9,2.8,18.9,5.3,27.7c2.5,8.8,7.7,16.4,10.3,25.2C230,877.9,231.1,877.6,231.1,876.9L231.1,876.9z"/>
			</g>
			<g id="XMLID_382_">
				
					<linearGradient id="XMLID_79_" gradientUnits="userSpaceOnUse" x1="196.0343" y1="877.4763" x2="196.0343" y2="783.7728" gradientTransform="matrix(0.9564 -0.292 0.292 0.9564 -231.4961 97.0779)">
					<stop offset="0" style="stop-color:#F49397"/>
					<stop offset="0.4323" style="stop-color:#FBCDB8"/>
					<stop offset="0.9956" style="stop-color:#FFFFFF"/>
				</linearGradient>
				<path id="XMLID_417_" fill="url(#XMLID_79_)" d="M230.8,872.2c-6-4.8-12.4-9.5-16.6-16.1c-4.1-6.6-7.5-13.8-10.2-21&#10;&#9;&#9;&#9;&#9;&#9;c-2.3-6.2-5.2-13.4-6-19.9c-0.9-7.7-2.9-15.8-2.1-23.7c0.7-6.8-6.8-12.6-13.1-12.4c-7.1,0.2-12.4,6.2-12.4,13.1&#10;&#9;&#9;&#9;&#9;&#9;c0,9.5-0.2,18.7,3,27.9c3.2,9.4,7.3,17.5,13.1,25.5c5.3,7.2,12.5,12.7,20.2,17.4c7.3,4.4,14.7,9.1,22.9,11.5&#10;&#9;&#9;&#9;&#9;&#9;C230.9,874.8,231.8,873.1,230.8,872.2L230.8,872.2z"/>
			</g>
			<g id="XMLID_383_">
				
					<linearGradient id="XMLID_80_" gradientUnits="userSpaceOnUse" x1="223.2873" y1="883.0773" x2="223.2873" y2="798.8422" gradientTransform="matrix(0.9564 -0.292 0.292 0.9564 -231.4961 97.0779)">
					<stop offset="0" style="stop-color:#F49397"/>
					<stop offset="0.4323" style="stop-color:#FBCDB8"/>
					<stop offset="0.9956" style="stop-color:#FFFFFF"/>
				</linearGradient>
				<path id="XMLID_424_" fill="url(#XMLID_80_)" d="M231.5,878.9c-2.4-7.3-4.2-13.3-4-21c0.1-3.1-0.4-5.8,0.2-8.9&#10;&#9;&#9;&#9;&#9;&#9;c0.7-3.5,1.2-6.9,1.4-10.5c1-12.8,1.9-25.8,6.8-37.9c3.2-8,1-16.9-7.7-20.2c-8.6-3.3-16.3,1.9-19.1,10.1&#10;&#9;&#9;&#9;&#9;&#9;c-5.6,15.9-7.8,33.9-3.5,50.3c1,3.9,2.8,7.7,5,11c1.9,3,3.5,6.5,5.6,9.4c4.4,6.1,9.1,12.7,14.4,18.1&#10;&#9;&#9;&#9;&#9;&#9;C231,879.9,231.7,879.4,231.5,878.9L231.5,878.9z"/>
			</g>
			<g id="XMLID_386_">
				
					<linearGradient id="XMLID_81_" gradientUnits="userSpaceOnUse" x1="243.359" y1="878.0235" x2="243.359" y2="796.8427" gradientTransform="matrix(0.9564 -0.292 0.292 0.9564 -231.4961 97.0779)">
					<stop offset="0" style="stop-color:#F49397"/>
					<stop offset="0.4323" style="stop-color:#FBCDB8"/>
					<stop offset="0.9956" style="stop-color:#FFFFFF"/>
				</linearGradient>
				<path id="XMLID_431_" fill="url(#XMLID_81_)" d="M230.5,874.1c5.8-2.7,8.6-9.4,11.4-14.7c3.6-6.9,8.5-13.2,12-20.1&#10;&#9;&#9;&#9;&#9;&#9;c8.2-16.1,8.6-36.7,9-54.3c0.2-7.8-7.3-14.2-14.8-14c-8.3,0.2-13.6,7-14,14.8c-0.7,15.7-3.3,31.6-2.2,47.3&#10;&#9;&#9;&#9;&#9;&#9;c0.5,7.2,3,13.9,3.1,21.2c0.2,7.3-3,12.7-5.4,19.3C229.4,874,230.1,874.2,230.5,874.1L230.5,874.1z"/>
			</g>
			<g id="XMLID_387_">
				
					<linearGradient id="XMLID_82_" gradientUnits="userSpaceOnUse" x1="252.7688" y1="875.9848" x2="252.7688" y2="813.0179" gradientTransform="matrix(0.9564 -0.292 0.292 0.9564 -231.4961 97.0779)">
					<stop offset="0" style="stop-color:#F49397"/>
					<stop offset="0.4323" style="stop-color:#FBCDB8"/>
					<stop offset="0.9956" style="stop-color:#FFFFFF"/>
				</linearGradient>
				<path id="XMLID_433_" fill="url(#XMLID_82_)" d="M226.1,874.1c16.4-5.6,31.8-14.7,42.2-28.8c10.9-14.8,20.1-34,21.6-52.5&#10;&#9;&#9;&#9;&#9;&#9;c0.5-6.3-5.8-11.9-11.6-12.4c-6.8-0.6-11.7,3.5-13.9,9.7c-2.5,7.1-4,14.5-6.6,21.6c-2.5,7-6.5,13.7-10.1,20.2&#10;&#9;&#9;&#9;&#9;&#9;c-7.5,13.4-14.2,27.5-23.2,40C223.9,872.9,224.6,874.6,226.1,874.1L226.1,874.1z"/>
			</g>
			<g id="XMLID_388_">
				
					<linearGradient id="XMLID_83_" gradientUnits="userSpaceOnUse" x1="180.1936" y1="877.1666" x2="180.1936" y2="788.8715" gradientTransform="matrix(0.9564 -0.292 0.292 0.9564 -231.4961 97.0779)">
					<stop offset="0" style="stop-color:#F49397"/>
					<stop offset="0.4323" style="stop-color:#FBCDB8"/>
					<stop offset="0.9956" style="stop-color:#FFFFFF"/>
				</linearGradient>
				<path id="XMLID_426_" fill="url(#XMLID_83_)" d="M230.6,872.3c-6.4-5.2-13.3-9.6-19-15.7c-5.8-6.3-12-11.7-18.7-17.1&#10;&#9;&#9;&#9;&#9;&#9;c-12.8-10.3-21.9-21.4-28.5-36.3c-3-6.8-9.5-11.6-17.3-9.2c-7.5,2.3-10.9,10-9.2,17.3c4.7,19.5,20.6,36.3,36.7,47.3&#10;&#9;&#9;&#9;&#9;&#9;c8.3,5.7,18,10,28.1,11c9.2,0.9,18.2,2.9,27.4,3.7C230.7,873.4,231,872.6,230.6,872.3L230.6,872.3z"/>
			</g>
			<g id="XMLID_389_">
				
					<linearGradient id="XMLID_84_" gradientUnits="userSpaceOnUse" x1="264.5259" y1="874.7006" x2="264.5259" y2="839.1285" gradientTransform="matrix(0.9564 -0.292 0.292 0.9564 -231.4961 97.0779)">
					<stop offset="0" style="stop-color:#F49397"/>
					<stop offset="0.4323" style="stop-color:#FBCDB8"/>
					<stop offset="0.9956" style="stop-color:#FFFFFF"/>
				</linearGradient>
				<path id="XMLID_419_" fill="url(#XMLID_84_)" d="M224.1,870.7c9.5,0.7,19.6,0.7,29.1-0.2c10.6-1,20.3-6.1,29.2-11.7&#10;&#9;&#9;&#9;&#9;&#9;c8.8-5.5,16.4-12.4,23-20.3c3.3-4,6.3-8.4,9.2-12.8c3-4.5,6.7-9.9,6-15.5c-0.9-7.1-7.4-10.6-13.8-7.4c-4.6,2.3-6.7,7.5-9.5,11.6&#10;&#9;&#9;&#9;&#9;&#9;c-2.5,3.6-5.4,6.9-8.3,10.2c-5.6,6.1-12,11.9-18.6,17c-6.9,5.3-14.6,9.3-21.5,14.6c-7.9,6-15.5,9.9-25,12.7&#10;&#9;&#9;&#9;&#9;&#9;C222.6,869.2,223,870.6,224.1,870.7L224.1,870.7z"/>
			</g>
			<g id="XMLID_390_">
				
					<linearGradient id="XMLID_85_" gradientUnits="userSpaceOnUse" x1="171.843" y1="875.9846" x2="171.843" y2="807.2069" gradientTransform="matrix(0.9564 -0.292 0.292 0.9564 -231.4961 97.0779)">
					<stop offset="0" style="stop-color:#F49397"/>
					<stop offset="0.4323" style="stop-color:#FBCDB8"/>
					<stop offset="0.9956" style="stop-color:#FFFFFF"/>
				</linearGradient>
				<path id="XMLID_412_" fill="url(#XMLID_85_)" d="M235.3,868.2c-9.8,1.3-19,0.7-28.5-1.9c-8.5-2.3-16.3-7-24.3-10.6&#10;&#9;&#9;&#9;&#9;&#9;c-14.5-6.6-28.7-17.4-37-31.4c-8.9-15-33.1,0.6-22.8,14.4c6.4,8.6,12.7,17,21.4,23.5c8.9,6.7,18.2,12.3,28.8,16&#10;&#9;&#9;&#9;&#9;&#9;c19.9,6.8,44,0.9,62.9-6.9C237.3,870.7,237.2,868,235.3,868.2L235.3,868.2z"/>
			</g>
			<g id="XMLID_391_">
				
					<linearGradient id="XMLID_86_" gradientUnits="userSpaceOnUse" x1="186.062" y1="879.7776" x2="186.062" y2="829.983" gradientTransform="matrix(0.9564 -0.292 0.292 0.9564 -231.4961 97.0779)">
					<stop offset="0" style="stop-color:#F49397"/>
					<stop offset="0.4323" style="stop-color:#FBCDB8"/>
					<stop offset="0.9956" style="stop-color:#FFFFFF"/>
				</linearGradient>
				<path id="XMLID_405_" fill="url(#XMLID_86_)" d="M235.6,872.4c-4.9-3-10.1-5.6-15.3-7.8c-5.4-2.3-9.4-6.6-14.3-9.7&#10;&#9;&#9;&#9;&#9;&#9;c-9.6-6.3-18.9-12.6-26.8-20.9c-5.3-5.6-15.2-4.6-20.1,0.8c-5.5,5.9-4.6,14.6,0.8,20.1c10.4,10.7,22.8,19.3,37.3,23.3&#10;&#9;&#9;&#9;&#9;&#9;c6.6,1.8,13.7,0.9,20.5,1.3c6.1,0.3,12.6-1.3,18-3.9C237.1,874.9,236.7,873,235.6,872.4L235.6,872.4z"/>
			</g>
			<g id="XMLID_392_">
				
					<linearGradient id="XMLID_87_" gradientUnits="userSpaceOnUse" x1="244.0928" y1="876.9347" x2="244.0928" y2="828.2612" gradientTransform="matrix(0.9564 -0.292 0.292 0.9564 -231.4961 97.0779)">
					<stop offset="0" style="stop-color:#F49397"/>
					<stop offset="0.4323" style="stop-color:#FBCDB8"/>
					<stop offset="0.9956" style="stop-color:#FFFFFF"/>
				</linearGradient>
				<path id="XMLID_398_" fill="url(#XMLID_87_)" d="M227.7,874.2c5.9-2,11.8-2.5,17.5-5.6c6.1-3.4,10.7-8.6,15.3-13.7&#10;&#9;&#9;&#9;&#9;&#9;c4.9-5.5,7.8-11.6,10.4-18.5c2.6-6.8,3.2-13.5,4.9-20.4c1.8-7.7-3.7-15.2-11.5-16c-7.5-0.8-15,5.4-14.5,13.3&#10;&#9;&#9;&#9;&#9;&#9;c0.7,10.1-5.2,21.2-8.4,30.4c-1.6,4.5-4.3,8.7-6.5,13c-2.6,5-4.4,11.5-8.2,15.7C226,873.3,226.8,874.6,227.7,874.2L227.7,874.2z&#10;&#9;&#9;&#9;&#9;&#9;"/>
			</g>
			<g id="XMLID_393_">
				
					<linearGradient id="XMLID_90_" gradientUnits="userSpaceOnUse" x1="204.847" y1="875.8798" x2="204.847" y2="825.558" gradientTransform="matrix(0.9564 -0.292 0.292 0.9564 -231.4961 97.0779)">
					<stop offset="0" style="stop-color:#F49397"/>
					<stop offset="0.4323" style="stop-color:#FBCDB8"/>
					<stop offset="0.9956" style="stop-color:#FFFFFF"/>
				</linearGradient>
				<path id="XMLID_397_" fill="url(#XMLID_90_)" d="M234.7,869.7c0.1-7.7-6-15.1-10-21.1c-4.2-6.3-7.2-12.3-7.7-19.8&#10;&#9;&#9;&#9;&#9;&#9;c-1.1-16.4-26.6-15.8-25.6,0.7c0.8,13,5.6,26.9,15.1,36.5c4.6,4.7,10.5,7.8,17,8.6C226.7,875,234.6,874.3,234.7,869.7&#10;&#9;&#9;&#9;&#9;&#9;L234.7,869.7z"/>
			</g>
			<g id="XMLID_394_">
				
					<linearGradient id="XMLID_93_" gradientUnits="userSpaceOnUse" x1="160.6559" y1="878.2167" x2="160.6559" y2="840.6096" gradientTransform="matrix(0.9564 -0.292 0.292 0.9564 -231.4961 97.0779)">
					<stop offset="0" style="stop-color:#F49397"/>
					<stop offset="0.4323" style="stop-color:#FBCDB8"/>
					<stop offset="0.9956" style="stop-color:#FFFFFF"/>
				</linearGradient>
				<path id="XMLID_396_" fill="url(#XMLID_93_)" d="M230.1,871.5c-8.3,2.5-16.2,3.9-24.9,3.5c-8.4-0.4-16.6-2-24.9-2.8&#10;&#9;&#9;&#9;&#9;&#9;c-16.1-1.7-31.2-6.6-46-12.7c2.1,2.6,4.2,5.1,6.3,7.7c-0.1-0.4-0.3-0.9-0.4-1.3c-2.7-7.9-10.7-10-17.7-6.5&#10;&#9;&#9;&#9;&#9;&#9;c-0.4,0.2-0.9,0.4-1.3,0.6c-9.5,4.7-6.6,17.9,0.9,22.5c16.6,10.4,38,14.3,57.4,12.8c18.4-1.5,36.4-11.9,51.4-22.3&#10;&#9;&#9;&#9;&#9;&#9;C231.5,872.4,231,871.2,230.1,871.5L230.1,871.5z"/>
			</g>
		</g>
		<linearGradient id="XMLID_94_" gradientUnits="userSpaceOnUse" x1="314.0185" y1="964.0142" x2="434.0634" y2="964.0142">
			<stop offset="0" style="stop-color:#00364F"/>
			<stop offset="0.2519" style="stop-color:#0F4666"/>
			<stop offset="1" style="stop-color:#865E78"/>
		</linearGradient>
		<path id="XMLID_776_" clip-path="url(#XMLID_10_)" fill="url(#XMLID_94_)" d="M433.8,1033.2c2.8-52.8-20.1-106.4-60.3-140.8&#10;&#9;&#9;&#9;c-12.5-10.7-30.3-19.9-44.9-12.2c-10,5.3-15,17.4-14.6,28.8s5.2,22,10.7,32c12.2,22.1,27.9,42.1,46.4,59.2&#10;&#9;&#9;&#9;c16.1,14.9,35.4,29.3,40.4,50.7L433.8,1033.2z"/>
		<linearGradient id="XMLID_95_" gradientUnits="userSpaceOnUse" x1="1216.1855" y1="524.0392" x2="1503.8616" y2="524.0392">
			<stop offset="0" style="stop-color:#00364F"/>
			<stop offset="0.2519" style="stop-color:#0F4666"/>
			<stop offset="0.5132" style="stop-color:#394E6C"/>
			<stop offset="1" style="stop-color:#865E78"/>
		</linearGradient>
		<path id="XMLID_627_" clip-path="url(#XMLID_10_)" fill="url(#XMLID_95_)" d="M1238.6,714.4c32.7,39.6,95,54.3,143.9,45.3&#10;&#9;&#9;&#9;c42.7-7.9,82-34.6,103.5-72.4c21.5-37.8,24.1-86.1,5.3-125.3c-13.8-28.7-38.1-52.4-45.5-83.4c-6.1-25.8,0.5-52.7,5.4-78.8&#10;&#9;&#9;&#9;c4.8-26.1,7.5-54.6-5.6-77.7c-11.5-20.3-34.2-33-57-36.1c-21.6-2.9-45.5,18.9-59.5,33.8c-23.9,25.2-37.9,59.5-38.6,94.2&#10;&#9;&#9;&#9;c-0.3,13.6,1.3,27.7-4.2,40.1c-6.3,14-20.2,22.6-32.8,31.4c-12.6,8.8-25.4,20.2-27,35.5c-2.2,20.2,16.2,38.4,13.9,58.6&#10;&#9;&#9;&#9;c-1.3,11.3-8.8,20.8-14.2,30.8C1208.7,643.1,1215.1,685.8,1238.6,714.4z"/>
		<linearGradient id="XMLID_96_" gradientUnits="userSpaceOnUse" x1="1320.9735" y1="837.5305" x2="1378.9735" y2="625.5305">
			<stop offset="0" style="stop-color:#FBCDB8"/>
			<stop offset="0.3624" style="stop-color:#F27E8B"/>
			<stop offset="1" style="stop-color:#395175"/>
		</linearGradient>
		<path id="XMLID_693_" clip-path="url(#XMLID_10_)" fill="url(#XMLID_96_)" d="M1341.9,903c24.1-109.8,15.5-226.5-24.6-331.5&#10;&#9;&#9;&#9;c16.7,35.6,33.3,71.2,50,106.8c8.2-17.3,16.4-34.7,24.6-52c-13.3,91.2-17.4,183.8-12.2,275.8L1341.9,903z"/>
		<g id="XMLID_170_" clip-path="url(#XMLID_10_)">
			<g id="XMLID_828_">
				
					<linearGradient id="SVGID_6_" gradientUnits="userSpaceOnUse" x1="1555.6028" y1="953.1978" x2="1608.5266" y2="953.1978" gradientTransform="matrix(-1 0 0 1 2941.9163 0)">
					<stop offset="0" style="stop-color:#00364F"/>
					<stop offset="0.2519" style="stop-color:#0F4666"/>
					<stop offset="1" style="stop-color:#865E78"/>
				</linearGradient>
				<path fill="url(#SVGID_6_)" d="M1367.6,1083l-5.4-2.6c10.3-21.5,19.8-65.5,17.8-115.2c-1.6-39.6-11-95.6-46.7-137.8l4.6-3.9&#10;&#9;&#9;&#9;&#9;&#9;c36.8,43.5,46.5,100.9,48.1,141.5C1388.1,1015.7,1378.3,1060.8,1367.6,1083z"/>
			</g>
			<g id="XMLID_827_">
				
					<linearGradient id="SVGID_7_" gradientUnits="userSpaceOnUse" x1="1603.5715" y1="786.3926" x2="1675.7463" y2="786.3926" gradientTransform="matrix(-1 0 0 1 2941.9163 0)">
					<stop offset="0" style="stop-color:#00364F"/>
					<stop offset="0.2519" style="stop-color:#0F4666"/>
					<stop offset="1" style="stop-color:#865E78"/>
				</linearGradient>
				<path fill="url(#SVGID_7_)" d="M1333,826.7c-24.8-48-66.4-75.4-66.8-75.7l3.3-5c1.8,1.1,43.4,28.6,68.9,77.9L1333,826.7z"/>
			</g>
			<path d="M 1277.300049 748.5 A 6.5 6.5 0 0 1 1270.800049 755 A 6.5 6.5 0 0 1 1264.300049 748.5 A 6.5 6.5 0 0 1 1270.800049 742 A 6.5 6.5 0 0 1 1277.300049 748.5 Z" id="XMLID_826_" fill="#00364F"/>
			<path d="M 1296.400049 755.099976 A 4.6 4.6 0 0 1 1291.800049 759.699975 A 4.6 4.6 0 0 1 1287.200049 755.099976 A 4.6 4.6 0 0 1 1291.800049 750.499976 A 4.6 4.6 0 0 1 1296.400049 755.099976 Z" id="XMLID_825_" fill="#00364F"/>
			<path d="M 1292.1 773.599976 A 5.1 5.1 0 0 1 1287 778.699975 A 5.1 5.1 0 0 1 1281.9 773.599976 A 5.1 5.1 0 0 1 1287 768.499976 A 5.1 5.1 0 0 1 1292.1 773.599976 Z" id="XMLID_823_" fill="#00364F"/>
			<path d="M 1310.199975 775.799988 A 4.1 4.1 0 0 1 1306.099976 779.899988 A 4.1 4.1 0 0 1 1301.999976 775.799988 A 4.1 4.1 0 0 1 1306.099976 771.699988 A 4.1 4.1 0 0 1 1310.199975 775.799988 Z" id="XMLID_822_" fill="#00364F"/>
			
				<linearGradient id="XMLID_97_" gradientUnits="userSpaceOnUse" x1="1560.5298" y1="1038.6606" x2="1618.8514" y2="883.6617" gradientTransform="matrix(-1 0 0 1 2941.9163 0)">
				<stop offset="0" style="stop-color:#00364F"/>
				<stop offset="0.2519" style="stop-color:#0F4666"/>
				<stop offset="1" style="stop-color:#865E78"/>
			</linearGradient>
			<path id="XMLID_821_" fill="url(#XMLID_97_)" d="M1365,1075.9c4,2.7,34.7-149.8-13.4-179.8&#10;&#9;&#9;&#9;&#9;C1303.5,866.1,1350.1,1065.8,1365,1075.9z"/>
			
				<linearGradient id="XMLID_98_" gradientUnits="userSpaceOnUse" x1="1557.6229" y1="1107.3192" x2="1550.7925" y2="932.3542" gradientTransform="matrix(-1 0 0 1 2941.9163 0)">
				<stop offset="0" style="stop-color:#00364F"/>
				<stop offset="0.3248" style="stop-color:#1B4868"/>
				<stop offset="1" style="stop-color:#865E78"/>
			</linearGradient>
			<path id="XMLID_820_" fill="url(#XMLID_98_)" d="M1360.8,1083.9c0-2.4,8.6-108,27.3-137.1s35.3,13.9,19.9,54&#10;&#9;&#9;&#9;&#9;C1392.5,1040.9,1360.8,1083.9,1360.8,1083.9z"/>
			
				<linearGradient id="XMLID_99_" gradientUnits="userSpaceOnUse" x1="1596.1016" y1="809.6648" x2="1634.9825" y2="706.6824" gradientTransform="matrix(-1 0 0 1 2941.9163 0)">
				<stop offset="0" style="stop-color:#F49397"/>
				<stop offset="0.4323" style="stop-color:#FBCDB8"/>
				<stop offset="0.9956" style="stop-color:#FFFFFF"/>
			</linearGradient>
			<path id="XMLID_804_" fill="url(#XMLID_99_)" d="M1334.1,723.3c0,0,46.3,68.5,5.2,109.6C1287.7,774.6,1322.1,735.4,1334.1,723.3z&#10;&#9;&#9;&#9;&#9;"/>
			
				<linearGradient id="XMLID_100_" gradientUnits="userSpaceOnUse" x1="1603.4633" y1="805.2372" x2="1696.7119" y2="805.2372" gradientTransform="matrix(-1 0 0 1 2941.9163 0)">
				<stop offset="0" style="stop-color:#F49397"/>
				<stop offset="0.4323" style="stop-color:#FBCDB8"/>
				<stop offset="0.9956" style="stop-color:#FFFFFF"/>
			</linearGradient>
			<path id="XMLID_794_" fill="url(#XMLID_100_)" d="M1338.5,832.9c-6.9-37.7-59.6-74-93.2-51.8&#10;&#9;&#9;&#9;&#9;C1282.4,834.2,1311.1,842,1338.5,832.9z"/>
		</g>
		<linearGradient id="XMLID_101_" gradientUnits="userSpaceOnUse" x1="1416.4443" y1="1012.3536" x2="1246.9528" y2="841.3621">
			<stop offset="0" style="stop-color:#00364F"/>
			<stop offset="0.2519" style="stop-color:#0F4666"/>
			<stop offset="1" style="stop-color:#865E78"/>
		</linearGradient>
		<path id="XMLID_801_" clip-path="url(#XMLID_10_)" fill="url(#XMLID_101_)" d="M1444.7,945.7c-31.5-47.2-75.4-86-126.1-111.5&#10;&#9;&#9;&#9;c-12.4-6.3-30-10.6-38.3,0.5c-8.5,11.4,1.3,27.1,10.6,37.8c30.1,34.3,60.2,68.6,90.3,102.8c-26.8-25.4-62.3-41.5-99-44.9&#10;&#9;&#9;&#9;c-11.8-1.1-27.4,2.1-28.7,13.9c-1,8.8,7.4,15.6,14.9,20.4c52.7,33.1,111.6,56.4,172.7,68.2L1444.7,945.7z"/>
	</g>
</svg>