<?xml version="1.0" encoding="utf-8"?>
<svg id="master-artboard" viewBox="0 0 335.99 235.19" version="1.1" xmlns="http://www.w3.org/2000/svg" x="0px" y="0px" style="enable-background:new 0 0 335.99 235.19;" width="335.989990234375px" height="235.19000244140625px">

<linearGradient id="_x3C_Group_x3E__27_" gradientUnits="userSpaceOnUse" x1="167.9931" y1="235.1899" x2="167.9931" y2="-9.094947e-13">
	<stop offset="0" style="stop-color:#FFFFFF"/>
	<stop offset="1" style="stop-color:#75C7CB"/>
</linearGradient>
<path d="M 0 0 H 335.98999 V 235.190002 H 0 V 0 Z" id="_x3C_Group_x3E__28_" class="st0" style="fill: url('#_x3C_Group_x3E__27_');"/>
<linearGradient id="_x3C_Group_x3E__29_" gradientUnits="userSpaceOnUse" x1="167.9931" y1="235.1899" x2="167.9931" y2="159.7152">
	<stop offset="0" style="stop-color:#2D9248"/>
	<stop offset="0.3944" style="stop-color:#94B056"/>
	<stop offset="1" style="stop-color:#FFE47B"/>
</linearGradient>
<path d="M 0 159.720001 H 335.98999 V 235.190002 H 0 V 159.720001 Z" id="_x3C_Group_x3E__26_" class="st1" style="fill: url('#_x3C_Group_x3E__29_');"/>
<g id="_x3C_Group_x3E__25_">
	<g>
		<path class="st2" d="M214.35,136.49c0,14.45-4.34,14.64-7.07,14.64c-2.73,0-7.07-0.19-7.07-14.64c0-14.45,5.22-37.69,7.07-37.69&#10;&#9;&#9;&#9;S214.35,122.04,214.35,136.49z" style="fill: rgb(45, 146, 72);"/>
		<path d="M 206.300003 151.130005 H 208.270003 V 159.780005 H 206.300003 V 151.130005 Z" class="st3" style="fill: rgb(80, 141, 143);"/>
		<path class="st4" d="M208.52,150.19c-2.8,0-6.44-0.12-6.44-14.93c0-12.03,2.72-30.08,5.06-36.42c-1.96,1.08-6.92,23.54-6.92,37.65&#10;&#9;&#9;&#9;c0,14.45,4.33,14.64,7.07,14.64c1.24,0,2.81-0.04,4.14-1.43C210.43,150.17,209.4,150.19,208.52,150.19z" style="opacity: 0.1; fill: rgb(255, 255, 255);"/>
	</g>
	<g>
		<linearGradient id="SVGID_1_" gradientUnits="userSpaceOnUse" x1="92.3177" y1="124.9658" x2="106.4505" y2="124.9658">
			<stop offset="0" style="stop-color:#2D9248"/>
			<stop offset="0.0409" style="stop-color:#2B8C45"/>
			<stop offset="0.2052" style="stop-color:#24773A"/>
			<stop offset="0.3776" style="stop-color:#1E6832"/>
			<stop offset="0.5595" style="stop-color:#1A5D2D"/>
			<stop offset="0.7572" style="stop-color:#18572A"/>
			<stop offset="1" style="stop-color:#175529"/>
		</linearGradient>
		<path class="st5" d="M106.45,136.49c0,14.45-4.34,14.64-7.07,14.64c-2.73,0-7.07-0.19-7.07-14.64c0-14.45,5.22-37.69,7.07-37.69&#10;&#9;&#9;&#9;S106.45,122.04,106.45,136.49z" style="fill: url('#SVGID_1_');"/>
		<path d="M 98.400002 151.130005 H 100.370002 V 159.780005 H 98.400002 V 151.130005 Z" class="st3" style="fill: rgb(80, 141, 143);"/>
		<path class="st4" d="M100.62,150.19c-2.8,0-6.44-0.12-6.44-14.93c0-12.03,2.72-30.08,5.06-36.42c-1.96,1.08-6.92,23.54-6.92,37.65&#10;&#9;&#9;&#9;c0,14.45,4.33,14.64,7.07,14.64c1.24,0,2.81-0.04,4.14-1.43C102.53,150.17,101.49,150.19,100.62,150.19z" style="opacity: 0.1; fill: rgb(255, 255, 255);"/>
	</g>
	<g>
		<linearGradient id="SVGID_2_" gradientUnits="userSpaceOnUse" x1="149.8258" y1="134.7254" x2="159.4965" y2="134.7254">
			<stop offset="0" style="stop-color:#2D9248"/>
			<stop offset="0.0409" style="stop-color:#2B8C45"/>
			<stop offset="0.2052" style="stop-color:#24773A"/>
			<stop offset="0.3776" style="stop-color:#1E6832"/>
			<stop offset="0.5595" style="stop-color:#1A5D2D"/>
			<stop offset="0.7572" style="stop-color:#18572A"/>
			<stop offset="1" style="stop-color:#175529"/>
		</linearGradient>
		<path class="st6" d="M159.5,143.02c0,10.4-2.97,10.53-4.84,10.53c-1.87,0-4.84-0.13-4.84-10.53c0-10.4,3.57-27.13,4.84-27.13&#10;&#9;&#9;&#9;C155.93,115.89,159.5,132.62,159.5,143.02z" style="fill: url('#SVGID_2_');"/>
		<path d="M 153.990005 153.559998 H 155.340006 V 159.789998 H 153.990005 V 153.559998 Z" class="st3" style="fill: rgb(80, 141, 143);"/>
		<path class="st4" d="M155.51,152.88c-1.92,0-4.4-0.08-4.4-10.75c0-8.66,1.86-21.65,3.46-26.21c-1.34,0.77-4.74,16.94-4.74,27.1&#10;&#9;&#9;&#9;c0,10.4,2.97,10.53,4.84,10.53c0.85,0,1.92-0.03,2.83-1.03C156.81,152.87,156.1,152.88,155.51,152.88z" style="opacity: 0.1; fill: rgb(255, 255, 255);"/>
	</g>
	<g>
		<path class="st2" d="M21.84,143.02c0,10.4-2.97,10.53-4.84,10.53c-1.87,0-4.84-0.13-4.84-10.53c0-10.4,3.57-27.13,4.84-27.13&#10;&#9;&#9;&#9;C18.27,115.89,21.84,132.62,21.84,143.02z" style="fill: rgb(45, 146, 72);"/>
		<path d="M 16.33 153.559998 H 17.68 V 159.789998 H 16.33 V 153.559998 Z" class="st3" style="fill: rgb(80, 141, 143);"/>
		<path class="st4" d="M17.85,152.88c-1.92,0-4.4-0.08-4.4-10.75c0-8.66,1.86-21.65,3.46-26.21c-1.34,0.77-4.74,16.94-4.74,27.1&#10;&#9;&#9;&#9;c0,10.4,2.97,10.53,4.84,10.53c0.85,0,1.92-0.03,2.83-1.03C19.16,152.87,18.45,152.88,17.85,152.88z" style="opacity: 0.1; fill: rgb(255, 255, 255);"/>
	</g>
	<g>
		<linearGradient id="SVGID_3_" gradientUnits="userSpaceOnUse" x1="133.6533" y1="134.7254" x2="143.324" y2="134.7254">
			<stop offset="0" style="stop-color:#2D9248"/>
			<stop offset="0.0409" style="stop-color:#2B8C45"/>
			<stop offset="0.2052" style="stop-color:#24773A"/>
			<stop offset="0.3776" style="stop-color:#1E6832"/>
			<stop offset="0.5595" style="stop-color:#1A5D2D"/>
			<stop offset="0.7572" style="stop-color:#18572A"/>
			<stop offset="1" style="stop-color:#175529"/>
		</linearGradient>
		<path class="st7" d="M143.32,143.02c0,10.4-2.97,10.53-4.84,10.53c-1.87,0-4.84-0.13-4.84-10.53c0-10.4,3.57-27.13,4.84-27.13&#10;&#9;&#9;&#9;C139.75,115.89,143.32,132.62,143.32,143.02z" style="fill: url('#SVGID_3_');"/>
		<path d="M 137.809998 153.559998 H 139.159998 V 159.789998 H 137.809998 V 153.559998 Z" class="st3" style="fill: rgb(80, 141, 143);"/>
		<path class="st4" d="M139.33,152.88c-1.92,0-4.4-0.08-4.4-10.75c0-8.66,1.86-21.65,3.46-26.21c-1.34,0.77-4.74,16.94-4.74,27.1&#10;&#9;&#9;&#9;c0,10.4,2.97,10.53,4.84,10.53c0.85,0,1.92-0.03,2.83-1.03C140.64,152.87,139.93,152.88,139.33,152.88z" style="opacity: 0.1; fill: rgb(255, 255, 255);"/>
	</g>
	<g>
		<linearGradient id="SVGID_4_" gradientUnits="userSpaceOnUse" x1="117.4808" y1="134.7254" x2="127.1516" y2="134.7254">
			<stop offset="0" style="stop-color:#2D9248"/>
			<stop offset="0.0409" style="stop-color:#2B8C45"/>
			<stop offset="0.2052" style="stop-color:#24773A"/>
			<stop offset="0.3776" style="stop-color:#1E6832"/>
			<stop offset="0.5595" style="stop-color:#1A5D2D"/>
			<stop offset="0.7572" style="stop-color:#18572A"/>
			<stop offset="1" style="stop-color:#175529"/>
		</linearGradient>
		<path class="st8" d="M127.15,143.02c0,10.4-2.97,10.53-4.84,10.53c-1.87,0-4.84-0.13-4.84-10.53c0-10.4,3.57-27.13,4.84-27.13&#10;&#9;&#9;&#9;S127.15,132.62,127.15,143.02z" style="fill: url('#SVGID_4_');"/>
		<path d="M 121.639999 153.559998 H 122.989999 V 159.789998 H 121.639999 V 153.559998 Z" class="st3" style="fill: rgb(80, 141, 143);"/>
		<path class="st4" d="M123.16,152.88c-1.92,0-4.4-0.08-4.4-10.75c0-8.66,1.86-21.65,3.46-26.21c-1.34,0.77-4.74,16.94-4.74,27.1&#10;&#9;&#9;&#9;c0,10.4,2.97,10.53,4.84,10.53c0.85,0,1.92-0.03,2.83-1.03C124.47,152.87,123.76,152.88,123.16,152.88z" style="opacity: 0.1; fill: rgb(255, 255, 255);"/>
	</g>
</g>
<g id="_x3C_Group_x3E__24_">
	<path id="_x3C_Group_x3E__3_" class="st9" d="M186.8,74.3c0.35,0,0.68,0.06,1,0.16c0.62-1.17,1.94-1.98,3.49-1.98&#10;&#9;&#9;c0.22,0,0.44,0.02,0.66,0.06c1-2.02,3.47-3.45,6.36-3.45c0.34,0,0.67,0.03,0.99,0.06c0-0.02,0-0.04,0-0.06&#10;&#9;&#9;c0-3.31,2.59-6.01,5.79-6.04c0.45-2.95,3.26-5.21,6.67-5.21c1.74,0,3.31,0.59,4.51,1.56c0.45-1.09,1.52-1.9,2.84-2.09&#10;&#9;&#9;c0.63-1.76,2.22-3.02,4.1-3.02c1.84,0,3.41,1.2,4.07,2.91c0.19-0.1,0.39-0.16,0.62-0.16c0.58,0,1.09,0.38,1.32,0.93&#10;&#9;&#9;c0.13-0.09,0.28-0.14,0.44-0.15c0.01-0.95,0.75-1.73,1.71-1.85c0-0.05-0.01-0.09-0.01-0.13c0-2.09,1.84-3.79,4.11-3.79&#10;&#9;&#9;c0.31,0,0.61,0.04,0.89,0.1c0.16-0.47,0.53-0.85,1.02-1.04c-0.25-0.35-0.41-0.77-0.41-1.23c0-1.19,1.01-2.15,2.26-2.15&#10;&#9;&#9;c0.19,0,0.36,0.03,0.54,0.07c0.15-1.03,0.97-1.82,1.98-1.82c0.73,0,1.36,0.42,1.71,1.04c0.3-0.16,0.63-0.26,0.98-0.26&#10;&#9;&#9;c1.08,0,1.97,0.86,2.11,1.96c0.03,0,0.06-0.01,0.09-0.01c0.81,0,1.46,0.62,1.46,1.38c0,0.07-0.01,0.14-0.02,0.21&#10;&#9;&#9;c0.49-0.13,1-0.21,1.53-0.21c2.69,0,4.91,1.86,5.14,4.22c1.42,0.05,2.59,1.01,2.94,2.31l0.53,0.31c1.02-1.05,2.53-1.71,4.21-1.71&#10;&#9;&#9;c2.59,0,4.75,1.56,5.37,3.67c1.04,0.08,1.87,0.98,1.94,2.12c0.18-0.06,0.38-0.1,0.59-0.1c0.87,0,1.58,0.58,1.69,1.33&#10;&#9;&#9;c0.94-0.6,2.06-0.95,3.25-0.95c0.53,0,1.05,0.07,1.54,0.2c0.55-0.74,1.45-1.23,2.48-1.23c0.75,0,1.43,0.27,1.96,0.7&#10;&#9;&#9;c0.89-0.36,1.89-0.57,2.94-0.57c0.42,0,0.83,0.04,1.23,0.1c1-1.51,2.54-2.48,4.28-2.48c0.32,0,0.63,0.04,0.94,0.1&#10;&#9;&#9;c0.97-2.56,3.17-4.34,5.72-4.34c3.14,0,5.74,2.7,6.18,6.21c0.13-0.01,0.27-0.05,0.4-0.05c2.63,0,4.76,2.27,4.76,5.06&#10;&#9;&#9;c0,0.15-0.03,0.3-0.05,0.44c1.4,0.19,2.47,1.23,2.47,2.49c0,0.05-0.02,0.1-0.02,0.15c0.73-0.42,1.62-0.66,2.58-0.66&#10;&#9;&#9;c2.53,0,4.58,1.71,4.58,3.82c0,0.13-0.03,0.26-0.05,0.39c0.5-0.24,1.08-0.39,1.71-0.39c1.85,0,3.34,1.18,3.34,2.64&#10;&#9;&#9;c1.01,0,1.63,0.88,2.06,1.73c1.29,2.51-0.85,3.21-1.85,3.21H187c-1.56,0-3.02-0.85-3.02-2.16C183.97,75.36,185.23,74.3,186.8,74.3z&#10;&#9;&#9;" style="fill: rgb(255, 255, 255);"/>
	<path id="_x3C_Group_x3E__4_" class="st10" d="M137.34,82.75c0.35,0,0.68,0.06,0.99,0.16c0.61-1.16,1.93-1.97,3.46-1.97&#10;&#9;&#9;c0.22,0,0.44,0.03,0.65,0.06c0.99-2,3.44-3.42,6.3-3.42c0.34,0,0.66,0.03,0.98,0.06c0-0.02,0-0.04,0-0.06&#10;&#9;&#9;c0-3.29,2.57-5.95,5.74-5.98c0.45-2.92,3.23-5.17,6.61-5.17c1.72,0,3.29,0.58,4.47,1.54c0.44-1.08,1.5-1.88,2.81-2.07&#10;&#9;&#9;c0.62-1.75,2.2-3,4.07-3c1.82,0,3.38,1.19,4.03,2.88c0.19-0.1,0.39-0.15,0.61-0.15c0.58,0,1.08,0.38,1.31,0.92&#10;&#9;&#9;c0.13-0.09,0.27-0.14,0.44-0.15c0.01-0.94,0.74-1.71,1.7-1.83c0-0.05-0.02-0.09-0.02-0.13c0-2.08,1.83-3.76,4.07-3.76&#10;&#9;&#9;c0.3,0,0.6,0.04,0.88,0.1c0.16-0.46,0.52-0.84,1.01-1.03c-0.25-0.35-0.41-0.76-0.41-1.22c0-1.17,1-2.13,2.24-2.13&#10;&#9;&#9;c0.18,0,0.36,0.03,0.54,0.07c0.14-1.02,0.96-1.8,1.96-1.8c0.72,0,1.34,0.42,1.69,1.03c0.29-0.16,0.62-0.26,0.97-0.26&#10;&#9;&#9;c1.08,0,1.95,0.85,2.1,1.94c0.03,0,0.06-0.01,0.09-0.01c0.8,0,1.45,0.61,1.45,1.37c0,0.07-0.01,0.13-0.02,0.2&#10;&#9;&#9;c0.48-0.13,0.99-0.2,1.52-0.2c2.67,0,4.86,1.84,5.1,4.18c1.41,0.05,2.57,1.01,2.91,2.29l0.53,0.31c1.01-1.04,2.5-1.69,4.17-1.69&#10;&#9;&#9;c2.56,0,4.71,1.54,5.32,3.63c1.04,0.08,1.86,0.97,1.93,2.1c0.18-0.06,0.38-0.1,0.58-0.1c0.86,0,1.57,0.58,1.68,1.32&#10;&#9;&#9;c0.94-0.59,2.04-0.94,3.22-0.94c0.53,0,1.04,0.07,1.53,0.2c0.55-0.73,1.44-1.22,2.46-1.22c0.74,0,1.41,0.27,1.94,0.69&#10;&#9;&#9;c0.89-0.36,1.87-0.56,2.91-0.56c0.41,0,0.82,0.04,1.22,0.1c0.99-1.49,2.52-2.46,4.24-2.46c0.32,0,0.62,0.04,0.93,0.11&#10;&#9;&#9;c0.96-2.54,3.14-4.3,5.67-4.3c3.12,0,5.69,2.67,6.12,6.16c0.13-0.01,0.26-0.05,0.4-0.05c2.61,0,4.72,2.25,4.72,5.02&#10;&#9;&#9;c0,0.15-0.03,0.3-0.04,0.44c1.39,0.19,2.45,1.22,2.45,2.47c0,0.05-0.02,0.1-0.02,0.15c0.73-0.42,1.6-0.66,2.55-0.66&#10;&#9;&#9;c2.51,0,4.54,1.69,4.54,3.79c0,0.13-0.03,0.26-0.05,0.38c0.5-0.24,1.08-0.38,1.7-0.38c1.83,0,3.31,1.17,3.31,2.62&#10;&#9;&#9;c1,0,1.61,0.87,2.04,1.71c1.28,2.48-0.84,3.18-1.84,3.18H137.54c-1.54,0-3-0.85-3-2.14C134.54,83.8,135.79,82.75,137.34,82.75z" style="opacity: 0.4; fill: rgb(255, 255, 255);"/>
	<path id="_x3C_Group_x3E__1_" class="st11" d="M107.09,32.71c-0.11-0.28-0.17-0.58-0.17-0.9c0-1.24,0.91-2.26,2.1-2.44&#10;&#9;&#9;c-0.01-0.09-0.01-0.19-0.01-0.29c0-1.89,1.35-3.42,3.03-3.42c0.18,0,0.35,0.02,0.52,0.05c0.61-1.44,1.9-2.44,3.4-2.44&#10;&#9;&#9;c1.28,0,2.41,0.73,3.09,1.83c0.3-0.09,0.61-0.15,0.93-0.15c1.13,0,2.14,0.61,2.8,1.57c0.35-0.18,0.75-0.3,1.18-0.3&#10;&#9;&#9;c0.18-1.15,1.18-2.03,2.41-2.03c0.23,0,0.44,0.04,0.65,0.1c0.07-0.34,0.36-0.62,0.74-0.72c-0.06-0.17-0.09-0.35-0.09-0.55&#10;&#9;&#9;c0-0.94,0.72-1.7,1.61-1.7c0.05,0,0.1,0.01,0.15,0.02c0.19-0.92,1-1.6,1.97-1.6c0.18,0,0.36,0.03,0.52,0.08&#10;&#9;&#9;c0.34-0.5,0.89-0.82,1.52-0.82c0.72,0,1.33,0.43,1.65,1.05c0.3-0.26,0.71-0.43,1.16-0.44c0,0,0,0,0-0.01&#10;&#9;&#9;c0-0.85,0.69-1.54,1.54-1.54c0.07,0,0.14,0.01,0.2,0.02c0.13-0.58,0.62-1.01,1.2-1.01c0.32,0,0.61,0.14,0.83,0.35&#10;&#9;&#9;c0.15-0.14,0.35-0.23,0.57-0.23c0.17,0,0.33,0.06,0.47,0.15c0.01-0.8,0.75-1.45,1.67-1.45c0.17,0,0.33,0.03,0.48,0.07&#10;&#9;&#9;c0.21-1,1.13-1.76,2.25-1.82c0.25-0.69,0.96-1.19,1.8-1.19c0.7,0,1.31,0.35,1.64,0.86c0.15-0.07,0.32-0.11,0.5-0.11&#10;&#9;&#9;c0.64,0,1.16,0.51,1.19,1.16c0.02,0,0.03,0,0.05,0c0.57,0,1.03,0.45,1.03,1c0,0.09-0.02,0.18-0.04,0.26&#10;&#9;&#9;c0.13-0.04,0.27-0.06,0.41-0.06c0.77,0,1.39,0.52,1.39,1.15c0,0.09-0.01,0.17-0.04,0.25c0.34-0.12,0.7-0.19,1.09-0.19&#10;&#9;&#9;c0.92,0,1.72,0.38,2.23,0.96c0.54-1.35,1.81-2.3,3.29-2.3c1.57,0,2.91,1.08,3.38,2.57c0.26-0.11,0.54-0.18,0.83-0.18&#10;&#9;&#9;c1.34,0,2.43,1.29,2.43,2.88c0,0.06-0.01,0.12-0.02,0.19c0.16-0.05,0.33-0.09,0.51-0.09c1.04,0,1.89,0.93,1.89,2.08&#10;&#9;&#9;c0,0.28-0.05,0.55-0.15,0.8c1.07,0.38,1.83,1.28,1.83,2.33c0,0.19-0.03,0.37-0.07,0.55c0.33-0.13,0.69-0.21,1.07-0.21&#10;&#9;&#9;c1.25,0,2.29,0.8,2.64,1.89c0.71-1.35,2.19-2.29,3.91-2.29c1.6,0,3,0.82,3.76,2.03c0.43-0.49,1.04-0.8,1.72-0.8&#10;&#9;&#9;c1.3,0,2.36,1.12,2.36,2.51c0,0.24-0.04,0.46-0.1,0.68c0.21-0.04,0.43-0.06,0.65-0.06c1.78,0,3.22,1.24,3.22,2.78&#10;&#9;&#9;c0,0.24-0.04,0.48-0.11,0.71c1.05,0.7,1.45,2.35-1.7,3.36h-80.84c-1.75,0-3.18-1.11-3.18-2.48&#10;&#9;&#9;C104.04,33.85,105.4,32.76,107.09,32.71z" style="opacity: 0.6; fill: rgb(255, 255, 255);"/>
	<path id="_x3C_Group_x3E__5_" class="st12" d="M13.31,80.05c-0.15-0.38-0.24-0.78-0.24-1.21c0-1.67,1.23-3.05,2.83-3.3&#10;&#9;&#9;c-0.01-0.13-0.02-0.26-0.02-0.39c0-2.55,1.83-4.62,4.09-4.62c0.24,0,0.47,0.03,0.7,0.07c0.82-1.94,2.57-3.29,4.6-3.29&#10;&#9;&#9;c1.73,0,3.26,0.98,4.18,2.48c0.4-0.12,0.82-0.2,1.25-0.2c1.53,0,2.89,0.83,3.79,2.12c0.47-0.25,1.01-0.4,1.6-0.41&#10;&#9;&#9;c0.24-1.55,1.6-2.74,3.26-2.74c0.31,0,0.6,0.05,0.88,0.13c0.1-0.46,0.49-0.84,1-0.97c-0.08-0.23-0.13-0.48-0.13-0.74&#10;&#9;&#9;c0-1.27,0.97-2.29,2.17-2.29c0.07,0,0.14,0.01,0.21,0.02c0.25-1.24,1.35-2.17,2.66-2.17c0.25,0,0.48,0.04,0.71,0.1&#10;&#9;&#9;c0.46-0.67,1.21-1.11,2.05-1.11c0.97,0,1.8,0.58,2.23,1.43c0.41-0.35,0.96-0.58,1.57-0.6c0,0,0-0.01,0-0.01&#10;&#9;&#9;c0-1.15,0.93-2.08,2.07-2.08c0.09,0,0.18,0.02,0.27,0.03c0.18-0.78,0.83-1.36,1.62-1.36c0.43,0,0.82,0.18,1.12,0.47&#10;&#9;&#9;c0.21-0.19,0.48-0.31,0.77-0.31c0.23,0,0.45,0.08,0.63,0.2c0.02-1.08,1.02-1.96,2.26-1.96c0.23,0,0.45,0.04,0.66,0.1&#10;&#9;&#9;c0.28-1.35,1.53-2.38,3.04-2.45c0.34-0.93,1.29-1.61,2.44-1.61c0.95,0,1.77,0.47,2.21,1.16c0.21-0.1,0.44-0.16,0.68-0.16&#10;&#9;&#9;c0.87,0,1.57,0.69,1.6,1.56c0.02,0,0.04-0.01,0.06-0.01c0.77,0,1.39,0.61,1.39,1.35c0,0.12-0.02,0.24-0.06,0.36&#10;&#9;&#9;c0.18-0.05,0.36-0.08,0.56-0.08c1.03,0,1.87,0.7,1.87,1.56c0,0.11-0.02,0.23-0.05,0.34c0.45-0.17,0.95-0.26,1.48-0.26&#10;&#9;&#9;c1.24,0,2.32,0.52,3.01,1.3c0.73-1.83,2.45-3.11,4.44-3.11c2.13,0,3.93,1.45,4.57,3.47c0.35-0.15,0.73-0.25,1.13-0.25&#10;&#9;&#9;c1.81,0,3.28,1.74,3.28,3.89c0,0.09-0.02,0.17-0.02,0.25c0.22-0.07,0.45-0.12,0.69-0.12c1.41,0,2.55,1.26,2.55,2.81&#10;&#9;&#9;c0,0.38-0.07,0.75-0.2,1.08c1.45,0.51,2.47,1.73,2.47,3.15c0,0.25-0.04,0.5-0.1,0.74c0.44-0.18,0.93-0.28,1.44-0.28&#10;&#9;&#9;c1.68,0,3.1,1.08,3.57,2.55c0.97-1.83,2.96-3.09,5.28-3.09c2.17,0,4.05,1.11,5.08,2.75c0.58-0.66,1.4-1.08,2.32-1.08&#10;&#9;&#9;c1.76,0,3.19,1.52,3.19,3.39c0,0.32-0.05,0.62-0.13,0.92c0.28-0.05,0.57-0.07,0.87-0.07c2.41,0,4.35,1.68,4.35,3.75&#10;&#9;&#9;c0,0.33-0.06,0.65-0.15,0.96c1.42,0.95,1.95,3.17-2.3,4.54H13.48c-2.37,0-4.29-1.5-4.29-3.35C9.19,81.59,11.02,80.12,13.31,80.05z" style="opacity: 0.8; fill: rgb(255, 255, 255);"/>
</g>
<path id="_x3C_Group_x3E__23_" class="st13" d="M277.77,235.23c-2.9-7.9-6.21-13.23-11.1-20.31c-2.89-4.17-5.18-8.16-6.76-13.11&#10;&#9;c-0.61-1.89-1.03-4.1-1.1-6.27c0-0.17-0.09,0.01-0.19,0.25c-0.01-0.48-0.02-0.97-0.01-1.47c-2.71,11.31-1.65,23.44,10.09,40.92&#10;&#9;H277.77z" style="fill-rule: evenodd; clip-rule: evenodd; fill: rgb(45, 146, 72);"/>
<g id="_x3C_Group_x3E__22_">
	<g>
		
			<linearGradient id="SVGID_5_" gradientUnits="userSpaceOnUse" x1="-132.8128" y1="418.7815" x2="-132.6285" y2="418.7815" gradientTransform="matrix(0.4139 0.7095 0.7844 0.04 25.3957 308.1508)">
			<stop offset="0" style="stop-color:#2D9248"/>
			<stop offset="0.0409" style="stop-color:#2B8C45"/>
			<stop offset="0.2052" style="stop-color:#24773A"/>
			<stop offset="0.3776" style="stop-color:#1E6832"/>
			<stop offset="0.5595" style="stop-color:#1A5D2D"/>
			<stop offset="0.7572" style="stop-color:#18572A"/>
			<stop offset="1" style="stop-color:#175529"/>
		</linearGradient>
		<path class="st14" d="M299.01,230.8c-0.04-0.04-0.09-0.07-0.13-0.1c-0.01-0.01-0.02-0.02-0.03-0.03&#10;&#9;&#9;&#9;C298.91,230.71,298.96,230.75,299.01,230.8z" style="fill: url('#SVGID_5_');"/>
	</g>
</g>
<linearGradient id="_x3C_Group_x3E__30_" gradientUnits="userSpaceOnUse" x1="28.4777" y1="84.6045" x2="49.5196" y2="84.6045" gradientTransform="matrix(-0.9917 0.1287 0.1287 0.9917 325.0548 110.2768)">
	<stop offset="0" style="stop-color:#2D9248"/>
	<stop offset="0.0409" style="stop-color:#2B8C45"/>
	<stop offset="0.2052" style="stop-color:#24773A"/>
	<stop offset="0.3776" style="stop-color:#1E6832"/>
	<stop offset="0.5595" style="stop-color:#1A5D2D"/>
	<stop offset="0.7572" style="stop-color:#18572A"/>
	<stop offset="1" style="stop-color:#175529"/>
</linearGradient>
<path id="_x3C_Group_x3E__21_" class="st15" d="M288.61,211.12c-1.23-20.35,2.3-32.53,8.48-41.32c0.1-0.16,0.19-0.32,0.29-0.47&#10;&#9;c0.83-1.31,1.72-2.49,2.66-3.6c0.73-0.85,1.5-1.67,2.3-2.41c1.5-1.41,0.57,0.31,0.17,0.87c0,0.01-0.01,0.01-0.01,0.02&#10;&#9;c-1.18,1.99-2.07,4.2-2.61,6.23c-1.45,5.38-1.7,10.3-1.52,15.74c0.35,10.69,0.15,18.03-2.89,29.15c-0.96,3.54-1.24,4.76-1.99,9.35&#10;&#9;c-0.29,2.27-0.57,4.04-0.66,6.03c0.01,1.48,0.05,3.03,0.16,4.69c-0.04-0.08-0.06-0.19-0.1-0.27c0-0.02,0-0.03-0.01-0.04&#10;&#9;c-0.58-1.75-1.04-3.22-1.43-4.68c0,0.03,0.01,0.06,0.01,0.09c-0.01-0.04-0.01-0.08-0.02-0.11c-0.03-0.1-0.05-0.2-0.08-0.29&#10;&#9;c0-0.01,0-0.01-0.01-0.02c0,0,0-0.01,0-0.01c-0.55-2.09-1-4.24-1.56-7.29C289.1,218.97,288.87,215.46,288.61,211.12z" style="fill: url('#_x3C_Group_x3E__30_');"/>
<g id="_x3C_Group_x3E__20_">
	
		<radialGradient id="SVGID_6_" cx="243.188" cy="244.5658" r="10.8677" gradientTransform="matrix(0.7666 -0.6421 0.6421 0.7666 -103.9034 166.7332)" gradientUnits="userSpaceOnUse">
		<stop offset="0" style="stop-color:#FFE47B"/>
		<stop offset="1" style="stop-color:#FCC35A"/>
	</radialGradient>
	<path class="st16" d="M240.21,198.85c-0.52-0.26-10.9-5.46-16.01-1.41c0,0,4.02,0.4,10.13,7.29c0.87,0.98,1.95,1.75,3.16,2.24&#10;&#9;&#9;c2.2,0.9,5.65,1.57,8.7-0.96l0,0c0,0,0.01,0,0.01-0.01c0,0,0.01,0,0.01-0.01l0,0c3.03-2.55,2.97-6.07,2.48-8.39&#10;&#9;&#9;c-0.27-1.28-0.84-2.48-1.65-3.51c-5.71-7.22-5.4-11.25-5.4-11.25C236.76,187.15,240.05,198.29,240.21,198.85z" style="fill: url('#SVGID_6_');"/>
	<path class="st17" d="M240.21,198.85c-0.12-0.39-1.76-5.97-1.06-10.76c-0.21-0.09-6.3-2.65-8.56-0.75&#10;&#9;&#9;c-2.28,1.91-0.79,8.46-0.76,8.57C234.66,196.07,239.85,198.66,240.21,198.85z" style="fill: rgb(255, 228, 123);"/>
</g>
<g id="_x3C_Group_x3E__19_">
	<path class="st18" d="M255.42,177.51c-0.11-2.16-0.14-4.26-1.09-6.35c0-0.01,0-0.02,0-0.03c0,0,0-0.01,0-0.01c0,0,0.01,0,0.01,0&#10;&#9;&#9;c0.01,0,0.02,0,0.03,0c2.09,0.95,4.19,0.98,6.35,1.09c2.92,0.15,5.71,0.85,8.12,2.99c3.7,3.29,6.94,9.4,5.2,13.81&#10;&#9;&#9;c0,0.01,0,0.01-0.01,0.01c-0.03,0.04-0.05,0.09-0.05,0.14c-0.13,0.3-0.28,0.6-0.46,0.89c-0.07,0.11-0.03,0.23,0.05,0.31l-0.01,0.01&#10;&#9;&#9;c-0.08-0.08-0.2-0.12-0.31-0.05c-0.29,0.18-0.58,0.33-0.89,0.46c-0.05,0-0.1,0.01-0.14,0.05c0,0,0,0-0.01,0&#10;&#9;&#9;c-4.42,1.73-10.52-1.51-13.81-5.21C256.27,183.22,255.57,180.42,255.42,177.51z" style="fill: rgb(117, 199, 203);"/>
	<linearGradient id="SVGID_7_" gradientUnits="userSpaceOnUse" x1="247.8437" y1="185.2004" x2="271.3202" y2="185.2004">
		<stop offset="0" style="stop-color:#75C7CB"/>
		<stop offset="1" style="stop-color:#508D8F"/>
	</linearGradient>
	<path class="st19" d="M258.41,185.62c-2.08-2.34-2.79-5.05-2.97-7.88c-0.49,0.01-0.98,0.04-1.45,0.11c-1.23,0.2-2.3,0.62-3.38,1.14&#10;&#9;&#9;c-0.86,0.42-1.74,0.79-2.76,0.71c0.31,1.34,0.85,2.58,1.54,3.74c0.08,0.03,0.14,0.12,0.13,0.2c2.12,3.35,5.65,5.86,9.29,7.35&#10;&#9;&#9;c2.4,0.99,4.93,1.79,7.4,1.65c1.86-0.11,3.6-0.63,5.11-1.53C267.01,192.14,261.48,189.08,258.41,185.62z" style="fill: url('#SVGID_7_');"/>
	<linearGradient id="SVGID_8_" gradientUnits="userSpaceOnUse" x1="260.9598" y1="176.3765" x2="275.8671" y2="176.3765">
		<stop offset="0" style="stop-color:#75C7CB"/>
		<stop offset="1" style="stop-color:#508D8F"/>
	</linearGradient>
	<path class="st20" d="M274.21,175.61c-1.49-3.64-3.99-7.18-7.34-9.3c-0.08,0.01-0.18-0.05-0.2-0.13c-1.15-0.7-2.4-1.24-3.73-1.55&#10;&#9;&#9;c0.08,1.02-0.29,1.9-0.71,2.76c-0.53,1.08-0.95,2.16-1.14,3.38c-0.08,0.48-0.11,0.96-0.11,1.45c2.83,0.17,5.54,0.89,7.88,2.97&#10;&#9;&#9;c3.46,3.08,6.51,8.6,5.48,12.92c0.9-1.51,1.42-3.24,1.53-5.11C276,180.54,275.19,178.01,274.21,175.61z" style="fill: url('#SVGID_8_');"/>
</g>
<g id="_x3C_Group_x3E__18_">
	<path class="st17" d="M309.78,153.76c-1.95,2.34-3.06,5.25-3.85,8.33c-0.73,2.83-1.17,5.8-0.61,8.57c0.34,1.68,1.22,3.17,2.41,4.02&#10;&#9;&#9;c1.44-0.24,2.89-1.19,3.94-2.55c1.73-2.24,2.65-5.1,3.24-7.96c0.65-3.11,0.94-6.21,0.22-9.17c-0.35-1.44-0.81-2.82-1.29-4.18&#10;&#9;&#9;c-0.11-0.32-0.22-0.63-0.33-0.94c-0.24,0.23-0.48,0.47-0.72,0.7C311.76,151.59,310.73,152.62,309.78,153.76z" style="fill: rgb(255, 228, 123);"/>
	<radialGradient id="SVGID_9_" cx="307.052" cy="161.1779" r="10.5508" gradientUnits="userSpaceOnUse">
		<stop offset="0" style="stop-color:#FFE47B"/>
		<stop offset="1" style="stop-color:#FCC35A"/>
	</radialGradient>
	<path class="st21" d="M302.28,156.75c2.43-4.31,6.73-6.33,10.2-8.92c0.49-0.37,0.68,0.84,0.84,1.29c0.09,0.23,0.17,0.47,0.26,0.71&#10;&#9;&#9;c-1.63,1.52-3.25,3.13-4.54,5.01c-1.77,2.58-2.8,5.77-3.43,8.92c-0.55,2.76-0.83,5.87,0.19,8.31c0.42,1.01,1.01,1.88,1.73,2.52&#10;&#9;&#9;c-0.1,0-0.2,0-0.3-0.01c-8.62-1.99-6.49-13.76-6.49-13.76C301.06,159.41,301.57,158.02,302.28,156.75z" style="fill: url('#SVGID_9_');"/>
	<radialGradient id="SVGID_10_" cx="314.2449" cy="161.6835" r="10.4458" gradientUnits="userSpaceOnUse">
		<stop offset="0" style="stop-color:#FFE47B"/>
		<stop offset="1" style="stop-color:#FCC35A"/>
	</radialGradient>
	<path class="st22" d="M320.53,160.97c-0.27-4.94-3.24-8.64-5.22-12.49c-0.28-0.55-0.98,0.46-1.33,0.79&#10;&#9;&#9;c-0.18,0.17-0.36,0.35-0.54,0.52c0.79,2.08,1.53,4.24,1.86,6.49c0.45,3.09-0.04,6.41-0.86,9.52c-0.72,2.72-1.84,5.63-3.84,7.38&#10;&#9;&#9;c-0.82,0.72-1.74,1.25-2.66,1.5c0.09,0.05,0.18,0.08,0.27,0.12c8.61,1.99,11.9-9.5,11.9-9.5&#10;&#9;&#9;C320.46,163.9,320.61,162.43,320.53,160.97z" style="fill: url('#SVGID_10_');"/>
</g>
<path id="_x3C_Group_x3E__17_" class="st23" d="M246.28,205.91c2.41,1.97,4.64,4.13,6.84,6.34c2.16,2.24,4.25,4.56,6.24,6.96&#10;&#9;c1.98,2.41,4.08,4.76,5.62,7.5c1.59,2.7,2.92,5.56,3.81,8.6l-0.22,0.12c-2.12-2.36-3.88-4.87-5.72-7.32&#10;&#9;c-1.82-2.46-3.33-5.14-5.11-7.65c-1.76-2.52-3.62-4.97-5.57-7.36c-1.92-2.41-3.94-4.75-6.06-7L246.28,205.91z" style="fill: rgb(23, 85, 41);"/>
<path id="_x3C_Group_x3E__16_" class="st23" d="M271.4,191.37c2.94,2.91,5.49,6.18,7.88,9.57c2.34,3.42,4.47,6.98,6.39,10.66&#10;&#9;c1.85,3.71,3.82,7.41,5,11.4c1.28,3.96,2.16,8.04,2.58,12.17l-0.22,0.05c-0.84-1.91-1.54-3.84-2.27-5.75&#10;&#9;c-0.79-1.89-1.42-3.84-2.23-5.71l-2.19-5.7c-0.66-1.93-1.52-3.78-2.31-5.67c-1.69-3.71-3.59-7.34-5.71-10.84&#10;&#9;c-2.1-3.51-4.39-6.93-7.09-10.03L271.4,191.37z" style="fill: rgb(23, 85, 41);"/>
<path id="_x3C_Group_x3E__15_" class="st23" d="M308.76,174.83c-0.69,2.42-1.07,4.93-1.43,7.43c-0.36,2.5-0.6,5.02-0.83,7.53&#10;&#9;c-0.46,5.03-0.76,10.08-0.95,15.13c-0.2,5.05-0.1,10.11-0.4,15.15c-0.12,2.52-0.28,5.05-0.48,7.58c-0.16,2.53-0.41,5.06-0.73,7.59&#10;&#9;h-0.23c-0.61-5.07-0.81-10.14-0.84-15.22c-0.02-2.54,0.12-5.08,0.26-7.61l0.6-7.6c0.42-5.06,0.94-10.12,1.64-15.15&#10;&#9;c0.37-2.51,0.78-5.02,1.28-7.51c0.51-2.49,1.04-4.98,1.89-7.39L308.76,174.83z" style="fill: rgb(23, 85, 41);"/>
<linearGradient id="_x3C_Group_x3E__31_" gradientUnits="userSpaceOnUse" x1="303.9291" y1="209.5383" x2="324.6967" y2="209.5383">
	<stop offset="0" style="stop-color:#2D9248"/>
	<stop offset="0.0409" style="stop-color:#2B8C45"/>
	<stop offset="0.2052" style="stop-color:#24773A"/>
	<stop offset="0.3776" style="stop-color:#1E6832"/>
	<stop offset="0.5595" style="stop-color:#1A5D2D"/>
	<stop offset="0.7572" style="stop-color:#18572A"/>
	<stop offset="1" style="stop-color:#175529"/>
</linearGradient>
<path id="_x3C_Group_x3E__14_" class="st24" d="M303.97,234.15c0,0,0,0.01,0,0.01c0,0.08,0.01,0.16,0.01,0.24&#10;&#9;c0,0.03,0,0.06-0.01,0.09c0-0.02,0-0.05,0.01-0.07c0.01,0.27,0.03,0.53,0.04,0.8h0.91c0.02-0.11,0.04-0.22,0.07-0.33&#10;&#9;c0.41-1.53,0.94-2.86,1.55-4.58c1.37-3.44,1.79-4.35,3.15-6.93c4.27-8.13,5.68-13.79,7.25-22.17c0.79-4.26,1.83-8.04,3.88-11.98&#10;&#9;c0.77-1.48,1.84-3.05,3.1-4.4c0,0,0.01-0.01,0.01-0.01c0.41-0.36,1.43-1.55,0.02-0.7c-0.75,0.43-1.49,0.94-2.2,1.48&#10;&#9;c-0.92,0.71-1.82,1.47-2.69,2.34c-0.1,0.1-0.2,0.21-0.31,0.31c-6.31,5.77-11.15,14.64-13.69,30.66c-0.54,3.41-0.97,6.19-1.08,9.27&#10;&#9;C303.92,230.68,303.9,232.43,303.97,234.15C303.97,234.15,303.97,234.15,303.97,234.15z" style="fill: url('#_x3C_Group_x3E__31_');"/>
<path id="_x3C_Group_x3E__13_" class="st13" d="M280.62,176.93c1.54,1.65,2.84,3.57,3.78,5.4c2.46,4.78,3.7,9.37,4.64,14.54&#10;&#9;c1.85,10.16,3.54,17.03,8.67,26.91c1.63,3.14,2.14,4.24,3.78,8.42c0.4,1.12,0.76,2.09,1.09,3.05h2.08c0.03-1.61,0.01-3.36-0.07-5.6&#10;&#9;c-0.12-3.74-0.62-7.1-1.26-11.24c-3.86-25.06-12.4-35.72-23.46-42.51c0.38,0.36,0.73,0.72,1.07,1.08&#10;&#9;C280.7,176.87,280.5,176.8,280.62,176.93z" style="fill-rule: evenodd; clip-rule: evenodd; fill: rgb(45, 146, 72);"/>
<linearGradient id="_x3C_Group_x3E__32_" gradientUnits="userSpaceOnUse" x1="279.7617" y1="205.4888" x2="304.5274" y2="205.4888">
	<stop offset="0" style="stop-color:#2D9248"/>
	<stop offset="0.0409" style="stop-color:#2B8C45"/>
	<stop offset="0.2052" style="stop-color:#24773A"/>
	<stop offset="0.3776" style="stop-color:#1E6832"/>
	<stop offset="0.5595" style="stop-color:#1A5D2D"/>
	<stop offset="0.7572" style="stop-color:#18572A"/>
	<stop offset="1" style="stop-color:#175529"/>
</linearGradient>
<path id="_x3C_Group_x3E__12_" class="st25" d="M280.66,176.96c1.06,0.95,1.98,1.98,2.8,3.08c0.05,0.07,0.1,0.14,0.15,0.21&#10;&#9;c0.23,0.32,0.45,0.65,0.67,0.98c0.03,0.05,0.06,0.09,0.09,0.14c0.75,1.18,1.39,2.43,1.96,3.75c0.01,0.03,0.02,0.05,0.03,0.08&#10;&#9;c0.18,0.42,0.35,0.85,0.52,1.28c0.01,0.03,0.02,0.05,0.03,0.07c1.42,3.71,2.37,7.9,3.41,12.46c0.86,3.74,1.75,7.69,3.01,11.86&#10;&#9;c0.92,3.06,2.22,5.88,3.62,8.96c2,4.38,4.2,8.92,5.83,15.39h0.19c-1.67-6.58-3.88-11.42-5.87-15.8c-1.39-3.04-2.68-5.84-3.57-8.83&#10;&#9;c-1.23-4.1-2.13-8.03-2.98-11.74c-1.39-6.12-2.63-11.6-5.01-16.13c2.96,4.91,4.64,11.15,6.58,18.29c0.76,2.79,1.53,5.7,2.46,8.73&#10;&#9;c0.84,2.78,1.87,5.48,2.99,8.32c1.89,4.84,3.96,10.18,5.48,17.18h0.28c-1.54-7.16-3.66-12.59-5.57-17.52&#10;&#9;c-1.1-2.82-2.14-5.49-2.97-8.22c-0.91-3.01-1.68-5.92-2.43-8.66c-1.96-7.24-3.67-13.54-6.65-18.52c4.01,5.8,6.36,13.66,9.16,23.07&#10;&#9;c0.32,1.09,0.65,2.18,0.98,3.24c0.66,2.15,1.37,4.3,2.11,6.52c1.93,5.72,4.02,11.99,5.47,20.08h0.27c-0.08-0.47-0.17-0.93-0.25-1.39&#10;&#9;c0-0.01,0-0.01,0-0.02c-0.01-0.04-0.02-0.08-0.03-0.13c-0.34-1.76-0.71-3.43-1.09-5.02c-0.03-0.13-0.06-0.26-0.1-0.39&#10;&#9;c-0.18-0.71-0.36-1.41-0.54-2.09c-0.05-0.2-0.11-0.39-0.16-0.59c-0.17-0.63-0.35-1.26-0.52-1.87c-0.07-0.24-0.14-0.47-0.21-0.71&#10;&#9;c-0.12-0.41-0.24-0.81-0.36-1.21c-0.14-0.47-0.29-0.94-0.43-1.4c-0.08-0.27-0.17-0.53-0.25-0.8c-0.53-1.64-1.05-3.22-1.57-4.76&#10;&#9;c-0.76-2.21-1.47-4.36-2.11-6.49c-0.34-1.11-0.66-2.15-0.97-3.19c-2.83-9.48-5.2-17.41-9.25-23.32c1.53,1.96,2.9,4.15,4.17,6.64&#10;&#9;c2.68,5.24,4.86,11.63,7.09,19.04c0.1,0.3,0.3,0.95,0.51,1.64c0.18,0.61,0.37,1.23,0.56,1.84c0.02,0.07,0.04,0.14,0.06,0.21&#10;&#9;c0.15,0.49,0.3,0.99,0.44,1.49c0.06,0.21,0.13,0.43,0.19,0.64c0.11,0.37,0.22,0.74,0.32,1.11c0.08,0.28,0.16,0.55,0.24,0.83&#10;&#9;c0.11,0.39,0.23,0.79,0.34,1.19c0.14,0.49,0.27,0.98,0.41,1.48c0.08,0.29,0.16,0.58,0.24,0.87c0.09,0.34,0.18,0.68,0.27,1.03&#10;&#9;c0.09,0.33,0.17,0.65,0.25,0.98c0.08,0.31,0.16,0.62,0.24,0.94c0.14,0.57,0.28,1.16,0.42,1.75c0.02,0.07,0.04,0.14,0.05,0.21&#10;&#9;c0.18,0.76,0.35,1.52,0.51,2.31c0-0.01,0-0.01,0-0.02c0.61,2.86,1.17,5.92,1.63,9.21h0.27c-0.85-6.11-2.02-11.38-3.29-16.17&#10;&#9;c0-0.01,0-0.02-0.01-0.03c-0.01-0.04-0.02-0.09-0.04-0.13c-0.45-1.7-0.92-3.35-1.39-4.94c-0.02-0.07-0.04-0.14-0.06-0.22&#10;&#9;c-0.19-0.63-0.37-1.25-0.55-1.86c-0.3-1-0.6-1.99-0.9-2.96c-0.13-0.41-0.25-0.86-0.5-1.67c-2.25-7.46-4.45-13.89-7.18-19.21&#10;&#9;c-1.24-2.42-2.59-4.62-4.11-6.56c1.64,1.81,3.15,3.92,4.55,6.25c3.02,5.01,5.55,11.28,7.78,18.64c1.49,4.93,2.85,10.26,3.96,16.21&#10;&#9;c0.72,3.91,1.34,8.12,1.81,12.65h0.27c-0.47-4.56-1.09-8.81-1.82-12.73c-1.12-6.03-2.5-11.43-3.99-16.36&#10;&#9;c-2.25-7.46-4.83-13.78-7.86-18.89c-1.39-2.28-2.85-4.33-4.44-6.11c0.07,0.05,0.13,0.13,0.21,0.2c5.36,5.33,9.93,13.34,13.13,23.93&#10;&#9;c1.53,5.04,2.69,10.66,3.55,16.88c0.56,4.11,0.98,8.49,1.29,13.09h0.05c-0.27-4.7-0.5-8.87-1.09-13.12&#10;&#9;c-0.87-6.29-2.04-12.01-3.58-17.1c-3.26-10.74-7.88-18.84-13.32-24.24c-1.05-1.07-2.13-2-3.24-2.85c-0.86-0.65-1.75-1.27-2.66-1.8&#10;&#9;C278.93,175.08,280.16,176.52,280.66,176.96z" style="fill: url('#_x3C_Group_x3E__32_');"/>
<linearGradient id="_x3C_Group_x3E__33_" gradientUnits="userSpaceOnUse" x1="257.3875" y1="214.6962" x2="276.6782" y2="214.6962">
	<stop offset="0" style="stop-color:#2D9248"/>
	<stop offset="0.0409" style="stop-color:#2B8C45"/>
	<stop offset="0.2052" style="stop-color:#24773A"/>
	<stop offset="0.3776" style="stop-color:#1E6832"/>
	<stop offset="0.5595" style="stop-color:#1A5D2D"/>
	<stop offset="0.7572" style="stop-color:#18572A"/>
	<stop offset="1" style="stop-color:#175529"/>
</linearGradient>
<path id="_x3C_Group_x3E__11_" class="st26" d="M269.28,235.23h0.32c-1.65-2.49-3.13-4.93-4.41-7.33&#10;&#9;c-5.05-9.42-7.4-18.02-7.38-25.33c0.01-0.1,0-0.2,0.01-0.28c0.13,2.3,0.53,4.7,1.15,7.21c1.42,5.57,3.98,11.66,7.54,18.29&#10;&#9;c1.29,2.41,2.71,4.89,4.27,7.44h0.31c-1.55-2.54-2.97-5.02-4.27-7.44c-3.51-6.56-6.06-12.57-7.43-18.06&#10;&#9;c-0.64-2.55-1.05-5.02-1.17-7.38c0.29,2.37,0.87,4.79,1.68,7.3c1.78,5.5,4.67,11.4,8.23,18.04c0.39,0.72,0.6,1.11,0.8,1.48&#10;&#9;c0.46,0.87,0.93,1.75,1.41,2.64c0.29,0.55,0.59,1.1,0.89,1.65c0.03,0.06,0.07,0.13,0.1,0.19c0.28,0.52,0.58,1.05,0.87,1.58h0.3&#10;&#9;c-0.11-0.2-0.23-0.4-0.34-0.6c-0.14-0.25-0.27-0.49-0.4-0.73c-0.18-0.33-0.36-0.66-0.54-0.98c-0.1-0.19-0.21-0.38-0.31-0.57&#10;&#9;c-0.24-0.44-0.48-0.88-0.71-1.32c-0.03-0.06-0.07-0.12-0.1-0.19c-0.3-0.55-0.59-1.1-0.88-1.64c-0.33-0.62-0.64-1.2-0.78-1.47&#10;&#9;c-3.53-6.6-6.42-12.45-8.16-17.87c-0.84-2.57-1.4-5-1.69-7.39c1.27,6.81,5.08,13.85,9.62,22.27c0.5,0.93,0.99,1.86,1.52,2.85&#10;&#9;c1.02,1.89,2,3.85,3,5.88c0.28,0.57,0.6,1.18,0.89,1.77h0.31c-0.29-0.57-0.57-1.14-0.85-1.71c-1.01-2.02-2-3.98-3.02-5.9&#10;&#9;c-0.5-0.95-1.02-1.92-1.55-2.89c-4.52-8.35-8.29-15.33-9.51-22.04c1.36,5.44,4.5,10.92,8.11,17.21c1.36,2.38,2.82,4.9,4.26,7.58&#10;&#9;c1.3,2.43,2.41,4.97,3.59,7.65c0.01,0.03,0.03,0.06,0.04,0.09h0.31c-1.17-2.7-2.31-5.25-3.63-7.71c-1.44-2.7-2.9-5.22-4.28-7.65&#10;&#9;c-3.55-6.21-6.67-11.62-8-17c1.47,4.72,4.37,9.32,7.6,14.46c1.96,3.12,4.03,6.42,5.99,10.06c1.33,2.47,2.32,5.06,3.36,7.84h0.32&#10;&#9;c-1.04-2.76-2.02-5.32-3.35-7.8c-1.99-3.71-4.08-7.02-6.05-10.17c-2.41-3.83-4.62-7.34-6.19-10.84c-0.01-0.02-0.02-0.05-0.03-0.07&#10;&#9;c-0.18-0.41-0.36-0.82-0.52-1.23c-0.01-0.03-0.02-0.05-0.03-0.08c-0.51-1.29-0.93-2.59-1.22-3.91c-0.01-0.05-0.02-0.11-0.03-0.16&#10;&#9;c-0.08-0.37-0.15-0.75-0.21-1.12c-0.01-0.08-0.02-0.16-0.04-0.25c-0.2-1.31-0.27-2.65-0.19-4.02c0.04-0.64-0.11-2.47-0.57-0.6&#10;&#9;c-0.26,0.98-0.45,2.01-0.59,3.05c-0.17,1.35-0.28,2.72-0.27,4.17c-0.03,7.41,2.35,16.11,7.47,25.68&#10;&#9;C266.14,230.28,267.63,232.73,269.28,235.23z" style="fill: url('#_x3C_Group_x3E__33_');"/>
<linearGradient id="_x3C_Group_x3E__34_" gradientUnits="userSpaceOnUse" x1="204.2855" y1="221.9122" x2="267.3597" y2="221.9122">
	<stop offset="0" style="stop-color:#2D9248"/>
	<stop offset="0.0409" style="stop-color:#2B8C45"/>
	<stop offset="0.2052" style="stop-color:#24773A"/>
	<stop offset="0.3776" style="stop-color:#1E6832"/>
	<stop offset="0.5595" style="stop-color:#1A5D2D"/>
	<stop offset="0.7572" style="stop-color:#18572A"/>
	<stop offset="1" style="stop-color:#175529"/>
</linearGradient>
<path id="_x3C_Group_x3E__9_" class="st27" d="M206.18,209.93c0.01,0,0.02,0,0.03,0c2.91,0.35,5.81,1.17,8.27,2.19&#10;&#9;c6.51,2.71,11.64,6.26,16.95,10.64c6.09,5.01,11.18,8.95,17.03,12.47h18.91c-1.08-0.96-2.21-1.95-3.4-2.99&#10;&#9;c-19.45-16.95-34.4-22.82-47.98-23.41c-0.23-0.02-0.47-0.05-0.7-0.07c-1.96-0.18-3.82-0.2-5.67-0.11c-1.42,0.07-2.83,0.21-4.19,0.45&#10;&#9;C202.86,209.5,205.3,209.9,206.18,209.93z" style="fill: url('#_x3C_Group_x3E__34_');"/>
<g id="_x3C_Group_x3E__10_">
	<path class="st13" d="M148.79,234.79c1.12-1.45,2.25-2.98,3.48-4.66c16.95-23.12,18.65-38.49,15.23-52.75&#10;&#9;&#9;c0.01,0.59,0.01,1.16-0.01,1.72c-0.12-0.27-0.23-0.49-0.23-0.29c-0.09,2.55-0.58,5.13-1.29,7.34c-1.85,5.79-4.53,10.46-7.91,15.34&#10;&#9;&#9;c-6.64,9.61-10.79,16.45-14.58,28.45c-0.64,2.04-1.08,3.36-1.66,4.85H148.79z" style="fill-rule: evenodd; clip-rule: evenodd; fill: rgb(45, 146, 72);"/>
	<g>
		<path class="st13" d="M43.02,224.21c-1.14-4.39-1.52-5.55-2.77-8.9c-3.95-10.52-4.81-17.62-5.44-28.03&#10;&#9;&#9;&#9;c-0.32-5.29-1.01-10.04-2.9-15.14c-0.72-1.94-1.79-4.03-3.14-5.87c-0.11-0.14,0.08-0.05,0.32,0.08c-0.3-0.4-0.61-0.81-0.94-1.21&#10;&#9;&#9;&#9;c10.26,8.14,17.54,19.87,18.38,45.46c0.14,4.23,0.24,7.66-0.09,11.43c-0.48,5.42-0.88,7.96-1.95,12.54&#10;&#9;&#9;&#9;C44.54,230.19,43.85,227.89,43.02,224.21z" style="fill-rule: evenodd; clip-rule: evenodd; fill: rgb(45, 146, 72);"/>
		<g>
			
				<linearGradient id="SVGID_11_" gradientUnits="userSpaceOnUse" x1="173.5195" y1="175.9363" x2="173.6831" y2="175.9363" gradientTransform="matrix(-0.3026 0.7636 0.4527 0.6418 18.4137 -15.8867)">
				<stop offset="0" style="stop-color:#2D9248"/>
				<stop offset="0.0409" style="stop-color:#2B8C45"/>
				<stop offset="0.2052" style="stop-color:#24773A"/>
				<stop offset="0.3776" style="stop-color:#1E6832"/>
				<stop offset="0.5595" style="stop-color:#1A5D2D"/>
				<stop offset="0.7572" style="stop-color:#18572A"/>
				<stop offset="1" style="stop-color:#175529"/>
			</linearGradient>
			<path class="st28" d="M45.52,229.68c0-0.05,0-0.1,0-0.15c0-0.01,0-0.02,0.01-0.04C45.53,229.56,45.53,229.61,45.52,229.68z" style="fill: url('#SVGID_11_');"/>
			
				<linearGradient id="SVGID_12_" gradientUnits="userSpaceOnUse" x1="137.6898" y1="146.1464" x2="179.0256" y2="146.1464" gradientTransform="matrix(-0.3026 0.7636 0.4527 0.6418 18.4137 -15.8867)">
				<stop offset="0" style="stop-color:#2D9248"/>
				<stop offset="0.0409" style="stop-color:#2B8C45"/>
				<stop offset="0.2052" style="stop-color:#24773A"/>
				<stop offset="0.3776" style="stop-color:#1E6832"/>
				<stop offset="0.5595" style="stop-color:#1A5D2D"/>
				<stop offset="0.7572" style="stop-color:#18572A"/>
				<stop offset="1" style="stop-color:#175529"/>
			</linearGradient>
			<path class="st29" d="M44.56,234.26c0.38-1.59,0.61-3.09,0.97-4.73c0.15-5.37,0.04-10.32-0.25-14.9&#10;&#9;&#9;&#9;&#9;c-0.39-6.18-1.12-11.76-2.02-16.89c-1.35-7.75-3.17-14.4-5.6-19.9c-1.12-2.46-2.33-4.69-3.71-6.67c0.06,0.06,0.11,0.14,0.19,0.22&#10;&#9;&#9;&#9;&#9;c4.73,6,8.35,14.58,10.27,25.58c0.92,5.24,1.41,11.02,1.52,17.36c0.07,4.75-0.06,9.81-0.38,15.15c0.02-0.08,0.03-0.16,0.05-0.24&#10;&#9;&#9;&#9;&#9;c0.34-5.43,0.68-10.08,0.6-14.91c-0.11-6.41-0.6-12.29-1.52-17.58c-1.97-11.16-5.62-19.84-10.42-25.92&#10;&#9;&#9;&#9;&#9;c-0.92-1.2-1.9-2.26-2.91-3.26c-0.79-0.76-1.6-1.48-2.45-2.13c-1.58-1.24-0.53,0.35-0.08,0.86c0.95,1.08,1.75,2.22,2.43,3.43&#10;&#9;&#9;&#9;&#9;c0.04,0.08,0.09,0.15,0.13,0.23c0.19,0.35,0.38,0.7,0.55,1.06c0.02,0.05,0.05,0.1,0.08,0.15c0.61,1.27,1.1,2.61,1.52,4&#10;&#9;&#9;&#9;&#9;c0.01,0.03,0.02,0.06,0.02,0.09c0.13,0.44,0.25,0.89,0.37,1.35c0.01,0.03,0.01,0.05,0.02,0.08c0.97,3.89,1.42,8.21,1.91,12.9&#10;&#9;&#9;&#9;&#9;c0.41,3.85,0.83,7.93,1.59,12.26c0.55,3.18,1.52,6.16,2.55,9.43c1.95,6.14,4.23,12.59,4.53,23.29c0.03-0.08,0.04-0.19,0.07-0.27&#10;&#9;&#9;&#9;&#9;C44.56,234.29,44.56,234.27,44.56,234.26z M36.09,189.47c-0.65-6.31-1.24-11.95-3.07-16.79c2.38,5.28,3.31,11.74,4.39,19.14&#10;&#9;&#9;&#9;&#9;c0.43,2.89,0.85,5.9,1.41,9.05c0.51,2.89,1.22,5.72,1.99,8.7c1.48,5.77,3.13,12.19,3.65,20.86c-0.73-8.33-2.63-14.26-4.29-19.54&#10;&#9;&#9;&#9;&#9;c-1.03-3.22-1.98-6.18-2.51-9.29C36.91,197.35,36.48,193.3,36.09,189.47z M33.22,172.3c3.32,6.3,4.72,14.46,6.4,24.24&#10;&#9;&#9;&#9;&#9;c0.19,1.13,0.39,2.27,0.59,3.37c0.4,2.24,0.85,4.48,1.32,6.8c1.38,6.63,2.89,13.95,3.19,23.6c-0.52-8.77-2.2-15.24-3.69-21.06&#10;&#9;&#9;&#9;&#9;c-0.77-2.96-1.48-5.77-1.99-8.6c-0.55-3.13-0.97-6.14-1.39-8.98C36.56,184.18,35.62,177.65,33.22,172.3z M45.25,229.96&#10;&#9;&#9;&#9;&#9;c-0.01-7.24-0.59-13.41-1.37-18.99c0-0.01,0-0.02,0-0.03c-0.01-0.05-0.01-0.09-0.02-0.14c-0.25-1.76-0.52-3.47-0.79-5.13&#10;&#9;&#9;&#9;&#9;c-0.01-0.07-0.02-0.15-0.04-0.22c-0.11-0.65-0.22-1.3-0.33-1.94c-0.18-1.04-0.36-2.07-0.54-3.08c-0.08-0.43-0.15-0.89-0.3-1.73&#10;&#9;&#9;&#9;&#9;c-1.35-7.75-2.78-14.46-4.87-20.13c-0.95-2.58-2.04-4.95-3.33-7.08c1.43,2.01,2.68,4.31,3.8,6.82c2.42,5.39,4.2,11.98,5.54,19.63&#10;&#9;&#9;&#9;&#9;c0.9,5.12,1.62,10.63,2.01,16.74C45.31,219.38,45.42,224.42,45.25,229.96z M44.78,226.12c0-0.01,0-0.01,0-0.02&#10;&#9;&#9;&#9;&#9;c0-0.05-0.01-0.09-0.01-0.13c-0.13-1.8-0.29-3.52-0.49-5.17c-0.02-0.13-0.03-0.27-0.05-0.4c-0.09-0.74-0.19-1.45-0.29-2.16&#10;&#9;&#9;&#9;&#9;c-0.03-0.2-0.06-0.41-0.09-0.61c-0.1-0.65-0.2-1.3-0.3-1.94c-0.04-0.25-0.08-0.49-0.12-0.74c-0.07-0.42-0.14-0.84-0.22-1.25&#10;&#9;&#9;&#9;&#9;c-0.09-0.49-0.18-0.98-0.27-1.46c-0.05-0.28-0.1-0.56-0.16-0.83c-0.33-1.71-0.67-3.36-1-4.97c-0.49-2.31-0.95-4.55-1.33-6.77&#10;&#9;&#9;&#9;&#9;c-0.21-1.15-0.4-2.24-0.59-3.32c-1.69-9.85-3.11-18.09-6.45-24.5c1.3,2.15,2.41,4.51,3.38,7.17c2.06,5.58,3.46,12.25,4.81,19.95&#10;&#9;&#9;&#9;&#9;c0.06,0.31,0.18,0.98,0.31,1.71c0.11,0.64,0.22,1.27,0.33,1.92c0.01,0.07,0.03,0.15,0.04,0.22c0.09,0.51,0.18,1.03,0.27,1.55&#10;&#9;&#9;&#9;&#9;c0.04,0.22,0.08,0.44,0.11,0.67c0.06,0.38,0.13,0.77,0.19,1.15c0.05,0.29,0.09,0.57,0.14,0.86c0.07,0.41,0.13,0.82,0.19,1.23&#10;&#9;&#9;&#9;&#9;c0.08,0.5,0.16,1.01,0.23,1.53c0.04,0.3,0.09,0.6,0.13,0.9c0.05,0.35,0.1,0.71,0.15,1.06c0.05,0.34,0.09,0.68,0.14,1.02&#10;&#9;&#9;&#9;&#9;c0.04,0.32,0.08,0.64,0.12,0.97c0.07,0.59,0.14,1.19,0.21,1.8c0.01,0.07,0.02,0.15,0.03,0.22c0.08,0.78,0.16,1.57,0.24,2.38&#10;&#9;&#9;&#9;&#9;c0-0.01,0-0.01,0-0.02c0.34,3.69,0.55,7.66,0.55,12.02C44.94,228.75,44.87,227.41,44.78,226.12z" style="fill: url('#SVGID_12_');"/>
		</g>
	</g>
	
		<linearGradient id="SVGID_13_" gradientUnits="userSpaceOnUse" x1="36.0809" y1="191.7813" x2="61.7508" y2="191.7813" gradientTransform="matrix(0.9632 -0.2688 0.2688 0.9632 -50.8653 19.604)">
		<stop offset="0" style="stop-color:#2D9248"/>
		<stop offset="0.0409" style="stop-color:#2B8C45"/>
		<stop offset="0.2052" style="stop-color:#24773A"/>
		<stop offset="0.3776" style="stop-color:#1E6832"/>
		<stop offset="0.5595" style="stop-color:#1A5D2D"/>
		<stop offset="0.7572" style="stop-color:#18572A"/>
		<stop offset="1" style="stop-color:#175529"/>
	</linearGradient>
	<path class="st30" d="M63.21,200.45C54.89,177.01,45.13,165,34,158.08c-0.18-0.13-0.37-0.26-0.55-0.39&#10;&#9;&#9;c-1.56-1.08-3.12-1.97-4.7-2.78c-1.23-0.61-2.48-1.16-3.73-1.61c-2.36-0.87-0.49,0.62,0.23,1.05c0.01,0,0.01,0.01,0.02,0.01&#10;&#9;&#9;c2.27,1.67,4.32,3.73,5.9,5.75c4.19,5.36,6.81,10.76,9.2,16.95c4.7,12.18,8.42,20.32,17.13,31.36c2.77,3.51,3.66,4.76,6.69,9.56&#10;&#9;&#9;c1.41,2.41,2.57,4.26,3.62,6.46c0.7,1.67,1.39,3.43,2.06,5.34c0-0.11-0.02-0.24-0.02-0.35c-0.01-0.02-0.01-0.04-0.01-0.05&#10;&#9;&#9;c-0.18-2.24-0.37-4.1-0.62-5.94c0.01,0.03,0.02,0.07,0.03,0.11c-0.01-0.05-0.02-0.09-0.04-0.13c-0.02-0.12-0.03-0.25-0.05-0.37&#10;&#9;&#9;c0-0.01,0-0.01,0-0.02c0,0,0-0.01,0-0.01c-0.38-2.61-0.89-5.23-1.72-8.93C66.4,209.5,64.98,205.44,63.21,200.45z" style="fill: url('#SVGID_13_');"/>
	
		<linearGradient id="SVGID_14_" gradientUnits="userSpaceOnUse" x1="83.5673" y1="206.0605" x2="97.9881" y2="206.0605" gradientTransform="matrix(0.8712 0.491 -0.491 0.8712 135.9602 -12.1312)">
		<stop offset="0" style="stop-color:#2D9248"/>
		<stop offset="0.0409" style="stop-color:#2B8C45"/>
		<stop offset="0.2052" style="stop-color:#24773A"/>
		<stop offset="0.3776" style="stop-color:#1E6832"/>
		<stop offset="0.5595" style="stop-color:#1A5D2D"/>
		<stop offset="0.7572" style="stop-color:#18572A"/>
		<stop offset="1" style="stop-color:#175529"/>
	</linearGradient>
	<path class="st31" d="M116.3,221.75c6.01-12.61,6.9-21.26,5.23-28.43c-0.02-0.12-0.04-0.25-0.06-0.37&#10;&#9;&#9;c-0.19-1.05-0.45-2.02-0.76-2.97c-0.25-0.73-0.52-1.45-0.84-2.12c-0.59-1.28-0.44,0.05-0.33,0.51c0,0,0,0.01,0,0.01&#10;&#9;&#9;c0.24,1.57,0.23,3.2,0.06,4.63c-0.46,3.79-1.57,6.98-3.08,10.39c-2.97,6.71-4.73,11.42-5.66,19.26c-0.3,2.49-0.44,3.34-1.14,6.45&#10;&#9;&#9;c-0.4,1.52-0.67,2.72-1.13,4c-0.38,0.94-0.81,1.91-1.31,2.94c0.04-0.04,0.09-0.1,0.13-0.15c0.01-0.01,0.01-0.02,0.02-0.03&#10;&#9;&#9;c0.82-0.96,1.48-1.78,2.11-2.61c-0.01,0.02-0.02,0.04-0.03,0.05c0.01-0.02,0.03-0.05,0.04-0.07c0.04-0.06,0.08-0.11,0.13-0.17&#10;&#9;&#9;c0,0,0.01-0.01,0.01-0.01c0,0,0,0,0-0.01c0.89-1.19,1.72-2.43,2.86-4.23C113.98,226.62,115.02,224.44,116.3,221.75z" style="fill: url('#SVGID_14_');"/>
	
		<linearGradient id="SVGID_15_" gradientUnits="userSpaceOnUse" x1="139.2823" y1="176.5526" x2="155.4296" y2="176.5526" gradientTransform="matrix(-0.7862 -0.618 -0.618 0.7862 400.6315 163.8508)">
		<stop offset="0" style="stop-color:#2D9248"/>
		<stop offset="0.0409" style="stop-color:#2B8C45"/>
		<stop offset="0.2052" style="stop-color:#24773A"/>
		<stop offset="0.3776" style="stop-color:#1E6832"/>
		<stop offset="0.5595" style="stop-color:#1A5D2D"/>
		<stop offset="0.7572" style="stop-color:#18572A"/>
		<stop offset="1" style="stop-color:#175529"/>
	</linearGradient>
	<path class="st32" d="M164.49,213.26c10.49-11.61,19.06-16.22,27.19-17.56c0.14-0.03,0.28-0.06,0.41-0.09&#10;&#9;&#9;c1.17-0.25,2.29-0.39,3.4-0.48c0.86-0.06,1.72-0.08,2.55-0.03c1.58,0.06,0.14,0.48-0.39,0.56c-0.01,0-0.01,0-0.02,0&#10;&#9;&#9;c-1.72,0.42-3.41,1.12-4.82,1.92c-3.73,2.1-6.56,4.61-9.44,7.63c-5.67,5.94-9.8,9.77-17.52,14.08c-2.46,1.37-3.27,1.88-6.19,3.94&#10;&#9;&#9;c-1.4,1.06-2.52,1.86-3.66,2.88c-0.81,0.8-1.63,1.66-2.49,2.61c0.03-0.06,0.07-0.14,0.1-0.2c0.01-0.01,0.01-0.02,0.02-0.03&#10;&#9;&#9;c0.65-1.26,1.2-2.3,1.79-3.3c-0.01,0.02-0.03,0.04-0.04,0.05c0.02-0.02,0.04-0.05,0.05-0.07c0.04-0.07,0.08-0.13,0.12-0.2&#10;&#9;&#9;c0,0,0-0.01,0.01-0.01c0,0,0,0,0-0.01c0.85-1.43,1.78-2.82,3.15-4.77C160.45,217.74,162.26,215.73,164.49,213.26z" style="fill: url('#SVGID_15_');"/>
	<g>
		
			<linearGradient id="SVGID_16_" gradientUnits="userSpaceOnUse" x1="56.0429" y1="144.6363" x2="56.0429" y2="169.6963" gradientTransform="matrix(0.9553 0.2957 -0.2957 0.9553 47.4099 -21.3775)">
			<stop offset="0" style="stop-color:#75C7CB"/>
			<stop offset="1" style="stop-color:#508D8F"/>
		</linearGradient>
		<path class="st33" d="M54.12,146.5c-0.07-0.7-1.61-14.68-9.09-17.21c0,0,2.24,4.35-0.76,15.1c-0.43,1.53-0.5,3.13-0.2,4.69&#10;&#9;&#9;&#9;c0.53,2.83,2.11,6.79,6.69,8.22l0,0c0,0,0.01,0,0.01,0c0,0,0.01,0,0.01,0l0,0c4.59,1.41,8.13-0.96,10.17-3&#10;&#9;&#9;&#9;c1.12-1.12,1.97-2.49,2.48-3.99c3.59-10.56,7.9-12.89,7.9-12.89C63.74,135.3,54.57,145.97,54.12,146.5z" style="fill: url('#SVGID_16_');"/>
		<radialGradient id="SVGID_17_" cx="57.3194" cy="137.7587" r="7.939" gradientUnits="userSpaceOnUse">
			<stop offset="0" style="stop-color:#75C7CB"/>
			<stop offset="1" style="stop-color:#508D8F"/>
		</radialGradient>
		<path class="st34" d="M54.12,146.5c0.32-0.38,4.91-5.72,10.25-8.15c-0.05-0.27-1.45-8.15-4.86-9.2c-3.45-1.07-9.12,4.76-9.22,4.86&#10;&#9;&#9;&#9;C53.29,139.02,54.06,146.01,54.12,146.5z" style="fill: url('#SVGID_17_');"/>
	</g>
	<g>
		
			<linearGradient id="SVGID_18_" gradientUnits="userSpaceOnUse" x1="84.049" y1="161.4738" x2="84.049" y2="186.5338" gradientTransform="matrix(0.9741 -0.2259 0.2259 0.9741 -51.0306 19.3134)">
			<stop offset="0" style="stop-color:#75C7CB"/>
			<stop offset="1" style="stop-color:#508D8F"/>
		</linearGradient>
		<path class="st35" d="M70.44,171.02c-0.42-0.57-8.79-11.87-16.52-10.29c0,0,4.13,2.63,6.95,13.42c0.4,1.53,1.15,2.96,2.19,4.16&#10;&#9;&#9;&#9;c1.89,2.18,5.24,4.8,9.92,3.72l0,0c0,0,0.01,0,0.01,0c0,0,0.01,0,0.01,0l0,0c4.68-1.1,6.53-4.93,7.27-7.71&#10;&#9;&#9;&#9;c0.41-1.53,0.45-3.14,0.14-4.7c-2.21-10.93,0.33-15.11,0.33-15.11C73.1,156.49,70.56,170.33,70.44,171.02z" style="fill: url('#SVGID_18_');"/>
		<radialGradient id="SVGID_19_" cx="67.9997" cy="162.1327" r="8.0793" gradientUnits="userSpaceOnUse">
			<stop offset="0" style="stop-color:#75C7CB"/>
			<stop offset="1" style="stop-color:#508D8F"/>
		</radialGradient>
		<path class="st36" d="M70.44,171.02c0.09-0.49,1.36-7.41,4.74-12.2c-0.18-0.21-5.35-6.31-8.84-5.5c-3.51,0.82-5.48,8.71-5.52,8.84&#10;&#9;&#9;&#9;C65.96,164.98,70.14,170.62,70.44,171.02z" style="fill: url('#SVGID_19_');"/>
	</g>
	<g>
		<path class="st3" d="M174.99,152.04c1.56-1.73,3.15-3.36,4.02-5.68c0.01-0.01,0.01-0.01,0.02-0.02c0,0,0-0.01,0-0.01&#10;&#9;&#9;&#9;c0,0,0,0.01,0,0.01c0.01,0.01,0.02,0.02,0.02,0.03c0.87,2.32,2.45,3.95,4.01,5.68c2.11,2.34,3.71,5,3.92,8.47&#10;&#9;&#9;&#9;c0.31,5.34-1.88,12.46-6.57,14.51c0,0-0.01,0-0.01,0c-0.06,0.01-0.11,0.03-0.14,0.07c-0.33,0.13-0.67,0.24-1.03,0.33&#10;&#9;&#9;&#9;c-0.14,0.03-0.2,0.15-0.2,0.27l-0.02,0c0-0.12-0.06-0.24-0.2-0.27c-0.35-0.08-0.7-0.19-1.03-0.33c-0.04-0.04-0.08-0.06-0.15-0.07&#10;&#9;&#9;&#9;c0,0-0.01,0-0.01,0c-4.69-2.05-6.88-9.17-6.56-14.51C171.27,157.04,172.88,154.38,174.99,152.04z" style="fill: rgb(80, 141, 143);"/>
		<linearGradient id="SVGID_20_" gradientUnits="userSpaceOnUse" x1="165.3916" y1="161.239" x2="176.7366" y2="161.239">
			<stop offset="0" style="stop-color:#75C7CB"/>
			<stop offset="1" style="stop-color:#508D8F"/>
		</linearGradient>
		<path class="st37" d="M171.07,160.51c0.2-3.38,1.72-5.98,3.75-8.28c-0.38-0.37-0.77-0.72-1.2-1.02c-1.09-0.78-2.23-1.29-3.45-1.71&#10;&#9;&#9;&#9;c-0.98-0.34-1.93-0.72-2.65-1.57c-0.78,1.26-1.33,2.62-1.67,4.03c0.04,0.08,0.02,0.2-0.06,0.25c-0.94,4.17-0.15,8.78,1.48,12.7&#10;&#9;&#9;&#9;c1.08,2.58,2.39,5.13,4.39,6.91c1.5,1.34,3.23,2.27,5.07,2.73C172.66,172.04,170.77,165.49,171.07,160.51z" style="fill: url('#SVGID_20_');"/>
		<linearGradient id="SVGID_21_" gradientUnits="userSpaceOnUse" x1="181.3059" y1="161.2463" x2="192.6638" y2="161.2463">
			<stop offset="0" style="stop-color:#75C7CB"/>
			<stop offset="1" style="stop-color:#508D8F"/>
		</linearGradient>
		<path class="st38" d="M190.77,164.92c1.64-3.91,2.43-8.53,1.49-12.7c-0.07-0.05-0.1-0.17-0.06-0.25&#10;&#9;&#9;&#9;c-0.34-1.41-0.89-2.77-1.67-4.03c-0.72,0.84-1.67,1.23-2.65,1.56c-1.22,0.42-2.37,0.92-3.45,1.71c-0.42,0.3-0.82,0.65-1.2,1.02&#10;&#9;&#9;&#9;c2.03,2.3,3.55,4.91,3.75,8.28c0.29,4.99-1.6,11.53-5.68,14.04c1.84-0.46,3.56-1.39,5.07-2.73&#10;&#9;&#9;&#9;C188.37,170.05,189.69,167.5,190.77,164.92z" style="fill: url('#SVGID_21_');"/>
	</g>
	<g>
		<path class="st17" d="M11.04,178.36c0.17-2.07,0.41-4.09-0.22-6.21c0-0.01,0-0.02,0-0.03c0,0,0-0.01,0-0.01c0,0,0,0,0.01,0.01&#10;&#9;&#9;&#9;c0.01,0,0.02,0,0.03,0.01c1.87,1.17,3.88,1.48,5.93,1.86c2.77,0.52,5.35,1.54,7.37,3.89c3.11,3.62,5.42,9.87,3.19,13.86&#10;&#9;&#9;&#9;c0,0.01,0,0.01-0.01,0.01c-0.04,0.04-0.06,0.08-0.07,0.13c-0.16,0.27-0.34,0.54-0.55,0.79c-0.08,0.1-0.06,0.21,0.01,0.3&#10;&#9;&#9;&#9;l-0.01,0.01c-0.07-0.09-0.17-0.14-0.29-0.08c-0.3,0.13-0.6,0.24-0.91,0.32c-0.05,0-0.09,0-0.14,0.03c0,0,0,0-0.01,0&#10;&#9;&#9;&#9;c-4.44,1.09-9.85-2.79-12.52-6.75C11.11,183.92,10.81,181.17,11.04,178.36z" style="fill: rgb(255, 228, 123);"/>
		<radialGradient id="SVGID_22_" cx="13.998" cy="186.3752" r="9.2659" gradientUnits="userSpaceOnUse">
			<stop offset="0" style="stop-color:#FFE47B"/>
			<stop offset="1" style="stop-color:#FCC35A"/>
		</radialGradient>
		<path class="st39" d="M12.85,186.5c-1.69-2.51-2.02-5.18-1.82-7.91c-0.47-0.06-0.94-0.09-1.4-0.08c-1.2,0.03-2.28,0.29-3.38,0.66&#10;&#9;&#9;&#9;c-0.88,0.29-1.76,0.53-2.73,0.32c0.13,1.32,0.48,2.58,1,3.77c0.08,0.04,0.12,0.14,0.1,0.21c1.59,3.47,4.65,6.32,7.93,8.21&#10;&#9;&#9;&#9;c2.16,1.25,4.48,2.34,6.86,2.52c1.79,0.14,3.52-0.14,5.08-0.81C20.23,193.83,15.34,190.2,12.85,186.5z" style="fill: url('#SVGID_22_');"/>
		<radialGradient id="SVGID_23_" cx="23.5195" cy="178.9778" r="9.6219" gradientUnits="userSpaceOnUse">
			<stop offset="0" style="stop-color:#FFE47B"/>
			<stop offset="1" style="stop-color:#FCC35A"/>
		</radialGradient>
		<path class="st40" d="M29.23,178.96c-0.96-3.67-2.9-7.37-5.82-9.82c-0.08,0-0.16-0.07-0.18-0.15c-1.01-0.82-2.13-1.49-3.37-1.96&#10;&#9;&#9;&#9;c-0.06,0.99-0.52,1.78-1.03,2.55c-0.64,0.96-1.18,1.94-1.53,3.08c-0.13,0.44-0.23,0.91-0.3,1.37c2.68,0.53,5.18,1.56,7.15,3.85&#10;&#9;&#9;&#9;c2.91,3.38,5.11,9.05,3.57,13.04c1.06-1.32,1.78-2.92,2.12-4.68C30.3,183.9,29.86,181.38,29.23,178.96z" style="fill: url('#SVGID_23_');"/>
	</g>
	<g id="flower_5_">
		<path class="st17" d="M124.22,156.8c-3.6,1.2-6.69,3.56-9.55,6.3c-2.63,2.52-5.05,5.38-6.28,8.68c-0.74,2-0.79,4.16-0.09,5.84&#10;&#9;&#9;&#9;c1.69,0.7,3.85,0.64,5.85-0.11c3.3-1.24,6.15-3.67,8.66-6.31c2.73-2.88,5.07-5.97,6.26-9.57c0.58-1.76,0.99-3.52,1.38-5.28&#10;&#9;&#9;&#9;c0.09-0.41,0.18-0.81,0.27-1.22c-0.41,0.09-0.81,0.18-1.22,0.27C127.74,155.8,125.98,156.22,124.22,156.8z" style="fill: rgb(255, 228, 123);"/>
		<radialGradient id="SVGID_24_" cx="118.1123" cy="164.8461" r="12.909" gradientUnits="userSpaceOnUse">
			<stop offset="0" style="stop-color:#FFE47B"/>
			<stop offset="1" style="stop-color:#FCC35A"/>
		</radialGradient>
		<path class="st41" d="M114.32,155.04c5.4-2.98,11.29-2.29,16.67-2.75c0.77-0.07,0.16,1.34,0.04,1.93&#10;&#9;&#9;&#9;c-0.06,0.31-0.13,0.61-0.19,0.92c-2.72,0.54-5.5,1.18-8.1,2.33c-3.57,1.57-6.75,4.27-9.5,7.2c-2.4,2.56-4.74,5.67-5.26,8.93&#10;&#9;&#9;&#9;c-0.21,1.35-0.17,2.66,0.18,3.8c-0.11-0.06-0.21-0.13-0.31-0.2c-7.82-7.77,2.16-18.84,2.16-18.84&#10;&#9;&#9;&#9;C111.27,157.05,112.72,155.91,114.32,155.04z" style="fill: url('#SVGID_24_');"/>
		<radialGradient id="SVGID_25_" cx="121.0368" cy="167.7443" r="12.9027" gradientUnits="userSpaceOnUse">
			<stop offset="0" style="stop-color:#FFE47B"/>
			<stop offset="1" style="stop-color:#FCC35A"/>
		</radialGradient>
		<path class="st42" d="M130.88,171.51c2.95-5.41,2.24-11.29,2.67-16.66c0.06-0.77-1.34-0.16-1.93-0.04&#10;&#9;&#9;&#9;c-0.3,0.06-0.61,0.13-0.92,0.2c-0.53,2.72-1.16,5.5-2.29,8.1c-1.56,3.57-4.25,6.77-7.17,9.52c-2.55,2.41-5.65,4.76-8.92,5.29&#10;&#9;&#9;&#9;c-1.34,0.22-2.66,0.18-3.81-0.16c0.06,0.11,0.13,0.21,0.2,0.31c7.82,7.77,18.85-2.24,18.85-2.24&#10;&#9;&#9;&#9;C128.88,174.56,130.01,173.1,130.88,171.51z" style="fill: url('#SVGID_25_');"/>
	</g>
	<g id="flower_1_">
		<path class="st17" d="M149.51,190.38c-1.93,0.31-3.69,1.24-5.38,2.38c-1.55,1.05-3.02,2.3-3.92,3.87&#10;&#9;&#9;&#9;c-0.55,0.95-0.75,2.04-0.54,2.96c0.8,0.5,1.9,0.65,2.98,0.44c1.78-0.35,3.43-1.34,4.93-2.47c1.63-1.23,3.08-2.6,3.98-4.32&#10;&#9;&#9;&#9;c0.44-0.84,0.8-1.7,1.14-2.56c0.08-0.2,0.16-0.4,0.24-0.6c-0.21,0.01-0.43,0.02-0.64,0.04&#10;&#9;&#9;&#9;C151.38,190.17,150.45,190.23,149.51,190.38z" style="fill: rgb(255, 228, 123);"/>
		
			<radialGradient id="SVGID_26_" cx="145.0685" cy="192.4905" r="6.6347" gradientTransform="matrix(0.9864 0.1646 -0.1646 0.9864 34.3204 -19.7987)" gradientUnits="userSpaceOnUse">
			<stop offset="0" style="stop-color:#FFE47B"/>
			<stop offset="1" style="stop-color:#FCC35A"/>
		</radialGradient>
		<path class="st43" d="M144.63,188.65c2.99-1.05,5.92-0.21,8.68,0.02c0.39,0.03-0.03,0.69-0.14,0.98c-0.06,0.15-0.12,0.3-0.18,0.45&#10;&#9;&#9;&#9;c-1.43,0.04-2.89,0.13-4.3,0.49c-1.94,0.5-3.79,1.6-5.42,2.85c-1.43,1.1-2.88,2.47-3.42,4.08c-0.22,0.66-0.31,1.33-0.23,1.94&#10;&#9;&#9;&#9;c-0.05-0.04-0.09-0.08-0.14-0.13c-3.31-4.6,2.69-9.37,2.69-9.37C142.92,189.41,143.75,188.96,144.63,188.65z" style="fill: url('#SVGID_26_');"/>
		
			<radialGradient id="SVGID_27_" cx="146.5717" cy="193.98" r="6.6315" gradientTransform="matrix(0.9864 0.1646 -0.1646 0.9864 34.3204 -19.7987)" gradientUnits="userSpaceOnUse">
			<stop offset="0" style="stop-color:#FFE47B"/>
			<stop offset="1" style="stop-color:#FCC35A"/>
		</radialGradient>
		<path class="st44" d="M151.64,198.4c1.96-2.49,2.09-5.53,2.76-8.22c0.1-0.38-0.67-0.19-0.97-0.18c-0.16,0.01-0.32,0.01-0.48,0.02&#10;&#9;&#9;&#9;c-0.5,1.34-1.05,2.69-1.85,3.91c-1.09,1.68-2.73,3.07-4.44,4.22c-1.5,1-3.27,1.94-4.97,1.93c-0.7,0-1.36-0.13-1.92-0.4&#10;&#9;&#9;&#9;c0.02,0.06,0.05,0.12,0.08,0.17c3.31,4.6,9.75,0.46,9.75,0.46C150.37,199.78,151.06,199.13,151.64,198.4z" style="fill: url('#SVGID_27_');"/>
	</g>
	<path class="st23" d="M73.08,182.02c0.87,4.34,1.54,8.71,2.14,13.09c0.56,4.39,1.02,8.79,1.42,13.2c0.36,4.41,0.87,8.82,0.83,13.25&#10;&#9;&#9;c0,4.43-0.19,8.86-0.78,13.27h-0.22c-0.32-2.21-0.54-4.41-0.71-6.61c-0.21-2.2-0.32-4.4-0.48-6.6c-0.29-4.39-0.22-8.8-0.39-13.21&#10;&#9;&#9;c-0.18-4.4-0.42-8.8-0.76-13.2c-0.31-4.4-0.68-8.8-1.27-13.17L73.08,182.02z" style="fill: rgb(23, 85, 41);"/>
	<path class="st23" d="M108.8,178.15c-1.7,1.82-3.12,3.91-4.4,6.05c-1.3,2.13-2.39,4.39-3.41,6.66c-2.04,4.56-3.52,9.34-4.68,14.18&#10;&#9;&#9;l-0.8,3.65l-0.58,3.69l-0.32,1.84l-0.23,1.85l-0.53,3.7c-0.23,1.23-0.3,2.47-0.46,3.71c-0.16,1.24-0.3,2.48-0.49,3.72&#10;&#9;&#9;c-0.22,2.49-0.49,4.99-0.86,7.5h-0.22c-0.23-2.52-0.4-5.05-0.46-7.58c0.06-2.53,0.1-5.07,0.31-7.6c0.33-2.52,0.52-5.05,1.12-7.53&#10;&#9;&#9;l0.82-3.72l1-3.68c1.4-4.88,3.12-9.67,5.39-14.21c1.18-2.25,2.41-4.46,3.85-6.55c1.42-2.09,2.96-4.11,4.8-5.86L108.8,178.15z" style="fill: rgb(23, 85, 41);"/>
	<path class="st23" d="M140.13,199.6c-3.59,1.51-6.88,3.67-9.91,6.08c-3.04,2.4-5.84,5.1-8.29,8.07c-0.63,0.73-1.17,1.53-1.76,2.29&#10;&#9;&#9;l-0.86,1.16c-0.27,0.4-0.52,0.81-0.78,1.21l-1.6,2.4c-0.49,0.83-0.99,1.64-1.51,2.46l-0.79,1.21c-0.26,0.41-0.47,0.84-0.71,1.26&#10;&#9;&#9;c-0.49,0.83-0.95,1.68-1.46,2.51c-0.52,0.82-0.9,1.71-1.38,2.57c-0.49,0.85-0.94,1.72-1.46,2.57l-0.21-0.07&#10;&#9;&#9;c0.48-1.91,0.94-3.85,1.65-5.71c0.76-1.83,1.45-3.71,2.46-5.43c0.48-0.87,0.97-1.74,1.48-2.59l1.75-2.43&#10;&#9;&#9;c0.3-0.4,0.59-0.8,0.91-1.19l0.98-1.13c0.66-0.75,1.27-1.53,1.97-2.24c2.7-2.92,5.72-5.52,8.96-7.8c3.27-2.22,6.75-4.15,10.49-5.4&#10;&#9;&#9;L140.13,199.6z" style="fill: rgb(23, 85, 41);"/>
	<path class="st23" d="M179.15,175.71c-1.03,5.75-2.56,11.4-4.38,16.96c-1.88,5.54-4.13,10.97-6.74,16.23&#10;&#9;&#9;c-2.63,5.25-5.63,10.38-9.41,14.94l-2.98,3.29c-0.49,0.56-1.03,1.06-1.58,1.55l-1.65,1.48c-2.11,2.06-4.69,3.6-7.11,5.22l-0.15-0.2&#10;&#9;&#9;c4.17-4.12,8.1-8.27,11.55-12.88c0.47-0.54,0.86-1.15,1.28-1.73l1.26-1.75l1.29-1.72l1.19-1.8c0.79-1.2,1.64-2.37,2.39-3.6&#10;&#9;&#9;l2.19-3.73c2.79-5.06,5.23-10.32,7.32-15.73c2.11-5.4,3.95-10.93,5.3-16.59L179.15,175.71z" style="fill: rgb(23, 85, 41);"/>
	<linearGradient id="SVGID_28_" gradientUnits="userSpaceOnUse" x1="142.6316" y1="206.0035" x2="168.9153" y2="206.0035">
		<stop offset="0" style="stop-color:#2D9248"/>
		<stop offset="0.0409" style="stop-color:#2B8C45"/>
		<stop offset="0.2052" style="stop-color:#24773A"/>
		<stop offset="0.3776" style="stop-color:#1E6832"/>
		<stop offset="0.5595" style="stop-color:#1A5D2D"/>
		<stop offset="0.7572" style="stop-color:#18572A"/>
		<stop offset="1" style="stop-color:#175529"/>
	</linearGradient>
	<path class="st45" d="M142.92,234.79c1.4-3.14,2.49-6.05,3.53-8.8c1.32-3.55,2.53-6.81,4.21-9.92c2.29-4.27,4.71-8.13,7.01-11.77&#10;&#9;&#9;c3.79-6.01,7.17-11.38,8.89-16.91c-1.55,6.3-5.2,12.63-9.36,19.89c-1.62,2.84-3.33,5.78-5.01,8.94c-1.55,2.89-2.88,5.88-4.26,9.04&#10;&#9;&#9;c-1.31,2.99-2.7,6.14-4.42,9.52h0.36c1.74-3.43,3.15-6.62,4.48-9.65c1.37-3.14,2.68-6.1,4.2-8.95c1.68-3.14,3.39-6.08,4.98-8.87&#10;&#9;&#9;c4.22-7.36,7.9-13.76,9.49-20.13c-1.43,7.84-5.84,16-11.12,25.78c-0.61,1.13-1.22,2.26-1.81,3.38c-1.2,2.25-2.35,4.54-3.53,6.9&#10;&#9;&#9;c-1.8,3.62-3.7,7.45-6.05,11.54h0.36c0.06-0.11,0.13-0.22,0.19-0.33c0.37-0.64,0.73-1.28,1.07-1.91c0.13-0.25,0.27-0.49,0.4-0.74&#10;&#9;&#9;c0.23-0.42,0.45-0.84,0.67-1.25c0.26-0.49,0.52-0.98,0.77-1.47c0.15-0.28,0.29-0.56,0.44-0.84c0.89-1.73,1.74-3.42,2.55-5.07&#10;&#9;&#9;c1.16-2.38,2.31-4.67,3.5-6.88c0.61-1.16,1.2-2.24,1.78-3.33c5.32-9.85,9.76-18.08,11.25-26.05c-0.34,2.8-1,5.64-1.98,8.65&#10;&#9;&#9;c-2.04,6.33-5.42,13.18-9.55,20.9c-0.16,0.32-0.52,0.99-0.91,1.72c-0.34,0.64-0.69,1.28-1.03,1.92c-0.04,0.07-0.08,0.15-0.12,0.22&#10;&#9;&#9;c-0.28,0.51-0.55,1.03-0.83,1.55c-0.12,0.22-0.24,0.44-0.36,0.67c-0.21,0.38-0.42,0.76-0.63,1.15c-0.16,0.29-0.31,0.57-0.47,0.86&#10;&#9;&#9;c-0.22,0.4-0.45,0.81-0.68,1.22c-0.28,0.5-0.56,1-0.85,1.51c-0.17,0.29-0.33,0.59-0.5,0.88c-0.2,0.35-0.4,0.69-0.6,1.04&#10;&#9;&#9;c-0.19,0.33-0.39,0.66-0.58,0.99c-0.19,0.31-0.37,0.62-0.56,0.94c-0.35,0.57-0.7,1.15-1.06,1.73c-0.04,0.07-0.09,0.14-0.13,0.21&#10;&#9;&#9;c-0.36,0.57-0.73,1.15-1.1,1.73h0.37c1.35-2.11,2.6-4.17,3.76-6.17c0-0.01,0.01-0.02,0.02-0.02c0.03-0.04,0.05-0.09,0.08-0.13&#10;&#9;&#9;c1-1.73,1.94-3.41,2.84-5.06c0.04-0.07,0.08-0.15,0.12-0.22c0.35-0.65,0.7-1.29,1.05-1.93c0.56-1.04,1.11-2.07,1.65-3.09&#10;&#9;&#9;c0.23-0.43,0.48-0.89,0.94-1.73c4.16-7.76,7.55-14.67,9.62-21.1c0.94-2.93,1.62-5.77,1.96-8.54c-0.13,2.76-0.62,5.65-1.36,8.64&#10;&#9;&#9;c-1.6,6.42-4.58,13.46-8.69,21.13c-2.75,5.14-5.92,10.48-9.8,16.13c-0.48,0.7-0.99,1.41-1.49,2.12h0.37&#10;&#9;&#9;c0.47-0.66,0.94-1.33,1.39-1.98c3.93-5.72,7.14-11.13,9.89-16.27c4.16-7.76,7.16-14.88,8.82-21.4c0.72-2.94,1.19-5.74,1.34-8.44&#10;&#9;&#9;c0.02,0.09,0,0.21,0.01,0.33c0.02,8.55-2.73,18.62-8.64,29.63c-2.81,5.26-6.38,10.68-10.66,16.34c-0.45,0.59-0.93,1.19-1.39,1.79&#10;&#9;&#9;h0.38c0.42-0.53,0.83-1.06,1.24-1.6c4.34-5.72,7.97-11.24,10.81-16.54c5.98-11.2,8.76-21.37,8.73-30.04&#10;&#9;&#9;c0.01-1.69-0.11-3.3-0.31-4.88c-0.17-1.21-0.39-2.42-0.69-3.57c-0.54-2.18-0.71-0.05-0.66,0.7c0.09,1.61,0,3.17-0.23,4.7&#10;&#9;&#9;c-0.01,0.1-0.03,0.19-0.04,0.29c-0.07,0.44-0.15,0.88-0.25,1.31c-0.01,0.06-0.03,0.12-0.04,0.19c-0.35,1.54-0.83,3.06-1.43,4.57&#10;&#9;&#9;c-0.01,0.03-0.03,0.06-0.04,0.09c-0.19,0.48-0.39,0.96-0.61,1.44c-0.01,0.03-0.02,0.05-0.04,0.08c-1.83,4.1-4.42,8.21-7.24,12.69&#10;&#9;&#9;c-2.3,3.68-4.75,7.56-7.08,11.89c-1.71,3.18-2.92,6.48-4.27,10.07c-1.02,2.74-2.04,5.57-3.36,8.61H142.92z" style="fill: url('#SVGID_28_');"/>
	<linearGradient id="SVGID_29_" gradientUnits="userSpaceOnUse" x1="91.0584" y1="215.7315" x2="109.8989" y2="215.7315">
		<stop offset="0" style="stop-color:#2D9248"/>
		<stop offset="0.0409" style="stop-color:#2B8C45"/>
		<stop offset="0.2052" style="stop-color:#24773A"/>
		<stop offset="0.3776" style="stop-color:#1E6832"/>
		<stop offset="0.5595" style="stop-color:#1A5D2D"/>
		<stop offset="0.7572" style="stop-color:#18572A"/>
		<stop offset="1" style="stop-color:#175529"/>
	</linearGradient>
	<path class="st46" d="M95.46,234.79c0.19-0.38,0.4-0.78,0.64-1.25c3.94-7.58,5.24-12.86,6.66-20.67c0.72-3.97,1.67-7.49,3.57-11.16&#10;&#9;&#9;c0.71-1.38,1.7-2.85,2.87-4.1c0.01,0,0.01-0.01,0.01-0.01c0.38-0.34,1.32-1.44,0.02-0.65c-0.7,0.41-1.38,0.88-2.04,1.38&#10;&#9;&#9;c-0.85,0.66-1.68,1.37-2.49,2.19c-0.07,0.07-0.13,0.14-0.2,0.21c-5.9,5.39-10.4,13.68-12.71,28.69c-0.3,1.95-0.55,3.67-0.73,5.38&#10;&#9;&#9;H95.46z" style="fill: url('#SVGID_29_');"/>
	<linearGradient id="SVGID_30_" gradientUnits="userSpaceOnUse" x1="74.3388" y1="208.0859" x2="99.3841" y2="208.0859">
		<stop offset="0" style="stop-color:#2D9248"/>
		<stop offset="0.0409" style="stop-color:#2B8C45"/>
		<stop offset="0.2052" style="stop-color:#24773A"/>
		<stop offset="0.3776" style="stop-color:#1E6832"/>
		<stop offset="0.5595" style="stop-color:#1A5D2D"/>
		<stop offset="0.7572" style="stop-color:#18572A"/>
		<stop offset="1" style="stop-color:#175529"/>
	</linearGradient>
	<path class="st47" d="M78.87,234.79c0.72-1.7,1.31-2.89,2.37-4.92c5.18-9.97,6.89-16.92,8.76-27.18c0.95-5.22,2.2-9.85,4.69-14.68&#10;&#9;&#9;c0.94-1.82,2.24-3.74,3.77-5.39c0.01-0.01,0.01-0.01,0.02-0.02c0.5-0.45,1.74-1.9,0.02-0.86c-0.92,0.54-1.81,1.16-2.69,1.82&#10;&#9;&#9;c-1.12,0.87-2.22,1.8-3.28,2.88c-0.13,0.12-0.25,0.26-0.37,0.39c-7.7,7.09-13.57,17.98-16.59,37.61&#10;&#9;&#9;c-0.59,3.81-1.06,6.97-1.23,10.35H78.87z" style="fill: url('#SVGID_30_');"/>
	<linearGradient id="SVGID_31_" gradientUnits="userSpaceOnUse" x1="89.2057" y1="200.0268" x2="99.8044" y2="200.0268">
		<stop offset="0" style="stop-color:#2D9248"/>
		<stop offset="0.0409" style="stop-color:#2B8C45"/>
		<stop offset="0.2052" style="stop-color:#24773A"/>
		<stop offset="0.3776" style="stop-color:#1E6832"/>
		<stop offset="0.5595" style="stop-color:#1A5D2D"/>
		<stop offset="0.7572" style="stop-color:#18572A"/>
		<stop offset="1" style="stop-color:#175529"/>
	</linearGradient>
	<path class="st48" d="M89.92,219.27c0.45,3.7,0.55,4.98,0.63,9.7c-0.03,2.19-0.02,3.94-0.19,5.82h1.51&#10;&#9;&#9;c0.01-0.02,0.02-0.04,0.03-0.06c0-0.01,0-0.01,0.01-0.02c0,0,0-0.01,0-0.01c0.86-2.02,1.63-4.12,2.63-7.11&#10;&#9;&#9;c1.26-3.73,2-7.24,2.89-11.57c4.21-20.3,2.43-33.09-2.5-42.83c-0.08-0.17-0.15-0.35-0.22-0.51c-0.64-1.44-1.37-2.76-2.15-4.01&#10;&#9;&#9;c-0.61-0.96-1.26-1.9-1.96-2.76c-1.3-1.64-0.62,0.23-0.29,0.85c0,0.01,0.01,0.01,0.01,0.02c0.9,2.17,1.47,4.53,1.72,6.65&#10;&#9;&#9;c0.67,5.63,0.2,10.62-0.77,16.06C89.36,200.22,88.49,207.63,89.92,219.27z" style="fill: url('#SVGID_31_');"/>
	<linearGradient id="SVGID_32_" gradientUnits="userSpaceOnUse" x1="49.5487" y1="203.8865" x2="75.079" y2="203.8865">
		<stop offset="0" style="stop-color:#2D9248"/>
		<stop offset="0.0409" style="stop-color:#2B8C45"/>
		<stop offset="0.2052" style="stop-color:#24773A"/>
		<stop offset="0.3776" style="stop-color:#1E6832"/>
		<stop offset="0.5595" style="stop-color:#1A5D2D"/>
		<stop offset="0.7572" style="stop-color:#18572A"/>
		<stop offset="1" style="stop-color:#175529"/>
	</linearGradient>
	<path class="st49" d="M50.57,174.61c1.74,2.22,3.16,4.76,4.14,7.13c2.59,6.29,3.67,12.2,4.31,18.8c1.24,12.8,2.62,21.58,7.84,34.25&#10;&#9;&#9;h8.23c-0.09-1.78-0.21-3.62-0.35-5.61c-1.71-24.81-7.89-39-16.74-48.66c-0.14-0.17-0.28-0.35-0.43-0.52&#10;&#9;&#9;c-1.21-1.46-2.47-2.74-3.78-3.94c-1.02-0.92-2.07-1.79-3.16-2.55c-2.04-1.48-0.64,0.46-0.06,1.08&#10;&#9;&#9;C50.56,174.6,50.57,174.61,50.57,174.61z" style="fill: url('#SVGID_32_');"/>
	<path class="st23" d="M44.6,234.58c0.18-1.62,0.28-3.24,0.42-4.86l0.29-4.85c0.2-3.23,0.37-6.47,0.51-9.7&#10;&#9;&#9;c0.3-6.46,0.32-12.93,0.57-19.39c0.29-6.46,0.69-12.92,1.33-19.35c0.32-3.22,0.66-6.43,1.16-9.63c0.5-3.19,1.02-6.4,1.99-9.47&#10;&#9;&#9;l-0.2-0.08c-1.12,3.07-1.79,6.25-2.43,9.44c-0.64,3.19-1.13,6.4-1.6,9.61c-0.86,6.44-1.48,12.9-1.99,19.37l-0.69,9.71&#10;&#9;&#9;c-0.17,3.24-0.3,6.48-0.32,9.73c-0.01,6.49,0.18,12.98,0.75,19.46H44.6z" style="fill: rgb(23, 85, 41);"/>
	<path class="st23" d="M40.18,221.4c0.8,2.51,1.35,5.1,2.02,7.65c0.33,1.28,0.59,2.57,0.9,3.85c0.16,0.63,0.32,1.26,0.48,1.89h2.28&#10;&#9;&#9;c-0.48-2.11-0.98-4.22-1.57-6.3l-1.2-3.82l-0.59-1.91l-0.66-1.89c-1.67-5.07-3.71-10.02-6.07-14.81&#10;&#9;&#9;c-2.45-4.73-5.13-9.43-8.99-13.18l-0.14,0.17c3.58,3.88,5.99,8.7,8.14,13.49C36.93,211.36,38.74,216.33,40.18,221.4z" style="fill: rgb(23, 85, 41);"/>
	<linearGradient id="SVGID_33_" gradientUnits="userSpaceOnUse" x1="22.5839" y1="214.7701" x2="42.7984" y2="214.7701">
		<stop offset="0" style="stop-color:#2D9248"/>
		<stop offset="0.0409" style="stop-color:#2B8C45"/>
		<stop offset="0.2052" style="stop-color:#24773A"/>
		<stop offset="0.3776" style="stop-color:#1E6832"/>
		<stop offset="0.5595" style="stop-color:#1A5D2D"/>
		<stop offset="0.7572" style="stop-color:#18572A"/>
		<stop offset="1" style="stop-color:#175529"/>
	</linearGradient>
	<path class="st50" d="M32.57,234.79H42.8c-2.77-6.76-5.99-11.86-10.49-18.37c-3.02-4.36-5.41-8.52-7.07-13.7&#10;&#9;&#9;c-0.63-1.95-1.06-4.23-1.15-6.48c0-0.01,0-0.02,0-0.03c0.04-0.67-0.11-2.58-0.59-0.62c-0.27,1.03-0.47,2.1-0.61,3.18&#10;&#9;&#9;c-0.18,1.41-0.29,2.84-0.28,4.36c0,0.18,0.01,0.36,0.01,0.54C22.26,212.5,24.74,222.32,32.57,234.79z" style="fill: url('#SVGID_33_');"/>
</g>
<path id="_x3C_Group_x3E__7_" class="st51" d="M335.99,26.46v12.43C223.99,78.28,112,21.88,0,33.12V20.69&#10;&#9;C112,9.46,223.99,65.85,335.99,26.46z" style="opacity: 0.1; fill-rule: evenodd; clip-rule: evenodd; fill: rgb(255, 255, 255);"/>
<path id="_x3C_Group_x3E__8_" class="st51" d="M335.99,99.11v12.43C223.99,150.92,112,94.53,0,105.76V93.34&#10;&#9;C112,82.1,223.99,138.49,335.99,99.11z" style="opacity: 0.1; fill-rule: evenodd; clip-rule: evenodd; fill: rgb(255, 255, 255);"/>
<g id="_x3C_Group_x3E__6_">
	<g>
		<g>
			<path d="M 290.7300109863281 159.5800018310547 L 278.3399963378906 73.8499984741211 L 256.010009765625 73.8499984741211 L 243.8300018310547 159.4600067138672 Z" class="st9" style="fill: rgb(255, 255, 255);"/>
			<path class="st23" d="M274,159.55v-19.54c0-3.71-3.01-6.72-6.72-6.72c-3.71,0-6.72,3.01-6.72,6.72v19.54H274z" style="fill: rgb(23, 85, 41);"/>
		</g>
	</g>
	<g>
		<g>
			<g>
				<path class="st17" d="M262.02,119.93c0-2.9,2.35-5.25,5.25-5.25c2.9,0,5.25,2.35,5.25,5.25c0,2.9-2.35,5.26-5.25,5.26&#10;&#9;&#9;&#9;&#9;&#9;C264.37,125.19,262.02,122.83,262.02,119.93z" style="fill: rgb(255, 228, 123);"/>
				<path class="st52" d="M267.27,125.65c-3.15,0-5.72-2.56-5.72-5.72c0-3.15,2.56-5.72,5.72-5.72c3.15,0,5.72,2.56,5.72,5.72&#10;&#9;&#9;&#9;&#9;&#9;C272.99,123.09,270.42,125.65,267.27,125.65z M267.27,115.14c-2.64,0-4.79,2.15-4.79,4.79c0,2.64,2.15,4.79,4.79,4.79&#10;&#9;&#9;&#9;&#9;&#9;c2.64,0,4.79-2.15,4.79-4.79C272.06,117.29,269.91,115.14,267.27,115.14z" style="fill: rgb(252, 195, 90);"/>
			</g>
		</g>
	</g>
	<path d="M 241.47999572753906 87.3499984741211 L 293.95001220703125 87.3499984741211 L 266.7900085449219 60.380001068115234 Z" class="st3" style="fill: rgb(80, 141, 143);"/>
	<g>
		<g>
			<g>
				<g>
					<path d="M 266.3500061035156 81.41999816894531 L 221.0399932861328 36.15999984741211 L 221.8300018310547 35.369998931884766 L 267.1400146484375 80.62999725341797 Z" class="st53" style="fill: rgb(216, 227, 220);"/>
				</g>
				<g>
					<path class="st53" d="M221.86,126.11l-0.78-0.8l45.27-43.9c0.22-0.21,0.57-0.21,0.79,0.01l0,0c0.21,0.22,0.21,0.57-0.01,0.79&#10;&#9;&#9;&#9;&#9;&#9;&#9;L221.86,126.11z" style="fill: rgb(216, 227, 220);"/>
				</g>
			</g>
			<g>
				<g>
					<g>
						<path class="st23" d="M226.24,131.77l-10.34-10.34l34.64-34.64l10.34,10.34L226.24,131.77z M217.73,121.43l8.52,8.51&#10;&#9;&#9;&#9;&#9;&#9;&#9;&#9;l32.81-32.81l-8.51-8.52L217.73,121.43z" style="fill: rgb(23, 85, 41);"/>
					</g>
					<g>
						
							<path d="M 224.419998 115.93 H 225.709998 V 129.27 H 224.419998 V 115.93 Z" transform="matrix(0.7071 -0.7071 0.7071 0.7071 -20.7765 195.0438)" class="st23" style="fill: rgb(23, 85, 41);"/>
					</g>
					<g>
						
							<path d="M 227.779999 112.580002 H 229.069999 V 125.910002 H 227.779999 V 112.580002 Z" transform="matrix(0.707 -0.7073 0.7073 0.707 -17.4 196.4987)" class="st23" style="fill: rgb(23, 85, 41);"/>
					</g>
					<g>
						
							<path d="M 231.130005 109.230003 H 232.420005 V 122.560003 H 231.130005 V 109.230003 Z" transform="matrix(0.7073 -0.7069 0.7069 0.7073 -14.0868 197.7684)" class="st23" style="fill: rgb(23, 85, 41);"/>
					</g>
					<g>
						
							<path d="M 234.479996 105.870003 H 235.769996 V 119.210003 H 234.479996 V 105.870003 Z" transform="matrix(0.7073 -0.7069 0.7069 0.7073 -10.7311 199.1643)" class="st23" style="fill: rgb(23, 85, 41);"/>
					</g>
					<g>
						
							<path d="M 237.839996 102.519997 H 239.129996 V 115.849997 H 237.839996 V 102.519997 Z" transform="matrix(0.7071 -0.7071 0.7071 0.7071 -7.3582 200.6051)" class="st23" style="fill: rgb(23, 85, 41);"/>
					</g>
					<g>
						
							<path d="M 241.190002 99.160004 H 242.480002 V 112.500004 H 241.190002 V 99.160004 Z" transform="matrix(0.7071 -0.7071 0.7071 0.7071 -4.0012 202.0067)" class="st23" style="fill: rgb(23, 85, 41);"/>
					</g>
					<g>
						
							<path d="M 244.539993 95.809998 H 245.829993 V 109.139997 H 244.539993 V 95.809998 Z" transform="matrix(0.7073 -0.7069 0.7069 0.7073 -0.678 203.3201)" class="st23" style="fill: rgb(23, 85, 41);"/>
					</g>
					<g>
						
							<path d="M 247.899994 92.459999 H 249.189994 V 105.799999 H 247.899994 V 92.459999 Z" transform="matrix(0.7072 -0.707 0.707 0.7072 2.6949 204.7564)" class="st23" style="fill: rgb(23, 85, 41);"/>
					</g>
					<g>
						
							<path d="M 251.25 89.110001 H 252.54 V 102.440001 H 251.25 V 89.110001 Z" transform="matrix(0.7072 -0.707 0.707 0.7072 6.0485 206.15)" class="st23" style="fill: rgb(23, 85, 41);"/>
					</g>
				</g>
				<g>
					<g>
						<path class="st23" d="M250.44,75.12L215.8,40.48l10.34-10.34l34.64,34.64L250.44,75.12z M217.63,40.48l32.81,32.81l8.52-8.51&#10;&#9;&#9;&#9;&#9;&#9;&#9;&#9;l-32.81-32.81L217.63,40.48z" style="fill: rgb(23, 85, 41);"/>
					</g>
					<g>
						
							<path d="M 218.300003 38.66 H 231.640003 V 39.95 H 218.300003 V 38.66 Z" transform="matrix(0.7071 -0.7071 0.7071 0.7071 38.0886 170.5816)" class="st23" style="fill: rgb(23, 85, 41);"/>
					</g>
					<g>
						
							<path d="M 221.660004 42.02 H 235.000004 V 43.31 H 221.660004 V 42.02 Z" transform="matrix(0.7071 -0.7071 0.7071 0.7071 36.7073 173.9476)" class="st23" style="fill: rgb(23, 85, 41);"/>
					</g>
					<g>
						
							<path d="M 225.009995 45.369999 H 238.339994 V 46.659999 H 225.009995 V 45.369999 Z" transform="matrix(0.7071 -0.7071 0.7071 0.7071 35.3202 177.301)" class="st23" style="fill: rgb(23, 85, 41);"/>
					</g>
					<g>
						
							<path d="M 228.369995 48.720001 H 241.709995 V 50.010001 H 228.369995 V 48.720001 Z" transform="matrix(0.7071 -0.7071 0.7071 0.7071 33.9303 180.6547)" class="st23" style="fill: rgb(23, 85, 41);"/>
					</g>
					<g>
						
							<path d="M 231.720001 52.080002 H 245.050001 V 53.370002 H 231.720001 V 52.080002 Z" transform="matrix(0.7071 -0.7071 0.7071 0.7071 32.5416 184.0089)" class="st23" style="fill: rgb(23, 85, 41);"/>
					</g>
					<g>
						
							<path d="M 235.070007 55.43 H 248.410007 V 56.72 H 235.070007 V 55.43 Z" transform="matrix(0.7071 -0.7071 0.7071 0.7071 31.1607 187.3736)" class="st23" style="fill: rgb(23, 85, 41);"/>
					</g>
					<g>
						
							<path d="M 238.429993 58.790001 H 251.759993 V 60.080001 H 238.429993 V 58.790001 Z" transform="matrix(0.7071 -0.7071 0.7071 0.7071 29.7621 190.7159)" class="st23" style="fill: rgb(23, 85, 41);"/>
					</g>
					<g>
						
							<path d="M 241.779999 62.139999 H 255.119999 V 63.429999 H 241.779999 V 62.139999 Z" transform="matrix(0.7071 -0.7071 0.7071 0.7071 28.3718 194.071)" class="st23" style="fill: rgb(23, 85, 41);"/>
					</g>
					<g>
						
							<path d="M 245.139999 65.489998 H 258.469999 V 66.779998 H 245.139999 V 65.489998 Z" transform="matrix(0.7071 -0.7071 0.7071 0.7071 26.9834 197.4227)" class="st23" style="fill: rgb(23, 85, 41);"/>
					</g>
				</g>
			</g>
		</g>
		<g>
			<g>
				<g>
					<path d="M 267.7200012207031 81.41999816894531 L 313.0299987792969 36.15999984741211 L 312.239990234375 35.369998931884766 L 266.92999267578125 80.62999725341797 Z" class="st53" style="fill: rgb(216, 227, 220);"/>
				</g>
				<g>
					<path class="st53" d="M312.21,126.11l0.78-0.8l-45.27-43.9c-0.22-0.21-0.57-0.21-0.79,0.01l0,0c-0.21,0.22-0.21,0.57,0.01,0.79&#10;&#9;&#9;&#9;&#9;&#9;&#9;L312.21,126.11z" style="fill: rgb(216, 227, 220);"/>
				</g>
			</g>
			<g>
				<g>
					<g>
						<path class="st23" d="M273.19,97.13l10.34-10.34l34.64,34.64l-10.34,10.34L273.19,97.13z M283.53,88.62l-8.51,8.52&#10;&#9;&#9;&#9;&#9;&#9;&#9;&#9;l32.81,32.81l8.52-8.51L283.53,88.62z" style="fill: rgb(23, 85, 41);"/>
					</g>
					<g>
						
							<path d="M 302.329987 121.959999 H 315.669987 V 123.249999 H 302.329987 V 121.959999 Z" transform="matrix(0.7071 -0.7071 0.7071 0.7071 3.8168 254.4203)" class="st23" style="fill: rgb(23, 85, 41);"/>
					</g>
					<g>
						
							<path d="M 298.980011 118.599998 H 312.310011 V 119.889998 H 298.980011 V 118.599998 Z" transform="matrix(0.7073 -0.707 0.707 0.7073 5.1723 250.9842)" class="st23" style="fill: rgb(23, 85, 41);"/>
					</g>
					<g>
						
							<path d="M 295.619995 115.25 H 308.949995 V 116.54 H 295.619995 V 115.25 Z" transform="matrix(0.7069 -0.7073 0.7073 0.7069 6.6243 247.7762)" class="st23" style="fill: rgb(23, 85, 41);"/>
					</g>
					<g>
						
							<path d="M 292.269989 111.889999 H 305.609989 V 113.179999 H 292.269989 V 111.889999 Z" transform="matrix(0.7069 -0.7073 0.7073 0.7069 8.0105 244.4126)" class="st23" style="fill: rgb(23, 85, 41);"/>
					</g>
					<g>
						
							<path d="M 288.920013 108.540001 H 302.250013 V 109.830001 H 288.920013 V 108.540001 Z" transform="matrix(0.7071 -0.7071 0.7071 0.7071 9.3726 240.9966)" class="st23" style="fill: rgb(23, 85, 41);"/>
					</g>
					<g>
						
							<path d="M 285.559998 105.190002 H 298.899998 V 106.480002 H 285.559998 V 105.190002 Z" transform="matrix(0.7071 -0.7071 0.7071 0.7071 10.754 237.6294)" class="st23" style="fill: rgb(23, 85, 41);"/>
					</g>
					<g>
						
							<path d="M 282.209991 101.830002 H 295.539991 V 103.120002 H 282.209991 V 101.830002 Z" transform="matrix(0.7069 -0.7073 0.7073 0.7069 12.1844 234.3611)" class="st23" style="fill: rgb(23, 85, 41);"/>
					</g>
					<g>
						
							<path d="M 278.850006 98.480003 H 292.190006 V 99.770003 H 278.850006 V 98.480003 Z" transform="matrix(0.707 -0.7072 0.7072 0.707 13.5485 230.9537)" class="st23" style="fill: rgb(23, 85, 41);"/>
					</g>
					<g>
						
							<path d="M 275.5 95.129997 H 288.83 V 96.419997 H 275.5 V 95.129997 Z" transform="matrix(0.707 -0.7072 0.7072 0.707 14.9341 227.5958)" class="st23" style="fill: rgb(23, 85, 41);"/>
					</g>
				</g>
				<g>
					<g>
						<path class="st23" d="M273.28,64.78l34.64-34.64l10.34,10.34l-34.64,34.64L273.28,64.78z M307.92,31.97l-32.81,32.81&#10;&#9;&#9;&#9;&#9;&#9;&#9;&#9;l8.52,8.51l32.81-32.81L307.92,31.97z" style="fill: rgb(23, 85, 41);"/>
					</g>
					<g>
						
							<path d="M 308.450012 32.639999 H 309.740012 V 45.98 H 308.450012 V 32.639999 Z" transform="matrix(0.7071 -0.7071 0.7071 0.7071 62.7466 230.0906)" class="st23" style="fill: rgb(23, 85, 41);"/>
					</g>
					<g>
						
							<path d="M 305.089996 36 H 306.379996 V 49.34 H 305.089996 V 36 Z" transform="matrix(0.7071 -0.7071 0.7071 0.7071 59.3812 228.686)" class="st23" style="fill: rgb(23, 85, 41);"/>
					</g>
					<g>
						
							<path d="M 301.73999 39.349998 H 303.02999 V 52.679998 H 301.73999 V 39.349998 Z" transform="matrix(0.7071 -0.7071 0.7071 0.7071 56.0282 227.2955)" class="st23" style="fill: rgb(23, 85, 41);"/>
					</g>
					<g>
						
							<path d="M 298.390015 42.700001 H 299.680015 V 56.040001 H 298.390015 V 42.700001 Z" transform="matrix(0.7071 -0.7071 0.7071 0.7071 52.6745 225.907)" class="st23" style="fill: rgb(23, 85, 41);"/>
					</g>
					<g>
						
							<path d="M 295.029999 46.060001 H 296.319999 V 59.390001 H 295.029999 V 46.060001 Z" transform="matrix(0.7071 -0.7071 0.7071 0.7071 49.3207 224.5172)" class="st23" style="fill: rgb(23, 85, 41);"/>
					</g>
					<g>
						
							<path d="M 291.679993 49.41 H 292.969993 V 62.75 H 291.679993 V 49.41 Z" transform="matrix(0.7071 -0.7071 0.7071 0.7071 45.9587 223.1141)" class="st23" style="fill: rgb(23, 85, 41);"/>
					</g>
					<g>
						
							<path d="M 288.320007 52.759998 H 289.610007 V 66.089998 H 288.320007 V 52.759998 Z" transform="matrix(0.7071 -0.7071 0.7071 0.7071 42.6127 221.74)" class="st23" style="fill: rgb(23, 85, 41);"/>
					</g>
					<g>
						
							<path d="M 284.970001 56.119999 H 286.260001 V 69.459999 H 284.970001 V 56.119999 Z" transform="matrix(0.7071 -0.7071 0.7071 0.7071 39.2572 220.3507)" class="st23" style="fill: rgb(23, 85, 41);"/>
					</g>
					<g>
						
							<path d="M 281.619995 59.470001 H 282.909995 V 72.800001 H 281.619995 V 59.470001 Z" transform="matrix(0.7071 -0.7071 0.7071 0.7071 35.9054 218.9624)" class="st23" style="fill: rgb(23, 85, 41);"/>
					</g>
				</g>
			</g>
		</g>
		<path class="st23" d="M264.02,81.58c0-1.71,1.39-3.11,3.11-3.11c1.71,0,3.11,1.39,3.11,3.11c0,1.71-1.39,3.11-3.11,3.11&#10;&#9;&#9;&#9;C265.41,84.69,264.02,83.3,264.02,81.58z" style="fill: rgb(23, 85, 41);"/>
	</g>
</g>
<g id="_x3C_Group_x3E_">
	<path class="st54" d="M226.11,65.87c-1.67-0.11-2.46-0.69-3.85-0.96c-1.56-0.31-2.81,0.38-3.7,0.74c-0.2-0.27-0.48-0.44-0.79-0.44&#10;&#9;&#9;c-0.3,0-0.58,0.15-0.78,0.41c-0.89-0.37-2.16-1.13-3.78-0.84c-1.39,0.25-2.19,0.81-3.86,0.89c-0.19,0.01-0.35,0.01-0.35,0.01&#10;&#9;&#9;s0.16,0.04,0.35,0.07c0.59,0.1,1.15,0.14,1.8,0.11c0.68-0.03,1.35-0.14,2.06-0.1c0.83,0.05,1.4,0.29,1.84,0.52&#10;&#9;&#9;c0.71,0.35,1.24,0.75,1.82,1.13c0.28,0.12,1.05,0.37,1.87-0.03c0.53-0.34,1.02-0.68,1.67-0.99c0.44-0.22,1.01-0.45,1.85-0.49&#10;&#9;&#9;c0.71-0.03,1.37,0.1,2.06,0.14c0.65,0.04,1.21,0.01,1.8-0.08c0.19-0.03,0.35-0.06,0.35-0.06S226.3,65.88,226.11,65.87z" style="fill-rule: evenodd; clip-rule: evenodd; fill: rgb(11, 46, 39);"/>
	<path class="st54" d="M85.72,30.01c-0.79-0.05-1.16-0.32-1.81-0.45c-0.74-0.14-1.32,0.18-1.74,0.35c-0.09-0.13-0.22-0.21-0.37-0.21&#10;&#9;&#9;c-0.14,0-0.27,0.07-0.37,0.19c-0.42-0.17-1.02-0.53-1.78-0.4c-0.65,0.12-1.03,0.38-1.82,0.42c-0.09,0-0.17,0.01-0.17,0.01&#10;&#9;&#9;s0.07,0.02,0.17,0.03c0.28,0.05,0.54,0.06,0.85,0.05c0.32-0.01,0.63-0.07,0.97-0.05c0.39,0.02,0.66,0.14,0.87,0.24&#10;&#9;&#9;c0.33,0.17,0.58,0.35,0.86,0.53c0.13,0.06,0.49,0.17,0.88-0.02c0.25-0.16,0.48-0.32,0.78-0.47c0.21-0.1,0.48-0.21,0.87-0.23&#10;&#9;&#9;c0.34-0.01,0.65,0.05,0.97,0.07c0.31,0.02,0.57,0,0.85-0.04c0.09-0.01,0.17-0.03,0.17-0.03S85.81,30.02,85.72,30.01z" style="fill-rule: evenodd; clip-rule: evenodd; fill: rgb(11, 46, 39);"/>
	<path class="st54" d="M265.83,25.22c-1.67-0.11-2.46-0.69-3.85-0.96c-1.56-0.31-2.81,0.38-3.7,0.74c-0.2-0.27-0.48-0.44-0.79-0.44&#10;&#9;&#9;c-0.3,0-0.58,0.15-0.78,0.41c-0.89-0.37-2.16-1.13-3.78-0.84c-1.39,0.25-2.19,0.81-3.86,0.89c-0.19,0.01-0.35,0.01-0.35,0.01&#10;&#9;&#9;s0.16,0.04,0.35,0.07c0.6,0.1,1.15,0.14,1.8,0.11c0.69-0.03,1.35-0.14,2.06-0.1c0.83,0.05,1.4,0.29,1.84,0.52&#10;&#9;&#9;c0.71,0.35,1.24,0.75,1.82,1.13c0.28,0.12,1.05,0.37,1.87-0.03c0.53-0.34,1.02-0.68,1.67-0.99c0.44-0.21,1.01-0.45,1.85-0.49&#10;&#9;&#9;c0.71-0.02,1.37,0.1,2.06,0.14c0.65,0.04,1.21,0.01,1.8-0.08c0.19-0.03,0.35-0.06,0.35-0.06S266.02,25.24,265.83,25.22z" style="fill-rule: evenodd; clip-rule: evenodd; fill: rgb(11, 46, 39);"/>
	<path class="st54" d="M86.04,73.59c-1.67-0.11-2.46-0.69-3.85-0.96c-1.56-0.31-2.81,0.38-3.7,0.74c-0.2-0.27-0.48-0.44-0.79-0.44&#10;&#9;&#9;c-0.3,0-0.58,0.15-0.78,0.41c-0.88-0.37-2.16-1.13-3.78-0.84c-1.39,0.25-2.19,0.81-3.86,0.89c-0.19,0.01-0.35,0.01-0.35,0.01&#10;&#9;&#9;s0.16,0.04,0.35,0.07c0.6,0.1,1.15,0.14,1.8,0.11c0.69-0.03,1.35-0.14,2.06-0.1c0.83,0.05,1.4,0.29,1.84,0.52&#10;&#9;&#9;c0.71,0.35,1.24,0.75,1.82,1.13c0.28,0.12,1.05,0.37,1.87-0.03c0.53-0.34,1.02-0.68,1.67-0.99c0.44-0.22,1.02-0.45,1.85-0.49&#10;&#9;&#9;c0.71-0.03,1.37,0.1,2.06,0.14c0.65,0.04,1.21,0.01,1.8-0.08c0.19-0.03,0.35-0.06,0.35-0.06S86.24,73.6,86.04,73.59z" style="fill-rule: evenodd; clip-rule: evenodd; fill: rgb(11, 46, 39);"/>
	<path class="st54" d="M73.94,67.43c-2.27-0.16-3.34-0.93-5.23-1.31c-2.12-0.41-3.82,0.51-5.02,1c-0.27-0.37-0.65-0.6-1.07-0.6&#10;&#9;&#9;c-0.41,0-0.79,0.21-1.06,0.55c-1.2-0.5-2.93-1.53-5.14-1.14c-1.89,0.34-2.97,1.09-5.24,1.21c-0.26,0.01-0.48,0.02-0.48,0.02&#10;&#9;&#9;s0.22,0.05,0.48,0.1c0.81,0.13,1.56,0.19,2.44,0.15c0.93-0.04,1.83-0.19,2.79-0.14c1.13,0.07,1.9,0.4,2.5,0.7&#10;&#9;&#9;c0.96,0.48,1.68,1.02,2.47,1.54c0.38,0.16,1.43,0.5,2.54-0.04c0.71-0.46,1.39-0.92,2.26-1.34c0.6-0.29,1.38-0.61,2.51-0.66&#10;&#9;&#9;c0.97-0.03,1.86,0.14,2.79,0.19c0.89,0.06,1.64,0.01,2.44-0.11c0.26-0.04,0.48-0.08,0.48-0.08S74.2,67.45,73.94,67.43z" style="fill-rule: evenodd; clip-rule: evenodd; fill: rgb(11, 46, 39);"/>
	<path class="st54" d="M39.3,51.19c-1.32-0.09-1.94-0.54-3.04-0.76c-1.23-0.24-2.22,0.3-2.92,0.58c-0.16-0.21-0.38-0.35-0.62-0.35&#10;&#9;&#9;c-0.24,0-0.46,0.12-0.61,0.32c-0.7-0.29-1.7-0.89-2.98-0.66c-1.1,0.2-1.73,0.64-3.05,0.7c-0.15,0.01-0.28,0.01-0.28,0.01&#10;&#9;&#9;s0.13,0.03,0.28,0.06c0.47,0.08,0.91,0.11,1.42,0.09c0.54-0.02,1.06-0.11,1.62-0.08c0.66,0.04,1.11,0.23,1.45,0.41&#10;&#9;&#9;c0.56,0.28,0.98,0.59,1.44,0.89c0.22,0.09,0.83,0.29,1.48-0.03c0.41-0.27,0.81-0.54,1.31-0.78c0.35-0.17,0.8-0.35,1.46-0.38&#10;&#9;&#9;c0.56-0.02,1.08,0.08,1.62,0.11c0.52,0.03,0.95,0,1.42-0.06c0.15-0.02,0.28-0.05,0.28-0.05S39.46,51.2,39.3,51.19z" style="fill-rule: evenodd; clip-rule: evenodd; fill: rgb(11, 46, 39);"/>
</g>
<path id="_x3C_Group_x3E__2_" class="st23" d="M336.13,228.73c-0.02,0.02-0.04,0.05-0.06,0.07c-0.2,0.23-0.4,0.47-0.63,0.74&#10;&#9;c-1.01,1.25-1.96,2.44-2.22,3.76c0.1-0.82,0.25-1.62,0.4-2.43c0.26-1.38,0.53-2.81,0.47-4.36c-0.07-1.78-0.55-7.52-0.82-9.08&#10;&#9;c0.04,4.41-0.11,5.86-1.68,9.94c-0.83,2.16-1.98,3.96-3.61,5.65c0.19-1.32,1.51-6.06,2.15-8.33c0.28-1.01,0.37-1.33,0.36-1.33&#10;&#9;c-0.39,0.73-0.98,1.54-1.61,2.43c-1.2,1.67-2.56,3.57-2.67,5.23c0.06-0.98,0.05-1.68,0.04-2.37c-0.01-1.05-0.03-1.95,0.24-3.58&#10;&#9;c0.82-4.91,3.28-8.7,5.09-9.4c0,0,0.03-0.05,0.03-0.05c0,0-0.06-0.02-0.06-0.02c-1.93,0.75-5.94,4.13-7.4,6.57&#10;&#9;c-1.49,2.48-1.59,2.81-2.35,5.42c-1.13-3.33-1.27-4.62-1.42-5.99l-0.01-0.07c-0.04-0.33-0.07-0.67-0.12-1.04&#10;&#9;c-0.5-3.54,0.25-6.04,1.21-8.72l0.12-0.4c-0.76,1.69-1.4,2.77-1.98,3.74c-0.98,1.66-1.69,2.85-2.09,6.01&#10;&#9;c0.48-4.19-1.7-10.21-3.62-15.52c-0.67-1.85-1.3-3.59-1.84-5.06c2.24,11.11,1.95,13.56,0.89,22.69l-0.11,1.74&#10;&#9;c-0.19-3.96-1.11-7.67-2-11.26l-0.06-0.25c-0.49-1.97-0.94-3.84-1.33-5.62c0.08,1.61,0.16,2.84,0.22,3.92l0.01,0.11&#10;&#9;c0.11,1.74,0.2,3.11,0.22,5.09c0,0.37,0.01,0.72,0.02,1.07c0.02,1.02,0.04,1.97-0.08,2.92c-0.17-2.99-0.32-5.45-0.33-5.49&#10;&#9;c-1.13,8.38-3.81,11.83-4.06,12.7c-0.72-1.15-0.59-1.98-0.35-3.65c0.3-2.02,0.75-5.07,0.01-11.16c-0.11,1.42-1,4.25-1.86,6.98&#10;&#9;c-0.98,3.09-1.98,6.29-1.91,7.6c-0.35-1.12,0.11-4.38,0.42-6.54c0.03-0.18,0.03-0.18,0.01-0.31c-0.14-0.96-0.27-3.69-0.39-8.1&#10;&#9;c-0.06,0.21-0.09,0.26-0.12,0.26c0,0,0,0,0,0c-0.11-0.1-0.02-1.86,0.06-3.56c0.08-1.65,0.16-3.21,0.05-3.3&#10;&#9;c-0.02,0-0.04,0.02-0.1,0.23l-0.02,0.06c-1.06,4.1-1.98,7.64-2.93,10.87c-1.12,3.81-1.13,6.85-1.14,9.08c0,1.02-0.01,1.83-0.02,2.44&#10;&#9;c-0.68-1.06-1.12-3.72-0.55-7.26c-0.24,0.73-0.48,1.41-0.76,2.16c-0.74,2-1.43,3.88-1.32,6.17c-0.05-0.64-0.11-1.29-0.17-1.94&#10;&#9;c-0.04-0.41-0.09-0.81-0.14-1.21c-0.34-2.76-0.66-5.36,3.21-10.01c-0.82,0.72-1.51,1.24-2.12,1.7c-1.15,0.86-2.06,1.54-3.22,3.06&#10;&#9;l-0.05,0.07c-1.66,2.17-2.62,3.69-2.85,4.54c0.15-1.25,0.28-2.07,0.39-2.8c0.19-1.19,0.35-2.13,0.43-4.23&#10;&#9;c0.16-3.52-0.97-6.86-1.07-6.88c0.95,5.99-0.57,11.74-4.28,16.18c0.42-1.84,0.12-3.59-0.18-5.29c-0.16-0.94-0.31-1.81-0.4-2.67&#10;&#9;c0,0,0.05-0.04,0.05-0.04c0-0.09,0-0.2-0.11-0.3l0.01,0.3c0.02,2.07-0.8,3.83-1.6,5.57c-0.47,1.02-0.96,2.08-1.17,3.2&#10;&#9;c0.11-0.95,0.28-2.04,0.45-3.09c0.25-1.61,0.54-3.45,0.76-5.58c0.33-3.2,0.17-5.15-0.05-6.72c-0.03,0-0.05,0.04-0.05,0.07&#10;&#9;c0.03,1.99,0.09,5.31-2.73,9.37c-1.38,1.98-2.71,4.37-3.08,8.45c0.06-0.75-0.04-1.97-0.14-3.27c-0.17-2.12-0.36-4.52-0.04-5.79&#10;&#9;c-0.02,0.05-0.43,0.92-0.65,1.38c-0.7,1.43-1.42,2.91-1.56,4.59c0.08-0.99,0.11-1.25,0.17-1.85c0.04-0.38,0.1-0.91,0.19-1.86&#10;&#9;c0.26-2.51,1.5-5.47,3.38-6.29c-1.77,0.54-3.49,2.2-5.12,4.92c-1.04,1.73-1.51,3.84-1.96,5.88c-0.22,0.99-0.41,1.87-0.57,2.72&#10;&#9;c0.06-1.1,0.18-1.91,0.28-2.55c0.15-1,0.27-1.79,0.07-2.88c-0.26-1.43-0.78-2.82-1.4-4.45c-0.19-0.5-0.38-1.01-0.68-1.55&#10;&#9;c0.04,5.73-0.89,7.55-1.8,9.31c-0.54,1.05-1.05,2.05-1.26,3.83c0.68-6.15-0.48-12.29-3.19-16.86c1,4.98,0.34,11.1-0.54,14.82&#10;&#9;c0.4-1.76-2.59-7.47-4.11-9.68c0.92,2.96,1,8.34-0.29,10.55c-0.55-0.54-0.63-0.48-1.23-2.2c-0.26-0.72-0.39-2.66-0.86-6.35&#10;&#9;c-0.47,1.07-1.2,4.32-1.58,5.43l-0.03,0.08c-0.25,0.72-0.53,1.53-0.74,2.29c-1.61-2.59-1.55-6.45,0.16-12.53&#10;&#9;c-0.58,1.51-1.24,2.81-1.89,4.07c-1.35,2.64-2.52,4.92-2.38,8.24c-0.46-1.44-0.34-3.86-0.26-5.5c0.02-0.44,0-0.96-0.03-1.5l0-0.08&#10;&#9;c-0.06-1.44-0.14-3.06,0.41-4.08c-1.18,1.8-2.3,4-3.24,6.36c-0.53,1.35-0.71,2.77-0.88,4.13c-0.07,0.56-0.15,1.19-0.16,1.79&#10;&#9;c-1.69-4.53-0.08-8.51,0.45-9.82l-0.02-0.2c-2.27,3.61-3.18,8.17-3.07,11.09c-0.05-0.64-0.11-1.29-0.17-1.94&#10;&#9;c-0.29-3.2-0.58-6.52,0.04-9.82c0.47-2.47,1.86-7.01,5.91-9.69c-1.64,0.72-3.59,2.27-4.67,3.43c-1.49,1.61-1.99,2.49-2.69,3.71&#10;&#9;l-0.39,0.68c-1.23,2.1-1.63,2.95-2.28,5.33c-0.18,0.64-0.29,1.13-0.39,1.63c-0.16,0.74-0.33,1.51-0.69,2.87&#10;&#9;c-0.01-0.51-0.01-0.98-0.02-1.42c-0.03-3.1-0.05-4.52-2.06-7.16c2.41,3.35-0.54,8.56-2.44,10.85c0.16-0.71,0.35-1.39,0.53-2.05&#10;&#9;l0.03-0.1c0.54-1.99,1.05-3.86,0.85-6.14c-0.34,2.67-0.98,3.42-1.95,4.55c-0.2,0.23-0.4,0.47-0.63,0.74&#10;&#9;c-1.01,1.25-1.96,2.44-2.22,3.76c0.1-0.82,0.25-1.62,0.4-2.43c0.26-1.38,0.53-2.81,0.47-4.36c-0.07-1.78-0.55-7.52-0.82-9.08&#10;&#9;c0.04,4.41-0.11,5.86-1.68,9.94c-0.83,2.16-1.98,3.96-3.61,5.65c0.19-1.32,1.51-6.06,2.15-8.33c0.28-1.01,0.37-1.33,0.36-1.33&#10;&#9;c-0.39,0.73-0.98,1.54-1.61,2.43c-1.2,1.67-2.56,3.57-2.67,5.23c0.06-0.98,0.05-1.68,0.04-2.37c-0.01-1.05-0.03-1.95,0.24-3.58&#10;&#9;c0.82-4.91,3.28-8.7,5.09-9.4c0,0,0.03-0.05,0.03-0.05c0,0-0.06-0.02-0.06-0.02c-1.93,0.75-5.94,4.13-7.4,6.57&#10;&#9;c-1.49,2.48-1.59,2.81-2.35,5.42c-1.13-3.33-1.27-4.62-1.42-5.99l-0.01-0.07c-0.04-0.33-0.07-0.67-0.12-1.04&#10;&#9;c-0.5-3.54,0.25-6.04,1.21-8.72l0.12-0.4c-0.76,1.69-1.4,2.77-1.98,3.74c-0.98,1.66-1.69,2.85-2.09,6.01&#10;&#9;c0.48-4.19-1.7-10.21-3.62-15.52c-0.67-1.85-1.3-3.59-1.84-5.06c2.24,11.11,1.95,13.56,0.89,22.69l-0.11,1.74&#10;&#9;c-0.19-3.96-1.11-7.67-2-11.26l-0.06-0.25c-0.49-1.97-0.94-3.84-1.33-5.62c0.08,1.61,0.16,2.84,0.22,3.92l0.01,0.11&#10;&#9;c0.11,1.74,0.2,3.11,0.22,5.09c0,0.37,0.01,0.72,0.02,1.07c0.02,1.02,0.04,1.98-0.08,2.92c-0.17-2.99-0.32-5.45-0.33-5.49&#10;&#9;c-1.13,8.38-3.81,11.83-4.06,12.7c-0.72-1.15-0.59-1.98-0.35-3.65c0.3-2.02,0.75-5.07,0.01-11.16c-0.11,1.42-1,4.25-1.86,6.98&#10;&#9;c-0.98,3.09-1.98,6.29-1.91,7.6c-0.35-1.12,0.11-4.38,0.42-6.54c0.03-0.18,0.03-0.18,0.01-0.31c-0.14-0.96-0.27-3.69-0.39-8.1&#10;&#9;c-0.06,0.21-0.09,0.26-0.12,0.26c0,0,0,0,0,0c-0.11-0.1-0.02-1.86,0.06-3.56c0.08-1.65,0.16-3.21,0.05-3.3&#10;&#9;c-0.02,0-0.04,0.02-0.1,0.23l-0.02,0.06c-1.06,4.1-1.98,7.64-2.93,10.87c-1.12,3.81-1.13,6.85-1.14,9.08c0,1.02-0.01,1.83-0.02,2.44&#10;&#9;c-0.68-1.06-1.12-3.72-0.55-7.26c-0.24,0.73-0.48,1.41-0.76,2.16c-0.74,2-1.43,3.88-1.32,6.17c-0.05-0.64-0.11-1.29-0.17-1.94&#10;&#9;c-0.04-0.41-0.09-0.81-0.14-1.21c-0.34-2.76-0.66-5.36,3.21-10.01c-0.82,0.72-1.51,1.24-2.12,1.7c-1.15,0.86-2.06,1.54-3.22,3.06&#10;&#9;l-0.05,0.07c-1.66,2.17-2.62,3.69-2.85,4.54c0.15-1.25,0.28-2.07,0.39-2.8c0.19-1.19,0.35-2.13,0.43-4.23&#10;&#9;c0.16-3.52-0.97-6.86-1.07-6.88c0.95,5.99-0.57,11.74-4.28,16.18c0.42-1.84,0.12-3.59-0.18-5.29c-0.16-0.94-0.31-1.81-0.4-2.67&#10;&#9;c0,0,0.05-0.04,0.05-0.04c0-0.09,0-0.2-0.11-0.3l0.01,0.3c0.02,2.07-0.8,3.83-1.6,5.57c-0.47,1.02-0.96,2.08-1.17,3.2&#10;&#9;c0.11-0.95,0.28-2.04,0.45-3.09c0.25-1.61,0.54-3.45,0.76-5.58c0.33-3.2,0.17-5.15-0.05-6.72c-0.03,0-0.05,0.04-0.05,0.07&#10;&#9;c0.03,1.99,0.09,5.31-2.73,9.37c-1.38,1.98-2.71,4.37-3.08,8.45c0.06-0.75-0.04-1.97-0.14-3.27c-0.17-2.12-0.36-4.52-0.04-5.79&#10;&#9;c-0.02,0.05-0.43,0.92-0.65,1.38c-0.7,1.43-1.42,2.91-1.56,4.59c0.08-0.99,0.11-1.25,0.17-1.85c0.04-0.38,0.1-0.91,0.19-1.86&#10;&#9;c0.26-2.51,1.5-5.47,3.38-6.29c-1.77,0.54-3.49,2.2-5.12,4.92c-1.04,1.73-1.51,3.84-1.96,5.88c-0.22,0.99-0.41,1.87-0.57,2.72&#10;&#9;c0.06-1.1,0.18-1.91,0.28-2.55c0.15-1,0.27-1.79,0.07-2.88c-0.26-1.43-0.78-2.82-1.4-4.45c-0.19-0.5-0.38-1.01-0.68-1.55&#10;&#9;c0.04,5.73-0.89,7.55-1.8,9.31c-0.54,1.05-1.05,2.05-1.26,3.83c0.68-6.15-0.48-12.29-3.19-16.86c1,4.98,0.34,11.1-0.54,14.82&#10;&#9;c0.4-1.76-2.59-7.47-4.11-9.68c0.92,2.96,1,8.34-0.29,10.55c-0.55-0.54-0.63-0.48-1.23-2.2c-0.26-0.72-0.39-2.66-0.86-6.35&#10;&#9;c-0.47,1.07-1.2,4.32-1.58,5.43l-0.03,0.08c-0.25,0.72-0.53,1.53-0.74,2.29c-1.61-2.59-1.55-6.45,0.16-12.53&#10;&#9;c-0.58,1.51-1.24,2.81-1.89,4.07c-1.35,2.64-2.52,4.92-2.38,8.24c-0.46-1.44-0.34-3.86-0.26-5.5c0.02-0.44,0-0.96-0.03-1.5l0-0.08&#10;&#9;c-0.06-1.44-0.14-3.06,0.41-4.08c-1.18,1.8-2.3,4-3.24,6.36c-0.53,1.35-0.71,2.77-0.88,4.13c-0.07,0.56-0.15,1.19-0.16,1.79&#10;&#9;c-1.69-4.53-0.08-8.51,0.45-9.82l-0.02-0.2c-2.27,3.61-3.18,8.17-3.07,11.09c-0.05-0.64-0.11-1.29-0.17-1.94&#10;&#9;c-0.29-3.2-0.58-6.52,0.04-9.82c0.47-2.47,1.86-7.01,5.91-9.69c-1.64,0.72-3.59,2.27-4.67,3.43c-1.49,1.61-1.99,2.49-2.69,3.71&#10;&#9;l-0.39,0.68c-1.23,2.1-1.63,2.95-2.28,5.33c-0.18,0.64-0.29,1.13-0.39,1.63c-0.16,0.74-0.33,1.51-0.69,2.87&#10;&#9;c-0.01-0.51-0.01-0.98-0.02-1.42c-0.03-3.1-0.05-4.52-2.06-7.16c2.41,3.35-0.54,8.56-2.44,10.85c0.16-0.71,0.35-1.39,0.53-2.05&#10;&#9;l0.03-0.1c0.54-1.99,1.05-3.86,0.85-6.14c-0.34,2.67-0.98,3.42-1.95,4.55c-0.2,0.23-0.4,0.47-0.63,0.74&#10;&#9;c-1.01,1.25-1.96,2.44-2.22,3.76c0.1-0.82,0.25-1.62,0.4-2.43c0.26-1.38,0.53-2.81,0.47-4.36c-0.07-1.78-0.55-7.52-0.82-9.08&#10;&#9;c0.04,4.41-0.11,5.86-1.68,9.94c-0.83,2.16-1.98,3.96-3.61,5.65c0.19-1.32,1.51-6.06,2.15-8.33c0.28-1.01,0.37-1.33,0.36-1.33&#10;&#9;c-0.39,0.73-0.98,1.54-1.61,2.43c-1.2,1.67-2.56,3.57-2.67,5.23c0.06-0.98,0.05-1.68,0.04-2.37c-0.01-1.05-0.03-1.95,0.24-3.58&#10;&#9;c0.82-4.91,3.28-8.7,5.09-9.4c0,0,0.03-0.05,0.03-0.05c0,0-0.06-0.02-0.06-0.02c-1.93,0.75-5.94,4.13-7.4,6.57&#10;&#9;c-1.49,2.48-1.59,2.81-2.35,5.42c-1.13-3.33-1.27-4.62-1.42-5.99l-0.01-0.07c-0.04-0.33-0.07-0.67-0.13-1.04&#10;&#9;c-0.5-3.54,0.25-6.04,1.21-8.72l0.12-0.4c-0.76,1.69-1.4,2.77-1.98,3.74c-0.98,1.66-1.69,2.85-2.09,6.01&#10;&#9;c0.48-4.19-1.7-10.21-3.62-15.52c-0.67-1.85-1.3-3.59-1.84-5.06c2.24,11.11,1.95,13.56,0.89,22.69l-0.11,1.74&#10;&#9;c-0.19-3.96-1.11-7.67-2-11.26l-0.06-0.25c-0.49-1.97-0.94-3.84-1.33-5.62c0.08,1.61,0.16,2.84,0.22,3.92l0.01,0.11&#10;&#9;c0.11,1.74,0.2,3.11,0.22,5.09c0,0.37,0.01,0.72,0.02,1.07c0.02,1.02,0.04,1.97-0.08,2.92c-0.17-2.99-0.32-5.45-0.33-5.49&#10;&#9;c-1.13,8.38-3.81,11.83-4.06,12.7c-0.72-1.15-0.59-1.98-0.35-3.65c0.3-2.02,0.75-5.07,0.01-11.16c-0.11,1.42-1,4.25-1.86,6.98&#10;&#9;c-0.98,3.09-1.98,6.29-1.91,7.6c-0.35-1.12,0.11-4.38,0.42-6.54c0.03-0.18,0.03-0.18,0.01-0.31c-0.14-0.96-0.27-3.69-0.39-8.1&#10;&#9;c-0.06,0.21-0.09,0.26-0.12,0.26c0,0,0,0,0,0c-0.11-0.1-0.02-1.86,0.06-3.56c0.08-1.65,0.16-3.21,0.05-3.3&#10;&#9;c-0.02,0-0.04,0.02-0.1,0.23l-0.02,0.06c-1.06,4.1-1.98,7.64-2.93,10.87c-1.12,3.81-1.13,6.85-1.14,9.08c0,1.02-0.01,1.83-0.02,2.44&#10;&#9;c-0.68-1.06-1.12-3.72-0.55-7.26c-0.24,0.73-0.48,1.41-0.76,2.16c-0.74,2-1.43,3.88-1.32,6.17c-0.05-0.64-0.11-1.29-0.17-1.94&#10;&#9;c-0.04-0.41-0.09-0.81-0.14-1.21c-0.34-2.76-0.66-5.36,3.21-10.01c-0.82,0.72-1.51,1.24-2.12,1.7c-1.15,0.86-2.06,1.54-3.22,3.06&#10;&#9;l-0.05,0.07c-1.66,2.17-2.62,3.69-2.85,4.54c0.15-1.25,0.28-2.07,0.39-2.8c0.19-1.19,0.35-2.13,0.43-4.23&#10;&#9;c0.16-3.52-0.97-6.86-1.07-6.88c0.95,5.99-0.57,11.74-4.28,16.18c0.42-1.84,0.12-3.59-0.18-5.29c-0.16-0.94-0.31-1.81-0.4-2.67&#10;&#9;c0,0,0.05-0.04,0.05-0.04c0-0.09,0-0.2-0.11-0.3l0.01,0.3c0.02,2.07-0.8,3.83-1.6,5.57c-0.47,1.02-0.96,2.08-1.17,3.2&#10;&#9;c0.11-0.95,0.28-2.04,0.45-3.09c0.25-1.61,0.54-3.45,0.76-5.58c0.33-3.2,0.17-5.15-0.05-6.72c-0.03,0-0.05,0.04-0.05,0.07&#10;&#9;c0.03,1.99,0.09,5.31-2.73,9.37c-1.38,1.98-2.71,4.37-3.08,8.45c0.06-0.75-0.04-1.97-0.14-3.27c-0.17-2.12-0.36-4.52-0.04-5.79&#10;&#9;c-0.02,0.05-0.43,0.92-0.65,1.38c-0.7,1.43-1.42,2.91-1.56,4.59c0.08-0.99,0.11-1.25,0.17-1.85c0.04-0.38,0.1-0.91,0.19-1.86&#10;&#9;c0.26-2.51,1.5-5.47,3.38-6.29c-1.77,0.54-3.49,2.2-5.12,4.92c-1.04,1.73-1.51,3.84-1.96,5.88c-0.22,0.99-0.41,1.87-0.57,2.72&#10;&#9;c0.06-1.1,0.18-1.91,0.28-2.55c0.15-1,0.27-1.79,0.07-2.88c-0.26-1.43-0.78-2.82-1.4-4.45c-0.19-0.5-0.38-1.01-0.68-1.55&#10;&#9;c0.04,5.73-0.89,7.55-1.8,9.31c-0.54,1.05-1.05,2.05-1.26,3.83c0.68-6.15-0.48-12.29-3.19-16.86c1,4.98,0.34,11.1-0.54,14.82&#10;&#9;c0.4-1.76-2.59-7.47-4.11-9.68c0.92,2.96,1,8.34-0.29,10.55c-0.55-0.54-0.63-0.48-1.23-2.2c-0.26-0.72-0.39-2.66-0.86-6.35&#10;&#9;c-0.47,1.07-1.2,4.32-1.58,5.43l-0.03,0.08c-0.25,0.72-0.53,1.53-0.74,2.29c-1.61-2.59-1.55-6.45,0.16-12.53&#10;&#9;c-0.58,1.51-1.24,2.81-1.89,4.07c-1.35,2.64-2.52,4.92-2.38,8.24c-0.46-1.44-0.34-3.86-0.26-5.5c0.02-0.44,0-0.96-0.03-1.5l0-0.08&#10;&#9;c-0.06-1.44-0.14-3.06,0.41-4.08c-1.18,1.8-2.3,4-3.24,6.36c-0.53,1.35-0.71,2.77-0.88,4.13c-0.07,0.56-0.15,1.19-0.16,1.79&#10;&#9;c-1.69-4.53-0.08-8.51,0.45-9.82l-0.02-0.2c-2.27,3.61-3.18,8.17-3.07,11.09c-0.05-0.64-0.11-1.29-0.17-1.94&#10;&#9;c-0.29-3.2-0.58-6.52,0.04-9.82c0.47-2.47,1.86-7.01,5.91-9.69c-1.64,0.72-3.59,2.27-4.67,3.43c-1.49,1.61-1.99,2.49-2.69,3.71&#10;&#9;l-0.39,0.68c-1.23,2.1-1.63,2.95-2.28,5.33c-0.18,0.64-0.29,1.13-0.39,1.63c-0.16,0.74-0.33,1.51-0.69,2.87&#10;&#9;c-0.01-0.51-0.01-0.98-0.02-1.42c-0.03-3.1-0.05-4.52-2.06-7.16c2.41,3.35-0.54,8.56-2.44,10.85c0.16-0.71,0.35-1.39,0.53-2.05&#10;&#9;l0.03-0.1c0.54-1.99,1.05-3.86,0.85-6.14c-0.34,2.67-0.98,3.42-1.95,4.55c-0.2,0.23-0.4,0.47-0.63,0.74&#10;&#9;c-1.01,1.25-1.96,2.44-2.22,3.76c0.1-0.82,0.25-1.62,0.4-2.43c0.26-1.38,0.53-2.81,0.47-4.36c-0.07-1.78-0.55-7.52-0.82-9.08&#10;&#9;c0.04,4.41-0.11,5.86-1.68,9.94c-0.83,2.16-1.98,3.96-3.61,5.65c0.19-1.32,1.51-6.06,2.15-8.33c0.28-1.01,0.37-1.33,0.36-1.33&#10;&#9;c-0.39,0.73-0.98,1.54-1.61,2.43c-1.2,1.67-2.56,3.57-2.67,5.23c0.06-0.98,0.05-1.68,0.04-2.37c-0.01-1.05-0.03-1.95,0.24-3.58&#10;&#9;c0.82-4.91,3.28-8.7,5.09-9.4c0,0,0.03-0.05,0.03-0.05c0,0-0.06-0.02-0.06-0.02c-1.93,0.75-5.94,4.13-7.4,6.57&#10;&#9;c-1.49,2.48-1.59,2.81-2.35,5.42c-1.13-3.33-1.27-4.62-1.42-5.99L7,221.53c-0.04-0.33-0.07-0.67-0.12-1.04&#10;&#9;c-0.5-3.54,0.25-6.04,1.21-8.72l0.12-0.4c-0.76,1.69-1.4,2.77-1.98,3.74c-0.98,1.66-1.69,2.85-2.09,6.01&#10;&#9;c0.48-4.19-1.7-10.21-3.62-15.52c-0.17-0.48-0.35-0.96-0.52-1.42v4.05c0.53,4.16,0.43,6.99,0,11.13v15.68h336.13V228.73z" style="fill: rgb(23, 85, 41);"/>
</svg>