<svg xmlns="http://www.w3.org/2000/svg" xmlns:xlink="http://www.w3.org/1999/xlink" id="master-artboard" width="1400" height="980" x="0" y="0" version="1.1" viewBox="0 0 1400 980" style="enable-background:new 0 0 1400 980"><path d="M 0 0 H 1400 V 980 H 0 V 0 Z" class="st0" style="fill:#fff"/><path d="M949.6,879.1c-11.9-28.1-26.1-56.8-53-77c-40.1-30.2-99.1-35.2-151.3-49c-48.1-12.7-92.7-33.9-129.8-61.7	c-30.5-22.9-55.7-50-84.5-74.2c-55.4-46.7-125.3-81.5-200.8-102.7c-68.4-19.2-141.7-27.5-214-23.7c-31.3,1.6-77.1,3.9-116.2,12.7	V980h986C975.8,945.9,963.7,912.2,949.6,879.1z" class="st18" style="fill:#386072"/><path d="M1400,980V589.5c-39.4-6.6-98.3,0.9-124.7,2.8c-63.7,4.5-126.6,15.9-186.6,33.8c-46.6,14-92.9,32.7-124.6,63.6	c-22.9,22.3-37.2,50-62.2,70.9c-33.5,28-82.1,40.5-121.1,63.5c-61.5,36.4-93.6,95.6-114,155.7H1400z" class="st19" style="fill:#214254"/><path d="M864.8,784.2c13.4-6.8,26-14.3,37.1-23.5c25-20.9,39.3-48.6,62.2-70.9c31.7-30.9,78-49.7,124.6-63.6	c43.4-13,88.4-22.5,134-28.5c-28.2-117-69.9-232.3-147.6-294.9c-67.6-54.4-150.7-59-229.7-56c-75.6,2.8-151.2,11.1-226.1,24.9	c-25.8,4.7-52,10.3-75.5,25.4c-23.1,14.8-42.5,38.1-60.4,62.6c-29.4,40-54.8,83.9-78.4,130.2c-5.2,10.2-11.9,19.9-18.9,29.6	c16.3,10.4,32.2,22,47.5,34.6c35.6,17.7,68.5,38.8,97.4,63.2c28.8,24.3,54,51.4,84.5,74.2c37,27.8,81.7,49,129.8,61.7	C785,763.5,828.6,769,864.8,784.2z" class="st20" style="fill:#84d3d3"/><path d="M330.2,514.5c54.3,15.3,105.7,37.5,150.9,66.2c-3.3-14-7.2-27.9-11.6-41.5c-28.4-89.4-77.3-164.4-139.7-202.5	c-49.3-30.1-103.4-37.5-156.6-44.6C115.6,284.4,57.8,276.7,0,269v234.5c39.1-8.8,84.9-11,116.2-12.7	C188.5,487,261.8,495.3,330.2,514.5z" class="st21" style="fill:#458f9b"/><path d="M187.5,598c86.3,0,157.1-34.2,163.1-77.4c-6.7-2.1-13.5-4.2-20.4-6.1c-68.4-19.2-141.7-27.5-214-23.7	c-24.3,1.3-57.3,2.9-89.1,7.7c-2,5.2-3.1,10.6-3.1,16.1C24,560.7,97.2,598,187.5,598z" class="st22" style="fill:#215060"/><path d="M205,226.3c0-1.2-0.9-2.1-2.1-2.1h0c-1.2,0-2.1,0.9-2.1,2.1l0,83.1c0,6.7,0,13.6-2.2,19.9	c-4.1,11.6-17,19.7-29.2,18.6c2.4-38.3,3.3-76.8,2.8-115c0-1.1-0.9-2.1-2.1-2.1c0,0,0,0,0,0c-1.2,0-2.1,1-2.1,2.1	c0.6,46.3-1,93.2-4.5,139.3c-0.5,5.8-1,13.1-4.3,18.7c-4.9,8.3-13.1,14.6-23.1,18c-0.1-0.2-0.2-0.4-0.3-0.5	c-0.3-0.7-0.6-1.5-1.1-2.2c-0.9-1.5-1.9-2.6-3.1-3.6c-2.6-3-5.4-5.7-8.3-8.4c-5.5-5.2-10.8-10.1-12.6-16.5	c-3.6-12.2-3.7-25.1-3.7-37.7c1.7,0.2,3.5,0.4,5.3,0.4c5,0,10.3-1.2,14.1-5.5c2.9-3.2,3.9-7.5,4.5-11.7c1.6-10.5,1.9-21.3,2.1-31.7	l2-85.1c0-1.2-0.9-2.1-2-2.1c-1.2,0-2.1,0.9-2.1,2l-2,85.1c-0.2,10.3-0.5,20.9-2.1,31.2c-0.5,3.3-1.2,7-3.5,9.5	c-3.3,3.6-8.5,4.8-16.3,3.7l0.5-114.9c0-1.2-0.9-2.1-2.1-2.1c0,0,0,0,0,0c-1.1,0-2.1,0.9-2.1,2.1l-0.5,116.7	c-0.1,13.7-0.1,27.8,3.9,41.3c2.2,7.5,8.1,13.1,13.8,18.4c0.4,0.4,0.8,0.8,1.3,1.2c-3-0.5-6.3-0.7-9.5-0.9c-3.1-0.2-6.3-0.4-9.1-0.9	c-13.7-2.5-23.1-14.7-27.3-25.3c-4.9-12.5-5.4-26.3-5.9-39.6l0,0c0,0,0,0,0,0l-3.5-98c0-1.2-1-2-2.2-2c-1.2,0-2.1,1-2,2.2l3.4,96.2	c-9.4,1.7-17.7-2.2-23.4-11.1c-5.1-7.9-8.3-18.2-9.4-30.6c-2.8-29.4-2.5-59.1,0.7-88.5c0.1-1.1-0.7-2.2-1.8-2.3	c-1.2-0.1-2.2,0.7-2.3,1.8c-3.3,29.6-3.6,59.7-0.8,89.3c1.2,13.1,4.6,24,10.1,32.5c5.6,8.7,13.7,13.4,22.7,13.4	c1.4,0,2.9-0.1,4.4-0.4c0.5,12.4,1.2,26.2,6.1,38.6c5.8,14.9,17.5,25.6,30.4,27.9c3.1,0.6,6.4,0.8,9.6,0.9	c6.5,0.4,12.7,0.7,16.7,3.9c1.2,1.4,2.3,2.9,3.2,4.5c1.2,3.2,1.1,7.2,0.9,10.4l-5,120.5c0,1.2,0.8,2.1,2,2.2c0,0,0.1,0,0.1,0	c1.1,0,2-0.9,2.1-2l5-120.5c0.1-2.3,0.2-5-0.1-7.6c11.3-3.6,20.4-10.7,25.9-19.9c3.8-6.4,4.4-14.2,4.9-20.5c0.5-6.8,1-13.7,1.4-20.5	c0.9,0.1,1.8,0.1,2.7,0.1c13.3,0,26.2-8.8,30.7-21.4c2.5-7,2.5-14.6,2.5-21.3L205,226.3z" class="st20" style="fill:#84d3d3"/><path d="M 0 0 H 1400 V 980 H 0 V 0 Z" class="st16" style="fill:none"/><path d="M323,358.2c-1-0.4-2.2,0.2-2.5,1.2l-12.6,36.2c-0.7,1.9-1.4,3.9-2.6,5.2c-2.4,2.6-6.7,2.9-11,2.9	c-1.7,0-3.4-0.1-5.1-0.1c6.4-8.2,10.5-18.5,13.9-28.7c9.1-27,15.7-55,19.4-83.2c0-0.1,0-0.2,0.1-0.3c0.3-1.1-0.3-2.2-1.4-2.5	c-1.1-0.3-2.2,0.3-2.5,1.4c-0.1,0.3-0.1,0.6-0.2,0.8c-3.7,28-10.2,55.7-19.3,82.4c-0.9,2.7-1.9,5.4-2.9,8.1	c-10-26.6-8.3-56.6-6.8-83.2c0.1-1.1-0.8-2-1.9-2.1c-1.1-0.1-2,0.8-2.1,1.9c-1.6,28-3.4,59.8,8.2,87.9c0.1,0.3,0.3,0.5,0.5,0.6	c-4.1,9.3-9.4,17.6-17.4,23.2c-3.1,2.2-6.8,4-10.3,5.7c-6.4,3.1-13,6.4-17.4,12.3c-0.4,0.6-0.8,1.2-1.2,1.8	c-1.4-8.5-5.4-17.5-9.2-25.6c8.3-3.5,15.1-11.4,18.6-21.9c3.2-9.5,3.6-19.5,3.9-29.2l1.4-41.9c0-1.1-0.8-2-1.9-2.1	c-1.1,0-2,0.8-2.1,1.9l-1.4,41.9c-0.3,9.4-0.6,19.1-3.7,28.1c-3.2,9.4-9.2,16.5-16.6,19.6c0-0.1-0.1-0.2-0.1-0.3	c-1.3-2.7-2.5-5.2-3.5-7.5c-4.3-9.6-5.9-20.1-7.1-30.1c-3-23.9-4.4-48.1-4.1-72.2c0-1.1-0.9-2-2-2c0,0,0,0,0,0c-1.1,0-2,0.9-2,2	c-0.2,19.9,0.7,39.9,2.7,59.8c-9.4-2.6-17.6-9.8-21.2-18.9c-2.2-5.6-2.8-11.8-3.2-17.3c-1-14.6-0.9-29.4,0.5-44	c0.1-1.1-0.7-2.1-1.8-2.2c-1.1-0.1-2.1,0.7-2.2,1.8c-1.4,14.8-1.6,29.8-0.5,44.6c0.4,5.7,1,12.3,3.5,18.5	c4.3,10.8,13.9,19.1,25.3,21.6c0.3,2.9,0.7,5.8,1,8.7c1.2,9.8,2.9,21.1,7.5,31.2c1.1,2.4,2.3,4.9,3.6,7.6	c5.8,12.1,13,27.1,10.9,38.1c0,0,0,0.1,0,0.1c-1,5.3-1,11-0.9,16.8l1.9,83.5c0,1.1,0.9,2,2,2c0,0,0,0,0,0c1.1,0,2-0.9,2-2l-1.9-83.5	c-0.2-10.1,0-19.7,5.2-26.6c3.8-5.1,9.7-8,15.9-11.1c3.6-1.8,7.4-3.6,10.8-6c2.4-1.7,4.6-3.6,6.7-5.8c0.1,0,0.2,0,0.3,0	c2.7,0.1,5.4,0.2,8,0.2c0.3,0,0.6,0,0.9,0c4.9,0,9.9-0.6,13.1-4.2c1.8-2,2.7-4.5,3.5-6.6l12.6-36.2	C324.6,359.7,324.1,358.6,323,358.2z" class="st20" style="fill:#84d3d3"/><g><path d="M 155.800003 404.700012 H 227.700005 V 555.800018 H 155.800003 V 404.700012 Z" class="st23" style="fill:#ffa255"/><path d="M 227.6999969482422 358.3999938964844 L 155.8000030517578 358.3999938964844 L 141.6999969482422 404.70001220703125 L 241.8000030517578 404.70001220703125 Z" class="st24" style="fill:#ca413b"/><path d="M191.8,504c-5.5,0-9.9,4.4-9.9,9.9v41.9h19.9v-41.9C201.7,508.4,197.2,504,191.8,504z" class="st25" style="fill:#f46c4d"/><path d="M191.8,369.6c-5.5,0-9.9,3-9.9,6.7v28.4h19.9v-28.4C201.7,372.6,197.2,369.6,191.8,369.6z" class="st23" style="fill:#ffa255"/><path d="M191.8,372.2c-4.3,0-7.7,2.6-7.7,5.8v24.2h15.4v-24.2C199.5,374.7,196,372.2,191.8,372.2z" class="st25" style="fill:#f46c4d"/><g><path d="M 164.199997 415.700012 H 182.999996 V 446.900013 H 164.199997 V 415.700012 Z" class="st24" style="fill:#ca413b"/><path d="M 166.699997 417.899994 H 180.499997 V 444.699993 H 166.699997 V 417.899994 Z" class="st25" style="fill:#f46c4d"/><path d="M 172 415.700012 H 175.2 V 446.900013 H 172 V 415.700012 Z" class="st24" style="fill:#ca413b"/><path d="M 172 421.899994 H 175.2 V 440.699993 H 172 V 421.899994 Z" class="st24" transform="matrix(2.716411e-11 -1 1 2.716411e-11 -257.702 604.9426)" style="fill:#ca413b"/></g><g><path d="M 200.5 415.700012 H 219.299999 V 446.900013 H 200.5 V 415.700012 Z" class="st24" style="fill:#ca413b"/><path d="M 203 417.899994 H 216.8 V 444.699993 H 203 V 417.899994 Z" class="st25" style="fill:#f46c4d"/><path d="M 208.300003 415.700012 H 211.500003 V 446.900013 H 208.300003 V 415.700012 Z" class="st24" style="fill:#ca413b"/><path d="M 208.300003 421.899994 H 211.500003 V 440.699993 H 208.300003 V 421.899994 Z" class="st24" transform="matrix(2.716411e-11 -1 1 2.716411e-11 -221.4294 641.2152)" style="fill:#ca413b"/></g><g><path d="M 164.199997 457.899994 H 182.999996 V 489.099995 H 164.199997 V 457.899994 Z" class="st24" style="fill:#ca413b"/><path d="M 166.699997 460.100006 H 180.499997 V 486.900005 H 166.699997 V 460.100006 Z" class="st25" style="fill:#f46c4d"/><path d="M 172 457.899994 H 175.2 V 489.099995 H 172 V 457.899994 Z" class="st24" style="fill:#ca413b"/><path d="M 172 464.100006 H 175.2 V 482.900005 H 172 V 464.100006 Z" class="st24" transform="matrix(2.716411e-11 -1 1 2.716411e-11 -299.9235 647.1641)" style="fill:#ca413b"/></g><g><path d="M 200.5 457.899994 H 219.299999 V 489.099995 H 200.5 V 457.899994 Z" class="st24" style="fill:#ca413b"/><path d="M 203 460.100006 H 216.8 V 486.900005 H 203 V 460.100006 Z" class="st25" style="fill:#f46c4d"/><path d="M 208.300003 457.899994 H 211.500003 V 489.099995 H 208.300003 V 457.899994 Z" class="st24" style="fill:#ca413b"/><path d="M 208.300003 464.100006 H 211.500003 V 482.900005 H 208.300003 V 464.100006 Z" class="st24" transform="matrix(2.716411e-11 -1 1 2.716411e-11 -263.6509 683.4367)" style="fill:#ca413b"/></g><path d="M 184.100006 392.5 H 199.500006 V 395.1 H 184.100006 V 392.5 Z" class="st23" style="fill:#ffa255"/></g><g><path d="M 1240.5 504 A 38.5 108.5 0 0 1 1202 612.5 A 38.5 108.5 0 0 1 1163.5 504 A 38.5 108.5 0 0 1 1202 395.5 A 38.5 108.5 0 0 1 1240.5 504 Z" class="st18" style="fill:#386072"/><path d="M1228.5,501.8c-1.5-1-3.4-0.6-4.4,0.9l-19.1,29.2V431.4c0-1.7-1.4-3-3-3s-3,1.4-3,3v45.2l-14.7-22.7 c-1-1.5-2.9-1.9-4.4-0.9c-1.5,1-1.9,2.9-0.9,4.4l20,31v92.8l-16-23.8c-1-1.5-3-1.8-4.4-0.9c-1.5,1-1.8,3-0.9,4.4l21.2,31.7v59.2 c0,1.7,1.4,3,3,3s3-1.4,3-3V543.5l24.4-37.3C1230.4,504.7,1230,502.8,1228.5,501.8z" class="st26" style="fill:#151c28"/></g><g><path d="M 1148.900047 536.799988 A 89.599998 89.599998 0 0 1 1059.300049 626.399986 A 89.599998 89.599998 0 0 1 969.70005 536.799988 A 89.599998 89.599998 0 0 1 1059.300049 447.199989 A 89.599998 89.599998 0 0 1 1148.900047 536.799988 Z" class="st21" style="fill:#458f9b"/><path d="M1121.2,515.6h-35l18.4-24.1c1.2-1.5,0.9-3.7-0.7-4.9c-1.5-1.2-3.7-0.9-4.9,0.7l-22.1,29.1 c-0.5,0.4-0.9,0.9-1.1,1.5l-13,17.1v-52.5c0-1.9-1.6-3.5-3.5-3.5s-3.5,1.6-3.5,3.5v68.9l-20.5-10.6c0-0.1-0.1-0.3-0.1-0.4 l-21.5-45.3c-0.8-1.7-2.9-2.5-4.7-1.7c-1.7,0.8-2.5,2.9-1.7,4.7l17.7,37.4l-16.8-8.7c-1.7-0.9-3.8-0.2-4.7,1.5s-0.2,3.8,1.5,4.7 l33.5,17.4l-18.6,26.3c-1.1,1.6-0.7,3.8,0.8,4.9c0.6,0.4,1.3,0.6,2,0.6c1.1,0,2.2-0.5,2.9-1.5l19.2-27.1l10.9,5.7v30.9c0,0,0,0,0,0 V695c0,1.9,1.6,3.5,3.5,3.5s3.5-1.6,3.5-3.5V593l46.9-9.2c1.9-0.4,3.1-2.2,2.8-4.1c-0.4-1.9-2.2-3.1-4.1-2.8l-18.6,3.7l14.5-36.9 c0.7-1.8-0.2-3.8-2-4.5c-1.8-0.7-3.8,0.2-4.5,2l-16.2,41.1l-18.8,3.7v-40.2c0.5-0.2,1-0.6,1.3-1.1l16.8-22.1h40.3 c1.9,0,3.5-1.6,3.5-3.5S1123.1,515.6,1121.2,515.6z" class="st26" style="fill:#151c28"/></g><g><path d="M 1387.099998 500.799988 A 67.099998 67.099998 0 0 1 1320 567.899986 A 67.099998 67.099998 0 0 1 1252.900002 500.799988 A 67.099998 67.099998 0 0 1 1320 433.699989 A 67.099998 67.099998 0 0 1 1387.099998 500.799988 Z" class="st20" style="fill:#84d3d3"/><path d="M1273.6,484.9h26.2l-13.7-18.1c-0.9-1.2-0.7-2.8,0.5-3.7c1.2-0.9,2.8-0.7,3.7,0.5l16.6,21.8 c0.4,0.3,0.7,0.7,0.8,1.1l9.7,12.8V460c0-1.4,1.2-2.6,2.6-2.6s2.6,1.2,2.6,2.6v51.6l15.3-8c0-0.1,0.1-0.2,0.1-0.3l16.1-34 c0.6-1.3,2.2-1.9,3.5-1.2c1.3,0.6,1.9,2.2,1.2,3.5l-13.3,28l12.6-6.5c1.3-0.7,2.9-0.2,3.5,1.1c0.7,1.3,0.2,2.9-1.1,3.5l-25.1,13.1 l13.9,19.7c0.8,1.2,0.6,2.8-0.6,3.7c-0.5,0.3-1,0.5-1.5,0.5c-0.8,0-1.6-0.4-2.1-1.1l-14.4-20.3l-8.2,4.2v23.2c0,0,0,0,0,0v78.6 c0,1.4-1.2,2.6-2.6,2.6s-2.6-1.2-2.6-2.6v-76.4l-35.1-6.9c-1.4-0.3-2.3-1.7-2.1-3.1c0.3-1.4,1.7-2.3,3.1-2.1l13.9,2.7l-10.9-27.7 c-0.5-1.3,0.1-2.9,1.5-3.4c1.3-0.5,2.9,0.1,3.4,1.5l12.1,30.8l14.1,2.8v-30.1c-0.4-0.2-0.7-0.4-1-0.8l-12.6-16.5h-30.2 c-1.4,0-2.6-1.2-2.6-2.6C1271,486.1,1272.1,484.9,1273.6,484.9z" class="st26" style="fill:#151c28"/></g><g><path d="M353.7,855.3l-6.8-3.4l3.4-6.8c2.2-4.4,0.4-9.9-4-12.1l0,0c-4.4-2.2-9.9-0.4-12.1,4l-3.4,6.8l-6.8-3.4 c-4.4-2.2-9.9-0.4-12.1,4h0c-2.2,4.4-0.4,9.9,4,12.1l6.8,3.4l-3.4,6.8c-2.2,4.4-0.4,9.9,4,12.1l0,0c4.4,2.2,9.9,0.4,12.1-4l3.4-6.8 l6.8,3.4c4.4,2.2,9.9,0.4,12.1-4l0,0C359.9,863,358.1,857.6,353.7,855.3z" class="st24" style="fill:#ca413b"/><path d="M 339.399988 855.900024 A 4.6 4.6 0 0 1 334.799988 860.500024 A 4.6 4.6 0 0 1 330.199988 855.900024 A 4.6 4.6 0 0 1 334.799988 851.300025 A 4.6 4.6 0 0 1 339.399988 855.900024 Z" class="st0" style="fill:#fff"/></g><g><path d="M212.5,880l-1.3-7.5l7.5-1.3c4.9-0.8,8.2-5.5,7.4-10.4l0,0c-0.8-4.9-5.5-8.2-10.4-7.4l-7.5,1.3l-1.3-7.5 c-0.8-4.9-5.5-8.2-10.4-7.4h0c-4.9,0.8-8.2,5.5-7.4,10.4l1.3,7.5l-7.5,1.3c-4.9,0.8-8.2,5.5-7.4,10.4l0,0c0.8,4.9,5.5,8.2,10.4,7.4 l7.5-1.3l1.3,7.5c0.8,4.9,5.5,8.2,10.4,7.4l0,0C210,889.5,213.3,884.8,212.5,880z" class="st24" style="fill:#ca413b"/><path d="M 205.400003 865.099976 A 4.6 4.6 0 0 1 200.800003 869.699975 A 4.6 4.6 0 0 1 196.200003 865.099976 A 4.6 4.6 0 0 1 200.800003 860.499976 A 4.6 4.6 0 0 1 205.400003 865.099976 Z" class="st0" style="fill:#fff"/></g><g><path d="M293.5,804.6l-2.7,4.4l-4.4-2.7c-2.9-1.7-6.6-0.8-8.3,2.1l0,0c-1.7,2.9-0.8,6.6,2.1,8.3l4.4,2.7l-2.7,4.4 c-1.7,2.9-0.8,6.6,2.1,8.3l0,0c2.9,1.7,6.6,0.8,8.3-2.1l2.7-4.4l4.4,2.7c2.9,1.7,6.6,0.8,8.3-2.1l0,0c1.7-2.9,0.8-6.6-2.1-8.3 l-4.4-2.7l2.7-4.4c1.7-2.9,0.8-6.6-2.1-8.3l0,0C299,800.8,295.3,801.7,293.5,804.6z" class="st24" style="fill:#ca413b"/><path d="M 295.999994 817.400024 A 3.1 3.1 0 0 1 292.899994 820.500024 A 3.1 3.1 0 0 1 289.799994 817.400024 A 3.1 3.1 0 0 1 292.899994 814.300025 A 3.1 3.1 0 0 1 295.999994 817.400024 Z" class="st0" style="fill:#fff"/></g><g><path d="M408.7,858.9l-4.5,2.5l-2.5-4.5c-1.6-2.9-5.3-4-8.3-2.4l0,0c-2.9,1.6-4,5.3-2.4,8.3l2.5,4.5l-4.5,2.5 c-2.9,1.6-4,5.3-2.4,8.3l0,0c1.6,2.9,5.3,4,8.3,2.4l4.5-2.5l2.5,4.5c1.6,2.9,5.3,4,8.3,2.4l0,0c2.9-1.6,4-5.3,2.4-8.3l-2.5-4.5 l4.5-2.5c2.9-1.6,4-5.3,2.4-8.3l0,0C415.3,858.3,411.6,857.3,408.7,858.9z" class="st24" style="fill:#ca413b"/><path d="M 404.899988 869.599976 A 3.1 3.1 0 0 1 401.799988 872.699975 A 3.1 3.1 0 0 1 398.699988 869.599976 A 3.1 3.1 0 0 1 401.799988 866.499976 A 3.1 3.1 0 0 1 404.899988 869.599976 Z" class="st0" style="fill:#fff"/></g><g><path d="M381.8,807.4l-3.9,1.8l-1.8-3.9c-1.1-2.5-4.1-3.6-6.6-2.5l0,0c-2.5,1.1-3.6,4.1-2.5,6.6l1.8,3.9l-3.9,1.8 c-2.5,1.1-3.6,4.1-2.5,6.6h0c1.1,2.5,4.1,3.6,6.6,2.5l3.9-1.8l1.8,3.9c1.1,2.5,4.1,3.6,6.6,2.5l0,0c2.5-1.1,3.6-4.1,2.5-6.6 l-1.8-3.9l3.9-1.8c2.5-1.1,3.6-4.1,2.5-6.6v0C387.4,807.4,384.4,806.3,381.8,807.4z" class="st24" style="fill:#ca413b"/><path d="M 377.899994 815.799988 A 2.5 2.5 0 0 1 375.399994 818.299988 A 2.5 2.5 0 0 1 372.899994 815.799988 A 2.5 2.5 0 0 1 375.399994 813.299988 A 2.5 2.5 0 0 1 377.899994 815.799988 Z" class="st0" style="fill:#fff"/></g><g><path d="M287.8,889.2l-3.7-2.1l2.1-3.7c1.4-2.4,0.6-5.5-1.8-6.9l0,0c-2.4-1.4-5.5-0.6-6.9,1.8l-2.1,3.7l-3.7-2.1 c-2.4-1.4-5.5-0.6-6.9,1.8h0c-1.4,2.4-0.6,5.5,1.8,6.9l3.7,2.1l-2.1,3.7c-1.4,2.4-0.6,5.5,1.8,6.9l0,0c2.4,1.4,5.5,0.6,6.9-1.8 l2.1-3.7l3.7,2.1c2.4,1.4,5.5,0.6,6.9-1.8l0,0C291,893.7,290.2,890.6,287.8,889.2z" class="st24" style="fill:#ca413b"/><path d="M 279.700012 888.900024 A 2.5 2.5 0 0 1 277.200012 891.400024 A 2.5 2.5 0 0 1 274.700012 888.900024 A 2.5 2.5 0 0 1 277.200012 886.400024 A 2.5 2.5 0 0 1 279.700012 888.900024 Z" class="st0" style="fill:#fff"/></g><g><path d="M236.9,775l-3.9,1.8l-1.8-3.9c-1.1-2.5-4.1-3.6-6.6-2.5l0,0c-2.5,1.1-3.6,4.1-2.5,6.6l1.8,3.9l-3.9,1.8 c-2.5,1.1-3.6,4.1-2.5,6.6h0c1.1,2.5,4.1,3.6,6.6,2.5l3.9-1.8l1.8,3.9c1.1,2.5,4.1,3.6,6.6,2.5l0,0c2.5-1.1,3.6-4.1,2.5-6.6 l-1.8-3.9l3.9-1.8c2.5-1.1,3.6-4.1,2.5-6.6l0,0C242.4,775,239.4,773.9,236.9,775z" class="st24" style="fill:#ca413b"/><path d="M 233 783.400024 A 2.5 2.5 0 0 1 230.5 785.900024 A 2.5 2.5 0 0 1 228 783.400024 A 2.5 2.5 0 0 1 230.5 780.900024 A 2.5 2.5 0 0 1 233 783.400024 Z" class="st0" style="fill:#fff"/></g><g><path d="M1282.1,912c-9.4,9.4-25.5,8.5-25.5,8.5s-0.9-16.1,8.5-25.5s25.5-8.5,25.5-8.5S1291.5,902.7,1282.1,912z" class="st23" style="fill:#ffa255"/><path d="M1231.2,912c9.4,9.4,25.5,8.5,25.5,8.5s0.9-16.1-8.5-25.5s-25.5-8.5-25.5-8.5S1221.9,902.7,1231.2,912z" class="st23" style="fill:#ffa255"/></g><g><path d="M1196.7,843.2c-7.6,7.6-20.5,6.8-20.5,6.8s-0.7-13,6.8-20.5s20.5-6.8,20.5-6.8S1204.3,835.7,1196.7,843.2z" class="st23" style="fill:#ffa255"/><path d="M1155.7,843.2c7.6,7.6,20.5,6.8,20.5,6.8s0.7-13-6.8-20.5s-20.5-6.8-20.5-6.8S1148.2,835.7,1155.7,843.2z" class="st23" style="fill:#ffa255"/></g><g><path d="M1299.2,810.2c-5.7,5.7-15.4,5.1-15.4,5.1s-0.5-9.7,5.1-15.4c5.7-5.7,15.4-5.1,15.4-5.1 S1304.8,804.5,1299.2,810.2z" class="st23" style="fill:#ffa255"/><path d="M1268.4,810.2c5.7,5.7,15.4,5.1,15.4,5.1s0.5-9.7-5.1-15.4c-5.7-5.7-15.4-5.1-15.4-5.1 S1262.8,804.5,1268.4,810.2z" class="st23" style="fill:#ffa255"/></g><g><path d="M679.6,753.9c-4.7,4.7-12.7,4.2-12.7,4.2s-0.4-8,4.2-12.7s12.7-4.2,12.7-4.2S684.3,749.2,679.6,753.9z" class="st23" style="fill:#ffa255"/><path d="M654.1,753.9c4.7,4.7,12.7,4.2,12.7,4.2s0.4-8-4.2-12.7s-12.7-4.2-12.7-4.2S649.4,749.2,654.1,753.9z" class="st23" style="fill:#ffa255"/></g><g><path d="M633.2,775.3c-6.1,5.8-16.6,5.2-16.6,5.2s-0.6-9.9,5.5-15.6s16.6-5.2,16.6-5.2S639.3,769.6,633.2,775.3z" class="st23" style="fill:#ffa255"/><path d="M600,775.3c6.1,5.8,16.6,5.2,16.6,5.2s0.6-9.9-5.5-15.6s-16.6-5.2-16.6-5.2S593.9,769.6,600,775.3z" class="st23" style="fill:#ffa255"/></g><g><path d="M603.4,718.4c-2.4,2.3-6.5,2.1-6.5,2.1s-0.2-3.9,2.2-6.2c2.4-2.3,6.5-2.1,6.5-2.1S605.8,716.1,603.4,718.4z" class="st23" style="fill:#ffa255"/><path d="M590.3,718.4c2.4,2.3,6.5,2.1,6.5,2.1s0.2-3.9-2.2-6.2c-2.4-2.3-6.5-2.1-6.5-2.1S587.9,716.1,590.3,718.4z" class="st23" style="fill:#ffa255"/></g><g><path d="M624,734.5c-2,1.9-5.5,1.7-5.5,1.7s-0.2-3.3,1.8-5.1c2-1.9,5.5-1.7,5.5-1.7S626,732.6,624,734.5z" class="st23" style="fill:#ffa255"/><path d="M613.1,734.5c2,1.9,5.5,1.7,5.5,1.7s0.2-3.3-1.8-5.1c-2-1.9-5.5-1.7-5.5-1.7S611.1,732.6,613.1,734.5z" class="st23" style="fill:#ffa255"/></g><g><g><path d="M723.1,484.3c0,3.1-2.3,6-3,8.9c-0.7,3,0.2,6.6-1.2,9.4c-1.3,2.8-4.7,4.3-6.6,6.7c-1.9,2.4-2.7,6-5.1,7.9 c-2.4,1.9-6.1,1.9-8.9,3.2c-2.7,1.3-5,4.2-8,4.9c-2.9,0.7-6.2-1-9.4-1s-6.4,1.6-9.4,1c-3-0.7-5.3-3.6-8-4.9 c-2.8-1.3-6.5-1.3-8.9-3.2c-2.4-1.9-3.2-5.5-5.1-7.9c-1.9-2.4-5.2-4-6.6-6.7c-1.3-2.7-0.5-6.3-1.2-9.4c-0.7-2.9-3-5.8-3-8.9 c0-3.1,2.3-6,3-8.9c0.7-3-0.2-6.6,1.2-9.4c1.3-2.8,4.7-4.3,6.6-6.7c1.9-2.4,2.7-6,5.1-7.9c2.4-1.9,6.1-1.9,8.9-3.2 c2.7-1.3,5-4.2,8-4.9c2.9-0.7,6.2,1,9.4,1s6.4-1.6,9.4-1c3,0.7,5.3,3.6,8,4.9c2.8,1.3,6.5,1.3,8.9,3.2c2.4,1.9,3.2,5.5,5.1,7.9 c1.9,2.4,5.2,4,6.6,6.7c1.3,2.7,0.5,6.3,1.2,9.4C720.7,478.3,723.1,481.1,723.1,484.3z" class="st19" style="fill:#214254"/><path d="M680.9,569.9L680.9,569.9c-2.8,0-5.1-2.3-5.1-5.1v-75.5c0-2.8,2.3-5.1,5.1-5.1l0,0c2.8,0,5.1,2.3,5.1,5.1 v75.5C685.9,567.6,683.7,569.9,680.9,569.9z" class="st26" style="fill:#151c28"/></g><g><path d="M796.8,525.5c0,2.5-1.9,4.8-2.4,7.1c-0.5,2.4,0.1,5.3-0.9,7.4c-1.1,2.2-3.7,3.5-5.2,5.4 c-1.5,1.9-2.2,4.8-4.1,6.3c-1.9,1.5-4.8,1.5-7,2.6c-2.2,1.1-4,3.4-6.4,3.9c-2.3,0.5-5-0.8-7.5-0.8s-5.1,1.3-7.5,0.8 c-2.4-0.5-4.2-2.9-6.4-3.9c-2.2-1.1-5.1-1-7-2.6c-1.9-1.5-2.5-4.4-4.1-6.3c-1.5-1.9-4.2-3.1-5.2-5.4c-1.1-2.2-0.4-5-0.9-7.4 c-0.5-2.3-2.4-4.6-2.4-7.1c0-2.5,1.9-4.8,2.4-7.1c0.5-2.4-0.1-5.3,0.9-7.4c1.1-2.2,3.7-3.5,5.2-5.4c1.5-1.9,2.2-4.8,4.1-6.3 c1.9-1.5,4.8-1.5,7-2.6c2.2-1.1,4-3.4,6.4-3.9c2.3-0.5,5,0.8,7.5,0.8c2.5,0,5.1-1.3,7.5-0.8c2.4,0.5,4.2,2.9,6.4,3.9 c2.2,1.1,5.1,1,7,2.6c1.9,1.5,2.5,4.4,4.1,6.3c1.5,1.9,4.2,3.1,5.2,5.4c1.1,2.2,0.4,5,0.9,7.4C794.9,520.7,796.8,523,796.8,525.5z" class="st19" style="fill:#214254"/><path d="M763.2,593.5L763.2,593.5c-2.2,0-4-1.8-4-4v-60c0-2.2,1.8-4,4-4l0,0c2.2,0,4,1.8,4,4v60 C767.3,591.7,765.5,593.5,763.2,593.5z" class="st26" style="fill:#151c28"/></g></g><g><g><path d="M804.7,463c0,2.3,1.7,4.4,2.2,6.5c0.5,2.2-0.1,4.8,0.8,6.8c1,2,3.4,3.2,4.8,4.9c1.4,1.7,2,4.4,3.7,5.8 c1.7,1.4,4.4,1.4,6.4,2.3c2,1,3.6,3.1,5.8,3.6c2.1,0.5,4.5-0.7,6.8-0.7s4.7,1.2,6.8,0.7c2.2-0.5,3.8-2.6,5.8-3.6 c2-1,4.7-1,6.4-2.3c1.7-1.4,2.3-4,3.7-5.8c1.4-1.7,3.8-2.9,4.8-4.9c1-2,0.3-4.6,0.8-6.8c0.5-2.1,2.2-4.2,2.2-6.5 c0-2.3-1.7-4.4-2.2-6.5c-0.5-2.2,0.1-4.8-0.8-6.8c-1-2-3.4-3.2-4.8-4.9c-1.4-1.7-2-4.4-3.7-5.8c-1.7-1.4-4.4-1.4-6.4-2.3 c-2-1-3.6-3.1-5.8-3.6c-2.1-0.5-4.5,0.7-6.8,0.7s-4.7-1.2-6.8-0.7c-2.2,0.5-3.8,2.6-5.8,3.6c-2,1-4.7,1-6.4,2.3 c-1.7,1.4-2.3,4-3.7,5.8c-1.4,1.7-3.8,2.9-4.8,4.9c-1,2-0.3,4.6-0.8,6.8C806.4,458.7,804.7,460.7,804.7,463z" class="st19" style="fill:#214254"/><path d="M835.3,525.2L835.3,525.2c2,0,3.7-1.7,3.7-3.7v-54.8c0-2-1.7-3.7-3.7-3.7l0,0c-2,0-3.7,1.7-3.7,3.7v54.8 C831.6,523.5,833.3,525.2,835.3,525.2z" class="st26" style="fill:#151c28"/></g><g><path d="M751.2,428.8c0,1.8,1.3,3.5,1.7,5.2c0.4,1.8-0.1,3.8,0.7,5.4c0.8,1.6,2.7,2.5,3.8,3.9c1.1,1.4,1.6,3.5,3,4.6 c1.4,1.1,3.5,1.1,5.1,1.9c1.6,0.8,2.9,2.4,4.6,2.8c1.7,0.4,3.6-0.5,5.4-0.5s3.7,0.9,5.4,0.5c1.8-0.4,3.1-2.1,4.6-2.8 c1.6-0.8,3.7-0.8,5.1-1.9c1.4-1.1,1.8-3.2,3-4.6c1.1-1.4,3-2.3,3.8-3.9c0.8-1.6,0.3-3.6,0.7-5.4c0.4-1.7,1.7-3.3,1.7-5.2 s-1.3-3.5-1.7-5.2c-0.4-1.8,0.1-3.8-0.7-5.4c-0.8-1.6-2.7-2.5-3.8-3.9c-1.1-1.4-1.6-3.5-3-4.6c-1.4-1.1-3.5-1.1-5.1-1.9 c-1.6-0.8-2.9-2.4-4.6-2.8c-1.7-0.4-3.6,0.5-5.4,0.5s-3.7-0.9-5.4-0.5c-1.8,0.4-3.1,2.1-4.6,2.8c-1.6,0.8-3.7,0.8-5.1,1.9 c-1.4,1.1-1.8,3.2-3,4.6c-1.1,1.4-3,2.3-3.8,3.9c-0.8,1.6-0.3,3.6-0.7,5.4C752.6,425.3,751.2,426.9,751.2,428.8z" class="st19" style="fill:#214254"/><path d="M775.5,478.2L775.5,478.2c1.6,0,2.9-1.3,2.9-2.9v-43.6c0-1.6-1.3-2.9-2.9-2.9l0,0c-1.6,0-2.9,1.3-2.9,2.9 v43.6C772.6,476.8,773.9,478.2,775.5,478.2z" class="st26" style="fill:#151c28"/></g></g><path d="M645.1,77.3c-6,2.9-12.5,6.9-13.4,13.5c-1.3,10.3,11.7,15.8,21.9,17.7c15,2.8,42.2-6.5,44.9,8.5	c11.2,61.4-126.6,7.7-181.6,37.2c-8,4.3-16.3,11.2-16.2,20.3c0.2,15.4,21.3,19.5,36.7,18.7c95.6-5.3,191.2-10.6,286.8-15.8	c37.2-2.1,95.6,20,110.6-14.1c9-20.4-33.5-28.7-55.3-33.8c-21.7-5-65.6-1.4-61.9-23.4c3.8-22.4,45.3-3.4,66.5-11.4	c7.5-2.9,4.6-15.7-0.4-22c-5-6.3-12.8-9.6-20.4-12.1C793,37,711.3,45.3,645.1,77.3z" class="st27" style="fill:#a0e8e6"/><g><defs><path id="SVGID_7_" d="M 0 0 H 1400 V 980 H 0 V 0 Z"/></defs><clipPath id="SVGID_2_"><use style="overflow:visible" xlink:href="#SVGID_7_"/></clipPath><path style="clip-path:url(#SVGID_2_);fill:#a0e8e6" d="M1286.8,123.1c-2.9,1.5-6,3.1-7.9,5.7c-4.3,5.9-1.3,14.9,4.4,19.4 c5.8,4.5,13.4,5.8,20.6,7c14,2.2,27.9,4.4,41.9,6.6c9.2,1.5,21,6.2,19.9,15.4c-0.7,5.7-6.4,9.3-11.8,11.4 c-28.4,11.3-60.2,3.7-90.5-0.7c-44.4-6.6-89.9-6.2-134.2,1.1c-16,2.6-36.3,12.8-32,28.5c3,11.2,16.8,14.9,28.3,16.5 c67.2,9.5,134.9,16,202.7,19.6c14.1,0.7,28.7,1.3,41.8-3.9s24.4-17.7,23.7-31.8c-0.3-4.8-1.5-10.7,2.3-13.6 c1.6-1.2,3.6-1.5,5.6-1.8c19.9-2.3,40,0.9,59.9-1c60-5.8,68.9-81.7,13.2-100.5C1416.8,81.4,1339.7,96.5,1286.8,123.1z"/></g><g><defs><path id="SVGID_9_" d="M 0 0 H 1400 V 980 H 0 V 0 Z"/></defs><clipPath id="SVGID_4_"><use style="overflow:visible" xlink:href="#SVGID_9_"/></clipPath><path style="clip-path:url(#SVGID_4_);fill:#a0e8e6" d="M97.4-6.9c8,0,16.3,0,23.6,3.5s12.9,11.5,11,19.3 c-2.2,8.8-12.5,12.9-21.5,13.5s-18.6-0.8-26.9,2.8c-8.3,3.6-16.2,18.8-7.7,21.8c46.2,16.3,97.7-8,146.7-6.8 c9,0.2,18.4,0.7,26.4,4.8s18.5,15.2,12.5,21.9c-15.5,17.4-49.9-3.1-68.7,10.7c-7.6,5.6,4.3,18.6,13,22.2c8.7,3.6,18.5,2.7,27.9,1.9 c46.8-4,93.8-4.7,140.7-2.2c11.1,0.6,24.9,3.6,27.3,14.4c3.2,14.2-15.8,22-30.2,23.5c-53.3,5.4-107,5.7-160.3,1.1 c-22.2-1.9-142,15.2-150.2,16c-36.6,3.5-72.7-18.7-109.5-20.3c-0.9,0,18.3-126.2,27.7-137.2C-0.5-20.1,67.8-6.8,97.4-6.9z"/></g><g><g><g><path d="M1143.7,231.3c-0.7,0-1.2-0.5-1.2-1.2v-21.2c0-0.7,0.5-1.2,1.2-1.2c0.7,0,1.2,0.5,1.2,1.2v21.2 C1144.9,230.8,1144.4,231.3,1143.7,231.3z" class="st19" style="fill:#214254"/><path d="M1150.7,231.3c-0.7,0-1.2-0.5-1.2-1.2v-21.2c0-0.7,0.5-1.2,1.2-1.2s1.2,0.5,1.2,1.2v21.2 C1151.9,230.8,1151.3,231.3,1150.7,231.3z" class="st19" style="fill:#214254"/><path d="M1157.6,231.3c-0.7,0-1.2-0.5-1.2-1.2v-21.2c0-0.7,0.5-1.2,1.2-1.2s1.2,0.5,1.2,1.2v21.2 C1158.8,230.8,1158.3,231.3,1157.6,231.3z" class="st19" style="fill:#214254"/><path d="M1164.6,231.3c-0.7,0-1.2-0.5-1.2-1.2v-21.2c0-0.7,0.5-1.2,1.2-1.2c0.7,0,1.2,0.5,1.2,1.2v21.2 C1165.8,230.8,1165.3,231.3,1164.6,231.3z" class="st19" style="fill:#214254"/><path d="M1171.6,231.3c-0.7,0-1.2-0.5-1.2-1.2v-21.2c0-0.7,0.5-1.2,1.2-1.2s1.2,0.5,1.2,1.2v21.2 C1172.8,230.8,1172.2,231.3,1171.6,231.3z" class="st19" style="fill:#214254"/><path d="M1178.5,231.3c-0.7,0-1.2-0.5-1.2-1.2v-21.2c0-0.7,0.5-1.2,1.2-1.2s1.2,0.5,1.2,1.2v21.2 C1179.7,230.8,1179.2,231.3,1178.5,231.3z" class="st19" style="fill:#214254"/><path d="M1185.5,231.3c-0.7,0-1.2-0.5-1.2-1.2v-21.2c0-0.7,0.5-1.2,1.2-1.2s1.2,0.5,1.2,1.2v21.2 C1186.7,230.8,1186.2,231.3,1185.5,231.3z" class="st19" style="fill:#214254"/></g></g><path d="M1164.5,63.9c-35.3,0-64,19.8-64,63.5c0,30,35.2,61.2,41.9,81.5h22h22c6.8-20.3,41.9-51.5,41.9-81.5 C1228.5,83.7,1199.8,63.9,1164.5,63.9z" class="st25" style="fill:#f46c4d"/><path d="M1179.9,65.3c-4.9-0.9-10.1-1.4-15.4-1.4c-5.3,0-10.5,0.4-15.4,1.4c-7.2,10.2-12,29.1-12,57.7 c0,31.6,15,64.5,17.9,85.9h9.4h9.4c2.9-21.4,17.9-54.3,17.9-85.9C1191.8,94.4,1187.1,75.5,1179.9,65.3z" class="st24" style="fill:#ca413b"/><path d="M1174.7,274.4h-20.2c-6.6,0-12-5.4-12-12v-32.2h44.2v32.2C1186.7,269,1181.3,274.4,1174.7,274.4z" class="st19" style="fill:#214254"/></g></svg>