<svg xmlns="http://www.w3.org/2000/svg" id="master-artboard" width="1400" height="980" x="0" y="0" enable-background="new 0 0 1400 980" version="1.1" viewBox="0 0 1400 980"><g><g transform="matrix(1, 0, 0, 1, 2.842170943040401e-14, 7.105427357601002e-15)"><linearGradient id="XMLID_6_" x1="700" x2="700" y1="191.739" y2="516.549" gradientUnits="userSpaceOnUse"><stop offset=".03" style="stop-color:#b1c0c9"/><stop offset="1" style="stop-color:#e0e9ed"/></linearGradient><path id="XMLID_3_" fill="url(#XMLID_6_)" d="M 0 0 H 1400 V 980 H 0 V 0 Z"/></g></g><path fill="#B1C0C9" d="M51,625.9c0,0,286.1-29,365.3-96.8s110.9-67.3,152.1-79c41.2-11.7,95.1-165.9,114.1-154.5 c19,11.4,28.5,35.3,85.5,66.2s69.7,12.7,85.5,34.6c15.8,22,105.1,154.5,195,189.5c90,35,115.5-14.1,191.5,53.4s91.9,99.4,91.9,99.4 L923.3,924.1L235.7,781.2L51,625.9z" transform="matrix(1, 0, 0, 1, 2.842170943040401e-14, 7.105427357601002e-15)"/><linearGradient id="SVGID_1_" x1="1316.134" x2="1316.134" y1="476.768" y2="754.745" gradientUnits="userSpaceOnUse"><stop offset="0" style="stop-color:#8ea3ae"/><stop offset=".987" style="stop-color:#b1c0c9"/></linearGradient><path fill="url(#SVGID_1_)" d="M1300.2,697.8l5,53.1l26.8-12.2C1332,738.7,1325.4,725.4,1300.2,697.8z" transform="matrix(1, 0, 0, 1, 5.684341886080802e-14, 1.4210854715202004e-14)"/><linearGradient id="SVGID_2_" x1="644.925" x2="644.925" y1="476.768" y2="754.745" gradientUnits="userSpaceOnUse"><stop offset="0" style="stop-color:#8ea3ae"/><stop offset=".987" style="stop-color:#b1c0c9"/></linearGradient><path fill="url(#SVGID_2_)" d="M792.8,780.9c0,0-59.3-84.8-52.2-112.2c7-27.3-35.5-141.2-35.5-141.2c21,6.9,70.5,86.1,87.8,107 s111,88.6,111,88.6s-9.7-7.5-21.7-28.5c-12-21,4.5-39-5.8-72s-37.8-45-60.2-78s21-39,0-72.2c-21-33.2-72.3-71.8-72.3-71.8l-6.4,63 c0,0-30.7-40.5-41.8-63c-11-22.5,9.5-36-4-64.5c-13.5-28.5-9-40.5-9-40.5c-19-11.4-72.9,142.8-114.1,154.5 c-41.2,11.7-72.9,11.1-152.1,79S51,625.9,51,625.9l184.7,155.3l687.5,142.9l315.5-143.1H792.8z" transform="matrix(1, 0, 0, 1, 5.684341886080802e-14, 1.4210854715202004e-14)"/><path fill="#ED7C31" d="M1390.1,271.5c2.7,1.4,6,2.7,9.9,4V0L964.7,0c-0.5,0.3-0.9,0.6-1.4,0.9c0-0.3,0.1-0.6,0.1-0.9l-57.9,0 c3.2,1.9,6.3,3.2,8.5,3.7c3.2,0.7,7.9,3.3,12.2,5.8c0.2,0.6,0.3,1.3,0.4,1.9c-0.2,0.1-0.4,0.1-0.6,0.2c-3.6-0.2-6.9,0-9.9,0.4 c-4.2-2.4-8.1-4.3-11.8-5.7c-0.9-1.5-1.4-3.7-1.8-6.3L760.9,0c0.3,2,0.9,3.9,1.6,5.3c0,0-0.1,0.1-0.1,0.1c-2.7-2-5.1-3.9-6.9-5.4 L734,0c-4.3,5.2-10.7,10.9-10.7,10.9c13.2-2.5,22.8-6.1,29.8-9.9c3.5,21,13.6,32.7,23.4,39.1c-12.5-2-23.9,0.6-28.7,2.9 c-7.5,3.6-31.5,5.6-31.5,5.6c20.8,8.9,37.3,11.2,49.8,10.6c-5.8,4.4-9.1,9.2-10.1,12.2c-2.2,6.5-17.7,20.5-17.7,20.5 c23.1-4.4,37.2-11.4,45.7-18.3c-0.2,6.2,1.9,11.4,3.8,14.1c4.3,5.8,5.8,24.1,5.8,24.1c12.7-15.3,16.6-27.6,16.5-37.1 c5.5,4.6,11.7,7.3,15.6,8.2c1.2,0.3,2.6,0.8,4.1,1.4c-1.3,1.2-2.1,2-2.1,2c1.5-0.3,3-0.6,4.4-0.9c0.5,0.2,0.9,0.4,1.4,0.7 c-1,0.1-1.6,0.2-1.6,0.2c1.4,0.6,2.8,1.2,4.2,1.7c-1,0.1-1.7,0.1-1.7,0.1c3.2,1.6,6.2,2.8,9.1,3.8c4.8,3,8.4,5.6,8.4,5.6 c-0.3-1.3-0.7-2.5-1.1-3.7c1.7,0.3,3.3,0.4,4.8,0.5c0.3,0.1,0.7,0.2,1,0.2c-2.7,1.8-4.3,3.9-4.9,5.2c-1.3,2.9-9.1,9-9.1,9 c10.9-1.5,17.7-4.3,21.9-7.3c-0.4,2.8,0.3,5.3,1.1,6.6c1,1.7,1.4,5.4,1.5,8.1c-5.3,6.4-13.2,13.6-13.2,13.6 c23.1-4.4,37.2-11.4,45.7-18.3c-0.2,6.2,1.9,11.4,3.8,14.1c0.5,0.6,0.9,1.4,1.3,2.4c-4.6,0.6-8.4,0.9-8.4,0.9 c3.5,1.5,6.8,2.7,10,3.7c2.1,7.5,2.9,17.1,2.9,17.1c4.2-5,7.3-9.6,9.8-14c5,0.8,9.4,1,13.3,0.8c-4.2,3.2-6.5,6.7-7.2,8.8 c-1.6,4.7-12.8,14.8-12.8,14.8c15-2.9,24.7-7.2,30.9-11.7c0.9,1.7,1.9,3.3,2.9,4.7c0.5,1.7,1.2,3,1.9,4c0.5,0.6,0.9,1.5,1.3,2.4 c-5.7-0.2-10.6,1-12.9,2.1c-4.4,2.1-18.6,3.3-18.6,3.3c12.3,5.2,22,6.6,29.4,6.2c-3.4,2.6-5.3,5.5-5.9,7.2 c-1.3,3.8-10.4,12.1-10.4,12.1c13.7-2.6,21.9-6.7,27-10.8c-0.1,3.6,1.1,6.7,2.3,8.3c2.5,3.4,3.4,14.2,3.4,14.2 c1.9-2.3,3.5-4.5,4.7-6.6v11.7c2.3,2.4,5.1,4.9,8.8,7.6c0,0,1.5-11.2,5.8-14.8c2-1.7,4-4.9,3.8-8.7c8.5,4.3,22.6,8.6,45.7,11.3 c0,0-15.5-8.6-17.7-12.6c-1-1.8-4.3-4.8-10.1-7.5c12.5,0.4,29-1.1,49.8-6.5c0,0-24-1.3-31.5-3.5c-3.9-1.1-12.2-2.4-21.8-2.2 c0.6-1,1.4-1.9,2.2-2.5c1.2-1,2.3-2.4,3.2-4.1c1.8-1.4,3.4-3.1,4.9-4.9c10.6,4.7,27.1,9.2,52.4,12.2c0,0-19-10.5-21.6-15.4 c-1.2-2.2-5.2-5.9-12.3-9.2c6.6,0.2,14.1,0,22.6-0.9c4.1,4.6,9.5,9.4,16.6,14.6c0,0,1.3-10,4.8-17.8c5.4-1.1,11-2.3,16.9-3.9 c0,0-6.4-0.3-14.2-1c0.7-0.9,1.4-1.8,2.2-2.5c3.4-2.8,6.8-8.3,6.5-14.7c10.2,5.1,25,10.2,46.5,14.4c14.8,4.8,27.1,6.2,36.9,5.7 c-5.8,4.4-9.1,9.2-10.1,12.2c-2.2,6.5-17.7,20.5-17.7,20.5c23.1-4.4,37.2-11.4,45.7-18.3c-0.2,6.2,1.9,11.4,3.8,14.1 c4.3,5.8,5.8,24.1,5.8,24.1c12.7-15.3,16.6-27.6,16.5-37.1c5.5,4.6,11.7,7.3,15.6,8.2c1.2,0.3,2.6,0.8,4.1,1.4 c-1.3,1.2-2.1,2-2.1,2c1.5-0.3,3-0.6,4.4-0.9c0.5,0.2,0.9,0.4,1.4,0.7c-1,0.1-1.6,0.2-1.6,0.2c1.4,0.6,2.8,1.2,4.2,1.7 c-1,0.1-1.7,0.1-1.7,0.1c3.2,1.6,6.2,2.8,9.1,3.8c4.8,3,8.4,5.6,8.4,5.6c-0.3-1.3-0.7-2.5-1.1-3.7c1.7,0.3,3.3,0.4,4.8,0.5 c0.3,0.1,0.7,0.2,1,0.2c-2.7,1.8-4.3,3.9-4.9,5.2c-1.3,2.9-9.1,9-9.1,9c10.9-1.5,17.7-4.3,21.9-7.3c-0.4,2.8,0.3,5.3,1.1,6.6 c1,1.7,1.4,5.4,1.5,8.1c-5.3,6.4-13.2,13.6-13.2,13.6c23.1-4.4,37.2-11.4,45.7-18.3c-0.2,6.2,1.9,11.4,3.8,14.1 c0.5,0.6,0.9,1.4,1.3,2.3c-4.6,0.6-8.4,0.9-8.4,0.9c3.5,1.5,6.8,2.7,10,3.7c2.1,7.5,2.9,17.1,2.9,17.1c4.2-5,7.3-9.6,9.8-14 c5,0.8,9.4,1,13.3,0.8c-4.2,3.2-6.5,6.7-7.3,8.8c-1.6,4.7-12.8,14.8-12.8,14.8c15-2.9,24.7-7.2,30.9-11.7c0.9,1.7,1.9,3.3,2.9,4.7 c0.5,1.7,1.2,3,1.9,4c0.5,0.6,0.9,1.5,1.3,2.4c-5.7-0.2-10.6,1-12.9,2.1c-4.4,2.1-18.6,3.3-18.6,3.3c12.3,5.2,22,6.6,29.4,6.2 c-3.4,2.6-5.3,5.5-5.9,7.2c-1.3,3.8-10.4,12.1-10.4,12.1c13.7-2.6,21.9-6.7,27-10.8c-0.1,3.6,1.1,6.7,2.3,8.3 c2.5,3.4,3.4,14.2,3.4,14.2c1.9-2.3,3.5-4.5,4.7-6.6v11.7c2.3,2.4,5.1,4.9,8.8,7.6c0,0,1.5-11.2,5.8-14.8 C1388.2,278.5,1390.3,275.3,1390.1,271.5z M783.3,17.1c-2.2-1.3-4.2-2.3-5.9-2.9c1.6-3.1,2.7-6,3.4-8.6c0.2,1,0.6,1.8,0.9,2.3 C782.9,9.8,783.2,14.4,783.3,17.1z M797.5,5.9c-3.4,5.7-5.3,11-6.1,15.6c-0.6,0.1-1.3,0.2-1.9,0.3c-1.6-1.5-3.3-2.8-5-3.9 c5.5-6,7.6-11,8-15c0.3,0.1,0.6,0.2,0.8,0.3C794.7,4.3,796.2,5.2,797.5,5.9z M820.9,18.9c-1.1-0.2-2.1-0.4-3.2-0.6 c0.5-0.2,1.1-0.5,1.6-0.7C819.8,18.1,820.3,18.5,820.9,18.9z M842.8,70.5c-0.6,0.8-1.2,1.6-1.9,2.4c-1.5-2.1-3.1-4-4.7-5.7 c0.5-0.7,1-1.4,1.5-2.1c1,0.2,2,0.4,3,0.6c0.1,0.2,0.3,0.5,0.4,0.6C841.7,67.3,842.3,68.8,842.8,70.5z M858.3,82.2 c-3.2,0.8-7,1.5-10.8,2c-0.4-0.9-0.8-1.8-1.3-2.7c3.7-1.2,7.1-2.4,10.2-3.7c0.4,0.7,0.7,1.4,1.1,2C857.7,80.8,858,81.5,858.3,82.2 z M910.7,13.1c-1.5,0.4-2.7,0.9-3.7,1.3c-0.1,0.1-0.3,0.1-0.4,0.2c0-0.5-0.1-1-0.1-1.4C907.9,13.1,909.3,13.1,910.7,13.1z M937.8,120.6c-0.4,0.4-0.8,0.8-1.2,1.3c-4.6-0.3-8.8,0.1-12,0.8c1.1-3.9,1.5-7.4,1.4-10.6c2.7,2.2,5.6,4,8.2,5.4 C935.4,118.6,936.6,119.7,937.8,120.6z M961.3,80.9c-1.2-0.2-2.3-0.4-3.5-0.6c0-0.7,0.1-1.3,0-1.9C959,79.3,960.1,80.1,961.3,80.9 z M978.3,4.8c-1.9-0.8-4-1.6-6.3-2.3c2-0.6,4-1.1,5.8-1.6C977.8,2.1,978,3.4,978.3,4.8z M987.7,87.7c-1.9,0.2-3.9,0.4-5.8,0.6 c1.9-0.8,3.9-1.6,5.8-2.6C987.6,86.3,987.6,87,987.7,87.7z M1044.1,131.9c-5.6-0.8-12.7-1.2-20.4-0.9c-0.7-0.4-1.3-0.9-2-1.3 c2-1,4-2.1,6-3.3c4.6-1.4,9.4-3.3,14-5.6C1041.6,124.2,1042.3,127.9,1044.1,131.9z M1081.9,1.7c-0.3,1.9-0.8,3.6-1.5,5.2 c-0.9,0.4-1.7,0.9-2.5,1.4c0.5-1.9,0.6-3.6,0.6-5.2c1.1-0.5,2.2-0.9,3.3-1.5C1081.9,1.6,1081.9,1.6,1081.9,1.7z M1158,89.9 c-0.5-0.1-1.1-0.2-1.6-0.2c0.4-0.6,0.7-1.3,1.1-2C1157.6,88.4,1157.8,89.2,1158,89.9z M1164.7,105.3c-1.4-1-3.3-2.1-5.7-3.1 c0.5-0.1,1.1-0.2,1.6-0.2c0.7,0,1.4-0.1,2.1-0.1C1163.3,103.1,1164,104.2,1164.7,105.3z M1179.6,120.8c-12.5-2-23.9,0.6-28.7,2.9 c-1.9,0.9-4.8,1.7-8.1,2.4c-0.6-0.4-1.2-0.9-1.8-1.3c0.2-2.8,0.8-6.7,2.6-8.5c1.3-1.3,2.6-3.9,1.9-6.9c5.9,2.6,14.8,5,28,6.6 C1175.6,117.8,1177.6,119.4,1179.6,120.8z M1188,98c2.6-0.7,5.3-1.4,8.2-2.3c-0.8,2.2-1.4,4.4-1.8,6.4c-0.6,0.1-1.3,0.2-1.9,0.3 c-1.6-1.5-3.3-2.8-5-3.9C1187.7,98.4,1187.8,98.2,1188,98z M1196.5,94.8c-0.1,0.3-0.2,0.5-0.2,0.7c-0.5,0-1.3,0-2.5-0.1 C1194.6,95.3,1195.6,95,1196.5,94.8z M1223.9,99.6c-1.1-0.2-2.1-0.4-3.2-0.6c0.5-0.2,1.1-0.5,1.6-0.7 C1222.8,98.8,1223.3,99.2,1223.9,99.6z M1245.8,151.2c-0.6,0.8-1.2,1.6-1.9,2.4c-1.5-2.1-3.1-4-4.7-5.7c0.5-0.7,1-1.4,1.5-2.1 c1,0.2,2,0.4,3,0.6c0.1,0.2,0.3,0.5,0.4,0.6C1244.8,147.9,1245.3,149.5,1245.8,151.2z M1261.3,162.9c-3.2,0.8-7,1.5-10.8,2 c-0.4-0.9-0.8-1.8-1.3-2.7c3.7-1.2,7.1-2.4,10.2-3.7c0.4,0.7,0.7,1.4,1.1,2C1260.7,161.4,1261,162.2,1261.3,162.9z M1313.7,93.8 c-1.5,0.4-2.7,0.9-3.7,1.3c-0.1,0.1-0.3,0.1-0.4,0.2c0-0.5-0.1-1-0.1-1.4C1310.9,93.8,1312.4,93.8,1313.7,93.8z M1340.8,201.3 c-0.4,0.4-0.8,0.8-1.2,1.3c-4.6-0.3-8.8,0.1-12,0.8c1.1-3.9,1.5-7.4,1.4-10.6c2.7,2.2,5.6,4,8.2,5.4 C1338.4,199.3,1339.6,200.3,1340.8,201.3z M1348.4,68.8c-0.1,0.2-0.2,0.4-0.3,0.6c0-0.3,0-0.5,0-0.8 C1348.2,68.7,1348.3,68.8,1348.4,68.8z M1364.3,161.6c-1.2-0.2-2.3-0.4-3.5-0.6c0-0.7,0.1-1.3,0-1.9 C1362,160,1363.1,160.8,1364.3,161.6z M1370.1,79.3c-1.3,0.7-2.6,1.5-3.7,2.2c0.2-1.3,0.3-2.5,0.3-3.7 C1367.7,78.2,1368.9,78.7,1370.1,79.3z M1381.3,85.5c-1.9-0.8-4-1.6-6.3-2.3c2-0.6,4-1.1,5.8-1.6 C1380.8,82.8,1381,84.1,1381.3,85.5z M1384.9,169c1.9-0.8,3.9-1.6,5.8-2.6c0,0.7,0,1.3,0.1,2 C1388.8,168.6,1386.8,168.7,1384.9,169z" transform="matrix(1, 0, 0, 1, 5.684341886080802e-14, 1.4210854715202004e-14)"/><path fill="#ED7C31" d="M689.5,0c-2.4,5.2-6.4,10.9-12.6,17.3c0,0,0.2-11.5-1.9-17.3L689.5,0z" transform="matrix(1, 0, 0, 1, 5.684341886080802e-14, 1.4210854715202004e-14)"/><path fill="#ED7C31" d="M721.4,0c0.8,2.6,1.5,5.4,2,8.5c0,0-5.9-4.8-11.8-8.5L721.4,0z" transform="matrix(1, 0, 0, 1, 5.684341886080802e-14, 1.4210854715202004e-14)"/><path fill="#F09B36" d="M1086.9,13.7c-3.9,45.1-7.1,80.9-7.1,80.9V13.7h-17.1c-1.8,219.1-4.8,448.2-4.8,448.2 s-24.1-124.3-22.1-154.6c0.8-12.2,1.1-142.2,1.1-293.6h-5.5c-0.1,165.5,0,313.6,1,335.5c2.4,52.6,24.9,155.5,25.5,197.9 c0.6,42.4-5.3,426-5.3,426h21.3c0,0,0.6-630.5,3-687.7c1.5-35.3,10.8-165.2,19-271.7H1086.9z" transform="matrix(1, 0, 0, 1, 2.842170943040401e-14, 7.105427357601002e-15)"/><path fill="#ABC178" d="M268.4,647.5c0,0,288.6-35.3,363.5-80.9l35.6,40.8c0,0-21.9,17.5-18.7,47.6c3.1,30.1,27.7,36.7,31.2,54.4 c3.5,17.7-12.8,49.4,49.3,94.9c62.1,45.5-148.7-6.8-148.7-6.8S293.6,710.3,268.4,647.5z" transform="matrix(1, 0, 0, 1, 2.842170943040401e-14, 7.105427357601002e-15)"/><path fill="#6E9E75" d="M633.8,568.8l-1.9-2.2c-3.1,1.9-6.7,3.8-10.5,5.7L633.8,568.8z" transform="matrix(1, 0, 0, 1, 5.684341886080802e-14, 1.4210854715202004e-14)"/><path fill="#6E9E75" d="M729.2,804.2c-7.8-5.7-14.3-11.2-19.8-16.4l-4.4,7.9L525,764c0,0-29-45-24-45.5c5-0.5,12.7-14.5,32-23.8 c19.3-9.3,95-10.7,88.3-16.7c-6.7-6-140.3-15-135.3-23s60-10,80-12.8s64.1-13.2,64.1-13.2l-47.1-4.2l38.3-52.6 c-88.1,42.9-353,75.2-353,75.2c25.3,62.8,312.1,149.9,312.1,149.9S791.3,849.7,729.2,804.2z" transform="matrix(1, 0, 0, 1, 5.684341886080802e-14, 1.4210854715202004e-14)"/><path fill="#9FBC2E" d="M1391,796.2V660.1c0,0-229.8,118.6-512.1,122.1S494,691.1,434.1,651.7S147.6,573.9,10.7,323.5L0,896.4 h1353.6L1391,796.2z" transform="matrix(1, 0, 0, 1, 2.842170943040401e-14, 7.105427357601002e-15)"/><path fill="#B1C0C9" d="M732.8,774.1c0,0-83,16.9-87.9,21.9s133.3,5.5,145.1,19s-285.5,35-285.5,35l12.7,13.4l134.9,33L805,860 c0,0,46-47.5,41-52.7s-130-6-141-11.6s52-18.6,52-18.6L732.8,774.1z" transform="matrix(1, 0, 0, 1, 2.842170943040401e-14, 7.105427357601002e-15)"/><path fill="#406325" d="M91.9,627.7c3.5-3.1,4.7-12.9,4.7-12.9c2.9,2.3,5.2,4.5,7.1,6.6v10.1c1-1.8,2.3-3.7,3.8-5.7 c0,0,0.7,9.3,2.8,12.3c1,1.4,1.9,4.1,1.8,7.2c4.1-3.6,10.8-7.1,21.9-9.4c0,0-7.4,7.2-8.5,10.5c-0.5,1.5-2.1,4-4.8,6.3 c6-0.3,13.9,0.9,23.9,5.4c0,0-11.5,1.1-15.1,2.9c-1.9,1-5.8,2-10.4,1.8c0.3,0.8,0.7,1.6,1,2.1c0.6,0.8,1.1,2,1.5,3.4 c0.8,1.2,1.6,2.5,2.4,4.1c5.1-3.9,13-7.6,25.1-10.1c0,0-9.1,8.8-10.4,12.8c-0.6,1.9-2.5,4.9-5.9,7.6c3.2-0.2,6.8,0,10.8,0.7 c2-3.8,4.6-7.8,7.9-12.2c0,0,0.6,8.3,2.3,14.8c2.6,0.9,5.3,1.9,8.1,3.2c0,0-3.1,0.3-6.8,0.8c0.3,0.8,0.7,1.5,1.1,2 c1.6,2.3,3.3,6.9,3.1,12.2c6.9-6,18.3-12.1,37.1-15.9c0,0-6.4,6.2-10.7,11.8c0.1,2.3,0.4,5.6,1.2,7c0.6,1.1,1.2,3.3,0.9,5.7 c3.4-2.6,9-5.1,17.8-6.3c0,0-6.3,5.3-7.4,7.8c-0.5,1.1-1.8,2.9-4,4.5c0.3,0.1,0.5,0.1,0.8,0.2c1.2,0.1,2.5,0.2,3.9,0.4 c-0.3-1.1-0.6-2.1-0.9-3.2c0,0,3,2.2,6.9,4.8c2.3,0.8,4.7,1.9,7.4,3.3c0,0-0.5,0-1.4,0.1c1.1,0.5,2.2,1,3.4,1.5c0,0-0.5,0-1.3,0.1 c0.4,0.2,0.7,0.4,1.1,0.6c1.2-0.3,2.4-0.5,3.6-0.8c0,0-0.7,0.6-1.7,1.7c1.2,0.6,2.3,1,3.3,1.2c3.1,0.8,8.2,3.2,12.7,7.1 c-0.1-8.2,3-19,13.4-32.2c0,0,1.2,15.8,4.7,20.9c1.6,2.3,3.3,6.9,3.1,12.2c6.9-6,18.3-12.1,37.1-15.9c0,0-12.6,12.1-14.4,17.8 c-0.8,2.6-3.5,6.8-8.2,10.6c8-0.4,17.9,0.8,29.9,5c17.5,3.6,29.5,8.1,37.8,12.5c-0.3-5.6,2.5-10.3,5.3-12.8 c0.7-0.6,1.3-1.3,1.8-2.1c-6.3-0.5-11.5-0.8-11.5-0.8c4.8-1.3,9.4-2.5,13.7-3.4c2.9-6.8,3.9-15.5,3.9-15.5 c5.7,4.5,10.1,8.7,13.5,12.7c6.9-0.7,13-0.9,18.3-0.7c-5.7-2.9-9-6-10-8c-2.2-4.2-17.6-13.4-17.6-13.4 c20.6,2.6,33.9,6.5,42.6,10.6c1.2-1.6,2.6-3,4-4.2c0.7-1.5,1.7-2.7,2.6-3.6c0.6-0.6,1.2-1.3,1.8-2.2c-7.8,0.2-14.5-0.9-17.7-1.9 c-6.1-1.9-25.6-3-25.6-3c16.9-4.7,30.3-6,40.5-5.6c-4.7-2.3-7.4-4.9-8.2-6.5c-1.8-3.5-14.4-10.9-14.4-10.9 c18.8,2.4,30.2,6.1,37.1,9.8c-0.2-3.3,1.5-6.1,3.1-7.5c3.5-3.1,4.7-12.9,4.7-12.9c2.9,2.3,5.2,4.5,7.1,6.6v10.1 c1-1.8,2.3-3.7,3.8-5.7c0,0,0.7,9.3,2.8,12.3c1,1.4,1.9,4.1,1.8,7.2c4.1-3.6,10.8-7.1,21.9-9.4c0,0-7.4,7.2-8.5,10.5 c-0.5,1.5-2.1,4-4.8,6.3c6-0.3,13.9,0.9,23.9,5.4c0,0-11.5,1.1-15.1,2.9c-1.9,1-5.8,2-10.4,1.8c0.3,0.8,0.7,1.6,1,2.1 c0.6,0.8,1.1,2,1.6,3.4c0.8,1.2,1.6,2.5,2.4,4.1c5.1-3.9,13-7.6,25.1-10.1c0,0-9.1,8.8-10.4,12.8c-0.6,1.9-2.5,4.9-5.9,7.6 c3.2-0.2,6.8,0,10.8,0.7c2-3.8,4.6-7.8,7.9-12.2c0,0,0.6,8.3,2.3,14.8c2.6,0.9,5.3,1.9,8.1,3.2c0,0-3.1,0.3-6.8,0.8 c0.3,0.8,0.7,1.5,1.1,2c1.6,2.3,3.3,6.9,3.1,12.2c6.9-6,18.3-12.1,37.1-15.9c0,0-6.4,6.2-10.7,11.8c0.1,2.3,0.4,5.6,1.2,7 c0.6,1.1,1.2,3.3,0.9,5.7c3.4-2.6,9-5.1,17.8-6.3c0,0-6.3,5.3-7.4,7.8c-0.5,1.1-1.8,2.9-4,4.5c0.3,0.1,0.5,0.1,0.8,0.2 c1.2,0.1,2.5,0.2,3.9,0.4c-0.3-1.1-0.6-2.1-0.9-3.2c0,0,3,2.2,6.9,4.8c2.3,0.8,4.7,1.9,7.4,3.3c0,0-0.5,0-1.4,0.1 c1.1,0.5,2.2,1,3.4,1.5c0,0-0.5,0-1.3,0.1c0.4,0.2,0.7,0.4,1.1,0.6c1.2-0.3,2.4-0.5,3.6-0.8c0,0-0.7,0.6-1.7,1.7 c1.2,0.6,2.3,1,3.3,1.2c3.1,0.8,8.2,3.2,12.7,7.1c-0.1-8.2,3-19,13.4-32.2c0,0,1.2,15.8,4.7,20.9c1.6,2.3,3.3,6.9,3.1,12.2 c6.9-6,18.3-12.1,37.1-15.9c0,0-12.6,12.1-14.4,17.8c-0.8,2.6-3.5,6.8-8.2,10.6c10.2-0.5,23.6,1.5,40.5,9.2c0,0-19.5,1.8-25.6,4.9 c-3.9,2-13.2,4.3-23.3,2.5c8,5.6,16.2,15.7,19,33.9c5.6-3.3,13.4-6.4,24.2-8.6c0,0-5.1,5-8.7,9.5H604c-1.4-1.3-3.4-3-5.6-4.7 c0,0-0.1,0.1-0.1,0.1c0.6,1.3,1,2.8,1.3,4.6h-115c-0.3-2.2-0.8-4.1-1.5-5.4c-3-1.2-6.2-2.9-9.5-5c-2.4,0.4-5.1,0.5-8,0.3 c-0.2,0.1-0.3,0.1-0.5,0.2c0.1,0.6,0.2,1.1,0.4,1.6c3.4,2.2,7.3,4.4,9.9,5.1c1.8,0.4,4.3,1.5,6.9,3.2h-47.1c0-0.2,0.1-0.5,0.1-0.8 c-0.4,0.3-0.7,0.5-1.1,0.8H80.7V631.7c3.2,1.1,5.9,2.3,8.1,3.5C88.6,631.9,90.2,629.1,91.9,627.7z M582.7,864 c0.3,0.5,0.6,1.2,0.7,2c0.6-2.3,1.5-4.8,2.8-7.5c-1.4-0.5-3-1.4-4.8-2.5C581.5,858.3,581.8,862.3,582.7,864z M573.3,868.1 c0.2,0.1,0.5,0.2,0.7,0.3c0.4-3.5,2.1-7.9,6.5-13c-1.4-1-2.7-2.1-4-3.4c-0.5,0.1-1,0.1-1.5,0.2c-0.7,4-2.2,8.6-5,13.6 C570.9,866.3,572.1,867.1,573.3,868.1z M552.2,855.5c0.4-0.2,0.8-0.4,1.3-0.6c-0.8-0.1-1.7-0.3-2.6-0.5 C551.4,854.8,551.8,855.1,552.2,855.5z M534.6,813.3c0.1,0.2,0.2,0.4,0.3,0.6c0.8,0.1,1.6,0.3,2.4,0.5c0.4-0.6,0.8-1.2,1.2-1.8 c-1.3-1.5-2.6-3.1-3.8-4.9c-0.5,0.7-1.1,1.4-1.5,2C533.5,811.1,534,812.5,534.6,813.3z M521.2,801.5c0.3,0.5,0.6,1.1,0.9,1.7 c2.5-1.1,5.2-2.2,8.3-3.2c-0.4-0.7-0.7-1.5-1-2.3c-3,0.5-6.2,1.1-8.8,1.8C520.8,800.1,521,800.7,521.2,801.5z M481.4,859.4 c0-0.4-0.1-0.8-0.1-1.3c-0.1,0.1-0.2,0.1-0.3,0.2c-0.8,0.4-1.8,0.8-3,1.2C479.1,859.4,480.3,859.4,481.4,859.4z M458.9,768.9 c2.2,1.2,4.5,2.7,6.7,4.7c0-2.8,0.3-5.9,1.2-9.2c-2.7,0.6-6.1,1-9.8,0.7c-0.3,0.4-0.6,0.7-0.9,1.1 C457,767,457.9,767.9,458.9,768.9z M439.7,802.8c0-0.5,0-1.1,0-1.7c-0.9-0.1-1.8-0.3-2.8-0.5C437.8,801.3,438.8,802,439.7,802.8z M423.5,870.1c1.5-0.4,3.1-0.8,4.7-1.4c-1.8-0.7-3.5-1.3-5.1-2C423.4,867.8,423.5,869,423.5,870.1z M415.5,796.5 c1.5-0.8,3.1-1.6,4.7-2.3c-1.6,0.2-3.2,0.4-4.8,0.5C415.5,795.3,415.5,795.9,415.5,796.5z M371.6,766c3.7-2,7.6-3.7,11.3-4.9 c1.6-1.1,3.2-2,4.9-2.8c-0.5-0.4-1.1-0.8-1.6-1.1c-6.3,0.3-12.1-0.1-16.6-0.8C371.1,759.8,371.7,763.1,371.6,766z M339,869.5 c0.9-0.5,1.8-0.9,2.7-1.3c0-1.4,0.1-2.9,0.5-4.5c-0.6,0.4-1.3,0.8-2.1,1.2C339.6,866.2,339.2,867.8,339,869.5 C339,869.4,339,869.4,339,869.5z M277.6,794.7c0.2-0.6,0.5-1.2,0.9-1.7c-0.4-0.1-0.9-0.1-1.3-0.2 C277.3,793.4,277.5,794.1,277.6,794.7z M273.4,782.4c0.6,0,1.1-0.1,1.7-0.1c0.4-0.1,0.9-0.1,1.3-0.2c-2-0.9-3.5-1.8-4.6-2.7 C272.3,780.4,272.8,781.4,273.4,782.4z M264.5,770.1c10.7,1.4,17.9,3.5,22.8,5.8c-0.5-2.6,0.5-4.8,1.6-6c1.4-1.5,1.9-4.9,2.1-7.3 c-0.5-0.4-1-0.8-1.5-1.1c-2.7,0.6-5,1.3-6.6,2.1c-3.9,2-13.2,4.3-23.3,2.5C261.3,767.2,262.9,768.6,264.5,770.1z M253.2,785.3 c-1.4-1-2.7-2.1-4-3.4c-0.5,0.1-1,0.1-1.5,0.2c-0.3,1.8-0.8,3.6-1.4,5.6c2.3-0.7,4.5-1.4,6.6-2 C252.9,785.6,253.1,785.5,253.2,785.3z M248.1,787.9c-0.9,0-1.6,0-2-0.1c-0.1,0.2-0.1,0.4-0.2,0.6 C246.7,788.3,247.4,788.1,248.1,787.9z M225,785.5c0.4-0.2,0.8-0.4,1.3-0.6c-0.8-0.1-1.7-0.3-2.6-0.5 C224.1,784.8,224.5,785.1,225,785.5z M207.3,743.3c0.1,0.2,0.2,0.4,0.3,0.6c0.8,0.1,1.6,0.3,2.4,0.5c0.4-0.6,0.8-1.2,1.2-1.8 c-1.3-1.5-2.6-3.1-3.8-4.9c-0.5,0.7-1.1,1.4-1.5,2C206.2,741.1,206.7,742.4,207.3,743.3z M193.9,731.5c0.3,0.5,0.6,1.1,0.9,1.7 c2.5-1.1,5.2-2.2,8.3-3.2c-0.4-0.7-0.7-1.5-1-2.3c-3,0.5-6.2,1.1-8.8,1.8C193.5,730,193.7,730.7,193.9,731.5z M154.2,789.4 c0-0.4-0.1-0.8-0.1-1.3c-0.1,0.1-0.2,0.1-0.3,0.2c-0.8,0.4-1.8,0.8-3,1.2C151.8,789.4,153,789.4,154.2,789.4z M131.6,698.9 c2.2,1.2,4.5,2.7,6.7,4.7c0-2.8,0.3-5.9,1.2-9.2c-2.7,0.6-6.1,1-9.8,0.7c-0.3,0.4-0.6,0.7-0.9,1.1 C129.7,697,130.7,697.9,131.6,698.9z M122.8,811.3c0-0.2,0-0.5,0-0.7c-0.1,0.2-0.2,0.3-0.2,0.5 C122.7,811.1,122.7,811.2,122.8,811.3z M112.4,732.8c0-0.5,0-1.1,0-1.7c-0.9-0.1-1.8-0.3-2.8-0.5 C110.6,731.3,111.5,732,112.4,732.8z M107.7,803.3c0-1,0.1-2.1,0.2-3.2c-0.9,0.7-1.9,1.3-3,1.9 C105.9,802.5,106.9,802.9,107.7,803.3z M96.2,800c1.5-0.4,3.1-0.8,4.7-1.4c-1.8-0.7-3.6-1.3-5.1-2C96.1,797.8,96.2,799,96.2,800z M88.2,724.7c0,0.6,0.1,1.2,0.1,1.8c1.5-0.8,3.1-1.6,4.7-2.3C91.3,724.4,89.8,724.5,88.2,724.7z" transform="matrix(1, 0, 0, 1, 5.684341886080802e-14, 1.4210854715202004e-14)"/><path fill="#406325" d="M657.6,870.8c2-4.5,5.2-9.5,10.2-15c0,0-0.1,10,1.6,15H657.6z" transform="matrix(1, 0, 0, 1, 5.684341886080802e-14, 1.4210854715202004e-14)"/><path fill="#406325" d="M631.7,870.8c-0.7-2.3-1.2-4.7-1.6-7.4c0,0,4.8,4.2,9.5,7.4H631.7z" transform="matrix(1, 0, 0, 1, 5.684341886080802e-14, 1.4210854715202004e-14)"/><path fill="#82A53C" d="M90,878.6V750.5c0,0,215,111.7,479,115s360-85.8,416-122.9c56-37,268-73.3,396-309l10,539.5H125L90,878.6z" transform="matrix(1, 0, 0, 1, 2.842170943040401e-14, 7.105427357601002e-15)"/><path fill="#82A53C" d="M 88.900002 2.7 H 119.000002 V 964.600024 H 88.900002 V 2.7 Z" transform="matrix(1, 0, 0, 1, 2.842170943040401e-14, 7.105427357601002e-15)"/><path fill="#AA962E" d="M933,7.6c0,0-6,181.4,28,293.4s30,100,36,156s2,452.2-16,480.1h82c0,0-26-24.9-28-69.5 c-2-44.6-6-407.5-12-434.1s-8-138.9-10-198.7s16-227.2,16-227.2h-16c0,0-6.4,299.4-15.2,315.4S957,237,957,207S947,7.6,947,7.6H933 z" transform="matrix(1, 0, 0, 1, 2.842170943040401e-14, 7.105427357601002e-15)"/><path fill="#406325" d="M1389.1,662c3-1.6,6.6-3.2,10.9-4.7V980H923c-0.5-0.3-1-0.7-1.5-1c0.1,0.3,0.1,0.7,0.1,1h-63.5 c3.5-2.3,6.9-3.7,9.3-4.3c3.5-0.9,8.7-3.9,13.3-6.8c0.2-0.7,0.3-1.5,0.5-2.2c-0.2-0.1-0.4-0.1-0.6-0.2c-3.9,0.3-7.6,0-10.8-0.5 c-4.6,2.8-8.8,5-12.9,6.7c-0.9,1.8-1.6,4.4-2,7.3H699.7c0.4-2.4,1-4.5,1.8-6.2c0,0-0.1-0.1-0.1-0.1c-2.9,2.3-5.6,4.6-7.6,6.3 h-23.6c-4.8-6.1-11.7-12.8-11.7-12.8c14.5,3,25,7.1,32.6,11.6c3.9-24.6,14.9-38.3,25.7-45.8c-13.7,2.4-26.2-0.7-31.4-3.4 c-8.2-4.2-34.5-6.6-34.5-6.6c22.8-10.4,40.9-13.1,54.6-12.4c-6.3-5.1-9.9-10.8-11-14.3c-2.4-7.6-19.4-24-19.4-24 c25.4,5.2,40.8,13.3,50.1,21.5c-0.2-7.2,2-13.4,4.2-16.5c4.7-6.8,6.4-28.2,6.4-28.2c14,17.9,18.2,32.4,18,43.5 c6-5.4,12.9-8.6,17.1-9.6c1.3-0.3,2.8-0.9,4.5-1.7c-1.4-1.4-2.3-2.3-2.3-2.3c1.7,0.3,3.3,0.7,4.9,1.1c0.5-0.3,1-0.5,1.5-0.8 c-1.1-0.1-1.8-0.2-1.8-0.2c1.6-0.7,3.1-1.4,4.6-2c-1.1-0.1-1.9-0.1-1.9-0.1c3.5-1.9,6.8-3.3,9.9-4.4c5.2-3.5,9.3-6.5,9.3-6.5 c-0.4,1.5-0.8,3-1.2,4.4c1.9-0.3,3.6-0.5,5.3-0.6c0.4-0.1,0.7-0.2,1.1-0.3c-2.9-2.1-4.7-4.5-5.4-6.1c-1.4-3.4-9.9-10.5-9.9-10.5 c11.9,1.7,19.3,5,24,8.5c-0.4-3.3,0.4-6.2,1.2-7.7c1.1-2,1.5-6.3,1.7-9.5c-5.8-7.5-14.5-15.9-14.5-15.9 c25.4,5.2,40.8,13.3,50.1,21.5c-0.2-7.2,2-13.4,4.2-16.5c0.5-0.8,1-1.7,1.5-2.8c-5-0.7-9.2-1.1-9.2-1.1c3.8-1.7,7.5-3.2,10.9-4.4 c2.3-8.8,3.1-20,3.1-20c4.5,5.8,8.1,11.3,10.7,16.4c5.5-0.9,10.3-1.2,14.6-1c-4.6-3.7-7.2-7.8-7.9-10.3c-1.7-5.5-14-17.3-14-17.3 c16.4,3.4,27,8.4,33.9,13.7c1-2,2-3.8,3.2-5.5c0.6-1.9,1.3-3.5,2.1-4.6c0.5-0.7,1-1.7,1.4-2.9c-6.2,0.3-11.6-1.2-14.1-2.5 c-4.8-2.5-20.3-3.9-20.3-3.9c13.5-6.1,24.1-7.7,32.2-7.3c-3.7-3-5.9-6.4-6.5-8.4c-1.4-4.5-11.4-14.2-11.4-14.2 c15,3.1,24,7.9,29.6,12.7c-0.1-4.3,1.2-7.9,2.5-9.7c2.8-4,3.8-16.6,3.8-16.6c2.1,2.7,3.8,5.3,5.2,7.7v-13.7 c2.5-2.8,5.6-5.7,9.6-8.9c0,0,1.6,13.2,6.4,17.4c2.2,1.9,4.4,5.7,4.2,10.2c9.4-5,24.8-10,50.1-13.2c0,0-17,10.1-19.4,14.8 c-1.1,2.1-4.7,5.7-11,8.8c13.7-0.4,31.8,1.2,54.6,7.6c0,0-26.3,1.5-34.5,4c-4.3,1.3-13.3,2.9-23.9,2.6c0.7,1.2,1.5,2.2,2.4,3 c1.3,1.1,2.6,2.8,3.5,4.8c1.9,1.7,3.7,3.6,5.4,5.7c11.7-5.5,29.7-10.8,57.5-14.3c0,0-20.8,12.3-23.7,18.1 c-1.3,2.6-5.7,6.9-13.5,10.8c7.2-0.2,15.5,0,24.7,1c4.5-5.3,10.5-11,18.2-17.1c0,0,1.5,11.7,5.3,20.9c5.9,1.2,12,2.7,18.5,4.5 c0,0-7,0.4-15.5,1.1c0.8,1.1,1.6,2.1,2.5,2.9c3.7,3.3,7.5,9.7,7.1,17.2c11.1-6,27.4-12,51-16.9c16.2-5.6,29.7-7.2,40.4-6.7 c-6.3-5.1-9.9-10.8-11-14.3c-2.4-7.6-19.4-24-19.4-24c25.4,5.2,40.8,13.3,50.1,21.5c-0.2-7.2,2-13.4,4.2-16.5 c4.7-6.8,6.4-28.2,6.4-28.2c14,17.9,18.2,32.4,18,43.5c6-5.4,12.9-8.6,17.1-9.6c1.3-0.3,2.8-0.9,4.5-1.7c-1.4-1.4-2.3-2.3-2.3-2.3 c1.7,0.3,3.3,0.7,4.9,1.1c0.5-0.3,1-0.5,1.5-0.8c-1.1-0.1-1.8-0.2-1.8-0.2c1.6-0.7,3.1-1.4,4.6-2c-1.1-0.1-1.9-0.1-1.9-0.1 c3.5-1.9,6.8-3.3,9.9-4.4c5.2-3.5,9.3-6.5,9.3-6.5c-0.4,1.5-0.8,3-1.2,4.4c1.9-0.3,3.6-0.5,5.3-0.6c0.4-0.1,0.7-0.2,1.1-0.3 c-2.9-2.1-4.7-4.5-5.4-6.1c-1.4-3.4-9.9-10.5-9.9-10.5c11.9,1.7,19.3,5,24,8.5c-0.4-3.3,0.4-6.2,1.2-7.7c1.1-2,1.5-6.3,1.7-9.5 c-5.8-7.5-14.5-15.9-14.5-15.9c25.4,5.2,40.8,13.3,50.1,21.5c-0.2-7.2,2-13.4,4.2-16.5c0.5-0.8,1-1.7,1.5-2.8 c-5-0.7-9.2-1.1-9.2-1.1c3.8-1.7,7.5-3.2,10.9-4.4c2.3-8.8,3.1-20,3.1-20c4.5,5.8,8.1,11.3,10.7,16.4c5.5-0.9,10.3-1.2,14.6-1 c-4.6-3.7-7.2-7.8-7.9-10.3c-1.7-5.5-14-17.3-14-17.3c16.4,3.4,27,8.4,33.9,13.7c1-2,2-3.8,3.2-5.5c0.6-1.9,1.3-3.5,2.1-4.6 c0.5-0.7,1-1.7,1.4-2.9c-6.2,0.3-11.6-1.2-14.1-2.5c-4.8-2.5-20.3-3.9-20.3-3.9c13.5-6.1,24.1-7.7,32.2-7.3 c-3.7-3-5.9-6.4-6.5-8.4c-1.4-4.5-11.4-14.2-11.4-14.2c15,3.1,24,7.9,29.6,12.7c-0.1-4.3,1.2-7.9,2.5-9.7c2.8-4,3.8-16.6,3.8-16.6 c2.1,2.7,3.8,5.3,5.2,7.7v-13.7c2.5-2.8,5.6-5.7,9.6-8.9c0,0,1.6,13.2,6.4,17.4C1387.1,653.8,1389.3,657.6,1389.1,662z M724.1,960 c-2.4,1.6-4.6,2.7-6.5,3.4c1.7,3.6,3,7,3.8,10.1c0.3-1.1,0.6-2.1,1-2.7C723.7,968.5,724.1,963.1,724.1,960z M739.7,973.1 c-3.8-6.7-5.8-12.8-6.7-18.3c-0.7-0.1-1.4-0.2-2.1-0.3c-1.8,1.7-3.6,3.2-5.5,4.5c6,7,8.3,12.9,8.8,17.6c0.3-0.1,0.6-0.2,0.9-0.3 C736.7,974.9,738.3,973.9,739.7,973.1z M765.3,957.9c-1.2,0.3-2.3,0.5-3.5,0.7c0.6,0.3,1.2,0.5,1.7,0.8 C764.2,958.8,764.7,958.3,765.3,957.9z M789.3,897.5c-0.6-0.9-1.3-1.8-2-2.8c-1.7,2.4-3.4,4.7-5.2,6.7c0.6,0.8,1.1,1.6,1.6,2.4 c1.1-0.3,2.2-0.5,3.2-0.7c0.2-0.3,0.3-0.5,0.5-0.8C788.2,901.2,788.8,899.5,789.3,897.5z M806.3,883.7c-3.5-0.9-7.7-1.7-11.8-2.4 c-0.5,1.1-0.9,2.1-1.4,3.1c4.1,1.4,7.8,2.8,11.2,4.4c0.4-0.8,0.8-1.6,1.2-2.3C805.7,885.4,806,884.5,806.3,883.7z M863.8,964.6 c-1.6-0.5-3-1-4-1.6c-0.1-0.1-0.3-0.1-0.4-0.2c0,0.6-0.1,1.1-0.2,1.7C860.7,964.6,862.3,964.6,863.8,964.6z M893.4,838.8 c-0.4-0.5-0.8-1-1.3-1.5c-5,0.4-9.6-0.1-13.2-1c1.2,4.5,1.6,8.7,1.6,12.5c2.9-2.6,6.1-4.7,9-6.3 C890.8,841.1,892.1,839.9,893.4,838.8z M919.2,885.3c-1.3,0.3-2.5,0.5-3.8,0.7c0,0.8,0.1,1.5,0,2.3 C916.7,887.1,917.9,886.1,919.2,885.3z M937.9,974.4c-2.1,0.9-4.4,1.8-6.9,2.7c2.2,0.7,4.4,1.3,6.4,1.8 C937.3,977.5,937.5,976,937.9,974.4z M948.1,877.3c-2.1-0.2-4.2-0.4-6.4-0.7c2.1,0.9,4.3,1.9,6.3,3.1 C948,878.9,948.1,878.1,948.1,877.3z M1009.9,825.5c-6.1,0.9-13.9,1.4-22.4,1c-0.7,0.5-1.4,1-2.2,1.5c2.2,1.1,4.4,2.4,6.6,3.8 c5,1.7,10.3,3.9,15.3,6.6C1007.2,834.6,1008,830.2,1009.9,825.5z M1051.4,978.1c-0.4-2.2-0.9-4.3-1.6-6.1c-1-0.5-1.9-1-2.8-1.6 c0.5,2.2,0.7,4.2,0.7,6.1c1.2,0.5,2.5,1.1,3.7,1.7C1051.4,978.1,1051.4,978.1,1051.4,978.1z M1134.8,874.7 c-0.6,0.1-1.2,0.2-1.8,0.3c0.5,0.7,0.8,1.5,1.2,2.3C1134.4,876.4,1134.6,875.5,1134.8,874.7z M1142.1,856.7 c-1.6,1.2-3.6,2.4-6.3,3.6c0.6,0.1,1.2,0.2,1.8,0.3c0.7,0,1.5,0.1,2.3,0.1C1140.6,859.3,1141.4,858,1142.1,856.7z M1158.5,838.6 c-13.7,2.4-26.2-0.7-31.4-3.4c-2.1-1-5.2-2-8.9-2.8c-0.7,0.5-1.3,1-2,1.5c0.2,3.3,0.9,7.8,2.8,9.9c1.5,1.6,2.8,4.6,2.1,8.1 c6.5-3,16.3-5.9,30.7-7.8C1154,842,1156.2,840.1,1158.5,838.6z M1167.7,865.2c2.9,0.8,5.9,1.6,8.9,2.7c-0.9-2.6-1.5-5.2-1.9-7.5 c-0.7-0.1-1.4-0.2-2.1-0.3c-1.8,1.7-3.6,3.2-5.5,4.5C1167.3,864.8,1167.5,865,1167.7,865.2z M1176.9,868.9 c-0.1-0.3-0.2-0.6-0.3-0.9c-0.5,0-1.4,0-2.7,0.1C1174.9,868.4,1175.9,868.7,1176.9,868.9z M1207,863.4c-1.2,0.3-2.3,0.5-3.5,0.7 c0.6,0.3,1.2,0.5,1.7,0.8C1205.8,864.3,1206.4,863.8,1207,863.4z M1231,803c-0.6-0.9-1.3-1.8-2.1-2.8c-1.7,2.4-3.4,4.7-5.2,6.7 c0.6,0.8,1.1,1.6,1.6,2.4c1.1-0.3,2.2-0.5,3.2-0.7c0.2-0.3,0.3-0.5,0.5-0.8C1229.9,806.7,1230.5,805,1231,803z M1248,789.2 c-3.5-0.9-7.7-1.7-11.8-2.4c-0.5,1.1-0.9,2.1-1.4,3.1c4.1,1.4,7.8,2.8,11.2,4.4c0.4-0.8,0.8-1.6,1.2-2.3 C1247.4,790.9,1247.7,790,1248,789.2z M1305.4,870.1c-1.6-0.5-3-1-4-1.6c-0.1-0.1-0.3-0.1-0.4-0.2c0,0.6-0.1,1.1-0.2,1.7 C1302.4,870.1,1303.9,870.2,1305.4,870.1z M1335.1,744.3c-0.4-0.5-0.8-1-1.3-1.5c-5,0.4-9.6-0.1-13.2-1c1.2,4.5,1.6,8.7,1.6,12.5 c2.9-2.6,6.1-4.7,9-6.3C1332.5,746.6,1333.8,745.4,1335.1,744.3z M1343.4,899.4c-0.1-0.2-0.2-0.5-0.3-0.7c0,0.3,0,0.6,0,0.9 C1343.2,899.5,1343.3,899.5,1343.4,899.4z M1360.9,790.8c-1.3,0.3-2.5,0.5-3.8,0.7c0,0.8,0.1,1.5,0,2.3 C1358.3,792.6,1359.6,791.7,1360.9,790.8z M1367.2,887.1c-1.5-0.9-2.8-1.7-4.1-2.6c0.2,1.5,0.3,3,0.3,4.4 C1364.6,888.4,1365.9,887.8,1367.2,887.1z M1379.6,879.9c-2.1,0.9-4.4,1.8-6.9,2.7c2.2,0.7,4.4,1.3,6.4,1.8 C1379,883,1379.1,881.5,1379.6,879.9z M1383.4,782.1c2.1,0.9,4.3,1.9,6.3,3.1c0-0.8,0-1.6,0.1-2.4 C1387.7,782.6,1385.6,782.4,1383.4,782.1z" transform="matrix(1, 0, 0, 1, 5.684341886080802e-14, 1.4210854715202004e-14)"/><path fill="#406325" d="M621.3,980c-2.6-6-7-12.8-13.8-20.3c0,0,0.2,13.5-2.1,20.3H621.3z" transform="matrix(1, 0, 0, 1, 5.684341886080802e-14, 1.4210854715202004e-14)"/><path fill="#406325" d="M656.4,980c0.9-3.1,1.6-6.4,2.2-10c0,0-6.5,5.7-12.9,10H656.4z" transform="matrix(1, 0, 0, 1, 5.684341886080802e-14, 1.4210854715202004e-14)"/><path fill="#406325" d="M1199.3,893.1c-88.9,11.3-195.7,36.7-278.7,44c-83,7.3-305.4,28.7-531.6-83.5S7.6,527.5,7.6,527.5V973H1391 V735.6C1391,735.6,1288.3,881.8,1199.3,893.1z" transform="matrix(1, 0, 0, 1, 2.842170943040401e-14, 7.105427357601002e-15)"/><path fill="#B07E09" d="M222.4,305c4.6,3.8,6.2,15.7,6.2,15.7c3.8-2.8,6.8-5.5,9.3-8v-12.4c1.4,2.2,3,4.5,5,7c0,0,0.9-11.4,3.6-15 c1.2-1.7,2.5-5,2.4-8.8c5.3,4.4,14.1,8.7,28.6,11.5c0,0-9.7-8.7-11.1-12.8c-0.6-1.9-2.7-4.9-6.3-7.6c7.8,0.4,18.1-1.1,31.1-6.6 c0,0-15-1.3-19.7-3.5c-2.4-1.2-7.6-2.5-13.6-2.2c0.4-1,0.9-1.9,1.3-2.6c0.7-1,1.5-2.4,2-4.2c1.1-1.5,2.1-3.1,3.1-4.9 c6.7,4.8,16.9,9.3,32.8,12.4c0,0-11.9-10.7-13.5-15.6c-0.8-2.3-3.3-6-7.7-9.3c4.1,0.2,8.8,0,14.1-0.9c2.6,4.6,6,9.6,10.4,14.8 c0,0,0.8-10.2,3-18.1c3.3-1.1,6.9-2.4,10.6-3.9c0,0-4-0.3-8.8-1c0.4-1,0.9-1.8,1.4-2.5c2.1-2.8,4.3-8.4,4.1-14.9 c9,7.4,23.9,14.7,48.4,19.4c0,0-8.4-7.5-14-14.4c0.1-2.9,0.5-6.8,1.6-8.6c0.8-1.4,1.6-4,1.2-7c4.5,3.2,11.7,6.2,23.2,7.7 c0,0-8.2-6.4-9.6-9.5c-0.6-1.4-2.3-3.6-5.2-5.5c0.3-0.1,0.7-0.2,1-0.2c1.6-0.1,3.3-0.2,5.1-0.5c-0.4,1.3-0.8,2.6-1.1,4 c0,0,3.9-2.7,8.9-5.9c3-1,6.2-2.3,9.6-4c0,0-0.7,0-1.8-0.1c1.5-0.6,2.9-1.2,4.4-1.8c0,0-0.6-0.1-1.7-0.2c0.5-0.2,1-0.5,1.5-0.7 c1.5,0.3,3.1,0.7,4.7,1c0,0-0.9-0.8-2.2-2.1c1.6-0.7,3-1.2,4.3-1.5c4.1-1,10.7-3.9,16.5-8.7c-0.2,10.1,3.9,23.2,17.4,39.3 c0,0,1.6-19.3,6.2-25.5c2.1-2.8,4.3-8.4,4.1-14.9c9,7.4,23.9,14.7,48.4,19.4c0,0-16.4-14.8-18.7-21.7c-1.1-3.2-4.5-8.3-10.6-12.9 c10.4,0.5,23.4-0.9,39-6c22.8-4.4,38.5-9.8,49.3-15.2c-0.4,6.8,3.3,12.6,6.9,15.6c0.9,0.7,1.6,1.6,2.4,2.6c-8.2,0.7-15,1-15,1 c6.3,1.6,12.2,3,17.9,4.1c3.7,8.3,5.1,18.9,5.1,18.9c7.5-5.5,13.2-10.7,17.6-15.5c8.9,0.9,16.9,1.1,23.9,0.9 c-7.5,3.5-11.7,7.4-13,9.7c-2.8,5.2-22.9,16.3-22.9,16.3c26.9-3.2,44.3-7.9,55.5-12.9c1.6,1.9,3.3,3.6,5.2,5.2 c0.9,1.8,2.2,3.3,3.4,4.4c0.8,0.7,1.6,1.6,2.3,2.7c-10.2-0.2-19,1.1-23.1,2.3c-7.9,2.3-33.3,3.7-33.3,3.7 c22,5.8,39.5,7.3,52.8,6.9c-6.1,2.9-9.6,6-10.6,8c-2.3,4.2-18.7,13.4-18.7,13.4c24.5-2.9,39.4-7.4,48.4-12c-0.2,4,2,7.4,4.1,9.2 c4.6,3.8,6.2,15.7,6.2,15.7c3.8-2.8,6.8-5.5,9.3-8v-12.4c1.4,2.2,3,4.5,5,7c0,0,0.9-11.4,3.6-15c1.2-1.7,2.5-5,2.4-8.8 c5.3,4.4,14.1,8.7,28.6,11.5c0,0-9.7-8.7-11.1-12.8c-0.6-1.9-2.7-4.9-6.3-7.6c7.8,0.4,18.1-1.1,31.1-6.6c0,0-15-1.3-19.7-3.5 c-2.4-1.2-7.6-2.5-13.6-2.2c0.4-1,0.9-1.9,1.3-2.6c0.7-1,1.5-2.4,2-4.2c1.1-1.5,2.1-3.1,3.1-4.9c6.7,4.8,16.9,9.3,32.8,12.4 c0,0-11.9-10.7-13.5-15.6c-0.8-2.3-3.3-6-7.7-9.3c4.1,0.2,8.8,0,14.1-0.9c2.6,4.6,6,9.6,10.4,14.8c0,0,0.8-10.2,3-18.1 c3.3-1.1,6.9-2.4,10.6-3.9c0,0-4-0.3-8.8-1c0.4-1,0.9-1.8,1.4-2.5c2.1-2.8,4.3-8.4,4.1-14.9c9,7.4,23.9,14.7,48.4,19.4 c0,0-8.4-7.5-14-14.4c0.1-2.9,0.5-6.8,1.6-8.6c0.8-1.4,1.6-4,1.2-7c4.5,3.2,11.7,6.2,23.2,7.7c0,0-8.2-6.4-9.6-9.5 c-0.6-1.4-2.3-3.6-5.2-5.5c0.3-0.1,0.7-0.2,1-0.2c1.6-0.1,3.3-0.2,5.1-0.5c-0.4,1.3-0.8,2.6-1.1,4c0,0,3.9-2.7,8.9-5.9 c3-1,6.2-2.3,9.6-4c0,0-0.7,0-1.8-0.1c1.5-0.6,2.9-1.2,4.4-1.8c0,0-0.6-0.1-1.7-0.2c0.5-0.3,1-0.5,1.5-0.7c1.5,0.3,3.1,0.7,4.7,1 c0,0-0.9-0.8-2.2-2.1c1.6-0.7,3-1.2,4.3-1.5c4.1-1,10.7-3.9,16.5-8.7c-0.2,10.1,3.9,23.2,17.4,39.3c0,0,1.6-19.3,6.2-25.5 c2.1-2.8,4.3-8.4,4.1-14.9c9,7.4,23.9,14.7,48.4,19.4c0,0-16.4-14.8-18.7-21.7c-1.1-3.2-4.5-8.3-10.6-12.9 c13.3,0.6,30.7-1.8,52.8-11.2c0,0-25.4-2.2-33.3-5.9c-5.1-2.4-17.2-5.2-30.4-3.1c10.4-6.8,21.1-19.1,24.8-41.4 c7.4,4.1,17.5,7.8,31.5,10.5c0,0-6.7-6-11.3-11.6h-22.8c-1.9,1.5-4.5,3.6-7.3,5.7c0,0-0.1-0.1-0.1-0.1c0.7-1.5,1.4-3.5,1.7-5.6 h-150c-0.4,2.7-1,5-1.9,6.6c-3.9,1.5-8.1,3.5-12.5,6.1c-3.1-0.4-6.7-0.7-10.5-0.4c-0.2-0.1-0.4-0.1-0.6-0.2c0.1-0.7,0.3-1.3,0.5-2 c4.5-2.7,9.5-5.4,12.9-6.2c2.3-0.5,5.6-1.8,9-3.9h-61.4c0,0.3,0.1,0.6,0.1,0.9c-0.5-0.3-1-0.6-1.5-0.9h-461v291.8 c4.2-1.4,7.7-2.8,10.5-4.3C218.2,299.8,220.3,303.2,222.4,305z M862.6,16.6c0.4-0.6,0.7-1.5,1-2.5c0.8,2.8,2,5.9,3.6,9.2 c-1.8,0.6-4,1.7-6.3,3.1C861,23.5,861.3,18.7,862.6,16.6z M850.3,11.6c0.3-0.1,0.6-0.2,0.9-0.3c0.5,4.3,2.7,9.6,8.5,15.9 c-1.8,1.2-3.6,2.5-5.3,4.1c-0.7-0.1-1.4-0.2-2-0.3c-0.9-4.9-2.8-10.5-6.5-16.5C847.2,13.8,848.8,12.9,850.3,11.6z M822.8,27 c0.5,0.2,1.1,0.5,1.7,0.7c-1.1,0.2-2.2,0.4-3.3,0.6C821.7,27.9,822.3,27.4,822.8,27z M799.8,78.5c0.2-0.2,0.3-0.4,0.5-0.7 c1-0.2,2.1-0.4,3.1-0.6c0.5,0.7,1,1.4,1.5,2.2c-1.7,1.8-3.4,3.8-5,6c-0.7-0.8-1.4-1.7-2-2.5C798.4,81.1,799,79.5,799.8,78.5z M782.3,92.8c0.4-0.7,0.8-1.4,1.2-2.1c3.2,1.4,6.8,2.7,10.8,3.9c-0.5,0.9-0.9,1.9-1.3,2.8c-4-0.6-8-1.3-11.4-2.2 C781.8,94.6,782.1,93.8,782.3,92.8z M730.5,22.2c-0.1,0.5-0.1,1-0.2,1.5c-0.1-0.1-0.3-0.1-0.4-0.2c-1-0.5-2.3-1-3.9-1.4 C727.5,22.2,729,22.2,730.5,22.2z M701.1,132.7c2.8-1.4,5.9-3.3,8.7-5.7c-0.1,3.4,0.4,7.2,1.5,11.3c-3.5-0.8-7.9-1.3-12.8-0.9 c-0.4-0.4-0.8-0.9-1.2-1.3C698.6,135,699.9,133.9,701.1,132.7z M676.1,91.3c0,0.7,0,1.4,0,2.1c-1.2,0.2-2.4,0.4-3.7,0.6 C673.7,93.1,674.9,92.3,676.1,91.3z M654.9,9.2c1.9,0.5,4,1,6.1,1.7c-2.4,0.8-4.6,1.6-6.7,2.5C654.8,11.9,654.9,10.5,654.9,9.2z M644.6,99c2,1,4.1,1.9,6.1,2.8c-2.1-0.2-4.2-0.4-6.2-0.6C644.5,100.4,644.6,99.7,644.6,99z M587.3,136.2c4.8,2.5,10,4.5,14.8,6 c2.1,1.3,4.2,2.5,6.3,3.5c-0.7,0.5-1.4,0.9-2.1,1.4c-8.2-0.4-15.7,0.1-21.6,0.9C586.7,143.7,587.4,139.8,587.3,136.2z M544.8,9.9 c1.2,0.6,2.4,1.1,3.5,1.6c0,1.7,0.2,3.5,0.7,5.5c-0.8-0.5-1.7-1-2.7-1.4c-0.7-1.7-1.2-3.5-1.6-5.5C544.7,10,544.7,10,544.8,9.9z M464.7,101.1c0.3,0.8,0.7,1.5,1.1,2.1c-0.5,0.1-1.1,0.2-1.7,0.2C464.3,102.7,464.5,101.9,464.7,101.1z M459.1,116.2 c0.7,0,1.5,0.1,2.2,0.1c0.6,0.1,1.2,0.2,1.7,0.3c-2.6,1.1-4.5,2.2-6,3.3C457.8,118.6,458.5,117.4,459.1,116.2z M447.6,131.2 c14-1.7,23.4-4.3,29.7-7c-0.7,3.1,0.6,5.9,2,7.3c1.9,1.9,2.5,6,2.8,9c-0.6,0.5-1.3,0.9-1.9,1.4c-3.5-0.7-6.6-1.6-8.6-2.5 c-5.1-2.4-17.2-5.2-30.4-3.1C443.4,134.8,445.5,133.1,447.6,131.2z M432.9,112.6c-1.8,1.2-3.6,2.5-5.3,4.1c-0.7-0.1-1.4-0.2-2-0.3 c-0.4-2.2-1-4.4-1.9-6.8c3,0.9,5.9,1.7,8.6,2.4C432.5,112.2,432.7,112.4,432.9,112.6z M426.3,109.4c-1.2,0-2.1,0.1-2.6,0.1 c-0.1-0.3-0.2-0.5-0.3-0.8C424.3,108.9,425.3,109.2,426.3,109.4z M396,112.4c0.5,0.2,1.1,0.5,1.7,0.7c-1.1,0.2-2.2,0.4-3.3,0.6 C394.9,113.3,395.5,112.9,396,112.4z M373,163.9c0.2-0.2,0.3-0.4,0.5-0.7c1-0.2,2.1-0.4,3.1-0.6c0.5,0.7,1,1.4,1.5,2.2 c-1.7,1.8-3.4,3.8-5,6c-0.7-0.8-1.4-1.7-2-2.5C371.6,166.6,372.2,164.9,373,163.9z M355.5,178.3c0.4-0.7,0.8-1.4,1.2-2.1 c3.3,1.4,6.8,2.7,10.8,3.9c-0.5,0.9-0.9,1.9-1.3,2.8c-4-0.6-8-1.3-11.4-2.2C355,180.1,355.3,179.2,355.5,178.3z M303.7,107.7 c-0.1,0.5-0.1,1-0.2,1.5c-0.1-0.1-0.3-0.1-0.4-0.2c-1-0.5-2.3-1-3.9-1.4C300.7,107.6,302.2,107.6,303.7,107.7z M274.3,218.1 c2.8-1.4,5.9-3.3,8.7-5.7c-0.1,3.4,0.4,7.2,1.5,11.3c-3.5-0.8-7.9-1.3-12.8-0.9c-0.4-0.4-0.8-0.9-1.2-1.3 C271.8,220.4,273.1,219.3,274.3,218.1z M262.8,81c0,0.3,0,0.6,0,0.8c-0.1-0.2-0.2-0.4-0.3-0.6C262.6,81.1,262.7,81,262.8,81z M249.3,176.7c0,0.7,0,1.4,0,2.1c-1.2,0.2-2.4,0.4-3.7,0.6C246.9,178.6,248.1,177.7,249.3,176.7z M243.1,90.7c0,1.3,0.1,2.6,0.3,4 c-1.2-0.8-2.5-1.6-3.9-2.4C240.8,91.7,242,91.1,243.1,90.7z M228.1,94.7c1.9,0.5,4,1,6.1,1.7c-2.4,0.8-4.6,1.6-6.7,2.5 C228,97.4,228.1,96,228.1,94.7z M217.7,186.6c0.1-0.7,0.1-1.5,0.1-2.2c2,1,4.1,1.9,6.1,2.8C221.8,187,219.7,186.8,217.7,186.6z" transform="matrix(1, 0, 0, 1, 5.684341886080802e-14, 1.4210854715202004e-14)"/><path fill="#B07E09" d="M960.3,8.3c2.5,5.5,6.8,11.6,13.4,18.4c0,0-0.2-12.2,2-18.4H960.3z" transform="matrix(1, 0, 0, 1, 5.684341886080802e-14, 1.4210854715202004e-14)"/><path fill="#B07E09" d="M926.5,8.3c-0.9,2.8-1.6,5.8-2.1,9c0,0,6.3-5.1,12.4-9H926.5z" transform="matrix(1, 0, 0, 1, 5.684341886080802e-14, 1.4210854715202004e-14)"/><path fill="#B55232" d="M334.8,13.7V399c0,0-30.2-118-39.1-158c-9-40-12.3-227.3-12.3-227.3H271c0,0,1.1,205.3,11.2,239.3 s53.7,233.3,58.2,270.7s5.6,449.3,5.6,449.3h40.3c0,0-11.2-250.7-10.1-278.3c1.1-27.7,43.6-94.9,48.1-129.3 c4.5-34.4,0-545.6,0-545.6h-7.8c0,0-2.4,498.4,1.4,518.2s-41.7,101-41.7,101s-19-498-7.8-546c11.2-48,16.8-79.3,16.8-79.3L363.8,17 c0,0-6.7,50-10.1,50s-5.2-59.4-5.2-59.4L334.8,13.7z" transform="matrix(1, 0, 0, 1, 2.842170943040401e-14, 7.105427357601002e-15)"/><path fill="#B07E09" d="M1091.2,973h82.7c-15.1-159.8-36.3-424.6-18.9-496.4c25.5-105,10.5-198.1,15-235.3 c4.5-37.2,55.5-66,64.5-101.6s42-132,42-132H1251c0,0-27,105-37.5,120.2c-10.5,15.2-48,25.4-48,25.4L1158,7.6h-36 c0,0,18,287.8-10.5,404.6C1085,521,1093.5,871.8,1091.2,973z" transform="matrix(1, 0, 0, 1, 2.842170943040401e-14, 7.105427357601002e-15)"/><path fill="#406325" d="M10.9,307c4.7,3.9,6.4,16.2,6.4,16.2c4-2.9,7.1-5.7,9.6-8.3v-12.8c1.4,2.3,3.1,4.7,5.2,7.2 c0,0,1-11.8,3.8-15.6c1.3-1.7,2.6-5.1,2.5-9.1c5.5,4.5,14.6,9,29.6,11.9c0,0-10-9.1-11.4-13.2c-0.6-1.9-2.8-5.1-6.5-7.9 c8.1,0.4,18.8-1.1,32.2-6.8c0,0-15.5-1.3-20.3-3.6c-2.5-1.2-7.9-2.6-14.1-2.3c0.4-1.1,0.9-2,1.4-2.7c0.8-1,1.5-2.5,2.1-4.3 c1.1-1.5,2.2-3.2,3.2-5.1c6.9,4.9,17.5,9.6,33.9,12.8c0,0-12.3-11.1-14-16.2c-0.8-2.4-3.4-6.2-7.9-9.7c4.3,0.2,9.1,0,14.6-0.9 c2.7,4.8,6.2,9.9,10.7,15.4c0,0,0.9-10.5,3.1-18.7c3.5-1.1,7.1-2.4,10.9-4.1c0,0-4.1-0.4-9.2-1c0.4-1,0.9-1.9,1.5-2.6 c2.2-2.9,4.4-8.7,4.2-15.5c9.4,7.6,24.8,15.2,50.1,20.1c0,0-8.6-7.8-14.5-14.9c0.1-3,0.5-7,1.7-8.9c0.9-1.4,1.7-4.1,1.2-7.2 c4.7,3.3,12.1,6.4,24,8c0,0-8.5-6.6-9.9-9.8c-0.6-1.4-2.4-3.7-5.4-5.7c0.4-0.1,0.7-0.2,1.1-0.3c1.6-0.1,3.4-0.2,5.3-0.6 c-0.4,1.3-0.8,2.7-1.2,4.1c0,0,4-2.8,9.3-6.1c3.1-1,6.4-2.4,9.9-4.1c0,0-0.7,0-1.9-0.1c1.5-0.6,3-1.2,4.6-1.9c0,0-0.7-0.1-1.8-0.2 c0.5-0.3,1-0.5,1.5-0.7c1.6,0.3,3.2,0.7,4.9,1c0,0-0.9-0.8-2.3-2.2c1.6-0.7,3.1-1.2,4.5-1.5c4.3-1,11.1-4,17.1-9 c-0.2,10.4,4.1,24,18,40.7c0,0,1.6-20,6.4-26.4c2.2-2.9,4.4-8.7,4.2-15.5c9.4,7.6,24.8,15.2,50.1,20.1c0,0-17-15.3-19.4-22.4 c-1.1-3.3-4.7-8.6-11-13.4c10.7,0.5,24.2-1,40.4-6.3c23.6-4.6,39.8-10.2,51-15.8c-0.4,7.1,3.4,13.1,7.1,16.1 c0.9,0.7,1.7,1.7,2.5,2.7c-8.5,0.7-15.5,1.1-15.5,1.1c6.5,1.7,12.7,3.1,18.5,4.2c3.9,8.6,5.3,19.5,5.3,19.5 c7.7-5.7,13.6-11,18.2-16c9.3,0.9,17.5,1.2,24.7,0.9c-7.7,3.6-12.1,7.6-13.5,10.1c-2.9,5.3-23.7,16.9-23.7,16.9 c27.8-3.3,45.8-8.2,57.5-13.4c1.6,2,3.5,3.8,5.4,5.3c1,1.9,2.3,3.5,3.5,4.5c0.9,0.7,1.7,1.7,2.4,2.8c-10.6-0.2-19.6,1.2-23.9,2.4 c-8.2,2.4-34.5,3.8-34.5,3.8c22.8,6,40.9,7.5,54.6,7.1c-6.3,2.9-9.9,6.2-11,8.2c-2.4,4.4-19.4,13.8-19.4,13.8 c25.4-3,40.8-7.7,50.1-12.4c-0.2,4.2,2,7.7,4.2,9.5c4.7,3.9,6.4,16.2,6.4,16.2c4-2.9,7.1-5.7,9.6-8.3v-12.8 c1.4,2.3,3.1,4.7,5.2,7.2c0,0,1-11.8,3.8-15.6c1.3-1.7,2.6-5.1,2.5-9.1c5.5,4.5,14.6,9,29.6,11.9c0,0-10-9.1-11.4-13.2 c-0.6-1.9-2.8-5.1-6.5-7.9c8.1,0.4,18.8-1.1,32.2-6.8c0,0-15.5-1.3-20.3-3.6c-2.5-1.2-7.9-2.6-14.1-2.3c0.4-1.1,0.9-2,1.4-2.7 c0.8-1,1.5-2.5,2.1-4.3c1.1-1.5,2.2-3.2,3.2-5.1c6.9,4.9,17.5,9.6,33.9,12.8c0,0-12.3-11.1-14-16.2c-0.8-2.4-3.4-6.2-7.9-9.7 c4.3,0.2,9.1,0,14.6-0.9c2.7,4.8,6.2,9.9,10.7,15.4c0,0,0.9-10.5,3.1-18.7c3.5-1.1,7.1-2.4,10.9-4.1c0,0-4.1-0.4-9.2-1 c0.4-1,0.9-1.9,1.5-2.6c2.2-2.9,4.4-8.7,4.2-15.5c9.4,7.6,24.8,15.2,50.1,20.1c0,0-8.6-7.8-14.5-14.9c0.1-3,0.5-7,1.7-8.9 c0.9-1.4,1.7-4.1,1.2-7.2c4.7,3.3,12.1,6.4,24,8c0,0-8.5-6.6-9.9-9.8c-0.6-1.4-2.4-3.7-5.4-5.7c0.4-0.1,0.7-0.2,1.1-0.3 c1.6-0.1,3.4-0.2,5.3-0.6c-0.4,1.3-0.8,2.7-1.2,4.1c0,0,4-2.8,9.3-6.1c3.1-1,6.4-2.4,9.9-4.1c0,0-0.7,0-1.9-0.1 c1.5-0.6,3-1.2,4.6-1.9c0,0-0.7-0.1-1.8-0.2c0.5-0.3,1-0.5,1.5-0.7c1.6,0.3,3.2,0.7,4.9,1c0,0-0.9-0.8-2.3-2.2 c1.6-0.7,3.1-1.2,4.5-1.5c4.3-1,11.1-4,17.1-9c-0.2,10.4,4.1,24,18,40.7c0,0,1.6-20,6.4-26.4c2.2-2.9,4.4-8.7,4.2-15.5 c9.4,7.6,24.8,15.2,50.1,20.1c0,0-17-15.3-19.4-22.4c-1.1-3.3-4.7-8.6-11-13.4c13.7,0.7,31.8-1.9,54.6-11.6c0,0-26.3-2.2-34.5-6.2 c-5.3-2.5-17.8-5.4-31.4-3.2c10.8-7,21.8-19.8,25.7-42.8c7.6,4.2,18.1,8.1,32.6,10.9c0,0-6.9-6.3-11.7-12h-23.6 c-2,1.6-4.6,3.7-7.6,5.9c0,0-0.1-0.1-0.1-0.1c0.8-1.6,1.4-3.6,1.8-5.8H541c-0.4,2.7-1.1,5.2-2,6.9c-4,1.6-8.3,3.6-12.9,6.3 c-3.2-0.5-6.9-0.7-10.8-0.4c-0.2-0.1-0.4-0.1-0.6-0.2c0.2-0.7,0.3-1.4,0.5-2.1c4.6-2.8,9.8-5.6,13.3-6.4c2.4-0.6,5.8-1.9,9.3-4 h-63.5c0,0.3,0.1,0.6,0.1,1c-0.5-0.3-1-0.6-1.5-1h-477v302c4.3-1.4,7.9-2.9,10.9-4.4C6.5,301.7,8.7,305.2,10.9,307z M673.4,8.6 c0.4-0.6,0.7-1.5,1-2.6c0.8,2.9,2,6.1,3.8,9.5c-1.9,0.7-4.1,1.7-6.5,3.2C671.7,15.8,672.1,10.7,673.4,8.6z M660.6,3.4 c0.3-0.1,0.6-0.2,0.9-0.3c0.5,4.4,2.8,9.9,8.8,16.5c-1.8,1.2-3.7,2.6-5.5,4.2c-0.7-0.1-1.4-0.2-2.1-0.3 c-0.9-5.1-2.9-10.8-6.7-17.1C657.5,5.7,659.1,4.8,660.6,3.4z M632.2,19.3c0.6,0.3,1.1,0.5,1.7,0.8c-1.1,0.2-2.3,0.4-3.5,0.6 C631.1,20.3,631.6,19.8,632.2,19.3z M608.4,72.7c0.2-0.2,0.3-0.4,0.5-0.7c1.1-0.2,2.1-0.4,3.2-0.6c0.5,0.7,1,1.5,1.6,2.3 c-1.8,1.9-3.5,3.9-5.2,6.2c-0.7-0.9-1.4-1.7-2-2.6C607,75.4,607.6,73.7,608.4,72.7z M590.3,87.5c0.4-0.7,0.8-1.4,1.2-2.2 c3.4,1.4,7.1,2.8,11.2,4.1c-0.5,0.9-0.9,1.9-1.4,2.9c-4.1-0.6-8.3-1.4-11.8-2.2C589.8,89.4,590.1,88.5,590.3,87.5z M536.7,14.4 c-0.1,0.5-0.1,1-0.2,1.6c-0.1-0.1-0.3-0.1-0.4-0.2c-1-0.5-2.4-1-4-1.5C533.5,14.4,535.1,14.4,536.7,14.4z M506.2,128.7 c2.9-1.5,6.1-3.5,9-5.9c-0.1,3.5,0.4,7.4,1.6,11.7c-3.6-0.8-8.2-1.3-13.2-0.9c-0.4-0.5-0.9-0.9-1.3-1.4 C503.7,131.1,505,130,506.2,128.7z M480.3,85.9c0,0.7,0,1.4,0,2.1c-1.2,0.2-2.5,0.4-3.8,0.6C477.9,87.8,479.1,86.9,480.3,85.9z M458.4,1c2,0.5,4.1,1.1,6.4,1.7c-2.5,0.8-4.8,1.7-6.9,2.6C458.3,3.8,458.5,2.3,458.4,1z M447.7,93.9c2.1,1.1,4.2,2,6.3,2.9 c-2.2-0.2-4.3-0.5-6.4-0.6C447.7,95.4,447.8,94.6,447.7,93.9z M388.5,132.4c5,2.6,10.3,4.6,15.3,6.2c2.1,1.3,4.3,2.5,6.6,3.6 c-0.7,0.5-1.4,1-2.2,1.4c-8.5-0.4-16.3,0.1-22.4,1C387.8,140.1,388.6,136.1,388.5,132.4z M344.5,1.7c1.2,0.6,2.4,1.1,3.7,1.6 c0,1.8,0.2,3.7,0.7,5.7c-0.9-0.5-1.8-1-2.8-1.5c-0.7-1.7-1.2-3.7-1.6-5.7C344.4,1.8,344.4,1.7,344.5,1.7z M261.6,96.1 c0.3,0.8,0.7,1.6,1.2,2.2c-0.6,0.1-1.2,0.2-1.8,0.3C261.2,97.7,261.4,96.9,261.6,96.1z M255.9,111.6c0.8,0,1.5,0.1,2.3,0.1 c0.6,0.1,1.2,0.2,1.8,0.3c-2.6,1.1-4.7,2.3-6.3,3.4C254.4,114.2,255.2,113,255.9,111.6z M243.9,127.2c14.5-1.8,24.2-4.5,30.7-7.3 c-0.7,3.3,0.6,6.1,2.1,7.5c1.9,1.9,2.6,6.2,2.8,9.3c-0.6,0.5-1.3,1-2,1.4c-3.6-0.8-6.8-1.6-8.9-2.6c-5.3-2.5-17.8-5.4-31.4-3.2 C239.6,130.9,241.8,129.1,243.9,127.2z M228.7,108c-1.8,1.2-3.7,2.6-5.5,4.2c-0.7-0.1-1.4-0.2-2.1-0.3c-0.4-2.2-1-4.6-1.9-7.1 c3.1,0.9,6.1,1.8,8.9,2.5C228.3,107.6,228.5,107.8,228.7,108z M221.8,104.7c-1.3,0-2.2,0.1-2.7,0.1c-0.1-0.3-0.2-0.5-0.3-0.8 C219.9,104.2,220.9,104.4,221.8,104.7z M190.5,107.7c0.6,0.3,1.1,0.5,1.7,0.8c-1.1,0.2-2.3,0.4-3.5,0.6 C189.4,108.7,190,108.2,190.5,107.7z M166.7,161.1c0.2-0.2,0.3-0.4,0.5-0.7c1.1-0.2,2.1-0.4,3.2-0.6c0.5,0.7,1,1.5,1.6,2.3 c-1.8,1.9-3.5,3.9-5.2,6.2c-0.7-0.9-1.4-1.7-2.1-2.6C165.3,163.8,165.9,162.1,166.7,161.1z M148.6,175.9c0.4-0.7,0.8-1.4,1.2-2.2 c3.4,1.4,7.1,2.8,11.2,4.1c-0.5,0.9-0.9,1.9-1.4,2.9c-4.1-0.6-8.3-1.4-11.8-2.2C148.1,177.8,148.4,176.9,148.6,175.9z M95,102.9 c-0.1,0.5-0.1,1-0.2,1.6c-0.1-0.1-0.3-0.1-0.4-0.2c-1-0.5-2.4-1-4-1.5C91.9,102.8,93.4,102.8,95,102.9z M64.6,217.1 c2.9-1.5,6.1-3.5,9-5.9c-0.1,3.5,0.4,7.4,1.6,11.7c-3.6-0.8-8.2-1.3-13.2-0.9c-0.4-0.5-0.9-0.9-1.3-1.4 C62,219.6,63.3,218.4,64.6,217.1z M52.7,75.2c0,0.3,0,0.6,0,0.9c-0.1-0.2-0.2-0.4-0.3-0.6C52.5,75.4,52.6,75.3,52.7,75.2z M38.7,174.3c0,0.7,0,1.4,0,2.1c-1.2,0.2-2.5,0.4-3.8,0.6C36.2,176.2,37.4,175.3,38.7,174.3z M32.3,85.3c0,1.3,0.1,2.7,0.3,4.1 c-1.2-0.8-2.6-1.6-4.1-2.4C29.9,86.3,31.2,85.7,32.3,85.3z M16.8,89.4c2,0.5,4.1,1.1,6.4,1.7c-2.5,0.8-4.8,1.7-6.9,2.6 C16.6,92.2,16.8,90.8,16.8,89.4z M6,184.5c0.1-0.8,0.1-1.5,0.1-2.2c2.1,1.1,4.2,2,6.3,2.9C10.2,184.9,8.1,184.7,6,184.5z" transform="matrix(1, 0, 0, 1, 5.684341886080802e-14, 1.4210854715202004e-14)"/><path fill="#406325" d="M774.5,0c2.6,5.7,7,12,13.8,19c0,0-0.2-12.6,2.1-19H774.5z" transform="matrix(1, 0, 0, 1, 5.684341886080802e-14, 1.4210854715202004e-14)"/><path fill="#406325" d="M739.4,0c-0.9,2.9-1.6,6-2.2,9.4c0,0,6.5-5.3,12.9-9.4H739.4z" transform="matrix(1, 0, 0, 1, 5.684341886080802e-14, 1.4210854715202004e-14)"/><path fill="#824737" d="M90,13.7c0,0,60,90,72,148.5c12,58.5,0,802.5,0,802.5h126c0,0-33-504.6-19.5-536.5 c13.5-32,106.5-107,106.5-107l-10.5-24c0,0-79.5,78-99,58.5S255,7.6,255,7.6h-73.5c0,0,4.5,94.5,1.5,99c-3,4.5-66-93-66-93H90z" transform="matrix(1, 0, 0, 1, 2.842170943040401e-14, 7.105427357601002e-15)"/><g><path fill="#9FBC2E" d="M11.7,795.6v-34.3l8.9-13.7l0.1-8c-3.1,7.2-6.1,14-9,20.2v-30.3l9.5-30.1l2.6-210.5 c14,59.1,14.9,117.9,11.6,165.2l31.8-101.3c-3.9,65.6-22.4,126.5-40.5,172.2c-1.4,7.8-2.7,14.2-3.7,19l103-159.3 C118.4,637.1,65.6,721.2,11.7,795.6z" transform="matrix(1, 0, 0, 1, 5.684341886080802e-14, 1.4210854715202004e-14)"/><path fill="#9FBC2E" d="M403.4,964.6h-12.8l27.5-18.4C413.3,952.6,408.4,958.7,403.4,964.6z" transform="matrix(1, 0, 0, 1, 5.684341886080802e-14, 1.4210854715202004e-14)"/><path fill="#9FBC2E" d="M11.7,842.3l135.4-209.4c-8.5,59.3-75,159.2-135.4,239.7V842.3z" transform="matrix(1, 0, 0, 1, 5.684341886080802e-14, 1.4210854715202004e-14)"/><path fill="#9FBC2E" d="M454.8,731.5c-36.8,47.7-78.4,89.3-119.6,124.8l114.7-42c-57.3,38.8-118,68.1-174.9,90.1 c-1,0.8-2.1,1.5-3.1,2.3c-3.8,12.1-8.3,23.7-13.2,34.8l16.2-6l84.5-56.5c-10,13.6-20.9,26-32.2,37.3l164.2-60.2 c-34.5,23.3-70.2,43.2-105.5,60.2c-12.2,15.9-25.4,30.3-39.2,43.1c-0.6,1.7-1.2,3.4-1.8,5.1H311l65.6-43.8 c-25.1,11.7-50,21.9-74.1,30.9c-1.8,4.4-3.6,8.7-5.5,13h-14.5l5.8-7.8c-5.6,2-11.1,3.9-16.6,5.7c-1,0.7-2,1.4-3,2.1H151.9 l40.2-26.9l4.8-6.4c-6.5,2-12.8,3.8-19.1,5.6c-11.3,9.7-22.5,19-33.6,27.8h-38.2l16.3-13.5c-4.9,1.1-9.7,2.2-14.3,3.2 c-7.3,4-13.9,7.5-19.4,10.3h-27l1.2-1.6c-1.5,0.2-2.9,0.5-4.2,0.7c-0.4,0.3-0.8,0.6-1.2,0.9H11.7v-12.2L37,912.1 c-5.2,3.5-8.3,5.3-8.3,5.3l19.8-23.8L84,837.3c-13.2,7.9-24,14.3-31.5,18.7c-12.3,23.1-26.4,43.8-40.8,61.9v-34.4l66.6-89.3 c-6.3,20.7-14.5,40.1-23.8,58l38.9-30l94.7-150.9c-12.5,38.3-28,74.7-44.9,108.8l39.3-47.1l82.8-224 c-9.9,90.2-47.1,170.3-71.1,214c-4.6,11.6-9.7,22.7-15.3,33.3l12.3-9.5l58-77l73-197.5c-6.6,60.3-25.5,116.1-44.4,159.5l64-84.9 c-25.7,60.5-63.5,111.7-95.9,148.8c-3.9,6.9-7.3,12.5-9.9,16.7l150.4-115.7c-24.5,46.6-101.6,107.7-176.8,159.7 c-7.4,17.2-15.3,33.8-23.5,49.9l204.1-157c-21.1,40.2-81.5,91.3-146,137.9c-5.4,6.8-10.8,13.6-16.4,20.1l43.4-29 c-30.7,41.5-69.1,72.5-105,94.9c-14.1,13.6-28.3,26.5-42.4,38.7c-1,1.4-1.9,2.8-2.9,4.2c-5.1,8.6-10.5,16.8-15.9,24.6l6.7-2.4 l13.4-9l43.8-34.6l26-34.8c-2,6.7-4.3,13.2-6.7,19.6l227.7-180.1c-42.6,55.2-91.6,102.3-139.1,141.2 c-6.3,6.7-12.7,13.1-19.2,19.2c-8.3,9.1-16.8,17.9-25.3,26.4c-1,3-2,6-3,9l34.4-12.6L454.8,731.5z M232.6,715.2l2.8-7.5 c-3.6,3.9-7.1,7.6-10.5,11.2c-0.4,1.1-0.8,2.1-1.2,3.2L232.6,715.2z M47.9,943l34-28.2c-6.8,2.6-12.7,4.6-17.3,6.1 C59.2,928.7,53.6,936.1,47.9,943z M192.5,823.2c-8,5.4-16,10.7-23.8,15.8c-1.4,2.5-2.8,5-4.2,7.4L192.5,823.2z M138.8,842.8 l41.9-66.7c-7.4,5-14.8,9.8-22,14.5c-18.5,27.6-39.2,51-58.6,69.9c-3.2,6.8-6.5,13.4-10,19.9L138.8,842.8z M112.7,884.4l10.1-16 c-14.8,9.3-28.3,17.5-39.7,24.3c-4.1,6.9-8.3,13.6-12.6,20L112.7,884.4z M219.7,898.6l2.1-0.8l3.4-4.6 C223.3,895.1,221.5,896.9,219.7,898.6z M206.4,951.4c-1.4,0.9-2.8,1.8-4.2,2.6c-2,3.6-4.1,7-6.2,10.5l43.2-15.8l29.2-39.2 C247.6,926.3,226.3,940.2,206.4,951.4z" transform="matrix(1, 0, 0, 1, 5.684341886080802e-14, 1.4210854715202004e-14)"/></g><path fill="#82A53C" d="M11.7,889v75.6C114,953,252.8,918.4,404.3,827.7l-340,81.8C128.9,858,197.3,773,213,639.1L11.7,889z" transform="matrix(1, 0, 0, 1, 5.684341886080802e-14, 1.4210854715202004e-14)"/><path fill="#FFF" d="M0,0v980h1400V0H0z M1371.7,891.9c0,37.8-30.6,68.4-68.4,68.4H96.6c-37.8,0-68.4-30.6-68.4-68.4V88.1 c0-37.8,30.6-68.4,68.4-68.4h1206.7c37.8,0,68.4,30.6,68.4,68.4V891.9z" transform="matrix(1, 0, 0, 1, 2.842170943040401e-14, 7.105427357601002e-15)"/></svg>