<svg xmlns="http://www.w3.org/2000/svg" xmlns:xlink="http://www.w3.org/1999/xlink" id="master-artboard" width="2850" height="2005.158" x="0" y="0" enable-background="new 0 0 2850 2005.158" version="1.1" viewBox="0 0 2850 2005.158"><defs><path id="SVGID_1_" d="M -0.003 0 H 2849.99993 V 2005.157959 H -0.003 V 0 Z"/></defs><clipPath id="SVGID_2_"><use overflow="visible" xlink:href="#SVGID_1_"/></clipPath><linearGradient id="SVGID_3_" x1="1424.998" x2="1424.998" y1="1370.504" y2="23.417" gradientUnits="userSpaceOnUse"><stop offset="0" style="stop-color:#dec9f0"/><stop offset=".219" style="stop-color:#c7f0d6"/><stop offset=".445" style="stop-color:#8ebcc7"/><stop offset=".588" style="stop-color:#6f9fbf"/><stop offset=".769" style="stop-color:#6872be"/><stop offset=".915" style="stop-color:#6455bd"/><stop offset=".999" style="stop-color:#624abd"/></linearGradient><path fill="url(#SVGID_3_)" d="M -0.003 0 H 2849.99993 V 2005.157959 H -0.003 V 0 Z" clip-path="url(#SVGID_2_)" transform="matrix(1, 0, 0, 1, 0, 0)"/><path fill="#FFF8DB" d="M 1872.052979 1192.642944 A 423.718994 425.878998 0 0 1 1448.333984 1618.521942 A 423.718994 425.878998 0 0 1 1024.61499 1192.642944 A 423.718994 425.878998 0 0 1 1448.333984 766.763947 A 423.718994 425.878998 0 0 1 1872.052979 1192.642944 Z" clip-path="url(#SVGID_2_)" transform="matrix(1, 0, 0, 1, 0, 0)"/><path fill="#FFF8DB" d="M 1872.052979 1192.642944 A 423.718994 425.878998 0 0 1 1448.333984 1618.521942 A 423.718994 425.878998 0 0 1 1024.61499 1192.642944 A 423.718994 425.878998 0 0 1 1448.333984 766.763947 A 423.718994 425.878998 0 0 1 1872.052979 1192.642944 Z" clip-path="url(#SVGID_2_)" transform="matrix(1, 0, 0, 1, 0, 0)"/><path fill="#736CB0" d="M859.993,1261.272c10.172-1.531,91.898-0.141,99.421-0.016 c0.43,0.008,0.737,0,1.159-0.026c7.878-0.556,89.473-7.552,89.473-60.062v-64.434c0-7.102,5.028-13.205,11.97-14.528l11.514-2.19 c6.95-1.323,11.978-7.426,11.978-14.537v-48.789c0-6.928,4.788-12.931,11.522-14.438l7.364-1.64 c9.195-2.048,17.91,4.979,17.91,14.437l0,0c0,6.702,4.481,12.572,10.935,14.295l17.943,4.796 c6.444,1.716,10.934,7.585,10.934,14.288v12.646c0,6.379,4.067,12.04,10.099,14.039l16.774,5.569 c6.03,2.007,10.098,7.668,10.098,14.046v61.062c0,3.521,1.218,6.877,3.479,9.558c7.438,8.783,26.864,31.064,58.83,63.193" clip-path="url(#SVGID_2_)" transform="matrix(1, 0, 0, 1, 0, 0)"/><path fill="#736CB0" d="M1676.226,1247.253l92.588-27.775c0,0,38.851-10.625,38.851-99.961 c0-19.124-0.1-30.739-0.231-37.783c-0.125-6.978,3.097-13.571,8.63-17.775l26.202-19.891c5.442-4.13,8.641-10.591,8.641-17.435 v-42.087c0-6.62,2.981-12.889,8.117-17.035l13.005-10.507c3.86-3.122,8.665-4.821,13.619-4.821h24.139 c5.798,0,11.365,2.332,15.457,6.486l13.917,14.138c4.083,4.155,9.65,6.486,15.457,6.486h3.463c12.012,0,21.744,9.791,21.744,21.864 v14.42c0,12.098,9.783,21.896,21.828,21.855l0,0c12.044-0.041,21.818,9.749,21.818,21.855v33.836c0,5.08,1.74,9.95,4.938,13.887 c9.559,11.808,34.609,33.771,88.677,33.771" clip-path="url(#SVGID_2_)" transform="matrix(1, 0, 0, 1, 0, 0)"/><path fill="#736CB0" d="M700.979,853.129c0-6.985-3.927-13.371-10.148-16.493l-21.761-10.94 c-6.213-3.123-10.14-9.509-10.14-16.494v-93.85c0-7.26-4.241-13.846-10.818-16.818l-19.691-8.91 c-4.896-2.214-8.581-6.469-10.089-11.655l-7.148-24.653c-2.287-7.875-9.469-13.289-17.62-13.289h-50.523 c-1.731,0-3.455-0.24-5.119-0.724l-54.225-15.828c-1.665-0.482-3.388-0.733-5.119-0.733h-21.082 c-10.14,0-18.357,8.261-18.357,18.451v253.148c0,6.662-3.57,12.805-9.344,16.069l-3.429,1.94 c-12.235,6.927-27.361-1.957-27.361-16.069v-29.632c0-3.722-1.119-7.352-3.206-10.424l-18.432-27.067 c-2.087-3.073-3.213-6.703-3.213-10.424v-54.602c0-10.19-8.21-18.449-18.348-18.449h-35.919c-10.14,0-18.357,8.259-18.357,18.449 v123.749c0,4.887-1.93,9.583-5.375,13.038l-24.603,24.736c-3.446,3.456-5.375,8.143-5.375,13.039v145.844 c0,10.184-8.217,18.442-18.357,18.442h-15.847c-10.14,0-18.357,8.26-18.357,18.442v26.676c0,0.749-0.025,1.406-0.116,2.156 c-1.093,8.793-11.597,64.144-103.082,64.144l593.743,12.971h117.223c0,0-96.837-16.177-96.837-123.748V990.923l-28.032-25.61 L700.979,853.129z" clip-path="url(#SVGID_2_)" transform="matrix(1, 0, 0, 1, 0, 0)"/><path fill="#736CB0" d="M2746.182,1256.077c0,0-104.624-22.255-104.624-88.195V982.156 c0-4.596-1.647-9.042-4.646-12.522l-28.795-33.404c-2.999-3.48-4.639-7.926-4.639-12.521V803.865 c0-10.641-8.64-19.233-19.218-19.125l-10.04,0.092c-10.437,0.108-18.846,8.642-18.846,19.133v261.941 c0,15.594-17.553,24.636-30.144,15.527l-9.924-7.177c-4.971-3.597-7.919-9.374-7.919-15.527V693.164 c0-10.024-7.688-18.342-17.628-19.083l-18.656-1.383c-9.939-0.732-17.635-9.058-17.635-19.073v-9.451 c0-9.733-7.265-17.909-16.883-19.008l-80.202-9.176c-8.408-0.965-16.443,3.772-19.707,11.615l-4.001,9.608 c-3.562,8.551-12.707,13.305-21.711,11.29l0,0c-9.345-2.106-18.796,3.114-22.051,12.164l-4.061,11.315 c-0.812,2.249-1.192,4.638-1.126,7.027l4.672,168.566c0.116,3.963-1.011,7.867-3.206,11.173l-21.339,32.029 c-1.615,2.432-2.658,5.204-3.048,8.101l-16.179,121.666c-0.265,1.99-0.845,3.938-1.706,5.745l-24.131,50.505 c-1.682,3.522-4.332,6.42-7.72,8.336c-14.215,8.05-56.503,28.64-116.941,28.64c-75.108,0,40.458,78.871,40.458,78.871" clip-path="url(#SVGID_2_)" transform="matrix(1, 0, 0, 1, 0, 0)"/><linearGradient id="SVGID_4_" x1="-195.018" x2="1260.931" y1="1392.436" y2="1392.436" gradientUnits="userSpaceOnUse"><stop offset="0" style="stop-color:#746ba6"/><stop offset=".83" style="stop-color:#411b82"/></linearGradient><path fill="url(#SVGID_4_)" d="M171.933,1640.617h153.894c206.281-9.724,308.991-56.44,308.991-56.44 s-3.604-347.773-108.923-430.391c-35.868-28.143-76.458-38.166-117.288-37.816c-89.389,11.482-408.609,75.5-518.071,203.385 v349.555l272.617-28.65C166.126,1640.401,168.984,1640.484,171.933,1640.617z" clip-path="url(#SVGID_2_)" transform="matrix(1, 0, 0, 1, 0, 0)"/><linearGradient id="SVGID_5_" x1="433.606" x2="1293.518" y1="1376.198" y2="1376.198" gradientUnits="userSpaceOnUse"><stop offset="0" style="stop-color:#7adee0"/><stop offset=".091" style="stop-color:#74cad5"/><stop offset=".388" style="stop-color:#608eb4"/><stop offset=".642" style="stop-color:#52629b"/><stop offset=".838" style="stop-color:#49478d"/><stop offset=".953" style="stop-color:#463d87"/></linearGradient><path fill="url(#SVGID_5_)" d="M1775.59,1375.279c-193.259-4.753-206.298,9.125-523.331-71.627 c-317.034-80.762-614.534-207.349-823.001-189.881c-6.925,0.574-13.801,1.324-20.651,2.198c40.83-0.35,81.42,9.674,117.288,37.816 c63.04,49.456-36.083,116.445,35.041,174.936c130.037,106.929-116.734,100.993-73.891,209.412 c23.691,59.929-62.062,102.125-323.893,102.125H1775.59V1375.279z" clip-path="url(#SVGID_2_)" transform="matrix(1, 0, 0, 1, 0, 0)"/><linearGradient id="SVGID_6_" x1="1469.855" x2="2925.804" y1="1392.436" y2="1392.436" gradientUnits="userSpaceOnUse"><stop offset="0" style="stop-color:#746ba6"/><stop offset=".83" style="stop-color:#411b82"/></linearGradient><path fill="url(#SVGID_6_)" d="M1836.806,1640.617H1990.7c206.28-9.724,308.99-56.44,308.99-56.44 s-3.604-347.773-108.923-430.391c-35.868-28.143-76.458-38.166-117.289-37.816c-89.389,11.482-408.609,75.5-518.069,203.385 v349.555l272.615-28.65C1830.998,1640.401,1833.865,1640.484,1836.806,1640.617z" clip-path="url(#SVGID_2_)" transform="matrix(1, 0, 0, 1, 0, 0)"/><linearGradient id="SVGID_7_" x1="2098.479" x2="2958.39" y1="1376.198" y2="1376.198" gradientUnits="userSpaceOnUse"><stop offset="0" style="stop-color:#7adee0"/><stop offset=".091" style="stop-color:#74cad5"/><stop offset=".388" style="stop-color:#608eb4"/><stop offset=".642" style="stop-color:#52629b"/><stop offset=".838" style="stop-color:#49478d"/><stop offset=".953" style="stop-color:#463d87"/></linearGradient><path fill="url(#SVGID_7_)" d="M3440.462,1375.279c-193.259-4.753-206.298,9.125-523.329-71.627 c-317.034-80.762-614.535-207.349-823.003-189.881c-6.916,0.574-13.8,1.324-20.651,2.198c40.831-0.35,81.421,9.674,117.289,37.816 c63.04,49.456-36.084,116.445,35.04,174.936c130.038,106.929-116.733,100.993-73.882,209.412 c23.684,59.929-62.07,102.125-323.901,102.125h1612.438V1375.279z" clip-path="url(#SVGID_2_)" transform="matrix(1, 0, 0, 1, 0, 0)"/><linearGradient id="SVGID_8_" x1="1384.87" x2="-115.796" y1="1629.208" y2="1629.208" gradientUnits="userSpaceOnUse"><stop offset="0" style="stop-color:#321c63"/><stop offset=".249" style="stop-color:#442574"/><stop offset=".688" style="stop-color:#5f328d"/><stop offset=".947" style="stop-color:#693796"/></linearGradient><path fill="url(#SVGID_8_)" d="M1235.625,1307.032c-51.475-40.389-109.725-54.784-168.324-54.277 c-128.282,16.478-247.111,68.497-356.05,127.879c-19.649,10.715-39.016,21.639-58.019,32.662 c-110.546,64.158-210.058,130.85-297.973,167.56c-193.209,80.684-355.262,25.81-355.262,25.81v398.493h657.294h57.754 c4.274,0.208,8.382,0.334,12.608,0.517h220.859c296.026-13.953,443.426-80.995,443.426-80.995S1386.761,1425.594,1235.625,1307.032 z" clip-path="url(#SVGID_2_)" transform="matrix(1, 0, 0, 1, 0, 0)"/><linearGradient id="SVGID_9_" x1="1103.175" x2="2337.236" y1="1626.204" y2="1626.204" gradientUnits="userSpaceOnUse"><stop offset="0" style="stop-color:#70cdcf"/><stop offset=".014" style="stop-color:#6fcace"/><stop offset=".338" style="stop-color:#5e8eaf"/><stop offset=".614" style="stop-color:#51629a"/><stop offset=".828" style="stop-color:#49478c"/><stop offset=".953" style="stop-color:#463d87"/></linearGradient><path fill="url(#SVGID_9_)" d="M3029.06,1624.89c-277.354-6.835-296.05,13.098-751.031-102.8 c-454.982-115.888-881.915-297.55-1181.089-272.498c-9.932,0.832-19.814,1.907-29.639,3.163 c58.599-0.507,116.849,13.889,168.324,54.277c90.467,70.962-51.789,167.101,50.282,251.042 c186.616,153.463-167.53,144.938-106.031,300.532c33.997,85.998-89.066,146.552-464.831,146.552H3029.06V1624.89z" clip-path="url(#SVGID_2_)" transform="matrix(1, 0, 0, 1, 0, 0)"/><path fill="#190D55" d="M1624.876,1082.742c0.604-3.723-4.573-7.153-7.397-4.889 c-4.663,3.755-7.133,0.666-10.379-1.548c-3.016-2.049-6.264-3.764-9.411-5.612l-4.424-0.124c-4.879,2.755-9.675,5.66-14.678,8.168 c-1.441,0.723-3.827,0.956-5.194,0.282c-5.177-2.523-9.286-1.008-9.046,4.512c0.207,4.596,1.897,9.311,3.836,13.589 c1.383,3.055,2.005,5.445,0.447,8.56c-1.169,2.355-1.648,5.086-2.146,7.701c-2.171,11.438-3.736,23.021-6.619,34.286 c-0.977,3.838-4.986,7.035-7.944,10.239c-2.228,2.408-4.945,1.691-6.453-0.839c-3.297-5.529-6.742-11.074-9.161-16.993 c-4.042-9.918-9.377-18.794-18.522-24.896c-9.576-6.385-20.783-8.233-31.975-9.075c-7.97-0.59-14.083-3.445-18.903-9.482 c-2.27-2.83-4.822-5.444-7.107-8.26c-9.585-11.839-17.653-11.604-31.246-3.396c-10.653,6.426-17.894,16.46-24.653,26.509 c-4.671,6.936-10.131,12.265-17.925,16.019c-6.636,3.197-12.5,8.025-18.366,12.564c-3.703,2.864-7.289,6.153-10.04,9.882 c-5.625,7.627-12.798,15.079-15.316,23.729c-2.377,8.11-3.968,39.314-3.446,48.182c3.256,0.699,6.536,1.249,9.825,1.74 l-5.932-0.166c0.125,0.116,0.216,0.232,0.381,0.357c0.083,0.059-0.323,0.842-0.555,1.258c-1.748,3.13-3.521,6.244-5.476,9.733 c3.537,0.082,2.618-5.821,6.759-4.854c-1.838,5.028-6.279,6.959-9.875,9.716c0.133,0.273,0.265,0.541,0.398,0.807 c1.341-0.691,2.767-1.257,3.993-2.098c1.293-0.891,2.385-2.049,4.042-2.647c-2.252,3.18-4.489,6.368-6.834,9.691 c3.206,1.673-0.92,3.438-0.256,5.327c0.978,3.139-0.613,6.229-0.755,9.301c-0.141,2.839,0.282,5.288,0.688,8.201 c0.762-2.331,1.433-4.362,2.096-6.386c0.207,0.058,0.423,0.116,0.637,0.175c0.05,1.823,0.1,3.646,0.149,5.479 c0.282,0.033,0.563,0.066,0.845,0.1c0.348-1.632,0.696-3.271,1.077-5.07c0.298,0.516,0.563,0.966,0.82,1.415 c0.225-4.43,1.152-8.541,4.73-12.329c0.513,2.646,0.952,4.86,1.391,7.075c0.746-5.653,1.641-11.122,5.286-15.685 c0.372-0.476,0.853-0.857,1.283-1.282c0.29,0.473,0.846,0.957,0.837,1.423c-0.116,4.745,0.116,9.558-0.605,14.213 c-1.184,7.551-3.155,14.97-4.514,22.496c-1.119,6.137-2.675,12.073-6.047,17.353c-1.707,2.663-1.541,5.286-0.845,8.116 c0.629,2.598,1.375,5.212,1.59,7.859c0.464,5.338,0.166,10.766,0.96,16.044c1.483,9.843,0.464,19.583-0.414,29.341 c-0.281,3.08-0.944,6.194-1.905,9.142c-1.102,3.364-0.1,5.338,3.528,5.378c5.128,0.059,10.264-0.059,15.391-0.199 c0.911-0.033,1.823-0.559,2.734-0.85c-0.332-0.973-0.448-2.106-1.028-2.88c-0.885-1.183-2.17-2.058-3.147-3.173 c-0.911-1.041-2.576-2.556-2.319-3.305c1.16-3.373-0.994-6.07-1.243-9.084c-0.58-6.636-1.441-13.322-1.192-19.949 c0.306-8.142,1.54-16.261,2.542-24.369c0.597-4.787,1.086-9.658,2.386-14.279c2.386-8.482,5.625-16.719,7.952-25.21 c1.383-5.037,4.391-8.651,7.986-12.215c-0.107,3.514-0.306,6.994-0.969,10.391c-0.911,4.629-2.029,9.233-3.338,13.771 c-1.135,3.946-2.062,8.144-4.134,11.59c-3.513,5.827-2.519,11.272-0.183,16.901c3.811,9.191,7.97,18.249,11.49,27.541 c3.339,8.817,6.105,17.852,9.004,26.826c0.315,0.975,0.033,2.291-0.339,3.314c-0.904,2.438-0.058,4.354,2.542,4.555 c6.33,0.49,12.658,0.855,19.003,1.081c1.02,0.034,2.071-0.897,3.114-1.39c-0.878-1.432-1.449-3.614-2.716-4.154 c-4.333-1.849-7.688-4.471-10.712-8.219c-5.806-7.193-7.545-15.919-9.973-24.328c-2.27-7.859-3.156-16.118-5.26-24.035 c-1.682-6.345-0.489-12.123,1.54-18.01c2.684-7.777,5.203-15.62,7.919-23.38c0.912-2.631,1.906-5.328,3.438-7.609 c2.774-4.146,6.104-7.926,8.93-12.048c1.366-1.998,2.302-4.37,3.098-6.693c0.853-2.489,1.317-5.112,2.046-8.053 c21.273,20.383,44.748,26.077,71.927,13.522c0.059,0.858,0.323,1.94,0.157,2.956c-1.309,7.968-2.271,16.027-4.208,23.846 c-1.641,6.627-4.482,12.947-6.677,19.449c-0.597,1.78-1.136,3.713-1.094,5.568c0.232,11.516,1.765,23.072-1.209,34.462 c-1.375,5.245-3.007,10.425-4.432,15.661c-1.102,4.021-3.487,7.751-2.36,12.307c0.33,1.313-0.622,2.922-0.829,4.421 c-0.314,2.247-0.621,4.511-0.638,6.769c0,0.566,1.119,1.631,1.714,1.623c5.004-0.059,10.024-0.199,15.003-0.607 c1.018-0.084,2.525-1.315,2.708-2.232c0.174-0.89-0.87-2.281-1.724-3.072c-2.468-2.264-4.1-4.586-2.865-8.225 c0.414-1.208,0.099-2.831-0.34-4.105c-1.085-3.18-1.979-6.303-1.309-9.732c0.978-5.046,1.615-10.156,2.767-15.162 c1.466-6.353,2.328-13.104,5.202-18.799c3.238-6.403,4.979-12.697,5.691-19.79c0.712-7.036,2.568-14.089,4.887-20.791 c2.402-6.927,6.023-13.431,8.997-20.165c2.353-5.32,3.81-11.217,9.476-14.287c0.845-0.449,1.822-0.658,2.734-0.981 c0.307,0.89,0.837,1.779,0.869,2.681c0.058,1.714-0.083,3.445-0.298,5.152c-1.416,11.115-2.708,22.238-4.374,33.312 c-0.969,6.453-2.602,12.787-3.827,19.207c-0.438,2.34-1.201,4.88-0.721,7.087c2.162,9.758,2.146,19.665,2.436,29.539 c0.232,7.893,0,15.802,0.058,23.712c0.009,1.391,0.175,2.873,0.688,4.155c0.978,2.489,1.906,4.753-0.148,7.251 c-0.547,0.667-0.225,2.073-0.331,3.664l22.995,0.633c0.149-0.216,0.307-0.434,0.456-0.649c-1.26-0.949-2.419-2.106-3.803-2.806 c-3.901-1.958-7.141-4.37-7.713-9.134c-0.182-1.498-0.29-3.03-0.712-4.455c-0.969-3.246-2.436-6.368-3.122-9.665 c-2.403-11.473-1.234-22.905,0.951-34.287c0.779-4.046,2.395-8.184,2.056-12.147c-0.621-7.068,1.582-13.563,2.65-20.272 c0.514-3.24,1.988-6.328,3.114-9.459c2.154-5.962,4.315-11.914,6.569-17.834c2.038-5.354,4.672-10.532,6.155-16.027 c0.563-2.089,1.548-3.73,2.741-5.17c0.059-0.292,0.166-0.566,0.232-0.866c1.673-0.616,4.059-0.658,7.554-0.524 c6.834,0.249,14.473,0.291,20.444-2.364c11.639-5.188,18.324-15.37,22.491-27.16c2.676-7.576,5.483-15.186,9.145-22.338 c5.948-11.614,9.717-23.453,8.823-36.659c-0.316-4.721-0.341-10.349,1.971-14.137c4.142-6.786,5.095-13.729,4.861-21.14 c-0.14-4.521,1.492-8.109,3.961-11.931C1622.838,1091.866,1624.147,1087.179,1624.876,1082.742z" clip-path="url(#SVGID_2_)" transform="matrix(1, 0, 0, 1, 0, 0)"/><path fill="#FFF" d="M1342.253,1186.457c2.519-8.65,9.692-16.103,15.316-23.729c2.75-3.729,6.337-7.018,10.04-9.883 c5.865-4.537,11.73-9.366,18.366-12.563c7.794-3.754,13.254-9.083,17.925-16.027c6.759-10.04,14-20.073,24.653-26.501 c13.593-8.209,21.661-8.442,31.246,3.396c2.285,2.814,4.838,5.43,7.107,8.26c4.82,6.036,10.934,8.891,18.903,9.482 c11.183,0.842,22.398,2.689,31.975,9.074c9.146,6.104,14.48,14.979,18.522,24.896c2.419,5.921,5.864,11.466,9.161,16.994 c1.508,2.529,4.226,3.247,6.453,0.84c2.958-3.197,6.968-6.41,7.944-10.241c2.883-11.264,4.448-22.847,6.619-34.285 c0.497-2.615,0.977-5.346,2.146-7.702c1.558-3.114,0.936-5.503-0.447-8.566c-0.199-0.433-0.373-0.891-0.563-1.34 c-0.464,1.58-0.829,3.214-1.135,4.82c-2.171,11.438-3.736,23.021-6.619,34.286c-0.977,3.83-4.986,7.043-7.944,10.239 c-2.228,2.408-4.945,1.691-6.453-0.839c-3.297-5.529-6.742-11.074-9.161-16.993c-4.042-9.918-9.377-18.794-18.522-24.896 c-9.576-6.385-20.792-8.233-31.975-9.075c-7.97-0.59-14.083-3.445-18.903-9.482c-2.27-2.83-4.822-5.444-7.107-8.26 c-9.585-11.839-17.653-11.604-31.246-3.396c-10.653,6.426-17.894,16.46-24.653,26.5c-4.671,6.944-10.131,12.273-17.925,16.027 c-6.636,3.197-12.5,8.025-18.366,12.564c-3.703,2.864-7.289,6.153-10.04,9.882c-5.625,7.627-12.798,15.088-15.316,23.729" transform="matrix(1, 0, 0, 1, 0, 0)"/><path fill="#FFF" d="M1573.393,1091.809c1.367,0.666,3.753,0.44,5.194-0.283c5.003-2.507,9.799-5.411,14.678-8.168l4.424,0.124 c3.147,1.858,6.396,3.564,9.411,5.612c3.246,2.215,5.716,5.303,10.379,1.549c1.449-1.165,3.521-0.807,5.111,0.3 c1.027-2.665,1.838-5.438,2.286-8.2c0.604-3.723-4.573-7.153-7.397-4.889c-4.663,3.755-7.133,0.666-10.379-1.548 c-3.016-2.049-6.264-3.755-9.411-5.612l-4.424-0.124c-4.879,2.755-9.675,5.66-14.678,8.168c-1.441,0.723-3.827,0.948-5.194,0.282 c-5.177-2.523-9.286-1.008-9.046,4.512c0.124,2.758,0.812,5.547,1.731,8.26C1567.71,1090.41,1570.287,1090.301,1573.393,1091.809z" transform="matrix(1, 0, 0, 1, 0, 0)"/><path fill="#0E004F" d="M1616.211,1518.569c0.497,1.847-4.771,3.47-7.529,2.306 c-4.564-1.924-7.1-0.425-10.414,0.615c-3.064,0.974-6.369,1.766-9.567,2.648l-4.423-0.009c-4.797-1.434-9.518-2.938-14.455-4.254 c-1.417-0.375-3.785-0.524-5.178-0.218c-5.243,1.183-9.311,0.367-8.912-2.355c0.322-2.273,2.153-4.58,4.208-6.66 c1.466-1.491,2.146-2.665,0.687-4.23c-1.109-1.183-1.516-2.539-1.938-3.838c-1.855-5.687-3.098-11.439-5.674-17.052 c-0.87-1.907-4.787-3.555-7.662-5.179c-2.154-1.224-4.888-0.899-6.47,0.324c-3.454,2.69-7.05,5.379-9.625,8.269 c-4.316,4.846-9.883,9.158-19.202,12.047c-9.75,3.022-20.999,3.771-32.216,4.021c-7.984,0.184-14.173,1.508-19.16,4.421 c-2.336,1.366-4.962,2.623-7.322,3.98c-9.916,5.72-17.967,5.487-31.33,1.232c-10.47-3.338-17.428-8.4-23.915-13.463 c-4.474-3.498-9.791-6.212-17.479-8.184c-6.544-1.675-12.276-4.148-18.009-6.479c-3.629-1.466-7.124-3.147-9.758-5.028 c-5.417-3.856-12.376-7.644-14.67-11.948c-2.145-4.047-2.875-19.508-2.113-23.878c3.281-0.301,6.569-0.534,9.866-0.726h-5.922 c0.116-0.059,0.215-0.108,0.389-0.175c0.083-0.023-0.306-0.416-0.521-0.633c-1.673-1.564-3.346-3.14-5.219-4.887 c3.546,0.008,2.468,2.914,6.635,2.497c-1.707-2.514-6.088-3.529-9.601-4.945c0.132-0.133,0.281-0.259,0.414-0.391 c1.326,0.357,2.733,0.657,3.935,1.09c1.267,0.458,2.328,1.05,3.968,1.375c-2.162-1.616-4.316-3.215-6.569-4.896 c3.255-0.783-0.821-1.716-0.108-2.64c1.061-1.541-0.43-3.09-0.497-4.614c-0.058-1.405,0.43-2.604,0.911-4.036 c0.696,1.165,1.309,2.173,1.922,3.18c0.216-0.017,0.431-0.051,0.638-0.075c0.1-0.898,0.207-1.807,0.307-2.705 c0.281-0.018,0.563-0.026,0.845-0.034c0.298,0.809,0.605,1.624,0.944,2.514c0.307-0.248,0.58-0.466,0.845-0.682 c0.116,2.189,0.92,4.237,4.399,6.161c0.588-1.299,1.085-2.382,1.582-3.472c0.597,2.806,1.342,5.52,4.855,7.826 c0.355,0.241,0.828,0.44,1.242,0.658c0.307-0.232,0.879-0.467,0.879-0.699c0.016-2.348,0.381-4.721-0.216-7.035 c-0.969-3.748-2.733-7.452-3.894-11.19c-0.944-3.048-2.336-6.004-5.566-8.668c-1.624-1.34-1.392-2.63-0.622-4.021 c0.704-1.274,1.517-2.556,1.815-3.864c0.604-2.631,0.463-5.319,1.399-7.918c1.756-4.845,1.002-9.674,0.39-14.52 c-0.191-1.524-0.779-3.072-1.657-4.548c-0.994-1.682,0.049-2.638,3.678-2.604c5.136,0.041,10.255,0.175,15.383,0.324 c0.92,0.016,1.806,0.299,2.709,0.449c-0.356,0.482-0.497,1.033-1.11,1.414c-0.912,0.567-2.22,0.983-3.231,1.525 c-0.944,0.499-2.642,1.225-2.402,1.599c1.061,1.682-1.16,2.987-1.508,4.471c-0.746,3.28-1.806,6.569-1.739,9.85 c0.091,4.029,1.102,8.068,1.88,12.09c0.464,2.372,0.82,4.785,1.989,7.093c2.154,4.229,5.16,8.352,7.256,12.581 c1.234,2.515,4.15,4.345,7.646,6.152c-0.009-1.739-0.108-3.464-0.679-5.146c-0.787-2.307-1.782-4.595-2.967-6.86 c-1.027-1.974-1.83-4.055-3.81-5.787c-3.354-2.938-2.212-5.62,0.281-8.367c4.076-4.488,8.466-8.908,12.251-13.455 c3.588-4.305,6.594-8.732,9.734-13.13c0.348-0.482,0.099-1.131-0.249-1.647c-0.836-1.216,0.066-2.148,2.676-2.215 c6.337-0.151,12.674-0.241,19.011-0.259c1.027-0.009,2.054,0.475,3.09,0.725c-0.927,0.7-1.548,1.772-2.833,2.022 c-4.382,0.85-7.812,2.099-10.935,3.906c-6.005,3.479-7.977,7.767-10.644,11.89c-2.486,3.854-3.596,7.926-5.915,11.805 c-1.856,3.115-0.829,5.995,1.043,8.927c2.468,3.889,4.764,7.801,7.266,11.682c0.845,1.306,1.764,2.653,3.23,3.811 c2.66,2.091,5.89,4.006,8.599,6.088c1.317,1.007,2.179,2.196,2.907,3.355c0.788,1.239,1.176,2.548,1.822,4.004 c21.837-9.774,45.453-12.247,72.275-5.645c0.075-0.425,0.373-0.958,0.24-1.457c-1.094-3.964-1.838-7.96-3.545-11.855 c-1.458-3.297-4.125-6.47-6.139-9.71c-0.555-0.89-1.035-1.856-0.953-2.771c0.556-5.693,2.403-11.389-0.256-17.06 c-1.226-2.615-2.709-5.195-3.992-7.811c-0.986-2.006-3.272-3.88-2.022-6.118c0.365-0.649-0.537-1.449-0.712-2.198 c-0.248-1.115-0.489-2.241-0.439-3.356c0.009-0.273,1.16-0.789,1.757-0.773c5.003,0.101,10.007,0.241,14.977,0.517 c1.011,0.058,2.485,0.683,2.643,1.14c0.148,0.441-0.928,1.117-1.806,1.491c-2.526,1.09-4.226,2.214-3.09,4.029 c0.381,0.601,0.017,1.398-0.447,2.032c-1.177,1.548-2.154,3.08-1.591,4.787c0.845,2.506,1.342,5.046,2.353,7.534 c1.292,3.164,1.972,6.52,4.688,9.375c3.057,3.215,4.623,6.345,5.145,9.866c0.521,3.488,2.179,7.002,4.316,10.35 c2.203,3.464,5.649,6.728,8.432,10.107c2.203,2.664,3.497,5.595,9.079,7.193c0.829,0.241,1.798,0.359,2.7,0.533 c0.332-0.441,0.896-0.874,0.944-1.315c0.108-0.849,0.018-1.707-0.148-2.557c-1.11-5.512-2.104-11.031-3.463-16.535 c-0.786-3.204-2.245-6.36-3.288-9.548c-0.381-1.166-1.068-2.432-0.522-3.515c2.419-4.796,2.676-9.692,3.247-14.57 c0.448-3.905,0.431-7.817,0.704-11.724c0.042-0.691,0.257-1.423,0.804-2.048c1.044-1.216,2.029-2.331,0.05-3.589 c-0.53-0.342-0.165-1.023-0.231-1.822l23.004,0.024c0.148,0.108,0.289,0.216,0.438,0.325c-1.283,0.449-2.477,1.007-3.876,1.332 c-3.961,0.916-7.257,2.063-7.97,4.412c-0.215,0.732-0.364,1.489-0.829,2.188c-1.06,1.592-2.617,3.115-3.388,4.731 c-2.716,5.644-1.863,11.313,0.009,16.967c0.663,2.015,2.17,4.088,1.715,6.036c-0.804,3.488,1.209,6.729,2.096,10.066 c0.422,1.607,1.806,3.156,2.85,4.722c1.988,2.98,3.992,5.952,6.081,8.916c1.888,2.673,4.382,5.271,5.707,8.009 c0.505,1.042,1.441,1.874,2.601,2.599c0.05,0.151,0.148,0.283,0.207,0.433c1.656,0.325,4.034,0.383,7.538,0.376 c6.834-0.034,14.472,0.058,20.361,1.456c11.498,2.739,17.901,7.866,21.736,13.755c2.469,3.788,5.07,7.584,8.532,11.181 c5.624,5.828,9.07,11.74,7.812,18.251c-0.455,2.332-0.621,5.112,1.582,7.02c3.944,3.42,4.714,6.86,4.274,10.532 c-0.265,2.23,1.268,4.021,3.629,5.951C1614.431,1514.022,1615.614,1516.361,1616.211,1518.569z" clip-path="url(#SVGID_2_)" opacity=".5" transform="matrix(1, 0, 0, 1, 0, 0)"/><path fill="#E2CFF4" d="M-54.328,347.423l765.116,51.122c0.306,0.017,0.613,0.05,0.918,0.1l388.928,60.437 c11.332,1.765,12.209,17.834,1.143,20.839l0,0c-11.962,3.248-9.626,20.965,2.767,20.965h242.994 c12.74,0,14.662,18.434,2.203,21.098L834.214,632.303c-15.375,3.288-31.271,3.247-46.629-0.133l-227.868-50.097 c-13.477-2.964-27.212-4.554-41.012-4.754l-573.033-8.226" opacity=".2" transform="matrix(1, 0, 0, 1, 0, 0)"/><path fill="#E2CFF4" d="M869.271,278.11l498.213,69.046c9.345,1.299,12.492,13.289,4.987,19.05l-56.611,43.444 c-8.971,6.877-2.484,21.206,8.565,18.925l518.427-107.013c2.337-0.482,4.771-0.159,6.908,0.916l144.543,73.018 c13.609,6.886,29.026,9.317,44.077,6.96l406.1-63.427c12.442-1.947,11.763-20.164-0.778-21.172l-759.564-60.945 c-0.282-0.025-0.563-0.033-0.845-0.033h-406.448H870.72C857.508,256.879,856.183,276.294,869.271,278.11z" opacity=".2" transform="matrix(1, 0, 0, 1, 0, 0)"/><path fill="#E2CFF4" d="M1802.784,439.874l196.68,52.004c1.193,0.316,2.428,0.425,3.646,0.316l354.426-31.896 l738.607-52.245c6.875-0.484,12.374,5.627,11.198,12.455l-53.146,309.856c-0.681,3.93-3.479,7.152-7.257,8.359l-215.146,68.472 c-75.331,23.979-157.157,15.786-226.31-22.646l-224.174-124.606c-26.392-14.67-56.925-19.999-86.696-15.12l-149.106,24.437 c-41.882,6.86-84.775-2.041-120.511-25.044c-106.405-68.515-345.787-182.646-348.893-184.544 c-23.327-14.203,51.508-23.413,72.995-24.928C1767.147,433.48,1785.281,435.245,1802.784,439.874z" opacity=".2" transform="matrix(1, 0, 0, 1, 0, 0)"/><path fill="#E2CFF4" d="M322.928,185.235c-12.318,3.255-9.518,21.572,3.206,20.964l442.341-21.165h214.796 c10.984,0,14.729-14.703,5.119-20.015l-64.845-35.818c-1.565-0.866-3.321-1.314-5.111-1.314H540.823 c-0.912,0-1.823,0.117-2.701,0.35L322.928,185.235z" opacity=".2" transform="matrix(1, 0, 0, 1, 0, 0)"/><path fill="#E2CFF4" d="M1806.943,671.4h105.227c1.285,0,2.553,0.233,3.762,0.683l247.368,93.99 c1.192,0.458,2.468,0.691,3.743,0.691h50.266c12.377,0,14.729,17.684,2.783,20.957l-131.9,36.134 c-2.37,0.649-4.888,0.449-7.133-0.558l-166.95-75.166l-111.929-56.541C1792.182,686.545,1795.752,671.4,1806.943,671.4z" opacity=".2" transform="matrix(1, 0, 0, 1, 0, 0)"/><path fill="#E2CFF4" d="M260.469,762.003l308.054-42.012c1.341-0.184,2.7-0.117,4.009,0.216l183.359,46.234 c0.845,0.215,1.715,0.324,2.584,0.324h208.924c12.807,0,14.645,18.575,2.096,21.114l-391.29,79.204 c-1.316,0.267-2.684,0.275-4.009,0.034l-227.752-41.997c-0.936-0.174-1.847-0.473-2.708-0.891l-86.457-42.053 C247.811,777.572,250.056,763.427,260.469,762.003z" opacity=".2" transform="matrix(1, 0, 0, 1, 0, 0)"/><path fill="#E2CFF4" d="M2089.615,182.737l221.515,40.223c0.265,0.049,0.53,0.091,0.786,0.107l247.873,25.877 c0.365,0.042,0.737,0.066,1.103,0.066h174.661c9.808,0,14.364-12.247,6.958-18.717l-28.661-25.052 c-1.564-1.374-3.496-2.248-5.559-2.523l-306.886-41.046c-0.464-0.067-0.928-0.1-1.392-0.1h-167.662h-140.855 C2078.557,161.573,2076.884,180.423,2089.615,182.737z" opacity=".2" transform="matrix(1, 0, 0, 1, 0, 0)"/><path fill="#FFF" d="M 2611.910888671875 506.83099365234375 L 2609.70703125 510.052001953125 L 2607.346923828125 506.9309997558594 L 2609.23388671875 510.8940124511719 L 2607.52099609375 514.9569702148438 L 2609.806884765625 511.8840026855469 L 2612.075927734375 514.8560180664062 L 2610.279052734375 511.0429992675781 Z" opacity=".93" transform="matrix(1, 0, 0, 1, 0, 0)"/><path fill="#FFF" d="M 1518.0579833984375 1028.0989990234375 L 1514.155029296875 1031.35400390625 L 1510.06298828125 1028.27294921875 L 1513.31103515625 1032.1939697265625 L 1510.2459716796875 1036.300048828125 L 1514.2889404296875 1033.18505859375 L 1518.23095703125 1036.125 L 1515.133056640625 1032.344970703125 Z" opacity=".93" transform="matrix(1, 0, 0, 1, 0, 0)"/><path fill="#FFF" d="M 2341.845947265625 1015.6849975585938 L 2334.35693359375 1021.93701171875 L 2326.52099609375 1016.0250244140625 L 2332.741943359375 1023.552001953125 L 2326.860107421875 1031.428955078125 L 2334.623046875 1025.4510498046875 L 2342.193115234375 1031.0870361328125 L 2336.238037109375 1023.8270263671875 Z" opacity=".93" transform="matrix(1, 0, 0, 1, 0, 0)"/><path fill="#FFF" d="M 2076.552978515625 1073.7569580078125 L 2072.64306640625 1077.012939453125 L 2068.55908203125 1073.9320068359375 L 2071.797119140625 1077.863037109375 L 2068.73193359375 1081.9659423828125 L 2072.782958984375 1078.844970703125 L 2076.72705078125 1081.782958984375 L 2073.6201171875 1078.0030517578125 Z" opacity=".93" transform="matrix(1, 0, 0, 1, 0, 0)"/><path fill="#FFF" d="M 2364.427978515625 638.4630126953125 L 2360.52490234375 641.718994140625 L 2356.44189453125 638.6380004882812 L 2359.68798828125 642.5590209960938 L 2356.623046875 646.6640014648438 L 2360.666015625 643.5499877929688 L 2364.60888671875 646.489990234375 L 2361.511962890625 642.7009887695312 Z" opacity=".93" transform="matrix(1, 0, 0, 1, 0, 0)"/><path fill="#FFF" d="M 821.89599609375 864.8690185546875 L 817.9860229492188 868.125 L 813.9019775390625 865.0440063476562 L 817.1489868164062 868.9739990234375 L 814.083984375 873.0780029296875 L 818.1270141601562 869.9559936523438 L 822.0700073242188 872.9030151367188 L 818.9719848632812 869.114990234375 Z" opacity=".93" transform="matrix(1, 0, 0, 1, 0, 0)"/><path fill="#FFF" d="M 1703.39599609375 476.3909912109375 L 1699.487060546875 479.6470031738281 L 1695.4019775390625 476.5660095214844 L 1698.6500244140625 480.4960021972656 L 1695.5849609375 484.60101318359375 L 1699.6280517578125 481.47900390625 L 1703.5699462890625 484.4169921875 L 1700.4730224609375 480.63800048828125 Z" opacity=".93" transform="matrix(1, 0, 0, 1, 0, 0)"/><path fill="#FFF" d="M 1942.8370361328125 533.2069702148438 L 1939.5899658203125 529.2769775390625 L 1942.654052734375 525.1820068359375 L 1938.7449951171875 528.4359741210938 L 1934.6689453125 525.3560180664062 L 1937.7679443359375 529.427978515625 L 1934.843017578125 533.3909912109375 L 1938.613037109375 530.2680053710938 Z" opacity=".93" transform="matrix(1, 0, 0, 1, 0, 0)"/><path fill="#FFF" d="M 159.3249969482422 877.0079956054688 L 156.0780029296875 873.0780029296875 L 159.14300537109375 868.9739990234375 L 155.23300170898438 872.2379760742188 L 151.15699768066406 869.156982421875 L 154.25599670410156 873.219970703125 L 151.33099365234375 877.1829833984375 L 155.10000610351562 874.0689697265625 Z" opacity=".93" transform="matrix(1, 0, 0, 1, 0, 0)"/><path fill="#FFF" d="M 189.79200744628906 1113.1309814453125 L 186.54600524902344 1109.208984375 L 189.61000061035156 1105.10400390625 L 185.70799255371094 1108.3590087890625 L 181.625 1105.279052734375 L 184.72300720214844 1109.343017578125 L 181.7989959716797 1113.3060302734375 L 185.5679931640625 1110.1910400390625 Z" opacity=".93" transform="matrix(1, 0, 0, 1, 0, 0)"/><path fill="#FFF" d="M 407.6619873046875 861.7059936523438 L 404.4230041503906 857.7750244140625 L 407.4880065917969 853.6699829101562 L 403.5790100097656 856.9349975585938 L 399.4939880371094 853.85400390625 L 402.60101318359375 857.9169921875 L 399.6679992675781 861.8800048828125 L 403.43701171875 858.7659912109375 Z" opacity=".93" transform="matrix(1, 0, 0, 1, 0, 0)"/><path fill="#FFF" d="M 465.89599609375 891.177978515625 L 462.6579895019531 887.2579956054688 L 465.72198486328125 883.1439819335938 L 461.81201171875 886.4089965820312 L 457.72900390625 883.3270263671875 L 460.8340148925781 887.3909912109375 L 457.9020080566406 891.35400390625 L 461.6709899902344 888.239990234375 Z" opacity=".93" transform="matrix(1, 0, 0, 1, 0, 0)"/><path fill="#FFF" d="M 679.739990234375 716.833984375 L 676.5009765625 712.9130249023438 L 679.5659790039062 708.8090209960938 L 675.655029296875 712.06298828125 L 671.572021484375 708.9829711914062 L 674.6790161132812 713.0549926757812 L 671.7540283203125 717.0189819335938 L 675.5150146484375 713.89599609375 Z" opacity=".93" transform="matrix(1, 0, 0, 1, 0, 0)"/><path fill="#FFF" d="M 2575.611083984375 1148.81494140625 L 2572.373046875 1144.886962890625 L 2575.43798828125 1140.781005859375 L 2571.534912109375 1144.0439453125 L 2567.443115234375 1140.9639892578125 L 2570.551025390625 1145.0269775390625 L 2567.6259765625 1148.989013671875 L 2571.386962890625 1145.876953125 Z" opacity=".93" transform="matrix(1, 0, 0, 1, 0, 0)"/><path fill="#FFF" d="M 2732.02294921875 673.6060180664062 L 2728.777099609375 669.6849975585938 L 2731.842041015625 665.5809936523438 L 2727.931884765625 668.8359985351562 L 2723.85595703125 665.7550048828125 L 2726.9541015625 669.8189697265625 L 2724.02099609375 673.7899780273438 L 2727.800048828125 670.6680297851562 Z" opacity=".93" transform="matrix(1, 0, 0, 1, 0, 0)"/><path fill="#FFF" d="M 2796.52099609375 704.1710205078125 L 2793.281005859375 700.2410278320312 L 2796.346923828125 696.14599609375 L 2792.445068359375 699.4000244140625 L 2788.35400390625 696.3200073242188 L 2791.458984375 700.3839721679688 L 2788.535888671875 704.3460083007812 L 2792.297119140625 701.2319946289062 Z" opacity=".93" transform="matrix(1, 0, 0, 1, 0, 0)"/><path fill="#FFF" d="M 2563.5419921875 792.875 L 2560.303955078125 788.9459838867188 L 2563.367919921875 784.8489990234375 L 2559.458984375 788.10400390625 L 2555.3740234375 785.0239868164062 L 2558.48095703125 789.0869750976562 L 2555.548095703125 793.0499877929688 L 2559.31689453125 789.93701171875 Z" opacity=".93" transform="matrix(1, 0, 0, 1, 0, 0)"/><path fill="#FFF" d="M 2292.656982421875 424.0050048828125 L 2289.409912109375 420.0830078125 L 2292.47607421875 415.97900390625 L 2288.56396484375 419.2349853515625 L 2284.489990234375 416.15399169921875 L 2287.587890625 420.2250061035156 L 2284.6640625 424.18798828125 L 2288.43310546875 421.0660095214844 Z" opacity=".93" transform="matrix(1, 0, 0, 1, 0, 0)"/><path fill="#FFF" d="M 2692.617919921875 320.80499267578125 L 2689.37890625 316.8840026855469 L 2692.444091796875 312.77099609375 L 2688.534912109375 316.03399658203125 L 2684.450927734375 312.9540100097656 L 2687.556884765625 317.0169982910156 L 2684.625 320.9800109863281 L 2688.39501953125 317.8659973144531 Z" opacity=".93" transform="matrix(1, 0, 0, 1, 0, 0)"/><path fill="#FFF" d="M 1054.907958984375 1103.22998046875 L 1049.06005859375 1108.1099853515625 L 1042.9539794921875 1103.4969482421875 L 1047.801025390625 1109.3759765625 L 1043.219970703125 1115.511962890625 L 1049.2750244140625 1110.8499755859375 L 1055.1729736328125 1115.2530517578125 L 1050.5340576171875 1109.583984375 Z" opacity=".93" transform="matrix(1, 0, 0, 1, 0, 0)"/><path fill="#FFF" d="M 2216.049072265625 800.0689697265625 L 2210.2099609375 804.9400024414062 L 2204.10400390625 800.333984375 L 2208.950927734375 806.2050170898438 L 2204.368896484375 812.3410034179688 L 2210.4169921875 807.6790161132812 L 2216.31396484375 812.073974609375 L 2211.676025390625 806.4130249023438 Z" opacity=".93" transform="matrix(1, 0, 0, 1, 0, 0)"/><path fill="#FFF" d="M 1375.5030517578125 341.9779968261719 L 1371.593994140625 345.2409973144531 L 1367.510009765625 342.1610107421875 L 1370.7490234375 346.0830078125 L 1367.6839599609375 350.18701171875 L 1371.7340087890625 347.072998046875 L 1375.677001953125 350.0039978027344 L 1372.5789794921875 346.2239990234375 Z" opacity=".93" transform="matrix(1, 0, 0, 1, 0, 0)"/><path fill="#FFF" d="M 1042.1429443359375 369.87799072265625 L 1039.947021484375 373.1000061035156 L 1037.5870361328125 369.97900390625 L 1039.468017578125 373.9330139160156 L 1037.760986328125 378.0050048828125 L 1040.0389404296875 374.9320068359375 L 1042.3170166015625 377.90399169921875 L 1040.510986328125 374.0899963378906 Z" opacity=".93" transform="matrix(1, 0, 0, 1, 0, 0)"/><path fill="#FFF" d="M 1289.220947265625 113.7979965209961 L 1285.31005859375 117.05400085449219 L 1281.2349853515625 113.98100280761719 L 1284.4739990234375 117.90299987792969 L 1281.4090576171875 122.00800323486328 L 1285.458984375 118.88600158691406 L 1289.4029541015625 121.82499694824219 L 1286.2960205078125 118.04399871826172 Z" opacity=".93" transform="matrix(1, 0, 0, 1, 0, 0)"/><path fill="#FFF" d="M 772.0859985351562 878.7319946289062 L 764.5900268554688 884.9769897460938 L 756.7620239257812 879.0650024414062 L 762.9749755859375 886.5999755859375 L 757.0919799804688 894.4760131835938 L 764.8629760742188 888.489013671875 L 772.426025390625 894.1339721679688 L 766.469970703125 886.875 Z" opacity=".93" transform="matrix(1, 0, 0, 1, 0, 0)"/><path fill="#FFF" d="M 506.78399658203125 936.8049926757812 L 502.88299560546875 940.0599975585938 L 498.7909851074219 936.97998046875 L 502.0379943847656 940.9099731445312 L 498.9729919433594 945.0050048828125 L 503.0150146484375 941.8930053710938 L 506.9580078125 944.8309936523438 L 503.8609924316406 941.051025390625 Z" opacity=".93" transform="matrix(1, 0, 0, 1, 0, 0)"/><path fill="#FFF" d="M 794.6680297851562 501.50201416015625 L 790.7570190429688 504.7650146484375 L 786.6829833984375 501.6860046386719 L 789.9210205078125 505.60699462890625 L 786.8560180664062 509.7120056152344 L 790.906982421875 506.5979919433594 L 794.8499755859375 509.5369873046875 L 791.7440185546875 505.7489929199219 Z" opacity=".93" transform="matrix(1, 0, 0, 1, 0, 0)"/><path fill="#FFF" d="M 1263.4659423828125 773.5419921875 L 1257.6259765625 778.4210205078125 L 1251.512939453125 773.8090209960938 L 1256.366943359375 779.68701171875 L 1251.7779541015625 785.822998046875 L 1257.8330078125 781.1599731445312 L 1263.73095703125 785.5570068359375 L 1259.093017578125 779.89501953125 Z" opacity=".93" transform="matrix(1, 0, 0, 1, 0, 0)"/><path fill="#FFF" d="M 1575.1739501953125 639.2789916992188 L 1571.927001953125 635.3499755859375 L 1574.991943359375 631.2440185546875 L 1571.08203125 634.5 L 1567.0059814453125 631.4180297851562 L 1570.10400390625 635.4910278320312 L 1567.1800537109375 639.4539794921875 L 1570.948974609375 636.3319702148438 Z" opacity=".93" transform="matrix(1, 0, 0, 1, 0, 0)"/><path fill="#FFF" d="M 1835.156982421875 555.0040283203125 L 1831.91796875 551.0750122070312 L 1834.9830322265625 546.97802734375 L 1831.072998046875 550.2340087890625 L 1826.989990234375 547.1530151367188 L 1830.095947265625 551.2249755859375 L 1827.1639404296875 555.18798828125 L 1830.9329833984375 552.0650024414062 Z" opacity=".93" transform="matrix(1, 0, 0, 1, 0, 0)"/><path fill="#FFF" d="M 1877.4119873046875 983.0560302734375 L 1874.1820068359375 979.1339721679688 L 1877.238037109375 975.0289916992188 L 1873.3370361328125 978.2839965820312 L 1869.2540283203125 975.2039794921875 L 1872.3509521484375 979.2739868164062 L 1869.427978515625 983.239013671875 L 1873.196044921875 980.1160278320312 Z" opacity=".93" transform="matrix(1, 0, 0, 1, 0, 0)"/><path fill="#FFF" d="M 1757.1839599609375 815.93798828125 L 1753.93603515625 812.0079956054688 L 1757.0009765625 807.9030151367188 L 1753.0909423828125 811.1589965820312 L 1749.0159912109375 808.0780029296875 L 1752.113037109375 812.1500244140625 L 1749.18896484375 816.1129760742188 L 1752.9580078125 812.9910278320312 Z" opacity=".93" transform="matrix(1, 0, 0, 1, 0, 0)"/><path fill="#FFF" d="M 1804.8709716796875 783.6170043945312 L 1801.633056640625 779.68701171875 L 1804.697021484375 775.5830078125 L 1800.7879638671875 778.8380126953125 L 1796.7049560546875 775.7579956054688 L 1799.81103515625 779.8200073242188 L 1796.8790283203125 783.7919921875 L 1800.64697265625 780.6690063476562 Z" opacity=".93" transform="matrix(1, 0, 0, 1, 0, 0)"/><path fill="#FFF" d="M 1524.237060546875 978.958984375 L 1520.998046875 975.0289916992188 L 1524.06298828125 970.9249877929688 L 1520.1529541015625 974.1799926757812 L 1516.0689697265625 971.0989990234375 L 1519.176025390625 975.1699829101562 L 1516.2430419921875 979.1339721679688 L 1520.011962890625 976.010986328125 Z" opacity=".93" transform="matrix(1, 0, 0, 1, 0, 0)"/><path fill="#FFF" d="M 1330.489013671875 1076.56201171875 L 1327.2430419921875 1072.635009765625 L 1330.3079833984375 1068.5279541015625 L 1326.406005859375 1071.79296875 L 1322.322021484375 1068.7120361328125 L 1325.4210205078125 1072.7740478515625 L 1322.4959716796875 1076.737060546875 L 1326.2659912109375 1073.625 Z" opacity=".93" transform="matrix(1, 0, 0, 1, 0, 0)"/><path fill="#FFF" d="M 1005.8519897460938 1011.85400390625 L 1002.60400390625 1007.9329833984375 L 1005.6690063476562 1003.8289794921875 L 1001.7689819335938 1007.083984375 L 997.6840209960938 1004.0040283203125 L 1000.781982421875 1008.0750122070312 L 997.8590087890625 1012.0380249023438 L 1001.6279907226562 1008.9149780273438 Z" opacity=".93" transform="matrix(1, 0, 0, 1, 0, 0)"/><path fill="#FFF" d="M 1162.2569580078125 536.6539916992188 L 1159.0179443359375 532.7239990234375 L 1162.0830078125 528.6279907226562 L 1158.1719970703125 531.8839721679688 L 1154.0889892578125 528.802978515625 L 1157.18701171875 532.8660278320312 L 1154.262939453125 536.8289794921875 L 1158.031982421875 533.7150268554688 Z" opacity=".93" transform="matrix(1, 0, 0, 1, 0, 0)"/><path fill="#FFF" d="M 1226.760986328125 567.2100219726562 L 1223.5150146484375 563.2890014648438 L 1226.5799560546875 559.1840209960938 L 1222.677978515625 562.447998046875 L 1218.593994140625 559.3579711914062 L 1221.6920166015625 563.4299926757812 L 1218.7679443359375 567.3939819335938 L 1222.5369873046875 564.280029296875 Z" opacity=".93" transform="matrix(1, 0, 0, 1, 0, 0)"/><path fill="#FFF" d="M 993.7739868164062 655.9149780273438 L 990.5349731445312 651.9929809570312 L 993.6010131835938 647.8880004882812 L 989.698974609375 651.1519775390625 L 985.6069946289062 648.06201171875 L 988.7130126953125 652.135009765625 L 985.7890014648438 656.0980224609375 L 989.5499877929688 652.9840087890625 Z" opacity=".93" transform="matrix(1, 0, 0, 1, 0, 0)"/><path fill="#FFF" d="M 722.8900146484375 287.0530090332031 L 719.6510009765625 283.12200927734375 L 722.7160034179688 279.0169982910156 L 718.8049926757812 282.281005859375 L 714.7219848632812 279.20098876953125 L 717.8289794921875 283.2650146484375 L 714.89599609375 287.22698974609375 L 718.6649780273438 284.1130065917969 Z" opacity=".93" transform="matrix(1, 0, 0, 1, 0, 0)"/><path fill="#FFF" d="M 1122.85205078125 183.85299682617188 L 1119.612060546875 179.9219970703125 L 1122.677001953125 175.8179931640625 L 1118.7750244140625 179.08200073242188 L 1114.6839599609375 175.99400329589844 L 1117.7889404296875 180.06399536132812 L 1114.865966796875 184.0279998779297 L 1118.635009765625 180.90499877929688 Z" opacity=".93" transform="matrix(1, 0, 0, 1, 0, 0)"/><path fill="#FFF" d="M 646.291015625 663.1079711914062 L 640.4420166015625 667.9869995117188 L 634.3359985351562 663.3740234375 L 639.1909790039062 669.2520141601562 L 634.6019897460938 675.3889770507812 L 640.6580200195312 670.7260131835938 L 646.5560302734375 675.1220092773438 L 641.9169921875 669.4600219726562 Z" opacity=".93" transform="matrix(1, 0, 0, 1, 0, 0)"/><path fill="#FFF" d="M 932.6240234375 171.71299743652344 L 928.7139892578125 174.9770050048828 L 924.6389770507812 171.89599609375 L 927.8779907226562 175.8179931640625 L 924.81298828125 179.9219970703125 L 928.8629760742188 176.8090057373047 L 932.8060302734375 179.7480010986328 L 929.7000122070312 175.95899963378906 Z" opacity=".93" transform="matrix(1, 0, 0, 1, 0, 0)"/><path fill="#FFF" d="M 590.8480224609375 321.5790100097656 L 588.6439819335938 324.802001953125 L 586.2830200195312 321.67999267578125 L 588.1719970703125 325.64300537109375 L 586.4660034179688 329.7139892578125 L 588.7429809570312 326.63299560546875 L 591.02099609375 329.614990234375 L 589.2150268554688 325.8009948730469 Z" opacity=".93" transform="matrix(1, 0, 0, 1, 0, 0)"/><path fill="#FFF" d="M 837.9249877929688 65.50900268554688 L 834.0159912109375 68.76399993896484 L 829.9390258789062 65.68399810791016 L 833.1790161132812 69.6050033569336 L 830.1129760742188 73.70899963378906 L 834.1649780273438 70.59500122070312 L 838.0989990234375 73.53500366210938 L 835.0009765625 69.75499725341797 Z" opacity=".93" transform="matrix(1, 0, 0, 1, 0, 0)"/><path fill="#FFF" d="M 320.7909851074219 830.4340209960938 L 313.29400634765625 836.6859741210938 L 305.4580078125 830.7750244140625 L 311.6789855957031 838.301025390625 L 305.7980041503906 846.177978515625 L 313.5589904785156 840.198974609375 L 321.12200927734375 845.8359985351562 L 315.17401123046875 838.5759887695312 Z" opacity=".93" transform="matrix(1, 0, 0, 1, 0, 0)"/><path fill="#FFF" d="M 55.48899841308594 888.5070190429688 L 51.57899856567383 891.77099609375 L 47.49599838256836 888.6890258789062 L 50.74300003051758 892.6110229492188 L 47.678001403808594 896.7160034179688 L 51.720001220703125 893.6019897460938 L 55.66299819946289 896.541015625 L 52.564998626708984 892.7520141601562 Z" opacity=".93" transform="matrix(1, 0, 0, 1, 0, 0)"/><path fill="#FFF" d="M 343.37298583984375 453.2120056152344 L 339.4620056152344 456.4670104980469 L 335.37799072265625 453.3869934082031 L 338.6260070800781 457.3080139160156 L 335.5610046386719 461.4209899902344 L 339.60400390625 458.2980041503906 L 343.5459899902344 461.2380065917969 L 340.4389953613281 457.4580078125 Z" opacity=".93" transform="matrix(1, 0, 0, 1, 0, 0)"/><path fill="#FFF" d="M 812.1710205078125 725.2520141601562 L 806.322998046875 730.1229858398438 L 800.218017578125 725.5189819335938 L 805.072021484375 731.3880004882812 L 800.4819946289062 737.531982421875 L 806.530029296875 732.8619995117188 L 812.4359741210938 737.2670288085938 L 807.7890014648438 731.5969848632812 Z" opacity=".93" transform="matrix(1, 0, 0, 1, 0, 0)"/><path fill="#FFF" d="M 1123.8699951171875 590.97998046875 L 1120.6309814453125 587.0590209960938 L 1123.696044921875 582.9459838867188 L 1119.7860107421875 586.208984375 L 1115.7099609375 583.1290283203125 L 1118.8089599609375 587.1920166015625 L 1115.884033203125 591.155029296875 L 1119.6529541015625 588.041015625 Z" opacity=".93" transform="matrix(1, 0, 0, 1, 0, 0)"/><path fill="#FFF" d="M 1383.8609619140625 506.7139892578125 L 1380.623046875 502.78399658203125 L 1383.68798828125 498.67999267578125 L 1379.7779541015625 501.93499755859375 L 1375.6939697265625 498.85400390625 L 1378.800048828125 502.9259948730469 L 1375.8680419921875 506.8890075683594 L 1379.636962890625 503.77398681640625 Z" opacity=".93" transform="matrix(1, 0, 0, 1, 0, 0)"/><path fill="#FFF" d="M 1426.116943359375 934.7650146484375 L 1422.8780517578125 930.8359985351562 L 1425.9420166015625 926.7310180664062 L 1422.0419921875 929.9940185546875 L 1417.948974609375 926.906005859375 L 1421.0550537109375 930.9769897460938 L 1418.1319580078125 934.9400024414062 L 1421.8919677734375 931.8270263671875 Z" opacity=".93" transform="matrix(1, 0, 0, 1, 0, 0)"/><path fill="#FFF" d="M 1305.8790283203125 767.6389770507812 L 1302.6400146484375 763.718017578125 L 1305.7049560546875 759.60498046875 L 1301.7950439453125 762.8690185546875 L 1297.7110595703125 759.7880249023438 L 1300.8179931640625 763.8510131835938 L 1297.885986328125 767.8140258789062 L 1301.655029296875 764.7000122070312 Z" opacity=".93" transform="matrix(1, 0, 0, 1, 0, 0)"/><path fill="#FFF" d="M 1353.5679931640625 735.3179931640625 L 1350.3299560546875 731.3880004882812 L 1353.39501953125 727.2839965820312 L 1349.491943359375 730.5469970703125 L 1345.4000244140625 727.4660034179688 L 1348.5069580078125 731.5289916992188 L 1345.5830078125 735.4929809570312 L 1349.35205078125 732.3790283203125 Z" opacity=".93" transform="matrix(1, 0, 0, 1, 0, 0)"/><path fill="#FFF" d="M 1072.9329833984375 930.6610107421875 L 1069.6939697265625 926.7310180664062 L 1072.759033203125 922.625 L 1068.8580322265625 925.8889770507812 L 1064.7659912109375 922.8099975585938 L 1067.8719482421875 926.8720092773438 L 1064.947998046875 930.8359985351562 L 1068.708984375 927.7219848632812 Z" opacity=".93" transform="matrix(1, 0, 0, 1, 0, 0)"/><path fill="#FFF" d="M 879.1950073242188 1028.2650146484375 L 875.947021484375 1024.343017578125 L 879.0130004882812 1020.2379760742188 L 875.10302734375 1023.4940185546875 L 871.0269775390625 1020.4140014648438 L 874.125 1024.4840087890625 L 871.2009887695312 1028.447998046875 L 874.969970703125 1025.3260498046875 Z" opacity=".93" transform="matrix(1, 0, 0, 1, 0, 0)"/><path fill="#FFF" d="M 554.5560302734375 963.5640258789062 L 551.3090209960938 959.635009765625 L 554.3740234375 955.530029296875 L 550.4639892578125 958.7930297851562 L 546.3889770507812 955.7119750976562 L 549.4869995117188 959.7760009765625 L 546.56298828125 963.739013671875 L 550.3319702148438 960.625 Z" opacity=".93" transform="matrix(1, 0, 0, 1, 0, 0)"/><path fill="#FFF" d="M 710.9530029296875 488.364013671875 L 707.7139892578125 484.4339904785156 L 710.7789916992188 480.3290100097656 L 706.8759765625 483.5840148925781 L 702.7930297851562 480.5039978027344 L 705.8920288085938 484.57501220703125 L 702.9669799804688 488.5379943847656 L 706.7360229492188 485.4169921875 Z" opacity=".93" transform="matrix(1, 0, 0, 1, 0, 0)"/><path fill="#FFF" d="M 775.4669799804688 518.9199829101562 L 772.218994140625 514.989990234375 L 775.2839965820312 510.8940124511719 L 771.3740234375 514.1489868164062 L 767.2979736328125 511.0690002441406 L 770.39697265625 515.1400146484375 L 767.4719848632812 519.10302734375 L 771.2410278320312 515.97998046875 Z" opacity=".93" transform="matrix(1, 0, 0, 1, 0, 0)"/><path fill="#FFF" d="M 542.47900390625 607.6240234375 L 539.239990234375 603.6939697265625 L 542.3049926757812 599.5969848632812 L 538.4039916992188 602.85302734375 L 534.31201171875 599.77197265625 L 537.4169921875 603.843017578125 L 534.4929809570312 607.8070068359375 L 538.2540283203125 604.6849975585938 Z" opacity=".93" transform="matrix(1, 0, 0, 1, 0, 0)"/><path fill="#FFF" d="M 271.593994140625 238.75399780273438 L 268.3550109863281 234.83299255371094 L 271.4200134277344 230.72799682617188 L 267.510986328125 233.98300170898438 L 263.4259948730469 230.90199279785156 L 266.5329895019531 234.9739990234375 L 263.6000061035156 238.93699645996094 L 267.3689880371094 235.81399536132812 Z" opacity=".93" transform="matrix(1, 0, 0, 1, 0, 0)"/><path fill="#FFF" d="M 671.5560302734375 135.5540008544922 L 668.3170166015625 131.63299560546875 L 671.3820190429688 127.52799987792969 L 667.47998046875 130.78399658203125 L 663.3880004882812 127.7030029296875 L 666.4949951171875 131.76600646972656 L 663.5700073242188 135.73699951171875 L 667.3309936523438 132.61500549316406 Z" opacity=".93" transform="matrix(1, 0, 0, 1, 0, 0)"/><path fill="#FFF" d="M 194.9949951171875 614.8170166015625 L 189.14599609375 619.68798828125 L 183.04200744628906 615.083984375 L 187.88699340820312 620.9550170898438 L 183.3070068359375 627.0980224609375 L 189.36199951171875 622.427978515625 L 195.25999450683594 626.8319702148438 L 190.62100219726562 621.1619873046875 Z" opacity=".93" transform="matrix(1, 0, 0, 1, 0, 0)"/><path fill="#FFF" d="M 2022.81494140625 763.0009765625 L 2026.718017578125 759.7459716796875 L 2030.81005859375 762.8179931640625 L 2027.56201171875 758.89697265625 L 2030.626953125 754.7919921875 L 2026.5860595703125 757.9149780273438 L 2022.6419677734375 754.9760131835938 L 2025.739990234375 758.7550048828125 Z" opacity=".93" transform="matrix(1, 0, 0, 1, 0, 0)"/><path fill="#FFF" d="M 2356.177001953125 735.1110229492188 L 2358.37109375 731.8790283203125 L 2360.73193359375 735.0020141601562 L 2358.843994140625 731.0469970703125 L 2360.550048828125 726.9760131835938 L 2358.280029296875 730.0469970703125 L 2355.993896484375 727.0750122070312 L 2357.801025390625 730.8889770507812 Z" opacity=".93" transform="matrix(1, 0, 0, 1, 0, 0)"/><path fill="#FFF" d="M 2109.091064453125 991.1820068359375 L 2113 987.9249877929688 L 2117.0849609375 991.0070190429688 L 2113.845947265625 987.0770263671875 L 2116.910888671875 982.9719848632812 L 2112.85888671875 986.093994140625 L 2108.9169921875 983.155029296875 L 2112.02294921875 986.9349975585938 Z" opacity=".93" transform="matrix(1, 0, 0, 1, 0, 0)"/><path fill="#FFF" d="M 2626.23193359375 226.25599670410156 L 2633.72998046875 220.00399780273438 L 2641.55810546875 225.9149932861328 L 2635.3369140625 218.3800048828125 L 2641.218017578125 210.51199340820312 L 2633.45703125 216.49000549316406 L 2625.89404296875 210.84500122070312 L 2631.842041015625 218.11399841308594 Z" opacity=".93" transform="matrix(1, 0, 0, 1, 0, 0)"/><path fill="#FFF" d="M 2603.64306640625 603.47802734375 L 2607.553955078125 600.2139892578125 L 2611.637939453125 603.302978515625 L 2608.39794921875 599.3729858398438 L 2611.464111328125 595.2689819335938 L 2607.412109375 598.3820190429688 L 2603.47802734375 595.4429931640625 L 2606.575927734375 599.2319946289062 Z" opacity=".93" transform="matrix(1, 0, 0, 1, 0, 0)"/><path fill="#FFF" d="M 2134.85302734375 331.43798828125 L 2140.69189453125 326.5589904785156 L 2146.798095703125 331.1709899902344 L 2141.950927734375 325.2929992675781 L 2146.532958984375 319.1570129394531 L 2140.485107421875 323.82000732421875 L 2134.587890625 319.4230041503906 L 2139.22705078125 325.0849914550781 Z" opacity=".93" transform="matrix(1, 0, 0, 1, 0, 0)"/><path fill="#FFF" d="M 1823.14599609375 465.70098876953125 L 1826.385009765625 469.6300048828125 L 1823.3199462890625 473.7349853515625 L 1827.22900390625 470.4800109863281 L 1831.31396484375 473.55999755859375 L 1828.20703125 469.489013671875 L 1831.1409912109375 465.5260009765625 L 1827.3709716796875 468.64898681640625 Z" opacity=".93" transform="matrix(1, 0, 0, 1, 0, 0)"/><path fill="#FFF" d="M 1563.1619873046875 549.9760131835938 L 1566.4000244140625 553.906005859375 L 1563.3360595703125 558.0009765625 L 1567.238037109375 554.7459716796875 L 1571.3299560546875 557.8270263671875 L 1568.2249755859375 553.7639770507812 L 1571.14697265625 549.801025390625 L 1567.386962890625 552.9149780273438 Z" opacity=".93" transform="matrix(1, 0, 0, 1, 0, 0)"/><path fill="#FFF" d="M 1520.89794921875 121.92500305175781 L 1524.14599609375 125.84700012207031 L 1521.0810546875 129.9510040283203 L 1524.9830322265625 126.69599914550781 L 1529.0660400390625 129.7760009765625 L 1525.968017578125 125.70500183105469 L 1528.884033203125 121.74199676513672 L 1525.123046875 124.86399841308594 Z" opacity=".93" transform="matrix(1, 0, 0, 1, 0, 0)"/><path fill="#FFF" d="M 1641.136962890625 289.04998779296875 L 1644.3759765625 292.97198486328125 L 1641.31103515625 297.0769958496094 L 1645.220947265625 293.8210144042969 L 1649.3050537109375 296.9010009765625 L 1646.20703125 292.8380126953125 L 1649.1300048828125 288.875 L 1645.3609619140625 291.989990234375 Z" opacity=".93" transform="matrix(1, 0, 0, 1, 0, 0)"/><path fill="#FFF" d="M 1593.447021484375 321.37200927734375 L 1596.68701171875 325.2929992675781 L 1593.6209716796875 329.39801025390625 L 1597.531005859375 326.14300537109375 L 1601.614990234375 329.2229919433594 L 1598.509033203125 325.1600036621094 L 1601.4329833984375 321.1969909667969 L 1597.6729736328125 324.30999755859375 Z" opacity=".93" transform="matrix(1, 0, 0, 1, 0, 0)"/><path fill="#FFF" d="M 1874.0830078125 126.02200317382812 L 1877.322021484375 129.9510040283203 L 1874.2569580078125 134.05499267578125 L 1878.166015625 130.8000030517578 L 1882.25 133.8800048828125 L 1879.14501953125 129.8179931640625 L 1882.0670166015625 125.84700012207031 L 1878.3070068359375 128.96800231933594 Z" opacity=".93" transform="matrix(1, 0, 0, 1, 0, 0)"/><path fill="#FFF" d="M 2067.8291015625 28.41699981689453 L 2071.068115234375 32.34700012207031 L 2068.0029296875 36.45100021362305 L 2071.9130859375 33.1879997253418 L 2075.998046875 36.268001556396484 L 2072.89111328125 32.20500183105469 L 2075.823974609375 28.242000579833984 L 2072.0458984375 31.356000900268555 Z" opacity=".93" transform="matrix(1, 0, 0, 1, 0, 0)"/><path fill="#FFF" d="M 2392.467041015625 93.1259994506836 L 2395.7060546875 97.0469970703125 L 2392.64208984375 101.16000366210938 L 2396.552001953125 97.89600372314453 L 2400.635009765625 100.97699737548828 L 2397.529052734375 96.90599822998047 L 2400.4609375 92.94200134277344 L 2396.69189453125 96.06400299072266 Z" opacity=".93" transform="matrix(1, 0, 0, 1, 0, 0)"/><path fill="#FFF" d="M 2236.06298828125 568.3270263671875 L 2239.302001953125 572.2550048828125 L 2236.237060546875 576.35302734375 L 2240.14599609375 573.0960083007812 L 2244.23095703125 576.177978515625 L 2241.133056640625 572.114990234375 L 2244.049072265625 568.1510009765625 L 2240.2880859375 571.2650146484375 Z" opacity=".93" transform="matrix(1, 0, 0, 1, 0, 0)"/><path fill="#FFF" d="M 2171.55810546875 537.77001953125 L 2174.797119140625 541.6909790039062 L 2171.73095703125 545.7960205078125 L 2175.64208984375 542.541015625 L 2179.72607421875 545.6209716796875 L 2176.618896484375 541.5499877929688 L 2179.552001953125 537.5859985351562 L 2175.77392578125 540.708984375 Z" opacity=".93" transform="matrix(1, 0, 0, 1, 0, 0)"/><path fill="#FFF" d="M 2404.537109375 449.0660095214844 L 2407.782958984375 452.98699951171875 L 2404.718994140625 457.0920104980469 L 2408.62109375 453.8269958496094 L 2412.7041015625 456.9169921875 L 2409.60693359375 452.84600830078125 L 2412.530029296875 448.88299560546875 L 2408.761962890625 452.0050048828125 Z" opacity=".93" transform="matrix(1, 0, 0, 1, 0, 0)"/><path fill="#FFF" d="M 2675.429931640625 817.927978515625 L 2678.6689453125 821.8569946289062 L 2675.60400390625 825.9619750976562 L 2679.513916015625 822.697998046875 L 2683.597900390625 825.7789916992188 L 2680.490966796875 821.7160034179688 L 2683.416015625 817.7529907226562 L 2679.654052734375 820.8660278320312 Z" opacity=".93" transform="matrix(1, 0, 0, 1, 0, 0)"/><path fill="#FFF" d="M 2275.4599609375 921.1270141601562 L 2278.70703125 925.0570068359375 L 2275.64306640625 929.1619873046875 L 2279.544921875 925.906982421875 L 2283.6279296875 928.9869995117188 L 2280.529052734375 924.916015625 L 2283.445068359375 920.9520263671875 L 2279.68603515625 924.073974609375 Z" opacity=".93" transform="matrix(1, 0, 0, 1, 0, 0)"/><path fill="#FFF" d="M 2752.02099609375 441.87298583984375 L 2757.868896484375 436.9930114746094 L 2763.98193359375 441.6050109863281 L 2759.12890625 435.7279968261719 L 2763.717041015625 429.5920104980469 L 2757.662109375 434.2539978027344 L 2751.756103515625 429.8580017089844 L 2756.403076171875 435.5199890136719 Z" opacity=".93" transform="matrix(1, 0, 0, 1, 0, 0)"/><path fill="#0E004F" d="M 1788.935059 1843.161011 L 1804.416992 1932.524048 L 1752.561035 1955.151978 L 1728.446045 2022.350952 L 1733.359009 2021.337036 L 1743.713989 2011.285034 L 1748.088013 2018.305054 L 1760.331055 2015.782959 L 1774.686035 1962.097046 L 1796.496948 1953.744995 L 1811.531982 2032.13501 L 1832.150024 2033.775024 L 1836.225952 2014.340942 L 1847.624023 2034.998047 L 1871.645996 2036.912964 L 1834.58606 1913.932007 L 1880.360962 1937.626953 L 1888.777954 1934.645996 L 1884.270996 1928.026978 L 1895.894043 1932.124023 L 1903.208008 1929.526978 L 1826.08606 1885.72998 L 1809.907959 1836.774048" clip-path="url(#SVGID_2_)" opacity=".5" transform="matrix(1, 0, 0, 1, 0, 0)"/><path fill="#0E004F" d="M 793.026978 1401.521973 L 761.979004 1454.084961 L 721.340027 1441.604004 L 676.973022 1464.600952 L 680.31897 1466.355957 L 690.922974 1466.040039 L 690.333984 1471.626953 L 698.658997 1476.005981 L 731.223022 1455.366943 L 747.789978 1461.21106 L 721.406982 1507.984985 L 732.789001 1518.360962 L 743.905029 1510.366943 L 741.330017 1526.136963 L 754.591003 1538.218018 L 788.065979 1458.588989 L 804.327026 1491.801025 L 810.60498 1494.17395 L 810.927979 1488.728027 L 815.924011 1496.18103 L 821.382996 1498.244019 L 795.744995 1440.329956 L 808.218994 1407.977051" clip-path="url(#SVGID_2_)" opacity=".5" transform="matrix(1, 0, 0, 1, 0, 0)"/><path fill="#0E004F" d="M 1944.319946 1651.647949 L 1981.281982 1734.400024 L 1936.590942 1769.192993 L 1929.748047 1840.30603 L 1934.255005 1838.108032 L 1941.82605 1825.791992 L 1947.791016 1831.505005 L 1959.031006 1826.02002 L 1959.744019 1770.436035 L 1978.829956 1756.93103 L 2012.667969 1829.156982 L 2033.046021 1825.618042 L 2032.218018 1805.786987 L 2048.337891 1822.970947 L 2072.087891 1818.857056 L 2005.949951 1708.889038 L 2056.133057 1720.479004 L 2063.548096 1715.509033 L 2057.558105 1710.213989 L 2069.824951 1711.296021 L 2076.270996 1706.967041 L 1990.782959 1683.680054 L 1963.073975 1640.259033" clip-path="url(#SVGID_2_)" opacity=".5" transform="matrix(1, 0, 0, 1, 0, 0)"/><path fill="#190D55" d="M 1944.692017 1654.639038 L 1935.944946 1533.746948 L 1891.113037 1524.953979 L 1857.217041 1448.021973 L 1861.192017 1447.406982 L 1871.432007 1456.265991 L 1873.154053 1445.542969 L 1883.095947 1443.994019 L 1906.421997 1507.369995 L 1925.01001 1509.567993 L 1918.448975 1402.946045 L 1933.823975 1392.771973 L 1941.411987 1416.151001 L 1945.363037 1385.145996 L 1963.281006 1373.290039 L 1963.281006 1545.83606 L 1992.803955 1497.479004 L 1999.911011 1498.02002 L 1997.989014 1508.286011 L 2005.94104 1498.479004 L 2012.121948 1498.942993 L 1963.281006 1585.399048 L 1962.187988 1654.639038" clip-path="url(#SVGID_2_)" transform="matrix(1, 0, 0, 1, 0, 0)"/><path fill="#190D55" d="M 794.419006 1409.890991 L 787.659973 1316.540039 L 753.051025 1309.754028 L 726.874023 1250.349976 L 729.947021 1249.866943 L 737.849976 1256.712036 L 739.182983 1248.435059 L 746.854004 1247.234985 L 764.862976 1296.175049 L 779.218018 1297.873047 L 774.156982 1215.547974 L 786.028015 1207.687012 L 791.883972 1225.738037 L 794.932983 1201.792969 L 808.767029 1192.642944 L 808.767029 1325.883057 L 831.572021 1288.541016 L 837.062988 1288.957031 L 835.580994 1296.874023 L 841.710022 1289.307007 L 846.48999 1289.66394 L 808.767029 1356.430054 L 807.929993 1409.890991" clip-path="url(#SVGID_2_)" transform="matrix(1, 0, 0, 1, 0, 0)"/><path fill="#190D55" d="M 1788.145996 1845.102051 L 1777.187988 1693.687012 L 1721.032959 1682.671997 L 1678.578979 1586.31604 L 1683.573975 1585.532959 L 1696.380981 1596.640991 L 1698.534058 1583.202026 L 1710.993042 1581.262939 L 1740.209961 1660.649048 L 1763.494019 1663.395996 L 1755.276978 1529.859009 L 1774.536987 1517.110962 L 1784.03894 1546.392944 L 1788.984009 1507.552979 L 1811.425049 1492.708984 L 1811.425049 1708.822998 L 1848.401978 1648.260986 L 1857.31604 1648.935059 L 1854.912964 1661.790039 L 1864.854004 1649.509033 L 1872.599976 1650.092041 L 1811.425049 1758.379028 L 1810.057983 1845.102051" clip-path="url(#SVGID_2_)" transform="matrix(1, 0, 0, 1, 0, 0)"/><path fill="#FFF" d="M 1690.6400146484375 1595.4830322265625 L 1703.4549560546875 1606.5810546875 L 1705.6080322265625 1593.1510009765625 L 1714.8370361328125 1591.7110595703125 L 1710.9930419921875 1581.262939453125 L 1698.54296875 1583.2020263671875 L 1696.3809814453125 1596.6409912109375 L 1683.573974609375 1585.532958984375 L 1678.5789794921875 1586.3160400390625 L 1721.032958984375 1682.6719970703125 L 1723.9739990234375 1683.2449951171875 L 1685.64599609375 1596.2569580078125 Z" transform="matrix(1, 0, 0, 1, 0, 0)"/><path fill="#FFF" d="M 1796.050048828125 1517.501953125 L 1811.425048828125 1507.3280029296875 L 1811.425048828125 1492.708984375 L 1788.9840087890625 1507.552978515625 L 1785.114990234375 1537.8929443359375 L 1791.10400390625 1556.343017578125 Z" transform="matrix(1, 0, 0, 1, 0, 0)"/><path fill="#FFF" d="M 1768.3499755859375 1668.9090576171875 L 1762.343017578125 1539.8089599609375 L 1778.43798828125 1529.1490478515625 L 1774.5369873046875 1517.1109619140625 L 1755.2769775390625 1529.8590087890625 L 1763.4940185546875 1663.39599609375 L 1740.2099609375 1660.6490478515625 L 1740.2099609375 1660.6490478515625 Z" transform="matrix(1, 0, 0, 1, 0, 0)"/><path fill="#FFF" d="M 1857.31604 1648.935059 L 1848.401978 1648.260986 L 1811.425049 1708.822998 L 1811.425049 1708.822998 L 1857.31604 1648.935059" transform="matrix(1, 0, 0, 1, 0, 0)"/><path fill="#FFF8DB" d="M1064.227,920.344c-0.869-2.872-2.377-6.211-5.343-6.561 c-1.656-0.2-3.247,0.657-4.688,1.507c-21.406,12.664-39.414,31.081-51.641,52.812c0.125-11.29,0.249-22.58,0.373-33.87 c0.025-1.865-0.273-4.213-2.037-4.804c-1.078-0.366-2.236,0.142-3.231,0.69c-11.729,6.535-16.998,21.713-14.38,34.936 c2.625,13.221,11.887,24.377,22.962,31.988c11.075,7.602,23.931,12.097,36.705,16.219c-14.82,11.881-29.631,23.762-44.451,35.635 c-4.332,3.481-9.162,8.359-7.654,13.721c0.812,2.906,3.322,4.953,5.683,6.811c7.919,6.194,15.838,12.397,23.757,18.601 c1.325,1.023,2.717,2.182,3.147,3.805c0.432,1.624-0.231,3.322-0.969,4.837c-8.383,17.177-29.134,30.189-26.575,49.156 c1.648,12.205,15.036,21.381,26.939,18.475c2.907-0.707,5.74-2.073,7.737-4.312c2.394-2.689,3.372-6.337,4.283-9.833 c9.418-36.459,18.837-72.053,23.41-109.452C1063.341,999.116,1076.868,962.416,1064.227,920.344z" clip-path="url(#SVGID_2_)" transform="matrix(1, 0, 0, 1, 0, 0)"/><path fill="#FFF8DB" d="M1386.272,781.085c-10.71-0.899-21.256-3.73-30.989-8.317 c-1.565-0.741-3.223-1.624-3.984-3.189c-1.905-3.846,2.708-7.609,6.676-9.2c22.482-9.025,48.5-8.792,70.826,0.633 c-2.112-4.321-4.821-8.343-8.002-11.948c-3.977-4.487-2.551-11.49,2.634-14.496c14.074-8.159,29.547-14.245,44.534-9.383 c4.391,1.415,8.456,3.738,12.873,5.112c9.774,3.039,20.319,1.199,30.384-0.691c10.064-1.891,20.585-3.797,30.401-0.866 c2.277,0.683,4.489,1.715,6.543,3.022c8.451,5.412,3.513,18.684-6.427,17.485l-30.65-3.679 c-11.953-1.45-15.067,16.526-3.247,18.815c12.476,2.414,25.671,2.864,38.172,2.373c26.242-1.015,53.818-4.379,78.321,3.738 c6.578,2.182,8.507,10.699,3.72,15.736c-5.815,6.127-14.256,10.1-22.723,11.407c-12.947,1.998-26.076-1.008-38.833-3.997 c-33.69-7.884-67.371-15.77-101.062-23.654" clip-path="url(#SVGID_2_)" transform="matrix(1, 0, 0, 1, 0, 0)"/><path fill="#FFF8DB" d="M1694.658,854.204c-4.234-3.564-7.522-8.16-9.717-13.247 c-4.241-9.816,8.49-18.134,15.805-10.35l0,0c5.691,6.053,15.813,2.48,16.493-5.82l0.538-6.685c0.273-3.497,0.82-7.461,3.686-9.443 c3.182-2.188,7.63-0.765,10.694,1.583c11.44,8.758,11.218,25.793,16.775,39.131c8.557,20.516,31.362,31.705,53.347,34.319 c8.798,1.041,18.788,1.515,24.553,8.276c1.773,2.09,2.916,4.521,3.778,7.111c2.56,7.667-4.739,14.962-12.31,12.223l-20.081-7.278 c-9.873-3.58-17.577,9.267-9.675,16.228c5.716,5.045,12.791,9.108,19.632,12.156c10.487,4.671,22.068,9.2,30.634,16.435 c6.139,5.187,3.007,15.636-4.954,16.645c-16.17,2.03-33.251-2.365-47.614-10.541c-18.837-10.733-33.698-27.276-47.06-44.411" clip-path="url(#SVGID_2_)" transform="matrix(1, 0, 0, 1, 0, 0)"/><path fill="#FFF8DB" d="M1115.976,979.375c17.379-11.381,30.219-29.398,35.91-49.423 c2.203-7.751-6.868-14.029-13.445-9.425c-10.354,7.26-20.162,15.304-29.299,24.054c-6.527,6.253-17.396-0.15-14.521-8.733 c1.789-5.338,4.796-10.325,8.689-14.338c3.57-3.68,7.745-6.627,12.285-8.925c7.141-3.613,6.709-13.771-0.845-16.401 c-0.116-0.042-0.232-0.084-0.356-0.126c-5.766-1.998-7.919-9.017-4.176-13.846c11.035-14.245,29.797-22.471,47.665-20.298 c4.929,0.599,9.601-2.622,9.981-7.592c0.315-4.213-0.985-9.009-2.999-12.772c-3.736-7.002-9.095-14.445-6.941-22.089 c1.061-3.796,3.868-6.835,6.709-9.558c8.434-8.06,18.142-14.771,28.62-19.841c5.782-2.789,12.45,1.773,12.318,8.209l-0.737,38.332 c-0.025,1.24-0.025,2.573,0.662,3.605c1.699,2.556,5.65,1.265,8.243-0.358c31.329-19.649,55.591-52.495,91.477-61.22 c2.477-0.607,5.309-1.025,7.396,0.457c4.863,3.447,0.066,10.94-4.705,14.521c-24.089,18.125-49.768,34.11-76.632,47.723 c-9.733,4.929-20.816,11.091-22.656,21.88l32.041-10.59c8.649-2.855,15.475,7.919,9.096,14.455 c-2.345,2.406-4.92,4.629-7.422,6.644c-14.39,11.623-28.787,23.254-43.183,34.877" clip-path="url(#SVGID_2_)" transform="matrix(1, 0, 0, 1, 0, 0)"/><path fill="#FFF8DB" d="M1642.752,752.994c11.971,3.022,24.661,7.127,36.332,3.064 c3.156-1.1,6.562-3.572,6.205-6.911c-0.24-2.306-2.236-4.005-4.217-5.179c-5.26-3.114-11.581-4.346-17.611-3.438 c-2.36,0.358-4.704,1.033-7.09,0.949c-5.916-0.191-10.596-4.82-15.624-7.968c-13.312-8.359-30.965-6.594-45.121,0.225 c-2.377,1.142-4.714,2.432-7.273,3.056c-14.33,3.53-26.242,11.256-4.423,10.716 C1603.984,746.999,1623.136,748.057,1642.752,752.994z" clip-path="url(#SVGID_2_)" transform="matrix(1, 0, 0, 1, 0, 0)"/><path fill="#FFF8DB" d="M1837.567,887.482c2.32,0.558,4.771,1.049,7.092,0.466 c2.319-0.583,4.473-2.54,4.506-4.954c0.05-4.446-6.097-5.812-10.438-4.937c-4.341,0.874-9.684,2.198-12.525-1.216 c-1.457-1.756-1.64-4.222-2.468-6.353c-3.578-9.3-28.977-12.563-25.887,0.116C1799.761,878.448,1830.659,885.833,1837.567,887.482z" clip-path="url(#SVGID_2_)" transform="matrix(1, 0, 0, 1, 0, 0)"/><path fill="#FFF8DB" d="M1208.306,776.623c-5.616-3.813-4.349-13.954,1.873-16.66 c6.229-2.707,14.214,2.647,14.578,9.458c0.075,1.341-0.083,2.722,0.349,3.988c1.226,3.58,5.997,4.054,9.758,3.888 c2.452,1.308,2.585,5.037,0.995,7.327c-1.59,2.282-4.283,3.473-6.81,4.604c-12.31,5.536-3.413,14.961-8.259,24.078 C1211.669,801.834,1222.636,786.348,1208.306,776.623z" clip-path="url(#SVGID_2_)" transform="matrix(1, 0, 0, 1, 0, 0)"/><path fill="#FFF8DB" d="M1043.808,894.385c-4.572,7.269-8.118,6.752-15.44,7.81 c-4.076,0.591-16.758-2.048-17.107,5.861c-0.239,5.478,7.745,4.313,11.275,6.852c4.514,3.247-1.044,7.161,5.658,7.718 c3.62,0.301,26.167-16.543,28.404-19.308c3.629-4.47,6.337-12.056,1.441-16.876C1050.915,879.44,1047.536,888.473,1043.808,894.385 z" clip-path="url(#SVGID_2_)" transform="matrix(1, 0, 0, 1, 0, 0)"/><path fill="#736CB0" d="M733.733,1047.697c0.555,5.737,2.435,12.522,7.935,14.137 c3.976,1.176,8.458-1.256,10.388-4.945c1.939-3.695,1.624-8.275,0.008-12.121c-1.963-4.638-5.765-8.802-5.591-13.838 c0.141-4.181,3.007-7.669,4.97-11.349c1.971-3.681,2.833-8.843-0.314-11.572c-0.929-0.808-2.112-1.3-2.907-2.24 c-1.002-1.174-1.185-2.823-1.268-4.363c-0.332-6.411,0.065-19.398-7.937-22.238c-6.578-2.332-4.25,3.663-3.777,9.05 C737.004,1008.017,731.803,1027.731,733.733,1047.697z" clip-path="url(#SVGID_2_)" transform="matrix(1, 0, 0, 1, 0, 0)"/><path fill="#736CB0" d="M240.928,975.521c-0.563-3.006-1.127-6.087-0.622-9.1 c1.317-7.819,9.278-12.915,11.614-20.491c2.41-7.785-1.59-16.643,1.383-24.237c2.278-5.811,8.358-12.13,4.515-17.035 c-1.824-2.323-5.103-2.78-8.036-2.848c-7.463-0.191-15.813,1.424-20.146,7.536c-8.093,11.431,3.662,28.258-2.07,41.055 c-0.944,2.115-2.378,4.413-1.541,6.569c0.546,1.441,1.971,2.323,2.982,3.498c3.894,4.503,0.862,11.49-2.717,16.243 c-3.587,4.746-7.911,10.341-6.08,16.012c2.252,6.935,11.481,7.892,18.729,7.567c1.093-0.049-4.896,44.195,7.414,27.318 C254.405,1016.567,243.098,987.135,240.928,975.521z" clip-path="url(#SVGID_2_)" transform="matrix(1, 0, 0, 1, 0, 0)"/><path fill="#736CB0" d="M607.688,621.578c-0.92-8.31-10.993-11.972-19.3-12.181 c-2.742-0.067-5.567,0.059-8.077,1.174c-2.319,1.041-4.201,2.855-6.379,4.172c-11.953,7.243-27.758-2.273-41.161,1.656 c-6.478,1.898-12.542,6.944-19.16,5.578c-9.229-1.915-12.873-11.714-23.551-8.484c-8.797,2.665-14.62,16.427-13.535,25.136 c1.947,15.653,11.639,13.005,24.18,8.584c16.766-5.911,33.043-18.6,50.92-20.923C562.119,624.925,610.67,648.579,607.688,621.578z" clip-path="url(#SVGID_2_)" transform="matrix(1, 0, 0, 1, 0, 0)"/><path fill="#736CB0" d="M402.543,669.677c1.126-7.511,7.662-14.304,15.217-14.213 c2.121,0.026,4.299,0.6,5.948,1.95c7.72,6.318,0.779,14.761,3.016,21.597c3.901,11.923,3.362,2.265,12.508,6.195 c11.548,4.954,10.173,19.099,0.563,30.581c-11.871,14.196-7.886,3.622-11.564-7.219c-3.197-9.433-6.577-8.143-14.943-15.436 C406.577,687.278,401.143,679.068,402.543,669.677z" clip-path="url(#SVGID_2_)" transform="matrix(1, 0, 0, 1, 0, 0)"/><path fill="#736CB0" d="M2253.26,760.121l-34.808-19.341c-5.194-2.889-9.841-6.969-12.492-12.313 c-8.267-16.653,7.514-29.683,22.267-34.62c7.464-2.498,16.716-3.639,22.283,1.939c8.325,8.327,1.293,23.255,6.064,34.038 c0.115-0.042,0.231-0.092,0.339-0.133c10.67-4.396,22.043,2.322,22.987,13.871c0.133,1.69,0.348,3.364,0.671,5.003 c2.792,14.138,30.981,70.562-3.089,66.125C2249.979,811.108,2278.732,774.283,2253.26,760.121z" clip-path="url(#SVGID_2_)" transform="matrix(1, 0, 0, 1, 0, 0)"/><path fill="#736CB0" d="M2666.592,1146.684c-2.345-22.738-3.611-45.583-3.803-68.447 c7.969,8.643,9.377,22.705,3.288,32.771c1.849,1.708,4.664,2.282,7.034,1.433c2.021,19.124,2.368,38.433,1.01,57.615 c-12.657-5.104-19.931-20.832-15.656-33.836" clip-path="url(#SVGID_2_)" transform="matrix(1, 0, 0, 1, 0, 0)"/><path fill="#736CB0" d="M2559.019,992.622c5.005-13.23-3.089-27.459-10.553-39.465 c-7.464-11.997-14.771-27-8.384-39.623c1.094-2.156,2.61-4.337,2.361-6.751c-0.266-2.573-2.427-4.455-4.324-6.22 c-18.803-17.484-21.803-49.547-6.561-70.253c1.293-1.766,2.999-3.597,5.186-3.614c2.982-0.017,4.805,3.23,5.766,6.07 c4.158,12.389,4.226,26.126,0.174,38.557c-0.671,2.057-1.441,4.355-0.521,6.311c0.563,1.208,1.682,2.049,2.791,2.773 c8.425,5.553,20.097,9.175,22.358,19.042c0.993,4.345-0.249,8.841-0.563,13.287c-0.944,13.23,6.553,25.919,16.608,34.503 c10.058,8.576,22.474,13.771,34.667,18.825" clip-path="url(#SVGID_2_)" transform="matrix(1, 0, 0, 1, 0, 0)"/><path fill="#736CB0" d="M1208.969,1192.835c-0.63-11.765-1.26-23.53-1.889-35.286 c-0.282-5.154,0.132-11.531,4.787-13.695c0.613,7.783-0.265,15.687-2.56,23.154c5.277-2.198,11.324,2.639,12.65,8.225 c1.317,5.588-0.63,11.366-2.552,16.77c-0.463,1.29-0.978,2.663-2.079,3.464c-2.394,1.747-6.005-0.491-6.727-3.372 c-0.729-2.882,0.448-5.861,1.6-8.601" clip-path="url(#SVGID_2_)" transform="matrix(1, 0, 0, 1, 0, 0)"/><path fill="#736CB0" d="M1799.661,1080.868c2.071-7.344,4.862-16.086,8.251-18.916 c2.188-1.832,4.646-1.351,6.321-5.93c1.457-3.986,0.555-7.335-0.557-8.975c-1.391-2.031-2.956-3.612-4.688-4.704 c-0.406-0.259-0.92-0.44-1.483,0.357c-1.599,2.29-0.273,5.496-0.828,8.918c-3.105,5.103-6.088,10.799-8.88,16.901 c-0.919,2.022-1.848,4.146-2.501,6.427c-1.849,6.412-1.078,11.749-0.225,16.011c2.967-5.403,5.385-12.638,6.478-19.299" clip-path="url(#SVGID_2_)" transform="matrix(1, 0, 0, 1, 0, 0)"/><path fill="#190D55" d="M1790.499,1778.136c-7.106-1.565-13.874-4.712-19.665-9.142 c-1.259-0.958-2.51-2.03-3.181-3.472c-2.626-5.679,5.054-10.765,6.411-16.885c1.715-7.7-6.643-13.446-10.553-20.282 c-3.537-6.178-3.297-14.337,0.597-20.289c0.562-0.859,1.25-1.708,2.211-2.032c1.136-0.391,2.361,0.041,3.479,0.458 c3.521,1.331,7.107,2.706,10.023,5.095c2.907,2.397,5.086,6.029,4.755,9.792c-0.382,4.339-3.868,7.818-4.722,12.081 c-1.98,9.824,10.296,18.284,8.407,28.124" clip-path="url(#SVGID_2_)" transform="matrix(1, 0, 0, 1, 0, 0)"/><path fill="#190D55" d="M1822.144,1608.996c-0.563-14.196,1.979-28.51,7.38-41.629 c4.987,6.452,0.713,15.569-0.984,23.553c-0.638,2.989,0.033,7.235,3.073,7.419c-1.293,9.342-0.821,18.917,1.366,28.083 c0.372,1.524,0.771,3.205,0.066,4.604c-1.532,3.048-7.455,6.02-10.073,6.945 C1821.001,1629.876,1822.491,1617.938,1822.144,1608.996z" clip-path="url(#SVGID_2_)" transform="matrix(1, 0, 0, 1, 0, 0)"/><path fill="#190D55" d="M1951.709,1523.963c0.513-8.518,1.831-16.977,3.943-25.244 c0.579-2.272,1.25-4.596,2.675-6.452c2.386-3.098,6.611-4.538,8.532-7.942c2.8-4.963-0.58-11.082-0.414-16.769 c0.175-6.12,4.506-11.906,3.206-17.884c-1.325-6.087-7.745-9.357-13.453-11.799c-1.747-0.748-3.719-1.506-5.509-0.856 c-3.66,1.332-3.048,7.052-0.348,9.874c2.709,2.83,6.651,4.379,8.855,7.619c3.04,4.462,1.772,10.465,0.389,15.693 c-2.261,8.584-4.522,17.177-6.792,25.761" clip-path="url(#SVGID_2_)" transform="matrix(1, 0, 0, 1, 0, 0)"/><path fill="#190D55" d="M1917.555,1544.245c-0.943-2.413-3.959-3.072-6.527-3.389 c-5.575-0.683-11.149-1.374-16.733-2.056c11.581-4.081,46.355,3.205,32.688,20.623 C1916.594,1553.245,1921.101,1553.287,1917.555,1544.245z" clip-path="url(#SVGID_2_)" transform="matrix(1, 0, 0, 1, 0, 0)"/><path fill="#190D55" d="M1391.16,1096.421c0.124-0.925,0.297-1.882,0.812-2.665 c1.259-1.873,3.894-1.997,6.139-2.082c4.092-0.141,8.233-0.765,11.92-2.556c3.678-1.789,6.875-4.846,8.192-8.741 c0.588-1.756,0.729-3.872-0.438-5.32c-0.68-0.85-1.708-1.333-2.742-1.648c-6.62-2.016-14.405,3.181-15.127,10.091 c-0.124,1.199-0.174,2.604-1.167,3.28c-0.663,0.441-1.524,0.392-2.312,0.341c-3.52-0.2-7.057,0.117-10.479,0.925 c-1.201,0.283-2.468,0.683-3.23,1.647c-1.251,1.558-0.704,3.83-0.182,5.754c1.764,6.452,3.23,13.913,2.112,20.59 C1391.838,1114.938,1390.448,1101.883,1391.16,1096.421z" clip-path="url(#SVGID_2_)" transform="matrix(1, 0, 0, 1, 0, 0)"/><path fill="#190D55" d="M1586.746,1226.005c1.168-0.5,2.478-0.583,3.67-1.024 c6.063-2.231,5.351-10.974,7.994-16.894c0.621-1.398,1.582-2.773,3.022-3.288c3.264-1.166,6.296,3.164,5.427,6.535 c-0.871,3.38-3.936,5.629-6.752,7.66c-2.816,2.032-5.815,4.463-6.395,7.893c-0.415,2.415,0.148,5.57-1.988,6.753 c-1.409,0.766-3.164,0.092-4.713,0.491c-3.107,0.808-3.546,4.962-3.604,8.193c-0.058,3.213-1.458,7.442-4.655,7.201 c-4.771-0.367-18.58-5.836-15.466-6.46c4.523-1.542,10.197-1.134,14.224-4.155 C1581.801,1235.696,1581.668,1228.178,1586.746,1226.005z" clip-path="url(#SVGID_2_)" transform="matrix(1, 0, 0, 1, 0, 0)"/><path fill="#190D55" d="M814.748,1253.756c-0.961,3.287-1.938,6.643-1.789,10.065 c0.099,2.23,0.671,4.413,0.903,6.636c0.256,2.505,0.091,5.037,0.339,7.535c0.249,2.506,0.986,5.079,2.75,6.868 c0.356,0.359,0.795,0.708,1.301,0.691c0.455-0.018,0.836-0.316,1.185-0.6c0.977-0.783,1.954-1.623,2.501-2.747 c0.555-1.134,0.546-2.624-0.332-3.514c-1.193-1.2-3.645-1.116-4.051-2.766c-0.355-1.473,1.351-2.488,2.593-3.337 c2.004-1.357,3.455-3.938,2.619-6.22c-0.374-1.008-1.136-1.815-1.69-2.748c-3.007-5.062,0.944-11.839-1.102-17.367 c-0.265-0.717-0.654-1.425-1.301-1.824c-1.126-0.699-2.683-0.199-3.569,0.774c-0.895,0.981-1.268,2.322-1.557,3.614 c-0.953,4.22-1.318,8.641-0.473,12.879c0.854,4.247,3.007,8.317,6.428,10.95" clip-path="url(#SVGID_2_)" transform="matrix(1, 0, 0, 1, 0, 0)"/><path fill="none" d="M -0.003 0 H 2849.99993 V 2005.157959 H -0.003 V 0 Z" clip-path="url(#SVGID_2_)" transform="matrix(1, 0, 0, 1, 0, 0)"/></svg>