<?xml version="1.0" encoding="utf-8"?>
<svg id="master-artboard" viewBox="0 0 1400 980" version="1.1" xmlns="http://www.w3.org/2000/svg" x="0px" y="0px" style="enable-background:new 0 0 1400 980;" width="1400px" height="980px" xmlns:xlink="http://www.w3.org/1999/xlink">

<defs>
		<path d="M 0 0 H 1400 V 980 H 0 V 0 Z" id="SVGID_1_"/>
	</defs><clipPath id="SVGID_2_">
		<use style="overflow:visible;" xlink:href="#SVGID_1_"/>
	</clipPath><path d="M 0 0 H 1400 V 980 H 0 V 0 Z" class="st1" style="fill: rgb(164, 197, 221); clip-path: url('#SVGID_2_');" transform="matrix(1, 0, 0, 1, 5.684341886080802e-14, 1.4210854715202004e-14)"/><path class="st2" d="M200,113.5c0,0-22-25.7-49,1.2c0,0,35.5-13.5,49,14.7c13.5-28.2,49-14.7,49-14.7&#10;&#9;&#9;&#9;&#9;C222,87.8,200,113.5,200,113.5z" style="fill: rgb(255, 255, 255); clip-path: url('#SVGID_2_');" transform="matrix(1, 0, 0, 1, 8.526512829121202e-14, 2.1316282072803006e-14)"/><path class="st2" d="M266.5,192.1c0,0-17.3-20.2-38.5,1c0,0,27.9-10.6,38.5,11.6C277.1,182.4,305,193,305,193&#10;&#9;&#9;&#9;&#9;C283.8,171.8,266.5,192.1,266.5,192.1z" style="fill: rgb(255, 255, 255); clip-path: url('#SVGID_2_');" transform="matrix(1, 0, 0, 1, 8.526512829121202e-14, 2.1316282072803006e-14)"/><path class="st2" d="M1246,173.5c0,0-22-25.7-49,1.2c0,0,35.5-13.5,49,14.7c13.5-28.2,49-14.7,49-14.7&#10;&#9;&#9;&#9;&#9;C1268,147.8,1246,173.5,1246,173.5z" style="fill: rgb(255, 255, 255); clip-path: url('#SVGID_2_');" transform="matrix(1, 0, 0, 1, 8.526512829121202e-14, 2.1316282072803006e-14)"/><g transform="matrix(1, 0, 0, 1, 8.526512829121202e-14, 2.1316282072803006e-14)" style="clip-path: url('#SVGID_2_');">
				<path class="st2" d="M128,353.2l16-12.6V237.2c-4.7,0-9.4,4.2-13,12.5l-30.7,71.5l27.7-7.2V353.2z" style="fill: rgb(255, 255, 255);"/>
				<path class="st3" d="M128,353.2v-39.1l-27.7,7.2L-63.8,703.8c-7.2,16.7,3.4,30.2,23.6,30.2H144V340.5L128,353.2z" style="fill: rgb(127, 112, 102);"/>
				<path class="st4" d="M152.8,333.6l24.1,19.6l10.9-31.8L157,249.7c-3.6-8.3-8.3-12.5-13-12.5v103.3L152.8,333.6z" style="fill: rgb(206, 205, 204);"/>
				<path class="st5" d="M351.8,703.8l-164-382.4l-10.9,31.8l-24.1-19.6l-8.8,6.9V734h184.2C348.3,734,358.9,720.5,351.8,703.8z" style="fill: rgb(102, 89, 80);"/>
			</g><path class="st2" d="M1291,447.9l16-12.6V331.9c-4.7,0-9.4,4.2-13,12.5l-30.7,71.5l27.7-7.2V447.9z" style="fill: rgb(255, 255, 255); clip-path: url('#SVGID_2_');" transform="matrix(1, 0, 0, 1, 1.1368683772161603e-13, 2.842170943040401e-14)"/><path class="st3" d="M1291,447.9v-39.1l-27.7,7.2l-164.1,382.7c-7.2,16.7,3.4,30.4,23.6,30.4H1307V435.3L1291,447.9z" style="fill: rgb(127, 112, 102); clip-path: url('#SVGID_2_');" transform="matrix(1, 0, 0, 1, 1.1368683772161603e-13, 2.842170943040401e-14)"/><path class="st4" d="M1315.8,428.4l24.1,19.6l10.9-31.8l-30.7-71.7c-3.6-8.3-8.3-12.5-13-12.5v103.3L1315.8,428.4z" style="fill: rgb(206, 205, 204); clip-path: url('#SVGID_2_');" transform="matrix(1, 0, 0, 1, 1.1368683772161603e-13, 2.842170943040401e-14)"/><path class="st5" d="M1514.8,798.6l-164-382.5l-10.9,31.8l-24.1-19.6l-8.8,6.9V829h184.2C1511.3,829,1521.9,815.3,1514.8,798.6z&#10;&#9;&#9;&#9;&#9;&#9;" style="fill: rgb(102, 89, 80); clip-path: url('#SVGID_2_');" transform="matrix(1, 0, 0, 1, 1.1368683772161603e-13, 2.842170943040401e-14)"/><path d="M 489.1000061035156 260.5 L 464.1000061035156 236.1999969482422 L 489.1000061035156 260.5 Z" class="st6" style="fill: none; clip-path: url('#SVGID_2_');" transform="matrix(1, 0, 0, 1, 1.1368683772161603e-13, 2.842170943040401e-14)"/><path class="st2" d="M431,314.1l24-34.9v-34.4V116.3c-5,0-9.8,5.2-13.5,15.6l-32,88.9h0l-20.8,58.1l30.4-14.3L431,314.1z" style="fill: rgb(255, 255, 255); clip-path: url('#SVGID_2_');" transform="matrix(1, 0, 0, 1, 1.1368683772161603e-13, 2.842170943040401e-14)"/><path class="st3" d="M431,314.1l-12-49.4l-30.4,14.3L239.1,696.4c-7.4,20.7,3.7,37.6,24.6,37.6H455V279.2L431,314.1z" style="fill: rgb(127, 112, 102); clip-path: url('#SVGID_2_');" transform="matrix(1, 0, 0, 1, 1.1368683772161603e-13, 2.842170943040401e-14)"/><path class="st5" d="M670.8,696.4l-162.3-453L485,295.2l-20-30.6l-10,14.6V734h191.3C667.2,734,678.2,717.1,670.8,696.4z" style="fill: rgb(102, 89, 80); clip-path: url('#SVGID_2_');" transform="matrix(1, 0, 0, 1, 1.1368683772161603e-13, 2.842170943040401e-14)"/><path class="st4" d="M455,279.2l10-14.5l20,30.6l23.5-51.7l-8.1-22.5v0l-31.9-89.1c-3.7-10.4-8.5-15.6-13.5-15.6v128.5V279.2z" style="fill: rgb(206, 205, 204); clip-path: url('#SVGID_2_');" transform="matrix(1, 0, 0, 1, 1.1368683772161603e-13, 2.842170943040401e-14)"/><path class="st2" d="M721,419.8l15-13.6V294.9c-5,0-8.9,4.5-12.2,13.5l-28.2,77l25.4-7.7V419.8z" style="fill: rgb(255, 255, 255); clip-path: url('#SVGID_2_');" transform="matrix(1, 0, 0, 1, 1.1368683772161603e-13, 2.842170943040401e-14)"/><path class="st3" d="M721,419.8v-42.1l-25.5,7.7l-150.8,412c-6.6,18,3.1,32.7,21.6,32.7H736V406.1L721,419.8z" style="fill: rgb(127, 112, 102); clip-path: url('#SVGID_2_');" transform="matrix(1, 0, 0, 1, 1.1368683772161603e-13, 2.842170943040401e-14)"/><path class="st4" d="M743.8,398.7l22,21.1l9.9-34.2l-28-77.2c-3.3-9-7.7-13.5-11.7-13.5v111.3L743.8,398.7z" style="fill: rgb(206, 205, 204); clip-path: url('#SVGID_2_');" transform="matrix(1, 0, 0, 1, 1.1368683772161603e-13, 2.842170943040401e-14)"/><path class="st5" d="M926.3,797.3L775.6,385.5l-10,34.2l-21.9-21.1l-7.8,7.4V830h168.6C923.1,830,932.9,815.3,926.3,797.3z" style="fill: rgb(102, 89, 80); clip-path: url('#SVGID_2_');" transform="matrix(1, 0, 0, 1, 1.1368683772161603e-13, 2.842170943040401e-14)"/><path d="M 1047.5 225.3000030517578 L 1024.4000244140625 199.10000610351562 L 1047.5 225.3000030517578 Z" class="st6" style="fill: none; clip-path: url('#SVGID_2_');" transform="matrix(1, 0, 0, 1, 1.1368683772161603e-13, 2.842170943040401e-14)"/><path class="st2" d="M994,282.9l22-37.6v-37V70c-5,0-8.9,5.4-12.4,16.5L974.4,182h0l-19.1,62.8l27.8-15.3L994,282.9z" style="fill: rgb(255, 255, 255); clip-path: url('#SVGID_2_');" transform="matrix(1, 0, 0, 1, 1.1368683772161603e-13, 2.842170943040401e-14)"/><path class="st3" d="M994,282.9l-11-53.2L955.1,245L817.8,694.5c-6.8,22.3,3.4,40.5,22.6,40.5H1016V245.3L994,282.9z" style="fill: rgb(127, 112, 102); clip-path: url('#SVGID_2_');" transform="matrix(1, 0, 0, 1, 1.1368683772161603e-13, 2.842170943040401e-14)"/><path class="st5" d="M1214.3,694.5l-149-487.7l-21.6,55.7l-18.4-32.9l-9.2,15.7V735h175.8C1211,735,1221.1,716.9,1214.3,694.5z" style="fill: rgb(102, 89, 80); clip-path: url('#SVGID_2_');" transform="matrix(1, 0, 0, 1, 1.1368683772161603e-13, 2.842170943040401e-14)"/><path class="st4" d="M1016,245.3l9.2-15.7l18.4,32.9l21.7-55.7l-7.3-24.2v0l-29.5-95.9C1025.1,75.6,1021,70,1016,70v138.3V245.3&#10;&#9;&#9;&#9;&#9;&#9;z" style="fill: rgb(206, 205, 204); clip-path: url('#SVGID_2_');" transform="matrix(1, 0, 0, 1, 1.1368683772161603e-13, 2.842170943040401e-14)"/><path class="st7" d="M-34,760.5C-34,616,83.1,498.9,227.5,498.9S489.1,616,489.1,760.5" style="fill: rgb(119, 160, 66); clip-path: url('#SVGID_2_');" transform="matrix(1, 0, 0, 1, 8.526512829121202e-14, 2.1316282072803006e-14)"/><path class="st8" d="M396,768.5c0-109.1,88.4-197.5,197.5-197.5c109.1,0,197.5,88.4,197.5,197.5" style="fill: rgb(110, 147, 58); clip-path: url('#SVGID_2_');" transform="matrix(1, 0, 0, 1, 8.526512829121202e-14, 2.1316282072803006e-14)"/><path class="st7" d="M1088,728.5c0-109.1,88.4-197.5,197.5-197.5c109.1,0,197.5,88.4,197.5,197.5" style="fill: rgb(119, 160, 66); clip-path: url('#SVGID_2_');" transform="matrix(1, 0, 0, 1, 8.526512829121202e-14, 2.1316282072803006e-14)"/><path d="M 0 707 H 1412 V 989 H 0 V 707 Z" class="st9" style="fill: rgb(148, 181, 85); clip-path: url('#SVGID_2_');" transform="matrix(1, 0, 0, 1, 5.684341886080802e-14, 1.4210854715202004e-14)"/><g transform="matrix(1, 0, 0, 1, 8.526512829121202e-14, 2.1316282072803006e-14)" style="clip-path: url('#SVGID_2_');">
				<path d="M 97.0999984741211 721 L 83.4000015258789 721 L 85 638 L 95.5 638 Z" class="st10" style="fill: rgb(137, 99, 58);"/>
				<path d="M 137.299999 620.900024 A 46.799999 46.799999 0 0 1 90.5 667.700024 A 46.799999 46.799999 0 0 1 43.700001 620.900024 A 46.799999 46.799999 0 0 1 90.5 574.100025 A 46.799999 46.799999 0 0 1 137.299999 620.900024 Z" class="st9" style="fill: rgb(148, 181, 85);"/>
			</g><path d="M 1172.0999755859375 714 L 1160 714 L 1161.5 641 L 1170.699951171875 641 Z" class="st10" style="fill: rgb(137, 99, 58); clip-path: url('#SVGID_2_');" transform="matrix(1, 0, 0, 1, 1.1368683772161603e-13, 2.842170943040401e-14)"/><path d="M 1201.800049 631.700012 A 35.5 35.5 0 0 1 1166.300049 667.200012 A 35.5 35.5 0 0 1 1130.800049 631.700012 A 35.5 35.5 0 0 1 1166.300049 596.200012 A 35.5 35.5 0 0 1 1201.800049 631.700012 Z" class="st9" style="fill: rgb(148, 181, 85); clip-path: url('#SVGID_2_');" transform="matrix(1, 0, 0, 1, 1.1368683772161603e-13, 2.842170943040401e-14)"/><path d="M 253.8000030517578 721 L 240 721 L 241.60000610351562 638 L 252.10000610351562 638 Z" class="st10" style="fill: rgb(137, 99, 58); clip-path: url('#SVGID_2_');" transform="matrix(1, 0, 0, 1, 1.1368683772161603e-13, 2.842170943040401e-14)"/><path d="M 293.900005 620.900024 A 46.799999 46.799999 0 0 1 247.100006 667.700024 A 46.799999 46.799999 0 0 1 200.300007 620.900024 A 46.799999 46.799999 0 0 1 247.100006 574.100025 A 46.799999 46.799999 0 0 1 293.900005 620.900024 Z" class="st9" style="fill: rgb(148, 181, 85); clip-path: url('#SVGID_2_');" transform="matrix(1, 0, 0, 1, 1.1368683772161603e-13, 2.842170943040401e-14)"/><path d="M 174 723 L 157 723 L 159 620 L 172 620 Z" class="st11" style="fill: rgb(109, 76, 43); clip-path: url('#SVGID_2_');" transform="matrix(1, 0, 0, 1, 1.1368683772161603e-13, 2.842170943040401e-14)"/><path d="M 165.5 556 L 125 699 L 206 699 Z" class="st12" style="fill: rgb(58, 145, 82); clip-path: url('#SVGID_2_');" transform="matrix(1, 0, 0, 1, 1.1368683772161603e-13, 2.842170943040401e-14)"/><path d="M 1097 715 L 1080 715 L 1082 612 L 1095 612 Z" class="st11" style="fill: rgb(109, 76, 43); clip-path: url('#SVGID_2_');" transform="matrix(1, 0, 0, 1, 1.1368683772161603e-13, 2.842170943040401e-14)"/><path d="M 1088.5 548 L 1048 691 L 1129 691 Z" class="st12" style="fill: rgb(58, 145, 82); clip-path: url('#SVGID_2_');" transform="matrix(1, 0, 0, 1, 1.1368683772161603e-13, 2.842170943040401e-14)"/><path d="M 1228.9000244140625 715 L 1219.9000244140625 715 L 1220.9000244140625 658 L 1227.800048828125 658 Z" class="st11" style="fill: rgb(109, 76, 43); clip-path: url('#SVGID_2_');" transform="matrix(1, 0, 0, 1, 1.1368683772161603e-13, 2.842170943040401e-14)"/><path d="M 1224.4000244140625 622.9000244140625 L 1203 702 L 1245.800048828125 702 Z" class="st12" style="fill: rgb(58, 145, 82); clip-path: url('#SVGID_2_');" transform="matrix(1, 0, 0, 1, 1.1368683772161603e-13, 2.842170943040401e-14)"/><path d="M 1291.800048828125 714 L 1278 714 L 1279.5999755859375 631 L 1290.0999755859375 631 Z" class="st10" style="fill: rgb(137, 99, 58); clip-path: url('#SVGID_2_');" transform="matrix(1, 0, 0, 1, 1.1368683772161603e-13, 2.842170943040401e-14)"/><path d="M 1331.899975 613.900024 A 46.799999 46.799999 0 0 1 1285.099976 660.700024 A 46.799999 46.799999 0 0 1 1238.299976 613.900024 A 46.799999 46.799999 0 0 1 1285.099976 567.100025 A 46.799999 46.799999 0 0 1 1331.899975 613.900024 Z" class="st9" style="fill: rgb(148, 181, 85); clip-path: url('#SVGID_2_');" transform="matrix(1, 0, 0, 1, 1.1368683772161603e-13, 2.842170943040401e-14)"/><path d="M 832.199997 145.399994 A 98.699997 98.699997 0 0 1 733.5 244.099991 A 98.699997 98.699997 0 0 1 634.800003 145.399994 A 98.699997 98.699997 0 0 1 733.5 46.699997 A 98.699997 98.699997 0 0 1 832.199997 145.399994 Z" class="st13" style="opacity: 0.3; fill: rgb(255, 242, 123); clip-path: url('#SVGID_2_');" transform="matrix(1, 0, 0, 1, 8.526512829121202e-14, 2.1316282072803006e-14)"/><path d="M 793.900002 145.399994 A 60.400002 60.400002 0 0 1 733.5 205.799995 A 60.400002 60.400002 0 0 1 673.099998 145.399994 A 60.400002 60.400002 0 0 1 733.5 84.999992 A 60.400002 60.400002 0 0 1 793.900002 145.399994 Z" class="st14" style="fill: rgb(255, 242, 123); clip-path: url('#SVGID_2_');" transform="matrix(1, 0, 0, 1, 8.526512829121202e-14, 2.1316282072803006e-14)"/><path d="M -178 760 H 660 V 768 H -178 V 760 Z" class="st15" style="fill: rgb(234, 234, 234); clip-path: url('#SVGID_2_');" transform="matrix(1, 0, 0, 1, 8.526512829121202e-14, 2.1316282072803006e-14)"/><g transform="matrix(1, 0, 0, 1, 1.1368683772161603e-13, 2.842170943040401e-14)" style="clip-path: url('#SVGID_2_');">
					<path d="M 671 784 L 651 784 L 651 747.7999877929688 L 661.4000244140625 739 L 671 747.7999877929688 Z" class="st2" style="fill: rgb(255, 255, 255);"/>
				</g><path d="M 633 784 L 614 784 L 614 747.7999877929688 L 623.9000244140625 739 L 633 747.7999877929688 Z" class="st2" style="fill: rgb(255, 255, 255); clip-path: url('#SVGID_2_');" transform="matrix(1, 0, 0, 1, 1.4210854715202004e-13, 3.552713678800501e-14)"/><path d="M 594 784 L 576 784 L 576 747.7999877929688 L 585.4000244140625 739 L 594 747.7999877929688 Z" class="st2" style="fill: rgb(255, 255, 255); clip-path: url('#SVGID_2_');" transform="matrix(1, 0, 0, 1, 1.4210854715202004e-13, 3.552713678800501e-14)"/><path d="M 557 784 L 538 784 L 538 747.7999877929688 L 547.9000244140625 739 L 557 747.7999877929688 Z" class="st2" style="fill: rgb(255, 255, 255); clip-path: url('#SVGID_2_');" transform="matrix(1, 0, 0, 1, 1.4210854715202004e-13, 3.552713678800501e-14)"/><path d="M 519 784 L 500 784 L 500 747.7999877929688 L 509.8999938964844 739 L 519 747.7999877929688 Z" class="st2" style="fill: rgb(255, 255, 255); clip-path: url('#SVGID_2_');" transform="matrix(1, 0, 0, 1, 1.4210854715202004e-13, 3.552713678800501e-14)"/><path d="M 481 784 L 463 784 L 463 747.7999877929688 L 472.3999938964844 739 L 481 747.7999877929688 Z" class="st2" style="fill: rgb(255, 255, 255); clip-path: url('#SVGID_2_');" transform="matrix(1, 0, 0, 1, 1.4210854715202004e-13, 3.552713678800501e-14)"/><path d="M 444 784 L 424 784 L 424 747.7999877929688 L 434.3999938964844 739 L 444 747.7999877929688 Z" class="st2" style="fill: rgb(255, 255, 255); clip-path: url('#SVGID_2_');" transform="matrix(1, 0, 0, 1, 1.4210854715202004e-13, 3.552713678800501e-14)"/><path d="M 406 784 L 387 784 L 387 747.7999877929688 L 396.8999938964844 739 L 406 747.7999877929688 Z" class="st2" style="fill: rgb(255, 255, 255); clip-path: url('#SVGID_2_');" transform="matrix(1, 0, 0, 1, 1.4210854715202004e-13, 3.552713678800501e-14)"/><path d="M 368 784 L 349 784 L 349 747.7999877929688 L 358.8999938964844 739 L 368 747.7999877929688 Z" class="st2" style="fill: rgb(255, 255, 255); clip-path: url('#SVGID_2_');" transform="matrix(1, 0, 0, 1, 1.4210854715202004e-13, 3.552713678800501e-14)"/><path d="M 330 784 L 311 784 L 311 747.7999877929688 L 320.8999938964844 739 L 330 747.7999877929688 Z" class="st2" style="fill: rgb(255, 255, 255); clip-path: url('#SVGID_2_');" transform="matrix(1, 0, 0, 1, 1.4210854715202004e-13, 3.552713678800501e-14)"/><path d="M 292 784 L 274 784 L 274 747.7999877929688 L 283.3999938964844 739 L 292 747.7999877929688 Z" class="st2" style="fill: rgb(255, 255, 255); clip-path: url('#SVGID_2_');" transform="matrix(1, 0, 0, 1, 1.4210854715202004e-13, 3.552713678800501e-14)"/><path d="M 254 784 L 235 784 L 235 747.7999877929688 L 244.89999389648438 739 L 254 747.7999877929688 Z" class="st2" style="fill: rgb(255, 255, 255); clip-path: url('#SVGID_2_');" transform="matrix(1, 0, 0, 1, 1.4210854715202004e-13, 3.552713678800501e-14)"/><path d="M 217 784 L 198 784 L 198 747.7999877929688 L 207.89999389648438 739 L 217 747.7999877929688 Z" class="st2" style="fill: rgb(255, 255, 255); clip-path: url('#SVGID_2_');" transform="matrix(1, 0, 0, 1, 1.4210854715202004e-13, 3.552713678800501e-14)"/><path d="M 179 784 L 160 784 L 160 747.7999877929688 L 169.89999389648438 739 L 179 747.7999877929688 Z" class="st2" style="fill: rgb(255, 255, 255); clip-path: url('#SVGID_2_');" transform="matrix(1, 0, 0, 1, 1.4210854715202004e-13, 3.552713678800501e-14)"/><path d="M 141 784 L 122 784 L 122 747.7999877929688 L 131.89999389648438 739 L 141 747.7999877929688 Z" class="st2" style="fill: rgb(255, 255, 255); clip-path: url('#SVGID_2_');" transform="matrix(1, 0, 0, 1, 1.4210854715202004e-13, 3.552713678800501e-14)"/><path d="M 103 784 L 84 784 L 84 747.7999877929688 L 93.9000015258789 739 L 103 747.7999877929688 Z" class="st2" style="fill: rgb(255, 255, 255); clip-path: url('#SVGID_2_');" transform="matrix(1, 0, 0, 1, 1.4210854715202004e-13, 3.552713678800501e-14)"/><path d="M 65 784 L 47 784 L 47 747.7999877929688 L 56.400001525878906 739 L 65 747.7999877929688 Z" class="st2" style="fill: rgb(255, 255, 255); clip-path: url('#SVGID_2_');" transform="matrix(1, 0, 0, 1, 1.4210854715202004e-13, 3.552713678800501e-14)"/><path d="M 28 784 L 8 784 L 8 747.7999877929688 L 18.399999618530273 739 L 28 747.7999877929688 Z" class="st2" style="fill: rgb(255, 255, 255); clip-path: url('#SVGID_2_');" transform="matrix(1, 0, 0, 1, 1.4210854715202004e-13, 3.552713678800501e-14)"/><path d="M 1009 760 H 1847 V 768 H 1009 V 760 Z" class="st15" style="fill: rgb(234, 234, 234); clip-path: url('#SVGID_2_');" transform="matrix(1, 0, 0, 1, 8.526512829121202e-14, 2.1316282072803006e-14)"/><g transform="matrix(1, 0, 0, 1, 1.1368683772161603e-13, 2.842170943040401e-14)" style="clip-path: url('#SVGID_2_');">
					<path d="M 998 784 L 1018 784 L 1018 747.7999877929688 L 1007.5999755859375 739 L 998 747.7999877929688 Z" class="st2" style="fill: rgb(255, 255, 255);"/>
				</g><path d="M 1036 784 L 1055 784 L 1055 747.7999877929688 L 1045.0999755859375 739 L 1036 747.7999877929688 Z" class="st2" style="fill: rgb(255, 255, 255); clip-path: url('#SVGID_2_');" transform="matrix(1, 0, 0, 1, 1.4210854715202004e-13, 3.552713678800501e-14)"/><path d="M 1075 784 L 1093 784 L 1093 747.7999877929688 L 1083.5999755859375 739 L 1075 747.7999877929688 Z" class="st2" style="fill: rgb(255, 255, 255); clip-path: url('#SVGID_2_');" transform="matrix(1, 0, 0, 1, 1.4210854715202004e-13, 3.552713678800501e-14)"/><path d="M 1112 784 L 1131 784 L 1131 747.7999877929688 L 1121.0999755859375 739 L 1112 747.7999877929688 Z" class="st2" style="fill: rgb(255, 255, 255); clip-path: url('#SVGID_2_');" transform="matrix(1, 0, 0, 1, 1.4210854715202004e-13, 3.552713678800501e-14)"/><path d="M 1150 784 L 1169 784 L 1169 747.7999877929688 L 1159.0999755859375 739 L 1150 747.7999877929688 Z" class="st2" style="fill: rgb(255, 255, 255); clip-path: url('#SVGID_2_');" transform="matrix(1, 0, 0, 1, 1.4210854715202004e-13, 3.552713678800501e-14)"/><path d="M 1188 784 L 1206 784 L 1206 747.7999877929688 L 1196.5999755859375 739 L 1188 747.7999877929688 Z" class="st2" style="fill: rgb(255, 255, 255); clip-path: url('#SVGID_2_');" transform="matrix(1, 0, 0, 1, 1.4210854715202004e-13, 3.552713678800501e-14)"/><path d="M 1225 784 L 1245 784 L 1245 747.7999877929688 L 1234.5999755859375 739 L 1225 747.7999877929688 Z" class="st2" style="fill: rgb(255, 255, 255); clip-path: url('#SVGID_2_');" transform="matrix(1, 0, 0, 1, 1.4210854715202004e-13, 3.552713678800501e-14)"/><path d="M 1263 784 L 1282 784 L 1282 747.7999877929688 L 1272.0999755859375 739 L 1263 747.7999877929688 Z" class="st2" style="fill: rgb(255, 255, 255); clip-path: url('#SVGID_2_');" transform="matrix(1, 0, 0, 1, 1.4210854715202004e-13, 3.552713678800501e-14)"/><path d="M 1301 784 L 1320 784 L 1320 747.7999877929688 L 1310.0999755859375 739 L 1301 747.7999877929688 Z" class="st2" style="fill: rgb(255, 255, 255); clip-path: url('#SVGID_2_');" transform="matrix(1, 0, 0, 1, 1.4210854715202004e-13, 3.552713678800501e-14)"/><path d="M 1339 784 L 1358 784 L 1358 747.7999877929688 L 1348.0999755859375 739 L 1339 747.7999877929688 Z" class="st2" style="fill: rgb(255, 255, 255); clip-path: url('#SVGID_2_');" transform="matrix(1, 0, 0, 1, 1.4210854715202004e-13, 3.552713678800501e-14)"/><path d="M 1377 784 L 1395 784 L 1395 747.7999877929688 L 1385.5999755859375 739 L 1377 747.7999877929688 Z" class="st2" style="fill: rgb(255, 255, 255); clip-path: url('#SVGID_2_');" transform="matrix(1, 0, 0, 1, 1.4210854715202004e-13, 3.552713678800501e-14)"/><g transform="matrix(1, 0, 0, 1, 8.526512829121202e-14, 2.1316282072803006e-14)" style="clip-path: url('#SVGID_2_');">
				<g>
					<path d="M 691 760 H 980 V 783 H 691 V 760 Z" class="st16" style="fill: rgb(178, 129, 80);"/>
				</g>
				<g>
					<path d="M 691 739 H 980 V 760 H 691 V 739 Z" class="st17" style="fill: rgb(165, 113, 65);"/>
				</g>
				<g>
					<path d="M 691 715 H 980 V 739 H 691 V 715 Z" class="st16" style="fill: rgb(178, 129, 80);"/>
				</g>
				<g>
					<path d="M 691 693 H 980 V 715 H 691 V 693 Z" class="st17" style="fill: rgb(165, 113, 65);"/>
				</g>
				<g>
					<path d="M 691 670 H 980 V 693 H 691 V 670 Z" class="st16" style="fill: rgb(178, 129, 80);"/>
				</g>
				<g>
					<path d="M 691 648 H 980 V 670 H 691 V 648 Z" class="st17" style="fill: rgb(165, 113, 65);"/>
				</g>
				<g>
					<path d="M 691 625 H 980 V 648 H 691 V 625 Z" class="st16" style="fill: rgb(178, 129, 80);"/>
				</g>
				<g>
					<path d="M 694.2000122070312 602 L 691 605.7000122070312 L 691 625 L 980 625 L 980 606 L 977.5999755859375 602 Z" class="st17" style="fill: rgb(165, 113, 65);"/>
				</g>
				<g>
					<path d="M 714.5 580 L 694.2000122070312 602 L 977.5999755859375 602 L 957.2999877929688 580 Z" class="st16" style="fill: rgb(178, 129, 80);"/>
				</g>
				<g>
					<path d="M 937 557 L 734.7999877929688 557 L 714.5 580 L 957.2999877929688 580 Z" class="st17" style="fill: rgb(165, 113, 65);"/>
				</g>
				<g>
					<path d="M 916.7000122070312 535 L 755.0999755859375 535 L 734.7999877929688 557 L 937 557 Z" class="st16" style="fill: rgb(178, 129, 80);"/>
				</g>
				<g>
					<path d="M 775.4000244140625 512 L 755.0999755859375 535 L 916.7000122070312 535 L 896.4000244140625 512 Z" class="st17" style="fill: rgb(165, 113, 65);"/>
				</g>
				<g>
					<path d="M 876.0999755859375 491 L 795.7000122070312 491 L 775.4000244140625 512 L 896.4000244140625 512 Z" class="st16" style="fill: rgb(178, 129, 80);"/>
				</g>
				<g>
					<path d="M 876.0999755859375 491 L 855.9000244140625 468 L 815.9000244140625 468 L 795.7000122070312 491 Z" class="st17" style="fill: rgb(165, 113, 65);"/>
				</g>
				<g>
					<path d="M 835.9000244140625 445.8999938964844 L 815.9000244140625 468 L 855.9000244140625 468 Z" class="st16" style="fill: rgb(178, 129, 80);"/>
				</g>
				<g>
					<path d="M 980.5999755859375 574.7000122070312 L 965.2000122070312 557.5999755859375 L 944.9000244140625 535.0999755859375 L 924.5999755859375 512.5999755859375 L 904.2999877929688 490 L 884 467.5 L 863.7000122070312 445 L 836 414.29998779296875 L 835.9000244140625 414.5 L 835.7999877929688 414.29998779296875 L 808.0999755859375 445 L 787.7999877929688 467.5 L 767.5 490 L 747.2000122070312 512.5999755859375 L 726.9000244140625 535.0999755859375 L 706.5999755859375 557.5999755859375 L 691.5 574.4000244140625 L 655.0999755859375 614.7000122070312 L 668.7000122070312 631 L 691.5 605.7000122070312 L 694.2000122070312 602.5999755859375 L 714.5 580.0999755859375 L 734.7999877929688 557.5999755859375 L 755.0999755859375 535.0999755859375 L 775.4000244140625 512.5999755859375 L 795.7000122070312 490 L 815.9000244140625 467.5 L 835.9000244140625 445.3999938964844 L 855.9000244140625 467.5 L 876.0999755859375 490 L 896.4000244140625 512.5999755859375 L 916.7000122070312 535.0999755859375 L 937 557.5999755859375 L 957.2999877929688 580.0999755859375 L 977.5999755859375 602.5999755859375 L 980.5999755859375 606 L 1003.0999755859375 631 L 1016.7000122070312 614.7000122070312 Z" class="st18" style="fill: rgb(135, 88, 45);"/>
				</g>
			</g><path d="M 870 651 H 935 V 780 H 870 V 651 Z" class="st18" style="fill: rgb(135, 88, 45); clip-path: url('#SVGID_2_');" transform="matrix(1, 0, 0, 1, 1.1368683772161603e-13, 2.842170943040401e-14)"/><path class="st11" d="M938,783h-70V649h70V783z M871,779h62V653h-62V779z" style="fill: rgb(109, 76, 43); clip-path: url('#SVGID_2_');" transform="matrix(1, 0, 0, 1, 1.1368683772161603e-13, 2.842170943040401e-14)"/><path d="M 741 651 H 808 V 726 H 741 V 651 Z" class="st18" style="fill: rgb(135, 88, 45); clip-path: url('#SVGID_2_');" transform="matrix(1, 0, 0, 1, 1.1368683772161603e-13, 2.842170943040401e-14)"/><path class="st11" d="M810,728h-71v-79h71V728z M743,723h62v-70h-62V723z" style="fill: rgb(109, 76, 43); clip-path: url('#SVGID_2_');" transform="matrix(1, 0, 0, 1, 1.1368683772161603e-13, 2.842170943040401e-14)"/><path class="st11" d="M855,783v-1c0-7.5,3.1-13,7.7-13h78.5c4.6,0,8.8,5.5,8.8,13v1" style="fill: rgb(109, 76, 43); clip-path: url('#SVGID_2_');" transform="matrix(1, 0, 0, 1, 1.1368683772161603e-13, 2.842170943040401e-14)"/><path d="M 875 718 H 890 V 721 H 875 V 718 Z" class="st11" style="fill: rgb(109, 76, 43); clip-path: url('#SVGID_2_');" transform="matrix(1, 0, 0, 1, 1.1368683772161603e-13, 2.842170943040401e-14)"/><path d="M 887 718 H 890 V 725 H 887 V 718 Z" class="st11" style="fill: rgb(109, 76, 43); clip-path: url('#SVGID_2_');" transform="matrix(1, 0, 0, 1, 1.1368683772161603e-13, 2.842170943040401e-14)"/><path class="st11" d="M733,732v0.3c0-3.7,1.6-6.3,5.5-6.3h70.9c3.9,0,5.6,2.6,5.6,6.3V732" style="fill: rgb(109, 76, 43); clip-path: url('#SVGID_2_');" transform="matrix(1, 0, 0, 1, 1.1368683772161603e-13, 2.842170943040401e-14)"/><path d="M 774 651 H 778 V 729 H 774 V 651 Z" class="st11" style="fill: rgb(109, 76, 43); clip-path: url('#SVGID_2_');" transform="matrix(1, 0, 0, 1, 1.1368683772161603e-13, 2.842170943040401e-14)"/><path d="M 853.199987 540.700012 A 16.9 16.9 0 0 1 836.299988 557.600012 A 16.9 16.9 0 0 1 819.399988 540.700012 A 16.9 16.9 0 0 1 836.299988 523.800013 A 16.9 16.9 0 0 1 853.199987 540.700012 Z" class="st18" style="fill: rgb(135, 88, 45); clip-path: url('#SVGID_2_');" transform="matrix(1, 0, 0, 1, 1.1368683772161603e-13, 2.842170943040401e-14)"/><path class="st11" d="M836.3,560c-10.6,0-19.3-8.6-19.3-19.3c0-10.6,8.6-19.3,19.3-19.3c10.6,0,19.3,8.6,19.3,19.3&#10;&#9;&#9;&#9;&#9;&#9;C855.6,551.3,847,560,836.3,560z M836.3,526.2c-8,0-14.5,6.5-14.5,14.5c0,8,6.5,14.5,14.5,14.5c8,0,14.5-6.5,14.5-14.5&#10;&#9;&#9;&#9;&#9;&#9;C850.9,532.7,844.3,526.2,836.3,526.2z" style="fill: rgb(109, 76, 43); clip-path: url('#SVGID_2_');" transform="matrix(1, 0, 0, 1, 1.1368683772161603e-13, 2.842170943040401e-14)"/><path d="M -23 833 H 1432 V 949 H -23 V 833 Z" class="st19" style="fill: rgb(121, 122, 132); clip-path: url('#SVGID_2_');" transform="matrix(1, 0, 0, 1, 8.526512829121202e-14, 2.1316282072803006e-14)"/><g transform="matrix(1, 0, 0, 1, 1.1368683772161603e-13, 2.842170943040401e-14)" style="clip-path: url('#SVGID_2_');">
					<path class="st20" d="M1312,890.7c0,1.8-1.5,3.3-3.3,3.3h-87.3c-1.8,0-3.3-1.5-3.3-3.3v-0.3c0-1.8,1.5-3.3,3.3-3.3h87.3&#10;&#9;&#9;&#9;&#9;&#9;&#9;c1.8,0,3.3,1.5,3.3,3.3V890.7z" style="fill: rgb(224, 224, 224);"/>
				</g><path class="st20" d="M1112,890.7c0,1.8-1.5,3.3-3.3,3.3h-87.3c-1.8,0-3.3-1.5-3.3-3.3v-0.3c0-1.8,1.5-3.3,3.3-3.3h87.3&#10;&#9;&#9;&#9;&#9;&#9;&#9;c1.8,0,3.3,1.5,3.3,3.3V890.7z" style="fill: rgb(224, 224, 224); clip-path: url('#SVGID_2_');" transform="matrix(1, 0, 0, 1, 1.4210854715202004e-13, 3.552713678800501e-14)"/><path class="st20" d="M912,890.7c0,1.8-1.5,3.3-3.3,3.3h-87.3c-1.8,0-3.3-1.5-3.3-3.3v-0.3c0-1.8,1.5-3.3,3.3-3.3h87.3&#10;&#9;&#9;&#9;&#9;&#9;&#9;c1.8,0,3.3,1.5,3.3,3.3V890.7z" style="fill: rgb(224, 224, 224); clip-path: url('#SVGID_2_');" transform="matrix(1, 0, 0, 1, 1.4210854715202004e-13, 3.552713678800501e-14)"/><path class="st20" d="M712,890.7c0,1.8-1.5,3.3-3.3,3.3h-87.3c-1.8,0-3.3-1.5-3.3-3.3v-0.3c0-1.8,1.5-3.3,3.3-3.3h87.3&#10;&#9;&#9;&#9;&#9;&#9;&#9;c1.8,0,3.3,1.5,3.3,3.3V890.7z" style="fill: rgb(224, 224, 224); clip-path: url('#SVGID_2_');" transform="matrix(1, 0, 0, 1, 1.4210854715202004e-13, 3.552713678800501e-14)"/><path class="st20" d="M512,890.7c0,1.8-1.5,3.3-3.3,3.3h-87.3c-1.8,0-3.3-1.5-3.3-3.3v-0.3c0-1.8,1.5-3.3,3.3-3.3h87.3&#10;&#9;&#9;&#9;&#9;&#9;&#9;c1.8,0,3.3,1.5,3.3,3.3V890.7z" style="fill: rgb(224, 224, 224); clip-path: url('#SVGID_2_');" transform="matrix(1, 0, 0, 1, 1.4210854715202004e-13, 3.552713678800501e-14)"/><path class="st20" d="M312,890.7c0,1.8-1.5,3.3-3.3,3.3h-87.3c-1.8,0-3.3-1.5-3.3-3.3v-0.3c0-1.8,1.5-3.3,3.3-3.3h87.3&#10;&#9;&#9;&#9;&#9;&#9;&#9;c1.8,0,3.3,1.5,3.3,3.3V890.7z" style="fill: rgb(224, 224, 224); clip-path: url('#SVGID_2_');" transform="matrix(1, 0, 0, 1, 1.4210854715202004e-13, 3.552713678800501e-14)"/><path class="st20" d="M112,890.7c0,1.8-1.5,3.3-3.3,3.3H21.3c-1.8,0-3.3-1.5-3.3-3.3v-0.3c0-1.8,1.5-3.3,3.3-3.3h87.3&#10;&#9;&#9;&#9;&#9;&#9;&#9;c1.8,0,3.3,1.5,3.3,3.3V890.7z" style="fill: rgb(224, 224, 224); clip-path: url('#SVGID_2_');" transform="matrix(1, 0, 0, 1, 1.4210854715202004e-13, 3.552713678800501e-14)"/><g transform="matrix(1, 0, 0, 1, 8.526512829121202e-14, 2.1316282072803006e-14)" style="clip-path: url('#SVGID_2_');">
				<g>
					<path class="st21" d="M524.3,879h11.4c-4.4-16-15.7-25.2-34.8-25.9c-6-0.2-13.6-0.2-22.1-0.5c-0.2,0.1-0.5,0.4-0.7,0.4h-78.8&#10;&#9;&#9;&#9;&#9;&#9;&#9;c-1.7,0-4.2-2.1-4.2-3.7V825c0-1.7,2.5-2,4.2-2h40.3l-6.1-8H295.4l-5.4,8h47.1c1.7,0,1.9,0.4,1.9,2v24.3c0,1.7-0.3,3.7-1.9,3.7&#10;&#9;&#9;&#9;&#9;&#9;&#9;H267v53h151.2h48.5h61.6l-5.5-27H524.3z M388,850c0,1.7-1.4,3-3,3H350c-1.7,0-3-1.4-3-3V826c0-1.7,1.4-3,3-3H385&#10;&#9;&#9;&#9;&#9;&#9;&#9;c1.7,0,3,1.4,3,3V850z" style="fill: rgb(207, 66, 77);"/>
				</g>
				<g>
					<path class="st22" d="M537.9,896c0-7-0.8-12-2.2-17h-11.4l4,27h9.8v-9v-0.9V896H537.9z" style="fill: rgb(255, 229, 145);"/>
				</g>
				<g>
					<path d="M 522.7000122070312 879 L 528.2000122070312 906.2999877929688 L 524.2999877929688 879 Z" class="st22" style="fill: rgb(255, 229, 145);"/>
				</g>
				<g>
					<path class="st2" d="M339,849.3V825c0-1.7-0.3-2-1.9-2H290l-23,28.5v1.5h70.1C338.7,853,339,850.9,339,849.3z" style="fill: rgb(255, 255, 255);"/>
				</g>
				<g>
					<path class="st2" d="M388,826c0-1.7-1.4-3-3-3H350c-1.7,0-3,1.4-3,3V850c0,1.7,1.4,3,3,3H385c1.7,0,3-1.4,3-3V826z" style="fill: rgb(255, 255, 255);"/>
				</g>
			</g><g transform="matrix(1, 0, 0, 1, 1.1368683772161603e-13, 2.842170943040401e-14)" style="clip-path: url('#SVGID_2_');">
					<path class="st6" d="M466.3,852.3l-1.6-1.7L466.3,852.3C466.3,852.3,466.3,852.3,466.3,852.3z" style="fill: none;"/>
				</g><path class="st2" d="M466.1,851.9l-1.4-1.3l0,0l0,0L439.5,823h-40.3c-1.7,0-4.2,0.4-4.2,2v24.3c0,1.7,2.5,3.7,4.2,3.7h67.9&#10;&#9;&#9;&#9;&#9;&#9;&#9;L466.1,851.9C466.1,851.9,466.1,851.9,466.1,851.9z" style="fill: rgb(255, 255, 255); clip-path: url('#SVGID_2_');" transform="matrix(1, 0, 0, 1, 1.4210854715202004e-13, 3.552713678800501e-14)"/><path class="st21" d="M478.7,852.6c-4-0.2-8.1-0.2-12.4-0.3l0.8,0.8h11C478.3,853,478.5,852.6,478.7,852.6z" style="fill: rgb(207, 66, 77); clip-path: url('#SVGID_2_');" transform="matrix(1, 0, 0, 1, 1.4210854715202004e-13, 3.552713678800501e-14)"/><path d="M542.5,901c0,3.8-2,7-4.4,7H263.4c-2.4,0-4.4-3.2-4.4-7l0,0c0-3.8,2-7,4.4-7H538C540.5,894,542.5,897.2,542.5,901&#10;&#9;&#9;&#9;&#9;&#9;L542.5,901z" transform="matrix(1, 0, 0, 1, 1.1368683772161603e-13, 2.842170943040401e-14)" style="clip-path: url('#SVGID_2_');"/><path d="M 336.299999 899.700012 A 19.299999 19.299999 0 0 1 317 919.000011 A 19.299999 19.299999 0 0 1 297.700001 899.700012 A 19.299999 19.299999 0 0 1 317 880.400013 A 19.299999 19.299999 0 0 1 336.299999 899.700012 Z" class="st23" style="fill: rgb(104, 104, 104); clip-path: url('#SVGID_2_');" transform="matrix(1, 0, 0, 1, 1.1368683772161603e-13, 2.842170943040401e-14)"/><path d="M317,925.8c-14.4,0-26.2-11.7-26.2-26.2s11.7-26.2,26.2-26.2c14.4,0,26.2,11.7,26.2,26.2S331.4,925.8,317,925.8z&#10;&#9;&#9;&#9;&#9;&#9; M317,887.1c-6.9,0-12.5,5.6-12.5,12.5c0,6.9,5.6,12.5,12.5,12.5c6.9,0,12.5-5.6,12.5-12.5C329.5,892.8,323.9,887.1,317,887.1z" transform="matrix(1, 0, 0, 1, 1.1368683772161603e-13, 2.842170943040401e-14)" style="clip-path: url('#SVGID_2_');"/><path d="M 500.000011 899.700012 A 19.299999 19.299999 0 0 1 480.700012 919.000011 A 19.299999 19.299999 0 0 1 461.400013 899.700012 A 19.299999 19.299999 0 0 1 480.700012 880.400013 A 19.299999 19.299999 0 0 1 500.000011 899.700012 Z" class="st23" style="fill: rgb(104, 104, 104); clip-path: url('#SVGID_2_');" transform="matrix(1, 0, 0, 1, 1.1368683772161603e-13, 2.842170943040401e-14)"/><path d="M480.7,925.8c-14.4,0-26.2-11.7-26.2-26.2s11.7-26.2,26.2-26.2c14.4,0,26.2,11.7,26.2,26.2S495.1,925.8,480.7,925.8z&#10;&#9;&#9;&#9;&#9;&#9; M480.7,887.1c-6.9,0-12.5,5.6-12.5,12.5c0,6.9,5.6,12.5,12.5,12.5c6.9,0,12.5-5.6,12.5-12.5&#10;&#9;&#9;&#9;&#9;&#9;C493.2,892.8,487.6,887.1,480.7,887.1z" transform="matrix(1, 0, 0, 1, 1.1368683772161603e-13, 2.842170943040401e-14)" style="clip-path: url('#SVGID_2_');"/><path d="M 275.70001220703125 894 L 267 894 L 267 874 L 280.20001220703125 874 Z" class="st22" style="fill: rgb(255, 229, 145); clip-path: url('#SVGID_2_');" transform="matrix(1, 0, 0, 1, 1.1368683772161603e-13, 2.842170943040401e-14)"/>
</svg>