<svg xmlns="http://www.w3.org/2000/svg" id="master-artboard" width="1129.28" height="793.12" x="0" y="0" version="1.1" viewBox="0 0 1129.28 793.12" style="enable-background:new 0 0 336 235.2"><rect id="ee-background" width="1129.28" height="793.12" x="0" y="0" style="fill:#a4e2ff;fill-opacity:1;pointer-events:none"/><path d="M 0 66 L 27.4 108.199997 L 53.400002 89.199997 L 84.400002 117.599998 L 102.400002 110.199997 L 117.599998 124.199997 L 140.399994 103.699997 L 159.399994 129.199997 L 174.399994 117.599998 L 191.399994 131.199997 L 211.800003 114.800003 L 236.399994 124.199997 L 257.399994 117.599998 L 273.600006 129.199997 L 273.600006 153.199997 L 0 160.199997" class="st2" transform="matrix(3.3767311573028564, 0, 0, 3.3767311573028564, -3.2483644485473633, 1.6533756256103516)" style="fill:#63c0f1"/><path d="M 0 235.199997 L 336 235.199997 L 336 172.199997 L 0 139.199997" class="st3" transform="matrix(3.3767311573028564, 0, 0, 3.3767311573028564, -3.2483644485473633, 1.6533756256103516)" style="fill:#dae6fa"/><path d="M 0 198.199997 L 74.699997 203.199997 L 91.400002 215.199997 L 133.899994 215.199997 L 109.300003 235.199997 L 0 235.199997" class="st4" transform="matrix(3.3767311573028564, 0, 0, 3.3767311573028564, -3.2483644485473633, 1.6533756256103516)" style="fill:#589bd4"/><path d="M 336 193.199997 L 143.399994 203.199997 L 109.300003 235.199997 L 336 235.199997" class="st5" transform="matrix(3.3767311573028564, 0, 0, 3.3767311573028564, -3.2483644485473633, 1.6533756256103516)" style="fill:#87b4de"/><path d="M 67 145.800003 L 336 124.199997 L 336 172.199997" class="st1" transform="matrix(3.3767311573028564, 0, 0, 3.3767311573028564, -3.2483644485473633, 1.6533756256103516)" style="fill:#fff"/><path d="M 91.400002 215.199997 L 67 235.199997 L 17.4 235.199997 L 74.699997 203.199997" class="st6" transform="matrix(3.3767311573028564, 0, 0, 3.3767311573028564, -3.2483644485473633, 1.6533756256103516)" style="fill:#a2c9f9"/><path d="M 74.699997 203.199997 L 0 198.199997 L 0 235.199997 L 17.4 235.199997" class="st7" transform="matrix(3.3767311573028564, 0, 0, 3.3767311573028564, -3.2483644485473633, 1.6533756256103516)" style="fill:#7aacdd"/><path d="M 45.900002 172 L 24.1 182.100006 L 29.6 172" class="st5" transform="matrix(3.3767311573028564, 0, 0, 3.3767311573028564, -3.2483644485473633, 1.6533756256103516)" style="fill:#87b4de"/><path d="M 118.9000015258789 164.1999969482422 L 110.5 200.10000610351562 L 126.80000305175781 200.10000610351562 Z" class="st8" transform="matrix(3.3767311573028564, 0, 0, 3.3767311573028564, -3.2483644485473633, 1.6533756256103516)" style="fill:#f0f6ff"/><path d="M 126.800003 200.100006 L 105.099998 210.199997 L 110.5 200.100006" class="st5" transform="matrix(3.3767311573028564, 0, 0, 3.3767311573028564, -3.2483644485473633, 1.6533756256103516)" style="fill:#87b4de"/><path d="M 252.89999389648438 100.4000015258789 L 227.6999969482422 207.1999969482422 L 276.20001220703125 207.1999969482422 Z" class="st9" transform="matrix(3.3767311573028564, 0, 0, 3.3767311573028564, -3.2483644485473633, 1.6533756256103516)" style="fill:#87b6db"/><path d="M 230.5 235.1999969482422 L 276.20001220703125 207.1999969482422 L 227.6999969482422 207.1999969482422 L 213.89999389648438 235.1999969482422 Z" class="st4" transform="matrix(3.3767311573028564, 0, 0, 3.3767311573028564, -3.2483644485473633, 1.6533756256103516)" style="fill:#589bd4"/><path d="M 234.800003 177 L 269.700012 177 L 271.899994 187.199997 L 233.600006 182.100006" class="st10" transform="matrix(3.3767311573028564, 0, 0, 3.3767311573028564, -3.2483644485473633, 1.6533756256103516)" style="fill:#477ea5"/><path d="M 240.199997 154.600006 L 264 150.399994 L 265.5 157.100006 L 239.699997 156.600006" class="st10" transform="matrix(3.3767311573028564, 0, 0, 3.3767311573028564, -3.2483644485473633, 1.6533756256103516)" style="fill:#477ea5"/><path d="M 246.100006 129.300003 L 259.5 130.100006 L 260.299988 134.100006 L 245 134.100006" class="st10" transform="matrix(3.3767311573028564, 0, 0, 3.3767311573028564, -3.2483644485473633, 1.6533756256103516)" style="fill:#477ea5"/><path d="M 118.900002 164.199997 L 123.900002 200.100006 L 126.800003 200.100006" class="st1" transform="matrix(3.3767311573028564, 0, 0, 3.3767311573028564, -3.2483644485473633, 1.6533756256103516)" style="fill:#fff"/><path d="M 206.89999389648438 149.1999969482422 L 198.5 185.10000610351562 L 214.8000030517578 185.10000610351562 Z" class="st8" transform="matrix(3.3767311573028564, 0, 0, 3.3767311573028564, -3.2483644485473633, 1.6533756256103516)" style="fill:#f0f6ff"/><path d="M 284.70001220703125 103.0999984741211 L 276.20001220703125 139 L 292.5 139 Z" class="st1" transform="matrix(3.3767311573028564, 0, 0, 3.3767311573028564, -3.2483644485473633, 1.6533756256103516)" style="fill:#fff"/><path d="M 320.1000061035156 103.0999984741211 L 313.29998779296875 132.10000610351562 L 326.5 132.10000610351562 Z" class="st1" transform="matrix(3.3767311573028564, 0, 0, 3.3767311573028564, -3.2483644485473633, 1.6533756256103516)" style="fill:#fff"/><path d="M 193.3000030517578 113.5999984741211 L 186.5 142.60000610351562 L 199.60000610351562 142.60000610351562 Z" class="st1" transform="matrix(3.3767311573028564, 0, 0, 3.3767311573028564, -3.2483644485473633, 1.6533756256103516)" style="fill:#fff"/><path d="M 214.800003 185.100006 L 193.100006 195.199997 L 198.5 185.100006" class="st5" transform="matrix(3.3767311573028564, 0, 0, 3.3767311573028564, -3.2483644485473633, 1.6533756256103516)" style="fill:#87b4de"/><path d="M 206.899994 149.199997 L 211.899994 185.100006 L 214.800003 185.100006" class="st1" transform="matrix(3.3767311573028564, 0, 0, 3.3767311573028564, -3.2483644485473633, 1.6533756256103516)" style="fill:#fff"/><path d="M 80.5999984741211 149.1999969482422 L 72.80000305175781 182.3000030517578 L 87.80000305175781 182.3000030517578 Z" class="st8" transform="matrix(3.3767311573028564, 0, 0, 3.3767311573028564, -3.2483644485473633, 1.6533756256103516)" style="fill:#f0f6ff"/><path d="M 87.800003 182.300003 L 67.800003 191.699997 L 72.800003 182.300003" class="st5" transform="matrix(3.3767311573028564, 0, 0, 3.3767311573028564, -3.2483644485473633, 1.6533756256103516)" style="fill:#87b4de"/><path d="M 80.599998 149.199997 L 85.199997 182.300003 L 87.800003 182.300003" class="st1" transform="matrix(3.3767311573028564, 0, 0, 3.3767311573028564, -3.2483644485473633, 1.6533756256103516)" style="fill:#fff"/><path d="M 168.60000610351562 142.89999389648438 L 160.8000030517578 176 L 175.8000030517578 176 Z" class="st11" transform="matrix(3.3767311573028564, 0, 0, 3.3767311573028564, -3.2483644485473633, 1.6533756256103516)" style="fill:#bddef3"/><path d="M 175.800003 176 L 155.800003 185.399994 L 160.800003 176" class="st5" transform="matrix(3.3767311573028564, 0, 0, 3.3767311573028564, -3.2483644485473633, 1.6533756256103516)" style="fill:#87b4de"/><path d="M 168.600006 142.899994 L 173.199997 176.100006 L 175.800003 176" class="st1" transform="matrix(3.3767311573028564, 0, 0, 3.3767311573028564, -3.2483644485473633, 1.6533756256103516)" style="fill:#fff;opacity:.5"/><path d="M 300.6000061035156 139 L 292.79998779296875 172.10000610351562 L 307.79998779296875 172.10000610351562 Z" class="st11" transform="matrix(3.3767311573028564, 0, 0, 3.3767311573028564, -3.2483644485473633, 1.6533756256103516)" style="fill:#bddef3"/><path d="M 307.799988 172.100006 L 287.799988 181.5 L 292.799988 172.100006" class="st5" transform="matrix(3.3767311573028564, 0, 0, 3.3767311573028564, -3.2483644485473633, 1.6533756256103516)" style="fill:#87b4de"/><path d="M 300.600006 139 L 305.200012 172.100006 L 307.799988 172.100006" class="st1" transform="matrix(3.3767311573028564, 0, 0, 3.3767311573028564, -3.2483644485473633, 1.6533756256103516)" style="fill:#fff;opacity:.5"/><path d="M 115.0999984741211 124.19999694824219 L 107.19999694824219 157.3000030517578 L 122.30000305175781 157.3000030517578 Z" class="st11" transform="matrix(3.3767311573028564, 0, 0, 3.3767311573028564, -3.2483644485473633, 1.6533756256103516)" style="fill:#bddef3"/><path d="M 122.300003 157.300003 L 102.300003 166.699997 L 107.199997 157.300003" class="st5" transform="matrix(3.3767311573028564, 0, 0, 3.3767311573028564, -3.2483644485473633, 1.6533756256103516)" style="fill:#87b4de"/><path d="M 115.099998 124.199997 L 119.699997 157.300003 L 122.300003 157.300003" class="st1" transform="matrix(3.3767311573028564, 0, 0, 3.3767311573028564, -3.2483644485473633, 1.6533756256103516)" style="fill:#fff;opacity:.5"/><path d="M 253.100006 100.699997 L 276.200012 206.600006 L 267.799988 206.600006" class="st1" transform="matrix(3.3767311573028564, 0, 0, 3.3767311573028564, -3.2483644485473633, 1.6533756256103516)" style="fill:#fff;opacity:.3"/><path d="M 53.400001525878906 89.19999694824219 L 53.400001525878906 100.69999694824219 L 62.79999923706055 103.0999984741211 L 58.099998474121094 106.5999984741211 L 54.400001525878906 113.5999984741211 L 98.19999694824219 129.3000030517578 Z" class="st1" transform="matrix(3.3767311573028564, 0, 0, 3.3767311573028564, -3.2483644485473633, 1.6533756256103516)" style="fill:#fff"/><path d="M 102.400002 110.199997 L 105.099998 117.599998 L 109.300003 121 L 105.099998 124.199997 L 126.800003 131.699997" class="st1" transform="matrix(3.3767311573028564, 0, 0, 3.3767311573028564, -3.2483644485473633, 1.6533756256103516)" style="fill:#fff"/><path d="M 140.399994 103.699997 L 143.100006 113.599998 L 148.100006 119.199997 L 140.399994 117.599998 L 141.800003 124.199997 L 162.399994 133" class="st1" transform="matrix(3.3767311573028564, 0, 0, 3.3767311573028564, -3.2483644485473633, 1.6533756256103516)" style="fill:#fff"/><path d="M 174.399994 117.599998 L 178.100006 125.599998 L 189.5 129.699997" class="st1" transform="matrix(3.3767311573028564, 0, 0, 3.3767311573028564, -3.2483644485473633, 1.6533756256103516)" style="fill:#fff"/><path d="M 0 66 L 2.4 83.199997 L 6.1 85.199997 L 2.4 89.199997 L 12.8 100.699997 L 4.8 103.400002 L 42.799999 129.300003" class="st1" transform="matrix(3.3767311573028564, 0, 0, 3.3767311573028564, -3.2483644485473633, 1.6533756256103516)" style="fill:#fff"/><path d="M 211.800003 114.800003 L 216.800003 121 L 236.399994 124.199997" class="st1" transform="matrix(3.3767311573028564, 0, 0, 3.3767311573028564, -3.2483644485473633, 1.6533756256103516)" style="fill:#fff"/><path d="M 205.199997 141.899994 A 4 1.7 0 0 1 201.199997 143.599994 A 4 1.7 0 0 1 197.199997 141.899994 A 4 1.7 0 0 1 201.199997 140.199994 A 4 1.7 0 0 1 205.199997 141.899994 Z" class="st14" transform="matrix(3.3767311573028564, 0, 0, 3.3767311573028564, -3.2483644485473633, 1.6533756256103516)" style="fill:#b3e6ff"/><path d="M 192.500003 146.5 A 2.2 0.9 0 0 1 190.300003 147.4 A 2.2 0.9 0 0 1 188.100003 146.5 A 2.2 0.9 0 0 1 190.300003 145.6 A 2.2 0.9 0 0 1 192.500003 146.5 Z" class="st14" transform="matrix(3.3767311573028564, 0, 0, 3.3767311573028564, -3.2483644485473633, 1.6533756256103516)" style="fill:#b3e6ff"/><path d="M 199.500003 152.100006 A 2.2 0.9 0 0 1 197.300003 153.000006 A 2.2 0.9 0 0 1 195.100003 152.100006 A 2.2 0.9 0 0 1 197.300003 151.200006 A 2.2 0.9 0 0 1 199.500003 152.100006 Z" class="st15" transform="matrix(3.3767311573028564, 0, 0, 3.3767311573028564, -3.2483644485473633, 1.6533756256103516)" style="fill:#d1efff"/><path d="M 227.7 143.800003 A 2.2 0.9 0 0 1 225.5 144.700003 A 2.2 0.9 0 0 1 223.3 143.800003 A 2.2 0.9 0 0 1 225.5 142.900003 A 2.2 0.9 0 0 1 227.7 143.800003 Z" class="st14" transform="matrix(3.3767311573028564, 0, 0, 3.3767311573028564, -3.2483644485473633, 1.6533756256103516)" style="fill:#b3e6ff"/><path d="M 177.300003 147.5 A 1.5 0.6 0 0 1 175.800003 148.1 A 1.5 0.6 0 0 1 174.300003 147.5 A 1.5 0.6 0 0 1 175.800003 146.9 A 1.5 0.6 0 0 1 177.300003 147.5 Z" class="st14" transform="matrix(3.3767311573028564, 0, 0, 3.3767311573028564, -3.2483644485473633, 1.6533756256103516)" style="fill:#b3e6ff"/><path d="M 212.699997 141.899994 A 1.5 0.6 0 0 1 211.199997 142.499994 A 1.5 0.6 0 0 1 209.699997 141.899994 A 1.5 0.6 0 0 1 211.199997 141.299994 A 1.5 0.6 0 0 1 212.699997 141.899994 Z" class="st15" transform="matrix(3.3767311573028564, 0, 0, 3.3767311573028564, -3.2483644485473633, 1.6533756256103516)" style="fill:#d1efff"/><path d="M 213.300003 148.199997 A 1.5 0.6 0 0 1 211.800003 148.799997 A 1.5 0.6 0 0 1 210.300003 148.199997 A 1.5 0.6 0 0 1 211.800003 147.599997 A 1.5 0.6 0 0 1 213.300003 148.199997 Z" class="st14" transform="matrix(3.3767311573028564, 0, 0, 3.3767311573028564, -3.2483644485473633, 1.6533756256103516)" style="fill:#b3e6ff"/><path d="M 233.199997 154.100006 A 1.5 0.6 0 0 1 231.699997 154.700006 A 1.5 0.6 0 0 1 230.199997 154.100006 A 1.5 0.6 0 0 1 231.699997 153.500006 A 1.5 0.6 0 0 1 233.199997 154.100006 Z" class="st14" transform="matrix(3.3767311573028564, 0, 0, 3.3767311573028564, -3.2483644485473633, 1.6533756256103516)" style="fill:#b3e6ff"/><path d="M 221.899994 154.5 A 4 1.7 0 0 1 217.899994 156.2 A 4 1.7 0 0 1 213.899994 154.5 A 4 1.7 0 0 1 217.899994 152.8 A 4 1.7 0 0 1 221.899994 154.5 Z" class="st15" transform="matrix(3.3767311573028564, 0, 0, 3.3767311573028564, -3.2483644485473633, 1.6533756256103516)" style="fill:#d1efff"/><path d="M 129.5 165.699997 A 4 1.7 0 0 1 125.5 167.399997 A 4 1.7 0 0 1 121.5 165.699997 A 4 1.7 0 0 1 125.5 163.999997 A 4 1.7 0 0 1 129.5 165.699997 Z" class="st5" transform="matrix(3.3767311573028564, 0, 0, 3.3767311573028564, -3.2483644485473633, 1.6533756256103516)" style="fill:#87b4de"/><path d="M 114.500003 169.300003 A 2.2 0.9 0 0 1 112.300003 170.200003 A 2.2 0.9 0 0 1 110.100003 169.300003 A 2.2 0.9 0 0 1 112.300003 168.400003 A 2.2 0.9 0 0 1 114.500003 169.300003 Z" class="st5" transform="matrix(3.3767311573028564, 0, 0, 3.3767311573028564, -3.2483644485473633, 1.6533756256103516)" style="fill:#87b4de"/><path d="M 131.800006 183.899994 A 2.2 0.9 0 0 1 129.600006 184.799994 A 2.2 0.9 0 0 1 127.400006 183.899994 A 2.2 0.9 0 0 1 129.600006 182.999994 A 2.2 0.9 0 0 1 131.800006 183.899994 Z" class="st5" transform="matrix(3.3767311573028564, 0, 0, 3.3767311573028564, -3.2483644485473633, 1.6533756256103516)" style="fill:#87b4de"/><path d="M 152.000003 167.600006 A 2.2 0.9 0 0 1 149.800003 168.500006 A 2.2 0.9 0 0 1 147.600003 167.600006 A 2.2 0.9 0 0 1 149.800003 166.700006 A 2.2 0.9 0 0 1 152.000003 167.600006 Z" class="st16" transform="matrix(3.3767311573028564, 0, 0, 3.3767311573028564, -3.2483644485473633, 1.6533756256103516)" style="fill:#a4d6f1"/><path d="M 170.000003 193.199997 A 2.2 0.9 0 0 1 167.800003 194.099997 A 2.2 0.9 0 0 1 165.600003 193.199997 A 2.2 0.9 0 0 1 167.800003 192.299997 A 2.2 0.9 0 0 1 170.000003 193.199997 Z" class="st16" transform="matrix(3.3767311573028564, 0, 0, 3.3767311573028564, -3.2483644485473633, 1.6533756256103516)" style="fill:#a4d6f1"/><path d="M 192.899997 170.300003 A 2.2 0.9 0 0 1 190.699997 171.200003 A 2.2 0.9 0 0 1 188.499997 170.300003 A 2.2 0.9 0 0 1 190.699997 169.400003 A 2.2 0.9 0 0 1 192.899997 170.300003 Z" class="st16" transform="matrix(3.3767311573028564, 0, 0, 3.3767311573028564, -3.2483644485473633, 1.6533756256103516)" style="fill:#a4d6f1"/><path d="M 226.300006 178.300003 A 2.2 0.9 0 0 1 224.100006 179.200003 A 2.2 0.9 0 0 1 221.900006 178.300003 A 2.2 0.9 0 0 1 224.100006 177.400003 A 2.2 0.9 0 0 1 226.300006 178.300003 Z" class="st16" transform="matrix(3.3767311573028564, 0, 0, 3.3767311573028564, -3.2483644485473633, 1.6533756256103516)" style="fill:#a4d6f1"/><path d="M 23.6 156.199997 A 2.2 0.9 0 0 1 21.4 157.099997 A 2.2 0.9 0 0 1 19.2 156.199997 A 2.2 0.9 0 0 1 21.4 155.299997 A 2.2 0.9 0 0 1 23.6 156.199997 Z" class="st16" transform="matrix(3.3767311573028564, 0, 0, 3.3767311573028564, -3.2483644485473633, 1.6533756256103516)" style="fill:#a4d6f1"/><path d="M 13.6 180.699997 A 2.2 0.9 0 0 1 11.4 181.599997 A 2.2 0.9 0 0 1 9.2 180.699997 A 2.2 0.9 0 0 1 11.4 179.799997 A 2.2 0.9 0 0 1 13.6 180.699997 Z" class="st16" transform="matrix(3.3767311573028564, 0, 0, 3.3767311573028564, -3.2483644485473633, 1.6533756256103516)" style="fill:#a4d6f1"/><path d="M 108.099998 176.399994 A 1.5 0.6 0 0 1 106.599998 176.999994 A 1.5 0.6 0 0 1 105.099998 176.399994 A 1.5 0.6 0 0 1 106.599998 175.799994 A 1.5 0.6 0 0 1 108.099998 176.399994 Z" class="st16" transform="matrix(3.3767311573028564, 0, 0, 3.3767311573028564, -3.2483644485473633, 1.6533756256103516)" style="fill:#a4d6f1"/><path d="M 94.400002 190.699997 A 1.5 0.6 0 0 1 92.900002 191.299997 A 1.5 0.6 0 0 1 91.400002 190.699997 A 1.5 0.6 0 0 1 92.900002 190.099997 A 1.5 0.6 0 0 1 94.400002 190.699997 Z" class="st16" transform="matrix(3.3767311573028564, 0, 0, 3.3767311573028564, -3.2483644485473633, 1.6533756256103516)" style="fill:#a4d6f1"/><path d="M 137 165.699997 A 1.5 0.6 0 0 1 135.5 166.299997 A 1.5 0.6 0 0 1 134 165.699997 A 1.5 0.6 0 0 1 135.5 165.099997 A 1.5 0.6 0 0 1 137 165.699997 Z" class="st5" transform="matrix(3.3767311573028564, 0, 0, 3.3767311573028564, -3.2483644485473633, 1.6533756256103516)" style="fill:#87b4de"/><path d="M 12.2 151.899994 A 1.5 0.6 0 0 1 10.7 152.499994 A 1.5 0.6 0 0 1 9.2 151.899994 A 1.5 0.6 0 0 1 10.7 151.299994 A 1.5 0.6 0 0 1 12.2 151.899994 Z" class="st5" transform="matrix(3.3767311573028564, 0, 0, 3.3767311573028564, -3.2483644485473633, 1.6533756256103516)" style="fill:#87b4de"/><path d="M 20.6 190.699997 A 1.5 0.6 0 0 1 19.1 191.299997 A 1.5 0.6 0 0 1 17.6 190.699997 A 1.5 0.6 0 0 1 19.1 190.099997 A 1.5 0.6 0 0 1 20.6 190.699997 Z" class="st5" transform="matrix(3.3767311573028564, 0, 0, 3.3767311573028564, -3.2483644485473633, 1.6533756256103516)" style="fill:#87b4de"/><path d="M 94.400002 205.100006 A 1.5 0.6 0 0 1 92.900002 205.700006 A 1.5 0.6 0 0 1 91.400002 205.100006 A 1.5 0.6 0 0 1 92.900002 204.500006 A 1.5 0.6 0 0 1 94.400002 205.100006 Z" class="st5" transform="matrix(3.3767311573028564, 0, 0, 3.3767311573028564, -3.2483644485473633, 1.6533756256103516)" style="fill:#87b4de"/><path d="M 139.800003 194.100006 A 1.5 0.6 0 0 1 138.300003 194.700006 A 1.5 0.6 0 0 1 136.800003 194.100006 A 1.5 0.6 0 0 1 138.300003 193.500006 A 1.5 0.6 0 0 1 139.800003 194.100006 Z" class="st5" transform="matrix(3.3767311573028564, 0, 0, 3.3767311573028564, -3.2483644485473633, 1.6533756256103516)" style="fill:#87b4de"/><path d="M 183.5 180.699997 A 1.5 0.6 0 0 1 182 181.299997 A 1.5 0.6 0 0 1 180.5 180.699997 A 1.5 0.6 0 0 1 182 180.099997 A 1.5 0.6 0 0 1 183.5 180.699997 Z" class="st5" transform="matrix(3.3767311573028564, 0, 0, 3.3767311573028564, -3.2483644485473633, 1.6533756256103516)" style="fill:#87b4de"/><path d="M 282.5 176.600006 A 1.5 0.6 0 0 1 281 177.200006 A 1.5 0.6 0 0 1 279.5 176.600006 A 1.5 0.6 0 0 1 281 176.000006 A 1.5 0.6 0 0 1 282.5 176.600006 Z" class="st5" transform="matrix(3.3767311573028564, 0, 0, 3.3767311573028564, -3.2483644485473633, 1.6533756256103516)" style="fill:#87b4de"/><path d="M 133.800003 174.199997 A 1.5 0.6 0 0 1 132.300003 174.799997 A 1.5 0.6 0 0 1 130.800003 174.199997 A 1.5 0.6 0 0 1 132.300003 173.599997 A 1.5 0.6 0 0 1 133.800003 174.199997 Z" class="st16" transform="matrix(3.3767311573028564, 0, 0, 3.3767311573028564, -3.2483644485473633, 1.6533756256103516)" style="fill:#a4d6f1"/><path d="M 297.599994 189.300003 A 2.2 0.9 0 0 1 295.399994 190.200003 A 2.2 0.9 0 0 1 293.199994 189.300003 A 2.2 0.9 0 0 1 295.399994 188.400003 A 2.2 0.9 0 0 1 297.599994 189.300003 Z" class="st5" transform="matrix(3.3767311573028564, 0, 0, 3.3767311573028564, -3.2483644485473633, 1.6533756256103516)" style="fill:#87b4de"/><path d="M304,179.7c0,0.3-1.4,0.6-3.1,0.6c-1.7,0-3.1-0.3-3.1-0.6c0-0.3,1.4-0.6,3.1-0.6 C302.6,179.1,304,179.4,304,179.7z" class="st16" transform="matrix(3.3767311573028564, 0, 0, 3.3767311573028564, -3.2483644485473633, 1.6533756256103516)" style="fill:#a4d6f1"/><path d="M 157.5 177.800003 A 1.5 0.6 0 0 1 156 178.400003 A 1.5 0.6 0 0 1 154.5 177.800003 A 1.5 0.6 0 0 1 156 177.200003 A 1.5 0.6 0 0 1 157.5 177.800003 Z" class="st16" transform="matrix(3.3767311573028564, 0, 0, 3.3767311573028564, -3.2483644485473633, 1.6533756256103516)" style="fill:#a4d6f1"/><path d="M 146.300003 178.300003 A 4 1.7 0 0 1 142.300003 180.000003 A 4 1.7 0 0 1 138.300003 178.300003 A 4 1.7 0 0 1 142.300003 176.600003 A 4 1.7 0 0 1 146.300003 178.300003 Z" class="st5" transform="matrix(3.3767311573028564, 0, 0, 3.3767311573028564, -3.2483644485473633, 1.6533756256103516)" style="fill:#87b4de"/><path d="M 310.899994 187.199997 A 4 1.7 0 0 1 306.899994 188.899997 A 4 1.7 0 0 1 302.899994 187.199997 A 4 1.7 0 0 1 306.899994 185.499997 A 4 1.7 0 0 1 310.899994 187.199997 Z" class="st5" transform="matrix(3.3767311573028564, 0, 0, 3.3767311573028564, -3.2483644485473633, 1.6533756256103516)" style="fill:#87b4de"/><path d="M 69.2 154.600006 A 2.2 0.9 0 0 1 67 155.500006 A 2.2 0.9 0 0 1 64.8 154.600006 A 2.2 0.9 0 0 1 67 153.700006 A 2.2 0.9 0 0 1 69.2 154.600006 Z" class="st16" transform="matrix(3.3767311573028564, 0, 0, 3.3767311573028564, -3.2483644485473633, 1.6533756256103516)" style="fill:#a4d6f1"/><path d="M 54.200001 152.699997 A 1.5 0.6 0 0 1 52.700001 153.299997 A 1.5 0.6 0 0 1 51.200001 152.699997 A 1.5 0.6 0 0 1 52.700001 152.099997 A 1.5 0.6 0 0 1 54.200001 152.699997 Z" class="st5" transform="matrix(3.3767311573028564, 0, 0, 3.3767311573028564, -3.2483644485473633, 1.6533756256103516)" style="fill:#87b4de"/><path d="M 51 161.300003 A 1.5 0.6 0 0 1 49.5 161.900003 A 1.5 0.6 0 0 1 48 161.300003 A 1.5 0.6 0 0 1 49.5 160.700003 A 1.5 0.6 0 0 1 51 161.300003 Z" class="st16" transform="matrix(3.3767311573028564, 0, 0, 3.3767311573028564, -3.2483644485473633, 1.6533756256103516)" style="fill:#a4d6f1"/><path d="M 74.699997 164.800003 A 1.5 0.6 0 0 1 73.199997 165.400003 A 1.5 0.6 0 0 1 71.699997 164.800003 A 1.5 0.6 0 0 1 73.199997 164.200003 A 1.5 0.6 0 0 1 74.699997 164.800003 Z" class="st16" transform="matrix(3.3767311573028564, 0, 0, 3.3767311573028564, -3.2483644485473633, 1.6533756256103516)" style="fill:#a4d6f1"/><path d="M 65.299999 173.600006 A 4 1.7 0 0 1 61.299999 175.300006 A 4 1.7 0 0 1 57.299999 173.600006 A 4 1.7 0 0 1 61.299999 171.900006 A 4 1.7 0 0 1 65.299999 173.600006 Z" class="st5" transform="matrix(3.3767311573028564, 0, 0, 3.3767311573028564, -3.2483644485473633, 1.6533756256103516)" style="fill:#87b4de"/><path d="M 57.299999 184.699997 A 2.2 0.9 0 0 1 55.099998 185.599997 A 2.2 0.9 0 0 1 52.899998 184.699997 A 2.2 0.9 0 0 1 55.099998 183.799997 A 2.2 0.9 0 0 1 57.299999 184.699997 Z" class="st16" transform="matrix(3.3767311573028564, 0, 0, 3.3767311573028564, -3.2483644485473633, 1.6533756256103516)" style="fill:#a4d6f1"/><path d="M 42.299999 182.699997 A 1.5 0.6 0 0 1 40.799999 183.299997 A 1.5 0.6 0 0 1 39.299999 182.699997 A 1.5 0.6 0 0 1 40.799999 182.099997 A 1.5 0.6 0 0 1 42.299999 182.699997 Z" class="st5" transform="matrix(3.3767311573028564, 0, 0, 3.3767311573028564, -3.2483644485473633, 1.6533756256103516)" style="fill:#87b4de"/><path d="M 39.099998 191.300003 A 1.5 0.6 0 0 1 37.599998 191.900003 A 1.5 0.6 0 0 1 36.099998 191.300003 A 1.5 0.6 0 0 1 37.599998 190.700003 A 1.5 0.6 0 0 1 39.099998 191.300003 Z" class="st16" transform="matrix(3.3767311573028564, 0, 0, 3.3767311573028564, -3.2483644485473633, 1.6533756256103516)" style="fill:#a4d6f1"/><path d="M 62.799999 194.899994 A 1.5 0.6 0 0 1 61.299999 195.499994 A 1.5 0.6 0 0 1 59.799999 194.899994 A 1.5 0.6 0 0 1 61.299999 194.299994 A 1.5 0.6 0 0 1 62.799999 194.899994 Z" class="st16" transform="matrix(3.3767311573028564, 0, 0, 3.3767311573028564, -3.2483644485473633, 1.6533756256103516)" style="fill:#a4d6f1"/><path d="M 10.7 163.600006 A 1.5 0.6 0 0 1 9.2 164.200006 A 1.5 0.6 0 0 1 7.7 163.600006 A 1.5 0.6 0 0 1 9.2 163.000006 A 1.5 0.6 0 0 1 10.7 163.600006 Z" class="st16" transform="matrix(3.3767311573028564, 0, 0, 3.3767311573028564, -3.2483644485473633, 1.6533756256103516)" style="fill:#a4d6f1"/><path d="M 51.599998 195.300003 A 4 1.7 0 0 1 47.599998 197.000003 A 4 1.7 0 0 1 43.599998 195.300003 A 4 1.7 0 0 1 47.599998 193.600003 A 4 1.7 0 0 1 51.599998 195.300003 Z" class="st5" transform="matrix(3.3767311573028564, 0, 0, 3.3767311573028564, -3.2483644485473633, 1.6533756256103516)" style="fill:#87b4de"/><path d="M 170.5 212.899994 A 4 1.7 0 0 1 166.5 214.599994 A 4 1.7 0 0 1 162.5 212.899994 A 4 1.7 0 0 1 166.5 211.199994 A 4 1.7 0 0 1 170.5 212.899994 Z" class="st14" transform="matrix(3.3767311573028564, 0, 0, 3.3767311573028564, -3.2483644485473633, 1.6533756256103516)" style="fill:#b3e6ff"/><path d="M 157.800006 217.5 A 2.2 0.9 0 0 1 155.600006 218.4 A 2.2 0.9 0 0 1 153.400006 217.5 A 2.2 0.9 0 0 1 155.600006 216.6 A 2.2 0.9 0 0 1 157.800006 217.5 Z" class="st14" transform="matrix(3.3767311573028564, 0, 0, 3.3767311573028564, -3.2483644485473633, 1.6533756256103516)" style="fill:#b3e6ff"/><path d="M 164.800006 223.100006 A 2.2 0.9 0 0 1 162.600006 224.000006 A 2.2 0.9 0 0 1 160.400006 223.100006 A 2.2 0.9 0 0 1 162.600006 222.200006 A 2.2 0.9 0 0 1 164.800006 223.100006 Z" class="st15" transform="matrix(3.3767311573028564, 0, 0, 3.3767311573028564, -3.2483644485473633, 1.6533756256103516)" style="fill:#d1efff"/><path d="M 192.899997 214.800003 A 2.2 0.9 0 0 1 190.699997 215.700003 A 2.2 0.9 0 0 1 188.499997 214.800003 A 2.2 0.9 0 0 1 190.699997 213.900003 A 2.2 0.9 0 0 1 192.899997 214.800003 Z" class="st14" transform="matrix(3.3767311573028564, 0, 0, 3.3767311573028564, -3.2483644485473633, 1.6533756256103516)" style="fill:#b3e6ff"/><path d="M 149 223.600006 A 1.5 0.6 0 0 1 147.5 224.200006 A 1.5 0.6 0 0 1 146 223.600006 A 1.5 0.6 0 0 1 147.5 223.000006 A 1.5 0.6 0 0 1 149 223.600006 Z" class="st14" transform="matrix(3.3767311573028564, 0, 0, 3.3767311573028564, -3.2483644485473633, 1.6533756256103516)" style="fill:#b3e6ff"/><path d="M 177.899994 212.899994 A 1.5 0.6 0 0 1 176.399994 213.499994 A 1.5 0.6 0 0 1 174.899994 212.899994 A 1.5 0.6 0 0 1 176.399994 212.299994 A 1.5 0.6 0 0 1 177.899994 212.899994 Z" class="st15" transform="matrix(3.3767311573028564, 0, 0, 3.3767311573028564, -3.2483644485473633, 1.6533756256103516)" style="fill:#d1efff"/><path d="M 174.699997 221.5 A 1.5 0.6 0 0 1 173.199997 222.1 A 1.5 0.6 0 0 1 171.699997 221.5 A 1.5 0.6 0 0 1 173.199997 220.9 A 1.5 0.6 0 0 1 174.699997 221.5 Z" class="st14" transform="matrix(3.3767311573028564, 0, 0, 3.3767311573028564, -3.2483644485473633, 1.6533756256103516)" style="fill:#b3e6ff"/><path d="M 198.5 225 A 1.5 0.6 0 0 1 197 225.6 A 1.5 0.6 0 0 1 195.5 225 A 1.5 0.6 0 0 1 197 224.4 A 1.5 0.6 0 0 1 198.5 225 Z" class="st14" transform="matrix(3.3767311573028564, 0, 0, 3.3767311573028564, -3.2483644485473633, 1.6533756256103516)" style="fill:#b3e6ff"/><path d="M 187.199997 225.5 A 4 1.7 0 0 1 183.199997 227.2 A 4 1.7 0 0 1 179.199997 225.5 A 4 1.7 0 0 1 183.199997 223.8 A 4 1.7 0 0 1 187.199997 225.5 Z" class="st15" transform="matrix(3.3767311573028564, 0, 0, 3.3767311573028564, -3.2483644485473633, 1.6533756256103516)" style="fill:#d1efff"/><path d="M 302.5 214.899994 A 4 1.7 0 0 1 298.5 216.599994 A 4 1.7 0 0 1 294.5 214.899994 A 4 1.7 0 0 1 298.5 213.199994 A 4 1.7 0 0 1 302.5 214.899994 Z" class="st14" transform="matrix(3.3767311573028564, 0, 0, 3.3767311573028564, -3.2483644485473633, 1.6533756256103516)" style="fill:#b3e6ff"/><path d="M 289.800006 219.5 A 2.2 0.9 0 0 1 287.600006 220.4 A 2.2 0.9 0 0 1 285.400006 219.5 A 2.2 0.9 0 0 1 287.600006 218.6 A 2.2 0.9 0 0 1 289.800006 219.5 Z" class="st14" transform="matrix(3.3767311573028564, 0, 0, 3.3767311573028564, -3.2483644485473633, 1.6533756256103516)" style="fill:#b3e6ff"/><path d="M 296.800006 225.100006 A 2.2 0.9 0 0 1 294.600006 226.000006 A 2.2 0.9 0 0 1 292.400006 225.100006 A 2.2 0.9 0 0 1 294.600006 224.200006 A 2.2 0.9 0 0 1 296.800006 225.100006 Z" class="st15" transform="matrix(3.3767311573028564, 0, 0, 3.3767311573028564, -3.2483644485473633, 1.6533756256103516)" style="fill:#d1efff"/><path d="M 324.900012 216.800003 A 2.2 0.9 0 0 1 322.700012 217.700003 A 2.2 0.9 0 0 1 320.500012 216.800003 A 2.2 0.9 0 0 1 322.700012 215.900003 A 2.2 0.9 0 0 1 324.900012 216.800003 Z" class="st14" transform="matrix(3.3767311573028564, 0, 0, 3.3767311573028564, -3.2483644485473633, 1.6533756256103516)" style="fill:#b3e6ff"/><path d="M 281 225.600006 A 1.5 0.6 0 0 1 279.5 226.200006 A 1.5 0.6 0 0 1 278 225.600006 A 1.5 0.6 0 0 1 279.5 225.000006 A 1.5 0.6 0 0 1 281 225.600006 Z" class="st14" transform="matrix(3.3767311573028564, 0, 0, 3.3767311573028564, -3.2483644485473633, 1.6533756256103516)" style="fill:#b3e6ff"/><path d="M 309.899994 214.899994 A 1.5 0.6 0 0 1 308.399994 215.499994 A 1.5 0.6 0 0 1 306.899994 214.899994 A 1.5 0.6 0 0 1 308.399994 214.299994 A 1.5 0.6 0 0 1 309.899994 214.899994 Z" class="st15" transform="matrix(3.3767311573028564, 0, 0, 3.3767311573028564, -3.2483644485473633, 1.6533756256103516)" style="fill:#d1efff"/><path d="M 306.700012 223.5 A 1.5 0.6 0 0 1 305.200012 224.1 A 1.5 0.6 0 0 1 303.700012 223.5 A 1.5 0.6 0 0 1 305.200012 222.9 A 1.5 0.6 0 0 1 306.700012 223.5 Z" class="st14" transform="matrix(3.3767311573028564, 0, 0, 3.3767311573028564, -3.2483644485473633, 1.6533756256103516)" style="fill:#b3e6ff"/><path d="M 330.5 227 A 1.5 0.6 0 0 1 329 227.6 A 1.5 0.6 0 0 1 327.5 227 A 1.5 0.6 0 0 1 329 226.4 A 1.5 0.6 0 0 1 330.5 227 Z" class="st14" transform="matrix(3.3767311573028564, 0, 0, 3.3767311573028564, -3.2483644485473633, 1.6533756256103516)" style="fill:#b3e6ff"/><path d="M 319.200012 227.5 A 4 1.7 0 0 1 315.200012 229.2 A 4 1.7 0 0 1 311.200012 227.5 A 4 1.7 0 0 1 315.200012 225.8 A 4 1.7 0 0 1 319.200012 227.5 Z" class="st15" transform="matrix(3.3767311573028564, 0, 0, 3.3767311573028564, -3.2483644485473633, 1.6533756256103516)" style="fill:#d1efff"/><path d="M 296.399994 134.100006 A 4 1.7 0 0 1 292.399994 135.800006 A 4 1.7 0 0 1 288.399994 134.100006 A 4 1.7 0 0 1 292.399994 132.400006 A 4 1.7 0 0 1 296.399994 134.100006 Z" class="st14" transform="matrix(3.3767311573028564, 0, 0, 3.3767311573028564, -3.2483644485473633, 1.6533756256103516)" style="fill:#b3e6ff"/><path d="M 287.999988 143.899994 A 2.2 0.9 0 0 1 285.799988 144.799994 A 2.2 0.9 0 0 1 283.599988 143.899994 A 2.2 0.9 0 0 1 285.799988 142.999994 A 2.2 0.9 0 0 1 287.999988 143.899994 Z" class="st14" transform="matrix(3.3767311573028564, 0, 0, 3.3767311573028564, -3.2483644485473633, 1.6533756256103516)" style="fill:#b3e6ff"/><path d="M 295.099994 149.5 A 2.2 0.9 0 0 1 292.899994 150.4 A 2.2 0.9 0 0 1 290.699994 149.5 A 2.2 0.9 0 0 1 292.899994 148.6 A 2.2 0.9 0 0 1 295.099994 149.5 Z" class="st15" transform="matrix(3.3767311573028564, 0, 0, 3.3767311573028564, -3.2483644485473633, 1.6533756256103516)" style="fill:#d1efff"/><path d="M 323.2 141.199997 A 2.2 0.9 0 0 1 321 142.099997 A 2.2 0.9 0 0 1 318.8 141.199997 A 2.2 0.9 0 0 1 321 140.299997 A 2.2 0.9 0 0 1 323.2 141.199997 Z" class="st14" transform="matrix(3.3767311573028564, 0, 0, 3.3767311573028564, -3.2483644485473633, 1.6533756256103516)" style="fill:#b3e6ff"/><path d="M 279.299988 150 A 1.5 0.6 0 0 1 277.799988 150.6 A 1.5 0.6 0 0 1 276.299988 150 A 1.5 0.6 0 0 1 277.799988 149.4 A 1.5 0.6 0 0 1 279.299988 150 Z" class="st14" transform="matrix(3.3767311573028564, 0, 0, 3.3767311573028564, -3.2483644485473633, 1.6533756256103516)" style="fill:#b3e6ff"/><path d="M 308.200012 139.300003 A 1.5 0.6 0 0 1 306.700012 139.900003 A 1.5 0.6 0 0 1 305.200012 139.300003 A 1.5 0.6 0 0 1 306.700012 138.700003 A 1.5 0.6 0 0 1 308.200012 139.300003 Z" class="st15" transform="matrix(3.3767311573028564, 0, 0, 3.3767311573028564, -3.2483644485473633, 1.6533756256103516)" style="fill:#d1efff"/><path d="M 324.200012 162 A 1.5 0.6 0 0 1 322.700012 162.6 A 1.5 0.6 0 0 1 321.200012 162 A 1.5 0.6 0 0 1 322.700012 161.4 A 1.5 0.6 0 0 1 324.200012 162 Z" class="st14" transform="matrix(3.3767311573028564, 0, 0, 3.3767311573028564, -3.2483644485473633, 1.6533756256103516)" style="fill:#b3e6ff"/><path d="M 328.700012 151.399994 A 1.5 0.6 0 0 1 327.200012 151.999994 A 1.5 0.6 0 0 1 325.700012 151.399994 A 1.5 0.6 0 0 1 327.200012 150.799994 A 1.5 0.6 0 0 1 328.700012 151.399994 Z" class="st14" transform="matrix(3.3767311573028564, 0, 0, 3.3767311573028564, -3.2483644485473633, 1.6533756256103516)" style="fill:#b3e6ff"/><path d="M 317.5 151.899994 A 4 1.7 0 0 1 313.5 153.599994 A 4 1.7 0 0 1 309.5 151.899994 A 4 1.7 0 0 1 313.5 150.199994 A 4 1.7 0 0 1 317.5 151.899994 Z" class="st15" transform="matrix(3.3767311573028564, 0, 0, 3.3767311573028564, -3.2483644485473633, 1.6533756256103516)" style="fill:#d1efff"/><g><g><path d="M 46.700001 143.800003 H 72.900002 V 155.900003 H 46.700001 V 143.800003 Z" class="st17" transform="matrix(3.3767311573028564, 0, 0, 3.3767311573028564, -3.2483644485473633, 1.6533756256103516)" style="fill:#f95a73"/></g></g><g><g><path d="M 59.79999923706055 132.89999389648438 L 46.70000076293945 143.8000030517578 L 72.9000015258789 143.8000030517578 L 59.79999923706055 132.89999389648438 L 46.70000076293945 143.8000030517578 L 72.9000015258789 143.8000030517578 Z" class="st17" transform="matrix(3.3767311573028564, 0, 0, 3.3767311573028564, -3.2483644485473633, 1.6533756256103516)" style="fill:#f95a73"/></g></g><g><path d="M 61.700001 146.899994 H 70.000001 V 152.099994 H 61.700001 V 146.899994 Z" class="st18" transform="matrix(3.3767311573028564, 0, 0, 3.3767311573028564, -3.2483644485473633, 1.6533756256103516)" style="fill:#32493c"/></g><g><g><path d="M70.2,152.3h-8.6v-5.6h8.6V152.3z M61.9,152h8v-4.9h-8V152z" class="st1" transform="matrix(3.3767311573028564, 0, 0, 3.3767311573028564, -3.2483644485473633, 1.6533756256103516)" style="fill:#fff"/></g></g><g><path d="M 49.599998 146.899994 H 57.899999 V 152.099994 H 49.599998 V 146.899994 Z" class="st18" transform="matrix(3.3767311573028564, 0, 0, 3.3767311573028564, -3.2483644485473633, 1.6533756256103516)" style="fill:#32493c"/></g><g><g><path d="M58,152.3h-8.6v-5.6H58V152.3z M49.8,152h8v-4.9h-8V152z" class="st1" transform="matrix(3.3767311573028564, 0, 0, 3.3767311573028564, -3.2483644485473633, 1.6533756256103516)" style="fill:#fff"/></g></g><g><g><path d="M 48.900001525878906 143.8000030517578 L 59.79999923706055 135.39999389648438 L 70.69999694824219 143.8000030517578 L 73.9000015258789 143.8000030517578 L 59.79999923706055 132.39999389648438 L 45.70000076293945 143.8000030517578 Z" class="st18" transform="matrix(3.3767311573028564, 0, 0, 3.3767311573028564, -3.2483644485473633, 1.6533756256103516)" style="fill:#32493c"/></g></g><g><path d="M 70.599998 143.800003 H 73.899998 V 145.100003 H 70.599998 V 143.800003 Z" class="st18" transform="matrix(3.3767311573028564, 0, 0, 3.3767311573028564, -3.2483644485473633, 1.6533756256103516)" style="fill:#32493c"/></g><g><path d="M 45.700001 143.800003 H 49.000001 V 145.100003 H 45.700001 V 143.800003 Z" class="st18" transform="matrix(3.3767311573028564, 0, 0, 3.3767311573028564, -3.2483644485473633, 1.6533756256103516)" style="fill:#32493c"/></g><path d="M 45.400002 155.899994 H 74.200001 V 157.199994 H 45.400002 V 155.899994 Z" class="st18" transform="matrix(3.3767311573028564, 0, 0, 3.3767311573028564, -3.2483644485473633, 1.6533756256103516)" style="fill:#32493c"/><path d="M 74.199997 157.199997 L 43.599998 169.300003 L 39.099998 159.5 L 45.400002 157.199997" class="st5" transform="matrix(3.3767311573028564, 0, 0, 3.3767311573028564, -3.2483644485473633, 1.6533756256103516)" style="fill:#87b4de"/><path d="M 38 136.10000610351562 L 29.600000381469727 172 L 45.900001525878906 172 Z" class="st8" transform="matrix(3.3767311573028564, 0, 0, 3.3767311573028564, -3.2483644485473633, 1.6533756256103516)" style="fill:#f0f6ff"/></svg>