<?xml version="1.0" encoding="utf-8"?>
<svg id="master-artboard" viewBox="0 0 1400 980" version="1.1" xmlns="http://www.w3.org/2000/svg" x="0px" y="0px" style="enable-background:new 0 0 1400 980;" width="1400px" height="980px">

<path d="M 0 0 L 0 749.2000122070312 L 0 752.7999877929688 L 0 805.5999755859375 L 0 899.2000122070312 L 0 980 L 1400 980 L 1400 899.2000122070312 L 1400 805.5999755859375 L 1400 752.7999877929688 L 1400 749.2000122070312 L 1400 0 Z" class="st0" style="fill: rgb(196, 233, 251);" transform="matrix(1, 0, 0, 1, 2.842170943040401e-14, 7.105427357601002e-15)"/>
<path class="st1" d="M0.1,605.8h650.8c0,0-294.9-336.3-357.7-333.6C247.6,274,85.5,449.1,0.1,544.8V605.8z" style="fill: rgb(194, 106, 31);" transform="matrix(1, 0, 0, 1, 2.842170943040401e-14, 7.105427357601002e-15)"/><path class="st2" d="M231.1,318.9c4-5,12-9,15-4c3,4,4,9,7,10c18,8,33-6,48-16c2-1,5-1,6,0c11,18,27,31,48,26&#10;&#9;&#9;c8-2.5,14.1-7.2,19.7-12.5c-36.1-30.7-65.9-50.9-81.5-50.3c-16,0.7-46.5,22.8-83,55.3C217.8,328,225.3,325.4,231.1,318.9z" style="fill: rgb(239, 249, 254);" transform="matrix(1, 0, 0, 1, 2.842170943040401e-14, 7.105427357601002e-15)"/><path class="st1" d="M569.5,565.5c0,0,284-331,346.8-333.6c62.8-2.7,357.8,333.6,357.8,333.6H569.5z" style="fill: rgb(194, 106, 31);" transform="matrix(1, 0, 0, 1, 2.842170943040401e-14, 7.105427357601002e-15)"/><path class="st2" d="M850,291.9c10-4,16-22,27-17c7,2,7,16,16,18c17,4,24-17,36-23c16-7,18,17,28,22c12.2,4.9,26.3-3.4,35-14.8&#10;&#9;&#9;c-33.5-27.9-61-45.9-75.7-45.3c-16.3,0.7-47.3,23.4-84.4,56.6C837.4,292.2,843.7,294.2,850,291.9z" style="fill: rgb(239, 249, 254);" transform="matrix(1, 0, 0, 1, 2.842170943040401e-14, 7.105427357601002e-15)"/><path class="st3" d="M1399.8,456.4c-61.6-59.3-118.4-106.7-142.2-105.7c-62.8,2.7-346.8,333.6-346.8,333.6h489V456.4z" style="fill: rgb(225, 121, 0);" transform="matrix(1, 0, 0, 1, 2.842170943040401e-14, 7.105427357601002e-15)"/><path class="st4" d="M1208,390.9c11-5,12,13,21,15c3,1,7,3,11-1c12-9,23-27,34-19c19.1,14.9,39.6,18.8,55.7,7.2&#10;&#9;&#9;c-31.9-26.3-57.9-43-72.2-42.4c-16.3,0.7-47.5,23.5-84.7,56.8c2.2,1.6,4.6,2.7,7.2,3.4C1195,413.9,1198,394.9,1208,390.9z" style="fill: rgb(255, 255, 255);" transform="matrix(1, 0, 0, 1, 2.842170943040401e-14, 7.105427357601002e-15)"/><path class="st3" d="M211.4,638.4c0,0,382.3-441.8,466.1-445.4c83.9-3.6,477.6,445.4,477.6,445.4H211.4z" style="fill: rgb(225, 121, 0);" transform="matrix(1, 0, 0, 1, 2.842170943040401e-14, 7.105427357601002e-15)"/><path class="st4" d="M595,261.9c2-1,6,0,9,2c17,16,33,45,60,34c15-6,27-19,38-33c3-4,9-6,14-4c17,8,23,32,43,34&#10;&#9;&#9;c16.9,1.5,30.6-9.5,41.4-22.6C746,224.5,700.3,192,677.5,193c-24.9,1.1-75.9,40.6-135.5,95.8c0.3,0.1,0.7,0.1,1,0.2&#10;&#9;&#9;C565,291.9,577,269.9,595,261.9z" style="fill: rgb(255, 255, 255);" transform="matrix(1, 0, 0, 1, 2.842170943040401e-14, 7.105427357601002e-15)"/>
<g transform="matrix(1, 0, 0, 1, 2.842170943040401e-14, 7.105427357601002e-15)">
		<path class="st5" d="M607.7,244.4c0.3-1.5,0.5-3,0.5-4.6c0-11.7-9-21.1-20.2-21.1h-25.4c-4.3-13.9-16.7-24-31.5-24h-48.2&#10;&#9;&#9;&#9;c-14.7,0-27.2,10.1-31.5,24h-7.1c-11.2,0-20.2,9.4-20.2,21.1c0,1.7,0.2,3.3,0.6,4.9c-11.7,2.6-20.5,13.5-20.5,26.6&#10;&#9;&#9;&#9;c0,15,11.7,27.2,26.1,27.2h173.9c14.4,0,26.1-12.2,26.1-27.2C630.2,257.5,620.4,246.2,607.7,244.4z" style="fill: rgb(121, 199, 203);"/>
	</g><path class="st6" d="M876.1,130.5h-17.7c0.8-1.9,1.2-4,1.2-6.2c0-9.3-7.5-16.9-16.9-16.9h-9.5c1.1-2.5,1.7-5.3,1.7-8.2&#10;&#9;&#9;c0-11.4-9.2-20.6-20.6-20.6h-99.5c-11.4,0-20.6,9.2-20.6,20.6c0,2.9,0.6,5.7,1.7,8.2h-27.6c-9.3,0-16.9,7.5-16.9,16.9&#10;&#9;&#9;c0,2.2,0.5,4.3,1.2,6.2h-14.4c-10.4,0-18.9,8.5-18.9,18.9c0,10.5,8.5,18.9,18.9,18.9h237.8c10.5,0,18.9-8.5,18.9-18.9&#10;&#9;&#9;C895.1,139,886.6,130.5,876.1,130.5z" style="fill: rgb(222, 240, 246);" transform="matrix(1, 0, 0, 1, 2.842170943040401e-14, 7.105427357601002e-15)"/><path class="st7" d="M126,120.3c-0.5-2.1-0.7-4.3-0.7-6.6c0-16.7,13-30.3,29-30.3h36.6c6.1-20,24.1-34.5,45.2-34.5h69.2&#10;&#9;&#9;&#9;c21.2,0,39.1,14.5,45.2,34.5h10.2c16,0,29,13.6,29,30.3c0,2.4-0.3,4.8-0.8,7.1c16.9,3.8,29.5,19.5,29.5,38.2&#10;&#9;&#9;&#9;c0,21.6-16.8,39.1-37.4,39.1h-250c-20.7,0-37.5-17.5-37.5-39.1C93.7,139.2,107.8,122.9,126,120.3z" style="fill: rgb(155, 211, 215);" transform="matrix(1, 0, 0, 1, 5.684341886080802e-14, 1.4210854715202004e-14)"/><path class="st6" d="M71.2,297.4h12.5c-0.5-1.4-0.9-2.8-0.9-4.4c0-6.6,5.4-12,12-12h6.8c-0.8-1.8-1.2-3.8-1.2-5.8&#10;&#9;&#9;c0-8.1,6.5-14.6,14.6-14.6h70.6c8.1,0,14.6,6.5,14.6,14.6c0,2.1-0.4,4-1.2,5.8h19.6c6.6,0,12,5.3,12,12c0,1.5-0.3,3-0.9,4.4h10.2&#10;&#9;&#9;c7.4,0,13.4,6,13.4,13.4c0,7.4-6,13.4-13.4,13.4H71.2c-7.4,0-13.4-6-13.4-13.4C57.8,303.4,63.8,297.4,71.2,297.4z" style="fill: rgb(222, 240, 246);" transform="matrix(1, 0, 0, 1, 2.842170943040401e-14, 7.105427357601002e-15)"/><path class="st7" d="M1330,105.6c0.4-1.8,0.6-3.7,0.6-5.6c0-14.3-11.1-25.8-24.7-25.8h-31.1c-5.2-17-20.5-29.3-38.5-29.3h-59&#10;&#9;&#9;&#9;c-18,0-33.3,12.3-38.5,29.3h-8.7c-13.6,0-24.7,11.6-24.7,25.8c0,2.1,0.3,4.1,0.7,6c-14.4,3.2-25.1,16.6-25.1,32.5&#10;&#9;&#9;&#9;c0,18.4,14.3,33.3,31.9,33.3h212.8c17.6,0,31.9-14.9,31.9-33.3C1357.6,121.7,1345.6,107.8,1330,105.6z" style="fill: rgb(155, 211, 215);" transform="matrix(1, 0, 0, 1, 5.684341886080802e-14, 1.4210854715202004e-14)"/><path class="st6" d="M1161.6,283.9h-10.8c0.5-1.2,0.7-2.4,0.7-3.8c0-5.7-4.6-10.3-10.3-10.3h-5.8c0.7-1.5,1.1-3.2,1.1-5&#10;&#9;&#9;c0-6.9-5.6-12.6-12.6-12.6H1063c-6.9,0-12.6,5.6-12.6,12.6c0,1.8,0.4,3.5,1,5h-16.9c-5.7,0-10.3,4.6-10.3,10.3&#10;&#9;&#9;c0,1.3,0.3,2.6,0.7,3.8h-8.8c-6.4,0-11.6,5.2-11.6,11.6c0,6.4,5.2,11.6,11.6,11.6h145.4c6.4,0,11.6-5.2,11.6-11.6&#10;&#9;&#9;C1173.2,289.1,1168,283.9,1161.6,283.9z" style="fill: rgb(222, 240, 246);" transform="matrix(1, 0, 0, 1, 2.842170943040401e-14, 7.105427357601002e-15)"/>
<path class="st8" d="M1400,494.3c0,0-765,44.5-947.6,217.6c0,0,723.8,78.7,947.6,15.7V494.3z" style="fill: rgb(255, 193, 82);" transform="matrix(1, 0, 0, 1, 2.842170943040401e-14, 7.105427357601002e-15)"/><path class="st9" d="M0.3,860.9L0,579.5c0,0,332.2-59,714.4,64s685.6,27.4,685.6,27.4l0,176.1L0.3,860.9z" style="fill: rgb(255, 172, 6);" transform="matrix(1, 0, 0, 1, 2.842170943040401e-14, 7.105427357601002e-15)"/><path d="M 0 821.7000122070312 L 1400 821.7000122070312 L 1400 900 L 0 900 Z" class="st8" style="fill: rgb(255, 193, 82);" transform="matrix(1, 0, 0, 1, 2.842170943040401e-14, 7.105427357601002e-15)"/><path d="M 0 872.700012 H 1400 V 980.000015 H 0 V 872.700012 Z" class="st10" style="fill: rgb(176, 129, 61);" transform="matrix(1, 0, 0, 1, 2.842170943040401e-14, 7.105427357601002e-15)"/>
<g transform="matrix(1, 0, 0, 1, 2.842170943040401e-14, 7.105427357601002e-15)">
		<path d="M 203.199997 495.299988 H 237.699997 V 821.699982 H 203.199997 V 495.299988 Z" class="st11" style="fill: rgb(130, 94, 66);"/>
		<path d="M 225 631.4000244140625 L 217.5 644.4000244140625 L 128.10000610351562 598.2999877929688 L 135.6999969482422 585.2999877929688 Z" class="st11" style="fill: rgb(130, 94, 66);"/>
		
			<path d="M 356.5 438.899994 A 142.699997 142.699997 0 0 1 213.800003 581.599991 A 142.699997 142.699997 0 0 1 71.100006 438.899994 A 142.699997 142.699997 0 0 1 213.800003 296.199997 A 142.699997 142.699997 0 0 1 356.5 438.899994 Z" transform="matrix(1 -3.823591e-003 3.823591e-003 1 -1.6767 0.8206)" class="st8" style="fill: rgb(255, 193, 82);"/>
		<path d="M 431.399994 502.299988 H 440.999994 V 647.499985 H 431.399994 V 502.299988 Z" class="st11" style="fill: rgb(130, 94, 66);"/>
		
			<path d="M 499.700012 477.200012 A 63.5 63.5 0 0 1 436.200012 540.700012 A 63.5 63.5 0 0 1 372.700012 477.200012 A 63.5 63.5 0 0 1 436.200012 413.700012 A 63.5 63.5 0 0 1 499.700012 477.200012 Z" transform="matrix(1 -3.823591e-003 3.823591e-003 1 -1.8214 1.6714)" class="st8" style="fill: rgb(255, 193, 82);"/>
		<path d="M 685.400024 533.299988 H 690.800025 V 614.099991 H 685.400024 V 533.299988 Z" class="st11" style="fill: rgb(130, 94, 66);"/>
		
			<path d="M 723.399975 538.599976 A 35.299999 35.299999 0 0 1 688.099976 573.899975 A 35.299999 35.299999 0 0 1 652.799976 538.599976 A 35.299999 35.299999 0 0 1 688.099976 503.299976 A 35.299999 35.299999 0 0 1 723.399975 538.599976 Z" transform="matrix(1 -3.823591e-003 3.823591e-003 1 -2.0542 2.6348)" class="st8" style="fill: rgb(255, 193, 82);"/>
		<path d="M 533.099976 537.299988 H 538.599976 V 619.899986 H 533.099976 V 537.299988 Z" class="st11" style="fill: rgb(130, 94, 66);"/>
		<path class="st8" d="M499.7,544.9c0.1,19.9,16.3,36,36.2,36c19.9-0.1,36-16.3,36-36.2c-0.1-19.9-16.3-70.6-36.2-70.6&#10;&#9;&#9;&#9;S499.6,525,499.7,544.9z" style="fill: rgb(255, 193, 82);"/>
		<path d="M 1216.5 454 H 1222 V 536.599998 H 1216.5 V 454 Z" class="st11" style="fill: rgb(130, 94, 66);"/>
		<path class="st8" d="M1183.2,461.6c0.1,19.9,16.3,36,36.2,36c19.9-0.1,36-16.3,36-36.2c-0.1-19.9-16.3-70.6-36.2-70.6&#10;&#9;&#9;&#9;C1199.2,390.9,1183.1,441.7,1183.2,461.6z" style="fill: rgb(255, 193, 82);"/>
		<path d="M 1063.699951 654 H 1075.699951 V 834.100006 H 1063.699951 V 654 Z" class="st11" style="fill: rgb(130, 94, 66);"/>
		<path class="st12" d="M990.9,670.7c0.2,43.5,35.6,78.6,79,78.4c43.5-0.2,78.6-35.6,78.4-79c-0.2-43.5-35.6-154.1-79-153.9&#10;&#9;&#9;&#9;C1025.9,516.3,990.7,627.2,990.9,670.7z" style="fill: rgb(249, 155, 28);"/>
		<path d="M 1392.099976 667.599976 H 1399.999976 V 847.699982 H 1392.099976 V 667.599976 Z" class="st11" style="fill: rgb(130, 94, 66);"/>
		<path class="st12" d="M1400,529.8c-0.7-0.1-1.5-0.1-2.2-0.1c-43.3,0.2-78.3,111-78.2,154.5s35.4,78.6,78.8,78.4c0.5,0,1.1,0,1.6,0&#10;&#9;&#9;&#9;V529.8z" style="fill: rgb(249, 155, 28);"/>
		<path d="M 1242.400024 664.700012 H 1251.300024 V 831.000015 H 1242.400024 V 664.700012 Z" class="st11" style="fill: rgb(130, 94, 66);"/>
		<path class="st12" d="M1174.2,600.5c0.2,40.1,32.8,72.5,72.9,72.3c40.1-0.2,72.5-32.8,72.3-72.9c-0.2-40.1-32.8-142-72.9-141.9&#10;&#9;&#9;&#9;S1174.1,560.4,1174.2,600.5z" style="fill: rgb(249, 155, 28);"/>
		<path d="M 597.400024 569.400024 H 600.500024 V 616.200024 H 597.400024 V 569.400024 Z" class="st11" style="fill: rgb(130, 94, 66);"/>
		<path class="st8" d="M578.5,573.7c0,11.3,9.2,20.4,20.5,20.4c11.3,0,20.4-9.2,20.4-20.5c0-11.3-9.2-40-20.5-40&#10;&#9;&#9;&#9;C587.6,533.6,578.5,562.4,578.5,573.7z" style="fill: rgb(255, 193, 82);"/>
		<path d="M 925.200012 464.299988 H 932.900012 V 580.399986 H 925.200012 V 464.299988 Z" class="st11" style="fill: rgb(130, 94, 66);"/>
		
			<path d="M 979.899975 471.899994 A 50.799999 50.799999 0 0 1 929.099976 522.699993 A 50.799999 50.799999 0 0 1 878.299976 471.899994 A 50.799999 50.799999 0 0 1 929.099976 421.099995 A 50.799999 50.799999 0 0 1 979.899975 471.899994 Z" transform="matrix(1 -3.823591e-003 3.823591e-003 1 -1.7975 3.5559)" class="st8" style="fill: rgb(255, 193, 82);"/>
		<path d="M 798.900024 516.200012 H 803.400024 V 583.500015 H 798.900024 V 516.200012 Z" class="st11" style="fill: rgb(130, 94, 66);"/>
		<path class="st8" d="M771.7,522.4c0.1,16.2,13.3,29.4,29.5,29.3c16.2-0.1,29.4-13.3,29.3-29.5c-0.1-16.2-13.3-57.6-29.5-57.5&#10;&#9;&#9;&#9;C784.8,464.8,771.6,506.2,771.7,522.4z" style="fill: rgb(255, 193, 82);"/>
		<path d="M 1110.599976 463.700012 H 1115.899976 V 544.100014 H 1110.599976 V 463.700012 Z" class="st11" style="fill: rgb(130, 94, 66);"/>
		
			<path d="M 1148.399952 469 A 35.200001 35.200001 0 0 1 1113.199951 504.200001 A 35.200001 35.200001 0 0 1 1077.99995 469 A 35.200001 35.200001 0 0 1 1113.199951 433.799999 A 35.200001 35.200001 0 0 1 1148.399952 469 Z" transform="matrix(1 -3.823591e-003 3.823591e-003 1 -1.785 4.26)" class="st8" style="fill: rgb(255, 193, 82);"/>
		<path d="M 1023.099976 499.600006 H 1026.199975 V 546.200005 H 1023.099976 V 499.600006 Z" class="st11" style="fill: rgb(130, 94, 66);"/>
		<path class="st8" d="M1004.3,503.9c0,11.2,9.2,20.3,20.4,20.3c11.2,0,20.3-9.2,20.3-20.4c0-11.2-9.2-39.9-20.4-39.8&#10;&#9;&#9;&#9;C1013.3,464,1004.2,492.7,1004.3,503.9z" style="fill: rgb(255, 193, 82);"/>
		
			<path d="M 181.200001 581.599976 A 61.700001 61.700001 0 0 1 119.5 643.299976 A 61.700001 61.700001 0 0 1 57.799999 581.599976 A 61.700001 61.700001 0 0 1 119.5 519.899975 A 61.700001 61.700001 0 0 1 181.200001 581.599976 Z" transform="matrix(1 -3.823333e-003 3.823333e-003 1 -2.2229 0.4611)" class="st12" style="fill: rgb(249, 155, 28);"/>
	</g>
<g transform="matrix(1, 0, 0, 1, 2.842170943040401e-14, 7.105427357601002e-15)">
		<path d="M 241.5 684.9000244140625 L 254.6999969482422 675.0999755859375 L 267.8999938964844 684.9000244140625 L 267.8999938964844 821.7000122070312 L 241.5 821.7000122070312 Z" class="st13" style="fill: rgb(253, 250, 226);"/>
		<path d="M 296.6000061035156 684.9000244140625 L 309.79998779296875 675.0999755859375 L 323 684.9000244140625 L 323 821.7000122070312 L 296.6000061035156 821.7000122070312 Z" class="st13" style="fill: rgb(253, 250, 226);"/>
		<path d="M 351.70001220703125 684.9000244140625 L 364.8999938964844 675.0999755859375 L 378.20001220703125 684.9000244140625 L 378.20001220703125 821.7000122070312 L 351.70001220703125 821.7000122070312 Z" class="st13" style="fill: rgb(253, 250, 226);"/>
		<path d="M 406.79998779296875 684.9000244140625 L 420 675.0999755859375 L 433.29998779296875 684.9000244140625 L 433.29998779296875 821.7000122070312 L 406.79998779296875 821.7000122070312 Z" class="st13" style="fill: rgb(253, 250, 226);"/>
		<path d="M 461.8999938964844 684.9000244140625 L 475.20001220703125 675.0999755859375 L 488.3999938964844 684.9000244140625 L 488.3999938964844 821.7000122070312 L 461.8999938964844 821.7000122070312 Z" class="st13" style="fill: rgb(253, 250, 226);"/>
		<path d="M 185.3000030517578 684.9000244140625 L 198.5 675.0999755859375 L 211.6999969482422 684.9000244140625 L 211.6999969482422 821.7000122070312 L 185.3000030517578 821.7000122070312 Z" class="st13" style="fill: rgb(253, 250, 226);"/>
		<path d="M 128.10000610351562 684.9000244140625 L 141.3000030517578 675.0999755859375 L 154.5 684.9000244140625 L 154.5 821.7000122070312 L 128.10000610351562 821.7000122070312 Z" class="st13" style="fill: rgb(253, 250, 226);"/>
		<path d="M 70.9000015258789 684.9000244140625 L 84.0999984741211 675.0999755859375 L 97.30000305175781 684.9000244140625 L 97.30000305175781 821.7000122070312 L 70.9000015258789 821.7000122070312 Z" class="st13" style="fill: rgb(253, 250, 226);"/>
		<path d="M 12.699999809265137 684.9000244140625 L 25.899999618530273 675.0999755859375 L 39.099998474121094 684.9000244140625 L 39.099998474121094 821.7000122070312 L 12.699999809265137 821.7000122070312 Z" class="st13" style="fill: rgb(253, 250, 226);"/>
		<path d="M -0.2 712.599976 H 486.199994 V 721.299975 H -0.2 V 712.599976 Z" class="st13" style="fill: rgb(253, 250, 226);"/>
		<path d="M -0.2 770.299988 H 486.199994 V 778.999988 H -0.2 V 770.299988 Z" class="st13" style="fill: rgb(253, 250, 226);"/>
	</g><path d="M 1158.300048828125 684.9000244140625 L 1145.0999755859375 675.0999755859375 L 1131.9000244140625 684.9000244140625 L 1131.9000244140625 821.7000122070312 L 1158.300048828125 821.7000122070312 Z" class="st13" style="fill: rgb(253, 250, 226);" transform="matrix(1, 0, 0, 1, 5.684341886080802e-14, 1.4210854715202004e-14)"/><path d="M 1103.199951171875 684.9000244140625 L 1090 675.0999755859375 L 1076.800048828125 684.9000244140625 L 1076.800048828125 821.7000122070312 L 1103.199951171875 821.7000122070312 Z" class="st13" style="fill: rgb(253, 250, 226);" transform="matrix(1, 0, 0, 1, 5.684341886080802e-14, 1.4210854715202004e-14)"/><path d="M 1048.0999755859375 684.9000244140625 L 1034.9000244140625 675.0999755859375 L 1021.7000122070312 684.9000244140625 L 1021.7000122070312 821.7000122070312 L 1048.0999755859375 821.7000122070312 Z" class="st13" style="fill: rgb(253, 250, 226);" transform="matrix(1, 0, 0, 1, 5.684341886080802e-14, 1.4210854715202004e-14)"/><path d="M 993 684.9000244140625 L 979.7999877929688 675.0999755859375 L 966.5 684.9000244140625 L 966.5 821.7000122070312 L 993 821.7000122070312 Z" class="st13" style="fill: rgb(253, 250, 226);" transform="matrix(1, 0, 0, 1, 5.684341886080802e-14, 1.4210854715202004e-14)"/><path d="M 937.9000244140625 684.9000244140625 L 924.7000122070312 675.0999755859375 L 911.4000244140625 684.9000244140625 L 911.4000244140625 821.7000122070312 L 937.9000244140625 821.7000122070312 Z" class="st13" style="fill: rgb(253, 250, 226);" transform="matrix(1, 0, 0, 1, 5.684341886080802e-14, 1.4210854715202004e-14)"/><path d="M 1214.5999755859375 684.9000244140625 L 1201.300048828125 675.0999755859375 L 1188.0999755859375 684.9000244140625 L 1188.0999755859375 821.7000122070312 L 1214.5999755859375 821.7000122070312 Z" class="st13" style="fill: rgb(253, 250, 226);" transform="matrix(1, 0, 0, 1, 5.684341886080802e-14, 1.4210854715202004e-14)"/><path d="M 1271.800048828125 684.9000244140625 L 1258.5 675.0999755859375 L 1245.300048828125 684.9000244140625 L 1245.300048828125 821.7000122070312 L 1271.800048828125 821.7000122070312 Z" class="st13" style="fill: rgb(253, 250, 226);" transform="matrix(1, 0, 0, 1, 5.684341886080802e-14, 1.4210854715202004e-14)"/><path d="M 1329 684.9000244140625 L 1315.699951171875 675.0999755859375 L 1302.5 684.9000244140625 L 1302.5 821.7000122070312 L 1329 821.7000122070312 Z" class="st13" style="fill: rgb(253, 250, 226);" transform="matrix(1, 0, 0, 1, 5.684341886080802e-14, 1.4210854715202004e-14)"/><path d="M 1387.0999755859375 684.9000244140625 L 1373.9000244140625 675.0999755859375 L 1360.699951171875 684.9000244140625 L 1360.699951171875 821.7000122070312 L 1387.0999755859375 821.7000122070312 Z" class="st13" style="fill: rgb(253, 250, 226);" transform="matrix(1, 0, 0, 1, 5.684341886080802e-14, 1.4210854715202004e-14)"/><path d="M 913.599976 712.599976 H 1399.999969 V 721.299975 H 913.599976 V 712.599976 Z" class="st13" style="fill: rgb(253, 250, 226);" transform="matrix(1, 0, 0, 1, 5.684341886080802e-14, 1.4210854715202004e-14)"/><path d="M 913.599976 770.299988 H 1399.999969 V 778.999988 H 913.599976 V 770.299988 Z" class="st13" style="fill: rgb(253, 250, 226);" transform="matrix(1, 0, 0, 1, 5.684341886080802e-14, 1.4210854715202004e-14)"/>
<g transform="matrix(1, 0, 0, 1, 2.842170943040401e-14, 7.105427357601002e-15)">
		<path d="M 401.70001220703125 722.2000122070312 L 492.70001220703125 722.2000122070312 L 484.79998779296875 834.0999755859375 L 409.6000061035156 834.0999755859375 Z" class="st14" style="fill: rgb(197, 85, 39);"/>
		<path d="M 397 719.200012 H 497.300003 V 733.500012 H 397 V 719.200012 Z" class="st15" style="fill: rgb(163, 70, 29);"/>
	</g>
<g transform="matrix(1, 0, 0, 1, 2.842170943040401e-14, 7.105427357601002e-15)">
		<path d="M 535.099976 621.900024 H 559.599976 V 755.600021 H 535.099976 V 621.900024 Z" class="st16" style="fill: rgb(127, 72, 26);"/>
		<path d="M 846.900024 621.900024 H 871.400024 V 755.600021 H 846.900024 V 621.900024 Z" class="st16" style="fill: rgb(127, 72, 26);"/>
		<path d="M 532.299988 744.099976 H 871.399994 V 771.799976 H 532.299988 V 744.099976 Z" class="st17" style="fill: rgb(168, 97, 43);"/>
		<path d="M 544.599976 626.799988 H 859.199982 V 660.299988 H 544.599976 V 626.799988 Z" class="st18" style="fill: rgb(194, 112, 52);"/>
		<path d="M 544.599976 664.700012 H 859.199982 V 698.200012 H 544.599976 V 664.700012 Z" class="st18" style="fill: rgb(194, 112, 52);"/>
		<path d="M 544.599976 702.700012 H 859.199982 V 736.200012 H 544.599976 V 702.700012 Z" class="st18" style="fill: rgb(194, 112, 52);"/>
		<path d="M 510.700012 704.700012 H 535.200012 V 838.400009 H 510.700012 V 704.700012 Z" class="st18" style="fill: rgb(194, 112, 52);"/>
		<path d="M 871.400024 704.700012 H 895.900024 V 838.400009 H 871.400024 V 704.700012 Z" class="st18" style="fill: rgb(194, 112, 52);"/>
	</g>
<g transform="matrix(1, 0, 0, 1, 2.842170943040401e-14, 7.105427357601002e-15)">
		<g>
			<path class="st4" d="M929.2,450.1l14.7,60.1l26.2-1.5l13-59.2C972.2,449.7,944.9,450.3,929.2,450.1z" style="fill: rgb(255, 255, 255);"/>
			<path d="M 953.200012 452.799988 H 959.000012 V 506.799988 H 953.200012 V 452.799988 Z" class="st19" style="fill: rgb(97, 76, 69);"/>
			<path d="M 947.700012 510.200012 H 964.600012 V 830.900024 H 947.700012 V 510.200012 Z" class="st20" style="fill: rgb(114, 102, 89);"/>
			<path d="M 942.400024 785.400024 H 970.000025 V 832.600025 H 942.400024 V 785.400024 Z" class="st19" style="fill: rgb(97, 76, 69);"/>
			<path d="M 936.5 506.799988 H 975.900002 V 513.699988 H 936.5 V 506.799988 Z" class="st19" style="fill: rgb(97, 76, 69);"/>
			<path d="M 944.799988 535.099976 H 967.599987 V 541.999976 H 944.799988 V 535.099976 Z" class="st19" style="fill: rgb(97, 76, 69);"/>
			<path d="M 942.900024 517.5 H 969.400024 V 530.6 H 942.900024 V 517.5 Z" class="st19" style="fill: rgb(97, 76, 69);"/>
			<path d="M 921.900024 444.700012 H 990.300026 V 452.900012 H 921.900024 V 444.700012 Z" class="st19" style="fill: rgb(97, 76, 69);"/>
			<path d="M 940.5999755859375 506.79998779296875 L 929.2000122070312 452.8999938964844 L 932.7000122070312 452.8999938964844 L 944.7999877929688 506.79998779296875 Z" class="st19" style="fill: rgb(97, 76, 69);"/>
			<path d="M 971.7000122070312 506.79998779296875 L 983.0999755859375 452.8999938964844 L 979.5999755859375 452.8999938964844 L 967.5 506.79998779296875 Z" class="st19" style="fill: rgb(97, 76, 69);"/>
			<path d="M 925.9000244140625 444.70001220703125 L 956.2000122070312 413.20001220703125 L 986.4000244140625 444.70001220703125 Z" class="st19" style="fill: rgb(97, 76, 69);"/>
			<path d="M 951.5 398.600006 H 960.9 V 418.400005 H 951.5 V 398.600006 Z" class="st19" style="fill: rgb(97, 76, 69);"/>
			<path d="M 966.400012 401.700012 A 10.2 10.2 0 0 1 956.200012 411.900012 A 10.2 10.2 0 0 1 946.000012 401.700012 A 10.2 10.2 0 0 1 956.200012 391.500012 A 10.2 10.2 0 0 1 966.400012 401.700012 Z" class="st21" style="fill: rgb(112, 89, 80);"/>
		</g>
	</g>
</svg>