<?xml version="1.0" encoding="utf-8"?>
<svg id="master-artboard" viewBox="0 0 1400 980" version="1.1" xmlns="http://www.w3.org/2000/svg" x="0px" y="0px" style="enable-background:new 0 0 1400 980;" width="1400px" height="980px">

<path d="M 0 0 L 0 754.7000122070312 L 0 805.5999755859375 L 0 980 L 1400 980 L 1400 805.5999755859375 L 1400 749.2000122070312 L 1400 0 Z" class="st0" style="fill: rgb(252, 144, 22);"/>
<path class="st1" d="M788.7,51.4c45.5,0,82.3,36.9,82.3,82.3c0,45.5-36.9,82.3-82.3,82.3c-45.5,0-82.3-36.9-82.3-82.3&#10;&#9;C706.3,88.3,743.2,51.4,788.7,51.4L788.7,51.4z" style="fill-rule: evenodd; clip-rule: evenodd; fill: rgb(246, 217, 1);"/>
<path class="st2" d="M1400,687.6H37.7V530c-7.7-10.1-12.2-22.6-12.2-36.2c0-33.5,27.7-60.6,61.8-60.6c10.7,0,20.8,2.7,29.5,7.4&#10;&#9;c8.8-9.8,20.7-16.8,34.3-19.5c-0.5-3.2-0.7-6.5-0.7-9.8c0-39.4,32.5-71.3,72.6-71.3c8.1,0,15.9,1.3,23.2,3.7&#10;&#9;c13.2-13.8,32-22.4,52.8-22.4c15.8,0,30.5,5,42.4,13.4c5.7-2.9,11.9-5.2,18.4-6.5c-0.3-2.5-0.4-5-0.4-7.6&#10;&#9;c0-39.4,32.5-71.3,72.6-71.3c2.3,0,4.5,0.1,6.7,0.3c10.1-34.1,42.2-58.9,80.1-58.9c31.2,0,58.3,16.8,72.7,41.7&#10;&#9;c7.8-2.8,16.2-4.4,25-4.4c20.5,0,39,8.3,52.2,21.7c12-8.6,26.8-13.7,42.8-13.7c4.3,0,8.4,0.4,12.5,1.1c15-21.6,40.3-35.7,68.9-35.7&#10;&#9;c32.7,0,61.1,18.5,74.7,45.4c1.3-0.1,2.6-0.1,4-0.1c35.7,0,65.5,25.4,71.5,58.8c26.1,10.8,44.5,36.1,44.5,65.7&#10;&#9;c0,14.7-4.5,28.3-12.3,39.7c21.7,7.8,38.6,25.6,44.9,47.6c9.1-5.1,19.4-8.3,30.3-9.1c-2.9-7.7-4.5-16.1-4.5-24.9&#10;&#9;c0-39.4,32.5-71.3,72.6-71.3c1.1,0,2.3,0,3.4,0.1c1-57.6,48.9-104,107.9-104c14.4,0,28.2,2.8,40.8,7.8c12.9-11.5,30-18.5,48.8-18.5&#10;&#9;c26,0,48.9,13.5,61.7,33.7c6-2.2,12.4-3.6,19-4.1V687.6L1400,687.6z" style="opacity: 0.2; fill-rule: evenodd; clip-rule: evenodd; fill: rgb(255, 255, 255);"/>
<path class="st2" d="M1374.5,180.5c-3.6-23.3-23.8-41.2-48.1-41.2c-1.1,0-2.1,0-3.1,0.1c-4.2-28.5-28.8-50.3-58.4-50.3&#10;&#9;c-19,0-35.9,9-46.7,22.9c-6.4-3.3-13.7-5.2-21.3-5.3c-7-24.8-29.8-43-56.9-43c-12.4,0-24,3.8-33.5,10.4&#10;&#9;c-8.5-7.3-19.6-11.8-31.7-11.8c-22.9,0-42.1,15.8-47.3,37.2c-6.3-2.9-13.2-4.6-20.6-4.6c-14.7,0-27.8,6.5-36.7,16.7&#10;&#9;c-8.8-12.8-23.5-21.3-40.2-21.3c-16.4,0-30.9,8.1-39.7,20.6c-11.7-13.4-28.9-21.9-48.1-21.9c-33.4,0-60.8,25.8-63.4,58.5&#10;&#9;c-7.8-5.2-17.1-8.3-27.1-8.3c-24.3,0-44.5,17.9-48.1,41.2H701c-5.4-2-11.2-3.2-17.3-3.2c-0.1,0-0.1,0-0.2,0c-9.3,0-16.7,7.7-16.7,17&#10;&#9;v103.4c0,1,0.1,2.1,0.3,3.1c4.5,22.2,24.1,38.9,47.7,38.9c1.1,0,2.1,0,3.1-0.1c4.2,28.5,28.8,50.3,58.4,50.3c19,0,35.9-9,46.7-22.9&#10;&#9;c6.4,3.3,13.7,5.2,21.3,5.3c7,24.8,29.8,43,56.9,43c12.4,0,24-3.8,33.5-10.4c8.5,7.3,19.6,11.8,31.7,11.8&#10;&#9;c22.9,0,42.1-15.8,47.3-37.2c6.3,2.9,13.2,4.6,20.6,4.6c14.7,0,27.8-6.5,36.7-16.7c8.8,12.8,23.5,21.3,40.2,21.3&#10;&#9;c16.4,0,30.9-8.1,39.7-20.6c11.7,13.4,28.9,21.9,48.1,21.9c33.4,0,60.8-25.8,63.4-58.5c7.8,5.2,17.1,8.3,27.1,8.3&#10;&#9;c24.3,0,44.5-17.9,48.1-41.2h2.5c5.4,2,11.2,3.2,17.3,3.2c6.1,0,11.9-1.1,17.3-3.2c0,0,0,0,0,0c13.8,0.2,25.1-10.9,25.1-24.7v-68&#10;&#9;C1400,191.9,1388.6,180.5,1374.5,180.5L1374.5,180.5z" style="opacity: 0.2; fill-rule: evenodd; clip-rule: evenodd; fill: rgb(255, 255, 255);"/>
<path class="st2" d="M19.7,151.2c2.8-18,18.3-31.7,37.1-31.7c0.8,0,1.6,0,2.4,0.1c3.3-22,22.2-38.8,45-38.8c14.7,0,27.7,6.9,36,17.7&#10;&#9;c4.9-2.5,10.5-4,16.4-4.1c5.4-19.1,23-33.1,43.8-33.1c9.6,0,18.5,3,25.8,8c6.6-5.6,15.1-9.1,24.4-9.1c17.7,0,32.5,12.2,36.4,28.6&#10;&#9;c4.8-2.3,10.2-3.5,15.9-3.5c11.3,0,21.4,5,28.3,12.9c6.8-9.9,18.1-16.4,31-16.4c12.7,0,23.8,6.3,30.6,15.9c9-10.4,22.2-16.9,37-16.9&#10;&#9;c25.7,0,46.9,19.9,48.9,45.1c6-4,13.2-6.4,20.9-6.4c18.7,0,34.3,13.8,37.1,31.7h1.9c4.1-1.6,8.6-2.4,13.3-2.4c0,0,0.1,0,0.1,0&#10;&#9;c7.1,0,12.8,5.9,12.8,13.1v79.7c0,0.8-0.1,1.6-0.2,2.4c-3.5,17.1-18.6,30-36.7,30c-0.8,0-1.6,0-2.4-0.1c-3.3,22-22.2,38.8-45,38.8&#10;&#9;c-14.7,0-27.7-6.9-36-17.7c-4.9,2.5-10.5,4-16.4,4.1c-5.4,19.1-23,33.1-43.8,33.1c-9.6,0-18.5-3-25.8-8c-6.6,5.6-15.1,9.1-24.4,9.1&#10;&#9;c-17.7,0-32.5-12.2-36.4-28.6c-4.8,2.3-10.2,3.5-15.9,3.5c-11.3,0-21.4-5-28.3-12.9c-6.8,9.9-18.1,16.4-31,16.4&#10;&#9;c-12.7,0-23.8-6.3-30.6-15.9c-9,10.4-22.2,16.9-37,16.9c-25.7,0-46.9-19.9-48.9-45.1c-6,4-13.2,6.4-20.9,6.4&#10;&#9;c-18.7,0-34.3-13.8-37.1-31.7H46c-4.1,1.6-8.6,2.4-13.3,2.4c-4.7,0-9.2-0.9-13.3-2.4c0,0,0,0,0,0C8.8,242.4,0,233.8,0,223.2v-52.4&#10;&#9;C0,159.9,8.8,151.2,19.7,151.2L19.7,151.2z" style="opacity: 0.2; fill-rule: evenodd; clip-rule: evenodd; fill: rgb(255, 255, 255);"/>
<path class="st3" d="M1400.9,671.9l-328.5-314.7l-10.8,10.4c-12.3,24.9-23.4,50.5-29.6,79.5c-12,55-6,110,14,161&#10;&#9;c9.3,26.3,28,50.5,53.7,63.9h100.2H1400.9z" style="fill-rule: evenodd; clip-rule: evenodd; fill: rgb(72, 96, 108);"/>
<path class="st4" d="M1046,608c-20-51-26-106-14-161c6.2-29,17.3-54.5,29.6-79.5L744,671.9h328.5h27.3&#10;&#9;C1074.1,658.5,1055.4,634.3,1046,608z" style="fill-rule: evenodd; clip-rule: evenodd; fill: rgb(60, 81, 92);"/>
<path d="M 1072.4000244140625 357.20001220703125 L 949.7999877929688 474.70001220703125 L 1024.4000244140625 455.20001220703125 L 1052.4000244140625 502.8999938964844 L 1091.300048828125 434.6000061035156 L 1122.699951171875 456.6000061035156 L 1141.800048828125 423.6000061035156 Z" class="st5" style="fill-rule: evenodd; clip-rule: evenodd; fill: rgb(255, 255, 255);"/>
<path class="st6" d="M557,261c5.2-34.5,15.9-66.6,28.8-97.7L239.5,671.9h392.1h31.1c-8.3-11-15.8-22.7-22.7-34.9&#10;&#9;C574,521,538,395,557,261z" style="fill-rule: evenodd; clip-rule: evenodd; fill: rgb(50, 70, 79);"/>
<path class="st4" d="M1023.7,671.9L631.6,96.1l-45.7,67.2C573,194.4,562.3,226.5,557,261c-19,134,17,260,83,376&#10;&#9;c6.8,12.2,14.4,23.9,22.7,34.9h121.1H1023.7z" style="fill-rule: evenodd; clip-rule: evenodd; fill: rgb(60, 81, 92);"/>
<path class="st3" d="M365.1,671.9h266.4L196.1,254.7L168,281.6C93.3,394.9,78.4,548,143,671.9h53.1H365.1z" style="fill-rule: evenodd; clip-rule: evenodd; fill: rgb(72, 96, 108);"/>
<path class="st4" d="M168,281.6L0,442.5v229.4H143C78.4,548,93.3,394.9,168,281.6z" style="fill-rule: evenodd; clip-rule: evenodd; fill: rgb(60, 81, 92);"/>
<path d="M 288.1000061035156 342.79998779296875 L 196.10000610351562 254.6999969482422 L 33.5 410.5 L 132.39999389648438 384.70001220703125 L 169.60000610351562 447.8999938964844 L 184.89999389648438 421 L 184.89999389648438 421 L 221.1999969482422 357.3999938964844 L 244.3000030517578 373.6000061035156 L 244.3000030517578 373.6000061035156 L 262.70001220703125 386.3999938964844 Z" class="st5" style="fill-rule: evenodd; clip-rule: evenodd; fill: rgb(255, 255, 255);"/>
<path d="M 726.5 236.1999969482422 L 631.5999755859375 96.0999984741211 L 523.7999877929688 254.3000030517578 L 549.7000122070312 283.3999938964844 L 619.2999877929688 213.8000030517578 L 660.5999755859375 240.6999969482422 L 662.0999755859375 238.5 L 691.5 211.39999389648438 Z" class="st5" style="fill-rule: evenodd; clip-rule: evenodd; fill: rgb(255, 255, 255);"/>
<path class="st7" d="M1399.1,608.8c-0.2,0.3-0.4,0.5-0.6,0.8c-1.9-13.2-4-26.5-6.1-39.7c-6.1,10.8-12.1,21.7-18,32.6&#10;&#9;c-3.5-15.5-7.1-31-10.9-46.4c-6.4,10.3-12.8,20.6-19.1,31c-2-8.4-4.1-16.8-6.3-25.3c-8.2,13.5-16.2,27-24.2,40.6&#10;&#9;c-2.3-12.3-4.7-24.6-7.2-36.8c-6,11.9-11.9,23.8-17.7,35.7c-0.9-2.6-1.8-5.2-2.6-7.9c1.4,0.2,2.7,0.4,4.1,0.6&#10;&#9;c-2.6-15.8-5.3-31.6-8.1-47.4c-6.4,14.6-12.8,29.2-19,43.8c1.4,0.2,2.7,0.3,4.1,0.5c-2.7,4.2-5.4,8.5-8.1,12.7c-4.2-15-8.5-30-13-45&#10;&#9;c-5.1,9.4-10.1,18.8-15.1,28.2c-5.3-14.3-10.7-28.6-16.2-42.9c-8.9,9.4-17.6,18.9-26.2,28.5c-6.9-14.2-14-28.3-21.3-42.4&#10;&#9;c-7.7,13.2-15.3,26.3-22.7,39.6c-3.5-10.2-7.2-20.3-10.8-30.5c-6.6,14-13.1,28.1-19.5,42.2c-2-4.6-4.1-9.3-6.1-13.9&#10;&#9;c1.4,0.1,2.8,0.1,4.1,0.2c-4-15.5-8.2-31-12.4-46.5c-5.1,15.1-10,30.2-14.9,45.4c1.4,0,2.8,0.1,4.1,0.1c-1.3,2.4-2.5,4.9-3.8,7.3&#10;&#9;c-4-12.8-8-25.5-12.2-38.2c-4.2,11.7-8.4,23.4-12.4,35.1c-5.8-14.7-11.8-29.4-17.9-44.1c-6,14.4-11.9,28.8-17.6,43.3&#10;&#9;c-4.6-11.2-9.4-22.4-14.2-33.5c-5.8,14.6-11.5,29.3-17,44c-4.2-11.7-8.6-23.4-13-35.1c-3.9,12.7-7.7,25.4-11.5,38.1&#10;&#9;c-1.3-2.4-2.6-4.9-3.8-7.3c1.4,0,2.7-0.1,4.1-0.1c-5.1-15.2-10.3-30.3-15.6-45.5c-3.9,15.4-7.7,30.9-11.5,46.4&#10;&#9;c1.4-0.1,2.7-0.1,4.1-0.2c-2,4.6-3.9,9.2-5.9,13.8c-6.5-14.1-13.2-28.2-20-42.3c-3.5,10.1-6.9,20.2-10.2,30.3&#10;&#9;c-7.4-13.3-15-26.5-22.8-39.7c-5.7,14.5-11.3,29-16.8,43.5c-8.2-13.9-16.5-27.8-25.1-41.7c-5.7,15.3-11.2,30.6-16.6,46&#10;&#9;c-7-13.2-14.2-26.3-21.5-39.4C804,562.1,799.9,577,796,592c-2.7-4.3-5.5-8.5-8.3-12.7c1.4-0.2,2.7-0.3,4.1-0.5&#10;&#9;c-6.5-14.6-13-29.3-19.7-43.8c-2.5,15.7-4.9,31.5-7.2,47.2c1.4-0.2,2.7-0.3,4.1-0.5c-0.8,2.6-1.7,5.2-2.5,7.8&#10;&#9;c-6-11.9-12-23.8-18.2-35.7c-2.2,12.2-4.4,24.4-6.5,36.6c-8.1-13.6-16.3-27.1-24.7-40.6c-2.7,11.8-5.4,23.6-8,35.4&#10;&#9;c-4.6-7.3-9.2-14.7-13.8-22c-3.4,15.4-6.6,30.7-9.7,46.1c-6-10.9-12.1-21.8-18.3-32.6c-1.8,13.1-3.5,26.3-5.2,39.4&#10;&#9;c-1.6-2.2-3.3-4.4-4.9-6.6c1.3-0.3,2.7-0.5,4-0.8c-7.4-14.2-14.9-28.3-22.6-42.4c-1.4,15.9-2.7,31.7-3.9,47.6c1.3-0.3,2.7-0.5,4-0.8&#10;&#9;c-1.2,4.9-2.4,9.7-3.5,14.6c-8.7-12.9-17.5-25.8-26.4-38.6c-1.8,10.5-3.5,21-5.2,31.6c-9.4-11.9-19-23.8-28.7-35.6&#10;&#9;c-4.3,15.1-8.4,30.2-12.4,45.3c-12.1-14.6-24.4-29-36.9-43.4c-2.9,14.9-5.7,29.7-8.3,44.6c-6.6-8.5-13.2-17-19.9-25.5&#10;&#9;c-1.7,15.4-3.3,30.8-4.8,46.2c-3.4-3.8-6.8-7.5-10.2-11.3c1.3-0.4,2.6-0.8,3.9-1.1c-8.7-13.4-17.5-26.8-26.5-40.1&#10;&#9;c0.1,15.9,0.2,31.8,0.5,47.8c1.3-0.4,2.6-0.8,3.9-1.2c-0.4,2.7-0.8,5.4-1.2,8.1c-7.8-10.8-15.7-21.6-23.6-32.3&#10;&#9;c-0.2,12.4-0.4,24.8-0.5,37.2c-8.1-9.6-16.2-19.2-24.4-28.7c0,0-13.2,38.7-8.7,52.4c15.4,46.1,53,81,68,127.3&#10;&#9;c297.2-95.3,612.7-111.7,925.5-44.5V608.8z M688.7,615c-0.7-1.3-1.4-2.5-2.1-3.8c1.3-0.2,2.7-0.5,4-0.7&#10;&#9;C690,612,689.4,613.5,688.7,615z M740.7,596.7c-1.1-1.2-2.2-2.4-3.3-3.7c1.3-0.2,2.7-0.4,4-0.6C741.2,593.9,740.9,595.3,740.7,596.7&#10;&#9;z" style="fill-rule: evenodd; clip-rule: evenodd; fill: rgb(148, 142, 59);"/>
<path class="st7" d="M760.9,654.3c0.1,0.1,0.2,0.1,0.2,0.2c0-0.1,0.1-0.2,0.2-0.2C761.1,654.2,761,654.2,760.9,654.3&#10;&#9;C760.9,654.3,760.9,654.3,760.9,654.3z" style="fill-rule: evenodd; clip-rule: evenodd; fill: rgb(148, 142, 59);"/>
<path class="st7" d="M706.6,666.9c0.1,0,0.3,0,0.4,0c-0.1,0.1-0.2,0.1-0.2,0.2C706.7,667,706.6,667,706.6,666.9L706.6,666.9z" style="fill-rule: evenodd; clip-rule: evenodd; fill: rgb(148, 142, 59);"/>
<path class="st8" d="M1400,980V597.2C958.5,563.7,398.8,663.3,0,785.6V980H1400z" style="fill-rule: evenodd; clip-rule: evenodd; fill: rgb(215, 166, 18);"/>
<path d="M 506 605.7000122070312 L 510.3999938964844 605.7000122070312 L 510.3999938964844 708.2999877929688 L 506 708.2999877929688 L 506 605.7000122070312 Z" class="st9" style="fill-rule: evenodd; clip-rule: evenodd; fill: rgb(110, 45, 17);"/>
<path class="st10" d="M508.3,562.7c21.1,0,53.5,89.1,0,89.8C454.9,653.1,486.9,562.7,508.3,562.7L508.3,562.7z" style="fill-rule: evenodd; clip-rule: evenodd; fill: rgb(249, 216, 1);"/>
<g>
	<path class="st10" d="M1277.4,699.9c0-16.4-12.8-29.7-28.9-30.6c-1.5-13.1-12.5-23.2-26-23.2c-13.4,0-24.5,10.2-26,23.2&#10;&#9;&#9;c-16.1,0.9-28.9,14.2-28.9,30.6c0,15.9,12.2,29,27.8,30.5c4.3,10.4,14.5,17.7,26.5,17.7c11.9,0,22.1-7.3,26.5-17.6&#10;&#9;&#9;C1264.5,729.7,1277.4,716.3,1277.4,699.9z" style="fill-rule: evenodd; clip-rule: evenodd; fill: rgb(249, 216, 1);"/>
	<path d="M 1237.5999755859375 700.7999877929688 L 1224.5 725.2000122070312 L 1224.5 697.2999877929688 L 1220.5 697.2999877929688 L 1220.5 725.2000122070312 L 1207.4000244140625 700.7999877929688 L 1204 702.7000122070312 L 1219.699951171875 732 L 1219.699951171875 815.2000122070312 L 1224.5999755859375 815.2000122070312 L 1224.5999755859375 732 L 1241 702.7000122070312 Z" class="st11" style="fill-rule: evenodd; clip-rule: evenodd; fill: rgb(128, 86, 23);"/>
</g>
<g>
	<path class="st10" d="M1090.3,549.1c0-8.3-6.5-15-14.6-15.5c-0.7-6.6-6.3-11.7-13.1-11.7c-6.8,0-12.4,5.1-13.1,11.7&#10;&#9;&#9;c-8.1,0.4-14.6,7.2-14.6,15.5c0,8.1,6.2,14.7,14,15.4c2.2,5.2,7.3,8.9,13.4,8.9c6,0,11.2-3.7,13.4-8.9&#10;&#9;&#9;C1083.8,564.1,1090.3,557.4,1090.3,549.1z" style="fill-rule: evenodd; clip-rule: evenodd; fill: rgb(249, 216, 1);"/>
	<path d="M 1070.199951171875 549.5999755859375 L 1063.5999755859375 561.9000244140625 L 1063.5999755859375 547.7999877929688 L 1061.5999755859375 547.7999877929688 L 1061.5999755859375 561.9000244140625 L 1055 549.5999755859375 L 1053.199951171875 550.5 L 1061.199951171875 565.2999877929688 L 1061.199951171875 607.2999877929688 L 1063.699951171875 607.2999877929688 L 1063.699951171875 565.2999877929688 L 1072 550.5 Z" class="st11" style="fill-rule: evenodd; clip-rule: evenodd; fill: rgb(128, 86, 23);"/>
</g>
<g>
	<path class="st10" d="M1187.9,598.1c0-12.9-10.1-23.4-22.8-24.1c-1.2-10.3-9.9-18.3-20.4-18.3c-10.6,0-19.3,8-20.4,18.3&#10;&#9;&#9;c-12.7,0.7-22.8,11.2-22.8,24.1c0,12.5,9.6,22.8,21.8,24c3.4,8.2,11.4,13.9,20.8,13.9c9.4,0,17.4-5.7,20.8-13.9&#10;&#9;&#9;C1177.8,621.6,1187.9,611,1187.9,598.1z" style="fill-rule: evenodd; clip-rule: evenodd; fill: rgb(249, 216, 1);"/>
	<path d="M 1156.5999755859375 598.9000244140625 L 1146.300048828125 618.0999755859375 L 1146.300048828125 596.0999755859375 L 1143.199951171875 596.0999755859375 L 1143.199951171875 618.0999755859375 L 1132.9000244140625 598.9000244140625 L 1130.199951171875 600.2999877929688 L 1142.5 623.4000244140625 L 1142.5 688.9000244140625 L 1146.4000244140625 688.9000244140625 L 1146.4000244140625 623.4000244140625 L 1159.300048828125 600.2999877929688 Z" class="st11" style="fill-rule: evenodd; clip-rule: evenodd; fill: rgb(128, 86, 23);"/>
</g>
<path class="st12" d="M1009.3,599c100,86.1,167.7,189.8,213.2,309.4c-49.9,1.9-99.8,3.8-149.7,5.7c-25.7-106.3-61.5-229.5-133.3-311&#10;&#9;c23.6-1,45.2-4.4,68.6-5.2L1009.3,599z" style="fill-rule: evenodd; clip-rule: evenodd; fill: rgb(93, 93, 93);"/>
<path d="M 1005.7000122070312 703.9000244140625 L 1009.7000122070312 703.9000244140625 L 1009.7000122070312 798.0999755859375 L 1005.7000122070312 798.0999755859375 L 1005.7000122070312 703.9000244140625 Z" class="st9" style="fill-rule: evenodd; clip-rule: evenodd; fill: rgb(110, 45, 17);"/>
<path class="st10" d="M1007.7,667.5c19.4,0,49.1,81.8,0,82.4C958.7,750.5,988.1,667.5,1007.7,667.5L1007.7,667.5z" style="fill-rule: evenodd; clip-rule: evenodd; fill: rgb(249, 216, 1);"/>
<path d="M 955.0999755859375 607.5 L 957.7999877929688 607.5 L 957.7999877929688 670.7000122070312 L 955.0999755859375 670.7000122070312 L 955.0999755859375 607.5 Z" class="st9" style="fill-rule: evenodd; clip-rule: evenodd; fill: rgb(110, 45, 17);"/>
<path class="st13" d="M956.5,583.1c13,0,32.9,54.9,0,55.3C923.6,638.8,943.3,583.1,956.5,583.1L956.5,583.1z" style="fill-rule: evenodd; clip-rule: evenodd; fill: rgb(252, 144, 22);"/>
<path d="M 924.5 560.2999877929688 L 926.5999755859375 560.2999877929688 L 926.5999755859375 609.2000122070312 L 924.5 609.2000122070312 L 924.5 560.2999877929688 Z" class="st9" style="fill-rule: evenodd; clip-rule: evenodd; fill: rgb(110, 45, 17);"/>
<path class="st10" d="M925.6,541.4c10.1,0,25.5,42.5,0,42.8C900.1,584.5,915.4,541.4,925.6,541.4L925.6,541.4z" style="fill-rule: evenodd; clip-rule: evenodd; fill: rgb(249, 216, 1);"/>
<g>
	<path class="st14" d="M1121.9,830.9c0,0-2.2-5.1-6.1-13.6l3.6-1.7c3.9,8.6,6.1,13.7,6.1,13.7L1121.9,830.9z" style="fill: rgb(255, 255, 255);"/>
	<path class="st14" d="M1104.2,793c-3.9-8-8-16.1-12.1-24.1l3.6-1.8c4.1,8,8.2,16.1,12.2,24.1L1104.2,793z M1079.5,745.2&#10;&#9;&#9;c-4.4-8-8.8-15.8-13.2-23.5l3.5-2c4.4,7.6,8.9,15.6,13.3,23.5L1079.5,745.2z M1052.4,698.6c-4.8-7.8-9.7-15.4-14.5-22.6l3.3-2.2&#10;&#9;&#9;c4.8,7.3,9.8,14.9,14.6,22.8L1052.4,698.6z M1022.5,653.9c-5.4-7.5-10.9-14.7-16.3-21.4l3.1-2.5c5.4,6.8,10.9,14,16.4,21.5&#10;&#9;&#9;L1022.5,653.9z" style="fill: rgb(255, 255, 255);"/>
	<path class="st14" d="M988.9,612.1c-3.4-3.8-6.9-7.4-10.2-10.8l2.8-2.8c3.4,3.5,6.9,7.1,10.4,10.9L988.9,612.1z" style="fill: rgb(255, 255, 255);"/>
</g>
<path class="st15" d="M1267.2,980C1024,807.2,478.3,612,0,623.8V980H1267.2z" style="fill-rule: evenodd; clip-rule: evenodd; fill: rgb(247, 174, 43);"/>
<path class="st12" d="M395.4,980c92.6-102.7,196-194.4,310.8-252C660,706.8,578,693.2,523,680.3l-10.2,3.7&#10;&#9;c-206.9,70.1-350,164.2-490.3,296H395.4z" style="fill-rule: evenodd; clip-rule: evenodd; fill: rgb(93, 93, 93);"/>
<path class="st10" d="M1400,980V774c-438.2,1.5-719,98-887,206H1400z" style="fill-rule: evenodd; clip-rule: evenodd; fill: rgb(249, 216, 1);"/>
<g>
	<path class="st14" d="M212.8,980.5l-3.1-2.5c0.1-0.1,5.8-7.1,16.6-18.8l2.9,2.7C218.5,973.4,212.8,980.4,212.8,980.5z" style="fill: rgb(255, 255, 255);"/>
	<path class="st14" d="M263.2,926.6l-2.8-2.9c11.5-11.3,23.5-22.6,35.8-33.7l2.7,3C286.7,904.1,274.7,915.4,263.2,926.6z M336,861.2&#10;&#9;&#9;l-2.5-3.1c12.6-10.4,25.6-20.7,38.6-30.4l2.4,3.2C361.5,840.6,348.6,850.8,336,861.2z M414.2,802.4l-2.3-3.3&#10;&#9;&#9;c13.6-9.3,27.5-18.3,41.2-26.7l2.1,3.4C441.5,784.2,427.7,793.1,414.2,802.4z M497.6,751.3l-1.9-3.5c14.5-7.9,29.2-15.4,43.8-22.2&#10;&#9;&#9;l1.7,3.6C526.7,736,512,743.5,497.6,751.3z" style="fill: rgb(255, 255, 255);"/>
	<path class="st14" d="M586,709.6l-1.5-3.7c7.8-3.1,15.6-6.1,23.4-8.9l1.4,3.8C601.5,703.6,593.7,706.5,586,709.6z" style="fill: rgb(255, 255, 255);"/>
</g>
<g>
	<path class="st10" d="M1242.3,575.3H1210v30.6h32.3c5,0,9.1-6.9,9.1-15.3C1251.4,582.2,1247.3,575.3,1242.3,575.3z" style="fill-rule: evenodd; clip-rule: evenodd; fill: rgb(249, 216, 1);"/>
	<path d="M 1219.1 590.599976 A 9.1 15.3 0 0 1 1210 605.899976 A 9.1 15.3 0 0 1 1200.9 590.599976 A 9.1 15.3 0 0 1 1210 575.299975 A 9.1 15.3 0 0 1 1219.1 590.599976 Z" class="st16" style="fill-rule: evenodd; clip-rule: evenodd; fill: rgb(242, 145, 30);"/>
</g>
<g>
	<path class="st10" d="M1298.4,608h-32.3v30.6h32.3c5,0,9.1-6.9,9.1-15.3S1303.4,608,1298.4,608z" style="fill-rule: evenodd; clip-rule: evenodd; fill: rgb(249, 216, 1);"/>
	<path d="M 1275.199976 623.299988 A 9.1 15.3 0 0 1 1266.099976 638.599988 A 9.1 15.3 0 0 1 1256.999975 623.299988 A 9.1 15.3 0 0 1 1266.099976 607.999988 A 9.1 15.3 0 0 1 1275.199976 623.299988 Z" class="st16" style="fill-rule: evenodd; clip-rule: evenodd; fill: rgb(242, 145, 30);"/>
</g>
<g>
	<path class="st10" d="M1348.9,650.8h-32.3v30.6h32.3c5,0,9.1-6.9,9.1-15.3S1353.9,650.8,1348.9,650.8z" style="fill-rule: evenodd; clip-rule: evenodd; fill: rgb(249, 216, 1);"/>
	<path d="M 1325.699976 666.099976 A 9.1 15.3 0 0 1 1316.599976 681.399976 A 9.1 15.3 0 0 1 1307.499975 666.099976 A 9.1 15.3 0 0 1 1316.599976 650.799975 A 9.1 15.3 0 0 1 1325.699976 666.099976 Z" class="st16" style="fill-rule: evenodd; clip-rule: evenodd; fill: rgb(242, 145, 30);"/>
</g>
<path class="st17" d="M1018.9,807.3c0-56.3-44.1-102.2-99.6-105.3c-5-44.9-43.1-79.9-89.4-79.9c-46.3,0-84.4,34.9-89.4,79.9&#10;&#9;c-55.5,3-99.6,49-99.6,105.3c0,54.9,41.9,99.9,95.5,104.9c14.8,35.7,50,60.9,91.1,60.9c41,0,76.2-25,91-60.7&#10;&#9;C974.5,909.8,1018.9,863.8,1018.9,807.3z" style="fill-rule: evenodd; clip-rule: evenodd; fill: rgb(158, 137, 17);"/>
<path d="M 820.4000244140625 980 L 837.4000244140625 980 L 837.4000244140625 918.5 L 893.7999877929688 817.0999755859375 L 881.9000244140625 810.7000122070312 L 836.7999877929688 895.0999755859375 L 836.7999877929688 798.5999755859375 L 823.2999877929688 798.5999755859375 L 823.2999877929688 895.0999755859375 L 778.2000122070312 810.7000122070312 L 766.2000122070312 817.0999755859375 L 820.4000244140625 918.5 Z" class="st11" style="fill-rule: evenodd; clip-rule: evenodd; fill: rgb(128, 86, 23);"/>
<g>
	<path class="st17" d="M1316.6,980c-2.6-38.2-33.3-68.7-71.7-70.8c-3.6-32.4-31.1-57.6-64.5-57.6c-33.4,0-60.9,25.2-64.5,57.6&#10;&#9;&#9;c-38.3,2.1-69.1,32.6-71.7,70.8H1316.6z" style="fill-rule: evenodd; clip-rule: evenodd; fill: rgb(158, 137, 17);"/>
</g>
<path d="M 26.799999237060547 584.7000122070312 L 40.20000076293945 584.7000122070312 L 40.20000076293945 899.0999755859375 L 26.799999237060547 899.0999755859375 L 26.799999237060547 584.7000122070312 Z" class="st9" style="fill-rule: evenodd; clip-rule: evenodd; fill: rgb(110, 45, 17);"/>
<path class="st13" d="M33.6,463c-10.6,0-22.2,7.3-33.3,19.6V734c9.6,2.9,20.7,4.4,33.3,4.2C197.5,736.1,98.3,463,33.6,463z" style="fill-rule: evenodd; clip-rule: evenodd; fill: rgb(252, 144, 22);"/>
<path d="M 212.89999389648438 523.5 L 222.6999969482422 523.5 L 222.6999969482422 750.7999877929688 L 212.89999389648438 750.7999877929688 L 212.89999389648438 523.5 Z" class="st9" style="fill-rule: evenodd; clip-rule: evenodd; fill: rgb(110, 45, 17);"/>
<path class="st10" d="M217.9,435.5c46.8,0,118.5,197.5,0,199C99.5,636,170.5,435.5,217.9,435.5L217.9,435.5z" style="fill-rule: evenodd; clip-rule: evenodd; fill: rgb(249, 216, 1);"/>
<path d="M 409.8999938964844 512.0999755859375 L 417.5 512.0999755859375 L 417.5 690.4000244140625 L 409.8999938964844 690.4000244140625 L 409.8999938964844 512.0999755859375 Z" class="st9" style="fill-rule: evenodd; clip-rule: evenodd; fill: rgb(110, 45, 17);"/>
<path class="st13" d="M413.8,443.1c36.7,0,93,154.9,0,156.1C320.9,600.4,376.6,443.1,413.8,443.1L413.8,443.1z" style="fill-rule: evenodd; clip-rule: evenodd; fill: rgb(252, 144, 22);"/>
<path d="M921,922.8c-8.8,0.3-16,0.5-21.2,0.6v52.8H921V922.8z"/>
</svg>