<?xml version="1.0" encoding="utf-8"?>
<svg id="master-artboard" viewBox="0 0 1400 980" version="1.1" xmlns="http://www.w3.org/2000/svg" x="0px" y="0px" style="enable-background:new 0 0 1400 980;" width="1400px" height="980px">

<path d="M 0 0 L 0 754.7000122070312 L 0 805.5999755859375 L 0 980 L 1400 980 L 1400 805.5999755859375 L 1400 749.2000122070312 L 1400 0 Z" class="st0" style="fill: rgb(161, 212, 242);"/>
<g>
	<path d="M 1400 550.2999877929688 L 1370.199951171875 560.2000122070312 L 1197.699951171875 334.3999938964844 L 989.9000244140625 514.5999755859375 L 816 326.5 L 739.9000244140625 323.79998779296875 L 676.4000244140625 267.3999938964844 L 463.70001220703125 440.8999938964844 L 329.1000061035156 310.20001220703125 L 252.39999389648438 398.79998779296875 L 159.8000030517578 414.70001220703125 L 6.5 534.9000244140625 L 6.5 841.0999755859375 L 1400 841.0999755859375 Z" class="st1" style="fill: rgb(114, 198, 239);"/>
	<path d="M 676.4000244140625 267.3999938964844 L 599.7000122070312 330 L 654.2999877929688 342.20001220703125 L 685.9000244140625 393.5 L 723.0999755859375 337.29998779296875 L 779.2999877929688 359.79998779296875 Z" class="st2" style="fill: rgb(255, 255, 255);"/>
	<path d="M 739.9000244140625 323.79998779296875 L 816 326.5 L 871.2000122070312 386.20001220703125 L 833.7999877929688 366.5 L 820.0999755859375 410.3999938964844 L 789.9000244140625 356 L 769.5999755859375 383.3999938964844 L 779.2999877929688 359.79998779296875 Z" class="st2" style="fill: rgb(255, 255, 255);"/>
	<path d="M 1197.699951171875 334.3999938964844 L 1123.300048828125 398.8999938964844 L 1172.300048828125 382.6000061035156 L 1197 393.5 L 1203.199951171875 382.70001220703125 L 1263.9000244140625 421 Z" class="st2" style="fill: rgb(255, 255, 255);"/>
	<path d="M 329.1000061035156 310.20001220703125 L 279.79998779296875 367.1000061035156 L 318.79998779296875 355.1000061035156 L 340.20001220703125 382.6000061035156 L 355.79998779296875 361.5 L 394.5 373.79998779296875 Z" class="st2" style="fill: rgb(255, 255, 255);"/>
	<path d="M 159.8000030517578 414.70001220703125 L 121.19999694824219 445 L 147.89999389648438 441.20001220703125 L 159.8000030517578 448 L 176.5 418.3999938964844 L 252.39999389648438 398.79998779296875 Z" class="st2" style="fill: rgb(255, 255, 255);"/>
</g>
<path class="st3" d="M374.8,723C375,717,533,611.2,811,667c299.6,60.1,386,255,386,255l-392,54.2L374.8,723z" style="fill: rgb(185, 163, 82);"/>
<g>
	<path d="M 692.5 473.29998779296875 L 574.2999877929688 549.7000122070312 L 574.2999877929688 692.2000122070312 L 692.5 692.2000122070312 L 810.7999877929688 692.2000122070312 L 810.7999877929688 549.7000122070312 Z" class="st4" style="fill: rgb(241, 239, 142);"/>
	<path d="M 574.299988 665.599976 H 810.799988 V 692.099976 H 574.299988 V 665.599976 Z" class="st5" style="fill: rgb(201, 223, 131);"/>
	<path d="M 692.5 458.1000061035156 L 557.5999755859375 545.5999755859375 L 566.5 554.7000122070312 L 692.5 473.29998779296875 L 818.5 554.7000122070312 L 827.5 545.5999755859375 Z" class="st6" style="fill: rgb(210, 66, 45);"/>
	<path d="M 574.2999877929688 549.7000122070312 L 692.5 473.29998779296875 L 810.7999877929688 549.7000122070312 L 810.7999877929688 558.4000244140625 L 692.5 480.6000061035156 L 574.2999877929688 558.4000244140625 Z" class="st5" style="fill: rgb(201, 223, 131);"/>
	<g>
		<g>
			<path d="M 746.099976 571.900024 H 782.199974 V 622.000023 H 746.099976 V 571.900024 Z" class="st7" style="fill: rgb(183, 214, 241);"/>
			<path d="M 778.4000244140625 575.5 L 778.4000244140625 579.5 L 752.5999755859375 618.5999755859375 L 749.5 618.5999755859375 L 749.5 575.5 Z" class="st8" style="fill: rgb(209, 223, 242);"/>
			<g>
				<g>
					<path d="M 745.7999877929688 590.4000244140625 L 745.7999877929688 571.9000244140625 L 745 572.2000122070312 L 743.7999877929688 622.0999755859375 L 742.5999755859375 622.0999755859375 L 742.5 622.2999877929688 L 745.7999877929688 622.2999877929688 Z" class="st9" style="fill: rgb(201, 196, 166);"/>
				</g>
			</g>
			<g>
				<g>
					<g>
						<path class="st10" d="M779.2,619.7h-30.6v-45.3h30.6V619.7z M748.8,619.5H779v-45h-30.2V619.5z" style="fill: rgb(222, 223, 224);"/>
						<path class="st11" d="M745.8,571.9v50.4h36.4v-50.4H745.8z M779.1,619.6h-30.4v-45.2h30.4V619.6z" style="fill: rgb(117, 76, 41);"/>
					</g>
					<path d="M 778.4000244140625 575.5 L 779.0999755859375 574.5 L 748.7000122070312 574.5 L 749.5 575.5 Z" class="st12" style="fill: rgb(96, 57, 19);"/>
					<path d="M 749.5 575.5 L 748.7000122070312 574.5 L 748.7000122070312 619.5999755859375 L 749.5 618.5999755859375 Z" class="st13" style="fill: rgb(139, 94, 60);"/>
					<path d="M 779.0999755859375 619.5999755859375 L 778.4000244140625 618.5999755859375 L 749.5 618.5999755859375 L 748.7000122070312 619.5999755859375 Z" class="st14" style="fill: rgb(169, 124, 80);"/>
					<path d="M 778.4000244140625 575.5 L 778.4000244140625 618.5999755859375 L 779.0999755859375 619.5999755859375 L 779.0999755859375 574.5 Z" class="st13" style="fill: rgb(139, 94, 60);"/>
					<path d="M 778.4000244140625 595.7000122070312 L 779.0999755859375 594.7000122070312 L 748.7000122070312 594.7000122070312 L 749.5 595.7000122070312 Z" class="st12" style="fill: rgb(96, 57, 19);"/>
				</g>
			</g>
			<path d="M 748.599976 592.200012 H 779.199976 V 594.600012 H 748.599976 V 592.200012 Z" class="st11" style="fill: rgb(117, 76, 41);"/>
		</g>
		<g>
			<path d="M 740.9000244140625 622.2000122070312 L 740.9000244140625 622.2000122070312 L 736.7000122070312 622.2000122070312 L 734.7999877929688 624.5999755859375 L 734.7999877929688 626.7999877929688 L 786.9000244140625 626.7999877929688 L 791.7000122070312 626.0999755859375 Z" class="st9" style="fill: rgb(201, 196, 166);"/>
			<path d="M 736.799988 622.099976 H 791.699989 V 626.099976 H 736.799988 V 622.099976 Z" class="st15" style="fill: rgb(237, 230, 214);"/>
			<path d="M 736.7999877929688 622.0999755859375 L 736.7999877929688 622.7999877929688 L 790.7000122070312 622.7999877929688 L 790.7000122070312 626.0999755859375 L 791.7000122070312 626.0999755859375 L 791.7000122070312 622.0999755859375 Z" class="st16" style="fill: rgb(236, 237, 235);"/>
		</g>
	</g>
	<g>
		<g>
			<path d="M 606.200012 571.900024 H 642.300011 V 622.000023 H 606.200012 V 571.900024 Z" class="st7" style="fill: rgb(183, 214, 241);"/>
			<path d="M 638.5 575.5 L 638.5 579.5 L 612.7000122070312 618.5999755859375 L 609.5999755859375 618.5999755859375 L 609.5999755859375 575.5 Z" class="st8" style="fill: rgb(209, 223, 242);"/>
			<g>
				<g>
					<path d="M 605.9000244140625 590.4000244140625 L 605.9000244140625 571.9000244140625 L 605.0999755859375 572.2000122070312 L 604 622.0999755859375 L 602.7000122070312 622.0999755859375 L 602.5999755859375 622.2999877929688 L 605.9000244140625 622.2999877929688 Z" class="st9" style="fill: rgb(201, 196, 166);"/>
				</g>
			</g>
			<g>
				<g>
					<g>
						<path class="st10" d="M639.3,619.7h-30.6v-45.3h30.6V619.7z M609,619.5h30.2v-45H609V619.5z" style="fill: rgb(222, 223, 224);"/>
						<path class="st11" d="M605.9,571.9v50.4h36.4v-50.4H605.9z M639.2,619.6h-30.4v-45.2h30.4V619.6z" style="fill: rgb(117, 76, 41);"/>
					</g>
					<path d="M 638.5 575.5 L 639.2000122070312 574.5 L 608.9000244140625 574.5 L 609.5999755859375 575.5 Z" class="st12" style="fill: rgb(96, 57, 19);"/>
					<path d="M 609.5999755859375 575.5 L 608.9000244140625 574.5 L 608.9000244140625 619.5999755859375 L 609.5999755859375 618.5999755859375 Z" class="st13" style="fill: rgb(139, 94, 60);"/>
					<path d="M 639.2000122070312 619.5999755859375 L 638.5 618.5999755859375 L 609.5999755859375 618.5999755859375 L 608.9000244140625 619.5999755859375 Z" class="st14" style="fill: rgb(169, 124, 80);"/>
					<path d="M 638.5 575.5 L 638.5 618.5999755859375 L 639.2000122070312 619.5999755859375 L 639.2000122070312 574.5 Z" class="st13" style="fill: rgb(139, 94, 60);"/>
					<path d="M 638.5 595.7000122070312 L 639.2000122070312 594.7000122070312 L 608.9000244140625 594.7000122070312 L 609.5999755859375 595.7000122070312 Z" class="st12" style="fill: rgb(96, 57, 19);"/>
				</g>
			</g>
			<path d="M 608.799988 592.200012 H 639.399988 V 594.600012 H 608.799988 V 592.200012 Z" class="st11" style="fill: rgb(117, 76, 41);"/>
		</g>
		<g>
			<path d="M 601 622.2000122070312 L 601 622.2000122070312 L 596.7999877929688 622.2000122070312 L 594.9000244140625 624.5999755859375 L 594.9000244140625 626.7999877929688 L 647.0999755859375 626.7999877929688 L 651.7999877929688 626.0999755859375 Z" class="st9" style="fill: rgb(201, 196, 166);"/>
			<path d="M 596.900024 622.099976 H 651.800026 V 626.099976 H 596.900024 V 622.099976 Z" class="st15" style="fill: rgb(237, 230, 214);"/>
			<path d="M 596.9000244140625 622.0999755859375 L 596.9000244140625 622.7999877929688 L 650.7999877929688 622.7999877929688 L 650.7999877929688 626.0999755859375 L 651.7999877929688 626.0999755859375 L 651.7999877929688 622.0999755859375 Z" class="st16" style="fill: rgb(236, 237, 235);"/>
		</g>
	</g>
	<g>
		<g>
			<path d="M 659.200012 687.299988 H 728.100014 V 697.399988 H 659.200012 V 687.299988 Z" class="st15" style="fill: rgb(237, 230, 214);"/>
		</g>
		<path d="M 659.2000122070312 687.2999877929688 L 668.2999877929688 684.4000244140625 L 720 684.4000244140625 L 728.0999755859375 687.2999877929688 Z" class="st2" style="fill: rgb(255, 255, 255);"/>
	</g>
	<path d="M 754.4000244140625 477.8999938964844 L 754.4000244140625 482.79998779296875 L 758.9000244140625 482.79998779296875 L 758.9000244140625 501.1000061035156 L 781.2000122070312 515.5999755859375 L 781.2000122070312 482.79998779296875 L 785.7999877929688 482.79998779296875 L 785.7999877929688 477.8999938964844 Z" class="st6" style="fill: rgb(210, 66, 45);"/>
	<g>
		<path class="st17" d="M762.8,474c0,0-0.1-0.1-0.2-0.3c-0.2-0.2-0.4-0.4-0.7-0.9c-0.6-0.9-1.3-2.2-2-4c-0.6-1.8-1.2-4-1.4-6.6&#10;&#9;&#9;&#9;c-0.1-1.3-0.2-2.6-0.1-4.1c0-0.7,0-1.4,0.1-2.2c0.1-0.7,0.1-1.5,0.2-2.2c0.3-3.1,0.7-6.4,1.4-9.9c0.7-3.5,1.7-7,2.8-10.7&#10;&#9;&#9;&#9;c1.2-3.7,2.6-7.4,4.1-11.1c1.5-3.7,3-7.5,3.8-11.4c0.8-3.9,0.8-7.9-0.4-11.7c-1.2-3.7-3.2-7.1-5-10.5c-1.8-3.4-3.2-6.9-4-10.3&#10;&#9;&#9;&#9;c-0.8-3.4-1.1-6.7-1.1-9.8c0-3.1,0.4-5.9,0.9-8.3c0.5-2.4,1.1-4.5,1.8-6.2c0.3-0.8,0.6-1.6,0.9-2.2c0.3-0.6,0.5-1.2,0.8-1.6&#10;&#9;&#9;&#9;c0.4-0.8,0.7-1.3,0.7-1.3s-0.2,0.5-0.6,1.3c-0.2,0.4-0.5,1-0.7,1.6c-0.3,0.6-0.6,1.4-0.9,2.2c-0.6,1.7-1.2,3.7-1.7,6.2&#10;&#9;&#9;&#9;c-0.5,2.4-0.7,5.2-0.7,8.2c0,3,0.4,6.3,1.3,9.7c0.8,3.4,2.3,6.7,4.1,10c1.8,3.3,3.9,6.7,5.2,10.6c0.3,1,0.6,2,0.8,3l0.2,1.5&#10;&#9;&#9;&#9;l0.1,1.6c0.1,2.1-0.1,4.2-0.5,6.2c-0.8,4.1-2.2,7.9-3.6,11.7c-1.4,3.7-2.7,7.4-3.8,11c-1.1,3.6-1.9,7.2-2.6,10.6&#10;&#9;&#9;&#9;c-0.6,3.4-1,6.6-1.2,9.6c0,0.8-0.1,1.5-0.1,2.2c0,0.7,0,1.4,0,2.1c0,1.4,0.1,2.6,0.2,3.8c0.2,2.4,0.8,4.4,1.4,5.9&#10;&#9;&#9;&#9;c0.6,1.5,1.3,2.7,1.8,3.3c0.2,0.3,0.5,0.6,0.6,0.8c0.2,0.2,0.2,0.3,0.2,0.3L762.8,474z" style="fill: rgb(204, 236, 252);"/>
		<path class="st17" d="M770.7,465.9c0,0-0.1-0.4-0.4-1.1c-0.1-0.4-0.3-0.9-0.4-1.5c-0.1-0.6-0.3-1.2-0.4-2&#10;&#9;&#9;&#9;c-0.2-1.5-0.4-3.3-0.3-5.4c0.1-2.1,0.4-4.4,1-6.8c0.6-2.4,1.5-5,2.5-7.7c1.1-2.6,2.4-5.3,3.7-8.1c1.3-2.8,2.7-5.6,3.8-8.6&#10;&#9;&#9;&#9;c0.6-1.5,1.1-3,1.5-4.6c0.4-1.5,0.8-3.1,1.1-4.7c1.2-6.3,1.2-12.9,0.2-18.9c-0.5-3-1.2-5.9-2.2-8.5c-0.9-2.6-1.9-5.1-2.8-7.4&#10;&#9;&#9;&#9;c-0.8-2.3-1.5-4.5-1.9-6.4c-0.4-2-0.5-3.7-0.4-5.2c0.1-1.4,0.4-2.5,0.6-3.3c0.3-0.7,0.4-1.1,0.4-1.1s-0.1,0.4-0.4,1.1&#10;&#9;&#9;&#9;c-0.2,0.7-0.5,1.8-0.5,3.3c-0.1,1.4,0.1,3.2,0.5,5.1c0.4,1.9,1.1,4.1,2,6.3c0.9,2.3,2,4.7,3,7.4c1,2.6,1.8,5.5,2.4,8.6&#10;&#9;&#9;&#9;c1.2,6.1,1.3,12.8,0.2,19.3c-0.3,1.6-0.6,3.3-1,4.9c-0.4,1.6-0.9,3.2-1.5,4.7c-1.1,3.1-2.4,6-3.6,8.8c-1.2,2.8-2.4,5.5-3.4,8.1&#10;&#9;&#9;&#9;c-1,2.6-1.8,5.1-2.3,7.4c-0.5,2.3-0.8,4.5-0.8,6.4c0,1.9,0.1,3.6,0.4,4.9c0.1,0.7,0.3,1.3,0.4,1.8c0.2,0.5,0.2,0.9,0.4,1.2&#10;&#9;&#9;&#9;c0.3,0.7,0.4,1.1,0.4,1.1L770.7,465.9z" style="fill: rgb(204, 236, 252);"/>
		<path class="st17" d="M779.1,466.1c0,0,0-0.5-0.1-1.6c-0.1-1-0.2-2.5-0.3-4.4c-0.1-1.9-0.2-4.3,0-7c0.1-2.7,0.5-5.8,1.4-9&#10;&#9;&#9;&#9;c0.9-3.3,2.6-6.6,5-9.6c2.3-3,5.1-5.8,7.5-9l0.4-0.6l0.4-0.6l0.8-1.3c0.6-0.9,0.9-1.8,1.4-2.7c0.4-0.9,0.8-1.9,1.2-2.8&#10;&#9;&#9;&#9;c0.3-1,0.7-2,1-3c1.1-4,1.6-8.3,1.5-12.6c-0.1-4.3-0.7-8.6-1.7-12.7c-1-4.1-2.5-8.1-4.1-11.8c-1.7-3.7-3.4-7.3-4.8-10.8&#10;&#9;&#9;&#9;c-1.3-3.5-2.3-7-2.8-10.2c-1.1-6.5-0.7-12-0.2-15.7c0.3-1.9,0.6-3.4,0.8-4.3c0.2-1,0.4-1.5,0.4-1.5s-0.1,0.5-0.3,1.5&#10;&#9;&#9;&#9;c-0.2,1-0.5,2.5-0.7,4.4c-0.4,3.8-0.7,9.3,0.5,15.7c0.6,3.2,1.5,6.6,2.9,10c1.4,3.5,3.2,6.9,4.9,10.6c1.8,3.7,3.3,7.7,4.4,11.8&#10;&#9;&#9;&#9;c1.1,4.2,1.8,8.5,2,12.9c0.2,4.4-0.2,8.8-1.3,13.1c-0.3,1-0.6,2.1-1,3.1c-0.4,1-0.8,2-1.2,3c-0.5,1-0.9,2-1.5,2.9l-0.8,1.3&#10;&#9;&#9;&#9;l-0.4,0.7c-0.2,0.3-0.3,0.4-0.5,0.7c-2.4,3.4-5.2,6.3-7.3,9.2c-2.2,2.9-3.7,6-4.5,9c-0.8,3-1.1,5.9-1.2,8.5&#10;&#9;&#9;&#9;c-0.1,2.6,0,4.9,0.2,6.7c0.1,1.9,0.3,3.4,0.3,4.4c0.1,1,0.1,1.6,0.1,1.6L779.1,466.1z" style="fill: rgb(204, 236, 252);"/>
	</g>
	<g>
		<path d="M 667.599976 588.299988 H 720.799976 V 684.599991 H 667.599976 V 588.299988 Z" class="st11" style="fill: rgb(117, 76, 41);"/>
		<g>
			<path d="M 672 592.700012 H 716.099998 V 680.600014 H 672 V 592.700012 Z" class="st11" style="fill: rgb(117, 76, 41);"/>
			<g>
				<path d="M 716.0999755859375 592.7000122070312 L 717.0999755859375 591.4000244140625 L 671.0999755859375 591.4000244140625 L 672 592.7000122070312 Z" class="st12" style="fill: rgb(96, 57, 19);"/>
				<path d="M 672 592.7000122070312 L 671.0999755859375 591.4000244140625 L 671.0999755859375 681.2999877929688 L 672 680.2999877929688 Z" class="st12" style="fill: rgb(96, 57, 19);"/>
				<path d="M 716.7999877929688 681.2999877929688 L 715.9000244140625 680.2999877929688 L 672 680.2999877929688 L 671.0999755859375 681.2999877929688 Z" class="st13" style="fill: rgb(139, 94, 60);"/>
				<path d="M 716.0999755859375 592.7000122070312 L 716.0999755859375 680.2999877929688 L 717.0999755859375 681.2999877929688 L 717.0999755859375 591.4000244140625 Z" class="st12" style="fill: rgb(96, 57, 19);"/>
			</g>
		</g>
		<g>
			<g>
				<path class="st18" d="M673.3,635.9h1.2c0.3,0,0.5,0.2,0.5,0.5v8.3c0,0.3-0.2,0.5-0.5,0.5h-1.2c-0.3,0-0.5-0.2-0.5-0.5v-8.3&#10;&#9;&#9;&#9;&#9;&#9;C672.7,636.1,673,635.9,673.3,635.9z" style="fill: rgb(230, 231, 232);"/>
				<g>
					<g>
						<g>
							<path class="st18" d="M680.9,637.2c0,0.5-0.4,0.9-0.9,0.9h-5.8c-0.5,0-0.9-0.4-0.9-0.9l0,0c0-0.5,0.4-0.9,0.9-0.9h5.8&#10;&#9;&#9;&#9;&#9;&#9;&#9;&#9;&#9;C680.5,636.3,680.9,636.7,680.9,637.2L680.9,637.2z" style="fill: rgb(230, 231, 232);"/>
						</g>
					</g>
					<path class="st2" d="M674.2,636.5h5.8c0.5,0,0.9,0.4,0.9,0.8c0,0,0-0.1,0-0.1c0-0.5-0.4-0.9-0.9-0.9h-5.8&#10;&#9;&#9;&#9;&#9;&#9;&#9;c-0.5,0-0.9,0.4-0.9,0.9c0,0,0,0.1,0,0.1C673.3,636.9,673.7,636.5,674.2,636.5z" style="fill: rgb(255, 255, 255);"/>
					<path class="st19" d="M680,637.8h-5.8c-0.5,0-0.8-0.3-0.9-0.7c0,0.1,0,0.1,0,0.2c0,0.5,0.4,0.9,0.9,0.9h5.8&#10;&#9;&#9;&#9;&#9;&#9;&#9;c0.5,0,0.9-0.4,0.9-0.9c0-0.1,0-0.1,0-0.2C680.8,637.4,680.4,637.8,680,637.8z" style="fill: rgb(194, 196, 197);"/>
				</g>
			</g>
		</g>
		<g>
			<path d="M 676.400024 596.099976 H 711.200024 V 634.899975 H 676.400024 V 596.099976 Z" class="st11" style="fill: rgb(117, 76, 41);"/>
			<g>
				<path d="M 711.2999877929688 596.0999755859375 L 712 595.5999755859375 L 675.7000122070312 595.5999755859375 L 676.4000244140625 596.0999755859375 Z" class="st12" style="fill: rgb(96, 57, 19);"/>
				<path d="M 676.4000244140625 596.0999755859375 L 675.7000122070312 595.5999755859375 L 675.7000122070312 635.2999877929688 L 676.4000244140625 634.7999877929688 Z" class="st13" style="fill: rgb(139, 94, 60);"/>
				<path d="M 711.7999877929688 635.2999877929688 L 711.0999755859375 634.7999877929688 L 676.4000244140625 634.7999877929688 L 675.7000122070312 635.2999877929688 Z" class="st14" style="fill: rgb(169, 124, 80);"/>
				<path d="M 711.2999877929688 596.0999755859375 L 711.2999877929688 634.7999877929688 L 712 635.2999877929688 L 712 595.5999755859375 Z" class="st13" style="fill: rgb(139, 94, 60);"/>
			</g>
		</g>
		<g>
			<path d="M 676.400024 640.700012 H 711.200024 V 676.300011 H 676.400024 V 640.700012 Z" class="st11" style="fill: rgb(117, 76, 41);"/>
			<g>
				<path d="M 711.2999877929688 640.7000122070312 L 712 640.2000122070312 L 675.7000122070312 640.2000122070312 L 676.4000244140625 640.7000122070312 Z" class="st12" style="fill: rgb(96, 57, 19);"/>
				<path d="M 676.4000244140625 640.7000122070312 L 675.7000122070312 640.2000122070312 L 675.7000122070312 676.5999755859375 L 676.4000244140625 676.2000122070312 Z" class="st13" style="fill: rgb(139, 94, 60);"/>
				<path d="M 711.7999877929688 676.5999755859375 L 711.0999755859375 676.2000122070312 L 676.4000244140625 676.2000122070312 L 675.7000122070312 676.5999755859375 Z" class="st14" style="fill: rgb(169, 124, 80);"/>
				<path d="M 711.2999877929688 640.7000122070312 L 711.2999877929688 676.2000122070312 L 712 676.5999755859375 L 712 640.2000122070312 Z" class="st13" style="fill: rgb(139, 94, 60);"/>
			</g>
		</g>
		<path class="st20" d="M674.3,641.3c0-0.2-0.2-0.4-0.4-0.4s-0.4,0.2-0.4,0.4c0,0.1,0.1,0.2,0.1,0.3l-0.1,1.4h0.9l-0.1-1.5&#10;&#9;&#9;&#9;C674.3,641.5,674.3,641.4,674.3,641.3z" style="fill: rgb(35, 31, 32);"/>
	</g>
	<path d="M 758.9000244140625 482.79998779296875 L 781.2000122070312 482.79998779296875 L 781.2000122070312 484.29998779296875 L 758.9000244140625 491.5 Z" class="st21" style="fill: rgb(165, 50, 30);"/>
</g>
<path class="st22" d="M568,874.7c0,0,340.1-214.1,832-231.1l0,230L917.7,976.2L568,874.7z" style="fill: rgb(244, 197, 75);"/>
<path class="st23" d="M3.2,911V591.2c0,0,266.6-9.1,607.3,203.6C908.6,981,947.7,969.6,947.7,969.6L3.2,911z" style="fill: rgb(225, 174, 76);"/>
<path class="st23" d="M947.7,969.6l-7.3-0.5C945.9,970.2,947.7,969.6,947.7,969.6z" style="fill: rgb(225, 174, 76);"/>
<path class="st3" d="M0,823.4c0,0,142-71.2,532.4,87.8c272.3,110.9,504.8-16.9,504.8-16.9s203.7-84.3,362.8-100.7V980H0V823.4z" style="fill: rgb(185, 163, 82);"/>
<g>
	<path d="M 1203.199997 211.199997 A 115.699997 115.400002 0 0 1 1087.5 326.599998 A 115.699997 115.400002 0 0 1 971.800003 211.199997 A 115.699997 115.400002 0 0 1 1087.5 95.799995 A 115.699997 115.400002 0 0 1 1203.199997 211.199997 Z" class="st24" style="fill: rgb(245, 221, 138);"/>
	<path d="M 1171.099998 211.199997 A 83.599998 83.400002 0 0 1 1087.5 294.599998 A 83.599998 83.400002 0 0 1 1003.900002 211.199997 A 83.599998 83.400002 0 0 1 1087.5 127.799995 A 83.599998 83.400002 0 0 1 1171.099998 211.199997 Z" class="st22" style="fill: rgb(244, 197, 75);"/>
</g>
<g>
	<g>
		<path class="st25" d="M455.6,717.3l-13.6-6.1c0,0,4-5.2,14.4-26.2c3.6-7.4,13.8-28.4,13.8-28.4l5.5,2.5c0,0-9,23.6-10.4,27&#10;&#9;&#9;&#9;C458.1,704.4,455.6,717.3,455.6,717.3z" style="fill: rgb(131, 66, 34);"/>
		<g>
			<path class="st26" d="M527.4,623.6c-3.9,8.6-18.8,35.4-25.9,41.2c-20.2,16.5-50.6,2.6-51.5-23.5c-0.3-9.1,9.5-38.1,13.3-46.5&#10;&#9;&#9;&#9;&#9;C476.9,564.7,541,593.6,527.4,623.6z" style="fill: rgb(238, 157, 71);"/>
		</g>
	</g>
	<g>
		<path class="st25" d="M264.7,586.4L249,645.8l12,3.5c0,0,5-42.3,15.5-59.4L264.7,586.4z" style="fill: rgb(131, 66, 34);"/>
		<g>
			<path d="M 90 541 L 88.69999694824219 536.5 L 72.9000015258789 543.7000122070312 L 71 511.79998779296875 L 59.5 511.79998779296875 L 56.099998474121094 604.0999755859375 L 74.5 604.0999755859375 L 73.19999694824219 552.0999755859375 Z" class="st25" style="fill: rgb(131, 66, 34);"/>
			<path class="st22" d="M120.7,432.4c-4.1,49.2-19.2,88.9-54.5,88.9S7.9,481.7,7.9,432.3c0-55.9,18.1-88.9,53.4-88.9&#10;&#9;&#9;&#9;&#9;S125.1,379.7,120.7,432.4z" style="fill: rgb(244, 197, 75);"/>
			<path class="st22" d="M99,553.9c-9.9-1.7-16.4-11.7-14.6-22.3c1.9-10.6,13.5-20.4,23.4-18.7s17.5,14.9,15.6,25.5&#10;&#9;&#9;&#9;&#9;C121.6,549,108.9,555.6,99,553.9z" style="fill: rgb(244, 197, 75);"/>
			<path class="st25" d="M181.2,621.8l-17.6-1.6c0,0,6-34.8,7.1-42.7c1.1-7.8,4.6-31.5,4.6-31.5l13.3,1.9c0,0-3.5,23.4-4.3,31.5&#10;&#9;&#9;&#9;&#9;C183.1,591.9,181.2,621.8,181.2,621.8z" style="fill: rgb(131, 66, 34);"/>
			<path class="st27" d="M231.8,513.9c-3.4,24.2-28,44.8-51.8,41.5c-23.8-3.3-42.4-32.1-39-56.2c3.4-24.2,37.3-103,61-99.7&#10;&#9;&#9;&#9;&#9;C225.8,402.7,235.2,489.7,231.8,513.9z" style="fill: rgb(205, 103, 68);"/>
		</g>
		<g>
			<path class="st3" d="M326.4,543.3c-8.6,34.9-27.3,60.4-58.5,52.7c-27.7-6.8-36-38.8-27.5-73.7c8.6-34.9,45.1-95.3,68.8-89.5&#10;&#9;&#9;&#9;&#9;C338.4,439.9,335,508.3,326.4,543.3z" style="fill: rgb(185, 163, 82);"/>
		</g>
	</g>
	<g>
		<g>
			<path d="M 372.70001220703125 710 L 352.3999938964844 704.5999755859375 L 384.6000061035156 589.7999877929688 L 400 593.0999755859375 Z" class="st25" style="fill: rgb(131, 66, 34);"/>
		</g>
		<g>
			<path class="st26" d="M456,395.4c-2.5-12.4-18.3-16.3-26.2-6.5c-46.8,57.4-153.2,203.7-47.9,231.6&#10;&#9;&#9;&#9;&#9;C496.1,650.6,470.6,468.8,456,395.4z" style="fill: rgb(238, 157, 71);"/>
		</g>
	</g>
	<g>
		<path class="st28" d="M318.8,653.1c-1.4-0.4-2.8-0.6-4.3-0.7c-0.8-13-8.5-24.4-20.5-28.1c-8.6-2.7-17.7-0.9-25.1,4.1&#10;&#9;&#9;&#9;c-1.9-1.8-4.2-3.1-6.8-4c-0.4-0.1-0.7-0.2-1.1-0.3c-8.7-2.2-17.3,4.2-18.4,13.1l-1.8,14.9l84,26.4c1.6-1.7,2.8-3.7,3.6-6.1&#10;&#9;&#9;&#9;C330.9,664.2,326.6,655.6,318.8,653.1z" style="fill: rgb(225, 134, 70);"/>
	</g>
	<g>
		<path class="st28" d="M531.4,755.3c6.6-13,2.2-28.5-9.8-34.6c-1.1-0.6-2.2-1-3.4-1.4c-0.1-10.5-5.5-20.2-14.9-25&#10;&#9;&#9;&#9;c-13.9-7.1-31.4-0.7-39.1,14.3c-0.2,0.3-0.3,0.7-0.5,1c-8.4-1.1-17.3,3.5-21.6,12l82.7,42.1C527.4,761.5,529.7,758.6,531.4,755.3z&#10;&#9;&#9;&#9;" style="fill: rgb(225, 134, 70);"/>
	</g>
	<g>
		<path class="st28" d="M207.4,620.6c2-14.5-7.3-27.6-20.7-29.4c-1.2-0.2-2.5-0.2-3.7-0.2c-3.6-9.8-11.9-17.2-22.4-18.7&#10;&#9;&#9;&#9;c-15.5-2.1-29.9,9.8-32.2,26.5c0,0.4-0.1,0.7-0.1,1.1c-8.3,1.8-15.1,9-16.4,18.5l92,12.3C205.7,627.7,206.9,624.3,207.4,620.6z" style="fill: rgb(225, 134, 70);"/>
	</g>
</g>
<g>
	<g>
		<path class="st25" d="M996.2,707.6l11.7-2.6c0,0-2.3-4.7-7-23c-1.7-6.4-6.3-24.7-6.3-24.7l-4.8,1.1c0,0,3.2,20.1,3.8,23&#10;&#9;&#9;&#9;C996.4,697,996.2,707.6,996.2,707.6z" style="fill: rgb(131, 66, 34);"/>
		<g>
			<path class="st26" d="M955,621.9c1.6,7.4,9,31,13.7,36.7c13.2,16.3,39.5,10.3,44.5-10.1c1.7-7.1-1.2-31.6-2.8-38.9&#10;&#9;&#9;&#9;&#9;C1004.5,583.8,949.2,596,955,621.9z" style="fill: rgb(238, 157, 71);"/>
		</g>
	</g>
	<g>
		<g>
			<path d="M 1316 600 L 1317.0999755859375 596.4000244140625 L 1329.800048828125 602.2000122070312 L 1331.300048828125 576.5 L 1340.5999755859375 576.5 L 1343.300048828125 650.7999877929688 L 1328.5 650.7999877929688 L 1329.5999755859375 608.9000244140625 Z" class="st25" style="fill: rgb(131, 66, 34);"/>
			<path class="st3" d="M1291.3,512.5c3.3,39.6,15.5,71.6,43.9,71.6c28.5,0,47-31.9,47-71.7c0-45-14.6-71.7-43-71.7&#10;&#9;&#9;&#9;&#9;C1310.7,440.8,1287.8,470.1,1291.3,512.5z" style="fill: rgb(185, 163, 82);"/>
			<path class="st3" d="M1308.8,610.4c8-1.4,13.2-9.4,11.7-18c-1.5-8.5-10.9-16.5-18.8-15.1c-8,1.4-14.1,12-12.6,20.6&#10;&#9;&#9;&#9;&#9;C1290.6,606.4,1300.8,611.8,1308.8,610.4z" style="fill: rgb(185, 163, 82);"/>
		</g>
		<g>
			<path class="st25" d="M1165.5,616.6l6.8,49l-9.9,1.6c0,0,0.1-34.3-6.6-49L1165.5,616.6z" style="fill: rgb(131, 66, 34);"/>
			<g>
				<path class="st22" d="M1120.3,576.1c3.5,28.8,16,50.9,41.7,47.8c22.8-2.7,32.6-27.6,29.1-56.3c-3.5-28.8-26.8-80.6-46.4-78.3&#10;&#9;&#9;&#9;&#9;&#9;C1120.7,492.3,1116.8,547.4,1120.3,576.1z" style="fill: rgb(244, 197, 75);"/>
			</g>
		</g>
	</g>
	<g>
		<path class="st28" d="M1115.8,664.7c1.2-0.2,2.3-0.2,3.5-0.1c1.9-10.3,9.2-18.7,19.2-20.5c7.2-1.3,14.2,1,19.7,5.7&#10;&#9;&#9;&#9;c1.7-1.2,3.7-2.1,5.8-2.5c0.3-0.1,0.6-0.1,0.9-0.1c7.2-0.9,13.4,5,13.4,12.3l0,12.1l-69.8,13c-1.1-1.5-1.9-3.3-2.3-5.2&#10;&#9;&#9;&#9;C1105,672.5,1109.3,666,1115.8,664.7z" style="fill: rgb(225, 134, 70);"/>
	</g>
	<g>
		<path class="st28" d="M930.2,725.1c-3.1-11.3,2.9-22.8,13.4-25.7c1-0.3,1.9-0.4,2.9-0.5c1.8-8.2,7.6-15,15.9-17.3&#10;&#9;&#9;&#9;c12.2-3.3,24.9,4.6,28.5,17.7c0.1,0.3,0.1,0.6,0.2,0.9c6.8,0.5,13,5.6,15.1,13.1L934,732.9C932.3,730.7,931,728,930.2,725.1z" style="fill: rgb(225, 134, 70);"/>
	</g>
</g>
<g>
	<g>
		<path d="M 1093.9000244140625 895.9000244140625 L 1119.300048828125 894 L 1106.5999755859375 750 L 1087.5 750.5 Z" class="st25" style="fill: rgb(131, 66, 34);"/>
	</g>
	<g>
		<path class="st3" d="M1065,502.4c5.7-14.2,25.4-15.4,32.7-1.9c42.9,78.9,137,277.1,5.2,286.7C960.2,797.6,1031.2,586.6,1065,502.4&#10;&#9;&#9;&#9;z" style="fill: rgb(185, 163, 82);"/>
	</g>
</g>
<path class="st25" d="M1248.3,845.3l27.1-1c0,0-6.5-53.7-7.5-65.8c-1.1-12.1-4.5-48.5-4.5-48.5l-20.5,1.8c0,0,3.4,36.1,4,48.5&#10;&#9;C1247.7,799.4,1248.3,845.3,1248.3,845.3z" style="fill: rgb(131, 66, 34);"/>
<path class="st27" d="M1179.5,676.2c3.3,37.2,39.3,70.7,75.9,67.5c36.6-3.2,67.3-45.7,64-82.9c-3.3-37.2-48.8-160.4-85.4-157.2&#10;&#9;C1197.4,506.8,1176.2,639,1179.5,676.2z" style="fill: rgb(205, 103, 68);"/>
<g>
	<path class="st29" d="M1208.3,841.2c-1.8-22.2,13.4-41.6,34-43.3c1.9-0.2,3.8-0.2,5.6,0c6.2-14.7,19.5-25.4,35.7-26.7&#10;&#9;&#9;c23.9-1.9,44.9,17.3,47,43c0,0.6,0.1,1.1,0.1,1.7c12.6,3.4,22.4,15,23.6,29.6l-141.6,11.5C1210.3,852.3,1208.7,847,1208.3,841.2z" style="fill: rgb(247, 215, 75);"/>
</g>
<g>
	<path d="M 119.69999694824219 979.9000244140625 L 117.5999984741211 891.5999755859375 L 147.10000610351562 872.0999755859375 L 144.6999969482422 864.4000244140625 L 117 876.9000244140625 L 113.69999694824219 821.0999755859375 L 93.4000015258789 821.0999755859375 L 87.5999984741211 979.9000244140625 Z" class="st25" style="fill: rgb(131, 66, 34);"/>
	<path class="st26" d="M201,681.8c-7.1,86.3-33.7,156-95.7,156S2.9,768.3,2.9,681.7c0-98.1,31.7-156.1,93.7-156.1&#10;&#9;&#9;S208.6,589.4,201,681.8z" style="fill: rgb(238, 157, 71);"/>
	<path class="st3" d="M162.8,895c-17.4-3-28.8-20.6-25.5-39.2c3.3-18.6,23.6-35.9,41-32.9s30.7,26.2,27.4,44.8&#10;&#9;&#9;C202.5,886.4,180.2,898,162.8,895z" style="fill: rgb(185, 163, 82);"/>
</g>
<g>
	<path d="M 320.70001220703125 979.9000244140625 L 316.1000061035156 881.0999755859375 L 294.1000061035156 881.5999755859375 L 298.29998779296875 979.9000244140625 Z" class="st25" style="fill: rgb(131, 66, 34);"/>
	<g>
		<path class="st22" d="M377.1,774.9c3.9,64.5-14.6,118-72.2,121.6c-51.1,3.1-82.4-47.4-86.3-111.8c-3.9-64.5,26.5-187.4,70.3-190.1&#10;&#9;&#9;&#9;C342.5,591.2,373.1,710.5,377.1,774.9z" style="fill: rgb(244, 197, 75);"/>
	</g>
</g>
<g>
	<path class="st28" d="M282.1,979.9c-3.9-2.3-8.4-3.7-13.2-3.7c-2.7,0-5.2,0.4-7.6,1.1c-8.2-21.8-27.6-37.1-50.2-37.2&#10;&#9;&#9;c-16.3-0.1-30.9,7.8-40.9,20.3c-4.2-2-8.9-3.1-13.8-3.1c-0.7,0-1.4,0-2,0.1c-12.8,0.8-22.6,10.6-24.6,22.6H282.1z" style="fill: rgb(225, 134, 70);"/>
</g>
<path class="st30" d="M735.8,234.1c-0.2-1.6-0.4-3.1-0.4-4.8c0-15.1,11.3-27.4,25.3-27.4c4.6,0,8.8,1.4,12.5,3.7&#10;&#9;c6.4-18.8,22-32.1,40.4-32.1c3.8,0,7.4,0.6,10.9,1.7c14.4-40,49.7-68.2,91-68.1c44.6,0.1,82.1,33.2,93.9,78.3&#10;&#9;c2.8-0.7,5.7-1.1,8.6-1.1c21.8,0,39.4,20.6,39.4,45.9c0,1.5-0.1,3-0.2,4.5L735.8,234.1z" style="opacity: 0.5; fill: rgb(255, 255, 255);"/>
<path class="st30" d="M224.8,366c-0.2-1.2-0.3-2.5-0.3-3.8c0-12,9-21.8,20.1-21.7c3.6,0,7,1.1,10,2.9c5.1-15,17.5-25.5,32.1-25.5&#10;&#9;c3,0,5.9,0.5,8.6,1.4c11.5-31.8,39.5-54.2,72.3-54.1c35.4,0.1,65.2,26.4,74.6,62.2c2.2-0.6,4.5-0.9,6.8-0.9&#10;&#9;c17.3,0,31.3,16.4,31.3,36.4c0,1.2-0.1,2.4-0.2,3.6L224.8,366z" style="opacity: 0.5; fill: rgb(255, 255, 255);"/>
<path class="st31" d="M409.5,141c-3.1-6.5-9.3-10.9-16.5-10.9c-2.6,0-5.1,0.6-7.3,1.6c-4.9-18.2-19.9-31.4-37.8-31.4&#10;&#9;c-6.5,0-12.7,1.8-18.1,4.9C317,68.4,282.2,42,241.2,42c-28.4,0-53.8,12.6-71,32.6c-7.1-2.7-14.8-4.1-22.8-4.1&#10;&#9;c-23.4,0-43.9,12.4-55.7,31c-3.3-1.2-6.7-1.8-10.4-1.8c-17.6,0-31.8,14.6-31.8,32.7c0,3,0.4,5.9,1.1,8.6H409.5z" style="opacity: 0.32; fill: rgb(255, 255, 255);"/>
<path class="st31" d="M816.6,448c1.6-4.2,4.9-7.2,8.8-7.2c1.4,0,2.7,0.4,3.9,1c2.5-11.9,10.5-20.6,20.1-20.7c3.5,0,6.8,1.1,9.7,3.1&#10;&#9;c6.6-24.1,25.2-41.5,47.2-41.7c15.2-0.1,28.9,8,38.3,21c3.8-1.8,7.9-2.8,12.2-2.8c12.6-0.1,23.6,7.9,30,20c1.7-0.8,3.6-1.2,5.6-1.2&#10;&#9;c9.4-0.1,17.1,9.4,17.2,21.2c0,2-0.2,3.9-0.6,5.7L816.6,448z" style="opacity: 0.32; fill: rgb(255, 255, 255);"/>
<path class="st32" d="M1370.7,98.9c0.2-0.8,0.3-1.6,0.3-2.4c0-7.5-7.4-13.6-16.6-13.7c-3,0-5.8,0.7-8.2,1.8&#10;&#9;c-4.2-9.4-14.4-16-26.4-16.1c-2.5,0-4.9,0.3-7.1,0.8c-9.4-19.9-32.5-34-59.6-34.1c-29.3,0-54,16.3-61.7,38.8&#10;&#9;c-1.8-0.4-3.7-0.6-5.7-0.6c-14.3,0-25.9,10.2-25.9,22.7c0,0.8,0,1.5,0.1,2.3L1370.7,98.9z" style="opacity: 0.29; fill: rgb(255, 255, 255);"/>
</svg>