<?xml version="1.0" encoding="utf-8"?>
<svg id="master-artboard" viewBox="0 0 1400 980" version="1.1" xmlns="http://www.w3.org/2000/svg" x="0px" y="0px" style="enable-background:new 0 0 1400 980;" width="1400px" height="980px" xmlns:xlink="http://www.w3.org/1999/xlink">

<path d="M 0 0 L 0.20000000298023224 749 L 0.20000000298023224 800 L 0.20000000298023224 805.4000244140625 L 0.20000000298023224 979.7000122070312 L 1400 980 L 1400.199951171875 805.4000244140625 L 1400.199951171875 800 L 1400.199951171875 749 L 1400 0 Z" class="st0" style="fill: rgb(252, 144, 22);"/>
<g>
	<g>
		<g>
			<g>
				<path class="st1" d="M854,337.3c72,0,130.3-58.3,130.3-130.3c0-72-58.3-130.3-130.3-130.3c-72,0-130.3,58.3-130.3,130.3&#10;&#9;&#9;&#9;&#9;&#9;C723.7,278.9,782.1,337.3,854,337.3z" style="fill-rule: evenodd; clip-rule: evenodd; fill: rgb(255, 196, 37);"/>
			</g>
			<g>
				<path class="st2" d="M854.1,297.8c50.2,0,90.9-40.7,90.9-90.9c0-50.2-40.7-90.8-90.9-90.8c-50.2,0-90.8,40.7-90.8,90.8&#10;&#9;&#9;&#9;&#9;&#9;C763.2,257.1,803.9,297.8,854.1,297.8z" style="fill-rule: evenodd; clip-rule: evenodd; fill: rgb(253, 183, 42);"/>
			</g>
		</g>
		<g>
			<path class="st3" d="M356.7,162.1c0-25.2-20.4-45.7-45.6-45.7c-1.8,0-3.7,0.1-5.5,0.4c-3.2-18-18.9-31.6-37.8-31.6&#10;&#9;&#9;&#9;&#9;c-5.1,0-10,1-14.5,2.9c-8.2-30.7-36.3-53.3-69.6-53.3c-39.8,0-72.1,32.3-72.1,72.1c0,2,0.1,4,0.3,5.9c-6.1-2.3-12.6-3.5-19.5-3.5&#10;&#9;&#9;&#9;&#9;c-30.5,0-55.2,24.7-55.2,55.3h319.3C356.6,163.7,356.7,162.9,356.7,162.1z" style="opacity: 0.8; fill: rgb(255, 255, 255);"/>
			<path class="st3" d="M1215.2,163.7c-6.6-30.4-33.6-53.1-66-53.1c-10.1,0-19.6,2.2-28.2,6.2c0.3-2.8,0.5-5.6,0.5-8.4&#10;&#9;&#9;&#9;&#9;c0-36.7-29.7-66.4-66.4-66.4c-36.7,0-66.4,29.7-66.4,66.4c0,0.8,0,1.5,0.1,2.3c-6.5-2.9-13.6-4.5-21.1-4.5c-28.7,0-52,23.3-52,52&#10;&#9;&#9;&#9;&#9;c0,1.9,0.1,3.7,0.3,5.5H1215.2z" style="opacity: 0.8; fill: rgb(255, 255, 255);"/>
			<path class="st3" d="M446.3,313.5c0-0.4,0.1-0.7,0.1-1.1c0-20.5-16.7-37.2-37.2-37.2c-8,0-15.5,2.6-21.6,6.9&#10;&#9;&#9;&#9;&#9;c-1.6-24-21.6-43-46-43c-22.2,0-40.7,15.7-45.2,36.5c-3.7-1.8-7.9-2.7-12.3-2.7c-16.2,0-29.3,13.1-29.3,29.3&#10;&#9;&#9;&#9;&#9;c0,4,0.8,7.8,2.3,11.3H446.3z" style="opacity: 0.8; fill: rgb(255, 255, 255);"/>
		</g>
		<g>
			<g>
				<g>
					<g>
						<path d="M 609.7999877929688 64.0999984741211 L 1002.2999877929688 807.2000122070312 L 240.39999389648438 807.2000122070312 Z" class="st4" style="fill: rgb(74, 119, 127);"/>
					</g>
					<path d="M 609.7999877929688 64.0999984741211 L 508.5 267.8999938964844 L 590.2999877929688 232.39999389648438 L 603.7999877929688 387.1000061035156 L 650.7000122070312 317.29998779296875 L 708.2999877929688 387.1000061035156 L 696 273.8999938964844 L 746.5999755859375 323.1000061035156 Z" class="st5" style="fill: rgb(255, 255, 255);"/>
					<g>
						<path d="M 286.20001220703125 396.3999938964844 L 51.099998474121094 807.2000122070312 L 561.2000122070312 807.2000122070312 Z" class="st6" style="fill: rgb(97, 153, 164);"/>
					</g>
					<path d="M 286.20001220703125 396.3999938964844 L 196.89999389648438 552.4000244140625 L 228.60000610351562 534.5999755859375 L 250.1999969482422 583.2000122070312 L 286.20001220703125 534.5999755859375 L 342.5 601.7999877929688 L 354.3999938964844 536.0999755859375 L 405 573.9000244140625 Z" class="st5" style="fill: rgb(255, 255, 255);"/>
				</g>
				<g>
					<g>
						<path d="M 1011.5 248.39999389648438 L 1331.4000244140625 807.2000122070312 L 637.4000244140625 807.2000122070312 Z" class="st6" style="fill: rgb(97, 153, 164);"/>
					</g>
				</g>
				<path d="M 1011.5 248.39999389648438 L 882.0999755859375 441.70001220703125 L 979.0999755859375 410.70001220703125 L 1002.2999877929688 513.5999755859375 L 1072.5 428.70001220703125 L 1139.300048828125 471.70001220703125 Z" class="st5" style="fill: rgb(255, 255, 255);"/>
			</g>
		</g>
	</g>
	<path class="st3" d="M1114.2,358c0-0.4-0.1-0.9-0.1-1.3c0-24.5,19.9-44.4,44.4-44.4c15.5,0,29.1,7.9,37,19.9&#10;&#9;&#9;c4.7-32.6,32.7-57.6,66.5-57.6c37.1,0,67.2,30.1,67.2,67.2c0,5.6-0.7,11-2,16.1H1114.2z" style="opacity: 0.8; fill: rgb(255, 255, 255);"/>
</g>
<g>
	<defs>
		<path d="M 0 0 L 0.20000000298023224 749 L 0.20000000298023224 800 L 0.20000000298023224 805.4000244140625 L 0 980 L 1400 980 L 1400.199951171875 805.4000244140625 L 1400.199951171875 800 L 1400.199951171875 749 L 1400 0 Z" id="SVGID_1_"/>
	</defs>
	<clipPath id="SVGID_2_">
		<use style="overflow:visible;" xlink:href="#SVGID_1_"/>
	</clipPath>
	<g class="st7" style="clip-path: url('#SVGID_2_');">
		<g>
			<path class="st8" d="M1400.4,609.3c-34.8,91.2-116.5,163.8-212,203.3c-95.5,39.5-203.7,48-307.6,36.2&#10;&#9;&#9;&#9;&#9;c-103.8-11.8-203.9-43.2-300.2-80.7c-93.3-36.3-184.5-78.7-282.7-101.6C199.7,643.5,91.4,641.9,1.4,685L0,980l1397.9-0.3&#10;&#9;&#9;&#9;&#9;L1400.4,609.3z" style="fill: rgb(198, 127, 61);"/>
		</g>
		<g>
			<path d="M 133.599998 599.599976 A 61.400002 61.400002 0 0 1 72.199997 660.999977 A 61.400002 61.400002 0 0 1 10.799995 599.599976 A 61.400002 61.400002 0 0 1 72.199997 538.199974 A 61.400002 61.400002 0 0 1 133.599998 599.599976 Z" class="st9" style="fill: rgb(173, 163, 18);"/>
		</g>
		<path d="M 102.9000015258789 613.9000244140625 L 97 609.5999755859375 L 75 636.0999755859375 L 75 609 L 68 609 L 68 636.0999755859375 L 47.79999923706055 609.5999755859375 L 41.79999923706055 613.9000244140625 L 68 647.0999755859375 L 68 719 L 75 719 L 75 647.0999755859375 Z" class="st10" style="fill: rgb(117, 76, 36);"/>
		<g>
			<g>
				<path class="st11" d="M720.8,584.8c0,63.3-51.3,114.6-114.6,114.6c-63.3,0-114.6-51.3-114.6-114.6&#10;&#9;&#9;&#9;&#9;&#9;c0-63.3,51.3-114.6,114.6-114.6C669.5,470.2,720.8,521.5,720.8,584.8z" style="fill: rgb(255, 196, 37);"/>
			</g>
			<path d="M 663.7999877929688 611.5 L 652.9000244140625 603.4000244140625 L 612 652.9000244140625 L 612 602 L 599 602 L 599 652.9000244140625 L 560.9000244140625 603.4000244140625 L 550 611.5 L 599 673.4000244140625 L 599 807 L 612 807 L 612 673.4000244140625 Z" class="st10" style="fill: rgb(117, 76, 36);"/>
		</g>
		<g>
			<path class="st12" d="M-7.6,635.1c32.7,91,108.7,162.9,197.2,201.6s188.6,46.4,284.4,33.8s188.1-44.8,276.9-83&#10;&#9;&#9;&#9;&#9;c86-37,170-80.1,260.5-103.8c90.6-23.7,305-18.7,388.4,23.8l0.3,296.2l-1403,1.8L-7.6,635.1z" style="fill: rgb(181, 108, 40);"/>
		</g>
		<path d="M 270.20001220703125 580.7000122070312 L 245.3000030517578 562.4000244140625 L 191 629.0999755859375 L 191 442 L 161 442 L 161 559.0999755859375 L 75 446.8999938964844 L 49.900001525878906 465.29998779296875 L 161 605.7000122070312 L 161 904 L 191 904 L 191 675.5999755859375 Z" class="st10" style="fill: rgb(117, 76, 36);"/>
		<path d="M 1290.9000244140625 510.1000061035156 L 1275.199951171875 498.6000061035156 L 1241 540.5 L 1241 423 L 1223 423 L 1223 496.6000061035156 L 1168.9000244140625 426.20001220703125 L 1153.199951171875 437.70001220703125 L 1223 525.7999877929688 L 1223 713 L 1241 713 L 1241 569.7000122070312 Z" class="st10" style="fill: rgb(117, 76, 36);"/>
		<g>
			<path class="st9" d="M1100.4,619.9c0,78.5-63.6,142.1-142.1,142.1c-78.5,0-142.1-63.6-142.1-142.1c0-78.5,63.6-142.1,142.1-142.1&#10;&#9;&#9;&#9;&#9;C1036.8,477.7,1100.4,541.4,1100.4,619.9z" style="fill: rgb(173, 163, 18);"/>
		</g>
		<path d="M 1029.5 653 L 1015.7999877929688 642.9000244140625 L 965 704.2999877929688 L 965 641 L 949 641 L 949 704.2999877929688 L 901.9000244140625 642.9000244140625 L 888.2999877929688 653 L 949 729.7000122070312 L 949 895 L 965 895 L 965 729.7000122070312 Z" class="st10" style="fill: rgb(117, 76, 36);"/>
		<path d="M 306.3999938964844 619.7999877929688 L 313.5 614.5999755859375 L 329 633.5 L 329 580 L 337 580 L 337 613.7000122070312 L 361.6000061035156 581.7999877929688 L 368.6000061035156 587 L 337 626.9000244140625 L 337 712 L 329 712 L 329 646.7999877929688 Z" class="st10" style="fill: rgb(117, 76, 36);"/>
	</g>
	<g class="st7" style="clip-path: url('#SVGID_2_');">
		<path class="st11" d="M979.9,877c0,0,0.2,0,0.6-0.1c0.3,0,0.9-0.1,1.5,0c0.6,0,1.4,0,2.2,0c0.7,0,1.6,0,2.5,0&#10;&#9;&#9;&#9;c0.8,0,1.8,0.1,2.7,0.1c0.9,0.1,1.9,0.1,2.8,0.2c1,0,1.9,0.2,2.9,0.2c1,0.1,1.9,0.2,2.9,0.4c1,0.1,1.9,0.3,2.9,0.4&#10;&#9;&#9;&#9;c1,0.2,1.9,0.3,2.8,0.6c0.9,0.2,1.9,0.5,2.8,0.6c0.9,0.2,1.8,0.5,2.7,0.7c0.9,0.3,1.7,0.5,2.4,0.7c0.8,0.2,1.5,0.5,2,0.6&#10;&#9;&#9;&#9;c0.6,0.1,1.1,0.4,1.4,0.5c0.3,0.1,0.5,0.2,0.5,0.2s-0.1,0.2-0.3,0.5c-0.2,0.3-0.4,0.8-0.8,1.3c-0.4,0.5-0.9,1.2-1.5,1.8&#10;&#9;&#9;&#9;c-0.6,0.6-1.4,1.3-2.2,1.9c-0.9,0.6-1.9,1.2-3,1.7c-1.1,0.5-2.3,0.9-3.6,1.2c-1.3,0.3-2.6,0.5-4,0.5c-1.4,0.1-2.7,0-4.1-0.2&#10;&#9;&#9;&#9;c-1.4-0.2-2.7-0.5-4-1c-1.3-0.4-2.5-1-3.6-1.6c-1.1-0.7-2.2-1.4-3.1-2.1c-0.9-0.8-1.7-1.6-2.4-2.4c-0.7-0.8-1.2-1.6-1.7-2.4&#10;&#9;&#9;&#9;c-0.5-0.8-0.7-1.5-0.9-2.1c-0.2-0.6-0.3-1.1-0.4-1.4C979.9,877.2,979.9,877,979.9,877z" style="fill: rgb(255, 196, 37);"/>
		<path class="st11" d="M223.1,880.1c0,0,0.2-0.1,0.5-0.3c0.3-0.2,0.7-0.5,1.3-0.7c1.1-0.6,2.6-1.3,4.4-1.8c1.8-0.6,3.8-0.9,6-1.1&#10;&#9;&#9;&#9;c2.2-0.2,4.4-0.1,6.6,0.3c2.2,0.3,4.4,0.9,6.4,1.7c2,0.8,3.8,1.8,5.4,2.9c1.5,1.1,2.8,2.2,3.6,3.1c0.4,0.4,0.8,0.8,1,1.1&#10;&#9;&#9;&#9;c0.2,0.3,0.3,0.4,0.3,0.4s-0.2,0.1-0.5,0.3c-0.3,0.2-0.7,0.5-1.3,0.7c-1.1,0.6-2.6,1.3-4.4,1.8c-1.8,0.6-3.8,0.9-6,1.1&#10;&#9;&#9;&#9;c-2.2,0.2-4.4,0.1-6.6-0.3c-2.2-0.4-4.4-0.9-6.4-1.7c-2-0.8-3.8-1.8-5.4-2.9c-1.5-1.1-2.8-2.2-3.6-3.1c-0.4-0.4-0.8-0.8-1-1.1&#10;&#9;&#9;&#9;C223.2,880.3,223.1,880.1,223.1,880.1z" style="fill: rgb(255, 196, 37);"/>
		<path class="st11" d="M120.5,913.8c0,0,0.2,0.1,0.5,0.2c0.3,0.1,0.9,0.3,1.4,0.6c0.6,0.3,1.3,0.6,2.1,0.9c0.7,0.3,1.5,0.6,2.4,1&#10;&#9;&#9;&#9;c0.8,0.3,1.7,0.7,2.6,1.1c0.8,0.4,1.8,0.7,2.7,1.2c0.9,0.4,1.8,0.8,2.7,1.2c0.9,0.5,1.8,0.8,2.7,1.3c0.9,0.4,1.8,0.9,2.7,1.3&#10;&#9;&#9;&#9;c0.9,0.5,1.8,0.9,2.6,1.4c0.9,0.4,1.7,1,2.6,1.4c0.9,0.5,1.7,0.9,2.5,1.4c0.8,0.5,1.6,0.9,2.3,1.3c0.7,0.4,1.4,0.8,1.9,1.1&#10;&#9;&#9;&#9;c0.5,0.3,1,0.6,1.3,0.8c0.3,0.2,0.5,0.3,0.5,0.3s-0.1,0.2-0.4,0.4c-0.3,0.2-0.6,0.7-1.2,1.1c-0.5,0.4-1.2,0.9-2,1.4&#10;&#9;&#9;&#9;c-0.8,0.5-1.7,0.9-2.8,1.2c-1.1,0.4-2.2,0.6-3.5,0.8c-1.3,0.2-2.6,0.2-4,0.1c-1.4-0.1-2.8-0.3-4.2-0.7c-1.4-0.3-2.8-0.9-4.1-1.5&#10;&#9;&#9;&#9;c-1.3-0.7-2.6-1.4-3.7-2.3c-1.2-0.8-2.2-1.9-3.1-2.9c-0.9-1.1-1.7-2.1-2.3-3.2c-0.6-1.1-1.1-2.2-1.5-3.2c-0.4-1-0.6-2.1-0.8-3&#10;&#9;&#9;&#9;c-0.2-0.9-0.2-1.7-0.1-2.4c0-0.6,0.1-1.2,0.1-1.5C120.4,914,120.5,913.8,120.5,913.8z" style="fill: rgb(255, 196, 37);"/>
		<path class="st13" d="M926.8,826.7c0,0,0,0.2,0.1,0.5c0,0.3,0.2,0.9,0.2,1.4c0.1,0.6,0.1,1.3,0,2.2c-0.1,0.9-0.2,1.8-0.4,2.8&#10;&#9;&#9;&#9;c-0.2,1-0.6,2-1,3c-0.4,1-1,2.1-1.7,3.1c-1.3,2-3.2,3.9-5.2,5.4c-2.1,1.5-4.4,2.7-6.8,3.3c-1.2,0.3-2.3,0.5-3.5,0.6&#10;&#9;&#9;&#9;c-1.1,0.1-2.2,0.1-3.2,0c-2-0.1-3.7-0.7-4.8-1.2c-0.6-0.2-1-0.5-1.3-0.6c-0.3-0.2-0.5-0.3-0.5-0.3s0.1-0.2,0.3-0.5&#10;&#9;&#9;&#9;c0.2-0.3,0.5-0.7,0.9-1.1c0.4-0.4,0.8-1,1.3-1.6c0.5-0.5,1-1.2,1.6-1.8c0.6-0.6,1.2-1.2,1.9-1.9c0.7-0.6,1.3-1.3,2-1.9&#10;&#9;&#9;&#9;c1.4-1.3,2.9-2.5,4.4-3.6c1.5-1.1,3.1-2.2,4.7-3.1c0.8-0.5,1.7-0.9,2.4-1.3c0.9-0.4,1.7-0.8,2.4-1.2c0.8-0.4,1.6-0.7,2.2-1&#10;&#9;&#9;&#9;c0.7-0.3,1.4-0.5,1.9-0.8c0.5-0.3,1.1-0.4,1.4-0.5C926.6,826.8,926.8,826.7,926.8,826.7z" style="fill: rgb(67, 141, 69);"/>
		<path class="st11" d="M684.3,918.5c0,0,0.1-0.1,0.4-0.3c0.3-0.2,0.7-0.5,1.2-0.8c1-0.6,2.4-1.4,4.1-2c1.7-0.6,3.6-1.1,5.6-1.4&#10;&#9;&#9;&#9;c2-0.3,4.1-0.3,6.2-0.1c2.1,0.2,4.2,0.7,6.1,1.4c1.9,0.7,3.7,1.6,5.2,2.6c1.5,1,2.7,2,3.5,2.9c0.4,0.4,0.7,0.8,1,1&#10;&#9;&#9;&#9;c0.2,0.3,0.3,0.4,0.3,0.4s-0.1,0.1-0.4,0.3c-0.3,0.2-0.7,0.5-1.2,0.8c-1,0.7-2.4,1.4-4.1,2.1c-1.7,0.6-3.6,1.1-5.6,1.4&#10;&#9;&#9;&#9;c-2,0.3-4.1,0.3-6.2,0.1c-2.1-0.2-4.2-0.7-6.1-1.4c-1.9-0.7-3.7-1.6-5.2-2.6c-1.5-1-2.7-2-3.5-2.9c-0.4-0.4-0.7-0.8-1-1&#10;&#9;&#9;&#9;C684.4,918.7,684.3,918.5,684.3,918.5z" style="fill: rgb(255, 196, 37);"/>
		<path class="st13" d="M110.4,872.9c0,0,0.2,0.1,0.4,0.4c0.2,0.3,0.6,0.6,1,1.1c0.2,0.2,0.4,0.5,0.6,0.8c0.2,0.2,0.5,0.5,0.8,0.7&#10;&#9;&#9;&#9;c0.2,0.2,0.5,0.4,0.8,0.7c0.3,0.2,0.6,0.5,0.9,0.7c0.5,0.5,1.2,1,1.9,1.5c0.6,0.5,1.3,0.9,1.9,1.4c0.7,0.4,1.3,0.9,2,1.4&#10;&#9;&#9;&#9;c0.6,0.5,1.4,0.9,2,1.4c0.7,0.4,1.3,0.9,2,1.3c0.7,0.5,1.3,0.9,2,1.4c0.7,0.4,1.3,0.9,2,1.3c0.7,0.4,1.4,0.9,2,1.2&#10;&#9;&#9;&#9;c0.7,0.4,1.4,0.7,2,1c0.7,0.3,1.3,0.6,1.8,0.8c0.5,0.2,1,0.4,1.4,0.5c0.3,0.1,0.5,0.2,0.5,0.2s-0.1,0.2-0.3,0.5&#10;&#9;&#9;&#9;c-0.2,0.3-0.4,0.8-0.9,1.3c-0.4,0.5-0.9,1.1-1.7,1.7c-0.4,0.3-0.8,0.6-1.2,0.9c-0.4,0.3-0.9,0.5-1.4,0.7c-0.5,0.2-1.1,0.5-1.7,0.6&#10;&#9;&#9;&#9;c-0.6,0.2-1.2,0.3-1.9,0.4c-1.3,0.2-2.7,0.2-4.1,0.1c-1.4-0.2-2.9-0.5-4.2-1c-1.4-0.5-2.7-1.3-4-2c-1.2-0.9-2.4-1.8-3.3-3&#10;&#9;&#9;&#9;c-1-1.1-1.8-2.3-2.5-3.6c-0.3-0.6-0.6-1.3-0.8-1.9c-0.2-0.6-0.5-1.2-0.6-1.9c-0.1-0.7-0.2-1.3-0.3-1.9c-0.1-0.6,0-1.2,0-1.8&#10;&#9;&#9;&#9;c0-0.6,0.1-1.1,0.1-1.6c0.1-0.6,0.2-1.1,0.4-1.5c0.1-0.5,0.3-0.9,0.4-1.2c0.2-0.3,0.4-0.6,0.5-0.9c0.3-0.5,0.7-0.9,0.9-1.2&#10;&#9;&#9;&#9;C110.2,873.1,110.4,872.9,110.4,872.9z" style="fill: rgb(67, 141, 69);"/>
		<path class="st13" d="M1285.5,765.6c0,0-0.2,0.1-0.5,0.2c-0.3,0.1-0.8,0.3-1.5,0.5c-0.6,0.1-1.4,0.4-2,0.7c-0.3,0.1-0.7,0.3-1,0.4&#10;&#9;&#9;&#9;c-0.4,0.2-0.8,0.3-1.2,0.5c-0.8,0.3-1.6,0.7-2.4,1c-0.8,0.3-1.6,0.8-2.4,1.1c-0.8,0.4-1.6,0.7-2.4,1.2c-0.8,0.3-1.6,0.8-2.4,1.1&#10;&#9;&#9;&#9;c-0.8,0.4-1.6,0.7-2.4,1.2c-0.8,0.4-1.6,0.8-2.4,1.1c-0.8,0.4-1.6,0.7-2.4,1.2c-0.8,0.4-1.6,0.8-2.3,1.2c-0.8,0.4-1.5,0.8-2.1,1.2&#10;&#9;&#9;&#9;c-0.7,0.4-1.3,0.7-1.8,1.1c-0.5,0.3-1,0.6-1.3,0.8c-0.3,0.2-0.5,0.3-0.5,0.3s-0.1-0.2-0.2-0.5c-0.1-0.3-0.3-0.9-0.4-1.5&#10;&#9;&#9;&#9;c-0.2-0.7-0.3-1.5-0.3-2.4c0-0.5,0-0.9,0-1.5c0-0.5,0.2-1,0.3-1.6c0.1-0.5,0.3-1.1,0.5-1.7c0.2-0.6,0.5-1.1,0.7-1.7&#10;&#9;&#9;&#9;c0.5-1.2,1.3-2.3,2.2-3.4c0.9-1.1,1.9-2.2,3.1-3c1.1-1,2.5-1.7,3.8-2.4c1.4-0.6,2.8-1.1,4.2-1.4c1.4-0.4,2.9-0.4,4.3-0.5&#10;&#9;&#9;&#9;c1.4,0.1,2.8,0.2,4,0.5c0.6,0.2,1.2,0.3,1.8,0.5c0.6,0.2,1.1,0.5,1.6,0.7c0.5,0.3,1,0.5,1.4,0.8c0.5,0.3,0.9,0.6,1.2,0.9&#10;&#9;&#9;&#9;c0.4,0.3,0.7,0.6,1,0.9c0.3,0.3,0.4,0.6,0.6,0.8c0.4,0.5,0.6,1,0.8,1.3C1285.4,765.4,1285.5,765.6,1285.5,765.6z" style="fill: rgb(67, 141, 69);"/>
		<path class="st13" d="M1076,869.7c0,0-0.3,0.9-0.8,2.3c-0.3,0.7-0.7,1.5-1.3,2.4c-0.6,0.9-1.3,1.9-2.2,2.8c-0.8,1-1.9,1.9-3,2.8&#10;&#9;&#9;&#9;c-1.1,0.9-2.4,1.7-3.8,2.5c-1.4,0.7-2.9,1.4-4.5,1.9c-1.6,0.6-3.2,0.9-4.9,1.2c-1.7,0.2-3.3,0.4-5,0.4c-1.7,0-3.3-0.2-4.8-0.4&#10;&#9;&#9;&#9;c-1.6-0.3-3-0.7-4.4-1.2c-1.4-0.5-2.6-1.1-3.7-1.7c-1.1-0.6-2.1-1.3-2.9-1.9c-0.8-0.6-1.5-1.3-2-1.8c-1-1.1-1.5-1.9-1.5-1.9&#10;&#9;&#9;&#9;s0.9-0.3,2.3-0.6c0.7-0.1,1.5-0.3,2.5-0.5c0.9-0.2,1.9-0.4,3-0.6c1-0.2,2.2-0.4,3.4-0.6c1.2-0.2,2.4-0.5,3.6-0.6&#10;&#9;&#9;&#9;c1.2-0.3,2.5-0.4,3.7-0.7c1.3-0.2,2.5-0.4,3.8-0.6c1.3-0.3,2.5-0.4,3.8-0.6c1.3-0.2,2.5-0.4,3.7-0.5c1.2-0.2,2.5-0.3,3.6-0.5&#10;&#9;&#9;&#9;c1.2-0.2,2.4-0.3,3.4-0.5c1.1-0.1,2.1-0.3,3-0.4c0.9-0.1,1.8-0.2,2.6-0.3C1075.1,869.7,1076,869.7,1076,869.7z" style="fill: rgb(67, 141, 69);"/>
		<path class="st11" d="M438,807.7c0,0-0.3,0.9-0.8,2.3c-0.3,0.7-0.7,1.5-1.3,2.4c-0.6,0.9-1.3,1.9-2.2,2.8c-0.8,1-1.9,1.9-3,2.8&#10;&#9;&#9;&#9;c-1.1,0.9-2.4,1.7-3.8,2.5c-1.4,0.7-2.9,1.4-4.5,1.9c-1.6,0.6-3.2,0.9-4.9,1.2c-1.7,0.2-3.3,0.4-5,0.4c-1.7,0-3.3-0.2-4.8-0.4&#10;&#9;&#9;&#9;c-1.6-0.3-3-0.7-4.4-1.2c-1.4-0.5-2.6-1.1-3.7-1.7c-1.1-0.6-2.1-1.3-2.9-1.9c-0.8-0.6-1.5-1.3-2-1.8c-1-1.1-1.5-1.9-1.5-1.9&#10;&#9;&#9;&#9;s0.9-0.3,2.3-0.6c0.7-0.1,1.5-0.3,2.5-0.5c0.9-0.2,1.9-0.4,3-0.6c1-0.2,2.2-0.4,3.4-0.6c1.2-0.2,2.4-0.5,3.6-0.6&#10;&#9;&#9;&#9;c1.2-0.3,2.5-0.4,3.7-0.7c1.3-0.2,2.5-0.4,3.8-0.6c1.3-0.3,2.5-0.4,3.8-0.6c1.3-0.2,2.5-0.4,3.7-0.5c1.2-0.2,2.5-0.3,3.6-0.5&#10;&#9;&#9;&#9;c1.2-0.2,2.4-0.3,3.4-0.5c1.1-0.1,2.1-0.3,3-0.4c0.9-0.1,1.8-0.2,2.6-0.3C437.1,807.7,438,807.7,438,807.7z" style="fill: rgb(255, 196, 37);"/>
		<path class="st11" d="M1072.1,813.6c0,0,0.1-0.1,0.3-0.4c0.2-0.2,0.5-0.6,1-1c0.8-0.8,2-1.8,3.4-2.7c1.4-0.9,3.1-1.7,5-2.3&#10;&#9;&#9;&#9;c1.8-0.6,3.8-1,5.8-1.1c2-0.1,4,0,5.9,0.4c1.9,0.4,3.7,1,5.2,1.7c1.5,0.7,2.8,1.6,3.7,2.3c0.5,0.3,0.8,0.7,1.1,0.9&#10;&#9;&#9;&#9;c0.2,0.2,0.4,0.4,0.4,0.4s-0.1,0.1-0.3,0.4c-0.2,0.2-0.5,0.6-1,1c-0.8,0.8-2,1.8-3.4,2.7c-1.4,0.9-3.1,1.7-5,2.3&#10;&#9;&#9;&#9;c-1.8,0.6-3.8,0.9-5.8,1.1c-2,0.1-4,0-5.9-0.4c-1.9-0.4-3.7-1-5.2-1.7c-1.5-0.7-2.8-1.6-3.7-2.3c-0.5-0.3-0.8-0.7-1.1-0.9&#10;&#9;&#9;&#9;C1072.3,813.8,1072.1,813.6,1072.1,813.6z" style="fill: rgb(255, 196, 37);"/>
		<path class="st13" d="M1137.3,739.2c0,0,0.1-0.1,0.4-0.2c0.2-0.1,0.6-0.4,1-0.7c0.8-0.5,2-1.1,3.3-1.5c1.3-0.4,2.8-0.7,4.2-0.7&#10;&#9;&#9;&#9;c1.5,0,2.9,0.2,4.3,0.7c1.4,0.5,2.7,1.2,3.9,2.1c1.2,0.9,2.2,2,2.9,3.1c0.4,0.6,0.7,1.2,1,1.7c0.3,0.5,0.5,1.1,0.7,1.5&#10;&#9;&#9;&#9;c0.2,0.4,0.3,0.9,0.4,1.1c0.1,0.3,0.1,0.4,0.1,0.4s-0.1,0.1-0.4,0.3c-0.2,0.1-0.6,0.4-1,0.7c-0.4,0.2-0.9,0.6-1.5,0.8&#10;&#9;&#9;&#9;c-0.6,0.3-1.2,0.5-1.8,0.7c-1.3,0.4-2.8,0.7-4.2,0.7c-1.5,0-2.9-0.2-4.3-0.7c-1.4-0.5-2.7-1.2-3.9-2.1c-1.2-0.9-2.2-2-2.9-3.1&#10;&#9;&#9;&#9;c-0.8-1.1-1.4-2.3-1.7-3.2c-0.2-0.4-0.3-0.9-0.4-1.1C1137.4,739.4,1137.3,739.2,1137.3,739.2z" style="fill: rgb(67, 141, 69);"/>
		<path class="st13" d="M281.3,716.9c0,0,0,0.2,0.1,0.5c0.1,0.3,0.2,0.8,0.3,1.3c0.2,1.1,0.3,2.8,0.1,4.5c-0.2,1.8-0.8,3.7-1.6,5.6&#10;&#9;&#9;&#9;c-0.9,1.9-2.2,3.7-3.7,5.3c-1.5,1.6-3.3,2.9-5.1,3.9c-1.9,1-3.8,1.6-5.5,1.9c-1.8,0.3-3.3,0.3-4.5,0.1c-0.6,0-1.1-0.2-1.4-0.2&#10;&#9;&#9;&#9;c-0.3-0.1-0.5-0.1-0.5-0.1s0-0.2,0.1-0.5c0.1-0.3,0.2-0.8,0.3-1.3c0.2-0.5,0.3-1.2,0.6-1.9c0.2-0.7,0.5-1.4,0.8-2.2&#10;&#9;&#9;&#9;c0.7-1.5,1.5-3.1,2.4-4.5c1-1.5,2.1-2.9,3.3-4.2c1.2-1.3,2.6-2.5,4.1-3.5c1.4-1,3-1.9,4.4-2.6c0.7-0.4,1.4-0.7,2.1-0.9&#10;&#9;&#9;&#9;c0.7-0.3,1.3-0.5,1.8-0.7c0.5-0.2,1-0.3,1.3-0.4C281.2,717,281.3,716.9,281.3,716.9z" style="fill: rgb(67, 141, 69);"/>
		<path class="st13" d="M367.2,752.2c0,0,0.2,0,0.5,0.1c0.3,0.1,0.8,0.1,1.3,0.2c0.5,0.1,1.2,0.3,1.8,0.4c0.6,0.1,1.3,0.3,2,0.5&#10;&#9;&#9;&#9;c0.7,0.2,1.4,0.4,2.1,0.6c0.7,0.3,1.5,0.5,2.1,0.8c1.4,0.5,2.7,1.2,4,2c1.3,0.8,2.5,1.6,3.6,2.6c0.6,0.5,1.1,1,1.7,1.5&#10;&#9;&#9;&#9;c0.6,0.6,1.1,1.1,1.6,1.6c0.5,0.6,1,1.1,1.4,1.6c0.4,0.5,0.8,1,1.2,1.4c0.3,0.4,0.6,0.8,0.8,1c0.2,0.3,0.3,0.4,0.3,0.4&#10;&#9;&#9;&#9;s-0.1,0.1-0.4,0.3c-0.2,0.2-0.6,0.5-1.1,0.8c-0.9,0.6-2.3,1.4-4,1.8c-0.9,0.2-1.8,0.4-2.7,0.4c-1,0.1-2,0-3-0.1&#10;&#9;&#9;&#9;c-2.1-0.3-4.2-1.1-6.1-2.2c-1.9-1.2-3.5-2.7-4.8-4.3c-0.6-0.9-1.1-1.7-1.5-2.6c-0.4-0.9-0.7-1.8-0.9-2.6c-0.2-0.8-0.3-1.7-0.4-2.4&#10;&#9;&#9;&#9;c-0.1-0.7,0-1.4,0.1-1.9c0-0.5,0.2-1,0.2-1.3C367.2,752.4,367.2,752.2,367.2,752.2z" style="fill: rgb(67, 141, 69);"/>
		<path class="st13" d="M551.9,774.7c0,0,0.1-0.1,0.4-0.3c0.2-0.2,0.6-0.5,1-0.7c0.8-0.6,2-1.2,3.3-1.8c1.3-0.5,2.8-0.9,4.3-1.1&#10;&#9;&#9;&#9;c1.5-0.1,3.1,0,4.6,0.3c1.5,0.4,3,0.9,4.3,1.8c1.3,0.8,2.5,1.8,3.4,2.9c0.5,0.5,0.9,1.1,1.3,1.6c0.4,0.5,0.7,1,0.9,1.4&#10;&#9;&#9;&#9;c0.3,0.4,0.4,0.9,0.6,1.1c0.1,0.3,0.2,0.4,0.2,0.4s-0.1,0.1-0.4,0.3c-0.2,0.2-0.6,0.5-1,0.7c-0.4,0.3-0.9,0.6-1.5,0.9&#10;&#9;&#9;&#9;c-0.6,0.3-1.2,0.6-1.8,0.9c-1.3,0.5-2.8,0.9-4.3,1.1c-1.5,0.1-3.1,0-4.6-0.3c-1.5-0.4-3-1-4.3-1.8c-1.3-0.8-2.5-1.8-3.4-2.9&#10;&#9;&#9;&#9;c-0.9-1.1-1.7-2.2-2.2-3.1c-0.3-0.4-0.4-0.8-0.6-1.1C552,774.8,551.9,774.7,551.9,774.7z" style="fill: rgb(67, 141, 69);"/>
		<path class="st13" d="M220.9,911c0,0,0,0.2,0.1,0.5c0,0.3,0.2,0.8,0.2,1.4c0.1,0.6,0.1,1.3,0.1,2.1c0,0.8-0.2,1.7-0.4,2.6&#10;&#9;&#9;&#9;c-0.2,0.9-0.5,1.9-0.9,2.9c-0.4,1-1,1.9-1.6,2.9c-1.3,1.9-3,3.6-5,5c-2,1.4-4.2,2.4-6.4,2.9c-1.1,0.2-2.2,0.4-3.3,0.5&#10;&#9;&#9;&#9;c-1.1,0-2.1,0-3-0.1c-1.9-0.2-3.4-0.8-4.5-1.4c-0.5-0.2-1-0.5-1.2-0.7c-0.3-0.2-0.4-0.3-0.4-0.3s0.1-0.2,0.3-0.4&#10;&#9;&#9;&#9;c0.2-0.3,0.5-0.7,0.8-1.1c0.3-0.4,0.8-0.9,1.2-1.5c0.4-0.5,1-1.1,1.5-1.7c0.5-0.6,1.1-1.2,1.7-1.8c0.6-0.6,1.2-1.2,1.8-1.8&#10;&#9;&#9;&#9;c1.3-1.2,2.6-2.2,4-3.2c1.4-1,2.9-1.9,4.4-2.7c0.7-0.4,1.6-0.7,2.3-1.1c0.8-0.3,1.6-0.7,2.3-1c0.8-0.3,1.5-0.5,2.1-0.8&#10;&#9;&#9;&#9;c0.7-0.2,1.3-0.4,1.9-0.6c0.5-0.2,1-0.3,1.3-0.4C220.7,911.1,220.9,911,220.9,911z" style="fill: rgb(67, 141, 69);"/>
		<path class="st13" d="M254.4,931.9c0,0,0.1-0.1,0.1-0.4c0.1-0.2,0.2-0.6,0.4-1c0.4-0.8,0.9-1.8,1.6-2.7c0.7-0.9,1.5-1.7,2.5-2.3&#10;&#9;&#9;&#9;c0.9-0.6,2-1,3-1.1c1-0.1,2.1,0,3.2,0.4c1,0.4,2,1,2.9,1.7c0.4,0.4,0.8,0.8,1.2,1.2c0.4,0.3,0.7,0.8,1,1.1&#10;&#9;&#9;&#9;c0.3,0.3,0.5,0.7,0.6,0.9c0.1,0.2,0.2,0.3,0.2,0.3s-0.1,0.1-0.1,0.4c-0.1,0.2-0.2,0.6-0.4,1c-0.2,0.4-0.4,0.9-0.7,1.3&#10;&#9;&#9;&#9;c-0.3,0.5-0.6,1-0.9,1.4c-0.7,0.9-1.5,1.7-2.5,2.3c-0.9,0.6-2,0.9-3,1.1c-1.1,0.1-2.1,0-3.2-0.4c-1-0.4-2-1-2.9-1.7&#10;&#9;&#9;&#9;c-0.9-0.7-1.6-1.6-2.2-2.2c-0.3-0.3-0.5-0.7-0.6-0.9C254.5,932,254.4,931.9,254.4,931.9z" style="fill: rgb(67, 141, 69);"/>
		<path class="st11" d="M614.2,815c0,0,0.1-0.1,0.3-0.4c0.2-0.2,0.4-0.6,0.8-1c0.7-0.8,1.6-1.8,2.8-2.7c1.2-0.9,2.5-1.7,4-2.3&#10;&#9;&#9;&#9;c1.5-0.6,3.1-1,4.7-1.1c1.6-0.1,3.3,0,4.8,0.4c1.6,0.4,3,1,4.3,1.7c0.6,0.4,1.2,0.8,1.8,1.2c0.5,0.3,1,0.8,1.4,1.1&#10;&#9;&#9;&#9;c0.4,0.3,0.7,0.7,0.9,0.9c0.2,0.2,0.3,0.3,0.3,0.3s-0.1,0.1-0.3,0.4c-0.2,0.2-0.4,0.6-0.8,1c-0.3,0.4-0.7,0.9-1.2,1.3&#10;&#9;&#9;&#9;c-0.5,0.5-1,1-1.6,1.4c-1.2,0.9-2.5,1.7-4,2.3c-1.5,0.6-3.1,0.9-4.7,1.1c-1.6,0.1-3.3,0-4.8-0.4c-1.6-0.4-3-1-4.3-1.7&#10;&#9;&#9;&#9;c-1.3-0.7-2.4-1.6-3.1-2.3c-0.4-0.3-0.7-0.7-0.9-0.9C614.3,815.1,614.2,815,614.2,815z" style="fill: rgb(255, 196, 37);"/>
		<path class="st11" d="M863.3,903.1c0,0,0.1-0.1,0.4-0.3c0.2-0.2,0.6-0.5,1.1-0.7c0.9-0.6,2.2-1.3,3.7-1.8c1.5-0.5,3.1-0.9,4.9-1.1&#10;&#9;&#9;&#9;c1.7-0.2,3.5,0,5.3,0.3c1.7,0.4,3.4,0.9,5,1.7c1.5,0.8,2.9,1.8,4.1,2.9c1.2,1.1,2.1,2.2,2.7,3.1c0.3,0.4,0.5,0.8,0.7,1.1&#10;&#9;&#9;&#9;c0.2,0.3,0.2,0.4,0.2,0.4s-0.1,0.1-0.4,0.3c-0.2,0.2-0.6,0.5-1.1,0.7c-0.9,0.6-2.2,1.3-3.7,1.8c-1.5,0.5-3.1,0.9-4.9,1.1&#10;&#9;&#9;&#9;c-1.7,0.2-3.5,0-5.3-0.3c-1.7-0.4-3.4-0.9-5-1.8c-1.5-0.8-2.9-1.8-4.1-2.9c-1.2-1.1-2.1-2.2-2.7-3.1c-0.3-0.4-0.5-0.8-0.7-1.1&#10;&#9;&#9;&#9;C863.4,903.3,863.3,903.1,863.3,903.1z" style="fill: rgb(255, 196, 37);"/>
		<path class="st13" d="M1008.7,821.4c0,0,0.1-0.1,0.2-0.3c0.1-0.2,0.3-0.6,0.5-0.9c0.4-0.7,1-1.5,1.7-2.2c0.7-0.7,1.4-1.3,2.1-1.7&#10;&#9;&#9;&#9;c0.7-0.4,1.5-0.5,2.2-0.4c0.7,0.1,1.4,0.5,1.9,1c0.6,0.6,1.1,1.4,1.5,2.3c0.2,0.4,0.4,0.9,0.5,1.4c0.2,0.4,0.3,0.9,0.4,1.3&#10;&#9;&#9;&#9;c0.1,0.3,0.2,0.8,0.2,1c0,0.2,0.1,0.4,0.1,0.4s-0.1,0.1-0.2,0.3c-0.1,0.2-0.3,0.6-0.5,0.9c-0.2,0.3-0.5,0.8-0.7,1.1&#10;&#9;&#9;&#9;c-0.3,0.4-0.6,0.8-0.9,1.2c-0.7,0.7-1.4,1.3-2.1,1.7c-0.7,0.4-1.5,0.5-2.2,0.4c-0.7-0.1-1.4-0.5-1.9-1.1c-0.6-0.6-1.1-1.4-1.5-2.3&#10;&#9;&#9;&#9;c-0.4-0.9-0.7-1.9-0.9-2.6c-0.1-0.3-0.2-0.8-0.2-1C1008.7,821.6,1008.7,821.4,1008.7,821.4z" style="fill: rgb(67, 141, 69);"/>
		<path class="st13" d="M1010.6,940.4c0,0,0-0.2,0.1-0.4c0.1-0.3,0.1-0.8,0.3-1.2c0.3-1,0.8-2.2,1.4-3.5c0.7-1.3,1.6-2.5,2.7-3.6&#10;&#9;&#9;&#9;c1.1-1.1,2.4-2,3.8-2.7c1.4-0.7,2.9-1.2,4.4-1.4c1.5-0.2,3.1-0.2,4.5,0c0.7,0.1,1.4,0.3,2,0.4c0.6,0.1,1.2,0.4,1.6,0.5&#10;&#9;&#9;&#9;c0.5,0.1,0.9,0.4,1.1,0.5c0.3,0.1,0.4,0.2,0.4,0.2s0,0.2-0.1,0.4c-0.1,0.3-0.1,0.8-0.3,1.2c-0.1,0.5-0.3,1.1-0.6,1.6&#10;&#9;&#9;&#9;c-0.2,0.6-0.5,1.2-0.9,1.9c-0.7,1.3-1.6,2.5-2.7,3.6c-1.1,1.1-2.4,2-3.8,2.7c-1.4,0.7-2.9,1.2-4.4,1.4c-1.5,0.2-3.1,0.2-4.5,0&#10;&#9;&#9;&#9;c-1.4-0.2-2.7-0.6-3.6-0.9c-0.5-0.1-0.9-0.4-1.1-0.5C1010.8,940.5,1010.6,940.4,1010.6,940.4z" style="fill: rgb(67, 141, 69);"/>
		<path class="st11" d="M1181.2,909.1c0,0,0.2,0,0.5,0.1c0.3,0.1,0.8,0.2,1.2,0.4c0.5,0.2,1.1,0.4,1.7,0.6c0.6,0.2,1.2,0.4,1.9,0.6&#10;&#9;&#9;&#9;c0.6,0.2,1.3,0.5,2,0.7c0.6,0.3,1.3,0.5,1.9,0.8c1.3,0.5,2.5,1.1,3.6,1.8c1.2,0.7,2.2,1.4,3.3,2.3c0.5,0.4,1.1,0.9,1.6,1.3&#10;&#9;&#9;&#9;c0.6,0.5,1.1,1,1.6,1.4c0.5,0.5,1,1,1.5,1.4c0.5,0.4,0.9,0.9,1.3,1.2c0.4,0.3,0.7,0.7,0.9,0.9c0.2,0.2,0.4,0.4,0.4,0.4&#10;&#9;&#9;&#9;s-0.1,0.2-0.3,0.4c-0.2,0.2-0.5,0.6-0.9,1c-0.8,0.8-2.1,1.7-3.8,2.3c-0.8,0.3-1.8,0.5-2.8,0.7c-1,0.1-2,0.1-3.1,0.1&#10;&#9;&#9;&#9;c-1.1-0.1-2.2-0.3-3.2-0.7c-1.1-0.3-2.1-0.9-3.1-1.4c-1-0.6-1.9-1.3-2.7-2.1c-0.8-0.8-1.5-1.7-2.1-2.5c-0.6-0.9-1.1-1.8-1.4-2.8&#10;&#9;&#9;&#9;c-0.3-0.9-0.6-1.9-0.7-2.8c-0.1-0.9-0.2-1.7-0.1-2.5c0-0.8,0.2-1.4,0.4-1.9c0.1-0.5,0.3-0.9,0.4-1.2&#10;&#9;&#9;&#9;C1181.1,909.3,1181.2,909.1,1181.2,909.1z" style="fill: rgb(255, 196, 37);"/>
		<path class="st11" d="M1198.7,752.7c0,0,0.1-0.2,0.1-0.5c0.1-0.3,0.2-0.8,0.5-1.3c0.2-0.5,0.5-1.1,0.8-1.8c0.3-0.6,0.6-1.3,1-2.1&#10;&#9;&#9;&#9;c0.8-1.4,1.6-2.9,2.6-4.3c1-1.4,2.1-2.8,3.4-4c1.2-1.2,2.6-2.4,4-3.4c0.7-0.5,1.5-1,2.2-1.4c0.7-0.4,1.5-0.8,2.2-1.2&#10;&#9;&#9;&#9;c0.8-0.4,1.5-0.7,2.1-1c0.7-0.3,1.3-0.5,1.8-0.7c0.5-0.2,1-0.4,1.3-0.5c0.3-0.1,0.5-0.2,0.5-0.2s0.1,0.2,0.2,0.5&#10;&#9;&#9;&#9;c0.1,0.3,0.3,0.8,0.3,1.3c0.2,1.2,0.4,2.8,0.2,4.6c-0.2,1.8-0.7,3.8-1.6,5.8c-0.9,2-2.3,3.8-3.9,5.4c-1.6,1.6-3.5,2.9-5.4,3.8&#10;&#9;&#9;&#9;c-2,0.9-4,1.5-5.8,1.6c-0.9,0.1-1.8,0.1-2.5,0.1c-0.8,0-1.5-0.2-2-0.3c-0.5-0.1-1-0.3-1.3-0.3&#10;&#9;&#9;&#9;C1198.9,752.7,1198.7,752.7,1198.7,752.7z" style="fill: rgb(255, 196, 37);"/>
		<path class="st11" d="M937.6,785.7c0,0,0.1,0,0.4,0.1c0.2,0.1,0.7,0.2,1,0.4c0.4,0.2,0.9,0.4,1.3,0.5c0.5,0.1,1,0.3,1.4,0.4&#10;&#9;&#9;&#9;c0.9,0.3,1.9,0.7,2.6,1c0.7,0.3,1.3,0.7,1.7,1.3c0.4,0.5,0.6,1.1,0.8,1.9c0.1,0.8,0.2,1.7,0.3,2.7c0,0.6,0.1,1.1,0.1,1.5&#10;&#9;&#9;&#9;c0,0.5,0.1,1,0.1,1.4c0,0.4,0,0.8,0.1,1.1c0,0.3,0,0.4,0,0.4s-0.1,0.1-0.3,0.2c-0.2,0.1-0.5,0.4-0.9,0.6c-0.4,0.2-0.9,0.5-1.4,0.6&#10;&#9;&#9;&#9;c-0.5,0.2-1.1,0.4-1.8,0.4c-1.3,0.2-2.7,0-4-0.5c-1.3-0.5-2.5-1.5-3.4-2.6c-0.9-1.2-1.4-2.6-1.6-4c-0.1-1.4,0.1-2.8,0.6-4&#10;&#9;&#9;&#9;c0.2-0.6,0.6-1.1,0.9-1.6c0.3-0.5,0.7-0.9,1-1.1c0.3-0.3,0.7-0.5,0.8-0.7C937.5,785.8,937.6,785.7,937.6,785.7z" style="fill: rgb(255, 196, 37);"/>
	</g>
</g>
</svg>