<?xml version="1.0" encoding="utf-8"?>
<svg id="master-artboard" viewBox="0 0 1400 980" version="1.1" xmlns="http://www.w3.org/2000/svg" x="0px" y="0px" style="enable-background:new 0 0 1400 980;" width="1400px" height="980px">

<path d="M 0 0 L 0 754.7000122070312 L 0 805.5999755859375 L 0 980 L 1400 980 L 1400 805.5999755859375 L 1400 749.2000122070312 L 1400 0 Z" class="st0" style="fill: rgb(253, 191, 111);" transform="matrix(1, 0, 0, 1, 2.842170943040401e-14, 7.105427357601002e-15)"/><g transform="matrix(1, 0, 0, 1, 5.684341886080802e-14, 1.4210854715202004e-14)">
			<path class="st1" d="M703.2,602.1c0.2-0.2,0.4-0.2,0.6-0.3c0.2,0,1.4-0.1,1.3-0.4c-0.1-0.2-0.9,0-1.2,0c-0.2,0-0.4,0.1-0.6,0&#10;&#9;&#9;&#9;&#9;c-0.3-0.1-0.5-1.6-2.8-2.5c-0.6-0.2-1.4-0.4-1.9-0.5c-0.7-0.2-1.5,0-2.2,0.1c-0.8,0.2-1.6,0.7-2.2,1.2c-0.4,0.4-0.8,1-1.3,1.2&#10;&#9;&#9;&#9;&#9;c0.1,0.5,0.5,0.9,0.9,1.3c0.3,0.4,0.7,0.7,1,1.1c1,1.3,2.5,1.6,4,1.5c1.4-0.1,3-0.7,3.8-1.8C702.9,602.8,703,602.4,703.2,602.1z&#10;&#9;&#9;&#9;&#9; M701.2,603.2c-0.2,0.4-0.6,0.7-0.9,0.9c-0.1,0-0.1,0-0.1-0.1c0.2-0.4,0.6-0.7,0.9-1.1c0.2-0.3,0.5-0.6,0.8-0.8c0,0-0.1,0-0.1,0&#10;&#9;&#9;&#9;&#9;c-0.4,0-0.7-0.1-1.1-0.1c-0.2,0-0.4-0.1-0.7-0.1c-0.1,0.2-0.3,0.3-0.5,0.5c-0.2,0.2-0.3,0.5-0.5,0.8c-0.4,0.5-0.9,0.9-1.3,1.4&#10;&#9;&#9;&#9;&#9;c0,0.1-0.1,0-0.1-0.1c0.2-0.5,0.6-0.8,1-1.2c0.5-0.5,0.7-1,1.3-1.5c-0.1,0-0.2,0-0.2,0c-0.7-0.1-1.4-0.2-2.1-0.3&#10;&#9;&#9;&#9;&#9;c-0.3,0.3-0.7,0.6-1,1c-0.3,0.3-0.5,0.8-0.9,1c0,0-0.1,0-0.1-0.1c0.2-0.4,0.6-0.7,0.8-1.1c0.2-0.3,0.5-0.6,0.9-0.8&#10;&#9;&#9;&#9;&#9;c-0.5,0-1.1,0-1.6-0.1c0,0-0.1,0-0.1,0c-0.1,0.2-0.3,0.3-0.4,0.5c-0.2,0.1-0.4,0.4-0.6,0.4c0,0-0.1,0-0.1-0.1&#10;&#9;&#9;&#9;&#9;c0.1-0.2,0.3-0.3,0.4-0.4c0.2-0.1,0.3-0.3,0.5-0.4c-0.5-0.1-1.1-0.2-1.4-0.5c0.5,0,1,0.1,1.5,0.2c-0.1-0.1-0.1-0.2-0.2-0.3&#10;&#9;&#9;&#9;&#9;c-0.1-0.2-0.2-0.3-0.3-0.5c-0.1-0.1-0.2-0.2-0.2-0.4c0,0,0-0.1,0.1-0.1c0.2,0.1,0.3,0.3,0.5,0.6c0.1,0.2,0.3,0.5,0.4,0.7&#10;&#9;&#9;&#9;&#9;c0.2,0,0.4,0,0.6,0.1c0.4,0,0.8,0,1.2,0c-0.1-0.2-0.2-0.3-0.3-0.5c-0.2-0.5-0.7-0.9-0.8-1.5c0-0.1,0.1-0.1,0.1-0.1&#10;&#9;&#9;&#9;&#9;c0.3,0.3,0.5,0.8,0.7,1.1c0.2,0.3,0.3,0.7,0.5,0.9c0.3,0,0.6,0,0.9,0.1c0.5,0.1,1,0.3,1.5,0.3c-0.2-0.3-0.4-0.6-0.6-1&#10;&#9;&#9;&#9;&#9;c-0.3-0.5-0.9-0.9-1.1-1.5c0,0,0-0.1,0.1,0c0.7,0.8,1.2,1.7,1.8,2.5c0.6,0,1.2,0,1.8,0.1c-0.3-0.3-0.5-0.6-0.8-0.9&#10;&#9;&#9;&#9;&#9;c-0.3-0.4-0.6-0.8-0.7-1.3c0-0.1,0.1-0.1,0.1-0.1c0.6,0.7,1.1,1.5,1.6,2.3c0.3,0,0.7,0.1,1,0.1c-0.2,0.2-0.4,0.2-0.6,0.2&#10;&#9;&#9;&#9;&#9;c-0.2,0-0.3,0-0.5,0C701.8,602.4,701.4,602.8,701.2,603.2z" style="fill: rgb(190, 115, 184);"/>
			<path class="st1" d="M772.7,536.4c0.1,0,0.1,0,0.2-0.1c0.1-0.2,0-0.5,0.3-0.5c0.5,0.5,0.5-0.5,0.8-0.7c0.5,0.6,0.6-0.7,1.1-0.3&#10;&#9;&#9;&#9;&#9;c0.2,0.2,0.2,0.6,0.5,0.2c0.2-0.3,0.2-0.7,0.5-1c0.4,0.1,0.4,0.8,0.8,0.2c0.1,0.1,0.1,0.1,0.2,0.2c0.2-0.2,0.1-0.5,0.3-0.7&#10;&#9;&#9;&#9;&#9;c0.4,0.4,0.3-0.6,0.7-0.1c0.1,0.2,0.3,0.5,0.5,0.3c0.2-0.1,0-0.5,0.1-0.6c0.1,0,0.2,0.1,0.3,0.1c0.1-0.2-0.1-0.7,0.1-0.8&#10;&#9;&#9;&#9;&#9;c0.1,0.1,0.2,0.1,0.2,0.1c0.1-0.2,0-0.5,0.3-0.6c0.2,0,0.4,0.3,0.5,0.4c0.2-0.4,0.2-0.8,0.2-1.2c0-0.2-0.1-0.4,0-0.5&#10;&#9;&#9;&#9;&#9;c0.1-0.2,0.2-0.2,0.2-0.4c0-0.3-0.2-0.6-0.5-0.7c-0.3-0.2-0.4-0.7-0.7-0.9c-0.3-0.2-1.5-0.5-1.4-0.9c0.1-0.3,0.5-0.6,0.6-0.9&#10;&#9;&#9;&#9;&#9;c0.2-0.3,0.4-0.6,0.6-0.8c0.1-0.1,0.7-0.6,0.6-0.8c-0.1-0.2-0.3-0.1-0.4,0c-0.2,0.3-0.4,0.6-0.7,0.9c-0.3,0.4-0.6,0.7-0.9,1.1&#10;&#9;&#9;&#9;&#9;c-0.1,0.2-0.2,0.4-0.5,0.4c-0.1,0-0.3-0.9-0.4-0.9c-0.5-0.4-1.1-0.1-1.7-0.4c-0.4-0.2-0.7-0.3-1.1-0.1c-0.3,0.1-0.4,0.3-0.6,0.5&#10;&#9;&#9;&#9;&#9;c-0.2,0.1-1.1,0.4-0.6,0.7c-0.2,0.3-1.1,0.6-0.9,1.1c0.1,0,0.3-0.1,0.4-0.1c0,0.3-0.3,0.4-0.3,0.7c0.1,0,0.2,0,0.2,0&#10;&#9;&#9;&#9;&#9;c0,0.3-1.1,1.1-0.7,1.5c0.2,0.2,0.4-0.1,0.6,0.1c0.2,0.1,0,0.3,0,0.5c-0.1,0.2-0.4,0.5-0.4,0.6c0,0.3,0.4,0,0.5,0&#10;&#9;&#9;&#9;&#9;c0.6-0.1,0,0.8-0.1,1c-0.1,0.1-0.3,0.4-0.2,0.5c0.1,0.1,0.4-0.1,0.6,0c0,0.3-0.4,0.5-0.4,0.8c0.1,0,0.2-0.1,0.4,0&#10;&#9;&#9;&#9;&#9;c0,0.3-0.2,0.4-0.4,0.6c-0.2,0.3,0,0.2,0.3,0.2c-0.1,0.2-0.5,0.5-0.4,0.8c0.1,0,0.3-0.1,0.4-0.1c0,0.3-0.2,0.8-0.3,1.1&#10;&#9;&#9;&#9;&#9;C772.5,537,772.4,536.6,772.7,536.4z M773.2,534.1c0.3-0.6,0.7-1.2,1.1-1.8c0.4-0.5,0.7-1.1,1.1-1.7c0.5-0.6,1.4-1.7,1.5-2.2&#10;&#9;&#9;&#9;&#9;c-0.3,0.5-0.6,0.7-1,1.1c-0.7,0.7-1.4,1.3-2.5,1.7c0.5-0.4,1.3-0.8,1.8-1.3c0.4-0.4,1.4-1.2,1.5-1.8c-0.4,0.1-0.7,0.2-1.3,0.3&#10;&#9;&#9;&#9;&#9;c-0.7,0.1-1.3,0.4-2.2,0.5c1.1-0.3,2.2-0.9,3.4-0.9c-0.5-0.1-0.9-0.3-1.4-0.4c-0.4-0.1-0.8-0.1-1.2-0.2c0.2,0,0.4-0.1,0.6,0&#10;&#9;&#9;&#9;&#9;c0.3,0,0.6,0.1,0.9,0.1c0.3,0.1,0.5,0.2,0.8,0.3c0.3,0.1,0.6,0,0.8,0.1c0.2,0,0.2,0.2,0.3,0.4c0.1,0.2,0.3,0.4,0.4,0.6&#10;&#9;&#9;&#9;&#9;c0.2,0.3,0.5,0.5,0.6,0.8c0.2,0.3,0.6,0.6,0.7,1c-0.6-0.6-1.3-1.3-1.7-2c0,0.5,0.1,1.1,0.1,1.6c0,0.3,0.1,0.6,0.1,1&#10;&#9;&#9;&#9;&#9;c0,0.4,0.1,1.1-0.1,1.4c0-0.6,0-1.3-0.1-1.8c-0.1-0.7,0-1.5-0.1-2.2c-0.1,0.6-0.4,1.2-0.6,1.8c-0.2,0.5-0.4,0.9-0.6,1.4&#10;&#9;&#9;&#9;&#9;c-0.3,0.5-0.4,1.1-0.6,1.6c0.1-0.7,0.4-1.4,0.7-2c0.4-0.8,0.9-1.8,0.9-2.7c-0.2,0.2-0.3,0.5-0.5,0.8c-0.3,0.4-0.6,0.8-0.9,1.2&#10;&#9;&#9;&#9;&#9;c-0.4,0.6-0.9,1.2-1.3,1.8c-0.2,0.3-0.3,0.6-0.5,0.9C773.7,533.5,773.4,533.8,773.2,534.1c-0.1,0.2-0.2,0.3-0.3,0.5&#10;&#9;&#9;&#9;&#9;C773,534.4,773.1,534.3,773.2,534.1z" style="fill: rgb(190, 115, 184);"/>
			<path class="st1" d="M801.3,601.6c0.2-0.3,0.5-0.4,0.8-0.5c0.3-0.1,1.9-0.4,1.7-0.8c-0.2-0.3-1.3,0.2-1.7,0.3&#10;&#9;&#9;&#9;&#9;c-0.2,0.1-0.5,0.2-0.8,0.2c-0.4-0.1-1.1-2-4.4-2.8c-0.8-0.2-2-0.2-2.8-0.3c-1-0.1-2.1,0.3-3,0.7c-1.1,0.4-2,1.3-2.8,2.2&#10;&#9;&#9;&#9;&#9;c-0.5,0.6-0.8,1.5-1.5,2c0.2,0.7,0.9,1.1,1.5,1.5c0.5,0.4,1.1,0.9,1.6,1.3c1.6,1.6,3.8,1.7,6,1.1c1.9-0.5,4-1.6,4.9-3.4&#10;&#9;&#9;&#9;&#9;C801,602.6,801.1,602,801.3,601.6z M798.7,603.6c-0.2,0.5-0.6,1.1-1.1,1.5c-0.1,0.1-0.2,0-0.1-0.1c0.2-0.6,0.7-1.1,1-1.7&#10;&#9;&#9;&#9;&#9;c0.2-0.5,0.5-0.9,0.9-1.3c-0.1,0-0.1,0-0.2,0c-0.5,0.1-1.1,0-1.6,0.1c-0.3,0-0.6,0-1,0c-0.2,0.3-0.3,0.5-0.5,0.8&#10;&#9;&#9;&#9;&#9;c-0.3,0.4-0.3,0.8-0.6,1.2c-0.4,0.8-1.1,1.4-1.5,2.2c-0.1,0.1-0.2,0-0.2-0.1c0.2-0.7,0.7-1.3,1.1-1.8c0.6-0.8,0.8-1.6,1.4-2.3&#10;&#9;&#9;&#9;&#9;c-0.1,0-0.2,0-0.4,0c-1,0.1-2,0-3,0.1c-0.4,0.5-0.8,1-1.1,1.6c-0.3,0.5-0.6,1.2-1.1,1.5c-0.1,0-0.1,0-0.1-0.1&#10;&#9;&#9;&#9;&#9;c0.1-0.6,0.6-1.2,0.9-1.7c0.3-0.5,0.6-1,1-1.3c-0.8,0.1-1.5,0.2-2.3,0.3c-0.1,0-0.1,0-0.2,0c-0.1,0.3-0.3,0.5-0.5,0.7&#10;&#9;&#9;&#9;&#9;c-0.2,0.2-0.5,0.6-0.8,0.7c-0.1,0-0.1,0-0.1-0.1c0-0.3,0.3-0.5,0.5-0.7c0.2-0.2,0.4-0.4,0.6-0.7c-0.7,0-1.6,0-2.1-0.4&#10;&#9;&#9;&#9;&#9;c0.7-0.1,1.4-0.1,2.1-0.1c-0.1-0.1-0.2-0.2-0.3-0.4c-0.2-0.2-0.3-0.4-0.5-0.6c-0.2-0.2-0.3-0.3-0.4-0.5c0-0.1,0-0.1,0.1-0.1&#10;&#9;&#9;&#9;&#9;c0.4,0.1,0.6,0.4,0.8,0.7c0.2,0.3,0.5,0.6,0.7,0.9c0.3,0,0.6,0,0.8,0c0.6,0,1.1-0.2,1.7-0.3c-0.2-0.2-0.3-0.4-0.5-0.7&#10;&#9;&#9;&#9;&#9;c-0.4-0.7-1.2-1.1-1.5-1.9c0-0.1,0.1-0.1,0.1-0.1c0.5,0.4,0.8,0.9,1.3,1.4c0.4,0.4,0.5,0.9,0.9,1.2c0.5-0.1,0.9-0.1,1.3-0.1&#10;&#9;&#9;&#9;&#9;c0.7,0.1,1.4,0.2,2.1,0.1c-0.4-0.4-0.7-0.8-1.1-1.2c-0.6-0.7-1.5-1.1-1.8-1.9c0-0.1,0-0.1,0.1-0.1c1.2,0.9,2.1,2,3.1,3.1&#10;&#9;&#9;&#9;&#9;c0.9-0.2,1.7-0.2,2.6-0.3c-0.5-0.3-0.9-0.7-1.3-1.1c-0.5-0.4-1-1-1.2-1.7c0-0.1,0.1-0.2,0.1-0.1c1,0.8,1.8,1.9,2.8,2.8&#10;&#9;&#9;&#9;&#9;c0.5,0,1-0.1,1.5-0.1c-0.2,0.3-0.5,0.4-0.8,0.5c-0.2,0-0.5,0.1-0.7,0.2C799.4,602.4,798.9,602.9,798.7,603.6z" style="fill: rgb(190, 115, 184);"/>
			<path class="st1" d="M705,567.9c-0.2-0.3,0-0.6,0.1-1c0.1-0.3,0.8-1.9,0.4-1.9c-0.3,0-0.7,1.2-0.8,1.6c-0.1,0.2-0.1,0.6-0.3,0.8&#10;&#9;&#9;&#9;&#9;c-0.3,0.3-2.4-0.3-5.1,2c-0.7,0.6-1.4,1.5-2,2.1c-0.7,0.7-1,1.9-1.3,2.9c-0.3,1.2-0.2,2.5,0.1,3.6c0.2,0.7,0.8,1.6,0.7,2.4&#10;&#9;&#9;&#9;&#9;c0.7,0.2,1.5-0.1,2.2-0.3c0.7-0.2,1.4-0.4,2.1-0.5c2.3-0.4,3.7-2.1,4.6-4.2c0.7-1.8,1.1-4.3,0.2-6.1&#10;&#9;&#9;&#9;&#9;C705.7,568.7,705.2,568.3,705,567.9z M705,571.2c0.3,0.5,0.5,1.2,0.6,1.8c0,0.1-0.1,0.1-0.2,0.1c-0.4-0.6-0.5-1.3-0.8-1.9&#10;&#9;&#9;&#9;&#9;c-0.3-0.5-0.4-1-0.6-1.5c0,0.1-0.1,0.1-0.1,0.2c-0.3,0.5-0.6,0.9-0.9,1.4c-0.2,0.3-0.4,0.5-0.6,0.8c0.1,0.3,0.2,0.6,0.3,0.9&#10;&#9;&#9;&#9;&#9;c0.1,0.5,0.5,0.8,0.7,1.2c0.4,0.8,0.6,1.8,0.9,2.6c0,0.1-0.1,0.2-0.2,0.1c-0.5-0.6-0.6-1.3-0.9-2c-0.3-1-0.9-1.6-1.1-2.6&#10;&#9;&#9;&#9;&#9;c-0.1,0.1-0.1,0.2-0.2,0.3c-0.6,0.9-1.2,1.7-1.8,2.5c0.2,0.6,0.4,1.3,0.6,1.9c0.2,0.6,0.7,1.2,0.6,1.8c0,0.1-0.1,0.1-0.1,0.1&#10;&#9;&#9;&#9;&#9;c-0.4-0.5-0.6-1.2-0.8-1.8c-0.2-0.5-0.4-1.1-0.5-1.6c-0.4,0.7-0.7,1.4-1.1,2.1c0,0-0.1,0.1-0.1,0.1c0.2,0.3,0.3,0.6,0.3,0.9&#10;&#9;&#9;&#9;&#9;c0.1,0.3,0.2,0.8,0.1,1.1c0,0.1-0.1,0.1-0.2,0.1c-0.2-0.2-0.2-0.6-0.3-0.8c0-0.3-0.1-0.6-0.2-0.9c-0.4,0.6-1,1.3-1.6,1.5&#10;&#9;&#9;&#9;&#9;c0.4-0.6,0.8-1.2,1.2-1.8c-0.2,0-0.3,0-0.5,0c-0.3,0-0.5,0-0.8,0c-0.2,0-0.4,0.1-0.7,0c-0.1,0-0.1-0.1,0-0.2&#10;&#9;&#9;&#9;&#9;c0.3-0.3,0.7-0.2,1-0.2c0.4,0,0.8,0,1.2,0c0.2-0.2,0.3-0.5,0.5-0.7c0.3-0.5,0.6-1.1,0.8-1.6c-0.3,0-0.6,0-0.8,0&#10;&#9;&#9;&#9;&#9;c-0.8,0-1.7,0.3-2.5,0.1c-0.1,0-0.1-0.1,0-0.2c0.6-0.2,1.3-0.1,1.9-0.2c0.5-0.1,1,0.1,1.6,0c0.2-0.4,0.5-0.8,0.8-1.1&#10;&#9;&#9;&#9;&#9;c0.5-0.5,1-1.1,1.4-1.7c-0.5,0.1-1.1,0.1-1.7,0.1c-0.9,0.1-1.8,0.6-2.7,0.4c-0.1,0-0.1-0.1,0-0.1c1.5-0.5,3-0.5,4.5-0.6&#10;&#9;&#9;&#9;&#9;c0.4-0.8,0.9-1.5,1.3-2.3c-0.5,0.2-1.2,0.3-1.7,0.4c-0.7,0.1-1.5,0.2-2.1,0c-0.1,0-0.1-0.1,0-0.2c1.3-0.3,2.7-0.4,4-0.6&#10;&#9;&#9;&#9;&#9;c0.3-0.4,0.5-0.8,0.8-1.3c0.2,0.3,0,0.7-0.1,1c-0.1,0.2-0.2,0.4-0.3,0.7C704.5,569.9,704.7,570.6,705,571.2z" style="fill: rgb(190, 115, 184);"/>
			<path class="st1" d="M729,602.8c0.1-0.1,0.2,0,0.4-0.2c0.2-0.3,0.1-0.8,0.4-0.9c0.8,0.8,0.8-0.9,1.3-1.2c0.9,1,1.1-1.2,1.8-0.5&#10;&#9;&#9;&#9;&#9;c0.3,0.3,0.4,1,0.8,0.4c0.4-0.5,0.3-1.2,0.8-1.7c0.7,0.2,0.7,1.4,1.3,0.3c0.1,0.1,0.2,0.2,0.3,0.4c0.4-0.3,0.2-0.8,0.4-1.2&#10;&#9;&#9;&#9;&#9;c0.7,0.7,0.4-1.1,1.1-0.2c0.2,0.3,0.5,0.9,0.9,0.5c0.3-0.2,0.1-0.8,0.2-1.1c0.1,0.1,0.3,0.2,0.4,0.2c0.1-0.4-0.1-1.2,0.2-1.4&#10;&#9;&#9;&#9;&#9;c0.1,0.1,0.3,0.2,0.4,0.2c0.2-0.3,0.1-0.9,0.4-0.9c0.3-0.1,0.7,0.5,0.9,0.6c0.3-0.6,0.4-1.3,0.4-2c0-0.3-0.2-0.6-0.1-0.9&#10;&#9;&#9;&#9;&#9;c0.1-0.3,0.4-0.3,0.4-0.6c0-0.5-0.4-1-0.8-1.2c-0.6-0.3-0.7-1.2-1.2-1.6c-0.5-0.4-2.6-0.8-2.4-1.5c0.1-0.5,0.8-1.1,1-1.5&#10;&#9;&#9;&#9;&#9;c0.3-0.5,0.7-0.9,1.1-1.4c0.2-0.2,1.1-1,1-1.3c-0.1-0.4-0.5-0.1-0.6,0.1c-0.4,0.4-0.7,1-1.1,1.4c-0.5,0.6-1.1,1.2-1.6,1.8&#10;&#9;&#9;&#9;&#9;c-0.2,0.3-0.4,0.7-0.8,0.6c-0.2,0-0.4-1.4-0.6-1.6c-0.9-0.6-1.8-0.1-2.8-0.6c-0.7-0.3-1.1-0.4-1.8-0.1c-0.5,0.2-0.6,0.5-1,0.9&#10;&#9;&#9;&#9;&#9;c-0.3,0.2-1.8,0.7-1,1.2c-0.4,0.5-1.8,1.1-1.4,1.9c0.2,0,0.5-0.2,0.7-0.2c0.1,0.5-0.6,0.7-0.5,1.1c0.1,0,0.3,0,0.4,0&#10;&#9;&#9;&#9;&#9;c0,0.6-1.8,1.8-1.1,2.5c0.3,0.3,0.7-0.1,1,0.1c0.3,0.2,0.1,0.6-0.1,0.8c-0.1,0.3-0.7,0.8-0.7,1c0,0.5,0.6,0.1,0.9,0&#10;&#9;&#9;&#9;&#9;c1-0.2,0,1.3-0.2,1.7c-0.1,0.2-0.5,0.7-0.3,0.9c0.2,0.2,0.7-0.1,1-0.1c0,0.5-0.7,0.8-0.6,1.3c0.2,0,0.4-0.1,0.6-0.1&#10;&#9;&#9;&#9;&#9;c0,0.4-0.4,0.7-0.6,1.1c-0.4,0.6,0,0.4,0.4,0.4c-0.1,0.4-0.8,0.9-0.7,1.3c0.2,0,0.4-0.2,0.7-0.2c0,0.6-0.4,1.3-0.5,1.9&#10;&#9;&#9;&#9;&#9;C728.7,603.7,728.6,603.1,729,602.8z M730,598.9c0.5-1,1.2-2,1.8-3c0.6-0.9,1.1-1.9,1.8-2.8c0.8-1.1,2.3-2.8,2.5-3.7&#10;&#9;&#9;&#9;&#9;c-0.5,0.8-1,1.2-1.7,1.8c-1.2,1.1-2.4,2.2-4.1,2.8c0.9-0.6,2.1-1.4,3-2.2c0.7-0.6,2.4-2,2.6-2.9c-0.7,0.1-1.1,0.3-2.1,0.5&#10;&#9;&#9;&#9;&#9;c-1.1,0.2-2.2,0.7-3.6,0.8c1.9-0.4,3.7-1.5,5.7-1.6c-0.8-0.2-1.5-0.4-2.3-0.7c-0.7-0.2-1.4-0.2-2.1-0.3c0.3,0,0.7-0.1,1-0.1&#10;&#9;&#9;&#9;&#9;c0.5,0,1,0.1,1.5,0.2c0.5,0.1,0.9,0.3,1.4,0.4c0.5,0.1,0.9,0,1.4,0.2c0.3,0.1,0.3,0.3,0.4,0.6c0.2,0.4,0.5,0.6,0.7,1&#10;&#9;&#9;&#9;&#9;c0.4,0.6,0.8,0.8,1.1,1.3c0.4,0.5,0.9,1.1,1.1,1.7c-0.9-1.1-2.2-2.1-2.8-3.4c0,0.9,0.1,1.8,0.1,2.7c0,0.5,0.1,1.1,0.1,1.6&#10;&#9;&#9;&#9;&#9;c0,0.7,0.1,1.8-0.2,2.4c0.1-1-0.1-2.1-0.2-3.1c-0.2-1.2,0-2.4-0.2-3.6c-0.2,1.1-0.7,2-1,3c-0.3,0.8-0.6,1.5-1,2.3&#10;&#9;&#9;&#9;&#9;c-0.4,0.8-0.6,1.8-1.1,2.6c0.2-1.1,0.7-2.3,1.2-3.4c0.6-1.4,1.4-3.1,1.5-4.6c-0.3,0.4-0.5,0.9-0.8,1.3c-0.5,0.7-1,1.4-1.5,2.1&#10;&#9;&#9;&#9;&#9;c-0.7,1-1.5,2-2.1,3c-0.3,0.5-0.6,1.1-0.9,1.6C730.8,597.9,730.3,598.4,730,598.9c-0.1,0.3-0.3,0.5-0.4,0.8&#10;&#9;&#9;&#9;&#9;C729.6,599.4,729.8,599.2,730,598.9z" style="fill: rgb(190, 115, 184);"/>
			<path class="st1" d="M741.9,573.5c0.3-0.2,0.5-0.1,0.8-0.1c0.2,0,1.6,0.4,1.6,0.1c0-0.3-1.1-0.4-1.4-0.5c-0.2,0-0.5-0.1-0.7-0.2&#10;&#9;&#9;&#9;&#9;c-0.3-0.2,0-2-2.2-3.9c-0.5-0.5-1.4-1-2-1.4c-0.7-0.5-1.7-0.6-2.6-0.7c-1-0.1-2.1,0.1-3,0.5c-0.6,0.3-1.3,0.8-1.9,0.9&#10;&#9;&#9;&#9;&#9;c-0.1,0.6,0.3,1.2,0.5,1.8c0.2,0.6,0.5,1.1,0.7,1.7c0.6,1.9,2.2,2.8,4,3.3c1.6,0.4,3.7,0.4,5.1-0.6&#10;&#9;&#9;&#9;&#9;C741.3,574.2,741.6,573.8,741.9,573.5z M739.1,574c-0.4,0.3-0.9,0.6-1.4,0.7c-0.1,0-0.1-0.1-0.1-0.1c0.4-0.4,1-0.5,1.5-0.9&#10;&#9;&#9;&#9;&#9;c0.4-0.3,0.8-0.5,1.2-0.6c-0.1,0-0.1,0-0.2-0.1c-0.4-0.2-0.8-0.4-1.2-0.6c-0.3-0.1-0.5-0.2-0.7-0.4c-0.2,0.1-0.5,0.3-0.7,0.4&#10;&#9;&#9;&#9;&#9;c-0.4,0.2-0.6,0.5-0.9,0.7c-0.7,0.4-1.4,0.7-2.1,1.1c-0.1,0-0.2-0.1-0.1-0.1c0.4-0.5,1-0.7,1.6-0.9c0.8-0.3,1.3-0.9,2-1.2&#10;&#9;&#9;&#9;&#9;c-0.1,0-0.2-0.1-0.3-0.1c-0.8-0.4-1.5-0.8-2.3-1.2c-0.5,0.2-1,0.4-1.5,0.7c-0.4,0.3-0.9,0.7-1.5,0.7c-0.1,0-0.1-0.1-0.1-0.1&#10;&#9;&#9;&#9;&#9;c0.3-0.4,0.9-0.6,1.4-0.9c0.4-0.2,0.8-0.5,1.3-0.6c-0.6-0.3-1.3-0.4-1.8-0.7c0,0-0.1,0-0.1-0.1c-0.2,0.2-0.4,0.3-0.7,0.4&#10;&#9;&#9;&#9;&#9;c-0.3,0.1-0.6,0.3-0.9,0.2c-0.1,0-0.1-0.1-0.1-0.1c0.1-0.2,0.4-0.2,0.7-0.3c0.3-0.1,0.5-0.2,0.8-0.3c-0.5-0.3-1.2-0.7-1.4-1.1&#10;&#9;&#9;&#9;&#9;c0.6,0.2,1.1,0.5,1.6,0.8c0-0.1-0.1-0.3-0.1-0.4c0-0.2-0.1-0.4-0.1-0.7c0-0.2-0.1-0.3-0.1-0.5c0-0.1,0.1-0.1,0.1-0.1&#10;&#9;&#9;&#9;&#9;c0.2,0.2,0.3,0.5,0.3,0.8c0.1,0.3,0.1,0.7,0.2,1c0.2,0.1,0.4,0.2,0.6,0.3c0.4,0.2,0.9,0.3,1.4,0.5c-0.1-0.2-0.1-0.5-0.1-0.7&#10;&#9;&#9;&#9;&#9;c-0.1-0.7-0.4-1.4-0.4-2c0-0.1,0.1-0.1,0.1,0c0.2,0.5,0.3,1.1,0.4,1.6c0.1,0.4,0.1,0.9,0.2,1.3c0.4,0.1,0.7,0.3,1,0.5&#10;&#9;&#9;&#9;&#9;c0.5,0.3,1,0.7,1.6,1c-0.2-0.4-0.2-0.9-0.3-1.4c-0.2-0.7-0.7-1.4-0.6-2.2c0,0,0.1-0.1,0.1,0c0.6,1.2,0.7,2.4,1,3.6&#10;&#9;&#9;&#9;&#9;c0.7,0.2,1.4,0.5,2.1,0.8c-0.2-0.4-0.4-0.9-0.5-1.3c-0.2-0.5-0.4-1.2-0.3-1.8c0-0.1,0.1-0.1,0.1,0c0.4,1,0.6,2.2,0.9,3.3&#10;&#9;&#9;&#9;&#9;c0.4,0.2,0.8,0.3,1.2,0.5c-0.3,0.2-0.6,0.1-0.8,0c-0.2-0.1-0.4-0.1-0.6-0.1C740.2,573.4,739.6,573.6,739.1,574z" style="fill: rgb(190, 115, 184);"/>
		</g><g transform="matrix(1, 0, 0, 1, 5.684341886080802e-14, 1.4210854715202004e-14)">
			<path class="st1" d="M690.3,765c1.2-3.6,1.9-7.5,1.9-11.5c0-20-16.2-36.1-36.2-36.1s-36.2,16.2-36.2,36.1c0,4,0.7,7.9,1.9,11.5&#10;&#9;&#9;&#9;&#9;H690.3z" style="fill: rgb(190, 115, 184);"/>
			<path class="st2" d="M678.8,758.8c0,2.1-0.2,4.2-0.5,6.2h12.1c1.2-3.6,1.9-7.5,1.9-11.5c0-20-16.2-36.1-36.2-36.1&#10;&#9;&#9;&#9;&#9;c-7.3,0-14.1,2.2-19.7,5.9c2.1-0.4,4.2-0.6,6.3-0.6C662.6,722.6,678.8,738.8,678.8,758.8z" style="fill: rgb(218, 150, 141);"/>
		</g><path class="st1" d="M755.1,765c3.3-4.9,5.2-10.7,5.2-17.1c0-16.9-13.7-30.6-30.6-30.6c-16.9,0-30.6,13.7-30.6,30.6&#10;&#9;&#9;&#9;c0,6.3,1.9,12.2,5.2,17.1H755.1z" style="fill: rgb(190, 115, 184);" transform="matrix(1, 0, 0, 1, 5.684341886080802e-14, 1.4210854715202004e-14)"/><path class="st1" d="M673.3,765h37.9c11.2-6.5,18.7-18.6,18.7-32.4c0-20.7-16.8-37.5-37.6-37.5c-20.8,0-37.6,16.8-37.6,37.5&#10;&#9;&#9;&#9;C654.6,746.4,662.1,758.5,673.3,765z" style="fill: rgb(190, 115, 184);" transform="matrix(1, 0, 0, 1, 5.684341886080802e-14, 1.4210854715202004e-14)"/><path class="st2" d="M715.9,738.1c0,10.6-4.4,20.1-11.4,26.9h6.7c11.2-6.5,18.7-18.6,18.7-32.4c0-20.7-16.8-37.5-37.6-37.5&#10;&#9;&#9;&#9;c-7.6,0-14.6,2.2-20.5,6.1c2.1-0.4,4.3-0.6,6.6-0.6C699,700.5,715.9,717.3,715.9,738.1z" style="fill: rgb(218, 150, 141);" transform="matrix(1, 0, 0, 1, 5.684341886080802e-14, 1.4210854715202004e-14)"/><path class="st2" d="M748.9,752.4c0,4.5-1,8.7-2.7,12.6h8.9c3.3-4.9,5.2-10.7,5.2-17.1c0-16.9-13.7-30.6-30.6-30.6&#10;&#9;&#9;&#9;c-6.2,0-11.9,1.8-16.7,5c1.7-0.3,3.5-0.5,5.4-0.5C735.2,721.8,748.9,735.5,748.9,752.4z" style="fill: rgb(218, 150, 141);" transform="matrix(1, 0, 0, 1, 5.684341886080802e-14, 1.4210854715202004e-14)"/>
<g transform="matrix(1, 0, 0, 1, 2.842170943040401e-14, 7.105427357601002e-15)">
		<path d="M 1321.800026 177.699997 A 85.400002 85.300003 0 0 1 1236.400024 263 A 85.400002 85.300003 0 0 1 1151.000023 177.699997 A 85.400002 85.300003 0 0 1 1236.400024 92.399994 A 85.400002 85.300003 0 0 1 1321.800026 177.699997 Z" class="st3" style="fill: rgb(255, 243, 122);"/>
	</g>
<g transform="matrix(1, 0, 0, 1, 2.842170943040401e-14, 7.105427357601002e-15)">
		<g>
			<g>
				<g>
					<path d="M 1050.4000244140625 247.89999389648438 L 755.0999755859375 728.0999755859375 L 1050.9000244140625 727.9000244140625 L 1364.0999755859375 727.7000122070312 Z" class="st4" style="fill: rgb(38, 131, 88);"/>
				</g>
			</g>
		</g>
		<path d="M 1175.199951171875 727.7999877929688 L 1364.0999755859375 727.7000122070312 L 1050.4000244140625 247.89999389648438 Z" class="st5" style="fill: rgb(1, 82, 53);"/>
		<path d="M 1148.0999755859375 397.29998779296875 L 1050.4000244140625 247.89999389648438 L 962.5999755859375 390.79998779296875 L 990.5 367.29998779296875 L 1010.9000244140625 395.1000061035156 L 1055.5999755859375 371.70001220703125 L 1091.5 405.8999938964844 L 1110.5 378.70001220703125 Z" class="st6" style="opacity: 0.5; fill: rgb(255, 255, 255);"/>
	</g><g transform="matrix(1, 0, 0, 1, 5.684341886080802e-14, 1.4210854715202004e-14)">
			<g>
				<g>
					<path d="M 252.6999969482422 158.10000610351562 L 0 568.9000244140625 L 0 861.9000244140625 L 253.39999389648438 861.7000122070312 L 712.5 861.4000244140625 Z" class="st4" style="fill: rgb(38, 131, 88);"/>
				</g>
			</g>
		</g><path d="M 435.6000061035156 861.5999755859375 L 712.5 861.4000244140625 L 252.6999969482422 158.10000610351562 Z" class="st5" style="fill: rgb(1, 82, 53);" transform="matrix(1, 0, 0, 1, 5.684341886080802e-14, 1.4210854715202004e-14)"/><path d="M 395.79998779296875 377.1000061035156 L 252.6999969482422 158.10000610351562 L 123.9000015258789 367.5 L 164.89999389648438 333.1000061035156 L 194.6999969482422 373.79998779296875 L 260.29998779296875 339.6000061035156 L 312.8999938964844 389.70001220703125 L 340.70001220703125 349.8999938964844 Z" class="st6" style="opacity: 0.5; fill: rgb(255, 255, 255);" transform="matrix(1, 0, 0, 1, 5.684341886080802e-14, 1.4210854715202004e-14)"/><g transform="matrix(1, 0, 0, 1, 5.684341886080802e-14, 1.4210854715202004e-14)">
			<g>
				<g>
					<path d="M 609 69.5 L 199.1999969482422 725.0999755859375 L 609.7000122070312 724.7999877929688 L 1044.300048828125 724.5 Z" class="st4" style="fill: rgb(38, 131, 88);"/>
				</g>
			</g>
		</g><path d="M 734.0999755859375 724.7000122070312 L 1044.300048828125 724.5 L 609 69.5 Z" class="st5" style="fill: rgb(1, 82, 53);" transform="matrix(1, 0, 0, 1, 5.684341886080802e-14, 1.4210854715202004e-14)"/><path d="M 719.7000122070312 236 L 609 69.5 L 487.1000061035156 264.5 L 556.7999877929688 225.60000610351562 L 644.9000244140625 257.1000061035156 L 665.7000122070312 221.8000030517578 Z" class="st6" style="opacity: 0.5; fill: rgb(255, 255, 255);" transform="matrix(1, 0, 0, 1, 5.684341886080802e-14, 1.4210854715202004e-14)"/>
<path class="st7" d="M416.1,574.2c-152.5,0-295,18.1-416.1,49.4v354.3h1197.8c10.5-21.8,16-44.3,16-67.3&#10;&#9;&#9;C1213.8,724.7,856.6,574.2,416.1,574.2z" style="fill: rgb(255, 193, 82);" transform="matrix(1, 0, 0, 1, 2.842170943040401e-14, 7.105427357601002e-15)"/><path class="st8" d="M1400,980v-96.6c-199.7-110-514.3-180.9-868.2-180.9c-193.1,0-374.4,21.1-531.8,58.2V980H1400z" style="fill: rgb(255, 172, 6);" transform="matrix(1, 0, 0, 1, 2.842170943040401e-14, 7.105427357601002e-15)"/><path class="st9" d="M1400,980V647.3c-6.2,0.1-12.5,0.3-18.8,0.5C834.3,664.3,636.3,930.5,622.3,980H1400z" style="fill: rgb(253, 159, 0);" transform="matrix(1, 0, 0, 1, 2.842170943040401e-14, 7.105427357601002e-15)"/><path class="st10" d="M709,980C693.7,932.8,523,672.8,60.1,663.6c-20.6-0.4-40.6-0.1-60.1,0.9V980H709z" style="fill: rgb(225, 121, 0);" transform="matrix(1, 0, 0, 1, 2.842170943040401e-14, 7.105427357601002e-15)"/>
<g transform="matrix(1, 0, 0, 1, 2.842170943040401e-14, 7.105427357601002e-15)">
		<path d="M 378.799988 555.799988 H 383.999988 V 584.499989 H 378.799988 V 555.799988 Z" class="st11" style="fill: rgb(130, 94, 66);"/>
		<g>
			<g>
				<path d="M 381.3999938964844 507.1000061035156 L 360.3999938964844 558.7000122070312 L 381.3999938964844 558.7000122070312 L 402.3999938964844 558.7000122070312 Z" class="st12" style="fill: rgb(121, 156, 87);"/>
				<path d="M 381.3999938964844 492.8999938964844 L 363.8999938964844 544.4000244140625 L 381.3999938964844 544.4000244140625 L 398.8999938964844 544.4000244140625 Z" class="st12" style="fill: rgb(121, 156, 87);"/>
				<path d="M 381.3999938964844 478.6000061035156 L 366.3999938964844 530.2000122070312 L 381.3999938964844 530.2000122070312 L 396.3999938964844 530.2000122070312 Z" class="st12" style="fill: rgb(121, 156, 87);"/>
			</g>
		</g>
	</g><path d="M 495.5 577.900024 H 501.8 V 612.200024 H 495.5 V 577.900024 Z" class="st11" style="fill: rgb(130, 94, 66);" transform="matrix(1, 0, 0, 1, 5.684341886080802e-14, 1.4210854715202004e-14)"/><g transform="matrix(1, 0, 0, 1, 8.526512829121202e-14, 2.1316282072803006e-14)">
				<path d="M 498.6000061035156 519.5999755859375 L 473.5 581.4000244140625 L 498.6000061035156 581.4000244140625 L 523.7999877929688 581.4000244140625 Z" class="st12" style="fill: rgb(121, 156, 87);"/>
				<path d="M 498.6000061035156 502.6000061035156 L 477.70001220703125 564.4000244140625 L 498.6000061035156 564.4000244140625 L 519.5999755859375 564.4000244140625 Z" class="st12" style="fill: rgb(121, 156, 87);"/>
				<path d="M 498.6000061035156 485.5 L 480.6000061035156 547.2999877929688 L 498.6000061035156 547.2999877929688 L 516.5999755859375 547.2999877929688 Z" class="st12" style="fill: rgb(121, 156, 87);"/>
			</g><path d="M 550.900024 596 H 555.400024 V 620.6 H 550.900024 V 596 Z" class="st11" style="fill: rgb(130, 94, 66);" transform="matrix(1, 0, 0, 1, 5.684341886080802e-14, 1.4210854715202004e-14)"/><g transform="matrix(1, 0, 0, 1, 8.526512829121202e-14, 2.1316282072803006e-14)">
				<path d="M 553.0999755859375 554.4000244140625 L 535.0999755859375 598.5 L 553.0999755859375 598.5 L 571.0999755859375 598.5 Z" class="st12" style="fill: rgb(121, 156, 87);"/>
				<path d="M 553.0999755859375 542.2000122070312 L 538.0999755859375 586.2999877929688 L 553.0999755859375 586.2999877929688 L 568.0999755859375 586.2999877929688 Z" class="st12" style="fill: rgb(121, 156, 87);"/>
				<path d="M 553.0999755859375 530 L 540.2999877929688 574.0999755859375 L 553.0999755859375 574.0999755859375 L 566 574.0999755859375 Z" class="st12" style="fill: rgb(121, 156, 87);"/>
			</g><path d="M 912.099976 654.900024 H 916.599976 V 679.500025 H 912.099976 V 654.900024 Z" class="st11" style="fill: rgb(130, 94, 66);" transform="matrix(1, 0, 0, 1, 5.684341886080802e-14, 1.4210854715202004e-14)"/><g transform="matrix(1, 0, 0, 1, 8.526512829121202e-14, 2.1316282072803006e-14)">
				<path d="M 914.2999877929688 613.2999877929688 L 896.2999877929688 657.4000244140625 L 914.2999877929688 657.4000244140625 L 932.2999877929688 657.4000244140625 Z" class="st12" style="fill: rgb(121, 156, 87);"/>
				<path d="M 914.2999877929688 601.0999755859375 L 899.2999877929688 645.2999877929688 L 914.2999877929688 645.2999877929688 L 929.2999877929688 645.2999877929688 Z" class="st12" style="fill: rgb(121, 156, 87);"/>
				<path d="M 914.2999877929688 588.9000244140625 L 901.5 633.0999755859375 L 914.2999877929688 633.0999755859375 L 927.2000122070312 633.0999755859375 Z" class="st12" style="fill: rgb(121, 156, 87);"/>
			</g><path d="M 953.700012 688 H 958.200012 V 712.6 H 953.700012 V 688 Z" class="st11" style="fill: rgb(130, 94, 66);" transform="matrix(1, 0, 0, 1, 5.684341886080802e-14, 1.4210854715202004e-14)"/><g transform="matrix(1, 0, 0, 1, 8.526512829121202e-14, 2.1316282072803006e-14)">
				<path d="M 956 646.2999877929688 L 938 690.5 L 956 690.5 L 974 690.5 Z" class="st12" style="fill: rgb(121, 156, 87);"/>
				<path d="M 956 634.0999755859375 L 941 678.2999877929688 L 956 678.2999877929688 L 971 678.2999877929688 Z" class="st12" style="fill: rgb(121, 156, 87);"/>
				<path d="M 956 621.9000244140625 L 943.0999755859375 666.0999755859375 L 956 666.0999755859375 L 968.9000244140625 666.0999755859375 Z" class="st12" style="fill: rgb(121, 156, 87);"/>
			</g><path d="M 1000.599976 694.799988 H 1006.599976 V 727.399986 H 1000.599976 V 694.799988 Z" class="st11" style="fill: rgb(130, 94, 66);" transform="matrix(1, 0, 0, 1, 5.684341886080802e-14, 1.4210854715202004e-14)"/><g transform="matrix(1, 0, 0, 1, 8.526512829121202e-14, 2.1316282072803006e-14)">
				<path d="M 1003.5 639.4000244140625 L 979.7000122070312 698.0999755859375 L 1003.5 698.0999755859375 L 1027.4000244140625 698.0999755859375 Z" class="st12" style="fill: rgb(121, 156, 87);"/>
				<path d="M 1003.5 623.2999877929688 L 983.7000122070312 681.9000244140625 L 1003.5 681.9000244140625 L 1023.4000244140625 681.9000244140625 Z" class="st12" style="fill: rgb(121, 156, 87);"/>
				<path d="M 1003.5 607.0999755859375 L 986.5 665.7000122070312 L 1003.5 665.7000122070312 L 1020.5999755859375 665.7000122070312 Z" class="st12" style="fill: rgb(121, 156, 87);"/>
			</g><path d="M 580.5 602.200012 H 585 V 626.800013 H 580.5 V 602.200012 Z" class="st11" style="fill: rgb(130, 94, 66);" transform="matrix(1, 0, 0, 1, 5.684341886080802e-14, 1.4210854715202004e-14)"/><g transform="matrix(1, 0, 0, 1, 8.526512829121202e-14, 2.1316282072803006e-14)">
				<path d="M 582.7000122070312 560.5 L 564.7999877929688 604.7000122070312 L 582.7000122070312 604.7000122070312 L 600.7000122070312 604.7000122070312 Z" class="st12" style="fill: rgb(121, 156, 87);"/>
				<path d="M 582.7000122070312 548.2999877929688 L 567.7999877929688 592.5 L 582.7000122070312 592.5 L 597.7000122070312 592.5 Z" class="st12" style="fill: rgb(121, 156, 87);"/>
				<path d="M 582.7000122070312 536.0999755859375 L 569.9000244140625 580.2999877929688 L 582.7000122070312 580.2999877929688 L 595.5999755859375 580.2999877929688 Z" class="st12" style="fill: rgb(121, 156, 87);"/>
			</g><path d="M 619.200012 591.099976 H 623.700012 V 615.699976 H 619.200012 V 591.099976 Z" class="st11" style="fill: rgb(130, 94, 66);" transform="matrix(1, 0, 0, 1, 5.684341886080802e-14, 1.4210854715202004e-14)"/><g transform="matrix(1, 0, 0, 1, 8.526512829121202e-14, 2.1316282072803006e-14)">
				<path d="M 621.5 549.5 L 603.5 593.5999755859375 L 621.5 593.5999755859375 L 639.5 593.5999755859375 Z" class="st12" style="fill: rgb(121, 156, 87);"/>
				<path d="M 621.5 537.2999877929688 L 606.5 581.4000244140625 L 621.5 581.4000244140625 L 636.5 581.4000244140625 Z" class="st12" style="fill: rgb(121, 156, 87);"/>
				<path d="M 621.5 525.0999755859375 L 608.5999755859375 569.2999877929688 L 621.5 569.2999877929688 L 634.2999877929688 569.2999877929688 Z" class="st12" style="fill: rgb(121, 156, 87);"/>
			</g><path d="M 432.899994 538.799988 H 441.699994 V 586.799988 H 432.899994 V 538.799988 Z" class="st11" style="fill: rgb(130, 94, 66);" transform="matrix(1, 0, 0, 1, 5.684341886080802e-14, 1.4210854715202004e-14)"/><g transform="matrix(1, 0, 0, 1, 8.526512829121202e-14, 2.1316282072803006e-14)">
				<path d="M 437.29998779296875 457.29998779296875 L 402.1000061035156 543.7000122070312 L 437.29998779296875 543.7000122070312 L 472.5 543.7000122070312 Z" class="st12" style="fill: rgb(121, 156, 87);"/>
				<path d="M 437.29998779296875 433.5 L 408 519.9000244140625 L 437.29998779296875 519.9000244140625 L 466.6000061035156 519.9000244140625 Z" class="st12" style="fill: rgb(121, 156, 87);"/>
				<path d="M 437.29998779296875 409.6000061035156 L 412.20001220703125 496 L 437.29998779296875 496 L 462.5 496 Z" class="st12" style="fill: rgb(121, 156, 87);"/>
			</g><path d="M 518.700012 634.200012 H 529.000012 V 690.200012 H 518.700012 V 634.200012 Z" class="st11" style="fill: rgb(130, 94, 66);" transform="matrix(1, 0, 0, 1, 5.684341886080802e-14, 1.4210854715202004e-14)"/><g transform="matrix(1, 0, 0, 1, 8.526512829121202e-14, 2.1316282072803006e-14)">
				<path d="M 523.7999877929688 539.0999755859375 L 482.79998779296875 639.9000244140625 L 523.7999877929688 639.9000244140625 L 564.7999877929688 639.9000244140625 Z" class="st12" style="fill: rgb(121, 156, 87);"/>
				<path d="M 523.7999877929688 511.29998779296875 L 489.6000061035156 612.0999755859375 L 523.7999877929688 612.0999755859375 L 558 612.0999755859375 Z" class="st12" style="fill: rgb(121, 156, 87);"/>
				<path d="M 523.7999877929688 483.5 L 494.5 584.2999877929688 L 523.7999877929688 584.2999877929688 L 553.0999755859375 584.2999877929688 Z" class="st12" style="fill: rgb(121, 156, 87);"/>
			</g><path d="M 1081.699951 663 H 1091.999951 V 719 H 1081.699951 V 663 Z" class="st11" style="fill: rgb(130, 94, 66);" transform="matrix(1, 0, 0, 1, 5.684341886080802e-14, 1.4210854715202004e-14)"/><g transform="matrix(1, 0, 0, 1, 8.526512829121202e-14, 2.1316282072803006e-14)">
				<path d="M 1086.800048828125 568 L 1045.800048828125 668.7000122070312 L 1086.800048828125 668.7000122070312 L 1127.800048828125 668.7000122070312 Z" class="st12" style="fill: rgb(121, 156, 87);"/>
				<path d="M 1086.800048828125 540.2000122070312 L 1052.5999755859375 640.9000244140625 L 1086.800048828125 640.9000244140625 L 1121 640.9000244140625 Z" class="st12" style="fill: rgb(121, 156, 87);"/>
				<path d="M 1086.800048828125 512.4000244140625 L 1057.4000244140625 613.0999755859375 L 1086.800048828125 613.0999755859375 L 1116.0999755859375 613.0999755859375 Z" class="st12" style="fill: rgb(121, 156, 87);"/>
			</g><path d="M 1151.400024 658.099976 H 1167.800024 V 747.399979 H 1151.400024 V 658.099976 Z" class="st11" style="fill: rgb(130, 94, 66);" transform="matrix(1, 0, 0, 1, 5.684341886080802e-14, 1.4210854715202004e-14)"/><g transform="matrix(1, 0, 0, 1, 8.526512829121202e-14, 2.1316282072803006e-14)">
				<path d="M 1159.5999755859375 506.5 L 1094.199951171875 667.0999755859375 L 1159.5999755859375 667.0999755859375 L 1225 667.0999755859375 Z" class="st12" style="fill: rgb(121, 156, 87);"/>
				<path d="M 1159.5999755859375 462.1000061035156 L 1105.0999755859375 622.7999877929688 L 1159.5999755859375 622.7999877929688 L 1214.0999755859375 622.7999877929688 Z" class="st12" style="fill: rgb(121, 156, 87);"/>
				<path d="M 1159.5999755859375 417.79998779296875 L 1112.800048828125 578.4000244140625 L 1159.5999755859375 578.4000244140625 L 1206.4000244140625 578.4000244140625 Z" class="st12" style="fill: rgb(121, 156, 87);"/>
			</g><path d="M 99.099998 599.400024 H 111.099998 V 665.100021 H 99.099998 V 599.400024 Z" class="st11" style="fill: rgb(130, 94, 66);" transform="matrix(1, 0, 0, 1, 5.684341886080802e-14, 1.4210854715202004e-14)"/><g transform="matrix(1, 0, 0, 1, 8.526512829121202e-14, 2.1316282072803006e-14)">
				<path d="M 105.0999984741211 487.8999938964844 L 57 606.0999755859375 L 105.0999984741211 606.0999755859375 L 153.1999969482422 606.0999755859375 Z" class="st12" style="fill: rgb(121, 156, 87);"/>
				<path d="M 105.0999984741211 455.29998779296875 L 65 573.5 L 105.0999984741211 573.5 L 145.1999969482422 573.5 Z" class="st12" style="fill: rgb(121, 156, 87);"/>
				<path d="M 105.0999984741211 422.70001220703125 L 70.69999694824219 540.9000244140625 L 105.0999984741211 540.9000244140625 L 139.5 540.9000244140625 Z" class="st12" style="fill: rgb(121, 156, 87);"/>
			</g><path d="M 30.200001 603.400024 H 39.000001 V 651.400024 H 30.200001 V 603.400024 Z" class="st11" style="fill: rgb(130, 94, 66);" transform="matrix(1, 0, 0, 1, 5.684341886080802e-14, 1.4210854715202004e-14)"/><g transform="matrix(1, 0, 0, 1, 8.526512829121202e-14, 2.1316282072803006e-14)">
				<path d="M 34.599998474121094 521.9000244140625 L 0 606.9000244140625 L 0 608.2999877929688 L 69.80000305175781 608.2999877929688 Z" class="st12" style="fill: rgb(121, 156, 87);"/>
				<path d="M 34.599998474121094 498.1000061035156 L 5.300000190734863 584.5 L 34.599998474121094 584.5 L 63.900001525878906 584.5 Z" class="st12" style="fill: rgb(121, 156, 87);"/>
				<path d="M 34.599998474121094 474.20001220703125 L 9.399999618530273 560.5999755859375 L 34.599998474121094 560.5999755859375 L 59.79999923706055 560.5999755859375 Z" class="st12" style="fill: rgb(121, 156, 87);"/>
			</g>
<g transform="matrix(1, 0, 0, 1, 2.842170943040401e-14, 7.105427357601002e-15)">
		<g>
			<path class="st8" d="M283.2,876.4c0.2-0.3,0.6-0.3,0.9-0.4c0.3-0.1,2.1-0.1,1.9-0.6c-0.1-0.3-1.4-0.1-1.9,0&#10;&#9;&#9;&#9;&#9;c-0.3,0-0.6,0.1-0.9,0.1c-0.4-0.1-0.8-2.3-4.2-3.7c-0.8-0.3-2-0.6-2.9-0.8c-1-0.3-2.2,0-3.2,0.2c-1.2,0.2-2.4,1-3.3,1.8&#10;&#9;&#9;&#9;&#9;c-0.6,0.5-1.1,1.4-1.9,1.8c0.1,0.7,0.8,1.3,1.3,1.9c0.5,0.6,1,1.1,1.5,1.7c1.4,1.9,3.7,2.4,6,2.2c2-0.2,4.5-1,5.7-2.7&#10;&#9;&#9;&#9;&#9;C282.7,877.5,282.8,876.9,283.2,876.4z M280.1,878c-0.3,0.5-0.8,1-1.4,1.3c-0.1,0-0.2,0-0.1-0.1c0.4-0.6,1-1,1.4-1.6&#10;&#9;&#9;&#9;&#9;c0.3-0.5,0.7-0.9,1.1-1.2c-0.1,0-0.1,0-0.2,0c-0.6,0-1.1-0.2-1.7-0.2c-0.3,0-0.7-0.1-1-0.1c-0.2,0.3-0.4,0.5-0.7,0.7&#10;&#9;&#9;&#9;&#9;c-0.4,0.3-0.5,0.8-0.8,1.2c-0.6,0.7-1.4,1.3-2,2.1c-0.1,0.1-0.2,0-0.2-0.1c0.3-0.7,0.9-1.2,1.5-1.7c0.8-0.7,1.1-1.6,1.9-2.2&#10;&#9;&#9;&#9;&#9;c-0.1,0-0.2,0-0.4-0.1c-1.1-0.1-2.1-0.3-3.1-0.4c-0.5,0.5-1,0.9-1.4,1.4c-0.4,0.5-0.8,1.2-1.4,1.4c-0.1,0-0.2,0-0.1-0.1&#10;&#9;&#9;&#9;&#9;c0.2-0.6,0.8-1.1,1.3-1.6c0.4-0.4,0.8-0.9,1.3-1.2c-0.8-0.1-1.6,0-2.4-0.1c-0.1,0-0.1,0-0.2,0c-0.1,0.3-0.4,0.5-0.7,0.7&#10;&#9;&#9;&#9;&#9;c-0.3,0.2-0.6,0.6-1,0.6c-0.1,0-0.1-0.1-0.1-0.1c0.1-0.3,0.4-0.5,0.7-0.6c0.3-0.2,0.5-0.4,0.8-0.6c-0.7-0.1-1.6-0.3-2.1-0.8&#10;&#9;&#9;&#9;&#9;c0.8,0.1,1.5,0.2,2.2,0.3c-0.1-0.1-0.2-0.3-0.3-0.5c-0.1-0.2-0.3-0.5-0.4-0.7c-0.1-0.2-0.3-0.4-0.3-0.6c0-0.1,0-0.1,0.1-0.1&#10;&#9;&#9;&#9;&#9;c0.4,0.1,0.5,0.5,0.7,0.8c0.2,0.4,0.4,0.7,0.6,1.1c0.3,0,0.6,0.1,0.9,0.1c0.6,0.1,1.2,0,1.9,0c-0.2-0.2-0.3-0.5-0.4-0.8&#10;&#9;&#9;&#9;&#9;c-0.3-0.8-1.1-1.4-1.2-2.2c0-0.1,0.1-0.1,0.1-0.1c0.5,0.5,0.7,1.1,1.1,1.7c0.3,0.5,0.4,1,0.8,1.4c0.5,0,1,0,1.4,0.2&#10;&#9;&#9;&#9;&#9;c0.7,0.2,1.5,0.5,2.2,0.5c-0.4-0.4-0.6-1-0.9-1.5c-0.5-0.8-1.4-1.4-1.6-2.3c0-0.1,0.1-0.1,0.1-0.1c1.1,1.1,1.8,2.5,2.7,3.8&#10;&#9;&#9;&#9;&#9;c0.9,0,1.8,0.1,2.7,0.2c-0.4-0.4-0.8-0.9-1.2-1.4c-0.4-0.5-0.9-1.2-1-1.9c0-0.1,0.1-0.2,0.2-0.1c0.9,1,1.6,2.3,2.4,3.4&#10;&#9;&#9;&#9;&#9;c0.5,0,1,0.1,1.5,0.1c-0.2,0.3-0.6,0.3-0.9,0.3c-0.2,0-0.5,0-0.7,0.1C281,876.9,280.5,877.4,280.1,878z" style="fill: rgb(255, 172, 6);"/>
			<path class="st8" d="M391.7,794.8c0.1-0.1,0.2,0,0.3-0.1c0.2-0.2,0.1-0.7,0.4-0.8c0.7,0.8,0.7-0.8,1.2-1.1c0.8,0.9,1-1.1,1.6-0.4&#10;&#9;&#9;&#9;&#9;c0.2,0.2,0.3,0.9,0.7,0.3c0.3-0.5,0.3-1.1,0.7-1.5c0.6,0.2,0.6,1.2,1.1,0.3c0.1,0.1,0.2,0.2,0.2,0.3c0.3-0.3,0.2-0.7,0.4-1.1&#10;&#9;&#9;&#9;&#9;c0.6,0.6,0.4-0.9,1-0.2c0.2,0.2,0.4,0.8,0.8,0.5c0.2-0.2,0.1-0.7,0.2-1c0.1,0.1,0.2,0.1,0.4,0.2c0.1-0.3-0.1-1.1,0.2-1.3&#10;&#9;&#9;&#9;&#9;c0.1,0.1,0.2,0.2,0.3,0.2c0.2-0.3,0.1-0.8,0.4-0.8c0.3-0.1,0.6,0.4,0.8,0.6c0.3-0.6,0.4-1.2,0.3-1.8c0-0.3-0.2-0.6-0.1-0.8&#10;&#9;&#9;&#9;&#9;c0.1-0.2,0.3-0.3,0.3-0.5c0-0.5-0.3-0.9-0.7-1.1c-0.5-0.2-0.6-1.1-1.1-1.4c-0.5-0.3-2.3-0.8-2.2-1.3c0.1-0.5,0.7-1,0.9-1.4&#10;&#9;&#9;&#9;&#9;c0.3-0.5,0.6-0.8,1-1.3c0.2-0.2,1-0.9,0.9-1.1c-0.1-0.4-0.4-0.1-0.6,0.1c-0.3,0.4-0.6,0.9-1,1.3c-0.4,0.6-1,1-1.4,1.6&#10;&#9;&#9;&#9;&#9;c-0.2,0.3-0.3,0.6-0.7,0.6c-0.2,0-0.4-1.3-0.5-1.4c-0.8-0.5-1.7-0.1-2.5-0.5c-0.6-0.3-1-0.4-1.6-0.1c-0.4,0.2-0.6,0.5-0.9,0.8&#10;&#9;&#9;&#9;&#9;c-0.2,0.2-1.6,0.6-0.9,1.1c-0.3,0.4-1.6,0.9-1.3,1.7c0.2,0,0.4-0.2,0.6-0.1c0,0.4-0.5,0.6-0.4,1c0.1,0,0.2,0,0.3,0&#10;&#9;&#9;&#9;&#9;c0,0.5-1.6,1.6-1,2.2c0.2,0.2,0.7-0.1,0.9,0.1c0.2,0.2,0.1,0.5-0.1,0.7c-0.1,0.2-0.7,0.7-0.7,0.9c0,0.4,0.6,0,0.8,0&#10;&#9;&#9;&#9;&#9;c0.9-0.2,0,1.1-0.2,1.5c-0.1,0.2-0.5,0.6-0.3,0.8c0.1,0.2,0.7-0.1,0.9-0.1c0,0.4-0.6,0.7-0.5,1.2c0.2,0,0.4-0.1,0.6-0.1&#10;&#9;&#9;&#9;&#9;c0,0.4-0.4,0.7-0.6,1c-0.3,0.5,0,0.3,0.4,0.4c-0.1,0.4-0.7,0.8-0.6,1.2c0.2,0,0.4-0.2,0.6-0.2c0,0.5-0.4,1.2-0.4,1.7&#10;&#9;&#9;&#9;&#9;C391.4,795.6,391.4,795,391.7,794.8z M392.6,791.3c0.5-0.9,1-1.8,1.7-2.7c0.6-0.8,1-1.7,1.6-2.5c0.7-0.9,2.1-2.5,2.2-3.3&#10;&#9;&#9;&#9;&#9;c-0.4,0.7-0.9,1.1-1.5,1.6c-1.1,1-2.1,1.9-3.7,2.5c0.8-0.5,1.9-1.3,2.7-1.9c0.6-0.6,2.1-1.8,2.3-2.6c-0.6,0.1-1,0.3-1.9,0.5&#10;&#9;&#9;&#9;&#9;c-1,0.2-2,0.6-3.3,0.7c1.7-0.4,3.4-1.3,5.1-1.4c-0.7-0.2-1.4-0.4-2-0.6c-0.6-0.2-1.2-0.2-1.8-0.2c0.3,0,0.6-0.1,0.9-0.1&#10;&#9;&#9;&#9;&#9;c0.4,0,0.9,0.1,1.3,0.2c0.4,0.1,0.8,0.3,1.2,0.4c0.4,0.1,0.8,0,1.2,0.1c0.3,0.1,0.3,0.3,0.4,0.5c0.1,0.4,0.4,0.6,0.6,0.9&#10;&#9;&#9;&#9;&#9;c0.3,0.5,0.7,0.7,1,1.2c0.3,0.5,0.8,0.9,1,1.5c-0.8-1-2-1.9-2.5-3c0,0.8,0.1,1.6,0.1,2.4c0,0.5,0.1,1,0.1,1.5&#10;&#9;&#9;&#9;&#9;c0,0.6,0.1,1.6-0.2,2.1c0-0.9,0-1.9-0.2-2.8c-0.1-1.1,0-2.2-0.1-3.3c-0.2,0.9-0.6,1.8-0.9,2.7c-0.3,0.7-0.6,1.4-0.9,2&#10;&#9;&#9;&#9;&#9;c-0.4,0.8-0.5,1.6-1,2.3c0.2-1,0.7-2.1,1.1-3c0.5-1.2,1.3-2.7,1.3-4.1c-0.3,0.3-0.5,0.8-0.7,1.1c-0.5,0.6-0.9,1.2-1.4,1.9&#10;&#9;&#9;&#9;&#9;c-0.6,0.9-1.3,1.8-1.9,2.7c-0.3,0.5-0.5,1-0.8,1.4C393.3,790.4,392.9,790.9,392.6,791.3c-0.1,0.2-0.3,0.5-0.4,0.7&#10;&#9;&#9;&#9;&#9;C392.2,791.8,392.4,791.5,392.6,791.3z" style="fill: rgb(255, 172, 6);"/>
			<path class="st8" d="M392.7,837.4c0.3-0.5,0.7-0.6,1.2-0.8c0.4-0.1,2.9-0.7,2.5-1.2c-0.3-0.4-2,0.3-2.6,0.4&#10;&#9;&#9;&#9;&#9;c-0.3,0.1-0.8,0.3-1.2,0.3c-0.6-0.1-1.6-3.1-6.6-4.2c-1.2-0.3-2.9-0.4-4.2-0.5c-1.5-0.2-3.1,0.5-4.5,1c-1.6,0.6-3.1,1.9-4.1,3.2&#10;&#9;&#9;&#9;&#9;c-0.7,0.9-1.3,2.3-2.2,2.9c0.4,1,1.4,1.7,2.2,2.3c0.8,0.7,1.7,1.3,2.4,2c2.5,2.4,5.7,2.5,8.9,1.7c2.8-0.7,6-2.4,7.4-5&#10;&#9;&#9;&#9;&#9;C392.3,839,392.4,838.1,392.7,837.4z M388.8,840.4c-0.3,0.8-0.9,1.6-1.6,2.2c-0.1,0.1-0.2,0-0.2-0.1c0.4-0.9,1.1-1.7,1.5-2.6&#10;&#9;&#9;&#9;&#9;c0.3-0.7,0.8-1.4,1.3-2c-0.1,0-0.2,0-0.3,0.1c-0.8,0.1-1.6,0-2.4,0.1c-0.5,0.1-1,0-1.4,0c-0.2,0.4-0.5,0.8-0.8,1.2&#10;&#9;&#9;&#9;&#9;c-0.4,0.6-0.5,1.2-0.8,1.8c-0.7,1.2-1.6,2.2-2.3,3.3c-0.1,0.1-0.3,0-0.3-0.1c0.2-1.1,1-1.9,1.7-2.7c0.9-1.2,1.2-2.4,2.1-3.5&#10;&#9;&#9;&#9;&#9;c-0.2,0-0.4,0-0.5,0c-1.5,0.1-3,0-4.5,0.1c-0.6,0.8-1.2,1.5-1.7,2.3c-0.5,0.8-0.8,1.8-1.6,2.3c-0.1,0-0.2,0-0.2-0.1&#10;&#9;&#9;&#9;&#9;c0.2-0.9,0.9-1.7,1.4-2.5c0.4-0.7,0.9-1.4,1.5-2c-1.1,0.1-2.3,0.4-3.4,0.4c-0.1,0-0.2,0-0.3,0c-0.1,0.4-0.4,0.8-0.7,1.1&#10;&#9;&#9;&#9;&#9;c-0.3,0.4-0.7,0.9-1.2,1.1c-0.1,0-0.2,0-0.2-0.1c0.1-0.4,0.5-0.7,0.8-1c0.3-0.3,0.6-0.7,0.9-1c-1.1,0-2.3-0.1-3.1-0.6&#10;&#9;&#9;&#9;&#9;c1.1-0.1,2.1-0.1,3.2-0.1c-0.2-0.2-0.3-0.4-0.5-0.6c-0.3-0.3-0.5-0.6-0.8-0.9c-0.2-0.3-0.5-0.4-0.6-0.7c0-0.1,0-0.2,0.1-0.2&#10;&#9;&#9;&#9;&#9;c0.5,0.1,0.8,0.6,1.2,1c0.4,0.5,0.7,0.9,1.1,1.4c0.4,0,0.8,0,1.2-0.1c0.8-0.1,1.7-0.3,2.6-0.4c-0.3-0.3-0.5-0.6-0.7-1&#10;&#9;&#9;&#9;&#9;c-0.7-1-1.8-1.7-2.2-2.8c0-0.1,0.1-0.2,0.2-0.1c0.7,0.6,1.3,1.4,1.9,2.1c0.5,0.6,0.8,1.3,1.4,1.8c0.7-0.1,1.4-0.2,2-0.1&#10;&#9;&#9;&#9;&#9;c1,0.1,2.1,0.3,3.2,0.2c-0.6-0.5-1.1-1.2-1.6-1.8c-0.8-1-2.2-1.6-2.7-2.8c0-0.1,0.1-0.2,0.1-0.1c1.8,1.3,3.1,3.1,4.6,4.7&#10;&#9;&#9;&#9;&#9;c1.3-0.2,2.6-0.3,3.9-0.4c-0.7-0.5-1.3-1.1-1.9-1.6c-0.7-0.7-1.6-1.5-1.8-2.5c0-0.1,0.1-0.2,0.2-0.2c1.5,1.3,2.8,2.8,4.1,4.2&#10;&#9;&#9;&#9;&#9;c0.7-0.1,1.4-0.1,2.2-0.2c-0.3,0.5-0.8,0.6-1.2,0.7c-0.3,0.1-0.7,0.2-1,0.3C389.9,838.6,389.2,839.4,388.8,840.4z" style="fill: rgb(255, 172, 6);"/>
			<path class="st8" d="M291.8,836.7c0.4-0.4,0.9-0.4,1.4-0.5c0.4,0,3,0.1,2.8-0.6c-0.2-0.5-2-0.2-2.7-0.2c-0.4,0-0.9,0.1-1.3,0&#10;&#9;&#9;&#9;&#9;c-0.6-0.2-0.9-3.5-5.6-5.9c-1.2-0.6-2.9-1.1-4.1-1.5c-1.4-0.5-3.3-0.3-4.7-0.1c-1.8,0.2-3.5,1.1-5,2.2c-0.9,0.7-1.8,2-2.9,2.4&#10;&#9;&#9;&#9;&#9;c0.1,1.1,1,2,1.6,2.9c0.6,0.9,1.3,1.7,1.9,2.6c1.9,3,5,4,8.5,4c3,0,6.6-0.9,8.7-3.2C291,838.2,291.3,837.3,291.8,836.7z&#10;&#9;&#9;&#9;&#9; M287.1,838.7c-0.6,0.7-1.3,1.4-2.2,1.8c-0.1,0.1-0.2-0.1-0.2-0.2c0.6-0.8,1.5-1.4,2.2-2.2c0.5-0.6,1.1-1.2,1.8-1.6&#10;&#9;&#9;&#9;&#9;c-0.1,0-0.2,0-0.3,0c-0.8-0.1-1.6-0.4-2.4-0.5c-0.5-0.1-1-0.2-1.4-0.3c-0.3,0.4-0.7,0.7-1.1,1c-0.6,0.5-0.8,1.1-1.3,1.6&#10;&#9;&#9;&#9;&#9;c-1,1-2.2,1.8-3.2,2.8c-0.1,0.1-0.3,0-0.2-0.2c0.5-1,1.5-1.6,2.4-2.3c1.2-0.9,1.8-2.1,3-3c-0.2,0-0.4-0.1-0.5-0.1&#10;&#9;&#9;&#9;&#9;c-1.5-0.3-3-0.7-4.5-1c-0.8,0.6-1.5,1.2-2.3,1.9c-0.7,0.7-1.3,1.6-2.2,1.9c-0.1,0-0.2,0-0.2-0.2c0.4-0.9,1.3-1.5,2-2.2&#10;&#9;&#9;&#9;&#9;c0.6-0.6,1.3-1.2,2-1.6c-1.2-0.2-2.4-0.2-3.5-0.4c-0.1,0-0.2,0-0.3-0.1c-0.2,0.4-0.6,0.7-1,0.9c-0.4,0.3-1,0.8-1.5,0.8&#10;&#9;&#9;&#9;&#9;c-0.1,0-0.2-0.1-0.2-0.2c0.2-0.4,0.6-0.6,1-0.8c0.4-0.2,0.8-0.5,1.2-0.8c-1.1-0.2-2.3-0.6-3-1.4c1.1,0.2,2.2,0.4,3.2,0.7&#10;&#9;&#9;&#9;&#9;c-0.1-0.2-0.3-0.5-0.4-0.7c-0.2-0.4-0.3-0.7-0.5-1.1c-0.2-0.3-0.4-0.5-0.4-0.9c0-0.1,0.1-0.2,0.2-0.1c0.5,0.2,0.7,0.8,0.9,1.3&#10;&#9;&#9;&#9;&#9;c0.2,0.6,0.5,1.1,0.7,1.7c0.4,0.1,0.8,0.2,1.3,0.3c0.8,0.2,1.8,0.2,2.7,0.2c-0.2-0.3-0.4-0.8-0.5-1.2c-0.4-1.2-1.4-2.2-1.5-3.4&#10;&#9;&#9;&#9;&#9;c0-0.1,0.1-0.2,0.2-0.1c0.6,0.7,0.9,1.7,1.4,2.6c0.4,0.7,0.5,1.5,0.9,2.1c0.7,0.1,1.4,0.2,2,0.4c1,0.4,2.1,0.8,3.2,1&#10;&#9;&#9;&#9;&#9;c-0.5-0.7-0.8-1.5-1.1-2.2c-0.6-1.2-1.8-2.1-2-3.5c0-0.1,0.1-0.1,0.2-0.1c1.5,1.8,2.3,3.8,3.4,5.8c1.3,0.1,2.6,0.3,4,0.6&#10;&#9;&#9;&#9;&#9;c-0.6-0.7-1.1-1.4-1.5-2.1c-0.6-0.8-1.2-1.9-1.2-2.9c0-0.1,0.1-0.2,0.2-0.1c1.2,1.6,2,3.5,3,5.2c0.7,0.1,1.5,0.3,2.2,0.3&#10;&#9;&#9;&#9;&#9;c-0.4,0.4-0.9,0.4-1.4,0.4c-0.3,0-0.7,0-1.1,0C288.7,837.2,287.8,837.8,287.1,838.7z" style="fill: rgb(255, 172, 6);"/>
			<path class="st8" d="M326.6,858.6c0.2-0.1,0.4,0,0.6-0.2c0.3-0.4,0.1-1.1,0.6-1.4c1.2,1.3,1.2-1.3,1.9-1.8&#10;&#9;&#9;&#9;&#9;c1.3,1.5,1.6-1.8,2.7-0.7c0.4,0.4,0.6,1.5,1.2,0.5c0.5-0.8,0.5-1.8,1.2-2.5c1.1,0.3,1.1,2.1,1.9,0.5c0.1,0.2,0.3,0.4,0.4,0.5&#10;&#9;&#9;&#9;&#9;c0.5-0.5,0.3-1.2,0.7-1.8c1.1,1,0.6-1.6,1.7-0.3c0.3,0.4,0.7,1.3,1.3,0.8c0.4-0.4,0.1-1.1,0.3-1.6c0.2,0.1,0.4,0.2,0.6,0.3&#10;&#9;&#9;&#9;&#9;c0.2-0.5-0.2-1.8,0.3-2.1c0.2,0.1,0.4,0.3,0.6,0.3c0.3-0.4,0.1-1.3,0.6-1.4c0.5-0.1,1,0.7,1.3,1c0.4-0.9,0.6-1.9,0.5-3&#10;&#9;&#9;&#9;&#9;c0-0.4-0.3-0.9-0.1-1.4c0.1-0.4,0.6-0.4,0.6-0.9c0-0.8-0.6-1.6-1.2-1.9c-0.9-0.4-1-1.8-1.8-2.4c-0.8-0.5-3.9-1.3-3.6-2.2&#10;&#9;&#9;&#9;&#9;c0.2-0.8,1.1-1.6,1.5-2.3c0.4-0.8,1-1.4,1.6-2.1c0.3-0.3,1.6-1.5,1.5-1.9c-0.1-0.6-0.7-0.2-1,0.1c-0.6,0.6-1.1,1.4-1.6,2.1&#10;&#9;&#9;&#9;&#9;c-0.7,0.9-1.6,1.7-2.3,2.7c-0.4,0.5-0.6,1-1.2,1c-0.3,0-0.6-2.1-0.9-2.3c-1.3-0.9-2.8-0.2-4.2-0.9c-1-0.5-1.7-0.6-2.7-0.1&#10;&#9;&#9;&#9;&#9;c-0.7,0.4-0.9,0.8-1.5,1.3c-0.4,0.4-2.7,1-1.5,1.8c-0.6,0.7-2.7,1.6-2.1,2.9c0.4,0,0.7-0.3,1.1-0.2c0.1,0.7-0.8,1-0.7,1.7&#10;&#9;&#9;&#9;&#9;c0.2-0.1,0.4,0,0.6-0.1c0,0.9-2.7,2.7-1.7,3.7c0.4,0.4,1.1-0.2,1.5,0.1c0.4,0.3,0.1,0.8-0.1,1.2c-0.2,0.4-1.1,1.1-1.1,1.5&#10;&#9;&#9;&#9;&#9;c0,0.7,1,0.1,1.4,0c1.6-0.3,0.1,1.9-0.3,2.5c-0.2,0.3-0.8,1-0.5,1.4c0.2,0.3,1.1-0.1,1.5-0.1c-0.1,0.7-1.1,1.2-0.9,2&#10;&#9;&#9;&#9;&#9;c0.3,0,0.6-0.2,0.9-0.1c0,0.7-0.6,1.1-0.9,1.6c-0.5,0.9,0,0.5,0.7,0.6c-0.2,0.6-1.2,1.3-1.1,2c0.3-0.1,0.7-0.3,1-0.3&#10;&#9;&#9;&#9;&#9;c0,0.8-0.6,1.9-0.7,2.8C326.1,860,326,859,326.6,858.6z M328,852.8c0.8-1.5,1.7-3,2.8-4.4c1-1.4,1.7-2.9,2.7-4.2&#10;&#9;&#9;&#9;&#9;c1.2-1.6,3.4-4.2,3.7-5.6c-0.7,1.2-1.6,1.8-2.6,2.7c-1.8,1.6-3.5,3.2-6.2,4.2c1.3-0.9,3.1-2.1,4.5-3.3c1.1-0.9,3.6-2.9,3.8-4.4&#10;&#9;&#9;&#9;&#9;c-1.1,0.2-1.6,0.5-3.1,0.8c-1.7,0.3-3.3,1.1-5.4,1.2c2.8-0.7,5.6-2.2,8.5-2.3c-1.2-0.3-2.3-0.6-3.4-1c-1.1-0.3-2-0.4-3.1-0.4&#10;&#9;&#9;&#9;&#9;c0.5,0,1-0.1,1.5-0.1c0.7,0,1.5,0.2,2.2,0.3c0.7,0.2,1.3,0.5,2.1,0.6c0.7,0.1,1.4,0,2,0.2c0.5,0.1,0.5,0.5,0.7,0.9&#10;&#9;&#9;&#9;&#9;c0.2,0.6,0.7,1,1.1,1.4c0.6,0.8,1.1,1.2,1.6,2c0.5,0.8,1.4,1.6,1.7,2.5c-1.4-1.6-3.3-3.1-4.2-5.1c0,1.3,0.2,2.7,0.2,4&#10;&#9;&#9;&#9;&#9;c0,0.8,0.2,1.6,0.1,2.4c0,1,0.1,2.7-0.3,3.6c0.1-1.5-0.1-3.1-0.3-4.6c-0.2-1.8,0-3.6-0.2-5.4c-0.4,1.6-1,3-1.5,4.5&#10;&#9;&#9;&#9;&#9;c-0.4,1.2-0.9,2.3-1.5,3.4c-0.6,1.3-0.9,2.7-1.6,3.9c0.3-1.7,1.1-3.5,1.8-5.1c0.9-2.1,2.2-4.6,2.2-6.8c-0.5,0.5-0.8,1.3-1.2,1.9&#10;&#9;&#9;&#9;&#9;c-0.8,1-1.5,2.1-2.3,3.1c-1,1.4-2.2,3-3.2,4.5c-0.5,0.8-0.8,1.6-1.4,2.3C329.2,851.3,328.5,852,328,852.8&#10;&#9;&#9;&#9;&#9;c-0.2,0.4-0.4,0.8-0.6,1.2C327.4,853.6,327.7,853.2,328,852.8z" style="fill: rgb(255, 172, 6);"/>
			<path class="st8" d="M345.8,814.9c0.4-0.2,0.8-0.1,1.2-0.1c0.4,0,2.4,0.7,2.4,0.1c0-0.4-1.6-0.6-2.1-0.7c-0.3-0.1-0.8-0.1-1-0.3&#10;&#9;&#9;&#9;&#9;c-0.4-0.3,0-3-3.3-5.9c-0.8-0.7-2.1-1.5-3-2.1c-1-0.7-2.6-0.9-3.8-1c-1.5-0.2-3.1,0.2-4.5,0.8c-0.9,0.4-1.9,1.2-2.9,1.3&#10;&#9;&#9;&#9;&#9;c-0.1,0.9,0.4,1.8,0.7,2.6c0.3,0.8,0.7,1.6,1,2.5c0.9,2.8,3.3,4.2,6,4.9c2.4,0.6,5.5,0.6,7.7-0.8&#10;&#9;&#9;&#9;&#9;C344.9,815.9,345.3,815.3,345.8,814.9z M341.6,815.5c-0.6,0.5-1.4,0.8-2.1,1c-0.1,0-0.2-0.1-0.1-0.2c0.7-0.6,1.5-0.8,2.2-1.3&#10;&#9;&#9;&#9;&#9;c0.5-0.4,1.2-0.7,1.8-1c-0.1,0-0.2,0-0.2-0.1c-0.6-0.2-1.2-0.6-1.8-0.9c-0.4-0.1-0.7-0.4-1.1-0.6c-0.3,0.2-0.7,0.4-1.1,0.6&#10;&#9;&#9;&#9;&#9;c-0.5,0.3-0.9,0.7-1.4,1c-1,0.6-2.1,1-3.1,1.6c-0.1,0.1-0.2-0.1-0.2-0.2c0.6-0.7,1.5-1,2.4-1.4c1.2-0.5,1.9-1.4,3.1-1.8&#10;&#9;&#9;&#9;&#9;c-0.1-0.1-0.3-0.1-0.4-0.2c-1.2-0.5-2.3-1.2-3.4-1.7c-0.8,0.3-1.5,0.7-2.2,1.1c-0.7,0.4-1.4,1.1-2.2,1.1c-0.1,0-0.2-0.1-0.1-0.2&#10;&#9;&#9;&#9;&#9;c0.5-0.6,1.4-0.9,2.1-1.4c0.6-0.4,1.3-0.7,2-0.9c-0.9-0.4-1.9-0.6-2.7-1c-0.1,0-0.1-0.1-0.2-0.1c-0.3,0.3-0.6,0.4-1,0.5&#10;&#9;&#9;&#9;&#9;c-0.4,0.1-0.9,0.4-1.4,0.4c-0.1,0-0.1-0.1-0.1-0.2c0.2-0.3,0.6-0.4,1-0.5c0.4-0.1,0.8-0.3,1.1-0.4c-0.8-0.4-1.8-1-2.1-1.7&#10;&#9;&#9;&#9;&#9;c0.9,0.4,1.6,0.8,2.5,1.2c-0.1-0.2-0.1-0.4-0.2-0.6c-0.1-0.3-0.1-0.7-0.2-1c-0.1-0.3-0.2-0.5-0.2-0.8c0-0.1,0.1-0.1,0.2-0.1&#10;&#9;&#9;&#9;&#9;c0.4,0.3,0.4,0.8,0.5,1.2c0.1,0.5,0.2,1,0.2,1.5c0.3,0.2,0.6,0.3,1,0.5c0.7,0.3,1.4,0.5,2.1,0.7c-0.1-0.3-0.1-0.7-0.2-1&#10;&#9;&#9;&#9;&#9;c-0.1-1-0.7-2-0.5-3.1c0-0.1,0.1-0.1,0.2,0c0.3,0.7,0.4,1.6,0.6,2.3c0.2,0.7,0.1,1.3,0.3,1.9c0.6,0.2,1.1,0.4,1.6,0.7&#10;&#9;&#9;&#9;&#9;c0.7,0.5,1.5,1.1,2.3,1.4c-0.3-0.6-0.3-1.3-0.5-2c-0.2-1.1-1-2.1-0.9-3.2c0-0.1,0.1-0.1,0.1,0c0.8,1.7,1.1,3.6,1.5,5.4&#10;&#9;&#9;&#9;&#9;c1.1,0.3,2.1,0.8,3.1,1.3c-0.3-0.6-0.6-1.4-0.8-2c-0.3-0.8-0.6-1.8-0.4-2.6c0-0.1,0.2-0.1,0.2,0c0.6,1.6,0.9,3.2,1.4,4.9&#10;&#9;&#9;&#9;&#9;c0.6,0.3,1.1,0.5,1.7,0.7c-0.4,0.3-0.8,0.1-1.2,0c-0.3-0.1-0.6-0.1-0.9-0.2C343.2,814.6,342.4,814.9,341.6,815.5z" style="fill: rgb(255, 172, 6);"/>
		</g>
	</g><path class="st7" d="M529.3,905.3c0.2-0.2,0.5-0.2,0.8-0.2c0.2,0,1.7,0.1,1.6-0.3c-0.1-0.3-1.1-0.2-1.5-0.1c-0.2,0-0.5,0.1-0.7,0&#10;&#9;&#9;&#9;c-0.3-0.1-0.5-2-3.1-3.3c-0.6-0.3-1.6-0.6-2.3-0.9c-0.8-0.3-1.8-0.2-2.6-0.1c-1,0.1-2,0.6-2.8,1.2c-0.5,0.4-1,1.1-1.7,1.3&#10;&#9;&#9;&#9;c0.1,0.6,0.5,1.1,0.9,1.6c0.4,0.5,0.7,1,1.1,1.5c1,1.7,2.8,2.3,4.7,2.3c1.6,0,3.7-0.4,4.8-1.7C528.8,906.1,529,905.6,529.3,905.3z&#10;&#9;&#9;&#9; M526.7,906.4c-0.3,0.4-0.7,0.8-1.2,1c-0.1,0-0.1-0.1-0.1-0.1c0.3-0.5,0.9-0.8,1.2-1.2c0.3-0.3,0.6-0.6,1-0.9c-0.1,0-0.1,0-0.2,0&#10;&#9;&#9;&#9;c-0.4-0.1-0.9-0.2-1.3-0.3c-0.3,0-0.5-0.1-0.8-0.2c-0.2,0.2-0.4,0.4-0.6,0.5c-0.3,0.3-0.5,0.6-0.7,0.9c-0.5,0.6-1.2,1-1.8,1.5&#10;&#9;&#9;&#9;c-0.1,0.1-0.2,0-0.1-0.1c0.3-0.6,0.8-0.9,1.3-1.3c0.7-0.5,1-1.2,1.7-1.6c-0.1,0-0.2-0.1-0.3-0.1c-0.8-0.2-1.7-0.4-2.5-0.6&#10;&#9;&#9;&#9;c-0.4,0.3-0.9,0.7-1.3,1.1c-0.4,0.4-0.7,0.9-1.2,1.1c-0.1,0-0.1,0-0.1-0.1c0.2-0.5,0.8-0.8,1.1-1.2c0.3-0.3,0.7-0.7,1.1-0.9&#10;&#9;&#9;&#9;c-0.6-0.1-1.3-0.1-1.9-0.3c0,0-0.1,0-0.1,0c-0.1,0.2-0.4,0.4-0.6,0.5c-0.2,0.2-0.5,0.4-0.8,0.4c-0.1,0-0.1-0.1-0.1-0.1&#10;&#9;&#9;&#9;c0.1-0.2,0.4-0.3,0.6-0.5c0.2-0.1,0.5-0.3,0.7-0.4c-0.6-0.1-1.3-0.4-1.7-0.8c0.6,0.1,1.2,0.3,1.8,0.4c-0.1-0.1-0.1-0.3-0.2-0.4&#10;&#9;&#9;&#9;c-0.1-0.2-0.2-0.4-0.3-0.6c-0.1-0.2-0.2-0.3-0.2-0.5c0-0.1,0-0.1,0.1-0.1c0.3,0.1,0.4,0.4,0.5,0.7c0.1,0.3,0.3,0.6,0.4,0.9&#10;&#9;&#9;&#9;c0.2,0.1,0.5,0.1,0.7,0.2c0.5,0.1,1,0.1,1.5,0.2c-0.1-0.2-0.2-0.4-0.3-0.7c-0.2-0.7-0.7-1.2-0.8-1.9c0-0.1,0.1-0.1,0.1-0.1&#10;&#9;&#9;&#9;c0.3,0.4,0.5,1,0.8,1.4c0.2,0.4,0.3,0.8,0.5,1.2c0.4,0,0.8,0.1,1.1,0.2c0.5,0.2,1.2,0.5,1.8,0.6c-0.3-0.4-0.4-0.8-0.6-1.3&#10;&#9;&#9;&#9;c-0.3-0.7-1-1.2-1.1-2c0,0,0.1-0.1,0.1,0c0.8,1,1.3,2.2,1.9,3.3c0.7,0.1,1.5,0.2,2.2,0.3c-0.3-0.4-0.6-0.8-0.8-1.2&#10;&#9;&#9;&#9;c-0.3-0.5-0.6-1.1-0.7-1.7c0-0.1,0.1-0.1,0.1-0.1c0.6,0.9,1.1,2,1.7,3c0.4,0.1,0.8,0.2,1.2,0.2c-0.2,0.2-0.5,0.2-0.8,0.2&#10;&#9;&#9;&#9;c-0.2,0-0.4,0-0.6,0C527.5,905.5,527,905.9,526.7,906.4z" style="fill: rgb(255, 193, 82);" transform="matrix(1, 0, 0, 1, 5.684341886080802e-14, 1.4210854715202004e-14)"/><path class="st7" d="M637.8,894c0.1,0.1,0,0.2,0.2,0.2c0.2,0.1,0.5-0.2,0.7,0c-0.4,0.8,0.8,0.3,1.2,0.6c-0.4,0.9,1.1,0.4,0.8,1.1&#10;&#9;&#9;&#9;c-0.1,0.3-0.6,0.5,0,0.6c0.4,0.1,0.9-0.1,1.3,0.1c0,0.5-0.8,0.9,0.1,0.9c-0.1,0.1-0.1,0.2-0.2,0.3c0.3,0.2,0.6-0.1,0.9,0&#10;&#9;&#9;&#9;c-0.3,0.7,0.8,0,0.4,0.7c-0.1,0.2-0.5,0.6-0.1,0.7c0.2,0.1,0.5-0.1,0.8-0.1c0,0.1,0,0.2,0,0.3c0.3,0,0.8-0.4,1-0.3&#10;&#9;&#9;&#9;c0,0.1-0.1,0.2,0,0.3c0.3,0.1,0.6-0.2,0.7,0c0.1,0.2-0.1,0.6-0.2,0.8c0.5,0,1-0.1,1.5-0.3c0.2-0.1,0.4-0.3,0.6-0.3&#10;&#9;&#9;&#9;c0.2,0,0.3,0.2,0.5,0.1c0.4-0.1,0.6-0.5,0.6-0.9c0-0.5,0.6-0.8,0.7-1.2c0.1-0.4-0.1-2,0.3-2c0.4,0,0.9,0.2,1.3,0.3&#10;&#9;&#9;&#9;c0.4,0.1,0.8,0.2,1.2,0.3c0.2,0.1,1,0.5,1.1,0.4c0.3-0.2-0.1-0.3-0.2-0.4c-0.4-0.1-0.9-0.2-1.3-0.4c-0.6-0.2-1.1-0.4-1.6-0.6&#10;&#9;&#9;&#9;c-0.3-0.1-0.6-0.1-0.6-0.4c0-0.1,0.9-0.7,0.9-0.8c0.2-0.7-0.4-1.3-0.3-2.1c0-0.6,0-0.9-0.4-1.2c-0.3-0.3-0.5-0.3-0.8-0.4&#10;&#9;&#9;&#9;c-0.2-0.1-0.9-1.1-1.1-0.4c-0.4-0.1-1.2-1-1.7-0.5c0.1,0.2,0.2,0.3,0.3,0.4c-0.3,0.2-0.6-0.2-0.9,0c0.1,0.1,0.1,0.2,0.1,0.2&#10;&#9;&#9;&#9;c-0.4,0.2-1.7-0.8-2-0.1c-0.1,0.3,0.3,0.5,0.2,0.7c-0.1,0.2-0.4,0.2-0.6,0.2c-0.2,0-0.7-0.3-0.9-0.2c-0.3,0.1,0.1,0.5,0.2,0.6&#10;&#9;&#9;&#9;c0.4,0.7-0.9,0.4-1.2,0.3c-0.2,0-0.6-0.2-0.7,0c-0.1,0.2,0.3,0.5,0.3,0.7c-0.3,0.1-0.7-0.3-1-0.1c0.1,0.1,0.2,0.2,0.2,0.4&#10;&#9;&#9;&#9;c-0.3,0.1-0.6-0.1-0.9-0.1c-0.5-0.1-0.2,0.1-0.2,0.4c-0.3,0-0.8-0.3-1.1-0.1c0.1,0.1,0.2,0.2,0.3,0.4c-0.4,0.2-1,0.1-1.4,0.2&#10;&#9;&#9;&#9;C637.1,894.1,637.5,893.9,637.8,894z M640.7,893.6c0.8,0.1,1.7,0.3,2.5,0.5c0.8,0.2,1.6,0.3,2.4,0.5c0.9,0.3,2.5,0.8,3.2,0.7&#10;&#9;&#9;&#9;c-0.7-0.1-1.1-0.4-1.7-0.7c-1.1-0.5-2.1-1-3-2c0.6,0.4,1.5,1,2.3,1.4c0.6,0.3,2,1.1,2.7,1c-0.3-0.4-0.5-0.7-0.9-1.3&#10;&#9;&#9;&#9;c-0.5-0.7-1.1-1.3-1.5-2.2c0.8,1.2,2,2.1,2.6,3.4c-0.1-0.6-0.1-1.2-0.2-1.7c0-0.5-0.2-1-0.4-1.5c0.1,0.2,0.2,0.4,0.3,0.7&#10;&#9;&#9;&#9;c0.1,0.3,0.2,0.7,0.2,1c0.1,0.4,0,0.7,0.1,1c0.1,0.3,0.2,0.6,0.3,1c0,0.3-0.1,0.3-0.3,0.5c-0.2,0.2-0.3,0.5-0.5,0.7&#10;&#9;&#9;&#9;c-0.3,0.4-0.4,0.7-0.6,1.1c-0.3,0.4-0.5,0.9-0.8,1.2c0.5-0.9,0.8-2,1.6-2.8c-0.6,0.2-1.2,0.6-1.8,0.8c-0.4,0.2-0.7,0.4-1.1,0.5&#10;&#9;&#9;&#9;c-0.5,0.2-1.2,0.5-1.7,0.5c0.7-0.2,1.4-0.6,2-0.9c0.8-0.4,1.7-0.6,2.4-1.1c-0.8,0.1-1.6,0.1-2.3,0.1c-0.6,0-1.2,0-1.8-0.1&#10;&#9;&#9;&#9;c-0.7-0.1-1.4,0.1-2.1,0c0.8-0.1,1.8-0.1,2.6-0.1c1.1,0,2.5,0.2,3.5-0.2c-0.3-0.1-0.7-0.1-1.1-0.2c-0.6-0.2-1.2-0.3-1.8-0.5&#10;&#9;&#9;&#9;c-0.8-0.2-1.8-0.5-2.6-0.6c-0.4-0.1-0.9-0.1-1.3-0.2C641.6,894,641.1,893.8,640.7,893.6c-0.2,0-0.4-0.1-0.7-0.1&#10;&#9;&#9;&#9;C640.2,893.5,640.5,893.6,640.7,893.6z" style="fill: rgb(255, 193, 82);" transform="matrix(1, 0, 0, 1, 5.684341886080802e-14, 1.4210854715202004e-14)"/><path class="st7" d="M584.8,929.7c0.4,0.1,0.7,0.4,0.9,0.7c0.2,0.3,1.4,2,1.7,1.6c0.2-0.3-0.8-1.4-1.1-1.8&#10;&#9;&#9;&#9;c-0.2-0.2-0.5-0.5-0.6-0.8c-0.1-0.5,1.8-2.1,1.2-6.3c-0.2-1-0.6-2.3-0.9-3.3c-0.3-1.1-1.3-2.2-2.1-3.1c-1-1-2.4-1.7-3.7-2.2&#10;&#9;&#9;&#9;c-0.9-0.3-2.1-0.3-2.9-0.8c-0.6,0.6-0.8,1.6-1.1,2.4c-0.3,0.8-0.5,1.6-0.8,2.4c-1.1,2.6-0.2,5,1.4,7.2c1.4,1.9,3.6,3.8,6,4.1&#10;&#9;&#9;&#9;C583.5,929.8,584.2,929.6,584.8,929.7z M581.4,927.6c-0.7,0-1.5-0.2-2.1-0.6c-0.1-0.1-0.1-0.2,0.1-0.2c0.8,0,1.6,0.4,2.4,0.4&#10;&#9;&#9;&#9;c0.6,0,1.3,0.2,1.9,0.4c0-0.1-0.1-0.1-0.1-0.2c-0.3-0.6-0.5-1.2-0.8-1.8c-0.2-0.3-0.3-0.7-0.4-1.1c-0.4-0.1-0.7-0.1-1.1-0.2&#10;&#9;&#9;&#9;c-0.6-0.1-1.1,0-1.6-0.1c-1.1-0.2-2.1-0.6-3.2-0.8c-0.1,0-0.1-0.2,0-0.2c0.9-0.1,1.7,0.2,2.6,0.4c1.1,0.3,2.2,0.2,3.3,0.6&#10;&#9;&#9;&#9;c-0.1-0.1-0.1-0.3-0.2-0.4c-0.5-1.1-0.9-2.2-1.4-3.4c-0.8-0.2-1.5-0.4-2.3-0.6c-0.7-0.1-1.6-0.1-2.2-0.5c-0.1,0-0.1-0.2,0-0.2&#10;&#9;&#9;&#9;c0.7-0.1,1.6,0.2,2.3,0.3c0.6,0.1,1.4,0.2,1.9,0.6c-0.4-0.8-1-1.6-1.3-2.4c0-0.1-0.1-0.1-0.1-0.2c-0.4,0-0.7-0.1-1.1-0.2&#10;&#9;&#9;&#9;c-0.4-0.1-0.9-0.3-1.2-0.6c-0.1-0.1,0-0.2,0.1-0.2c0.3-0.1,0.7,0.1,1,0.3c0.4,0.2,0.7,0.3,1.1,0.4c-0.3-0.8-0.7-1.8-0.5-2.5&#10;&#9;&#9;&#9;c0.4,0.8,0.7,1.6,1,2.4c0.1-0.2,0.2-0.4,0.3-0.5c0.2-0.3,0.3-0.6,0.5-0.8c0.1-0.2,0.2-0.5,0.4-0.7c0.1-0.1,0.2,0,0.2,0&#10;&#9;&#9;&#9;c0.1,0.4-0.2,0.8-0.4,1.2c-0.2,0.4-0.5,0.8-0.7,1.2c0.1,0.3,0.3,0.6,0.4,0.9c0.3,0.6,0.7,1.2,1.1,1.8c0.1-0.3,0.3-0.6,0.5-0.8&#10;&#9;&#9;&#9;c0.6-0.8,0.8-1.9,1.5-2.5c0.1-0.1,0.2,0,0.2,0.1c-0.2,0.7-0.7,1.4-1,2.1c-0.3,0.6-0.7,1-1,1.6c0.3,0.5,0.5,1,0.7,1.5&#10;&#9;&#9;&#9;c0.2,0.8,0.4,1.7,0.8,2.5c0.2-0.6,0.6-1.2,0.9-1.8c0.5-0.9,0.5-2.1,1.3-2.9c0.1,0,0.1,0,0.1,0.1c-0.5,1.8-1.4,3.2-2.2,4.8&#10;&#9;&#9;&#9;c0.6,0.9,1,1.8,1.5,2.8c0.2-0.7,0.4-1.3,0.7-1.9c0.3-0.7,0.7-1.6,1.3-2.1c0.1-0.1,0.2,0,0.2,0.1c-0.5,1.5-1.3,2.9-2,4.4&#10;&#9;&#9;&#9;c0.3,0.5,0.5,1.1,0.8,1.6c-0.4-0.1-0.7-0.4-0.9-0.7c-0.1-0.2-0.3-0.5-0.5-0.7C583.1,927.9,582.3,927.6,581.4,927.6z" style="fill: rgb(255, 193, 82);" transform="matrix(1, 0, 0, 1, 5.684341886080802e-14, 1.4210854715202004e-14)"/><path class="st7" d="M571.1,804.1c0.4-0.4,1-0.4,1.6-0.5c0.5,0,3.3,0.1,3.1-0.6c-0.2-0.5-2.2-0.3-3-0.3c-0.4,0-1,0.1-1.4,0&#10;&#9;&#9;&#9;c-0.6-0.3-0.9-3.9-6.1-6.6c-1.3-0.7-3.1-1.3-4.5-1.8c-1.6-0.6-3.6-0.3-5.2-0.2c-2,0.2-3.9,1.2-5.5,2.4c-1,0.8-2.1,2.2-3.3,2.6&#10;&#9;&#9;&#9;c0.1,1.2,1.1,2.3,1.8,3.2c0.7,1,1.5,1.9,2.1,2.9c2,3.4,5.5,4.5,9.3,4.5c3.3,0,7.3-0.9,9.6-3.4&#10;&#9;&#9;&#9;C570.2,805.7,570.5,804.8,571.1,804.1z M565.9,806.2c-0.6,0.8-1.5,1.5-2.4,1.9c-0.1,0.1-0.3-0.1-0.2-0.2c0.7-0.9,1.7-1.5,2.4-2.4&#10;&#9;&#9;&#9;c0.5-0.7,1.3-1.3,2-1.8c-0.1,0-0.2,0-0.3,0c-0.9-0.1-1.7-0.5-2.6-0.6c-0.5-0.1-1.1-0.2-1.6-0.4c-0.4,0.4-0.8,0.7-1.2,1.1&#10;&#9;&#9;&#9;c-0.6,0.5-0.9,1.2-1.5,1.8c-1.1,1.1-2.4,1.9-3.5,3c-0.1,0.1-0.3,0-0.3-0.2c0.6-1.1,1.7-1.8,2.6-2.5c1.3-1,2-2.3,3.4-3.2&#10;&#9;&#9;&#9;c-0.2-0.1-0.4-0.1-0.6-0.1c-1.7-0.3-3.3-0.8-5-1.2c-0.9,0.7-1.7,1.3-2.5,2.1c-0.7,0.7-1.4,1.8-2.4,2.1c-0.1,0-0.2-0.1-0.2-0.2&#10;&#9;&#9;&#9;c0.5-0.9,1.5-1.7,2.2-2.4c0.7-0.6,1.4-1.3,2.2-1.7c-1.3-0.2-2.6-0.3-3.9-0.5c-0.1,0-0.2,0-0.3-0.1c-0.3,0.4-0.7,0.7-1.1,1&#10;&#9;&#9;&#9;c-0.5,0.3-1.1,0.8-1.6,0.9c-0.1,0-0.2-0.1-0.2-0.2c0.2-0.5,0.7-0.7,1.1-0.9c0.5-0.3,0.9-0.6,1.3-0.9c-1.2-0.3-2.6-0.7-3.3-1.6&#10;&#9;&#9;&#9;c1.2,0.2,2.4,0.5,3.5,0.8c-0.1-0.2-0.3-0.5-0.4-0.8c-0.2-0.4-0.4-0.8-0.6-1.2c-0.2-0.3-0.4-0.6-0.5-1c0-0.1,0.1-0.2,0.2-0.2&#10;&#9;&#9;&#9;c0.6,0.3,0.8,0.9,1,1.4c0.3,0.6,0.5,1.2,0.8,1.9c0.5,0.1,0.9,0.2,1.4,0.3c0.9,0.2,2,0.2,3,0.3c-0.2-0.4-0.4-0.9-0.5-1.3&#10;&#9;&#9;&#9;c-0.4-1.3-1.5-2.4-1.6-3.8c0-0.1,0.2-0.2,0.2-0.1c0.7,0.8,1,1.9,1.5,2.9c0.4,0.8,0.5,1.6,1,2.4c0.8,0.1,1.5,0.2,2.2,0.5&#10;&#9;&#9;&#9;c1.1,0.4,2.3,1,3.5,1.1c-0.5-0.8-0.8-1.6-1.2-2.5c-0.6-1.3-2-2.4-2.2-3.9c0-0.1,0.1-0.2,0.2-0.1c1.6,2,2.5,4.3,3.7,6.5&#10;&#9;&#9;&#9;c1.5,0.1,2.9,0.4,4.4,0.7c-0.6-0.7-1.2-1.6-1.6-2.4c-0.6-1-1.3-2.1-1.3-3.3c0-0.1,0.2-0.2,0.3-0.1c1.3,1.8,2.2,3.9,3.3,5.9&#10;&#9;&#9;&#9;c0.8,0.2,1.6,0.3,2.4,0.4c-0.4,0.4-1,0.5-1.5,0.4c-0.4,0-0.8,0-1.2,0C567.6,804.6,566.6,805.2,565.9,806.2z" style="fill: rgb(255, 193, 82);" transform="matrix(1, 0, 0, 1, 5.684341886080802e-14, 1.4210854715202004e-14)"/><path class="st7" d="M552.8,853.5c0.1,0.1,0.1,0.3,0.3,0.4c0.4,0.1,0.9-0.3,1.2,0.1c-0.6,1.3,1.4,0.5,2,0.9&#10;&#9;&#9;&#9;c-0.7,1.5,1.9,0.7,1.3,1.8c-0.2,0.4-1,0.9,0,1.1c0.7,0.2,1.5-0.2,2.3,0.1c0.1,0.9-1.3,1.4,0.2,1.6c-0.1,0.1-0.2,0.3-0.3,0.5&#10;&#9;&#9;&#9;c0.5,0.3,1-0.1,1.5,0c-0.5,1.1,1.4,0,0.7,1.2c-0.2,0.4-0.8,0.9-0.2,1.2c0.4,0.2,0.9-0.2,1.3-0.2c0,0.2-0.1,0.4-0.1,0.6&#10;&#9;&#9;&#9;c0.5,0,1.3-0.7,1.7-0.4c-0.1,0.2-0.1,0.4-0.1,0.5c0.4,0.1,1-0.3,1.2,0.1c0.2,0.3-0.2,1-0.3,1.3c0.8,0,1.7-0.1,2.4-0.5&#10;&#9;&#9;&#9;c0.3-0.2,0.6-0.5,1-0.5c0.3,0,0.5,0.3,0.9,0.2c0.6-0.2,1-0.9,1-1.5c0.1-0.8,1.1-1.3,1.2-2.1c0.2-0.7-0.2-3.3,0.6-3.4&#10;&#9;&#9;&#9;c0.6-0.1,1.5,0.4,2.2,0.5c0.7,0.1,1.4,0.3,2.1,0.6c0.3,0.1,1.6,0.8,1.9,0.6c0.4-0.3-0.1-0.6-0.4-0.7c-0.7-0.2-1.4-0.4-2.1-0.6&#10;&#9;&#9;&#9;c-0.9-0.3-1.8-0.7-2.8-1c-0.5-0.1-1-0.1-1.1-0.6c-0.1-0.3,1.4-1.1,1.5-1.4c0.3-1.2-0.7-2.1-0.6-3.4c0.1-0.9,0-1.5-0.7-2.1&#10;&#9;&#9;&#9;c-0.5-0.4-0.9-0.5-1.4-0.7c-0.4-0.2-1.6-1.8-1.8-0.6c-0.7-0.2-2-1.6-2.8-0.8c0.1,0.3,0.4,0.4,0.5,0.7c-0.5,0.3-1-0.3-1.5,0&#10;&#9;&#9;&#9;c0.1,0.1,0.1,0.3,0.2,0.4c-0.7,0.3-2.9-1.3-3.3-0.2c-0.2,0.4,0.5,0.8,0.3,1.2c-0.1,0.4-0.6,0.3-1,0.3c-0.4,0-1.2-0.5-1.5-0.4&#10;&#9;&#9;&#9;c-0.6,0.2,0.2,0.8,0.4,1c0.7,1.1-1.4,0.6-2,0.5c-0.3,0-1-0.3-1.2,0.1c-0.1,0.3,0.4,0.8,0.5,1.1c-0.6,0.2-1.2-0.5-1.7-0.1&#10;&#9;&#9;&#9;c0.1,0.2,0.3,0.4,0.4,0.7c-0.5,0.2-1-0.1-1.5-0.2c-0.8-0.2-0.4,0.2-0.3,0.7c-0.5,0-1.4-0.5-1.8-0.2c0.1,0.2,0.4,0.4,0.5,0.7&#10;&#9;&#9;&#9;c-0.6,0.3-1.6,0.1-2.3,0.3C551.6,853.5,552.3,853.2,552.8,853.5z M557.6,852.8c1.4,0.2,2.8,0.4,4.2,0.8c1.3,0.3,2.7,0.4,4,0.8&#10;&#9;&#9;&#9;c1.5,0.4,4.2,1.3,5.3,1.2c-1.1-0.2-1.8-0.6-2.8-1.1c-1.8-0.9-3.5-1.7-5-3.4c1.1,0.7,2.5,1.7,3.8,2.4c1,0.5,3.3,1.8,4.5,1.6&#10;&#9;&#9;&#9;c-0.5-0.7-0.9-1.1-1.5-2.1c-0.8-1.2-1.8-2.2-2.5-3.7c1.3,1.9,3.3,3.6,4.3,5.7c-0.1-1-0.2-1.9-0.3-2.9c-0.1-0.9-0.3-1.6-0.6-2.4&#10;&#9;&#9;&#9;c0.2,0.4,0.4,0.7,0.5,1.1c0.2,0.6,0.3,1.2,0.4,1.7c0.1,0.6,0,1.2,0.1,1.7c0.1,0.6,0.4,1.1,0.4,1.6c0.1,0.4-0.2,0.5-0.5,0.8&#10;&#9;&#9;&#9;c-0.4,0.4-0.5,0.8-0.8,1.2c-0.5,0.7-0.6,1.2-1,1.8c-0.5,0.6-0.8,1.5-1.4,2c0.8-1.5,1.4-3.4,2.6-4.7c-1,0.4-2,0.9-3,1.4&#10;&#9;&#9;&#9;c-0.6,0.3-1.2,0.6-1.8,0.8c-0.8,0.3-2,0.9-2.8,0.9c1.1-0.4,2.4-1,3.4-1.6c1.3-0.7,2.8-1.1,4.1-1.8c-1.3,0.2-2.6,0.2-3.9,0.2&#10;&#9;&#9;&#9;c-1,0-2,0-3-0.1c-1.1-0.1-2.3,0.1-3.4-0.1c1.4-0.2,3-0.2,4.4-0.2c1.8,0.1,4.1,0.3,5.9-0.4c-0.6-0.2-1.2-0.2-1.8-0.4&#10;&#9;&#9;&#9;c-1-0.3-2-0.5-3-0.8c-1.4-0.4-2.9-0.8-4.4-1c-0.7-0.1-1.5-0.2-2.2-0.3C559.1,853.4,558.3,853,557.6,852.8c-0.4,0-0.7-0.1-1.1-0.1&#10;&#9;&#9;&#9;C556.9,852.7,557.2,852.7,557.6,852.8z" style="fill: rgb(255, 193, 82);" transform="matrix(1, 0, 0, 1, 5.684341886080802e-14, 1.4210854715202004e-14)"/><path class="st7" d="M592.7,890c0.3,0.2,0.4,0.6,0.4,0.9c0.1,0.3,0.2,2,0.6,1.9c0.3-0.1,0-1.4-0.1-1.8c0-0.3-0.2-0.6-0.1-0.9&#10;&#9;&#9;&#9;c0.1-0.4,2.3-0.9,3.5-4.2c0.3-0.8,0.5-2,0.7-2.9c0.2-1-0.1-2.2-0.4-3.2c-0.3-1.2-1.1-2.3-1.9-3.1c-0.6-0.6-1.5-1.1-1.9-1.8&#10;&#9;&#9;&#9;c-0.7,0.2-1.3,0.8-1.8,1.3c-0.5,0.5-1,1-1.6,1.5c-1.9,1.5-2.2,3.7-1.9,6c0.3,2,1.2,4.4,2.9,5.6C591.7,889.6,592.3,889.7,592.7,890&#10;&#9;&#9;&#9;z M591,887c-0.5-0.3-1-0.8-1.4-1.3c0-0.1,0-0.2,0.1-0.1c0.6,0.3,1.1,0.9,1.7,1.3c0.5,0.3,0.9,0.7,1.3,1.1c0-0.1,0-0.1,0-0.2&#10;&#9;&#9;&#9;c0-0.5,0.1-1.1,0.1-1.7c0-0.3,0-0.7,0.1-1c-0.3-0.2-0.5-0.4-0.8-0.6c-0.4-0.3-0.8-0.5-1.2-0.7c-0.8-0.6-1.4-1.3-2.1-1.9&#10;&#9;&#9;&#9;c-0.1-0.1,0-0.2,0.1-0.2c0.7,0.2,1.2,0.9,1.8,1.4c0.7,0.7,1.6,1,2.3,1.8c0-0.1,0-0.2,0-0.4c0.1-1,0.2-2.1,0.3-3.1&#10;&#9;&#9;&#9;c-0.5-0.5-0.9-0.9-1.5-1.3c-0.5-0.4-1.2-0.7-1.5-1.3c0-0.1,0-0.2,0.1-0.1c0.6,0.2,1.1,0.8,1.6,1.2c0.4,0.3,0.9,0.7,1.2,1.2&#10;&#9;&#9;&#9;c0-0.8-0.1-1.6,0-2.4c0-0.1,0-0.1,0-0.2c-0.3-0.1-0.5-0.4-0.7-0.6c-0.2-0.3-0.6-0.6-0.7-0.9c0-0.1,0-0.1,0.1-0.1&#10;&#9;&#9;&#9;c0.3,0.1,0.5,0.4,0.7,0.6c0.2,0.3,0.4,0.5,0.6,0.7c0.1-0.7,0.2-1.6,0.7-2.1c0,0.8-0.1,1.5-0.2,2.2c0.1-0.1,0.3-0.2,0.4-0.3&#10;&#9;&#9;&#9;c0.2-0.1,0.5-0.3,0.7-0.4c0.2-0.1,0.3-0.3,0.6-0.4c0.1,0,0.1,0,0.1,0.1c-0.1,0.4-0.5,0.5-0.8,0.7c-0.4,0.2-0.7,0.4-1.1,0.6&#10;&#9;&#9;&#9;c0,0.3,0,0.6-0.1,0.9c0,0.6,0,1.2,0.1,1.8c0.2-0.2,0.5-0.3,0.7-0.4c0.8-0.4,1.3-1.1,2.2-1.3c0.1,0,0.1,0.1,0.1,0.1&#10;&#9;&#9;&#9;c-0.4,0.5-1.1,0.8-1.6,1.1c-0.4,0.3-1,0.5-1.4,0.8c0,0.5,0,1-0.1,1.4c-0.2,0.7-0.4,1.5-0.4,2.2c0.4-0.4,0.9-0.6,1.4-1&#10;&#9;&#9;&#9;c0.8-0.5,1.3-1.4,2.2-1.6c0.1,0,0.1,0.1,0.1,0.1c-1.1,1.1-2.4,1.9-3.6,2.8c0.1,0.9,0,1.8,0,2.7c0.4-0.4,0.9-0.8,1.3-1.2&#10;&#9;&#9;&#9;c0.5-0.4,1.2-1,1.9-1.1c0.1,0,0.2,0.1,0.1,0.1c-1,0.9-2.2,1.7-3.3,2.5c0,0.5,0,1,0,1.5c-0.3-0.2-0.4-0.6-0.4-0.9&#10;&#9;&#9;&#9;c0-0.2-0.1-0.5-0.1-0.7C592.1,887.9,591.6,887.4,591,887z" style="fill: rgb(255, 193, 82);" transform="matrix(1, 0, 0, 1, 5.684341886080802e-14, 1.4210854715202004e-14)"/><path class="st7" d="M1210.4,713.7c0.3-0.1,0.5,0.1,0.8,0.2c0.2,0.1,1.3,0.9,1.4,0.6c0.1-0.2-0.8-0.7-1.1-0.9&#10;&#9;&#9;&#9;c-0.2-0.1-0.4-0.2-0.5-0.4c-0.2-0.3,0.7-1.8-0.7-4.2c-0.3-0.6-0.9-1.3-1.3-1.9c-0.5-0.6-1.3-1.1-2-1.4c-0.8-0.4-1.9-0.6-2.8-0.5&#10;&#9;&#9;&#9;c-0.6,0-1.4,0.3-2,0.2c-0.3,0.5-0.2,1.2-0.1,1.7c0,0.6,0.1,1.1,0.1,1.7c-0.1,1.8,1,3.2,2.5,4.2c1.3,0.9,3.1,1.6,4.7,1.2&#10;&#9;&#9;&#9;C1209.6,714.1,1210,713.8,1210.4,713.7z M1207.8,713.2c-0.5,0.2-1,0.2-1.5,0.1c-0.1,0-0.1-0.1,0-0.1c0.5-0.2,1.1-0.1,1.6-0.3&#10;&#9;&#9;&#9;c0.4-0.1,0.8-0.2,1.3-0.2c0,0-0.1-0.1-0.1-0.1c-0.3-0.3-0.6-0.6-0.9-0.9c-0.2-0.2-0.4-0.4-0.5-0.6c-0.3,0.1-0.5,0.1-0.8,0.1&#10;&#9;&#9;&#9;c-0.4,0-0.7,0.2-1,0.3c-0.7,0.2-1.5,0.1-2.2,0.3c-0.1,0-0.1-0.1-0.1-0.1c0.5-0.3,1.1-0.3,1.7-0.3c0.8-0.1,1.4-0.4,2.2-0.4&#10;&#9;&#9;&#9;c-0.1-0.1-0.1-0.1-0.2-0.2c-0.6-0.6-1.1-1.2-1.7-1.8c-0.5,0-1,0.1-1.5,0.2c-0.5,0.1-1,0.3-1.5,0.2c0,0-0.1-0.1,0-0.1&#10;&#9;&#9;&#9;c0.4-0.2,1-0.3,1.5-0.4c0.4-0.1,0.9-0.2,1.3-0.1c-0.5-0.4-1-0.8-1.4-1.2c0,0-0.1-0.1-0.1-0.1c-0.2,0.1-0.5,0.1-0.7,0.1&#10;&#9;&#9;&#9;c-0.3,0-0.6,0-0.9-0.1c-0.1,0-0.1-0.1,0-0.1c0.2-0.1,0.5-0.1,0.7-0.1c0.3,0,0.5,0,0.7,0c-0.4-0.4-0.8-1-0.9-1.5&#10;&#9;&#9;&#9;c0.4,0.4,0.8,0.8,1.2,1.2c0-0.1,0-0.3,0-0.4c0-0.2,0.1-0.4,0.1-0.6c0-0.2,0-0.3,0.1-0.5c0,0,0.1-0.1,0.1,0c0.2,0.3,0.1,0.5,0,0.8&#10;&#9;&#9;&#9;c-0.1,0.3-0.1,0.6-0.2,0.9c0.2,0.2,0.3,0.3,0.5,0.5c0.3,0.3,0.7,0.6,1.1,0.9c0-0.2,0.1-0.4,0.1-0.6c0.2-0.6,0-1.3,0.3-1.9&#10;&#9;&#9;&#9;c0-0.1,0.1,0,0.1,0c0,0.5-0.1,1-0.2,1.5c0,0.4-0.2,0.8-0.2,1.2c0.3,0.2,0.6,0.5,0.8,0.8c0.3,0.4,0.7,1,1.1,1.4&#10;&#9;&#9;&#9;c0-0.4,0.1-0.9,0.2-1.3c0.1-0.7-0.2-1.5,0.2-2.1c0,0,0.1,0,0.1,0c0.1,1.2-0.1,2.3-0.3,3.5c0.6,0.4,1.1,0.9,1.6,1.4&#10;&#9;&#9;&#9;c0-0.4,0-0.9,0-1.4c0-0.5,0.1-1.2,0.3-1.6c0-0.1,0.1-0.1,0.1,0c0,1-0.2,2.1-0.2,3.2c0.3,0.3,0.6,0.5,0.9,0.8&#10;&#9;&#9;&#9;c-0.3,0.1-0.5-0.1-0.7-0.2c-0.1-0.1-0.3-0.2-0.5-0.3C1208.9,713,1208.3,713,1207.8,713.2z" style="fill: rgb(255, 193, 82);" transform="matrix(1, 0, 0, 1, 5.684341886080802e-14, 1.4210854715202004e-14)"/><path class="st7" d="M1319.1,705.3c0.1,0,0.1,0.1,0.3,0.1c0.2,0,0.4-0.4,0.6-0.3c0.1,0.8,0.8-0.1,1.2-0.1c0.1,0.9,1.1-0.2,1.2,0.5&#10;&#9;&#9;&#9;c0,0.3-0.2,0.7,0.3,0.5c0.4-0.1,0.7-0.5,1.1-0.5c0.3,0.4-0.2,1,0.5,0.7c0,0.1,0,0.2,0,0.3c0.3,0,0.5-0.3,0.7-0.4&#10;&#9;&#9;&#9;c0.1,0.7,0.7-0.4,0.7,0.4c0,0.2-0.1,0.7,0.2,0.6c0.2,0,0.4-0.4,0.6-0.5c0,0.1,0.1,0.2,0.1,0.3c0.2-0.1,0.4-0.7,0.7-0.7&#10;&#9;&#9;&#9;c0,0.1,0.1,0.2,0.1,0.3c0.2-0.1,0.4-0.4,0.6-0.3c0.2,0.1,0.2,0.5,0.2,0.7c0.4-0.2,0.8-0.5,1-0.9c0.1-0.2,0.2-0.4,0.3-0.5&#10;&#9;&#9;&#9;c0.2-0.1,0.3,0,0.5-0.2c0.3-0.3,0.2-0.7,0.1-1c-0.2-0.4,0.1-0.9,0-1.4c-0.1-0.4-1-1.6-0.7-1.8c0.3-0.2,0.9-0.2,1.2-0.4&#10;&#9;&#9;&#9;c0.4-0.1,0.8-0.2,1.2-0.3c0.2,0,1,0,1.1-0.2c0.1-0.3-0.2-0.3-0.4-0.2c-0.4,0.1-0.8,0.2-1.2,0.3c-0.5,0.1-1.1,0.2-1.6,0.3&#10;&#9;&#9;&#9;c-0.3,0.1-0.5,0.2-0.7,0c-0.1-0.1,0.4-0.9,0.4-1.1c-0.2-0.7-0.9-0.9-1.2-1.5c-0.2-0.5-0.4-0.7-0.9-0.8c-0.4-0.1-0.6,0-0.9,0&#10;&#9;&#9;&#9;c-0.2,0-1.3-0.4-1.1,0.2c-0.4,0.1-1.4-0.2-1.6,0.4c0.1,0.1,0.3,0.1,0.4,0.2c-0.2,0.3-0.6,0.1-0.7,0.4c0.1,0,0.1,0.1,0.2,0.1&#10;&#9;&#9;&#9;c-0.2,0.3-1.7,0.2-1.7,0.8c0,0.3,0.4,0.2,0.5,0.5c0.1,0.2-0.2,0.3-0.4,0.4c-0.2,0.1-0.7,0.1-0.8,0.2c-0.2,0.3,0.3,0.3,0.5,0.4&#10;&#9;&#9;&#9;c0.6,0.3-0.5,0.7-0.8,0.8c-0.1,0.1-0.6,0.1-0.6,0.4c0,0.2,0.4,0.3,0.5,0.4c-0.2,0.2-0.7,0.1-0.9,0.4c0.1,0.1,0.3,0.1,0.4,0.2&#10;&#9;&#9;&#9;c-0.2,0.2-0.5,0.2-0.8,0.3c-0.4,0.2-0.2,0.2,0.1,0.4c-0.2,0.2-0.8,0.1-0.9,0.4c0.1,0.1,0.3,0.1,0.4,0.2c-0.2,0.3-0.8,0.5-1.1,0.8&#10;&#9;&#9;&#9;C1318.6,705.7,1318.8,705.3,1319.1,705.3z M1321.3,703.7c0.7-0.3,1.5-0.6,2.3-0.8c0.7-0.2,1.4-0.5,2.2-0.7&#10;&#9;&#9;&#9;c0.9-0.2,2.4-0.5,2.9-0.9c-0.6,0.2-1.1,0.2-1.7,0.2c-1.1,0.1-2.2,0.1-3.4-0.3c0.7,0.1,1.7,0.2,2.5,0.1c0.6,0,2.1,0,2.6-0.4&#10;&#9;&#9;&#9;c-0.4-0.2-0.7-0.3-1.3-0.6c-0.7-0.4-1.5-0.6-2.3-1.1c1.2,0.6,2.6,0.8,3.7,1.6c-0.3-0.4-0.6-0.9-0.9-1.3c-0.3-0.4-0.6-0.7-1-1&#10;&#9;&#9;&#9;c0.2,0.1,0.4,0.2,0.6,0.4c0.3,0.2,0.5,0.5,0.7,0.8c0.2,0.3,0.3,0.6,0.5,0.8c0.2,0.3,0.5,0.4,0.7,0.7c0.2,0.2,0,0.3,0,0.5&#10;&#9;&#9;&#9;c-0.1,0.3,0,0.6,0,0.8c0,0.5,0,0.8,0,1.2c0,0.4,0,1-0.1,1.4c0-1-0.3-2.1,0-3c-0.4,0.5-0.7,1-1.1,1.5c-0.2,0.3-0.4,0.6-0.6,0.9&#10;&#9;&#9;&#9;c-0.3,0.3-0.7,1-1.1,1.2c0.4-0.5,0.9-1.1,1.2-1.7c0.4-0.7,1.1-1.3,1.5-2c-0.6,0.5-1.2,0.8-1.9,1.2c-0.5,0.3-1,0.5-1.5,0.8&#10;&#9;&#9;&#9;c-0.6,0.3-1.1,0.7-1.7,0.9c0.6-0.5,1.4-0.9,2.1-1.3c0.9-0.5,2.1-1,2.8-1.8c-0.3,0-0.7,0.2-1,0.3c-0.6,0.1-1.1,0.3-1.7,0.4&#10;&#9;&#9;&#9;c-0.8,0.2-1.6,0.4-2.4,0.7c-0.4,0.1-0.8,0.3-1.2,0.4C1322.2,703.5,1321.7,703.6,1321.3,703.7c-0.2,0.1-0.4,0.2-0.6,0.3&#10;&#9;&#9;&#9;C1320.9,703.8,1321.1,703.7,1321.3,703.7z" style="fill: rgb(255, 193, 82);" transform="matrix(1, 0, 0, 1, 5.684341886080802e-14, 1.4210854715202004e-14)"/><path class="st7" d="M1297.7,783.6c0.4-0.2,0.7,0,1.1,0.1c0.3,0.1,2,1,2.1,0.5c0-0.4-1.3-0.8-1.7-1c-0.3-0.1-0.6-0.2-0.8-0.4&#10;&#9;&#9;&#9;c-0.3-0.3,0.5-2.6-1.9-5.7c-0.6-0.8-1.6-1.6-2.3-2.3c-0.8-0.8-2.1-1.2-3.1-1.5c-1.3-0.4-2.7-0.3-4-0.1c-0.8,0.2-1.8,0.7-2.7,0.7&#10;&#9;&#9;&#9;c-0.3,0.8,0,1.7,0.2,2.4c0.2,0.8,0.4,1.6,0.5,2.4c0.3,2.6,2.1,4.2,4.4,5.3c2,0.9,4.7,1.5,6.8,0.6&#10;&#9;&#9;&#9;C1296.7,784.3,1297.1,783.8,1297.7,783.6z M1293.9,783.5c-0.6,0.3-1.3,0.5-2,0.5c-0.1,0-0.1-0.1,0-0.2c0.7-0.4,1.5-0.4,2.2-0.8&#10;&#9;&#9;&#9;c0.5-0.3,1.1-0.4,1.7-0.5c-0.1,0-0.1-0.1-0.2-0.1c-0.5-0.3-0.9-0.8-1.5-1.1c-0.3-0.2-0.6-0.4-0.9-0.7c-0.3,0.1-0.7,0.2-1,0.3&#10;&#9;&#9;&#9;c-0.5,0.1-0.9,0.5-1.4,0.7c-1,0.4-2,0.5-3,0.9c-0.1,0-0.2-0.1-0.1-0.2c0.6-0.5,1.5-0.6,2.3-0.8c1.1-0.3,1.9-0.9,3-1&#10;&#9;&#9;&#9;c-0.1-0.1-0.2-0.2-0.3-0.2c-0.9-0.7-1.8-1.4-2.7-2.1c-0.7,0.2-1.4,0.3-2.1,0.6c-0.6,0.2-1.4,0.7-2.1,0.6c-0.1,0-0.1-0.1-0.1-0.2&#10;&#9;&#9;&#9;c0.5-0.4,1.4-0.6,2-0.8c0.6-0.2,1.2-0.4,1.8-0.4c-0.7-0.5-1.5-0.9-2.2-1.4c-0.1,0-0.1-0.1-0.2-0.1c-0.3,0.2-0.6,0.2-1,0.3&#10;&#9;&#9;&#9;c-0.4,0.1-0.9,0.2-1.2,0.1c-0.1,0-0.1-0.1,0-0.2c0.2-0.2,0.6-0.2,0.9-0.2c0.4,0,0.7-0.1,1-0.2c-0.6-0.5-1.4-1.2-1.6-1.8&#10;&#9;&#9;&#9;c0.7,0.5,1.3,1,1.9,1.5c0-0.2,0-0.4,0-0.6c0-0.3,0-0.6,0-0.9c0-0.3-0.1-0.5,0-0.7c0-0.1,0.1-0.1,0.2,0c0.3,0.3,0.2,0.7,0.2,1.1&#10;&#9;&#9;&#9;c0,0.4,0,0.9,0,1.3c0.2,0.2,0.5,0.4,0.8,0.6c0.5,0.4,1.1,0.7,1.7,1c0-0.3,0-0.6,0-0.9c0.1-0.9-0.2-1.9,0-2.8c0-0.1,0.2-0.1,0.2,0&#10;&#9;&#9;&#9;c0.2,0.7,0.1,1.4,0.1,2.1c0,0.6-0.1,1.1,0,1.7c0.5,0.3,0.9,0.5,1.2,0.9c0.6,0.6,1.1,1.2,1.8,1.6c-0.1-0.6-0.1-1.2-0.1-1.9&#10;&#9;&#9;&#9;c0-1-0.6-2-0.3-3c0-0.1,0.1-0.1,0.1,0c0.4,1.7,0.4,3.3,0.5,5c0.9,0.5,1.7,1,2.5,1.6c-0.2-0.6-0.3-1.3-0.4-1.9&#10;&#9;&#9;&#9;c-0.1-0.7-0.2-1.7,0.1-2.4c0-0.1,0.2-0.1,0.2,0c0.3,1.5,0.3,3,0.4,4.5c0.5,0.3,0.9,0.6,1.4,0.9c-0.4,0.2-0.8,0-1-0.2&#10;&#9;&#9;&#9;c-0.2-0.1-0.5-0.2-0.7-0.3C1295.4,782.9,1294.6,783.1,1293.9,783.5z" style="fill: rgb(255, 193, 82);" transform="matrix(1, 0, 0, 1, 5.684341886080802e-14, 1.4210854715202004e-14)"/><path class="st7" d="M1236.6,684.6c0.1-0.4,0.4-0.6,0.8-0.8c0.3-0.2,2-1.1,1.7-1.4c-0.3-0.3-1.5,0.6-1.9,0.8&#10;&#9;&#9;&#9;c-0.2,0.1-0.6,0.4-0.8,0.5c-0.5,0.1-1.9-2-5.9-1.9c-1,0-2.3,0.3-3.3,0.5c-1.1,0.2-2.3,1-3.2,1.7c-1.1,0.8-1.9,2.1-2.5,3.3&#10;&#9;&#9;&#9;c-0.4,0.8-0.5,2-1.1,2.7c0.5,0.7,1.4,1,2.1,1.3c0.8,0.3,1.5,0.6,2.2,1.1c2.3,1.3,4.8,0.8,7.1-0.4c2-1.1,4.1-3,4.6-5.3&#10;&#9;&#9;&#9;C1236.6,685.9,1236.4,685.2,1236.6,684.6z M1234.2,687.7c-0.1,0.7-0.4,1.4-0.8,2c-0.1,0.1-0.2,0-0.2-0.1c0.1-0.8,0.5-1.5,0.6-2.3&#10;&#9;&#9;&#9;c0.1-0.6,0.3-1.2,0.6-1.8c-0.1,0-0.1,0.1-0.2,0.1c-0.6,0.2-1.2,0.3-1.8,0.5c-0.3,0.1-0.7,0.2-1.1,0.3c-0.1,0.4-0.2,0.7-0.4,1.1&#10;&#9;&#9;&#9;c-0.2,0.5-0.1,1-0.3,1.6c-0.3,1-0.8,2-1.1,3c0,0.1-0.2,0.1-0.2,0c0-0.9,0.4-1.6,0.7-2.4c0.4-1.1,0.4-2.1,0.9-3.1&#10;&#9;&#9;&#9;c-0.1,0-0.3,0.1-0.4,0.1c-1.1,0.4-2.3,0.6-3.4,1c-0.3,0.7-0.6,1.4-0.8,2.1c-0.2,0.7-0.3,1.6-0.8,2.1c-0.1,0.1-0.2,0-0.2,0&#10;&#9;&#9;&#9;c0-0.7,0.3-1.5,0.5-2.2c0.2-0.6,0.4-1.3,0.8-1.8c-0.8,0.3-1.7,0.7-2.5,1c-0.1,0-0.1,0-0.2,0.1c0,0.4-0.2,0.7-0.3,1&#10;&#9;&#9;&#9;c-0.2,0.3-0.4,0.9-0.7,1.1c-0.1,0-0.2,0-0.2-0.1c0-0.3,0.2-0.7,0.4-0.9c0.2-0.3,0.3-0.6,0.5-1c-0.8,0.2-1.8,0.4-2.5,0.2&#10;&#9;&#9;&#9;c0.8-0.3,1.6-0.5,2.4-0.7c-0.2-0.1-0.3-0.2-0.5-0.3c-0.3-0.2-0.5-0.4-0.8-0.5c-0.2-0.2-0.4-0.2-0.6-0.4c0-0.1,0-0.2,0.1-0.2&#10;&#9;&#9;&#9;c0.4,0,0.8,0.3,1.1,0.5c0.4,0.3,0.7,0.6,1.1,0.9c0.3-0.1,0.6-0.2,0.9-0.3c0.6-0.2,1.3-0.5,1.9-0.8c-0.3-0.2-0.5-0.4-0.8-0.6&#10;&#9;&#9;&#9;c-0.7-0.6-1.7-0.9-2.3-1.7c-0.1-0.1,0-0.2,0.1-0.1c0.7,0.3,1.2,0.8,1.9,1.2c0.5,0.3,0.9,0.8,1.4,1.1c0.5-0.2,1-0.4,1.5-0.5&#10;&#9;&#9;&#9;c0.8-0.1,1.7-0.2,2.5-0.5c-0.6-0.3-1.1-0.7-1.6-1.1c-0.8-0.6-2-0.8-2.6-1.6c0-0.1,0-0.1,0.1-0.1c1.7,0.7,3,1.7,4.4,2.7&#10;&#9;&#9;&#9;c0.9-0.4,1.9-0.7,2.9-1.1c-0.6-0.2-1.2-0.6-1.8-0.9c-0.7-0.4-1.5-0.9-1.9-1.5c0-0.1,0-0.2,0.1-0.2c1.4,0.7,2.7,1.6,4,2.4&#10;&#9;&#9;&#9;c0.5-0.2,1.1-0.4,1.6-0.6c-0.1,0.4-0.5,0.6-0.8,0.8c-0.2,0.1-0.5,0.3-0.7,0.4C1234.6,686.1,1234.3,686.8,1234.2,687.7z" style="fill: rgb(255, 193, 82);" transform="matrix(1, 0, 0, 1, 5.684341886080802e-14, 1.4210854715202004e-14)"/><path class="st7" d="M1232.8,732.8c0.1,0,0.2,0.2,0.5,0.1c0.4-0.1,0.6-0.6,1-0.5c0.1,1.3,1.4-0.2,2-0.2c0.1,1.5,1.8-0.3,1.9,0.9&#10;&#9;&#9;&#9;c0,0.4-0.4,1.1,0.5,0.9c0.7-0.2,1.1-0.8,1.9-0.9c0.5,0.7-0.4,1.7,0.9,1.2c0,0.2,0,0.3,0,0.5c0.5,0,0.8-0.5,1.2-0.7&#10;&#9;&#9;&#9;c0.1,1.1,1.1-0.6,1.1,0.7c0,0.4-0.2,1.1,0.4,1.1c0.4,0,0.6-0.6,1-0.8c0.1,0.2,0.1,0.3,0.2,0.5c0.4-0.2,0.7-1.2,1.2-1.1&#10;&#9;&#9;&#9;c0,0.2,0.1,0.3,0.2,0.5c0.4-0.1,0.7-0.7,1-0.5c0.3,0.2,0.3,0.9,0.3,1.2c0.7-0.4,1.3-0.9,1.7-1.5c0.2-0.3,0.3-0.7,0.6-0.9&#10;&#9;&#9;&#9;c0.3-0.2,0.5,0,0.8-0.3c0.4-0.5,0.4-1.2,0.2-1.7c-0.3-0.7,0.2-1.6,0.1-2.3c-0.2-0.7-1.7-2.6-1.1-3c0.5-0.3,1.4-0.4,2-0.6&#10;&#9;&#9;&#9;c0.6-0.2,1.3-0.4,1.9-0.5c0.3-0.1,1.7-0.1,1.8-0.4c0.2-0.4-0.3-0.4-0.6-0.4c-0.6,0.1-1.3,0.3-2,0.5c-0.9,0.2-1.8,0.3-2.7,0.5&#10;&#9;&#9;&#9;c-0.4,0.1-0.8,0.4-1.2,0c-0.2-0.2,0.7-1.6,0.6-1.8c-0.3-1.1-1.5-1.4-2-2.5c-0.4-0.8-0.7-1.2-1.5-1.4c-0.6-0.1-0.9,0-1.5,0.1&#10;&#9;&#9;&#9;c-0.4,0-2.1-0.7-1.8,0.3c-0.7,0.2-2.4-0.4-2.6,0.7c0.2,0.2,0.5,0.2,0.7,0.4c-0.3,0.5-1,0.2-1.2,0.7c0.1,0,0.2,0.2,0.4,0.2&#10;&#9;&#9;&#9;c-0.4,0.5-2.9,0.3-2.8,1.4c0.1,0.4,0.7,0.4,0.8,0.8c0.1,0.4-0.3,0.5-0.7,0.7c-0.3,0.1-1.2,0.1-1.4,0.4c-0.3,0.4,0.5,0.5,0.8,0.7&#10;&#9;&#9;&#9;c1.1,0.6-0.9,1.2-1.4,1.3c-0.2,0.1-0.9,0.2-0.9,0.6c0,0.3,0.7,0.4,0.9,0.7c-0.4,0.4-1.2,0.2-1.5,0.7c0.2,0.2,0.4,0.2,0.6,0.4&#10;&#9;&#9;&#9;c-0.3,0.4-0.9,0.4-1.3,0.5c-0.7,0.3-0.3,0.3,0.1,0.7c-0.4,0.3-1.4,0.2-1.6,0.6c0.2,0.1,0.5,0.1,0.7,0.3c-0.4,0.5-1.3,0.9-1.8,1.3&#10;&#9;&#9;&#9;C1231.8,733.4,1232.2,732.8,1232.8,732.8z M1236.4,730.1c1.2-0.5,2.5-0.9,3.8-1.3c1.2-0.3,2.4-0.9,3.6-1.2&#10;&#9;&#9;&#9;c1.5-0.4,4.1-0.8,4.9-1.5c-1,0.3-1.8,0.3-2.8,0.4c-1.8,0.1-3.7,0.2-5.7-0.4c1.2,0.1,2.9,0.3,4.2,0.2c1.1,0,3.5,0,4.4-0.8&#10;&#9;&#9;&#9;c-0.7-0.4-1.2-0.5-2.2-1c-1.2-0.6-2.5-1-3.8-1.9c2,1,4.4,1.4,6.2,2.7c-0.5-0.7-1.1-1.5-1.5-2.2c-0.5-0.7-1-1.2-1.6-1.7&#10;&#9;&#9;&#9;c0.3,0.2,0.6,0.4,1,0.7c0.4,0.4,0.8,0.8,1.1,1.3c0.4,0.4,0.6,0.9,0.9,1.4c0.3,0.4,0.8,0.7,1.1,1.1c0.3,0.3,0.1,0.5,0,0.8&#10;&#9;&#9;&#9;c-0.1,0.5,0,0.9-0.1,1.4c-0.1,0.8,0.1,1.3,0,1.9c-0.1,0.7,0.1,1.6-0.2,2.3c-0.1-1.6-0.5-3.4-0.1-5.1c-0.6,0.8-1.2,1.7-1.8,2.5&#10;&#9;&#9;&#9;c-0.4,0.5-0.7,1-1.1,1.5c-0.5,0.6-1.2,1.7-1.9,2c0.8-0.8,1.5-1.9,2-2.9c0.7-1.2,1.8-2.2,2.5-3.3c-1,0.8-2,1.3-3.1,1.9&#10;&#9;&#9;&#9;c-0.8,0.5-1.7,0.9-2.5,1.3c-1,0.4-1.8,1.2-2.8,1.5c1-0.8,2.3-1.5,3.5-2.2c1.5-0.8,3.5-1.7,4.6-3c-0.5,0.1-1.1,0.4-1.6,0.5&#10;&#9;&#9;&#9;c-1,0.2-1.9,0.5-2.8,0.7c-1.3,0.4-2.8,0.7-4.1,1.2c-0.7,0.2-1.3,0.5-1.9,0.7C1237.8,729.8,1237.1,729.9,1236.4,730.1&#10;&#9;&#9;&#9;c-0.3,0.1-0.6,0.3-1,0.4C1235.7,730.3,1236,730.1,1236.4,730.1z" style="fill: rgb(255, 193, 82);" transform="matrix(1, 0, 0, 1, 5.684341886080802e-14, 1.4210854715202004e-14)"/><path class="st7" d="M1265.2,716.2c0.3,0,0.5,0.3,0.8,0.5c0.2,0.2,1.1,1.6,1.4,1.2c0.2-0.3-0.7-1.1-0.9-1.5&#10;&#9;&#9;&#9;c-0.1-0.2-0.4-0.4-0.5-0.6c-0.1-0.4,1.4-1.8,0.9-5.1c-0.1-0.8-0.5-1.9-0.8-2.7c-0.3-0.9-1.1-1.8-1.8-2.4c-0.8-0.8-1.9-1.4-3-1.7&#10;&#9;&#9;&#9;c-0.7-0.2-1.7-0.2-2.3-0.6c-0.5,0.5-0.7,1.3-0.8,1.9c-0.2,0.7-0.4,1.3-0.6,2c-0.8,2.1-0.1,4.1,1.2,5.8c1.1,1.5,3,3,4.9,3.2&#10;&#9;&#9;&#9;C1264.2,716.3,1264.7,716.1,1265.2,716.2z M1262.4,714.5c-0.6,0-1.2-0.1-1.7-0.4c-0.1,0,0-0.2,0-0.2c0.7,0,1.3,0.3,2,0.3&#10;&#9;&#9;&#9;c0.5,0,1,0.1,1.5,0.3c0-0.1-0.1-0.1-0.1-0.2c-0.3-0.4-0.4-1-0.7-1.4c-0.2-0.3-0.3-0.6-0.4-0.9c-0.3,0-0.6-0.1-0.9-0.2&#10;&#9;&#9;&#9;c-0.5-0.1-0.9,0-1.3,0c-0.9-0.1-1.7-0.4-2.6-0.6c-0.1,0-0.1-0.2,0-0.2c0.7-0.1,1.4,0.1,2.1,0.3c0.9,0.3,1.8,0.1,2.7,0.4&#10;&#9;&#9;&#9;c0-0.1-0.1-0.2-0.1-0.3c-0.4-0.9-0.8-1.8-1.2-2.7c-0.6-0.2-1.2-0.3-1.8-0.4c-0.6-0.1-1.3,0-1.8-0.4c0,0-0.1-0.1,0-0.1&#10;&#9;&#9;&#9;c0.6-0.1,1.3,0.1,1.9,0.2c0.5,0.1,1.1,0.2,1.6,0.4c-0.4-0.7-0.8-1.3-1.1-1.9c0,0,0-0.1-0.1-0.2c-0.3,0-0.6-0.1-0.9-0.2&#10;&#9;&#9;&#9;c-0.3-0.1-0.8-0.2-1-0.4c0-0.1,0-0.1,0-0.2c0.3-0.1,0.6,0.1,0.8,0.2c0.3,0.1,0.6,0.2,0.9,0.3c-0.3-0.6-0.6-1.4-0.4-2&#10;&#9;&#9;&#9;c0.3,0.6,0.6,1.3,0.9,1.9c0.1-0.2,0.1-0.3,0.2-0.4c0.1-0.2,0.2-0.5,0.4-0.7c0.1-0.2,0.1-0.4,0.3-0.6c0,0,0.1,0,0.1,0&#10;&#9;&#9;&#9;c0.1,0.3-0.1,0.7-0.3,0.9c-0.2,0.3-0.4,0.7-0.6,1c0.1,0.2,0.2,0.5,0.3,0.7c0.2,0.5,0.6,1,0.9,1.5c0.1-0.2,0.3-0.5,0.4-0.7&#10;&#9;&#9;&#9;c0.4-0.7,0.6-1.5,1.2-2.1c0.1-0.1,0.1,0,0.1,0.1c-0.2,0.6-0.5,1.1-0.8,1.7c-0.2,0.5-0.6,0.8-0.7,1.3c0.2,0.4,0.4,0.8,0.6,1.2&#10;&#9;&#9;&#9;c0.2,0.6,0.4,1.4,0.7,2c0.2-0.5,0.5-1,0.7-1.4c0.4-0.8,0.4-1.7,1-2.3c0,0,0.1,0,0.1,0.1c-0.3,1.4-1.1,2.6-1.7,3.9&#10;&#9;&#9;&#9;c0.5,0.7,0.8,1.5,1.2,2.2c0.1-0.5,0.3-1.1,0.5-1.6c0.2-0.6,0.5-1.3,1-1.7c0.1,0,0.2,0,0.1,0.1c-0.4,1.2-1,2.4-1.5,3.5&#10;&#9;&#9;&#9;c0.2,0.4,0.4,0.8,0.7,1.3c-0.4,0-0.6-0.3-0.7-0.6c-0.1-0.2-0.3-0.4-0.4-0.5C1263.8,714.7,1263.1,714.5,1262.4,714.5z" style="fill: rgb(255, 193, 82);" transform="matrix(1, 0, 0, 1, 5.684341886080802e-14, 1.4210854715202004e-14)"/><path class="st8" d="M166.7,868.7c-0.2,0.2-0.5,0.3-0.8,0.3c-0.2,0-1.8,0-1.6,0.4c0.1,0.3,1.2,0.1,1.6,0.1c0.2,0,0.5-0.1,0.7,0&#10;&#9;&#9;&#9;c0.3,0.1,0.6,2,3.4,3.3c0.7,0.3,1.7,0.6,2.4,0.8c0.8,0.3,1.9,0.1,2.8,0c1-0.2,2-0.7,2.9-1.4c0.5-0.4,1-1.2,1.7-1.4&#10;&#9;&#9;&#9;c-0.1-0.6-0.6-1.2-1-1.6c-0.4-0.5-0.8-1-1.2-1.5c-1.1-1.7-3-2.2-5-2.2c-1.7,0.1-3.8,0.6-5,2C167.1,867.8,167,868.3,166.7,868.7z&#10;&#9;&#9;&#9; M169.4,867.5c0.3-0.4,0.7-0.8,1.2-1.1c0.1,0,0.1,0.1,0.1,0.1c-0.3,0.5-0.9,0.8-1.2,1.3c-0.3,0.4-0.6,0.7-1,1c0.1,0,0.1,0,0.2,0&#10;&#9;&#9;&#9;c0.5,0,0.9,0.2,1.4,0.2c0.3,0,0.6,0.1,0.8,0.2c0.2-0.2,0.4-0.4,0.6-0.6c0.3-0.3,0.5-0.7,0.7-1c0.5-0.6,1.2-1.1,1.8-1.7&#10;&#9;&#9;&#9;c0.1-0.1,0.2,0,0.1,0.1c-0.3,0.6-0.8,1-1.3,1.4c-0.7,0.6-1,1.3-1.7,1.8c0.1,0,0.2,0,0.3,0.1c0.9,0.1,1.8,0.4,2.7,0.5&#10;&#9;&#9;&#9;c0.4-0.4,0.9-0.7,1.3-1.2c0.4-0.4,0.7-1,1.3-1.1c0.1,0,0.1,0,0.1,0.1c-0.2,0.5-0.8,0.9-1.1,1.3c-0.3,0.3-0.7,0.7-1.2,1&#10;&#9;&#9;&#9;c0.7,0.1,1.4,0.1,2,0.2c0.1,0,0.1,0,0.2,0c0.1-0.2,0.4-0.4,0.6-0.6c0.2-0.2,0.5-0.5,0.8-0.5c0.1,0,0.1,0.1,0.1,0.1&#10;&#9;&#9;&#9;c-0.1,0.3-0.4,0.4-0.6,0.5c-0.2,0.1-0.5,0.3-0.7,0.5c0.6,0.1,1.4,0.3,1.8,0.7c-0.6-0.1-1.3-0.2-1.9-0.3c0.1,0.1,0.2,0.3,0.2,0.4&#10;&#9;&#9;&#9;c0.1,0.2,0.2,0.4,0.3,0.6c0.1,0.2,0.2,0.3,0.3,0.5c0,0.1,0,0.1-0.1,0.1c-0.3-0.1-0.4-0.4-0.5-0.7c-0.1-0.3-0.3-0.6-0.4-1&#10;&#9;&#9;&#9;c-0.2,0-0.5-0.1-0.7-0.1c-0.5-0.1-1-0.1-1.6-0.1c0.1,0.2,0.2,0.4,0.3,0.7c0.3,0.7,0.8,1.2,0.9,2c0,0.1-0.1,0.1-0.1,0.1&#10;&#9;&#9;&#9;c-0.4-0.4-0.6-1-0.8-1.5c-0.2-0.4-0.3-0.9-0.6-1.2c-0.4,0-0.8-0.1-1.2-0.2c-0.6-0.2-1.2-0.5-1.9-0.5c0.3,0.4,0.5,0.8,0.7,1.3&#10;&#9;&#9;&#9;c0.4,0.7,1.1,1.2,1.2,2c0,0.1-0.1,0.1-0.1,0c-0.9-1-1.4-2.2-2.1-3.3c-0.8,0-1.6-0.1-2.3-0.3c0.3,0.4,0.6,0.8,0.9,1.2&#10;&#9;&#9;&#9;c0.3,0.5,0.7,1.1,0.8,1.7c0,0.1-0.1,0.1-0.1,0.1c-0.7-0.9-1.2-2-1.9-3c-0.4-0.1-0.9-0.1-1.3-0.2c0.2-0.2,0.5-0.3,0.8-0.3&#10;&#9;&#9;&#9;c0.2,0,0.4,0,0.6,0C168.5,868.4,169,868,169.4,867.5z" style="fill: rgb(255, 172, 6);" transform="matrix(1, 0, 0, 1, 5.684341886080802e-14, 1.4210854715202004e-14)"/><path class="st8" d="M74,947c-0.1,0.1-0.2,0-0.3,0.1c-0.2,0.2-0.1,0.6-0.4,0.7c-0.6-0.7-0.7,0.6-1,0.9c-0.6-0.8-0.9,0.9-1.4,0.3&#10;&#9;&#9;&#9;c-0.2-0.2-0.2-0.8-0.6-0.3c-0.3,0.4-0.3,0.9-0.7,1.2c-0.5-0.2-0.5-1.1-1-0.3c-0.1-0.1-0.1-0.2-0.2-0.3c-0.3,0.2-0.2,0.6-0.4,0.9&#10;&#9;&#9;&#9;c-0.5-0.6-0.4,0.8-0.9,0.1c-0.2-0.2-0.3-0.7-0.6-0.4c-0.2,0.2-0.1,0.6-0.2,0.8c-0.1-0.1-0.2-0.1-0.3-0.2c-0.1,0.3,0.1,0.9-0.2,1.1&#10;&#9;&#9;&#9;c-0.1-0.1-0.2-0.1-0.3-0.2c-0.2,0.2-0.1,0.6-0.4,0.7c-0.2,0-0.5-0.4-0.7-0.5c-0.2,0.5-0.4,1-0.4,1.5c0,0.2,0.1,0.5,0,0.7&#10;&#9;&#9;&#9;c-0.1,0.2-0.3,0.2-0.3,0.4c0,0.4,0.3,0.8,0.6,1c0.4,0.2,0.5,0.9,0.9,1.2c0.4,0.3,1.9,0.8,1.8,1.2c-0.1,0.4-0.6,0.8-0.8,1.1&#10;&#9;&#9;&#9;c-0.2,0.4-0.6,0.7-0.9,1c-0.1,0.2-0.9,0.7-0.8,0.9c0.1,0.3,0.4,0.1,0.5,0c0.3-0.3,0.6-0.7,0.9-1c0.4-0.5,0.9-0.8,1.3-1.3&#10;&#9;&#9;&#9;c0.2-0.2,0.3-0.5,0.6-0.5c0.2,0,0.3,1.1,0.4,1.2c0.6,0.5,1.4,0.2,2.1,0.6c0.5,0.3,0.8,0.4,1.4,0.1c0.4-0.2,0.5-0.4,0.8-0.6&#10;&#9;&#9;&#9;c0.2-0.2,1.4-0.4,0.8-0.9c0.3-0.4,1.4-0.7,1.2-1.4c-0.2,0-0.4,0.1-0.5,0.1c0-0.4,0.5-0.5,0.4-0.9c-0.1,0-0.2,0-0.3,0&#10;&#9;&#9;&#9;c0-0.4,1.5-1.3,1-1.8c-0.2-0.2-0.6,0.1-0.8-0.1c-0.2-0.2,0-0.4,0.1-0.6c0.1-0.2,0.6-0.5,0.6-0.7c0-0.4-0.5-0.1-0.7,0&#10;&#9;&#9;&#9;c-0.8,0.1,0-1,0.2-1.3c0.1-0.1,0.4-0.5,0.3-0.7c-0.1-0.2-0.6,0-0.8,0c0-0.4,0.6-0.6,0.5-1c-0.2,0-0.3,0.1-0.5,0&#10;&#9;&#9;&#9;c0-0.3,0.3-0.5,0.5-0.8c0.3-0.4,0-0.3-0.3-0.3c0.1-0.3,0.7-0.6,0.6-1c-0.2,0-0.3,0.1-0.5,0.1c0-0.4,0.4-1,0.4-1.4&#10;&#9;&#9;&#9;C74.2,946.3,74.3,946.8,74,947z M73.1,949.9c-0.5,0.8-1,1.5-1.5,2.2c-0.5,0.7-0.9,1.4-1.5,2c-0.6,0.8-1.9,2-2.1,2.7&#10;&#9;&#9;&#9;c0.4-0.6,0.8-0.9,1.4-1.3c1-0.8,1.9-1.5,3.2-2c-0.7,0.4-1.7,1-2.4,1.5c-0.6,0.4-1.9,1.4-2.1,2.1c0.5-0.1,0.8-0.2,1.6-0.3&#10;&#9;&#9;&#9;c0.9-0.1,1.7-0.4,2.8-0.5c-1.4,0.3-2.9,0.9-4.4,0.9c0.6,0.2,1.2,0.4,1.7,0.6c0.5,0.2,1,0.2,1.6,0.3c-0.3,0-0.5,0-0.8,0&#10;&#9;&#9;&#9;c-0.4,0-0.7-0.1-1.1-0.2c-0.4-0.1-0.7-0.3-1-0.4c-0.3-0.1-0.7,0-1-0.2c-0.3-0.1-0.2-0.3-0.3-0.5c-0.1-0.3-0.3-0.5-0.5-0.8&#10;&#9;&#9;&#9;c-0.3-0.4-0.5-0.7-0.8-1.1c-0.2-0.4-0.7-0.8-0.8-1.3c0.7,0.9,1.6,1.7,2,2.7c0-0.7,0-1.4,0-2c0-0.4,0-0.8,0-1.2&#10;&#9;&#9;&#9;c0-0.5,0-1.4,0.2-1.8c-0.1,0.7,0,1.6,0,2.3c0.1,0.9-0.1,1.9,0,2.8c0.2-0.8,0.6-1.5,0.9-2.3c0.3-0.6,0.5-1.1,0.9-1.7&#10;&#9;&#9;&#9;c0.4-0.6,0.5-1.3,0.9-1.9c-0.2,0.9-0.7,1.7-1.1,2.5c-0.5,1-1.2,2.3-1.3,3.4c0.3-0.3,0.4-0.6,0.7-0.9c0.4-0.5,0.8-1,1.2-1.5&#10;&#9;&#9;&#9;c0.6-0.7,1.2-1.5,1.7-2.2c0.3-0.4,0.5-0.8,0.8-1.1C72.4,950.6,72.8,950.3,73.1,949.9c0.1-0.2,0.2-0.4,0.4-0.6&#10;&#9;&#9;&#9;C73.4,949.5,73.2,949.7,73.1,949.9z" style="fill: rgb(255, 172, 6);" transform="matrix(1, 0, 0, 1, 5.684341886080802e-14, 1.4210854715202004e-14)"/><path class="st8" d="M42.3,862.3c-0.2,0.4-0.7,0.5-1.1,0.6c-0.3,0.1-2.5,0.4-2.2,0.9c0.2,0.3,1.7-0.1,2.2-0.2&#10;&#9;&#9;&#9;c0.3-0.1,0.7-0.2,1-0.2c0.5,0.1,1.2,2.7,5.4,3.9c1,0.3,2.5,0.4,3.5,0.6c1.2,0.2,2.7-0.3,3.8-0.7c1.4-0.4,2.7-1.5,3.7-2.5&#10;&#9;&#9;&#9;c0.6-0.7,1.2-1.9,2-2.4c-0.3-0.9-1.1-1.5-1.8-2.1c-0.7-0.6-1.4-1.2-2-1.8c-2-2.1-4.7-2.4-7.5-1.9c-2.4,0.5-5.2,1.7-6.5,3.9&#10;&#9;&#9;&#9;C42.7,861,42.6,861.8,42.3,862.3z M45.8,860c0.3-0.7,0.9-1.3,1.5-1.8c0.1-0.1,0.2,0,0.2,0.1c-0.4,0.8-1,1.3-1.4,2.1&#10;&#9;&#9;&#9;c-0.3,0.6-0.7,1.1-1.2,1.6c0.1,0,0.2,0,0.3,0c0.7,0,1.3,0.1,2,0c0.4,0,0.8,0,1.2,0c0.2-0.3,0.5-0.6,0.7-1c0.4-0.5,0.5-1,0.8-1.5&#10;&#9;&#9;&#9;c0.6-1,1.5-1.8,2.1-2.7c0.1-0.1,0.3,0,0.2,0.1c-0.2,0.9-1,1.6-1.5,2.2c-0.8,0.9-1.1,2-2,2.9c0.2,0,0.3,0,0.4,0&#10;&#9;&#9;&#9;c1.3,0,2.5,0.1,3.8,0.1c0.5-0.6,1.1-1.2,1.5-1.9c0.4-0.6,0.8-1.5,1.5-1.9c0.1,0,0.2,0,0.2,0.1c-0.2,0.8-0.8,1.4-1.3,2.1&#10;&#9;&#9;&#9;c-0.4,0.6-0.8,1.2-1.4,1.6c1,0,2-0.2,2.9-0.2c0.1,0,0.1,0,0.2,0c0.1-0.4,0.4-0.6,0.7-0.9c0.3-0.3,0.7-0.8,1.1-0.9&#10;&#9;&#9;&#9;c0.1,0,0.2,0,0.2,0.1c-0.1,0.4-0.4,0.6-0.7,0.8c-0.3,0.3-0.6,0.5-0.8,0.8c0.9,0,2,0.2,2.6,0.6c-0.9,0-1.8,0-2.7-0.1&#10;&#9;&#9;&#9;c0.1,0.2,0.3,0.3,0.4,0.5c0.2,0.3,0.4,0.5,0.6,0.8c0.2,0.2,0.4,0.4,0.5,0.7c0,0.1,0,0.2-0.1,0.1c-0.5-0.1-0.7-0.5-0.9-0.9&#10;&#9;&#9;&#9;c-0.3-0.4-0.6-0.8-0.8-1.2c-0.3,0-0.7,0-1.1,0c-0.7,0-1.5,0.1-2.2,0.2c0.2,0.2,0.4,0.6,0.6,0.9c0.5,0.9,1.4,1.5,1.8,2.5&#10;&#9;&#9;&#9;c0,0.1-0.1,0.2-0.2,0.1c-0.6-0.5-1-1.3-1.5-1.9c-0.4-0.5-0.6-1.1-1.1-1.6c-0.6,0.1-1.2,0.1-1.7,0c-0.9-0.1-1.8-0.4-2.7-0.3&#10;&#9;&#9;&#9;c0.5,0.5,0.9,1.1,1.3,1.6c0.7,0.9,1.8,1.4,2.2,2.5c0,0.1-0.1,0.1-0.1,0.1c-1.5-1.2-2.5-2.7-3.7-4.2c-1.1,0.1-2.2,0.1-3.3,0.2&#10;&#9;&#9;&#9;c0.6,0.4,1.1,1,1.6,1.5c0.6,0.6,1.3,1.4,1.4,2.2c0,0.1-0.1,0.2-0.2,0.1c-1.2-1.1-2.2-2.5-3.3-3.8c-0.6,0-1.2,0-1.8,0.1&#10;&#9;&#9;&#9;c0.3-0.4,0.7-0.5,1.1-0.5c0.3,0,0.6-0.1,0.9-0.2C44.8,861.5,45.4,860.9,45.8,860z" style="fill: rgb(255, 172, 6);" transform="matrix(1, 0, 0, 1, 5.684341886080802e-14, 1.4210854715202004e-14)"/><path class="st8" d="M162,912c0.2,0.4,0,0.8-0.2,1.2c-0.1,0.3-1.1,2.3-0.6,2.4c0.4,0,0.9-1.5,1.2-2c0.1-0.3,0.2-0.7,0.5-1&#10;&#9;&#9;&#9;c0.4-0.4,3,0.6,6.6-2.1c0.9-0.7,1.9-1.8,2.7-2.5c0.9-0.9,1.4-2.4,1.8-3.6c0.5-1.4,0.4-3.1,0.1-4.6c-0.2-1-0.8-2.1-0.8-3.1&#10;&#9;&#9;&#9;c-0.9-0.3-1.9,0-2.8,0.2c-0.9,0.2-1.8,0.4-2.7,0.5c-3,0.3-4.9,2.4-6.1,5c-1.1,2.3-1.7,5.4-0.7,7.8&#10;&#9;&#9;&#9;C161.2,910.8,161.7,911.4,162,912z M162.2,907.7c-0.4-0.7-0.6-1.5-0.6-2.3c0-0.1,0.2-0.1,0.2-0.1c0.4,0.8,0.5,1.7,0.9,2.5&#10;&#9;&#9;&#9;c0.3,0.6,0.5,1.3,0.6,2c0-0.1,0.1-0.2,0.1-0.2c0.4-0.6,0.9-1.1,1.3-1.7c0.2-0.3,0.5-0.7,0.8-1c-0.1-0.4-0.3-0.8-0.4-1.2&#10;&#9;&#9;&#9;c-0.2-0.6-0.6-1-0.8-1.6c-0.4-1.1-0.6-2.3-1-3.4c0-0.1,0.1-0.2,0.2-0.1c0.6,0.7,0.7,1.7,0.9,2.7c0.3,1.3,1,2.1,1.2,3.4&#10;&#9;&#9;&#9;c0.1-0.1,0.2-0.2,0.3-0.4c0.8-1.1,1.6-2,2.4-3.1c-0.2-0.8-0.4-1.6-0.7-2.4c-0.3-0.7-0.8-1.6-0.7-2.4c0-0.1,0.1-0.2,0.2-0.1&#10;&#9;&#9;&#9;c0.5,0.6,0.7,1.6,0.9,2.3c0.2,0.7,0.5,1.4,0.5,2.1c0.6-0.8,1-1.7,1.6-2.5c0-0.1,0.1-0.1,0.1-0.2c-0.2-0.3-0.3-0.7-0.3-1.1&#10;&#9;&#9;&#9;c-0.1-0.4-0.2-1-0.1-1.4c0-0.1,0.1-0.1,0.2-0.1c0.3,0.3,0.2,0.7,0.3,1.1c0,0.4,0.1,0.8,0.2,1.2c0.6-0.7,1.3-1.5,2.1-1.8&#10;&#9;&#9;&#9;c-0.5,0.8-1.1,1.5-1.7,2.2c0.2,0,0.4,0,0.7,0c0.3,0,0.7,0,1,0c0.3,0,0.6-0.1,0.8,0c0.1,0,0.1,0.1,0,0.2c-0.4,0.3-0.9,0.2-1.3,0.2&#10;&#9;&#9;&#9;c-0.5,0-1,0-1.5-0.1c-0.2,0.3-0.4,0.6-0.7,0.9c-0.4,0.6-0.8,1.3-1.2,2c0.4,0,0.7,0,1.1,0c1.1,0.1,2.2-0.3,3.2,0.1&#10;&#9;&#9;&#9;c0.1,0,0.1,0.2,0,0.2c-0.8,0.2-1.7,0.1-2.5,0.1c-0.7,0-1.3-0.2-2-0.1c-0.3,0.5-0.6,1-1,1.4c-0.6,0.6-1.4,1.3-1.9,2.1&#10;&#9;&#9;&#9;c0.7-0.1,1.4-0.1,2.1-0.1c1.1,0,2.3-0.6,3.4-0.3c0.1,0,0.1,0.1,0,0.1c-1.9,0.5-3.8,0.4-5.7,0.5c-0.6,1-1.2,1.9-1.9,2.8&#10;&#9;&#9;&#9;c0.7-0.2,1.5-0.3,2.2-0.4c0.9-0.1,1.9-0.2,2.7,0.1c0.1,0,0.1,0.2,0,0.2c-1.7,0.3-3.5,0.3-5.2,0.4c-0.4,0.5-0.7,1-1.1,1.6&#10;&#9;&#9;&#9;c-0.2-0.4,0-0.9,0.2-1.2c0.1-0.3,0.3-0.5,0.4-0.8C162.8,909.4,162.6,908.5,162.2,907.7z" style="fill: rgb(255, 172, 6);" transform="matrix(1, 0, 0, 1, 5.684341886080802e-14, 1.4210854715202004e-14)"/><path class="st8" d="M134,866c-0.1,0.1-0.3,0-0.5,0.2c-0.3,0.3-0.1,1-0.6,1.1c-0.9-1.1-1.1,1.1-1.7,1.5c-1.1-1.3-1.4,1.5-2.3,0.5&#10;&#9;&#9;&#9;c-0.3-0.4-0.4-1.3-1-0.5c-0.5,0.6-0.5,1.5-1.1,2.1c-0.9-0.3-0.8-1.8-1.6-0.5c-0.1-0.2-0.2-0.3-0.3-0.5c-0.5,0.4-0.3,1-0.6,1.5&#10;&#9;&#9;&#9;c-0.9-0.9-0.6,1.3-1.5,0.1c-0.3-0.4-0.6-1.2-1.1-0.7c-0.3,0.3-0.2,1-0.4,1.3c-0.2-0.1-0.3-0.2-0.5-0.3c-0.2,0.4,0.1,1.5-0.3,1.8&#10;&#9;&#9;&#9;c-0.1-0.1-0.3-0.2-0.5-0.3c-0.3,0.4-0.2,1.1-0.6,1.1c-0.4,0.1-0.8-0.6-1.1-0.9c-0.4,0.8-0.6,1.6-0.6,2.5c0,0.4,0.2,0.8,0,1.2&#10;&#9;&#9;&#9;c-0.1,0.3-0.5,0.4-0.5,0.7c-0.1,0.7,0.4,1.3,1,1.6c0.7,0.4,0.8,1.6,1.4,2.1c0.6,0.5,3.2,1.3,3,2c-0.2,0.6-1,1.3-1.4,1.9&#10;&#9;&#9;&#9;c-0.4,0.6-0.9,1.2-1.4,1.7c-0.2,0.3-1.5,1.2-1.4,1.5c0.1,0.5,0.6,0.2,0.8-0.1c0.5-0.5,1-1.2,1.5-1.7c0.7-0.8,1.5-1.4,2.1-2.2&#10;&#9;&#9;&#9;c0.3-0.4,0.5-0.9,1.1-0.8c0.3,0,0.4,1.9,0.6,2c1,0.8,2.3,0.3,3.5,1c0.8,0.5,1.4,0.6,2.3,0.2c0.6-0.3,0.8-0.6,1.3-1&#10;&#9;&#9;&#9;c0.4-0.3,2.4-0.7,1.4-1.5c0.5-0.6,2.4-1.2,1.9-2.3c-0.3,0-0.6,0.2-0.9,0.2c0-0.6,0.8-0.8,0.7-1.4c-0.1,0-0.3,0-0.5,0&#10;&#9;&#9;&#9;c0-0.7,2.5-2.1,1.6-3c-0.3-0.3-0.9,0.1-1.3-0.2c-0.3-0.3,0-0.7,0.2-1c0.2-0.3,1-0.9,1-1.2c0-0.6-0.8-0.1-1.2-0.1&#10;&#9;&#9;&#9;c-1.3,0.2,0-1.6,0.4-2.1c0.2-0.2,0.7-0.8,0.5-1.1c-0.2-0.3-0.9,0.1-1.3,0c0.1-0.6,1-0.9,0.9-1.6c-0.3,0-0.5,0.1-0.8,0&#10;&#9;&#9;&#9;c0-0.6,0.6-0.9,0.9-1.3c0.5-0.7,0-0.5-0.5-0.6c0.2-0.5,1.1-1.1,1-1.6c-0.3,0-0.6,0.2-0.9,0.2c0-0.7,0.6-1.6,0.7-2.3&#10;&#9;&#9;&#9;C134.5,864.8,134.6,865.6,134,866z M132.6,870.9c-0.8,1.3-1.6,2.5-2.6,3.6c-0.9,1.1-1.6,2.3-2.5,3.4c-1.1,1.3-3.1,3.4-3.4,4.5&#10;&#9;&#9;&#9;c0.7-0.9,1.4-1.5,2.3-2.2c1.6-1.3,3.1-2.6,5.4-3.3c-1.1,0.7-2.8,1.6-3.9,2.5c-1,0.7-3.2,2.3-3.5,3.5c0.9-0.1,1.4-0.3,2.7-0.5&#10;&#9;&#9;&#9;c1.4-0.2,2.9-0.7,4.7-0.8c-2.4,0.4-4.9,1.6-7.3,1.6c1,0.3,1.9,0.7,2.8,1c0.9,0.3,1.7,0.4,2.6,0.5c-0.4,0-0.8,0.1-1.3,0&#10;&#9;&#9;&#9;c-0.6-0.1-1.2-0.2-1.8-0.4c-0.6-0.2-1.1-0.5-1.7-0.6c-0.6-0.2-1.2-0.1-1.7-0.3c-0.4-0.1-0.4-0.4-0.5-0.8c-0.2-0.5-0.6-0.9-0.8-1.3&#10;&#9;&#9;&#9;c-0.4-0.7-0.9-1.1-1.3-1.8c-0.4-0.7-1.1-1.4-1.3-2.2c1.1,1.4,2.6,2.8,3.4,4.5c0.1-1.1,0-2.3,0-3.4c0-0.7-0.1-1.4,0-2.1&#10;&#9;&#9;&#9;c0.1-0.8,0-2.3,0.4-3c-0.1,1.2-0.1,2.7,0,3.9c0.1,1.5-0.2,3.1-0.1,4.6c0.4-1.3,1-2.5,1.5-3.8c0.4-1,0.9-1.9,1.4-2.8&#10;&#9;&#9;&#9;c0.6-1,0.9-2.2,1.6-3.2c-0.4,1.4-1.1,2.9-1.8,4.2c-0.9,1.7-2.1,3.8-2.2,5.7c0.4-0.4,0.7-1.1,1.1-1.5c0.7-0.8,1.4-1.7,2.1-2.5&#10;&#9;&#9;&#9;c0.9-1.2,2-2.5,2.9-3.7c0.4-0.6,0.8-1.3,1.3-1.9C131.4,872,132.1,871.4,132.6,870.9c0.2-0.3,0.4-0.7,0.6-1&#10;&#9;&#9;&#9;C133,870.2,132.8,870.5,132.6,870.9z" style="fill: rgb(255, 172, 6);" transform="matrix(1, 0, 0, 1, 5.684341886080802e-14, 1.4210854715202004e-14)"/><path class="st8" d="M115.6,902.1c-0.3,0.2-0.7,0.1-1.1,0c-0.3-0.1-2-0.7-2-0.2c0,0.3,1.3,0.6,1.8,0.7c0.3,0.1,0.6,0.1,0.9,0.3&#10;&#9;&#9;&#9;c0.3,0.3-0.2,2.5,2.5,5.1c0.7,0.6,1.7,1.3,2.4,1.9c0.9,0.6,2.1,0.9,3.2,1.1c1.3,0.2,2.6,0,3.8-0.4c0.8-0.3,1.7-0.9,2.5-1&#10;&#9;&#9;&#9;c0.2-0.8-0.2-1.6-0.5-2.3c-0.3-0.7-0.5-1.4-0.7-2.2c-0.6-2.4-2.6-3.7-4.9-4.5c-2-0.6-4.7-0.8-6.5,0.3&#10;&#9;&#9;&#9;C116.4,901.3,116.1,901.9,115.6,902.1z M119.2,901.8c0.5-0.4,1.2-0.7,1.8-0.7c0.1,0,0.1,0.1,0.1,0.2c-0.6,0.4-1.3,0.6-1.9,1&#10;&#9;&#9;&#9;c-0.5,0.3-1,0.5-1.6,0.7c0.1,0,0.1,0,0.2,0.1c0.5,0.2,1,0.6,1.5,0.8c0.3,0.1,0.6,0.3,0.9,0.5c0.3-0.2,0.6-0.3,0.9-0.4&#10;&#9;&#9;&#9;c0.5-0.2,0.8-0.6,1.2-0.8c0.9-0.5,1.8-0.7,2.7-1.2c0.1-0.1,0.2,0.1,0.1,0.2c-0.6,0.6-1.4,0.8-2.1,1.1c-1,0.4-1.7,1.1-2.7,1.4&#10;&#9;&#9;&#9;c0.1,0.1,0.2,0.1,0.3,0.2c1,0.5,1.9,1.1,2.8,1.6c0.7-0.3,1.3-0.5,1.9-0.8c0.6-0.3,1.2-0.8,1.9-0.8c0.1,0,0.1,0.1,0.1,0.1&#10;&#9;&#9;&#9;c-0.5,0.5-1.2,0.7-1.8,1c-0.5,0.3-1.1,0.6-1.7,0.6c0.7,0.4,1.6,0.6,2.3,1c0.1,0,0.1,0.1,0.2,0.1c0.3-0.2,0.6-0.3,0.9-0.4&#10;&#9;&#9;&#9;c0.3-0.1,0.8-0.3,1.2-0.2c0.1,0,0.1,0.1,0.1,0.2c-0.2,0.3-0.6,0.3-0.9,0.4c-0.3,0.1-0.7,0.2-1,0.3c0.7,0.4,1.4,0.9,1.7,1.6&#10;&#9;&#9;&#9;c-0.7-0.4-1.4-0.8-2-1.1c0,0.2,0.1,0.4,0.1,0.5c0,0.3,0.1,0.6,0.1,0.9c0,0.2,0.1,0.4,0.1,0.7c0,0.1-0.1,0.1-0.2,0.1&#10;&#9;&#9;&#9;c-0.3-0.3-0.3-0.7-0.3-1.1c0-0.4-0.1-0.9-0.1-1.3c-0.3-0.1-0.5-0.3-0.8-0.4c-0.5-0.3-1.2-0.5-1.8-0.7c0.1,0.3,0.1,0.6,0.1,0.9&#10;&#9;&#9;&#9;c0,0.9,0.5,1.7,0.3,2.6c0,0.1-0.1,0.1-0.2,0c-0.2-0.6-0.2-1.4-0.4-2c-0.1-0.6,0-1.1-0.2-1.6c-0.5-0.2-0.9-0.4-1.3-0.7&#10;&#9;&#9;&#9;c-0.6-0.5-1.2-1-1.9-1.3c0.2,0.6,0.2,1.2,0.3,1.7c0.1,0.9,0.8,1.8,0.6,2.8c0,0.1-0.1,0.1-0.1,0c-0.6-1.5-0.7-3.1-1.1-4.7&#10;&#9;&#9;&#9;c-0.9-0.3-1.7-0.8-2.6-1.2c0.2,0.6,0.4,1.2,0.6,1.7c0.2,0.7,0.4,1.5,0.2,2.2c0,0.1-0.1,0.1-0.2,0c-0.4-1.3-0.6-2.8-0.9-4.2&#10;&#9;&#9;&#9;c-0.5-0.2-0.9-0.5-1.4-0.7c0.4-0.2,0.7-0.1,1,0c0.2,0.1,0.5,0.2,0.7,0.2C117.8,902.5,118.5,902.3,119.2,901.8z" style="fill: rgb(255, 172, 6);" transform="matrix(1, 0, 0, 1, 5.684341886080802e-14, 1.4210854715202004e-14)"/>
<g transform="matrix(1, 0, 0, 1, 2.842170943040401e-14, 7.105427357601002e-15)">
		<path d="M 735.700012 710.900024 H 750.500012 V 980.000031 H 735.700012 V 710.900024 Z" class="st11" style="fill: rgb(130, 94, 66);"/>
		<path d="M 736.9000244140625 905.4000244140625 L 745.5 917.4000244140625 L 831 856.4000244140625 L 822.4000244140625 844.4000244140625 Z" class="st11" style="fill: rgb(130, 94, 66);"/>
		<path d="M 747.5 843.2000122070312 L 740.2000122070312 855.9000244140625 L 653.2000122070312 811.0999755859375 L 660.5999755859375 798.4000244140625 Z" class="st11" style="fill: rgb(130, 94, 66);"/>
		
			<path d="M 875.599976 656 A 139 138.800003 0 0 1 736.599976 794.800003 A 139 138.800003 0 0 1 597.599976 656 A 139 138.800003 0 0 1 736.599976 517.199997 A 139 138.800003 0 0 1 875.599976 656 Z" transform="matrix(1 -3.819127e-003 3.819127e-003 1 -2.5 2.8179)" class="st13" style="fill: rgb(209, 168, 73);"/>
		
			<path d="M 932 819.400024 A 87 86.900002 0 0 1 845 906.300026 A 87 86.900002 0 0 1 758 819.400024 A 87 86.900002 0 0 1 845 732.500023 A 87 86.900002 0 0 1 932 819.400024 Z" transform="matrix(1 -3.819383e-003 3.819383e-003 1 -3.1235 3.2333)" class="st14" style="fill: rgb(180, 160, 78);"/>
		
			<path d="M 713.800011 784.299988 A 60.099998 60.099998 0 0 1 653.700012 844.399986 A 60.099998 60.099998 0 0 1 593.600014 784.299988 A 60.099998 60.099998 0 0 1 653.700012 724.199989 A 60.099998 60.099998 0 0 1 713.800011 784.299988 Z" transform="matrix(1 -3.818870e-003 3.818870e-003 1 -2.9905 2.5021)" class="st14" style="fill: rgb(180, 160, 78);"/>
	</g><path d="M 215 605.799988 H 230.6 V 980 H 215 V 605.799988 Z" class="st11" style="fill: rgb(130, 94, 66);" transform="matrix(1, 0, 0, 1, 5.684341886080802e-14, 1.4210854715202004e-14)"/><path d="M 219.10000610351562 855.7999877929688 L 230.10000610351562 844.7999877929688 L 144.10000610351562 758.9000244140625 L 133.10000610351562 769.9000244140625 Z" class="st11" style="fill: rgb(130, 94, 66);" transform="matrix(1, 0, 0, 1, 5.684341886080802e-14, 1.4210854715202004e-14)"/><path d="M 349.900009 516 A 106.800003 106.699997 0 0 1 243.100006 622.699997 A 106.800003 106.699997 0 0 1 136.300003 516 A 106.800003 106.699997 0 0 1 243.100006 409.300003 A 106.800003 106.699997 0 0 1 349.900009 516 Z" class="st8" style="fill: rgb(255, 172, 6);" transform="matrix(1, 0, 0, 1, 8.526512829121202e-14, 2.1316282072803006e-14)"/><path d="M 243.100006 627.200012 A 95.800003 95.599998 0 0 1 147.300003 722.800011 A 95.800003 95.599998 0 0 1 51.5 627.200012 A 95.800003 95.599998 0 0 1 147.300003 531.600014 A 95.800003 95.599998 0 0 1 243.100006 627.200012 Z" class="st8" style="fill: rgb(255, 172, 6);" transform="matrix(1, 0, 0, 1, 1.1368683772161603e-13, 2.842170943040401e-14)"/><path d="M 388.999985 647.099976 A 115.199997 115.099998 0 0 1 273.799988 762.199974 A 115.199997 115.099998 0 0 1 158.599991 647.099976 A 115.199997 115.099998 0 0 1 273.799988 531.999977 A 115.199997 115.099998 0 0 1 388.999985 647.099976 Z" class="st8" style="fill: rgb(255, 172, 6);" transform="matrix(1, 0, 0, 1, 1.1368683772161603e-13, 2.842170943040401e-14)"/><path d="M 190.299995 730.799988 A 94.199997 94.099998 0 0 1 96.099998 824.899986 A 94.199997 94.099998 0 0 1 1.900002 730.799988 A 94.199997 94.099998 0 0 1 96.099998 636.699989 A 94.199997 94.099998 0 0 1 190.299995 730.799988 Z" class="st15" style="fill: rgb(249, 155, 28);" transform="matrix(1, 0, 0, 1, 5.684341886080802e-14, 1.4210854715202004e-14)"/><path d="M 1092.699951 765.200012 H 1103.099951 V 959.200012 H 1092.699951 V 765.200012 Z" class="st11" style="fill: rgb(130, 94, 66);" transform="matrix(1, 0, 0, 1, 2.842170943040401e-14, 7.105427357601002e-15)"/><path d="M 1101 858.5 L 1095.9000244140625 867.4000244140625 L 1034.5999755859375 835.7999877929688 L 1039.699951171875 826.9000244140625 Z" class="st11" style="fill: rgb(130, 94, 66);" transform="matrix(1, 0, 0, 1, 2.842170943040401e-14, 7.105427357601002e-15)"/><path d="M 1191.20005 726.5 A 97.900002 97.800003 0 0 1 1093.300049 824.300003 A 97.900002 97.800003 0 0 1 995.400047 726.5 A 97.900002 97.800003 0 0 1 1093.300049 628.699997 A 97.900002 97.800003 0 0 1 1191.20005 726.5 Z" transform="matrix(1, -0.003819127334281802, 0.003819127334281802, 1, -2.766799926757784, 4.180799961090095)" class="st13" style="fill: rgb(209, 168, 73);"/><path d="M 1283.599976 484.100006 H 1292.899976 V 711 H 1283.599976 V 484.100006 Z" class="st11" style="fill: rgb(130, 94, 66);" transform="matrix(1, 0, 0, 1, 5.684341886080802e-14, 1.4210854715202004e-14)"/><path class="st15" d="M1360.1,467c6.1,35.9-18.1,69.9-54,76c-35.9,6.1-69.9-18-76-53.9s18.1-69.9,54-76&#10;&#9;&#9;&#9;&#9;C1319.9,407,1354,431.1,1360.1,467z" style="fill: rgb(249, 155, 28);" transform="matrix(1, 0, 0, 1, 8.526512829121202e-14, 2.1316282072803006e-14)"/><path class="st15" d="M1306.6,545.7c5.5,32.1-16.2,62.6-48.4,68.1c-32.2,5.5-62.7-16.2-68.2-48.3s16.2-62.6,48.4-68.1&#10;&#9;&#9;&#9;&#9;&#9;C1270.6,491.9,1301.1,513.6,1306.6,545.7z" style="fill: rgb(249, 155, 28);" transform="matrix(1, 0, 0, 1, 1.1368683772161603e-13, 2.842170943040401e-14)"/><path class="st15" d="M1397.4,542.8c6.6,38.7-19.5,75.4-58.2,81.9c-38.7,6.6-75.4-19.5-82-58.1c-6.6-38.7,19.5-75.4,58.2-81.9&#10;&#9;&#9;&#9;&#9;&#9;S1390.8,504.1,1397.4,542.8z" style="fill: rgb(249, 155, 28);" transform="matrix(1, 0, 0, 1, 1.1368683772161603e-13, 2.842170943040401e-14)"/><path d="M 1077.300026 817 A 42.400002 42.299999 0 0 1 1034.900024 859.299999 A 42.400002 42.299999 0 0 1 992.500023 817 A 42.400002 42.299999 0 0 1 1034.900024 774.700001 A 42.400002 42.299999 0 0 1 1077.300026 817 Z" transform="matrix(1, -0.0038188702892512083, 0.0038188702892512083, 1, -3.112400054931612, 3.958199977874763)" class="st14" style="fill: rgb(180, 160, 78);"/>
<g transform="matrix(1, 0, 0, 1, 2.842170943040401e-14, 7.105427357601002e-15)">
		<path class="st16" d="M1330.3,228.5c0,12.2-9.9,22.2-22.2,22.2h-243c-12.2,0-22.2-9.9-22.2-22.2l0,0c0-12.2,9.9-22.2,22.2-22.2&#10;&#9;&#9;&#9;h243C1320.3,206.3,1330.3,216.2,1330.3,228.5L1330.3,228.5z" style="fill: rgb(255, 255, 255);"/>
		<path class="st16" d="M1181.7,254.7c0,8.7-7,15.7-15.7,15.7h-146.9c-8.7,0-15.7-7-15.7-15.7l0,0c0-8.7,7-15.7,15.7-15.7H1166&#10;&#9;&#9;&#9;C1174.7,239,1181.7,246,1181.7,254.7L1181.7,254.7z" style="fill: rgb(255, 255, 255);"/>
		<path class="st16" d="M1126.6,103.5c0,18-14.6,32.6-32.7,32.6H736c-18,0-32.7-14.6-32.7-32.6l0,0c0-18,14.6-32.6,32.7-32.6h357.9&#10;&#9;&#9;&#9;C1111.9,70.9,1126.6,85.5,1126.6,103.5L1126.6,103.5z" style="fill: rgb(255, 255, 255);"/>
		<path class="st16" d="M907.7,142.1c0,12.8-10.4,23.1-23.1,23.1H668.3c-12.8,0-23.1-10.3-23.1-23.1l0,0c0-12.8,10.4-23.1,23.1-23.1&#10;&#9;&#9;&#9;h216.3C897.4,119,907.7,129.4,907.7,142.1L907.7,142.1z" style="fill: rgb(255, 255, 255);"/>
		<path class="st16" d="M1138.1,197.4c0,8.7-7,15.7-15.7,15.7H975.5c-8.7,0-15.7-7-15.7-15.7l0,0c0-8.7,7-15.7,15.7-15.7h146.9&#10;&#9;&#9;&#9;C1131,181.7,1138.1,188.8,1138.1,197.4L1138.1,197.4z" style="fill: rgb(255, 255, 255);"/>
		<path class="st16" d="M313.2,70.3c0,8.4-6.8,15.1-15.1,15.1h-166c-8.4,0-15.1-6.8-15.1-15.1l0,0c0-8.4,6.8-15.1,15.1-15.1h166&#10;&#9;&#9;&#9;C306.5,55.2,313.2,61.9,313.2,70.3L313.2,70.3z" style="fill: rgb(255, 255, 255);"/>
		<path class="st16" d="M211.8,88.2c0,5.9-4.8,10.7-10.7,10.7H100.7c-5.9,0-10.7-4.8-10.7-10.7l0,0c0-5.9,4.8-10.7,10.7-10.7H201&#10;&#9;&#9;&#9;C206.9,77.5,211.8,82.3,211.8,88.2L211.8,88.2z" style="fill: rgb(255, 255, 255);"/>
		<path class="st16" d="M181.9,49.1c0,5.9-4.8,10.7-10.7,10.7H70.9c-5.9,0-10.7-4.8-10.7-10.7l0,0c0-5.9,4.8-10.7,10.7-10.7h100.3&#10;&#9;&#9;&#9;C177.1,38.4,181.9,43.2,181.9,49.1L181.9,49.1z" style="fill: rgb(255, 255, 255);"/>
	</g><path class="st16" d="M382.5,254.4c0,11.3-9.2,20.5-20.5,20.5H123.5c-11.3,0-20.5-9.2-20.5-20.5l0,0c0-11.3,9.2-20.5,20.5-20.5H362&#10;&#9;&#9;C373.3,234,382.5,243.1,382.5,254.4L382.5,254.4z" style="fill: rgb(255, 255, 255);" transform="matrix(1, 0, 0, 1, 2.842170943040401e-14, 7.105427357601002e-15)"/><path class="st16" d="M269.8,282.3c0,7.8-6.3,14.1-14.1,14.1H82.1c-7.8,0-14.1-6.3-14.1-14.1l0,0c0-7.8,6.3-14.1,14.1-14.1h173.6&#10;&#9;&#9;C263.5,268.2,269.8,274.5,269.8,282.3L269.8,282.3z" style="fill: rgb(255, 255, 255);" transform="matrix(1, 0, 0, 1, 2.842170943040401e-14, 7.105427357601002e-15)"/><path class="st16" d="M566.7,177.7c0,7.1-5.8,12.9-13,12.9H343.7c-7.2,0-13-5.8-13-12.9l0,0c0-7.1,5.8-12.9,13-12.9h210.1&#10;&#9;&#9;C560.9,164.8,566.7,170.6,566.7,177.7L566.7,177.7z" style="fill: rgb(255, 255, 255);" transform="matrix(1, 0, 0, 1, 2.842170943040401e-14, 7.105427357601002e-15)"/><path class="st16" d="M434.8,156.8c0,5.3-4.3,9.5-9.6,9.5h-155c-5.3,0-9.6-4.3-9.6-9.5l0,0c0-5.3,4.3-9.5,9.6-9.5h155&#10;&#9;&#9;C430.5,147.3,434.8,151.5,434.8,156.8L434.8,156.8z" style="fill: rgb(255, 255, 255);" transform="matrix(1, 0, 0, 1, 2.842170943040401e-14, 7.105427357601002e-15)"/>
</svg>