<?xml version="1.0" encoding="utf-8"?>
<svg id="master-artboard" viewBox="0 0 1400 1400" version="1.1" xmlns="http://www.w3.org/2000/svg" x="0px" y="0px" width="1400px" height="1400px" enable-background="new 0 0 1400 1400" xmlns:xlink="http://www.w3.org/1999/xlink">
<linearGradient id="XMLID_7_" gradientUnits="userSpaceOnUse" x1="700" y1="912.8404" x2="700" y2="-48.7733">
		<stop offset="0" style="stop-color:#E7F6FD"/>
		<stop offset="0.4269" style="stop-color:#8AD2D5"/>
		<stop offset="1" style="stop-color:#00AFAB"/>
	</linearGradient><path d="M 0 0 H 1400 V 1400 H 0 V 0 Z" id="XMLID_308_" fill-rule="evenodd" clip-rule="evenodd" fill="url(#XMLID_7_)" transform="matrix(1, 0, 0, 1, 0, 0)"/><defs>
			<path d="M 0 0 H 1400 V 1400 H 0 V 0 Z" id="XMLID_3_"/>
		</defs><clipPath id="XMLID_8_">
			<use overflow="visible" xlink:href="#XMLID_3_"/>
		</clipPath><linearGradient id="XMLID_9_" gradientUnits="userSpaceOnUse" x1="141.7633" y1="196.8262" x2="584.3152" y2="196.8262">
				<stop offset="0" style="stop-color:#FFFFFF"/>
				<stop offset="1" style="stop-color:#FFFFFF;stop-opacity:0"/>
			</linearGradient><path id="XMLID_307_" fill-rule="evenodd" clip-rule="evenodd" fill="url(#XMLID_9_)" d="M690.7,261.9H198.9&#10;&#9;&#9;&#9;&#9;c10.2-41.1,47.4-71.6,91.6-71.6c2,0,4,0.1,6,0.2c13.3,0.8,26.1-5,34.3-15.5c20.5-26.3,52.6-43.2,88.5-43.2&#10;&#9;&#9;&#9;&#9;c31.7,0,60.3,13.1,80.7,34.2c8.9,9.2,21.7,13.3,34.4,11.5c3.9-0.5,7.9-0.8,11.9-0.8c25.4,0,48.2,11.1,63.8,28.7&#10;&#9;&#9;&#9;&#9;c7.7,8.7,18.8,13.6,30.5,13.6c0.1,0,0.1,0,0.2,0C666,219,687,237.6,690.7,261.9z" transform="matrix(1, 0, 0, 1, 0, 0)"/><linearGradient id="XMLID_10_" gradientUnits="userSpaceOnUse" x1="367.792" y1="261.8962" x2="737.1941" y2="261.8962">
				<stop offset="0" style="stop-color:#FFFFFF"/>
				<stop offset="1" style="stop-color:#FFFFFF;stop-opacity:0"/>
			</linearGradient><path id="XMLID_267_" fill-rule="evenodd" clip-rule="evenodd" fill="url(#XMLID_10_)" d="M742.2,299.5H458&#10;&#9;&#9;&#9;&#9;c5.9-23.8,27.4-41.4,53-41.4c1.2,0,2.3,0,3.4,0.1c7.7,0.5,15.1-2.9,19.8-8.9c11.9-15.2,30.4-25,51.2-25&#10;&#9;&#9;&#9;&#9;c18.3,0,34.8,7.6,46.6,19.8c5.1,5.3,12.6,7.7,19.9,6.7c2.3-0.3,4.6-0.5,6.9-0.5c14.7,0,27.9,6.4,36.9,16.6&#10;&#9;&#9;&#9;&#9;c4.5,5,10.9,7.9,17.6,7.9c0,0,0.1,0,0.1,0C728,274.7,740.1,285.5,742.2,299.5z" transform="matrix(1, 0, 0, 1, 0, 0)"/><linearGradient id="XMLID_11_" gradientUnits="userSpaceOnUse" x1="808.6545" y1="27.7007" x2="1593.1116" y2="27.7007">
				<stop offset="0" style="stop-color:#FFFFFF"/>
				<stop offset="1" style="stop-color:#FFFFFF;stop-opacity:0"/>
			</linearGradient><path id="XMLID_301_" fill-rule="evenodd" clip-rule="evenodd" fill="url(#XMLID_11_)" d="M1603.8,107.6h-603.6&#10;&#9;&#9;&#9;&#9;c12.5-50.5,58.1-87.9,112.5-87.9c2.5,0,4.9,0.1,7.3,0.2c16.3,1,32-6.1,42.1-19c25.2-32.3,64.5-53,108.6-53&#10;&#9;&#9;&#9;&#9;c38.8,0,73.9,16.1,99,42c10.9,11.3,26.7,16.3,42.2,14.1c4.8-0.7,9.7-1,14.6-1c31.2,0,59.2,13.6,78.3,35.3&#10;&#9;&#9;&#9;&#9;c9.5,10.7,23.1,16.7,37.4,16.7c0.1,0,0.2,0,0.2,0C1573.6,54.9,1599.3,77.7,1603.8,107.6z" transform="matrix(1, 0, 0, 1, 0, 0)"/><linearGradient id="XMLID_12_" gradientUnits="userSpaceOnUse" x1="773.4012" y1="673.0576" x2="1145.1613" y2="673.0576">
				<stop offset="0" style="stop-color:#FFFFFF"/>
				<stop offset="1" style="stop-color:#FFFFFF;stop-opacity:0"/>
			</linearGradient><path id="XMLID_300_" fill-rule="evenodd" clip-rule="evenodd" fill="url(#XMLID_12_)" d="M1150.2,710.9H864.2&#10;&#9;&#9;&#9;&#9;c5.9-23.9,27.5-41.7,53.3-41.7c1.2,0,2.3,0,3.5,0.1c7.7,0.5,15.2-2.9,19.9-9c12-15.3,30.6-25.1,51.5-25.1&#10;&#9;&#9;&#9;&#9;c18.4,0,35,7.6,46.9,19.9c5.2,5.3,12.6,7.7,20,6.7c2.3-0.3,4.6-0.5,6.9-0.5c14.8,0,28,6.5,37.1,16.7c4.5,5.1,10.9,7.9,17.7,7.9&#10;&#9;&#9;&#9;&#9;c0,0,0.1,0,0.1,0C1135.9,685.9,1148.1,696.8,1150.2,710.9z" transform="matrix(1, 0, 0, 1, 0, 0)"/><linearGradient id="XMLID_13_" gradientUnits="userSpaceOnUse" x1="904.6762" y1="654.6656" x2="1153.8029" y2="654.6656">
				<stop offset="0" style="stop-color:#FFFFFF"/>
				<stop offset="1" style="stop-color:#FFFFFF;stop-opacity:0"/>
			</linearGradient><path id="XMLID_302_" fill-rule="evenodd" clip-rule="evenodd" fill="url(#XMLID_13_)" d="M1157.2,672H965.5&#10;&#9;&#9;&#9;&#9;c4-16,18.5-27.9,35.7-27.9c0.8,0,1.6,0,2.3,0.1c5.2,0.3,59.9,47.8,63.1,43.7c8-10.2-29.2-66.6-15.2-66.6&#10;&#9;&#9;&#9;&#9;c12.3,0,23.5,5.1,31.4,13.3c3.5,3.6,8.5,5.2,13.4,4.5c1.5-0.2,3.1-0.3,4.6-0.3c9.9,0,18.8,4.3,24.9,11.2c3,3.4,7.3,5.3,11.9,5.3&#10;&#9;&#9;&#9;&#9;c0,0,0.1,0,0.1,0C1147.6,655.2,1155.8,662.5,1157.2,672z" transform="matrix(1, 0, 0, 1, 0, 0)"/><linearGradient id="XMLID_14_" gradientUnits="userSpaceOnUse" x1="-27.1888" y1="530.5728" x2="221.9378" y2="530.5728">
				<stop offset="0" style="stop-color:#FFFFFF"/>
				<stop offset="1" style="stop-color:#FFFFFF;stop-opacity:0"/>
			</linearGradient><path id="XMLID_303_" fill-rule="evenodd" clip-rule="evenodd" fill="url(#XMLID_14_)" d="M225.3,555.9H33.7&#10;&#9;&#9;&#9;&#9;c4-16,18.5-27.9,35.7-27.9c0.8,0,1.6,0,2.3,0.1c5.2,0.3,10.2-1.9,13.4-6c8-10.2,20.5-16.8,34.5-16.8c12.3,0,23.5,5.1,31.4,13.3&#10;&#9;&#9;&#9;&#9;c3.5,3.6,8.5,5.2,13.4,4.5c1.5-0.2,3.1-0.3,4.6-0.3c9.9,0,18.8,4.3,24.9,11.2c3,3.4,7.3,5.3,11.9,5.3c0,0,0.1,0,0.1,0&#10;&#9;&#9;&#9;&#9;C215.7,539.2,223.9,546.5,225.3,555.9z" transform="matrix(1, 0, 0, 1, 0, 0)"/><linearGradient id="XMLID_15_" gradientUnits="userSpaceOnUse" x1="235.205" y1="1083" x2="235.205" y2="660.93">
				<stop offset="5.376344e-003" style="stop-color:#6AC8C4"/>
				<stop offset="1" style="stop-color:#00738C"/>
			</linearGradient><path id="XMLID_273_" fill-rule="evenodd" clip-rule="evenodd" fill="url(#XMLID_15_)" d="M511.9,693.6L362,843.5h-66.4&#10;&#9;&#9;&#9;&#9;L155.2,984v88.3c-110.5,5-196.7,10.7-196.7,10.7v-99L99,843.5h66.4l182.6-182.6h36.9l64.4,64.3l15.5,15.5l47.1-47.1H511.9z" transform="matrix(1, 0, 0, 1, 0, 0)"/><linearGradient id="XMLID_16_" gradientUnits="userSpaceOnUse" x1="540.09" y1="996.8053" x2="540.09" y2="664.1217">
				<stop offset="5.376344e-003" style="stop-color:#6AC8C4"/>
				<stop offset="1" style="stop-color:#00738C"/>
			</linearGradient><path id="XMLID_274_" fill-rule="evenodd" clip-rule="evenodd" fill="url(#XMLID_16_)" d="M925,1009.1c0,0-80.8,35.8-159.3,60.3&#10;&#9;&#9;&#9;&#9;c0,0,0,0,0,0c-62,19.4-122.6,31.7-140.8,13.5c-9.3-9.4-49-14.4-104.8-16.7c-98-4-245.7,0.6-365,6V984l140.5-140.5H362&#10;&#9;&#9;&#9;&#9;l149.9-149.9h53.3l138,137.9h44.3L925,1009.1z" transform="matrix(1, 0, 0, 1, 0, 0)"/><linearGradient id="XMLID_17_" gradientUnits="userSpaceOnUse" x1="505.8612" y1="558.805" x2="505.8612" y2="1104.9337">
				<stop offset="5.376344e-003" style="stop-color:#6AC8C4"/>
				<stop offset="1" style="stop-color:#00738C"/>
			</linearGradient><path id="XMLID_268_" fill-rule="evenodd" clip-rule="evenodd" fill="url(#XMLID_17_)" d="M505.9,846.4&#10;&#9;&#9;&#9;&#9;c-26.5,62.8-39.6,130.7,0,139.1C545.4,977.1,532.4,909.2,505.9,846.4z" transform="matrix(1, 0, 0, 1, 0, 0)"/><linearGradient id="XMLID_18_" gradientUnits="userSpaceOnUse" x1="469.785" y1="558.805" x2="469.785" y2="1104.9337">
				<stop offset="5.376344e-003" style="stop-color:#6AC8C4"/>
				<stop offset="1" style="stop-color:#00738C"/>
			</linearGradient><path id="XMLID_269_" fill-rule="evenodd" clip-rule="evenodd" fill="url(#XMLID_18_)" d="M469.8,872&#10;&#9;&#9;&#9;&#9;c-26.5,62.8-39.6,130.7,0,139.1C509.3,1002.7,496.3,934.7,469.8,872z" transform="matrix(1, 0, 0, 1, 0, 0)"/><linearGradient id="XMLID_19_" gradientUnits="userSpaceOnUse" x1="716.3739" y1="558.805" x2="716.3739" y2="1104.9337">
				<stop offset="5.376344e-003" style="stop-color:#6AC8C4"/>
				<stop offset="1" style="stop-color:#00738C"/>
			</linearGradient><path id="XMLID_270_" fill-rule="evenodd" clip-rule="evenodd" fill="url(#XMLID_19_)" d="M716.4,892.9&#10;&#9;&#9;&#9;&#9;c-26.5,62.8-39.6,130.7,0,139.1C755.9,1023.6,742.9,955.7,716.4,892.9z" transform="matrix(1, 0, 0, 1, 0, 0)"/><linearGradient id="XMLID_20_" gradientUnits="userSpaceOnUse" x1="155.18" y1="558.805" x2="155.18" y2="1104.9337">
				<stop offset="5.376344e-003" style="stop-color:#6AC8C4"/>
				<stop offset="1" style="stop-color:#00738C"/>
			</linearGradient><path id="XMLID_271_" fill-rule="evenodd" clip-rule="evenodd" fill="url(#XMLID_20_)" d="M155.2,892.1&#10;&#9;&#9;&#9;&#9;c-18.8,44.6-28.1,92.8,0,98.7C183.3,984.9,174,936.7,155.2,892.1z" transform="matrix(1, 0, 0, 1, 0, 0)"/><linearGradient id="XMLID_21_" gradientUnits="userSpaceOnUse" x1="114.7849" y1="558.805" x2="114.7849" y2="1104.9337">
				<stop offset="5.376344e-003" style="stop-color:#6AC8C4"/>
				<stop offset="1" style="stop-color:#00738C"/>
			</linearGradient><path id="XMLID_272_" fill-rule="evenodd" clip-rule="evenodd" fill="url(#XMLID_21_)" d="M114.8,921.6&#10;&#9;&#9;&#9;&#9;c-15.6,36.9-23.3,76.8,0,81.8C138,998.4,130.4,958.5,114.8,921.6z" transform="matrix(1, 0, 0, 1, 0, 0)"/><linearGradient id="XMLID_22_" gradientUnits="userSpaceOnUse" x1="315.0436" y1="558.805" x2="315.0436" y2="1104.9337">
				<stop offset="5.376344e-003" style="stop-color:#6AC8C4"/>
				<stop offset="1" style="stop-color:#00738C"/>
			</linearGradient><path id="XMLID_275_" fill-rule="evenodd" clip-rule="evenodd" fill="url(#XMLID_22_)" d="M315,900.6&#10;&#9;&#9;&#9;&#9;c-15.6,36.9-23.3,76.8,0,81.8C338.3,977.5,330.6,937.5,315,900.6z" transform="matrix(1, 0, 0, 1, 0, 0)"/><linearGradient id="XMLID_23_" gradientUnits="userSpaceOnUse" x1="1027.3025" y1="648.6575" x2="1027.3025" y2="1429.5021">
				<stop offset="0" style="stop-color:#E7F6FD"/>
				<stop offset="0.4269" style="stop-color:#8AD2D5"/>
				<stop offset="1" style="stop-color:#00AFAB"/>
			</linearGradient><path id="XMLID_194_" fill-rule="evenodd" clip-rule="evenodd" fill="url(#XMLID_23_)" d="M1427,946.7&#10;&#9;&#9;&#9;&#9;c-420.4-129.7-757.9,167.8-799.4,201C860,1321,1427,1375,1427,1375V946.7z" transform="matrix(1, 0, 0, 1, 0, 0)"/><linearGradient id="XMLID_24_" gradientUnits="userSpaceOnUse" x1="700" y1="813.0045" x2="700" y2="1581.0637">
				<stop offset="0" style="stop-color:#00B6AF"/>
				<stop offset="1" style="stop-color:#00557D"/>
			</linearGradient><path id="XMLID_245_" fill-rule="evenodd" clip-rule="evenodd" fill="url(#XMLID_24_)" d="M1400,1227v173H0v-389&#10;&#9;&#9;&#9;&#9;c65.6-22.4,131.9-38.2,198.2-48.5c24.3-3.8,48.7-6.9,73-9.3C849,896.5,1400,1227,1400,1227z" transform="matrix(1, 0, 0, 1, 0, 0)"/><linearGradient id="XMLID_25_" gradientUnits="userSpaceOnUse" x1="469.785" y1="710.4489" x2="469.785" y2="1451.7413">
				<stop offset="0" style="stop-color:#00B59E"/>
				<stop offset="1" style="stop-color:#00557D"/>
			</linearGradient><path id="XMLID_243_" fill-rule="evenodd" clip-rule="evenodd" fill="url(#XMLID_25_)" d="M939.6,1400H0v-389&#10;&#9;&#9;&#9;&#9;c65.6-22.4,131.9-38.2,198.2-48.5C518.5,1025.6,799.6,1263.1,939.6,1400z" transform="matrix(1, 0, 0, 1, 0, 0)"/><linearGradient id="XMLID_26_" gradientUnits="userSpaceOnUse" x1="153" y1="854.2294" x2="383.0087" y2="854.2294">
					<stop offset="0" style="stop-color:#EAF7FE"/>
					<stop offset="1" style="stop-color:#6CC8C2"/>
				</linearGradient><path d="M 212.3000030517578 432.5 L 269.29998779296875 432.5 L 285.6000061035156 1275.9000244140625 L 198.3000030517578 1275.9000244140625 Z" id="XMLID_68_" fill-rule="evenodd" clip-rule="evenodd" fill="url(#XMLID_26_)" transform="matrix(1, 0, 0, 1, 0, 0)"/><linearGradient id="XMLID_27_" gradientUnits="userSpaceOnUse" x1="212.1357" y1="438.0082" x2="269.5538" y2="438.0082">
					<stop offset="5.376344e-003" style="stop-color:#6AC8C4"/>
					<stop offset="1" style="stop-color:#00738C"/>
				</linearGradient><path d="M 212.3000030517578 432.5 L 269.29998779296875 432.5 L 269.6000061035156 443.5 L 212.10000610351562 443.5 Z" id="XMLID_67_" fill-rule="evenodd" clip-rule="evenodd" fill="url(#XMLID_27_)" transform="matrix(1, 0, 0, 1, 0, 0)"/><linearGradient id="XMLID_28_" gradientUnits="userSpaceOnUse" x1="167" y1="854.2294" x2="291.0309" y2="854.2294">
					<stop offset="0" style="stop-color:#EAF7FE"/>
					<stop offset="1" style="stop-color:#6CC8C2"/>
				</linearGradient><path d="M 240.8000030517578 432.5 L 269.29998779296875 432.5 L 285.6000061035156 1275.9000244140625 L 226.8000030517578 1275.9000244140625 Z" id="XMLID_66_" fill-rule="evenodd" clip-rule="evenodd" fill="url(#XMLID_28_)" transform="matrix(1, 0, 0, 1, 0, 0)"/><linearGradient id="XMLID_29_" gradientUnits="userSpaceOnUse" x1="240.6486" y1="438.0082" x2="269.5538" y2="438.0082">
					<stop offset="5.376344e-003" style="stop-color:#6AC8C4"/>
					<stop offset="1" style="stop-color:#00738C"/>
				</linearGradient><path d="M 240.8000030517578 432.5 L 269.29998779296875 432.5 L 269.6000061035156 443.5 L 240.60000610351562 443.5 Z" id="XMLID_65_" fill-rule="evenodd" clip-rule="evenodd" fill="url(#XMLID_29_)" transform="matrix(1, 0, 0, 1, 0, 0)"/><linearGradient id="XMLID_30_" gradientUnits="userSpaceOnUse" x1="198.9656" y1="1230.6466" x2="284.8036" y2="1230.6466">
					<stop offset="0" style="stop-color:#E7F6FD"/>
					<stop offset="0.4269" style="stop-color:#8AD2D5"/>
					<stop offset="1" style="stop-color:#00AFAB"/>
				</linearGradient><path d="M 284.6000061035156 1225 L 284.79998779296875 1236.300048828125 L 199 1236.300048828125 L 199.1999969482422 1225 Z" id="XMLID_64_" fill-rule="evenodd" clip-rule="evenodd" fill="url(#XMLID_30_)" transform="matrix(1, 0, 0, 1, 0, 0)"/><linearGradient id="XMLID_31_" gradientUnits="userSpaceOnUse" x1="338.6882" y1="381.3155" x2="703.9139" y2="381.3155">
					<stop offset="0" style="stop-color:#EAF7FE"/>
					<stop offset="1" style="stop-color:#6CC8C2"/>
				</linearGradient><path d="M 338.70001220703125 385.3999938964844 L 476.6000061035156 355 L 703.9000244140625 371.70001220703125 L 703.2000122070312 383.1000061035156 L 492.29998779296875 397.29998779296875 L 338.70001220703125 407.6000061035156 Z" id="XMLID_63_" fill-rule="evenodd" clip-rule="evenodd" fill="url(#XMLID_31_)" transform="matrix(1, 0, 0, 1, 0, 0)"/><linearGradient id="XMLID_32_" gradientUnits="userSpaceOnUse" x1="338.6922" y1="389.668" x2="703.9139" y2="389.668">
					<stop offset="0" style="stop-color:#E7F6FD"/>
					<stop offset="0.4269" style="stop-color:#8AD2D5"/>
					<stop offset="1" style="stop-color:#00AFAB"/>
				</linearGradient><path d="M 703.9000244140625 371.70001220703125 L 703.2000122070312 383.1000061035156 L 492.29998779296875 397.29998779296875 L 338.70001220703125 407.6000061035156 L 338.70001220703125 396.5 Z" id="XMLID_62_" fill-rule="evenodd" clip-rule="evenodd" fill="url(#XMLID_32_)" transform="matrix(1, 0, 0, 1, 0, 0)"/><linearGradient id="XMLID_33_" gradientUnits="userSpaceOnUse" x1="303.6002" y1="396.4807" x2="338.6879" y2="396.4807">
					<stop offset="0" style="stop-color:#EAF7FE"/>
					<stop offset="1" style="stop-color:#6CC8C2"/>
				</linearGradient><path d="M 303.600006 385.399994 H 338.700005 V 407.499994 H 303.600006 V 385.399994 Z" id="XMLID_61_" fill-rule="evenodd" clip-rule="evenodd" fill="url(#XMLID_33_)" transform="matrix(1, 0, 0, 1, 0, 0)"/><linearGradient id="XMLID_34_" gradientUnits="userSpaceOnUse" x1="165.8678" y1="354.1209" x2="387.8678" y2="514.1209">
					<stop offset="5.376344e-003" style="stop-color:#6AC8C4"/>
					<stop offset="1" style="stop-color:#00738C"/>
				</linearGradient><path id="XMLID_60_" fill-rule="evenodd" clip-rule="evenodd" fill="url(#XMLID_34_)" d="M181.2,369.3h109.2&#10;&#9;&#9;&#9;&#9;&#9;c0.2,0,0.4,0.2,0.4,0.4v62.9H181.2c-17.4,0-31.6-14.2-31.6-31.6v0C149.6,383.5,163.8,369.3,181.2,369.3" transform="matrix(1, 0, 0, 1, 0, 0)"/><linearGradient id="XMLID_35_" gradientUnits="userSpaceOnUse" x1="149.5755" y1="416.8129" x2="290.3631" y2="416.8129">
					<stop offset="5.376344e-003" style="stop-color:#6AC8C4"/>
					<stop offset="1" style="stop-color:#00738C"/>
				</linearGradient><path id="XMLID_59_" fill-rule="evenodd" clip-rule="evenodd" fill="url(#XMLID_35_)" d="M290.4,401.1v31.4H181.2&#10;&#9;&#9;&#9;&#9;&#9;c-17.3,0-31.5-14.1-31.6-31.4H290.4z" transform="matrix(1, 0, 0, 1, 0, 0)"/><linearGradient id="XMLID_36_" gradientUnits="userSpaceOnUse" x1="117.8354" y1="613.0345" x2="284.1269" y2="613.0345">
					<stop offset="0" style="stop-color:#EAF7FE"/>
					<stop offset="1" style="stop-color:#6CC8C2"/>
				</linearGradient><path d="M 284.1000061035156 453 L 247.39999389648438 589.4000244140625 L 127.5999984741211 783.2999877929688 L 117.80000305175781 777.4000244140625 L 202.6999969482422 583.7999877929688 L 264.3999938964844 442.79998779296875 Z" id="XMLID_58_" fill-rule="evenodd" clip-rule="evenodd" fill="url(#XMLID_36_)" transform="matrix(1, 0, 0, 1, 0, 0)"/><linearGradient id="XMLID_37_" gradientUnits="userSpaceOnUse" x1="117.8354" y1="613.0345" x2="274.2767" y2="613.0345">
					<stop offset="0" style="stop-color:#E7F6FD"/>
					<stop offset="0.4269" style="stop-color:#8AD2D5"/>
					<stop offset="1" style="stop-color:#00AFAB"/>
				</linearGradient><path d="M 127.5999984741211 783.2999877929688 L 117.80000305175781 777.4000244140625 L 202.6999969482422 583.7999877929688 L 264.3999938964844 442.79998779296875 L 274.29998779296875 447.8999938964844 Z" id="XMLID_57_" fill-rule="evenodd" clip-rule="evenodd" fill="url(#XMLID_37_)" transform="matrix(1, 0, 0, 1, 0, 0)"/><linearGradient id="XMLID_38_" gradientUnits="userSpaceOnUse" x1="264.4856" y1="432.3498" x2="300.331" y2="432.3498">
					<stop offset="0" style="stop-color:#EAF7FE"/>
					<stop offset="1" style="stop-color:#6CC8C2"/>
				</linearGradient><path d="M 284.1000061035156 453 L 300.29998779296875 421.8999938964844 L 280.70001220703125 411.70001220703125 L 264.5 442.79998779296875 Z" id="XMLID_56_" fill-rule="evenodd" clip-rule="evenodd" fill="url(#XMLID_38_)" transform="matrix(1, 0, 0, 1, 0, 0)"/><linearGradient id="XMLID_39_" gradientUnits="userSpaceOnUse" x1="184.5543" y1="1256.1337" x2="299.0927" y2="1256.1337">
					<stop offset="5.376344e-003" style="stop-color:#6AC8C4"/>
					<stop offset="1" style="stop-color:#00738C"/>
				</linearGradient><path d="M 184.600006 1236.300049 H 299.100006 V 1275.900047 H 184.600006 V 1236.300049 Z" id="XMLID_55_" fill-rule="evenodd" clip-rule="evenodd" fill="url(#XMLID_39_)" transform="matrix(1, 0, 0, 1, 0, 0)"/><linearGradient id="XMLID_40_" gradientUnits="userSpaceOnUse" x1="39.5521" y1="215.6293" x2="265.0652" y2="215.6293">
					<stop offset="0" style="stop-color:#EAF7FE"/>
					<stop offset="1" style="stop-color:#6CC8C2"/>
				</linearGradient><path d="M 265.1000061035156 355.70001220703125 L 202.8000030517578 228.89999389648438 L 48 61.70000076293945 L 39.599998474121094 69.30000305175781 L 160 243.10000610351562 L 247.6999969482422 369.6000061035156 Z" id="XMLID_54_" fill-rule="evenodd" clip-rule="evenodd" fill="url(#XMLID_40_)" transform="matrix(1, 0, 0, 1, 0, 0)"/><linearGradient id="XMLID_41_" gradientUnits="userSpaceOnUse" x1="39.5521" y1="215.6293" x2="256.3826" y2="215.6293">
					<stop offset="0" style="stop-color:#E7F6FD"/>
					<stop offset="0.4269" style="stop-color:#8AD2D5"/>
					<stop offset="1" style="stop-color:#00AFAB"/>
				</linearGradient><path d="M 48 61.70000076293945 L 39.599998474121094 69.30000305175781 L 160 243.10000610351562 L 247.6999969482422 369.6000061035156 L 256.3999938964844 362.70001220703125 Z" id="XMLID_53_" fill-rule="evenodd" clip-rule="evenodd" fill="url(#XMLID_41_)" transform="matrix(1, 0, 0, 1, 0, 0)"/><linearGradient id="XMLID_42_" gradientUnits="userSpaceOnUse" x1="247.7538" y1="376.3539" x2="286.9455" y2="376.3539">
					<stop offset="0" style="stop-color:#EAF7FE"/>
					<stop offset="1" style="stop-color:#6CC8C2"/>
				</linearGradient><path d="M 265.1000061035156 355.70001220703125 L 286.8999938964844 383.20001220703125 L 269.6000061035156 397 L 247.8000030517578 369.5 Z" id="XMLID_52_" fill-rule="evenodd" clip-rule="evenodd" fill="url(#XMLID_42_)" transform="matrix(1, 0, 0, 1, 0, 0)"/><linearGradient id="XMLID_43_" gradientUnits="userSpaceOnUse" x1="253.9249" y1="400.8977" x2="326.8012" y2="400.8977">
					<stop offset="0" style="stop-color:#EAF7FE"/>
					<stop offset="1" style="stop-color:#6CC8C2"/>
				</linearGradient><path id="XMLID_51_" fill-rule="evenodd" clip-rule="evenodd" fill="url(#XMLID_43_)" d="M290.4,364.5&#10;&#9;&#9;&#9;&#9;&#9;c20.1,0,36.4,16.3,36.4,36.4s-16.3,36.4-36.4,36.4s-36.4-16.3-36.4-36.4S270.2,364.5,290.4,364.5" transform="matrix(1, 0, 0, 1, 0, 0)"/><linearGradient id="XMLID_44_" gradientUnits="userSpaceOnUse" x1="253.9273" y1="419.2173" x2="326.7988" y2="419.2173">
					<stop offset="0" style="stop-color:#EAF7FE"/>
					<stop offset="1" style="stop-color:#6CC8C2"/>
				</linearGradient><path id="XMLID_50_" fill-rule="evenodd" clip-rule="evenodd" fill="url(#XMLID_44_)" d="M326.8,401.1&#10;&#9;&#9;&#9;&#9;&#9;c-0.1,20-16.4,36.2-36.4,36.2c-20.1,0-36.3-16.2-36.4-36.2H326.8z" transform="matrix(1, 0, 0, 1, 0, 0)"/><linearGradient id="XMLID_45_" gradientUnits="userSpaceOnUse" x1="261.9387" y1="400.8977" x2="318.7875" y2="400.8977">
					<stop offset="5.376344e-003" style="stop-color:#6AC8C4"/>
					<stop offset="1" style="stop-color:#00738C"/>
				</linearGradient><path id="XMLID_49_" fill-rule="evenodd" clip-rule="evenodd" fill="url(#XMLID_45_)" d="M290.4,372.5&#10;&#9;&#9;&#9;&#9;&#9;c15.7,0,28.4,12.7,28.4,28.4s-12.7,28.4-28.4,28.4c-15.7,0-28.4-12.7-28.4-28.4S274.7,372.5,290.4,372.5" transform="matrix(1, 0, 0, 1, 0, 0)"/><linearGradient id="XMLID_46_" gradientUnits="userSpaceOnUse" x1="261.941" y1="415.2104" x2="318.785" y2="415.2104">
					<stop offset="5.376344e-003" style="stop-color:#6AC8C4"/>
					<stop offset="1" style="stop-color:#00738C"/>
				</linearGradient><path id="XMLID_48_" fill-rule="evenodd" clip-rule="evenodd" fill="url(#XMLID_46_)" d="M318.8,401.1&#10;&#9;&#9;&#9;&#9;&#9;c-0.1,15.6-12.8,28.2-28.4,28.2c-15.6,0-28.3-12.6-28.4-28.2H318.8z" transform="matrix(1, 0, 0, 1, 0, 0)"/><path d="M 1197.5999755859375 748.9000244140625 L 1211.9000244140625 748.9000244140625 L 1216 960.7999877929688 L 1194.0999755859375 960.7999877929688 Z" id="XMLID_262_" fill-rule="evenodd" clip-rule="evenodd" fill="#7ACDD0" transform="matrix(1, 0, 0, 1, 0, 0)"/><path d="M 1197.5999755859375 748.9000244140625 L 1211.9000244140625 748.9000244140625 L 1212 751.5999755859375 L 1197.5 751.5999755859375 Z" id="XMLID_261_" fill-rule="evenodd" clip-rule="evenodd" fill="#7ACDD0" transform="matrix(1, 0, 0, 1, 0, 0)"/><path d="M 1204.699951171875 748.9000244140625 L 1211.9000244140625 748.9000244140625 L 1216 960.7999877929688 L 1201.199951171875 960.7999877929688 Z" id="XMLID_260_" fill-rule="evenodd" clip-rule="evenodd" fill="#7ACDD0" transform="matrix(1, 0, 0, 1, 0, 0)"/><path d="M 1204.699951171875 748.9000244140625 L 1211.9000244140625 748.9000244140625 L 1212 751.5999755859375 L 1204.699951171875 751.5999755859375 Z" id="XMLID_259_" fill-rule="evenodd" clip-rule="evenodd" fill="#7ACDD0" transform="matrix(1, 0, 0, 1, 0, 0)"/><path d="M 1215.699951171875 948 L 1215.800048828125 950.7999877929688 L 1194.199951171875 950.7999877929688 L 1194.300048828125 948 Z" id="XMLID_258_" fill-rule="evenodd" clip-rule="evenodd" fill="#7ACDD0" transform="matrix(1, 0, 0, 1, 0, 0)"/><path id="XMLID_257_" fill-rule="evenodd" clip-rule="evenodd" fill="#7ACDD0" d="M1189.8,733h27.4c0.1,0,0.1,0,0.1,0.1v15.8&#10;&#9;&#9;&#9;&#9;&#9;h-27.5c-4.4,0-7.9-3.6-7.9-7.9v0C1181.8,736.5,1185.4,733,1189.8,733" transform="matrix(1, 0, 0, 1, 0, 0)"/><path id="XMLID_256_" fill-rule="evenodd" clip-rule="evenodd" fill="#7ACDD0" d="M1217.2,741v7.9h-27.4c-4.4,0-7.9-3.5-7.9-7.9&#10;&#9;&#9;&#9;&#9;&#9;H1217.2z" transform="matrix(1, 0, 0, 1, 0, 0)"/><path d="M 1190.599976 950.799988 H 1219.399975 V 960.699987 H 1190.599976 V 950.799988 Z" id="XMLID_255_" fill-rule="evenodd" clip-rule="evenodd" fill="#7ACDD0" transform="matrix(1, 0, 0, 1, 0, 0)"/><path d="M 1240.800048828125 640 L 1238 639.5999755859375 L 1223.5999755859375 690.7999877929688 L 1213.0999755859375 728 L 1215.800048828125 728.5999755859375 Z" id="XMLID_254_" fill-rule="evenodd" clip-rule="evenodd" fill="#7ACDD0" transform="matrix(1, 0, 0, 1, 0, 0)"/><path d="M 1224.5999755859375 748.0999755859375 L 1252.5999755859375 770 L 1285.699951171875 816.7000122070312 L 1283.4000244140625 818.4000244140625 L 1246.9000244140625 779.7999877929688 L 1220.300048828125 751.7000122070312 Z" id="XMLID_253_" fill-rule="evenodd" clip-rule="evenodd" fill="#7ACDD0" transform="matrix(1, 0, 0, 1, 0, 0)"/><path d="M 1285.699951171875 816.7000122070312 L 1283.4000244140625 818.4000244140625 L 1246.9000244140625 779.7999877929688 L 1220.300048828125 751.7000122070312 L 1222.5 749.9000244140625 Z" id="XMLID_252_" fill-rule="evenodd" clip-rule="evenodd" fill="#7ACDD0" transform="matrix(1, 0, 0, 1, 0, 0)"/><path d="M 1215.199951 743.700012 H 1223.999951 V 749.300012 H 1215.199951 V 743.700012 Z" id="XMLID_251_" transform="matrix(0.6366999745368958, 0.7710999846458435, -0.7710999846458435, 0.6366999745368958, 1018.7490844726562, -669.28369140625)" fill-rule="evenodd" clip-rule="evenodd" fill="#7ACDD0"/><path d="M 1202.800048828125 748.4000244140625 L 1170.5 763.0999755859375 L 1113.699951171875 770.9000244140625 L 1113.300048828125 768.0999755859375 L 1164.4000244140625 753.5 L 1201.5999755859375 742.9000244140625 Z" id="XMLID_250_" fill-rule="evenodd" clip-rule="evenodd" fill="#7ACDD0" transform="matrix(1, 0, 0, 1, 0, 0)"/><path d="M 1113.699951171875 770.9000244140625 L 1113.300048828125 768.0999755859375 L 1164.4000244140625 753.5 L 1201.5999755859375 742.9000244140625 L 1202.199951171875 745.7000122070312 Z" id="XMLID_249_" fill-rule="evenodd" clip-rule="evenodd" fill="#7ACDD0" transform="matrix(1, 0, 0, 1, 0, 0)"/><path d="M 1202.099976 742 H 1210.899976 V 747.6 H 1202.099976 V 742 Z" id="XMLID_248_" transform="matrix(-0.9780000448226929, 0.2085999995470047, -0.2085999995470047, -0.9780000448226929, 2541.83984375, 1221.392333984375)" fill-rule="evenodd" clip-rule="evenodd" fill="#7ACDD0"/><path d="M 1218.5999755859375 729.0999755859375 L 1233.199951171875 696.7999877929688 L 1240.800048828125 640 L 1238 639.5999755859375 L 1223.5999755859375 690.7999877929688 L 1213.0999755859375 728 Z" id="XMLID_247_" fill-rule="evenodd" clip-rule="evenodd" fill="#7ACDD0" transform="matrix(1, 0, 0, 1, 0, 0)"/><path d="M 1210.5 730.099976 H 1219.3 V 735.699975 H 1210.5 V 730.099976 Z" id="XMLID_246_" transform="matrix(0.20579999685287476, -0.978600025177002, 0.978600025177002, 0.20579999685287476, 247.74899291992188, 1771.0006103515625)" fill-rule="evenodd" clip-rule="evenodd" fill="#7ACDD0"/><path id="XMLID_244_" fill-rule="evenodd" clip-rule="evenodd" fill="#7ACDD0" d="M1220.9,735.4c3.2,3.9,2.7,9.7-1.2,12.9&#10;&#9;&#9;&#9;&#9;&#9;&#9;&#9;c-3.9,3.2-9.7,2.7-12.9-1.2c-3.2-3.9-2.7-9.7,1.2-12.9C1211.9,731,1217.7,731.5,1220.9,735.4" transform="matrix(1, 0, 0, 1, 0, 0)"/><path id="XMLID_242_" fill-rule="evenodd" clip-rule="evenodd" fill="#7ACDD0" d="M1219.7,748.3c-3.9,3.2-9.6,2.6-12.8-1.3&#10;&#9;&#9;&#9;&#9;&#9;&#9;&#9;c-3.2-3.9-2.7-9.6,1.2-12.9L1219.7,748.3z" transform="matrix(1, 0, 0, 1, 0, 0)"/><path id="XMLID_241_" fill-rule="evenodd" clip-rule="evenodd" fill="#7ACDD0" d="M1219.4,736.7c2.5,3,2.1,7.5-1,10.1&#10;&#9;&#9;&#9;&#9;&#9;&#9;&#9;c-3,2.5-7.5,2.1-10.1-1c-2.5-3-2.1-7.5,1-10.1C1212.4,733.2,1216.9,733.7,1219.4,736.7" transform="matrix(1, 0, 0, 1, 0, 0)"/><path id="XMLID_239_" fill-rule="evenodd" clip-rule="evenodd" fill="#7ACDD0" d="M1218.4,746.8c-3,2.5-7.5,2-10-1&#10;&#9;&#9;&#9;&#9;&#9;&#9;s-2.1-7.5,0.9-10L1218.4,746.8z" transform="matrix(1, 0, 0, 1, 0, 0)"/><path d="M 877.2999877929688 860.2000122070312 L 886.4000244140625 860.2000122070312 L 889 995.2999877929688 L 875 995.2999877929688 Z" id="XMLID_299_" fill-rule="evenodd" clip-rule="evenodd" fill="#7ACDD0" transform="matrix(1, 0, 0, 1, 0, 0)"/><path d="M 877.2999877929688 860.2000122070312 L 886.4000244140625 860.2000122070312 L 886.4000244140625 862 L 877.2000122070312 862 Z" id="XMLID_298_" fill-rule="evenodd" clip-rule="evenodd" fill="#7ACDD0" transform="matrix(1, 0, 0, 1, 0, 0)"/><path d="M 881.7999877929688 860.2000122070312 L 886.4000244140625 860.2000122070312 L 889 995.2999877929688 L 879.5999755859375 995.2999877929688 Z" id="XMLID_297_" fill-rule="evenodd" clip-rule="evenodd" fill="#7ACDD0" transform="matrix(1, 0, 0, 1, 0, 0)"/><path d="M 881.7999877929688 860.2000122070312 L 886.4000244140625 860.2000122070312 L 886.4000244140625 862 L 881.7999877929688 862 Z" id="XMLID_296_" fill-rule="evenodd" clip-rule="evenodd" fill="#7ACDD0" transform="matrix(1, 0, 0, 1, 0, 0)"/><path d="M 888.7999877929688 987.0999755859375 L 888.9000244140625 989 L 875.0999755859375 989 L 875.2000122070312 987.0999755859375 Z" id="XMLID_295_" fill-rule="evenodd" clip-rule="evenodd" fill="#7ACDD0" transform="matrix(1, 0, 0, 1, 0, 0)"/><path id="XMLID_294_" fill-rule="evenodd" clip-rule="evenodd" fill="#7ACDD0" d="M872.3,850.1h17.5c0,0,0.1,0,0.1,0.1v10.1&#10;&#9;&#9;&#9;&#9;&#9;h-17.6c-2.8,0-5.1-2.3-5.1-5.1v0C867.2,852.3,869.5,850.1,872.3,850.1" transform="matrix(1, 0, 0, 1, 0, 0)"/><path id="XMLID_293_" fill-rule="evenodd" clip-rule="evenodd" fill="#7ACDD0" d="M889.8,855.2v5h-17.5c-2.8,0-5-2.3-5.1-5&#10;&#9;&#9;&#9;&#9;&#9;H889.8z" transform="matrix(1, 0, 0, 1, 0, 0)"/><path d="M 872.799988 989 H 891.099987 V 995.3 H 872.799988 V 989 Z" id="XMLID_292_" fill-rule="evenodd" clip-rule="evenodd" fill="#7ACDD0" transform="matrix(1, 0, 0, 1, 0, 0)"/><path d="M 904.7999877929688 790.7999877929688 L 903 790.5 L 893.9000244140625 823.2000122070312 L 887.2000122070312 846.9000244140625 L 888.9000244140625 847.2999877929688 Z" id="XMLID_291_" fill-rule="evenodd" clip-rule="evenodd" fill="#7ACDD0" transform="matrix(1, 0, 0, 1, 0, 0)"/><path d="M 894.5 859.7000122070312 L 912.2999877929688 873.7000122070312 L 933.4000244140625 903.5 L 932 904.5 L 908.7000122070312 879.9000244140625 L 891.7999877929688 862 Z" id="XMLID_290_" fill-rule="evenodd" clip-rule="evenodd" fill="#7ACDD0" transform="matrix(1, 0, 0, 1, 0, 0)"/><path d="M 933.4000244140625 903.5 L 932 904.5 L 908.7000122070312 879.9000244140625 L 891.7999877929688 862 L 893.0999755859375 860.9000244140625 Z" id="XMLID_289_" fill-rule="evenodd" clip-rule="evenodd" fill="#7ACDD0" transform="matrix(1, 0, 0, 1, 0, 0)"/><path d="M 888.5 856.900024 H 894.1 V 860.400024 H 888.5 V 856.900024 Z" id="XMLID_288_" transform="matrix(0.6366999745368958, 0.7710999846458435, -0.7710999846458435, 0.6366999745368958, 985.9837036132812, -375.3525085449219)" fill-rule="evenodd" clip-rule="evenodd" fill="#7ACDD0"/><path d="M 880.5999755859375 859.9000244140625 L 860 869.2999877929688 L 823.7999877929688 874.2000122070312 L 823.5 872.4000244140625 L 856.0999755859375 863.2000122070312 L 879.7999877929688 856.4000244140625 Z" id="XMLID_287_" fill-rule="evenodd" clip-rule="evenodd" fill="#7ACDD0" transform="matrix(1, 0, 0, 1, 0, 0)"/><path d="M 823.7999877929688 874.2000122070312 L 823.5 872.4000244140625 L 856.0999755859375 863.2000122070312 L 879.7999877929688 856.4000244140625 L 880.2000122070312 858.2000122070312 Z" id="XMLID_286_" fill-rule="evenodd" clip-rule="evenodd" fill="#7ACDD0" transform="matrix(1, 0, 0, 1, 0, 0)"/><path d="M 880.099976 855.799988 H 885.699975 V 859.299988 H 880.099976 V 855.799988 Z" id="XMLID_285_" transform="matrix(-0.9780000448226929, 0.2085999995470047, -0.2085999995470047, -0.9780000448226929, 1925.3913574218752, 1512.0777587890625)" fill-rule="evenodd" clip-rule="evenodd" fill="#7ACDD0"/><path d="M 890.5999755859375 847.5999755859375 L 900 827 L 904.7999877929688 790.7999877929688 L 903 790.5 L 893.9000244140625 823.2000122070312 L 887.2000122070312 846.9000244140625 Z" id="XMLID_284_" fill-rule="evenodd" clip-rule="evenodd" fill="#7ACDD0" transform="matrix(1, 0, 0, 1, 0, 0)"/><path d="M 885.5 848.200012 H 891.1 V 851.700012 H 885.5 V 848.200012 Z" id="XMLID_283_" transform="matrix(0.20579999685287476, -0.978600025177002, 0.978600025177002, 0.20579999685287476, -126.28240203857422, 1544.4105224609375)" fill-rule="evenodd" clip-rule="evenodd" fill="#7ACDD0"/><path id="XMLID_282_" fill-rule="evenodd" clip-rule="evenodd" fill="#7ACDD0" d="M892.2,851.6c2.1,2.5,1.7,6.2-0.8,8.2&#10;&#9;&#9;&#9;&#9;&#9;&#9;&#9;c-2.5,2.1-6.2,1.7-8.2-0.8c-2.1-2.5-1.7-6.2,0.8-8.2C886.4,848.8,890.1,849.1,892.2,851.6" transform="matrix(1, 0, 0, 1, 0, 0)"/><path id="XMLID_281_" fill-rule="evenodd" clip-rule="evenodd" fill="#7ACDD0" d="M891.3,859.9c-2.5,2-6.1,1.7-8.2-0.8&#10;&#9;&#9;&#9;&#9;&#9;&#9;&#9;c-2-2.5-1.7-6.1,0.8-8.2L891.3,859.9z" transform="matrix(1, 0, 0, 1, 0, 0)"/><path id="XMLID_280_" fill-rule="evenodd" clip-rule="evenodd" fill="#7ACDD0" d="M891.2,852.5c1.6,1.9,1.3,4.8-0.6,6.4&#10;&#9;&#9;&#9;&#9;&#9;&#9;&#9;c-1.9,1.6-4.8,1.3-6.4-0.6c-1.6-1.9-1.3-4.8,0.6-6.4C886.7,850.2,889.6,850.5,891.2,852.5" transform="matrix(1, 0, 0, 1, 0, 0)"/><path id="XMLID_278_" fill-rule="evenodd" clip-rule="evenodd" fill="#7ACDD0" d="M890.5,858.9c-1.9,1.6-4.8,1.3-6.4-0.6&#10;&#9;&#9;&#9;&#9;&#9;&#9;c-1.6-1.9-1.3-4.8,0.6-6.4L890.5,858.9z" transform="matrix(1, 0, 0, 1, 0, 0)"/><path id="XMLID_265_" fill-rule="evenodd" clip-rule="evenodd" fill="#7ACDD0" d="M986.4,848.9c-30,70.9-44.7,147.6,0,157&#10;&#9;&#9;&#9;&#9;C1031.1,996.4,1016.4,919.8,986.4,848.9z" transform="matrix(1, 0, 0, 1, 0, 0)"/><path id="XMLID_263_" fill-rule="evenodd" clip-rule="evenodd" fill="#7ACDD0" d="M1338.1,785c-38.3,90.5-57,188.4,0,200.5&#10;&#9;&#9;&#9;&#9;C1395.1,973.4,1376.4,875.5,1338.1,785z" transform="matrix(1, 0, 0, 1, 0, 0)"/><path id="XMLID_264_" fill-rule="evenodd" clip-rule="evenodd" fill="#7ACDD0" d="M939.6,899.1c-25.3,59.8-37.7,124.6,0,132.6&#10;&#9;&#9;&#9;&#9;C977.3,1023.7,964.9,959,939.6,899.1z" transform="matrix(1, 0, 0, 1, 0, 0)"/><linearGradient id="XMLID_47_" gradientUnits="userSpaceOnUse" x1="894.7657" y1="853.1546" x2="1066.5103" y2="853.1546">
					<stop offset="0" style="stop-color:#EAF7FE"/>
					<stop offset="1" style="stop-color:#6CC8C2"/>
				</linearGradient><path d="M 939.0999755859375 538.2999877929688 L 981.5999755859375 538.2999877929688 L 993.7999877929688 1168 L 928.5999755859375 1168 Z" id="XMLID_212_" fill-rule="evenodd" clip-rule="evenodd" fill="url(#XMLID_47_)" transform="matrix(1, 0, 0, 1, 0, 0)"/><linearGradient id="XMLID_69_" gradientUnits="userSpaceOnUse" x1="938.9216" y1="542.3677" x2="981.795" y2="542.3677">
					<stop offset="5.376344e-003" style="stop-color:#6AC8C4"/>
					<stop offset="1" style="stop-color:#00738C"/>
				</linearGradient><path d="M 939.0999755859375 538.2999877929688 L 981.5999755859375 538.2999877929688 L 981.7999877929688 546.5 L 938.9000244140625 546.5 Z" id="XMLID_211_" fill-rule="evenodd" clip-rule="evenodd" fill="url(#XMLID_69_)" transform="matrix(1, 0, 0, 1, 0, 0)"/><linearGradient id="XMLID_70_" gradientUnits="userSpaceOnUse" x1="905.2194" y1="853.1546" x2="997.8317" y2="853.1546">
					<stop offset="0" style="stop-color:#EAF7FE"/>
					<stop offset="1" style="stop-color:#6CC8C2"/>
				</linearGradient><path d="M 960.2999877929688 538.2999877929688 L 981.5999755859375 538.2999877929688 L 993.7999877929688 1168 L 949.9000244140625 1168 Z" id="XMLID_210_" fill-rule="evenodd" clip-rule="evenodd" fill="url(#XMLID_70_)" transform="matrix(1, 0, 0, 1, 0, 0)"/><linearGradient id="XMLID_71_" gradientUnits="userSpaceOnUse" x1="960.2119" y1="542.3677" x2="981.795" y2="542.3677">
					<stop offset="5.376344e-003" style="stop-color:#6AC8C4"/>
					<stop offset="1" style="stop-color:#00738C"/>
				</linearGradient><path d="M 960.2999877929688 538.2999877929688 L 981.5999755859375 538.2999877929688 L 981.7999877929688 546.5 L 960.2000122070312 546.5 Z" id="XMLID_209_" fill-rule="evenodd" clip-rule="evenodd" fill="url(#XMLID_71_)" transform="matrix(1, 0, 0, 1, 0, 0)"/><linearGradient id="XMLID_72_" gradientUnits="userSpaceOnUse" x1="929.0877" y1="1134.2205" x2="993.1818" y2="1134.2205">
					<stop offset="0" style="stop-color:#E7F6FD"/>
					<stop offset="0.4269" style="stop-color:#8AD2D5"/>
					<stop offset="1" style="stop-color:#00AFAB"/>
				</linearGradient><path d="M 993 1130 L 993.2000122070312 1138.5 L 929.0999755859375 1138.5 L 929.2000122070312 1130 Z" id="XMLID_208_" fill-rule="evenodd" clip-rule="evenodd" fill="url(#XMLID_72_)" transform="matrix(1, 0, 0, 1, 0, 0)"/><linearGradient id="XMLID_73_" gradientUnits="userSpaceOnUse" x1="1033.4167" y1="500.036" x2="1306.126" y2="500.036">
					<stop offset="0" style="stop-color:#EAF7FE"/>
					<stop offset="1" style="stop-color:#6CC8C2"/>
				</linearGradient><path d="M 1033.4000244140625 503.1000061035156 L 1136.4000244140625 480.3999938964844 L 1306.0999755859375 492.8999938964844 L 1305.5999755859375 501.3999938964844 L 1148.0999755859375 512 L 1033.4000244140625 519.7000122070312 Z" id="XMLID_207_" fill-rule="evenodd" clip-rule="evenodd" fill="url(#XMLID_73_)" transform="matrix(1, 0, 0, 1, 0, 0)"/><linearGradient id="XMLID_74_" gradientUnits="userSpaceOnUse" x1="1033.4197" y1="506.2727" x2="1306.126" y2="506.2727">
					<stop offset="0" style="stop-color:#E7F6FD"/>
					<stop offset="0.4269" style="stop-color:#8AD2D5"/>
					<stop offset="1" style="stop-color:#00AFAB"/>
				</linearGradient><path d="M 1306.0999755859375 492.8999938964844 L 1305.5999755859375 501.3999938964844 L 1148.0999755859375 512 L 1033.4000244140625 519.7000122070312 L 1033.4000244140625 511.3999938964844 Z" id="XMLID_206_" fill-rule="evenodd" clip-rule="evenodd" fill="url(#XMLID_74_)" transform="matrix(1, 0, 0, 1, 0, 0)"/><linearGradient id="XMLID_75_" gradientUnits="userSpaceOnUse" x1="1007.217" y1="511.3596" x2="1033.4165" y2="511.3596">
					<stop offset="0" style="stop-color:#EAF7FE"/>
					<stop offset="1" style="stop-color:#6CC8C2"/>
				</linearGradient><path d="M 1007.200012 503.100006 H 1033.400013 V 519.600006 H 1007.200012 V 503.100006 Z" id="XMLID_205_" fill-rule="evenodd" clip-rule="evenodd" fill="url(#XMLID_75_)" transform="matrix(1, 0, 0, 1, 0, 0)"/><linearGradient id="XMLID_76_" gradientUnits="userSpaceOnUse" x1="904.374" y1="479.7301" x2="1070.1385" y2="599.2001">
					<stop offset="5.376344e-003" style="stop-color:#6AC8C4"/>
					<stop offset="1" style="stop-color:#00738C"/>
				</linearGradient><path id="XMLID_204_" fill-rule="evenodd" clip-rule="evenodd" fill="url(#XMLID_76_)" d="M915.8,491h81.5&#10;&#9;&#9;&#9;&#9;&#9;c0.2,0,0.3,0.1,0.3,0.3v46.9h-81.8c-13,0-23.6-10.6-23.6-23.6v0C892.2,501.7,902.8,491,915.8,491" transform="matrix(1, 0, 0, 1, 0, 0)"/><linearGradient id="XMLID_77_" gradientUnits="userSpaceOnUse" x1="892.2087" y1="526.5414" x2="997.333" y2="526.5414">
					<stop offset="5.376344e-003" style="stop-color:#6AC8C4"/>
					<stop offset="1" style="stop-color:#00738C"/>
				</linearGradient><path id="XMLID_203_" fill-rule="evenodd" clip-rule="evenodd" fill="url(#XMLID_77_)" d="M997.3,514.8v23.5h-81.5&#10;&#9;&#9;&#9;&#9;&#9;c-12.9,0-23.5-10.5-23.6-23.5H997.3z" transform="matrix(1, 0, 0, 1, 0, 0)"/><linearGradient id="XMLID_78_" gradientUnits="userSpaceOnUse" x1="868.5088" y1="673.0576" x2="992.6765" y2="673.0576">
					<stop offset="0" style="stop-color:#EAF7FE"/>
					<stop offset="1" style="stop-color:#6CC8C2"/>
				</linearGradient><path d="M 992.7000122070312 553.5999755859375 L 965.2000122070312 655.4000244140625 L 875.7999877929688 800.2000122070312 L 868.5 795.7999877929688 L 931.9000244140625 651.2000122070312 L 978 545.9000244140625 Z" id="XMLID_202_" fill-rule="evenodd" clip-rule="evenodd" fill="url(#XMLID_78_)" transform="matrix(1, 0, 0, 1, 0, 0)"/><linearGradient id="XMLID_79_" gradientUnits="userSpaceOnUse" x1="868.5088" y1="673.0576" x2="985.3215" y2="673.0576">
					<stop offset="0" style="stop-color:#E7F6FD"/>
					<stop offset="0.4269" style="stop-color:#8AD2D5"/>
					<stop offset="1" style="stop-color:#00AFAB"/>
				</linearGradient><path d="M 875.7999877929688 800.2000122070312 L 868.5 795.7999877929688 L 931.9000244140625 651.2000122070312 L 978 545.9000244140625 L 985.2999877929688 549.7999877929688 Z" id="XMLID_201_" fill-rule="evenodd" clip-rule="evenodd" fill="url(#XMLID_79_)" transform="matrix(1, 0, 0, 1, 0, 0)"/><linearGradient id="XMLID_80_" gradientUnits="userSpaceOnUse" x1="978.0106" y1="538.1426" x2="1004.7759" y2="538.1426">
					<stop offset="0" style="stop-color:#EAF7FE"/>
					<stop offset="1" style="stop-color:#6CC8C2"/>
				</linearGradient><path d="M 992.7000122070312 553.5999755859375 L 1004.7999877929688 530.2999877929688 L 990.0999755859375 522.7000122070312 L 978 545.9000244140625 Z" id="XMLID_200_" fill-rule="evenodd" clip-rule="evenodd" fill="url(#XMLID_80_)" transform="matrix(1, 0, 0, 1, 0, 0)"/><linearGradient id="XMLID_81_" gradientUnits="userSpaceOnUse" x1="918.327" y1="1153.2513" x2="1003.8513" y2="1153.2513">
					<stop offset="5.376344e-003" style="stop-color:#6AC8C4"/>
					<stop offset="1" style="stop-color:#00738C"/>
				</linearGradient><path d="M 918.299988 1138.5 H 1003.799988 V 1168.1 H 918.299988 V 1138.5 Z" id="XMLID_199_" fill-rule="evenodd" clip-rule="evenodd" fill="url(#XMLID_81_)" transform="matrix(1, 0, 0, 1, 0, 0)"/><linearGradient id="XMLID_82_" gradientUnits="userSpaceOnUse" x1="810.0557" y1="376.3203" x2="978.4434" y2="376.3203">
					<stop offset="0" style="stop-color:#EAF7FE"/>
					<stop offset="1" style="stop-color:#6CC8C2"/>
				</linearGradient><path d="M 978.4000244140625 480.8999938964844 L 932 386.29998779296875 L 816.4000244140625 261.3999938964844 L 810.0999755859375 267.1000061035156 L 900 396.79998779296875 L 965.5 491.29998779296875 Z" id="XMLID_198_" fill-rule="evenodd" clip-rule="evenodd" fill="url(#XMLID_82_)" transform="matrix(1, 0, 0, 1, 0, 0)"/><linearGradient id="XMLID_83_" gradientUnits="userSpaceOnUse" x1="810.0557" y1="376.3203" x2="971.9602" y2="376.3203">
					<stop offset="0" style="stop-color:#E7F6FD"/>
					<stop offset="0.4269" style="stop-color:#8AD2D5"/>
					<stop offset="1" style="stop-color:#00AFAB"/>
				</linearGradient><path d="M 816.4000244140625 261.3999938964844 L 810.0999755859375 267.1000061035156 L 900 396.79998779296875 L 965.5 491.29998779296875 L 972 486.1000061035156 Z" id="XMLID_197_" fill-rule="evenodd" clip-rule="evenodd" fill="url(#XMLID_83_)" transform="matrix(1, 0, 0, 1, 0, 0)"/><linearGradient id="XMLID_84_" gradientUnits="userSpaceOnUse" x1="965.5172" y1="496.3312" x2="994.7811" y2="496.3312">
					<stop offset="0" style="stop-color:#EAF7FE"/>
					<stop offset="1" style="stop-color:#6CC8C2"/>
				</linearGradient><path d="M 978.4000244140625 480.8999938964844 L 994.7999877929688 501.3999938964844 L 981.9000244140625 511.70001220703125 L 965.5 491.20001220703125 Z" id="XMLID_196_" fill-rule="evenodd" clip-rule="evenodd" fill="url(#XMLID_84_)" transform="matrix(1, 0, 0, 1, 0, 0)"/><linearGradient id="XMLID_85_" gradientUnits="userSpaceOnUse" x1="970.1251" y1="514.6578" x2="1024.5409" y2="514.6578">
					<stop offset="0" style="stop-color:#EAF7FE"/>
					<stop offset="1" style="stop-color:#6CC8C2"/>
				</linearGradient><path id="XMLID_195_" fill-rule="evenodd" clip-rule="evenodd" fill="url(#XMLID_85_)" d="M997.3,487.4&#10;&#9;&#9;&#9;&#9;&#9;c15,0,27.2,12.2,27.2,27.2c0,15-12.2,27.2-27.2,27.2s-27.2-12.2-27.2-27.2C970.1,499.6,982.3,487.4,997.3,487.4" transform="matrix(1, 0, 0, 1, 0, 0)"/><linearGradient id="XMLID_86_" gradientUnits="userSpaceOnUse" x1="970.1269" y1="528.3368" x2="1024.5391" y2="528.3368">
					<stop offset="0" style="stop-color:#EAF7FE"/>
					<stop offset="1" style="stop-color:#6CC8C2"/>
				</linearGradient><path id="XMLID_193_" fill-rule="evenodd" clip-rule="evenodd" fill="url(#XMLID_86_)" d="M1024.5,514.8&#10;&#9;&#9;&#9;&#9;&#9;c-0.1,15-12.2,27.1-27.2,27.1c-15,0-27.1-12.1-27.2-27.1H1024.5z" transform="matrix(1, 0, 0, 1, 0, 0)"/><linearGradient id="XMLID_87_" gradientUnits="userSpaceOnUse" x1="976.1088" y1="514.6578" x2="1018.5571" y2="514.6578">
					<stop offset="5.376344e-003" style="stop-color:#6AC8C4"/>
					<stop offset="1" style="stop-color:#00738C"/>
				</linearGradient><path id="XMLID_192_" fill-rule="evenodd" clip-rule="evenodd" fill="url(#XMLID_87_)" d="M997.3,493.4&#10;&#9;&#9;&#9;&#9;&#9;c11.7,0,21.2,9.5,21.2,21.2c0,11.7-9.5,21.2-21.2,21.2c-11.7,0-21.2-9.5-21.2-21.2C976.1,502.9,985.6,493.4,997.3,493.4" transform="matrix(1, 0, 0, 1, 0, 0)"/><linearGradient id="XMLID_88_" gradientUnits="userSpaceOnUse" x1="976.1106" y1="525.3449" x2="1018.5553" y2="525.3449">
					<stop offset="5.376344e-003" style="stop-color:#6AC8C4"/>
					<stop offset="1" style="stop-color:#00738C"/>
				</linearGradient><path id="XMLID_191_" fill-rule="evenodd" clip-rule="evenodd" fill="url(#XMLID_88_)" d="M1018.6,514.8&#10;&#9;&#9;&#9;&#9;&#9;c-0.1,11.7-9.6,21.1-21.2,21.1c-11.7,0-21.1-9.4-21.2-21.1H1018.6z" transform="matrix(1, 0, 0, 1, 0, 0)"/><linearGradient id="XMLID_89_" gradientUnits="userSpaceOnUse" x1="582.6772" y1="772.993" x2="720.237" y2="772.993">
					<stop offset="0" style="stop-color:#EAF7FE"/>
					<stop offset="1" style="stop-color:#6CC8C2"/>
				</linearGradient><path d="M 618.2000122070312 520.7999877929688 L 652.2999877929688 520.7999877929688 L 662 1025.199951171875 L 609.7999877929688 1025.199951171875 Z" id="XMLID_233_" fill-rule="evenodd" clip-rule="evenodd" fill="url(#XMLID_89_)" transform="matrix(1, 0, 0, 1, 0, 0)"/><linearGradient id="XMLID_90_" gradientUnits="userSpaceOnUse" x1="618.0442" y1="524.0664" x2="652.3838" y2="524.0664">
					<stop offset="5.376344e-003" style="stop-color:#6AC8C4"/>
					<stop offset="1" style="stop-color:#00738C"/>
				</linearGradient><path d="M 618.2000122070312 520.7999877929688 L 652.2999877929688 520.7999877929688 L 652.4000244140625 527.2999877929688 L 618 527.2999877929688 Z" id="XMLID_232_" fill-rule="evenodd" clip-rule="evenodd" fill="url(#XMLID_90_)" transform="matrix(1, 0, 0, 1, 0, 0)"/><linearGradient id="XMLID_91_" gradientUnits="userSpaceOnUse" x1="591.0502" y1="772.993" x2="665.2285" y2="772.993">
					<stop offset="0" style="stop-color:#EAF7FE"/>
					<stop offset="1" style="stop-color:#6CC8C2"/>
				</linearGradient><path d="M 635.2000122070312 520.7999877929688 L 652.2999877929688 520.7999877929688 L 662 1025.199951171875 L 626.7999877929688 1025.199951171875 Z" id="XMLID_231_" fill-rule="evenodd" clip-rule="evenodd" fill="url(#XMLID_91_)" transform="matrix(1, 0, 0, 1, 0, 0)"/><linearGradient id="XMLID_92_" gradientUnits="userSpaceOnUse" x1="635.0967" y1="524.0664" x2="652.3838" y2="524.0664">
					<stop offset="5.376344e-003" style="stop-color:#6AC8C4"/>
					<stop offset="1" style="stop-color:#00738C"/>
				</linearGradient><path d="M 635.2000122070312 520.7999877929688 L 652.2999877929688 520.7999877929688 L 652.4000244140625 527.2999877929688 L 635.0999755859375 527.2999877929688 Z" id="XMLID_230_" fill-rule="evenodd" clip-rule="evenodd" fill="url(#XMLID_92_)" transform="matrix(1, 0, 0, 1, 0, 0)"/><linearGradient id="XMLID_93_" gradientUnits="userSpaceOnUse" x1="610.1676" y1="998.1142" x2="661.5042" y2="998.1142">
					<stop offset="0" style="stop-color:#E7F6FD"/>
					<stop offset="0.4269" style="stop-color:#8AD2D5"/>
					<stop offset="1" style="stop-color:#00AFAB"/>
				</linearGradient><path d="M 661.4000244140625 994.7000122070312 L 661.5 1001.5 L 610.2000122070312 1001.5 L 610.2999877929688 994.7000122070312 Z" id="XMLID_229_" fill-rule="evenodd" clip-rule="evenodd" fill="url(#XMLID_93_)" transform="matrix(1, 0, 0, 1, 0, 0)"/><linearGradient id="XMLID_94_" gradientUnits="userSpaceOnUse" x1="590.373" y1="473.8965" x2="723.1431" y2="569.5866">
					<stop offset="5.376344e-003" style="stop-color:#6AC8C4"/>
					<stop offset="1" style="stop-color:#00738C"/>
				</linearGradient><path id="XMLID_225_" fill-rule="evenodd" clip-rule="evenodd" fill="url(#XMLID_94_)" d="M599.5,483h65.3&#10;&#9;&#9;&#9;&#9;&#9;c0.1,0,0.2,0.1,0.2,0.2v37.6h-65.5c-10.4,0-18.9-8.5-18.9-18.9v0C580.6,491.5,589.1,483,599.5,483" transform="matrix(1, 0, 0, 1, 0, 0)"/><linearGradient id="XMLID_95_" gradientUnits="userSpaceOnUse" x1="580.6292" y1="511.3903" x2="664.829" y2="511.3903">
					<stop offset="5.376344e-003" style="stop-color:#6AC8C4"/>
					<stop offset="1" style="stop-color:#00738C"/>
				</linearGradient><path id="XMLID_224_" fill-rule="evenodd" clip-rule="evenodd" fill="url(#XMLID_95_)" d="M664.8,502v18.8h-65.3&#10;&#9;&#9;&#9;&#9;&#9;c-10.4,0-18.8-8.4-18.9-18.8H664.8z" transform="matrix(1, 0, 0, 1, 0, 0)"/><linearGradient id="XMLID_96_" gradientUnits="userSpaceOnUse" x1="601.5487" y1="1013.3571" x2="670.0499" y2="1013.3571">
					<stop offset="5.376344e-003" style="stop-color:#6AC8C4"/>
					<stop offset="1" style="stop-color:#00738C"/>
				</linearGradient><path d="M 601.5 1001.5 H 670 V 1025.200001 H 601.5 V 1001.5 Z" id="XMLID_220_" fill-rule="evenodd" clip-rule="evenodd" fill="url(#XMLID_96_)" transform="matrix(1, 0, 0, 1, 0, 0)"/><linearGradient id="XMLID_97_" gradientUnits="userSpaceOnUse" x1="736.227" y1="452.895" x2="954.655" y2="452.895" gradientTransform="matrix(0.4144 -0.9101 0.9101 0.4144 -50.6581 950.8441)">
						<stop offset="0" style="stop-color:#EAF7FE"/>
						<stop offset="1" style="stop-color:#6CC8C2"/>
					</linearGradient><path d="M 668.7999877929688 469.5 L 686.5 386.8999938964844 L 751.9000244140625 267.29998779296875 L 757.9000244140625 270.5 L 713.2999877929688 388.79998779296875 L 680.9000244140625 475 Z" id="XMLID_228_" fill-rule="evenodd" clip-rule="evenodd" fill="url(#XMLID_97_)" transform="matrix(1, 0, 0, 1, 0, 0)"/><linearGradient id="XMLID_98_" gradientUnits="userSpaceOnUse" x1="736.2294" y1="457.8903" x2="954.655" y2="457.8903" gradientTransform="matrix(0.4144 -0.9101 0.9101 0.4144 -50.6581 950.8441)">
						<stop offset="0" style="stop-color:#E7F6FD"/>
						<stop offset="0.4269" style="stop-color:#8AD2D5"/>
						<stop offset="1" style="stop-color:#00AFAB"/>
					</linearGradient><path d="M 751.9000244140625 267.29998779296875 L 757.9000244140625 270.5 L 713.2999877929688 388.79998779296875 L 680.9000244140625 475 L 674.9000244140625 472.20001220703125 Z" id="XMLID_227_" fill-rule="evenodd" clip-rule="evenodd" fill="url(#XMLID_98_)" transform="matrix(1, 0, 0, 1, 0, 0)"/><linearGradient id="XMLID_99_" gradientUnits="userSpaceOnUse" x1="715.2421" y1="461.9647" x2="736.2268" y2="461.9647" gradientTransform="matrix(0.4144 -0.9101 0.9101 0.4144 -50.6581 950.8441)">
						<stop offset="0" style="stop-color:#EAF7FE"/>
						<stop offset="1" style="stop-color:#6CC8C2"/>
					</linearGradient><path d="M 668.7999877929688 469.5 L 660.0999755859375 488.6000061035156 L 672.2000122070312 494.1000061035156 L 680.9000244140625 475 Z" id="XMLID_226_" fill-rule="evenodd" clip-rule="evenodd" fill="url(#XMLID_99_)" transform="matrix(1, 0, 0, 1, 0, 0)"/><linearGradient id="XMLID_100_" gradientUnits="userSpaceOnUse" x1="604.1431" y1="591.4775" x2="703.5959" y2="591.4775" gradientTransform="matrix(0.4144 -0.9101 0.9101 0.4144 -50.6581 950.8441)">
						<stop offset="0" style="stop-color:#EAF7FE"/>
						<stop offset="1" style="stop-color:#6CC8C2"/>
					</linearGradient><path d="M 692.0999755859375 515.9000244140625 L 757.2000122070312 569.7000122070312 L 833.0999755859375 683 L 827.5 686.7999877929688 L 743.0999755859375 592.5999755859375 L 681.5999755859375 524.0999755859375 Z" id="XMLID_223_" fill-rule="evenodd" clip-rule="evenodd" fill="url(#XMLID_100_)" transform="matrix(1, 0, 0, 1, 0, 0)"/><linearGradient id="XMLID_101_" gradientUnits="userSpaceOnUse" x1="604.1431" y1="591.4775" x2="697.7048" y2="591.4775" gradientTransform="matrix(0.4144 -0.9101 0.9101 0.4144 -50.6581 950.8441)">
						<stop offset="0" style="stop-color:#E7F6FD"/>
						<stop offset="0.4269" style="stop-color:#8AD2D5"/>
						<stop offset="1" style="stop-color:#00AFAB"/>
					</linearGradient><path d="M 833.0999755859375 683 L 827.5 686.7999877929688 L 743.0999755859375 592.5999755859375 L 681.5999755859375 524.0999755859375 L 686.9000244140625 520 Z" id="XMLID_222_" fill-rule="evenodd" clip-rule="evenodd" fill="url(#XMLID_101_)" transform="matrix(1, 0, 0, 1, 0, 0)"/><linearGradient id="XMLID_102_" gradientUnits="userSpaceOnUse" x1="691.8491" y1="483.4167" x2="713.2869" y2="483.4167" gradientTransform="matrix(0.4144 -0.9101 0.9101 0.4144 -50.6581 950.8441)">
						<stop offset="0" style="stop-color:#EAF7FE"/>
						<stop offset="1" style="stop-color:#6CC8C2"/>
					</linearGradient><path d="M 692.0999755859375 515.9000244140625 L 679.2000122070312 499.3999938964844 L 668.7000122070312 507.5 L 681.7000122070312 524.0999755859375 Z" id="XMLID_221_" fill-rule="evenodd" clip-rule="evenodd" fill="url(#XMLID_102_)" transform="matrix(1, 0, 0, 1, 0, 0)"/><linearGradient id="XMLID_103_" gradientUnits="userSpaceOnUse" x1="557.3247" y1="353.8042" x2="692.1957" y2="353.8042" gradientTransform="matrix(0.4144 -0.9101 0.9101 0.4144 -50.6581 950.8441)">
						<stop offset="0" style="stop-color:#EAF7FE"/>
						<stop offset="1" style="stop-color:#6CC8C2"/>
					</linearGradient><path d="M 634.4000244140625 502.20001220703125 L 550 504.70001220703125 L 420.6000061035156 547.5 L 422.6000061035156 554 L 547.0999755859375 531.4000244140625 L 637.5999755859375 515.0999755859375 Z" id="XMLID_219_" fill-rule="evenodd" clip-rule="evenodd" fill="url(#XMLID_103_)" transform="matrix(1, 0, 0, 1, 0, 0)"/><linearGradient id="XMLID_104_" gradientUnits="userSpaceOnUse" x1="557.3247" y1="353.8042" x2="687.003" y2="353.8042" gradientTransform="matrix(0.4144 -0.9101 0.9101 0.4144 -50.6581 950.8441)">
						<stop offset="0" style="stop-color:#E7F6FD"/>
						<stop offset="0.4269" style="stop-color:#8AD2D5"/>
						<stop offset="1" style="stop-color:#00AFAB"/>
					</linearGradient><path d="M 420.6000061035156 547.5 L 422.6000061035156 554 L 547.0999755859375 531.4000244140625 L 637.5999755859375 515.0999755859375 L 636 508.6000061035156 Z" id="XMLID_218_" fill-rule="evenodd" clip-rule="evenodd" fill="url(#XMLID_104_)" transform="matrix(1, 0, 0, 1, 0, 0)"/><linearGradient id="XMLID_105_" gradientUnits="userSpaceOnUse" x1="681.8425" y1="449.9276" x2="705.2816" y2="449.9276" gradientTransform="matrix(0.4144 -0.9101 0.9101 0.4144 -50.6581 950.8441)">
						<stop offset="0" style="stop-color:#EAF7FE"/>
						<stop offset="1" style="stop-color:#6CC8C2"/>
					</linearGradient><path d="M 634.4000244140625 502.20001220703125 L 654.7999877929688 497.1000061035156 L 658 509.8999938964844 L 637.5999755859375 515 Z" id="XMLID_217_" fill-rule="evenodd" clip-rule="evenodd" fill="url(#XMLID_105_)" transform="matrix(1, 0, 0, 1, 0, 0)"/><linearGradient id="XMLID_106_" gradientUnits="userSpaceOnUse" x1="685.5331" y1="464.6064" x2="729.1178" y2="464.6064" gradientTransform="matrix(0.4144 -0.9101 0.9101 0.4144 -50.6581 950.8441)">
						<stop offset="0" style="stop-color:#EAF7FE"/>
						<stop offset="1" style="stop-color:#6CC8C2"/>
					</linearGradient><path id="XMLID_216_" fill-rule="evenodd" clip-rule="evenodd" fill="url(#XMLID_106_)" d="M645.4,490.6&#10;&#9;&#9;&#9;&#9;&#9;&#9;c5-11,17.9-15.8,28.9-10.8c11,5,15.8,17.9,10.8,28.9c-5,11-17.9,15.8-28.9,10.8S640.4,501.5,645.4,490.6" transform="matrix(1, 0, 0, 1, 0, 0)"/><linearGradient id="XMLID_107_" gradientUnits="userSpaceOnUse" x1="685.5346" y1="475.5627" x2="729.1164" y2="475.5627" gradientTransform="matrix(0.4144 -0.9101 0.9101 0.4144 -50.6581 950.8441)">
						<stop offset="0" style="stop-color:#EAF7FE"/>
						<stop offset="1" style="stop-color:#6CC8C2"/>
					</linearGradient><path id="XMLID_215_" fill-rule="evenodd" clip-rule="evenodd" fill="url(#XMLID_107_)" d="M674.4,479.8&#10;&#9;&#9;&#9;&#9;&#9;&#9;c10.9,5,15.7,17.9,10.7,28.8c-5,10.9-17.8,15.8-28.8,10.9L674.4,479.8z" transform="matrix(1, 0, 0, 1, 0, 0)"/><linearGradient id="XMLID_108_" gradientUnits="userSpaceOnUse" x1="690.3259" y1="464.6064" x2="724.3251" y2="464.6064" gradientTransform="matrix(0.4144 -0.9101 0.9101 0.4144 -50.6581 950.8441)">
						<stop offset="5.376344e-003" style="stop-color:#6AC8C4"/>
						<stop offset="1" style="stop-color:#00738C"/>
					</linearGradient><path id="XMLID_214_" fill-rule="evenodd" clip-rule="evenodd" fill="url(#XMLID_108_)" d="M649.8,492.6&#10;&#9;&#9;&#9;&#9;&#9;&#9;c3.9-8.5,14-12.3,22.5-8.4s12.3,14,8.4,22.5c-3.9,8.5-14,12.3-22.5,8.4C649.7,511.2,645.9,501.1,649.8,492.6" transform="matrix(1, 0, 0, 1, 0, 0)"/><linearGradient id="XMLID_109_" gradientUnits="userSpaceOnUse" x1="690.3273" y1="473.1663" x2="724.3236" y2="473.1663" gradientTransform="matrix(0.4144 -0.9101 0.9101 0.4144 -50.6581 950.8441)">
						<stop offset="5.376344e-003" style="stop-color:#6AC8C4"/>
						<stop offset="1" style="stop-color:#00738C"/>
					</linearGradient><path id="XMLID_213_" fill-rule="evenodd" clip-rule="evenodd" fill="url(#XMLID_109_)" d="M672.4,484.2&#10;&#9;&#9;&#9;&#9;&#9;&#9;c8.5,3.9,12.2,14,8.3,22.5c-3.9,8.5-13.9,12.3-22.4,8.5L672.4,484.2z" transform="matrix(1, 0, 0, 1, 0, 0)"/><linearGradient id="XMLID_110_" gradientUnits="userSpaceOnUse" x1="1243.4529" y1="1368.3065" x2="919.9139" y2="1044.7676">
				<stop offset="0" style="stop-color:#004569;stop-opacity:0"/>
				<stop offset="0.9032" style="stop-color:#004569"/>
			</linearGradient><path id="XMLID_234_" fill-rule="evenodd" clip-rule="evenodd" fill="url(#XMLID_110_)" d="M1003.9,1168&#10;&#9;&#9;&#9;&#9;c142,71.7,274.9,148.6,396.1,232h-230.2c-57.6-66.9-153.6-149.1-251.4-232H1003.9z" transform="matrix(1, 0, 0, 1, 0, 0)"/><linearGradient id="XMLID_111_" gradientUnits="userSpaceOnUse" x1="1043.9033" y1="2212.1924" x2="229.9975" y2="1398.2866">
				<stop offset="0" style="stop-color:#004569;stop-opacity:0"/>
				<stop offset="0.9032" style="stop-color:#004569"/>
			</linearGradient><path id="XMLID_235_" fill-rule="evenodd" clip-rule="evenodd" fill="url(#XMLID_111_)" d="M299.1,1275.9&#10;&#9;&#9;&#9;&#9;C431,1389,511.9,1575,511.9,1575H213l-28.4-299.1H299.1z" transform="matrix(1, 0, 0, 1, 0, 0)"/><linearGradient id="XMLID_112_" gradientUnits="userSpaceOnUse" x1="812.5563" y1="1180.7738" x2="644.5563" y2="926.7738">
				<stop offset="0" style="stop-color:#004569;stop-opacity:0"/>
				<stop offset="0.9032" style="stop-color:#004569"/>
			</linearGradient><path id="XMLID_266_" fill-rule="evenodd" clip-rule="evenodd" fill="url(#XMLID_112_)" d="M670,1025.2&#10;&#9;&#9;&#9;&#9;C867,1127,949.9,1225,949.9,1225H833.1c0,0-131-149.6-231.5-199.8C662,1025.2,670,1025.2,670,1025.2z" transform="matrix(1, 0, 0, 1, 0, 0)"/>
</svg>