<svg xmlns="http://www.w3.org/2000/svg" id="master-artboard" width="1400" height="900" x="0" y="0" version="1.1" viewBox="0 0 1400 900" style="enable-background:new 0 0 1400 900"><path d="M1348.8,568.2c0,0-14-13.8-10-12.2s12,3.8,12,3.8s-14.5-21-12-20s14.2,12.5,14.2,12.5s0.8-20.5,3.5-19.2	s4.8,18.2,4.8,18.2s14.8-15.8,15-13s-8.8,15-8.8,15s12-4.8,11.8-2.8s-10.8,16.2-10.8,16.2L1348.8,568.2z" class="st0" style="fill:#4f8739"/><g><path d="M1365.7,579.5c-3.5-10.1-13.1-17.4-24.4-17.4s-20.9,7.3-24.4,17.4H1365.7z" class="st0" style="fill:#4f8739"/><path d="M1400,579.5c-4.2-12-15.5-20.6-28.9-20.6c-13.4,0-24.8,8.6-28.9,20.6H1400z" class="st1" style="fill:#397221"/></g><g><path d="M 0 0 H 1400 V 900 H 0 V 0 Z" class="st2" style="fill:#5afffa"/><path d="M 1400 0 L 1400 59 L 0 125 L 0 0 Z" class="st3" style="fill:#2ff4e9"/><path d="M 1400 212.3000030517578 L 1400 632.7999877929688 L 0 632.7999877929688 L 0 195.60000610351562 Z" class="st4" style="fill:#8ffff9"/><path d="M1400,99.8v68.4c-245.7,1.7-1140.6,7.7-1174.2,2.5C189.7,165.2,1241.4,108.4,1400,99.8z" class="st4" style="fill:#8ffff9"/><path d="M0,271.1c181.3,6.2,944.8,32.4,936.8,37.7c-8,5.4-769.5,17.8-936.8,20.5V271.1z" class="st5" style="opacity:.41;fill:#fff"/><path d="M 1369 447 A 642 7 0 0 1 727 454 A 642 7 0 0 1 85 447 A 642 7 0 0 1 727 440 A 642 7 0 0 1 1369 447 Z" class="st5" style="opacity:.41;fill:#fff"/><path d="M 0 479.700012 H 1400 V 900 H 0 V 479.700012 Z" class="st5" style="opacity:.41;fill:#fff"/><path d="M 0 519 H 1400 V 900 H 0 V 519 Z" class="st6" style="fill:#00b2ff"/><path d="M 0 577.299988 H 1400 V 900 H 0 V 577.299988 Z" class="st7" style="fill:#00cbff"/><path d="M 0 653.200012 H 1400 V 900.000015 H 0 V 653.200012 Z" class="st8" style="fill:#00f5ff"/><path d="M1400,392.6c-32.1-28.1-61.8-54-66.2-56.9c-10-6.7-116,122-116,122s-58-62.7-63.3-67.3 C1149.1,385.7,1032,580,1032,580l209.8,25l158.2,3.6V392.6z" class="st8" style="fill:#00f5ff"/><g><path d="M 198.10000610351562 709.5 L 131.8000030517578 709.5 L 133.8000030517578 686.5999755859375 L 134.60000610351562 678.4000244140625 L 137.1999969482422 649.0999755859375 L 137.89999389648438 640.7999877929688 L 140.5 611.5999755859375 L 141.1999969482422 603.2999877929688 L 143.8000030517578 574.0999755859375 L 144.60000610351562 565.7999877929688 L 147.1999969482422 536.5999755859375 L 147.89999389648438 528.2999877929688 L 150.5 499.1000061035156 L 151.1999969482422 490.79998779296875 L 153.8000030517578 461.6000061035156 L 154.60000610351562 453.29998779296875 L 157.60000610351562 418.6000061035156 L 172.3000030517578 418.6000061035156 L 175.39999389648438 453.29998779296875 L 176.10000610351562 461.6000061035156 L 178.6999969482422 490.79998779296875 L 179.5 499.1000061035156 L 182.10000610351562 528.2999877929688 L 182.8000030517578 536.5999755859375 L 185.39999389648438 565.7999877929688 L 186.10000610351562 574.0999755859375 L 188.6999969482422 603.2999877929688 L 189.5 611.5999755859375 L 192.10000610351562 640.7999877929688 L 192.8000030517578 649.0999755859375 L 195.39999389648438 678.4000244140625 L 196.10000610351562 686.5999755859375 Z" class="st9" style="fill:#d3961c"/><path d="M 196.10000610351562 686.5999755859375 L 195.39999389648438 678.4000244140625 L 192.8000030517578 649.0999755859375 L 192.10000610351562 640.7999877929688 L 189.5 611.5999755859375 L 188.6999969482422 603.2999877929688 L 186.10000610351562 574.0999755859375 L 185.39999389648438 565.7999877929688 L 182.8000030517578 536.5999755859375 L 182.10000610351562 528.2999877929688 L 179.5 499.1000061035156 L 178.6999969482422 490.79998779296875 L 176.10000610351562 461.6000061035156 L 175.39999389648438 453.29998779296875 L 172.3000030517578 418.6000061035156 L 164.10000610351562 418.6000061035156 L 167.1999969482422 453.29998779296875 L 167.89999389648438 461.6000061035156 L 170.5 490.79998779296875 L 171.3000030517578 499.1000061035156 L 173.89999389648438 528.2999877929688 L 174.60000610351562 536.5999755859375 L 177.1999969482422 565.7999877929688 L 177.89999389648438 574.0999755859375 L 180.5 603.2999877929688 L 181.3000030517578 611.5999755859375 L 183.89999389648438 640.7999877929688 L 184.60000610351562 649.0999755859375 L 187.1999969482422 678.4000244140625 L 187.89999389648438 686.5999755859375 L 190 709.5 L 198.10000610351562 709.5 Z" class="st10" style="fill:#b27508"/><g><path d="M165.4,419L130,456.3l-21.4-7.9l9.2,15.3l-17.1,22.6l-17.7-6.1l10.4,15.3l-25,25.6 C68.4,520.9,31.2,406.2,165.4,419z" class="st0" style="fill:#4f8739"/><path d="M165.4,419c0,0-80.5-99.5-159.9-20.1l34.8,6.1L58,391l0.6,18.3l22.6,3.1l15.3-16.5l-0.9,18.9L165.4,419z" class="st1" style="fill:#397221"/><path d="M165.4,419c0,0,7.3-135.4-108.6-106.2l31.7,27.5l25.6-3.7l-6.7,12.2l18.9,19.5l9.8-2.4v13.4L165.4,419z" class="st0" style="fill:#4f8739"/><path d="M164.1,419l35.4,37.2l21.4-7.9l-9.2,15.3l17.1,22.6l17.7-6.1l-10.4,15.3l25,25.6 C261.2,520.9,298.4,406.2,164.1,419z" class="st0" style="fill:#4f8739"/><path d="M164.1,419c0,0,80.5-99.5,159.9-20.1l-34.8,6.1l-17.7-14l-0.6,18.3l-22.6,3.1l-15.3-16.5l0.9,18.9L164.1,419 z" class="st1" style="fill:#397221"/><path d="M164.1,419c0,0-7.3-135.4,108.6-106.2L241,340.3l-25.6-3.7l6.7,12.2l-18.9,19.5l-9.8-2.4v13.4L164.1,419z" class="st0" style="fill:#4f8739"/></g><g><path d="M 176.10000610351562 461.6000061035156 L 153.8000030517578 461.6000061035156 L 154.60000610351562 453.29998779296875 L 175.39999389648438 453.29998779296875 Z" class="st10" style="fill:#b27508"/><path d="M 179.5 499.1000061035156 L 150.5 499.1000061035156 L 151.1999969482422 490.79998779296875 L 178.6999969482422 490.79998779296875 Z" class="st10" style="fill:#b27508"/><path d="M 147.1999969482422 536.5999755859375 L 182.8000030517578 536.5999755859375 L 182.10000610351562 528.2999877929688 L 147.89999389648438 528.2999877929688 Z" class="st10" style="fill:#b27508"/><path d="M 186.10000610351562 574.0999755859375 L 143.8000030517578 574.0999755859375 L 144.60000610351562 565.7999877929688 L 185.39999389648438 565.7999877929688 Z" class="st10" style="fill:#b27508"/><path d="M 140.5 611.5999755859375 L 189.5 611.5999755859375 L 188.6999969482422 603.2999877929688 L 141.1999969482422 603.2999877929688 Z" class="st10" style="fill:#b27508"/><path d="M 192.8000030517578 649.0999755859375 L 137.1999969482422 649.0999755859375 L 137.89999389648438 640.7999877929688 L 192.10000610351562 640.7999877929688 Z" class="st10" style="fill:#b27508"/><path d="M 195.39999389648438 678.4000244140625 L 134.60000610351562 678.4000244140625 L 133.8000030517578 686.5999755859375 L 196.10000610351562 686.5999755859375 Z" class="st10" style="fill:#b27508"/></g></g><g><path d="M 407.20001220703125 729.2000122070312 L 361.8999938964844 729.2000122070312 L 363.29998779296875 713.5999755859375 L 363.79998779296875 707.9000244140625 L 365.6000061035156 688 L 366.1000061035156 682.2999877929688 L 367.8999938964844 662.4000244140625 L 368.3999938964844 656.7000122070312 L 370.1000061035156 636.7999877929688 L 370.6000061035156 631.0999755859375 L 372.3999938964844 611.2000122070312 L 372.8999938964844 605.5 L 374.70001220703125 585.5999755859375 L 375.20001220703125 579.9000244140625 L 377 560 L 377.5 554.2999877929688 L 379.6000061035156 530.7000122070312 L 389.6000061035156 530.7000122070312 L 391.70001220703125 554.2999877929688 L 392.20001220703125 560 L 394 579.9000244140625 L 394.5 585.5999755859375 L 396.20001220703125 605.5 L 396.70001220703125 611.2000122070312 L 398.5 631.0999755859375 L 399 636.7999877929688 L 400.79998779296875 656.7000122070312 L 401.29998779296875 662.4000244140625 L 403.1000061035156 682.2999877929688 L 403.6000061035156 688 L 405.29998779296875 707.9000244140625 L 405.79998779296875 713.5999755859375 Z" class="st9" style="fill:#d3961c"/><path d="M 405.79998779296875 713.5999755859375 L 405.29998779296875 707.9000244140625 L 403.6000061035156 688 L 403.1000061035156 682.2999877929688 L 401.29998779296875 662.4000244140625 L 400.79998779296875 656.7000122070312 L 399 636.7999877929688 L 398.5 631.0999755859375 L 396.70001220703125 611.2000122070312 L 396.20001220703125 605.5 L 394.5 585.5999755859375 L 394 579.9000244140625 L 392.20001220703125 560 L 391.70001220703125 554.2999877929688 L 389.6000061035156 530.7000122070312 L 384 530.7000122070312 L 386.1000061035156 554.2999877929688 L 386.6000061035156 560 L 388.3999938964844 579.9000244140625 L 388.8999938964844 585.5999755859375 L 390.6000061035156 605.5 L 391.1000061035156 611.2000122070312 L 392.8999938964844 631.0999755859375 L 393.3999938964844 636.7999877929688 L 395.20001220703125 656.7000122070312 L 395.70001220703125 662.4000244140625 L 397.5 682.2999877929688 L 398 688 L 399.70001220703125 707.9000244140625 L 400.20001220703125 713.5999755859375 L 401.6000061035156 729.2000122070312 L 407.20001220703125 729.2000122070312 Z" class="st10" style="fill:#b27508"/><g><path d="M384.9,531l-24.2,25.4l-14.6-5.4l6.2,10.4l-11.7,15.4l-12.1-4.2l7.1,10.4l-17.1,17.5 C318.7,600.5,293.3,522.2,384.9,531z" class="st0" style="fill:#4f8739"/><path d="M384.9,531c0,0-55-67.9-109.1-13.7l23.7,4.2l12.1-9.6l0.4,12.5l15.4,2.1l10.4-11.2l-0.6,12.9L384.9,531z" class="st1" style="fill:#397221"/><path d="M384.9,531c0,0,5-92.4-74.1-72.5l21.7,18.7l17.5-2.5l-4.6,8.3l12.9,13.3l6.7-1.7v9.2L384.9,531z" class="st0" style="fill:#4f8739"/><path d="M384,531l24.2,25.4l14.6-5.4l-6.2,10.4l11.7,15.4l12.1-4.2l-7.1,10.4l17.1,17.5 C450.2,600.5,475.6,522.2,384,531z" class="st0" style="fill:#4f8739"/><path d="M384,531c0,0,55-67.9,109.1-13.7l-23.7,4.2l-12.1-9.6l-0.4,12.5l-15.4,2.1l-10.4-11.2l0.6,12.9L384,531z" class="st1" style="fill:#397221"/><path d="M384,531c0,0-5-92.4,74.1-72.5l-21.7,18.7l-17.5-2.5l4.6,8.3l-12.9,13.3l-6.7-1.7v9.2L384,531z" class="st0" style="fill:#4f8739"/></g><g><path d="M 392.20001220703125 560 L 377 560 L 377.5 554.2999877929688 L 391.70001220703125 554.2999877929688 Z" class="st10" style="fill:#b27508"/><path d="M 394.5 585.5999755859375 L 374.70001220703125 585.5999755859375 L 375.20001220703125 579.9000244140625 L 394 579.9000244140625 Z" class="st10" style="fill:#b27508"/><path d="M 372.3999938964844 611.2000122070312 L 396.70001220703125 611.2000122070312 L 396.20001220703125 605.5 L 372.8999938964844 605.5 Z" class="st10" style="fill:#b27508"/><path d="M 399 636.7999877929688 L 370.1000061035156 636.7999877929688 L 370.6000061035156 631.0999755859375 L 398.5 631.0999755859375 Z" class="st10" style="fill:#b27508"/><path d="M 367.8999938964844 662.4000244140625 L 401.29998779296875 662.4000244140625 L 400.79998779296875 656.7000122070312 L 368.3999938964844 656.7000122070312 Z" class="st10" style="fill:#b27508"/><path d="M 403.6000061035156 688 L 365.6000061035156 688 L 366.1000061035156 682.2999877929688 L 403.1000061035156 682.2999877929688 Z" class="st10" style="fill:#b27508"/><path d="M 405.29998779296875 707.9000244140625 L 363.79998779296875 707.9000244140625 L 363.29998779296875 713.5999755859375 L 405.79998779296875 713.5999755859375 Z" class="st10" style="fill:#b27508"/></g></g><path d="M0,614.5V900h1400V644.8C825.8,848.9,196.2,695.6,0,614.5z" class="st11" style="fill:#f7f18b"/><path d="M1400,644.8V900H0V614.5C196.2,695.6,825.8,848.9,1400,644.8z" class="st11" style="fill:#f7f18b"/><path d="M1400,770.8V900H0V740.5C196.2,821.6,825.8,974.9,1400,770.8z" class="st1" style="fill:#397221"/><path d="M 1012.7999877929688 579.5 L 1400 670.7000122070312 L 1400 579.5 Z" class="st11" style="fill:#f7f18b"/><g><path d="M1264.3,579.5c-3.4-9.8-12.8-16.9-23.8-16.9s-20.3,7.1-23.8,16.9H1264.3z" class="st1" style="fill:#397221"/><path d="M1169.7,579.5c-4.6-13.3-17.2-22.8-32.1-22.8s-27.5,9.5-32.1,22.8H1169.7z" class="st1" style="fill:#397221"/><path d="M1232.3,579.5c-3.5-10.1-13.1-17.4-24.4-17.4c-11.3,0-20.9,7.3-24.4,17.4H1232.3z" class="st0" style="fill:#4f8739"/></g><g><path d="M 1163.699951171875 759.5 L 1110.4000244140625 759.5 L 1112 741.0999755859375 L 1112.5999755859375 734.4000244140625 L 1114.699951171875 710.9000244140625 L 1115.300048828125 704.2000122070312 L 1117.300048828125 680.7000122070312 L 1117.9000244140625 674 L 1120 650.5 L 1120.5999755859375 643.7999877929688 L 1122.699951171875 620.2999877929688 L 1123.300048828125 613.7000122070312 L 1125.4000244140625 590.0999755859375 L 1126 583.5 L 1128.0999755859375 560 L 1128.699951171875 553.2999877929688 L 1131.0999755859375 525.4000244140625 L 1142.9000244140625 525.4000244140625 L 1145.4000244140625 553.2999877929688 L 1146 560 L 1148.0999755859375 583.5 L 1148.699951171875 590.0999755859375 L 1150.800048828125 613.7000122070312 L 1151.4000244140625 620.2999877929688 L 1153.5 643.7999877929688 L 1154.0999755859375 650.5 L 1156.0999755859375 674 L 1156.699951171875 680.7000122070312 L 1158.800048828125 704.2000122070312 L 1159.4000244140625 710.9000244140625 L 1161.5 734.4000244140625 L 1162.0999755859375 741.0999755859375 Z" class="st9" style="fill:#d3961c"/><path d="M 1162.0999755859375 741.0999755859375 L 1161.5 734.4000244140625 L 1159.4000244140625 710.9000244140625 L 1158.800048828125 704.2000122070312 L 1156.699951171875 680.7000122070312 L 1156.0999755859375 674 L 1154.0999755859375 650.5 L 1153.5 643.7999877929688 L 1151.4000244140625 620.2999877929688 L 1150.800048828125 613.7000122070312 L 1148.699951171875 590.0999755859375 L 1148.0999755859375 583.5 L 1146 560 L 1145.4000244140625 553.2999877929688 L 1142.9000244140625 525.4000244140625 L 1136.4000244140625 525.4000244140625 L 1138.800048828125 553.2999877929688 L 1139.4000244140625 560 L 1141.5 583.5 L 1142.0999755859375 590.0999755859375 L 1144.199951171875 613.7000122070312 L 1144.800048828125 620.2999877929688 L 1146.9000244140625 643.7999877929688 L 1147.5 650.5 L 1149.5 674 L 1150.0999755859375 680.7000122070312 L 1152.199951171875 704.2000122070312 L 1152.800048828125 710.9000244140625 L 1154.9000244140625 734.4000244140625 L 1155.5 741.0999755859375 L 1157.0999755859375 759.5 L 1163.699951171875 759.5 Z" class="st10" style="fill:#b27508"/><g><path d="M1137.4,525.7l-28.5,29.9l-17.2-6.4l7.4,12.3l-13.7,18.2l-14.2-4.9l8.3,12.3l-20.1,20.6 C1059.3,607.7,1029.4,515.4,1137.4,525.7z" class="st0" style="fill:#4f8739"/><path d="M1137.4,525.7c0,0-64.8-80-128.6-16.2l28,4.9l14.2-11.3l0.5,14.7l18.2,2.5l12.3-13.3l-0.7,15.2L1137.4,525.7 z" class="st1" style="fill:#397221"/><path d="M1137.4,525.7c0,0,5.9-109-87.4-85.4l25.5,22.1l20.6-2.9l-5.4,9.8L1106,485l7.9-2v10.8L1137.4,525.7z" class="st0" style="fill:#4f8739"/><path d="M1136.4,525.7l28.5,29.9l17.2-6.4l-7.4,12.3l13.7,18.2l14.2-4.9l-8.3,12.3l20.1,20.6 C1214.4,607.7,1244.4,515.4,1136.4,525.7z" class="st0" style="fill:#4f8739"/><path d="M1136.4,525.7c0,0,64.8-80,128.6-16.2l-28,4.9l-14.2-11.3l-0.5,14.7l-18.2,2.5l-12.3-13.3l0.7,15.2 L1136.4,525.7z" class="st1" style="fill:#397221"/><path d="M1136.4,525.7c0,0-5.9-109,87.4-85.4l-25.5,22.1l-20.6-2.9l5.4,9.8l-15.2,15.7l-7.9-2v10.8L1136.4,525.7z" class="st0" style="fill:#4f8739"/></g><g><path d="M 1146 560 L 1128.0999755859375 560 L 1128.699951171875 553.2999877929688 L 1145.4000244140625 553.2999877929688 Z" class="st10" style="fill:#b27508"/><path d="M 1148.699951171875 590.0999755859375 L 1125.4000244140625 590.0999755859375 L 1126 583.5 L 1148.0999755859375 583.5 Z" class="st10" style="fill:#b27508"/><path d="M 1122.699951171875 620.2999877929688 L 1151.4000244140625 620.2999877929688 L 1150.800048828125 613.7000122070312 L 1123.300048828125 613.7000122070312 Z" class="st10" style="fill:#b27508"/><path d="M 1154.0999755859375 650.5 L 1120 650.5 L 1120.5999755859375 643.7999877929688 L 1153.5 643.7999877929688 Z" class="st10" style="fill:#b27508"/><path d="M 1117.300048828125 680.7000122070312 L 1156.699951171875 680.7000122070312 L 1156.0999755859375 674 L 1117.9000244140625 674 Z" class="st10" style="fill:#b27508"/><path d="M 1159.4000244140625 710.9000244140625 L 1114.699951171875 710.9000244140625 L 1115.300048828125 704.2000122070312 L 1158.800048828125 704.2000122070312 Z" class="st10" style="fill:#b27508"/><path d="M 1161.5 734.4000244140625 L 1112.5999755859375 734.4000244140625 L 1112 741.0999755859375 L 1162.0999755859375 741.0999755859375 Z" class="st10" style="fill:#b27508"/></g></g><path d="M1264.3,579.5c0,0-20.8-29.5-17.1-28.8s17,16.8,17,16.8s-4.8-19.8-3-18.2s10.8,17,10.8,17s10.2-15.5,12-12.2 s-7.5,18-7.5,18s9.2-7.5,9-4.8s-7.8,11.8-7.8,11.8L1264.3,579.5z" class="st0" style="fill:#4f8739"/><path d="M1112.4,579.5c2-2.2,9.1-10.2,9.5-11.5c0.4-1.6-9.6,1.2-9.6,1.2s8.2-9,8.3-11.3s-13.1,9.1-13.1,9.1 s-0.2-13.8-2.3-15c-2.1-1.2-4.4,15.1-4.4,15.1s-8.4-10.2-10.3-11.2c-1.9-1,7.9,17,7.9,17s-6.2-2.5-9.3-4c-2.9-1.5,6,9.5,6.9,10.6 H1112.4z" class="st0" style="fill:#4f8739"/><g><path d="M 1325.5 590 L 1299.5 590 L 1300.300048828125 581 L 1300.5 577.7999877929688 L 1301.5999755859375 566.2999877929688 L 1301.9000244140625 563 L 1302.9000244140625 551.5 L 1303.199951171875 548.2999877929688 L 1304.199951171875 536.7999877929688 L 1304.5 533.5 L 1305.5 522 L 1305.800048828125 518.7000122070312 L 1306.800048828125 507.20001220703125 L 1307.0999755859375 504 L 1308.0999755859375 492.5 L 1308.4000244140625 489.20001220703125 L 1309.5999755859375 475.6000061035156 L 1315.4000244140625 475.6000061035156 L 1316.5999755859375 489.20001220703125 L 1316.9000244140625 492.5 L 1317.9000244140625 504 L 1318.199951171875 507.20001220703125 L 1319.199951171875 518.7000122070312 L 1319.5 522 L 1320.5 533.5 L 1320.800048828125 536.7999877929688 L 1321.800048828125 548.2999877929688 L 1322.0999755859375 551.5 L 1323.199951171875 563 L 1323.4000244140625 566.2999877929688 L 1324.5 577.7999877929688 L 1324.800048828125 581 Z" class="st9" style="fill:#d3961c"/><path d="M 1324.800048828125 581 L 1324.5 577.7999877929688 L 1323.4000244140625 566.2999877929688 L 1323.199951171875 563 L 1322.0999755859375 551.5 L 1321.800048828125 548.2999877929688 L 1320.800048828125 536.7999877929688 L 1320.5 533.5 L 1319.5 522 L 1319.199951171875 518.7000122070312 L 1318.199951171875 507.20001220703125 L 1317.9000244140625 504 L 1316.9000244140625 492.5 L 1316.5999755859375 489.20001220703125 L 1315.4000244140625 475.6000061035156 L 1312.199951171875 475.6000061035156 L 1313.4000244140625 489.20001220703125 L 1313.699951171875 492.5 L 1314.699951171875 504 L 1315 507.20001220703125 L 1316 518.7000122070312 L 1316.300048828125 522 L 1317.300048828125 533.5 L 1317.5999755859375 536.7999877929688 L 1318.5999755859375 548.2999877929688 L 1318.9000244140625 551.5 L 1319.9000244140625 563 L 1320.199951171875 566.2999877929688 L 1321.199951171875 577.7999877929688 L 1321.5 581 L 1322.300048828125 590 L 1325.5 590 Z" class="st10" style="fill:#b27508"/><g><path d="M1312.7,475.8l-13.9,14.6l-8.4-3.1l3.6,6l-6.7,8.9l-7-2.4l4.1,6l-9.8,10.1 C1274.5,515.8,1259.9,470.7,1312.7,475.8z" class="st0" style="fill:#4f8739"/><path d="M1312.7,475.8c0,0-31.7-39.1-62.9-7.9l13.7,2.4l7-5.5l0.2,7.2l8.9,1.2l6-6.5l-0.3,7.4L1312.7,475.8z" class="st1" style="fill:#397221"/><path d="M1312.7,475.8c0,0,2.9-53.3-42.7-41.8l12.5,10.8l10.1-1.4l-2.6,4.8l7.4,7.7l3.8-1v5.3L1312.7,475.8z" class="st0" style="fill:#4f8739"/><path d="M1312.2,475.8l13.9,14.6l8.4-3.1l-3.6,6l6.7,8.9l7-2.4l-4.1,6l9.8,10.1 C1350.3,515.8,1365,470.7,1312.2,475.8z" class="st0" style="fill:#4f8739"/><path d="M1312.2,475.8c0,0,31.7-39.1,62.9-7.9l-13.7,2.4l-7-5.5l-0.2,7.2l-8.9,1.2l-6-6.5l0.3,7.4L1312.2,475.8z" class="st1" style="fill:#397221"/><path d="M1312.2,475.8c0,0-2.9-53.3,42.7-41.8l-12.5,10.8l-10.1-1.4l2.6,4.8l-7.4,7.7l-3.8-1v5.3L1312.2,475.8z" class="st0" style="fill:#4f8739"/></g><g><path d="M 1316.9000244140625 492.5 L 1308.0999755859375 492.5 L 1308.4000244140625 489.20001220703125 L 1316.5999755859375 489.20001220703125 Z" class="st10" style="fill:#b27508"/><path d="M 1318.199951171875 507.20001220703125 L 1306.800048828125 507.20001220703125 L 1307.0999755859375 504 L 1317.9000244140625 504 Z" class="st10" style="fill:#b27508"/><path d="M 1305.5 522 L 1319.5 522 L 1319.199951171875 518.7000122070312 L 1305.800048828125 518.7000122070312 Z" class="st10" style="fill:#b27508"/><path d="M 1320.800048828125 536.7999877929688 L 1304.199951171875 536.7999877929688 L 1304.5 533.5 L 1320.5 533.5 Z" class="st10" style="fill:#b27508"/><path d="M 1302.9000244140625 551.5 L 1322.0999755859375 551.5 L 1321.800048828125 548.2999877929688 L 1303.199951171875 548.2999877929688 Z" class="st10" style="fill:#b27508"/><path d="M 1323.4000244140625 566.2999877929688 L 1301.5999755859375 566.2999877929688 L 1301.9000244140625 563 L 1323.199951171875 563 Z" class="st10" style="fill:#b27508"/><path d="M 1324.5 577.7999877929688 L 1300.5 577.7999877929688 L 1300.300048828125 581 L 1324.800048828125 581 Z" class="st10" style="fill:#b27508"/></g></g><path d="M101.9,818.8c0,0-42.3-11.1-38.1-53.9c0,0,32.1,23.7,45.4,21.6s-59.6-31.2-32.5-66c0,0,27.4,42.2,41.4,38.8 c14-3.5-55.3-43.5-21.2-65.2c0,0,22.2,38.1,28.4,36.4c6.2-1.7-26.1-38.5-9.3-46.2s39.2-16.2,39.2-16.2s22.2,35.6,22.4,45.1 c0.2,9.5-12.7,21.3-30.4,35.2c-6.3,4.9,28.7-5.1,41.4-28.4c0,0,7.4,25.3,4.2,32.8c-3.1,7.5-52.2,28.7-47.1,32.8 c5.1,4.1,34.3-7.9,49.8-22.5c0,0-10.1,61.8-30.3,61.2c-20.2-0.6-36.5-23.8-36.5-23.8S114.7,822.5,101.9,818.8z" class="st1" style="fill:#397221"/><path d="M1182.7,880.7c0,0-30.6,6.6-41.7-22.1c0,0,28.1,4.7,35.9-0.9c7.8-5.6-48.1-0.7-42-31.6 c0,0,31.1,18.1,38.9,11.4c7.8-6.7-49.3-9.9-34.6-34.7c0,0,26.5,17.1,29.9,14.1c3.4-3.1-29-16.1-20.8-26.5c8.2-10.3,19.8-23,19.8-23 s25.6,15.5,28.8,21.6c3.2,6-1.2,17.7-8,32.2c-2.4,5.1,16.7-12.5,17.2-31.5c0,0,12.8,13.7,13.3,19.6c0.4,5.8-24,35.1-19.4,36.1 s19.4-16.1,24.5-30.4c0,0,13.5,42.7,0.4,48.8c-13.1,6.2-30.9-3.4-30.9-3.4S1192,878.9,1182.7,880.7z" class="st1" style="fill:#397221"/><path d="M696.6,881.2c0.2,1.3,0.5,2.6,0.8,3.8h10C701.3,883.1,696.6,881.2,696.6,881.2z" class="st1" style="fill:#397221"/><path d="M1400,393.8v31.9c-242.8-5.4-710.9-16.4-724.2-20.9C662.3,400.3,1153.7,395.8,1400,393.8z" class="st5" style="opacity:.41;fill:#fff"/><path d="M1400,872.9V771.2c-4.4,0.9-7.2,1.7-7.2,1.7c2.7-3.8,5-6.5,7.2-8.9v-21.9c-1.6-1.7-3.2-3.4-4.9-5 c-13.5,5.8-27.9,13.2-27.9,13.2c4.2-9.7,10.1-17.7,15.7-23.8c-5.1-4-10.4-7.5-15.7-10.6c-12,8.1-23.6,16.8-23.6,16.8 c2.2-9.2,5.9-17.4,9.9-24.2c-6.6-3.2-13-5.8-19-7.9c-6.8,4.8-12.1,8.8-12.1,8.8c1-4.1,2.3-8,3.9-11.5c-15.3-4.7-26-6-26-6 c-2,8.8-3.5,17.3-4.4,25.3c4.9-0.6,10.3-0.8,15.8-0.2c0,0-8.3,5.5-16.9,11.8c-0.4,6.2-0.4,12.2-0.1,18c6.7-1,14.3-1.4,22.1-0.6 c0,0-10.2,6.8-20.8,14.5c1.3,9.7,3.6,18.6,6.5,26.7c7.9-3.5,18.1-6.8,29.4-7.6c0,0-12.5,11.9-22.7,23 c10.5,20.2,25.7,35.2,41.5,46.3c5-5.3,11.5-10.9,19.5-15.2c0,0-4.4,10.9-8.3,22.4c5.3,3.1,10.5,5.8,15.6,8.1 c4.3-6.6,10-13.7,17.4-19.9c0,0-2.3,12.4-4.2,25.3C1393.9,870.9,1397,872,1400,872.9z" class="st1" style="fill:#397221"/><path d="M414,862.6l40.3,1.8c-15.7-24-43.7-55.9-88.5-72.6C365.8,791.9,396.9,825.4,414,862.6z" class="st1" style="fill:#397221"/><path d="M1279.1,848l45.9,2c-17.8-27.3-49.8-63.7-100.9-82.7C1224.2,767.4,1259.6,805.6,1279.1,848z" class="st1" style="fill:#397221"/><path d="M538.2,871.2l-33.4,1.5c13-19.9,36.2-46.3,73.4-60.1C578.2,812.6,552.4,840.4,538.2,871.2z" class="st1" style="fill:#397221"/><path d="M826.2,881.2l-33.4,1.5c13-19.9,36.2-46.3,73.4-60.1C866.2,822.6,840.4,850.4,826.2,881.2z" class="st1" style="fill:#397221"/><path d="M883.6,871l-15.8,0.7c6.1-9.4,17.1-21.9,34.7-28.4C902.5,843.3,890.3,856.4,883.6,871z" class="st1" style="fill:#397221"/><path d="M507.3,866.8l-42.5,1.9c16.5-25.3,46-58.9,93.3-76.5C558.1,792.2,525.4,827.6,507.3,866.8z" class="st1" style="fill:#397221"/><path d="M984.5,891.5l-42.5,1.9c16.5-25.3,46-58.9,93.3-76.5C1035.3,816.9,1002.5,852.3,984.5,891.5z" class="st1" style="fill:#397221"/><path d="M604,886.8l20,0.4c-7.8-24.7-21.7-57.3-44-73.2C580,814,595.4,848.2,604,886.8z" class="st1" style="fill:#397221"/><path d="M1085.9,871.7l-34.1,1.5c13.3-20.3,37-47.4,75-61.4C1126.8,811.8,1100.5,840.2,1085.9,871.7z" class="st1" style="fill:#397221"/><path d="M298.3,857.8l-42.5,1.9c16.5-25.3,46-58.9,93.3-76.5C349.1,783.2,316.4,818.6,298.3,857.8z" class="st1" style="fill:#397221"/><path d="M55.2,785.7L98.8,801c-9.2-31.5-29.3-75.8-72.9-108.8C25.8,692.1,48.7,739.2,55.2,785.7z" class="st1" style="fill:#397221"/><path d="M663.4,884.8l18.2,0.8c-37-64.9-77.9-81.6-77.9-81.6C624.2,819.3,649.1,859.6,663.4,884.8z" class="st1" style="fill:#397221"/><path d="M939,879.6l16.6,7.5c-10.2-74-42-104.7-42-104.7C927,804.3,935.1,851,939,879.6z" class="st1" style="fill:#397221"/><path d="M410.9,864.2l18.4,0.8c-32.8-37.9-60.2-49-60.2-49C382.4,825.9,397.2,844.4,410.9,864.2z" class="st1" style="fill:#397221"/><path d="M369,850.3l12,0.5C361.6,824,345,814,345,814C353.2,822.4,361.4,835.6,369,850.3z" class="st1" style="fill:#397221"/><path d="M1035.1,891.9c0,0-68.7-60.7-56.3-57.8c12.4,2.9,53.9,39.2,53.9,39.2s-62.7-80.6-55.5-79.6 c7.2,1,43.3,40.8,43.3,40.8s-34.7-72-27.7-72.1c7,0,23.5,35.3,23.5,35.3s-11.5-82.8-2.9-83c8.6-0.3,19.3,84.2,19.3,84.2 s15.4-53.4,19.3-52.9c3.9,0.5-6.7,74.3-6.7,74.3s18-37,24.1-32.6c6.1,4.4-18.8,62.6-18.8,62.6s34.5-38.6,34.7-31 C1085.6,826.9,1052.8,918.4,1035.1,891.9z" class="st1" style="fill:#397221"/><path d="M208.6,844.9c0,0-15-65.4-8.9-58.4s15.4,46.3,15.4,46.3s-3-74.7,0.9-71s8.4,42.8,8.4,42.8s10-57.7,14.2-54.7 s-1.1,31-1.1,31s28.4-54.2,33.7-50.7c5.3,3.5-24.4,58.4-24.4,58.4s31.9-25.2,34-23.3c2.1,1.9-35.6,41.4-35.6,41.4 s26.5-14.4,28.2-9.1c1.8,5.3-37.9,29.3-37.9,29.3s37-8.2,33.8-3.7C266.4,827.8,207.8,868.3,208.6,844.9z" class="st1" style="fill:#397221"/><path d="M815.1,883c1.8-9.9,2.7-17.8,2.3-19.6c-0.8-3.8-10.1,9.6-16.6,19.6H815.1z" class="st1" style="fill:#397221"/><path d="M796.7,883c2.9-14.6,7.5-40.4,3.6-42.2c-5.5-2.6-14.3,29.2-14.3,29.2s-2.5-59.7-5.6-59.5S773,855,773,855 s-20.8-65.1-27.6-63.6c-6.8,1.5,14.4,65.1,14.4,65.1s-18.1-25.5-23.7-24.4c-4.9,0.9,24.4,41.7,31,50.9H796.7z" class="st1" style="fill:#397221"/><path d="M750.3,883h15.8c-7.9-5.9-32.8-24.2-37.7-24C725.7,859.1,737.1,870.6,750.3,883z" class="st1" style="fill:#397221"/><path d="M1400,258.1v23.6c-124.2-2.9-830.2-19.3-843.9-22.1C541.8,256.7,1329.3,258,1400,258.1z" class="st5" style="opacity:.41;fill:#fff"/><path d="M1400,263.8c-4-1.9-8.5-2.9-13.2-2.9c-7.6,0-14.5,2.7-19.9,7.2c-5.1-5.4-12-9-19.8-9.7 c0.5-2.2,0.8-4.5,0.8-6.9c0-17.2-14-31.2-31.2-31.2c-1.3,0-2.7,0.1-4,0.3c-4.8-13.7-17.9-23.5-33.2-23.5 c-17.1,0-31.3,12.2-34.5,28.3c-2.9-1.2-6.1-1.9-9.4-1.9c-8.2,0-15.3,4.1-19.7,10.3c-1.6-0.3-3.3-0.5-5-0.5 c-13.7,0-25.1,10.3-26.8,23.5c-0.1,0-0.3,0-0.4,0c-8.5,0-15.8,4.7-19.6,11.7c-4.3-2.2-9.2-3.5-14.3-3.5c-13.3,0-24.7,8.4-29.2,20.1 H1400V263.8z" class="st12" style="fill:#fff"/><path d="M899.1,170.5c-2-9.1-10.2-15.9-19.8-15.9c-4.9,0-9.5,1.8-13,4.7c-3.3-3.5-7.9-5.9-13-6.3 c0.3-1.5,0.5-3,0.5-4.5c0-11.2-9.1-20.3-20.3-20.3c-0.9,0-1.7,0.1-2.6,0.2c-3.1-8.9-11.7-15.4-21.7-15.4c-11.2,0-20.5,8-22.5,18.5 c-1.9-0.8-4-1.3-6.1-1.3c-5.3,0-10,2.7-12.8,6.7c-1.1-0.2-2.2-0.3-3.3-0.3c-9,0-16.4,6.7-17.5,15.4c-0.1,0-0.2,0-0.3,0 c-5.5,0-10.3,3.1-12.8,7.6c-2.8-1.5-6-2.3-9.4-2.3c-8.7,0-16.1,5.5-19,13.1H899.1z" class="st12" style="fill:#fff"/><path d="M0,270.1h297.4c-3.8-16.9-18.9-29.6-37-29.6c-9.2,0-17.7,3.3-24.3,8.8c-6.2-6.6-14.7-10.9-24.2-11.8 c0.6-2.7,0.9-5.5,0.9-8.4c0-19.5-22.5-35.6-42.6-37.7c0,0,0,0-0.2,0.1c0,0,0-0.1,0-0.1c-0.4,0-0.8-0.1-1.3-0.1c0.5,0,1,0.1,1.2,0.1 c-5.9-16.6-21.8-28.5-40.4-28.5c-20.8,0-38.2,14.8-42,34.5c-3.5-1.5-7.4-2.3-11.4-2.3c-9.9,0-18.7,5-23.9,12.6 c-2-0.4-4-0.6-6.1-0.6c-16.7,0-30.5,12.5-32.6,28.6c-0.2,0-0.3,0-0.5,0c-4.7,0-9.1,1.2-13,3.3V270.1z" class="st12" style="fill:#fff"/><path d="M577.1,353.1c-4.2-13.7-17-23.8-32.1-23.8c-1.6,0-3.2,0.1-4.8,0.3c-4.8-12.6-17-21.6-31.3-21.6 c-16.7,0-30.6,12.2-33.1,28.2c-8.9,1.7-16.2,8.2-18.9,16.7H577.1z" class="st12" style="fill:#fff"/><path d="M953,443.5c-1.6-18.6-17.3-33.2-36.3-33.2c-8.6,0-16.5,3-22.7,8c-6.6-9.2-17.4-15.1-29.5-15.1 c-6.1,0-11.8,1.5-16.9,4.1c-3.9-15.9-18.3-27.8-35.4-27.8c-1.3,0-2.7,0.1-4,0.2c-2.3-17.9-17.6-31.7-36.1-31.7 c-20.1,0-36.4,16.3-36.4,36.4c0,3.9,0.6,7.7,1.8,11.2c-3.5-2.6-7.9-4.1-12.6-4.1c-11.1,0-20.2,8.4-21.4,19.2 c-1.6-0.4-3.4-0.6-5.1-0.6c-8.8,0-16.4,5.3-19.7,12.9c-5.2-2.9-11.2-4.5-17.6-4.5c-16.1,0-29.7,10.4-34.6,24.9H953z" class="st12" style="fill:#fff"/></g></svg>