<?xml version="1.0" encoding="utf-8"?>
<svg id="master-artboard" viewBox="0 0 1400 980" version="1.1" xmlns="http://www.w3.org/2000/svg" x="0px" y="0px" width="1400px" height="980px" enable-background="new 0 0 1400 980" xmlns:xlink="http://www.w3.org/1999/xlink">
<g transform="matrix(1, 0, 0, 1, 0, 0)">
		<defs>
			<path d="M -15 -10.5 H 1415 V 990.5 H -15 V -10.5 Z" id="SVGID_1_"/>
		</defs>
		<clipPath id="SVGID_2_">
			<use overflow="visible" xlink:href="#SVGID_1_"/>
		</clipPath>
		<path d="M -15 -10.5 H 1415 V 990.5 H -15 V -10.5 Z" clip-path="url(#SVGID_2_)" fill="#D7EAB5"/>
		<g clip-path="url(#SVGID_2_)">
			<path d="M 834.676025 455.593994 L 834.676025 393.141998 L 841.367004 393.141998 L 819.062012 368.605988 L 801.218994 393.141998 L 807.909973 393.141998 L 807.909973 415.446014 L 743.22699 415.446014 L 743.22699 395.372009 L 707.539001 395.372009 L 707.539001 415.446014 L 662.929993 415.446014 L 662.929993 402.062988 L 618.320984 402.062988 L 618.320984 366.376007 L 575.942017 366.376007 L 575.942017 408.753998 L 375.201996 408.753998" fill="none" stroke="#FFFFFF" stroke-width="2" stroke-miterlimit="10"/>
			<path d="M 830.21503 404.294006 A 8.922 8.922 0 0 1 821.29303 413.216006 A 8.922 8.922 0 0 1 812.37103 404.294006 A 8.922 8.922 0 0 1 821.29303 395.372006 A 8.922 8.922 0 0 1 830.21503 404.294006 Z" fill="#FFFFFF"/>
			<path fill="#B4D87C" d="M321.671,426.598c0,0,785.12,57.992,860.955,13.383c75.836-44.609,265.425,2.23,265.425,2.23V580.5&#10;&#9;&#9;&#9;&#9;L279.292,607.265L321.671,426.598z"/>
			<path fill="#9BC663" d="M-43.265,323.66c0,0,476.458,24.873,744.113,299.218c0,0-364.936,55.424-753.035-15.95&#10;&#9;&#9;&#9;&#9;C-52.187,606.928-134.714,397.265-43.265,323.66z"/>
			<path d="M -62.042999 581.61499 H 1446.936005 V 1009.906982 H -62.042999 V 581.61499 Z" fill="#9BC663"/>
			<g>
				<path fill="#E7E8E0" d="M1566.526,499.753l-2.601-2.711l-44.717,42.892l-29.216-28.024l12.673-12.156l-2.601-2.711&#10;&#9;&#9;&#9;&#9;&#9;l-12.786,12.265l-12.787-12.265l-2.601,2.711l12.674,12.156l-29.216,28.024l-29.217-28.024l12.674-12.156l-2.602-2.711&#10;&#9;&#9;&#9;&#9;&#9;l-12.786,12.265l-12.786-12.265l-2.602,2.711l12.674,12.156l-29.216,28.024l-29.217-28.024l12.674-12.156l-2.601-2.711&#10;&#9;&#9;&#9;&#9;&#9;l-12.787,12.265l-12.786-12.265l-2.601,2.711l12.674,12.156l-29.217,28.024l-29.217-28.024l12.674-12.156l-2.601-2.711&#10;&#9;&#9;&#9;&#9;&#9;l-12.787,12.265l-12.786-12.265l-2.601,2.711l12.674,12.156l-29.217,28.024l-29.216-28.024l12.673-12.156l-2.601-2.711&#10;&#9;&#9;&#9;&#9;&#9;l-12.786,12.265l-12.786-12.265l-2.602,2.711l12.674,12.156l-29.217,28.024l-29.216-28.024l12.673-12.156l-2.601-2.711&#10;&#9;&#9;&#9;&#9;&#9;l-12.786,12.265l-12.786-12.265l-2.601,2.711l12.673,12.156l-29.216,28.024l-29.217-28.024l12.674-12.156l-2.602-2.711&#10;&#9;&#9;&#9;&#9;&#9;l-12.786,12.265l-12.786-12.265l-2.601,2.711l12.674,12.156l-29.217,28.024l-29.217-28.024l12.674-12.156l-2.601-2.711&#10;&#9;&#9;&#9;&#9;&#9;l-12.786,12.265l-12.787-12.265l-2.601,2.711l12.674,12.156l-29.217,28.024l-29.216-28.024l12.673-12.156l-2.601-2.711&#10;&#9;&#9;&#9;&#9;&#9;l-12.786,12.265l-12.786-12.265l-2.602,2.711l12.674,12.156l-29.217,28.024l-29.216-28.024l12.674-12.156l-2.602-2.711&#10;&#9;&#9;&#9;&#9;&#9;l-12.786,12.265l-12.786-12.265l-2.602,2.711l12.674,12.156l-29.216,28.024l-29.217-28.024l12.674-12.156l-2.601-2.711&#10;&#9;&#9;&#9;&#9;&#9;l-12.787,12.265l-12.786-12.265l-2.601,2.711l12.674,12.156l-29.217,28.024l-29.217-28.024l12.674-12.156l-2.601-2.711&#10;&#9;&#9;&#9;&#9;&#9;l-12.786,12.265l-12.786-12.265l-2.602,2.711l12.674,12.156l-29.217,28.024l-44.716-42.892l-2.602,2.711l44.604,42.783&#10;&#9;&#9;&#9;&#9;&#9;l-44.604,42.783l2.602,2.711l44.716-42.891l29.217,28.023l-12.674,12.156l2.602,2.711l12.786-12.265l12.786,12.265l2.601-2.711&#10;&#9;&#9;&#9;&#9;&#9;l-12.674-12.156l29.217-28.023l29.217,28.023l-12.674,12.156l2.601,2.711l12.786-12.265l12.787,12.265l2.601-2.711&#10;&#9;&#9;&#9;&#9;&#9;l-12.674-12.156l29.217-28.023l29.216,28.023l-12.674,12.156l2.602,2.711l12.786-12.265l12.786,12.265l2.602-2.711&#10;&#9;&#9;&#9;&#9;&#9;l-12.674-12.156l29.216-28.023l29.217,28.023l-12.674,12.156l2.602,2.711l12.786-12.265l12.786,12.265l2.601-2.711&#10;&#9;&#9;&#9;&#9;&#9;l-12.673-12.156l29.216-28.023l29.217,28.023l-12.674,12.156l2.601,2.711l12.787-12.265l12.786,12.265l2.601-2.711&#10;&#9;&#9;&#9;&#9;&#9;l-12.674-12.156l29.217-28.023l29.217,28.023l-12.674,12.156l2.601,2.711l12.786-12.265l12.786,12.265l2.602-2.711&#10;&#9;&#9;&#9;&#9;&#9;l-12.674-12.156l29.217-28.023l29.216,28.023l-12.673,12.156l2.601,2.711l12.786-12.265l12.786,12.265l2.601-2.711&#10;&#9;&#9;&#9;&#9;&#9;l-12.673-12.156l29.216-28.023l29.217,28.023l-12.674,12.156l2.602,2.711l12.786-12.265l12.786,12.265l2.601-2.711&#10;&#9;&#9;&#9;&#9;&#9;l-12.673-12.156l29.216-28.023l29.217,28.023l-12.674,12.156l2.601,2.711l12.786-12.265l12.787,12.265l2.601-2.711&#10;&#9;&#9;&#9;&#9;&#9;l-12.674-12.156l29.217-28.023l29.217,28.023l-12.674,12.156l2.601,2.711l12.786-12.265l12.787,12.265l2.601-2.711&#10;&#9;&#9;&#9;&#9;&#9;l-12.674-12.156l29.217-28.023l29.216,28.023l-12.674,12.156l2.602,2.711l12.786-12.265l12.786,12.265l2.602-2.711&#10;&#9;&#9;&#9;&#9;&#9;l-12.674-12.156l29.217-28.023l29.216,28.023l-12.674,12.156l2.601,2.711l12.787-12.265l12.786,12.265l2.601-2.711&#10;&#9;&#9;&#9;&#9;&#9;l-12.673-12.156l29.216-28.023l44.717,42.891l2.601-2.711l-44.604-42.783L1566.526,499.753z M784.818,570.561l-29.217-28.024&#10;&#9;&#9;&#9;&#9;&#9;l29.217-28.023l29.216,28.023L784.818,570.561z M848.678,570.561l-29.216-28.024l29.216-28.023l29.217,28.023L848.678,570.561z&#10;&#9;&#9;&#9;&#9;&#9; M912.538,570.561l-29.217-28.024l29.217-28.023l29.217,28.023L912.538,570.561z M976.398,570.561l-29.217-28.024l29.217-28.023&#10;&#9;&#9;&#9;&#9;&#9;l29.217,28.023L976.398,570.561z M1040.259,570.561l-29.217-28.024l29.217-28.023l29.216,28.023L1040.259,570.561z&#10;&#9;&#9;&#9;&#9;&#9; M1104.118,570.561l-29.216-28.024l29.216-28.023l29.217,28.023L1104.118,570.561z M1167.979,570.561l-29.217-28.024&#10;&#9;&#9;&#9;&#9;&#9;l29.217-28.023l29.217,28.023L1167.979,570.561z M1231.839,570.561l-29.217-28.024l29.217-28.023l29.216,28.023&#10;&#9;&#9;&#9;&#9;&#9;L1231.839,570.561z M1295.698,570.561l-29.216-28.024l29.216-28.023l29.217,28.023L1295.698,570.561z M1359.559,570.561&#10;&#9;&#9;&#9;&#9;&#9;l-29.217-28.024l29.217-28.023l29.217,28.023L1359.559,570.561z M1423.419,570.561l-29.217-28.024l29.217-28.023l29.217,28.023&#10;&#9;&#9;&#9;&#9;&#9;L1423.419,570.561z M1487.279,570.561l-29.217-28.024l29.217-28.023l29.216,28.023L1487.279,570.561z"/>
				<path fill="#83A54E" d="M692.188,487.936v107.062h892.182V487.936H692.188z M1559.835,572.693H712.262v-60.223h847.573V572.693z&#10;&#9;&#9;&#9;&#9;&#9;"/>
			</g>
			<g>
				<path fill="#E7E8E0" d="M558.36,499.753l-2.601-2.711l-44.716,42.892l-29.216-28.024l12.673-12.156l-2.601-2.711l-12.786,12.265&#10;&#9;&#9;&#9;&#9;&#9;l-12.786-12.265l-2.601,2.711l12.673,12.156l-29.216,28.024l-29.216-28.024l12.674-12.156l-2.601-2.711l-12.786,12.265&#10;&#9;&#9;&#9;&#9;&#9;l-12.787-12.265l-2.601,2.711l12.673,12.156l-29.216,28.024l-29.217-28.024l12.674-12.156l-2.601-2.711l-12.787,12.265&#10;&#9;&#9;&#9;&#9;&#9;l-12.786-12.265l-2.601,2.711l12.674,12.156l-29.217,28.024l-29.216-28.024l12.674-12.156l-2.601-2.711l-12.786,12.265&#10;&#9;&#9;&#9;&#9;&#9;l-12.787-12.265l-2.601,2.711l12.673,12.156l-29.216,28.024l-29.216-28.024l12.673-12.156l-2.601-2.711l-12.787,12.265&#10;&#9;&#9;&#9;&#9;&#9;l-12.786-12.265l-2.601,2.711l12.673,12.156l-29.216,28.024l-29.217-28.024l12.674-12.156l-2.601-2.711l-12.786,12.265&#10;&#9;&#9;&#9;&#9;&#9;l-12.787-12.265l-2.601,2.711l12.673,12.156l-29.216,28.024l-29.216-28.024l12.673-12.156l-2.601-2.711l-12.786,12.265&#10;&#9;&#9;&#9;&#9;&#9;l-12.786-12.265l-2.601,2.711l12.674,12.156l-29.217,28.024l-29.216-28.024l12.674-12.156l-2.601-2.711l-12.786,12.265&#10;&#9;&#9;&#9;&#9;&#9;l-12.786-12.265l-2.601,2.711l12.673,12.156L0.163,539.934l-29.216-28.024l12.673-12.156l-2.601-2.711l-12.787,12.265&#10;&#9;&#9;&#9;&#9;&#9;l-12.786-12.265l-2.601,2.711l12.674,12.156l-29.216,28.024l-29.217-28.024l12.674-12.156l-2.601-2.711l-12.786,12.265&#10;&#9;&#9;&#9;&#9;&#9;l-12.787-12.265l-2.601,2.711l12.673,12.156l-29.216,28.024l-29.216-28.024l12.673-12.156l-2.601-2.711l-12.787,12.265&#10;&#9;&#9;&#9;&#9;&#9;l-12.786-12.265l-2.601,2.711l12.674,12.156l-29.216,28.024l-29.217-28.024l12.674-12.156l-2.601-2.711l-12.786,12.265&#10;&#9;&#9;&#9;&#9;&#9;l-12.787-12.265l-2.601,2.711l12.673,12.156l-29.216,28.024l-44.716-42.892l-2.601,2.711l44.604,42.783l-44.604,42.783&#10;&#9;&#9;&#9;&#9;&#9;l2.601,2.711l44.716-42.891l29.216,28.023l-12.673,12.156l2.601,2.711l12.787-12.265l12.786,12.265l2.601-2.711l-12.674-12.156&#10;&#9;&#9;&#9;&#9;&#9;l29.217-28.023l29.216,28.023l-12.674,12.156l2.601,2.711l12.786-12.265l12.787,12.265l2.601-2.711l-12.673-12.156&#10;&#9;&#9;&#9;&#9;&#9;l29.216-28.023l29.216,28.023l-12.673,12.156l2.601,2.711l12.787-12.265l12.786,12.265l2.601-2.711l-12.674-12.156&#10;&#9;&#9;&#9;&#9;&#9;l29.217-28.023l29.216,28.023l-12.674,12.156l2.601,2.711l12.786-12.265l12.787,12.265l2.601-2.711l-12.673-12.156L0.163,545.14&#10;&#9;&#9;&#9;&#9;&#9;l29.216,28.023l-12.673,12.156l2.601,2.711l12.786-12.265l12.786,12.265l2.601-2.711l-12.674-12.156l29.216-28.023&#10;&#9;&#9;&#9;&#9;&#9;l29.217,28.023l-12.674,12.156l2.601,2.711l12.786-12.265l12.786,12.265l2.601-2.711l-12.673-12.156l29.216-28.023&#10;&#9;&#9;&#9;&#9;&#9;l29.216,28.023l-12.673,12.156l2.601,2.711l12.787-12.265l12.786,12.265l2.601-2.711l-12.674-12.156l29.217-28.023&#10;&#9;&#9;&#9;&#9;&#9;l29.216,28.023l-12.673,12.156l2.601,2.711l12.786-12.265l12.787,12.265l2.601-2.711l-12.673-12.156l29.216-28.023&#10;&#9;&#9;&#9;&#9;&#9;l29.216,28.023l-12.673,12.156l2.601,2.711l12.787-12.265l12.786,12.265l2.601-2.711l-12.674-12.156l29.216-28.023&#10;&#9;&#9;&#9;&#9;&#9;l29.217,28.023l-12.674,12.156l2.601,2.711l12.786-12.265l12.787,12.265l2.601-2.711l-12.674-12.156l29.217-28.023&#10;&#9;&#9;&#9;&#9;&#9;l29.216,28.023l-12.673,12.156l2.601,2.711l12.787-12.265l12.786,12.265l2.601-2.711l-12.674-12.156l29.216-28.023&#10;&#9;&#9;&#9;&#9;&#9;l29.216,28.023l-12.673,12.156l2.601,2.711l12.786-12.265l12.786,12.265l2.601-2.711l-12.673-12.156l29.216-28.023&#10;&#9;&#9;&#9;&#9;&#9;l44.716,42.891l2.601-2.711l-44.604-42.783L558.36,499.753z M-223.348,570.561l-29.216-28.024l29.216-28.023l29.216,28.023&#10;&#9;&#9;&#9;&#9;&#9;L-223.348,570.561z M-159.488,570.561l-29.216-28.024l29.216-28.023l29.217,28.023L-159.488,570.561z M-95.627,570.561&#10;&#9;&#9;&#9;&#9;&#9;l-29.217-28.024l29.217-28.023l29.216,28.023L-95.627,570.561z M-31.768,570.561l-29.216-28.024l29.216-28.023l29.216,28.023&#10;&#9;&#9;&#9;&#9;&#9;L-31.768,570.561z M32.093,570.561L2.876,542.536l29.216-28.023l29.216,28.023L32.093,570.561z M95.953,570.561l-29.216-28.024&#10;&#9;&#9;&#9;&#9;&#9;l29.216-28.023l29.217,28.023L95.953,570.561z M159.813,570.561l-29.217-28.024l29.217-28.023l29.216,28.023L159.813,570.561z&#10;&#9;&#9;&#9;&#9;&#9; M223.673,570.561l-29.216-28.024l29.216-28.023l29.216,28.023L223.673,570.561z M287.533,570.561l-29.217-28.024l29.217-28.023&#10;&#9;&#9;&#9;&#9;&#9;l29.216,28.023L287.533,570.561z M351.393,570.561l-29.216-28.024l29.216-28.023l29.216,28.023L351.393,570.561z&#10;&#9;&#9;&#9;&#9;&#9; M415.253,570.561l-29.217-28.024l29.217-28.023l29.216,28.023L415.253,570.561z M479.113,570.561l-29.216-28.024l29.216-28.023&#10;&#9;&#9;&#9;&#9;&#9;l29.216,28.023L479.113,570.561z"/>
				<path fill="#83A54E" d="M-315.978,487.936v107.062h892.182V487.936H-315.978z M551.669,572.693h-847.573v-60.223h847.573&#10;&#9;&#9;&#9;&#9;&#9;V572.693z"/>
			</g>
			<g>
				<path d="M 576.203979 496.856995 H 692.187981 V 594.997993 H 576.203979 V 496.856995 Z" fill="#EA8744"/>
				<path fill="#D7D8D0" d="M598.694,513.586h-1.486c-8.521,0-15.428,6.907-15.428,15.428v65.055c0,0.313,0.029,0.62,0.047,0.93&#10;&#9;&#9;&#9;&#9;&#9;h32.248c0.019-0.31,0.047-0.616,0.047-0.93v-65.055C614.122,520.493,607.215,513.586,598.694,513.586z"/>
				<path fill="#D7D8D0" d="M635.497,513.586h-1.487c-8.521,0-15.427,6.907-15.427,15.428v65.055c0,0.313,0.028,0.62,0.047,0.93&#10;&#9;&#9;&#9;&#9;&#9;h32.248c0.019-0.31,0.047-0.616,0.047-0.93v-65.055C650.924,520.493,644.018,513.586,635.497,513.586z"/>
				<path fill="#D7D8D0" d="M672.3,513.586h-1.487c-8.521,0-15.428,6.907-15.428,15.428v65.055c0,0.313,0.028,0.62,0.047,0.93&#10;&#9;&#9;&#9;&#9;&#9;h32.248c0.019-0.31,0.047-0.616,0.047-0.93v-65.055C687.727,520.493,680.82,513.586,672.3,513.586z"/>
			</g>
			<g>
				<path fill="#6D9B7E" d="M1010.881,321.767c0,0-15.613,26.765,15.613,42.378c0,0,22.305,8.922,15.613,28.996&#10;&#9;&#9;&#9;&#9;&#9;c0,0-15.613,41.263,40.148,31.784s8.922-78.624,8.922-78.624S1048.799,277.158,1010.881,321.767z"/>
				<path fill="none" stroke="#2A5E4D" stroke-miterlimit="10" d="M1055.49,355.224c0,0,33.31,27.908,25.577,99.827"/>
				<path d="M 1048.79895 368.605988 L 1073.795044 384.376007" fill="none" stroke="#2A5E4D" stroke-miterlimit="10"/>
				<path d="M 1082.255981 377.528015 L 1079.630981 405.136993" fill="none" stroke="#2A5E4D" stroke-miterlimit="10"/>
			</g>
			<g>
				<path fill="#6D9B7E" d="M961.812,373.067c0,0-11.152,15.613,8.922,31.227c0,0,15.612,6.691,13.383,22.304&#10;&#9;&#9;&#9;&#9;&#9;c0,0,0,17.844,26.765,8.922c26.766-8.922-2.23-57.992-2.23-57.992S979.655,346.302,961.812,373.067z"/>
				<path fill="none" stroke="#2A5E4D" stroke-miterlimit="10" d="M990.808,404.294c0,0,23.419,26.914,16.171,52.49"/>
			</g>
		</g>
	</g>
<g transform="matrix(1, 0, 0, 1, 0, 0)">
		<path fill="#663C1E" d="M442.454,544.206c-17.564-1.044-35.091-2.491-52.641-4.876c-4.618-0.625-1.3,15.382,1.379,16.829&#10;&#9;&#9;&#9;c29.894,16.146,64.233,21.822,98.013,25.466c3.208,0.347,6.561,0.659,9.568-0.509c10.464-4.065,2.58-20.806,2.58-28.409&#10;&#9;&#9;&#9;c-0.312-1.488-0.673-3.05-1.703-4.169c-1.52-1.649-4.009-1.856-6.25-1.953C476.348,545.847,459.383,545.214,442.454,544.206z"/>
		<path fill="#FFBDA4" d="M590.899,725.442c30.238,2.929,61.494-2.936,87.898-17.961c-1.456-3.926-2.912-7.851-4.367-11.777&#10;&#9;&#9;&#9;c-10.308,8.805-25.921,9.484-38.37,4.119c-12.449-5.366-22.05-15.874-29.203-27.389c-6.66-10.722-12.863-23.661-24.992-27.154&#10;&#9;&#9;&#9;c-7.023-2.022-14.584-0.268-21.408,2.352c-14.771,5.672-54.653,30.328-43.316,51.016&#10;&#9;&#9;&#9;C527.087,716.796,572.611,723.671,590.899,725.442z"/>
		<path fill="#EFEFE4" d="M602.929,734.155c9.551-12.115,17.24-25.695,22.715-40.119c-15.958-9.752-17.154-34.245-32.691-44.655&#10;&#9;&#9;&#9;c-7.471-5.005-17.103-5.777-25.983-4.361c-13.51,2.154-25.86,9.535-34.88,19.719c-6.526,7.371-18.682,24.934-13.716,35.303&#10;&#9;&#9;&#9;c5.083,10.617,26.18,19.785,36.341,24.159C569.89,730.733,586.396,734.223,602.929,734.155z"/>
		<path fill="#FBFBEF" d="M678.683,707.175c-1.417-3.823-2.834-7.647-4.252-11.471c-7.298,6.234-17.255,8.378-26.868,7.203&#10;&#9;&#9;&#9;c-0.057,0.895-0.096,1.809-0.119,2.743c-0.121,4.81,0.961,9.715,3.394,13.838c9.627-2.965,18.941-6.905,27.718-11.875&#10;&#9;&#9;&#9;C678.6,707.467,678.642,707.32,678.683,707.175z"/>
		<path fill="#353037" d="M674.186,711.184c2.667,0.994,2.69,3.958,3.148,6.403c0.585,3.129,0.604,6.032,0.108,9.161&#10;&#9;&#9;&#9;c-0.133,0.842-1.863,9.363-1.574,9.467c1.709,0.657,3.485,1.143,5.292,1.446c3.22,0.529,7.945-13.417,8.627-15.805&#10;&#9;&#9;&#9;c2.63-9.206-2.614-22.087-7.326-29.88c-0.199-0.33-0.432-0.682-0.799-0.799c-0.471-0.151-0.959,0.14-1.368,0.417&#10;&#9;&#9;&#9;c-2.975,2.012-5.896,4.119-8.971,5.975c-0.887,0.535-1.909,1.398-1.592,2.386c0.229,0.71,1.035,1.016,1.647,1.442&#10;&#9;&#9;&#9;c1.271,0.884,1.843,2.653,1.332,4.114c-0.28,0.799-0.833,1.474-1.188,2.242c-0.355,0.77-0.474,1.758,0.074,2.404&#10;&#9;&#9;&#9;c0.545,0.643,1.496,0.688,2.304,0.93C673.999,711.118,674.094,711.149,674.186,711.184z"/>
		<path fill="#FFBDA4" d="M494.564,699.622c-18.503,23.012-32.905,49.017-46.338,75.312c2.688,1.408,5.375,2.814,8.062,4.223&#10;&#9;&#9;&#9;c12.119-18.398,27.539-34.617,45.304-47.65c22.872-16.778,49.282-28.119,72.805-43.984c11.299-7.622,26.604-21.521,18.833-36.827&#10;&#9;&#9;&#9;c-5.358-10.556-20.837-12.474-31.274-9.023C537.208,649.853,510.224,680.148,494.564,699.622z"/>
		<path fill="#FBFBEF" d="M520.296,735.524c3.621,1.911,9.791,5.747,13.983,5.704c5.055-0.052,7.125-5.318,10.05-9.271&#10;&#9;&#9;&#9;c12.281-16.603,24.563-33.204,37.097-49.619c4.619-6.048,11.463-7.72,14.297-15.502c3.1-8.517-1.212-18.594-8.693-23.708&#10;&#9;&#9;&#9;c-7.481-5.115-17.349-5.797-26.132-3.564c-8.782,2.235-16.662,7.098-24.003,12.411c-16.071,11.632-30.788,25.891-42.313,42.083&#10;&#9;&#9;&#9;c-8.52,11.968-1.052,19.949,8.388,28.976C508.13,727.969,513.981,732.189,520.296,735.524z"/>
		<path fill="#FBFBEF" d="M456.289,779.156c4.271-6.484,8.96-12.692,14.01-18.591c-1.063-1.053-2.212-2.03-3.381-2.959&#10;&#9;&#9;&#9;c-2.336-1.856-4.811-3.295-7.286-4.304c-3.918,7.152-7.702,14.379-11.406,21.631C450.914,776.342,453.602,777.748,456.289,779.156&#10;&#9;&#9;&#9;z"/>
		<path fill="#353037" d="M444.862,774.376c-1.479,0.779-3.007,1.421-4.879,1.551c-3.383,0.237-6.769-0.65-10-1.544&#10;&#9;&#9;&#9;c-4.292-1.186-8.584-2.372-12.876-3.559c-0.84,1.628-1.516,3.34-2.014,5.103c5.21,4.047,10.767,7.648,16.585,10.759&#10;&#9;&#9;&#9;c2.966,1.584,6.001,3.043,9.093,4.366c2.016,0.862,5.122,2.917,7.311,1.837c1.167-0.575,1.999-1.651,2.713-2.738&#10;&#9;&#9;&#9;c0.984-1.498,1.826-3.083,2.667-4.666c0.922-1.739,1.846-3.479,2.769-5.217c0.318-0.598,0.641-1.216,0.71-1.89&#10;&#9;&#9;&#9;c0.07-0.675-0.175-1.427-0.763-1.763c-0.606-0.346-1.37-0.166-2.054-0.304c-1.177-0.235-1.959-1.366-2.368-2.495&#10;&#9;&#9;&#9;c-0.298-0.824-0.655-1.865-1.527-1.954c-0.324-0.034-0.643,0.087-0.944,0.213C447.678,772.743,446.292,773.624,444.862,774.376z"/>
		<path fill="#8A572A" d="M562.386,541.643c1.376-0.132,2.85-0.245,4.059,0.425c1.346,0.746,2.026,2.271,2.612,3.693&#10;&#9;&#9;&#9;c14.732,35.734,26.703,72.606,35.772,110.18c0.569,2.354,1.055,5.081-0.422,7.002c-1.114,1.45-3.025,1.981-4.803,2.409&#10;&#9;&#9;&#9;c-24.245,5.833-49.258,8.468-74.186,7.812c-2.31-0.061-4.764-0.196-6.655-1.523c-2.028-1.425-2.973-3.909-3.792-6.248&#10;&#9;&#9;&#9;c-12.106-34.595-20.801-70.385-25.917-106.682C486.391,539.807,547.558,543.07,562.386,541.643z"/>
		<path fill="#FFBDA4" d="M387.655,524.275c0.157,3.193-2.756,5.878-5.874,6.591c-3.117,0.714-6.36-0.053-9.462-0.827&#10;&#9;&#9;&#9;c-3.102-0.774-6.334-1.565-9.461-0.896c-0.433,0.092-0.875,0.22-1.211,0.506c-0.466,0.398-0.65,1.029-0.772,1.63&#10;&#9;&#9;&#9;c-0.941,4.649,0.619,9.612,3.621,13.284c5.667,6.93,24.337,13.868,30.319,3.615c3.96-6.788-3.135-24.064-5.431-30.573&#10;&#9;&#9;&#9;C385.828,518.811,387.483,520.775,387.655,524.275z"/>
		<path fill="#663C1E" d="M642.352,504.575c1.941,0.732,3.622,2.329,4.122,4.266c0.841,3.259-0.884,6.583-2.652,9.447&#10;&#9;&#9;&#9;c-15.447,25.022-38.784,44.688-65.007,57.995c-1.928,0.979-4,1.95-6.152,1.745c-4.231-0.401-5.542-7.01-6.528-10.307&#10;&#9;&#9;&#9;c-1.854-6.195-2.699-12.69-2.494-19.154c0.062-1.951,0.282-4.057,1.584-5.513c0.848-0.948,2.046-1.492,3.208-2.01&#10;&#9;&#9;&#9;c14.643-6.521,29.73-12.05,44.042-19.306c6.876-3.486,15.193-7.301,20.841-12.654c2.218-2.103,2.807-4.537,6.154-4.909&#10;&#9;&#9;&#9;C640.423,504.069,641.417,504.222,642.352,504.575z"/>
		<path fill="#FFBDA4" d="M656.665,478.896c0.864-0.594,1.814-1.195,2.883-1.248c1.985-0.098,3.312,1.642,4.241,3.178&#10;&#9;&#9;&#9;c3.662,6.051,7.323,13.263,4.069,19.739c-3.777,7.517-20.57,16.861-28.23,9.604c-5.333-5.054-3.334-20.413-3.236-26.838&#10;&#9;&#9;&#9;c3.405,2.234,5.562,5.516,9.391,4.746C648.379,487.556,654.161,480.616,656.665,478.896z"/>
		<path fill="#663C1E" d="M532.153,565.015c11.474,0,20.775-9.302,20.775-20.775c0-0.735-0.041-1.462-0.115-2.177&#10;&#9;&#9;&#9;c-11.265,0.266-27.934,0.42-41.417,2.558C511.602,555.917,520.808,565.015,532.153,565.015z"/>
		<path fill="#F4AB95" d="M532.153,561.349c9.449,0,17.109-7.66,17.109-17.109c0-0.711-0.057-1.406-0.141-2.095&#10;&#9;&#9;&#9;c-9.927,0.215-22.786,0.499-34.071,1.954c0,0.047-0.007,0.093-0.007,0.141C515.043,553.688,522.704,561.349,532.153,561.349z"/>
		<path fill="#F4AB95" d="M543.096,548.737c-0.54,0.636-1.223,1.178-1.931,1.61c-5.399,3.298-12.332,2.084-18.421,0.364&#10;&#9;&#9;&#9;c-0.694-0.196-1.464-0.461-1.776-1.11c-0.214-0.447-0.155-0.971-0.097-1.464c0.557-4.691,0.562-9.447,0.019-14.142&#10;&#9;&#9;&#9;c-0.414-3.565-1.375-5.451,2.247-7.239c4.223-2.085,12.81-3.467,16.088,0.839c2.068,2.717,2.809,6.61,2.963,9.884&#10;&#9;&#9;&#9;c0.134,2.85,2.207,5.911,2.021,8.729C544.146,547.157,543.715,548.009,543.096,548.737z"/>
		<path fill="#FFBDA4" d="M505.96,532.252c1.055,0.757,2.187,1.412,3.395,1.946c1.829,0.81,3.776,1.324,5.744,1.68&#10;&#9;&#9;&#9;c7.438,1.344,15.492,0.312,22.383-2.81c5.624-2.547,8.594-10.044,8.029-15.921c7.741-0.632,9.14-9.21,10.454-15.328&#10;&#9;&#9;&#9;c0.528-2.457,0.926-5.035,0.271-7.461c-0.655-2.428-2.623-4.663-5.126-4.882c-1.604-0.14-3.087,0.549-4.384,1.427&#10;&#9;&#9;&#9;c-0.525,0.355-1.335,1.375-1.916,1.529c-0.923,0.243-0.915-0.369-1.305-1.34c-1.2-2.981-1.911-6.207-3.836-8.845&#10;&#9;&#9;&#9;c-1.982-2.717-4.865-4.65-7.871-6.158c-7.813-3.919-18.03-4.485-25.625,0.293c-11.135,7.006-12.085,25.799-10.395,37.586&#10;&#9;&#9;&#9;C496.795,521.056,500.244,528.148,505.96,532.252z"/>
		<path fill="#52201F" d="M540.467,468.827c2.331,0.638,4.7,1.44,6.504,3.049c1.803,1.609,2.914,4.213,2.13,6.5&#10;&#9;&#9;&#9;c2.432,0.523,4.165,2.817,4.773,5.229c0.616,2.443-0.239,4.945,0.449,7.304c-0.503-0.599-1.289-0.901-2.066-0.98&#10;&#9;&#9;&#9;c-2.599-0.263-5.285,1.434-6.231,3.875c-1.2,3.095-0.498,6.557-0.645,9.873c-0.146,3.315-1.784,7.146-5.064,7.652&#10;&#9;&#9;&#9;c0.765-4.541,1.531-9.152,1.01-13.727c-0.522-4.576-2.514-9.189-6.271-11.849c-2.399-1.7-5.314-2.482-8.178-3.147&#10;&#9;&#9;&#9;c-3.867-0.899-8.097-1.648-12.07-1.068c-3.796,0.554-6.485,3.704-9.879,4.234c-4.584,0.715-10.786-3.458-11.376-8.333&#10;&#9;&#9;&#9;C491.762,462.652,532.413,466.625,540.467,468.827z"/>
		<path fill="none" stroke="#000000" stroke-miterlimit="10" d="M510.212,505.755c-0.409,2.742-3.208,4.493-4.207,7.079&#10;&#9;&#9;&#9;c-0.083,0.214-0.152,0.457-0.062,0.668c0.078,0.183,0.257,0.299,0.429,0.398c2.139,1.233,4.751,1.621,7.155,1.059"/>
		<path fill="#92424F" d="M526.424,519.029c0.98,1.582,0.841,3.678,0.022,5.351s-2.228,2.981-3.719,4.097&#10;&#9;&#9;&#9;c-1.143,0.855-2.385,1.632-3.776,1.945c-3.158,0.709-10.279-2.645-8.093-6.596C512.421,520.997,523.388,519.909,526.424,519.029z"/>
	</g><path fill="#61341F" d="M210.45,690.854c-20.07,24.961-35.692,53.166-50.262,81.689c2.915,1.526,5.83,3.054,8.745,4.58&#10;&#9;&#9;&#9;c13.146-19.958,29.871-37.55,49.14-51.686c24.81-18.2,53.456-30.501,78.971-47.71c12.257-8.268,28.857-23.344,20.428-39.946&#10;&#9;&#9;&#9;c-5.812-11.448-22.602-13.529-33.922-9.787C256.706,636.869,227.436,669.73,210.45,690.854z" transform="matrix(1, 0, 0, 1, 0, 0)"/><path fill="#61341F" d="M314.944,718.861c32.799,3.177,66.702-3.185,95.342-19.481c-1.579-4.259-3.158-8.518-4.737-12.776&#10;&#9;&#9;&#9;c-11.18,9.551-28.117,10.288-41.62,4.469c-13.503-5.82-23.917-17.219-31.676-29.709c-7.224-11.629-13.952-25.664-27.107-29.453&#10;&#9;&#9;&#9;c-7.618-2.193-15.82-0.29-23.221,2.551c-16.022,6.151-59.281,32.896-46.984,55.337&#10;&#9;&#9;&#9;C245.727,709.481,295.106,716.939,314.944,718.861z" transform="matrix(1, 0, 0, 1, 0, 0)"/><path fill="#353037" d="M156.623,772.1c-4.837,2.738-10.866,1.327-16.224-0.153c-4.656-1.287-9.312-2.573-13.967-3.86&#10;&#9;&#9;&#9;c-0.911,1.766-1.644,3.623-2.185,5.535c9.879,7.673,20.903,13.869,32.593,18.321c2.44-3.654,10.864-11.996,10.964-16.451&#10;&#9;&#9;&#9;C168.003,766.68,161.618,769.272,156.623,772.1z" transform="matrix(1, 0, 0, 1, 0, 0)"/><path fill="#353037" d="M411.878,701.797c0.022,0.002,0.043,0.005,0.065,0.007c6.24,0.691,8.773,3.451,12.615,8.815&#10;&#9;&#9;&#9;c2.812,3.928,5.625,7.854,8.437,11.781c1.818-0.8,3.556-1.784,5.178-2.931c1.995-1.421-7.357-22.077-8.468-24.465&#10;&#9;&#9;&#9;c-4.959-10.661-6.305-10.785-17.712-9.292c-4.256,0.557-8.8,1.242-11.975,4.133c-0.524,0.478-1.021,1.047-1.15,1.744&#10;&#9;&#9;&#9;c-0.119,0.643,0.09,1.295,0.296,1.914C401.909,701.755,404.621,700.999,411.878,701.797z" transform="matrix(1, 0, 0, 1, 0, 0)"/><path fill="#476E2B" d="M328.267,724.403c12.167,0.868,24.357,0.362,36.335-2.066c1.125-0.228,2.357-0.546,2.996-1.499&#10;&#9;&#9;&#9;c0.492-0.735,0.508-1.68,0.503-2.565c-0.045-8.815-0.422-17.63-1.129-26.417c-0.084-1.045-0.198-2.156-0.847-2.981&#10;&#9;&#9;&#9;c-0.601-0.764-1.553-1.144-2.46-1.49c-5.866-2.246-13.037-3.381-17.469-7.905c-4.096-4.182-6.919-9.605-9.551-14.769&#10;&#9;&#9;&#9;c-5.055-9.918-9.564-22.157-19.475-28.352c-8.104-5.43-18.551-6.267-28.184-4.73c-14.654,2.336-28.05,10.342-37.833,21.389&#10;&#9;&#9;&#9;c-7.37,8.322-20.243,25.182-15.733,37.314c2.443,6.573,12.9,11.466,18.816,14.506c8.052,4.139,16.628,7.175,25.267,9.827&#10;&#9;&#9;&#9;C295.334,719.525,311.781,723.226,328.267,724.403z" transform="matrix(1, 0, 0, 1, 0, 0)"/><path fill="#6C9C36" d="M233.278,724.094c6.518-3.632,13.082-7.216,19.192-11.454c12.947-8.98,23.645-20.731,36.334-30.038&#10;&#9;&#9;&#9;c10.469-7.677,26.573-14.134,31.371-27.311c3.363-9.236-1.314-20.167-9.429-25.715s-18.819-6.289-28.345-3.865&#10;&#9;&#9;&#9;c-7.921,2.016-14.387,6.169-21.357,10.196c-5.546,3.204-10.66,5.07-15.788,9.227c-12.004,9.728-23.066,20.612-32.999,32.446&#10;&#9;&#9;&#9;c-6.356,7.574-12.25,15.536-17.633,23.83c-3.551,5.473-11.906,15.614-11.66,22.476c0.057,1.602,0.912,3.057,1.813,4.381&#10;&#9;&#9;&#9;c3.717,5.454,8.694,10.043,14.433,13.305c1.554,0.884,3.287,1.693,5.06,1.461c1.935-0.255,3.473-1.682,4.929-2.98&#10;&#9;&#9;&#9;C216.415,733.619,224.807,728.815,233.278,724.094z" transform="matrix(1, 0, 0, 1, 0, 0)"/><path fill="#E7E8E0" d="M168.933,777.124c4.633-7.034,9.72-13.768,15.197-20.166c-1.153-1.142-2.4-2.201-3.667-3.209&#10;&#9;&#9;&#9;c-2.534-2.013-5.218-3.573-7.903-4.667c-4.25,7.756-8.354,15.596-12.372,23.462C163.104,774.07,166.018,775.598,168.933,777.124z" transform="matrix(1, 0, 0, 1, 0, 0)"/><path fill="#E7E8E0" d="M410.162,699.046c-1.538-4.147-3.075-8.295-4.613-12.442c-7.917,6.763-18.717,9.088-29.143,7.814&#10;&#9;&#9;&#9;c-0.061,0.969-0.104,1.961-0.129,2.975c-0.131,5.217,1.042,10.537,3.681,15.01c10.443-3.215,20.546-7.49,30.066-12.881&#10;&#9;&#9;&#9;C410.071,699.363,410.117,699.205,410.162,699.046z" transform="matrix(1, 0, 0, 1, 0, 0)"/><path fill="#61341F" d="M158.992,557.011c-16.946,8.778-34.082,17.161-51.759,24.684c-4.649,1.981,7.33,15.055,10.63,14.915&#10;&#9;&#9;&#9;c36.82-1.553,71.969-15.33,105.469-30.69c3.181-1.458,6.479-3.028,8.633-5.787c7.494-9.598-9.147-20.819-13.37-27.904&#10;&#9;&#9;&#9;c-1.117-1.213-2.32-2.469-3.901-2.939c-2.332-0.693-4.766,0.496-6.908,1.65C191.485,539.72,175.326,548.549,158.992,557.011z" transform="matrix(1, 0, 0, 1, 0, 0)"/><path fill="#61341F" d="M93.489,586.078c-0.523,0.653-1.339,0.98-2.097,1.336c-3.632,1.701-6.891,5.151-6.673,9.156&#10;&#9;&#9;&#9;c0.135,2.475,1.598,4.736,3.509,6.313c1.911,1.577,4.243,2.553,6.585,3.361c2.326,0.804,4.719,1.469,7.171,1.667&#10;&#9;&#9;&#9;c6.815,0.552,13.811-2.832,17.61-8.518c0.75-1.123,1.396-2.373,1.479-3.722c0.426-6.895-8.365-10.545-13.521-12.3&#10;&#9;&#9;&#9;c-2.675-0.91-6.792-4.124-9.319-4.262C92.512,578.802,95.87,583.104,93.489,586.078z" transform="matrix(1, 0, 0, 1, 0, 0)"/><path fill="#C1C1BC" d="M192.361,581.508c0.641,0.985,1.539,2.069,2.709,1.96c0.426-0.039,0.818-0.241,1.198-0.438&#10;&#9;&#9;&#9;c9.291-4.834,18.582-9.667,27.873-14.5c3.522-1.833,7.215-3.82,9.288-7.207c2.125-3.472,2.153-7.925,0.912-11.801&#10;&#9;&#9;&#9;s-3.623-7.277-6.135-10.479c-4.206-5.362-9.784-10.769-16.596-10.572c-3.682,0.105-7.086,1.87-10.341,3.595&#10;&#9;&#9;&#9;c-5.333,2.824-10.997,5.361-16.125,8.538c-4.416,2.735-3.725,5.633-3.279,10.532C182.845,561.906,186.459,572.439,192.361,581.508&#10;&#9;&#9;&#9;z" transform="matrix(1, 0, 0, 1, 0, 0)"/><path fill="#E7E8E0" d="M284.016,519.496c1.493-0.145,3.091-0.268,4.402,0.46c1.46,0.81,2.198,2.463,2.834,4.006&#10;&#9;&#9;&#9;c6.083,14.755,10.199,30.247,16.506,44.915c6.304,14.658,14.635,28.69,19.263,44.06c3.451,11.461,4.676,23.88,1.41,35.395&#10;&#9;&#9;&#9;c-13.326-0.464-26.741,1.811-39.169,6.641c-18.575,7.22-35.807,10.04-54.707,1.144c-1.402-0.659-2.833-1.418-3.732-2.68&#10;&#9;&#9;&#9;c-1.092-1.534-1.21-3.534-1.271-5.416c-0.322-9.951-0.136-19.946-1.409-29.82c-2.775-21.543-12.264-41.322-18.62-61.896&#10;&#9;&#9;&#9;c-4.188-13.558-9.306-24.672,6.101-30.474C237.141,517.727,261.618,521.652,284.016,519.496z" transform="matrix(1, 0, 0, 1, 0, 0)"/><path fill="#61341F" d="M387.1,464.434c2.809,0.149,5.435,1.208,6.512,2.934c1.812,2.905,0.121,6.61-1.723,9.883&#10;&#9;&#9;&#9;c-16.105,28.594-44.107,54.283-77.352,74.663c-2.444,1.498-5.087,3.03-8.078,3.452c-5.879,0.827-9.013-5.176-11.032-8.075&#10;&#9;&#9;&#9;c-3.794-5.448-6.268-11.477-7.293-17.775c-0.31-1.902-0.434-3.998,1.055-5.778c0.97-1.158,2.502-2.027,3.99-2.861&#10;&#9;&#9;&#9;c18.747-10.501,38.305-20.173,56.449-31.289c8.718-5.341,19.345-11.413,26.001-18.204c2.613-2.667,2.929-5.187,7.44-6.507&#10;&#9;&#9;&#9;C384.354,464.5,385.748,464.362,387.1,464.434z" transform="matrix(1, 0, 0, 1, 0, 0)"/><path fill="#D2D3CB" d="M251.222,544.847c12.446,0,22.535-10.089,22.535-22.535c0-0.798-0.044-1.585-0.125-2.36&#10;&#9;&#9;&#9;c-12.219,0.288-30.299,0.455-44.925,2.774C228.931,534.979,238.916,544.847,251.222,544.847z" transform="matrix(1, 0, 0, 1, 0, 0)"/><path fill="#512A1A" d="M251.222,540.87c10.249,0,18.558-8.309,18.558-18.559c0-0.771-0.062-1.525-0.153-2.271&#10;&#9;&#9;&#9;c-10.768,0.232-24.716,0.541-36.956,2.119c0,0.052-0.008,0.102-0.008,0.152C232.664,532.562,240.973,540.87,251.222,540.87z" transform="matrix(1, 0, 0, 1, 0, 0)"/><path fill="#C1C1BC" d="M312.704,508.156c0.945-0.44,1.988-0.892,2.998-0.631c0.89,0.229,1.548,0.961,2.129,1.673&#10;&#9;&#9;&#9;c9.159,11.206,13.106,26.504,10.512,40.742c-9.804,2.479-19.607,4.958-29.411,7.438c-1.759,0.444-3.594,0.892-5.367,0.508&#10;&#9;&#9;&#9;c-2.725-0.59-4.66-2.984-6.081-5.383c-4.619-7.789-8.158-22.671-2.918-31.086c1.905-3.06,7.342-3.569,10.57-5.073&#10;&#9;&#9;&#9;C300.991,513.614,306.847,510.886,312.704,508.156z" transform="matrix(1, 0, 0, 1, 0, 0)"/><path fill="#61341F" d="M379.017,455.62c1.003-0.601,2.457,0.147,3.401-0.543c0.378-0.277,0.582-0.73,0.741-1.171&#10;&#9;&#9;&#9;c1.307-3.604,1.158-8.271,4.408-10.305c1.296-0.811,2.897-0.985,4.423-0.893c4.368,0.265,8.505,2.612,11.217,6.046&#10;&#9;&#9;&#9;c2.711,3.435,4.027,7.878,3.936,12.252c-0.04,1.881-0.342,3.797-1.243,5.449c-0.999,1.83-2.663,3.209-4.429,4.316&#10;&#9;&#9;&#9;c-5.594,3.505-13.527,4.636-19.134,0.541C379.37,469.147,374.984,458.031,379.017,455.62z" transform="matrix(1, 0, 0, 1, 0, 0)"/><path fill="none" stroke="#000000" stroke-miterlimit="10" d="M385.669,459.421c-3.646-10.229-5.541-21.329-3.544-32.003&#10;&#9;&#9;&#9;c1.997-10.674,8.282-20.855,17.904-25.889c9.914-5.186,21.835-4.434,32.536-7.7c9.381-2.863,17.53-8.722,25.234-14.792&#10;&#9;&#9;&#9;c5.728-4.513,11.416-9.306,15.316-15.467C482.527,348.707,517,233,575,211" transform="matrix(1, 0, 0, 1, 0, 0)"/><path fill="#512A1A" d="M263.092,527.19c-0.585,0.689-1.326,1.277-2.094,1.747c-5.856,3.577-13.377,2.261-19.981,0.395&#10;&#9;&#9;&#9;c-0.753-0.212-1.588-0.499-1.927-1.204c-0.233-0.485-0.168-1.053-0.104-1.587c0.604-5.089,0.61-10.249,0.02-15.34&#10;&#9;&#9;&#9;c-0.449-3.867-1.492-5.913,2.438-7.853c4.581-2.261,13.895-3.761,17.45,0.91c2.244,2.947,3.047,7.17,3.214,10.721&#10;&#9;&#9;&#9;c0.146,3.091,2.394,6.412,2.192,9.469C264.23,525.478,263.764,526.4,263.092,527.19z" transform="matrix(1, 0, 0, 1, 0, 0)"/><path fill="#0D112A" d="M280.859,460.553c-0.073,0.474-0.175,0.944-0.308,1.407c5.087,3.387,4.686,8.477,4.127,13.7&#10;&#9;&#9;&#9;c-0.135,1.256-1.394,2.099-1.437,3.405c-0.029,0.883,1.213,1.574,1.194,2.461c-0.053,2.5,0.707,4.331-1.262,6.496&#10;&#9;&#9;&#9;c-0.673,0.741-1.521,1.325-2.094,2.145c-1.24,1.771-0.926,4.143-1.161,6.292c-0.235,2.149-1.734,4.636-3.87,4.301&#10;&#9;&#9;&#9;c1.087,1.219,0.524,3.281-0.731,4.326s-2.953,1.341-4.566,1.601c-4.238,0.68-8.476,1.36-12.713,2.04&#10;&#9;&#9;&#9;c0.737-1.216,0.209-2.858-0.758-3.901c-0.968-1.043-2.287-1.672-3.474-2.457c-6.045-3.998-8.305-12.797-4.935-19.213&#10;&#9;&#9;&#9;c-5.662-3.42-6.631-12.522-1.816-17.058c-1.093-2.438-2.21-4.995-2.055-7.661c0.154-2.667,2.031-5.439,4.695-5.637&#10;&#9;&#9;&#9;c1.592-0.125,5.382-5.809,6.639-6.959c2.7-2.474,5.854-5.482,9.598-5.866c3.216-0.33,7.27,0.433,8.182,3.534&#10;&#9;&#9;&#9;c0.342,1.163,0.145,2.456,0.625,3.568c0.467,1.083,1.487,1.8,2.355,2.598C280.038,452.379,281.463,456.612,280.859,460.553z" transform="matrix(1, 0, 0, 1, 0, 0)"/><path fill="#61341F" d="M224.636,507.538c8.583,8.739,21.979,7.431,33.686,2.077c8.998-4.115,4.699-10.666,11.037-15.784&#10;&#9;&#9;&#9;c0.915-0.738,2.005-1.232,2.924-1.966c3.382-2.7,3.561-7.7,3.315-12.021c-0.201-3.538-0.49-7.07-0.868-10.594&#10;&#9;&#9;&#9;c-0.083-0.771-0.175-1.561-0.518-2.257c-0.806-1.639-2.849-2.359-4.665-2.169c-1.817,0.19-3.468,1.101-5.062,1.993&#10;&#9;&#9;&#9;c-1.719-3.819-2.641-8.363-5.11-11.748c-2.151-2.947-5.277-5.044-8.538-6.68c-8.475-4.25-19.558-4.865-27.795,0.318&#10;&#9;&#9;&#9;c-8.113,5.104-9.41,13.4-8.884,22.493c0.251,4.332,0.688,8.652,1.311,12.946c0.865,5.973,2.119,11.981,4.876,17.351&#10;&#9;&#9;&#9;C221.577,503.894,223.021,505.894,224.636,507.538z" transform="matrix(1, 0, 0, 1, 0, 0)"/><path fill="#933F4C" d="M245.008,494.966c1.064,1.718,0.912,3.99,0.024,5.805c-0.889,1.814-2.417,3.235-4.035,4.444&#10;&#9;&#9;&#9;c-3.694,2.761-6.442,2.321-10.32,0.477c-1.729-0.822-3.619-1.605-4.969-3.009c-0.271-0.282-2.719-4.158-2.19-4.247&#10;&#9;&#9;&#9;C225.279,498.141,244.498,494.146,245.008,494.966z" transform="matrix(1, 0, 0, 1, 0, 0)"/><path fill="#0D112A" d="M227.641,470.904c-0.796,0.308-1.638,0.478-2.487,0.484c-2.863,0.021-5.666-1.823-6.909-4.545&#10;&#9;&#9;&#9;c-2.124,3.661-7.293,4.852-10.67,2.459c-3.376-2.393-4.287-7.894-1.879-11.354c-3-0.492-5.455-3.465-5.508-6.667&#10;&#9;&#9;&#9;s2.302-6.264,5.283-6.867c-2-2.377-2.094-6.293-0.208-8.773c1.992-2.621,3.989-1.676,6.521-2.331&#10;&#9;&#9;&#9;c2.347-0.606,2.133-0.714,4.505-2.37c4.026-2.811,8.72-4.137,13.351-1.931c4.29-5.928,13.597-6.748,18.759-1.652&#10;&#9;&#9;&#9;c4.324-3.78,12.082-0.984,13.312,4.797c0.229,1.077,0.386,2.385,1.332,2.858c0.764,0.382,1.652-0.004,2.494-0.089&#10;&#9;&#9;&#9;c2.427-0.246,4.487,2.219,4.859,4.761c0.373,2.542-0.478,5.087-1.315,7.503c1.819,0.337,2.718,2.76,2.198,4.63&#10;&#9;&#9;&#9;c-0.52,1.871-1.999,3.248-3.471,4.426c1.257,1.299,0.372,3.762-1.205,4.586c-1.497,0.783-3.467,0.603-5.048,0.258&#10;&#9;&#9;&#9;c-0.101,3.413-4.035,7.424-7.128,8.08c-2.639,0.559-5.546-0.832-6.887-3.296c-0.759,3.133-4.152,4.91-7.209,4.686&#10;&#9;&#9;&#9;s-5.811-1.97-8.328-3.814C231.153,468.67,229.527,470.174,227.641,470.904z" transform="matrix(1, 0, 0, 1, 0, 0)"/><path fill="#0D112A" d="M260.694,478.338c1.369,4.714-0.48,10.066,1.531,14.545c1.151,0.159,2.279-0.587,2.906-1.566&#10;&#9;&#9;&#9;c0.627-0.979,0.852-2.154,1.042-3.301c0.892-5.378,1.292-10.838,1.193-16.29c-0.073-4.025-3.079-18.942-9.616-12.621&#10;&#9;&#9;&#9;c-2.126,2.056-1.452,5.025-0.749,7.402C258.127,470.318,259.532,474.335,260.694,478.338z" transform="matrix(1, 0, 0, 1, 0, 0)"/><path fill="none" stroke="#000000" stroke-miterlimit="10" d="M226.92,482.662c-1.47,2.69-2.939,5.38-4.409,8.07&#10;&#9;&#9;&#9;c-0.173,0.315-0.351,0.677-0.242,1.02c0.099,0.313,0.406,0.507,0.7,0.653c2.179,1.082,4.921,0.934,6.971-0.376" transform="matrix(1, 0, 0, 1, 0, 0)"/><path d="M 669.546997 155.320007 A 45.414001 65.938004 0 0 1 624.132996 221.258011 A 45.414001 65.938004 0 0 1 578.718994 155.320007 A 45.414001 65.938004 0 0 1 624.132996 89.382004 A 45.414001 65.938004 0 0 1 669.546997 155.320007 Z" transform="matrix(0.8659999966621399, 0.5, -0.5, 0.8659999966621399, 161.27810668945315, -291.2579040527344)" fill="#FF726A"/><path d="M 617.547997 149.320007 A 45.415001 65.938004 0 0 1 572.132996 215.258011 A 45.415001 65.938004 0 0 1 526.717995 149.320007 A 45.415001 65.938004 0 0 1 572.132996 83.382004 A 45.415001 65.938004 0 0 1 617.547997 149.320007 Z" transform="matrix(0.9874000549316406, 0.15820001065731049, -0.15820001065731049, 0.9874000549316406, 30.825700759887724, -88.62779998779297)" fill="#6C9C36"/><path d="M 669.547997 201.320007 A 45.415001 65.938004 0 0 1 624.132996 267.258011 A 45.415001 65.938004 0 0 1 578.717995 201.320007 A 45.415001 65.938004 0 0 1 624.132996 135.382004 A 45.415001 65.938004 0 0 1 669.547997 201.320007 Z" transform="matrix(0.5778000354766846, 0.8161999583244324, -0.8161999583244324, 0.5778000354766846, 427.8125915527344, -424.4034118652344)" fill="#EE7B2B"/><path fill="#2F2E40" d="M741.707,754.479c-1.812-1.018-4.495-1.904-5.527-0.024c-0.827,1.51,0.35,3.337,1.482,4.603&#10;&#9;&#9;&#9;c11.399,12.736,25.492,22.736,40.933,29.047c3.145,1.284,6.569,2.432,9.833,1.541c4.6-1.254,7.401-6.058,9.726-10.456&#10;&#9;&#9;&#9;c7.148-13.531-5.58-20.785-16.864-18.249C767.928,763.943,753.762,761.252,741.707,754.479z" transform="matrix(1, 0, 0, 1, 0, 0)"/><path fill="#FFDED2" d="M781.289,760.94c-10.859,2.441-22.249,1.12-32.605-3.096c3.396,4.05,7.344,7.607,12.172,9.569&#10;&#9;&#9;&#9;c8.958,3.64,19.27,1.087,27.556-4.044c0.968-0.6,1.962-1.312,2.683-2.204C788.062,760.303,784.615,760.192,781.289,760.94z" transform="matrix(1, 0, 0, 1, 0, 0)"/><path fill="#2F2E40" d="M1007.556,782.116c-0.467,1.8-0.67,4.351,1.003,4.921c1.343,0.457,2.565-0.928,3.354-2.17&#10;&#9;&#9;&#9;c7.93-12.495,13.204-26.879,15.32-41.778c0.431-3.034,0.701-6.293-0.604-9.03c-1.84-3.859-6.145-5.462-10.041-6.715&#10;&#9;&#9;&#9;c-11.987-3.855-15.35,8.808-11.263,18.375C1010.164,757.046,1010.663,770.143,1007.556,782.116z" transform="matrix(1, 0, 0, 1, 0, 0)"/><path fill="#FFDED2" d="M1005.325,745.719c3.933,9.205,4.999,19.58,3.592,29.57c2.563-3.771,4.638-7.938,5.29-12.596&#10;&#9;&#9;&#9;c1.212-8.64-2.708-17.339-8.285-23.759c-0.651-0.751-1.397-1.503-2.233-1.978C1003.568,739.812,1004.12,742.898,1005.325,745.719z&#10;&#9;&#9;&#9;" transform="matrix(1, 0, 0, 1, 0, 0)"/><path fill="#3E8993" d="M953.703,662.881c15.562,20.604,32.847,39.782,50.369,58.407c1.682,1.787,3.382,3.601,4.587,5.779&#10;&#9;&#9;&#9;s1.879,4.8,1.335,7.26c-0.355,1.607-1.199,3.039-2.029,4.437c-0.331,0.556-0.686,1.138-1.232,1.447&#10;&#9;&#9;&#9;c-0.43,0.242-0.93,0.289-1.415,0.331c-7.487,0.649-14.063-0.945-21.166-3.27c-57.489-18.82-97.762-69.79-130.269-120.947&#10;&#9;&#9;&#9;c-10.486-16.504-20.857-35.138-18.792-54.928c1.508-14.446,8.619-27.51,10.583-41.861c1.663-12.159,7.396-23.296,19.615-26.956&#10;&#9;&#9;&#9;c10.729-3.212,18.458,4.261,24.171,12.704c8.934,13.202,19.65,25.323,29.725,37.686c2.997,3.677,6.059,7.472,7.576,12.061&#10;&#9;&#9;&#9;c1.501,4.54,1.365,9.482,1.154,14.29c-0.7,15.954-1.922,32.587,2.062,48.195c3.826,14.992,13.891,29.985,21.911,42.831&#10;&#9;&#9;&#9;C952.203,660.853,952.824,661.717,953.703,662.881z" transform="matrix(1, 0, 0, 1, 0, 0)"/><path fill="#52AAB6" d="M855.292,684.928c-18.61,28.665-34.662,59.331-56.241,85.433c-0.819,0.991-1.721,2.02-2.921,2.357&#10;&#9;&#9;&#9;c-0.83,0.233-1.71,0.105-2.554-0.06c-5.377-1.058-10.482-3.63-14.653-7.387c-0.593-0.533-1.187-1.12-1.466-1.891&#10;&#9;&#9;&#9;c-0.373-1.03-0.117-2.186,0.148-3.253c9.268-37.2,27.174-72.37,42.637-107.057c15.906-35.684,33.251-70.681,53.046-104.119&#10;&#9;&#9;&#9;c5.036-8.509,10.243-17.067,16.941-24.044c11.365-11.836,30.403-19.509,46.29-15.495c19.203,4.852,21.084,25.171,18.649,43.061&#10;&#9;&#9;&#9;c-0.979,7.201-2.392,14.415-5.28,21.013c-7.287,16.645-22.471,26.801-35.945,37.23c-14.41,11.154-25.079,24.289-35.479,39.471&#10;&#9;&#9;&#9;C870.602,661.662,862.877,673.243,855.292,684.928z" transform="matrix(1, 0, 0, 1, 0, 0)"/><path fill="#0E1428" d="M839.313,316.268c-4.71,9.6-5.04,20.852-7.385,31.386c-3.283,14.756-10.54,28.112-17.703,41.226&#10;&#9;&#9;&#9;c-16.297,29.835-32.98,60.184-57.052,83.334c-3.332,3.205-6.87,6.358-9.001,10.563s-2.512,9.825,0.386,13.476&#10;&#9;&#9;&#9;c14.288,18.001,61.738-37.036,70.657-47.877c21.857-26.57,38.313-58.212,47.373-92.187c3.938-14.771,5.745-34.784-3.475-48.006&#10;&#9;&#9;&#9;C855.971,297.938,844.146,306.419,839.313,316.268z" transform="matrix(1, 0, 0, 1, 0, 0)"/><path fill="#FFDED2" d="M742.446,479.61c-2.789,0.001-5.868,2.144-5.721,5.103c0.074,1.481,0.932,2.844,0.9,4.326&#10;&#9;&#9;&#9;c-0.082,3.829-5.08,4.617-7.958,6.924c-3.877,3.109-3.614,9.845-0.552,13.853c3.062,4.006,8.001,5.796,12.774,6.755&#10;&#9;&#9;&#9;c3.47,0.697,7.088,1.053,10.505,0.107c6.865-1.898,11.705-8.861,13.31-16.202c0.86-3.939,0.926-8.19-0.547-11.92&#10;&#9;&#9;&#9;C762.444,481.686,748.962,479.607,742.446,479.61z" transform="matrix(1, 0, 0, 1, 0, 0)"/><path fill="#161E3A" d="M854.857,300.378c-1.07,1.103-2.011,2.438-2.792,4.074c-3.777,7.901-3.945,17.38-7.525,25.443&#10;&#9;&#9;&#9;c-4.236,9.539-12.27,17.142-14.644,27.384c-2.929,12.635,3.48,25.307,8.806,37.025c8.257,18.168,5.131,29.228,0.21,47.31&#10;&#9;&#9;&#9;c-10.701,39.326-11.096,80.863-11.411,121.797c-0.014,1.683,0.025,3.526,1.051,4.81c1.058,1.323,2.833,1.639,4.455,1.854&#10;&#9;&#9;&#9;c45.143,6,91.546,1.045,134.66-14.383c-1.97-19.236-5.596-38.278-10.792-56.823c-5.23-18.663-14.489-35.527-20.18-53.771&#10;&#9;&#9;&#9;c-10.12-32.45-5.161-74.865,4.692-106.638c3.008-9.701,7.895-22.642,3.122-32.625c-5.076-10.62-21.934-10.129-31.505-11.732&#10;&#9;&#9;&#9;c-14.171-2.375-28.707-2.294-42.848,0.28C864.217,295.465,858.697,296.423,854.857,300.378z" transform="matrix(1, 0, 0, 1, 0, 0)"/><path fill="#C16527" d="M867.47,262.956c-1.004-0.591-2.242-1.203-3.087-0.414c-0.422,0.394-0.624,1.055-0.776,1.695&#10;&#9;&#9;&#9;c-1.129,4.767-0.483,10.002,0.171,15.039c1.283,9.88,3.23,21.072,10.074,26.566c2.514,2.017,5.438,3,8.336,3.496&#10;&#9;&#9;&#9;c6.042,1.034,12.392-0.051,17.207-4.294c4.505-3.971,7.273-10.259,9.905-16.351c1.721-3.983,8.884-16.832,7.17-21.662&#10;&#9;&#9;&#9;c-2.07-5.833-10.878,0.539-14.312,1.377C890.749,271.193,878.385,269.384,867.47,262.956z" transform="matrix(1, 0, 0, 1, 0, 0)"/><path fill="#EFA88F" d="M889.618,295.133c-0.087,2.516-0.093,5.608,1.98,6.828c0.917,0.54,2.024,0.534,3.071,0.469&#10;&#9;&#9;&#9;c4.065-0.249,8.094-1.16,11.901-2.691c0.474-0.19,0.962-0.402,1.308-0.797c0.388-0.441,0.546-1.051,0.68-1.638&#10;&#9;&#9;&#9;c1.811-7.902,1.646-16.305-0.473-24.12c-4.582,0.731-15.926,1.995-18.939,6.193C886.857,282.564,889.75,291.281,889.618,295.133z" transform="matrix(1, 0, 0, 1, 0, 0)"/><path fill="#D17537" d="M905.398,281.958c0.962-0.771,1.91-1.632,3.069-1.985c1.159-0.352,2.613-0.017,3.164,1.123&#10;&#9;&#9;&#9;c0.292,0.605,0.282,1.321,0.228,1.999c-0.291,3.54-1.643,6.871-2.976,10.13c-1.662,4.061-3.353,8.172-5.93,11.653&#10;&#9;&#9;&#9;s-6.187,6.318-10.317,6.913c-1.43,0.206-2.953,0.123-4.214-0.625c-0.97-0.576-1.712-1.5-2.362-2.457&#10;&#9;&#9;&#9;c-1.264-1.858-2.265-3.918-2.96-6.088c-0.272-0.852-0.501-1.752-0.379-2.643c0.184-1.332,1.103-2.39,1.733-3.557&#10;&#9;&#9;&#9;c0.63-1.167,0.911-2.824-0.027-3.729c-0.363-0.351-0.856-0.524-1.22-0.875c-4.705-4.551,6.023-4.164,7.132-4.156&#10;&#9;&#9;&#9;C895.631,287.695,901.229,285.304,905.398,281.958z" transform="matrix(1, 0, 0, 1, 0, 0)"/><path fill="#FFDED2" d="M892.209,285.296l0.977-0.18c12.588-2.329,21.016-15.056,18.824-28.428l-3.032-18.495&#10;&#9;&#9;&#9;c-2.191-13.372-14.173-22.324-26.762-19.996l-0.977,0.181c-12.588,2.329-21.016,15.056-18.823,28.428l3.031,18.495&#10;&#9;&#9;&#9;C867.64,278.672,879.621,287.625,892.209,285.296z" transform="matrix(1, 0, 0, 1, 0, 0)"/><path fill="#EE7B2B" d="M905.102,259.936c0.282,1.49,0.523,2.99,0.739,4.489c1.766,12.268,1.944,24.79,0.53,37.084&#10;&#9;&#9;&#9;c3.455,0.018,8.213,0.671,11.523-0.428c3.475-1.153,2.676-0.08,3.77-4.722c1.621-6.886,0.68-13.668,3.191-20.337&#10;&#9;&#9;&#9;c2.197-5.835,6.018-10.948,9.232-16.167c3.289-5.336,6.06-11.033,8.256-16.97c2.395-6.472,4.12-13.399,3.548-20.327&#10;&#9;&#9;&#9;c-0.571-6.927-3.743-13.876-9.341-17.481c-3.129-2.016-6.789-2.883-10.409-3.446c-15.953-2.481-38.084-0.06-51.253,10.989&#10;&#9;&#9;&#9;c-11.424,9.583-16.181,28.839-16.124,43.616c0.058,15.137,3.018,30.458,7.169,44.903c4.454,0.501,3.23-4.118,2.822-7.293&#10;&#9;&#9;&#9;c-1.487-11.58-2.978-23.293-1.901-34.904c1.077-11.612,4.991-23.293,12.837-31.22c0.761-0.769,1.69-1.546,2.727-1.402&#10;&#9;&#9;&#9;c0.731,0.102,1.338,0.647,1.898,1.17c6.804,6.335,13.802,12.943,17.638,21.727C903.439,252.619,904.4,256.246,905.102,259.936z" transform="matrix(1, 0, 0, 1, 0, 0)"/><path fill="#EA8744" d="M927.734,301.28c-1.223,0.743-2.339,1.678-3.288,2.793c-1.55,1.821-2.653,4.012-3.712,6.194&#10;&#9;&#9;&#9;c-9.746,20.113-16.979,41.666-28.588,60.629c-1.929,3.149-4.04,6.291-6.972,8.392c-2.725,1.952-5.97,2.872-9.146,3.761&#10;&#9;&#9;&#9;c-5.211,1.457-11.459,2.667-15.407-1.23c-2.099-2.071-2.996-5.142-3.738-8.082c-4.759-18.86-6.6-38.547-5.426-58.034&#10;&#9;&#9;&#9;c0.138-2.29,0.282-4.745-0.823-6.717c-1.351-2.409-4.507-4.23-3.88-6.954c0.725-3.14,5.25-2.589,7.604-4.638&#10;&#9;&#9;&#9;c3.522-3.066,2.347-13.273,8.249-12.494c6.187,0.816,10.813,8.906,17.527,9.951c6.511,1.014,14.064-2.688,19.514-6.07&#10;&#9;&#9;&#9;c5.91-3.67,27.035-24.473,31.512-9.246c0.743,2.527,0.732,5.296,1.793,7.692c2.192,4.953,8.678,7.963,8.15,13.407&#10;&#9;&#9;&#9;C936.919,298.478,931.751,298.839,927.734,301.28z" transform="matrix(1, 0, 0, 1, 0, 0)"/><path fill="#C16527" d="M859.497,334.621c0.534,6.841,2.724,13.409,5.167,19.764c1.159,3.017,2.455,6.118,4.785,8.237&#10;&#9;&#9;&#9;s5.994,2.943,8.473,1.023c-2.248,3.456-7.044,4.312-10.657,2.606c-3.614-1.706-6.09-5.451-7.342-9.435&#10;&#9;&#9;&#9;c-1.251-3.984-1.441-8.245-1.62-12.44c-0.235-5.52-0.471-11.04-0.706-16.559c-0.202-4.739-0.929-8.976-2.169-13.468&#10;&#9;&#9;&#9;C861.345,317.009,859.082,329.307,859.497,334.621z" transform="matrix(1, 0, 0, 1, 0, 0)"/><path fill="#C16527" d="M886.547,346.821c3.289-6.383,5.935-13.15,9.646-19.267c3.713-6.116,8.709-11.687,15.142-14.189&#10;&#9;&#9;&#9;c-10.699,7.091-17.145,19.471-22.442,31.627c-1.561,3.579-3.105,7.257-5.637,10.143c-2.462,2.807-7.241,5.689-10.81,3.688&#10;&#9;&#9;&#9;c1.911-1.48,4.649-1.639,6.771-2.905C882.586,353.907,884.738,350.331,886.547,346.821z" transform="matrix(1, 0, 0, 1, 0, 0)"/><path fill="#C16527" d="M897.518,303.194c-6.165,3.97-14.148,4.559-20.771,1.532c3.574,7.309,12.821,9.988,20.206,7.477&#10;&#9;&#9;&#9;c7.384-2.511,12.982-9.091,16.736-16.297c3.222-6.185,5.734-13.227,11.843-16.854&#10;&#9;&#9;&#9;C915.493,276.329,905.109,298.306,897.518,303.194z" transform="matrix(1, 0, 0, 1, 0, 0)"/><path fill="#C16527" d="M871.919,313.679c2.449,3.797,6.418,6.449,10.7,7.147c-2.078,1.701-5.149,0.882-7.344-0.646&#10;&#9;&#9;&#9;c-5.166-3.598-7.671-10.845-6.178-17.167C869.11,306.743,869.875,310.509,871.919,313.679z" transform="matrix(1, 0, 0, 1, 0, 0)"/><path fill="none" stroke="#000000" stroke-miterlimit="10" d="M879.927,253.865c0.108,2.599-1.73,5.137-4.123,5.691&#10;&#9;&#9;&#9;c0.665,2.176,2.657,3.816,4.806,3.957" transform="matrix(1, 0, 0, 1, 0, 0)"/><path fill="none" stroke="#000000" stroke-miterlimit="10" d="M888.386,269.23c-1.315,1.667-3.397,2.616-5.44,2.479&#10;&#9;&#9;&#9;c-2.043-0.136-3.997-1.354-5.105-3.183" transform="matrix(1, 0, 0, 1, 0, 0)"/><path fill="#0E1428" d="M923.705,323.759c3.946,9.98,11.888,17.435,18.021,26.079c8.593,12.107,13.635,26.568,18.561,40.798&#10;&#9;&#9;&#9;c11.206,32.374,22.538,65.393,23.938,99.854c0.193,4.771,0.219,9.677,1.903,14.104c1.686,4.426,5.514,8.326,10.009,8.289&#10;&#9;&#9;&#9;c22.166-0.185,12.596-74.119,10.438-88.333c-5.291-34.835-17.704-68.494-36.532-97.596c-8.186-12.653-21.529-26.909-36.996-27.816&#10;&#9;&#9;&#9;C921.064,298.437,919.656,313.519,923.705,323.759z" transform="matrix(1, 0, 0, 1, 0, 0)"/><path fill="#FFDED2" d="M980.178,507.253c-1.779,2.28-2.193,6.166,0.044,7.935c1.12,0.887,2.655,1.055,3.709,2.026&#10;&#9;&#9;&#9;c2.722,2.513,0.101,7.102-0.065,10.927c-0.224,5.155,4.824,9.242,9.682,9.298c4.858,0.055,9.309-2.839,13.052-6.129&#10;&#9;&#9;&#9;c2.721-2.391,5.288-5.122,6.786-8.519c3.009-6.825,1.056-15.228-3.238-21.227c-2.304-3.221-5.342-5.988-8.984-7.165&#10;&#9;&#9;&#9;C994.453,492.23,984.337,501.924,980.178,507.253z" transform="matrix(1, 0, 0, 1, 0, 0)"/><path fill="#D17537" d="M906.308,313.179c-2.577,5.885-3.628,12.373-4.653,18.772c-1.235,7.706-2.475,15.469-2.297,23.284&#10;&#9;&#9;&#9;c0.315,13.923,5.081,27.221,8.917,40.539c3.837,13.317,6.791,27.596,3.452,41.063c13.44,4.363,28.469,2.907,40.944-3.967&#10;&#9;&#9;&#9;c-11.311-24.038-14.112-51.432-16.736-78.16c-0.659-6.713-1.318-13.464-0.908-20.199c0.461-7.562,2.285-15.029,5.346-21.875&#10;&#9;&#9;&#9;c2.661-5.956,4.77-10.861,0.879-16.578c-2.346-3.447-7.268-9.723-11.704-9.263C921.29,287.65,909.481,305.927,906.308,313.179z" transform="matrix(1, 0, 0, 1, 0, 0)"/><path fill="#131430" d="M1033.611,757.193c-9.771-4.883-19.541-9.766-29.312-14.649c-0.667,2.982,0.646,6.031,2.064,8.7&#10;&#9;&#9;&#9;c10.289,19.346,28.523,33.725,48.935,38.587c1.81,0.432,3.835,0.757,5.415-0.275c1.025-0.672,1.686-1.811,2.29-2.917&#10;&#9;&#9;&#9;c2.918-5.336,5.464-10.898,7.611-16.632c0.691-1.844,1.261-4.185-0.032-5.616c-0.903-1.001-2.353-1.1-3.657-1.133&#10;&#9;&#9;&#9;C1055.059,762.951,1044.532,762.658,1033.611,757.193z" transform="matrix(1, 0, 0, 1, 0, 0)"/><path fill="#131430" d="M1289.703,786.168c-0.24,0.49-0.488,1.07-0.265,1.569c0.212,0.473,0.753,0.647,1.237,0.75&#10;&#9;&#9;&#9;c9.573,2.011,18.795-5.396,24.26-13.985c7.364-11.577,10.503-26.106,8.625-39.937c-0.122-0.9-0.272-1.82-0.701-2.608&#10;&#9;&#9;&#9;c-0.461-0.847-1.205-1.47-1.931-2.071c-2.686-2.226-5.371-4.452-8.058-6.679c-1.192-0.987-2.417-1.994-3.858-2.492&#10;&#9;&#9;&#9;c-15.431-5.32-9.815,20.533-10.041,27.688C1298.559,761.51,1295.408,774.53,1289.703,786.168z" transform="matrix(1, 0, 0, 1, 0, 0)"/><path fill="#E8A289" d="M1067.413,777.749c1.146-2.544,2.22-5.122,3.201-7.742c0.691-1.844,1.261-4.185-0.032-5.616&#10;&#9;&#9;&#9;c-0.903-1.001-2.353-1.1-3.657-1.133c-11.866-0.307-22.393-0.6-33.312-6.064c-5.373-2.685-10.745-5.369-16.117-8.054&#10;&#9;&#9;&#9;c0.071,1.091,0.462,2.232,0.934,3.217c2.364,4.938,6.068,9.032,10.161,12.466c4.129,3.463,8.714,6.3,13.57,8.448&#10;&#9;&#9;&#9;c5.341,2.363,11.01,3.895,16.762,4.511C1060.094,777.907,1063.588,778.048,1067.413,777.749z" transform="matrix(1, 0, 0, 1, 0, 0)"/><path fill="#E8A289" d="M1296.132,768.533c2.151-2.285,3.931-5.09,5.552-7.844c3.714-6.309,13.467-21.487,15.658-33.776&#10;&#9;&#9;&#9;c-1.489-1.234-2.98-2.47-4.471-3.706c-1.192-0.988-2.417-1.994-3.858-2.492c-15.431-5.32-9.815,20.533-10.041,27.688&#10;&#9;&#9;&#9;C1298.758,755.197,1297.792,761.965,1296.132,768.533z" transform="matrix(1, 0, 0, 1, 0, 0)"/><path fill="#281B21" d="M1048.313,760.96c9.12,3.733,19.958,7.312,28.122,1.605c4.237-2.962,6.816-7.899,9.14-12.689&#10;&#9;&#9;&#9;c21.554-44.441,35.49-93.521,63.821-133.44c9.866-13.902,21.437-26.622,29.033-42.049s10.656-34.809,2.683-50.02&#10;&#9;&#9;&#9;c-9.94-18.965-32.755-24.939-53.117-26.778c-17.559-1.586-22.339,2.493-26.174,19.318c-4.521,19.835-9.343,39.596-13.884,59.428&#10;&#9;&#9;&#9;c-9.076,39.643-17.805,79.377-26.184,119.193C1060.578,701.111,1046.841,760.357,1048.313,760.96z" transform="matrix(1, 0, 0, 1, 0, 0)"/><path fill="#3F2B34" d="M1175.624,589.807c4.776,15.271,9.661,30.778,18.297,44c5.205,7.97,11.654,14.917,18.068,21.82&#10;&#9;&#9;&#9;c26.888,28.938,54.029,58.101,85.949,80.542c3.242-3.243,6.484-6.488,9.727-9.732c1.412-1.414,2.927-3.057,2.976-5.118&#10;&#9;&#9;&#9;c0.045-1.917-1.197-3.561-2.35-5.035c-21.023-26.936-33.407-60.352-41.86-94.168c-8.453-33.818-13.301-68.543-21.201-102.512&#10;&#9;&#9;&#9;c-0.836-3.596-1.766-7.312-3.979-10.175c-1.916-2.479-4.631-4.1-7.359-5.477c-20.278-10.236-55.275-11.163-72.51,7.089&#10;&#9;&#9;&#9;c-8.339,8.831-4.509,18.747-1.214,29.342C1165.294,556.866,1170.472,573.332,1175.624,589.807z" transform="matrix(1, 0, 0, 1, 0, 0)"/><path fill="#E8A289" d="M1155.246,213.256c-2.649,8.678-5.223,17.646-4.612,26.745c0.61,9.1,5.105,18.477,13.024,22.007&#10;&#9;&#9;&#9;c2.784,1.242,5.822,1.703,8.836,1.898c10.422,0.673,22.448-2.963,26.698-13.094c2.33-5.554,2.001-12.375,5.604-17.099&#10;&#9;&#9;&#9;c1.592-2.087,3.84-3.576,5.213-5.832c2.765-4.543,0.488-11.561-4.323-13.331c-0.734-0.271-1.53-0.447-2.122-0.98&#10;&#9;&#9;&#9;c-1.367-1.231-0.954-3.515-0.629-5.387c1.859-10.698-4.219-22.346-13.745-26.339c-7.14-2.993-22.479-4.646-27.712,3.103&#10;&#9;&#9;&#9;C1157.343,191.07,1157.5,205.872,1155.246,213.256z" transform="matrix(1, 0, 0, 1, 0, 0)"/><path fill="#501E1F" d="M1221.581,272.765c23.133,32.737,25.019,76.604,25.986,117.525c0.885,37.454,1.77,74.947,0.045,112.366&#10;&#9;&#9;&#9;c-0.136,2.943-0.333,6.039-1.849,8.507c-1.771,2.881-4.97,4.322-8.01,5.513c-24.584,9.621-48.281,9.4-73.595,11.355&#10;&#9;&#9;&#9;c-23.052,1.78-44.524-1.367-63.443-16.817c-1.052-0.859-2.135-1.819-2.559-3.154c-0.447-1.41-0.073-2.947,0.303-4.38&#10;&#9;&#9;&#9;c8.93-34.026,17.867-68.05,26.787-102.079c8.069-30.785,9.997-64.546,13.917-96.298c2.096-16.966,3.337-28.402,20.408-30.628&#10;&#9;&#9;&#9;C1180.022,272.01,1201.023,271.816,1221.581,272.765z" transform="matrix(1, 0, 0, 1, 0, 0)"/><path fill="#E8A289" d="M1204.949,275.19c0.088,1,0.144,2.114-0.456,2.89c-0.512,0.663-1.36,0.887-2.149,1.061&#10;&#9;&#9;&#9;c-8.683,1.921-17.625,2.506-26.463,1.734c-2.393-6.019-1.08-12.889,0.267-19.263c1.109-5.248,2.262-10.609,4.946-15.17&#10;&#9;&#9;&#9;c1.895-3.218,4.486-5.912,7.234-8.338c1.861-1.643,9.078-8.797,11.611-7.88c2.564,0.93,2.07,11.203,2.285,13.669&#10;&#9;&#9;&#9;C1203.132,254.325,1204.041,264.757,1204.949,275.19z" transform="matrix(1, 0, 0, 1, 0, 0)"/><path fill="#F9B467" d="M1197.791,217.192c-3.889,10.034-9.604,19.706-18.226,25.526c-3.835,2.59-8.886,4.704-13.449,4.874&#10;&#9;&#9;&#9;c-4.439,0.166-9.391,0.067-12.602-3.194c-1.607-1.633-2.543-3.856-3.44-6.02c-1.467,1.514-1.604,3.925-1.648,6.098&#10;&#9;&#9;&#9;c-0.195,9.656,0.549,19.256,2.967,28.598c1.52,5.874,4.618,11.511,9.479,14.742c6.573,4.368,15.464,3.519,22.068-0.795&#10;&#9;&#9;&#9;c6.604-4.313,11.118-11.591,13.801-19.318c2.683-7.727,3.716-15.972,4.731-24.137c1.291-10.394,2.584-20.788,3.876-31.181&#10;&#9;&#9;&#9;c0.337-2.715,0.542-9.45-3.51-6.836C1199.822,206.848,1198.728,214.777,1197.791,217.192z" transform="matrix(1, 0, 0, 1, 0, 0)"/><path fill="#F9B467" d="M1174.025,229.991c3.233,0.973,6.252,2.85,9.599,3.18s6.633-0.925,9.786-2.161&#10;&#9;&#9;&#9;c0.832,1.975-0.035,4.384-1.526,5.857c-1.491,1.472-3.48,2.212-5.415,2.887c-4.388,1.531-9.041,2.938-13.568,1.966&#10;&#9;&#9;&#9;C1162.931,239.581,1162.25,226.447,1174.025,229.991z" transform="matrix(1, 0, 0, 1, 0, 0)"/><path fill="#F9B467" d="M1157.028,229.967c2.718-0.688,5.418-1.228,7.388,0.122c9.03,6.189-8.822,11.378-12.817,10.368&#10;&#9;&#9;&#9;c-4.444-1.124-8.286-4.652-9.976-9.161c-0.267-0.711-0.484-1.473-0.392-2.232c3.007,1.077,6.18,1.5,9.328,1.916&#10;&#9;&#9;&#9;C1152.444,231.229,1154.742,230.545,1157.028,229.967z" transform="matrix(1, 0, 0, 1, 0, 0)"/><path fill="none" stroke="#000000" stroke-miterlimit="10" d="M1161.941,242.081c2.048,1.129,4.713,0.846,6.51-0.691" transform="matrix(1, 0, 0, 1, 0, 0)"/><path fill="none" stroke="#000000" stroke-miterlimit="10" d="M1165.353,213.759c-1.012,4.271-3.437,8.148-6.751,10.793&#10;&#9;&#9;&#9;c3.532,2.46,8.589,2.092,11.773-0.855" transform="matrix(1, 0, 0, 1, 0, 0)"/><path fill="#F9B467" d="M1193.616,204.814c1.562-3.917,1.74-8.437,0.489-12.478c2.425,4.342,3.807,9.336,3.979,14.381&#10;&#9;&#9;&#9;c-0.24-2.403,0.037-4.862,0.807-7.136c-0.564,1.668,1.561,7.235,1.777,9.236c0.294,2.714,0.236,5.306,0.142,8.021&#10;&#9;&#9;&#9;c1.242,0.394,2.305-1.001,2.864-2.244c4.729-10.521,2.046-24.235-6.24-31.881c-7.227-6.668-21.934-9.688-29.816-2.465&#10;&#9;&#9;&#9;c4.944,2.041,10.586,2.146,15.646,4.533c1.641,0.774,3.256,1.654,4.63,2.881C1191.766,191.125,1195.74,199.49,1193.616,204.814z" transform="matrix(1, 0, 0, 1, 0, 0)"/><path fill="#E8A289" d="M1072.319,463.324c-3.694,1.711-7.803,3.352-11.661,2.115c-3.041-0.975-5.355-3.577-8.176-5.126&#10;&#9;&#9;&#9;c-2.821-1.55-7.02-1.554-8.426,1.471c-0.723,1.554-0.451,3.396-0.657,5.115c-1.138,9.495-15.265,11.538-17.433,20.828&#10;&#9;&#9;&#9;c-1.312,5.619,2.481,11.072,6.395,15.103c3.674,3.782,8.027,7.358,13.128,7.783c6.616,0.55,12.399-4.231,18.174-7.706&#10;&#9;&#9;&#9;c8.918-5.363,19.039-7.918,28.894-10.905c33.289-10.096,65.055-25.837,93.727-46.446c11.164-8.024,24.115-17.916,30.021-30.917&#10;&#9;&#9;&#9;c10.327-22.737,16.011-47.562,19.716-72.499c2.425-16.314,4.034-32.914,2.392-49.337c-0.88-8.806-4.626-18.496-14.158-19.172&#10;&#9;&#9;&#9;c-8.251-0.585-15.27,6.472-19.509,14.015c-4.031,7.173-6.592,15.15-9.122,23.06c-7.037,21.989-11.774,49.162-24.35,68.076&#10;&#9;&#9;&#9;c-12.438,18.707-28.168,35.46-44.952,49.755C1109.849,442.564,1091.676,454.356,1072.319,463.324z" transform="matrix(1, 0, 0, 1, 0, 0)"/><path fill="#5E2A2C" d="M1215.703,433.691c13.457-16.611,19.035-41.773,23.023-62.699c4.598-24.131,7.212-46.374,4.153-71.067&#10;&#9;&#9;&#9;c-1.269-10.243-4.178-21.784-12.897-26.359c-7.106-3.728-16.003-1.276-22.223,3.942c-8.369,7.021-14.396,18.812-17.251,29.574&#10;&#9;&#9;&#9;c-6.293,23.715-9.349,49.922-24.952,68.153c-1.684,1.968-3.644,4.491-2.72,6.962c0.329,0.877,0.983,1.564,1.621,2.222&#10;&#9;&#9;&#9;c16.502,17.012,34.96,32.249,51.132,49.41C1215.628,433.784,1215.666,433.737,1215.703,433.691z" transform="matrix(1, 0, 0, 1, 0, 0)"/>
</svg>