<?xml version="1.0" encoding="utf-8"?>
<svg id="master-artboard" viewBox="0 0 841.9 595.3" version="1.1" xmlns="http://www.w3.org/2000/svg" x="0px" y="0px" width="841.9000244140625px" height="595.2999877929688px" enable-background="new 0 0 841.9 595.3">
<linearGradient id="SVGID_1_" gradientUnits="userSpaceOnUse" x1="420.945" y1="-77.9995" x2="420.945" y2="241.4051">
		<stop offset="0" style="stop-color:#6ACCE6"/>
		<stop offset="1" style="stop-color:#FBF5AD"/>
	</linearGradient><path d="M 0 0 H 841.900024 V 595.299988 H 0 V 0 Z" fill="url(#SVGID_1_)" transform="matrix(1, 0, 0, 1, 0, 0)"/><path d="M 841.9000244140625 228.6999969482422 L 0 138.10000610351562 L 0 104 L 841.9000244140625 118.80000305175781 Z" fill="#FFFFFF" transform="matrix(1, 0, 0, 1, 0, 0)"/><path d="M 841.9000244140625 273.70001220703125 L 0 285.20001220703125 L 0 182.1999969482422 L 841.9000244140625 235.89999389648438 Z" fill="#FFFFFF" transform="matrix(1, 0, 0, 1, 0, 0)"/><path d="M 0 72.9000015258789 L 841.9000244140625 111.9000015258789 L 841.9000244140625 56.900001525878906 L 0 56.900001525878906 Z" fill="#FFFFFF" transform="matrix(1, 0, 0, 1, 0, 0)"/><path d="M 649.200012 171 A 54.5 54.5 0 0 1 594.700012 225.5 A 54.5 54.5 0 0 1 540.200012 171 A 54.5 54.5 0 0 1 594.700012 116.5 A 54.5 54.5 0 0 1 649.200012 171 Z" fill="#FFFCD5" transform="matrix(1, 0, 0, 1, 0, 0)"/><linearGradient id="SVGID_2_" gradientUnits="userSpaceOnUse" x1="420.945" y1="657.3992" x2="420.945" y2="311.3754">
		<stop offset="0" style="stop-color:#0091BF"/>
		<stop offset="0.5235" style="stop-color:#63CDF6"/>
		<stop offset="1" style="stop-color:#B4E2F1"/>
	</linearGradient><path d="M 0 315.899994 H 841.900024 V 595.299988 H 0 V 315.899994 Z" fill="url(#SVGID_2_)" transform="matrix(1, 0, 0, 1, 0, 0)"/><g transform="matrix(1, 0, 0, 1, 0, 0)">
			<path fill="#FFFFFF" d="M540.9,315.9c0,0.3-116.8-102.8-165.4-43.5c0,0-13.6-39-37.6-48.8c-24-9.7-45,27.3-45,27.3&#10;&#9;&#9;&#9;&#9;c0,0-13.5-52.3-66.8-59.4c-53.3-6.8-78.3,55.2-78.3,55c0,0.1-13.3-50.7-62.1-70.2C37,157.1,0,190.9,0,190.6&#10;&#9;&#9;&#9;&#9;c0,41.8,0,83.6,0,125.4C180.3,315.9,360.6,315.9,540.9,315.9z"/>
			<path fill="#F1F2F2" d="M77,261.8c0,0.1,1-31.3,38-20.6c37,10.7,60.1,56.2,60.1,56.3c0,0,12-32.4,59-34.2c47-1.8,95,33.6,95,33.6&#10;&#9;&#9;&#9;&#9;c36.8-32.4,96.6-1.8,128.4,19.1c-152.5,0-305,0-457.4,0c0-29,0-58.1,0-87.1C63.9,204.1,77,261.6,77,261.8z"/>
		</g><path fill="#FFFFFF" d="M841.9,237.6c0,0.4-46.3-30-84.8,28c0,0.1-41.3-24.8-46.7,23.1c0,0.4-37.9-28.8-115.7,27.3&#10;&#9;&#9;&#9;c82.4,0,164.8,0,247.2,0C841.9,289.8,841.9,263.7,841.9,237.6z" transform="matrix(1, 0, 0, 1, 0, 0)"/><path fill="#00738D" d="M841.9,595.3v-28.5c0,0-176.9-19.5-208.5-18.8c-31.5,0.8-277.2,11.6-303.4,13.2S185.7,545,143.9,543.7&#10;&#9;&#9;S0,561.2,0,561.2l0,34.1H841.9z" transform="matrix(1, 0, 0, 1, 0, 0)"/><path fill="#008CA6" d="M0,595.3l0-11.9c0,0,176.9-19.5,208.5-18.8s277.2,11.6,303.4,13.2c26.2,1.6,144.3-16.2,186.2-17.4&#10;&#9;&#9;c41.8-1.3,143.9,17.4,143.9,17.4l0,17.4H0z" transform="matrix(1, 0, 0, 1, 0, 0)"/><g transform="matrix(1, 0, 0, 1, 0, 0)">
			<g>
				<g>
					<path d="M 129.800003 218.699997 H 136.000003 V 257.799995 H 129.800003 V 218.699997 Z" fill="#D1D3D4"/>
					<path d="M 144.399994 203.199997 H 150.599994 V 257.699997 H 144.399994 V 203.199997 Z" fill="#D1D3D4"/>
				</g>
				<g>
					<path d="M 159.89999389648438 245.6999969482422 L 129 245.6999969482422 L 98.0999984741211 245.6999969482422 L 87.19999694824219 252.6999969482422 L 87.19999694824219 262.70001220703125 L 114.30000305175781 288.29998779296875 L 114.30000305175781 556.0999755859375 L 129 556.0999755859375 L 143.6999969482422 556.0999755859375 L 143.6999969482422 288.29998779296875 L 170.6999969482422 262.70001220703125 L 170.6999969482422 252.6999969482422 Z" fill="#F15A29"/>
					<path d="M 159.89999389648438 245.6999969482422 L 147.3000030517578 245.6999969482422 L 153.6999969482422 252.6999969482422 L 153.6999969482422 262.70001220703125 L 137.6999969482422 288.29998779296875 L 137.6999969482422 556.0999755859375 L 143.6999969482422 556.0999755859375 L 143.6999969482422 288.29998779296875 L 170.6999969482422 262.70001220703125 L 170.6999969482422 252.6999969482422 Z" fill="#DA4C25"/>
					<path d="M 83.400002 252.699997 H 174.599998 V 262.799997 H 83.400002 V 252.699997 Z" fill="#E6E7E8"/>
					<path d="M 108.900002 324.600006 H 149.100002 V 348.500006 H 108.900002 V 324.600006 Z" fill="#E6E7E8"/>
					<path d="M 132.800003 324.600006 H 149.000004 V 348.500006 H 132.800003 V 324.600006 Z" fill="#D1D3D4"/>
				</g>
			</g>
			<g>
				<path d="M 107.699997 392.600006 H 185 V 397.000006 H 107.699997 V 392.600006 Z" fill="#DA4C25"/>
				<g>
					<path d="M 119.900002 385.899994 H 172.800003 V 403.599995 H 119.900002 V 385.899994 Z" fill="#E6E7E8"/>
					<path d="M 150.199997 385.899994 H 172.799997 V 403.599995 H 150.199997 V 385.899994 Z" fill="#D1D3D4"/>
				</g>
				<g>
					<g>
						<g>
							<path fill="#F1F2F2" d="M185,395.3l-32.1-32.1l0,0c0.9-0.9,2.3-0.9,3.2-0.1l26,22c0.9,0.8,1.6,1.8,2.1,2.9l2.3,5.7L185,395.3&#10;&#9;&#9;&#9;&#9;&#9;&#9;&#9;&#9;z"/>
							<path fill="#E6E7E8" d="M181.8,390.7l-18.5-18.5C163.3,372.2,181.4,388.1,181.8,390.7z"/>
						</g>
						<g>
							<path fill="#F1F2F2" d="M187.1,395.9l-11.7,43.8l0,0c-1.2-0.3-2-1.5-1.7-2.7l6-33.5c0.2-1.2,0.7-2.3,1.5-3.3l3.8-4.8&#10;&#9;&#9;&#9;&#9;&#9;&#9;&#9;&#9;L187.1,395.9z"/>
							<path fill="#E6E7E8" d="M184.6,400.9l-6.8,25.3C177.8,426.2,182.6,402.6,184.6,400.9z"/>
						</g>
						<g>
							<path fill="#F1F2F2" d="M186.5,393.8l43.8-11.7l0,0c0.3,1.2-0.3,2.5-1.5,2.9l-32,11.5c-1.1,0.4-2.4,0.5-3.6,0.4l-6.1-0.9&#10;&#9;&#9;&#9;&#9;&#9;&#9;&#9;&#9;L186.5,393.8z"/>
							<path fill="#E6E7E8" d="M192.1,393.4l25.3-6.8C217.4,386.6,194.6,394.3,192.1,393.4z"/>
						</g>
					</g>
					<g>
						<path fill="#E6E7E8" d="M185.4,390.9c-0.8,0.1-1.6,0.5-2.2,1.1c-0.3,0.3-0.5,0.6-0.7,0.9l2.4,2.4l0,0l1.6-1.6L185.4,390.9z"/>
						<path fill="#E6E7E8" d="M183.1,397.7c0,0.1,0.1,0.1,0.1,0.2c0.8,0.8,1.9,1.2,3,1.2l0.9-3.2l-2.1-0.6L183.1,397.7z"/>
						<path fill="#E6E7E8" d="M186.5,393.8l0.6,2.1l3,0.4c0.4-1.1,0.3-2.4-0.3-3.4L186.5,393.8z"/>
					</g>
					<path d="M 189.000006 395 A 2.9 2.9 0 0 1 186.100006 397.9 A 2.9 2.9 0 0 1 183.200006 395 A 2.9 2.9 0 0 1 186.100006 392.1 A 2.9 2.9 0 0 1 189.000006 395 Z" fill="#E6E7E8"/>
					<path d="M 188.800006 395 A 2.7 2.7 0 0 1 186.100006 397.7 A 2.7 2.7 0 0 1 183.400006 395 A 2.7 2.7 0 0 1 186.100006 392.3 A 2.7 2.7 0 0 1 188.800006 395 Z" fill="#F1F2F2"/>
					<path d="M 187.600006 395 A 1.5 1.5 0 0 1 186.100006 396.5 A 1.5 1.5 0 0 1 184.600006 395 A 1.5 1.5 0 0 1 186.100006 393.5 A 1.5 1.5 0 0 1 187.600006 395 Z" fill="#E6E7E8"/>
					<path fill="#F1F2F2" d="M185,394c-0.5,0.6-0.5,1.4,0,2c0.5,0.4,1.2,0.4,1.7-0.1c0.5-0.5,0.5-1.3,0-1.8&#10;&#9;&#9;&#9;&#9;&#9;&#9;C186.2,393.6,185.5,393.6,185,394z"/>
					<path fill="#FFFFFF" d="M185.5,393.9c-0.1,0.1-0.2,0.1-0.3,0.2c-0.5,0.5-0.5,1.3,0,1.8c0.1,0.1,0.2,0.1,0.3,0.2&#10;&#9;&#9;&#9;&#9;&#9;&#9;C185,395.4,185,394.5,185.5,393.9z"/>
				</g>
			</g>
			<g>
				<path d="M 82.800003 392.600006 H 160.100006 V 397.000006 H 82.800003 V 392.600006 Z" fill="#DA4C25"/>
				<g>
					<path d="M 95 385.899994 H 147.900002 V 403.599995 H 95 V 385.899994 Z" fill="#E6E7E8"/>
					<path d="M 125.300003 385.899994 H 147.900003 V 403.599995 H 125.300003 V 385.899994 Z" fill="#D1D3D4"/>
				</g>
				<g>
					<g>
						<g>
							<path fill="#F1F2F2" d="M160.1,395.3L128,363.3l0,0c0.9-0.9,2.3-0.9,3.2-0.1l26,22c0.9,0.8,1.6,1.8,2.1,2.9l2.3,5.7&#10;&#9;&#9;&#9;&#9;&#9;&#9;&#9;&#9;L160.1,395.3z"/>
							<path fill="#E6E7E8" d="M156.9,390.7l-18.5-18.5C138.4,372.2,156.5,388.1,156.9,390.7z"/>
						</g>
						<g>
							<path fill="#F1F2F2" d="M162.2,395.9l-11.7,43.8l0,0c-1.2-0.3-2-1.5-1.7-2.7l6-33.5c0.2-1.2,0.7-2.3,1.5-3.3l3.8-4.8&#10;&#9;&#9;&#9;&#9;&#9;&#9;&#9;&#9;L162.2,395.9z"/>
							<path fill="#E6E7E8" d="M159.7,400.9l-6.8,25.3C152.9,426.2,157.7,402.6,159.7,400.9z"/>
						</g>
						<g>
							<path fill="#F1F2F2" d="M161.6,393.8l43.8-11.7l0,0c0.3,1.2-0.3,2.5-1.5,2.9l-32,11.5c-1.1,0.4-2.4,0.5-3.6,0.4l-6.1-0.9&#10;&#9;&#9;&#9;&#9;&#9;&#9;&#9;&#9;L161.6,393.8z"/>
							<path fill="#E6E7E8" d="M167.2,393.4l25.3-6.8C192.5,386.6,169.7,394.3,167.2,393.4z"/>
						</g>
					</g>
					<g>
						<path fill="#E6E7E8" d="M160.5,390.9c-0.8,0.1-1.6,0.5-2.2,1.1c-0.3,0.3-0.5,0.6-0.7,0.9l2.4,2.4l0,0l1.6-1.6L160.5,390.9z"/>
						<path fill="#E6E7E8" d="M158.2,397.7c0,0.1,0.1,0.1,0.1,0.2c0.8,0.8,1.9,1.2,3,1.2l0.9-3.2l-2.1-0.6L158.2,397.7z"/>
						<path fill="#E6E7E8" d="M161.6,393.8l0.6,2.1l3,0.4c0.4-1.1,0.3-2.4-0.3-3.4L161.6,393.8z"/>
					</g>
					<path d="M 164.099997 395 A 2.9 2.9 0 0 1 161.199997 397.9 A 2.9 2.9 0 0 1 158.299997 395 A 2.9 2.9 0 0 1 161.199997 392.1 A 2.9 2.9 0 0 1 164.099997 395 Z" fill="#E6E7E8"/>
					<path d="M 163.899997 395 A 2.7 2.7 0 0 1 161.199997 397.7 A 2.7 2.7 0 0 1 158.499997 395 A 2.7 2.7 0 0 1 161.199997 392.3 A 2.7 2.7 0 0 1 163.899997 395 Z" fill="#F1F2F2"/>
					<path d="M 162.699997 395 A 1.5 1.5 0 0 1 161.199997 396.5 A 1.5 1.5 0 0 1 159.699997 395 A 1.5 1.5 0 0 1 161.199997 393.5 A 1.5 1.5 0 0 1 162.699997 395 Z" fill="#E6E7E8"/>
					<path fill="#F1F2F2" d="M160.1,394c-0.5,0.6-0.5,1.4,0,2c0.5,0.4,1.2,0.4,1.7-0.1c0.5-0.5,0.5-1.3,0-1.8&#10;&#9;&#9;&#9;&#9;&#9;&#9;C161.3,393.6,160.6,393.6,160.1,394z"/>
					<path fill="#FFFFFF" d="M160.6,393.9c-0.1,0.1-0.2,0.1-0.3,0.2c-0.5,0.5-0.5,1.3,0,1.8c0.1,0.1,0.2,0.1,0.3,0.2&#10;&#9;&#9;&#9;&#9;&#9;&#9;C160.1,395.4,160.1,394.5,160.6,393.9z"/>
				</g>
			</g>
		</g><path d="M 100 560.400024 H 158 V 595.300026 H 100 V 560.400024 Z" fill="#E6E7E8" transform="matrix(1, 0, 0, 1, 0, 0)"/><path d="M 100 556.099976 H 158 V 564.599976 H 100 V 556.099976 Z" fill="#F15A29" transform="matrix(1, 0, 0, 1, 0, 0)"/><g transform="matrix(1, 0, 0, 1, 0, 0)">
			<g>
				<g>
					<path d="M 296.799988 218.699997 H 302.999988 V 257.799995 H 296.799988 V 218.699997 Z" fill="#D1D3D4"/>
					<path d="M 311.399994 203.199997 H 317.599994 V 257.699997 H 311.399994 V 203.199997 Z" fill="#D1D3D4"/>
				</g>
				<g>
					<path d="M 326.8999938964844 245.6999969482422 L 296 245.6999969482422 L 265.1000061035156 245.6999969482422 L 254.1999969482422 252.6999969482422 L 254.1999969482422 262.70001220703125 L 281.29998779296875 288.29998779296875 L 281.29998779296875 556.0999755859375 L 296 556.0999755859375 L 310.70001220703125 556.0999755859375 L 310.70001220703125 288.29998779296875 L 337.70001220703125 262.70001220703125 L 337.70001220703125 252.6999969482422 Z" fill="#F15A29"/>
					<path d="M 326.8999938964844 245.6999969482422 L 314.29998779296875 245.6999969482422 L 320.70001220703125 252.6999969482422 L 320.70001220703125 262.70001220703125 L 304.70001220703125 288.29998779296875 L 304.70001220703125 556.0999755859375 L 310.70001220703125 556.0999755859375 L 310.70001220703125 288.29998779296875 L 337.70001220703125 262.70001220703125 L 337.70001220703125 252.6999969482422 Z" fill="#DA4C25"/>
					<path d="M 250.399994 252.699997 H 341.599991 V 262.799997 H 250.399994 V 252.699997 Z" fill="#E6E7E8"/>
					<path d="M 275.899994 324.600006 H 316.099995 V 348.500006 H 275.899994 V 324.600006 Z" fill="#E6E7E8"/>
					<path d="M 299.799988 324.600006 H 315.999989 V 348.500006 H 299.799988 V 324.600006 Z" fill="#D1D3D4"/>
				</g>
			</g>
			<g>
				<path d="M 274.700012 392.600006 H 352.000015 V 397.000006 H 274.700012 V 392.600006 Z" fill="#DA4C25"/>
				<g>
					<path d="M 286.899994 385.899994 H 339.799995 V 403.599995 H 286.899994 V 385.899994 Z" fill="#E6E7E8"/>
					<path d="M 317.200012 385.899994 H 339.800013 V 403.599995 H 317.200012 V 385.899994 Z" fill="#D1D3D4"/>
				</g>
				<g>
					<g>
						<g>
							<path fill="#F1F2F2" d="M352,395.3l-32.1-32.1l0,0c0.9-0.9,2.3-0.9,3.2-0.1l26,22c0.9,0.8,1.6,1.8,2.1,2.9l2.3,5.7L352,395.3&#10;&#9;&#9;&#9;&#9;&#9;&#9;&#9;&#9;z"/>
							<path fill="#E6E7E8" d="M348.8,390.7l-18.5-18.5C330.3,372.2,348.4,388.1,348.8,390.7z"/>
						</g>
						<g>
							<path fill="#F1F2F2" d="M354.1,395.9l-11.7,43.8l0,0c-1.2-0.3-2-1.5-1.7-2.7l6-33.5c0.2-1.2,0.7-2.3,1.5-3.3l3.8-4.8&#10;&#9;&#9;&#9;&#9;&#9;&#9;&#9;&#9;L354.1,395.9z"/>
							<path fill="#E6E7E8" d="M351.6,400.9l-6.8,25.3C344.8,426.2,349.6,402.6,351.6,400.9z"/>
						</g>
						<g>
							<path fill="#F1F2F2" d="M353.5,393.8l43.8-11.7l0,0c0.3,1.2-0.3,2.5-1.5,2.9l-32,11.5c-1.1,0.4-2.4,0.5-3.6,0.4l-6.1-0.9&#10;&#9;&#9;&#9;&#9;&#9;&#9;&#9;&#9;L353.5,393.8z"/>
							<path fill="#E6E7E8" d="M359.1,393.4l25.3-6.8C384.4,386.6,361.6,394.3,359.1,393.4z"/>
						</g>
					</g>
					<g>
						<path fill="#E6E7E8" d="M352.4,390.9c-0.8,0.1-1.6,0.5-2.2,1.1c-0.3,0.3-0.5,0.6-0.7,0.9l2.4,2.4l0,0l1.6-1.6L352.4,390.9z"/>
						<path fill="#E6E7E8" d="M350.1,397.7c0,0.1,0.1,0.1,0.1,0.2c0.8,0.8,1.9,1.2,3,1.2l0.9-3.2l-2.1-0.6L350.1,397.7z"/>
						<path fill="#E6E7E8" d="M353.5,393.8l0.6,2.1l3,0.4c0.4-1.1,0.3-2.4-0.3-3.4L353.5,393.8z"/>
					</g>
					<path d="M 356.000006 395 A 2.9 2.9 0 0 1 353.100006 397.9 A 2.9 2.9 0 0 1 350.200006 395 A 2.9 2.9 0 0 1 353.100006 392.1 A 2.9 2.9 0 0 1 356.000006 395 Z" fill="#E6E7E8"/>
					<path d="M 355.800006 395 A 2.7 2.7 0 0 1 353.100006 397.7 A 2.7 2.7 0 0 1 350.400006 395 A 2.7 2.7 0 0 1 353.100006 392.3 A 2.7 2.7 0 0 1 355.800006 395 Z" fill="#F1F2F2"/>
					<path d="M 354.600006 395 A 1.5 1.5 0 0 1 353.100006 396.5 A 1.5 1.5 0 0 1 351.600006 395 A 1.5 1.5 0 0 1 353.100006 393.5 A 1.5 1.5 0 0 1 354.600006 395 Z" fill="#E6E7E8"/>
					<path fill="#F1F2F2" d="M352,394c-0.5,0.6-0.5,1.4,0,2c0.5,0.4,1.2,0.4,1.7-0.1c0.5-0.5,0.5-1.3,0-1.8&#10;&#9;&#9;&#9;&#9;&#9;&#9;C353.2,393.6,352.5,393.6,352,394z"/>
					<path fill="#FFFFFF" d="M352.5,393.9c-0.1,0.1-0.2,0.1-0.3,0.2c-0.5,0.5-0.5,1.3,0,1.8c0.1,0.1,0.2,0.1,0.3,0.2&#10;&#9;&#9;&#9;&#9;&#9;&#9;C352,395.4,352,394.5,352.5,393.9z"/>
				</g>
			</g>
			<g>
				<path d="M 249.800003 392.600006 H 327.100006 V 397.000006 H 249.800003 V 392.600006 Z" fill="#DA4C25"/>
				<g>
					<path d="M 262 385.899994 H 314.900002 V 403.599995 H 262 V 385.899994 Z" fill="#E6E7E8"/>
					<path d="M 292.299988 385.899994 H 314.899988 V 403.599995 H 292.299988 V 385.899994 Z" fill="#D1D3D4"/>
				</g>
				<g>
					<g>
						<g>
							<path fill="#F1F2F2" d="M327.1,395.3L295,363.3l0,0c0.9-0.9,2.3-0.9,3.2-0.1l26,22c0.9,0.8,1.6,1.8,2.1,2.9l2.3,5.7&#10;&#9;&#9;&#9;&#9;&#9;&#9;&#9;&#9;L327.1,395.3z"/>
							<path fill="#E6E7E8" d="M323.9,390.7l-18.5-18.5C305.4,372.2,323.5,388.1,323.9,390.7z"/>
						</g>
						<g>
							<path fill="#F1F2F2" d="M329.2,395.9l-11.7,43.8l0,0c-1.2-0.3-2-1.5-1.7-2.7l6-33.5c0.2-1.2,0.7-2.3,1.5-3.3l3.8-4.8&#10;&#9;&#9;&#9;&#9;&#9;&#9;&#9;&#9;L329.2,395.9z"/>
							<path fill="#E6E7E8" d="M326.7,400.9l-6.8,25.3C319.9,426.2,324.7,402.6,326.7,400.9z"/>
						</g>
						<g>
							<path fill="#F1F2F2" d="M328.6,393.8l43.8-11.7l0,0c0.3,1.2-0.3,2.5-1.5,2.9l-32,11.5c-1.1,0.4-2.4,0.5-3.6,0.4l-6.1-0.9&#10;&#9;&#9;&#9;&#9;&#9;&#9;&#9;&#9;L328.6,393.8z"/>
							<path fill="#E6E7E8" d="M334.2,393.4l25.3-6.8C359.5,386.6,336.7,394.3,334.2,393.4z"/>
						</g>
					</g>
					<g>
						<path fill="#E6E7E8" d="M327.5,390.9c-0.8,0.1-1.6,0.5-2.2,1.1c-0.3,0.3-0.5,0.6-0.7,0.9l2.4,2.4l0,0l1.6-1.6L327.5,390.9z"/>
						<path fill="#E6E7E8" d="M325.2,397.7c0,0.1,0.1,0.1,0.1,0.2c0.8,0.8,1.9,1.2,3,1.2l0.9-3.2l-2.1-0.6L325.2,397.7z"/>
						<path fill="#E6E7E8" d="M328.6,393.8l0.6,2.1l3,0.4c0.4-1.1,0.3-2.4-0.3-3.4L328.6,393.8z"/>
					</g>
					<path d="M 331.100012 395 A 2.9 2.9 0 0 1 328.200012 397.9 A 2.9 2.9 0 0 1 325.300012 395 A 2.9 2.9 0 0 1 328.200012 392.1 A 2.9 2.9 0 0 1 331.100012 395 Z" fill="#E6E7E8"/>
					<path d="M 330.900012 395 A 2.7 2.7 0 0 1 328.200012 397.7 A 2.7 2.7 0 0 1 325.500012 395 A 2.7 2.7 0 0 1 328.200012 392.3 A 2.7 2.7 0 0 1 330.900012 395 Z" fill="#F1F2F2"/>
					<path d="M 329.700012 395 A 1.5 1.5 0 0 1 328.200012 396.5 A 1.5 1.5 0 0 1 326.700012 395 A 1.5 1.5 0 0 1 328.200012 393.5 A 1.5 1.5 0 0 1 329.700012 395 Z" fill="#E6E7E8"/>
					<path fill="#F1F2F2" d="M327.1,394c-0.5,0.6-0.5,1.4,0,2c0.5,0.4,1.2,0.4,1.7-0.1c0.5-0.5,0.5-1.3,0-1.8&#10;&#9;&#9;&#9;&#9;&#9;&#9;C328.3,393.6,327.6,393.6,327.1,394z"/>
					<path fill="#FFFFFF" d="M327.6,393.9c-0.1,0.1-0.2,0.1-0.3,0.2c-0.5,0.5-0.5,1.3,0,1.8c0.1,0.1,0.2,0.1,0.3,0.2&#10;&#9;&#9;&#9;&#9;&#9;&#9;C327.1,395.4,327.1,394.5,327.6,393.9z"/>
				</g>
			</g>
		</g><path d="M 267 560.400024 H 325 V 595.300026 H 267 V 560.400024 Z" fill="#E6E7E8" transform="matrix(1, 0, 0, 1, 0, 0)"/><path d="M 267 556.099976 H 325 V 564.599976 H 267 V 556.099976 Z" fill="#F15A29" transform="matrix(1, 0, 0, 1, 0, 0)"/><g transform="matrix(1, 0, 0, 1, 0, 0)">
			<g>
				<g>
					<path d="M 463.799988 218.699997 H 469.999988 V 257.799995 H 463.799988 V 218.699997 Z" fill="#D1D3D4"/>
					<path d="M 478.399994 203.199997 H 484.599994 V 257.699997 H 478.399994 V 203.199997 Z" fill="#D1D3D4"/>
				</g>
				<g>
					<path d="M 493.8999938964844 245.6999969482422 L 463 245.6999969482422 L 432.1000061035156 245.6999969482422 L 421.20001220703125 252.6999969482422 L 421.20001220703125 262.70001220703125 L 448.29998779296875 288.29998779296875 L 448.29998779296875 556.0999755859375 L 463 556.0999755859375 L 477.70001220703125 556.0999755859375 L 477.70001220703125 288.29998779296875 L 504.70001220703125 262.70001220703125 L 504.70001220703125 252.6999969482422 Z" fill="#F15A29"/>
					<path d="M 493.8999938964844 245.6999969482422 L 481.29998779296875 245.6999969482422 L 487.70001220703125 252.6999969482422 L 487.70001220703125 262.70001220703125 L 471.70001220703125 288.29998779296875 L 471.70001220703125 556.0999755859375 L 477.70001220703125 556.0999755859375 L 477.70001220703125 288.29998779296875 L 504.70001220703125 262.70001220703125 L 504.70001220703125 252.6999969482422 Z" fill="#DA4C25"/>
					<path d="M 417.399994 252.699997 H 508.599991 V 262.799997 H 417.399994 V 252.699997 Z" fill="#E6E7E8"/>
					<path d="M 442.899994 324.600006 H 483.099995 V 348.500006 H 442.899994 V 324.600006 Z" fill="#E6E7E8"/>
					<path d="M 466.799988 324.600006 H 482.999989 V 348.500006 H 466.799988 V 324.600006 Z" fill="#D1D3D4"/>
				</g>
			</g>
			<g>
				<path d="M 441.700012 392.600006 H 519.000015 V 397.000006 H 441.700012 V 392.600006 Z" fill="#DA4C25"/>
				<g>
					<path d="M 453.899994 385.899994 H 506.799995 V 403.599995 H 453.899994 V 385.899994 Z" fill="#E6E7E8"/>
					<path d="M 484.200012 385.899994 H 506.800013 V 403.599995 H 484.200012 V 385.899994 Z" fill="#D1D3D4"/>
				</g>
				<g>
					<g>
						<g>
							<path fill="#F1F2F2" d="M519,395.3l-32.1-32.1l0,0c0.9-0.9,2.3-0.9,3.2-0.1l26,22c0.9,0.8,1.6,1.8,2.1,2.9l2.3,5.7L519,395.3&#10;&#9;&#9;&#9;&#9;&#9;&#9;&#9;&#9;z"/>
							<path fill="#E6E7E8" d="M515.8,390.7l-18.5-18.5C497.3,372.2,515.4,388.1,515.8,390.7z"/>
						</g>
						<g>
							<path fill="#F1F2F2" d="M521.1,395.9l-11.7,43.8l0,0c-1.2-0.3-2-1.5-1.7-2.7l6-33.5c0.2-1.2,0.7-2.3,1.5-3.3l3.8-4.8&#10;&#9;&#9;&#9;&#9;&#9;&#9;&#9;&#9;L521.1,395.9z"/>
							<path fill="#E6E7E8" d="M518.6,400.9l-6.8,25.3C511.8,426.2,516.6,402.6,518.6,400.9z"/>
						</g>
						<g>
							<path fill="#F1F2F2" d="M520.5,393.8l43.8-11.7l0,0c0.3,1.2-0.3,2.5-1.5,2.9l-32,11.5c-1.1,0.4-2.4,0.5-3.6,0.4l-6.1-0.9&#10;&#9;&#9;&#9;&#9;&#9;&#9;&#9;&#9;L520.5,393.8z"/>
							<path fill="#E6E7E8" d="M526.1,393.4l25.3-6.8C551.4,386.6,528.6,394.3,526.1,393.4z"/>
						</g>
					</g>
					<g>
						<path fill="#E6E7E8" d="M519.4,390.9c-0.8,0.1-1.6,0.5-2.2,1.1c-0.3,0.3-0.5,0.6-0.7,0.9l2.4,2.4l0,0l1.6-1.6L519.4,390.9z"/>
						<path fill="#E6E7E8" d="M517.1,397.7c0,0.1,0.1,0.1,0.1,0.2c0.8,0.8,1.9,1.2,3,1.2l0.9-3.2l-2.1-0.6L517.1,397.7z"/>
						<path fill="#E6E7E8" d="M520.5,393.8l0.6,2.1l3,0.4c0.4-1.1,0.3-2.4-0.3-3.4L520.5,393.8z"/>
					</g>
					<path d="M 522.999976 395 A 2.9 2.9 0 0 1 520.099976 397.9 A 2.9 2.9 0 0 1 517.199975 395 A 2.9 2.9 0 0 1 520.099976 392.1 A 2.9 2.9 0 0 1 522.999976 395 Z" fill="#E6E7E8"/>
					<path d="M 522.799976 395 A 2.7 2.7 0 0 1 520.099976 397.7 A 2.7 2.7 0 0 1 517.399976 395 A 2.7 2.7 0 0 1 520.099976 392.3 A 2.7 2.7 0 0 1 522.799976 395 Z" fill="#F1F2F2"/>
					<path d="M 521.599976 395 A 1.5 1.5 0 0 1 520.099976 396.5 A 1.5 1.5 0 0 1 518.599976 395 A 1.5 1.5 0 0 1 520.099976 393.5 A 1.5 1.5 0 0 1 521.599976 395 Z" fill="#E6E7E8"/>
					<path fill="#F1F2F2" d="M519,394c-0.5,0.6-0.5,1.4,0,2c0.5,0.4,1.2,0.4,1.7-0.1c0.5-0.5,0.5-1.3,0-1.8&#10;&#9;&#9;&#9;&#9;&#9;&#9;C520.2,393.6,519.5,393.6,519,394z"/>
					<path fill="#FFFFFF" d="M519.5,393.9c-0.1,0.1-0.2,0.1-0.3,0.2c-0.5,0.5-0.5,1.3,0,1.8c0.1,0.1,0.2,0.1,0.3,0.2&#10;&#9;&#9;&#9;&#9;&#9;&#9;C519,395.4,519,394.5,519.5,393.9z"/>
				</g>
			</g>
			<g>
				<path d="M 416.799988 392.600006 H 494.099991 V 397.000006 H 416.799988 V 392.600006 Z" fill="#DA4C25"/>
				<g>
					<path d="M 429 385.899994 H 481.900002 V 403.599995 H 429 V 385.899994 Z" fill="#E6E7E8"/>
					<path d="M 459.299988 385.899994 H 481.899988 V 403.599995 H 459.299988 V 385.899994 Z" fill="#D1D3D4"/>
				</g>
				<g>
					<g>
						<g>
							<path fill="#F1F2F2" d="M494.1,395.3L462,363.3l0,0c0.9-0.9,2.3-0.9,3.2-0.1l26,22c0.9,0.8,1.6,1.8,2.1,2.9l2.3,5.7&#10;&#9;&#9;&#9;&#9;&#9;&#9;&#9;&#9;L494.1,395.3z"/>
							<path fill="#E6E7E8" d="M490.9,390.7l-18.5-18.5C472.4,372.2,490.5,388.1,490.9,390.7z"/>
						</g>
						<g>
							<path fill="#F1F2F2" d="M496.2,395.9l-11.7,43.8l0,0c-1.2-0.3-2-1.5-1.7-2.7l6-33.5c0.2-1.2,0.7-2.3,1.5-3.3l3.8-4.8&#10;&#9;&#9;&#9;&#9;&#9;&#9;&#9;&#9;L496.2,395.9z"/>
							<path fill="#E6E7E8" d="M493.7,400.9l-6.8,25.3C486.9,426.2,491.7,402.6,493.7,400.9z"/>
						</g>
						<g>
							<path fill="#F1F2F2" d="M495.6,393.8l43.8-11.7l0,0c0.3,1.2-0.3,2.5-1.5,2.9l-32,11.5c-1.1,0.4-2.4,0.5-3.6,0.4l-6.1-0.9&#10;&#9;&#9;&#9;&#9;&#9;&#9;&#9;&#9;L495.6,393.8z"/>
							<path fill="#E6E7E8" d="M501.2,393.4l25.3-6.8C526.5,386.6,503.7,394.3,501.2,393.4z"/>
						</g>
					</g>
					<g>
						<path fill="#E6E7E8" d="M494.5,390.9c-0.8,0.1-1.6,0.5-2.2,1.1c-0.3,0.3-0.5,0.6-0.7,0.9l2.4,2.4l0,0l1.6-1.6L494.5,390.9z"/>
						<path fill="#E6E7E8" d="M492.2,397.7c0,0.1,0.1,0.1,0.1,0.2c0.8,0.8,1.9,1.2,3,1.2l0.9-3.2l-2.1-0.6L492.2,397.7z"/>
						<path fill="#E6E7E8" d="M495.6,393.8l0.6,2.1l3,0.4c0.4-1.1,0.3-2.4-0.3-3.4L495.6,393.8z"/>
					</g>
					<path d="M 498.100012 395 A 2.9 2.9 0 0 1 495.200012 397.9 A 2.9 2.9 0 0 1 492.300012 395 A 2.9 2.9 0 0 1 495.200012 392.1 A 2.9 2.9 0 0 1 498.100012 395 Z" fill="#E6E7E8"/>
					<path d="M 497.900012 395 A 2.7 2.7 0 0 1 495.200012 397.7 A 2.7 2.7 0 0 1 492.500012 395 A 2.7 2.7 0 0 1 495.200012 392.3 A 2.7 2.7 0 0 1 497.900012 395 Z" fill="#F1F2F2"/>
					<path d="M 496.700012 395 A 1.5 1.5 0 0 1 495.200012 396.5 A 1.5 1.5 0 0 1 493.700012 395 A 1.5 1.5 0 0 1 495.200012 393.5 A 1.5 1.5 0 0 1 496.700012 395 Z" fill="#E6E7E8"/>
					<path fill="#F1F2F2" d="M494.1,394c-0.5,0.6-0.5,1.4,0,2c0.5,0.4,1.2,0.4,1.7-0.1c0.5-0.5,0.5-1.3,0-1.8&#10;&#9;&#9;&#9;&#9;&#9;&#9;C495.3,393.6,494.6,393.6,494.1,394z"/>
					<path fill="#FFFFFF" d="M494.6,393.9c-0.1,0.1-0.2,0.1-0.3,0.2c-0.5,0.5-0.5,1.3,0,1.8c0.1,0.1,0.2,0.1,0.3,0.2&#10;&#9;&#9;&#9;&#9;&#9;&#9;C494.1,395.4,494.1,394.5,494.6,393.9z"/>
				</g>
			</g>
		</g><path d="M 434 560.400024 H 492 V 595.300026 H 434 V 560.400024 Z" fill="#E6E7E8" transform="matrix(1, 0, 0, 1, 0, 0)"/><path d="M 434 556.099976 H 492 V 564.599976 H 434 V 556.099976 Z" fill="#F15A29" transform="matrix(1, 0, 0, 1, 0, 0)"/><path fill="#FFFFFF" d="M256.9,146.1c-0.2-0.2,50.8-22,65.9-10.9c0,0,8.3-13.8,20.5-15.5c12.2-1.7,16.6,5.3,16.6,5.3&#10;&#9;&#9;c0,0,13.5-14.3,18.9-15c5.4-0.7,10.4,11.3,10.4,11.3c0,0,10.4-18.4,29.3-21.6c18.9-3.1,31.5,21.8,31.4,21.8c0,0,9.9-8.4,15.6-6.7&#10;&#9;&#9;c5.7,1.7,6,16.6,6,16.6c-0.1,0,20.3-11,40.6,14.7C427.1,139.4,341.8,139.4,256.9,146.1z" transform="matrix(1, 0, 0, 1, 0, 0)"/><path d="M 0 334.100006 H 841.900024 V 595.300018 H 0 V 334.100006 Z" opacity="0.5" fill="#55BBD1" transform="matrix(1, 0, 0, 1, 0, 0)"/><path opacity="0.35" fill="#FFFFFF" d="M0,355.2c0,0,112.4-11,169.7-5.3s176.1,24.9,214.7,25.2C423,375.5,572,358.4,614,361.6&#10;&#9;&#9;&#9;s127,12.7,151,10.4c24-2.3,76.9-16.8,76.9-16.8l0,16.8c0,0-65.9,23-89.9,23.6c-24,0.6-129-18.5-150-18.5s-159,27-192,24.7&#10;&#9;&#9;&#9;s-220.5-32.2-237.2-36c-16.7-3.8-172.8,19-172.8,19L0,355.2z" transform="matrix(1, 0, 0, 1, 0, 0)"/><path opacity="0.35" fill="#FFFFFF" d="M482.5,432.9c0,0,68.4,9.9,99.4,8.5c30.9-1.4,74.9-27.9,106.2-25.4&#10;&#9;&#9;&#9;c31.3,2.5,94.5,24.2,106.9,25.4c12.4,1.2,46.9-14.5,46.9-14.5v23.8c0,0-33.7,9.2-49.4,6.6s-88.2-18.9-102.2-21&#10;&#9;&#9;&#9;c-14-2-84.9,15-108.4,13.7C558.4,448.6,482.5,432.9,482.5,432.9z" transform="matrix(1, 0, 0, 1, 0, 0)"/><path opacity="0.35" fill="#FFFFFF" d="M334.2,446.9c0,0-105.3-25.7-128.7-23.2s-102,19.1-118.3,20.7C71,446.1,0,433.9,0,433.9&#10;&#9;&#9;&#9;v14.6c0,0,41,16.1,77,21.3s123.8-32.1,140.4-32.1S334.2,446.9,334.2,446.9z" transform="matrix(1, 0, 0, 1, 0, 0)"/><path opacity="0.35" fill="#FFFFFF" d="M0,492.8c0,0,70,10.4,95,10.2c25-0.2,126.6-9.3,154.8-10.2c28.2-0.8,148.9,14.9,167.6,17.4&#10;&#9;&#9;&#9;s120.5-14.9,134.1-14.1C565,497,654,518,680,516.2s161.9-23.4,161.9-23.4V503c0,0-107.9,33.8-128.9,35.4s-182.9-20.7-195.9-22.8&#10;&#9;&#9;&#9;c-13.1-2.1-118.2,12-132.6,12c-14.4,0-125.8-26.1-134.6-24.6S117,522.7,95,522.7s-95-7-95-7V492.8z" transform="matrix(1, 0, 0, 1, 0, 0)"/><path opacity="0.35" fill="#FFFFFF" d="M546.4,472.5c0,0-64.1-8.7-88.1-9.8S337,468.5,337,468.5s95.3-22.5,121.3-22.5&#10;&#9;&#9;&#9;S546.4,472.5,546.4,472.5z" transform="matrix(1, 0, 0, 1, 0, 0)"/>
</svg>