<?xml version="1.0" encoding="utf-8"?>
<svg id="master-artboard" viewBox="0 0 841.9 595.3" version="1.1" xmlns="http://www.w3.org/2000/svg" x="0px" y="0px" width="841.9000244140625px" height="595.2999877929688px" enable-background="new 0 0 841.9 595.3">
<path fill="#DB8827" d="M54.4,393.3l6.1-6.6c-3.6-12-9.2-23.1-15.7-22.5c-7.2,0.7-14.7,18-17.9,33.7l6.9,7.5l-7.7-3.5&#10;&#9;&#9;c-1.1,7-1.3,13.3-0.1,17.4c4.2,13.6,18.7,10.8,18.7,10.8c12,0,19.7-6.7,19.7-20.3c0-4.9-1.1-12.3-3.1-19.8L54.4,393.3z" transform="matrix(1, 0, 0, 1, 2.842170943040401e-14, 7.105427357601002e-15)"/><path fill="#8B5E3C" d="M37.2,414.3c0,0,4.7,5.9,5.4,15.4c0.7,9.4-1.4,20.7-1.4,20.7s3.2,2.7,7,0c0,0-1.1-14.6,0-24.3&#10;&#9;&#9;c1.1-9.7,4.3-17.1,4.3-17.1l-2.3-1.4c0,0-2.5,9-5.4,10.6c-2.9,1.6-5.9-5.9-5.9-5.9L37.2,414.3z" transform="matrix(1, 0, 0, 1, 2.842170943040401e-14, 7.105427357601002e-15)"/>
<linearGradient id="SVGID_1_" gradientUnits="userSpaceOnUse" x1="420.945" y1="4" x2="420.945" y2="453.4441">
		<stop offset="0" style="stop-color:#ADC4E6"/>
		<stop offset="1" style="stop-color:#E1E8F6"/>
	</linearGradient><path d="M 0 0 H 841.900024 V 595.299988 H 0 V 0 Z" fill="url(#SVGID_1_)" transform="matrix(1, 0, 0, 1, 2.842170943040401e-14, 7.105427357601002e-15)"/><path fill="#FFFFFF" d="M125.9,171.8c0,0,61.8-21.9,79-8.4c0,0,10.5-16,24.8-17.7s19.4,6.8,19.4,6.8s16.1-16.9,22.4-17.7&#10;&#9;&#9;c6.3-0.8,12.2,13.5,12.2,13.5s12.2-21.9,34-26.2c21.8-4.2,37.5,24.9,37.5,24.9s11.2-10.5,18-8.9s8,19.4,8,19.4s22.9-14.3,49.2,14.3&#10;&#9;&#9;H125.9z" transform="matrix(1, 0, 0, 1, 2.842170943040401e-14, 7.105427357601002e-15)"/><path fill="#E5EDF8" d="M182.2,182.3c0,0,362,108.5,659.6,108.5V243C841.9,243,581.3,253.6,182.2,182.3z" transform="matrix(1, 0, 0, 1, 5.684341886080802e-14, 1.4210854715202004e-14)"/><path fill="#E5EDF8" d="M0,185.7c0,0,273.7,146.1,841.9,191.9v11.8c0,0-532.5-5.8-841.9-139.5V185.7z" transform="matrix(1, 0, 0, 1, 8.526512829121202e-14, 2.1316282072803006e-14)"/><path fill="#FFFFFF" d="M301,426.2c0,0,116.8-92,165.4-39c0,0,13.6-35,37.6-44s45,24.2,45,24.2s13.4-47.2,66.7-55.2&#10;&#9;&#9;&#9;c53.3-8,78.3,48.9,78.3,48.9s13.2-47.5,62-68.9c48.8-21.4,85.9,8.6,85.9,8.6v125.4H301z" transform="matrix(1, 0, 0, 1, 5.684341886080802e-14, 1.4210854715202004e-14)"/><path fill="#F1F2F2" d="M764.9,374.1c0,0-1-30-38-18.7c-37,11.3-60,53.7-60,53.7s-12-30-59-31s-95,31-95,31&#10;&#9;&#9;&#9;c-36.8-29-96.6-1.5-128.4,17.1h457.4v-87.1C777.9,318.1,764.9,374.1,764.9,374.1z" transform="matrix(1, 0, 0, 1, 5.684341886080802e-14, 1.4210854715202004e-14)"/><path d="M 0 406 H 841.900024 V 595.300003 H 0 V 406 Z" fill="#2968A1" transform="matrix(1, 0, 0, 1, 2.842170943040401e-14, 7.105427357601002e-15)"/><path d="M 384.70001220703125 199.6999969482422 L 378 199.6999969482422 L 371.70001220703125 521.2999877929688 L 391 521.2999877929688 Z" fill="#F1F2F2" transform="matrix(1, 0, 0, 1, 5.684341886080802e-14, 1.4210854715202004e-14)"/><path d="M 384.70001220703125 199.6999969482422 L 383 199.6999969482422 L 386 521.2999877929688 L 391 521.2999877929688 Z" fill="#E6E7E8" transform="matrix(1, 0, 0, 1, 8.526512829121202e-14, 2.1316282072803006e-14)"/><g transform="matrix(1, 0, 0, 1, 8.526512829121202e-14, 2.1316282072803006e-14)">
				<g>
					<path fill="#F1F2F2" d="M378.3,197.3V74l0,0c3.4,0,6.2,2.6,6.5,6l7.7,92.3c0.3,3.3-0.3,6.6-1.6,9.6l-6.7,15.4H378.3z"/>
					<path fill="#E6E7E8" d="M381.4,182.3v-71.2C381.4,111.1,385.4,176.5,381.4,182.3z"/>
				</g>
				<g>
					<path fill="#F1F2F2" d="M381.4,202.5l-106.8,61.7l0,0c-1.7-2.9-0.9-6.7,1.9-8.6l76.1-52.9c2.7-1.9,5.8-3.1,9.1-3.4l16.7-1.9&#10;&#9;&#9;&#9;&#9;&#9;&#9;L381.4,202.5z"/>
					<path fill="#E6E7E8" d="M366.9,207.4L305.2,243C305.2,243,359.8,206.8,366.9,207.4z"/>
				</g>
				<g>
					<path fill="#F1F2F2" d="M384.4,197.3L491.2,259l0,0c-1.7,2.9-5.4,4.1-8.4,2.6l-83.8-39.5c-3-1.4-5.6-3.5-7.5-6.2l-10-13.5&#10;&#9;&#9;&#9;&#9;&#9;&#9;L384.4,197.3z"/>
					<path fill="#E6E7E8" d="M395.8,207.4l61.7,35.6C457.5,243,398.9,213.8,395.8,207.4z"/>
				</g>
			</g><path fill="#E6E7E8" d="M387.7,189.5c-1.8-1.2-4-2-6.4-2c-1,0-2.1,0.2-3,0.4v9.3h0h6L387.7,189.5z" transform="matrix(1, 0, 0, 1, 1.1368683772161603e-13, 2.842170943040401e-14)"/><path fill="#E6E7E8" d="M370.1,198.3c0,0.2,0,0.4,0,0.6c0,3.2,1.3,6.1,3.5,8.2l7.8-4.5l-3-5.2L370.1,198.3z" transform="matrix(1, 0, 0, 1, 1.1368683772161603e-13, 2.842170943040401e-14)"/><path fill="#E6E7E8" d="M384.4,197.3l-3,5.2l4.8,6.5c2.9-1.4,5.2-4,6-7.2L384.4,197.3z" transform="matrix(1, 0, 0, 1, 1.1368683772161603e-13, 2.842170943040401e-14)"/><path d="M 389.199994 198.800003 A 7.8 7.8 0 0 1 381.399994 206.600003 A 7.8 7.8 0 0 1 373.599994 198.800003 A 7.8 7.8 0 0 1 381.399994 191.000003 A 7.8 7.8 0 0 1 389.199994 198.800003 Z" fill="#E6E7E8" transform="matrix(1, 0, 0, 1, 8.526512829121202e-14, 2.1316282072803006e-14)"/><path d="M 388.799994 198.800003 A 7.4 7.4 0 0 1 381.399994 206.200003 A 7.4 7.4 0 0 1 373.999994 198.800003 A 7.4 7.4 0 0 1 381.399994 191.400003 A 7.4 7.4 0 0 1 388.799994 198.800003 Z" fill="#F1F2F2" transform="matrix(1, 0, 0, 1, 8.526512829121202e-14, 2.1316282072803006e-14)"/><path d="M 385.499994 198.800003 A 4.1 4.1 0 0 1 381.399994 202.900003 A 4.1 4.1 0 0 1 377.299994 198.800003 A 4.1 4.1 0 0 1 381.399994 194.700003 A 4.1 4.1 0 0 1 385.499994 198.800003 Z" fill="#E6E7E8" transform="matrix(1, 0, 0, 1, 8.526512829121202e-14, 2.1316282072803006e-14)"/><path fill="#F1F2F2" d="M381,194.7c-2,0.2-3.6,1.8-3.8,3.8c0.2,1.7,1.6,3.1,3.4,3.1c1.9,0,3.4-1.5,3.4-3.4&#10;&#9;&#9;&#9;&#9;C384.1,196.4,382.7,194.9,381,194.7z" transform="matrix(1, 0, 0, 1, 8.526512829121202e-14, 2.1316282072803006e-14)"/><path fill="#FFFFFF" d="M382.2,195.6c-0.3-0.1-0.6-0.1-0.8-0.1c-1.9,0-3.4,1.5-3.4,3.4c0,0.3,0,0.6,0.1,0.8&#10;&#9;&#9;&#9;&#9;C378.4,197.5,380.1,195.9,382.2,195.6z" transform="matrix(1, 0, 0, 1, 8.526512829121202e-14, 2.1316282072803006e-14)"/><path d="M 568.4000244140625 207.6999969482422 L 562.2000122070312 207.6999969482422 L 556.4000244140625 503 L 574.0999755859375 503 Z" fill="#F1F2F2" transform="matrix(1, 0, 0, 1, 5.684341886080802e-14, 1.4210854715202004e-14)"/><path d="M 568.4000244140625 207.6999969482422 L 566.7999877929688 207.6999969482422 L 569.5999755859375 503 L 574.0999755859375 503 Z" fill="#E6E7E8" transform="matrix(1, 0, 0, 1, 8.526512829121202e-14, 2.1316282072803006e-14)"/><g transform="matrix(1, 0, 0, 1, 8.526512829121202e-14, 2.1316282072803006e-14)">
				<g>
					<path fill="#F1F2F2" d="M562.5,205.5V92.2l0,0c3.1,0,5.7,2.4,6,5.5l7.1,84.8c0.3,3-0.2,6.1-1.4,8.8l-6.1,14.1H562.5z"/>
					<path fill="#E6E7E8" d="M565.3,191.7v-65.4C565.3,126.3,569,186.4,565.3,191.7z"/>
				</g>
				<g>
					<path fill="#F1F2F2" d="M565.3,210.3l-98.1,56.6l0,0c-1.6-2.7-0.8-6.1,1.8-7.9l69.9-48.6c2.5-1.7,5.4-2.8,8.4-3.2l15.3-1.8&#10;&#9;&#9;&#9;&#9;&#9;&#9;L565.3,210.3z"/>
					<path fill="#E6E7E8" d="M552,214.8l-56.6,32.7C495.3,247.5,545.5,214.2,552,214.8z"/>
				</g>
				<g>
					<path fill="#F1F2F2" d="M568,205.5l98.1,56.6l0,0c-1.6,2.7-4.9,3.8-7.7,2.4l-77-36.2c-2.7-1.3-5.1-3.2-6.9-5.7l-9.2-12.4&#10;&#9;&#9;&#9;&#9;&#9;&#9;L568,205.5z"/>
					<path fill="#E6E7E8" d="M578.6,214.8l56.6,32.7C635.2,247.5,581.4,220.7,578.6,214.8z"/>
				</g>
			</g><path fill="#E6E7E8" d="M571.1,198.3c-1.7-1.1-3.7-1.8-5.8-1.8c-1,0-1.9,0.1-2.8,0.4v8.6h0h5.5L571.1,198.3z" transform="matrix(1, 0, 0, 1, 1.1368683772161603e-13, 2.842170943040401e-14)"/><path fill="#E6E7E8" d="M554.9,206.4c0,0.2,0,0.4,0,0.5c0,2.9,1.2,5.6,3.2,7.5l7.2-4.1l-2.8-4.8L554.9,206.4z" transform="matrix(1, 0, 0, 1, 1.1368683772161603e-13, 2.842170943040401e-14)"/><path fill="#E6E7E8" d="M568,205.5l-2.8,4.8l4.5,6c2.7-1.3,4.7-3.7,5.5-6.6L568,205.5z" transform="matrix(1, 0, 0, 1, 1.1368683772161603e-13, 2.842170943040401e-14)"/><path d="M 572.499988 206.899994 A 7.2 7.2 0 0 1 565.299988 214.099994 A 7.2 7.2 0 0 1 558.099988 206.899994 A 7.2 7.2 0 0 1 565.299988 199.699994 A 7.2 7.2 0 0 1 572.499988 206.899994 Z" fill="#E6E7E8" transform="matrix(1, 0, 0, 1, 8.526512829121202e-14, 2.1316282072803006e-14)"/><path d="M 572.099988 206.899994 A 6.8 6.8 0 0 1 565.299988 213.699994 A 6.8 6.8 0 0 1 558.499988 206.899994 A 6.8 6.8 0 0 1 565.299988 200.099994 A 6.8 6.8 0 0 1 572.099988 206.899994 Z" fill="#F1F2F2" transform="matrix(1, 0, 0, 1, 8.526512829121202e-14, 2.1316282072803006e-14)"/><path d="M 569.099988 206.899994 A 3.8 3.8 0 0 1 565.299988 210.699994 A 3.8 3.8 0 0 1 561.499988 206.899994 A 3.8 3.8 0 0 1 565.299988 203.099994 A 3.8 3.8 0 0 1 569.099988 206.899994 Z" fill="#E6E7E8" transform="matrix(1, 0, 0, 1, 8.526512829121202e-14, 2.1316282072803006e-14)"/><path fill="#F1F2F2" d="M565,203.1c-1.8,0.2-3.3,1.6-3.4,3.4c0.2,1.6,1.5,2.8,3.1,2.8c1.7,0,3.2-1.4,3.2-3.2&#10;&#9;&#9;&#9;&#9;C567.8,204.6,566.6,203.3,565,203.1z" transform="matrix(1, 0, 0, 1, 8.526512829121202e-14, 2.1316282072803006e-14)"/><path fill="#FFFFFF" d="M566.1,203.9c-0.2-0.1-0.5-0.1-0.8-0.1c-1.7,0-3.1,1.4-3.1,3.1c0,0.3,0,0.5,0.1,0.8&#10;&#9;&#9;&#9;&#9;C562.5,205.7,564.1,204.2,566.1,203.9z" transform="matrix(1, 0, 0, 1, 8.526512829121202e-14, 2.1316282072803006e-14)"/><path d="M 723.2000122070312 222.3000030517578 L 717.5999755859375 222.3000030517578 L 712.2999877929688 493.5 L 728.5 493.5 Z" fill="#F1F2F2" transform="matrix(1, 0, 0, 1, 5.684341886080802e-14, 1.4210854715202004e-14)"/><path d="M 723.2000122070312 222.3000030517578 L 721.7999877929688 222.3000030517578 L 724.2999877929688 493.5 L 728.5 493.5 Z" fill="#E6E7E8" transform="matrix(1, 0, 0, 1, 8.526512829121202e-14, 2.1316282072803006e-14)"/><g transform="matrix(1, 0, 0, 1, 8.526512829121202e-14, 2.1316282072803006e-14)">
				<g>
					<path fill="#F1F2F2" d="M717.9,220.3v-104l0,0c2.9,0,5.2,2.2,5.5,5l6.5,77.9c0.2,2.8-0.2,5.6-1.3,8.1l-5.6,13H717.9z"/>
					<path fill="#E6E7E8" d="M720.4,207.6v-60.1C720.4,147.6,723.8,202.7,720.4,207.6z"/>
				</g>
				<g>
					<path fill="#F1F2F2" d="M720.4,224.7l-90.1,52l0,0c-1.4-2.5-0.7-5.6,1.6-7.3l64.2-44.6c2.3-1.6,4.9-2.6,7.7-2.9l14-1.6&#10;&#9;&#9;&#9;&#9;&#9;&#9;L720.4,224.7z"/>
					<path fill="#E6E7E8" d="M708.2,228.8l-52,30C656.2,258.8,702.2,228.3,708.2,228.8z"/>
				</g>
				<g>
					<path fill="#F1F2F2" d="M722.9,220.3l90.1,52h0c-1.4,2.5-4.5,3.4-7.1,2.2l-70.7-33.3c-2.5-1.2-4.7-3-6.4-5.2l-8.4-11.4&#10;&#9;&#9;&#9;&#9;&#9;&#9;L722.9,220.3z"/>
					<path fill="#E6E7E8" d="M732.6,228.8l52,30C784.6,258.8,735.2,234.2,732.6,228.8z"/>
				</g>
			</g><path fill="#E6E7E8" d="M725.8,213.7c-1.5-1-3.4-1.7-5.4-1.7c-0.9,0-1.7,0.1-2.5,0.4v7.9h0h5L725.8,213.7z" transform="matrix(1, 0, 0, 1, 1.1368683772161603e-13, 2.842170943040401e-14)"/><path fill="#E6E7E8" d="M710.9,221.1c0,0.2,0,0.3,0,0.5c0,2.7,1.1,5.1,3,6.9l6.6-3.8l-2.5-4.4L710.9,221.1z" transform="matrix(1, 0, 0, 1, 1.1368683772161603e-13, 2.842170943040401e-14)"/><path fill="#E6E7E8" d="M722.9,220.3l-2.5,4.4l4.1,5.5c2.5-1.2,4.3-3.4,5.1-6.1L722.9,220.3z" transform="matrix(1, 0, 0, 1, 1.1368683772161603e-13, 2.842170943040401e-14)"/><path d="M 727.000024 221.600006 A 6.6 6.6 0 0 1 720.400024 228.200006 A 6.6 6.6 0 0 1 713.800025 221.600006 A 6.6 6.6 0 0 1 720.400024 215.000006 A 6.6 6.6 0 0 1 727.000024 221.600006 Z" fill="#E6E7E8" transform="matrix(1, 0, 0, 1, 8.526512829121202e-14, 2.1316282072803006e-14)"/><path d="M 726.600024 221.600006 A 6.2 6.2 0 0 1 720.400024 227.800006 A 6.2 6.2 0 0 1 714.200025 221.600006 A 6.2 6.2 0 0 1 720.400024 215.400006 A 6.2 6.2 0 0 1 726.600024 221.600006 Z" fill="#F1F2F2" transform="matrix(1, 0, 0, 1, 8.526512829121202e-14, 2.1316282072803006e-14)"/><path d="M 723.900024 221.600006 A 3.5 3.5 0 0 1 720.400024 225.100006 A 3.5 3.5 0 0 1 716.900024 221.600006 A 3.5 3.5 0 0 1 720.400024 218.100006 A 3.5 3.5 0 0 1 723.900024 221.600006 Z" fill="#E6E7E8" transform="matrix(1, 0, 0, 1, 8.526512829121202e-14, 2.1316282072803006e-14)"/><path fill="#F1F2F2" d="M720.1,218.1c-1.7,0.1-3,1.5-3.2,3.2c0.2,1.5,1.4,2.6,2.9,2.6c1.6,0,2.9-1.3,2.9-2.9&#10;&#9;&#9;&#9;&#9;C722.7,219.5,721.6,218.3,720.1,218.1z" transform="matrix(1, 0, 0, 1, 8.526512829121202e-14, 2.1316282072803006e-14)"/><path fill="#FFFFFF" d="M721.1,218.8c-0.2-0.1-0.5-0.1-0.7-0.1c-1.6,0-2.9,1.3-2.9,2.9c0,0.2,0,0.5,0.1,0.7&#10;&#9;&#9;&#9;&#9;C717.9,220.5,719.3,219.1,721.1,218.8z" transform="matrix(1, 0, 0, 1, 8.526512829121202e-14, 2.1316282072803006e-14)"/><linearGradient id="SVGID_2_" gradientUnits="userSpaceOnUse" x1="420.945" y1="566" x2="420.945" y2="449.9291">
		<stop offset="0" style="stop-color:#D89B22"/>
		<stop offset="1" style="stop-color:#E7BB20"/>
	</linearGradient><path fill="url(#SVGID_2_)" d="M841.9,562v-41.3c0,0-519.8-76.6-841.9-76.6L0,562H841.9z" transform="matrix(1, 0, 0, 1, 2.842170943040401e-14, 7.105427357601002e-15)"/><g transform="matrix(1, 0, 0, 1, 5.684341886080802e-14, 1.4210854715202004e-14)">
			<path fill="#F3CF24" d="M766.2,562c-24.2-29.2-46.4-48.1-64.7-60.3c17.6,2.3,33.9,4.4,48.7,6.4c26.7,17.2,48.4,37.9,63.4,54&#10;&#9;&#9;&#9;&#9;H766.2z"/>
			<path fill="#F3CF24" d="M549.8,483.3c16.6,1.9,32.9,3.8,48.6,5.6c37.1,21.6,66.8,51.6,85.3,73h-50.1&#10;&#9;&#9;&#9;&#9;C601,519.6,571.7,496.2,549.8,483.3z"/>
			<path fill="#F3CF24" d="M402.2,467.8c16.3,1.6,32.6,3.2,48.6,4.8c45.7,24.7,81.9,63.5,102.8,89.3h-52.8&#10;&#9;&#9;&#9;&#9;C461.3,507.5,426.2,480.8,402.2,467.8z"/>
			<path fill="#F3CF24" d="M260.6,455.6c16,1.2,32.1,2.5,48.2,3.8c51.6,27.5,92.3,73.5,114.6,102.6h-55.5&#10;&#9;&#9;&#9;&#9;C324.4,499.1,286,469.5,260.6,455.6z"/>
			<path fill="#F3CF24" d="M125.9,447.3c15.7,0.7,31.6,1.5,47.7,2.5c54.2,30.6,96.7,81.2,119.4,112.2h-58.2&#10;&#9;&#9;&#9;&#9;C191.4,496.3,152.7,463.6,125.9,447.3z"/>
			<path fill="#F3CF24" d="M0,444.1c14.7,0,29.9,0.2,45.4,0.5c53.4,34,95,86,117,117.4h-60.9C62.5,500.7,27.1,465.6,0,445.6L0,444.1&#10;&#9;&#9;&#9;&#9;z"/>
		</g><linearGradient id="SVGID_3_" gradientUnits="userSpaceOnUse" x1="420.945" y1="621" x2="420.945" y2="505.9305">
		<stop offset="0" style="stop-color:#D89B22"/>
		<stop offset="1" style="stop-color:#E7BB20"/>
	</linearGradient><path fill="url(#SVGID_3_)" d="M0,595.3V554c0,0,519.8-76.6,841.9-76.6v117.8H0z" transform="matrix(1, 0, 0, 1, 2.842170943040401e-14, 7.105427357601002e-15)"/><g transform="matrix(1, 0, 0, 1, 5.684341886080802e-14, 1.4210854715202004e-14)">
			<path fill="#F3CF24" d="M75.7,595.3c24.2-29.2,46.4-48.1,64.7-60.3c-17.6,2.3-33.9,4.4-48.7,6.4c-26.7,17.2-48.4,37.9-63.4,54&#10;&#9;&#9;&#9;&#9;H75.7z"/>
			<path fill="#F3CF24" d="M292.1,516.6c-16.6,1.9-32.9,3.8-48.6,5.6c-37.1,21.6-66.8,51.6-85.3,73h50.1&#10;&#9;&#9;&#9;&#9;C240.9,553,270.2,529.6,292.1,516.6z"/>
			<path fill="#F3CF24" d="M439.7,501.1c-16.3,1.6-32.6,3.2-48.6,4.8c-45.7,24.7-81.9,63.5-102.8,89.3h52.8&#10;&#9;&#9;&#9;&#9;C380.6,540.9,415.7,514.2,439.7,501.1z"/>
			<path fill="#F3CF24" d="M581.3,488.9c-16,1.2-32.1,2.5-48.2,3.8c-51.6,27.5-92.3,73.5-114.6,102.6h55.5&#10;&#9;&#9;&#9;&#9;C517.4,532.5,555.9,502.8,581.3,488.9z"/>
			<path fill="#F3CF24" d="M716,480.6c-15.7,0.7-31.6,1.5-47.7,2.5c-54.2,30.6-96.7,81.2-119.4,112.2h58.2&#10;&#9;&#9;&#9;&#9;C650.5,529.7,689.2,496.9,716,480.6z"/>
			<path fill="#F3CF24" d="M841.9,477.4c-14.7,0-29.9,0.2-45.4,0.5c-53.4,34-95,86-117,117.4h60.9c38.9-61.3,74.3-96.4,101.4-116.4&#10;&#9;&#9;&#9;&#9;V477.4z"/>
		</g><path fill="#8F6F2B" d="M104.3,396.8l6.1-6.6c-3.6-12-9.2-23.1-15.7-22.5c-7.2,0.7-14.7,18-17.9,33.7l6.9,7.5l-7.7-3.5&#10;&#9;&#9;&#9;c-1.1,7-1.3,13.3-0.1,17.4c4.2,13.6,18.7,10.8,18.7,10.8c12,0,19.7-6.7,19.7-20.3c0-4.9-1.1-12.3-3.1-19.8L104.3,396.8z" transform="matrix(1, 0, 0, 1, 5.684341886080802e-14, 1.4210854715202004e-14)"/><path fill="#8B5E3C" d="M87.1,417.9c0,0,4.7,5.9,5.4,15.4c0.7,9.4-1.4,20.7-1.4,20.7s3.2,2.7,7,0c0,0-1.1-14.6,0-24.3&#10;&#9;&#9;&#9;c1.1-9.7,4.3-17.1,4.3-17.1l-2.3-1.4c0,0-2.5,9-5.4,10.6c-2.9,1.6-5.9-5.9-5.9-5.9L87.1,417.9z" transform="matrix(1, 0, 0, 1, 5.684341886080802e-14, 1.4210854715202004e-14)"/><path fill="#DB8827" d="M172.2,400.4l6.1-6.6c-3.6-12-9.2-23.1-15.7-22.5c-7.2,0.7-14.7,18-17.9,33.7l6.9,7.5L144,409&#10;&#9;&#9;&#9;c-1.1,7-1.3,13.3-0.1,17.4c4.2,13.6,18.7,10.8,18.7,10.8c12,0,19.7-6.7,19.7-20.3c0-4.9-1.1-12.3-3.1-19.8L172.2,400.4z" transform="matrix(1, 0, 0, 1, 5.684341886080802e-14, 1.4210854715202004e-14)"/><path fill="#8B5E3C" d="M154.9,421.4c0,0,4.7,5.9,5.4,15.4c0.7,9.4-1.4,20.7-1.4,20.7s3.2,2.7,7,0c0,0-1.1-14.6,0-24.3&#10;&#9;&#9;&#9;c1.1-9.7,4.3-17.1,4.3-17.1l-2.3-1.4c0,0-2.5,9-5.4,10.6c-2.9,1.6-5.9-5.9-5.9-5.9L154.9,421.4z" transform="matrix(1, 0, 0, 1, 5.684341886080802e-14, 1.4210854715202004e-14)"/><path fill="#8F6F2B" d="M238.5,403.9l6.1-6.6c-3.6-12-9.2-23.1-15.7-22.5c-7.2,0.7-14.7,18-17.9,33.7l6.9,7.5l-7.7-3.5&#10;&#9;&#9;&#9;c-1.1,7-1.3,13.3-0.1,17.4c4.2,13.6,18.7,10.8,18.7,10.8c12,0,19.7-6.7,19.7-20.3c0-4.9-1.1-12.3-3.1-19.8L238.5,403.9z" transform="matrix(1, 0, 0, 1, 5.684341886080802e-14, 1.4210854715202004e-14)"/><path fill="#8B5E3C" d="M221.3,424.9c0,0,4.7,5.9,5.4,15.4s-1.4,20.7-1.4,20.7s3.2,2.7,7,0c0,0-1.1-14.6,0-24.3&#10;&#9;&#9;&#9;c1.1-9.7,4.3-17.1,4.3-17.1l-2.3-1.4c0,0-2.5,9-5.4,10.6c-2.9,1.6-5.9-5.9-5.9-5.9L221.3,424.9z" transform="matrix(1, 0, 0, 1, 5.684341886080802e-14, 1.4210854715202004e-14)"/><path fill="#DB8827" d="M798.5,417.2l8.9-9.6c-5.2-17.6-13.4-33.7-22.8-32.8c-10.5,1.1-21.4,26.2-26.1,49.2l10.1,10.9l-11.2-5.1&#10;&#9;&#9;&#9;c-1.6,10.2-1.9,19.4-0.1,25.3c6.1,19.9,27.3,15.8,27.3,15.8c17.5,0,28.7-9.7,28.7-29.6c0-7.1-1.6-18-4.5-28.8L798.5,417.2z" transform="matrix(1, 0, 0, 1, 5.684341886080802e-14, 1.4210854715202004e-14)"/><path fill="#8B5E3C" d="M773.4,447.8c0,0,6.9,8.7,7.9,22.4c1,13.7-2,30.2-2,30.2s4.6,3.9,10.2,0c0,0-1.6-21.4,0-35.5&#10;&#9;&#9;&#9;c1.6-14.1,6.2-25,6.2-25l-3.3-2c0,0-3.6,13.1-7.9,15.4c-4.3,2.3-8.5-8.5-8.5-8.5L773.4,447.8z" transform="matrix(1, 0, 0, 1, 5.684341886080802e-14, 1.4210854715202004e-14)"/><path fill="#FFFFFF" d="M0,254.8c0,0,46.3-26.8,84.8,30c0,0,41.3-22.5,46.7,22.6c0,0,38-25.8,115.7,25.7H0V254.8z" transform="matrix(1, 0, 0, 1, 2.842170943040401e-14, 7.105427357601002e-15)"/>
</svg>