<svg xmlns="http://www.w3.org/2000/svg" id="master-artboard" width="3000" height="2000" x="0" y="0" version="1.1" viewBox="0 0 3000 2000" style="enable-background:new 0 0 3000 2000"><g><path d="M 0 0 H 3000 V 2000 H 0 V 0 Z" class="st0" transform="matrix(1, 0, 0, 1, 2.842170943040401e-14, 7.105427357601002e-15)" style="fill:#c0f4ff"/><path d="M282.9,1386c0,224,60.5,433.8,166,614h2102c105.5-180.3,166-390.1,166-614 c0-672.2-544.9-1217.1-1217.1-1217.1S282.9,713.8,282.9,1386z" class="st1" transform="matrix(1, 0, 0, 1, 2.842170943040401e-14, 7.105427357601002e-15)" style="fill:#ccf9ff"/><path d="M578.8,1386c0,235.9,88.7,451.1,234.5,614h1373.3c145.8-163,234.5-378.1,234.5-614 c0-508.7-412.4-921.2-921.2-921.2S578.8,877.2,578.8,1386z" class="st2" transform="matrix(1, 0, 0, 1, 2.842170943040401e-14, 7.105427357601002e-15)" style="fill:#d9fcff"/><path d="M1282.2,2000h435.6c252.6-89.6,433.5-330.7,433.5-614c0-359.7-291.6-651.4-651.4-651.4 S848.6,1026.2,848.6,1386C848.6,1669.3,1029.6,1910.4,1282.2,2000z" class="st3" transform="matrix(1, 0, 0, 1, 2.842170943040401e-14, 7.105427357601002e-15)" style="fill:#e6feff"/></g><g><path d="M2644,1562.3v51h36v-266.2c-5.9,0.5-11.9,0.8-18,0.8c-6.1,0-12.1-0.3-18-0.8v65.5c9.9,0,18,8.1,18,18v113.7 C2662,1554.2,2653.9,1562.3,2644,1562.3z" class="st4" transform="matrix(1, 0, 0, 1, 5.684341886080802e-14, 1.4210854715202004e-14)" style="fill:#c0ad96"/><path d="M2680,1347.1v-19.7c-5.9,0.5-11.9,0.8-18,0.8c-6.1,0-12.1-0.3-18-0.8v19.7c5.9,0.5,11.9,0.8,18,0.8 C2668.1,1347.9,2674.1,1347.6,2680,1347.1z" class="st5" transform="matrix(1, 0, 0, 1, 5.684341886080802e-14, 1.4210854715202004e-14)" style="fill:#9c937f"/><g><path d="M2473.4,1185.3c-0.2-0.6-0.3-1.2-0.5-1.8C2473.1,1184.1,2473.3,1184.7,2473.4,1185.3z" class="st6" transform="matrix(1, 0, 0, 1, 5.684341886080802e-14, 1.4210854715202004e-14)" style="fill:#9bca89"/><path d="M2472.9,1183.5c-0.2-0.8-0.4-1.6-0.6-2.4C2472.5,1181.9,2472.7,1182.7,2472.9,1183.5z" class="st6" transform="matrix(1, 0, 0, 1, 5.684341886080802e-14, 1.4210854715202004e-14)" style="fill:#9bca89"/><path d="M2474.6,1189.4c-0.2-0.6-0.4-1.2-0.5-1.8C2474.3,1188.2,2474.5,1188.8,2474.6,1189.4z" class="st6" transform="matrix(1, 0, 0, 1, 5.684341886080802e-14, 1.4210854715202004e-14)" style="fill:#9bca89"/><path d="M2475.4,1191.8c-0.2-0.8-0.5-1.5-0.7-2.3C2474.9,1190.2,2475.1,1191,2475.4,1191.8z" class="st6" transform="matrix(1, 0, 0, 1, 5.684341886080802e-14, 1.4210854715202004e-14)" style="fill:#9bca89"/><path d="M2472.3,1181.1c-0.2-0.6-0.3-1.2-0.5-1.8C2472,1179.9,2472.2,1180.5,2472.3,1181.1z" class="st6" transform="matrix(1, 0, 0, 1, 5.684341886080802e-14, 1.4210854715202004e-14)" style="fill:#9bca89"/><path d="M2471.3,1176.9c-0.1-0.6-0.3-1.2-0.4-1.8C2471,1175.7,2471.2,1176.3,2471.3,1176.9z" class="st6" transform="matrix(1, 0, 0, 1, 5.684341886080802e-14, 1.4210854715202004e-14)" style="fill:#9bca89"/><path d="M2471.9,1179.3c-0.2-0.8-0.4-1.6-0.6-2.4C2471.5,1177.7,2471.7,1178.5,2471.9,1179.3z" class="st6" transform="matrix(1, 0, 0, 1, 5.684341886080802e-14, 1.4210854715202004e-14)" style="fill:#9bca89"/><path d="M2474.1,1187.7c-0.2-0.8-0.5-1.6-0.7-2.4C2473.7,1186.1,2473.9,1186.9,2474.1,1187.7z" class="st6" transform="matrix(1, 0, 0, 1, 5.684341886080802e-14, 1.4210854715202004e-14)" style="fill:#9bca89"/><path d="M2479.6,1203.8c-0.3-0.8-0.6-1.5-0.9-2.3C2479,1202.3,2479.3,1203.1,2479.6,1203.8z" class="st6" transform="matrix(1, 0, 0, 1, 5.684341886080802e-14, 1.4210854715202004e-14)" style="fill:#9bca89"/><path d="M2480.3,1205.5c-0.2-0.5-0.4-1.1-0.7-1.6C2479.9,1204.4,2480.1,1204.9,2480.3,1205.5z" class="st6" transform="matrix(1, 0, 0, 1, 5.684341886080802e-14, 1.4210854715202004e-14)" style="fill:#9bca89"/><path d="M2470.9,1175.1c-0.2-0.8-0.4-1.6-0.5-2.4C2470.5,1173.5,2470.7,1174.3,2470.9,1175.1z" class="st6" transform="matrix(1, 0, 0, 1, 5.684341886080802e-14, 1.4210854715202004e-14)" style="fill:#9bca89"/><path d="M2475.9,1193.5c-0.2-0.6-0.4-1.2-0.6-1.8C2475.5,1192.3,2475.7,1192.9,2475.9,1193.5z" class="st6" transform="matrix(1, 0, 0, 1, 5.684341886080802e-14, 1.4210854715202004e-14)" style="fill:#9bca89"/><path d="M2478.8,1201.5c-0.2-0.6-0.4-1.1-0.6-1.7C2478.3,1200.4,2478.5,1201,2478.8,1201.5z" class="st6" transform="matrix(1, 0, 0, 1, 5.684341886080802e-14, 1.4210854715202004e-14)" style="fill:#9bca89"/><path d="M2476.7,1195.8c-0.3-0.8-0.5-1.5-0.8-2.3C2476.2,1194.3,2476.4,1195.1,2476.7,1195.8z" class="st6" transform="matrix(1, 0, 0, 1, 5.684341886080802e-14, 1.4210854715202004e-14)" style="fill:#9bca89"/><path d="M2478.1,1199.9c-0.3-0.8-0.6-1.5-0.8-2.3C2477.6,1198.3,2477.8,1199.1,2478.1,1199.9z" class="st6" transform="matrix(1, 0, 0, 1, 5.684341886080802e-14, 1.4210854715202004e-14)" style="fill:#9bca89"/><path d="M2477.3,1197.5c-0.2-0.6-0.4-1.1-0.6-1.7C2476.9,1196.4,2477.1,1197,2477.3,1197.5z" class="st6" transform="matrix(1, 0, 0, 1, 5.684341886080802e-14, 1.4210854715202004e-14)" style="fill:#9bca89"/><path d="M2480.3,1205.5c0.1,0.3,0.2,0.6,0.4,0.9c0,0,0,0,0,0C2480.5,1206.1,2480.4,1205.8,2480.3,1205.5z" class="st6" transform="matrix(1, 0, 0, 1, 5.684341886080802e-14, 1.4210854715202004e-14)" style="fill:#9bca89"/><path d="M2466.6,1144.8c-0.1-1.5-0.2-3-0.2-4.4C2466.4,1141.8,2466.5,1143.3,2466.6,1144.8z" class="st6" transform="matrix(1, 0, 0, 1, 5.684341886080802e-14, 1.4210854715202004e-14)" style="fill:#9bca89"/><path d="M2466.7,1146.1c0-0.4-0.1-0.9-0.1-1.3C2466.6,1145.3,2466.6,1145.7,2466.7,1146.1z" class="st6" transform="matrix(1, 0, 0, 1, 5.684341886080802e-14, 1.4210854715202004e-14)" style="fill:#9bca89"/><path d="M2466.9,1149.2c-0.1-1-0.2-2.1-0.2-3.1C2466.8,1147.2,2466.8,1148.2,2466.9,1149.2z" class="st6" transform="matrix(1, 0, 0, 1, 5.684341886080802e-14, 1.4210854715202004e-14)" style="fill:#9bca89"/><path d="M2467.1,1150.8c0-0.5-0.1-1.1-0.2-1.6C2467,1149.8,2467,1150.3,2467.1,1150.8z" class="st6" transform="matrix(1, 0, 0, 1, 5.684341886080802e-14, 1.4210854715202004e-14)" style="fill:#9bca89"/><path d="M2467.3,1153.6c-0.1-0.9-0.2-1.9-0.3-2.8C2467.1,1151.8,2467.2,1152.7,2467.3,1153.6z" class="st6" transform="matrix(1, 0, 0, 1, 5.684341886080802e-14, 1.4210854715202004e-14)" style="fill:#9bca89"/><path d="M2735.8,951c-1.3-0.5-2.5-1-3.8-1.5C2733.3,950,2734.5,950.5,2735.8,951z" class="st6" transform="matrix(1, 0, 0, 1, 5.684341886080802e-14, 1.4210854715202004e-14)" style="fill:#9bca89"/><path d="M2671.9,1210.3c0,0-6.7-7.6-9.7-18.2c-1.2-0.3-2.4-0.7-3.5-1.1c-30.1,18.9-65.8,29.9-104,29.9 c-26.2,0-51.2-5.1-74-14.5c9,22.1,22,42.2,38,59.4c3-10.5,9.6-18,9.6-18s6.7,7.6,9.7,18.2c10.6,3,18.2,9.7,18.2,9.7 s-7,6.2-16.9,9.3c29.2,23.5,65.3,38.8,104.8,42.4c5.9,0.5,11.9,0.8,18,0.8c6.1,0,12.1-0.3,18-0.8c39.5-3.6,75.6-18.9,104.8-42.4 c-10-3.1-16.9-9.3-16.9-9.3s7.6-6.7,18.2-9.7c3-10.6,9.7-18.2,9.7-18.2s6.7,7.5,9.6,18c32.6-35,52.5-81.9,52.5-133.4 c0-51.6-19.9-98.5-52.5-133.4c-3,10.5-9.6,18-9.6,18s-6.7-7.6-9.7-18.2c-10.6-3-18.2-9.7-18.2-9.7s7-6.2,16.9-9.3 c-14.7-11.8-31.1-21.6-48.8-28.8c9.3,22.8,14.5,47.8,14.5,74c0,59.2-26.2,112.2-67.7,148.1c10,3.1,16.9,9.3,16.9,9.3 s-7.6,6.7-18.2,9.7C2678.6,1202.7,2671.9,1210.3,2671.9,1210.3z M2772.3,1117.4c0,0,10.1,0.6,19.7,6c9.6-5.4,19.7-6,19.7-6 s-0.6,10.1-6,19.7c5.4,9.6,6,19.7,6,19.7s-10.1-0.6-19.7-6c-9.6,5.4-19.7,6-19.7,6s0.6-10.1,6-19.7 C2772.9,1127.5,2772.3,1117.4,2772.3,1117.4z" class="st6" transform="matrix(1, 0, 0, 1, 5.684341886080802e-14, 1.4210854715202004e-14)" style="fill:#9bca89"/><path d="M2735.8,951c0.1,0,0.1,0.1,0.2,0.1c0,0,0,0,0,0C2735.9,951,2735.9,951,2735.8,951z" class="st6" transform="matrix(1, 0, 0, 1, 5.684341886080802e-14, 1.4210854715202004e-14)" style="fill:#9bca89"/><path d="M2468.1,1159.7c-0.1-0.6-0.2-1.2-0.2-1.8C2467.9,1158.6,2468,1159.2,2468.1,1159.7z" class="st6" transform="matrix(1, 0, 0, 1, 5.684341886080802e-14, 1.4210854715202004e-14)" style="fill:#9bca89"/><path d="M2468.8,1164.1c-0.1-0.6-0.2-1.2-0.3-1.8C2468.6,1162.9,2468.7,1163.5,2468.8,1164.1z" class="st6" transform="matrix(1, 0, 0, 1, 5.684341886080802e-14, 1.4210854715202004e-14)" style="fill:#9bca89"/><path d="M2469.5,1168.4c-0.1-0.6-0.2-1.2-0.3-1.8C2469.3,1167.2,2469.4,1167.8,2469.5,1168.4z" class="st6" transform="matrix(1, 0, 0, 1, 5.684341886080802e-14, 1.4210854715202004e-14)" style="fill:#9bca89"/><path d="M2469.2,1166.6c-0.1-0.8-0.3-1.7-0.4-2.5C2468.9,1164.9,2469,1165.8,2469.2,1166.6z" class="st6" transform="matrix(1, 0, 0, 1, 5.684341886080802e-14, 1.4210854715202004e-14)" style="fill:#9bca89"/><path d="M2470,1170.9c-0.2-0.8-0.3-1.7-0.5-2.5C2469.7,1169.3,2469.8,1170.1,2470,1170.9z" class="st6" transform="matrix(1, 0, 0, 1, 5.684341886080802e-14, 1.4210854715202004e-14)" style="fill:#9bca89"/><path d="M2468.5,1162.3c-0.1-0.9-0.3-1.7-0.4-2.6C2468.2,1160.6,2468.3,1161.5,2468.5,1162.3z" class="st6" transform="matrix(1, 0, 0, 1, 5.684341886080802e-14, 1.4210854715202004e-14)" style="fill:#9bca89"/><path d="M2467.9,1158c-0.1-0.9-0.2-1.8-0.3-2.7C2467.6,1156.2,2467.7,1157.1,2467.9,1158z" class="st6" transform="matrix(1, 0, 0, 1, 5.684341886080802e-14, 1.4210854715202004e-14)" style="fill:#9bca89"/><path d="M2467.5,1155.3c-0.1-0.6-0.1-1.1-0.2-1.7C2467.4,1154.2,2467.5,1154.8,2467.5,1155.3z" class="st6" transform="matrix(1, 0, 0, 1, 5.684341886080802e-14, 1.4210854715202004e-14)" style="fill:#9bca89"/><path d="M2470.4,1172.7c-0.1-0.6-0.3-1.2-0.4-1.8C2470.1,1171.5,2470.2,1172.1,2470.4,1172.7z" class="st6" transform="matrix(1, 0, 0, 1, 5.684341886080802e-14, 1.4210854715202004e-14)" style="fill:#9bca89"/></g><g><path d="M2795.7,961.3c0,0-6.7,7.6-9.7,18.2c3-0.8,6.3-1.4,9.7-1.4c3.4,0,6.7,0.5,9.7,1.4 C2802.4,968.9,2795.7,961.3,2795.7,961.3z" class="st6" transform="matrix(1, 0, 0, 1, 5.684341886080802e-14, 1.4210854715202004e-14)" style="fill:#9bca89"/><path d="M2805.4,998.9c-3,0.8-6.3,1.4-9.7,1.4c-3.4,0-6.7-0.5-9.7-1.4c3,10.6,9.7,18.2,9.7,18.2s6.7-7.5,9.6-18 C2805.3,998.9,2805.4,998.9,2805.4,998.9z" class="st6" transform="matrix(1, 0, 0, 1, 5.684341886080802e-14, 1.4210854715202004e-14)" style="fill:#9bca89"/></g><path d="M2805.4,998.9c10.6-3,18.2-9.7,18.2-9.7s-7.6-6.7-18.2-9.7c-3-0.8-6.3-1.4-9.7-1.4c-3.4,0-6.7,0.5-9.7,1.4 c-0.4,0.1-0.8,0.2-1.2,0.4c-10,3.1-16.9,9.3-16.9,9.3s7.6,6.7,18.2,9.7c3,0.8,6.3,1.4,9.7,1.4 C2799.1,1000.2,2802.4,999.7,2805.4,998.9z" class="st6" transform="matrix(1, 0, 0, 1, 5.684341886080802e-14, 1.4210854715202004e-14)" style="fill:#9bca89"/><g><path d="M2528.3,961.3c0,0-6.7,7.6-9.7,18.2c3-0.8,6.3-1.4,9.7-1.4c3.4,0,6.7,0.5,9.7,1.4 C2535,968.9,2528.3,961.3,2528.3,961.3z" class="st7" transform="matrix(1, 0, 0, 1, 5.684341886080802e-14, 1.4210854715202004e-14)" style="fill:#b0e19f"/><path d="M2518.6,998.9c0,0,0,0.1,0,0.1c0,0,0.1-0.1,0.1-0.1C2518.7,998.9,2518.7,998.9,2518.6,998.9z" class="st7" transform="matrix(1, 0, 0, 1, 5.684341886080802e-14, 1.4210854715202004e-14)" style="fill:#b0e19f"/></g><path d="M2539.2,979.9c-0.4-0.1-0.8-0.2-1.2-0.4c-3-0.8-6.3-1.4-9.7-1.4c-3.4,0-6.7,0.5-9.7,1.4 c-10.6,3-18.2,9.7-18.2,9.7s7.6,6.7,18.2,9.7c0,0,0.1,0,0.1,0C2525.1,992.1,2532,985.7,2539.2,979.9z" class="st7" transform="matrix(1, 0, 0, 1, 5.684341886080802e-14, 1.4210854715202004e-14)" style="fill:#b0e19f"/><g><path d="M2805.3,1265.8c-3-10.5-9.6-18-9.6-18s-6.7,7.6-9.7,18.2c3-0.8,6.3-1.4,9.7-1.4c3.4,0,6.7,0.5,9.7,1.4 C2805.4,1265.9,2805.3,1265.9,2805.3,1265.8z" class="st6" transform="matrix(1, 0, 0, 1, 5.684341886080802e-14, 1.4210854715202004e-14)" style="fill:#9bca89"/><path d="M2795.7,1286.7c-3.4,0-6.7-0.5-9.7-1.4c3,10.6,9.7,18.2,9.7,18.2s6.7-7.6,9.7-18.2 C2802.4,1286.2,2799.1,1286.7,2795.7,1286.7z" class="st6" transform="matrix(1, 0, 0, 1, 5.684341886080802e-14, 1.4210854715202004e-14)" style="fill:#9bca89"/></g><path d="M2795.7,1286.7c3.4,0,6.7-0.5,9.7-1.4c10.6-3,18.2-9.7,18.2-9.7s-7.6-6.7-18.2-9.7c-3-0.8-6.3-1.4-9.7-1.4 c-3.4,0-6.7,0.5-9.7,1.4c-10.6,3-18.2,9.7-18.2,9.7s7,6.2,16.9,9.3c0.4,0.1,0.8,0.2,1.2,0.4 C2789,1286.2,2792.3,1286.7,2795.7,1286.7z" class="st6" transform="matrix(1, 0, 0, 1, 5.684341886080802e-14, 1.4210854715202004e-14)" style="fill:#9bca89"/><g><path d="M2528.3,1247.8c0,0-6.7,7.5-9.6,18c0,0,0,0.1,0,0.1c3-0.8,6.3-1.4,9.7-1.4c3.4,0,6.7,0.5,9.7,1.4 C2535,1255.4,2528.3,1247.8,2528.3,1247.8z" class="st6" transform="matrix(1, 0, 0, 1, 5.684341886080802e-14, 1.4210854715202004e-14)" style="fill:#9bca89"/><path d="M2528.3,1286.7c-3.4,0-6.7-0.5-9.7-1.4c3,10.6,9.7,18.2,9.7,18.2s6.7-7.6,9.7-18.2 C2535,1286.2,2531.7,1286.7,2528.3,1286.7z" class="st6" transform="matrix(1, 0, 0, 1, 5.684341886080802e-14, 1.4210854715202004e-14)" style="fill:#9bca89"/></g><path d="M2538,1285.3c0.4-0.1,0.8-0.2,1.2-0.4c10-3.1,16.9-9.3,16.9-9.3s-7.6-6.7-18.2-9.7c-3-0.8-6.3-1.4-9.7-1.4 c-3.4,0-6.7,0.5-9.7,1.4c-10.6,3-18.2,9.7-18.2,9.7s7.6,6.7,18.2,9.7c3,0.8,6.3,1.4,9.7,1.4 C2531.7,1286.7,2535,1286.2,2538,1285.3z" class="st6" transform="matrix(1, 0, 0, 1, 5.684341886080802e-14, 1.4210854715202004e-14)" style="fill:#9bca89"/><path d="M2671.9,1154.6c0,0,6.7,7.6,9.7,18.2c0.4,0.1,0.8,0.2,1.2,0.4c41.5-35.9,67.7-88.9,67.7-148.1 c0-26.2-5.1-51.2-14.5-74c-1.3-0.5-2.7-1.1-4-1.6c0,0,0,0,0,0c-0.1,0-0.2-0.1-0.3-0.1c0,0,0,0,0,0c-0.1,0-0.2-0.1-0.2-0.1 c0,0,0,0,0,0c-0.1,0-0.1-0.1-0.2-0.1c0,0,0,0-0.1,0c-0.1,0-0.1-0.1-0.2-0.1c0,0,0,0-0.1,0c-0.1,0-0.1-0.1-0.2-0.1 c0,0-0.1,0-0.1,0c-0.1,0-0.1,0-0.2-0.1c0,0-0.1,0-0.1,0c-0.1,0-0.1,0-0.2-0.1c0,0-0.1,0-0.1,0c-0.1,0-0.1,0-0.2-0.1 c0,0-0.1,0-0.1,0c-0.1,0-0.1,0-0.2-0.1c0,0-0.1,0-0.1,0c0,0-0.1,0-0.1-0.1c0,0-0.1,0-0.1-0.1c0,0-0.1,0-0.1,0c0,0-0.1,0-0.1-0.1 c0,0-0.1,0-0.1,0c0,0-0.1,0-0.1-0.1c0,0-0.1,0-0.1,0c-0.1,0-0.1,0-0.2-0.1c0,0-0.1,0-0.1,0c-0.1,0-0.1,0-0.2-0.1c0,0-0.1,0-0.1,0 c-0.1,0-0.1,0-0.2-0.1c0,0-0.1,0-0.1,0c-0.1,0-0.1,0-0.2-0.1c0,0-0.1,0-0.1,0c-15.4-5.5-31.8-9-48.7-10.5c0,0,0,0,0,0 c-0.1,0-0.2,0-0.3,0c0,0,0,0,0,0c-0.1,0-0.2,0-0.3,0c0,0,0,0,0,0c-0.1,0-0.2,0-0.3,0c0,0,0,0,0,0c-0.1,0-0.2,0-0.3,0c0,0,0,0,0,0 c-0.1,0-0.2,0-0.3,0c0,0,0,0,0,0c-0.1,0-0.2,0-0.3,0c0,0,0,0-0.1,0c-0.1,0-0.2,0-0.2,0c0,0,0,0-0.1,0c-0.1,0-0.2,0-0.2,0 c0,0,0,0-0.1,0c-0.1,0-0.2,0-0.3,0c0,0,0,0-0.1,0c-0.1,0-0.2,0-0.2,0c0,0,0,0-0.1,0c-0.1,0-0.2,0-0.2,0c0,0,0,0-0.1,0 c-0.1,0-0.2,0-0.2,0c0,0,0,0-0.1,0c-0.1,0-0.2,0-0.3,0c0,0,0,0,0,0c-0.1,0-0.2,0-0.2,0c0,0-0.1,0-0.1,0c-0.1,0-0.2,0-0.2,0 c0,0,0,0-0.1,0c-0.1,0-0.2,0-0.2,0c0,0,0,0-0.1,0c-0.1,0-0.2,0-0.3,0c0,0,0,0,0,0c-0.1,0-0.2,0-0.3,0c0,0,0,0,0,0 c-0.1,0-0.2,0-0.3,0c0,0,0,0,0,0c-0.5,0-1-0.1-1.6-0.1c0,0,0,0,0,0c-0.1,0-0.2,0-0.3,0c0,0,0,0,0,0c-0.1,0-0.2,0-0.3,0 c0,0,0,0-0.1,0c-0.1,0-0.2,0-0.2,0c0,0,0,0-0.1,0c-0.1,0-0.2,0-0.2,0c0,0-0.1,0-0.1,0c-0.1,0-0.1,0-0.2,0c0,0-0.1,0-0.1,0 c-0.1,0-0.1,0-0.2,0c0,0-0.1,0-0.1,0c-0.1,0-0.1,0-0.2,0c0,0-0.1,0-0.1,0c-0.1,0-0.1,0-0.2,0c0,0-0.1,0-0.1,0c-0.1,0-0.1,0-0.2,0 c0,0-0.1,0-0.1,0c-0.1,0-0.1,0-0.2,0c0,0-0.1,0-0.1,0c-0.1,0-0.1,0-0.2,0c0,0-0.1,0-0.1,0c-0.1,0-0.1,0-0.2,0c0,0-0.1,0-0.1,0 c-0.1,0-0.1,0-0.2,0c0,0-0.1,0-0.1,0c-0.1,0-0.1,0-0.2,0c0,0-0.1,0-0.1,0c-0.1,0-0.1,0-0.2,0c0,0-0.1,0-0.1,0c-0.1,0-0.1,0-0.2,0 c0,0-0.1,0-0.1,0c-0.1,0-0.1,0-0.2,0c-0.1,0-0.1,0-0.2,0c0,0-0.1,0-0.1,0c-0.1,0-0.1,0-0.2,0c-0.1,0-0.1,0-0.2,0c0,0-0.1,0-0.1,0 c-0.1,0-0.1,0-0.2,0c-0.1,0-0.1,0-0.2,0c-0.1,0-0.1,0-0.2,0c0,0-0.1,0-0.1,0c-0.1,0-0.1,0-0.2,0c0,0-0.1,0-0.1,0 c-0.1,0-0.1,0-0.2,0c0,0-0.1,0-0.1,0c-0.1,0-0.1,0-0.2,0c-0.1,0-0.1,0-0.2,0c-0.1,0-0.1,0-0.2,0c-0.1,0-0.1,0-0.2,0 c-0.1,0-0.1,0-0.2,0c0,0-0.1,0-0.1,0c-0.1,0-0.1,0-0.2,0c0,0-0.1,0-0.1,0c-0.1,0-0.1,0-0.2,0c0,0-0.1,0-0.1,0c-0.1,0-0.2,0-0.3,0 c-46.5,0-89.2,16.2-122.8,43.3c-7.3,5.9-14.1,12.2-20.5,19c0,0-0.1,0.1-0.1,0.1c-32.6,35-52.5,81.9-52.5,133.4c0,0.1,0,0.2,0,0.3 c0,0,0,0.1,0,0.1c0,0.1,0,0.1,0,0.2c0,0,0,0.1,0,0.1c0,0.1,0,0.1,0,0.2c0,0.1,0,0.1,0,0.2c0,0.1,0,0.1,0,0.2c0,0.1,0,0.1,0,0.2 c0,0.1,0,0.1,0,0.2c0,0,0,0.1,0,0.2c0,0.1,0,0.1,0,0.2c0,0,0,0.1,0,0.1c0,0.1,0,0.1,0,0.2c0,0,0,0.1,0,0.1c0,0.1,0,0.1,0,0.2 c0,0.1,0,0.1,0,0.2c0,0.1,0,0.1,0,0.2c0,0.1,0,0.1,0,0.2c0,0.1,0,0.1,0,0.2c0,0.1,0,0.1,0,0.2c0,0.1,0,0.1,0,0.2 c0,0.1,0,0.1,0,0.2c0,0,0,0.1,0,0.1c0,0.1,0,0.1,0,0.2c0,0,0,0.1,0,0.1c0,0.1,0,0.1,0,0.2c0,0,0,0.1,0,0.1c0,0.1,0,0.1,0,0.2 c0,0,0,0.1,0,0.1c0,0.1,0,0.1,0,0.2c0,0,0,0.1,0,0.1c0,0.1,0,0.1,0,0.2c0,0,0,0.1,0,0.1c0,0.1,0,0.1,0,0.2c0,0,0,0.1,0,0.1 c0,0.1,0,0.1,0,0.2c0,0,0,0.1,0,0.1c0,0.1,0,0.1,0,0.2c0,0,0,0.1,0,0.1c0,0.1,0,0.1,0,0.2c0,0,0,0.1,0,0.1c0,0.1,0,0.1,0,0.2 c0,0,0,0.1,0,0.1c0,0.1,0,0.2,0,0.2c0,0,0,0,0,0.1c0,0.1,0,0.2,0,0.2c0,0,0,0,0,0.1c0,0.1,0,0.2,0,0.2c0,0,0,0,0,0 c0,0.1,0,0.2,0,0.3c0,0,0,0,0,0c0.9,23.3,5.9,45.5,14.3,66c22.8,9.3,47.8,14.5,74,14.5c38.2,0,73.9-11,104-29.9 c-8.7-3.3-14.7-8.5-14.7-8.5s7.6-6.7,18.2-9.7C2665.1,1162.2,2671.9,1154.6,2671.9,1154.6z M2595.6,1098.4c0,0-10.1-0.6-19.7-6 c-9.6,5.4-19.7,6-19.7,6s0.6-10.1,6-19.7c-5.4-9.6-6-19.7-6-19.7s10.1,0.6,19.7,6c9.6-5.4,19.7-6,19.7-6s-0.6,10.1-6,19.7 C2595,1088.3,2595.6,1098.4,2595.6,1098.4z" class="st7" transform="matrix(1, 0, 0, 1, 5.684341886080802e-14, 1.4210854715202004e-14)" style="fill:#b0e19f"/><g><path d="M2671.9,1154.6c0,0-6.7,7.6-9.7,18.2c3-0.8,6.3-1.4,9.7-1.4c3.4,0,6.7,0.5,9.7,1.4 C2678.6,1162.2,2671.9,1154.6,2671.9,1154.6z" class="st7" transform="matrix(1, 0, 0, 1, 5.684341886080802e-14, 1.4210854715202004e-14)" style="fill:#b0e19f"/><path d="M2671.9,1193.5c-3.4,0-6.7-0.5-9.7-1.4c3,10.6,9.7,18.2,9.7,18.2s6.7-7.6,9.7-18.2 C2678.5,1193,2675.3,1193.5,2671.9,1193.5z" class="st7" transform="matrix(1, 0, 0, 1, 5.684341886080802e-14, 1.4210854715202004e-14)" style="fill:#b0e19f"/></g><path d="M2662.2,1192.1c3,0.8,6.3,1.4,9.7,1.4c3.4,0,6.7-0.5,9.7-1.4c10.6-3,18.2-9.7,18.2-9.7s-7-6.2-16.9-9.3 c-0.4-0.1-0.8-0.2-1.2-0.4c-3-0.8-6.3-1.4-9.7-1.4c-3.4,0-6.7,0.5-9.7,1.4c-10.6,3-18.2,9.7-18.2,9.7s5.9,5.3,14.7,8.5 C2659.8,1191.4,2661,1191.8,2662.2,1192.1z" class="st7" transform="matrix(1, 0, 0, 1, 5.684341886080802e-14, 1.4210854715202004e-14)" style="fill:#b0e19f"/><g><path d="M2575.9,1065c-9.6-5.4-19.7-6-19.7-6s0.6,10.1,6,19.7c1.5-2.7,3.5-5.4,5.9-7.8 C2570.5,1068.5,2573.1,1066.6,2575.9,1065z" class="st8" transform="matrix(1, 0, 0, 1, 5.684341886080802e-14, 1.4210854715202004e-14)" style="fill:#bbedaa"/><path d="M2589.6,1078.7c-1.5,2.7-3.5,5.4-5.9,7.8s-5.1,4.3-7.8,5.9c9.6,5.4,19.7,6,19.7,6 S2595,1088.3,2589.6,1078.7z" class="st8" transform="matrix(1, 0, 0, 1, 5.684341886080802e-14, 1.4210854715202004e-14)" style="fill:#bbedaa"/></g><path d="M2589.6,1078.7c5.4-9.6,6-19.7,6-19.7s-10.1,0.6-19.7,6c-2.7,1.5-5.4,3.5-7.8,5.9c-2.4,2.4-4.3,5.1-5.9,7.8 c-5.4,9.6-6,19.7-6,19.7s10.1-0.6,19.7-6c2.7-1.5,5.4-3.5,7.8-5.9S2588,1081.5,2589.6,1078.7z" class="st8" transform="matrix(1, 0, 0, 1, 5.684341886080802e-14, 1.4210854715202004e-14)" style="fill:#bbedaa"/><g><path d="M2799.8,1145c-2.4,2.4-5.1,4.3-7.8,5.9c9.6,5.4,19.7,6,19.7,6s-0.6-10.1-6-19.7 C2804.2,1139.9,2802.2,1142.5,2799.8,1145z" class="st7" transform="matrix(1, 0, 0, 1, 5.684341886080802e-14, 1.4210854715202004e-14)" style="fill:#b0e19f"/><path d="M2792,1123.4c-9.6-5.4-19.7-6-19.7-6s0.6,10.1,6,19.7c1.5-2.7,3.5-5.4,5.9-7.8 C2786.6,1126.9,2789.3,1125,2792,1123.4z" class="st7" transform="matrix(1, 0, 0, 1, 5.684341886080802e-14, 1.4210854715202004e-14)" style="fill:#b0e19f"/></g><path d="M2805.7,1137.1c5.4-9.6,6-19.7,6-19.7s-10.1,0.6-19.7,6c-2.7,1.5-5.4,3.5-7.8,5.9c-2.4,2.4-4.3,5.1-5.9,7.8 c-5.4,9.6-6,19.7-6,19.7s10.1-0.6,19.7-6c2.7-1.5,5.4-3.5,7.8-5.9C2802.2,1142.5,2804.2,1139.9,2805.7,1137.1z" class="st7" transform="matrix(1, 0, 0, 1, 5.684341886080802e-14, 1.4210854715202004e-14)" style="fill:#b0e19f"/><path d="M2662,1544.3v-113.7c0-9.9-8.1-18-18-18v149.7C2653.9,1562.3,2662,1554.2,2662,1544.3z" class="st9" transform="matrix(1, 0, 0, 1, 5.684341886080802e-14, 1.4210854715202004e-14)" style="fill:#c8b7a1"/></g><g><path d="M310.5,1416.5c9.8,0,17.8,7.2,19.2,16.6l19.6-19.6v-67.6c-6.4,0.6-12.9,0.9-19.4,0.9 c-6.5,0-13-0.3-19.4-0.9V1416.5z" class="st4" transform="matrix(1, 0, 0, 1, 8.526512829121202e-14, 2.1316282072803006e-14)" style="fill:#c0ad96"/><path d="M329.9,1558.2c0,10.7-8.7,19.4-19.4,19.4v54.9h38.8v-164.2l-11.4,11.4l-8-8V1558.2z" class="st4" transform="matrix(1, 0, 0, 1, 8.526512829121202e-14, 2.1316282072803006e-14)" style="fill:#c0ad96"/></g><path d="M310.5,1345.9c6.4,0.6,12.9,0.9,19.4,0.9c6.5,0,13-0.3,19.4-0.9v-21.2c-6.4,0.6-12.8,0.9-19.4,0.9 c-6.5,0-13-0.3-19.4-0.9V1345.9z" class="st5" transform="matrix(1, 0, 0, 1, 8.526512829121202e-14, 2.1316282072803006e-14)" style="fill:#9c937f"/><path d="M347.5,904.6c5.5,0.5,11,1.1,16.4,2C358.5,905.8,353.1,905.1,347.5,904.6z" class="st6" transform="matrix(1, 0, 0, 1, 1.1368683772161603e-13, 2.842170943040401e-14)" style="fill:#9bca89"/><path d="M532.2,1174.1c-0.9,3.1-1.9,6.2-3,9.3c0,0,0,0,0,0C530.3,1180.3,531.3,1177.2,532.2,1174.1z" class="st6" transform="matrix(1, 0, 0, 1, 1.1368683772161603e-13, 2.842170943040401e-14)" style="fill:#9bca89"/><path d="M381.9,1319.1C381.9,1319.1,381.9,1319.1,381.9,1319.1c-3.2,0.8-6.4,1.5-9.7,2.2 C375.4,1320.7,378.7,1319.9,381.9,1319.1z" class="st6" transform="matrix(1, 0, 0, 1, 1.1368683772161603e-13, 2.842170943040401e-14)" style="fill:#9bca89"/><path d="M363.9,906.6c9.8,1.6,19.3,3.8,28.6,6.7C383.2,910.5,373.7,908.2,363.9,906.6z" class="st6" transform="matrix(1, 0, 0, 1, 1.1368683772161603e-13, 2.842170943040401e-14)" style="fill:#9bca89"/><path d="M532.3,1174C532.3,1174,532.3,1174,532.3,1174c0,0,0,0.1,0,0.1C532.3,1174.1,532.3,1174,532.3,1174z" class="st6" transform="matrix(1, 0, 0, 1, 1.1368683772161603e-13, 2.842170943040401e-14)" style="fill:#9bca89"/><path d="M396.2,1171.8c0,0,3.8,4.3,5.5,10.3c0.7-1.1,1.3-1.7,1.3-1.7s0.3,0.4,0.8,1c2.1-1.6,4.2-3.2,6.4-4.6 c18.1-12.2,39.9-19.3,63.3-19.3c1,0,1.9,0,2.9,0c0.3,0,0.6,0,1,0c0.6,0,1.3,0,1.9,0.1c0.4,0,0.8,0,1.1,0.1 c0.6,0,1.1,0.1,1.7,0.1c0.4,0,0.8,0.1,1.2,0.1c0.5,0,1.1,0.1,1.6,0.1c0.4,0,0.8,0.1,1.3,0.1c0.5,0.1,1,0.1,1.5,0.2 c0.4,0.1,0.9,0.1,1.3,0.2c0.5,0.1,1,0.1,1.5,0.2c0.4,0.1,0.9,0.1,1.3,0.2c0.5,0.1,1,0.2,1.5,0.2c0.4,0.1,0.9,0.2,1.3,0.2 c0.5,0.1,1,0.2,1.5,0.3c0.4,0.1,0.9,0.2,1.3,0.3c0.5,0.1,1,0.2,1.4,0.3c0.4,0.1,0.9,0.2,1.3,0.3c0.5,0.1,0.9,0.2,1.4,0.3 c0.4,0.1,0.8,0.2,1.3,0.3c0.5,0.1,0.9,0.2,1.4,0.4c0.4,0.1,0.8,0.2,1.3,0.4c0.5,0.1,0.9,0.3,1.4,0.4c0.4,0.1,0.8,0.3,1.3,0.4 c0.5,0.1,0.9,0.3,1.4,0.4c0.4,0.1,0.8,0.3,1.2,0.4c0.4,0.2,0.9,0.3,1.3,0.5c0.4,0.1,0.8,0.3,1.2,0.5c0.4,0.2,0.9,0.3,1.3,0.5 c0.4,0.2,0.8,0.3,1.2,0.5c0.2,0.1,0.4,0.2,0.6,0.3l0,0c5.6,2.3,10.9,5,16,8.1c5.5-18.8,8.4-38.7,8.4-59.2 c0-55.5-21.5-106-56.5-143.7c-3.2,11.3-10.4,19.4-10.4,19.4s-7.2-8.1-10.4-19.6c-11.4-3.2-19.6-10.4-19.6-10.4s7.5-6.7,18.2-10 c-15.8-12.7-33.5-23.2-52.5-31l0,0c10,24.6,15.6,51.5,15.6,79.7c0,63.7-28.2,120.8-72.9,159.4c10.7,3.4,18.2,10,18.2,10 s-8.1,7.2-19.6,10.4c-3.2,11.4-10.4,19.6-10.4,19.6s-7.2-8.1-10.4-19.6c-1.3-0.4-2.6-0.8-3.8-1.2c-32.5,20.4-70.9,32.2-112,32.2 c-28.2,0-55.1-5.5-79.7-15.6c9.7,23.8,23.7,45.5,40.9,64c3.2-11.3,10.4-19.4,10.4-19.4s7.2,8.1,10.4,19.6 c11.4,3.2,19.6,10.4,19.6,10.4s-7.5,6.7-18.2,10c31.4,25.3,70.3,41.8,112.8,45.7c6.4,0.6,12.8,0.9,19.4,0.9 c6.5,0,13-0.3,19.4-0.9c7.7-0.7,15.4-1.8,22.9-3.4c-1.3-2.5-2.4-5.1-3.5-7.8l0,0c-0.1-0.2-0.2-0.4-0.3-0.6 c-0.2-0.4-0.3-0.8-0.5-1.2c-0.2-0.4-0.3-0.9-0.5-1.3c-0.2-0.4-0.3-0.8-0.5-1.2c-0.2-0.4-0.3-0.9-0.5-1.3 c-0.1-0.4-0.3-0.8-0.4-1.3c-0.1-0.4-0.3-0.9-0.4-1.3c-0.1-0.4-0.3-0.8-0.4-1.3c-0.1-0.5-0.3-0.9-0.4-1.4 c-0.1-0.4-0.2-0.8-0.4-1.3c-0.1-0.5-0.3-0.9-0.4-1.4c-0.1-0.4-0.2-0.9-0.3-1.3c-0.1-0.5-0.2-0.9-0.3-1.4 c-0.1-0.4-0.2-0.9-0.3-1.3c-0.1-0.5-0.2-0.9-0.3-1.4c-0.1-0.4-0.2-0.9-0.3-1.3c-0.1-0.5-0.2-1-0.3-1.4c-0.1-0.4-0.2-0.9-0.2-1.3 c-0.1-0.5-0.2-1-0.2-1.5c-0.1-0.4-0.1-0.9-0.2-1.3c-0.1-0.5-0.1-1-0.2-1.5c-0.1-0.4-0.1-0.8-0.2-1.3c-0.1-0.5-0.1-1-0.2-1.5 c0-0.4-0.1-0.8-0.1-1.3c-0.1-0.5-0.1-1.1-0.1-1.6c0-0.4-0.1-0.8-0.1-1.2c0-0.6-0.1-1.1-0.1-1.7c0-0.4-0.1-0.8-0.1-1.1 c0-0.6-0.1-1.3-0.1-1.9c0-0.3,0-0.6,0-1c0-1,0-1.9,0-2.9c0-4.9,0.3-9.7,0.9-14.4c0.4-2.8,0.8-5.6,1.4-8.4c0.6-2.8,1.2-5.5,2-8.2 s1.6-5.3,2.6-7.9c0.3-0.9,0.6-1.7,1-2.6c3.7-9.4,8.7-18.2,14.6-26.2c1.9-2.5,3.9-5,6-7.4c-0.3-0.3-0.5-0.4-0.5-0.4 s0.8-0.7,2.3-1.7c-6.1-1.7-10.5-5.6-10.5-5.6s4.4-3.9,10.5-5.6C392.3,1176.2,396.2,1171.8,396.2,1171.8z" class="st6" transform="matrix(1, 0, 0, 1, 1.1368683772161603e-13, 2.842170943040401e-14)" style="fill:#9bca89"/><path d="M372.2,1321.3C372.2,1321.3,372.2,1321.3,372.2,1321.3C372.1,1321.3,372.1,1321.3,372.2,1321.3 C372.2,1321.3,372.2,1321.3,372.2,1321.3z" class="st6" transform="matrix(1, 0, 0, 1, 1.1368683772161603e-13, 2.842170943040401e-14)" style="fill:#9bca89"/><path d="M134.6,1194.4C134.6,1194.4,134.6,1194.4,134.6,1194.4c-0.6-1.5-1.2-3.1-1.8-4.6 C133.4,1191.3,134,1192.9,134.6,1194.4z" class="st6" transform="matrix(1, 0, 0, 1, 1.1368683772161603e-13, 2.842170943040401e-14)" style="fill:#9bca89"/><path d="M473.8,948.6c3.7,0,7.2,0.6,10.4,1.5c-3.2-11.4-10.4-19.6-10.4-19.6s-7.2,8.1-10.4,19.6 C466.7,949.2,470.2,948.6,473.8,948.6z" class="st6" transform="matrix(1, 0, 0, 1, 1.1368683772161603e-13, 2.842170943040401e-14)" style="fill:#9bca89"/><path d="M473.8,990.5c0,0,7.2-8.1,10.4-19.4c0,0,0-0.1,0-0.1c-3.2,0.9-6.8,1.5-10.4,1.5c-3.7,0-7.2-0.6-10.4-1.5 C466.6,982.4,473.8,990.5,473.8,990.5z" class="st6" transform="matrix(1, 0, 0, 1, 1.1368683772161603e-13, 2.842170943040401e-14)" style="fill:#9bca89"/><path d="M473.8,948.6c-3.7,0-7.2,0.6-10.4,1.5c-0.4,0.1-0.9,0.3-1.3,0.4c-10.7,3.4-18.2,10-18.2,10 s8.1,7.2,19.6,10.4c3.2,0.9,6.8,1.5,10.4,1.5c3.7,0,7.2-0.6,10.4-1.5c11.4-3.2,19.6-10.4,19.6-10.4s-8.1-7.2-19.6-10.4 C481,949.2,477.5,948.6,473.8,948.6z" class="st6" transform="matrix(1, 0, 0, 1, 8.526512829121202e-14, 2.1316282072803006e-14)" style="fill:#9bca89"/><path d="M185.9,948.6c3.7,0,7.2,0.6,10.4,1.5c-3.2-11.4-10.4-19.6-10.4-19.6s-7.2,8.1-10.4,19.6 C178.8,949.2,182.3,948.6,185.9,948.6z" class="st7" transform="matrix(1, 0, 0, 1, 1.1368683772161603e-13, 2.842170943040401e-14)" style="fill:#b0e19f"/><path d="M175.7,971c0,0-0.1,0-0.1,0c0,0.1,0,0.1,0,0.1C175.6,971,175.6,971,175.7,971z" class="st7" transform="matrix(1, 0, 0, 1, 1.1368683772161603e-13, 2.842170943040401e-14)" style="fill:#b0e19f"/><path d="M175.5,950.1c-11.4,3.2-19.6,10.4-19.6,10.4s8.1,7.2,19.6,10.4c0,0,0.1,0,0.1,0c6.8-7.3,14.2-14.2,22-20.5 c-0.4-0.1-0.9-0.3-1.3-0.4c-3.2-0.9-6.8-1.5-10.4-1.5C182.3,948.6,178.8,949.2,175.5,950.1z" class="st7" transform="matrix(1, 0, 0, 1, 8.526512829121202e-14, 2.1316282072803006e-14)" style="fill:#b0e19f"/><path d="M175.5,1258.5c3.2-0.9,6.8-1.5,10.4-1.5c3.7,0,7.2,0.6,10.4,1.5c-3.2-11.4-10.4-19.6-10.4-19.6 s-7.2,8.1-10.4,19.4C175.5,1258.4,175.5,1258.5,175.5,1258.5z" class="st6" transform="matrix(1, 0, 0, 1, 1.1368683772161603e-13, 2.842170943040401e-14)" style="fill:#9bca89"/><path d="M185.9,1299c0,0,7.2-8.1,10.4-19.6c-3.2,0.9-6.8,1.5-10.4,1.5c-3.7,0-7.2-0.6-10.4-1.5 C178.7,1290.8,185.9,1299,185.9,1299z" class="st6" transform="matrix(1, 0, 0, 1, 1.1368683772161603e-13, 2.842170943040401e-14)" style="fill:#9bca89"/><path d="M175.5,1258.5c-11.4,3.2-19.6,10.4-19.6,10.4s8.1,7.2,19.6,10.4c3.2,0.9,6.8,1.5,10.4,1.5 c3.7,0,7.2-0.6,10.4-1.5c0.4-0.1,0.9-0.3,1.3-0.4c10.7-3.4,18.2-10,18.2-10s-8.1-7.2-19.6-10.4c-3.2-0.9-6.8-1.5-10.4-1.5 C182.3,1257,178.8,1257.6,175.5,1258.5z" class="st6" transform="matrix(1, 0, 0, 1, 8.526512829121202e-14, 2.1316282072803006e-14)" style="fill:#9bca89"/><path d="M340.5,1138.6c0,0,7.2,8.1,10.4,19.6c0.4,0.1,0.9,0.3,1.3,0.4c44.6-38.7,72.9-95.8,72.9-159.4 c0-28.2-5.5-55.1-15.6-79.7c-4.1-1.7-8.2-3.2-12.3-4.6c0,0,0,0,0,0c-0.1,0-0.2-0.1-0.3-0.1c0,0,0,0,0,0c-0.1,0-0.2-0.1-0.3-0.1 c0,0-0.1,0-0.1,0c-0.1,0-0.1,0-0.2-0.1c0,0-0.1,0-0.1,0c-0.1,0-0.1,0-0.2-0.1c0,0-0.1,0-0.1,0c-0.1,0-0.1,0-0.2-0.1 c0,0-0.1,0-0.1,0s-0.1,0-0.1,0c-0.1,0-0.1,0-0.2-0.1c0,0-0.1,0-0.1,0c-0.1,0-0.1,0-0.2-0.1c0,0-0.1,0-0.1,0c-0.1,0-0.1,0-0.2-0.1 c0,0-0.1,0-0.1,0c-0.1,0-0.1,0-0.2-0.1c0,0-0.1,0-0.1,0c-0.1,0-0.1,0-0.2-0.1c0,0-0.1,0-0.1,0c-0.1,0-0.1,0-0.2-0.1 c0,0-0.1,0-0.1,0c-0.1,0-0.1,0-0.2-0.1c0,0-0.1,0-0.1,0c-0.1,0-0.2,0-0.2-0.1c0,0,0,0-0.1,0c-0.1,0-0.2-0.1-0.3-0.1c0,0,0,0,0,0 c-0.1,0-0.2-0.1-0.3-0.1c0,0,0,0,0,0c-14.4-4.5-29.4-7.4-44.9-8.7l0,0c-0.1,0-0.2,0-0.3,0c0,0,0,0,0,0c-0.1,0-0.2,0-0.3,0 c0,0,0,0,0,0c-0.1,0-0.2,0-0.3,0c0,0,0,0,0,0c-0.1,0-0.2,0-0.3,0c0,0,0,0-0.1,0c-0.1,0-0.2,0-0.3,0c0,0,0,0-0.1,0 c-0.1,0-0.2,0-0.3,0c0,0,0,0,0,0c-0.1,0-0.2,0-0.3,0c0,0,0,0-0.1,0c-0.1,0-0.2,0-0.3,0c0,0,0,0-0.1,0c-0.1,0-0.2,0-0.3,0 c0,0,0,0-0.1,0c-0.1,0-0.2,0-0.3,0c0,0,0,0-0.1,0c-0.1,0-0.2,0-0.3,0c0,0,0,0-0.1,0c-0.1,0-0.2,0-0.3,0c0,0,0,0-0.1,0 c-0.1,0-0.2,0-0.3,0c0,0-0.1,0-0.1,0c-0.1,0-0.2,0-0.3,0c0,0,0,0-0.1,0c-0.1,0-0.2,0-0.3,0c0,0-0.1,0-0.1,0c-0.1,0-0.2,0-0.3,0 c0,0,0,0-0.1,0c-0.1,0-0.2,0-0.3,0c0,0,0,0,0,0c-0.1,0-0.2,0-0.3,0l0,0c-0.1,0-0.2,0-0.3,0c0,0,0,0,0,0c-0.6,0-1.3-0.1-1.9-0.1 c0,0,0,0,0,0c-0.1,0-0.2,0-0.3,0c0,0,0,0,0,0c-0.1,0-0.2,0-0.3,0c0,0-0.1,0-0.1,0c-0.1,0-0.2,0-0.2,0c0,0-0.1,0-0.1,0 c-0.1,0-0.1,0-0.2,0c0,0-0.1,0-0.1,0c-0.1,0-0.1,0-0.2,0c0,0-0.1,0-0.1,0c-0.1,0-0.1,0-0.2,0c0,0-0.1,0-0.2,0c-0.1,0-0.1,0-0.2,0 c0,0-0.1,0-0.1,0c-0.1,0-0.1,0-0.2,0c-0.1,0-0.1,0-0.2,0c-0.1,0-0.1,0-0.2,0c0,0-0.1,0-0.1,0c-0.1,0-0.1,0-0.2,0c0,0-0.1,0-0.1,0 c-0.1,0-0.1,0-0.2,0c0,0-0.1,0-0.1,0c-0.1,0-0.1,0-0.2,0c-0.1,0-0.1,0-0.2,0c-0.1,0-0.1,0-0.2,0c0,0-0.1,0-0.2,0 c-0.1,0-0.1,0-0.2,0c-0.1,0-0.1,0-0.2,0c-0.1,0-0.1,0-0.2,0c-0.1,0-0.1,0-0.2,0c-0.1,0-0.1,0-0.2,0c-0.1,0-0.1,0-0.2,0 c-0.1,0-0.1,0-0.2,0s-0.1,0-0.2,0c-0.1,0-0.1,0-0.2,0c-0.1,0-0.1,0-0.2,0c-0.1,0-0.1,0-0.2,0c0,0-0.1,0-0.2,0c-0.1,0-0.1,0-0.2,0 c-0.1,0-0.1,0-0.2,0c-0.1,0-0.1,0-0.2,0c-0.1,0-0.1,0-0.2,0c-0.1,0-0.1,0-0.2,0c-0.1,0-0.1,0-0.2,0c-0.1,0-0.1,0-0.2,0 c-0.1,0-0.1,0-0.2,0c-0.1,0-0.1,0-0.2,0s-0.1,0-0.2,0c-0.1,0-0.1,0-0.2,0c-0.1,0-0.1,0-0.2,0c-0.1,0-0.1,0-0.2,0 c-0.1,0-0.1,0-0.2,0c0,0-0.1,0-0.1,0c-0.1,0-0.1,0-0.2,0c0,0-0.1,0-0.1,0c-0.1,0-0.2,0-0.3,0c-50.1,0-96,17.4-132.2,46.6 c-7.8,6.3-15.2,13.2-22,20.5c0,0-0.1,0.1-0.1,0.1c-35.1,37.7-56.5,88.2-56.5,143.7c0,0.1,0,0.2,0,0.3c0,0,0,0.1,0,0.1 c0,0.1,0,0.1,0,0.2c0,0,0,0.1,0,0.1c0,0.1,0,0.1,0,0.2c0,0.1,0,0.1,0,0.2c0,0.1,0,0.1,0,0.2c0,0.1,0,0.1,0,0.2c0,0.1,0,0.1,0,0.2 c0,0.1,0,0.1,0,0.2c0,0.1,0,0.1,0,0.2c0,0.1,0,0.1,0,0.1c0,0.1,0,0.1,0,0.2c0,0,0,0.1,0,0.1c0,0.1,0,0.1,0,0.2c0,0.1,0,0.1,0,0.2 c0,0.1,0,0.1,0,0.2c0,0.1,0,0.1,0,0.2c0,0.1,0,0.1,0,0.2c0,0.1,0,0.1,0,0.2c0,0.1,0,0.1,0,0.2c0,0.1,0,0.1,0,0.2 c0,0.1,0,0.1,0,0.2c0,0.1,0,0.1,0,0.2c0,0.1,0,0.1,0,0.2c0,0.1,0,0.1,0,0.2c0,0.1,0,0.1,0,0.2c0,0.1,0,0.1,0,0.2 c0,0.1,0,0.1,0,0.2c0,0,0,0.1,0,0.2c0,0.1,0,0.1,0,0.2c0,0.1,0,0.1,0,0.2c0,0.1,0,0.1,0,0.2c0,0.1,0,0.1,0,0.2c0,0.1,0,0.1,0,0.2 c0,0.1,0,0.1,0,0.2c0,0.1,0,0.1,0,0.2c0,0,0,0.1,0,0.1c0,0.1,0,0.1,0,0.2c0,0,0,0.1,0,0.1c0,0.1,0,0.1,0,0.2c0,0,0,0.1,0,0.1 c0,0.1,0,0.1,0,0.2c0,0,0,0.1,0,0.1c0,0.1,0,0.1,0,0.2c0,0,0,0.1,0,0.1c0,0.1,0,0.1,0,0.2c0,0,0,0.1,0,0.1c0,0.1,0,0.1,0,0.2 c0,0,0,0.1,0,0.1c0,0.1,0,0.1,0,0.2c0,0,0,0.1,0,0.1c0,0.1,0,0.2,0,0.3c0,0,0,0.1,0,0.1c0,0.1,0,0.2,0,0.3c0,0,0,0.1,0,0.1 c0,0.4,0,0.9,0.1,1.3c0,0,0,0,0,0c0,0.1,0,0.2,0,0.3c0,0,0,0,0,0c0,0.1,0,0.2,0,0.3c0,0,0,0.1,0,0.1c0,0.1,0,0.2,0,0.2 c0,0,0,0.1,0,0.1c0,0.1,0,0.2,0,0.2c0,0,0,0.1,0,0.1c0,0.1,0,0.1,0,0.2c0,0,0,0.1,0,0.1c0,0.1,0,0.1,0,0.2c0,0,0,0.1,0,0.1 c0,0.1,0,0.1,0,0.2c0,0,0,0.1,0,0.1c0,0.1,0,0.1,0,0.2c0,0,0,0.1,0,0.1c0,0.1,0,0.1,0,0.2c0,0,0,0.1,0,0.1c0,0.1,0,0.1,0,0.2 c0,0,0,0.1,0,0.1c0,0.1,0,0.2,0,0.2c0,0,0,0.1,0,0.1c0,0.1,0,0.2,0,0.2c0,0,0,0.1,0,0.1c0,0.1,0,0.1,0,0.2c0,0,0,0.1,0,0.1 c0,0.1,0,0.2,0,0.2c0,0,0,0.1,0,0.1c0,0.1,0,0.2,0,0.2c0,0,0,0.1,0,0.1c0,0.1,0,0.1,0,0.2c0,0,0,0.1,0,0.1c0,0.1,0,0.1,0,0.2 c0,0,0,0.1,0,0.1c0,0.1,0,0.2,0,0.2c0,0,0,0.1,0,0.1c0,0.1,0,0.2,0,0.2c0,0,0,0.1,0,0.1c0,0.1,0,0.2,0,0.2c0,0,0,0.1,0,0.1 c0,0.1,0,0.2,0,0.2c0,0,0,0.1,0,0.1c0,0.1,0,0.2,0,0.2c0,0,0,0.1,0,0.1c0,0.1,0,0.2,0,0.3c0,0,0,0,0,0.1c0,0.1,0,0.2,0,0.3 c0,0,0,0,0,0.1c0,0.1,0,0.2,0,0.3c0,0,0,0,0,0c0.1,1,0.2,2,0.3,3c0,0,0,0,0,0c0,0.1,0,0.2,0,0.3c0,0,0,0,0,0c0,0.1,0,0.2,0,0.3 c0,0,0,0,0,0.1c0,0.1,0,0.2,0,0.3c0,0,0,0,0,0c0,0.1,0,0.2,0,0.3c0,0,0,0,0,0c0,0.1,0,0.2,0,0.3c0,0,0,0,0,0c0,0.1,0,0.2,0,0.3 c0,0,0,0,0,0.1c0,0.1,0,0.2,0,0.3c0,0,0,0,0,0c0,0.1,0,0.2,0,0.3c0,0,0,0,0,0.1c0,0.1,0,0.2,0,0.3c0,0,0,0,0,0.1 c0,0.1,0,0.2,0,0.3c0,0,0,0,0,0.1c0,0.1,0,0.2,0,0.3c0,0,0,0,0,0c0,0.1,0,0.2,0,0.3c0,0,0,0,0,0c0,0.1,0,0.2,0,0.3c0,0,0,0,0,0 c0,0.1,0,0.2,0,0.3c0,0,0,0,0,0.1c0,0.1,0,0.2,0,0.3c0,0,0,0,0,0c0,0.1,0,0.2,0,0.3c0,0,0,0,0,0c0,0.1,0,0.2,0,0.3c0,0,0,0,0,0 c0,0.1,0,0.2,0,0.3c0,0,0,0,0,0c0.3,2.2,0.6,4.4,1,6.5c0,0,0,0,0,0c1.6,9.6,3.8,18.9,6.6,28c0,0,0,0,0,0c0,0.1,0.1,0.2,0.1,0.3 c0,0,0,0,0,0c0,0.1,0.1,0.2,0.1,0.3c0,0,0,0,0,0c0,0.1,0.1,0.2,0.1,0.3c0,0,0,0,0,0c0,0.1,0.1,0.2,0.1,0.3c0,0,0,0,0,0 c0,0.1,0.1,0.2,0.1,0.3c0,0,0,0,0,0c0,0.1,0.1,0.2,0.1,0.3c0,0,0,0,0,0.1c0,0.1,0.1,0.2,0.1,0.2c0,0,0,0,0,0.1 c0,0.1,0.1,0.2,0.1,0.2c0,0,0,0.1,0,0.1c0,0.1,0.1,0.2,0.1,0.2c0,0,0,0,0,0.1c0,0.1,0.1,0.2,0.1,0.2c0,0,0,0,0,0.1 c0,0.1,0.1,0.2,0.1,0.2c0,0,0,0,0,0.1c0,0.1,0.1,0.2,0.1,0.2c0,0,0,0.1,0,0.1c0,0.1,0.1,0.2,0.1,0.2c0,0,0,0,0,0.1 c0,0.1,0.1,0.2,0.1,0.2c0,0,0,0.1,0,0.1c0,0.1,0,0.1,0.1,0.2c0,0,0,0.1,0,0.1c0,0.1,0,0.1,0.1,0.2c0,0,0,0.1,0,0.1 c0,0.1,0,0.1,0.1,0.2c0,0,0,0.1,0,0.1c0,0.1,0.1,0.1,0.1,0.2c0,0,0,0.1,0,0.1c0,0.1,0,0.1,0.1,0.2c0,0,0,0.1,0,0.1 c0,0.1,0,0.1,0.1,0.2c0,0,0,0.1,0,0.1c0,0.1,0.1,0.2,0.1,0.2c0,0,0,0,0,0.1c0.1,0.2,0.1,0.4,0.2,0.6c0,0,0,0.1,0,0.1 c0,0.1,0,0.1,0.1,0.2c0,0,0,0.1,0,0.1c0,0.1,0,0.1,0.1,0.2c0,0.1,0,0.1,0.1,0.2c0,0,0,0.1,0,0.1c0,0.1,0,0.1,0.1,0.2 c0,0,0,0.1,0,0.1c0,0.1,0,0.1,0.1,0.2c0,0,0,0.1,0,0.1c0,0.1,0,0.1,0.1,0.2c0,0,0,0.1,0,0.1c0,0.1,0.1,0.1,0.1,0.2c0,0,0,0,0,0.1 c0,0.1,0.1,0.2,0.1,0.2c0,0,0,0,0,0.1c0,0.1,0.1,0.2,0.1,0.2c0,0,0,0,0,0c0,0.1,0.1,0.2,0.1,0.2c0,0,0,0,0,0.1 c0,0.1,0.1,0.2,0.1,0.2c0,0,0,0,0,0c0,0.1,0.1,0.2,0.1,0.2c0,0,0,0,0,0.1c0,0.1,0.1,0.2,0.1,0.2c0,0,0,0,0,0 c0,0.1,0.1,0.2,0.1,0.2c0,0,0,0,0,0c0,0.1,0.1,0.2,0.1,0.2c0,0,0,0,0,0c0,0.1,0.1,0.2,0.1,0.3c0,0,0,0,0,0c0,0.1,0.1,0.2,0.1,0.3 c0,0,0,0,0,0c0,0.1,0.1,0.2,0.1,0.3c0,0,0,0,0,0c0.6,1.6,1.2,3.1,1.8,4.6c24.6,10,51.5,15.6,79.7,15.6c41.2,0,79.6-11.8,112-32.2 c-9.4-3.5-15.8-9.2-15.8-9.2s8.1-7.2,19.6-10.4C333.3,1146.8,340.5,1138.6,340.5,1138.6z M331.2,981.2c0,0,10.9,0.6,21.2,6.5 c10.3-5.8,21.2-6.5,21.2-6.5s-0.6,10.9-6.5,21.2c5.8,10.3,6.5,21.2,6.5,21.2s-10.9-0.6-21.2-6.5c-10.3,5.8-21.2,6.5-21.2,6.5 s0.6-10.9,6.5-21.2C331.8,992,331.2,981.2,331.2,981.2z M237.1,1135.9c0,0-10.9-0.6-21.2-6.5c-10.3,5.8-21.2,6.5-21.2,6.5 s0.6-10.9,6.5-21.2c-5.8-10.3-6.5-21.2-6.5-21.2s10.9,0.6,21.2,6.5c10.3-5.8,21.2-6.5,21.2-6.5s-0.6,10.9-6.5,21.2 C236.5,1125.1,237.1,1135.9,237.1,1135.9z" class="st7" transform="matrix(1, 0, 0, 1, 8.526512829121202e-14, 2.1316282072803006e-14)" style="fill:#b0e19f"/><path d="M340.5,1156.7c3.7,0,7.2,0.6,10.4,1.5c-3.2-11.4-10.4-19.6-10.4-19.6s-7.2,8.1-10.4,19.6 C333.3,1157.3,336.8,1156.7,340.5,1156.7z" class="st7" transform="matrix(1, 0, 0, 1, 1.1368683772161603e-13, 2.842170943040401e-14)" style="fill:#b0e19f"/><path d="M340.5,1198.6c0,0,7.2-8.1,10.4-19.6c-3.2,0.9-6.8,1.5-10.4,1.5c-3.7,0-7.2-0.6-10.4-1.5 C333.3,1190.5,340.5,1198.6,340.5,1198.6z" class="st7" transform="matrix(1, 0, 0, 1, 1.1368683772161603e-13, 2.842170943040401e-14)" style="fill:#b0e19f"/><path d="M340.5,1156.7c-3.7,0-7.2,0.6-10.4,1.5c-11.4,3.2-19.6,10.4-19.6,10.4s6.4,5.7,15.8,9.2 c1.2,0.5,2.5,0.9,3.8,1.2c3.2,0.9,6.8,1.5,10.4,1.5c3.7,0,7.2-0.6,10.4-1.5c11.4-3.2,19.6-10.4,19.6-10.4s-7.5-6.7-18.2-10 c-0.4-0.1-0.9-0.3-1.3-0.4C347.7,1157.3,344.2,1156.7,340.5,1156.7z" class="st7" transform="matrix(1, 0, 0, 1, 8.526512829121202e-14, 2.1316282072803006e-14)" style="fill:#b0e19f"/><path d="M215.9,1129.5c10.3,5.8,21.2,6.5,21.2,6.5s-0.6-10.9-6.5-21.2c-1.7,2.9-3.7,5.8-6.3,8.4 C221.8,1125.8,218.9,1127.8,215.9,1129.5z" class="st8" transform="matrix(1, 0, 0, 1, 1.1368683772161603e-13, 2.842170943040401e-14)" style="fill:#bbedaa"/><path d="M207.5,1106.3c2.6-2.6,5.5-4.7,8.4-6.3c-10.3-5.8-21.2-6.5-21.2-6.5s0.6,10.9,6.5,21.2 C202.8,1111.8,204.9,1108.9,207.5,1106.3z" class="st8" transform="matrix(1, 0, 0, 1, 1.1368683772161603e-13, 2.842170943040401e-14)" style="fill:#bbedaa"/><path d="M201.2,1114.7c-5.8,10.3-6.5,21.2-6.5,21.2s10.9-0.6,21.2-6.5c2.9-1.7,5.8-3.7,8.4-6.3 c2.6-2.6,4.7-5.5,6.3-8.4c5.8-10.3,6.5-21.2,6.5-21.2s-10.9,0.6-21.2,6.5c-2.9,1.7-5.8,3.7-8.4,6.3 C204.9,1108.9,202.8,1111.8,201.2,1114.7z" class="st8" transform="matrix(1, 0, 0, 1, 8.526512829121202e-14, 2.1316282072803006e-14)" style="fill:#bbedaa"/><path d="M352.4,1017.1c10.3,5.8,21.2,6.5,21.2,6.5s-0.6-10.9-6.5-21.2c-1.7,2.9-3.7,5.8-6.3,8.4 C358.2,1013.4,355.3,1015.4,352.4,1017.1z" class="st8" transform="matrix(1, 0, 0, 1, 1.1368683772161603e-13, 2.842170943040401e-14)" style="fill:#bbedaa"/><path d="M344,993.9c2.6-2.6,5.5-4.7,8.4-6.3c-10.3-5.8-21.2-6.5-21.2-6.5s0.6,10.9,6.5,21.2 C339.3,999.4,341.4,996.5,344,993.9z" class="st8" transform="matrix(1, 0, 0, 1, 1.1368683772161603e-13, 2.842170943040401e-14)" style="fill:#bbedaa"/><path d="M337.7,1002.4c-5.8,10.3-6.5,21.2-6.5,21.2s10.9-0.6,21.2-6.5c2.9-1.7,5.8-3.7,8.4-6.3 c2.6-2.6,4.7-5.5,6.3-8.4c5.8-10.3,6.5-21.2,6.5-21.2s-10.9,0.6-21.2,6.5c-2.9,1.7-5.8,3.7-8.4,6.3 C341.4,996.5,339.3,999.4,337.7,1002.4z" class="st8" transform="matrix(1, 0, 0, 1, 8.526512829121202e-14, 2.1316282072803006e-14)" style="fill:#bbedaa"/><path d="M370.1,1271.1c0-27.3,10.6-52.2,27.8-70.7c0,0,0,0,0-0.1c-4.4-1.2-7.9-3.7-9.1-4.7c-2.1,2.4-4.1,4.8-6,7.4 c-6,8-10.9,16.8-14.6,26.2c-0.3,0.9-0.7,1.7-1,2.6c-1,2.6-1.8,5.2-2.6,7.9s-1.4,5.4-2,8.2c-0.6,2.8-1,5.6-1.4,8.4 c-0.6,4.7-0.9,9.5-0.9,14.4c0,1,0,1.9,0,2.9c0,0.3,0,0.6,0,1c0,0.6,0,1.3,0.1,1.9c0,0.4,0,0.8,0.1,1.1c0,0.6,0.1,1.1,0.1,1.7 c0,0.4,0.1,0.8,0.1,1.2c0,0.5,0.1,1.1,0.1,1.6c0,0.4,0.1,0.8,0.1,1.3c0.1,0.5,0.1,1,0.2,1.5c0.1,0.4,0.1,0.9,0.2,1.3 c0.1,0.5,0.1,1,0.2,1.5c0.1,0.4,0.1,0.9,0.2,1.3c0.1,0.5,0.2,1,0.2,1.5c0.1,0.4,0.2,0.9,0.2,1.3c0.1,0.5,0.2,1,0.3,1.4 c0.1,0.4,0.2,0.9,0.3,1.3c0.1,0.5,0.2,0.9,0.3,1.4c0.1,0.4,0.2,0.9,0.3,1.3c0.1,0.5,0.2,0.9,0.3,1.4c0.1,0.4,0.2,0.9,0.3,1.3 c0.1,0.5,0.2,0.9,0.4,1.4c0.1,0.4,0.2,0.8,0.4,1.3c0.1,0.5,0.3,0.9,0.4,1.4c0.1,0.4,0.3,0.8,0.4,1.3c0.1,0.4,0.3,0.9,0.4,1.3 c0.1,0.4,0.3,0.8,0.4,1.3c0.2,0.4,0.3,0.9,0.5,1.3c0.1,0.4,0.3,0.8,0.5,1.2c0.2,0.4,0.3,0.9,0.5,1.3c0.2,0.4,0.3,0.8,0.5,1.2 c0.1,0.2,0.2,0.4,0.3,0.6l0,0c1.1,2.6,2.3,5.2,3.5,7.8c3.3-0.7,6.5-1.4,9.7-2.2c-6.4-12.2-10.4-25.8-11.5-40.3c0,0,0,0,0,0 c0-0.1,0-0.1,0-0.2c0,0,0,0,0,0c0-0.1,0-0.1,0-0.2c0,0,0,0,0,0c0-0.1,0-0.2,0-0.3c0,0,0,0,0,0c0-0.1,0-0.1,0-0.1c0,0,0,0,0,0 c0-0.1,0-0.2,0-0.3v0c0-0.1,0-0.1,0-0.2c0,0,0,0,0,0c0,0,0-0.1,0-0.1c0,0,0,0,0,0c0,0,0-0.1,0-0.1c0,0,0,0,0,0 c0-0.5-0.1-1-0.1-1.6c0,0,0,0,0,0c0,0,0-0.1,0-0.1c0,0,0,0,0,0c0,0,0-0.1,0-0.1c0,0,0,0,0,0c0,0,0-0.1,0-0.1c0,0,0,0,0,0 c0,0,0-0.1,0-0.1c0,0,0,0,0-0.1c0,0,0-0.1,0-0.1c0,0,0,0,0-0.1c0,0,0-0.1,0-0.1c0,0,0,0,0-0.1c0,0,0-0.1,0-0.1c0,0,0,0,0-0.1 c0,0,0-0.1,0-0.1c0,0,0,0,0-0.1c0,0,0-0.1,0-0.1c0,0,0-0.1,0-0.1c0,0,0-0.1,0-0.1c0,0,0,0,0-0.1c0,0,0-0.1,0-0.1c0,0,0,0,0-0.1 c0,0,0-0.1,0-0.1c0,0,0-0.1,0-0.1c0,0,0-0.1,0-0.1c0,0,0-0.1,0-0.1c0,0,0-0.1,0-0.1c0,0,0-0.1,0-0.1c0,0,0-0.1,0-0.1 c0,0,0-0.1,0-0.1c0,0,0-0.1,0-0.1c0,0,0-0.1,0-0.1c0,0,0-0.1,0-0.1s0-0.1,0-0.1c0,0,0-0.1,0-0.1c0,0,0-0.1,0-0.1 c0,0,0-0.1,0-0.1c0,0,0-0.1,0-0.1c0,0,0-0.1,0-0.1c0,0,0-0.1,0-0.1c0,0,0-0.1,0-0.1c0,0,0-0.1,0-0.1c0,0,0-0.1,0-0.1 c0,0,0-0.1,0-0.1c0,0,0,0,0-0.1c0,0,0-0.1,0-0.1c0,0,0,0,0-0.1c0,0,0-0.1,0-0.1c0,0,0-0.1,0-0.1c0,0,0-0.1,0-0.1c0,0,0,0,0-0.1 c0,0,0-0.1,0-0.1c0,0,0,0,0,0C370.1,1271.2,370.1,1271.2,370.1,1271.1z" class="st10" transform="matrix(1, 0, 0, 1, 1.1368683772161603e-13, 2.842170943040401e-14)" style="fill:#99c587"/><path d="M515.7,1165.6c-0.4-0.2-0.8-0.3-1.2-0.5c-0.4-0.2-0.9-0.3-1.3-0.5c-0.4-0.2-0.8-0.3-1.2-0.5 c-0.4-0.2-0.9-0.3-1.3-0.5c-0.4-0.1-0.8-0.3-1.2-0.4c-0.4-0.1-0.9-0.3-1.4-0.4c-0.4-0.1-0.8-0.3-1.3-0.4 c-0.5-0.1-0.9-0.3-1.4-0.4c-0.4-0.1-0.8-0.2-1.3-0.4c-0.5-0.1-0.9-0.3-1.4-0.4c-0.4-0.1-0.8-0.2-1.3-0.3 c-0.5-0.1-0.9-0.2-1.4-0.3c-0.4-0.1-0.9-0.2-1.3-0.3c-0.5-0.1-1-0.2-1.4-0.3c-0.4-0.1-0.9-0.2-1.3-0.3c-0.5-0.1-1-0.2-1.5-0.3 c-0.4-0.1-0.9-0.2-1.3-0.2c-0.5-0.1-1-0.2-1.5-0.2c-0.4-0.1-0.9-0.1-1.3-0.2c-0.5-0.1-1-0.1-1.5-0.2c-0.4-0.1-0.8-0.1-1.3-0.2 c-0.5-0.1-1-0.1-1.5-0.2c-0.4,0-0.8-0.1-1.3-0.1c-0.5-0.1-1.1-0.1-1.6-0.1c-0.4,0-0.8-0.1-1.2-0.1c-0.6,0-1.1-0.1-1.7-0.1 c-0.4,0-0.8-0.1-1.1-0.1c-0.6,0-1.3-0.1-1.9-0.1c-0.3,0-0.6,0-1,0c-1,0-1.9,0-2.9,0c-23.5,0-45.2,7.1-63.3,19.3 c-2.2,1.5-4.3,3-6.4,4.6c1.1,1.5,3.2,4.7,4.3,8.6c0.2,0.1,0.4,0.1,0.7,0.2c17.8-14.3,40.4-22.9,65-22.9c0.1,0,0.1,0,0.2,0 c0,0,0,0,0,0c0,0,0.1,0,0.1,0c0,0,0,0,0,0c0,0,0.1,0,0.1,0c0,0,0,0,0,0c0,0,0.1,0,0.1,0c0,0,0,0,0.1,0c0,0,0.1,0,0.1,0 c0,0,0,0,0.1,0c0,0,0.1,0,0.1,0c0,0,0,0,0.1,0c0,0,0.1,0,0.1,0c0,0,0,0,0.1,0c0,0,0.1,0,0.1,0c0,0,0,0,0.1,0c0,0,0.1,0,0.1,0 c0,0,0,0,0.1,0c0,0,0.1,0,0.1,0c0,0,0,0,0.1,0c0,0,0.1,0,0.1,0c0,0,0,0,0.1,0c0,0,0.1,0,0.1,0c0,0,0,0,0.1,0c0,0,0.1,0,0.1,0 c0,0,0,0,0.1,0c0,0,0.1,0,0.1,0c0,0,0,0,0.1,0c0,0,0.1,0,0.1,0c0,0,0,0,0.1,0c0,0,0.1,0,0.1,0c0,0,0,0,0.1,0c0,0,0.1,0,0.1,0 c0,0,0,0,0.1,0c0,0,0.1,0,0.1,0c0,0,0,0,0.1,0c0,0,0.1,0,0.1,0c0,0,0,0,0.1,0c0,0,0.1,0,0.1,0c0,0,0,0,0,0c0,0,0.1,0,0.1,0 c0,0,0,0,0,0c0,0,0.1,0,0.1,0c0,0,0,0,0,0c0,0,0.1,0,0.1,0c0,0,0,0,0,0c12.5,0.5,24.4,3.1,35.3,7.6c5.7,2.3,11.1,5.1,16.3,8.4 c1.1-3.1,2.1-6.3,3-9.4c-5.1-3.1-10.4-5.8-16-8.1l0,0C516.1,1165.8,515.9,1165.7,515.7,1165.6z" class="st10" transform="matrix(1, 0, 0, 1, 1.1368683772161603e-13, 2.842170943040401e-14)" style="fill:#99c587"/><path d="M390.6,1182.3c-6.1,1.7-10.5,5.6-10.5,5.6s4.4,3.9,10.5,5.6c1.7-1.1,4.3-2.6,7.3-3.4c1-3.4,2.7-6.3,3.8-8 c-1.7-6-5.5-10.3-5.5-10.3S392.3,1176.2,390.6,1182.3z" class="st10" transform="matrix(1, 0, 0, 1, 1.1368683772161603e-13, 2.842170943040401e-14)" style="fill:#99c587"/><path d="M 409.8999938964844 1352.800048828125 L 409.8999938964844 1352.800048828125 L 406.6000061035156 1356.199951171875 L 406.6000061035156 1356.199951171875 Z" class="st4" transform="matrix(1, 0, 0, 1, 1.1368683772161603e-13, 2.842170943040401e-14)" style="fill:#c0ad96"/><path d="M337.9,1479.7l11.4-11.4l97.1-97.1c-6.9-1.9-13.5-4.5-19.8-7.7l-49.9,49.9c-3.8,3.8-8.7,5.7-13.7,5.7 s-9.9-1.9-13.7-5.7l52.8-52.8v0l-52.8,52.8l-19.6,19.6c0.1,0.9,0.2,1.8,0.2,2.8v35.8L337.9,1479.7z" class="st4" transform="matrix(1, 0, 0, 1, 1.1368683772161603e-13, 2.842170943040401e-14)" style="fill:#c0ad96"/><path d="M403,1361.7c0,0-0.4-0.4-0.9-1.1l-52.8,52.8c3.8,3.8,8.7,5.7,13.7,5.7s9.9-1.9,13.7-5.7l49.9-49.9 c-5.9-3-11.5-6.6-16.7-10.7l-3.3,3.3C404.9,1359.6,403,1361.7,403,1361.7z" class="st9" transform="matrix(1, 0, 0, 1, 8.526512829121202e-14, 2.1316282072803006e-14)" style="fill:#c8b7a1"/><path d="M310.5,1416.5v35.8v125.4c10.7,0,19.4-8.7,19.4-19.4v-86.6v-35.8c0-0.9-0.1-1.9-0.2-2.8 C328.3,1423.7,320.3,1416.5,310.5,1416.5z" class="st9" transform="matrix(1, 0, 0, 1, 8.526512829121202e-14, 2.1316282072803006e-14)" style="fill:#c8b7a1"/><path d="M375,1302.7c-0.4-1.1-0.7-2.3-1-3.4C374.3,1300.4,374.6,1301.5,375,1302.7z" class="st6" transform="matrix(1, 0, 0, 1, 1.1368683772161603e-13, 2.842170943040401e-14)" style="fill:#9bca89"/><path d="M374,1299.2c-0.1-0.2-0.1-0.5-0.2-0.7C373.8,1298.8,373.9,1299,374,1299.2z" class="st6" transform="matrix(1, 0, 0, 1, 1.1368683772161603e-13, 2.842170943040401e-14)" style="fill:#9bca89"/><path d="M373.8,1298.5c-0.3-1.1-0.6-2.2-0.8-3.2C373.2,1296.4,373.5,1297.5,373.8,1298.5z" class="st6" transform="matrix(1, 0, 0, 1, 1.1368683772161603e-13, 2.842170943040401e-14)" style="fill:#9bca89"/><path d="M375.1,1303.1c-0.1-0.2-0.1-0.3-0.2-0.5C375,1302.8,375.1,1303,375.1,1303.1z" class="st6" transform="matrix(1, 0, 0, 1, 1.1368683772161603e-13, 2.842170943040401e-14)" style="fill:#9bca89"/><path d="M377.7,1310.1c-0.4-1.1-0.9-2.2-1.3-3.3C376.8,1307.9,377.2,1309,377.7,1310.1z" class="st6" transform="matrix(1, 0, 0, 1, 1.1368683772161603e-13, 2.842170943040401e-14)" style="fill:#9bca89"/><path d="M372.9,1295.3c0-0.1-0.1-0.2-0.1-0.4C372.9,1295.1,372.9,1295.2,372.9,1295.3z" class="st6" transform="matrix(1, 0, 0, 1, 1.1368683772161603e-13, 2.842170943040401e-14)" style="fill:#9bca89"/><path d="M376.2,1306.2c-0.4-1-0.7-2-1.1-3.1C375.5,1304.2,375.8,1305.2,376.2,1306.2z" class="st6" transform="matrix(1, 0, 0, 1, 1.1368683772161603e-13, 2.842170943040401e-14)" style="fill:#9bca89"/><path d="M376.4,1306.8c-0.1-0.2-0.1-0.4-0.2-0.6C376.3,1306.4,376.3,1306.6,376.4,1306.8z" class="st6" transform="matrix(1, 0, 0, 1, 1.1368683772161603e-13, 2.842170943040401e-14)" style="fill:#9bca89"/><path d="M377.8,1310.3c0-0.1-0.1-0.1-0.1-0.2C377.7,1310.2,377.7,1310.2,377.8,1310.3 C377.8,1310.3,377.8,1310.3,377.8,1310.3z" class="st6" transform="matrix(1, 0, 0, 1, 1.1368683772161603e-13, 2.842170943040401e-14)" style="fill:#9bca89"/><path d="M370.7,1282.5c-0.1-1.2-0.3-2.4-0.3-3.7C370.5,1280.1,370.6,1281.3,370.7,1282.5z" class="st6" transform="matrix(1, 0, 0, 1, 1.1368683772161603e-13, 2.842170943040401e-14)" style="fill:#9bca89"/><path d="M370.8,1283.4c0-0.3-0.1-0.6-0.1-0.9C370.8,1282.8,370.8,1283.1,370.8,1283.4z" class="st6" transform="matrix(1, 0, 0, 1, 1.1368683772161603e-13, 2.842170943040401e-14)" style="fill:#9bca89"/><path d="M544.7,1332.2c0,0,3.5,4,5.1,9.6c17.3-18.5,27.8-43.4,27.8-70.7c0-27.3-10.6-52.2-27.8-70.7 c-1.6,5.6-5.1,9.6-5.1,9.6s-3.6-4-5.1-9.6c-5.6-1.6-9.6-5.1-9.6-5.1s3.7-3.3,9-4.9c-3.1-2.5-6.3-4.8-9.6-6.9c0,0,0,0,0,0 c-5.1-3.3-10.6-6.1-16.3-8.4c4.9,12.1,7.7,25.3,7.7,39.2c0,31.3-13.9,59.4-35.9,78.5c5.3,1.7,9,4.9,9,4.9s-4,3.6-9.6,5.1 c-1.6,5.6-5.1,9.6-5.1,9.6s-3.6-4-5.1-9.6c-0.6-0.2-1.3-0.4-1.9-0.6c-16,10-34.9,15.8-55.1,15.8c-13.9,0-27.1-2.7-39.2-7.7 c1.2,3,2.6,6,4.1,8.8c0,0,0,0,0,0c4.3,8.3,9.7,15.9,16,22.7c1.6-5.6,5.1-9.6,5.1-9.6s3.6,4,5.1,9.6c5.6,1.6,9.6,5.1,9.6,5.1 s-3.7,3.3-9,4.9c0.4,0.3,0.8,0.6,1.1,0.9v0c5.2,4.1,10.8,7.7,16.7,10.7c6.2,3.2,12.9,5.8,19.8,7.7c8.7,2.4,17.9,3.7,27.4,3.7 c24.6,0,47.3-8.6,65-22.9c-5.3-1.7-9-4.9-9-4.9s4-3.6,9.6-5.1C541.1,1336.2,544.7,1332.2,544.7,1332.2z" class="st6" transform="matrix(1, 0, 0, 1, 1.1368683772161603e-13, 2.842170943040401e-14)" style="fill:#9bca89"/><path d="M371.3,1287c-0.2-1.2-0.3-2.4-0.5-3.6C371,1284.6,371.1,1285.8,371.3,1287z" class="st6" transform="matrix(1, 0, 0, 1, 1.1368683772161603e-13, 2.842170943040401e-14)" style="fill:#9bca89"/><path d="M372.1,1291.4c-0.1-0.3-0.1-0.5-0.1-0.8C372,1290.9,372,1291.1,372.1,1291.4z" class="st6" transform="matrix(1, 0, 0, 1, 1.1368683772161603e-13, 2.842170943040401e-14)" style="fill:#9bca89"/><path d="M372.8,1294.9c-0.3-1.2-0.5-2.4-0.8-3.5C372.3,1292.6,372.6,1293.8,372.8,1294.9z" class="st6" transform="matrix(1, 0, 0, 1, 1.1368683772161603e-13, 2.842170943040401e-14)" style="fill:#9bca89"/><path d="M371.3,1287.2c0-0.1,0-0.1,0-0.2C371.3,1287.1,371.3,1287.1,371.3,1287.2z" class="st6" transform="matrix(1, 0, 0, 1, 1.1368683772161603e-13, 2.842170943040401e-14)" style="fill:#9bca89"/><path d="M371.9,1290.6c-0.2-1.1-0.4-2.3-0.6-3.4C371.5,1288.4,371.7,1289.5,371.9,1290.6z" class="st6" transform="matrix(1, 0, 0, 1, 1.1368683772161603e-13, 2.842170943040401e-14)" style="fill:#9bca89"/><path d="M544.7,1189.4c1.8,0,3.5,0.3,5.1,0.7c-1.6-5.6-5.1-9.6-5.1-9.6s-3.6,4-5.1,9.6 C541.1,1189.6,542.9,1189.4,544.7,1189.4z" class="st6" transform="matrix(1, 0, 0, 1, 1.1368683772161603e-13, 2.842170943040401e-14)" style="fill:#9bca89"/><path d="M544.7,1210c0,0,3.5-4,5.1-9.6c0,0,0,0,0-0.1c-1.6,0.4-3.3,0.7-5.1,0.7s-3.5-0.3-5.1-0.7 C541.1,1206,544.7,1210,544.7,1210z" class="st6" transform="matrix(1, 0, 0, 1, 1.1368683772161603e-13, 2.842170943040401e-14)" style="fill:#9bca89"/><path d="M539.5,1190.1c-0.2,0.1-0.4,0.1-0.7,0.2c-5.3,1.7-9,4.9-9,4.9s4,3.6,9.6,5.1c1.6,0.4,3.3,0.7,5.1,0.7 s3.5-0.3,5.1-0.7c5.6-1.6,9.6-5.1,9.6-5.1s-4-3.6-9.6-5.1c-1.6-0.4-3.3-0.7-5.1-0.7S541.1,1189.6,539.5,1190.1z" class="st6" transform="matrix(1, 0, 0, 1, 8.526512829121202e-14, 2.1316282072803006e-14)" style="fill:#9bca89"/><path d="M397.9,1200.4C397.9,1200.4,397.9,1200.4,397.9,1200.4C397.9,1200.4,397.9,1200.4,397.9,1200.4 C397.9,1200.4,397.9,1200.4,397.9,1200.4z" class="st7" transform="matrix(1, 0, 0, 1, 1.1368683772161603e-13, 2.842170943040401e-14)" style="fill:#b0e19f"/><path d="M403,1180.5c0,0-0.5,0.6-1.3,1.7c-1.2,1.7-2.9,4.5-3.8,8c1.6-0.4,3.3-0.7,5.1-0.7c1.8,0,3.5,0.3,5.1,0.7 c-1.1-3.9-3.2-7.1-4.3-8.6C403.3,1180.8,403,1180.5,403,1180.5z" class="st7" transform="matrix(1, 0, 0, 1, 1.1368683772161603e-13, 2.842170943040401e-14)" style="fill:#b0e19f"/><path d="M397.9,1190.1c-3,0.9-5.6,2.3-7.3,3.4c-1.5,1-2.3,1.7-2.3,1.7s0.2,0.2,0.5,0.4c1.2,1,4.7,3.5,9.1,4.7 c0,0,0,0,0.1,0c3.4-3.6,7-7,10.8-10.1c-0.2-0.1-0.4-0.1-0.7-0.2c-1.6-0.4-3.3-0.7-5.1-0.7 C401.2,1189.4,399.5,1189.6,397.9,1190.1z" class="st7" transform="matrix(1, 0, 0, 1, 8.526512829121202e-14, 2.1316282072803006e-14)" style="fill:#b0e19f"/><path d="M539.5,1341.9c1.6-0.4,3.3-0.7,5.1-0.7s3.5,0.3,5.1,0.7c0,0,0,0,0-0.1c-1.6-5.6-5.1-9.6-5.1-9.6 S541.1,1336.2,539.5,1341.9z" class="st6" transform="matrix(1, 0, 0, 1, 1.1368683772161603e-13, 2.842170943040401e-14)" style="fill:#9bca89"/><path d="M544.7,1361.7c0,0,3.6-4,5.1-9.6c-1.6,0.4-3.3,0.7-5.1,0.7s-3.5-0.3-5.1-0.7 C541.1,1357.7,544.7,1361.7,544.7,1361.7z" class="st6" transform="matrix(1, 0, 0, 1, 1.1368683772161603e-13, 2.842170943040401e-14)" style="fill:#9bca89"/><path d="M539.5,1341.9c-5.6,1.6-9.6,5.1-9.6,5.1s3.7,3.3,9,4.9c0.2,0.1,0.4,0.1,0.7,0.2c1.6,0.4,3.3,0.7,5.1,0.7 s3.5-0.3,5.1-0.7c5.6-1.6,9.6-5.1,9.6-5.1s-4-3.6-9.6-5.1c-1.6-0.4-3.3-0.7-5.1-0.7S541.1,1341.4,539.5,1341.9z" class="st6" transform="matrix(1, 0, 0, 1, 8.526512829121202e-14, 2.1316282072803006e-14)" style="fill:#9bca89"/><path d="M397.9,1341.8C397.9,1341.8,397.9,1341.8,397.9,1341.8c1.6-0.4,3.3-0.7,5.1-0.7c1.8,0,3.5,0.3,5.1,0.7 c-1.6-5.6-5.1-9.6-5.1-9.6S399.5,1336.2,397.9,1341.8z" class="st6" transform="matrix(1, 0, 0, 1, 1.1368683772161603e-13, 2.842170943040401e-14)" style="fill:#9bca89"/><path d="M403,1361.7c0,0,1.9-2.2,3.6-5.6c0,0,0,0,0,0c0.6-1.2,1.1-2.6,1.5-4c-1.6,0.4-3.3,0.7-5.1,0.7 c-1.8,0-3.5-0.3-5.1-0.7c1.1,3.8,3.1,6.9,4.2,8.5v0C402.7,1361.3,403,1361.7,403,1361.7z" class="st6" transform="matrix(1, 0, 0, 1, 1.1368683772161603e-13, 2.842170943040401e-14)" style="fill:#9bca89"/><path d="M397.9,1341.9c-5.6,1.6-9.6,5.1-9.6,5.1s4,3.6,9.6,5.1c1.6,0.4,3.3,0.7,5.1,0.7c1.8,0,3.5-0.3,5.1-0.7 c0.2-0.1,0.4-0.1,0.7-0.2c5.3-1.7,9-4.9,9-4.9s-4-3.6-9.6-5.1c-1.6-0.4-3.3-0.7-5.1-0.7C401.2,1341.1,399.5,1341.4,397.9,1341.9z" class="st6" transform="matrix(1, 0, 0, 1, 8.526512829121202e-14, 2.1316282072803006e-14)" style="fill:#9bca89"/><path d="M479,1282.9c0,0,3.6,4,5.1,9.6c0.2,0.1,0.4,0.1,0.7,0.2c22-19,35.9-47.1,35.9-78.5c0-13.9-2.7-27.1-7.7-39.2 c-11-4.5-22.9-7.1-35.3-7.6c0,0,0,0,0,0c0,0-0.1,0-0.1,0c0,0,0,0,0,0c0,0-0.1,0-0.1,0c0,0,0,0,0,0c0,0-0.1,0-0.1,0c0,0,0,0,0,0 c0,0-0.1,0-0.1,0c0,0,0,0-0.1,0c0,0-0.1,0-0.1,0c0,0,0,0-0.1,0c0,0-0.1,0-0.1,0c0,0,0,0-0.1,0c0,0-0.1,0-0.1,0c0,0,0,0-0.1,0 c0,0-0.1,0-0.1,0c0,0,0,0-0.1,0c0,0-0.1,0-0.1,0c0,0,0,0-0.1,0c0,0-0.1,0-0.1,0c0,0,0,0-0.1,0c0,0-0.1,0-0.1,0c0,0,0,0-0.1,0 c0,0-0.1,0-0.1,0c0,0,0,0-0.1,0c0,0-0.1,0-0.1,0c0,0,0,0-0.1,0c0,0-0.1,0-0.1,0c0,0,0,0-0.1,0c0,0-0.1,0-0.1,0c0,0,0,0-0.1,0 c0,0-0.1,0-0.1,0c0,0,0,0-0.1,0c0,0-0.1,0-0.1,0c0,0,0,0-0.1,0c0,0-0.1,0-0.1,0c0,0,0,0-0.1,0c0,0-0.1,0-0.1,0c0,0,0,0-0.1,0 c0,0-0.1,0-0.1,0c0,0,0,0,0,0c0,0-0.1,0-0.1,0c0,0,0,0,0,0c-0.1,0-0.1,0-0.1,0c0,0,0,0,0,0c-0.1,0-0.1,0-0.2,0 c-24.6,0-47.3,8.6-65,22.9c-3.8,3.1-7.5,6.5-10.8,10.1c0,0,0,0,0,0.1c-17.3,18.5-27.8,43.4-27.8,70.7c0,0.1,0,0.1,0,0.2 c0,0,0,0,0,0c0,0,0,0.1,0,0.1c0,0,0,0,0,0.1c0,0,0,0.1,0,0.1c0,0,0,0.1,0,0.1c0,0,0,0.1,0,0.1c0,0,0,0,0,0.1c0,0,0,0.1,0,0.1 c0,0,0,0,0,0.1c0,0,0,0.1,0,0.1c0,0,0,0.1,0,0.1c0,0,0,0.1,0,0.1c0,0,0,0.1,0,0.1c0,0,0,0.1,0,0.1c0,0,0,0.1,0,0.1 c0,0,0,0.1,0,0.1c0,0,0,0.1,0,0.1c0,0,0,0.1,0,0.1c0,0,0,0.1,0,0.1c0,0,0,0.1,0,0.1s0,0.1,0,0.1c0,0,0,0.1,0,0.1c0,0,0,0.1,0,0.1 c0,0,0,0.1,0,0.1c0,0,0,0.1,0,0.1c0,0,0,0.1,0,0.1c0,0,0,0.1,0,0.1c0,0,0,0.1,0,0.1c0,0,0,0.1,0,0.1c0,0,0,0.1,0,0.1 c0,0,0,0.1,0,0.1c0,0,0,0,0,0.1c0,0,0,0.1,0,0.1c0,0,0,0,0,0.1c0,0,0,0.1,0,0.1c0,0,0,0.1,0,0.1c0,0,0,0.1,0,0.1c0,0,0,0,0,0.1 c0,0,0,0.1,0,0.1c0,0,0,0,0,0.1c0,0,0,0.1,0,0.1c0,0,0,0,0,0.1c0,0,0,0.1,0,0.1c0,0,0,0,0,0.1c0,0,0,0.1,0,0.1c0,0,0,0,0,0.1 c0,0,0,0.1,0,0.1c0,0,0,0,0,0c0,0,0,0.1,0,0.1c0,0,0,0,0,0c0,0,0,0.1,0,0.1c0,0,0,0,0,0c0,0,0,0.1,0,0.1c0,0,0,0,0,0 c0,0.5,0,1,0.1,1.6c0,0,0,0,0,0c0,0,0,0.1,0,0.1c0,0,0,0,0,0c0,0,0,0.1,0,0.1c0,0,0,0,0,0c0,0.1,0,0.1,0,0.2v0c0,0.1,0,0.2,0,0.3 c0,0,0,0,0,0c0,0,0,0.1,0,0.1c0,0,0,0,0,0c0,0.1,0,0.2,0,0.3c0,0,0,0,0,0c0,0.1,0,0.1,0,0.2c0,0,0,0,0,0c0,0.1,0,0.1,0,0.2 c0,0,0,0,0,0c0.8,11.1,3.4,21.6,7.4,31.5c12.1,4.9,25.3,7.7,39.2,7.7c20.2,0,39.1-5.8,55.1-15.8c-4.6-1.7-7.8-4.5-7.8-4.5 s4-3.6,9.6-5.1C475.5,1286.9,479,1282.9,479,1282.9z M474.5,1205.4c0,0,5.3,0.3,10.4,3.2c5.1-2.9,10.4-3.2,10.4-3.2 s-0.3,5.3-3.2,10.4c2.9,5.1,3.2,10.4,3.2,10.4s-5.3-0.3-10.4-3.2c-5.1,2.9-10.4,3.2-10.4,3.2s0.3-5.3,3.2-10.4 C474.8,1210.7,474.5,1205.4,474.5,1205.4z M428.2,1281.5c0,0-5.3-0.3-10.4-3.2c-5.1,2.9-10.4,3.2-10.4,3.2s0.3-5.3,3.2-10.4 c-2.9-5.1-3.2-10.4-3.2-10.4s5.3,0.3,10.4,3.2c5.1-2.9,10.4-3.2,10.4-3.2s-0.3,5.3-3.2,10.4 C427.9,1276.2,428.2,1281.5,428.2,1281.5z" class="st7" transform="matrix(1, 0, 0, 1, 8.526512829121202e-14, 2.1316282072803006e-14)" style="fill:#b0e19f"/><path d="M479,1291.7c1.8,0,3.5,0.3,5.1,0.7c-1.6-5.6-5.1-9.6-5.1-9.6s-3.6,4-5.1,9.6 C475.5,1292,477.2,1291.7,479,1291.7z" class="st7" transform="matrix(1, 0, 0, 1, 1.1368683772161603e-13, 2.842170943040401e-14)" style="fill:#b0e19f"/><path d="M479,1312.4c0,0,3.6-4,5.1-9.6c-1.6,0.4-3.3,0.7-5.1,0.7s-3.5-0.3-5.1-0.7 C475.5,1308.4,479,1312.4,479,1312.4z" class="st7" transform="matrix(1, 0, 0, 1, 1.1368683772161603e-13, 2.842170943040401e-14)" style="fill:#b0e19f"/><path d="M479,1291.7c-1.8,0-3.5,0.3-5.1,0.7c-5.6,1.6-9.6,5.1-9.6,5.1s3.1,2.8,7.8,4.5c0.6,0.2,1.2,0.4,1.9,0.6 c1.6,0.4,3.3,0.7,5.1,0.7s3.5-0.3,5.1-0.7c5.6-1.6,9.6-5.1,9.6-5.1s-3.7-3.3-9-4.9c-0.2-0.1-0.4-0.1-0.7-0.2 C482.6,1292,480.9,1291.7,479,1291.7z" class="st7" transform="matrix(1, 0, 0, 1, 8.526512829121202e-14, 2.1316282072803006e-14)" style="fill:#b0e19f"/><path d="M413.6,1267c1.3-1.3,2.7-2.3,4.1-3.1c-5.1-2.9-10.4-3.2-10.4-3.2s0.3,5.3,3.2,10.4 C411.3,1269.7,412.3,1268.2,413.6,1267z" class="st8" transform="matrix(1, 0, 0, 1, 1.1368683772161603e-13, 2.842170943040401e-14)" style="fill:#bbedaa"/><path d="M417.8,1278.4c5.1,2.9,10.4,3.2,10.4,3.2s-0.3-5.3-3.2-10.4c-0.8,1.4-1.8,2.9-3.1,4.1 C420.6,1276.5,419.2,1277.5,417.8,1278.4z" class="st8" transform="matrix(1, 0, 0, 1, 1.1368683772161603e-13, 2.842170943040401e-14)" style="fill:#bbedaa"/><path d="M410.5,1271.1c-2.9,5.1-3.2,10.4-3.2,10.4s5.3-0.3,10.4-3.2c1.4-0.8,2.9-1.8,4.1-3.1 c1.3-1.3,2.3-2.7,3.1-4.1c2.9-5.1,3.2-10.4,3.2-10.4s-5.3,0.3-10.4,3.2c-1.4,0.8-2.9,1.8-4.1,3.1 C412.3,1268.2,411.3,1269.7,410.5,1271.1z" class="st8" transform="matrix(1, 0, 0, 1, 8.526512829121202e-14, 2.1316282072803006e-14)" style="fill:#bbedaa"/><path d="M480.8,1211.7c1.3-1.3,2.7-2.3,4.1-3.1c-5.1-2.9-10.4-3.2-10.4-3.2s0.3,5.3,3.2,10.4 C478.5,1214.4,479.5,1212.9,480.8,1211.7z" class="st8" transform="matrix(1, 0, 0, 1, 1.1368683772161603e-13, 2.842170943040401e-14)" style="fill:#bbedaa"/><path d="M484.9,1223.1c5.1,2.9,10.4,3.2,10.4,3.2s-0.3-5.3-3.2-10.4c-0.8,1.4-1.8,2.9-3.1,4.1 C487.8,1221.2,486.4,1222.2,484.9,1223.1z" class="st8" transform="matrix(1, 0, 0, 1, 1.1368683772161603e-13, 2.842170943040401e-14)" style="fill:#bbedaa"/><path d="M477.7,1215.8c-2.9,5.1-3.2,10.4-3.2,10.4s5.3-0.3,10.4-3.2c1.4-0.8,2.9-1.8,4.1-3.1 c1.3-1.3,2.3-2.7,3.1-4.1c2.9-5.1,3.2-10.4,3.2-10.4s-5.3,0.3-10.4,3.2c-1.4,0.8-2.9,1.8-4.1,3.1 C479.5,1212.9,478.5,1214.4,477.7,1215.8z" class="st8" transform="matrix(1, 0, 0, 1, 8.526512829121202e-14, 2.1316282072803006e-14)" style="fill:#bbedaa"/><path d="M832.2,396.8c-42.1,8.4-78.3,25.6-102.4,46.4c-26.2-28.9-86.9-41.4-153.1-28.3 c-39.6,7.9-73.9,23.5-97.8,42.7c-29.5-8.5-67.1-9.9-106.7-2c-9.4,1.9-18.5,4.2-27.2,6.9c-28.6-7.1-63.9-7.8-101-0.5 c-34.3,6.8-64.6,19.5-87.7,35.2h827.8c11.7-15.4,17-31.9,13.9-47.9C988.9,403.9,914.7,380.4,832.2,396.8z" class="st11" transform="matrix(1, 0, 0, 1, 5.684341886080802e-14, 1.4210854715202004e-14)" style="fill:#f5feff"/><path d="M2716.4,539.6c-6.2-31.3-57.3-47.5-114.1-36.2c-29,5.8-53.9,17.6-70.4,32c-18-19.9-59.8-28.5-105.3-19.5 c-27.2,5.4-50.8,16.2-67.3,29.4c-20.3-5.9-46.2-6.8-73.4-1.4c-6.5,1.3-12.7,2.9-18.7,4.7c-19.7-4.9-44-5.4-69.5-0.3 c-23.6,4.7-44.4,13.4-60.3,24.2h569.7C2715,561.9,2718.6,550.5,2716.4,539.6z" class="st11" transform="matrix(1, 0, 0, 1, 5.684341886080802e-14, 1.4210854715202004e-14)" style="fill:#f5feff"/><g><path d="M 1861.800049 767.700012 H 1929.300049 V 1721.600037 H 1861.800049 V 767.700012 Z" class="st12" transform="matrix(1, 0, 0, 1, 5.684341886080802e-14, 1.4210854715202004e-14)" style="fill:#c07d50"/><path d="M1929.3,767.7h-67.5v454.9c11.1,1,22.4,1.5,33.8,1.5c11.4,0,22.6-0.5,33.8-1.5V767.7z" class="st13" transform="matrix(1, 0, 0, 1, 5.684341886080802e-14, 1.4210854715202004e-14)" style="fill:#84532a"/><g><path d="M 2262.699982 820.200012 A 367.100006 367.100006 0 0 1 1895.599976 1187.300018 A 367.100006 367.100006 0 0 1 1528.499969 820.200012 A 367.100006 367.100006 0 0 1 1895.599976 453.100006 A 367.100006 367.100006 0 0 1 2262.699982 820.200012 Z" class="st14" transform="matrix(1, 0, 0, 1, 5.684341886080802e-14, 1.4210854715202004e-14)" style="fill:#82ae3b"/><path d="M2146.2,499.5c0,0-20.7,23.4-20.7,52.2c0,28.8,20.7,52.2,20.7,52.2s20.7-23.4,20.7-52.2 C2166.9,522.8,2146.2,499.5,2146.2,499.5z" class="st14" transform="matrix(1, 0, 0, 1, 5.684341886080802e-14, 1.4210854715202004e-14)" style="fill:#82ae3b"/><path d="M2146.2,530.9c-28.8,0-52.2,20.7-52.2,20.7s23.4,20.7,52.2,20.7s52.2-20.7,52.2-20.7 S2175,530.9,2146.2,530.9z" class="st14" transform="matrix(1, 0, 0, 1, 5.684341886080802e-14, 1.4210854715202004e-14)" style="fill:#82ae3b"/><path d="M1645,499.5c0,0-20.7,23.4-20.7,52.2c0,28.8,20.7,52.2,20.7,52.2s20.7-23.4,20.7-52.2 C1665.7,522.8,1645,499.5,1645,499.5z" class="st15" transform="matrix(1, 0, 0, 1, 5.684341886080802e-14, 1.4210854715202004e-14)" style="fill:#a5d55f"/><path d="M1645,530.9c-28.8,0-52.2,20.7-52.2,20.7s23.4,20.7,52.2,20.7s52.2-20.7,52.2-20.7 S1673.8,530.9,1645,530.9z" class="st15" transform="matrix(1, 0, 0, 1, 5.684341886080802e-14, 1.4210854715202004e-14)" style="fill:#a5d55f"/><path d="M2146.2,1036.5c0,0-20.7,23.4-20.7,52.2s20.7,52.2,20.7,52.2s20.7-23.4,20.7-52.2 S2146.2,1036.5,2146.2,1036.5z" class="st14" transform="matrix(1, 0, 0, 1, 5.684341886080802e-14, 1.4210854715202004e-14)" style="fill:#82ae3b"/><path d="M2146.2,1068c-28.8,0-52.2,20.7-52.2,20.7s23.4,20.7,52.2,20.7s52.2-20.7,52.2-20.7S2175,1068,2146.2,1068 z" class="st14" transform="matrix(1, 0, 0, 1, 5.684341886080802e-14, 1.4210854715202004e-14)" style="fill:#82ae3b"/><path d="M1645,1036.5c0,0-20.7,23.4-20.7,52.2s20.7,52.2,20.7,52.2s20.7-23.4,20.7-52.2S1645,1036.5,1645,1036.5z" class="st14" transform="matrix(1, 0, 0, 1, 5.684341886080802e-14, 1.4210854715202004e-14)" style="fill:#82ae3b"/><path d="M1645,1068c-28.8,0-52.2,20.7-52.2,20.7s23.4,20.7,52.2,20.7s52.2-20.7,52.2-20.7S1673.8,1068,1645,1068z" class="st14" transform="matrix(1, 0, 0, 1, 5.684341886080802e-14, 1.4210854715202004e-14)" style="fill:#82ae3b"/><path d="M2061.4,618.9c0-49.1-9.6-95.9-27.1-138.7c-42.8-17.5-89.6-27.1-138.7-27.1 c-202.7,0-367.1,164.3-367.1,367.1c0,49.1,9.6,95.9,27.1,138.7c42.8,17.5,89.6,27.1,138.7,27.1 C1897,986,2061.4,821.7,2061.4,618.9z" class="st15" transform="matrix(1, 0, 0, 1, 5.684341886080802e-14, 1.4210854715202004e-14)" style="fill:#a5d55f"/><path d="M1934.8,914c0-28.8-20.7-52.2-20.7-52.2s-20.7,23.4-20.7,52.2s20.7,52.2,20.7,52.2 S1934.8,942.8,1934.8,914z" class="st15" transform="matrix(1, 0, 0, 1, 5.684341886080802e-14, 1.4210854715202004e-14)" style="fill:#a5d55f"/><path d="M1966.3,914c0,0-23.4-20.7-52.2-20.7c-28.8,0-52.2,20.7-52.2,20.7s23.4,20.7,52.2,20.7 C1942.9,934.7,1966.3,914,1966.3,914z" class="st15" transform="matrix(1, 0, 0, 1, 5.684341886080802e-14, 1.4210854715202004e-14)" style="fill:#a5d55f"/><path d="M1711.9,805.5c-20.4-20.4-51.6-22.3-51.6-22.3s1.9,31.2,22.3,51.6c20.4,20.4,51.6,22.3,51.6,22.3 S1732.2,825.9,1711.9,805.5z" class="st16" transform="matrix(1, 0, 0, 1, 5.684341886080802e-14, 1.4210854715202004e-14)" style="fill:#b8e872"/><path d="M1682.5,805.5c-20.4,20.4-22.3,51.6-22.3,51.6s31.2-1.9,51.6-22.3c20.4-20.4,22.3-51.6,22.3-51.6 S1702.9,785.1,1682.5,805.5z" class="st16" transform="matrix(1, 0, 0, 1, 5.684341886080802e-14, 1.4210854715202004e-14)" style="fill:#b8e872"/><path d="M1971.7,661.5c0,0-1.9-31.2-22.3-51.6s-51.6-22.3-51.6-22.3s1.9,31.2,22.3,51.6S1971.7,661.5,1971.7,661.5 z" class="st16" transform="matrix(1, 0, 0, 1, 5.684341886080802e-14, 1.4210854715202004e-14)" style="fill:#b8e872"/><path d="M1971.7,587.6c0,0-31.2,1.9-51.6,22.3s-22.3,51.6-22.3,51.6s31.2-1.9,51.6-22.3S1971.7,587.6,1971.7,587.6 z" class="st16" transform="matrix(1, 0, 0, 1, 5.684341886080802e-14, 1.4210854715202004e-14)" style="fill:#b8e872"/></g><path d="M1962.1,1019.6c-0.6,1.5-1.2,3-1.7,4.5c-1.7,4.5-3.2,9.1-4.5,13.8s-2.5,9.4-3.5,14.2 c-1,4.8-1.8,9.7-2.4,14.6c-1,8.2-1.6,16.6-1.6,25.1c0,1.7,0,3.3,0.1,5c0,0.6,0,1.1,0.1,1.7c0,1.1,0.1,2.2,0.1,3.3 c0,0.7,0.1,1.3,0.1,2c0.1,1,0.1,2,0.2,3c0.1,0.7,0.1,1.4,0.2,2.1c0.1,0.9,0.2,1.9,0.2,2.8c0.1,0.7,0.2,1.5,0.2,2.2 c0.1,0.9,0.2,1.8,0.3,2.7c0.1,0.7,0.2,1.5,0.3,2.2c0.1,0.9,0.2,1.7,0.4,2.6c0.1,0.7,0.2,1.5,0.4,2.2c0.1,0.9,0.3,1.7,0.4,2.6 c0.1,0.7,0.3,1.5,0.4,2.2c0.2,0.8,0.3,1.7,0.5,2.5c0.2,0.8,0.3,1.5,0.5,2.2c0.2,0.8,0.4,1.7,0.5,2.5c0.2,0.7,0.3,1.5,0.5,2.2 c0.2,0.8,0.4,1.6,0.6,2.4c0.2,0.7,0.4,1.5,0.6,2.2c0.2,0.8,0.4,1.6,0.7,2.4c0.2,0.7,0.4,1.5,0.6,2.2c0.2,0.8,0.5,1.6,0.7,2.4 c0.2,0.7,0.5,1.5,0.7,2.2c0.2,0.8,0.5,1.6,0.8,2.3c0.2,0.7,0.5,1.5,0.7,2.2c0.3,0.8,0.5,1.5,0.8,2.3c0.3,0.7,0.5,1.4,0.8,2.2 c0.3,0.8,0.6,1.5,0.9,2.3c0.3,0.7,0.6,1.4,0.8,2.1c0.1,0.4,0.3,0.8,0.4,1.1c0,0,0,0,0,0c1.9,4.6,3.9,9.1,6.1,13.5 c58.4-11.9,111.8-37.6,156.6-73.7c0.8,0.2,1.5,0.5,2.3,0.7c5.6,19.9,18.1,34.1,18.1,34.1s12.6-14.2,18.1-34.1 c19.9-5.6,34.1-18.1,34.1-18.1s-14.2-12.6-34.1-18.1c0-0.1-0.1-0.2-0.1-0.3c38.4-41.3,67.5-91.4,83.7-147 c-8.8-5.4-18.1-10.1-27.8-14.1c0,0,0,0,0,0c-0.4-0.2-0.8-0.3-1.1-0.4c-0.7-0.3-1.4-0.6-2.1-0.8c-0.8-0.3-1.5-0.6-2.3-0.9 c-0.7-0.3-1.4-0.5-2.1-0.8c-0.8-0.3-1.5-0.6-2.3-0.8c-0.7-0.3-1.4-0.5-2.2-0.7c-0.8-0.3-1.6-0.5-2.4-0.8 c-0.7-0.2-1.5-0.5-2.2-0.7c-0.8-0.2-1.6-0.5-2.4-0.7c-0.7-0.2-1.5-0.4-2.2-0.6c-0.8-0.2-1.6-0.4-2.4-0.7 c-0.7-0.2-1.5-0.4-2.2-0.6c-0.8-0.2-1.6-0.4-2.5-0.6c-0.7-0.2-1.5-0.4-2.2-0.5c-0.8-0.2-1.7-0.4-2.5-0.5 c-0.7-0.2-1.5-0.3-2.2-0.5c-0.8-0.2-1.7-0.3-2.5-0.5c-0.7-0.1-1.5-0.3-2.2-0.4c-0.9-0.2-1.7-0.3-2.6-0.4 c-0.7-0.1-1.5-0.2-2.2-0.4c-0.9-0.1-1.7-0.2-2.6-0.4c-0.7-0.1-1.5-0.2-2.2-0.3c-0.9-0.1-1.8-0.2-2.7-0.3 c-0.7-0.1-1.5-0.2-2.2-0.2c-0.9-0.1-1.9-0.2-2.8-0.2c-0.7-0.1-1.4-0.1-2.1-0.2c-1-0.1-2-0.1-3-0.2c-0.7,0-1.3-0.1-2-0.1 c-1.1-0.1-2.2-0.1-3.3-0.1c-0.6,0-1.1,0-1.7-0.1c-1.7,0-3.3-0.1-5-0.1c-40.8,0-78.8,12.4-110.3,33.7c-4.6,3.1-9.1,6.4-13.4,9.9 c-0.4-0.1-0.8-0.3-1.3-0.4c-3-10.7-9.7-18.3-9.7-18.3s-6.8,7.6-9.7,18.3c-10.7,3-18.3,9.7-18.3,9.7s7.6,6.8,18.3,9.7 c0,0.1,0,0.1,0,0.2c-4.8,5.2-9.4,10.7-13.7,16.4C1977.2,987.8,1968.6,1003.1,1962.1,1019.6z" class="st17" transform="matrix(1, 0, 0, 1, 5.684341886080802e-14, 1.4210854715202004e-14)" style="fill:#7fa537"/><g><path d="M 1823.599976 1248 H 2247.699982 V 1315.5 H 1823.599976 V 1248 Z" class="st12" transform="matrix(1, 0, 0, 1, 5.684341886080802e-14, 1.4210854715202004e-14) matrix(0.7071 -0.7071 0.7071 0.7071 -310.1025 1814.8071)" style="fill:#c07d50"/><path d="M2102,1215.4c13.2-13.2,13.2-34.6,0-47.7l-172.6,172.6c13.2,13.2,34.6,13.2,47.7,0L2102,1215.4z" class="st18" transform="matrix(1, 0, 0, 1, 5.684341886080802e-14, 1.4210854715202004e-14)" style="fill:#ce8e63"/></g><path d="M1895.6,1379.2c0-18.6-15.1-33.8-33.8-33.8v280.6c18.6,0,33.8-15.1,33.8-33.8V1379.2z" class="st18" transform="matrix(1, 0, 0, 1, 5.684341886080802e-14, 1.4210854715202004e-14)" style="fill:#ce8e63"/><g><path d="M 2326.799957 1092.400024 A 180.600006 180.600006 0 0 1 2146.199951 1273.000031 A 180.600006 180.600006 0 0 1 1965.599945 1092.400024 A 180.600006 180.600006 0 0 1 2146.199951 911.800018 A 180.600006 180.600006 0 0 1 2326.799957 1092.400024 Z" class="st14" transform="matrix(1, 0, 0, 1, 5.684341886080802e-14, 1.4210854715202004e-14)" style="fill:#82ae3b"/><path d="M2227.8,993.4c0-24.1-4.7-47.2-13.3-68.2c-21.1-8.6-44.1-13.3-68.2-13.3c-99.7,0-180.6,80.9-180.6,180.6 c0,24.1,4.7,47.2,13.3,68.2c21.1,8.6,44.1,13.3,68.2,13.3C2146.9,1174,2227.8,1093.1,2227.8,993.4z" class="st15" transform="matrix(1, 0, 0, 1, 5.684341886080802e-14, 1.4210854715202004e-14)" style="fill:#a5d55f"/><path d="M2269.5,934.6c0,0-10.2,11.5-10.2,25.7c0,14.2,10.2,25.7,10.2,25.7s10.2-11.5,10.2-25.7 C2279.7,946.1,2269.5,934.6,2269.5,934.6z" class="st14" transform="matrix(1, 0, 0, 1, 5.684341886080802e-14, 1.4210854715202004e-14)" style="fill:#82ae3b"/><path d="M2269.5,950.1c-14.2,0-25.7,10.2-25.7,10.2s11.5,10.2,25.7,10.2s25.7-10.2,25.7-10.2 S2283.7,950.1,2269.5,950.1z" class="st14" transform="matrix(1, 0, 0, 1, 5.684341886080802e-14, 1.4210854715202004e-14)" style="fill:#82ae3b"/><path d="M2022.9,934.6c0,0-10.2,11.5-10.2,25.7c0,14.2,10.2,25.7,10.2,25.7s10.2-11.5,10.2-25.7 C2033.1,946.1,2022.9,934.6,2022.9,934.6z" class="st15" transform="matrix(1, 0, 0, 1, 5.684341886080802e-14, 1.4210854715202004e-14)" style="fill:#a5d55f"/><path d="M2022.9,950.1c-14.2,0-25.7,10.2-25.7,10.2s11.5,10.2,25.7,10.2c14.2,0,25.7-10.2,25.7-10.2 S2037.1,950.1,2022.9,950.1z" class="st15" transform="matrix(1, 0, 0, 1, 5.684341886080802e-14, 1.4210854715202004e-14)" style="fill:#a5d55f"/><path d="M2269.5,1198.8c0,0-10.2,11.5-10.2,25.7s10.2,25.7,10.2,25.7s10.2-11.5,10.2-25.7 S2269.5,1198.8,2269.5,1198.8z" class="st14" transform="matrix(1, 0, 0, 1, 5.684341886080802e-14, 1.4210854715202004e-14)" style="fill:#82ae3b"/><path d="M2269.5,1214.3c-14.2,0-25.7,10.2-25.7,10.2s11.5,10.2,25.7,10.2s25.7-10.2,25.7-10.2 S2283.7,1214.3,2269.5,1214.3z" class="st14" transform="matrix(1, 0, 0, 1, 5.684341886080802e-14, 1.4210854715202004e-14)" style="fill:#82ae3b"/><path d="M2022.9,1198.8c0,0-10.2,11.5-10.2,25.7s10.2,25.7,10.2,25.7s10.2-11.5,10.2-25.7 S2022.9,1198.8,2022.9,1198.8z" class="st14" transform="matrix(1, 0, 0, 1, 5.684341886080802e-14, 1.4210854715202004e-14)" style="fill:#82ae3b"/><path d="M2022.9,1214.3c-14.2,0-25.7,10.2-25.7,10.2s11.5,10.2,25.7,10.2c14.2,0,25.7-10.2,25.7-10.2 S2037.1,1214.3,2022.9,1214.3z" class="st14" transform="matrix(1, 0, 0, 1, 5.684341886080802e-14, 1.4210854715202004e-14)" style="fill:#82ae3b"/><path d="M2155.3,1112.9c0,0-10.2,11.5-10.2,25.7s10.2,25.7,10.2,25.7s10.2-11.5,10.2-25.7 S2155.3,1112.9,2155.3,1112.9z" class="st15" transform="matrix(1, 0, 0, 1, 5.684341886080802e-14, 1.4210854715202004e-14)" style="fill:#a5d55f"/><path d="M2155.3,1128.4c-14.2,0-25.7,10.2-25.7,10.2s11.5,10.2,25.7,10.2s25.7-10.2,25.7-10.2 S2169.5,1128.4,2155.3,1128.4z" class="st15" transform="matrix(1, 0, 0, 1, 5.684341886080802e-14, 1.4210854715202004e-14)" style="fill:#a5d55f"/><path d="M2055.8,1085.2c-10-10-25.4-10.9-25.4-10.9s0.9,15.3,10.9,25.4c10,10,25.4,10.9,25.4,10.9 S2065.8,1095.2,2055.8,1085.2z" class="st16" transform="matrix(1, 0, 0, 1, 5.684341886080802e-14, 1.4210854715202004e-14)" style="fill:#b8e872"/><path d="M2041.4,1085.2c-10,10-10.9,25.4-10.9,25.4s15.3-0.9,25.4-10.9c10-10,10.9-25.4,10.9-25.4 S2051.4,1075.2,2041.4,1085.2z" class="st16" transform="matrix(1, 0, 0, 1, 5.684341886080802e-14, 1.4210854715202004e-14)" style="fill:#b8e872"/><path d="M2172.7,988.9c-10-10-25.4-10.9-25.4-10.9s0.9,15.3,10.9,25.4c10,10,25.4,10.9,25.4,10.9 S2182.7,999,2172.7,988.9z" class="st16" transform="matrix(1, 0, 0, 1, 5.684341886080802e-14, 1.4210854715202004e-14)" style="fill:#b8e872"/><path d="M2158.3,988.9c-10,10-10.9,25.4-10.9,25.4s15.3-0.9,25.4-10.9c10-10,10.9-25.4,10.9-25.4 S2168.3,978.9,2158.3,988.9z" class="st16" transform="matrix(1, 0, 0, 1, 5.684341886080802e-14, 1.4210854715202004e-14)" style="fill:#b8e872"/></g></g><path d="M 918.299988 935.700012 H 974.799988 V 1733.600037 H 918.299988 V 935.700012 Z" class="st12" transform="matrix(1, 0, 0, 1, 8.526512829121202e-14, 2.1316282072803006e-14)" style="fill:#c07d50"/><path d="M946.5,1317.5c9.5,0,18.9-0.4,28.2-1.3V935.7h-56.5v380.5C927.6,1317.1,937,1317.5,946.5,1317.5z" class="st13" transform="matrix(1, 0, 0, 1, 8.526512829121202e-14, 2.1316282072803006e-14)" style="fill:#84532a"/><path d="M 1253.600006 979.599976 A 307.100006 307.100006 0 0 1 946.5 1286.699982 A 307.100006 307.100006 0 0 1 639.399994 979.599976 A 307.100006 307.100006 0 0 1 946.5 672.499969 A 307.100006 307.100006 0 0 1 1253.600006 979.599976 Z" class="st14" transform="matrix(1, 0, 0, 1, 1.1368683772161603e-13, 2.842170943040401e-14)" style="fill:#82ae3b"/><path d="M1156.1,798.6c0,0,17.4-19.6,17.4-43.7s-17.4-43.7-17.4-43.7s-17.4,19.6-17.4,43.7 S1156.1,798.6,1156.1,798.6z" class="st14" transform="matrix(1, 0, 0, 1, 1.1368683772161603e-13, 2.842170943040401e-14)" style="fill:#82ae3b"/><path d="M1156.1,772.3c24.1,0,43.7-17.4,43.7-17.4s-19.6-17.4-43.7-17.4s-43.7,17.4-43.7,17.4 S1132,772.3,1156.1,772.3z" class="st14" transform="matrix(1, 0, 0, 1, 1.1368683772161603e-13, 2.842170943040401e-14)" style="fill:#82ae3b"/><path d="M736.9,798.6c0,0,17.4-19.6,17.4-43.7s-17.4-43.7-17.4-43.7s-17.4,19.6-17.4,43.7S736.9,798.6,736.9,798.6 z" class="st15" transform="matrix(1, 0, 0, 1, 1.1368683772161603e-13, 2.842170943040401e-14)" style="fill:#a5d55f"/><path d="M736.9,772.3c24.1,0,43.7-17.4,43.7-17.4s-19.6-17.4-43.7-17.4c-24.1,0-43.7,17.4-43.7,17.4 S712.8,772.3,736.9,772.3z" class="st15" transform="matrix(1, 0, 0, 1, 1.1368683772161603e-13, 2.842170943040401e-14)" style="fill:#a5d55f"/><path d="M1156.1,1247.9c0,0,17.4-19.6,17.4-43.7c0-24.1-17.4-43.7-17.4-43.7s-17.4,19.6-17.4,43.7 C1138.8,1228.3,1156.1,1247.9,1156.1,1247.9z" class="st14" transform="matrix(1, 0, 0, 1, 1.1368683772161603e-13, 2.842170943040401e-14)" style="fill:#82ae3b"/><path d="M1156.1,1221.5c24.1,0,43.7-17.4,43.7-17.4s-19.6-17.4-43.7-17.4s-43.7,17.4-43.7,17.4 S1132,1221.5,1156.1,1221.5z" class="st14" transform="matrix(1, 0, 0, 1, 1.1368683772161603e-13, 2.842170943040401e-14)" style="fill:#82ae3b"/><path d="M736.9,1247.9c0,0,17.4-19.6,17.4-43.7c0-24.1-17.4-43.7-17.4-43.7s-17.4,19.6-17.4,43.7 C719.5,1228.3,736.9,1247.9,736.9,1247.9z" class="st14" transform="matrix(1, 0, 0, 1, 1.1368683772161603e-13, 2.842170943040401e-14)" style="fill:#82ae3b"/><path d="M736.9,1221.5c24.1,0,43.7-17.4,43.7-17.4s-19.6-17.4-43.7-17.4c-24.1,0-43.7,17.4-43.7,17.4 S712.8,1221.5,736.9,1221.5z" class="st14" transform="matrix(1, 0, 0, 1, 1.1368683772161603e-13, 2.842170943040401e-14)" style="fill:#82ae3b"/><path d="M639.5,979.6c0,41.1,8.1,80.2,22.7,116c35.8,14.6,75,22.7,116,22.7c169.6,0,307.1-137.5,307.1-307.1 c0-41.1-8.1-80.2-22.7-116c-35.8-14.6-75-22.7-116-22.7C776.9,672.5,639.5,810,639.5,979.6z" class="st15" transform="matrix(1, 0, 0, 1, 1.1368683772161603e-13, 2.842170943040401e-14)" style="fill:#a5d55f"/><path d="M962,1101.7c0,0,17.4-19.6,17.4-43.7s-17.4-43.7-17.4-43.7s-17.4,19.6-17.4,43.7S962,1101.7,962,1101.7z" class="st15" transform="matrix(1, 0, 0, 1, 1.1368683772161603e-13, 2.842170943040401e-14)" style="fill:#a5d55f"/><path d="M918.3,1058c0,0,19.6,17.4,43.7,17.4s43.7-17.4,43.7-17.4s-19.6-17.4-43.7-17.4S918.3,1058,918.3,1058z" class="st15" transform="matrix(1, 0, 0, 1, 1.1368683772161603e-13, 2.842170943040401e-14)" style="fill:#a5d55f"/><path d="M799.2,907.7c17.1,17.1,43.2,18.6,43.2,18.6s-1.6-26.1-18.6-43.2c-17.1-17.1-43.2-18.6-43.2-18.6 S782.1,890.6,799.2,907.7z" class="st16" transform="matrix(1, 0, 0, 1, 1.1368683772161603e-13, 2.842170943040401e-14)" style="fill:#b8e872"/><path d="M823.7,907.7c17.1-17.1,18.6-43.2,18.6-43.2s-26.1,1.6-43.2,18.6c-17.1,17.1-18.6,43.2-18.6,43.2 S806.7,924.7,823.7,907.7z" class="st16" transform="matrix(1, 0, 0, 1, 1.1368683772161603e-13, 2.842170943040401e-14)" style="fill:#b8e872"/><path d="M1138.1,999.3c17.1,17.1,43.2,18.6,43.2,18.6s-1.6-26.1-18.6-43.2c-17.1-17.1-43.2-18.6-43.2-18.6 S1121,982.2,1138.1,999.3z" class="st15" transform="matrix(1, 0, 0, 1, 1.1368683772161603e-13, 2.842170943040401e-14)" style="fill:#a5d55f"/><path d="M1162.6,999.3c17.1-17.1,18.6-43.2,18.6-43.2s-26.1,1.6-43.2,18.6c-17.1,17.1-18.6,43.2-18.6,43.2 S1145.6,1016.3,1162.6,999.3z" class="st15" transform="matrix(1, 0, 0, 1, 1.1368683772161603e-13, 2.842170943040401e-14)" style="fill:#a5d55f"/><path d="M918.3,1653.7c15.6,0,28.2-12.6,28.2-28.2v-178.2c0-15.6-12.6-28.2-28.2-28.2V1653.7z" class="st18" transform="matrix(1, 0, 0, 1, 8.526512829121202e-14, 2.1316282072803006e-14)" style="fill:#ce8e63"/><g><path d="M 1636.699951 1465.300049 H 1652.399951 V 1598.000046 H 1636.699951 V 1465.300049 Z" class="st19" transform="matrix(1, 0, 0, 1, 5.684341886080802e-14, 1.4210854715202004e-14) matrix(0.163 -0.9866 0.9866 0.163 -134.7656 2904.4741)" style="fill:#4a6d71"/><path d="M1688.8,1633l13.8-83.8l-118.7-19.6l-13.8,83.8c-5.4,32.8,16.8,63.8,49.6,69.2 C1652.4,1688,1683.4,1665.8,1688.8,1633z" class="st20" transform="matrix(1, 0, 0, 1, 5.684341886080802e-14, 1.4210854715202004e-14)" style="fill:#61969a"/><path d="M 1702.5999755859375 1549.199951171875 L 1583.9000244140625 1529.5999755859375 L 1582.0999755859375 1540.199951171875 L 1699.0999755859375 1570.4000244140625 Z" class="st21" transform="matrix(1, 0, 0, 1, 5.684341886080802e-14, 1.4210854715202004e-14)" style="fill:#578082"/><path d="M1639.1,1618.3l57.9-350.2c0.9-5.2-2.3-10.1-7.1-10.9c-4.8-0.8-9.4,2.8-10.2,8l-57.9,350.2 c-0.9,5.2,2.3,10.1,7.1,10.9C1633.7,1627.1,1638.3,1623.5,1639.1,1618.3z" class="st22" transform="matrix(1, 0, 0, 1, 5.684341886080802e-14, 1.4210854715202004e-14)" style="fill:#faad77"/><path d="M1697,1268.1c0.7-4-1-7.7-4-9.6l-60.8,367.7c3.4-0.9,6.2-3.9,6.9-7.9L1697,1268.1z" class="st23" transform="matrix(1, 0, 0, 1, 5.684341886080802e-14, 1.4210854715202004e-14)" style="fill:#ce9869"/><path d="M1639,1619.1l20.2-122.2l-17.4-2.9l-20.2,122.2c-0.8,4.8,2.5,9.3,7.2,10.1 C1633.7,1627.1,1638.2,1623.9,1639,1619.1z" class="st24" transform="matrix(1, 0, 0, 1, 5.684341886080802e-14, 1.4210854715202004e-14)" style="fill:#589492"/><path d="M1634.3,1625.4c0.3-0.1,0.5-0.3,0.7-0.4c0.2-0.1,0.4-0.2,0.5-0.4c0.4-0.3,0.7-0.6,1.1-0.9 c0.1-0.1,0.1-0.2,0.2-0.3c0.3-0.3,0.5-0.6,0.7-0.9c0.1-0.1,0.2-0.3,0.3-0.4c0.2-0.3,0.3-0.6,0.5-1c0.1-0.1,0.1-0.3,0.2-0.5 c0.2-0.5,0.3-1,0.4-1.6l20.2-122.2l-5.4-0.9l-21.5,130.2c0.2,0,0.4-0.1,0.6-0.2c0.3-0.1,0.5-0.2,0.8-0.3 C1633.9,1625.7,1634.1,1625.5,1634.3,1625.4z" class="st25" transform="matrix(1, 0, 0, 1, 5.684341886080802e-14, 1.4210854715202004e-14)" style="fill:#577f81"/></g><path d="M1683.7,1655.6c-2.1-32.2-27.8-58.6-60.9-60.6c-4.4-0.3-8.7-0.1-12.9,0.5c-15.4-22.6-40.8-38.1-70.2-39.9 c-43.5-2.7-81.8,25.5-93.6,65.6c-30.8,4.2-55.5,29.7-57.4,62c-0.1,1.8-0.1,3.5-0.1,5.3l340.4,20.8 C1729.3,1682.5,1709.8,1659.7,1683.7,1655.6z" class="st13" transform="matrix(1, 0, 0, 1, 5.684341886080802e-14, 1.4210854715202004e-14)" style="fill:#84532a"/><path d="M1296.9,1653.8l-0.9,12c21.3,1.6,39.9-14.3,41.5-35.6c1.6-21.3-14.3-39.9-35.6-41.5l-0.9,12 c14.6,1.1,25.6,14,24.5,28.6S1311.6,1654.9,1296.9,1653.8z" class="st20" transform="matrix(1, 0, 0, 1, 5.684341886080802e-14, 1.4210854715202004e-14)" style="fill:#61969a"/><path d="M1290.3,1571.7c1.6-21.3-14.3-39.9-35.6-41.5c-21.3-1.6-39.9,14.3-41.5,35.6l12,0.9 c1.1-14.6,14-25.6,28.6-24.5c14.6,1.1,25.6,14,24.5,28.6L1290.3,1571.7z" class="st20" transform="matrix(1, 0, 0, 1, 5.684341886080802e-14, 1.4210854715202004e-14)" style="fill:#61969a"/><path d="M 1198.699951171875 1643 L 1220.300048828125 1614.0999755859375 L 1114.5999755859375 1545.9000244140625 L 1103.199951171875 1561.199951171875 Z" class="st20" transform="matrix(1, 0, 0, 1, 5.684341886080802e-14, 1.4210854715202004e-14)" style="fill:#61969a"/><path d="M 1109 1553.4000244140625 L 1103.199951171875 1561.199951171875 L 1198.699951171875 1643 L 1220.300048828125 1614.0999755859375 L 1214.9000244140625 1610.5999755859375 L 1199.5999755859375 1631 Z" class="st21" transform="matrix(1, 0, 0, 1, 5.684341886080802e-14, 1.4210854715202004e-14)" style="fill:#578082"/><path d="M1208.6,1565.5c-6.3-0.5-11.8,4.2-12.3,10.5l-6.3,82c-0.7,8.6,5.8,16.2,14.5,16.9l77.7,6 c8.6,0.7,16.2-5.8,16.9-14.5l6.3-82c0.5-6.3-4.2-11.8-10.5-12.3L1208.6,1565.5z" class="st20" transform="matrix(1, 0, 0, 1, 5.684341886080802e-14, 1.4210854715202004e-14)" style="fill:#61969a"/><path d="M1208.6,1565.5c-6.3-0.5-11.8,4.2-12.3,10.5l-6.3,82c-0.7,8.6,5.8,16.2,14.5,16.9l4.3,0.3l6-77.7 c0.5-6.3,6-11,12.3-10.5l77.7,6l0.7-8.6c0.5-6.3-4.2-11.8-10.5-12.3L1208.6,1565.5z" class="st21" transform="matrix(1, 0, 0, 1, 5.684341886080802e-14, 1.4210854715202004e-14)" style="fill:#578082"/><path d="M1201.4,1552.9c-7.4-0.6-13.9,5-14.5,12.4c-0.6,7.4,5,13.9,12.4,14.5l102.5,7.9c7.4,0.6,13.9-5,14.5-12.4 c0.6-7.4-5-13.9-12.4-14.5L1201.4,1552.9z" class="st20" transform="matrix(1, 0, 0, 1, 5.684341886080802e-14, 1.4210854715202004e-14)" style="fill:#61969a"/><path d="M1113.5,1533.9l-22,27.5c-1.2,1.5-0.8,3.8,0.9,4.7c8.8,4.8,20.1,2.8,26.5-5.4c6.5-8.1,6-19.5-0.7-27.1 C1117.1,1532.3,1114.7,1532.4,1113.5,1533.9z" class="st20" transform="matrix(1, 0, 0, 1, 5.684341886080802e-14, 1.4210854715202004e-14)" style="fill:#61969a"/><path d="M0,1845.1C430.8,1943,946.2,2000,1500,2000s1069.2-57,1500-154.9v-323.5c-430.8,97.9-946.2,154.9-1500,154.9 s-1069.2-57-1500-154.9V1845.1z" class="st26" transform="matrix(1, 0, 0, 1, 5.684341886080802e-14, 1.4210854715202004e-14)" style="fill:#a2c26d"/><path d="M 2496.400101 1701.900024 A 185.300003 185.300003 0 0 1 2311.100098 1887.200027 A 185.300003 185.300003 0 0 1 2125.800095 1701.900024 A 185.300003 185.300003 0 0 1 2311.100098 1516.600021 A 185.300003 185.300003 0 0 1 2496.400101 1701.900024 Z" class="st26" transform="matrix(1, 0, 0, 1, 8.526512829121202e-14, 2.1316282072803006e-14)" style="fill:#a2c26d"/><path d="M2437.6,1540c0,0-10.5,11.8-10.5,26.4c0,14.6,10.5,26.4,10.5,26.4s10.5-11.8,10.5-26.4 C2448.1,1551.8,2437.6,1540,2437.6,1540z" class="st26" transform="matrix(1, 0, 0, 1, 8.526512829121202e-14, 2.1316282072803006e-14)" style="fill:#a2c26d"/><path d="M2437.6,1555.9c-14.6,0-26.4,10.5-26.4,10.5s11.8,10.5,26.4,10.5c14.6,0,26.4-10.5,26.4-10.5 S2452.2,1555.9,2437.6,1555.9z" class="st26" transform="matrix(1, 0, 0, 1, 8.526512829121202e-14, 2.1316282072803006e-14)" style="fill:#a2c26d"/><path d="M2184.6,1540c0,0-10.5,11.8-10.5,26.4c0,14.6,10.5,26.4,10.5,26.4s10.5-11.8,10.5-26.4 C2195.1,1551.8,2184.6,1540,2184.6,1540z" class="st26" transform="matrix(1, 0, 0, 1, 8.526512829121202e-14, 2.1316282072803006e-14)" style="fill:#a2c26d"/><path d="M2184.6,1555.9c-14.6,0-26.4,10.5-26.4,10.5s11.8,10.5,26.4,10.5c14.6,0,26.4-10.5,26.4-10.5 S2199.2,1555.9,2184.6,1555.9z" class="st26" transform="matrix(1, 0, 0, 1, 8.526512829121202e-14, 2.1316282072803006e-14)" style="fill:#a2c26d"/><g><g><path d="M2397.8,1607.7c-10.3-10.3-26-11.2-26-11.2s0.9,15.7,11.2,26c10.3,10.3,26,11.2,26,11.2 S2408.1,1618,2397.8,1607.7z" class="st27" transform="matrix(1, 0, 0, 1, 1.1368683772161603e-13, 2.842170943040401e-14)" style="fill:#88a25b"/></g><g><path d="M2383,1607.7c-10.3,10.3-11.2,26-11.2,26s15.7-0.9,26-11.2c10.3-10.3,11.2-26,11.2-26 S2393.3,1597.4,2383,1607.7z" class="st27" transform="matrix(1, 0, 0, 1, 1.1368683772161603e-13, 2.842170943040401e-14)" style="fill:#88a25b"/></g></g><g><g><path d="M2249.1,1578.5c-6.9-6.9-17.4-7.5-17.4-7.5s0.6,10.5,7.5,17.4c6.9,6.9,17.4,7.5,17.4,7.5 S2255.9,1585.3,2249.1,1578.5z" class="st27" transform="matrix(1, 0, 0, 1, 1.1368683772161603e-13, 2.842170943040401e-14)" style="fill:#88a25b"/></g><g><path d="M2239.2,1578.5c-6.9,6.9-7.5,17.4-7.5,17.4s10.5-0.6,17.4-7.5c6.9-6.9,7.5-17.4,7.5-17.4 S2246,1571.6,2239.2,1578.5z" class="st27" transform="matrix(1, 0, 0, 1, 1.1368683772161603e-13, 2.842170943040401e-14)" style="fill:#88a25b"/></g></g><path d="M 997.700027 1701.900024 A 185.300003 185.300003 0 0 1 812.400024 1887.200027 A 185.300003 185.300003 0 0 1 627.100021 1701.900024 A 185.300003 185.300003 0 0 1 812.400024 1516.600021 A 185.300003 185.300003 0 0 1 997.700027 1701.900024 Z" class="st26" transform="matrix(0.14469999074935913, -0.9895000457763672, 0.9895000457763672, 0.14469999074935913, -989.1165161132812, 2259.3916015625)" style="fill:#a2c26d"/><path d="M696.5,1547.9c-2.1,14.4,6.5,27.6,6.5,27.6s12.1-10.2,14.2-24.6s-6.5-27.6-6.5-27.6 S698.6,1533.5,696.5,1547.9z" class="st26" transform="matrix(1, 0, 0, 1, 8.526512829121202e-14, 2.1316282072803006e-14)" style="fill:#a2c26d"/><path d="M680.8,1545.6c0,0,10.2,12.1,24.6,14.2s27.6-6.5,27.6-6.5s-10.2-12.1-24.6-14.2 C694,1537,680.8,1545.6,680.8,1545.6z" class="st26" transform="matrix(1, 0, 0, 1, 8.526512829121202e-14, 2.1316282072803006e-14)" style="fill:#a2c26d"/><path d="M946.8,1584.5c-2.1,14.4,6.5,27.6,6.5,27.6s12.1-10.2,14.2-24.6c2.1-14.4-6.5-27.6-6.5-27.6 S949,1570.1,946.8,1584.5z" class="st26" transform="matrix(1, 0, 0, 1, 8.526512829121202e-14, 2.1316282072803006e-14)" style="fill:#a2c26d"/><path d="M931.1,1582.2c0,0,10.2,12.1,24.6,14.2c14.4,2.1,27.6-6.5,27.6-6.5s-10.2-12.1-24.6-14.2 S931.1,1582.2,931.1,1582.2z" class="st26" transform="matrix(1, 0, 0, 1, 8.526512829121202e-14, 2.1316282072803006e-14)" style="fill:#a2c26d"/><g><g><path d="M723.6,1629.6c0,0,11.7,1,20.4-5.5s11.1-18,11.1-18s-11.7-1-20.4,5.5 C726,1618.1,723.6,1629.6,723.6,1629.6z" class="st27" transform="matrix(1, 0, 0, 1, 1.1368683772161603e-13, 2.842170943040401e-14)" style="fill:#88a25b"/></g><g><path d="M727.6,1602.2c0,0-1,11.7,5.5,20.4c6.5,8.7,18,11.1,18,11.1s1-11.7-5.5-20.4 C739.1,1604.6,727.6,1602.2,727.6,1602.2z" class="st27" transform="matrix(1, 0, 0, 1, 1.1368683772161603e-13, 2.842170943040401e-14)" style="fill:#88a25b"/></g></g><g><g><path d="M894.1,1617.9c0,0,11.8,1,20.5-5.5s11.1-18.1,11.1-18.1s-11.8-1-20.5,5.5 C896.5,1606.3,894.1,1617.9,894.1,1617.9z" class="st27" transform="matrix(1, 0, 0, 1, 1.1368683772161603e-13, 2.842170943040401e-14)" style="fill:#88a25b"/></g><g><path d="M898.2,1590.3c0,0-1,11.8,5.5,20.5s18.1,11.1,18.1,11.1s1-11.8-5.5-20.5 C909.7,1592.7,898.2,1590.3,898.2,1590.3z" class="st27" transform="matrix(1, 0, 0, 1, 1.1368683772161603e-13, 2.842170943040401e-14)" style="fill:#88a25b"/></g></g><path d="M365,1735.7c11.5-14.1,16.7-27.7,16.7-27.7s-22.1-5.7-46.5-0.7c-16.9-18.3-38.2-26.6-38.2-26.6 s-5.3,20.4-1.3,43.6C193.4,1707,94.7,1687.4,0,1665.9V2000h3000v-334.1c-95.5,21.7-195.3,41.4-298.6,58.9c-1.5-1.4-3-2.8-4.7-4.2 c3.8-24.6-2.9-46.4-2.9-46.4s-20.9,9.3-36.9,28.3c-24.6-3.8-46.4,2.9-46.4,2.9s7.1,15.9,21.6,30.6 c-345,54.4-728.4,84.7-1132.1,84.7C1095.1,1820.8,710.7,1790.4,365,1735.7z" class="st27" transform="matrix(1, 0, 0, 1, 5.684341886080802e-14, 1.4210854715202004e-14)" style="fill:#88a25b"/></svg>