<?xml version="1.0" encoding="utf-8"?>
<svg id="master-artboard" viewBox="0 0 1400 980" version="1.1" xmlns="http://www.w3.org/2000/svg" x="0px" y="0px" style="enable-background:new 0 0 1400 980;" width="1400px" height="980px">

<g transform="matrix(1, 0, 0, 1, 2.842170943040401e-14, 7.105427357601002e-15)">
		<g>
			<path d="M 0 0 H 1400 V 980 H 0 V 0 Z" class="st0" style="fill: rgb(109, 234, 248);"/>
		</g>
	</g><g transform="matrix(1, 0, 0, 1, 5.684341886080802e-14, 1.4210854715202004e-14)">
			<path class="st1" d="M702.1,282.6c-334.2,0-615.7,132.7-701.3,313.6v196.6H1400V589.2C1310.6,411.9,1031.9,282.6,702.1,282.6z" style="fill: rgb(142, 247, 248);"/>
		</g><path class="st2" d="M1259,793.9c-110.9-131.4-323.9-220.4-568.5-220.4s-457.6,88.9-568.5,220.4H1259z" style="fill: rgb(251, 186, 96);" transform="matrix(1, 0, 0, 1, 5.684341886080802e-14, 1.4210854715202004e-14)"/><g transform="matrix(1, 0, 0, 1, 5.684341886080802e-14, 1.4210854715202004e-14)">
			<g>
				<path class="st3" d="M1102.9,669.4c-0.3-10.2-6.7-18.7-15.3-20.7c0.6-2.3,1-4.7,1-7.2c0-13.3-9.5-24-21.2-24&#10;&#9;&#9;&#9;&#9;&#9;c-1.2,0-2.4,0.1-3.5,0.3c-0.4-17.3-12.9-31.2-28.2-31.2c-6.5,0-12.4,2.5-17.2,6.6c-34-21.9-79.1-44.1-136.7-60&#10;&#9;&#9;&#9;&#9;&#9;c-3.7-7.5-10.8-12.6-19-12.6c-2.5,0-4.9,0.5-7.2,1.4c-2-10.9-10.5-19.2-20.7-19.2c-6.3,0-12,3.1-15.9,8.1&#10;&#9;&#9;&#9;&#9;&#9;c-3.9-5-9.5-8.1-15.9-8.1c-1.9,0-3.7,0.3-5.5,0.8c-7.1-13.8-20.2-23.1-35.3-23.1c-15.9,0-29.7,10.3-36.4,25.4&#10;&#9;&#9;&#9;&#9;&#9;c-2.2-1.3-4.6-2.1-7.3-2.1c-4.9,0-9.3,2.6-12.1,6.7c-0.7,0-1.5,0-2.2,0c-53,0-101,5.4-144,14.2c-5.1-6.8-12.7-11.1-21.2-11.1&#10;&#9;&#9;&#9;&#9;&#9;c-5.6,0-10.7,1.8-15.1,5c-5.4-4.1-11.9-6.5-18.9-6.5c-18.4,0-33.5,16.7-33.9,37.5c-11,4-21.5,8.1-31.5,12.4&#10;&#9;&#9;&#9;&#9;&#9;c-3.5-4.3-8.5-6.9-14-6.9c-6.9,0-13,4.2-16.4,10.4c-3.7-1.9-7.7-3-12-3c-12.2,0-22.6,8.7-26.6,20.9c-0.4,0-0.8,0-1.2,0&#10;&#9;&#9;&#9;&#9;&#9;c-15.4,0-27.8,14.1-27.8,31.5c-11.7,0-21.7,8.1-25.8,19.7C290.6,655,278,669.5,278,669.5v135.6h824.9L1102.9,669.4&#10;&#9;&#9;&#9;&#9;&#9;C1102.9,669.5,1102.9,669.4,1102.9,669.4z" style="fill: rgb(113, 201, 79);"/>
			</g>
			<g>
				<g>
					<path class="st4" d="M316.2,640c4.1-11.5,14.1-19.7,25.8-19.7c0-17.4,12.4-31.5,27.8-31.5c0.4,0,0.8,0,1.2,0&#10;&#9;&#9;&#9;&#9;&#9;&#9;c4-12.2,14.4-20.9,26.6-20.9c4.3,0,8.4,1.1,12,3c3.4-6.2,9.4-10.4,16.4-10.4c5.5,0,10.5,2.7,14,6.9c10-4.3,20.5-8.4,31.5-12.4&#10;&#9;&#9;&#9;&#9;&#9;&#9;c0.5-20.8,15.5-37.5,33.9-37.5c7,0,13.5,2.4,18.9,6.5c4.4-3.2,9.5-5,15.1-5c8.5,0,16.1,4.3,21.2,11.1&#10;&#9;&#9;&#9;&#9;&#9;&#9;c43-8.8,90.9-14.2,144-14.2c0.7,0,1.5,0,2.2,0c2.8-4.1,7.2-6.7,12.1-6.7c2.6,0,5.1,0.7,7.3,2.1c6.7-15.1,20.5-25.4,36.4-25.4&#10;&#9;&#9;&#9;&#9;&#9;&#9;c15.1,0,28.2,9.3,35.3,23.1c1.7-0.5,3.6-0.8,5.5-0.8c6.3,0,12,3.1,15.9,8.1c3.9-5,9.5-8.1,15.9-8.1c10.2,0,18.7,8.2,20.7,19.2&#10;&#9;&#9;&#9;&#9;&#9;&#9;c2.2-0.9,4.6-1.4,7.2-1.4c8.1,0,15.2,5.1,19,12.6c57.6,15.9,102.7,38.1,136.7,60c4.8-4.1,10.7-6.6,17.2-6.6&#10;&#9;&#9;&#9;&#9;&#9;&#9;c15.4,0,27.9,13.9,28.2,31.2c1.1-0.2,2.3-0.3,3.5-0.3c10.9,0,19.9,9.4,21.1,21.4c0.1-0.9,0.1-1.7,0.1-2.6&#10;&#9;&#9;&#9;&#9;&#9;&#9;c0-13.3-9.5-24-21.2-24c-1.2,0-2.4,0.1-3.5,0.3c-0.4-17.3-12.9-31.2-28.2-31.2c-6.5,0-12.4,2.5-17.2,6.6&#10;&#9;&#9;&#9;&#9;&#9;&#9;c-34-21.9-79.1-44.1-136.7-60c-3.7-7.5-10.8-12.6-19-12.6c-2.5,0-4.9,0.5-7.2,1.4c-2-10.9-10.5-19.2-20.7-19.2&#10;&#9;&#9;&#9;&#9;&#9;&#9;c-6.3,0-12,3.1-15.9,8.1c-3.9-5-9.5-8.1-15.9-8.1c-1.9,0-3.7,0.3-5.5,0.8c-7.1-13.8-20.2-23.1-35.3-23.1&#10;&#9;&#9;&#9;&#9;&#9;&#9;c-15.9,0-29.7,10.3-36.4,25.4c-2.2-1.3-4.6-2.1-7.3-2.1c-4.9,0-9.3,2.6-12.1,6.7c-0.7,0-1.5,0-2.2,0c-53,0-101,5.4-144,14.2&#10;&#9;&#9;&#9;&#9;&#9;&#9;c-5.1-6.8-12.7-11.1-21.2-11.1c-5.6,0-10.7,1.8-15.1,5c-5.4-4.1-11.9-6.5-18.9-6.5c-18.4,0-33.5,16.7-33.9,37.5&#10;&#9;&#9;&#9;&#9;&#9;&#9;c-11,4-21.5,8.1-31.5,12.4c-3.5-4.3-8.5-6.9-14-6.9c-6.9,0-13,4.2-16.4,10.4c-3.7-1.9-7.7-3-12-3c-12.2,0-22.6,8.7-26.6,20.9&#10;&#9;&#9;&#9;&#9;&#9;&#9;c-0.4,0-0.8,0-1.2,0c-15.4,0-27.8,14.1-27.8,31.5c-11.7,0-21.7,8.1-25.8,19.7C290.6,655,278,669.5,278,669.5v5.2&#10;&#9;&#9;&#9;&#9;&#9;&#9;C278,674.7,290.6,660.2,316.2,640z" style="fill: rgb(159, 230, 79);"/>
				</g>
				<g>
					<path class="st4" d="M1102.9,669.4c-0.3-9.9-6.3-18.1-14.4-20.5c-0.1,1.7-0.4,3.4-0.9,5c8.6,2,15,10.5,15.3,20.7&#10;&#9;&#9;&#9;&#9;&#9;&#9;c0,0,0,0.1,0,0.1L1102.9,669.4C1102.9,669.5,1102.9,669.4,1102.9,669.4z" style="fill: rgb(159, 230, 79);"/>
				</g>
			</g>
		</g><path class="st5" d="M1259,793.9c-110.9-131.4-323.9-220.4-568.5-220.4s-457.6,88.9-568.5,220.4H1259z" style="fill: rgb(251, 211, 96);" transform="matrix(1, 0, 0, 1, 8.526512829121202e-14, 2.1316282072803006e-14)"/><path class="st2" d="M1259,816.6c-110.9-131.4-323.9-220.4-568.5-220.4s-457.6,88.9-568.5,220.4H1259z" style="fill: rgb(251, 186, 96);" transform="matrix(1, 0, 0, 1, 8.526512829121202e-14, 2.1316282072803006e-14)"/><g transform="matrix(1, 0, 0, 1, 8.526512829121202e-14, 2.1316282072803006e-14)">
				<g>
					<path class="st6" d="M507.3,344.2c-1.6-5.1,29.8-24.8,29.8-24.8l4.5,5l-2-6c27.9-10.2,49.5-4.4,49.5-4.4l5,6.3l-1.6-6&#10;&#9;&#9;&#9;&#9;&#9;&#9;c18.1,3.4,28.5,17.3,29,18.1c4.8,6.7,6.3,12.6,5.5,16.3C593.4,321.5,544.4,322.2,507.3,344.2z" style="fill: rgb(149, 202, 62);"/>
				</g>
				<g>
					<path class="st7" d="M627.1,348.6c-0.8,3.8-4,5.2-8.5,2.8c-8.8-4.7-43.9-7.1-43.9-7.1l-0.7-6.5l-1.8,6.6&#10;&#9;&#9;&#9;&#9;&#9;&#9;c-10.1-0.8-25.6,1.5-35.5,2.5c-9.9,1-27.7,0-29.3-2.5c-0.1-0.1-0.1-0.2-0.1-0.3C544.4,322.2,593.4,321.5,627.1,348.6z" style="fill: rgb(133, 180, 56);"/>
				</g>
				<g>
					<path class="st8" d="M512.8,342c0,0,24.6-18.4,57.4-17.5c32.9,0.9,55.2,14.3,73.1,40.2l-4.6,5.8c0,0-5.9-34-70.1-42&#10;&#9;&#9;&#9;&#9;&#9;&#9;C547.6,325.9,512.8,342,512.8,342z" style="fill: rgb(112, 155, 53);"/>
				</g>
			</g><g transform="matrix(1, 0, 0, 1, 1.1368683772161603e-13, 2.842170943040401e-14)">
					<path class="st6" d="M718,208.4c-4.2-5.4-48,13.5-48,13.5l2,8.4l-4.9-6.4c-31.1,22-40.7,49.1-40.7,49.1l3,9.8l-5.1-6.1&#10;&#9;&#9;&#9;&#9;&#9;&#9;c-9.6,21.6-2.4,42.7-2,43.9c3.6,10,8.8,15.8,13.2,17.7C631.3,283,667.8,231.6,718,208.4z" style="fill: rgb(149, 202, 62);"/>
				</g><path class="st7" d="M635.4,338.2c4.6,1.9,8.5-0.4,9.2-6.9c1.4-12.8,24.5-51.6,24.5-51.6l-6.4-5.5l8.3,2.9&#10;&#9;&#9;&#9;&#9;&#9;&#9;c6.4-11.3,20.3-26,28.5-35.8c8.2-9.8,20.2-29.4,18.7-32.7c0-0.1-0.1-0.2-0.2-0.3C667.8,231.6,631.3,283,635.4,338.2z" style="fill: rgb(133, 180, 56);" transform="matrix(1, 0, 0, 1, 1.4210854715202004e-13, 3.552713678800501e-14)"/><path class="st8" d="M711.7,212.6c0,0-37.4,12.6-60.3,48c-23,35.4-10.5,94.8-10.5,94.8s-12.8-22.6,15.9-93.6&#10;&#9;&#9;&#9;&#9;&#9;&#9;C667,236.7,711.7,212.6,711.7,212.6z" style="fill: rgb(112, 155, 53);" transform="matrix(1, 0, 0, 1, 1.4210854715202004e-13, 3.552713678800501e-14)"/><g transform="matrix(1, 0, 0, 1, 1.1368683772161603e-13, 2.842170943040401e-14)">
					<path class="st6" d="M580.2,211.2c3.3-4.2,37.2,11.2,37.2,11.2l-1.7,6.5l3.9-4.9c23.9,17.6,31,38.9,31,38.9l-2.5,7.6l4.1-4.7&#10;&#9;&#9;&#9;&#9;&#9;&#9;c7.2,17,1.2,33.3,0.9,34.2c-3,7.7-7.1,12.2-10.5,13.6C646.6,270.6,619,230.1,580.2,211.2z" style="fill: rgb(149, 202, 62);"/>
				</g><path class="st7" d="M642.6,313.6c-3.6,1.4-6.6-0.5-7-5.5c-0.9-10-18.3-40.6-18.3-40.6l5.1-4.2l-6.5,2.2&#10;&#9;&#9;&#9;&#9;&#9;&#9;c-4.8-8.9-15.4-20.5-21.7-28.3c-6.3-7.7-15.3-23.2-14.1-25.8c0-0.1,0.1-0.2,0.2-0.2C619,230.1,646.6,270.6,642.6,313.6z" style="fill: rgb(133, 180, 56);" transform="matrix(1, 0, 0, 1, 1.4210854715202004e-13, 3.552713678800501e-14)"/><path class="st8" d="M585.1,214.7c0,0,28.9,10.4,46.3,38.3c17.3,27.9,18.5,54,6.7,83.2l-7.4-0.7c0,0,25.1-23.7-3.5-81.6&#10;&#9;&#9;&#9;&#9;&#9;&#9;C617.7,234.8,585.1,214.7,585.1,214.7z" style="fill: rgb(112, 155, 53);" transform="matrix(1, 0, 0, 1, 1.4210854715202004e-13, 3.552713678800501e-14)"/><g transform="matrix(1, 0, 0, 1, 1.1368683772161603e-13, 2.842170943040401e-14)">
					<path class="st6" d="M481,290.6c-0.5-6.8,44.8-21.8,44.8-21.8l4.1,7.6l-0.6-8.1c37.9-4.3,63.1,9.6,63.1,9.6l4.3,9.3l-0.2-8&#10;&#9;&#9;&#9;&#9;&#9;&#9;c21.6,9.7,30.2,30.3,30.7,31.4c3.9,9.9,4,17.6,1.9,22C595.3,288.7,533.9,274.5,481,290.6z" style="fill: rgb(149, 202, 62);"/>
				</g><path class="st7" d="M629,332.6c-2.2,4.5-6.6,5.3-11.5,0.9c-9.5-8.6-52.6-22.2-52.6-22.2l1.1-8.3l-4.2,7.7&#10;&#9;&#9;&#9;&#9;&#9;&#9;c-12.3-4.1-32.4-5.9-45.1-7.7c-12.6-1.8-34.6-8.5-35.8-12c0-0.1,0-0.2,0-0.4C533.9,274.5,595.3,288.7,629,332.6z" style="fill: rgb(133, 180, 56);" transform="matrix(1, 0, 0, 1, 1.4210854715202004e-13, 3.552713678800501e-14)"/><path class="st8" d="M488.5,289.6c0,0,36.3-15.5,77-4.3c40.7,11.2,63.3,35.2,77.6,73l-7.8,3c0,0,4.5-41.8-73.1-71.4&#10;&#9;&#9;&#9;&#9;&#9;&#9;C536.8,280.1,488.5,289.6,488.5,289.6z" style="fill: rgb(112, 155, 53);" transform="matrix(1, 0, 0, 1, 1.4210854715202004e-13, 3.552713678800501e-14)"/><g transform="matrix(1, 0, 0, 1, 1.1368683772161603e-13, 2.842170943040401e-14)">
					<path class="st6" d="M508.1,242.6c1.6-6.6,49.3-7.4,49.3-7.4l1.6,8.5l1.8-7.9c37.4,7.3,57.3,28,57.3,28l1.3,10.2l2.2-7.7&#10;&#9;&#9;&#9;&#9;&#9;&#9;c17.7,15.8,19.8,37.9,19.9,39.2c0.8,10.6-1.5,18-4.8,21.5C617.8,275,563.4,243.1,508.1,242.6z" style="fill: rgb(149, 202, 62);"/>
				</g><path class="st7" d="M636.8,327c-3.4,3.6-7.9,3.1-11.2-2.5c-6.5-11.1-43.6-37-43.6-37l3.6-7.6l-6.4,6.1&#10;&#9;&#9;&#9;&#9;&#9;&#9;c-10.5-7.6-29.2-15.3-40.7-20.9c-11.5-5.5-30.4-18.5-30.5-22.2c0-0.1,0-0.2,0.1-0.4C563.4,243.1,617.8,275,636.8,327z" style="fill: rgb(133, 180, 56);" transform="matrix(1, 0, 0, 1, 1.4210854715202004e-13, 3.552713678800501e-14)"/><path class="st8" d="M515.6,243.9c0,0,39.3-3.9,74.7,18.9c35.5,22.9,49.7,52.2,52.1,92.5l-10.4,1.9c0,0,19-39.7-46.2-91.1&#10;&#9;&#9;&#9;&#9;&#9;&#9;C564.5,249.3,515.6,243.9,515.6,243.9z" style="fill: rgb(112, 155, 53);" transform="matrix(1, 0, 0, 1, 1.4210854715202004e-13, 3.552713678800501e-14)"/><g transform="matrix(1, 0, 0, 1, 1.1368683772161603e-13, 2.842170943040401e-14)">
					<path class="st6" d="M748.3,396.6c3.8-3.3-11.7-34.8-11.7-34.8l-6.1,1.8l4.5-3.9c-17.4-22.1-37.7-28.1-37.7-28.1l-7.1,2.6&#10;&#9;&#9;&#9;&#9;&#9;&#9;l4.3-4c-16.3-6.3-31.5-0.2-32.4,0.2c-7.2,3.1-11.3,7-12.5,10.4C690.1,335.7,729.3,360.6,748.3,396.6z" style="fill: rgb(149, 202, 62);"/>
				</g><path class="st7" d="M649.6,340.8c-1.2,3.5,0.6,6.2,5.4,6.5c9.4,0.6,38.9,16.1,38.9,16.1l3.8-4.9l-1.8,6.2&#10;&#9;&#9;&#9;&#9;&#9;&#9;c8.5,4.3,19.9,13.9,27.4,19.6c7.5,5.7,22.4,13.7,24.8,12.5c0.1,0,0.1-0.1,0.2-0.2C729.3,360.6,690.1,335.7,649.6,340.8z" style="fill: rgb(133, 180, 56);" transform="matrix(1, 0, 0, 1, 1.4210854715202004e-13, 3.552713678800501e-14)"/><path class="st8" d="M744.9,392.2c0,0-10.7-27-37.6-42.6c-26.9-15.6-51.6-15.9-78.8-3.8l2.5,9.5c0,0,20-27,75.6-1.7&#10;&#9;&#9;&#9;&#9;&#9;&#9;C724.9,362,744.9,392.2,744.9,392.2z" style="fill: rgb(112, 155, 53);" transform="matrix(1, 0, 0, 1, 1.4210854715202004e-13, 3.552713678800501e-14)"/><g transform="matrix(1, 0, 0, 1, 1.1368683772161603e-13, 2.842170943040401e-14)">
					<path class="st6" d="M802.7,350.4c3.1-6.1-32.9-37.4-32.9-37.4l-6.7,5.4l3.7-7.2c-33.3-18.6-61.9-15.5-61.9-15.5l-7.6,6.9&#10;&#9;&#9;&#9;&#9;&#9;&#9;l3.3-7.2c-23.7,0.7-39.6,16.3-40.4,17.2c-7.4,7.6-10.5,14.7-10.2,19.5C698,304.5,760,315.2,802.7,350.4z" style="fill: rgb(149, 202, 62);"/>
				</g><path class="st7" d="M649.9,332.1c0.3,5,4,7.4,10.2,5.3c12.1-4.2,57.1-0.2,57.1-0.2l2.2-8.1l0.9,8.7&#10;&#9;&#9;&#9;&#9;&#9;&#9;c12.9,0.9,32.2,7.1,44.6,10.2c12.4,3.2,35.2,5.5,37.6,2.7c0.1-0.1,0.1-0.2,0.2-0.3C760,315.2,698,304.5,649.9,332.1z" style="fill: rgb(133, 180, 56);" transform="matrix(1, 0, 0, 1, 1.4210854715202004e-13, 3.552713678800501e-14)"/><path class="st8" d="M796.1,346.6c0,0-27.5-28.3-69.4-33.7c-41.9-5.4-72.9,7.1-100.7,36.5l8.1,10.6c0,0,10.9-44.3,93.8-41.7&#10;&#9;&#9;&#9;&#9;&#9;&#9;C755.3,319.2,796.1,346.6,796.1,346.6z" style="fill: rgb(112, 155, 53);" transform="matrix(1, 0, 0, 1, 1.4210854715202004e-13, 3.552713678800501e-14)"/><g transform="matrix(1, 0, 0, 1, 1.1368683772161603e-13, 2.842170943040401e-14)">
					<path class="st6" d="M795.4,292.9c1.1-6.7-42.6-25.9-42.6-25.9l-4.8,7.2l1.3-8c-37.4-7.7-63.7,3.7-63.7,3.7l-5.2,8.9l1-7.9&#10;&#9;&#9;&#9;&#9;&#9;&#9;c-22.4,7.7-32.9,27.4-33.4,28.5c-4.8,9.5-5.6,17.2-3.9,21.7C681.8,280.5,744.2,272.1,795.4,292.9z" style="fill: rgb(149, 202, 62);"/>
				</g><path class="st7" d="M644.2,321.2c1.7,4.7,6.1,5.9,11.3,2c10.3-7.7,54.5-17.3,54.5-17.3l-0.4-8.4l3.5,8.1&#10;&#9;&#9;&#9;&#9;&#9;&#9;c12.6-3,32.8-2.9,45.6-3.6c12.8-0.7,35.2-5.3,36.7-8.7c0.1-0.1,0.1-0.2,0.1-0.4C744.2,272.1,681.8,280.5,644.2,321.2z" style="fill: rgb(133, 180, 56);" transform="matrix(1, 0, 0, 1, 1.4210854715202004e-13, 3.552713678800501e-14)"/><path class="st8" d="M788,291.3c0,0-34.7-18.7-76.3-11.4c-41.6,7.4-74.3,72.7-74.3,72.7s-2.9-45.5,77-67.9&#10;&#9;&#9;&#9;&#9;&#9;&#9;C740.8,277.4,788,291.3,788,291.3z" style="fill: rgb(112, 155, 53);" transform="matrix(1, 0, 0, 1, 1.4210854715202004e-13, 3.552713678800501e-14)"/><g transform="matrix(1, 0, 0, 1, 1.1368683772161603e-13, 2.842170943040401e-14)">
					<path class="st9" d="M635.1,346.1c0,0,0,101.5,9.9,278.7l42,8.4c0,0-34.1-156.9-46.6-286L635.1,346.1z" style="fill: rgb(155, 67, 43);"/>
				</g><path class="st10" d="M688.2,634.5l-44.2-8.9l0-0.8c-9.8-175.2-9.9-277.7-9.9-278.7v-1.2l7.2,1.4l0.1,0.7&#10;&#9;&#9;&#9;&#9;&#9;&#9;c12.3,127.6,46.2,284.4,46.6,285.9L688.2,634.5z M645.9,623.9l39.7,8c-3.5-16.4-34.5-163-46.2-283.9l-3.3-0.7&#10;&#9;&#9;&#9;&#9;&#9;&#9;C636.2,359.4,636.8,459.6,645.9,623.9z" style="fill: rgb(103, 47, 21);" transform="matrix(1, 0, 0, 1, 1.4210854715202004e-13, 3.552713678800501e-14)"/><g transform="matrix(1, 0, 0, 1, 8.526512829121202e-14, 2.1316282072803006e-14)">
				<g>
					<path class="st6" d="M244.6,470.4c-1.2-3.6,21.4-17.8,21.4-17.8l3.2,3.6l-1.4-4.3c20-7.3,35.5-3.2,35.5-3.2l3.6,4.5l-1.2-4.3&#10;&#9;&#9;&#9;&#9;&#9;&#9;c13,2.4,20.4,12.4,20.8,13c3.4,4.8,4.5,9,3.9,11.7C306.4,454.2,271.2,454.7,244.6,470.4z" style="fill: rgb(149, 202, 62);"/>
				</g>
				<g>
					<path class="st7" d="M330.5,473.5c-0.6,2.7-2.9,3.7-6.1,2c-6.3-3.4-31.5-5.1-31.5-5.1l-0.5-4.7l-1.3,4.7&#10;&#9;&#9;&#9;&#9;&#9;&#9;c-7.2-0.6-18.4,1.1-25.5,1.8c-7.1,0.7-19.9,0-21-1.8c0-0.1,0-0.1-0.1-0.2C271.2,454.7,306.4,454.2,330.5,473.5z" style="fill: rgb(133, 180, 56);"/>
				</g>
				<g>
					<path class="st8" d="M248.6,468.9c0,0,17.6-13.2,41.2-12.6c23.6,0.7,39.6,10.3,52.4,28.8l-3.3,4.2c0,0-4.2-24.4-50.2-30.1&#10;&#9;&#9;&#9;&#9;&#9;&#9;C273.5,457.3,248.6,468.9,248.6,468.9z" style="fill: rgb(112, 155, 53);"/>
				</g>
			</g><g transform="matrix(1, 0, 0, 1, 1.1368683772161603e-13, 2.842170943040401e-14)">
					<path class="st6" d="M395.7,373c-3-3.9-34.4,9.7-34.4,9.7l1.4,6l-3.5-4.6c-22.3,15.8-29.2,35.2-29.2,35.2l2.1,7.1l-3.7-4.4&#10;&#9;&#9;&#9;&#9;&#9;&#9;c-6.9,15.5-1.7,30.6-1.4,31.5c2.6,7.2,6.3,11.3,9.5,12.7C333.5,426.5,359.7,389.7,395.7,373z" style="fill: rgb(149, 202, 62);"/>
				</g><path class="st7" d="M336.5,466.1c3.3,1.4,6.1-0.3,6.6-5c1-9.2,17.6-37,17.6-37l-4.6-3.9l5.9,2.1c4.6-8.1,14.5-18.6,20.4-25.6&#10;&#9;&#9;&#9;&#9;&#9;&#9;c5.9-7,14.4-21,13.4-23.5c0-0.1-0.1-0.1-0.2-0.2C359.7,389.7,333.5,426.5,336.5,466.1z" style="fill: rgb(133, 180, 56);" transform="matrix(1, 0, 0, 1, 1.4210854715202004e-13, 3.552713678800501e-14)"/><path class="st8" d="M391.2,376.1c0,0-26.8,9-43.3,34.4c-16.5,25.4-7.5,68-7.5,68s-9.2-16.2,11.4-67.1&#10;&#9;&#9;&#9;&#9;&#9;&#9;C359.1,393.4,391.2,376.1,391.2,376.1z" style="fill: rgb(112, 155, 53);" transform="matrix(1, 0, 0, 1, 1.4210854715202004e-13, 3.552713678800501e-14)"/><g transform="matrix(1, 0, 0, 1, 1.1368683772161603e-13, 2.842170943040401e-14)">
					<path class="st6" d="M296.9,375.1c2.4-3,26.6,8,26.6,8l-1.2,4.7l2.8-3.5c17.1,12.6,22.2,27.9,22.2,27.9l-1.8,5.5l2.9-3.3&#10;&#9;&#9;&#9;&#9;&#9;&#9;c5.2,12.2,0.9,23.9,0.6,24.5c-2.1,5.5-5.1,8.7-7.6,9.7C344.5,417.7,324.7,388.6,296.9,375.1z" style="fill: rgb(149, 202, 62);"/>
				</g><path class="st7" d="M341.6,448.5c-2.6,1-4.7-0.3-5-4c-0.7-7.1-13.1-29.1-13.1-29.1l3.6-3l-4.7,1.5c-3.5-6.4-11-14.7-15.5-20.3&#10;&#9;&#9;&#9;&#9;&#9;&#9;c-4.5-5.5-10.9-16.6-10.1-18.5c0-0.1,0.1-0.1,0.1-0.2C324.7,388.6,344.5,417.7,341.6,448.5z" style="fill: rgb(133, 180, 56);" transform="matrix(1, 0, 0, 1, 1.4210854715202004e-13, 3.552713678800501e-14)"/><path class="st8" d="M300.4,377.6c0,0,20.7,7.4,33.2,27.4c12.4,20,13.3,38.7,4.8,59.6l-5.3-0.5c0,0,18-17-2.5-58.5&#10;&#9;&#9;&#9;&#9;&#9;&#9;C323.7,392,300.4,377.6,300.4,377.6z" style="fill: rgb(112, 155, 53);" transform="matrix(1, 0, 0, 1, 1.4210854715202004e-13, 3.552713678800501e-14)"/><g transform="matrix(1, 0, 0, 1, 1.1368683772161603e-13, 2.842170943040401e-14)">
					<path class="st6" d="M225.8,432c-0.4-4.9,32.1-15.7,32.1-15.7l2.9,5.4l-0.4-5.8c27.2-3.1,45.2,6.9,45.2,6.9l3.1,6.7l-0.2-5.7&#10;&#9;&#9;&#9;&#9;&#9;&#9;c15.5,7,21.7,21.7,22,22.5c2.8,7.1,2.9,12.6,1.4,15.8C307.7,430.6,263.7,420.5,225.8,432z" style="fill: rgb(149, 202, 62);"/>
				</g><path class="st7" d="M331.9,462.1c-1.5,3.2-4.7,3.8-8.2,0.7c-6.8-6.2-37.7-15.9-37.7-15.9l0.8-6l-3,5.5&#10;&#9;&#9;&#9;&#9;&#9;&#9;c-8.8-3-23.2-4.2-32.3-5.5c-9.1-1.3-24.8-6.1-25.6-8.6c0-0.1,0-0.2,0-0.3C263.7,420.5,307.7,430.6,331.9,462.1z" style="fill: rgb(133, 180, 56);" transform="matrix(1, 0, 0, 1, 1.4210854715202004e-13, 3.552713678800501e-14)"/><path class="st8" d="M231.2,431.3c0,0,26-11.1,55.2-3.1c29.2,8,45.4,25.2,55.6,52.3l-5.6,2.1c0,0,3.2-30-52.4-51.2&#10;&#9;&#9;&#9;&#9;&#9;&#9;C265.8,424.5,231.2,431.3,231.2,431.3z" style="fill: rgb(112, 155, 53);" transform="matrix(1, 0, 0, 1, 1.4210854715202004e-13, 3.552713678800501e-14)"/><g transform="matrix(1, 0, 0, 1, 1.1368683772161603e-13, 2.842170943040401e-14)">
					<path class="st6" d="M245.2,397.6c1.1-4.8,35.3-5.3,35.3-5.3l1.2,6.1l1.3-5.7c26.8,5.2,41.1,20.1,41.1,20.1l1,7.3l1.5-5.5&#10;&#9;&#9;&#9;&#9;&#9;&#9;c12.7,11.3,14.2,27.2,14.2,28.1c0.6,7.6-1.1,12.9-3.4,15.4C323.8,420.8,284.9,398,245.2,397.6z" style="fill: rgb(149, 202, 62);"/>
				</g><path class="st7" d="M337.4,458.1c-2.4,2.6-5.6,2.2-8-1.8c-4.7-7.9-31.2-26.5-31.2-26.5l2.6-5.4l-4.6,4.4&#10;&#9;&#9;&#9;&#9;&#9;&#9;c-7.5-5.5-20.9-11-29.2-15c-8.3-4-21.8-13.2-21.9-15.9c0-0.1,0-0.2,0.1-0.3C284.9,398,323.8,420.8,337.4,458.1z" style="fill: rgb(133, 180, 56);" transform="matrix(1, 0, 0, 1, 1.4210854715202004e-13, 3.552713678800501e-14)"/><path class="st8" d="M250.6,398.5c0,0,28.1-2.8,53.6,13.6c25.4,16.4,35.6,37.4,37.4,66.3l-7.4,1.4c0,0,13.6-28.4-33.1-65.3&#10;&#9;&#9;&#9;&#9;&#9;&#9;C285.6,402.4,250.6,398.5,250.6,398.5z" style="fill: rgb(112, 155, 53);" transform="matrix(1, 0, 0, 1, 1.4210854715202004e-13, 3.552713678800501e-14)"/><g transform="matrix(1, 0, 0, 1, 1.1368683772161603e-13, 2.842170943040401e-14)">
					<path class="st6" d="M417.4,508c2.7-2.3-8.4-24.9-8.4-24.9l-4.4,1.3l3.3-2.8c-12.5-15.8-27-20.2-27-20.2l-5.1,1.8l3.1-2.9&#10;&#9;&#9;&#9;&#9;&#9;&#9;c-11.7-4.5-22.6-0.1-23.2,0.1c-5.2,2.2-8.1,5-9,7.4C375.7,464.3,403.7,482.1,417.4,508z" style="fill: rgb(149, 202, 62);"/>
				</g><path class="st7" d="M346.6,468c-0.9,2.5,0.5,4.4,3.9,4.7c6.8,0.4,27.9,11.5,27.9,11.5l2.7-3.5l-1.3,4.4&#10;&#9;&#9;&#9;&#9;&#9;&#9;c6.1,3.1,14.2,10,19.6,14.1c5.4,4.1,16,9.8,17.8,9c0.1,0,0.1-0.1,0.2-0.1C403.7,482.1,375.7,464.3,346.6,468z" style="fill: rgb(133, 180, 56);" transform="matrix(1, 0, 0, 1, 1.4210854715202004e-13, 3.552713678800501e-14)"/><path class="st8" d="M414.9,504.8c0,0-7.6-19.4-26.9-30.5c-19.3-11.2-37-11.4-56.5-2.8l1.8,6.8c0,0,14.3-19.4,54.2-1.2&#10;&#9;&#9;&#9;&#9;&#9;&#9;C400.6,483.1,414.9,504.8,414.9,504.8z" style="fill: rgb(112, 155, 53);" transform="matrix(1, 0, 0, 1, 1.4210854715202004e-13, 3.552713678800501e-14)"/><g transform="matrix(1, 0, 0, 1, 1.1368683772161603e-13, 2.842170943040401e-14)">
					<path class="st6" d="M456.4,474.9c2.2-4.4-23.6-26.8-23.6-26.8l-4.8,3.9l2.6-5.2c-23.9-13.3-44.4-11.1-44.4-11.1l-5.4,5&#10;&#9;&#9;&#9;&#9;&#9;&#9;l2.4-5.2c-17,0.5-28.4,11.7-29,12.3c-5.3,5.4-7.5,10.6-7.3,14C381.3,442,425.8,449.6,456.4,474.9z" style="fill: rgb(149, 202, 62);"/>
				</g><path class="st7" d="M346.8,461.7c0.2,3.6,2.9,5.3,7.3,3.8c8.7-3,41-0.1,41-0.1l1.5-5.8l0.7,6.3c9.3,0.7,23.1,5.1,31.9,7.3&#10;&#9;&#9;&#9;&#9;&#9;&#9;c8.9,2.3,25.2,3.9,27,1.9c0.1-0.1,0.1-0.2,0.1-0.2C425.8,449.6,381.3,442,346.8,461.7z" style="fill: rgb(133, 180, 56);" transform="matrix(1, 0, 0, 1, 1.4210854715202004e-13, 3.552713678800501e-14)"/><path class="st8" d="M451.7,472.1c0,0-19.7-20.3-49.7-24.1c-30-3.9-52.3,5.1-72.2,26.1l5.8,7.6c0,0,7.8-31.8,67.3-29.9&#10;&#9;&#9;&#9;&#9;&#9;&#9;C422.4,452.5,451.7,472.1,451.7,472.1z" style="fill: rgb(112, 155, 53);" transform="matrix(1, 0, 0, 1, 1.4210854715202004e-13, 3.552713678800501e-14)"/><g transform="matrix(1, 0, 0, 1, 1.1368683772161603e-13, 2.842170943040401e-14)">
					<path class="st6" d="M451.2,433.7c0.8-4.8-30.5-18.5-30.5-18.5l-3.4,5.1l1-5.7c-26.8-5.5-45.7,2.7-45.7,2.7l-3.7,6.4l0.7-5.7&#10;&#9;&#9;&#9;&#9;&#9;&#9;c-16.1,5.5-23.6,19.6-24,20.4c-3.4,6.8-4,12.3-2.8,15.6C369.7,424.8,414.4,418.7,451.2,433.7z" style="fill: rgb(149, 202, 62);"/>
				</g><path class="st7" d="M342.7,453.9c1.2,3.3,4.4,4.2,8.1,1.4c7.4-5.5,39-12.4,39-12.4l-0.3-6l2.5,5.8c9-2.1,23.5-2.1,32.7-2.6&#10;&#9;&#9;&#9;&#9;&#9;&#9;c9.1-0.5,25.2-3.8,26.3-6.2c0-0.1,0-0.2,0.1-0.3C414.4,418.7,369.7,424.8,342.7,453.9z" style="fill: rgb(133, 180, 56);" transform="matrix(1, 0, 0, 1, 1.4210854715202004e-13, 3.552713678800501e-14)"/><path class="st8" d="M445.9,432.5c0,0-24.9-13.4-54.7-8.1S338,476.4,338,476.4s-2.1-32.6,55.2-48.6&#10;&#9;&#9;&#9;&#9;&#9;&#9;C412,422.5,445.9,432.5,445.9,432.5z" style="fill: rgb(112, 155, 53);" transform="matrix(1, 0, 0, 1, 1.4210854715202004e-13, 3.552713678800501e-14)"/><g transform="matrix(1, 0, 0, 1, 1.1368683772161603e-13, 2.842170943040401e-14)">
					<path class="st9" d="M336.3,471.8c0,0,0,72.8,7.1,199.8l30.1,6c0,0-24.5-112.5-33.4-205L336.3,471.8z" style="fill: rgb(155, 67, 43);"/>
				</g><path class="st10" d="M374.7,678.8l-32.3-6.5l0-0.8c-7-125.6-7.1-199.1-7.1-199.8v-1.2l5.7,1.1l0.1,0.7&#10;&#9;&#9;&#9;&#9;&#9;&#9;c8.8,91.5,33.1,203.8,33.4,204.9L374.7,678.8z M344.3,670.7l27.8,5.6c-2.9-13.6-24.7-117.2-33-202.9l-1.8-0.4&#10;&#9;&#9;&#9;&#9;&#9;&#9;C337.3,483,337.8,554.5,344.3,670.7z" style="fill: rgb(103, 47, 21);" transform="matrix(1, 0, 0, 1, 1.4210854715202004e-13, 3.552713678800501e-14)"/><g transform="matrix(1, 0, 0, 1, 8.526512829121202e-14, 2.1316282072803006e-14)">
				<g>
					<path class="st6" d="M901.6,381.6c2.6-4.6-24.4-30.2-24.4-30.2l-5.4,4l3.1-5.5c-25.3-15.5-47.7-14.1-47.7-14.1l-6.1,5.1&#10;&#9;&#9;&#9;&#9;&#9;&#9;l2.8-5.5c-18.4-0.3-31.3,11.4-32,12c-6,5.7-8.6,11.1-8.6,14.9C821.6,342.4,869.5,352.7,901.6,381.6z" style="fill: rgb(149, 202, 62);"/>
				</g>
				<g>
					<path class="st7" d="M783.3,362.3c0,3.9,2.9,5.9,7.8,4.4c9.6-2.9,44.5,1.7,44.5,1.7l1.9-6.2l0.4,6.8c10,1.2,24.8,6.5,34.3,9.4&#10;&#9;&#9;&#9;&#9;&#9;&#9;c9.5,2.9,27.2,5.4,29.2,3.3c0.1-0.1,0.1-0.2,0.1-0.2C869.5,352.7,821.6,342.4,783.3,362.3z" style="fill: rgb(133, 180, 56);"/>
				</g>
				<g>
					<path class="st8" d="M896.6,378.4c0,0-20.5-22.9-52.9-28.5c-32.4-5.6-57,3.2-79.6,25.1l3.4,6.6c0,0,12.5-32.2,76.9-27.4&#10;&#9;&#9;&#9;&#9;&#9;&#9;C865.7,355.7,896.6,378.4,896.6,378.4z" style="fill: rgb(112, 155, 53);"/>
				</g>
			</g><g transform="matrix(1, 0, 0, 1, 1.1368683772161603e-13, 2.842170943040401e-14)">
					<path class="st6" d="M856.2,236.9c-2.4-4.7-38.6,3.7-38.6,3.7l0.4,6.7l-2.9-5.6c-26.9,12.6-38,32-38,32l0.9,8l-3.1-5.4&#10;&#9;&#9;&#9;&#9;&#9;&#9;c-10.4,15.2-7.8,32.4-7.6,33.4c1.4,8.1,4.5,13.3,7.7,15.4C779.5,282.1,814.5,247.7,856.2,236.9z" style="fill: rgb(149, 202, 62);"/>
				</g><path class="st7" d="M775,325c3.3,2.1,6.5,0.8,8-4c2.9-9.6,25.9-36.2,25.9-36.2l-4.1-5.1l5.9,3.4c6.5-7.7,19.1-17.1,26.8-23.5&#10;&#9;&#9;&#9;&#9;&#9;&#9;c7.7-6.4,19.5-19.7,18.9-22.5c0-0.1-0.1-0.2-0.1-0.3C814.5,247.7,779.5,282.1,775,325z" style="fill: rgb(133, 180, 56);" transform="matrix(1, 0, 0, 1, 1.4210854715202004e-13, 3.552713678800501e-14)"/><path class="st8" d="M850.8,239.3c0,0-30.4,4.5-52.9,28.4c-22.5,24-28.7,49.3-22.9,80.2l7.4,0.8c0,0-20-28.1,19.5-79.3&#10;&#9;&#9;&#9;&#9;&#9;&#9;C814.9,252.6,850.8,239.3,850.8,239.3z" style="fill: rgb(112, 155, 53);" transform="matrix(1, 0, 0, 1, 1.4210854715202004e-13, 3.552713678800501e-14)"/><g transform="matrix(1, 0, 0, 1, 1.1368683772161603e-13, 2.842170943040401e-14)">
					<path class="st6" d="M937.9,334.2c1.8-6.6-39.6-30.2-39.6-30.2l-5.5,6.6l2.2-7.8c-36.3-11.6-63.7-3-63.7-3l-6.1,8.3l1.8-7.8&#10;&#9;&#9;&#9;&#9;&#9;&#9;c-23.1,5.3-35.6,23.7-36.3,24.8c-5.8,8.9-7.4,16.5-6.2,21.2C826.2,309.8,889.2,308.1,937.9,334.2z" style="fill: rgb(149, 202, 62);"/>
				</g><path class="st7" d="M784.5,346.3c1.2,4.8,5.4,6.5,11,3.2c11.1-6.5,56-11.4,56-11.4l0.5-8.4l2.6,8.4&#10;&#9;&#9;&#9;&#9;&#9;&#9;c12.9-1.6,32.9,0.6,45.7,1.3c12.8,0.7,35.6-1.5,37.4-4.7c0.1-0.1,0.1-0.2,0.1-0.4C889.2,308.1,826.2,309.8,784.5,346.3z" style="fill: rgb(133, 180, 56);" transform="matrix(1, 0, 0, 1, 1.4210854715202004e-13, 3.552713678800501e-14)"/><path class="st8" d="M930.7,331.8c0,0-32.5-22.3-74.6-19.4c-42.1,3-69,22.1-90.5,56.3l7,4.5c0,0,3.8-41.9,85.7-55.7&#10;&#9;&#9;&#9;&#9;&#9;&#9;C885.3,312.9,930.7,331.8,930.7,331.8z" style="fill: rgb(112, 155, 53);" transform="matrix(1, 0, 0, 1, 1.4210854715202004e-13, 3.552713678800501e-14)"/><g transform="matrix(1, 0, 0, 1, 1.1368683772161603e-13, 2.842170943040401e-14)">
					<path class="st6" d="M920.8,281.8c-0.2-6.8-46.9-17-46.9-17l-3.3,8l-0.3-8.1c-38.1-0.2-61.7,16.2-61.7,16.2l-3.3,9.7l-0.6-7.9&#10;&#9;&#9;&#9;&#9;&#9;&#9;c-20.4,12-26.8,33.3-27.2,34.5c-2.8,10.2-2.1,18,0.4,22.1C806.9,292,866.4,271.4,920.8,281.8z" style="fill: rgb(149, 202, 62);"/>
				</g><path class="st7" d="M778,339.3c2.6,4.2,7.1,4.6,11.5-0.3c8.6-9.6,50-27.7,50-27.7l-2-8.2l5,7.2c11.8-5.4,31.6-9.3,44-12.5&#10;&#9;&#9;&#9;&#9;&#9;&#9;c12.4-3.2,33.5-12.1,34.3-15.7c0-0.1,0-0.2,0-0.4C866.4,271.4,806.9,292,778,339.3z" style="fill: rgb(133, 180, 56);" transform="matrix(1, 0, 0, 1, 1.4210854715202004e-13, 3.552713678800501e-14)"/><path class="st8" d="M913.2,281.6c0,0-37.7-11.6-77,3.9c-39.3,15.4-59,41.4-69.3,80.5l9.8,3.9c0,0-10.8-42.6,63.2-80.2&#10;&#9;&#9;&#9;&#9;&#9;&#9;C864.2,277.3,913.2,281.6,913.2,281.6z" style="fill: rgb(112, 155, 53);" transform="matrix(1, 0, 0, 1, 1.4210854715202004e-13, 3.552713678800501e-14)"/><g transform="matrix(1, 0, 0, 1, 1.1368683772161603e-13, 2.842170943040401e-14)">
					<path class="st6" d="M655,385.6c-3.1-3.9,18.4-31.8,18.4-31.8l5.6,2.9l-3.7-4.7c21.4-18.2,42.5-20.2,42.5-20.2l6.5,3.9&#10;&#9;&#9;&#9;&#9;&#9;&#9;l-3.4-4.8c17.2-3,30.9,6,31.7,6.5c6.5,4.4,9.7,9.1,10.2,12.6C724,337.3,680.7,354,655,385.6z" style="fill: rgb(149, 202, 62);"/>
				</g><path class="st7" d="M762.7,350.2c0.5,3.6-1.8,6-6.6,5.3c-9.4-1.3-41.3,8.1-41.3,8.1l-2.7-5.6l0.6,6.4&#10;&#9;&#9;&#9;&#9;&#9;&#9;c-9.2,2.5-22.2,9.8-30.7,13.9c-8.5,4.1-24.6,9.1-26.8,7.4c-0.1-0.1-0.1-0.1-0.2-0.2C680.7,354,724,337.3,762.7,350.2z" style="fill: rgb(133, 180, 56);" transform="matrix(1, 0, 0, 1, 1.4210854715202004e-13, 3.552713678800501e-14)"/><path class="st8" d="M659.2,381.9c0,0,15.8-24.4,45.2-34.4c29.5-10,53.7-5.4,78,11.7l-4.3,8.9c0,0-14.3-30.4-73.8-16.5&#10;&#9;&#9;&#9;&#9;&#9;&#9;C684.7,356.2,659.2,381.9,659.2,381.9z" style="fill: rgb(112, 155, 53);" transform="matrix(1, 0, 0, 1, 1.4210854715202004e-13, 3.552713678800501e-14)"/><g transform="matrix(1, 0, 0, 1, 1.1368683772161603e-13, 2.842170943040401e-14)">
					<path class="st6" d="M610.7,329.6c-1.8-6.6,39.6-30.2,39.6-30.2l5.5,6.6l-2.2-7.8c36.3-11.6,63.7-3,63.7-3l6.1,8.3l-1.8-7.8&#10;&#9;&#9;&#9;&#9;&#9;&#9;c23.1,5.3,35.6,23.7,36.3,24.8c5.8,8.9,7.4,16.5,6.2,21.2C722.4,305.2,659.5,303.4,610.7,329.6z" style="fill: rgb(149, 202, 62);"/>
				</g><path class="st7" d="M764.1,341.7c-1.2,4.8-5.4,6.5-11,3.2c-11.1-6.5-56-11.4-56-11.4l-0.5-8.4l-2.6,8.4&#10;&#9;&#9;&#9;&#9;&#9;&#9;c-12.9-1.6-32.9,0.6-45.7,1.3c-12.8,0.7-35.6-1.5-37.4-4.7c-0.1-0.1-0.1-0.2-0.1-0.4C659.5,303.4,722.4,305.2,764.1,341.7z" style="fill: rgb(133, 180, 56);" transform="matrix(1, 0, 0, 1, 1.4210854715202004e-13, 3.552713678800501e-14)"/><path class="st8" d="M617.9,327.1c0,0,32.5-22.3,74.6-19.4c42.1,3,70.1,21.3,91.6,55.6l-10,8.8c0,0-1.9-45.6-83.8-59.3&#10;&#9;&#9;&#9;&#9;&#9;&#9;C663.4,308.3,617.9,327.1,617.9,327.1z" style="fill: rgb(112, 155, 53);" transform="matrix(1, 0, 0, 1, 1.4210854715202004e-13, 3.552713678800501e-14)"/><g transform="matrix(1, 0, 0, 1, 1.1368683772161603e-13, 2.842170943040401e-14)">
					<path class="st6" d="M629.1,274.6c0.2-6.8,46.9-17,46.9-17l3.3,8l0.3-8.1c38.1-0.2,61.7,16.2,61.7,16.2l3.3,9.7l0.6-7.9&#10;&#9;&#9;&#9;&#9;&#9;&#9;c20.4,12,26.8,33.3,27.2,34.5c2.8,10.2,2.1,18-0.4,22.1C743,284.8,683.5,264.3,629.1,274.6z" style="fill: rgb(149, 202, 62);"/>
				</g><path class="st7" d="M771.9,332.1c-2.6,4.2-7.1,4.6-11.5-0.3c-8.6-9.6-50-27.7-50-27.7l2-8.2l-5,7.2&#10;&#9;&#9;&#9;&#9;&#9;&#9;c-11.8-5.4-31.6-9.3-44-12.5c-12.4-3.2-33.5-12.1-34.3-15.7c0-0.1,0-0.2,0-0.4C683.5,264.3,743,284.8,771.9,332.1z" style="fill: rgb(133, 180, 56);" transform="matrix(1, 0, 0, 1, 1.4210854715202004e-13, 3.552713678800501e-14)"/><path class="st8" d="M636.7,274.5c0,0,37.7-11.6,77,3.9c39.3,15.4,58.5,85.8,58.5,85.8s11.8-44.1-62.2-81.7&#10;&#9;&#9;&#9;&#9;&#9;&#9;C685.7,270.1,636.7,274.5,636.7,274.5z" style="fill: rgb(112, 155, 53);" transform="matrix(1, 0, 0, 1, 1.4210854715202004e-13, 3.552713678800501e-14)"/><g transform="matrix(1, 0, 0, 1, 1.1368683772161603e-13, 2.842170943040401e-14)">
					<path class="st9" d="M775.9,358.3c0,0-44.1,96.7-32.1,287.9H701c0,0,6.7-176,69.5-287.9H775.9z" style="fill: rgb(155, 67, 43);"/>
				</g><path class="st10" d="M744.9,647.2H700l0-1c0-0.4,1.8-44.7,11.2-102.1c8.7-53,25.9-128.3,58.5-186.2l0.3-0.5h7.5l-0.6,1.4&#10;&#9;&#9;&#9;&#9;&#9;&#9;c-0.1,0.2-11.1,24.7-20.5,72.1c-8.7,43.8-17.7,116.7-11.5,215.3L744.9,647.2z M702,645.2h40.7c-6.1-98.3,2.9-171.1,11.6-214.8&#10;&#9;&#9;&#9;&#9;&#9;&#9;c8.2-41.2,17.6-65.2,20-71h-3.2c-32.2,57.6-49.3,132.4-57.9,185.1C704.6,596.7,702.4,638.2,702,645.2z" style="fill: rgb(103, 47, 21);" transform="matrix(1, 0, 0, 1, 1.4210854715202004e-13, 3.552713678800501e-14)"/><g transform="matrix(1, 0, 0, 1, 8.526512829121202e-14, 2.1316282072803006e-14)">
				<g>
					<path class="st6" d="M1264.6,539.8c2.8-2.6-9.7-25.9-9.7-25.9l-4.5,1.5l3.3-3c-13.6-16.2-29.1-20.2-29.1-20.2l-5.3,2.1l3.1-3.1&#10;&#9;&#9;&#9;&#9;&#9;&#9;c-12.4-4.3-23.7,0.7-24.4,1c-5.3,2.5-8.3,5.6-9.2,8.1C1219.2,495.4,1249.4,513.1,1264.6,539.8z" style="fill: rgb(149, 202, 62);"/>
				</g>
				<g>
					<path class="st7" d="M1188.9,500.2c-0.8,2.6,0.6,4.7,4.3,4.7c7.1,0.2,29.7,11.1,29.7,11.1l2.7-3.8l-1.2,4.7&#10;&#9;&#9;&#9;&#9;&#9;&#9;c6.5,3,15.3,10,21.1,14.1c5.8,4.1,17.2,9.8,19,8.8c0.1,0,0.1-0.1,0.2-0.1C1249.4,513.1,1219.2,495.4,1188.9,500.2z" style="fill: rgb(133, 180, 56);"/>
				</g>
				<g>
					<path class="st8" d="M1261.9,536.5c0,0-8.7-20.1-29.4-31.1c-20.7-11-39.2-10.6-59.5-0.9l0.8,5.2c0,0,15.7-19,58.2-1.3&#10;&#9;&#9;&#9;&#9;&#9;&#9;C1246.1,514.3,1261.9,536.5,1261.9,536.5z" style="fill: rgb(112, 155, 53);"/>
				</g>
			</g><g transform="matrix(1, 0, 0, 1, 1.1368683772161603e-13, 2.842170943040401e-14)">
					<path class="st6" d="M1266.4,431.7c-0.6-3.7-27-6.2-27-6.2l-1.3,4.6l-0.7-4.4c-21,2.5-32.9,13.1-32.9,13.1l-1.2,5.6l-0.9-4.3&#10;&#9;&#9;&#9;&#9;&#9;&#9;c-10.5,8-12.5,20.2-12.6,20.9c-0.9,5.8,0.1,10,1.7,12.1C1204.3,445.1,1235.7,429.7,1266.4,431.7z" style="fill: rgb(149, 202, 62);"/>
				</g><path class="st7" d="M1191.6,473.1c1.7,2.2,4.2,2,6.3-0.9c4.1-5.8,25.7-18.6,25.7-18.6l-1.7-4.4l3.3,3.6&#10;&#9;&#9;&#9;&#9;&#9;&#9;c6.1-3.8,16.8-7.3,23.4-9.9c6.6-2.6,17.6-9,17.8-11c0-0.1,0-0.1,0-0.2C1235.7,429.7,1204.3,445.1,1191.6,473.1z" style="fill: rgb(133, 180, 56);" transform="matrix(1, 0, 0, 1, 1.4210854715202004e-13, 3.552713678800501e-14)"/><path class="st8" d="M1262.2,432.2c0,0-21.6-3.8-42.2,7.4c-20.6,11.2-30.5,26.9-33.5,49.1l4.8,2.2c0,0-7.2-23.5,31-49.3&#10;&#9;&#9;&#9;&#9;&#9;&#9;C1234.9,433.1,1262.2,432.2,1262.2,432.2z" style="fill: rgb(112, 155, 53);" transform="matrix(1, 0, 0, 1, 1.4210854715202004e-13, 3.552713678800501e-14)"/><g transform="matrix(1, 0, 0, 1, 1.1368683772161603e-13, 2.842170943040401e-14)">
					<path class="st6" d="M1299.8,515.9c2.7-4-20-29.3-20-29.3l-5.2,3.3l3.2-4.8c-22-16-42.5-16.3-42.5-16.3l-6,4.2l3-4.8&#10;&#9;&#9;&#9;&#9;&#9;&#9;c-16.8-1.6-29.4,8.1-30.1,8.6c-5.9,4.7-8.7,9.5-8.9,12.9C1229.7,474.4,1272.7,487.3,1299.8,515.9z" style="fill: rgb(149, 202, 62);"/>
				</g><path class="st7" d="M1193.3,489.7c-0.3,3.5,2.2,5.6,6.8,4.6c8.9-1.9,40.4,4.8,40.4,4.8l2.2-5.6l-0.1,6.3&#10;&#9;&#9;&#9;&#9;&#9;&#9;c9.1,1.8,22.2,7.8,30.6,11.1c8.5,3.3,24.4,6.9,26.4,5.2c0.1-0.1,0.1-0.1,0.2-0.2C1272.7,487.3,1229.7,474.4,1193.3,489.7z" style="fill: rgb(133, 180, 56);" transform="matrix(1, 0, 0, 1, 1.4210854715202004e-13, 3.552713678800501e-14)"/><path class="st8" d="M1295.5,512.7c0,0-17-22.4-46.1-29.9c-29.1-7.5-51.6-0.6-73.8,17.8l3.7,4.6c0,0,12-27.5,70.5-18.4&#10;&#9;&#9;&#9;&#9;&#9;&#9;C1269,489.7,1295.5,512.7,1295.5,512.7z" style="fill: rgb(112, 155, 53);" transform="matrix(1, 0, 0, 1, 1.4210854715202004e-13, 3.552713678800501e-14)"/><g transform="matrix(1, 0, 0, 1, 1.1368683772161603e-13, 2.842170943040401e-14)">
					<path class="st6" d="M1300,476.6c1.4-4.7-27.9-22-27.9-22l-4,4.7l1.6-5.5c-25.8-8.7-45.4-2.9-45.4-2.9l-4.4,5.8l1.4-5.5&#10;&#9;&#9;&#9;&#9;&#9;&#9;c-16.5,3.5-25.6,16.5-26.1,17.2c-4.2,6.3-5.4,11.7-4.7,15C1220.6,458,1265.5,457.4,1300,476.6z" style="fill: rgb(149, 202, 62);"/>
				</g><path class="st7" d="M1190.5,483.5c0.8,3.5,3.8,4.7,7.8,2.4c8-4.5,40-7.5,40-7.5l0.5-6l1.8,6c9.2-1,23.5,0.8,32.6,1.4&#10;&#9;&#9;&#9;&#9;&#9;&#9;c9.1,0.6,25.4-0.7,26.7-2.9c0-0.1,0.1-0.2,0.1-0.3C1265.5,457.4,1220.6,458,1190.5,483.5z" style="fill: rgb(133, 180, 56);" transform="matrix(1, 0, 0, 1, 1.4210854715202004e-13, 3.552713678800501e-14)"/><path class="st8" d="M1294.9,474.8c0,0-22.9-16.3-53-14.7c-30,1.6-49.2,14.8-65,38.9l5.7,4.8c0,0,2.2-31.3,60.8-40.1&#10;&#9;&#9;&#9;&#9;&#9;&#9;C1262.7,460.9,1294.9,474.8,1294.9,474.8z" style="fill: rgb(112, 155, 53);" transform="matrix(1, 0, 0, 1, 1.4210854715202004e-13, 3.552713678800501e-14)"/><g transform="matrix(1, 0, 0, 1, 1.1368683772161603e-13, 2.842170943040401e-14)">
					<path class="st6" d="M1096.8,487.2c-1.2-3.4,19.6-17.4,19.6-17.4l3.1,3.3l-1.5-4c18.6-7.5,33.3-4.1,33.3-4.1l3.5,4.1l-1.2-4&#10;&#9;&#9;&#9;&#9;&#9;&#9;c12.3,1.9,19.6,11,20,11.5c3.4,4.4,4.5,8.4,4.1,10.8C1154.4,470,1121.3,471.6,1096.8,487.2z" style="fill: rgb(149, 202, 62);"/>
				</g><path class="st7" d="M1177.7,487.5c-0.5,2.6-2.6,3.6-5.7,2.1c-6-3-29.8-3.8-29.8-3.8l-0.6-4.4l-1.1,4.5&#10;&#9;&#9;&#9;&#9;&#9;&#9;c-6.8-0.3-17.2,1.6-23.9,2.5c-6.7,0.9-18.7,0.6-19.8-1c0-0.1-0.1-0.1-0.1-0.2C1121.3,471.6,1154.4,470,1177.7,487.5z" style="fill: rgb(133, 180, 56);" transform="matrix(1, 0, 0, 1, 1.4210854715202004e-13, 3.552713678800501e-14)"/><path class="st8" d="M1100.5,485.6c0,0,16.2-13,38.3-13.1s37.5,8.4,50.2,25.5l-4.9,5c0,0-2.8-23.8-46.2-27.7&#10;&#9;&#9;&#9;&#9;&#9;&#9;C1123.6,474,1100.5,485.6,1100.5,485.6z" style="fill: rgb(112, 155, 53);" transform="matrix(1, 0, 0, 1, 1.4210854715202004e-13, 3.552713678800501e-14)"/><g transform="matrix(1, 0, 0, 1, 1.1368683772161603e-13, 2.842170943040401e-14)">
					<path class="st6" d="M1079.5,439.4c0.2-4.9,33.6-11.6,33.6-11.6l2.2,5.7l0.3-5.8c27.2,0.3,43.8,12.3,43.8,12.3l2.3,7l0.5-5.6&#10;&#9;&#9;&#9;&#9;&#9;&#9;c14.4,8.8,18.8,24.1,19,24.9c1.9,7.3,1.3,12.8-0.6,15.7C1160.5,447.9,1118.3,432.6,1079.5,439.4z" style="fill: rgb(149, 202, 62);"/>
				</g><path class="st7" d="M1180.6,482c-1.9,3-5.1,3.2-8.2-0.3c-6-6.9-35.3-20.3-35.3-20.3l1.5-5.8l-3.7,5.1c-8.3-4-22.4-7-31.2-9.4&#10;&#9;&#9;&#9;&#9;&#9;&#9;c-8.8-2.4-23.7-9-24.3-11.6c0-0.1,0-0.2,0-0.3C1118.3,432.6,1160.5,447.9,1180.6,482z" style="fill: rgb(133, 180, 56);" transform="matrix(1, 0, 0, 1, 1.4210854715202004e-13, 3.552713678800501e-14)"/><path class="st8" d="M1084.9,439.3c0,0,27-7.8,54.8,3.6c27.8,11.4,42.6,30.2,49.5,58.1l-8.8,3.7c0,0,8.9-31.3-43.4-58.9&#10;&#9;&#9;&#9;&#9;&#9;&#9;C1119.9,436.8,1084.9,439.3,1084.9,439.3z" style="fill: rgb(112, 155, 53);" transform="matrix(1, 0, 0, 1, 1.4210854715202004e-13, 3.552713678800501e-14)"/><g transform="matrix(1, 0, 0, 1, 1.1368683772161603e-13, 2.842170943040401e-14)">
					<path class="st6" d="M1104.3,406.3c1.7-4.6,35.5-1,35.5-1l0.4,6.1l2-5.4c25.9,8.4,38.1,24.8,38.1,24.8l0.1,7.3l2.2-5.2&#10;&#9;&#9;&#9;&#9;&#9;&#9;c11.1,12.7,10.7,28.6,10.6,29.4c-0.4,7.6-2.6,12.6-5.2,14.8C1179,438.8,1143.4,411.5,1104.3,406.3z" style="fill: rgb(149, 202, 62);"/>
				</g><path class="st7" d="M1188,477.3c-2.7,2.3-5.8,1.5-7.7-2.8c-3.7-8.4-27.6-29.9-27.6-29.9l3.2-5.1l-5,3.7&#10;&#9;&#9;&#9;&#9;&#9;&#9;c-6.8-6.3-19.3-13.4-27-18.3c-7.7-4.9-19.9-15.7-19.7-18.3c0-0.1,0.1-0.2,0.1-0.3C1143.4,411.5,1179,438.8,1188,477.3z" style="fill: rgb(133, 180, 56);" transform="matrix(1, 0, 0, 1, 1.4210854715202004e-13, 3.552713678800501e-14)"/><path class="st8" d="M1109.4,407.9c0,0,28.1,0.6,51.2,19.9c23.1,19.3,20.3,71.2,20.3,71.2s17.9-27.2-23.7-69.2&#10;&#9;&#9;&#9;&#9;&#9;&#9;C1143.6,416,1109.4,407.9,1109.4,407.9z" style="fill: rgb(112, 155, 53);" transform="matrix(1, 0, 0, 1, 1.4210854715202004e-13, 3.552713678800501e-14)"/><g transform="matrix(1, 0, 0, 1, 1.1368683772161603e-13, 2.842170943040401e-14)">
					<path class="st9" d="M1184.8,495.9c0,0-51.6,55.5-86.3,187.6l-29-9.6c0,0,44-117.5,111.7-179.2L1184.8,495.9z" style="fill: rgb(155, 67, 43);"/>
				</g><path class="st10" d="M1099.1,684.7l-30.9-10.3l0.4-1c0.4-1.2,44.9-118.5,111.9-179.6l0.4-0.4l5.7,1.9l-1.1,1.1&#10;&#9;&#9;&#9;&#9;&#9;&#9;c-0.5,0.6-51.8,56.9-86.1,187.1L1099.1,684.7z M1070.8,673.2l26.9,8.9c31.8-119.9,77.9-177.2,85.3-185.8l-1.6-0.5&#10;&#9;&#9;&#9;&#9;&#9;&#9;C1118.2,553.7,1075.2,661.8,1070.8,673.2z" style="fill: rgb(103, 47, 21);" transform="matrix(1, 0, 0, 1, 1.4210854715202004e-13, 3.552713678800501e-14)"/><g transform="matrix(1, 0, 0, 1, 8.526512829121202e-14, 2.1316282072803006e-14)">
				<g>
					<path class="st6" d="M956.5,437.3c-1.9-3.6,16.8-24.3,16.8-24.3l3.9,3l-2.3-4.3c17.8-12.8,33.7-12.1,33.7-12.1l4.5,3.9&#10;&#9;&#9;&#9;&#9;&#9;&#9;l-2.1-4.3c13.1-0.6,22.5,8.3,23,8.8c4.4,4.3,6.4,8.6,6.4,11.6C1012.8,404.8,978.8,414,956.5,437.3z" style="fill: rgb(149, 202, 62);"/>
				</g>
				<g>
					<path class="st7" d="M1040.4,419.7c0,3.1-2,4.7-5.5,3.7c-6.9-2.1-31.6,2.3-31.6,2.3l-1.5-4.9l-0.2,5.4&#10;&#9;&#9;&#9;&#9;&#9;&#9;c-7.1,1.1-17.6,5.7-24.3,8.1c-6.7,2.5-19.3,4.8-20.7,3.2c0-0.1-0.1-0.1-0.1-0.2C978.8,414,1012.8,404.8,1040.4,419.7z" style="fill: rgb(133, 180, 56);"/>
				</g>
				<g>
					<path class="st8" d="M960,434.7c0,0,14.2-18.5,37.1-23.5c23-5,40.6,1.3,57.1,18.2l-2.3,5.3c0,0-9.5-25.1-55.3-20.1&#10;&#9;&#9;&#9;&#9;&#9;&#9;C981.6,416.2,960,434.7,960,434.7z" style="fill: rgb(112, 155, 53);"/>
				</g>
			</g><g transform="matrix(1, 0, 0, 1, 1.1368683772161603e-13, 2.842170943040401e-14)">
					<path class="st6" d="M986.2,322.3c1.6-3.8,27.6,2.1,27.6,2.1l-0.1,5.3l1.9-4.5c19.4,9.4,27.7,24.5,27.7,24.5l-0.5,6.3l2.1-4.3&#10;&#9;&#9;&#9;&#9;&#9;&#9;c7.7,11.8,6.1,25.4,6,26.2c-0.9,6.5-3,10.6-5.2,12.3C1041.6,356.4,1016.1,330,986.2,322.3z" style="fill: rgb(149, 202, 62);"/>
				</g><path class="st7" d="M1045.7,390.1c-2.3,1.7-4.6,0.8-5.8-3c-2.2-7.5-19.1-28-19.1-28l2.9-4.1l-4.2,2.8&#10;&#9;&#9;&#9;&#9;&#9;&#9;c-4.8-6-13.9-13.1-19.5-18c-5.6-4.9-14.3-15.1-13.9-17.4c0-0.1,0.1-0.1,0.1-0.2C1016.1,330,1041.6,356.4,1045.7,390.1z" style="fill: rgb(133, 180, 56);" transform="matrix(1, 0, 0, 1, 1.4210854715202004e-13, 3.552713678800501e-14)"/><path class="st8" d="M990.1,324.1c0,0,21.7,2.9,38.2,21.3c16.5,18.4,21.4,38.3,17.8,62.8l-5.2,0.8c0,0,13.7-22.6-15.4-62.2&#10;&#9;&#9;&#9;&#9;&#9;&#9;C1015.9,333.8,990.1,324.1,990.1,324.1z" style="fill: rgb(112, 155, 53);" transform="matrix(1, 0, 0, 1, 1.4210854715202004e-13, 3.552713678800501e-14)"/><g transform="matrix(1, 0, 0, 1, 1.1368683772161603e-13, 2.842170943040401e-14)">
					<path class="st6" d="M929.8,400.7c-1.4-5.1,27.7-24.6,27.7-24.6l4,5.1l-1.7-6.1c25.7-9.9,45.3-3.7,45.3-3.7l4.5,6.4l-1.4-6.1&#10;&#9;&#9;&#9;&#9;&#9;&#9;c16.5,3.7,25.8,18,26.3,18.8c4.3,6.9,5.5,12.9,4.8,16.6C1008.9,379.2,964,379.1,929.8,400.7z" style="fill: rgb(149, 202, 62);"/>
				</g><path class="st7" d="M1039.2,407.2c-0.8,3.8-3.7,5.2-7.8,2.7c-8-4.9-40.1-7.9-40.1-7.9l-0.5-6.6l-1.7,6.7&#10;&#9;&#9;&#9;&#9;&#9;&#9;c-9.2-1-23.5,1.1-32.5,1.9c-9.1,0.8-25.4-0.5-26.7-3c0-0.1-0.1-0.2-0.1-0.3C964,379.1,1008.9,379.2,1039.2,407.2z" style="fill: rgb(133, 180, 56);" transform="matrix(1, 0, 0, 1, 1.4210854715202004e-13, 3.552713678800501e-14)"/><path class="st8" d="M934.8,398.6c0,0,22.8-18.3,52.8-16.8c30,1.5,49.5,16,65.5,42.5l-4.9,3.7c0,0-3.5-33-62.1-42.2&#10;&#9;&#9;&#9;&#9;&#9;&#9;C966.9,382.9,934.8,398.6,934.8,398.6z" style="fill: rgb(112, 155, 53);" transform="matrix(1, 0, 0, 1, 1.4210854715202004e-13, 3.552713678800501e-14)"/><g transform="matrix(1, 0, 0, 1, 1.1368683772161603e-13, 2.842170943040401e-14)">
					<path class="st6" d="M941,359c0-5.4,33.1-14.3,33.1-14.3l2.5,6.2l0-6.4c27.2-1,44.3,11.5,44.3,11.5l2.5,7.6l0.3-6.3&#10;&#9;&#9;&#9;&#9;&#9;&#9;c14.8,9,19.7,25.7,20,26.7c2.2,8,1.8,14.1,0.1,17.4C1022.3,364.8,979.5,349.8,941,359z" style="fill: rgb(149, 202, 62);"/>
				</g><path class="st7" d="M1043.7,401.5c-1.8,3.4-5,3.7-8.2,0c-6.3-7.4-36.1-20.8-36.1-20.8l1.3-6.5l-3.5,5.8&#10;&#9;&#9;&#9;&#9;&#9;&#9;c-8.5-4-22.7-6.7-31.6-8.9c-8.9-2.2-24.1-8.9-24.7-11.7c0-0.1,0-0.2,0-0.3C979.5,349.8,1022.3,364.8,1043.7,401.5z" style="fill: rgb(133, 180, 56);" transform="matrix(1, 0, 0, 1, 1.4210854715202004e-13, 3.552713678800501e-14)"/><path class="st8" d="M946.4,358.7c0,0,26.7-9.9,54.9,1.5c28.3,11.4,42.8,31.5,50.8,62.1l-6.9,3.3c0,0,6.9-33.8-46.5-62&#10;&#9;&#9;&#9;&#9;&#9;&#9;C981.2,354.3,946.4,358.7,946.4,358.7z" style="fill: rgb(112, 155, 53);" transform="matrix(1, 0, 0, 1, 1.4210854715202004e-13, 3.552713678800501e-14)"/><g transform="matrix(1, 0, 0, 1, 1.1368683772161603e-13, 2.842170943040401e-14)">
					<path class="st6" d="M1132.2,435.5c2.1-3.2-13.7-24.7-13.7-24.7l-4,2.4l2.5-3.8c-15.6-14-30.6-15-30.6-15l-4.6,3.2l2.3-3.8&#10;&#9;&#9;&#9;&#9;&#9;&#9;c-12.3-2-21.9,5.4-22.5,5.8c-4.5,3.6-6.7,7.4-7,10.2C1082.1,398.8,1113.3,411.1,1132.2,435.5z" style="fill: rgb(149, 202, 62);"/>
				</g><path class="st7" d="M1054.8,409.8c-0.3,2.9,1.4,4.7,4.8,4c6.7-1.2,29.6,5.6,29.6,5.6l1.8-4.4l-0.3,5.1&#10;&#9;&#9;&#9;&#9;&#9;&#9;c6.6,1.8,16,7.2,22.1,10.3c6.1,3.1,17.7,6.6,19.2,5.3c0.1,0,0.1-0.1,0.1-0.2C1113.3,411.1,1082.1,398.8,1054.8,409.8z" style="fill: rgb(133, 180, 56);" transform="matrix(1, 0, 0, 1, 1.4210854715202004e-13, 3.552713678800501e-14)"/><path class="st8" d="M1129.1,432.7c0,0-11.7-18.9-32.8-26.2c-21.2-7.3-38.3-3.2-55.4,10.8l3.2,6.9c0,0,9.6-24.3,52.3-14.5&#10;&#9;&#9;&#9;&#9;&#9;&#9;C1110.5,412.9,1129.1,432.7,1129.1,432.7z" style="fill: rgb(112, 155, 53);" transform="matrix(1, 0, 0, 1, 1.4210854715202004e-13, 3.552713678800501e-14)"/><g transform="matrix(1, 0, 0, 1, 1.1368683772161603e-13, 2.842170943040401e-14)">
					<path class="st6" d="M1162.7,390.4c1.2-5.2-28.8-23-28.8-23l-3.8,5.3l1.4-6.2c-26.1-8.4-45.5-1.1-45.5-1.1l-4.2,6.7l1.1-6.2&#10;&#9;&#9;&#9;&#9;&#9;&#9;c-16.3,4.6-24.9,19.5-25.4,20.3c-4,7.1-4.9,13.2-4,16.8C1082.7,373.5,1127.5,370.8,1162.7,390.4z" style="fill: rgb(149, 202, 62);"/>
				</g><path class="st7" d="M1053.7,403.1c1,3.8,4,5,7.9,2.3c7.8-5.4,39.7-10.2,39.7-10.2l0.2-6.6l2,6.6c9.1-1.5,23.5-0.2,32.6,0.1&#10;&#9;&#9;&#9;&#9;&#9;&#9;c9.1,0.3,25.3-1.9,26.6-4.5c0-0.1,0.1-0.2,0.1-0.3C1127.5,370.8,1082.7,373.5,1053.7,403.1z" style="fill: rgb(133, 180, 56);" transform="matrix(1, 0, 0, 1, 1.4210854715202004e-13, 3.552713678800501e-14)"/><path class="st8" d="M1157.5,388.6c0,0-23.6-16.9-53.5-13.8c-29.9,3.2-49.5,18.3-64.2,45.7l7.3,6.8c0,0,0.5-36,58.6-48.5&#10;&#9;&#9;&#9;&#9;&#9;&#9;C1124.8,374.7,1157.5,388.6,1157.5,388.6z" style="fill: rgb(112, 155, 53);" transform="matrix(1, 0, 0, 1, 1.4210854715202004e-13, 3.552713678800501e-14)"/><g transform="matrix(1, 0, 0, 1, 1.1368683772161603e-13, 2.842170943040401e-14)">
					<path class="st6" d="M1148.6,347.5c-0.3-5.4-33.7-12.4-33.7-12.4l-2.2,6.4l-0.3-6.4c-27.2,0.6-43.7,14-43.7,14l-2.2,7.7&#10;&#9;&#9;&#9;&#9;&#9;&#9;l-0.6-6.2c-14.3,9.9-18.5,26.8-18.7,27.8c-1.8,8.1-1.2,14.2,0.7,17.4C1067.6,357.8,1109.7,340.4,1148.6,347.5z" style="fill: rgb(149, 202, 62);"/>
				</g><path class="st7" d="M1047.9,395.7c1.9,3.3,5.2,3.5,8.2-0.5c5.9-7.7,35.1-22.8,35.1-22.8l-1.6-6.4l3.7,5.6&#10;&#9;&#9;&#9;&#9;&#9;&#9;c8.3-4.5,22.3-8,31.1-10.7c8.8-2.7,23.6-10.2,24.1-13.1c0-0.1,0-0.2,0-0.3C1109.7,340.4,1067.6,357.8,1047.9,395.7z" style="fill: rgb(133, 180, 56);" transform="matrix(1, 0, 0, 1, 1.4210854715202004e-13, 3.552713678800501e-14)"/><path class="st8" d="M1143.2,347.5c0,0-27.1-8.3-54.8,4.6c-27.7,13-40.1,68.9-40.1,68.9s-9.2-34.5,42.8-65.7&#10;&#9;&#9;&#9;&#9;&#9;&#9;C1108.2,345,1143.2,347.5,1143.2,347.5z" style="fill: rgb(112, 155, 53);" transform="matrix(1, 0, 0, 1, 1.4210854715202004e-13, 3.552713678800501e-14)"/><g transform="matrix(1, 0, 0, 1, 1.1368683772161603e-13, 2.842170943040401e-14)">
					<path class="st9" d="M1045.6,416.4c0,0,29,106.3,23.9,257.4l29,9.6c0,0-2.2-180.1-49-267.1L1045.6,416.4z" style="fill: rgb(155, 67, 43);"/>
				</g><path class="st10" d="M1099.5,684.8l-31-10.3l0-0.7c5-149.2-23.6-256-23.9-257.1l-0.3-1.2l5.7-0.2l0.3,0.5&#10;&#9;&#9;&#9;&#9;&#9;&#9;c46.4,86.2,49.1,265.8,49.2,267.6L1099.5,684.8z M1070.5,673.1l26.9,8.9c-0.4-17-4.9-182.7-48.6-264.7l-1.9,0.1&#10;&#9;&#9;&#9;&#9;&#9;&#9;C1050,429.7,1075.1,532.6,1070.5,673.1z" style="fill: rgb(103, 47, 21);" transform="matrix(1, 0, 0, 1, 1.4210854715202004e-13, 3.552713678800501e-14)"/><g transform="matrix(1, 0, 0, 1, 8.526512829121202e-14, 2.1316282072803006e-14)">
				<g>
					<path class="st6" d="M166.1,570.9c-2.5-2.3,8.6-22.9,8.6-22.9l4,1.3l-2.9-2.7c12-14.3,25.7-17.9,25.7-17.9l4.7,1.9l-2.8-2.8&#10;&#9;&#9;&#9;&#9;&#9;&#9;c11-3.8,21,0.6,21.5,0.8c4.7,2.2,7.4,4.9,8.1,7.2C206.1,531.7,179.5,547.3,166.1,570.9z" style="fill: rgb(149, 202, 62);"/>
				</g>
				<g>
					<path class="st7" d="M233,536c0.7,2.3-0.6,4.1-3.8,4.2c-6.3,0.2-26.2,9.8-26.2,9.8l-2.4-3.3l1.1,4.2&#10;&#9;&#9;&#9;&#9;&#9;&#9;c-5.8,2.7-13.5,8.8-18.6,12.4c-5.1,3.6-15.2,8.6-16.8,7.8c-0.1,0-0.1-0.1-0.1-0.1C179.5,547.3,206.1,531.7,233,536z" style="fill: rgb(133, 180, 56);"/>
				</g>
				<g>
					<path class="st8" d="M168.5,568c0,0,7.7-17.7,25.9-27.5c18.3-9.7,34.7-9.4,52.5-0.8l-0.7,4.6c0,0-13.8-16.8-51.4-1.1&#10;&#9;&#9;&#9;&#9;&#9;&#9;C182.4,548.4,168.5,568,168.5,568z" style="fill: rgb(112, 155, 53);"/>
				</g>
			</g><g transform="matrix(1, 0, 0, 1, 1.1368683772161603e-13, 2.842170943040401e-14)">
					<path class="st6" d="M164.5,475.5c0.5-3.3,23.8-5.4,23.8-5.4l1.1,4.1l0.6-3.9c18.6,2.2,29.1,11.6,29.1,11.6l1,4.9l0.8-3.8&#10;&#9;&#9;&#9;&#9;&#9;&#9;c9.2,7,11.1,17.8,11.2,18.4c0.8,5.1-0.1,8.9-1.5,10.7C219.3,487.3,191.6,473.7,164.5,475.5z" style="fill: rgb(149, 202, 62);"/>
				</g><path class="st7" d="M230.5,512c-1.5,1.9-3.7,1.8-5.6-0.8c-3.6-5.2-22.7-16.5-22.7-16.5l1.5-3.8l-2.9,3.2&#10;&#9;&#9;&#9;&#9;&#9;&#9;c-5.4-3.3-14.8-6.4-20.7-8.7c-5.8-2.3-15.6-7.9-15.7-9.7c0-0.1,0-0.1,0-0.2C191.6,473.7,219.3,487.3,230.5,512z" style="fill: rgb(133, 180, 56);" transform="matrix(1, 0, 0, 1, 1.4210854715202004e-13, 3.552713678800501e-14)"/><path class="st8" d="M168.2,475.9c0,0,19-3.4,37.2,6.5c18.2,9.9,26.9,23.7,29.6,43.4l-4.2,1.9c0,0,6.4-20.8-27.4-43.5&#10;&#9;&#9;&#9;&#9;&#9;&#9;C192.3,476.7,168.2,475.9,168.2,475.9z" style="fill: rgb(112, 155, 53);" transform="matrix(1, 0, 0, 1, 1.4210854715202004e-13, 3.552713678800501e-14)"/><g transform="matrix(1, 0, 0, 1, 1.1368683772161603e-13, 2.842170943040401e-14)">
					<path class="st6" d="M135,549.8c-2.4-3.6,17.7-25.9,17.7-25.9l4.6,2.9l-2.8-4.2c19.4-14.2,37.5-14.4,37.5-14.4l5.3,3.8&#10;&#9;&#9;&#9;&#9;&#9;&#9;l-2.6-4.3c14.8-1.4,26,7.1,26.6,7.6c5.2,4.2,7.7,8.4,7.9,11.4C196.9,513.1,159,524.5,135,549.8z" style="fill: rgb(149, 202, 62);"/>
				</g><path class="st7" d="M229.1,526.6c0.2,3.1-2,5-6,4.1c-7.9-1.7-35.7,4.3-35.7,4.3l-2-4.9l0.1,5.5c-8,1.6-19.6,6.9-27.1,9.8&#10;&#9;&#9;&#9;&#9;&#9;&#9;c-7.5,2.9-21.6,6.1-23.3,4.6c-0.1-0.1-0.1-0.1-0.1-0.2C159,524.5,196.9,513.1,229.1,526.6z" style="fill: rgb(133, 180, 56);" transform="matrix(1, 0, 0, 1, 1.4210854715202004e-13, 3.552713678800501e-14)"/><path class="st8" d="M138.8,546.9c0,0,15-19.8,40.7-26.4c25.7-6.6,45.6-0.5,65.2,15.7l-3.3,4.1c0,0-10.6-24.3-62.2-16.3&#10;&#9;&#9;&#9;&#9;&#9;&#9;C162.2,526.7,138.8,546.9,138.8,546.9z" style="fill: rgb(112, 155, 53);" transform="matrix(1, 0, 0, 1, 1.4210854715202004e-13, 3.552713678800501e-14)"/><g transform="matrix(1, 0, 0, 1, 1.1368683772161603e-13, 2.842170943040401e-14)">
					<path class="st6" d="M134.9,515.1c-1.2-4.1,24.6-19.4,24.6-19.4l3.5,4.1l-1.5-4.9c22.7-7.7,40.1-2.5,40.1-2.5l3.9,5.2l-1.2-4.9&#10;&#9;&#9;&#9;&#9;&#9;&#9;c14.6,3.1,22.6,14.6,23.1,15.2c3.7,5.5,4.8,10.3,4.1,13.3C204.9,498.6,165.3,498.2,134.9,515.1z" style="fill: rgb(149, 202, 62);"/>
				</g><path class="st7" d="M231.5,521.2c-0.7,3-3.3,4.1-6.9,2.1c-7-4-35.3-6.6-35.3-6.6l-0.4-5.3l-1.6,5.3&#10;&#9;&#9;&#9;&#9;&#9;&#9;c-8.1-0.9-20.7,0.7-28.8,1.3c-8,0.6-22.4-0.6-23.6-2.6c0-0.1-0.1-0.1-0.1-0.2C165.3,498.2,204.9,498.6,231.5,521.2z" style="fill: rgb(133, 180, 56);" transform="matrix(1, 0, 0, 1, 1.4210854715202004e-13, 3.552713678800501e-14)"/><path class="st8" d="M139.4,513.5c0,0,20.2-14.4,46.8-12.9c26.5,1.4,43.5,13,57.4,34.3l-5.1,4.3c0,0-2-27.6-53.6-35.4&#10;&#9;&#9;&#9;&#9;&#9;&#9;C167.8,501.2,139.4,513.5,139.4,513.5z" style="fill: rgb(112, 155, 53);" transform="matrix(1, 0, 0, 1, 1.4210854715202004e-13, 3.552713678800501e-14)"/><g transform="matrix(1, 0, 0, 1, 1.1368683772161603e-13, 2.842170943040401e-14)">
					<path class="st6" d="M314.2,524.5c1.1-3-17.3-15.4-17.3-15.4l-2.8,2.9l1.3-3.5c-16.4-6.7-29.4-3.6-29.4-3.6l-3.1,3.6l1.1-3.5&#10;&#9;&#9;&#9;&#9;&#9;&#9;c-10.9,1.6-17.3,9.7-17.6,10.2c-3,3.9-4,7.4-3.6,9.6C263.4,509.3,292.6,510.6,314.2,524.5z" style="fill: rgb(149, 202, 62);"/>
				</g><path class="st7" d="M242.8,524.7c0.4,2.3,2.3,3.2,5,1.9c5.3-2.6,26.3-3.3,26.3-3.3l0.5-3.9l0.9,4c6-0.3,15.2,1.4,21.1,2.2&#10;&#9;&#9;&#9;&#9;&#9;&#9;c5.9,0.8,16.5,0.5,17.5-0.9c0,0,0-0.1,0.1-0.2C292.6,510.6,263.4,509.3,242.8,524.7z" style="fill: rgb(133, 180, 56);" transform="matrix(1, 0, 0, 1, 1.4210854715202004e-13, 3.552713678800501e-14)"/><path class="st8" d="M311,523.1c0,0-14.3-11.5-33.8-11.6c-19.6-0.1-33.2,7.4-44.3,22.5l4.3,4.4c0,0,2.5-21,40.8-24.5&#10;&#9;&#9;&#9;&#9;&#9;&#9;C290.6,512.8,311,523.1,311,523.1z" style="fill: rgb(112, 155, 53);" transform="matrix(1, 0, 0, 1, 1.4210854715202004e-13, 3.552713678800501e-14)"/><g transform="matrix(1, 0, 0, 1, 1.1368683772161603e-13, 2.842170943040401e-14)">
					<path class="st6" d="M329.6,482.2c-0.2-4.3-29.7-10.2-29.7-10.2l-2,5.1l-0.2-5.1c-24,0.2-38.7,10.8-38.7,10.8l-2,6.2l-0.5-5&#10;&#9;&#9;&#9;&#9;&#9;&#9;c-12.7,7.7-16.6,21.2-16.8,22c-1.7,6.5-1.1,11.3,0.5,13.9C258,489.8,295.2,476.2,329.6,482.2z" style="fill: rgb(149, 202, 62);"/>
				</g><path class="st7" d="M240.3,519.8c1.7,2.6,4.5,2.8,7.2-0.3c5.3-6.1,31.2-17.9,31.2-17.9l-1.3-5.1l3.2,4.5&#10;&#9;&#9;&#9;&#9;&#9;&#9;c7.4-3.5,19.8-6.2,27.6-8.3c7.8-2.1,20.9-8,21.4-10.2c0-0.1,0-0.2,0-0.2C295.2,476.2,258,489.8,240.3,519.8z" style="fill: rgb(133, 180, 56);" transform="matrix(1, 0, 0, 1, 1.4210854715202004e-13, 3.552713678800501e-14)"/><path class="st8" d="M324.8,482.2c0,0-23.9-6.9-48.4,3.2c-24.6,10.1-37.6,26.6-43.7,51.3l7.7,3.3c0,0-7.9-27.6,38.3-52&#10;&#9;&#9;&#9;&#9;&#9;&#9;C293.9,479.9,324.8,482.2,324.8,482.2z" style="fill: rgb(112, 155, 53);" transform="matrix(1, 0, 0, 1, 1.4210854715202004e-13, 3.552713678800501e-14)"/><g transform="matrix(1, 0, 0, 1, 1.1368683772161603e-13, 2.842170943040401e-14)">
					<path class="st6" d="M307.7,453c-1.5-4-31.4-0.9-31.4-0.9l-0.4,5.4l-1.8-4.8c-22.8,7.4-33.7,21.9-33.7,21.9l-0.1,6.5l-1.9-4.6&#10;&#9;&#9;&#9;&#9;&#9;&#9;c-9.8,11.2-9.4,25.2-9.4,26c0.3,6.7,2.3,11.1,4.6,13.1C241.6,481.7,273.1,457.6,307.7,453z" style="fill: rgb(149, 202, 62);"/>
				</g><path class="st7" d="M233.8,515.7c2.4,2,5.2,1.3,6.8-2.4c3.2-7.4,24.4-26.4,24.4-26.4l-2.8-4.5l4.4,3.3&#10;&#9;&#9;&#9;&#9;&#9;&#9;c6-5.6,17-11.8,23.8-16.2c6.8-4.3,17.6-13.9,17.4-16.2c0-0.1,0-0.1-0.1-0.2C273.1,457.6,241.6,481.7,233.8,515.7z" style="fill: rgb(133, 180, 56);" transform="matrix(1, 0, 0, 1, 1.4210854715202004e-13, 3.552713678800501e-14)"/><path class="st8" d="M303.1,454.4c0,0-24.8,0.6-45.2,17.6c-20.4,17-18,62.9-18,62.9s-15.8-24,21-61.1&#10;&#9;&#9;&#9;&#9;&#9;&#9;C273,461.5,303.1,454.4,303.1,454.4z" style="fill: rgb(112, 155, 53);" transform="matrix(1, 0, 0, 1, 1.4210854715202004e-13, 3.552713678800501e-14)"/><g transform="matrix(1, 0, 0, 1, 1.1368683772161603e-13, 2.842170943040401e-14)">
					<path class="st9" d="M236.6,532.1c0,0,45.5,49,76.2,165.6l25.6-8.5c0,0-38.9-103.8-98.6-158.2L236.6,532.1z" style="fill: rgb(155, 67, 43);"/>
				</g><path class="st10" d="M312.1,699l-0.3-1c-30.3-115-75.5-164.7-76-165.2l-1.1-1.1l5.2-1.7l0.4,0.4&#10;&#9;&#9;&#9;&#9;&#9;&#9;c59.2,54,98.5,157.6,98.9,158.6l0.4,1L312.1,699z M238.3,532.6c6.9,8.1,47.3,58.6,75.2,163.9l23.6-7.8&#10;&#9;&#9;&#9;&#9;&#9;&#9;c-4.1-10.6-42-105.5-97.5-156.5L238.3,532.6z" style="fill: rgb(103, 47, 21);" transform="matrix(1, 0, 0, 1, 1.4210854715202004e-13, 3.552713678800501e-14)"/><g transform="matrix(1, 0, 0, 1, 8.526512829121202e-14, 2.1316282072803006e-14)">
				<path class="st3" d="M721.8,608.5c-4.4,0-8.6,1.3-12.1,3.5c0.1-1,0.2-2.1,0.2-3.1c0-15.5-12.5-28-28-28&#10;&#9;&#9;&#9;&#9;&#9;c-5.6,0-10.7,1.6-15.1,4.4c-7.4-5.4-16.5-8.6-26.3-8.6c-23.9,0-43.4,18.7-44.7,42.4c-0.1,0-0.2,0-0.4,0c-9.8,0-17.8,8-17.8,17.8&#10;&#9;&#9;&#9;&#9;&#9;s8,17.8,17.8,17.8c4.2,0,8.1-1.5,11.1-3.9c8.2,9.5,20.4,15.6,33.9,15.6c12,0,22.9-4.7,31-12.5c4.5,3.8,10.3,6,16.7,6&#10;&#9;&#9;&#9;&#9;&#9;c8.4,0,15.8-3.9,20.6-10.1c3.7,2.6,8.2,4.2,13.1,4.2c12.6,0,22.7-10.2,22.7-22.7C744.5,618.7,734.3,608.5,721.8,608.5z" style="fill: rgb(113, 201, 79);"/>
			</g><path class="st11" d="M640.4,667.3c-13,0-25.4-5.5-34.1-15.2c-3.2,2.3-7,3.6-11,3.6c-10.4,0-18.8-8.4-18.8-18.8&#10;&#9;&#9;&#9;&#9;&#9;c0-10.2,8.1-18.5,18.2-18.8c1.8-23.8,21.6-42.3,45.6-42.3c9.5,0,18.6,2.9,26.4,8.4c4.5-2.8,9.7-4.2,15.1-4.2c16,0,29,13,29,29&#10;&#9;&#9;&#9;&#9;&#9;c0,0.4,0,0.9,0,1.3c3.4-1.8,7.1-2.7,10.9-2.7c13.1,0,23.7,10.6,23.7,23.7c0,13.1-10.6,23.7-23.7,23.7c-4.6,0-9.1-1.3-12.9-3.8&#10;&#9;&#9;&#9;&#9;&#9;c-5.2,6.2-12.7,9.7-20.8,9.7c-6,0-11.9-2-16.6-5.7C663,663,652,667.3,640.4,667.3z M606.6,649.4l0.6,0.7&#10;&#9;&#9;&#9;&#9;&#9;c8.3,9.7,20.4,15.2,33.2,15.2c11.3,0,22.1-4.3,30.3-12.2l0.6-0.6l0.7,0.6c4.5,3.7,10.2,5.8,16,5.8c7.8,0,15-3.5,19.8-9.7&#10;&#9;&#9;&#9;&#9;&#9;l0.6-0.8l0.8,0.6c3.7,2.6,8,4,12.6,4c12,0,21.7-9.8,21.7-21.7c0-12-9.8-21.7-21.7-21.7c-4.1,0-8.1,1.2-11.6,3.3l-1.8,1.1&#10;&#9;&#9;&#9;&#9;&#9;l0.2-2.1c0.1-1,0.2-2,0.2-3c0-14.9-12.1-27-27-27c-5.2,0-10.2,1.5-14.6,4.3l-0.6,0.4l-0.6-0.4c-7.5-5.5-16.4-8.4-25.8-8.4&#10;&#9;&#9;&#9;&#9;&#9;c-23.3,0-42.5,18.2-43.7,41.4l-0.1,1l-1,0c-0.1,0-0.1,0-0.2,0l-0.1,0c-9.3,0-16.8,7.5-16.8,16.8c0,9.3,7.5,16.8,16.8,16.8&#10;&#9;&#9;&#9;&#9;&#9;c3.9,0,7.5-1.3,10.5-3.7L606.6,649.4z" style="fill: rgb(57, 169, 67);" transform="matrix(1, 0, 0, 1, 1.1368683772161603e-13, 2.842170943040401e-14)"/><g transform="matrix(1, 0, 0, 1, 8.526512829121202e-14, 2.1316282072803006e-14)">
				<path class="st3" d="M369.2,655.2c-2.1,0-4,0.3-5.9,0.8c0.6-1.6,0.9-3.4,0.9-5.2c0-8.5-6.9-15.5-15.5-15.5&#10;&#9;&#9;&#9;&#9;&#9;c-6.3,0-11.7,3.8-14.1,9.2c-1.6-0.3-3.2-0.4-4.8-0.4c-15.7,0-28.6,11.9-30.3,27.1c-8.8,1.7-15.4,9.4-15.4,18.7&#10;&#9;&#9;&#9;&#9;&#9;c0,10.5,8.5,19.1,19.1,19.1c5.7,0,10.8-2.5,14.3-6.5c3.8,1.7,8,2.6,12.4,2.6c10.2,0,19.3-5.1,24.8-12.8c3.8,3.6,9,5.8,14.6,5.8&#10;&#9;&#9;&#9;&#9;&#9;c11.9,0,21.5-9.6,21.5-21.5C390.7,664.9,381.1,655.2,369.2,655.2z" style="fill: rgb(113, 201, 79);"/>
			</g><path class="st11" d="M303.1,710.1c-11.1,0-20.1-9-20.1-20.1c0-9.3,6.5-17.4,15.5-19.5c2.1-15.6,15.4-27.3,31.2-27.3&#10;&#9;&#9;&#9;&#9;&#9;c1.4,0,2.8,0.1,4.3,0.3c2.8-5.6,8.5-9.1,14.7-9.1c9.1,0,16.5,7.4,16.5,16.5c0,1.3-0.2,2.6-0.5,3.9c1.5-0.3,3-0.5,4.5-0.5&#10;&#9;&#9;&#9;&#9;&#9;c12.4,0,22.5,10.1,22.5,22.5s-10.1,22.5-22.5,22.5c-5.3,0-10.4-1.9-14.5-5.3c-6,7.7-15.2,12.3-25,12.3c-4.2,0-8.3-0.8-12.1-2.4&#10;&#9;&#9;&#9;&#9;&#9;C313.8,707.8,308.6,710.1,303.1,710.1z M329.7,645.2c-15.1,0-27.7,11.3-29.3,26.2l-0.1,0.7l-0.7,0.1&#10;&#9;&#9;&#9;&#9;&#9;c-8.5,1.6-14.6,9.1-14.6,17.7c0,10,8.1,18.1,18.1,18.1c5.2,0,10.1-2.2,13.5-6.1l0.5-0.6l0.7,0.3c3.8,1.7,7.8,2.5,12,2.5&#10;&#9;&#9;&#9;&#9;&#9;c9.5,0,18.5-4.6,24-12.4l0.7-0.9l0.8,0.8c3.8,3.6,8.8,5.5,14,5.5c11.3,0,20.5-9.2,20.5-20.5c0-11.3-9.2-20.5-20.5-20.5&#10;&#9;&#9;&#9;&#9;&#9;c-1.9,0-3.8,0.3-5.6,0.8l-1.9,0.5l0.7-1.8c0.6-1.6,0.9-3.2,0.9-4.9c0-8-6.5-14.5-14.5-14.5c-5.7,0-10.9,3.4-13.2,8.6l-0.3,0.7&#10;&#9;&#9;&#9;&#9;&#9;l-0.8-0.1C332.9,645.3,331.3,645.2,329.7,645.2z" style="fill: rgb(57, 169, 67);" transform="matrix(1, 0, 0, 1, 1.1368683772161603e-13, 2.842170943040401e-14)"/><g transform="matrix(1, 0, 0, 1, 8.526512829121202e-14, 2.1316282072803006e-14)">
				<path class="st3" d="M1113.1,666c-1.6-0.6-3.3-1-5-1.1c1-1.1,1.8-2.4,2.3-3.9c2.6-6.8-0.8-14.4-7.6-16.9c-5-1.9-10.4-0.5-14,3&#10;&#9;&#9;&#9;&#9;&#9;c-1.2-0.7-2.4-1.3-3.7-1.8c-12.4-4.7-26.3,0.8-32.2,12.4c-7.5-1.3-15,2.8-17.8,10.2c-3.2,8.3,1,17.7,9.4,20.8&#10;&#9;&#9;&#9;&#9;&#9;c4.5,1.7,9.3,1.3,13.3-0.8c2.5,2.5,5.5,4.5,9,5.8c8.1,3.1,16.8,1.8,23.5-2.7c2,4,5.4,7.3,9.9,9c9.4,3.6,19.9-1.2,23.5-10.6&#10;&#9;&#9;&#9;&#9;&#9;C1127.2,680.1,1122.5,669.5,1113.1,666z" style="fill: rgb(113, 201, 79);"/>
			</g><path class="st11" d="M1106.6,702.1c-2.2,0-4.5-0.4-6.7-1.2c-4.2-1.6-7.7-4.6-9.9-8.6c-7,4.3-15.8,5.2-23.5,2.2&#10;&#9;&#9;&#9;&#9;&#9;c-3.3-1.3-6.3-3.1-8.9-5.6c-4.2,2-9.1,2.3-13.4,0.6c-8.8-3.3-13.2-13.2-9.9-21.9c2.8-7.4,10.4-11.9,18.2-10.8&#10;&#9;&#9;&#9;&#9;&#9;c6.3-11.7,20.4-17,33-12.2c1.1,0.4,2.2,0.9,3.3,1.5c3.9-3.6,9.5-4.7,14.4-2.8c3.5,1.3,6.3,3.9,7.8,7.3c1.5,3.4,1.6,7.2,0.3,10.7&#10;&#9;&#9;&#9;&#9;&#9;c-0.4,1-0.9,2-1.5,2.9c1.3,0.2,2.5,0.5,3.7,1c9.8,3.7,14.8,14.8,11.1,24.6C1121.6,697.4,1114.3,702.1,1106.6,702.1z&#10;&#9;&#9;&#9;&#9;&#9; M1090.6,689.8l0.4,0.9c2,4,5.3,7,9.4,8.6c9,3.4,19-1.1,22.4-10.1c3.4-9-1.1-19-10.1-22.4c-1.5-0.6-3.1-0.9-4.7-1.1l-1.7-0.1&#10;&#9;&#9;&#9;&#9;&#9;l1.1-1.3c0.9-1.1,1.7-2.3,2.2-3.6c1.2-3.1,1.1-6.4-0.3-9.4c-1.3-3-3.8-5.3-6.8-6.4c-4.5-1.7-9.7-0.6-13.1,2.9l-0.5,0.5l-0.6-0.3&#10;&#9;&#9;&#9;&#9;&#9;c-1.2-0.7-2.4-1.2-3.6-1.7c-11.9-4.5-25.3,0.6-31.1,12l-0.3,0.6l-0.6-0.1c-7.2-1.2-14.3,2.8-16.9,9.6c-3,7.9,1,16.7,8.9,19.7&#10;&#9;&#9;&#9;&#9;&#9;c4.1,1.6,8.7,1.3,12.6-0.8l0.5-0.3l0.4,0.4c2.5,2.5,5.4,4.4,8.7,5.6c7.5,2.9,16,1.9,22.8-2.6L1090.6,689.8z" style="fill: rgb(57, 169, 67);" transform="matrix(1, 0, 0, 1, 1.1368683772161603e-13, 2.842170943040401e-14)"/><g transform="matrix(1, 0, 0, 1, 5.684341886080802e-14, 1.4210854715202004e-14)">
			<path d="M 0 727.900024 H 1400 V 980.000031 H 0 V 727.900024 Z" class="st12" style="fill: rgb(0, 179, 236);"/>
		</g><g transform="matrix(1, 0, 0, 1, 5.684341886080802e-14, 1.4210854715202004e-14)">
			<path class="st12" d="M1271.1,727.9c0.3,2.9-0.3,5.9-2.1,9.1c-10,20-42,17-65,22c-46,10-92-3-132,14c-17,8-31,28-52,30&#10;&#9;&#9;&#9;&#9;c-73,7-142-6-215-22c-44-9-85,4-125,20c-62,25-136,18-194-21c-14-9-31-8-47-5c-45,7-86,28-131,31c-3,0-9,0-12-3c-1-1-3-3-4-3&#10;&#9;&#9;&#9;&#9;c-13-8-31-12-31-29c-39-13-84,3-121-14c-1.4-14.4,9.5-22.7,21.3-29.1H0V980h1400V727.9H1271.1z" style="fill: rgb(0, 179, 236);"/>
		</g><path class="st13" d="M1053.9,775.9c0.2-0.1,0.3-0.1,0.4-0.2c0.5-0.2,0.9-0.3,1-0.4c0.1,0,0.1-0.1,0.1-0.1v-0.4&#10;&#9;&#9;&#9;c54.7-10.6,100.8-23.6,135.5-38.3H1173c6.3-2.3,12.3-4.7,17.9-7.1H203.7c5.7,2.4,11.7,4.8,17.9,7.1h-17.9&#10;&#9;&#9;&#9;c30.5,13,70,24.6,116.5,34.4c0,2.3,3.9,4.4,10.2,5.3c1.4,0.2,2.9,0.3,4.3,0.3c-0.8,0.3-1.5,0.8-2,1.2c-1.5,1.4-0.7,2.8,1.6,3.9&#10;&#9;&#9;&#9;c-20.2,22.8-43.9,36.7-56.7,43.1c-0.1,0-3.9,1.6-12.8,2.4c-0.2-0.5-1.5-0.9-3.9-0.9c-6.2-0.1-25.8-3.5-25.8-3.5l-2.4,1.2l1.1-1.5&#10;&#9;&#9;&#9;c-5.7-0.9-13.3-3.1-18.3-4.4c-5-1.3-14.9-3-16.5-2.7c-0.1,0-0.1,0-0.1,0c-2.4,0.8,8.4,8.1,8.4,8.1l3.9-0.5l-2.9,0.9&#10;&#9;&#9;&#9;c4.6,1.9,9.3,3.3,13.5,4.3c-1.3-0.1-2.1-0.2-2.1-0.2l-1.9,1.7l0.1-1.9c-7.9-0.6-19.2-2.4-26.6-3.5c-7.4-1-21.2-2.2-22.9-1.6&#10;&#9;&#9;&#9;c-0.1,0-0.1,0-0.1,0.1c-2.4,1.3,17.4,9.1,17.4,9.1l4.5-1l-2.8,1.5c2.5,0.7,5,1.2,7.5,1.7c-1.2,0-2.4-0.1-3.4-0.1&#10;&#9;&#9;&#9;c-7.9-0.2-22,0.2-23.2,0.9c0,0-0.1,0.1-0.1,0.1c-1.2,1.4,24.2,6.8,24.2,6.8l3.5-1.5l-1.4,1.7c14.1,1.7,26.1,1.6,33.1,1.3&#10;&#9;&#9;&#9;c-4.9,0.8-10.7,1.5-14.7,2c-5.7,0.8-15.3,2.8-15.5,3.4c0,0,0,0,0,0.1c0.5,1.2,23.4,1.9,23.4,1.9l1.1-1.4l0.6,1.4&#10;&#9;&#9;&#9;c18.3-0.8,28.6-4.1,28.6-4.1l1-1.7l0.8,1.3c4.5-1.2,7.2-2.8,8.8-4.1c1,1.8,3.3,4.2,8.5,6.3l1.9-1.6l0.1,2.3c0,0,10.7,5.1,33.1,7.7&#10;&#9;&#9;&#9;l1.7-1.7l0.4,1.9c0,0,16.5,0.6,25.4,0.3c5.2,1.3,10.1,2,13.8,2.5c-3.4,0.2-5.7,0.3-5.7,0.3l-0.2,2.1l-1.8-2&#10;&#9;&#9;&#9;c-7.9,0.5-20.4,0.1-28.3,0c-7.9-0.1-22,0.6-23.1,1.4c0,0,0,0.1-0.1,0.1c-1,1.6,25,7.2,25,7.2l3.3-1.7l-1.2,1.9&#10;&#9;&#9;&#9;c4.6,0.5,8.9,0.9,12.9,1c-2.5,0.3-4.8,0.5-6.8,0.7c-7.6,0.9-20.5,3.2-20.9,4.1c0,0,0,0.1,0,0.1c0.2,1.7,29.2,3.9,29.2,3.9l1.9-2&#10;&#9;&#9;&#9;l0.3,2c23.6-0.2,37.9-4.4,37.9-4.4l1.9-2.4l0.5,1.9c6.7-1.6,10.8-3.9,13.2-5.7c0.5,1.5,1.8,3.5,5.1,5.3l1.8-1.3l-0.4,2&#10;&#9;&#9;&#9;c0,0,7.2,4.7,24,7.6l1.7-1.4l-0.1,1.6c0,0,22.5,1.8,23.9,0.7c0,0,0.1,0,0.1-0.1c0.3-0.7-7.2-3.9-12-5.4c-3.4-1.1-8.3-2.5-12.4-3.9&#10;&#9;&#9;&#9;c6.4,1.1,17.8,2.6,32.7,2.4l0-2l2.1,1.9c0,0,28.7-2.8,28.7-4.5c0,0,0-0.1,0-0.1c-0.6-0.9-13.7-2.9-21.4-3.6&#10;&#9;&#9;&#9;c-1-0.1-2.2-0.2-3.4-0.3c2.7-0.2,5.6-0.6,8.5-1l-1.5-1.9l3.5,1.6c0,0,25.3-6.1,24-7.7c0,0,0-0.1-0.1-0.1&#10;&#9;&#9;&#9;c-1.2-0.8-15.3-1.2-23.2-0.9c-7.9,0.3-20.3,0.9-28.2,0.6l-1.5,2.1l-0.5-2.1c0,0-0.8,0-2.1-0.1c4.8-0.5,10.5-1.4,16.4-3l-2-1.3&#10;&#9;&#9;&#9;l3.4,0.9c0,0,16.3-6.4,14.6-7.6c0,0-0.1,0-0.1-0.1c-1.3-0.5-12.1,0.2-18,1c-5.8,0.8-14.9,2.2-21.1,2.5l-0.2,1.7l-1.3-1.5&#10;&#9;&#9;&#9;c0,0-21.5,1.4-27.5,0.7c-2.3-0.2-3.8,0-4.4,0.5c-3.5-0.8-5.9-1.7-7.5-2.4c-5.3-8.5-16.8-29.9-18.4-58.5c0.7,0,1.4,0.1,2.2,0.1&#10;&#9;&#9;&#9;c0,0,0,0,0,0c0,0,0,0,0,0c1,0,2,0,3-0.1c0.3,5.4,11.2,9.7,24.5,9.7c0,0,0,0,0,0c0,0,0,0,0,0c5.6,0,10.8-0.8,14.9-2.1&#10;&#9;&#9;&#9;c29.5,6.8,68.7,13.7,118.7,18.6c3.2,2.3,9.4,3.9,16.5,3.9c0,0,0,0,0,0c0,0,0,0,0,0c2.2,0,4.3-0.2,6.2-0.4c1.7,3.4,9.1,6,18,6&#10;&#9;&#9;&#9;c0,0,0,0,0,0c0,0,0,0,0,0c5.5,0,10.4-1,13.8-2.5c3.4,1.5,8.3,2.5,13.8,2.5c0,0,0,0,0,0c0,0,0,0,0,0c1.6,0,3.2-0.1,4.7-0.3&#10;&#9;&#9;&#9;c6.1,4.3,17.6,7.2,30.6,7.2c0,0,0,0,0,0c0,0,0,0,0,0c4.7,0,9.2-0.4,13.4-1.1c-4.8,14.8-12.2,25.5-17.8,31.9&#10;&#9;&#9;&#9;c-0.1,0.1-3.2,2.8-14.1,5.2c-0.9-0.7-3.1-0.9-6.3-0.6c-8.3,0.9-38.6-0.5-38.6-0.5l-1.7,1.9l-0.4-2.1c-8.7-0.4-21.5-2-29.8-2.9&#10;&#9;&#9;&#9;c-8.3-0.9-23.6-1.7-25.3-1c-0.1,0-0.1,0.1-0.1,0.1c-2.3,1.4,21.2,9.4,21.2,9.4l4.7-1.2l-2.7,1.7c8.5,1.9,16.5,2.9,23.3,3.6&#10;&#9;&#9;&#9;c-1.9,0.1-3,0.1-3,0.1l-0.5,2.6l-2.3-2.6c-11.2,0.5-28.6-0.2-39.7-0.4c-11.1-0.2-30.9,0.5-32.5,1.5c-0.1,0-0.1,0.1-0.1,0.1&#10;&#9;&#9;&#9;c-1.6,2,34.4,9.4,34.4,9.4l4.8-2.1l-1.9,2.4c4.2,0.5,8.2,0.8,12.1,1.1c-1.7,0.1-3.2,0.3-4.7,0.4c-10.8,1-29.1,3.8-29.8,4.9&#10;&#9;&#9;&#9;c0,0,0,0.1,0,0.1c0.2,2.1,40.7,5.3,40.7,5.3l2.8-2.5l0.2,2.5c20.9,0,36.8-2,45.7-3.5c-5.6,1.8-12.4,3.7-17.1,5&#10;&#9;&#9;&#9;c-6.7,2-16.9,6.1-16.4,7c0,0,0.1,0.1,0.1,0.1c2.1,1.5,33.5-1.1,33.5-1.1l-0.3-2.1l2.5,1.7c23.4-3.9,33-9.9,33-9.9l-0.5-1.7&#10;&#9;&#9;&#9;c0.5,0.1,0.9,0.2,1.4,0.3l1,0.6c0.2-0.1,0.4-0.2,0.6-0.3c9.3,1.7,18.6,3.2,18.6,3.2l4.1-2.2l-1.2,2.5c9.7,0.7,18.5,0.9,26.1,0.8&#10;&#9;&#9;&#9;c7.8,0.9,17.7,1.7,29.4,1.9c-4.3,1.8-8.8,3.6-12.2,5c-7.1,3-17.5,9.1-16.2,10.2c0,0,0.1,0.1,0.2,0.1c3.6,1.7,41.6-4.2,41.6-4.2&#10;&#9;&#9;&#9;l-1.7-2.6l4.3,2c9.3-2.4,16.4-4.9,21.7-7.2c4.2,2.2,10.5,4.8,19.5,7.2l3.4-1.5l-1.5,2c0,0,29.4,4.8,32.3,3.5c0.1,0,0.1,0,0.2-0.1&#10;&#9;&#9;&#9;c1-0.8-6.8-5.6-12.2-8c-3.8-1.7-9.5-4-14-6.1c7.9,2.1,22.3,5.2,42.9,6.6l1.6-2.5l1.4,2.6c0,0,41.4-0.2,42.8-2.3&#10;&#9;&#9;&#9;c0,0,0.1-0.1,0.1-0.1c-0.1-1.1-16.5-5.2-26.5-6.9c-1.4-0.2-2.8-0.5-4.4-0.7c3.9,0,8.1-0.1,12.4-0.3l-0.5-2.5l3.5,2.4&#10;&#9;&#9;&#9;c0,0,39.3-4.7,38.9-6.8c0,0,0-0.1,0-0.1c-1-1.1-20.1-3.2-31-3.7c-11-0.6-28.5-1.1-39.1-2.4l-3.7,2.4l1-2.6c0,0-1.1-0.1-2.8-0.3&#10;&#9;&#9;&#9;c6.9-0.1,15.5-0.6,24.8-1.8l-1.7-1.9l3.9,1.5c0,0,27.3-6.1,25.9-7.7c0,0,0-0.1-0.1-0.1c-1.3-0.8-16.8-1.1-25.4-0.8&#10;&#9;&#9;&#9;c-8.6,0.3-22.1,1-30.8,0.8l-1.5,2.1l-0.6-2c0,0-30.5-0.7-38.1-2.2c-2.9-0.6-5.2-0.4-6.5,0.1c-3.8-1.3-6.3-2.5-8-3.5&#10;&#9;&#9;&#9;c-0.2-7.6-1.1-23.7-3.8-47c24.3-0.8,47.2-2,68.7-3.5c4.4,2.1,11,3.4,18.4,3.4c0,0,0,0,0,0c0,0,0,0,0,0c4.8,0,9.3-0.6,13.1-1.6&#10;&#9;&#9;&#9;c4.7,1.3,10.3,2,16.4,2c0,0,0,0,0,0l0,0c16,0,29-5.2,29.5-11.6c9.5-1.2,18.6-2.5,27.3-3.8c3,1.3,7.4,2.1,12.2,2.1h0h0&#10;&#9;&#9;&#9;c6,0,11.3-1.3,14.2-3.2c3.2,0.6,6.7,0.9,10.4,0.9c0,0,0,0,0,0c0,0,0,0,0,0c10.6,0,19.6-2.7,23.1-6.5c0.3,0,0.7,0,1,0c0,0,0,0,0,0&#10;&#9;&#9;&#9;h0c4.3,0,8.3-0.5,11.8-1.3c4.7,9.8,9.5,20.9,12.8,31.6l-0.6,0.3c0.3,0.1,0.6,0.3,0.9,0.4c0.1,0.3,0.2,0.6,0.3,0.9l-1,0.1&#10;&#9;&#9;&#9;c0.2,0.2,0.5,0.4,0.7,0.6l-0.3,0c0.1,0.6,0.2,1.2,0.4,1.8c-1.4,0.2-3,0.5-4.9,0.6c-0.5-0.3-1.6-0.6-3.4-0.6&#10;&#9;&#9;&#9;c-5.9-0.1-24.2-3.6-24.2-3.6l-2.4,1.1l1.1-1.4c-5.3-1-12.4-3.1-17-4.4c-4.7-1.3-13.9-3.1-15.4-2.8c-0.1,0-0.1,0-0.1,0&#10;&#9;&#9;&#9;c-2.4,0.7,7.3,7.8,7.3,7.8l3.8-0.4l-2.8,0.9c5.8,2.7,12.2,4.3,16.8,5.2c-3.5-0.1-5.8-0.2-5.8-0.2l-1.3,1.8l-0.6-1.9&#10;&#9;&#9;&#9;c-8-0.2-20-1.6-27.7-2.3c-7.7-0.7-21.9-1.2-23.4-0.6c-0.1,0-0.1,0-0.1,0.1c-1.9,1.4,20.5,8.3,20.5,8.3l4.2-1.2l-2.3,1.6&#10;&#9;&#9;&#9;c4.2,0.8,8.3,1.5,12.1,2c-2.6,0-5,0.1-7,0.1c-7.9,0.1-21.9,1.2-22.8,1.9c0,0,0,0.1,0,0.1c-0.7,1.5,26.5,5.8,26.5,5.8l3-1.6&#10;&#9;&#9;&#9;l-0.8,1.8c23.2,1.7,39.6-0.8,39.6-0.8l3.2-2l-0.6,1.8c2.1-0.3,4-0.6,5.8-0.9c-4.2,2.4-12.2,5.5-17,7.5c-5.1,2.2-12.5,6.5-11.6,7.3&#10;&#9;&#9;&#9;c0,0,0.1,0,0.1,0.1c2.6,1.2,29.9-3,29.9-3l-1.2-1.9l3.1,1.4c6.7-1.7,11.8-3.5,15.6-5.2c3,1.6,7.5,3.4,14,5.1l2.4-1.1l-1,1.4&#10;&#9;&#9;&#9;c0,0,21.1,3.4,23.1,2.5c0,0,0.1,0,0.1-0.1c0.7-0.6-4.9-4-8.8-5.7c-2.7-1.2-6.8-2.9-10-4.4c5.6,1.5,16,3.7,30.7,4.7l1.1-1.8l1,1.9&#10;&#9;&#9;&#9;c0,0,29.7-0.2,30.7-1.7c0,0,0-0.1,0-0.1c0-0.8-11.8-3.7-19-4.9c-1-0.2-2-0.3-3.1-0.5c2.8,0,5.8-0.1,8.9-0.2l-0.4-1.8l2.5,1.7&#10;&#9;&#9;&#9;c0,0,28.2-3.3,27.9-4.9c0,0,0-0.1,0-0.1c-0.7-0.8-14.4-2.3-22.3-2.7c-7.9-0.4-20.4-0.8-28-1.7l-2.6,1.7l0.7-1.9c0,0-0.8-0.1-2-0.2&#10;&#9;&#9;&#9;c5-0.1,11.1-0.4,17.8-1.3l-0.8-0.9c0.2,0,0.3,0,0.5-0.1l1.9,0.7c0,0,19.1-4.3,18.6-5.5c2.4-0.8,3.6-1.4,3.6-1.4l0-2l1.7,1.4&#10;&#9;&#9;&#9;c4.6-1.9,6.6-4,7.5-5.6c1.4,1.1,3.8,2.5,7.8,3.6l0.7-1.2l0.9,1.5c0,0,9.1,2.9,25.2,3.6l0.5-1.2l1,1.3c0,0,20.2-0.7,20.7-1.7&#10;&#9;&#9;&#9;c0,0,0,0,0-0.1c-0.2-0.6-8.6-2.3-13.7-3c-3.6-0.5-8.6-1.1-13-1.8c6.1,0.3,16.7,0.3,29.2-1.2l-1.3-1.5l3.1,1.3c0,0,22.4-4.8,21.4-6&#10;&#9;&#9;&#9;c0,0,0,0-0.1-0.1c-1-0.6-13.5-1-20.5-0.8c-0.9,0-2,0.1-3,0.1c2.2-0.4,4.4-0.9,6.6-1.5l-2.5-1.3l4,0.9c0,0,17.4-6.9,15.4-8.1&#10;&#9;&#9;&#9;c0,0-0.1,0-0.1-0.1c-1.5-0.5-13.7,0.5-20.2,1.4c-6.5,0.9-16.5,2.6-23.5,3.1l0.1,1.7l-1.7-1.5c0,0-0.7,0.1-1.8,0.1&#10;&#9;&#9;&#9;c3.7-0.8,7.9-2.1,11.9-3.8l-2.6-0.8l3.5,0.4c0,0,9.6-6.4,7.4-7.1c0,0-0.1,0-0.1,0c-1.4-0.3-10.1,1.3-14.6,2.4&#10;&#9;&#9;&#9;c-4.4,1.1-11.2,3-16.2,3.9l0.9,1.3l-2.1-1c0,0-17.3,3-22.8,3.1c-2.1,0-3.2,0.3-3.4,0.8c-7.9-0.6-11.3-2.1-11.3-2.1&#10;&#9;&#9;&#9;c-10.3-5.2-28.5-15.7-45.2-32.8C1046.1,778.8,1051.4,776.9,1053.9,775.9z M346.2,791.5c4.2,18.2,14.2,44.4,37.4,61&#10;&#9;&#9;&#9;c0.4,0.5,0.8,1,1.2,1.5c-1.2,0.4-2.6,0.7-4.3,1.1c-0.7-0.3-1.9-0.5-3.7-0.4c-5.8,0.4-25.7-1.7-25.7-1.7l-1.6,1.4l0.3-1.6&#10;&#9;&#9;&#9;c-4.7-0.5-11.1-1.7-16.2-2.6c7.5-0.6,25.8-2.1,26-3.3c0,0,0-0.1,0-0.1c-0.5-0.8-13.4-2.9-21.1-3.6c-7.6-0.7-19.9-1.7-27.1-2.9&#10;&#9;&#9;&#9;l-3.2,1.6l1.3-1.8c0,0-2.1-0.3-5.2-0.9c5.3,0,13-0.3,21.7-1.5l-1.3-1.2l2.7,1c0,0,18-4.4,17-5.4c0,0,0,0-0.1-0.1&#10;&#9;&#9;&#9;c-0.9-0.5-11.4-0.6-17.2-0.3c-5.8,0.3-14.8,0.9-20.7,0.8l-0.9,1.4l-0.5-1.4c0,0-20.6-0.2-25.8-1.2c-1.6-0.3-2.9-0.3-3.8-0.1&#10;&#9;&#9;&#9;c-1.4-0.5-2.5-1-3.4-1.4c0.7-0.4,1.4-0.7,2.1-1.1C304.9,818.2,329.8,803.2,346.2,791.5z M384.5,859.6c1-1,1.7-1.9,2.1-2.7&#10;&#9;&#9;&#9;c0.2-0.1,0.5-0.2,0.7-0.3c0.3,0.3,0.6,0.6,1,0.9c-0.4,1.2-0.6,2.4-0.6,3.5c-0.2-0.2-0.4-0.4-0.7-0.6&#10;&#9;&#9;&#9;C386.3,860,385.4,859.7,384.5,859.6z M315.1,850c0.1,0,0.2,0,0.3,0c0,0,0.1,0,0.1,0.1C315.4,850,315.3,850,315.1,850z&#10;&#9;&#9;&#9; M328.4,849.2l0.1-0.6l0.8,0.8C329,849.3,328.7,849.3,328.4,849.2z M274.3,832.4c0,0.2,0.1,0.3,0.2,0.5c-0.1,0-0.1,0-0.2,0&#10;&#9;&#9;&#9;c-0.3-0.3-0.6-0.5-0.8-0.8C273.7,832.2,274,832.3,274.3,832.4z M259.3,829.9c2.2-0.5,3.7-1,4.6-1.5c0.3,0,0.6,0,0.9-0.1&#10;&#9;&#9;&#9;c0,0,0.1,0.1,0.1,0.1l-0.4,0.1c0.3,0.1,0.6,0.3,0.8,0.4c0.1,0.1,0.2,0.2,0.3,0.3c-1.4,0.4-3.1,0.8-5.1,1.1&#10;&#9;&#9;&#9;C260.3,830.2,259.9,830,259.3,829.9z M237.5,841.8c-0.3,0.1-0.6,0.1-0.9,0.2l1.2-0.5L237.5,841.8z M234.9,842.8l1.1,1l-1.7-0.7&#10;&#9;&#9;&#9;L234.9,842.8z M261.9,832.3c-0.5-0.1-1-0.2-1.6-0.3c0.2-0.2,0.3-0.3,0.4-0.4c0.7-0.1,1.4-0.3,2.1-0.4c0.1,0.2,0.2,0.4,0.2,0.7&#10;&#9;&#9;&#9;C262.6,832,262.3,832.1,261.9,832.3z M263.6,831c0.7-0.2,1.5-0.3,2.2-0.5c-0.4,0.2-0.8,0.4-1.3,0.6L263.6,831z M394.4,857.8&#10;&#9;&#9;&#9;c-0.6,0-1.2,0-1.8,0.1c-0.2-0.2-0.5-0.4-0.7-0.6c0.3-0.3,0.5-0.5,0.8-0.7c0.6,0.2,1.1,0.5,1.7,0.7&#10;&#9;&#9;&#9;C394.3,857.4,394.3,857.6,394.4,857.8z M391,856.4c-0.3-0.3-0.5-0.6-0.7-0.8c0.6,0.3,1.1,0.5,1.7,0.8L391,856.4z M380.2,857.1&#10;&#9;&#9;&#9;c-0.1,0-0.1,0-0.2,0c0.2-0.2,0.4-0.3,0.6-0.5c0.3-0.1,0.7-0.1,1-0.2C381.2,856.6,380.7,856.9,380.2,857.1z M408.1,873l1.8-0.9&#10;&#9;&#9;&#9;l0.4,0.4L408.1,873z M408.3,870.7l0.1-0.4l0.7,0.7C408.8,870.9,408.5,870.8,408.3,870.7z M396.9,855.6c-0.6,0.1-1.2,0.2-1.6,0.4&#10;&#9;&#9;&#9;c-1.6-0.6-2.9-1.2-3.9-1.8c0.2-0.1,0.4-0.2,0.5-0.3c0.4-0.1,0.7-0.2,1.1-0.3l-0.3-0.2c0.1,0,0.1-0.1,0.2-0.1&#10;&#9;&#9;&#9;c0.3,0.1,0.5,0.1,0.8,0.2C394.2,854.1,395.2,854.9,396.9,855.6z M264.3,835.5c0.8-1,1.5-2,2-3.1c0.5-0.2,1.1-0.4,1.6-0.7&#10;&#9;&#9;&#9;c0.1,0.1,0.3,0.3,0.4,0.4c-0.2,0.8-0.2,1.6,0,2.6c-1,0-2,0.1-2.9,0.4C265,835.1,264.7,835.3,264.3,835.5z M621.2,874.4&#10;&#9;&#9;&#9;c-0.2,0-0.3,0-0.5,0c0.3-0.1,0.5-0.2,0.8-0.3C621.4,874.2,621.3,874.3,621.2,874.4z M746,878.4c0-0.2-0.1-0.3-0.1-0.5&#10;&#9;&#9;&#9;c0.3,0.2,0.7,0.4,1,0.7C746.6,878.5,746.3,878.4,746,878.4z M617.6,871.3c0.1,0,0.2,0.1,0.2,0.1l-0.4,0.3c0.5,0.1,1.1,0.3,1.6,0.4&#10;&#9;&#9;&#9;c0.3,0.1,0.5,0.3,0.8,0.4c-1,0.5-2.3,1.1-3.7,1.7c-1.2,0-2.3-0.1-3.4-0.1c2-0.9,3.3-1.8,3.8-2.5&#10;&#9;&#9;&#9;C616.8,871.5,617.2,871.4,617.6,871.3z M597.7,893.5c-0.4,0.1-0.7,0.3-1,0.4l0.9-0.9L597.7,893.5z M595.5,895.3l2.7,1.2l-3.2-0.6&#10;&#9;&#9;&#9;L595.5,895.3z M756.5,901.5l3.3-1l0.2,0.5L756.5,901.5z M758.6,898.7l0.4-0.5l0.3,1C759.1,899,758.8,898.9,758.6,898.7z&#10;&#9;&#9;&#9; M754.9,878.8c-0.9,0-1.8,0.2-2.5,0.4c-1.7-0.9-3-1.8-4-2.7c0.3-0.1,0.6-0.2,1-0.3c0.6-0.1,1.2-0.2,1.8-0.3l-0.2-0.3&#10;&#9;&#9;&#9;c0.1,0,0.2-0.1,0.3-0.1c0.3,0.1,0.6,0.2,0.9,0.3C752.3,876.6,753.1,877.7,754.9,878.8z M730.9,878.7c-0.1,0-0.1,0-0.2-0.1&#10;&#9;&#9;&#9;c0.5-0.2,0.9-0.4,1.2-0.5c0.5,0,1-0.1,1.5-0.1C732.6,878.2,731.7,878.5,730.9,878.7z M635.2,875.2c0.1,0.1,0.2,0.2,0.3,0.2&#10;&#9;&#9;&#9;c-0.3,0-0.6-0.1-0.9-0.1c-0.3-0.1-0.5-0.2-0.8-0.4C634.2,875.1,634.7,875.2,635.2,875.2z M707.1,900.8L707.1,900.8&#10;&#9;&#9;&#9;c0.1,0.1,0,0.1,0,0.1L707.1,900.8z M739.1,869.6l-0.9,0.4c0.4,0.2,0.8,0.4,1.2,0.6c0.1,0.4,0.2,0.8,0.4,1.2l-1.4,0.2&#10;&#9;&#9;&#9;c0.3,0.3,0.6,0.6,1,0.9l-0.4,0c0.1,0.9,0.3,1.7,0.6,2.5c-1.9,0.3-4.2,0.6-6.8,0.9c-0.6-0.5-2.2-0.8-4.7-0.9&#10;&#9;&#9;&#9;c-4.1-0.1-12.5-1.3-19.9-2.6l-0.9-0.4l4.9,0.9c0,0,18.6-8.7,15.9-9.9c0,0-0.1,0-0.2-0.1c-1.9-0.5-15.9,1-23.3,2.3&#10;&#9;&#9;&#9;c-4.9,0.8-11.4,2.1-17.6,3.1c-6.3-1.5-13.2-3.6-18.2-4.9c-6.5-1.8-19.4-4.3-21.5-3.9c-0.1,0-0.1,0-0.2,0.1&#10;&#9;&#9;&#9;c-3.3,1,10.2,10.8,10.2,10.8l5.3-0.6l-3.9,1.2c0.3,0.1,0.5,0.2,0.8,0.4c-7.5,0.6-15.4,1.1-19.2,1c-2.5-0.1-4.2,0.1-5.1,0.5&#10;&#9;&#9;&#9;c-2.4-0.4-4.5-0.9-6.2-1.3c0.5-0.6,1-1.2,1.5-1.8c19.7-13.2,32.8-29,41.4-43.5c0.3,0,0.5,0,0.8,0c0,0,0,0,0,0s0,0,0,0&#10;&#9;&#9;&#9;c4.3,0,8.1-0.8,10.5-2.1c0.6,0,1.3,0,1.9,0h0c0,0,0,0,0,0c12.1,0,24-0.1,35.5-0.3C727.5,838.2,734.5,854.3,739.1,869.6z&#10;&#9;&#9;&#9; M1009.8,836.7c0.1,0.6,0.7,1.3,1.9,2.1c-0.7,0-1.3,0.1-1.8,0.3c-1.2-0.7-2.1-1.3-2.8-1.9c0.2-0.1,0.5-0.2,0.7-0.3&#10;&#9;&#9;&#9;c0.4-0.1,0.8-0.1,1.3-0.2l-0.1-0.2c0.1,0,0.2-0.1,0.2-0.1C1009.3,836.6,1009.5,836.7,1009.8,836.7z M1005.3,838.6&#10;&#9;&#9;&#9;c0-0.1-0.1-0.2-0.1-0.3c0.2,0.2,0.5,0.3,0.8,0.5C1005.7,838.7,1005.5,838.6,1005.3,838.6z M998.6,840.7c-0.2,0.3-0.5,0.6-0.8,0.9&#10;&#9;&#9;&#9;c-0.2-0.1-0.4-0.1-0.6-0.1C997.7,841.2,998.2,840.9,998.6,840.7z M994.5,838.8c-0.1,0-0.1,0-0.2,0c0.3-0.1,0.6-0.3,0.9-0.4&#10;&#9;&#9;&#9;c0.4,0,0.7,0,1.1-0.1C995.7,838.5,995.1,838.7,994.5,838.8z M1012.8,855.2l2.3-0.7l0.1,0.4L1012.8,855.2z M1014.3,853.1l0.3-0.3&#10;&#9;&#9;&#9;l0.2,0.7C1014.7,853.4,1014.5,853.3,1014.3,853.1z M1093.5,819.1c0.6,0.1,1.3,0.3,2,0.4l-0.8,0.1&#10;&#9;&#9;&#9;C1094.2,819.5,1093.8,819.3,1093.5,819.1z M1096.2,819.7c0.6,0.1,1.2,0.2,1.9,0.4c0.1,0.1,0.2,0.3,0.3,0.4c-0.6,0-1.1,0.1-1.5,0.2&#10;&#9;&#9;&#9;c-0.3-0.1-0.6-0.2-0.9-0.4C1096.1,820,1096.1,819.8,1096.2,819.7z M1118.3,828.7l1,0.5c-0.3-0.1-0.5-0.1-0.8-0.2L1118.3,828.7z&#10;&#9;&#9;&#9; M1119.9,830.8l0.9-0.9l0.6,0.3L1119.9,830.8z M1093.7,818c0.1-0.1,0.2-0.2,0.2-0.3c0.2-0.1,0.5-0.2,0.7-0.3l-0.4-0.1&#10;&#9;&#9;&#9;c0,0,0-0.1,0.1-0.1c0.3,0,0.5,0,0.8,0.1c0.8,0.4,2.1,0.9,4.1,1.3c-0.5,0.1-0.8,0.3-1.1,0.5C1096.4,818.7,1094.9,818.4,1093.7,818z&#10;&#9;&#9;&#9; M1086,821.2c-0.1,0-0.1,0-0.2,0c0.1-0.2,0.2-0.3,0.2-0.4c0.2-0.1,0.5-0.1,0.7-0.2C1086.5,820.8,1086.3,821,1086,821.2z&#10;&#9;&#9;&#9; M984.8,851.9l2.9,0.9l-4.3-0.5C983.8,852.1,984.3,852,984.8,851.9z M1093.8,823.1c-0.8-0.2-1.7-0.4-2.6-0.3&#10;&#9;&#9;&#9;c0.2-0.8,0.2-1.6,0-2.3c0.1-0.1,0.2-0.2,0.4-0.3c0.5,0.2,0.9,0.4,1.4,0.6c0.4,1,1,1.9,1.8,2.7&#10;&#9;&#9;&#9;C1094.5,823.3,1094.2,823.2,1093.8,823.1z M1086,817.5c0.6,0.3,1.2,0.7,1.9,1c-0.8,0.4-1.7,0.8-3,1.2c-0.8-0.2-1.9-0.2-3.3,0&#10;&#9;&#9;&#9;c-4.6,0.8-22.8,1-22.8,1l-0.5,1.2l-0.8-1.2c-5.2,0.1-13.2-0.4-18.3-0.7s-14.3-0.2-15.2,0.3c0,0,0,0-0.1,0c-0.9,0.9,15,4.8,15,4.8&#10;&#9;&#9;&#9;l2.4-0.9l-1.1,1.1c7.7,1.1,14.5,1.4,19.2,1.3c-2.7,0.5-4.6,0.8-4.6,0.8l1.2,1.6l-2.8-1.4c-6.4,1.1-17.2,1.9-23.9,2.6&#10;&#9;&#9;&#9;c-6.7,0.7-18.2,2.5-18.6,3.2c0,0,0,0,0,0.1c0.2,1.3,25.8,3.2,25.8,3.2l1.7-1.6l0.2,1.6c4.2,0,8.1-0.2,11.6-0.4&#10;&#9;&#9;&#9;c-1.4,0.3-2.7,0.6-3.9,0.9c-0.7,0-1.4,0-2.1,0l-0.5,0.6c-0.3,0.1-0.6,0.1-0.8,0.2l-0.2-0.8c0,0-21.9-0.5-27.3-1.6&#10;&#9;&#9;&#9;c-2.1-0.4-3.7-0.3-4.6,0.1c-2.7-0.9-4.5-1.8-5.7-2.5c-0.2-6.2-0.9-20.3-3.6-41c9.6-0.2,17.7-2.7,21.1-6.1c0.5-0.1,1-0.3,1.5-0.4&#10;&#9;&#9;&#9;C1038.3,795.8,1059.8,808.5,1086,817.5z" style="fill: rgb(0, 157, 236);" transform="matrix(1, 0, 0, 1, 5.684341886080802e-14, 1.4210854715202004e-14)"/><g transform="matrix(1, 0, 0, 1, 5.684341886080802e-14, 1.4210854715202004e-14)">
			<path class="st1" d="M809,745c72,19,144,4,216,3c44.1-0.8,87.5-10.2,130.8-20.1H843.6c-10.5,2.9-21.1,6.1-31.6,10.1&#10;&#9;&#9;&#9;&#9;C810,738,806,744,809,745z" style="fill: rgb(142, 247, 248);"/>
		</g><path class="st1" d="M725,742c-0.4-6.8-4.1-11.1-9.2-14.1H505.6c29.5,12.6,61.1,18,93.4,24.1C642,759,686,759,725,742z" style="fill: rgb(142, 247, 248);" transform="matrix(1, 0, 0, 1, 8.526512829121202e-14, 2.1316282072803006e-14)"/><path class="st1" d="M347,744c14.2-3.3,27-9.5,39.6-16.1h-101C304.5,739.7,323.9,748.1,347,744z" style="fill: rgb(142, 247, 248);" transform="matrix(1, 0, 0, 1, 8.526512829121202e-14, 2.1316282072803006e-14)"/><path class="st1" d="M1271.1,727.9h-42.3c-1.2,5.4-4.2,9.3-10.8,10.1c-102,12-202,12-301,43c-12,4-26,5-37,0c-62-31-130-21-189,6&#10;&#9;&#9;&#9;&#9;c-43,20-88,6-132-6c-4-1-9-6-13-7c-27-11-56-15-83-26c-14-5-29-5-44-1c-40,10-83,30-124,10c-36-17-81,6-115-12&#10;&#9;&#9;&#9;&#9;c-3.4-2,0.6-9.6,5.7-17.1h-24.4c-11.8,6.4-22.7,14.7-21.3,29.1c37,17,82,1,121,14c0,17,18,21,31,29c1,0,3,2,4,3c3,3,9,3,12,3&#10;&#9;&#9;&#9;&#9;c45-3,86-24,131-31c16-3,33-4,47,5c58,39,132,46,194,21c40-16,81-29,125-20c73,16,142,29,215,22c21-2,35-22,52-30&#10;&#9;&#9;&#9;&#9;c40-17,86-4,132-14c23-5,55-2,65-22C1270.8,733.8,1271.4,730.8,1271.1,727.9z" style="fill: rgb(142, 247, 248);" transform="matrix(1, 0, 0, 1, 8.526512829121202e-14, 2.1316282072803006e-14)"/><path class="st1" d="M122.1,780.9c13.3,12.3,31.4,19.3,49.5,19c13.9-0.2,28.2-4.6,41.6-0.8c1.4,0.4,2.8,0.9,3.6,2.1&#10;&#9;&#9;&#9;&#9;c1.2,1.9,0,4.5-1.4,6.2c-6.7,8.3-18,10.9-28.5,12.8c-16.6,3.1-35.3,5.2-49.2-4.5c-4.5-3.2-8.2-7.4-11.4-11.9&#10;&#9;&#9;&#9;&#9;c-5.4-7.4-9.6-15.7-12.6-24.4" style="fill: rgb(142, 247, 248);" transform="matrix(1, 0, 0, 1, 8.526512829121202e-14, 2.1316282072803006e-14)"/><path class="st1" d="M317.8,844.7c53.6-2.8,109-29,158.7-8.8c9.7,4,18.6,9.6,28.1,14.1c40,18.9,86.3,16.8,130.5,14.2&#10;&#9;&#9;&#9;&#9;c-48.4,21.2-104.7,23.9-155,7.6c-12.9-4.2-25.4-9.6-38.6-13.1c-25.5-6.7-52.3-5.8-78.7-4.9c-21.3,0.8-42.6,1.5-63.9,2.3" style="fill: rgb(142, 247, 248);" transform="matrix(1, 0, 0, 1, 8.526512829121202e-14, 2.1316282072803006e-14)"/><path class="st1" d="M919.5,871.2c48.9,5.8,99.2-0.8,144.9-19c45.7-18.2,91.6-48.3,139.8-38.5c2.1,0.4,4.3,1,5.6,2.7&#10;&#9;&#9;&#9;&#9;c4.1,5-3.7,11-10,12.8c-63.6,17.7-127.3,35.4-190.9,53.1c-25.7,7.2-57.5,12.8-75.7-6.7" style="fill: rgb(142, 247, 248);" transform="matrix(1, 0, 0, 1, 8.526512829121202e-14, 2.1316282072803006e-14)"/><path class="st1" d="M1302.9,735.4c0.6,11.7-5.7,22.9-14.2,31c-8.5,8.1-19.1,13.5-29.6,18.8c10.1,3,20.7-1.8,29.9-6.9&#10;&#9;&#9;&#9;&#9;c9.2-5.1,18.4-11,24-19.9c5.6-8.9,6.3-21.7-1-29.3" style="fill: rgb(142, 247, 248);" transform="matrix(1, 0, 0, 1, 8.526512829121202e-14, 2.1316282072803006e-14)"/><path class="st14" d="M107.8,235.2c28.5-1.5,57-4.5,85.2-8.9c-17.9-5.5-37.9-15.2-41.2-33.6c-2-11.4,3.5-23.2,12.2-30.8&#10;&#9;&#9;&#9;c8.7-7.6,20.1-11.4,31.5-13c13.9-2,29.5-0.5,39.6,9.3c14.6,14.1,11.4,38.4,3.9,57.3c4.7-19,24.9-32.7,44.3-30.2&#10;&#9;&#9;&#9;c4.7,0.6,9.8,2.6,11.4,7c3.5,9.5-11.4,15.1-15.4,24.4c8.5-4.1,16.1-10,24.8-13.6c8.7-3.6,19.5-4.5,27,1.2&#10;&#9;&#9;&#9;c7.5,5.7,8.3,19.5-0.1,23.7c23.9,3.4,47.9,6.7,71.8,10.1c-25.2,3-50.7,3.1-76.1,3.2c-72,0.2-143.9,0.5-215.9,0.7&#10;&#9;&#9;&#9;c-3.1,0-7.4-3.4-4.7-4.9L107.8,235.2z" style="fill: rgb(255, 255, 255);" transform="matrix(1, 0, 0, 1, 5.684341886080802e-14, 1.4210854715202004e-14)"/><path class="st14" d="M52.6,625.7c15.7,0.7,31.5-0.8,46.8-4.4c-5.8-0.7-11.6-1.5-17.4-2.2c-1.7-0.2-3.6-0.6-4.6-2&#10;&#9;&#9;&#9;c-2.3-3.3,2.7-6.8,6.7-7.4c7.5-1.1,15.2-0.7,22.6,1.2c-9.2-11-18.8-22.9-20.5-37.2c-1.7-14.3,8.5-30.8,22.9-30.1&#10;&#9;&#9;&#9;c12.5,0.6,21,13.4,23.5,25.6c2.5,12.2,1.2,25.1,4.5,37.1c0.5-11.7,13.2-21.8,24.4-18.3c11.2,3.5,15.3,20.8,6,28&#10;&#9;&#9;&#9;c22.7-2.3,46,0.2,67.7,7.3c-10.9,1.3-21.8,2.5-32.7,3.8c-52.9,6.2-107,12.3-159.1,1.2L52.6,625.7z" style="fill: rgb(255, 255, 255);" transform="matrix(1, 0, 0, 1, 5.684341886080802e-14, 1.4210854715202004e-14)"/><path class="st14" d="M1165.4,194.4c17.9-0.4,36.8-12.1,54.7-10.9c-3.3-5.6-8.5-9.9-14.6-12.1c-1.3-6,6-11,12.1-9.9&#10;&#9;&#9;&#9;c6.1,1.1,10.7,5.9,14.9,10.4c0.7-7.4,1.5-15.1,5.4-21.4c3.9-6.3,11.9-10.7,18.9-8c5.3,2.1,8.5,7.7,9.3,13.4&#10;&#9;&#9;&#9;c0.8,5.6-0.5,11.3-1.7,16.9c5.4,1.3,11.1-2.1,14.3-6.6c3.2-4.5,4.6-10.1,6.5-15.3c3.6-10.3,9.2-20.1,18-26.6&#10;&#9;&#9;&#9;c2.5-1.9,5.5-3.5,8.6-3.6c9.6-0.4,14.2,12.1,13.4,21.7c-1.4,15.4-9.4,30.1-21.6,39.7c14.8-2.3,30.3-0.3,44,5.8&#10;&#9;&#9;&#9;c-9.7,6.2-21.9,6.7-33.5,7C1274,195.7,1205.3,193.4,1165.4,194.4z" style="fill: rgb(255, 255, 255);" transform="matrix(1, 0, 0, 1, 5.684341886080802e-14, 1.4210854715202004e-14)"/><path class="st14" d="M1266.4,612c-7-1.6-14.3-3.8-19.4-8.9c-5.1-5.1-7.2-13.9-2.7-19.6c4.4-5.6,13.5-5.7,19.4-1.7&#10;&#9;&#9;&#9;c5.9,4.1,9,11.1,10.5,18.1c-0.4-7.3-0.3-15.1,3.5-21.4c3.8-6.3,12.8-9.9,18.8-5.7c7.3,5,5.3,16.1,2.5,24.5c5-8.1,8.5-17,13.9-24.8&#10;&#9;&#9;&#9;c5.4-7.8,13.2-14.7,22.6-15.8c9.4-1,20,5.9,20.1,15.3c0.2,12.9-15.8,18.9-23.7,29.1c14.2-1.8,28.7-0.8,42.5,3.1&#10;&#9;&#9;&#9;c0.2,3-3.7,4.2-6.7,4.5c-51,4.3-102,8.5-153,12.8c10.1-2.1,20.2-4.2,30.3-6.3L1266.4,612z" style="fill: rgb(255, 255, 255);" transform="matrix(1, 0, 0, 1, 5.684341886080802e-14, 1.4210854715202004e-14)"/>

</svg>