<?xml version="1.0" encoding="utf-8"?>
<svg id="master-artboard" viewBox="0 0 3000 2000" version="1.1" xmlns="http://www.w3.org/2000/svg" x="0px" y="0px" width="3000px" height="2000px" style="enable-background:new 0 0 3000 2000;">

<radialGradient id="SVGID_1_" cx="1513" cy="1045" r="2504.0127" gradientUnits="userSpaceOnUse">
		<stop offset="0.2595" style="stop-color:#F2FFFC"/>
		<stop offset="0.3632" style="stop-color:#DBFFFC"/>
		<stop offset="0.5816" style="stop-color:#9FFDFE"/>
		<stop offset="0.8486" style="stop-color:#4EFCFF"/>
	</radialGradient><path d="M 0 0 H 3000 V 2000 H 0 V 0 Z" class="st0" style="fill: url('#SVGID_1_');" transform="matrix(1, 0, 0, 1, 0, 0)"/><path class="st1" d="M2121.4,704l54.2,27.4L2200,706l-12.6,31.2l39.9,20.2l26.6-37.1l-17.5,41.7l12.6,6.4l13.6-27l-5.9,30.9&#10;&#9;&#9;l76.1,38.4c-84.6-14-128.5,24.4-160.1,83.2l43.1-15.3l-0.4-26.8l9.8,23.5l31.8-11.3l-5.4-34.3l12.7,31.7l10-3.6l-7-21.8l13.1,19.6&#10;&#9;&#9;l53.7-19c0,0,0,0.1,0,0.1c-0.2,0.3-0.5,0.7-0.7,1.1c-0.1,0.1-0.1,0.2-0.2,0.4c-0.2,0.4-0.5,0.9-0.7,1.4c-0.4,0.9-0.6,1.8-0.9,2.7&#10;&#9;&#9;c-55.5,42-43.3,103.1-43.3,103.1l25.9-39.7l-10-12.6l13.5,7.2l8.4-12.8l-7.3-8.9l9.6,5.4l12.5-19.2c0.2,0.1,0.5,0.2,0.7,0.2&#10;&#9;&#9;c0.1,0,0.1,0,0.2,0.1c0.4,0.1,0.8,0.2,1.3,0.3c0.1,0,0.1,0,0.2,0c2.3,0.4,4.6,0.2,6.8-0.5c-0.8,5.3-1.5,10.6-2.1,15.9&#10;&#9;&#9;c-1,10.2-1.6,20.4-2,30.6c-0.2,5.1-0.3,10.2-0.3,15.3c0,0,0,0.1,0,0.1c0,5.1,0,10.2,0.2,15.3c0.5,12.8,1.3,25.5,2.6,38.2&#10;&#9;&#9;c0.8,7.6,1.7,15.2,2.7,22.8c0.7,5.1,1.5,10.1,2.4,15.1c2.5,15.1,5.5,30.1,8.9,45c3.2,13.8,6.8,27.4,10.8,41&#10;&#9;&#9;c7.4,25.5,15.9,50.7,25.5,75.5c1.4,3.7,2.9,7.4,4.4,11.1c1.1,2.6,2.1,5.2,3.2,7.9v0c0.3,0.6,0.5,1.3,0.8,1.9&#10;&#9;&#9;c3.5,8.5,7.2,17,10.9,25.4c1.5,3.3,2.9,6.6,4.4,9.9c2.7,5.7,5.4,11.4,8.1,17.1c1.7,3.5,3.4,6.9,5.1,10.4c1.1,2.3,2.3,4.6,3.5,6.8&#10;&#9;&#9;s2.3,4.5,3.5,6.8l3.6,6.8c1.3,2.3,2.4,4.5,3.9,7l32.1-20.5c-1.1-1.8-2.5-3.9-3.7-5.9l-3.7-6.2c-2.5-4.2-4.9-8.4-7.3-12.6&#10;&#9;&#9;c-3.3-5.7-6.4-11.5-9.5-17.3c0,0,0,0,0,0c-0.6-1.2-1.3-2.4-1.9-3.6c0,0,0,0,0,0c-0.9-1.6-1.7-3.2-2.6-4.8&#10;&#9;&#9;c-6.2-11.9-12.2-24-17.9-36.1c-0.5-1.2-1.1-2.3-1.6-3.5c0,0,0,0,0,0c-2.1-4.4-4.1-8.9-6.1-13.3c-4-8.9-7.8-17.8-11.5-26.8&#10;&#9;&#9;c0,0,0,0,0,0c-0.5-1.3-1-2.6-1.6-3.9c0,0,0,0,0,0c-6.3-15.7-12.2-31.6-17.6-47.7c0,0,0,0,0,0c-0.4-1.3-0.9-2.6-1.3-3.8c0,0,0,0,0,0&#10;&#9;&#9;c-3.1-9.4-6-18.8-8.7-28.2c-1.2-4.3-2.4-8.7-3.6-13.1c0,0,0,0,0,0c-0.3-1.3-0.7-2.6-1-3.9c0,0,0,0,0,0c-3.4-13.3-6.5-26.8-9.2-40.3&#10;&#9;&#9;c-0.1-0.5-0.2-1-0.3-1.5c0,0,0,0,0,0c-0.2-1.3-0.5-2.7-0.7-4c0,0,0,0,0,0c-1.7-9.4-3.1-18.7-4.3-28.2c0,0,0,0,0,0&#10;&#9;&#9;c-0.2-1.4-0.4-2.8-0.5-4.2c0,0,0,0,0,0c-0.8-6.8-1.6-13.6-2.2-20.5c-0.4-5.3-0.7-10.7-0.9-16c0,0,0,0,0,0c-0.1-1.3-0.1-2.7-0.1-4&#10;&#9;&#9;c0,0,0,0,0,0c-0.3-9.5-0.4-19.1-0.2-28.6c0,0,0,0,0,0c0-1.4,0.1-2.7,0.1-4.1c0,0,0,0,0,0c0.1-2,0.1-4,0.2-6.1&#10;&#9;&#9;c0.2-2.5,0.3-5,0.5-7.4c4.4,4.5,10.6,7.2,16.3,5.5c0.5-0.2,1-0.3,1.5-0.6c0.2-0.1,0.3-0.2,0.5-0.3c0.3-0.1,0.6-0.3,0.9-0.5&#10;&#9;&#9;c0.2-0.1,0.4-0.3,0.6-0.4c0.1-0.1,0.3-0.2,0.4-0.3l4.2,13l10.7-2.6l-9.4,6.6l4.7,14.6l14.9-3.3l-12.9,9.4l14.5,45.4&#10;&#9;&#9;c0,0,32.8-65.3-26.9-125.2l13.6,10.6l21.7-15.1l-13.9,21.2l26.7,20.9l25.1-23.4l-19,28.2l8.4,6.6l14-17.9l-8.8,22l80.8,63.4&#10;&#9;&#9;c-28.9-104.4-81.6-134.1-146.2-135.2l28.1-7.9l1.4-30.1l9.3,27.1l36.5-10.3l-3.7-38.9l12,36.6l11.5-3.3l-6.3-25l13.4,23l110.7-31.3&#10;&#9;&#9;c-99.6-39.4-159.6-21.1-203.2,25l-11.1-13.9l15.2,8.2l9.4-14.4l-8.3-10.1l10.9,6.1l45.8-70.2c-55.2,21.6-78,56.5-86.9,86&#10;&#9;&#9;c-7.9-74.7-69-98.7-69-98.7l21.2,49.4l17.8-2l-14.9,8.7l6.8,15.9l12.8-1.7l-10.9,6l14.9,34.9C2284.2,686.7,2206.6,679.4,2121.4,704&#10;&#9;&#9;z" style="fill: rgb(159, 247, 249);" transform="matrix(1, 0, 0, 1, 0, 0)"/><path class="st1" d="M575.8,847.8l54.8,23.6l24.6-21.8l-12.8,26.9l40.4,17.4l26.9-31.9l-17.7,35.9l12.7,5.5l13.8-23.2l-6,26.6&#10;&#9;&#9;l76.9,33.1c-85.5-12.1-129.8,21-161.8,71.6l43.6-13.2l-0.5-23l9.9,20.2l32.1-9.7l-5.5-29.5l12.8,27.3l10.1-3.1l-7.1-18.8l13.3,16.9&#10;&#9;&#9;l54.2-16.4c0,0,0,0,0,0.1c-0.2,0.3-0.5,0.6-0.7,0.9c-0.1,0.1-0.1,0.2-0.2,0.3c-0.2,0.4-0.5,0.8-0.7,1.2c-0.4,0.7-0.6,1.5-0.9,2.3&#10;&#9;&#9;c-56.1,36.1-43.7,88.7-43.7,88.7l26.2-34.2l-10.1-10.8l13.6,6.2l8.4-11l-7.4-7.7l9.7,4.7l12.7-16.5c0.2,0.1,0.5,0.1,0.7,0.2&#10;&#9;&#9;c0.1,0,0.1,0,0.2,0.1c0.4,0.1,0.8,0.2,1.3,0.3c0.1,0,0.1,0,0.2,0c2.3,0.3,4.6,0.2,6.9-0.4c-0.8,4.5-1.5,9.1-2.1,13.7&#10;&#9;&#9;c-1,8.8-1.7,17.6-2,26.4c-0.2,4.4-0.3,8.8-0.3,13.1c0,0,0,0.1,0,0.1c0,4.4,0,8.8,0.2,13.2c0.5,11,1.4,22,2.6,32.9&#10;&#9;&#9;c0.8,6.6,1.7,13.1,2.7,19.6c0.7,4.3,1.5,8.7,2.4,13c2.5,13,5.5,25.9,9,38.8c3.3,11.9,6.9,23.6,10.9,35.3c7.4,22,16.1,43.7,25.8,65&#10;&#9;&#9;c1.5,3.2,2.9,6.4,4.4,9.6c1.1,2.3,2.1,4.5,3.2,6.8v0c0.3,0.5,0.5,1.1,0.8,1.6c3.6,7.3,7.2,14.6,11,21.9c1.5,2.8,3,5.7,4.5,8.5&#10;&#9;&#9;c2.7,4.9,5.4,9.9,8.2,14.8c1.7,3,3.4,6,5.2,9c1.2,2,2.3,3.9,3.5,5.9c1.2,2,2.4,3.9,3.6,5.9l3.7,5.9c1.3,2,2.5,3.9,3.9,6l32.4-17.6&#10;&#9;&#9;c-1.1-1.5-2.5-3.4-3.7-5.1l-3.8-5.3c-2.5-3.6-5-7.2-7.4-10.9c-3.3-4.9-6.5-9.9-9.6-14.9c0,0,0,0,0,0c-0.6-1-1.3-2-1.9-3.1&#10;&#9;&#9;c0,0,0,0,0,0c-0.9-1.4-1.7-2.8-2.6-4.1c-6.3-10.2-12.3-20.6-18.1-31.1c-0.6-1-1.1-2-1.7-3c0,0,0,0,0,0c-2.1-3.8-4.1-7.6-6.1-11.5&#10;&#9;&#9;c-4-7.6-7.9-15.3-11.6-23.1c0,0,0,0,0,0c-0.5-1.1-1-2.2-1.6-3.3c0,0,0,0,0,0c-6.4-13.5-12.3-27.2-17.8-41.1c0,0,0,0,0,0&#10;&#9;&#9;c-0.4-1.1-0.9-2.2-1.3-3.3c0,0,0,0,0,0c-3.1-8.1-6.1-16.2-8.8-24.3c-1.2-3.7-2.4-7.5-3.6-11.2c0,0,0,0,0,0c-0.3-1.1-0.7-2.2-1-3.4&#10;&#9;&#9;c0,0,0,0,0,0c-3.5-11.5-6.6-23.1-9.3-34.7c-0.1-0.4-0.2-0.9-0.3-1.3c0,0,0,0,0,0c-0.2-1.1-0.5-2.3-0.7-3.4c0,0,0,0,0,0&#10;&#9;&#9;c-1.7-8-3.1-16.1-4.4-24.2c0,0,0,0,0,0c-0.2-1.2-0.4-2.4-0.5-3.6c0,0,0,0,0,0c-0.8-5.9-1.6-11.7-2.2-17.6c-0.4-4.6-0.7-9.2-1-13.8&#10;&#9;&#9;c0,0,0,0,0,0c-0.1-1.2-0.1-2.3-0.1-3.5c0,0,0,0,0,0c-0.3-8.2-0.4-16.4-0.2-24.6c0,0,0,0,0,0c0-1.2,0.1-2.3,0.1-3.5c0,0,0,0,0,0&#10;&#9;&#9;c0.1-1.7,0.1-3.5,0.2-5.2c0.2-2.1,0.3-4.3,0.5-6.4c4.4,3.9,10.7,6.2,16.5,4.7c0.5-0.1,1-0.3,1.5-0.5c0.2-0.1,0.3-0.1,0.5-0.2&#10;&#9;&#9;c0.3-0.1,0.6-0.3,0.9-0.4c0.2-0.1,0.4-0.2,0.6-0.3c0.1-0.1,0.3-0.2,0.5-0.3l4.2,11.2l10.8-2.2l-9.5,5.7l4.7,12.6l15-2.8l-13.1,8.1&#10;&#9;&#9;l14.7,39.1c0,0,33.2-56.2-27.2-107.8l13.7,9.2l21.9-13l-14,18.3l26.9,18l25.3-20.2L896.9,998l8.5,5.7l14.1-15.4l-8.9,18.9&#10;&#9;&#9;l81.6,54.6C963,972,909.7,946.3,844.4,945.4l28.4-6.8l1.4-26l9.4,23.3l36.9-8.9l-3.7-33.5l12.1,31.5l11.6-2.8l-6.4-21.5l13.5,19.8&#10;&#9;&#9;l111.9-26.9c-100.6-33.9-161.3-18.2-205.3,21.5l-11.2-12l15.4,7l9.5-12.4l-8.4-8.7l11,5.3l46.3-60.4c-55.8,18.6-78.8,48.6-87.8,74&#10;&#9;&#9;c-8-64.3-69.7-85-69.7-85l21.4,42.5l18-1.8l-15.1,7.5l6.9,13.7l12.9-1.5l-11,5.2l15.1,30C740.2,832.9,661.8,826.6,575.8,847.8z" style="fill: rgb(159, 247, 249);" transform="matrix(1, 0, 0, 1, 0, 0)"/><path class="st2" d="M40.8,825.1l116.1,22.6l11.5-25.5l-4.1,26.9l12.1,2.3l8.7-39.6l0,41.3l38.3,7.4l6.9-29.4l4.3,31.6l29.4,5.7&#10;&#9;&#9;c-65.9,7.2-116.9,43.4-136.4,155.8l76.4-74.2L193,927.8l16,17.5l8-7.7l-22.1-27.9l27.9,22.3l25.2-24.5l-16.2-21l23.6,13.8&#10;&#9;&#9;l12.8-12.5c-55.2,68.6-15.4,134.2-15.4,134.2l10.5-49.1l-14.1-8.6l15.5,2l3.4-15.8l-10.3-6l11.2,1.7l3-14c0.2,0.1,0.3,0.2,0.5,0.3&#10;&#9;&#9;c0.2,0.1,0.4,0.2,0.6,0.3c0.3,0.2,0.6,0.3,1,0.4c0.2,0.1,0.4,0.2,0.5,0.2c0.5,0.2,1,0.3,1.6,0.4c6,1.2,12.1-2.1,16.2-7.3&#10;&#9;&#9;c0.4,2.6,0.9,5.2,1.2,7.8c0.3,2.1,0.6,4.2,0.8,6.4c0,0,0,0,0,0c0.2,1.4,0.4,2.9,0.5,4.3c0,0,0,0,0,0c1.2,10,2,20,2.6,30.1&#10;&#9;&#9;c0,0,0,0,0,0c0.1,1.4,0.2,2.8,0.3,4.2c0,0,0,0,0,0c0.3,5.6,0.5,11.3,0.6,16.9c0,7.2,0,14.5-0.2,21.7c0,0,0,0,0,0&#10;&#9;&#9;c0,1.5-0.1,3-0.1,4.5c0,0,0,0,0,0c-0.3,10-0.9,20-1.7,30c0,0,0,0,0,0c-0.1,1.4-0.2,2.8-0.3,4.3c0,0,0,0,0,0c0,0.5-0.1,1.1-0.1,1.6&#10;&#9;&#9;c-1.4,14.5-3.3,28.9-5.5,43.2c0,0,0,0,0,0c-0.2,1.4-0.4,2.8-0.7,4.2c0,0,0,0,0,0c-0.8,4.7-1.5,9.4-2.4,14.1&#10;&#9;&#9;c-1.9,10.2-4,20.4-6.2,30.5c0,0,0,0,0,0c-0.3,1.4-0.6,2.8-1,4.2c0,0,0,0,0,0c-3.9,17.4-8.4,34.7-13.4,51.8c0,0,0,0,0,0&#10;&#9;&#9;c-0.4,1.4-0.8,2.8-1.2,4.2c0,0,0,0,0,0c-2.9,9.8-5.9,19.6-9.1,29.3c-1.6,4.9-3.3,9.8-4.9,14.6c0,0,0,0,0,0&#10;&#9;&#9;c-0.4,1.3-0.9,2.5-1.3,3.8c-4.7,13.3-9.6,26.6-14.8,39.7c-0.7,1.8-1.4,3.5-2.2,5.3c0,0,0,0,0,0c-0.5,1.3-1.1,2.6-1.6,3.9&#10;&#9;&#9;c0,0,0,0,0,0c-2.6,6.4-5.3,12.8-8.1,19.1c-2,4.7-4.1,9.3-6.3,13.9l-3.2,6.9c-1.1,2.2-2.2,4.6-3.2,6.5l34.8,18.5&#10;&#9;&#9;c1.2-2.8,2.2-5.2,3.3-7.7l3.1-7.5c1-2.5,2-5,3-7.5c1-2.5,1.9-5,2.9-7.5c1.5-3.8,2.9-7.6,4.2-11.4c2.3-6.2,4.5-12.5,6.6-18.8&#10;&#9;&#9;c1.2-3.6,2.4-7.2,3.6-10.8c3-9.2,5.9-18.5,8.7-27.8c0.2-0.7,0.4-1.4,0.6-2.1l0,0c0.8-2.8,1.7-5.7,2.5-8.6c1.2-4,2.3-8.1,3.4-12.1&#10;&#9;&#9;c7.4-26.9,13.7-54.2,18.8-81.7c2.7-14.6,5.1-29.4,7-44.1c2-16,3.6-32.1,4.8-48.2c0.4-5.4,0.7-10.7,0.9-16.1&#10;&#9;&#9;c0.3-8.1,0.5-16.2,0.5-24.3c0.1-13.5-0.3-27-1-40.4c-0.4-5.4-0.8-10.8-1.3-16.2c0,0,0-0.1,0-0.1c-0.5-5.3-1.1-10.7-1.8-16&#10;&#9;&#9;c-1.3-10.7-3-21.4-5-32c-1.1-5.5-2.3-11-3.7-16.5c2.4,0.5,4.8,0.5,7-0.1c0.1,0,0.1,0,0.2,0c0.4-0.1,0.8-0.3,1.3-0.4&#10;&#9;&#9;c0.1,0,0.1-0.1,0.2-0.1c0.2-0.1,0.5-0.2,0.7-0.3l14.7,19l9.3-6.6l-6.6,10.1l9.8,12.7l13.1-8.9l-9,14.1l30.3,39.4&#10;&#9;&#9;c0,0,6.7-65.4-54.1-104.3c-0.3-0.9-0.7-1.9-1.1-2.7c-0.3-0.5-0.5-1-0.8-1.4c-0.1-0.1-0.2-0.2-0.2-0.4c-0.2-0.4-0.5-0.7-0.8-1.1&#10;&#9;&#9;c0,0,0-0.1-0.1-0.1l56.7,15l11.5-21.8l-5,23.6l10.6,2.8l9.9-34.5l-2.3,36.5l33.5,8.9l7.7-25.6l2.1,28.2l45.5,12&#10;&#9;&#9;c-38-58.8-86.5-95.1-171.6-72.5l74.1-47.5l-9-31.9l16.5,27.1l12.3-7.9l-21.9-42.2l30.8,36.5l38.9-24.9l-15.9-31.6l27.3,24.3&#10;&#9;&#9;l52.8-33.8c-89.4-17.8-168-2.9-226.3,107.9l11.9-38l-11.7-5.3l13.2,0.6l5.4-17.4l-16.1-7.7l18.4,0.5l16.9-53.9c0,0-60,31-61,110.3&#10;&#9;&#9;c-12-30.2-38.6-64.7-97.1-82.3l53.5,69.5l10.5-7.4l-7.5,11.4l11,14.3l14.8-10l-10,15.7C201.9,788,138.8,774.4,40.8,825.1z" style="fill: rgb(124, 236, 242);" transform="matrix(1, 0, 0, 1, 0, 0)"/><path class="st3" d="M2168.5,1266.4c-0.2,6.3,5.3,12,13.7,15c-6.6,4.7-10.2,11-8.6,16.8c2.3,8.6,15.3,12.5,29,8.8&#10;&#9;&#9;&#9;c1-0.3,1.9-0.6,2.8-0.9l98.9-2.8c13.2-0.4,24.1-6.7,26-14.7c6.5-3.2,10.6-8.2,10.5-13.8c-0.2-5.8-4.9-10.7-12.1-13.5&#10;&#9;&#9;&#9;c1.1-1.1,1.9-2.4,2.3-3.9c1.6-6-4-12.9-12.9-16.4c1.8-2.7,2.5-5.5,1.7-8.2c-1.4-5.1-7.6-8.1-15.1-8c-1-8.1-11.7-14.9-25-15.4&#10;&#9;&#9;&#9;c-1,0-2,0-2.9,0c1.3-1.2,2.3-2.7,3.2-4.3c2.3-4.5,2.3-9.5,0.5-13.7c-4.5,1.1-8.5,4-10.8,8.5c-0.8,1.6-1.3,3.3-1.6,5&#10;&#9;&#9;&#9;c-0.1-0.1-0.1-0.2-0.1-0.3c-0.8-1.3-1.9-2.4-3.2-3.3c1.1-1.9,1.9-3.9,2.3-6.2c1.2-5.9-0.4-11.7-3.9-16c-4.9,2.7-8.5,7.4-9.7,13.3&#10;&#9;&#9;&#9;c-0.4,2.2-0.5,4.5-0.2,6.6c-4.8,0.4-10.1,2.2-15.1,5.3c-9.8,6-15.5,15.2-14.6,22.4c-2.5,0-5.1,0.3-7.7,0.8&#10;&#9;&#9;&#9;c-3.4,0.6-6.6,1.6-9.6,2.8c-0.1-1.5-0.4-3.1-0.9-4.6c-1.6-4.6-5.2-8-9.4-9.6c-2.3,3.9-2.9,8.8-1.2,13.4c0.7,2.1,1.9,3.9,3.3,5.5&#10;&#9;&#9;&#9;c-1.2,0.9-2.4,1.9-3.4,2.9c-0.4-0.6-0.9-1.2-1.5-1.7c-2.9-2.8-6.7-4-10.4-3.7c-0.3,3.7,1,7.5,3.9,10.3c1,0.9,2,1.7,3.2,2.3&#10;&#9;&#9;&#9;c-0.7,2.1-1,4.2-0.7,6.3C2177.6,1252.7,2168.8,1258.8,2168.5,1266.4z" style="fill: rgb(44, 147, 100);" transform="matrix(1, 0, 0, 1, 0, 0)"/><g transform="matrix(1, 0, 0, 1, 0, 0)">
				<path class="st3" d="M2204.1,1140c0,0,34.5,43.5,35.4,72.3h14.6C2254,1212.3,2254.4,1151.3,2204.1,1140z" style="fill: rgb(44, 147, 100);"/>
				<path class="st3" d="M2248.2,1214.1c0,0-20.5-50.4-60.6-44.8c0,0,39.7,25.6,50.1,49.1L2248.2,1214.1z" style="fill: rgb(44, 147, 100);"/>
				<path class="st3" d="M2245.8,1213.9l8.7,0.5c2.1-25.6,24.9-63.1,24.9-63.1C2248.8,1159.5,2245.8,1213.9,2245.8,1213.9z" style="fill: rgb(44, 147, 100);"/>
			</g><g transform="matrix(1, 0, 0, 1, 0, 0)">
				<path class="st4" d="M2315.3,1277.9c0.4,1.9,1.5,3.5,2.9,4.9c-0.5,1.6-0.6,3.2-0.4,4.9c1.4,9.2,14.5,14.9,29.2,12.7&#10;&#9;&#9;&#9;&#9;&#9;c0.8-0.1,1.6-0.3,2.4-0.4l0,0l113.3,0.4l0-0.6c12.5,0.9,23.1-4.8,23.7-12.6c0.2-2.6-0.8-5.1-2.6-7.4c7.4-2.5,12.5-7.4,12.5-13&#10;&#9;&#9;&#9;&#9;&#9;c0-4.5-3.1-8.5-8.1-11.2c1.7-2,2.6-4.3,2.7-6.8c0-4.2-2.8-8-7.3-10.7c3.4-2,5.7-5.3,6.6-8.9c-3.7-1.5-7.9-1.5-11.7,0.4&#10;&#9;&#9;&#9;&#9;&#9;c-2.2,1.1-4,2.8-5.3,4.8c-1.7-0.3-3.5-0.4-5.3-0.5c0.8-0.7,1.5-1.4,2.2-2.3c3.1-4,4.2-9,3.2-13.6c-4.7,0.2-9.3,2.4-12.5,6.4&#10;&#9;&#9;&#9;&#9;&#9;c-0.5,0.6-0.9,1.3-1.3,2c-2.4-3.5-6.8-6.7-12.4-8.4c-1-0.3-1.9-0.5-2.9-0.7c1-1.9,1.4-3.9,0.9-5.8c-1.1-4.5-6.3-7.3-12.8-7.5&#10;&#9;&#9;&#9;&#9;&#9;c0.8-0.8,1.5-1.7,2.2-2.6c2.7-4.1,3.3-9.1,2-13.5c-4.6,0.6-8.9,3-11.6,7.2c-0.9,1.4-1.6,3-2.1,4.5c-0.8-1.3-1.8-2.5-3.1-3.6&#10;&#9;&#9;&#9;&#9;&#9;c1.3-1.8,2.1-3.8,2.5-6.1c0.7-4.4-0.6-8.7-3.3-11.9c-3.6,2.1-6.2,5.8-6.9,10.2c-0.2,1.1-0.2,2.3-0.2,3.4c-2.7-1-5.8-1.6-9.1-1.9&#10;&#9;&#9;&#9;&#9;&#9;c-10.4-0.7-19.5,3-22.6,8.8c-0.5-0.7-1.1-1.4-1.8-2c-3.6-3.4-8.4-4.9-13-4.4c-0.3,4.6,1.4,9.3,5,12.8c1.8,1.7,4,3,6.2,3.7&#10;&#9;&#9;&#9;&#9;&#9;c-1.4,0.4-2.9,1-4.3,1.6c-1.1-1.2-2.4-2.2-4-3c-3.5-1.7-7.3-1.6-10.6-0.1c0.9,3.4,3.2,6.4,6.6,8.1c-1.4,1.1-2.6,2.3-3.6,3.6&#10;&#9;&#9;&#9;&#9;&#9;c-2.5-0.8-5.3-1.4-8.2-1.6c-12.5-0.9-23.1,4.8-23.7,12.6c-0.2,3,1.1,5.9,3.5,8.4c-5.3,3.9-8.3,9.1-7.6,14.2&#10;&#9;&#9;&#9;&#9;&#9;c0.5,3.1,2.2,5.7,4.9,7.9C2319.9,1263.9,2313.7,1271.3,2315.3,1277.9z" style="fill: rgb(61, 170, 123);"/>
			</g><g transform="matrix(1, 0, 0, 1, 0, 0)">
				<path class="st4" d="M2458.2,1260.2c0,6.9,6.3,12.8,15.4,15.9c-2.2,2.7-3.4,5.8-3.2,9c0.7,9.6,13.7,16.4,29.2,15.4l0,0.7&#10;&#9;&#9;&#9;&#9;&#9;l139.7-0.4l0,0c1,0.2,2,0.4,3,0.5c18.2,2.7,34.3-4.2,36-15.4c0.3-2,0.1-4-0.5-5.9c1.8-1.7,3.1-3.7,3.6-5.9&#10;&#9;&#9;&#9;&#9;&#9;c2-8.1-5.6-17.1-17.5-21.6c3.3-2.6,5.5-5.8,6-9.6c1-6.3-2.7-12.5-9.3-17.3c2.9-3,4.5-6.5,4.3-10.2c-0.7-9.6-13.7-16.4-29.2-15.4&#10;&#9;&#9;&#9;&#9;&#9;c-3.6,0.3-7,0.9-10.1,1.9c-1.3-1.5-2.8-3-4.5-4.3c4.2-2,7-5.7,8.1-9.8c-4-1.8-8.8-1.9-13.1,0.1c-1.9,0.9-3.6,2.1-4.9,3.6&#10;&#9;&#9;&#9;&#9;&#9;c-1.8-0.8-3.5-1.4-5.3-2c2.8-0.9,5.4-2.4,7.7-4.5c4.5-4.2,6.5-9.9,6.2-15.6c-5.7-0.6-11.6,1.2-16,5.4c-0.8,0.8-1.6,1.6-2.2,2.5&#10;&#9;&#9;&#9;&#9;&#9;c-3.8-7.1-15-11.7-27.8-10.8c-4,0.3-7.8,1.1-11.2,2.3c0.1-1.3,0-2.7-0.2-4.1c-0.9-5.4-4.2-9.8-8.6-12.5c-3.3,3.9-5,9.1-4.1,14.5&#10;&#9;&#9;&#9;&#9;&#9;c0.5,2.8,1.5,5.3,3.1,7.5c-1.6,1.3-2.9,2.8-3.8,4.4c-0.5-1.9-1.4-3.8-2.5-5.5c-3.4-5-8.7-8.1-14.3-8.7&#10;&#9;&#9;&#9;&#9;&#9;c-1.6,5.4-0.9,11.4,2.5,16.4c0.8,1.2,1.7,2.3,2.7,3.2c-8.1,0.3-14.5,3.7-15.8,9.1c-0.6,2.3-0.1,4.8,1.1,7.1&#10;&#9;&#9;&#9;&#9;&#9;c-1.2,0.2-2.4,0.5-3.5,0.9c-6.9,2-12.4,5.9-15.3,10.2c-0.5-0.8-1-1.6-1.6-2.4c-3.9-4.9-9.6-7.5-15.4-7.8&#10;&#9;&#9;&#9;&#9;&#9;c-1.2,5.6,0.1,11.7,3.9,16.6c0.8,1,1.7,1.9,2.7,2.8c-2.2,0-4.4,0.2-6.5,0.6c-1.6-2.4-3.8-4.4-6.6-5.8c-4.7-2.4-10-2.4-14.5-0.5&#10;&#9;&#9;&#9;&#9;&#9;c1.1,4.4,3.9,8.4,8.1,10.8c-5.6,3.3-9,8-9,13.1c0,3,1.2,5.8,3.3,8.3C2462,1249.8,2458.2,1254.7,2458.2,1260.2z" style="fill: rgb(61, 170, 123);"/>
			</g><path class="st3" d="M2741.6,451.5c-176.4,67.6-145.5,218.3-145.5,218.3l46.8-70.2l-18-22.2l24.3,12.8l15.1-22.6l-13.2-15.7&#10;&#9;&#9;&#9;l17.4,9.6L2741.6,451.5z" style="fill: rgb(44, 147, 100);" transform="matrix(1, 0, 0, 1, 0, 0)"/><path class="st4" d="M2597.5,671.9c38.4-185-105.1-240.4-105.1-240.4l33.8,77.3l28.4-3.2l-23.9,13.6l10.9,24.9l20.4-2.6l-17.4,9.5&#10;&#9;&#9;&#9;L2597.5,671.9z" style="fill: rgb(61, 170, 123);" transform="matrix(1, 0, 0, 1, 0, 0)"/><path class="st4" d="M2597.8,661.2c-156.3,59.8-128.9,193.4-128.9,193.4l41.5-62.2l-16-19.7l21.5,11.3l13.4-20l-11.7-13.9&#10;&#9;&#9;&#9;l15.4,8.5L2597.8,661.2z" style="fill: rgb(61, 170, 123);" transform="matrix(1, 0, 0, 1, 0, 0)"/><path class="st4" d="M2666.6,879.6c0,0,62.3-121.3-72.2-220.9l36.3,111.1l17.1-4l-15.1,10.3l7.5,22.9l23.8-5.1l-20.7,14.6&#10;&#9;&#9;&#9;L2666.6,879.6z" style="fill: rgb(61, 170, 123);" transform="matrix(1, 0, 0, 1, 0, 0)"/><path class="st5" d="M2603.4,664.5l-21.1-5.4c-8.3,30.9-14.3,62.5-17.9,94.4c-3.1,31.9-4.3,64-3.4,96c1.2,32,4,63.9,8.4,95.6&#10;&#9;&#9;&#9;&#9;c4.7,31.6,10.7,63,18,94.2c15,62.1,34.4,123.1,58,182.4c11.7,29.7,24.4,59,37.9,88c6.9,14.4,13.8,28.9,21.2,43.1&#10;&#9;&#9;&#9;&#9;c3.7,7.1,7.4,14.3,11.2,21.4l5.8,10.7c2,3.6,3.9,7,6.2,10.9l51.3-32.1c-1.8-2.7-3.9-6.1-5.9-9.2l-6-9.7&#10;&#9;&#9;&#9;&#9;c-4-6.5-7.8-13.1-11.7-19.7c-7.7-13.2-15.1-26.7-22.4-40.3c-14.5-27.2-28.1-54.8-40.9-82.9c-25.7-56.1-47.5-113.9-65-173&#10;&#9;&#9;&#9;&#9;c-8.5-29.6-15.9-59.5-22-89.7c-5.8-30.2-10.1-60.7-12.8-91.3c-2.4-30.6-2.9-61.4-1.5-92.1C2592.8,725,2596.9,694.5,2603.4,664.5z&#10;&#9;&#9;&#9;&#9;" style="fill: rgb(214, 144, 105);" transform="matrix(1, 0, 0, 1, 0, 0)"/><path class="st6" d="M2593.7,662l-11.4-2.9c-8.3,30.9-14.3,62.5-17.9,94.4c-3.1,31.9-4.3,64-3.4,96c1.2,32,4,63.9,8.4,95.6&#10;&#9;&#9;&#9;&#9;c4.7,31.6,10.7,63,18,94.2c15,62.1,34.4,123.1,58,182.4c11.7,29.7,24.4,59,37.9,88c6.9,14.4,13.8,28.9,21.2,43.1&#10;&#9;&#9;&#9;&#9;c3.7,7.1,7.4,14.3,11.2,21.4l5.8,10.7c2,3.6,3.9,7,6.2,10.9l9.4-5.9c-1.1-1.9-2.1-3.8-3.2-5.8l-5.8-10.7&#10;&#9;&#9;&#9;&#9;c-3.8-7.1-7.5-14.2-11.2-21.4c-7.4-14.3-14.3-28.7-21.2-43.1c-13.6-29-26.2-58.3-37.9-88c-23.5-59.3-43-120.3-58-182.4&#10;&#9;&#9;&#9;&#9;c-7.3-31.1-13.3-62.5-18-94.1c-4.4-31.7-7.2-63.6-8.4-95.6c-0.9-32,0.3-64.1,3.4-96C2580.2,722.1,2585.8,691.8,2593.7,662z" style="fill: rgb(198, 126, 89);" transform="matrix(1, 0, 0, 1, 0, 0)"/><g transform="matrix(1, 0, 0, 1, 0, 0)">
					<path class="st7" d="M2572.2,702.7c-0.4,2.1-0.8,4.2-1.2,6.4c8.2-0.3,16.5-0.6,24.7-0.8c0.3-2.1,0.6-4.2,0.9-6.3&#10;&#9;&#9;&#9;&#9;&#9;&#9;C2588.4,702.2,2580.3,702.4,2572.2,702.7z" style="fill: rgb(175, 99, 65);"/>
					<path class="st7" d="M2595.8,879.7c-11.2-2.3-22.4-4.2-33.7-5.7c0.1,2.2,0.3,4.3,0.5,6.4c11.4,1.6,22.7,3.5,34,5.9&#10;&#9;&#9;&#9;&#9;&#9;&#9;C2596.4,884.1,2596.1,881.9,2595.8,879.7z" style="fill: rgb(175, 99, 65);"/>
					<path class="st7" d="M2704.5,1228.2c-0.9-1.9-1.8-3.7-2.7-5.6c-11.6,6.6-22.6,14.3-33.8,21.7l-10.6,7c0.8,2,1.7,3.9,2.5,5.9&#10;&#9;&#9;&#9;&#9;&#9;&#9;c2.2-1.5,4.5-2.9,6.7-4.4C2679.1,1244.5,2691.4,1235.6,2704.5,1228.2z" style="fill: rgb(175, 99, 65);"/>
					<path class="st7" d="M2590.6,816.3c-10-0.2-19.9-0.2-29.9-0.2c0,2.1-0.1,4.2-0.1,6.3c10-0.1,20.1,0,30.1,0.2&#10;&#9;&#9;&#9;&#9;&#9;&#9;C2590.7,820.5,2590.7,818.4,2590.6,816.3z" style="fill: rgb(175, 99, 65);"/>
					<path class="st7" d="M2671.2,1153.6c-16.4,1.7-32.8,3.3-49.2,4.8c0.7,2.1,1.4,4.1,2.1,6.1c16.5-1.5,33-3.2,49.5-4.9&#10;&#9;&#9;&#9;&#9;&#9;&#9;C2672.9,1157.7,2672.1,1155.7,2671.2,1153.6z" style="fill: rgb(175, 99, 65);"/>
					<path class="st7" d="M2603.6,930.4c-11.9,1.5-23.9,2-35.8,2.1c0.3,2.1,0.5,4.2,0.8,6.3c12.1-0.1,24.2-0.6,36.2-2.1&#10;&#9;&#9;&#9;&#9;&#9;&#9;C2604.3,934.5,2604,932.5,2603.6,930.4z" style="fill: rgb(175, 99, 65);"/>
					<path class="st7" d="M2619.8,1002.1c-13,2.3-26.1,4.5-39.1,6.7c0.4,2.1,0.8,4.1,1.3,6.2c13.2-2.2,26.3-4.5,39.5-6.7&#10;&#9;&#9;&#9;&#9;&#9;&#9;C2620.9,1006.2,2620.4,1004.2,2619.8,1002.1z" style="fill: rgb(175, 99, 65);"/>
					<path class="st7" d="M2563.7,760c-0.2,2.1-0.4,4.2-0.6,6.3c9,1.8,18.1,3.6,27.2,5.3c0.1-2.1,0.1-4.3,0.2-6.4&#10;&#9;&#9;&#9;&#9;&#9;&#9;C2581.6,763.5,2572.6,761.8,2563.7,760z" style="fill: rgb(175, 99, 65);"/>
					<path class="st7" d="M2737.1,1292.1c-17.3,7.1-34.6,14.3-51.9,21.4c0.9,1.9,1.8,3.8,2.7,5.7c17.4-7.2,34.8-14.4,52.2-21.5&#10;&#9;&#9;&#9;&#9;&#9;&#9;C2739.1,1295.8,2738.1,1294,2737.1,1292.1z" style="fill: rgb(175, 99, 65);"/>
					<path class="st7" d="M2641.1,1072.9c-13.2,6.5-26.5,12.8-39.9,18.8c0.6,2,1.2,4.1,1.8,6.1c13.5-6.1,26.9-12.4,40.2-18.9&#10;&#9;&#9;&#9;&#9;&#9;&#9;C2642.5,1076.9,2641.8,1074.9,2641.1,1072.9z" style="fill: rgb(175, 99, 65);"/>
				</g><path class="st3" d="M2610,660.8c-182.2-57.4-267.3,6.5-325.9,113.2l68.9-23.9l-0.7-41.9l15.6,36.7l50.8-17.6l-8.7-53.6l20.3,49.6&#10;&#9;&#9;&#9;l16-5.6l-11.2-34.1l21,30.7L2610,660.8z" style="fill: rgb(44, 147, 100);" transform="matrix(1, 0, 0, 1, 0, 0)"/><path class="st8" d="M2860.9,866c-52.1-183.8-152.2-219.8-273.5-210.3l57.9,44.5l34.6-23.6l-22.2,33.2l42.6,32.8l40.1-36.7&#10;&#9;&#9;&#9;l-30.4,44.2l13.4,10.3l22.4-28.1l-14.1,34.4L2860.9,866z" style="fill: rgb(95, 178, 136);" transform="matrix(1, 0, 0, 1, 0, 0)"/><path class="st8" d="M2611.8,679.2c-115.2-225.4-254.5-246.3-409.7-202.5l86.7,42.8l38.9-39.6l-20.2,48.9l63.8,31.6l42.6-58&#10;&#9;&#9;&#9;l-28,65.2l20.1,10l21.8-42.2l-9.5,48.3L2611.8,679.2z" style="fill: rgb(95, 178, 136);" transform="matrix(1, 0, 0, 1, 0, 0)"/><path class="st8" d="M2967.5,560.1c-200.8-77.7-301.1-12-374.7,103.8l79.3-21.9l2.2-47.2l14.9,42.5l58.4-16.2l-5.9-61l19.2,57.3&#10;&#9;&#9;&#9;l18.4-5.1l-10.1-39.2l21.4,36L2967.5,560.1z" style="fill: rgb(95, 178, 136);" transform="matrix(1, 0, 0, 1, 0, 0)"/><path class="st9" d="M2617.8,752.6c14.3-4.1,21.3-23,17.2-37.3c-4.1-14.3-18.1-19.3-32.4-15.2c-14.3,4.1-23.4,15.8-19.3,30.1&#10;&#9;&#9;&#9;&#9;C2587.5,744.5,2603.5,756.7,2617.8,752.6z" style="fill: rgb(79, 168, 119);" transform="matrix(1, 0, 0, 1, 0, 0)"/><path class="st10" d="M2583.4,730.2c4.1,14.3,20.2,26.5,34.4,22.3c6-1.7,10.7-6.1,13.9-11.7c-2.2,1.8-4.7,3.2-7.5,4&#10;&#9;&#9;&#9;&#9;c-14.3,4.1-30.3-8.1-34.4-22.3c-1.8-6.1-1.1-11.8,1.4-16.5C2584,711.8,2580.5,720.4,2583.4,730.2z" style="fill: rgb(65, 153, 103);" transform="matrix(1, 0, 0, 1, 0, 0)"/><path d="M 2628.499951 713 A 8.3 10.3 0 0 1 2620.199951 723.3 A 8.3 10.3 0 0 1 2611.899951 713 A 8.3 10.3 0 0 1 2620.199951 702.7 A 8.3 10.3 0 0 1 2628.499951 713 Z" transform="matrix(0.8001000285148621, -0.5998000502586365, 0.5998000502586365, 0.8001000285148621, 96.06330108642581, 1714.2122802734373)" class="st11" style="fill: rgb(103, 183, 137);"/><path class="st3" d="M2588.9,709.9c5.8-13.7-1.9-26.4-15.6-32.2c-13.7-5.8-28.1-2.5-33.9,11.2c-5.8,13.7-1,33.3,12.7,39&#10;&#9;&#9;&#9;&#9;C2565.8,733.8,2583.2,723.6,2588.9,709.9z" style="fill: rgb(44, 147, 100);" transform="matrix(1, 0, 0, 1, 0, 0)"/><path class="st12" d="M2560.7,675.1c-9.2,0-17.3,4.5-21.3,13.9c-5.8,13.7-1,33.3,12.7,39c5.8,2.4,12.2,2,18.2-0.3&#10;&#9;&#9;&#9;&#9;c-2.9,0-5.7-0.5-8.4-1.6c-13.7-5.8-18.4-25.4-12.7-39C2551.7,681.2,2555.8,677.2,2560.7,675.1z" style="fill: rgb(33, 132, 85);" transform="matrix(1, 0, 0, 1, 0, 0)"/><path d="M 2589.3 698.799988 A 10.3 8.3 0 0 1 2579 707.099988 A 10.3 8.3 0 0 1 2568.7 698.799988 A 10.3 8.3 0 0 1 2579 690.499988 A 10.3 8.3 0 0 1 2589.3 698.799988 Z" transform="matrix(0.03847135975956917, -0.9993000030517578, 0.9993000030517578, 0.03847135975956917, 1781.4378662109375, 3248.986572265625)" class="st13" style="fill: rgb(70, 165, 120);"/><path class="st8" d="M2616.2,690.8c2-14.7-8.7-25-23.4-27c-14.7-2-27.8,5-29.8,19.7c-2,14.7,7.7,32.4,22.4,34.4&#10;&#9;&#9;&#9;&#9;C2600.1,719.9,2614.2,705.5,2616.2,690.8z" style="fill: rgb(95, 178, 136);" transform="matrix(1, 0, 0, 1, 0, 0)"/><path class="st9" d="M2579.8,664.5c-8.8,2.4-15.5,8.8-16.9,19c-2,14.7,7.7,32.4,22.4,34.4c6.2,0.9,12.3-1.3,17.5-5.1&#10;&#9;&#9;&#9;&#9;c-2.8,0.8-5.6,1-8.5,0.6c-14.7-2-24.4-19.7-22.4-34.4C2572.7,672.8,2575.6,667.9,2579.8,664.5z" style="fill: rgb(79, 168, 119);" transform="matrix(1, 0, 0, 1, 0, 0)"/><path d="M 2611.900098 682.700012 A 8.3 10.3 0 0 1 2603.600098 693.000012 A 8.3 10.3 0 0 1 2595.300097 682.700012 A 8.3 10.3 0 0 1 2603.600098 672.400012 A 8.3 10.3 0 0 1 2611.900098 682.700012 Z" transform="matrix(0.9746000170707703, -0.22390000522136688, 0.22390000522136688, 0.9746000170707703, -86.75749969482422, 600.24462890625)" class="st14" style="fill: rgb(112, 193, 148);"/><path d="M 2889.399963 1384.800049 A 431.200012 114.900002 0 0 1 2458.199951 1499.70005 A 431.200012 114.900002 0 0 1 2026.999939 1384.800049 A 431.200012 114.900002 0 0 1 2458.199951 1269.900047 A 431.200012 114.900002 0 0 1 2889.399963 1384.800049 Z" class="st15" style="fill: rgb(252, 200, 157);" transform="matrix(1, 0, 0, 1, 0, 0)"/><path d="M 2566.900101 1297.900024 A 118.300003 15.6 0 0 1 2448.600098 1313.500025 A 118.300003 15.6 0 0 1 2330.300095 1297.900024 A 118.300003 15.6 0 0 1 2448.600098 1282.300024 A 118.300003 15.6 0 0 1 2566.900101 1297.900024 Z" class="st16" style="fill: rgb(237, 175, 128);" transform="matrix(1, 0, 0, 1, 0, 0)"/><path d="M 2534.500099 1296.300049 A 83.900002 7.3 0 0 1 2450.600098 1303.600049 A 83.900002 7.3 0 0 1 2366.700096 1296.300049 A 83.900002 7.3 0 0 1 2450.600098 1289.000049 A 83.900002 7.3 0 0 1 2534.500099 1296.300049 Z" class="st17" style="fill: rgb(214, 157, 118);" transform="matrix(1, 0, 0, 1, 0, 0)"/><path class="st3" d="M233,1274.8c-0.2,6.3,5.3,12,13.7,15c-6.6,4.7-10.2,11-8.6,16.8c2.3,8.6,15.3,12.5,29,8.8&#10;&#9;&#9;&#9;c1-0.3,1.9-0.6,2.8-0.9l98.9-2.7c13.2-0.4,24.1-6.7,26-14.7c6.5-3.2,10.6-8.2,10.5-13.8c-0.2-5.8-4.9-10.7-12.1-13.5&#10;&#9;&#9;&#9;c1.1-1.1,1.9-2.4,2.3-3.9c1.6-6-4-12.9-12.9-16.4c1.8-2.7,2.5-5.5,1.7-8.2c-1.4-5.1-7.6-8.1-15.1-8c-1-8.1-11.7-14.9-25-15.4&#10;&#9;&#9;&#9;c-1,0-2,0-2.9,0c1.3-1.2,2.3-2.7,3.2-4.3c2.3-4.5,2.3-9.5,0.5-13.7c-4.5,1.1-8.5,4-10.8,8.5c-0.8,1.6-1.3,3.3-1.6,5&#10;&#9;&#9;&#9;c-0.1-0.1-0.1-0.2-0.1-0.3c-0.8-1.3-1.9-2.4-3.2-3.3c1.1-1.9,1.9-3.9,2.3-6.2c1.2-5.9-0.4-11.7-3.9-16c-4.9,2.7-8.5,7.4-9.7,13.3&#10;&#9;&#9;&#9;c-0.4,2.2-0.5,4.5-0.2,6.6c-4.8,0.4-10.1,2.2-15.1,5.3c-9.8,6-15.5,15.2-14.6,22.4c-2.5,0-5.1,0.3-7.7,0.8&#10;&#9;&#9;&#9;c-3.4,0.6-6.6,1.6-9.6,2.8c-0.1-1.5-0.4-3.1-0.9-4.6c-1.6-4.6-5.2-8-9.4-9.6c-2.3,3.9-2.9,8.8-1.2,13.4c0.7,2.1,1.9,3.9,3.3,5.5&#10;&#9;&#9;&#9;c-1.2,0.9-2.4,1.9-3.4,2.9c-0.4-0.6-0.9-1.2-1.5-1.7c-2.9-2.8-6.7-4-10.4-3.7c-0.3,3.7,1,7.5,3.9,10.3c1,0.9,2,1.7,3.2,2.3&#10;&#9;&#9;&#9;c-0.7,2.1-1,4.2-0.7,6.3C242.1,1261,233.3,1267.1,233,1274.8z" style="fill: rgb(44, 147, 100);" transform="matrix(1, 0, 0, 1, 0, 0)"/><g transform="matrix(1, 0, 0, 1, 0, 0)">
				<path class="st3" d="M344.3,1231.5c0,0-26.9-166.1-85.6-172.4c0,0,41.1,7.5,76.7,170L344.3,1231.5z" style="fill: rgb(44, 147, 100);"/>
				<path class="st3" d="M351.9,1242.6c0,0-49.9-160.7-108.8-158.8c0,0,41.7,1.7,99.6,157.6L351.9,1242.6z" style="fill: rgb(44, 147, 100);"/>
				<path class="st3" d="M347,1258.7l9.3,0.3c0,0-64.8-155.3-123.3-147.8C233,1111.2,274.7,1109,347,1258.7z" style="fill: rgb(44, 147, 100);"/>
				<path class="st3" d="M345.1,1067.2c-31.9,10.3-0.1,170.4-0.1,170.4l4.4-3C323.6,1077.4,345.1,1067.2,345.1,1067.2z" style="fill: rgb(44, 147, 100);"/>
				<path class="st3" d="M371.2,1093.5c-34,2.3-24.8,161.7-24.8,161.7l4.9-1.8C347.9,1098.1,371.2,1093.5,371.2,1093.5z" style="fill: rgb(44, 147, 100);"/>
			</g><path class="st3" d="M561.4,1275c-0.2,5.5,4.1,10.5,10.7,13.8c1.9,8,13,14.3,26.6,14.7l101.6,2.8c0.9,0.3,1.9,0.6,2.9,0.9&#10;&#9;&#9;&#9;c14.1,3.7,27.4-0.2,29.8-8.8c1.6-5.7-2.1-12.1-8.8-16.8c8.6-3,14.3-8.6,14-15c-0.3-7.7-9.4-13.8-21.2-14.9&#10;&#9;&#9;&#9;c0.3-2.1,0.1-4.3-0.7-6.3c1.2-0.6,2.3-1.3,3.3-2.3c2.9-2.8,4.3-6.6,4-10.3c-3.8-0.4-7.7,0.9-10.7,3.7c-0.6,0.5-1.1,1.1-1.5,1.7&#10;&#9;&#9;&#9;c-1-1-2.2-2-3.4-2.9c1.5-1.5,2.6-3.4,3.4-5.5c1.7-4.6,1.1-9.5-1.3-13.4c-4.4,1.6-8,5-9.7,9.6c-0.6,1.5-0.9,3.1-0.9,4.6&#10;&#9;&#9;&#9;c-3-1.2-6.3-2.2-9.8-2.8c-2.7-0.5-5.4-0.7-8-0.8c0.9-7.2-5-16.4-15-22.4c-5.2-3.1-10.6-4.8-15.5-5.3c0.3-2.1,0.3-4.4-0.2-6.6&#10;&#9;&#9;&#9;c-1.2-5.9-5-10.6-10-13.3c-3.5,4.3-5.2,10.1-4,16c0.5,2.2,1.3,4.3,2.4,6.2c-1.3,0.9-2.5,1.9-3.3,3.3c-0.1,0.1-0.1,0.2-0.2,0.3&#10;&#9;&#9;&#9;c-0.3-1.7-0.8-3.4-1.6-5c-2.3-4.5-6.5-7.4-11.1-8.5c-1.8,4.3-1.8,9.3,0.5,13.7c0.9,1.6,2,3.1,3.3,4.3c-1,0-2,0-3,0&#10;&#9;&#9;&#9;c-13.6,0.5-24.6,7.2-25.6,15.4c-7.8-0.1-14.1,2.9-15.5,8c-0.8,2.7,0,5.5,1.8,8.2c-9.1,3.5-14.9,10.3-13.2,16.4&#10;&#9;&#9;&#9;c0.4,1.5,1.2,2.8,2.3,3.9C566.5,1264.3,561.5,1269.3,561.4,1275z" style="fill: rgb(44, 147, 100);" transform="matrix(1, 0, 0, 1, 0, 0)"/><path d="M 1079.400024 752.900024 H 1907.200012 V 1241.000031 H 1079.400024 V 752.900024 Z" class="st18" style="fill: rgb(252, 174, 126);" transform="matrix(1, 0, 0, 1, 0, 0)"/><path d="M 1079.400024 783.900024 H 1907.200012 V 788.400024 H 1079.400024 V 783.900024 Z" class="st19" style="fill: rgb(221, 140, 108);" transform="matrix(1, 0, 0, 1, 0, 0)"/><path d="M 1079.400024 820.099976 H 1907.200012 V 824.599976 H 1079.400024 V 820.099976 Z" class="st19" style="fill: rgb(221, 140, 108);" transform="matrix(1, 0, 0, 1, 0, 0)"/><path d="M 1079.400024 856.200012 H 1907.200012 V 860.700012 H 1079.400024 V 856.200012 Z" class="st19" style="fill: rgb(221, 140, 108);" transform="matrix(1, 0, 0, 1, 0, 0)"/><path d="M 1079.400024 892.400024 H 1907.200012 V 896.900024 H 1079.400024 V 892.400024 Z" class="st19" style="fill: rgb(221, 140, 108);" transform="matrix(1, 0, 0, 1, 0, 0)"/><path d="M 1079.400024 928.599976 H 1907.200012 V 933.099976 H 1079.400024 V 928.599976 Z" class="st19" style="fill: rgb(221, 140, 108);" transform="matrix(1, 0, 0, 1, 0, 0)"/><path d="M 1079.400024 964.799988 H 1907.200012 V 969.299988 H 1079.400024 V 964.799988 Z" class="st19" style="fill: rgb(221, 140, 108);" transform="matrix(1, 0, 0, 1, 0, 0)"/><path d="M 1079.400024 1000.900024 H 1907.200012 V 1005.400024 H 1079.400024 V 1000.900024 Z" class="st19" style="fill: rgb(221, 140, 108);" transform="matrix(1, 0, 0, 1, 0, 0)"/><path d="M 1079.400024 1037.099976 H 1907.200012 V 1041.599976 H 1079.400024 V 1037.099976 Z" class="st19" style="fill: rgb(221, 140, 108);" transform="matrix(1, 0, 0, 1, 0, 0)"/><path d="M 1079.400024 1073.300049 H 1907.200012 V 1077.800049 H 1079.400024 V 1073.300049 Z" class="st19" style="fill: rgb(221, 140, 108);" transform="matrix(1, 0, 0, 1, 0, 0)"/><path d="M 1079.400024 1109.400024 H 1907.200012 V 1113.900024 H 1079.400024 V 1109.400024 Z" class="st19" style="fill: rgb(221, 140, 108);" transform="matrix(1, 0, 0, 1, 0, 0)"/><path d="M 1079.400024 1145.599976 H 1907.200012 V 1150.099976 H 1079.400024 V 1145.599976 Z" class="st19" style="fill: rgb(221, 140, 108);" transform="matrix(1, 0, 0, 1, 0, 0)"/><path d="M 1079.400024 1181.800049 H 1907.200012 V 1186.300049 H 1079.400024 V 1181.800049 Z" class="st19" style="fill: rgb(221, 140, 108);" transform="matrix(1, 0, 0, 1, 0, 0)"/><path d="M 1079.400024 1217.900024 H 1907.200012 V 1222.400024 H 1079.400024 V 1217.900024 Z" class="st19" style="fill: rgb(221, 140, 108);" transform="matrix(1, 0, 0, 1, 0, 0)"/><path d="M 1079.400024 752.900024 H 1116.900024 V 1241.000031 H 1079.400024 V 752.900024 Z" class="st20" style="fill: rgb(255, 239, 230);" transform="matrix(1, 0, 0, 1, 0, 0)"/><path d="M 1869.699951 752.900024 H 1907.199951 V 1241.000031 H 1869.699951 V 752.900024 Z" class="st20" style="fill: rgb(255, 239, 230);" transform="matrix(1, 0, 0, 1, 0, 0)"/><path d="M 1367.800049 752.900024 H 1405.300049 V 1241.000031 H 1367.800049 V 752.900024 Z" class="st20" style="fill: rgb(255, 239, 230);" transform="matrix(1, 0, 0, 1, 0, 0)"/><path d="M 1367.800049 752.900024 H 1376.800049 V 1241.000031 H 1367.800049 V 752.900024 Z" class="st21" style="fill: rgb(242, 218, 206);" transform="matrix(1, 0, 0, 1, 0, 0)"/><path d="M 1581.300049 752.900024 H 1618.800049 V 1241.000031 H 1581.300049 V 752.900024 Z" class="st20" style="fill: rgb(255, 239, 230);" transform="matrix(1, 0, 0, 1, 0, 0)"/><path d="M 909.599976 1077.199951 H 1367.799988 V 1093.099951 H 909.599976 V 1077.199951 Z" class="st22" style="fill: rgb(110, 204, 206);" transform="matrix(1, 0, 0, 1, 0, 0)"/><path d="M 909.599976 1093.099976 H 923.099976 V 1240.899979 H 909.599976 V 1093.099976 Z" class="st23" style="fill: rgb(76, 165, 162);" transform="matrix(1, 0, 0, 1, 0, 0)"/><path d="M 909.599976 1093.099976 H 923.099976 V 1099.899976 H 909.599976 V 1093.099976 Z" class="st24" style="fill: rgb(60, 145, 140);" transform="matrix(1, 0, 0, 1, 0, 0)"/><path d="M 967.400024 1093.099976 H 980.900024 V 1240.899979 H 967.400024 V 1093.099976 Z" class="st23" style="fill: rgb(76, 165, 162);" transform="matrix(1, 0, 0, 1, 0, 0)"/><path d="M 967.400024 1093.099976 H 980.900024 V 1099.899976 H 967.400024 V 1093.099976 Z" class="st24" style="fill: rgb(60, 145, 140);" transform="matrix(1, 0, 0, 1, 0, 0)"/><path d="M 1025.199951 1093.099976 H 1038.699951 V 1240.899979 H 1025.199951 V 1093.099976 Z" class="st23" style="fill: rgb(76, 165, 162);" transform="matrix(1, 0, 0, 1, 0, 0)"/><path d="M 1025.199951 1093.099976 H 1038.699951 V 1099.899976 H 1025.199951 V 1093.099976 Z" class="st24" style="fill: rgb(60, 145, 140);" transform="matrix(1, 0, 0, 1, 0, 0)"/><path d="M 1140.800049 1093.099976 H 1154.300049 V 1240.899979 H 1140.800049 V 1093.099976 Z" class="st23" style="fill: rgb(76, 165, 162);" transform="matrix(1, 0, 0, 1, 0, 0)"/><path d="M 1140.800049 1093.099976 H 1154.300049 V 1099.899976 H 1140.800049 V 1093.099976 Z" class="st24" style="fill: rgb(60, 145, 140);" transform="matrix(1, 0, 0, 1, 0, 0)"/><path d="M 1198.599976 1093.099976 H 1212.099976 V 1240.899979 H 1198.599976 V 1093.099976 Z" class="st23" style="fill: rgb(76, 165, 162);" transform="matrix(1, 0, 0, 1, 0, 0)"/><path d="M 1198.599976 1093.099976 H 1212.099976 V 1099.899976 H 1198.599976 V 1093.099976 Z" class="st24" style="fill: rgb(60, 145, 140);" transform="matrix(1, 0, 0, 1, 0, 0)"/><path d="M 1256.400024 1093.099976 H 1269.900024 V 1240.899979 H 1256.400024 V 1093.099976 Z" class="st23" style="fill: rgb(76, 165, 162);" transform="matrix(1, 0, 0, 1, 0, 0)"/><path d="M 1256.400024 1093.099976 H 1269.900024 V 1099.899976 H 1256.400024 V 1093.099976 Z" class="st24" style="fill: rgb(60, 145, 140);" transform="matrix(1, 0, 0, 1, 0, 0)"/><path d="M 1314.199951 1093.099976 H 1327.699951 V 1240.899979 H 1314.199951 V 1093.099976 Z" class="st23" style="fill: rgb(76, 165, 162);" transform="matrix(1, 0, 0, 1, 0, 0)"/><path d="M 1314.199951 1093.099976 H 1327.699951 V 1099.899976 H 1314.199951 V 1093.099976 Z" class="st24" style="fill: rgb(60, 145, 140);" transform="matrix(1, 0, 0, 1, 0, 0)"/><path d="M 909.599976 1240.900024 H 2077 V 1257.000025 H 909.599976 V 1240.900024 Z" class="st25" style="fill: rgb(31, 80, 110);" transform="matrix(1, 0, 0, 1, 0, 0)"/><path d="M 1609.800049 752.900024 H 1618.800049 V 1241.000031 H 1609.800049 V 752.900024 Z" class="st21" style="fill: rgb(242, 218, 206);" transform="matrix(1, 0, 0, 1, 0, 0)"/><path d="M 1618.800049 1077.199951 H 2077.000061 V 1093.099951 H 1618.800049 V 1077.199951 Z" class="st22" style="fill: rgb(110, 204, 206);" transform="matrix(1, 0, 0, 1, 0, 0)"/><path d="M 2063.5 1093.099976 H 2077 V 1240.899979 H 2063.5 V 1093.099976 Z" class="st23" style="fill: rgb(76, 165, 162);" transform="matrix(1, 0, 0, 1, 0, 0)"/><path d="M 2063.5 1093.099976 H 2077 V 1099.899976 H 2063.5 V 1093.099976 Z" class="st24" style="fill: rgb(60, 145, 140);" transform="matrix(1, 0, 0, 1, 0, 0)"/><path d="M 2005.699951 1093.099976 H 2019.199951 V 1240.899979 H 2005.699951 V 1093.099976 Z" class="st23" style="fill: rgb(76, 165, 162);" transform="matrix(1, 0, 0, 1, 0, 0)"/><path d="M 2005.699951 1093.099976 H 2019.199951 V 1099.899976 H 2005.699951 V 1093.099976 Z" class="st24" style="fill: rgb(60, 145, 140);" transform="matrix(1, 0, 0, 1, 0, 0)"/><path d="M 1947.900024 1093.099976 H 1961.400024 V 1240.899979 H 1947.900024 V 1093.099976 Z" class="st23" style="fill: rgb(76, 165, 162);" transform="matrix(1, 0, 0, 1, 0, 0)"/><path d="M 1947.900024 1093.099976 H 1961.400024 V 1099.899976 H 1947.900024 V 1093.099976 Z" class="st24" style="fill: rgb(60, 145, 140);" transform="matrix(1, 0, 0, 1, 0, 0)"/><path d="M 1832.199951 1093.099976 H 1845.699951 V 1240.899979 H 1832.199951 V 1093.099976 Z" class="st23" style="fill: rgb(76, 165, 162);" transform="matrix(1, 0, 0, 1, 0, 0)"/><path d="M 1832.199951 1093.099976 H 1845.699951 V 1099.899976 H 1832.199951 V 1093.099976 Z" class="st24" style="fill: rgb(60, 145, 140);" transform="matrix(1, 0, 0, 1, 0, 0)"/><path d="M 1774.400024 1093.099976 H 1787.900024 V 1240.899979 H 1774.400024 V 1093.099976 Z" class="st23" style="fill: rgb(76, 165, 162);" transform="matrix(1, 0, 0, 1, 0, 0)"/><path d="M 1774.400024 1093.099976 H 1787.900024 V 1099.899976 H 1774.400024 V 1093.099976 Z" class="st24" style="fill: rgb(60, 145, 140);" transform="matrix(1, 0, 0, 1, 0, 0)"/><path d="M 1716.599976 1093.099976 H 1730.099976 V 1240.899979 H 1716.599976 V 1093.099976 Z" class="st23" style="fill: rgb(76, 165, 162);" transform="matrix(1, 0, 0, 1, 0, 0)"/><path d="M 1716.599976 1093.099976 H 1730.099976 V 1099.899976 H 1716.599976 V 1093.099976 Z" class="st24" style="fill: rgb(60, 145, 140);" transform="matrix(1, 0, 0, 1, 0, 0)"/><path d="M 1658.800049 1093.099976 H 1672.300049 V 1240.899979 H 1658.800049 V 1093.099976 Z" class="st23" style="fill: rgb(76, 165, 162);" transform="matrix(1, 0, 0, 1, 0, 0)"/><path d="M 1658.800049 1093.099976 H 1672.300049 V 1099.899976 H 1658.800049 V 1093.099976 Z" class="st24" style="fill: rgb(60, 145, 140);" transform="matrix(1, 0, 0, 1, 0, 0)"/><path d="M 2033 752.9000244140625 L 1493.300048828125 324.29998779296875 L 953.5999755859375 752.9000244140625 L 1493.300048828125 752.9000244140625 Z" class="st22" style="fill: rgb(110, 204, 206);" transform="matrix(1, 0, 0, 1, 0, 0)"/><path d="M 1493.300048828125 370.70001220703125 L 1057.9000244140625 716.5 L 1928.699951171875 716.5 Z" class="st20" style="fill: rgb(255, 239, 230);" transform="matrix(1, 0, 0, 1, 0, 0)"/><path d="M 1383.699951171875 457.70001220703125 L 1602.800048828125 457.70001220703125 L 1493.300048828125 370.70001220703125 Z" class="st26" style="fill: rgb(77, 160, 160);" transform="matrix(1, 0, 0, 1, 0, 0)"/><path d="M 1352.5 447.600006 H 1629.5 V 471.500006 H 1352.5 V 447.600006 Z" class="st22" style="fill: rgb(110, 204, 206);" transform="matrix(1, 0, 0, 1, 0, 0)"/><path d="M 1488.300049 367.200012 H 1498.300049 V 457.300011 H 1488.300049 V 367.200012 Z" class="st22" style="fill: rgb(110, 204, 206);" transform="matrix(1, 0, 0, 1, 0, 0)"/><path d="M 1164.5 631.7999877929688 L 1159.199951171875 636 L 1827.300048828125 636 L 1822.0999755859375 631.7999877929688 Z" class="st27" style="fill: rgb(239, 206, 189);" transform="matrix(1, 0, 0, 1, 0, 0)"/><path d="M 1890.199951171875 685.9000244140625 L 1096.300048828125 685.9000244140625 L 1091.0999755859375 690.0999755859375 L 1895.5 690.0999755859375 Z" class="st27" style="fill: rgb(239, 206, 189);" transform="matrix(1, 0, 0, 1, 0, 0)"/><path d="M 1198.5999755859375 604.7000122070312 L 1193.300048828125 608.9000244140625 L 1793.199951171875 608.9000244140625 L 1788 604.7000122070312 Z" class="st27" style="fill: rgb(239, 206, 189);" transform="matrix(1, 0, 0, 1, 0, 0)"/><path d="M 1130.4000244140625 658.9000244140625 L 1125.0999755859375 663 L 1861.4000244140625 663 L 1856.199951171875 658.9000244140625 Z" class="st27" style="fill: rgb(239, 206, 189);" transform="matrix(1, 0, 0, 1, 0, 0)"/><path d="M 1334.9000244140625 496.3999938964844 L 1329.699951171875 500.6000061035156 L 1656.9000244140625 500.6000061035156 L 1651.5999755859375 496.3999938964844 Z" class="st27" style="fill: rgb(239, 206, 189);" transform="matrix(1, 0, 0, 1, 0, 0)"/><path d="M 1300.9000244140625 523.5 L 1295.5999755859375 527.7000122070312 L 1691 527.7000122070312 L 1685.699951171875 523.5 Z" class="st27" style="fill: rgb(239, 206, 189);" transform="matrix(1, 0, 0, 1, 0, 0)"/><path d="M 1232.699951171875 577.7000122070312 L 1227.4000244140625 581.7999877929688 L 1759.199951171875 581.7999877929688 L 1753.9000244140625 577.7000122070312 Z" class="st27" style="fill: rgb(239, 206, 189);" transform="matrix(1, 0, 0, 1, 0, 0)"/><path d="M 1266.800048828125 550.5999755859375 L 1261.5 554.7999877929688 L 1725.0999755859375 554.7999877929688 L 1719.800048828125 550.5999755859375 Z" class="st27" style="fill: rgb(239, 206, 189);" transform="matrix(1, 0, 0, 1, 0, 0)"/><path d="M 1079.400024 752.900024 H 1116.900024 V 768.800024 H 1079.400024 V 752.900024 Z" class="st28" style="fill: rgb(234, 203, 187);" transform="matrix(1, 0, 0, 1, 0, 0)"/><path d="M 1116.900024 752.900024 H 1367.800018 V 768.800024 H 1116.900024 V 752.900024 Z" class="st29" style="fill: rgb(216, 133, 91);" transform="matrix(1, 0, 0, 1, 0, 0)"/><path d="M 1376.800049 752.900024 H 1405.300049 V 768.800024 H 1376.800049 V 752.900024 Z" class="st28" style="fill: rgb(234, 203, 187);" transform="matrix(1, 0, 0, 1, 0, 0)"/><path d="M 1367.800049 752.900024 H 1376.800049 V 768.900024 H 1367.800049 V 752.900024 Z" class="st30" style="fill: rgb(214, 181, 167);" transform="matrix(1, 0, 0, 1, 0, 0)"/><path d="M 1869.699951 752.900024 H 1907.199951 V 768.800024 H 1869.699951 V 752.900024 Z" class="st28" style="fill: rgb(234, 203, 187);" transform="matrix(1, 0, 0, 1, 0, 0)"/><path d="M 1618.800049 752.900024 H 1869.700043 V 768.800024 H 1618.800049 V 752.900024 Z" class="st29" style="fill: rgb(216, 133, 91);" transform="matrix(1, 0, 0, 1, 0, 0)"/><path d="M 1581.300049 752.900024 H 1609.800049 V 768.800024 H 1581.300049 V 752.900024 Z" class="st28" style="fill: rgb(234, 203, 187);" transform="matrix(1, 0, 0, 1, 0, 0)"/><path d="M 1609.800049 752.900024 H 1618.800049 V 768.900024 H 1609.800049 V 752.900024 Z" class="st30" style="fill: rgb(214, 181, 167);" transform="matrix(1, 0, 0, 1, 0, 0)"/><path d="M 1405.300049 752.900024 H 1581.300049 V 768.900024 H 1405.300049 V 752.900024 Z" class="st29" style="fill: rgb(216, 133, 91);" transform="matrix(1, 0, 0, 1, 0, 0)"/><path d="M 1405.300049 827.799988 H 1581.300049 V 1240.899994 H 1405.300049 V 827.799988 Z" class="st31" style="fill: rgb(155, 88, 62);" transform="matrix(1, 0, 0, 1, 0, 0)"/><path d="M 1405.300049 815.5 H 1581.300049 V 827.8 H 1405.300049 V 815.5 Z" class="st32" style="fill: rgb(237, 155, 110);" transform="matrix(1, 0, 0, 1, 0, 0)"/><path class="st33" d="M1449.3,1240.9c0-118-44-163.8-44-163.8v163.8H1449.3z" style="fill: rgb(237, 93, 117);" transform="matrix(1, 0, 0, 1, 0, 0)"/><path class="st33" d="M1493.3,827.8h-88v249.3C1466.9,1065.6,1493.3,827.8,1493.3,827.8z" style="fill: rgb(237, 93, 117);" transform="matrix(1, 0, 0, 1, 0, 0)"/><path class="st33" d="M1581.3,1240.9v-163.8c0,0-44,45.8-44,163.8H1581.3z" style="fill: rgb(237, 93, 117);" transform="matrix(1, 0, 0, 1, 0, 0)"/><path class="st33" d="M1493.3,827.8c0,0,26.4,237.8,88,249.3V827.8H1493.3z" style="fill: rgb(237, 93, 117);" transform="matrix(1, 0, 0, 1, 0, 0)"/><path d="M 1165.400024 838.799988 H 1316.700027 V 1011.099991 H 1165.400024 V 838.799988 Z" class="st32" style="fill: rgb(237, 155, 110);" transform="matrix(1, 0, 0, 1, 0, 0)"/><path d="M 1175.5 848 H 1306.5 V 1001.800003 H 1175.5 V 848 Z" class="st20" style="fill: rgb(255, 239, 230);" transform="matrix(1, 0, 0, 1, 0, 0)"/><path d="M 1186.199951 858.599976 H 1295.899948 V 991.299973 H 1186.199951 V 858.599976 Z" class="st31" style="fill: rgb(155, 88, 62);" transform="matrix(1, 0, 0, 1, 0, 0)"/><path d="M 1236.300049 851.5 H 1245.700048 V 996.899994 H 1236.300049 V 851.5 Z" class="st20" style="fill: rgb(255, 239, 230);" transform="matrix(1, 0, 0, 1, 0, 0)"/><path d="M 1178.199951 920.299988 H 1303.79995 V 929.699987 H 1178.199951 V 920.299988 Z" class="st20" style="fill: rgb(255, 239, 230);" transform="matrix(1, 0, 0, 1, 0, 0)"/><path d="M 1206.699951171875 858.5999755859375 L 1190.5999755859375 920.2999877929688 L 1206.5999755859375 920.2999877929688 L 1222.699951171875 858.5999755859375 Z" class="st34" style="fill: rgb(181, 108, 85);" transform="matrix(1, 0, 0, 1, 0, 0)"/><path d="M 1228.4000244140625 858.5999755859375 L 1212.300048828125 920.2999877929688 L 1217.800048828125 920.2999877929688 L 1233.9000244140625 858.5999755859375 Z" class="st34" style="fill: rgb(181, 108, 85);" transform="matrix(1, 0, 0, 1, 0, 0)"/><path d="M 1264.5999755859375 929.5999755859375 L 1248.5 991.2999877929688 L 1264.5 991.2999877929688 L 1280.5999755859375 929.5999755859375 Z" class="st34" style="fill: rgb(181, 108, 85);" transform="matrix(1, 0, 0, 1, 0, 0)"/><path d="M 1286.300048828125 929.5999755859375 L 1270.199951171875 991.2999877929688 L 1275.699951171875 991.2999877929688 L 1291.800048828125 929.5999755859375 Z" class="st34" style="fill: rgb(181, 108, 85);" transform="matrix(1, 0, 0, 1, 0, 0)"/><path d="M 1669.900024 838.799988 H 1821.200027 V 1011.099991 H 1669.900024 V 838.799988 Z" class="st32" style="fill: rgb(237, 155, 110);" transform="matrix(1, 0, 0, 1, 0, 0)"/><path d="M 1680.099976 848 H 1811.099976 V 1001.800003 H 1680.099976 V 848 Z" class="st20" style="fill: rgb(255, 239, 230);" transform="matrix(1, 0, 0, 1, 0, 0)"/><path d="M 1690.699951 858.599976 H 1800.399948 V 991.299973 H 1690.699951 V 858.599976 Z" class="st31" style="fill: rgb(155, 88, 62);" transform="matrix(1, 0, 0, 1, 0, 0)"/><path d="M 1740.900024 851.5 H 1750.300024 V 996.899994 H 1740.900024 V 851.5 Z" class="st20" style="fill: rgb(255, 239, 230);" transform="matrix(1, 0, 0, 1, 0, 0)"/><path d="M 1682.699951 920.299988 H 1808.29995 V 929.699987 H 1682.699951 V 920.299988 Z" class="st20" style="fill: rgb(255, 239, 230);" transform="matrix(1, 0, 0, 1, 0, 0)"/><path d="M 1779.9000244140625 858.5999755859375 L 1763.9000244140625 858.5999755859375 L 1780 920.2999877929688 L 1796 920.2999877929688 Z" class="st34" style="fill: rgb(181, 108, 85);" transform="matrix(1, 0, 0, 1, 0, 0)"/><path d="M 1758.199951171875 858.5999755859375 L 1752.5999755859375 858.5999755859375 L 1768.699951171875 920.2999877929688 L 1774.300048828125 920.2999877929688 Z" class="st34" style="fill: rgb(181, 108, 85);" transform="matrix(1, 0, 0, 1, 0, 0)"/><path d="M 1722 929.5999755859375 L 1706 929.5999755859375 L 1722 991.2999877929688 L 1738.0999755859375 991.2999877929688 Z" class="st34" style="fill: rgb(181, 108, 85);" transform="matrix(1, 0, 0, 1, 0, 0)"/><path d="M 1700.300048828125 929.5999755859375 L 1694.699951171875 929.5999755859375 L 1710.800048828125 991.2999877929688 L 1716.4000244140625 991.2999877929688 Z" class="st34" style="fill: rgb(181, 108, 85);" transform="matrix(1, 0, 0, 1, 0, 0)"/><path d="M 1779.699951 1093.099976 H 1783.799951 V 1108.399976 H 1779.699951 V 1093.099976 Z" class="st35" style="fill: rgb(232, 197, 179);" transform="matrix(1, 0, 0, 1, 0, 0)"/><path class="st20" d="M1777,1094.1c0.6,0,1-0.5,1-1v-15.8c0-0.6-0.5-1-1-1h-0.1c-0.6,0-1,0.5-1,1v15.8c0,0.6,0.5,1,1,1H1777z" style="fill: rgb(255, 239, 230);" transform="matrix(1, 0, 0, 1, 0, 0)"/><path class="st20" d="M1780.1,1094.1c0.6,0,1-0.5,1-1v-15.8c0-0.6-0.5-1-1-1h-0.1c-0.6,0-1,0.5-1,1v15.8c0,0.6,0.5,1,1,1H1780.1&#10;&#9;&#9;&#9;&#9;&#9;z" style="fill: rgb(255, 239, 230);" transform="matrix(1, 0, 0, 1, 0, 0)"/><path class="st20" d="M1783.3,1094.1c0.6,0,1-0.5,1-1v-15.8c0-0.6-0.5-1-1-1h-0.1c-0.6,0-1,0.5-1,1v15.8c0,0.6,0.5,1,1,1H1783.3&#10;&#9;&#9;&#9;&#9;&#9;z" style="fill: rgb(255, 239, 230);" transform="matrix(1, 0, 0, 1, 0, 0)"/><path class="st20" d="M1786.5,1094.1c0.6,0,1-0.5,1-1v-15.8c0-0.6-0.5-1-1-1h-0.1c-0.6,0-1,0.5-1,1v15.8c0,0.6,0.5,1,1,1H1786.5&#10;&#9;&#9;&#9;&#9;&#9;z" style="fill: rgb(255, 239, 230);" transform="matrix(1, 0, 0, 1, 0, 0)"/><path class="st20" d="M1841.6,1163.7c0-33.4-27.1-60.5-60.5-60.5c-33.4,0-60.5,27.1-60.5,60.5c0,33.4,27.1,60.5,60.5,60.5&#10;&#9;&#9;&#9;&#9;&#9;C1814.6,1224.2,1841.6,1197.1,1841.6,1163.7z M1749.1,1163.7c0-17.7,14.3-32,32-32s32,14.3,32,32s-14.3,32-32,32&#10;&#9;&#9;&#9;&#9;&#9;S1749.1,1181.4,1749.1,1163.7z" style="fill: rgb(255, 239, 230);" transform="matrix(1, 0, 0, 1, 0, 0)"/><path class="st33" d="M1794,1134.4l15-24.3c-8.3-4.3-17.8-6.8-27.9-6.8c-10.1,0-19.5,2.5-27.9,6.8l15,24.3&#10;&#9;&#9;&#9;&#9;&#9;c3.9-1.7,8.3-2.7,12.8-2.7C1785.7,1131.7,1790.1,1132.6,1794,1134.4z" style="fill: rgb(237, 93, 117);" transform="matrix(1, 0, 0, 1, 0, 0)"/><path class="st33" d="M1727.5,1135.8c-4.3,8.3-6.8,17.8-6.8,27.9c0,10.1,2.5,19.5,6.8,27.9l24.3-15c-1.7-3.9-2.7-8.3-2.7-12.8&#10;&#9;&#9;&#9;&#9;&#9;c0-4.6,1-8.9,2.7-12.8L1727.5,1135.8z" style="fill: rgb(237, 93, 117);" transform="matrix(1, 0, 0, 1, 0, 0)"/><path class="st33" d="M1794,1193.1c-3.9,1.7-8.3,2.7-12.8,2.7c-4.6,0-8.9-1-12.8-2.7l-15,24.3c8.3,4.3,17.8,6.8,27.9,6.8&#10;&#9;&#9;&#9;&#9;&#9;c10.1,0,19.5-2.5,27.9-6.8L1794,1193.1z" style="fill: rgb(237, 93, 117);" transform="matrix(1, 0, 0, 1, 0, 0)"/><path class="st33" d="M1834.8,1191.6c4.3-8.3,6.8-17.8,6.8-27.9c0-10.1-2.5-19.5-6.8-27.9l-24.3,15c1.7,3.9,2.7,8.3,2.7,12.8&#10;&#9;&#9;&#9;&#9;&#9;c0,4.6-1,8.9-2.7,12.8L1834.8,1191.6z" style="fill: rgb(237, 93, 117);" transform="matrix(1, 0, 0, 1, 0, 0)"/><path d="M 1367.800049 1257 H 1618.800049 V 1282.299999 H 1367.800049 V 1257 Z" class="st25" style="fill: rgb(31, 80, 110);" transform="matrix(1, 0, 0, 1, 0, 0)"/><path d="M 1367.800049 1275.599976 H 1618.800049 V 1282.199975 H 1367.800049 V 1275.599976 Z" class="st36" style="fill: rgb(53, 106, 132);" transform="matrix(1, 0, 0, 1, 0, 0)"/><path d="M 1367.800049 1282.300049 H 1618.800049 V 1307.600048 H 1367.800049 V 1282.300049 Z" class="st25" style="fill: rgb(31, 80, 110);" transform="matrix(1, 0, 0, 1, 0, 0)"/><path d="M 1367.800049 1307.5 H 1618.800049 V 1332.799999 H 1367.800049 V 1307.5 Z" class="st25" style="fill: rgb(31, 80, 110);" transform="matrix(1, 0, 0, 1, 0, 0)"/><path d="M 1367.800049 1300.900024 H 1618.800049 V 1307.500024 H 1367.800049 V 1300.900024 Z" class="st36" style="fill: rgb(53, 106, 132);" transform="matrix(1, 0, 0, 1, 0, 0)"/><path d="M 909.599976 1257 H 1367.799988 V 1332.800003 H 909.599976 V 1257 Z" class="st37" style="fill: rgb(60, 117, 140);" transform="matrix(1, 0, 0, 1, 0, 0)"/><path d="M 1618.800049 1257 H 2077.000061 V 1332.800003 H 1618.800049 V 1257 Z" class="st37" style="fill: rgb(60, 117, 140);" transform="matrix(1, 0, 0, 1, 0, 0)"/><path class="st3" d="M749.5,691.8c0,0,30.9-150.7-145.5-218.3l73.2,109.8l17.4-9.6l-13.2,15.7l15.1,22.6l24.3-12.8l-18,22.2&#10;&#9;&#9;&#9;L749.5,691.8z" style="fill: rgb(44, 147, 100);" transform="matrix(1, 0, 0, 1, 0, 0)"/><path class="st4" d="M853.2,453.5c0,0-143.6,55.4-105.1,240.4L801,573l-17.4-9.5l20.4,2.6l10.9-24.9L791,527.7l28.4,3.2&#10;&#9;&#9;&#9;L853.2,453.5z" style="fill: rgb(61, 170, 123);" transform="matrix(1, 0, 0, 1, 0, 0)"/><path class="st4" d="M876.7,876.6c0,0,27.4-133.5-128.9-193.4l64.8,97.3l15.4-8.5L816.3,786l13.4,20l21.5-11.3l-16,19.7&#10;&#9;&#9;&#9;L876.7,876.6z" style="fill: rgb(61, 170, 123);" transform="matrix(1, 0, 0, 1, 0, 0)"/><path class="st4" d="M751.2,680.7C616.8,780.3,679,901.6,679,901.6l23.2-71.1l-20.7-14.6l23.8,5.1l7.5-22.9l-15.1-10.3l17.1,4&#10;&#9;&#9;&#9;L751.2,680.7z" style="fill: rgb(61, 170, 123);" transform="matrix(1, 0, 0, 1, 0, 0)"/><path class="st5" d="M740.5,961c-6.1,30.2-13.4,60.1-22,89.7c-17.5,59.1-39.3,116.9-65,173c-12.8,28.1-26.5,55.7-40.9,82.9&#10;&#9;&#9;&#9;&#9;c-7.3,13.5-14.7,27-22.4,40.3c-3.8,6.6-7.7,13.2-11.7,19.7l-6,9.7c-2,3.1-4.1,6.5-5.9,9.2l51.3,32.1c2.3-3.9,4.2-7.3,6.2-10.9&#10;&#9;&#9;&#9;&#9;l5.8-10.7c3.8-7.1,7.5-14.2,11.2-21.4c7.4-14.3,14.3-28.7,21.2-43.1c13.6-29,26.2-58.3,37.9-88c23.5-59.3,43-120.3,58-182.4&#10;&#9;&#9;&#9;&#9;c7.3-31.1,13.3-62.5,18-94.2c4.4-31.7,7.2-63.6,8.4-95.6c0.9-32-0.3-64.1-3.4-96c-3.6-31.9-9.6-63.4-17.9-94.4l-21.1,5.4&#10;&#9;&#9;&#9;&#9;c6.5,30.1,10.6,60.5,12.5,91.2c1.4,30.7,0.9,61.4-1.5,92.1C750.6,900.3,746.3,930.8,740.5,961z" style="fill: rgb(214, 144, 105);" transform="matrix(1, 0, 0, 1, 0, 0)"/><path class="st6" d="M763.9,966.4c-4.7,31.6-10.7,63-18,94.1c-15,62.1-34.4,123.1-58,182.4c-11.7,29.7-24.4,59-37.9,88&#10;&#9;&#9;&#9;&#9;c-6.9,14.4-13.8,28.9-21.2,43.1c-3.7,7.1-7.4,14.3-11.2,21.4l-5.8,10.7c-1.1,1.9-2.1,3.8-3.2,5.8l9.4,5.9&#10;&#9;&#9;&#9;&#9;c2.3-3.9,4.2-7.3,6.2-10.9l5.8-10.7c3.8-7.1,7.5-14.2,11.2-21.4c7.4-14.3,14.3-28.7,21.2-43.1c13.6-29,26.2-58.3,37.9-88&#10;&#9;&#9;&#9;&#9;c23.5-59.3,43-120.3,58-182.4c7.3-31.1,13.3-62.5,18-94.2c4.4-31.7,7.2-63.6,8.4-95.6c0.9-32-0.3-64.1-3.4-96&#10;&#9;&#9;&#9;&#9;c-3.6-31.9-9.6-63.4-17.9-94.4L752,684c7.8,29.8,13.5,60.1,17,90.8c3.1,31.9,4.3,64,3.4,96C771.2,902.8,768.3,934.7,763.9,966.4z&#10;&#9;&#9;&#9;&#9;" style="fill: rgb(198, 126, 89);" transform="matrix(1, 0, 0, 1, 0, 0)"/><g transform="matrix(1, 0, 0, 1, 0, 0)">
					<path class="st7" d="M773.5,724.7c-8.1-0.3-16.3-0.6-24.4-0.8c0.3,2.1,0.6,4.2,0.9,6.3c8.2,0.2,16.5,0.5,24.7,0.8&#10;&#9;&#9;&#9;&#9;&#9;&#9;C774.3,729,773.9,726.9,773.5,724.7z" style="fill: rgb(175, 99, 65);"/>
					<path class="st7" d="M749.8,901.7c-0.3,2.2-0.6,4.4-0.8,6.6c11.3-2.4,22.6-4.3,34-5.9c0.2-2.2,0.4-4.3,0.5-6.4&#10;&#9;&#9;&#9;&#9;&#9;&#9;C772.2,897.5,761,899.4,749.8,901.7z" style="fill: rgb(175, 99, 65);"/>
					<path class="st7" d="M688.2,1273.3l-10.6-7c-11.2-7.3-22.2-15.1-33.8-21.7c-0.9,1.9-1.8,3.7-2.7,5.6&#10;&#9;&#9;&#9;&#9;&#9;&#9;c13.1,7.4,25.4,16.3,37.9,24.5c2.2,1.5,4.5,2.9,6.7,4.4C686.6,1277.2,687.4,1275.2,688.2,1273.3z" style="fill: rgb(175, 99, 65);"/>
					<path class="st7" d="M784.9,838.2c-10-0.1-19.9,0-29.9,0.2c-0.1,2.1-0.1,4.2-0.2,6.3c10-0.2,20.1-0.2,30.1-0.2&#10;&#9;&#9;&#9;&#9;&#9;&#9;C784.9,842.4,784.9,840.3,784.9,838.2z" style="fill: rgb(175, 99, 65);"/>
					<path class="st7" d="M674.4,1175.6c-0.8,2-1.6,4.1-2.5,6.1c16.5,1.7,33,3.4,49.5,4.9c0.7-2,1.4-4.1,2.1-6.1&#10;&#9;&#9;&#9;&#9;&#9;&#9;C707.2,1179,690.8,1177.3,674.4,1175.6z" style="fill: rgb(175, 99, 65);"/>
					<path class="st7" d="M742,952.4c-0.4,2.1-0.7,4.2-1.1,6.2c12,1.6,24.1,2,36.2,2.1c0.3-2.1,0.5-4.2,0.8-6.3&#10;&#9;&#9;&#9;&#9;&#9;&#9;C765.9,954.4,753.9,953.9,742,952.4z" style="fill: rgb(175, 99, 65);"/>
					<path class="st7" d="M725.8,1024.1c-0.5,2-1.1,4.1-1.6,6.1c13.2,2.3,26.3,4.6,39.5,6.7c0.4-2.1,0.8-4.1,1.3-6.2&#10;&#9;&#9;&#9;&#9;&#9;&#9;C751.9,1028.6,738.8,1026.4,725.8,1024.1z" style="fill: rgb(175, 99, 65);"/>
					<path class="st7" d="M781.9,782c-8.9,1.8-17.9,3.6-26.8,5.2c0.1,2.1,0.1,4.3,0.2,6.4c9.1-1.7,18.1-3.4,27.2-5.3&#10;&#9;&#9;&#9;&#9;&#9;&#9;C782.3,786.2,782.1,784.1,781.9,782z" style="fill: rgb(175, 99, 65);"/>
					<path class="st7" d="M608.5,1314.1c-1,1.9-2,3.7-3,5.6c17.4,7.2,34.8,14.4,52.2,21.5c0.9-1.9,1.8-3.8,2.7-5.7&#10;&#9;&#9;&#9;&#9;&#9;&#9;C643.2,1328.4,625.8,1321.3,608.5,1314.1z" style="fill: rgb(175, 99, 65);"/>
					<path class="st7" d="M704.6,1094.9c-0.7,2-1.4,4-2.1,6c13.3,6.6,26.7,12.9,40.2,18.9c0.6-2,1.2-4.1,1.8-6.1&#10;&#9;&#9;&#9;&#9;&#9;&#9;C731.1,1107.7,717.8,1101.4,704.6,1094.9z" style="fill: rgb(175, 99, 65);"/>
				</g><path class="st3" d="M1061.5,796c-58.6-106.7-143.7-170.6-325.9-113.2l153.9,53.4l21-30.7l-11.2,34.1l16,5.6l20.3-49.6l-8.7,53.6&#10;&#9;&#9;&#9;l50.8,17.6l15.6-36.7l-0.7,41.9L1061.5,796z" style="fill: rgb(44, 147, 100);" transform="matrix(1, 0, 0, 1, 0, 0)"/><path class="st8" d="M758.2,677.7c-121.3-9.5-221.4,26.4-273.5,210.3l129.1-99.3l-14.1-34.4l22.4,28.1l13.4-10.3l-30.4-44.2&#10;&#9;&#9;&#9;l40.1,36.7l42.6-32.8l-22.2-33.2l34.6,23.6L758.2,677.7z" style="fill: rgb(95, 178, 136);" transform="matrix(1, 0, 0, 1, 0, 0)"/><path class="st8" d="M1143.5,498.8C988.3,455,849,475.9,733.8,701.2l193.4-95.6l-9.5-48.3l21.8,42.2l20.1-10l-28-65.2l42.6,58&#10;&#9;&#9;&#9;l63.8-31.6l-20.2-48.9l38.9,39.6L1143.5,498.8z" style="fill: rgb(95, 178, 136);" transform="matrix(1, 0, 0, 1, 0, 0)"/><path class="st8" d="M656.5,659.2l14.9-42.5l2.2,47.2l79.3,21.9C679.2,570.1,579,504.4,378.1,582.1l176.9,49l21.4-36l-10.1,39.2&#10;&#9;&#9;&#9;l18.4,5.1l19.2-57.3l-5.9,61L656.5,659.2z" style="fill: rgb(95, 178, 136);" transform="matrix(1, 0, 0, 1, 0, 0)"/><path class="st9" d="M762.3,752.2c4.1-14.3-5-26-19.3-30.1c-14.3-4.1-28.2,0.9-32.4,15.2c-4.1,14.3,2.9,33.1,17.2,37.3&#10;&#9;&#9;&#9;&#9;C742.1,778.7,758.1,766.5,762.3,752.2z" style="fill: rgb(79, 168, 119);" transform="matrix(1, 0, 0, 1, 0, 0)"/><path class="st10" d="M721.5,766.9c-2.8-0.8-5.3-2.2-7.5-4c3.2,5.6,7.9,10,13.9,11.7c14.3,4.1,30.3-8.1,34.4-22.3&#10;&#9;&#9;&#9;&#9;c2.8-9.8-0.6-18.5-7.8-24.2c2.5,4.8,3.2,10.4,1.4,16.5C751.8,758.8,735.7,771,721.5,766.9z" style="fill: rgb(65, 153, 103);" transform="matrix(1, 0, 0, 1, 0, 0)"/><path d="M 735.700025 735 A 10.3 8.3 0 0 1 725.400024 743.3 A 10.3 8.3 0 0 1 715.100024 735 A 10.3 8.3 0 0 1 725.400024 726.7 A 10.3 8.3 0 0 1 735.700025 735 Z" transform="matrix(0.5998000502586365, -0.8001000285148621, 0.8001000285148621, 0.5998000502586365, -297.79510498046875, 874.5223999023438)" class="st11" style="fill: rgb(103, 183, 137);"/><path class="st3" d="M793.5,750c13.7-5.8,18.4-25.4,12.7-39c-5.8-13.7-20.3-17-33.9-11.2c-13.7,5.8-21.4,18.5-15.6,32.2&#10;&#9;&#9;&#9;&#9;C762.5,745.6,779.9,755.8,793.5,750z" style="fill: rgb(44, 147, 100);" transform="matrix(1, 0, 0, 1, 0, 0)"/><path class="st12" d="M783.8,748.1c-2.7,1.1-5.5,1.6-8.4,1.6c5.9,2.3,12.4,2.8,18.2,0.3c13.7-5.8,18.4-25.4,12.7-39&#10;&#9;&#9;&#9;&#9;c-4-9.4-12.1-13.9-21.3-13.9c4.9,2.2,9,6.1,11.5,12C802.2,722.7,797.4,742.3,783.8,748.1z" style="fill: rgb(33, 132, 85);" transform="matrix(1, 0, 0, 1, 0, 0)"/><path d="M 775.000012 720.799988 A 8.3 10.3 0 0 1 766.700012 731.099988 A 8.3 10.3 0 0 1 758.400012 720.799988 A 8.3 10.3 0 0 1 766.700012 710.499988 A 8.3 10.3 0 0 1 775.000012 720.799988 Z" transform="matrix(0.9993000030517578, -0.03847108036279678, 0.03847108036279678, 0.9993000030517578, -27.163700103759766, 30.02829933166504)" class="st13" style="fill: rgb(70, 165, 120);"/><path class="st8" d="M760.3,739.9c14.7-2,24.4-19.7,22.4-34.4c-2-14.7-15.1-21.7-29.8-19.7c-14.7,2-25.4,12.3-23.4,27&#10;&#9;&#9;&#9;&#9;C731.5,727.5,745.6,742,760.3,739.9z" style="fill: rgb(95, 178, 136);" transform="matrix(1, 0, 0, 1, 0, 0)"/><path class="st9" d="M751.4,735.5c-2.9,0.4-5.8,0.1-8.5-0.6c5.1,3.8,11.2,5.9,17.5,5.1c14.7-2,24.4-19.7,22.4-34.4&#10;&#9;&#9;&#9;&#9;c-1.4-10.2-8.1-16.6-16.9-19c4.2,3.4,7.1,8.2,8,14.6C775.8,715.8,766.1,733.5,751.4,735.5z" style="fill: rgb(79, 168, 119);" transform="matrix(1, 0, 0, 1, 0, 0)"/><path d="M 752.3 704.700012 A 10.3 8.3 0 0 1 742 713.000012 A 10.3 8.3 0 0 1 731.7 704.700012 A 10.3 8.3 0 0 1 742 696.400012 A 10.3 8.3 0 0 1 752.3 704.700012 Z" transform="matrix(0.22390000522136688, -0.9746000170707703, 0.9746000170707703, 0.22390000522136688, -110.98419952392578, 1270.0858154296875)" class="st14" style="fill: rgb(112, 193, 148);"/><path d="M 959.600037 1384.800049 A 431.200012 114.900002 0 0 1 528.400024 1499.70005 A 431.200012 114.900002 0 0 1 97.200012 1384.800049 A 431.200012 114.900002 0 0 1 528.400024 1269.900047 A 431.200012 114.900002 0 0 1 959.600037 1384.800049 Z" class="st15" style="fill: rgb(252, 200, 157);" transform="matrix(1, 0, 0, 1, 0, 0)"/><path d="M 0 1601.199951 H 3000 V 1999.999939 H 0 V 1601.199951 Z" class="st38" style="fill: rgb(71, 211, 221);" transform="matrix(1, 0, 0, 1, 0, 0)"/><path class="st39" d="M916.3,1808.4c163.5,85.3,546.6,222.3,740.6,122.1s392-197.1,560-96.5c168,100.6,678.1,213.6,783.1,69.5&#10;&#9;&#9;v-267.6H0v246.6c0,0,128.7,108.1,332.7,0C536.7,1774.4,752.9,1723.1,916.3,1808.4z" style="fill: rgb(94, 224, 234);" transform="matrix(1, 0, 0, 1, 0, 0)"/><path class="st2" d="M998.8,1701.4c177,87.8,449.9,309.9,783,138.8s537.1-77.7,663.1,0s477.1,130.4,555.1-15.9v-223.1H0v217.3&#10;&#9;&#9;c0,0,122.7,114.1,329.7,0C536.7,1704.4,821.8,1613.7,998.8,1701.4z" style="fill: rgb(124, 236, 242);" transform="matrix(1, 0, 0, 1, 0, 0)"/><path class="st1" d="M1079.4,1654.5c264.4,120.1,454.2,247.6,641.4,125.3c187.1-122.3,376.2-187.1,580.2-100.5&#10;&#9;&#9;c204,86.5,477.1,282.6,699.1,54.4v-204.5H0v210.4c0,0,158.7,90.7,314.7,0C470.7,1648.8,814.9,1534.3,1079.4,1654.5z" style="fill: rgb(159, 247, 249);" transform="matrix(1, 0, 0, 1, 0, 0)"/><path class="st40" d="M347.7,1635.5c267-111.7,709.7-79.8,875.4-8s285.7,109,528.7,16c243-93.1,555.1-47.9,717.1,18.6&#10;&#9;&#9;s501.1,45.2,531.1-37.2v-202.6H0v106.9v106.4C0,1635.5,80.7,1747.2,347.7,1635.5z" style="fill: rgb(247, 221, 203);" transform="matrix(1, 0, 0, 1, 0, 0)"/><path class="st41" d="M1147.6,1542.4c271.2,63.8,400.1,42.5,547.2,0c147.1-42.5,492.2-39.9,801.2,37.2&#10;&#9;&#9;c309,77.1,504.1-77.1,504.1-77.1v-127.6H0v191.5c0,0,89.7,69.1,302.7,0S876.3,1478.6,1147.6,1542.4z" style="fill: rgb(249, 206, 175);" transform="matrix(1, 0, 0, 1, 0, 0)"/><path class="st15" d="M1057.9,1440c194.1,61.2,550,26.6,624.9,2.7c74.9-23.9,534.2-45.2,765.2,34.6c231,79.8,552.1-31.9,552.1-31.9&#10;&#9;&#9;v-117.1c0,0-2991.3,10.7-3000,0v164.9c0,0,146.7,61.2,269.7-16S863.8,1378.9,1057.9,1440z" style="fill: rgb(252, 200, 157);" transform="matrix(1, 0, 0, 1, 0, 0)"/><g transform="matrix(1, 0, 0, 1, 0, 0)">
			<path d="M 654 1294.199951 A 164.399994 17.5 0 0 1 489.600006 1311.699951 A 164.399994 17.5 0 0 1 325.200012 1294.199951 A 164.399994 17.5 0 0 1 489.600006 1276.699951 A 164.399994 17.5 0 0 1 654 1294.199951 Z" class="st16" style="fill: rgb(237, 175, 128);"/>
			<path d="M 532.299988 1313.900024 A 94 17.5 0 0 1 438.299988 1331.400024 A 94 17.5 0 0 1 344.299988 1313.900024 A 94 17.5 0 0 1 438.299988 1296.400024 A 94 17.5 0 0 1 532.299988 1313.900024 Z" class="st16" style="fill: rgb(237, 175, 128);"/>
			<path d="M 608.300011 1308.199951 A 67.099998 12.5 0 0 1 541.200012 1320.699951 A 67.099998 12.5 0 0 1 474.100014 1308.199951 A 67.099998 12.5 0 0 1 541.200012 1295.699951 A 67.099998 12.5 0 0 1 608.300011 1308.199951 Z" class="st16" style="fill: rgb(237, 175, 128);"/>
		</g><path d="M 484.800011 1316.699951 A 45.099998 8.4 0 0 1 439.700012 1325.099951 A 45.099998 8.4 0 0 1 394.600014 1316.699951 A 45.099998 8.4 0 0 1 439.700012 1308.299952 A 45.099998 8.4 0 0 1 484.800011 1316.699951 Z" class="st17" style="fill: rgb(214, 157, 118);" transform="matrix(1, 0, 0, 1, 0, 0)"/><path d="M 428.099998 1291.900024 A 45.099998 8.4 0 0 1 383 1300.300024 A 45.099998 8.4 0 0 1 337.900002 1291.900024 A 45.099998 8.4 0 0 1 383 1283.500025 A 45.099998 8.4 0 0 1 428.099998 1291.900024 Z" class="st17" style="fill: rgb(214, 157, 118);" transform="matrix(1, 0, 0, 1, 0, 0)"/><path d="M 570.099998 1303.199951 A 45.099998 8.4 0 0 1 525 1311.599951 A 45.099998 8.4 0 0 1 479.900002 1303.199951 A 45.099998 8.4 0 0 1 525 1294.799952 A 45.099998 8.4 0 0 1 570.099998 1303.199951 Z" class="st17" style="fill: rgb(214, 157, 118);" transform="matrix(1, 0, 0, 1, 0, 0)"/><path d="M 620.399986 1290.199951 A 45.099998 8.4 0 0 1 575.299988 1298.599951 A 45.099998 8.4 0 0 1 530.199989 1290.199951 A 45.099998 8.4 0 0 1 575.299988 1281.799952 A 45.099998 8.4 0 0 1 620.399986 1290.199951 Z" class="st17" style="fill: rgb(214, 157, 118);" transform="matrix(1, 0, 0, 1, 0, 0)"/><path d="M 365 1200.300048828125 L 346.29998779296875 1287.699951171875 L 369.70001220703125 1287.699951171875 L 380.29998779296875 1232.300048828125 Z" class="st42" style="fill: rgb(216, 74, 104);" transform="matrix(1, 0, 0, 1, 0, 0)"/><path d="M 365 1200.300048828125 L 358.3999938964844 1231.5 L 374.79998779296875 1263.300048828125 L 380.29998779296875 1232.300048828125 Z" class="st43" style="fill: rgb(201, 57, 91);" transform="matrix(1, 0, 0, 1, 0, 0)"/><path d="M 465.900013 1099.900024 A 60.700001 220.899994 0 0 1 405.200012 1320.800018 A 60.700001 220.899994 0 0 1 344.500011 1099.900024 A 60.700001 220.899994 0 0 1 405.200012 879.000031 A 60.700001 220.899994 0 0 1 465.900013 1099.900024 Z" transform="matrix(0.9883000254631042, -0.1527000069618225, 0.1527000069618225, 0.9883000254631042, -163.18099975585938, 74.76820373535156)" class="st33" style="fill: rgb(237, 93, 117);"/><g transform="matrix(1, 0, 0, 1, 0, 0)">
				<path class="st44" d="M403.3,1107.1c-14.5-93.8-40.3-169.2-60.4-179.6c-9.1,41.9-9,108.4,2.3,181.7&#10;&#9;&#9;&#9;&#9;&#9;c12.3,79.5,34.7,147.3,58.1,182.8C416.1,1268.6,416.7,1193.9,403.3,1107.1z" style="fill: rgb(239, 127, 152);"/>
				<path class="st44" d="M465.3,1090.6c-10.9-70.5-29.7-131.7-50.2-169.4c-12.9,23.2-13.5,98.1,0,184.9&#10;&#9;&#9;&#9;&#9;&#9;c12.4,80.2,33.1,146.9,51.3,171.1C476.7,1235.7,477.1,1166.9,465.3,1090.6z" style="fill: rgb(239, 127, 152);"/>
			</g><path d="M 594.9000244140625 1222.9000244140625 L 573.5999755859375 1249 L 583.7000122070312 1287.699951171875 L 608.2999877929688 1287.699951171875 Z" class="st45" style="fill: rgb(88, 191, 191);" transform="matrix(1, 0, 0, 1, 0, 0)"/><path d="M 594.9000244140625 1220 L 575.2999877929688 1255.300048828125 L 579.9000244140625 1273.300048828125 L 599 1242.699951171875 Z" class="st46" style="fill: rgb(74, 175, 172);" transform="matrix(1, 0, 0, 1, 0, 0)"/><path d="M 773.099976 1108.400024 A 199.5 54.900002 0 0 1 573.599976 1163.300026 A 199.5 54.900002 0 0 1 374.099976 1108.400024 A 199.5 54.900002 0 0 1 573.599976 1053.500023 A 199.5 54.900002 0 0 1 773.099976 1108.400024 Z" transform="matrix(0.22390000522136688, -0.9746000170707703, 0.9746000170707703, 0.22390000522136688, -635.0452880859375, 1419.3172607421875)" class="st22" style="fill: rgb(110, 204, 206);"/><path class="st47" d="M637.9,941.2c-1.3-4.9-2.9-9.3-4.7-13l-84.6,368.2c3.2-2.5,6.5-5.8,9.9-9.6L637.9,941.2z" style="fill: rgb(146, 224, 224);" transform="matrix(1, 0, 0, 1, 0, 0)"/><path class="st47" d="M588.4,930.4L509.3,1275c1.3,5,2.9,9.4,4.6,13.1l84.4-367.5C595.1,923.2,591.8,926.5,588.4,930.4z" style="fill: rgb(146, 224, 224);" transform="matrix(1, 0, 0, 1, 0, 0)"/><path class="st47" d="M538.8,1302.1l88-383.2c-2.5-2.6-5.4-4.2-8.5-5s-6.4-0.4-9.8,0.8l-88,383.2c2.5,2.6,5.4,4.2,8.5,5&#10;&#9;&#9;&#9;&#9;C532.1,1303.6,535.4,1303.3,538.8,1302.1z" style="fill: rgb(146, 224, 224);" transform="matrix(1, 0, 0, 1, 0, 0)"/><path class="st20" d="M2457.8,1224.5l8.5-150.7c-10.5-7.3-23.4-7.3-33.9,0l8.5,150.7h8.5H2457.8z" style="fill: rgb(255, 239, 230);" transform="matrix(1, 0, 0, 1, 0, 0)"/><path class="st48" d="M2436.9,1224.4l-9.6-150.6c-11.1-5.7-24-3.8-33.6,5l26.4,148.1l8.4-1.2L2436.9,1224.4z" style="fill: rgb(247, 225, 213);" transform="matrix(1, 0, 0, 1, 0, 0)"/><path class="st20" d="M2418.3,1228.3l-29.6-147.4l0,0c-11.7-3.8-24.2,0.2-32.7,10.4l46,142.2l8.2-2.6L2418.3,1228.3z" style="fill: rgb(255, 239, 230);" transform="matrix(1, 0, 0, 1, 0, 0)"/><path class="st48" d="M2505,1078.7c-9.6-8.8-22.5-10.7-33.6-5l-9.6,150.6l8.4,1.2l8.4,1.2L2505,1078.7z" style="fill: rgb(247, 225, 213);" transform="matrix(1, 0, 0, 1, 0, 0)"/><path class="st20" d="M2542.6,1091.3c-8.5-10.3-21-14.2-32.7-10.4l0,0l-29.6,147.4l8.2,2.6l8.2,2.6L2542.6,1091.3z" style="fill: rgb(255, 239, 230);" transform="matrix(1, 0, 0, 1, 0, 0)"/><path d="M 2401 1224.5 H 2496.199997 V 1251.200001 H 2401 V 1224.5 Z" class="st49" style="fill: rgb(224, 198, 184);" transform="matrix(1, 0, 0, 1, 0, 0)"/><path d="M 2371.399902 1196.599976 H 2401.099903 V 1295.299973 H 2371.399902 V 1196.599976 Z" class="st48" style="fill: rgb(247, 225, 213);" transform="matrix(1, 0, 0, 1, 0, 0)"/><path d="M 2496.199951 1196.599976 H 2525.899952 V 1295.299973 H 2496.199951 V 1196.599976 Z" class="st48" style="fill: rgb(247, 225, 213);" transform="matrix(1, 0, 0, 1, 0, 0)"/><path d="M 2360.800049 1187 H 2402.400047 V 1196.6 H 2360.800049 V 1187 Z" class="st50" style="fill: rgb(239, 204, 191);" transform="matrix(1, 0, 0, 1, 0, 0)"/><path d="M 2496.199951 1187 H 2537.79995 V 1196.6 H 2496.199951 V 1187 Z" class="st50" style="fill: rgb(239, 204, 191);" transform="matrix(1, 0, 0, 1, 0, 0)"/><path d="M 790.199976 1336.599976 A 11.1 3.6 0 0 1 779.099976 1340.199975 A 11.1 3.6 0 0 1 767.999975 1336.599976 A 11.1 3.6 0 0 1 779.099976 1332.999976 A 11.1 3.6 0 0 1 790.199976 1336.599976 Z" class="st40" style="fill: rgb(247, 221, 203);" transform="matrix(1, 0, 0, 1, 0, 0)"/><path d="M 699.300013 1359.599976 A 11.1 3.6 0 0 1 688.200012 1363.199975 A 11.1 3.6 0 0 1 677.100012 1359.599976 A 11.1 3.6 0 0 1 688.200012 1355.999976 A 11.1 3.6 0 0 1 699.300013 1359.599976 Z" class="st40" style="fill: rgb(247, 221, 203);" transform="matrix(1, 0, 0, 1, 0, 0)"/><path d="M 108.299997 1381.199951 A 11.1 3.6 0 0 1 97.199997 1384.799951 A 11.1 3.6 0 0 1 86.099997 1381.199951 A 11.1 3.6 0 0 1 97.199997 1377.599951 A 11.1 3.6 0 0 1 108.299997 1381.199951 Z" class="st40" style="fill: rgb(247, 221, 203);" transform="matrix(1, 0, 0, 1, 0, 0)"/><path d="M 76.999999 1374.900024 A 6.9 2.2 0 0 1 70.099998 1377.100024 A 6.9 2.2 0 0 1 63.199998 1374.900024 A 6.9 2.2 0 0 1 70.099998 1372.700024 A 6.9 2.2 0 0 1 76.999999 1374.900024 Z" class="st40" style="fill: rgb(247, 221, 203);" transform="matrix(1, 0, 0, 1, 0, 0)"/><path d="M 97.200003 1361.5 A 6.9 2.2 0 0 1 90.300003 1363.7 A 6.9 2.2 0 0 1 83.400003 1361.5 A 6.9 2.2 0 0 1 90.300003 1359.3 A 6.9 2.2 0 0 1 97.200003 1361.5 Z" class="st40" style="fill: rgb(247, 221, 203);" transform="matrix(1, 0, 0, 1, 0, 0)"/><path d="M 39.9 1372.599976 A 6.9 2.2 0 0 1 33 1374.799976 A 6.9 2.2 0 0 1 26.1 1372.599976 A 6.9 2.2 0 0 1 33 1370.399976 A 6.9 2.2 0 0 1 39.9 1372.599976 Z" class="st40" style="fill: rgb(247, 221, 203);" transform="matrix(1, 0, 0, 1, 0, 0)"/><path d="M 189.500006 1438 A 6.9 2.2 0 0 1 182.600006 1440.2 A 6.9 2.2 0 0 1 175.700006 1438 A 6.9 2.2 0 0 1 182.600006 1435.8 A 6.9 2.2 0 0 1 189.500006 1438 Z" class="st40" style="fill: rgb(247, 221, 203);" transform="matrix(1, 0, 0, 1, 0, 0)"/><path d="M 110.9 1450.599976 A 6.9 2.2 0 0 1 104 1452.799976 A 6.9 2.2 0 0 1 97.1 1450.599976 A 6.9 2.2 0 0 1 104 1448.399976 A 6.9 2.2 0 0 1 110.9 1450.599976 Z" class="st40" style="fill: rgb(247, 221, 203);" transform="matrix(1, 0, 0, 1, 0, 0)"/><path d="M 261.099997 1384.800049 A 6.9 2.2 0 0 1 254.199997 1387.000049 A 6.9 2.2 0 0 1 247.299997 1384.800049 A 6.9 2.2 0 0 1 254.199997 1382.600049 A 6.9 2.2 0 0 1 261.099997 1384.800049 Z" class="st40" style="fill: rgb(247, 221, 203);" transform="matrix(1, 0, 0, 1, 0, 0)"/><path d="M 321.4 1399.599976 A 6.9 2.2 0 0 1 314.5 1401.799976 A 6.9 2.2 0 0 1 307.6 1399.599976 A 6.9 2.2 0 0 1 314.5 1397.399976 A 6.9 2.2 0 0 1 321.4 1399.599976 Z" class="st40" style="fill: rgb(247, 221, 203);" transform="matrix(1, 0, 0, 1, 0, 0)"/><path d="M 321.4 1357 A 6.9 2.2 0 0 1 314.5 1359.2 A 6.9 2.2 0 0 1 307.6 1357 A 6.9 2.2 0 0 1 314.5 1354.8 A 6.9 2.2 0 0 1 321.4 1357 Z" class="st40" style="fill: rgb(247, 221, 203);" transform="matrix(1, 0, 0, 1, 0, 0)"/><path d="M 412.100012 1377.599976 A 6.9 2.2 0 0 1 405.200012 1379.799976 A 6.9 2.2 0 0 1 398.300012 1377.599976 A 6.9 2.2 0 0 1 405.200012 1375.399976 A 6.9 2.2 0 0 1 412.100012 1377.599976 Z" class="st40" style="fill: rgb(247, 221, 203);" transform="matrix(1, 0, 0, 1, 0, 0)"/><path d="M 489.699988 1401.900024 A 6.9 2.2 0 0 1 482.799988 1404.100024 A 6.9 2.2 0 0 1 475.899988 1401.900024 A 6.9 2.2 0 0 1 482.799988 1399.700024 A 6.9 2.2 0 0 1 489.699988 1401.900024 Z" class="st40" style="fill: rgb(247, 221, 203);" transform="matrix(1, 0, 0, 1, 0, 0)"/><path d="M 530.199988 1343.5 A 6.9 2.2 0 0 1 523.299988 1345.7 A 6.9 2.2 0 0 1 516.399988 1343.5 A 6.9 2.2 0 0 1 523.299988 1341.3 A 6.9 2.2 0 0 1 530.199988 1343.5 Z" class="st40" style="fill: rgb(247, 221, 203);" transform="matrix(1, 0, 0, 1, 0, 0)"/><path d="M 637.9 1358.199951 A 6.9 2.2 0 0 1 631 1360.399951 A 6.9 2.2 0 0 1 624.1 1358.199951 A 6.9 2.2 0 0 1 631 1355.999951 A 6.9 2.2 0 0 1 637.9 1358.199951 Z" class="st40" style="fill: rgb(247, 221, 203);" transform="matrix(1, 0, 0, 1, 0, 0)"/><path d="M 726.300025 1314.099976 A 6.9 2.2 0 0 1 719.400024 1316.299976 A 6.9 2.2 0 0 1 712.500024 1314.099976 A 6.9 2.2 0 0 1 719.400024 1311.899976 A 6.9 2.2 0 0 1 726.300025 1314.099976 Z" class="st40" style="fill: rgb(247, 221, 203);" transform="matrix(1, 0, 0, 1, 0, 0)"/><path d="M 777.600012 1353.699951 A 6.9 2.2 0 0 1 770.700012 1355.899951 A 6.9 2.2 0 0 1 763.800012 1353.699951 A 6.9 2.2 0 0 1 770.700012 1351.499951 A 6.9 2.2 0 0 1 777.600012 1353.699951 Z" class="st40" style="fill: rgb(247, 221, 203);" transform="matrix(1, 0, 0, 1, 0, 0)"/><path d="M 728.600012 1379.900024 A 6.9 2.2 0 0 1 721.700012 1382.100024 A 6.9 2.2 0 0 1 714.800012 1379.900024 A 6.9 2.2 0 0 1 721.700012 1377.700024 A 6.9 2.2 0 0 1 728.600012 1379.900024 Z" class="st40" style="fill: rgb(247, 221, 203);" transform="matrix(1, 0, 0, 1, 0, 0)"/><path d="M 877.4 1358.199951 A 6.9 2.2 0 0 1 870.5 1360.399951 A 6.9 2.2 0 0 1 863.6 1358.199951 A 6.9 2.2 0 0 1 870.5 1355.999951 A 6.9 2.2 0 0 1 877.4 1358.199951 Z" class="st40" style="fill: rgb(247, 221, 203);" transform="matrix(1, 0, 0, 1, 0, 0)"/><path d="M 955.9 1353.800049 A 6.9 2.2 0 0 1 949 1356.000049 A 6.9 2.2 0 0 1 942.1 1353.800049 A 6.9 2.2 0 0 1 949 1351.600049 A 6.9 2.2 0 0 1 955.9 1353.800049 Z" class="st40" style="fill: rgb(247, 221, 203);" transform="matrix(1, 0, 0, 1, 0, 0)"/><path d="M 1013.800025 1390.699951 A 6.9 2.2 0 0 1 1006.900024 1392.899951 A 6.9 2.2 0 0 1 1000.000024 1390.699951 A 6.9 2.2 0 0 1 1006.900024 1388.499951 A 6.9 2.2 0 0 1 1013.800025 1390.699951 Z" class="st40" style="fill: rgb(247, 221, 203);" transform="matrix(1, 0, 0, 1, 0, 0)"/><path d="M 1126.099951 1374.900024 A 6.9 2.2 0 0 1 1119.199951 1377.100024 A 6.9 2.2 0 0 1 1112.299951 1374.900024 A 6.9 2.2 0 0 1 1119.199951 1372.700024 A 6.9 2.2 0 0 1 1126.099951 1374.900024 Z" class="st40" style="fill: rgb(247, 221, 203);" transform="matrix(1, 0, 0, 1, 0, 0)"/><path d="M 1261.099951 1384.800049 A 6.9 2.2 0 0 1 1254.199951 1387.000049 A 6.9 2.2 0 0 1 1247.299951 1384.800049 A 6.9 2.2 0 0 1 1254.199951 1382.600049 A 6.9 2.2 0 0 1 1261.099951 1384.800049 Z" class="st40" style="fill: rgb(247, 221, 203);" transform="matrix(1, 0, 0, 1, 0, 0)"/><path d="M 1343.4 1360.199951 A 6.9 2.2 0 0 1 1336.5 1362.399951 A 6.9 2.2 0 0 1 1329.6 1360.199951 A 6.9 2.2 0 0 1 1336.5 1357.999951 A 6.9 2.2 0 0 1 1343.4 1360.199951 Z" class="st40" style="fill: rgb(247, 221, 203);" transform="matrix(1, 0, 0, 1, 0, 0)"/><path d="M 1361.300025 1401.199951 A 6.9 2.2 0 0 1 1354.400024 1403.399951 A 6.9 2.2 0 0 1 1347.500024 1401.199951 A 6.9 2.2 0 0 1 1354.400024 1398.999951 A 6.9 2.2 0 0 1 1361.300025 1401.199951 Z" class="st40" style="fill: rgb(247, 221, 203);" transform="matrix(1, 0, 0, 1, 0, 0)"/><path d="M 1489.300025 1362.400024 A 6.9 2.2 0 0 1 1482.400024 1364.600024 A 6.9 2.2 0 0 1 1475.500024 1362.400024 A 6.9 2.2 0 0 1 1482.400024 1360.200024 A 6.9 2.2 0 0 1 1489.300025 1362.400024 Z" class="st40" style="fill: rgb(247, 221, 203);" transform="matrix(1, 0, 0, 1, 0, 0)"/><path d="M 1558.9 1407.199951 A 6.9 2.2 0 0 1 1552 1409.399951 A 6.9 2.2 0 0 1 1545.1 1407.199951 A 6.9 2.2 0 0 1 1552 1404.999951 A 6.9 2.2 0 0 1 1558.9 1407.199951 Z" class="st40" style="fill: rgb(247, 221, 203);" transform="matrix(1, 0, 0, 1, 0, 0)"/><path d="M 1768.200049 1379.800049 A 6.9 2.2 0 0 1 1761.300049 1382.000049 A 6.9 2.2 0 0 1 1754.400049 1379.800049 A 6.9 2.2 0 0 1 1761.300049 1377.600049 A 6.9 2.2 0 0 1 1768.200049 1379.800049 Z" class="st40" style="fill: rgb(247, 221, 203);" transform="matrix(1, 0, 0, 1, 0, 0)"/><path d="M 1908.599951 1372.599976 A 6.9 2.2 0 0 1 1901.699951 1374.799976 A 6.9 2.2 0 0 1 1894.799951 1372.599976 A 6.9 2.2 0 0 1 1901.699951 1370.399976 A 6.9 2.2 0 0 1 1908.599951 1372.599976 Z" class="st40" style="fill: rgb(247, 221, 203);" transform="matrix(1, 0, 0, 1, 0, 0)"/><path d="M 1942.9 1351.199951 A 6.9 2.2 0 0 1 1936 1353.399951 A 6.9 2.2 0 0 1 1929.1 1351.199951 A 6.9 2.2 0 0 1 1936 1348.999951 A 6.9 2.2 0 0 1 1942.9 1351.199951 Z" class="st40" style="fill: rgb(247, 221, 203);" transform="matrix(1, 0, 0, 1, 0, 0)"/><path d="M 1959.599951 1372.599976 A 6.9 2.2 0 0 1 1952.699951 1374.799976 A 6.9 2.2 0 0 1 1945.799951 1372.599976 A 6.9 2.2 0 0 1 1952.699951 1370.399976 A 6.9 2.2 0 0 1 1959.599951 1372.599976 Z" class="st40" style="fill: rgb(247, 221, 203);" transform="matrix(1, 0, 0, 1, 0, 0)"/><path d="M 2062.299902 1384.800049 A 6.9 2.2 0 0 1 2055.399902 1387.000049 A 6.9 2.2 0 0 1 2048.499902 1384.800049 A 6.9 2.2 0 0 1 2055.399902 1382.600049 A 6.9 2.2 0 0 1 2062.299902 1384.800049 Z" class="st40" style="fill: rgb(247, 221, 203);" transform="matrix(1, 0, 0, 1, 0, 0)"/><path d="M 1983.300025 1400.900024 A 6.9 2.2 0 0 1 1976.400024 1403.100024 A 6.9 2.2 0 0 1 1969.500024 1400.900024 A 6.9 2.2 0 0 1 1976.400024 1398.700024 A 6.9 2.2 0 0 1 1983.300025 1400.900024 Z" class="st40" style="fill: rgb(247, 221, 203);" transform="matrix(1, 0, 0, 1, 0, 0)"/><path d="M 2154.299902 1340.900024 A 6.9 2.2 0 0 1 2147.399902 1343.100024 A 6.9 2.2 0 0 1 2140.499902 1340.900024 A 6.9 2.2 0 0 1 2147.399902 1338.700024 A 6.9 2.2 0 0 1 2154.299902 1340.900024 Z" class="st40" style="fill: rgb(247, 221, 203);" transform="matrix(1, 0, 0, 1, 0, 0)"/><path d="M 2220.599951 1308.300049 A 6.9 2.2 0 0 1 2213.699951 1310.500049 A 6.9 2.2 0 0 1 2206.799951 1308.300049 A 6.9 2.2 0 0 1 2213.699951 1306.100049 A 6.9 2.2 0 0 1 2220.599951 1308.300049 Z" class="st40" style="fill: rgb(247, 221, 203);" transform="matrix(1, 0, 0, 1, 0, 0)"/><path d="M 2293.200049 1380.400024 A 6.9 2.2 0 0 1 2286.300049 1382.600024 A 6.9 2.2 0 0 1 2279.400049 1380.400024 A 6.9 2.2 0 0 1 2286.300049 1378.200024 A 6.9 2.2 0 0 1 2293.200049 1380.400024 Z" class="st40" style="fill: rgb(247, 221, 203);" transform="matrix(1, 0, 0, 1, 0, 0)"/><path d="M 2204.9 1405.400024 A 6.9 2.2 0 0 1 2198 1407.600024 A 6.9 2.2 0 0 1 2191.1 1405.400024 A 6.9 2.2 0 0 1 2198 1403.200024 A 6.9 2.2 0 0 1 2204.9 1405.400024 Z" class="st40" style="fill: rgb(247, 221, 203);" transform="matrix(1, 0, 0, 1, 0, 0)"/><path d="M 2387.200049 1338.599976 A 6.9 2.2 0 0 1 2380.300049 1340.799976 A 6.9 2.2 0 0 1 2373.400049 1338.599976 A 6.9 2.2 0 0 1 2380.300049 1336.399976 A 6.9 2.2 0 0 1 2387.200049 1338.599976 Z" class="st40" style="fill: rgb(247, 221, 203);" transform="matrix(1, 0, 0, 1, 0, 0)"/><path d="M 2419.500098 1377.099976 A 6.9 2.2 0 0 1 2412.600098 1379.299976 A 6.9 2.2 0 0 1 2405.700098 1377.099976 A 6.9 2.2 0 0 1 2412.600098 1374.899976 A 6.9 2.2 0 0 1 2419.500098 1377.099976 Z" class="st40" style="fill: rgb(247, 221, 203);" transform="matrix(1, 0, 0, 1, 0, 0)"/><path d="M 2592.799902 1424.5 A 6.9 2.2 0 0 1 2585.899902 1426.7 A 6.9 2.2 0 0 1 2578.999902 1424.5 A 6.9 2.2 0 0 1 2585.899902 1422.3 A 6.9 2.2 0 0 1 2592.799902 1424.5 Z" class="st40" style="fill: rgb(247, 221, 203);" transform="matrix(1, 0, 0, 1, 0, 0)"/><path d="M 2633.799902 1360.199951 A 6.9 2.2 0 0 1 2626.899902 1362.399951 A 6.9 2.2 0 0 1 2619.999902 1360.199951 A 6.9 2.2 0 0 1 2626.899902 1357.999951 A 6.9 2.2 0 0 1 2633.799902 1360.199951 Z" class="st40" style="fill: rgb(247, 221, 203);" transform="matrix(1, 0, 0, 1, 0, 0)"/><path d="M 2780.799902 1416.199951 A 6.9 2.2 0 0 1 2773.899902 1418.399951 A 6.9 2.2 0 0 1 2766.999902 1416.199951 A 6.9 2.2 0 0 1 2773.899902 1413.999951 A 6.9 2.2 0 0 1 2780.799902 1416.199951 Z" class="st40" style="fill: rgb(247, 221, 203);" transform="matrix(1, 0, 0, 1, 0, 0)"/><path d="M 2698.9 1454.800049 A 6.9 2.2 0 0 1 2692 1457.000049 A 6.9 2.2 0 0 1 2685.1 1454.800049 A 6.9 2.2 0 0 1 2692 1452.600049 A 6.9 2.2 0 0 1 2698.9 1454.800049 Z" class="st40" style="fill: rgb(247, 221, 203);" transform="matrix(1, 0, 0, 1, 0, 0)"/><path d="M 2753.9 1348.599976 A 6.9 2.2 0 0 1 2747 1350.799976 A 6.9 2.2 0 0 1 2740.1 1348.599976 A 6.9 2.2 0 0 1 2747 1346.399976 A 6.9 2.2 0 0 1 2753.9 1348.599976 Z" class="st40" style="fill: rgb(247, 221, 203);" transform="matrix(1, 0, 0, 1, 0, 0)"/><path d="M 2865.200049 1446.900024 A 6.9 2.2 0 0 1 2858.300049 1449.100024 A 6.9 2.2 0 0 1 2851.400049 1446.900024 A 6.9 2.2 0 0 1 2858.300049 1444.700024 A 6.9 2.2 0 0 1 2865.200049 1446.900024 Z" class="st40" style="fill: rgb(247, 221, 203);" transform="matrix(1, 0, 0, 1, 0, 0)"/><path d="M 1679.300025 1355.699951 A 6.9 2.2 0 0 1 1672.400024 1357.899951 A 6.9 2.2 0 0 1 1665.500024 1355.699951 A 6.9 2.2 0 0 1 1672.400024 1353.499951 A 6.9 2.2 0 0 1 1679.300025 1355.699951 Z" class="st40" style="fill: rgb(247, 221, 203);" transform="matrix(1, 0, 0, 1, 0, 0)"/><path d="M 1730.300025 1392.099976 A 6.9 2.2 0 0 1 1723.400024 1394.299976 A 6.9 2.2 0 0 1 1716.500024 1392.099976 A 6.9 2.2 0 0 1 1723.400024 1389.899976 A 6.9 2.2 0 0 1 1730.300025 1392.099976 Z" class="st40" style="fill: rgb(247, 221, 203);" transform="matrix(1, 0, 0, 1, 0, 0)"/><path d="M 1172.499976 1419.900024 A 6.9 2.2 0 0 1 1165.599976 1422.100024 A 6.9 2.2 0 0 1 1158.699975 1419.900024 A 6.9 2.2 0 0 1 1165.599976 1417.700024 A 6.9 2.2 0 0 1 1172.499976 1419.900024 Z" class="st40" style="fill: rgb(247, 221, 203);" transform="matrix(1, 0, 0, 1, 0, 0)"/><path d="M 164.1 1475.400024 A 11.1 3.6 0 0 1 153 1479.000024 A 11.1 3.6 0 0 1 141.9 1475.400024 A 11.1 3.6 0 0 1 153 1471.800025 A 11.1 3.6 0 0 1 164.1 1475.400024 Z" class="st40" style="fill: rgb(247, 221, 203);" transform="matrix(1, 0, 0, 1, 0, 0)"/><path d="M 254.200006 1401 A 11.1 3.6 0 0 1 243.100006 1404.6 A 11.1 3.6 0 0 1 232.000006 1401 A 11.1 3.6 0 0 1 243.100006 1397.4 A 11.1 3.6 0 0 1 254.200006 1401 Z" class="st40" style="fill: rgb(247, 221, 203);" transform="matrix(1, 0, 0, 1, 0, 0)"/><path d="M 474.200006 1377.599976 A 11.1 3.6 0 0 1 463.100006 1381.199975 A 11.1 3.6 0 0 1 452.000006 1377.599976 A 11.1 3.6 0 0 1 463.100006 1373.999976 A 11.1 3.6 0 0 1 474.200006 1377.599976 Z" class="st40" style="fill: rgb(247, 221, 203);" transform="matrix(1, 0, 0, 1, 0, 0)"/><path d="M 1102.199976 1384.800049 A 11.1 3.6 0 0 1 1091.099976 1388.400049 A 11.1 3.6 0 0 1 1079.999975 1384.800049 A 11.1 3.6 0 0 1 1091.099976 1381.200049 A 11.1 3.6 0 0 1 1102.199976 1384.800049 Z" class="st40" style="fill: rgb(247, 221, 203);" transform="matrix(1, 0, 0, 1, 0, 0)"/><path d="M 1281.299952 1417.599976 A 11.1 3.6 0 0 1 1270.199951 1421.199975 A 11.1 3.6 0 0 1 1259.099951 1417.599976 A 11.1 3.6 0 0 1 1270.199951 1413.999976 A 11.1 3.6 0 0 1 1281.299952 1417.599976 Z" class="st40" style="fill: rgb(247, 221, 203);" transform="matrix(1, 0, 0, 1, 0, 0)"/><path d="M 1372.299952 1388.5 A 11.1 3.6 0 0 1 1361.199951 1392.1 A 11.1 3.6 0 0 1 1350.099951 1388.5 A 11.1 3.6 0 0 1 1361.199951 1384.9 A 11.1 3.6 0 0 1 1372.299952 1388.5 Z" class="st40" style="fill: rgb(247, 221, 203);" transform="matrix(1, 0, 0, 1, 0, 0)"/><path d="M 1559.400049 1388.5 A 11.1 3.6 0 0 1 1548.300049 1392.1 A 11.1 3.6 0 0 1 1537.200048 1388.5 A 11.1 3.6 0 0 1 1548.300049 1384.9 A 11.1 3.6 0 0 1 1559.400049 1388.5 Z" class="st40" style="fill: rgb(247, 221, 203);" transform="matrix(1, 0, 0, 1, 0, 0)"/><path d="M 1918.400049 1359.599976 A 11.1 3.6 0 0 1 1907.300049 1363.199975 A 11.1 3.6 0 0 1 1896.200048 1359.599976 A 11.1 3.6 0 0 1 1907.300049 1355.999976 A 11.1 3.6 0 0 1 1918.400049 1359.599976 Z" class="st40" style="fill: rgb(247, 221, 203);" transform="matrix(1, 0, 0, 1, 0, 0)"/><path d="M 1799.6 1400.900024 A 11.1 3.6 0 0 1 1788.5 1404.500024 A 11.1 3.6 0 0 1 1777.4 1400.900024 A 11.1 3.6 0 0 1 1788.5 1397.300025 A 11.1 3.6 0 0 1 1799.6 1400.900024 Z" class="st40" style="fill: rgb(247, 221, 203);" transform="matrix(1, 0, 0, 1, 0, 0)"/><path d="M 2059.6 1397.300049 A 11.1 3.6 0 0 1 2048.5 1400.900049 A 11.1 3.6 0 0 1 2037.4 1397.300049 A 11.1 3.6 0 0 1 2048.5 1393.700049 A 11.1 3.6 0 0 1 2059.6 1397.300049 Z" class="st40" style="fill: rgb(247, 221, 203);" transform="matrix(1, 0, 0, 1, 0, 0)"/><path d="M 2235.799952 1328.300049 A 11.1 3.6 0 0 1 2224.699951 1331.900049 A 11.1 3.6 0 0 1 2213.599951 1328.300049 A 11.1 3.6 0 0 1 2224.699951 1324.700049 A 11.1 3.6 0 0 1 2235.799952 1328.300049 Z" class="st40" style="fill: rgb(247, 221, 203);" transform="matrix(1, 0, 0, 1, 0, 0)"/><path d="M 2378.1 1378.5 A 11.1 3.6 0 0 1 2367 1382.1 A 11.1 3.6 0 0 1 2355.9 1378.5 A 11.1 3.6 0 0 1 2367 1374.9 A 11.1 3.6 0 0 1 2378.1 1378.5 Z" class="st40" style="fill: rgb(247, 221, 203);" transform="matrix(1, 0, 0, 1, 0, 0)"/><path d="M 2601.200098 1467.699951 A 11.1 3.6 0 0 1 2590.100098 1471.299951 A 11.1 3.6 0 0 1 2579.000097 1467.699951 A 11.1 3.6 0 0 1 2590.100098 1464.099951 A 11.1 3.6 0 0 1 2601.200098 1467.699951 Z" class="st40" style="fill: rgb(247, 221, 203);" transform="matrix(1, 0, 0, 1, 0, 0)"/><path d="M 2665.299952 1382.099976 A 11.1 3.6 0 0 1 2654.199951 1385.699975 A 11.1 3.6 0 0 1 2643.099951 1382.099976 A 11.1 3.6 0 0 1 2654.199951 1378.499976 A 11.1 3.6 0 0 1 2665.299952 1382.099976 Z" class="st40" style="fill: rgb(247, 221, 203);" transform="matrix(1, 0, 0, 1, 0, 0)"/><path d="M 2723.799952 1345 A 11.1 3.6 0 0 1 2712.699951 1348.6 A 11.1 3.6 0 0 1 2701.599951 1345 A 11.1 3.6 0 0 1 2712.699951 1341.4 A 11.1 3.6 0 0 1 2723.799952 1345 Z" class="st40" style="fill: rgb(247, 221, 203);" transform="matrix(1, 0, 0, 1, 0, 0)"/><path d="M 2917.799952 1378.5 A 11.1 3.6 0 0 1 2906.699951 1382.1 A 11.1 3.6 0 0 1 2895.599951 1378.5 A 11.1 3.6 0 0 1 2906.699951 1374.9 A 11.1 3.6 0 0 1 2917.799952 1378.5 Z" class="st40" style="fill: rgb(247, 221, 203);" transform="matrix(1, 0, 0, 1, 0, 0)"/><path d="M 2900.499903 1436.5 A 11.1 3.6 0 0 1 2889.399902 1440.1 A 11.1 3.6 0 0 1 2878.299902 1436.5 A 11.1 3.6 0 0 1 2889.399902 1432.9 A 11.1 3.6 0 0 1 2900.499903 1436.5 Z" class="st40" style="fill: rgb(247, 221, 203);" transform="matrix(1, 0, 0, 1, 0, 0)"/><radialGradient id="SVGID_2_" cx="1515.9607" cy="-724.9426" r="2499.3992" gradientUnits="userSpaceOnUse">
			<stop offset="0" style="stop-color:#FDFFFF"/>
			<stop offset="0.2595" style="stop-color:#FDFFFF"/>
			<stop offset="0.4269" style="stop-color:#FAFFFF"/>
			<stop offset="0.5317" style="stop-color:#F2FFFF"/>
			<stop offset="0.6193" style="stop-color:#E3FFFF"/>
			<stop offset="0.6974" style="stop-color:#CFFFFF"/>
			<stop offset="0.7692" style="stop-color:#B4FFFF"/>
			<stop offset="0.8354" style="stop-color:#93FFFF"/>
			<stop offset="0.8486" style="stop-color:#8CFFFF"/>
			<stop offset="1" style="stop-color:#8CFFFF"/>
		</radialGradient><path class="st51" d="M694.5,169c0,10,27.8,18.1,62.1,18.1c13.4,0,25.8-1.2,35.9-3.3c23.4,12.3,72.5,20.7,129.2,20.7&#10;&#9;&#9;&#9;c79.5,0,143.9-16.6,143.9-37c0-2.8-1.2-5.6-3.6-8.2c23.8-2.5,40.5-8.5,40.5-15.5c0-9.3-29.2-16.8-65.2-16.8&#10;&#9;&#9;&#9;c-6.5,0-12.7,0.2-18.6,0.7c0-0.2,0-0.5,0-0.7c0-8.5-14.6-15.4-32.6-15.4c-18,0-32.6,6.9-32.6,15.4c0,1.6,0.5,3.1,1.4,4.5&#10;&#9;&#9;&#9;c-10.7-0.7-21.9-1-33.3-1c-9.7,0-19.1,0.2-28.2,0.7c-14.9-2.7-33.1-4.2-52.6-4.2c-51.2,0-92.8,10.7-92.8,23.8l0,0.2&#10;&#9;&#9;&#9;C717.9,152.3,694.5,159.9,694.5,169z" style="fill: url('#SVGID_2_');" transform="matrix(1, 0, 0, 1, 0, 0)"/><radialGradient id="SVGID_3_" cx="1515.4752" cy="-347.455" r="2504.7783" gradientUnits="userSpaceOnUse">
			<stop offset="0" style="stop-color:#FDFFFF"/>
			<stop offset="0.2595" style="stop-color:#FDFFFF"/>
			<stop offset="0.4269" style="stop-color:#FAFFFF"/>
			<stop offset="0.5317" style="stop-color:#F2FFFF"/>
			<stop offset="0.6193" style="stop-color:#E3FFFF"/>
			<stop offset="0.6974" style="stop-color:#CFFFFF"/>
			<stop offset="0.7692" style="stop-color:#B4FFFF"/>
			<stop offset="0.8354" style="stop-color:#93FFFF"/>
			<stop offset="0.8486" style="stop-color:#8CFFFF"/>
			<stop offset="1" style="stop-color:#8CFFFF"/>
		</radialGradient><path class="st52" d="M2527.1,338.6c0,6.2,13.5,11.5,32.7,13.7c-1.9,2.3-2.9,4.8-2.9,7.3c0,18,52.1,32.7,116.3,32.7&#10;&#9;&#9;&#9;c45.9,0,85.5-7.5,104.4-18.3c8.2,1.9,18.2,2.9,29,2.9c27.7,0,50.2-7.2,50.2-16c0-8.1-18.9-14.8-43.4-15.9l0-0.1&#10;&#9;&#9;&#9;c0-11.6-33.6-21.1-75-21.1c-15.8,0-30.4,1.4-42.5,3.7c-7.4-0.4-15-0.6-22.8-0.6c-9.3,0-18.3,0.3-26.9,0.9c0.7-1.3,1.1-2.6,1.1-4&#10;&#9;&#9;&#9;c0-7.5-11.8-13.6-26.3-13.6c-14.5,0-26.3,6.1-26.3,13.6c0,0.2,0,0.4,0,0.6c-4.8-0.4-9.8-0.6-15.1-0.6&#10;&#9;&#9;&#9;C2550.7,323.8,2527.1,330.5,2527.1,338.6z" style="fill: url('#SVGID_3_');" transform="matrix(1, 0, 0, 1, 0, 0)"/><radialGradient id="SVGID_4_" cx="1515.5154" cy="-637.1334" r="2502.2634" gradientUnits="userSpaceOnUse">
			<stop offset="0" style="stop-color:#FDFFFF"/>
			<stop offset="0.2595" style="stop-color:#FDFFFF"/>
			<stop offset="0.4269" style="stop-color:#FAFFFF"/>
			<stop offset="0.5317" style="stop-color:#F2FFFF"/>
			<stop offset="0.6193" style="stop-color:#E3FFFF"/>
			<stop offset="0.6974" style="stop-color:#CFFFFF"/>
			<stop offset="0.7692" style="stop-color:#B4FFFF"/>
			<stop offset="0.8354" style="stop-color:#93FFFF"/>
			<stop offset="0.8486" style="stop-color:#8CFFFF"/>
			<stop offset="1" style="stop-color:#8CFFFF"/>
		</radialGradient><path class="st53" d="M2122.9,220.2c0,14.3,39.8,26,89,26c19.2,0,37-1.8,51.5-4.8c33.6,17.6,103.9,29.7,185.2,29.7&#10;&#9;&#9;&#9;c113.9,0,206.2-23.7,206.2-53c0-4-1.8-8-5.1-11.8c34.1-3.6,58-12.2,58-22.2c0-13.3-41.8-24-93.4-24c-9.3,0-18.2,0.4-26.7,1&#10;&#9;&#9;&#9;c0-0.3,0.1-0.7,0.1-1c0-12.1-20.9-22-46.7-22c-25.8,0-46.7,9.9-46.7,22c0,2.2,0.7,4.4,2,6.4c-15.3-0.9-31.3-1.4-47.8-1.4&#10;&#9;&#9;&#9;c-13.8,0-27.3,0.4-40.4,1c-21.4-3.8-47.4-6-75.3-6c-73.4,0-132.9,15.3-132.9,34.2l0,0.2C2156.4,196.2,2122.9,207,2122.9,220.2z" style="fill: url('#SVGID_4_');" transform="matrix(1, 0, 0, 1, 0, 0)"/><radialGradient id="SVGID_5_" cx="1515.0905" cy="-394.7519" r="2507.1016" gradientUnits="userSpaceOnUse">
			<stop offset="0" style="stop-color:#FDFFFF"/>
			<stop offset="0.2595" style="stop-color:#FDFFFF"/>
			<stop offset="0.4269" style="stop-color:#FAFFFF"/>
			<stop offset="0.5317" style="stop-color:#F2FFFF"/>
			<stop offset="0.6193" style="stop-color:#E3FFFF"/>
			<stop offset="0.6974" style="stop-color:#CFFFFF"/>
			<stop offset="0.7692" style="stop-color:#B4FFFF"/>
			<stop offset="0.8354" style="stop-color:#93FFFF"/>
			<stop offset="0.8486" style="stop-color:#8CFFFF"/>
			<stop offset="1" style="stop-color:#8CFFFF"/>
		</radialGradient><path class="st54" d="M166.1,317.2c0,18.4,48.2,33.3,108.1,33.7c24.3,22.3,104,38.7,198.5,38.7c74.6,0,140-10.2,176.2-25.5&#10;&#9;&#9;&#9;c5.4,0.3,11,0.5,16.7,0.5c16.9,0,32.7-1.4,46.3-3.8c7.3,4,19,6.5,32.1,6.5c22.2,0,40.2-7.3,40.2-16.3c0-7.2-11.3-13.2-27.1-15.5&#10;&#9;&#9;&#9;c-1.9-14.9-42.1-26.9-91.4-26.9c-5.7,0-11.3,0.2-16.7,0.5c-36.2-15.3-101.6-25.5-176.2-25.5c-7.3,0-14.5,0.1-21.7,0.3&#10;&#9;&#9;&#9;c0-0.1,0-0.2,0-0.3c0-13.5-35.8-24.5-80-24.5s-80,11-80,24.5c0,0.1,0,0.2,0,0.3c-4.9-0.2-9.9-0.3-15-0.3&#10;&#9;&#9;&#9;C215.3,283.5,166.1,298.6,166.1,317.2z" style="fill: url('#SVGID_5_');" transform="matrix(1, 0, 0, 1, 0, 0)"/><radialGradient id="SVGID_6_" cx="1515.2872" cy="-345.694" r="2506.998" gradientUnits="userSpaceOnUse">
			<stop offset="0" style="stop-color:#FDFFFF"/>
			<stop offset="0.2595" style="stop-color:#FDFFFF"/>
			<stop offset="0.4269" style="stop-color:#FAFFFF"/>
			<stop offset="0.5317" style="stop-color:#F2FFFF"/>
			<stop offset="0.6193" style="stop-color:#E3FFFF"/>
			<stop offset="0.6974" style="stop-color:#CFFFFF"/>
			<stop offset="0.7692" style="stop-color:#B4FFFF"/>
			<stop offset="0.8354" style="stop-color:#93FFFF"/>
			<stop offset="0.8486" style="stop-color:#8CFFFF"/>
			<stop offset="1" style="stop-color:#8CFFFF"/>
		</radialGradient><path class="st55" d="M1841.2,346.9c0,11.4,29.9,20.7,67.1,20.9c15.1,13.9,64.5,24,123.2,24c46.3,0,86.9-6.3,109.4-15.8&#10;&#9;&#9;&#9;c3.4,0.2,6.8,0.3,10.4,0.3c10.5,0,20.3-0.9,28.7-2.4c4.6,2.5,11.8,4,19.9,4c13.8,0,24.9-4.5,24.9-10.1c0-4.4-7-8.2-16.8-9.6&#10;&#9;&#9;&#9;c-1.2-9.3-26.1-16.7-56.7-16.7c-3.5,0-7,0.1-10.4,0.3c-22.5-9.5-63-15.8-109.4-15.8c-4.5,0-9,0.1-13.4,0.2l0-0.2&#10;&#9;&#9;&#9;c0-8.4-22.2-15.2-49.7-15.2c-27.4,0-49.7,6.8-49.7,15.2l0,0.2c-3-0.1-6.2-0.2-9.3-0.2C1871.8,326,1841.2,335.3,1841.2,346.9z" style="fill: url('#SVGID_6_');" transform="matrix(1, 0, 0, 1, 0, 0)"/>
</svg>