<?xml version="1.0" encoding="utf-8"?>
<svg id="master-artboard" viewBox="0 0 2800 2000" version="1.1" xmlns="http://www.w3.org/2000/svg" x="0px" y="0px" style="enable-background:new 0 0 2800 2000;" width="2800px" height="2000px" xmlns:xlink="http://www.w3.org/1999/xlink">

<defs>
		<path d="M 0 0 H 2800 V 2000 H 0 V 0 Z" id="SVGID_1_"/>
	</defs><clipPath id="SVGID_2_">
		<use style="overflow:visible;" xlink:href="#SVGID_1_"/>
	</clipPath><path d="M 0 0 H 2800 V 2000 H 0 V 0 Z" class="st0" style="clip-path: url('#SVGID_2_'); fill: rgb(249, 176, 154);" transform="matrix(1, 0, 0, 1, 0, 0)"/><path class="st1" d="M2177.9,659.3h-159c-20.3,0-36.7-16.4-36.7-36.7v0c0-20.3,16.4-36.7,36.7-36.7h159c20.3,0,36.7,16.4,36.7,36.7&#10;&#9;&#9;v0C2214.6,642.9,2198.2,659.3,2177.9,659.3z" style="clip-path: url('#SVGID_2_'); fill: rgb(255, 255, 255);" transform="matrix(1, 0, 0, 1, 0, 0)"/><path class="st1" d="M2535.7,230.6h-30c15.9,0,28.8-12.9,28.8-28.8l0,0c0-15.9-12.9-28.8-28.8-28.8h-298.6&#10;&#9;&#9;c-15.9,0-28.8,12.9-28.8,28.8l0,0c0,15.9,12.9,28.8,28.8,28.8h-65c-15.9,0-28.8,12.9-28.8,28.8l0,0c0,15.9,12.9,28.8,28.8,28.8&#10;&#9;&#9;h130.3c-15.9,0-28.8,12.9-28.8,28.8l0,0c0,15.9,12.9,28.8,28.8,28.8h168c15.9,0,28.8-12.9,28.8-28.8l0,0&#10;&#9;&#9;c0-15.9-12.9-28.8-28.8-28.8h95.3c15.9,0,28.8-12.9,28.8-28.8l0,0C2564.4,243.5,2551.5,230.6,2535.7,230.6z" style="clip-path: url('#SVGID_2_'); fill: rgb(255, 255, 255);" transform="matrix(1, 0, 0, 1, 0, 0)"/><path class="st1" d="M242.9,362.5h30c-15.9,0-28.8,12.9-28.8,28.8l0,0c0,15.9,12.9,28.8,28.8,28.8h298.6&#10;&#9;&#9;c15.9,0,28.8-12.9,28.8-28.8l0,0c0-15.9-12.9-28.8-28.8-28.8h65c15.9,0,28.8-12.9,28.8-28.8l0,0c0-15.9-12.9-28.8-28.8-28.8H506.2&#10;&#9;&#9;c15.9,0,28.8-12.9,28.8-28.8l0,0c0-15.9-12.9-28.8-28.8-28.8h-168c-15.9,0-28.8,12.9-28.8,28.8l0,0c0,15.9,12.9,28.8,28.8,28.8&#10;&#9;&#9;h-95.3c-15.9,0-28.8,12.9-28.8,28.8l0,0C214.2,349.6,227,362.5,242.9,362.5z" style="clip-path: url('#SVGID_2_'); fill: rgb(255, 255, 255);" transform="matrix(1, 0, 0, 1, 0, 0)"/><path d="M 1802 971 A 402 330 0 0 1 1400 1301 A 402 330 0 0 1 998 971 A 402 330 0 0 1 1400 641 A 402 330 0 0 1 1802 971 Z" class="st2" style="clip-path: url('#SVGID_2_'); fill: rgb(255, 243, 225);" transform="matrix(1, 0, 0, 1, 0, 0)"/><path d="M 0 901 H 2800 V 2000 H 0 V 901 Z" class="st3" style="clip-path: url('#SVGID_2_'); fill: rgb(133, 153, 178);" transform="matrix(1, 0, 0, 1, 0, 0)"/><path class="st4" d="M888.7,949.6v-1.2c0-12.9-10.5-23.4-23.4-23.4h-673c-12.9,0-23.4,10.5-23.4,23.4v1.2&#10;&#9;&#9;c0,12.9,10.5,23.4,23.4,23.4h105c12.9,0,23.4,10.5,23.4,23.4l0,0c0,12.9-10.5,23.4-23.4,23.4h-18.2c-12.9,0-23.4,10.5-23.4,23.4&#10;&#9;&#9;v1.2c0,12.9,10.5,23.4,23.4,23.4h525.8c12.9,0,23.4-10.5,23.4-23.4v-1.2c0-12.9-10.5-23.4-23.4-23.4h-7.5&#10;&#9;&#9;c-12.9,0-23.4-10.5-23.4-23.4l0,0c0-12.9,10.5-23.4,23.4-23.4h67.9C878.2,973,888.7,962.5,888.7,949.6z" style="clip-path: url('#SVGID_2_'); fill: rgb(161, 222, 221);" transform="matrix(1, 0, 0, 1, 0, 0)"/><path class="st4" d="M1815.2,925.3V924c0-13.5-12.1-24.5-27-24.5h-776.3c-14.9,0-27,11-27,24.5v1.2c0,13.5,12.1,24.5,27,24.5H1133&#10;&#9;&#9;c14.9,0,27,11,27,24.5l0,0c0,13.5-12.1,24.5-27,24.5h-21c-14.9,0-27,11-27,24.5v1.2c0,13.5,12.1,24.5,27,24.5h606.5&#10;&#9;&#9;c14.9,0,27-11,27-24.5v-1.2c0-13.5-12.1-24.5-27-24.5h-8.6c-14.9,0-27-11-27-24.5l0,0c0-13.5,12.1-24.5,27-24.5h78.3&#10;&#9;&#9;C1803.1,949.8,1815.2,938.8,1815.2,925.3z" style="clip-path: url('#SVGID_2_'); fill: rgb(161, 222, 221);" transform="matrix(1, 0, 0, 1, 0, 0)"/><path class="st6" d="M2800,1901.9v98.1H0v-803h1746c68.5,0,124,55.5,124,124c0,34.2-13.9,65.2-36.3,87.7&#10;&#9;&#9;&#9;c-22.4,22.4-53.4,36.3-87.7,36.3h-14.2c-45.2,0-81.8,36.6-81.8,81.8c0,20.9,7.9,40.1,20.9,54.6c13.1,14.6,31.3,24.4,52.1,26.7&#10;&#9;&#9;&#9;C1929.4,1630.2,2519.9,1708.3,2800,1901.9z" style="fill: rgb(255, 243, 225); clip-path: url('#SVGID_2_');" transform="matrix(1, 0, 0, 1, 0, 0)"/><path class="st7" d="M1670.3,2000H0v-574c11.7-3.5,35.6,0.9,45.8,0.5c29.6-1,59.2-3.9,88.8-5.6c115.6-6.4,231.9-8.9,347.3,2&#10;&#9;&#9;&#9;c165.3,15.6,330.8,60.1,468.8,152.4c132.2,88.4,235.3,217.8,375.5,292.9C1434.2,1926.1,1559.9,1949.3,1670.3,2000z" style="fill: rgb(232, 226, 214); clip-path: url('#SVGID_2_');" transform="matrix(1, 0, 0, 1, 0, 0)"/><path class="st7" d="M70,1280c-16.7,0-16.8,26,0,26C86.7,1306,86.8,1280,70,1280z" style="fill: rgb(232, 226, 214); clip-path: url('#SVGID_2_');" transform="matrix(1, 0, 0, 1, 0, 0)"/><path class="st7" d="M174,1304c-16.7,0-16.8,26,0,26C190.7,1330,190.8,1304,174,1304z" style="fill: rgb(232, 226, 214); clip-path: url('#SVGID_2_');" transform="matrix(1, 0, 0, 1, 0, 0)"/><path class="st7" d="M354,1260c-16.7,0-16.8,26,0,26C370.7,1286,370.8,1260,354,1260z" style="fill: rgb(232, 226, 214); clip-path: url('#SVGID_2_');" transform="matrix(1, 0, 0, 1, 0, 0)"/><path class="st7" d="M446,1336c-16.7,0-16.8,26,0,26C462.7,1362,462.8,1336,446,1336z" style="fill: rgb(232, 226, 214); clip-path: url('#SVGID_2_');" transform="matrix(1, 0, 0, 1, 0, 0)"/><path class="st7" d="M734,1416c-16.7,0-16.8,26,0,26C750.7,1442,750.8,1416,734,1416z" style="fill: rgb(232, 226, 214); clip-path: url('#SVGID_2_');" transform="matrix(1, 0, 0, 1, 0, 0)"/><path class="st7" d="M598,1276c-16.7,0-16.8,26,0,26C614.7,1302,614.8,1276,598,1276z" style="fill: rgb(232, 226, 214); clip-path: url('#SVGID_2_');" transform="matrix(1, 0, 0, 1, 0, 0)"/><path class="st7" d="M1010,1416c-16.7,0-16.8,26,0,26C1026.7,1442,1026.8,1416,1010,1416z" style="fill: rgb(232, 226, 214); clip-path: url('#SVGID_2_');" transform="matrix(1, 0, 0, 1, 0, 0)"/><path class="st7" d="M1190,1260c-16.7,0-16.8,26,0,26C1206.7,1286,1206.8,1260,1190,1260z" style="fill: rgb(232, 226, 214); clip-path: url('#SVGID_2_');" transform="matrix(1, 0, 0, 1, 0, 0)"/><path class="st7" d="M1186,1536c-16.7,0-16.8,26,0,26C1202.7,1562,1202.8,1536,1186,1536z" style="fill: rgb(232, 226, 214); clip-path: url('#SVGID_2_');" transform="matrix(1, 0, 0, 1, 0, 0)"/><path class="st7" d="M1566,1308c-16.7,0-16.8,26,0,26C1582.7,1334,1582.8,1308,1566,1308z" style="fill: rgb(232, 226, 214); clip-path: url('#SVGID_2_');" transform="matrix(1, 0, 0, 1, 0, 0)"/><path class="st7" d="M1550,1496c-16.7,0-16.8,26,0,26C1566.7,1522,1566.8,1496,1550,1496z" style="fill: rgb(232, 226, 214); clip-path: url('#SVGID_2_');" transform="matrix(1, 0, 0, 1, 0, 0)"/><path class="st7" d="M1366,1512c-16.7,0-16.8,26,0,26C1382.7,1538,1382.8,1512,1366,1512z" style="fill: rgb(232, 226, 214); clip-path: url('#SVGID_2_');" transform="matrix(1, 0, 0, 1, 0, 0)"/><path class="st7" d="M1826,1704c-16.7,0-16.8,26,0,26C1842.7,1730,1842.8,1704,1826,1704z" style="fill: rgb(232, 226, 214); clip-path: url('#SVGID_2_');" transform="matrix(1, 0, 0, 1, 0, 0)"/><path class="st7" d="M1823.2,1795.8c-2.5-2.3-5.7-3.8-9.2-3.8h-4c-3.3,0-6.8,1.5-9.2,3.8c-1.3,1.2-2.2,2.6-2.7,4.2&#10;&#9;&#9;&#9;c-0.8,1.5-1.2,3.2-1.1,5c0.2,3.4,1.3,6.8,3.8,9.2c2.5,2.3,5.7,3.8,9.2,3.8h4c3.3,0,6.8-1.5,9.2-3.8c1.3-1.2,2.2-2.6,2.7-4.2&#10;&#9;&#9;&#9;c0.8-1.5,1.2-3.2,1.1-5C1826.8,1801.6,1825.7,1798.2,1823.2,1795.8z" style="fill: rgb(232, 226, 214); clip-path: url('#SVGID_2_');" transform="matrix(1, 0, 0, 1, 0, 0)"/><path class="st7" d="M1170,1660c-16.7,0-16.8,26,0,26C1186.7,1686,1186.8,1660,1170,1660z" style="fill: rgb(232, 226, 214); clip-path: url('#SVGID_2_');" transform="matrix(1, 0, 0, 1, 0, 0)"/><path class="st7" d="M1754,1284c-16.7,0-16.8,26,0,26C1770.7,1310,1770.8,1284,1754,1284z" style="fill: rgb(232, 226, 214); clip-path: url('#SVGID_2_');" transform="matrix(1, 0, 0, 1, 0, 0)"/><path class="st7" d="M1394,1260c-16.7,0-16.8,26,0,26C1410.7,1286,1410.8,1260,1394,1260z" style="fill: rgb(232, 226, 214); clip-path: url('#SVGID_2_');" transform="matrix(1, 0, 0, 1, 0, 0)"/><path class="st7" d="M1158,1424c-16.7,0-16.8,26,0,26C1174.7,1450,1174.8,1424,1158,1424z" style="fill: rgb(232, 226, 214); clip-path: url('#SVGID_2_');" transform="matrix(1, 0, 0, 1, 0, 0)"/><path class="st7" d="M2038,1688c-16.7,0-16.8,26,0,26C2054.7,1714,2054.8,1688,2038,1688z" style="fill: rgb(232, 226, 214); clip-path: url('#SVGID_2_');" transform="matrix(1, 0, 0, 1, 0, 0)"/><path class="st7" d="M1922,1752c-16.7,0-16.8,26,0,26C1938.7,1778,1938.8,1752,1922,1752z" style="fill: rgb(232, 226, 214); clip-path: url('#SVGID_2_');" transform="matrix(1, 0, 0, 1, 0, 0)"/><path class="st7" d="M870,1240c-16.7,0-16.8,26,0,26C886.7,1266,886.8,1240,870,1240z" style="fill: rgb(232, 226, 214); clip-path: url('#SVGID_2_');" transform="matrix(1, 0, 0, 1, 0, 0)"/><path class="st8" d="M1026,1349H772c-9.9,0-18-8.1-18-18l0,0c0-9.9,8.1-18,18-18h254c9.9,0,18,8.1,18,18l0,0&#10;&#9;&#9;C1044,1340.9,1035.9,1349,1026,1349z" style="clip-path: url('#SVGID_2_'); fill: rgb(232, 226, 214);" transform="matrix(1, 0, 0, 1, 0, 0)"/><path class="st4" d="M2389.9,1361.8v-2.8c0-8.3-6.7-15-15-15h-343.4c-8.3,0-15,6.7-15,15v2.8c0,8.3,6.7,15,15,15h25.2&#10;&#9;&#9;c8.3,0,15,6.7,15,15l0,0c0,8.3-6.7,15-15,15h-25.2c-8.3,0-15,6.7-15,15v2.8c0,8.3,6.7,15,15,15h343.4c8.3,0,15-6.7,15-15v-2.8&#10;&#9;&#9;c0-8.3-6.7-15-15-15h-48.6c-8.3,0-15-6.7-15-15l0,0c0-8.3,6.7-15,15-15h48.6C2383.2,1376.8,2389.9,1370,2389.9,1361.8z" style="clip-path: url('#SVGID_2_'); fill: rgb(161, 222, 221);" transform="matrix(1, 0, 0, 1, 0, 0)"/><g transform="matrix(1, 0, 0, 1, 0, 0)" style="clip-path: url('#SVGID_2_');">
			<path class="st9" d="M2347.2,2183.9c-40.2,10.9-82.1,12.5-123.2,18.2c-5.5,0.8-11.1,1.5-16.4,0c-5.3-1.5-10.2-5.9-10.4-11.4&#10;&#9;&#9;&#9;&#9;c-0.3-7.3,7.2-12.5,14.1-15.1c24.3-9,51.2-4.9,77.1-6.8c38.3-2.8,119.3-28.3,112.4-78.1c-2.2-15.9-6.3-31.9-9.9-47.6&#10;&#9;&#9;&#9;&#9;c-17.6,23.6-40.9,32.1-66.5,43.5c-26.2,11.7-52.1,27.8-80.2,34.4c-13.5,3.2-41.8,6.7-49.5-9.1c-14.1-28.9,72.6-45,90.1-53.2&#10;&#9;&#9;&#9;&#9;c26.7-12.6,55.1-34.6,68.3-61.8c5-10.4,6.1-24.7,5.3-36.2c-0.5-7.4-2.5-14.8-5.8-21.5c-1.7-3.4-12.2-13.7-12.3-16.2&#10;&#9;&#9;&#9;&#9;c0.3,23.1-22,36-39.4,49.7c-11.5,9.1-36.8,29.4-51,14.5c-17.9-18.6,15.5-31,27.6-37.4c28.2-15.1,55.8-36.6,63.9-67.6&#10;&#9;&#9;&#9;&#9;c-11.7-21.4-25.8-39.1-42.6-56.7c-5.4,18.2-25.8,82-54,71.2c-8.9-3.4-12.7-14.7-10.8-24c3.3-16.1,15.4-24,26.5-34.3&#10;&#9;&#9;&#9;&#9;c2.7-2.5,31.7-33.7,28.8-35.5c-17.9-10.6-36.3-25.7-46.5-43.8c-17.2-3.8-29.6-2.1-46.1,0.1c-16,2.1-33.7-4.9-49.3-7.7&#10;&#9;&#9;&#9;&#9;c-11.4-2.1-29.5-1.1-38,8.5c-18.7,21.4-16.4,54-7.9,81.1c8.5,27.1,22.2,53.2,23,81.7c0.1,5.4-0.5,11.5-4.5,15.1&#10;&#9;&#9;&#9;&#9;c-5.7,5-14.7,2.5-20.9-1.9c-20.8-14.8-25.2-43.5-26.4-69c-1.6-36,2.9-71.5,3.1-107.3c-16.9-2.2-38.1,8.8-49.2,21.1&#10;&#9;&#9;&#9;&#9;c-9.6,10.7-19.3,29.1-13.8,43.5c6.2,15.8,18.8,28.8,23.9,45.7c4.5,15.1,26.7,65.3,0.3,71.2c-20.5,4.6-38.5-49.4-44-62.9&#10;&#9;&#9;&#9;&#9;c-12.4-30.3-23-61.2-32.4-92.5c-29.3,16.5-44.9,49.3-47.9,81.9c-3.3,34.8,11.2,65.9,38,88.2c15.1,12.6,32.1,23.4,43.7,39.2&#10;&#9;&#9;&#9;&#9;c9.4,12.9,13.4,38.2,5.3,52.7c-7.9,14.1-29.5,7.4-41.5,1.3c-30.4-15.6-52.7-49.1-68-78.6c-10.8-20.9-18.4-43.6-22-66.8&#10;&#9;&#9;&#9;&#9;c-1.8-11.6-2.6-23.4-2.4-35.1c0.1-5.1-0.8-30.4,3.6-33.2c-30,19-47.4,54.6-49,90.1c-1.6,35.5,11.4,70.6,31.5,99.9&#10;&#9;&#9;&#9;&#9;c13.7,19.8,34.2,33,53.2,47.1c18.9,14,44.2,31.9,28.9,58.8c-13.2,23-34.8,3.7-50.2-5.1c-21.1-12.1-39.1-28.8-55.9-46.3&#10;&#9;&#9;&#9;&#9;c-19.5-20.3-35.2-44.1-51.9-66.7c-14.2,28.7-9.1,64.6,8,91.6c17.1,27.1,44.8,46.1,74.5,58.4c11.3,4.7,23.7,9.6,35.8,11.9&#10;&#9;&#9;&#9;&#9;c9.8,1.9,20.2,2.2,21.5,15.4c2.8,29.2-46.5,11.7-60.8,8.2c-29.4-7.2-58-18.4-84.1-33.7c-2.7,12.8-5.4,25.7-4.9,38.8&#10;&#9;&#9;&#9;&#9;c0.4,13.1,4.3,26.5,13.3,36c12.4,13.2,31.8,16.6,49.8,17.9c28.3,1.9,56.8,0.2,84.6-5.1c10.2-2,23.3-3.2,28.7,5.7&#10;&#9;&#9;&#9;&#9;c3.8,6.3,1.1,14.9-4,20.2c-8.5,9-21.9,11.3-34.2,12.1c-35.2,2.2-72.1,0.4-104.7-13.2c16.8,20,33.9,40.4,55.9,54.4&#10;&#9;&#9;&#9;&#9;c22.1,14,50.2,20.8,74.7,11.6c29-11,55.3-15.8,85.4-20.5h0c1.6-0.2,3.3-0.5,5-0.8c3-0.5,6.1-0.9,9-0.4c2.9,0.5,5.5,1.8,8,3.6&#10;&#9;&#9;&#9;&#9;c14.7,11,22.2,42,30.3,54.8c13.8,21.6,40.4,34.4,65.8,31.4c32-3.7,61.2-22,82.2-46c-23.5-1-91.2-19.1-71.2-56.3&#10;&#9;&#9;&#9;&#9;c10.4-19.2,30.9-2.1,40.8,7.2c12.6,11.9,24.7,25.2,40.6,32.2c34.8,15.2,69.2-3.4,91.9-30.2c10.9-12.9,24-29.5-1.8-25.7&#10;&#9;&#9;&#9;&#9;c-20.9,3-40.8,4.3-61.7-0.1c-17.8-3.8-49.7-12.4-59.5-29.7c-3.9-6.9-4.2-17.4,2.2-23c8.5-7.4,21.2,1.3,30.4,3.9&#10;&#9;&#9;&#9;&#9;c15.1,4.2,30.7,7.5,46.4,8.4c13.5,0.8,21.7,3.1,34.5,6.2c22.3,5.3,47.5-1,64.1-17c20.2-19.5,26.2-52.1,14.5-77.6&#10;&#9;&#9;&#9;&#9;C2388.7,2168.3,2350.8,2182.9,2347.2,2183.9z M1987,2202.4c1.4-4.5,10.5-5.7,20.3-2.6c9.8,3.1,16.6,9.2,15.2,13.7&#10;&#9;&#9;&#9;&#9;c-1.4,4.5-10.5,5.7-20.3,2.6C1992.4,2213,1985.6,2206.9,1987,2202.4z M2142.6,2131.1c-8.4,4.4-17.2,4-19.8-0.8&#10;&#9;&#9;&#9;&#9;c-2.5-4.8,2.2-12.3,10.6-16.7c8.4-4.4,17.2-4,19.8,0.8C2155.7,2119.3,2151,2126.8,2142.6,2131.1z M2154,2074.1&#10;&#9;&#9;&#9;&#9;c-7.9,4.2-16,4.4-18,0.6c-2-3.8,2.8-10.3,10.7-14.4c7.9-4.2,16-4.4,18-0.6C2166.7,2063.5,2161.9,2070,2154,2074.1z&#10;&#9;&#9;&#9;&#9; M2076.1,2047.2c6.4,12.3,6.4,25-0.1,28.4c-6.5,3.4-16.9-3.8-23.4-16.1c-6.4-12.3-6.4-25,0.1-28.4&#10;&#9;&#9;&#9;&#9;C2059.2,2027.7,2069.7,2034.9,2076.1,2047.2z M1975,2154.7c2.2-7.2,18.4-8.6,36-3.1c17.6,5.5,30.1,15.8,27.8,23&#10;&#9;&#9;&#9;&#9;c-2.2,7.2-18.3,8.6-36,3.1C1985.2,2172.2,1972.7,2161.9,1975,2154.7z M2119.3,2244.5c-7-2.2-11.7-6.9-10.5-10.6&#10;&#9;&#9;&#9;&#9;c1.1-3.7,7.7-4.9,14.7-2.7c6.9,2.2,11.7,6.9,10.5,10.6C2132.9,2245.5,2126.3,2246.7,2119.3,2244.5z M2263.5,1918.7&#10;&#9;&#9;&#9;&#9;c7.2-3.8,14.7-4,18.3-1c0.3,0.2,0.5,0.5,0.7,0.7c0.3,0.3,0.5,0.7,0.7,1.1c2.5,4.8-2.2,12.3-10.6,16.7c-6.5,3.4-13.4,4-17.2,1.7&#10;&#9;&#9;&#9;&#9;c-0.8-0.4-1.4-1-1.9-1.6c-0.2-0.3-0.4-0.6-0.6-0.9C2250.4,1930.6,2255.1,1923.1,2263.5,1918.7z M2118.6,1815.1&#10;&#9;&#9;&#9;&#9;c-0.1-13.9,5.7-25.2,13-25.2c7.3-0.1,13.3,11.1,13.4,25c0.1,13.9-5.7,25.2-13,25.2C2124.8,1840.2,2118.7,1829,2118.6,1815.1z&#10;&#9;&#9;&#9;&#9; M1957.5,1908.6c-16-5-26.7-16-24-24.6c2.6-8.3,16.8-11.4,32.1-7c0.4,0.1,0.9,0.2,1.3,0.4c0.1,0,0.2,0.1,0.3,0.1&#10;&#9;&#9;&#9;&#9;c15.9,5,26.7,16,24,24.6c-1.3,4.2-5.5,7-11.3,8.3c-0.7,0.2-1.4,0.3-2.1,0.4C1971.9,1911.5,1964.8,1910.9,1957.5,1908.6z&#10;&#9;&#9;&#9;&#9; M1842.7,2235.8c-3.2,0.1-7-0.5-10.8-1.7c-2.3-0.7-4.4-1.6-6.3-2.6c0,0,0,0,0,0c-1.3-0.7-2.6-1.5-3.7-2.3c-4-2.9-6.1-6.2-5.3-8.9&#10;&#9;&#9;&#9;&#9;c1.4-4.5,10.5-5.7,20.3-2.6c9.8,3.1,16.6,9.2,15.2,13.7c-0.5,1.6-2,2.8-4.3,3.5C1846.4,2235.5,1844.7,2235.8,1842.7,2235.8&#10;&#9;&#9;&#9;&#9;L1842.7,2235.8z M2127.1,2385.5c-6.8,3.2-18.7-7.8-26.4-24.6c-1.1-2.3-2-4.6-2.8-6.9c0,0,0,0,0,0c-0.7-1.8-1.2-3.7-1.7-5.4v0&#10;&#9;&#9;&#9;&#9;c-3.2-11.8-2.3-21.4,2.9-23.8c6.8-3.2,18.7,7.8,26.4,24.6C2133.3,2366.2,2134,2382.4,2127.1,2385.5z" style="fill: rgb(144, 209, 206);"/>
		</g><path class="st10" d="M2242.5,1759.2c0,0-142.4,284.1-224.5,645.5l-24.1-7.5C1994,2397.3,2111.2,1963,2242.5,1759.2z" style="fill: rgb(133, 153, 178); clip-path: url('#SVGID_2_');" transform="matrix(1, 0, 0, 1, 0, 0)"/><path class="st10" d="M2255.4,1938c-31.1,19.1-67,30.6-103.9,32.8c-1.6,0.1-3.2,0.2-4.8,0.2l-0.1-7c2.5,0,5,0,7.5-0.1&#10;&#9;&#9;&#9;&#9;c34.5-1,68.8-10.7,99.3-27.5C2254,1937,2254.7,1937.5,2255.4,1938z" style="fill: rgb(133, 153, 178); clip-path: url('#SVGID_2_');" transform="matrix(1, 0, 0, 1, 0, 0)"/><path class="st10" d="M2300.7,1901.2c-5.7,6.1-11.8,11.9-18.2,17.2c-0.2-0.3-0.4-0.5-0.7-0.7&#10;&#9;&#9;&#9;&#9;C2288.4,1912.6,2294.7,1907.1,2300.7,1901.2z" style="fill: rgb(133, 153, 178); clip-path: url('#SVGID_2_');" transform="matrix(1, 0, 0, 1, 0, 0)"/><path class="st10" d="M2050.7,1803.4c-2.8,9.7-3.4,19.9-3,30c0.4,10.1,1.8,20.1,3.3,30.1c2.9,19.9,5.8,39.9,10.9,59.5&#10;&#9;&#9;&#9;&#9;c2.6,9.8,5.5,19.5,9.4,28.9c3.8,9.4,8.5,18.5,13.6,27.3c10.3,17.5,22.6,33.7,34.7,49.8l5.5-4.3c-12.6-15.7-25.1-31.3-35.7-48.2&#10;&#9;&#9;&#9;&#9;c-5.3-8.4-10.1-17.2-14.1-26.3c-4.1-9.1-7.3-18.6-10.1-28.2c-5.5-19.2-9.1-39.1-12.5-58.9c-1.7-9.9-3.4-19.8-4.1-29.8&#10;&#9;&#9;&#9;&#9;C2047.8,1823.4,2048.2,1813.2,2050.7,1803.4z" style="fill: rgb(133, 153, 178); clip-path: url('#SVGID_2_');" transform="matrix(1, 0, 0, 1, 0, 0)"/><path class="st10" d="M2321.9,1996.2c-16.7,11.6-33.5,23-50.8,33.8c-17.3,10.7-35,20.5-53.5,28.7c-18.5,8-37.8,14.4-57.6,17.8&#10;&#9;&#9;&#9;&#9;c-19.8,3.6-40,3.2-60.5,4.6l0.6,7c20-2,40.7-2.1,60.9-6.4c20.2-4.1,39.6-11.2,58.1-19.8c18.5-8.8,36-19.3,53-30.5&#10;&#9;&#9;&#9;&#9;C2289.1,2020.2,2305.5,2008.2,2321.9,1996.2z" style="fill: rgb(133, 153, 178); clip-path: url('#SVGID_2_');" transform="matrix(1, 0, 0, 1, 0, 0)"/><path class="st10" d="M1966.9,1877.3c-0.4-0.1-0.9-0.3-1.3-0.4c-3.7-15.4-4.8-31.3-2.5-46.9&#10;&#9;&#9;&#9;&#9;C1961.1,1845.9,1962.7,1861.9,1966.9,1877.3z" style="fill: rgb(133, 153, 178); clip-path: url('#SVGID_2_');" transform="matrix(1, 0, 0, 1, 0, 0)"/><path class="st10" d="M2116.2,2050.8l-3.3,6.2c-2.5-1.4-5-2.9-7.4-4.4c-17.9-11.3-33.3-25.9-47.7-40.9&#10;&#9;&#9;&#9;&#9;c-16.3-17.1-32.7-34-47.8-52.2c-12.4-15.1-23.7-31.3-32.2-48.8c0.7-0.1,1.4-0.2,2.1-0.4c8.8,17,20.3,32.5,32.8,47&#10;&#9;&#9;&#9;&#9;c15.3,17.7,32.2,34.2,48.8,50.8c14.4,14.2,29.4,27.8,46.4,38.1C2110.6,2047.8,2113.4,2049.3,2116.2,2050.8z" style="fill: rgb(133, 153, 178); clip-path: url('#SVGID_2_');" transform="matrix(1, 0, 0, 1, 0, 0)"/><path class="st10" d="M1852.3,1962.3c4.7,11.8,11.5,22.6,19.2,32.7c7.7,10.1,16.2,19.6,24.4,29.2c16.6,19.1,33.4,38.1,51.2,56.4&#10;&#9;&#9;&#9;&#9;c17.7,18.3,36.5,35.5,56.7,51.1c20.2,15.5,42.3,28.9,65.7,39.3l2.7-6.4c-23.1-9.6-45-22.2-65.3-37.1&#10;&#9;&#9;&#9;&#9;c-20.3-14.9-39.4-31.6-57.4-49.3c-18.1-17.7-35.3-36.3-52.3-55c-8.5-9.4-17.2-18.7-25.1-28.5&#10;&#9;&#9;&#9;&#9;C1864.3,1984.7,1857.3,1974,1852.3,1962.3z" style="fill: rgb(133, 153, 178); clip-path: url('#SVGID_2_');" transform="matrix(1, 0, 0, 1, 0, 0)"/><g transform="matrix(1, 0, 0, 1, 0, 0)" style="clip-path: url('#SVGID_2_');">
			<path class="st9" d="M1413.3,1798.5c-20.2,36.4-48.3,67.5-72.9,100.9c-3.3,4.4-6.7,9-11.5,11.8c-4.8,2.7-11.4,3.2-15.5-0.5&#10;&#9;&#9;&#9;&#9;c-5.5-4.9-4-13.8-1-20.6c10.5-23.7,32.2-40.1,48.9-59.9c24.7-29.3,63-105.2,22.5-135c-12.9-9.5-27.3-17.8-41-26.1&#10;&#9;&#9;&#9;&#9;c4.7,29-5.6,51.7-15.2,78c-9.9,26.9-16.5,56.7-31.3,81.5c-7.1,12-24.4,34.6-41.1,29.1c-30.5-10.1,18.5-83.4,24.8-101.7&#10;&#9;&#9;&#9;&#9;c9.6-27.9,13.7-63.7,3.4-92c-3.9-10.9-13.4-21.7-22.2-29.1c-5.7-4.8-12.4-8.5-19.4-10.8c-3.6-1.2-18.3-0.8-20.2-2.5&#10;&#9;&#9;&#9;&#9;c16.8,15.9,10.4,40.9,8.1,62.9c-1.5,14.5-4.6,46.8-25.2,46.7c-25.8-0.2-11.4-32.8-7.6-45.9c8.9-30.8,12.7-65.5-3.8-92.9&#10;&#9;&#9;&#9;&#9;c-23.5-6.5-46-8.8-70.4-9c9.3,16.5,40.7,75.7,13.3,88.4c-8.7,4-19.3-1.1-24.7-9c-9.3-13.6-6.5-27.8-6.1-42.9&#10;&#9;&#9;&#9;&#9;c0.1-3.7-2.1-46.2-5.3-45.4c-20.1,5.4-43.7,8.1-63.8,2.8c-14.7,9.6-22.1,19.7-32.1,33.1c-9.6,13-27,20.8-40,30&#10;&#9;&#9;&#9;&#9;c-9.5,6.7-21.4,20.4-20.4,33.2c2.2,28.3,27.2,49.4,52.5,62.2c25.4,12.8,53.7,21.2,74.6,40.5c4,3.7,7.9,8.4,7.7,13.8&#10;&#9;&#9;&#9;&#9;c-0.4,7.6-8.5,12.3-15.9,13.7c-25.1,4.6-48.7-12.3-67.8-29.3c-27-24-49.2-52-74.7-77.1c-13.4,10.5-20.3,33.4-19.2,50&#10;&#9;&#9;&#9;&#9;c0.9,14.3,7.4,34.2,21.5,40.2c15.6,6.6,33.8,6.6,49.4,14.8c13.9,7.3,65.4,26.4,51.2,49.5c-11,17.9-62.2-6.9-75.8-12.4&#10;&#9;&#9;&#9;&#9;c-30.3-12.3-59.9-26.3-88.9-41.3c-8.6,32.5,4,66.6,25.2,91.5c22.6,26.6,55,38,89.7,34.4c19.5-2,39.1-6.7,58.6-3.9&#10;&#9;&#9;&#9;&#9;c15.9,2.3,36.8,17,41.5,33c4.6,15.5-15.3,26.3-28.1,30.6c-32.4,10.9-71.9,3.5-103.8-6.2c-22.5-6.8-44-17.2-63.2-30.9&#10;&#9;&#9;&#9;&#9;c-9.6-6.8-18.5-14.4-26.8-22.8c-3.5-3.6-22.3-20.7-21.3-25.7c-7.3,34.8,6,72.1,30.3,98c24.3,25.9,58.5,41.2,93.5,47.1&#10;&#9;&#9;&#9;&#9;c23.7,4.1,47.5-1.5,70.9-5.3c23.2-3.8,53.8-9.4,62.3,20.3c7.3,25.5-21.6,27.5-38.6,32.4c-23.3,6.7-47.9,7.9-72.2,7.7&#10;&#9;&#9;&#9;&#9;c-28.1-0.2-56.1-5.5-84-9.4c10.6,30.2,39.8,51.6,71.2,58.2c31.3,6.6,64.3,0.1,93.8-12.6c11.3-4.9,23.4-10.3,33.5-17.3&#10;&#9;&#9;&#9;&#9;c8.2-5.7,15.7-12.9,26-4.6c22.8,18.4-24.1,41.4-36.5,49.2c-25.6,16.1-53.6,28.7-82.8,36.7c7.3,10.8,14.7,21.8,24.4,30.6&#10;&#9;&#9;&#9;&#9;c9.7,8.8,22,15.4,35.1,15.6c18.1,0.3,34.1-11.2,47.6-23.2c21.1-18.9,39.8-40.5,55.4-64.1c5.7-8.7,14-19,24.1-16.5&#10;&#9;&#9;&#9;&#9;c7.2,1.7,11.4,9.6,11.7,17c0.5,12.4-7.2,23.5-15.3,32.9c-23,26.7-50,52-82.5,65.8c26,2,52.6,3.9,78-2.1c25.4-6,50-21.4,60.4-45.4&#10;&#9;&#9;&#9;&#9;c12.4-28.4,27.3-50.6,44.9-75.4l0,0c1-1.4,1.9-2.7,2.9-4.1c1.8-2.5,3.6-5,6.1-6.7c2.4-1.7,5.1-2.7,8.1-3.2&#10;&#9;&#9;&#9;&#9;c18.1-2.9,45.6,13.4,60.4,16.5c25.1,5.3,52.8-4.9,68.5-25.2c19.7-25.5,26.9-59.2,24.4-90.9c-17.1,16.1-77.3,52-90,11.7&#10;&#9;&#9;&#9;&#9;c-6.5-20.9,20-23.6,33.6-24.2c17.3-0.8,35.3-0.1,51.4-6.6c35.2-14.3,45.9-51.9,42.5-86.9c-1.6-16.7-4.4-37.8-19.7-16.6&#10;&#9;&#9;&#9;&#9;c-12.4,17.1-25.4,32.2-43.2,44.1c-15.2,10.1-43.6,26.9-62.8,21.9c-7.6-2-15.4-9.1-14.9-17.6c0.6-11.2,15.7-14.2,24-19&#10;&#9;&#9;&#9;&#9;c13.6-7.9,26.8-16.7,38.4-27.3c10-9.2,17.4-13.4,28.5-20.4c19.4-12.3,32.4-34.7,32.5-57.8c0.1-28.1-19-55.2-45.5-64.5&#10;&#9;&#9;&#9;&#9;C1431.1,1757.9,1415.1,1795.2,1413.3,1798.5z M1175.1,2069.4c-2.2-4.1,3.3-11.5,12.3-16.4c9.1-4.9,18.2-5.5,20.5-1.3&#10;&#9;&#9;&#9;&#9;c2.2,4.2-3.3,11.5-12.3,16.4C1186.5,2072.9,1177.3,2073.5,1175.1,2069.4z M1232.7,1908.2c-2.7,9.1-9.1,15.2-14.4,13.6&#10;&#9;&#9;&#9;&#9;c-5.2-1.6-7.3-10.2-4.6-19.3c2.7-9.1,9.1-15.2,14.4-13.6C1233.3,1890.5,1235.4,1899.1,1232.7,1908.2z M1199.8,1860.3&#10;&#9;&#9;&#9;&#9;c-2.6,8.6-8,14.5-12.1,13.3c-4.1-1.2-5.4-9.2-2.9-17.8c2.6-8.6,8-14.5,12.1-13.3C1201.1,1843.7,1202.4,1851.7,1199.8,1860.3z&#10;&#9;&#9;&#9;&#9; M1126.2,1897.2c13.3,4,22.4,12.9,20.3,19.9c-2.1,7-14.6,9.4-27.9,5.5s-22.4-12.9-20.3-19.8&#10;&#9;&#9;&#9;&#9;C1100.4,1895.7,1112.9,1893.3,1126.2,1897.2z M1132.6,2044.7c-3.6-6.6,6.7-19.1,22.9-27.9c16.2-8.8,32.3-10.5,35.9-3.9&#10;&#9;&#9;&#9;&#9;c3.6,6.6-6.7,19.1-22.9,27.9C1152.2,2049.6,1136.2,2051.3,1132.6,2044.7z M1297.7,2004c-6.4,3.5-13.1,3.5-14.9,0.1&#10;&#9;&#9;&#9;&#9;c-1.8-3.4,1.9-9,8.3-12.4c6.4-3.5,13.1-3.5,14.9-0.1C1307.8,1995,1304.1,2000.5,1297.7,2004z M1164.9,1673.3&#10;&#9;&#9;&#9;&#9;c2.3-7.8,7.4-13.4,12.1-13.8c0.4,0,0.7,0,1,0c0.4,0,0.9,0.1,1.3,0.2c5.2,1.6,7.3,10.2,4.6,19.3c-2.1,7.1-6.5,12.3-10.8,13.6&#10;&#9;&#9;&#9;&#9;c-0.8,0.3-1.7,0.3-2.5,0.2c-0.4,0-0.7-0.1-1.1-0.2C1164.3,1691,1162.2,1682.4,1164.9,1673.3z M989.6,1704.8&#10;&#9;&#9;&#9;&#9;c-10-9.6-14.1-21.7-9-26.9c5-5.3,17.3-1.8,27.3,7.8c10,9.6,14.1,21.6,9,26.9C1011.8,1717.9,999.6,1714.4,989.6,1704.8z&#10;&#9;&#9;&#9;&#9; M944.1,1885.5c-14.7,7.9-30.1,7.9-34.4,0c-4.2-7.7,3.6-20,17.4-27.9c0.4-0.2,0.8-0.5,1.2-0.7c0.1-0.1,0.2-0.1,0.3-0.2&#10;&#9;&#9;&#9;&#9;c14.7-7.9,30.1-7.9,34.4,0c2.1,3.8,1.2,8.8-2,13.8c-0.4,0.6-0.8,1.2-1.2,1.8C956.3,1877.1,950.8,1881.8,944.1,1885.5z&#10;&#9;&#9;&#9;&#9; M1098.3,2196c-2.2,2.3-5.2,4.6-8.8,6.6c-2.1,1.1-4.2,2-6.2,2.7c0,0,0,0,0,0c-1.5,0.5-2.9,0.8-4.2,1.1c-4.8,0.9-8.7,0.1-10-2.4&#10;&#9;&#9;&#9;&#9;c-2.2-4.2,3.3-11.5,12.3-16.4c9-4.9,18.2-5.5,20.4-1.3c0.8,1.5,0.6,3.4-0.4,5.5C1100.7,2193.1,1099.7,2194.6,1098.3,2196&#10;&#9;&#9;&#9;&#9;L1098.3,2196z M1404.1,2096.8c-2.5,7.1-18.6,7.9-36.1,1.8c-2.4-0.8-4.7-1.8-6.9-2.8c0,0,0,0,0,0c-1.8-0.8-3.5-1.7-5.1-2.6l0,0&#10;&#9;&#9;&#9;&#9;c-10.6-5.9-16.9-13.3-15-18.6c2.5-7.1,18.7-7.9,36.1-1.8C1394.6,2079,1406.6,2089.7,1404.1,2096.8z" style="fill: rgb(144, 209, 206);"/>
		</g><path class="st10" d="M1036.1,1577.1c0,0,104.1,300.3,305.7,611.3l-22.2,12C1319.6,2200.4,1090.4,1813.3,1036.1,1577.1z" style="fill: rgb(133, 153, 178); clip-path: url('#SVGID_2_');" transform="matrix(1, 0, 0, 1, 0, 0)"/><path class="st10" d="M1173.1,1692.6c-8.1,35.6-24.8,69.4-49,97.3c-1,1.2-2.1,2.4-3.2,3.6l-5.1-4.8c1.8-1.8,3.5-3.6,5.2-5.5&#10;&#9;&#9;&#9;&#9;c23.3-25.4,40.4-56.7,49.6-90.3C1171.4,1692.9,1172.3,1692.8,1173.1,1692.6z" style="fill: rgb(133, 153, 178); clip-path: url('#SVGID_2_');" transform="matrix(1, 0, 0, 1, 0, 0)"/><path class="st10" d="M1178.4,1634.5c0.4,8.3,0.3,16.7-0.3,25.1c-0.3,0-0.7,0-1,0C1177.9,1651.2,1178.4,1642.9,1178.4,1634.5z" style="fill: rgb(133, 153, 178); clip-path: url('#SVGID_2_');" transform="matrix(1, 0, 0, 1, 0, 0)"/><path class="st10" d="M933.8,1745.3c5,8.8,11.8,16.4,19.3,23.1c7.5,6.7,15.7,12.7,23.8,18.6c16.3,11.8,32.6,23.7,50.2,33.7&#10;&#9;&#9;&#9;&#9;c8.8,5,17.9,9.6,27.3,13.4c9.4,3.9,19.2,6.9,29.1,9.3c19.8,4.8,39.9,7.4,59.9,9.9l0.8-6.9c-20-1.9-40-3.8-59.5-8&#10;&#9;&#9;&#9;&#9;c-9.7-2.1-19.3-4.8-28.6-8.3c-9.3-3.4-18.4-7.7-27.2-12.4c-17.6-9.5-34.3-20.8-50.9-32.1c-8.3-5.7-16.6-11.4-24.3-17.8&#10;&#9;&#9;&#9;&#9;C946.1,1761.3,939.1,1754,933.8,1745.3z" style="fill: rgb(133, 153, 178); clip-path: url('#SVGID_2_');" transform="matrix(1, 0, 0, 1, 0, 0)"/><path class="st10" d="M1261.2,1685.6c-3.4,20-6.9,40.1-11.2,59.9c-4.4,19.8-9.7,39.4-16.8,58.4c-7.2,18.9-16,37.2-27.4,53.7&#10;&#9;&#9;&#9;&#9;c-11.2,16.7-25.7,30.9-39,46.5l5.4,4.4c12.6-15.7,26.9-30.6,37.9-48.1c11.2-17.3,19.6-36.2,26.4-55.5&#10;&#9;&#9;&#9;&#9;c6.6-19.4,11.3-39.2,15.2-59.2C1255.5,1725.9,1258.4,1705.7,1261.2,1685.6z" style="fill: rgb(133, 153, 178); clip-path: url('#SVGID_2_');" transform="matrix(1, 0, 0, 1, 0, 0)"/><path class="st10" d="M928.3,1856.9c-0.4,0.2-0.8,0.4-1.2,0.7c-13.6-8.1-25.8-18.4-35.3-31&#10;&#9;&#9;&#9;&#9;C901.7,1839.1,914.4,1849.1,928.3,1856.9z" style="fill: rgb(133, 153, 178); clip-path: url('#SVGID_2_');" transform="matrix(1, 0, 0, 1, 0, 0)"/><path class="st10" d="M1156.7,1871.1l2.1,6.7c-2.8,0.8-5.6,1.6-8.3,2.3c-20.6,5-41.8,5.7-62.5,5.6c-23.6-0.3-47.2-0.3-70.8-2.3&#10;&#9;&#9;&#9;&#9;c-19.4-1.7-38.9-4.9-57.5-11c0.4-0.6,0.8-1.2,1.2-1.8c18.3,5.5,37.4,8.2,56.5,9.3c23.4,1.4,47,0.8,70.5,0.5&#10;&#9;&#9;&#9;&#9;c20.2-0.4,40.4-1.7,59.6-6.6C1150.7,1872.9,1153.7,1872.1,1156.7,1871.1z" style="fill: rgb(133, 153, 178); clip-path: url('#SVGID_2_');" transform="matrix(1, 0, 0, 1, 0, 0)"/><path class="st10" d="M909.2,1998.3c11.7,4.9,24.3,7.6,36.8,9.1c12.6,1.5,25.3,2.1,37.9,2.8c25.3,1.5,50.7,2.7,76.1,2.7&#10;&#9;&#9;&#9;&#9;c25.4,0.1,50.9-1.3,76.1-5c25.2-3.7,50.2-10.1,74.1-19.6l-2.7-6.4c-23,9.8-47.3,16.7-72.2,20.9c-24.8,4.1-50.1,6.2-75.4,6.7&#10;&#9;&#9;&#9;&#9;c-25.3,0.6-50.6,0-76-0.9c-12.7-0.5-25.3-0.7-37.9-2C933.6,2005.2,921,2002.9,909.2,1998.3z" style="fill: rgb(133, 153, 178); clip-path: url('#SVGID_2_');" transform="matrix(1, 0, 0, 1, 0, 0)"/><path class="st10" d="M1430.4,1795.6c-3.8,12.1-9.8,23.4-16.7,34.1c-6.9,10.6-14.7,20.7-22.2,30.9c-15.2,20.3-30.5,40.5-46.9,60&#10;&#9;&#9;&#9;&#9;c-16.3,19.5-33.8,38.1-52.8,55.1c-19,17-40,32-62.7,44.1l-3.2-6.2c22.3-11.3,43.2-25.5,62.4-41.8c19.2-16.4,36.9-34.4,53.6-53.4&#10;&#9;&#9;&#9;&#9;c16.7-19,32.5-38.8,48.1-58.7c7.8-10,15.7-19.9,22.9-30.3C1420.1,1818.8,1426.4,1807.7,1430.4,1795.6z" style="fill: rgb(133, 153, 178); clip-path: url('#SVGID_2_');" transform="matrix(1, 0, 0, 1, 0, 0)"/><path class="st10" d="M1372,1738.1c-14.6,46.6-40.1,89.5-73.9,124.3c-16.9,17.4-36,32.7-53.3,50.1c-8.7,8.7-16.9,18-23.9,28.3&#10;&#9;&#9;&#9;&#9;c-7,10.3-12.7,21.7-15.9,34l6.8,1.7c2.7-11.4,7.8-22.3,14.2-32.3c6.5-10,14.3-19.3,22.6-28c16.7-17.6,35.5-33.3,52.1-51.3&#10;&#9;&#9;&#9;&#9;C1334,1828.7,1358.6,1785,1372,1738.1z" style="fill: rgb(133, 153, 178); clip-path: url('#SVGID_2_');" transform="matrix(1, 0, 0, 1, 0, 0)"/><path class="st10" d="M1454.8,1963.5c-17,10.1-34.8,18.9-53.1,26.1c-18.3,7.3-37.3,12.9-56.5,17c-9.6,2-19.3,3.7-29.1,4.9&#10;&#9;&#9;&#9;&#9;l-29.5,3.4c-9.9,1.2-19.8,2.8-29.5,5.4c-9.8,2.5-19.4,6.3-28.2,11.5l3.7,5.9c8.1-5,16.9-8.9,26.2-11.6c9.3-2.7,18.9-4.6,28.6-6.1&#10;&#9;&#9;&#9;&#9;l29.4-4.3c9.8-1.6,19.6-3.5,29.2-5.9c19.3-4.8,38.2-11,56.4-18.8C1420.6,1983.4,1438.1,1974.1,1454.8,1963.5z" style="fill: rgb(133, 153, 178); clip-path: url('#SVGID_2_');" transform="matrix(1, 0, 0, 1, 0, 0)"/><path class="st7" d="M1445.8,1389.8c-4.3,3.3-16.7-0.9-21.5-1.3c-8.4-0.7-16.8-0.7-25.2,0.2c-3.6,0.4-8.9,0.4-11.3,3.3&#10;&#9;&#9;&#9;c-0.5,0.6-0.9,1.4-1.1,2.3c-0.9,4.1,3.7,9.6,5.6,13c3.6,6.1,7,12.3,10.2,18.7c1,1.9,8.9,17.5,6.6,21.9c-0.4,0.8-1.3,1.3-2.6,1.2&#10;&#9;&#9;&#9;c-6.2-0.6-11.8-6.3-16.2-10.1c-6.8-6-13.3-12.3-20.5-17.8c-3.6-2.8-7.5-5.8-11.6-7.8c-4.5-2.1-9.2-1.7-14.2-1.4&#10;&#9;&#9;&#9;c-11.3,0.6-22.5,2.5-33.3,5.7c-13.8,4.1-27,14.8-41.2,14.9c-2.3,0-4.8-0.2-6.2-2c-0.1-0.1-0.1-0.2-0.2-0.3&#10;&#9;&#9;&#9;c-0.8-1.2-0.9-2.9-0.5-4.4c2.3-8.1,12.2-11.2,18.7-15c5.4-3.1,10.9-5.9,16.6-8.3c2.3-1,17.6-5.4,19.4-9.5c0.5-1.1,0-2.3-2.1-3.3&#10;&#9;&#9;&#9;c-1.4-0.7-2.9-0.8-4.4-0.9c-6.7-0.3-27.6-1.8-31.4-1.9c-6.1-0.2-14.1,0.2-19.9-2.1c-2.2-0.9-3.6-2.7-4-4.8&#10;&#9;&#9;&#9;c-0.4-1.9,0.1-3.9,1.3-5.6c3.6-4.7,12.9-4,18.2-4.4c11.8-1.1,23.7-1.7,35.5-1.2c14.3,0.6,28-5.9,36.6-17.4&#10;&#9;&#9;&#9;c3.4-4.5,11.6-16.2,18.7-13.8c1,0.3,1.9,0.9,2.8,1.8c2.7,2.6,4.5,9.7,6.2,13.1c1.5,3.1,3.1,6.1,4.6,9.2c2.2,4.5,6.7,7.4,11.7,7.6&#10;&#9;&#9;&#9;l20.9,1c9.2,0.6,19.7,1.6,27.9,6.4c1.9,1.1,5.1,3.7,6.7,6.5C1447.9,1385.5,1448.2,1387.9,1445.8,1389.8z" style="fill: rgb(232, 226, 214); clip-path: url('#SVGID_2_');" transform="matrix(1, 0, 0, 1, 0, 0)"/><path class="st7" d="M1319.2,1388.6c0,1.6-0.8,3.2-2.1,4.3c0.5-1.1,0-2.3-2.1-3.3c-1.4-0.7-2.9-0.8-4.4-0.9&#10;&#9;&#9;&#9;c-6.7-0.3-27.6-1.8-31.4-1.9c-6.1-0.2-14.1,0.2-19.9-2.1c-2.2-0.9-3.6-2.7-4-4.8c3.2-0.8,7.6,0.4,10.3,0.8&#10;&#9;&#9;&#9;c13.7,1.8,27.5,2.3,41.4,1.7c2.6-0.1,5.2-0.2,7.6,0.6C1317,1383.9,1319.2,1386,1319.2,1388.6z" style="fill: rgb(232, 226, 214); clip-path: url('#SVGID_2_');" transform="matrix(1, 0, 0, 1, 0, 0)"/><path class="st7" d="M1445.8,1389.8c-4.3,3.3-16.7-0.9-21.5-1.3c-8.4-0.7-16.8-0.7-25.2,0.2c-3.6,0.4-8.9,0.4-11.3,3.3&#10;&#9;&#9;&#9;c0.3-0.9,1-1.7,1.7-2.4c6.8-6.2,16.7-7.2,25.8-6.7c6.1,0.3,12.2,1.3,18.3,1.3c4,0,9-1.7,13-1.1&#10;&#9;&#9;&#9;C1447.9,1385.5,1448.2,1387.9,1445.8,1389.8z" style="fill: rgb(232, 226, 214); clip-path: url('#SVGID_2_');" transform="matrix(1, 0, 0, 1, 0, 0)"/><path class="st7" d="M1409,1447.8c-0.4,0.8-1.3,1.3-2.6,1.2c-6.2-0.6-11.8-6.3-16.2-10.1c-6.8-6-13.3-12.3-20.5-17.8&#10;&#9;&#9;&#9;c-3.6-2.8-7.5-5.8-11.6-7.8c-4.5-2.1-9.2-1.7-14.2-1.4c-11.3,0.6-22.5,2.5-33.3,5.7c-13.8,4.1-27,14.8-41.2,14.9&#10;&#9;&#9;&#9;c-2.3,0-4.8-0.2-6.2-2c-0.1-0.1-0.1-0.2-0.2-0.3c2.5-1.3,7.6-0.6,10.3-1.3c3.5-0.9,6.9-2.5,10-4.2c7.6-4.3,14.1-10.2,21.7-14.6&#10;&#9;&#9;&#9;c13.1-7.5,28.9-10,43.7-6.8c14.7,3.2,28.2,11.9,37,24.1c5.1,7.1,9.4,15.8,17.6,18.8C1405,1446.7,1407.1,1447.2,1409,1447.8z" style="fill: rgb(232, 226, 214); clip-path: url('#SVGID_2_');" transform="matrix(1, 0, 0, 1, 0, 0)"/><path class="st10" d="M1448.8,1379.8c-4.3,3.3-16.7-0.9-21.5-1.3c-8.4-0.7-16.8-0.7-25.2,0.2c-3.6,0.4-8.9,0.4-11.3,3.3&#10;&#9;&#9;&#9;c-0.5,0.6-0.9,1.4-1.1,2.3c-0.9,4.1,3.7,9.6,5.6,13c3.6,6.1,7,12.3,10.2,18.7c1,1.9,8.9,17.5,6.6,21.9c-0.4,0.8-1.3,1.3-2.6,1.2&#10;&#9;&#9;&#9;c-6.2-0.6-11.8-6.3-16.2-10.1c-6.8-6-13.3-12.3-20.5-17.8c-3.6-2.8-7.5-5.8-11.6-7.8c-4.5-2.1-9.2-1.7-14.2-1.4&#10;&#9;&#9;&#9;c-11.3,0.6-22.5,2.5-33.3,5.7c-13.8,4.1-27,14.8-41.2,14.9c-2.3,0-4.8-0.2-6.2-2c-0.1-0.1-0.1-0.2-0.2-0.3&#10;&#9;&#9;&#9;c-0.8-1.2-0.9-2.9-0.5-4.4c2.3-8.1,12.2-11.2,18.7-15c5.4-3.1,10.9-5.9,16.6-8.3c2.3-1,17.6-5.4,19.4-9.5c0.5-1.1,0-2.3-2.1-3.3&#10;&#9;&#9;&#9;c-1.4-0.7-2.9-0.8-4.4-0.9c-6.7-0.3-27.6-1.8-31.4-1.9c-6.1-0.2-14.1,0.2-19.9-2.1c-2.2-0.9-3.6-2.7-4-4.8&#10;&#9;&#9;&#9;c-0.4-1.9,0.1-3.9,1.3-5.6c3.6-4.7,12.9-4,18.2-4.4c11.8-1.1,23.7-1.7,35.5-1.2c14.3,0.6,28-5.9,36.6-17.4&#10;&#9;&#9;&#9;c3.4-4.5,11.6-16.2,18.7-13.8c1,0.3,1.9,0.9,2.8,1.8c2.7,2.6,4.5,9.7,6.2,13.1c1.5,3.1,3.1,6.1,4.6,9.2c2.2,4.5,6.7,7.4,11.7,7.6&#10;&#9;&#9;&#9;l20.9,1c9.2,0.6,19.7,1.6,27.9,6.4c1.9,1.1,5.1,3.7,6.7,6.5C1450.9,1375.5,1451.2,1377.9,1448.8,1379.8z" style="fill: rgb(133, 153, 178); clip-path: url('#SVGID_2_');" transform="matrix(1, 0, 0, 1, 0, 0)"/><path class="st11" d="M1322.2,1378.6c0,1.6-0.8,3.2-2.1,4.3c0.5-1.1,0-2.3-2.1-3.3c-1.4-0.7-2.9-0.8-4.4-0.9&#10;&#9;&#9;&#9;c-6.7-0.3-27.6-1.8-31.4-1.9c-6.1-0.2-14.1,0.2-19.9-2.1c-2.2-0.9-3.6-2.7-4-4.8c3.2-0.8,7.6,0.4,10.3,0.8&#10;&#9;&#9;&#9;c13.7,1.8,27.5,2.3,41.4,1.7c2.6-0.1,5.2-0.2,7.6,0.6C1320,1373.9,1322.2,1376,1322.2,1378.6z" style="fill: rgb(97, 124, 153); clip-path: url('#SVGID_2_');" transform="matrix(1, 0, 0, 1, 0, 0)"/><path class="st11" d="M1448.8,1379.8c-4.3,3.3-16.7-0.9-21.5-1.3c-8.4-0.7-16.8-0.7-25.2,0.2c-3.6,0.4-8.9,0.4-11.3,3.3&#10;&#9;&#9;&#9;c0.3-0.9,1-1.7,1.7-2.4c6.8-6.2,16.7-7.2,25.8-6.7c6.1,0.3,12.2,1.3,18.3,1.3c4,0,9-1.7,13-1.1&#10;&#9;&#9;&#9;C1450.9,1375.5,1451.2,1377.9,1448.8,1379.8z" style="fill: rgb(97, 124, 153); clip-path: url('#SVGID_2_');" transform="matrix(1, 0, 0, 1, 0, 0)"/><path class="st11" d="M1412,1437.8c-0.4,0.8-1.3,1.3-2.6,1.2c-6.2-0.6-11.8-6.3-16.2-10.1c-6.8-6-13.3-12.3-20.5-17.8&#10;&#9;&#9;&#9;c-3.6-2.8-7.5-5.8-11.6-7.8c-4.5-2.1-9.2-1.7-14.2-1.4c-11.3,0.6-22.5,2.5-33.3,5.7c-13.8,4.1-27,14.8-41.2,14.9&#10;&#9;&#9;&#9;c-2.3,0-4.8-0.2-6.2-2c-0.1-0.1-0.1-0.2-0.2-0.3c2.5-1.3,7.6-0.6,10.3-1.3c3.5-0.9,6.9-2.5,10-4.2c7.6-4.3,14.1-10.2,21.7-14.6&#10;&#9;&#9;&#9;c13.1-7.5,28.9-10,43.7-6.8c14.7,3.2,28.2,11.9,37,24.1c5.1,7.1,9.4,15.8,17.6,18.8C1408,1436.7,1410.1,1437.2,1412,1437.8z" style="fill: rgb(97, 124, 153); clip-path: url('#SVGID_2_');" transform="matrix(1, 0, 0, 1, 0, 0)"/><g transform="matrix(1, 0, 0, 1, 0, 0)" style="clip-path: url('#SVGID_2_');">
			<path class="st6" d="M2351.7,1156.1c33.8-74.8-12.4-137.2-13.2-138.2c27,68-14.5,132.2-14.5,132.2l-229.5-29l-3-94.1&#10;&#9;&#9;&#9;&#9;c-38.3,32.2-20,83.6-20,83.6c-110-1.2-172.6-37.7-172.6-37.7s0,0,0.1,0c118.9-49.1,228.7-70.7,323.4-77.2&#10;&#9;&#9;&#9;&#9;c163.5-4.6,262.9,47.2,263.9,47.7c0,0,0,0,0,0C2456.2,1148.3,2351.7,1156.1,2351.7,1156.1z" style="fill: rgb(255, 243, 225);"/>
			<path class="st6" d="M2562,1068.4c-25.1-9.8-50.4-18.1-75.7-24.9c0,0,0,0,0,0c-49.7-13.4-99.5-21.5-147.8-25.6&#10;&#9;&#9;&#9;&#9;c-90.4-7.6-175.8-1.4-247,9.2c-113.2,16.9-190.1,44.9-192.6,45.8c118.9-49.1,228.7-70.7,323.4-77.2&#10;&#9;&#9;&#9;&#9;c206.5-14.2,341.3,43.3,341.3,43.3L2562,1068.4z" style="fill: rgb(255, 243, 225);"/>
		</g><path class="st6" d="M2433.3,1263.2c-4.1-82-73.7-116.4-74.8-117c55.1,48.2,47.5,124.3,47.5,124.3l-217.4,79l-45.6-82.3&#10;&#9;&#9;&#9;&#9;c-19.4,46.2,20.3,83.5,20.3,83.5c-98.4,49.2-170.8,45.3-170.8,45.3s0,0,0,0c83.3-97.9,171.2-167.3,252.5-216.3&#10;&#9;&#9;&#9;&#9;c143.4-78.7,255.5-78.1,256.5-78.1c0,0,0,0,0,0C2522.7,1208.5,2433.3,1263.2,2433.3,1263.2z" style="fill: rgb(255, 243, 225); clip-path: url('#SVGID_2_');" transform="matrix(1, 0, 0, 1, 0, 0)"/><path class="st6" d="M2580.4,1089.1c-26.8,2.7-53.1,6.9-78.8,12.4c0,0,0,0,0,0c-50.4,10.7-98.3,26.3-143.2,44.7&#10;&#9;&#9;&#9;&#9;c-83.9,34.5-157.1,79-215.5,120.9c-93,66.7-148.6,126.7-150.4,128.7c83.3-97.9,171.2-167.3,252.5-216.3&#10;&#9;&#9;&#9;&#9;c177.3-106.9,323.4-117.3,323.4-117.3L2580.4,1089.1z" style="fill: rgb(255, 243, 225); clip-path: url('#SVGID_2_');" transform="matrix(1, 0, 0, 1, 0, 0)"/><path class="st6" d="M2328.7,1076.1c58.1-58.1,36.9-132.8,36.6-133.9c1.2,73.2-60.3,118.6-60.3,118.6l-204.4-108.3l30.5-89&#10;&#9;&#9;&#9;&#9;c-47.3,16.6-48.3,71.1-48.3,71.1c-102.5-40-148.1-96.3-148.1-96.3s0,0,0.1,0c128.5-3.9,238.9,14.8,329.8,42.2&#10;&#9;&#9;&#9;&#9;c154.6,53.5,229.3,137.1,230,137.9c0,0,0,0,0,0C2429.3,1105.8,2328.7,1076.1,2328.7,1076.1z" style="fill: rgb(255, 243, 225); clip-path: url('#SVGID_2_');" transform="matrix(1, 0, 0, 1, 0, 0)"/><path class="st6" d="M2556.5,1068.5c-20-18.1-40.8-34.7-62-50.1c0,0,0,0,0,0c-41.8-30.2-85.4-55.3-129.2-76.2&#10;&#9;&#9;&#9;&#9;c-81.9-39.1-164-63.5-234.3-78.7c-111.9-24.2-193.7-25.2-196.3-25.2c128.5-3.9,238.9,14.8,329.8,42.2&#10;&#9;&#9;&#9;&#9;c198.2,59.8,303.9,161.2,303.9,161.2L2556.5,1068.5z" style="fill: rgb(255, 243, 225); clip-path: url('#SVGID_2_');" transform="matrix(1, 0, 0, 1, 0, 0)"/><path class="st6" d="M2758.7,999.1c-75.8-31.4-84.9-108.6-85-109.8c26.8,68.1,101.1,86.5,101.1,86.5l147.5-178.2l-62.2-70.6&#10;&#9;&#9;&#9;&#9;c50-2.8,71.8,47.2,71.8,47.2c79.4-76.2,100-145.6,100-145.6s0,0-0.1,0c-120.3,45.6-215.1,105-288.6,165.1&#10;&#9;&#9;&#9;&#9;c-122.3,108.6-159.4,214.4-159.8,215.3c0,0,0,0,0,0C2677.1,1064.9,2758.7,999.1,2758.7,999.1z" style="fill: rgb(255, 243, 225); clip-path: url('#SVGID_2_');" transform="matrix(1, 0, 0, 1, 0, 0)"/><path class="st6" d="M2545.3,1079.1c11.6-24.4,24.4-47.7,38.2-70c0,0,0,0,0,0c27-43.8,57.8-83.7,90.3-119.8&#10;&#9;&#9;&#9;&#9;c60.7-67.4,127.2-121.4,186.4-162.3c94.1-65.2,169.3-97.3,171.8-98.4c-120.3,45.6-215.1,105-288.6,165.1&#10;&#9;&#9;&#9;&#9;c-160.3,131-219.2,265.1-219.2,265.1L2545.3,1079.1z" style="fill: rgb(255, 243, 225); clip-path: url('#SVGID_2_');" transform="matrix(1, 0, 0, 1, 0, 0)"/><path class="st6" d="M2783.7,1091.7c-49.7-65.4-18.6-136.5-18.1-137.6c-11.1,72.3,43.7,125.7,43.7,125.7l217.2-79.6l-18.2-92.3&#10;&#9;&#9;&#9;&#9;c44.6,22.8,38.2,77,38.2,77c107-25.8,159.8-75.4,159.8-75.4s0,0-0.1,0c-126.8-21.3-238.7-17.7-332.5-2.9&#10;&#9;&#9;&#9;&#9;c-160.4,32.1-245.7,104.8-246.5,105.5c0,0,0,0,0,0C2680,1107.5,2783.7,1091.7,2783.7,1091.7z" style="fill: rgb(255, 243, 225); clip-path: url('#SVGID_2_');" transform="matrix(1, 0, 0, 1, 0, 0)"/><path class="st6" d="M2559.1,1053.3c22.3-15.2,45.1-28.9,68.2-41.2c0,0,0,0,0,0c45.5-24.2,92.1-43.2,138.3-58&#10;&#9;&#9;&#9;&#9;c86.4-27.7,171.1-40.7,242.8-46.3c114.1-8.9,195.3,1.3,197.9,1.6c-126.8-21.3-238.7-17.7-332.5-2.9&#10;&#9;&#9;&#9;&#9;c-204.4,32.4-322.9,118.5-322.9,118.5L2559.1,1053.3z" style="fill: rgb(255, 243, 225); clip-path: url('#SVGID_2_');" transform="matrix(1, 0, 0, 1, 0, 0)"/><path class="st6" d="M2791.8,2067.5c-1.9-1.8,17.7-120.7,18.5-134.1c2.7-46.6,1.6-93.4-2.4-139.8&#10;&#9;&#9;&#9;c-14.8-171-53.6-339.4-119.4-490.2c-8-18.4-135.7-271.5-158.2-249.6c13-12.7,22.9-21.4,35.9-34.1&#10;&#9;&#9;&#9;c233.7,236.1,368,680.1,337.8,1057.2C2880,2110.9,2821.1,2094.3,2791.8,2067.5z" style="fill: rgb(255, 243, 225); clip-path: url('#SVGID_2_');" transform="matrix(1, 0, 0, 1, 0, 0)"/><path d="M 2590.099998 1099.300049 A 66.099998 66.099998 0 0 1 2524 1165.400047 A 66.099998 66.099998 0 0 1 2457.900002 1099.300049 A 66.099998 66.099998 0 0 1 2524 1033.20005 A 66.099998 66.099998 0 0 1 2590.099998 1099.300049 Z" class="st6" style="fill: rgb(255, 243, 225); clip-path: url('#SVGID_2_');" transform="matrix(1, 0, 0, 1, 0, 0)"/><path d="M 2670.700096 1053.300049 A 66.099998 66.099998 0 0 1 2604.600098 1119.400047 A 66.099998 66.099998 0 0 1 2538.500099 1053.300049 A 66.099998 66.099998 0 0 1 2604.600098 987.20005 A 66.099998 66.099998 0 0 1 2670.700096 1053.300049 Z" class="st6" style="fill: rgb(255, 243, 225); clip-path: url('#SVGID_2_');" transform="matrix(1, 0, 0, 1, 0, 0)"/><path class="st9" d="M2848,2554.9c0,0,135.1-22.4,147.8-257.1c0,0-87.4-70.4-146.6-69.4c0,0,51.1-49.1,134.6-27.3l-45.8-177.2&#10;&#9;&#9;&#9;c0,0-77.6,4.1-195.1,9.1c0,0,122.4-54.2,176.5-59.8l-117.8-206.2c0,0-118.2,43.9-167.6,66.8l138.6-102.6&#10;&#9;&#9;&#9;c0,0-133.5-195.9-312.2-231.5L2848,2554.9z" style="fill: rgb(144, 209, 206); clip-path: url('#SVGID_2_');" transform="matrix(1, 0, 0, 1, 0, 0)"/><path class="st12" d="M2412.5,2160.5l62.4,128.8c0,0,13.4,36,35.8,78.6c22.4,42.6,54,91.8,90.3,118c12.4,11.2,24.5,20.9,36.3,29.4&#10;&#9;&#9;&#9;c45.1-31,102-65.1,143.8-73.1c0,0-48.6,53.3-91,104.6c95.9,45.1,157.8,8,157.8,8l-387.6-1055.1c-113.1,142.9-106,326.8-106,326.8&#10;&#9;&#9;&#9;l140.3,29.7c-26.9,10.1-119.8,15.1-138.8,23.8l42.4,225.9c44.9-30.8,149-45.2,149-45.2C2454.3,2133,2412.5,2160.5,2412.5,2160.5z" style="fill: rgb(161, 222, 221); clip-path: url('#SVGID_2_');" transform="matrix(1, 0, 0, 1, 0, 0)"/><path d="M 2460.300048828125 1499.800048828125 L 2857.39990234375 2682.800048828125 L 2919.800048828125 2649.699951171875 Z" class="st10" style="fill: rgb(133, 153, 178); clip-path: url('#SVGID_2_');" transform="matrix(1, 0, 0, 1, 0, 0)"/><path class="st12" d="M-23.3,1411.6c-74.2-107.5-19.7-218.3-18.8-220c-22.9,114.1,60.4,202.8,60.4,202.8l350.8-110.8l-22.2-148&#10;&#9;&#9;&#9;c69.2,39.5,55.1,125,55.1,125c171.8-33.2,259.3-108.2,259.3-108.2s0,0-0.1,0c-200-42.9-378-45.4-528-28.5&#10;&#9;&#9;&#9;c-257.1,39.4-398,148.8-399.3,149.8c0,0,0,0,0,0C-189.2,1429.2-23.3,1411.6-23.3,1411.6z" style="fill: rgb(161, 222, 221); clip-path: url('#SVGID_2_');" transform="matrix(1, 0, 0, 1, 0, 0)"/><path class="st11" d="M-377.5,1334.3c36.5-22.5,73.7-42.7,111.4-60.6c0,0,0,0,0,0c74-35.2,149.5-62,224-82.1&#10;&#9;&#9;&#9;c139.3-37.7,274.7-52.3,389-56c182-5.8,310.2,16.1,314.3,16.8c-200-42.9-378-45.4-528-28.5c-327.2,36.7-521.6,165-521.6,165&#10;&#9;&#9;&#9;L-377.5,1334.3z" style="fill: rgb(97, 124, 153); clip-path: url('#SVGID_2_');" transform="matrix(1, 0, 0, 1, 0, 0)"/><path class="st12" d="M-34.4,1520.2c-24.3-128.3,70.4-207.5,71.9-208.7c-67.2,95.1-27,209.9-27,209.9l365.6,40.9l39.7-144.3&#10;&#9;&#9;&#9;c47.3,64.1-0.2,136.7-0.2,136.7c170.6,39.2,280.9,6.2,280.9,6.2s0,0-0.1-0.1c-165.4-120.3-327.2-194.6-471.2-240&#10;&#9;&#9;&#9;c-251-68.1-424.1-25.2-425.7-24.8c0,0,0,0,0,0C-193.2,1469-34.4,1520.2-34.4,1520.2z" style="fill: rgb(161, 222, 221); clip-path: url('#SVGID_2_');" transform="matrix(1, 0, 0, 1, 0, 0)"/><path class="st10" d="M-326.9,1306c42.5-5.8,84.7-9.1,126.4-10.3c0,0,0,0,0,0c81.9-2.2,161.8,3.9,238,15.7&#10;&#9;&#9;&#9;c142.6,21.9,272.4,63.5,378.3,106.4c168.7,68.4,277,140.4,280.6,142.8c-165.4-120.3-327.2-194.6-471.2-240&#10;&#9;&#9;&#9;c-314-99-543.7-60.5-543.7-60.5L-326.9,1306z" style="fill: rgb(133, 153, 178); clip-path: url('#SVGID_2_');" transform="matrix(1, 0, 0, 1, 0, 0)"/><path class="st9" d="M-4.2,2459.3c0,0-135.1-22.4-147.8-257.1c0,0,87.4-70.4,146.6-69.4c0,0-51.1-49.1-134.6-27.3l45.8-177.2&#10;&#9;&#9;&#9;c0,0,77.6,4.1,195.1,9.1c0,0-122.4-54.2-176.5-59.8l117.8-206.2c0,0,118.2,43.9,167.6,66.8L71.2,1635.7&#10;&#9;&#9;&#9;c0,0,133.5-195.9,312.2-231.5L-4.2,2459.3z" style="fill: rgb(144, 209, 206); clip-path: url('#SVGID_2_');" transform="matrix(1, 0, 0, 1, 0, 0)"/><path class="st12" d="M431.2,2064.9l-62.4,128.8c0,0-13.4,36-35.8,78.6c-22.4,42.6-54,91.8-90.3,118&#10;&#9;&#9;&#9;c-12.4,11.2-24.5,20.9-36.3,29.4c-45.1-31-102-65.1-143.8-73.1c0,0,48.6,53.3,91,104.6c-95.9,45.1-157.8,8-157.8,8l387.6-1055.1&#10;&#9;&#9;&#9;c113.1,142.9,106,326.8,106,326.8l-140.3,29.7c26.9,10.1,119.8,15.1,138.8,23.8l-42.4,225.9c-44.9-30.8-149-45.2-149-45.2&#10;&#9;&#9;&#9;C389.5,2037.5,431.2,2064.9,431.2,2064.9z" style="fill: rgb(161, 222, 221); clip-path: url('#SVGID_2_');" transform="matrix(1, 0, 0, 1, 0, 0)"/><path d="M 383.5 1404.199951171875 L -13.699999809265137 2587.199951171875 L -76 2554.10009765625 Z" class="st10" style="fill: rgb(133, 153, 178); clip-path: url('#SVGID_2_');" transform="matrix(1, 0, 0, 1, 0, 0)"/><path class="st12" d="M2951.5,1531.4c16.3-129.5-83.1-202.8-84.6-203.9c72.9,90.7,39.8,207.8,39.8,207.8l-362.4,63.2l-48.5-141.6&#10;&#9;&#9;&#9;c-43.2,66.9,8.6,136.4,8.6,136.4c-167.8,49.6-280,23.4-280,23.4s0,0,0.1-0.1c157.7-130.2,314.6-214.4,455.6-268.5&#10;&#9;&#9;&#9;c246.4-83.4,421.7-51.2,423.4-50.9c0,0,0,0,0,0C3106.8,1470.6,2951.5,1531.4,2951.5,1531.4z" style="fill: rgb(161, 222, 221); clip-path: url('#SVGID_2_');" transform="matrix(1, 0, 0, 1, 0, 0)"/><path class="st10" d="M3230.2,1299.7c-42.8-3.2-85.1-3.9-126.8-2.5c0,0,0,0,0,0c-81.9,2.8-161.2,13.8-236.6,30.3&#10;&#9;&#9;&#9;c-141,30.7-268,80.1-371.1,129.5c-164.2,78.6-267.9,157.2-271.3,159.7c157.7-130.2,314.6-214.4,455.6-268.5&#10;&#9;&#9;&#9;c307.3-118.1,539-93.8,539-93.8L3230.2,1299.7z" style="fill: rgb(133, 153, 178); clip-path: url('#SVGID_2_');" transform="matrix(1, 0, 0, 1, 0, 0)"/><path class="st12" d="M2836.7,956.1c71-109.6,13.3-218.7,12.4-220.4c26.2,113.4-54.5,204.4-54.5,204.4l-353.9-100.6l17.9-148.6&#10;&#9;&#9;&#9;c-68,41.4-51.5,126.6-51.5,126.6c-172.7-28.3-262.3-100.6-262.3-100.6s0,0,0.1,0c198.6-48.7,376.5-56.3,527-43.8&#10;&#9;&#9;&#9;c258.2,32,402.1,137.2,403.4,138.2c0,0,0,0,0,0C3003,968.9,2836.7,956.1,2836.7,956.1z" style="fill: rgb(161, 222, 221); clip-path: url('#SVGID_2_');" transform="matrix(1, 0, 0, 1, 0, 0)"/><path class="st10" d="M3188.5,868.6c-37.1-21.5-74.9-40.5-113.1-57.3c0,0,0,0,0,0c-74.9-33.1-151.2-57.6-226.2-75.6&#10;&#9;&#9;&#9;C2708.8,702,2573,691.3,2458.7,691c-182-0.6-309.6,25.1-313.7,25.9c198.6-48.7,376.5-56.3,527-43.8&#10;&#9;&#9;&#9;c328.1,27.2,526.2,149.8,526.2,149.8L3188.5,868.6z" style="fill: rgb(133, 153, 178); clip-path: url('#SVGID_2_');" transform="matrix(1, 0, 0, 1, 0, 0)"/><g transform="matrix(1, 0, 0, 1, 0, 0)" style="clip-path: url('#SVGID_2_');">
			<g>
				<path class="st6" d="M596.9,884.1c-2.5-5.5,0.9-10,1-10.1c-2,5,1.1,9.6,1.1,9.6l16.7-2.1l0.2-6.9c2.8,2.3,1.5,6.1,1.5,6.1&#10;&#9;&#9;&#9;&#9;&#9;c8-0.1,12.6-2.7,12.6-2.7s0,0,0,0c-8.7-3.6-16.7-5.1-23.6-5.6c-11.9-0.3-19.2,3.4-19.2,3.5c0,0,0,0,0,0&#10;&#9;&#9;&#9;&#9;&#9;C589.3,883.5,596.9,884.1,596.9,884.1z" style="fill: rgb(255, 243, 225);"/>
				<path class="st6" d="M581.6,877.7c1.8-0.7,3.7-1.3,5.5-1.8c0,0,0,0,0,0c3.6-1,7.2-1.6,10.8-1.9c6.6-0.6,12.8-0.1,18,0.7&#10;&#9;&#9;&#9;&#9;&#9;c8.2,1.2,13.8,3.3,14,3.3c-8.7-3.6-16.7-5.1-23.6-5.6c-15-1-24.9,3.2-24.9,3.2L581.6,877.7z" style="fill: rgb(255, 243, 225);"/>
			</g>
			<g>
				<path class="st6" d="M590.9,891.9c0.3-6,5.4-8.5,5.4-8.5c-4,3.5-3.5,9.1-3.5,9.1l15.8,5.8l3.3-6c1.4,3.4-1.5,6.1-1.5,6.1&#10;&#9;&#9;&#9;&#9;&#9;c7.2,3.6,12.4,3.3,12.4,3.3s0,0,0,0c-6.1-7.1-12.5-12.2-18.4-15.8c-10.4-5.7-18.6-5.7-18.7-5.7c0,0,0,0,0,0&#10;&#9;&#9;&#9;&#9;&#9;C584.4,887.9,590.9,891.9,590.9,891.9z" style="fill: rgb(255, 243, 225);"/>
				<path class="st6" d="M580.2,879.2c2,0.2,3.9,0.5,5.7,0.9c0,0,0,0,0,0c3.7,0.8,7.2,1.9,10.4,3.3c6.1,2.5,11.4,5.8,15.7,8.8&#10;&#9;&#9;&#9;&#9;&#9;c6.8,4.9,10.8,9.2,11,9.4c-6.1-7.1-12.5-12.2-18.4-15.8c-12.9-7.8-23.6-8.5-23.6-8.5L580.2,879.2z" style="fill: rgb(255, 243, 225);"/>
			</g>
			<g>
				<path class="st6" d="M598.6,878.3c-4.2-4.2-2.7-9.7-2.7-9.8c-0.1,5.3,4.4,8.6,4.4,8.6l14.9-7.9l-2.2-6.5&#10;&#9;&#9;&#9;&#9;&#9;c3.4,1.2,3.5,5.2,3.5,5.2c7.5-2.9,10.8-7,10.8-7s0,0,0,0c-9.4-0.3-17.4,1.1-24,3.1c-11.3,3.9-16.7,10-16.8,10c0,0,0,0,0,0&#10;&#9;&#9;&#9;&#9;&#9;C591.2,880.4,598.6,878.3,598.6,878.3z" style="fill: rgb(255, 243, 225);"/>
				<path class="st6" d="M582,877.7c1.5-1.3,3-2.5,4.5-3.6c0,0,0,0,0,0c3-2.2,6.2-4,9.4-5.5c6-2.8,11.9-4.6,17.1-5.7&#10;&#9;&#9;&#9;&#9;&#9;c8.2-1.8,14.1-1.8,14.3-1.8c-9.4-0.3-17.4,1.1-24,3.1c-14.4,4.4-22.1,11.7-22.1,11.7L582,877.7z" style="fill: rgb(255, 243, 225);"/>
			</g>
			<g>
				<path class="st6" d="M567.2,872.7c5.5-2.3,6.2-7.9,6.2-8c-2,5-7.4,6.3-7.4,6.3l-10.7-13l4.5-5.1c-3.6-0.2-5.2,3.4-5.2,3.4&#10;&#9;&#9;&#9;&#9;&#9;c-5.8-5.6-7.3-10.6-7.3-10.6s0,0,0,0c8.8,3.3,15.7,7.7,21,12c8.9,7.9,11.6,15.6,11.6,15.7c0,0,0,0,0,0&#10;&#9;&#9;&#9;&#9;&#9;C573.2,877.5,567.2,872.7,567.2,872.7z" style="fill: rgb(255, 243, 225);"/>
				<path class="st6" d="M582.8,878.5c-0.8-1.8-1.8-3.5-2.8-5.1c0,0,0,0,0,0c-2-3.2-4.2-6.1-6.6-8.7c-4.4-4.9-9.3-8.8-13.6-11.8&#10;&#9;&#9;&#9;&#9;&#9;c-6.9-4.7-12.3-7.1-12.5-7.2c8.8,3.3,15.7,7.7,21,12c11.7,9.5,16,19.3,16,19.3L582.8,878.5z" style="fill: rgb(255, 243, 225);"/>
			</g>
			<g>
				<path class="st6" d="M572,865.4c5.8,1.3,9.6-3,9.6-3c-4.4,3-9.6,1-9.6,1l-1.4-16.8l6.7-1.6c-2.9-2.2-6.3-0.2-6.3-0.2&#10;&#9;&#9;&#9;&#9;&#9;c-1.6-7.9,0.1-12.9,0.1-12.9s0,0,0,0c5.3,7.7,8.5,15.2,10.4,21.9c2.8,11.6,0.6,19.5,0.6,19.5c0,0,0,0,0,0&#10;&#9;&#9;&#9;&#9;&#9;C574.2,872.7,572,865.4,572,865.4z" style="fill: rgb(255, 243, 225);"/>
				<path class="st6" d="M581.5,879.1c0.3-1.9,0.5-3.9,0.6-5.8c0,0,0,0,0,0c0.2-3.7,0-7.4-0.4-10.9c-0.8-6.6-2.6-12.6-4.4-17.5&#10;&#9;&#9;&#9;&#9;&#9;c-2.9-7.8-6.1-12.9-6.2-13c5.3,7.7,8.5,15.2,10.4,21.9c4.2,14.5,2.1,25,2.1,25L581.5,879.1z" style="fill: rgb(255, 243, 225);"/>
			</g>
			<g>
				<path class="st6" d="M565.4,879.4c3.6-4.8,1.4-9.9,1.3-10c0.8,5.3-3.2,9.2-3.2,9.2l-15.8-5.8l1.3-6.7c-3.2,1.7-2.8,5.6-2.8,5.6&#10;&#9;&#9;&#9;&#9;&#9;c-7.8-1.9-11.6-5.5-11.6-5.5s0,0,0,0c9.2-1.5,17.4-1.3,24.2-0.2c11.7,2.3,17.9,7.6,18,7.7c0,0,0,0,0,0&#10;&#9;&#9;&#9;&#9;&#9;C573,880.6,565.4,879.4,565.4,879.4z" style="fill: rgb(255, 243, 225);"/>
				<path class="st6" d="M581.8,876.6c-1.6-1.1-3.3-2.1-5-3c0,0,0,0,0,0c-3.3-1.8-6.7-3.1-10.1-4.2c-6.3-2-12.5-3-17.7-3.4&#10;&#9;&#9;&#9;&#9;&#9;c-8.3-0.6-14.2,0.1-14.4,0.1c9.2-1.5,17.4-1.3,24.2-0.2c14.9,2.4,23.5,8.6,23.5,8.6L581.8,876.6z" style="fill: rgb(255, 243, 225);"/>
			</g>
			<path class="st6" d="M564.8,934.3c0.1-0.1-1.3-6.9-1.3-7.7c-0.2-2.7-0.1-5.4,0.2-8c1.1-9.8,3.9-19.5,8.7-28.1&#10;&#9;&#9;&#9;&#9;c0.6-1.1,9.9-15.6,11.5-14.3c-0.9-0.7-1.7-1.2-2.6-2c-17,13.6-26.8,39.1-24.6,60.7C558.4,936.8,562.7,935.9,564.8,934.3z" style="fill: rgb(255, 243, 225);"/>
			<path d="M 589.099988 880 A 4.8 4.8 0 0 1 584.299988 884.8 A 4.8 4.8 0 0 1 579.499988 880 A 4.8 4.8 0 0 1 584.299988 875.2 A 4.8 4.8 0 0 1 589.099988 880 Z" class="st6" style="fill: rgb(255, 243, 225);"/>
			<path d="M 583.3 876.599976 A 4.8 4.8 0 0 1 578.5 881.399976 A 4.8 4.8 0 0 1 573.7 876.599976 A 4.8 4.8 0 0 1 578.5 871.799975 A 4.8 4.8 0 0 1 583.3 876.599976 Z" class="st6" style="fill: rgb(255, 243, 225);"/>
		</g><g transform="matrix(1, 0, 0, 1, 0, 0)" style="clip-path: url('#SVGID_2_');">
				<path class="st6" d="M477.7,841c3.1-5.1,0.2-10,0.2-10.1c1.4,5.1-2.2,9.5-2.2,9.5l-16.4-4l0.6-6.8c-3,2-2.1,5.9-2.1,5.9&#10;&#9;&#9;&#9;&#9;&#9;c-8-1-12.2-4.2-12.2-4.2s0,0,0,0c9-2.6,17.1-3.2,24.1-2.9c11.9,1,18.6,5.6,18.7,5.6c0,0,0,0,0,0&#10;&#9;&#9;&#9;&#9;&#9;C485.4,841.3,477.7,841,477.7,841z" style="fill: rgb(255, 243, 225);"/>
				<path class="st6" d="M493.7,836.4c-1.7-0.9-3.5-1.7-5.3-2.4c0,0,0,0,0,0c-3.5-1.4-7-2.4-10.5-3.1c-6.5-1.3-12.7-1.6-18-1.4&#10;&#9;&#9;&#9;&#9;&#9;c-8.3,0.3-14.1,1.7-14.3,1.7c9-2.6,17.1-3.2,24.1-2.9c15.1,0.7,24.3,6,24.3,6L493.7,836.4z" style="fill: rgb(255, 243, 225);"/>
			</g><path class="st6" d="M482.8,849.5c0.4-6-4.4-9-4.4-9.1c3.6,3.9,2.4,9.4,2.4,9.4l-16.4,3.9l-2.6-6.3c-1.8,3.2,0.8,6.2,0.8,6.2&#10;&#9;&#9;&#9;&#9;&#9;c-7.5,2.7-12.7,1.9-12.7,1.9s0,0,0,0c6.8-6.4,13.8-10.7,20.1-13.6c11-4.5,19.1-3.5,19.2-3.5c0,0,0,0,0,0&#10;&#9;&#9;&#9;&#9;&#9;C489.7,846.3,482.8,849.5,482.8,849.5z" style="fill: rgb(255, 243, 225); clip-path: url('#SVGID_2_');" transform="matrix(1, 0, 0, 1, 0, 0)"/><path class="st6" d="M494.9,838.1c-2,0-3.9,0.1-5.8,0.2c0,0,0,0,0,0c-3.7,0.4-7.3,1.1-10.7,2c-6.4,1.8-12,4.4-16.6,7&#10;&#9;&#9;&#9;&#9;&#9;c-7.3,4.1-11.8,7.9-12,8.1c6.8-6.4,13.8-10.7,20.1-13.6c13.7-6.3,24.4-5.8,24.4-5.8L494.9,838.1z" style="fill: rgb(255, 243, 225); clip-path: url('#SVGID_2_');" transform="matrix(1, 0, 0, 1, 0, 0)"/><path class="st6" d="M476.7,835.1c4.7-3.7,3.8-9.3,3.8-9.4c-0.5,5.3-5.4,8.1-5.4,8.1l-13.9-9.5l2.9-6.2&#10;&#9;&#9;&#9;&#9;&#9;c-3.6,0.8-4.1,4.7-4.1,4.7c-7.1-3.8-9.9-8.2-9.9-8.2s0,0,0,0c9.3,0.8,17.2,3.1,23.5,5.8c10.7,5.2,15.5,11.8,15.5,11.9&#10;&#9;&#9;&#9;&#9;&#9;c0,0,0,0,0,0C483.8,838,476.7,835.1,476.7,835.1z" style="fill: rgb(255, 243, 225); clip-path: url('#SVGID_2_');" transform="matrix(1, 0, 0, 1, 0, 0)"/><path class="st6" d="M493.3,836.4c-1.3-1.5-2.7-2.9-4.1-4.1c0,0,0,0,0,0c-2.8-2.5-5.7-4.7-8.7-6.6c-5.6-3.5-11.3-6-16.3-7.6&#10;&#9;&#9;&#9;&#9;&#9;c-7.9-2.7-13.8-3.4-14-3.5c9.3,0.8,17.2,3.1,23.5,5.8c13.8,6,20.7,14.2,20.7,14.2L493.3,836.4z" style="fill: rgb(255, 243, 225); clip-path: url('#SVGID_2_');" transform="matrix(1, 0, 0, 1, 0, 0)"/><path class="st6" d="M508.5,833.1c-5.2-2.9-5.2-8.6-5.2-8.7c1.4,5.2,6.6,7.1,6.6,7.1l12.2-11.7l-3.9-5.6c3.6,0.2,4.8,4,4.8,4&#10;&#9;&#9;&#9;&#9;&#9;c6.4-4.9,8.5-9.7,8.5-9.7s0,0,0,0c-9.1,2.3-16.4,5.8-22.3,9.5c-9.8,6.8-13.3,14.2-13.4,14.3c0,0,0,0,0,0&#10;&#9;&#9;&#9;&#9;&#9;C502.1,837.2,508.5,833.1,508.5,833.1z" style="fill: rgb(255, 243, 225); clip-path: url('#SVGID_2_');" transform="matrix(1, 0, 0, 1, 0, 0)"/><path class="st6" d="M492.4,837.1c1-1.7,2.2-3.2,3.3-4.7c0,0,0,0,0,0c2.3-2.9,4.9-5.6,7.5-7.9c5-4.4,10.2-7.7,14.8-10.2&#10;&#9;&#9;&#9;&#9;&#9;c7.4-3.9,13.1-5.6,13.3-5.7c-9.1,2.3-16.4,5.8-22.3,9.5c-12.7,8.1-18.1,17.4-18.1,17.4L492.4,837.1z" style="fill: rgb(255, 243, 225); clip-path: url('#SVGID_2_');" transform="matrix(1, 0, 0, 1, 0, 0)"/><path class="st6" d="M504.6,825.3c-6,0.6-9.2-4-9.2-4.1c4.1,3.4,9.5,2.1,9.5,2.1l3.3-16.5l-6.4-2.4c3.1-1.9,6.2,0.6,6.2,0.6&#10;&#9;&#9;&#9;&#9;&#9;c2.5-7.6,1.4-12.8,1.4-12.8s0,0,0,0c-6.2,7.1-10.2,14.1-12.9,20.5c-4.1,11.2-2.9,19.3-2.8,19.3c0,0,0,0,0,0&#10;&#9;&#9;&#9;&#9;&#9;C501.6,832.3,504.6,825.3,504.6,825.3z" style="fill: rgb(255, 243, 225); clip-path: url('#SVGID_2_');" transform="matrix(1, 0, 0, 1, 0, 0)"/><path class="st6" d="M493.6,837.8c-0.1-2-0.1-3.9,0-5.8c0,0,0,0,0,0c0.2-3.7,0.8-7.4,1.7-10.8c1.6-6.4,4-12.2,6.4-16.8&#10;&#9;&#9;&#9;&#9;&#9;c3.8-7.4,7.5-12.1,7.6-12.2c-6.2,7.1-10.2,14.1-12.9,20.5c-5.8,13.9-4.9,24.6-4.9,24.6L493.6,837.8z" style="fill: rgb(255, 243, 225); clip-path: url('#SVGID_2_');" transform="matrix(1, 0, 0, 1, 0, 0)"/><path class="st6" d="M509.5,840c-3-5.1-0.2-10-0.2-10.1c-1.4,5.1,2.1,9.5,2.1,9.5l16.4-4l-0.5-6.8c3,2,2.1,5.9,2.1,5.9&#10;&#9;&#9;&#9;&#9;&#9;c8-1,12.2-4.1,12.2-4.1s0,0,0,0c-9-2.6-17.1-3.3-24-3c-11.9,1-18.7,5.5-18.7,5.6c0,0,0,0,0,0C501.9,840.3,509.5,840,509.5,840z" style="fill: rgb(255, 243, 225); clip-path: url('#SVGID_2_');" transform="matrix(1, 0, 0, 1, 0, 0)"/><path class="st6" d="M493.6,835.3c1.7-0.9,3.5-1.7,5.3-2.4c0,0,0,0,0,0c3.5-1.4,7-2.4,10.5-3c6.5-1.3,12.7-1.5,18-1.3&#10;&#9;&#9;&#9;&#9;&#9;c8.3,0.3,14.1,1.7,14.3,1.8c-9-2.6-17.1-3.3-24-3c-15.1,0.6-24.4,5.9-24.4,5.9L493.6,835.3z" style="fill: rgb(255, 243, 225); clip-path: url('#SVGID_2_');" transform="matrix(1, 0, 0, 1, 0, 0)"/><path class="st6" d="M503.9,894.6c-0.1-0.1,2.1-6.7,2.2-7.5c0.5-2.6,0.7-5.3,0.7-8c0.1-9.9-1.7-19.8-5.4-29&#10;&#9;&#9;&#9;&#9;c-0.5-1.1-8-16.6-9.8-15.6c1-0.6,1.8-1,2.8-1.6c15.4,15.4,22.2,41.9,17.5,63.1C510,897.8,505.8,896.4,503.9,894.6z" style="fill: rgb(255, 243, 225); clip-path: url('#SVGID_2_');" transform="matrix(1, 0, 0, 1, 0, 0)"/><path d="M 495.500012 838.400024 A 4.8 4.8 0 0 1 490.700012 843.200025 A 4.8 4.8 0 0 1 485.900012 838.400024 A 4.8 4.8 0 0 1 490.700012 833.600024 A 4.8 4.8 0 0 1 495.500012 838.400024 Z" class="st6" style="fill: rgb(255, 243, 225); clip-path: url('#SVGID_2_');" transform="matrix(1, 0, 0, 1, 0, 0)"/><path d="M 501.699994 835.700012 A 4.8 4.8 0 0 1 496.899994 840.500012 A 4.8 4.8 0 0 1 492.099994 835.700012 A 4.8 4.8 0 0 1 496.899994 830.900012 A 4.8 4.8 0 0 1 501.699994 835.700012 Z" class="st6" style="fill: rgb(255, 243, 225); clip-path: url('#SVGID_2_');" transform="matrix(1, 0, 0, 1, 0, 0)"/><g transform="matrix(1, 0, 0, 1, 0, 0)" style="clip-path: url('#SVGID_2_');">
				<path class="st6" d="M164.8,881c0.9-5.9-3.5-9.4-3.6-9.5c3.2,4.3,1.5,9.6,1.5,9.6l-16.7,2.4l-2-6.5c-2.1,3,0.2,6.3,0.2,6.3&#10;&#9;&#9;&#9;&#9;&#9;c-7.8,2-12.9,0.7-12.9,0.7s0,0,0,0c7.4-5.8,14.7-9.4,21.2-11.7c11.4-3.5,19.4-1.8,19.5-1.8c0,0,0,0,0,0&#10;&#9;&#9;&#9;&#9;&#9;C172,878.4,164.8,881,164.8,881z" style="fill: rgb(255, 243, 225);"/>
				<path class="st6" d="M177.9,870.8c-2-0.2-3.9-0.3-5.8-0.3c0,0,0,0,0,0c-3.8,0-7.4,0.4-10.9,1.1c-6.5,1.2-12.4,3.3-17.2,5.4&#10;&#9;&#9;&#9;&#9;&#9;c-7.6,3.4-12.5,6.8-12.6,6.9c7.4-5.8,14.7-9.4,21.2-11.7c14.2-5,24.8-3.6,24.8-3.6L177.9,870.8z" style="fill: rgb(255, 243, 225);"/>
			</g><path class="st6" d="M172.6,887c-1.9-5.7-7.4-6.7-7.5-6.8c4.8,2.3,5.7,7.8,5.7,7.8l-13.7,9.8l-4.8-4.9c-0.5,3.6,3,5.5,3,5.5&#10;&#9;&#9;&#9;&#9;&#9;c-6,5.4-11.1,6.5-11.1,6.5s0,0,0,0c4-8.5,8.8-15.1,13.5-20.1c8.5-8.3,16.4-10.4,16.5-10.5c0,0,0,0,0,0&#10;&#9;&#9;&#9;&#9;&#9;C177.8,881.4,172.6,887,172.6,887z" style="fill: rgb(255, 243, 225); clip-path: url('#SVGID_2_');" transform="matrix(1, 0, 0, 1, 0, 0)"/><path class="st6" d="M179.6,871.9c-1.8,0.7-3.6,1.5-5.3,2.4c0,0,0,0,0,0c-3.3,1.7-6.4,3.8-9.2,5.9c-5.2,4-9.5,8.6-12.8,12.7&#10;&#9;&#9;&#9;&#9;&#9;c-5.2,6.5-8,11.8-8.1,12c4-8.5,8.8-15.1,13.5-20.1c10.4-10.9,20.4-14.5,20.4-14.5L179.6,871.9z" style="fill: rgb(255, 243, 225); clip-path: url('#SVGID_2_');" transform="matrix(1, 0, 0, 1, 0, 0)"/><path class="st6" d="M161.6,875.8c3-5.2,0-10,0-10.1c1.5,5.1-1.9,9.5-1.9,9.5l-16.5-3.6l0.4-6.8c-3,2.1-2,5.9-2,5.9&#10;&#9;&#9;&#9;&#9;&#9;c-8-0.8-12.3-3.9-12.3-3.9s0,0,0,0c9-2.8,17.1-3.6,24-3.4c11.9,0.8,18.8,5.2,18.8,5.2c0,0,0,0,0,0&#10;&#9;&#9;&#9;&#9;&#9;C169.3,876,161.6,875.8,161.6,875.8z" style="fill: rgb(255, 243, 225); clip-path: url('#SVGID_2_');" transform="matrix(1, 0, 0, 1, 0, 0)"/><path class="st6" d="M177.5,870.9c-1.8-0.9-3.5-1.7-5.3-2.3c0,0,0,0,0,0c-3.5-1.3-7.1-2.2-10.5-2.8c-6.5-1.2-12.7-1.3-18-1&#10;&#9;&#9;&#9;&#9;&#9;c-8.3,0.5-14.1,2-14.3,2c9-2.8,17.1-3.6,24-3.4c15.1,0.4,24.5,5.4,24.5,5.4L177.5,870.9z" style="fill: rgb(255, 243, 225); clip-path: url('#SVGID_2_');" transform="matrix(1, 0, 0, 1, 0, 0)"/><path class="st6" d="M190.3,862.1c-5.9-0.7-8.1-6-8.1-6.1c3.2,4.3,8.8,4.1,8.8,4.1l6.9-15.4l-5.7-3.8c3.5-1.2,6,1.9,6,1.9&#10;&#9;&#9;&#9;&#9;&#9;c4.1-6.9,4.2-12.2,4.2-12.2s0,0,0,0c-7.6,5.5-13.1,11.5-17.1,17.2c-6.5,10-7,18.1-7,18.2c0,0,0,0,0,0&#10;&#9;&#9;&#9;&#9;&#9;C185.9,868.3,190.3,862.1,190.3,862.1z" style="fill: rgb(255, 243, 225); clip-path: url('#SVGID_2_');" transform="matrix(1, 0, 0, 1, 0, 0)"/><path class="st6" d="M176.9,871.9c0.3-1.9,0.8-3.8,1.3-5.7c0,0,0,0,0,0c1.1-3.6,2.4-7,4-10.2c3-5.9,6.6-11,9.9-15&#10;&#9;&#9;&#9;&#9;&#9;c5.3-6.4,10-10.1,10.2-10.2c-7.6,5.5-13.1,11.5-17.1,17.2c-8.7,12.3-10.3,22.9-10.3,22.9L176.9,871.9z" style="fill: rgb(255, 243, 225); clip-path: url('#SVGID_2_');" transform="matrix(1, 0, 0, 1, 0, 0)"/><path class="st6" d="M183.8,856.4c-5.3,2.8-10-0.3-10.1-0.4c5.1,1.7,9.6-1.6,9.6-1.6l-3.1-16.6l-6.9,0.2c2.2-2.9,6-1.8,6-1.8&#10;&#9;&#9;&#9;&#9;&#9;c-0.6-8-3.5-12.4-3.5-12.4s0,0,0,0c-3.1,8.9-4.2,16.9-4.2,23.9c0.4,11.9,4.6,18.9,4.6,19c0,0,0,0,0,0&#10;&#9;&#9;&#9;&#9;&#9;C183.7,864,183.8,856.4,183.8,856.4z" style="fill: rgb(255, 243, 225); clip-path: url('#SVGID_2_');" transform="matrix(1, 0, 0, 1, 0, 0)"/><path class="st6" d="M178.3,872.1c-0.8-1.8-1.5-3.6-2.1-5.4c0,0,0,0,0,0c-1.2-3.6-2-7.1-2.5-10.6c-0.9-6.5-0.9-12.8-0.4-18&#10;&#9;&#9;&#9;&#9;&#9;c0.7-8.3,2.5-14,2.5-14.2c-3.1,8.9-4.2,16.9-4.2,23.9c-0.1,15.1,4.6,24.6,4.6,24.6L178.3,872.1z" style="fill: rgb(255, 243, 225); clip-path: url('#SVGID_2_');" transform="matrix(1, 0, 0, 1, 0, 0)"/><path class="st6" d="M193.9,868.1c-4.8-3.6-3.9-9.2-3.9-9.3c0.6,5.3,5.5,8,5.5,8l13.7-9.8l-3.1-6.1c3.6,0.7,4.2,4.7,4.2,4.7&#10;&#9;&#9;&#9;&#9;&#9;c7-3.9,9.8-8.4,9.8-8.4s0,0,0,0c-9.3,1-17.1,3.4-23.4,6.2c-10.6,5.4-15.2,12.1-15.3,12.2c0,0,0,0,0,0&#10;&#9;&#9;&#9;&#9;&#9;C186.9,871.2,193.9,868.1,193.9,868.1z" style="fill: rgb(255, 243, 225); clip-path: url('#SVGID_2_');" transform="matrix(1, 0, 0, 1, 0, 0)"/><path class="st6" d="M177.4,869.8c1.3-1.5,2.6-2.9,4-4.2c0,0,0,0,0,0c2.7-2.6,5.6-4.8,8.6-6.8c5.5-3.6,11.2-6.2,16.2-8&#10;&#9;&#9;&#9;&#9;&#9;c7.8-2.8,13.7-3.7,13.9-3.7c-9.3,1-17.1,3.4-23.4,6.2c-13.7,6.2-20.4,14.6-20.4,14.6L177.4,869.8z" style="fill: rgb(255, 243, 225); clip-path: url('#SVGID_2_');" transform="matrix(1, 0, 0, 1, 0, 0)"/><path class="st6" d="M209.1,920.9c-0.2-0.1-0.6-7-0.7-7.8c-0.5-2.6-1.3-5.2-2.3-7.7c-3.6-9.2-8.9-17.8-15.9-24.8&#10;&#9;&#9;&#9;&#9;c-0.8-0.9-13.7-12.4-14.9-10.8c0.7-1,1.3-1.6,2-2.6c20,8.5,36.2,30.5,39.9,52C215.9,921.6,211.5,921.8,209.1,920.9z" style="fill: rgb(255, 243, 225); clip-path: url('#SVGID_2_');" transform="matrix(1, 0, 0, 1, 0, 0)"/><path d="M 180.600003 873.700012 A 4.8 4.8 0 0 1 175.800003 878.500012 A 4.8 4.8 0 0 1 171.000003 873.700012 A 4.8 4.8 0 0 1 175.800003 868.900012 A 4.8 4.8 0 0 1 180.600003 873.700012 Z" class="st6" style="fill: rgb(255, 243, 225); clip-path: url('#SVGID_2_');" transform="matrix(1, 0, 0, 1, 0, 0)"/><path d="M 185.400006 868.900024 A 4.8 4.8 0 0 1 180.600006 873.700025 A 4.8 4.8 0 0 1 175.800006 868.900024 A 4.8 4.8 0 0 1 180.600006 864.100024 A 4.8 4.8 0 0 1 185.400006 868.900024 Z" class="st6" style="fill: rgb(255, 243, 225); clip-path: url('#SVGID_2_');" transform="matrix(1, 0, 0, 1, 0, 0)"/><path class="st13" d="M573.8,944.3c-68.5-65.3-137-130.5-205.5-195.8c-14.2-13.5-31.7-28.1-51-24.3c-23.1,4.5-32.6,31.6-39.6,54.1&#10;&#9;&#9;&#9;c-18.7,60.2-48.8,116.9-88.4,166H573.8z" style="fill: rgb(199, 184, 186); clip-path: url('#SVGID_2_');" transform="matrix(1, 0, 0, 1, 0, 0)"/><path class="st13" d="M867.7,944.3H557.4c47.7-47.5,87.6-96,135.3-143.5c6.6-6.6,14.2-13.6,23.5-13.8&#10;&#9;&#9;&#9;c13.3-0.3,22.4,12.8,29.5,24.1C779,863.9,812.8,914.3,867.7,944.3z" style="fill: rgb(199, 184, 186); clip-path: url('#SVGID_2_');" transform="matrix(1, 0, 0, 1, 0, 0)"/><path class="st3" d="M1035.6,1324.4c-0.9-0.4-2-0.6-3.3-0.7c-13.4-29.5-46.6-48.8-78.9-45.9c-27.8,2.5-53.2,21.3-64.8,46.6H1035.6z&#10;&#9;&#9;" style="clip-path: url('#SVGID_2_'); fill: rgb(133, 153, 178);" transform="matrix(1, 0, 0, 1, 0, 0)"/><path class="st3" d="M851.9,1326.9c-0.5-0.2-1-0.3-1.6-0.3c-6.7-14.8-23.3-24.4-39.5-22.9c-13.9,1.3-26.6,10.7-32.4,23.3H851.9z" style="clip-path: url('#SVGID_2_'); fill: rgb(133, 153, 178);" transform="matrix(1, 0, 0, 1, 0, 0)"/><g transform="matrix(1, 0, 0, 1, 0, 0)" style="clip-path: url('#SVGID_2_');">
			<path class="st12" d="M712.5,1844.4c81.2-46.6,111.6-122.7,111.6-122.7S749.5,1761,712.5,1844.4z" style="fill: rgb(161, 222, 221);"/>
			<path class="st12" d="M699.4,1908.4c94.3-49.7,136.7-131.4,136.7-131.4S749.8,1818.9,699.4,1908.4z" style="fill: rgb(161, 222, 221);"/>
			<path class="st12" d="M686.3,1972.4c107.5-52.8,161.8-140.2,161.8-140.2S750.1,1876.8,686.3,1972.4z" style="fill: rgb(161, 222, 221);"/>
			<path class="st12" d="M673.2,2036.4c120.6-55.9,186.8-148.9,186.8-148.9S750.4,1934.7,673.2,2036.4z" style="fill: rgb(161, 222, 221);"/>
			<path class="st12" d="M660,2100.4c133.7-59,211.9-157.6,211.9-157.6S750.7,1992.6,660,2100.4z" style="fill: rgb(161, 222, 221);"/>
			<path class="st12" d="M646.9,2164.5c146.8-62.2,236.9-166.3,236.9-166.3S751,2050.5,646.9,2164.5z" style="fill: rgb(161, 222, 221);"/>
		</g><path class="st12" d="M701.1,1842.3c-61.7-72.8-66.2-155.3-66.2-155.3S692.8,1750.6,701.1,1842.3z" style="fill: rgb(161, 222, 221); clip-path: url('#SVGID_2_');" transform="matrix(1, 0, 0, 1, 0, 0)"/><path class="st12" d="M693.2,1907.3c-73.1-80.4-87-172.4-87-172.4S674.1,1805,693.2,1907.3z" style="fill: rgb(161, 222, 221); clip-path: url('#SVGID_2_');" transform="matrix(1, 0, 0, 1, 0, 0)"/><path class="st12" d="M685.2,1972.2c-84.5-88-107.9-189.6-107.9-189.6S655.4,1859.4,685.2,1972.2z" style="fill: rgb(161, 222, 221); clip-path: url('#SVGID_2_');" transform="matrix(1, 0, 0, 1, 0, 0)"/><path class="st12" d="M677.3,2037.2c-95.8-95.6-128.7-206.7-128.7-206.7S636.8,1913.9,677.3,2037.2z" style="fill: rgb(161, 222, 221); clip-path: url('#SVGID_2_');" transform="matrix(1, 0, 0, 1, 0, 0)"/><path class="st12" d="M669.3,2102.1c-107.2-103.2-149.5-223.8-149.5-223.8S618.1,1968.3,669.3,2102.1z" style="fill: rgb(161, 222, 221); clip-path: url('#SVGID_2_');" transform="matrix(1, 0, 0, 1, 0, 0)"/><path class="st12" d="M661.4,2167.1c-118.6-110.8-170.4-241-170.4-241S599.5,2022.7,661.4,2167.1z" style="fill: rgb(161, 222, 221); clip-path: url('#SVGID_2_');" transform="matrix(1, 0, 0, 1, 0, 0)"/><path class="st12" d="M653.4,2232.1C523.5,2113.7,462.2,1974,462.2,1974S580.8,2077.1,653.4,2232.1z" style="fill: rgb(161, 222, 221); clip-path: url('#SVGID_2_');" transform="matrix(1, 0, 0, 1, 0, 0)"/><path class="st10" d="M722.6,1750l-5.4,37l-5.5,37l-11.1,74.1l-11.2,74l-11.4,74c-3.8,24.7-7.4,49.4-11.1,74&#10;&#9;&#9;&#9;&#9;c-3.7,24.7-7.7,49.3-12,73.9c-4.3,24.6-8.8,49.1-13.6,73.6c-4.8,24.5-9.7,48.9-15.2,73.3l-1-0.2c2.5-24.9,5.6-49.7,8.9-74.4&#10;&#9;&#9;&#9;&#9;c3.3-24.8,6.8-49.5,10.5-74.2c3.7-24.7,7.8-49.3,12.1-73.9c4.4-24.6,8.8-49.1,13.1-73.7l12.8-73.7l12.9-73.7l13.1-73.7l6.5-36.8&#10;&#9;&#9;&#9;&#9;l6.6-36.8L722.6,1750z" style="fill: rgb(133, 153, 178); clip-path: url('#SVGID_2_');" transform="matrix(1, 0, 0, 1, 0, 0)"/><path class="st12" d="M714.1,1802.1c45.1-80.2,28.8-162.3,28.8-162.3S699.4,1710.4,714.1,1802.1z" style="fill: rgb(161, 222, 221); clip-path: url('#SVGID_2_');" transform="matrix(1, 0, 0, 1, 0, 0)"/><g transform="matrix(1, 0, 0, 1, 0, 0)" style="clip-path: url('#SVGID_2_');">
			<path class="st12" d="M1624.7,1895.7c67-65.4,77.4-146.8,77.4-146.8S1639.6,1805.6,1624.7,1895.7z" style="fill: rgb(161, 222, 221);"/>
			<path class="st12" d="M1628,1960.9c78.9-71.7,99.5-161.5,99.5-161.5S1654.4,1861.6,1628,1960.9z" style="fill: rgb(161, 222, 221);"/>
			<path class="st12" d="M1631.3,2026.2c90.8-78,121.5-176.2,121.5-176.2S1669.2,1917.6,1631.3,2026.2z" style="fill: rgb(161, 222, 221);"/>
			<path class="st12" d="M1634.6,2091.4c102.8-84.3,143.6-190.9,143.6-190.9S1684,1973.6,1634.6,2091.4z" style="fill: rgb(161, 222, 221);"/>
			<path class="st12" d="M1638,2156.7c114.7-90.6,165.7-205.6,165.7-205.6S1698.8,2029.6,1638,2156.7z" style="fill: rgb(161, 222, 221);"/>
		</g><path class="st12" d="M1613.1,1896.5c-78-55-103-133.8-103-133.8S1582.1,1809.8,1613.1,1896.5z" style="fill: rgb(161, 222, 221); clip-path: url('#SVGID_2_');" transform="matrix(1, 0, 0, 1, 0, 0)"/><path class="st12" d="M1621.7,1961.4c-90.9-59.5-127.4-145.2-127.4-145.2S1577.6,1867.1,1621.7,1961.4z" style="fill: rgb(161, 222, 221); clip-path: url('#SVGID_2_');" transform="matrix(1, 0, 0, 1, 0, 0)"/><path class="st12" d="M1630.3,2026.2c-103.8-64-151.9-156.5-151.9-156.5S1573.2,1924.5,1630.3,2026.2z" style="fill: rgb(161, 222, 221); clip-path: url('#SVGID_2_');" transform="matrix(1, 0, 0, 1, 0, 0)"/><path class="st12" d="M1638.8,2091.1c-116.7-68.6-176.3-167.9-176.3-167.9S1568.7,1981.9,1638.8,2091.1z" style="fill: rgb(161, 222, 221); clip-path: url('#SVGID_2_');" transform="matrix(1, 0, 0, 1, 0, 0)"/><path class="st12" d="M1647.4,2156c-129.6-73.1-200.8-179.3-200.8-179.3S1564.3,2039.2,1647.4,2156z" style="fill: rgb(161, 222, 221); clip-path: url('#SVGID_2_');" transform="matrix(1, 0, 0, 1, 0, 0)"/><path class="st10" d="M1610.8,1801.7l4,37.2l3.9,37.2l7.8,74.5l7.7,74.5l7.5,74.5c2.5,24.8,5.2,49.6,7.8,74.5&#10;&#9;&#9;&#9;&#9;c2.6,24.8,4.9,49.7,6.9,74.5c1.9,24.9,3.7,49.7,5.2,74.7c1.5,24.9,2.8,49.8,3.6,74.8l-1.1,0.1c-3.8-24.7-7-49.5-10-74.3&#10;&#9;&#9;&#9;&#9;c-3-24.8-5.8-49.6-8.4-74.4c-2.6-24.8-4.8-49.7-6.7-74.5c-1.9-24.9-3.7-49.7-5.8-74.6l-6.1-74.6l-5.9-74.6l-5.8-74.6l-2.9-37.3&#10;&#9;&#9;&#9;&#9;l-2.8-37.3L1610.8,1801.7z" style="fill: rgb(133, 153, 178); clip-path: url('#SVGID_2_');" transform="matrix(1, 0, 0, 1, 0, 0)"/><path class="st12" d="M1615.6,1854.4c23.6-88.9-12.8-164.4-12.8-164.4S1578.5,1769.2,1615.6,1854.4z" style="fill: rgb(161, 222, 221); clip-path: url('#SVGID_2_');" transform="matrix(1, 0, 0, 1, 0, 0)"/>

</svg>