<?xml version="1.0" encoding="utf-8"?>
<svg id="master-artboard" viewBox="0 0 1400 1000" version="1.1" xmlns="http://www.w3.org/2000/svg" x="0px" y="0px" style="enable-background:new 0 0 1400 1000;" width="1400px" height="1000px" xmlns:xlink="http://www.w3.org/1999/xlink">

<defs>
		<path d="M 0 0 H 1400 V 1000 H 0 V 0 Z" id="SVGID_1_"/>
	</defs><clipPath id="SVGID_2_">
		<use style="overflow:visible;" xlink:href="#SVGID_1_"/>
	</clipPath><path d="M 0 0 H 1400 V 1000 H 0 V 0 Z" class="st0" style="clip-path: url('#SVGID_2_'); fill: rgb(90, 226, 226);" transform="matrix(1, 0, 0, 1, 2.842170943040401e-14, 7.105427357601002e-15)"/><path d="M 0 498.6000061035156 L 0 538.7000122070312 L 660 527 Z" class="st2" style="opacity: 0.23; fill: rgb(255, 255, 255); clip-path: url('#SVGID_2_');" transform="matrix(1, 0, 0, 1, 5.684341886080802e-14, 1.4210854715202004e-14)"/><path d="M 0 283.79998779296875 L 0 330.70001220703125 L 874 315 Z" class="st2" style="opacity: 0.23; fill: rgb(255, 255, 255); clip-path: url('#SVGID_2_');" transform="matrix(1, 0, 0, 1, 5.684341886080802e-14, 1.4210854715202004e-14)"/><path d="M 1400 361.6000061035156 L 840.7000122070312 413.5 L 1400 424.3999938964844 Z" class="st2" style="opacity: 0.23; fill: rgb(255, 255, 255); clip-path: url('#SVGID_2_');" transform="matrix(1, 0, 0, 1, 5.684341886080802e-14, 1.4210854715202004e-14)"/><path d="M 1400 55.400001525878906 L 638 113 L 1400 138.60000610351562 Z" class="st2" style="opacity: 0.23; fill: rgb(255, 255, 255); clip-path: url('#SVGID_2_');" transform="matrix(1, 0, 0, 1, 5.684341886080802e-14, 1.4210854715202004e-14)"/><path class="st3" d="M717.8,208c0,131.5-106.6,238.1-238.1,238.1S241.6,339.5,241.6,208c0-89.4,49.3-167.3,122.2-208h231.6&#10;&#9;&#9;&#9;C668.4,40.7,717.8,118.6,717.8,208z" style="fill: rgb(113, 231, 235); clip-path: url('#SVGID_2_');" transform="matrix(1, 0, 0, 1, 5.684341886080802e-14, 1.4210854715202004e-14)"/><path d="M 661.400009 208 A 181.699997 181.699997 0 0 1 479.700012 389.699997 A 181.699997 181.699997 0 0 1 298.000015 208 A 181.699997 181.699997 0 0 1 479.700012 26.300003 A 181.699997 181.699997 0 0 1 661.400009 208 Z" class="st4" style="fill: rgb(135, 244, 244); clip-path: url('#SVGID_2_');" transform="matrix(1, 0, 0, 1, 5.684341886080802e-14, 1.4210854715202004e-14)"/><path d="M 616.900009 208 A 137.199997 137.199997 0 0 1 479.700012 345.199997 A 137.199997 137.199997 0 0 1 342.500015 208 A 137.199997 137.199997 0 0 1 479.700012 70.800003 A 137.199997 137.199997 0 0 1 616.900009 208 Z" class="st5" style="fill: rgb(192, 255, 253); clip-path: url('#SVGID_2_');" transform="matrix(1, 0, 0, 1, 5.684341886080802e-14, 1.4210854715202004e-14)"/><path d="M 578.000015 208 A 98.300003 98.300003 0 0 1 479.700012 306.300003 A 98.300003 98.300003 0 0 1 381.400009 208 A 98.300003 98.300003 0 0 1 479.700012 109.699997 A 98.300003 98.300003 0 0 1 578.000015 208 Z" class="st6" style="fill: rgb(247, 252, 237); clip-path: url('#SVGID_2_');" transform="matrix(1, 0, 0, 1, 5.684341886080802e-14, 1.4210854715202004e-14)"/><path class="st7" d="M999.8,272.4c-6.9-18.6-24.7-31.8-45.7-31.8c-7,0-13.6,1.5-19.6,4.1C925.7,235,913,229,898.8,229&#10;&#9;&#9;c-13.5,0-25.8,5.5-34.6,14.5c-6.2-18.2-22.9-31.5-42.8-32.8c-7.3-17.7-24.7-30.2-45.1-30.2c-22.2,0-41,14.9-46.8,35.2&#10;&#9;&#9;c-5.2-2.6-11.1-4.1-17.4-4.1c-21.5,0-38.9,17.4-38.9,38.9c0,0.7,0,1.5,0.1,2.2c-5.3-2.7-11.2-4.2-17.5-4.2&#10;&#9;&#9;c-16.2,0-30.1,9.9-35.9,24H999.8z" style="clip-path: url('#SVGID_2_'); fill: rgb(247, 252, 237);" transform="matrix(1, 0, 0, 1, 2.842170943040401e-14, 7.105427357601002e-15)"/><path class="st7" d="M1321.6,218.4c-5.4-14.6-19.5-25.1-36-25.1c-5.5,0-10.7,1.2-15.4,3.2c-7-7.6-17.1-12.4-28.3-12.4&#10;&#9;&#9;c-10.7,0-20.4,4.4-27.3,11.4c-4.9-14.3-18-24.9-33.8-25.9c-5.7-14-19.5-23.9-35.5-23.9c-17.5,0-32.3,11.7-36.9,27.8&#10;&#9;&#9;c-4.1-2.1-8.8-3.2-13.7-3.2c-17,0-30.7,13.7-30.7,30.7c0,0.6,0,1.2,0.1,1.7c-4.2-2.1-8.8-3.3-13.8-3.3c-12.8,0-23.7,7.8-28.4,18.9&#10;&#9;&#9;H1321.6z" style="clip-path: url('#SVGID_2_'); fill: rgb(247, 252, 237);" transform="matrix(1, 0, 0, 1, 2.842170943040401e-14, 7.105427357601002e-15)"/><path class="st7" d="M376.1,471.2c-6.6-12.4-19.6-20.8-34.6-20.8c-6.4,0-12.4,1.5-17.7,4.3c-5-11.6-14.3-20.9-25.8-26&#10;&#9;&#9;c-2.9-23-22.5-40.7-46.3-40.7c-14,0-26.5,6.1-35,15.9c-7.2-5.5-16.1-8.7-25.9-8.7c-23.5,0-42.6,19.1-42.6,42.6c0,0.6,0,1.2,0,1.8&#10;&#9;&#9;c-5.4,2.6-10,6.6-13.2,11.5c-3.4-0.8-7-1.2-10.7-1.2c-16.8,0-31.7,8.4-40.6,21.3H376.1z" style="clip-path: url('#SVGID_2_'); fill: rgb(247, 252, 237);" transform="matrix(1, 0, 0, 1, 2.842170943040401e-14, 7.105427357601002e-15)"/><path class="st7" d="M1224.9,521.3c-5.5-10.3-16.3-17.3-28.8-17.3c-5.3,0-10.3,1.3-14.8,3.5c-4.2-9.7-11.9-17.4-21.5-21.7&#10;&#9;&#9;c-2.5-19.1-18.8-33.9-38.6-33.9c-11.6,0-22.1,5.1-29.2,13.2c-6-4.6-13.5-7.3-21.6-7.3c-19.6,0-35.5,15.9-35.5,35.5c0,0.5,0,1,0,1.5&#10;&#9;&#9;c-4.5,2.1-8.3,5.5-11,9.6c-2.9-0.6-5.8-1-8.9-1c-14,0-26.4,7-33.8,17.8H1224.9z" style="clip-path: url('#SVGID_2_'); fill: rgb(247, 252, 237);" transform="matrix(1, 0, 0, 1, 2.842170943040401e-14, 7.105427357601002e-15)"/><path class="st8" d="M1400,0v563.6c-56.8-32.9-95-94.3-95-164.6c0-42,13.6-80.8,36.7-112.2c-36.2-12.8-63.6-44.2-70.8-82.7&#10;&#9;&#9;c-9.7,1.9-19.6,2.9-29.8,2.9c-53.9,0-101.3-28.1-128.3-70.5c-18.9,9.3-40.2,14.5-62.7,14.5c-72.5,0-132.5-54-141.8-124.1&#10;&#9;&#9;c-7.9,1.3-16,2.1-24.2,2.1c-32.4,0-62.4-10.8-86.3-29H1400z" style="clip-path: url('#SVGID_2_'); fill: rgb(2, 56, 48);" transform="matrix(1, 0, 0, 1, 2.842170943040401e-14, 7.105427357601002e-15)"/><path d="M 0 574.200012 H 1400 V 1000 H 0 V 574.200012 Z" class="st9" style="clip-path: url('#SVGID_2_'); fill: rgb(5, 204, 204);" transform="matrix(1, 0, 0, 1, 2.842170943040401e-14, 7.105427357601002e-15)"/><path class="st8" d="M554.8,0c-3.1,54.1-48,97-102.8,97c-19.1,0-37-5.2-52.4-14.3c-8.1,53.8-50.5,96.4-104.2,104.8&#10;&#9;&#9;c2.3,8.1,3.6,16.7,3.6,25.5c0,50.8-41.2,92-92,92c-9,0-17.6-1.3-25.8-3.7c-18.2,23-44.7,39.2-74.9,44.1c0.5,5.1,0.7,10.3,0.7,15.5&#10;&#9;&#9;c0,68.1-40,126.8-97.8,153.9C20.5,531.9,27,552.2,27,574c0,27.3-10.2,52.1-27,71V0H554.8z" style="clip-path: url('#SVGID_2_'); fill: rgb(2, 56, 48);" transform="matrix(1, 0, 0, 1, 2.842170943040401e-14, 7.105427357601002e-15)"/><path class="st10" d="M1400,830.1V1000H0V726.3c117.7,7.5,316.5,23.1,431,48.7c170,38,306,34,446,0&#10;&#9;&#9;C994.7,746.4,1256.6,821,1400,830.1z" style="clip-path: url('#SVGID_2_'); fill: rgb(162, 249, 249);" transform="matrix(1, 0, 0, 1, 2.842170943040401e-14, 7.105427357601002e-15)"/><path class="st8" d="M71.6,678.6c0,0,2.9-90.2-14.1-117.8c0,0-32.1,88-27.3,114.7c0,0-14.4-18.5-30.3-35.3v96.9&#10;&#9;&#9;c15.8,15,65.5-6.7,65.5-6.7s64.5-92.7,63.8-106.9C129.2,623.5,74,667.5,71.6,678.6z" style="clip-path: url('#SVGID_2_'); fill: rgb(2, 56, 48);" transform="matrix(1, 0, 0, 1, 2.842170943040401e-14, 7.105427357601002e-15)"/><path class="st11" d="M1400,169c-100.5,21.5-245.1,83-251,259.3l81.7-31.8l22.7-90.8l9.1,69.6l74.1-49.9l4.5-59l18.2,62L1400,307&#10;&#9;&#9;&#9;V169z" style="fill: rgb(0, 98, 86); clip-path: url('#SVGID_2_');" transform="matrix(1, 0, 0, 1, 5.684341886080802e-14, 1.4210854715202004e-14)"/><path class="st12" d="M1400,169c-100.5,21.5-245.1,83-251,259.3c0,0,92.7-167.9,251-216.6V169z" style="opacity: 0.72; fill: rgb(2, 76, 65); clip-path: url('#SVGID_2_');" transform="matrix(1, 0, 0, 1, 5.684341886080802e-14, 1.4210854715202004e-14)"/><path class="st11" d="M279.6,243.5l-92.8-32.3l-29-100.8l-7.4,78.3l-85-53L58,69.8L40.1,140L0,120.7V0h109.3&#10;&#9;&#9;&#9;C193.3,39.1,270.5,111.1,279.6,243.5z" style="fill: rgb(0, 98, 86); clip-path: url('#SVGID_2_');" transform="matrix(1, 0, 0, 1, 5.684341886080802e-14, 1.4210854715202004e-14)"/><path class="st12" d="M279.6,243.5c0,0-106.3-177.4-279.6-229.7V0h109.3C193.3,39.1,270.5,111.1,279.6,243.5z" style="opacity: 0.72; fill: rgb(2, 76, 65); clip-path: url('#SVGID_2_');" transform="matrix(1, 0, 0, 1, 5.684341886080802e-14, 1.4210854715202004e-14)"/><path class="st11" d="M1400,0v109.6l-69.3,22.5l-7.5-71.2l-22.5,61.8L1192,162.1l-5.6-71.2l-37.5,78.7L1029,190.2&#10;&#9;&#9;&#9;C1048.2,90.4,1164.4,32.3,1267.8,0H1400z" style="fill: rgb(0, 98, 86); clip-path: url('#SVGID_2_');" transform="matrix(1, 0, 0, 1, 5.684341886080802e-14, 1.4210854715202004e-14)"/><path class="st11" d="M1400,0v109.6l-69.3,22.5l-7.5-71.2l-22.5,61.8L1192,162.1l-5.6-71.2l-37.5,78.7L1029,190.2&#10;&#9;&#9;&#9;&#9;C1048.2,90.4,1164.4,32.3,1267.8,0H1400z" style="fill: rgb(0, 98, 86); clip-path: url('#SVGID_2_');" transform="matrix(1, 0, 0, 1, 8.526512829121202e-14, 2.1316282072803006e-14)"/><path class="st12" d="M1400,0v17.2c-181,22.5-335.8,143.8-365.8,168.6c-3.4,2.8-5.2,4.4-5.2,4.4&#10;&#9;&#9;&#9;&#9;C1048.2,90.4,1164.4,32.3,1267.8,0H1400z" style="opacity: 0.72; fill: rgb(2, 76, 65); clip-path: url('#SVGID_2_');" transform="matrix(1, 0, 0, 1, 8.526512829121202e-14, 2.1316282072803006e-14)"/><path class="st11" d="M883.7,0h109.2l-9.2,41.2c-19,11.5-37.9,22.3-55.9,31.7L904,22.4l-8.5,66.4c-29.4,13.2-54.5,20.8-71,18.9&#10;&#9;&#9;&#9;C824.4,107.7,847.1,58.9,883.7,0z" style="fill: rgb(0, 98, 86); clip-path: url('#SVGID_2_');" transform="matrix(1, 0, 0, 1, 5.684341886080802e-14, 1.4210854715202004e-14)"/><path class="st11" d="M1048.8,0c-8.2,5.5-16.7,10.9-25.1,16.4L1017.1,0H1048.8z" style="fill: rgb(0, 98, 86); clip-path: url('#SVGID_2_');" transform="matrix(1, 0, 0, 1, 5.684341886080802e-14, 1.4210854715202004e-14)"/><path class="st12" d="M925.9,0c-66.8,40.4-99,102.8-101.3,107.4c1.9-4,24.1-51.1,59.2-107.4H925.9z" style="opacity: 0.72; fill: rgb(2, 76, 65); clip-path: url('#SVGID_2_');" transform="matrix(1, 0, 0, 1, 5.684341886080802e-14, 1.4210854715202004e-14)"/><path class="st11" d="M564.3,135.3c-16.2,3.6-42-1.3-72.6-11.4l-15.4-65.1l-18.4,52.7c-18.9-7.5-38.8-16.2-58.9-25.7l-26-77.6&#10;&#9;&#9;&#9;l-16.3,57.1C311,42.4,267.3,18.3,235.2,0h230.9C524.2,68.2,564.3,135.3,564.3,135.3z" style="fill: rgb(0, 98, 86); clip-path: url('#SVGID_2_');" transform="matrix(1, 0, 0, 1, 5.684341886080802e-14, 1.4210854715202004e-14)"/><path class="st12" d="M564.2,135.2c-3-4.7-68.5-105.5-188.1-117.5l-3.1-9.4l-2.5,8.9c-26.7-2-56.1,0.4-88,9.2&#10;&#9;&#9;&#9;C265.1,16.9,249.1,7.9,235.2,0h230.9C522.5,66.2,562,131.4,564.2,135.2z" style="opacity: 0.72; fill: rgb(2, 76, 65); clip-path: url('#SVGID_2_');" transform="matrix(1, 0, 0, 1, 5.684341886080802e-14, 1.4210854715202004e-14)"/><path class="st11" d="M306.6,455.6l-112.1-25.2l-23.7-69.4l-9.5,50.5L50.9,375.1L25.7,270.9L6.7,342L0,339.5V157&#10;&#9;&#9;&#9;c95.4,58.5,258.9,168,287.7,246.5L306.6,455.6L306.6,455.6z" style="fill: rgb(0, 98, 86); clip-path: url('#SVGID_2_');" transform="matrix(1, 0, 0, 1, 5.684341886080802e-14, 1.4210854715202004e-14)"/><path class="st12" d="M306.6,455.6C305.2,454,141,267.1,0,235.4V157c95.4,58.5,258.9,168,287.7,246.5L306.6,455.6z" style="opacity: 0.72; fill: rgb(2, 76, 65); clip-path: url('#SVGID_2_');" transform="matrix(1, 0, 0, 1, 5.684341886080802e-14, 1.4210854715202004e-14)"/><g transform="matrix(1, 0, 0, 1, 5.684341886080802e-14, 1.4210854715202004e-14)" style="clip-path: url('#SVGID_2_');">
			<path class="st11" d="M1154.4,371.4c0,0-24.9,2.3-59,8.4l-22.6-27.8l1.5,31.9c-18.5,3.9-38.4,8.8-57.9,14.9l-20-20.2l-0.7,27.3&#10;&#9;&#9;&#9;&#9;c-30.9,11.5-58.7,26.6-74.9,46C933.4,418,989.9,252,1154.4,371.4z" style="fill: rgb(0, 98, 86);"/>
		</g><path class="st13" d="M1072.8,352l0.3,7.1c-50.6-1-109.7,12-129.8,72.8c-8.9,6.1-16.6,12.8-22.6,20c12.6-34,69.1-199.9,233.7-80.6&#10;&#9;&#9;&#9;c0,0-34.3-10.5-75.7-12.1L1072.8,352z" style="fill: rgb(4, 76, 66); clip-path: url('#SVGID_2_');" transform="matrix(1, 0, 0, 1, 5.684341886080802e-14, 1.4210854715202004e-14)"/><path class="st13" d="M1101.7,253.6c0,0-16.8,9.5-40.2,26.4l-40.5-11.1l23.3,24c-12,9.4-25,20.3-37.8,32.4l-31.5-8.7l14.4,25.8&#10;&#9;&#9;&#9;c-26.9,28.6-50.9,62.6-61.4,99.8C928,442.2,892.9,196.5,1101.7,253.6z" style="fill: rgb(4, 76, 66); clip-path: url('#SVGID_2_');" transform="matrix(1, 0, 0, 1, 5.684341886080802e-14, 1.4210854715202004e-14)"/><path class="st14" d="M941.8,407.9c-5.7,11.1-10.4,22.5-13.7,34.3c0,0-35.1-245.7,173.7-188.6&#10;&#9;&#9;&#9;C1101.7,253.6,923.5,238.6,941.8,407.9z" style="fill: rgb(2, 56, 48); clip-path: url('#SVGID_2_');" transform="matrix(1, 0, 0, 1, 5.684341886080802e-14, 1.4210854715202004e-14)"/><path class="st11" d="M897.4,360.5l-29,4.1c-9.2-11.1-20-21.5-32.8-30.1l11.7-16.7l-28.4,7.3c-11-5.2-23.1-9-36.5-10.8&#10;&#9;&#9;&#9;c0,0,116.1-38.7,141.7,34.3c25.7,73-11.5,105.4-11.5,105.4s-8.6-38.1-33.4-74.7L897.4,360.5z" style="fill: rgb(0, 98, 86); clip-path: url('#SVGID_2_');" transform="matrix(1, 0, 0, 1, 5.684341886080802e-14, 1.4210854715202004e-14)"/><path class="st13" d="M924.2,348.6c25.7,73-11.5,105.4-11.5,105.4s-0.3-1.4-1-3.8c0.5-5.5,1.1-11.5,2-18&#10;&#9;&#9;&#9;C934,280,782.5,314.3,782.5,314.3S898.5,275.6,924.2,348.6z" style="fill: rgb(4, 76, 66); clip-path: url('#SVGID_2_');" transform="matrix(1, 0, 0, 1, 5.684341886080802e-14, 1.4210854715202004e-14)"/><path class="st14" d="M1225,832.3c0,0-256.2-71.2-303.1-399.5l-17.4,9.6c0,0,28.4,430.1,267.3,497.8L1225,832.3z" style="fill: rgb(2, 56, 48); clip-path: url('#SVGID_2_');" transform="matrix(1, 0, 0, 1, 5.684341886080802e-14, 1.4210854715202004e-14)"/><path class="st13" d="M918.6,452.3c0,0-32.8-109.5-120-72.5S717,486.9,717,486.9l50.1-25.2l12.8-38.8l6,24.6l35.2-4.5l18.6-29.5&#10;&#9;&#9;&#9;l-2.5,30.8L918.6,452.3z" style="fill: rgb(4, 76, 66); clip-path: url('#SVGID_2_');" transform="matrix(1, 0, 0, 1, 5.684341886080802e-14, 1.4210854715202004e-14)"/><path class="st11" d="M922.2,452.4c0,0-25,7-35.9,40.3l-30.4,1.6l23.4,6.8l-3.8,18.3l-32,8.2l30.3,16.8c0,0,9,60.6,15.9,69.1&#10;&#9;&#9;&#9;c0,0-69-28.1-78.8-87.2C801.1,467,879.8,439,922.2,452.4z" style="fill: rgb(0, 98, 86); clip-path: url('#SVGID_2_');" transform="matrix(1, 0, 0, 1, 5.684341886080802e-14, 1.4210854715202004e-14)"/><path class="st11" d="M918.6,452.1c0,0,22-8.2,50.2,12l22.5-15.5l-12.4,18.2l14,12.3l27.6-11.1l-11.1,29.9&#10;&#9;&#9;&#9;c0,0,30.8,52.7,31.2,63.2c0,0,31.6-60.1,2.2-112.1C1013.3,397.1,940.3,418.2,918.6,452.1z" style="fill: rgb(0, 98, 86); clip-path: url('#SVGID_2_');" transform="matrix(1, 0, 0, 1, 5.684341886080802e-14, 1.4210854715202004e-14)"/><path class="st15" d="M939.1,448.9c-0.1,6.1-1.8,11.8-4.9,16.6c-10.7-3.6-18.5-13.8-18.3-25.7c0.1-7.2,3-13.7,7.6-18.5&#10;&#9;&#9;&#9;C932.9,426.9,939.2,437.1,939.1,448.9z" style="fill: rgb(1, 33, 28); clip-path: url('#SVGID_2_');" transform="matrix(1, 0, 0, 1, 5.684341886080802e-14, 1.4210854715202004e-14)"/><path class="st15" d="M928.4,471.3L914.9,483c0,0,58.3,389.2,260.4,399l-3.5,58.3c-206.1-58.5-255.5-386.6-265.2-475.6l21.7,5.6&#10;&#9;&#9;&#9;C928.2,470.6,928.3,470.9,928.4,471.3z" style="fill: rgb(1, 33, 28); clip-path: url('#SVGID_2_');" transform="matrix(1, 0, 0, 1, 5.684341886080802e-14, 1.4210854715202004e-14)"/><path class="st13" d="M810.9,526.2c-7.7-46.4,39.1-73.6,80.1-76.7c-24.3,15.2-107.9,77.7-1.3,163.9&#10;&#9;&#9;&#9;C889.7,613.3,820.6,585.3,810.9,526.2z" style="fill: rgb(4, 76, 66); clip-path: url('#SVGID_2_');" transform="matrix(1, 0, 0, 1, 5.684341886080802e-14, 1.4210854715202004e-14)"/><path class="st14" d="M798.6,379.8c53.7-22.8,86.8,10,104.2,38.5C775.5,331,717,486.9,717,486.9S711.4,416.8,798.6,379.8z" style="fill: rgb(2, 56, 48); clip-path: url('#SVGID_2_');" transform="matrix(1, 0, 0, 1, 5.684341886080802e-14, 1.4210854715202004e-14)"/><path class="st13" d="M927.6,443.3c-1,0.4-2,0.7-3,1c26.9-29.1,91-43.3,118.1,4.7c29.4,52-2.2,112.1-2.2,112.1&#10;&#9;&#9;&#9;S1064.7,395.8,927.6,443.3z" style="fill: rgb(4, 76, 66); clip-path: url('#SVGID_2_');" transform="matrix(1, 0, 0, 1, 5.684341886080802e-14, 1.4210854715202004e-14)"/><path d="M 964.799999 442 A 26.799999 26.799999 0 0 1 938 468.799999 A 26.799999 26.799999 0 0 1 911.200001 442 A 26.799999 26.799999 0 0 1 938 415.200001 A 26.799999 26.799999 0 0 1 964.799999 442 Z" class="st14" style="fill: rgb(2, 56, 48); clip-path: url('#SVGID_2_');" transform="matrix(1, 0, 0, 1, 8.526512829121202e-14, 2.1316282072803006e-14)"/><path class="st15" d="M935.6,415.3c-7.8,4.6-13,13.1-13.1,22.8c-0.1,14.8,11.8,26.9,26.6,27.1c0.9,0,1.7,0,2.6-0.1&#10;&#9;&#9;&#9;&#9;c-4.1,2.5-8.9,3.8-14,3.8c-14.8-0.1-26.7-12.2-26.6-27.1C911.3,427.8,922,416.5,935.6,415.3z" style="fill: rgb(1, 33, 28); clip-path: url('#SVGID_2_');" transform="matrix(1, 0, 0, 1, 8.526512829121202e-14, 2.1316282072803006e-14)"/><path d="M 929.500011 450.600006 A 26.799999 26.799999 0 0 1 902.700012 477.400005 A 26.799999 26.799999 0 0 1 875.900013 450.600006 A 26.799999 26.799999 0 0 1 902.700012 423.800007 A 26.799999 26.799999 0 0 1 929.500011 450.600006 Z" class="st14" style="fill: rgb(2, 56, 48); clip-path: url('#SVGID_2_');" transform="matrix(1, 0, 0, 1, 8.526512829121202e-14, 2.1316282072803006e-14)"/><path class="st15" d="M900.4,423.9c-7.8,4.6-13,13.1-13.1,22.8c-0.1,14.8,11.8,26.9,26.6,27.1c0.9,0,1.7,0,2.6-0.1&#10;&#9;&#9;&#9;&#9;c-4.1,2.5-8.9,3.8-14,3.8c-14.8-0.1-26.7-12.2-26.6-27.1C876,436.4,886.7,425,900.4,423.9z" style="fill: rgb(1, 33, 28); clip-path: url('#SVGID_2_');" transform="matrix(1, 0, 0, 1, 8.526512829121202e-14, 2.1316282072803006e-14)"/><path d="M 943.200024 420.200012 A 26.799999 26.799999 0 0 1 916.400024 447.000011 A 26.799999 26.799999 0 0 1 889.600025 420.200012 A 26.799999 26.799999 0 0 1 916.400024 393.400013 A 26.799999 26.799999 0 0 1 943.200024 420.200012 Z" class="st14" style="fill: rgb(2, 56, 48); clip-path: url('#SVGID_2_');" transform="matrix(1, 0, 0, 1, 8.526512829121202e-14, 2.1316282072803006e-14)"/><path class="st15" d="M914,393.5c-7.8,4.6-13,13.1-13.1,22.8c-0.1,14.8,11.8,26.9,26.6,27.1c0.9,0,1.7,0,2.6-0.1&#10;&#9;&#9;&#9;&#9;c-4.1,2.5-8.9,3.8-14,3.8c-14.8-0.1-26.7-12.2-26.6-27.1C889.7,406,900.4,394.7,914,393.5z" style="fill: rgb(1, 33, 28); clip-path: url('#SVGID_2_');" transform="matrix(1, 0, 0, 1, 8.526512829121202e-14, 2.1316282072803006e-14)"/><path class="st8" d="M1400,646.3c-1.1-4.7-1.7-7.2-1.7-7.2s-62.9,104.8-74.2,154.5c4.1-43.1,12.3-164.1-17.7-211.9&#10;&#9;&#9;c0,0-24.2,155-18.8,202.6c-3-21.4-23.9-153-90.9-210.1h-0.6c0.6,10.2,11.1,171.7,44.4,211.5c-12-13.5-95.5-105.2-159.3-120.1&#10;&#9;&#9;c0,0,24.4,112.6,113.7,150.5c9.4,4-43.9,17.9-107.7,32.5c-138,31.6-280.7,37-420.6,15.8c-86.1-13.1-144.5-25.9-185.6-25.9&#10;&#9;&#9;c0,0,53.4-50,56.9-82.1l-81.5,60.9c0,0,27.6-112.6,23-139c0,0-112.6,114.9-116,152.8c0,0-2.3-56.3-16.1-77l-8,50.5&#10;&#9;&#9;c0,0-18.4-11.5-62-27.6c-43.6-16.1-47.2-13.8-61-29.9c0,0,41.8-24.1,49.5-34.5c0,0-34.5,1.7-52.5,14.6c0,0,8.8-31.5,5.3-48.7&#10;&#9;&#9;c0,0-40.1,17.1-34.7,46.4c-0.6-3-4-17.9-17.1-28.7l-4.3,34.9c0,0-5.2-29.7-69.8-26.3c-28.3,1.5-61,7.8-92.7,11.4V1000h1400V646.3z" style="clip-path: url('#SVGID_2_'); fill: rgb(2, 56, 48);" transform="matrix(1, 0, 0, 1, 2.842170943040401e-14, 7.105427357601002e-15)"/><path class="st11" d="M532.9,1117.1c0,3.5,2.6,6.4,6.1,6.8c8.6,1,25.5,2.8,44,3.9c-14.6,21.3-33.3,36.4-54.4,39.6&#10;&#9;&#9;&#9;c-21.7,3.2-39.1-13-50.5-28.9c-2.3-3.2-4.4-6.5-6.2-9.5c-2.6,1.6-5.5,3.2-8.5,4.8c-17.7,9.2-41.4,16.3-59.6,3&#10;&#9;&#9;&#9;c-19.8-14.4-29.5-41.5-30.8-72.1c21,13.7,44.4,19.1,55.1,21c3.3,0.6,6.4-1.6,7-4.9c0.5-3-1.3-6-4.3-6.9c-27.4-7.7-45.6-17-57.7-26&#10;&#9;&#9;&#9;c0.8-17.6,4.1-35.8,9.6-53c19.2,25.1,40.4,40.9,48.9,46.7c2.2,1.5,5.1,1.1,6.8-0.9c2-2.3,1.5-5.8-1-7.5&#10;&#9;&#9;&#9;c-22-14.7-38.3-35.6-49.3-53.2c5.1-12.6,11.3-24.4,18.6-34.7c12.6,33.9,34.9,52.1,44.1,58.5c0.6,0.4,1.3,0.7,2,0.9&#10;&#9;&#9;&#9;c1.9,0.5,4,0,5.6-1.4c2.7-2.4,2.9-6.5,0.3-9.1c-13.8-13.6-27.4-43.5-36.6-66.8c8.6-8,18.1-14.1,28.5-17.4c4-1.3,7.9-2.7,11.7-4.1&#10;&#9;&#9;&#9;c5.4,29,29,45.3,37.5,50.3c1.8,1.1,4,0.7,5.5-0.8c1.7-1.9,1.5-4.8-0.5-6.4c-16.1-13-20.4-35.8-21.3-52&#10;&#9;&#9;&#9;c31.9-14.9,53.2-31.3,53.2-31.3c0,0,19.5,42.2,55.8,79.2c0.1,0.1,0.3,0.3,0.4,0.4c-13.2,11.8-28.6,21.3-44,21.5&#10;&#9;&#9;&#9;c-3.3,0-6,2.3-6.7,5.3c-0.2,0.7-0.2,1.5-0.2,2.3c0.4,4.2,4.3,7.1,8.4,6.2c11-2.4,32-8.4,52.1-22.6c3.5,5.9,6.3,12.5,8.5,19.5&#10;&#9;&#9;&#9;c-19.3,14.8-44.4,30.9-68.5,37.1c-3.3,0.8-5.2,4.2-4.3,7.5c0.9,3.3,4.4,5.3,7.7,4.3c12.4-3.8,41.6-13.8,69-31.5&#10;&#9;&#9;&#9;c2.5,16.6,2,34.7-0.9,52.9c-24.8,4.4-56.7,8.5-82.8,6.7c-4.8-0.3-8.8,3.7-8.5,8.5c0.3,4,3.5,7.2,7.6,7.4&#10;&#9;&#9;&#9;c14.3,0.7,47.9,1.9,78.7,0.4c-3.9,14.2-9.2,27.9-15.7,40.4c-17.4,1.2-36.2,1.5-52.3-0.7C536.5,1109.7,532.8,1112.9,532.9,1117.1z" style="fill: rgb(0, 98, 86); clip-path: url('#SVGID_2_');" transform="matrix(1, 0, 0, 1, 5.684341886080802e-14, 1.4210854715202004e-14)"/><path class="st11" d="M434.6,1081.7c0.1-0.3,0.2-0.7,0.3-1c0.5-3-1.3-6-4.3-6.9c-16.9-4.8-30.4-10.1-41-15.7&#10;&#9;&#9;&#9;c-1.9-10.9,3.3-25.3,12.6-41.1c12.5,12.3,23.6,20.5,29.2,24.4c2.2,1.5,5.1,1.1,6.8-0.9c2-2.3,1.5-5.8-1-7.5&#10;&#9;&#9;&#9;c-11-7.4-20.6-16.3-28.8-25.6c5.6-8.4,12.1-17,19.1-25.6c9.2,11.2,18.2,18.3,23.2,21.8c0.6,0.4,1.3,0.7,2,0.9c1.9,0.5,4,0,5.6-1.4&#10;&#9;&#9;&#9;c2.7-2.4,2.9-6.5,0.3-9.1c-6.4-6.3-12.7-16-18.6-27c11-12.4,22.5-24.4,33.3-35.1c9.1,13,20.8,20.9,26.4,24.1&#10;&#9;&#9;&#9;c1.8,1.1,4,0.7,5.5-0.8c1.7-1.9,1.5-4.8-0.5-6.4c-9.5-7.7-14.9-18.8-17.9-29.9c18.2-17.3,31.7-28.6,31.9-28&#10;&#9;&#9;&#9;C555.1,1018.6,487.6,1079.4,434.6,1081.7z" style="fill: rgb(0, 98, 86); clip-path: url('#SVGID_2_');" transform="matrix(1, 0, 0, 1, 5.684341886080802e-14, 1.4210854715202004e-14)"/><path class="st16" d="M434.6,1081.7c-14.2,0.6-27.4-3-37.2-10.6c-4.4-3.4-6.9-7.8-7.8-12.9c-1.9-10.9,3.3-25.3,12.6-41.1&#10;&#9;&#9;&#9;c12.5,12.3,23.6,20.5,29.2,24.4c2.2,1.5,5.1,1.1,6.8-0.9c2-2.3,1.5-5.8-1-7.5c-11-7.4-20.6-16.3-28.8-25.6&#10;&#9;&#9;&#9;c5.6-8.4,12.1-17,19.1-25.6c9.2,11.2,18.2,18.3,23.2,21.8c0.6,0.4,1.3,0.7,2,0.9c1.9,0.5,4,0,5.6-1.4c2.7-2.4,2.9-6.5,0.3-9.1&#10;&#9;&#9;&#9;c-6.4-6.3-12.7-16-18.6-27c11-12.4,22.5-24.4,33.3-35.1c9.1,13,20.8,20.9,26.4,24.1c1.8,1.1,4,0.7,5.5-0.8&#10;&#9;&#9;&#9;c1.7-1.9,1.5-4.8-0.5-6.4c-9.5-7.7-14.9-18.8-17.9-29.9c18.2-17.3,31.7-28.6,31.9-28C555.1,1018.6,487.6,1079.4,434.6,1081.7z" style="opacity: 0.33; fill: rgb(2, 76, 65); clip-path: url('#SVGID_2_');" transform="matrix(1, 0, 0, 1, 5.684341886080802e-14, 1.4210854715202004e-14)"/><path class="st12" d="M372.8,1064.5c1.4,30.6,11,57.7,30.8,72.1c18.3,13.3,42,6.2,59.6-3c3-1.6,5.9-3.2,8.5-4.8&#10;&#9;&#9;&#9;c1.8,3,3.9,6.3,6.2,9.5c11.4,15.9,28.8,32.2,50.5,28.9c21.1-3.1,39.7-18.3,54.4-39.6c-18.5-1.1-35.3-2.9-44-3.9&#10;&#9;&#9;&#9;c-3.5-0.4-6.1-3.3-6.1-6.8c0-4.2,3.7-7.4,7.8-6.8c16.1,2.2,34.9,1.9,52.3,0.7c6.5-12.5,11.8-26.2,15.7-40.4&#10;&#9;&#9;&#9;c-30.8,1.5-64.4,0.2-78.7-0.4c-4-0.2-7.3-3.4-7.6-7.4c-0.3-4.8,3.7-8.8,8.5-8.5c26,1.8,58-2.3,82.8-6.7&#10;&#9;&#9;&#9;c2.9-18.2,3.3-36.3,0.9-52.9c-27.4,17.7-56.6,27.7-69,31.5c-3.3,1-6.8-0.9-7.7-4.3c-0.9-3.3,1.1-6.6,4.3-7.5&#10;&#9;&#9;&#9;c24.1-6.3,49.1-22.3,68.5-37.1c-2.2-7-5-13.6-8.5-19.5C582,972,561,978,550.1,980.4c-4.1,0.9-8-2-8.4-6.2c-0.1-0.8,0-1.6,0.2-2.3&#10;&#9;&#9;&#9;c0.7-3,3.4-5.3,6.7-5.3c15.5-0.1,30.8-9.6,44-21.5c-0.1-0.1-0.3-0.3-0.4-0.4c-36.3-37-55.8-79.3-55.8-79.2&#10;&#9;&#9;&#9;C536.4,865.5,560,1205.6,372.8,1064.5z" style="opacity: 0.72; fill: rgb(2, 76, 65); clip-path: url('#SVGID_2_');" transform="matrix(1, 0, 0, 1, 5.684341886080802e-14, 1.4210854715202004e-14)"/><path class="st17" d="M478,1138.4c-2.3-3.2-4.4-6.5-6.2-9.5c-2.6,1.6-5.5,3.2-8.5,4.8c7.8-28.8,70.2-261,71.8-255.9&#10;&#9;&#9;&#9;C536.6,882.7,486.1,1103,478,1138.4z" style="fill: rgb(12, 150, 130); clip-path: url('#SVGID_2_');" transform="matrix(1, 0, 0, 1, 5.684341886080802e-14, 1.4210854715202004e-14)"/><path class="st17" d="M505.4,990.2c0,0-9.8-3.7-56.1-58.3c0,0,39.2,55.3,53.3,63.2L505.4,990.2z" style="fill: rgb(12, 150, 130); clip-path: url('#SVGID_2_');" transform="matrix(1, 0, 0, 1, 5.684341886080802e-14, 1.4210854715202004e-14)"/><path class="st17" d="M505.3,1000.7c0,0,28.2,0.2,73-15.1c0,0-50.1,21.6-74.8,22.4L505.3,1000.7z" style="fill: rgb(12, 150, 130); clip-path: url('#SVGID_2_');" transform="matrix(1, 0, 0, 1, 5.684341886080802e-14, 1.4210854715202004e-14)"/><path class="st17" d="M495.6,1036.6c0,0-41-3.6-77.4-51.5c0,0,23.3,44.9,75.7,58.2L495.6,1036.6z" style="fill: rgb(12, 150, 130); clip-path: url('#SVGID_2_');" transform="matrix(1, 0, 0, 1, 5.684341886080802e-14, 1.4210854715202004e-14)"/><g transform="matrix(1, 0, 0, 1, 5.684341886080802e-14, 1.4210854715202004e-14)" style="clip-path: url('#SVGID_2_');">
			<path class="st11" d="M-59.1,722.5c3.4,15.2,5.5,65.2,5.5,65.2s29.9-99.5,40.5-101.4S-6,738-6,738s58.1-97.3,65.7-90.4&#10;&#9;&#9;&#9;&#9;s-13.8,58.9-13.8,58.9S137,634.7,146,647c9,12.3-83,101.2-83,101.2s58.2-30.8,65.7-13c7.5,17.7-88.9,56.4-88.9,56.4&#10;&#9;&#9;&#9;&#9;s51-10.8,51.7,3.7S7.2,829.4,7.2,829.4s44.8,4.1,45.3,13.8c0.5,9.7-162.5,41.2-162.5,41.2S-62.5,707.2-59.1,722.5z" style="fill: rgb(0, 98, 86);"/>
			<path class="st12" d="M-110,884.4c0,0,162.9-31.5,162.5-41.2c-0.5-9.7-45.3-13.8-45.3-13.8s84.9-19.6,84.3-34.1&#10;&#9;&#9;&#9;&#9;c-0.7-14.5-51.7-3.7-51.7-3.7s96.4-38.7,88.9-56.4c-7.5-17.7-65.7,13-65.7,13s92-88.9,83-101.2c-0.3-0.4-0.7-0.8-1.2-1&#10;&#9;&#9;&#9;&#9;c-22.9,25.4-155,167.2-229.6,148.2C-97.5,837.7-110,884.4-110,884.4z" style="opacity: 0.72; fill: rgb(2, 76, 65);"/>
			<path class="st17" d="M-127.7,899.1c0,0,253.6-235.4,254.3-233.7s-248.8,239.2-248.8,239.2L-127.7,899.1z" style="fill: rgb(12, 150, 130);"/>
			<path class="st17" d="M-21.7,800.7c0,0,8.4-76.2,5.9-76.9S-28,805.7-28,805.7L-21.7,800.7z" style="fill: rgb(12, 150, 130);"/>
			<path class="st17" d="M-72.6,850.5c0,0,9.3-71.8,7.6-71.8s-14.2,77.4-14.2,77.4l12.7-10.6" style="fill: rgb(12, 150, 130);"/>
			<path class="st17" d="M-65.8,848.1c0,0,64.2-7.3,65.2-4.1s-73.2,10.9-73.2,10.9L-65.8,848.1z" style="fill: rgb(12, 150, 130);"/>
			<path class="st17" d="M-21.8,805.8c0,0,66.2-5.3,66.8-2.3c0.6,3-70.2,8.7-70.2,8.7L-21.8,805.8z" style="fill: rgb(12, 150, 130);"/>
		</g><path class="st17" d="M21.6,762c0,0,22.1-71.5,21.4-73.8c-0.7-2.3-28,78.6-28,78.6L21.6,762z" style="fill: rgb(12, 150, 130); clip-path: url('#SVGID_2_');" transform="matrix(1, 0, 0, 1, 5.684341886080802e-14, 1.4210854715202004e-14)"/><path class="st17" d="M21.4,762c0,0,69.7-8.8,70.2-5.7c0.6,3-75.5,13.6-75.5,13.6L21.4,762z" style="fill: rgb(12, 150, 130); clip-path: url('#SVGID_2_');" transform="matrix(1, 0, 0, 1, 5.684341886080802e-14, 1.4210854715202004e-14)"/><g transform="matrix(1, 0, 0, 1, 5.684341886080802e-14, 1.4210854715202004e-14)" style="clip-path: url('#SVGID_2_');">
			<path class="st11" d="M1313.8,727.2c18.2,3.9,73.6,26.4,73.6,26.4s-93.3-81.8-90.1-94.3c3.2-12.5,59.7,18,59.7,18&#10;&#9;&#9;&#9;&#9;s-77-111.4-65.7-116.2c11.3-4.8,57.1,44.2,57.1,44.2s-32.8-134.6-15-138.2s68.8,140.3,68.8,140.3s-4.6-78.5,18.4-77.8&#10;&#9;&#9;&#9;&#9;s17.2,124.5,17.2,124.5s13.6-60.8,29.7-54.3c16.1,6.5-4.7,108.4-4.7,108.4s26.7-46.6,37.4-42.3c10.7,4.3-35.7,197-35.7,197&#10;&#9;&#9;&#9;&#9;S1295.5,723.4,1313.8,727.2z" style="fill: rgb(0, 98, 86);"/>
			<path class="st12" d="M1464.5,862.8c0,0,46.5-192.7,35.7-197c-10.7-4.3-37.4,42.3-37.4,42.3s20.8-102,4.7-108.4&#10;&#9;&#9;&#9;&#9;c-16.1-6.5-29.7,54.3-29.7,54.3s5.8-123.9-17.2-124.5c-23-0.6-18.4,77.8-18.4,77.8s-51-144-68.8-140.3c-0.6,0.1-1.2,0.4-1.7,0.9&#10;&#9;&#9;&#9;&#9;c16.2,37.5,104.8,251.3,47.3,322.8C1419.9,826,1464.5,862.8,1464.5,862.8z" style="opacity: 0.72; fill: rgb(2, 76, 65);"/>
			<path class="st17" d="M1471.6,889.4c0,0-130-392.1-127.9-392.1s136.5,388.8,136.5,388.8L1471.6,889.4z" style="fill: rgb(12, 150, 130);"/>
			<path class="st17" d="M1417.3,725.4c0,0-78.6-46.9-80.6-44.5c-2,2.4,82.9,53.9,82.9,53.9L1417.3,725.4z" style="fill: rgb(12, 150, 130);"/>
			<path class="st17" d="M1446.1,805.4c0,0-73.4-45.6-74.3-43.8c-0.9,1.8,77.1,53.8,77.1,53.8l-5.2-19" style="fill: rgb(12, 150, 130);"/>
			<path class="st17" d="M1446.9,796.8c0,0,23.9-73.3,27.9-72.9c3.9,0.5-24.4,84.9-24.4,84.9L1446.9,796.8z" style="fill: rgb(12, 150, 130);"/>
			<path class="st17" d="M1422.7,728c0,0,27.1-74.5,30.6-73.6s-25.3,80.6-25.3,80.6L1422.7,728z" style="fill: rgb(12, 150, 130);"/>
		</g><path class="st17" d="M1396.7,659.2c0,0-66.7-59.4-69.5-59.8c-2.8-0.4,71.5,69.4,71.5,69.4L1396.7,659.2z" style="fill: rgb(12, 150, 130); clip-path: url('#SVGID_2_');" transform="matrix(1, 0, 0, 1, 5.684341886080802e-14, 1.4210854715202004e-14)"/><path class="st17" d="M1396.6,659.4c0,0,25-80,28.6-79.2s-22.6,88.8-22.6,88.8L1396.6,659.4z" style="fill: rgb(12, 150, 130); clip-path: url('#SVGID_2_');" transform="matrix(1, 0, 0, 1, 5.684341886080802e-14, 1.4210854715202004e-14)"/><g transform="matrix(1, 0, 0, 1, 5.684341886080802e-14, 1.4210854715202004e-14)" style="clip-path: url('#SVGID_2_');">
			<path class="st11" d="M824.5,4.1c-8.2-12.7-27.1-57.3-27.1-57.3s6.6,100.4-2.4,105.8c-9,5.4-24-44.6-24-44.6s-19.7,108-29,104.3&#10;&#9;&#9;&#9;&#9;c-9.2-3.7-7.4-58.1-7.4-58.1s-58.4,96-70.7,87.9c-12.3-8.1,41-119.9,41-119.9s-42.4,47.6-55.2,34.1&#10;&#9;&#9;&#9;&#9;c-12.8-13.5,61.6-81.3,61.6-81.3S668.8,2,663.3-11c-5.5-12.9,64.9-59.5,64.9-59.5s-42.1,11.4-45.8,2.8&#10;&#9;&#9;&#9;&#9;c-3.7-8.6,133.5-92.5,133.5-92.5S832.8,16.8,824.5,4.1z" style="fill: rgb(0, 98, 86);"/>
			<path class="st12" d="M815.9-160.1c0,0-137.2,83.8-133.5,92.5c3.7,8.6,45.8-2.8,45.8-2.8S657.7-23.9,663.3-11&#10;&#9;&#9;&#9;&#9;c5.5,12.9,48.2-14.1,48.2-14.1S637,42.6,649.9,56.2c12.8,13.5,55.2-34.1,55.2-34.1S651.7,133.9,664,142c0.4,0.3,0.9,0.4,1.5,0.5&#10;&#9;&#9;&#9;&#9;c12.2-30.8,84-204.3,158.1-212.3C820.3-113.4,815.9-160.1,815.9-160.1z" style="opacity: 0.72; fill: rgb(2, 76, 65);"/>
			<path class="st17" d="M827-179.4c0,0-150.3,299.5-151.5,298.2s144.7-301.3,144.7-301.3L827-179.4z" style="fill: rgb(12, 150, 130);"/>
			<path class="st17" d="M764.1-54.2c0,0,18.2,72,20.7,71.8s-16.7-78.5-16.7-78.5L764.1-54.2z" style="fill: rgb(12, 150, 130);"/>
			<path class="st17" d="M793.4-116.6c0,0,15.9,68.3,17.5,67.7s-13.4-75-13.4-75l-7.9,13.9" style="fill: rgb(12, 150, 130);"/>
			<path class="st17" d="M788.1-112.1c0,0-55.8,28.3-57.8,25.8c-2-2.5,62.7-34.7,62.7-34.7L788.1-112.1z" style="fill: rgb(12, 150, 130);"/>
			<path class="st17" d="M762.5-58.8c0,0-58.2,27.2-59.8,24.7c-1.6-2.5,60.7-31.7,60.7-31.7L762.5-58.8z" style="fill: rgb(12, 150, 130);"/>
		</g><path class="st17" d="M738-4.5c0,0,4.2,72.3,5.6,74.2c1.4,1.8-1.2-80.8-1.2-80.8L738-4.5z" style="fill: rgb(12, 150, 130); clip-path: url('#SVGID_2_');" transform="matrix(1, 0, 0, 1, 5.684341886080802e-14, 1.4210854715202004e-14)"/><path class="st17" d="M738.1-4.5c0,0-60.2,31.5-61.8,29s63.9-38,63.9-38L738.1-4.5z" style="fill: rgb(12, 150, 130); clip-path: url('#SVGID_2_');" transform="matrix(1, 0, 0, 1, 5.684341886080802e-14, 1.4210854715202004e-14)"/><g transform="matrix(1, 0, 0, 1, 5.684341886080802e-14, 1.4210854715202004e-14)" style="clip-path: url('#SVGID_2_');">
			<path class="st11" d="M591.7,1071.2c17.5,6.4,69.1,36.4,69.1,36.4s-80.9-94.1-76-106s56.6,26.2,56.6,26.2s-60.6-121.1-48.7-124.3&#10;&#9;&#9;&#9;&#9;c11.8-3.2,50.4,51.8,50.4,51.8s-13.6-137.9,4.6-139c18.1-1.1,48.4,148.6,48.4,148.6s6.5-78.3,29.2-74.5&#10;&#9;&#9;&#9;&#9;c22.7,3.8-0.5,125.7-0.5,125.7s22-58.2,37-49.6c15,8.7-19.9,106.7-19.9,106.7s33-42.4,43-36.7c10,5.8-63.1,190-63.1,190&#10;&#9;&#9;&#9;&#9;S574.2,1064.8,591.7,1071.2z" style="fill: rgb(0, 98, 86);"/>
			<path class="st12" d="M721.8,1226.6c0,0,73.1-184.2,63.1-190c-10-5.8-43,36.7-43,36.7s34.9-98,19.9-106.7s-37,49.6-37,49.6&#10;&#9;&#9;&#9;&#9;s23.1-121.9,0.5-125.7c-22.7-3.8-29.2,74.5-29.2,74.5s-30.3-149.7-48.4-148.6c-0.6,0-1.2,0.2-1.8,0.6&#10;&#9;&#9;&#9;&#9;c10.8,39.4,68.5,263.5,1.4,326.3C682.9,1183.9,721.8,1226.6,721.8,1226.6z" style="opacity: 0.72; fill: rgb(2, 76, 65);"/>
			<path class="st17" d="M725.2,1253.9c0,0-73.7-406.5-71.5-406.1c2.1,0.3,80.5,404.2,80.5,404.2L725.2,1253.9z" style="fill: rgb(12, 150, 130);"/>
			<path class="st17" d="M694.5,1083.9c0,0-71.3-57.5-73.6-55.4c-2.3,2.1,74.5,65,74.5,65L694.5,1083.9z" style="fill: rgb(12, 150, 130);"/>
			<path class="st17" d="M711.8,1167.2c0,0-66.3-55.5-67.4-53.8c-1.2,1.7,68.8,64.1,68.8,64.1l-2.5-19.6" style="fill: rgb(12, 150, 130);"/>
			<path class="st17" d="M713.7,1158.8c0,0,34-69.2,37.8-68.2c3.8,1-36.1,80.6-36.1,80.6L713.7,1158.8z" style="fill: rgb(12, 150, 130);"/>
			<path class="st17" d="M699.5,1087.3c0,0,37.3-70,40.7-68.6s-36.4,76.3-36.4,76.3L699.5,1087.3z" style="fill: rgb(12, 150, 130);"/>
		</g><path class="st17" d="M683.3,1015.5c0,0-57.7-68.2-60.4-69c-2.7-0.8,61.1,78.7,61.1,78.7L683.3,1015.5z" style="fill: rgb(12, 150, 130); clip-path: url('#SVGID_2_');" transform="matrix(1, 0, 0, 1, 5.684341886080802e-14, 1.4210854715202004e-14)"/><path class="st17" d="M683.2,1015.7c0,0,36-75.7,39.4-74.4c3.4,1.3-34.9,84.8-34.9,84.8L683.2,1015.7z" style="fill: rgb(12, 150, 130); clip-path: url('#SVGID_2_');" transform="matrix(1, 0, 0, 1, 5.684341886080802e-14, 1.4210854715202004e-14)"/><path class="st11" d="M1123.2,1074.9l73.4,10.1c-125.3-276.5-284.6-359.1-284.6-359.1C989.5,795.6,1074.9,967.9,1123.2,1074.9z" style="fill: rgb(0, 98, 86); clip-path: url('#SVGID_2_');" transform="matrix(1, 0, 0, 1, 5.684341886080802e-14, 1.4210854715202004e-14)"/><path class="st11" d="M1013.6,1049.7l59.6,8.2c-95.2-133-180.9-177.5-180.9-177.5C932.7,916.8,975.3,981.2,1013.6,1049.7z" style="fill: rgb(0, 98, 86); clip-path: url('#SVGID_2_');" transform="matrix(1, 0, 0, 1, 5.684341886080802e-14, 1.4210854715202004e-14)"/><path class="st11" d="M912.3,1043.4l39,5.4c-55.1-92.9-105.9-130.5-105.9-130.5C869.3,948,892,993.4,912.3,1043.4z" style="fill: rgb(0, 98, 86); clip-path: url('#SVGID_2_');" transform="matrix(1, 0, 0, 1, 5.684341886080802e-14, 1.4210854715202004e-14)"/><path class="st8" d="M337,139.9c1.4-0.6,2.8-1,4.2-1.3c14.6-2.3,96.2-14.3,89.8-0.7c-7,15-59,29-59,29s82,55,67,59s-85-33-85-33&#10;&#9;&#9;s19,110,3,101s-38-82-38-82s8,40-6,34s-29-66-29-66l6-19L337,139.9z" style="clip-path: url('#SVGID_2_'); fill: rgb(2, 56, 48);" transform="matrix(1, 0, 0, 1, 2.842170943040401e-14, 7.105427357601002e-15)"/><path class="st8" d="M35.7,532.1c0,0,73.4-29.7,80-43.8c6.6-14.1-88.3,13.3-88.3,13.3s22.8-48.8,15.8-63.8&#10;&#9;&#9;c-4.5-9.7-27.4,22.5-43.2,46.7v101.5c17.4,7.3,41.5,15.8,49.8,11.6c13.6-6.8-22.1-26.5-22.1-26.5s70,30.2,87.2,23.7&#10;&#9;&#9;C132.1,588.4,35.7,532.1,35.7,532.1z" style="clip-path: url('#SVGID_2_'); fill: rgb(2, 56, 48);" transform="matrix(1, 0, 0, 1, 2.842170943040401e-14, 7.105427357601002e-15)"/><path class="st8" d="M975,137.6c0,0-44.4,40.2-56.2,40.1c-11.8-0.1,38.1-55.8,38.1-55.8s-40.8-0.5-48.7-10.2&#10;&#9;&#9;c-5.1-6.2,24.4-11.3,46-14.1l69.2,33.4c-0.8,14.3-2.9,33.5-8.5,37.8c-9.2,7-10.8-23.8-10.8-23.8s-22.2,55.4-32.3,65&#10;&#9;&#9;C961.9,219.6,975,137.6,975,137.6z" style="clip-path: url('#SVGID_2_'); fill: rgb(2, 56, 48);" transform="matrix(1, 0, 0, 1, 2.842170943040401e-14, 7.105427357601002e-15)"/><path class="st11" d="M-51.2,474.2c-1.7,2.9-1,6.6,1.7,8.7c6.7,5.1,19.9,15,34.8,25.2c-22.9,10.5-46,13.8-65.2,5.9&#10;&#9;&#9;&#9;c-19.8-8.2-26.1-30.4-27.7-49.4c-0.3-3.9-0.5-7.6-0.5-11.1c-3,0-6.2,0-9.5-0.2c-19.3-1.2-42.7-7.1-51.3-27.3&#10;&#9;&#9;&#9;c-9.3-21.9-3.9-49.4,10.3-75.6c10.7,22,27.5,38.1,35.5,45.1c2.4,2.1,6.1,1.8,8.3-0.6c2-2.3,1.9-5.7-0.2-7.9&#10;&#9;&#9;&#9;c-19-20.2-29.6-37-35.2-50.5c9.5-14.3,21.4-27.8,34.5-39.5c3.5,30.5,13.3,54.3,17.5,63.4c1.1,2.3,3.7,3.4,6.1,2.6&#10;&#9;&#9;&#9;c2.8-0.9,4.2-4.1,2.9-6.8c-11-23.3-14.2-48.9-14.5-69c10.5-8,21.7-14.7,32.9-19.6c-6.4,34.6,3.1,61,7.6,70.9&#10;&#9;&#9;&#9;c0.3,0.7,0.7,1.3,1.2,1.8c1.4,1.4,3.4,2,5.3,1.7c3.4-0.6,5.7-4,4.8-7.4c-4.7-18.3-1.1-50,2.8-74.1c11.2-2.4,22.2-2.7,32.5-0.3&#10;&#9;&#9;&#9;c4,0.9,7.9,1.7,11.8,2.4c-10,26.9,1.6,52.3,6.2,60.8c1,1.8,3,2.6,5,2.1c2.4-0.7,3.7-3.3,2.8-5.6c-7-18.9,0.8-40.1,8.3-54.1&#10;&#9;&#9;&#9;c34.1,3.5,60.1,0.4,60.1,0.4c0,0-4.8,45,7,94c0,0.2,0.1,0.4,0.1,0.5c-16.9,3.3-34.5,3.5-47.5-4.1c-2.8-1.6-6.2-1.1-8.3,1.1&#10;&#9;&#9;&#9;c-0.5,0.5-1,1.1-1.3,1.8c-1.8,3.7,0.1,8.1,4,9.4c10.3,3.5,30.9,9,54.8,7.2c0,6.7-1,13.6-2.7,20.5c-23.5,2.7-52.5,3.6-75.7-3.2&#10;&#9;&#9;&#9;c-3.2-0.9-6.5,0.9-7.4,4.1c-0.9,3.2,1,6.6,4.3,7.4c12.2,3,41.6,9.3,73.4,8.2c-6.2,15.1-15.7,30-27.2,43.7&#10;&#9;&#9;&#9;c-22.9-8.8-51.6-21.3-72.5-35.8c-3.9-2.7-9.2-1.4-11.3,2.8c-1.8,3.5-0.7,7.8,2.6,10c11.6,7.7,39.1,25.5,65.5,39.7&#10;&#9;&#9;&#9;C25,483.2,13.7,492,2,499.1c-15.1-7.7-31-16.9-43.3-26.7C-44.5,469.9-49.2,470.7-51.2,474.2z" style="fill: rgb(0, 98, 86); clip-path: url('#SVGID_2_');" transform="matrix(1, 0, 0, 1, 5.684341886080802e-14, 1.4210854715202004e-14)"/><path class="st11" d="M-115.6,395.5c0.3-0.2,0.5-0.5,0.8-0.7c2-2.3,1.9-5.7-0.2-7.9c-11.8-12.4-20.3-23.6-26.4-33.6&#10;&#9;&#9;&#9;c3.8-10.1,15.4-19.5,31-28c4.2,16.5,9.5,28.9,12.2,35c1.1,2.3,3.7,3.4,6.1,2.6c2.8-0.9,4.2-4.1,2.9-6.8&#10;&#9;&#9;&#9;c-5.5-11.7-9.1-23.9-11.3-35.8c8.8-4.2,18.6-8.1,28.7-11.8c2,14,6,24.4,8.5,29.8c0.3,0.7,0.7,1.3,1.2,1.8c1.4,1.4,3.4,2,5.3,1.7&#10;&#9;&#9;&#9;c3.4-0.6,5.7-4,4.8-7.4c-2.2-8.4-2.6-19.7-2-31.8c15.4-4.9,31-9.2,45.3-12.7c1.1,15.4,7,27.8,10,33.3c1,1.8,3,2.6,5,2.1&#10;&#9;&#9;&#9;c2.4-0.7,3.7-3.3,2.8-5.6c-4.1-11.2-3.1-23.1,0-33.9c23.9-5.3,40.8-8,40.6-7.5C16.6,403.1-70.2,420.1-115.6,395.5z" style="fill: rgb(0, 98, 86); clip-path: url('#SVGID_2_');" transform="matrix(1, 0, 0, 1, 5.684341886080802e-14, 1.4210854715202004e-14)"/><path class="st16" d="M-115.6,395.5c-12.2-6.6-21.4-16.2-25.8-27.5c-2-5-1.9-9.9,0-14.7c3.8-10.1,15.4-19.5,31-28&#10;&#9;&#9;&#9;c4.2,16.5,9.5,28.9,12.2,35c1.1,2.3,3.7,3.4,6.1,2.6c2.8-0.9,4.2-4.1,2.9-6.8c-5.5-11.7-9.1-23.9-11.3-35.8&#10;&#9;&#9;&#9;c8.8-4.2,18.6-8.1,28.7-11.8c2,14,6,24.4,8.5,29.8c0.3,0.7,0.7,1.3,1.2,1.8c1.4,1.4,3.4,2,5.3,1.7c3.4-0.6,5.7-4,4.8-7.4&#10;&#9;&#9;&#9;c-2.2-8.4-2.6-19.7-2-31.8c15.4-4.9,31-9.2,45.3-12.7c1.1,15.4,7,27.8,10,33.3c1,1.8,3,2.6,5,2.1c2.4-0.7,3.7-3.3,2.8-5.6&#10;&#9;&#9;&#9;c-4.1-11.2-3.1-23.1,0-33.9c23.9-5.3,40.8-8,40.6-7.5C16.6,403.1-70.2,420.1-115.6,395.5z" style="opacity: 0.33; fill: rgb(2, 76, 65); clip-path: url('#SVGID_2_');" transform="matrix(1, 0, 0, 1, 5.684341886080802e-14, 1.4210854715202004e-14)"/><path class="st12" d="M-158.6,350.3c-14.2,26.2-19.6,53.7-10.3,75.6c8.6,20.2,32,26.1,51.3,27.3c3.3,0.2,6.5,0.3,9.5,0.2&#10;&#9;&#9;&#9;c0,3.4,0.1,7.2,0.5,11.1c1.6,19,8,41.2,27.7,49.4c19.2,7.9,42.3,4.6,65.2-5.9c-14.9-10.2-28.1-20.1-34.8-25.2&#10;&#9;&#9;&#9;c-2.7-2.1-3.4-5.8-1.7-8.7c2.1-3.5,6.7-4.3,9.9-1.8c12.3,9.9,28.2,19.1,43.3,26.7c11.7-7.1,23-15.9,33.3-25.8&#10;&#9;&#9;&#9;c-26.5-14.2-53.9-32-65.5-39.7c-3.3-2.2-4.4-6.5-2.6-10c2.1-4.2,7.5-5.5,11.3-2.8c20.9,14.5,49.6,27,72.5,35.8&#10;&#9;&#9;&#9;c11.5-13.7,20.9-28.7,27.2-43.7c-31.7,1.1-61.2-5.2-73.4-8.2c-3.3-0.8-5.2-4.2-4.3-7.4c0.9-3.2,4.2-5,7.4-4.1&#10;&#9;&#9;&#9;c23.3,6.8,52.2,5.9,75.7,3.2c1.7-6.9,2.6-13.8,2.7-20.5c-23.9,1.8-44.5-3.7-54.8-7.2c-3.9-1.3-5.7-5.7-4-9.4&#10;&#9;&#9;&#9;c0.3-0.7,0.8-1.3,1.3-1.8c2.1-2.1,5.5-2.7,8.3-1.1c13,7.6,30.6,7.4,47.5,4.1c0-0.2-0.1-0.4-0.1-0.5c-11.8-49-6.9-94.1-7-94&#10;&#9;&#9;&#9;C77.5,265.9-72.8,561.7-158.6,350.3z" style="opacity: 0.72; fill: rgb(2, 76, 65); clip-path: url('#SVGID_2_');" transform="matrix(1, 0, 0, 1, 5.684341886080802e-14, 1.4210854715202004e-14)"/><path class="st17" d="M-107.7,464.6c-0.3-3.9-0.5-7.6-0.5-11.1c-3,0-6.2,0-9.5-0.2c20.9-20.2,189.1-182.8,187.9-177.8&#10;&#9;&#9;&#9;C69.1,280.4-83.2,439.1-107.7,464.6z" style="fill: rgb(12, 150, 130); clip-path: url('#SVGID_2_');" transform="matrix(1, 0, 0, 1, 5.684341886080802e-14, 1.4210854715202004e-14)"/><path class="st17" d="M-16.1,363.2c0,0,23.5,14.3,68.5,23.9c0,0-52.6-7-73.6-18.7L-16.1,363.2z" style="fill: rgb(12, 150, 130); clip-path: url('#SVGID_2_');" transform="matrix(1, 0, 0, 1, 5.684341886080802e-14, 1.4210854715202004e-14)"/><path class="st17" d="M-41.4,393.3c0,0,40.5,35.7,77.2,34.3c0,0-30,10.6-81.5-31.4L-41.4,393.3z" style="fill: rgb(12, 150, 130); clip-path: url('#SVGID_2_');" transform="matrix(1, 0, 0, 1, 5.684341886080802e-14, 1.4210854715202004e-14)"/><path class="st11" d="M1514.2,453.5c3.2,1,6.7-0.6,8-3.7c3.4-7.8,9.8-22.9,16.1-39.8c15.7,19.7,24.5,41.3,21.4,61.8&#10;&#9;&#9;&#9;c-3.2,21.2-23.2,32.7-41.3,38.8c-3.7,1.3-7.3,2.3-10.6,3.1c0.7,2.9,1.4,6,2,9.3c3.5,19,3.4,43.1-14.2,56.4&#10;&#9;&#9;&#9;c-19.1,14.4-47,15.6-75.9,8.2c18.8-15.7,30.4-35.9,35.2-45.3c1.5-2.9,0.3-6.4-2.6-7.9c-2.7-1.4-6-0.5-7.6,2.1&#10;&#9;&#9;&#9;c-15,23.3-28.8,37.6-40.6,46.3c-16.1-5.8-32.1-14-46.6-24c28.8-10.7,49.5-26,57.3-32.3c2-1.6,2.4-4.4,1.1-6.6&#10;&#9;&#9;&#9;c-1.6-2.5-5-3-7.3-1.2c-20,16.3-44,25.5-63.5,30.7c-10.3-8.3-19.5-17.5-27-27.2c35.2-2.1,58.4-17.7,67-24.4c0.6-0.5,1.1-1,1.4-1.6&#10;&#9;&#9;&#9;c1-1.7,1.1-3.7,0.3-5.6c-1.4-3.2-5.3-4.5-8.4-2.9c-16.6,8.9-48.3,13.2-72.6,15.1c-5-10.3-8-20.9-8.1-31.4c-0.1-4.1-0.2-8.1-0.5-12&#10;&#9;&#9;&#9;c28.5,3.2,50.4-14.1,57.5-20.7c1.5-1.4,1.8-3.6,0.8-5.3c-1.2-2.2-4.1-2.8-6.1-1.4c-16.7,11.3-39.2,8.8-54.5,5&#10;&#9;&#9;&#9;c-4.8-33.9-14.1-58.4-14-58.4c0,0,44.8-6.1,89.6-29.4c0.2-0.1,0.3-0.2,0.5-0.2c7.3,15.6,11.7,32.6,7.5,47.1&#10;&#9;&#9;&#9;c-0.9,3.1,0.4,6.2,3,7.8c0.6,0.4,1.3,0.7,2.1,0.8c4,0.8,7.8-2,8.1-6.1c0.9-10.9,1.3-32.1-6.2-54.9c6.5-1.6,13.4-2.3,20.6-2.3&#10;&#9;&#9;&#9;c8.3,22.2,16.1,50,15.1,74.3c-0.1,3.3,2.4,6.1,5.7,6.2c3.4,0.1,6.1-2.6,6.1-5.9c0-12.6-1-42.7-9.7-73.2c16.1,2.4,32.9,8,49,15.8&#10;&#9;&#9;&#9;c-3,24.3-8.2,55.2-17.3,79c-1.7,4.4,0.9,9.3,5.5,10.3c3.8,0.9,7.7-1.2,9-4.9c4.7-13.1,15.4-44.1,22.8-73.2&#10;&#9;&#9;&#9;c12.1,7.6,23.4,16.5,33.1,26.1c-3.8,16.5-8.9,34.1-15.5,48.5C1508.4,448,1510.3,452.3,1514.2,453.5z" style="fill: rgb(0, 98, 86); clip-path: url('#SVGID_2_');" transform="matrix(1, 0, 0, 1, 5.684341886080802e-14, 1.4210854715202004e-14)"/><path class="st11" d="M1453.4,535c-0.3-0.2-0.6-0.4-0.9-0.6c-2.7-1.4-6-0.5-7.6,2.1c-9.2,14.4-18.1,25.4-26.2,33.7&#10;&#9;&#9;&#9;c-10.7-1.3-22.6-10.2-34.7-23.3c15-8.1,25.8-16.1,31-20.3c2-1.6,2.4-4.4,1.1-6.6c-1.6-2.5-5-3-7.3-1.2c-10,8.2-21,14.6-32,19.6&#10;&#9;&#9;&#9;c-6.2-7.6-12.4-16.1-18.4-25.1c13.1-5.3,22.2-11.7,26.9-15.4c0.6-0.5,1.1-1,1.4-1.6c1-1.7,1.1-3.7,0.3-5.6&#10;&#9;&#9;&#9;c-1.4-3.2-5.3-4.5-8.4-2.9c-7.7,4.1-18.5,7.2-30.4,9.6c-8.5-13.7-16.4-27.9-23.2-40.9c14.6-4.8,25.3-13.5,29.9-17.7&#10;&#9;&#9;&#9;c1.5-1.4,1.8-3.6,0.8-5.3c-1.2-2.2-4.1-2.8-6.1-1.4c-9.9,6.7-21.7,8.6-32.9,8.2c-10.9-21.9-17.6-37.6-17-37.6&#10;&#9;&#9;&#9;C1428.8,404.8,1466.3,485,1453.4,535z" style="fill: rgb(0, 98, 86); clip-path: url('#SVGID_2_');" transform="matrix(1, 0, 0, 1, 5.684341886080802e-14, 1.4210854715202004e-14)"/><path class="st16" d="M1453.4,535c-3.5,13.4-10.5,24.6-20.5,31.6c-4.4,3.1-9.2,4.2-14.3,3.6c-10.7-1.3-22.6-10.2-34.7-23.3&#10;&#9;&#9;&#9;c15-8.1,25.8-16.1,31-20.3c2-1.6,2.4-4.4,1.1-6.6c-1.6-2.5-5-3-7.3-1.2c-10,8.2-21,14.6-32,19.6c-6.2-7.6-12.4-16.1-18.4-25.1&#10;&#9;&#9;&#9;c13.1-5.3,22.2-11.7,26.9-15.4c0.6-0.5,1.1-1,1.4-1.6c1-1.7,1.1-3.7,0.3-5.6c-1.4-3.2-5.3-4.5-8.4-2.9c-7.7,4.1-18.5,7.2-30.4,9.6&#10;&#9;&#9;&#9;c-8.5-13.7-16.4-27.9-23.2-40.9c14.6-4.8,25.3-13.5,29.9-17.7c1.5-1.4,1.8-3.6,0.8-5.3c-1.2-2.2-4.1-2.8-6.1-1.4&#10;&#9;&#9;&#9;c-9.9,6.7-21.7,8.6-32.9,8.2c-10.9-21.9-17.6-37.6-17-37.6C1428.8,404.8,1466.3,485,1453.4,535z" style="opacity: 0.33; fill: rgb(2, 76, 65); clip-path: url('#SVGID_2_');" transform="matrix(1, 0, 0, 1, 5.684341886080802e-14, 1.4210854715202004e-14)"/><path class="st12" d="M1419.9,587.6c28.9,7.4,56.8,6.1,75.9-8.2c17.6-13.2,17.7-37.3,14.2-56.4c-0.6-3.3-1.3-6.4-2-9.3&#10;&#9;&#9;&#9;c3.3-0.8,6.9-1.9,10.6-3.1c18-6.1,38.1-17.7,41.3-38.8c3.1-20.5-5.7-42.2-21.4-61.8c-6.3,16.9-12.8,32.1-16.1,39.8&#10;&#9;&#9;&#9;c-1.3,3.1-4.8,4.7-8,3.7c-3.9-1.2-5.8-5.5-4.1-9.2c6.6-14.3,11.7-32,15.5-48.5c-9.7-9.6-21-18.5-33.1-26.1&#10;&#9;&#9;&#9;c-7.4,29.1-18.1,60.1-22.8,73.2c-1.3,3.7-5.2,5.8-9,4.9c-4.6-1.1-7.2-5.9-5.5-10.3c9.1-23.7,14.3-54.6,17.3-79&#10;&#9;&#9;&#9;c-16.1-7.8-32.9-13.4-49-15.8c8.7,30.5,9.7,60.6,9.7,73.2c0,3.4-2.8,6-6.1,5.9c-3.3-0.1-5.9-2.9-5.7-6.2&#10;&#9;&#9;&#9;c1-24.2-6.8-52.1-15.1-74.3c-7.2,0-14.1,0.8-20.6,2.3c7.5,22.8,7.1,44,6.2,54.9c-0.3,4.1-4.1,6.9-8.1,6.1&#10;&#9;&#9;&#9;c-0.8-0.2-1.5-0.4-2.1-0.8c-2.6-1.5-3.9-4.7-3-7.8c4.3-14.4-0.2-31.4-7.5-47.1c-0.2,0.1-0.3,0.2-0.5,0.2&#10;&#9;&#9;&#9;c-44.8,23.3-89.6,29.4-89.6,29.4C1281.1,378.8,1604.3,453.4,1419.9,587.6z" style="opacity: 0.72; fill: rgb(2, 76, 65); clip-path: url('#SVGID_2_');" transform="matrix(1, 0, 0, 1, 5.684341886080802e-14, 1.4210854715202004e-14)"/><path class="st17" d="M1518.5,510.6c-3.7,1.3-7.3,2.3-10.6,3.1c0.7,2.9,1.4,6,2,9.3c-24.7-15.4-223-139.5-217.8-139.5&#10;&#9;&#9;&#9;C1297.1,383.5,1487.9,493,1518.5,510.6z" style="fill: rgb(12, 150, 130); clip-path: url('#SVGID_2_');" transform="matrix(1, 0, 0, 1, 5.684341886080802e-14, 1.4210854715202004e-14)"/><path class="st17" d="M1388.4,443c0,0-6.3,8-70.2,35.6c0,0,62.6-20.8,74-31.7L1388.4,443z" style="fill: rgb(12, 150, 130); clip-path: url('#SVGID_2_');" transform="matrix(1, 0, 0, 1, 5.684341886080802e-14, 1.4210854715202004e-14)"/><path class="st17" d="M1398,446.1c0,0,8.2-26.2,6.7-72.2c0,0,5.9,52.7-0.4,76L1398,446.1z" style="fill: rgb(12, 150, 130); clip-path: url('#SVGID_2_');" transform="matrix(1, 0, 0, 1, 5.684341886080802e-14, 1.4210854715202004e-14)"/><path class="st17" d="M1428.7,465.4c0,0-15,37.1-69.9,57.4c0,0,48.4-8.9,75.7-53.9L1428.7,465.4z" style="fill: rgb(12, 150, 130); clip-path: url('#SVGID_2_');" transform="matrix(1, 0, 0, 1, 5.684341886080802e-14, 1.4210854715202004e-14)"/><path class="st17" d="M1458.3,487.6c0,0-18.3,46.7-60.4,73.8c0,0,40.1-15.6,65.5-73L1458.3,487.6z" style="fill: rgb(12, 150, 130); clip-path: url('#SVGID_2_');" transform="matrix(1, 0, 0, 1, 5.684341886080802e-14, 1.4210854715202004e-14)"/><path class="st18" d="M1273.4-130.6l-7.1-73.8C1026.2-18.7,982.5,155.3,982.5,155.3C1032.5,63.9,1180.4-59,1273.4-130.6z" style="clip-path: url('#SVGID_2_'); fill: rgb(0, 98, 86);" transform="matrix(1, 0, 0, 1, 2.842170943040401e-14, 7.105427357601002e-15)"/><path class="st18" d="M42.5-88.6l7.1-73.8C289.7,23.3,333.4,197.3,333.4,197.3C283.4,105.9,135.5-17,42.5-88.6z" style="clip-path: url('#SVGID_2_'); fill: rgb(0, 98, 86);" transform="matrix(1, 0, 0, 1, 2.842170943040401e-14, 7.105427357601002e-15)"/><path class="st18" d="M142.3,1006.4l-73.8,9.1C198,740,358.8,659.3,358.8,659.3C280.3,728.2,192.2,899.8,142.3,1006.4z" style="clip-path: url('#SVGID_2_'); fill: rgb(0, 98, 86);" transform="matrix(1, 0, 0, 1, 2.842170943040401e-14, 7.105427357601002e-15)"/><path class="st18" d="M1256.7-57.2l-5.8-59.8c-107.4,123.3-131,217-131,217C1146.1,52.2,1198.9-4.1,1256.7-57.2z" style="clip-path: url('#SVGID_2_'); fill: rgb(0, 98, 86);" transform="matrix(1, 0, 0, 1, 2.842170943040401e-14, 7.105427357601002e-15)"/><path class="st18" d="M1432.9,165.2l17.7-56.7c-152.1,59-220.7,125.3-220.7,125.3C1280,205.5,1353.3,183,1432.9,165.2z" style="clip-path: url('#SVGID_2_'); fill: rgb(0, 98, 86);" transform="matrix(1, 0, 0, 1, 2.842170943040401e-14, 7.105427357601002e-15)"/><path class="st11" d="M85.8,1071.1c-0.9,3.7,1.1,7.4,4.7,8.7c8.8,3.2,26.1,9.4,45.3,15.3c-20.8,18.7-44.3,29.9-67.3,27.9&#10;&#9;&#9;&#9;c-23.7-2.1-37.9-23.7-45.9-43.3c-1.6-4-3-7.9-4.2-11.6c-3.2,1-6.6,2-10.2,2.9c-20.9,5.2-47.7,6.7-63.6-12&#10;&#9;&#9;&#9;c-17.2-20.2-20.5-51.2-14.2-83.8c18.7,19.8,41.9,31.4,52.7,36.1c3.3,1.4,7.1-0.1,8.6-3.4c1.3-3.1,0.1-6.7-2.8-8.3&#10;&#9;&#9;&#9;c-26.9-15.1-43.8-29.5-54.2-42c5.4-18.3,13.5-36.7,23.5-53.5c13.8,31.3,32.2,53.3,39.7,61.6c1.9,2.1,5.1,2.4,7.4,0.7&#10;&#9;&#9;&#9;c2.7-1.9,3.1-5.8,0.8-8.2c-19.5-21.1-31.3-47.2-38.4-68.6c8.5-12,18.1-22.8,28.4-31.8c4.7,39,23.6,63.8,31.7,72.8&#10;&#9;&#9;&#9;c0.6,0.6,1.2,1.1,1.9,1.5c1.9,1,4.2,1,6.2,0c3.5-1.8,4.7-6.2,2.6-9.5c-11-17.9-17.9-52.8-21.7-79.7c11.1-6.3,22.7-10.2,34.4-11.1&#10;&#9;&#9;&#9;c4.5-0.3,9-0.8,13.3-1.3c-1.7,31.9,19.1,55,26.8,62.5c1.6,1.6,4.1,1.8,5.9,0.5c2.3-1.5,2.8-4.7,1.1-6.9&#10;&#9;&#9;&#9;c-13.7-17.8-12.5-42.9-9.2-60.2c37.4-7.6,64-19.5,64-19.5c0,0,9.8,49.4,38.7,97.6c0.1,0.2,0.2,0.3,0.3,0.5&#10;&#9;&#9;&#9;c-16.9,9.1-35.5,15.2-51.8,11.4c-3.5-0.8-6.9,0.9-8.5,3.9c-0.4,0.7-0.6,1.5-0.8,2.4c-0.6,4.5,2.8,8.5,7.3,8.6&#10;&#9;&#9;&#9;c12.2,0.3,35.8-0.7,60.6-10.6c2.2,7.1,3.5,14.8,4,22.7c-24.1,10.7-54.6,21.3-81.6,21.8c-3.7,0.1-6.6,3.1-6.5,6.8&#10;&#9;&#9;&#9;c0.1,3.7,3.3,6.7,7,6.4c14-0.8,47.4-4,80.7-15.7c-1.6,18.1-6.7,37.1-14.3,55.5c-27.3-1.7-61.9-5.5-88.9-13.9&#10;&#9;&#9;&#9;c-5-1.6-10.2,1.6-11.1,6.8c-0.7,4.3,1.9,8.5,6.1,9.7c14.9,4.3,50,14.2,82.9,20.4c-7.7,14-16.8,27.1-26.8,38.6&#10;&#9;&#9;&#9;c-18.6-3.1-38.6-7.6-54.9-14C91.5,1064.3,86.9,1066.7,85.8,1071.1z" style="fill: rgb(0, 98, 86); clip-path: url('#SVGID_2_');" transform="matrix(1, 0, 0, 1, 5.684341886080802e-14, 1.4210854715202004e-14)"/><path class="st11" d="M-8.8,1008.9c0.2-0.3,0.4-0.7,0.6-1c1.3-3.1,0.1-6.7-2.8-8.3c-16.6-9.3-29.4-18.4-39.2-26.9&#10;&#9;&#9;&#9;c0.7-12,9.9-25.9,23.6-40.1c10,16.2,19.7,27.6,24.6,33.1c1.9,2.1,5.1,2.4,7.4,0.7c2.7-1.9,3.1-5.8,0.8-8.2&#10;&#9;&#9;&#9;c-9.8-10.6-17.6-22.4-23.9-34.3c8-7.4,17.1-14.8,26.6-22.1c6.8,14.2,14.5,23.9,18.9,28.8c0.6,0.6,1.2,1.1,1.9,1.5&#10;&#9;&#9;&#9;c1.9,1,4.2,1,6.2,0c3.5-1.8,4.7-6.2,2.6-9.5c-5.1-8.2-9.3-20.1-12.7-33.2c14.7-10.3,29.9-20,43.9-28.5c6.3,16,16.7,27.3,21.7,32.1&#10;&#9;&#9;&#9;c1.6,1.6,4.1,1.8,5.9,0.5c2.3-1.5,2.8-4.7,1.1-6.9c-8.1-10.5-11-23.6-11.3-36.1c23.6-13.6,40.7-22.1,40.7-21.4&#10;&#9;&#9;&#9;C134.2,973,47.7,1020-8.8,1008.9z" style="fill: rgb(0, 98, 86); clip-path: url('#SVGID_2_');" transform="matrix(1, 0, 0, 1, 5.684341886080802e-14, 1.4210854715202004e-14)"/><path class="st16" d="M-8.8,1008.9c-15.1-3-28.1-10.1-36.5-20.6c-3.8-4.7-5.3-10-4.9-15.6c0.7-12,9.9-25.9,23.6-40.1&#10;&#9;&#9;&#9;c10,16.2,19.7,27.6,24.6,33.1c1.9,2.1,5.1,2.4,7.4,0.7c2.7-1.9,3.1-5.8,0.8-8.2c-9.8-10.6-17.6-22.4-23.9-34.3&#10;&#9;&#9;&#9;c8-7.4,17.1-14.8,26.6-22.1c6.8,14.2,14.5,23.9,18.9,28.8c0.6,0.6,1.2,1.1,1.9,1.5c1.9,1,4.2,1,6.2,0c3.5-1.8,4.7-6.2,2.6-9.5&#10;&#9;&#9;&#9;c-5.1-8.2-9.3-20.1-12.7-33.2c14.7-10.3,29.9-20,43.9-28.5c6.3,16,16.7,27.3,21.7,32.1c1.6,1.6,4.1,1.8,5.9,0.5&#10;&#9;&#9;&#9;c2.3-1.5,2.8-4.7,1.1-6.9c-8.1-10.5-11-23.6-11.3-36.1c23.6-13.6,40.7-22.1,40.7-21.4C134.2,973,47.7,1020-8.8,1008.9z" style="opacity: 0.33; fill: rgb(2, 76, 65); clip-path: url('#SVGID_2_');" transform="matrix(1, 0, 0, 1, 5.684341886080802e-14, 1.4210854715202004e-14)"/><path class="st12" d="M-69.5,975.2c-6.3,32.6-3,63.6,14.2,83.8c15.9,18.6,42.7,17.1,63.6,12c3.6-0.9,7-1.9,10.2-2.9&#10;&#9;&#9;&#9;c1.2,3.7,2.5,7.6,4.2,11.6c8,19.6,22.2,41.2,45.9,43.3c23,2,46.5-9.2,67.3-27.9c-19.2-5.9-36.5-12-45.3-15.3&#10;&#9;&#9;&#9;c-3.5-1.3-5.5-5-4.7-8.7c1-4.4,5.7-6.8,9.9-5.2c16.4,6.4,36.3,10.9,54.9,14c10-11.5,19.1-24.6,26.8-38.6&#10;&#9;&#9;&#9;c-32.9-6.3-68-16.1-82.9-20.4c-4.2-1.2-6.8-5.4-6.1-9.7c0.9-5.2,6.1-8.4,11.1-6.8c27,8.5,61.7,12.3,88.9,13.9&#10;&#9;&#9;&#9;c7.7-18.4,12.7-37.4,14.3-55.5c-33.3,11.7-66.7,14.8-80.7,15.7c-3.7,0.2-6.9-2.7-7-6.4c-0.1-3.7,2.8-6.7,6.5-6.8&#10;&#9;&#9;&#9;c27-0.5,57.4-11.1,81.6-21.8c-0.5-8-1.8-15.6-4-22.7c-24.8,9.8-48.5,10.9-60.6,10.6c-4.5-0.1-8-4.1-7.3-8.6&#10;&#9;&#9;&#9;c0.1-0.9,0.4-1.7,0.8-2.4c1.5-3,5-4.7,8.5-3.9c16.3,3.8,34.9-2.3,51.8-11.4c-0.1-0.2-0.2-0.4-0.3-0.5&#10;&#9;&#9;&#9;c-28.9-48.2-38.7-97.7-38.7-97.6C153.4,806.9,92,1171.3-69.5,975.2z" style="opacity: 0.72; fill: rgb(2, 76, 65); clip-path: url('#SVGID_2_');" transform="matrix(1, 0, 0, 1, 5.684341886080802e-14, 1.4210854715202004e-14)"/><path class="st17" d="M22.6,1079.7c-1.6-4-3-7.9-4.2-11.6c-3.2,1-6.6,2-10.2,2.9c15.5-28.4,140.2-257.3,140.6-251.5&#10;&#9;&#9;&#9;C149.2,825.1,40.1,1044.5,22.6,1079.7z" style="fill: rgb(12, 150, 130); clip-path: url('#SVGID_2_');" transform="matrix(1, 0, 0, 1, 5.684341886080802e-14, 1.4210854715202004e-14)"/><path class="st17" d="M89.1,930.5c0,0-9.4-6.4-44.3-75.7c0,0,27.3,68.2,40.2,80.1L89.1,930.5z" style="fill: rgb(12, 150, 130); clip-path: url('#SVGID_2_');" transform="matrix(1, 0, 0, 1, 5.684341886080802e-14, 1.4210854715202004e-14)"/><path class="st17" d="M86.3,941.5c0,0,29.7,7.4,80.7,2.6c0,0-58.2,10-84.5,4.6L86.3,941.5z" style="fill: rgb(12, 150, 130); clip-path: url('#SVGID_2_');" transform="matrix(1, 0, 0, 1, 5.684341886080802e-14, 1.4210854715202004e-14)"/><path class="st17" d="M66.9,976.9c0,0-42.3-14.2-68.5-73.9c0,0,13.1,53.2,65,80.6L66.9,976.9z" style="fill: rgb(12, 150, 130); clip-path: url('#SVGID_2_');" transform="matrix(1, 0, 0, 1, 5.684341886080802e-14, 1.4210854715202004e-14)"/><path class="st17" d="M69.4,981.9c0,0,55,24.4,93.4,10.8c0,0-28.4,21.2-97-6.3L69.4,981.9z" style="fill: rgb(12, 150, 130); clip-path: url('#SVGID_2_');" transform="matrix(1, 0, 0, 1, 5.684341886080802e-14, 1.4210854715202004e-14)"/><path class="st17" d="M44.2,1011.3c0,0-53.2-17.2-86.1-62.2c0,0,20,43.6,85.5,67.9L44.2,1011.3z" style="fill: rgb(12, 150, 130); clip-path: url('#SVGID_2_');" transform="matrix(1, 0, 0, 1, 5.684341886080802e-14, 1.4210854715202004e-14)"/><g transform="matrix(1, 0, 0, 1, 5.684341886080802e-14, 1.4210854715202004e-14)" style="clip-path: url('#SVGID_2_');">
			<path class="st11" d="M192.8,889.9c10,14.9,32.9,67.7,32.9,67.7s-9.2-119.1,1.4-125.7c10.6-6.5,29.1,52.6,29.1,52.6&#10;&#9;&#9;&#9;&#9;s21.9-128.5,33-124.3s9.6,68.9,9.6,68.9s68-114.8,82.7-105.3s-47.1,143-47.1,143s49.7-57.2,65.1-41.2c15.4,15.9-72,97.4-72,97.4&#10;&#9;&#9;&#9;&#9;s50.3-32.7,57-17.4c6.8,15.3-76.3,71.5-76.3,71.5s49.8-14.2,54.3-4c4.5,10.2-157.2,111.6-157.2,111.6S182.8,875,192.8,889.9z" style="fill: rgb(0, 98, 86);"/>
			<path class="st12" d="M205.3,1084.8c0,0,161.7-101.4,157.2-111.6c-4.5-10.2-54.3,4-54.3,4s83-56.2,76.3-71.5&#10;&#9;&#9;&#9;&#9;c-6.8-15.3-57,17.4-57,17.4s87.4-81.5,72-97.4c-15.4-15.9-65.1,41.2-65.1,41.2s61.8-133.5,47.1-143c-0.5-0.3-1.1-0.5-1.7-0.5&#10;&#9;&#9;&#9;&#9;c-14.1,36.7-97,243.7-184.8,254.3C199.4,1029.4,205.3,1084.8,205.3,1084.8z" style="opacity: 0.72; fill: rgb(2, 76, 65);"/>
			<path class="st17" d="M192.4,1107.9c0,0,174.4-357.7,175.9-356.2s-167.7,359.8-167.7,359.8L192.4,1107.9z" style="fill: rgb(12, 150, 130);"/>
			<path class="st17" d="M265.4,958.3c0,0-22.6-85.3-25.6-84.9c-3,0.3,20.9,92.9,20.9,92.9L265.4,958.3z" style="fill: rgb(12, 150, 130);"/>
			<path class="st17" d="M231.4,1032.9c0,0-19.8-80.9-21.7-80.2s16.9,88.9,16.9,88.9l9.2-16.6" style="fill: rgb(12, 150, 130);"/>
			<path class="st17" d="M237.6,1027.4c0,0,65.8-34.4,68.2-31.4c2.4,3-74,42-74,42L237.6,1027.4z" style="fill: rgb(12, 150, 130);"/>
			<path class="st17" d="M267.3,963.8c0,0,68.8-33.1,70.7-30.1s-71.7,38.5-71.7,38.5L267.3,963.8z" style="fill: rgb(12, 150, 130);"/>
		</g><path class="st17" d="M295.7,898.9c0,0-6-85.8-7.6-88c-1.6-2.2,2.6,96,2.6,96L295.7,898.9z" style="fill: rgb(12, 150, 130); clip-path: url('#SVGID_2_');" transform="matrix(1, 0, 0, 1, 5.684341886080802e-14, 1.4210854715202004e-14)"/><path class="st17" d="M295.5,898.9c0,0,71.1-38.3,73-35.3s-75.4,46-75.4,46L295.5,898.9z" style="fill: rgb(12, 150, 130); clip-path: url('#SVGID_2_');" transform="matrix(1, 0, 0, 1, 5.684341886080802e-14, 1.4210854715202004e-14)"/><path class="st11" d="M1404.3,943.7c2.9,2.9,7.4,3.2,10.6,0.6c8-6.3,23.4-18.6,39.7-32.9c5.3,29.7,2.3,57.6-12.6,77.5&#10;&#9;&#9;&#9;c-15.4,20.5-43.2,21.3-65.7,17.5c-4.6-0.8-9-1.7-13-2.8c-0.9,3.5-1.9,7.2-3.1,10.9c-7.1,22.1-20.9,47.5-47,51.5&#10;&#9;&#9;&#9;c-28.3,4.3-58.5-10.2-84.8-34.5c28.7-5.9,52.5-20.6,62.9-27.8c3.2-2.2,4-6.6,1.8-9.8c-2.1-3-6-3.9-9.2-2.2&#10;&#9;&#9;&#9;c-29.1,16.1-51.8,23.4-69.2,25.8c-13.8-15.3-26-33.1-35.6-51.9c36.5,5.1,67.1,0.7,78.9-1.4c3-0.6,5.1-3.3,4.9-6.3&#10;&#9;&#9;&#9;c-0.3-3.6-3.6-6.1-7.1-5.4c-30.4,5.9-61,1.9-84.6-3.7c-6.2-14.6-10.6-29.6-13-44.1c38.3,17.8,71.8,14.6,84.7,12.3&#10;&#9;&#9;&#9;c0.9-0.2,1.7-0.5,2.4-0.9c2-1.2,3.3-3.3,3.5-5.7c0.3-4.2-3-7.8-7.2-7.8c-22.6,0-58.5-13.6-85.3-25.3c0.5-13.7,3.5-26.6,9.3-37.8&#10;&#9;&#9;&#9;c2.2-4.3,4.3-8.7,6.3-13c28.3,19.6,61.2,13.8,72.5,10.9c2.3-0.6,4-2.7,3.9-5.1c-0.1-3-2.7-5.3-5.7-5&#10;&#9;&#9;&#9;c-24.1,2.5-46.4-12.9-60.4-25.7c14.2-38.5,18.4-69.7,18.4-69.7c0,0,50.9,19,111.4,19.9c0.2,0,0.4,0,0.7,0&#10;&#9;&#9;&#9;c-1.2,20.7-6.2,41.2-18.9,54c-2.7,2.7-3.1,6.8-1.2,9.9c0.5,0.8,1,1.4,1.8,2.1c3.8,3.1,9.4,2.3,12.1-1.8&#10;&#9;&#9;&#9;c7.2-11,19.6-33.2,24.7-61.5c7.8,2,15.5,5.2,23.1,9.2c-3.9,28.1-11.5,62-26.3,87.1c-2,3.4-0.9,7.8,2.5,9.8c3.5,2,7.9,0.8,9.9-2.8&#10;&#9;&#9;&#9;c7.2-13.3,23.2-45.6,31.4-82.8c15.6,11.7,30.2,27.2,42.7,44.6c-17,24-40.1,53.6-63.2,73.6c-4.3,3.7-4.3,10.3-0.1,14&#10;&#9;&#9;&#9;c3.5,3.1,8.9,3.1,12.4-0.1c12.4-11.2,41.3-37.8,65.7-64.3c8.4,15,15.3,30.7,20.1,46.4c-13.4,15.3-28.9,31-44,42.4&#10;&#9;&#9;&#9;C1401.3,934.5,1400.8,940.2,1404.3,943.7z" style="fill: rgb(0, 98, 86); clip-path: url('#SVGID_2_');" transform="matrix(1, 0, 0, 1, 5.684341886080802e-14, 1.4210854715202004e-14)"/><path class="st11" d="M1293.6,995.1c-0.2-0.4-0.4-0.7-0.6-1.1c-2.1-3-6-3.9-9.2-2.2c-18,10-33.5,16.5-46.9,20.7&#10;&#9;&#9;&#9;c-10.6-7.5-18.1-23.7-23.3-44.4c20.5,0,36.5-2.4,44.3-3.8c3-0.6,5.1-3.3,4.9-6.3c-0.3-3.6-3.6-6.1-7.1-5.4&#10;&#9;&#9;&#9;c-15.2,2.9-30.5,3.4-45,2.5c-2.2-11.5-3.9-24-5.1-36.9c16.8,1.8,30.1,0.3,37.1-1c0.9-0.2,1.7-0.5,2.4-0.9c2-1.2,3.3-3.3,3.5-5.7&#10;&#9;&#9;&#9;c0.3-4.2-3-7.8-7.2-7.8c-10.4,0-23.7-2.9-37.6-7.2c-1.1-19.3-1.4-38.8-1.2-56.4c18.2,3.3,34.4,0.2,41.7-1.6c2.3-0.6,4-2.7,3.9-5.1&#10;&#9;&#9;&#9;c-0.1-3-2.7-5.3-5.7-5c-14.2,1.5-27.8-3.3-39.5-10.1c0.9-29.3,2.8-49.8,3.4-49.4C1341.8,843.6,1335.8,949.6,1293.6,995.1z" style="fill: rgb(0, 98, 86); clip-path: url('#SVGID_2_');" transform="matrix(1, 0, 0, 1, 5.684341886080802e-14, 1.4210854715202004e-14)"/><path class="st16" d="M1293.6,995.1c-11.3,12.2-25.2,20-39.6,21.7c-6.4,0.8-12.1-0.8-17.1-4.3c-10.6-7.5-18.1-23.7-23.3-44.4&#10;&#9;&#9;&#9;c20.5,0,36.5-2.4,44.3-3.8c3-0.6,5.1-3.3,4.9-6.3c-0.3-3.6-3.6-6.1-7.1-5.4c-15.2,2.9-30.5,3.4-45,2.5c-2.2-11.5-3.9-24-5.1-36.9&#10;&#9;&#9;&#9;c16.8,1.8,30.1,0.3,37.1-1c0.9-0.2,1.7-0.5,2.4-0.9c2-1.2,3.3-3.3,3.5-5.7c0.3-4.2-3-7.8-7.2-7.8c-10.4,0-23.7-2.9-37.6-7.2&#10;&#9;&#9;&#9;c-1.1-19.3-1.4-38.8-1.2-56.4c18.2,3.3,34.4,0.2,41.7-1.6c2.3-0.6,4-2.7,3.9-5.1c-0.1-3-2.7-5.3-5.7-5&#10;&#9;&#9;&#9;c-14.2,1.5-27.8-3.3-39.5-10.1c0.9-29.3,2.8-49.8,3.4-49.4C1341.8,843.6,1335.8,949.6,1293.6,995.1z" style="opacity: 0.33; fill: rgb(2, 76, 65); clip-path: url('#SVGID_2_');" transform="matrix(1, 0, 0, 1, 5.684341886080802e-14, 1.4210854715202004e-14)"/><path class="st12" d="M1228.3,1031.5c26.3,24.3,56.5,38.8,84.8,34.5c26.1-4,39.9-29.4,47-51.5c1.2-3.8,2.3-7.5,3.1-10.9&#10;&#9;&#9;&#9;c4,1,8.4,2,13,2.8c22.5,3.8,50.3,3.1,65.7-17.5c14.9-19.9,18-47.8,12.6-77.5c-16.3,14.2-31.7,26.6-39.7,32.9&#10;&#9;&#9;&#9;c-3.2,2.5-7.7,2.2-10.6-0.6c-3.4-3.4-3-9.1,0.9-12c15.1-11.4,30.6-27.1,44-42.4c-4.8-15.7-11.7-31.5-20.1-46.4&#10;&#9;&#9;&#9;c-24.4,26.5-53.3,53.1-65.7,64.3c-3.5,3.2-8.8,3.2-12.4,0.1c-4.3-3.7-4.2-10.3,0.1-14c23.1-19.9,46.2-49.5,63.2-73.6&#10;&#9;&#9;&#9;c-12.5-17.4-27.1-32.9-42.7-44.6c-8.2,37.2-24.3,69.5-31.4,82.8c-1.9,3.5-6.4,4.8-9.9,2.8c-3.4-2-4.5-6.4-2.5-9.8&#10;&#9;&#9;&#9;c14.8-25,22.4-58.9,26.3-87.1c-7.6-4.1-15.3-7.2-23.1-9.2c-5.1,28.3-17.5,50.6-24.7,61.5c-2.7,4.1-8.3,4.9-12.1,1.8&#10;&#9;&#9;&#9;c-0.7-0.6-1.3-1.3-1.8-2.1c-1.9-3.1-1.5-7.2,1.2-9.9c12.7-12.8,17.7-33.3,18.9-54c-0.2,0-0.4,0-0.7,0&#10;&#9;&#9;&#9;c-60.5-0.9-111.4-20-111.4-19.9C1200.6,732,1499.5,994.8,1228.3,1031.5z" style="opacity: 0.72; fill: rgb(2, 76, 65); clip-path: url('#SVGID_2_');" transform="matrix(1, 0, 0, 1, 5.684341886080802e-14, 1.4210854715202004e-14)"/><path class="st17" d="M1376.3,1006.4c-4.6-0.8-9-1.7-13-2.8c-0.9,3.5-1.9,7.2-3.1,10.9c-17.3-30.3-156.1-274.3-150.7-271.4&#10;&#9;&#9;&#9;C1214.9,746.1,1354,970.4,1376.3,1006.4z" style="fill: rgb(12, 150, 130); clip-path: url('#SVGID_2_');" transform="matrix(1, 0, 0, 1, 5.684341886080802e-14, 1.4210854715202004e-14)"/><path class="st17" d="M1277.3,860.9c0,0-11.2,4.9-94.5-2.3c0,0,78,13.7,96.2,8.7L1277.3,860.9z" style="fill: rgb(12, 150, 130); clip-path: url('#SVGID_2_');" transform="matrix(1, 0, 0, 1, 5.684341886080802e-14, 1.4210854715202004e-14)"/><path class="st17" d="M1285.8,869.7c0,0,23.6-23,48.2-72.4c0,0-23.8,59-43.7,80L1285.8,869.7z" style="fill: rgb(12, 150, 130); clip-path: url('#SVGID_2_');" transform="matrix(1, 0, 0, 1, 5.684341886080802e-14, 1.4210854715202004e-14)"/><path class="st17" d="M1307.3,907.5c0,0-37,30.7-106.5,20.8c0,0,56.2,18.2,110.7-13.8L1307.3,907.5z" style="fill: rgb(12, 150, 130); clip-path: url('#SVGID_2_');" transform="matrix(1, 0, 0, 1, 5.684341886080802e-14, 1.4210854715202004e-14)"/><path class="st17" d="M1313.2,908.1c0,0,53.5-36.5,62.9-79.5c0,0,3.3,38-60.8,85.3L1313.2,908.1z" style="fill: rgb(12, 150, 130); clip-path: url('#SVGID_2_');" transform="matrix(1, 0, 0, 1, 5.684341886080802e-14, 1.4210854715202004e-14)"/><path class="st17" d="M1325.9,947.9c0,0-45.9,39-105.8,43.6c0,0,51.3,6.4,110.7-39.8L1325.9,947.9z" style="fill: rgb(12, 150, 130); clip-path: url('#SVGID_2_');" transform="matrix(1, 0, 0, 1, 5.684341886080802e-14, 1.4210854715202004e-14)"/><path class="st17" d="M1338.6,955.9c0,0,54.3-28.4,71.3-71.3c0,0,0.9,30.1-67,76L1338.6,955.9z" style="fill: rgb(12, 150, 130); clip-path: url('#SVGID_2_');" transform="matrix(1, 0, 0, 1, 5.684341886080802e-14, 1.4210854715202004e-14)"/><path class="st17" d="M1352.1,982.5c0-0.3,39.2,13.9,82.2-38.3c0,0-20.4,46.1-76.2,48.3L1352.1,982.5z" style="fill: rgb(12, 150, 130); clip-path: url('#SVGID_2_');" transform="matrix(1, 0, 0, 1, 5.684341886080802e-14, 1.4210854715202004e-14)"/><path class="st17" d="M1349.3,989.5c0,0-24.4,52.3-86.1,51.5c0,0,50.6,15.1,93.2-41.6L1349.3,989.5z" style="fill: rgb(12, 150, 130); clip-path: url('#SVGID_2_');" transform="matrix(1, 0, 0, 1, 5.684341886080802e-14, 1.4210854715202004e-14)"/><path class="st11" d="M1221.9,1081.6c1.4,3.1,4.9,4.5,8.1,3.5c8-2.7,23.6-8.1,40.4-14.7c-4.1,24.8-14.3,45.9-31.5,57.3&#10;&#9;&#9;&#9;c-17.8,11.8-39.8,4.6-56.5-4.6c-3.4-1.9-6.6-3.9-9.4-5.8c-1.6,2.5-3.5,5.1-5.5,7.7c-11.8,15.4-29.7,31.4-51.3,27.3&#10;&#9;&#9;&#9;c-23.4-4.5-43.1-24.4-57-50.8c24.2,3.4,47-1.5,57.2-4.2c3.1-0.8,5-4.1,4.1-7.2c-0.8-2.9-3.6-4.8-6.6-4.3&#10;&#9;&#9;&#9;c-27.4,4.5-47.2,3.9-61.6,0.9c-6.5-15.9-11.1-33.3-13.5-50.7c27.2,14.2,52.5,19.3,62.4,20.9c2.5,0.4,4.9-1.2,5.6-3.6&#10;&#9;&#9;&#9;c0.8-2.9-1.1-5.8-4-6.2c-25.5-3.9-48.5-15.5-65.4-26.5c-0.7-13.2-0.1-26.2,2.1-38.2c25.1,24.7,52.3,31.5,63,33.3&#10;&#9;&#9;&#9;c0.7,0.1,1.5,0.1,2.2,0c1.9-0.4,3.5-1.7,4.4-3.5c1.4-3.2-0.2-6.9-3.5-8.1c-17.8-6.3-42.1-27-59.9-43.7&#10;&#9;&#9;&#9;c4.3-10.6,10.2-19.9,17.9-27.1c3-2.8,5.8-5.6,8.6-8.4c16.7,23.3,44.2,27.9,53.9,28.8c2,0.2,3.9-1,4.5-3c0.8-2.4-0.6-4.9-3.1-5.5&#10;&#9;&#9;&#9;c-19.6-4.8-32.8-23.1-40.3-37.1c21.9-26.3,33.9-49.6,33.9-49.6c0,0,34.6,29.2,81.9,46.8c0.2,0.1,0.3,0.1,0.5,0.2&#10;&#9;&#9;&#9;c-6.7,15.9-16.4,30.6-29.9,37.1c-2.9,1.4-4.3,4.5-3.7,7.5c0.1,0.7,0.4,1.4,0.8,2.1c2.1,3.5,6.7,4.4,10,2&#10;&#9;&#9;&#9;c8.7-6.6,24.7-20.6,36.6-41.4c5.5,3.8,10.7,8.4,15.5,13.7c-10.9,21-26.3,45.5-45,61c-2.5,2.1-2.9,5.9-0.7,8.4&#10;&#9;&#9;&#9;c2.2,2.6,6,2.8,8.5,0.6c9.3-8.4,31-29.4,47.8-56.3c9,13.6,16.1,29.8,21.1,47c-20.1,14.1-46.5,30.9-70.2,40.1&#10;&#9;&#9;&#9;c-4.4,1.7-6.3,6.9-4,11c1.9,3.4,6.1,4.9,9.7,3.4c12.9-5.3,43-18.1,69.6-32.2c2.4,14.1,3.4,28.4,2.8,42.1&#10;&#9;&#9;&#9;c-14.8,8.2-31.3,16.3-46.4,21C1222.1,1073.6,1220.1,1077.9,1221.9,1081.6z" style="fill: rgb(0, 98, 86); clip-path: url('#SVGID_2_');" transform="matrix(1, 0, 0, 1, 5.684341886080802e-14, 1.4210854715202004e-14)"/><path class="st11" d="M1120.7,1091c0-0.3-0.1-0.7-0.2-1c-0.8-2.9-3.6-4.8-6.6-4.3c-16.9,2.8-30.9,3.6-42.6,3.1&#10;&#9;&#9;&#9;c-6.2-8.8-7.6-23.7-5.9-41.4c16.1,5.7,29.3,8.3,35.8,9.4c2.5,0.4,4.9-1.2,5.6-3.6c0.8-2.9-1.1-5.8-4-6.2&#10;&#9;&#9;&#9;c-12.8-1.9-24.9-5.8-36-10.6c1.5-9.7,3.6-20,6.3-30.4c12.7,6.1,23.6,8.6,29.4,9.6c0.7,0.1,1.5,0.1,2.2,0c1.9-0.4,3.5-1.7,4.4-3.5&#10;&#9;&#9;&#9;c1.4-3.2-0.2-6.9-3.5-8.1c-8.2-2.9-17.8-8.9-27.5-16.1c4.5-15.5,9.7-30.8,14.8-44.7c13.4,7.7,27,9.8,33.2,10.4c2,0.2,3.9-1,4.5-3&#10;&#9;&#9;&#9;c0.8-2.4-0.6-4.9-3.1-5.5c-11.6-2.8-20.9-10.4-28.2-18.9c8.9-22.8,16.1-38.3,16.5-37.9C1200.8,985.6,1166.4,1067.1,1120.7,1091z" style="fill: rgb(0, 98, 86); clip-path: url('#SVGID_2_');" transform="matrix(1, 0, 0, 1, 5.684341886080802e-14, 1.4210854715202004e-14)"/><path class="st16" d="M1120.7,1091c-12.3,6.4-25.3,8.7-37.2,6c-5.3-1.2-9.3-4-12.2-8.2c-6.2-8.8-7.6-23.7-5.9-41.4&#10;&#9;&#9;&#9;c16.1,5.7,29.3,8.3,35.8,9.4c2.5,0.4,4.9-1.2,5.6-3.6c0.8-2.9-1.1-5.8-4-6.2c-12.8-1.9-24.9-5.8-36-10.6c1.5-9.7,3.6-20,6.3-30.4&#10;&#9;&#9;&#9;c12.7,6.1,23.6,8.6,29.4,9.6c0.7,0.1,1.5,0.1,2.2,0c1.9-0.4,3.5-1.7,4.4-3.5c1.4-3.2-0.2-6.9-3.5-8.1c-8.2-2.9-17.8-8.9-27.5-16.1&#10;&#9;&#9;&#9;c4.5-15.5,9.7-30.8,14.8-44.7c13.4,7.7,27,9.8,33.2,10.4c2,0.2,3.9-1,4.5-3c0.8-2.4-0.6-4.9-3.1-5.5&#10;&#9;&#9;&#9;c-11.6-2.8-20.9-10.4-28.2-18.9c8.9-22.8,16.1-38.3,16.5-37.9C1200.8,985.6,1166.4,1067.1,1120.7,1091z" style="opacity: 0.33; fill: rgb(2, 76, 65); clip-path: url('#SVGID_2_');" transform="matrix(1, 0, 0, 1, 5.684341886080802e-14, 1.4210854715202004e-14)"/><path class="st12" d="M1059.2,1101.4c13.9,26.4,33.5,46.3,57,50.8c21.6,4.2,39.5-11.9,51.3-27.3c2-2.6,3.9-5.2,5.5-7.7&#10;&#9;&#9;&#9;c2.9,1.9,6,3.9,9.4,5.8c16.6,9.3,38.7,16.5,56.5,4.6c17.3-11.5,27.5-32.5,31.5-57.3c-16.8,6.6-32.3,12-40.4,14.7&#10;&#9;&#9;&#9;c-3.2,1.1-6.7-0.4-8.1-3.5c-1.7-3.7,0.2-8,4.1-9.2c15.1-4.7,31.6-12.8,46.4-21c0.6-13.7-0.4-28-2.8-42.1&#10;&#9;&#9;&#9;c-26.6,14-56.7,26.8-69.6,32.2c-3.6,1.5-7.8,0-9.7-3.4c-2.3-4.1-0.4-9.3,4-11c23.7-9.2,50.1-26,70.2-40.1&#10;&#9;&#9;&#9;c-5-17.2-12.1-33.4-21.1-47c-16.8,26.9-38.5,47.8-47.8,56.3c-2.5,2.3-6.3,2-8.5-0.6c-2.1-2.5-1.8-6.3,0.7-8.4&#10;&#9;&#9;&#9;c18.6-15.5,34.1-40,45-61c-4.8-5.3-10-9.9-15.5-13.7c-11.9,20.8-27.9,34.8-36.6,41.4c-3.2,2.5-7.9,1.6-10-2&#10;&#9;&#9;&#9;c-0.4-0.7-0.7-1.4-0.8-2.1c-0.6-3,0.9-6.1,3.7-7.5c13.6-6.5,23.2-21.2,29.9-37.1c-0.2-0.1-0.3-0.1-0.5-0.2&#10;&#9;&#9;&#9;c-47.3-17.6-81.9-46.8-81.9-46.8C1121.1,858.5,1282.4,1148.3,1059.2,1101.4z" style="opacity: 0.72; fill: rgb(2, 76, 65); clip-path: url('#SVGID_2_');" transform="matrix(1, 0, 0, 1, 5.684341886080802e-14, 1.4210854715202004e-14)"/><path class="st17" d="M1182.4,1123c-3.4-1.9-6.6-3.9-9.4-5.8c-1.6,2.5-3.5,5.1-5.5,7.7c-5.1-28.6-46-259-42.5-255.2&#10;&#9;&#9;&#9;C1128.3,873.5,1174.9,1088.5,1182.4,1123z" style="fill: rgb(12, 150, 130); clip-path: url('#SVGID_2_');" transform="matrix(1, 0, 0, 1, 5.684341886080802e-14, 1.4210854715202004e-14)"/><path class="st17" d="M1145.3,981.2c0,0-10.2,0.7-73.5-28.2c0,0,57.4,32.5,73.1,33.7L1145.3,981.2z" style="fill: rgb(12, 150, 130); clip-path: url('#SVGID_2_');" transform="matrix(1, 0, 0, 1, 5.684341886080802e-14, 1.4210854715202004e-14)"/><path class="st17" d="M1149.5,990.4c0,0,25-11.4,58.1-43.4c0,0-35.2,39.7-56.6,50.6L1149.5,990.4z" style="fill: rgb(12, 150, 130); clip-path: url('#SVGID_2_');" transform="matrix(1, 0, 0, 1, 5.684341886080802e-14, 1.4210854715202004e-14)"/><path class="st17" d="M1160.3,1028.2c0,0,52.2-13.7,71.5-44.8c0,0-8,30.8-71.6,50L1160.3,1028.2z" style="fill: rgb(12, 150, 130); clip-path: url('#SVGID_2_');" transform="matrix(1, 0, 0, 1, 5.684341886080802e-14, 1.4210854715202004e-14)"/><g transform="matrix(1, 0, 0, 1, 5.684341886080802e-14, 1.4210854715202004e-14)" style="clip-path: url('#SVGID_2_');">
			<path class="st11" d="M821.8,1124.2c14.9,7.5,57.5,39.6,57.5,39.6s-61.9-91.9-56.3-102c5.6-10.1,47.5,29.1,47.5,29.1&#10;&#9;&#9;&#9;&#9;s-41.1-113.7-30.2-115.3c10.8-1.6,39.3,51.2,39.3,51.2s2.4-123.7,18.6-122.8c16.2,0.9,27.4,136.9,27.4,136.9s13.9-68.8,33.6-63&#10;&#9;&#9;&#9;&#9;c19.7,5.8-13.5,111.5-13.5,111.5s25.6-49.4,38-40.1c12.4,9.2-28.8,92.6-28.8,92.6s33.7-34.2,42-28c8.3,6.2-75.8,162-75.8,162&#10;&#9;&#9;&#9;&#9;S806.9,1116.7,821.8,1124.2z" style="fill: rgb(0, 98, 86);"/>
			<path class="st19" d="M921,1275.7c0,0,84.1-155.8,75.8-162c-8.3-6.2-42,28-42,28s41.2-83.3,28.8-92.6c-12.4-9.2-38,40.1-38,40.1&#10;&#9;&#9;&#9;&#9;s33.3-105.7,13.5-111.5s-33.6,63-33.6,63s-11.2-136-27.4-136.9c-0.6,0-1.1,0.1-1.6,0.4c5.5,36.1,33.3,241-32.8,289.7&#10;&#9;&#9;&#9;&#9;C890.9,1233.7,921,1275.7,921,1275.7z" style="opacity: 0.15; fill: rgb(247, 252, 237);"/>
			<path class="st17" d="M921.1,1300.3c0,0-22.9-368.4-21-367.8c1.9,0.5,29.3,367,29.3,367L921.1,1300.3z" style="fill: rgb(12, 150, 130);"/>
			<path class="st17" d="M911.6,1146.2c0,0-57.2-58.5-59.5-56.8s59.4,65.4,59.4,65.4L911.6,1146.2z" style="fill: rgb(12, 150, 130);"/>
			<path class="st17" d="M918.3,1221.9c0,0-53-56.1-54.2-54.8s54.3,64,54.3,64l-0.2-17.6" style="fill: rgb(12, 150, 130);"/>
			<path class="st17" d="M920.9,1214.6c0,0,37.4-57.9,40.7-56.6c3.3,1.3-40.4,67.7-40.4,67.7L920.9,1214.6z" style="fill: rgb(12, 150, 130);"/>
			<path class="st17" d="M915.7,1149.7c0,0,40.4-58.2,43.3-56.6c2.9,1.5-40.2,63.9-40.2,63.9L915.7,1149.7z" style="fill: rgb(12, 150, 130);"/>
		</g>
</svg>