<svg xmlns="http://www.w3.org/2000/svg" id="master-artboard" width="720" height="503.999" x="0" y="0" enable-background="new 0 0 720 503.999" version="1.1" viewBox="0 0 720 503.999"><symbol id="New_Symbol" viewBox="-0.763 -0.763 1.526 1.525"><path fill="#FFF" d="M0.763,0c0-0.421-0.342-0.762-0.763-0.762S-0.763-0.421-0.763,0S-0.421,0.763,0,0.763S0.763,0.42,0.763,0z"/></symbol><linearGradient id="SVGID_1_" x1="360" x2="360" y1="503.999" y2="0" gradientUnits="userSpaceOnUse"><stop offset=".015" style="stop-color:#699573"/><stop offset=".245" style="stop-color:#8eab87"/><stop offset=".612" style="stop-color:#d1d2aa"/><stop offset=".926" style="stop-color:#efe199"/></linearGradient><path fill="url(#SVGID_1_)" d="M 0 0 H 720 V 503.998993 H 0 V 0 Z"/><path fill="#5B7768" d="M 389.0060119628906 409.78900146484375 L 419.5820007324219 396.6239929199219 L 554.1599731445312 438.2659912109375 L 461.7770080566406 427.1629943847656 Z" opacity=".3"/><path fill="#F2E9E4" d="M-0.445,212.083c0,0,84.68,76.171,147.45,58.512c0,0,3.18,12.456-38.615,22.507	c-40.877,9.83-109.085-12.154-109.085-12.154L-0.445,212.083z" opacity=".5"/><path fill="#5B7768" d="M 256.9830017089844 418.3340148925781 L 317 393.1820068359375 L 546.0449829101562 446.0090026855469 L 260.3609924316406 457.1310119628906 Z" opacity=".4"/><path fill="#FFFADE" d="M 464.7179870605469 417.92498779296875 L 561.7340087890625 384.68798828125 L 616.5260009765625 447.99200439453125 L 354.60699462890625 450.0719909667969 Z" opacity=".2"/><path fill="#F2E9E4" d="M0,127.671c6.349,3,110.081,90.478,276.095,58.979s81.206-75.692,83.905-86.192	s-41.035-67.432,97.566-53.857s262.311,0,262.311,0v76.57c0,0-69.517-37.498-126.306,6c-56.79,43.498-122.926-47.997-147.22,47.998	c-24.295,95.995-134.971,101.994-184.909,82.495c-49.939-19.499-167.363-55.496-191.658-64.496S0,166.669,0,166.669	C0,140.084,0,140.084,0,127.671z" opacity=".4"/><g><g><path fill="#0B1110" d="M 242.21800231933594 325.68798828125 L 220.45799255371094 456.4930114746094 L 242.33999633789062 452.67999267578125 L 263.1189880371094 458.61700439453125 L 253.11500549316406 392.9330139160156 Z"/><path fill="#495A58" d="M 242.18499755859375 325.50799560546875 L 242.18499755859375 383.2860107421875 L 257.2019958496094 405.8970031738281 L 251.20199584960938 373.7760009765625 L 245.37399291992188 362.2120056152344 L 250.4770050048828 368.0169982910156 Z"/><path fill="#495A58" d="M 242.18499755859375 386.08599853515625 L 257.2049865722656 408.3800048828125 L 261.52899169921875 440.5580139160156 L 242.18499755859375 394.4859924316406 Z"/><path fill="#495A58" d="M 242.947998046875 400.47198486328125 L 262.0150146484375 443.6860046386719 L 262.4469909667969 450.8210144042969 L 242.947998046875 437.7080078125 Z"/><path fill="#495A58" d="M 242.947998046875 440.5580139160156 L 242.947998046875 450.8210144042969 L 263.1189880371094 455.8399963378906 L 262.4469909667969 452.41900634765625 Z"/><path fill="#1A231F" d="M 241.75999450683594 328.64801025390625 L 241.75999450683594 382.60699462890625 L 230.89999389648438 391.4309997558594 L 234.802001953125 368.8760070800781 L 240.27099609375 360.0400085449219 L 235.75599670410156 363.35699462890625 Z"/><path fill="#1A231F" d="M 241.75999450683594 385.15399169921875 L 241.75999450683594 395.3340148925781 L 226.9980010986328 410.4360046386719 L 230.89999389648438 394.31500244140625 Z"/><path fill="#1A231F" d="M242.185,400.472l-15.842,13.654c0,0-1.315,7.31-2.791,15.645c-0.128,0.724,14.283-13.117,14.283-13.117 l-15.412,19.526c-1.758,9.987-3.063,17.612-2.892,17.529c0.339-0.172,22.653-3.207,22.653-3.207V400.472z"/></g><path fill="#CEC8B2" d="M263.119,455.84l-0.672-3.421l-0.3-0.182l-0.274-1.804l0.574,0.388l-0.432-7.136 l-1.788-4.054l-0.519-3.413l1.821,4.339l-4.324-32.178l-2.245-3.333l-0.5-3.277l2.742,4.128l-6-32.121l-1.756-3.483l-0.685-4.227 l1.716,1.95l-8.292-42.509v0.384l-1.33,7.994l-5.099,29.472l0.223-0.164l-0.86,5.172l-0.317,0.511l-3.902,22.555l0.441-0.357 l-0.757,4.546l-3.587,14.816l1.353-1.383l-0.649,3.903l-1.358,1.17c0,0-1.315,7.31-2.791,15.645 c-0.026,0.15,0.579-0.333,1.549-1.186l-0.886,5.323l-1.792,2.271c-1.758,9.987-3.063,17.612-2.892,17.529 c0.049-0.027,0.579-0.114,1.431-0.242l-0.503,3.026l21.882-3.813l20.778,5.938l-0.439-2.888L263.119,455.84z" opacity=".4"/></g><g><path fill="#ACB18E" d="M 87.959 -0.906 H 98.297999 V 435.97901 H 87.959 V -0.906 Z"/><path fill="#ACB18E" d="M 98.2979965209961 47.80099868774414 L 113.16799926757812 34.18899917602539 L 119.69499969482422 -1.125 L 120.9489974975586 -1.125 L 115.93599700927734 37.3380012512207 L 98.2979965209961 56.34400177001953 Z"/><path fill="#ACB18E" d="M87.959,27.609L75.829-1.125h-1.88c0,0,14.01,36.935,14.01,38.34S87.959,27.609,87.959,27.609z"/></g><g><path fill="#ACB18E" d="M 606.992981 -0.906 H 617.331981 V 435.97901 H 606.992981 V -0.906 Z"/><path fill="#ACB18E" d="M 606.9929809570312 47.80099868774414 L 592.1229858398438 34.18899917602539 L 585.5960083007812 -1.125 L 584.343017578125 -1.125 L 589.35498046875 37.3380012512207 L 606.9929809570312 56.34400177001953 Z"/><path fill="#ACB18E" d="M617.332,27.609l12.13-28.735h1.881c0,0-14.011,36.935-14.011,38.34S617.332,27.609,617.332,27.609z"/></g><path fill="#ACB18E" d="M 14.91 0 H 24.371 V 436.884003 H 14.91 V 0 Z"/><g><path fill="#5B7768" d="M299.336,503.999l228.83-0.646l0.002-21.64l-51.735-25.015l14.419,14.419l-20.306-12.948 c0,0-40.905-24.133-42.081-24.426c-1.178-0.294,5.59,10.595,5.59,10.595l-71.952-26.34l-35.314,26.487l18.393-6.622l-33.548,28.84 l38.258-13.538l-47.676,29.431L299.336,503.999z"/><path fill="#ACB18E" d="M 191.83200073242188 503.9989929199219 L 349.0830078125 417.9989929199219 L 343.3450012207031 426.8280029296875 L 362.6210021972656 417.9989929199219 L 327.3070068359375 444.4859924316406 L 345.08599853515625 438.08599853515625 L 312.1510009765625 466.7040100097656 L 350.4070129394531 453.1659851074219 L 302.7330017089844 482.59698486328125 L 299.33599853515625 503.9989929199219 Z"/><path fill="#ACB18E" d="M428.465,433.744l5.59,10.595l-26.846-9.826"/><path fill="#FFFADE" d="M 469.5880126953125 457.6050109863281 L 476.4330139160156 456.6990051269531 L 490.85198974609375 471.1180114746094 Z" opacity=".2"/><path fill="#5B7768" d="M 362.1029968261719 417.9989929199219 L 348.56500244140625 417.9989929199219 L 342.82598876953125 426.8280029296875 Z"/></g><g><g><path fill="#0B1110" d="M 527.9299926757812 276.2959899902344 L 498.2049865722656 454.97698974609375 L 528.0969848632812 449.7669982910156 L 556.47900390625 457.87701416015625 L 542.8140258789062 368.1510009765625 Z"/><path fill="#495A58" d="M 527.8829956054688 276.052001953125 L 527.8829956054688 354.97698974609375 L 548.39697265625 385.8630065917969 L 540.2020263671875 341.9849853515625 L 532.2379760742188 326.18798828125 L 539.2109985351562 334.11700439453125 Z"/><path fill="#495A58" d="M 527.8829956054688 358.8009948730469 L 548.4019775390625 389.2550048828125 L 554.3070068359375 433.2070007324219 L 527.8829956054688 370.2749938964844 Z"/><path fill="#495A58" d="M 528.927978515625 378.45098876953125 L 554.9710083007812 437.4809875488281 L 555.5609741210938 447.22900390625 L 528.927978515625 429.3139953613281 Z"/><path fill="#495A58" d="M 528.927978515625 433.2070007324219 L 528.927978515625 447.22900390625 L 556.47900390625 454.0820007324219 L 555.5609741210938 449.4110107421875 Z"/><path fill="#1A231F" d="M 527.302978515625 280.3420104980469 L 527.302978515625 354.04998779296875 L 512.468994140625 366.10198974609375 L 517.802001953125 335.2919921875 L 525.27099609375 323.22100830078125 L 519.10400390625 327.7539978027344 Z"/><path fill="#1A231F" d="M 527.302978515625 357.5260009765625 L 527.302978515625 371.4339904785156 L 507.1369934082031 392.06201171875 L 512.468994140625 370.0419921875 Z"/><path fill="#1A231F" d="M527.883,378.451l-21.639,18.65c0,0-1.799,9.987-3.812,21.372c-0.177,0.989,19.511-17.919,19.511-17.919 l-21.054,26.672c-2.401,13.643-4.186,24.061-3.95,23.947c0.464-0.236,30.943-4.383,30.943-4.383V378.451z"/></g><path fill="#CEC8B2" d="M556.479,454.082l-0.918-4.671l-0.408-0.249l-0.375-2.462l0.783,0.528l-0.59-9.747 l-2.441-5.538l-0.71-4.663l2.487,5.927l-5.904-43.952l-3.067-4.554l-0.683-4.478l3.745,5.64l-8.195-43.878l-2.4-4.757l-0.935-5.777 l2.344,2.666l-11.328-58.065v0.524l-1.816,10.919l-6.963,40.259l0.302-0.224l-1.174,7.063l-0.43,0.698l-5.333,30.81l0.602-0.488 l-1.034,6.21l-4.899,20.239l1.85-1.89l-0.888,5.332l-1.854,1.597c0,0-1.799,9.987-3.812,21.372 c-0.039,0.204,0.79-0.456,2.114-1.622l-1.211,7.275l-2.446,3.1c-2.401,13.643-4.186,24.061-3.95,23.947 c0.066-0.04,0.792-0.157,1.953-0.332l-0.688,4.135l29.892-5.21l28.382,8.11l-0.599-3.944L556.479,454.082z" opacity=".4"/></g><g><g><path fill="#0B1110" d="M 612.39501953125 303.99798583984375 L 596.635986328125 398.7309875488281 L 612.4829711914062 395.9700012207031 L 627.531005859375 400.2699890136719 L 620.2869873046875 352.697998046875 Z"/><path fill="#495A58" d="M 612.3699951171875 303.8680114746094 L 612.3699951171875 345.7139892578125 L 623.2459716796875 362.0889892578125 L 618.9010009765625 338.82501220703125 L 614.6799926757812 330.45001220703125 L 618.3759765625 334.65399169921875 Z"/><path fill="#495A58" d="M 612.3699951171875 347.739990234375 L 623.2490234375 363.8869934082031 L 626.3790283203125 387.1889953613281 L 612.3699951171875 353.8240051269531 Z"/><path fill="#495A58" d="M 612.9240112304688 358.15899658203125 L 626.7310180664062 389.45599365234375 L 627.0449829101562 394.6239929199219 L 612.9240112304688 385.12701416015625 Z"/><path fill="#495A58" d="M 612.9240112304688 387.1889953613281 L 612.9240112304688 394.6239929199219 L 627.531005859375 398.25799560546875 L 627.0449829101562 395.781005859375 Z"/><path fill="#1A231F" d="M 612.06201171875 306.14300537109375 L 612.06201171875 345.22198486328125 L 604.197998046875 351.6109924316406 L 607.0239868164062 335.2770080566406 L 610.9849853515625 328.87701416015625 L 607.7150268554688 331.2799987792969 Z"/><path fill="#1A231F" d="M 612.06201171875 347.06500244140625 L 612.06201171875 354.43798828125 L 601.3709716796875 365.3760070800781 L 604.197998046875 353.70001220703125 Z"/><path fill="#1A231F" d="M612.37,358.159l-11.473,9.889c0,0-0.954,5.294-2.021,11.331c-0.094,0.523,10.344-9.5,10.344-9.5 l-11.162,14.141c-1.273,7.233-2.219,12.756-2.095,12.695c0.246-0.124,16.406-2.323,16.406-2.323V358.159z"/></g><path fill="#CEC8B2" d="M627.531,398.258l-0.486-2.477l-0.217-0.132l-0.199-1.306l0.416,0.28l-0.313-5.168 l-1.294-2.937l-0.377-2.472l1.318,3.142l-3.13-23.303l-1.626-2.414l-0.362-2.374l1.985,2.99l-4.345-23.264l-1.272-2.521 l-0.496-3.062l1.243,1.413l-6.006-30.786v0.278l-0.963,5.789l-3.692,21.345l0.16-0.119l-0.622,3.745l-0.229,0.371l-2.826,16.334 l0.318-0.259l-0.548,3.292l-2.598,10.731l0.98-1.002l-0.471,2.826l-0.983,0.848c0,0-0.954,5.294-2.021,11.331 c-0.021,0.108,0.419-0.242,1.121-0.86l-0.643,3.856l-1.297,1.645c-1.273,7.233-2.219,12.756-2.095,12.695 c0.036-0.021,0.421-0.083,1.035-0.176l-0.363,2.192l15.848-2.762l15.048,4.3l-0.317-2.091L627.531,398.258z" opacity=".4"/></g><g><g><path fill="#0B1110" d="M 486.56201171875 341.0329895019531 L 468.3080139160156 450.76800537109375 L 486.6650085449219 447.5669860839844 L 504.09600830078125 452.54901123046875 L 495.7040100097656 397.4440002441406 Z"/><path fill="#495A58" d="M 486.53399658203125 340.88299560546875 L 486.53399658203125 389.35400390625 L 499.13299560546875 408.3219909667969 L 494.1000061035156 381.375 L 489.2090148925781 371.67401123046875 L 493.489990234375 376.54400634765625 Z"/><path fill="#495A58" d="M 486.53399658203125 391.7019958496094 L 499.135986328125 410.4049987792969 L 502.7619934082031 437.3970031738281 L 486.53399658203125 398.7489929199219 Z"/><path fill="#495A58" d="M 487.1759948730469 403.77099609375 L 503.1700134277344 440.02301025390625 L 503.531005859375 446.0090026855469 L 487.1759948730469 435.00799560546875 Z"/><path fill="#495A58" d="M 487.1759948730469 437.3970031738281 L 487.1759948730469 446.0090026855469 L 504.09600830078125 450.218994140625 L 503.531005859375 447.3500061035156 Z"/><path fill="#1A231F" d="M 486.1780090332031 343.51800537109375 L 486.1780090332031 388.78399658203125 L 477.0669860839844 396.1860046386719 L 480.3420104980469 377.2650146484375 L 484.92999267578125 369.85101318359375 L 481.1419982910156 372.635986328125 Z"/><path fill="#1A231F" d="M 486.1780090332031 390.9200134277344 L 486.1780090332031 399.4599914550781 L 473.7929992675781 412.1300048828125 L 477.0669860839844 398.6050109863281 Z"/><path fill="#1A231F" d="M486.534,403.771l-13.29,11.454c0,0-1.104,6.133-2.341,13.125c-0.108,0.607,11.982-11.004,11.982-11.004 l-12.929,16.38c-1.476,8.379-2.571,14.775-2.428,14.706c0.285-0.145,19.005-2.691,19.005-2.691V403.771z"/></g><path fill="#CEC8B2" d="M504.096,450.219l-0.564-2.869l-0.25-0.153l-0.23-1.512l0.48,0.324l-0.361-5.985l-1.5-3.402 l-0.436-2.863l1.527,3.64l-3.626-26.992l-1.884-2.797l-0.42-2.75l2.301,3.464l-5.033-26.947l-1.475-2.921l-0.574-3.548l1.439,1.638 l-6.956-35.661v0.322l-1.116,6.706l-4.276,24.725l0.186-0.139l-0.722,4.339l-0.264,0.429l-3.274,18.921l0.37-0.3l-0.636,3.813 l-3.009,12.431l1.136-1.161l-0.545,3.274l-1.14,0.981c0,0-1.104,6.133-2.341,13.125c-0.023,0.126,0.485-0.28,1.299-0.996 l-0.743,4.468l-1.502,1.904c-1.476,8.379-2.571,14.775-2.428,14.706c0.042-0.023,0.487-0.097,1.199-0.203l-0.421,2.539l18.357-3.2 l17.431,4.981l-0.368-2.422L504.096,450.219z" opacity=".4"/></g><g><g><path fill="#0B1110" d="M 273.8330078125 370.55999755859375 L 260.3869934082031 451.385009765625 L 273.90899658203125 449.0270080566406 L 286.74700927734375 452.6960144042969 L 280.5660095214844 412.1090087890625 Z"/><path fill="#495A58" d="M 273.81201171875 370.45098876953125 L 273.81201171875 406.1510009765625 L 283.09100341796875 420.1210021972656 L 279.3840026855469 400.27398681640625 L 275.7820129394531 393.1289978027344 L 278.9360046386719 396.71600341796875 Z"/><path fill="#495A58" d="M 273.81201171875 407.8800048828125 L 283.0929870605469 421.6549987792969 L 285.7640075683594 441.5369873046875 L 273.81201171875 413.07000732421875 Z"/><path fill="#495A58" d="M 274.2850036621094 416.7699890136719 L 286.0639953613281 443.4700012207031 L 286.33099365234375 447.8800048828125 L 274.2850036621094 439.7760009765625 Z"/><path fill="#495A58" d="M 274.2850036621094 441.5369873046875 L 274.2850036621094 447.8800048828125 L 286.74700927734375 450.9800109863281 L 286.33099365234375 448.8659973144531 Z"/><path fill="#1A231F" d="M 273.54998779296875 372.3909912109375 L 273.54998779296875 405.7300109863281 L 266.8399963378906 411.1839904785156 L 269.2510070800781 397.24700927734375 L 272.6300048828125 391.7860107421875 L 269.84100341796875 393.8370056152344 Z"/><path fill="#1A231F" d="M 273.54998779296875 407.30499267578125 L 273.54998779296875 413.5950012207031 L 264.4280090332031 422.927001953125 L 266.8399963378906 412.9649963378906 Z"/><path fill="#1A231F" d="M273.812,416.77l-9.789,8.437c0,0-0.813,4.518-1.724,9.667c-0.081,0.447,8.826-8.106,8.826-8.106 l-9.523,12.065c-1.086,6.171-1.893,10.883-1.787,10.831c0.209-0.105,13.998-1.98,13.998-1.98V416.77z"/></g><path fill="#CEC8B2" d="M286.747,450.98l-0.416-2.114l-0.185-0.112l-0.169-1.113l0.354,0.239l-0.267-4.41 l-1.104-2.505l-0.322-2.107l1.125,2.68l-2.671-19.882l-1.387-2.059l-0.31-2.025l1.694,2.55l-3.708-19.847l-1.085-2.151 l-0.423-2.613l1.061,1.206l-5.124-26.265v0.236l-0.823,4.938l-3.149,18.211l0.137-0.101l-0.532,3.194l-0.194,0.316l-2.412,13.937 l0.272-0.222l-0.468,2.81l-2.216,9.155l0.837-0.855l-0.402,2.412l-0.839,0.723c0,0-0.813,4.518-1.724,9.667 c-0.018,0.092,0.357-0.206,0.957-0.734l-0.548,3.291l-1.106,1.402c-1.086,6.171-1.893,10.883-1.787,10.831 c0.03-0.017,0.358-0.07,0.884-0.149l-0.312,1.871l13.521-2.357l12.838,3.669l-0.271-1.784L286.747,450.98z" opacity=".4"/></g><g><g><path fill="#0B1110" d="M 301.5610046386719 415.31201171875 L 292.6889953613281 468.6440124511719 L 301.6109924316406 467.0880126953125 L 310.0820007324219 469.5090026855469 L 306.00299072265625 442.7279968261719 Z"/><path fill="#495A58" d="M 301.5469970703125 415.239013671875 L 301.5469970703125 438.7959899902344 L 307.6700134277344 448.0150146484375 L 305.2239990234375 434.9179992675781 L 302.84698486328125 430.2030029296875 L 304.9280090332031 432.57000732421875 Z"/><path fill="#495A58" d="M 301.5469970703125 439.93701171875 L 307.6709899902344 449.0260009765625 L 309.4339904785156 462.14599609375 L 301.5469970703125 443.3609924316406 Z"/><path fill="#495A58" d="M 301.8590087890625 445.8030090332031 L 309.6319885253906 463.4209899902344 L 309.8080139160156 466.33099365234375 L 301.8590087890625 460.9830017089844 Z"/><path fill="#495A58" d="M 301.8590087890625 462.14599609375 L 301.8590087890625 466.33099365234375 L 310.0820007324219 468.37701416015625 L 309.8080139160156 466.9809875488281 Z"/><path fill="#1A231F" d="M 301.3739929199219 416.5199890136719 L 301.3739929199219 438.5190124511719 L 296.9460144042969 442.11700439453125 L 298.5379943847656 432.9209899902344 L 300.7669982910156 429.3169860839844 L 298.927001953125 430.6700134277344 Z"/><path fill="#1A231F" d="M 301.3739929199219 439.5580139160156 L 301.3739929199219 443.7080078125 L 295.3550109863281 449.864990234375 L 296.9460144042969 443.2919921875 Z"/><path fill="#1A231F" d="M301.547,445.803l-6.459,5.566c0,0-0.536,2.98-1.137,6.379c-0.053,0.295,5.823-5.349,5.823-5.349 l-6.284,7.961c-0.717,4.072-1.249,7.181-1.179,7.146c0.138-0.069,9.236-1.307,9.236-1.307V445.803z"/></g><path fill="#CEC8B2" d="M310.082,468.377l-0.274-1.396l-0.122-0.074l-0.112-0.734l0.233,0.158l-0.176-2.91 l-0.728-1.653l-0.212-1.391l0.742,1.769l-1.763-13.119l-0.915-1.358l-0.204-1.337l1.118,1.684l-2.446-13.097l-0.716-1.42 l-0.28-1.724l0.7,0.796l-3.381-17.331v0.156l-0.543,3.259l-2.078,12.016l0.09-0.066l-0.351,2.108l-0.128,0.209l-1.591,9.196 l0.18-0.146l-0.309,1.854l-1.462,6.041l0.552-0.564l-0.265,1.592l-0.554,0.477c0,0-0.536,2.98-1.137,6.379 c-0.012,0.061,0.236-0.136,0.631-0.484l-0.362,2.172l-0.73,0.925c-0.717,4.072-1.249,7.181-1.179,7.146 c0.02-0.011,0.237-0.046,0.583-0.099l-0.205,1.235l8.922-1.556l8.471,2.421l-0.179-1.178L310.082,468.377z" opacity=".4"/></g><g><g><path fill="#0B1110" d="M 418.6929931640625 431.62701416015625 L 410.0880126953125 483.35699462890625 L 418.74200439453125 481.8479919433594 L 426.9590148925781 484.1969909667969 L 423.00299072265625 458.2200012207031 Z"/><path fill="#495A58" d="M 418.67999267578125 431.5570068359375 L 418.67999267578125 454.406005859375 L 424.6189880371094 463.3479919433594 L 422.2460021972656 450.64599609375 L 419.9410095214844 446.0710144042969 L 421.9590148925781 448.3680114746094 Z"/><path fill="#495A58" d="M 418.67999267578125 455.51300048828125 L 424.6199951171875 464.3299865722656 L 426.3299865722656 477.0539855957031 L 418.67999267578125 458.8340148925781 Z"/><path fill="#495A58" d="M 418.98199462890625 461.2019958496094 L 426.52099609375 478.2909851074219 L 426.6919860839844 481.114013671875 L 418.98199462890625 475.9280090332031 Z"/><path fill="#495A58" d="M 418.98199462890625 477.0539855957031 L 418.98199462890625 481.114013671875 L 426.9590148925781 483.1000061035156 L 426.6919860839844 481.7460021972656 Z"/><path fill="#1A231F" d="M 418.5119934082031 432.7980041503906 L 418.5119934082031 454.1369934082031 L 414.2179870605469 457.62701416015625 L 415.760986328125 448.7070007324219 L 417.92401123046875 445.2130126953125 L 416.1390075683594 446.52398681640625 Z"/><path fill="#1A231F" d="M 418.5119934082031 455.14599609375 L 418.5119934082031 459.1709899902344 L 412.67401123046875 465.14300537109375 L 414.2179870605469 458.7669982910156 Z"/><path fill="#1A231F" d="M418.68,461.202l-6.265,5.399c0,0-0.521,2.893-1.104,6.188c-0.052,0.286,5.649-5.188,5.649-5.188 l-6.096,7.722c-0.695,3.949-1.212,6.965-1.145,6.932c0.135-0.067,8.959-1.268,8.959-1.268V461.202z"/></g><path fill="#CEC8B2" d="M426.959,483.1l-0.267-1.354l-0.118-0.072l-0.108-0.712l0.227,0.152l-0.171-2.823 l-0.705-1.603l-0.207-1.35l0.721,1.715l-1.71-12.724l-0.888-1.317l-0.197-1.298l1.084,1.633l-2.373-12.702l-0.695-1.377 l-0.27-1.674l0.678,0.773l-3.279-16.812v0.152l-0.525,3.159l-2.016,11.656l0.087-0.064l-0.341,2.044l-0.124,0.203l-1.543,8.92 l0.174-0.141l-0.3,1.797l-1.418,5.859l0.535-0.546l-0.257,1.543l-0.537,0.462c0,0-0.521,2.893-1.104,6.188 c-0.011,0.059,0.229-0.133,0.612-0.471l-0.351,2.106l-0.708,0.897c-0.695,3.949-1.212,6.965-1.145,6.932 c0.02-0.01,0.23-0.045,0.565-0.095l-0.198,1.197l8.654-1.51l8.217,2.35l-0.174-1.143L426.959,483.1z" opacity=".4"/></g><g><g><path fill="#0B1110" d="M 453.9930114746094 373.48199462890625 L 436.4179992675781 479.1289978027344 L 454.0920104980469 476.0480041503906 L 470.87298583984375 480.843994140625 L 462.79400634765625 427.7919921875 Z"/><path fill="#495A58" d="M 453.96600341796875 373.3380126953125 L 453.96600341796875 420.00299072265625 L 466.0950012207031 438.2659912109375 L 461.2489929199219 412.3210144042969 L 456.5409851074219 402.9809875488281 L 460.6629943847656 407.6700134277344 Z"/><path fill="#495A58" d="M 453.96600341796875 422.2640075683594 L 466.0979919433594 440.27099609375 L 469.5889892578125 466.2569885253906 L 453.96600341796875 429.04901123046875 Z"/><path fill="#495A58" d="M 454.5830078125 433.88299560546875 L 469.9809875488281 468.7850036621094 L 470.3299865722656 474.5480041503906 L 454.5830078125 463.95599365234375 Z"/><path fill="#495A58" d="M 454.5830078125 466.2569885253906 L 454.5830078125 474.5480041503906 L 470.87298583984375 478.60101318359375 L 470.3299865722656 475.8380126953125 Z"/><path fill="#1A231F" d="M 453.62298583984375 375.8739929199219 L 453.62298583984375 419.4540100097656 L 444.85198974609375 426.58099365234375 L 448.0039978027344 408.364013671875 L 452.4209899902344 401.22698974609375 L 448.77398681640625 403.9070129394531 Z"/><path fill="#1A231F" d="M 453.62298583984375 421.510986328125 L 453.62298583984375 429.7330017089844 L 441.6990051269531 441.9309997558594 L 444.85198974609375 428.9100036621094 Z"/><path fill="#1A231F" d="M453.966,433.883l-12.795,11.027c0,0-1.063,5.904-2.253,12.636c-0.104,0.585,11.535-10.594,11.535-10.594 l-12.447,15.77c-1.421,8.066-2.475,14.226-2.336,14.158c0.273-0.139,18.296-2.591,18.296-2.591V433.883z"/></g><path fill="#CEC8B2" d="M470.873,478.601l-0.543-2.763l-0.241-0.146l-0.222-1.457l0.463,0.313l-0.349-5.763 l-1.443-3.275l-0.42-2.757l1.471,3.504l-3.491-25.986l-1.813-2.692l-0.404-2.648l2.215,3.336l-4.846-25.944l-1.419-2.812 l-0.553-3.415l1.386,1.576l-6.697-34.332v0.311l-1.075,6.455l-4.116,23.804l0.179-0.133l-0.694,4.177l-0.255,0.413l-3.152,18.217 l0.356-0.289l-0.612,3.671l-2.896,11.968l1.094-1.117l-0.524,3.151l-1.098,0.945c0,0-1.063,5.904-2.253,12.636 c-0.023,0.122,0.467-0.27,1.25-0.959l-0.716,4.302l-1.446,1.833c-1.421,8.066-2.475,14.226-2.336,14.158 c0.039-0.022,0.468-0.093,1.154-0.196l-0.406,2.445l17.674-3.081l16.781,4.796l-0.354-2.332L470.873,478.601z" opacity=".4"/></g><path fill="#3E5348" d="M 0 360.0849914550781 L 87.10399627685547 405.6669921875 L 262.5950012207031 431.0010070800781 L 360 503.9989929199219 L 0 503.9989929199219 Z"/><g><g><path fill="#0B1110" d="M 13.732000350952148 346.77899169921875 L 0.09600000083446503 262.6289978027344 L 0.09600000083446503 433.6929931640625 L 28.19300079345703 441.7229919433594 Z"/><path fill="#495A58" d="M 10.965999603271484 319.0889892578125 L 2.5429999828338623 302.3739929199219 L 9.918999671936035 310.7640075683594 L 0.09600000083446503 260.40899658203125 L 0.09600000083446503 336.0929870605469 L 19.639999389648438 365.5190124511719 Z"/><path fill="#495A58" d="M 19.645000457763672 369.1059875488281 L 0.09600000083446503 340.093994140625 L 0.09600000083446503 354.1759948730469 L 25.893999099731445 415.614990234375 Z"/><path fill="#495A58" d="M 26.597999572753906 420.13800048828125 L 0.09600000083446503 360.0769958496094 L 0.09600000083446503 412.2130126953125 L 27.222000122070312 430.4540100097656 Z"/><path fill="#495A58" d="M 27.222000122070312 432.7640075683594 L 0.09600000083446503 416.260009765625 L 0.09600000083446503 430.7179870605469 L 28.19300079345703 437.7080078125 Z"/></g><path fill="#CEC8B2" d="M 27.55699920654297 437.54998779296875 L 28.19300079345703 437.7080078125 L 27.222000122070312 432.7640075683594 L 26.788000106811523 432.5 L 26.392000198364258 429.89599609375 L 27.222000122070312 430.4540100097656 L 26.597999572753906 420.13800048828125 L 24.01300048828125 414.27899169921875 L 23.261999130249023 409.34698486328125 L 25.893999099731445 415.614990234375 L 19.645000457763672 369.1059875488281 L 16.39900016784668 364.2900085449219 L 15.678000450134277 359.5530090332031 L 19.639999389648438 365.5190124511719 L 10.965999603271484 319.0889892578125 L 8.430000305175781 314.05499267578125 L 7.439000129699707 307.9419860839844 L 9.918999671936035 310.7640075683594 L 0.09600000083446503 260.40899658203125 L 0.09600000083446503 433.6929931640625 L 28.19300079345703 441.7229919433594 Z" opacity=".3"/></g><g><path fill="#0B1110" d="M 32.9109992980957 249.57899475097656 L 1.4579999446868896 438.6520080566406 L 33.08700180053711 433.1400146484375 L 63.12300109863281 441.7229919433594 L 48.6619987487793 346.77899169921875 Z"/><path fill="#495A58" d="M 32.86199951171875 249.3179931640625 L 32.86199951171875 332.8349914550781 L 54.56999969482422 365.5190124511719 L 45.895999908447266 319.0889892578125 L 37.472999572753906 302.3739929199219 L 44.8489990234375 310.7640075683594 Z"/><path fill="#495A58" d="M 32.86199951171875 336.88299560546875 L 54.57400131225586 369.1059875488281 L 60.82400131225586 415.614990234375 L 32.86199951171875 349.02301025390625 Z"/><path fill="#495A58" d="M 33.965999603271484 357.6759948730469 L 61.52799987792969 420.13800048828125 L 62.1510009765625 430.4540100097656 L 33.965999603271484 411.5 Z"/><path fill="#495A58" d="M 33.965999603271484 415.614990234375 L 33.965999603271484 430.4540100097656 L 63.12300109863281 437.7080078125 L 62.1510009765625 432.7640075683594 Z"/><path fill="#1A231F" d="M 32.25 253.85699462890625 L 32.25 331.85400390625 L 16.552000045776367 344.6080017089844 L 22.191999435424805 312.0060119628906 L 30.097999572753906 299.23199462890625 L 23.570999145507812 304.02899169921875 Z"/><path fill="#1A231F" d="M 32.25 335.53399658203125 L 32.25 350.25 L 10.91100025177002 372.0790100097656 L 16.552000045776367 348.77801513671875 Z"/><path fill="#1A231F" d="M32.862,357.676L9.964,377.413c0,0-1.901,10.564-4.034,22.613c-0.185,1.045,20.646-18.96,20.646-18.96 L4.298,409.29c-2.541,14.437-4.427,25.459-4.18,25.336c0.491-0.246,32.744-4.634,32.744-4.634V357.676z"/></g><g><g><path fill="#0B1110" d="M 81.60099792480469 275.2300109863281 L 53.91899871826172 441.6400146484375 L 81.75599670410156 436.7879943847656 L 108.19100189208984 444.3420104980469 L 95.46399688720703 360.77899169921875 Z"/><path fill="#495A58" d="M 81.55799865722656 275.00201416015625 L 81.55799865722656 348.5069885253906 L 100.66400146484375 377.2720031738281 L 93.02899932861328 336.4079895019531 L 85.61599731445312 321.6969909667969 L 92.10800170898438 329.08099365234375 Z"/><path fill="#495A58" d="M 81.55799865722656 352.0690002441406 L 100.66699981689453 380.4309997558594 L 106.16699981689453 421.364013671875 L 81.55799865722656 362.7550048828125 Z"/><path fill="#495A58" d="M 82.52999877929688 370.3699951171875 L 106.78700256347656 425.3450012207031 L 107.33599853515625 434.42401123046875 L 82.52999877929688 417.74200439453125 Z"/><path fill="#495A58" d="M 82.52999877929688 421.364013671875 L 82.52999877929688 434.42401123046875 L 108.19100189208984 440.8089904785156 L 107.33599853515625 436.4570007324219 Z"/><path fill="#1A231F" d="M 81.01899719238281 278.99700927734375 L 81.01899719238281 347.6440124511719 L 67.2030029296875 358.8689880371094 L 72.16699981689453 330.17498779296875 L 79.125 318.9330139160156 L 73.37999725341797 323.15399169921875 Z"/><path fill="#1A231F" d="M 81.01899719238281 350.88299560546875 L 81.01899719238281 363.8340148925781 L 62.237998962402344 383.0469970703125 L 67.2030029296875 362.53900146484375 Z"/><path fill="#1A231F" d="M81.558,370.37l-20.153,17.371c0,0-1.673,9.298-3.55,19.902c-0.163,0.92,18.171-16.687,18.171-16.687 l-19.607,24.84c-2.236,12.706-3.896,22.407-3.679,22.299c0.432-0.217,28.819-4.078,28.819-4.078V370.37z"/></g><path fill="#CEC8B2" d="M108.191,440.809l-0.855-4.352l-0.381-0.232l-0.349-2.292l0.73,0.491l-0.549-9.079 l-2.275-5.156l-0.661-4.342l2.316,5.518l-5.5-40.934l-2.856-4.239l-0.635-4.17l3.488,5.251l-7.634-40.864l-2.232-4.431 l-0.872-5.379l2.183,2.482l-10.55-54.079v0.487l-1.691,10.169l-6.486,37.496l0.283-0.208l-1.094,6.578l-0.402,0.65l-4.964,28.694 l0.561-0.456l-0.962,5.783l-4.563,18.851l1.721-1.761l-0.826,4.966l-1.728,1.489c0,0-1.673,9.298-3.55,19.902 c-0.034,0.191,0.738-0.425,1.97-1.509l-1.126,6.773l-2.28,2.889c-2.236,12.706-3.896,22.407-3.679,22.299 c0.063-0.031,0.737-0.143,1.82-0.307l-0.641,3.851l27.837-4.852l26.435,7.554l-0.56-3.673L108.191,440.809z" opacity=".2"/></g><g><path fill="#564B3B" d="M 42.105999 0 H 58.605 V 436.885986 H 42.105999 V 0 Z"/><path fill="#564B3B" d="M 58.60499954223633 48.707000732421875 L 82.33300018310547 35.095001220703125 L 92.75 -0.2199999988079071 L 94.75 -0.2199999988079071 L 86.75 38.24399948120117 L 58.60499954223633 57.25 Z"/><path fill="#564B3B" d="M42.106,28.515L22.75-0.22h-3c0,0,22.356,36.935,22.356,38.34S42.106,28.515,42.106,28.515z"/></g><path fill="#F2E9E4" d="M720,156.576c0,0-84.68,76.171-147.45,58.512c0,0-3.18,12.456,38.615,22.506	c40.877,9.83,109.085-12.154,109.085-12.154L720,156.576z" opacity=".5"/><g><path fill="#564B3B" d="M 687.877014 -0.906 H 701.162014 V 435.979986 H 687.877014 V -0.906 Z"/><path fill="#564B3B" d="M 687.8770141601562 47.80099868774414 L 687.8770141601562 56.34400177001953 L 677.0659790039062 49.965999603271484 L 681.9619750976562 43.58700180053711 Z"/><path fill="#564B3B" d="M701.162,27.609l15.586-28.735h2.416c0,0-18.002,36.935-18.002,38.34S701.162,27.609,701.162,27.609z"/></g><path fill="#58745C" d="M87.104,405.667c3.007,1.285,175.491,25.334,175.491,25.334L104,418.334L87.104,405.667z"/><g><g><path fill="#0B1110" d="M 181.14599609375 278.9939880371094 L 153.46299743652344 445.40301513671875 L 181.3000030517578 440.552001953125 L 207.73500061035156 448.1050109863281 L 195.00799560546875 364.5429992675781 Z"/><path fill="#495A58" d="M 181.10299682617188 278.7659912109375 L 181.10299682617188 352.27099609375 L 200.20799255371094 381.0360107421875 L 192.57400512695312 340.1719970703125 L 185.16099548339844 325.46099853515625 L 191.65199279785156 332.8450012207031 Z"/><path fill="#495A58" d="M 181.10299682617188 355.8330078125 L 200.21200561523438 384.1940002441406 L 205.71200561523438 425.12799072265625 L 181.10299682617188 366.5190124511719 Z"/><path fill="#495A58" d="M 182.07400512695312 374.1340026855469 L 206.33200073242188 429.1080017089844 L 206.8800048828125 438.18798828125 L 182.07400512695312 421.5060119628906 Z"/><path fill="#495A58" d="M 182.07400512695312 425.12799072265625 L 182.07400512695312 438.18798828125 L 207.73500061035156 444.5719909667969 L 206.8800048828125 440.22100830078125 Z"/><path fill="#1A231F" d="M 180.56300354003906 282.760986328125 L 180.56300354003906 351.4070129394531 L 166.7469940185547 362.63299560546875 L 171.71099853515625 333.93798828125 L 178.66900634765625 322.6960144042969 L 172.9250030517578 326.9179992675781 Z"/><path fill="#1A231F" d="M 180.56300354003906 354.64599609375 L 180.56300354003906 367.5979919433594 L 161.78199768066406 386.8110046386719 L 166.7469940185547 366.3030090332031 Z"/><path fill="#1A231F" d="M181.103,374.134l-20.153,17.371c0,0-1.673,9.298-3.55,19.902c-0.163,0.92,18.171-16.687,18.171-16.687 l-19.607,24.84c-2.236,12.706-3.896,22.407-3.679,22.299c0.432-0.217,28.819-4.078,28.819-4.078V374.134z"/></g><path fill="#CEC8B2" d="M207.735,444.572l-0.855-4.352l-0.381-0.232l-0.349-2.292l0.73,0.491l-0.549-9.079 l-2.275-5.156l-0.661-4.342l2.316,5.518l-5.5-40.934l-2.856-4.239l-0.635-4.17l3.488,5.251l-7.634-40.864l-2.232-4.431 l-0.872-5.379l2.183,2.482l-10.55-54.079v0.487l-1.691,10.169l-6.486,37.496l0.283-0.208l-1.094,6.578l-0.402,0.65l-4.964,28.694 l0.561-0.456l-0.962,5.783l-4.563,18.851l1.721-1.761l-0.826,4.966l-1.728,1.489c0,0-1.673,9.298-3.55,19.902 c-0.034,0.191,0.738-0.425,1.97-1.509l-1.126,6.773l-2.28,2.889c-2.236,12.706-3.896,22.407-3.679,22.299 c0.063-0.031,0.737-0.143,1.82-0.307l-0.641,3.851l27.837-4.852l26.435,7.554l-0.56-3.673L207.735,444.572z" opacity=".4"/></g><g opacity=".8"><path fill="#2E1808" d="M 138.365997 -0.192 H 154.365997 V 431.000993 H 138.365997 V -0.192 Z"/><path fill="#B26D3E" d="M 154.36599731445312 186.64999389648438 L 144.03199768066406 164.78900146484375 L 144.03199768066406 -0.19200000166893005 L 154.36599731445312 -0.19200000166893005 Z"/></g><g opacity=".8"><path fill="#425648" d="M 249.695007 -1.618 H 260.362007 V 457.130993 H 249.695007 V -1.618 Z"/><path fill="#869B7B" d="M 260.3609924316406 197.16600036621094 L 253.47300720214844 173.90699768066406 L 253.47300720214844 -1.6180000305175781 L 260.3609924316406 -1.6180000305175781 Z"/></g><g><path fill="#ACB18E" d="M 555.291992 0 H 565.958992 V 458.747986 H 555.291992 V 0 Z"/><path fill="#BEC19F" d="M 555.2919921875 198.7830047607422 L 562.1810302734375 175.5240020751953 L 562.1810302734375 0 L 555.2919921875 0 Z"/></g><path fill="#3E5348" d="M 720 284.7139892578125 L 617.6669921875 367.3080139160156 L 589.0020141601562 417.5060119628906 L 501.0830078125 427.20001220703125 L 424.58599853515625 460.7820129394531 L 372.0889892578125 503.9989929199219 L 720 503.9989929199219 Z"/><g><path fill="#0B1110" d="M 652.2039794921875 227.75599670410156 L 691.6480102539062 464.8739929199219 L 651.9829711914062 457.9599914550781 L 614.3150024414062 468.7250061035156 L 632.4509887695312 349.6549987792969 Z"/><path fill="#495A58" d="M 652.1339721679688 225.44000244140625 L 652.2659912109375 330.1619873046875 L 625.4959716796875 368.0329895019531 L 634.06298828125 322.177001953125 L 646.9829711914062 305.7869873046875 L 635.0900268554688 316.6820068359375 L 639.2009887695312 294.6709899902344 L 649.8170166015625 279.3290100097656 L 640.8699951171875 285.7340087890625 Z"/><path fill="#495A58" d="M 652.2659912109375 337.2439880371094 L 624.8579711914062 374.62200927734375 L 617.02099609375 432.9490051269531 L 652.2659912109375 352.4700012207031 Z"/><path fill="#495A58" d="M 650.8809814453125 366.1629943847656 L 615.5330200195312 444.4960021972656 L 615.5330200195312 454.5929870605469 L 650.8809814453125 430.8219909667969 Z"/><path fill="#495A58" d="M 650.8809814453125 430.8219909667969 L 650.8809814453125 454.5929870605469 L 614.3150024414062 463.6889953613281 L 615.5330200195312 452.6059875488281 Z"/><path fill="#1A231F" d="M 653.0330200195312 233.1219940185547 L 653.0330200195312 330.93798828125 L 672.7210083007812 346.9339904785156 Z"/><path fill="#1A231F" d="M 653.0330200195312 335.5530090332031 L 653.0330200195312 354.0090026855469 L 679.7949829101562 381.385009765625 L 672.7210083007812 352.1629943847656 Z"/><path fill="#1A231F" d="M652.266,363.321l28.717,24.752c0,0,1.988,11.074,4.151,23.248l-20.4-10.409l22.352,21.438 c3.267,18.53,6.562,37.633,6.245,37.475c-0.615-0.309-41.064-5.811-41.064-5.811V363.321z"/></g><g><g><path fill="#0B1110" d="M 704.2869873046875 217.427001953125 L 684.5339965820312 339.32598876953125 L 666.3980102539062 458.39599609375 L 704.0659790039062 447.6310119628906 L 720.25 450.4519958496094 L 720.25 313.38800048828125 Z"/><path fill="#495A58" d="M 704.2169799804688 215.11099243164062 L 704.3489990234375 319.8330078125 L 677.5789794921875 357.7040100097656 L 686.14599609375 311.8479919433594 L 699.0659790039062 295.4580078125 L 687.1729736328125 306.3529968261719 L 691.2839965820312 284.3420104980469 L 701.9000244140625 269 L 692.9530029296875 275.4049987792969 Z"/><path fill="#495A58" d="M 704.3489990234375 326.9150085449219 L 676.9409790039062 364.2929992675781 L 669.10400390625 422.6199951171875 L 704.3489990234375 342.1409912109375 Z"/><path fill="#495A58" d="M 702.9639892578125 355.8340148925781 L 667.6160278320312 434.1669921875 L 667.6160278320312 444.2640075683594 L 702.9639892578125 420.4930114746094 Z"/><path fill="#495A58" d="M 702.9639892578125 420.4930114746094 L 702.9639892578125 444.2640075683594 L 666.3980102539062 453.3599853515625 L 667.6160278320312 442.2770080566406 Z"/><path fill="#1A231F" d="M 705.1160278320312 222.79299926757812 L 705.1160278320312 320.6090087890625 L 720.25 332.9049987792969 L 720.25 310.2799987792969 Z"/><path fill="#1A231F" d="M 705.1160278320312 325.2239990234375 L 705.1160278320312 343.67999267578125 L 720.25 359.1610107421875 L 720.25 337.99200439453125 Z"/><path fill="#1A231F" d="M716.816,390.583l3.434,1.752v-25.637l-15.901-13.706v90.692c0,0,7.391,1.005,15.901,2.181v-51.989 L716.816,390.583z"/></g><path fill="#1E0F04" d="M 706.8150024414062 232.33799743652344 L 704.3309936523438 217.4040069580078 L 704.2639770507812 217.8159942626953 L 704.260986328125 215.08799743652344 L 692.9970092773438 275.3819885253906 L 695.1900024414062 273.81201171875 L 694.1480102539062 280.24200439453125 L 691.3280029296875 284.3179931640625 L 687.2169799804688 306.3290100097656 L 690.3930053710938 303.4200134277344 L 689.7659912109375 307.28900146484375 L 686.1900024414062 311.8240051269531 L 677.6229858398438 357.6809997558594 L 682.9199829101562 350.18701171875 L 681.77001953125 357.7449951171875 L 676.9849853515625 364.2699890136719 L 669.1480102539062 422.59698486328125 L 673.35400390625 412.9930114746094 L 671.3930053710938 425.87200927734375 L 667.6599731445312 434.1440124511719 L 667.6599731445312 442.2539978027344 L 666.4420166015625 453.3370056152344 L 667.239013671875 453.1390075683594 L 666.4420166015625 458.37200927734375 L 704.1099853515625 447.60699462890625 L 720.25 450.4209899902344 L 720.25 310.00201416015625 Z" opacity=".5"/></g><path fill="#1E0F04" d="M687.085,422.35l-2.987-2.865l-1.58-9.498l2.616,1.335	c-2.163-12.174-4.151-23.248-4.151-23.248l-2.463-2.123l-1.177-7.074l2.452,2.509l-6.504-26.867l-1.37-8.233l0.8,0.649	l-18.032-104.242l-2.484-14.935l-0.067,0.413l-0.003-2.729l-11.264,60.294l2.193-1.57l-1.042,6.431l-2.82,4.076l-4.111,22.011	l3.176-2.909l-0.627,3.869l-3.575,4.535l-8.567,45.856l5.297-7.494l-1.15,7.559l-4.784,6.524l-7.837,58.327l4.206-9.604	l-1.962,12.879l-3.732,8.271v8.11l-1.218,11.083l0.797-0.198l-0.797,5.233l37.668-10.765l39.665,6.914l-0.913-5.488	c1.552,0.235,2.505,0.394,2.595,0.438C693.647,459.982,690.352,440.88,687.085,422.35z" opacity=".3"/><g><path fill="#2E1808" d="M 205.404999 0.004 H 217.924999 V 440.735995 H 205.404999 V 0.004 Z"/><path fill="#B26D3E" d="M 228.3040008544922 440.7359924316406 L 217.9250030517578 440.7359924316406 L 217.9250030517578 0.003000000026077032 L 228.3040008544922 -0.19200000166893005 Z"/><path fill="#2E1808" d="M 227.1510009765625 416.7510070800781 L 232.09300231933594 427.1700134277344 L 234.3990020751953 445.65301513671875 L 236.0469970703125 445.65301513671875 L 236.0469970703125 427.1700134277344 L 226.8070068359375 397.35400390625 Z"/><path fill="#2E1808" d="M 217.1020050048828 304.9630126953125 L 228.3040008544922 348.97900390625 L 228.63499450683594 368.2550048828125 L 224.35000610351562 353.3559875488281 L 226.88299560546875 398.72698974609375 L 226.88299560546875 402.80499267578125 L 228.35800170898438 419.6839904785156 L 228.8040008544922 440.7359924316406 L 217.1020050048828 440.7359924316406 Z"/><path fill="#2E1808" d="M 217.9250030517578 195.40199279785156 L 216.85400390625 219.00999450683594 L 228.1959991455078 265.97900390625 L 228.3040008544922 244.40199279785156 Z"/><path fill="#2E1808" d="M 217.9250030517578 103.65399932861328 L 223.6909942626953 111.21600341796875 L 217.9250030517578 79.45700073242188 Z"/><path fill="#2E1808" d="M 217.9250030517578 27.534000396728516 L 223.6909942626953 48.707000732421875 L 217.9250030517578 40.64099884033203 Z"/><path fill="#1E0F04" d="M 205.40499877929688 350.3330078125 L 194.86199951171875 390.3240051269531 L 194.86199951171875 436.0299987792969 L 198.48699951171875 436.0299987792969 L 200.13400268554688 393.1820068359375 L 205.40499877929688 370.1610107421875 Z"/><path fill="#1E0F04" d="M206.667,295.206l8.458,37.314c0,0,2.965,105.191,2.965,105.527s-11.423-6.059-11.423-6.059V295.206z"/><path fill="#2E1808" d="M 205.40499877929688 39.090999603271484 L 194.86199951171875 32.07099914550781 L 140.99600219726562 -0.19200000166893005 L 132.593994140625 -0.19200000166893005 L 156.0019989013672 15.916000366210938 L 194.86199951171875 42.65700149536133 L 205.40499877929688 70.38300323486328 Z"/><path fill="#2E1808" d="M 129.13499450683594 10.89799976348877 L 116.90299987792969 -0.19200000166893005 L 112.20800018310547 -0.19200000166893005 L 129.13499450683594 16.44300079345703 L 164.52200317382812 21.77899932861328 L 155.85299682617188 13.616000175476074 Z"/><path fill="#B26D3E" d="M 228.3040008544922 35.095001220703125 L 250.21299743652344 -0.19200000166893005 L 254.33099365234375 -0.19200000166893005 L 228.3040008544922 47.529998779296875 Z"/></g><path fill="#1E0F04" d="M 197.50399780273438 426.0249938964844 L 157.0070037841797 434 L 113.64199829101562 452 L 90.5 459.60699462890625 L 0 445.65301513671875 L 0 474.2799987792969 L 57.141998291015625 465.0119934082031 L 89.64199829101562 487 L 169.64199829101562 465.0119934082031 L 249.14199829101562 469.5 L 220.7310028076172 438.64801025390625 L 207.88299560546875 426.0249938964844 Z"/><path fill="#341E0A" d="M 0 434.73199462890625 L 205.24099731445312 426.0249938964844 L 205.25900268554688 427.6679992675781 L 228.8040008544922 436.885986328125 L 354 503.9989929199219 L 0 503.9989929199219 Z"/><path fill="#341E0A" d="M 720 389.5360107421875 L 664.5750122070312 453.08099365234375 L 559.1110229492188 469.7449951171875 L 430.5870056152344 480.0790100097656 L 397.5889892578125 503.9989929199219 L 720 503.9989929199219 Z"/><g><path fill="#2E1808" d="M 641.166015625 462.4440002441406 L 669.166015625 462.4440002441406 L 669.166015625 329.4259948730469 L 669.166015625 0 L 641.166015625 0 Z"/><path fill="#1E0F04" d="M 683.9990234375 372.5539855957031 L 682.125 439.875 L 677.25 444.125 L 675.9990234375 372.5539855957031 L 668.4990234375 363.72100830078125 L 668.4990234375 329.4259948730469 Z"/><path fill="#B26D3E" d="M 656.5 43.994998931884766 L 641.1669921875 57.67599868774414 L 641.1669921875 156.92100524902344 L 656.5 136.8300018310547 Z"/><path fill="#B26D3E" d="M 653.8330078125 159.69200134277344 L 641.1669921875 171.468994140625 L 641.1669921875 405.6669921875 L 653.8330078125 329.4259948730469 Z"/><path fill="#B26D3E" d="M 653.8330078125 0 L 653.8330078125 23.211000442504883 L 641.1669921875 40.529998779296875 L 641.1669921875 0 Z"/></g><path fill="#2E1808" d="M 662.0830078125 60.70600128173828 L 662.0830078125 60.70600128173828 L 699.916015625 -0.2199999988079071 L 705.916015625 -0.2199999988079071 L 662.0819702148438 81.27999877929688 Z"/><path fill="#B26D3E" d="M 643.0009765625 22.33300018310547 L 625.489990234375 0 L 617.6669921875 0 L 643.0009765625 37 Z"/><path fill="#1E0F04" d="M 246.5 476 L 251.7830047607422 476.0539855957031 L 354 503.9989929199219 L 312 502.885009765625 L 222.57899475097656 503.9989929199219 L 88 503.9989929199219 L 0 503.9989929199219 L 0 459.60699462890625 L 50.35599899291992 472 L 87 492.5 L 154.36599731445312 465.0119934082031 Z"/><path fill="#2E1808" d="M 669.166015625 294.375 L 674.8889770507812 313.36199951171875 L 674.6669921875 317.7909851074219 L 669.166015625 310.9630126953125 Z"/><path fill="#1E0F04" d="M 641.1669921875 431.0010070800781 L 669.5919799804688 332.4670104980469 L 669.166015625 462.4440002441406 L 641.166015625 462.4440002441406 Z"/><path fill="#1E0F04" d="M 720 417.6700134277344 L 695.791015625 437.3689880371094 L 695.791015625 451.6700134277344 L 681.6950073242188 438.8389892578125 L 668.760986328125 448.8070068359375 L 668.760986328125 460.3370056152344 L 641.4849853515625 462.4440002441406 L 612.218017578125 480.3370056152344 L 589.6669921875 493.6700134277344 L 623.4940185546875 487.6700134277344 L 599.6160278320312 504.2239990234375 L 676.4710083007812 504.2239990234375 L 720 504.2239990234375 Z"/><path fill="#341E0A" d="M720,257l-0.123,0.594c0.041-0.027,0.082-0.056,0.123-0.083V257z"/><path fill="#58745C" d="M 618.9169921875 366.13299560546875 L 597.1920166015625 418.7869873046875 L 516.25 440.7359924316406 L 502.3330078125 426.0249938964844 L 590.2520141601562 410.1789855957031 Z"/><path fill="#58745C" d="M 426.58599853515625 459.60699462890625 L 508.7749938964844 432.0419921875 L 503.0830078125 426.0249938964844 Z"/><g><path fill="#0B1110" d="M 112.27799987792969 199.76800537109375 L 72.83300018310547 436.885986328125 L 112.4990005493164 429.97198486328125 L 150.16700744628906 440.7359924316406 L 132.03199768066406 321.6669921875 Z"/><path fill="#495A58" d="M 112.21700286865234 199.4409942626953 L 112.21700286865234 304.17999267578125 L 139.44000244140625 345.1679992675781 L 128.56300354003906 286.9410095214844 L 118 265.97900390625 L 127.25 276.5 Z"/><path fill="#495A58" d="M 112.21700286865234 309.2560119628906 L 139.4459991455078 349.6679992675781 L 147.28399658203125 407.9949951171875 L 112.21700286865234 324.4809875488281 Z"/><path fill="#495A58" d="M 113.60199737548828 335.3330078125 L 148.16700744628906 413.6669921875 L 148.94900512695312 426.60400390625 L 113.60199737548828 402.8340148925781 Z"/><path fill="#495A58" d="M 113.60199737548828 407.9949951171875 L 113.60199737548828 426.60400390625 L 150.16700744628906 435.70098876953125 L 148.94900512695312 429.5010070800781 Z"/><path fill="#1A231F" d="M 111.4489974975586 205.13400268554688 L 111.4489974975586 302.95001220703125 L 91.76200103759766 318.94500732421875 L 98.83499908447266 278.0580139160156 L 108.75 262.03900146484375 L 100.56500244140625 268.05499267578125 Z"/><path fill="#1A231F" d="M 111.4489974975586 307.5639953613281 L 111.4489974975586 326.02099609375 L 84.68800354003906 353.39599609375 L 91.76200103759766 324.17498779296875 Z"/><path fill="#1A231F" d="M112.217,335.333L83.5,360.085c0,0-2.384,13.249-5.058,28.36c-0.232,1.31,25.892-23.778,25.892-23.778 l-27.939,35.396c-3.186,18.104-5.552,31.928-5.242,31.773c0.615-0.309,41.064-5.811,41.064-5.811V335.333z"/></g><path fill="#0B1110" d="M 71.13200378417969 435.70098876953125 L 0.09600000083446503 453.25 L 0 503.9989929199219 L 65.66500091552734 502.885009765625 L 146.36599731445312 438.4169921875 L 112.4990005493164 429.97198486328125 Z" opacity=".6"/><g><path fill="#0B1110" d="M 571.7210083007812 237.593994140625 L 611.1649780273438 474.7120056152344 L 571.5 467.7980041503906 L 533.8319702148438 478.56201171875 L 551.968017578125 359.4930114746094 Z"/><path fill="#495A58" d="M 571.6500244140625 235.2779998779297 L 571.781982421875 340 L 545.0130004882812 377.8710021972656 L 553.5800170898438 332.0150146484375 L 566.5 315.625 L 554.6060180664062 326.5199890136719 L 558.718017578125 304.5090026855469 L 569.333984375 289.1669921875 L 560.3870239257812 295.5719909667969 Z"/><path fill="#495A58" d="M 571.781982421875 347.0820007324219 L 544.375 384.4599914550781 L 536.5380249023438 442.7869873046875 L 571.781982421875 362.3080139160156 Z"/><path fill="#495A58" d="M 570.39697265625 376.0010070800781 L 535.0499877929688 454.3340148925781 L 535.0499877929688 464.4309997558594 L 570.39697265625 440.6600036621094 Z"/><path fill="#495A58" d="M 570.39697265625 440.6600036621094 L 570.39697265625 464.4309997558594 L 533.8319702148438 473.5270080566406 L 535.0499877929688 462.4440002441406 Z"/><path fill="#1A231F" d="M 572.5499877929688 242.9600067138672 L 572.5499877929688 340.7760009765625 L 592.2369995117188 356.77099609375 Z"/><path fill="#1A231F" d="M 572.5499877929688 345.3909912109375 L 572.5499877929688 363.84698486328125 L 599.31201171875 391.2229919433594 L 592.2369995117188 362.0010070800781 Z"/><path fill="#1A231F" d="M571.782,373.159l28.717,24.752c0,0,1.988,11.074,4.151,23.248l-20.4-10.409l22.352,21.438 c3.267,18.53,6.562,37.633,6.245,37.475c-0.615-0.309-41.064-5.811-41.064-5.811V373.159z"/></g><path fill="#0B1110" d="M 612.8469848632812 469.6619873046875 L 712.5 504.2239990234375 L 683.9990234375 503.9989929199219 L 573.7869873046875 503.9989929199219 L 533.8319702148438 478.56201171875 L 571.5 466.6730041503906 Z" opacity=".6"/><g><g opacity=".4"><path fill="#FFFADE" d="M 481.61700439453125 0 L 541.27099609375 -0.0010000000474974513 L 354 503.9989929199219 L 286 503.9989929199219 Z" opacity=".2"/><path fill="#FFFADE" d="M 689.1680297851562 -0.2199999988079071 L 719.8770141601562 0 L 720 41.178001403808594 L 552.291015625 503.9989929199219 L 495.68499755859375 503.9989929199219 Z" opacity=".2"/><path fill="#FFFADE" d="M 285 -0.19200000166893005 L 337.25 -0.19200000166893005 L 141.68600463867188 503.552001953125 L 84.68800354003906 503.552001953125 Z" opacity=".2"/></g><g opacity=".8"><path fill="#FFFADE" d="M 372.0889892578125 0.44699999690055847 L 436.08599853515625 0.44699999690055847 L 249.11900329589844 503.552001953125 L 171.17300415039062 503.552001953125 Z" opacity=".2"/><path fill="#FFFADE" d="M 583.5430297851562 0 L 629.4180297851562 0 L 447.0840148925781 503.9989929199219 L 390.33599853515625 503.9989929199219 Z" opacity=".2"/><path fill="#FFFADE" d="M 177.91700744628906 0 L 230.25 0 L 34.34199905395508 504.5379943847656 L 0 503.9989929199219 L 0 447.5190124511719 Z" opacity=".2"/></g></g><g opacity=".7"><path fill="#3E5348" d="M453.475,257.593c0,0,1.424,2.334,1.883,2.375s0.359-1.741,1.75-2.375 C458.75,256.844,453.475,257.593,453.475,257.593z"/><path fill="#3E5348" d="M464.435,259.67c-0.458-1.35-4.358-2.994-8.233-1.869s3.75-3.25,7.375-1.5s1.092,3.401,1.092,3.401 L464.435,259.67z"/><path fill="#3E5348" d="M443.475,255.674c0,0,8-0.456,10,1.919c0.805,0.956,2.122,0.857,1.737,0.199 c-0.639-1.091-2.727-3.362-4.987-3.699C448.105,253.776,444.566,254.763,443.475,255.674z"/></g><g opacity=".7"><path fill="#3E5348" d="M585.506,168.582c0,0,0.591,0.964,0.78,0.981c0.188,0.017,0.146-0.719,0.724-0.981 C587.687,168.272,585.506,168.582,585.506,168.582z"/><path fill="#3E5348" d="M590.036,169.439c-0.189-0.558-1.802-1.237-3.403-0.771c-1.601,0.464,1.551-1.343,3.049-0.621 c1.497,0.723,0.45,1.405,0.45,1.405L590.036,169.439z"/><path fill="#3E5348" d="M581.375,167.788c0,0,3.305-0.188,4.131,0.794c0.334,0.394,0.878,0.354,0.72,0.082 c-0.265-0.45-1.127-1.389-2.062-1.528C583.288,167.004,581.825,167.411,581.375,167.788z"/></g><g opacity=".7"><path fill="#3E5348" d="M476.324,235.684c0,0,0.973,1.594,1.286,1.622c0.313,0.028,0.246-1.189,1.195-1.622 C479.928,235.172,476.324,235.684,476.324,235.684z"/><path fill="#3E5348" d="M483.811,237.102c-0.312-0.922-2.977-2.045-5.624-1.277c-2.646,0.769,2.562-2.22,5.038-1.024 c2.476,1.195,0.745,2.323,0.745,2.323L483.811,237.102z"/><path fill="#3E5348" d="M469.494,234.373c0,0,5.465-0.312,6.83,1.311c0.55,0.653,1.45,0.585,1.188,0.136 c-0.437-0.745-1.863-2.296-3.407-2.527C472.657,233.077,470.24,233.75,469.494,234.373z"/></g><g opacity=".7"><path fill="#3E5348" d="M519.184,148.28c0,0,0.973,1.594,1.286,1.622c0.313,0.028,0.246-1.189,1.195-1.622 C522.787,147.768,519.184,148.28,519.184,148.28z"/><path fill="#3E5348" d="M526.67,149.698c-0.312-0.922-2.977-2.045-5.624-1.277c-2.646,0.769,2.562-2.22,5.038-1.024 c2.476,1.195,0.745,2.323,0.745,2.323L526.67,149.698z"/><path fill="#3E5348" d="M512.354,146.969c0,0,5.465-0.312,6.83,1.311c0.55,0.653,1.45,0.585,1.188,0.136 c-0.437-0.745-1.863-2.296-3.407-2.527C515.517,145.673,513.1,146.346,512.354,146.969z"/></g><g opacity=".7"><path fill="#3E5348" d="M299.803,154.451c0,0,1.685,0.805,1.963,0.657c0.278-0.147-0.443-1.131,0.116-2.011 C302.543,152.055,299.803,154.451,299.803,154.451z"/><path fill="#3E5348" d="M306.85,151.554c-0.765-0.602-3.61-0.089-5.409,2c-1.798,2.088,0.935-3.258,3.663-3.608 c2.727-0.35,1.892,1.54,1.892,1.54L306.85,151.554z"/><path fill="#3E5348" d="M293.364,157.08c0,0,4.409-3.243,6.438-2.629c0.817,0.247,1.535-0.301,1.069-0.534 c-0.772-0.386-2.814-0.907-4.234-0.258C295.308,154.268,293.65,156.151,293.364,157.08z"/></g><g opacity=".7"><path fill="#3E5348" d="M190.218,105.006c0,0,1.685,0.805,1.963,0.657c0.278-0.147-0.443-1.131,0.116-2.011 C192.958,102.611,190.218,105.006,190.218,105.006z"/><path fill="#3E5348" d="M197.265,102.109c-0.765-0.602-3.61-0.089-5.409,2c-1.798,2.088,0.935-3.258,3.663-3.608 c2.727-0.35,1.892,1.54,1.892,1.54L197.265,102.109z"/><path fill="#3E5348" d="M183.779,107.635c0,0,4.409-3.243,6.438-2.629c0.817,0.247,1.535-0.301,1.069-0.534 c-0.772-0.386-2.814-0.907-4.234-0.258C185.723,104.823,184.065,106.707,183.779,107.635z"/></g></svg>