<?xml version="1.0" encoding="utf-8"?>
<svg id="master-artboard" viewBox="0 0 336.35 235.28" xmlns="http://www.w3.org/2000/svg" width="336.3500061035156px" height="235.27999877929688px" xmlns:xlink="http://www.w3.org/1999/xlink"><defs><linearGradient id="linear-gradient" x1="168.18" y1="133.57" x2="168.18" gradientUnits="userSpaceOnUse"><stop offset="0" stop-color="#fff194"/><stop offset="1" stop-color="#ec6567"/></linearGradient><linearGradient id="linear-gradient-2" x1="-253.41" y1="-40.05" x2="907.23" y2="-40.05" gradientTransform="matrix(-1, 0, 0, 1, 335.68, 69.53)" gradientUnits="userSpaceOnUse"><stop offset="0.1" stop-color="#fef5fa" stop-opacity="0"/><stop offset="0.2" stop-color="#fef5fa" stop-opacity="0.17"/><stop offset="0.38" stop-color="#fef5fa" stop-opacity="0.46"/><stop offset="0.55" stop-color="#fef5fa" stop-opacity="0.69"/><stop offset="0.69" stop-color="#fef5fa" stop-opacity="0.86"/><stop offset="0.8" stop-color="#fef5fa" stop-opacity="0.96"/><stop offset="0.87" stop-color="#fef5fa"/></linearGradient><linearGradient id="linear-gradient-3" x1="-253.41" y1="29.58" x2="907.23" y2="29.58" gradientTransform="matrix(-1, 0, 0, 1, 335.68, 69.53)" gradientUnits="userSpaceOnUse"><stop offset="0" stop-color="#fef5fa"/><stop offset="1" stop-color="#f7c2db"/></linearGradient><linearGradient id="linear-gradient-4" x1="-252.25" y1="88.46" x2="908.39" y2="88.46" gradientTransform="matrix(1, 0, 0, -1, -0.76, 140.03)" xlink:href="#linear-gradient-2"/><linearGradient id="linear-gradient-5" x1="-595.89" y1="7.44" x2="814.98" y2="7.44" xlink:href="#linear-gradient-2"/><linearGradient id="linear-gradient-6" x1="-530.93" y1="112.37" x2="745.96" y2="112.37" gradientTransform="matrix(1, 0, 0, -1, -7.36, 153.18)" xlink:href="#linear-gradient-2"/><linearGradient id="linear-gradient-7" x1="-530.93" y1="64.74" x2="745.96" y2="64.74" gradientTransform="matrix(1, 0, 0, -1, -7.36, 153.18)" xlink:href="#linear-gradient-2"/><linearGradient id="linear-gradient-8" x1="0.14" y1="13.17" x2="357.18" y2="13.17" gradientTransform="matrix(-1, 0, 0, 1, 336.17, 0)" xlink:href="#linear-gradient-3"/><radialGradient id="Névtelen_színátmenet_451" cx="174.13" cy="-59.63" r="35.76" gradientTransform="translate(-1.98 185.48) rotate(-3.66)" gradientUnits="userSpaceOnUse"><stop offset="0.76" stop-color="#fff" stop-opacity="0.96"/><stop offset="0.95" stop-color="#fff" stop-opacity="0"/></radialGradient><radialGradient id="Névtelen_színátmenet_457" cx="168" cy="114.86" r="29.31" gradientUnits="userSpaceOnUse"><stop offset="0.91" stop-color="#fff"/><stop offset="1" stop-color="#fff" stop-opacity="0"/></radialGradient><linearGradient id="Névtelen_színátmenet_23" x1="210.49" y1="106.28" x2="217.25" y2="106.28" gradientUnits="userSpaceOnUse"><stop offset="0" stop-color="#08213b"/><stop offset="1" stop-color="#103d66"/></linearGradient><linearGradient id="Névtelen_színátmenet_23-2" x1="224.17" y1="97.22" x2="230.93" y2="97.22" xlink:href="#Névtelen_színátmenet_23"/><linearGradient id="Névtelen_színátmenet_23-3" x1="243.52" y1="89.02" x2="250.28" y2="89.02" xlink:href="#Névtelen_színátmenet_23"/><linearGradient id="Névtelen_színátmenet_23-4" x1="308.33" y1="75.06" x2="312.94" y2="75.06" xlink:href="#Névtelen_színátmenet_23"/><linearGradient id="Névtelen_színátmenet_315" x1="168.18" y1="235.19" x2="168.18" y2="133.57" gradientUnits="userSpaceOnUse"><stop offset="0" stop-color="#9ec5e4"/><stop offset="1" stop-color="#f8b795"/></linearGradient><linearGradient id="Névtelen_színátmenet_21" x1="167.99" y1="243.49" x2="167.99" y2="113.02" gradientUnits="userSpaceOnUse"><stop offset="0" stop-color="#eaf1f4"/><stop offset="0" stop-color="#eaf1f4"/><stop offset="0.69" stop-color="#f7ddc8" stop-opacity="0.64"/><stop offset="1" stop-color="#fcd5b7" stop-opacity="0.5"/></linearGradient><linearGradient id="Névtelen_színátmenet_22" x1="199.57" y1="75.26" x2="327.38" y2="149.05" gradientUnits="userSpaceOnUse"><stop offset="0" stop-color="#106093"/><stop offset="1" stop-color="#103d66"/></linearGradient><linearGradient id="Névtelen_színátmenet_343" x1="110.83" y1="175.55" x2="123.95" y2="175.55" xlink:href="#Névtelen_színátmenet_23"/><linearGradient id="Névtelen_színátmenet_328" x1="63.24" y1="166.42" x2="76.36" y2="166.42" gradientUnits="userSpaceOnUse"><stop offset="0" stop-color="#103d66"/><stop offset="1" stop-color="#106093"/></linearGradient><linearGradient id="Névtelen_színátmenet_343-2" x1="120.07" y1="176.3" x2="131.75" y2="176.3" xlink:href="#Névtelen_színátmenet_23"/><linearGradient id="Névtelen_színátmenet_343-3" x1="49.35" y1="168.59" x2="61.03" y2="168.59" xlink:href="#Névtelen_színátmenet_23"/><linearGradient id="Névtelen_színátmenet_328-2" x1="87.1" y1="175.3" x2="96.02" y2="175.3" xlink:href="#Névtelen_színátmenet_328"/><linearGradient id="Névtelen_színátmenet_328-3" x1="44.89" y1="162.85" x2="53.81" y2="162.85" xlink:href="#Névtelen_színátmenet_328"/><linearGradient id="Névtelen_színátmenet_343-4" x1="79.85" y1="176.3" x2="88.78" y2="176.3" xlink:href="#Névtelen_színátmenet_23"/><linearGradient id="Névtelen_színátmenet_23-5" x1="292.6" y1="131.6" x2="292.6" y2="110.24" xlink:href="#Névtelen_színátmenet_23"/><linearGradient id="Névtelen_színátmenet_23-6" x1="279.58" y1="131.6" x2="279.58" y2="110.24" xlink:href="#Névtelen_színátmenet_23"/><linearGradient id="Névtelen_színátmenet_23-7" x1="304.74" y1="131.6" x2="304.74" y2="98.39" xlink:href="#Névtelen_színátmenet_23"/><linearGradient id="Névtelen_színátmenet_328-4" x1="167.99" y1="235.19" x2="167.99" y2="156.79" xlink:href="#Névtelen_színátmenet_328"/><radialGradient id="Névtelen_színátmenet_314" cx="168.12" cy="130.69" fy="119.04527777699585" r="52.39" gradientTransform="matrix(1, -0.01, 0, 0.5, -0.26, 76.85)" gradientUnits="userSpaceOnUse"><stop offset="0" stop-color="#fcf6c3"/><stop offset="0.11" stop-color="#fcf6c3" stop-opacity="0.91"/><stop offset="0.35" stop-color="#fcf6c3" stop-opacity="0.69"/><stop offset="0.68" stop-color="#fcf6c3" stop-opacity="0.35"/><stop offset="0.99" stop-color="#fcf6c3" stop-opacity="0"/></radialGradient><radialGradient id="Névtelen_színátmenet_314-2" cx="168.01" cy="164.85" fy="145.62837333535361" r="86.45" gradientTransform="matrix(1, -0.01, 0, 0.85, -0.32, 18.69)" xlink:href="#Névtelen_színátmenet_314"/><radialGradient id="Névtelen_színátmenet_26" cx="247.26" cy="-44.36" r="22.94" gradientTransform="matrix(-1, 0.06, -0.06, -1.01, 343.59, 48.6)" gradientUnits="userSpaceOnUse"><stop offset="0.74" stop-color="#fff" stop-opacity="0.8"/><stop offset="0.95" stop-color="#fff" stop-opacity="0"/></radialGradient><radialGradient id="Névtelen_színátmenet_26-2" cx="175.92" cy="-14.98" r="36.09" xlink:href="#Névtelen_színátmenet_26"/><radialGradient id="Névtelen_színátmenet_26-3" cx="123.63" cy="-92.2" r="22.94" xlink:href="#Névtelen_színátmenet_26"/><radialGradient id="Névtelen_színátmenet_26-4" cx="95.42" cy="-132.96" r="32.4" xlink:href="#Névtelen_színátmenet_26"/><radialGradient id="Névtelen_színátmenet_26-5" cx="152.47" cy="-87.07" r="22.94" xlink:href="#Névtelen_színátmenet_26"/><radialGradient id="Névtelen_színátmenet_26-6" cx="281.59" cy="-71.26" r="22.94" xlink:href="#Névtelen_színátmenet_26"/><radialGradient id="Névtelen_színátmenet_346" cx="313.24" cy="-107.66" r="29.7" gradientTransform="matrix(-1, 0.06, -0.06, -1.01, 343.59, 48.6)" gradientUnits="userSpaceOnUse"><stop offset="0.6" stop-color="#fff" stop-opacity="0.3"/><stop offset="0.95" stop-color="#fff" stop-opacity="0"/></radialGradient><radialGradient id="Névtelen_színátmenet_26-7" cx="299.67" cy="-28.28" r="31.9" xlink:href="#Névtelen_színátmenet_26"/><radialGradient id="Névtelen_színátmenet_26-8" cx="32.79" cy="-11" r="22.94" xlink:href="#Névtelen_színátmenet_26"/><linearGradient id="Névtelen_színátmenet_138" x1="-1457.25" y1="139.51" x2="3689.68" y2="139.51" gradientUnits="userSpaceOnUse"><stop offset="0" stop-color="#f1f6f6" stop-opacity="0.7"/><stop offset="0.1" stop-color="#f5f8f8" stop-opacity="0.54"/><stop offset="0.21" stop-color="#f8fafa" stop-opacity="0.41"/><stop offset="0.32" stop-color="#fafcfc" stop-opacity="0.29"/><stop offset="0.44" stop-color="#fcfdfd" stop-opacity="0.21"/><stop offset="0.58" stop-color="#fefefe" stop-opacity="0.15"/><stop offset="0.74" stop-color="#fff" stop-opacity="0.11"/><stop offset="0.99" stop-color="#fff" stop-opacity="0.1"/></linearGradient><linearGradient id="Névtelen_színátmenet_138-2" x1="-593.9" y1="136.06" x2="2099.6" y2="136.06" xlink:href="#Névtelen_színátmenet_138"/><linearGradient id="Névtelen_színátmenet_138-3" x1="94.62" y1="146.53" x2="2832.38" y2="146.53" xlink:href="#Névtelen_színátmenet_138"/><linearGradient id="Névtelen_színátmenet_138-4" x1="59.02" y1="142.07" x2="2796.78" y2="142.07" xlink:href="#Névtelen_színátmenet_138"/><linearGradient id="Névtelen_színátmenet_138-5" x1="31.98" y1="148.86" x2="2769.73" y2="148.86" xlink:href="#Névtelen_színátmenet_138"/><linearGradient id="Névtelen_színátmenet_138-6" x1="-61.92" y1="148.86" x2="1804.19" y2="148.86" xlink:href="#Névtelen_színátmenet_138"/><linearGradient id="Névtelen_színátmenet_138-7" x1="-51.03" y1="146.58" x2="2693.42" y2="146.58" xlink:href="#Névtelen_színátmenet_138"/><linearGradient id="Névtelen_színátmenet_138-8" x1="60.04" y1="150.33" x2="935.17" y2="150.33" xlink:href="#Névtelen_színátmenet_138"/><linearGradient id="Névtelen_színátmenet_138-9" x1="51.13" y1="142.25" x2="926.25" y2="142.25" xlink:href="#Névtelen_színátmenet_138"/><linearGradient id="Névtelen_színátmenet_138-10" x1="70.03" y1="138.5" x2="945.16" y2="138.5" xlink:href="#Névtelen_színátmenet_138"/><linearGradient id="Névtelen_színátmenet_138-11" x1="50.34" y1="136.51" x2="2592.78" y2="136.51" xlink:href="#Névtelen_színátmenet_138"/><linearGradient id="Névtelen_színátmenet_138-12" x1="-83.03" y1="139.72" x2="3572.62" y2="139.72" xlink:href="#Névtelen_színátmenet_138"/><linearGradient id="Névtelen_színátmenet_138-13" x1="-74.6" y1="141.29" x2="2397.95" y2="141.29" xlink:href="#Névtelen_színátmenet_138"/><linearGradient id="Névtelen_színátmenet_138-14" x1="865.18" y1="150.46" x2="6527.08" y2="150.46" xlink:href="#Névtelen_színátmenet_138"/><linearGradient id="Névtelen_színátmenet_138-15" x1="-287.63" y1="144.46" x2="4073.36" y2="144.46" xlink:href="#Névtelen_színátmenet_138"/><linearGradient id="Névtelen_színátmenet_23-8" x1="253.97" y1="121.78" x2="246.84" y2="122.24" xlink:href="#Névtelen_színátmenet_23"/><linearGradient id="Névtelen_színátmenet_23-9" x1="262.56" y1="121.78" x2="255.44" y2="122.24" xlink:href="#Névtelen_színátmenet_23"/><linearGradient id="Névtelen_színátmenet_23-10" x1="272.53" y1="119.17" x2="263.7" y2="119.74" xlink:href="#Névtelen_színátmenet_23"/><linearGradient id="Névtelen_színátmenet_23-11" x1="287.69" y1="120.11" x2="279.38" y2="120.64" xlink:href="#Névtelen_színátmenet_23"/><linearGradient id="Névtelen_színátmenet_23-12" x1="322" y1="119.32" x2="313.17" y2="119.89" xlink:href="#Névtelen_színátmenet_23"/><linearGradient id="Névtelen_színátmenet_328-5" x1="12.53" y1="219.49" x2="29.68" y2="219.49" xlink:href="#Névtelen_színátmenet_328"/><linearGradient id="Névtelen_színátmenet_328-6" x1="42.81" y1="228.9" x2="59.34" y2="228.9" xlink:href="#Névtelen_színátmenet_328"/><linearGradient id="Névtelen_színátmenet_328-7" x1="295.69" y1="228.9" x2="312.22" y2="228.9" gradientTransform="matrix(-1, 0, 0, 1, 585.19, 0)" xlink:href="#Névtelen_színátmenet_328"/><linearGradient id="Névtelen_színátmenet_328-8" x1="87.05" y1="231.32" x2="97.22" y2="231.32" xlink:href="#Névtelen_színátmenet_328"/><linearGradient id="Névtelen_színátmenet_328-9" x1="125.91" y1="230.69" x2="137.73" y2="230.69" xlink:href="#Névtelen_színátmenet_328"/></defs><title>eezy_16</title><g id="Layer" transform="matrix(1, 0, 0, 1, 0, 7.105427357601002e-15)" style="isolation: isolate;"><path d="M 0.18 0 H 336.16999 V 133.570007 H 0.18 V 0 Z" class="cls-2" style="fill: url('#linear-gradient');"/><path d="M 0 23.34000015258789 L 336.07000732421875 27.649999618530273 L 336.07000732421875 33.02000045776367 L 0 35.630001068115234 L 0 23.34000015258789 Z" class="cls-3" style="opacity: 0.21; fill: url('#linear-gradient-2');"/><path d="M 0 92.97000122070312 L 336.07000732421875 97.27999877929688 L 336.07000732421875 102.6500015258789 L 0 105.26000213623047 L 0 92.97000122070312 Z" class="cls-4" style="opacity: 0.4; fill: url('#linear-gradient-3');"/><path d="M 336.07000732421875 57.720001220703125 L 0 55.349998474121094 L 0 48.09000015258789 L 336.07000732421875 45.43000030517578 L 336.07000732421875 57.720001220703125 Z" class="cls-5" style="opacity: 0.21; fill: url('#linear-gradient-4');"/><path d="M 336.3500061035156 72.94000244140625 L 336.3500061035156 81 L 50.47999954223633 75.30000305175781 L 336.3500061035156 72.94000244140625 Z" class="cls-6" style="opacity: 0.21; fill: url('#linear-gradient-5');"/><path d="M 0.4099999964237213 43.779998779296875 L 0.4099999964237213 37.849998474121094 L 259.1300048828125 40.7400016784668 L 0.4099999964237213 43.779998779296875 Z" class="cls-7" style="opacity: 0.21; mix-blend-mode: overlay; fill: url('#linear-gradient-6');"/><path d="M 0.4099999964237213 91.4000015258789 L 0.4099999964237213 85.47000122070312 L 259.1300048828125 88.36000061035156 L 0.4099999964237213 91.4000015258789 Z" class="cls-8" style="opacity: 0.21; fill: url('#linear-gradient-7');"/><path d="M 336.0299987792969 19.110000610351562 L 336.0299987792969 7.21999979019165 L 23.889999389648438 14.869999885559082 L 336.0299987792969 19.110000610351562 Z" class="cls-9" style="opacity: 0.06; fill: url('#linear-gradient-8');"/><path class="cls-10" d="M134.05,40a.85.85,0,1,0-.85-.85.85.85,0,0,0,.85.85Z" transform="translate(0.18)" style="fill: rgb(255, 255, 255); fill-rule: evenodd;"/><path class="cls-10" d="M258.94,12.13a.85.85,0,1,0-.85-.85.85.85,0,0,0,.85.85Z" transform="translate(0.18)" style="fill: rgb(255, 255, 255); fill-rule: evenodd;"/><path class="cls-10" d="M320.81,45.13a.85.85,0,1,0-.85-.85.85.85,0,0,0,.85.85Z" transform="translate(0.18)" style="fill: rgb(255, 255, 255); fill-rule: evenodd;"/><path class="cls-10" d="M219.63,67.93a.85.85,0,1,0,0-1.69.84.84,0,0,0-.84.85.83.83,0,0,0,.84.84Z" transform="translate(0.18)" style="fill: rgb(255, 255, 255); fill-rule: evenodd;"/><path class="cls-10" d="M90.56,24.26a.85.85,0,0,0,.85-.84.85.85,0,1,0-1.7,0,.85.85,0,0,0,.85.84Z" transform="translate(0.18)" style="fill: rgb(255, 255, 255); fill-rule: evenodd;"/><path class="cls-10" d="M41.06,66a.85.85,0,0,0,.85-.85.85.85,0,0,0-1.7,0,.85.85,0,0,0,.85.85Z" transform="translate(0.18)" style="fill: rgb(255, 255, 255); fill-rule: evenodd;"/><path class="cls-10" d="M209.32,75.69a.43.43,0,0,0,.43-.43.43.43,0,1,0-.85,0,.43.43,0,0,0,.42.43Z" transform="translate(0.18)" style="fill: rgb(255, 255, 255); fill-rule: evenodd;"/><path class="cls-10" d="M186.88,46a.42.42,0,0,0,.43-.42.42.42,0,0,0-.43-.42.42.42,0,0,0-.43.42.43.43,0,0,0,.43.42Z" transform="translate(0.18)" style="fill: rgb(255, 255, 255); fill-rule: evenodd;"/><path class="cls-10" d="M220.12,27.82a.42.42,0,0,0,.43-.42.43.43,0,0,0-.86,0,.42.42,0,0,0,.43.42Z" transform="translate(0.18)" style="fill: rgb(255, 255, 255); fill-rule: evenodd;"/><path class="cls-10" d="M239.53,53.79a.44.44,0,0,0,.43-.43.43.43,0,0,0-.86,0,.44.44,0,0,0,.43.43Z" transform="translate(0.18)" style="fill: rgb(255, 255, 255); fill-rule: evenodd;"/><path class="cls-10" d="M285.14,20.31a.43.43,0,1,0-.42-.43.43.43,0,0,0,.42.43Z" transform="translate(0.18)" style="fill: rgb(255, 255, 255); fill-rule: evenodd;"/><path class="cls-10" d="M323.73,10.11a.41.41,0,0,0,.41-.42.41.41,0,0,0-.41-.42.42.42,0,0,0-.43.42.42.42,0,0,0,.43.42Z" transform="translate(0.18)" style="fill: rgb(255, 255, 255); fill-rule: evenodd;"/><path class="cls-10" d="M296.55,51.61a.43.43,0,0,0,0-.86.43.43,0,0,0,0,.86Z" transform="translate(0.18)" style="fill: rgb(255, 255, 255); fill-rule: evenodd;"/><path class="cls-10" d="M329.54,70.77a.43.43,0,1,0-.42-.42.42.42,0,0,0,.42.42Z" transform="translate(0.18)" style="fill: rgb(255, 255, 255); fill-rule: evenodd;"/><path class="cls-10" d="M310.2,86.24a.43.43,0,0,0,0-.85.43.43,0,1,0,0,.85Z" transform="translate(0.18)" style="fill: rgb(255, 255, 255); fill-rule: evenodd;"/><path class="cls-10" d="M209.75,11.75a.43.43,0,1,0-.43-.43.43.43,0,0,0,.43.43Z" transform="translate(0.18)" style="fill: rgb(255, 255, 255); fill-rule: evenodd;"/><path class="cls-10" d="M190.34,95.7a.42.42,0,0,0,.42-.42.43.43,0,0,0-.42-.43.44.44,0,0,0-.43.43.43.43,0,0,0,.43.42Z" transform="translate(0.18)" style="fill: rgb(255, 255, 255); fill-rule: evenodd;"/><path class="cls-10" d="M81.88,59.43a.43.43,0,1,0,0-.85.43.43,0,0,0,0,.85Z" transform="translate(0.18)" style="fill: rgb(255, 255, 255); fill-rule: evenodd;"/><path class="cls-10" d="M11,87.58a.43.43,0,1,0-.42-.43.43.43,0,0,0,.42.43Z" transform="translate(0.18)" style="fill: rgb(255, 255, 255); fill-rule: evenodd;"/><path class="cls-10" d="M7.93,60.19a.26.26,0,1,0-.26-.26.26.26,0,0,0,.26.26Z" transform="translate(0.18)" style="fill: rgb(255, 255, 255); fill-rule: evenodd;"/><path class="cls-10" d="M5.2,22.54a.26.26,0,0,0,.26-.26.26.26,0,0,0-.51,0,.26.26,0,0,0,.25.26Z" transform="translate(0.18)" style="fill: rgb(255, 255, 255); fill-rule: evenodd;"/><path class="cls-10" d="M23.16,9.92a.26.26,0,1,0-.25-.25.25.25,0,0,0,.25.25Z" transform="translate(0.18)" style="fill: rgb(255, 255, 255); fill-rule: evenodd;"/><path class="cls-10" d="M78.24,30.06A.26.26,0,1,0,78,29.8a.25.25,0,0,0,.26.26Z" transform="translate(0.18)" style="fill: rgb(255, 255, 255); fill-rule: evenodd;"/><path class="cls-10" d="M114.63,12.35a.26.26,0,1,0-.26-.26.26.26,0,0,0,.26.26Z" transform="translate(0.18)" style="fill: rgb(255, 255, 255); fill-rule: evenodd;"/><path class="cls-10" d="M122.64,39a.26.26,0,0,0,.25-.26.26.26,0,0,0-.51,0,.26.26,0,0,0,.26.26Z" transform="translate(0.18)" style="fill: rgb(255, 255, 255); fill-rule: evenodd;"/><path class="cls-10" d="M105.9,64a.26.26,0,0,0,0-.52.26.26,0,1,0,0,.52Z" transform="translate(0.18)" style="fill: rgb(255, 255, 255); fill-rule: evenodd;"/><path class="cls-10" d="M68.52,86.34a.26.26,0,0,0,0-.52.26.26,0,0,0,0,.52Z" transform="translate(0.18)" style="fill: rgb(255, 255, 255); fill-rule: evenodd;"/><path class="cls-10" d="M151.75,53.35a.26.26,0,1,0,0-.51.26.26,0,0,0,0,.51Z" transform="translate(0.18)" style="fill: rgb(255, 255, 255); fill-rule: evenodd;"/><path class="cls-10" d="M189.12,79.56a.26.26,0,1,0-.26-.26.26.26,0,0,0,.26.26Z" transform="translate(0.18)" style="fill: rgb(255, 255, 255); fill-rule: evenodd;"/><path class="cls-10" d="M234.25,88.29a.25.25,0,0,0,.25-.25.26.26,0,1,0-.51,0,.26.26,0,0,0,.26.25Z" transform="translate(0.18)" style="fill: rgb(255, 255, 255); fill-rule: evenodd;"/><path class="cls-10" d="M234.73,69.85a.26.26,0,1,0-.26-.25.26.26,0,0,0,.26.25Z" transform="translate(0.18)" style="fill: rgb(255, 255, 255); fill-rule: evenodd;"/><path class="cls-10" d="M212.89,43.65a.26.26,0,1,0-.25-.26.26.26,0,0,0,.25.26Z" transform="translate(0.18)" style="fill: rgb(255, 255, 255); fill-rule: evenodd;"/><path class="cls-10" d="M253.66,31.52a.26.26,0,0,0,0-.52.26.26,0,1,0,0,.52Z" transform="translate(0.18)" style="fill: rgb(255, 255, 255); fill-rule: evenodd;"/><path class="cls-10" d="M305.09,26.18a.26.26,0,0,0,.26-.25.26.26,0,1,0-.52,0,.26.26,0,0,0,.26.25Z" transform="translate(0.18)" style="fill: rgb(255, 255, 255); fill-rule: evenodd;"/><path class="cls-10" d="M331.3,36.37a.26.26,0,1,0-.26-.26.25.25,0,0,0,.26.26Z" transform="translate(0.18)" style="fill: rgb(255, 255, 255); fill-rule: evenodd;"/><path class="cls-10" d="M297.81,79.56a.26.26,0,1,0,0-.52.26.26,0,0,0,0,.52Z" transform="translate(0.18)" style="fill: rgb(255, 255, 255); fill-rule: evenodd;"/><path class="cls-10" d="M317.23,102.85a.26.26,0,0,0,.25-.26.25.25,0,0,0-.25-.25.26.26,0,0,0-.27.25.27.27,0,0,0,.27.26Z" transform="translate(0.18)" style="fill: rgb(255, 255, 255); fill-rule: evenodd;"/><path class="cls-10" d="M299.27,11.14a.26.26,0,1,0-.26-.26.26.26,0,0,0,.26.26Z" transform="translate(0.18)" style="fill: rgb(255, 255, 255); fill-rule: evenodd;"/><path class="cls-10" d="M177,15a.26.26,0,1,0,0-.52.26.26,0,0,0,0,.52Z" transform="translate(0.18)" style="fill: rgb(255, 255, 255); fill-rule: evenodd;"/><path class="cls-10" d="M148.35,7.74a.26.26,0,0,0,.26-.26.25.25,0,0,0-.26-.25.25.25,0,0,0-.25.25.26.26,0,0,0,.25.26Z" transform="translate(0.18)" style="fill: rgb(255, 255, 255); fill-rule: evenodd;"/><path class="cls-10" d="M46.94,47.05a.26.26,0,1,0-.26-.26.26.26,0,0,0,.26.26Z" transform="translate(0.18)" style="fill: rgb(255, 255, 255); fill-rule: evenodd;"/><path class="cls-10" d="M59.07,13.56a.26.26,0,1,0-.26-.26.26.26,0,0,0,.26.26Z" transform="translate(0.18)" style="fill: rgb(255, 255, 255); fill-rule: evenodd;"/><path class="cls-10" d="M151.52,76.53a.42.42,0,0,0,.42-.42.43.43,0,1,0-.42.42Z" transform="translate(0.18)" style="fill: rgb(255, 255, 255); fill-rule: evenodd;"/><path class="cls-10" d="M108.08,86.72a.42.42,0,0,0,.43-.42.43.43,0,1,0-.43.42Z" transform="translate(0.18)" style="fill: rgb(255, 255, 255); fill-rule: evenodd;"/><path class="cls-10" d="M125.55,87.08a.26.26,0,0,0,.26-.26.26.26,0,0,0-.52,0,.26.26,0,0,0,.26.26Z" transform="translate(0.18)" style="fill: rgb(255, 255, 255); fill-rule: evenodd;"/><path class="cls-10" d="M101.06,112.05a.26.26,0,0,0,.26-.25.26.26,0,0,0-.52,0,.26.26,0,0,0,.26.25Z" transform="translate(0.18)" style="fill: rgb(255, 255, 255); fill-rule: evenodd;"/><g id="_Csoport_" data-name="&lt;Csoport&gt;"><path class="cls-10" d="M205.94,61.19a14.89,14.89,0,0,1-2.41-.6,3.78,3.78,0,0,0-2.31.46.63.63,0,0,0-.5-.28.6.6,0,0,0-.48.26,4,4,0,0,0-2.37-.53,16,16,0,0,1-2.42.56h-.22l.22,0a5.2,5.2,0,0,0,1.13.07c.43,0,.84-.09,1.28-.07a2.82,2.82,0,0,1,1.16.33,11.14,11.14,0,0,1,1.14.71,1.45,1.45,0,0,0,1.17,0,9.22,9.22,0,0,1,1-.62,2.69,2.69,0,0,1,1.16-.31c.44,0,.86.06,1.29.09a5.85,5.85,0,0,0,1.12,0l.22,0Z" transform="translate(0.18)" style="fill: rgb(255, 255, 255); fill-rule: evenodd;"/><path class="cls-10" d="M164.56,46.82a16.59,16.59,0,0,1-2.88-.72,4.57,4.57,0,0,0-2.77.55.75.75,0,0,0-.59-.33.74.74,0,0,0-.58.31A4.69,4.69,0,0,0,154.9,46a17.88,17.88,0,0,1-2.89.66h-.26l.26.06a6.63,6.63,0,0,0,1.35.08c.51,0,1-.11,1.54-.08a3.35,3.35,0,0,1,1.38.39,10.93,10.93,0,0,1,1.36.85,1.71,1.71,0,0,0,1.4,0,12.13,12.13,0,0,1,1.25-.74,3.24,3.24,0,0,1,1.39-.36c.53,0,1,.07,1.54.1a5.89,5.89,0,0,0,1.34-.06l.27,0Z" transform="translate(0.18)" style="fill: rgb(255, 255, 255); fill-rule: evenodd;"/><path class="cls-10" d="M294.5,37.19a11,11,0,0,1-1.94-.48,3,3,0,0,0-1.86.37.48.48,0,0,0-.79,0,3.21,3.21,0,0,0-1.91-.42,13.38,13.38,0,0,1-1.95.45h-.18l.18,0a3.88,3.88,0,0,0,.91,0c.34,0,.68-.07,1,0a2.41,2.41,0,0,1,.93.26,7.91,7.91,0,0,1,.91.58,1.18,1.18,0,0,0,1,0,7.17,7.17,0,0,1,.84-.5,2.21,2.21,0,0,1,.93-.25c.36,0,.69,0,1,.07a4.44,4.44,0,0,0,.9,0l.18,0Z" transform="translate(0.18)" style="fill: rgb(255, 255, 255); fill-rule: evenodd;"/><path class="cls-10" d="M33.53,41.9a11.8,11.8,0,0,1-2-.49,3.11,3.11,0,0,0-1.86.37.51.51,0,0,0-.4-.22.5.5,0,0,0-.39.21A3.21,3.21,0,0,0,27,41.34a11,11,0,0,1-1.95.45H24.9l.17,0a4.49,4.49,0,0,0,.91.06,8.94,8.94,0,0,1,1,0,2.2,2.2,0,0,1,.93.26c.35.18.62.38.92.57a1.16,1.16,0,0,0,.94,0,8.11,8.11,0,0,1,.84-.5,2.23,2.23,0,0,1,.93-.24c.36,0,.69.05,1,.07a4.52,4.52,0,0,0,.91,0l.18,0Z" transform="translate(0.18)" style="fill: rgb(255, 255, 255); fill-rule: evenodd;"/></g><path class="cls-11" d="M200.77,129.12a35.74,35.74,0,1,1-18.51-47A35.74,35.74,0,0,1,200.77,129.12Z" transform="translate(0.18)" style="opacity: 0.6; fill: url('#Névtelen_színátmenet_451');"/><path d="M 197.309999 114.860001 A 29.309999 29.309999 0 0 1 168 144.17 A 29.309999 29.309999 0 0 1 138.690001 114.860001 A 29.309999 29.309999 0 0 1 168 85.550001 A 29.309999 29.309999 0 0 1 197.309999 114.860001 Z" class="cls-12" style="fill: url('#Névtelen_színátmenet_457');"/><path class="cls-13" d="M213.87,96.09c-7.6,18.4,0,20.38,0,20.38S221.48,114.49,213.87,96.09Z" transform="translate(0.18)" style="fill: url('#Névtelen_színátmenet_23');"/><path class="cls-14" d="M227.55,87c-7.6,18.41,0,20.38,0,20.38S235.16,105.44,227.55,87Z" transform="translate(0.18)" style="fill: url('#Névtelen_színátmenet_23-2');"/><path class="cls-15" d="M246.9,78.83c-7.6,18.4,0,20.38,0,20.38S254.51,97.23,246.9,78.83Z" transform="translate(0.18)" style="fill: url('#Névtelen_színátmenet_23-3');"/><path class="cls-16" d="M310.64,68.11c-5.19,12.56,0,13.91,0,13.91S315.83,80.67,310.64,68.11Z" transform="translate(0.18)" style="fill: url('#Névtelen_színátmenet_23-4');"/><path d="M 0.18 133.570007 H 336.16999 V 235.19001 H 0.18 V 133.570007 Z" class="cls-17" style="fill: url('#Névtelen_színátmenet_315');"/><path class="cls-18" d="M0,154.82c2.67,0,2.67,2,5.33,2s2.67-2,5.33-2,2.67,2,5.33,2,2.67-2,5.33-2,2.67,2,5.33,2,2.67-2,5.34-2,2.66,2,5.33,2,2.66-2,5.33-2,2.66,2,5.33,2,2.67-2,5.33-2,2.67,2,5.33,2,2.67-2,5.34-2,2.66,2,5.33,2,2.66-2,5.33-2,2.66,2,5.33,2,2.67-2,5.33-2,2.67,2,5.34,2,2.66-2,5.33-2,2.66,2,5.33,2,2.67-2,5.33-2,2.67,2,5.34,2,2.66-2,5.33-2,2.66,2,5.33,2,2.67-2,5.33-2,2.67,2,5.33,2,2.67-2,5.33-2,2.66,2,5.33,2,2.66-2,5.33-2,2.66,2,5.33,2,2.67-2,5.33-2,2.67,2,5.33,2,2.67-2,5.33-2,2.67,2,5.33,2,2.67-2,5.34-2,2.66,2,5.33,2,2.66-2,5.33-2,2.66,2,5.33,2,2.67-2,5.33-2,2.67,2,5.33,2,2.67-2,5.34-2,2.66,2,5.33,2,2.67-2,5.33-2,2.67,2,5.34,2,2.66-2,5.33-2,2.67,2,5.34,2,2.66-2,5.33-2,2.67,2,5.34,2,2.66-2,5.33-2,2.67,2,5.34,2,2.66-2,5.33-2,2.67,2,5.34,2,2.67-2,5.33-2,2.67,2,5.34,2,2.66-2,5.33-2,2.67,2,5.33,2,2.67-2,5.34-2,2.67,2,5.34,2,2.67-2,5.34-2,2.66,2,5.33,2,2.67-2,5.34-2,2.67,2,5.34,2,2.67-2,5.34-2,2.67,2,5.35,2v78.39H0Z" transform="translate(0.18)" style="fill: url('#Névtelen_színátmenet_21');"/><path class="cls-19" d="M165.84,133.67S266.12,76.13,336,76.13v58Z" transform="translate(0.18)" style="fill: url('#Névtelen_színátmenet_22');"/><path class="cls-20" d="M249.09,128.53l1.5,0-2.39-4.39h1.18l-2-3.8h.73l-1.54-3.13h.69l-1.32-2.92h.7l-1.36-3.26h.55A31.73,31.73,0,0,1,244,104.7h0a31.41,31.41,0,0,1-1.83,6.34h.54l-1.36,3.26h.7l-1.31,2.92h.68l-1.54,3.13h.73l-2,3.8h1.18l-2.39,4.39,1.51,0-3,5.34h16.26Z" transform="translate(0.18)" style="fill: rgb(14, 35, 69);"/><path d="M 38.529998779296875 128.25999450683594 L 42.790000915527344 133.5500030517578 L 64.58999633789062 133.5500030517578 L 70.2699966430664 128.25999450683594 L 38.529998779296875 128.25999450683594 Z" class="cls-21" style="fill: rgb(255, 250, 251);"/><path class="cls-22" d="M70.08,128.26H38.35a1,1,0,1,1,0-2H70.08a1,1,0,1,1,0,2Z" transform="translate(0.18)" style="fill: rgb(244, 234, 226);"/><path d="M 53.97999954223633 87.1500015258789 L 65.30999755859375 125.38999938964844 L 54.06999969482422 125.38999938964844 L 53.97999954223633 87.1500015258789 Z" class="cls-21" style="fill: rgb(255, 250, 251);"/><path d="M 52.88999938964844 89.72000122070312 L 42.81999969482422 125.38999938964844 L 52.97999954223633 125.38999938964844 L 52.88999938964844 89.72000122070312 Z" class="cls-23" style="fill: rgb(255, 255, 255); opacity: 0.6;"/><path class="cls-24" d="M117.39,155.78c-14.76,35.71,0,39.55,0,39.55S132.15,191.49,117.39,155.78Z" transform="translate(0.18)" style="fill: url('#Névtelen_színátmenet_343');"/><path class="cls-25" d="M69.8,146.64c-14.76,35.72,0,39.55,0,39.55S84.56,182.36,69.8,146.64Z" transform="translate(0.18)" style="fill: url('#Névtelen_színátmenet_328');"/><path class="cls-26" d="M125.91,158.7c-13.14,31.79,0,35.21,0,35.21S139.05,190.49,125.91,158.7Z" transform="translate(0.18)" style="fill: url('#Névtelen_színátmenet_343-2');"/><path class="cls-27" d="M55.19,151c-13.14,31.8,0,35.21,0,35.21S68.33,182.78,55.19,151Z" transform="translate(0.18)" style="fill: url('#Névtelen_színátmenet_343-3');"/><path class="cls-28" d="M91.56,161.85c-10,24.29,0,26.9,0,26.9S101.6,186.14,91.56,161.85Z" transform="translate(0.18)" style="fill: url('#Névtelen_színátmenet_328-2');"/><path class="cls-29" d="M49.35,149.4c-10,24.29,0,26.9,0,26.9S59.39,173.69,49.35,149.4Z" transform="translate(0.18)" style="fill: url('#Névtelen_színátmenet_328-3');"/><path class="cls-30" d="M84.31,162.85c-10,24.29,0,26.9,0,26.9S94.35,187.14,84.31,162.85Z" transform="translate(0.18)" style="fill: url('#Névtelen_színátmenet_343-4');"/><path class="cls-31" d="M292.6,110.24c-8,19.29,0,21.36,0,21.36S300.57,129.53,292.6,110.24Z" transform="translate(0.18)" style="fill: url('#Névtelen_színátmenet_23-5');"/><path class="cls-32" d="M279.58,110.24c-8,19.29,0,21.36,0,21.36S287.55,129.53,279.58,110.24Z" transform="translate(0.18)" style="fill: url('#Névtelen_színátmenet_23-6');"/><path class="cls-33" d="M304.74,98.39c-12.39,30,0,33.21,0,33.21S317.13,128.38,304.74,98.39Z" transform="translate(0.18)" style="fill: url('#Névtelen_színátmenet_23-7');"/><path class="cls-20" d="M305.36,127.59l1.82,0-2.88-5.27h1.42l-2.41-4.57h.87L302.33,114h.83l-1.58-3.51h.84l-1.64-3.92h.66A37.88,37.88,0,0,1,299.23,99h0a37.57,37.57,0,0,1-2.2,7.61h.66l-1.64,3.92h.84L295.31,114h.83l-1.85,3.76h.87l-2.41,4.57h1.42l-2.88,5.27,1.81,0L289.47,134H309Z" transform="translate(0.18)" style="fill: rgb(14, 35, 69);"/><path class="cls-34" d="M234.27,183.73s-20.11,5.8-40.42,9.78A133.22,133.22,0,0,1,168.26,196h0a133.22,133.22,0,0,1-25.59-2.48c-20.31-4-40.42-9.78-40.42-9.78C22,157.59,0,156.79,0,156.79l.14,78.4H336v-78.4S314.55,157.59,234.27,183.73Z" transform="translate(0.18)" style="fill: url('#Névtelen_színátmenet_328-4');"/><path class="cls-20" d="M278.83,129.29l1.29,0-2.05-3.76h1l-1.72-3.27H278l-1.32-2.69h.59l-1.13-2.51h.6l-1.17-2.8H276a27.45,27.45,0,0,1-1.57-5.44h0a27,27,0,0,1-1.58,5.44h.47l-1.17,2.8h.6l-1.12,2.51h.59l-1.33,2.69h.63l-1.73,3.27h1l-2.06,3.76,1.3,0-2.6,4.58h14Z" transform="translate(0.18)" style="fill: rgb(14, 35, 69);"/><path class="cls-20" d="M329.14,129.42l1.29,0-2.05-3.77h1l-1.72-3.26h.62L327,119.73h.59l-1.13-2.5h.6l-1.17-2.8h.47a26.73,26.73,0,0,1-1.57-5.44h0a26.73,26.73,0,0,1-1.57,5.44h.47l-1.17,2.8h.6l-1.13,2.5h.59l-1.32,2.69h.62l-1.72,3.26h1l-2.05,3.77,1.29,0L317.78,134h14Z" transform="translate(0.18)" style="fill: rgb(14, 35, 69);"/><path class="cls-35" d="M213.07,133.49H123.48c-4.56,3.63-7.19,7.88-7.19,12.42,0,13.38,22.81,24.23,51,24.23h2.08c28.13,0,50.94-10.85,50.94-24.23C220.26,141.37,217.63,137.12,213.07,133.49Z" transform="translate(0.18)" style="fill: url('#Névtelen_színátmenet_314');"/><path class="cls-36" d="M242.19,133.67H94.37A57,57,0,0,0,82.5,168.06c0,37.08,37.63,67.13,84.06,67.13.58,0,1.14,0,1.72,0s1.14,0,1.71,0c46.43,0,84.07-30.05,84.07-67.13A57.08,57.08,0,0,0,242.19,133.67Z" transform="translate(0.18)" style="fill: url('#Névtelen_színátmenet_314-2');"/><g class="cls-37" style="opacity: 0.2;"><path class="cls-38" d="M77.69,100.05A23,23,0,0,1,108,88a23.26,23.26,0,0,1,11.92,30.52,23,23,0,0,1-30.29,12A23.26,23.26,0,0,1,77.69,100.05Z" transform="translate(0.18)" style="opacity: 0.6; fill: url('#Névtelen_színátmenet_26');"/><path class="cls-39" d="M135.16,60.5a36.1,36.1,0,0,1,47.65-18.88,36.58,36.58,0,0,1,18.75,48,36.11,36.11,0,0,1-47.66,18.88A36.59,36.59,0,0,1,135.16,60.5Z" transform="translate(0.18)" style="opacity: 0.3; fill: url('#Névtelen_színátmenet_26-2');"/><path class="cls-40" d="M204.56,140.34a23,23,0,0,1,30.3-12,23.24,23.24,0,0,1,11.91,30.51,22.94,22.94,0,0,1-30.29,12A23.27,23.27,0,0,1,204.56,140.34Z" transform="translate(0.18)" style="opacity: 0.3; fill: url('#Névtelen_színátmenet_26-3');"/><path class="cls-41" d="M226.73,175.84a32.41,32.41,0,0,1,42.77-17A32.83,32.83,0,0,1,286.33,202a32.41,32.41,0,0,1-42.77,17A32.84,32.84,0,0,1,226.73,175.84Z" transform="translate(0.18)" style="opacity: 0.2; fill: url('#Névtelen_színátmenet_26-4');"/><path class="cls-42" d="M175.35,137a23,23,0,0,1,30.3-12,23.26,23.26,0,0,1,11.91,30.52,23,23,0,0,1-30.29,12A23.27,23.27,0,0,1,175.35,137Z" transform="translate(0.18)" style="opacity: 0.2; fill: url('#Névtelen_színátmenet_26-5');"/><path class="cls-43" d="M45,129.4a22.94,22.94,0,0,1,30.29-12,23.25,23.25,0,0,1,11.92,30.51,23,23,0,0,1-30.29,12A23.26,23.26,0,0,1,45,129.4Z" transform="translate(0.18)" style="opacity: 0.2; fill: url('#Névtelen_színátmenet_26-6');"/><path class="cls-44" d="M9.44,165.45a29.72,29.72,0,0,1,39.22-15.54,30.1,30.1,0,0,1,15.42,39.51A29.7,29.7,0,0,1,24.87,205,30.11,30.11,0,0,1,9.44,165.45Z" transform="translate(0.18)" style="opacity: 0.6; fill: url('#Névtelen_színátmenet_346');"/><path class="cls-45" d="M15.93,83.59A31.93,31.93,0,0,1,58.06,66.9a32.34,32.34,0,0,1,16.56,42.44A31.92,31.92,0,0,1,32.5,126,32.35,32.35,0,0,1,15.93,83.59Z" transform="translate(0.18)" style="opacity: 0.3; fill: url('#Névtelen_színátmenet_26-7');"/><path class="cls-46" d="M290.34,52.55a23,23,0,0,1,30.3-12,23.26,23.26,0,0,1,11.91,30.52,22.94,22.94,0,0,1-30.29,12A23.26,23.26,0,0,1,290.34,52.55Z" transform="translate(0.18)" style="opacity: 0.6; fill: url('#Névtelen_színátmenet_26-8');"/></g><g class="cls-47" style="opacity: 0.5;"><path class="cls-48" d="M319.16,139.53c0,.13-30.13.22-67.3.21s-67.29-.12-67.29-.25,30.13-.22,67.29-.21S319.16,139.4,319.16,139.53Z" transform="translate(0.18)" style="fill: url('#Névtelen_színátmenet_138');"/><path class="cls-49" d="M335.73,136.08c0,.12-15.76.22-35.21.21s-35.22-.13-35.22-.25,15.77-.23,35.22-.21S335.73,136,335.73,136.08Z" transform="translate(0.18)" style="fill: url('#Névtelen_színátmenet_138-2');"/><path class="cls-50" d="M256.53,146.54c0,.09-15.94.16-35.6.15s-35.6-.08-35.6-.17,15.94-.16,35.6-.15S256.53,146.45,256.53,146.54Z" transform="translate(0.18)" style="fill: url('#Névtelen_színátmenet_138-3');"/><path class="cls-51" d="M220.93,142.08c0,.08-15.94.15-35.6.15s-35.6-.09-35.6-.17,15.94-.16,35.6-.15S220.93,142,220.93,142.08Z" transform="translate(0.18)" style="fill: url('#Névtelen_színátmenet_138-4');"/><path class="cls-52" d="M193.89,148.87c0,.09-15.94.16-35.6.15s-35.6-.08-35.6-.17,15.94-.15,35.6-.15S193.89,148.78,193.89,148.87Z" transform="translate(0.18)" style="fill: url('#Névtelen_színátmenet_138-5');"/><path class="cls-53" d="M48.44,148.87c0,.09-10.86.16-24.26.15s-24.27-.08-24.27-.17,10.87-.15,24.27-.15S48.44,148.78,48.44,148.87Z" transform="translate(0.18)" style="fill: url('#Névtelen_színátmenet_138-6');"/><path class="cls-54" d="M111.28,146.59c0,.09-16,.15-35.69.15s-35.69-.08-35.69-.17,16-.16,35.69-.15S111.28,146.5,111.28,146.59Z" transform="translate(0.18)" style="fill: url('#Névtelen_színátmenet_138-7');"/><path class="cls-55" d="M111.8,150.34c0,.08-5.09.15-11.38.15S89,150.4,89,150.32s5.1-.16,11.38-.15S111.8,150.25,111.8,150.34Z" transform="translate(0.18)" style="fill: url('#Névtelen_színátmenet_138-8');"/><path class="cls-56" d="M102.88,142.26c0,.09-5.09.15-11.38.15s-11.38-.08-11.38-.17,5.1-.16,11.38-.15S102.88,142.17,102.88,142.26Z" transform="translate(0.18)" style="fill: url('#Névtelen_színátmenet_138-9');"/><path class="cls-57" d="M121.79,138.51c0,.08-5.1.15-11.38.15S99,138.57,99,138.49s5.1-.16,11.38-.16S121.79,138.42,121.79,138.51Z" transform="translate(0.18)" style="fill: url('#Névtelen_színátmenet_138-10');"/><path class="cls-58" d="M200.7,136.52c0,.09-14.8.16-33.06.15s-33.06-.08-33.06-.17,14.8-.15,33.06-.15S200.7,136.43,200.7,136.52Z" transform="translate(0.18)" style="fill: url('#Névtelen_színátmenet_138-11');"/><path class="cls-59" d="M133.17,139.73c0,.08-21.28.15-47.53.15s-47.54-.09-47.54-.17,21.28-.16,47.54-.15S133.17,139.64,133.17,139.73Z" transform="translate(0.18)" style="fill: url('#Névtelen_színátmenet_138-12');"/><path class="cls-60" d="M71.62,141.3c0,.09-14.39.16-32.15.16s-32.15-.09-32.15-.18,14.4-.15,32.15-.15S71.62,141.21,71.62,141.3Z" transform="translate(0.18)" style="fill: url('#Névtelen_színátmenet_138-13');"/><path class="cls-61" d="M296.2,150.46c0,.08-13.82.14-30.89.14s-30.91-.07-30.91-.14,13.83-.14,30.91-.13S296.2,150.39,296.2,150.46Z" transform="translate(0.18)" style="fill: url('#Névtelen_színátmenet_138-14');"/><path class="cls-62" d="M335.53,144.46c0,.09-26,.17-58.08.16s-58.12-.07-58.12-.16,26-.17,58.12-.17S335.53,144.37,335.53,144.46Z" transform="translate(0.18)" style="fill: url('#Névtelen_színátmenet_138-15');"/></g><path class="cls-63" d="M250.55,110.1c-6.85,16.58-1.93,20.44-.41,21.2v2.57H251V131.3C252.48,130.54,257.4,126.68,250.55,110.1Z" transform="translate(0.18)" style="fill: url('#Névtelen_színátmenet_23-8');"/><path class="cls-64" d="M259.14,110.1c-6.94,16.79-1.8,20.54-.35,21.23v2.54h.82v-2.6C261.19,130.44,265.9,126.47,259.14,110.1Z" transform="translate(0.18)" style="fill: url('#Névtelen_színátmenet_23-9');"/><path class="cls-65" d="M268.3,105c-9.87,23.89,0,26.46,0,26.46v2.41h.82v-2.79C271.27,129.77,276.36,124.48,268.3,105Z" transform="translate(0.18)" style="fill: url('#Névtelen_színátmenet_23-10');"/><path class="cls-66" d="M283.71,106.69c-8.09,19.58-2.1,23.95-.41,24.75V134h.82v-2.57C285.81,130.64,291.8,126.27,283.71,106.69Z" transform="translate(0.18)" style="fill: url('#Névtelen_színátmenet_23-11');"/><path class="cls-67" d="M317.78,105.15c-8.64,20.88-2.17,25.47-.41,26.29V134h.82v-2.57C320,130.62,326.41,126,317.78,105.15Z" transform="translate(0.18)" style="fill: url('#Névtelen_színátmenet_23-12');"/><path class="cls-20" d="M53,190.53l4.05.11-6.43-15h3.17l-5.39-13h2L46.26,152H48.1l-3.52-10,1.87,0-3.66-11.11,1.47,0c-3.06-8.26-4.92-21.6-4.92-21.6h0s-1.86,13.34-4.92,21.6l1.47,0-3.66,11.11,1.87,0-3.52,10h1.84l-4.13,10.67h1.95l-5.39,13H28l-6.43,15,4.05-.11-8.12,18.22H61.16Z" transform="translate(0.18)" style="fill: rgb(14, 35, 69);"/><path class="cls-68" d="M40.65,130.9,43.13,142l-2-.05L43.79,152,41.73,152,45,162.69l-1.89-.07,3.92,13-3-.08,4.76,15.13-4-.19,6.18,18.31H61.16L53,190.53l4.05.11-6.43-15h3.17l-5.39-13h2L46.26,152H48.1l-3.52-10,1.87,0-3.66-11.11,1.47,0c-3.06-8.26-4.93-21.6-4.93-21.6h0c.26,4.09.6,15,2.33,21.58Z" transform="translate(0.18)" style="fill: rgb(255, 255, 255); opacity: 0.1;"/><path class="cls-69" d="M300.08,210.88l3.62.1L298,197.61h2.83L296,186h1.74L294,176.5h1.65l-3.15-8.9,1.68,0-3.27-9.93,1.31,0c-2.73-7.38-4.4-19.3-4.4-19.3h0s-1.67,11.92-4.4,19.3l1.32,0-3.27,9.93,1.67,0-3.15,8.9h1.65L278,186h1.75l-4.82,11.57h2.83L272,211l3.61-.1-7.25,16.28h39Z" transform="translate(0.18)" style="fill: rgb(13, 50, 85);"/><path class="cls-68" d="M289,157.62l2.21,9.89-1.77,0,2.36,9-1.84-.06,2.9,9.59L291.2,186l3.5,11.57-2.72-.07L296.23,211l-3.59-.17,5.53,16.36h9.17l-7.26-16.28,3.62.1L298,197.61h2.83L296,186h1.74L294,176.5h1.65l-3.15-8.9,1.68,0-3.27-9.93,1.31,0c-2.73-7.38-4.4-19.3-4.4-19.3h0c.24,3.65.54,13.36,2.08,19.27Z" transform="translate(0.18)" style="fill: rgb(255, 255, 255); opacity: 0.1;"/><path class="cls-20" d="M219.44,214l3.12.08-4.95-11.52h2.44l-4.14-10h1.5l-3.19-8.21h1.42l-2.71-7.66,1.44,0-2.81-8.55,1.13,0c-2.36-6.36-3.79-16.62-3.79-16.62h0s-1.44,10.26-3.79,16.62l1.13,0-2.82,8.55,1.44,0-2.71,7.66h1.42l-3.18,8.21h1.5l-4.15,10h2.44l-4.94,11.52,3.11-.08-6.25,14h33.59Z" transform="translate(0.18)" style="fill: rgb(14, 35, 69);"/><path class="cls-68" d="M209.91,168.11l1.9,8.52-1.52,0,2,7.77-1.59-.05,2.5,8.26-1.45,0,3,10-2.34-.06,3.66,11.64-3.09-.15L217.79,228h7.9l-6.25-14,3.12.08-4.95-11.52h2.44l-4.14-10h1.5l-3.19-8.21h1.42l-2.71-7.66,1.44,0-2.81-8.55,1.13,0c-2.36-6.36-3.79-16.62-3.79-16.62h0c.2,3.14.46,11.5,1.79,16.6Z" transform="translate(0.18)" style="fill: rgb(255, 255, 255); opacity: 0.1;"/><path class="cls-69" d="M327.51,199.54l3.11.08-4.94-11.51h2.44l-4.15-10h1.5l-3.18-8.21h1.42L321,162.26l1.44,0-2.82-8.55,1.14,0C318.4,147.3,317,137,317,137h0s-1.43,10.26-3.79,16.62l1.14,0-2.82,8.55,1.44,0-2.71,7.67h1.42l-3.18,8.21H310l-4.15,10h2.44l-4.94,11.51,3.11-.08-6.25,14h33.59Z" transform="translate(0.18)" style="fill: rgb(13, 50, 85);"/><path class="cls-68" d="M318,153.66l1.9,8.51-1.52,0,2,7.77-1.58,0,2.5,8.26-1.45-.05,3,10-2.34-.07,3.66,11.65-3.09-.15,4.76,14.09h7.9l-6.25-14,3.11.08-4.94-11.51h2.44l-4.15-10h1.5l-3.18-8.21h1.42L321,162.26l1.44,0-2.82-8.55,1.14,0C318.4,147.3,317,137,317,137h0c.21,3.15.47,11.51,1.8,16.61Z" transform="translate(0.18)" style="fill: rgb(255, 255, 255); opacity: 0.1;"/><path class="cls-69" d="M23.61,192.44l3.46.09-5.49-12.78h2.71l-4.6-11.06h1.66l-3.53-9.11h1.57l-3-8.51,1.59,0-3.12-9.49,1.26,0c-2.62-7.06-4.21-18.44-4.21-18.44h0s-1.59,11.38-4.21,18.44l1.26,0-3.12,9.49,1.6,0-3,8.51H6l-3.53,9.11H4.13L0,178.63v1.12H2.24L0,185v23H30.55Z" transform="translate(0.18)" style="fill: rgb(13, 50, 85);"/><path class="cls-68" d="M13.26,141.53,15.37,151l-1.69,0,2.26,8.62-1.76-.06L17,168.67l-1.61-.06,3.35,11.07-2.6-.08,4.06,12.92-3.43-.16L22,208h8.77l-6.94-15.55,3.46.09L21.8,179.75h2.71l-4.6-11.06h1.66L18,159.57h1.58l-3-8.51,1.6,0-3.13-9.49,1.26,0c-2.61-7.06-4.21-18.44-4.21-18.44h0c.23,3.49.52,12.77,2,18.43Z" transform="translate(0.18)" style="fill: rgb(255, 255, 255); opacity: 0.1;"/><path class="cls-70" d="M62,235.19h63.92c-1.61-5.35-8.48-9.37-16.72-9.37a21.15,21.15,0,0,0-12.46,3.74,11.71,11.71,0,0,0-13.33-4A11.77,11.77,0,0,0,73,219.39a12.85,12.85,0,0,0-2.07.19c0-.06,0-.12,0-.19a11.77,11.77,0,0,0-11.77-11.77,11.27,11.27,0,0,0-1.75.15,11.75,11.75,0,0,0-20.71-4.09,11.72,11.72,0,0,0-16.52.4A11.76,11.76,0,0,0,0,205.67v10.27L0,216H0v19.17H62Z" transform="translate(0.18)" style="fill: rgb(7, 24, 38);"/><path class="cls-20" d="M138.5,234.72h0c-.67-4.07-3.26-8.87-7-8.91a7.8,7.8,0,0,0-7.83-6.51,8.06,8.06,0,0,0-5.29,1.95,4.2,4.2,0,0,0-3.33-2.6,5,5,0,0,0-9.6-.15,1.49,1.49,0,0,0-.72-.19,1.72,1.72,0,0,0-1.55,1.16,1,1,0,0,0-.51-.2,2.34,2.34,0,0,0-2-2.31c0-.05,0-.1,0-.16a4.78,4.78,0,0,0-4.82-4.73,4.44,4.44,0,0,0-1,.12,2.12,2.12,0,0,0-1.19-1.3,2.73,2.73,0,0,0,.48-1.54,2.67,2.67,0,0,0-2.66-2.68,2.74,2.74,0,0,0-.63.09,2.46,2.46,0,0,0-2.32-2.27,2.32,2.32,0,0,0-2,1.3,2.17,2.17,0,0,0-1.15-.33,2.62,2.62,0,0,0-2.47,2.44h-.11A1.72,1.72,0,0,0,81,209.61a1.15,1.15,0,0,0,0,.26,6.27,6.27,0,0,0-1.8-.26,6,6,0,0,0-6,5.27,3.75,3.75,0,0,0-3.45,2.88l-.63.39A6.64,6.64,0,0,0,64.19,216a6.43,6.43,0,0,0-6.3,4.57,2.66,2.66,0,0,0-2.28,2.64,2.27,2.27,0,0,0-.69-.12,2,2,0,0,0-2,1.66,6.66,6.66,0,0,0-5.63-.92,3.52,3.52,0,0,0-2.9-1.53,3.49,3.49,0,0,0-2.3.87,8.72,8.72,0,0,0-3.45-.71,8.57,8.57,0,0,0-1.44.12,6,6,0,0,0-5-3.09,5.6,5.6,0,0,0-1.09.12c-1.14-3.18-3.72-5.41-6.72-5.41-3.69,0-6.73,3.37-7.25,7.75-.16,0-.31-.05-.47-.05-3.08,0-5.58,2.83-5.58,6.31a5.29,5.29,0,0,0,0,.56,3.24,3.24,0,0,0-2.9,3.11,1.37,1.37,0,0,0,0,.19,5.87,5.87,0,0,0-3-.82A5.29,5.29,0,0,0,0,234.88S138.88,234.68,138.5,234.72Z" transform="translate(0.18)" style="fill: rgb(14, 35, 69);"/><path class="cls-20" d="M335.83,211a8.24,8.24,0,0,0-8.09-6.67,8.09,8.09,0,0,0-3,.57,15.61,15.61,0,0,0-20.11,5,15.65,15.65,0,0,0-24.55,12.88c-10.72,0-19.71,5.12-22.09,12a15.61,15.61,0,0,0-19.56-4.9A15.65,15.65,0,0,0,210,235.19H336V211Z" transform="translate(0.18)" style="fill: rgb(14, 35, 69);"/><path class="cls-69" d="M336,224.12a3.29,3.29,0,0,0-3.15,3.47,3.25,3.25,0,0,0,.08.77h-.05a3.14,3.14,0,0,0-2.75-1.7,3.11,3.11,0,0,0-.62.06,3.65,3.65,0,0,0,.08-.74,3.25,3.25,0,0,0-3.18-3.33,3.16,3.16,0,0,0-1.06.19,1.43,1.43,0,0,0-2.84.13,3.16,3.16,0,0,0-1.36-.32A3.25,3.25,0,0,0,318,226a3.65,3.65,0,0,0,.08.74,3.11,3.11,0,0,0-.62-.06,3.06,3.06,0,0,0-2.21.95,2.77,2.77,0,0,0-2.57-1.83,2.84,2.84,0,0,0-.93.16,1.27,1.27,0,0,0-1.23-1.07,1.29,1.29,0,0,0-1.26,1.19,2.64,2.64,0,0,0-1.19-.28,2.76,2.76,0,0,0-2.52,1.72,3.06,3.06,0,0,0-2.09-.84,3.21,3.21,0,0,0-.63.06,3.05,3.05,0,0,0,.08-.74,3.25,3.25,0,0,0-3.17-3.33,3.16,3.16,0,0,0-1.06.19,1.43,1.43,0,0,0-2.84.13,3.17,3.17,0,0,0-1.37-.32,3.24,3.24,0,0,0-3.15,3.11,2.37,2.37,0,0,0-1.24-.36,2.49,2.49,0,0,0-1.05.24,1.11,1.11,0,0,0-2.2-.1,2.42,2.42,0,0,0-.81-.14,2.51,2.51,0,0,0-2.45,2.57,2.76,2.76,0,0,0,.06.57,2.44,2.44,0,0,0-.48-.05,2.37,2.37,0,0,0-1.57.63v-1a2.53,2.53,0,0,0-2.32-1.61,2,2,0,0,0-.35,0,2.45,2.45,0,0,0-.39,0,1.92,1.92,0,0,0-.41,0,1.1,1.1,0,0,0-1.46-.81,1.1,1.1,0,0,0-.36-.07,1.15,1.15,0,0,0-1.08.84H275c-.12,0-.23,0-.34,0a2.56,2.56,0,0,0-.39,0,2.6,2.6,0,0,0-2.54,2.66,3.43,3.43,0,0,0,.06.56h-.15c-.11,0-.22,0-.34,0a2.37,2.37,0,0,0-1.18.32,3.58,3.58,0,0,0-1.42-.3l-.28,0a3.4,3.4,0,0,0-.45,0,3.69,3.69,0,0,0-1,.13,1.75,1.75,0,0,0-1.68-1.38,1.36,1.36,0,0,1-.73,0,2.06,2.06,0,0,0-.26,0,4.8,4.8,0,0,0-1.37-.23l-.39,0c-.11,0-.22,0-.34,0a4.62,4.62,0,0,0-1,.11,2.3,2.3,0,0,0-2.18-1.75,2.2,2.2,0,0,0-.36,0,2.33,2.33,0,0,0-.37,0,2.29,2.29,0,0,0-2.21,1.87,4.81,4.81,0,0,0-1.47-.23l-.33,0-.4,0a4.61,4.61,0,0,0-2,.46,3.16,3.16,0,0,0-1.66-.48l-.33,0-.31,0a3.38,3.38,0,0,0,.08-.72,3.42,3.42,0,0,0-3.33-3.49,2.58,2.58,0,0,0-.39,0c-.12,0-.23,0-.34,0a3.27,3.27,0,0,0-.44,0,1.49,1.49,0,0,0-1.42-1.12,1.55,1.55,0,0,0-1.51,1.42,3.1,3.1,0,0,0-1.42-.34,3.42,3.42,0,0,0-3.33,3.49,3.33,3.33,0,0,0,.09.78h-.05a3.14,3.14,0,0,0-3.42-1.67,3.67,3.67,0,0,0,.08-.75,3.3,3.3,0,0,0-3.21-3.37,3.23,3.23,0,0,0-1.08.19,1.45,1.45,0,0,0-2.88.13,3.08,3.08,0,0,0-1.38-.32,3.26,3.26,0,0,0-3.17,2.88,3.2,3.2,0,0,0-2.55-1.31,3.11,3.11,0,0,0-1.1.2,1.51,1.51,0,0,0-1.46-1.27,1.53,1.53,0,0,0-1.49,1.41,3,3,0,0,0-1.4-.34,3.37,3.37,0,0,0-3.29,3.45,3.25,3.25,0,0,0,.09.77h-.05a3.11,3.11,0,0,0-3.38-1.64A3.05,3.05,0,0,0,208,226a3.25,3.25,0,0,0-3.17-3.33,3.11,3.11,0,0,0-1.06.19,1.45,1.45,0,0,0-1.41-1.23,1.48,1.48,0,0,0-1.44,1.36,3.09,3.09,0,0,0-1.36-.32,3.25,3.25,0,0,0-3.17,3.33,3.65,3.65,0,0,0,.08.74,3.18,3.18,0,0,0-.62-.06,3.06,3.06,0,0,0-2.21.95,2.78,2.78,0,0,0-2.57-1.83,2.84,2.84,0,0,0-.93.16,1.27,1.27,0,0,0-1.24-1.07,1.29,1.29,0,0,0-1.25,1.19,2.64,2.64,0,0,0-1.19-.28,2.78,2.78,0,0,0-2.53,1.72,3,3,0,0,0-2.09-.84,3.18,3.18,0,0,0-.62.06,3.65,3.65,0,0,0,.08-.74,3.25,3.25,0,0,0-3.17-3.33,3.11,3.11,0,0,0-1.06.19,1.46,1.46,0,0,0-1.41-1.23,1.48,1.48,0,0,0-1.44,1.36,3.09,3.09,0,0,0-1.36-.32,3.24,3.24,0,0,0-3.15,3.11,2.37,2.37,0,0,0-1.24-.36,2.45,2.45,0,0,0-1.05.24,1.14,1.14,0,0,0-1.11-1,1.12,1.12,0,0,0-1.09.94,2.42,2.42,0,0,0-.81-.14A2.51,2.51,0,0,0,162,228a2.76,2.76,0,0,0,.06.57,2.44,2.44,0,0,0-.48-.05,2.41,2.41,0,0,0-2.12,1.32h0a2.88,2.88,0,0,0,.06-.59,2.6,2.6,0,0,0-2.53-2.66,2.49,2.49,0,0,0-1.09.25,1.18,1.18,0,0,0-1.14-1.08,1.17,1.17,0,0,0-1.13,1,2.41,2.41,0,0,0-.85-.15,2.6,2.6,0,0,0-2.53,2.66,2.32,2.32,0,0,0,.07.59,2.83,2.83,0,0,0-.5-.05,2.4,2.4,0,0,0-1.5.53,3.62,3.62,0,0,0-1.83-.51,3.76,3.76,0,0,0-1.64.38,1.77,1.77,0,0,0-1.72-1.63,1.53,1.53,0,0,0-.64.14,4.75,4.75,0,0,0-1.72-.34,4.62,4.62,0,0,0-1.67.3,2.26,2.26,0,0,0-4.5.21A4.7,4.7,0,0,0,130,229a3.19,3.19,0,0,0-2-.69,3.49,3.49,0,0,0-.65.06,4,4,0,0,0,.08-.78,3.42,3.42,0,0,0-3.32-3.49,3.12,3.12,0,0,0-1.11.2,1.5,1.5,0,0,0-3,.14,3.14,3.14,0,0,0-1.43-.34,3.42,3.42,0,0,0-3.32,3.49,4,4,0,0,0,.08.78h0a3.18,3.18,0,0,0-2.79-1.73,3.36,3.36,0,0,0-.63.06,3.08,3.08,0,0,0,.08-.75,3.29,3.29,0,0,0-3.21-3.37,3.12,3.12,0,0,0-1.07.19,1.47,1.47,0,0,0-1.43-1.24,1.49,1.49,0,0,0-1.46,1.37,3,3,0,0,0-1.38-.32,3.25,3.25,0,0,0-3.16,2.88,3.22,3.22,0,0,0-2.56-1.31,3.06,3.06,0,0,0-1.09.2,1.48,1.48,0,0,0-3,.14,3.09,3.09,0,0,0-1.41-.34,3.37,3.37,0,0,0-3.28,3.45,3.87,3.87,0,0,0,.08.77h0a3.13,3.13,0,0,0-2.75-1.7,3.18,3.18,0,0,0-.62.06,3.65,3.65,0,0,0,.08-.74,3.25,3.25,0,0,0-3.17-3.33,3.07,3.07,0,0,0-1.06.19,1.43,1.43,0,0,0-2.85.13,3.09,3.09,0,0,0-1.36-.32A3.25,3.25,0,0,0,74.07,226a3.05,3.05,0,0,0,.08.74,3.18,3.18,0,0,0-.62-.06,3.07,3.07,0,0,0-2.22.95,2.72,2.72,0,0,0-3.49-1.67,1.25,1.25,0,0,0-2.49.12,2.7,2.7,0,0,0-1.19-.28,2.77,2.77,0,0,0-2.53,1.72,3.06,3.06,0,0,0-2.09-.84,3.18,3.18,0,0,0-.62.06A3.65,3.65,0,0,0,59,226a3.25,3.25,0,0,0-3.17-3.33,3.07,3.07,0,0,0-1.06.19,1.43,1.43,0,0,0-2.85.13,3.13,3.13,0,0,0-1.36-.32,3.23,3.23,0,0,0-3.15,3.11,2.42,2.42,0,0,0-1.24-.36,2.5,2.5,0,0,0-1.06.24,1.1,1.1,0,0,0-2.19-.1,2.48,2.48,0,0,0-.82-.14A2.51,2.51,0,0,0,39.63,228a2.22,2.22,0,0,0,.07.57,2.61,2.61,0,0,0-.48-.05,2.41,2.41,0,0,0-2.13,1.32h0a2.32,2.32,0,0,0,.07-.59,2.6,2.6,0,0,0-2.53-2.66,2.49,2.49,0,0,0-1.09.25,1.15,1.15,0,0,0-2.28-.1,2.32,2.32,0,0,0-.84-.15,2.6,2.6,0,0,0-2.53,2.66,2.88,2.88,0,0,0,.06.59,2.73,2.73,0,0,0-.5-.05,2.42,2.42,0,0,0-1.5.53,3.57,3.57,0,0,0-1.83-.51,3.72,3.72,0,0,0-1.63.38,1.77,1.77,0,0,0-1.73-1.63,1.57,1.57,0,0,0-.64.14,4.71,4.71,0,0,0-1.72-.34,4.62,4.62,0,0,0-1.67.3,2.26,2.26,0,0,0-4.49.21,4.73,4.73,0,0,0-2.15-.51,4.68,4.68,0,0,0-2.4.67,3.24,3.24,0,0,0-2-.69,3.49,3.49,0,0,0-.65.06,3.33,3.33,0,0,0,.09-.78,3.42,3.42,0,0,0-3.33-3.49,3.17,3.17,0,0,0-1.11.2A1.5,1.5,0,0,0,0,223.2v12s317.27,0,336,0Z" transform="translate(0.18)" style="fill: rgb(13, 50, 85);"/><path class="cls-70" d="M276.29,235.19a7,7,0,0,0-3.79-1.08,6.15,6.15,0,0,0-.87.06v-.06a5.2,5.2,0,0,0-5.07-5.29,5.72,5.72,0,0,0-5.84-4.57,6.26,6.26,0,0,0-4,1.37,3.1,3.1,0,0,0-2.48-1.82,3.77,3.77,0,0,0-7.16-.11,1.24,1.24,0,0,0-.54-.14,1.27,1.27,0,0,0-1.15.82.77.77,0,0,0-.39-.14,1.69,1.69,0,0,0-1.5-1.62.43.43,0,0,0,0-.11,3.47,3.47,0,0,0-3.6-3.32,4,4,0,0,0-.78.08,1.51,1.51,0,0,0-.89-.91,1.87,1.87,0,0,0,.36-1.08,1.93,1.93,0,0,0-2-1.88,1.91,1.91,0,0,0-.48.06,1.79,1.79,0,0,0-1.73-1.6,1.71,1.71,0,0,0-1.49.92,1.7,1.7,0,0,0-.86-.23,1.9,1.9,0,0,0-1.85,1.71h-.08a1.24,1.24,0,0,0-1.28,1.21,1.1,1.1,0,0,0,0,.18,4.93,4.93,0,0,0-1.34-.18,4.38,4.38,0,0,0-4.51,3.7,2.77,2.77,0,0,0-2.57,2l-.47.27a5.14,5.14,0,0,0-3.68-1.49,4.76,4.76,0,0,0-4.7,3.21A1.93,1.93,0,0,0,210,227a1.7,1.7,0,0,0-.51-.08,1.45,1.45,0,0,0-1.48,1.16,5.34,5.34,0,0,0-2.85-.83,5.43,5.43,0,0,0-1.35.18,2.72,2.72,0,0,0-2.17-1.07,2.66,2.66,0,0,0-1.71.61,6.85,6.85,0,0,0-2.58-.5,6.35,6.35,0,0,0-1.07.09,4.55,4.55,0,0,0-3.75-2.17,3.75,3.75,0,0,0-.82.09,5.52,5.52,0,0,0-5-3.81c-2.75,0-5,2.37-5.41,5.45-.12,0-.23,0-.35,0a4.31,4.31,0,0,0-4.17,4.43c0,.14,0,.26,0,.39a2.34,2.34,0,0,0-2.16,2.18s0,.09,0,.14a4.51,4.51,0,0,0-2.25-.58,3.93,3.93,0,0,0-3.89,2.54Z" transform="translate(0.18)" style="fill: rgb(7, 24, 38);"/><path id="leaf" class="cls-71" d="M36.57,225.62c-.58-1.67-.47-4.48,1.37-5.85a2.46,2.46,0,0,0,.88,1.12c-.19-1.67,1.24-4.39,3-4.65a2,2,0,0,0,.19,1.29,4.71,4.71,0,0,1,4.18-2.31,2,2,0,0,0-.24,1.25c2.06-1.43,5-1.28,7-1.55l.08-.09v.08h.08l-.08.09c0,2.1.46,4.95-.71,7.17a2,2,0,0,0,1.21-.38,4.71,4.71,0,0,1-1.8,4.43,2,2,0,0,0,1.31,0c-.05,1.82-2.58,3.57-4.26,3.57a2.41,2.41,0,0,0,1.21.74c-1.14,2-3.91,2.43-5.64,2.06.28.35.8.42,1.14.75-2.66,1.85-6.08.58-7.85-1.12s-3.57-4.81-2-7.67C36.05,224.87,36.18,225.38,36.57,225.62Z" transform="translate(0.18)" style="fill: rgb(14, 36, 63);"/><path class="cls-69" d="M32.57,206.48c-2.49-5.72-7.92-9.28-10.48-10.65-1.29,2.59-3.68,8.64-2.43,14.74,2,9.55,9,8.52,9,8.52a3,3,0,0,0,.76-.18,3.13,3.13,0,0,0,.71-.29S36.46,215.42,32.57,206.48Z" transform="translate(0.18)" style="fill: rgb(13, 50, 85);"/><path class="cls-72" d="M27,210.65l.55-.48.51-.55.47-.58.39-.62.34-.67.3-.68.23-.7c.06-.24.11-.48.17-.72-.09.23-.18.46-.25.68l-.31.67-.34.63-.38.62-.41.58-.47.55-.51.5-.42.35c-.22-.72-.46-1.45-.69-2.19l-.18-.58.54-.48.52-.54.46-.59c.14-.21.26-.42.4-.62l.33-.67.3-.68.23-.7c.06-.24.11-.48.16-.72-.08.22-.17.45-.25.69l-.3.66-.33.63-.38.62c-.14.19-.29.39-.42.59l-.46.54-.51.51-.43.34c-.33-1-.65-2-1-2.95h0l.05,0,.37-.33.35-.37L26,203c.09-.13.17-.27.26-.42l.42-.89.16-.47.11-.47-.17.45-.2.44-.48.84-.14.19-.14.2-.31.36-.34.34-.34.28c-.37-1.16-.75-2.23-1.06-3.17s-.64-1.83-.85-2.42-.32-.92-.32-.92.09.34.26.95.39,1.45.7,2.46.59,2,.94,3.19l-.41,0-.47-.08-.46-.11-.23-.09-.22-.07-.88-.42-.42-.24-.4-.27.36.33.41.29.86.49.45.19.48.14.49.1.5.05h0c.29.95.59,1.95.91,3l-.52,0-.71-.12-.69-.18-.68-.24-.67-.28-.64-.33-.63-.37-.6-.41.55.49.6.44.62.39.67.34.68.28.72.22.73.15.69.07c.07.2.13.4.19.6.24.73.47,1.45.7,2.16l-.53,0-.7-.11-.7-.19-.67-.23-.67-.29-.64-.33-.63-.37-.6-.4.55.49.6.44.62.38.66.35.69.28.71.22.74.15.71.06c.15.47.3.93.45,1.37s.31.95.46,1.41l-.56,0-.72-.12-.69-.19L24.9,213l-.67-.29-.64-.33L23,212c-.19-.14-.4-.27-.6-.41l.55.5.6.43.62.39.67.34.68.29.71.22.73.14.75.08h0c.19.57.38,1.11.55,1.61.08.24.15.46.23.68h0l-.47,0-.48-.08L27,216l-.22-.08-.22-.08-.89-.41-.42-.25-.4-.27.38.33.39.3.87.48a4.68,4.68,0,0,0,.45.19l.48.15.49.09.49.06h.11v-.06c.21.61.39,1.13.54,1.53l.33.92s-.1-.35-.25-.95c-.13-.41-.28-1-.46-1.6h0l.07.09.07-.08.38-.32.34-.37.32-.39c.08-.14.16-.28.25-.42l.42-.89.17-.47.11-.48-.18.45-.19.45-.49.84-.13.18-.15.2-.3.37-.34.33-.37.3,0,0c-.06-.23-.13-.45-.2-.69-.15-.51-.3-1.06-.48-1.64h0l.57-.5.51-.54.47-.59.39-.62.35-.66.28-.68.24-.71c.06-.24.11-.47.16-.71-.08.23-.17.46-.25.68l-.31.66-.32.64-.39.62-.41.58-.47.55-.51.5-.45.37c-.14-.47-.28-.94-.43-1.42S27.13,211.12,27,210.65Z" transform="translate(0.18)" style="fill: rgb(0, 75, 117);"/><path class="cls-72" d="M38.13,227.94c1.5-.78,3.27-2.79,2.9-4.95a2.31,2.31,0,0,1-1.34.19c1.24-1,2-3.86,1-5.22-.3.48-.52.51-1,.77a4.48,4.48,0,0,0-1.37-4.35,1.83,1.83,0,0,1-.66,1c-.48-2.35-2.57-4.15-3.83-5.71v-.11s0,0-.05.06,0,0,0-.06a.45.45,0,0,1,0,.11c-1.37,1.46-3.58,3.11-4.23,5.41a1.87,1.87,0,0,1-.58-1.07,4.5,4.5,0,0,0-1.68,4.25c-.44-.29-.65-.34-.92-.84-1.17,1.28-.58,4.16.58,5.28a2.39,2.39,0,0,1-1.32-.29c-.52,2.13,1.1,4.26,2.54,5.14-.43.07-.84-.23-1.29-.23.62,3,3.82,4.41,6.17,4.41,2.33.17,5.63-1,6.46-4C39,227.76,38.55,228,38.13,227.94Z" transform="translate(0.18)" style="fill: rgb(0, 75, 117);"/><path class="cls-73" d="M59.82,221.93c2.82-4.1,3-9.28,2.8-11.58-2.3.22-7.4,1.14-11,4.56-5.63,5.36-2,9.67-2,9.67a2.09,2.09,0,0,0,.44.44,2.11,2.11,0,0,0,.5.36S55.4,228.33,59.82,221.93Z" transform="translate(0.18)" style="fill: rgb(17, 66, 109);"/><path class="cls-74" d="M54.64,219.9l.56.18.59.11.59.07H57l.59-.05.59-.09.57-.14.56-.19-.57.12-.58.07-.57,0H57l-.57,0-.57-.09-.55-.13-.41-.14,1.19-1.39c.1-.12.21-.24.31-.37l.56.17.58.12.6.06h.59l.59-.05.58-.09.58-.13.55-.2-.57.12-.57.08-.57,0h-.58l-.58,0-.56-.08-.56-.13-.41-.15,1.6-1.89h0l0,0,.38.11.4.08.39,0h.4l.78-.09.38-.1.37-.12-.38.07-.38,0-.77,0-.19,0h-.19l-.38-.06-.37-.09-.33-.11,1.7-2c.54-.65,1-1.21,1.28-1.59l.48-.61-.53.57c-.33.37-.81.88-1.37,1.51l-1.76,2-.16-.29-.14-.35-.11-.36,0-.2,0-.18-.09-.77v-.38l0-.39-.07.38,0,.4,0,.79.06.38.11.39.13.38.18.35v0h0l-1.62,1.87-.2-.37-.22-.53L55.8,216c0-.19-.08-.38-.13-.56l-.09-.57,0-.58,0-.58c0-.19,0-.39,0-.57l-.09.57-.05.59v.59l.05.59.09.58.16.58.2.56.25.5-.33.38-1.17,1.38-.2-.36-.22-.53-.16-.55c0-.19-.09-.37-.13-.56l-.09-.57-.05-.57v-.58c0-.19,0-.39,0-.58,0,.19-.07.38-.1.57l0,.6v.58l0,.6c0,.19.06.38.1.58l.15.58.21.55.25.52-.73.87c-.27.31-.52.61-.76.91l-.21-.4-.22-.53-.17-.55c0-.18-.08-.37-.13-.55l-.09-.58,0-.56,0-.59c0-.19,0-.38,0-.58,0,.2-.07.39-.1.58l0,.59v.59l0,.59.09.58.16.58.21.55.26.55h0l-.86,1.05c-.12.16-.25.3-.36.44h0l-.18-.33-.14-.36-.11-.36,0-.18,0-.19-.09-.77v-.39l0-.38-.07.39,0,.39,0,.79.06.39.11.38.14.37.17.36,0,.08,0,0-.8,1-.49.61.53-.57.9-1h0l0,.08.08,0,.38.12.39.08.4,0h.39l.79-.1.38-.08.38-.13-.39.07-.38.06-.77,0h-.38l-.38-.06-.37-.09-.36-.12h0l.38-.43.91-1h0l.57.18.58.12.6.07h.59l.59,0,.58-.1L57,222a5.05,5.05,0,0,0,.55-.18l-.57.11-.57.07-.57.05h-.59l-.56,0-.57-.08-.55-.13-.45-.16c.26-.28.52-.58.79-.89Z" transform="translate(0.18)" style="fill: rgb(4, 46, 88);"/><path class="cls-75" d="M13.87,219.54s-3.34.09,1.44,7.26c3,4.48,7,6.34,10.11,8.37h2.77c.47-4,2.4-8.59,1-14.47-2.05-8.36-4.33-6-4.33-6-1-4.89-4.81-4.52-4.81-4.52a4.81,4.81,0,0,0-3.63-3.09A8.59,8.59,0,0,0,13.64,204l-.08-.18s0,.08,0,.11l-.1-.06.09.18a8.63,8.63,0,0,0,.43,4.14,4.79,4.79,0,0,0-.17,4.76S10.91,215.53,13.87,219.54Z" transform="translate(0.18)" style="fill: url('#Névtelen_színátmenet_328-5');"/><path class="cls-76" d="M67.29,230.1s2.24,1.78-4.7,4.24c-4.34,1.54-8,.77-11.19.56l-1.9-1.41c1.73-3,2.75-7.11,6.73-10.4,5.68-4.68,6-1.88,6-1.88,3.16-2.86,5.6-.64,5.6-.64a4.11,4.11,0,0,1,4.06-.26,7.43,7.43,0,0,1,3.47-.73l.16-.08a.41.41,0,0,0-.05.09h.1l-.15.09a7.35,7.35,0,0,1-2.41,2.6,4.13,4.13,0,0,1-2.32,3.36S71.36,228.87,67.29,230.1Z" transform="translate(0.18)" style="fill: rgb(15, 28, 50);"/><path class="cls-69" d="M17.6,213.51c.7,1.65,1.5,3.59,2.4,5.65s1.21,2.86,2.16,5.05-.13-.15.79,1.9,1.8,3.95,2.54,5.58c.63,1.4,1.19,2.57,1.62,3.48h.13c-.38-.93-.88-2.15-1.49-3.59-.7-1.65-1.5-3.59-2.4-5.65s.23.28-.72-1.92-1.32-3-2.23-5-1.8-3.95-2.54-5.58L16,209.46,15.32,208l.62,1.53Z" transform="translate(0.18)" style="fill: rgb(13, 50, 85);"/><path class="cls-20" d="M19.94,224.93c.13,1.53-.06,3.62.92,5.16a1.48,1.48,0,0,1-.9-.21,3.38,3.38,0,0,0,1.55,3.1,1.47,1.47,0,0,1-1,.1,3,3,0,0,0,2,2.09H33.07a4.2,4.2,0,0,0,0-4.28c-.25.23-.32.62-.58.81.32-1.25.08-3.27-1.33-4.16a1.81,1.81,0,0,1-.57.86c0-1.22-1.15-3.11-2.47-3.2a1.41,1.41,0,0,1-.07,1,3.4,3.4,0,0,0-3.15-1.44,1.5,1.5,0,0,1,.24.89c-1.58-.92-3.66-.65-5.19-.73l-.06-.05v.06h-.05Z" transform="translate(0.18)" style="fill: rgb(14, 35, 69);"/><path class="cls-77" d="M59.27,222.91c-.16,1.83.06,4.33-1.11,6.17a1.71,1.71,0,0,0,1.08-.25,4.07,4.07,0,0,1-1.86,3.72,1.68,1.68,0,0,0,1.13.11,3.59,3.59,0,0,1-2.38,2.51H43.54a5,5,0,0,1,0-5.13c.3.28.38.74.7,1-.39-1.49-.1-3.91,1.59-5a2.15,2.15,0,0,0,.68,1c-.05-1.46,1.38-3.72,3-3.83a1.77,1.77,0,0,0,.08,1.14,4.08,4.08,0,0,1,3.78-1.72,1.71,1.71,0,0,0-.29,1.07c1.89-1.11,4.38-.78,6.21-.88l.08-.07a.17.17,0,0,0,0,.07h.07Z" transform="translate(0.18)" style="fill: url('#Névtelen_színátmenet_328-6');"/><path class="cls-70" d="M43.71,235.17a3,3,0,0,0,2-2.08,1.44,1.44,0,0,1-.94-.09,3.43,3.43,0,0,0,1.55-3.11,1.4,1.4,0,0,1-.89.21c1-1.54.78-3.63.92-5.16l.06-.06h-.06v0a.2.2,0,0,0-.07.06c-1.52.07-3.61-.2-5.18.72a1.4,1.4,0,0,1,.24-.89,3.4,3.4,0,0,0-3.16,1.43,1.38,1.38,0,0,1-.06-.94c-1.33.08-2.52,2-2.48,3.19a1.84,1.84,0,0,1-.57-.86c-1.41.89-1.65,2.92-1.33,4.16-.26-.19-.33-.57-.58-.81a4.2,4.2,0,0,0,0,4.28Z" transform="translate(0.18)" style="fill: rgb(7, 24, 38);"/><path class="cls-70" d="M7.53,235.17c-1.33-.55-2.6-1.64-2.73-2.88a2,2,0,0,0,1.31-.13A4.71,4.71,0,0,1,4,227.86a1.89,1.89,0,0,0,1.24.29c-1.35-2.13-1.09-5-1.28-7.14l-.08-.08h.08a.19.19,0,0,1,0-.08l.09.08c2.11.11,5-.27,7.18,1a2,2,0,0,0-.33-1.23,4.7,4.7,0,0,1,4.37,2,2,2,0,0,0,.08-1.31c1.83.12,3.49,2.73,3.43,4.42a2.53,2.53,0,0,0,.79-1.19c1.95,1.23,2.28,4,1.84,5.76.37-.26.46-.8.8-1.12a5.83,5.83,0,0,1,0,5.92Z" transform="translate(0.18)" style="fill: rgb(7, 24, 38);"/><path id="leaf-2" data-name="leaf" class="cls-69" d="M295.74,225.62c.58-1.67.47-4.48-1.37-5.85a2.46,2.46,0,0,1-.88,1.12c.19-1.67-1.24-4.39-3.05-4.65a2,2,0,0,1-.19,1.29,4.71,4.71,0,0,0-4.18-2.31,2,2,0,0,1,.24,1.25c-2.06-1.43-4.95-1.28-7-1.55l-.08-.09v.08h-.08l.08.09c0,2.1-.46,4.95.71,7.17a2,2,0,0,1-1.21-.38,4.71,4.71,0,0,0,1.8,4.43,2,2,0,0,1-1.31,0c.05,1.82,2.58,3.57,4.26,3.57a2.41,2.41,0,0,1-1.21.74c1.14,2,3.91,2.43,5.64,2.06-.28.35-.8.42-1.14.75,2.66,1.85,6.08.58,7.85-1.12s3.57-4.81,2-7.67C296.26,224.87,296.13,225.38,295.74,225.62Z" transform="translate(0.18)" style="fill: rgb(13, 50, 85);"/><path class="cls-70" d="M299.74,206.48c2.49-5.72,7.92-9.28,10.48-10.65,1.29,2.59,3.68,8.64,2.42,14.74-2,9.55-9,8.52-9,8.52a3,3,0,0,1-.76-.18,3.11,3.11,0,0,1-.72-.29S295.85,215.42,299.74,206.48Z" transform="translate(0.18)" style="fill: rgb(7, 24, 38);"/><path class="cls-20" d="M305.32,210.65l-.55-.48-.51-.55-.47-.58-.39-.62-.34-.67-.3-.68-.23-.7c-.06-.24-.11-.48-.17-.72.09.23.18.46.25.68l.31.67.34.63.38.62.41.58.47.55.51.5.42.35c.22-.72.46-1.45.69-2.19l.18-.58-.54-.48-.52-.54-.46-.59c-.14-.21-.26-.42-.4-.62l-.33-.67-.3-.68-.23-.7c-.06-.24-.11-.48-.16-.72.08.22.17.45.25.69l.3.66.33.63.38.62c.14.19.29.39.42.59l.46.54.51.51.43.34c.33-1,.65-2,1-2.95h0l-.05,0-.37-.33-.35-.37-.31-.39c-.09-.13-.17-.27-.26-.42l-.42-.89-.16-.47-.11-.47.17.45.2.44.48.84.14.19.14.2.31.36.34.34.34.28c.37-1.16.75-2.23,1.06-3.17s.64-1.83.85-2.42.32-.92.32-.92-.09.34-.26.95-.39,1.45-.7,2.46-.59,2-.94,3.19l.41,0,.47-.08.46-.11.23-.09.22-.07.88-.42.42-.24.4-.27-.36.33-.41.29-.86.49-.45.19-.48.14-.49.1-.5.05h0c-.29.95-.59,1.95-.91,3l.52,0,.71-.12.69-.18.68-.24.67-.28.64-.33.63-.37.6-.41-.55.49-.6.44-.63.39-.66.34-.68.28-.72.22-.73.15-.69.07c-.07.2-.13.4-.19.6-.24.73-.47,1.45-.7,2.16l.53,0,.7-.11.7-.19.67-.23.67-.29.64-.33.63-.37.6-.4-.55.49-.6.44-.63.38-.65.35-.69.28-.71.22-.74.15-.71.06c-.15.47-.3.93-.45,1.37s-.31.95-.46,1.41l.56,0,.72-.12.69-.19.67-.22.67-.29.64-.33.63-.37c.19-.14.4-.27.6-.41l-.55.5-.6.43-.62.39-.67.34-.68.29-.71.22-.73.14-.75.08h0c-.19.57-.38,1.11-.55,1.61-.08.24-.15.46-.23.68h0l.47,0,.48-.08.46-.12.22-.08.22-.08.89-.41.42-.25.4-.27-.38.33-.39.3-.87.48a4.68,4.68,0,0,1-.45.19l-.48.15-.49.09-.49.06h-.11v-.06c-.21.61-.4,1.13-.54,1.53l-.33.92s.1-.35.25-.95c.13-.41.28-1,.46-1.6h0l-.07.09-.07-.08-.38-.32-.34-.37-.32-.39-.25-.42-.42-.89-.17-.47-.11-.48.18.45.19.45.49.84.13.18.15.2.3.37.34.33.37.3,0,0c.07-.23.14-.45.21-.69.15-.51.3-1.06.48-1.64h0l-.57-.5-.51-.54-.47-.59-.39-.62-.35-.66-.28-.68-.24-.71c-.06-.24-.11-.47-.16-.71.08.23.17.46.25.68l.31.66.32.64.39.62.41.58.47.55.51.5.45.37c.14-.47.28-.94.43-1.42S305.18,211.12,305.32,210.65Z" transform="translate(0.18)" style="fill: rgb(14, 35, 69);"/><path class="cls-72" d="M294.18,227.94c-1.5-.78-3.27-2.79-2.9-4.95a2.31,2.31,0,0,0,1.34.19c-1.24-1-2-3.86-1-5.22.3.48.51.51,1,.77a4.48,4.48,0,0,1,1.37-4.35,1.78,1.78,0,0,0,.66,1c.48-2.35,2.57-4.15,3.83-5.71v-.11s0,0,.05.06,0,0,.05-.06a.45.45,0,0,0,0,.11c1.37,1.46,3.58,3.11,4.23,5.41a1.87,1.87,0,0,0,.58-1.07,4.5,4.5,0,0,1,1.68,4.25c.44-.29.65-.34.92-.84,1.17,1.28.58,4.16-.58,5.28a2.39,2.39,0,0,0,1.32-.29c.52,2.13-1.1,4.26-2.54,5.14.43.07.84-.23,1.29-.23-.62,3-3.82,4.41-6.17,4.41-2.33.17-5.63-1-6.46-4C293.33,227.76,293.76,228,294.18,227.94Z" transform="translate(0.18)" style="fill: rgb(0, 75, 117);"/><path class="cls-70" d="M272.49,221.93c-2.82-4.1-2.95-9.28-2.8-11.58,2.3.22,7.4,1.14,11,4.56,5.63,5.36,2,9.67,2,9.67a2.09,2.09,0,0,1-.44.44,2.11,2.11,0,0,1-.5.36S276.91,228.33,272.49,221.93Z" transform="translate(0.18)" style="fill: rgb(7, 24, 38);"/><path class="cls-74" d="M277.67,219.9l-.56.18-.59.11-.59.07h-.59l-.59-.05-.59-.09-.57-.14-.56-.19.57.12.58.07.57,0h.58l.57,0,.57-.09.55-.13.41-.14-1.19-1.39-.32-.37-.55.17-.58.12-.6.06h-.59l-.59-.05-.58-.09-.58-.13-.55-.2.57.12.57.08.57,0h.58l.58,0,.56-.08.56-.13.41-.15-1.6-1.89h0l0,0-.38.11-.4.08-.39,0h-.4l-.78-.09-.38-.1-.37-.12.38.07.38,0,.77,0,.19,0h.19l.38-.06.37-.09.33-.11-1.7-2c-.54-.65-1-1.21-1.28-1.59l-.48-.61.53.57c.33.37.81.88,1.37,1.51l1.76,2,.16-.29.14-.35.11-.36.05-.2,0-.18.09-.77v-.38l0-.39.07.38,0,.4,0,.79-.06.38-.11.39-.14.38-.17.35v0h0l1.62,1.87.2-.37.22-.53.16-.54c0-.19.08-.38.13-.56l.09-.57,0-.58,0-.58c0-.19,0-.39,0-.57l.09.57.05.59v.59l-.05.59-.09.58-.16.58-.2.56-.25.5.33.38q.58.7,1.17,1.38l.2-.36.22-.53.16-.55c.05-.19.09-.37.13-.56l.09-.57.05-.57v-.58c0-.19,0-.39,0-.58,0,.19.07.38.1.57l0,.6v.58l0,.6c0,.19-.06.38-.1.58l-.15.58-.21.55-.26.52c.26.29.5.59.74.87s.52.61.76.91l.21-.4.22-.53L280,220c0-.18.08-.37.13-.55l.09-.58,0-.56,0-.59c0-.19,0-.38,0-.58,0,.2.07.39.1.58l.05.59v.59l-.05.59-.09.58-.16.58-.21.55-.26.55h0l.86,1.05c.12.16.25.3.36.44h0l.18-.33.14-.36.11-.36,0-.18.05-.19.09-.77v-.39l0-.38.07.39,0,.39,0,.79c0,.13,0,.26-.07.39l-.1.38-.14.37-.17.36,0,.08,0,0,.8,1,.49.61-.53-.57-.9-1h0l0,.08-.09,0-.37.12-.39.08-.4,0h-.39l-.79-.1-.38-.08-.38-.13.39.07.38.06.77,0h.38l.38-.06.37-.09.36-.12h0l-.38-.43c-.29-.31-.59-.65-.91-1h0l-.57.18-.59.12-.59.07h-.59l-.59,0-.58-.1-.58-.14a5.05,5.05,0,0,1-.55-.18l.57.11.57.07.57.05h.59l.56,0,.57-.08.55-.13.45-.16c-.26-.28-.52-.58-.79-.89Z" transform="translate(0.18)" style="fill: rgb(4, 46, 88);"/><path class="cls-69" d="M318.44,219.54s3.34.09-1.44,7.26c-3,4.48-7,6.34-10.11,8.37h-2.77c-.47-4-2.4-8.59-1-14.47,2.05-8.36,4.33-6,4.33-6,1-4.89,4.81-4.52,4.81-4.52a4.81,4.81,0,0,1,3.63-3.09,8.59,8.59,0,0,1,2.75-3.12l.08-.18s0,.08,0,.11l.1-.06-.09.18a8.63,8.63,0,0,1-.43,4.14,4.79,4.79,0,0,1,.17,4.76S321.4,215.53,318.44,219.54Z" transform="translate(0.18)" style="fill: rgb(13, 50, 85);"/><path class="cls-20" d="M265,230.1s-2.24,1.78,4.69,4.24c4.35,1.54,8,.77,11.2.56l1.9-1.41c-1.73-3-2.75-7.11-6.73-10.4-5.68-4.68-6-1.88-6-1.88-3.16-2.86-5.6-.64-5.6-.64a4.11,4.11,0,0,0-4.06-.26,7.44,7.44,0,0,0-3.48-.73l-.15-.08a.41.41,0,0,1,.05.09h-.1l.15.09a7.35,7.35,0,0,0,2.41,2.6,4.13,4.13,0,0,0,2.32,3.36S261,228.87,265,230.1Z" transform="translate(0.18)" style="fill: rgb(14, 35, 69);"/><path class="cls-73" d="M314.71,213.51c-.7,1.65-1.5,3.59-2.4,5.65s-1.21,2.86-2.16,5.05.12-.15-.79,1.9-1.8,3.95-2.54,5.58c-.63,1.4-1.19,2.57-1.62,3.48h-.13c.38-.93.88-2.15,1.49-3.59.7-1.65,1.5-3.59,2.39-5.65s-.22.28.73-1.92,1.32-3,2.23-5,1.8-3.95,2.54-5.58l1.83-3.94L317,208l-.62,1.53Z" transform="translate(0.18)" style="fill: rgb(17, 66, 109);"/><path class="cls-20" d="M312.37,224.93c-.13,1.53.06,3.62-.92,5.16a1.48,1.48,0,0,0,.9-.21,3.38,3.38,0,0,1-1.55,3.1,1.44,1.44,0,0,0,.94.1,3,3,0,0,1-2,2.09H299.24a4.2,4.2,0,0,1,0-4.28c.25.23.32.62.58.81-.32-1.25-.08-3.27,1.33-4.16a1.74,1.74,0,0,0,.57.86c-.05-1.22,1.15-3.11,2.47-3.2a1.41,1.41,0,0,0,.07,1,3.4,3.4,0,0,1,3.15-1.44,1.5,1.5,0,0,0-.24.89c1.58-.92,3.66-.65,5.19-.73l.06-.05v.06h.05Z" transform="translate(0.18)" style="fill: rgb(14, 35, 69);"/><path class="cls-78" d="M273,222.91c.16,1.83-.06,4.33,1.11,6.17a1.71,1.71,0,0,1-1.08-.25,4.07,4.07,0,0,0,1.86,3.72,1.68,1.68,0,0,1-1.13.11,3.59,3.59,0,0,0,2.38,2.51h12.59a5,5,0,0,0,.05-5.13c-.3.28-.38.74-.7,1,.38-1.49.1-3.91-1.59-5a2.15,2.15,0,0,1-.68,1c0-1.46-1.38-3.72-3-3.83a1.77,1.77,0,0,1-.08,1.14,4.09,4.09,0,0,0-3.78-1.72,1.77,1.77,0,0,1,.29,1.07c-1.89-1.11-4.39-.78-6.21-.88l-.08-.07a.17.17,0,0,1,0,.07H273Z" transform="translate(0.18)" style="fill: url('#Névtelen_színátmenet_328-7');"/><path class="cls-70" d="M288.6,235.17a3,3,0,0,1-2-2.08,1.44,1.44,0,0,0,.94-.09,3.41,3.41,0,0,1-1.55-3.11,1.4,1.4,0,0,0,.89.21c-1-1.54-.78-3.63-.92-5.16l-.06-.06H286v0a.2.2,0,0,1,.07.06c1.52.07,3.61-.2,5.18.72a1.4,1.4,0,0,0-.24-.89,3.41,3.41,0,0,1,3.16,1.43,1.38,1.38,0,0,0,.06-.94c1.33.08,2.52,2,2.48,3.19a1.84,1.84,0,0,0,.57-.86c1.41.89,1.65,2.92,1.33,4.16.26-.19.33-.57.58-.81a4.23,4.23,0,0,1,0,4.28Z" transform="translate(0.18)" style="fill: rgb(7, 24, 38);"/><path class="cls-72" d="M324.78,235.17c1.33-.55,2.6-1.64,2.73-2.88a2,2,0,0,1-1.31-.13,4.71,4.71,0,0,0,2.15-4.3,1.89,1.89,0,0,1-1.24.29c1.35-2.13,1.09-5,1.28-7.14l.08-.08h-.08a.19.19,0,0,0,0-.08l-.09.08c-2.11.11-5-.27-7.18,1a2,2,0,0,1,.33-1.23,4.7,4.7,0,0,0-4.37,2,2,2,0,0,1-.08-1.31c-1.83.12-3.49,2.73-3.43,4.42a2.53,2.53,0,0,1-.79-1.19c-2,1.23-2.29,4-1.84,5.76-.37-.26-.46-.8-.8-1.12a5.83,5.83,0,0,0,0,5.92Z" transform="translate(0.18)" style="fill: rgb(0, 75, 117);"/><path class="cls-20" d="M94.61,226.33c.12,1.31,0,3.12.79,4.45a1.29,1.29,0,0,1-.77-.18A3,3,0,0,0,96,233.28a1.27,1.27,0,0,1-.82.08,2.61,2.61,0,0,0,1.72,1.81H106a3.63,3.63,0,0,0,0-3.7c-.22.2-.27.54-.5.7a3.42,3.42,0,0,0-1.15-3.59,1.51,1.51,0,0,1-.49.74c0-1-1-2.68-2.14-2.76a1.28,1.28,0,0,1,0,.82,2.93,2.93,0,0,0-2.73-1.24,1.3,1.3,0,0,1,.21.77c-1.36-.8-3.17-.57-4.48-.63l-.06-.05a.11.11,0,0,0,0,.05h0Z" transform="translate(0.18)" style="fill: rgb(14, 35, 69);"/><path class="cls-70" d="M115.15,235.17a2.57,2.57,0,0,0,1.7-1.79,1.22,1.22,0,0,1-.82-.09,2.93,2.93,0,0,0,1.35-2.68,1.19,1.19,0,0,1-.78.18c.85-1.33.68-3.14.8-4.45l0-.06h0v0l-.06,0c-1.31.06-3.12-.17-4.48.62a1.3,1.3,0,0,1,.21-.77,3,3,0,0,0-2.73,1.24,1.21,1.21,0,0,1,0-.82c-1.15.08-2.18,1.71-2.14,2.76a1.47,1.47,0,0,1-.49-.74,3.4,3.4,0,0,0-1.15,3.59c-.23-.16-.29-.49-.5-.69a3.64,3.64,0,0,0,0,3.69Z" transform="translate(0.18)" style="fill: rgb(7, 24, 38);"/><path class="cls-79" d="M89,235.17a2.19,2.19,0,0,1-1.45-1.53,1.05,1.05,0,0,0,.7-.07,2.5,2.5,0,0,1-1.15-2.28,1.14,1.14,0,0,0,.66.15c-.72-1.13-.58-2.68-.68-3.8l0,0h0v0l0,0c1.13.05,2.66-.14,3.82.53a1,1,0,0,0-.17-.65,2.5,2.5,0,0,1,2.32,1.05,1,1,0,0,0,.05-.69c1,.06,1.85,1.45,1.82,2.35a1.29,1.29,0,0,0,.42-.64,2.91,2.91,0,0,1,1,3.07c.19-.14.24-.42.42-.6a3.09,3.09,0,0,1,0,3.15Z" transform="translate(0.18)" style="fill: url('#Névtelen_színátmenet_328-8');"/><path class="cls-20" d="M233.57,226.33c.12,1.31,0,3.12.8,4.45a1.32,1.32,0,0,1-.78-.18,3,3,0,0,0,1.34,2.68,1.27,1.27,0,0,1-.82.08,2.6,2.6,0,0,0,1.73,1.81h9.08a3.63,3.63,0,0,0,0-3.7c-.21.2-.27.54-.5.7a3.4,3.4,0,0,0-1.15-3.59,1.51,1.51,0,0,1-.49.74c0-1-1-2.68-2.14-2.76a1.21,1.21,0,0,1,0,.82,2.91,2.91,0,0,0-2.73-1.24,1.3,1.3,0,0,1,.21.77c-1.36-.8-3.16-.57-4.48-.63l-.06-.05a.07.07,0,0,1,0,.05h0Z" transform="translate(0.18)" style="fill: rgb(14, 35, 69);"/><path class="cls-69" d="M214.17,235.17a2.21,2.21,0,0,1-1.45-1.53,1.05,1.05,0,0,0,.7-.07,2.52,2.52,0,0,1-1.15-2.28,1.14,1.14,0,0,0,.66.15c-.72-1.13-.58-2.68-.68-3.8l0,0h0v0l.05,0c1.12.05,2.65-.14,3.82.53a1.13,1.13,0,0,0-.18-.65,2.5,2.5,0,0,1,2.32,1.05,1,1,0,0,0,.05-.69c1,.06,1.85,1.45,1.82,2.35a1.29,1.29,0,0,0,.42-.64,2.91,2.91,0,0,1,1,3.07c.2-.14.25-.42.43-.6a3.09,3.09,0,0,1,0,3.15Z" transform="translate(0.18)" style="fill: rgb(13, 50, 85);"/><path class="cls-76" d="M159.59,226.33c.12,1.31-.05,3.12.8,4.45a1.32,1.32,0,0,1-.78-.18,3,3,0,0,0,1.34,2.68,1.27,1.27,0,0,1-.82.08,2.6,2.6,0,0,0,1.73,1.81h9.08a3.63,3.63,0,0,0,0-3.7c-.21.2-.27.54-.5.7a3.4,3.4,0,0,0-1.15-3.59,1.51,1.51,0,0,1-.49.74c0-1-1-2.68-2.14-2.76a1.21,1.21,0,0,1-.05.82,2.93,2.93,0,0,0-2.73-1.24,1.3,1.3,0,0,1,.21.77c-1.36-.8-3.17-.57-4.48-.63l-.06-.05a.07.07,0,0,1,0,.05h-.05Z" transform="translate(0.18)" style="fill: rgb(15, 28, 50);"/><path class="cls-69" d="M191.39,226.2c-.12,1.34.05,3.17-.81,4.52a1.33,1.33,0,0,0,.79-.18,3,3,0,0,1-1.36,2.72,1.31,1.31,0,0,0,.83.08,2.62,2.62,0,0,1-1.75,1.83h-9.21a3.68,3.68,0,0,1,0-3.75c.22.21.28.54.51.71a3.46,3.46,0,0,1,1.16-3.65,1.59,1.59,0,0,0,.5.76c0-1.07,1-2.72,2.17-2.8a1.24,1.24,0,0,0,.05.83A3,3,0,0,1,187,226a1.2,1.2,0,0,0-.21.78c1.38-.8,3.2-.57,4.54-.64l.06-.05a.11.11,0,0,0,0,.05h.05Z" transform="translate(0.18)" style="fill: rgb(13, 50, 85);"/><path class="cls-70" d="M180.13,235.17a2.57,2.57,0,0,0,1.7-1.79,1.19,1.19,0,0,1-.81-.09,3,3,0,0,0,1.34-2.68,1.19,1.19,0,0,1-.78.18c.85-1.33.68-3.14.8-4.45l.05-.06h0v0l-.06,0c-1.31.06-3.12-.17-4.48.62a1.3,1.3,0,0,1,.21-.77,3,3,0,0,0-2.73,1.24,1.21,1.21,0,0,1-.05-.82c-1.14.08-2.18,1.71-2.14,2.76a1.47,1.47,0,0,1-.49-.74,3.4,3.4,0,0,0-1.15,3.59c-.23-.16-.29-.49-.5-.69a3.64,3.64,0,0,0,0,3.69Z" transform="translate(0.18)" style="fill: rgb(7, 24, 38);"/><path class="cls-20" d="M148.6,235.17a1.83,1.83,0,0,0,1.22-1.28,1,1,0,0,1-.58-.06,2.13,2.13,0,0,0,1-1.92.88.88,0,0,1-.56.13,6.83,6.83,0,0,0,.57-3.19l0,0h0v0l0,0a7,7,0,0,0-3.21.45.94.94,0,0,1,.15-.55,2.11,2.11,0,0,0-2,.89.91.91,0,0,1,0-.59c-.82.05-1.56,1.22-1.53,2a1.11,1.11,0,0,1-.35-.54,2.46,2.46,0,0,0-.82,2.58c-.17-.12-.21-.36-.36-.5a2.57,2.57,0,0,0,0,2.64Z" transform="translate(0.18)" style="fill: rgb(14, 35, 69);"/><path class="cls-80" d="M128.19,235.17a2.55,2.55,0,0,1-1.68-1.78,1.25,1.25,0,0,0,.81-.08,2.91,2.91,0,0,1-1.33-2.66,1.15,1.15,0,0,0,.77.18c-.84-1.31-.68-3.11-.8-4.41a.12.12,0,0,0,0,0h0v-.05l.05.05c1.31.06,3.09-.17,4.44.62a1.19,1.19,0,0,0-.21-.76,2.92,2.92,0,0,1,2.71,1.22,1.18,1.18,0,0,0,.05-.81c1.13.08,2.16,1.69,2.12,2.74a1.58,1.58,0,0,0,.49-.74,3.36,3.36,0,0,1,1.13,3.56c.23-.16.29-.49.5-.69a3.6,3.6,0,0,1,0,3.66Z" transform="translate(0.18)" style="fill: url('#Névtelen_színátmenet_328-9');"/><path class="cls-72" d="M227.82,235.17a1.82,1.82,0,0,0,1.21-1.28,1,1,0,0,1-.58-.06,2.11,2.11,0,0,0,1-1.92.88.88,0,0,1-.56.13,7,7,0,0,0,.58-3.19l0,0h0v0l0,0a7,7,0,0,0-3.21.45.94.94,0,0,1,.15-.55,2.11,2.11,0,0,0-2,.89.91.91,0,0,1,0-.59c-.82.05-1.56,1.22-1.53,2a1.11,1.11,0,0,1-.35-.54,2.46,2.46,0,0,0-.82,2.58c-.17-.12-.21-.36-.36-.5a2.57,2.57,0,0,0,0,2.64Z" transform="translate(0.18)" style="fill: rgb(0, 75, 117);"/><path class="cls-71" d="M207.4,235.17a2.55,2.55,0,0,1-1.68-1.78,1.25,1.25,0,0,0,.81-.08,2.91,2.91,0,0,1-1.33-2.66,1.15,1.15,0,0,0,.77.18c-.84-1.31-.68-3.11-.79-4.41l-.06,0h0v-.05s0,0,.05.05c1.31.06,3.09-.17,4.44.62a1.18,1.18,0,0,0-.2-.76,2.91,2.91,0,0,1,2.7,1.22,1.18,1.18,0,0,0,.05-.81c1.13.08,2.16,1.69,2.12,2.74a1.58,1.58,0,0,0,.49-.74A3.39,3.39,0,0,1,216,232.2c.22-.16.28-.49.49-.69a3.6,3.6,0,0,1,0,3.66Z" transform="translate(0.18)" style="fill: rgb(14, 36, 63);"/></g></svg>