<?xml version="1.0" encoding="utf-8"?>
<svg id="master-artboard" viewBox="0 0 700 640.104" version="1.1" xmlns="http://www.w3.org/2000/svg" x="0px" y="0px" enable-background="new 0 0 700 640.104" width="700px" height="640.10400390625px">
<radialGradient id="SVGID_1_" cx="696.2214" cy="8.8418" r="887.3417" gradientUnits="userSpaceOnUse">
		<stop offset="0" style="stop-color:#306887"/>
		<stop offset="0.9378" style="stop-color:#2D4455"/>
	</radialGradient><path d="M 0 0 H 700 V 640.104004 H 0 V 0 Z" fill="url(#SVGID_1_)" transform="matrix(1, 0, 0, 1, 0, 0)"/><path d="M 0 546.505005 H 700 V 640.104004 H 0 V 546.505005 Z" fill="#126A6B" transform="matrix(1, 0, 0, 1, 0, 0)"/>
<g opacity="0.6" transform="matrix(1, 0, 0, 1, 0, 0)">
		<g opacity="0.1">
			<path fill="#FFFFFF" d="M177.097,0.425H700v320.328c-55.275,80.84-147.858,133.873-252.81,133.873&#10;&#9;&#9;&#9;&#9;c-169.353,0-306.663-138.032-306.663-308.33C140.527,93.494,153.813,43.856,177.097,0.425z"/>
		</g>
		<g opacity="0.1">
			<g opacity="0.5">
				<path fill="#FFF6EA" d="M21.158,158.246C261.689,102.192,528.818,175.23,700,377.304v21.554&#10;&#9;&#9;&#9;&#9;&#9;C532.812,191.282,264.996,115.516,24.35,171.597c-8.768,2.04-16.617,0.923-17.608-2.742&#10;&#9;&#9;&#9;&#9;&#9;C5.764,165.201,12.176,160.334,21.158,158.246z"/>
			</g>
			<g opacity="0.5">
				<path fill="#FFF6EA" d="M182.221,237.057C387.054,237.684,591.491,342.443,700,551.105v30.97&#10;&#9;&#9;&#9;&#9;&#9;C597.692,361.898,390.127,251.409,182.175,250.773c-7.674-0.026-13.964-2.945-14.061-6.736&#10;&#9;&#9;&#9;&#9;&#9;C168.02,240.256,174.331,237.031,182.221,237.057z"/>
			</g>
			<g opacity="0.5">
				<path fill="#FFF6EA" d="M622.764,165.476C439.014,42.522,211.094,5.018,0.384,52.939v10.813&#10;&#9;&#9;&#9;&#9;&#9;c208.568-48.115,434.49-11.298,616.495,110.486c5.574,3.725,11.407,4.9,13.064,2.51&#10;&#9;&#9;&#9;&#9;&#9;C631.61,174.363,628.421,169.26,622.764,165.476z"/>
			</g>
		</g>
		<g opacity="0.15">
			<path fill="#FFFFFF" d="M596.937,0.425c36.378,37.732,58.773,89.165,58.773,145.875c0,115.809-93.345,209.676-208.522,209.676&#10;&#9;&#9;&#9;&#9;c-115.168,0-208.545-93.867-208.545-209.676c0-56.709,22.399-108.142,58.785-145.875H596.937z"/>
		</g>
		<g opacity="0.2">
			<path fill="#FFFFFF" d="M447.182,9.821c74.974,0,135.738,61.1,135.738,136.48c0,75.385-60.764,136.489-135.738,136.489&#10;&#9;&#9;&#9;&#9;c-74.969,0-135.752-61.104-135.752-136.489C311.431,70.922,372.213,9.821,447.182,9.821z"/>
		</g>
	</g><g transform="matrix(1, 0, 0, 1, 0, 0)">
			<path fill="#FFFFFF" d="M512.186,144.869c0-36.185-29.169-65.516-65.158-65.516c-35.988,0-65.165,29.331-65.165,65.516&#10;&#9;&#9;&#9;&#9;c0,36.186,29.177,65.519,65.165,65.519C483.017,210.388,512.186,181.055,512.186,144.869z"/>
		</g><path fill="#E0D5CF" d="M481.698,121.669c2.345-6.422-2.293-14.041-10.367-17.028c-8.07-2.978-16.513-0.198-18.858,6.224&#10;&#9;&#9;&#9;&#9;c-2.351,6.422,2.293,14.042,10.362,17.031C470.903,130.88,479.349,128.094,481.698,121.669z" transform="matrix(1, 0, 0, 1, 0, 0)"/><path fill="#E0D5CF" d="M414.922,147.488c-3.802,10.631,1.688,22.253,12.254,25.958c10.568,3.703,22.218-1.914,26.017-12.547&#10;&#9;&#9;&#9;&#9;c3.795-10.629-1.689-22.252-12.259-25.955C430.365,131.239,418.723,136.852,414.922,147.488z" transform="matrix(1, 0, 0, 1, 0, 0)"/><path fill="#E0D5CF" d="M473.203,186.186c0-4.687-4.316-8.487-9.638-8.487c-5.323,0-9.638,3.8-9.638,8.487&#10;&#9;&#9;&#9;&#9;c0,4.678,4.316,8.478,9.638,8.478C468.888,194.664,473.203,190.864,473.203,186.186z" transform="matrix(1, 0, 0, 1, 0, 0)"/><path fill="#E0D5CF" d="M475.791,133.064c0-1.254-1.151-2.277-2.586-2.277c-1.431,0-2.589,1.024-2.589,2.277&#10;&#9;&#9;&#9;&#9;c0,1.258,1.158,2.278,2.589,2.278C474.641,135.341,475.791,134.322,475.791,133.064z" transform="matrix(1, 0, 0, 1, 0, 0)"/><path fill="#E0D5CF" d="M487.655,162.785c0-3.141-2.883-5.705-6.478-5.705c-3.584,0-6.485,2.564-6.485,5.705&#10;&#9;&#9;&#9;&#9;c0,3.152,2.901,5.705,6.485,5.705C484.773,168.49,487.655,165.937,487.655,162.785z" transform="matrix(1, 0, 0, 1, 0, 0)"/><path fill="#E0D5CF" d="M403.36,158.81c1.304-1.923,0.592-4.691-1.595-6.19c-2.184-1.499-5.011-1.151-6.312,0.766&#10;&#9;&#9;&#9;&#9;c-1.308,1.923-0.592,4.696,1.593,6.189C399.23,161.073,402.061,160.729,403.36,158.81z" transform="matrix(1, 0, 0, 1, 0, 0)"/><path fill="#E0D5CF" d="M448.029,99.176c1.304-1.923,0.589-4.697-1.596-6.195c-2.187-1.496-5.012-1.149-6.313,0.771&#10;&#9;&#9;&#9;&#9;c-1.304,1.922-0.591,4.691,1.593,6.189C443.9,101.438,446.725,101.093,448.029,99.176z" transform="matrix(1, 0, 0, 1, 0, 0)"/><path fill="#E0D5CF" d="M418.168,98.284c-1.254,0-2.276,1.152-2.276,2.586c0,1.43,1.022,2.59,2.276,2.59&#10;&#9;&#9;&#9;&#9;c1.258,0,2.279-1.16,2.279-2.59C420.447,99.436,419.426,98.284,418.168,98.284z" transform="matrix(1, 0, 0, 1, 0, 0)"/>
<g transform="matrix(1, 0, 0, 1, 0, 0)">
		<g>
			<path fill="#178283" d="M-0.185,547.118h362.91C347.067,407.352,246.09,299.502,123.823,299.502&#10;&#9;&#9;&#9;&#9;c-45.357,0-87.779,14.855-124.008,40.665V547.118z"/>
		</g>
		<g opacity="0.1">
			<g>
				<path d="M190.045,390.92c-19.337-28.571-54.444-46.28-88.758-42.833c-13.015,1.307-25.634,5.438-37.467,11.015&#10;&#9;&#9;&#9;&#9;&#9;c-25.327,11.937-47.157,30.589-64.006,53.022v135.075l111.652,0.219c-6.208-0.779-12.762-2.846-18.831-4.504&#10;&#9;&#9;&#9;&#9;&#9;c-25.83-7.055-50.174-24.423-59.246-49.629c-7.199-20.002-3.959-42.813,5.701-61.749c12.154-23.825,35.315-42.664,61.837-46.035&#10;&#9;&#9;&#9;&#9;&#9;c26.522-3.372,55.326,10.758,65.858,35.345c3.796,8.862,5.205,18.93,2.803,28.267c-2.103,8.177-6.998,15.423-12.898,21.46&#10;&#9;&#9;&#9;&#9;&#9;c-16.313,16.691-41.111,24.61-64.072,20.459c-10.901-1.971-22.027-7.124-27.396-16.819c-3.495-6.312-4.149-13.851-3.476-21.035&#10;&#9;&#9;&#9;&#9;&#9;c0.917-9.792,4.388-19.677,11.444-26.524c11.397-11.06,31.569-11.242,43.164-0.388c5.177,4.846,8.708,12.26,6.683,19.058&#10;&#9;&#9;&#9;&#9;&#9;c-1.222,4.102-4.303,7.443-7.848,9.84c-4.896,3.311-11.67,4.955-16.633,1.745c-4.963-3.21-5.111-12.421,0.544-14.14&#10;&#9;&#9;&#9;&#9;&#9;c-3.855-2.25-8.714,1.951-9.428,6.359c-0.842,5.196,1.87,10.604,6.139,13.681c4.269,3.077,9.843,3.996,15.053,3.258&#10;&#9;&#9;&#9;&#9;&#9;c10.343-1.465,19.425-9.598,22.021-19.722c3.389-13.215-4.509-27.78-16.589-34.109c-12.08-6.329-27.174-5.18-39.403,0.856&#10;&#9;&#9;&#9;&#9;&#9;c-15.273,7.539-26.721,22.72-29.029,39.603c-2.308,16.883,4.923,34.92,18.696,44.943c11.036,8.031,25.201,10.676,38.845,10.45&#10;&#9;&#9;&#9;&#9;&#9;c30.843-0.512,61.162-15.292,80.573-39.279c9.681-11.963,16.854-26.674,16.672-42.065&#10;&#9;&#9;&#9;&#9;&#9;C202.499,413.903,197.243,401.554,190.045,390.92z"/>
			</g>
		</g>
		<g opacity="0.1">
			<g>
				<path fill="#072941" d="M237.323,424.688c-1.123-3.045,1.485-6.796,5.808-8.394c4.323-1.592,8.738-0.418,9.857,2.62&#10;&#9;&#9;&#9;&#9;&#9;c1.123,3.041-1.483,6.793-5.804,8.388C242.857,428.893,238.44,427.724,237.323,424.688z"/>
			</g>
			<g opacity="0.5">
				<path fill="#072941" d="M256.419,400.319c-0.627-1.695,0.827-3.781,3.233-4.665c2.408-0.887,4.865-0.244,5.488,1.455&#10;&#9;&#9;&#9;&#9;&#9;c0.623,1.694-0.827,3.779-3.233,4.667C259.497,402.658,257.044,402.009,256.419,400.319z"/>
			</g>
			<g>
				<path fill="#072941" d="M235.882,386.968c-0.623-1.692,0.825-3.783,3.231-4.67c2.408-0.889,4.865-0.235,5.488,1.455&#10;&#9;&#9;&#9;&#9;&#9;c0.62,1.688-0.825,3.785-3.233,4.67C238.967,389.309,236.503,388.656,235.882,386.968z"/>
			</g>
			<g>
				<path fill="#072941" d="M175.224,350.873c-0.62-1.694,0.823-3.779,3.23-4.674c2.41-0.882,4.867-0.233,5.489,1.457&#10;&#9;&#9;&#9;&#9;&#9;c0.623,1.697-0.825,3.79-3.233,4.674C178.301,353.219,175.847,352.562,175.224,350.873z"/>
			</g>
			<g>
				<path fill="#072941" d="M266.05,373.89c-0.422-1.146,0.56-2.548,2.177-3.154c1.622-0.597,3.278-0.161,3.699,0.987&#10;&#9;&#9;&#9;&#9;&#9;c0.424,1.139-0.557,2.537-2.179,3.141C268.122,375.454,266.468,375.023,266.05,373.89z"/>
			</g>
			<g opacity="0.5">
				<path fill="#072941" d="M222.821,430.028c-0.416-1.143,0.564-2.548,2.183-3.149c1.622-0.592,3.276-0.155,3.699,0.987&#10;&#9;&#9;&#9;&#9;&#9;c0.416,1.139-0.562,2.544-2.186,3.143C224.902,431.607,223.247,431.165,222.821,430.028z"/>
			</g>
			<g opacity="0.5">
				<path fill="#072941" d="M218.624,399.306c-0.421-1.146,0.556-2.555,2.181-3.147c1.617-0.597,3.274-0.164,3.696,0.982&#10;&#9;&#9;&#9;&#9;&#9;c0.418,1.139-0.559,2.548-2.181,3.143C220.7,400.879,219.041,400.445,218.624,399.306z"/>
			</g>
			<g opacity="0.5">
				<path fill="#072941" d="M152.106,320.977c-0.418-1.135,0.552-2.55,2.174-3.149c1.625-0.595,3.284-0.155,3.702,0.989&#10;&#9;&#9;&#9;&#9;&#9;c0.421,1.137-0.552,2.548-2.179,3.143C154.18,322.556,152.525,322.121,152.106,320.977z"/>
			</g>
			<g>
				<path fill="#072941" d="M210.693,355.613c-1.123-3.038,1.478-6.794,5.807-8.388c4.327-1.597,8.74-0.427,9.858,2.614&#10;&#9;&#9;&#9;&#9;&#9;c1.122,3.043-1.48,6.796-5.809,8.39C216.225,359.823,211.81,358.656,210.693,355.613z"/>
			</g>
		</g>
		<g opacity="0.05">
			<g>
				<path d="M229.504,415.628c-0.021,0.081-0.142,0.206-0.311,0.348l0.055-0.383C229.289,415.617,229.587,415.404,229.504,415.628z&#10;&#9;&#9;&#9;&#9;&#9; M173.129,387.435h0.002C173.139,387.435,173.143,387.435,173.129,387.435z"/>
			</g>
		</g>
	</g><g transform="matrix(1, 0, 0, 1, 0, 0)">
			<path fill="#126A6B" d="M155.705,547.118c22.924-50.767,67.342-89.923,111.533-127.016c0.747-0.155,1.493-0.345,2.229-0.616&#10;&#9;&#9;&#9;&#9;c25.736-9.483,52.247-21.011,80.426-19.823c18.449,0.777,36.203,6.598,54.106,11.477v135.979H155.705z"/>
		</g><path fill="#167674" d="M198.274,547.118c11.375-91.749,78.038-162.207,158.648-162.207c80.608,0,147.27,70.458,158.645,162.207&#10;&#9;&#9;&#9;&#9;H198.274z" transform="matrix(1, 0, 0, 1, 0, 0)"/><path fill="#146968" d="M317.374,547.118c6.529-17.461,13.975-34.592,22.99-51.091c20.913-38.284,50.699-69.208,89.773-90.167&#10;&#9;&#9;&#9;&#9;c45.125,27.478,77.807,79.537,85.456,141.257H317.374z" transform="matrix(1, 0, 0, 1, 0, 0)"/><g transform="matrix(1, 0, 0, 1, 0, 0)">
				<path fill="#072941" d="M276.67,465.528c1.579,2.735,6.004,3.116,9.887,0.871c3.876-2.246,5.746-6.279,4.167-9.003&#10;&#9;&#9;&#9;&#9;&#9;c-1.575-2.733-6-3.114-9.876-0.871C276.966,458.773,275.097,462.806,276.67,465.528z"/>
			</g><path fill="#072941" d="M306.756,466.386c0.879,1.521,3.343,1.729,5.498,0.479c2.159-1.25,3.207-3.487,2.324-5.012&#10;&#9;&#9;&#9;&#9;&#9;c-0.881-1.517-3.341-1.729-5.5-0.481C306.922,462.629,305.882,464.865,306.756,466.386z" transform="matrix(1, 0, 0, 1, 0, 0)"/><path fill="#072941" d="M303.973,490.054c0.878,1.519,3.343,1.735,5.5,0.485c2.159-1.25,3.201-3.495,2.324-5.012&#10;&#9;&#9;&#9;&#9;&#9;c-0.877-1.512-3.345-1.735-5.5-0.481C304.14,486.29,303.096,488.539,303.973,490.054z" transform="matrix(1, 0, 0, 1, 0, 0)"/><path fill="#072941" d="M240.742,493.928c0.881,1.519,3.337,1.735,5.5,0.491c2.158-1.256,3.199-3.499,2.323-5.016&#10;&#9;&#9;&#9;&#9;&#9;c-0.881-1.521-3.345-1.737-5.503-0.485C240.901,490.17,239.865,492.416,240.742,493.928z" transform="matrix(1, 0, 0, 1, 0, 0)"/><path fill="#072941" d="M332.503,475.605c0.593,1.029,2.253,1.165,3.709,0.33c1.454-0.841,2.158-2.351,1.562-3.381&#10;&#9;&#9;&#9;&#9;&#9;c-0.588-1.023-2.244-1.159-3.703-0.32C332.622,473.08,331.914,474.588,332.503,475.605z" transform="matrix(1, 0, 0, 1, 0, 0)"/><path fill="#072941" d="M263.664,473.063c0.595,1.021,2.255,1.161,3.711,0.322c1.452-0.845,2.151-2.356,1.562-3.381&#10;&#9;&#9;&#9;&#9;&#9;c-0.595-1.019-2.253-1.161-3.709-0.318C263.776,470.523,263.078,472.038,263.664,473.063z" transform="matrix(1, 0, 0, 1, 0, 0)"/><path fill="#072941" d="M284.02,495.301c0.595,1.025,2.257,1.171,3.709,0.322c1.452-0.839,2.16-2.347,1.562-3.376&#10;&#9;&#9;&#9;&#9;&#9;c-0.591-1.021-2.253-1.165-3.705-0.318C284.135,492.767,283.43,494.28,284.02,495.301z" transform="matrix(1, 0, 0, 1, 0, 0)"/><path fill="#072941" d="M248.719,529.814c0.591,1.019,2.253,1.172,3.707,0.331c1.454-0.845,2.155-2.362,1.56-3.385&#10;&#9;&#9;&#9;&#9;&#9;c-0.589-1.023-2.248-1.171-3.703-0.324C248.829,527.28,248.126,528.791,248.719,529.814z" transform="matrix(1, 0, 0, 1, 0, 0)"/><path fill="#072941" d="M269.086,519.871c1.573,2.728,5.998,3.114,9.879,0.866c3.883-2.245,5.754-6.274,4.175-9.003&#10;&#9;&#9;&#9;&#9;&#9;c-1.577-2.729-6-3.114-9.883-0.868C269.378,513.113,267.505,517.142,269.086,519.871z" transform="matrix(1, 0, 0, 1, 0, 0)"/><g transform="matrix(1, 0, 0, 1, 0, 0)">
			<path fill="#138E88" d="M700,428.28c-39.851-62.605-103.142-103.086-174.435-103.086c-108.142,0-197.892,93.131-215.304,215.372&#10;&#9;&#9;&#9;&#9;v6.852H700V428.28z"/>
		</g><g transform="matrix(1, 0, 0, 1, 0, 0)">
				<path d="M631.236,390.92c-19.337-28.571-54.444-46.28-88.758-42.833c-13.015,1.307-25.634,5.438-37.467,11.015&#10;&#9;&#9;&#9;&#9;&#9;c-34.753,16.379-62.931,45.394-80.675,79.485c-17.744,34.09-25.391,70.107-24.457,108.531l152.778,0.299&#10;&#9;&#9;&#9;&#9;&#9;c-6.208-0.779-12.762-2.846-18.831-4.504c-25.83-7.055-50.174-24.423-59.246-49.629c-7.199-20.002-3.959-42.813,5.701-61.749&#10;&#9;&#9;&#9;&#9;&#9;c12.154-23.825,35.315-42.664,61.837-46.035c26.522-3.372,55.326,10.758,65.858,35.345c3.796,8.862,5.205,18.93,2.803,28.267&#10;&#9;&#9;&#9;&#9;&#9;c-2.103,8.177-6.998,15.423-12.898,21.46c-16.313,16.691-41.111,24.61-64.072,20.459c-10.901-1.971-22.027-7.124-27.396-16.819&#10;&#9;&#9;&#9;&#9;&#9;c-3.495-6.312-4.149-13.851-3.476-21.035c0.917-9.792,4.388-19.677,11.444-26.524c11.398-11.06,31.569-11.242,43.164-0.388&#10;&#9;&#9;&#9;&#9;&#9;c5.177,4.846,8.708,12.26,6.683,19.058c-1.222,4.102-4.303,7.443-7.848,9.84c-4.896,3.311-11.67,4.955-16.633,1.745&#10;&#9;&#9;&#9;&#9;&#9;c-4.963-3.21-5.111-12.421,0.544-14.14c-3.855-2.25-8.714,1.951-9.428,6.359c-0.842,5.196,1.87,10.604,6.139,13.681&#10;&#9;&#9;&#9;&#9;&#9;c4.269,3.077,9.843,3.996,15.053,3.258c10.343-1.465,19.425-9.598,22.021-19.722c3.389-13.215-4.509-27.78-16.589-34.109&#10;&#9;&#9;&#9;&#9;&#9;c-12.08-6.329-27.174-5.18-39.402,0.856c-15.273,7.539-26.721,22.72-29.029,39.603c-2.308,16.883,4.923,34.92,18.696,44.943&#10;&#9;&#9;&#9;&#9;&#9;c11.036,8.031,25.201,10.676,38.845,10.45c30.843-0.512,61.162-15.292,80.573-39.279c9.68-11.963,16.854-26.674,16.672-42.065&#10;&#9;&#9;&#9;&#9;&#9;C643.69,413.903,638.434,401.554,631.236,390.92z"/>
			</g><g transform="matrix(1, 0, 0, 1, 0, 0)">
				<path fill="#072941" d="M661.132,521.447c-1.123-3.045,1.485-6.796,5.808-8.394c4.323-1.592,8.738-0.418,9.857,2.62&#10;&#9;&#9;&#9;&#9;&#9;c1.123,3.041-1.482,6.794-5.804,8.388C666.666,525.653,662.249,524.483,661.132,521.447z"/>
			</g><path fill="#072941" d="M680.228,497.078c-0.627-1.695,0.827-3.781,3.233-4.665c2.408-0.886,4.865-0.244,5.488,1.455&#10;&#9;&#9;&#9;&#9;&#9;c0.623,1.694-0.827,3.779-3.233,4.668C683.306,499.417,680.853,498.768,680.228,497.078z" transform="matrix(1, 0, 0, 1, 0, 0)"/><path fill="#072941" d="M659.691,483.727c-0.623-1.692,0.825-3.783,3.231-4.67c2.408-0.889,4.865-0.235,5.488,1.455&#10;&#9;&#9;&#9;&#9;&#9;c0.62,1.688-0.825,3.785-3.233,4.67C662.776,486.068,660.312,485.414,659.691,483.727z" transform="matrix(1, 0, 0, 1, 0, 0)"/><path fill="#072941" d="M615.072,531.211c-0.62-1.694,0.823-3.779,3.23-4.674c2.41-0.882,4.866-0.233,5.489,1.457&#10;&#9;&#9;&#9;&#9;&#9;c0.623,1.697-0.825,3.79-3.233,4.674C618.149,533.557,615.694,532.899,615.072,531.211z" transform="matrix(1, 0, 0, 1, 0, 0)"/><path fill="#072941" d="M689.859,470.649c-0.422-1.146,0.56-2.548,2.177-3.154c1.622-0.597,3.278-0.161,3.699,0.987&#10;&#9;&#9;&#9;&#9;&#9;c0.424,1.139-0.557,2.537-2.179,3.141C691.931,472.213,690.277,471.782,689.859,470.649z" transform="matrix(1, 0, 0, 1, 0, 0)"/><path fill="#072941" d="M646.63,526.787c-0.416-1.143,0.564-2.548,2.183-3.149c1.622-0.592,3.276-0.155,3.698,0.987&#10;&#9;&#9;&#9;&#9;&#9;c0.416,1.139-0.562,2.544-2.185,3.143C648.711,528.366,647.056,527.924,646.63,526.787z" transform="matrix(1, 0, 0, 1, 0, 0)"/><path fill="#072941" d="M642.432,496.065c-0.421-1.146,0.556-2.555,2.182-3.147c1.617-0.597,3.274-0.163,3.696,0.982&#10;&#9;&#9;&#9;&#9;&#9;c0.418,1.139-0.56,2.548-2.181,3.143C644.509,497.638,642.849,497.204,642.432,496.065z" transform="matrix(1, 0, 0, 1, 0, 0)"/><path fill="#072941" d="M591.954,501.315c-0.418-1.135,0.552-2.551,2.174-3.15c1.625-0.595,3.284-0.155,3.702,0.989&#10;&#9;&#9;&#9;&#9;&#9;c0.421,1.137-0.552,2.548-2.179,3.143C594.028,502.894,592.373,502.458,591.954,501.315z" transform="matrix(1, 0, 0, 1, 0, 0)"/><path fill="#072941" d="M613.198,491.735c-1.123-3.039,1.478-6.794,5.807-8.388c4.327-1.597,8.74-0.427,9.858,2.614&#10;&#9;&#9;&#9;&#9;&#9;c1.122,3.043-1.48,6.796-5.809,8.39C618.729,495.946,614.314,494.778,613.198,491.735z" transform="matrix(1, 0, 0, 1, 0, 0)"/><path fill="#126A6B" d="M700,520.184c-2.89-4.395-6.291-8.449-10.422-11.68c-5.482-4.287-12.362-7.038-19.31-6.674&#10;&#9;&#9;&#9;c-10.31,0.54-19.357,7.912-24.311,16.975c-1.619,2.961-2.759,6.964-0.475,9.449c-8.001-4.841-18.02-6.211-27.026-3.697&#10;&#9;&#9;&#9;c-4.3,1.201-8.466,3.332-11.323,6.763c-2.858,3.431-4.208,8.302-2.728,12.516c-6.765-6.622-18.623-7.084-25.881-1.007&#10;&#9;&#9;&#9;c-1.557,1.304-2.96,2.963-3.315,4.963c-0.462,2.604,0.995,5.257,3.06,6.909c2.064,1.651,4.652,2.481,7.199,3.19&#10;&#9;&#9;&#9;c21.124,5.876,43.406,5.602,65.327,5.139c16.505-0.349,33.172-0.813,49.207-4.656V520.184z" transform="matrix(1, 0, 0, 1, 0, 0)"/><path fill="#126A6B" d="M298.332,547.691c-4.784-4.496-8.806-9.232-11.999-14.128c9.784,3.524,18.061,8.276,24.002,13.778&#10;&#9;&#9;&#9;c-8.209-13.107-18.417-25.844-30.484-38.037c16.673,11.361,28.789,24.687,35.266,38.786c0.163-16.106-10.052-32.085-6.469-48.073&#10;&#9;&#9;&#9;c10.549,15.863,15.839,32.753,15.541,49.619c4.898-15.157,3.018-30.969,11.388-45.669c-1.112,13.39-2.224,26.78-3.336,40.17&#10;&#9;&#9;&#9;c3.041-7.732,8.091-15.23,14.954-22.201c-3.496,8.327-6.993,16.653-10.489,24.98c6.463-6.226,15.399-11.689,26.018-15.907&#10;&#9;&#9;&#9;c-5.907,6.034-10.105,12.561-12.399,19.281" transform="matrix(1, 0, 0, 1, 0, 0)"/><path fill="#126A6B" d="M387.703,551.867c-0.736-3.658-1.355-7.45-0.569-11.097c0.785-3.648,3.28-7.155,6.891-8.09&#10;&#9;&#9;&#9;c3.611-0.934,8.024,1.654,8.112,5.384c0.248-9.38,4.85-18.556,12.22-24.361c1.612-1.269,3.383-2.401,5.369-2.914&#10;&#9;&#9;&#9;c3.767-0.974,7.829,0.437,10.922,2.799c6.251,4.775,9.074,13.6,6.755,21.12c0.986-3.949,5.777-6.164,9.7-5.085&#10;&#9;&#9;&#9;c3.923,1.079,6.759,4.753,7.724,8.708c0.965,3.954,0.318,8.138-0.856,12.035" transform="matrix(1, 0, 0, 1, 0, 0)"/><path fill="#126A6B" d="M454.507,549.498c1.918-2.099,3.896-4.244,6.435-5.523c2.539-1.279,5.802-1.522,8.107,0.143&#10;&#9;&#9;&#9;c1.161,0.838,2,2.09,3.242,2.804c2.887,1.658,6.45-0.185,9.285-1.931c2.835-1.746,6.547-3.426,9.283-1.529&#10;&#9;&#9;&#9;c1.757,1.219,2.514,3.622,4.432,4.566c2.995,1.474,6.123-1.441,8.998-3.136c3.438-2.026,7.823-2.356,11.525-0.866&#10;&#9;&#9;&#9;c3.299,1.327,6.118,4.01,9.655,4.365c6.582,0.661,12.275-6.986,18.678-5.323c3.461,0.899,5.967,4.386,9.528,4.715&#10;&#9;&#9;&#9;c4.52,0.418,8.322-4.461,12.825-3.879c1.58,0.204,2.991,1.072,4.521,1.512c2.488,0.715,5.181,0.275,7.698,0.876&#10;&#9;&#9;&#9;c2.518,0.601,5.017,3.041,4.149,5.48" transform="matrix(1, 0, 0, 1, 0, 0)"/><path fill="#126A6B" d="M164.529,549.498c1.918-2.099,3.896-4.244,6.435-5.523s5.802-1.522,8.107,0.143&#10;&#9;&#9;&#9;c1.161,0.838,2,2.09,3.242,2.804c2.887,1.658,6.45-0.185,9.285-1.931c2.835-1.746,6.547-3.426,9.283-1.529&#10;&#9;&#9;&#9;c1.757,1.219,2.514,3.622,4.432,4.566c2.995,1.474,6.123-1.441,8.998-3.136c3.438-2.026,7.823-2.356,11.525-0.866&#10;&#9;&#9;&#9;c3.298,1.327,6.118,4.01,9.655,4.365c6.582,0.661,12.275-6.986,18.678-5.323c3.462,0.899,5.967,4.386,9.528,4.715&#10;&#9;&#9;&#9;c4.52,0.418,8.322-4.461,12.824-3.879c1.58,0.204,2.991,1.072,4.522,1.512c2.487,0.715,5.181,0.275,7.698,0.876&#10;&#9;&#9;&#9;c2.517,0.601,5.017,3.041,4.149,5.48" transform="matrix(1, 0, 0, 1, 0, 0)"/><path fill="#126A6B" d="M104.638,544.49c-0.45-4.831-3.755-9.288-8.246-11.12c-4.491-1.832-9.968-0.959-13.666,2.18&#10;&#9;&#9;&#9;c3.231-4.389,1.603-11.128-2.596-14.601c-4.2-3.473-10.183-4.1-15.514-2.974c4.001-6.041-0.078-15.019-6.784-17.756&#10;&#9;&#9;&#9;c-6.707-2.737-14.59-0.436-20.436,3.843c3.523-7.918,0.015-17.84-6.863-23.109c-6.878-5.269-16.321-6.336-24.77-4.425&#10;&#9;&#9;&#9;c-2.031,0.459-4.011,1.077-5.948,1.816v80.468c33.622,0.172,67.134-4.412,100.474-8.997c1.094-0.15,2.251-0.328,3.096-1.04&#10;&#9;&#9;&#9;C104.569,547.776,104.782,546.032,104.638,544.49z" transform="matrix(1, 0, 0, 1, 0, 0)"/><path fill="#126A6B" d="M120.429,554.056c1.303-13.068-1.788-26.536-8.66-37.725c8.68,10.587,13.922,23.951,14.755,37.619&#10;&#9;&#9;&#9;c0.651-17.52,2.101-35.863,11.481-50.672c-1.111,12.866-1.237,25.817-0.376,38.702c1.097-8.327,5.221-16.221,11.428-21.876&#10;&#9;&#9;&#9;c-1.557,5.36-3.115,10.721-4.672,16.081c4.228-5.07,9.988-8.844,16.323-10.696c-7.258,8.313-11.875,18.9-13.03,29.877" transform="matrix(1, 0, 0, 1, 0, 0)"/>
<g opacity="0.1" transform="matrix(1, 0, 0, 1, 0, 0)">
		<path fill-rule="evenodd" clip-rule="evenodd" fill="#FFFFFF" d="M143.378,269.651c-0.797-5.916-5.809-10.492-11.945-10.492&#10;&#9;&#9;&#9;c-2.12,0-4.11,0.55-5.842,1.505c0.009-0.202,0.015-0.403,0.015-0.609c0-9.161-7.432-16.59-16.593-16.59&#10;&#9;&#9;&#9;c-1.926,0-3.777,0.333-5.503,0.939c-4.358-5.232-10.921-8.56-18.262-8.56c-12.986,0-23.538,10.423-23.753,23.36&#10;&#9;&#9;&#9;c-0.3-0.023-0.603-0.046-0.906-0.046c-6.136,0-11.148,4.576-11.944,10.492H143.378z"/>
	</g><path fill-rule="evenodd" clip-rule="evenodd" fill="#FFFFFF" d="M111.235,71.522c-0.798-5.916-5.81-10.492-11.946-10.492&#10;&#9;&#9;&#9;c-2.118,0-4.11,0.55-5.842,1.505c0.007-0.201,0.015-0.403,0.015-0.609c0-9.161-7.43-16.59-16.593-16.59&#10;&#9;&#9;&#9;c-1.926,0-3.777,0.333-5.501,0.939c-4.36-5.232-10.922-8.56-18.264-8.56c-12.986,0-23.537,10.423-23.753,23.36&#10;&#9;&#9;&#9;c-0.3-0.023-0.601-0.045-0.907-0.045c-6.136,0-11.146,4.576-11.944,10.492H111.235z" transform="matrix(1, 0, 0, 1, 0, 0)"/><path fill-rule="evenodd" clip-rule="evenodd" fill="#FFFFFF" d="M259.258,224.986c-0.796-5.916-5.812-10.492-11.947-10.492&#10;&#9;&#9;&#9;c-2.117,0-4.107,0.55-5.839,1.505c0.006-0.202,0.012-0.403,0.012-0.609c0-9.161-7.429-16.59-16.59-16.59&#10;&#9;&#9;&#9;c-1.926,0-3.78,0.333-5.503,0.939c-4.358-5.232-10.924-8.56-18.265-8.56c-12.986,0-23.537,10.423-23.75,23.36&#10;&#9;&#9;&#9;c-0.303-0.023-0.603-0.046-0.909-0.046c-6.136,0-11.145,4.576-11.944,10.492H259.258z" transform="matrix(1, 0, 0, 1, 0, 0)"/><path fill-rule="evenodd" clip-rule="evenodd" fill="#FFFFFF" d="M133.526,329.737c0.796-5.916,5.812-10.492,11.947-10.492&#10;&#9;&#9;&#9;c2.117,0,4.107,0.55,5.839,1.505c-0.006-0.202-0.012-0.403-0.012-0.609c0-9.161,7.429-16.59,16.59-16.59&#10;&#9;&#9;&#9;c1.926,0,3.779,0.333,5.503,0.939c4.358-5.232,10.924-8.56,18.265-8.56c12.986,0,23.538,10.422,23.75,23.36&#10;&#9;&#9;&#9;c0.303-0.023,0.603-0.046,0.909-0.046c6.136,0,11.145,4.576,11.944,10.492H133.526z" transform="matrix(1, 0, 0, 1, 0, 0)"/><path fill-rule="evenodd" clip-rule="evenodd" fill="#FFFFFF" d="M348.458,105.698c-1.475-10.934-10.738-19.391-22.077-19.391&#10;&#9;&#9;&#9;c-3.915,0-7.595,1.016-10.797,2.782c0.014-0.372,0.028-0.744,0.028-1.125c0-16.931-13.732-30.66-30.666-30.66&#10;&#9;&#9;&#9;c-3.56,0-6.98,0.616-10.167,1.735c-8.057-9.669-20.186-15.819-33.753-15.819c-24,0-43.499,19.262-43.897,43.172&#10;&#9;&#9;&#9;c-0.554-0.042-1.111-0.084-1.676-0.084c-11.339,0-20.6,8.457-22.075,19.391H348.458z" transform="matrix(1, 0, 0, 1, 0, 0)"/><path fill-rule="evenodd" clip-rule="evenodd" fill="#FFFFFF" d="M567.231,121.881h63.096&#10;&#9;&#9;&#9;c-2.023-10.409-11.687-17.741-22.438-16.634c-0.103,0.01-0.2,0.035-0.297,0.046c-1.902-8.727-10.091-14.822-19.182-13.886&#10;&#9;&#9;&#9;c-9.767,1.005-16.869,9.738-15.864,19.505c0.209,2.032,0.769,3.94,1.587,5.69C571.377,117.749,569.018,119.59,567.231,121.881z" transform="matrix(1, 0, 0, 1, 0, 0)"/><path fill-rule="evenodd" clip-rule="evenodd" fill="#FFFFFF" d="M29.654,161.591h63.096&#10;&#9;&#9;&#9;c-2.023-10.409-11.687-17.741-22.438-16.634c-0.103,0.011-0.2,0.035-0.297,0.046c-1.902-8.727-10.091-14.822-19.182-13.886&#10;&#9;&#9;&#9;c-9.767,1.005-16.869,9.738-15.864,19.505c0.209,2.032,0.769,3.94,1.587,5.69C33.8,157.458,31.441,159.299,29.654,161.591z" transform="matrix(1, 0, 0, 1, 0, 0)"/><path fill-rule="evenodd" clip-rule="evenodd" fill="#FFFFFF" d="M640.277,323.077h-96.204&#10;&#9;&#9;&#9;c3.084-15.871,17.82-27.051,34.215-25.363c0.153,0.017,0.3,0.053,0.453,0.069c2.898-13.306,15.384-22.599,29.247-21.172&#10;&#9;&#9;&#9;c14.89,1.533,25.723,14.848,24.19,29.74c-0.323,3.099-1.173,6.008-2.42,8.677C633.96,316.776,637.552,319.584,640.277,323.077z" transform="matrix(1, 0, 0, 1, 0, 0)"/><path fill-rule="evenodd" clip-rule="evenodd" fill="#FFFFFF" d="M446.562,307.342h-120.79&#10;&#9;&#9;&#9;c3.873-19.926,22.379-33.963,42.961-31.844c0.191,0.021,0.377,0.067,0.568,0.087c3.641-16.706,19.318-28.374,36.723-26.583&#10;&#9;&#9;&#9;c18.692,1.925,32.294,18.643,30.369,37.341c-0.406,3.89-1.473,7.543-3.038,10.894C438.63,299.431,443.141,302.956,446.562,307.342&#10;&#9;&#9;&#9;z" transform="matrix(1, 0, 0, 1, 0, 0)"/>
<g transform="matrix(1, 0, 0, 1, 0, 0)">
		<path fill="#FCFFFF" d="M668.912,222.705c0,0.881-0.715,1.596-1.596,1.596c-0.881,0-1.596-0.715-1.596-1.596&#10;&#9;&#9;&#9;s0.715-1.596,1.596-1.596C668.198,221.109,668.912,221.824,668.912,222.705z"/>
	</g><path fill="#FCFFFF" d="M670.508,57.377c0,0.883-0.715,1.598-1.596,1.598c-0.881,0-1.596-0.715-1.596-1.598&#10;&#9;&#9;&#9;c0-0.88,0.715-1.594,1.596-1.594C669.794,55.782,670.508,56.497,670.508,57.377z" transform="matrix(1, 0, 0, 1, 0, 0)"/><path fill="#FCFFFF" d="M337.765,224.3c0,0.883-0.715,1.597-1.596,1.597c-0.881,0-1.596-0.714-1.596-1.597&#10;&#9;&#9;&#9;c0-0.88,0.715-1.595,1.596-1.595C337.05,222.705,337.765,223.42,337.765,224.3z" transform="matrix(1, 0, 0, 1, 0, 0)"/><path fill="#FCFFFF" d="M43.641,279.013c0,0.883-0.715,1.597-1.596,1.597c-0.881,0-1.596-0.715-1.596-1.597&#10;&#9;&#9;&#9;c0-0.88,0.715-1.595,1.596-1.595C42.926,277.419,43.641,278.133,43.641,279.013z" transform="matrix(1, 0, 0, 1, 0, 0)"/><path fill="#FCFFFF" d="M287.776,318.148c0,0.883-0.715,1.598-1.596,1.598c-0.881,0-1.596-0.715-1.596-1.598&#10;&#9;&#9;&#9;c0-0.88,0.715-1.594,1.596-1.594C287.061,316.553,287.776,317.268,287.776,318.148z" transform="matrix(1, 0, 0, 1, 0, 0)"/><path fill="#FCFFFF" d="M527.896,72.66c0,0.884-0.714,1.599-1.596,1.599c-0.881,0-1.596-0.715-1.596-1.599&#10;&#9;&#9;&#9;c0-0.878,0.715-1.593,1.596-1.593C527.182,71.067,527.896,71.782,527.896,72.66z" transform="matrix(1, 0, 0, 1, 0, 0)"/><path fill="#FCFFFF" d="M520.651,14.731c0,0.883-0.715,1.598-1.596,1.598c-0.881,0-1.596-0.715-1.596-1.598&#10;&#9;&#9;&#9;c0-0.88,0.715-1.594,1.596-1.594C519.936,13.137,520.651,13.851,520.651,14.731z" transform="matrix(1, 0, 0, 1, 0, 0)"/><path fill="#FCFFFF" d="M116.387,307.112c0,0.883-0.715,1.598-1.596,1.598c-0.881,0-1.596-0.715-1.596-1.598&#10;&#9;&#9;&#9;c0-0.88,0.715-1.594,1.596-1.594C115.673,305.518,116.387,306.233,116.387,307.112z" transform="matrix(1, 0, 0, 1, 0, 0)"/><path fill="#FCFFFF" d="M613.349,19.148c0,0.883-0.714,1.598-1.596,1.598c-0.881,0-1.596-0.715-1.596-1.598&#10;&#9;&#9;&#9;c0-0.88,0.715-1.594,1.596-1.594C612.635,17.553,613.349,18.268,613.349,19.148z" transform="matrix(1, 0, 0, 1, 0, 0)"/><path fill="#FCFFFF" d="M555.259,161.859c0,0.883-0.715,1.597-1.596,1.597c-0.881,0-1.596-0.715-1.596-1.597&#10;&#9;&#9;&#9;c0-0.88,0.715-1.595,1.596-1.595C554.545,160.264,555.259,160.979,555.259,161.859z" transform="matrix(1, 0, 0, 1, 0, 0)"/><path fill="#FCFFFF" d="M553.663,279.013c0,0.883-0.715,1.597-1.596,1.597c-0.881,0-1.596-0.715-1.596-1.597&#10;&#9;&#9;&#9;c0-0.88,0.715-1.595,1.596-1.595C552.949,277.419,553.663,278.133,553.663,279.013z" transform="matrix(1, 0, 0, 1, 0, 0)"/><path fill="#FCFFFF" d="M25.296,317.031c0,0.883-0.715,1.597-1.599,1.597c-0.878,0-1.593-0.715-1.593-1.597&#10;&#9;&#9;&#9;c0-0.88,0.715-1.595,1.593-1.595C24.581,315.436,25.296,316.151,25.296,317.031z" transform="matrix(1, 0, 0, 1, 0, 0)"/><path fill="#FCFFFF" d="M269.776,136.138c0,0.883-0.714,1.598-1.593,1.598c-0.884,0-1.599-0.715-1.599-1.598&#10;&#9;&#9;&#9;c0-0.88,0.715-1.594,1.599-1.594C269.062,134.544,269.776,135.258,269.776,136.138z" transform="matrix(1, 0, 0, 1, 0, 0)"/><path fill="#FCFFFF" d="M271.375,218.859c0,0.883-0.715,1.598-1.599,1.598c-0.878,0-1.593-0.715-1.593-1.598&#10;&#9;&#9;&#9;c0-0.88,0.715-1.594,1.593-1.594C270.661,217.265,271.375,217.98,271.375,218.859z" transform="matrix(1, 0, 0, 1, 0, 0)"/><path fill="#FCFFFF" d="M230.696,72.86c0,0.883-0.715,1.598-1.599,1.598c-0.878,0-1.593-0.715-1.593-1.598&#10;&#9;&#9;&#9;c0-0.88,0.715-1.594,1.593-1.594C229.982,71.266,230.696,71.981,230.696,72.86z" transform="matrix(1, 0, 0, 1, 0, 0)"/><path fill="#FCFFFF" d="M183.3,31.376c0,0.883-0.715,1.597-1.596,1.597c-0.881,0-1.596-0.715-1.596-1.597&#10;&#9;&#9;&#9;c0-0.88,0.715-1.595,1.596-1.595C182.585,29.782,183.3,30.497,183.3,31.376z" transform="matrix(1, 0, 0, 1, 0, 0)"/><path fill="#FCFFFF" d="M167.092,163.464c0,0.883-0.715,1.598-1.599,1.598c-0.878,0-1.593-0.715-1.593-1.598&#10;&#9;&#9;&#9;c0-0.88,0.715-1.594,1.593-1.594C166.377,161.87,167.092,162.585,167.092,163.464z" transform="matrix(1, 0, 0, 1, 0, 0)"/><path fill="#FCFFFF" d="M95.65,69.188c0,0.883-0.715,1.598-1.596,1.598c-0.881,0-1.596-0.715-1.596-1.598&#10;&#9;&#9;&#9;c0-0.88,0.715-1.595,1.596-1.595C94.936,67.593,95.65,68.308,95.65,69.188z" transform="matrix(1, 0, 0, 1, 0, 0)"/><path fill="#FCFFFF" d="M103.285,169.789c0,0.883-0.715,1.597-1.596,1.597c-0.881,0-1.596-0.715-1.596-1.597&#10;&#9;&#9;&#9;c0-0.88,0.715-1.595,1.596-1.595C102.57,168.194,103.285,168.909,103.285,169.789z" transform="matrix(1, 0, 0, 1, 0, 0)"/><path fill="#FCFFFF" d="M32.847,112.581c0,0.883-0.715,1.598-1.596,1.598c-0.881,0-1.596-0.715-1.596-1.598&#10;&#9;&#9;&#9;c0-0.88,0.715-1.594,1.596-1.594C32.132,110.987,32.847,111.702,32.847,112.581z" transform="matrix(1, 0, 0, 1, 0, 0)"/><path fill="#FCFFFF" d="M437.873,41.777c0,0.883,0.715,1.597,1.596,1.597c0.881,0,1.596-0.715,1.596-1.597&#10;&#9;&#9;&#9;c0-0.88-0.715-1.595-1.596-1.595C438.587,40.182,437.873,40.897,437.873,41.777z" transform="matrix(1, 0, 0, 1, 0, 0)"/><path fill="#FCFFFF" d="M316.658,37.714c0,0.883-0.715,1.597-1.596,1.597c-0.881,0-1.596-0.715-1.596-1.597&#10;&#9;&#9;&#9;c0-0.88,0.715-1.595,1.596-1.595C315.943,36.119,316.658,36.834,316.658,37.714z" transform="matrix(1, 0, 0, 1, 0, 0)"/><path fill="#FCFFFF" d="M437.765,293.773c0,0.883-0.715,1.597-1.596,1.597c-0.881,0-1.596-0.715-1.596-1.597&#10;&#9;&#9;&#9;c0-0.88,0.714-1.595,1.596-1.595C437.05,292.178,437.765,292.893,437.765,293.773z" transform="matrix(1, 0, 0, 1, 0, 0)"/><path fill="#FCFFFF" d="M283.795,92.1c0,0.883-0.715,1.597-1.596,1.597c-0.881,0-1.596-0.715-1.596-1.597&#10;&#9;&#9;&#9;c0-0.88,0.715-1.595,1.596-1.595C283.081,90.505,283.795,91.22,283.795,92.1z" transform="matrix(1, 0, 0, 1, 0, 0)"/>
<g transform="matrix(1, 0, 0, 1, 0, 0)">
		<g>
			<path fill="#1C303E" d="M530.188,228.625l0.985,96.78h8.041c0,0-3.775-78.234-6.236-95.494"/>
		</g>
		<g>
			<path d="M 546.815002 252.516998 L 534.208008 267.782013 L 536.395996 272.433014 L 549.307007 252.516998" fill="#1C303E"/>
		</g>
		<g>
			<path fill="#1C303E" d="M543.139,258.949c0,0,7.66-0.979,8.753-2.204l1.448,0.634c0,0-6.469,5.008-10.201,4.752"/>
		</g>
		<g>
			<path fill="#1C303E" d="M531.422,255.506c0,0-10.121,0.636-15.099-1.595l-3.01,1.391c0,0,15.072,6.713,20.626,3.322"/>
		</g>
		<g>
			<path fill="#1C303E" d="M540.827,242.034L540.827,242.034c1.534-4.107,5.795-6.519,10.105-5.722l12.773,2.363&#10;&#9;&#9;&#9;&#9;c3.501,0.648,6.294,3.291,7.134,6.751l0.436,1.797c1.13,4.654-1.569,9.381-6.151,10.774l-3.8,1.155&#10;&#9;&#9;&#9;&#9;c-2.364,0.718-4.918,0.437-7.069-0.778l-9.409-5.315C540.976,250.874,539.272,246.198,540.827,242.034z"/>
		</g>
		<g>
			<path fill="#1C303E" d="M499.215,249.574l7.666-6.818c1.257-1.117,2.959-1.591,4.612-1.283l7.451,1.39&#10;&#9;&#9;&#9;&#9;c0.987,0.184,1.904,0.638,2.649,1.311v0c2.167,1.958,2.401,5.277,0.53,7.52l-3.484,4.177c-0.822,0.986-1.966,1.649-3.23,1.872&#10;&#9;&#9;&#9;&#9;l-10.638,1.88c-1.335,0.236-2.709-0.035-3.854-0.76l-0.995-0.629C496.864,256.301,496.512,251.978,499.215,249.574z"/>
		</g>
		<g>
			<path fill="#1C303E" d="M533.963,235.949c0,0,2.962-3.159,4.378-9.178l2.066-0.354c0,0-2.125,9.252-6.02,14.164"/>
		</g>
		<g>
			<path fill="#1C303E" d="M497.505,218.634l19.961-23.085c1.134-1.311,2.567-2.329,4.178-2.968l34.361-13.622&#10;&#9;&#9;&#9;&#9;c3.076-1.219,6.542-0.957,9.399,0.711l1.83,1.068c4.914,2.868,6.749,9.063,4.191,14.145l-10.559,20.974&#10;&#9;&#9;&#9;&#9;c-0.642,1.276-1.532,2.412-2.618,3.341l-7.452,6.376c-1.354,1.158-2.974,1.963-4.715,2.341l-38.14,8.289&#10;&#9;&#9;&#9;&#9;c-3.068,0.667-6.273-0.038-8.779-1.93h0C494.191,230.52,493.432,223.346,497.505,218.634z"/>
		</g>
	</g><g transform="matrix(1, 0, 0, 1, 0, 0)">
			<path d="M 506.562988 298.765015 L 506.837006 325.684998 L 509.770996 325.684998 L 507.973999 298.173004" fill="#1C303E"/>
		</g><path fill="#1C303E" d="M507.941,300.436c0,0,1.081-1.152,1.597-3.349l0.754-0.129c0,0-0.775,3.375-2.196,5.168" transform="matrix(1, 0, 0, 1, 0, 0)"/><path fill="#1C303E" d="M494.639,294.119l7.283-8.423c0.414-0.478,0.936-0.85,1.524-1.083l12.536-4.97&#10;&#9;&#9;&#9;&#9;c1.122-0.445,2.387-0.349,3.429,0.259l0.668,0.39c1.793,1.046,2.462,3.307,1.529,5.161l-3.852,7.652&#10;&#9;&#9;&#9;&#9;c-0.234,0.466-0.559,0.88-0.955,1.219l-2.719,2.326c-0.494,0.423-1.085,0.716-1.72,0.854l-13.915,3.024&#10;&#9;&#9;&#9;&#9;c-1.119,0.243-2.289-0.014-3.203-0.704l0,0C493.43,298.456,493.153,295.838,494.639,294.119z" transform="matrix(1, 0, 0, 1, 0, 0)"/><g transform="matrix(1, 0, 0, 1, 0, 0)">
			<path fill="#1C303E" d="M468.368,269.556l2.991,66.308l-5.506,0.305c0,0-0.378-53.715,0.653-65.626"/>
		</g><path fill="#1C303E" d="M468.541,288.01c0,0,6.954,0.052,10.279-1.665l2.114,0.838c0,0-10.066,5.168-13.998,3.056" transform="matrix(1, 0, 0, 1, 0, 0)"/><path fill="#1C303E" d="M490.371,282.728l-5.508-4.378c-0.903-0.718-2.086-0.977-3.207-0.703l-5.049,1.234&#10;&#9;&#9;&#9;&#9;c-0.669,0.164-1.28,0.509-1.764,0.998l0,0c-1.409,1.423-1.444,3.704-0.078,5.169l2.544,2.728c0.6,0.644,1.409,1.055,2.283,1.16&#10;&#9;&#9;&#9;&#9;l7.356,0.884c0.923,0.111,1.854-0.127,2.61-0.666l0.657-0.469C492.235,287.245,492.313,284.271,490.371,282.728z" transform="matrix(1, 0, 0, 1, 0, 0)"/><path fill="#1C303E" d="M493.154,245.907l-20.298-5.103c-1.153-0.29-2.358-0.297-3.514-0.021l-24.658,5.88&#10;&#9;&#9;&#9;&#9;c-2.207,0.526-4.05,2.038-4.998,4.1l-0.607,1.32c-1.63,3.545-0.221,7.747,3.216,9.593l14.187,7.62&#10;&#9;&#9;&#9;&#9;c0.863,0.464,1.81,0.751,2.786,0.845l6.695,0.646c1.216,0.117,2.443-0.069,3.569-0.542l24.68-10.363&#10;&#9;&#9;&#9;&#9;c1.985-0.833,3.508-2.492,4.169-4.54l0,0C499.695,251.277,497.297,246.949,493.154,245.907z" transform="matrix(1, 0, 0, 1, 0, 0)"/><g transform="matrix(1, 0, 0, 1, 0, 0)">
			<path fill="#1C303E" d="M72.871,265.522l0.465,45.724h3.799c0,0-1.783-36.962-2.946-45.116"/>
		</g><path d="M 80.726997 276.809998 L 74.769997 284.022003 L 75.804001 286.218994 L 81.903999 276.809998" fill="#1C303E" transform="matrix(1, 0, 0, 1, 0, 0)"/><path fill="#1C303E" d="M78.99,279.848c0,0,3.619-0.462,4.135-1.041l0.684,0.3c0,0-3.056,2.366-4.82,2.245" transform="matrix(1, 0, 0, 1, 0, 0)"/><path fill="#1C303E" d="M73.454,278.222c0,0-4.782,0.3-7.134-0.754l-1.422,0.657c0,0,7.121,3.172,9.745,1.57" transform="matrix(1, 0, 0, 1, 0, 0)"/><path fill="#1C303E" d="M77.897,271.857L77.897,271.857c0.725-1.94,2.738-3.08,4.774-2.703l6.035,1.116&#10;&#9;&#9;&#9;&#9;c1.654,0.306,2.974,1.555,3.371,3.189l0.206,0.849c0.534,2.199-0.741,4.432-2.906,5.09l-1.795,0.546&#10;&#9;&#9;&#9;&#9;c-1.117,0.339-2.324,0.206-3.34-0.367l-4.445-2.511C77.968,276.033,77.163,273.824,77.897,271.857z" transform="matrix(1, 0, 0, 1, 0, 0)"/><path fill="#1C303E" d="M58.238,275.419l3.622-3.221c0.594-0.528,1.398-0.751,2.179-0.606l3.52,0.657&#10;&#9;&#9;&#9;&#9;c0.466,0.087,0.9,0.301,1.252,0.62l0,0c1.024,0.925,1.134,2.493,0.25,3.553l-1.646,1.973c-0.388,0.466-0.929,0.779-1.526,0.884&#10;&#9;&#9;&#9;&#9;l-5.026,0.888c-0.631,0.111-1.28-0.017-1.821-0.359l-0.47-0.297C57.127,278.597,56.961,276.555,58.238,275.419z" transform="matrix(1, 0, 0, 1, 0, 0)"/><path fill="#1C303E" d="M74.655,268.982c0,0,1.399-1.492,2.068-4.336l0.976-0.167c0,0-1.004,4.371-2.844,6.692" transform="matrix(1, 0, 0, 1, 0, 0)"/><path fill="#1C303E" d="M56.743,257.592l11.261-9.004c0.64-0.511,1.393-0.861,2.196-1.019l17.135-3.368&#10;&#9;&#9;&#9;&#9;c1.534-0.301,3.121,0.119,4.305,1.14l0.758,0.654c2.035,1.756,2.354,4.791,0.728,6.932l-6.711,8.834&#10;&#9;&#9;&#9;&#9;c-0.408,0.538-0.92,0.988-1.504,1.326l-4.011,2.32c-0.729,0.421-1.55,0.656-2.392,0.681l-18.431,0.565&#10;&#9;&#9;&#9;&#9;c-1.482,0.046-2.911-0.558-3.912-1.653l0,0C54.18,262.828,54.445,259.43,56.743,257.592z" transform="matrix(1, 0, 0, 1, 0, 0)"/><g transform="matrix(1, 0, 0, 1, 0, 0)">
			<path d="M 61.709999 298.660004 L 61.839001 311.377991 L 63.224998 311.377991 L 62.375999 298.380005" fill="#1C303E"/>
		</g><path fill="#1C303E" d="M62.36,299.449c0,0,0.51-0.544,0.755-1.582l0.356-0.061c0,0-0.366,1.595-1.038,2.441" transform="matrix(1, 0, 0, 1, 0, 0)"/><path fill="#1C303E" d="M56.076,296.464l3.441-3.979c0.195-0.226,0.442-0.401,0.72-0.512l5.923-2.348&#10;&#9;&#9;&#9;&#9;c0.53-0.21,1.128-0.165,1.62,0.122l0.315,0.184c0.847,0.494,1.163,1.562,0.722,2.438l-1.82,3.615&#10;&#9;&#9;&#9;&#9;c-0.111,0.22-0.264,0.416-0.451,0.576l-1.285,1.099c-0.233,0.2-0.513,0.338-0.813,0.404l-6.574,1.429&#10;&#9;&#9;&#9;&#9;c-0.529,0.115-1.081-0.007-1.513-0.333l0,0C55.505,298.513,55.374,297.277,56.076,296.464z" transform="matrix(1, 0, 0, 1, 0, 0)"/><g transform="matrix(1, 0, 0, 1, 0, 0)">
			<path fill="#1C303E" d="M43.664,284.859l1.413,31.327l-2.601,0.144c0,0-0.179-25.378,0.309-31.005"/>
		</g><path fill="#1C303E" d="M43.746,293.578c0,0,3.286,0.025,4.856-0.786l0.999,0.396c0,0-4.756,2.442-6.613,1.444" transform="matrix(1, 0, 0, 1, 0, 0)"/><path fill="#1C303E" d="M54.06,291.083l-2.602-2.068c-0.426-0.339-0.986-0.462-1.515-0.332l-2.386,0.583&#10;&#9;&#9;&#9;&#9;c-0.316,0.077-0.605,0.241-0.834,0.472l0,0c-0.666,0.672-0.682,1.75-0.037,2.442l1.202,1.289&#10;&#9;&#9;&#9;&#9;c0.284,0.304,0.666,0.498,1.079,0.548l3.475,0.418c0.436,0.052,0.876-0.06,1.233-0.315l0.311-0.221&#10;&#9;&#9;&#9;&#9;C54.94,293.217,54.977,291.812,54.06,291.083z" transform="matrix(1, 0, 0, 1, 0, 0)"/><path fill="#1C303E" d="M55.375,273.687l-9.59-2.411c-0.545-0.137-1.114-0.14-1.66-0.01l-11.65,2.778&#10;&#9;&#9;&#9;&#9;c-1.043,0.249-1.914,0.963-2.361,1.937l-0.287,0.624c-0.77,1.675-0.105,3.66,1.519,4.532l6.703,3.6&#10;&#9;&#9;&#9;&#9;c0.408,0.219,0.855,0.355,1.316,0.399l3.163,0.305c0.575,0.056,1.154-0.033,1.686-0.256l11.66-4.896&#10;&#9;&#9;&#9;&#9;c0.938-0.394,1.657-1.177,1.97-2.145l0,0C58.465,276.224,57.332,274.179,55.375,273.687z" transform="matrix(1, 0, 0, 1, 0, 0)"/><g transform="matrix(1, 0, 0, 1, 0, 0)">
			<path fill="#1C303E" d="M122.904,256.158l0.465,45.724h3.799c0,0-1.783-36.962-2.946-45.116"/>
		</g><path d="M 130.759003 267.446014 L 124.803001 274.65799 L 125.836998 276.855011 L 131.936005 267.446014" fill="#1C303E" transform="matrix(1, 0, 0, 1, 0, 0)"/><path fill="#1C303E" d="M129.023,270.485c0,0,3.619-0.462,4.135-1.041l0.684,0.3c0,0-3.056,2.366-4.82,2.245" transform="matrix(1, 0, 0, 1, 0, 0)"/><path fill="#1C303E" d="M123.487,268.858c0,0-4.782,0.3-7.134-0.754l-1.422,0.657c0,0,7.121,3.172,9.745,1.57" transform="matrix(1, 0, 0, 1, 0, 0)"/><path fill="#1C303E" d="M127.93,262.493L127.93,262.493c0.725-1.94,2.738-3.08,4.774-2.703l6.035,1.116&#10;&#9;&#9;&#9;&#9;c1.654,0.306,2.974,1.555,3.371,3.189l0.206,0.849c0.534,2.199-0.741,4.432-2.906,5.09l-1.795,0.546&#10;&#9;&#9;&#9;&#9;c-1.117,0.339-2.324,0.207-3.34-0.367l-4.445-2.511C128.001,266.67,127.195,264.461,127.93,262.493z" transform="matrix(1, 0, 0, 1, 0, 0)"/><path fill="#1C303E" d="M108.27,266.056l3.622-3.221c0.594-0.528,1.398-0.752,2.179-0.606l3.52,0.657&#10;&#9;&#9;&#9;&#9;c0.466,0.087,0.9,0.302,1.252,0.62l0,0c1.024,0.925,1.134,2.493,0.25,3.553l-1.646,1.973c-0.388,0.466-0.929,0.779-1.526,0.884&#10;&#9;&#9;&#9;&#9;l-5.026,0.888c-0.631,0.111-1.28-0.017-1.821-0.359l-0.47-0.297C107.16,269.234,106.993,267.191,108.27,266.056z" transform="matrix(1, 0, 0, 1, 0, 0)"/><path fill="#1C303E" d="M124.687,259.619c0,0,1.399-1.492,2.068-4.336l0.976-0.167c0,0-1.004,4.371-2.844,6.692" transform="matrix(1, 0, 0, 1, 0, 0)"/><path fill="#1C303E" d="M107.463,251.438l9.43-10.907c0.536-0.619,1.213-1.1,1.974-1.402l16.234-6.436&#10;&#9;&#9;&#9;&#9;c1.453-0.576,3.091-0.452,4.441,0.336l0.865,0.505c2.321,1.355,3.188,4.282,1.98,6.683l-4.988,9.909&#10;&#9;&#9;&#9;&#9;c-0.303,0.603-0.724,1.139-1.237,1.578l-3.521,3.012c-0.64,0.547-1.405,0.927-2.228,1.106l-18.019,3.916&#10;&#9;&#9;&#9;&#9;c-1.449,0.315-2.964-0.018-4.147-0.912l0,0C105.897,257.054,105.538,253.664,107.463,251.438z" transform="matrix(1, 0, 0, 1, 0, 0)"/><g transform="matrix(1, 0, 0, 1, 0, 0)">
			<path d="M 111.741997 289.29599 L 111.872002 302.014008 L 113.258003 302.014008 L 112.408997 289.015991" fill="#1C303E"/>
		</g><path fill="#1C303E" d="M112.393,290.086c0,0,0.51-0.544,0.755-1.582l0.356-0.061c0,0-0.366,1.595-1.038,2.441" transform="matrix(1, 0, 0, 1, 0, 0)"/><path fill="#1C303E" d="M106.109,287.101l3.441-3.979c0.195-0.226,0.442-0.401,0.72-0.512l5.923-2.348&#10;&#9;&#9;&#9;&#9;c0.53-0.21,1.128-0.165,1.62,0.123l0.315,0.184c0.847,0.494,1.163,1.562,0.722,2.438l-1.82,3.615&#10;&#9;&#9;&#9;&#9;c-0.111,0.22-0.264,0.416-0.451,0.576l-1.285,1.099c-0.233,0.2-0.513,0.338-0.813,0.404l-6.574,1.429&#10;&#9;&#9;&#9;&#9;c-0.529,0.115-1.081-0.007-1.513-0.333l0,0C105.537,289.15,105.406,287.913,106.109,287.101z" transform="matrix(1, 0, 0, 1, 0, 0)"/><g transform="matrix(1, 0, 0, 1, 0, 0)">
			<path fill="#1C303E" d="M93.697,275.496l1.413,31.327l-2.602,0.144c0,0-0.179-25.378,0.309-31.005"/>
		</g><path fill="#1C303E" d="M93.779,284.215c0,0,3.286,0.025,4.856-0.786l0.999,0.396c0,0-4.756,2.442-6.613,1.444" transform="matrix(1, 0, 0, 1, 0, 0)"/><path fill="#1C303E" d="M104.092,281.719l-2.602-2.068c-0.426-0.339-0.986-0.462-1.515-0.332l-2.386,0.583&#10;&#9;&#9;&#9;&#9;c-0.316,0.077-0.605,0.241-0.834,0.472l0,0c-0.666,0.672-0.682,1.75-0.037,2.442l1.202,1.289&#10;&#9;&#9;&#9;&#9;c0.284,0.304,0.666,0.498,1.078,0.548l3.475,0.418c0.436,0.052,0.876-0.06,1.233-0.315l0.31-0.221&#10;&#9;&#9;&#9;&#9;C104.973,283.853,105.009,282.448,104.092,281.719z" transform="matrix(1, 0, 0, 1, 0, 0)"/><path fill="#1C303E" d="M105.407,264.323l-9.59-2.411c-0.545-0.137-1.114-0.14-1.66-0.01l-11.65,2.778&#10;&#9;&#9;&#9;&#9;c-1.043,0.249-1.914,0.963-2.361,1.937l-0.287,0.624c-0.77,1.675-0.104,3.66,1.52,4.532l6.703,3.6&#10;&#9;&#9;&#9;&#9;c0.408,0.219,0.855,0.355,1.316,0.399l3.163,0.305c0.575,0.055,1.154-0.033,1.686-0.256l11.66-4.896&#10;&#9;&#9;&#9;&#9;c0.938-0.394,1.657-1.177,1.97-2.145l0,0C108.497,266.86,107.364,264.815,105.407,264.323z" transform="matrix(1, 0, 0, 1, 0, 0)"/><g transform="matrix(1, 0, 0, 1, 0, 0)">
			<path fill="#1C303E" d="M147.981,257.677l0.465,45.724h3.799c0,0-1.783-36.962-2.946-45.116"/>
		</g><path d="M 155.837006 268.964996 L 149.880005 276.177002 L 150.914001 278.375 L 157.014008 268.964996" fill="#1C303E" transform="matrix(1, 0, 0, 1, 0, 0)"/><path fill="#1C303E" d="M154.1,272.004c0,0,3.619-0.462,4.135-1.041l0.684,0.3c0,0-3.056,2.366-4.82,2.245" transform="matrix(1, 0, 0, 1, 0, 0)"/><path fill="#1C303E" d="M148.564,270.377c0,0-4.782,0.3-7.133-0.754l-1.422,0.657c0,0,7.121,3.172,9.745,1.57" transform="matrix(1, 0, 0, 1, 0, 0)"/><path fill="#1C303E" d="M153.008,264.013L153.008,264.013c0.725-1.94,2.738-3.08,4.774-2.703l6.034,1.116&#10;&#9;&#9;&#9;&#9;c1.654,0.306,2.974,1.555,3.371,3.189l0.206,0.849c0.534,2.199-0.741,4.432-2.906,5.09l-1.795,0.546&#10;&#9;&#9;&#9;&#9;c-1.117,0.339-2.324,0.206-3.34-0.367l-4.445-2.511C153.078,268.189,152.273,265.98,153.008,264.013z" transform="matrix(1, 0, 0, 1, 0, 0)"/><path fill="#1C303E" d="M133.348,267.575l3.622-3.221c0.594-0.528,1.398-0.751,2.179-0.606l3.52,0.657&#10;&#9;&#9;&#9;&#9;c0.466,0.087,0.9,0.301,1.252,0.62l0,0c1.024,0.925,1.134,2.493,0.25,3.553l-1.646,1.973c-0.388,0.466-0.929,0.779-1.526,0.884&#10;&#9;&#9;&#9;&#9;l-5.026,0.888c-0.631,0.111-1.28-0.017-1.821-0.359l-0.47-0.297C132.238,270.753,132.071,268.711,133.348,267.575z" transform="matrix(1, 0, 0, 1, 0, 0)"/><path fill="#1C303E" d="M149.765,261.138c0,0,1.399-1.492,2.068-4.336l0.976-0.167c0,0-1.004,4.371-2.844,6.692" transform="matrix(1, 0, 0, 1, 0, 0)"/><path fill="#1C303E" d="M131.973,244.645l13.342-5.467c0.758-0.311,1.579-0.434,2.395-0.359l17.39,1.596&#10;&#9;&#9;&#9;&#9;c1.557,0.143,2.961,0.993,3.81,2.307l0.543,0.841c1.458,2.258,0.909,5.261-1.254,6.856l-8.929,6.585&#10;&#9;&#9;&#9;&#9;c-0.543,0.401-1.161,0.689-1.817,0.849l-4.502,1.096c-0.818,0.199-1.672,0.192-2.487-0.02l-17.844-4.651&#10;&#9;&#9;&#9;&#9;c-1.435-0.374-2.636-1.356-3.287-2.688l0,0C128.039,248.947,129.25,245.761,131.973,244.645z" transform="matrix(1, 0, 0, 1, 0, 0)"/><g transform="matrix(1, 0, 0, 1, 0, 0)">
			<path d="M 136.820007 290.815002 L 136.949005 303.53299 L 138.335007 303.53299 L 137.485992 290.535004" fill="#1C303E"/>
		</g><path fill="#1C303E" d="M137.471,291.605c0,0,0.51-0.544,0.755-1.582l0.356-0.061c0,0-0.366,1.595-1.038,2.441" transform="matrix(1, 0, 0, 1, 0, 0)"/><path fill="#1C303E" d="M131.186,288.62l3.441-3.979c0.195-0.226,0.442-0.401,0.72-0.512l5.923-2.348&#10;&#9;&#9;&#9;&#9;c0.53-0.21,1.128-0.165,1.62,0.122l0.315,0.184c0.847,0.494,1.163,1.562,0.722,2.438l-1.82,3.615&#10;&#9;&#9;&#9;&#9;c-0.111,0.22-0.264,0.416-0.451,0.576l-1.285,1.099c-0.233,0.2-0.513,0.338-0.813,0.404l-6.574,1.429&#10;&#9;&#9;&#9;&#9;c-0.529,0.115-1.081-0.007-1.513-0.333l0,0C130.615,290.669,130.484,289.432,131.186,288.62z" transform="matrix(1, 0, 0, 1, 0, 0)"/><g transform="matrix(1, 0, 0, 1, 0, 0)">
			<path fill="#1C303E" d="M118.774,277.015l1.413,31.327l-2.601,0.144c0,0-0.179-25.378,0.309-31.005"/>
		</g><path fill="#1C303E" d="M118.856,285.734c0,0,3.286,0.025,4.856-0.786l0.999,0.396c0,0-4.756,2.442-6.613,1.444" transform="matrix(1, 0, 0, 1, 0, 0)"/><path fill="#1C303E" d="M129.17,283.238l-2.602-2.068c-0.426-0.339-0.986-0.462-1.515-0.332l-2.386,0.583&#10;&#9;&#9;&#9;&#9;c-0.316,0.077-0.605,0.241-0.834,0.472l0,0c-0.666,0.672-0.682,1.75-0.037,2.442l1.202,1.289&#10;&#9;&#9;&#9;&#9;c0.284,0.304,0.666,0.498,1.078,0.548l3.475,0.418c0.436,0.052,0.876-0.06,1.233-0.315l0.311-0.221&#10;&#9;&#9;&#9;&#9;C130.05,285.373,130.087,283.968,129.17,283.238z" transform="matrix(1, 0, 0, 1, 0, 0)"/><path fill="#1C303E" d="M130.485,265.842l-9.59-2.411c-0.545-0.137-1.114-0.14-1.66-0.01l-11.649,2.778&#10;&#9;&#9;&#9;&#9;c-1.043,0.249-1.914,0.963-2.361,1.937l-0.287,0.624c-0.77,1.675-0.104,3.66,1.52,4.532l6.703,3.6&#10;&#9;&#9;&#9;&#9;c0.408,0.219,0.855,0.355,1.316,0.399l3.163,0.305c0.575,0.055,1.154-0.033,1.686-0.256l11.66-4.896&#10;&#9;&#9;&#9;&#9;c0.938-0.394,1.657-1.177,1.97-2.145l0,0C133.575,268.379,132.442,266.335,130.485,265.842z" transform="matrix(1, 0, 0, 1, 0, 0)"/><g transform="matrix(1, 0, 0, 1, 0, 0)">
			<path fill="#1C303E" d="M200.41,269.935l0.465,45.724h3.799c0,0-1.783-36.962-2.946-45.116"/>
		</g><path d="M 208.264999 281.222992 L 202.309006 288.434998 L 203.343002 290.631989 L 209.442001 281.222992" fill="#1C303E" transform="matrix(1, 0, 0, 1, 0, 0)"/><path fill="#1C303E" d="M206.529,284.262c0,0,3.619-0.462,4.135-1.041l0.684,0.3c0,0-3.056,2.366-4.82,2.245" transform="matrix(1, 0, 0, 1, 0, 0)"/><path fill="#1C303E" d="M200.993,282.635c0,0-4.782,0.3-7.133-0.754l-1.422,0.657c0,0,7.121,3.172,9.744,1.57" transform="matrix(1, 0, 0, 1, 0, 0)"/><path fill="#1C303E" d="M205.436,276.271L205.436,276.271c0.725-1.94,2.738-3.08,4.774-2.703l6.034,1.116&#10;&#9;&#9;&#9;&#9;c1.654,0.306,2.974,1.555,3.371,3.189l0.206,0.849c0.534,2.199-0.741,4.432-2.906,5.09l-1.795,0.546&#10;&#9;&#9;&#9;&#9;c-1.117,0.339-2.324,0.207-3.34-0.367l-4.445-2.511C205.507,280.447,204.701,278.237,205.436,276.271z" transform="matrix(1, 0, 0, 1, 0, 0)"/><path fill="#1C303E" d="M185.776,279.833l3.622-3.221c0.594-0.528,1.398-0.752,2.179-0.606l3.52,0.657&#10;&#9;&#9;&#9;&#9;c0.466,0.087,0.9,0.301,1.252,0.62l0,0c1.024,0.925,1.134,2.493,0.25,3.553l-1.646,1.973c-0.388,0.466-0.929,0.779-1.526,0.884&#10;&#9;&#9;&#9;&#9;l-5.026,0.888c-0.63,0.111-1.28-0.016-1.821-0.359l-0.47-0.297C184.666,283.011,184.499,280.968,185.776,279.833z" transform="matrix(1, 0, 0, 1, 0, 0)"/><path fill="#1C303E" d="M202.193,273.396c0,0,1.399-1.492,2.068-4.336l0.976-0.167c0,0-1.004,4.371-2.844,6.692" transform="matrix(1, 0, 0, 1, 0, 0)"/><path fill="#1C303E" d="M184.324,257.411l13.18-5.847c0.748-0.332,1.566-0.479,2.383-0.427l17.428,1.097&#10;&#9;&#9;&#9;&#9;c1.56,0.098,2.989,0.908,3.874,2.196l0.567,0.825c1.523,2.215,1.059,5.233-1.057,6.889l-8.736,6.838&#10;&#9;&#9;&#9;&#9;c-0.532,0.416-1.141,0.722-1.792,0.901l-4.469,1.224c-0.812,0.222-1.666,0.24-2.487,0.051l-17.97-4.138&#10;&#9;&#9;&#9;&#9;c-1.445-0.333-2.674-1.28-3.363-2.593l0,0C180.514,261.824,181.634,258.605,184.324,257.411z" transform="matrix(1, 0, 0, 1, 0, 0)"/><g transform="matrix(1, 0, 0, 1, 0, 0)">
			<path d="M 219.056 299.998993 L 219.304001 324.352997 L 221.957993 324.352997 L 220.332001 299.463013" fill="#1C303E"/>
		</g><path fill="#1C303E" d="M220.302,301.51c0,0,0.977-1.043,1.445-3.03l0.682-0.117c0,0-0.701,3.054-1.987,4.675" transform="matrix(1, 0, 0, 1, 0, 0)"/><path fill="#1C303E" d="M208.29,288.259l9.768-2.46c0.555-0.14,1.135-0.143,1.691-0.011l11.869,2.825&#10;&#9;&#9;&#9;&#9;c1.062,0.253,1.95,0.98,2.406,1.972l0.292,0.635c0.785,1.706,0.108,3.728-1.546,4.618l-6.827,3.67&#10;&#9;&#9;&#9;&#9;c-0.415,0.223-0.871,0.362-1.341,0.407l-3.222,0.312c-0.585,0.057-1.176-0.033-1.718-0.26l-11.88-4.983&#10;&#9;&#9;&#9;&#9;c-0.956-0.401-1.689-1.198-2.008-2.184l0,0C205.143,290.845,206.297,288.761,208.29,288.259z" transform="matrix(1, 0, 0, 1, 0, 0)"/><g transform="matrix(1, 0, 0, 1, 0, 0)">
			<path fill="#1C303E" d="M171.203,274.537l1.413,31.327l-2.601,0.144c0,0-0.179-25.378,0.309-31.005"/>
		</g><path fill="#1C303E" d="M171.285,283.256c0,0,3.286,0.025,4.856-0.786l0.999,0.396c0,0-4.756,2.441-6.613,1.444" transform="matrix(1, 0, 0, 1, 0, 0)"/><path fill="#1C303E" d="M181.598,280.76l-2.602-2.068c-0.426-0.339-0.986-0.462-1.515-0.332l-2.386,0.583&#10;&#9;&#9;&#9;&#9;c-0.316,0.077-0.605,0.241-0.834,0.472l0,0c-0.666,0.672-0.682,1.75-0.037,2.442l1.202,1.289&#10;&#9;&#9;&#9;&#9;c0.284,0.304,0.666,0.498,1.078,0.548l3.475,0.418c0.436,0.052,0.876-0.06,1.233-0.315l0.311-0.221&#10;&#9;&#9;&#9;&#9;C182.479,282.895,182.516,281.49,181.598,280.76z" transform="matrix(1, 0, 0, 1, 0, 0)"/><path fill="#1C303E" d="M182.913,263.365l-9.59-2.411c-0.545-0.137-1.114-0.14-1.66-0.01l-11.65,2.778&#10;&#9;&#9;&#9;&#9;c-1.043,0.249-1.914,0.963-2.361,1.937l-0.287,0.624c-0.77,1.675-0.104,3.66,1.52,4.532l6.703,3.6&#10;&#9;&#9;&#9;&#9;c0.408,0.219,0.855,0.355,1.316,0.399l3.163,0.305c0.575,0.055,1.154-0.033,1.686-0.256l11.66-4.896&#10;&#9;&#9;&#9;&#9;c0.938-0.394,1.657-1.177,1.97-2.145l0,0C186.003,265.901,184.87,263.857,182.913,263.365z" transform="matrix(1, 0, 0, 1, 0, 0)"/><g transform="matrix(1, 0, 0, 1, 0, 0)">
			<path fill="#1C303E" d="M599.12,282.555l0.615,60.475h5.025c0,0-2.359-48.887-3.897-59.672"/>
		</g><path d="M 609.51001 297.484985 L 601.630981 307.023987 L 602.999023 309.929993 L 611.067017 297.484985" fill="#1C303E" transform="matrix(1, 0, 0, 1, 0, 0)"/><path fill="#1C303E" d="M607.213,301.504c0,0,4.786-0.611,5.469-1.377l0.905,0.396c0,0-4.042,3.129-6.375,2.969" transform="matrix(1, 0, 0, 1, 0, 0)"/><path fill="#1C303E" d="M599.891,299.353c0,0-6.324,0.397-9.435-0.997l-1.881,0.869c0,0,9.418,4.195,12.888,2.076" transform="matrix(1, 0, 0, 1, 0, 0)"/><path fill="#1C303E" d="M605.768,290.935L605.768,290.935c0.958-2.566,3.621-4.074,6.314-3.575l7.981,1.477&#10;&#9;&#9;&#9;&#9;c2.187,0.405,3.933,2.056,4.458,4.218l0.273,1.123c0.706,2.908-0.98,5.862-3.844,6.732l-2.375,0.722&#10;&#9;&#9;&#9;&#9;c-1.477,0.449-3.073,0.273-4.417-0.486l-5.879-3.321C605.861,296.458,604.796,293.536,605.768,290.935z" transform="matrix(1, 0, 0, 1, 0, 0)"/><path fill="#1C303E" d="M579.765,295.646l4.791-4.26c0.785-0.698,1.849-0.994,2.882-0.801l4.656,0.869&#10;&#9;&#9;&#9;&#9;c0.617,0.115,1.19,0.399,1.656,0.819l0,0c1.354,1.224,1.5,3.298,0.331,4.699l-2.177,2.61c-0.514,0.616-1.229,1.03-2.018,1.17&#10;&#9;&#9;&#9;&#9;l-6.648,1.175c-0.834,0.147-1.693-0.022-2.408-0.475l-0.621-0.393C578.296,299.85,578.076,297.148,579.765,295.646z" transform="matrix(1, 0, 0, 1, 0, 0)"/><path fill="#1C303E" d="M601.479,287.133c0,0,1.851-1.974,2.736-5.735l1.291-0.221c0,0-1.328,5.781-3.762,8.851" transform="matrix(1, 0, 0, 1, 0, 0)"/><path fill="#1C303E" d="M577.844,265.991l17.432-7.733c0.99-0.439,2.071-0.633,3.152-0.565l23.051,1.451&#10;&#9;&#9;&#9;&#9;c2.064,0.13,3.953,1.201,5.124,2.905l0.75,1.091c2.014,2.93,1.401,6.921-1.398,9.112l-11.555,9.044&#10;&#9;&#9;&#9;&#9;c-0.703,0.55-1.509,0.955-2.37,1.191l-5.911,1.62c-1.074,0.294-2.204,0.318-3.289,0.068l-23.767-5.472&#10;&#9;&#9;&#9;&#9;c-1.912-0.44-3.536-1.692-4.448-3.429l0,0C572.805,271.828,574.286,267.569,577.844,265.991z" transform="matrix(1, 0, 0, 1, 0, 0)"/><g transform="matrix(1, 0, 0, 1, 0, 0)">
			<path d="M 623.781982 322.317993 L 624.109009 354.529999 L 627.619995 354.529999 L 625.469971 321.609985" fill="#1C303E"/>
		</g><path fill="#1C303E" d="M625.43,324.318c0,0,1.293-1.379,1.911-4.007l0.902-0.155c0,0-0.927,4.039-2.628,6.184" transform="matrix(1, 0, 0, 1, 0, 0)"/><path fill="#1C303E" d="M609.543,306.791l12.92-3.254c0.734-0.185,1.501-0.19,2.237-0.015l15.698,3.736&#10;&#9;&#9;&#9;&#9;c1.405,0.335,2.579,1.296,3.183,2.609l0.387,0.84c1.039,2.256,0.143,4.931-2.045,6.107l-9.029,4.855&#10;&#9;&#9;&#9;&#9;c-0.549,0.295-1.152,0.479-1.773,0.539l-4.262,0.413c-0.774,0.075-1.555-0.043-2.272-0.344l-15.713-6.59&#10;&#9;&#9;&#9;&#9;c-1.264-0.53-2.234-1.585-2.655-2.889l0,0C605.381,310.211,606.906,307.456,609.543,306.791z" transform="matrix(1, 0, 0, 1, 0, 0)"/><g transform="matrix(1, 0, 0, 1, 0, 0)">
			<path fill="#1C303E" d="M560.49,288.642l1.869,41.434l-3.441,0.19c0,0-0.237-33.565,0.408-41.009"/>
		</g><path fill="#1C303E" d="M560.598,300.174c0,0,4.346,0.032,6.423-1.04l1.321,0.524c0,0-6.29,3.229-8.747,1.91" transform="matrix(1, 0, 0, 1, 0, 0)"/><path fill="#1C303E" d="M574.239,296.873l-3.442-2.736c-0.564-0.448-1.304-0.611-2.004-0.44l-3.155,0.771&#10;&#9;&#9;&#9;&#9;c-0.418,0.102-0.8,0.318-1.103,0.624l0,0c-0.881,0.889-0.902,2.315-0.049,3.23l1.59,1.705c0.375,0.402,0.88,0.659,1.426,0.725&#10;&#9;&#9;&#9;&#9;l4.596,0.553c0.577,0.069,1.158-0.079,1.631-0.416l0.411-0.293C575.404,299.696,575.452,297.838,574.239,296.873z" transform="matrix(1, 0, 0, 1, 0, 0)"/><path fill="#1C303E" d="M575.978,273.865l-12.684-3.189c-0.72-0.181-1.474-0.186-2.196-0.013l-15.408,3.674&#10;&#9;&#9;&#9;&#9;c-1.379,0.329-2.531,1.274-3.123,2.562l-0.379,0.825c-1.018,2.215-0.138,4.841,2.01,5.994l8.865,4.762&#10;&#9;&#9;&#9;&#9;c0.539,0.29,1.131,0.469,1.741,0.528l4.184,0.404c0.76,0.073,1.526-0.043,2.23-0.339l15.422-6.476&#10;&#9;&#9;&#9;&#9;c1.24-0.521,2.192-1.557,2.605-2.837l0,0C580.065,277.22,578.567,274.516,575.978,273.865z" transform="matrix(1, 0, 0, 1, 0, 0)"/><g transform="matrix(1, 0, 0, 1, 0, 0)">
			<path fill="#1C303E" d="M419.754,296.345l0.615,60.475h5.025c0,0-2.359-48.887-3.897-59.672"/>
		</g><path d="M 430.144012 311.274994 L 422.266998 320.813995 L 423.634003 323.720001 L 431.701996 311.274994" fill="#1C303E" transform="matrix(1, 0, 0, 1, 0, 0)"/><path fill="#1C303E" d="M427.848,315.294c0,0,4.786-0.612,5.47-1.377l0.905,0.396c0,0-4.042,3.129-6.374,2.969" transform="matrix(1, 0, 0, 1, 0, 0)"/><path fill="#1C303E" d="M420.526,313.143c0,0-6.324,0.397-9.435-0.997l-1.881,0.869c0,0,9.418,4.195,12.889,2.076" transform="matrix(1, 0, 0, 1, 0, 0)"/><path fill="#1C303E" d="M426.402,304.725L426.402,304.725c0.958-2.566,3.621-4.074,6.314-3.575l7.981,1.477&#10;&#9;&#9;&#9;&#9;c2.187,0.405,3.933,2.057,4.458,4.218l0.273,1.123c0.706,2.908-0.98,5.862-3.844,6.732l-2.375,0.722&#10;&#9;&#9;&#9;&#9;c-1.477,0.449-3.073,0.273-4.417-0.486l-5.879-3.321C426.496,310.248,425.431,307.326,426.402,304.725z" transform="matrix(1, 0, 0, 1, 0, 0)"/><path fill="#1C303E" d="M400.4,309.436l4.791-4.26c0.785-0.698,1.849-0.994,2.882-0.801l4.656,0.869&#10;&#9;&#9;&#9;&#9;c0.617,0.115,1.19,0.399,1.656,0.82l0,0c1.354,1.223,1.5,3.298,0.331,4.699l-2.177,2.61c-0.514,0.616-1.229,1.03-2.019,1.17&#10;&#9;&#9;&#9;&#9;l-6.648,1.175c-0.834,0.147-1.693-0.022-2.408-0.475l-0.621-0.393C398.931,313.64,398.711,310.938,400.4,309.436z" transform="matrix(1, 0, 0, 1, 0, 0)"/><path fill="#1C303E" d="M422.114,300.922c0,0,1.851-1.974,2.736-5.735l1.291-0.221c0,0-1.328,5.781-3.762,8.851" transform="matrix(1, 0, 0, 1, 0, 0)"/><path fill="#1C303E" d="M398.479,279.781l17.432-7.733c0.99-0.439,2.071-0.633,3.152-0.565l23.051,1.451&#10;&#9;&#9;&#9;&#9;c2.064,0.13,3.953,1.201,5.124,2.905l0.75,1.091c2.014,2.93,1.401,6.921-1.398,9.112l-11.555,9.044&#10;&#9;&#9;&#9;&#9;c-0.703,0.55-1.509,0.955-2.37,1.191l-5.911,1.62c-1.074,0.294-2.204,0.317-3.289,0.068l-23.767-5.472&#10;&#9;&#9;&#9;&#9;c-1.912-0.44-3.536-1.692-4.448-3.429l0,0C393.44,285.617,394.921,281.359,398.479,279.781z" transform="matrix(1, 0, 0, 1, 0, 0)"/><g transform="matrix(1, 0, 0, 1, 0, 0)">
			<path d="M 450.450989 309.908997 L 450.778992 342.121002 L 454.290009 342.121002 L 452.140015 309.200989" fill="#1C303E"/>
		</g><path fill="#1C303E" d="M452.099,311.909c0,0,1.293-1.379,1.911-4.007l0.902-0.155c0,0-0.927,4.039-2.628,6.183" transform="matrix(1, 0, 0, 1, 0, 0)"/><path fill="#1C303E" d="M436.213,294.382l12.92-3.254c0.734-0.185,1.501-0.19,2.237-0.015l15.698,3.736&#10;&#9;&#9;&#9;&#9;c1.405,0.335,2.579,1.296,3.183,2.609l0.387,0.84c1.038,2.256,0.143,4.931-2.045,6.107l-9.029,4.855&#10;&#9;&#9;&#9;&#9;c-0.549,0.295-1.152,0.479-1.773,0.539l-4.262,0.413c-0.774,0.075-1.555-0.043-2.272-0.344l-15.713-6.59&#10;&#9;&#9;&#9;&#9;c-1.264-0.53-2.234-1.585-2.655-2.889l0,0C432.05,297.802,433.576,295.047,436.213,294.382z" transform="matrix(1, 0, 0, 1, 0, 0)"/><g transform="matrix(1, 0, 0, 1, 0, 0)">
			<path fill="#1C303E" d="M270.392,362.563l-0.566,55.611h-4.621c0,0,2.169-44.954,3.583-54.872"/>
		</g><path d="M 260.838013 376.291992 L 268.082001 385.062988 L 266.825012 387.735992 L 259.406006 376.291992" fill="#1C303E" transform="matrix(1, 0, 0, 1, 0, 0)"/><path fill="#1C303E" d="M262.95,379.988c0,0-4.401-0.562-5.03-1.266l-0.832,0.364c0,0,3.717,2.878,5.862,2.731" transform="matrix(1, 0, 0, 1, 0, 0)"/><path fill="#1C303E" d="M269.683,378.009c0,0,5.816,0.365,8.676-0.917l1.73,0.799c0,0-8.661,3.858-11.852,1.909" transform="matrix(1, 0, 0, 1, 0, 0)"/><path fill="#1C303E" d="M264.279,370.268L264.279,370.268c-0.881-2.36-3.33-3.746-5.806-3.288l-7.339,1.358&#10;&#9;&#9;&#9;&#9;c-2.012,0.372-3.617,1.891-4.1,3.879l-0.251,1.032c-0.649,2.674,0.901,5.391,3.535,6.191l2.184,0.664&#10;&#9;&#9;&#9;&#9;c1.358,0.413,2.826,0.251,4.062-0.447l5.407-3.054C264.193,375.347,265.173,372.66,264.279,370.268z" transform="matrix(1, 0, 0, 1, 0, 0)"/><path fill="#1C303E" d="M288.19,374.601l-4.405-3.918c-0.722-0.642-1.7-0.914-2.65-0.737l-4.281,0.799&#10;&#9;&#9;&#9;&#9;c-0.567,0.106-1.094,0.367-1.522,0.754l0,0c-1.245,1.125-1.379,3.032-0.305,4.321l2.002,2.4c0.472,0.566,1.13,0.947,1.856,1.076&#10;&#9;&#9;&#9;&#9;l6.113,1.08c0.767,0.135,1.557-0.02,2.215-0.436l0.572-0.362C289.54,378.466,289.743,375.982,288.19,374.601z" transform="matrix(1, 0, 0, 1, 0, 0)"/><path fill="#1C303E" d="M268.223,366.772c0,0-1.702-1.815-2.516-5.274l-1.187-0.203c0,0,1.221,5.316,3.459,8.139" transform="matrix(1, 0, 0, 1, 0, 0)"/><path fill="#1C303E" d="M289.172,356.822l-11.47-13.265c-0.651-0.753-1.475-1.338-2.401-1.705l-19.744-7.828&#10;&#9;&#9;&#9;&#9;c-1.768-0.701-3.759-0.55-5.401,0.408l-1.051,0.614c-2.823,1.648-3.878,5.208-2.408,8.128l6.067,12.052&#10;&#9;&#9;&#9;&#9;c0.369,0.733,0.881,1.386,1.505,1.92l4.282,3.664c0.778,0.666,1.709,1.128,2.709,1.345l21.916,4.763&#10;&#9;&#9;&#9;&#9;c1.763,0.383,3.605-0.022,5.044-1.109l0,0C291.076,363.652,291.513,359.53,289.172,356.822z" transform="matrix(1, 0, 0, 1, 0, 0)"/><g transform="matrix(1, 0, 0, 1, 0, 0)">
			<path fill="#1C303E" d="M352.481,359.065l-0.268,26.299h-2.185c0,0,1.026-21.259,1.695-25.949"/>
		</g><path d="M 347.963013 365.558014 L 351.389008 369.705994 L 350.794006 370.970001 L 347.286011 365.558014" fill="#1C303E" transform="matrix(1, 0, 0, 1, 0, 0)"/><path fill="#1C303E" d="M348.962,367.306c0,0-2.081-0.266-2.379-0.599l-0.393,0.172c0,0,1.758,1.361,2.772,1.291" transform="matrix(1, 0, 0, 1, 0, 0)"/><path fill="#1C303E" d="M352.146,366.37c0,0,2.75,0.173,4.103-0.434l0.818,0.378c0,0-4.096,1.824-5.605,0.903" transform="matrix(1, 0, 0, 1, 0, 0)"/><path fill="#1C303E" d="M349.59,362.709L349.59,362.709c-0.417-1.116-1.575-1.772-2.746-1.555l-3.471,0.642&#10;&#9;&#9;&#9;&#9;c-0.951,0.176-1.71,0.894-1.939,1.834l-0.119,0.488c-0.307,1.265,0.426,2.549,1.672,2.928l1.033,0.314&#10;&#9;&#9;&#9;&#9;c0.642,0.195,1.336,0.119,1.921-0.211l2.557-1.444C349.55,365.111,350.013,363.841,349.59,362.709z" transform="matrix(1, 0, 0, 1, 0, 0)"/><path fill="#1C303E" d="M360.898,364.758l-2.083-1.853c-0.341-0.304-0.804-0.432-1.253-0.349l-2.025,0.378&#10;&#9;&#9;&#9;&#9;c-0.268,0.05-0.517,0.173-0.72,0.356l0,0c-0.589,0.532-0.652,1.434-0.144,2.043l0.947,1.135c0.223,0.268,0.534,0.448,0.878,0.509&#10;&#9;&#9;&#9;&#9;l2.891,0.511c0.363,0.064,0.736-0.009,1.047-0.206l0.27-0.171C361.537,366.586,361.633,365.411,360.898,364.758z" transform="matrix(1, 0, 0, 1, 0, 0)"/><path fill="#1C303E" d="M351.456,361.056c0,0-0.805-0.858-1.19-2.494l-0.561-0.096c0,0,0.577,2.514,1.636,3.849" transform="matrix(1, 0, 0, 1, 0, 0)"/><path fill="#1C303E" d="M361.362,356.351l-5.424-6.273c-0.308-0.356-0.697-0.633-1.135-0.807l-9.337-3.702&#10;&#9;&#9;&#9;&#9;c-0.836-0.331-1.778-0.26-2.554,0.193l-0.497,0.29c-1.335,0.779-1.834,2.463-1.139,3.844l2.869,5.7&#10;&#9;&#9;&#9;&#9;c0.175,0.347,0.417,0.655,0.712,0.908l2.025,1.733c0.368,0.315,0.808,0.533,1.281,0.636l10.364,2.252&#10;&#9;&#9;&#9;&#9;c0.834,0.181,1.705-0.01,2.386-0.525l0,0C362.263,359.581,362.47,357.631,361.362,356.351z" transform="matrix(1, 0, 0, 1, 0, 0)"/><g transform="matrix(1, 0, 0, 1, 0, 0)">
			<path d="M 338.455994 371.450012 L 338.299011 386.917999 L 336.613007 386.917999 L 337.644989 371.109985" fill="#1C303E"/>
		</g><path fill="#1C303E" d="M337.665,372.41c0,0-0.621-0.662-0.918-1.924l-0.433-0.074c0,0,0.445,1.94,1.262,2.969" transform="matrix(1, 0, 0, 1, 0, 0)"/><path fill="#1C303E" d="M345.308,368.78l-4.185-4.84c-0.238-0.275-0.538-0.488-0.876-0.622l-7.203-2.856&#10;&#9;&#9;&#9;&#9;c-0.645-0.256-1.372-0.201-1.971,0.149l-0.384,0.224c-1.03,0.601-1.415,1.9-0.879,2.965l2.214,4.397&#10;&#9;&#9;&#9;&#9;c0.135,0.268,0.321,0.506,0.549,0.7l1.562,1.337c0.284,0.243,0.623,0.411,0.988,0.491l7.996,1.738&#10;&#9;&#9;&#9;&#9;c0.643,0.14,1.315-0.008,1.84-0.405l0,0C346.003,371.272,346.162,369.768,345.308,368.78z" transform="matrix(1, 0, 0, 1, 0, 0)"/><g transform="matrix(1, 0, 0, 1, 0, 0)">
			<path fill="#1C303E" d="M311.548,355.299l-1.719,38.101l3.164,0.175c0,0,0.217-30.865-0.376-37.71"/>
		</g><path fill="#1C303E" d="M311.449,365.903c0,0-3.996,0.03-5.906-0.956l-1.215,0.482c0,0,5.784,2.969,8.043,1.756" transform="matrix(1, 0, 0, 1, 0, 0)"/><path fill="#1C303E" d="M298.905,362.868l3.165-2.516c0.519-0.412,1.199-0.561,1.843-0.404l2.901,0.709&#10;&#9;&#9;&#9;&#9;c0.384,0.094,0.735,0.293,1.014,0.574l0,0c0.81,0.818,0.83,2.129,0.045,2.97l-1.462,1.568c-0.345,0.37-0.81,0.606-1.312,0.666&#10;&#9;&#9;&#9;&#9;l-4.227,0.508c-0.53,0.064-1.065-0.073-1.5-0.383l-0.378-0.269C297.834,365.464,297.789,363.755,298.905,362.868z" transform="matrix(1, 0, 0, 1, 0, 0)"/><path fill="#1C303E" d="M297.306,341.711l11.663-2.932c0.662-0.167,1.355-0.171,2.02-0.012l14.168,3.378&#10;&#9;&#9;&#9;&#9;c1.268,0.303,2.327,1.171,2.872,2.356l0.349,0.759c0.936,2.037,0.127,4.451-1.848,5.512l-8.152,4.379&#10;&#9;&#9;&#9;&#9;c-0.496,0.266-1.04,0.431-1.601,0.486l-3.847,0.371c-0.699,0.067-1.404-0.04-2.051-0.311l-14.181-5.955&#10;&#9;&#9;&#9;&#9;c-1.141-0.479-2.016-1.432-2.396-2.609l0,0C293.547,344.796,294.925,342.309,297.306,341.711z" transform="matrix(1, 0, 0, 1, 0, 0)"/>
<g transform="matrix(1, 0, 0, 1, 0, 0)">
		<path d="M 296.0270080566406 602.1500244140625 L 299.23199462890625 589.5360107421875 L 253.34300231933594 598.5070190429688 Z" fill="#FFDDAC"/>
		<path d="M 278.427001953125 495.6990051269531 L 252.1999969482422 598.4099731445312 L 253.34300231933594 598.5070190429688 L 299.23199462890625 589.5360107421875 L 320.70599365234375 505.02801513671875 Z" fill="#FDCA95"/>
		<g>
			<path d="M 278.427002 495.699005 L 204.507996 592.906006 L 252.199997 598.409973 L 278.427002 495.699005 L 342.73999 602.70697 L 296.027008 602.150024" fill="#F58132"/>
		</g>
		<path d="M 253.15499877929688 598.4099731445312 L 278.427001953125 495.6990051269531 L 238.01199340820312 599.9550170898438 Z" fill="#B25E1F"/>
		<path d="M 309.3630065917969 605.6909790039062 L 278.427001953125 495.6990051269531 L 296.0270080566406 602.1500244140625 Z" fill="#B25E1F"/>
		<g>
			<g>
				<path d="M 495.14599609375 600.8519897460938 L 499.98699951171875 591.0070190429688 L 497.0780029296875 589.8289794921875 L 493.74700927734375 600.2899780273438 Z" fill="#1D1D1B"/>
			</g>
		</g>
		<g>
			<g>
				<path d="M 363.1650085449219 620.2109985351562 L 368.0060119628906 610.3660278320312 L 365.09698486328125 609.18701171875 L 361.7659912109375 619.6480102539062 Z" fill="#1D1D1B"/>
			</g>
		</g>
		<g>
			<g>
				<path d="M 188.32200622558594 592.5 L 183.4810028076172 582.655029296875 L 186.38999938964844 581.4769897460938 L 189.7209930419922 591.93798828125 Z" fill="#1D1D1B"/>
			</g>
		</g>
		<g>
			<g>
				<path d="M 498.15899658203125 594.5029907226562 L 498.9580078125 593.1010131835938 L 457.7070007324219 555.3359985351562 L 455.8389892578125 557.0750122070312 Z" fill="#8393AB"/>
			</g>
		</g>
		<g>
			<g>
				<path d="M 221.841995 570.41803 L 194.244003 603.065979" fill="#38526E"/>
			</g>
			<g>
				<path d="M 185.19700622558594 586.1300048828125 L 277.0570068359375 497.5610046386719 L 278.427001953125 495.6990051269531 L 184.49099731445312 584.8800048828125 Z" fill="#38526E"/>
			</g>
		</g>
		<path d="M 252.1999969482422 598.4099731445312 L 149.49600219726562 640.10400390625 L 268.1830139160156 639.3660278320312 L 296.0270080566406 602.1500244140625 Z" fill="#FFDDAC"/>
		<g>
			<path d="M 278.427002 495.699005 L 397.47699 493.503998 L 493.242004 589.203979 L 342.73999 602.70697" fill="#FAAB42"/>
		</g>
		<g>
			<g>
				<path d="M 366.3909912109375 613.6489868164062 L 367.10400390625 612.31201171875 L 278.427001953125 495.6990051269531 L 279.9460144042969 498.2349853515625 Z" fill="#38526E"/>
			</g>
		</g>
	</g>
</svg>