<?xml version="1.0" encoding="utf-8"?>
<svg id="master-artboard" viewBox="0 0 720 503.999" version="1.1" xmlns="http://www.w3.org/2000/svg" x="0px" y="0px" enable-background="new 0 0 720 503.999" width="720px" height="503.9989929199219px">
<symbol id="New_Symbol" viewBox="-0.763 -0.763 1.526 1.525">
	<path fill="#FFFFFF" d="M0.763-0.001c0-0.421-0.342-0.762-0.763-0.762s-0.763,0.341-0.763,0.762S-0.421,0.763,0,0.763&#10;&#9;&#9;S0.763,0.42,0.763-0.001z"/>
</symbol>
<linearGradient id="SVGID_1_" gradientUnits="userSpaceOnUse" x1="359.7989" y1="0.9021" x2="359.7989" y2="503.0969">
		<stop offset="0.0665" style="stop-color:#FAF0DD"/>
		<stop offset="0.3075" style="stop-color:#F2E2D1"/>
		<stop offset="0.564" style="stop-color:#ECC5C7"/>
		<stop offset="0.9951" style="stop-color:#ECC4C7"/>
	</linearGradient><path d="M 0.023 0.902 H 719.574025 V 503.097007 H 0.023 V 0.902 Z" fill="url(#SVGID_1_)" transform="matrix(1, 0, 0, 1, 0, 0)"/><path d="M 0 304.9330139160156 L 138.84500122070312 258.85699462890625 L 271.37799072265625 334.1789855957031 L 414.3999938964844 257.5369873046875 L 524.0029907226562 327.6629943847656 L 624.1539916992188 255.33299255371094 L 720 319.2860107421875 L 720 357.0329895019531 L 0 357.0329895019531 Z" fill="#848FA5" transform="matrix(1, 0, 0, 1, 0, 0)"/><path d="M 123.7040023803711 314.1910095214844 L 0 337.9419860839844 L 0 358.7030029296875 L 296.1910095214844 358.2590026855469 Z" fill="#4C5269" transform="matrix(1, 0, 0, 1, 0, 0)"/><path d="M 377 327 L 260.5849914550781 349.1619873046875 L 292.9010009765625 357.45001220703125 L 544.2059936523438 357.2539978027344 Z" fill="#4C5269" transform="matrix(1, 0, 0, 1, 0, 0)"/><path d="M 0 358.7030029296875 L 720 357.5889892578125 L 720 383.072998046875 L 597.3330078125 419.3330078125 L 361.6669921875 439.6390075683594 L 84.64800262451172 426.385986328125 L 0.023000001907348633 390.2239990234375 Z" fill="#B1C9D5" transform="matrix(1, 0, 0, 1, 0, 0)"/><path fill="#7795AC" d="M0.023,356.959l366.711,1.112l5.992-0.013L720,357.033v8.222c0,0-189.135-3.45-213.541-3.998&#10;&#9;&#9;c-24.406-0.548-346.792-0.71-348.87,0c-2.077,0.71-157.566,5.124-157.566,5.124V356.959z" transform="matrix(1, 0, 0, 1, 0, 0)"/><path d="M 0 375.2239990234375 L 84.64800262451172 411.385986328125 L 361.3529968261719 436.7909851074219 L 597.1069946289062 417.54998779296875 L 720 383.072998046875 L 719.7639770507812 377.781005859375 L 594.6669921875 413.6669921875 L 362.12799072265625 425.7380065917969 L 90.66699981689453 405.94500732421875 Z" fill="#9AB3CD" transform="matrix(1, 0, 0, 1, 0, 0)"/><path fill="#3F2C36" d="M0.023,358.543c0.174-0.172-0.204-13.106,0.143-12.876c0.348,0.23,4.949,4.844,4.949,4.844l0,0l4.863-7.983&#10;&#9;&#9;l1.737,2.873l1.563-0.116c0,0,1.215,3.503,1.215,3.617c0,0.115,0.869-1.607,0.869-1.607l1.563,1.78l1.215-2.009l1.216,1.32&#10;&#9;&#9;l3.821-7.982l2.431,6.547l5.978-12.552l7.048,6.694l1.737-2.814l1.215,4.135l1.737-2.699l2.605,4.594l2.605-6.661l1.216,7.981&#10;&#9;&#9;l2.084-2.584l2.258,2.01l2.778-7.695l3.3,7.293l2.604-3.847l2.952,4.364l1.216-2.009l1.216,2.527l1.389-2.412l1.042,2.067&#10;&#9;&#9;l1.563-3.274l1.563,3.388c0,0,1.91-1.32,2.083-1.148c0.174,0.172,3.822,5.283,3.822,5.283l1.562-1.896c0,0,2.259,3.101,2.259,3.217&#10;&#9;&#9;c0,0.114,2.605-3.331,2.084-3.217l1.91,1.609l1.389-3.677l1.91,2.585l1.737-1.953l1.042,1.953l1.736-5.628l2.952,6.145&#10;&#9;&#9;c0,0,1.564-2.297,1.911-2.124c0.347,0.172,2.084,4.077,2.084,4.077l1.564-1.666l0.867,2.642l1.389-1.608l1.738,3.849l1.737-0.862&#10;&#9;&#9;l1.563,0.688l1.389-4.881l2.431,2.297l2.084-8.383l2.084,4.478l1.912-2.698l2.431,4.822l1.388-1.089l2.084,2.124l1.496,8.134&#10;&#9;&#9;L0.023,358.543z" transform="matrix(1, 0, 0, 1, 0, 0)"/><path fill="#3F2C36" d="M126.892,358.472c0.174-0.173,3.647-10.625,3.995-10.394c0.347,0.229,2.084,4.135,2.084,4.135l0,0&#10;&#9;&#9;l4.863-7.983l1.737,2.872l1.562-0.115c0,0,1.216,3.502,1.216,3.618c0,0.114,0.869-1.608,0.869-1.608l1.563,1.78l1.215-2.01&#10;&#9;&#9;l1.216,1.321l3.821-7.982l6.8,7.541l5.487-13.723l3.169,6.872l1.738-2.816l1.214,4.136l1.737-2.7l2.605,4.595l2.605-6.661&#10;&#9;&#9;l1.216,7.981l2.083-2.584l2.258,2.01l2.779-7.695l3.299,7.293l2.605-3.849l2.952,4.365l1.216-2.009l1.216,2.527l1.389-2.411&#10;&#9;&#9;l1.041,2.067l1.564-3.273l1.564,3.387c0,0,1.91-1.321,2.082-1.148c0.176,0.171,3.822,5.282,3.822,5.282l1.563-1.895&#10;&#9;&#9;c0,0,2.259,3.101,2.259,3.217c0,0.114,2.603-3.331,2.082-3.217l1.912,1.608l1.389-3.675l1.909,2.585l1.737-1.952l1.042,1.952&#10;&#9;&#9;l1.737-5.628l2.951,6.144c0,0,1.564-2.298,1.912-2.124c0.348,0.172,2.082,4.078,2.082,4.078l1.566-1.666l0.866,2.643l1.389-1.609&#10;&#9;&#9;l1.738,3.848l1.735-0.862l1.564,0.691l1.389-4.882l2.43,2.299l2.085-8.386l2.084,4.479l1.912-2.699l2.431,4.823l1.388-1.091&#10;&#9;&#9;l2.084,2.124l2.109,6.446L126.892,358.472z" transform="matrix(1, 0, 0, 1, 0, 0)"/><path d="M 0 375.2239990234375 L 84.64800262451172 411.385986328125 L 360 435.31500244140625 L 597.1069946289062 417.54998779296875 L 720 383.072998046875 L 720 504.05499267578125 L 0 504.05499267578125 Z" fill="#252E34" transform="matrix(1, 0, 0, 1, 0, 0)"/><path d="M 414.3999938964844 257.7380065917969 L 413.09100341796875 265.9200134277344 L 421.4280090332031 273.6289978027344 L 413.09100341796875 273.6289978027344 L 413.09100341796875 282.2349853515625 L 407.83599853515625 285.1919860839844 L 434.5260009765625 307.1499938964844 L 471.39599609375 338.6919860839844 L 571.7039794921875 354.0669860839844 L 559.93798828125 337.6099853515625 Z" fill="#A7A5B0" transform="matrix(1, 0, 0, 1, 0, 0)"/><path d="M 624.27099609375 255.16400146484375 L 623.3250122070312 263.34600830078125 L 629.3480224609375 271.05499267578125 L 623.3250122070312 271.05499267578125 L 623.3250122070312 279.6610107421875 L 619.5280151367188 282.6180114746094 L 679.0689697265625 347.92498779296875 L 719.573974609375 356.6409912109375 L 719.573974609375 318.8940124511719 Z" fill="#A7A5B0" transform="matrix(1, 0, 0, 1, 0, 0)"/><path d="M 551.666015625 329.9939880371094 L 449.1369934082031 343.0660095214844 L 467.7409973144531 357.45001220703125 L 719.7639770507812 357.00201416015625 Z" fill="#4C5269" transform="matrix(1, 0, 0, 1, 0, 0)"/><path d="M 249.71400451660156 351.36700439453125 L 255.927001953125 354.2659912109375 L 259.0690002441406 351.8760070800781 L 260.7929992675781 354.2659912109375 L 262.5159912109375 352.2560119628906 L 264.5429992675781 354.2659912109375 L 266.1650085449219 349.7560119628906 L 268.79998779296875 354.53399658203125 L 271.3340148925781 352.364990234375 L 273.6659851074219 354.53399658203125 L 275.8970031738281 349.375 L 278.5320129394531 354.864990234375 L 283.4620056152344 353.75201416015625 L 287.656005859375 354.864990234375 L 289.9880065917969 353.885986328125 L 293.4330139160156 355.96600341796875 L 297.8949890136719 357.093994140625 L 300.72198486328125 358.760009765625 L 249.71600341796875 358.5880126953125 Z" fill="#3F2C36" transform="matrix(1, 0, 0, 1, 0, 0)"/><path opacity="0.75" fill="#9AB3C7" d="M390.054,393.785c3.478,0.079,6.03-2.188,0.459-2.451&#10;&#9;&#9;c-5.571-0.262-36.422-2.308-36.422-2.308s42.203-2.225,44.093-2.225c1.686,0-1.614-3.342-7.467-3.677&#10;&#9;&#9;c-12.478-0.714-12.439-0.712-49.301-2.823c0,0,29.1-3.91,33.796-3.492c5.059,0.451-38.02-4.072-38.02-4.072l34.319-3.358&#10;&#9;&#9;l-30.623-4.787l53.273-8.433l-28.277,0.59l-85.728,4.535l29.05,5.636l-65.76-1.558l25.447,4.018l-127.081,5.103l90.79,5.021&#10;&#9;&#9;c0,0-74.501,2.779-72.917,4.788c1.662,2.103,55.168,5.878,45.943,4.929c0,0,34.404,2.501,17.289,3.414&#10;&#9;&#9;c-34.627,1.845-107.15-0.847-102.245,0.917c7.33,2.636,99.096,5.172,99.096,5.172s-51.636,6.855-43.713,6.861&#10;&#9;&#9;c7.923,0.005,55.612,6.749,55.612,6.749L213,421.38l73.398,7.539l99.943-4.437L349,412c0,0,36.348-6.973,40.899-7.36&#10;&#9;&#9;c4.552-0.388,5.265-2.65-1.841-2.918c-7.107-0.27-49.362-7.082-49.362-7.082S386.574,393.706,390.054,393.785z" transform="matrix(1, 0, 0, 1, 0, 0)"/><path fill="#F88063" d="M324.129,388.129c-0.086,0.012-0.194,0.163-0.062,0.396c0.005,0.008,0.009,0.015,0.014,0.023&#10;&#9;&#9;c0.021-0.036,0.032-0.064,0.048-0.095C324.129,388.346,324.129,388.241,324.129,388.129z" transform="matrix(1, 0, 0, 1, 0, 0)"/><path fill="#F88063" d="M324.129,388.129c0,0.112,0,0.216,0,0.324C324.242,388.215,324.201,388.12,324.129,388.129z" transform="matrix(1, 0, 0, 1, 0, 0)"/><path fill="#3F2C36" d="M344.275,358.262c0.174-0.172,1.452-12.676,1.799-12.446c0.348,0.23,2.084,4.135,2.084,4.135l0,0&#10;&#9;&#9;l4.864-7.983l1.737,2.873l1.563-0.116c0,0,1.215,3.503,1.215,3.617c0,0.115,0.869-1.607,0.869-1.607l1.564,1.78l1.214-2.009&#10;&#9;&#9;l1.216,1.32l3.822-7.982l2.504,8.915l3.894-4.444l2.432,3.067l4.167-10.601l1.985,5.395l2.21-4.457l1.215,4.135l1.737-2.699&#10;&#9;&#9;l2.605,4.594l2.606-6.661l1.216,7.981l2.084-2.584l2.258,2.01l2.778-7.695l3.301,7.293l2.604-3.847l2.951,4.364l1.216-2.009&#10;&#9;&#9;l1.216,2.527l1.388-2.411l1.042,2.067l1.564-3.274l1.564,3.388c0,0,1.909-1.32,2.082-1.148c0.174,0.172,3.822,5.283,3.822,5.283&#10;&#9;&#9;l1.563-1.896c0,0,2.258,3.101,2.258,3.217c0,0.114,2.604-3.331,2.084-3.217l1.912,1.609l1.388-3.676l1.91,2.585l1.736-1.953&#10;&#9;&#9;l1.043,1.953l1.736-5.628l2.952,6.145c0,0,1.564-2.298,1.91-2.124c0.348,0.172,2.084,4.077,2.084,4.077l1.565-1.666l0.867,2.642&#10;&#9;&#9;l1.389-1.608l1.738,3.849l1.736-0.862l1.563,0.688l1.389-4.881l2.43,2.298l2.085-8.383l2.084,4.478l1.912-2.697l2.431,4.822&#10;&#9;&#9;l1.388-1.089l2.084,2.124l1.496,8.134L344.275,358.262z" transform="matrix(1, 0, 0, 1, 0, 0)"/><path fill="#F88063" d="M324.081,388.549c0.015,0.029,0.031,0.057,0.048,0.085c0-0.059,0-0.12,0-0.18&#10;&#9;&#9;C324.113,388.485,324.102,388.513,324.081,388.549z" transform="matrix(1, 0, 0, 1, 0, 0)"/><path fill="#3F2C36" d="M612.216,357.603c0.147-0.186,2.236-13.404,2.527-13.155c0.292,0.249,1.75,4.471,1.75,4.471l0,0&#10;&#9;&#9;l4.085-8.632l1.459,3.106l1.312-0.126c0,0,1.021,3.788,1.021,3.911c0,0.125,0.729-1.737,0.729-1.737l1.313,1.925l1.02-2.173&#10;&#9;&#9;l1.021,1.428l3.21-8.631l2.103,9.639l3.271-4.805l2.043,3.316l3.5-11.462l1.667,5.833l1.856-4.818l1.021,4.471l1.459-2.918&#10;&#9;&#9;l2.188,4.967l2.189-7.202l1.021,8.629l1.75-2.793l1.896,2.174l2.333-8.32l2.772,7.885l2.188-4.16l2.479,4.719l1.021-2.173&#10;&#9;&#9;l1.021,2.732l1.166-2.607l0.875,2.235l1.314-3.541l1.313,3.664c0,0,1.604-1.427,1.749-1.241c0.146,0.186,3.21,5.713,3.21,5.713&#10;&#9;&#9;l1.312-2.051c0,0,1.896,3.354,1.896,3.479c0,0.123,2.188-3.602,1.75-3.479l1.605,1.74l1.166-3.976l1.604,2.795l1.458-2.112&#10;&#9;&#9;l0.876,2.112l1.458-6.085l2.479,6.645c0,0,1.314-2.484,1.605-2.297c0.292,0.185,1.75,4.407,1.75,4.407l1.314-1.801l0.729,2.856&#10;&#9;&#9;l1.167-1.739l1.46,4.161l1.458-0.932l1.312,0.744l1.167-5.277l2.041,2.484l1.751-9.065l1.75,4.842l1.606-2.917l2.042,5.214&#10;&#9;&#9;l1.166-1.179l3.007,2.337v8.756L612.216,357.603z" transform="matrix(1, 0, 0, 1, 0, 0)"/><path fill="#A7A5B0" d="M138.773,258.922l-2.044,7.938l-6.35,3.175l-5.464,8.731l5.464,3.175c0,0-47.598,39.196-45.225,39.196&#10;&#9;&#9;c2.373,0,38.55-6.946,38.55-6.946L256.822,348.2l14.556-14.021L138.773,258.922z" transform="matrix(1, 0, 0, 1, 0, 0)"/><path fill="#3F2C36" d="M290.193,351.29l6.212,2.9l3.142-2.392l1.724,2.392l1.723-2.011l2.028,2.011l1.623-4.512l2.635,4.779&#10;&#9;&#9;l2.535-2.168l2.331,2.168l2.229-5.159l2.637,5.49l4.928-1.113l4.195,1.113l2.331-0.978l5.287-2.107c0,0,4.228-0.649,6.089,0.878&#10;&#9;&#9;c1.862,1.527,3.308,5.668,3.308,5.668l-54.46,0.589L290.193,351.29z" transform="matrix(1, 0, 0, 1, 0, 0)"/><path fill="#304851" d="M19.137,364.423l3.951-0.781c0,0-0.124,26.07,0,25.458c0.03-0.144-5.194-0.868-5.194-0.868L19.137,364.423&#10;&#9;&#9;&#9;z" transform="matrix(1, 0, 0, 1, 0, 0)"/><path d="M 29.47800064086914 312.3500061035156 L 25.9010009765625 317.0199890136719 L 20.384000778198242 319.63800048828125 L 17.812000274658203 263.8210144042969 Z" fill="#304851" transform="matrix(1, 0, 0, 1, 0, 0)"/><path d="M 15.270000457763672 412.6080017089844 L 0.25 414.0899963378906 L 0.25 425.4219970703125 L 36.96900177001953 414.9779968261719 Z" opacity="0.85" fill="#211A1E" transform="matrix(1, 0, 0, 1, 0, 0)"/><path fill="#121E26" d="M12.902,317.054l-8.183,33.629l3.707,3.862l0.104-0.108c1.938-12.363,5.476-24.177,5.822-36.509&#10;&#9;&#9;&#9;L12.902,317.054z" transform="matrix(1, 0, 0, 1, 0, 0)"/><path d="M 21.983999252319336 318.0159912109375 L 13.753999710083008 320.5480041503906 L 8.529999732971191 354.4570007324219 L 21.7189998626709 340.90899658203125 Z" fill="#1C2A35" transform="matrix(1, 0, 0, 1, 0, 0)"/><path d="M 21.7189998626709 340.90899658203125 L 31.937000274658203 346.71600341796875 L 33.74399948120117 345.8009948730469 L 26.382999420166016 316.3240051269531 L 21.7189998626709 317.99700927734375 Z" fill="#304851" transform="matrix(1, 0, 0, 1, 0, 0)"/><path d="M 29.47800064086914 312.3500061035156 L 25.854000091552734 315.4049987792969 L 21.983999252319336 317.99700927734375 L 13.940000534057617 320.5830078125 L 10.065999984741211 319.4519958496094 L 11.765999794006348 321.8500061035156 L 13.753999710083008 323.0270080566406 L 26.680999755859375 317.5169982910156 Z" fill="#121D21" transform="matrix(1, 0, 0, 1, 0, 0)"/><path fill="#304851" d="M22.863,388.85l11.933,6.282c-0.075-0.612-2.339-27.624-1.454-27.408l-11.357-4.082L22.863,388.85z" transform="matrix(1, 0, 0, 1, 0, 0)"/><path d="M 33.13399887084961 393.9110107421875 L 35.38100051879883 415.3009948730469 L 20.281999588012695 417.6809997558594 L 17.89299964904785 387.8869934082031 L 22.863000869750977 388.5050048828125 Z" fill="#304851" transform="matrix(1, 0, 0, 1, 0, 0)"/><path fill="#1C2A35" d="M23.808,389.11c0,0-22.108,2.406-22.664,2.543c0,0-0.373,1.958-0.894,4.708v18.161l20.032,3.159&#10;&#9;&#9;&#9;L23.808,389.11z" transform="matrix(1, 0, 0, 1, 0, 0)"/><path d="M 17.812000274658203 263.8210144042969 L 10.065999984741211 319.4519958496094 L 13.753999710083008 320.52899169921875 L 17.954999923706055 265.6709899902344 Z" fill="#121E26" transform="matrix(1, 0, 0, 1, 0, 0)"/><path fill="#1C2A35" d="M21.984,317.997l-4.03-52.326c-1.821,18.287-3.56,36.572-4.201,54.858l0.186,0.054L21.984,317.997z" transform="matrix(1, 0, 0, 1, 0, 0)"/><path d="M 33.13399887084961 394.2560119628906 L 35.38100051879883 415.3009948730469 L 40.04399871826172 410.1340026855469 L 37.26900100708008 396.8030090332031 L 34.814998626708984 394.8840026855469 Z" fill="#526F73" transform="matrix(1, 0, 0, 1, 0, 0)"/><path d="M 33.13399887084961 394.2560119628906 L 23.808000564575195 389.1099853515625 L 17.89299964904785 388.23199462890625 L 0.25 389.3089904785156 L 0.25 393.3630065917969 L 17.488000869750977 392.00799560546875 L 23.474000930786133 392.51800537109375 L 33.393001556396484 396.26800537109375 L 37.26900100708008 396.8030090332031 L 38.6619987487793 392.51800537109375 Z" fill="#121D21" transform="matrix(1, 0, 0, 1, 0, 0)"/><path d="M 32.233001708984375 369.343994140625 L 33.13399887084961 393.9110107421875 L 38.6619987487793 392.51800537109375 L 33.72700119018555 370.0159912109375 Z" fill="#526F73" transform="matrix(1, 0, 0, 1, 0, 0)"/><path d="M 6.118000030517578 352.72601318359375 L 1.1440000534057617 367.1570129394531 L 7.09499979019165 367.7229919433594 L 8.779999732971191 354.7439880371094 Z" fill="#121E26" transform="matrix(1, 0, 0, 1, 0, 0)"/><path d="M 23.808000564575195 389.1099853515625 L 1.2120000123977661 390.25 L 7.09499979019165 367.7229919433594 L 21.983999252319336 364.73199462890625 Z" fill="#1C2A35" transform="matrix(1, 0, 0, 1, 0, 0)"/><path fill="#1C2A35" d="M21.863,341.01l-12.501,9.245c-0.075-0.238-2.268,17.469-2.268,17.469l14.89-4.082L21.863,341.01z" transform="matrix(1, 0, 0, 1, 0, 0)"/><path d="M 25.7189998626709 317.927001953125 L 31.992000579833984 346.9739990234375 L 33.74399948120117 345.8009948730469 L 26.680999755859375 317.5169982910156 Z" fill="#526F73" transform="matrix(1, 0, 0, 1, 0, 0)"/><path d="M 18.58300018310547 267.0260009765625 L 25.854000091552734 315.4049987792969 L 29.47800064086914 312.3500061035156 L 17.974000930786133 264.4949951171875 Z" fill="#526F73" transform="matrix(1, 0, 0, 1, 0, 0)"/><path d="M 4.718999862670898 350.6830139160156 L 8.529999732971191 354.4570007324219 L 21.7189998626709 340.90899658203125 L 31.937000274658203 346.71600341796875 L 33.74399948120117 345.8009948730469 L 32.78099822998047 349.1659851074219 L 21.863000869750977 342.9129943847656 L 8.41100025177002 357.239013671875 L 5.38700008392334 354.843994140625 Z" fill="#121D21" transform="matrix(1, 0, 0, 1, 0, 0)"/><path d="M 7.09499979019165 367.7229919433594 L 4.060999870300293 368.2900085449219 L 0.25 377.16900634765625 L 0.25 390.156005859375 L 1.2120000123977661 390.25 Z" fill="#121E26" transform="matrix(1, 0, 0, 1, 0, 0)"/><path d="M 0.25 393.02301025390625 L 0.25 396.7929992675781 L 0.9860000014305115 392.85400390625 Z" fill="#121E26" transform="matrix(1, 0, 0, 1, 0, 0)"/><path d="M 1.1440000534057617 367.1570129394531 L 6.9070000648498535 367.6789855957031 L 21.983999252319336 363.6419982910156 L 37.52899932861328 365.9259948730469 L 33.72700119018555 370.0159912109375 L 21.983999252319336 364.73199462890625 L 6.702000141143799 369.3269958496094 Z" fill="#121D21" transform="matrix(1, 0, 0, 1, 0, 0)"/><path d="M 21.863000869750977 342.9129943847656 L 22.027999877929688 363.6419982910156 L 33.38600158691406 367.7229919433594 L 37.571998596191406 365.9259948730469 L 32.63999938964844 348.40899658203125 Z" fill="#304851" transform="matrix(1, 0, 0, 1, 0, 0)"/><path d="M 30.961000442504883 347.5769958496094 L 33.38600158691406 367.7229919433594 L 37.571998596191406 365.9259948730469 L 32.805999755859375 348.52301025390625 Z" fill="#526F73" transform="matrix(1, 0, 0, 1, 0, 0)"/><path d="M 167.1199951171875 478.2200012207031 L 147.70199584960938 480.135986328125 L 144.7519989013672 474.5450134277344 L 28.773000717163086 503.8819885253906 L 117.12699890136719 504 L 186.7050018310547 485.13800048828125 L 190.63999938964844 476.26800537109375 Z" opacity="0.85" fill="#211A1E" transform="matrix(1, 0, 0, 1, 0, 0)"/><path fill="#3F2C36" d="M469.063,350.38l6.212,2.9l3.142-2.392l1.724,2.392l1.723-2.011l2.028,2.011l1.623-4.513l2.635,4.779&#10;&#9;&#9;l2.535-2.168l2.331,2.168l2.229-5.159l2.637,5.49l4.928-1.113l4.195,1.113l2.331-0.978l5.287-2.107c0,0,4.228-0.649,6.089,0.878&#10;&#9;&#9;c1.862,1.527,4.205,6.156,4.205,6.156l-55.356,0.102L469.063,350.38z" transform="matrix(1, 0, 0, 1, 0, 0)"/><path fill="#3F2C36" d="M518.667,357.857c0.134-0.173,2.797-10.625,3.064-10.394c0.266,0.229,1.599,4.135,1.599,4.135l0,0&#10;&#9;&#9;l3.73-7.983l1.332,2.872l1.198-0.115c0,0,0.932,3.502,0.932,3.618c0,0.114,0.666-1.608,0.666-1.608l1.199,1.78l0.932-2.01&#10;&#9;&#9;l0.932,1.321l2.931-7.982l5.216,7.541l4.208-13.723l2.431,6.872l1.333-2.816l0.932,4.136l1.332-2.7l1.998,4.595l1.998-6.661&#10;&#9;&#9;l0.933,7.981l1.598-2.584l1.732,2.01l2.132-7.695l2.531,7.293l1.998-3.849l2.264,4.365l0.933-2.009l0.933,2.527l1.066-2.412&#10;&#9;&#9;l0.798,2.067l1.199-3.273l1.2,3.387c0,0,1.465-1.321,1.597-1.148c0.135,0.171,2.931,5.282,2.931,5.282l1.199-1.895&#10;&#9;&#9;c0,0,1.733,3.101,1.733,3.217c0,0.114,1.997-3.331,1.597-3.217l1.466,1.608l1.066-3.675l1.464,2.585l1.332-1.952l0.799,1.952&#10;&#9;&#9;l1.332-5.628l2.263,6.144c0,0,1.2-2.298,1.466-2.124c0.267,0.172,1.597,4.078,1.597,4.078l1.201-1.666l0.664,2.643l1.066-1.609&#10;&#9;&#9;l1.333,3.848l1.331-0.862l1.199,0.691l1.066-4.882l1.864,2.299l1.599-8.386l1.598,4.479l1.466-2.699l1.865,4.823l1.065-1.091&#10;&#9;&#9;l1.598,2.124l1.618,6.446L518.667,357.857z" transform="matrix(1, 0, 0, 1, 0, 0)"/><g transform="matrix(1, 0, 0, 1, 0, 0)">
			<path fill="#141013" d="M96.527,504.117c0,0-0.035,0.02-0.085,0.049h0.084L96.527,504.117z"/>
			<path fill="#141013" d="M94.943,501.803l0.203-0.365l-0.892-3.078c-2.549,0.869-5.478,3.4-7.849,5.807h2.604&#10;&#9;&#9;&#9;&#9;C92.369,501.66,94.943,501.803,94.943,501.803z"/>
			<path d="M 93.79000091552734 497.33599853515625 L 93.3759994506836 495.6709899902344 L 74.43000030517578 504.1669921875 L 78.89199829101562 504.1669921875 Z" fill="#141013"/>
			<path fill="#141013" d="M92.207,493.299l-1.519-2.087c0,0-18.347,11.328-17.9,10.524c0.447-0.804,4.8-7.09,5.612-7.691&#10;&#9;&#9;&#9;&#9;c0.812-0.601,9.299-6.407,9.299-6.407l-1.104-1.283c0,0-8.349,6.074-9.787,7.284c-1.438,1.21-5.442,8.933-5.442,8.933&#10;&#9;&#9;&#9;&#9;l-3.256,1.594h2.985L92.207,493.299z"/>
			<path fill="#141013" d="M61.877,503.813c0.894-1.164,4.812-5.561,5.389-5.911s17.056-13.48,17.056-13.48l-2.193-1.218&#10;&#9;&#9;&#9;&#9;l-6.546,5.928l-9.088,7.577c0,0,1.584-2.851,2.234-4.02s11.436-9.907,11.436-9.907l-1.835-1.689c0,0-10.079,9.704-10.989,10.825&#10;&#9;&#9;&#9;&#9;c-0.91,1.121-2.559,4.605-3.578,6.956c-0.445,1.026-2.83,3.185-5.379,5.294h3.176C61.689,504.035,61.799,503.915,61.877,503.813z&#10;&#9;&#9;&#9;&#9;"/>
			<path fill="#141013" d="M77.122,480.422c-0.13,0.406-2.002-0.098-2.002-0.098l-9.584,8.641c0,0-1.381-0.098-0.65-1.413&#10;&#9;&#9;&#9;&#9;c0.731-1.316,7.562-7.755,7.562-7.755l-3.51-0.396l-17.054,19.675l-4.844,5.092h4.097L77.122,480.422z"/>
		</g><path fill="#141013" d="M62.595,478.081l4.053,0.702l-17.136,19.567l5.02-9.034C60.046,485.028,62.595,478.081,62.595,478.081z" transform="matrix(1, 0, 0, 1, 0, 0)"/><g transform="matrix(1, 0, 0, 1, 0, 0)">
			<path fill="#141013" d="M4.769,420.272c0,0,16.106-4.939,18.469-5.707c2.362-0.769,8.435-2.67,8.435-2.67l0.052-1.984&#10;&#9;&#9;&#9;&#9;l-13.509,4.781l-5.213,1.031c0,0,3.54-2.274,6.533-4.148s10.82-6.854,10.82-6.854l-2.072-3.887c0,0-8.049,7.07-9.933,8.725&#10;&#9;&#9;&#9;&#9;c-1.884,1.655-16.674,10.615-17.343,10.598S4.769,420.272,4.769,420.272z"/>
			<path fill="#141013" d="M24.779,394.202c0,0-9.688,15.302-8.105,7.9c1.583-7.403,5.631-9.22,5.631-9.22l0.011-0.418l-2.214-2.317&#10;&#9;&#9;&#9;&#9;c-3.888,4.08-5.91,15.402-5.91,15.402s-0.819,1.185-1.214,1.641c-2.573,2.968-8.768,7.484-12.811,10.295v2.123&#10;&#9;&#9;&#9;&#9;c1.339-0.938,4.166-2.909,5.813-3.987c2.213-1.447,11.538-9.315,11.538-9.315l9.723-7.104L24.779,394.202z"/>
			<path d="M 18.079999923706055 388.1700134277344 L 0.16699999570846558 410.85101318359375 L 0.16699999570846558 413.9949951171875 L 19.216999053955078 389.4540100097656 Z" fill="#141013"/>
			<path fill="#141013" d="M13.634,385.459c0,0-11.028,18.529-11.004,17.61c0.024-0.919,0.977-8.506,1.419-9.414&#10;&#9;&#9;&#9;&#9;c0.442-0.908,5.282-9.982,5.282-9.982l-1.573-0.627c0,0-4.594,9.247-5.309,10.985c-0.715,1.738-0.694,10.437-0.694,10.437&#10;&#9;&#9;&#9;&#9;l-1.59,2.16v2.336l15.779-22.356L13.634,385.459z"/>
			<path fill="#141013" d="M2.342,382.317L0.167,388.2v4.717c2.3-5.157,4.683-10.533,4.683-10.533L2.342,382.317z"/>
		</g><path fill="#304851" d="M607.998,427.308l-4.028-0.796c0,0,0.126,26.582,0,25.958c-0.031-0.147,5.296-0.885,5.296-0.885&#10;&#9;&#9;&#9;L607.998,427.308z" transform="matrix(1, 0, 0, 1, 0, 0)"/><path d="M 597.4539794921875 374.2130126953125 L 601.0999755859375 378.97601318359375 L 606.7260131835938 381.6449890136719 L 609.3480224609375 324.73199462890625 Z" fill="#304851" transform="matrix(1, 0, 0, 1, 0, 0)"/><path d="M 611.9400024414062 476.4389953613281 L 629.8309936523438 478.2040100097656 L 632.5490112304688 473.0530090332031 L 719.573974609375 503.09698486328125 L 675.6079711914062 503.25799560546875 L 589.8150024414062 478.8550109863281 L 589.8150024414062 478.8550109863281 Z" opacity="0.85" fill="#211A1E" transform="matrix(1, 0, 0, 1, 0, 0)"/><path fill="#121E26" d="M614.355,379.01l8.344,34.289l-3.78,3.938l-0.106-0.11c-1.976-12.605-5.583-24.651-5.936-37.226&#10;&#9;&#9;&#9;L614.355,379.01z" transform="matrix(1, 0, 0, 1, 0, 0)"/><path d="M 605.093994140625 379.9909973144531 L 613.4860229492188 382.572998046875 L 618.81298828125 417.1470031738281 L 605.364990234375 403.3330078125 Z" fill="#1C2A35" transform="matrix(1, 0, 0, 1, 0, 0)"/><path d="M 605.364990234375 403.3330078125 L 594.947021484375 409.2539978027344 L 593.10400390625 408.3219909667969 L 600.6090087890625 378.2650146484375 L 605.364990234375 379.97100830078125 Z" fill="#304851" transform="matrix(1, 0, 0, 1, 0, 0)"/><path d="M 597.4539794921875 374.2130126953125 L 601.1489868164062 377.3280029296875 L 605.093994140625 379.97100830078125 L 613.2960205078125 382.6080017089844 L 617.2459716796875 381.4549865722656 L 615.5130004882812 383.8999938964844 L 613.4860229492188 385.1000061035156 L 600.3049926757812 379.48199462890625 Z" fill="#121D21" transform="matrix(1, 0, 0, 1, 0, 0)"/><path fill="#304851" d="M604.198,452.215l-12.167,6.405c0.077-0.624,2.385-28.166,1.483-27.946l11.58-4.162L604.198,452.215z" transform="matrix(1, 0, 0, 1, 0, 0)"/><path d="M 593.7260131835938 457.375 L 591.4340209960938 479.18499755859375 L 606.8289794921875 481.61199951171875 L 609.2659912109375 451.2330017089844 L 604.197998046875 451.8630065917969 Z" fill="#304851" transform="matrix(1, 0, 0, 1, 0, 0)"/><path fill="#1C2A35" d="M603.235,452.48l3.594,29.132l23.706-3.738c0.227,0.371-4.192-22.8-4.192-22.8&#10;&#9;&#9;&#9;C625.777,454.933,603.235,452.48,603.235,452.48z" transform="matrix(1, 0, 0, 1, 0, 0)"/><path d="M 609.3480224609375 324.73199462890625 L 617.2459716796875 381.4549865722656 L 613.4860229492188 382.5530090332031 L 609.2030029296875 326.6180114746094 Z" fill="#121E26" transform="matrix(1, 0, 0, 1, 0, 0)"/><path fill="#1C2A35" d="M605.094,379.971l4.109-53.353c1.857,18.646,3.63,37.29,4.283,55.935l-0.19,0.055L605.094,379.971z" transform="matrix(1, 0, 0, 1, 0, 0)"/><path d="M 593.7260131835938 457.72698974609375 L 591.4340209960938 479.18499755859375 L 586.6799926757812 473.9169921875 L 589.510009765625 460.32501220703125 L 592.010986328125 458.36700439453125 Z" fill="#526F73" transform="matrix(1, 0, 0, 1, 0, 0)"/><path d="M 632.7119750976562 453.0159912109375 L 629.5579833984375 456.99700927734375 L 609.677978515625 455.43499755859375 L 603.5750122070312 455.9549865722656 L 593.4609985351562 459.77801513671875 L 589.510009765625 460.32501220703125 L 588.0889892578125 455.9549865722656 L 593.7260131835938 457.72698974609375 L 603.2349853515625 452.4800109863281 L 609.2659912109375 451.5849914550781 Z" fill="#121D21" transform="matrix(1, 0, 0, 1, 0, 0)"/><path d="M 594.64501953125 432.32598876953125 L 593.7260131835938 457.375 L 588.0889892578125 455.9549865722656 L 593.1209716796875 433.0119934082031 Z" fill="#526F73" transform="matrix(1, 0, 0, 1, 0, 0)"/><path d="M 621.27197265625 415.3819885253906 L 626.343994140625 430.09600830078125 L 620.2760009765625 430.67401123046875 L 618.5579833984375 417.4389953613281 Z" fill="#121E26" transform="matrix(1, 0, 0, 1, 0, 0)"/><path d="M 603.2349853515625 452.4800109863281 L 626.2739868164062 453.6419982910156 L 620.2760009765625 430.67401123046875 L 605.093994140625 427.62298583984375 Z" fill="#1C2A35" transform="matrix(1, 0, 0, 1, 0, 0)"/><path fill="#1C2A35" d="M605.218,403.436l12.746,9.426c0.077-0.242,2.312,17.812,2.312,17.812l-15.182-4.162L605.218,403.436z" transform="matrix(1, 0, 0, 1, 0, 0)"/><path d="M 601.2860107421875 379.9010009765625 L 594.8900146484375 409.5169982910156 L 593.10400390625 408.3219909667969 L 600.3049926757812 379.48199462890625 Z" fill="#526F73" transform="matrix(1, 0, 0, 1, 0, 0)"/><path d="M 608.56201171875 328 L 601.1489868164062 377.3280029296875 L 597.4539794921875 374.2130126953125 L 609.1829833984375 325.41900634765625 Z" fill="#526F73" transform="matrix(1, 0, 0, 1, 0, 0)"/><path d="M 622.698974609375 413.29901123046875 L 618.81298828125 417.1470031738281 L 605.364990234375 403.3330078125 L 594.947021484375 409.2539978027344 L 593.10400390625 408.3219909667969 L 594.0850219726562 411.75201416015625 L 605.218017578125 405.3760070800781 L 618.9329833984375 419.9840087890625 L 622.0170288085938 417.5419921875 Z" fill="#121D21" transform="matrix(1, 0, 0, 1, 0, 0)"/><path d="M 623.3690185546875 431.25201416015625 L 620.2760009765625 430.67401123046875 L 626.2739868164062 453.6419982910156 L 632.7119750976562 453.0159912109375 Z" fill="#121E26" transform="matrix(1, 0, 0, 1, 0, 0)"/><path d="M 629.5579833984375 456.99700927734375 L 626.5050048828125 456.2980041503906 L 630.5360107421875 477.87298583984375 L 633.4219970703125 472.6919860839844 L 633.4219970703125 472.6919860839844 Z" fill="#121E26" transform="matrix(1, 0, 0, 1, 0, 0)"/><path d="M 626.343994140625 430.09600830078125 L 620.4669799804688 430.6289978027344 L 605.093994140625 426.5119934082031 L 589.2449951171875 428.84100341796875 L 593.1209716796875 433.0119934082031 L 605.093994140625 427.62298583984375 L 620.677001953125 432.3089904785156 Z" fill="#121D21" transform="matrix(1, 0, 0, 1, 0, 0)"/><path d="M 605.218017578125 405.3760070800781 L 605.0490112304688 426.5119934082031 L 593.468994140625 430.67401123046875 L 589.2000122070312 428.84100341796875 L 594.22900390625 410.9800109863281 Z" fill="#304851" transform="matrix(1, 0, 0, 1, 0, 0)"/><path d="M 595.9409790039062 410.1319885253906 L 593.468994140625 430.67401123046875 L 589.2000122070312 428.84100341796875 L 594.0599975585938 411.09698486328125 Z" fill="#526F73" transform="matrix(1, 0, 0, 1, 0, 0)"/><path fill="#304851" d="M664.022,381.124l-4.474-0.884c0,0,0.14,29.525,0,28.831c-0.034-0.163,5.883-0.983,5.883-0.983&#10;&#9;&#9;&#9;L664.022,381.124z" transform="matrix(1, 0, 0, 1, 0, 0)"/><path d="M 652.3099975585938 322.1520080566406 L 656.3610229492188 327.4419860839844 L 662.6090087890625 330.406005859375 L 665.52099609375 267.1940002441406 Z" fill="#304851" transform="matrix(1, 0, 0, 1, 0, 0)"/><path d="M 668.4010009765625 435.6940002441406 L 688.27197265625 437.65399169921875 L 691.291015625 431.9320068359375 L 720.2030029296875 437.9169921875 L 720.2030029296875 463.9200134277344 L 643.8259887695312 438.37701416015625 L 643.8259887695312 438.37701416015625 Z" opacity="0.85" fill="#211A1E" transform="matrix(1, 0, 0, 1, 0, 0)"/><path fill="#121E26" d="M671.082,327.479l9.268,38.084l-4.198,4.374l-0.118-0.123c-2.195-14-6.201-27.38-6.593-41.346&#10;&#9;&#9;&#9;L671.082,327.479z" transform="matrix(1, 0, 0, 1, 0, 0)"/><path d="M 660.7960205078125 328.5690002441406 L 670.1179809570312 331.43701171875 L 676.0339965820312 369.8380126953125 L 661.0969848632812 354.4949951171875 Z" fill="#1C2A35" transform="matrix(1, 0, 0, 1, 0, 0)"/><path d="M 661.0969848632812 354.4949951171875 L 649.5260009765625 361.0719909667969 L 647.47900390625 360.0360107421875 L 655.8150024414062 326.65301513671875 L 661.0969848632812 328.5469970703125 Z" fill="#304851" transform="matrix(1, 0, 0, 1, 0, 0)"/><path d="M 652.3099975585938 322.1520080566406 L 656.4140014648438 325.61199951171875 L 660.7960205078125 328.5469970703125 L 669.906982421875 331.47601318359375 L 674.2940063476562 330.19500732421875 L 672.3690185546875 332.9110107421875 L 670.1179809570312 334.2439880371094 L 655.4769897460938 328.0039978027344 Z" fill="#121D21" transform="matrix(1, 0, 0, 1, 0, 0)"/><path fill="#304851" d="M659.801,408.788l-13.514,7.114c0.085-0.694,2.649-31.283,1.647-31.039l12.862-4.623L659.801,408.788z" transform="matrix(1, 0, 0, 1, 0, 0)"/><path d="M 648.1699829101562 414.5190124511719 L 645.625 438.7430114746094 L 662.7239990234375 441.4389953613281 L 665.4299926757812 407.6969909667969 L 659.801025390625 408.3970031738281 Z" fill="#304851" transform="matrix(1, 0, 0, 1, 0, 0)"/><path fill="#1C2A35" d="M658.732,409.082l3.992,32.356l26.33-4.152c0.252,0.412-4.656-25.323-4.656-25.323&#10;&#9;&#9;&#9;C683.769,411.807,658.732,409.082,658.732,409.082z" transform="matrix(1, 0, 0, 1, 0, 0)"/><path d="M 665.52099609375 267.1940002441406 L 674.2940063476562 330.19500732421875 L 670.1179809570312 331.4150085449219 L 665.3599853515625 269.28900146484375 Z" fill="#121E26" transform="matrix(1, 0, 0, 1, 0, 0)"/><path fill="#1C2A35" d="M660.796,328.547l4.564-59.259c2.062,20.71,4.031,41.418,4.758,62.126l-0.211,0.061L660.796,328.547z" transform="matrix(1, 0, 0, 1, 0, 0)"/><path d="M 648.1699829101562 414.9100036621094 L 645.625 438.7430114746094 L 640.344970703125 432.8919982910156 L 643.4869995117188 417.7950134277344 L 646.2659912109375 415.6210021972656 Z" fill="#526F73" transform="matrix(1, 0, 0, 1, 0, 0)"/><path d="M 691.4710083007812 409.6780090332031 L 687.968017578125 414.1000061035156 L 665.8880004882812 412.364013671875 L 659.1099853515625 412.9419860839844 L 647.8759765625 417.1889953613281 L 643.4869995117188 417.7950134277344 L 641.9089965820312 412.9419860839844 L 648.1699829101562 414.9100036621094 L 658.7319946289062 409.0820007324219 L 665.4299926757812 408.0880126953125 Z" fill="#121D21" transform="matrix(1, 0, 0, 1, 0, 0)"/><path d="M 649.1909790039062 386.697998046875 L 648.1699829101562 414.5190124511719 L 641.9089965820312 412.9419860839844 L 647.4979858398438 387.4590148925781 Z" fill="#526F73" transform="matrix(1, 0, 0, 1, 0, 0)"/><path d="M 678.7650146484375 367.87799072265625 L 684.3980102539062 384.22100830078125 L 677.6589965820312 384.86199951171875 L 675.7509765625 370.1629943847656 Z" fill="#121E26" transform="matrix(1, 0, 0, 1, 0, 0)"/><path d="M 658.7319946289062 409.0820007324219 L 684.3209838867188 410.37298583984375 L 677.6589965820312 384.86199951171875 L 660.7960205078125 381.4739990234375 Z" fill="#1C2A35" transform="matrix(1, 0, 0, 1, 0, 0)"/><path fill="#1C2A35" d="M660.934,354.609l14.157,10.47c0.085-0.269,2.568,19.784,2.568,19.784l-16.863-4.623L660.934,354.609z" transform="matrix(1, 0, 0, 1, 0, 0)"/><path d="M 656.5670166015625 328.468994140625 L 649.4630126953125 361.364013671875 L 647.47900390625 360.0360107421875 L 655.4769897460938 328.0039978027344 Z" fill="#526F73" transform="matrix(1, 0, 0, 1, 0, 0)"/><path d="M 664.6480102539062 270.822998046875 L 656.4140014648438 325.61199951171875 L 652.3099975585938 322.1520080566406 L 665.3380126953125 267.9570007324219 Z" fill="#526F73" transform="matrix(1, 0, 0, 1, 0, 0)"/><path d="M 680.3499755859375 365.5639953613281 L 676.0339965820312 369.8380126953125 L 661.0969848632812 354.4949951171875 L 649.5260009765625 361.0719909667969 L 647.47900390625 360.0360107421875 L 648.5689697265625 363.84600830078125 L 660.9340209960938 356.7650146484375 L 676.1680297851562 372.989013671875 L 679.593017578125 370.2770080566406 Z" fill="#121D21" transform="matrix(1, 0, 0, 1, 0, 0)"/><path d="M 681.093994140625 385.5039978027344 L 677.6589965820312 384.86199951171875 L 684.3209838867188 410.37298583984375 L 691.4710083007812 409.6780090332031 Z" fill="#121E26" transform="matrix(1, 0, 0, 1, 0, 0)"/><path d="M 687.968017578125 414.1000061035156 L 684.5770263671875 413.322998046875 L 689.0540161132812 437.2860107421875 L 692.260009765625 431.5320129394531 L 692.260009765625 431.5320129394531 Z" fill="#121E26" transform="matrix(1, 0, 0, 1, 0, 0)"/><path d="M 684.3980102539062 384.22100830078125 L 677.8709716796875 384.81201171875 L 660.7960205078125 380.239990234375 L 643.1929931640625 382.8269958496094 L 647.4979858398438 387.4590148925781 L 660.7960205078125 381.4739990234375 L 678.10400390625 386.6780090332031 Z" fill="#121D21" transform="matrix(1, 0, 0, 1, 0, 0)"/><path d="M 660.9340209960938 356.7650146484375 L 660.7470092773438 380.239990234375 L 647.8839721679688 384.86199951171875 L 643.1430053710938 382.8269958496094 L 648.72900390625 362.989013671875 Z" fill="#304851" transform="matrix(1, 0, 0, 1, 0, 0)"/><path d="M 650.6309814453125 362.0469970703125 L 647.8839721679688 384.86199951171875 L 643.1430053710938 382.8269958496094 L 648.541015625 363.1180114746094 Z" fill="#526F73" transform="matrix(1, 0, 0, 1, 0, 0)"/><g transform="matrix(1, 0, 0, 1, 0, 0)">
			<g>
				<path fill="#141013" d="M681.782,503.534c0,0-23.875-8.016-27.375-9.258s-12.5-4.323-12.5-4.323v-2.967l20,7.678l7.75,1.746&#10;&#9;&#9;&#9;&#9;&#9;c0,0-5.2-3.537-9.6-6.457c-4.4-2.92-15.9-10.67-15.9-10.67l3.25-5.727c0,0,11.75,10.883,14.5,13.43s24.5,16.521,25.5,16.521&#10;&#9;&#9;&#9;&#9;&#9;S681.782,503.534,681.782,503.534z"/>
				<path fill="#141013" d="M656.657,461.909c0,0,5.978,2.875,8.051,14s-11.801-12.125-11.801-12.125l-3.875,7.375l14.25,11&#10;&#9;&#9;&#9;&#9;&#9;c0,0,13.625,12.125,16.875,14.375s9.625,7,9.625,7l4.5-0.026c0,0-18.5-12.849-24.25-19.849c-0.572-0.697-1.75-2.5-1.75-2.5&#10;&#9;&#9;&#9;&#9;&#9;s-2.575-17-8.225-23.25l-3.4,3.375"/>
				<path d="M 661.406982421875 456.90899658203125 L 663.156982421875 455.03399658203125 L 699.4249877929688 503.53399658203125 L 695.7949829101562 503.7070007324219 Z" fill="#141013"/>
				<path fill="#141013" d="M666.407,452.784l33.851,50.75l3.097,0.117l-16.448-23.617c0,0,0.375-13-0.625-15.625&#10;&#9;&#9;&#9;&#9;&#9;s-7.5-16.625-7.5-16.625l-2.375,0.875c0,0,6.875,13.75,7.5,15.125s1.75,12.75,1.75,14.125s-15.75-26.75-15.75-26.75&#10;&#9;&#9;&#9;&#9;&#9;L666.407,452.784z"/>
				<path fill="#141013" d="M683.157,446.909c0,0,12,29.125,12.5,30s2.427,9.467,2.75,11.637c0.425,2.854,6.482,15.161,6.482,15.161&#10;&#9;&#9;&#9;&#9;&#9;l2.893-0.173c0,0-8.625-19-8.25-22.812s0.75-9.562,0.375-11.688s-6.5-22.125-6.5-22.125l-3.625,0.875c0,0,7.75,19.25,7.75,21.25&#10;&#9;&#9;&#9;&#9;&#9;s0,6.875,0,6.875l-6.375-16.5l-4.25-12.5H683.157z"/>
				<path fill="#141013" d="M695.469,446.909c-0.125,0.625,2.688,1.325,2.688,1.325l6.25,18.25c0,0,1.875,0.875,1.875-1.375&#10;&#9;&#9;&#9;&#9;&#9;s-4.25-15.625-4.25-15.625l4.875,2.031l8,38.094l3.648,14.098l-4.116-0.173L695.469,446.909z"/>
			</g>
			<path fill="#141013" d="M716.153,454.397l-5.806-2.026l8.185,38.012v-15.45C714.439,465.327,716.153,454.397,716.153,454.397z"/>
		</g><path fill="#141013" d="M642.298,493.667l-0.391,4l28.76,6.388l5.662-0.348c0,0-21.969-5.707-25.566-6.707&#10;&#9;&#9;&#9;C647.167,496,642.298,493.667,642.298,493.667" transform="matrix(1, 0, 0, 1, 0, 0)"/><path fill="#141013" d="M661.142,501.31c0,0-13.745-0.068-14.909-0.924s0.296,2.69,0.296,2.69s16.651,0.252,18.625-1.03&#10;&#9;&#9;&#9;L661.142,501.31z" transform="matrix(1, 0, 0, 1, 0, 0)"/><path fill="#141013" d="M290.586,499.453l-2.168-3.834c0,0-6.525,6.025-9.079,8.382h4.461&#10;&#9;&#9;&#9;C287.011,501.854,290.586,499.453,290.586,499.453z" transform="matrix(1, 0, 0, 1, 0, 0)"/><path fill="#141013" d="M237.94,496.652c0.547-2.447,2.884-12.902,2.884-12.902l-4.404,0.049c0,0-0.61,9.256-0.817,12.783&#10;&#9;&#9;&#9;c-0.174,2.97-0.41,6.407-0.48,7.419h2.183C237.5,500.574,237.734,497.57,237.94,496.652z" transform="matrix(1, 0, 0, 1, 0, 0)"/><path fill="#141013" d="M233.501,499.236l-2.293-14.146l-1.715,0.998c0,0,1.248,6.24,1.708,8.681&#10;&#9;&#9;&#9;c0.21,1.115,1.034,5.162,1.867,9.23h1.936L233.501,499.236z" transform="matrix(1, 0, 0, 1, 0, 0)"/><path fill="#141013" d="M277.79,501.355l9.544-7.343l-2.584-4.937c0,0-9.306,15.538-7.907,8.098&#10;&#9;&#9;&#9;c1.399-7.44,5.401-9.356,5.401-9.356l0.001-0.418l-2.271-2.261c-3.786,4.175-5.527,15.544-5.527,15.544s-0.79,1.205-1.173,1.67&#10;&#9;&#9;&#9;c-0.419,0.508-0.943,1.064-1.536,1.648h3.046C276.504,502.496,277.79,501.355,277.79,501.355z" transform="matrix(1, 0, 0, 1, 0, 0)"/><path d="M 279.0710144042969 484.4670104980469 L 277.9020080566406 483.21099853515625 L 262.30499267578125 504 L 264.6700134277344 504 Z" fill="#141013" transform="matrix(1, 0, 0, 1, 0, 0)"/><path fill="#141013" d="M275.731,481.703l-2.339-1.091c0,0-10.566,18.797-10.564,17.877c0.001-0.92,0.766-8.528,1.186-9.447&#10;&#9;&#9;&#9;c0.42-0.919,5.033-10.109,5.033-10.109l-1.588-0.588c0,0-4.363,9.358-5.035,11.113c-0.672,1.755-0.435,10.451-0.435,10.451&#10;&#9;&#9;&#9;L259.13,504h1.677L275.731,481.703z" transform="matrix(1, 0, 0, 1, 0, 0)"/><path fill="#141013" d="M256.139,497.809c0.335-0.585,8.394-20.054,8.394-20.054l-2.508-0.004l-2.856,8.357l-4.282,11.03&#10;&#9;&#9;&#9;c0,0,0.005-3.261,0.007-4.599s5.207-14.206,5.207-14.206l-2.424-0.589c0,0-4.119,13.372-4.372,14.793&#10;&#9;&#9;&#9;c-0.253,1.421-0.008,5.268,0.238,7.818c0.064,0.663-0.281,2.013-0.824,3.645h1.871&#10;&#9;&#9;&#9;C255.057,501.746,255.881,498.258,256.139,497.809z" transform="matrix(1, 0, 0, 1, 0, 0)"/><path fill="#141013" d="M256.297,477.742c0.083,0.418-1.799,0.884-1.799,0.884l-4.2,12.201c0,0-1.255,0.583-1.253-0.922&#10;&#9;&#9;&#9;c0.002-1.505,2.86-10.447,2.86-10.447l-3.263,1.354L243.732,504h3.721L256.297,477.742z" transform="matrix(1, 0, 0, 1, 0, 0)"/><path fill="#141013" d="M246.339,481.38l-3.886,1.349c0,0,1.134,7.313-1.614,13.735L240.828,504h0.603L246.339,481.38z" transform="matrix(1, 0, 0, 1, 0, 0)"/><path d="M 227.25 488.5 L 225.33999633789062 490.5570068359375 L 229.4929962158203 504.0270080566406 L 231.37100219726562 504.0679931640625 Z" fill="#141013" transform="matrix(1, 0, 0, 1, 0, 0)"/><path d="M 223.25 494.0889892578125 L 221 497.875 L 226.125 503.9989929199219 L 227.75 503.9989929199219 Z" fill="#141013" transform="matrix(1, 0, 0, 1, 0, 0)"/><path d="M 219.625 500.3810119628906 L 218 504.0679931640625 L 224.375 504.0679931640625 Z" fill="#141013" transform="matrix(1, 0, 0, 1, 0, 0)"/><path d="M 373.50299072265625 434.3030090332031 L 321.0119934082031 433.0870056152344 L 433 477.74200439453125 L 344.2749938964844 504.0679931640625 L 515.2230224609375 503.27398681640625 L 571.7039794921875 477.0589904785156 Z" opacity="0.57" fill="#141013" transform="matrix(1, 0, 0, 1, 0, 0)"/><path d="M 398.1809997558594 151.3249969482422 L 398.1759948730469 151.34100341796875 L 392.9849853515625 148.46099853515625 L 397.4309997558594 151.75399780273438 L 397.89801025390625 152.36000061035156 L 398.54400634765625 152.13900756835938 L 404.05999755859375 152.55999755859375 Z" opacity="0.7" fill="#3C3E62" transform="matrix(1, 0, 0, 1, 0, 0)"/><path d="M 388.8800048828125 170.37899780273438 L 388.87200927734375 170.40499877929688 L 380.3580017089844 165.6820068359375 L 387.6499938964844 171.08200073242188 L 388.4150085449219 172.07699584960938 L 389.4750061035156 171.71499633789062 L 398.52301025390625 172.40499877929688 Z" opacity="0.7" fill="#3C3E62" transform="matrix(1, 0, 0, 1, 0, 0)"/><path d="M 295.6679992675781 258.9100036621094 L 295.6619873046875 258.9339904785156 L 288.197998046875 254.79299926757812 L 294.5899963378906 259.5270080566406 L 295.260986328125 260.39898681640625 L 296.19000244140625 260.08099365234375 L 304.1210021972656 260.6860046386719 Z" opacity="0.7" fill="#3C3E62" transform="matrix(1, 0, 0, 1, 0, 0)"/><path d="M 285.9549865722656 233.07899475097656 L 285.9469909667969 233.10699462890625 L 276.90899658203125 228.09300231933594 L 284.6499938964844 233.8260040283203 L 285.4620056152344 234.88099670410156 L 286.5870056152344 234.4969940185547 L 296.1910095214844 235.22999572753906 Z" opacity="0.7" fill="#3C3E62" transform="matrix(1, 0, 0, 1, 0, 0)"/><g transform="matrix(1, 0, 0, 1, 0, 0)">
			<path fill="#526F73" d="M397.991,467.253c0,0,3.955-2.734,6.104-4.804c1.896-1.828,7.288-8.521,7.288-12.58L397.991,467.253z"/>
			<path fill="#304851" d="M397.978,467.243c0,0,1.641-4.521,3.099-7.123c1.286-2.299,6.39-9.211,10.318-10.241L397.978,467.243z"/>
		</g><path fill="#526F73" d="M395.659,466.305c0,0-1.015-3.456-1.981-5.472c-0.854-1.779-4.347-7.188-7.234-8.143L395.659,466.305z" transform="matrix(1, 0, 0, 1, 0, 0)"/><path fill="#304851" d="M395.649,466.312c0,0-2.83-2.23-4.34-3.878c-1.33-1.457-5.047-6.715-4.855-9.749L395.649,466.312z" transform="matrix(1, 0, 0, 1, 0, 0)"/><path fill="#526F73" d="M396.515,467.218c0,0,1.346-1.594,2.355-3.343c1.259-2.188,3.211-7.258,1.793-9.376L396.515,467.218z" transform="matrix(1, 0, 0, 1, 0, 0)"/><path fill="#304851" d="M396.516,467.253c0,0-0.258-1.713-0.093-3.525c0.207-2.264,1.612-7.377,4.326-9.186L396.516,467.253z" transform="matrix(1, 0, 0, 1, 0, 0)"/><path fill="#304851" d="M398.614,466.719c-0.06,0.186,3.013-9.894,5.767-14.908c2.575-4.692,3.987-5.704,6.379-7.36&#10;&#9;&#9;&#9;c0,0-4.663,5.246-5.643,7.052C404.264,453.069,400.637,460.278,398.614,466.719z" transform="matrix(1, 0, 0, 1, 0, 0)"/><path fill="#304851" d="M395.474,466.006c0,0-1.467-1.233-2.269-1.873c-1.538-1.22-5.561-2.442-7.246-2.612&#10;&#9;&#9;&#9;c-0.95-0.098,4.798,1.188,6.359,2.593c1.82,1.638,2.427,2.21,2.427,2.21L395.474,466.006z" transform="matrix(1, 0, 0, 1, 0, 0)"/><path fill="#304851" d="M395.576,466.324c0,0-1.141-6.512-2.19-9.495c-1.099-3.126-3.367-6.324-4.079-7.892&#10;&#9;&#9;&#9;c-0.491-1.08,1.666,2.007,4.035,6.144c2.029,3.543,2.872,10.793,2.872,10.793L395.576,466.324z" transform="matrix(1, 0, 0, 1, 0, 0)"/><path fill="#304851" d="M94.804,391.544l5.632-1.113c0,0-0.177,37.162,0,36.289c0.043-0.205-7.404-1.237-7.404-1.237&#10;&#9;&#9;&#9;L94.804,391.544z" transform="matrix(1, 0, 0, 1, 0, 0)"/><path d="M 109.54499816894531 317.3160095214844 L 104.4469985961914 323.9739990234375 L 96.58300018310547 327.70599365234375 L 92.91699981689453 248.14100646972656 Z" fill="#304851" transform="matrix(1, 0, 0, 1, 0, 0)"/><path d="M 89.29199981689453 460.22900390625 L 64.28099822998047 462.6969909667969 L 60.48099899291992 455.4949951171875 L 0.30400002002716064 467.9519958496094 L 0.2840000092983246 497.72198486328125 L 120.2239990234375 463.60699462890625 L 120.2239990234375 463.60699462890625 Z" opacity="0.85" fill="#211A1E" transform="matrix(1, 0, 0, 1, 0, 0)"/><path fill="#121E26" d="M85.917,324.022l-11.665,47.936l5.285,5.506l0.148-0.154c2.763-17.622,7.806-34.463,8.299-52.042&#10;&#9;&#9;&#9;L85.917,324.022z" transform="matrix(1, 0, 0, 1, 0, 0)"/><path d="M 98.86399841308594 325.39300537109375 L 87.13099670410156 329.00299072265625 L 79.68499755859375 377.3380126953125 L 98.48500061035156 358.0260009765625 Z" fill="#1C2A35" transform="matrix(1, 0, 0, 1, 0, 0)"/><path d="M 98.48500061035156 358.0260009765625 L 113.05000305175781 366.3039855957031 L 115.6259994506836 365 L 105.13300323486328 322.9809875488281 L 98.48500061035156 325.3659973144531 Z" fill="#304851" transform="matrix(1, 0, 0, 1, 0, 0)"/><path d="M 109.54499816894531 317.3160095214844 L 104.37899780273438 321.6709899902344 L 98.86399841308594 325.3659973144531 L 87.39700317382812 329.0530090332031 L 81.875 327.44000244140625 L 84.2969970703125 330.8580017089844 L 87.13099670410156 332.5360107421875 L 105.55899810791016 324.6820068359375 Z" fill="#121D21" transform="matrix(1, 0, 0, 1, 0, 0)"/><path fill="#304851" d="M100.117,426.363l17.01,8.954c-0.107-0.873-3.334-39.376-2.073-39.068l-16.189-5.818L100.117,426.363z" transform="matrix(1, 0, 0, 1, 0, 0)"/><path d="M 114.75599670410156 433.5769958496094 L 117.95999908447266 464.0669860839844 L 96.43800354003906 467.4599914550781 L 93.03199768066406 424.989990234375 L 100.11699676513672 425.8710021972656 Z" fill="#304851" transform="matrix(1, 0, 0, 1, 0, 0)"/><path fill="#1C2A35" d="M101.463,426.734l-5.025,40.726l-33.142-5.226c-0.317,0.519,5.861-31.874,5.861-31.874&#10;&#9;&#9;&#9;C69.949,430.163,101.463,426.734,101.463,426.734z" transform="matrix(1, 0, 0, 1, 0, 0)"/><path d="M 92.91699981689453 248.14100646972656 L 81.875 327.44000244140625 L 87.13099670410156 328.9750061035156 L 93.12000274658203 250.7779998779297 Z" fill="#121E26" transform="matrix(1, 0, 0, 1, 0, 0)"/><path fill="#1C2A35" d="M98.864,325.366l-5.744-74.588c-2.596,26.067-5.074,52.132-5.988,78.197l0.266,0.077L98.864,325.366z" transform="matrix(1, 0, 0, 1, 0, 0)"/><path d="M 114.75599670410156 434.0690002441406 L 117.95999908447266 464.0669860839844 L 124.60600280761719 456.7019958496094 L 120.6510009765625 437.70098876953125 L 117.15299987792969 434.9639892578125 Z" fill="#526F73" transform="matrix(1, 0, 0, 1, 0, 0)"/><path d="M 60.25400161743164 427.4840087890625 L 64.66300201416016 433.04901123046875 L 92.45500183105469 430.864990234375 L 100.98699951171875 431.5920104980469 L 115.12699890136719 436.93701171875 L 120.6510009765625 437.70098876953125 L 122.63700103759766 431.5920104980469 L 114.75599670410156 434.0690002441406 L 101.46299743652344 426.7340087890625 L 93.03199768066406 425.48199462890625 Z" fill="#121D21" transform="matrix(1, 0, 0, 1, 0, 0)"/><path d="M 113.47200012207031 398.5589904785156 L 114.75599670410156 433.5769958496094 L 122.63700103759766 431.5920104980469 L 115.60199737548828 399.5169982910156 Z" fill="#526F73" transform="matrix(1, 0, 0, 1, 0, 0)"/><path d="M 76.24700164794922 374.8710021972656 L 69.15699768066406 395.4410095214844 L 77.63899993896484 396.2489929199219 L 80.04100036621094 377.74700927734375 Z" fill="#121E26" transform="matrix(1, 0, 0, 1, 0, 0)"/><path d="M 101.46299743652344 426.7340087890625 L 69.25399780273438 428.3590087890625 L 77.63899993896484 396.2489929199219 L 98.86399841308594 391.9840087890625 Z" fill="#1C2A35" transform="matrix(1, 0, 0, 1, 0, 0)"/><path fill="#1C2A35" d="M98.691,358.17l-17.819,13.178c-0.107-0.339-3.232,24.901-3.232,24.901l21.225-5.818L98.691,358.17z" transform="matrix(1, 0, 0, 1, 0, 0)"/><path d="M 104.18699645996094 325.2669982910156 L 113.12899780273438 366.6709899902344 L 115.6259994506836 365 L 105.55899810791016 324.6820068359375 Z" fill="#526F73" transform="matrix(1, 0, 0, 1, 0, 0)"/><path d="M 94.01499938964844 252.7100067138672 L 104.37899780273438 321.6709899902344 L 109.54499816894531 317.3160095214844 L 93.14700317382812 249.1020050048828 Z" fill="#526F73" transform="matrix(1, 0, 0, 1, 0, 0)"/><path d="M 74.25199890136719 371.9580078125 L 79.68499755859375 377.3380126953125 L 98.48500061035156 358.0260009765625 L 113.05000305175781 366.3039855957031 L 115.6259994506836 365 L 114.25399780273438 369.7959899902344 L 98.69100189208984 360.88299560546875 L 79.51599884033203 381.3039855957031 L 75.20500183105469 377.8900146484375 Z" fill="#121D21" transform="matrix(1, 0, 0, 1, 0, 0)"/><path d="M 73.31500244140625 397.0559997558594 L 77.63899993896484 396.2489929199219 L 69.25399780273438 428.3590087890625 L 60.25400161743164 427.4840087890625 Z" fill="#121E26" transform="matrix(1, 0, 0, 1, 0, 0)"/><path d="M 64.66300201416016 433.04901123046875 L 68.93099975585938 432.0719909667969 L 63.29600143432617 462.2340087890625 L 59.262001037597656 454.989990234375 L 59.262001037597656 454.989990234375 Z" fill="#121E26" transform="matrix(1, 0, 0, 1, 0, 0)"/><path d="M 69.15699768066406 395.4410095214844 L 77.37200164794922 396.1860046386719 L 98.86399841308594 390.42999267578125 L 121.02100372314453 393.68701171875 L 115.60199737548828 399.5169982910156 L 98.86399841308594 391.9840087890625 L 77.0790023803711 398.53399658203125 Z" fill="#121D21" transform="matrix(1, 0, 0, 1, 0, 0)"/><path d="M 98.69100189208984 360.88299560546875 L 98.9260025024414 390.42999267578125 L 115.11599731445312 396.2489929199219 L 121.08399963378906 393.68701171875 L 114.052001953125 368.7170104980469 Z" fill="#304851" transform="matrix(1, 0, 0, 1, 0, 0)"/><path d="M 111.65899658203125 367.531005859375 L 115.11599731445312 396.2489929199219 L 121.08399963378906 393.68701171875 L 114.29000091552734 368.8800048828125 Z" fill="#526F73" transform="matrix(1, 0, 0, 1, 0, 0)"/><path fill="#304851" d="M168.802,428.521l4.127-0.816c0,0-0.13,27.231,0,26.592c0.032-0.15-5.426-0.907-5.426-0.907&#10;&#9;&#9;L168.802,428.521z" transform="matrix(1, 0, 0, 1, 0, 0)"/><path d="M 179.60299682617188 374.1289978027344 L 175.86700439453125 379.00799560546875 L 170.10499572753906 381.74200439453125 L 167.41799926757812 323.44000244140625 Z" fill="#304851" transform="matrix(1, 0, 0, 1, 0, 0)"/><path fill="#121E26" d="M162.289,379.043l-8.548,35.126l3.872,4.034l0.109-0.113c2.024-12.913,5.72-25.254,6.081-38.135&#10;&#9;&#9;L162.289,379.043z" transform="matrix(1, 0, 0, 1, 0, 0)"/><path d="M 171.7760009765625 380.0480041503906 L 163.1790008544922 382.6929931640625 L 157.72300720214844 418.1109924316406 L 171.49899291992188 403.9599914550781 Z" fill="#1C2A35" transform="matrix(1, 0, 0, 1, 0, 0)"/><path d="M 171.49899291992188 403.9599914550781 L 182.1719970703125 410.0260009765625 L 184.0590057373047 409.0710144042969 L 176.3699951171875 378.2799987792969 L 171.49899291992188 380.02801513671875 Z" fill="#304851" transform="matrix(1, 0, 0, 1, 0, 0)"/><path d="M 179.60299682617188 374.1289978027344 L 175.8179931640625 377.3210144042969 L 171.7760009765625 380.02801513671875 L 163.37399291992188 382.72900390625 L 159.32699584960938 381.5480041503906 L 161.1020050048828 384.052001953125 L 163.1790008544922 385.2820129394531 L 176.6820068359375 379.5270080566406 Z" fill="#121D21" transform="matrix(1, 0, 0, 1, 0, 0)"/><path fill="#304851" d="M172.694,454.036l12.464,6.561c-0.079-0.64-2.443-28.854-1.519-28.628l-11.863-4.264L172.694,454.036z" transform="matrix(1, 0, 0, 1, 0, 0)"/><path d="M 183.4219970703125 459.322998046875 L 185.7689971923828 481.6650085449219 L 169.9980010986328 484.1510009765625 L 167.5030059814453 453.0299987792969 L 172.69400024414062 453.6759948730469 Z" fill="#304851" transform="matrix(1, 0, 0, 1, 0, 0)"/><path fill="#1C2A35" d="M173.681,454.308l-3.682,29.843l-24.285-3.83c-0.233,0.38,4.295-23.357,4.295-23.357&#10;&#9;&#9;C150.588,456.821,173.681,454.308,173.681,454.308z" transform="matrix(1, 0, 0, 1, 0, 0)"/><path d="M 167.41799926757812 323.44000244140625 L 159.32699584960938 381.5480041503906 L 163.1790008544922 382.6730041503906 L 167.56700134277344 325.37200927734375 Z" fill="#121E26" transform="matrix(1, 0, 0, 1, 0, 0)"/><path fill="#1C2A35" d="M171.776,380.028l-4.209-54.656c-1.902,19.101-3.718,38.201-4.388,57.301l0.195,0.057L171.776,380.028z" transform="matrix(1, 0, 0, 1, 0, 0)"/><path d="M 183.4219970703125 459.6830139160156 L 185.7689971923828 481.6650085449219 L 190.63999938964844 476.26800537109375 L 187.74099731445312 462.343994140625 L 185.17799377441406 460.3389892578125 Z" fill="#526F73" transform="matrix(1, 0, 0, 1, 0, 0)"/><path d="M 143.48399353027344 454.85699462890625 L 146.71499633789062 458.9360046386719 L 167.0800018310547 457.3349914550781 L 173.33200073242188 457.8680114746094 L 183.6929931640625 461.7850036621094 L 187.74099731445312 462.343994140625 L 189.19700622558594 457.86700439453125 L 183.4219970703125 459.6830139160156 L 173.68099975585938 454.3080139160156 L 167.5030059814453 453.3909912109375 Z" fill="#121D21" transform="matrix(1, 0, 0, 1, 0, 0)"/><path d="M 182.4810028076172 433.6619873046875 L 183.4219970703125 459.322998046875 L 189.19700622558594 457.86700439453125 L 184.04200744628906 434.364013671875 Z" fill="#526F73" transform="matrix(1, 0, 0, 1, 0, 0)"/><path d="M 155.2030029296875 416.3039855957031 L 150.00799560546875 431.37799072265625 L 156.22300720214844 431.968994140625 L 157.98300170898438 418.4110107421875 Z" fill="#121E26" transform="matrix(1, 0, 0, 1, 0, 0)"/><path d="M 173.68099975585938 454.3080139160156 L 150.07899475097656 455.4989929199219 L 156.22300720214844 431.968994140625 L 171.7760009765625 428.843994140625 Z" fill="#1C2A35" transform="matrix(1, 0, 0, 1, 0, 0)"/><path fill="#1C2A35" d="M171.65,404.066l-13.058,9.656c-0.079-0.248-2.369,18.247-2.369,18.247l15.553-4.264L171.65,404.066z" transform="matrix(1, 0, 0, 1, 0, 0)"/><path d="M 175.677001953125 379.95599365234375 L 182.22999572753906 410.2950134277344 L 184.0590057373047 409.0710144042969 L 176.6820068359375 379.5270080566406 Z" fill="#526F73" transform="matrix(1, 0, 0, 1, 0, 0)"/><path d="M 168.22300720214844 326.7869873046875 L 175.8179931640625 377.3210144042969 L 179.60299682617188 374.1289978027344 L 167.58700561523438 324.1440124511719 Z" fill="#526F73" transform="matrix(1, 0, 0, 1, 0, 0)"/><path d="M 153.74099731445312 414.16900634765625 L 157.72300720214844 418.1109924316406 L 171.49899291992188 403.9599914550781 L 182.1719970703125 410.0260009765625 L 184.0590057373047 409.0710144042969 L 183.0540008544922 412.5849914550781 L 171.64999389648438 406.0539855957031 L 157.5989990234375 421.01800537109375 L 154.43899536132812 418.5169982910156 Z" fill="#121D21" transform="matrix(1, 0, 0, 1, 0, 0)"/><path d="M 153.05499267578125 432.5610046386719 L 156.22300720214844 431.968994140625 L 150.07899475097656 455.4989929199219 L 143.48399353027344 454.85699462890625 Z" fill="#121E26" transform="matrix(1, 0, 0, 1, 0, 0)"/><path d="M 146.71499633789062 458.9360046386719 L 149.8419952392578 458.218994140625 L 145.71299743652344 480.3210144042969 L 142.7570037841797 475.0140075683594 L 142.7570037841797 475.0140075683594 Z" fill="#121E26" transform="matrix(1, 0, 0, 1, 0, 0)"/><path d="M 150.00799560546875 431.37799072265625 L 156.0279998779297 431.9230041503906 L 171.7760009765625 427.70599365234375 L 188.01300048828125 430.0920104980469 L 184.04200744628906 434.364013671875 L 171.7760009765625 428.843994140625 L 155.81300354003906 433.6440124511719 Z" fill="#121D21" transform="matrix(1, 0, 0, 1, 0, 0)"/><path d="M 171.64999389648438 406.0539855957031 L 171.82200622558594 427.70599365234375 L 183.68499755859375 431.968994140625 L 188.0590057373047 430.0920104980469 L 182.906005859375 411.79400634765625 Z" fill="#304851" transform="matrix(1, 0, 0, 1, 0, 0)"/><path d="M 181.15199279785156 410.92498779296875 L 183.68499755859375 431.968994140625 L 188.0590057373047 430.0920104980469 L 183.0800018310547 411.91400146484375 Z" fill="#526F73" transform="matrix(1, 0, 0, 1, 0, 0)"/><g transform="matrix(1, 0, 0, 1, 0, 0)">
			<path fill="#526F73" d="M538.8,494.437c0,0,3.955-2.734,6.104-4.804c1.896-1.828,7.288-8.521,7.288-12.58L538.8,494.437z"/>
			<path fill="#304851" d="M538.787,494.427c0,0,1.641-4.521,3.099-7.123c1.286-2.299,6.39-9.211,10.318-10.241L538.787,494.427z"/>
		</g><path fill="#526F73" d="M536.468,493.489c0,0-1.015-3.456-1.981-5.472c-0.854-1.779-4.347-7.188-7.234-8.143L536.468,493.489z" transform="matrix(1, 0, 0, 1, 0, 0)"/><path fill="#304851" d="M536.458,493.496c0,0-2.83-2.23-4.34-3.878c-1.33-1.457-5.047-6.715-4.855-9.749L536.458,493.496z" transform="matrix(1, 0, 0, 1, 0, 0)"/><path fill="#526F73" d="M537.324,494.402c0,0,1.346-1.594,2.355-3.343c1.259-2.188,3.211-7.258,1.793-9.376L537.324,494.402z" transform="matrix(1, 0, 0, 1, 0, 0)"/><path fill="#304851" d="M537.325,494.437c0,0-0.258-1.713-0.093-3.525c0.207-2.264,1.612-7.377,4.326-9.186L537.325,494.437z" transform="matrix(1, 0, 0, 1, 0, 0)"/><path fill="#304851" d="M539.423,493.903c-0.06,0.186,3.013-9.894,5.767-14.908c2.575-4.692,3.987-5.704,6.379-7.36&#10;&#9;&#9;&#9;c0,0-4.663,5.246-5.643,7.052C545.073,480.253,541.446,487.462,539.423,493.903z" transform="matrix(1, 0, 0, 1, 0, 0)"/><path fill="#304851" d="M536.283,493.19c0,0-1.467-1.233-2.269-1.873c-1.538-1.22-5.561-2.442-7.246-2.612&#10;&#9;&#9;&#9;c-0.95-0.098,4.798,1.188,6.359,2.593c1.82,1.638,2.427,2.21,2.427,2.21L536.283,493.19z" transform="matrix(1, 0, 0, 1, 0, 0)"/><path fill="#304851" d="M536.385,493.508c0,0-1.141-6.512-2.19-9.495c-1.099-3.126-3.367-6.324-4.079-7.892&#10;&#9;&#9;&#9;c-0.491-1.08,1.666,2.007,4.035,6.144c2.029,3.543,2.872,10.793,2.872,10.793L536.385,493.508z" transform="matrix(1, 0, 0, 1, 0, 0)"/><g transform="matrix(1, 0, 0, 1, 0, 0)">
			<path fill="#304851" d="M702.722,405.432c0,0,3.955-2.734,6.104-4.804c1.896-1.828,7.288-8.521,7.288-12.58L702.722,405.432z"/>
			<path fill="#121E26" d="M702.709,405.422c0,0,1.641-4.521,3.099-7.123c1.286-2.299,6.39-9.211,10.318-10.241L702.709,405.422z"/>
		</g><path fill="#304851" d="M700.39,404.484c0,0-1.015-3.456-1.981-5.472c-0.854-1.779-4.347-7.188-7.234-8.143L700.39,404.484z" transform="matrix(1, 0, 0, 1, 0, 0)"/><path fill="#121E26" d="M700.38,404.491c0,0-2.83-2.23-4.34-3.878c-1.33-1.457-5.047-6.715-4.855-9.749L700.38,404.491z" transform="matrix(1, 0, 0, 1, 0, 0)"/><path fill="#304851" d="M701.246,405.397c0,0,1.346-1.594,2.355-3.343c1.259-2.188,3.211-7.258,1.793-9.376L701.246,405.397z" transform="matrix(1, 0, 0, 1, 0, 0)"/><path fill="#121E26" d="M701.247,405.432c0,0-0.258-1.713-0.093-3.525c0.207-2.264,1.612-7.377,4.326-9.186L701.247,405.432z" transform="matrix(1, 0, 0, 1, 0, 0)"/><path fill="#121E26" d="M703.345,404.898c-0.06,0.186,3.013-9.894,5.767-14.908c2.575-4.692,3.987-5.704,6.379-7.36&#10;&#9;&#9;&#9;c0,0-4.663,5.246-5.643,7.052C708.995,391.248,705.368,398.457,703.345,404.898z" transform="matrix(1, 0, 0, 1, 0, 0)"/><path fill="#121E26" d="M700.205,404.185c0,0-1.467-1.233-2.269-1.873c-1.538-1.22-5.561-2.442-7.246-2.612&#10;&#9;&#9;&#9;c-0.95-0.098,4.798,1.188,6.359,2.593c1.82,1.638,2.427,2.21,2.427,2.21L700.205,404.185z" transform="matrix(1, 0, 0, 1, 0, 0)"/><path fill="#121E26" d="M700.307,404.503c0,0-1.141-6.512-2.19-9.495c-1.099-3.126-3.367-6.324-4.079-7.892&#10;&#9;&#9;&#9;c-0.491-1.08,1.666,2.007,4.035,6.144c2.029,3.543,2.872,10.793,2.872,10.793L700.307,404.503z" transform="matrix(1, 0, 0, 1, 0, 0)"/><g transform="matrix(1, 0, 0, 1, 0, 0)">
			<path fill="#304851" d="M212.382,475.321c0,0,4.415-3.052,6.813-5.362c2.116-2.04,8.135-9.511,8.135-14.042L212.382,475.321z"/>
			<path fill="#121E26" d="M212.367,475.31c0,0,1.832-5.046,3.459-7.951c1.435-2.566,7.133-10.281,11.517-11.431L212.367,475.31z"/>
		</g><path fill="#304851" d="M209.779,474.263c0,0-1.133-3.858-2.211-6.108c-0.953-1.986-4.852-8.023-8.075-9.089L209.779,474.263z" transform="matrix(1, 0, 0, 1, 0, 0)"/><path fill="#121E26" d="M209.767,474.271c0,0-3.159-2.489-4.844-4.329c-1.485-1.626-5.634-7.495-5.419-10.882L209.767,474.271z" transform="matrix(1, 0, 0, 1, 0, 0)"/><path fill="#304851" d="M210.734,475.282c0,0,1.502-1.779,2.629-3.731c1.405-2.442,3.584-8.101,2.001-10.466L210.734,475.282z" transform="matrix(1, 0, 0, 1, 0, 0)"/><path fill="#121E26" d="M210.735,475.321c0,0-0.288-1.912-0.104-3.935c0.231-2.527,1.799-8.234,4.829-10.254L210.735,475.321z" transform="matrix(1, 0, 0, 1, 0, 0)"/><path fill="#121E26" d="M213.077,474.725c-0.067,0.208,3.363-11.044,6.437-16.64c2.874-5.237,4.45-6.367,7.12-8.215&#10;&#9;&#9;&#9;c0,0-5.205,5.856-6.299,7.872C219.384,459.489,215.335,467.535,213.077,474.725z" transform="matrix(1, 0, 0, 1, 0, 0)"/><path fill="#121E26" d="M209.572,473.929c0,0-1.637-1.376-2.533-2.091c-1.717-1.362-6.207-2.726-8.088-2.916&#10;&#9;&#9;&#9;c-1.06-0.109,5.356,1.326,7.098,2.894c2.032,1.828,2.709,2.467,2.709,2.467L209.572,473.929z" transform="matrix(1, 0, 0, 1, 0, 0)"/><path fill="#121E26" d="M209.686,474.284c0,0-1.274-7.269-2.445-10.598c-1.227-3.489-3.758-7.059-4.553-8.809&#10;&#9;&#9;&#9;c-0.548-1.206,1.86,2.24,4.504,6.858c2.265,3.955,3.206,12.047,3.206,12.047L209.686,474.284z" transform="matrix(1, 0, 0, 1, 0, 0)"/><path opacity="0.57" fill="#141013" d="M389.734,468.292c0.187,0.389,6.895,0.629,7.101,0s-3.283-2.093-4.759-2.75&#10;&#9;&#9;S389.133,467.042,389.734,468.292z" transform="matrix(1, 0, 0, 1, 0, 0)"/><path opacity="0.57" fill="#141013" d="M533.062,496.905c0.187,0.389,6.895,0.629,7.102,0c0.206-0.629-3.283-2.093-4.759-2.75&#10;&#9;&#9;C533.928,493.498,532.461,495.655,533.062,496.905z" transform="matrix(1, 0, 0, 1, 0, 0)"/><path opacity="0.57" fill="#141013" d="M203.957,475.592c0.187,0.389,6.613,0.224,6.771-0.33s-2.953-1.763-4.429-2.42&#10;&#9;&#9;C204.823,472.186,203.355,474.342,203.957,475.592z" transform="matrix(1, 0, 0, 1, 0, 0)"/><path opacity="0.57" fill="#141013" d="M402.825,469.608c-0.035,0.43-6.612,0.769-6.612,0c0,0,3.057-1.949,4.431-2.56&#10;&#9;&#9;C402.019,466.436,402.929,468.321,402.825,469.608z" transform="matrix(1, 0, 0, 1, 0, 0)"/><path opacity="0.57" fill="#141013" d="M544.86,495.016c-0.035,0.431-6.612,0.769-6.612,0c0,0,3.057-1.949,4.431-2.56&#10;&#9;&#9;S544.964,493.729,544.86,495.016z" transform="matrix(1, 0, 0, 1, 0, 0)"/><path opacity="0.81" fill="#141013" d="M697.455,408.098c0.187,0.389,6.895,0.629,7.102,0s-3.283-2.093-4.759-2.75&#10;&#9;&#9;S696.854,406.848,697.455,408.098z" transform="matrix(1, 0, 0, 1, 0, 0)"/><path opacity="0.81" fill="#141013" d="M709.253,406.21c-0.035,0.431-6.612,0.769-6.612,0c0,0,3.057-1.949,4.431-2.56&#10;&#9;&#9;S709.357,404.922,709.253,406.21z" transform="matrix(1, 0, 0, 1, 0, 0)"/><path opacity="0.57" fill="#141013" d="M219.643,477.537c-0.225,0.467-8.797,0.851-8.526,0c0.271-0.851,3.942-2.513,5.714-3.302&#10;&#9;&#9;C218.603,473.447,220.365,476.036,219.643,477.537z" transform="matrix(1, 0, 0, 1, 0, 0)"/><g transform="matrix(1, 0, 0, 1, 0, 0)">
			<g>
				<path fill="#304851" d="M56.515,418.195c0,0,3.955-2.734,6.104-4.804c1.896-1.828,7.288-8.521,7.288-12.58L56.515,418.195z"/>
				<path fill="#121E26" d="M56.502,418.185c0,0,1.641-4.521,3.099-7.123c1.286-2.299,6.39-9.211,10.318-10.241L56.502,418.185z"/>
			</g>
			<g>
				<path fill="#304851" d="M54.183,417.247c0,0-1.015-3.456-1.981-5.472c-0.854-1.779-4.347-7.188-7.234-8.143L54.183,417.247z"/>
				<path fill="#121E26" d="M54.173,417.254c0,0-2.83-2.23-4.34-3.878c-1.33-1.457-5.047-6.715-4.855-9.749L54.173,417.254z"/>
			</g>
			<g>
				<path fill="#304851" d="M55.039,418.16c0,0,1.346-1.594,2.355-3.343c1.259-2.188,3.211-7.258,1.793-9.376L55.039,418.16z"/>
				<path fill="#121E26" d="M55.04,418.195c0,0-0.258-1.713-0.093-3.525c0.207-2.264,1.612-7.377,4.326-9.186L55.04,418.195z"/>
			</g>
			<path fill="#121E26" d="M57.138,417.661c-0.06,0.186,3.013-9.894,5.767-14.908c2.575-4.692,3.987-5.704,6.379-7.36&#10;&#9;&#9;&#9;&#9;c0,0-4.663,5.246-5.643,7.052C62.788,404.011,59.161,411.22,57.138,417.661z"/>
			<path fill="#121E26" d="M53.998,416.948c0,0-1.467-1.233-2.269-1.873c-1.538-1.22-5.561-2.442-7.246-2.612&#10;&#9;&#9;&#9;&#9;c-0.95-0.098,4.798,1.188,6.359,2.593c1.82,1.638,2.427,2.21,2.427,2.21L53.998,416.948z"/>
			<path fill="#121E26" d="M54.1,417.266c0,0-1.141-6.512-2.19-9.495c-1.099-3.126-3.367-6.324-4.079-7.892&#10;&#9;&#9;&#9;&#9;c-0.491-1.08,1.666,2.007,4.035,6.144c2.029,3.543,2.872,10.793,2.872,10.793L54.1,417.266z"/>
		</g><path opacity="0.57" fill="#141013" d="M63.03,420.582c-0.225,0.467-8.797,0.851-8.526,0c0.271-0.851,3.942-2.513,5.714-3.302&#10;&#9;&#9;&#9;C61.99,416.491,63.752,419.081,63.03,420.582z" transform="matrix(1, 0, 0, 1, 0, 0)"/><path opacity="0.57" fill="#141013" d="M49.256,419.125c0.142,0.295,5.557,0.538,5.385,0c-0.171-0.538-2.49-1.587-3.609-2.085&#10;&#9;&#9;&#9;S48.8,418.177,49.256,419.125z" transform="matrix(1, 0, 0, 1, 0, 0)"/><path d="M 508.4540100097656 263.54998779296875 L 508.45001220703125 263.5660095214844 L 503.2590026855469 260.6860046386719 L 507.7049865722656 263.97900390625 L 508.1709899902344 264.5849914550781 L 508.8169860839844 264.364013671875 L 514.3330078125 264.7850036621094 Z" opacity="0.7" fill="#3C3E62" transform="matrix(1, 0, 0, 1, 0, 0)"/><path d="M 508.2349853515625 275.7250061035156 L 508.2279968261719 275.75201416015625 L 499.7130126953125 271.02801513671875 L 507.0060119628906 276.4289855957031 L 507.77099609375 277.4230041503906 L 508.83099365234375 277.0610046386719 L 517.8790283203125 277.75201416015625 Z" opacity="0.7" fill="#3C3E62" transform="matrix(1, 0, 0, 1, 0, 0)"/><path fill="#E3CCCD" d="M570.426,113.85c-0.791-28.6,17.202-35.744,39.308-33.176c-4.682-3.979-10.742-6.383-17.368-6.383&#10;&#9;&#9;&#9;c-14.826,0-26.843,12.016-26.843,26.842c0,4.604,1.165,8.932,3.209,12.717H570.426z" transform="matrix(1, 0, 0, 1, 0, 0)"/><path fill="#E3CCCD" d="M569.635,99.86c-2.324-1.227-4.973-1.92-7.785-1.92c-8.969,0-16.271,7.051-16.713,15.91h2.347&#10;&#9;&#9;&#9;C552.587,106.295,560.353,100.813,569.635,99.86z" transform="matrix(1, 0, 0, 1, 0, 0)"/><path fill="#AEB0C1" d="M647.118,112.2c-17-6-35-5-53,0c-13.264,2.948-30.325,9.683-44.389,6.628&#10;&#9;&#9;&#9;c3.657,2.272,10.132,4.414,21.521,4.171c11.324-0.241,31.547-4.643,42-5.5c10.453-0.856,30.877,2.22,39.5,3.75&#10;&#9;&#9;&#9;c10.043,1.782,25.636,5.959,47.052,4c6.516-0.596,11.776-1.731,15.986-3.06C692.65,123.237,668.761,119.126,647.118,112.2z" transform="matrix(1, 0, 0, 1, 0, 0)"/><path fill="#BBBCD0" d="M710.75,67.25c-9.894-2.653-31.062,13.075-38.895,18.201c-7.924,0.315-15.165,4.203-20.388,9.899&#10;&#9;&#9;&#9;c-1.046-3.742-3.077-7.073-5.802-9.693C631.5,82.088,623.458,89.177,616,95.25c-1.108-6.28-1.603-10.613-6.266-14.576&#10;&#9;&#9;&#9;c-34.984-9.174-38.385,20.089-40.099,19.186c-9.282,0.953-19.395,6.435-24.498,13.99c0,0,0.703,2.563,4.592,4.978&#10;&#9;&#9;&#9;c14.064,3.055,31.125-3.681,44.389-6.628c18-5,36-6,53,0c21.642,6.926,45.532,11.037,68.67,9.99&#10;&#9;&#9;&#9;c1.409-0.445,2.698-0.912,3.878-1.388V65.335C715.073,64.649,711.555,65.43,710.75,67.25z" transform="matrix(1, 0, 0, 1, 0, 0)"/><path fill="#E3CCCD" d="M708.153,59.12c-15.563,1.127-28.028,13.975-28.732,29.563c-0.151,3.354,0.232,6.596,1.07,9.65&#10;&#9;&#9;&#9;c0.565,2.059,3.534,2.078,4.101,0.019c4.256-15.447,16.574-27.839,35.075-27.738V60.435&#10;&#9;&#9;&#9;C716.063,59.32,712.185,58.828,708.153,59.12z" transform="matrix(1, 0, 0, 1, 0, 0)"/><path fill="#E3CCCD" d="M696.03,78.106c-0.64,0.638-1.246,1.304-1.822,1.991" transform="matrix(1, 0, 0, 1, 0, 0)"/><path fill="#E3CCCD" d="M663.899,92.907c6.671-9.023,18.359-14.015,30.308-12.81c0.576-0.688,1.182-1.353,1.822-1.991&#10;&#9;&#9;&#9;c-3.503-2.232-7.659-3.531-12.121-3.531c-10.7,0-19.662,7.435-22.005,17.419C661.625,93.181,663.175,93.888,663.899,92.907z" transform="matrix(1, 0, 0, 1, 0, 0)"/><path fill="#E3CCCD" d="M647.921,97.814c0.13,0.059,0.212,0.097,0.258,0.118C648.035,97.867,647.69,97.708,647.921,97.814z" transform="matrix(1, 0, 0, 1, 0, 0)"/><path fill="#E3CCCD" d="M648.179,97.933C648.256,97.968,648.239,97.961,648.179,97.933c-0.046-0.021-0.128-0.059-0.258-0.118&#10;&#9;&#9;&#9;c0.131,0.06,0.442,0.203,1.105,0.507c4.27-5.912,10.556-10.473,17.713-12.178c1.207-0.288,1.059-2.071-0.177-2.176&#10;&#9;&#9;&#9;c-0.522-0.044-1.05-0.067-1.584-0.067c-8.518,0-15.702,5.71-17.932,13.512c0.418,0.192,0.691,0.317,0.875,0.402&#10;&#9;&#9;&#9;C647.69,97.708,648.035,97.867,648.179,97.933z" transform="matrix(1, 0, 0, 1, 0, 0)"/><path fill="#E3CCCD" d="M613.287,100.87c8.373-12.798,18.377-16.714,32.378-14.853c0,0,0,0,0,0&#10;&#9;&#9;&#9;c-4.274-4.11-10.242-6.471-16.757-5.916c-9.461,0.806-17.401,7.945-19.197,17.27c-0.138,0.719-0.239,1.434-0.305,2.143&#10;&#9;&#9;&#9;C609.203,101.732,612.068,102.733,613.287,100.87z" transform="matrix(1, 0, 0, 1, 0, 0)"/><path fill="#E3CCCD" d="M607.296,203.517c-0.598-18.786,13.014-23.478,29.738-21.791c-3.542-2.613-8.127-4.193-13.14-4.193&#10;&#9;&#9;&#9;c-11.217,0-20.308,7.892-20.308,17.631c0,3.024,0.881,5.867,2.428,8.353H607.296z" transform="matrix(1, 0, 0, 1, 0, 0)"/><path fill="#E3CCCD" d="M606.698,194.328c-1.758-0.806-3.762-1.261-5.89-1.261c-6.785,0-12.309,4.631-12.644,10.451h1.775&#10;&#9;&#9;&#9;C593.801,198.555,599.676,194.954,606.698,194.328z" transform="matrix(1, 0, 0, 1, 0, 0)"/><path fill="#AEB0C1" d="M665.317,202.434c-12.861-3.941-26.479-3.284-40.097,0c-10.035,1.936-22.942,6.36-33.582,4.354&#10;&#9;&#9;&#9;c2.767,1.492,7.665,2.899,16.281,2.74c8.567-0.158,23.866-3.05,31.775-3.613c7.908-0.563,23.36,1.458,29.883,2.463&#10;&#9;&#9;&#9;c7.598,1.17,19.395,3.914,35.597,2.627c4.93-0.391,8.909-1.137,12.094-2.01C699.764,209.683,681.69,206.983,665.317,202.434z" transform="matrix(1, 0, 0, 1, 0, 0)"/><path fill="#BBBCD0" d="M713.457,172.908c-7.485-1.743-23.5,8.588-29.426,11.955c-5.995,0.207-11.473,2.761-15.424,6.502&#10;&#9;&#9;&#9;c-0.791-2.458-2.328-4.646-4.389-6.367c-10.717-2.344-16.801,2.312-22.443,6.301c-0.839-4.125-1.213-6.971-4.741-9.574&#10;&#9;&#9;&#9;c-26.467-6.026-29.04,13.195-30.336,12.602c-7.022,0.626-14.673,4.227-18.534,9.189c0,0,0.532,1.683,3.474,3.27&#10;&#9;&#9;&#9;c10.64,2.007,23.547-2.418,33.582-4.354c13.618-3.284,27.235-3.941,40.097,0c16.373,4.549,34.447,7.249,51.952,6.562&#10;&#9;&#9;&#9;c1.066-0.292,2.041-0.599,2.934-0.912v-36.433C716.728,171.2,714.065,171.712,713.457,172.908z" transform="matrix(1, 0, 0, 1, 0, 0)"/><path fill="#E3CCCD" d="M711.492,167.568c-11.774,0.74-21.204,9.179-21.737,19.418c-0.115,2.203,0.176,4.333,0.81,6.338&#10;&#9;&#9;&#9;c0.428,1.352,2.674,1.365,3.103,0.013c3.22-10.146,12.539-18.286,26.535-18.219v-6.686&#10;&#9;&#9;&#9;C717.476,167.699,714.543,167.376,711.492,167.568z" transform="matrix(1, 0, 0, 1, 0, 0)"/><path fill="#E3CCCD" d="M702.32,180.039c-0.484,0.419-0.943,0.856-1.378,1.308" transform="matrix(1, 0, 0, 1, 0, 0)"/><path fill="#E3CCCD" d="M678.013,189.761c5.047-5.927,13.889-9.206,22.929-8.414c0.435-0.452,0.894-0.889,1.378-1.308&#10;&#9;&#9;&#9;c-2.651-1.466-5.794-2.32-9.17-2.32c-8.095,0-14.875,4.883-16.648,11.442C676.292,189.941,677.464,190.405,678.013,189.761z" transform="matrix(1, 0, 0, 1, 0, 0)"/><path fill="#E3CCCD" d="M665.924,192.984c0.098,0.039,0.16,0.064,0.195,0.078C666.01,193.019,665.749,192.915,665.924,192.984z" transform="matrix(1, 0, 0, 1, 0, 0)"/><path fill="#E3CCCD" d="M666.119,193.062C666.178,193.085,666.165,193.08,666.119,193.062c-0.035-0.014-0.097-0.039-0.195-0.078&#10;&#9;&#9;&#9;c0.099,0.04,0.335,0.133,0.836,0.333c3.23-3.883,7.986-6.879,13.4-7.999c0.913-0.189,0.801-1.361-0.134-1.429&#10;&#9;&#9;&#9;c-0.395-0.029-0.794-0.044-1.198-0.044c-6.444,0-11.879,3.751-13.566,8.875c0.316,0.126,0.523,0.208,0.662,0.264&#10;&#9;&#9;&#9;C665.749,192.915,666.01,193.019,666.119,193.062z" transform="matrix(1, 0, 0, 1, 0, 0)"/><path fill="#E3CCCD" d="M639.723,194.991c6.335-8.407,13.903-10.979,24.495-9.756c0,0,0,0,0,0c-3.234-2.7-7.749-4.25-12.677-3.886&#10;&#9;&#9;&#9;c-7.158,0.53-13.165,5.219-14.523,11.344c-0.105,0.473-0.181,0.942-0.231,1.407C636.632,195.557,638.8,196.215,639.723,194.991z" transform="matrix(1, 0, 0, 1, 0, 0)"/><path fill="#E3CCCD" d="M114.998,221.041c0.598-18.786-13.014-23.478-29.738-21.791c3.542-2.613,8.127-4.193,13.14-4.193&#10;&#9;&#9;&#9;c11.217,0,20.308,7.892,20.308,17.631c0,3.024-0.881,5.867-2.428,8.353H114.998z" transform="matrix(1, 0, 0, 1, 0, 0)"/><path fill="#E3CCCD" d="M115.596,211.851c1.758-0.806,3.762-1.261,5.89-1.261c6.785,0,12.309,4.631,12.644,10.451h-1.775&#10;&#9;&#9;&#9;C128.494,216.079,122.619,212.478,115.596,211.851z" transform="matrix(1, 0, 0, 1, 0, 0)"/><path fill="#AEB0C1" d="M56.977,219.957c12.861-3.941,26.479-3.284,40.097,0c10.035,1.936,22.942,6.36,33.582,4.354&#10;&#9;&#9;&#9;c-2.767,1.492-7.665,2.899-16.281,2.74c-8.567-0.158-23.866-3.05-31.775-3.613c-7.908-0.563-23.36,1.458-29.883,2.463&#10;&#9;&#9;&#9;c-7.598,1.17-19.395,3.914-35.597,2.627c-4.93-0.391-8.909-1.137-12.094-2.01C22.531,227.207,40.604,224.506,56.977,219.957z" transform="matrix(1, 0, 0, 1, 0, 0)"/><path fill="#BBBCD0" d="M8.838,190.432c7.485-1.743,23.5,8.588,29.426,11.955c5.995,0.207,11.473,2.761,15.424,6.502&#10;&#9;&#9;&#9;c0.791-2.458,2.328-4.646,4.389-6.367c10.717-2.344,16.801,2.312,22.443,6.301c0.839-4.125,1.213-6.971,4.741-9.574&#10;&#9;&#9;&#9;c26.467-6.026,29.04,13.195,30.336,12.602c7.022,0.626,14.673,4.227,18.534,9.189c0,0-0.532,1.683-3.474,3.27&#10;&#9;&#9;&#9;c-10.64,2.007-23.547-2.418-33.582-4.354c-13.618-3.284-27.235-3.941-40.097,0c-16.373,4.549-34.447,7.249-51.952,6.562&#10;&#9;&#9;&#9;c-1.066-0.292-2.041-0.599-2.934-0.912v-36.433C5.567,188.723,8.229,189.236,8.838,190.432z" transform="matrix(1, 0, 0, 1, 0, 0)"/><path fill="#E3CCCD" d="M10.802,185.092c11.774,0.74,21.205,9.179,21.737,19.418c0.115,2.203-0.176,4.333-0.81,6.338&#10;&#9;&#9;&#9;c-0.428,1.352-2.674,1.365-3.103,0.013c-3.22-10.146-12.539-18.286-26.535-18.219v-6.686&#10;&#9;&#9;&#9;C4.818,185.223,7.752,184.9,10.802,185.092z" transform="matrix(1, 0, 0, 1, 0, 0)"/><path fill="#E3CCCD" d="M19.974,197.563c0.484,0.419,0.943,0.856,1.378,1.308" transform="matrix(1, 0, 0, 1, 0, 0)"/><path fill="#E3CCCD" d="M44.282,207.285c-5.047-5.927-13.889-9.206-22.929-8.414c-0.436-0.452-0.894-0.889-1.378-1.308&#10;&#9;&#9;&#9;c2.65-1.466,5.794-2.32,9.17-2.32c8.095,0,14.875,4.883,16.648,11.442C46.002,207.464,44.83,207.929,44.282,207.285z" transform="matrix(1, 0, 0, 1, 0, 0)"/><path fill="#E3CCCD" d="M56.37,210.508c-0.098,0.039-0.16,0.064-0.195,0.078C56.284,210.542,56.545,210.438,56.37,210.508z" transform="matrix(1, 0, 0, 1, 0, 0)"/><path fill="#E3CCCD" d="M56.175,210.586C56.117,210.609,56.129,210.604,56.175,210.586c0.035-0.014,0.097-0.039,0.195-0.078&#10;&#9;&#9;&#9;c-0.099,0.04-0.335,0.133-0.836,0.333c-3.23-3.883-7.986-6.879-13.4-7.999c-0.913-0.189-0.801-1.361,0.134-1.429&#10;&#9;&#9;&#9;c0.395-0.029,0.794-0.044,1.198-0.044c6.444,0,11.879,3.751,13.566,8.875c-0.316,0.126-0.523,0.208-0.662,0.264&#10;&#9;&#9;&#9;C56.545,210.438,56.284,210.542,56.175,210.586z" transform="matrix(1, 0, 0, 1, 0, 0)"/><path fill="#E3CCCD" d="M82.572,212.515c-6.335-8.407-13.903-10.979-24.495-9.756c0,0,0,0,0,0c3.234-2.7,7.749-4.25,12.677-3.886&#10;&#9;&#9;&#9;c7.158,0.53,13.165,5.219,14.523,11.344c0.105,0.473,0.181,0.942,0.231,1.407C85.662,213.081,83.494,213.739,82.572,212.515z" transform="matrix(1, 0, 0, 1, 0, 0)"/><path fill="#E3CCCD" d="M175.56,89.615c0.921-31.947-20.03-39.927-45.77-37.059c5.451-4.444,12.508-7.13,20.224-7.13&#10;&#9;&#9;&#9;c17.264,0,31.256,13.422,31.256,29.983c0,5.142-1.357,9.977-3.737,14.205H175.56z" transform="matrix(1, 0, 0, 1, 0, 0)"/><path fill="#E3CCCD" d="M176.481,73.987c2.706-1.37,5.79-2.145,9.065-2.145c10.443,0,18.946,7.876,19.461,17.772h-2.732&#10;&#9;&#9;&#9;C196.331,81.176,187.289,75.052,176.481,73.987z" transform="matrix(1, 0, 0, 1, 0, 0)"/><path fill="#AEB0C1" d="M86.259,87.772c19.795-6.702,40.754-5.585,61.714,0c15.445,3.293,35.311,10.817,51.687,7.404&#10;&#9;&#9;&#9;c-4.259,2.538-11.797,4.93-25.059,4.66c-13.186-0.269-36.734-5.187-48.905-6.144c-12.172-0.957-35.953,2.48-45.994,4.189&#10;&#9;&#9;&#9;c-11.694,1.99-29.851,6.656-54.788,4.468c-7.587-0.666-13.712-1.933-18.615-3.418C33.241,100.1,61.058,95.508,86.259,87.772z" transform="matrix(1, 0, 0, 1, 0, 0)"/><path fill="#BBBCD0" d="M176.481,73.987c-1.996,1.009-5.956-31.679-46.691-21.431c-5.43,4.427-6.006,9.266-7.296,16.282&#10;&#9;&#9;&#9;c-8.684-6.784-18.048-14.703-34.543-10.716c-3.173,2.927-5.538,6.648-6.756,10.828c-6.081-6.363-14.513-10.706-23.74-11.058&#10;&#9;&#9;&#9;c-9.121-5.725-33.77-23.295-45.29-20.331c-0.92-1.997-4.893-2.87-10.102-2.174v62.098c1.299,0.495,2.703,0.982,4.235,1.446&#10;&#9;&#9;&#9;c26.942,1.169,54.76-3.423,79.96-11.159c19.795-6.702,40.754-5.585,61.714,0c15.445,3.293,35.311,10.817,51.687,7.404&#10;&#9;&#9;&#9;c4.529-2.699,5.347-5.561,5.347-5.561C199.064,81.176,187.289,75.052,176.481,73.987z" transform="matrix(1, 0, 0, 1, 0, 0)"/><path fill="#E3CCCD" d="M48.646,61.502c-0.82-17.412-15.334-31.764-33.456-33.023c-4.59-0.319-9.01,0.194-13.126,1.381v11.462&#10;&#9;&#9;&#9;c21.385,0.009,35.627,13.801,40.56,30.98c0.66,2.299,4.117,2.278,4.775-0.022C48.375,68.87,48.822,65.249,48.646,61.502z" transform="matrix(1, 0, 0, 1, 0, 0)"/><path fill="#E3CCCD" d="M29.306,49.687c0.745,0.713,1.451,1.456,2.121,2.224" transform="matrix(1, 0, 0, 1, 0, 0)"/><path fill="#E3CCCD" d="M66.718,66.221c-7.767-10.079-21.377-15.655-35.291-14.31c-0.67-0.768-1.376-1.511-2.121-2.224&#10;&#9;&#9;&#9;c4.079-2.493,8.918-3.945,14.114-3.945c12.459,0,22.895,8.305,25.623,19.458C69.366,66.526,67.562,67.316,66.718,66.221z" transform="matrix(1, 0, 0, 1, 0, 0)"/><path fill="#E3CCCD" d="M85.324,71.702c-0.151,0.066-0.246,0.109-0.3,0.132C85.191,71.761,85.593,71.583,85.324,71.702z" transform="matrix(1, 0, 0, 1, 0, 0)"/><path fill="#E3CCCD" d="M85.024,71.834C84.934,71.874,84.953,71.865,85.024,71.834c0.054-0.024,0.15-0.066,0.3-0.132&#10;&#9;&#9;&#9;c-0.153,0.067-0.515,0.227-1.286,0.567c-4.972-6.603-12.292-11.698-20.625-13.604c-1.405-0.321-1.233-2.314,0.206-2.43&#10;&#9;&#9;&#9;c0.608-0.049,1.223-0.074,1.844-0.074c9.918,0,18.283,6.378,20.88,15.093c-0.486,0.214-0.804,0.354-1.019,0.449&#10;&#9;&#9;&#9;C85.593,71.583,85.191,71.761,85.024,71.834z" transform="matrix(1, 0, 0, 1, 0, 0)"/><path fill="#E3CCCD" d="M125.652,75.115c-9.75-14.296-21.398-18.671-37.701-16.591c0,0,0,0,0,0&#10;&#9;&#9;&#9;c4.977-4.591,11.926-7.228,19.512-6.608c11.017,0.901,20.262,8.875,22.353,19.291c0.161,0.804,0.279,1.602,0.355,2.393&#10;&#9;&#9;&#9;C130.408,76.078,127.071,77.197,125.652,75.115z" transform="matrix(1, 0, 0, 1, 0, 0)"/><g transform="matrix(1, 0, 0, 1, 0, 0)">
			<path fill="#141013" d="M36.773,503.882c0,0,23.875-8.016,27.375-9.258c3.5-1.242,12.5-4.323,12.5-4.323v-2.967l-20,7.678&#10;&#9;&#9;&#9;&#9;l-7.75,1.746c0,0,5.2-3.537,9.6-6.457s15.9-10.67,15.9-10.67l-3.25-5.727c0,0-11.75,10.883-14.5,13.43s-24.5,16.521-25.5,16.521&#10;&#9;&#9;&#9;&#9;C30.148,503.856,36.773,503.882,36.773,503.882z"/>
			<path fill="#141013" d="M61.898,462.257c0,0-5.978,2.875-8.051,14s11.801-12.125,11.801-12.125l3.875,7.375l-14.25,11&#10;&#9;&#9;&#9;&#9;c0,0-13.625,12.125-16.875,14.375s-9.625,7-9.625,7l-4.5-0.026c0,0,18.5-12.849,24.25-19.849c0.572-0.697,1.75-2.5,1.75-2.5&#10;&#9;&#9;&#9;&#9;s2.575-17,8.225-23.25l3.4,3.375"/>
			<path d="M 57.14799880981445 457.2569885253906 L 55.39799880981445 455.3819885253906 L 19.1299991607666 503.8819885253906 L 22.760000228881836 504.05499267578125 Z" fill="#141013"/>
			<path fill="#141013" d="M52.148,453.132l-33.851,50.75l-3.097,0.117l16.448-23.617c0,0-0.375-13,0.625-15.625&#10;&#9;&#9;&#9;&#9;c1-2.625,7.5-16.625,7.5-16.625l2.375,0.875c0,0-6.875,13.75-7.5,15.125s-1.75,12.75-1.75,14.125s15.75-26.75,15.75-26.75&#10;&#9;&#9;&#9;&#9;L52.148,453.132z"/>
			<path fill="#141013" d="M35.398,447.257c0,0-12,29.125-12.5,30s-2.427,9.467-2.75,11.637c-0.425,2.854-6.482,15.161-6.482,15.161&#10;&#9;&#9;&#9;&#9;l-2.893-0.173c0,0,8.625-19,8.25-22.812s-0.75-9.562-0.375-11.688s6.5-22.125,6.5-22.125l3.625,0.875c0,0-7.75,19.25-7.75,21.25&#10;&#9;&#9;&#9;&#9;s0,6.875,0,6.875l6.375-16.5l4.25-12.5H35.398z"/>
			<path fill="#141013" d="M23.086,447.257c0.125,0.625-2.688,1.325-2.688,1.325l-6.25,18.25c0,0-1.875,0.875-1.875-1.375&#10;&#9;&#9;&#9;&#9;s4.25-15.625,4.25-15.625l-4.875,2.031l-8,38.094L0,504.055l4.116-0.173L23.086,447.257z"/>
		</g><path fill="#141013" d="M2.403,454.745l5.806-2.026l-8.185,38.012v-15.45C4.116,465.675,2.403,454.745,2.403,454.745z" transform="matrix(1, 0, 0, 1, 0, 0)"/>
</svg>