<?xml version="1.0" encoding="utf-8"?>
<svg id="master-artboard" viewBox="0 0 335.99 235.61" xmlns="http://www.w3.org/2000/svg" width="335.989990234375px" height="235.61000061035156px" xmlns:xlink="http://www.w3.org/1999/xlink"><defs><linearGradient id="Névtelen_színátmenet_47" x1="167.96" y1="146.32" x2="167.96" gradientUnits="userSpaceOnUse"><stop offset="0.44" stop-color="#f7c7d5"/><stop offset="0.56" stop-color="#f5b9cb"/><stop offset="0.79" stop-color="#f193b2"/><stop offset="1" stop-color="#ec6c97"/></linearGradient><linearGradient id="Névtelen_színátmenet_429" x1="185.53" y1="80.01" x2="207.38" y2="80.01" gradientUnits="userSpaceOnUse"><stop offset="0" stop-color="#fff" stop-opacity="0.2"/><stop offset="0.11" stop-color="#fff" stop-opacity="0.26"/><stop offset="0.32" stop-color="#fff" stop-opacity="0.4"/><stop offset="0.61" stop-color="#fff" stop-opacity="0.64"/><stop offset="0.97" stop-color="#fff" stop-opacity="0.97"/><stop offset="1" stop-color="#fff"/></linearGradient><linearGradient id="Névtelen_színátmenet_23" x1="167.99" y1="235.19" x2="167.99" y2="146.32" gradientUnits="userSpaceOnUse"><stop offset="0.06" stop-color="#372974"/><stop offset="1" stop-color="#99357d"/></linearGradient><linearGradient id="Névtelen_színátmenet_420" x1="167.94" y1="213.44" x2="167.94" y2="208.5" gradientUnits="userSpaceOnUse"><stop offset="0" stop-color="#1e2045"/><stop offset="1" stop-color="#2b2a62" stop-opacity="0.2"/></linearGradient><linearGradient id="Névtelen_színátmenet_31" x1="149.73" y1="116.78" x2="237.95" y2="116.78" gradientUnits="userSpaceOnUse"><stop offset="0.03" stop-color="#f7c7d5"/><stop offset="1" stop-color="#ec6c97"/></linearGradient><linearGradient id="Névtelen_színátmenet_88" x1="166.68" y1="116.78" x2="237.71" y2="116.78" gradientUnits="userSpaceOnUse"><stop offset="0" stop-color="#fff"/><stop offset="0.27" stop-color="#fff" stop-opacity="0.73"/><stop offset="0.52" stop-color="#fff" stop-opacity="0.5"/><stop offset="0.73" stop-color="#fff" stop-opacity="0.34"/><stop offset="0.9" stop-color="#fff" stop-opacity="0.24"/><stop offset="1" stop-color="#fff" stop-opacity="0.2"/></linearGradient><linearGradient id="Névtelen_színátmenet_20" x1="86.64" y1="112.33" x2="195.99" y2="112.33" gradientUnits="userSpaceOnUse"><stop offset="0.06" stop-color="#99357d"/><stop offset="0.66" stop-color="#d75a81"/></linearGradient><linearGradient id="Névtelen_színátmenet_88-2" x1="117.03" y1="112.32" x2="195.99" y2="112.32" xlink:href="#Névtelen_színátmenet_88"/><linearGradient id="Névtelen_színátmenet_435" x1="66.22" y1="147.03" x2="66.22" y2="58.78" gradientUnits="userSpaceOnUse"><stop offset="0" stop-color="#d75a81"/><stop offset="0.29" stop-color="#c04c80"/><stop offset="0.7" stop-color="#a43b7e"/><stop offset="0.94" stop-color="#99357d"/></linearGradient><linearGradient id="Névtelen_színátmenet_88-3" x1="31.53" y1="102.91" x2="132.44" y2="102.91" xlink:href="#Névtelen_színátmenet_88"/><linearGradient id="Névtelen_színátmenet_420-2" x1="0" y1="164.59" x2="195.99" y2="164.59" xlink:href="#Névtelen_színátmenet_420"/><linearGradient id="Névtelen_színátmenet_421" x1="167.99" y1="235.19" x2="167.99" y2="214.71" gradientUnits="userSpaceOnUse"><stop offset="0" stop-color="#1e2045"/><stop offset="1" stop-color="#2b2a62"/></linearGradient><linearGradient id="Névtelen_színátmenet_2" x1="260.49" y1="173.56" x2="260.49" y2="167.65" gradientUnits="userSpaceOnUse"><stop offset="0" stop-color="#2b2a62" stop-opacity="0.2"/><stop offset="1" stop-color="#1e2045"/></linearGradient><linearGradient id="Névtelen_színátmenet_2-2" x1="212.5" y1="165.31" x2="212.5" y2="162.91" xlink:href="#Névtelen_színátmenet_2"/><linearGradient id="Névtelen_színátmenet_2-3" x1="239.44" y1="166.82" x2="239.44" y2="162.91" xlink:href="#Névtelen_színátmenet_2"/></defs><title>eezy_07</title><path d="M 0 0 H 335.920013 V 146.320007 H 0 V 0 Z" class="cls-1" style="fill: url('#Névtelen_színátmenet_47');"/><path class="cls-2" d="M245.9,162.19h40.6a37.9,37.9,0,0,0,18.92-32.63c0-21.06-17.56-38.13-39.22-38.13S227,108.5,227,129.56A37.9,37.9,0,0,0,245.9,162.19Z" style="fill: rgb(255, 255, 255);"/><path class="cls-2" d="M163.93,70.83c-.18.19-.71,0-1.19-.44S131.88,42.81,131.8,42.11c0-.35,31.08,27.15,31.56,27.59S164.1,70.64,163.93,70.83Z" style="fill: rgb(255, 255, 255);"/><path class="cls-3" d="M207.3,89.69c-.17.19-.58.11-.9-.18s-20.91-18.7-20.87-19.28c0-.3,21.16,18.29,21.49,18.58S207.47,89.5,207.3,89.69Z" style="opacity: 0.8; fill: url('#Névtelen_színátmenet_429');"/><path class="cls-4" d="M134.05,40a.85.85,0,1,0-.85-.85.85.85,0,0,0,.85.85Z" style="fill: rgb(255, 255, 255); fill-rule: evenodd;"/><path class="cls-4" d="M258.94,12.13a.85.85,0,1,0-.85-.85.85.85,0,0,0,.85.85Z" style="fill: rgb(255, 255, 255); fill-rule: evenodd;"/><path class="cls-4" d="M320.81,45.13a.85.85,0,1,0-.85-.85.85.85,0,0,0,.85.85Z" style="fill: rgb(255, 255, 255); fill-rule: evenodd;"/><path class="cls-4" d="M219.63,67.93a.85.85,0,1,0,0-1.69.84.84,0,0,0-.84.85.83.83,0,0,0,.84.84Z" style="fill: rgb(255, 255, 255); fill-rule: evenodd;"/><path class="cls-4" d="M90.56,24.26a.85.85,0,0,0,.85-.84.85.85,0,1,0-1.7,0,.85.85,0,0,0,.85.84Z" style="fill: rgb(255, 255, 255); fill-rule: evenodd;"/><path class="cls-4" d="M41.06,66a.85.85,0,0,0,.85-.85.85.85,0,0,0-1.7,0,.85.85,0,0,0,.85.85Z" style="fill: rgb(255, 255, 255); fill-rule: evenodd;"/><path class="cls-4" d="M209.32,75.69a.43.43,0,0,0,.43-.43.43.43,0,1,0-.85,0,.43.43,0,0,0,.42.43Z" style="fill: rgb(255, 255, 255); fill-rule: evenodd;"/><path class="cls-4" d="M186.88,46a.42.42,0,0,0,.43-.42.42.42,0,0,0-.43-.42.42.42,0,0,0-.43.42.43.43,0,0,0,.43.42Z" style="fill: rgb(255, 255, 255); fill-rule: evenodd;"/><path class="cls-4" d="M220.12,27.82a.42.42,0,0,0,.43-.42.43.43,0,0,0-.86,0,.42.42,0,0,0,.43.42Z" style="fill: rgb(255, 255, 255); fill-rule: evenodd;"/><path class="cls-4" d="M239.53,53.79a.44.44,0,0,0,.43-.43.43.43,0,0,0-.86,0,.44.44,0,0,0,.43.43Z" style="fill: rgb(255, 255, 255); fill-rule: evenodd;"/><path class="cls-4" d="M285.14,20.31a.43.43,0,1,0-.42-.43.43.43,0,0,0,.42.43Z" style="fill: rgb(255, 255, 255); fill-rule: evenodd;"/><path class="cls-4" d="M323.73,10.11a.41.41,0,0,0,.41-.42.41.41,0,0,0-.41-.42.42.42,0,0,0-.43.42.42.42,0,0,0,.43.42Z" style="fill: rgb(255, 255, 255); fill-rule: evenodd;"/><path class="cls-4" d="M296.55,51.61a.43.43,0,0,0,0-.86.43.43,0,0,0,0,.86Z" style="fill: rgb(255, 255, 255); fill-rule: evenodd;"/><path class="cls-4" d="M329.54,70.77a.43.43,0,1,0-.42-.42.42.42,0,0,0,.42.42Z" style="fill: rgb(255, 255, 255); fill-rule: evenodd;"/><path class="cls-4" d="M310.2,86.24a.43.43,0,0,0,0-.85.43.43,0,1,0,0,.85Z" style="fill: rgb(255, 255, 255); fill-rule: evenodd;"/><path class="cls-4" d="M209.75,11.75a.43.43,0,1,0-.43-.43.43.43,0,0,0,.43.43Z" style="fill: rgb(255, 255, 255); fill-rule: evenodd;"/><path class="cls-4" d="M190.34,95.7a.42.42,0,0,0,.42-.42.43.43,0,0,0-.42-.43.44.44,0,0,0-.43.43.43.43,0,0,0,.43.42Z" style="fill: rgb(255, 255, 255); fill-rule: evenodd;"/><path class="cls-4" d="M81.88,59.43a.43.43,0,1,0,0-.85.43.43,0,0,0,0,.85Z" style="fill: rgb(255, 255, 255); fill-rule: evenodd;"/><path class="cls-4" d="M11,87.58a.43.43,0,1,0-.42-.43.43.43,0,0,0,.42.43Z" style="fill: rgb(255, 255, 255); fill-rule: evenodd;"/><path class="cls-4" d="M7.93,60.19a.26.26,0,1,0-.26-.26.26.26,0,0,0,.26.26Z" style="fill: rgb(255, 255, 255); fill-rule: evenodd;"/><path class="cls-4" d="M5.2,22.54a.26.26,0,0,0,.26-.26.26.26,0,0,0-.51,0,.26.26,0,0,0,.25.26Z" style="fill: rgb(255, 255, 255); fill-rule: evenodd;"/><path class="cls-4" d="M23.16,9.92a.26.26,0,1,0-.25-.25.25.25,0,0,0,.25.25Z" style="fill: rgb(255, 255, 255); fill-rule: evenodd;"/><path class="cls-4" d="M78.24,30.06A.26.26,0,1,0,78,29.8a.25.25,0,0,0,.26.26Z" style="fill: rgb(255, 255, 255); fill-rule: evenodd;"/><path class="cls-4" d="M114.63,12.35a.26.26,0,1,0-.26-.26.26.26,0,0,0,.26.26Z" style="fill: rgb(255, 255, 255); fill-rule: evenodd;"/><path class="cls-4" d="M122.64,39a.26.26,0,0,0,.25-.26.26.26,0,0,0-.51,0,.26.26,0,0,0,.26.26Z" style="fill: rgb(255, 255, 255); fill-rule: evenodd;"/><path class="cls-4" d="M105.9,64a.26.26,0,0,0,0-.52.26.26,0,1,0,0,.52Z" style="fill: rgb(255, 255, 255); fill-rule: evenodd;"/><path class="cls-4" d="M68.52,86.34a.26.26,0,0,0,0-.52.26.26,0,0,0,0,.52Z" style="fill: rgb(255, 255, 255); fill-rule: evenodd;"/><path class="cls-4" d="M151.75,53.35a.26.26,0,1,0,0-.51.26.26,0,0,0,0,.51Z" style="fill: rgb(255, 255, 255); fill-rule: evenodd;"/><path class="cls-4" d="M189.12,79.56a.26.26,0,1,0-.26-.26.26.26,0,0,0,.26.26Z" style="fill: rgb(255, 255, 255); fill-rule: evenodd;"/><path class="cls-4" d="M234.25,88.29a.25.25,0,0,0,.25-.25.26.26,0,1,0-.51,0,.26.26,0,0,0,.26.25Z" style="fill: rgb(255, 255, 255); fill-rule: evenodd;"/><path class="cls-4" d="M234.73,69.85a.26.26,0,1,0-.26-.25.26.26,0,0,0,.26.25Z" style="fill: rgb(255, 255, 255); fill-rule: evenodd;"/><path class="cls-4" d="M212.89,43.65a.26.26,0,1,0-.25-.26.26.26,0,0,0,.25.26Z" style="fill: rgb(255, 255, 255); fill-rule: evenodd;"/><path class="cls-4" d="M253.66,31.52a.26.26,0,0,0,0-.52.26.26,0,1,0,0,.52Z" style="fill: rgb(255, 255, 255); fill-rule: evenodd;"/><path class="cls-4" d="M305.09,26.18a.26.26,0,0,0,.26-.25.26.26,0,1,0-.52,0,.26.26,0,0,0,.26.25Z" style="fill: rgb(255, 255, 255); fill-rule: evenodd;"/><path class="cls-4" d="M331.3,36.37a.26.26,0,1,0-.26-.26.25.25,0,0,0,.26.26Z" style="fill: rgb(255, 255, 255); fill-rule: evenodd;"/><path class="cls-4" d="M297.81,79.56a.26.26,0,1,0,0-.52.26.26,0,0,0,0,.52Z" style="fill: rgb(255, 255, 255); fill-rule: evenodd;"/><path class="cls-4" d="M317.23,102.85a.26.26,0,0,0,.25-.26.25.25,0,0,0-.25-.25.26.26,0,0,0-.27.25.27.27,0,0,0,.27.26Z" style="fill: rgb(255, 255, 255); fill-rule: evenodd;"/><path class="cls-4" d="M299.27,11.14a.26.26,0,1,0-.26-.26.26.26,0,0,0,.26.26Z" style="fill: rgb(255, 255, 255); fill-rule: evenodd;"/><path class="cls-4" d="M177,15a.26.26,0,1,0,0-.52.26.26,0,0,0,0,.52Z" style="fill: rgb(255, 255, 255); fill-rule: evenodd;"/><path class="cls-4" d="M148.35,7.74a.26.26,0,0,0,.26-.26.25.25,0,0,0-.26-.25.25.25,0,0,0-.25.25.26.26,0,0,0,.25.26Z" style="fill: rgb(255, 255, 255); fill-rule: evenodd;"/><path class="cls-4" d="M46.94,47.05a.26.26,0,1,0-.26-.26.26.26,0,0,0,.26.26Z" style="fill: rgb(255, 255, 255); fill-rule: evenodd;"/><path class="cls-4" d="M59.07,13.56a.26.26,0,1,0-.26-.26.26.26,0,0,0,.26.26Z" style="fill: rgb(255, 255, 255); fill-rule: evenodd;"/><path class="cls-4" d="M151.52,76.53a.42.42,0,0,0,.42-.42.43.43,0,1,0-.42.42Z" style="fill: rgb(255, 255, 255); fill-rule: evenodd;"/><path class="cls-4" d="M108.08,86.72a.42.42,0,0,0,.43-.42.43.43,0,1,0-.43.42Z" style="fill: rgb(255, 255, 255); fill-rule: evenodd;"/><path class="cls-4" d="M125.55,87.08a.26.26,0,0,0,.26-.26.26.26,0,0,0-.52,0,.26.26,0,0,0,.26.26Z" style="fill: rgb(255, 255, 255); fill-rule: evenodd;"/><path class="cls-4" d="M101.06,112.05a.26.26,0,0,0,.26-.25.26.26,0,0,0-.52,0,.26.26,0,0,0,.26.25Z" style="fill: rgb(255, 255, 255); fill-rule: evenodd;"/><path d="M 0 146.320007 H 335.98999 V 235.19001 H 0 V 146.320007 Z" class="cls-5" style="fill: url('#Névtelen_színátmenet_23');"/><path class="cls-6" d="M335.88,215.54s-.05,12.88-.05-12.88L0,205.73v9l335.85.83Z" style="opacity: 0.2; fill: url('#Névtelen_színátmenet_420');"/><path d="M 176.5399932861328 86.5199966430664 L 149.72999572753906 112.44999694824219 L 149.72999572753906 147.02999877929688 L 237.9499969482422 147.02999877929688 L 176.5399932861328 86.5199966430664 Z" class="cls-7" style="fill: url('#Névtelen_színátmenet_31');"/><path d="M 176.64999389648438 86.5199966430664 L 176.64999389648438 105.5199966430664 L 166.67999267578125 110.75 L 178.66000366210938 110.75 L 169.8300018310547 117.05999755859375 L 178.66000366210938 117.05999755859375 L 178.66000366210938 125.56999969482422 L 166.67999267578125 132.50999450683594 L 182.1300048828125 132.50999450683594 L 182.1300048828125 147.02999877929688 L 237.7100067138672 147.02999877929688 L 176.64999389648438 86.5199966430664 Z" class="cls-8" style="fill-rule: evenodd; opacity: 0.2; fill: url('#Névtelen_színátmenet_88');"/><path d="M 91.88999938964844 147.02999877929688 L 195.99000549316406 147.02999877929688 L 128.67999267578125 77.62999725341797 L 123.19000244140625 83.5199966430664 L 121.56999969482422 82.19999694824219 L 86.63999938964844 116.58999633789062 L 91.88999938964844 147.02999877929688 Z" class="cls-9" style="fill-rule: evenodd; fill: url('#Névtelen_színátmenet_20');"/><path d="M 128.58999633789062 77.61000061035156 L 128.60000610351562 99.6500015258789 L 117.02999877929688 105.70999908447266 L 130.92999267578125 105.70999908447266 L 120.69000244140625 113.02999877929688 L 130.92999267578125 113.02999877929688 L 130.92999267578125 122.91000366210938 L 117.02999877929688 130.9600067138672 L 134.9600067138672 130.9600067138672 L 134.9600067138672 147.02999877929688 L 195.99000549316406 147.02999877929688 L 128.58999633789062 77.61000061035156 Z" class="cls-10" style="fill-rule: evenodd; opacity: 0.4; fill: url('#Névtelen_színátmenet_88-2');"/><path class="cls-11" d="M195.78,147C263.53,132.52,336,129.08,336,129.08V147Z" style="fill-rule: evenodd; fill: rgb(84, 58, 135);"/><path d="M 0 147.02999877929688 L 132.44000244140625 147.02999877929688 L 46.209999084472656 58.779998779296875 L 0 101.23999786376953 L 0 147.02999877929688 Z" class="cls-12" style="fill-rule: evenodd; fill: url('#Névtelen_színátmenet_435');"/><path d="M 46.209999084472656 58.779998779296875 L 46.209999084472656 86.75 L 31.530000686645508 94.44999694824219 L 50.310001373291016 94.44999694824219 L 51.18000030517578 147.02999877929688 L 132.44000244140625 147.02999877929688 L 46.209999084472656 58.779998779296875 Z" class="cls-13" style="fill-rule: evenodd; opacity: 0.4; fill: url('#Névtelen_színátmenet_88-3');"/><g class="cls-14" style="opacity: 0.2;"><path d="M 97.1500015258789 174.3699951171875 L 97.13999938964844 174.35000610351562 L 97.08000183105469 174.3800048828125 L 97.12999725341797 174.3300018310547 L 95.55999755859375 172.07000732421875 L 93.73999786376953 172.58999633789062 L 81.93000030517578 162.25999450683594 L 31.809999465942383 182.14999389648438 L 0 165.36000061035156 L 0 147.02999877929688 L 51.18000030517578 147.02999877929688 L 91.88999938964844 147.02999877929688 L 132.44000244140625 147.02999877929688 L 134.9600067138672 147.02999877929688 L 149.72999572753906 147.02999877929688 L 182.1300048828125 147.02999877929688 L 195.99000549316406 147.02999877929688 L 97.1500015258789 174.3699951171875 Z" class="cls-15" style="fill-rule: evenodd; fill: url('#Névtelen_színátmenet_420-2');"/></g><path class="cls-16" d="M70.43,214.71V164a6.91,6.91,0,1,1,13.81,0v50.74Z" style="fill: rgb(30, 32, 69);"/><path class="cls-17" d="M74.37,214.71V164c0-5.22,3-6.91,3-6.91s3,1.69,3,6.91v50.74Z" style="fill: rgb(40, 39, 91);"/><path class="cls-16" d="M84.24,188.81a5.09,5.09,0,0,0,5.09-5.09v-7a5.09,5.09,0,1,1,10.17,0v7A15.26,15.26,0,0,1,84.24,199Z" style="fill: rgb(30, 32, 69);"/><path class="cls-17" d="M84.24,191.71a8,8,0,0,0,8-8h0v-7c0-3.84,2.18-5.09,2.18-5.09s2.18,1.25,2.18,5.09v7h0a12.35,12.35,0,0,1-12.35,12.35Z" style="fill: rgb(40, 39, 91);"/><path class="cls-16" d="M70.43,174.62a5.09,5.09,0,0,1-5.09-5.09v-7a5.09,5.09,0,0,0-10.17,0v7a15.26,15.26,0,0,0,15.26,15.26Z" style="fill: rgb(30, 32, 69);"/><path class="cls-17" d="M70.43,177.52a8,8,0,0,1-8-8h0v-7c0-3.84-2.18-5.08-2.18-5.08s-2.18,1.24-2.18,5.08v7h0a12.35,12.35,0,0,0,12.35,12.35Z" style="fill: rgb(40, 39, 91);"/><path d="M 0 214.710007 H 335.98999 V 235.190006 H 0 V 214.710007 Z" class="cls-18" style="fill: url('#Névtelen_színátmenet_421');"/><path class="cls-16" d="M303.93,235.19v-101a7.39,7.39,0,1,0-14.77,0v101Z" style="fill: rgb(30, 32, 69);"/><path class="cls-17" d="M299.71,235.19v-101c0-5.58-3.16-7.39-3.16-7.39s-3.17,1.81-3.17,7.39v101Z" style="fill: rgb(40, 39, 91);"/><path class="cls-16" d="M289.16,183.71a5.44,5.44,0,0,1-5.43-5.44V155.69a5.44,5.44,0,1,0-10.87,0v22.58a16.31,16.31,0,0,0,16.3,16.31Z" style="fill: rgb(30, 32, 69);"/><path class="cls-17" d="M289.16,186.81a8.54,8.54,0,0,1-8.54-8.54h0V155.69c0-4.11-2.33-5.44-2.33-5.44s-2.33,1.33-2.33,5.44v22.58h0a13.19,13.19,0,0,0,13.19,13.2Z" style="fill: rgb(40, 39, 91);"/><path class="cls-16" d="M303.93,168.76a5.44,5.44,0,0,0,5.44-5.44v-7.45a5.44,5.44,0,0,1,10.87,0v7.45a16.31,16.31,0,0,1-16.31,16.31Z" style="fill: rgb(30, 32, 69);"/><path class="cls-17" d="M303.93,171.86a8.54,8.54,0,0,0,8.55-8.54h0v-7.45c0-4.1,2.33-5.43,2.33-5.43s2.32,1.33,2.32,5.43v7.45h0a13.2,13.2,0,0,1-13.2,13.2Z" style="fill: rgb(40, 39, 91);"/><path class="cls-19" d="M47.69,130.61a2.33,2.33,0,0,0-2.33,2.33v44l0,.07a2.08,2.08,0,0,1-1.86,1.2,5.56,5.56,0,0,1-2.6-.58l-.11-.1V115.37c0-2.47-.62-3.57-2.15-3.77l-.09.67-.16-.7-.24,0H38c-1.42.2-2,1.35-2,3.82v62.12l-.11.1a5.5,5.5,0,0,1-2.58.58,2.08,2.08,0,0,1-1.88-1.2l0-50.6a2.33,2.33,0,1,0-4.66,0V167.8l-.09.1a2.12,2.12,0,0,1-1.47.55c-1,0-1.74-.58-1.74-1.35V150.46a2.34,2.34,0,0,0-4.67,0v19.23c.06,4.65,4.15,6.44,7.63,6.56h.33v3.15c.06,4.34,3.88,5,7.62,5h.1l1.07-.3V214.6h5.71V184.09l1.07.3h.1c3.73,0,7.56-.64,7.62-5V132.94A2.34,2.34,0,0,0,47.69,130.61Z" style="fill: rgb(30, 33, 70);"/><path class="cls-19" d="M188.05,151.61a2.72,2.72,0,0,0-2.71,2.71v56.15s-2.27,4.69-7.29,4.69c-4.13,0-6-1.78-6.58-2.4a.68.68,0,0,1-.13-.12v-12.5l1.25.35h.12c4.33,0,8.78-.75,8.85-5.8v-68.5a2.71,2.71,0,1,0-5.42,0v65.58l0,.08a2.42,2.42,0,0,1-2.17,1.4,6.37,6.37,0,0,1-3-.67l-.12-.12V120.24c0-2.88-.72-4.15-2.5-4.39l-.11.78-.19-.82-.28,0-.11,0c-1.65.23-2.36,1.56-2.36,4.44v86.35l-.12.12a5,5,0,0,1-2.67.67,3,3,0,0,1-2.52-1.4l0-72.95a2.71,2.71,0,0,0-5.42,0v43l-.1.11a2.48,2.48,0,0,1-1.7.64c-1.16,0-2-.67-2-1.56V144a2.71,2.71,0,1,0-5.42,0v34.16c.07,5.41,4.82,7.49,8.87,7.63h.38v23c.06,5.05,5.67,6.34,10.22,5.45v21.34h6.63V220.08c.29.15,2,.95,7,.95,5.56,0,12.37-4.8,12.37-10V154.32A2.71,2.71,0,0,0,188.05,151.61ZM171.34,220Z" style="fill: rgb(30, 33, 70);"/><path d="M 0 229.630005 H 335.98999 V 235.610005 H 0 V 229.630005 Z" class="cls-19" style="fill: rgb(30, 33, 70);"/><path class="cls-19" d="M96,208l0,0a6.91,6.91,0,0,0,.17-.76l.06,0,.07,0,.12-.09.2-.2a2.14,2.14,0,0,0,.32-.45c-.16.1-.3.21-.45.32l-.21.15-.06,0a8.44,8.44,0,0,0,.13-1.5A10.75,10.75,0,0,1,96,206.9l0-.06c-.06-.06-.11-.13-.17-.2a4.47,4.47,0,0,0-.35-.41,2.68,2.68,0,0,0,.34.75l.09.12.07.06h0c-.06.23-.13.47-.21.71h0l-.12-.23-.28-.47a2.35,2.35,0,0,0,.1.54,2,2,0,0,0,.1.26.57.57,0,0,0,.08.13l0,.06c-.08.22-.15.44-.24.65v0l-.09-.21c-.08-.17-.15-.33-.24-.49a2.06,2.06,0,0,0,.06.55,1.29,1.29,0,0,0,.08.26.42.42,0,0,0,.06.14v0l-.27.63a1.8,1.8,0,0,1-.08-.21c-.07-.17-.13-.34-.21-.5a2.56,2.56,0,0,0,0,.55,2.68,2.68,0,0,0,.07.27,1.21,1.21,0,0,0,0,.14v0c-.06.12-.12.25-.19.37a1.09,1.09,0,0,0-.08.15l-.06-.18c0-.17-.09-.34-.15-.52a2,2,0,0,0,0,.55,1.45,1.45,0,0,0,0,.28.7.7,0,0,0,0,.14h0l-.34.53a1.85,1.85,0,0,0,0-.23,3.51,3.51,0,0,0-.1-.53,2,2,0,0,0-.08.54,2.62,2.62,0,0,0,0,.28l0,.15v0l-.19.24a2.2,2.2,0,0,1-.2.23c0-.07,0-.14,0-.21a4.93,4.93,0,0,0,0-.54,2.44,2.44,0,0,0-.14.53,1.27,1.27,0,0,0,0,.28v.17c-.15.15-.31.3-.48.44,0-.09,0-.17,0-.26a4.87,4.87,0,0,0,0-.54,2,2,0,0,0-.19.51,1.26,1.26,0,0,0-.05.28.76.76,0,0,0,0,.15.06.06,0,0,0,0,0l-.61.46c0-.09,0-.17,0-.26s0-.27,0-.41l.12-.07h-.12v-.07a.25.25,0,0,1,0,.07l-.38,0-.26,0h0c.12-.17.24-.35.35-.53l0-.05h0a.58.58,0,0,0,.14,0,1.43,1.43,0,0,0,.27-.09,2.23,2.23,0,0,0,.48-.26,4.68,4.68,0,0,0-.54.08l-.24,0c.13-.2.25-.41.37-.61h.06l.14,0,.26-.1a2.83,2.83,0,0,0,.47-.29,4.13,4.13,0,0,0-.53.11l-.25.06c.12-.21.23-.42.34-.63h0l.15,0a1.36,1.36,0,0,0,.25-.11,2,2,0,0,0,.46-.3,4.56,4.56,0,0,0-.53.13l-.22.06.14-.28c.06-.14.13-.28.19-.43h0a.46.46,0,0,0,.14-.05l.25-.13a2,2,0,0,0,.44-.33,4.48,4.48,0,0,0-.52.16l-.19.07c.11-.27.21-.55.31-.83l.11-.06.22-.16a2.13,2.13,0,0,0,.38-.41l-.49.25-.12.07c.07-.23.13-.47.19-.7v0l.12-.08a1.2,1.2,0,0,0,.21-.17,2.47,2.47,0,0,0,.37-.42,5.46,5.46,0,0,0-.48.27L94,207a6.59,6.59,0,0,0,.1-.76h0l.11-.09a1.24,1.24,0,0,0,.19-.21,2.47,2.47,0,0,0,.31-.46,5,5,0,0,0-.44.33l-.16.13c0-.21,0-.43,0-.64s0-.15,0-.22l0,0,.1-.1c.06-.08.12-.15.17-.23a2.3,2.3,0,0,0,.24-.5l-.39.38-.17.17a.86.86,0,0,0,0-.16c0-.2,0-.39-.06-.59l0,0a.47.47,0,0,0,.09-.12c.05-.08.1-.16.14-.24a2.47,2.47,0,0,0,.18-.52l-.34.42-.15.2c0-.25-.08-.49-.13-.74a.1.1,0,0,0,0-.05.42.42,0,0,0,.08-.12,1.51,1.51,0,0,0,.12-.26,2.94,2.94,0,0,0,.14-.53c-.12.15-.21.3-.31.45l-.13.21-.18-.72,0-.05.08-.12c0-.09.08-.17.11-.26a2,2,0,0,0,.13-.53c-.11.14-.2.3-.3.45l-.13.22c-.06-.21-.12-.43-.17-.64h0l.06-.06a.83.83,0,0,0,.08-.12,2,2,0,0,0,.13-.25,2.49,2.49,0,0,0,.16-.53,4.48,4.48,0,0,0-.32.44c-.06.07-.1.14-.15.21l0,0a.29.29,0,0,1,0-.09,5.58,5.58,0,0,1-.08-.57h0l.06-.05.1-.11a1.19,1.19,0,0,0,.16-.23,2.23,2.23,0,0,0,.24-.49,4.54,4.54,0,0,0-.38.38c-.07.06-.12.13-.18.19l0,0c0-.15,0-.3,0-.45a2.11,2.11,0,0,1,0-.25h0l.08,0,.11-.09.19-.2a2.34,2.34,0,0,0,.3-.47,5.36,5.36,0,0,0-.43.33l-.21.17-.06,0a6.76,6.76,0,0,1,.1-.77h.07l.08,0,.12-.08a1.84,1.84,0,0,0,.22-.17,1.82,1.82,0,0,0,.36-.42c-.16.08-.32.18-.47.27l-.23.13-.1.06h0c.07-.36.15-.73.23-1.09-.12.36-.22.71-.31,1.07h0a.31.31,0,0,1-.07-.09c-.06-.07-.1-.15-.15-.22s-.19-.3-.31-.45a2.52,2.52,0,0,0,.14.54l.12.25.08.12.06.07,0,0,0,0c-.06.26-.1.52-.14.78l-.07-.07-.18-.19a4.49,4.49,0,0,0-.37-.4,2.31,2.31,0,0,0,.22.51,1.6,1.6,0,0,0,.16.23.48.48,0,0,0,.09.11l.07.06,0,0h0l0,.25a3.84,3.84,0,0,0,0,.48l0,0-.2-.17c-.13-.11-.27-.23-.42-.34a2,2,0,0,0,.28.47,1.9,1.9,0,0,0,.19.21.52.52,0,0,0,.11.1l.07,0h0q0,.3.06.6a.2.2,0,0,0,0,.07h0l-.22-.14c-.15-.09-.3-.19-.46-.27a2,2,0,0,0,.35.42,1.24,1.24,0,0,0,.21.18L93,201l.07,0c0,.23.09.46.14.68h0l-.23-.13-.48-.25a2.05,2.05,0,0,0,.37.41l.22.17.13.07.06,0c.06.24.11.47.16.71l-.21-.12a5.22,5.22,0,0,0-.47-.26,2,2,0,0,0,.36.41c.07.07.15.12.22.18l.13.07h0l.06.29c0,.14,0,.28,0,.42l-.17-.12a5,5,0,0,0-.45-.3,2,2,0,0,0,.33.44,1.8,1.8,0,0,0,.2.19l.12.09h0c0,.2,0,.4,0,.6,0,0,0,.07,0,.11l-.15-.12a4.71,4.71,0,0,0-.41-.35,2.2,2.2,0,0,0,.27.47,1.29,1.29,0,0,0,.19.21.52.52,0,0,0,.11.1h0a5.63,5.63,0,0,1,0,.82l-.13-.15c-.12-.13-.24-.27-.37-.4a1.92,1.92,0,0,0,.22.51,1.14,1.14,0,0,0,.15.23.52.52,0,0,0,.1.11v0a5.93,5.93,0,0,1-.1.72l-.12-.18a3.19,3.19,0,0,0-.31-.44,2,2,0,0,0,.15.53,1.15,1.15,0,0,0,.12.25.83.83,0,0,0,.08.12l0,0h0a7.27,7.27,0,0,1-.2.77h0l-.14-.22c-.09-.15-.18-.31-.29-.46a2.48,2.48,0,0,0,.12.54,1.89,1.89,0,0,0,.11.25.57.57,0,0,0,.08.13l0,0q-.12.38-.27.75l-.08-.21a5.44,5.44,0,0,0-.22-.5,2,2,0,0,0,0,.55,1.31,1.31,0,0,0,.06.27.84.84,0,0,0,.06.14l0,0-.18.41-.12.24-.06-.19a5.44,5.44,0,0,0-.19-.52,2.53,2.53,0,0,0,0,.55,2.33,2.33,0,0,0,0,.28.78.78,0,0,0,0,.14v0c-.1.21-.2.41-.31.6l-.06-.2c0-.17-.1-.35-.16-.52a1.7,1.7,0,0,0,0,.55,1.45,1.45,0,0,0,0,.28.74.74,0,0,0,0,.14s0,0,0,0c-.12.21-.23.42-.36.63,0-.08,0-.17-.06-.26s-.08-.34-.14-.52a2,2,0,0,0,0,.55c0,.09,0,.18,0,.28a1,1,0,0,0,0,.14.13.13,0,0,0,0,.08l0,0c-.09.16-.2.33-.31.49,0-.07,0-.15,0-.23S91,212,91,211.79a2,2,0,0,0-.07.55,2.44,2.44,0,0,0,0,.27l0,.15s0,0,0,.05c-.27.4-.55.8-.82,1.18v-2.3h0l.13-.13a2.56,2.56,0,0,0,.2-.26,2.16,2.16,0,0,0,.31-.58c-.17.14-.32.29-.48.44l-.18.17v-.61l.08-.05a1.36,1.36,0,0,0,.12-.12,2.39,2.39,0,0,0,.21-.26,2.93,2.93,0,0,0,.31-.58c-.17.14-.33.29-.48.43l-.23.22h0v-.63l0,0,.13-.12a2.56,2.56,0,0,0,.2-.26,2.16,2.16,0,0,0,.31-.58c-.17.14-.32.29-.48.44l-.2.19v-.61h0l.09-.06a1.36,1.36,0,0,0,.12-.12,2.39,2.39,0,0,0,.21-.26,2.93,2.93,0,0,0,.31-.58c-.17.14-.33.29-.48.43l-.23.22,0,0v-.63l.06,0,.13-.12a2.56,2.56,0,0,0,.2-.26,2.16,2.16,0,0,0,.31-.58c-.17.14-.32.29-.48.44l-.22.21v-.62l0,0,.09-.06.12-.12a2.39,2.39,0,0,0,.21-.26,2.93,2.93,0,0,0,.31-.58c-.17.14-.33.29-.48.43l-.23.22,0,0v-.63l.07-.06.13-.12a2.56,2.56,0,0,0,.2-.26,2.16,2.16,0,0,0,.31-.58c-.17.14-.32.29-.48.44l-.22.21h0c0-.19,0-.4,0-.63l0,0,.09-.06.12-.12a2.39,2.39,0,0,0,.21-.26,2.93,2.93,0,0,0,.31-.58c-.17.14-.33.29-.48.43l-.23.22-.06.05c0-.2,0-.41,0-.64h0l.08-.06.13-.12a2.56,2.56,0,0,0,.2-.26,2.16,2.16,0,0,0,.31-.58c-.17.14-.32.29-.48.44l-.22.21,0,0v-.63h0l.05,0,.09-.06.12-.12a2.39,2.39,0,0,0,.21-.26,2.93,2.93,0,0,0,.31-.58c-.17.14-.33.29-.48.43l-.23.22-.08.06v-.64h0l.08-.06.13-.12c.07-.09.14-.17.2-.26a2.16,2.16,0,0,0,.31-.58c-.17.14-.32.29-.48.43s-.15.15-.22.22l0,0v-.64h0l.05,0,.09-.06.12-.12a2.39,2.39,0,0,0,.21-.26,2.93,2.93,0,0,0,.31-.58c-.17.14-.33.29-.48.43l-.23.22-.1.08v-.65l0,0,.08-.06.13-.12c.07-.09.14-.17.2-.26a2.16,2.16,0,0,0,.31-.58c-.17.14-.32.29-.48.43s-.15.15-.22.22l-.07.05c0-.22,0-.44,0-.65h0l.05,0,.09-.06.12-.12a2.39,2.39,0,0,0,.21-.26,2.93,2.93,0,0,0,.31-.58c-.17.14-.33.29-.48.43l-.23.22-.11.09h0c0-.24,0-.46,0-.66h0l.06,0,.08-.06.13-.12c.07-.09.14-.17.2-.26a2.16,2.16,0,0,0,.31-.58c-.17.14-.32.29-.48.43s-.15.15-.22.22l-.1.08c0-.39,0-.66,0-.76,0,.11,0,.39,0,.8h0l-.05,0a.87.87,0,0,1-.11-.09c-.08-.06-.15-.14-.23-.21a5.12,5.12,0,0,0-.48-.44,2.93,2.93,0,0,0,.31.58,1.71,1.71,0,0,0,.21.26.74.74,0,0,0,.12.13l.09.05a.23.23,0,0,0,.14,0c0,.2,0,.41,0,.63l-.1-.08-.22-.21c-.15-.15-.31-.3-.48-.44a2.49,2.49,0,0,0,.31.58,2.56,2.56,0,0,0,.2.26l.13.12.08.06.07,0c0,.23,0,.46,0,.71h0a.44.44,0,0,1-.11-.09c-.08-.06-.15-.14-.23-.21a5.12,5.12,0,0,0-.48-.44,2.93,2.93,0,0,0,.31.58,1.71,1.71,0,0,0,.21.26.74.74,0,0,0,.12.13l.09,0a.19.19,0,0,0,.09,0c0,.19,0,.39,0,.6l-.06-.05-.22-.21c-.15-.15-.31-.3-.48-.44a5.43,5.43,0,0,0,.51.84l.13.12.08.06,0,0c0,.23,0,.46,0,.69l-.08-.07c-.08-.06-.15-.14-.23-.21a5.12,5.12,0,0,0-.48-.44,2.93,2.93,0,0,0,.31.58,1.71,1.71,0,0,0,.21.26.74.74,0,0,0,.12.13l.09.06,0,0c0,.19,0,.38,0,.57h0l-.22-.21c-.15-.15-.31-.3-.48-.44a2.49,2.49,0,0,0,.31.58,2.56,2.56,0,0,0,.2.26l.13.13.07.05c0,.23,0,.46,0,.68l0,0c-.08-.06-.15-.14-.23-.21a5.12,5.12,0,0,0-.48-.44,2.93,2.93,0,0,0,.31.58,1.71,1.71,0,0,0,.21.26.74.74,0,0,0,.12.13l.09.06h0v.56l-.2-.19c-.15-.15-.31-.3-.48-.44a2.49,2.49,0,0,0,.31.58,2.56,2.56,0,0,0,.2.26,1.59,1.59,0,0,0,.13.13l0,0c0,.25,0,.48,0,.68h0c-.08-.06-.15-.14-.23-.21a5.12,5.12,0,0,0-.48-.44,2.93,2.93,0,0,0,.31.58,1.71,1.71,0,0,0,.21.26.74.74,0,0,0,.12.13l.07,0v.55l-.17-.16c-.15-.15-.31-.3-.48-.44a2.49,2.49,0,0,0,.31.58,2.56,2.56,0,0,0,.2.26.8.8,0,0,0,.13.13h0v.69c-.08-.06-.15-.14-.23-.21a5.12,5.12,0,0,0-.48-.44,2.93,2.93,0,0,0,.31.58,1.71,1.71,0,0,0,.21.26.74.74,0,0,0,.12.13l.07,0v.57l-.19-.18c-.15-.15-.31-.3-.48-.44a2.49,2.49,0,0,0,.31.58,2.56,2.56,0,0,0,.2.26.8.8,0,0,0,.13.13l0,0v.69l0,0c-.08-.06-.15-.14-.23-.21a5.12,5.12,0,0,0-.48-.44,2.93,2.93,0,0,0,.31.58,1.71,1.71,0,0,0,.21.26.74.74,0,0,0,.12.13l.09.06h0v.57l-.21-.2c-.15-.15-.31-.3-.48-.44a2.49,2.49,0,0,0,.31.58,2.56,2.56,0,0,0,.2.26.8.8,0,0,0,.13.13l0,0v.69l0,0c-.08-.06-.15-.14-.23-.21a5.12,5.12,0,0,0-.48-.44,2.93,2.93,0,0,0,.31.58,1.78,1.78,0,0,0,.21.27l.12.12.09.06h0l0,2.22a.62.62,0,0,0,0,.13c-.28-.42-.59-.85-.89-1.28a.08.08,0,0,0,0-.05.8.8,0,0,0,0-.15,1.22,1.22,0,0,0,0-.27,2,2,0,0,0-.07-.55c-.05.18-.08.36-.11.53s0,.16,0,.23c-.11-.16-.22-.33-.31-.49l0,0,0-.08,0-.14c0-.1,0-.19,0-.28a2.5,2.5,0,0,0,0-.55c-.06.18-.1.35-.14.52l-.06.26-.36-.63,0,0s0-.09,0-.14,0-.19,0-.28a2.53,2.53,0,0,0,0-.55,5.25,5.25,0,0,0-.17.52l-.06.2c-.11-.19-.21-.39-.31-.6l0,0a.74.74,0,0,0,0-.14,2.33,2.33,0,0,0,0-.28,2.53,2.53,0,0,0,0-.55,5.34,5.34,0,0,0-.18.52,1.46,1.46,0,0,0-.07.19l-.12-.24-.18-.41,0,0a.78.78,0,0,0,0-.14,2.68,2.68,0,0,0,.07-.27,2,2,0,0,0,0-.55,5.32,5.32,0,0,0-.21.5l-.09.21q-.15-.37-.27-.75l0,0a.54.54,0,0,0,.07-.13,1.89,1.89,0,0,0,.11-.25,2,2,0,0,0,.12-.54c-.11.15-.2.31-.29.46a2.53,2.53,0,0,0-.13.22h0c-.07-.26-.15-.51-.2-.77h0l0,0,.08-.12.12-.25a2,2,0,0,0,.14-.53c-.11.14-.21.29-.31.44l-.12.18c0-.24-.08-.48-.1-.72l0,0a.48.48,0,0,0,.09-.11,1.88,1.88,0,0,0,.16-.23,2.28,2.28,0,0,0,.21-.51c-.13.13-.25.27-.37.4l-.13.15c0-.27,0-.54,0-.82h0l.11-.1.18-.21a2.78,2.78,0,0,0,.28-.47,4.87,4.87,0,0,0-.42.35l-.15.12a.45.45,0,0,0,0-.11c0-.2,0-.4,0-.6h0l.12-.09.21-.19a3,3,0,0,0,.33-.44,5.21,5.21,0,0,0-.46.3l-.17.12c0-.14,0-.28.06-.42a2.93,2.93,0,0,1,0-.29h0l.13-.07a1.92,1.92,0,0,0,.22-.18,2.08,2.08,0,0,0,.37-.41,5.42,5.42,0,0,0-.48.26l-.21.12c0-.24.1-.47.16-.71l.06,0,.13-.07.22-.17a2.46,2.46,0,0,0,.38-.41l-.48.25-.23.13h0l.15-.68.06,0a.57.57,0,0,0,.13-.08l.21-.18a2.79,2.79,0,0,0,.35-.42,5.26,5.26,0,0,0-.47.27l-.22.14h0a.64.64,0,0,1,0-.07c0-.2,0-.4,0-.6h0l.07,0a.58.58,0,0,0,.12-.1,1.81,1.81,0,0,0,.18-.21,2,2,0,0,0,.28-.47c-.15.11-.28.23-.42.34l-.2.17s0,0,0,0c0-.16,0-.32,0-.48l0-.25h0l0,0L87,199a.52.52,0,0,0,.1-.11c0-.08.11-.15.15-.23a2.31,2.31,0,0,0,.22-.51c-.13.13-.25.27-.37.4l-.17.19-.07.07q-.06-.39-.15-.78l0,0,0,0,.06-.07.08-.12a1.87,1.87,0,0,0,.12-.25,2,2,0,0,0,.14-.54l-.31.45-.14.22a.73.73,0,0,1-.08.09h0c-.09-.36-.19-.71-.3-1.07.08.36.15.73.22,1.09h0l-.11-.06-.23-.13a5.26,5.26,0,0,0-.47-.27,2.1,2.1,0,0,0,.36.42,1.84,1.84,0,0,0,.22.17.57.57,0,0,0,.13.08l.08,0h.07c0,.26.07.51.09.77l-.06,0-.2-.17-.43-.33a2.29,2.29,0,0,0,.29.47l.19.2.12.09.07,0h0c0,.08,0,.17,0,.25a3.38,3.38,0,0,1,0,.45l0,0-.18-.19a4.68,4.68,0,0,0-.39-.38,2.23,2.23,0,0,0,.24.49,1.88,1.88,0,0,0,.16.23l.1.11a.18.18,0,0,0,.07.05h0a3.72,3.72,0,0,1-.08.57.29.29,0,0,1,0,.09l0,0-.15-.21a4.59,4.59,0,0,0-.33-.44,2.49,2.49,0,0,0,.16.53l.13.25a.83.83,0,0,0,.08.12l.06.06h0c0,.21-.11.43-.16.64l-.14-.22A4.4,4.4,0,0,0,86,201a2.42,2.42,0,0,0,.13.53c0,.09.07.17.11.26l.08.12,0,.05q-.1.36-.18.72l-.14-.21q-.14-.22-.3-.45a2.28,2.28,0,0,0,.13.53c0,.09.08.17.12.26a.83.83,0,0,0,.08.12l0,.05c0,.25-.09.49-.12.74-.06-.06-.1-.13-.16-.2a4.18,4.18,0,0,0-.34-.42,2.47,2.47,0,0,0,.18.52c0,.08.09.16.14.24l.09.12,0,0-.06.59s0,.11,0,.16l-.17-.17c-.12-.12-.24-.25-.39-.38a2.34,2.34,0,0,0,.25.5,1.6,1.6,0,0,0,.16.23l.1.1,0,0c0,.07,0,.14,0,.22s0,.43,0,.64l-.17-.13c-.14-.11-.28-.23-.43-.33a2,2,0,0,0,.3.46,1.9,1.9,0,0,0,.19.21l.12.09h0a6.59,6.59,0,0,0,.1.76l-.17-.1a5.26,5.26,0,0,0-.47-.27,2.05,2.05,0,0,0,.36.42,1.73,1.73,0,0,0,.21.17l.12.08v0c.05.23.11.47.18.7l-.12-.07c-.16-.08-.31-.17-.49-.25a2.13,2.13,0,0,0,.38.41,1.88,1.88,0,0,0,.23.16l.11.06c.09.28.19.56.3.83l-.19-.07a4.48,4.48,0,0,0-.52-.16,2,2,0,0,0,.44.33l.25.13.14.05h0c.07.15.13.29.2.43a2.44,2.44,0,0,0,.14.28l-.23-.06a4.11,4.11,0,0,0-.53-.13,2.27,2.27,0,0,0,.46.3,1.19,1.19,0,0,0,.26.11l.14,0h0c.11.21.22.42.34.63l-.24-.06a4.69,4.69,0,0,0-.54-.11,3.31,3.31,0,0,0,.47.29l.26.1.15,0h0c.12.2.24.41.37.61l-.24,0a4.37,4.37,0,0,0-.54-.08,2.3,2.3,0,0,0,.49.26,1.14,1.14,0,0,0,.26.09.66.66,0,0,0,.15,0h0l0,.05c.11.18.24.36.35.53h0l-.26,0-.38,0a.25.25,0,0,0,0-.07v.07h-.12l.13.07c0,.14,0,.28,0,.41a2.28,2.28,0,0,1,0,.26c-.2-.15-.41-.3-.6-.46v-.19c0-.1,0-.19,0-.28a3.13,3.13,0,0,0-.19-.51,4.86,4.86,0,0,0,0,.54c0,.09,0,.17,0,.26-.17-.14-.32-.29-.48-.44v0c0-.06,0-.1,0-.15a2.4,2.4,0,0,0,0-.28,2,2,0,0,0-.14-.53,3.27,3.27,0,0,0,0,.54c0,.07,0,.14,0,.21s-.13-.15-.2-.23L86,211.6s0,0,0,0a.77.77,0,0,0,0-.15,2.62,2.62,0,0,0,0-.28,2.54,2.54,0,0,0-.09-.54c0,.18-.07.36-.1.53a1.85,1.85,0,0,1,0,.23c-.12-.18-.23-.35-.33-.53h0a.74.74,0,0,0,0-.14c0-.1,0-.19,0-.28a2.53,2.53,0,0,0,0-.55,3.84,3.84,0,0,0-.16.52,1.21,1.21,0,0,0,0,.18l-.09-.15c-.06-.12-.12-.25-.19-.37l0,0c0-.05,0-.1,0-.14a2.61,2.61,0,0,0,.06-.27,2,2,0,0,0,0-.55,4.34,4.34,0,0,0-.2.5,1.8,1.8,0,0,0-.08.21c-.1-.21-.19-.42-.28-.63l0,0,.06-.14a2.58,2.58,0,0,0,.08-.26,2.05,2.05,0,0,0,0-.55,4.37,4.37,0,0,0-.23.49c0,.07-.06.14-.1.21v0c-.09-.21-.16-.43-.24-.65l0-.06a.54.54,0,0,0,.07-.13,2,2,0,0,0,.1-.26,2.35,2.35,0,0,0,.11-.54,3.87,3.87,0,0,0-.28.47l-.13.23h0l-.21-.71h0l.06-.06.09-.12a1.2,1.2,0,0,0,.15-.24,2.23,2.23,0,0,0,.19-.51,4.47,4.47,0,0,0-.35.41c-.06.07-.11.14-.17.2l0,.06a12.48,12.48,0,0,1-.29-1.48,9.5,9.5,0,0,0,.13,1.5l-.06,0-.21-.15a5.15,5.15,0,0,0-.45-.32,2.14,2.14,0,0,0,.32.45l.2.2.12.09.07,0,.06,0c0,.25.1.51.17.76l0,0-.24-.12-.49-.23a2.06,2.06,0,0,0,.39.39,1.88,1.88,0,0,0,.23.16l.13.07.08,0h0c.06.22.12.44.19.66,0,0,0,.05,0,.08h0l-.24-.09a3.84,3.84,0,0,0-.51-.19,2.3,2.3,0,0,0,.42.35,2,2,0,0,0,.25.14l.13.06h.08c.08.22.16.43.25.64l-.22-.08c-.17,0-.34-.11-.52-.15a2,2,0,0,0,.44.32l.25.13.14,0h0l.18.38.12.2-.24-.05-.54-.11a2.36,2.36,0,0,0,.48.29l.26.1.14,0h0a3.3,3.3,0,0,0,.18.32l.13.21-.18,0a3.31,3.31,0,0,0-.55-.05,2.5,2.5,0,0,0,.5.23l.27.07.14,0,.21.28.22.24h-.2a3.39,3.39,0,0,0-.55,0,2.52,2.52,0,0,0,.53.17,1.28,1.28,0,0,0,.27,0h.17l.45.42h-.16a5,5,0,0,0-.54.06,2,2,0,0,0,.53.13l.28,0h.15l.17.13.46.31-.2,0-.54.09a2.56,2.56,0,0,0,.54.1h.28l.15,0,0,0,.6.38-.25.07c-.17,0-.34.08-.52.14a2,2,0,0,0,.55,0l.28,0,.14,0,.06,0,.68.44h.9l.67-.44.06,0,.15,0a1.24,1.24,0,0,0,.27,0,2,2,0,0,0,.55,0,5,5,0,0,0-.52-.14l-.25-.07.61-.38,0,0,.15,0h.28a2.56,2.56,0,0,0,.54-.1l-.53-.09-.2,0,.45-.31.17-.13H93l.28,0a2.12,2.12,0,0,0,.54-.13l-.54-.06H93.1l.46-.42h.16a1.26,1.26,0,0,0,.28,0,2.43,2.43,0,0,0,.52-.17,3.29,3.29,0,0,0-.54,0h-.2l.21-.24c.08-.09.15-.19.22-.28l.13,0,.27-.07a2.5,2.5,0,0,0,.5-.23,3.1,3.1,0,0,0-.54.05l-.19,0,.14-.21.18-.32h0l.15,0,.26-.1a2.59,2.59,0,0,0,.47-.29l-.53.11-.24.05c0-.06.08-.13.11-.2l.18-.38h0l.14,0,.25-.13a2.31,2.31,0,0,0,.45-.32c-.18,0-.35.1-.52.15l-.23.08c.09-.21.17-.42.25-.64h.08l.14-.06.24-.14a2,2,0,0,0,.42-.35,4.45,4.45,0,0,0-.51.19l-.24.09h0l0-.08c.07-.22.14-.44.2-.66h0l.08,0,.13-.07a1.88,1.88,0,0,0,.23-.16,1.8,1.8,0,0,0,.39-.39l-.49.23A2.53,2.53,0,0,1,96,208Zm-6.25,6.71c-.24-.2-.5-.38-.75-.56a.17.17,0,0,0,0-.07.32.32,0,0,0,0-.14,1.22,1.22,0,0,0-.09-.27,2.27,2.27,0,0,0-.27-.48,4.34,4.34,0,0,0,.09.54,2.21,2.21,0,0,1,0,.25l-.56-.38s0,0,0-.05,0-.1,0-.15a2.68,2.68,0,0,0-.07-.27,2.08,2.08,0,0,0-.12-.32,1.39,1.39,0,0,0,.28.12,1.12,1.12,0,0,0,.26.08l.15,0h.09c.33.49.66,1,1,1.45l.07.09A1,1,0,0,0,89.73,214.66Zm2.1-1.58a2.68,2.68,0,0,0-.07.27c0,.05,0,.1,0,.15v.05l-.56.38c0-.08,0-.17,0-.25a4.32,4.32,0,0,0,.1-.54,2.31,2.31,0,0,0-.28.48,2.14,2.14,0,0,0-.09.27l0,.14v.07c-.26.18-.51.36-.76.56l-.05-.1v-.07l0-.06c.34-.48.68-1,1-1.45h.08l.15,0a1.38,1.38,0,0,0,.27-.08,1.69,1.69,0,0,0,.28-.12A2.15,2.15,0,0,0,91.83,213.08Z" style="fill: rgb(30, 33, 70);"/><path class="cls-20" d="M281,210.2h0a3.81,3.81,0,0,0,.12-.51h0l.05,0,.08-.06.13-.14a1.61,1.61,0,0,0,.21-.3l-.3.21-.14.11,0,0a6.76,6.76,0,0,0,.09-1,7,7,0,0,1-.2,1l0,0-.11-.13a3.22,3.22,0,0,0-.24-.28,1.71,1.71,0,0,0,.13.34.86.86,0,0,0,.1.16l.06.08,0,0h0c0,.16-.09.32-.14.47h0l-.09-.16a2.59,2.59,0,0,0-.19-.31,1.35,1.35,0,0,0,.08.36,1.27,1.27,0,0,0,.06.18l.05.09,0,0c-.05.15-.1.3-.16.44v0l-.06-.14c0-.11-.1-.22-.16-.33a1.5,1.5,0,0,0,0,.37,1.21,1.21,0,0,0,0,.18l0,.09v0c-.05.14-.12.28-.18.42a1.21,1.21,0,0,1-.05-.14c0-.12-.09-.23-.14-.34a2.29,2.29,0,0,0,0,.37,1.21,1.21,0,0,0,.05.18.32.32,0,0,0,0,.09v0c0,.08-.08.17-.13.25l-.06.1,0-.12c0-.12-.06-.23-.1-.35a1.15,1.15,0,0,0,0,.37,1.1,1.1,0,0,0,0,.18.29.29,0,0,0,0,.1h0c-.07.13-.15.24-.23.36,0,0,0-.1,0-.15s0-.24-.07-.36a1.51,1.51,0,0,0-.06.36,1.15,1.15,0,0,0,0,.19s0,.06,0,.1v0l-.12.16-.14.15a.71.71,0,0,0,0-.14,2.19,2.19,0,0,0,0-.36,1.06,1.06,0,0,0-.09.35,1.37,1.37,0,0,0,0,.19.34.34,0,0,0,0,.1h0c-.1.11-.21.2-.32.3a1,1,0,0,1,0-.17c0-.12,0-.24,0-.37a1.48,1.48,0,0,0-.13.35l0,.18s0,.07,0,.1v0c-.13.11-.27.21-.41.31a1,1,0,0,1,0-.17,2.46,2.46,0,0,0,0-.28l.08,0h-.08v0s0,0,0,0l-.26,0-.17,0h0c.08-.12.16-.23.23-.35l0,0h0l.1,0a.64.64,0,0,0,.18-.06,1.41,1.41,0,0,0,.32-.17l-.36,0-.16,0,.25-.4h0l.1,0,.18-.07a1.44,1.44,0,0,0,.31-.19,2.29,2.29,0,0,0-.36.07l-.16,0,.23-.42h0l.09,0,.17-.07a1.69,1.69,0,0,0,.31-.21,3.58,3.58,0,0,0-.35.09l-.15,0,.09-.19a2.55,2.55,0,0,0,.13-.29h0l.1,0a2.31,2.31,0,0,0,.46-.31,2.89,2.89,0,0,0-.35.11l-.13,0c.08-.19.14-.37.21-.56l.07,0,.15-.11a1.6,1.6,0,0,0,.25-.27l-.32.17-.09,0c.05-.15.09-.31.13-.47v0l.08-.05.15-.12a1.55,1.55,0,0,0,.24-.27l-.32.17-.11.07a4.43,4.43,0,0,0,.06-.51h0a.27.27,0,0,0,.08-.07.8.8,0,0,0,.13-.13,1.49,1.49,0,0,0,.2-.31,3.15,3.15,0,0,0-.29.22l-.11.09c0-.15,0-.3,0-.44s0-.09,0-.14h0a.46.46,0,0,1,.07-.07.91.91,0,0,0,.11-.16,1.68,1.68,0,0,0,.16-.33l-.26.26-.11.11a.37.37,0,0,1,0-.11c0-.13,0-.26,0-.39l0,0,.06-.08.09-.16a1.45,1.45,0,0,0,.12-.35l-.23.28a.64.64,0,0,1-.1.13,4.63,4.63,0,0,0-.09-.49l0,0a.47.47,0,0,0,.06-.09c0-.05.05-.11.08-.17a2,2,0,0,0,.09-.35c-.08.1-.14.2-.21.3l-.09.14a3.74,3.74,0,0,0-.12-.48l0,0,.05-.09a1.22,1.22,0,0,0,.07-.17,1.19,1.19,0,0,0,.09-.36,3.28,3.28,0,0,0-.2.31l-.09.14c0-.14-.08-.29-.11-.43h0l0,0a.47.47,0,0,0,.06-.09,1.19,1.19,0,0,0,.08-.16,1.5,1.5,0,0,0,.11-.36l-.22.3a1.21,1.21,0,0,1-.1.14v0s0,0,0-.05,0-.26-.05-.38h0a.08.08,0,0,0,0,0,.23.23,0,0,0,.07-.07l.11-.15a2.11,2.11,0,0,0,.16-.34l-.26.26-.12.13,0,0c0-.1,0-.2,0-.3s0-.11,0-.17h0l.05,0,.08-.06a.86.86,0,0,0,.13-.14,1.84,1.84,0,0,0,.2-.31c-.11.07-.2.15-.29.22l-.14.11,0,0,.06-.51h.05l0,0,.09-.05a1.58,1.58,0,0,0,.15-.12,1.31,1.31,0,0,0,.24-.28l-.32.18-.15.09-.07,0h0c0-.24.09-.49.14-.73-.07.24-.14.48-.2.72h0l-.05-.06a1.3,1.3,0,0,0-.1-.15,2.73,2.73,0,0,0-.21-.3,2.12,2.12,0,0,0,.1.36,1.3,1.3,0,0,0,.08.17l0,.08,0,0,0,0h0c0,.17-.07.35-.1.52l0,0-.12-.13-.25-.27a2.07,2.07,0,0,0,.15.34.86.86,0,0,0,.1.16.46.46,0,0,0,.07.07s0,0,0,0l0,0h0a.88.88,0,0,1,0,.16c0,.11,0,.21,0,.32l0,0-.13-.12-.28-.23a1.29,1.29,0,0,0,.19.32l.12.14.08.07.05,0h0c0,.14,0,.27,0,.4v0h0l-.15-.09-.31-.19a2.26,2.26,0,0,0,.23.29l.15.12.08.06h0c0,.16.07.31.1.46h0l-.16-.09-.32-.17a1.35,1.35,0,0,0,.25.28l.15.11.09.05h0c0,.16.07.32.1.48l-.13-.08-.32-.17a1.55,1.55,0,0,0,.24.27l.15.12.08,0h0a1.42,1.42,0,0,0,0,.2l0,.28-.11-.08a3.28,3.28,0,0,0-.31-.2,1.28,1.28,0,0,0,.23.29.8.8,0,0,0,.13.13l.08.06h0l0,.4v.08l-.1-.09a3.11,3.11,0,0,0-.28-.23,1.5,1.5,0,0,0,.19.32.75.75,0,0,0,.12.14l.07.07h0a5,5,0,0,1,0,.55l-.09-.1a2.91,2.91,0,0,0-.24-.27,1.43,1.43,0,0,0,.14.34c0,.06.07.11.1.16a.46.46,0,0,0,.07.07h0c0,.16,0,.33-.07.49l-.08-.12a2.73,2.73,0,0,0-.21-.3,1.4,1.4,0,0,0,.1.35.89.89,0,0,0,.08.17.47.47,0,0,0,.06.09v0h0a4.77,4.77,0,0,1-.13.51h0s-.06-.1-.1-.15-.12-.21-.19-.31a1.35,1.35,0,0,0,.08.36l.07.18a.56.56,0,0,1,.05.08l0,0-.18.5-.06-.14c0-.11-.09-.23-.14-.34a1.51,1.51,0,0,0,0,.37,1.16,1.16,0,0,0,0,.18.69.69,0,0,0,0,.1v0c0,.09-.07.19-.12.28l-.07.16s0-.09-.05-.13a2.3,2.3,0,0,0-.12-.34,1.45,1.45,0,0,0,0,.36,1.08,1.08,0,0,0,0,.19l0,.09v0a3.84,3.84,0,0,1-.21.4.74.74,0,0,0,0-.14,2.79,2.79,0,0,0-.11-.35,1.54,1.54,0,0,0,0,.37.68.68,0,0,0,0,.19.29.29,0,0,0,0,.09v0c-.08.14-.15.28-.24.42a1.36,1.36,0,0,0,0-.17,2.58,2.58,0,0,0-.09-.35,1.16,1.16,0,0,0,0,.37,1.37,1.37,0,0,0,0,.19.29.29,0,0,0,0,.09.08.08,0,0,0,0,.05l0,0c-.06.11-.13.22-.2.33,0,0,0-.11,0-.16s0-.24-.07-.36a1.18,1.18,0,0,0,0,.37,1.28,1.28,0,0,0,0,.19.29.29,0,0,0,0,.09s0,0,0,0l-.55.79v-1.54h0l.08-.08.14-.18a1.83,1.83,0,0,0,.21-.39,3,3,0,0,0-.32.29l-.13.12v-.41l.05,0a.6.6,0,0,0,.08-.08l.14-.18a1.83,1.83,0,0,0,.21-.39c-.12.1-.22.2-.32.3s-.1.1-.16.14h0v-.42l0,0,.08-.08.14-.18a1.83,1.83,0,0,0,.21-.39,3,3,0,0,0-.32.29l-.14.13v-.41h0l.06,0a.6.6,0,0,0,.08-.08l.14-.18a1.83,1.83,0,0,0,.21-.39c-.12.1-.22.2-.32.3s-.1.1-.16.14l0,0v-.43l0,0,.08-.08.14-.18a1.83,1.83,0,0,0,.21-.39,3,3,0,0,0-.32.29l-.15.15v-.42h0l.06,0a.6.6,0,0,0,.08-.08l.14-.18a1.83,1.83,0,0,0,.21-.39c-.12.1-.22.2-.32.3s-.1.1-.16.14l0,0v-.43l.05,0,.08-.08.14-.18a1.83,1.83,0,0,0,.21-.39c-.12.09-.22.2-.32.29l-.16.15h0v-.42h0l.06,0a.6.6,0,0,0,.08-.08l.14-.18a1.83,1.83,0,0,0,.21-.39c-.12.1-.22.2-.32.3s-.1.1-.16.14l0,0v-.43h0l.06,0,.08-.08.14-.18a1.83,1.83,0,0,0,.21-.39c-.12.09-.22.2-.32.29l-.16.15h0v-.42h0l0,0,.06,0a.6.6,0,0,0,.08-.08l.14-.18a1.83,1.83,0,0,0,.21-.39c-.12.1-.22.2-.32.3s-.1.1-.16.14a.1.1,0,0,1-.05,0v-.43h0l.06,0,.08-.08.14-.18a1.83,1.83,0,0,0,.21-.39c-.12.09-.22.2-.32.29l-.16.15,0,0c0-.14,0-.29,0-.43h0l0,0,.06,0a.6.6,0,0,0,.08-.08l.14-.18a1.83,1.83,0,0,0,.21-.39c-.12.1-.22.2-.32.3s-.1.1-.16.14l-.06,0c0-.14,0-.29,0-.43h0l.06,0,.08-.08.14-.18a1.83,1.83,0,0,0,.21-.39l-.32.29-.16.15,0,0c0-.15,0-.29,0-.43h0l0,0,.06,0a.6.6,0,0,0,.08-.08l.14-.18a1.83,1.83,0,0,0,.21-.39c-.12.1-.22.2-.32.3s-.1.1-.16.14L277,204h0c0-.16,0-.31,0-.44h0l0,0,.06,0,.08-.08.14-.18a1.83,1.83,0,0,0,.21-.39l-.32.29-.16.15-.06.05c0-.26,0-.44,0-.51a5.17,5.17,0,0,0,0,.54h0l0,0-.08-.06-.15-.14c-.1-.1-.2-.2-.32-.3a1.83,1.83,0,0,0,.21.39l.14.18.08.08.06,0a.16.16,0,0,0,.09,0c0,.12,0,.27,0,.42l-.07-.06-.15-.14a3,3,0,0,0-.32-.29,1.76,1.76,0,0,0,.21.38,1.24,1.24,0,0,0,.14.18.3.3,0,0,0,.08.08l.06,0,0,0c0,.15,0,.31,0,.48h0l-.08-.06-.15-.14c-.1-.1-.2-.2-.32-.3a1.83,1.83,0,0,0,.21.39l.14.18.08.08.06,0a.08.08,0,0,0,.06,0c0,.13,0,.27,0,.4l0,0-.15-.14a3,3,0,0,0-.32-.29,3.42,3.42,0,0,0,.35.56.3.3,0,0,0,.08.08l.06,0h0v.46l-.06,0-.15-.14c-.1-.1-.2-.2-.32-.3a1.83,1.83,0,0,0,.21.39l.14.18.08.08.06,0,0,0v.38h0l-.15-.14a3,3,0,0,0-.32-.29,1.76,1.76,0,0,0,.21.38,1.24,1.24,0,0,0,.14.18.3.3,0,0,0,.08.08l.05,0v.45l0,0-.15-.14c-.1-.1-.2-.2-.32-.3a1.83,1.83,0,0,0,.21.39l.14.18.08.08.06,0h0v.38l-.14-.13a3,3,0,0,0-.32-.29,1.76,1.76,0,0,0,.21.38,1.24,1.24,0,0,0,.14.18.3.3,0,0,0,.08.08l0,0v.45h0l-.15-.14c-.1-.1-.2-.2-.32-.3a1.83,1.83,0,0,0,.21.39l.14.18.08.08,0,0v.37l-.12-.11a3,3,0,0,0-.32-.29,1.76,1.76,0,0,0,.21.38,1.24,1.24,0,0,0,.14.18.3.3,0,0,0,.08.08h0v.46l-.15-.14c-.1-.1-.2-.2-.32-.3a1.83,1.83,0,0,0,.21.39l.14.18.08.08,0,0v.38l-.13-.12a3,3,0,0,0-.32-.29,1.76,1.76,0,0,0,.21.38,1.24,1.24,0,0,0,.14.18.3.3,0,0,0,.08.08l0,0v.46h0l-.15-.14c-.1-.1-.2-.2-.32-.3a1.83,1.83,0,0,0,.21.39l.14.18.08.08.06,0h0v.38l-.14-.13a3,3,0,0,0-.32-.29,1.76,1.76,0,0,0,.21.38,1.24,1.24,0,0,0,.14.18.3.3,0,0,0,.08.08l0,0v.46l0,0-.15-.14c-.1-.1-.2-.2-.32-.3a1.83,1.83,0,0,0,.21.39l.14.18.08.08.06,0h0v1.58c-.18-.28-.39-.57-.59-.86,0,0,0,0,0,0a.29.29,0,0,0,0-.09,1.28,1.28,0,0,0,0-.19,1.18,1.18,0,0,0-.05-.37c0,.12,0,.24-.07.36a.9.9,0,0,0,0,.16A3,3,0,0,1,276,213l0,0a.08.08,0,0,0,0-.05.29.29,0,0,0,0-.09,1.37,1.37,0,0,0,0-.19,1.16,1.16,0,0,0,0-.37,2.58,2.58,0,0,0-.09.35,1.36,1.36,0,0,0,0,.17l-.24-.42v0a.29.29,0,0,0,0-.09.68.68,0,0,0,0-.19,1.54,1.54,0,0,0,0-.37,2.79,2.79,0,0,0-.11.35.74.74,0,0,0,0,.14c-.08-.13-.14-.27-.21-.4v0l0-.09a1.77,1.77,0,0,0,0-.55,2.3,2.3,0,0,0-.12.34.65.65,0,0,0,0,.13,1.19,1.19,0,0,1-.08-.16c-.05-.09-.08-.19-.12-.28v0l0-.1a1.16,1.16,0,0,0,0-.18,2.22,2.22,0,0,0,0-.37,2.52,2.52,0,0,0-.15.34l-.06.14-.18-.5,0,0a.56.56,0,0,1,.05-.08l.07-.18a1.35,1.35,0,0,0,.08-.36c-.07.1-.13.21-.19.31a1.19,1.19,0,0,0-.09.15h0a4.77,4.77,0,0,1-.13-.51h0v0a.47.47,0,0,0,.06-.09.89.89,0,0,0,.08-.17,1.4,1.4,0,0,0,.1-.35,2.73,2.73,0,0,0-.21.3.83.83,0,0,0-.08.12c0-.16-.05-.33-.07-.49h0a.46.46,0,0,0,.07-.07c0-.05.07-.1.1-.16a1.43,1.43,0,0,0,.14-.34,2.91,2.91,0,0,0-.24.27l-.09.1a5,5,0,0,1,0-.55h0l.07-.07a.75.75,0,0,0,.12-.14,1.5,1.5,0,0,0,.19-.32,3.11,3.11,0,0,0-.28.23l-.1.09V208l0-.4h0l.08-.06.14-.13a1.58,1.58,0,0,0,.22-.29,3.28,3.28,0,0,0-.31.2l-.11.08a2.36,2.36,0,0,1,0-.28l0-.2h0l.08,0,.15-.12a1.55,1.55,0,0,0,.24-.27l-.32.17-.13.08c0-.16.06-.32.1-.48h0l.09-.05.15-.11a1.35,1.35,0,0,0,.25-.28l-.32.17-.16.09h0c0-.15.07-.3.1-.46h0l.08-.06.15-.12a2.26,2.26,0,0,0,.23-.29l-.31.19-.15.09h0v0a2.58,2.58,0,0,0,0-.4h0l.05,0,.08-.07.12-.14a1.29,1.29,0,0,0,.19-.32l-.28.23-.13.12,0,0a1.71,1.71,0,0,0,0-.32s0-.11,0-.16h0l0,0s0,0,0,0l.07-.07a.86.86,0,0,0,.1-.16,1.47,1.47,0,0,0,.15-.34l-.25.27-.12.13,0,0c0-.17-.06-.35-.1-.52h0l0,0,0,0,.05-.08a1.3,1.3,0,0,0,.08-.17,2.12,2.12,0,0,0,.1-.36,2.73,2.73,0,0,0-.21.3,1.3,1.3,0,0,0-.1.15l-.05.06h0c-.06-.24-.13-.48-.2-.72l.15.73h0l-.07,0-.15-.09-.32-.18a1.31,1.31,0,0,0,.24.28l.15.12.09.05.05,0h.05l.06.51,0,0-.14-.11c-.09-.07-.18-.15-.29-.22a1.84,1.84,0,0,0,.2.31.86.86,0,0,0,.13.14l.08.06.05,0h0c0,.06,0,.11,0,.17s0,.2,0,.3l0,0-.12-.13-.26-.26a2.11,2.11,0,0,0,.16.34l.11.15a.23.23,0,0,0,.07.07.08.08,0,0,0,0,0h0c0,.12,0,.25-.05.38a.07.07,0,0,0,0,.05l0,0a1.21,1.21,0,0,1-.1-.14l-.22-.3a1.5,1.5,0,0,0,.11.36,1.19,1.19,0,0,0,.08.16l.06.09,0,0h0c0,.14-.07.29-.11.43l-.09-.14a2,2,0,0,0-.2-.31,1.58,1.58,0,0,0,.09.36,1.22,1.22,0,0,0,.07.17l.05.09,0,0a3.74,3.74,0,0,0-.12.48l-.09-.14c-.07-.1-.13-.2-.21-.3a1.4,1.4,0,0,0,.1.35.87.87,0,0,0,.07.17.47.47,0,0,0,.06.09l0,0a4.63,4.63,0,0,0-.09.49.64.64,0,0,1-.1-.13l-.23-.28a1.45,1.45,0,0,0,.12.35l.09.16.06.08,0,0c0,.13,0,.26,0,.39a.37.37,0,0,1,0,.11l-.11-.11a3.19,3.19,0,0,0-.26-.26,1.68,1.68,0,0,0,.16.33.91.91,0,0,0,.11.16l.07.07h0c0,.05,0,.1,0,.14s0,.29,0,.44l-.11-.09a3.15,3.15,0,0,0-.29-.22,1.49,1.49,0,0,0,.2.31.8.8,0,0,0,.13.13.27.27,0,0,0,.08.07h0a4.43,4.43,0,0,0,.06.51l-.11-.07-.32-.17a1.55,1.55,0,0,0,.24.27l.15.12.08.05v0c0,.16.08.32.13.47l-.09,0L274,210a1.6,1.6,0,0,0,.25.27l.15.11a.2.2,0,0,0,.08,0c.06.19.12.37.2.56l-.13,0a2.89,2.89,0,0,0-.35-.11,2.31,2.31,0,0,0,.46.31l.1,0h0a2.55,2.55,0,0,0,.13.29l.09.19-.15,0a3.58,3.58,0,0,0-.35-.09,1.69,1.69,0,0,0,.31.21l.17.07.09,0h0l.23.42-.16,0a2.29,2.29,0,0,0-.36-.07,1.29,1.29,0,0,0,.32.19l.17.07.1,0h0l.25.4-.16,0-.36,0a1.41,1.41,0,0,0,.32.17.64.64,0,0,0,.18.06l.1,0h0l0,0c.07.12.15.23.23.35h0l-.17,0-.26,0s0,0,0,0v0h-.08l.08,0a2.46,2.46,0,0,0,0,.28,1,1,0,0,1,0,.17c-.14-.1-.28-.2-.41-.31v0a.38.38,0,0,0,0-.1l0-.18a1.48,1.48,0,0,0-.13-.35c0,.13,0,.25,0,.37a1,1,0,0,1,0,.17c-.11-.1-.22-.19-.32-.3h0a.34.34,0,0,0,0-.1,1.37,1.37,0,0,0,0-.19,1.06,1.06,0,0,0-.09-.35,2.19,2.19,0,0,0,0,.36.71.71,0,0,0,0,.14l-.14-.15-.12-.16v0a.38.38,0,0,0,0-.1,1.15,1.15,0,0,0,0-.19,1.51,1.51,0,0,0-.06-.36c0,.12-.05.24-.07.36s0,.1,0,.15c-.08-.12-.16-.23-.23-.36h0a.29.29,0,0,0,0-.1,1.1,1.1,0,0,0,0-.18,1.53,1.53,0,0,0,0-.37,2.35,2.35,0,0,0-.11.35l0,.12-.06-.1c-.05-.08-.08-.17-.13-.25v0a.32.32,0,0,0,0-.09,1.21,1.21,0,0,0,0-.18,1.53,1.53,0,0,0,0-.37c0,.11-.09.22-.14.34a1.21,1.21,0,0,1-.05.14l-.18-.42v0l0-.09a1.21,1.21,0,0,0,.05-.18,1.5,1.5,0,0,0,0-.37c-.06.11-.11.22-.16.33l-.06.14v0c-.06-.14-.11-.29-.16-.44l0,0,.05-.09a1.27,1.27,0,0,0,.06-.18,1.35,1.35,0,0,0,.08-.36,2.59,2.59,0,0,0-.19.31l-.09.16h0c-.05-.15-.1-.31-.14-.47h0l0,0,.06-.08a.86.86,0,0,0,.1-.16,1.26,1.26,0,0,0,.13-.34,3.22,3.22,0,0,0-.24.28l-.11.13,0,0a8.68,8.68,0,0,1-.2-1,6.76,6.76,0,0,0,.09,1l0,0-.14-.11-.3-.21a1.61,1.61,0,0,0,.21.3,1.85,1.85,0,0,0,.14.14l.07.06.05,0h0a3.81,3.81,0,0,0,.12.51h0a.8.8,0,0,1-.16-.08l-.33-.15a2.13,2.13,0,0,0,.26.26l.16.11.08,0,.06,0h0c0,.15.08.3.13.44s0,0,0,.06h0l-.17-.06-.34-.13a1.32,1.32,0,0,0,.29.24l.16.09.09,0h.05c0,.15.11.29.17.43l-.15,0-.35-.11a1.29,1.29,0,0,0,.3.22l.16.08.1,0h0l.12.26.07.13-.16,0-.35-.08a1.23,1.23,0,0,0,.31.19l.18.07.09,0h0c.05.07.08.14.13.21a1.1,1.1,0,0,0,.09.14l-.13,0-.36,0a1.4,1.4,0,0,0,.33.15l.18,0h.09l.15.19a1.07,1.07,0,0,0,.14.16h-.5a2.42,2.42,0,0,0,.35.12l.19,0h.11l.31.28h-.12a2.2,2.2,0,0,0-.36,0,1.55,1.55,0,0,0,.36.08H275l.11.09a3.28,3.28,0,0,0,.31.2l-.14,0-.36.07a2.2,2.2,0,0,0,.37.06h.31l.4.25-.16,0-.35.1a1.46,1.46,0,0,0,.36,0l.19,0,.1,0h0l.45.29h.6l.46-.29h0l.1,0,.19,0a1.46,1.46,0,0,0,.36,0l-.35-.1-.16,0,.4-.25h.31a2.2,2.2,0,0,0,.37-.06l-.36-.07-.14,0a3.28,3.28,0,0,0,.31-.2l.11-.09h.29a1.55,1.55,0,0,0,.36-.08,2.2,2.2,0,0,0-.36,0h-.11l.3-.28h.11l.19,0a2.42,2.42,0,0,0,.35-.12h-.5a1.07,1.07,0,0,0,.14-.16l.15-.19h.09l.18,0a1.4,1.4,0,0,0,.33-.15l-.36,0-.13,0a1.1,1.1,0,0,0,.09-.14,2.39,2.39,0,0,0,.13-.21h0l.09,0,.18-.07a1.23,1.23,0,0,0,.31-.19l-.35.08-.16,0,.07-.13c.05-.09.08-.17.12-.26h0l.1,0,.16-.08a1.29,1.29,0,0,0,.3-.22l-.35.11-.15,0c.06-.14.12-.28.17-.43h.05l.09,0,.17-.09a1.55,1.55,0,0,0,.28-.24l-.34.13-.17.06h0l0-.06c.05-.14.09-.29.13-.44h0l.06,0,.08,0,.16-.11a2.13,2.13,0,0,0,.26-.26l-.33.15A.8.8,0,0,1,281,210.2Zm-4.18,4.5a6.13,6.13,0,0,0-.51-.38v0a.3.3,0,0,0,0-.1l-.06-.18a2,2,0,0,0-.18-.32,2.08,2.08,0,0,0,.06.36l0,.17-.37-.26v0a.34.34,0,0,0,0-.1,1.16,1.16,0,0,0,0-.18l-.09-.21.19.08.18.05.1,0h.05l.68,1,0,.06A.93.93,0,0,0,276.81,214.7Zm1.41-1.06a1.21,1.21,0,0,0-.05.18s0,.07,0,.1v0l-.37.26,0-.17a2.08,2.08,0,0,0,.06-.36,2,2,0,0,0-.18.32l-.06.18a.3.3,0,0,0,0,.1v0a6.13,6.13,0,0,0-.51.38.16.16,0,0,0,0-.07v0l0,0,.68-1h.05l.1,0,.18-.05.19-.08A1.8,1.8,0,0,0,278.22,213.64Z" style="fill: rgb(23, 24, 53);"/><path class="cls-20" d="M63.84,210.2h0c0-.16.08-.33.11-.51h0l.05,0,.08-.06.13-.14a1.25,1.25,0,0,0,.21-.3l-.29.21-.14.11,0,0a5.63,5.63,0,0,0,.09-1,8.63,8.63,0,0,1-.19,1l0,0-.11-.13a2.09,2.09,0,0,0-.24-.28,1.28,1.28,0,0,0,.14.34.83.83,0,0,0,.09.16l.06.08,0,0h0c-.05.16-.09.32-.14.47h0l-.09-.16a2.48,2.48,0,0,0-.18-.31,1.35,1.35,0,0,0,.07.36,1.34,1.34,0,0,0,.07.18l0,.09,0,0-.15.44v0l-.07-.14a2.41,2.41,0,0,0-.15-.33,1.5,1.5,0,0,0,0,.37l.06.18a.36.36,0,0,0,0,.09v0c-.06.14-.12.28-.19.42,0,0,0-.1-.05-.14a2,2,0,0,0-.14-.34,1.53,1.53,0,0,0,0,.37,1.16,1.16,0,0,0,0,.18l0,.09v0c0,.08-.08.17-.13.25l-.05.1a.56.56,0,0,0,0-.12c0-.12-.06-.23-.1-.35a1.53,1.53,0,0,0,0,.37,1.1,1.1,0,0,0,0,.18l0,.1h0c-.07.13-.14.24-.22.36l0-.15c0-.12,0-.24-.07-.36a1.49,1.49,0,0,0,0,.36,1.2,1.2,0,0,0,0,.19.44.44,0,0,0,0,.1v0a1.83,1.83,0,0,0-.13.16l-.14.15v-.14l0-.36a1.4,1.4,0,0,0-.1.35c0,.07,0,.13,0,.19s0,.07,0,.1h0c-.1.11-.21.2-.32.3,0-.06,0-.11,0-.17s0-.24,0-.37a1.48,1.48,0,0,0-.13.35l0,.18v.13l-.4.31c0-.06,0-.11,0-.17a2.46,2.46,0,0,0,0-.28l.09,0h-.08v0l0,0-.26,0-.17,0h0l.24-.35,0,0h0l.09,0a.55.55,0,0,0,.18-.06,1.41,1.41,0,0,0,.32-.17l-.36,0a.76.76,0,0,1-.16,0c.09-.13.17-.27.25-.4h0l.09,0,.18-.07a1.23,1.23,0,0,0,.31-.19,2,2,0,0,0-.35.07l-.17,0c.08-.14.16-.28.23-.42h0l.1,0,.17-.07a2.11,2.11,0,0,0,.31-.21c-.13,0-.24.06-.36.09l-.15,0,.09-.19a2.55,2.55,0,0,0,.13-.29h0l.09,0,.17-.09a1.48,1.48,0,0,0,.29-.22l-.35.11-.13,0c.08-.19.15-.37.21-.56l.07,0a.58.58,0,0,0,.15-.11,1.66,1.66,0,0,0,.26-.27,3.41,3.41,0,0,0-.33.17l-.08,0c0-.15.09-.31.12-.47v0l.07-.05a.44.44,0,0,0,.15-.12,1.55,1.55,0,0,0,.24-.27l-.32.17a.41.41,0,0,1-.11.07c0-.17,0-.34.07-.51h0l.08-.07.12-.13a1.49,1.49,0,0,0,.2-.31l-.29.22-.11.09a3.23,3.23,0,0,0,0-.44.71.71,0,0,0,0-.14h0l.07-.07a.91.91,0,0,0,.11-.16,1.26,1.26,0,0,0,.16-.33l-.26.26-.11.11a.45.45,0,0,0,0-.11c0-.13,0-.26,0-.39l0,0,.06-.08a.65.65,0,0,0,.09-.16,1.48,1.48,0,0,0,.13-.35,2.83,2.83,0,0,0-.23.28l-.11.13c0-.16,0-.32-.08-.49l0,0a.41.41,0,0,0,0-.09.89.89,0,0,0,.08-.17,1.39,1.39,0,0,0,.09-.35,2.61,2.61,0,0,0-.2.3l-.09.14c0-.16-.08-.33-.13-.48l0,0a.41.41,0,0,0,.05-.09,1.3,1.3,0,0,0,.08-.17,1.55,1.55,0,0,0,.08-.36l-.2.31-.09.14c0-.14-.07-.29-.11-.43h0l0,0a.41.41,0,0,0,.05-.09l.09-.16a1.48,1.48,0,0,0,.1-.36c-.08.1-.14.2-.21.3a1.21,1.21,0,0,0-.1.14l0,0a.11.11,0,0,1,0-.05c0-.13,0-.26-.06-.38h0a.1.1,0,0,0,.05,0l.07-.07.1-.15a1.5,1.5,0,0,0,.16-.34l-.26.26-.12.13,0,0c0-.1,0-.2,0-.3s0-.11,0-.17h0l.05,0,.07-.06a.86.86,0,0,0,.13-.14,1.1,1.1,0,0,0,.2-.31l-.29.22L62,204l0,0c0-.17,0-.34.07-.51h0l.05,0,.08-.05.15-.12a1.31,1.31,0,0,0,.24-.28l-.32.18-.15.09-.07,0h0c0-.24.09-.49.15-.73a6.44,6.44,0,0,0-.2.72h0l0-.06-.09-.15c-.07-.1-.13-.2-.21-.3a1.46,1.46,0,0,0,.09.36l.08.17.06.08a.08.08,0,0,0,0,0s0,0,0,0,0,0,0,0a4.71,4.71,0,0,0-.09.52l0,0-.12-.13a2.05,2.05,0,0,0-.25-.27,2.07,2.07,0,0,0,.15.34.91.91,0,0,0,.11.16l.06.07,0,0,0,0h0l0,.16v.32l0,0-.14-.12-.28-.23a1.69,1.69,0,0,0,.19.32l.13.14.07.07.05,0h0c0,.14,0,.27,0,.4s0,0,0,0h0l-.14-.09-.32-.19a1.68,1.68,0,0,0,.24.29l.14.12.08.06h0c0,.16.06.31.1.46h0l-.15-.09-.32-.17a1.12,1.12,0,0,0,.25.28l.14.11.09.05h0c0,.16.08.32.11.48l-.14-.08-.32-.17a1.55,1.55,0,0,0,.24.27l.15.12.09,0h0c0,.07,0,.13,0,.2s0,.18,0,.28l-.12-.08a3.13,3.13,0,0,0-.3-.2,1.23,1.23,0,0,0,.22.29.86.86,0,0,0,.14.13l.08.06h0c0,.13,0,.27,0,.4v.08l-.1-.09a1.64,1.64,0,0,0-.28-.23,2.07,2.07,0,0,0,.19.32l.12.14.08.07h0a5.09,5.09,0,0,1,0,.55l-.09-.1-.25-.27a1.43,1.43,0,0,0,.14.34.91.91,0,0,0,.11.16l.06.07h0a4.1,4.1,0,0,1-.06.49.83.83,0,0,1-.08-.12l-.21-.3a1.39,1.39,0,0,0,.09.35c0,.06,0,.12.08.17l.06.09,0,0h0c0,.17-.09.34-.14.51h0l-.09-.15-.2-.31a1.35,1.35,0,0,0,.08.36,1.42,1.42,0,0,0,.08.18l0,.08s0,0,0,0a5,5,0,0,1-.18.5l-.06-.14a2.44,2.44,0,0,0-.14-.34,1.51,1.51,0,0,0,0,.37,1.21,1.21,0,0,0,0,.18l0,.1,0,0-.12.28-.08.16s0-.09,0-.13a2.3,2.3,0,0,0-.12-.34,2.16,2.16,0,0,0,0,.36l0,.19,0,.09,0,0-.21.4a.74.74,0,0,1,0-.14c0-.11-.07-.23-.11-.35a1.56,1.56,0,0,0,0,.37l0,.19a.32.32,0,0,0,0,.09v0l-.24.42a.85.85,0,0,1,0-.17c0-.11-.06-.23-.1-.35a2.31,2.31,0,0,0,0,.37,1.37,1.37,0,0,0,0,.19.29.29,0,0,0,0,.09s0,0,0,.05v0l-.21.33,0-.16c0-.12,0-.24-.08-.36a1.57,1.57,0,0,0-.05.37c0,.06,0,.12,0,.19s0,.06,0,.09,0,0,0,0l-.55.79v-1.54h0l.09-.08.13-.18a1.47,1.47,0,0,0,.21-.39,3,3,0,0,0-.32.29l-.13.12v-.41l0,0,.09-.08.13-.18a1.47,1.47,0,0,0,.21-.39c-.12.1-.22.2-.32.3l-.15.14h0v-.42l0,0,.09-.08.13-.18a1.47,1.47,0,0,0,.21-.39,3,3,0,0,0-.32.29l-.14.13v-.41h0l0,0,.09-.08.13-.18a1.47,1.47,0,0,0,.21-.39c-.12.1-.22.2-.32.3l-.15.14,0,0v-.43a.05.05,0,0,0,0,0L60,210l.13-.18a1.47,1.47,0,0,0,.21-.39,3,3,0,0,0-.32.29l-.15.15v-.42h0l0,0,.09-.08.13-.18a1.47,1.47,0,0,0,.21-.39c-.12.1-.22.2-.32.3l-.15.14,0,0v-.43l0,0,.09-.08.13-.18a1.47,1.47,0,0,0,.21-.39c-.12.09-.22.2-.32.29l-.15.15h0v-.42h0l0,0,.09-.08.13-.18a1.47,1.47,0,0,0,.21-.39c-.12.1-.22.2-.32.3l-.15.14,0,0v-.43h0l0,0,.09-.08.13-.18a1.47,1.47,0,0,0,.21-.39c-.12.09-.22.2-.32.29l-.15.15h0v-.42h0l0,0,0,0,.09-.08.13-.18a1.47,1.47,0,0,0,.21-.39c-.12.1-.22.2-.32.3l-.15.14,0,0c0-.14,0-.28,0-.43h0l0,0L60,206l.13-.18a1.47,1.47,0,0,0,.21-.39c-.12.09-.22.2-.32.29l-.15.15,0,0c0-.14,0-.29,0-.43h0l0,0,0,0,.09-.08.13-.18a1.47,1.47,0,0,0,.21-.39c-.12.1-.22.2-.32.3l-.15.14-.07,0v-.43h0l0,0,.09-.08.13-.18a1.47,1.47,0,0,0,.21-.39l-.32.29-.15.15,0,0v-.43h0l0,0,0,0,.09-.08.13-.18a1.47,1.47,0,0,0,.21-.39c-.12.1-.22.2-.32.3l-.15.14-.08.06h0c0-.16,0-.31,0-.44h0l0,0,0,0,.09-.08.13-.18a1.47,1.47,0,0,0,.21-.39l-.32.29-.15.15-.07.05a4.6,4.6,0,0,0,0-.51c0,.07,0,.27,0,.54h0l0,0-.07-.06-.15-.14-.33-.3a2.42,2.42,0,0,0,.21.39l.14.18.08.08.06,0a.19.19,0,0,0,.09,0c0,.12,0,.27,0,.42l-.06-.06-.15-.14c-.11-.1-.21-.2-.33-.29a2.32,2.32,0,0,0,.21.38,1.24,1.24,0,0,0,.14.18.3.3,0,0,0,.08.08l.06,0,.05,0c0,.15,0,.31,0,.48h0l-.07-.06-.15-.14-.33-.3a2.42,2.42,0,0,0,.21.39l.14.18.08.08.06,0,.06,0c0,.13,0,.27,0,.4l0,0-.15-.14c-.11-.1-.21-.2-.33-.29a4.26,4.26,0,0,0,.35.56.3.3,0,0,0,.08.08l.06,0h0v.46l0,0-.15-.14-.33-.3a2.42,2.42,0,0,0,.21.39l.14.18.08.08.06,0,0,0v.38h0l-.15-.14c-.11-.1-.21-.2-.33-.29a2.32,2.32,0,0,0,.21.38,1.24,1.24,0,0,0,.14.18l.08.08.05,0v.45l0,0-.15-.14-.33-.3a2.42,2.42,0,0,0,.21.39l.14.18.08.08.06,0h0v.38l-.13-.13c-.11-.1-.21-.2-.33-.29a2.32,2.32,0,0,0,.21.38,1.24,1.24,0,0,0,.14.18l.08.08,0,0v.45h0l-.15-.14-.33-.3a2.42,2.42,0,0,0,.21.39l.14.18.08.08,0,0v.37l-.11-.11c-.11-.1-.21-.2-.33-.29a2.32,2.32,0,0,0,.21.38,1.24,1.24,0,0,0,.14.18.3.3,0,0,0,.08.08h0v.46l-.15-.14-.33-.3a2.42,2.42,0,0,0,.21.39l.14.18.08.08,0,0v.38l-.12-.12c-.11-.1-.21-.2-.33-.29a2.32,2.32,0,0,0,.21.38,1.24,1.24,0,0,0,.14.18.3.3,0,0,0,.08.08l0,0v.46h0l-.15-.14-.33-.3a2.42,2.42,0,0,0,.21.39l.14.18.08.08.06,0h0v.38l-.14-.13c-.11-.1-.21-.2-.33-.29a2.32,2.32,0,0,0,.21.38,1.24,1.24,0,0,0,.14.18l.08.08,0,0v.46l0,0-.15-.14-.33-.3a2.42,2.42,0,0,0,.21.39l.14.18.08.08.06,0h0v1.49a.34.34,0,0,0,0,.09c-.19-.28-.4-.57-.59-.86a.08.08,0,0,1,0,0s0-.06,0-.09a1.2,1.2,0,0,0,0-.19,1.55,1.55,0,0,0,0-.37,2.33,2.33,0,0,0-.08.36l0,.16c-.07-.11-.15-.22-.21-.33v0a.17.17,0,0,1,0-.05s0-.06,0-.09,0-.13,0-.19a1.55,1.55,0,0,0,0-.37c0,.12-.06.24-.09.35a.85.85,0,0,1,0,.17l-.24-.42v0l0-.09a1.37,1.37,0,0,0,0-.19,1.54,1.54,0,0,0,0-.37c0,.12-.08.24-.11.35s0,.09,0,.14l-.21-.4v0a.16.16,0,0,0,0-.09,1.06,1.06,0,0,0,0-.19,1.45,1.45,0,0,0,0-.36c-.05.11-.08.23-.12.34l0,.13a1.19,1.19,0,0,1-.08-.16l-.12-.28v0l0-.1a1.21,1.21,0,0,0,0-.18,1.51,1.51,0,0,0,0-.37c-.06.11-.1.23-.15.34s0,.09-.05.14a5,5,0,0,1-.18-.5l0,0,0-.08a1.34,1.34,0,0,0,.07-.18,1.9,1.9,0,0,0,.09-.36,2.7,2.7,0,0,0-.2.31l-.09.15h0a4.84,4.84,0,0,1-.14-.51h0l0,0a.41.41,0,0,0,.05-.09.89.89,0,0,0,.08-.17,1.4,1.4,0,0,0,.1-.35c-.08.1-.14.2-.21.3l-.08.12a4.1,4.1,0,0,1-.06-.49h0l.06-.07a.86.86,0,0,0,.1-.16,2.07,2.07,0,0,0,.15-.34l-.25.27-.09.1a5.09,5.09,0,0,1,0-.55h0l.08-.07.12-.14a2,2,0,0,0,.18-.32,3.11,3.11,0,0,0-.28.23l-.09.09V208c0-.13,0-.27,0-.4h0l.08-.06a.86.86,0,0,0,.14-.13,1.58,1.58,0,0,0,.22-.29,2.23,2.23,0,0,0-.3.2l-.12.08a2.36,2.36,0,0,1,0-.28l0-.2h0l.08,0,.15-.12a1.6,1.6,0,0,0,.25-.27,2.4,2.4,0,0,0-.32.17l-.14.08c0-.16.07-.32.1-.48h.05l.08-.05a1,1,0,0,0,.15-.11,1.12,1.12,0,0,0,.25-.28l-.32.17-.15.09h0c0-.15.07-.3.1-.46h0l.09-.06.14-.12a1.28,1.28,0,0,0,.23-.29l-.31.19-.15.09h0s0,0,0,0,0-.26,0-.4h0l.05,0a.46.46,0,0,1,.07-.07.75.75,0,0,0,.12-.14,1.29,1.29,0,0,0,.19-.32l-.28.23-.13.12,0,0c0-.11,0-.21,0-.32a.88.88,0,0,0,0-.16h0l0,0,.05,0,.06-.07A.91.91,0,0,0,58,204a1.43,1.43,0,0,0,.14-.34l-.25.27-.11.13,0,0c0-.17-.06-.35-.1-.52h0l0,0a.08.08,0,0,0,0,0,.35.35,0,0,0,.05-.08,1.3,1.3,0,0,0,.08-.17,1.48,1.48,0,0,0,.1-.36c-.08.1-.14.2-.21.3l-.1.15,0,.06h0c-.06-.24-.12-.48-.2-.72l.15.73h0l-.08,0-.15-.09-.31-.18a1.08,1.08,0,0,0,.24.28.81.81,0,0,0,.14.12l.09.05.05,0h0a4.43,4.43,0,0,1,.06.51l0,0-.13-.11-.29-.22a1.1,1.1,0,0,0,.2.31.81.81,0,0,0,.12.14l.08.06.05,0h0a1,1,0,0,1,0,.17c0,.1,0,.2,0,.3l0,0-.12-.13-.25-.26a1.47,1.47,0,0,0,.15.34l.11.15a.23.23,0,0,0,.07.07s0,0,0,0h0a2.65,2.65,0,0,1,0,.38.43.43,0,0,0,0,.05l0,0-.1-.14-.22-.3a1.5,1.5,0,0,0,.11.36,1.19,1.19,0,0,0,.08.16l.06.09,0,0h0c0,.14-.07.29-.1.43,0,0-.06-.1-.1-.14a2,2,0,0,0-.2-.31,2.37,2.37,0,0,0,.09.36,1.3,1.3,0,0,0,.08.17.41.41,0,0,0,.05.09l0,0-.12.48-.09-.14c-.06-.1-.13-.2-.2-.3a1.06,1.06,0,0,0,.09.35.89.89,0,0,0,.08.17.41.41,0,0,0,0,.09l0,0-.09.49-.1-.13a2.83,2.83,0,0,0-.23-.28,2.06,2.06,0,0,0,.12.35,1.4,1.4,0,0,0,.1.16.21.21,0,0,0,.06.08l0,0c0,.13,0,.26,0,.39v.11l-.12-.11a2.13,2.13,0,0,0-.26-.26,1.29,1.29,0,0,0,.17.33.91.91,0,0,0,.11.16l.06.07h0v.14c0,.14,0,.29,0,.44l-.11-.09a2.21,2.21,0,0,0-.29-.22,3.28,3.28,0,0,0,.2.31L57,209,57,209h0a4.46,4.46,0,0,0,.07.51l-.12-.07a3.07,3.07,0,0,0-.31-.17,1.22,1.22,0,0,0,.24.27.53.53,0,0,0,.14.12l.08.05v0c0,.16.08.32.13.47l-.08,0a3.41,3.41,0,0,0-.33-.17,1.6,1.6,0,0,0,.25.27l.15.11.08,0c.06.19.13.37.2.56l-.13,0-.34-.11a1.48,1.48,0,0,0,.29.22.91.91,0,0,0,.17.09l.09,0h0c.05.1.09.2.13.29s.07.13.1.19l-.15,0c-.12,0-.23-.07-.36-.09a2.11,2.11,0,0,0,.31.21l.17.07.1,0h0c.07.14.15.28.23.42l-.17,0a1.91,1.91,0,0,0-.36-.07,1.5,1.5,0,0,0,.32.19l.17.07.1,0h0l.24.4-.16,0-.36,0a1.29,1.29,0,0,0,.33.17.49.49,0,0,0,.17.06l.1,0h0l0,0,.24.35h0l-.18,0-.25,0,0,0v0h-.08l.08,0,0,.28c0,.06,0,.11,0,.17l-.4-.31v-.13a1.16,1.16,0,0,0,0-.18,1.48,1.48,0,0,0-.13-.35c0,.13,0,.25,0,.37v.17l-.32-.3h0V213a1.28,1.28,0,0,0,0-.19,1.4,1.4,0,0,0-.1-.35c0,.12,0,.24,0,.36a.61.61,0,0,1,0,.14l-.13-.15a1.83,1.83,0,0,1-.13-.16v0s0-.07,0-.1v-.19a1.13,1.13,0,0,0-.06-.36,2.25,2.25,0,0,0-.06.36l0,.15c-.08-.12-.15-.23-.22-.36h0a.3.3,0,0,0,0-.1l0-.18a1.53,1.53,0,0,0,0-.37,2.35,2.35,0,0,0-.11.35l0,.12-.06-.1-.12-.25v0a.36.36,0,0,0,0-.09,1.16,1.16,0,0,0,0-.18,1.53,1.53,0,0,0,0-.37,2,2,0,0,0-.14.34l-.06.14-.18-.42v0a.36.36,0,0,0,0-.09,1.21,1.21,0,0,0,.05-.18,1.14,1.14,0,0,0,0-.37c-.06.11-.11.22-.16.33l-.06.14v0c-.06-.14-.11-.29-.16-.44l0,0a.41.41,0,0,0,0-.09,1.34,1.34,0,0,0,.07-.18,1.35,1.35,0,0,0,.07-.36c-.07.1-.13.21-.19.31l-.08.16h0c0-.15-.1-.31-.14-.47h0l0,0a.27.27,0,0,0,.07-.08l.09-.16a1.26,1.26,0,0,0,.13-.34,3.11,3.11,0,0,0-.23.28l-.11.13,0,0a8.63,8.63,0,0,1-.19-1,5.62,5.62,0,0,0,.08,1l0,0-.14-.11-.3-.21a1.29,1.29,0,0,0,.22.3l.13.14.08.06,0,0h0c0,.18.07.35.11.51h0l-.16-.08-.33-.15a1.66,1.66,0,0,0,.27.26,1,1,0,0,0,.15.11l.09,0,.05,0h0c0,.15.08.3.13.44a.14.14,0,0,1,0,.06h0l-.16-.06-.34-.13a1.27,1.27,0,0,0,.28.24l.16.09.09,0h0c.06.15.11.29.17.43l-.15,0-.35-.11a1.29,1.29,0,0,0,.3.22l.17.08.09,0h0l.12.26.08.13-.16,0L56,212a1.29,1.29,0,0,0,.32.19l.17.07.1,0h0l.12.21.09.14-.12,0c-.12,0-.24,0-.37,0a1.47,1.47,0,0,0,.34.15l.18,0H57a1.33,1.33,0,0,0,.14.19l.15.16h-.5a2.06,2.06,0,0,0,.35.12l.18,0h.11l.31.28h-.11a2.46,2.46,0,0,0-.37,0,1.55,1.55,0,0,0,.36.08h.29l.12.09.3.2-.13,0-.36.07a2.25,2.25,0,0,0,.36.06h.31l.41.25-.17,0-.35.1a1.5,1.5,0,0,0,.37,0l.18,0,.1,0h0l.45.29h.61l.45-.29h0l.09,0,.19,0a1.54,1.54,0,0,0,.37,0l-.35-.1-.17,0,.41-.25h.31a2.25,2.25,0,0,0,.36-.06l-.36-.07-.13,0,.3-.2.12-.09H62a1.35,1.35,0,0,0,.36-.08,2.2,2.2,0,0,0-.36,0h-.11l.3-.28h.12l.18,0a2.06,2.06,0,0,0,.35-.12h-.5l.15-.16.14-.19h.09l.18,0a1.24,1.24,0,0,0,.33-.15l-.36,0-.12,0,.09-.14.12-.21h0l.1,0,.17-.07a1.5,1.5,0,0,0,.32-.19l-.36.08-.16,0,.08-.13.12-.26h0l.1,0,.17-.08a1.48,1.48,0,0,0,.29-.22l-.34.11-.16,0c.06-.14.12-.28.17-.43h0l.1,0,.16-.09a1.27,1.27,0,0,0,.28-.24l-.34.13-.16.06h0a.14.14,0,0,0,0-.06c.05-.14.1-.29.14-.44h0l0,0,.09,0,.15-.11a1.28,1.28,0,0,0,.26-.26l-.33.15Zm-4.19,4.5a6,6,0,0,0-.5-.38v0a.44.44,0,0,1,0-.1,1.34,1.34,0,0,0-.07-.18,1.45,1.45,0,0,0-.18-.32c0,.13,0,.24.06.36s0,.11,0,.17L58.6,214v0a.34.34,0,0,0,0-.1,1.16,1.16,0,0,0,0-.18,1,1,0,0,0-.09-.21l.19.08.18.05.1,0H59l.67,1,0,.06A.31.31,0,0,1,59.65,214.7Zm1.41-1.06c0,.06,0,.12-.05.18a.34.34,0,0,1,0,.1,0,0,0,0,0,0,0l-.38.26,0-.17c0-.12.05-.23.07-.36a1.5,1.5,0,0,0-.19.32l-.06.18s0,.06,0,.1v0a6,6,0,0,0-.5.38l0-.07v0l0,0,.67-1h.06l.1,0,.18-.05.18-.08A1.8,1.8,0,0,0,61.06,213.64Z" style="fill: rgb(23, 24, 53);"/><g id="grass"><path class="cls-21" d="M73.06,231.4a26.78,26.78,0,0,1,2-5.22s-1.81,2.62-3.19,4.9a9.06,9.06,0,0,0-1.33,4.44h2.09A22.93,22.93,0,0,1,73.06,231.4Z" style="fill: rgb(84, 58, 135);"/><path class="cls-21" d="M94.59,235.52h1.34a17.67,17.67,0,0,1-.06-2.8,9.61,9.61,0,0,1,1.38-3.36,25.72,25.72,0,0,0-2.66,3.21c0-1.74,0-4.13-.14-6.86a83.43,83.43,0,0,0-1.12-10.87s.33,5.62.11,11.13a49.09,49.09,0,0,1-1.3,9.55h2.45Z" style="fill: rgb(84, 58, 135);"/><path class="cls-21" d="M113.39,231.87a26.46,26.46,0,0,0-5.74,2.6,26.78,26.78,0,0,1,2.53-4.67s-2.42,2.62-4.27,4.9a7.94,7.94,0,0,0-.59.82h2.38l.18-.29C109.11,233.31,113.39,231.87,113.39,231.87Z" style="fill: rgb(84, 58, 135);"/><path class="cls-21" d="M75.4,234.91a23.35,23.35,0,0,1,2.71-5.22s-2.43,2.62-4.28,4.9a8.07,8.07,0,0,0-.66.93h2.08C75.29,235.32,75.34,235.11,75.4,234.91Z" style="fill: rgb(84, 58, 135);"/><path class="cls-21" d="M78.66,235.36c1.22-1.91,5.5-3.35,5.5-3.35a25.87,25.87,0,0,0-6.88,3.35l-.21.16h1.49Z" style="fill: rgb(84, 58, 135);"/><path class="cls-21" d="M69.44,235.52s-.62-1.65-.21-6.4,3.59-9.38,3.59-9.38S69.15,223,68,227.06a21.81,21.81,0,0,0-.71,5.29c-.64-2-1.39-4-1.39-4a18,18,0,0,1,.11,5.32,15.88,15.88,0,0,1-.52,1.84h3.92Z" style="fill: rgb(84, 58, 135);"/><path class="cls-21" d="M62.61,235.52a27.48,27.48,0,0,0-1.51-5.34c-1.12-2.77-4.83-5.91-4.83-5.91A17.58,17.58,0,0,1,59.59,230a9.49,9.49,0,0,1,.57,2.48,16.07,16.07,0,0,0-4.84-3.43s3.53,1.75,3.84,3.72a6.27,6.27,0,0,1-.18,2.74h3.63Z" style="fill: rgb(84, 58, 135);"/><path class="cls-21" d="M89,235.35a52,52,0,0,0-1.87-10.86,79.06,79.06,0,0,1,.3,8.09c-.85-2.13-1.86-4.25-1.86-4.25a16.74,16.74,0,0,1,.42,5.35,14.12,14.12,0,0,1-.48,1.84H89Z" style="fill: rgb(84, 58, 135);"/><path class="cls-21" d="M100.31,235.52a10,10,0,0,1,.66-3.36c.71-1.91,3.16-3.36,3.16-3.36a13.59,13.59,0,0,0-3.95,3.36,10.32,10.32,0,0,0-1.06,1.58,5.11,5.11,0,0,0-1.07-2.62,3.8,3.8,0,0,1,.33,3.63c-.13.27-.27.53-.41.77h2.34Z" style="fill: rgb(84, 58, 135);"/><path class="cls-21" d="M37.32,235.52s.63-1.65.21-6.4S34,219.74,34,219.74s3.67,3.27,4.79,7.32a21.81,21.81,0,0,1,.71,5.29c.64-2,1.39-4,1.39-4a18,18,0,0,0-.11,5.32,15.89,15.89,0,0,0,.51,1.84H37.32Z" style="fill: rgb(84, 58, 135);"/><path class="cls-21" d="M128,235.52h-1a13.22,13.22,0,0,0,0-2.07,7.14,7.14,0,0,0-1-2.47,17.81,17.81,0,0,1,2,2.37c0-1.29,0-3,.1-5.07a62,62,0,0,1,.83-8s-.25,4.15-.08,8.22a36.3,36.3,0,0,0,1,7H128Z" style="fill: rgb(84, 58, 135);"/><path class="cls-21" d="M21.13,231.4a26.78,26.78,0,0,1,2-5.22s-1.81,2.62-3.19,4.9a9.06,9.06,0,0,0-1.33,4.44h2.09A22.93,22.93,0,0,1,21.13,231.4Z" style="fill: rgb(84, 58, 135);"/><path class="cls-21" d="M117.63,235.52h1a14.08,14.08,0,0,1-.05-2.14,7.34,7.34,0,0,1,1.05-2.56,19.41,19.41,0,0,0-2,2.45c0-1.33,0-3.15-.1-5.24a63,63,0,0,0-.86-8.29s.26,4.29.08,8.49a37.66,37.66,0,0,1-1,7.29h1.87Z" style="fill: rgb(84, 58, 135);"/><path class="cls-21" d="M23.47,234.91a23.35,23.35,0,0,1,2.71-5.22s-2.43,2.62-4.28,4.9a9.52,9.52,0,0,0-.66.93h2.08C23.36,235.32,23.41,235.11,23.47,234.91Z" style="fill: rgb(84, 58, 135);"/><path class="cls-21" d="M26.73,235.36c1.22-1.91,5.5-3.35,5.5-3.35a25.87,25.87,0,0,0-6.88,3.35l-.21.16h1.49C26.66,235.47,26.7,235.42,26.73,235.36Z" style="fill: rgb(84, 58, 135);"/><path class="cls-21" d="M13.36,235.52s-.62-1.65-.21-6.4,3.59-9.38,3.59-9.38S13.07,223,12,227.06a21.33,21.33,0,0,0-.71,5.29c-.64-2-1.39-4-1.39-4a18,18,0,0,1,.11,5.32,15.88,15.88,0,0,1-.52,1.84h3.92Z" style="fill: rgb(84, 58, 135);"/><path class="cls-21" d="M46.84,235.52a9.86,9.86,0,0,1,.67-3.36c.7-1.91,3.15-3.36,3.15-3.36a13.63,13.63,0,0,0-3.94,3.36,9.78,9.78,0,0,0-1.07,1.58,5,5,0,0,0-1.07-2.62,3.77,3.77,0,0,1,.33,3.63c-.13.27-.26.53-.4.77h2.33Z" style="fill: rgb(84, 58, 135);"/><path class="cls-21" d="M4,226c-.23-5.51.1-11.13.1-11.13A83.43,83.43,0,0,0,3,225.71l0,1.19v8.62H5.27A48.68,48.68,0,0,1,4,226Z" style="fill: rgb(84, 58, 135);"/></g><g id="grass-2" data-name="grass"><path class="cls-21" d="M136.51,231.4a26.78,26.78,0,0,1,2-5.22s-1.81,2.62-3.19,4.9a9.06,9.06,0,0,0-1.33,4.44h2.09A22.93,22.93,0,0,1,136.51,231.4Z" style="fill: rgb(84, 58, 135);"/><path class="cls-21" d="M158,235.52h1.34a19.15,19.15,0,0,1-.06-2.8,9.61,9.61,0,0,1,1.38-3.36,25.72,25.72,0,0,0-2.66,3.21c0-1.74,0-4.13-.14-6.86a83.43,83.43,0,0,0-1.12-10.87s.34,5.62.11,11.13a49.09,49.09,0,0,1-1.3,9.55H158Z" style="fill: rgb(84, 58, 135);"/><path class="cls-21" d="M138.85,234.91a23.35,23.35,0,0,1,2.71-5.22s-2.43,2.62-4.28,4.9a9.52,9.52,0,0,0-.66.93h2.08C138.74,235.32,138.79,235.11,138.85,234.91Z" style="fill: rgb(84, 58, 135);"/><path class="cls-21" d="M142.11,235.36c1.23-1.91,5.51-3.35,5.51-3.35a25.86,25.86,0,0,0-6.89,3.35l-.21.16H142C142,235.47,142.08,235.42,142.11,235.36Z" style="fill: rgb(84, 58, 135);"/><path class="cls-21" d="M132.89,235.52s-.62-1.65-.2-6.4,3.58-9.38,3.58-9.38-3.67,3.27-4.79,7.32a21.81,21.81,0,0,0-.71,5.29c-.64-2-1.39-4-1.39-4a12.49,12.49,0,0,1-.4,7.16h3.91Z" style="fill: rgb(84, 58, 135);"/><path class="cls-21" d="M126.06,235.52a26.66,26.66,0,0,0-1.51-5.34c-1.12-2.77-4.82-5.91-4.82-5.91A17.46,17.46,0,0,1,123,230a9.49,9.49,0,0,1,.57,2.48,15.94,15.94,0,0,0-4.84-3.43s3.53,1.75,3.84,3.72a6.27,6.27,0,0,1-.18,2.74h3.63Z" style="fill: rgb(84, 58, 135);"/><path class="cls-21" d="M152.41,235.35a52,52,0,0,0-1.87-10.86,79.06,79.06,0,0,1,.3,8.09c-.85-2.13-1.86-4.25-1.86-4.25a16.74,16.74,0,0,1,.42,5.35,15.94,15.94,0,0,1-.47,1.84h3.49Z" style="fill: rgb(84, 58, 135);"/><path class="cls-21" d="M163.76,235.52a10,10,0,0,1,.66-3.36c.71-1.91,3.16-3.36,3.16-3.36a13.63,13.63,0,0,0-3.94,3.36,9.78,9.78,0,0,0-1.07,1.58,5.11,5.11,0,0,0-1.07-2.62,3.77,3.77,0,0,1,.33,3.63c-.13.27-.27.53-.4.77h2.33Z" style="fill: rgb(84, 58, 135);"/><path class="cls-21" d="M100.77,235.52s.63-1.65.21-6.4-3.58-9.38-3.58-9.38,3.67,3.27,4.79,7.32a21.81,21.81,0,0,1,.71,5.29c.64-2,1.39-4,1.39-4a18,18,0,0,0-.11,5.32,15.89,15.89,0,0,0,.51,1.84h-3.92Z" style="fill: rgb(84, 58, 135);"/><path class="cls-21" d="M84.58,231.4a26.78,26.78,0,0,1,2-5.22s-1.81,2.62-3.19,4.9a9.06,9.06,0,0,0-1.33,4.44h2.1A22.39,22.39,0,0,1,84.58,231.4Z" style="fill: rgb(84, 58, 135);"/><path class="cls-21" d="M86.92,234.91a23.79,23.79,0,0,1,2.71-5.22s-2.42,2.62-4.28,4.9a9.52,9.52,0,0,0-.66.93h2.08C86.81,235.32,86.86,235.11,86.92,234.91Z" style="fill: rgb(84, 58, 135);"/><path class="cls-21" d="M90.18,235.36c1.23-1.91,5.51-3.35,5.51-3.35a25.86,25.86,0,0,0-6.89,3.35l-.21.16h1.49C90.11,235.47,90.15,235.42,90.18,235.36Z" style="fill: rgb(84, 58, 135);"/><path class="cls-21" d="M76.81,235.52s-.62-1.65-.2-6.4,3.58-9.38,3.58-9.38-3.67,3.27-4.79,7.32a21.81,21.81,0,0,0-.71,5.29c-.64-2-1.39-4-1.39-4a12.49,12.49,0,0,1-.4,7.16h3.91Z" style="fill: rgb(84, 58, 135);"/><path class="cls-21" d="M110.29,235.52a10.17,10.17,0,0,1,.67-3.36c.7-1.91,3.15-3.36,3.15-3.36a13.63,13.63,0,0,0-3.94,3.36,9.78,9.78,0,0,0-1.07,1.58,5,5,0,0,0-1.07-2.62,3.77,3.77,0,0,1,.33,3.63c-.13.27-.26.53-.4.77h2.33Z" style="fill: rgb(84, 58, 135);"/><path class="cls-21" d="M67.43,226c-.23-5.51.1-11.13.1-11.13a85.51,85.51,0,0,0-1.12,10.87l0,1.19v8.62h2.34A48.68,48.68,0,0,1,67.43,226Z" style="fill: rgb(84, 58, 135);"/></g><g id="grass-3" data-name="grass"><path class="cls-21" d="M239,231.4a26.78,26.78,0,0,1,2-5.22s-1.81,2.62-3.19,4.9a9.06,9.06,0,0,0-1.33,4.44h2.09A22.93,22.93,0,0,1,239,231.4Z" style="fill: rgb(84, 58, 135);"/><path class="cls-21" d="M260.55,235.52h1.34a17.67,17.67,0,0,1-.06-2.8,9.66,9.66,0,0,1,1.37-3.36,26.05,26.05,0,0,0-2.65,3.21c0-1.74-.05-4.13-.14-6.86a83.43,83.43,0,0,0-1.12-10.87s.33,5.62.11,11.13a49.09,49.09,0,0,1-1.3,9.55h2.45Z" style="fill: rgb(84, 58, 135);"/><path class="cls-21" d="M279.35,231.87a26.46,26.46,0,0,0-5.74,2.6,26.78,26.78,0,0,1,2.53-4.67s-2.42,2.62-4.27,4.9a7.94,7.94,0,0,0-.59.82h2.38l.18-.29C275.07,233.31,279.35,231.87,279.35,231.87Z" style="fill: rgb(84, 58, 135);"/><path class="cls-21" d="M241.36,234.91a23.35,23.35,0,0,1,2.71-5.22s-2.43,2.62-4.28,4.9a8.07,8.07,0,0,0-.66.93h2.08C241.25,235.32,241.3,235.11,241.36,234.91Z" style="fill: rgb(84, 58, 135);"/><path class="cls-21" d="M244.62,235.36c1.22-1.91,5.5-3.35,5.5-3.35a25.87,25.87,0,0,0-6.88,3.35l-.21.16h1.49Z" style="fill: rgb(84, 58, 135);"/><path class="cls-21" d="M235.4,235.52s-.62-1.65-.21-6.4,3.59-9.38,3.59-9.38-3.67,3.27-4.79,7.32a21.81,21.81,0,0,0-.71,5.29c-.64-2-1.39-4-1.39-4a18,18,0,0,1,.11,5.32,15.88,15.88,0,0,1-.52,1.84h3.92Z" style="fill: rgb(84, 58, 135);"/><path class="cls-21" d="M228.57,235.52a27.48,27.48,0,0,0-1.51-5.34c-1.12-2.77-4.83-5.91-4.83-5.91a17.58,17.58,0,0,1,3.32,5.74,9.49,9.49,0,0,1,.57,2.48,16.07,16.07,0,0,0-4.84-3.43s3.53,1.75,3.84,3.72a6.27,6.27,0,0,1-.18,2.74h3.63Z" style="fill: rgb(84, 58, 135);"/><path class="cls-21" d="M254.92,235.35a52,52,0,0,0-1.87-10.86,79.06,79.06,0,0,1,.3,8.09c-.85-2.13-1.86-4.25-1.86-4.25a16.74,16.74,0,0,1,.42,5.35,14.12,14.12,0,0,1-.48,1.84h3.5Z" style="fill: rgb(84, 58, 135);"/><path class="cls-21" d="M266.27,235.52a10,10,0,0,1,.66-3.36c.71-1.91,3.16-3.36,3.16-3.36a13.59,13.59,0,0,0-3.95,3.36,10.32,10.32,0,0,0-1.06,1.58,5.11,5.11,0,0,0-1.07-2.62,3.8,3.8,0,0,1,.33,3.63c-.13.27-.27.53-.41.77h2.34Z" style="fill: rgb(84, 58, 135);"/><path class="cls-21" d="M203.28,235.52s.63-1.65.21-6.4-3.58-9.38-3.58-9.38,3.67,3.27,4.79,7.32a21.81,21.81,0,0,1,.71,5.29c.64-2,1.39-4,1.39-4a18,18,0,0,0-.11,5.32,15.89,15.89,0,0,0,.51,1.84h-3.92Z" style="fill: rgb(84, 58, 135);"/><path class="cls-21" d="M294,235.52h-1a13.22,13.22,0,0,0,.05-2.07,7.14,7.14,0,0,0-1-2.47,17.81,17.81,0,0,1,2,2.37c0-1.29,0-3,.1-5.07a62,62,0,0,1,.83-8s-.25,4.15-.08,8.22a36.3,36.3,0,0,0,1,7H294Z" style="fill: rgb(84, 58, 135);"/><path class="cls-21" d="M187.09,231.4a26.78,26.78,0,0,1,2-5.22s-1.81,2.62-3.19,4.9a9.06,9.06,0,0,0-1.33,4.44h2.09A22.93,22.93,0,0,1,187.09,231.4Z" style="fill: rgb(84, 58, 135);"/><path class="cls-21" d="M283.59,235.52h1a14.08,14.08,0,0,1-.05-2.14,7.34,7.34,0,0,1,1.05-2.56,19.41,19.41,0,0,0-2,2.45c0-1.33,0-3.15-.1-5.24a63,63,0,0,0-.86-8.29s.26,4.29.08,8.49a37.66,37.66,0,0,1-1,7.29h1.87Z" style="fill: rgb(84, 58, 135);"/><path class="cls-21" d="M189.43,234.91a23.35,23.35,0,0,1,2.71-5.22s-2.43,2.62-4.28,4.9a9.52,9.52,0,0,0-.66.93h2.08C189.32,235.32,189.37,235.11,189.43,234.91Z" style="fill: rgb(84, 58, 135);"/><path class="cls-21" d="M192.69,235.36c1.22-1.91,5.5-3.35,5.5-3.35a25.87,25.87,0,0,0-6.88,3.35l-.21.16h1.49C192.62,235.47,192.66,235.42,192.69,235.36Z" style="fill: rgb(84, 58, 135);"/><path class="cls-21" d="M179.32,235.52s-.62-1.65-.21-6.4,3.59-9.38,3.59-9.38-3.67,3.27-4.79,7.32a21.33,21.33,0,0,0-.71,5.29c-.64-2-1.39-4-1.39-4a18,18,0,0,1,.11,5.32,15.88,15.88,0,0,1-.52,1.84h3.92Z" style="fill: rgb(84, 58, 135);"/><path class="cls-21" d="M212.8,235.52a9.86,9.86,0,0,1,.67-3.36c.7-1.91,3.15-3.36,3.15-3.36a13.63,13.63,0,0,0-3.94,3.36,9.78,9.78,0,0,0-1.07,1.58,5,5,0,0,0-1.07-2.62,3.77,3.77,0,0,1,.33,3.63c-.13.27-.26.53-.4.77h2.33Z" style="fill: rgb(84, 58, 135);"/><path class="cls-21" d="M169.94,226c-.23-5.51.1-11.13.1-11.13a83.43,83.43,0,0,0-1.12,10.87l0,1.19v8.62h2.34A48.68,48.68,0,0,1,169.94,226Z" style="fill: rgb(84, 58, 135);"/></g><g id="grass-4" data-name="grass"><path class="cls-21" d="M302.47,231.4a26.78,26.78,0,0,1,2-5.22s-1.81,2.62-3.19,4.9a9.06,9.06,0,0,0-1.33,4.44h2.09A22.93,22.93,0,0,1,302.47,231.4Z" style="fill: rgb(84, 58, 135);"/><path class="cls-21" d="M324,235.52h1.34a17.67,17.67,0,0,1-.06-2.8,9.61,9.61,0,0,1,1.38-3.36,25.72,25.72,0,0,0-2.66,3.21c0-1.74-.05-4.13-.14-6.86a83.43,83.43,0,0,0-1.12-10.87s.34,5.62.11,11.13a49.09,49.09,0,0,1-1.3,9.55H324Z" style="fill: rgb(84, 58, 135);"/><path class="cls-21" d="M304.81,234.91a23.35,23.35,0,0,1,2.71-5.22s-2.43,2.62-4.28,4.9a9.52,9.52,0,0,0-.66.93h2.08C304.7,235.32,304.75,235.11,304.81,234.91Z" style="fill: rgb(84, 58, 135);"/><path class="cls-21" d="M308.07,235.36c1.22-1.91,5.5-3.35,5.5-3.35a25.87,25.87,0,0,0-6.88,3.35l-.21.16H308C308,235.47,308,235.42,308.07,235.36Z" style="fill: rgb(84, 58, 135);"/><path class="cls-21" d="M298.85,235.52s-.62-1.65-.2-6.4,3.58-9.38,3.58-9.38-3.67,3.27-4.79,7.32a21.81,21.81,0,0,0-.71,5.29c-.64-2-1.39-4-1.39-4a12.49,12.49,0,0,1-.4,7.16h3.91Z" style="fill: rgb(84, 58, 135);"/><path class="cls-21" d="M292,235.52a26.66,26.66,0,0,0-1.51-5.34c-1.12-2.77-4.82-5.91-4.82-5.91A17.46,17.46,0,0,1,289,230a9.49,9.49,0,0,1,.57,2.48,15.94,15.94,0,0,0-4.84-3.43s3.53,1.75,3.84,3.72a6.27,6.27,0,0,1-.18,2.74H292Z" style="fill: rgb(84, 58, 135);"/><path class="cls-21" d="M318.37,235.35a52,52,0,0,0-1.87-10.86,79.06,79.06,0,0,1,.3,8.09c-.85-2.13-1.86-4.25-1.86-4.25a16.74,16.74,0,0,1,.42,5.35,15.94,15.94,0,0,1-.47,1.84h3.49Z" style="fill: rgb(84, 58, 135);"/><path class="cls-21" d="M329.72,235.52a10,10,0,0,1,.66-3.36c.71-1.91,3.16-3.36,3.16-3.36a13.63,13.63,0,0,0-3.94,3.36,9.78,9.78,0,0,0-1.07,1.58,5.11,5.11,0,0,0-1.07-2.62,3.77,3.77,0,0,1,.33,3.63c-.13.27-.27.53-.4.77h2.33Z" style="fill: rgb(84, 58, 135);"/><path class="cls-21" d="M266.73,235.52s.63-1.65.21-6.4-3.58-9.38-3.58-9.38,3.67,3.27,4.79,7.32a21.81,21.81,0,0,1,.71,5.29c.64-2,1.39-4,1.39-4a18,18,0,0,0-.11,5.32,15.89,15.89,0,0,0,.51,1.84h-3.92Z" style="fill: rgb(84, 58, 135);"/><path class="cls-21" d="M250.54,231.4a26.78,26.78,0,0,1,2-5.22s-1.81,2.62-3.19,4.9a9.06,9.06,0,0,0-1.33,4.44h2.1A22.39,22.39,0,0,1,250.54,231.4Z" style="fill: rgb(84, 58, 135);"/><path class="cls-21" d="M252.88,234.91a23.79,23.79,0,0,1,2.71-5.22s-2.42,2.62-4.28,4.9a9.52,9.52,0,0,0-.66.93h2.08C252.77,235.32,252.82,235.11,252.88,234.91Z" style="fill: rgb(84, 58, 135);"/><path class="cls-21" d="M256.14,235.36c1.23-1.91,5.51-3.35,5.51-3.35a25.86,25.86,0,0,0-6.89,3.35l-.21.16H256C256.07,235.47,256.11,235.42,256.14,235.36Z" style="fill: rgb(84, 58, 135);"/><path class="cls-21" d="M242.77,235.52s-.62-1.65-.2-6.4,3.58-9.38,3.58-9.38-3.67,3.27-4.79,7.32a21.81,21.81,0,0,0-.71,5.29c-.64-2-1.39-4-1.39-4a12.49,12.49,0,0,1-.4,7.16h3.91Z" style="fill: rgb(84, 58, 135);"/><path class="cls-21" d="M276.25,235.52a10.17,10.17,0,0,1,.67-3.36c.7-1.91,3.15-3.36,3.15-3.36a13.63,13.63,0,0,0-3.94,3.36,9.78,9.78,0,0,0-1.07,1.58,5,5,0,0,0-1.07-2.62,3.77,3.77,0,0,1,.33,3.63c-.13.27-.26.53-.4.77h2.33Z" style="fill: rgb(84, 58, 135);"/><path class="cls-21" d="M233.39,226c-.23-5.51.1-11.13.1-11.13a85.51,85.51,0,0,0-1.12,10.87l0,1.19v8.62h2.34A48.68,48.68,0,0,1,233.39,226Z" style="fill: rgb(84, 58, 135);"/></g><path class="cls-19" d="M268,64.26A23.68,23.68,0,0,1,266.39,66l-.05,0s0,0,0,0a.71.71,0,0,0-.72-.7h-.07a.69.69,0,0,0-.64.65c-.08,0-1.06-.21-2.37-2a4.2,4.2,0,0,0-1-.92,6.7,6.7,0,0,0-4-1.42,22.87,22.87,0,0,1,1.89,2.22c.25.37.52.78.82,1.28a2.46,2.46,0,0,0,.21.29v0a4.7,4.7,0,0,0,2.44,1.47c.81.31.85.71.72,1a1.61,1.61,0,0,1-1,.81s2.75.44,3.63-1.27a4.23,4.23,0,0,0,3.55-1.37l.36-.43,0,0,.19-.26c1.67-2.53,2.27-3,2.59-3.17A7.16,7.16,0,0,0,268,64.26Z" style="fill: rgb(30, 33, 70);"/><path class="cls-19" d="M152.29,31.42A19,19,0,0,0,153.75,33l.05,0v0a.63.63,0,0,1,.63-.62h.07a.6.6,0,0,1,.56.58c.07,0,.94-.19,2.1-1.75a3.41,3.41,0,0,1,.9-.82,5.92,5.92,0,0,1,3.53-1.25,19.2,19.2,0,0,0-1.67,2c-.22.33-.46.69-.73,1.13a2.54,2.54,0,0,1-.18.25v0a4.15,4.15,0,0,1-2.15,1.3c-.72.27-.76.63-.64.89a1.45,1.45,0,0,0,.85.72s-2.43.39-3.21-1.13A3.69,3.69,0,0,1,150.71,33l-.32-.38,0,0-.16-.23c-1.48-2.23-2-2.67-2.29-2.8A6.32,6.32,0,0,1,152.29,31.42Z" style="fill: rgb(30, 33, 70);"/><path class="cls-22" d="M316.28,130.38v-4.06l.28-.08a3.28,3.28,0,0,0,3.27-3.25,0,0,0,0,0,0,0v-6a1.08,1.08,0,1,0-2.16,0v5a.7.7,0,0,1-.63.41.71.71,0,0,1-.49-.19V116.4a1.68,1.68,0,0,0-1.45-1.67v0h-.23v0a1.68,1.68,0,0,0-1.45,1.67l.27,14.19Z" style="fill: rgb(55, 41, 116);"/><path d="M 216.5800018310547 16.43000030517578 L 214.86000061035156 18.190000534057617 L 216.72000122070312 16.68000030517578 L 216.80999755859375 19 L 217 16.739999771118164 L 218.75 18.190000534057617 L 217.02000427246094 16.469999313354492 L 219.5500030517578 16.25 L 217.1199951171875 16.25 L 218.75 14.3100004196167 L 216.91000366210938 16.110000610351562 L 216.80999755859375 13.510000228881836 L 216.66000366210938 16.09000015258789 L 214.86000061035156 14.3100004196167 L 216.5 16.25 L 214.05999755859375 16.25 L 216.5800018310547 16.43000030517578 Z" class="cls-2" style="fill: rgb(255, 255, 255);"/><path d="M 270.7699890136719 49.400001525878906 L 269.04998779296875 51.15999984741211 L 270.8999938964844 49.650001525878906 L 270.989990234375 51.970001220703125 L 271.19000244140625 49.709999084472656 L 272.92999267578125 51.15999984741211 L 271.2099914550781 49.439998626708984 L 273.739990234375 49.220001220703125 L 271.29998779296875 49.220001220703125 L 272.92999267578125 47.279998779296875 L 271.0899963378906 49.08000183105469 L 270.989990234375 46.47999954223633 L 270.8399963378906 49.060001373291016 L 269.04998779296875 47.279998779296875 L 270.69000244140625 49.220001220703125 L 268.239990234375 49.220001220703125 L 270.7699890136719 49.400001525878906 Z" class="cls-2" style="fill: rgb(255, 255, 255);"/><path d="M 22.6299991607666 18.18000030517578 L 20.90999984741211 19.940000534057617 L 22.760000228881836 18.43000030517578 L 22.850000381469727 20.739999771118164 L 23.049999237060547 18.489999771118164 L 24.790000915527344 19.940000534057617 L 23.06999969482422 18.219999313354492 L 25.600000381469727 18 L 23.15999984741211 18 L 24.790000915527344 16.049999237060547 L 22.950000762939453 17.860000610351562 L 22.850000381469727 15.25 L 22.700000762939453 17.84000015258789 L 20.90999984741211 16.049999237060547 L 22.549999237060547 18 L 20.100000381469727 18 L 22.6299991607666 18.18000030517578 Z" class="cls-2" style="fill: rgb(255, 255, 255);"/><path d="M 168.86000061035156 73.70999908447266 L 167.13999938964844 75.47000122070312 L 168.99000549316406 73.95999908447266 L 169.0800018310547 76.2699966430664 L 169.27999877929688 74.0199966430664 L 171.02999877929688 75.47000122070312 L 169.3000030517578 73.75 L 171.8300018310547 73.52999877929688 L 169.39999389648438 73.52999877929688 L 171.02999877929688 71.58000183105469 L 169.19000244140625 73.38999938964844 L 169.0800018310547 70.77999877929688 L 168.94000244140625 73.37000274658203 L 167.13999938964844 71.58000183105469 L 168.77999877929688 73.52999877929688 L 166.33999633789062 73.52999877929688 L 168.86000061035156 73.70999908447266 Z" class="cls-2" style="fill: rgb(255, 255, 255);"/><path class="cls-23" d="M260.49,162.08a11.05,11.05,0,0,1,9.6,5.57h-19.2A11.05,11.05,0,0,1,260.49,162.08Z" style="fill-rule: evenodd; fill: rgb(40, 39, 91);"/><path class="cls-24" d="M228.57,208.37a12.86,12.86,0,0,1,11.15,6.47h-22.3A12.86,12.86,0,0,1,228.57,208.37Z" style="fill-rule: evenodd; fill: rgb(30, 33, 70);"/><path class="cls-24" d="M312.8,211.67a6.41,6.41,0,0,1,5.58,3.24H307.23A6.41,6.41,0,0,1,312.8,211.67Z" style="fill-rule: evenodd; fill: rgb(30, 33, 70);"/><path class="cls-24" d="M248.54,211.67a6.41,6.41,0,0,1,5.57,3.24H243A6.41,6.41,0,0,1,248.54,211.67Z" style="fill-rule: evenodd; fill: rgb(30, 33, 70);"/><path class="cls-24" d="M19.88,205.73A17.56,17.56,0,0,1,32,210.59a10.28,10.28,0,0,1,13.66,4H4.59A17.59,17.59,0,0,1,19.88,205.73Z" style="fill-rule: evenodd; fill: rgb(30, 33, 70);"/><path class="cls-23" d="M212.5,160.66a4.49,4.49,0,0,0-3.9,2.27h7.8A4.47,4.47,0,0,0,212.5,160.66Z" style="fill-rule: evenodd; fill: rgb(40, 39, 91);"/><path class="cls-11" d="M235.81,159.63a6.54,6.54,0,0,0-5.68,3.3H241.5A6.55,6.55,0,0,0,235.81,159.63Z" style="fill-rule: evenodd; fill: rgb(84, 58, 135);"/><path class="cls-23" d="M242.18,159.24a7.33,7.33,0,0,0-6.37,3.69h12.73A7.32,7.32,0,0,0,242.18,159.24Z" style="fill-rule: evenodd; fill: rgb(40, 39, 91);"/><g class="cls-14" style="opacity: 0.2;"><path class="cls-25" d="M250.89,167.65c.08,3.53,2.49,5.91,6.65,5.91s8.94-2.38,12.55-5.91Z" style="fill-rule: evenodd; fill: url('#Névtelen_színátmenet_2');"/><path class="cls-26" d="M211.06,165.31a9,9,0,0,0,5.39-2.4h-7.89C208.47,164.34,209.36,165.31,211.06,165.31Z" style="fill-rule: evenodd; fill: url('#Névtelen_színátmenet_2-2');"/><path class="cls-27" d="M235.88,162.91h-5.75c0,2.09,1.33,3.49,3.81,3.5a8.93,8.93,0,0,0,3.1-.63,4.6,4.6,0,0,0,3.16,1c2.77,0,6-1.57,8.54-3.91H235.88Z" style="fill-rule: evenodd; fill: url('#Névtelen_színátmenet_2-3');"/></g></svg>