<svg xmlns="http://www.w3.org/2000/svg" id="master-artboard" width="2000" height="1500" x="0" y="0" version="1.1" viewBox="0 0 2000 1500" style="enable-background:new 0 0 2000 1500"><linearGradient id="SVGID_1_" x1="1000" x2="1000" y1="5.633" y2="899.903" gradientUnits="userSpaceOnUse"><stop offset="0" style="stop-color:#001426"/><stop offset=".5" style="stop-color:#0e2950"/><stop offset="1" style="stop-color:#2b667e"/></linearGradient><path d="M 0 0 H 2000 V 964.400024 H 0 V 0 Z" class="st0" transform="matrix(1, 0, 0, 1, 0, 0)" style="fill:url(#SVGID_1_)"/><linearGradient id="SVGID_2_" x1="1000" x2="1000" y1="1039.399" y2="1524.932" gradientUnits="userSpaceOnUse"><stop offset="0" style="stop-color:#4b655f"/><stop offset="1" style="stop-color:#1e3f4b"/></linearGradient><path d="M 0 1036.400024 H 2000 V 1500.000031 H 0 V 1036.400024 Z" class="st1" transform="matrix(1, 0, 0, 1, 0, 0)" style="fill:url(#SVGID_2_)"/><linearGradient id="SVGID_3_" x1="580.977" x2="580.977" y1="1110.106" y2="1487.422" gradientUnits="userSpaceOnUse"><stop offset="0" style="stop-color:#395c54"/><stop offset="1" style="stop-color:#1e3f4b"/></linearGradient><path d="M630.3,1295.9c0,5.2-0.8,17.4-11.3,27.9c-10.5,10.5-22.4,6.3-29,18.1c-6.6,11.8-20.7,29.9-33.9,33.9 c-13.2,4-24.4-2.6-24.4-16.1c0-13.5,0.6-46.6,1.6-53.4c1-6.8,43.5-11.8,45.8-11.8S630.3,1295.9,630.3,1295.9z" class="st2" transform="matrix(1, 0, 0, 1, 0, 0)" style="fill:url(#SVGID_3_)"/><linearGradient id="SVGID_4_" x1="1000" x2="1000" y1="1039.399" y2="1524.932" gradientUnits="userSpaceOnUse"><stop offset="0" style="stop-color:#395c54"/><stop offset="1" style="stop-color:#1e3f4b"/></linearGradient><path d="M0,1149c30.2-17.4,81.6,19.2,126.7,45.2c45.1,26,111,16,157.6-18.7s119.2-3.4,170.7,8.1s102.9-49.4,148.6-49.4 s69.4,51.8,110.2,51.8s46.5-40,85.7-40c39.2,0,43.3-33.5,72.7-33.5c29.4,0,75.1,29.7,137.2,29.7s129.4,1.7,146.2,18.5 s30.2,51.5,58.8,51.5c28.6,0,29-38.3,58.8-55.5c29.8-17.2,36.7-37.6,78.4-33.5c41.6,4.1,33.5,28.6,119.2,31.8s81.7-26.9,140.1-19.2 c58.4,7.8,61.9,20,121,20s208.7,24.5,268.1-9.8c0-20.4,0-30.2,0-30.2s-103.6,17.1-171.4,13.9c-67.8-3.3-184.6-17.1-234.4-17.1 c-49.8,0-103.7,18.6-145.4,5.7c-41.7-12.9-132.3-19.3-153.8-13.8s-62.5,48.5-95.5,45.5s-96.5-24.5-132.5-27.5s-87.5-21.4-121.5-30 s-88.8-14-113,0s-93.5,54-137,37s-55-23-89.5-17s-130.5,47-169.5,33s-135.5-13.9-164,2.6s-116.5,34.4-147,12.9s-97-49.9-125.5-40.4 V1149z" class="st3" transform="matrix(1, 0, 0, 1, 0, 0)" style="fill:url(#SVGID_4_)"/><linearGradient id="SVGID_5_" x1="1000" x2="1000" y1="887.952" y2="1117.727" gradientUnits="userSpaceOnUse"><stop offset="0" style="stop-color:#2d585a"/><stop offset="1" style="stop-color:#5c9987"/></linearGradient><path d="M0,893.6h2000v227.9c0,0-191.1,19-270.8,0c-59.1-14.1-128.7,0-213.7,0c-85,0-111.7-19.4-191.8-19.4 s-43.7,36.4-116.6,36.4c-72.9,0-60.7-12.1-138.4-12.1s-162.3-65.8-213.7-29.1c-80.8,57.7-156,33.4-215.9,17.9 c-100.2-26.1-114.4,49.9-185.7,39.3c-71.3-10.7-137.9-44.3-187.3,9.3c-26.1,28.3-138.5,1.5-193-30c-54.5-31.4-73-13.1-73-13.1 V893.6z" class="st4" transform="matrix(1, 0, 0, 1, 0, 0)" style="fill:url(#SVGID_5_)"/><linearGradient id="SVGID_6_" x1="1000" x2="1000" y1="887.952" y2="1117.727" gradientUnits="userSpaceOnUse"><stop offset="0" style="stop-color:#214d4f"/><stop offset="1" style="stop-color:#5c9987"/></linearGradient><path d="M1815,1081.1c-56-4.6-80.9-23.5-101.7-33.4c7-10.8-6.4-15.2-31.7-5.3l0,0c-6.2,0.9-13.2,2.5-21,4.4 c-17-0.9-25.7-15.2-70.1-18.8c-59-4.7,0-14,20.6-34.6c20.6-20.6-10.8-4.5-38.4-20.5c-27.6-15.9-9.4-14.2-3.7-31.9 c5.6-17.8,7.5,1.9,43.1,1.9s29,10.3,47.7,10.3s19.2,0.8,39.3-10.8c20.1-11.6,16.8,0,40.3-13.5c23.4-13.5,30.7-11.5,30.7-11.5 s7.6-4.4,11.4-4.4c-2.1,0-7.5,0-14,0c-10.3,0-10.3,0-51.1,7.3c-40.8,7.3-11.7,6.7-36,6.7s-28.1,0-59.9-4.9 c-31.8-4.9-42.4,0-72.1,17.1c-29.7,17.1-9.1,14.8-5.6,16.9c3.5,2,16.4,17.3,12.2,21.5c-4.2,4.2-44,14.7-68.3,0.6 c-24.4-14.1-10.3,0-64.6,0s-26.2,3.1-86.1-10.9c-8.9-2.1-17.1-4.2-24.9-6.5c9.8-1,22-2.6,38.5-5.2c57.3-9,12.2-4.6,4.2-4.6 s-13.3-1.3-39.3,0.9c-12.4,1-18,1.7-26.1,2.1c-18.6-5.9-35.9-11.9-55.9-17.4c2.3-0.7,4.8-1.4,7.4-2.2c20.3-5.9,22.7-4.3,38.1-4.3 c15.4,0,21.2-1.6,34-1.6s59.4,5,59.4,5s-3.7-2.8-31.8-10.4s-29.7,0.2-134.3,6.5c-0.5,0-1,0.1-1.5,0.1c-8.6-1.8-17.8-3.5-27.8-5 c-37.9-5.8-57.5-0.9-85.2,7.2c-72.2-0.7-138.8-4.3-165.2-4.3c-40.3,0-99.2,5.3-99.2,5.3s-208.6-5.3-236.2-5.3 c-27.6,0-10.1,0-77.5,0c-58,0-189.1,24.4-242.5,34.5c0,0-64.3,5-109.9,0c-45.6-5-58.9,0-120.5,0c-27.1,0-39.6-2.1-39.6-2.1v7.4 l14.1,4.8c0,0,13.8,0,35.6,0c21.8,0,13.3-2.5,73.2-2.5s24.4,6.7,51.5,6.7c27.1,0,72.7-6.7,94.5-6.7c8.5,0,15.9-0.7,23.6-2 c-9.5,16.3-13.8,31.7-32.1,36.3c-18.8,4.7-18.1,26.8-37.5,26.7c-9.1-0.2-39.5,11.7-92.2,6.7C40.1,1028.4,0,1025.8,0,1025.8v21.4 c46.9,8.4,90.2,18.7,177.6,12.6c87.4-6.1,92.7-12.3,136.7-12.3c44.1,0,93.8-18.6,139.3-2.6c39.9,14.1,90.4,25.8,114.7,1.5 c24.3-24.3,92.9-26.8,104.7-20c11.8,6.8,42.5,5.2,68.7,30c26.2,24.8,10.7,48.7,41.3,50.7s40.7-42,68.7-42s44-12.7,66.7-12.7 c22.7,0,70-13.3,98-13.3c28,0,40.7-34.7,91.3-30.7c50.7,4,65.6,39.9,108.3,51.3c42.7,11.3,47.7,26.6,77,26.6s48.5-49,77.8-49 c29.3,0,62.6,8,101.4,30.4c38.7,22.4,58.8,15.4,94.8,8.8c36-6.7,87.6-27.1,127.6-13.8c40,13.3,33,38.8,92.6,38.8 c59.7,0,39.7-0.2,77-8.9c37.3-8.7,66.2-69.4,135.7-47.5v-22.6C1945.3,1027.8,1888.3,1087.1,1815,1081.1z M1325.9,986 c37.2,21.5-11.4,3.5-55.4-2c-41.1-5.1-46-12.5-64.9-19.5c17.6,0.6,28.2,1.5,50.3-0.4c10.5-0.9,18-1.1,25.9-1.4 C1290.6,966,1301.2,971.7,1325.9,986z M1210.5,949.5c24,0,14,1,30,1c10.3,0,12.7,1.7,17.1,3.9c-5,0-10.8,0-17.6,0 c-33.8,0-47.9-2.5-49.9-4.9C1194.3,949.5,1196.6,949.5,1210.5,949.5z M297.6,982.2c-1.6,7.1-6.6,12.4-7.5,16 c-2,7.3,11.1,7.5,1.6,15c-9.5,7.5-10.1,9.3-18.4,9.3c-8.3,0-6.3-3.1,2.8-12.1s9.5-14.7,12.2-19.5c2.8-4.7,4.6-14,7-12.6 C297.6,979.6,299.2,975.1,297.6,982.2z M869.2,1032.9c-24.6,5.8-45.8,12.5-68.9,17.6c-45.3,10-54.8-44.5-122.8-37.8 c-68,6.7-148.5,22.3-189.2,13.6c-72.7-15.5-121.2-11.4-168.5-3.6c-19.4,3.3-16.2-19-11.8-32.4c4.4-13.4-0.3-13.4-0.3-21.2 c0-1.8-0.1-3.3-0.3-4.8c8.1-1.9,17.3-4.4,28.9-7.3c31.3-8,138.5-22.3,161.3-22.3s48.8-3.2,69-3.2s44.1,4.8,19.1,10.9 s-73.2,2.9-88.6,0c-15.4-2.9-56.3,8.7-35.6,5.7s44.6,9.9,83.3,9.9s40.3-5.8,109.3-15.6s22.9-4,73.8-7.2 c50.9-3.2,82.8,11.1,108.8,7.2c26-3.9,30.8,1.3,65.3,3.4c34.5,2.1,12.2,2.3,80.1,2.3c41.8,0,39.8,0,41.5,0 c-11.2,2.1-23.7,4-37.9,5.8C873.4,968.1,913.6,1007.3,869.2,1032.9z M1538.3,1057.8c-69.3-12.7-52-40.7-128.7-40.7 c-76.7,0-63.3,28.7-148,17.3c-84.7-11.3-94-45-158-37.7c-33.3,3.8-51.4,4.9-72.8,11.7c-9.2,1-47.5,19-61.8,21.8 c-44.5,8.5-54.3-0.6-50.5-4.3c3.7-3.7,50.5-20,73.5-24s34.5-9,65.1-15.9c30.6-6.9,11.4-6.6-5.1-6.6s-8.5,0-48,7 s-21.5,4.5-52.5,11.5s-8.8-17.2,9-27.5c17.8-10.3,65-1.5,109-14.5c15.5-4.6,23.4-6.6,29.1-7.3c24.7,2.2,48.8,12.2,74.1,14.8 c-7.4,2.8-8.7,7,4.3,7c24.5,0,31,25.5,103.5,46.5c72.5,21,55.5,0.5,88-8.5s55-2,85.5-2s21.6-1.6,48.5,9 c25.1,9.9,28.2,40.2,49.2,44.3C1547.3,1059.2,1542.8,1058.6,1538.3,1057.8z" class="st5" transform="matrix(1, 0, 0, 1, 0, 0)" style="fill:url(#SVGID_6_)"/><linearGradient id="SVGID_7_" x1="1000" x2="1000" y1="1205.382" y2="861.484" gradientUnits="userSpaceOnUse"><stop offset="0" style="stop-color:#e4f8cf"/><stop offset="1" style="stop-color:#1e3f4b"/></linearGradient><path d="M1825.6,1058.7c27.1,0-8.5-6.7,51.5-6.7s51.5,2.5,73.2,2.5c21.8,0,35.6,0,35.6,0l14.1-4.8v-7.4 c0,0-12.5,2.1-39.6,2.1c-61.6,0-74.9-5-120.5,0c-45.6,5-109.9,0-109.9,0s-10.9-2.1-28.3-5.4c-3.7-9-2.4-12.5-8.1-18.2 c-7.4-7.4-17.5-15.4-24.8-13.4c-7.4,2-18.8-0.3-24.8-0.3c-6,0,3.7,5,7.7,5s7.1-0.3,12.8-0.3s5.7-1.7,11.8,4.4s9.6,14.6,14.1,19.1 c0.7,0.7,1.1,1.3,1.5,2c-55.4-10.1-156.7-27.3-204.3-27.3c-67.4,0-49.9,0-77.5,0c-27.6,0-236.2,5.3-236.2,5.3s-58.9-5.3-99.2-5.3 c-26.3,0-93,3.6-165.2,4.3c-27.7-8-47.3-13-85.2-7.2c-10,1.5-19.2,3.2-27.8,5c-0.5,0-1-0.1-1.5-0.1 c-104.6-6.3-106.1-14.1-134.3-6.5s-31.8,10.4-31.8,10.4s46.7-5,59.4-5c12.7,0,18.6,1.6,34,1.6c15.4,0,17.8-1.6,38.1,4.3 c2.6,0.8,5.1,1.5,7.4,2.2c-20,5.5-37.3,11.5-55.9,17.4c-8.1-0.4-13.8-1.1-26.1-2.1c-26-2.1-31.3-0.9-39.3-0.9s-53.1-4.4,4.2,4.6 c16.4,2.6,28.6,4.2,38.5,5.2c-7.8,2.2-16,4.4-24.9,6.5c-59.9,14-31.8,10.9-86.1,10.9c-54.3,0-40.2-14.1-64.6,0 c-24.4,14.1-64.1,3.6-68.3-0.6s8.7-19.5,12.2-21.5c3.5-2,24,0.3-5.6-16.9c-29.7-17.1-40.3-22-72.1-17.1 c-31.8,4.9-35.6,4.9-59.9,4.9s4.8,0.6-36-6.7c-40.8-7.3-40.8-7.3-51.1-7.3c-6.5,0-11.9,0-14,0c3.7,0,11.4,4.4,11.4,4.4 s7.3-2,30.7,11.5c23.4,13.5,20.1,1.9,40.3,13.5c20.1,11.6,20.6,10.8,39.3,10.8c18.7,0,12.2-10.3,47.7-10.3s37.4-19.7,43.1-1.9 c5.6,17.8,23.9,16-3.7,31.9c-27.6,15.9-59-0.1-38.4,20.5c20.6,20.6,79.6,29.9,20.6,34.6c-44.3,3.5-53.1,17.8-70.1,18.8 c-7.8-1.9-14.9-3.5-21-4.4c0,0,0,0,0,0c-25.3-9.9-38.7-5.5-31.7,5.3c-20.8,9.9-45.7,28.9-101.7,33.4c-73.3,6-130.3-53.3-185-58.7 v22.6c69.5-22,98.4,38.8,135.7,47.5s17.3,8.9,77,8.9c59.7,0,52.6-25.4,92.6-38.8c40-13.3,91.6,7.1,127.6,13.8 c36,6.7,56.1,13.6,94.8-8.8s72-30.4,101.4-30.4c29.3,0,48.5,49,77.8,49c29.3,0,34.3-15.3,77-26.6c42.7-11.3,57.6-47.3,108.3-51.3 c50.7-4,63.3,30.7,91.3,30.7s75.3,13.3,98,13.3c22.7,0,38.7,12.7,66.7,12.7s38,44,68.7,42s15.1-25.9,41.3-50.7 c26.2-24.8,56.9-23.2,68.7-30s80.3-4.3,104.7,20c24.3,24.3,74.9,12.6,114.7-1.5c45.5-16,95.2,2.6,139.3,2.6 c44.1,0,49.4,6.2,136.7,12.3c87.4,6.1,130.7-4.3,177.6-12.6v-21.4c0,0-40.1,2.6-130.6,11.3c-52.7,5.1-83.1-6.9-92.2-6.7 c-19.4,0.1-18.7-22-37.5-26.7c-18.3-4.6-22.6-20-32.1-36.3c7.7,1.3,15.1,2,23.6,2C1752.9,1051.9,1798.6,1058.7,1825.6,1058.7z M759.5,1033c16,0,6-1,30-1c13.9,0,16.2,0,20.4,0c-2.1,2.5-16.1,4.9-49.9,4.9c-6.7,0-12.5,0-17.6,0 C746.8,1034.7,749.2,1033,759.5,1033z M674.1,1068.5c24.7-14.2,35.2-19.9,43.9-23.3c7.9,0.3,15.5,0.5,25.9,1.4 c22.1,1.9,32.8,1,50.3,0.4c-18.8,7.1-23.7,14.4-64.9,19.5C685.5,1072,636.9,1090,674.1,1068.5z M1031,1112.8 c-14.3-2.7-52.6-20.8-61.8-21.8c-21.5-6.8-39.5-7.9-72.8-11.7c-64-7.3-73.3,26.4-158,37.7c-84.7,11.3-71.3-17.3-148-17.3 s-59.3,28-128.7,40.7c-4.5,0.8-9,1.5-13.4,1.9c21-4,24.2-34.3,49.2-44.3c26.9-10.6,18-9,48.5-9s53-7,85.5,2s15.5,29.5,88,8.5 s79-46.5,103.5-46.5c12.9,0,11.7-4.2,4.3-7c25.3-2.6,49.4-12.6,74.1-14.8c5.7,0.7,13.7,2.8,29.1,7.3c44,13,91.2,4.2,109,14.5 c17.8,10.3,40,34.5,9,27.5s-13-4.5-52.5-11.5s-31.5-7-48-7s-35.7-0.4-5.1,6.6c30.6,6.9,42.1,11.9,65.1,15.9s69.8,20.2,73.5,24 C1085.2,1112.2,1075.4,1121.3,1031,1112.8z M1680.2,1105.2c-47.3-7.9-95.8-11.9-168.5,3.6c-40.7,8.7-121.2-7-189.2-13.6 c-68-6.7-77.5,47.8-122.8,37.8c-23.1-5.1-44.3-11.7-68.9-17.6c-44.3-25.6-4.1-64.8-116.5-78.9c-14.2-1.8-26.7-3.7-37.9-5.8 c1.7,0-0.4,0,41.5,0c67.9,0,45.6-0.2,80.1-2.3c34.5-2.1,39.3-7.4,65.3-3.4c26,3.9,57.8-10.4,108.8-7.2c50.9,3.2,4.9-2.6,73.8,7.2 s70.5,15.6,109.3,15.6s62.6-12.9,83.3-9.9s-20.2-8.6-35.6-5.7c-15.4,2.9-63.7,6.1-88.6,0s-1.1-10.9,19.1-10.9s46.2,3.2,69,3.2 s130,14.3,161.3,22.3c11.5,2.9,20.7,5.4,28.9,7.3c-0.1,1.4-0.3,3-0.3,4.8c0,7.7-4.7,7.7-0.3,21.2 C1696.4,1086.2,1699.6,1108.5,1680.2,1105.2z M1711.7,1073.4c2.8,4.7,3.2,10.4,12.2,19.5c9,9,11.1,12.1,2.8,12.1 c-8.3,0-8.9-1.8-18.4-9.3c-9.5-7.5,3.6-7.7,1.6-15c-1-3.6-5.9-8.9-7.5-16c-1.6-7.1,0-2.6,2.3-4 C1707,1059.4,1708.9,1068.7,1711.7,1073.4z" class="st6" transform="matrix(1, 0, 0, 1, 0, 0)" style="fill:url(#SVGID_7_)"/><g transform="matrix(1, 0, 0, 1, 0, 0)"><linearGradient id="SVGID_8_" x1="1808.45" x2="1808.45" y1="970.317" y2="965.317" gradientUnits="userSpaceOnUse"><stop offset="0" style="stop-color:#2d585a"/><stop offset="1" style="stop-color:#5c9987"/></linearGradient><path d="M1808.5,970.3c3.2,0,3.2-5,0-5C1805.2,965.3,1805.2,970.3,1808.5,970.3L1808.5,970.3z" class="st7" style="fill:url(#SVGID_8_)"/></g><path d="M 149.499994 390 A 4.1 4.1 0 0 1 145.399994 394.1 A 4.1 4.1 0 0 1 141.299994 390 A 4.1 4.1 0 0 1 145.399994 385.9 A 4.1 4.1 0 0 1 149.499994 390 Z" class="st8" transform="matrix(1, 0, 0, 1, 0, 0)" style="fill:#b0e7f7"/><path d="M 499.9 373.5 A 1.4 1.4 0 0 1 498.5 374.9 A 1.4 1.4 0 0 1 497.1 373.5 A 1.4 1.4 0 0 1 498.5 372.1 A 1.4 1.4 0 0 1 499.9 373.5 Z" class="st8" transform="matrix(1, 0, 0, 1, 0, 0)" style="fill:#b0e7f7"/><path d="M 692.100024 412.700012 A 2.7 2.7 0 0 1 689.400024 415.400012 A 2.7 2.7 0 0 1 686.700024 412.700012 A 2.7 2.7 0 0 1 689.400024 410.000012 A 2.7 2.7 0 0 1 692.100024 412.700012 Z" class="st8" transform="matrix(1, 0, 0, 1, 0, 0)" style="fill:#b0e7f7"/><path d="M 1073.899951 320 A 2.2 2.2 0 0 1 1071.699951 322.2 A 2.2 2.2 0 0 1 1069.499951 320 A 2.2 2.2 0 0 1 1071.699951 317.8 A 2.2 2.2 0 0 1 1073.899951 320 Z" class="st8" transform="matrix(1, 0, 0, 1, 0, 0)" style="fill:#b0e7f7"/><path d="M 1426.800025 295.799988 A 4.4 4.4 0 0 1 1422.400024 300.199988 A 4.4 4.4 0 0 1 1418.000024 295.799988 A 4.4 4.4 0 0 1 1422.400024 291.399988 A 4.4 4.4 0 0 1 1426.800025 295.799988 Z" class="st8" transform="matrix(1, 0, 0, 1, 0, 0)" style="fill:#b0e7f7"/><path d="M 1924.500024 330.399994 A 2.6 2.6 0 0 1 1921.900024 332.999994 A 2.6 2.6 0 0 1 1919.300025 330.399994 A 2.6 2.6 0 0 1 1921.900024 327.799994 A 2.6 2.6 0 0 1 1924.500024 330.399994 Z" class="st8" transform="matrix(1, 0, 0, 1, 0, 0)" style="fill:#b0e7f7"/><path d="M 1796.200025 449.799988 A 4.3 4.3 0 0 1 1791.900024 454.099988 A 4.3 4.3 0 0 1 1787.600024 449.799988 A 4.3 4.3 0 0 1 1791.900024 445.499988 A 4.3 4.3 0 0 1 1796.200025 449.799988 Z" class="st8" transform="matrix(1, 0, 0, 1, 0, 0)" style="fill:#b0e7f7"/><path d="M 1500.999951 554.5 A 2.8 2.8 0 0 1 1498.199951 557.3 A 2.8 2.8 0 0 1 1495.399951 554.5 A 2.8 2.8 0 0 1 1498.199951 551.7 A 2.8 2.8 0 0 1 1500.999951 554.5 Z" class="st8" transform="matrix(1, 0, 0, 1, 0, 0)" style="fill:#b0e7f7"/><path d="M 1150.400049 593.700012 A 2.1 2.1 0 0 1 1148.300049 595.800012 A 2.1 2.1 0 0 1 1146.200049 593.700012 A 2.1 2.1 0 0 1 1148.300049 591.600012 A 2.1 2.1 0 0 1 1150.400049 593.700012 Z" class="st8" transform="matrix(1, 0, 0, 1, 0, 0)" style="fill:#b0e7f7"/><path d="M 720.5 588.299988 A 7.5 7.5 0 0 1 713 595.799988 A 7.5 7.5 0 0 1 705.5 588.299988 A 7.5 7.5 0 0 1 713 580.799988 A 7.5 7.5 0 0 1 720.5 588.299988 Z" class="st8" transform="matrix(1, 0, 0, 1, 0, 0)" style="fill:#b0e7f7"/><path d="M 548.2 552.5 A 1.2 1.2 0 0 1 547 553.7 A 1.2 1.2 0 0 1 545.8 552.5 A 1.2 1.2 0 0 1 547 551.3 A 1.2 1.2 0 0 1 548.2 552.5 Z" class="st8" transform="matrix(1, 0, 0, 1, 0, 0)" style="fill:#b0e7f7"/><path d="M 81.799999 777 A 3.2 3.2 0 0 1 78.599998 780.2 A 3.2 3.2 0 0 1 75.399998 777 A 3.2 3.2 0 0 1 78.599998 773.8 A 3.2 3.2 0 0 1 81.799999 777 Z" class="st8" transform="matrix(1, 0, 0, 1, 0, 0)" style="fill:#b0e7f7"/><path d="M 433.399988 778.599976 A 1.6 1.6 0 0 1 431.799988 780.199976 A 1.6 1.6 0 0 1 430.199988 778.599976 A 1.6 1.6 0 0 1 431.799988 776.999976 A 1.6 1.6 0 0 1 433.399988 778.599976 Z" class="st8" transform="matrix(1, 0, 0, 1, 0, 0)" style="fill:#b0e7f7"/><path d="M 842.199988 746.900024 A 2.9 2.9 0 0 1 839.299988 749.800025 A 2.9 2.9 0 0 1 836.399988 746.900024 A 2.9 2.9 0 0 1 839.299988 744.000024 A 2.9 2.9 0 0 1 842.199988 746.900024 Z" class="st8" transform="matrix(1, 0, 0, 1, 0, 0)" style="fill:#b0e7f7"/><path d="M 1243.5 838.799988 A 5 5 0 0 1 1238.5 843.799988 A 5 5 0 0 1 1233.5 838.799988 A 5 5 0 0 1 1238.5 833.799988 A 5 5 0 0 1 1243.5 838.799988 Z" class="st8" transform="matrix(1, 0, 0, 1, 0, 0)" style="fill:#b0e7f7"/><path d="M 1516.999951 835.799988 A 2.8 2.8 0 0 1 1514.199951 838.599988 A 2.8 2.8 0 0 1 1511.399951 835.799988 A 2.8 2.8 0 0 1 1514.199951 832.999988 A 2.8 2.8 0 0 1 1516.999951 835.799988 Z" class="st8" transform="matrix(1, 0, 0, 1, 0, 0)" style="fill:#b0e7f7"/><path d="M 1780.700049 764.200012 A 1.9 1.9 0 0 1 1778.800049 766.100012 A 1.9 1.9 0 0 1 1776.900049 764.200012 A 1.9 1.9 0 0 1 1778.800049 762.300012 A 1.9 1.9 0 0 1 1780.700049 764.200012 Z" class="st8" transform="matrix(1, 0, 0, 1, 0, 0)" style="fill:#b0e7f7"/><path d="M 1918.600049 696.900024 A 1.3 1.3 0 0 1 1917.300049 698.200024 A 1.3 1.3 0 0 1 1916.000049 696.900024 A 1.3 1.3 0 0 1 1917.300049 695.600024 A 1.3 1.3 0 0 1 1918.600049 696.900024 Z" class="st8" transform="matrix(1, 0, 0, 1, 0, 0)" style="fill:#b0e7f7"/><path d="M 1722.899951 531 A 4.2 4.2 0 0 1 1718.699951 535.2 A 4.2 4.2 0 0 1 1714.499951 531 A 4.2 4.2 0 0 1 1718.699951 526.8 A 4.2 4.2 0 0 1 1722.899951 531 Z" class="st8" transform="matrix(1, 0, 0, 1, 0, 0)" style="fill:#b0e7f7"/><path d="M 1759.699975 330.399994 A 2.6 2.6 0 0 1 1757.099976 332.999994 A 2.6 2.6 0 0 1 1754.499976 330.399994 A 2.6 2.6 0 0 1 1757.099976 327.799994 A 2.6 2.6 0 0 1 1759.699975 330.399994 Z" class="st8" transform="matrix(1, 0, 0, 1, 0, 0)" style="fill:#b0e7f7"/><path d="M 1828.5 177.800003 A 3 3 0 0 1 1825.5 180.800003 A 3 3 0 0 1 1822.5 177.800003 A 3 3 0 0 1 1825.5 174.800003 A 3 3 0 0 1 1828.5 177.800003 Z" class="st8" transform="matrix(1, 0, 0, 1, 0, 0)" style="fill:#b0e7f7"/><path d="M 1560.999951 87.5 A 2.8 2.8 0 0 1 1558.199951 90.3 A 2.8 2.8 0 0 1 1555.399951 87.5 A 2.8 2.8 0 0 1 1558.199951 84.7 A 2.8 2.8 0 0 1 1560.999951 87.5 Z" class="st8" transform="matrix(1, 0, 0, 1, 0, 0)" style="fill:#b0e7f7"/><path d="M 1185.5 52.799999 A 3 3 0 0 1 1182.5 55.799999 A 3 3 0 0 1 1179.5 52.799999 A 3 3 0 0 1 1182.5 49.799999 A 3 3 0 0 1 1185.5 52.799999 Z" class="st8" transform="matrix(1, 0, 0, 1, 0, 0)" style="fill:#b0e7f7"/><path d="M 909.900012 57 A 4.2 4.2 0 0 1 905.700012 61.2 A 4.2 4.2 0 0 1 901.500012 57 A 4.2 4.2 0 0 1 905.700012 52.8 A 4.2 4.2 0 0 1 909.900012 57 Z" class="st8" transform="matrix(1, 0, 0, 1, 0, 0)" style="fill:#b0e7f7"/><path d="M 518.5 81.800003 A 3 3 0 0 1 515.5 84.800003 A 3 3 0 0 1 512.5 81.800003 A 3 3 0 0 1 515.5 78.800003 A 3 3 0 0 1 518.5 81.800003 Z" class="st8" transform="matrix(1, 0, 0, 1, 0, 0)" style="fill:#b0e7f7"/><path d="M 227.299994 84.699997 A 5.9 5.9 0 0 1 221.399994 90.599997 A 5.9 5.9 0 0 1 215.499994 84.699997 A 5.9 5.9 0 0 1 221.399994 78.799997 A 5.9 5.9 0 0 1 227.299994 84.699997 Z" class="st8" transform="matrix(1, 0, 0, 1, 0, 0)" style="fill:#b0e7f7"/><path d="M 256.999997 189.5 A 2.8 2.8 0 0 1 254.199997 192.3 A 2.8 2.8 0 0 1 251.399997 189.5 A 2.8 2.8 0 0 1 254.199997 186.7 A 2.8 2.8 0 0 1 256.999997 189.5 Z" class="st8" transform="matrix(1, 0, 0, 1, 0, 0)" style="fill:#b0e7f7"/><path d="M 608.900012 263 A 3.2 3.2 0 0 1 605.700012 266.2 A 3.2 3.2 0 0 1 602.500012 263 A 3.2 3.2 0 0 1 605.700012 259.8 A 3.2 3.2 0 0 1 608.900012 263 Z" class="st8" transform="matrix(1, 0, 0, 1, 0, 0)" style="fill:#b0e7f7"/><path d="M 863.900012 293.600006 A 2.2 2.2 0 0 1 861.700012 295.800006 A 2.2 2.2 0 0 1 859.500012 293.600006 A 2.2 2.2 0 0 1 861.700012 291.400006 A 2.2 2.2 0 0 1 863.900012 293.600006 Z" class="st8" transform="matrix(1, 0, 0, 1, 0, 0)" style="fill:#b0e7f7"/><path d="M 871.5 485.299988 A 1.5 1.5 0 0 1 870 486.799988 A 1.5 1.5 0 0 1 868.5 485.299988 A 1.5 1.5 0 0 1 870 483.799988 A 1.5 1.5 0 0 1 871.5 485.299988 Z" class="st8" transform="matrix(1, 0, 0, 1, 0, 0)" style="fill:#b0e7f7"/><path d="M 1233.5 435.299988 A 3.5 3.5 0 0 1 1230 438.799988 A 3.5 3.5 0 0 1 1226.5 435.299988 A 3.5 3.5 0 0 1 1230 431.799988 A 3.5 3.5 0 0 1 1233.5 435.299988 Z" class="st8" transform="matrix(1, 0, 0, 1, 0, 0)" style="fill:#b0e7f7"/><path d="M 1291.5 216.8000030517578 L 1291.5 216.8000030517578 L 1291.5 216.8000030517578 L 1291.5 216.8000030517578 Z" class="st8" transform="matrix(1, 0, 0, 1, 0, 0)" style="fill:#b0e7f7"/><path d="M 356.5 507.799988 A 8 8 0 0 1 348.5 515.799988 A 8 8 0 0 1 340.5 507.799988 A 8 8 0 0 1 348.5 499.799988 A 8 8 0 0 1 356.5 507.799988 Z" class="st8" transform="matrix(1, 0, 0, 1, 0, 0)" style="fill:#b0e7f7"/><path d="M 183.5 635.799988 A 4 4 0 0 1 179.5 639.799988 A 4 4 0 0 1 175.5 635.799988 A 4 4 0 0 1 179.5 631.799988 A 4 4 0 0 1 183.5 635.799988 Z" class="st8" transform="matrix(1, 0, 0, 1, 0, 0)" style="fill:#b0e7f7"/><radialGradient id="SVGID_9_" cx="1000" cy="421.781" r="177.292" gradientUnits="userSpaceOnUse"><stop offset="0" style="stop-color:#ffffd7"/><stop offset="1" style="stop-color:#ffffd7;stop-opacity:0"/></radialGradient><path d="M 1181 421.799988 A 181 181 0 0 1 1000 602.799988 A 181 181 0 0 1 819 421.799988 A 181 181 0 0 1 1000 240.799988 A 181 181 0 0 1 1181 421.799988 Z" class="st9" transform="matrix(1, 0, 0, 1, 0, 0)" style="fill:url(#SVGID_9_)"/><path d="M 1094 421.799988 A 94 94 0 0 1 1000 515.799988 A 94 94 0 0 1 906 421.799988 A 94 94 0 0 1 1000 327.799988 A 94 94 0 0 1 1094 421.799988 Z" class="st10" transform="matrix(1, 0, 0, 1, 0, 0)" style="fill:#ffffd7"/><linearGradient id="SVGID_10_" x1="956.766" x2="956.766" y1="1110.106" y2="1487.422" gradientUnits="userSpaceOnUse"><stop offset="0" style="stop-color:#395c54"/><stop offset="1" style="stop-color:#1e3f4b"/></linearGradient><path d="M988.7,1252.3c-1,4.5-0.1,17.2-4.5,21.6c-4.4,4.4-4.7,7.9-5.6,12.6c-0.9,4.7-15.5,21.4-28,21.4 c-12.5,0-16.9-17-19.8-23s-5.7-22.3-6-25.3c-0.3-3,20.9-7.3,20.9-7.3H988.7z" class="st11" transform="matrix(1, 0, 0, 1, 0, 0)" style="fill:url(#SVGID_10_)"/><path d="M950,1239.5c-21.5,3.3-34.7,16.5-22.6,23.5s19.3,12.9,34.6,10s9.8-11.5,22.2-18.8S963,1237.6,950,1239.5z" class="st12" transform="matrix(1, 0, 0, 1, 0, 0)" style="fill:#3c627c"/><path d="M970,1263c5.9-3.3,5.4-13,11-17.8c-8.3-4-23.3-6.8-31-5.7c-15.1,2.3-26.1,9.5-27.1,16 C935.1,1267.5,954.1,1272.5,970,1263z" class="st13" transform="matrix(1, 0, 0, 1, 0, 0)" style="fill:#4e718d"/><path d="M567.3,1265.1c-25,0-32.4,18.8-32.4,29s-8.1,14.7,10.8,21s63.7-3.4,78.4-11.9c14.7-8.5,0.6-17.6-19.3-23.3 C585,1274.2,594.1,1265.1,567.3,1265.1z" class="st12" transform="matrix(1, 0, 0, 1, 0, 0)" style="fill:#3c627c"/><path d="M581,1306c9-3,20-3,27-10c3.3-4,4-8.9,4.1-13.8c-2.3-0.8-4.7-1.6-7.2-2.3c-19.9-5.7-10.8-14.8-37.5-14.8 c-22.1,0-30.4,14.6-32.1,25.1C549.2,1299.8,561.4,1311.5,581,1306z" class="st13" transform="matrix(1, 0, 0, 1, 0, 0)" style="fill:#4e718d"/><linearGradient id="SVGID_11_" x1="1652.83" x2="1652.83" y1="1110.106" y2="1487.422" gradientUnits="userSpaceOnUse"><stop offset="0" style="stop-color:#395c54"/><stop offset="1" style="stop-color:#1e3f4b"/></linearGradient><path d="M1617.5,1300.6c0,9.5,10,20.4,13.3,27.7c3.3,7.3,28.3,32.1,35.9,32.1c7.6,0,20.6-1.3,21.5-4.9 c0.9-3.6-3.8-39.4-7.5-53.5C1676.8,1287.9,1617.5,1300.6,1617.5,1300.6z" class="st14" transform="matrix(1, 0, 0, 1, 0, 0)" style="fill:url(#SVGID_11_)"/><path d="M1659.9,1263.4c-27.6,0-28.4,18.8-32.4,22.7c-4,4-20.5,14.2,0,21c20.5,6.8,37.8,10.2,46.6,5.1 c8.9-5.1,6.8-12.3,4-23.2C1675.3,1278.2,1674.1,1263.4,1659.9,1263.4z" class="st12" transform="matrix(1, 0, 0, 1, 0, 0)" style="fill:#3c627c"/><path d="M1639,1300c11-5,24,14,35,0c3.3-4,2.2-9.7,3.2-14.9c-2.3-10.2-4.7-21.7-17.2-21.7 c-27.6,0-28.4,18.8-32.4,22.7c-2.4,2.4-9.2,7-10,11.7C1623.8,1301.1,1631.6,1302.5,1639,1300z" class="st13" transform="matrix(1, 0, 0, 1, 0, 0)" style="fill:#4e718d"/><linearGradient id="SVGID_12_" x1="1901.874" x2="1901.874" y1="1110.106" y2="1487.422" gradientUnits="userSpaceOnUse"><stop offset="0" style="stop-color:#395c54"/><stop offset="1" style="stop-color:#1e3f4b"/></linearGradient><path d="M1873,1285.9c0,6.1,33.6,59.6,37.7,62c4.1,2.4,12-0.8,16.2-3.2s2.7,0.3,3.7-7.7c1.1-8-9.8-17-9.8-25.9 s2.8-28.4-0.3-31.6C1917.3,1276.4,1873,1285.9,1873,1285.9z" class="st15" transform="matrix(1, 0, 0, 1, 0, 0)" style="fill:url(#SVGID_12_)"/><path d="M1887.3,1238.4c-21,0-15.3,32.4-15.3,37.5c0,5.1-2.8,14.8,15.3,17.1s24.7-1.4,31.3-8s-5.4-16.5-14.2-21.6 C1895.5,1258.3,1899.8,1238.4,1887.3,1238.4z" class="st12" transform="matrix(1, 0, 0, 1, 0, 0)" style="fill:#3c627c"/><path d="M1904,1284c3-2,10-9,5-11c-11.4-4.4-18.2-16.5-12.2-25.5c-1.6-5-3.8-9.1-9.5-9.1c-21,0-15.3,32.4-15.3,37.5 c0,0.5,0,1-0.1,1.5c5.3,0.3,10.2,1.9,16.1,6.6C1891,1287,1899,1286,1904,1284z" class="st13" transform="matrix(1, 0, 0, 1, 0, 0)" style="fill:#4e718d"/><path d="M0,739c7.3,0,21.1-20.2,42.4-20.2s14.3,5.8,39.4,20.2c25,14.5,51.3,31.7,67.7,41.2 c16.4,9.5,84.5-76.9,102-86.9c17.5-10.1,29.5,0,58.2,0s54.3,34.5,61.8,50.8c7.5,16.3,18.7,36.2,34.1,45s26.9,4.7,42.7,13.8 c15.8,9.1,31.8,14.9,40.3,23.4c8.5,8.5,7.3,25.6,47.3,30.9s92,29.7,98.6,36.3c-142.7,0-634.5,0-634.5,0L0,739z" class="st16" transform="matrix(1, 0, 0, 1, 0, 0)" style="fill:#132735"/><path d="M2000,762.3c-24.7,0-61.2,9-75.5,17.2c-14.2,8.2,3.8,7.3-33.5,19.4c-37.3,12.1-67.7,16.2-82.6,16.2 c-14.9,0-8.8-13.1-31.5,0s-9.6,28.8-45,28.8c-35.4,0-40.8,0-61.3,0c-20.5,0-20.5-49.3-38.3-49.3s-54.7,8.5-54.7,8.5 s-9.1,11.8-26,21.5c-16.9,9.7-46.6,19.2-46.6,19.2s-70.8,25.8-82.7,32.7s-59.2,17.1-59.2,17.1H2000V762.3z" class="st16" transform="matrix(1, 0, 0, 1, 0, 0)" style="fill:#132735"/></svg>