<?xml version="1.0" encoding="utf-8"?>
<svg id="master-artboard" viewBox="0 0 2000 1500" version="1.1" xmlns="http://www.w3.org/2000/svg" x="0px" y="0px" style="enable-background:new 0 0 2000 1500;" width="2000px" height="1500px">

<linearGradient id="SVGID_1_" gradientUnits="userSpaceOnUse" x1="1000" y1="-34.7956" x2="1000" y2="848.1116">
		<stop offset="0" style="stop-color:#000014"/>
		<stop offset="1" style="stop-color:#15006B"/>
	</linearGradient><path d="M 0 0 H 2000 V 901.900024 H 0 V 0 Z" class="st0" style="fill: url('#SVGID_1_');" transform="matrix(1, 0, 0, 1, 0, 0)"/>
<g transform="matrix(1, 0, 0, 1, 0, 0)">
		<radialGradient id="SVGID_2_" cx="1279.8861" cy="334.0863" r="5.1761" gradientUnits="userSpaceOnUse">
			<stop offset="0" style="stop-color:#E8FFF1"/>
			<stop offset="1" style="stop-color:#BFEEEC"/>
		</radialGradient>
		<path d="M 1285.100024 334.100006 A 5.2 5.2 0 0 1 1279.900024 339.300006 A 5.2 5.2 0 0 1 1274.700025 334.100006 A 5.2 5.2 0 0 1 1279.900024 328.900006 A 5.2 5.2 0 0 1 1285.100024 334.100006 Z" class="st1" style="fill: url('#SVGID_2_');"/>
		<radialGradient id="SVGID_3_" cx="1471.2754" cy="245.8385" r="4.4864" gradientUnits="userSpaceOnUse">
			<stop offset="0" style="stop-color:#E8FFF1"/>
			<stop offset="1" style="stop-color:#BFEEEC"/>
		</radialGradient>
		<path d="M 1475.800049 245.800003 A 4.5 4.5 0 0 1 1471.300049 250.300003 A 4.5 4.5 0 0 1 1466.800049 245.800003 A 4.5 4.5 0 0 1 1471.300049 241.300003 A 4.5 4.5 0 0 1 1475.800049 245.800003 Z" class="st2" style="fill: url('#SVGID_3_');"/>
		<radialGradient id="SVGID_4_" cx="1394.941" cy="518.0897" r="5.1992" gradientUnits="userSpaceOnUse">
			<stop offset="0" style="stop-color:#E8FFF1"/>
			<stop offset="1" style="stop-color:#BFEEEC"/>
		</radialGradient>
		<path d="M 1400.100024 518.099976 A 5.2 5.2 0 0 1 1394.900024 523.299975 A 5.2 5.2 0 0 1 1389.700025 518.099976 A 5.2 5.2 0 0 1 1394.900024 512.899976 A 5.2 5.2 0 0 1 1400.100024 518.099976 Z" class="st3" style="fill: url('#SVGID_4_');"/>
		<radialGradient id="SVGID_5_" cx="1094.2637" cy="739.6226" r="5.1992" gradientUnits="userSpaceOnUse">
			<stop offset="0" style="stop-color:#E8FFF1"/>
			<stop offset="1" style="stop-color:#BFEEEC"/>
		</radialGradient>
		<path d="M 1099.500049 739.599976 A 5.2 5.2 0 0 1 1094.300049 744.799975 A 5.2 5.2 0 0 1 1089.100049 739.599976 A 5.2 5.2 0 0 1 1094.300049 734.399976 A 5.2 5.2 0 0 1 1099.500049 739.599976 Z" class="st4" style="fill: url('#SVGID_5_');"/>
		<radialGradient id="SVGID_6_" cx="1752.1664" cy="436.0176" r="0.6841" gradientUnits="userSpaceOnUse">
			<stop offset="0" style="stop-color:#E8FFF1"/>
			<stop offset="1" style="stop-color:#BFEEEC"/>
		</radialGradient>
		<path d="M 1752.899951 436 A 0.7 0.7 0 0 1 1752.199951 436.7 A 0.7 0.7 0 0 1 1751.499951 436 A 0.7 0.7 0 0 1 1752.199951 435.3 A 0.7 0.7 0 0 1 1752.899951 436 Z" class="st5" style="fill: url('#SVGID_6_');"/>
		<radialGradient id="SVGID_7_" cx="1768.448" cy="336.2754" r="2.1891" gradientUnits="userSpaceOnUse">
			<stop offset="0" style="stop-color:#E8FFF1"/>
			<stop offset="1" style="stop-color:#BFEEEC"/>
		</radialGradient>
		<path d="M 1770.600024 336.299988 A 2.2 2.2 0 0 1 1768.400024 338.499988 A 2.2 2.2 0 0 1 1766.200024 336.299988 A 2.2 2.2 0 0 1 1768.400024 334.099988 A 2.2 2.2 0 0 1 1770.600024 336.299988 Z" class="st6" style="fill: url('#SVGID_7_');"/>
		<radialGradient id="SVGID_8_" cx="1654.4764" cy="440.1223" r="0.9577" gradientUnits="userSpaceOnUse">
			<stop offset="0" style="stop-color:#E8FFF1"/>
			<stop offset="1" style="stop-color:#BFEEEC"/>
		</radialGradient>
		<path d="M 1655.5 440.100006 A 1 1 0 0 1 1654.5 441.100006 A 1 1 0 0 1 1653.5 440.100006 A 1 1 0 0 1 1654.5 439.100006 A 1 1 0 0 1 1655.5 440.100006 Z" class="st7" style="fill: url('#SVGID_8_');"/>
		<radialGradient id="SVGID_9_" cx="1570.1949" cy="328.4766" r="2.5996" gradientUnits="userSpaceOnUse">
			<stop offset="0" style="stop-color:#E8FFF1"/>
			<stop offset="1" style="stop-color:#BFEEEC"/>
		</radialGradient>
		<path d="M 1572.799951 328.5 A 2.6 2.6 0 0 1 1570.199951 331.1 A 2.6 2.6 0 0 1 1567.599951 328.5 A 2.6 2.6 0 0 1 1570.199951 325.9 A 2.6 2.6 0 0 1 1572.799951 328.5 Z" class="st8" style="fill: url('#SVGID_9_');"/>
		<radialGradient id="SVGID_10_" cx="954.0917" cy="199.4548" r="1.0946" gradientUnits="userSpaceOnUse">
			<stop offset="0" style="stop-color:#E8FFF1"/>
			<stop offset="1" style="stop-color:#BFEEEC"/>
		</radialGradient>
		<path d="M 955.199976 199.5 A 1.1 1.1 0 0 1 954.099976 200.6 A 1.1 1.1 0 0 1 952.999976 199.5 A 1.1 1.1 0 0 1 954.099976 198.4 A 1.1 1.1 0 0 1 955.199976 199.5 Z" class="st9" style="fill: url('#SVGID_10_');"/>
		<radialGradient id="SVGID_11_" cx="790.3174" cy="176.3321" r="1.505" gradientUnits="userSpaceOnUse">
			<stop offset="0" style="stop-color:#E8FFF1"/>
			<stop offset="1" style="stop-color:#BFEEEC"/>
		</radialGradient>
		<path d="M 791.799988 176.300003 A 1.5 1.5 0 0 1 790.299988 177.800003 A 1.5 1.5 0 0 1 788.799988 176.300003 A 1.5 1.5 0 0 1 790.299988 174.800003 A 1.5 1.5 0 0 1 791.799988 176.300003 Z" class="st10" style="fill: url('#SVGID_11_');"/>
		<radialGradient id="SVGID_12_" cx="690.9856" cy="174.9639" r="2.8732" gradientUnits="userSpaceOnUse">
			<stop offset="0" style="stop-color:#E8FFF1"/>
			<stop offset="1" style="stop-color:#BFEEEC"/>
		</radialGradient>
		<path d="M 693.9 175 A 2.9 2.9 0 0 1 691 177.9 A 2.9 2.9 0 0 1 688.1 175 A 2.9 2.9 0 0 1 691 172.1 A 2.9 2.9 0 0 1 693.9 175 Z" class="st11" style="fill: url('#SVGID_12_');"/>
		<radialGradient id="SVGID_13_" cx="476.5877" cy="196.992" r="1.3682" gradientUnits="userSpaceOnUse">
			<stop offset="0" style="stop-color:#E8FFF1"/>
			<stop offset="1" style="stop-color:#BFEEEC"/>
		</radialGradient>
		<path d="M 478.000006 197 A 1.4 1.4 0 0 1 476.600006 198.4 A 1.4 1.4 0 0 1 475.200006 197 A 1.4 1.4 0 0 1 476.600006 195.6 A 1.4 1.4 0 0 1 478.000006 197 Z" class="st12" style="fill: url('#SVGID_13_');"/>
		<radialGradient id="SVGID_14_" cx="593.1873" cy="341.201" r="6.841" gradientUnits="userSpaceOnUse">
			<stop offset="0" style="stop-color:#E8FFF1"/>
			<stop offset="1" style="stop-color:#BFEEEC"/>
		</radialGradient>
		<path d="M 600.000012 341.200012 A 6.8 6.8 0 0 1 593.200012 348.000012 A 6.8 6.8 0 0 1 586.400012 341.200012 A 6.8 6.8 0 0 1 593.200012 334.400012 A 6.8 6.8 0 0 1 600.000012 341.200012 Z" class="st13" style="fill: url('#SVGID_14_');"/>
		<radialGradient id="SVGID_15_" cx="119.6227" cy="219.8411" r="1.7787" gradientUnits="userSpaceOnUse">
			<stop offset="0" style="stop-color:#E8FFF1"/>
			<stop offset="1" style="stop-color:#BFEEEC"/>
		</radialGradient>
		<path d="M 121.399998 219.800003 A 1.8 1.8 0 0 1 119.599998 221.600003 A 1.8 1.8 0 0 1 117.799999 219.800003 A 1.8 1.8 0 0 1 119.599998 218.000003 A 1.8 1.8 0 0 1 121.399998 219.800003 Z" class="st14" style="fill: url('#SVGID_15_');"/>
		<radialGradient id="SVGID_16_" cx="416.0018" cy="383.103" r="1.5862" gradientUnits="userSpaceOnUse">
			<stop offset="0" style="stop-color:#E8FFF1"/>
			<stop offset="1" style="stop-color:#BFEEEC"/>
		</radialGradient>
		<path d="M 417.6 383.100006 A 1.6 1.6 0 0 1 416 384.700006 A 1.6 1.6 0 0 1 414.4 383.100006 A 1.6 1.6 0 0 1 416 381.500006 A 1.6 1.6 0 0 1 417.6 383.100006 Z" class="st15" style="fill: url('#SVGID_16_');"/>
		<radialGradient id="SVGID_17_" cx="208.9083" cy="524.8724" r="6.7828" gradientUnits="userSpaceOnUse">
			<stop offset="0" style="stop-color:#E8FFF1"/>
			<stop offset="1" style="stop-color:#BFEEEC"/>
		</radialGradient>
		<path d="M 215.699994 524.900024 A 6.8 6.8 0 0 1 208.899994 531.700025 A 6.8 6.8 0 0 1 202.099994 524.900024 A 6.8 6.8 0 0 1 208.899994 518.100024 A 6.8 6.8 0 0 1 215.699994 524.900024 Z" class="st16" style="fill: url('#SVGID_17_');"/>
		<radialGradient id="SVGID_18_" cx="181.0656" cy="722.018" r="6.7828" gradientUnits="userSpaceOnUse">
			<stop offset="0" style="stop-color:#E8FFF1"/>
			<stop offset="1" style="stop-color:#BFEEEC"/>
		</radialGradient>
		<path d="M 187.900006 722 A 6.8 6.8 0 0 1 181.100006 728.8 A 6.8 6.8 0 0 1 174.300006 722 A 6.8 6.8 0 0 1 181.100006 715.2 A 6.8 6.8 0 0 1 187.900006 722 Z" class="st17" style="fill: url('#SVGID_18_');"/>
		<radialGradient id="SVGID_19_" cx="550.1204" cy="750.5682" r="5.4728" gradientUnits="userSpaceOnUse">
			<stop offset="0" style="stop-color:#E8FFF1"/>
			<stop offset="1" style="stop-color:#BFEEEC"/>
		</radialGradient>
		<path d="M 555.599976 750.599976 A 5.5 5.5 0 0 1 550.099976 756.099976 A 5.5 5.5 0 0 1 544.599976 750.599976 A 5.5 5.5 0 0 1 550.099976 745.099976 A 5.5 5.5 0 0 1 555.599976 750.599976 Z" class="st18" style="fill: url('#SVGID_19_');"/>
		<radialGradient id="SVGID_20_" cx="470.294" cy="575.4379" r="4.9255" gradientUnits="userSpaceOnUse">
			<stop offset="0" style="stop-color:#E8FFF1"/>
			<stop offset="1" style="stop-color:#BFEEEC"/>
		</radialGradient>
		<path d="M 475.199988 575.400024 A 4.9 4.9 0 0 1 470.299988 580.300025 A 4.9 4.9 0 0 1 465.399988 575.400024 A 4.9 4.9 0 0 1 470.299988 570.500024 A 4.9 4.9 0 0 1 475.199988 575.400024 Z" class="st19" style="fill: url('#SVGID_20_');"/>
		<radialGradient id="SVGID_21_" cx="686.7442" cy="570.7859" r="4.6519" gradientUnits="userSpaceOnUse">
			<stop offset="0" style="stop-color:#E8FFF1"/>
			<stop offset="1" style="stop-color:#BFEEEC"/>
		</radialGradient>
		<path d="M 691.400012 570.799988 A 4.7 4.7 0 0 1 686.700012 575.499988 A 4.7 4.7 0 0 1 682.000012 570.799988 A 4.7 4.7 0 0 1 686.700012 566.099988 A 4.7 4.7 0 0 1 691.400012 570.799988 Z" class="st20" style="fill: url('#SVGID_21_');"/>
		<radialGradient id="SVGID_22_" cx="102.7938" cy="309.1849" r="1.9155" gradientUnits="userSpaceOnUse">
			<stop offset="0" style="stop-color:#E8FFF1"/>
			<stop offset="1" style="stop-color:#BFEEEC"/>
		</radialGradient>
		<path d="M 104.700003 309.200012 A 1.9 1.9 0 0 1 102.800003 311.100012 A 1.9 1.9 0 0 1 100.900003 309.200012 A 1.9 1.9 0 0 1 102.800003 307.300012 A 1.9 1.9 0 0 1 104.700003 309.200012 Z" class="st21" style="fill: url('#SVGID_22_');"/>
		<radialGradient id="SVGID_23_" cx="1385.7262" cy="742.359" r="2.7364" gradientUnits="userSpaceOnUse">
			<stop offset="0" style="stop-color:#E8FFF1"/>
			<stop offset="1" style="stop-color:#BFEEEC"/>
		</radialGradient>
		<path d="M 1388.399951 742.400024 A 2.7 2.7 0 0 1 1385.699951 745.100024 A 2.7 2.7 0 0 1 1382.999951 742.400024 A 2.7 2.7 0 0 1 1385.699951 739.700024 A 2.7 2.7 0 0 1 1388.399951 742.400024 Z" class="st22" style="fill: url('#SVGID_23_');"/>
		<radialGradient id="SVGID_24_" cx="1797.3732" cy="773.3597" r="3.979" gradientUnits="userSpaceOnUse">
			<stop offset="0" style="stop-color:#E8FFF1"/>
			<stop offset="1" style="stop-color:#BFEEEC"/>
		</radialGradient>
		<path d="M 1801.400024 773.400024 A 4 4 0 0 1 1797.400024 777.400024 A 4 4 0 0 1 1793.400024 773.400024 A 4 4 0 0 1 1797.400024 769.400024 A 4 4 0 0 1 1801.400024 773.400024 Z" class="st23" style="fill: url('#SVGID_24_');"/>
		<radialGradient id="SVGID_25_" cx="1838.8684" cy="676.1587" r="2.2737" gradientUnits="userSpaceOnUse">
			<stop offset="0" style="stop-color:#E8FFF1"/>
			<stop offset="1" style="stop-color:#BFEEEC"/>
		</radialGradient>
		<path d="M 1841.200024 676.200012 A 2.3 2.3 0 0 1 1838.900024 678.500012 A 2.3 2.3 0 0 1 1836.600024 676.200012 A 2.3 2.3 0 0 1 1838.900024 673.900012 A 2.3 2.3 0 0 1 1841.200024 676.200012 Z" class="st24" style="fill: url('#SVGID_25_');"/>
		<radialGradient id="SVGID_26_" cx="1737.0453" cy="615.5778" r="1.1369" gradientUnits="userSpaceOnUse">
			<stop offset="0" style="stop-color:#E8FFF1"/>
			<stop offset="1" style="stop-color:#BFEEEC"/>
		</radialGradient>
		<path d="M 1738.1 615.599976 A 1.1 1.1 0 0 1 1737 616.699976 A 1.1 1.1 0 0 1 1735.9 615.599976 A 1.1 1.1 0 0 1 1737 614.499976 A 1.1 1.1 0 0 1 1738.1 615.599976 Z" class="st25" style="fill: url('#SVGID_26_');"/>
		<radialGradient id="SVGID_27_" cx="1817.4576" cy="578.9576" r="4.9871" gradientUnits="userSpaceOnUse">
			<stop offset="0" style="stop-color:#E8FFF1"/>
			<stop offset="1" style="stop-color:#BFEEEC"/>
		</radialGradient>
		<path d="M 1822.5 579 A 5 5 0 0 1 1817.5 584 A 5 5 0 0 1 1812.5 579 A 5 5 0 0 1 1817.5 574 A 5 5 0 0 1 1822.5 579 Z" class="st26" style="fill: url('#SVGID_27_');"/>
		<radialGradient id="SVGID_28_" cx="1892.4764" cy="131.2554" r="6.6452" gradientUnits="userSpaceOnUse">
			<stop offset="0" style="stop-color:#E8FFF1"/>
			<stop offset="1" style="stop-color:#BFEEEC"/>
		</radialGradient>
		<path d="M 1899.1 131.300003 A 6.6 6.6 0 0 1 1892.5 137.900003 A 6.6 6.6 0 0 1 1885.9 131.300003 A 6.6 6.6 0 0 1 1892.5 124.700003 A 6.6 6.6 0 0 1 1899.1 131.300003 Z" class="st27" style="fill: url('#SVGID_28_');"/>
	</g><linearGradient id="SVGID_29_" gradientUnits="userSpaceOnUse" x1="1000" y1="878.8771" x2="1000" y2="1464.3024">
		<stop offset="0" style="stop-color:#000014"/>
		<stop offset="1" style="stop-color:#15006B"/>
	</linearGradient><path d="M 0 901.900024 H 2000 V 1500 H 0 V 901.900024 Z" class="st28" style="fill: url('#SVGID_29_');" transform="matrix(1, 0, 0, 1, 0, 0)"/><linearGradient id="SVGID_30_" gradientUnits="userSpaceOnUse" x1="1010.8389" y1="1083.7771" x2="1010.8389" y2="1397.8729">
			<stop offset="0" style="stop-color:#9D9296"/>
			<stop offset="1" style="stop-color:#15006B"/>
		</linearGradient><path class="st29" d="M699.5,940.7c90.4,0,61.9-13.6,158.1-13.6s86.7,6.8,221.9,6.8s155.2-6.8,216.2-6.8c61,0,112,7.1,37.5,13.6&#10;&#9;&#9;&#9;c-74.6,6.4-285.1,7.6-303.2,7.6s79,7.6,103.8,7.6c24.8,0,94.2-1.9,28,3.3c-66.1,5.2-112.8,5.2-112.8,5.2s-50-4.8-100.2-4.8&#10;&#9;&#9;&#9;c-50.2,0-42.6-3.7-85.5-3.7c-42.9,0-61-7.6-105.7-7.6c-44.8,0-70.5-2.6-89.5-2.6C649,945.7,632.9,940.7,699.5,940.7z" style="fill: url('#SVGID_30_');" transform="matrix(1, 0, 0, 1, 0, 0)"/><linearGradient id="SVGID_31_" gradientUnits="userSpaceOnUse" x1="1118.941" y1="1083.7771" x2="1118.941" y2="1397.8729">
			<stop offset="0" style="stop-color:#9D9296"/>
			<stop offset="1" style="stop-color:#15006B"/>
		</linearGradient><path class="st30" d="M1272.9,1044.1c-104.4,4-173.5,5.3-173.5,5.3l-164.9,5.3c0,0-6.8-3-97.1,0c-90.3,3-135.7-6.8-147.5,0&#10;&#9;&#9;&#9;c-11.7,6.8,7.5,15.8,53.4,15.8s443.9-15.8,554.9-15.8c111,0,59.6,12.5,126.8,2.6c67.2-9.9,126.1-19.9,126.1-19.9s-27.9,9.8-71,8.6&#10;&#9;&#9;&#9;C1437.2,1044.9,1342.7,1041.4,1272.9,1044.1z" style="fill: url('#SVGID_31_');" transform="matrix(1, 0, 0, 1, 0, 0)"/><linearGradient id="SVGID_32_" gradientUnits="userSpaceOnUse" x1="1061.3184" y1="1083.7771" x2="1061.3184" y2="1397.8729">
			<stop offset="0" style="stop-color:#9D9296"/>
			<stop offset="1" style="stop-color:#15006B"/>
		</linearGradient><path class="st31" d="M840.2,1159.2c34.4-15.5,17.6,5.3,90.6,0c73-5.3-12-8.3,121.1-5.3c133.2,3,156.5,3.2,187.3,3.2&#10;&#9;&#9;&#9;c30.8,0,106.1-16.4,18.1,0c-88,16.4-174.6,20.1-229.5,20.1c-54.9,0-17.3,3-86.5,0s-117.4-3-117.4-3h48.2c0,0,119.7-5.3,135.7-5.3&#10;&#9;&#9;&#9;c16.1,0,58.2,0.7,33.9-4.7c-24.3-5.3-26.4-8.5-45-4.3s-11.1,6.8-35,6.8S835,1161.5,840.2,1159.2z" style="fill: url('#SVGID_32_');" transform="matrix(1, 0, 0, 1, 0, 0)"/><linearGradient id="SVGID_33_" gradientUnits="userSpaceOnUse" x1="952.5828" y1="1083.7771" x2="952.5828" y2="1397.8729">
			<stop offset="0" style="stop-color:#9D9296"/>
			<stop offset="1" style="stop-color:#15006B"/>
		</linearGradient><path class="st32" d="M850.7,1116.5c32,3.1,62.1-5.1,113.6-5.1s37.9,0,102.1,0s69.3-5.5,105-5.5c35.7,0,23.6,0,61.4,0&#10;&#9;&#9;&#9;c37.9,0,32.1-5.9,0-5.9c-32.1,0-12.9,0-77.1,0c-64.3,0-41.9,0-144.9,0s-91.6-7.9-128,0c-36.4,7.9-17.1,7.1-70.7,10.7&#10;&#9;&#9;&#9;c-53.6,3.6-37.1,4.4-74.3,4.4c-37.1,0-28.1,1.5-51.2,1.5c-23.1,0-27.4,0-38.1,0s15.7,6.3,15.7,6.3s30,3.3,60.7,3.3s20,0,42.9,0&#10;&#9;&#9;&#9;c22.9,0-2.1,0,42.9,0s62.1,3.1,69.3,3.1s15.5,0,15.5,0s14.6-6.4,6.2-6.4c-8.4,0-11.4,0.5-27.5,0.5s-15,1.1-26.4-0.2&#10;&#9;&#9;&#9;c-11.4-1.2-10.7-1.2-17-2.3S840.7,1115.6,850.7,1116.5z" style="fill: url('#SVGID_33_');" transform="matrix(1, 0, 0, 1, 0, 0)"/><linearGradient id="SVGID_34_" gradientUnits="userSpaceOnUse" x1="1054.4329" y1="1083.7771" x2="1054.4329" y2="1397.8729">
			<stop offset="0" style="stop-color:#9D9296"/>
			<stop offset="1" style="stop-color:#15006B"/>
		</linearGradient><path class="st33" d="M1175.7,1263.3c-49.8,0-65.2,0-87.6,0s-93.3,5.2-130.5,9.5c-37.1,4.3-73.8,4.3-73.8,4.3s-33.3-1.9-51.4,0&#10;&#9;&#9;&#9;c-18.1,1.9-38.1,2.9,13.3,6.2c51.4,3.3,33.8,3,69.5,3s13.8,0,62.4,0s28.1-4.1,74.3,0c46.2,4.1-2.4,4.1,51.9,4.1&#10;&#9;&#9;&#9;c54.3,0-4.8-2.4,70,0c74.8,2.4,75.7-4.1,52.4-4.1c-23.3,0-17.6,2-51,0c-33.3-2-56.2-3.9-66.7-3.9s-21.4-7.6,33.3-7.6&#10;&#9;&#9;&#9;c54.8,0,39,2.1,75.7,2c36.7-0.1,40,0,66.7,0c26.7,0,3.3-4.9-27.1-7.7S1208.6,1263.3,1175.7,1263.3z" style="fill: url('#SVGID_34_');" transform="matrix(1, 0, 0, 1, 0, 0)"/><g transform="matrix(1, 0, 0, 1, 0, 0)" style="opacity: 0.87;">
			<linearGradient id="SVGID_35_" gradientUnits="userSpaceOnUse" x1="989.0834" y1="892.8115" x2="989.0834" y2="1356.7126">
				<stop offset="0" style="stop-color:#F7F4B3"/>
				<stop offset="1" style="stop-color:#15006B"/>
			</linearGradient>
			<path class="st35" d="M666.2,911.6c8.5,0,6.5-7.6,25.4,0c19,7.6,21.8,6.5,31.9,6.5c10.1,0,7.7,5.8,19.8,0.1&#10;&#9;&#9;&#9;&#9;c12.1-5.8,14.1-5.8,22.6-5.8s19,8.3,19,8.3s-9.3,5.4-13.7,5.4h-1c0,0-0.7,0-3.4,0c-7.3,0-11,7.1-2.9,7.1h42c10.9,0,19.4,0,19.4,0&#10;&#9;&#9;&#9;&#9;s-212.1,11.1-206.4,11.1c5.6,0,188.6,0,196.3,0s7.1-1.5,10.1,3.4c3,4.9,19.7,13.4-2.2,13.4c-22,0-17.5,0-28.4,0&#10;&#9;&#9;&#9;&#9;s-18.2,3.7-26.2,9.4c-8.1,5.7-2.8,10.3-20.6,10.3c-17.8,0-234.8,5.7-225.3,5.7c9.5,0,231.3,6.8,243.9,6.8c12.5,0,8.1,0,21.4,0&#10;&#9;&#9;&#9;&#9;c13.3,0,10.5,0,24.6,0c14.1,0,9.3,0,18.6,0c9.3,0,8.1-6.6,12.1,0c4,6.6,14.1-1.7,4,6.6c-10.1,8.3-221.9,10.5-221.9,10.5&#10;&#9;&#9;&#9;&#9;s198.1,4.6,211,10.3c12.9,5.7,6.1-10.3,18.2,0c12.1,10.3,33.5-3.4,12.1,10.3c-21.4,13.7-10.9,13.7-31.5,13.7s-20.2,0-29.5,0&#10;&#9;&#9;&#9;&#9;c-9.3,0-24.6,6.6-27.8,6.6h-86.2c-4.7,0,74.8,11.1,81.2,11.1h21.8c6.8,0,17.5,4,27.2,4c9.7,0,16.8,0,16.8,0s13.2,0,17.9,0&#10;&#9;&#9;&#9;&#9;c4.7,0,4.7,7.1,4.7,7.1s-0.7,10.1-12.9,10.1c-12.2,0-8.9,0-21.1,0h-17.9c-3.6,0-250.2-4-235.9,8.1c14.3,12.1,257,12.1,260.6,12.1&#10;&#9;&#9;&#9;&#9;c3.6,0,16.4,0,16.4,0s17.5,21,16.1,23.3c-1.4,2.2,0.7,0-9.3,0c-10,0-5.7,1-13.6,1c-7.9,0-1.4-9.1-13.9,0&#10;&#9;&#9;&#9;&#9;c-12.5,9.1-15.4,9.1-17.2,9.1c-1.8,0-2.9,10.8,6.6,10.8c9.5,0,4.5,0,15.2,0c10.7,0,8.6,0,16.4,0c7.9,0,17.9,0,17.9,0&#10;&#9;&#9;&#9;&#9;s1.7,14.5,7.1,14.5c5.4,0,2.5,4.8,2.5,4.8s-11.7,5.3-20.3,5.3c-8.6,0-249.9-9.1-249.9,0c0,9.1,245.6,22.2,250.3,22.2h11.1&#10;&#9;&#9;&#9;&#9;c4.3,0,9.7-4,14.7-4c5,0,2.5,11.5-5,16.4c-7.5,4.9-2.8,6.9-17.1,6.9c-14.3,0-12.5,0-20.7,0c-8.2,0-16.4,6.1-16.4,6.1&#10;&#9;&#9;&#9;&#9;s-273.9,4.1-258.2,9.1c15.7,5,285.4,5,290,5c4.7,0,9.3-4,17.9-4c8.6,0,14.9-10.1,21.1,0c6.2,10.1,14.1,4.5,7.9,11.1&#10;&#9;&#9;&#9;&#9;c-6.3,6.6-2.1,5-15,5c-12.9,0-15.4,0.2-17.9,0.2c-2.5,0-5-7.1-2.5,0c2.5,7.1,7.9,12,14.7,12c6.8,0,8.1-4.3,10.7,0&#10;&#9;&#9;&#9;&#9;c2.7,4.3,8.2,11.1,10.7,11.1c2.5,0,12.8,0.9-0.6,5c-13.4,4.1-9.1,0-16.2,4.1c-7.2,4-8.9,3.4-11.1,7.1&#10;&#9;&#9;&#9;&#9;c-2.2,3.6-247.7-8.2-240.5,3.6c7.3,11.9,258.7,21.6,261.9,21.6c3.2,0,0,0,5.7,0s18.7,15.9,17.5,18.2&#10;&#9;&#9;&#9;&#9;c-6.8,13.5-8.6,14.2-15.7,14.2c-7.2,0-0.4,0-8.6,0c-8.2,0-7.2,0-15.4,0c-8.2,0-16.7,6.1-13.2,8.1c17.8,10.1-333.1-9.9-323.1-5.8&#10;&#9;&#9;&#9;&#9;c10,4,365.6,22,371.7,22c6.1,0,7.5-8.1,7.5,0c0,8.1,10.4,23.2-3.6,29.3c-13.9,6.1-9.7,8.1-25,4c-15.4-4-368.9-4-368.9-4&#10;&#9;&#9;&#9;&#9;s352.1,26.3,355.7,26.3h26.1c7.9,0,8-5,15.4,7.1c7.4,12.1,11.1,12.1,11.1,18.2c0,6.1,3.6,13.1-7.9,13.1h-18.2&#10;&#9;&#9;&#9;&#9;c-6.4,0-7.7-5.6-9.7,0c-2,5.6-2.3,8.9,0.4,13.1c0.5,0.9,0.6,1.3,0.6,1.5c0.6-0.2,3.2-0.3,12.6,2.7c18.6,5.8,12.5,10.9,12.5,10.9&#10;&#9;&#9;&#9;&#9;L916,1500h168l-8.9-10.1c0,0-6.1-5.1,12.5-10.9c9.4-3,12-2.9,12.6-2.7c0-0.2,0.1-0.7,0.6-1.5c2.6-4.3,2.3-7.6,0.4-13.1&#10;&#9;&#9;&#9;&#9;c-2-5.6-3.2,0-9.7,0h-18.2c-11.4,0-7.9-7.1-7.9-13.1c0-6.1,3.7-6.1,11.1-18.2c7.4-12.1,7.5-7.1,15.4-7.1h26.1&#10;&#9;&#9;&#9;&#9;c3.6,0,180.4-26.3,180.4-26.3s-178.2,0-193.6,4c-15.4,4-11.1,2-25-4c-13.9-6.1-3.6-21.2-3.6-29.3c0-8.1,1.4,0,7.5,0&#10;&#9;&#9;&#9;&#9;c6.1,0,16.4-3,26.5-7.1c10-4,131.2,1,149-9.1c3.6-2-131.9-8.1-140.1-8.1c-8.2,0-7.2,0-15.4,0c-8.2,0-1.4,0-8.6,0&#10;&#9;&#9;&#9;&#9;c-7.2,0-8.9-0.7-15.7-14.2c-1.2-2.3,11.8-18.2,17.5-18.2c5.7,0,2.5,0,5.7,0c3.2,0,216.2-9.8,223.4-21.6c7.3-11.8-199.8,0-202-3.6&#10;&#9;&#9;&#9;&#9;c-2.2-3.6-3.9-3-11.1-7.1c-7.2-4.1-2.9,0-16.2-4.1c-13.4-4.1-3.1-5-0.6-5c2.5,0,8.1-6.8,10.7-11.1c2.7-4.3,3.9,0,10.7,0&#10;&#9;&#9;&#9;&#9;c6.8,0,12.2-4.9,14.7-12c2.5-7.1,0,0-2.5,0c-2.5,0-5-0.2-17.9-0.2c-12.9,0-8.7,1.5-15-5c-6.3-6.6,1.6-1,7.9-11.1&#10;&#9;&#9;&#9;&#9;c6.2-10.1,12.5,0,21.1,0c8.6,0,13.2,4,17.9,4c4.6,0,283.8,0,299.5-5c15.7-5,12.5-9.1,12.5-9.1s-8.2-6.1-16.4-6.1&#10;&#9;&#9;&#9;&#9;c-8.2,0-286.7,0-301,0s-9.7-2-17.1-6.9c-7.5-4.9-10-16.4-5-16.4c5,0,10.4,4,14.7,4h11.1c4.7,0,252.5-13.1,252.5-22.2&#10;&#9;&#9;&#9;&#9;c0-9.1-243.5,0-252.1,0c-8.6,0-20.3-5.3-20.3-5.3s-2.9-4.8,2.5-4.8c5.4,0,7.1-14.5,7.1-14.5s10,0,17.9,0c7.9,0,5.7,0,16.4,0&#10;&#9;&#9;&#9;&#9;s5.7,0,15.2,0c9.5,0,8.4-10.8,6.6-10.8s-4.6,0-17.2-9.1c-12.5-9.1-6.1,0-13.9,0c-7.9,0-3.6-1-13.6-1c-10,0-7.9,2.2-9.3,0&#10;&#9;&#9;&#9;&#9;c-1.4-2.3,16.1-23.3,16.1-23.3s12.9,0,16.4,0c3.6,0,130.8,0,145.1-12.1c14.3-12.1-116.9-8.1-120.4-8.1h-17.9&#10;&#9;&#9;&#9;&#9;c-12.2,0-8.9,0-21.1,0s-12.9-10.1-12.9-10.1s0-7.1,4.7-7.1c4.6,0,17.9,0,17.9,0s7.2,0,16.8,0c9.7,0,20.4-4,27.2-4h21.8&#10;&#9;&#9;&#9;&#9;c6.4,0,11.4-11.1,6.8-11.1h-11.8c-3.2,0-18.6-6.6-27.8-6.6c-9.3,0-8.9,0-29.5,0c-20.6,0-10.1,0-31.5-13.7&#10;&#9;&#9;&#9;&#9;c-21.4-13.7,0,0,12.1-10.3s283.1,5.7,296,0c12.9-5.7-271.8-10.3-271.8-10.3s-6.9-2.3-16.9-10.5c-10.1-8.2,0,0,4-6.6&#10;&#9;&#9;&#9;&#9;c4-6.6,2.8,0,12.1,0c9.3,0,4.4,0,18.6,0c14.1,0,11.3,0,24.6,0s8.9,0,21.4,0c12.5,0,18.2-6.8,27.7-6.8c9.5,0,8.6-5.7-9.1-5.7&#10;&#9;&#9;&#9;&#9;c-17.8,0-12.5-4.6-20.6-10.3c-8.1-5.7-15.3-9.4-26.2-9.4c-10.9,0-6.5,0-28.4,0c-22,0-5.2-8.5-2.2-13.4c3-4.9,2.4-3.4,10.1-3.4&#10;&#9;&#9;&#9;&#9;c7.7,0,244.3,0,249.9,0c5.7,0-260-11.1-260-11.1s8.5,0,19.4,0h42c8.1,0,4.4-7.1-2.9-7.1h-2.9c0,0-0.3,0-1.6,0&#10;&#9;&#9;&#9;&#9;c-4.4,0-13.7-5.4-13.7-5.4s10.5-8.3,19-8.3s10.5,0,22.6,5.8c12.1,5.8,9.7-0.1,19.8-0.1c10.1,0,12.9,1.1,31.9-6.5&#10;&#9;&#9;&#9;&#9;c19-7.6,17,0,25.4,0c8.5,0,26.3,0,22.6-6.1c-0.7-1.2-7.4-2.4-17.7-3.5H661.3c-10.3,1.2-17,2.4-17.7,3.5&#10;&#9;&#9;&#9;&#9;C639.8,911.6,657.7,911.6,666.2,911.6z" style="fill: url('#SVGID_35_');"/>
		</g><linearGradient id="SVGID_36_" gradientUnits="userSpaceOnUse" x1="884.3098" y1="892.8115" x2="884.3098" y2="1356.7126" style="opacity: 0.87;">
			<stop offset="0" style="stop-color:#F7F4B3"/>
			<stop offset="1" style="stop-color:#15006B"/>
		</linearGradient><path class="st36" d="M884.4,1145.4C884.3,1145.5,884,1145.4,884.4,1145.4L884.4,1145.4z" style="fill: url('#SVGID_36_'); opacity: 0.87;" transform="matrix(1, 0, 0, 1, 0, 0)"/><linearGradient id="SVGID_37_" gradientUnits="userSpaceOnUse" x1="1084.9242" y1="892.8115" x2="1084.9242" y2="1356.7126" style="opacity: 0.87;">
			<stop offset="0" style="stop-color:#F7F4B3"/>
			<stop offset="1" style="stop-color:#15006B"/>
		</linearGradient><path class="st37" d="M1084.8,1145.4C1085.2,1145.4,1084.9,1145.5,1084.8,1145.4L1084.8,1145.4z" style="fill: url('#SVGID_37_'); opacity: 0.87;" transform="matrix(1, 0, 0, 1, 0, 0)"/><linearGradient id="SVGID_38_" gradientUnits="userSpaceOnUse" x1="1356.0581" y1="892.8115" x2="1356.0581" y2="1356.7126" style="opacity: 0.87;">
			<stop offset="0" style="stop-color:#F7F4B3"/>
			<stop offset="1" style="stop-color:#15006B"/>
		</linearGradient><path class="st38" d="M1380.8,914.8c-11.9,0-8.6,0-23.4,0c-14.8,0-14.5,0-21.6,0c-7.1,0,0.6-1.4-12.5,0c-13,1.4-26.7-0.7-16.6,1.8&#10;&#9;&#9;&#9;c10.1,2.5,22.8,4.3,27.9,4.3s13.9,0,13.9,0s17.5,3.2,32.3,3.2c14.8,0,19.9,0,19.9,0s5-2.5,8-2.5&#10;&#9;&#9;&#9;C1411.6,921.6,1395.6,914.8,1380.8,914.8z" style="fill: url('#SVGID_38_'); opacity: 0.87;" transform="matrix(1, 0, 0, 1, 0, 0)"/><linearGradient id="SVGID_39_" gradientUnits="userSpaceOnUse" x1="1289.1338" y1="892.8115" x2="1289.1338" y2="1356.7126" style="opacity: 0.87;">
			<stop offset="0" style="stop-color:#F7F4B3"/>
			<stop offset="1" style="stop-color:#15006B"/>
		</linearGradient><path class="st39" d="M1334.4,951.8c-10.3-0.3-41.5-3.5-50.9-3.5s-4.4,0-16.5,0s-16.5,1.8-20.3,1.8c-3.8,0-8.8-0.4,8.8,1.8&#10;&#9;&#9;&#9;s7.7,0,25.9,1.8c18.3,1.8,15,1.1,32.4,3.2S1338.2,951.9,1334.4,951.8z" style="fill: url('#SVGID_39_'); opacity: 0.87;" transform="matrix(1, 0, 0, 1, 0, 0)"/><linearGradient id="SVGID_40_" gradientUnits="userSpaceOnUse" x1="1254.361" y1="892.8115" x2="1254.361" y2="1356.7126" style="opacity: 0.87;">
			<stop offset="0" style="stop-color:#F7F4B3"/>
			<stop offset="1" style="stop-color:#15006B"/>
		</linearGradient><path class="st40" d="M1268.7,988.5c-12.4,0-20,0-35,0s-32.8-2.1-29.7,0c3.1,2.1,51.5,7.1,73.3,7.1s22.1,1.4,27.4,1.4&#10;&#9;&#9;&#9;C1309.9,997,1275.2,988.5,1268.7,988.5z" style="fill: url('#SVGID_40_'); opacity: 0.87;" transform="matrix(1, 0, 0, 1, 0, 0)"/><linearGradient id="SVGID_41_" gradientUnits="userSpaceOnUse" x1="1233.6411" y1="892.8115" x2="1233.6411" y2="1356.7126" style="opacity: 0.87;">
			<stop offset="0" style="stop-color:#F7F4B3"/>
			<stop offset="1" style="stop-color:#15006B"/>
		</linearGradient><path class="st41" d="M1246.9,1048.5c-15.3,0-14.4,0-21.8,0c-7.4,0-17.1,0-17.1,0s-9.4,1.8-10.6,1.8c-1.2,0,7.7,1.8,7.7,1.8h9.1&#10;&#9;&#9;&#9;c0,0,3.5,3.9,0.6,3.9c-2.9,0-20.6-1.8-2.9,0c17.7,1.8,35,3.2,35,3.2s12.7,0,15.3,0s7.8-3.5,7.8-3.5s-11.9-3.2-20.4-3.2&#10;&#9;&#9;&#9;S1252.8,1048.5,1246.9,1048.5z" style="fill: url('#SVGID_41_'); opacity: 0.87;" transform="matrix(1, 0, 0, 1, 0, 0)"/><linearGradient id="SVGID_42_" gradientUnits="userSpaceOnUse" x1="1158.1083" y1="892.8115" x2="1158.1083" y2="1356.7126" style="opacity: 0.87;">
			<stop offset="0" style="stop-color:#F7F4B3"/>
			<stop offset="1" style="stop-color:#15006B"/>
		</linearGradient><path class="st42" d="M1145.9,1098.6c10.3,0,15,0,15,0s8.5,1.8,20.3,1.8c11.8,0,7.9,2.7,7.9,2.7s-30,0-38.5,0c-8.5,0-4.7,0-12.1,0&#10;&#9;&#9;&#9;c-7.4,0-12.1,0-12.1,0S1138.2,1098.6,1145.9,1098.6z" style="fill: url('#SVGID_42_'); opacity: 0.87;" transform="matrix(1, 0, 0, 1, 0, 0)"/><linearGradient id="SVGID_43_" gradientUnits="userSpaceOnUse" x1="1326.0503" y1="892.8115" x2="1326.0503" y2="1356.7126" style="opacity: 0.87;">
			<stop offset="0" style="stop-color:#F7F4B3"/>
			<stop offset="1" style="stop-color:#15006B"/>
		</linearGradient><path class="st43" d="M1320.2,1034c19.1,0,18.6,0,23.9,0s21.8,1.8,15.6,2.5c-15.6,1.8-16.5-1.8-39.5,0c-23,1.8-18.1-0.7-24.8,0.5&#10;&#9;&#9;&#9;c-6.7,1.3-5.8-4.7,3.6-4.7S1311.7,1034,1320.2,1034z" style="fill: url('#SVGID_43_'); opacity: 0.87;" transform="matrix(1, 0, 0, 1, 0, 0)"/><linearGradient id="SVGID_44_" gradientUnits="userSpaceOnUse" x1="1231.1877" y1="892.8115" x2="1231.1877" y2="1356.7126" style="opacity: 0.87;">
			<stop offset="0" style="stop-color:#F7F4B3"/>
			<stop offset="1" style="stop-color:#15006B"/>
		</linearGradient><path class="st44" d="M1216.3,1020.6c8.2,0.5,4.1,0,17.4,0c5.9,0,8.9,0.3,11.3,0.6c3,0.4,4.7,0.8,9.4,0.8c8.4,0,23.8,0,8.4,0&#10;&#9;&#9;&#9;c-15.3,0-18.6,2.8-31.2,2.8c-12.7,0-1.5,0-15.3,0s-16.4,0-19,0C1194.8,1024.9,1182.5,1018.4,1216.3,1020.6z" style="fill: url('#SVGID_44_'); opacity: 0.87;" transform="matrix(1, 0, 0, 1, 0, 0)"/><linearGradient id="SVGID_45_" gradientUnits="userSpaceOnUse" x1="739.7631" y1="892.8115" x2="739.7631" y2="1356.7126" style="opacity: 0.87;">
			<stop offset="0" style="stop-color:#F7F4B3"/>
			<stop offset="1" style="stop-color:#15006B"/>
		</linearGradient><path class="st45" d="M762.5,984.4c-9.1,0,1.2-1.1-17.1,0c-18.3,1.1-35.4,3.3-35.4,3.3s-9.1,0-13.9,0s-7.7-0.7-5.8,0&#10;&#9;&#9;&#9;c1.9,0.7,1.1,2.4,7.1,2.4s27.4,2.9,27.4,2.9s-4.7-1.1,9.8-1.1c14.5,0,4.4-0.7,23.2-0.7c18.8,0,13.3,0,23.8,0s11.5-1.2,0-2.7&#10;&#9;&#9;&#9;C770.1,986.9,771,984.4,762.5,984.4z" style="fill: url('#SVGID_45_'); opacity: 0.87;" transform="matrix(1, 0, 0, 1, 0, 0)"/><linearGradient id="SVGID_46_" gradientUnits="userSpaceOnUse" x1="654.8726" y1="892.8115" x2="654.8726" y2="1356.7126" style="opacity: 0.87;">
			<stop offset="0" style="stop-color:#F7F4B3"/>
			<stop offset="1" style="stop-color:#15006B"/>
		</linearGradient><path class="st46" d="M666.9,944.3c-28.9,0-40-4.1-48.1-4.1c-8.1,0-24.2,0.7-26.2,2.1c-1.9,1.3-5.4,0.9,11.6,2.1&#10;&#9;&#9;&#9;c17,1.2,19.2,1.8,27.6,1.8c8.4,0,13.8,1.8,16.3,1.8s-12,3.3-19.2,3.3s-30.6-2.7-10.9,0c19.7,2.7,16.8,2.7,31.3,2.7&#10;&#9;&#9;&#9;c14.6,0,3.9,0,17.5,0s5.4,1.5,25.4,0c20-1.5,34.8,1.8,21-1.5c-13.8-3.3-19.7-5-26.7-5S675.3,944.3,666.9,944.3z" style="fill: url('#SVGID_46_'); opacity: 0.87;" transform="matrix(1, 0, 0, 1, 0, 0)"/><linearGradient id="SVGID_47_" gradientUnits="userSpaceOnUse" x1="700.4595" y1="892.8115" x2="700.4595" y2="1356.7126" style="opacity: 0.87;">
			<stop offset="0" style="stop-color:#F7F4B3"/>
			<stop offset="1" style="stop-color:#15006B"/>
		</linearGradient><path class="st47" d="M722,919.2c-11.1,0-9.6-1.8-24.4,0c-14.8,1.8-13.8,3.8-21.7,3.8c-7.9,0-23.2-1.8-12.1,0&#10;&#9;&#9;&#9;c11.1,1.8,8.4,1.8,18.5,1.8c10.1,0,2,0,14.1,0s7.1,0,22.4,0c15.3,0,5,0,17.6,0C748.9,924.8,734.1,919.2,722,919.2z" style="fill: url('#SVGID_47_'); opacity: 0.87;" transform="matrix(1, 0, 0, 1, 0, 0)"/><linearGradient id="SVGID_48_" gradientUnits="userSpaceOnUse" x1="738.4387" y1="892.8115" x2="738.4387" y2="1356.7126" style="opacity: 0.87;">
			<stop offset="0" style="stop-color:#F7F4B3"/>
			<stop offset="1" style="stop-color:#15006B"/>
		</linearGradient><path class="st48" d="M783.4,1018.5c-3.7,0-6.6-0.1-8.9-0.2c-12.6-0.6-5.9-2.8-22-2.8c-19,0-30.4,1.5-30.4,1.5s-4.7-0.6-17.5,1.5&#10;&#9;&#9;&#9;c-12.8,2.1-10.9,2.4-17.5,2.4s-15.3-0.3-4.1,1.8c11.2,2.1,8,3.8,19.1,2.1c11.1-1.8,21-4.2,21-4.2s14.8-1.4,33.1,1.3&#10;&#9;&#9;&#9;c18.3,2.7,19.2,1.5,31.1,1.5c11.8,0,11.8,0,11.8,0S790.6,1018.5,783.4,1018.5z" style="fill: url('#SVGID_48_'); opacity: 0.87;" transform="matrix(1, 0, 0, 1, 0, 0)"/><linearGradient id="SVGID_49_" gradientUnits="userSpaceOnUse" x1="799.8959" y1="892.8115" x2="799.8959" y2="1356.7126" style="opacity: 0.87;">
			<stop offset="0" style="stop-color:#F7F4B3"/>
			<stop offset="1" style="stop-color:#15006B"/>
		</linearGradient><path class="st49" d="M842.6,1064.9c-23,1.4-30.6,1.5-30.6,1.5s-8.1-0.7-23.4-0.7s-4.4,0.7-20,0.7s-25.2-2.2-22,0&#10;&#9;&#9;&#9;c3.2,2.2,7.6,5,15.8,5c8.1,0,5.2,0,14.6,0s-5.9,0,18.5,0s30.4,4.7,43.7,3.3s14.6-1.5,14.6-1.5S853.8,1064.2,842.6,1064.9z" style="fill: url('#SVGID_49_'); opacity: 0.87;" transform="matrix(1, 0, 0, 1, 0, 0)"/><linearGradient id="SVGID_50_" gradientUnits="userSpaceOnUse" x1="747.6575" y1="892.7988" x2="747.6575" y2="1356.7" style="opacity: 0.87;">
			<stop offset="0" style="stop-color:#F7F4B3"/>
			<stop offset="1" style="stop-color:#15006B"/>
		</linearGradient><path class="st50" d="M765.7,1099.5c-21.2,0-26.7,0-38,0s-13.1,1.8-21.7,1.8s-20,0.3-11.6,2c8.4,1.7,9.1,2.7,14.3,2.7&#10;&#9;&#9;&#9;c5.2,0-10.1,0,7.6,0s7.6-3,33.1,0c25.4,3,3.2,3,28.1,3s26.4,0,26.4,0s-1.5-4.7-8.1-4.7s-13.6,0-15.8,0s8.4-8.8,10.5-8.8&#10;&#9;&#9;&#9;s-13.4,0-13.4,0S789.1,1099.5,765.7,1099.5z" style="fill: url('#SVGID_50_'); opacity: 0.87;" transform="matrix(1, 0, 0, 1, 0, 0)"/><g transform="matrix(1, 0, 0, 1, 0, 0)" style="opacity: 0.87;">
			<linearGradient id="SVGID_51_" gradientUnits="userSpaceOnUse" x1="1000" y1="904.3773" x2="1000" y2="1482.1001">
				<stop offset="0" style="stop-color:#AEA59C"/>
				<stop offset="1" style="stop-color:#15006B"/>
			</linearGradient>
			<path class="st51" d="M212.4,911.6c20,0,15.2-7.6,60,0c44.8,7.6,51.4,6.5,75.2,6.5c23.8,0,18.1,5.8,46.7,0.1&#10;&#9;&#9;&#9;&#9;c28.6-5.8,33.3-5.8,53.3-5.8s44.8,8.3,44.8,8.3s-21.9,5.4-32.4,5.4h-2.4c0,0-1.6,0-8.1,0c-17.1,0-26,7.1-6.8,7.1H542&#10;&#9;&#9;&#9;&#9;c25.7,0,45.7,0,45.7,0s-64.8,11.1-51.4,11.1c13.3,0,9.5,0,27.6,0c18.1,0,16.7-1.5,23.8,3.4c7.1,4.9,336.4,13.4,284.6,13.4&#10;&#9;&#9;&#9;&#9;c-51.8,0-331.2,0-357,0c-25.7,0-42.9,3.7-61.9,9.4c-19.1,5.7-6.7,10.3-48.6,10.3c-41.9,0-44,5.7-21.5,5.7&#10;&#9;&#9;&#9;&#9;c22.5,0,35.8,6.8,65.3,6.8c29.5,0,19.1,0,50.5,0s24.8,0,58.1,0c33.3,0,21.9,0,43.8,0c21.9,0,17,0,28.6,0&#10;&#9;&#9;&#9;&#9;c214.2,0,33.3-1.7,9.5,6.6c-23.8,8.3-40,10.5-40,10.5s-16.2,4.6,14.3,10.3c30.5,5.7,14.3-10.3,42.9,0c28.6,10.3,79-3.4,28.6,10.3&#10;&#9;&#9;&#9;&#9;c-50.5,13.7-25.7,13.7-74.3,13.7c-48.6,0-47.6,0-69.5,0c-21.9,0-58.1,6.6-65.7,6.6h-27.8c-11,0,0.8,11.1,16,11.1H515&#10;&#9;&#9;&#9;&#9;c16,0,41.3,4,64.1,4c22.8,0,39.7,0,39.7,0s31.2,0,42.2,0c11,0,11,7.1,11,7.1s-1.7,10.1-30.4,10.1c-28.7,0-21.1,0-49.8,0h-42.2&#10;&#9;&#9;&#9;&#9;c-8.4,0-34.6-4-0.8,8.1c33.7,12.1,50.6,12.1,59.1,12.1c8.4,0,38.8,0,38.8,0s180.7,21,177.4,23.3c-3.3,2.2-137.7,0-161.4,0&#10;&#9;&#9;&#9;&#9;c-23.6,0-13.5,1-32.1,1c-18.6,0-3.4-9.1-32.9,0c-29.5,9.1-36.3,9.1-40.5,9.1s-6.8,10.8,15.6,10.8c22.4,0,10.6,0,35.9,0&#10;&#9;&#9;&#9;&#9;c25.3,0,20.2,0,38.8,0c18.6,0,42.2,0,42.2,0s3.9,14.5,16.7,14.5c12.8,0,5.9,4.8,5.9,4.8s-27.7,5.3-47.9,5.3&#10;&#9;&#9;&#9;&#9;c-20.3,0-22.8-9.1-22.8,0c0,9.1,12.7,22.2,23.6,22.2h26.1c10.1,0,241.4-4,253.2-4c11.8,0-212.7,11.5-230.4,16.4&#10;&#9;&#9;&#9;&#9;c-17.7,4.9-6.7,6.9-40.5,6.9c-33.7,0-29.5,0-48.9,0c-19.4,0-38.8,6.1-38.8,6.1s-7.6,4.1,29.5,9.1c37.1,5,34.6,5,45.6,5&#10;&#9;&#9;&#9;&#9;c11,0,21.9-4,42.2-4c20.2,0,35.1-10.1,49.8,0c14.7,10.1,33.4,4.5,18.6,11.1c-14.8,6.6-5.1,5-35.4,5s-36.3,0.2-42.2,0.2&#10;&#9;&#9;&#9;&#9;c-5.9,0-11.8-7.1-5.9,0c5.9,7.1,18.6,12,34.6,12s19.1-4.3,25.3,0c6.3,4.3,19.4,11.1,25.3,11.1c5.9,0,107.6,0.9,76,5&#10;&#9;&#9;&#9;&#9;c-31.6,4.1-98.8,0-115.7,4.1c-16.9,4-20.9,3.4-26.2,7.1c-5.3,3.6-22.4-8.2-5.3,3.6c17.1,11.9,48.3,21.6,55.9,21.6&#10;&#9;&#9;&#9;&#9;c7.6,0,0,0,13.5,0s121.2,15.9,118.4,18.2c-16.1,13.5-97.3,14.2-114.2,14.2c-16.9,0-0.8,0-20.2,0c-19.4,0-16.9,0-36.3,0&#10;&#9;&#9;&#9;&#9;c-19.4,0-39.5,6.1-31.1,8.1c42.1,10.1,28.6,5.1,52.2,9.1c23.6,4,48.1,7.1,62.4,7.1c14.3,0,17.7-8.1,17.7,0&#10;&#9;&#9;&#9;&#9;c0,8.1,24.5,23.2-8.4,29.3c-32.9,6.1-22.8,8.1-59.1,4c-36.3-4-60.7-4-60.7-4s21.1,26.3,29.5,26.3h61.6c18.6,0,18.8-5,36.3,7.1&#10;&#9;&#9;&#9;&#9;c17.5,12.1,85.9,12.1,85.9,18.2c0,6.1-51.4,13.1-78.3,13.1h-43c-15.2,0-18.1-5.6-22.8,0c-4.6,5.6-5.3,8.9,0.8,13.1&#10;&#9;&#9;&#9;&#9;c1.3,0.9,1.5,1.3,1.4,1.5c1.4-0.2,7.6-0.3,29.8,2.7c43.9,5.8,29.5,10.9,29.5,10.9l-21.1,10.1h396.4l-21.1-10.1&#10;&#9;&#9;&#9;&#9;c0,0-14.3-5.1,29.5-10.9c22.3-3,28.4-2.9,29.8-2.7c-0.1-0.2,0.1-0.7,1.4-1.5c6.2-4.3,5.5-7.6,0.8-13.1c-4.6-5.6-7.6,0-22.8,0h-43&#10;&#9;&#9;&#9;&#9;c-27,0-135.4-7.1-135.4-13.1c0-6.1,125.5-6.1,143-18.2c17.5-12.1,17.7-7.1,36.3-7.1h61.6c8.4,0,29.5-26.3,29.5-26.3&#10;&#9;&#9;&#9;&#9;s-24.5,0-60.7,4c-36.3,4-26.2,2-59.1-4c-32.9-6.1-8.4-21.2-8.4-29.3c0-8.1,3.4,0,17.7,0s38.8-3,62.4-7.1c23.6-4,10.1,1,52.2-9.1&#10;&#9;&#9;&#9;&#9;c8.4-2-11.7-8.1-31.1-8.1c-19.4,0-16.9,0-36.3,0c-19.4,0-3.4,0-20.2,0c-16.9,0-136.2-0.7-152.3-14.2&#10;&#9;&#9;&#9;&#9;c-2.8-2.3,143-18.2,156.5-18.2c13.5,0,5.9,0,13.5,0c7.6,0,38.7-9.8,55.9-21.6c17.1-11.8,0,0-5.3-3.6c-5.3-3.6-9.3-3-26.2-7.1&#10;&#9;&#9;&#9;&#9;c-16.9-4.1-6.7,0-38.3-4.1c-31.6-4.1-7.3-5-1.3-5c5.9,0,19-6.8,25.3-11.1c6.3-4.3,9.3,0,25.3,0c16,0,28.7-4.9,34.6-12&#10;&#9;&#9;&#9;&#9;c5.9-7.1,0,0-5.9,0c-5.9,0-11.8-0.2-42.2-0.2c-30.4,0-139.8,1.5-154.6-5c-14.8-6.6,123-1,137.7-11.1c14.7-10.1,29.5,0,49.8,0&#10;&#9;&#9;&#9;&#9;c20.2,0,31.2,4,42.2,4c11,0,8.4,0,45.6-5c37.1-5,29.5-9.1,29.5-9.1s-19.4-6.1-38.8-6.1c-19.4,0-15.2,0-48.9,0&#10;&#9;&#9;&#9;&#9;c-33.7,0-22.8-2-40.5-6.9c-17.7-4.9-23.7-16.4-11.8-16.4c11.8,0,24.5,4,34.6,4h26.1c11,0,23.6-13.1,23.6-22.2c0-9.1-2.5,0-22.8,0&#10;&#9;&#9;&#9;&#9;c-20.3,0-259.4-5.3-259.4-5.3s204.6-4.8,217.4-4.8c12.8,0,16.7-14.5,16.7-14.5s23.6,0,42.2,0c18.6,0,13.5,0,38.8,0s13.5,0,35.9,0&#10;&#9;&#9;&#9;&#9;c22.4,0,19.8-10.8,15.6-10.8s-11,0-40.5-9.1c-29.5-9.1-14.3,0-32.9,0c-18.6,0-8.4-1-32.1-1c-23.6,0-410.8,2.2-414,0&#10;&#9;&#9;&#9;&#9;c-3.3-2.3,430-23.3,430-23.3s30.4,0,38.8,0c8.4,0,25.3,0,59.1-12.1c33.7-12.1,7.6-8.1-0.8-8.1h-42.2c-28.7,0-21.1,0-49.8,0&#10;&#9;&#9;&#9;&#9;s-259-10.1-259-10.1s228.7-7.1,239.6-7.1c11,0,42.2,0,42.2,0s16.9,0,39.7,0c22.8,0,48.1-4,64.1-4h51.5c15.2,0,27-11.1,16-11.1&#10;&#9;&#9;&#9;&#9;h-27.8c-7.6,0-43.8-6.6-65.7-6.6c-21.9,0-21,0-69.5,0s-338.2,0-388.7-13.7c-50.5-13.7,314.4,0,343-10.3&#10;&#9;&#9;&#9;&#9;c28.6-10.3,12.4,5.7,42.9,0c30.5-5.7,14.3-10.3,14.3-10.3s-16.2-2.3-40-10.5c-23.8-8.2,0,0,9.5-6.6c9.5-6.6,6.7,0,28.6,0&#10;&#9;&#9;&#9;&#9;c21.9,0,10.5,0,43.8,0c33.3,0,26.7,0,58.1,0s21,0,50.5,0c29.5,0,42.9-6.8,65.3-6.8c22.5,0,20.4-5.7-21.5-5.7&#10;&#9;&#9;&#9;&#9;c-41.9,0-29.5-4.6-48.6-10.3c-19-5.7-36.2-9.4-61.9-9.4c-25.7,0-15.2,0-67.1,0c-51.9,0-187.5-8.5-180.5-13.4&#10;&#9;&#9;&#9;&#9;c7.1-4.9,180.9-3.4,199-3.4c18.1,0,14.3,0,27.6,0c13.3,0-51.4-11.1-51.4-11.1s20,0,45.7,0h99.2c19.2,0,10.3-7.1-6.8-7.1h-6.8&#10;&#9;&#9;&#9;&#9;c0,0-0.8,0-3.7,0c-10.5,0-32.4-5.4-32.4-5.4s24.8-8.3,44.8-8.3s24.8,0,53.3,5.8c28.6,5.8,22.9-0.1,46.7-0.1&#10;&#9;&#9;&#9;&#9;c23.8,0,30.5,1.1,75.2-6.5c44.8-7.6,40,0,60,0s62.1,0,53.3-6.1c-1.7-1.2-17.4-2.4-41.7-3.5H200.8c-24.3,1.2-40,2.4-41.7,3.5&#10;&#9;&#9;&#9;&#9;C150.3,911.6,192.4,911.6,212.4,911.6z" style="fill: url('#SVGID_51_');"/>
		</g><linearGradient id="SVGID_52_" gradientUnits="userSpaceOnUse" x1="727.062" y1="904.3773" x2="727.062" y2="1482.1001" style="opacity: 0.87;">
			<stop offset="0" style="stop-color:#AEA59C"/>
			<stop offset="1" style="stop-color:#15006B"/>
		</linearGradient><path class="st52" d="M727.3,1476.3C727.1,1476.6,726.4,1476.4,727.3,1476.3L727.3,1476.3z" style="fill: url('#SVGID_52_'); opacity: 0.87;" transform="matrix(1, 0, 0, 1, 0, 0)"/><linearGradient id="SVGID_53_" gradientUnits="userSpaceOnUse" x1="1200.3542" y1="904.3773" x2="1200.3542" y2="1482.1001" style="opacity: 0.87;">
			<stop offset="0" style="stop-color:#AEA59C"/>
			<stop offset="1" style="stop-color:#15006B"/>
		</linearGradient><path class="st53" d="M1200.2,1476.3C1201,1476.4,1200.3,1476.6,1200.2,1476.3L1200.2,1476.3z" style="fill: url('#SVGID_53_'); opacity: 0.87;" transform="matrix(1, 0, 0, 1, 0, 0)"/><linearGradient id="SVGID_54_" gradientUnits="userSpaceOnUse" x1="1840.0172" y1="904.3773" x2="1840.0172" y2="1482.1001" style="opacity: 0.87;">
			<stop offset="0" style="stop-color:#AEA59C"/>
			<stop offset="1" style="stop-color:#15006B"/>
		</linearGradient><path class="st54" d="M1898.3,932.4c-28,0-20.3,0-55.3,0s-34.3,0-51.1,0c-16.8,0,1.4-3.4-29.4,0c-30.8,3.4-63-1.7-39.2,4.2&#10;&#9;&#9;&#9;c23.8,5.9,53.9,10.1,65.8,10.1s32.9,0,32.9,0s41.3,7.5,76.3,7.5s46.9,0,46.9,0s11.9-5.9,18.9-5.9S1933.3,932.4,1898.3,932.4z" style="fill: url('#SVGID_54_'); opacity: 0.87;" transform="matrix(1, 0, 0, 1, 0, 0)"/><linearGradient id="SVGID_55_" gradientUnits="userSpaceOnUse" x1="1682.1284" y1="904.3773" x2="1682.1284" y2="1482.1001" style="opacity: 0.87;">
			<stop offset="0" style="stop-color:#AEA59C"/>
			<stop offset="1" style="stop-color:#15006B"/>
		</linearGradient><path class="st55" d="M1788.8,1019.7c-24.3-0.7-98-8.3-120.2-8.3s-10.4,0-38.9,0s-38.9,4.2-47.9,4.2s-20.8-0.8,20.8,4.2&#10;&#9;&#9;&#9;c41.7,5,18.1,0,61.1,4.2c43.1,4.2,35.4,2.5,76.4,7.5C1781.2,1036.3,1797.9,1019.9,1788.8,1019.7z" style="fill: url('#SVGID_55_'); opacity: 0.87;" transform="matrix(1, 0, 0, 1, 0, 0)"/><linearGradient id="SVGID_56_" gradientUnits="userSpaceOnUse" x1="1600.0919" y1="904.3773" x2="1600.0919" y2="1482.1001" style="opacity: 0.87;">
			<stop offset="0" style="stop-color:#AEA59C"/>
			<stop offset="1" style="stop-color:#15006B"/>
		</linearGradient><path class="st56" d="M1633.9,1106.2c-29.2,0-47.2,0-82.7,0c-35.4,0-77.4-5-70.2,0c7.2,5,121.6,16.6,173,16.6s52.1,3.3,64.6,3.3&#10;&#9;&#9;&#9;S1649.2,1106.2,1633.9,1106.2z" style="fill: url('#SVGID_56_'); opacity: 0.87;" transform="matrix(1, 0, 0, 1, 0, 0)"/><linearGradient id="SVGID_57_" gradientUnits="userSpaceOnUse" x1="1551.2092" y1="904.3773" x2="1551.2092" y2="1482.1001" style="opacity: 0.87;">
			<stop offset="0" style="stop-color:#AEA59C"/>
			<stop offset="1" style="stop-color:#15006B"/>
		</linearGradient><path class="st57" d="M1582.5,1247.7c-36.1,0-34,0-51.4,0c-17.4,0-40.3,0-40.3,0s-22.2,4.2-25,4.2s18.1,4.2,18.1,4.2h21.5&#10;&#9;&#9;&#9;c0,0,8.3,9.2,1.4,9.2s-48.6-4.2-6.9,0s82.7,7.5,82.7,7.5s29.9,0,36.1,0s18.3-8.3,18.3-8.3s-28-7.5-48.2-7.5&#10;&#9;&#9;&#9;C1568.6,1256.9,1596.4,1247.7,1582.5,1247.7z" style="fill: url('#SVGID_57_'); opacity: 0.87;" transform="matrix(1, 0, 0, 1, 0, 0)"/><linearGradient id="SVGID_58_" gradientUnits="userSpaceOnUse" x1="1373.0111" y1="904.3773" x2="1373.0111" y2="1482.1001" style="opacity: 0.87;">
			<stop offset="0" style="stop-color:#AEA59C"/>
			<stop offset="1" style="stop-color:#15006B"/>
		</linearGradient><path class="st58" d="M1344.2,1365.9c24.3,0,35.4,0,35.4,0s20.1,4.2,47.9,4.2s18.7,6.3,18.7,6.3s-70.8,0-90.9,0&#10;&#9;&#9;&#9;c-20.1,0-11.1,0-28.5,0c-17.4,0-28.5,0-28.5,0S1326.1,1365.9,1344.2,1365.9z" style="fill: url('#SVGID_58_'); opacity: 0.87;" transform="matrix(1, 0, 0, 1, 0, 0)"/><linearGradient id="SVGID_59_" gradientUnits="userSpaceOnUse" x1="1769.2223" y1="904.3773" x2="1769.2223" y2="1482.1001" style="opacity: 0.87;">
			<stop offset="0" style="stop-color:#AEA59C"/>
			<stop offset="1" style="stop-color:#15006B"/>
		</linearGradient><path class="st59" d="M1755.5,1213.6c45.2,0,43.8,0,56.3,0s51.3,4.2,36.8,5.8c-36.8,4.2-38.9-4.2-93.1,0s-42.6-1.8-58.5,1.2&#10;&#9;&#9;&#9;s-13.8-11.2,8.4-11.2S1735.3,1213.6,1755.5,1213.6z" style="fill: url('#SVGID_59_'); opacity: 0.87;" transform="matrix(1, 0, 0, 1, 0, 0)"/><linearGradient id="SVGID_60_" gradientUnits="userSpaceOnUse" x1="1545.4213" y1="904.3773" x2="1545.4213" y2="1482.1001" style="opacity: 0.87;">
			<stop offset="0" style="stop-color:#AEA59C"/>
			<stop offset="1" style="stop-color:#15006B"/>
		</linearGradient><path class="st60" d="M1510.2,1182c19.4,1.3,9.7,0,41,0c13.8,0,21.1,0.6,26.6,1.4c7,0.9,11.2,2,22.3,2c19.9,0,56,0,19.9,0&#10;&#9;&#9;&#9;c-36.1,0-43.8,6.7-73.6,6.7c-29.9,0-3.5,0-36.1,0c-32.7,0-38.7,0-44.7,0C1459.5,1191.9,1430.5,1176.7,1510.2,1182z" style="fill: url('#SVGID_60_'); opacity: 0.87;" transform="matrix(1, 0, 0, 1, 0, 0)"/><linearGradient id="SVGID_61_" gradientUnits="userSpaceOnUse" x1="386.0456" y1="904.3773" x2="386.0456" y2="1482.1001" style="opacity: 0.87;">
			<stop offset="0" style="stop-color:#AEA59C"/>
			<stop offset="1" style="stop-color:#15006B"/>
		</linearGradient><path class="st61" d="M439.7,1096.4c-21.4,0,2.9-2.6-40.4,0c-43.2,2.6-83.6,7.7-83.6,7.7s-21.4,0-32.9,0c-11.4,0-18.1-1.6-13.6,0&#10;&#9;&#9;&#9;c4.5,1.6,2.5,5.6,16.8,5.6s64.6,6.8,64.6,6.8s-11.1-2.6,23.2-2.6s10.4-1.7,54.6-1.7s31.4,0,56.1,0s27.1-2.9,0-6.3&#10;&#9;&#9;&#9;C457.6,1102.4,459.7,1096.4,439.7,1096.4z" style="fill: url('#SVGID_61_'); opacity: 0.87;" transform="matrix(1, 0, 0, 1, 0, 0)"/><linearGradient id="SVGID_62_" gradientUnits="userSpaceOnUse" x1="185.7708" y1="904.3773" x2="185.7708" y2="1482.1001" style="opacity: 0.87;">
			<stop offset="0" style="stop-color:#AEA59C"/>
			<stop offset="1" style="stop-color:#15006B"/>
		</linearGradient><path class="st62" d="M214.3,1001.9c-68.3,0-94.3-9.8-113.5-9.8S43.5,993.9,39,997s-12.8,2.1,27.4,4.9c40.2,2.8,45.4,4.2,65.2,4.2&#10;&#9;&#9;&#9;s32.6,4.2,38.4,4.2c5.8,0-28.4,7.7-45.3,7.7s-72.3-6.3-25.7,0s39.6,6.3,73.9,6.3s9.3,0,41.3,0s12.8,3.5,60,0&#10;&#9;&#9;&#9;c47.2-3.5,82.1,4.2,49.5-3.5s-46.6-11.8-62.9-11.8S234.1,1001.9,214.3,1001.9z" style="fill: url('#SVGID_62_'); opacity: 0.87;" transform="matrix(1, 0, 0, 1, 0, 0)"/><linearGradient id="SVGID_63_" gradientUnits="userSpaceOnUse" x1="293.3201" y1="904.3773" x2="293.3201" y2="1482.1001" style="opacity: 0.87;">
			<stop offset="0" style="stop-color:#AEA59C"/>
			<stop offset="1" style="stop-color:#15006B"/>
		</linearGradient><path class="st63" d="M344.1,942.6c-26.2,0-22.7-4.2-57.6,0c-34.9,4.2-32.6,9.1-51.2,9.1s-54.7-4.2-28.5,0&#10;&#9;&#9;&#9;c26.2,4.2,19.8,4.2,43.7,4.2s4.7,0,33.2,0s16.7,0,52.9,0s11.7,0,41.4,0S372.6,942.6,344.1,942.6z" style="fill: url('#SVGID_63_'); opacity: 0.87;" transform="matrix(1, 0, 0, 1, 0, 0)"/><linearGradient id="SVGID_64_" gradientUnits="userSpaceOnUse" x1="382.9211" y1="904.3773" x2="382.9211" y2="1482.1001" style="opacity: 0.87;">
			<stop offset="0" style="stop-color:#AEA59C"/>
			<stop offset="1" style="stop-color:#15006B"/>
		</linearGradient><path class="st64" d="M489,1176.9c-8.8,0-15.6-0.2-20.9-0.4c-29.8-1.5-13.8-6.5-51.9-6.5c-44.8,0-71.6,3.4-71.6,3.4&#10;&#9;&#9;&#9;s-11.1-1.4-41.3,3.5s-25.6,5.6-41.3,5.6s-36.2-0.7-9.7,4.2c26.5,4.9,19,9.1,45.2,4.9s49.5-10,49.5-10s34.9-3.3,78,3&#10;&#9;&#9;&#9;s45.4,3.5,73.4,3.5s27.9,0,27.9,0S505.9,1176.9,489,1176.9z" style="fill: url('#SVGID_64_'); opacity: 0.87;" transform="matrix(1, 0, 0, 1, 0, 0)"/><linearGradient id="SVGID_65_" gradientUnits="userSpaceOnUse" x1="527.9118" y1="904.3773" x2="527.9118" y2="1482.1001" style="opacity: 0.87;">
			<stop offset="0" style="stop-color:#AEA59C"/>
			<stop offset="1" style="stop-color:#15006B"/>
		</linearGradient><path class="st65" d="M628.8,1286.4c-54.2,3.3-72.2,3.5-72.2,3.5s-19.2-1.7-55.3-1.7s-10.5,1.7-47.2,1.7s-59.4-5.2-51.8,0&#10;&#9;&#9;&#9;c7.6,5.2,18,11.9,37.3,11.9c19.2,0,12.2,0,34.3,0c22.1,0-14,0,43.7,0s71.6,11.2,103,7.7c31.4-3.5,34.3-3.5,34.3-3.5&#10;&#9;&#9;&#9;S655,1284.8,628.8,1286.4z" style="fill: url('#SVGID_65_'); opacity: 0.87;" transform="matrix(1, 0, 0, 1, 0, 0)"/><linearGradient id="SVGID_66_" gradientUnits="userSpaceOnUse" x1="404.6701" y1="904.3773" x2="404.6701" y2="1482.1001" style="opacity: 0.87;">
			<stop offset="0" style="stop-color:#AEA59C"/>
			<stop offset="1" style="stop-color:#15006B"/>
		</linearGradient><path class="st66" d="M447.1,1368c-50.1,0-62.9,0-89.7,0s-30.9,4.2-51.2,4.2s-47.1,0.7-27.3,4.8c19.8,4.1,21.5,6.4,33.7,6.4&#10;&#9;&#9;&#9;s-23.9,0,18,0s18-7,78,0s7.6,7,66.4,7c58.8,0,62.3,0,62.3,0s-3.5-11.2-19.2-11.2c-15.7,0-32,0-37.3,0s19.7-20.7,24.7-20.7&#10;&#9;&#9;&#9;c5,0-31.7,0-31.7,0S502.4,1368,447.1,1368z" style="fill: url('#SVGID_66_'); opacity: 0.87;" transform="matrix(1, 0, 0, 1, 0, 0)"/><radialGradient id="SVGID_67_" cx="1013.0052" cy="448.2416" r="400.4585" gradientUnits="userSpaceOnUse">
			<stop offset="0" style="stop-color:#FFFFD7"/>
			<stop offset="1" style="stop-color:#FFE18A"/>
		</radialGradient><path d="M 1282.600006 538.900024 A 282.600006 282.600006 0 0 1 1000 821.500031 A 282.600006 282.600006 0 0 1 717.399994 538.900024 A 282.600006 282.600006 0 0 1 1000 256.300018 A 282.600006 282.600006 0 0 1 1282.600006 538.900024 Z" class="st67" style="fill: url('#SVGID_67_');" transform="matrix(1, 0, 0, 1, 0, 0)"/><radialGradient id="SVGID_68_" cx="1013.0052" cy="448.2416" r="400.4585" gradientUnits="userSpaceOnUse">
				<stop offset="0" style="stop-color:#FFFFD7"/>
				<stop offset="1" style="stop-color:#EDCA64"/>
			</radialGradient><path class="st68" d="M902.3,742.3c0-21.7,0.4-26.9,4.8-31.3c4.4-4.4,0.7-1.2,9.6-10.2c9-9,11.2-13.9,11.2-29.2&#10;&#9;&#9;&#9;&#9;c0-15.3-5.6-6.4-10.4-31.3c-4.8-24.9-16.9-12.8-4.8-32.1c12-19.3,8.4-23.7,15.3-30.5c6.8-6.8,1.7-9.2,9.6-17.1&#10;&#9;&#9;&#9;&#9;c7.9-7.9,16.9-5.4,6.4-15.8s-11.2-23.5-24.1-16.1c-12.9,7.4-4.8,16.9-12.9,24.9c-8,8,20.1,10.4-12.8,17.7s-17.7,7.2-32.9,7.2&#10;&#9;&#9;&#9;&#9;c-15.3,0-39.3-8-39.3-26.5c0-18.5-15.8-9.7,0-25.5c15.8-15.8,16.1-6.6,16.1-25.1s3.6-28.5,11.2-36.1c7.6-7.6,16.1-11.2,16.1,8&#10;&#9;&#9;&#9;&#9;c0,19.3-0.7,34.5,16.5,30.5c17.2-4,12.4-17.1,8.4-44.7c-4-27.6-2.3-21.2-8.4-36.4c-6.1-15.3-3.4-39.4-7.7-36.9&#10;&#9;&#9;&#9;&#9;c-4.3,2.5-20.1,7.2-35.3,22.5c-15.3,15.3,2.4,17.7-18.5,23.3c-20.9,5.6-13.7,8-33.7,4c-20.1-4-21.7-16.1-29.7-8&#10;&#9;&#9;&#9;&#9;c-8,8-8,29.7-8,38.5c0,8.8,9.6,16.1,0,34.5c-9.6,18.5-16.9,34.5-16.9,48.2c0,13.7,0,32.9,0,38.5s-5.5,19.7,20.5,26.1&#10;&#9;&#9;&#9;&#9;c26,6.4,38.7,0,47,11.6c8.3,11.6,27.3,1.6,8.8,36.9c-18.5,35.3-23.8,34.9-30.5,38.8c-1.9,1.1-6.3-0.6-11.7-3.3&#10;&#9;&#9;&#9;&#9;c32.7,48.1,79.8,85.5,135.1,106.2c1.1-2.8,1.1-7.2,1.1-16.4C902.3,758.4,902.3,764,902.3,742.3z" style="fill: url('#SVGID_68_');" transform="matrix(1, 0, 0, 1, 0, 0)"/><radialGradient id="SVGID_69_" cx="1013.0052" cy="448.2416" r="400.4585" gradientUnits="userSpaceOnUse">
				<stop offset="0" style="stop-color:#FFFFD7"/>
				<stop offset="1" style="stop-color:#EDCA64"/>
			</radialGradient><path class="st69" d="M1071.8,270.6c-2.2,4.7-2.7,6.6-10.1,9c-7.4,2.5-6.6,11.2-6.6,15.9c0,4.7,10.7-0.8,0,9.9&#10;&#9;&#9;&#9;&#9;c-10.7,10.7-32.6,16.5-32.6,23c0,6.6,11,0,5.5,12.1c-5.5,12.1-12.6,19.2-12.6,19.2s-22,10.2-29.1,14.3c-7.1,4.1-11,5.5-11,12.1&#10;&#9;&#9;&#9;&#9;c0,6.6-1.6,13.7,3.8,19.2c5.5,5.5,5.2,5.3,13.1,9.9c7.9,4.6,3.9-5,12.1,8.2s40.6,11,43.3,21.4c2.7,10.4,3.3,6,3.3,18.6&#10;&#9;&#9;&#9;&#9;c0,12.6,0,17.6,0,26.3c0,8.8-8.2,19.2-8.2,31.8s-4.1,17.3,1.1,22.5c5.2,5.2,1.8,7.2,9.3,11.5s4.9,6,13.2,6c8.2,0,0.7-15.9-6-22.6&#10;&#9;&#9;&#9;&#9;c-6.8-6.8-10.7-6.2-1.6-15.2c9-9-5.6-8.9,19.2-14.9c24.7-6,25.2-2.2,34.6-7.6c9.4-5.4,21.9-30.2,34-30.2c12.1,0,6.8-0.6,18.8-3.9&#10;&#9;&#9;&#9;&#9;c11.9-3.3,7-9.1,22.1-9.1c15.1,0,27.2,6.4,34.3,6.4s12.1,0.5,12.1-6s45-1.6-5.5-9.3c-50.5-7.7-33.8,11.3-53.2-9.3&#10;&#9;&#9;&#9;&#9;c-19.4-20.6-9.3-28-24.1-23.1c-14.8,4.9-23,12.1-32.4,21.4c-9.3,9.3,3.8,13.2-12.6,18.6s-10.4,19.2-19.7,4.9&#10;&#9;&#9;&#9;&#9;c-9.3-14.3-9.9-27.4-3.3-34s21.5-2.8,1.1-14.5c-20.4-11.8-27-5.1-20.4-11.8c6.6-6.6,25.9-53.8,40.1-45.5&#10;&#9;&#9;&#9;&#9;c14.2,8.2,17.6,21.9,25.2,26.3c7.6,4.4,3.7-1.7,14.3,4.4c10.6,6.1,17.1,1.3,26.3,6.6c9.2,5.3,9.9,10.3,17.8,10.3s11.2,4,16.7,7.2&#10;&#9;&#9;&#9;&#9;c5.5,3.2,3.3,8.8,14.3,2.5c10.9-6.3,10.2-5.9,19.7-11.4c2.9-1.7,5.3-2.6,7.3-3.4c-36.6-63.8-97.3-111.9-169.8-131.9&#10;&#9;&#9;&#9;&#9;C1073.7,267.2,1072.9,268.3,1071.8,270.6z" style="fill: url('#SVGID_69_');" transform="matrix(1, 0, 0, 1, 0, 0)"/><radialGradient id="SVGID_70_" cx="1013.0052" cy="448.2416" r="400.4585" gradientUnits="userSpaceOnUse">
				<stop offset="0" style="stop-color:#FFFFD7"/>
				<stop offset="1" style="stop-color:#EDCA64"/>
			</radialGradient><path class="st70" d="M1252.1,613.8c-26.6-15.3-16.9-17.9-29.1-17.9c-12.3,0-13.9,0-21.1,0c-7.2,0-8,6.7-13.7-7&#10;&#9;&#9;&#9;&#9;c-5.6-13.7,3.2-27.4-13.7-27.4s-27.6-2.2-31.3,0c-3.7,2.2-16.9,23.4-26.5,29c-9.6,5.6-12.8,17.4-30.1,17.4s-34.9,0-47,0&#10;&#9;&#9;&#9;&#9;c-12,0,0,6.9-28.1,0c-28.1-6.9-30.9,2.3-28.1,5.1c2.8,2.8-1.3-4.7,10.8,7.4c12.2,12.2-20.5-0.5,19.7,16.5&#10;&#9;&#9;&#9;&#9;c40.2,17,51.4,21.8,68.3,21.8c16.9,0,24.1-4,24.1,5.6c0,9.6-15.7,16.5-36.1,36.9c-20.5,20.5-20.9,28.9-46.6,65&#10;&#9;&#9;&#9;&#9;c-25.7,36.1-32.1,37.7-32.1,49c0,4.3-0.7,5.1-1.3,5.9c3.3,0.1,6.5,0.2,9.8,0.2c130.6,0,240.6-88.7,272.9-209.1&#10;&#9;&#9;&#9;&#9;C1264.9,618.7,1273.4,626.1,1252.1,613.8z" style="fill: url('#SVGID_70_');" transform="matrix(1, 0, 0, 1, 0, 0)"/>
</svg>