<svg xmlns="http://www.w3.org/2000/svg" id="master-artboard" width="335.99" height="235.19" x="0" y="0" version="1.1" viewBox="0 0 335.99 235.19" style="enable-background:new 0 0 335.99 235.19"><switch><g><linearGradient id="SVGID_1_" x1="168.067" x2="168.067" y1="188.925" y2=".056" gradientUnits="userSpaceOnUse"><stop offset="0" style="stop-color:#fddfc2"/><stop offset=".219" style="stop-color:#d8d5de"/><stop offset=".343" style="stop-color:#c5d0ea"/><stop offset=".377" style="stop-color:#c3c7e4"/><stop offset=".53" style="stop-color:#bb9eca"/><stop offset=".644" style="stop-color:#b781b7"/><stop offset=".704" style="stop-color:#b576b0"/><stop offset=".797" style="stop-color:#b375af"/><stop offset=".847" style="stop-color:#ac70aa"/><stop offset=".886" style="stop-color:#a067a1"/><stop offset=".92" style="stop-color:#8f5c95"/><stop offset=".95" style="stop-color:#794f87"/><stop offset=".978" style="stop-color:#604178"/><stop offset="1" style="stop-color:#47366a"/></linearGradient><path d="M 0.13 0.06 H 335.999995 V 188.929995 H 0.13 V 0.06 Z" class="st0" style="fill:url(#SVGID_1_)"/><radialGradient id="SVGID_2_" cx="77.118" cy="157.587" r="76.986" gradientUnits="userSpaceOnUse"><stop offset=".262" style="stop-color:#fdf9d7"/><stop offset=".602" style="stop-color:#fefbe7;stop-opacity:.5398"/><stop offset="1" style="stop-color:#fff;stop-opacity:0"/></radialGradient><path d="M 154.110001 157.589996 A 76.989998 76.989998 0 0 1 77.120003 234.579994 A 76.989998 76.989998 0 0 1 0.130005 157.589996 A 76.989998 76.989998 0 0 1 77.120003 80.599998 A 76.989998 76.989998 0 0 1 154.110001 157.589996 Z" class="st1" style="fill:url(#SVGID_2_)"/><g><g><linearGradient id="SVGID_3_" x1="180.664" x2="244.231" y1="186.783" y2="76.682" gradientUnits="userSpaceOnUse"><stop offset="0" style="stop-color:#efcfc8"/><stop offset=".059" style="stop-color:#e3c2c8"/><stop offset=".176" style="stop-color:#d1acc7"/><stop offset=".303" style="stop-color:#c59ec4"/><stop offset=".445" style="stop-color:#bd95c3"/><stop offset=".635" style="stop-color:#bb92c2"/><stop offset=".867" style="stop-color:#9e79b2"/><stop offset="1" style="stop-color:#8d6aa9"/></linearGradient><path d="M 269.04998779296875 81.30000305175781 L 202.22000122070312 143.35000610351562 L 135.39999389648438 81.30000305175781 L 22.940000534057617 188.97999572753906 L 68.55999755859375 188.92999267578125 L 335.8800048828125 188.92999267578125 L 335.8800048828125 143.36000061035156 Z" class="st2" style="fill:url(#SVGID_3_)"/></g><linearGradient id="SVGID_4_" x1="134.436" x2="202.223" y1="119.478" y2="119.478" gradientUnits="userSpaceOnUse"><stop offset="0" style="stop-color:#bb92c2"/><stop offset="1" style="stop-color:#8d6aa9"/></linearGradient><path d="M202.22,143.35l-66.79-62.02c-2.15,8.42-3.18,28.07,23.01,50.68c9.24,7.98,19.22,17.32,28.81,25.61 L202.22,143.35z" class="st3" style="fill:url(#SVGID_4_)"/><linearGradient id="SVGID_5_" x1="268.12" x2="335.989" y1="119.463" y2="119.463" gradientUnits="userSpaceOnUse"><stop offset="0" style="stop-color:#8d6aa9"/><stop offset="1" style="stop-color:#715697"/></linearGradient><path d="M335.97,143.44l-66.85-62.11c-2.15,8.42-3.18,28.07,23.01,50.68c9.24,7.98,19.94,17.29,29.53,25.58l14.33,0 L335.97,143.44z" class="st4" style="fill:url(#SVGID_5_)"/></g><path d="M113.99,188.46c-3.52-0.78-14.14-4.73-15.75-5.43c-0.19-0.08-0.39-0.15-0.59-0.22l-3.27-13.41l-2.49,10.22 l-1.97-8.09l-1.68,6.9l-1-4.09l-1.48,6.1c-0.32,0-0.63,0.05-0.94,0.12l-2.03-8.35l-1.92,7.89c-0.01,0-0.01-0.01-0.02-0.01 l-3.02-12.4l-2.55,10.49c-0.16-0.08-0.31-0.16-0.48-0.24l-1.92-7.89l-1.66,6.83c-0.4-0.08-0.79-0.17-1.19-0.25l-2.46-10.09 l-2.29,9.41l-1.12-4.58l-1.25,5.15c-0.01,0-0.03-0.01-0.04-0.01c-0.32,0-0.65,0.01-0.97,0.01l-0.89-3.65l-0.97,3.98 c-0.11,0.03-0.21,0.07-0.32,0.09c-0.03,0.01-0.06,0.01-0.09,0.02l-0.52-2.12l-0.58,2.39c-0.51,0.13-1.02,0.25-1.53,0.37 l-1.04-4.26l-1.12,4.58l-2.29-9.41l-2.56,10.53c-0.12,0.03-0.25,0.05-0.37,0.07c-0.21,0.04-0.41,0.09-0.62,0.15l-1.76-7.24 l-2.19,8.98l-2.76-11.35l-1.57,6.44l-1.25-5.14l-2.68,11.01c-0.05,0-0.11,0-0.16,0l-2.11-8.65l-2.12,8.71c-0.07,0-0.14,0-0.21,0 l-2.98-12.23l-2.29,9.41l-1.12-4.58l-1.76,7.22l-1.39-5.71l-1.19,4.87l-0.7-2.89l-1.39,5.71l-1.76-7.22l-1.12,4.58l-2.29-9.41 l-3.08,12.67l-2.23-9.15l-2.19,8.98l-2.76-11.35l-3.8,15.6h7.6l-0.02-0.09H113.99z" class="st5" style="fill:#e4b9ba"/><path d="M290.01,188.46l-0.02,0.09h7.6l-3.8-15.6l-2.76,11.35l-2.19-8.98l-2.23,9.15l-3.08-12.67l-2.29,9.41 l-1.12-4.58l-1.76,7.22l-1.39-5.71l-0.7,2.89l-1.19-4.87l-1.39,5.71l-1.76-7.22l-1.12,4.58l-2.29-9.41l-2.98,12.23 c-0.07,0-0.14,0-0.21,0l-2.12-8.71l-2.11,8.65c-0.05,0-0.11,0-0.16,0l-2.68-11.01l-1.25,5.14l-1.57-6.44l-2.76,11.35l-2.19-8.98 l-1.76,7.24c-0.2-0.05-0.41-0.1-0.62-0.15c-0.12-0.03-0.25-0.05-0.37-0.07l-2.56-10.53l-2.29,9.41l-1.12-4.58l-1.04,4.26 c-0.51-0.12-1.02-0.24-1.53-0.37l-0.58-2.39l-0.52,2.12c-0.03-0.01-0.06-0.01-0.09-0.02c-0.11-0.03-0.21-0.06-0.32-0.09 l-0.97-3.98l-0.89,3.65c-0.32,0-0.65-0.01-0.97-0.01c-0.01,0-0.02,0.01-0.04,0.01l-1.25-5.15l-1.12,4.58l-2.29-9.41l-2.46,10.09 c-0.4,0.08-0.8,0.17-1.19,0.25l-1.66-6.83l-1.92,7.89c-0.16,0.07-0.32,0.16-0.48,0.24l-2.55-10.49l-3.02,12.4 c-0.01,0-0.01,0.01-0.02,0.01l-1.92-7.89l-2.03,8.35c-0.31-0.07-0.62-0.13-0.94-0.12l-1.48-6.1l-1,4.09l-1.68-6.9l-1.97,8.09 l-2.49-10.22l-3.27,13.41c-0.19,0.08-0.4,0.14-0.59,0.22c-1.61,0.7-3.79,4.64-7.31,5.43H290.01z" class="st6" style="fill:#b576b0"/><linearGradient id="SVGID_6_" x1="-.029" x2="335.989" y1="211.883" y2="211.883" gradientUnits="userSpaceOnUse"><stop offset=".03" style="stop-color:#b15799"/><stop offset=".29" style="stop-color:#ac5699"/><stop offset=".629" style="stop-color:#a15299"/><stop offset="1" style="stop-color:#8d4c98"/></linearGradient><path d="M -0.03 188.520004 H 335.989989 V 235.250004 H -0.03 V 188.520004 Z" class="st7" style="fill:url(#SVGID_6_)"/><linearGradient id="SVGID_7_" x1=".069" x2="335.989" y1="173.056" y2="173.056" gradientUnits="userSpaceOnUse"><stop offset="0" style="stop-color:#58316c"/><stop offset=".239" style="stop-color:#573179"/><stop offset=".486" style="stop-color:#563081"/><stop offset=".738" style="stop-color:#553087"/><stop offset="1" style="stop-color:#552f88"/></linearGradient><path d="M335.99,188.52V157.6h-54.66h-8.67h-63.59h-64.04h-8.67H72.77H0.07v30.92h9.17v-20.5c0-3,4.04-5.42,9.03-5.42 c4.99,0,9.03,2.43,9.03,5.42v20.5h9.19v-20.5c0-3,4.04-5.42,9.03-5.42c4.99,0,9.03,2.43,9.03,5.42v20.5h9.19v-20.5 c0-3,4.04-5.42,9.03-5.42c4.99,0,9.03,2.43,9.03,5.42v20.5h9.19v-20.5c0-3,4.04-5.42,9.03-5.42c4.99,0,9.03,2.43,9.03,5.42v20.5 h9.19v-20.5c0-3,4.04-5.42,9.03-5.42c4.99,0,9.03,2.43,9.03,5.42v20.5h0.06h8.67h0.51v-20.5c0-3,4.04-5.42,9.03-5.42 c4.99,0,9.03,2.43,9.03,5.42v20.5h9.19v-20.5c0-3,4.04-5.42,9.03-5.42c4.99,0,9.03,2.43,9.03,5.42v20.5h9.19v-20.5 c0-3,4.04-5.42,9.03-5.42c4.99,0,9.03,2.43,9.03,5.42v20.5h9.19v-20.5c0-3,4.04-5.42,9.03-5.42c4.99,0,9.03,2.43,9.03,5.42v20.5 h9.19v-20.5c0-3,4.04-5.42,9.03-5.42c4.99,0,9.03,2.43,9.03,5.42v20.5h0.06h8.67h0.51v-20.5c0-3,4.04-5.42,9.03-5.42 c4.99,0,9.03,2.43,9.03,5.42v20.5h9.19v-20.5c0-3,4.04-5.42,9.03-5.42c4.99,0,9.03,2.43,9.03,5.42v20.5H335.99z" class="st8" style="fill:url(#SVGID_7_)"/><path d="M302.93,185.07l1.95,0.05l0,0l0.11,0l-3.27-7.62h1.5h0.11l-2.74-6.6l0.99,0l-2.11-5.43l0.83,0l0,0l0.11,0 l-1.79-5.07l0.95-0.02l-1.86-5.66l0.75-0.02c-1.56-4.21-2.51-11-2.51-11s0,0,0,0c0,0,0,0,0,0s-0.02,0.14-0.06,0.38 c-0.04-0.24-0.06-0.38-0.06-0.38s0,0,0,0c0,0,0,0,0,0s-0.95,6.79-2.51,11l0.75,0.02l-1.86,5.66l0.95,0.02l-1.79,5.07l0.94-0.01 l-2.11,5.43l0.99,0l-2.74,6.6h1.61l-3.27,7.62l2.06-0.05l-4.14,9.28h11.11h5.89h5.23h0.11L302.93,185.07z" class="st9" style="fill:#42245e"/><path d="M276.36,186.51l1.64,0.04l0,0l0.1,0l-2.76-6.44h1.27h0.1l-2.32-5.58l0.84,0l-1.78-4.59l0.7,0l0,0l0.1,0 l-1.52-4.29l0.8-0.01l-1.57-4.78l0.63-0.02c-1.32-3.56-2.12-9.29-2.12-9.29s0,0,0,0c0,0,0,0,0,0s-0.02,0.12-0.05,0.32 c-0.03-0.2-0.05-0.32-0.05-0.32s0,0,0,0c0,0,0,0,0,0s-0.8,5.74-2.12,9.29l0.63,0.02l-1.57,4.78l0.8,0.01l-1.52,4.29l0.79,0 l-1.78,4.59l0.84,0l-2.32,5.58h1.36l-2.76,6.44l1.74-0.04l-3.49,7.84h9.39h4.97h4.42h0.1L276.36,186.51z" class="st9" style="fill:#42245e"/><g><path d="M242.72,186.51l1.74,0.04l-2.76-6.44h1.36l-2.32-5.58l0.84,0l-1.78-4.59l0.79,0l-1.52-4.29l0.8-0.01 l-1.57-4.78l0.63-0.02c-1.32-3.56-2.12-9.29-2.12-9.29s0,0,0,0c0,0,0,0,0,0s-0.8,5.74-2.12,9.29l0.63,0.02l-1.57,4.78l0.8,0.01 l-1.52,4.29l0.79,0l-1.78,4.59l0.84,0l-2.32,5.58h1.36l-2.76,6.44l1.74-0.04l-3.49,7.84h9.39h9.39L242.72,186.51z" class="st9" style="fill:#42245e"/><path d="M237.38,160.79l1.11,4.98l-0.8-0.11l1.1,4.49l-0.79-0.12l1.34,4.83l-0.83-0.12l1.78,5.89l-1.35-0.21 l2.14,6.81l-1.72-0.31l2.45,7.43h4.51l-3.49-7.84l1.74,0.04l-2.76-6.44h1.36l-2.32-5.58l0.84,0l-1.78-4.59l0.79,0l-1.52-4.29 l0.8-0.01l-1.57-4.78l0.63-0.02c-1.32-3.56-2.12-9.29-2.12-9.29s0,0,0,0c0,0,0,0,0,0s-0.03,0.24-0.1,0.63 c0.11,1.76,0.44,5.82,1.18,8.68L237.38,160.79z" class="st10" style="fill:#4f2775"/></g><g><path d="M129.44,183.09l1.22,0.03l-1.94-4.51h0.96l-1.63-3.91l0.59,0l-1.25-3.22l0.56,0l-1.06-3.01l0.56-0.01 l-1.1-3.35l0.44-0.01c-0.92-2.49-1.49-6.52-1.49-6.52s0,0,0,0c0,0,0,0,0,0s-0.56,4.02-1.49,6.52l0.44,0.01l-1.1,3.35l0.56,0.01 l-1.06,3.01l0.56,0l-1.25,3.22l0.59,0l-1.63,3.91h0.96l-1.94,4.51l1.22-0.03l-2.45,5.5h6.58h6.58L129.44,183.09z" class="st9" style="fill:#42245e"/><path d="M125.69,165.06l0.78,3.49l-0.56-0.08l0.77,3.15l-0.55-0.09l0.94,3.39l-0.58-0.09l1.25,4.13l-0.95-0.14 l1.5,4.77l-1.21-0.22l1.72,5.21h3.16l-2.45-5.5l1.22,0.03l-1.94-4.51h0.96l-1.63-3.91l0.59,0l-1.25-3.22l0.56,0l-1.06-3.01 l0.56-0.01l-1.1-3.35l0.44-0.01c-0.92-2.49-1.49-6.52-1.49-6.52s0,0,0,0c0,0,0,0,0,0s-0.02,0.17-0.07,0.44 c0.08,1.23,0.31,4.08,0.83,6.08L125.69,165.06z" class="st10" style="fill:#4f2775"/></g><path d="M259.1,183.09l1.15,0.03l0,0l0.07,0l-1.94-4.51h0.89h0.07l-1.63-3.91l0.59,0l-1.25-3.22l0.49,0l0,0l0.07,0 l-1.06-3.01l0.56-0.01l-1.1-3.35l0.44-0.01c-0.92-2.49-1.49-6.52-1.49-6.52l0,0l0,0c0,0-0.01,0.08-0.03,0.23 c-0.02-0.14-0.03-0.23-0.03-0.23l0,0l0,0c0,0-0.56,4.02-1.49,6.52l0.44,0.01l-1.1,3.35l0.56,0.01l-1.06,3.01l0.56,0l-1.25,3.22 l0.59,0l-1.63,3.91h0.96l-1.94,4.51l1.22-0.03l-2.45,5.5h6.58h3.49h3.1h0.07L259.1,183.09z" class="st9" style="fill:#42245e"/><g id="snowing_1_"><g><path d="M280.19,15.02c-0.11,0.04-0.17,0.16-0.13,0.28c0.04,0.12,0.16,0.18,0.28,0.14 c0.12-0.04,0.17-0.17,0.14-0.28C280.43,15.04,280.3,14.98,280.19,15.02z" class="st11" style="opacity:.62;fill:#fff"/></g><g><path d="M1.55,42.6c-0.17,0.32-0.03,0.7,0.28,0.86c0.31,0.16,0.69,0.04,0.85-0.27c0.16-0.32,0.04-0.7-0.28-0.85 C2.1,42.17,1.71,42.3,1.55,42.6z" class="st11" style="opacity:.62;fill:#fff"/><path d="M101.64,92.81c-0.45,0.13-0.92-0.12-1.05-0.57c-0.14-0.44,0.12-0.91,0.56-1.05 c0.45-0.14,0.92,0.11,1.06,0.56C102.34,92.2,102.09,92.67,101.64,92.81z" class="st11" style="opacity:.62;fill:#fff"/><path d="M178.78,69.1c-0.33,0.1-0.68-0.09-0.79-0.43c-0.1-0.33,0.09-0.68,0.42-0.78c0.33-0.1,0.68,0.09,0.78,0.42 C179.3,68.64,179.11,68.99,178.78,69.1z" class="st11" style="opacity:.62;fill:#fff"/></g><g><path d="M206.15,32.68c-0.1-0.33-0.47-0.51-0.8-0.41c-0.33,0.11-0.52,0.47-0.41,0.8c0.11,0.33,0.46,0.52,0.79,0.41 C206.08,33.37,206.26,33.02,206.15,32.68z" class="st11" style="opacity:.62;fill:#fff"/><path d="M270.42,20.93c-0.11-0.33-0.47-0.51-0.8-0.41c-0.33,0.11-0.51,0.46-0.41,0.79 c0.11,0.33,0.46,0.52,0.8,0.41C270.34,21.62,270.52,21.27,270.42,20.93z" class="st11" style="opacity:.62;fill:#fff"/><path d="M154.37,80.2c0.17-0.32,0.55-0.43,0.86-0.27c0.31,0.16,0.42,0.55,0.26,0.86 c-0.17,0.31-0.55,0.43-0.86,0.26C154.32,80.89,154.21,80.51,154.37,80.2z" class="st11" style="opacity:.62;fill:#fff"/><path d="M191.69,117.88c0.17-0.3,0.54-0.41,0.86-0.25c0.3,0.16,0.42,0.55,0.26,0.85 c-0.16,0.31-0.55,0.42-0.86,0.26C191.63,118.58,191.52,118.18,191.69,117.88z" class="st11" style="opacity:.62;fill:#fff"/><path d="M132.65,41.28c0.16-0.31,0.54-0.42,0.86-0.27c0.3,0.17,0.42,0.56,0.26,0.87c-0.17,0.3-0.55,0.42-0.86,0.26 C132.6,41.98,132.49,41.59,132.65,41.28z" class="st11" style="opacity:.62;fill:#fff"/></g><g><path d="M195.77,150.19c-0.11-0.33-0.47-0.51-0.8-0.41c-0.33,0.11-0.51,0.46-0.41,0.79 c0.11,0.33,0.46,0.51,0.8,0.41C195.69,150.88,195.87,150.52,195.77,150.19z" class="st11" style="opacity:.62;fill:#fff"/></g><g><path d="M95.4,136.35c-0.1-0.33-0.47-0.51-0.8-0.41c-0.33,0.11-0.52,0.46-0.41,0.8c0.11,0.33,0.46,0.52,0.79,0.41 C95.32,137.04,95.51,136.69,95.4,136.35z" class="st11" style="opacity:.62;fill:#fff"/><path d="M203.53,136.15c-0.11-0.33-0.47-0.51-0.8-0.41c-0.33,0.11-0.51,0.47-0.41,0.8 c0.11,0.33,0.46,0.51,0.8,0.41C203.45,136.84,203.64,136.48,203.53,136.15z" class="st11" style="opacity:.62;fill:#fff"/><path d="M159.66,124.6c-0.11-0.33-0.47-0.51-0.8-0.41c-0.33,0.11-0.51,0.46-0.41,0.79 c0.11,0.34,0.46,0.52,0.8,0.41C159.58,125.3,159.76,124.94,159.66,124.6z" class="st11" style="opacity:.62;fill:#fff"/></g><g><path d="M153.05,146.73c-0.1-0.33-0.46-0.52-0.79-0.41c-0.33,0.1-0.51,0.46-0.41,0.79 c0.11,0.33,0.47,0.51,0.79,0.41C152.97,147.42,153.16,147.06,153.05,146.73z" class="st11" style="opacity:.62;fill:#fff"/><path d="M261.7,97.83c-0.11-0.33-0.47-0.51-0.8-0.41c-0.33,0.11-0.51,0.47-0.41,0.8c0.11,0.33,0.46,0.51,0.8,0.41 C261.62,98.52,261.8,98.17,261.7,97.83z" class="st11" style="opacity:.62;fill:#fff"/><path d="M267.88,60.31c-0.11-0.33-50.52,25.47-50.85,25.56c-0.33,0.11-0.51,0.46-0.41,0.79 c0.11,0.33,0.46,0.52,0.8,0.41C217.75,86.98,267.98,60.65,267.88,60.31z" class="st11" style="opacity:.62;fill:#fff"/><path d="M234.52,146.17c-0.15-0.45-0.62-0.68-1.06-0.54c-0.45,0.14-0.68,0.62-0.55,1.06 c0.15,0.45,0.62,0.68,1.07,0.55C234.42,147.09,234.66,146.62,234.52,146.17z" class="st11" style="opacity:.62;fill:#fff"/><path d="M116.51,147.74c0.17-0.31,0.55-0.43,0.86-0.27c0.31,0.16,0.42,0.55,0.26,0.86 c-0.17,0.31-0.55,0.42-0.86,0.26C116.46,148.43,116.35,148.05,116.51,147.74z" class="st11" style="opacity:.62;fill:#fff"/><path d="M80.06,106.64c0.16-0.31,0.54-0.42,0.86-0.27c0.3,0.17,0.42,0.56,0.26,0.87c-0.17,0.3-0.55,0.42-0.86,0.26 C80.01,107.34,79.9,106.95,80.06,106.64z" class="st11" style="opacity:.62;fill:#fff"/><path d="M95.52,150.98c0.17-0.31,0.55-0.43,0.86-0.26c0.31,0.17,0.43,0.55,0.26,0.86 c-0.16,0.31-0.55,0.43-0.86,0.26C95.48,151.68,95.36,151.3,95.52,150.98z" class="st11" style="opacity:.62;fill:#fff"/></g><g><path d="M266.32,147.32c-0.1-0.33-0.47-0.51-0.8-0.41c-0.33,0.11-0.52,0.46-0.41,0.8 c0.11,0.33,0.46,0.52,0.79,0.41C266.24,148.01,266.42,147.66,266.32,147.32z" class="st11" style="opacity:.62;fill:#fff"/><path d="M330.58,135.57c-0.11-0.33-0.47-0.51-0.8-0.41c-0.33,0.11-0.51,0.46-0.41,0.79 c0.11,0.33,0.46,0.52,0.8,0.41C330.5,136.27,330.68,135.91,330.58,135.57z" class="st11" style="opacity:.62;fill:#fff"/><path d="M192.81,155.93c0.16-0.31,0.54-0.43,0.86-0.27c0.3,0.17,0.42,0.56,0.26,0.86 c-0.17,0.31-0.55,0.42-0.86,0.26C192.76,156.62,192.65,156.23,192.81,155.93z" class="st11" style="opacity:.62;fill:#fff"/></g><g><path d="M31.3,63.6c-0.1-0.33-0.47-0.51-0.8-0.41c-0.33,0.11-0.52,0.47-0.41,0.8c0.11,0.33,0.46,0.51,0.79,0.41 C31.22,64.28,31.41,63.93,31.3,63.6z" class="st11" style="opacity:.62;fill:#fff"/><path d="M30.79,112.29c-0.11-0.33-0.46-0.52-0.79-0.41c-0.33,0.11-0.51,0.46-0.41,0.79 c0.11,0.33,0.47,0.51,0.79,0.41C30.71,112.98,30.89,112.62,30.79,112.29z" class="st11" style="opacity:.62;fill:#fff"/><path d="M64.84,131.45c-0.1-0.34-0.46-0.52-0.8-0.42c-0.33,0.11-0.51,0.47-0.41,0.8c0.1,0.33,0.47,0.52,0.79,0.41 C64.77,132.14,64.95,131.78,64.84,131.45z" class="st11" style="opacity:.62;fill:#fff"/><path d="M140.89,116.47c-0.1-0.33-0.46-0.52-0.79-0.41c-0.33,0.11-0.51,0.46-0.41,0.8c0.11,0.33,0.46,0.51,0.8,0.4 C140.81,117.15,141,116.8,140.89,116.47z" class="st11" style="opacity:.62;fill:#fff"/><path d="M139.43,63.39c-0.11-0.33-0.47-0.51-0.8-0.41c-0.33,0.12-0.51,0.47-0.41,0.8c0.11,0.34,0.47,0.52,0.8,0.41 C139.36,64.08,139.54,63.72,139.43,63.39z" class="st11" style="opacity:.62;fill:#fff"/><path d="M95.57,51.85c-0.11-0.33-0.47-0.51-0.8-0.41c-0.33,0.11-0.51,0.46-0.41,0.79c0.11,0.33,0.46,0.52,0.8,0.41 C95.49,52.54,95.67,52.18,95.57,51.85z" class="st11" style="opacity:.62;fill:#fff"/><path d="M7.96,135.65c0.22-0.41,0.73-0.57,1.14-0.34c0.42,0.22,0.57,0.73,0.36,1.14 c-0.23,0.42-0.73,0.57-1.14,0.35C7.9,136.57,7.75,136.06,7.96,135.65z" class="st11" style="opacity:.62;fill:#fff"/></g><g><path d="M230.79,137.87c-0.14-0.45-0.62-0.69-1.07-0.54c-0.44,0.14-0.69,0.62-0.54,1.06 c0.14,0.44,0.62,0.68,1.07,0.55C230.69,138.78,230.93,138.3,230.79,137.87z" class="st11" style="opacity:.62;fill:#fff"/><path d="M313.42,36.55c-0.11-0.33-0.46-0.52-0.8-0.41c-0.33,0.1-0.52,0.46-0.41,0.8c0.11,0.32,0.46,0.52,0.79,0.41 C313.35,37.24,313.53,36.88,313.42,36.55z" class="st11" style="opacity:.62;fill:#fff"/><path d="M276.37,86.25c0.17-0.31,0.55-0.43,0.86-0.26c0.31,0.16,0.42,0.55,0.26,0.85 c-0.16,0.31-0.55,0.43-0.86,0.26C276.32,86.94,276.21,86.56,276.37,86.25z" class="st11" style="opacity:.62;fill:#fff"/><path d="M298.96,121.75c0.17-0.31,0.55-0.42,0.86-0.27c0.3,0.17,0.42,0.55,0.25,0.86 c-0.16,0.31-0.55,0.42-0.85,0.25C298.9,122.45,298.79,122.06,298.96,121.75z" class="st11" style="opacity:.62;fill:#fff"/><path d="M239.92,45.15c0.16-0.31,0.55-0.43,0.86-0.26c0.3,0.17,0.42,0.55,0.26,0.86c-0.17,0.3-0.54,0.42-0.85,0.26 C239.87,45.85,239.76,45.46,239.92,45.15z" class="st11" style="opacity:.62;fill:#fff"/><path d="M312.44,78.4c0.16-0.31,0.55-0.43,0.85-0.26c0.31,0.16,0.43,0.55,0.26,0.86 c-0.16,0.31-0.55,0.42-0.85,0.26C312.39,79.09,312.28,78.71,312.44,78.4z" class="st11" style="opacity:.62;fill:#fff"/><path d="M290.09,108.6c0.21-0.42,0.73-0.57,1.14-0.35c0.41,0.22,0.57,0.73,0.35,1.15 c-0.23,0.41-0.73,0.57-1.14,0.34C290.03,109.52,289.87,109.01,290.09,108.6z" class="st11" style="opacity:.62;fill:#fff"/></g><g><path d="M43.91,27.04c-0.23,0.07-0.46-0.05-0.53-0.28c-0.07-0.22,0.06-0.46,0.29-0.54 c0.23-0.07,0.46,0.06,0.53,0.28C44.26,26.73,44.13,26.97,43.91,27.04z" class="st11" style="opacity:.62;fill:#fff"/></g><g><path d="M62.52,27.06c-0.31,0.09-0.62-0.08-0.71-0.38c-0.09-0.31,0.09-0.62,0.38-0.72 c0.3-0.09,0.62,0.08,0.71,0.38C62.99,26.65,62.81,26.97,62.52,27.06z" class="st11" style="opacity:.62;fill:#fff"/><path d="M55.86,20.27c-0.44,0.14-0.9-0.11-1.04-0.55c-0.13-0.44,0.11-0.9,0.55-1.03c0.44-0.14,0.91,0.11,1.04,0.55 C56.55,19.67,56.3,20.13,55.86,20.27z" class="st11" style="opacity:.62;fill:#fff"/></g><g><path d="M120.84,98.78c-0.16,0.32-0.03,0.7,0.27,0.85c0.31,0.16,0.7,0.04,0.85-0.27c0.16-0.32,0.03-0.69-0.28-0.85 C121.38,98.34,121,98.47,120.84,98.78z" class="st11" style="opacity:.62;fill:#fff"/><path d="M56.47,55.6c-0.17,0.32-0.04,0.7,0.27,0.86c0.31,0.16,0.69,0.03,0.86-0.27c0.16-0.31,0.04-0.69-0.27-0.86 C57.01,55.16,56.63,55.29,56.47,55.6z" class="st11" style="opacity:.62;fill:#fff"/><path d="M33.26,140.36c-0.16,0.31-0.04,0.7,0.28,0.86c0.31,0.15,0.69,0.03,0.85-0.28 c0.17-0.31,0.04-0.69-0.28-0.85C33.8,139.93,33.42,140.05,33.26,140.36z" class="st11" style="opacity:.62;fill:#fff"/><path d="M73.36,79.19c-0.21,0.41-0.05,0.93,0.37,1.14c0.41,0.2,0.92,0.05,1.14-0.38c0.21-0.41,0.05-0.92-0.36-1.13 C74.09,78.61,73.58,78.77,73.36,79.19z" class="st11" style="opacity:.62;fill:#fff"/><path d="M167.05,120.45c-0.34,0.1-0.68-0.09-0.79-0.42c-0.1-0.34,0.09-0.69,0.43-0.79 c0.33-0.1,0.69,0.09,0.79,0.42C167.58,119.99,167.39,120.35,167.05,120.45z" class="st11" style="opacity:.62;fill:#fff"/><path d="M43.74,156.57c-0.44,0.13-0.91-0.13-1.05-0.57c-0.13-0.45,0.11-0.92,0.56-1.06 c0.45-0.13,0.92,0.12,1.05,0.57C44.43,155.95,44.19,156.42,43.74,156.57z" class="st11" style="opacity:.62;fill:#fff"/></g><g><path d="M224.47,23.28c-0.45,0.13-0.91-0.12-1.05-0.57c-0.14-0.44,0.12-0.92,0.56-1.05 c0.44-0.13,0.92,0.12,1.05,0.56C225.18,22.67,224.92,23.14,224.47,23.28z" class="st11" style="opacity:.62;fill:#fff"/></g><g><path d="M224.47,23.28c-0.45,0.13-0.91-0.12-1.05-0.57c-0.14-0.44,0.12-0.92,0.56-1.05 c0.44-0.13,0.92,0.12,1.05,0.56C225.18,22.67,224.92,23.14,224.47,23.28z" class="st11" style="opacity:.62;fill:#fff"/></g><g><path d="M182.66,45.43c-0.1,0.14-0.3,0.17-0.44,0.07c-0.14-0.1-0.18-0.29-0.07-0.44c0.1-0.14,0.3-0.17,0.44-0.07 C182.72,45.09,182.76,45.28,182.66,45.43z" class="st11" style="opacity:.62;fill:#fff"/><path d="M173.86,8.26c-0.11,0.14-0.3,0.18-0.45,0.08c-0.14-0.1-0.18-0.3-0.08-0.45c0.1-0.14,0.3-0.17,0.45-0.08 C173.92,7.92,173.96,8.12,173.86,8.26z" class="st11" style="opacity:.62;fill:#fff"/><path d="M164.02,50.61c-0.1,0.14-0.3,0.18-0.44,0.08c-0.15-0.1-0.18-0.3-0.08-0.44c0.1-0.15,0.3-0.18,0.44-0.08 C164.09,50.27,164.12,50.47,164.02,50.61z" class="st11" style="opacity:.62;fill:#fff"/><path d="M147.83,21.63c-0.1,0.14-0.3,0.18-0.44,0.08c-0.14-0.1-0.18-0.3-0.08-0.45c0.1-0.15,0.3-0.18,0.44-0.08 C147.9,21.28,147.93,21.48,147.83,21.63z" class="st11" style="opacity:.62;fill:#fff"/><path d="M118.25,17.83c0.04,0.23,0.26,0.39,0.49,0.33c0.23-0.04,0.39-0.26,0.34-0.49 c-0.04-0.23-0.26-0.39-0.49-0.34C118.35,17.38,118.2,17.6,118.25,17.83z" class="st11" style="opacity:.62;fill:#fff"/><path d="M158.95,8.42c0.03,0.18,0.2,0.29,0.37,0.25c0.18-0.03,0.28-0.2,0.26-0.38c-0.03-0.16-0.2-0.28-0.37-0.25 C159.03,8.07,158.92,8.24,158.95,8.42z" class="st11" style="opacity:.62;fill:#fff"/><path d="M145.58,41.41c0.05,0.23,0.27,0.38,0.5,0.34c0.23-0.04,0.38-0.26,0.34-0.5c-0.04-0.23-0.27-0.38-0.49-0.34 C145.69,40.96,145.54,41.18,145.58,41.41z" class="st11" style="opacity:.62;fill:#fff"/></g></g><g><g><path d="M 4.4 153.559998 H 4.8 V 157.579998 H 4.4 V 153.559998 Z" class="st9" style="fill:#42245e"/></g><g><path d="M 167.800003 -12.42 H 168.200003 V 323.560011 H 167.800003 V -12.42 Z" class="st9" transform="matrix(-1.836970e-16 1 -1 -1.836970e-16 323.5779 -12.432)" style="fill:#42245e"/></g><g><path d="M 24.440001 153.559998 H 24.840001 V 157.579998 H 24.440001 V 153.559998 Z" class="st9" style="fill:#42245e"/></g><g><path d="M 42.700001 153.559998 H 43.100001 V 157.579998 H 42.700001 V 153.559998 Z" class="st9" style="fill:#42245e"/></g><g><path d="M 62.740002 153.559998 H 63.140002 V 157.579998 H 62.740002 V 153.559998 Z" class="st9" style="fill:#42245e"/></g><g><path d="M 81 153.559998 H 81.4 V 157.579998 H 81 V 153.559998 Z" class="st9" style="fill:#42245e"/></g><g><path d="M 101.040001 153.559998 H 101.440001 V 157.579998 H 101.040001 V 153.559998 Z" class="st9" style="fill:#42245e"/></g><g><path d="M 119.300003 153.559998 H 119.700003 V 157.579998 H 119.300003 V 153.559998 Z" class="st9" style="fill:#42245e"/></g><g><path d="M 139.339996 153.559998 H 139.739996 V 157.579998 H 139.339996 V 153.559998 Z" class="st9" style="fill:#42245e"/></g><g><path d="M 157.600006 153.559998 H 158.000006 V 157.579998 H 157.600006 V 153.559998 Z" class="st9" style="fill:#42245e"/></g><g><path d="M 177.639999 153.559998 H 178.039999 V 157.579998 H 177.639999 V 153.559998 Z" class="st9" style="fill:#42245e"/></g><g><path d="M 195.899994 153.559998 H 196.299994 V 157.579998 H 195.899994 V 153.559998 Z" class="st9" style="fill:#42245e"/></g><g><path d="M 215.940002 153.559998 H 216.340002 V 157.579998 H 215.940002 V 153.559998 Z" class="st9" style="fill:#42245e"/></g><g><path d="M 234.199997 153.559998 H 234.599997 V 157.579998 H 234.199997 V 153.559998 Z" class="st9" style="fill:#42245e"/></g><g><path d="M 254.240005 153.559998 H 254.640005 V 157.579998 H 254.240005 V 153.559998 Z" class="st9" style="fill:#42245e"/></g><g><path d="M 272.5 153.559998 H 272.9 V 157.579998 H 272.5 V 153.559998 Z" class="st9" style="fill:#42245e"/></g><g><path d="M 292.540009 153.559998 H 292.940009 V 157.579998 H 292.540009 V 153.559998 Z" class="st9" style="fill:#42245e"/></g><g><path d="M 310.799988 153.559998 H 311.199988 V 157.579998 H 310.799988 V 153.559998 Z" class="st9" style="fill:#42245e"/></g><g><path d="M 330.839996 153.559998 H 331.239996 V 157.579998 H 330.839996 V 153.559998 Z" class="st9" style="fill:#42245e"/></g></g><g id="train"><g><path d="M88.22,156.12c0,0.7-0.57,1.26-1.26,1.26c-0.7,0-1.26-0.57-1.26-1.26c0-0.7,0.57-1.26,1.26-1.26 C87.65,154.86,88.22,155.43,88.22,156.12z" class="st12" style="fill:#5a5959"/><path d="M86.95,157.61c-0.82,0-1.48-0.66-1.48-1.48c0-0.82,0.66-1.48,1.48-1.48c0.82,0,1.48,0.66,1.48,1.48 C88.44,156.94,87.77,157.61,86.95,157.61z M86.95,155.08c-0.58,0-1.05,0.47-1.05,1.05c0,0.58,0.47,1.05,1.05,1.05 c0.58,0,1.05-0.47,1.05-1.05C88,155.55,87.53,155.08,86.95,155.08z" class="st12" style="fill:#5a5959"/></g><g><path d="M93.92,156.12c0,0.7-0.57,1.26-1.26,1.26c-0.7,0-1.26-0.57-1.26-1.26c0-0.7,0.57-1.26,1.26-1.26 C93.35,154.86,93.92,155.43,93.92,156.12z" class="st12" style="fill:#5a5959"/><path d="M92.65,157.61c-0.82,0-1.48-0.66-1.48-1.48c0-0.82,0.66-1.48,1.48-1.48c0.82,0,1.48,0.66,1.48,1.48 C94.13,156.94,93.47,157.61,92.65,157.61z M92.65,155.08c-0.58,0-1.05,0.47-1.05,1.05c0,0.58,0.47,1.05,1.05,1.05 c0.58,0,1.05-0.47,1.05-1.05C93.7,155.55,93.23,155.08,92.65,155.08z" class="st12" style="fill:#5a5959"/></g><g><path d="M109.34,156.12c0,0.7-0.57,1.26-1.26,1.26c-0.7,0-1.26-0.57-1.26-1.26c0-0.7,0.57-1.26,1.26-1.26 C108.77,154.86,109.34,155.43,109.34,156.12z" class="st12" style="fill:#5a5959"/><path d="M108.07,157.61c-0.82,0-1.48-0.66-1.48-1.48c0-0.82,0.66-1.48,1.48-1.48c0.82,0,1.48,0.66,1.48,1.48 C109.56,156.94,108.89,157.61,108.07,157.61z M108.07,155.08c-0.58,0-1.05,0.47-1.05,1.05c0,0.58,0.47,1.05,1.05,1.05 c0.58,0,1.05-0.47,1.05-1.05C109.12,155.55,108.65,155.08,108.07,155.08z" class="st12" style="fill:#5a5959"/></g><g><path d="M115.04,156.12c0,0.7-0.57,1.26-1.26,1.26c-0.7,0-1.26-0.57-1.26-1.26c0-0.7,0.57-1.26,1.26-1.26 C114.47,154.86,115.04,155.43,115.04,156.12z" class="st12" style="fill:#5a5959"/><path d="M113.77,157.61c-0.82,0-1.48-0.66-1.48-1.48c0-0.82,0.66-1.48,1.48-1.48c0.82,0,1.48,0.66,1.48,1.48 C115.25,156.94,114.59,157.61,113.77,157.61z M113.77,155.08c-0.58,0-1.05,0.47-1.05,1.05c0,0.58,0.47,1.05,1.05,1.05 c0.58,0,1.05-0.47,1.05-1.05C114.82,155.55,114.35,155.08,113.77,155.08z" class="st12" style="fill:#5a5959"/></g><g><path d="M34.25,156.12c0,0.7-0.57,1.26-1.26,1.26c-0.7,0-1.26-0.57-1.26-1.26c0-0.7,0.57-1.26,1.26-1.26 C33.68,154.86,34.25,155.43,34.25,156.12z" class="st12" style="fill:#5a5959"/><path d="M32.99,157.61c-0.82,0-1.48-0.66-1.48-1.48c0-0.82,0.66-1.48,1.48-1.48c0.82,0,1.48,0.66,1.48,1.48 C34.47,156.94,33.8,157.61,32.99,157.61z M32.99,155.08c-0.58,0-1.05,0.47-1.05,1.05c0,0.58,0.47,1.05,1.05,1.05 c0.58,0,1.05-0.47,1.05-1.05C34.03,155.55,33.56,155.08,32.99,155.08z" class="st12" style="fill:#5a5959"/></g><g><path d="M39.95,156.12c0,0.7-0.57,1.26-1.26,1.26c-0.7,0-1.26-0.57-1.26-1.26c0-0.7,0.57-1.26,1.26-1.26 C39.38,154.86,39.95,155.43,39.95,156.12z" class="st12" style="fill:#5a5959"/><path d="M38.69,157.61c-0.82,0-1.48-0.66-1.48-1.48c0-0.82,0.66-1.48,1.48-1.48c0.82,0,1.48,0.66,1.48,1.48 C40.17,156.94,39.5,157.61,38.69,157.61z M38.69,155.08c-0.58,0-1.05,0.47-1.05,1.05c0,0.58,0.47,1.05,1.05,1.05 c0.58,0,1.05-0.47,1.05-1.05C39.73,155.55,39.26,155.08,38.69,155.08z" class="st12" style="fill:#5a5959"/></g><g><path d="M49.22,156.12c0,0.7-0.57,1.26-1.26,1.26c-0.7,0-1.26-0.57-1.26-1.26c0-0.7,0.57-1.26,1.26-1.26 C48.65,154.86,49.22,155.43,49.22,156.12z" class="st12" style="fill:#5a5959"/><path d="M47.95,157.61c-0.82,0-1.48-0.66-1.48-1.48c0-0.82,0.66-1.48,1.48-1.48c0.82,0,1.48,0.66,1.48,1.48 C49.43,156.94,48.77,157.61,47.95,157.61z M47.95,155.08c-0.58,0-1.05,0.47-1.05,1.05c0,0.58,0.47,1.05,1.05,1.05 c0.58,0,1.05-0.47,1.05-1.05C49,155.55,48.53,155.08,47.95,155.08z" class="st12" style="fill:#5a5959"/></g><g><path d="M54.92,156.12c0,0.7-0.57,1.26-1.26,1.26c-0.7,0-1.26-0.57-1.26-1.26c0-0.7,0.57-1.26,1.26-1.26 C54.35,154.86,54.92,155.43,54.92,156.12z" class="st12" style="fill:#5a5959"/><path d="M53.65,157.61c-0.82,0-1.48-0.66-1.48-1.48c0-0.82,0.66-1.48,1.48-1.48c0.82,0,1.48,0.66,1.48,1.48 C55.13,156.94,54.47,157.61,53.65,157.61z M53.65,155.08c-0.58,0-1.05,0.47-1.05,1.05c0,0.58,0.47,1.05,1.05,1.05 c0.58,0,1.05-0.47,1.05-1.05C54.7,155.55,54.23,155.08,53.65,155.08z" class="st12" style="fill:#5a5959"/></g><g><path d="M64.74,156.12c0,0.7-0.57,1.26-1.26,1.26c-0.7,0-1.26-0.57-1.26-1.26c0-0.7,0.57-1.26,1.26-1.26 C64.18,154.86,64.74,155.43,64.74,156.12z" class="st12" style="fill:#5a5959"/><path d="M63.48,157.61c-0.82,0-1.48-0.66-1.48-1.48c0-0.82,0.66-1.48,1.48-1.48c0.82,0,1.48,0.66,1.48,1.48 C64.96,156.94,64.29,157.61,63.48,157.61z M63.48,155.08c-0.58,0-1.05,0.47-1.05,1.05c0,0.58,0.47,1.05,1.05,1.05 c0.58,0,1.05-0.47,1.05-1.05C64.53,155.55,64.06,155.08,63.48,155.08z" class="st12" style="fill:#5a5959"/></g><g><path d="M70.44,156.12c0,0.7-0.56,1.26-1.26,1.26c-0.7,0-1.26-0.57-1.26-1.26c0-0.7,0.57-1.26,1.26-1.26 C69.88,154.86,70.44,155.43,70.44,156.12z" class="st12" style="fill:#5a5959"/><path d="M69.18,157.61c-0.82,0-1.48-0.66-1.48-1.48c0-0.82,0.66-1.48,1.48-1.48s1.48,0.66,1.48,1.48 C70.66,156.94,69.99,157.61,69.18,157.61z M69.18,155.08c-0.58,0-1.05,0.47-1.05,1.05c0,0.58,0.47,1.05,1.05,1.05 c0.58,0,1.05-0.47,1.05-1.05C70.22,155.55,69.75,155.08,69.18,155.08z" class="st12" style="fill:#5a5959"/></g><path d="M 76.470001 143.970001 H 124.260002 V 154.560001 H 76.470001 V 143.970001 Z" class="st13" style="fill:#742e86"/><path d="M 76.449997 145.679993 H 124.359997 V 152.499993 H 76.449997 V 145.679993 Z" class="st14" style="fill:#8d4c98"/><path d="M26.09,152.74L26.09,152.74c0.09,1.15,0.41,1.96,2.23,1.96h47.21v-2.2H26.09 C26.09,152.5,26.08,152.59,26.09,152.74z" class="st13" style="fill:#742e86"/><path d="M 78.169998 147.5 H 85.509998 V 150.73 H 78.169998 V 147.5 Z" class="st15" style="fill:#fddfc2"/><path d="M 87.5 147.5 H 94.84 V 150.73 H 87.5 V 147.5 Z" class="st15" style="fill:#fddfc2"/><path d="M 96.839996 147.5 H 104.179996 V 150.73 H 96.839996 V 147.5 Z" class="st15" style="fill:#fddfc2"/><path d="M 106.18 147.5 H 113.52 V 150.73 H 106.18 V 147.5 Z" class="st15" style="fill:#fddfc2"/><path d="M 115.519997 147.5 H 122.859997 V 150.73 H 115.519997 V 147.5 Z" class="st15" style="fill:#fddfc2"/><g><path d="M26.42,150.89h15.37v-5.21h-9.41C28.33,147.73,26.42,150.89,26.42,150.89z" class="st16" style="fill:#fff"/><path d="M41.79,145.71v5.18h-3.87h-0.12H26.42c-0.29,0.43-0.35,0.95-0.35,1.62c-0.01-0.03,49.46-0.01,49.46-0.01 v-6.79H41.79z" class="st14" style="fill:#8d4c98"/><path d="M41.79,143.97c0,0,0,0-2.05,0c-2.97,0-5.41,0.73-7.36,1.71h9.41h33.74v-1.71H41.79z" class="st13" style="fill:#742e86"/></g><path d="M 66.449997 147.5 H 73.789997 V 150.73 H 66.449997 V 147.5 Z" class="st15" style="fill:#fddfc2"/><path d="M 56.139999 147.5 H 63.48 V 150.73 H 56.139999 V 147.5 Z" class="st15" style="fill:#fddfc2"/><path d="M 45.830002 147.5 H 53.170002 V 150.73 H 45.830002 V 147.5 Z" class="st15" style="fill:#fddfc2"/><g><path d="M166.8,156.12c0,0.7,0.56,1.26,1.26,1.26s1.26-0.57,1.26-1.26c0-0.7-0.57-1.26-1.26-1.26 S166.8,155.43,166.8,156.12z" class="st12" style="fill:#5a5959"/><path d="M166.59,156.12c0-0.82,0.66-1.48,1.48-1.48c0.82,0,1.48,0.66,1.48,1.48c0,0.82-0.66,1.48-1.48,1.48 C167.25,157.61,166.59,156.94,166.59,156.12z M167.02,156.12c0,0.58,0.47,1.05,1.05,1.05s1.05-0.47,1.05-1.05 c0-0.58-0.47-1.05-1.05-1.05S167.02,155.55,167.02,156.12z" class="st12" style="fill:#5a5959"/></g><g><path d="M161.1,156.12c0,0.7,0.56,1.26,1.26,1.26s1.26-0.57,1.26-1.26c0-0.7-0.57-1.26-1.26-1.26 S161.1,155.43,161.1,156.12z" class="st12" style="fill:#5a5959"/><path d="M160.89,156.12c0-0.82,0.66-1.48,1.48-1.48c0.82,0,1.48,0.66,1.48,1.48c0,0.82-0.67,1.48-1.48,1.48 C161.55,157.61,160.89,156.94,160.89,156.12z M161.32,156.12c0,0.58,0.47,1.05,1.05,1.05c0.58,0,1.05-0.47,1.05-1.05 c0-0.58-0.47-1.05-1.05-1.05C161.79,155.08,161.32,155.55,161.32,156.12z" class="st12" style="fill:#5a5959"/></g><g><path d="M151.84,156.12c0,0.7,0.57,1.26,1.26,1.26c0.7,0,1.26-0.57,1.26-1.26c0-0.7-0.56-1.26-1.26-1.26 C152.4,154.86,151.84,155.43,151.84,156.12z" class="st12" style="fill:#5a5959"/><path d="M151.62,156.12c0-0.82,0.66-1.48,1.48-1.48c0.82,0,1.48,0.66,1.48,1.48c0,0.82-0.66,1.48-1.48,1.48 C152.28,157.61,151.62,156.94,151.62,156.12z M152.05,156.12c0,0.58,0.47,1.05,1.05,1.05c0.58,0,1.05-0.47,1.05-1.05 c0-0.58-0.47-1.05-1.05-1.05C152.52,155.08,152.05,155.55,152.05,156.12z" class="st12" style="fill:#5a5959"/></g><g><path d="M146.14,156.12c0,0.7,0.57,1.26,1.26,1.26c0.7,0,1.26-0.57,1.26-1.26c0-0.7-0.57-1.26-1.26-1.26 C146.7,154.86,146.14,155.43,146.14,156.12z" class="st12" style="fill:#5a5959"/><path d="M145.92,156.12c0-0.82,0.66-1.48,1.48-1.48c0.82,0,1.48,0.66,1.48,1.48c0,0.82-0.66,1.48-1.48,1.48 C146.58,157.61,145.92,156.94,145.92,156.12z M146.35,156.12c0,0.58,0.47,1.05,1.05,1.05c0.58,0,1.05-0.47,1.05-1.05 c0-0.58-0.47-1.05-1.05-1.05C146.82,155.08,146.35,155.55,146.35,156.12z" class="st12" style="fill:#5a5959"/></g><g><path d="M136.31,156.12c0,0.7,0.56,1.26,1.26,1.26c0.7,0,1.26-0.57,1.26-1.26c0-0.7-0.56-1.26-1.26-1.26 C136.88,154.86,136.31,155.43,136.31,156.12z" class="st12" style="fill:#5a5959"/><path d="M136.09,156.12c0-0.82,0.66-1.48,1.48-1.48c0.82,0,1.48,0.66,1.48,1.48c0,0.82-0.66,1.48-1.48,1.48 C136.76,157.61,136.09,156.94,136.09,156.12z M136.53,156.12c0,0.58,0.47,1.05,1.05,1.05c0.58,0,1.05-0.47,1.05-1.05 c0-0.58-0.47-1.05-1.05-1.05C137,155.08,136.53,155.55,136.53,156.12z" class="st12" style="fill:#5a5959"/></g><g><path d="M130.61,156.12c0,0.7,0.56,1.26,1.26,1.26c0.7,0,1.26-0.57,1.26-1.26c0-0.7-0.57-1.26-1.26-1.26 C131.18,154.86,130.61,155.43,130.61,156.12z" class="st12" style="fill:#5a5959"/><path d="M130.4,156.12c0-0.82,0.66-1.48,1.48-1.48c0.82,0,1.48,0.66,1.48,1.48c0,0.82-0.67,1.48-1.48,1.48 C131.06,157.61,130.4,156.94,130.4,156.12z M130.83,156.12c0,0.58,0.47,1.05,1.05,1.05c0.58,0,1.05-0.47,1.05-1.05 c0-0.58-0.47-1.05-1.05-1.05C131.3,155.08,130.83,155.55,130.83,156.12z" class="st12" style="fill:#5a5959"/></g><path d="M174.97,152.74L174.97,152.74c-0.09,1.15-0.41,1.96-2.23,1.96h-47.21v-2.2h49.45 C174.97,152.5,174.98,152.59,174.97,152.74z" class="st13" style="fill:#742e86"/><g><path d="M174.63,150.89h-15.37v-5.21h9.41C172.73,147.73,174.63,150.89,174.63,150.89z" class="st16" style="fill:#fff"/><path d="M174.63,150.89h-11.39h-0.11h-3.87v-5.18h-33.74v6.79c0,0,49.47-0.02,49.46,0.01 C174.98,151.84,174.92,151.32,174.63,150.89z" class="st14" style="fill:#8d4c98"/><path d="M159.26,143.97c0,0,0,0,2.05,0c2.97,0,5.41,0.73,7.36,1.71h-9.41h-33.74v-1.71H159.26z" class="st13" style="fill:#742e86"/></g><path d="M 127.269997 147.5 H 134.609997 V 150.73 H 127.269997 V 147.5 Z" class="st15" style="fill:#fddfc2"/><path d="M 137.570007 147.5 H 144.910007 V 150.73 H 137.570007 V 147.5 Z" class="st15" style="fill:#fddfc2"/><path d="M 147.880005 147.5 H 155.220005 V 150.73 H 147.880005 V 147.5 Z" class="st15" style="fill:#fddfc2"/></g><g><path d="M108.84,185.07l2.06,0.05l-3.27-7.62h1.61l-2.74-6.6l0.99,0l-2.11-5.43l0.94,0.01l-1.79-5.07l0.95-0.02 l-1.86-5.66l0.75-0.02c-1.56-4.21-2.51-11-2.51-11s0,0,0,0c0,0,0,0,0,0s-0.95,6.79-2.51,11l0.75,0.02l-1.86,5.66l0.95,0.02 l-1.79,5.07l0.94-0.01l-2.11,5.43l0.99,0l-2.74,6.6h1.61l-3.27,7.62l2.06-0.05l-4.14,9.28h11.11h11.11L108.84,185.07z" class="st9" style="fill:#42245e"/><path d="M102.52,154.64l1.32,5.9l-0.95-0.13l1.31,5.31l-0.93-0.15l1.58,5.71l-0.99-0.15l2.11,6.97l-1.6-0.24 l2.53,8.06l-2.04-0.36l2.89,8.8h5.34l-4.14-9.28l2.06,0.05l-3.27-7.62h1.61l-2.74-6.6l0.99,0l-2.11-5.43l0.94,0.01l-1.79-5.07 l0.95-0.02l-1.86-5.66l0.75-0.02c-1.56-4.21-2.51-11-2.51-11s0,0,0,0c0,0,0,0,0,0s-0.04,0.28-0.11,0.75 c0.13,2.08,0.52,6.89,1.4,10.27L102.52,154.64z" class="st10" style="fill:#4f2775"/></g><g><g><g><path d="M257.91,200.06L257.91,200.06h0.1l8.15,4.72l1.36,0h0.1l7.03,4.09l0.93,0l5.86,3.36l0.78,0l0,0l0.11,0 l5.58,3.14l0.94,0.01l6.3,3.5l0.77,0.01c4.47,2.61,13.2,6.81,13.2,6.81s0,0,0,0c0,0,0,0,0,0s-0.22-0.09-0.6-0.24 c0.3,0.15,0.49,0.24,0.49,0.24s0,0,0,0c0,0,0,0,0,0s-10.63-4.21-18.16-6.81l0.71-0.01l-9.83-3.5l0.9-0.01l-8.89-3.14l0.9,0 l-9.63-3.37l0.92,0l-11.78-4.09l1.46,0l-13.57-4.72l1.88,0.03l-16.48-5.75h9.39h4.97h4.42h0.1l9.96,5.74L257.91,200.06z" class="st17" style="fill:#312247"/></g><g><path d="M137.19,192.64L137.19,192.64h0.07l3.1,3.31l0.96,0l0.07,0l2.69,2.86l0.65,0l2.28,2.36l0.54,0l0,0l0.07,0 l2.22,2.2l0.65,0.01l2.54,2.45l0.52,0.01c1.75,1.83,5.62,4.77,5.62,4.77l0,0l0,0c0,0-0.11-0.06-0.29-0.17 c0.13,0.1,0.21,0.17,0.21,0.17l0,0l0,0c0,0-5.17-2.95-9.03-4.77l0.5-0.01l-5-2.46l0.63-0.01l-4.54-2.2l0.62,0l-4.95-2.36 l0.64,0l-6.09-2.86l1.03,0l-7.04-3.31l1.32,0.02l-8.58-4.03l6.78,0l3.59,0l3.19,0h0.07l3.77,4.03L137.19,192.64z" class="st17" style="fill:#312247"/></g><g><path d="M120.59,201.1L120.59,201.1h0.12l4.46,5.58l1.63,0l0.12,0l3.81,4.83l1.11,0l3.2,3.98l0.94,0l0,0l0.13,0 l3.11,3.72l1.13,0.01l3.56,4.14l0.92,0.02c2.38,3.08,8.05,8.05,8.05,8.05s0,0,0,0c0,0,0,0,0,0s-0.17-0.1-0.45-0.28 c0.19,0.17,0.31,0.28,0.31,0.28s0,0,0,0c0,0,0,0,0,0s-7.98-4.97-14.06-8.06l0.88-0.02l-7.82-4.14l1.1-0.01l-7.09-3.72l1.08,0 l-7.72-3.98l1.11,0l-9.45-4.83l1.75,0l-10.86-5.58l2.21,0.04l-13.13-6.79h11.11h5.89h5.23h0.11l5.52,6.79L120.59,201.1z" class="st17" style="fill:#312247"/></g><path d="M336.03,220.88v-1.53c-0.31-0.16-0.61-0.31-0.9-0.45l-0.77-0.01l-7.11-3.5l-0.95-0.01l-6.31-3.14l-0.11,0 l0,0l-0.78,0l-6.63-3.37l-0.93,0l-7.98-4.09h-0.1l-1.36,0l-9.24-4.72l-0.1,0l0,0l-1.63,0.03l-11.29-5.75h-0.1h-4.42h-4.97h-9.39 l17.81,5.75l-1.89-0.03l14.66,4.72l-1.46,0l12.72,4.09l-0.92,0l10.41,3.37l-0.9,0l9.61,3.14l-0.9,0.01l10.64,3.5l-0.71,0.01 C331.93,219.5,333.98,220.18,336.03,220.88z" class="st17" style="fill:#312247"/><path d="M 336.0299987792969 211.17999267578125 L 336.0299987792969 206.69000244140625 L 335.6499938964844 206.69000244140625 L 323.7200012207031 201.11000061035156 L 323.6099853515625 201.11000061035156 L 323.6000061035156 201.11000061035156 L 321.6700134277344 201.13999938964844 L 307.05999755859375 194.33999633789062 L 306.95001220703125 194.33999633789062 L 301.7200012207031 194.33999633789062 L 295.8399963378906 194.33999633789062 L 284.7200012207031 194.33999633789062 L 306.95001220703125 201.14999389648438 L 304.69000244140625 201.11000061035156 L 323.010009765625 206.69000244140625 L 321.260009765625 206.69000244140625 Z" class="st17" style="fill:#312247"/></g></g><g><g><path d="M283.77,66.08c-0.26,0-0.48,0.22-0.48,0.48c0,0.27,0.21,0.48,0.48,0.48c0.27,0,0.48-0.21,0.48-0.48 C284.25,66.29,284.03,66.08,283.77,66.08z" class="st16" style="fill:#fff"/><path d="M237.18,64.21c0.16,0,0.28-0.13,0.28-0.28c0-0.16-0.13-0.29-0.28-0.29c-0.16,0-0.28,0.13-0.28,0.29 C236.9,64.08,237.02,64.21,237.18,64.21z" class="st16" style="fill:#fff"/><path d="M249.03,92.56c0.16,0,0.28-0.13,0.28-0.28c0-0.16-0.13-0.29-0.28-0.29c-0.16,0-0.29,0.13-0.29,0.29 C248.75,92.43,248.87,92.56,249.03,92.56z" class="st16" style="fill:#fff"/><path d="M306.7,80.09c-0.16,0-0.28,0.13-0.28,0.29c0,0.16,0.13,0.28,0.28,0.28c0.16,0,0.29-0.13,0.29-0.28 C306.98,80.22,306.86,80.09,306.7,80.09z" class="st16" style="fill:#fff"/><path d="M323.68,44.01c0.16,0,0.28-0.13,0.28-0.28c0-0.16-0.13-0.29-0.28-0.29s-0.28,0.13-0.28,0.29 C323.4,43.88,323.53,44.01,323.68,44.01z" class="st16" style="fill:#fff"/><path d="M322.02,64.32c-0.26,0-0.48,0.21-0.48,0.48c0,0.26,0.22,0.48,0.48,0.48c0.26,0,0.48-0.21,0.48-0.48 C322.5,64.53,322.28,64.32,322.02,64.32z" class="st18" style="opacity:.5;fill:#fff"/><path d="M307.08,62.5c-0.41,0-0.73,0.33-0.73,0.74c0,0.41,0.33,0.73,0.73,0.73c0.41,0,0.74-0.33,0.74-0.73 C307.82,62.83,307.49,62.5,307.08,62.5z" class="st19" style="opacity:.1;fill:#fff"/><path d="M280.22,101.26c-0.41,0-0.73,0.33-0.73,0.73s0.33,0.73,0.73,0.73c0.41,0,0.73-0.33,0.73-0.73 S280.62,101.26,280.22,101.26z" class="st20" style="opacity:.25;fill:#fff"/><path d="M327.86,60.39c0.27,0,0.48-0.21,0.48-0.48c0-0.27-0.21-0.48-0.48-0.48c-0.27,0-0.48,0.21-0.48,0.48 C327.38,60.17,327.59,60.39,327.86,60.39z" class="st16" style="fill:#fff"/><path d="M300.7,94.42c-0.26,0-0.48,0.21-0.48,0.48s0.22,0.48,0.48,0.48c0.27,0,0.48-0.21,0.48-0.48 S300.97,94.42,300.7,94.42z" class="st18" style="opacity:.5;fill:#fff"/><path d="M276.76,95.31c-0.41,0-0.74,0.33-0.74,0.73s0.33,0.73,0.74,0.73c0.41,0,0.73-0.33,0.73-0.73 S277.17,95.31,276.76,95.31z" class="st16" style="fill:#fff"/><path d="M294.42,78.62c-0.41,0-0.73,0.33-0.73,0.73c0,0.41,0.33,0.73,0.73,0.73c0.41,0,0.73-0.33,0.73-0.73 C295.15,78.95,294.82,78.62,294.42,78.62z" class="st19" style="opacity:.1;fill:#fff"/><path d="M331.41,25.2c0.41,0,0.73-0.33,0.73-0.73c0-0.41-0.33-0.73-0.73-0.73s-0.74,0.33-0.74,0.73 C330.67,24.87,331,25.2,331.41,25.2z" class="st20" style="opacity:.25;fill:#fff"/><path d="M206.07,63.01c-0.27,0-0.48,0.21-0.48,0.48s0.21,0.48,0.48,0.48c0.27,0,0.48-0.21,0.48-0.48 S206.34,63.01,206.07,63.01z" class="st16" style="fill:#fff"/><path d="M202.48,58.43c-0.27,0-0.48,0.22-0.48,0.48c0,0.27,0.21,0.48,0.48,0.48s0.48-0.21,0.48-0.48 C202.96,58.65,202.74,58.43,202.48,58.43z" class="st18" style="opacity:.5;fill:#fff"/><path d="M234.11,83.54c0.41,0,0.74-0.33,0.74-0.73c0-0.41-0.33-0.74-0.74-0.74c-0.41,0-0.73,0.33-0.73,0.74 C233.38,83.21,233.71,83.54,234.11,83.54z" class="st19" style="opacity:.1;fill:#fff"/><path d="M323.54,97.55c-0.41,0-0.73,0.33-0.73,0.74c0,0.41,0.33,0.73,0.73,0.73c0.41,0,0.74-0.33,0.74-0.73 C324.27,97.88,323.94,97.55,323.54,97.55z" class="st20" style="opacity:.25;fill:#fff"/><path d="M258.58,33.97c-0.27,0-0.48,0.21-0.48,0.48s0.21,0.48,0.48,0.48c0.26,0,0.48-0.21,0.48-0.48 S258.84,33.97,258.58,33.97z" class="st16" style="fill:#fff"/><path d="M302.62,46.44c-0.26,0-0.48,0.21-0.48,0.48c0,0.27,0.22,0.48,0.48,0.48c0.27,0,0.48-0.21,0.48-0.48 C303.1,46.66,302.89,46.44,302.62,46.44z" class="st18" style="opacity:.5;fill:#fff"/><path d="M278.68,47.34c-0.41,0-0.74,0.33-0.74,0.73c0,0.41,0.33,0.73,0.74,0.73c0.41,0,0.73-0.33,0.73-0.73 C279.42,47.67,279.09,47.34,278.68,47.34z" class="st16" style="fill:#fff"/><path d="M281.9,30.39c-0.41,0-0.73,0.33-0.73,0.73c0,0.41,0.33,0.73,0.73,0.73c0.41,0,0.73-0.33,0.73-0.73 C282.63,30.72,282.3,30.39,281.9,30.39z" class="st19" style="opacity:.1;fill:#fff"/><path d="M329.49,73.18c0.41,0,0.73-0.33,0.73-0.74c0-0.41-0.33-0.73-0.73-0.73c-0.41,0-0.73,0.33-0.73,0.73 C328.75,72.85,329.08,73.18,329.49,73.18z" class="st20" style="opacity:.25;fill:#fff"/><path d="M325.94,93.65c-0.27,0-0.48,0.21-0.48,0.48c0,0.26,0.21,0.48,0.48,0.48c0.26,0,0.48-0.22,0.48-0.48 C326.42,93.87,326.2,93.65,325.94,93.65z" class="st16" style="fill:#fff"/><path d="M201.32,89.71c-0.26,0-0.48,0.21-0.48,0.48c0,0.27,0.22,0.48,0.48,0.48c0.27,0,0.48-0.21,0.48-0.48 C201.8,89.93,201.59,89.71,201.32,89.71z" class="st18" style="opacity:.5;fill:#fff"/><path d="M 239.209996 34.580002 A 0.73 0.73 0 0 1 238.479996 35.310002 A 0.73 0.73 0 0 1 237.749996 34.580002 A 0.73 0.73 0 0 1 238.479996 33.850002 A 0.73 0.73 0 0 1 239.209996 34.580002 Z" class="st16" style="fill:#fff"/><path d="M235.26,52.26c0.41,0,0.73-0.33,0.73-0.73c0-0.41-0.33-0.73-0.73-0.73c-0.41,0-0.73,0.33-0.73,0.73 C234.53,51.93,234.86,52.26,235.26,52.26z" class="st19" style="opacity:.1;fill:#fff"/><path d="M262.13,13.5c0.41,0,0.73-0.33,0.73-0.74c0-0.41-0.33-0.73-0.73-0.73c-0.41,0-0.73,0.33-0.73,0.73 C261.39,13.17,261.72,13.5,262.13,13.5z" class="st20" style="opacity:.25;fill:#fff"/><path d="M19.93,88.82c0.16,0,0.29-0.13,0.29-0.28c0-0.16-0.13-0.29-0.29-0.29c-0.16,0-0.28,0.13-0.28,0.29 C19.65,88.69,19.77,88.82,19.93,88.82z" class="st16" style="fill:#fff"/><path d="M94.58,40.27c0.16,0,0.28-0.13,0.28-0.29c0-0.16-0.13-0.28-0.28-0.28c-0.16,0-0.29,0.13-0.29,0.28 C94.3,40.14,94.42,40.27,94.58,40.27z" class="st16" style="fill:#fff"/><path d="M27.61,60.04c0.27,0,0.48-0.21,0.48-0.48c0-0.26-0.21-0.48-0.48-0.48c-0.27,0-0.48,0.21-0.48,0.48 C27.13,59.82,27.34,60.04,27.61,60.04z" class="st18" style="opacity:.5;fill:#fff"/><path d="M75.2,37.33c0.41,0,0.73-0.33,0.73-0.73c0-0.41-0.33-0.73-0.73-0.73c-0.41,0-0.73,0.33-0.73,0.73 C74.46,37,74.79,37.33,75.2,37.33z" class="st20" style="opacity:.25;fill:#fff"/><path d="M98.76,56.65c0.27,0,0.48-0.22,0.48-0.48c0-0.27-0.21-0.48-0.48-0.48c-0.27,0-0.48,0.21-0.48,0.48 C98.28,56.43,98.49,56.65,98.76,56.65z" class="st16" style="fill:#fff"/><path d="M78.65,43.28c0.41,0,0.73-0.33,0.73-0.73c0-0.41-0.33-0.73-0.73-0.73c-0.41,0-0.73,0.33-0.73,0.73 C77.92,42.95,78.25,43.28,78.65,43.28z" class="st16" style="fill:#fff"/><path d="M 103.039998 20.73 A 0.73 0.73 0 0 1 102.309998 21.46 A 0.73 0.73 0 0 1 101.579998 20.73 A 0.73 0.73 0 0 1 102.309998 20 A 0.73 0.73 0 0 1 103.039998 20.73 Z" class="st20" style="opacity:.25;fill:#fff"/><path d="M 28.81 75.739998 A 0.48 0.48 0 0 1 28.33 76.219998 A 0.48 0.48 0 0 1 27.85 75.739998 A 0.48 0.48 0 0 1 28.33 75.259998 A 0.48 0.48 0 0 1 28.81 75.739998 Z" class="st16" style="fill:#fff"/><path d="M31.88,41.04c0.41,0,0.73-0.33,0.73-0.73c0-0.41-0.33-0.74-0.73-0.74c-0.41,0-0.73,0.33-0.73,0.74 C31.14,40.71,31.47,41.04,31.88,41.04z" class="st20" style="opacity:.25;fill:#fff"/><path d="M96.84,104.62c0.27,0,0.48-0.21,0.48-0.48c0-0.26-0.21-0.48-0.48-0.48c-0.27,0-0.48,0.21-0.48,0.48 C96.36,104.41,96.57,104.62,96.84,104.62z" class="st16" style="fill:#fff"/><path d="M39.18,13.22c0.27,0,0.48-0.21,0.48-0.48c0-0.26-0.21-0.48-0.48-0.48c-0.26,0-0.48,0.21-0.48,0.48 C38.7,13.01,38.91,13.22,39.18,13.22z" class="st18" style="opacity:.5;fill:#fff"/><path d="M63.12,12.33c0.41,0,0.73-0.33,0.73-0.74c0-0.41-0.33-0.73-0.73-0.73s-0.73,0.33-0.73,0.73 C62.38,12,62.71,12.33,63.12,12.33z" class="st16" style="fill:#fff"/><path d="M59.9,29.28c0.41,0,0.73-0.33,0.73-0.73c0-0.41-0.33-0.73-0.73-0.73c-0.41,0-0.74,0.33-0.74,0.73 C59.17,28.95,59.5,29.28,59.9,29.28z" class="st19" style="opacity:.1;fill:#fff"/><path d="M100.39,69.44c0.41,0,0.73-0.33,0.73-0.74s-0.33-0.73-0.73-0.73c-0.41,0-0.73,0.33-0.73,0.73 S99.98,69.44,100.39,69.44z" class="st20" style="opacity:.25;fill:#fff"/><path d="M29.48,44.94c0.26,0,0.48-0.21,0.48-0.48c0-0.26-0.21-0.48-0.48-0.48c-0.27,0-0.48,0.21-0.48,0.48 C29,44.73,29.21,44.94,29.48,44.94z" class="st16" style="fill:#fff"/><path d="M33.03,9.76c0.41,0,0.73-0.33,0.73-0.74c0-0.41-0.33-0.73-0.73-0.73c-0.41,0-0.73,0.33-0.73,0.73 C32.29,9.43,32.62,9.76,33.03,9.76z" class="st20" style="opacity:.25;fill:#fff"/><path d="M135.99,65.68c-0.26-0.07-0.41-0.33-0.34-0.59c0.07-0.26,0.33-0.41,0.59-0.34 c0.26,0.07,0.41,0.33,0.34,0.59C136.51,65.59,136.25,65.75,135.99,65.68z" class="st16" style="fill:#fff"/><path d="M215.34,55.62c0.15,0.04,0.24,0.2,0.2,0.35c-0.04,0.15-0.2,0.24-0.35,0.2c-0.15-0.04-0.24-0.2-0.2-0.35 C215.03,55.67,215.18,55.58,215.34,55.62z" class="st16" style="fill:#fff"/><path d="M181.81,94.68c-0.15-0.04-0.24-0.2-0.2-0.35c0.04-0.15,0.2-0.24,0.35-0.2c0.15,0.04,0.24,0.2,0.2,0.35 C182.12,94.63,181.96,94.72,181.81,94.68z" class="st16" style="fill:#fff"/><path d="M161.75,58c-0.15-0.04-0.24-0.2-0.2-0.35c0.04-0.15,0.2-0.24,0.35-0.2c0.15,0.04,0.24,0.2,0.2,0.35 C162.05,57.95,161.9,58.04,161.75,58z" class="st16" style="fill:#fff"/><path d="M122.07,28.64c-0.15-0.04-0.24-0.2-0.2-0.35c0.04-0.15,0.2-0.24,0.35-0.2c0.15,0.04,0.24,0.2,0.2,0.35 C122.38,28.59,122.23,28.68,122.07,28.64z" class="st16" style="fill:#fff"/><path d="M181.76,64.89c-0.26-0.07-0.41-0.33-0.34-0.59c0.07-0.26,0.33-0.41,0.59-0.34 c0.26,0.07,0.41,0.33,0.34,0.59C182.28,64.81,182.01,64.96,181.76,64.89z" class="st18" style="opacity:.5;fill:#fff"/><path d="M157.61,75.11c-0.39-0.1-0.63-0.51-0.52-0.9c0.1-0.39,0.51-0.63,0.9-0.52c0.39,0.1,0.63,0.51,0.52,0.9 C158.41,74.98,158.01,75.21,157.61,75.11z" class="st19" style="opacity:.1;fill:#fff"/><path d="M141.56,30.76c-0.39-0.1-0.63-0.51-0.52-0.9c0.1-0.39,0.51-0.63,0.9-0.52c0.39,0.1,0.63,0.51,0.52,0.9 C142.36,30.63,141.96,30.86,141.56,30.76z" class="st20" style="opacity:.25;fill:#fff"/><path d="M113.85,43.4c-0.26-0.07-0.41-0.33-0.34-0.59c0.07-0.26,0.33-0.41,0.59-0.34 c0.26,0.07,0.41,0.33,0.34,0.59C114.37,43.32,114.1,43.47,113.85,43.4z" class="st16" style="fill:#fff"/><path d="M159.61,42.62c-0.26-0.07-0.41-0.33-0.34-0.59c0.07-0.26,0.33-0.41,0.59-0.34 c0.26,0.07,0.41,0.33,0.34,0.59C160.13,42.53,159.87,42.69,159.61,42.62z" class="st18" style="opacity:.5;fill:#fff"/><path d="M136.7,35.62c-0.39-0.1-0.63-0.51-0.52-0.9c0.1-0.39,0.51-0.63,0.9-0.52c0.39,0.1,0.63,0.51,0.52,0.9 C137.5,35.49,137.09,35.73,136.7,35.62z" class="st16" style="fill:#fff"/><path d="M149.5,56.28c-0.39-0.1-0.63-0.51-0.52-0.9c0.1-0.39,0.51-0.63,0.9-0.52c0.39,0.1,0.63,0.51,0.52,0.9 C150.29,56.15,149.89,56.39,149.5,56.28z" class="st19" style="opacity:.1;fill:#fff"/><path d="M119.42,8.48c-0.39-0.1-0.63-0.51-0.52-0.9c0.1-0.39,0.51-0.63,0.9-0.52c0.39,0.1,0.63,0.51,0.52,0.9 C120.21,8.35,119.81,8.59,119.42,8.48z" class="st20" style="opacity:.25;fill:#fff"/><path d="M144,88.53c-0.26-0.07-0.41-0.33-0.34-0.59c0.07-0.26,0.33-0.41,0.59-0.34c0.26,0.07,0.41,0.33,0.34,0.59 C144.51,88.45,144.25,88.6,144,88.53z" class="st16" style="fill:#fff"/><path d="M198.6,35.26c0.26,0.07,0.41,0.33,0.34,0.59c-0.07,0.26-0.33,0.41-0.59,0.34 c-0.26-0.07-0.41-0.33-0.34-0.59C198.08,35.35,198.34,35.2,198.6,35.26z" class="st18" style="opacity:.5;fill:#fff"/><path d="M217.32,36.14c0.39,0.1,0.63,0.51,0.52,0.9c-0.1,0.39-0.51,0.63-0.9,0.52c-0.39-0.1-0.63-0.51-0.52-0.9 C216.52,36.27,216.92,36.04,217.32,36.14z" class="st19" style="opacity:.1;fill:#fff"/><path d="M182.49,45.43c-0.39-0.1-0.63-0.51-0.52-0.9c0.1-0.39,0.51-0.63,0.9-0.52c0.39,0.1,0.63,0.51,0.52,0.9 C183.29,45.3,182.89,45.53,182.49,45.43z" class="st20" style="opacity:.25;fill:#fff"/><path d="M103.42,90.27c-0.26-0.07-0.41-0.33-0.34-0.59s0.33-0.41,0.59-0.34c0.26,0.07,0.41,0.33,0.34,0.59 C103.94,90.19,103.68,90.34,103.42,90.27z" class="st16" style="fill:#fff"/><path d="M130.43,67.04c-0.26-0.07-0.41-0.33-0.34-0.59c0.07-0.26,0.33-0.41,0.59-0.34s0.41,0.33,0.34,0.59 C130.95,66.96,130.69,67.11,130.43,67.04z" class="st18" style="opacity:.5;fill:#fff"/><path d="M126.28,82.49c-0.39-0.1-0.63-0.51-0.52-0.9c0.1-0.39,0.51-0.63,0.9-0.52c0.39,0.1,0.63,0.51,0.52,0.9 C127.07,82.36,126.67,82.6,126.28,82.49z" class="st16" style="fill:#fff"/><path d="M125.05,99.7c-0.39-0.1-0.63-0.51-0.52-0.9c0.1-0.39,0.51-0.63,0.9-0.52c0.39,0.1,0.63,0.51,0.52,0.9 C125.84,99.57,125.44,99.81,125.05,99.7z" class="st19" style="opacity:.1;fill:#fff"/><path d="M109,55.35c-0.39-0.1-0.63-0.51-0.52-0.9c0.1-0.39,0.51-0.63,0.9-0.52c0.39,0.1,0.63,0.51,0.52,0.9 C109.79,55.22,109.39,55.46,109,55.35z" class="st20" style="opacity:.25;fill:#fff"/><path d="M183.81,49.82c-0.26-0.07-0.41-0.33-0.34-0.59c0.07-0.26,0.33-0.41,0.59-0.34 c0.26,0.07,0.41,0.33,0.34,0.59C184.33,49.73,184.07,49.89,183.81,49.82z" class="st16" style="fill:#fff"/><path d="M229.58,49.03c-0.26-0.07-0.41-0.33-0.34-0.59c0.07-0.26,0.33-0.41,0.59-0.34 c0.26,0.07,0.41,0.33,0.34,0.59C230.1,48.95,229.84,49.1,229.58,49.03z" class="st18" style="opacity:.5;fill:#fff"/><path d="M182.5,30.97c-0.39-0.1-0.63-0.51-0.52-0.9c0.1-0.39,0.51-0.63,0.9-0.52c0.39,0.1,0.63,0.51,0.52,0.9 C183.3,30.84,182.89,31.08,182.5,30.97z" class="st16" style="fill:#fff"/><path d="M210.42,66.67c0.39,0.1,0.63,0.51,0.52,0.9c-0.1,0.39-0.51,0.63-0.9,0.52c-0.39-0.1-0.63-0.51-0.52-0.9 C209.63,66.8,210.03,66.57,210.42,66.67z" class="st19" style="opacity:.1;fill:#fff"/><path d="M189.39,14.9c-0.39-0.1-0.63-0.51-0.52-0.9c0.1-0.39,0.51-0.63,0.9-0.52c0.39,0.1,0.63,0.51,0.52,0.9 C190.18,14.77,189.78,15,189.39,14.9z" class="st20" style="opacity:.25;fill:#fff"/></g><g><path d="M97.72,45.7c-0.16,0-0.28-0.13-0.28-0.28s0.13-0.28,0.28-0.28c0.16,0,0.29,0.13,0.29,0.28 S97.88,45.7,97.72,45.7z" class="st16" style="fill:#fff"/><path d="M85.87,74.06c-0.16,0-0.29-0.13-0.29-0.29c0-0.16,0.13-0.28,0.29-0.28c0.16,0,0.29,0.13,0.29,0.28 C86.16,73.93,86.03,74.06,85.87,74.06z" class="st16" style="fill:#fff"/><path d="M11.22,25.5c-0.16,0-0.28-0.13-0.28-0.28c0-0.16,0.13-0.29,0.28-0.29c0.16,0,0.29,0.13,0.29,0.29 C11.51,25.38,11.38,25.5,11.22,25.5z" class="st16" style="fill:#fff"/><path d="M12.89,45.82c0.26,0,0.48,0.21,0.48,0.48c0,0.27-0.21,0.48-0.48,0.48c-0.27,0-0.48-0.21-0.48-0.48 C12.41,46.03,12.62,45.82,12.89,45.82z" class="st18" style="opacity:.5;fill:#fff"/><path d="M 55.419999 83.5 A 0.73 0.73 0 0 1 54.689999 84.23 A 0.73 0.73 0 0 1 53.959999 83.5 A 0.73 0.73 0 0 1 54.689999 82.77 A 0.73 0.73 0 0 1 55.419999 83.5 Z" class="st20" style="opacity:.25;fill:#fff"/><path d="M7.05,41.89c-0.26,0-0.48-0.21-0.48-0.48c0-0.26,0.22-0.48,0.48-0.48c0.27,0,0.48,0.21,0.48,0.48 C7.53,41.67,7.31,41.89,7.05,41.89z" class="st16" style="fill:#fff"/><path d="M34.2,75.92c0.26,0,0.48,0.21,0.48,0.48c0,0.27-0.21,0.48-0.48,0.48c-0.27,0-0.48-0.21-0.48-0.48 C33.72,76.13,33.94,75.92,34.2,75.92z" class="st18" style="opacity:.5;fill:#fff"/><path d="M58.14,76.81c0.41,0,0.73,0.33,0.73,0.73c0,0.41-0.33,0.73-0.73,0.73s-0.73-0.33-0.73-0.73 C57.41,77.14,57.74,76.81,58.14,76.81z" class="st16" style="fill:#fff"/><path d="M3.5,6.7c-0.41,0-0.73-0.33-0.73-0.73c0-0.41,0.33-0.73,0.73-0.73c0.41,0,0.73,0.33,0.73,0.73 C4.23,6.37,3.91,6.7,3.5,6.7z" class="st20" style="opacity:.25;fill:#fff"/><path d="M128.83,44.5c0.26,0,0.48,0.21,0.48,0.48c0,0.26-0.21,0.48-0.48,0.48c-0.27,0-0.48-0.21-0.48-0.48 C128.35,44.72,128.57,44.5,128.83,44.5z" class="st16" style="fill:#fff"/><path d="M 132.909993 40.41 A 0.48 0.48 0 0 1 132.429993 40.89 A 0.48 0.48 0 0 1 131.949993 40.41 A 0.48 0.48 0 0 1 132.429993 39.93 A 0.48 0.48 0 0 1 132.909993 40.41 Z" class="st18" style="opacity:.5;fill:#fff"/><path d="M100.79,65.04c-0.41,0-0.73-0.33-0.73-0.73c0-0.41,0.33-0.73,0.73-0.73c0.41,0,0.73,0.33,0.73,0.73 C101.53,64.71,101.2,65.04,100.79,65.04z" class="st19" style="opacity:.1;fill:#fff"/><path d="M11.37,79.05c0.41,0,0.73,0.33,0.73,0.73c0,0.41-0.33,0.73-0.73,0.73c-0.41,0-0.74-0.33-0.74-0.73 C10.63,79.38,10.96,79.05,11.37,79.05z" class="st20" style="opacity:.25;fill:#fff"/><path d="M76.33,15.47c0.27,0,0.48,0.21,0.48,0.48c0,0.27-0.21,0.48-0.48,0.48s-0.48-0.21-0.48-0.48 C75.85,15.68,76.06,15.47,76.33,15.47z" class="st16" style="fill:#fff"/><path d="M32.28,27.94c0.27,0,0.48,0.21,0.48,0.48c0,0.26-0.21,0.48-0.48,0.48s-0.48-0.21-0.48-0.48 C31.81,28.15,32.02,27.94,32.28,27.94z" class="st18" style="opacity:.5;fill:#fff"/><path d="M56.22,28.84c0.41,0,0.74,0.33,0.74,0.73c0,0.41-0.33,0.74-0.74,0.74c-0.41,0-0.73-0.33-0.73-0.74 C55.49,29.16,55.82,28.84,56.22,28.84z" class="st16" style="fill:#fff"/><path d="M53.01,11.89c0.41,0,0.73,0.33,0.73,0.73c0,0.41-0.33,0.74-0.73,0.74s-0.73-0.33-0.73-0.74 C52.28,12.21,52.6,11.89,53.01,11.89z" class="st19" style="opacity:.1;fill:#fff"/><path d="M5.42,54.68c-0.41,0-0.73-0.33-0.73-0.73c0-0.41,0.33-0.73,0.73-0.73c0.41,0,0.73,0.33,0.73,0.73 C6.15,54.35,5.82,54.68,5.42,54.68z" class="st20" style="opacity:.25;fill:#fff"/><path d="M8.97,75.15c0.27,0,0.48,0.22,0.48,0.48c0,0.27-0.21,0.48-0.48,0.48c-0.27,0-0.48-0.21-0.48-0.48 C8.49,75.36,8.7,75.15,8.97,75.15z" class="st16" style="fill:#fff"/><path d="M133.58,71.21c0.26,0,0.48,0.22,0.48,0.48c0,0.27-0.21,0.48-0.48,0.48c-0.27,0-0.48-0.21-0.48-0.48 C133.1,71.43,133.32,71.21,133.58,71.21z" class="st18" style="opacity:.5;fill:#fff"/><path d="M96.43,16.81c-0.41,0-0.73-0.33-0.73-0.73c0-0.41,0.33-0.74,0.73-0.74c0.41,0,0.73,0.33,0.73,0.74 C97.16,16.48,96.83,16.81,96.43,16.81z" class="st16" style="fill:#fff"/><path d="M99.64,33.76c-0.41,0-0.73-0.33-0.73-0.73c0-0.41,0.33-0.74,0.73-0.74c0.41,0,0.73,0.33,0.73,0.74 C100.38,33.43,100.05,33.76,99.64,33.76z" class="st19" style="opacity:.1;fill:#fff"/><path d="M314.97,70.31c-0.16,0-0.28-0.13-0.28-0.29c0-0.16,0.13-0.28,0.28-0.28s0.28,0.13,0.28,0.28 C315.26,70.19,315.13,70.31,314.97,70.31z" class="st16" style="fill:#fff"/><path d="M240.32,21.76c-0.16,0-0.28-0.13-0.28-0.28c0-0.16,0.13-0.29,0.28-0.29c0.16,0,0.29,0.13,0.29,0.29 C240.61,21.64,240.48,21.76,240.32,21.76z" class="st16" style="fill:#fff"/><path d="M307.3,41.54c-0.27,0-0.48-0.21-0.48-0.48c0-0.27,0.21-0.48,0.48-0.48c0.27,0,0.48,0.21,0.48,0.48 C307.78,41.32,307.56,41.54,307.3,41.54z" class="st18" style="opacity:.5;fill:#fff"/><path d="M259.71,18.82c-0.41,0-0.74-0.33-0.74-0.73c0-0.41,0.33-0.73,0.74-0.73c0.41,0,0.73,0.33,0.73,0.73 C260.44,18.5,260.11,18.82,259.71,18.82z" class="st20" style="opacity:.25;fill:#fff"/><path d="M236.15,38.14c-0.26,0-0.48-0.21-0.48-0.48c0-0.27,0.21-0.48,0.48-0.48c0.27,0,0.48,0.21,0.48,0.48 C236.63,37.93,236.42,38.14,236.15,38.14z" class="st16" style="fill:#fff"/><path d="M256.25,24.77c-0.41,0-0.73-0.33-0.73-0.73c0-0.41,0.33-0.73,0.73-0.73c0.41,0,0.73,0.33,0.73,0.73 C256.99,24.44,256.66,24.77,256.25,24.77z" class="st16" style="fill:#fff"/><path d="M306.58,57.72c-0.27,0-0.48-0.21-0.48-0.48c0-0.26,0.21-0.48,0.48-0.48c0.27,0,0.48,0.22,0.48,0.48 C307.06,57.5,306.84,57.72,306.58,57.72z" class="st16" style="fill:#fff"/><path d="M303.03,22.53c-0.41,0-0.73-0.33-0.73-0.73c0-0.41,0.33-0.73,0.73-0.73c0.41,0,0.73,0.33,0.73,0.73 C303.76,22.2,303.43,22.53,303.03,22.53z" class="st20" style="opacity:.25;fill:#fff"/><path d="M238.07,86.12c-0.26,0-0.48-0.22-0.48-0.48c0-0.27,0.22-0.48,0.48-0.48c0.27,0,0.48,0.21,0.48,0.48 C238.55,85.9,238.33,86.12,238.07,86.12z" class="st16" style="fill:#fff"/><path d="M275,10.77c-0.41,0-0.73-0.33-0.73-0.74c0-0.41,0.33-0.73,0.73-0.73c0.41,0,0.73,0.33,0.73,0.73 C275.74,10.44,275.41,10.77,275,10.77z" class="st19" style="opacity:.1;fill:#fff"/><path d="M 235.250004 50.200001 A 0.73 0.73 0 0 1 234.520004 50.930001 A 0.73 0.73 0 0 1 233.790004 50.200001 A 0.73 0.73 0 0 1 234.520004 49.470001 A 0.73 0.73 0 0 1 235.250004 50.200001 Z" class="st20" style="opacity:.25;fill:#fff"/><path d="M305.43,26.44c-0.27,0-0.48-0.22-0.48-0.48c0-0.27,0.21-0.48,0.48-0.48s0.48,0.21,0.48,0.48 C305.91,26.22,305.69,26.44,305.43,26.44z" class="st16" style="fill:#fff"/><path d="M198.92,47.18c0.26-0.07,0.41-0.33,0.34-0.59c-0.07-0.26-0.33-0.41-0.59-0.34 c-0.26,0.07-0.41,0.33-0.34,0.59C198.4,47.09,198.66,47.24,198.92,47.18z" class="st16" style="fill:#fff"/><path d="M119.57,37.12c-0.15,0.04-0.24,0.2-0.2,0.35c0.04,0.15,0.2,0.24,0.35,0.2c0.15-0.04,0.24-0.2,0.2-0.35 C119.88,37.17,119.72,37.07,119.57,37.12z" class="st16" style="fill:#fff"/><path d="M153.09,76.17c0.15-0.04,0.24-0.2,0.2-0.35c-0.04-0.15-0.2-0.24-0.35-0.2c-0.15,0.04-0.24,0.2-0.2,0.35 C152.79,76.12,152.94,76.21,153.09,76.17z" class="st16" style="fill:#fff"/><path d="M173.16,39.5c0.15-0.04,0.24-0.2,0.2-0.35c-0.04-0.15-0.2-0.24-0.35-0.2c-0.15,0.04-0.24,0.2-0.2,0.35 C172.85,39.45,173.01,39.54,173.16,39.5z" class="st16" style="fill:#fff"/><path d="M212.83,10.13c0.15-0.04,0.24-0.2,0.2-0.35c-0.04-0.15-0.2-0.24-0.35-0.2c-0.15,0.04-0.24,0.2-0.2,0.35 C212.52,10.08,212.68,10.17,212.83,10.13z" class="st16" style="fill:#fff"/><path d="M153.15,46.39c0.26-0.07,0.41-0.33,0.34-0.59c-0.07-0.26-0.33-0.41-0.59-0.34 c-0.26,0.07-0.41,0.33-0.34,0.59C152.63,46.3,152.89,46.46,153.15,46.39z" class="st18" style="opacity:.5;fill:#fff"/><path d="M177.29,56.6c0.39-0.1,0.63-0.51,0.52-0.9c-0.1-0.39-0.51-0.63-0.9-0.52c-0.39,0.1-0.63,0.51-0.52,0.9 C176.5,56.47,176.9,56.71,177.29,56.6z" class="st19" style="opacity:.1;fill:#fff"/><path d="M193.34,12.25c0.39-0.1,0.63-0.51,0.52-0.9c-0.1-0.39-0.51-0.63-0.9-0.52c-0.39,0.1-0.63,0.51-0.52,0.9 C192.55,12.12,192.95,12.36,193.34,12.25z" class="st20" style="opacity:.25;fill:#fff"/><path d="M221.06,24.9c0.26-0.07,0.41-0.33,0.34-0.59c-0.07-0.26-0.33-0.41-0.59-0.34 c-0.26,0.07-0.41,0.33-0.34,0.59C220.54,24.82,220.8,24.97,221.06,24.9z" class="st16" style="fill:#fff"/><path d="M175.29,24.11c0.26-0.07,0.41-0.33,0.34-0.59c-0.07-0.26-0.33-0.41-0.59-0.34 c-0.26,0.07-0.41,0.33-0.34,0.59C174.77,24.03,175.04,24.18,175.29,24.11z" class="st18" style="opacity:.5;fill:#fff"/><path d="M198.2,17.12c0.39-0.1,0.63-0.51,0.52-0.9c-0.1-0.39-0.51-0.63-0.9-0.52c-0.39,0.1-0.63,0.51-0.52,0.9 C197.41,16.99,197.81,17.22,198.2,17.12z" class="st16" style="fill:#fff"/><path d="M185.41,37.78c0.39-0.1,0.63-0.51,0.52-0.9c-0.1-0.39-0.51-0.63-0.9-0.52c-0.39,0.1-0.63,0.51-0.52,0.9 C184.62,37.65,185.02,37.88,185.41,37.78z" class="st19" style="opacity:.1;fill:#fff"/><path d="M190.91,70.03c0.26-0.07,0.41-0.33,0.34-0.59c-0.07-0.26-0.33-0.41-0.59-0.34s-0.41,0.33-0.34,0.59 C190.39,69.95,190.65,70.1,190.91,70.03z" class="st16" style="fill:#fff"/><path d="M136.31,16.76c-0.26,0.07-0.41,0.33-0.34,0.59c0.07,0.26,0.33,0.41,0.59,0.34 c0.26-0.07,0.41-0.33,0.34-0.59C136.82,16.85,136.56,16.69,136.31,16.76z" class="st18" style="opacity:.5;fill:#fff"/><path d="M117.59,17.64c-0.39,0.1-0.63,0.51-0.52,0.9c0.1,0.39,0.51,0.63,0.9,0.52c0.39-0.1,0.63-0.51,0.52-0.9 C118.38,17.77,117.98,17.53,117.59,17.64z" class="st19" style="opacity:.1;fill:#fff"/><path d="M152.41,26.93c0.39-0.1,0.63-0.51,0.52-0.9c-0.1-0.39-0.51-0.63-0.9-0.52c-0.39,0.1-0.63,0.51-0.52,0.9 C151.62,26.8,152.02,27.03,152.41,26.93z" class="st20" style="opacity:.25;fill:#fff"/><path d="M231.48,71.77c0.26-0.07,0.41-0.33,0.34-0.59c-0.07-0.26-0.33-0.41-0.59-0.34 c-0.26,0.07-0.41,0.33-0.34,0.59C230.96,71.69,231.23,71.84,231.48,71.77z" class="st16" style="fill:#fff"/><path d="M204.47,48.54c0.26-0.07,0.41-0.33,0.34-0.59c-0.07-0.26-0.33-0.41-0.59-0.34 c-0.26,0.07-0.41,0.33-0.34,0.59C203.95,48.45,204.21,48.61,204.47,48.54z" class="st18" style="opacity:.5;fill:#fff"/><path d="M208.63,63.99c0.39-0.1,0.63-0.51,0.52-0.9c-0.1-0.39-0.51-0.63-0.9-0.52c-0.39,0.1-0.63,0.51-0.52,0.9 C207.83,63.86,208.24,64.09,208.63,63.99z" class="st16" style="fill:#fff"/><path d="M209.86,81.2c0.39-0.1,0.63-0.51,0.52-0.9c-0.1-0.39-0.51-0.63-0.9-0.52c-0.39,0.1-0.63,0.51-0.52,0.9 C209.06,81.07,209.47,81.3,209.86,81.2z" class="st19" style="opacity:.1;fill:#fff"/><path d="M225.91,36.85c0.39-0.1,0.63-0.51,0.52-0.9c-0.1-0.39-0.51-0.63-0.9-0.52c-0.39,0.1-0.63,0.51-0.52,0.9 C225.12,36.72,225.52,36.95,225.91,36.85z" class="st20" style="opacity:.25;fill:#fff"/><path d="M151.09,31.32c0.26-0.07,0.41-0.33,0.34-0.59c-0.07-0.26-0.33-0.41-0.59-0.34 c-0.26,0.07-0.41,0.33-0.34,0.59C150.57,31.23,150.84,31.38,151.09,31.32z" class="st16" style="fill:#fff"/><path d="M105.32,30.53c0.26-0.07,0.41-0.33,0.34-0.59c-0.07-0.26-0.33-0.41-0.59-0.34 c-0.26,0.07-0.41,0.33-0.34,0.59C104.81,30.44,105.07,30.6,105.32,30.53z" class="st18" style="opacity:.5;fill:#fff"/><path d="M152.4,12.47c0.39-0.1,0.63-0.51,0.52-0.9c-0.1-0.39-0.51-0.63-0.9-0.52c-0.39,0.1-0.63,0.51-0.52,0.9 C151.61,12.34,152.01,12.57,152.4,12.47z" class="st16" style="fill:#fff"/><path d="M124.48,48.17c-0.39,0.1-0.63,0.51-0.52,0.9c0.1,0.39,0.51,0.63,0.9,0.52c0.39-0.1,0.63-0.51,0.52-0.9 C125.28,48.3,124.87,48.07,124.48,48.17z" class="st19" style="opacity:.1;fill:#fff"/></g></g><linearGradient id="Group_1_" x1=".069" x2="335.996" y1="217.073" y2="217.073" gradientUnits="userSpaceOnUse"><stop offset=".003" style="stop-color:#351d4a"/><stop offset=".092" style="stop-color:#371e4d"/><stop offset=".208" style="stop-color:#3c2157"/><stop offset=".339" style="stop-color:#442668"/><stop offset=".48" style="stop-color:#502d80"/><stop offset=".523" style="stop-color:#552f88"/><stop offset=".68" style="stop-color:#513280"/><stop offset="1" style="stop-color:#47366a"/></linearGradient><path id="Group_31_" d="M164.05,212.47c-61.17-1.18-108.2-10.89-163.99-11.39v34.17H336V198.9 C277.21,202.03,222.47,213.6,164.05,212.47z" class="st21" style="fill:url(#Group_1_)"/><g><path d="M 261.3999938964844 193.39999389648438 L 263.17999267578125 189.39999389648438 L 261.6199951171875 188.5399932861328 L 261.54998779296875 188.5399932861328 L 258.3599853515625 188.5399932861328 L 254.77000427246094 188.5399932861328 L 247.99000549316406 188.5399932861328 L 260.17999267578125 192.57000732421875 L 258.8299865722656 192.5500030517578 Z" class="st17" style="fill:#312247"/></g><path d="M148.57,69.31c1.52,1.81-144.15,2.87-144.18,0.6C4.36,67.64,147.05,67.5,148.57,69.31z" class="st22" style="opacity:.3;fill:#fefbe3"/><path d="M0.19,34.54v1.87c50.44,2.3,298.32,1.05,296.94-1.45C295.76,32.47,50.35,32.07,0.19,34.54z" class="st22" style="opacity:.3;fill:#fefbe3"/><path d="M336.11,43.39c-89.14-0.02-204.28,0.86-204.27,2.41c0.01,1.54,115.13,1.48,204.27,0.74V43.39z" class="st22" style="opacity:.3;fill:#fefbe3"/><g><path d="M211.07,215.68l4.33,0.11l-6.88-16.02h3.39l-5.77-13.87l2.09-0.01l-4.43-11.42l1.98,0.01l-3.77-10.67l2-0.03 l-3.92-11.89l1.58-0.05c-3.28-8.85-5.27-23.13-5.27-23.13s0,0.01,0,0.01c0,0,0-0.01,0-0.01s-2,14.28-5.27,23.13l1.58,0.05 l-3.92,11.89l2,0.03l-3.77,10.67l1.98-0.01l-4.43,11.42l2.09,0.01l-5.77,13.87h3.39l-6.88,16.02l4.33-0.11l-8.7,19.51h23.37 h23.37L211.07,215.68z" class="st9" style="fill:#42245e"/><path d="M197.77,151.68l2.77,12.4l-1.99-0.27l2.74,11.16l-1.96-0.31l3.33,12.01l-2.07-0.31l4.43,14.65l-3.37-0.51 l5.33,16.95l-4.29-0.77l6.09,18.5H220l-8.7-19.51l4.33,0.11l-6.88-16.02h3.39l-5.77-13.87l2.09-0.01l-4.43-11.42l1.98,0.01 l-3.77-10.67l2-0.03l-3.92-11.89l1.58-0.05c-3.28-8.85-5.27-23.13-5.27-23.13s0,0.01,0,0.01c0,0,0-0.01,0-0.01 s-0.08,0.59-0.24,1.58c0.28,4.38,1.09,14.49,2.95,21.59L197.77,151.68z" class="st10" style="fill:#4f2775"/></g><g><path d="M75.93,201.53l4.26,0.11l-6.76-15.76h3.34l-5.68-13.65l2.05-0.01l-4.36-11.24l1.94,0.01l-3.71-10.49 l1.97-0.03l-3.85-11.7l1.55-0.04c-3.22-8.7-5.19-22.75-5.19-22.75s0,0.01,0,0.01c0,0,0-0.01,0-0.01s-1.97,14.05-5.19,22.75 l1.55,0.04L54,150.47l1.97,0.03L52.26,161l1.94-0.01l-4.36,11.24l2.05,0.01l-5.68,13.65h3.34l-6.76,15.76l4.26-0.11l-8.55,19.19 H61.5h22.99L75.93,201.53z" class="st9" style="fill:#42245e"/><path d="M62.85,138.58l2.73,12.2l-1.96-0.26l2.7,10.98l-1.93-0.3L67.66,173l-2.04-0.3l4.36,14.41l-3.32-0.5 l5.24,16.67l-4.22-0.75l5.99,18.2h11.05l-8.55-19.19l4.26,0.11l-6.76-15.76H77l-5.68-13.65l2.05-0.01l-4.36-11.24l1.94,0.01 l-3.71-10.49l1.97-0.03l-3.85-11.7l1.55-0.04c-3.22-8.7-5.19-22.75-5.19-22.75s0,0.01,0,0.01c0,0,0-0.01,0-0.01 s-0.08,0.58-0.23,1.55c0.28,4.31,1.07,14.26,2.9,21.24L62.85,138.58z" class="st10" style="fill:#4f2775"/></g><path d="M 96.12000274658203 235.2899932861328 L 84.76000213623047 221.02999877929688 L 84.52999877929688 221.02999877929688 L 73.7699966430664 221.02999877929688 L 61.65999984741211 221.02999877929688 L 38.790000915527344 221.02999877929688 L 65.80999755859375 235.2899932861328 Z" class="st17" style="fill:#312247"/></g></switch></svg>