<?xml version="1.0" encoding="utf-8"?>
<svg id="master-artboard" viewBox="0 0 720 503.999" version="1.1" xmlns="http://www.w3.org/2000/svg" x="0px" y="0px" width="720px" height="503.9989929199219px" enable-background="new 0 0 720 503.999">
<symbol id="New_Symbol" viewBox="-0.763 -0.763 1.526 1.525">
	<path fill="#FFFFFF" d="M0.763,0c0-0.421-0.342-0.762-0.763-0.762S-0.763-0.421-0.763,0S-0.421,0.763,0,0.763S0.763,0.42,0.763,0z"/>
</symbol>
<linearGradient id="SVGID_1_" gradientUnits="userSpaceOnUse" x1="360.0005" y1="503.999" x2="360.0005" y2="-0.2495">
	<stop offset="0.0831" style="stop-color:#EFF3D3"/>
	<stop offset="0.3623" style="stop-color:#C4DBD3"/>
	<stop offset="0.7039" style="stop-color:#93BBCA"/>
	<stop offset="0.9855" style="stop-color:#5C97D2"/>
</linearGradient>
<path d="M 0 -0.25 H 720 V 503.998993 H 0 V -0.25 Z" fill="url(#SVGID_1_)"/>
<path opacity="0.7" fill="#E1ECF6" d="M533.363-0.25c0,0-45.564,37.711-106.9,46.964s-114.786,3.291-153.34,30.547&#10;&#9;c-38.554,27.256-32.42,29.812-32.42,29.812s35.049-43.44,102.519-33.219c67.469,10.221,71.851,11.073,71.851,11.073&#10;&#9;s-30.149-9.369-28.219,5.111c1.932,14.48,32.6,17.035,58.01,17.035c25.411,0-5.318,0.479,12.268,14.48&#10;&#9;c6.495,5.17,21.029,7.666,34.173,7.666s30.668-6.247,27.163,0.284c-3.505,6.531-23.658,15.9,14.896,19.307&#10;&#9;c38.554,3.407,96.385-8.518,126.177-19.591c29.792-11.073,15.772-7.666-30.668-20.442C582.432,96,680.569,81.521,680.569,81.521&#10;&#9;s-33.297-6.814-57.831,1.703c-24.534,8.518,53.45-36.509,97.262-40.885V-0.25H533.363z"/>
<path opacity="0.5" fill="#E1ECF6" d="M0,42.36c0,0,42.333-7.36,75.319,41c12.492,18.315,10.944,20.5,21.888,27.5&#10;&#9;c10.943,7-16.094-5.5-16.738-7c-0.644-1.5,0.502,14.685,33.475,32.5c28.687,15.5,49.512,19.576,49.512,19.576&#10;&#9;s-21.509,23.924-78.803-6.076c-57.294-30-51.275-18.877-64.038-15.171C5.119,139.189,0,133.36,0,133.36V42.36z"/>
<g opacity="0.7">
	<path fill="#E1ECF6" d="M108.542,0c1.973,0,33.46,21.667,58.458,25.667S179.667,43,201.955,56.653&#10;&#9;&#9;C215.833,65.156,134.55,44.2,113.5,29.7C92.449,15.2,77,25,138.145,50.5c5.841,2.436-16.212,0.322-45.645-8.99&#10;&#9;&#9;S26.663,14.25,11.635,0H108.542z"/>
	<path fill="#E1ECF6" d="M0,14.5c0,0,54.775,41.289,105.02,54.289c50.245,13,88.026,14.23,91.973,14.23&#10;&#9;&#9;c3.947,0-25.106-7.673-27.08-12.173S99.333,63.678,56.574,35c-42.759-28.678,15.093-4,15.093-4l-44-31H0V14.5z"/>
</g>
<path opacity="0.7" fill="#9FCDDD" d="M0,362.778c0,0,12.846-1.478,15.833-2.954c2.987-1.479,19.716,0,19.716,0&#10;&#9;s0.333-5.256,7.451-8.536c7.117-3.281,19.435-0.147,19.435-0.147s3.584-1.293,7.767,0c4.182,1.294,11.352,2.4,17.625,0&#10;&#9;c6.273-2.398,13.443-4.614,18.82-3.876c5.377,0.739,15.534,2.669,19.119-0.144c3.585-2.811,11.65,15.656,18.969,18.611&#10;&#9;c7.319,2.955,8.514,5.17,10.904,0c2.39-5.171,16.131,5.91,23.897,13.297c7.767,7.388,10.952-3.543,10.952-3.543&#10;&#9;s4.251,2.047,8.764,5.973c6.967,6.061,34.054-10.554,43.614-7.6s4.78-8.126,13.144-4.433c8.364,3.693,9.559,10.748,20.313,13.5&#10;&#9;c10.754,2.751,31.067-6.852,35.847-5.374c4.779,1.477,8.962-2.955,15.534-2.216c6.572,0.738,21.507,16.99,30.769,19.945&#10;&#9;s9.858-8.126,17.625-2.955c7.767,5.171,10.156,12.558,19.716,13.297s29.275,2.954,41.821,0&#10;&#9;c12.547-2.954,21.509-10.343,29.873-11.081c8.363-0.738,38.236,12.574,38.236,12.574s23.924,10.849,44.212,0&#10;&#9;c8.721-4.663,7.767-13.312,25.093-11.835c17.325,1.478,60.94,19.207,68.707,17.73c7.767-1.479,20.312-11.082,31.963-8.865&#10;&#9;c11.65,2.216,40.996,12.25,44.282,6.34v78.614H0V362.778z"/>
<path opacity="0.6" fill="#E1ECF6" d="M0.463,267.114c0,0,37.254,34.989,42.704,40.88s6.629,16.453,6.629,16.453&#10;&#9;s54.719,30.662,84.667,28c30-2.667,18.117,8.362,32.666,10.334c39.01,5.287,41.917-4.291,43.334-1.624&#10;&#9;c5.999,11.29-39.334,14.623-96.667,11.29s-106.666-11.333-113.333-18V267.114z"/>
<path opacity="0.7" fill="#71A1AD" d="M0,385.396c0,0,31.488,5.528,51.281,4.863c19.792-0.665,47.681,0.22,67.473,7.09&#10;&#9;c19.792,6.87,60.276,22.158,80.07,23.488c19.792,1.329,26.989-2.659,54.878,7.312c27.89,9.972,45.883,3.324,53.98,0&#10;&#9;c8.097-3.323,22.491-4.652,44.082,0c21.592,4.653,19.792-3.323,31.488-1.329s14.395,9.307,30.589,9.307&#10;&#9;c11.66,0,57.359-20.977,94.33-9.127c39,12.5,60.741-20.488,91.33-16.5c30.587,3.988,47.925,16.748,71.035,19.506&#10;&#9;c33.465,3.994,48.893-3.539,49.383-5.18c0.464-1.552,0.278,49.788,0.278,49.788H0V385.396z"/>
<path d="M 238.667007 426.847992 L 232.686996 442.10199 L 232.686996 451.666992 L 272.674011 448.11499 L 359.166992 459.84201 L 357.166992 450.833008 L 355.666992 456.195007 L 352.666992 445.834015 L 350.5 452.333008 L 346.93399 442.10199 L 344.666992 455.334015 L 341.666992 442.10199 L 339.713013 450.132996 L 336.333008 440.834015 L 332.666992 453.75 L 330.5 446.666992 L 328.666992 449.666992 L 325.833008 442.10199 L 324.359985 448.946014 L 321.666992 443.45401 L 318.833008 451.834015 L 316 445.501007 L 315.325012 447.924011 L 313 442.10199 L 310.666992 449.666992 L 308.333008 442.96701 L 306.333008 447.210999 L 304.333008 437.591003 L 301.01001 447.210999 L 299.666992 439.333008 L 298 444.235992 L 296.333008 437.591003 L 294.666992 444.235992 L 291.333008 437.45401 L 289.666992 445.666992 L 287 433.979004 L 283.666992 442.10199 L 281 433.40799 L 277.333008 440.333008 L 273 432.666992 L 269.609009 442.96701 L 258.18399 433.979004 L 254.667007 440 L 251.332993 436.595001 L 250 439.333008 L 246.332993 433.979004 L 243.735001 439 L 239.667007 428.675995" fill="#608993"/>
<path d="M 633.934998 438.737 L 639.914978 453.990997 L 639.914978 463.557007 L 599.927979 460.005005 L 512.018982 472.290985 L 514.664978 463.36499 L 516.935974 468.084991 L 519.935974 457.723999 L 522.10199 464.222992 L 525.66803 453.990997 L 527.935974 467.223999 L 530.935974 453.990997 L 532.888977 462.022003 L 536.268005 452.723999 L 539.935974 465.640015 L 542.10199 458.557007 L 543.934998 461.557007 L 546.768005 453.990997 L 548.242004 460.835999 L 550.935974 455.343994 L 553.768005 463.723999 L 556.60199 457.390991 L 557.276978 459.812988 L 559.60199 453.990997 L 561.934998 461.557007 L 564.268005 454.855988 L 566.268005 459.101013 L 568.268005 449.480011 L 571.59198 459.101013 L 572.934998 451.222992 L 574.60199 456.126007 L 576.268005 449.480011 L 577.934998 456.126007 L 581.268005 449.343994 L 582.934998 457.557007 L 585.60199 445.868011 L 588.934998 453.990997 L 591.60199 445.298004 L 595.268005 452.222992 L 599.60199 444.557007 L 602.992004 454.855988 L 614.41803 445.868011 L 617.934998 451.890015 L 621.268005 448.484009 L 622.60199 451.222992 L 626.268005 445.868011 L 628.867004 450.890015 L 632.934998 440.565002" fill="#608993"/>
<path fill="#A6A061" d="M0,456.83v37.872l720-4.141v-53.967c0,0-94,7.354-126,20.235c-32,12.88-122,16.559-144,14.105&#10;&#9;c-22-2.452-118-22.079-169-23.306s-170,19.626-191,17.173S0,456.83,0,456.83z"/>
<g>
	<path d="M 16.171 -0.789 H 26.790999 V 492.076997 H 16.171 V -0.789 Z" fill="#3C3E62"/>
	<path d="M 21.481001 -0.789 H 26.791001 V 492.076997 H 21.481001 V -0.789 Z" fill="#5C5F7A"/>
	<path d="M 21.23900032043457 403.0880126953125 L 23.051000595092773 414.822998046875 L 23.051000595092773 492.0769958496094 L 21.23900032043457 492.0769958496094 Z" fill="#3C3E62"/>
</g>
<path fill="#608993" d="M0,458.814c0.333-0.758,0.117-55.858,0.117-55.858l6.328,18.317l5.889-18.317L17,423.429l5-20.473&#10;&#9;l6.293,57.698l7.04-46.829l8,48.78L53,410.792l7.878,50.665l9.455-28.423c0,0,0.461,30.635,1.128,29.876&#10;&#9;c0.667-0.758,4.871-38.976,5.205-38.217c0.334,0.758,5.877,38.217,5.877,38.217s4.123-23.811,4.79-23.052&#10;&#9;C88,440.616,95.096,465,95.096,465L0,458.814z"/>
<path fill="#608993" d="M155.438,459.273c0.262-0.539,0.456-30.328,0.456-30.328l4.628-13.037l6.139,27.546l2.637-17.771&#10;&#9;l6.15,30.513l3.152-32.552l9.615,32.552L155.438,459.273z"/>
<path fill="#608993" d="M639.915,450.358c0.262-0.336,0.456-18.893,0.456-18.893l4.629-8.121l6.139,17.159l2.637-11.07l6.15,19.008&#10;&#9;l3.152-20.278l9.615,20.278L639.915,450.358z"/>
<g>
	<path d="M 258.18399 -0.789 H 273.417991 V 480.942995 H 258.18399 V -0.789 Z" fill="#3C3E62"/>
	<path d="M 275.1860046386719 480.9429931640625 L 265.8009948730469 480.9429931640625 L 265.8009948730469 -0.7889999747276306 L 273.4179992675781 -0.7889999747276306 L 273.4179992675781 414.3330078125 L 275.1860046386719 422.1400146484375 Z" fill="#5C5F7A"/>
	<path d="M 265.4530029296875 393.9649963378906 L 268.0530090332031 405.43499755859375 L 268.0530090332031 480.9429931640625 L 265.4530029296875 480.9429931640625 Z" fill="#3C3E62"/>
</g>
<g>
	<g>
		<g>
			<path d="M 31.26 457.976013 H 36.748 V 485.619013 H 31.26 V 457.976013 Z" fill="#423E34"/>
			<path d="M 31.26 462.243988 H 34.004 V 485.617989 H 31.26 V 462.243988 Z" fill="#191C21"/>
		</g>
		<g>
			<path d="M 33.393002 288.299011 L 26.885 317.484985 L 33.393002 308.638 L 33.393002 314.130005 L 33.393002 321.451996 L 43.155998 339.960999 L 42.431 335.807007 L 34.41 289.925995" fill="#50563D"/>
			<path fill="#3C3E62" d="M27.495,326.13"/>
			<path fill="#131E2B" d="M65.597,482.338c-0.271-0.678-1.142-1.517-1.142-1.517l-21.231-28.179l-24.135-15.052l-4.611,2.441&#10;&#9;&#9;&#9;&#9;l-8.033,40.639l23.695-19.693l4.881,8.913l1.966-7.932l8.249,15.192l3.107-8.074l8.543,11.992l0.848-5.105L65.597,482.338z"/>
			<path d="M 27.4950008392334 314.7489929199219 L 26.325000762939453 319.760986328125 L 33.393001556396484 308.63800048828125 Z" fill="#131E2B"/>
			<path fill="#50563D" d="M15.291,423.332L3.393,450.975l15.696-13.384l-5.699,29.655l20.004-19.351&#10;&#9;&#9;&#9;&#9;c0,0,12.136,24.408,11.729,23.865c-0.406-0.542-1.898-19.118-1.898-19.118l22.373,29.695l-13.186-49.669l-25.458-17.994&#10;&#9;&#9;&#9;&#9;L15.291,423.332z"/>
			<path fill="#131E2B" d="M8.274,429.009l17.695-11.962l16.679,22.577l-1.932-7.831c0,0,14.44,18.407,14.136,17.797&#10;&#9;&#9;&#9;&#9;c-0.305-0.61-6.916-19.221-6.916-19.221s10.576,16.78,10.373,16.577c-0.204-0.204-7.018-28.718-7.018-28.718l-18.914-18.674&#10;&#9;&#9;&#9;&#9;l-7.425-6.388L8.274,429.009z"/>
			<path fill="#50563D" d="M11.833,413.081l13.627-34.476c0,0,6.509-2.339,7.017-2.339c0.508,0,10.17,2.3,10.17,2.3l5.476,9.255&#10;&#9;&#9;&#9;&#9;l6.22,22.311l-11.187-20.95l10.204,23.284l3.525,18.615l-9.763-14.887l2.747,10.514l-17.696-21.966l0.102,8.542l-5.898-15.355&#10;&#9;&#9;&#9;&#9;L11.833,413.081z"/>
			<path d="M 23.81100082397461 369.3219909667969 L 15.086999893188477 394.26800537109375 L 25.459999084472656 378.6050109863281 L 21.086999893188477 395.48699951171875 L 31.562999725341797 376.97900390625 L 32.57899856567383 382.40399169921875 L 34.816001892089844 379.4200134277344 L 36.24100112915039 386.9440002441406 L 38.8849983215332 378.6050109863281 L 49.05400085449219 388.97900390625 L 46.612998962402344 383.8940124511719 L 51.0880012512207 387.35198974609375 L 44.974998474121094 368.614013671875 L 39.494998931884766 358.4700012207031 L 27.29199981689453 357.0459899902344 Z" fill="#131E2B"/>
			<path fill="#50563D" d="M33.571,308.116l-7.093,15.573l-2.198,17.077l-0.446,3.466l4.403-5.048l-11.319,42.269L28.104,360.3&#10;&#9;&#9;&#9;&#9;l2.237,6.713c0,0,1.017-7.526,1.628-7.526c0.609,0,11.187,11.798,11.187,11.798v-5.531l7.525,13.322l-7.525-21.013l8.135,8.301&#10;&#9;&#9;&#9;&#9;l-7.429-22.193l-4.545-12.68l-0.512-3.898L33.571,308.116z"/>
			<path d="M 33.29199981689453 322.06201171875 L 23.83300018310547 344.23199462890625 L 23.527999877929688 347.1809997558594 L 30.952999114990234 334.57000732421875 L 29.52899932861328 339.96099853515625 L 30.138999938964844 345.6549987792969 L 36.138999938964844 337.2149963378906 L 42.64699935913086 345.4519958496094 Z" fill="#131E2B"/>
			<path d="M 33.0880012512207 318.8710021972656 L 33.0880012512207 318.8710021972656 L 43.15599822998047 339.96099853515625 L 38.12200164794922 323.1419982910156 Z" fill="#131E2B"/>
		</g>
	</g>
	<path d="M 34.40999984741211 289.9259948730469 L 33.393001556396484 288.29901123046875 L 27.493000030517578 314.7539978027344 L 26.325000762939453 319.760986328125 L 33.180999755859375 308.9729919433594 L 26.47800064086914 323.6889953613281 L 24.27899932861328 340.7669982910156 L 23.83300018310547 344.23199462890625 L 23.527999877929688 347.1809997558594 L 28.235000610351562 339.18499755859375 L 28.236000061035156 339.18499755859375 L 16.91699981689453 381.4530029296875 L 24.36199951171875 367.37799072265625 L 23.81100082397461 369.3219909667969 L 15.086999893188477 394.26800537109375 L 25.459999084472656 378.6050109863281 L 11.833000183105469 413.08099365234375 L 19.31100082397461 405.2900085449219 L 8.27400016784668 429.0090026855469 L 14.725000381469727 424.64801025390625 L 3.3930001258850098 450.9750061035156 L 14.123000144958496 441.8240051269531 L 6.444000244140625 480.6709899902344 L 30.138999938964844 460.9779968261719 L 31.260000228881836 463.02398681640625 L 31.260000228881836 485.6180114746094 L 34.00299835205078 485.6180114746094 L 34.92100143432617 485.6180114746094 L 34.92100143432617 469.7090148925781 L 34.92100143432617 457.97601318359375 L 34.92100143432617 450.9700012207031 L 34.92100143432617 447.4639892578125 L 34.92100143432617 429.16400146484375 L 34.92100143432617 420.3070068359375 L 34.92100143432617 408.1520080566406 L 34.92100143432617 402.06500244140625 L 34.92100143432617 379.968994140625 L 34.92100143432617 376.7690124511719 L 34.92100143432617 362.31298828125 L 34.92100143432617 357.9360046386719 L 34.92100143432617 338.92999267578125 L 34.92100143432617 326.135009765625 L 34.92100143432617 324.3489990234375 L 34.92100143432617 322.7099914550781 L 34.92100143432617 320.42498779296875 L 34.92100143432617 313.13800048828125 L 34.92100143432617 292.84600830078125 Z" opacity="0.8" fill="#131E2B"/>
</g>
<g>
	<g>
		<g>
			<path d="M 101.970001 474.105011 H 107.458001 V 501.748011 H 101.970001 V 474.105011 Z" fill="#423E34"/>
			<path d="M 101.970001 478.373993 H 104.714001 V 501.747993 H 101.970001 V 478.373993 Z" fill="#191C21"/>
		</g>
		<g>
			<path d="M 104.102997 304.428986 L 97.595001 333.61499 L 104.102997 324.768005 L 104.102997 330.26001 L 104.102997 337.582001 L 113.865997 356.091003 L 113.140999 351.937012 L 105.120003 306.056" fill="#50563D"/>
			<path fill="#3C3E62" d="M98.205,342.26"/>
			<path fill="#131E2B" d="M136.307,498.468c-0.271-0.678-1.142-1.517-1.142-1.517l-21.231-28.179l-24.135-15.052l-4.611,2.441&#10;&#9;&#9;&#9;&#9;l-8.033,40.639l23.695-19.693l4.881,8.913l1.966-7.932l8.249,15.192l3.107-8.074l8.543,11.992l0.848-5.105L136.307,498.468z"/>
			<path d="M 98.20500183105469 330.8789978027344 L 97.03500366210938 335.8909912109375 L 104.10299682617188 324.76800537109375 Z" fill="#131E2B"/>
			<path fill="#50563D" d="M86.001,439.462l-11.898,27.643l15.696-13.384l-5.699,29.655l20.004-19.351&#10;&#9;&#9;&#9;&#9;c0,0,12.136,24.408,11.729,23.865c-0.406-0.542-1.898-19.118-1.898-19.118l22.373,29.695l-13.186-49.669l-25.458-17.994&#10;&#9;&#9;&#9;&#9;L86.001,439.462z"/>
			<path fill="#131E2B" d="M78.984,445.139l17.695-11.962l16.679,22.577l-1.932-7.831c0,0,14.44,18.407,14.136,17.797&#10;&#9;&#9;&#9;&#9;c-0.305-0.61-6.916-19.221-6.916-19.221s10.576,16.78,10.373,16.577c-0.204-0.204-7.018-28.718-7.018-28.718l-18.914-18.674&#10;&#9;&#9;&#9;&#9;l-7.425-6.388L78.984,445.139z"/>
			<path fill="#50563D" d="M82.543,429.211l13.627-34.476c0,0,6.509-2.339,7.017-2.339c0.508,0,10.17,2.3,10.17,2.3l5.476,9.255&#10;&#9;&#9;&#9;&#9;l6.22,22.311l-11.187-20.95l10.204,23.284l3.525,18.615l-9.763-14.887l2.747,10.514l-17.696-21.966l0.102,8.542l-5.898-15.355&#10;&#9;&#9;&#9;&#9;L82.543,429.211z"/>
			<path d="M 94.52100372314453 385.4519958496094 L 85.7969970703125 410.3970031738281 L 96.16999816894531 394.7349853515625 L 91.7969970703125 411.61700439453125 L 102.27300262451172 393.1080017089844 L 103.28900146484375 398.53399658203125 L 105.5260009765625 395.54998779296875 L 106.95099639892578 403.0740051269531 L 109.59500122070312 394.7349853515625 L 119.76399993896484 405.1080017089844 L 117.322998046875 400.02301025390625 L 121.7979965209961 403.4809875488281 L 115.68499755859375 384.7439880371094 L 110.20500183105469 374.6000061035156 L 98.0009994506836 373.1759948730469 Z" fill="#131E2B"/>
			<path fill="#50563D" d="M104.281,324.246l-7.093,15.573l-2.198,17.077l-0.446,3.466l4.403-5.048l-11.319,42.269l11.187-21.153&#10;&#9;&#9;&#9;&#9;l2.237,6.713c0,0,1.017-7.526,1.628-7.526c0.609,0,11.187,11.798,11.187,11.798v-5.531l7.525,13.322l-7.525-21.013l8.135,8.301&#10;&#9;&#9;&#9;&#9;l-7.429-22.193l-4.545-12.68l-0.512-3.898L104.281,324.246z"/>
			<path d="M 104.0009994506836 338.1910095214844 L 94.54299926757812 360.36199951171875 L 94.23799896240234 363.3110046386719 L 101.66300201416016 350.70001220703125 L 100.23899841308594 356.09100341796875 L 100.8489990234375 361.7850036621094 L 106.8489990234375 353.3450012207031 L 113.35700225830078 361.5820007324219 Z" fill="#131E2B"/>
			<path d="M 103.7979965209961 335.0010070800781 L 103.7979965209961 335.0010070800781 L 113.86599731445312 356.09100341796875 L 108.83200073242188 339.27099609375 Z" fill="#131E2B"/>
		</g>
	</g>
	<path d="M 105.12000274658203 306.0559997558594 L 104.10299682617188 304.4289855957031 L 98.2030029296875 330.8840026855469 L 97.03500366210938 335.8909912109375 L 103.89099884033203 325.1029968261719 L 97.18800354003906 339.8190002441406 L 94.98899841308594 356.89599609375 L 94.54299926757812 360.36199951171875 L 94.23799896240234 363.3110046386719 L 98.94499969482422 355.3139953613281 L 98.94599914550781 355.3139953613281 L 87.62699890136719 397.5830078125 L 95.0719985961914 383.50799560546875 L 94.52100372314453 385.4519958496094 L 85.7969970703125 410.3970031738281 L 96.16999816894531 394.7349853515625 L 82.54299926757812 429.21099853515625 L 90.02100372314453 421.4200134277344 L 78.98400115966797 445.1390075683594 L 85.43499755859375 440.77801513671875 L 74.10299682617188 467.10400390625 L 84.83300018310547 457.9540100097656 L 77.15399932861328 496.8009948730469 L 100.8489990234375 477.10699462890625 L 101.97000122070312 479.15399169921875 L 101.97000122070312 501.74798583984375 L 104.71299743652344 501.74798583984375 L 105.63099670410156 501.74798583984375 L 105.63099670410156 485.8389892578125 L 105.63099670410156 474.1050109863281 L 105.63099670410156 467.1000061035156 L 105.63099670410156 463.593994140625 L 105.63099670410156 445.29400634765625 L 105.63099670410156 436.43701171875 L 105.63099670410156 424.2820129394531 L 105.63099670410156 418.19500732421875 L 105.63099670410156 396.0989990234375 L 105.63099670410156 392.89801025390625 L 105.63099670410156 378.4429931640625 L 105.63099670410156 374.06500244140625 L 105.63099670410156 355.05999755859375 L 105.63099670410156 342.2650146484375 L 105.63099670410156 340.47900390625 L 105.63099670410156 338.8399963378906 L 105.63099670410156 336.55499267578125 L 105.63099670410156 329.26800537109375 L 105.63099670410156 308.97601318359375 Z" opacity="0.9" fill="#131E2B"/>
</g>
<path fill="#454742" d="M111.116,478.232l-57.156,3.481L0,489.438v14.562h112.749c6.558-8.704,8.221-17.707,14.366-26.548&#10;&#9;C117.317,477.919,111.116,478.232,111.116,478.232z"/>
<g>
	<path fill="#363658" d="M51.09,480.158l3.973-4.943V462.56l-7.945,15.912l0.269,6.855c0.994,0.614,1.927,1.365,2.895,2.088&#10;&#9;&#9;L51.09,480.158z"/>
	<path fill="#23233A" d="M47.386,485.327l0.635,18.672h1.354l0.906-16.584C49.313,486.692,48.38,485.941,47.386,485.327z"/>
</g>
<path fill="#656C55" d="M508.17,489.779c0,0-233.67-15.779-261.17-16.404c-20.927-0.476-88.687,2.585-119.885,4.076&#10;&#9;c-6.146,8.841-9.809,17.844-16.366,26.548h496.037c-5.25-7.564-10.493-15.163-15.486-22.95L508.17,489.779z"/>
<path fill="#454742" d="M720.116,465l-102,13.232l-26.816,2.816c4.993,7.787,10.236,15.386,15.486,22.95h113.33V465z"/>
<path d="M 156 503.9989929199219 L 111 503.9989929199219 L 111 0 L 156 0 L 156 413 Z" fill="#7D6884"/>
<path d="M 133.5 0 L 133.5 183.5 L 140.604004 208.466995 L 138.75 212 L 133.5 206 L 138.75 503.998993 L 111 503.998993 L 111 0" fill="#363658"/>
<path opacity="0.6" fill="#E1ECF6" d="M720,277.048c0,0-37.254,34.989-42.704,40.88s-6.629,16.453-6.629,16.453&#10;&#9;s-54.719,30.662-84.667,28c-30-2.667-18.117,8.362-32.666,10.334c-39.01,5.287-41.917-4.291-43.334-1.624&#10;&#9;c-5.999,11.29,39.334,14.623,96.667,11.29s106.666-11.333,113.333-18V277.048z"/>
<g>
	<path d="M 53.844002 0 H 74.156002 V 503.998993 H 53.844002 V 0 Z" fill="#3C3E62"/>
	<path d="M 64 0 H 74.156 V 503.998993 H 64 V 0 Z" fill="#5C5F7A"/>
	<path d="M 63.5359992980957 413 L 67.00299835205078 425 L 67.00299835205078 503.9989929199219 L 63.5359992980957 503.9989929199219 Z" fill="#3C3E62"/>
</g>
<path d="M 456.4460144042969 196.05599975585938 L 456.4639892578125 196.11099243164062 L 435.96099853515625 197.59300231933594 L 455.08599853515625 198.71800231933594 L 457.58599853515625 199.59300231933594 L 459.0409851074219 197.72900390625 L 475.8299865722656 188.5019989013672 Z" fill="#3C3E62"/>
<path d="M 203.0449981689453 73.66600036621094 L 203.0290069580078 73.72200012207031 L 185.0540008544922 63.75 L 200.4499969482422 75.1510009765625 L 202.06399536132812 77.2509994506836 L 204.302001953125 76.48600006103516 L 223.4029998779297 77.94400024414062 Z" opacity="0.7" fill="#3C3E62"/>
<path d="M 180.82400512695312 222.572998046875 L 180.81300354003906 222.61099243164062 L 168.64700317382812 215.86099243164062 L 179.06700134277344 223.5780029296875 L 180.16000366210938 225 L 181.6750030517578 224.48199462890625 L 194.60400390625 225.46800231933594 Z" opacity="0.7" fill="#3C3E62"/>
<path d="M 697.2930297851562 217.77000427246094 L 697.302978515625 217.80799865722656 L 709.468994140625 211.05799865722656 L 699.0490112304688 218.77499389648438 L 697.9559936523438 220.1959991455078 L 696.4409790039062 219.6790008544922 L 683.5130004882812 220.6649932861328 Z" opacity="0.7" fill="#3C3E62"/>
<path opacity="0.5" fill="#E1ECF6" d="M720,96.12c0,0-37.254,34.989-42.704,40.88s-6.629,16.453-6.629,16.453&#10;&#9;s-54.719,30.662-84.667,28c-30-2.667-18.117,8.362-32.666,10.334c-39.01,5.287-41.917-4.291-43.334-1.624&#10;&#9;c-5.999,11.29,39.334,14.623,96.667,11.29s106.666-11.333,113.333-18V96.12z"/>
<g>
	<path d="M 657.557007 0 H 672.791007 V 503.998993 H 657.557007 V 0 Z" fill="#3C3E62"/>
	<path d="M 657.557007 0 H 665.174007 V 503.998993 H 657.557007 V 0 Z" fill="#5C5F7A"/>
	<path d="M 665.1740112304688 413 L 662.573974609375 425 L 662.573974609375 503.9989929199219 L 665.1740112304688 503.9989929199219 Z" fill="#3C3E62"/>
</g>
<g>
	<g>
		<g>
			<path d="M 200.895996 458.786987 H 207.645996 V 492.786987 H 200.895996 V 458.786987 Z" fill="#423E34"/>
			<path d="M 200.895996 464.036987 H 204.270996 V 492.786987 H 200.895996 V 464.036987 Z" fill="#191C21"/>
		</g>
		<g>
			<path d="M 203.520004 250.085007 L 195.514999 285.984009 L 203.520004 275.102997 L 203.520004 281.856995 L 203.520004 290.863007 L 215.528 313.628998 L 214.636002 308.519989 L 204.770996 252.085999" fill="#50563D"/>
			<path fill="#3C3E62" d="M196.265,296.617"/>
			<path fill="#131E2B" d="M243.131,488.752c-0.333-0.834-1.405-1.865-1.405-1.865l-26.114-34.66l-29.687-18.514l-5.671,3.003&#10;&#9;&#9;&#9;&#9;l-9.882,49.985l29.145-24.223l6.004,10.964l2.418-9.757l10.146,18.687l3.822-9.931l10.507,14.75l1.043-6.279L243.131,488.752z"/>
			<path d="M 196.26499938964844 282.6189880371094 L 194.82699584960938 288.7829895019531 L 203.52000427246094 275.1029968261719 Z" fill="#131E2B"/>
			<path fill="#50563D" d="M181.254,416.175l-14.635,34.001l19.305-16.463l-7.009,36.477l24.604-23.802&#10;&#9;&#9;&#9;&#9;c0,0,14.927,30.022,14.427,29.354c-0.5-0.667-2.335-23.516-2.335-23.516l27.519,36.525l-16.22-61.092l-31.313-22.134&#10;&#9;&#9;&#9;&#9;L181.254,416.175z"/>
			<path fill="#131E2B" d="M172.624,423.157l21.765-14.713l20.514,27.77l-2.376-9.632c0,0,17.762,22.641,17.387,21.891&#10;&#9;&#9;&#9;&#9;c-0.375-0.751-8.506-23.642-8.506-23.642s13.009,20.64,12.759,20.39c-0.25-0.251-8.631-35.322-8.631-35.322l-23.264-22.969&#10;&#9;&#9;&#9;&#9;l-9.133-7.857L172.624,423.157z"/>
			<path fill="#50563D" d="M177.001,403.566l16.762-42.404c0,0,8.006-2.877,8.631-2.877c0.625,0,12.509,2.829,12.509,2.829&#10;&#9;&#9;&#9;&#9;l6.735,11.383l7.65,27.441l-13.76-25.768l12.551,28.639l4.336,22.897l-12.008-18.311l3.377,12.932l-21.765-27.019l0.125,10.507&#10;&#9;&#9;&#9;&#9;l-7.255-18.888L177.001,403.566z"/>
			<path d="M 191.73399353027344 349.7430114746094 L 181.00399780273438 380.4259948730469 L 193.76300048828125 361.1619873046875 L 188.38400268554688 381.927001953125 L 201.2689971923828 359.1600036621094 L 202.52000427246094 365.8349914550781 L 205.27099609375 362.1629943847656 L 207.02200317382812 371.41900634765625 L 210.27499389648438 361.1619873046875 L 222.7830047607422 373.9209899902344 L 219.781005859375 367.6659851074219 L 225.28500366210938 371.9200134277344 L 217.76600646972656 348.87298583984375 L 211.02499389648438 336.3949890136719 L 196.01499938964844 334.6440124511719 Z" fill="#131E2B"/>
			<path fill="#50563D" d="M203.739,274.46l-8.725,19.155l-2.704,21.005l-0.549,4.263l5.415-6.208l-13.921,51.989l13.76-26.018&#10;&#9;&#9;&#9;&#9;l2.752,8.256c0,0,1.25-9.257,2.001-9.257c0.75,0,13.759,14.511,13.759,14.511v-6.803l9.256,16.386l-9.256-25.845l10.007,10.209&#10;&#9;&#9;&#9;&#9;l-9.138-27.297l-5.59-15.596l-0.63-4.796L203.739,274.46z"/>
			<path d="M 203.39500427246094 291.6130065917969 L 191.76199340820312 318.88299560546875 L 191.38699340820312 322.510009765625 L 200.51800537109375 306.9989929199219 L 198.76699829101562 313.6289978027344 L 199.51699829101562 320.6340026855469 L 206.89700317382812 310.25201416015625 L 214.9029998779297 320.3840026855469 Z" fill="#131E2B"/>
			<path d="M 203.14500427246094 287.68798828125 L 203.14500427246094 287.68798828125 L 215.5279998779297 313.6289978027344 L 209.33599853515625 292.9410095214844 Z" fill="#131E2B"/>
		</g>
	</g>
	<path d="M 204.77099609375 252.08599853515625 L 203.52000427246094 250.0850067138672 L 196.26400756835938 282.625 L 194.82699584960938 288.7829895019531 L 203.25900268554688 275.5140075683594 L 195.01400756835938 293.614990234375 L 192.31100463867188 314.6199951171875 L 191.76199340820312 318.88299560546875 L 191.38699340820312 322.510009765625 L 197.17599487304688 312.67498779296875 L 197.177001953125 312.67498779296875 L 183.25599670410156 364.66400146484375 L 192.41200256347656 347.35198974609375 L 191.73399353027344 349.7430114746094 L 181.00399780273438 380.4259948730469 L 193.76300048828125 361.1619873046875 L 177.00100708007812 403.5660095214844 L 186.19900512695312 393.9830017089844 L 172.62399291992188 423.1570129394531 L 180.55799865722656 417.79400634765625 L 166.6199951171875 450.1759948730469 L 179.8179931640625 438.9209899902344 L 170.3719940185547 486.70098876953125 L 199.51699829101562 462.47900390625 L 200.89599609375 464.9960021972656 L 200.89599609375 492.7869873046875 L 204.27099609375 492.7869873046875 L 205.3990020751953 492.7869873046875 L 205.3990020751953 473.218994140625 L 205.3990020751953 458.7869873046875 L 205.3990020751953 450.1700134277344 L 205.3990020751953 445.85699462890625 L 205.3990020751953 423.3489990234375 L 205.3990020751953 412.4540100097656 L 205.3990020751953 397.5050048828125 L 205.3990020751953 390.01800537109375 L 205.3990020751953 362.8389892578125 L 205.3990020751953 358.9020080566406 L 205.3990020751953 341.12298583984375 L 205.3990020751953 335.7380065917969 L 205.3990020751953 312.3599853515625 L 205.3990020751953 296.62298583984375 L 205.3990020751953 294.4259948730469 L 205.3990020751953 292.4100036621094 L 205.3990020751953 289.60101318359375 L 205.3990020751953 280.6369934082031 L 205.3990020751953 255.67799377441406 Z" opacity="0.7" fill="#131E2B"/>
</g>
<g>
	<g>
		<g>
			<path d="M 616.026978 265.972992 L 626.010986 310.747009 L 616.026978 297.175995 L 616.026978 305.601013 L 616.026978 316.832001 L 601.049988 345.226013 L 602.163025 338.854004 L 614.46698 268.468994" fill="#50563D"/>
			<path fill="#3C3E62" d="M625.076,324.009"/>
			<path d="M 637.9719848632812 494.9960021972656 L 645.0460205078125 498.7409973144531 L 646.0850219726562 503.9989929199219 L 623.5360107421875 503.9989929199219 Z" fill="#131E2B"/>
			<path d="M 625.0759887695312 306.54998779296875 L 626.8699951171875 314.2380065917969 L 616.0269775390625 297.1759948730469 Z" fill="#131E2B"/>
			<path d="M 586.85400390625 487.4469909667969 L 625.906982421875 459.8420104980469 L 643.7979736328125 473.12200927734375 L 657.0869750976562 503.9989929199219 L 648.5289916992188 503.9989929199219 L 637.9719848632812 494.9960021972656 L 639.7020263671875 503.9989929199219 L 582.458984375 503.9989929199219 Z" fill="#50563D"/>
			<path fill="#131E2B" d="M581.102,503.999h-1.896c2.92-11.735,9.364-38.704,9.364-38.704l29.015-28.647l11.391-9.8l25.586,54.983&#10;&#9;&#9;&#9;&#9;l-27.145-18.351l-25.586,34.635l2.963-12.013c0,0-7.842,9.996-14.096,17.896h-4.147c3.102-8.635,7.167-20.08,7.167-20.08&#10;&#9;&#9;&#9;&#9;S585.764,496.54,581.102,503.999z"/>
			<path fill="#50563D" d="M649.102,457.397l-20.905-52.888c0,0-9.985-3.588-10.765-3.588s-15.601,3.528-15.601,3.528l-8.4,14.197&#10;&#9;&#9;&#9;&#9;l-9.542,34.225l17.161-32.138l-15.653,35.719l-5.408,28.558l14.978-22.837l-4.213,16.129l27.146-33.698l-0.156,13.104&#10;&#9;&#9;&#9;&#9;l9.049-23.557L649.102,457.397z"/>
			<path d="M 630.72802734375 390.2690124511719 L 644.1090087890625 428.5360107421875 L 628.1959838867188 404.510009765625 L 634.905029296875 430.4079895019531 L 618.8350219726562 402.01300048828125 L 617.2760009765625 410.3380126953125 L 613.843994140625 405.7590026855469 L 611.6580200195312 417.3030090332031 L 607.60302734375 404.510009765625 L 592.0029907226562 420.4230041503906 L 595.7470092773438 412.62200927734375 L 588.8820190429688 417.9280090332031 L 598.260009765625 389.1830139160156 L 606.6669921875 373.6189880371094 L 625.3880004882812 371.4360046386719 Z" fill="#131E2B"/>
			<path fill="#50563D" d="M615.755,296.374l10.881,23.891l3.373,26.197l0.685,5.316l-6.755-7.742l17.363,64.842l-17.161-32.45&#10;&#9;&#9;&#9;&#9;l-3.433,10.297c0,0-1.561-11.545-2.497-11.545c-0.935,0-17.161,18.098-17.161,18.098v-8.484l-11.544,20.437l11.544-32.233&#10;&#9;&#9;&#9;&#9;l-12.479,12.732l11.396-34.045l6.972-19.451l0.786-5.981L615.755,296.374z"/>
			<path d="M 616.1840209960938 317.76800537109375 L 630.6929931640625 351.77801513671875 L 631.1610107421875 356.3030090332031 L 619.77099609375 336.9570007324219 L 621.9550170898438 345.22601318359375 L 621.02001953125 353.9630126953125 L 611.8140258789062 341.0150146484375 L 601.8309936523438 353.6499938964844 Z" fill="#131E2B"/>
			<path d="M 616.4949951171875 312.87298583984375 L 616.4949951171875 312.87298583984375 L 601.0499877929688 345.22601318359375 L 608.7730102539062 319.42401123046875 Z" fill="#131E2B"/>
		</g>
	</g>
	<path d="M 613.6840209960938 482.0690002441406 L 613.6840209960938 468.48199462890625 L 613.6840209960938 449.8370056152344 L 613.6840209960938 440.4989929199219 L 613.6840209960938 406.60198974609375 L 613.6840209960938 401.6910095214844 L 613.6840209960938 379.5169982910156 L 613.6840209960938 372.8009948730469 L 613.6840209960938 343.6440124511719 L 613.6840209960938 324.0159912109375 L 613.6840209960938 321.2749938964844 L 613.6840209960938 318.7619934082031 L 613.6840209960938 315.25799560546875 L 613.6840209960938 304.0780029296875 L 613.6840209960938 272.9490051269531 L 614.4669799804688 268.468994140625 L 616.0269775390625 265.9729919433594 L 625.0780029296875 306.5580139160156 L 626.8699951171875 314.2380065917969 L 616.35302734375 297.68798828125 L 626.635986328125 320.2650146484375 L 630.0089721679688 346.4620056152344 L 630.6929931640625 351.77801513671875 L 631.1610107421875 356.3030090332031 L 623.9390258789062 344.0360107421875 L 623.93798828125 344.0360107421875 L 641.302001953125 408.87799072265625 L 629.8820190429688 387.2850036621094 L 630.72802734375 390.2690124511719 L 644.1090087890625 428.5360107421875 L 628.1959838867188 404.510009765625 L 649.1019897460938 457.3970031738281 L 637.6309814453125 445.44500732421875 L 654.56201171875 481.83099365234375 L 644.666015625 475.1419982910156 L 657.0869750976562 503.9989929199219 L 648.5280151367188 503.9989929199219 L 645.5889892578125 501.49200439453125 L 646.0850219726562 503.9989929199219 L 613.6840209960938 503.9989929199219 Z" opacity="0.7" fill="#131E2B"/>
</g>
<g>
	<path fill="#5C5F7A" d="M77.863,480.421l-7.521-14.687v11.759l4.21,5.27l0.847,15.777c0.635,0.009,1.206,0.068,1.73,0.178&#10;&#9;&#9;L77.863,480.421z"/>
	<path fill="#4E5268" d="M75.356,497.979l0.269,6.02h1.529l-0.007-5.715C76.622,498.157,75.991,497.989,75.356,497.979z"/>
</g>
<path d="M 394.031005859375 461.9540100097656 L 403.5849914550781 463.364990234375 L 423.1300048828125 471.9540100097656 L 373 480.9429931640625 L 351.5830078125 479.468994140625 L 410.85400390625 470.9540100097656 Z" fill="#CCC381"/>
<path d="M 295.927001953125 476.00201416015625 L 239.0489959716797 504 L 471.9590148925781 503.9989929199219 L 432.8699951171875 484.7590026855469 L 336.5769958496094 478.5140075683594 Z" opacity="0.5" fill="#CCC381"/>
<g>
	<g>
		<path d="M 700.885986 490.363007 H 709.303987 V 503.964006 H 700.885986 V 490.363007 Z" fill="#423E34"/>
		<path d="M 700.885986 496.911011 H 705.094986 V 503.964011 H 700.885986 V 496.911011 Z" fill="#191C21"/>
	</g>
	<g>
		<path d="M 705.718994140625 232.56199645996094 L 704.1580200195312 230.06700134277344 L 694.1749877929688 274.84100341796875 L 704.1580200195312 261.2699890136719 L 704.1580200195312 269.6940002441406 L 704.1580200195312 280.9259948730469 L 719.135986328125 309.3190002441406 L 718.02197265625 302.9469909667969 Z" fill="#50563D"/>
		<path fill="#3C3E62" d="M695.109,288.103"/>
		<path d="M 719.239013671875 482.1809997558594 L 682.2139892578125 459.0899963378906 L 675.1400146484375 462.8349914550781 L 667.010009765625 503.9639892578125 L 688.3410034179688 503.9639892578125 L 699.166015625 494.9670104980469 L 704.093017578125 503.9639892578125 L 707.81298828125 503.9639892578125 L 709.6710205078125 496.4729919433594 L 713.7379760742188 503.9639892578125 L 720.0009765625 503.9639892578125 L 720.0009765625 483.1910095214844 Z" fill="#131E2B"/>
		<path d="M 695.1090087890625 270.6440124511719 L 693.3150024414062 278.3320007324219 L 704.1580200195312 261.2699890136719 Z" fill="#131E2B"/>
		<path fill="#50563D" d="M720.001,483.191v-41.073l-25.723-18.183l-17.891,13.28l-18.252,42.407l24.078-20.533l-8.624,44.874h0.522&#10;&#9;&#9;&#9;l30.046-29.065c0,0,9.123,18.349,14.379,29.065h1.464v-12.67c-0.438-5.077-0.762-9.113-0.762-9.113L720.001,483.191z"/>
		<path fill="#131E2B" d="M702.601,400.741l-11.391-9.8l-25.586,54.983l27.145-18.351l25.586,34.635l-2.963-12.013&#10;&#9;&#9;&#9;c0,0,1.919,2.446,4.609,5.867v-38.142L702.601,400.741z"/>
		<path fill="#50563D" d="M719.136,384.828l0.865,1.62v-15.122l-1.646-2.782c0,0-14.821-3.528-15.601-3.528&#10;&#9;&#9;&#9;s-10.765,3.588-10.765,3.588l-20.905,52.888l22.31-23.245l9.049,23.557l-0.156-13.104l17.715,21.99v-43.886L719.136,384.828z"/>
		<path d="M 713.5189819335938 337.7130126953125 L 694.7979736328125 335.52899169921875 L 689.4580078125 354.36199951171875 L 676.0759887695312 392.6300048828125 L 691.989013671875 368.60400390625 L 685.280029296875 394.50201416015625 L 701.3510131835938 366.1059875488281 L 702.9089965820312 374.4320068359375 L 706.3419799804688 369.8529968261719 L 708.5269775390625 381.39599609375 L 712.5830078125 368.60400390625 L 720.0009765625 376.1709899902344 L 720.0009765625 349.7130126953125 Z" fill="#131E2B"/>
		<path fill="#50563D" d="M719.136,337.09l0.865,0.883V315.17l-6.754-18.844l-0.786-5.981l-8.03-29.877l-10.881,23.891&#10;&#9;&#9;&#9;l-3.373,26.197l-0.685,5.316l6.755-7.742l-17.363,64.842l17.161-32.45l3.433,10.297c0,0,1.561-11.545,2.497-11.545&#10;&#9;&#9;&#9;c0.935,0,17.161,18.098,17.161,18.098v-8.484l0.865,1.531v-10.912L719.136,337.09z"/>
		<path d="M 704.0020141601562 281.8609924316406 L 689.4920043945312 315.87200927734375 L 689.0239868164062 320.39599609375 L 700.4140014648438 301.0509948730469 L 698.22998046875 309.3190002441406 L 699.166015625 318.0570068359375 L 708.3709716796875 305.1080017089844 L 718.35400390625 317.7439880371094 Z" fill="#131E2B"/>
		<path d="M 703.6900024414062 276.9670104980469 L 719.135986328125 309.3190002441406 L 711.4119873046875 283.51800537109375 Z" fill="#131E2B"/>
	</g>
</g>
<path d="M 258.1839904785156 458.97100830078125 L 275.1860046386719 462.0369873046875 L 275.1860046386719 475.5119934082031 L 258.1839904785156 474.03900146484375 Z" opacity="0.4" fill="#131E2B"/>
<path d="M 16.128000259399414 456.2720031738281 L 26.75 462.17498779296875 L 26.79199981689453 485.5790100097656 L 16.17099952697754 487.09100341796875 Z" opacity="0.5" fill="#131E2B"/>
<path d="M 53.84400177001953 474.0249938964844 L 74.15599822998047 482.3380126953125 L 74.15599822998047 503.9989929199219 L 53.92599868774414 504.0710144042969 Z" opacity="0.3" fill="#131E2B"/>
<path d="M 672.7340087890625 466.3900146484375 L 657.6380004882812 473.60198974609375 L 657.5570068359375 503.9530029296875 L 672.6740112304688 504.04400634765625 Z" opacity="0.3" fill="#131E2B"/>
<path d="M 110.90899658203125 484.4750061035156 L 156 492.7869873046875 L 156 504.0610046386719 L 111.09100341796875 504.10699462890625 Z" opacity="0.3" fill="#131E2B"/>
<path d="M 720.0009765625 315.25 L 715.2930297851562 302.114013671875 L 719.135986328125 309.39898681640625 L 718.02197265625 303.0270080566406 L 705.718994140625 232.64300537109375 L 704.1580200195312 230.14599609375 L 695.1110229492188 270.72198486328125 L 695.1090087890625 270.7239990234375 L 693.3150024414062 278.4119873046875 L 703.8309936523438 261.864013671875 L 693.5499877929688 284.43798828125 L 690.177001953125 310.635986328125 L 689.4920043945312 315.9519958496094 L 689.0239868164062 320.47698974609375 L 696.2440185546875 308.2130126953125 L 696.2470092773438 308.2099914550781 L 678.8839721679688 373.052001953125 L 690.3049926757812 351.4549865722656 L 689.4580078125 354.4419860839844 L 676.0759887695312 392.7099914550781 L 691.989013671875 368.6839904785156 L 671.083984375 421.5710144042969 L 682.5570068359375 409.6180114746094 L 665.6240234375 446.0050048828125 L 675.5189819335938 439.3160095214844 L 658.135986328125 479.7030029296875 L 674.5960083007812 465.6659851074219 L 667.010009765625 504.04400634765625 L 673.5900268554688 504.04400634765625 L 674.1119995117188 504.04400634765625 L 688.3410034179688 504.04400634765625 L 699.166015625 495.0469970703125 L 700.885986328125 498.18798828125 L 700.885986328125 504.04400634765625 L 704.093017578125 504.04400634765625 L 705.094970703125 504.04400634765625 L 707.81298828125 504.04400634765625 L 709.3040161132812 504.04400634765625 L 709.3040161132812 498.0329895019531 L 709.6710205078125 496.5530090332031 L 713.7379760742188 504.04400634765625 L 718.5369873046875 504.04400634765625 L 720.0009765625 504.04400634765625 L 720.0009765625 491.3739929199219 L 720.0009765625 483.27099609375 L 720.0009765625 456.1440124511719 L 720.0009765625 442.197998046875 L 720.0009765625 430.7690124511719 L 720.0009765625 418.00201416015625 L 720.0009765625 386.88299560546875 L 719.135986328125 384.9079895019531 L 720.0009765625 386.52801513671875 L 720.0009765625 376.2510070800781 L 720.0009765625 371.406005859375 L 720.0009765625 350.49798583984375 L 720.0009765625 349.7929992675781 L 720.0009765625 339.58599853515625 L 719.135986328125 337.1700134277344 L 720.0009765625 338.0530090332031 Z" opacity="0.6" fill="#131E2B"/>
<path d="M 133.5 58.61899948120117 L 138.5 83.0199966430664 L 133.5 77.94400024414062 Z" fill="#363658"/>
<path d="M 264.18499755859375 51.54999923706055 L 269.18499755859375 75.94999694824219 L 264.18499755859375 70.875 Z" fill="#3C3E62"/>
<path d="M 64 63.75 L 69 88.1500015258789 L 64 83.07499694824219 Z" fill="#3C3E62"/>
<path d="M 64 208.46499633789062 L 69 232.86500549316406 L 64 227.7899932861328 Z" fill="#3C3E62"/>
<path d="M 265.5530090332031 220.6649932861328 L 270.5530090332031 245.06500244140625 L 265.5530090332031 239.98899841308594 Z" fill="#3C3E62"/>
<path d="M 265.5530090332031 369.25299072265625 L 270.5530090332031 393.65301513671875 L 265.5530090332031 388.5780029296875 Z" fill="#3C3E62"/>
<path d="M 136 386.9590148925781 L 145.5 415.9079895019531 L 136.3070068359375 405.5260009765625 Z" fill="#363658"/>
<g>
	<path fill="#7D6884" d="M166.363,458.568l-10.925-28.562v22.869l6.115,10.248l1.231,30.685c0.922,0.017,1.751,0.133,2.513,0.346&#10;&#9;&#9;L166.363,458.568z"/>
	<path fill="#705D77" d="M162.721,492.718l0.393,11.281l2.208,0.108V493.31C164.56,493.063,163.644,492.736,162.721,492.718z"/>
</g>
<g>
	<path fill="#363658" d="M106.73,472.199l5.334-6.638v-16.994l-10.668,21.367l0.361,9.205c1.334,0.824,2.587,1.833,3.887,2.804&#10;&#9;&#9;L106.73,472.199z"/>
	<path fill="#23233A" d="M101.757,479.14l0.957,24.48l1.795-0.003l1.136-21.674C104.344,480.973,103.092,479.964,101.757,479.14z"/>
</g>
<path d="M 665.1740112304688 74.57599639892578 L 664.7160034179688 75.77999877929688 L 661.364990234375 84.5999984741211 L 665.1740112304688 82.33300018310547 Z" fill="#3C3E62"/>
<path d="M 665.1740112304688 208.94200134277344 L 664.7160034179688 210.14599609375 L 661.364990234375 218.96600341796875 L 665.1740112304688 216.6999969482422 Z" fill="#3C3E62"/>
<path d="M 666.0499877929688 332.0220031738281 L 665.5919799804688 333.22698974609375 L 662.2410278320312 342.0469970703125 L 666.0499877929688 339.77899169921875 Z" fill="#3C3E62"/>
</svg>