<?xml version="1.0" encoding="utf-8"?>
<!-- Generator: Adobe Illustrator 17.0.0, SVG Export Plug-In . SVG Version: 6.00 Build 0)  -->
<!DOCTYPE svg PUBLIC "-//W3C//DTD SVG 1.1//EN" "http://www.w3.org/Graphics/SVG/1.1/DTD/svg11.dtd">
<svg version="1.1" xmlns="http://www.w3.org/2000/svg" xmlns:xlink="http://www.w3.org/1999/xlink" x="0px" y="0px" width="1400px"
	 height="980px" viewBox="0 0 1400 980" enable-background="new 0 0 1400 980" xml:space="preserve">
<g id="Layer_1">
	<linearGradient id="SVGID_1_" gradientUnits="userSpaceOnUse" x1="700" y1="488.0909" x2="700" y2="22.4771">
		<stop  offset="0" style="stop-color:#FFB977"/>
		<stop  offset="1" style="stop-color:#8C22F7"/>
	</linearGradient>
	<rect fill-rule="evenodd" clip-rule="evenodd" fill="url(#SVGID_1_)" width="1400" height="979"/>
</g>
<g id="Layer_2">
	<g>
		<linearGradient id="SVGID_2_" gradientUnits="userSpaceOnUse" x1="711.835" y1="446.3658" x2="711.835" y2="311.2117">
			<stop  offset="0" style="stop-color:#FFB977"/>
			<stop  offset="1" style="stop-color:#8C22F7"/>
		</linearGradient>
		<polygon fill-rule="evenodd" clip-rule="evenodd" fill="url(#SVGID_2_)" points="1400,311.2 712.5,348.3 1038.4,355.6 23.7,414.9 
			1400,446.4 		"/>
		<linearGradient id="SVGID_3_" gradientUnits="userSpaceOnUse" x1="557.1537" y1="328.7401" x2="557.1537" y2="224.6893">
			<stop  offset="0" style="stop-color:#FFB977"/>
			<stop  offset="1" style="stop-color:#8C22F7"/>
		</linearGradient>
		<polygon fill-rule="evenodd" clip-rule="evenodd" fill="url(#SVGID_3_)" points="0,328.7 1114.3,282.2 143.9,274 408.8,245.2 
			0,224.7 		"/>
	</g>
	<g>
		<linearGradient id="SVGID_4_" gradientUnits="userSpaceOnUse" x1="511.8752" y1="490" x2="511.8752" y2="210.6621">
			<stop  offset="0" style="stop-color:#FF4998"/>
			<stop  offset="1" style="stop-color:#5600AC"/>
		</linearGradient>
		<path fill-rule="evenodd" clip-rule="evenodd" fill="url(#SVGID_4_)" d="M0,490c0,0,682.5,0,1023.8,0
			c-41.5-25.9-85.6-30.9-133.3-52.3c-48.2-20.5-83-31.6-126.3-25.6c-57,7-57.8-38.9-101.9-45.2c-52.9-6.3-73.4,13.6-123.7,11.8
			c-61.5-6.4-133.3-78.7-202.2-85.9c-73.8-2-106.9-49.9-174.8-68.1c-51.6-14.8-102.3-22.2-161.5,0C0,313,0,401.1,0,490L0,490z"/>
		<linearGradient id="SVGID_5_" gradientUnits="userSpaceOnUse" x1="511.8752" y1="490" x2="511.8752" y2="374.2246">
			<stop  offset="0" style="stop-color:#BA2BA0"/>
			<stop  offset="1" style="stop-color:#470B96"/>
		</linearGradient>
		<path fill-rule="evenodd" clip-rule="evenodd" fill="url(#SVGID_5_)" d="M0,490c340.7,0,682.5,0,1023.8,0
			c-7.4-4.9-14.8-8.8-22.4-12.3c-393.5,16.5-311.3-27.1-402.2-31.4c-38-0.7-49.8,12.7-76.7,12c-52.6-6.9-43.7-33.1-97.8-38.5
			c-69.2-1.5-93.1,19.2-145.2,22.2c-81.2,1.7-115.8-38.8-177.1-53.3c-53.8-15.3-82.7-16.9-102.5-12V490z"/>
	</g>
	<linearGradient id="SVGID_6_" gradientUnits="userSpaceOnUse" x1="700" y1="980" x2="700" y2="490">
		<stop  offset="0" style="stop-color:#FFB977"/>
		<stop  offset="1" style="stop-color:#8C22F7"/>
	</linearGradient>
	<rect y="490" fill-rule="evenodd" clip-rule="evenodd" fill="url(#SVGID_6_)" width="1400" height="490"/>
	<g>
		<linearGradient id="SVGID_7_" gradientUnits="userSpaceOnUse" x1="1090.0729" y1="671.4009" x2="1090.0729" y2="490">
			<stop  offset="0" style="stop-color:#FF7C58"/>
			<stop  offset="1" style="stop-color:#720BDA"/>
		</linearGradient>
		<path fill-rule="evenodd" clip-rule="evenodd" fill="url(#SVGID_7_)" d="M780.1,496.9c50.8,10.1,70.6,21.9,83.7,34.6
			c11.8,13.3,45.5,40.3,91.1,33.3c53.7-9.5,97.8-9.7,153,6.7c63.4,21.1,128.3,88.9,213.1,96.3c26.3,1.2,53.1,2.4,79.1,3.7
			c0-60.6,0-120.9,0-181.4c-204.9,0-409.4,0-614,0C784.1,492.5,782.1,494.6,780.1,496.9L780.1,496.9z"/>
		<linearGradient id="SVGID_8_" gradientUnits="userSpaceOnUse" x1="1087.0236" y1="588.8316" x2="1087.0236" y2="365.2037">
			<stop  offset="0" style="stop-color:#FF7C58"/>
			<stop  offset="1" style="stop-color:#720BDA"/>
		</linearGradient>
		<path fill-rule="evenodd" clip-rule="evenodd" fill="url(#SVGID_8_)" d="M820.4,502c33.1,6.9,45.8,24.9,101.1,30.8
			c69.9,6.8,101.2-19.7,207.4,5.9c47.4,16.8,72.4,25.6,119.8,42.4c63.7,21.4,108.1-8.3,151.3-8.3c0-60.7,0-121.4,0-182.2
			c-54.3,0-121.3-41.8-176.6-18.1c-34.5,18.8-68.8,43-109.3,46.2c-49.4,4-74.3-21-127.4-4.4c-25.7,11.9-51.3,23.7-77,35.5
			c-30.9,13.8-51.4,4-77,5.9c-30.4-0.2-60.4,20.8-58.5,33.9C775.5,502.8,801.7,496.8,820.4,502L820.4,502z"/>
		<linearGradient id="SVGID_9_" gradientUnits="userSpaceOnUse" x1="1087.0208" y1="588.8316" x2="1087.0208" y2="464.209">
			<stop  offset="0" style="stop-color:#BA2BA0"/>
			<stop  offset="1" style="stop-color:#470B96"/>
		</linearGradient>
		<path fill-rule="evenodd" clip-rule="evenodd" fill="url(#SVGID_9_)" d="M820.4,502c33.1,6.9,45.8,24.9,101.1,30.8
			c69.9,6.8,101.2-19.7,207.4,5.9c47.4,16.8,72.4,25.6,119.8,42.4c63.7,21.4,108.1-8.3,151.3-8.3v-79.3c-8.6-0.3-18.8,0.3-37.8,4.5
			c-56.9,13.6-67.2,57.9-113.4,47.4c-75.1-20.5-70-62.5-124.8-63.3c-44.3,0.1-74.4,19-137.8,20.8c-39.8,0.5-91.3,5.7-78.2-4.9
			c6.8-8.3,58-12.7,55.6-22.2c-44.7,8.3-158.4,2.4-166.1-11.5c-14.6,7.2-24.6,17.7-23.4,25.5C775.5,502.8,801.7,496.8,820.4,502
			L820.4,502z"/>
	</g>
	<g>
		<linearGradient id="SVGID_10_" gradientUnits="userSpaceOnUse" x1="1160.1635" y1="980" x2="1160.1635" y2="891.3571">
			<stop  offset="0" style="stop-color:#FF7C58"/>
			<stop  offset="1" style="stop-color:#720BDA"/>
		</linearGradient>
		<path fill-rule="evenodd" clip-rule="evenodd" fill="url(#SVGID_10_)" d="M986.8,915.7c42.6,50.6,148.5,43.4,160.7,64.3
			c62,0,124,0,186,0c-93.4-29.6-186.7-59.1-280.1-88.6C1031.2,899.5,1009.1,907.5,986.8,915.7L986.8,915.7z"/>
		<linearGradient id="SVGID_11_" gradientUnits="userSpaceOnUse" x1="1191.7921" y1="980" x2="1191.7921" y2="744.5583">
			<stop  offset="0" style="stop-color:#FF7C58"/>
			<stop  offset="1" style="stop-color:#720BDA"/>
		</linearGradient>
		<path fill-rule="evenodd" clip-rule="evenodd" fill="url(#SVGID_11_)" d="M1314.5,980c-50,0-105.6-31.5-147.1-47.1
			c-41.2-10.1-74.7-7.8-112.6-1.6c-29.6,5.5-66.3-3.4-71.1-22.3c-2.3-15.9,20.5-35.2,47.4-44.5c47.4-18,105.9-12.5,157.1-28.2
			c28.1-7.5,42.6-38.4,88.9-45.9c26-4.7,47.7,7.3,77.1-3c19-8.4,31-28.6,45.8-42.9c0,78.3,0,156.4,0,235.4
			C1371.6,980,1342.9,980,1314.5,980L1314.5,980z"/>
		<linearGradient id="SVGID_12_" gradientUnits="userSpaceOnUse" x1="1191.7889" y1="980" x2="1191.7889" y2="881.3505">
			<stop  offset="0" style="stop-color:#BA2BA0"/>
			<stop  offset="1" style="stop-color:#470B96"/>
		</linearGradient>
		<path fill-rule="evenodd" clip-rule="evenodd" fill="url(#SVGID_12_)" d="M1314.5,980c-50,0-105.6-31.5-147.1-47.1
			c-41.2-10.1-74.7-7.8-112.6-1.6c-29.6,5.5-66.3-3.4-71.1-22.3c-1.2-7.7,3.6-16.2,11.8-23.9c-3.5,17.1,17.8,25.7,54,19.2
			c46.9-6.6,103.1-31.5,140.8-20c-22.2,7.3-59.3,24.2-20,31.8c28.9,6.8,30.3-13.1,71.5,1.5c15.5,8.1,34.2-14.5,63.1-12.9
			c23.4,1.8,65.4,3.4,64.7,18.1c-1,12.7-49.7,6.2-50.3,16.7c-0.3,5,43.7,9.4,80.7,4.1V980C1371.6,980,1342.9,980,1314.5,980
			L1314.5,980z"/>
	</g>
	<g>
		<linearGradient id="SVGID_13_" gradientUnits="userSpaceOnUse" x1="424.4677" y1="979.4948" x2="424.4677" y2="710.1313">
			<stop  offset="0" style="stop-color:#FF7C58"/>
			<stop  offset="1" style="stop-color:#720BDA"/>
		</linearGradient>
		<path fill-rule="evenodd" clip-rule="evenodd" fill="url(#SVGID_13_)" d="M848.9,712.7c-14.4,38.3-99,29.6-121,57.3
			C696,813,556.6,794.9,509.2,827.2c-53.1,36.3-107.8,65.5-162.1,86.1c-58.9,21.5-109.4,21.4-130.1,66.2c-72.3,0-144.7-0.6-216.9,0
			C0.7,951,0,922,0,893.4c62.7-37,110.9-72.2,173.6-109.2c119.5-10.1,239-20.2,358.5-30.4c56-6.4,111.9-12.8,167.8-19.2
			c38.9-8.2,77.8-16.3,116.6-24.5C827.4,711,838.1,711.8,848.9,712.7L848.9,712.7z"/>
		<linearGradient id="SVGID_14_" gradientUnits="userSpaceOnUse" x1="424.4677" y1="907.7615" x2="424.4677" y2="470.0083">
			<stop  offset="0" style="stop-color:#FF7C58"/>
			<stop  offset="1" style="stop-color:#720BDA"/>
		</linearGradient>
		<path fill-rule="evenodd" clip-rule="evenodd" fill="url(#SVGID_14_)" d="M0,907.5c0,5.2,96.3-57,166-83.7
			c69.9-16,141.2,1.3,210.4,9.7c84.4,7.1,80.3-52.8,147.2-52.9c53.1-4,156.8,1.3,190.6-31.6c27.9-32.6,128.4,1.5,134.8-36.3
			c2.5-37-189.9-72.6-253.3-94c-59.2-16.3-138.5,3.7-204.4-13.3c-63-16.9-99.9-87.8-156.4-87.8c-33.7-1-16.3-0.5-48.4-1.5
			c-39,1.5-67.7-19.8-92.3-32.5c-19.3-8.7-55.8-20.2-94-8.6C0,619.1,0,763.3,0,907.5L0,907.5z"/>
		<linearGradient id="SVGID_15_" gradientUnits="userSpaceOnUse" x1="421.3764" y1="907.7615" x2="421.3764" y2="716.9036">
			<stop  offset="0" style="stop-color:#BA2BA0"/>
			<stop  offset="1" style="stop-color:#470B96"/>
		</linearGradient>
		<path fill-rule="evenodd" clip-rule="evenodd" fill="url(#SVGID_15_)" d="M0,907.5c65.4,5.2,96.3-57,166-83.7
			c69.9-16,141.2,1.3,210.4,9.7c84.4,7.1,80.3-52.8,147.2-52.9c53.1-4,156.8,1.3,190.6-31.6c24.3-28.4,103.9-6.2,128.1-25.1
			c0.1-0.1,0.3-0.3,0.5-0.4l0,0c-65.6,5.3-82.9-7.5-125.1-6.5c-104.2,1.1-3.6,26.7-124.1,26.7c-30.6-3-123.4-8.9-159.3,5.9
			c-29.1,13.3-39.8,39.6-87.4,31.9c-30.1-7.4-59.3-8.7-90.4-14.1c-68.2-14.7-116.6-11.1-175.2,8.1C46.9,791,27.2,816.2,0,831V907.5z
			"/>
	</g>
	<g>
		<linearGradient id="SVGID_16_" gradientUnits="userSpaceOnUse" x1="839.6384" y1="802.4265" x2="839.6384" y2="797.0735">
			<stop  offset="0" style="stop-color:#FFB977"/>
			<stop  offset="1" style="stop-color:#8C22F7"/>
		</linearGradient>
		<path fill-rule="evenodd" clip-rule="evenodd" fill="url(#SVGID_16_)" d="M839.6,797.1c11.9,0,21.5,1.2,21.5,2.7
			c0,1.5-9.6,2.7-21.5,2.7c-11.9,0-21.5-1.2-21.5-2.7C818.1,798.3,827.7,797.1,839.6,797.1L839.6,797.1z"/>
		<linearGradient id="SVGID_17_" gradientUnits="userSpaceOnUse" x1="869.2797" y1="812.4677" x2="869.2797" y2="809.074">
			<stop  offset="0" style="stop-color:#FFB977"/>
			<stop  offset="1" style="stop-color:#8C22F7"/>
		</linearGradient>
		<path fill-rule="evenodd" clip-rule="evenodd" fill="url(#SVGID_17_)" d="M869.3,809.1c7.6,0,13.7,0.8,13.7,1.7
			c0,0.9-6.1,1.7-13.7,1.7c-7.6,0-13.7-0.8-13.7-1.7C855.6,809.8,861.7,809.1,869.3,809.1L869.3,809.1z"/>
		<linearGradient id="SVGID_18_" gradientUnits="userSpaceOnUse" x1="1147.7224" y1="720.2775" x2="1147.7224" y2="714.2947">
			<stop  offset="0" style="stop-color:#FFB977"/>
			<stop  offset="1" style="stop-color:#8C22F7"/>
		</linearGradient>
		<path fill-rule="evenodd" clip-rule="evenodd" fill="url(#SVGID_18_)" d="M1147.7,714.3c13.4,0,24.2,1.3,24.2,3s-10.8,3-24.2,3
			c-13.4,0-24.2-1.4-24.2-3S1134.4,714.3,1147.7,714.3L1147.7,714.3z"/>
		<linearGradient id="SVGID_19_" gradientUnits="userSpaceOnUse" x1="1272.1669" y1="634.035" x2="1272.1669" y2="628.0522">
			<stop  offset="0" style="stop-color:#FFB977"/>
			<stop  offset="1" style="stop-color:#8C22F7"/>
		</linearGradient>
		<path fill-rule="evenodd" clip-rule="evenodd" fill="url(#SVGID_19_)" d="M1272.1,628.1c13.4,0,24.2,1.3,24.2,3
			c0,1.7-10.8,3-24.2,3c-13.4,0-24.2-1.3-24.2-3C1248,629.4,1258.8,628.1,1272.1,628.1L1272.1,628.1z"/>
		<linearGradient id="SVGID_20_" gradientUnits="userSpaceOnUse" x1="1195.7014" y1="621.5447" x2="1195.7014" y2="617.4163">
			<stop  offset="0" style="stop-color:#FFB977"/>
			<stop  offset="1" style="stop-color:#8C22F7"/>
		</linearGradient>
		<path fill-rule="evenodd" clip-rule="evenodd" fill="url(#SVGID_20_)" d="M1195.7,617.4c9.2,0,16.7,0.9,16.7,2.1
			c0,1.1-7.5,2.1-16.7,2.1c-9.2,0-16.7-0.9-16.7-2.1C1179,618.3,1186.5,617.4,1195.7,617.4L1195.7,617.4z"/>
		<linearGradient id="SVGID_21_" gradientUnits="userSpaceOnUse" x1="1319.131" y1="657.861" x2="1319.131" y2="653.7326">
			<stop  offset="0" style="stop-color:#FFB977"/>
			<stop  offset="1" style="stop-color:#8C22F7"/>
		</linearGradient>
		<path fill-rule="evenodd" clip-rule="evenodd" fill="url(#SVGID_21_)" d="M1319.1,653.7c6.8,0,12.3,0.9,12.3,2.1
			c0,1.1-5.5,2.1-12.3,2.1c-6.8,0-12.3-0.9-12.3-2.1C1306.8,654.6,1312.3,653.7,1319.1,653.7L1319.1,653.7z"/>
		<linearGradient id="SVGID_22_" gradientUnits="userSpaceOnUse" x1="932.5868" y1="694.6672" x2="932.5868" y2="690.5387">
			<stop  offset="0" style="stop-color:#FFB977"/>
			<stop  offset="1" style="stop-color:#8C22F7"/>
		</linearGradient>
		<path fill-rule="evenodd" clip-rule="evenodd" fill="url(#SVGID_22_)" d="M932.6,690.5c6.8,0,12.3,0.9,12.3,2.1
			c0,1.2-5.5,2.1-12.3,2.1c-6.8,0-12.3-0.9-12.3-2.1C920.3,691.4,925.8,690.5,932.6,690.5L932.6,690.5z"/>
		<linearGradient id="SVGID_23_" gradientUnits="userSpaceOnUse" x1="958.501" y1="703.9386" x2="958.501" y2="699.7752">
			<stop  offset="0" style="stop-color:#FFB977"/>
			<stop  offset="1" style="stop-color:#8C22F7"/>
		</linearGradient>
		<path fill-rule="evenodd" clip-rule="evenodd" fill="url(#SVGID_23_)" d="M958.5,699.8c6.8,0,12.3,0.9,12.3,2.1
			c0,1.2-5.5,2.1-12.3,2.1c-6.8,0-12.3-0.9-12.3-2.1C946.2,700.7,951.7,699.8,958.5,699.8L958.5,699.8z"/>
		<linearGradient id="SVGID_24_" gradientUnits="userSpaceOnUse" x1="1201.0907" y1="651.4584" x2="1201.0907" y2="647.295">
			<stop  offset="0" style="stop-color:#FFB977"/>
			<stop  offset="1" style="stop-color:#8C22F7"/>
		</linearGradient>
		<path fill-rule="evenodd" clip-rule="evenodd" fill="url(#SVGID_24_)" d="M1201.1,647.3c6.8,0,12.3,0.9,12.3,2.1
			c0,1.2-5.5,2.1-12.3,2.1s-12.3-0.9-12.3-2.1C1188.8,648.2,1194.3,647.3,1201.1,647.3L1201.1,647.3z"/>
		<linearGradient id="SVGID_25_" gradientUnits="userSpaceOnUse" x1="734.844" y1="629.9766" x2="734.844" y2="623.9938">
			<stop  offset="0" style="stop-color:#FFB977"/>
			<stop  offset="1" style="stop-color:#8C22F7"/>
		</linearGradient>
		<path fill-rule="evenodd" clip-rule="evenodd" fill="url(#SVGID_25_)" d="M734.9,624c13.4,0,24.2,1.3,24.2,3c0,1.7-10.8,3-24.2,3
			c-13.4,0-24.2-1.3-24.2-3C710.6,625.3,721.5,624,734.9,624L734.9,624z"/>
		<linearGradient id="SVGID_26_" gradientUnits="userSpaceOnUse" x1="770.2946" y1="615.2121" x2="770.2946" y2="611.4685">
			<stop  offset="0" style="stop-color:#FFB977"/>
			<stop  offset="1" style="stop-color:#8C22F7"/>
		</linearGradient>
		<path fill-rule="evenodd" clip-rule="evenodd" fill="url(#SVGID_26_)" d="M770.3,611.5c8.4,0,15.2,0.8,15.2,1.9
			c0,1-6.8,1.9-15.2,1.9c-8.4,0-15.2-0.8-15.2-1.9C755.1,612.3,761.9,611.5,770.3,611.5L770.3,611.5z"/>
	</g>
	<g>
		<linearGradient id="SVGID_27_" gradientUnits="userSpaceOnUse" x1="562.2455" y1="980" x2="562.2455" y2="943.9124">
			<stop  offset="0" style="stop-color:#FFB977"/>
			<stop  offset="1" style="stop-color:#8C22F7"/>
		</linearGradient>
		<path fill-rule="evenodd" clip-rule="evenodd" fill="url(#SVGID_27_)" d="M562.3,943.9c14.2,0,39.4-1.6,17.9,18.4
			c41.7-22.8,71.5,1.5,71.5,14.5c0,1.1-0.3,2.1-0.9,3.1H473.5c-0.5-1-0.7-2-0.7-3.1c0-10.3,20.4-23.9,64.1-14.2
			C506,947.4,540.7,943.9,562.3,943.9L562.3,943.9z"/>
		<linearGradient id="SVGID_28_" gradientUnits="userSpaceOnUse" x1="825.5002" y1="928.554" x2="825.5002" y2="879.9012">
			<stop  offset="0" style="stop-color:#FFB977"/>
			<stop  offset="1" style="stop-color:#8C22F7"/>
		</linearGradient>
		<path fill-rule="evenodd" clip-rule="evenodd" fill="url(#SVGID_28_)" d="M825.5,879.9c9.4,0,26.2-1.2,11.9,13.6
			c27.8-16.9,47.5,1.2,47.5,10.7c0,6.8-14.9,11.3-42.2,2.5c34.4,14.3-0.9,21.8-17.3,21.8c-15.5,0-33.2-8-15.3-19.6
			c-31.1,8.6-44.2,2.4-44.2-4.7c0-7.6,13.6-17.6,42.6-10.5C788.2,882.5,811.2,879.9,825.5,879.9L825.5,879.9z"/>
		<linearGradient id="SVGID_29_" gradientUnits="userSpaceOnUse" x1="720.8511" y1="884.3505" x2="720.8511" y2="840.1364">
			<stop  offset="0" style="stop-color:#FFB977"/>
			<stop  offset="1" style="stop-color:#8C22F7"/>
		</linearGradient>
		<path fill-rule="evenodd" clip-rule="evenodd" fill="url(#SVGID_29_)" d="M727,840.2c9.4,0.2,26.4-0.5,8.5,12.6
			c31.8-14.6,46.2,2,44.5,10.9c-1,5.2-12.7,9.6-37.7,1c23.4,13.8-11.2,20-27.4,19.6c-15.4-0.3-35.8-7.1-15.2-17.2
			c-33.1,7.1-39.5,0.1-37.8-6.3c1.9-6.9,17.8-15.7,44.9-8.5C689.2,841.5,712.7,839.8,727,840.2L727,840.2z"/>
		<linearGradient id="SVGID_30_" gradientUnits="userSpaceOnUse" x1="1020.9718" y1="834.8725" x2="1020.9718" y2="805.413">
			<stop  offset="0" style="stop-color:#FFB977"/>
			<stop  offset="1" style="stop-color:#8C22F7"/>
		</linearGradient>
		<path fill-rule="evenodd" clip-rule="evenodd" fill="url(#SVGID_30_)" d="M1025.8,805.4c7.3,0.2,20.7-0.3,6.6,8.4
			c25-9.8,36.4,1.4,35,7.2c-0.8,3.5-10,6.4-29.6,0.7c18.4,9.2-8.9,13.4-21.6,13.1c-12.1-0.2-28.2-4.7-12-11.5
			c-26,4.7-31.1,0.1-29.7-4.2c1.5-4.6,14.1-10.4,35.3-5.6C996.1,806.4,1014.6,805.2,1025.8,805.4L1025.8,805.4z"/>
		<linearGradient id="SVGID_31_" gradientUnits="userSpaceOnUse" x1="1322.0553" y1="671.5865" x2="1322.0553" y2="643.4161">
			<stop  offset="0" style="stop-color:#FFB977"/>
			<stop  offset="1" style="stop-color:#8C22F7"/>
		</linearGradient>
		<path fill-rule="evenodd" clip-rule="evenodd" fill="url(#SVGID_31_)" d="M1326.6,643.4c7.1,0.1,19.8-0.3,6.4,8
			c23.9-9.3,34.8,1.3,33.5,6.9c-0.8,3.3-9.6,6.2-28.3,0.6c17.6,8.8-8.5,12.8-20.6,12.5c-11.6-0.2-27-4.5-11.4-11
			c-24.8,4.5-29.7,0.1-28.4-4c1.4-4.4,13.4-10,33.8-5.4C1298.3,644.3,1316,643.2,1326.6,643.4L1326.6,643.4z"/>
		<linearGradient id="SVGID_32_" gradientUnits="userSpaceOnUse" x1="953.4198" y1="980" x2="953.4198" y2="933.8502">
			<stop  offset="0" style="stop-color:#FFB977"/>
			<stop  offset="1" style="stop-color:#8C22F7"/>
		</linearGradient>
		<path fill-rule="evenodd" clip-rule="evenodd" fill="url(#SVGID_32_)" d="M961.8,933.9c12.9,0.3,36.2-0.6,11.6,17.4
			c43.7-20.1,63.6,2.8,61.2,15c-1.3,7.2-17.5,13.5-51.8,1.6c7.7,4.5,10.8,8.4,10.8,12.1H913c1.4-3.7,5-5.7,11.2-8.8
			c-45.5,9.8-54.4,0-51.9-8.8c2.6-9.5,24.6-21.6,61.8-11.7C909.9,935.9,942.3,933.4,961.8,933.9L961.8,933.9z"/>
	</g>
	<g>
		<g>
			<linearGradient id="SVGID_33_" gradientUnits="userSpaceOnUse" x1="398.0111" y1="980" x2="398.0111" y2="602.4924">
				<stop  offset="0" style="stop-color:#BA2BA0"/>
				<stop  offset="1" style="stop-color:#470B96"/>
			</linearGradient>
			<path fill-rule="evenodd" clip-rule="evenodd" fill="url(#SVGID_33_)" d="M340.6,980c10.8,0,51.3-272.1,114.8-377.5
				c-41.3,116-68.6,237.5-60.5,377.5C376.8,980,358.7,980,340.6,980L340.6,980z"/>
			<linearGradient id="SVGID_34_" gradientUnits="userSpaceOnUse" x1="435.054" y1="980" x2="435.054" y2="730.5791">
				<stop  offset="0" style="stop-color:#BA2BA0"/>
				<stop  offset="1" style="stop-color:#470B96"/>
			</linearGradient>
			<path fill-rule="evenodd" clip-rule="evenodd" fill="url(#SVGID_34_)" d="M397.2,980c7.1,0,33.9-179.8,75.8-249.4
				C445.7,807.2,427.6,889,433,980C421,980,409.1,980,397.2,980L397.2,980z"/>
			<linearGradient id="SVGID_35_" gradientUnits="userSpaceOnUse" x1="197.3811" y1="980" x2="197.3811" y2="533.3934">
				<stop  offset="0" style="stop-color:#BA2BA0"/>
				<stop  offset="1" style="stop-color:#470B96"/>
			</linearGradient>
			<path fill-rule="evenodd" clip-rule="evenodd" fill="url(#SVGID_35_)" d="M265.3,980c-12.8,0-60.7-322-135.7-446.6
				C178.4,670.6,210.7,816,201.1,980C222.5,980,243.9,980,265.3,980L265.3,980z"/>
			<linearGradient id="SVGID_36_" gradientUnits="userSpaceOnUse" x1="80.3908" y1="980" x2="80.3908" y2="643.7068">
				<stop  offset="0" style="stop-color:#BA2BA0"/>
				<stop  offset="1" style="stop-color:#470B96"/>
			</linearGradient>
			<path fill-rule="evenodd" clip-rule="evenodd" fill="url(#SVGID_36_)" d="M14.1,980c10,0,16.3-305.6,132.7-336.3
				C47.9,690.2,56.8,852,64.2,980C47.5,980,30.8,980,14.1,980L14.1,980z"/>
			<linearGradient id="SVGID_37_" gradientUnits="userSpaceOnUse" x1="139.9883" y1="980" x2="139.9883" y2="533.3934">
				<stop  offset="0" style="stop-color:#BA2BA0"/>
				<stop  offset="1" style="stop-color:#470B96"/>
			</linearGradient>
			<path fill-rule="evenodd" clip-rule="evenodd" fill="url(#SVGID_37_)" d="M72.1,980c12.7,0,60.6-322,135.7-446.6
				C159,670.6,126.7,816,136.3,980C114.9,980,93.5,980,72.1,980L72.1,980z"/>
			<linearGradient id="SVGID_38_" gradientUnits="userSpaceOnUse" x1="292.7092" y1="980" x2="292.7092" y2="654.3428">
				<stop  offset="0" style="stop-color:#BA2BA0"/>
				<stop  offset="1" style="stop-color:#470B96"/>
			</linearGradient>
			<path fill-rule="evenodd" clip-rule="evenodd" fill="url(#SVGID_38_)" d="M262.8,980c9.9,0,9.7-210.5,55.3-325.7
				c-6.5,124-13.2,219.7,4.4,325.7C302.7,980,282.8,980,262.8,980L262.8,980z"/>
		</g>
		<g>
			<linearGradient id="SVGID_39_" gradientUnits="userSpaceOnUse" x1="498.0286" y1="980" x2="498.0286" y2="825.4283">
				<stop  offset="0" style="stop-color:#FF4998"/>
				<stop  offset="1" style="stop-color:#5600AC"/>
			</linearGradient>
			<path fill-rule="evenodd" clip-rule="evenodd" fill="url(#SVGID_39_)" d="M483.8,980c4.7,0,4.6-99.9,26.3-154.6
				c-3.1,58.9-6.2,103.6,2.1,154.6C502.8,980,493.3,980,483.8,980L483.8,980z"/>
			<linearGradient id="SVGID_40_" gradientUnits="userSpaceOnUse" x1="568.3873" y1="980" x2="568.3873" y2="722.847">
				<stop  offset="0" style="stop-color:#FF4998"/>
				<stop  offset="1" style="stop-color:#5600AC"/>
			</linearGradient>
			<path fill-rule="evenodd" clip-rule="evenodd" fill="url(#SVGID_40_)" d="M541.9,980c4.7,0,4.6-166.2,26.2-257.2
				C565,820.8,586.6,896,594.9,980C577.2,980,559.5,980,541.9,980L541.9,980z"/>
			<linearGradient id="SVGID_41_" gradientUnits="userSpaceOnUse" x1="608.2123" y1="980" x2="608.2123" y2="825.4283">
				<stop  offset="0" style="stop-color:#FF4998"/>
				<stop  offset="1" style="stop-color:#5600AC"/>
			</linearGradient>
			<path fill-rule="evenodd" clip-rule="evenodd" fill="url(#SVGID_41_)" d="M594,980c4.7,0,4.6-99.9,26.2-154.6
				c-3.1,58.9-6.2,103.6,2.1,154.6C612.9,980,603.5,980,594,980L594,980z"/>
		</g>
		<g>
			<linearGradient id="SVGID_42_" gradientUnits="userSpaceOnUse" x1="81.4056" y1="980" x2="81.4056" y2="571.739">
				<stop  offset="0" style="stop-color:#FF4998"/>
				<stop  offset="1" style="stop-color:#5600AC"/>
			</linearGradient>
			<path fill-rule="evenodd" clip-rule="evenodd" fill="url(#SVGID_42_)" d="M147.7,980c-0.8,0-9.3-379.9-132.7-408.3
				C120.4,616.6,106,896,97.6,980C114.3,980,131,980,147.7,980L147.7,980z"/>
			<linearGradient id="SVGID_43_" gradientUnits="userSpaceOnUse" x1="211.2919" y1="980" x2="211.2919" y2="683.5917">
				<stop  offset="0" style="stop-color:#FF4998"/>
				<stop  offset="1" style="stop-color:#5600AC"/>
			</linearGradient>
			<path fill-rule="evenodd" clip-rule="evenodd" fill="url(#SVGID_43_)" d="M153.9,980c10.8,0,51.3-213.7,114.7-296.4
				C227.4,774.7,200.1,871,208.2,980C190.1,980,172,980,153.9,980L153.9,980z"/>
			<linearGradient id="SVGID_44_" gradientUnits="userSpaceOnUse" x1="58.9443" y1="980" x2="58.9443" y2="710.756">
				<stop  offset="0" style="stop-color:#FF4998"/>
				<stop  offset="1" style="stop-color:#5600AC"/>
			</linearGradient>
			<path fill-rule="evenodd" clip-rule="evenodd" fill="url(#SVGID_44_)" d="M117.9,980C109.1,980,54.3,789.4,0,710.8V740
				c34.6,73.1,69.6,139,63.6,240C81.7,980,99.8,980,117.9,980L117.9,980z"/>
			<linearGradient id="SVGID_45_" gradientUnits="userSpaceOnUse" x1="311.5019" y1="980" x2="311.5019" y2="635.6599">
				<stop  offset="0" style="stop-color:#FF4998"/>
				<stop  offset="1" style="stop-color:#5600AC"/>
			</linearGradient>
			<path fill-rule="evenodd" clip-rule="evenodd" fill="url(#SVGID_45_)" d="M352.8,980c-7.8,0-36.9-248.2-82.6-344.3
				C299.9,741.4,319.6,853,313.8,980C326.8,980,339.8,980,352.8,980L352.8,980z"/>
			<g>
				<linearGradient id="SVGID_46_" gradientUnits="userSpaceOnUse" x1="394.7915" y1="980" x2="394.7915" y2="807.2714">
					<stop  offset="0" style="stop-color:#FF4998"/>
					<stop  offset="1" style="stop-color:#5600AC"/>
				</linearGradient>
				<path fill-rule="evenodd" clip-rule="evenodd" fill="url(#SVGID_46_)" d="M379.8,980c4.6,0,2.8-120,21.7-172.1
					c1.2-3.4,4.9,7.2,6.3,3.7c-9.7,69.1-6.9,115.4,1.9,168.4C399.8,980,389.8,980,379.8,980L379.8,980z"/>
				<linearGradient id="SVGID_47_" gradientUnits="userSpaceOnUse" x1="418.4833" y1="846.0445" x2="418.4833" y2="738.0211">
					<stop  offset="0" style="stop-color:#FFB977"/>
					<stop  offset="1" style="stop-color:#8C22F7"/>
				</linearGradient>
				<path fill-rule="evenodd" clip-rule="evenodd" fill="url(#SVGID_47_)" d="M433.2,740.3c-5.2-1.5-11.9,5-16.4,15.3
					c-5.5-10.9-12.7-18.3-17.9-17.5c-5.1,0.8-6.6,9.6-3.9,21c-11-7.8-21.5-11.7-25.1-8.7c-3.6,2.9,0.6,11.6,9.6,21
					c-13.6-2.7-24.4-1.9-25.6,2.4c-1.2,4.2,7.5,10.5,20.5,15.4c-12.6,3.3-20.8,8.5-19.2,12.9c1.6,4.4,12.5,6.6,25.9,5.7
					c-8.2,8.3-11.6,16.5-7.7,19.9c4,3.4,14.1,0.9,24.5-5.5c-1.6,11.1,0.6,20.1,5.9,21.6c5.2,1.5,11.9-5,16.4-15.3
					c5.5,10.9,12.7,18.3,17.9,17.5c5.1-0.8,6.5-9.6,3.9-20.9c11,7.8,21.5,11.6,25.1,8.7c3.6-2.9-0.6-11.6-9.6-21
					c13.6,2.6,24.4,1.8,25.6-2.4c1.2-4.2-7.5-10.5-20.5-15.5c12.6-3.3,20.8-8.5,19.2-12.9c-1.6-4.4-12.5-6.6-25.9-5.7
					c8.2-8.3,11.6-16.5,7.7-19.9c-4-3.4-14.1-0.9-24.5,5.5C440.7,750.9,438.4,741.8,433.2,740.3L433.2,740.3z"/>
				<linearGradient id="SVGID_48_" gradientUnits="userSpaceOnUse" x1="418.4723" y1="814.5731" x2="418.4723" y2="769.488">
					<stop  offset="0" style="stop-color:#FF7C58"/>
					<stop  offset="1" style="stop-color:#720BDA"/>
				</linearGradient>
				<path fill-rule="evenodd" clip-rule="evenodd" fill="url(#SVGID_48_)" d="M424.5,770.8c-14.7-4.2-29.3,2-32.6,13.7
					c-3.3,11.7,5.9,24.6,20.5,28.8c14.7,4.2,29.3-2,32.6-13.7C448.4,787.8,439.2,775,424.5,770.8L424.5,770.8z"/>
				<linearGradient id="SVGID_49_" gradientUnits="userSpaceOnUse" x1="388.0723" y1="980" x2="388.0723" y2="833.9301">
					<stop  offset="0" style="stop-color:#FF4998"/>
					<stop  offset="1" style="stop-color:#5600AC"/>
				</linearGradient>
				<path fill-rule="evenodd" clip-rule="evenodd" fill="url(#SVGID_49_)" d="M408.2,980c-10,0-18-105.5-40.3-146.1
					c8.3,45.7,16,105.1,14.5,146.1C391.1,980,399.6,980,408.2,980L408.2,980z"/>
			</g>
			<g>
				<linearGradient id="SVGID_50_" gradientUnits="userSpaceOnUse" x1="150.8195" y1="980" x2="150.8195" y2="816.2292">
					<stop  offset="0" style="stop-color:#FF4998"/>
					<stop  offset="1" style="stop-color:#5600AC"/>
				</linearGradient>
				<path fill-rule="evenodd" clip-rule="evenodd" fill="url(#SVGID_50_)" d="M140.3,980c3.3,0,2-113.8,15.3-163.1
					c0.9-3.2,3.5,6.8,4.4,3.5c-6.8,65.5-4.9,108.6,1.3,159.6C154.3,980,147.3,980,140.3,980L140.3,980z"/>
				<linearGradient id="SVGID_51_" gradientUnits="userSpaceOnUse" x1="155.0889" y1="847.3591" x2="155.0889" y2="758.6734">
					<stop  offset="0" style="stop-color:#FFB977"/>
					<stop  offset="1" style="stop-color:#8C22F7"/>
				</linearGradient>
				<path fill-rule="evenodd" clip-rule="evenodd" fill="url(#SVGID_51_)" d="M143.1,760.6c4.3-1.2,9.8,4.1,13.4,12.5
					c4.5-9,10.5-15,14.7-14.4c4.2,0.7,5.4,7.9,3.2,17.2c9.1-6.4,17.6-9.6,20.6-7.2c3,2.4-0.5,9.5-7.8,17.2c11.2-2.2,20-1.5,21,2
					c1,3.4-6.2,8.6-16.8,12.7c10.3,2.7,17,7,15.7,10.6c-1.3,3.6-10.3,5.4-21.3,4.7c6.7,6.8,9.6,13.5,6.3,16.3
					c-3.3,2.8-11.5,0.8-20.1-4.5c1.3,9.1-0.5,16.5-4.8,17.7c-4.3,1.2-9.8-4.1-13.5-12.5c-4.4,9-10.5,15-14.7,14.4
					c-4.2-0.7-5.4-7.9-3.2-17.2c-9,6.4-17.6,9.5-20.6,7.1c-3-2.4,0.5-9.5,7.9-17.2c-11.2,2.2-20,1.5-21-1.9
					c-1-3.5,6.2-8.6,16.8-12.7c-10.4-2.7-17-6.9-15.7-10.6c1.3-3.6,10.2-5.4,21.3-4.7c-6.8-6.8-9.6-13.5-6.3-16.3
					c3.3-2.8,11.5-0.8,20.1,4.5C136.9,769.2,138.7,761.8,143.1,760.6L143.1,760.6z"/>
				<linearGradient id="SVGID_52_" gradientUnits="userSpaceOnUse" x1="155.0898" y1="821.5158" x2="155.0898" y2="784.5168">
					<stop  offset="0" style="stop-color:#FF7C58"/>
					<stop  offset="1" style="stop-color:#720BDA"/>
				</linearGradient>
				<path fill-rule="evenodd" clip-rule="evenodd" fill="url(#SVGID_52_)" d="M150.2,785.6c12-3.4,24,1.6,26.7,11.2
					c2.7,9.7-4.8,20.2-16.8,23.6c-12,3.4-24-1.6-26.8-11.2C130.6,799.6,138.1,789,150.2,785.6L150.2,785.6z"/>
			</g>
			<g>
				<linearGradient id="SVGID_53_" gradientUnits="userSpaceOnUse" x1="305.6226" y1="980" x2="305.6226" y2="898">
					<stop  offset="0" style="stop-color:#FF4998"/>
					<stop  offset="1" style="stop-color:#5600AC"/>
				</linearGradient>
				<path fill-rule="evenodd" clip-rule="evenodd" fill="url(#SVGID_53_)" d="M313.9,980c-1.6,0-3-54-4.6-82h-12
					c0.5,30,0.7,57,0.5,82C303.2,980,308.5,980,313.9,980L313.9,980z"/>
				<linearGradient id="SVGID_54_" gradientUnits="userSpaceOnUse" x1="300.9332" y1="943.5414" x2="300.9332" y2="841.8289">
					<stop  offset="0" style="stop-color:#FFB977"/>
					<stop  offset="1" style="stop-color:#8C22F7"/>
				</linearGradient>
				<path fill-rule="evenodd" clip-rule="evenodd" fill="url(#SVGID_54_)" d="M314.8,844c-5-1.4-11.2,4.7-15.4,14.4
					c-5.1-10.3-12-17.2-16.9-16.5c-4.9,0.8-6.2,9-3.7,19.7c-10.4-7.3-20.2-11-23.6-8.2c-3.5,2.7,0.5,11,9,19.8
					c-12.8-2.5-22.9-1.7-24.1,2.2c-1.1,4,7.1,9.9,19.3,14.6c-11.9,3-19.6,7.9-18.1,12.1c1.5,4.1,11.7,6.2,24.4,5.4
					c-7.7,7.8-11,15.5-7.2,18.7c3.7,3.2,13.2,0.9,23-5.2c-1.5,10.4,0.6,18.9,5.6,20.3c5,1.4,11.2-4.7,15.4-14.4
					c5.1,10.3,12,17.2,16.9,16.5c4.9-0.8,6.2-9.1,3.7-19.7c10.4,7.3,20.2,11,23.6,8.2c3.5-2.7-0.5-11-9-19.8
					c12.8,2.5,22.9,1.7,24.1-2.2c1.1-4-7.1-9.9-19.3-14.5c11.9-3.1,19.6-8,18.1-12.1c-1.5-4.2-11.7-6.2-24.4-5.4
					c7.7-7.8,11-15.5,7.2-18.7c-3.7-3.2-13.2-0.9-23,5.1C321.8,853.9,319.7,845.4,314.8,844L314.8,844z"/>
				<linearGradient id="SVGID_55_" gradientUnits="userSpaceOnUse" x1="300.9332" y1="913.8928" x2="300.9332" y2="871.4475">
					<stop  offset="0" style="stop-color:#FF7C58"/>
					<stop  offset="1" style="stop-color:#720BDA"/>
				</linearGradient>
				<path fill-rule="evenodd" clip-rule="evenodd" fill="url(#SVGID_55_)" d="M306.6,872.7c-13.8-3.9-27.5,1.9-30.7,12.9
					c-3.1,11.1,5.5,23.2,19.3,27.1c13.8,3.9,27.5-1.9,30.7-12.9C329.1,888.7,320.4,876.6,306.6,872.7L306.6,872.7z"/>
			</g>
			<linearGradient id="SVGID_56_" gradientUnits="userSpaceOnUse" x1="15.4622" y1="980" x2="15.4622" y2="837.1984">
				<stop  offset="0" style="stop-color:#BA2BA0"/>
				<stop  offset="1" style="stop-color:#470B96"/>
			</linearGradient>
			<path fill-rule="evenodd" clip-rule="evenodd" fill="url(#SVGID_56_)" d="M30.9,980C26.2,929,16,881.4,0,837.2V980H30.9z"/>
		</g>
	</g>
	<g>
		<linearGradient id="SVGID_57_" gradientUnits="userSpaceOnUse" x1="1224.7128" y1="980" x2="1224.7128" y2="708.1176">
			<stop  offset="0" style="stop-color:#FF4998"/>
			<stop  offset="1" style="stop-color:#5600AC"/>
		</linearGradient>
		<path fill-rule="evenodd" clip-rule="evenodd" fill="url(#SVGID_57_)" d="M1266,980c-1.3,0-22.6-219.6-82.6-271.9
			c43.2,70.1,54.7,175.9,43.6,271.9C1240,980,1253,980,1266,980L1266,980z"/>
		<linearGradient id="SVGID_58_" gradientUnits="userSpaceOnUse" x1="1260.0934" y1="980" x2="1260.0934" y2="635.6599">
			<stop  offset="0" style="stop-color:#BA2BA0"/>
			<stop  offset="1" style="stop-color:#470B96"/>
		</linearGradient>
		<path fill-rule="evenodd" clip-rule="evenodd" fill="url(#SVGID_58_)" d="M1301.4,980c-7.8,0-36.9-248.2-82.6-344.3
			c29.7,105.8,49.4,217.3,43.6,344.3C1275.4,980,1288.4,980,1301.4,980L1301.4,980z"/>
		<linearGradient id="SVGID_59_" gradientUnits="userSpaceOnUse" x1="1329.6926" y1="980" x2="1329.6926" y2="737.7863">
			<stop  offset="0" style="stop-color:#FF4998"/>
			<stop  offset="1" style="stop-color:#5600AC"/>
		</linearGradient>
		<path fill-rule="evenodd" clip-rule="evenodd" fill="url(#SVGID_59_)" d="M1282.1,980c-2.6,0,8-223,95.5-242.2
			c-65.5,25.3-66.7,168.2-59.4,242.2C1306.2,980,1294.1,980,1282.1,980L1282.1,980z"/>
		<linearGradient id="SVGID_60_" gradientUnits="userSpaceOnUse" x1="1356.8038" y1="980" x2="1356.8038" y2="825.4283">
			<stop  offset="0" style="stop-color:#BA2BA0"/>
			<stop  offset="1" style="stop-color:#470B96"/>
		</linearGradient>
		<path fill-rule="evenodd" clip-rule="evenodd" fill="url(#SVGID_60_)" d="M1337.8,980c9.6,0,12.2-99.9,38.1-154.6
			c-7.6,58.9-14.2,103.6-9.7,154.6C1356.7,980,1347.2,980,1337.8,980L1337.8,980z"/>
		<linearGradient id="SVGID_61_" gradientUnits="userSpaceOnUse" x1="1200.7407" y1="980" x2="1200.7407" y2="862.3743">
			<stop  offset="0" style="stop-color:#FF4998"/>
			<stop  offset="1" style="stop-color:#5600AC"/>
		</linearGradient>
		<path fill-rule="evenodd" clip-rule="evenodd" fill="url(#SVGID_61_)" d="M1219.9,980c-2.9,0-5.5-116.8-38.3-117.6
			c32.4,9.5,25.9,72.6,23.8,117.6C1210.2,980,1215,980,1219.9,980L1219.9,980z"/>
		<g>
			<linearGradient id="SVGID_62_" gradientUnits="userSpaceOnUse" x1="1334.4591" y1="980" x2="1334.4591" y2="794.7673">
				<stop  offset="0" style="stop-color:#FF4998"/>
				<stop  offset="1" style="stop-color:#5600AC"/>
			</linearGradient>
			<path fill-rule="evenodd" clip-rule="evenodd" fill="url(#SVGID_62_)" d="M1346.4,980c-3.7,0-2.2-128.7-17.3-184.5
				c-1-3.6-3.9,7.7-5,3.9c7.7,74.1,5.5,123.6-1.5,180.6C1330.5,980,1338.4,980,1346.4,980L1346.4,980z"/>
			<linearGradient id="SVGID_63_" gradientUnits="userSpaceOnUse" x1="1329.6091" y1="829.9747" x2="1329.6091" y2="729.6953">
				<stop  offset="0" style="stop-color:#FFB977"/>
				<stop  offset="1" style="stop-color:#8C22F7"/>
			</linearGradient>
			<path fill-rule="evenodd" clip-rule="evenodd" fill="url(#SVGID_63_)" d="M1343.2,731.8c-4.9-1.4-11.1,4.7-15.2,14.2
				c-5.1-10.1-11.9-17-16.6-16.2c-4.8,0.7-6.1,8.9-3.7,19.4c-10.2-7.2-19.9-10.8-23.3-8.1c-3.4,2.7,0.5,10.8,8.9,19.5
				c-12.7-2.4-22.6-1.7-23.7,2.2c-1.1,3.9,7,9.8,19,14.3c-11.7,3-19.3,7.9-17.8,12c1.5,4.1,11.5,6.1,24.1,5.3
				c-7.6,7.7-10.8,15.3-7.1,18.5c3.7,3.1,13.1,0.8,22.7-5.1c-1.5,10.3,0.6,18.6,5.5,20c4.9,1.4,11.1-4.7,15.2-14.2
				c5,10.1,11.8,17,16.6,16.3c4.8-0.8,6.1-8.9,3.6-19.5c10.3,7.2,19.9,10.8,23.3,8.1c3.4-2.7-0.5-10.8-8.9-19.5
				c12.7,2.4,22.6,1.7,23.8-2.2c1.1-3.9-7-9.8-19-14.3c11.7-3,19.3-7.9,17.8-11.9c-1.5-4.1-11.6-6.2-24.1-5.4
				c7.6-7.7,10.8-15.3,7.1-18.5c-3.7-3.1-13.1-0.8-22.7,5.1C1350.2,741.6,1348.1,733.2,1343.2,731.8L1343.2,731.8z"/>
			<linearGradient id="SVGID_64_" gradientUnits="userSpaceOnUse" x1="1329.6011" y1="800.7541" x2="1329.6011" y2="758.903">
				<stop  offset="0" style="stop-color:#FF7C58"/>
				<stop  offset="1" style="stop-color:#720BDA"/>
			</linearGradient>
			<path fill-rule="evenodd" clip-rule="evenodd" fill="url(#SVGID_64_)" d="M1335.2,760.1c-13.6-3.9-27.2,1.8-30.3,12.7
				c-3.1,10.9,5.5,22.8,19.1,26.7c13.6,3.8,27.2-1.9,30.2-12.7C1357.4,775.9,1348.8,764,1335.2,760.1L1335.2,760.1z"/>
		</g>
		<g>
			<linearGradient id="SVGID_65_" gradientUnits="userSpaceOnUse" x1="1183.173" y1="980" x2="1183.173" y2="898">
				<stop  offset="0" style="stop-color:#FF4998"/>
				<stop  offset="1" style="stop-color:#5600AC"/>
			</linearGradient>
			<path fill-rule="evenodd" clip-rule="evenodd" fill="url(#SVGID_65_)" d="M1191.4,980c-1.6,0-3-54-4.6-82h-12
				c0.5,30,0.7,57,0.5,82C1180.7,980,1186.1,980,1191.4,980L1191.4,980z"/>
			<linearGradient id="SVGID_66_" gradientUnits="userSpaceOnUse" x1="1178.4835" y1="943.5414" x2="1178.4835" y2="841.8289">
				<stop  offset="0" style="stop-color:#FFB977"/>
				<stop  offset="1" style="stop-color:#8C22F7"/>
			</linearGradient>
			<path fill-rule="evenodd" clip-rule="evenodd" fill="url(#SVGID_66_)" d="M1192.3,844c-4.9-1.4-11.2,4.7-15.4,14.4
				c-5.1-10.3-12-17.2-16.9-16.5c-4.9,0.8-6.2,9-3.7,19.7c-10.4-7.3-20.2-11-23.6-8.2c-3.5,2.7,0.5,11,9,19.8
				c-12.8-2.5-23-1.7-24.1,2.2c-1.1,4,7.1,9.9,19.3,14.6c-11.9,3-19.6,7.9-18.1,12.1c1.5,4.1,11.7,6.2,24.4,5.4
				c-7.7,7.8-11,15.5-7.2,18.7c3.7,3.2,13.2,0.9,23-5.2c-1.5,10.4,0.6,18.9,5.6,20.3c5,1.4,11.2-4.7,15.4-14.4
				c5.1,10.3,12,17.2,16.9,16.5c4.9-0.8,6.2-9.1,3.7-19.7c10.4,7.3,20.2,11,23.6,8.2c3.5-2.7-0.5-11-9-19.8
				c12.8,2.5,22.9,1.7,24.1-2.2c1.1-4-7.1-9.9-19.3-14.5c11.9-3.1,19.6-8,18.1-12.1c-1.5-4.2-11.7-6.2-24.4-5.4
				c7.7-7.8,11-15.5,7.2-18.7c-3.7-3.2-13.3-0.9-23,5.1C1199.4,853.9,1197.3,845.4,1192.3,844L1192.3,844z"/>
			<linearGradient id="SVGID_67_" gradientUnits="userSpaceOnUse" x1="1178.4835" y1="913.8928" x2="1178.4835" y2="871.4475">
				<stop  offset="0" style="stop-color:#FF7C58"/>
				<stop  offset="1" style="stop-color:#720BDA"/>
			</linearGradient>
			<path fill-rule="evenodd" clip-rule="evenodd" fill="url(#SVGID_67_)" d="M1184.2,872.7c-13.8-3.9-27.5,1.9-30.7,12.9
				c-3.1,11.1,5.5,23.2,19.3,27.1c13.8,3.9,27.5-1.9,30.7-12.9C1206.6,888.7,1198,876.6,1184.2,872.7L1184.2,872.7z"/>
		</g>
	</g>
</g>
</svg>
