<?xml version="1.0" encoding="utf-8"?>
<!-- Generator: Adobe Illustrator 17.0.0, SVG Export Plug-In . SVG Version: 6.00 Build 0)  -->
<!DOCTYPE svg PUBLIC "-//W3C//DTD SVG 1.1//EN" "http://www.w3.org/Graphics/SVG/1.1/DTD/svg11.dtd">
<svg version="1.1" xmlns="http://www.w3.org/2000/svg" xmlns:xlink="http://www.w3.org/1999/xlink" x="0px" y="0px" width="1400px"
	 height="980px" viewBox="0 0 1400 980" enable-background="new 0 0 1400 980" xml:space="preserve">
<g id="Layer_1">
	<linearGradient id="SVGID_1_" gradientUnits="userSpaceOnUse" x1="700" y1="980" x2="700" y2="-3.142668e-008">
		<stop  offset="0" style="stop-color:#FFB977"/>
		<stop  offset="1" style="stop-color:#8C22F7"/>
	</linearGradient>
	<rect fill-rule="evenodd" clip-rule="evenodd" fill="url(#SVGID_1_)" width="1400" height="980"/>
</g>
<g id="Layer_2">
	<linearGradient id="SVGID_2_" gradientUnits="userSpaceOnUse" x1="791.9779" y1="691" x2="791.9779" y2="253.5403">
		<stop  offset="0" style="stop-color:#FF7C58"/>
		<stop  offset="1" style="stop-color:#720BDA"/>
	</linearGradient>
	<path fill-rule="evenodd" clip-rule="evenodd" fill="url(#SVGID_2_)" d="M1400,572.9V691H184c56-103,121.2-179.9,213.2-160.4
		C684,591.3,745.6,353.2,876,275.4c195.2-116.5,387,270.2,524,297.5V572.9z"/>
	<g>
		<linearGradient id="SVGID_3_" gradientUnits="userSpaceOnUse" x1="963.2465" y1="428" x2="963.2465" y2="105.6787">
			<stop  offset="0" style="stop-color:#FFB977;stop-opacity:0"/>
			<stop  offset="1" style="stop-color:#FFB977"/>
		</linearGradient>
		<path fill-rule="evenodd" clip-rule="evenodd" fill="url(#SVGID_3_)" d="M1400,106.5c-48.1-8.4-42.1,48.2-65.5,68.6
			c-25.5,22.3-83.6-24-110.1,10.4c-14.8,19.1-3.6,57.3-21.8,74.6c-32.3,30.6-87.7-24.4-124.4-5.4c-30.7,15.9-57.8,67-91.1,68
			c-37.1,1.1-71.3-42.8-107.8-34.3c-46.6,10.8-78,70-123.1,87.8C682.1,405.7,603.1,411,526.5,428H1400V106.5z"/>
		<linearGradient id="SVGID_4_" gradientUnits="userSpaceOnUse" x1="553.0628" y1="691" x2="553.0628" y2="368.5696">
			<stop  offset="0" style="stop-color:#FFB977;stop-opacity:0"/>
			<stop  offset="1" style="stop-color:#FFB977"/>
		</linearGradient>
		<path fill-rule="evenodd" clip-rule="evenodd" fill="url(#SVGID_4_)" d="M0,369.4c61.7-8.4,53.5,48.2,83.1,68.6
			c32.3,22.3,105.9-24,139.5,10.4c18.7,19.1,4.6,57.3,27.6,74.6c40.9,30.6,111.1-24.4,157.5-5.4c38.8,15.9,73.1,67,115.3,68
			c46.9,1.1,90.3-42.8,136.4-34.3c59,10.8,98.7,70,155.9,87.9c93.8,29.3,193.9,34.7,290.8,51.7H0V369.4z"/>
		<linearGradient id="SVGID_5_" gradientUnits="userSpaceOnUse" x1="917.2367" y1="206" x2="917.2367" y2="120.5686">
			<stop  offset="0" style="stop-color:#FFB977;stop-opacity:0"/>
			<stop  offset="1" style="stop-color:#FFB977"/>
		</linearGradient>
		<path fill-rule="evenodd" clip-rule="evenodd" fill="url(#SVGID_5_)" d="M872.4,153.6c-10.6,13.7-36-5.6-52.9,12
			c-13.4,14-29.9-14.1-55.4-1.1c-12.5,6.4-22.9,20.8-36.2,26.1c-21.8,8.6-30.3-7.6-67.6,15.4h257h256.9c-27.8-20-45.8-6.8-67.6-15.4
			c-13.3-5.2-26.2,4.6-39.9,1.4c-10.7-2.5-6.5-21.6-28-17.4c-9.6,1.9-16.7-22.7-25.8-27.4c-13.3-6.9-37.5,17.2-64.1-11.9
			C917.3,100.7,886.3,135.6,872.4,153.6L872.4,153.6z"/>
		<linearGradient id="SVGID_6_" gradientUnits="userSpaceOnUse" x1="341.8561" y1="347" x2="341.8561" y2="297.2641">
			<stop  offset="0" style="stop-color:#FFB977;stop-opacity:0"/>
			<stop  offset="1" style="stop-color:#FFB977"/>
		</linearGradient>
		<path fill-rule="evenodd" clip-rule="evenodd" fill="url(#SVGID_6_)" d="M316,316.3c-6.1,7.9-20.8-3.3-30.5,6.9
			c-7.8,8.1-17.3-8.2-32-0.6c-7.2,3.7-13.2,12.2-20.9,15.3c-12.6,5-17.5-4.9-39,9.1h148.2h148.2c-16-13-26.4-4.2-39-9.1
			c-7.7-3-15.1,2.6-23,0.7c-6.2-1.4-3.7-12.5-16.1-10.1c-5.6,1.1-9.7-13.2-14.9-15.9c-7.6-4-21.6,9.9-37-6.9
			C341.9,285.8,324,305.9,316,316.3L316,316.3z"/>
	</g>
	<g>
		<linearGradient id="SVGID_7_" gradientUnits="userSpaceOnUse" x1="914.4801" y1="691" x2="914.4801" y2="401.5531">
			<stop  offset="0" style="stop-color:#FF7C58"/>
			<stop  offset="1" style="stop-color:#720BDA"/>
		</linearGradient>
		<path fill-rule="evenodd" clip-rule="evenodd" fill="url(#SVGID_7_)" d="M1400,403.1V691H429c69.7-74,145.7-126,218.2-112.7
			c245.1,45,211.6-128,389.1-74.9C1302.6,583,1282.7,382.8,1400,403V403.1z"/>
		<linearGradient id="SVGID_8_" gradientUnits="userSpaceOnUse" x1="1024.1389" y1="691" x2="1024.1389" y2="582.2838">
			<stop  offset="0" style="stop-color:#FF7C58"/>
			<stop  offset="1" style="stop-color:#720BDA"/>
		</linearGradient>
		<path fill-rule="evenodd" clip-rule="evenodd" fill="url(#SVGID_8_)" d="M1400,584.8V691H648.3c238.5-101,571.5-115.5,751.7-106.4
			V584.8z"/>
	</g>
	<g>
		<linearGradient id="SVGID_9_" gradientUnits="userSpaceOnUse" x1="822.5" y1="691" x2="822.5" y2="632">
			<stop  offset="0" style="stop-color:#FFB977"/>
			<stop  offset="1" style="stop-color:#8C22F7"/>
		</linearGradient>
		<rect x="817" y="632" fill-rule="evenodd" clip-rule="evenodd" fill="url(#SVGID_9_)" width="11" height="59"/>
		<linearGradient id="SVGID_10_" gradientUnits="userSpaceOnUse" x1="823.0065" y1="645.955" x2="823.0065" y2="626.6761">
			<stop  offset="0" style="stop-color:#FF7C58"/>
			<stop  offset="1" style="stop-color:#720BDA"/>
		</linearGradient>
		<path fill-rule="evenodd" clip-rule="evenodd" fill="url(#SVGID_10_)" d="M824,626.7c26.9-0.2,22.7,18.4,11.1,15.1
			c-6-1.7-6.4,4.2-12.1,4.2c-5.6,0-4.2-5-10.5-4.2C798.5,643.5,794.6,626.8,824,626.7L824,626.7z"/>
		<linearGradient id="SVGID_11_" gradientUnits="userSpaceOnUse" x1="823.3936" y1="641.4424" x2="823.3936" y2="615.5499">
			<stop  offset="0" style="stop-color:#FF7C58"/>
			<stop  offset="1" style="stop-color:#720BDA"/>
		</linearGradient>
		<path fill-rule="evenodd" clip-rule="evenodd" fill="url(#SVGID_11_)" d="M825,615.6c26.4-0.1,33.1,8.9,27.1,16.4
			c-4.5,5.6-7.2,6.6-13.9,4.9c-3.7-0.9-9.8,4.5-14.5,4.6c-5,0.1-5.3-5.5-13.2-5.3c-7.9,0.2-10,2.5-14.4-1.7
			C789.1,627.8,790.2,615.8,825,615.6L825,615.6z"/>
		<linearGradient id="SVGID_12_" gradientUnits="userSpaceOnUse" x1="823.2615" y1="632.73" x2="823.2615" y2="596.7635">
			<stop  offset="0" style="stop-color:#FF7C58"/>
			<stop  offset="1" style="stop-color:#720BDA"/>
		</linearGradient>
		<path fill-rule="evenodd" clip-rule="evenodd" fill="url(#SVGID_12_)" d="M826.5,596.8c48.1,0,31.8,31.1,27.7,29.8
			c-5.3-1.7-9.2,6.1-16.3,4.5c-5.5-1.2-8.6,1.6-13.4,1.6c-4.1,0-8-2.1-11.7-1.2c-13.1,3.1-12.4-7.8-18.4-4.7
			C787.1,630.5,770.3,596.8,826.5,596.8L826.5,596.8z"/>
		<linearGradient id="SVGID_13_" gradientUnits="userSpaceOnUse" x1="823.096" y1="622.304" x2="823.096" y2="583.2936">
			<stop  offset="0" style="stop-color:#FF7C58"/>
			<stop  offset="1" style="stop-color:#720BDA"/>
		</linearGradient>
		<path fill-rule="evenodd" clip-rule="evenodd" fill="url(#SVGID_13_)" d="M826.7,583.3c52.1,0,34.5,33.8,30,32.3
			c-5.8-1.9-10,6.6-17.6,4.9c-6-1.3-9.4,1.8-14.5,1.8c-4.4,0-8.7-2.3-12.7-1.3c-14.1,3.4-13.4-8.4-19.9-5.1
			C783.9,619.9,765.7,583.3,826.7,583.3L826.7,583.3z"/>
		<linearGradient id="SVGID_14_" gradientUnits="userSpaceOnUse" x1="822.9358" y1="608.0293" x2="822.9358" y2="573.0425">
			<stop  offset="0" style="stop-color:#FF7C58"/>
			<stop  offset="1" style="stop-color:#720BDA"/>
		</linearGradient>
		<path fill-rule="evenodd" clip-rule="evenodd" fill="url(#SVGID_14_)" d="M826.3,573c49.6,0,32.8,30.3,28.5,29
			c-5.5-1.7-9.5,5.9-16.8,4.4c-5.7-1.2-8.9,1.6-13.8,1.6c-4.2,0-8.2-2-12-1.2c-13.5,3-12.7-7.6-18.9-4.6
			C785.6,605.9,768.3,573,826.3,573L826.3,573z"/>
		<linearGradient id="SVGID_15_" gradientUnits="userSpaceOnUse" x1="824.2754" y1="589.9061" x2="824.2754" y2="564.0152">
			<stop  offset="0" style="stop-color:#FF7C58"/>
			<stop  offset="1" style="stop-color:#720BDA"/>
		</linearGradient>
		<path fill-rule="evenodd" clip-rule="evenodd" fill="url(#SVGID_15_)" d="M826.8,564c30-0.1,32.2,19.8,29,19.2
			c-7-1.3-8.6,5.2-14,4.1c-4.2-0.9-12.9,2.6-16.5,2.6c-3.1,0-11.5-3-14.3-2.3c-10,2.2-11.5-5.9-16.1-3.7
			C789.1,586.5,787.1,564.2,826.8,564L826.8,564z"/>
		<linearGradient id="SVGID_16_" gradientUnits="userSpaceOnUse" x1="823.4569" y1="578.4305" x2="823.4569" y2="559.1522">
			<stop  offset="0" style="stop-color:#FF7C58"/>
			<stop  offset="1" style="stop-color:#720BDA"/>
		</linearGradient>
		<path fill-rule="evenodd" clip-rule="evenodd" fill="url(#SVGID_16_)" d="M825.3,559.2c22.3-0.1,24,14.7,21.6,14.3
			c-5.2-0.9-6.4,3.9-10.4,3.1c-3.1-0.7-9.6,1.9-12.3,1.9c-2.3,0-8.6-2.2-10.7-1.7c-7.4,1.7-8.6-4.4-12-2.8
			C797.3,575.9,795.7,559.3,825.3,559.2L825.3,559.2z"/>
	</g>
	<g>
		<linearGradient id="SVGID_17_" gradientUnits="userSpaceOnUse" x1="913" y1="691" x2="913" y2="599">
			<stop  offset="0" style="stop-color:#FFB977"/>
			<stop  offset="1" style="stop-color:#8C22F7"/>
		</linearGradient>
		<rect x="907" y="599" fill-rule="evenodd" clip-rule="evenodd" fill="url(#SVGID_17_)" width="12" height="92"/>
		<linearGradient id="SVGID_18_" gradientUnits="userSpaceOnUse" x1="912.8023" y1="613.9771" x2="912.8023" y2="592.2492">
			<stop  offset="0" style="stop-color:#FF7C58"/>
			<stop  offset="1" style="stop-color:#720BDA"/>
		</linearGradient>
		<path fill-rule="evenodd" clip-rule="evenodd" fill="url(#SVGID_18_)" d="M914,592.3c30.2-0.2,25.6,20.8,12.5,17
			c-6.8-1.9-7.2,4.7-13.7,4.7c-6.4,0-4.8-5.6-11.9-4.7C885.3,611.2,880.9,592.5,914,592.3L914,592.3z"/>
		<linearGradient id="SVGID_19_" gradientUnits="userSpaceOnUse" x1="913.2568" y1="608.9046" x2="913.2568" y2="579.7578">
			<stop  offset="0" style="stop-color:#FF7C58"/>
			<stop  offset="1" style="stop-color:#720BDA"/>
		</linearGradient>
		<path fill-rule="evenodd" clip-rule="evenodd" fill="url(#SVGID_19_)" d="M915,579.8c29.6-0.2,37.3,10,30.5,18.4
			c-5.1,6.3-8.2,7.4-15.7,5.6c-4.2-1-11,5.1-16.3,5.2c-5.6,0.1-6-6.2-14.9-5.9c-8.9,0.2-11.3,2.8-16.2-1.9
			C874.7,593.5,875.8,580,915,579.8L915,579.8z"/>
		<linearGradient id="SVGID_20_" gradientUnits="userSpaceOnUse" x1="913.1146" y1="599.0727" x2="913.1146" y2="558.593">
			<stop  offset="0" style="stop-color:#FF7C58"/>
			<stop  offset="1" style="stop-color:#720BDA"/>
		</linearGradient>
		<path fill-rule="evenodd" clip-rule="evenodd" fill="url(#SVGID_20_)" d="M916.8,558.6c54.1,0,35.8,35.1,31.1,33.5
			c-6-2-10.4,6.9-18.3,5.1c-6.2-1.4-9.7,1.9-15,1.9c-4.5,0-9-2.3-13.1-1.4c-14.7,3.6-13.9-8.7-20.6-5.3
			C872.4,596.6,853.5,558.6,916.8,558.6L916.8,558.6z"/>
		<linearGradient id="SVGID_21_" gradientUnits="userSpaceOnUse" x1="912.9156" y1="587.3521" x2="912.9156" y2="543.4437">
			<stop  offset="0" style="stop-color:#FF7C58"/>
			<stop  offset="1" style="stop-color:#720BDA"/>
		</linearGradient>
		<path fill-rule="evenodd" clip-rule="evenodd" fill="url(#SVGID_21_)" d="M916.9,543.4c58.7,0,38.8,38,33.8,36.4
			c-6.5-2.1-11.3,7.5-19.8,5.6c-6.8-1.5-10.6,2-16.3,2c-5,0-9.8-2.6-14.2-1.5c-15.9,3.8-15-9.5-22.4-5.8
			C868.8,584.7,848.2,543.4,916.9,543.4L916.9,543.4z"/>
		<linearGradient id="SVGID_22_" gradientUnits="userSpaceOnUse" x1="912.7347" y1="571.2932" x2="912.7347" y2="531.898">
			<stop  offset="0" style="stop-color:#FF7C58"/>
			<stop  offset="1" style="stop-color:#720BDA"/>
		</linearGradient>
		<path fill-rule="evenodd" clip-rule="evenodd" fill="url(#SVGID_22_)" d="M916.6,531.9c55.8,0,36.9,34.1,32.1,32.6
			c-6.2-1.9-10.7,6.7-18.9,5c-6.4-1.4-10,1.8-15.5,1.8c-4.7,0-9.3-2.3-13.5-1.3c-15.1,3.5-14.3-8.5-21.3-5.2
			C870.7,568.9,851.3,531.9,916.6,531.9L916.6,531.9z"/>
		<linearGradient id="SVGID_23_" gradientUnits="userSpaceOnUse" x1="914.2399" y1="550.8959" x2="914.2399" y2="521.7509">
			<stop  offset="0" style="stop-color:#FF7C58"/>
			<stop  offset="1" style="stop-color:#720BDA"/>
		</linearGradient>
		<path fill-rule="evenodd" clip-rule="evenodd" fill="url(#SVGID_23_)" d="M917,521.8c33.8-0.2,36.3,22.2,32.6,21.6
			c-7.9-1.4-9.7,5.9-15.7,4.6c-4.8-1-14.5,2.9-18.5,2.9c-3.5,0-12.9-3.4-16.1-2.6c-11.2,2.6-13-6.6-18.2-4.2
			C874.7,547.1,872.4,522,917,521.8L917,521.8z"/>
		<linearGradient id="SVGID_24_" gradientUnits="userSpaceOnUse" x1="913.316" y1="537.9857" x2="913.316" y2="516.2584">
			<stop  offset="0" style="stop-color:#FF7C58"/>
			<stop  offset="1" style="stop-color:#720BDA"/>
		</linearGradient>
		<path fill-rule="evenodd" clip-rule="evenodd" fill="url(#SVGID_24_)" d="M915.4,516.3c25.2-0.1,27,16.6,24.3,16.1
			c-5.9-1.1-7.2,4.4-11.7,3.4c-3.5-0.7-10.8,2.2-13.8,2.2c-2.6,0-9.6-2.5-12-2c-8.4,1.9-9.7-5-13.5-3.1
			C883.8,535.2,882.1,516.5,915.4,516.3L915.4,516.3z"/>
	</g>
	<g>
		<g>
			<g>
				<g>
					<linearGradient id="SVGID_25_" gradientUnits="userSpaceOnUse" x1="1184" y1="676" x2="1184" y2="578">
						<stop  offset="0" style="stop-color:#FF7C58"/>
						<stop  offset="1" style="stop-color:#720BDA"/>
					</linearGradient>
					<rect x="1062" y="578" fill-rule="evenodd" clip-rule="evenodd" fill="url(#SVGID_25_)" width="244" height="98"/>
					<linearGradient id="SVGID_26_" gradientUnits="userSpaceOnUse" x1="1184" y1="671" x2="1184" y2="583">
						<stop  offset="0" style="stop-color:#FF4998"/>
						<stop  offset="1" style="stop-color:#5600AC"/>
					</linearGradient>
					<path fill-rule="evenodd" clip-rule="evenodd" fill="url(#SVGID_26_)" d="M1062,589h244v-6h-244V589z M1062,671h244v-6h-244
						V671z M1062,658h244v-6h-244V658z M1062,643h244v-5h-244V643z M1062,629h244v-4h-244V629z M1062,616h244v-6h-244V616z
						 M1062,602h244v-6h-244V602z"/>
				</g>
				<g>
					<linearGradient id="SVGID_27_" gradientUnits="userSpaceOnUse" x1="1141.5" y1="676" x2="1141.5" y2="578">
						<stop  offset="0" style="stop-color:#FFB977"/>
						<stop  offset="1" style="stop-color:#8C22F7"/>
					</linearGradient>
					<rect x="1062" y="578" fill-rule="evenodd" clip-rule="evenodd" fill="url(#SVGID_27_)" width="159" height="98"/>
					<linearGradient id="SVGID_28_" gradientUnits="userSpaceOnUse" x1="1141.5" y1="671" x2="1141.5" y2="583">
						<stop  offset="0" style="stop-color:#FF7C58"/>
						<stop  offset="1" style="stop-color:#720BDA"/>
					</linearGradient>
					<path fill-rule="evenodd" clip-rule="evenodd" fill="url(#SVGID_28_)" d="M1062,589h159v-6h-159V589z M1062,671h159v-6h-159
						V671z M1062,658h159v-6h-159V658z M1062,643h159v-5h-159V643z M1062,629h159v-4h-159V629z M1062,616h159v-6h-159V616z
						 M1062,602h159v-6h-159V602z"/>
				</g>
			</g>
			<g>
				<g>
					<linearGradient id="SVGID_29_" gradientUnits="userSpaceOnUse" x1="1096" y1="676" x2="1096" y2="596">
						<stop  offset="0" style="stop-color:#FF4998"/>
						<stop  offset="1" style="stop-color:#5600AC"/>
					</linearGradient>
					<rect x="1075" y="596" fill-rule="evenodd" clip-rule="evenodd" fill="url(#SVGID_29_)" width="42" height="80"/>
					<linearGradient id="SVGID_30_" gradientUnits="userSpaceOnUse" x1="1097.5" y1="676" x2="1097.5" y2="599">
						<stop  offset="0" style="stop-color:#FF7C58"/>
						<stop  offset="1" style="stop-color:#720BDA"/>
					</linearGradient>
					<rect x="1078" y="599" fill-rule="evenodd" clip-rule="evenodd" fill="url(#SVGID_30_)" width="39" height="77"/>
				</g>
				<g>
					<linearGradient id="SVGID_31_" gradientUnits="userSpaceOnUse" x1="1146" y1="639" x2="1146" y2="591">
						<stop  offset="0" style="stop-color:#FF4998"/>
						<stop  offset="1" style="stop-color:#5600AC"/>
					</linearGradient>
					<rect x="1133" y="591" fill-rule="evenodd" clip-rule="evenodd" fill="url(#SVGID_31_)" width="26" height="48"/>
					<linearGradient id="SVGID_32_" gradientUnits="userSpaceOnUse" x1="1147.5" y1="639" x2="1147.5" y2="592">
						<stop  offset="0" style="stop-color:#FF7C58"/>
						<stop  offset="1" style="stop-color:#720BDA"/>
					</linearGradient>
					<path fill-rule="evenodd" clip-rule="evenodd" fill="url(#SVGID_32_)" d="M1136,639h10v-22h-10V639z M1136,615h10v-23h-10V615z
						 M1148,615h11v-23h-11V615z M1148,639h11v-22h-11V639z"/>
				</g>
				<g>
					<linearGradient id="SVGID_33_" gradientUnits="userSpaceOnUse" x1="1189.5" y1="639" x2="1189.5" y2="591">
						<stop  offset="0" style="stop-color:#FF4998"/>
						<stop  offset="1" style="stop-color:#5600AC"/>
					</linearGradient>
					<rect x="1177" y="591" fill-rule="evenodd" clip-rule="evenodd" fill="url(#SVGID_33_)" width="25" height="48"/>
					<linearGradient id="SVGID_34_" gradientUnits="userSpaceOnUse" x1="1190.5" y1="639" x2="1190.5" y2="592">
						<stop  offset="0" style="stop-color:#FF7C58"/>
						<stop  offset="1" style="stop-color:#720BDA"/>
					</linearGradient>
					<path fill-rule="evenodd" clip-rule="evenodd" fill="url(#SVGID_34_)" d="M1179,639h10v-22h-10V639z M1179,615h10v-23h-10V615z
						 M1191,615h11v-23h-11V615z M1191,639h11v-22h-11V639z"/>
				</g>
			</g>
		</g>
		<g>
			<g>
				<linearGradient id="SVGID_35_" gradientUnits="userSpaceOnUse" x1="977.5" y1="676" x2="977.5" y2="578">
					<stop  offset="0" style="stop-color:#FF4998"/>
					<stop  offset="1" style="stop-color:#5600AC"/>
				</linearGradient>
				<rect x="970" y="578" fill-rule="evenodd" clip-rule="evenodd" fill="url(#SVGID_35_)" width="15" height="98"/>
				<linearGradient id="SVGID_36_" gradientUnits="userSpaceOnUse" x1="975" y1="676" x2="975" y2="578">
					<stop  offset="0" style="stop-color:#FF7C58"/>
					<stop  offset="1" style="stop-color:#720BDA"/>
				</linearGradient>
				<rect x="970" y="578" fill-rule="evenodd" clip-rule="evenodd" fill="url(#SVGID_36_)" width="10" height="98"/>
			</g>
			<g>
				<linearGradient id="SVGID_37_" gradientUnits="userSpaceOnUse" x1="1160.5" y1="676" x2="1160.5" y2="578">
					<stop  offset="0" style="stop-color:#FF4998"/>
					<stop  offset="1" style="stop-color:#5600AC"/>
				</linearGradient>
				<rect x="1153" y="578" fill-rule="evenodd" clip-rule="evenodd" fill="url(#SVGID_37_)" width="15" height="98"/>
				<linearGradient id="SVGID_38_" gradientUnits="userSpaceOnUse" x1="1158" y1="676" x2="1158" y2="578">
					<stop  offset="0" style="stop-color:#FF7C58"/>
					<stop  offset="1" style="stop-color:#720BDA"/>
				</linearGradient>
				<rect x="1153" y="578" fill-rule="evenodd" clip-rule="evenodd" fill="url(#SVGID_38_)" width="10" height="98"/>
			</g>
			<g>
				<linearGradient id="SVGID_39_" gradientUnits="userSpaceOnUse" x1="962" y1="683.5" x2="1337" y2="683.5">
					<stop  offset="0" style="stop-color:#FF7C58"/>
					<stop  offset="1" style="stop-color:#720BDA"/>
				</linearGradient>
				<rect x="962" y="676" fill-rule="evenodd" clip-rule="evenodd" fill="url(#SVGID_39_)" width="375" height="15"/>
				<linearGradient id="SVGID_40_" gradientUnits="userSpaceOnUse" x1="962" y1="683.5" x2="1158" y2="683.5">
					<stop  offset="0" style="stop-color:#FFB977"/>
					<stop  offset="1" style="stop-color:#8C22F7"/>
				</linearGradient>
				<rect x="962" y="676" fill-rule="evenodd" clip-rule="evenodd" fill="url(#SVGID_40_)" width="196" height="15"/>
			</g>
		</g>
		<g>
			<g>
				<linearGradient id="SVGID_41_" gradientUnits="userSpaceOnUse" x1="962" y1="570.5" x2="1337" y2="570.5">
					<stop  offset="0" style="stop-color:#FF7C58"/>
					<stop  offset="1" style="stop-color:#720BDA"/>
				</linearGradient>
				<rect x="962" y="563" fill-rule="evenodd" clip-rule="evenodd" fill="url(#SVGID_41_)" width="375" height="15"/>
				<linearGradient id="SVGID_42_" gradientUnits="userSpaceOnUse" x1="962" y1="570.5" x2="1158" y2="570.5">
					<stop  offset="0" style="stop-color:#FFB977"/>
					<stop  offset="1" style="stop-color:#8C22F7"/>
				</linearGradient>
				<rect x="962" y="563" fill-rule="evenodd" clip-rule="evenodd" fill="url(#SVGID_42_)" width="196" height="15"/>
			</g>
			<g>
				<linearGradient id="SVGID_43_" gradientUnits="userSpaceOnUse" x1="1156.3969" y1="563" x2="1156.3969" y2="501">
					<stop  offset="0" style="stop-color:#FF7C58"/>
					<stop  offset="1" style="stop-color:#720BDA"/>
				</linearGradient>
				<polygon fill-rule="evenodd" clip-rule="evenodd" fill="url(#SVGID_43_)" points="1101.1,501 1265.4,501 1211.7,563 1047.4,563 
									"/>
				<linearGradient id="SVGID_44_" gradientUnits="userSpaceOnUse" x1="1156.3969" y1="555" x2="1156.3969" y2="507">
					<stop  offset="0" style="stop-color:#FF4998"/>
					<stop  offset="1" style="stop-color:#5600AC"/>
				</linearGradient>
				<path fill-rule="evenodd" clip-rule="evenodd" fill="url(#SVGID_44_)" d="M1259.3,507l-5,6H1090l5-6H1259.3z M1247.2,522l-5,5
					h-164.3l5-5H1247.2z M1235,536l-5,6h-164.3l5-6H1235z M1222.8,549l-5,6h-164.3l5-6H1222.8z"/>
			</g>
			<g>
				<linearGradient id="SVGID_45_" gradientUnits="userSpaceOnUse" x1="1265.4432" y1="563" x2="1265.4432" y2="501.3182">
					<stop  offset="0" style="stop-color:#FF4998"/>
					<stop  offset="1" style="stop-color:#5600AC"/>
				</linearGradient>
				<polygon fill-rule="evenodd" clip-rule="evenodd" fill="url(#SVGID_45_)" points="1265.4,501.3 1319.2,563 1211.7,563 				"/>
				<linearGradient id="SVGID_46_" gradientUnits="userSpaceOnUse" x1="1265.4432" y1="554" x2="1265.4432" y2="516.9839">
					<stop  offset="0" style="stop-color:#BA2BA0"/>
					<stop  offset="1" style="stop-color:#470B96"/>
				</linearGradient>
				<polygon fill-rule="evenodd" clip-rule="evenodd" fill="url(#SVGID_46_)" points="1265.4,517 1297.7,554 1233.2,554 				"/>
			</g>
		</g>
	</g>
	<g>
		<linearGradient id="SVGID_47_" gradientUnits="userSpaceOnUse" x1="700" y1="980" x2="700" y2="691">
			<stop  offset="0" style="stop-color:#FFB977"/>
			<stop  offset="1" style="stop-color:#8C22F7"/>
		</linearGradient>
		<rect y="691" fill-rule="evenodd" clip-rule="evenodd" fill="url(#SVGID_47_)" width="1400" height="289"/>
		<linearGradient id="SVGID_48_" gradientUnits="userSpaceOnUse" x1="791.9779" y1="926.9189" x2="791.9779" y2="691">
			<stop  offset="0" style="stop-color:#FFB977"/>
			<stop  offset="1" style="stop-color:#8C22F7"/>
		</linearGradient>
		<path fill-rule="evenodd" clip-rule="evenodd" fill="url(#SVGID_48_)" d="M1400,754.7V691H184c56,56,121.2,97,213.2,86.5
			C684,744.8,745.6,873.2,876,915.2c195.2,62.8,387-145.8,524-160.6V754.7z"/>
		<linearGradient id="SVGID_49_" gradientUnits="userSpaceOnUse" x1="553.0628" y1="879.3251" x2="553.0628" y2="691">
			<stop  offset="0" style="stop-color:#FFB977"/>
			<stop  offset="1" style="stop-color:#FFB977;stop-opacity:0"/>
		</linearGradient>
		<path fill-rule="evenodd" clip-rule="evenodd" fill="url(#SVGID_49_)" d="M0,878.8c61.7,4.9,53.5-28.1,83.1-40.1
			c32.3-13,105.9,14,139.5-6.1c18.7-11.2,4.6-33.5,27.6-43.5c40.9-17.9,111.1,14.2,157.5,3.1c38.8-9.3,73.1-39.2,115.3-39.7
			c46.9-0.7,90.3,24.9,136.4,20c59-6.3,98.7-40.9,155.9-51.4c93.8-17.1,193.9-20.2,290.8-30.2H0V878.8z"/>
		<linearGradient id="SVGID_50_" gradientUnits="userSpaceOnUse" x1="914.4801" y1="823.1833" x2="914.4801" y2="691">
			<stop  offset="0" style="stop-color:#FFB977"/>
			<stop  offset="1" style="stop-color:#8C22F7"/>
		</linearGradient>
		<path fill-rule="evenodd" clip-rule="evenodd" fill="url(#SVGID_50_)" d="M1400,822.6V691H429c69.7,34,145.7,57.6,218.2,51.5
			c245.1-20.6,211.6,58.5,389.1,34.2c266.2-36.4,246.4,55,363.7,45.8V822.6z"/>
		<linearGradient id="SVGID_51_" gradientUnits="userSpaceOnUse" x1="1024.1389" y1="746.5786" x2="1024.1389" y2="691">
			<stop  offset="0" style="stop-color:#FFB977"/>
			<stop  offset="1" style="stop-color:#8C22F7"/>
		</linearGradient>
		<path fill-rule="evenodd" clip-rule="evenodd" fill="url(#SVGID_51_)" d="M1400,745.6V691H648.3c238.5,52,571.5,59,751.7,54.4
			V745.6z"/>
	</g>
	<g>
		<linearGradient id="SVGID_52_" gradientUnits="userSpaceOnUse" x1="1058.7321" y1="980" x2="1058.7321" y2="774.5313">
			<stop  offset="0" style="stop-color:#FF7C58"/>
			<stop  offset="1" style="stop-color:#720BDA"/>
		</linearGradient>
		<path fill-rule="evenodd" clip-rule="evenodd" fill="url(#SVGID_52_)" d="M1400,778.8V980H717.5
			C934.1,789.9,1235.8,761.6,1400,778.8L1400,778.8z"/>
		<linearGradient id="SVGID_53_" gradientUnits="userSpaceOnUse" x1="611.5499" y1="980" x2="611.5499" y2="848.4671">
			<stop  offset="0" style="stop-color:#FF7C58"/>
			<stop  offset="1" style="stop-color:#720BDA"/>
		</linearGradient>
		<path fill-rule="evenodd" clip-rule="evenodd" fill="url(#SVGID_53_)" d="M1181.6,980H41.5C446.6,775.1,890.3,836.8,1181.6,980
			L1181.6,980z"/>
	</g>
	<g>
		<linearGradient id="SVGID_54_" gradientUnits="userSpaceOnUse" x1="1330.8676" y1="980" x2="1330.8676" y2="749.332">
			<stop  offset="0" style="stop-color:#FF4998"/>
			<stop  offset="1" style="stop-color:#5600AC"/>
		</linearGradient>
		<path fill-rule="evenodd" clip-rule="evenodd" fill="url(#SVGID_54_)" d="M1368.8,980c-12.3-111.1-49.8-181-99.1-230.7
			c58.3,37.8,103.4,104.8,122.2,230.7H1368.8z"/>
		<linearGradient id="SVGID_55_" gradientUnits="userSpaceOnUse" x1="1313.7372" y1="980" x2="1313.7372" y2="795.8294">
			<stop  offset="0" style="stop-color:#FF4998"/>
			<stop  offset="1" style="stop-color:#5600AC"/>
		</linearGradient>
		<path fill-rule="evenodd" clip-rule="evenodd" fill="url(#SVGID_55_)" d="M1351.7,980c-12.3-88.9-49.7-144.5-99.1-184.2
			C1311,826.1,1356,880,1374.9,980H1351.7z"/>
		<linearGradient id="SVGID_56_" gradientUnits="userSpaceOnUse" x1="1251.4449" y1="980" x2="1251.4449" y2="776.8666">
			<stop  offset="0" style="stop-color:#FF4998"/>
			<stop  offset="1" style="stop-color:#5600AC"/>
		</linearGradient>
		<path fill-rule="evenodd" clip-rule="evenodd" fill="url(#SVGID_56_)" d="M1300.7,980c-12.2-88.9-87.2-121.3-121.7-203.1
			c40.3,71.4,126.1,103.2,144.9,203.1H1300.7z"/>
		<linearGradient id="SVGID_57_" gradientUnits="userSpaceOnUse" x1="1272.5123" y1="980" x2="1272.5123" y2="775.3622">
			<stop  offset="0" style="stop-color:#FF4998"/>
			<stop  offset="1" style="stop-color:#5600AC"/>
		</linearGradient>
		<path fill-rule="evenodd" clip-rule="evenodd" fill="url(#SVGID_57_)" d="M1310.5,980c-12.3-98.7-49.7-160.5-99.1-204.6
			c58.4,33.6,103.4,93.6,122.2,204.6H1310.5z"/>
		<linearGradient id="SVGID_58_" gradientUnits="userSpaceOnUse" x1="1290.0101" y1="980" x2="1290.0101" y2="835.1896">
			<stop  offset="0" style="stop-color:#FF4998"/>
			<stop  offset="1" style="stop-color:#5600AC"/>
		</linearGradient>
		<path fill-rule="evenodd" clip-rule="evenodd" fill="url(#SVGID_58_)" d="M1330.8,980c-13.2-70.4-53.4-113.6-106.4-144.8
			c62.7,23.8,111,65.8,131.3,144.8H1330.8z"/>
		<g>
			<linearGradient id="SVGID_59_" gradientUnits="userSpaceOnUse" x1="1258.8815" y1="980" x2="1258.8815" y2="761.0176">
				<stop  offset="0" style="stop-color:#FF4998"/>
				<stop  offset="1" style="stop-color:#5600AC"/>
			</linearGradient>
			<path fill-rule="evenodd" clip-rule="evenodd" fill="url(#SVGID_59_)" d="M1286.8,980c-14.2-106.1-38.7-171.8-68.1-219
				c33.3,35.9,61.7,100.5,80.3,219H1286.8z"/>
			<linearGradient id="SVGID_60_" gradientUnits="userSpaceOnUse" x1="1214.1975" y1="807.338" x2="1214.1975" y2="699.2858">
				<stop  offset="0" style="stop-color:#FFB977"/>
				<stop  offset="1" style="stop-color:#8C22F7"/>
			</linearGradient>
			<path fill-rule="evenodd" clip-rule="evenodd" fill="url(#SVGID_60_)" d="M1183.4,702.9c14.3-23.6,80.9,73.6,61.6,102.7
				C1224,821.6,1165,719.2,1183.4,702.9L1183.4,702.9z"/>
		</g>
		<g>
			<linearGradient id="SVGID_61_" gradientUnits="userSpaceOnUse" x1="912.9221" y1="980" x2="912.9221" y2="780.3653">
				<stop  offset="0" style="stop-color:#FF4998"/>
				<stop  offset="1" style="stop-color:#5600AC"/>
			</linearGradient>
			<path fill-rule="evenodd" clip-rule="evenodd" fill="url(#SVGID_61_)" d="M902.4,980c16.7-87.6,15.3-150.5,4.9-199.6
				c17.2,40.7,22.7,102.1,6.6,199.6H902.4z"/>
			<linearGradient id="SVGID_62_" gradientUnits="userSpaceOnUse" x1="906.1603" y1="831.7156" x2="906.1603" y2="711.9428">
				<stop  offset="0" style="stop-color:#FFB977"/>
				<stop  offset="1" style="stop-color:#8C22F7"/>
			</linearGradient>
			<path fill-rule="evenodd" clip-rule="evenodd" fill="url(#SVGID_62_)" d="M894,713.7c21.5-17.3,50.8,96.8,22.7,117.6
				C891.5,839,871.1,722.7,894,713.7L894,713.7z"/>
		</g>
		<g>
			<linearGradient id="SVGID_63_" gradientUnits="userSpaceOnUse" x1="1055.8019" y1="980" x2="1055.8019" y2="814.3724">
				<stop  offset="0" style="stop-color:#FF4998"/>
				<stop  offset="1" style="stop-color:#5600AC"/>
			</linearGradient>
			<path fill-rule="evenodd" clip-rule="evenodd" fill="url(#SVGID_63_)" d="M1103.9,980c-36.2-81.5-72.4-131.3-108.7-165.6
				c37.9,24.2,77.8,73.1,121.2,165.6H1103.9z"/>
			<linearGradient id="SVGID_64_" gradientUnits="userSpaceOnUse" x1="988.8529" y1="854.2093" x2="988.8529" y2="761.6632">
				<stop  offset="0" style="stop-color:#FFB977"/>
				<stop  offset="1" style="stop-color:#8C22F7"/>
			</linearGradient>
			<path fill-rule="evenodd" clip-rule="evenodd" fill="url(#SVGID_64_)" d="M946.4,767.1c7.8-26.5,96.8,50.8,85.5,83.9
				C1015.5,871.6,932.7,787.4,946.4,767.1L946.4,767.1z"/>
		</g>
		<linearGradient id="SVGID_65_" gradientUnits="userSpaceOnUse" x1="1074.3845" y1="980" x2="1074.3845" y2="749.332">
			<stop  offset="0" style="stop-color:#FF4998"/>
			<stop  offset="1" style="stop-color:#5600AC"/>
		</linearGradient>
		<path fill-rule="evenodd" clip-rule="evenodd" fill="url(#SVGID_65_)" d="M1112.4,980c-12.3-111.1-49.8-181-99.1-230.7
			c58.3,37.8,103.4,104.8,122.2,230.7H1112.4z"/>
		<linearGradient id="SVGID_66_" gradientUnits="userSpaceOnUse" x1="1084.9532" y1="980" x2="1084.9532" y2="835.1896">
			<stop  offset="0" style="stop-color:#FF4998"/>
			<stop  offset="1" style="stop-color:#5600AC"/>
		</linearGradient>
		<path fill-rule="evenodd" clip-rule="evenodd" fill="url(#SVGID_66_)" d="M1125.7,980c-13.2-70.4-53.4-113.6-106.4-144.8
			c62.6,23.8,111,65.8,131.2,144.8H1125.7z"/>
		<linearGradient id="SVGID_67_" gradientUnits="userSpaceOnUse" x1="1129.0477" y1="980" x2="1129.0477" y2="775.3622">
			<stop  offset="0" style="stop-color:#FF4998"/>
			<stop  offset="1" style="stop-color:#5600AC"/>
		</linearGradient>
		<path fill-rule="evenodd" clip-rule="evenodd" fill="url(#SVGID_67_)" d="M1167,980c-12.3-98.7-49.8-160.5-99.1-204.6
			c58.3,33.6,103.4,93.6,122.2,204.6H1167z"/>
		<linearGradient id="SVGID_68_" gradientUnits="userSpaceOnUse" x1="894.0347" y1="980" x2="894.0347" y2="776.8666">
			<stop  offset="0" style="stop-color:#FF4998"/>
			<stop  offset="1" style="stop-color:#5600AC"/>
		</linearGradient>
		<path fill-rule="evenodd" clip-rule="evenodd" fill="url(#SVGID_68_)" d="M943.4,980c-12.3-88.9-87.3-121.3-121.8-203.1
			C861.9,848.3,947.7,880,966.5,980H943.4z"/>
		<linearGradient id="SVGID_69_" gradientUnits="userSpaceOnUse" x1="867.368" y1="980" x2="867.368" y2="835.1896">
			<stop  offset="0" style="stop-color:#FF4998"/>
			<stop  offset="1" style="stop-color:#5600AC"/>
		</linearGradient>
		<path fill-rule="evenodd" clip-rule="evenodd" fill="url(#SVGID_69_)" d="M908.1,980c-13.2-70.4-53.4-113.6-106.4-144.8
			C864.4,858.9,912.8,901,933,980H908.1z"/>
		<linearGradient id="SVGID_70_" gradientUnits="userSpaceOnUse" x1="919.8964" y1="980" x2="919.8964" y2="749.332">
			<stop  offset="0" style="stop-color:#FF4998"/>
			<stop  offset="1" style="stop-color:#5600AC"/>
		</linearGradient>
		<path fill-rule="evenodd" clip-rule="evenodd" fill="url(#SVGID_70_)" d="M957.8,980c-12.2-111.1-49.7-181-99.1-230.7
			C917.1,787.2,962.2,854.1,981,980H957.8z"/>
		<linearGradient id="SVGID_71_" gradientUnits="userSpaceOnUse" x1="991.4449" y1="980" x2="991.4449" y2="835.1896">
			<stop  offset="0" style="stop-color:#FF4998"/>
			<stop  offset="1" style="stop-color:#5600AC"/>
		</linearGradient>
		<path fill-rule="evenodd" clip-rule="evenodd" fill="url(#SVGID_71_)" d="M1032.2,980c-13.2-70.4-53.4-113.6-106.4-144.8
			c62.6,23.8,111,65.8,131.2,144.8H1032.2z"/>
		<linearGradient id="SVGID_72_" gradientUnits="userSpaceOnUse" x1="1224.4458" y1="980" x2="1224.4458" y2="882.8766">
			<stop  offset="0" style="stop-color:#FF7C58"/>
			<stop  offset="1" style="stop-color:#720BDA"/>
		</linearGradient>
		<path fill-rule="evenodd" clip-rule="evenodd" fill="url(#SVGID_72_)" d="M1262.1,980c-12.2-46.9-49.3-76.2-98.2-97.1
			c57.8,15.9,102.4,44.1,121.1,97.1H1262.1z"/>
		<linearGradient id="SVGID_73_" gradientUnits="userSpaceOnUse" x1="1023.501" y1="980" x2="1023.501" y2="870.1727">
			<stop  offset="0" style="stop-color:#FF4998"/>
			<stop  offset="1" style="stop-color:#5600AC"/>
		</linearGradient>
		<path fill-rule="evenodd" clip-rule="evenodd" fill="url(#SVGID_73_)" d="M1061.1,980c-12.2-46.9-45.6-124.8-98.2-97.1
			c60.5-46.1,102.4,44.1,121.1,97.1H1061.1z"/>
		<linearGradient id="SVGID_74_" gradientUnits="userSpaceOnUse" x1="838.3391" y1="980" x2="838.3391" y2="870.1727">
			<stop  offset="0" style="stop-color:#FF4998"/>
			<stop  offset="1" style="stop-color:#5600AC"/>
		</linearGradient>
		<path fill-rule="evenodd" clip-rule="evenodd" fill="url(#SVGID_74_)" d="M875.9,980c-12.1-46.9-45.6-124.8-98.1-97.1
			c60.5-46.1,102.4,44.1,121.1,97.1H875.9z"/>
		<linearGradient id="SVGID_75_" gradientUnits="userSpaceOnUse" x1="1175.382" y1="980" x2="1175.382" y2="823.6061">
			<stop  offset="0" style="stop-color:#FF4998"/>
			<stop  offset="1" style="stop-color:#5600AC"/>
		</linearGradient>
		<path fill-rule="evenodd" clip-rule="evenodd" fill="url(#SVGID_75_)" d="M1213,980c-12.1-66.6-45.6-177.7-98.1-138.3
			c60.5-65.6,102.4,63,121.1,138.3H1213z"/>
		<linearGradient id="SVGID_76_" gradientUnits="userSpaceOnUse" x1="1348.8236" y1="980" x2="1348.8236" y2="823.7159">
			<stop  offset="0" style="stop-color:#FF4998"/>
			<stop  offset="1" style="stop-color:#5600AC"/>
		</linearGradient>
		<path fill-rule="evenodd" clip-rule="evenodd" fill="url(#SVGID_76_)" d="M1395.9,980c-12.2-66.6-45.6-177.6-98.2-138.2
			c45.1-48.9,80.1,10.3,102.4,74.7V980H1395.9z"/>
		<g>
			<linearGradient id="SVGID_77_" gradientUnits="userSpaceOnUse" x1="1348.6053" y1="980" x2="1348.6053" y2="735.1273">
				<stop  offset="0" style="stop-color:#FF4998"/>
				<stop  offset="1" style="stop-color:#5600AC"/>
			</linearGradient>
			<path fill-rule="evenodd" clip-rule="evenodd" fill="url(#SVGID_77_)" d="M1335.6,980c21.4-109.8,21.3-185.7,10.8-244.9
				c17.7,48.8,22.2,122.7,1.2,244.9H1335.6z"/>
			<linearGradient id="SVGID_78_" gradientUnits="userSpaceOnUse" x1="1345.4644" y1="793.0721" x2="1345.4644" y2="657.8541">
				<stop  offset="0" style="stop-color:#FFB977"/>
				<stop  offset="1" style="stop-color:#8C22F7"/>
			</linearGradient>
			<path fill-rule="evenodd" clip-rule="evenodd" fill="url(#SVGID_78_)" d="M1333.9,659.8c21.7-19.3,49.8,109.8,21.5,132.9
				C1330.1,801.1,1311,669.6,1333.9,659.8L1333.9,659.8z"/>
		</g>
		<g>
			<linearGradient id="SVGID_79_" gradientUnits="userSpaceOnUse" x1="828.1554" y1="980" x2="828.1554" y2="788.4122">
				<stop  offset="0" style="stop-color:#FF4998"/>
				<stop  offset="1" style="stop-color:#5600AC"/>
			</linearGradient>
			<path fill-rule="evenodd" clip-rule="evenodd" fill="url(#SVGID_79_)" d="M860.2,980c-19.8-91.3-46.3-149.6-75.9-191.6
				c33.1,31.7,63.2,87.9,87.8,191.6H860.2z"/>
			<linearGradient id="SVGID_80_" gradientUnits="userSpaceOnUse" x1="779.2698" y1="833.4223" x2="779.2698" y2="728.4426">
				<stop  offset="0" style="stop-color:#FFB977"/>
				<stop  offset="1" style="stop-color:#8C22F7"/>
			</linearGradient>
			<path fill-rule="evenodd" clip-rule="evenodd" fill="url(#SVGID_80_)" d="M745.6,732.5c12.9-24.4,85,68.7,67.5,99
				C793,848.5,728.2,749.7,745.6,732.5L745.6,732.5z"/>
		</g>
		<linearGradient id="SVGID_81_" gradientUnits="userSpaceOnUse" x1="804.9883" y1="980" x2="804.9883" y2="882.8766">
			<stop  offset="0" style="stop-color:#FF4998"/>
			<stop  offset="1" style="stop-color:#5600AC"/>
		</linearGradient>
		<path fill-rule="evenodd" clip-rule="evenodd" fill="url(#SVGID_81_)" d="M842.6,980c-12.2-46.9-49.3-76.2-98.2-97.1
			c57.8,15.9,102.4,44.1,121.1,97.1H842.6z"/>
		<g>
			<linearGradient id="SVGID_82_" gradientUnits="userSpaceOnUse" x1="724.5683" y1="980" x2="724.5683" y2="869.3367">
				<stop  offset="0" style="stop-color:#FF4998"/>
				<stop  offset="1" style="stop-color:#5600AC"/>
			</linearGradient>
			<path fill-rule="evenodd" clip-rule="evenodd" fill="url(#SVGID_82_)" d="M764.7,980c-31.8-50.6-62.4-85.8-92.4-110.7
				c32,17.5,66.2,51.4,104.4,110.7H764.7z"/>
			<linearGradient id="SVGID_83_" gradientUnits="userSpaceOnUse" x1="665.6024" y1="907.1741" x2="665.6024" y2="819.4221">
				<stop  offset="0" style="stop-color:#FFB977"/>
				<stop  offset="1" style="stop-color:#8C22F7"/>
			</linearGradient>
			<path fill-rule="evenodd" clip-rule="evenodd" fill="url(#SVGID_83_)" d="M620.5,825.4c6.1-26.9,100,44.3,90.8,78.1
				C696.4,925.1,608.1,846.6,620.5,825.4L620.5,825.4z"/>
		</g>
		<linearGradient id="SVGID_84_" gradientUnits="userSpaceOnUse" x1="749.4502" y1="980" x2="749.4502" y2="856.4966">
			<stop  offset="0" style="stop-color:#FF4998"/>
			<stop  offset="1" style="stop-color:#5600AC"/>
		</linearGradient>
		<path fill-rule="evenodd" clip-rule="evenodd" fill="url(#SVGID_84_)" d="M787,980c-12.1-59.2-49.3-96.9-98.1-123.5
			C746.7,876.8,791.3,913.4,810,980H787z"/>
		<linearGradient id="SVGID_85_" gradientUnits="userSpaceOnUse" x1="694.4371" y1="980" x2="694.4371" y2="918.7908">
			<stop  offset="0" style="stop-color:#FF4998"/>
			<stop  offset="1" style="stop-color:#5600AC"/>
		</linearGradient>
		<path fill-rule="evenodd" clip-rule="evenodd" fill="url(#SVGID_85_)" d="M717.5,980c-13.1-25.9-36.1-69.5-69.8-54.1
			c37.4-25.7,75.4,24.5,93.6,54.1H717.5z"/>
	</g>
	<g>
		<linearGradient id="SVGID_86_" gradientUnits="userSpaceOnUse" x1="146.6165" y1="189.8483" x2="146.6165" y2="168.631">
			<stop  offset="0" style="stop-color:#FF4998"/>
			<stop  offset="1" style="stop-color:#5600AC"/>
		</linearGradient>
		<path fill-rule="evenodd" clip-rule="evenodd" fill="url(#SVGID_86_)" d="M118,178.8c-3.5,6.1,13.3-5.2,21-2.3
			c6,2.2,6.8,6.6,11.2,7.7c3.8,0.9,7.6-1.4,11.4-2.5c8.6-2.4,12.6,12.2,14,7.1c1.5-5.9-3.8-17.9-12.3-13.4c-3,1.6-8.2,6.3-11.4,5.6
			c-4.4-1.1-5.4-8.2-9.2-10.6C135.1,165.7,122.3,171.3,118,178.8L118,178.8z"/>
		<linearGradient id="SVGID_87_" gradientUnits="userSpaceOnUse" x1="242.6932" y1="173.2666" x2="242.6932" y2="152.0621">
			<stop  offset="0" style="stop-color:#FF4998"/>
			<stop  offset="1" style="stop-color:#5600AC"/>
		</linearGradient>
		<path fill-rule="evenodd" clip-rule="evenodd" fill="url(#SVGID_87_)" d="M214.1,162.2c-3.5,6.1,13.3-5.2,20.9-2.3
			c6,2.3,6.8,6.6,11.2,7.7c3.8,0.9,7.6-1.4,11.4-2.5c8.6-2.4,12.7,12.2,14,7.1c1.5-5.9-3.7-17.9-12.3-13.4c-3,1.6-8.2,6.4-11.4,5.6
			c-4.4-1.1-5.4-8.2-9.2-10.6C231.2,149.1,218.4,154.7,214.1,162.2L214.1,162.2z"/>
		<linearGradient id="SVGID_88_" gradientUnits="userSpaceOnUse" x1="276.6959" y1="239.4946" x2="276.6959" y2="218.2773">
			<stop  offset="0" style="stop-color:#FF4998"/>
			<stop  offset="1" style="stop-color:#5600AC"/>
		</linearGradient>
		<path fill-rule="evenodd" clip-rule="evenodd" fill="url(#SVGID_88_)" d="M248,228.4c-3.5,6.1,13.3-5.2,21-2.3
			c6,2.3,6.8,6.6,11.2,7.7c3.8,0.9,7.6-1.4,11.4-2.5c8.6-2.4,12.6,12.2,14,7.1c1.5-5.9-3.7-17.9-12.3-13.4c-3,1.6-8.2,6.4-11.4,5.6
			c-4.4-1.1-5.4-8.2-9.2-10.6C265.2,215.4,252.4,220.9,248,228.4L248,228.4z"/>
	</g>
	<g>
		<linearGradient id="SVGID_89_" gradientUnits="userSpaceOnUse" x1="1269.3119" y1="260.9785" x2="1269.3119" y2="239.774">
			<stop  offset="0" style="stop-color:#FF4998"/>
			<stop  offset="1" style="stop-color:#5600AC"/>
		</linearGradient>
		<path fill-rule="evenodd" clip-rule="evenodd" fill="url(#SVGID_89_)" d="M1240.6,249.9c-3.5,6.1,13.3-5.2,21-2.3
			c6,2.3,6.8,6.6,11.2,7.7c3.8,0.9,7.6-1.4,11.4-2.5c8.6-2.4,12.6,12.2,14,7.1c1.5-5.9-3.7-17.9-12.3-13.4c-3,1.6-8.2,6.4-11.4,5.6
			c-4.4-1.1-5.4-8.2-9.2-10.6C1257.8,236.9,1245,242.4,1240.6,249.9L1240.6,249.9z"/>
		<linearGradient id="SVGID_90_" gradientUnits="userSpaceOnUse" x1="1193.8613" y1="321.2023" x2="1193.8613" y2="300.0065">
			<stop  offset="0" style="stop-color:#FF4998"/>
			<stop  offset="1" style="stop-color:#5600AC"/>
		</linearGradient>
		<path fill-rule="evenodd" clip-rule="evenodd" fill="url(#SVGID_90_)" d="M1165.2,310.2c-3.5,6.1,13.3-5.2,21-2.3
			c6,2.3,6.8,6.6,11.2,7.7c3.8,0.9,7.6-1.4,11.4-2.4c8.6-2.4,12.6,12.2,14,7.1c1.5-5.8-3.7-17.9-12.3-13.4c-3,1.6-8.2,6.3-11.4,5.5
			c-4.4-1.1-5.4-8.2-9.2-10.6C1182.4,297.1,1169.5,302.7,1165.2,310.2L1165.2,310.2z"/>
	</g>
	<g>
		<linearGradient id="SVGID_91_" gradientUnits="userSpaceOnUse" x1="571.6344" y1="404.7373" x2="571.6344" y2="383.5348">
			<stop  offset="0" style="stop-color:#FF4998"/>
			<stop  offset="1" style="stop-color:#5600AC"/>
		</linearGradient>
		<path fill-rule="evenodd" clip-rule="evenodd" fill="url(#SVGID_91_)" d="M543,393.7c-3.5,6.1,13.3-5.2,21-2.3
			c6,2.3,6.8,6.6,11.2,7.7c3.8,0.9,7.6-1.4,11.4-2.5c8.6-2.4,12.6,12.2,14,7.1c1.5-5.9-3.8-17.9-12.3-13.4c-3,1.6-8.2,6.4-11.4,5.6
			c-4.4-1.1-5.4-8.2-9.2-10.6C560.2,380.6,547.3,386.2,543,393.7L543,393.7z"/>
		<linearGradient id="SVGID_92_" gradientUnits="userSpaceOnUse" x1="666.7922" y1="373.4026" x2="666.7922" y2="352.1866">
			<stop  offset="0" style="stop-color:#FF4998"/>
			<stop  offset="1" style="stop-color:#5600AC"/>
		</linearGradient>
		<path fill-rule="evenodd" clip-rule="evenodd" fill="url(#SVGID_92_)" d="M638.1,362.3c-3.5,6.1,13.3-5.2,21-2.3
			c6,2.3,6.8,6.6,11.2,7.7c3.8,0.9,7.6-1.4,11.4-2.4c8.6-2.4,12.7,12.2,14,7.1c1.5-5.9-3.7-17.9-12.3-13.4c-3,1.5-8.2,6.3-11.4,5.5
			c-4.4-1.1-5.4-8.2-9.2-10.6C655.3,349.3,642.5,354.8,638.1,362.3L638.1,362.3z"/>
		<linearGradient id="SVGID_93_" gradientUnits="userSpaceOnUse" x1="604.7799" y1="458.4071" x2="604.7799" y2="437.1898">
			<stop  offset="0" style="stop-color:#FF4998"/>
			<stop  offset="1" style="stop-color:#5600AC"/>
		</linearGradient>
		<path fill-rule="evenodd" clip-rule="evenodd" fill="url(#SVGID_93_)" d="M576.1,447.3c-3.5,6.1,13.3-5.2,21-2.3
			c6,2.3,6.8,6.6,11.2,7.7c3.8,0.8,7.6-1.4,11.4-2.5c8.6-2.4,12.6,12.2,14,7.1c1.5-5.9-3.7-17.9-12.3-13.4c-3,1.6-8.2,6.3-11.4,5.6
			c-4.4-1.1-5.4-8.2-9.2-10.6C593.3,434.3,580.5,439.8,576.1,447.3L576.1,447.3z"/>
	</g>
</g>
</svg>
