<svg xmlns="http://www.w3.org/2000/svg" id="master-artboard" width="335.99" height="235.19" x="0" y="0" version="1.1" viewBox="0 0 335.99 235.19" style="enable-background:new 0 0 335.99 235.19"><switch><g><linearGradient id="SVGID_1_" x1="168.049" x2="168.049" y1="157.366" y2="-.117" gradientUnits="userSpaceOnUse"><stop offset="0" style="stop-color:#fff"/><stop offset=".462" style="stop-color:#fac6a9"/><stop offset="1" style="stop-color:#ea4e42"/></linearGradient><path d="M 0 -0.12000000476837158 L 335.95001220703125 0.010000000707805157 L 336.1000061035156 157.3699951171875 L 0 157.3699951171875 Z" class="st0" style="fill-rule:evenodd;clip-rule:evenodd;fill:url(#SVGID_1_)"/><g id="snowflakes" class="st1" style="opacity:.6"><g><g><g class="st1" style="opacity:.6"><path d="M58.25,77.19c0-0.48,0.4-0.86,0.88-0.86c0.49,0,0.88,0.39,0.88,0.86c0,0.48-0.39,0.86-0.88,0.86 C58.64,78.05,58.25,77.67,58.25,77.19z" class="st2" style="fill:#fff"/><path d="M73.51,14.52c0-0.47,0.4-0.86,0.88-0.86c0.49,0,0.88,0.39,0.88,0.86c0,0.48-0.4,0.86-0.88,0.86 C73.91,15.38,73.51,14.99,73.51,14.52z" class="st2" style="fill:#fff"/><path d="M175.69,35.57c0-0.47,0.4-0.86,0.88-0.86c0.49,0,0.88,0.39,0.88,0.86c0,0.48-0.4,0.86-0.88,0.86 C176.09,36.43,175.69,36.04,175.69,35.57z" class="st2" style="fill:#fff"/><path d="M114.49,41.2c0-0.47,0.39-0.86,0.88-0.86c0.49,0,0.88,0.39,0.88,0.86c0,0.48-0.39,0.86-0.88,0.86 C114.89,42.06,114.49,41.68,114.49,41.2z" class="st2" style="fill:#fff"/><path d="M33.08,95.9c0-0.47,0.4-0.86,0.88-0.86c0.49,0,0.88,0.39,0.88,0.86c0,0.48-0.4,0.86-0.88,0.86 C33.47,96.76,33.08,96.38,33.08,95.9z" class="st2" style="fill:#fff"/><path d="M207.17,115.29c0-0.47,0.4-0.86,0.88-0.86c0.49,0,0.88,0.39,0.88,0.86c0,0.47-0.4,0.86-0.88,0.86 C207.57,116.16,207.17,115.77,207.17,115.29z" class="st2" style="fill:#fff"/><path d="M145.97,120.93c0-0.48,0.39-0.86,0.88-0.86c0.49,0,0.88,0.39,0.88,0.86c0,0.48-0.39,0.86-0.88,0.86 C146.37,121.79,145.97,121.41,145.97,120.93z" class="st2" style="fill:#fff"/><path d="M155.87,7.46c0-0.48,0.4-0.86,0.88-0.86c0.49,0,0.88,0.39,0.88,0.86c0,0.47-0.4,0.86-0.88,0.86 C156.27,8.32,155.87,7.93,155.87,7.46z" class="st2" style="fill:#fff"/><path d="M182.52,78.05c0-0.47,0.4-0.86,0.88-0.86s0.89,0.39,0.89,0.86c0,0.48-0.4,0.86-0.89,0.86 S182.52,78.53,182.52,78.05z" class="st2" style="fill:#fff"/><path d="M222.38,43.35c0-0.48,0.39-0.86,0.88-0.86c0.49,0,0.88,0.39,0.88,0.86c0,0.47-0.39,0.86-0.88,0.86 C222.77,44.21,222.38,43.83,222.38,43.35z" class="st2" style="fill:#fff"/></g><g class="st1" style="opacity:.6"><path d="M28.13,49.85c0-0.47,0.4-0.86,0.88-0.86c0.49,0,0.88,0.39,0.88,0.86c0,0.48-0.39,0.86-0.88,0.86 C28.53,50.71,28.13,50.32,28.13,49.85z" class="st2" style="fill:#fff"/><path d="M65.24,6.01c0-0.48,0.4-0.86,0.88-0.86C66.6,5.15,67,5.54,67,6.01c0,0.47-0.4,0.86-0.88,0.86 C65.63,6.87,65.24,6.49,65.24,6.01z" class="st2" style="fill:#fff"/><path d="M4.04,11.65c0-0.47,0.4-0.86,0.88-0.86c0.49,0,0.88,0.39,0.88,0.86c0,0.48-0.4,0.86-0.88,0.86 C4.43,12.51,4.04,12.12,4.04,11.65z" class="st2" style="fill:#fff"/><path d="M35.52,91.38c0-0.48,0.4-0.86,0.89-0.86c0.49,0,0.88,0.39,0.88,0.86c0,0.47-0.39,0.86-0.88,0.86 C35.92,92.24,35.52,91.85,35.52,91.38z" class="st2" style="fill:#fff"/><path d="M289.53,63.83c0-0.47,0.39-0.86,0.88-0.86c0.49,0,0.89,0.38,0.89,0.86c0,0.48-0.4,0.86-0.89,0.86 C289.92,64.69,289.53,64.3,289.53,63.83z" class="st2" style="fill:#fff"/><path d="M72.07,48.5c0-0.47,0.4-0.86,0.88-0.86c0.49,0,0.88,0.39,0.88,0.86c0,0.48-0.39,0.86-0.88,0.86 C72.46,49.36,72.07,48.98,72.07,48.5z" class="st2" style="fill:#fff"/><path d="M111.92,13.8c0-0.47,0.4-0.86,0.88-0.86c0.49,0,0.88,0.39,0.88,0.86c0,0.47-0.4,0.86-0.88,0.86 C112.32,14.66,111.92,14.27,111.92,13.8z" class="st2" style="fill:#fff"/></g><g class="st1" style="opacity:.6"><path d="M146.4,39.24c0-0.2,0.16-0.36,0.37-0.36c0.21,0,0.37,0.16,0.37,0.36c0,0.2-0.16,0.36-0.37,0.36 C146.56,39.6,146.4,39.44,146.4,39.24z" class="st2" style="fill:#fff"/><path d="M230.84,63.29c0-0.2,0.17-0.36,0.37-0.36c0.2,0,0.37,0.16,0.37,0.36c0,0.2-0.16,0.36-0.37,0.36 C231.01,63.65,230.84,63.49,230.84,63.29z" class="st2" style="fill:#fff"/><path d="M140.5,106.34c0-0.2,0.17-0.36,0.37-0.36c0.2,0,0.37,0.16,0.37,0.36c0,0.2-0.17,0.36-0.37,0.36 C140.67,106.7,140.5,106.54,140.5,106.34z" class="st2" style="fill:#fff"/><path d="M 64.560002 50.66 A 0.37 0.36 0 0 1 64.190002 51.02 A 0.37 0.36 0 0 1 63.820002 50.66 A 0.37 0.36 0 0 1 64.190002 50.3 A 0.37 0.36 0 0 1 64.560002 50.66 Z" class="st2" style="fill:#fff"/><path d="M118.39,4.46c0-0.2,0.16-0.36,0.37-0.36c0.2,0,0.37,0.16,0.37,0.36c0,0.2-0.17,0.36-0.37,0.36 C118.55,4.83,118.39,4.66,118.39,4.46z" class="st2" style="fill:#fff"/><path d="M188.74,59.19c0-0.2,0.17-0.36,0.37-0.36c0.2,0,0.37,0.16,0.37,0.36c0,0.2-0.17,0.36-0.37,0.36 C188.91,59.55,188.74,59.39,188.74,59.19z" class="st2" style="fill:#fff"/><path d="M112.81,53.14c0-0.2,0.17-0.36,0.37-0.36c0.2,0,0.37,0.16,0.37,0.36c0,0.2-0.17,0.36-0.37,0.36 C112.98,53.5,112.81,53.33,112.81,53.14z" class="st2" style="fill:#fff"/><path d="M99.52,89.61c0-0.2,0.17-0.36,0.37-0.36c0.2,0,0.37,0.16,0.37,0.36c0,0.2-0.17,0.36-0.37,0.36 C99.69,89.97,99.52,89.81,99.52,89.61z" class="st2" style="fill:#fff"/><path d="M35.41,97.26c0-0.2,0.17-0.36,0.37-0.36c0.2,0,0.37,0.16,0.37,0.36c0,0.2-0.16,0.36-0.37,0.36 C35.58,97.62,35.41,97.46,35.41,97.26z" class="st2" style="fill:#fff"/><path d="M24.12,46.2c0-0.2,0.17-0.36,0.37-0.36c0.2,0,0.37,0.16,0.37,0.36c0,0.2-0.17,0.36-0.37,0.36 C24.28,46.56,24.12,46.4,24.12,46.2z" class="st2" style="fill:#fff"/><path d="M248.56,108.79c0-0.2,0.16-0.36,0.37-0.36c0.2,0,0.37,0.16,0.37,0.36s-0.16,0.36-0.37,0.36 C248.72,109.15,248.56,108.99,248.56,108.79z" class="st2" style="fill:#fff"/><path d="M289.72,84.13c0-0.2,0.17-0.36,0.37-0.36c0.2,0,0.37,0.16,0.37,0.36c0,0.2-0.17,0.36-0.37,0.36 C289.89,84.49,289.72,84.33,289.72,84.13z" class="st2" style="fill:#fff"/><path d="M311.04,106.34c0-0.2,0.17-0.36,0.37-0.36c0.2,0,0.37,0.16,0.37,0.36c0,0.2-0.17,0.36-0.37,0.36 C311.21,106.7,311.04,106.54,311.04,106.34z" class="st2" style="fill:#fff"/><path d="M131.68,55.6c0-0.2,0.17-0.36,0.37-0.36c0.2,0,0.37,0.16,0.37,0.36c0,0.2-0.17,0.36-0.37,0.36 C131.85,55.96,131.68,55.8,131.68,55.6z" class="st2" style="fill:#fff"/></g><g class="st1" style="opacity:.6"><path d="M214.21,37.9c0-0.2,0.17-0.36,0.37-0.36c0.2,0,0.37,0.16,0.37,0.36c0,0.2-0.16,0.36-0.37,0.36 C214.38,38.26,214.21,38.09,214.21,37.9z" class="st2" style="fill:#fff"/><path d="M298.66,61.94c0-0.2,0.16-0.36,0.37-0.36c0.21,0,0.37,0.16,0.37,0.36c0,0.2-0.16,0.36-0.37,0.36 C298.83,62.3,298.66,62.14,298.66,61.94z" class="st2" style="fill:#fff"/><path d="M208.32,104.99c0-0.2,0.17-0.36,0.37-0.36c0.2,0,0.37,0.16,0.37,0.36c0,0.2-0.17,0.36-0.37,0.36 C208.49,105.35,208.32,105.19,208.32,104.99z" class="st2" style="fill:#fff"/><path d="M131.64,49.31c0-0.2,0.17-0.36,0.37-0.36c0.2,0,0.37,0.16,0.37,0.36c0,0.2-0.17,0.36-0.37,0.36 C131.81,49.67,131.64,49.51,131.64,49.31z" class="st2" style="fill:#fff"/><path d="M186.21,3.12c0-0.2,0.17-0.36,0.37-0.36c0.2,0,0.37,0.16,0.37,0.36c0,0.2-0.16,0.36-0.37,0.36 C186.37,3.48,186.21,3.32,186.21,3.12z" class="st2" style="fill:#fff"/><path d="M256.56,57.84c0-0.2,0.17-0.36,0.37-0.36c0.2,0,0.37,0.16,0.37,0.36c0,0.2-0.17,0.36-0.37,0.36 C256.72,58.2,256.56,58.04,256.56,57.84z" class="st2" style="fill:#fff"/><path d="M180.63,51.79c0-0.2,0.17-0.36,0.37-0.36c0.2,0,0.37,0.16,0.37,0.36c0,0.2-0.17,0.36-0.37,0.36 C180.8,52.15,180.63,51.99,180.63,51.79z" class="st2" style="fill:#fff"/><path d="M167.34,88.26c0-0.2,0.16-0.36,0.37-0.36c0.2,0,0.37,0.16,0.37,0.36c0,0.2-0.17,0.36-0.37,0.36 C167.5,88.62,167.34,88.46,167.34,88.26z" class="st2" style="fill:#fff"/><path d="M103.23,95.91c0-0.2,0.16-0.36,0.37-0.36c0.2,0,0.37,0.16,0.37,0.36c0,0.2-0.17,0.36-0.37,0.36 C103.39,96.27,103.23,96.11,103.23,95.91z" class="st2" style="fill:#fff"/><path d="M91.93,44.85c0-0.2,0.17-0.36,0.37-0.36c0.2,0,0.37,0.16,0.37,0.36c0,0.2-0.17,0.36-0.37,0.36 C92.1,45.21,91.93,45.05,91.93,44.85z" class="st2" style="fill:#fff"/><path d="M1.92,98.94c0-0.2,0.17-0.36,0.37-0.36c0.2,0,0.37,0.16,0.37,0.36c0,0.2-0.17,0.36-0.37,0.36 C2.09,99.3,1.92,99.14,1.92,98.94z" class="st2" style="fill:#fff"/><path d="M62.12,107.81c0-0.2,0.17-0.36,0.37-0.36c0.2,0,0.37,0.16,0.37,0.36c0,0.2-0.17,0.36-0.37,0.36 C62.28,108.17,62.12,108.01,62.12,107.81z" class="st2" style="fill:#fff"/><path d="M316.37,107.45c0-0.2,0.16-0.36,0.37-0.36c0.2,0,0.37,0.16,0.37,0.36c0,0.2-0.17,0.36-0.37,0.36 C316.54,107.81,316.37,107.65,316.37,107.45z" class="st2" style="fill:#fff"/><path d="M199.5,54.26c0-0.2,0.16-0.36,0.37-0.36c0.2,0,0.37,0.16,0.37,0.36c0,0.2-0.16,0.36-0.37,0.36 C199.66,54.62,199.5,54.46,199.5,54.26z" class="st2" style="fill:#fff"/></g></g><g><g class="st1" style="opacity:.6"><path d="M84.75,140.17c0-0.47,0.39-0.86,0.88-0.86c0.49,0,0.88,0.39,0.88,0.86c0,0.47-0.39,0.86-0.88,0.86 C85.14,141.03,84.75,140.64,84.75,140.17z" class="st2" style="fill:#fff"/><path d="M10.4,131.02c0-0.48,0.4-0.86,0.89-0.86c0.48,0,0.88,0.39,0.88,0.86c0,0.48-0.39,0.86-0.88,0.86 C10.8,131.88,10.4,131.49,10.4,131.02z" class="st2" style="fill:#fff"/><path d="M205.53,139.31c0-0.48,0.4-0.86,0.88-0.86c0.49,0,0.88,0.39,0.88,0.86c0,0.47-0.4,0.86-0.88,0.86 C205.93,140.17,205.53,139.78,205.53,139.31z" class="st2" style="fill:#fff"/></g><g class="st1" style="opacity:.6"><path d="M41.32,134.57c0-0.47,0.4-0.86,0.88-0.86c0.49,0,0.88,0.39,0.88,0.86c0,0.48-0.4,0.86-0.88,0.86 C41.71,135.43,41.32,135.05,41.32,134.57z" class="st2" style="fill:#fff"/><path d="M20.7,111.48c0-0.48,0.4-0.86,0.88-0.86c0.49,0,0.88,0.39,0.88,0.86c0,0.47-0.39,0.86-0.88,0.86 C21.1,112.34,20.7,111.95,20.7,111.48z" class="st2" style="fill:#fff"/><path d="M282.16,135.19c0-0.47,0.39-0.86,0.88-0.86c0.49,0,0.88,0.39,0.88,0.86c0,0.48-0.39,0.86-0.88,0.86 C282.55,136.05,282.16,135.67,282.16,135.19z" class="st2" style="fill:#fff"/><path d="M95.08,109.76c0-0.47,0.4-0.86,0.88-0.86c0.49,0,0.88,0.39,0.88,0.86c0,0.47-0.39,0.86-0.88,0.86 C95.47,110.62,95.08,110.23,95.08,109.76z" class="st2" style="fill:#fff"/></g><g class="st1" style="opacity:.6"><path d="M320.28,125.31c0-0.2,0.17-0.36,0.37-0.36c0.2,0,0.37,0.16,0.37,0.36c0,0.2-0.17,0.36-0.37,0.36 C320.44,125.67,320.28,125.51,320.28,125.31z" class="st2" style="fill:#fff"/><path d="M33.95,112.5c0-0.2,0.17-0.36,0.37-0.36c0.2,0,0.37,0.16,0.37,0.36c0,0.2-0.17,0.36-0.37,0.36 C34.12,112.86,33.95,112.7,33.95,112.5z" class="st2" style="fill:#fff"/><path d="M158.23,128.4c0-0.2,0.17-0.36,0.37-0.36c0.2,0,0.37,0.16,0.37,0.36c0,0.2-0.17,0.36-0.37,0.36 C158.39,128.75,158.23,128.59,158.23,128.4z" class="st2" style="fill:#fff"/><path d="M240.95,120.1c0-0.2,0.17-0.36,0.37-0.36c0.2,0,0.37,0.16,0.37,0.36c0,0.2-0.16,0.36-0.37,0.36 C241.12,120.46,240.95,120.3,240.95,120.1z" class="st2" style="fill:#fff"/></g><g class="st1" style="opacity:.6"><path d="M332.08,145.77c0-0.2,0.16-0.36,0.37-0.36c0.2,0,0.37,0.16,0.37,0.36c0,0.2-0.17,0.36-0.37,0.36 C332.25,146.13,332.08,145.97,332.08,145.77z" class="st2" style="fill:#fff"/><path d="M27.34,142.11c0-0.2,0.17-0.36,0.37-0.36c0.2,0,0.37,0.16,0.37,0.36c0,0.2-0.17,0.36-0.37,0.36 C27.5,142.47,27.34,142.31,27.34,142.11z" class="st2" style="fill:#fff"/><path d="M101.77,111.16c0-0.2,0.17-0.36,0.37-0.36c0.2,0,0.37,0.16,0.37,0.36c0,0.2-0.17,0.36-0.37,0.36 C101.94,111.51,101.77,111.35,101.77,111.16z" class="st2" style="fill:#fff"/><path d="M226.04,127.05c0-0.2,0.17-0.36,0.37-0.36c0.2,0,0.37,0.16,0.37,0.36s-0.16,0.36-0.37,0.36 C226.21,127.41,226.04,127.25,226.04,127.05z" class="st2" style="fill:#fff"/><path d="M308.77,118.76c0-0.2,0.17-0.36,0.37-0.36c0.2,0,0.37,0.16,0.37,0.36c0,0.2-0.17,0.36-0.37,0.36 C308.94,119.12,308.77,118.95,308.77,118.76z" class="st2" style="fill:#fff"/></g></g></g></g><linearGradient id="XMLID_3_" x1="168.147" x2="168.147" y1="43.34" y2="1.987" gradientUnits="userSpaceOnUse"><stop offset="0" style="stop-color:#f6a988;stop-opacity:.3"/><stop offset=".113" style="stop-color:#e8947b;stop-opacity:.3789"/><stop offset=".37" style="stop-color:#cd6b63;stop-opacity:.5593"/><stop offset=".612" style="stop-color:#b95052;stop-opacity:.7284"/><stop offset=".829" style="stop-color:#ad3f48;stop-opacity:.8802"/><stop offset="1" style="stop-color:#aa3a45"/></linearGradient><path id="XMLID_58_" d="M0.34,0.61v35.82l290.9-1.37c0.97,0-231.35,7.25-231.35,7.25 c5.03,0.1,276.06,1.17,276.06,1.17V0.01L0.34,0.61z" class="st3" style="fill:url(#XMLID_3_)"/><linearGradient id="SVGID_2_" x1="32.849" x2="32.849" y1="156.837" y2="68.112" gradientUnits="userSpaceOnUse"><stop offset="0" style="stop-color:#fff;stop-opacity:0"/><stop offset="1" style="stop-color:#fff"/></linearGradient><path d="M65.58,156.84c-1.7-4.21-5.47-7.37-10.05-8.19c2.2-2.69,3.53-6.12,3.53-9.87c0-6.58-4.09-12.18-9.87-14.46 c0.47-1.3,0.74-2.7,0.74-4.16c0-6.8-5.51-12.31-12.31-12.31c-1.4,0-2.75,0.25-4,0.68c-1.14-7.96-7.33-14.27-15.22-15.6 c0.53-1.76,0.82-3.62,0.82-5.55c0-7.32-4.08-13.67-10.09-16.94c0.01-0.01,0.02-0.02,0.03-0.03c-2.41-1.33-5.4-2.3-9.02-2.3v6.23 v32.29c0.03,0,0.06-0.01,0.1-0.01v50.2H65.58z" class="st4" style="fill:url(#SVGID_2_)"/><g><linearGradient id="SVGID_3_" x1="167.993" x2="167.993" y1="235.195" y2="156.613" gradientUnits="userSpaceOnUse"><stop offset="0" style="stop-color:#fff"/><stop offset=".122" style="stop-color:#f0eff6"/><stop offset=".344" style="stop-color:#c8c8db"/><stop offset=".639" style="stop-color:#8f8fb2"/><stop offset=".995" style="stop-color:#4d507d"/><stop offset="1" style="stop-color:#4c4f7d"/></linearGradient><path d="M 0 156.610001 H 335.98999 V 235.190002 H 0 V 156.610001 Z" class="st5" style="fill-rule:evenodd;clip-rule:evenodd;fill:url(#SVGID_3_)"/><linearGradient id="SVGID_4_" x1="9.69" x2="336.165" y1="184.763" y2="184.763" gradientUnits="userSpaceOnUse"><stop offset="0" style="stop-color:#fff"/><stop offset=".276" style="stop-color:#bcbcd3"/><stop offset=".618" style="stop-color:#7b7ca3"/><stop offset=".869" style="stop-color:#585a86"/><stop offset="1" style="stop-color:#4c4f7d"/></linearGradient><path d="M336.12,156.67H195.44l101.35,3.06c4.26,0.08,4.54,4.96-0.07,5.07l-253.67,7.05c-7.2,0.17-6.1,1.27-0.4,1.31 l249.63,7.17c2.97,0.02,3.09,3.74-0.21,3.74l-277.34,7.01c-7.2,0.17-6.1,1.27-0.4,1.31l271.32,9.21c6.3,0.04,6.43,2.93-0.16,3.04 L72.88,212.5l258.32,0.35c2,0,4.96,0,4.96,0S336.02,156.58,336.12,156.67z" class="st6" style="opacity:.2;fill:url(#SVGID_4_)"/><g><g id="XMLID_126_" class="st7" style="opacity:.4"><path id="XMLID_106_" d="M22.25,179.46c0,0,0.55-0.01,1.5-0.02c0.96-0.01,2.32-0.03,3.96-0.04 c1.64-0.01,3.55-0.02,5.6-0.02c1.02,0,2.08,0,3.16,0c1.08,0,2.17,0.01,3.26,0.01c1.09,0.01,2.19,0.02,3.26,0.02 c1.08,0.01,2.14,0.02,3.16,0.03c2.05,0.02,3.96,0.05,5.6,0.08c1.64,0.03,3.01,0.07,3.96,0.09c0.96,0.03,1.5,0.04,1.5,0.04 s-0.55,0.01-1.5,0.02c-0.96,0.01-2.32,0.03-3.96,0.04c-1.64,0.01-3.55,0.02-5.6,0.02c-1.02,0-2.08,0-3.16,0 c-1.08,0-2.17-0.01-3.26-0.01c-1.09-0.01-2.19-0.02-3.26-0.02c-1.08-0.01-2.14-0.02-3.16-0.03c-2.05-0.02-3.96-0.05-5.6-0.08 c-1.64-0.03-3.01-0.07-3.96-0.09C22.8,179.48,22.25,179.46,22.25,179.46z" class="st8" style="opacity:.2;fill:#fff"/><path id="XMLID_108_" d="M81.02,180.57c0,0,0.3-0.06,0.75-0.09c0.22-0.02,0.49-0.04,0.77-0.05 c0.28-0.01,0.58-0.02,0.88-0.02c0.3,0,0.6,0.01,0.88,0.03c0.28,0.01,0.54,0.03,0.77,0.06c0.45,0.04,0.75,0.1,0.75,0.1 s-0.3,0.06-0.75,0.09c-0.22,0.02-0.49,0.04-0.77,0.05c-0.28,0.01-0.58,0.02-0.88,0.02c-0.3,0-0.6-0.01-0.88-0.03 c-0.28-0.01-0.54-0.03-0.77-0.06C81.32,180.63,81.02,180.57,81.02,180.57z" class="st2" style="fill:#fff"/><path id="XMLID_109_" d="M72.26,185.93c0,0,0.54-0.01,1.47-0.02c0.94-0.01,2.27-0.03,3.88-0.04 c1.6-0.01,3.48-0.02,5.48-0.02c1,0,2.04,0,3.09,0c1.05,0,2.12,0.01,3.19,0.01c1.07,0.01,2.14,0.02,3.19,0.02 c1.05,0.01,2.09,0.02,3.09,0.03c2.01,0.02,3.88,0.05,5.48,0.08c1.6,0.03,2.94,0.07,3.88,0.09c0.94,0.03,1.47,0.04,1.47,0.04 s-0.54,0.01-1.47,0.03c-0.94,0.01-2.27,0.03-3.88,0.04c-1.6,0.01-3.48,0.02-5.48,0.02c-1,0-2.04,0-3.09,0 c-1.05,0-2.12-0.01-3.19-0.01c-1.07-0.01-2.14-0.02-3.19-0.02c-1.05-0.01-2.09-0.02-3.09-0.03c-2.01-0.02-3.88-0.05-5.48-0.08 c-1.6-0.03-2.94-0.07-3.88-0.09C72.79,185.94,72.26,185.93,72.26,185.93z" class="st2" style="fill:#fff"/><path id="XMLID_110_" d="M101.26,184.29c0,0,0.76-0.01,2.1-0.02c1.34-0.01,3.25-0.03,5.54-0.03 c2.29,0,4.97-0.02,7.83-0.01c2.86,0.01,5.92,0.02,8.98,0.03c3.06,0.03,6.11,0.05,8.98,0.07c2.86,0.02,5.54,0.07,7.83,0.1 c2.29,0.03,4.2,0.07,5.54,0.09c1.34,0.03,2.1,0.05,2.1,0.05s-0.76,0.01-2.1,0.02c-1.34,0.01-3.25,0.03-5.54,0.03 c-2.29,0-4.97,0.02-7.83,0.01c-2.86-0.01-5.92-0.02-8.98-0.03c-3.06-0.03-6.11-0.05-8.98-0.07c-2.86-0.02-5.54-0.07-7.83-0.1 c-2.29-0.03-4.2-0.07-5.54-0.09C102.02,184.31,101.26,184.29,101.26,184.29z" class="st8" style="opacity:.2;fill:#fff"/><path id="XMLID_111_" d="M121.92,182.35c0,0,0.65-0.01,1.79-0.02c1.14-0.01,2.77-0.03,4.73-0.04 c1.96,0,4.24-0.02,6.68-0.01c2.45,0.01,5.05,0.01,7.66,0.02c2.61,0.02,5.22,0.05,7.66,0.07c2.45,0.02,4.73,0.07,6.68,0.09 c1.96,0.03,3.59,0.07,4.73,0.09c1.14,0.03,1.79,0.04,1.79,0.04s-0.65,0.01-1.79,0.02c-1.14,0.01-2.77,0.03-4.73,0.04 c-1.96,0-4.24,0.02-6.68,0.01c-2.45-0.01-5.05-0.01-7.66-0.02c-2.61-0.02-5.22-0.05-7.66-0.07c-2.45-0.02-4.73-0.07-6.68-0.09 c-1.96-0.03-3.59-0.07-4.73-0.09C122.57,182.36,121.92,182.35,121.92,182.35z" class="st2" style="fill:#fff"/><path id="XMLID_112_" d="M164.43,179.5c0,0,0.6-0.05,1.49-0.09c0.45-0.02,0.97-0.03,1.53-0.04 c0.28,0,0.57-0.01,0.86-0.01c0.29,0,0.59,0,0.89,0c0.3,0,0.6,0.01,0.89,0.01c0.29,0,0.58,0.01,0.86,0.02 c0.56,0.02,1.08,0.04,1.53,0.06c0.9,0.05,1.49,0.11,1.49,0.11s-0.6,0.05-1.49,0.09c-0.45,0.02-0.97,0.04-1.53,0.04 c-0.28,0-0.57,0.01-0.86,0.01c-0.29,0-0.59,0-0.89,0c-0.3,0-0.6-0.01-0.89-0.01c-0.29,0-0.58-0.01-0.86-0.02 c-0.56-0.02-1.08-0.04-1.53-0.06C165.03,179.56,164.43,179.5,164.43,179.5z" class="st2" style="fill:#fff"/><path id="XMLID_113_" d="M147.28,192.8c0,0,0.74-0.01,2.03-0.02c1.29-0.01,3.14-0.03,5.36-0.03 c2.22,0,4.8-0.02,7.57-0.01c2.77,0.01,5.72,0.02,8.68,0.03c2.95,0.02,5.91,0.05,8.68,0.07c2.77,0.02,5.36,0.07,7.57,0.1 c2.22,0.03,4.06,0.07,5.35,0.09c1.29,0.03,2.03,0.05,2.03,0.05s-0.74,0.01-2.03,0.02c-1.29,0.01-3.14,0.03-5.36,0.03 c-2.22,0-4.8,0.02-7.57,0.01c-2.77-0.01-5.72-0.02-8.68-0.03c-2.95-0.02-5.91-0.05-8.68-0.07c-2.77-0.02-5.36-0.07-7.57-0.1 c-2.22-0.03-4.06-0.07-5.35-0.09C148.02,192.82,147.28,192.8,147.28,192.8z" class="st2" style="fill:#fff"/><path id="XMLID_114_" d="M174.66,196.31c0,0,0.99-0.01,2.73-0.02c1.74,0,4.22-0.02,7.2-0.02 c2.98,0,6.45-0.01,10.18,0.01c3.72,0.01,7.7,0.03,11.67,0.04c3.97,0.03,7.94,0.06,11.67,0.09c3.72,0.03,7.2,0.08,10.18,0.11 c2.98,0.03,5.46,0.08,7.2,0.1c1.74,0.03,2.73,0.05,2.73,0.05s-0.99,0.01-2.73,0.02c-1.74,0-4.22,0.02-7.2,0.02 c-2.98,0-6.45,0.01-10.18-0.01c-3.72-0.01-7.7-0.03-11.67-0.04c-3.97-0.03-7.94-0.06-11.67-0.09 c-3.72-0.03-7.2-0.08-10.18-0.11c-2.98-0.03-5.46-0.08-7.2-0.1C175.65,196.32,174.66,196.31,174.66,196.31z" class="st8" style="opacity:.2;fill:#fff"/><path id="XMLID_117_" d="M66.67,191.05c0,0,0.33-0.01,0.91-0.03c0.58-0.01,1.4-0.04,2.39-0.05 c0.99-0.02,2.14-0.03,3.37-0.03c0.62,0,1.25,0,1.9,0c0.65,0,1.31,0,1.96,0.01c0.66,0.01,1.32,0.01,1.96,0.02 c0.65,0,1.29,0.02,1.9,0.03c1.23,0.02,2.39,0.04,3.37,0.07c0.99,0.02,1.81,0.06,2.39,0.08c0.58,0.02,0.9,0.04,0.9,0.04 s-0.33,0.01-0.91,0.03c-0.58,0.01-1.4,0.04-2.39,0.05c-0.99,0.02-2.14,0.03-3.37,0.03c-0.62,0-1.25,0.01-1.9,0 c-0.65,0-1.31,0-1.96-0.01c-0.66-0.01-1.32-0.01-1.96-0.02c-0.65-0.01-1.29-0.02-1.9-0.03c-1.23-0.02-2.39-0.04-3.37-0.07 c-0.99-0.02-1.81-0.06-2.39-0.08C67,191.07,66.67,191.05,66.67,191.05z" class="st2" style="fill:#fff"/><path id="XMLID_119_" d="M88.09,198.39c0,0-0.6,0.01-1.66,0.02c-1.05,0.01-2.56,0.03-4.37,0.04 c-1.81,0.01-3.91,0.02-6.17,0.02c-1.13,0-2.3,0-3.48-0.01c-1.19,0-2.39-0.01-3.59-0.01c-1.2-0.01-2.41-0.02-3.59-0.03 c-1.19-0.01-2.35-0.02-3.48-0.03c-2.26-0.02-4.37-0.06-6.17-0.09c-1.81-0.03-3.31-0.07-4.37-0.09 c-1.05-0.03-1.66-0.04-1.66-0.04s0.6-0.01,1.66-0.02c1.05-0.01,2.56-0.03,4.37-0.04c1.81-0.01,3.91-0.02,6.17-0.02 c1.13,0,2.3,0,3.48,0.01c1.19,0,2.39,0.01,3.59,0.01c1.2,0.01,2.41,0.02,3.59,0.03c1.19,0.01,2.35,0.02,3.48,0.03 c2.26,0.03,4.37,0.06,6.17,0.09c1.81,0.03,3.31,0.07,4.37,0.09C87.49,198.37,88.09,198.39,88.09,198.39z" class="st8" style="opacity:.2;fill:#fff"/><path id="XMLID_122_" d="M90.44,201.24c0,0,0.7-0.05,1.74-0.09c0.52-0.02,1.13-0.03,1.79-0.04 c0.33,0,0.66-0.01,1.01-0.01c0.34,0,0.69,0,1.04,0c0.35,0,0.7,0.01,1.04,0.01c0.34,0,0.68,0.01,1.01,0.02 c0.65,0.02,1.26,0.04,1.79,0.06c1.04,0.05,1.74,0.11,1.74,0.11s-0.7,0.05-1.74,0.09c-0.52,0.02-1.13,0.03-1.79,0.04 c-0.33,0-0.66,0.01-1.01,0.01c-0.34,0-0.69,0-1.04,0c-0.35,0-0.7-0.01-1.04-0.01c-0.34,0-0.68-0.01-1.01-0.02 c-0.65-0.02-1.26-0.04-1.79-0.06C91.13,201.3,90.44,201.24,90.44,201.24z" class="st2" style="fill:#fff"/><path id="XMLID_123_" d="M68.12,214.76c0,0,1.08-0.01,2.96-0.02c1.88,0,4.58-0.02,7.81-0.02 c3.23,0,7-0.01,11.03,0.01c4.04,0.02,8.34,0.03,12.65,0.05c4.31,0.03,8.61,0.06,12.65,0.09c4.04,0.03,7.8,0.08,11.03,0.12 c3.23,0.03,5.92,0.08,7.8,0.11c1.88,0.03,2.96,0.05,2.96,0.05s-1.08,0.01-2.96,0.02c-1.88,0-4.58,0.02-7.81,0.02 c-3.23,0-7,0.01-11.03-0.01c-4.04-0.02-8.34-0.03-12.65-0.05c-4.31-0.03-8.61-0.06-12.65-0.09c-4.04-0.03-7.8-0.08-11.03-0.12 c-3.23-0.03-5.92-0.08-7.8-0.11C69.2,214.78,68.12,214.76,68.12,214.76z" class="st2" style="fill:#fff"/></g><g id="XMLID_154_" class="st9" style="opacity:.3"><path id="XMLID_127_" d="M73.58,161.97c0,0,0.58-0.01,1.61-0.02c1.02-0.01,2.48-0.03,4.23-0.03 c1.75,0,3.79-0.01,5.98-0.01c2.19,0,4.52,0.01,6.86,0.02c1.17,0.01,2.33,0.02,3.48,0.02c1.15,0.01,2.28,0.02,3.37,0.03 c2.19,0.02,4.23,0.06,5.98,0.08c1.75,0.02,3.21,0.06,4.23,0.08c1.02,0.02,1.6,0.04,1.6,0.04s-0.58,0.01-1.61,0.02 c-1.02,0.01-2.48,0.03-4.23,0.03c-1.75,0-3.79,0.02-5.98,0.01c-1.09,0-2.22,0-3.37-0.01c-1.15,0-2.32-0.01-3.48-0.01 c-2.33-0.02-4.67-0.03-6.86-0.06c-2.19-0.03-4.23-0.06-5.98-0.08c-1.75-0.02-3.21-0.06-4.23-0.08 C74.17,161.99,73.58,161.97,73.58,161.97z" class="st10" style="opacity:.4;fill:#fff"/><path id="XMLID_128_" d="M104.15,164.73c0,0,1.21,0,3.33-0.01c2.12,0,5.14,0,8.78,0 c3.63,0.01,7.87,0.02,12.41,0.03c4.54,0.02,9.38,0.04,14.22,0.06c4.84,0.03,9.68,0.07,14.22,0.1 c4.54,0.04,8.78,0.08,12.41,0.12c3.63,0.04,6.66,0.08,8.78,0.1c2.12,0.03,3.33,0.05,3.33,0.05s-1.21,0-3.33,0.01 c-2.12,0-5.14,0-8.78,0c-3.63-0.01-7.87-0.02-12.41-0.03c-4.54-0.02-9.38-0.04-14.22-0.06c-4.84-0.03-9.68-0.07-14.22-0.1 c-4.54-0.04-8.78-0.08-12.41-0.12c-3.63-0.04-6.66-0.08-8.78-0.1C105.36,164.74,104.15,164.73,104.15,164.73z" class="st2" style="fill:#fff"/><path id="XMLID_129_" d="M123.63,161.74c0,0,0.3-0.01,0.84-0.02c0.53-0.01,1.29-0.03,2.21-0.04 c0.91-0.01,1.98-0.02,3.12-0.03c1.14-0.01,2.36,0,3.58,0c0.61,0.01,1.22,0.01,1.82,0.02c0.6,0.01,1.19,0.02,1.76,0.02 c1.14,0.02,2.21,0.04,3.12,0.06c0.91,0.02,1.68,0.05,2.21,0.07c0.53,0.02,0.84,0.03,0.84,0.03s-0.3,0.01-0.84,0.02 c-0.53,0.01-1.29,0.03-2.21,0.04c-0.91,0.01-1.98,0.02-3.12,0.03c-0.57,0-1.16,0-1.76,0c-0.6,0-1.21,0-1.82-0.01 c-1.22-0.01-2.44-0.02-3.58-0.04c-1.14-0.02-2.21-0.04-3.12-0.06c-0.91-0.02-1.68-0.05-2.21-0.07 C123.93,161.76,123.63,161.74,123.63,161.74z" class="st2" style="fill:#fff"/><path id="XMLID_130_" d="M55.3,164.19c0,0,0.19-0.01,0.53-0.03c0.34-0.01,0.82-0.03,1.4-0.05 c0.58-0.02,1.25-0.03,1.98-0.03c0.72-0.01,1.49-0.01,2.27-0.01c0.39,0,0.77,0.01,1.15,0.01c0.38,0,0.75,0.01,1.11,0.02 c0.72,0.01,1.4,0.03,1.98,0.06c0.58,0.02,1.06,0.05,1.4,0.06c0.34,0.02,0.53,0.03,0.53,0.03s-0.19,0.01-0.53,0.03 c-0.34,0.01-0.82,0.03-1.4,0.05c-0.58,0.02-1.25,0.03-1.98,0.03c-0.36,0-0.73,0.01-1.11,0.01c-0.38,0-0.77,0-1.15,0 c-0.77-0.01-1.54-0.01-2.26-0.03c-0.72-0.01-1.4-0.03-1.98-0.06c-0.58-0.02-1.06-0.05-1.4-0.06 C55.5,164.2,55.3,164.19,55.3,164.19z" class="st2" style="fill:#fff"/><path id="XMLID_131_" d="M7.25,163.4c0,0,0.47-0.01,1.3-0.02c0.83-0.01,2-0.03,3.42-0.03 c1.41,0,3.07-0.02,4.83-0.02c1.77,0,3.65,0.01,5.54,0.01c0.94,0.01,1.89,0.01,2.81,0.02c0.93,0.01,1.84,0.02,2.73,0.03 c1.77,0.02,3.42,0.05,4.83,0.07c1.41,0.02,2.59,0.06,3.42,0.07c0.83,0.02,1.3,0.04,1.3,0.04s-0.47,0.01-1.3,0.02 c-0.83,0.01-2,0.03-3.42,0.03c-1.41,0-3.07,0.02-4.83,0.02c-0.88,0-1.8,0-2.73,0c-0.93,0-1.87-0.01-2.81-0.01 c-1.89-0.01-3.77-0.03-5.54-0.05c-1.77-0.02-3.42-0.05-4.83-0.07c-1.41-0.02-2.59-0.06-3.42-0.07 C7.72,163.41,7.25,163.4,7.25,163.4z" class="st2" style="fill:#fff"/><path id="XMLID_132_" d="M5.29,159.78c0,0,1.4,0,3.86-0.01c2.45,0,5.96,0,10.17,0c4.21,0.01,9.12,0.02,14.37,0.04 c5.26,0.02,10.87,0.05,16.48,0.07c5.61,0.04,11.22,0.08,16.48,0.11c5.26,0.05,10.17,0.09,14.37,0.13 c4.21,0.05,7.71,0.09,10.17,0.11c2.45,0.03,3.86,0.05,3.86,0.05s-1.4,0-3.86,0.01c-2.45,0-5.96,0-10.17,0 c-4.21-0.01-9.12-0.02-14.37-0.04c-5.26-0.02-10.87-0.05-16.48-0.07c-5.61-0.04-11.22-0.08-16.48-0.11 c-5.26-0.05-10.17-0.09-14.37-0.13c-4.21-0.05-7.71-0.09-10.17-0.11C6.69,159.8,5.29,159.78,5.29,159.78z" class="st8" style="opacity:.2;fill:#fff"/><path id="XMLID_134_" d="M198.69,161.14c0,0,0.72-0.05,1.8-0.07c0.54-0.02,1.17-0.03,1.84-0.03 c0.67-0.01,1.39-0.01,2.11-0.01c0.36,0,0.72,0.01,1.07,0.01c0.35,0,0.7,0.01,1.04,0.02c0.67,0.01,1.3,0.03,1.84,0.06 c1.08,0.04,1.8,0.1,1.8,0.1s-0.72,0.05-1.8,0.07c-0.54,0.02-1.17,0.03-1.84,0.03c-0.34,0-0.69,0.01-1.04,0.01 c-0.35,0-0.71,0-1.07,0c-0.72-0.01-1.44-0.01-2.11-0.03c-0.67-0.01-1.3-0.03-1.84-0.06 C199.41,161.2,198.69,161.14,198.69,161.14z" class="st2" style="fill:#fff"/><path id="XMLID_137_" d="M192.68,170.13c0,0,0.72-0.01,1.98-0.02c1.26,0,3.06-0.02,5.22-0.02 c2.16,0,4.68-0.01,7.38,0c2.7,0.01,5.58,0.02,8.46,0.03c2.88,0.02,5.76,0.05,8.46,0.07c2.7,0.02,5.22,0.06,7.38,0.09 c2.16,0.03,3.96,0.07,5.22,0.08c1.26,0.03,1.98,0.04,1.98,0.04s-0.72,0.01-1.98,0.02c-1.26,0-3.06,0.02-5.22,0.02 c-2.16,0-4.68,0.01-7.38,0c-2.7-0.01-5.58-0.02-8.46-0.03c-2.88-0.02-5.76-0.05-8.46-0.07c-2.7-0.02-5.22-0.06-7.38-0.09 c-2.16-0.03-3.96-0.06-5.22-0.08C193.4,170.14,192.68,170.13,192.68,170.13z" class="st8" style="opacity:.2;fill:#fff"/><path id="XMLID_138_" d="M224.44,173.14c0,0,0.19-0.01,0.51-0.03c0.33-0.01,0.79-0.03,1.35-0.05 c0.56-0.02,1.21-0.03,1.91-0.03c0.7-0.01,1.44-0.01,2.19-0.01c0.37,0,0.75,0.01,1.11,0.01c0.37,0,0.73,0.01,1.08,0.02 c0.7,0.01,1.35,0.03,1.91,0.06c0.56,0.02,1.02,0.05,1.35,0.06c0.33,0.02,0.51,0.03,0.51,0.03s-0.19,0.01-0.51,0.03 c-0.33,0.01-0.79,0.04-1.35,0.05c-0.56,0.02-1.21,0.03-1.91,0.03c-0.35,0-0.71,0.01-1.08,0.01c-0.37,0-0.74,0-1.11,0 c-0.75-0.01-1.49-0.01-2.19-0.03c-0.7-0.01-1.35-0.03-1.91-0.06c-0.56-0.02-1.02-0.05-1.35-0.06 C224.62,173.16,224.44,173.14,224.44,173.14z" class="st2" style="fill:#fff"/><path id="XMLID_139_" d="M148.2,170.13c0,0,0.24-0.01,0.67-0.02c0.42-0.01,1.03-0.03,1.76-0.05 c0.73-0.01,1.57-0.03,2.48-0.03c0.91-0.01,1.88,0,2.84,0c0.48,0,0.97,0.01,1.44,0.01c0.48,0,0.95,0.01,1.4,0.02 c0.91,0.02,1.75,0.04,2.48,0.06c0.73,0.02,1.33,0.05,1.75,0.07c0.42,0.02,0.67,0.03,0.67,0.03s-0.24,0.01-0.67,0.02 c-0.42,0.01-1.03,0.03-1.76,0.05c-0.73,0.01-1.57,0.03-2.48,0.03c-0.45,0-0.92,0.01-1.4,0c-0.48,0-0.96,0-1.44,0 c-0.97-0.01-1.94-0.02-2.84-0.03c-0.91-0.02-1.75-0.04-2.48-0.06c-0.73-0.02-1.33-0.05-1.75-0.07 C148.44,170.14,148.2,170.13,148.2,170.13z" class="st8" style="opacity:.2;fill:#fff"/><path id="XMLID_140_" d="M145.8,173.98c0,0,0.29-0.01,0.8-0.02c0.51-0.01,1.24-0.03,2.12-0.04 c0.88-0.01,1.9-0.02,2.99-0.03c1.09-0.01,2.26,0,3.43,0c0.58,0.01,1.17,0.01,1.74,0.01c0.57,0,1.14,0.02,1.69,0.02 c1.09,0.02,2.12,0.04,2.99,0.06c0.88,0.02,1.61,0.05,2.12,0.07c0.51,0.02,0.8,0.03,0.8,0.03s-0.29,0.01-0.8,0.02 c-0.51,0.01-1.24,0.03-2.12,0.04c-0.88,0.01-1.9,0.02-2.99,0.03c-0.55,0-1.11,0.01-1.69,0c-0.57,0-1.16,0-1.74,0 c-1.17-0.01-2.34-0.02-3.43-0.04c-1.09-0.02-2.12-0.04-2.99-0.06c-0.88-0.02-1.61-0.05-2.12-0.07 C146.09,174,145.8,173.98,145.8,173.98z" class="st2" style="fill:#fff"/><path id="XMLID_1_" d="M299.48,176.15c0,0,0.45-0.01,1.25-0.02c0.79-0.01,1.93-0.03,3.28-0.04 c1.36-0.01,2.94-0.02,4.64-0.02c1.7,0,3.51,0.01,5.32,0.01c0.91,0.01,1.81,0.01,2.7,0.02c0.89,0.01,1.77,0.02,2.62,0.03 c1.7,0.02,3.28,0.05,4.64,0.07c1.36,0.02,2.49,0.06,3.28,0.07c0.79,0.02,1.25,0.04,1.25,0.04s-0.45,0.01-1.25,0.02 c-0.79,0.01-1.93,0.03-3.28,0.04c-1.36,0.01-2.94,0.02-4.64,0.02c-0.85,0-1.73,0-2.62,0c-0.89,0-1.8-0.01-2.7-0.01 c-1.81-0.01-3.62-0.03-5.32-0.05c-1.7-0.02-3.28-0.05-4.64-0.07c-1.36-0.02-2.49-0.06-3.28-0.07 C299.93,176.16,299.48,176.15,299.48,176.15z" class="st2" style="fill:#fff"/><path id="XMLID_144_" d="M274.06,176.77c0,0,0.3-0.01,0.84-0.02c0.53-0.01,1.29-0.03,2.2-0.04 c0.91-0.01,1.98-0.02,3.12-0.03c1.14-0.01,2.36,0,3.57,0c0.61,0.01,1.22,0.01,1.81,0.02c0.6,0.01,1.19,0.02,1.76,0.02 c1.14,0.02,2.2,0.04,3.12,0.06c0.91,0.02,1.67,0.05,2.2,0.07c0.53,0.02,0.84,0.03,0.84,0.03s-0.3,0.01-0.84,0.02 c-0.53,0.01-1.29,0.03-2.2,0.04c-0.91,0.01-1.98,0.02-3.12,0.03c-0.57,0-1.16,0-1.76,0c-0.6,0-1.21,0-1.81-0.01 c-1.22-0.01-2.43-0.02-3.57-0.04c-1.14-0.02-2.2-0.04-3.12-0.06c-0.91-0.02-1.67-0.05-2.2-0.07 C274.36,176.79,274.06,176.77,274.06,176.77z" class="st8" style="opacity:.2;fill:#fff"/><path id="XMLID_145_" d="M285.14,184.05c0,0,0.35-0.01,0.97-0.02c0.62-0.01,1.5-0.03,2.57-0.04 c1.06-0.01,2.3-0.02,3.63-0.03c1.33,0,2.74,0,4.16,0.01c0.71,0.01,1.41,0.01,2.11,0.02c0.7,0.01,1.38,0.02,2.05,0.02 c1.33,0.02,2.56,0.05,3.63,0.07c1.06,0.02,1.95,0.05,2.56,0.07c0.62,0.02,0.97,0.03,0.97,0.03s-0.35,0.01-0.97,0.02 c-0.62,0.01-1.5,0.03-2.57,0.04c-1.06,0.01-2.3,0.03-3.63,0.03c-0.66,0-1.35,0-2.05,0c-0.7,0-1.4,0-2.11-0.01 c-1.42-0.01-2.83-0.02-4.16-0.04c-1.33-0.02-2.56-0.05-3.63-0.07c-1.06-0.02-1.95-0.05-2.56-0.07 C285.49,184.06,285.14,184.05,285.14,184.05z" class="st2" style="fill:#fff"/><path id="XMLID_146_" d="M287.1,187.41c0,0,0.66-0.01,1.81-0.02c1.15-0.01,2.8-0.02,4.77-0.03 c1.97,0,4.28-0.02,6.74-0.01c2.47,0.01,5.1,0.02,7.73,0.02c2.63,0.02,5.26,0.04,7.73,0.06c2.47,0.02,4.77,0.06,6.74,0.08 c1.97,0.02,3.62,0.06,4.77,0.08c1.15,0.02,1.81,0.04,1.81,0.04s-0.66,0.01-1.81,0.02c-1.15,0.01-2.8,0.03-4.77,0.03 c-1.97,0-4.28,0.02-6.74,0.01c-2.47-0.01-5.1-0.02-7.73-0.02c-2.63-0.02-5.26-0.04-7.73-0.06c-2.47-0.02-4.77-0.06-6.74-0.08 c-1.97-0.02-3.62-0.06-4.77-0.08C287.76,187.43,287.1,187.41,287.1,187.41z" class="st2" style="fill:#fff"/><path id="XMLID_147_" d="M285.07,195.9c0,0,0.31-0.01,0.85-0.02c0.54-0.01,1.32-0.03,2.25-0.04 c0.93-0.01,2.02-0.02,3.18-0.03c1.16-0.01,2.41,0,3.65,0c0.62,0.01,1.24,0.01,1.85,0.02c0.61,0.01,1.21,0.02,1.8,0.02 c1.16,0.02,2.25,0.04,3.18,0.06c0.93,0.02,1.71,0.05,2.25,0.07c0.54,0.02,0.85,0.03,0.85,0.03s-0.31,0.01-0.85,0.02 c-0.54,0.01-1.32,0.03-2.25,0.04c-0.93,0.01-2.02,0.02-3.18,0.03c-0.58,0-1.18,0-1.8,0c-0.61,0-1.23,0-1.85-0.01 c-1.24-0.01-2.48-0.02-3.65-0.04c-1.16-0.02-2.25-0.04-3.18-0.06c-0.93-0.02-1.71-0.05-2.25-0.07 C285.38,195.92,285.07,195.9,285.07,195.9z" class="st2" style="fill:#fff"/><path id="XMLID_148_" d="M298.19,192.63c0,0,0.49-0.01,1.35-0.02c0.86-0.01,2.08-0.03,3.56-0.03 c1.47,0,3.19-0.02,5.03-0.02c1.84,0,3.8,0.01,5.76,0.01c0.98,0.01,1.96,0.01,2.93,0.02c0.97,0.01,1.92,0.02,2.83,0.03 c1.84,0.02,3.55,0.05,5.03,0.08c1.47,0.02,2.7,0.06,3.55,0.07c0.86,0.02,1.35,0.04,1.35,0.04s-0.49,0.01-1.35,0.02 c-0.86,0.01-2.08,0.03-3.56,0.03c-1.47,0-3.19,0.02-5.03,0.02c-0.92,0-1.87,0-2.83,0c-0.97,0-1.95-0.01-2.93-0.01 c-1.96-0.01-3.92-0.03-5.76-0.05c-1.84-0.02-3.55-0.05-5.03-0.08c-1.47-0.02-2.7-0.06-3.55-0.07 C298.68,192.64,298.19,192.63,298.19,192.63z" class="st2" style="fill:#fff"/><path id="XMLID_149_" d="M311.28,196.05c0,0,0.55-0.05,1.37-0.08c0.41-0.02,0.89-0.03,1.4-0.04 c0.51-0.01,1.06-0.01,1.61-0.01c0.27,0,0.55,0.01,0.82,0.01c0.27,0,0.53,0.01,0.79,0.02c0.51,0.01,0.99,0.03,1.4,0.05 c0.82,0.04,1.37,0.09,1.37,0.09s-0.55,0.05-1.37,0.08c-0.41,0.02-0.89,0.03-1.4,0.04c-0.26,0-0.52,0.01-0.79,0.01 c-0.27,0-0.54,0-0.82,0c-0.55-0.01-1.09-0.01-1.61-0.03c-0.51-0.01-0.99-0.03-1.4-0.05 C311.83,196.11,311.28,196.05,311.28,196.05z" class="st2" style="fill:#fff"/><path id="XMLID_151_" d="M211.12,210.68c0,0,1.55,0,4.25,0c2.7,0,6.57,0,11.2,0.01 c4.64,0.01,10.04,0.03,15.84,0.05c5.79,0.03,11.97,0.06,18.16,0.08c6.18,0.04,12.36,0.08,18.16,0.12 c5.79,0.05,11.2,0.1,15.84,0.14c4.64,0.05,8.5,0.09,11.2,0.12c2.7,0.03,4.25,0.05,4.25,0.05s-1.55,0-4.25,0 c-2.7,0-6.57,0-11.2-0.01c-4.64-0.01-10.04-0.03-15.84-0.05c-5.79-0.03-11.97-0.06-18.16-0.08 c-6.18-0.04-12.36-0.08-18.16-0.12c-5.79-0.05-11.2-0.1-15.84-0.14c-4.64-0.05-8.5-0.09-11.2-0.12 C212.66,210.7,211.12,210.68,211.12,210.68z" class="st8" style="opacity:.2;fill:#fff"/><path id="XMLID_152_" d="M281.77,217.53c0,0,0.45-0.01,1.25-0.02c0.79-0.01,1.93-0.03,3.29-0.04 c1.36-0.01,2.95-0.02,4.65-0.02c1.7,0,3.51,0.01,5.32,0.01c0.91,0.01,1.81,0.01,2.7,0.02c0.89,0.01,1.77,0.02,2.62,0.03 c1.7,0.02,3.29,0.05,4.64,0.07c1.36,0.02,2.49,0.06,3.29,0.07c0.79,0.02,1.25,0.04,1.25,0.04s-0.45,0.01-1.25,0.02 c-0.79,0.01-1.93,0.03-3.29,0.04c-1.36,0.01-2.95,0.02-4.65,0.02c-0.85,0-1.73,0-2.62,0c-0.89,0-1.8-0.01-2.7-0.01 c-1.81-0.01-3.63-0.03-5.32-0.05c-1.7-0.02-3.29-0.05-4.64-0.07c-1.36-0.02-2.49-0.06-3.29-0.07 C282.22,217.54,281.77,217.53,281.77,217.53z" class="st2" style="fill:#fff"/><path id="XMLID_153_" d="M255.57,215.83c0,0,0.2-0.01,0.55-0.03c0.35-0.01,0.84-0.03,1.44-0.05 c0.6-0.02,1.29-0.03,2.04-0.03c0.75-0.01,1.54-0.01,2.33,0c0.4,0,0.79,0.01,1.19,0.01c0.39,0,0.78,0.01,1.15,0.02 c0.74,0.01,1.44,0.03,2.04,0.06c0.6,0.02,1.09,0.05,1.44,0.06c0.35,0.02,0.55,0.03,0.55,0.03s-0.2,0.01-0.55,0.03 c-0.35,0.01-0.84,0.03-1.44,0.05c-0.6,0.02-1.29,0.03-2.04,0.03c-0.37,0-0.76,0.01-1.15,0.01c-0.39,0-0.79,0-1.19,0 c-0.79-0.01-1.59-0.01-2.33-0.03c-0.74-0.01-1.44-0.03-2.04-0.06c-0.6-0.02-1.09-0.05-1.44-0.06 C255.77,215.85,255.57,215.83,255.57,215.83z" class="st2" style="fill:#fff"/></g><g id="XMLID_166_" class="st11" style="opacity:.2"><path id="XMLID_155_" d="M162.64,187.29c0,0,0.65-0.01,1.79-0.02c1.14-0.01,2.77-0.03,4.73-0.03 c1.96,0,4.24-0.02,6.68-0.01c2.44,0.01,5.05,0.02,7.66,0.02c2.61,0.02,5.21,0.04,7.66,0.06c2.44,0.02,4.73,0.06,6.68,0.08 c1.96,0.02,3.58,0.06,4.72,0.08c1.14,0.02,1.79,0.04,1.79,0.04s-0.65,0.01-1.79,0.02c-1.14,0.01-2.77,0.03-4.73,0.03 c-1.96,0-4.24,0.02-6.68,0.01c-2.44-0.01-5.05-0.02-7.66-0.02c-2.61-0.02-5.21-0.04-7.66-0.06c-2.44-0.02-4.73-0.06-6.68-0.08 c-1.96-0.02-3.58-0.06-4.72-0.08C163.29,187.31,162.64,187.29,162.64,187.29z" class="st2" style="fill:#fff"/><path id="XMLID_156_" d="M229.35,189.73c0,0,0.74-0.01,2.03-0.02c1.29,0,3.13-0.02,5.34-0.02 c2.21,0,4.79-0.01,7.55,0c2.76,0.01,5.71,0.02,8.65,0.03c2.95,0.02,5.89,0.05,8.65,0.07c2.76,0.02,5.34,0.06,7.55,0.09 c2.21,0.03,4.05,0.07,5.34,0.08c1.29,0.03,2.03,0.04,2.03,0.04s-0.74,0.01-2.03,0.02c-1.29,0-3.13,0.02-5.34,0.02 c-2.21,0-4.79,0.01-7.55,0c-2.76-0.01-5.71-0.02-8.65-0.03c-2.95-0.02-5.89-0.05-8.65-0.07c-2.76-0.02-5.34-0.06-7.55-0.09 c-2.21-0.03-4.05-0.07-5.34-0.08C230.09,189.75,229.35,189.73,229.35,189.73z" class="st2" style="fill:#fff"/><path id="XMLID_157_" d="M252.63,193.3c0,0,0.21-0.01,0.57-0.03c0.36-0.01,0.88-0.03,1.5-0.05 c0.62-0.02,1.35-0.03,2.12-0.03c0.78-0.01,1.6-0.01,2.43,0c0.41,0,0.83,0.01,1.24,0.01c0.41,0,0.81,0.01,1.2,0.02 c0.78,0.01,1.5,0.03,2.12,0.06c0.62,0.02,1.14,0.05,1.5,0.06c0.36,0.02,0.57,0.03,0.57,0.03s-0.21,0.01-0.57,0.03 c-0.36,0.01-0.88,0.03-1.5,0.05c-0.62,0.02-1.35,0.03-2.12,0.03c-0.39,0-0.79,0.01-1.2,0.01c-0.41,0-0.82,0-1.24,0 c-0.83-0.01-1.66-0.01-2.43-0.03c-0.78-0.01-1.5-0.03-2.12-0.06c-0.62-0.02-1.14-0.05-1.5-0.06 C252.84,193.32,252.63,193.3,252.63,193.3z" class="st2" style="fill:#fff"/><path id="XMLID_158_" d="M85.91,177.23c0,0,0.71-0.01,1.96-0.02c1.25,0,3.02-0.02,5.16-0.02 c2.13,0,4.63-0.01,7.29,0c2.67,0.01,5.52,0.02,8.36,0.03c2.85,0.02,5.69,0.05,8.36,0.07c2.67,0.02,5.16,0.06,7.29,0.09 c2.13,0.03,3.91,0.06,5.16,0.08c1.25,0.03,1.96,0.04,1.96,0.04s-0.71,0.01-1.96,0.02c-1.25,0-3.02,0.02-5.16,0.03 c-2.13,0-4.63,0.01-7.29,0c-2.67-0.01-5.52-0.02-8.36-0.03c-2.85-0.02-5.69-0.05-8.36-0.07c-2.67-0.02-5.16-0.06-7.29-0.09 c-2.13-0.03-3.91-0.06-5.16-0.08C86.62,177.25,85.91,177.23,85.91,177.23z" class="st2" style="fill:#fff"/><path id="XMLID_159_" d="M181.75,179.5c0,0,0.28-0.01,0.78-0.02c0.49-0.01,1.2-0.03,2.04-0.04 c0.85-0.01,1.83-0.02,2.89-0.03c1.06-0.01,2.18,0,3.31,0c0.56,0,1.13,0.01,1.68,0.01c0.55,0,1.1,0.02,1.63,0.02 c1.06,0.02,2.04,0.04,2.89,0.06c0.85,0.02,1.55,0.05,2.04,0.07c0.49,0.02,0.77,0.03,0.77,0.03s-0.28,0.01-0.78,0.02 c-0.49,0.01-1.2,0.03-2.04,0.04c-0.85,0.01-1.83,0.02-2.89,0.03c-0.53,0-1.07,0.01-1.63,0c-0.55,0-1.12,0-1.68,0 c-1.13-0.01-2.25-0.02-3.31-0.04c-1.06-0.02-2.04-0.04-2.89-0.06c-0.85-0.02-1.55-0.05-2.04-0.07 C182.03,179.51,181.75,179.5,181.75,179.5z" class="st2" style="fill:#fff"/><path id="XMLID_160_" d="M105.43,189.71c0,0,0.3-0.01,0.82-0.02c0.52-0.01,1.27-0.03,2.16-0.04 c0.89-0.01,1.94-0.02,3.05-0.03c1.12-0.01,2.31,0,3.5,0c0.6,0.01,1.19,0.01,1.78,0.02c0.59,0.01,1.16,0.02,1.72,0.02 c1.12,0.02,2.16,0.04,3.05,0.06c0.89,0.02,1.64,0.05,2.16,0.07c0.52,0.02,0.82,0.03,0.82,0.03s-0.3,0.01-0.82,0.02 c-0.52,0.01-1.27,0.03-2.16,0.04c-0.89,0.01-1.94,0.02-3.05,0.03c-0.56,0-1.14,0-1.72,0c-0.59,0-1.18,0-1.78-0.01 c-1.19-0.01-2.38-0.02-3.5-0.04c-1.12-0.02-2.16-0.04-3.05-0.06c-0.89-0.02-1.64-0.05-2.16-0.07 C105.73,189.73,105.43,189.71,105.43,189.71z" class="st2" style="fill:#fff"/><path id="XMLID_161_" d="M46.15,184.57c0,0,0.24-0.01,0.66-0.02c0.42-0.01,1.02-0.03,1.74-0.05 c0.72-0.01,1.56-0.03,2.47-0.03c0.9-0.01,1.86,0,2.83,0c0.48,0,0.96,0.01,1.44,0.01c0.47,0,0.94,0.01,1.39,0.02 c0.9,0.02,1.74,0.04,2.47,0.06c0.72,0.02,1.32,0.05,1.74,0.07c0.42,0.02,0.66,0.03,0.66,0.03s-0.24,0.01-0.66,0.03 c-0.42,0.01-1.02,0.03-1.74,0.05c-0.72,0.01-1.56,0.03-2.47,0.03c-0.45,0-0.92,0.01-1.39,0c-0.47,0-0.95,0-1.44,0 c-0.96-0.01-1.92-0.02-2.83-0.03c-0.9-0.02-1.74-0.04-2.47-0.06c-0.72-0.02-1.32-0.05-1.74-0.07 C46.39,184.58,46.15,184.57,46.15,184.57z" class="st2" style="fill:#fff"/><path id="XMLID_162_" d="M12.23,189.53c0,0,0.49-0.01,1.34-0.02c0.85-0.01,2.08-0.03,3.54-0.03 c1.46,0,3.17-0.02,5-0.02c1.83,0,3.78,0.01,5.74,0.01c0.98,0.01,1.95,0.01,2.91,0.02c0.96,0.01,1.91,0.02,2.82,0.03 c1.83,0.02,3.54,0.05,5,0.08c1.46,0.02,2.69,0.06,3.54,0.07c0.85,0.02,1.34,0.04,1.34,0.04s-0.49,0.01-1.34,0.02 c-0.85,0.01-2.08,0.03-3.54,0.03c-1.46,0-3.17,0.02-5,0.02c-0.92,0-1.86,0-2.82,0c-0.96,0-1.94-0.01-2.91-0.01 c-1.95-0.01-3.91-0.03-5.74-0.05c-1.83-0.02-3.54-0.05-5-0.08c-1.46-0.02-2.69-0.06-3.54-0.07 C12.72,189.54,12.23,189.53,12.23,189.53z" class="st2" style="fill:#fff"/><path id="XMLID_163_" d="M116.98,208.68c0,0,0.77-0.01,2.12-0.02c1.35,0,3.28-0.02,5.59-0.02 c2.32,0,5.02-0.01,7.91,0c2.89,0.01,5.98,0.02,9.07,0.03c3.09,0.02,6.17,0.05,9.07,0.07c2.89,0.02,5.59,0.06,7.91,0.09 c2.31,0.03,4.24,0.07,5.59,0.09c1.35,0.03,2.12,0.04,2.12,0.04s-0.77,0.01-2.12,0.02c-1.35,0-3.28,0.02-5.59,0.02 c-2.32,0-5.02,0.01-7.91,0c-2.89-0.01-5.98-0.02-9.07-0.03c-3.09-0.02-6.17-0.05-9.07-0.07c-2.89-0.02-5.59-0.06-7.91-0.09 c-2.31-0.03-4.24-0.07-5.59-0.09C117.75,208.69,116.98,208.68,116.98,208.68z" class="st2" style="fill:#fff"/><path id="XMLID_164_" d="M188.47,208.4c0,0,0.33-0.01,0.91-0.02c0.58-0.01,1.41-0.03,2.41-0.04 c1-0.01,2.16-0.02,3.4-0.03c1.24-0.01,2.57,0,3.9,0c0.66,0.01,1.33,0.01,1.98,0.02c0.65,0.01,1.3,0.02,1.92,0.02 c1.24,0.02,2.41,0.04,3.4,0.06c1,0.02,1.83,0.05,2.41,0.07c0.58,0.02,0.91,0.03,0.91,0.03s-0.33,0.01-0.91,0.02 c-0.58,0.01-1.41,0.03-2.41,0.04c-1,0.01-2.16,0.02-3.4,0.03c-0.62,0-1.27,0-1.92,0c-0.65,0-1.32,0-1.98-0.01 c-1.33-0.01-2.66-0.02-3.9-0.04c-1.24-0.02-2.41-0.04-3.4-0.06c-1-0.02-1.83-0.05-2.41-0.07 C188.8,208.41,188.47,208.4,188.47,208.4z" class="st2" style="fill:#fff"/><path id="XMLID_165_" d="M39.09,216.13c0,0,0.42-0.01,1.16-0.02c0.74-0.01,1.8-0.03,3.07-0.04 c1.27-0.01,2.75-0.02,4.34-0.02c1.59,0,3.28,0,4.97,0.01c0.85,0.01,1.69,0.01,2.53,0.02c0.83,0.01,1.65,0.02,2.45,0.03 c1.59,0.02,3.07,0.05,4.34,0.07c1.27,0.02,2.33,0.06,3.07,0.07c0.74,0.02,1.16,0.04,1.16,0.04s-0.42,0.01-1.16,0.02 c-0.74,0.01-1.8,0.03-3.07,0.04c-1.27,0.01-2.75,0.02-4.34,0.02c-0.79,0-1.61,0-2.45,0c-0.83,0-1.68-0.01-2.53-0.01 c-1.69-0.01-3.39-0.02-4.97-0.05c-1.59-0.02-3.07-0.05-4.34-0.07c-1.27-0.02-2.33-0.06-3.07-0.07 C39.51,216.15,39.09,216.13,39.09,216.13z" class="st2" style="fill:#fff"/></g></g></g><g><path d="M 210.510006 88.849998 A 42.52 42.52 0 0 1 167.990005 131.369999 A 42.52 42.52 0 0 1 125.470005 88.849998 A 42.52 42.52 0 0 1 167.990005 46.329998 A 42.52 42.52 0 0 1 210.510006 88.849998 Z" class="st12" style="opacity:.07;fill:#fff"/><path d="M 198.470005 88.849998 A 30.48 30.48 0 0 1 167.990005 119.329998 A 30.48 30.48 0 0 1 137.510006 88.849998 A 30.48 30.48 0 0 1 167.990005 58.369999 A 30.48 30.48 0 0 1 198.470005 88.849998 Z" class="st8" style="opacity:.2;fill:#fff"/><linearGradient id="SVGID_5_" x1="167.993" x2="167.993" y1="107.291" y2="70.41" gradientUnits="userSpaceOnUse"><stop offset=".114" style="stop-color:#fac6a9"/><stop offset="1" style="stop-color:#ea4e42"/></linearGradient><path d="M 186.430006 88.849998 A 18.440001 18.440001 0 0 1 167.990005 107.289999 A 18.440001 18.440001 0 0 1 149.550005 88.849998 A 18.440001 18.440001 0 0 1 167.990005 70.409998 A 18.440001 18.440001 0 0 1 186.430006 88.849998 Z" class="st13" style="fill:url(#SVGID_5_)"/></g><g class="st14" style="opacity:.15"><path d="M 210.510006 191.550003 A 42.52 42.52 0 0 1 167.990005 234.070004 A 42.52 42.52 0 0 1 125.470005 191.550003 A 42.52 42.52 0 0 1 167.990005 149.030003 A 42.52 42.52 0 0 1 210.510006 191.550003 Z" class="st12" style="opacity:.07;fill:#fff"/><path d="M 198.470005 191.550003 A 30.48 30.48 0 0 1 167.990005 222.030003 A 30.48 30.48 0 0 1 137.510006 191.550003 A 30.48 30.48 0 0 1 167.990005 161.070004 A 30.48 30.48 0 0 1 198.470005 191.550003 Z" class="st8" style="opacity:.2;fill:#fff"/><linearGradient id="SVGID_6_" x1="167.993" x2="167.993" y1="209.993" y2="173.111" gradientUnits="userSpaceOnUse"><stop offset="0" style="stop-color:#fac6a9;stop-opacity:0"/><stop offset="1" style="stop-color:#ea4e42"/></linearGradient><path d="M 186.430006 191.550003 A 18.440001 18.440001 0 0 1 167.990005 209.990004 A 18.440001 18.440001 0 0 1 149.550005 191.550003 A 18.440001 18.440001 0 0 1 167.990005 173.110003 A 18.440001 18.440001 0 0 1 186.430006 191.550003 Z" class="st15" style="fill:url(#SVGID_6_)"/></g><g class="st1" style="opacity:.6"><g><linearGradient id="SVGID_7_" x1="257.827" x2="257.827" y1="21.241" y2=".016" gradientUnits="userSpaceOnUse"><stop offset="0" style="stop-color:#fff;stop-opacity:.6"/><stop offset="1" style="stop-color:#fff;stop-opacity:.5"/></linearGradient><path d="M179.65,0.13c2.32,5,7.37,8.47,13.25,8.47c3.78,0,7.21-1.44,9.8-3.79c2.21,2.12,5.2,3.43,8.5,3.43 c1.75,0,3.41-0.37,4.92-1.03c1.36,3.44,3.87,6.46,7.36,8.41c7.86,4.37,17.74,1.69,22.33-5.96c2.43,1.81,5.44,2.89,8.71,2.89 c4.37,0,8.27-1.93,10.94-4.96c0.3,4.8,3.02,9.34,7.62,11.74c6.69,3.49,15.05,1.09,18.86-5.43c0.6-1.03,1.05-2.11,1.37-3.2 c2.1,1.17,4.51,1.85,7.08,1.85c2.49,0,4.83-0.64,6.88-1.74c1.82,3.17,4.5,5.89,7.92,7.8c6.65,3.7,14.66,3.38,20.81-0.16 l-0.02-18.42L179.65,0.13z" class="st16" style="fill:url(#SVGID_7_)"/></g></g><linearGradient id="SVGID_8_" x1="258.256" x2="258.256" y1="156.837" y2="27.772" gradientUnits="userSpaceOnUse"><stop offset="0" style="stop-color:#fff;stop-opacity:0"/><stop offset="1" style="stop-color:#fff"/></linearGradient><path d="M331.81,33.31c0,0.12,0.01,0.24,0.01,0.35c-8.34,1.95-14.55,9.43-14.55,18.37c0,1.88,0.28,3.7,0.79,5.41 c-3.35,1.71-5.66,5.19-5.66,9.22c0,1.43,0.29,2.79,0.81,4.03c-6.46,1.19-11.54,6.29-12.7,12.75c-3.17-2.6-7.24-4.17-11.66-4.17 c-10.16,0-18.4,8.24-18.4,18.4c0,0.65,0.04,1.29,0.11,1.93c-4.88,1.44-8.79,5.1-10.58,9.81c-1.21-0.21-2.46-0.33-3.74-0.33 c-9.75,0-18,6.38-20.84,15.19c-2-0.88-4.22-1.38-6.55-1.38c-7.9,0-14.48,5.64-15.94,13.12c-1.75-1.34-3.93-2.15-6.3-2.15 c-5.72,0-10.35,4.64-10.35,10.35c0,0.16,0.02,0.31,0.02,0.46c-7.46,0.27-13.7,5.3-15.75,12.16h31.76h60.19h63.45V90.92V38.84 v-5.65v-4.03v-1.39C333.56,28.47,331.81,30.68,331.81,33.31z" class="st17" style="fill:url(#SVGID_8_)"/><g><linearGradient id="SVGID_9_" x1="45.099" x2="188.91" y1="131.258" y2="131.258" gradientUnits="userSpaceOnUse"><stop offset="0" style="stop-color:#fff"/><stop offset="1" style="stop-color:#fff;stop-opacity:0"/></linearGradient><path d="M176.13,152c-0.02,0-0.04,0.01-0.07,0.01c-2.34-10.49-12.4-17.58-23.22-16.06 c-5.98,0.84-11,4.15-14.19,8.74c-1.28-4.07-5.12-6.85-9.41-6.77c0.47-1.78,0.6-3.68,0.33-5.62c-1.09-7.76-8.27-13.17-16.04-12.07 c-5.14,0.72-9.25,4.12-11.12,8.58c-1.47-1.03-3.32-1.53-5.24-1.26c-0.73,0.1-1.42,0.31-2.06,0.61c-0.01-0.1,0-0.21-0.02-0.31 c-0.69-4.89-5.04-8.35-9.95-7.9c0,0,0-0.01,0-0.01c-1.28-9.06-9.67-15.36-18.73-14.08c-4.38,0.62-8.13,2.9-10.68,6.11 c-1.69-2.09-4.42-3.27-7.28-2.87c-1.25,0.18-2.39,0.64-3.37,1.31c2.93,2.25,4.82,5.78,4.82,9.75c0,1.46-0.27,2.86-0.74,4.16 c5.77,2.27,9.87,7.88,9.87,14.46c0,1.65-0.27,3.23-0.75,4.73c5.73,2.07,10.84,6.46,12.21,11.75c0.12-0.01,5.98-2.14,6.09-2.14 c2.59,0,4.77,1.47,5.45,3.72h41.84h8.51h56.5C185.86,153.28,181.12,151.29,176.13,152z" class="st18" style="fill:url(#SVGID_9_)"/></g><linearGradient id="SVGID_10_" x1="78.414" x2="78.414" y1="150.362" y2="66.247" gradientUnits="userSpaceOnUse"><stop offset="0" style="stop-color:#aa3a45"/><stop offset=".227" style="stop-color:#b74c50"/><stop offset=".678" style="stop-color:#d97e6e"/><stop offset="1" style="stop-color:#f6a988"/></linearGradient><path d="M0.13,157.43H156.7l-8.78-4.85l-16.02,0.08l-9.56-4.49l-14.84,0.02v-11.08h-4.89v-4.07h-6.19l-1.91-10.79 l-0.48-0.01l-0.01-1.13h0.49v-0.63l-0.52-0.01l0-1.05h0.31h0.21v-0.63h-3.65l-0.03-16.58l1.67-0.75v-0.87h-0.3v-2.73h0.3v-0.63 h-1.65l0.01-2.82h0.81l-1.89-1.91c0.04-0.15,0.07-0.3,0.07-0.45c0-0.92-0.7-1.66-1.6-1.75l-0.19-3.2l-0.19,3.2 c-0.88,0.1-1.56,0.84-1.56,1.74c0,0.15,0.02,0.3,0.06,0.44l-1.86,1.93h0.84l0.02,2.82h-1.65v0.63h0.28v2.73h-0.28v0.87l1.67,0.75 l-0.03,16.58h-3.65v0.63h0.63v1.06h-0.63v0.63h0.63v1.06h-0.63l-1.91,10.88H74.2v4.07h-5.25l-15.24,9 c-0.06-1.3-1.07-2.33-2.32-2.33c-0.27,0-0.54,0.05-0.78,0.14c-0.09-0.51-0.52-0.9-1.04-0.9c-0.55,0-1,0.44-1.06,1 c-0.3-0.15-0.64-0.24-1-0.24c-0.41,0-0.79,0.12-1.12,0.31c-0.26-0.2-0.57-0.32-0.92-0.32c-0.1,0-0.21,0.01-0.3,0.03 c0.03-0.12,0.04-0.24,0.04-0.36c0-0.9-0.7-1.63-1.55-1.63c-0.18,0-0.36,0.03-0.52,0.09c-0.06-0.34-0.35-0.6-0.69-0.6 c-0.37,0-0.67,0.29-0.7,0.66c-0.2-0.1-0.43-0.16-0.67-0.16c-0.86,0-1.55,0.73-1.55,1.63c0,0.12,0.01,0.25,0.04,0.36 c-0.01,0-0.02,0-0.02,0c-0.26-0.48-0.74-0.81-1.3-0.81c-0.1,0-0.2,0.01-0.29,0.03c0.02-0.11,0.04-0.23,0.04-0.35 c0-0.87-0.67-1.57-1.5-1.57c-0.18,0-0.34,0.03-0.5,0.09c-0.06-0.33-0.34-0.58-0.67-0.58c-0.35,0-0.64,0.28-0.68,0.64 c-0.19-0.1-0.41-0.15-0.64-0.15c-0.75,0-1.37,0.59-1.48,1.35c-0.28-0.37-0.71-0.61-1.19-0.61c-0.18,0-0.35,0.03-0.51,0.09 c-0.06-0.34-0.34-0.59-0.68-0.59c-0.36,0-0.66,0.29-0.69,0.66c-0.2-0.1-0.42-0.16-0.66-0.16c-0.85,0-1.53,0.72-1.53,1.61 c0,0.12,0.01,0.24,0.04,0.36c-0.01,0-0.02,0-0.02,0c-0.25-0.47-0.73-0.8-1.29-0.8c-0.1,0-0.2,0.01-0.29,0.03 c0.02-0.11,0.04-0.23,0.04-0.35c0-0.86-0.66-1.55-1.48-1.55c-0.17,0-0.34,0.03-0.49,0.09c-0.06-0.33-0.33-0.57-0.66-0.57 c-0.35,0-0.63,0.28-0.67,0.63c-0.19-0.1-0.41-0.15-0.64-0.15c-0.82,0-1.48,0.7-1.48,1.55c0,0.12,0.01,0.24,0.04,0.35 c-0.09-0.02-0.19-0.03-0.29-0.03c-0.4,0-0.77,0.17-1.03,0.44c-0.19-0.5-0.66-0.85-1.2-0.85c-0.15,0-0.3,0.03-0.43,0.08 c-0.05-0.29-0.29-0.5-0.58-0.5c-0.3,0-0.55,0.24-0.58,0.55c-0.17-0.08-0.36-0.13-0.56-0.13c-0.53,0-0.98,0.33-1.18,0.8 c-0.26-0.24-0.6-0.39-0.98-0.39c-0.1,0-0.2,0.01-0.29,0.03c0.02-0.11,0.04-0.23,0.04-0.35c0-0.86-0.66-1.55-1.48-1.55 c-0.17,0-0.34,0.03-0.49,0.09c-0.06-0.33-0.33-0.57-0.66-0.57c-0.35,0-0.63,0.28-0.67,0.63c-0.19-0.1-0.41-0.15-0.64-0.15 c-0.78,0-1.42,0.64-1.47,1.45c-0.17-0.11-0.37-0.17-0.58-0.17c-0.18,0-0.34,0.04-0.49,0.12c-0.03-0.27-0.25-0.49-0.52-0.49 c-0.25,0-0.46,0.19-0.51,0.44c-0.12-0.04-0.25-0.07-0.38-0.07c-0.63,0-1.14,0.54-1.14,1.2c0,0.09,0.01,0.18,0.03,0.27 c-0.07-0.02-0.15-0.02-0.22-0.02c-0.43,0-0.8,0.25-0.99,0.61c-0.01,0-0.01,0-0.02,0c0.02-0.09,0.03-0.18,0.03-0.28 c0-0.69-0.53-1.24-1.18-1.24c-0.18,0-0.35,0.04-0.51,0.12c-0.03-0.28-0.26-0.51-0.53-0.51c-0.26,0-0.48,0.2-0.53,0.46 C0.25,143,0.19,143,0.13,142.99V157.43z M90.84,97.83l1.02-0.01v2.73h-1.02V97.83z M85.4,100.56h-1.04v-2.73l1.04-0.01V100.56z" class="st19" style="fill:url(#SVGID_10_)"/><linearGradient id="SVGID_11_" x1="167.993" x2="167.993" y1="226.904" y2="220.758" gradientUnits="userSpaceOnUse"><stop offset="0" style="stop-color:#fac6a9"/><stop offset="1" style="stop-color:#fff"/></linearGradient><path d="M 0 220.759995 H 335.98999 V 226.909995 H 0 V 220.759995 Z" class="st20" style="fill:url(#SVGID_11_)"/><path d="M 0 212.690002 H 335.98999 V 220.780003 H 0 V 212.690002 Z" class="st2" style="fill:#fff"/><linearGradient id="SVGID_12_" x1="167.992" x2="167.992" y1="243.548" y2="214.003" gradientUnits="userSpaceOnUse"><stop offset="0" style="stop-color:#6886bd"/><stop offset=".082" style="stop-color:#6076a4"/><stop offset=".173" style="stop-color:#56658d"/><stop offset=".27" style="stop-color:#4b5677"/><stop offset=".374" style="stop-color:#414864"/><stop offset=".487" style="stop-color:#373c54"/><stop offset=".612" style="stop-color:#303349"/><stop offset=".76" style="stop-color:#2b2e42"/><stop offset=".989" style="stop-color:#2a2c40"/></linearGradient><path d="M335.99,226.9H320.1v-8.16h15.89v-0.87H320.1v-1.69h15.89v-1.71H0v1.71h14.28v1.69H0v0.87h14.28v8.16H0v8.29 h335.99V226.9z M52.32,226.9H15.88v-8.16h36.43V226.9z M52.32,217.88H15.88v-1.69h36.43V217.88z M90.35,226.9H53.92v-8.16h36.43 V226.9z M90.35,217.88H53.92v-1.69h36.43V217.88z M128.36,226.9H91.96v-8.16h36.41V226.9z M128.36,217.88H91.96v-1.69h36.41 V217.88z M166.4,226.9h-36.43v-8.16h36.43V226.9z M166.4,217.88h-36.43v-1.69h36.43V217.88z M204.41,226.9H168v-8.16h36.41V226.9z M204.41,217.88H168v-1.69h36.41V217.88z M242.45,226.9h-36.43v-8.16h36.43V226.9z M242.45,217.88h-36.43v-1.69h36.43V217.88z M280.49,226.9h-36.43v-8.16h36.43V226.9z M280.49,217.88h-36.43v-1.69h36.43V217.88z M318.5,226.9h-36.41v-8.16h36.41V226.9z M318.5,217.88h-36.41v-1.69h36.41V217.88z" class="st21" style="fill:url(#SVGID_12_)"/><path id="_x3C_Group_x3E__70_" d="M335.66,156.55v-40.1c-0.92-1.19-2.25-2.04-3.78-2.35 c0.69-1.24,1.09-2.66,1.09-4.18c0-4.74-3.85-8.58-8.6-8.58c-2.05,0-3.95,0.72-5.43,1.93c-1.66-2.91-4.8-4.88-8.39-4.88 c-5.33,0-9.65,4.31-9.65,9.63c0,1.57,0.38,3.05,1.04,4.36c-0.71-0.27-1.47-0.42-2.27-0.42c-2.81,0-5.2,1.82-6.06,4.33 c-1.29-0.62-2.73-0.97-4.26-0.97c-5.39,0-9.77,4.37-9.77,9.74c0,1.79,0.48,3.46,1.32,4.9c-0.42-0.11-0.86-0.17-1.31-0.17 c-1.67,0-3.15,0.77-4.14,1.96c-0.5-0.39-1.03-0.74-1.6-1.04c-1.22-0.81-2.67-1.28-4.25-1.28c-0.58,0-1.15,0.07-1.7,0.19 c-5.05,0.6-8.97,4.87-8.97,10.07c0,0.56,0.05,1.11,0.14,1.65c-1.5-1.27-3.44-2.04-5.56-2.04c-3.52,0-6.55,2.13-7.87,5.16 c-1.26-3.17-4.35-5.42-7.98-5.42c-4.75,0-8.59,3.84-8.59,8.57c0,0.2,0.01,0.4,0.03,0.59c-0.48-0.12-0.97-0.2-1.49-0.2 c-3.14,0-5.68,2.54-5.68,5.68c0,1.05,0.29,2.03,0.79,2.87H335.66z" class="st22" style="opacity:.6;fill:#fff"/><g><g><g><path d="M241.26,168.31c-0.16-0.84,0.53-2.34,0.87-2.63l31.68-0.05c1.39,0.71,3.68,2.69,3.68,2.69 S246.85,168.43,241.26,168.31z" class="st23" style="fill:#2a2c40"/><linearGradient id="SVGID_13_" x1="258.216" x2="258.216" y1="173.758" y2="168.008" gradientUnits="userSpaceOnUse"><stop offset=".011" style="stop-color:#2a2c40"/><stop offset="1" style="stop-color:#6886bd"/></linearGradient><path d="M273.19,173.66c0,0,12.07,0.36,12.07-5.66l-53.55,0.17c-1.2,1.9,0,5.58,0,5.58L273.19,173.66z" class="st24" style="fill:url(#SVGID_13_)"/><g><path d="M 255.9600067138672 94.19999694824219 L 257.1199951171875 162.74000549316406 L 236.13999938964844 162.9499969482422 Z" class="st25" style="opacity:.8;fill:#fff"/><path d="M 257.19000244140625 165.6300048828125 L 256.0199890136719 94.19999694824219 L 256.510009765625 94.19000244140625 L 257.6700134277344 165.6199951171875 L 257.19000244140625 165.6300048828125 Z" class="st26" style="fill:#1a3e67"/><path d="M 256.1199951171875 101.83999633789062 L 253.7899932861328 101.83999633789062 L 253.72999572753906 102.05000305175781 L 256.1300048828125 102.05000305175781 Z" class="st27" style="fill:#424661"/><path d="M 251.10000610351562 111.18000030517578 L 256.2799987792969 111.18000030517578 L 256.2799987792969 110.9800033569336 L 251.16000366210938 110.9800033569336 Z" class="st27" style="fill:#424661"/><path d="M 248.4600067138672 120.31999969482422 L 256.42999267578125 120.31999969482422 L 256.42999267578125 120.12000274658203 L 248.52000427246094 120.12000274658203 Z" class="st27" style="fill:#424661"/><path d="M 245.8300018310547 129.4600067138672 L 256.5899963378906 129.4600067138672 L 256.5799865722656 129.25999450683594 L 245.88999938964844 129.25999450683594 Z" class="st27" style="fill:#424661"/><path d="M 243.19000244140625 138.60000610351562 L 256.739990234375 138.60000610351562 L 256.739990234375 138.38999938964844 L 243.25 138.38999938964844 Z" class="st27" style="fill:#424661"/><path d="M 240.55999755859375 147.74000549316406 L 256.8900146484375 147.74000549316406 L 256.8900146484375 147.52999877929688 L 240.6199951171875 147.52999877929688 Z" class="st27" style="fill:#424661"/><path d="M 237.9199981689453 156.8800048828125 L 257.04998779296875 156.8800048828125 L 257.0400085449219 156.6699981689453 L 237.97999572753906 156.6699981689453 Z" class="st27" style="fill:#424661"/></g></g></g><path d="M257.12,162.74c16.5-28.57-0.81-68.47-0.56-68.25c18.76,19.26,29.76,43.2,30.07,68.18L257.12,162.74z" class="st28" style="fill-rule:evenodd;clip-rule:evenodd;fill:#fff"/></g><path d="M87.81,56.24c0.65-1.27,1.03-2.7,1.03-4.21c0-5.32-4.54-9.64-10.15-9.64c-1.44,0-2.81,0.29-4.05,0.8 c-0.38-1.95-2.17-3.42-4.32-3.42c-1.59,0-2.98,0.81-3.75,2.01c-1.23-1.86-3.31-3.15-5.72-3.38c0.1-0.42,0.15-0.85,0.15-1.3 c0-3.38-2.89-6.13-6.45-6.13c-1.85,0-3.52,0.75-4.69,1.93c0.31-0.84,0.47-1.75,0.47-2.69c0-4.55-3.88-8.24-8.68-8.24 c-2.02,0-3.89,0.66-5.37,1.77c-1.52-3.22-4.93-5.46-8.88-5.46c-5.23,0-9.5,3.92-9.73,8.84c-0.31-0.04-0.63-0.07-0.95-0.07 c-1.72,0-3.27,0.64-4.43,1.68c-1.74-2.66-4.84-4.44-8.38-4.44c-1.39,0-2.71,0.27-3.91,0.77v31.17H87.81z" class="st2" style="fill:#fff"/><path d="M13.94,165.51c-21.34,31.65-6.65,61.23,0.81,61.47c0,0-0.16,3.97-2.04,8.26h2.7 c0.95-1.38,1.87-8.35,1.87-8.35C24.5,226.47,38.1,192.69,13.94,165.51z" class="st29" style="fill-rule:evenodd;clip-rule:evenodd;fill:#424661"/><path d="M32.52,235.28c10.41-12.73,22-37.97,14.81-64.12c-25.74,16.54-35.49,52.6-33.4,64.12H32.52z" class="st30" style="fill-rule:evenodd;clip-rule:evenodd;fill:#353950"/><path d="M36.38,232.43c0,0-1.76,1.51-5.11,2.75h4.97c1.15-0.6,1.99-1.06,1.99-1.06c4.65,3.36,40.51-0.15,50.63-40.29 C39.19,203.01,33.01,227.14,36.38,232.43z" class="st29" style="fill-rule:evenodd;clip-rule:evenodd;fill:#424661"/><path d="M84.79,221.53c-4.53-0.5-12.01,0.01-15.04,6.45c0.43-2.31,0.73-4.6,0.91-6.85 c6.98,1.97,12.09-5.87,14.74-9.62c-4.56-0.2-12.01,0.81-14.59,7.48c0.08-1.84,0.1-3.66,0.02-5.46c6.48,0.16,8.25-7.8,11.71-10.08 c-4.04,0.74-10.89,1.52-11.98,6.41c-0.14-1.4-0.35-2.78-0.59-4.15c4.91-0.99,6.21-8.17,8.84-10.71c-3.31,1.39-9.07,3.34-9.26,8.48 c-0.35-1.66-0.77-3.3-1.26-4.92c4.25-1.25,4.93-7.67,7.09-10.09c-2.87,1.47-7.95,3.61-7.67,8.3c-0.41-1.22-0.85-2.44-1.34-3.65 c4.09-1.91,3.6-8.45,5.32-11.25c-2.52,1.91-7.01,4.84-6.16,9.25c-0.33-0.75-0.66-1.49-1.02-2.23c2.52-3.76-1.33-9.11-1.33-12.4 c-1.3,3.34-4.04,9.07,1.06,12.3c0.22,0.59,0.44,1.18,0.65,1.77c-2.46-3.31-7.44-2.52-10.46-2.25c3.11,0.9,7.07,5.94,11.32,4.8 c0.41,1.29,0.79,2.59,1.12,3.9c-2.62-4.42-8.53-3.24-12.04-2.81c3.42,0.87,7.93,6.17,12.51,4.81c0.35,1.58,0.64,3.19,0.88,4.82 c-2.5-5.17-9.25-4.5-13.22-4.4c3.75,1.35,8.24,7.79,13.52,6.8c0.18,1.76,0.28,3.55,0.3,5.38c-2.46-6.59-10.4-5.79-15.02-5.67 c4.16,1.49,9.13,8.65,14.99,7.58c-0.04,1.8-0.16,3.64-0.37,5.51c-2.52-7.13-11.04-6.34-15.97-6.25c4.37,1.61,9.55,9.16,15.73,8.22 c-0.35,2.41-0.86,4.88-1.52,7.42c-0.49-8.67-9.85-9.69-15.1-10.67c4.22,2.62,8.01,11.78,14.81,11.73c-0.39,1.39-0.82,2.8-1.3,4.22 c-1.69-6.03-9.07-8.43-13.5-10.2c0.95,0.89,1.8,2.18,2.64,3.65c0.25,0.79,2.46,7.08,9.94,8.05h2.44h1.46h8.65 c1.84-1.59,3.61-3.29,5.37-4.53c-3.45-0.45-9.4-0.23-13.53,2.76c0.3-1.1,0.57-2.2,0.81-3.29 C76.22,232.69,81.89,225.12,84.79,221.53z" class="st31" style="fill:#222335"/><path d="M21.31,232c2.03,0.44,4.32,1.74,6.76,3.2h13.69h0.05h3.27c0,0,0,0,0,0.01h6.84 c3.21-4.11,4.24-10.69,6.3-15.36c-4.51,1.95-12.07,7.01-13.04,14.38c-0.55-2.15-1.16-4.23-1.84-6.25 c8.54-1.57,9.71-12.67,10.48-18.07c-4.9,2.23-12.17,7.27-11.35,15.64c-0.96-2.61-2.04-5.11-3.22-7.5 c8.27-2.22,8.72-13.26,9.13-18.67c-4.74,2.56-11.69,8.09-10.27,16.41c-1.03-1.92-2.11-3.77-3.28-5.55 c6.67-3.75,3.65-12.9,5.78-17.3c-3.65,3.19-10.13,8.12-8.27,13.74c-0.99-1.33-2.03-2.6-3.11-3.85c4.38-3.97,1.35-12.04,2.49-16.2 c-2.51,3.41-7.18,8.88-4.27,14.2c-1.36-1.47-2.78-2.88-4.26-4.23c3.55-3.83,0.36-10.76,1.09-14.52 c-2.03,3.23-5.88,8.47-2.76,13.05c-1.16-0.99-2.34-1.96-3.56-2.89c2.99-4.41-1.46-10.75-1.41-14.62c-1.4,3.46-4.18,9.15-0.65,13.1 c-0.78-0.56-1.57-1.11-2.38-1.65c0.28-5.34-6.86-8.43-8.84-11.77c0.7,4.17,1.38,11.64,8.51,11.83c0.58,0.46,1.15,0.93,1.73,1.41 c-4.5-1.86-9.07,1.94-11.97,4.04c3.7-0.97,10.76,1.74,14.38-1.97c1.19,1.06,2.36,2.15,3.5,3.28c-5.33-2.89-10.61,1.87-13.91,4.43 c3.99-1.19,11.78,1.46,15.59-2.69c1.31,1.39,2.58,2.84,3.8,4.36c-5.66-3.73-12.1,1.02-16.07,3.53c4.61-0.9,13.06,2.92,17.82-1.28 c1.25,1.68,2.44,3.43,3.56,5.27c-6.48-5.2-14.05,0.42-18.66,3.33c5.12-1,14.49,3.25,19.78-1.38c1.05,1.85,2.04,3.78,2.96,5.81 c-6.86-5.71-15.02,0.25-19.97,3.31c5.41-1.01,15.22,3.51,20.92-1.18c1.1,2.65,2.08,5.47,2.94,8.44 c-5.74-8.49-15.85-3.87-21.77-1.69c5.87,0.11,15.25,7.1,22.11,2.94c0.45,1.64,0.86,3.33,1.23,5.07 C35.8,229.08,26.87,231.11,21.31,232z" class="st23" style="fill:#2a2c40"/><path d="M-0.25,235.22h16.91c0.91-8.37-3.98-27.53-16.91-43.56V235.22z" class="st32" style="fill-rule:evenodd;clip-rule:evenodd;fill:#222335"/><path d="M321.9,165.51c21.34,31.65,6.65,61.23-0.81,61.47c0,0,0.16,3.97,2.04,8.26h-2.7 c-0.95-1.38-1.87-8.35-1.87-8.35C311.33,226.47,297.74,192.69,321.9,165.51z" class="st29" style="fill-rule:evenodd;clip-rule:evenodd;fill:#424661"/><path d="M303.32,235.28c-10.41-12.73-22-37.97-14.81-64.12c25.74,16.54,35.49,52.6,33.4,64.12H303.32z" class="st30" style="fill-rule:evenodd;clip-rule:evenodd;fill:#353950"/><path d="M299.46,232.43c0,0,1.76,1.51,5.11,2.75h-4.97c-1.15-0.6-1.99-1.06-1.99-1.06 c-4.65,3.36-40.51-0.15-50.63-40.29C296.65,203.01,302.83,227.14,299.46,232.43z" class="st29" style="fill-rule:evenodd;clip-rule:evenodd;fill:#424661"/><path d="M251.04,221.53c4.53-0.5,12.01,0.01,15.04,6.45c-0.43-2.31-0.73-4.6-0.91-6.85 c-6.98,1.97-12.09-5.87-14.74-9.62c4.56-0.2,12.01,0.81,14.59,7.48c-0.08-1.84-0.1-3.66-0.02-5.46 c-6.48,0.16-8.25-7.8-11.71-10.08c4.04,0.74,10.89,1.52,11.98,6.41c0.14-1.4,0.35-2.78,0.59-4.15c-4.91-0.99-6.21-8.17-8.84-10.71 c3.31,1.39,9.07,3.34,9.26,8.48c0.35-1.66,0.77-3.3,1.26-4.92c-4.25-1.25-4.93-7.67-7.09-10.09c2.87,1.47,7.95,3.61,7.67,8.3 c0.41-1.22,0.85-2.44,1.34-3.65c-4.09-1.91-3.6-8.45-5.32-11.25c2.52,1.91,7.01,4.84,6.16,9.25c0.33-0.75,0.66-1.49,1.02-2.23 c-2.52-3.76,1.33-9.11,1.33-12.4c1.3,3.34,4.04,9.07-1.06,12.3c-0.22,0.59-0.44,1.18-0.65,1.77c2.46-3.31,7.44-2.52,10.46-2.25 c-3.11,0.9-7.07,5.94-11.32,4.8c-0.41,1.29-0.79,2.59-1.12,3.9c2.62-4.42,8.53-3.24,12.04-2.81c-3.42,0.87-7.93,6.17-12.51,4.81 c-0.35,1.58-0.64,3.19-0.88,4.82c2.5-5.17,9.25-4.5,13.22-4.4c-3.75,1.35-8.24,7.79-13.52,6.8c-0.18,1.76-0.28,3.55-0.3,5.38 c2.46-6.59,10.4-5.79,15.02-5.67c-4.16,1.49-9.13,8.65-14.99,7.58c0.04,1.8,0.16,3.64,0.37,5.51c2.52-7.13,11.04-6.34,15.97-6.25 c-4.37,1.61-9.55,9.16-15.73,8.22c0.35,2.41,0.86,4.88,1.52,7.42c0.49-8.67,9.85-9.69,15.1-10.67 c-4.22,2.62-8.01,11.78-14.81,11.73c0.39,1.39,0.82,2.8,1.3,4.22c1.69-6.03,9.07-8.43,13.5-10.2c-0.95,0.89-1.8,2.18-2.64,3.65 c-0.25,0.79-2.46,7.08-9.94,8.05h-2.44h-1.46h-8.65c-1.84-1.59-3.61-3.29-5.37-4.53c3.45-0.45,9.4-0.23,13.53,2.76 c-0.3-1.1-0.57-2.2-0.81-3.29C259.61,232.69,253.95,225.12,251.04,221.53z" class="st31" style="fill:#222335"/><path d="M314.53,232c-2.03,0.44-4.32,1.74-6.76,3.2h-13.69h-0.05h-3.27c0,0,0,0,0,0.01h-6.84 c-3.21-4.11-4.24-10.69-6.3-15.36c4.51,1.95,12.07,7.01,13.04,14.38c0.55-2.15,1.16-4.23,1.84-6.25 c-8.54-1.57-9.71-12.67-10.48-18.07c4.9,2.23,12.17,7.27,11.35,15.64c0.96-2.61,2.04-5.11,3.22-7.5 c-8.27-2.22-8.72-13.26-9.13-18.67c4.74,2.56,11.69,8.09,10.27,16.41c1.03-1.92,2.11-3.77,3.28-5.55 c-6.67-3.75-3.65-12.9-5.78-17.3c3.65,3.19,10.13,8.12,8.27,13.74c0.99-1.33,2.03-2.6,3.11-3.85c-4.38-3.97-1.35-12.04-2.49-16.2 c2.51,3.41,7.18,8.88,4.27,14.2c1.36-1.47,2.78-2.88,4.26-4.23c-3.55-3.83-0.36-10.76-1.09-14.52c2.03,3.23,5.88,8.47,2.76,13.05 c1.16-0.99,2.34-1.96,3.56-2.89c-2.99-4.41,1.46-10.75,1.41-14.62c1.4,3.46,4.18,9.15,0.65,13.1c0.78-0.56,1.57-1.11,2.38-1.65 c-0.28-5.34,6.86-8.43,8.84-11.77c-0.7,4.17-1.38,11.64-8.51,11.83c-0.58,0.46-1.15,0.93-1.73,1.41c4.5-1.86,9.07,1.94,11.97,4.04 c-3.7-0.97-10.76,1.74-14.38-1.97c-1.19,1.06-2.36,2.15-3.5,3.28c5.33-2.89,10.61,1.87,13.91,4.43 c-3.99-1.19-11.78,1.46-15.59-2.69c-1.31,1.39-2.58,2.84-3.8,4.36c5.66-3.73,12.1,1.02,16.07,3.53 c-4.61-0.9-13.06,2.92-17.82-1.28c-1.25,1.68-2.44,3.43-3.56,5.27c6.48-5.2,14.05,0.42,18.66,3.33c-5.12-1-14.49,3.25-19.78-1.38 c-1.05,1.85-2.04,3.78-2.96,5.81c6.86-5.71,15.02,0.25,19.97,3.31c-5.41-1.01-15.22,3.51-20.92-1.18 c-1.1,2.65-2.08,5.47-2.94,8.44c5.74-8.49,15.85-3.87,21.77-1.69c-5.87,0.11-15.25,7.1-22.11,2.94c-0.45,1.64-0.86,3.33-1.23,5.07 C300.03,229.08,308.97,231.11,314.53,232z" class="st23" style="fill:#2a2c40"/><path d="M336.08,235.22h-16.91c-0.91-8.37,3.98-27.53,16.91-43.56V235.22z" class="st32" style="fill-rule:evenodd;clip-rule:evenodd;fill:#222335"/><g class="st11" style="opacity:.2"><radialGradient id="SVGID_14_" cx="245.144" cy="-71.582" r="22.942" gradientTransform="matrix(1.0015 -0.0645 0.064 1.009 -0.0588 191.529)" gradientUnits="userSpaceOnUse"><stop offset=".742" style="stop-color:#fff;stop-opacity:.8"/><stop offset=".951" style="stop-color:#fff;stop-opacity:0"/></radialGradient><path d="M261.98,112.75c-5.07,11.74-18.64,17.12-30.29,12.01c-11.66-5.11-16.99-18.78-11.92-30.52 c5.07-11.74,18.64-17.12,30.29-12.01C261.72,87.34,267.05,101,261.98,112.75z" class="st33" style="opacity:.6;fill:url(#SVGID_14_)"/><radialGradient id="SVGID_15_" cx="123.471" cy="-67.244" r="36.09" gradientTransform="matrix(1.0015 -0.0645 0.064 1.009 -0.0588 191.529)" gradientUnits="userSpaceOnUse"><stop offset=".742" style="stop-color:#fff;stop-opacity:.8"/><stop offset=".951" style="stop-color:#fff;stop-opacity:0"/></radialGradient><path d="M152.5,130.28c-7.98,18.47-29.32,26.93-47.66,18.89c-18.34-8.04-26.73-29.54-18.75-48.01 c7.98-18.47,29.32-26.93,47.65-18.89C152.08,90.31,160.48,111.8,152.5,130.28z" class="st34" style="opacity:.3;fill:url(#SVGID_15_)"/><radialGradient id="SVGID_16_" cx="92.794" cy="-75.637" r="30.395" gradientTransform="matrix(1.0015 -0.0645 0.064 1.009 -0.0588 191.529)" gradientUnits="userSpaceOnUse"><stop offset=".854" style="stop-color:#fff;stop-opacity:.6"/><stop offset=".951" style="stop-color:#fff;stop-opacity:0"/></radialGradient><path d="M116,121.49c-6.72,15.56-24.69,22.68-40.14,15.91c-15.44-6.77-22.51-24.88-15.79-40.43 c6.72-15.56,24.69-22.68,40.13-15.91C115.65,87.83,122.72,105.93,116,121.49z" class="st35" style="opacity:.6;fill:url(#SVGID_16_)"/><radialGradient id="SVGID_17_" cx="103.877" cy="-89.732" r="16.381" gradientTransform="matrix(1.0015 -0.0645 0.064 1.009 -0.0588 191.529)" gradientUnits="userSpaceOnUse"><stop offset=".742" style="stop-color:#fff;stop-opacity:.8"/><stop offset=".951" style="stop-color:#fff;stop-opacity:0"/></radialGradient><path d="M113.3,100.9c-3.62,8.38-13.31,12.22-21.63,8.57c-8.32-3.65-12.13-13.41-8.51-21.79 c3.62-8.38,13.31-12.22,21.63-8.57C113.11,82.76,116.92,92.51,113.3,100.9z" class="st36" style="opacity:.6;fill:url(#SVGID_17_)"/><radialGradient id="SVGID_18_" cx="53.126" cy="-105.728" r="22.942" gradientTransform="matrix(1.0015 -0.0645 0.064 1.009 -0.0588 191.529)" gradientUnits="userSpaceOnUse"><stop offset=".854" style="stop-color:#fff;stop-opacity:.6"/><stop offset=".951" style="stop-color:#fff;stop-opacity:0"/></radialGradient><path d="M67.49,90.68c-5.07,11.74-18.64,17.12-30.29,12.01C25.54,97.57,20.2,83.91,25.28,72.17 c5.07-11.74,18.64-17.12,30.29-12.01C67.22,65.27,72.56,78.94,67.49,90.68z" class="st37" style="opacity:.6;fill:url(#SVGID_18_)"/><radialGradient id="SVGID_19_" cx="195.912" cy="-69.297" r="31.189" gradientTransform="matrix(1.0015 -0.0645 0.064 1.009 -0.0588 191.529)" gradientUnits="userSpaceOnUse"><stop offset=".742" style="stop-color:#fff;stop-opacity:.8"/><stop offset=".951" style="stop-color:#fff;stop-opacity:0"/></radialGradient><path d="M220.41,121.56c-6.9,15.96-25.34,23.27-41.18,16.32c-15.85-6.95-23.1-25.52-16.2-41.49 c6.9-15.96,25.33-23.27,41.18-16.32C220.05,87.01,227.3,105.59,220.41,121.56z" class="st38" style="opacity:.8;fill:url(#SVGID_19_)"/><radialGradient id="SVGID_20_" cx="141.643" cy="22.026" r="22.942" gradientTransform="matrix(1.0015 -0.0645 0.064 1.009 -0.0588 191.529)" gradientUnits="userSpaceOnUse"><stop offset=".742" style="stop-color:#fff;stop-opacity:.8"/><stop offset=".951" style="stop-color:#fff;stop-opacity:0"/></radialGradient><path d="M164.31,213.87c-5.07,11.74-18.64,17.12-30.29,12.01c-11.66-5.11-16.99-18.78-11.92-30.52 c5.07-11.74,18.64-17.12,30.29-12.01C164.05,188.47,169.38,202.13,164.31,213.87z" class="st39" style="opacity:.3;fill:url(#SVGID_20_)"/><radialGradient id="SVGID_21_" cx="121.515" cy="-119.422" r="22.942" gradientTransform="matrix(1.0015 -0.0645 0.064 1.009 -0.0588 191.529)" gradientUnits="userSpaceOnUse"><stop offset=".742" style="stop-color:#fff;stop-opacity:.8"/><stop offset=".951" style="stop-color:#fff;stop-opacity:0"/></radialGradient><path d="M135.1,72.45c-5.07,11.74-18.64,17.12-30.29,12.01c-11.66-5.11-16.99-18.78-11.92-30.52 c5.07-11.74,18.64-17.12,30.29-12.01C134.84,47.04,140.17,60.71,135.1,72.45z" class="st40" style="opacity:.3;fill:url(#SVGID_21_)"/><radialGradient id="SVGID_22_" cx="75.359" cy="-150.615" r="32.395" gradientTransform="matrix(1.0015 -0.0645 0.064 1.009 -0.0588 191.529)" gradientUnits="userSpaceOnUse"><stop offset=".742" style="stop-color:#fff;stop-opacity:.8"/><stop offset=".951" style="stop-color:#fff;stop-opacity:0"/></radialGradient><path d="M95.58,47.77C88.41,64.35,69.26,71.94,52.8,64.72c-16.46-7.22-23.99-26.51-16.83-43.1 C43.14,5.05,62.29-2.55,78.75,4.67C95.21,11.89,102.74,31.19,95.58,47.77z" class="st41" style="opacity:.2;fill:url(#SVGID_22_)"/><radialGradient id="SVGID_23_" cx="51.062" cy="2.536" r="22.942" gradientTransform="matrix(1.0015 -0.0645 0.064 1.009 -0.0588 191.529)" gradientUnits="userSpaceOnUse"><stop offset=".742" style="stop-color:#fff;stop-opacity:.8"/><stop offset=".951" style="stop-color:#fff;stop-opacity:0"/></radialGradient><path d="M72.35,200.05c-5.07,11.74-18.64,17.12-30.29,12.01c-11.66-5.11-16.99-18.77-11.92-30.52 c5.07-11.74,18.64-17.12,30.29-12.01C72.09,174.64,77.42,188.31,72.35,200.05z" class="st42" style="opacity:.6;fill:url(#SVGID_23_)"/><radialGradient id="SVGID_24_" cx="150.354" cy="-114.292" r="22.942" gradientTransform="matrix(1.0015 -0.0645 0.064 1.009 -0.0588 191.529)" gradientUnits="userSpaceOnUse"><stop offset=".742" style="stop-color:#fff;stop-opacity:.8"/><stop offset=".951" style="stop-color:#fff;stop-opacity:0"/></radialGradient><path d="M164.31,75.77c-5.07,11.74-18.64,17.12-30.29,12.01C122.36,82.66,117.03,69,122.1,57.25 c5.07-11.74,18.64-17.12,30.29-12.01C164.05,50.36,169.38,64.02,164.31,75.77z" class="st43" style="opacity:.2;fill:url(#SVGID_24_)"/><radialGradient id="SVGID_25_" cx="279.473" cy="-98.482" r="22.942" gradientTransform="matrix(1.0015 -0.0645 0.064 1.009 -0.0588 191.529)" gradientUnits="userSpaceOnUse"><stop offset=".742" style="stop-color:#fff;stop-opacity:.8"/><stop offset=".951" style="stop-color:#fff;stop-opacity:0"/></radialGradient><path d="M294.64,83.39c-5.07,11.74-18.64,17.12-30.29,12.01c-11.66-5.11-16.99-18.77-11.92-30.52 c5.07-11.74,18.64-17.12,30.29-12.01C294.37,57.98,299.71,71.65,294.64,83.39z" class="st44" style="opacity:.2;fill:url(#SVGID_25_)"/><radialGradient id="SVGID_26_" cx="284.88" cy="-134.937" r="29.699" gradientTransform="matrix(1.0015 -0.0645 0.064 1.009 -0.0588 191.529)" gradientUnits="userSpaceOnUse"><stop offset=".854" style="stop-color:#fff;stop-opacity:.6"/><stop offset=".951" style="stop-color:#fff;stop-opacity:0"/></radialGradient><path d="M303.93,48.99c-6.57,15.2-24.13,22.16-39.22,15.54c-15.09-6.62-22-24.3-15.43-39.51 c6.57-15.2,24.12-22.16,39.21-15.54C303.6,16.09,310.5,33.78,303.93,48.99z" class="st45" style="opacity:.6;fill:url(#SVGID_26_)"/><radialGradient id="SVGID_27_" cx="297.551" cy="-55.509" r="31.898" gradientTransform="matrix(1.0015 -0.0645 0.064 1.009 -0.0588 191.529)" gradientUnits="userSpaceOnUse"><stop offset=".742" style="stop-color:#fff;stop-opacity:.8"/><stop offset=".951" style="stop-color:#fff;stop-opacity:0"/></radialGradient><path d="M323.73,129.2c-7.06,16.33-25.91,23.8-42.12,16.69c-16.21-7.11-23.62-26.11-16.57-42.43 c7.05-16.33,25.91-23.8,42.12-16.69C323.37,93.87,330.78,112.87,323.73,129.2z" class="st46" style="opacity:.3;fill:url(#SVGID_27_)"/><radialGradient id="SVGID_28_" cx="303.535" cy="25.326" r="22.942" gradientTransform="matrix(1.0015 -0.0645 0.064 1.009 -0.0588 191.529)" gradientUnits="userSpaceOnUse"><stop offset=".742" style="stop-color:#fff;stop-opacity:.8"/><stop offset=".951" style="stop-color:#fff;stop-opacity:0"/></radialGradient><path d="M326.66,206.76c-5.07,11.74-18.64,17.12-30.29,12.01c-11.66-5.11-16.99-18.78-11.92-30.52 c5.07-11.74,18.64-17.12,30.29-12.01C326.4,181.35,331.73,195.02,326.66,206.76z" class="st47" style="opacity:.2;fill:url(#SVGID_28_)"/><radialGradient id="SVGID_29_" cx="46.175" cy="-42.624" r="22.942" gradientTransform="matrix(1.0015 -0.0645 0.064 1.009 -0.0588 191.529)" gradientUnits="userSpaceOnUse"><stop offset=".742" style="stop-color:#fff;stop-opacity:.8"/><stop offset=".951" style="stop-color:#fff;stop-opacity:0"/></radialGradient><path d="M64.56,154.8c-5.07,11.74-18.64,17.12-30.29,12.01c-11.66-5.11-16.99-18.78-11.92-30.52 c5.07-11.74,18.64-17.12,30.29-12.01C64.3,129.39,69.64,143.06,64.56,154.8z" class="st48" style="opacity:.6;fill:url(#SVGID_29_)"/></g><path d="M242.71,61.72l-0.79,0.02c-0.52,0.02-1.05,0.1-1.58,0.19c-0.25,0.05-0.51,0.12-0.77,0.17 c-0.26,0.08-0.52,0.16-0.78,0.23l-0.77,0.28c-0.24,0.12-0.51,0.23-0.76,0.35c-0.24,0.12-0.49,0.24-0.74,0.39 c-0.25,0.15-0.5,0.3-0.73,0.47c-0.23,0.19-0.45,0.32-0.68,0.52c-0.23,0.19-0.46,0.36-0.66,0.56c-0.23,0.19-0.44,0.4-0.64,0.6 c-0.21,0.2-0.41,0.41-0.59,0.62c-0.16,0.19-0.35,0.4-0.51,0.6c-0.17-0.2-0.35-0.4-0.51-0.6c-0.18-0.21-0.38-0.42-0.59-0.62 c-0.21-0.2-0.41-0.41-0.64-0.6c-0.21-0.2-0.43-0.37-0.66-0.56c-0.23-0.19-0.45-0.32-0.68-0.52c-0.22-0.16-0.48-0.31-0.73-0.47 c-0.25-0.15-0.49-0.27-0.74-0.39c-0.24-0.12-0.51-0.23-0.76-0.35l-0.77-0.28c-0.26-0.08-0.52-0.16-0.78-0.23 c-0.25-0.05-0.51-0.12-0.77-0.17c-0.53-0.08-1.07-0.17-1.58-0.19l-0.79-0.02c-0.27,0-0.53,0.02-0.77,0.04 c0.26,0.08,0.5,0.17,0.76,0.24l0.76,0.24l0.73,0.25l0.74,0.29c0.23,0.09,0.48,0.21,0.71,0.3l0.69,0.34l0.67,0.38 c0.22,0.13,0.43,0.26,0.65,0.42c0.22,0.16,0.44,0.29,0.63,0.43c0.2,0.17,0.41,0.3,0.61,0.47c0.2,0.17,0.42,0.33,0.59,0.52 c0.2,0.17,0.39,0.34,0.56,0.53c0.17,0.18,0.37,0.35,0.54,0.57c0.18,0.21,0.37,0.39,0.55,0.6l0.53,0.61l0.51,0.65l0.49,0.61v0.04 l0.02,0.02l0.02-0.02l0.02,0.02l0.02-0.02v-0.04l0.49-0.61l0.51-0.65l0.53-0.61c0.18-0.21,0.37-0.39,0.55-0.6 c0.18-0.21,0.37-0.39,0.54-0.57c0.17-0.18,0.37-0.35,0.56-0.53c0.17-0.18,0.39-0.34,0.59-0.52c0.2-0.17,0.41-0.3,0.61-0.47 c0.19-0.14,0.4-0.27,0.63-0.43c0.22-0.16,0.44-0.29,0.65-0.42l0.67-0.38l0.69-0.34c0.23-0.09,0.48-0.21,0.71-0.3l0.74-0.29 l0.73-0.25l0.76-0.24c0.26-0.08,0.5-0.17,0.76-0.24C243.24,61.75,242.98,61.72,242.71,61.72z" class="st31" style="fill:#222335"/><path d="M248.4,71.61l-0.29,0.01c-0.19,0.01-0.39,0.04-0.58,0.07c-0.09,0.02-0.19,0.05-0.28,0.07 c-0.1,0.03-0.19,0.06-0.29,0.09l-0.28,0.11c-0.09,0.05-0.19,0.09-0.28,0.13c-0.09,0.05-0.18,0.09-0.27,0.15 c-0.09,0.06-0.19,0.12-0.27,0.18c-0.09,0.07-0.17,0.12-0.25,0.2c-0.09,0.07-0.17,0.14-0.24,0.21c-0.09,0.07-0.16,0.15-0.24,0.23 c-0.08,0.08-0.15,0.16-0.22,0.24c-0.06,0.07-0.13,0.15-0.19,0.23c-0.06-0.07-0.13-0.15-0.19-0.23c-0.07-0.08-0.14-0.16-0.22-0.24 c-0.08-0.08-0.15-0.16-0.24-0.23c-0.08-0.08-0.16-0.14-0.24-0.21c-0.09-0.07-0.17-0.12-0.25-0.2c-0.08-0.06-0.18-0.12-0.27-0.18 s-0.18-0.1-0.27-0.15c-0.09-0.05-0.19-0.09-0.28-0.13l-0.28-0.11c-0.1-0.03-0.19-0.06-0.29-0.09c-0.09-0.02-0.19-0.05-0.28-0.07 c-0.2-0.03-0.39-0.06-0.58-0.07l-0.29-0.01c-0.1,0-0.2,0.01-0.28,0.01c0.1,0.03,0.18,0.06,0.28,0.09l0.28,0.09l0.27,0.1l0.27,0.11 c0.09,0.03,0.18,0.08,0.26,0.11l0.26,0.13l0.25,0.15c0.08,0.05,0.16,0.1,0.24,0.16c0.08,0.06,0.16,0.11,0.23,0.17 c0.07,0.07,0.15,0.12,0.22,0.18c0.07,0.07,0.16,0.13,0.22,0.2c0.07,0.07,0.15,0.13,0.21,0.2c0.06,0.07,0.14,0.14,0.2,0.22 c0.07,0.08,0.14,0.15,0.2,0.23l0.19,0.23l0.19,0.25l0.18,0.23v0.01l0.01,0.01l0.01-0.01l0.01,0.01l0.01-0.01v-0.01l0.18-0.23 l0.19-0.25l0.19-0.23c0.07-0.08,0.14-0.15,0.2-0.23c0.07-0.08,0.14-0.15,0.2-0.22c0.06-0.07,0.14-0.14,0.21-0.2 c0.06-0.07,0.15-0.13,0.22-0.2c0.07-0.07,0.15-0.12,0.22-0.18c0.07-0.05,0.15-0.1,0.23-0.17c0.08-0.06,0.16-0.11,0.24-0.16 l0.25-0.15l0.26-0.13c0.09-0.03,0.18-0.08,0.26-0.11l0.27-0.11l0.27-0.1l0.28-0.09c0.1-0.03,0.18-0.06,0.28-0.09 C248.6,71.61,248.5,71.6,248.4,71.61z" class="st31" style="fill:#222335"/><path d="M257.58,68.38l-0.29,0.01c-0.19,0.01-0.39,0.04-0.58,0.07c-0.09,0.02-0.19,0.05-0.28,0.07 c-0.1,0.03-0.19,0.06-0.29,0.09l-0.28,0.11c-0.09,0.05-0.19,0.09-0.28,0.13c-0.09,0.05-0.18,0.09-0.27,0.15s-0.19,0.12-0.27,0.18 c-0.09,0.07-0.17,0.12-0.25,0.2c-0.09,0.07-0.17,0.14-0.24,0.21c-0.09,0.07-0.16,0.15-0.24,0.23c-0.08,0.08-0.15,0.16-0.22,0.24 c-0.06,0.07-0.13,0.15-0.19,0.23c-0.06-0.07-0.13-0.15-0.19-0.23c-0.07-0.08-0.14-0.16-0.22-0.24c-0.08-0.08-0.15-0.16-0.24-0.23 c-0.08-0.08-0.16-0.14-0.24-0.21c-0.09-0.07-0.17-0.12-0.25-0.2c-0.08-0.06-0.18-0.12-0.27-0.18c-0.09-0.06-0.18-0.1-0.27-0.15 c-0.09-0.05-0.19-0.09-0.28-0.13l-0.28-0.11c-0.1-0.03-0.19-0.06-0.29-0.09c-0.09-0.02-0.19-0.05-0.28-0.07 c-0.2-0.03-0.39-0.06-0.58-0.07l-0.29-0.01c-0.1,0-0.2,0.01-0.28,0.01c0.1,0.03,0.18,0.06,0.28,0.09l0.28,0.09l0.27,0.1l0.27,0.11 c0.09,0.03,0.18,0.08,0.26,0.11l0.26,0.13l0.25,0.15c0.08,0.05,0.16,0.1,0.24,0.16c0.08,0.06,0.16,0.11,0.23,0.17 c0.07,0.07,0.15,0.12,0.22,0.18c0.07,0.07,0.16,0.13,0.22,0.2c0.07,0.07,0.15,0.13,0.21,0.2c0.06,0.07,0.14,0.14,0.2,0.22 c0.07,0.08,0.14,0.15,0.2,0.23l0.19,0.23l0.19,0.25l0.18,0.23v0.01l0.01,0.01l0.01-0.01l0.01,0.01l0.01-0.01v-0.01l0.18-0.23 l0.19-0.25l0.19-0.23c0.07-0.08,0.14-0.15,0.2-0.23c0.07-0.08,0.14-0.15,0.2-0.22c0.06-0.07,0.14-0.14,0.21-0.2 c0.06-0.07,0.15-0.13,0.22-0.2c0.07-0.07,0.15-0.12,0.22-0.18c0.07-0.05,0.15-0.1,0.23-0.17c0.08-0.06,0.16-0.11,0.24-0.16 l0.25-0.15l0.26-0.13c0.09-0.03,0.18-0.08,0.26-0.11l0.27-0.11l0.27-0.1l0.28-0.09c0.1-0.03,0.18-0.06,0.28-0.09 C257.77,68.39,257.68,68.38,257.58,68.38z" class="st31" style="fill:#222335"/></g></switch></svg>