<?xml version="1.0" encoding="utf-8"?>
<svg id="master-artboard" viewBox="0 0 336.4 235.2" version="1.1" xmlns="http://www.w3.org/2000/svg" x="0px" y="0px" style="enable-background:new 0 0 336.4 235.2;" width="336.3999938964844px" height="235.1999969482422px">

<title>eezy_19</title>
<g id="Layer" transform="matrix(1, 0, 0, 1, 0, 0)">
		
			<linearGradient id="SVGID_1_" gradientUnits="userSpaceOnUse" x1="168.2" y1="66.7999" x2="168.2" y2="167.4599" gradientTransform="matrix(1 0 0 1 0 66.0001)">
			<stop offset="6.000000e-02" style="stop-color:#1EB099"/>
			<stop offset="0.36" style="stop-color:#0B8696"/>
			<stop offset="0.67" style="stop-color:#0C5B93"/>
			<stop offset="0.99" style="stop-color:#28357A"/>
		</linearGradient>
		<path d="M 0.2 132.800003 H 336.2 V 235.200005 H 0.2 V 132.800003 Z" class="st0" style="fill: url('#SVGID_1_');"/>
		
			<linearGradient id="SVGID_2_" gradientUnits="userSpaceOnUse" x1="168.1566" y1="-97.4481" x2="168.1566" y2="33.948" gradientTransform="matrix(-1 0 0 -1 336.4 36.0387)">
			<stop offset="6.000000e-02" style="stop-color:#1EB099"/>
			<stop offset="0.36" style="stop-color:#0B8696"/>
			<stop offset="0.67" style="stop-color:#0C5B93"/>
			<stop offset="0.99" style="stop-color:#28357A"/>
		</linearGradient>
		<path d="M 0.2 -0.1 H 336.300006 V 133.500006 H 0.2 V -0.1 Z" class="st1" style="fill: url('#SVGID_2_');"/>
		
			<radialGradient id="SVGID_3_" cx="89.13" cy="42.0943" r="69.21" gradientTransform="matrix(1 0 0 0.7 0.17 106.82)" gradientUnits="userSpaceOnUse">
			<stop offset="0" style="stop-color:#F8FAEA;stop-opacity:0.96"/>
			<stop offset="9.000000e-02" style="stop-color:#F8FAEB;stop-opacity:0.93"/>
			<stop offset="0.23" style="stop-color:#F8FAEC;stop-opacity:0.85"/>
			<stop offset="0.39" style="stop-color:#F8FBEF;stop-opacity:0.71"/>
			<stop offset="0.58" style="stop-color:#F8FBF3;stop-opacity:0.53"/>
			<stop offset="0.78" style="stop-color:#F7FBF9;stop-opacity:0.29"/>
			<stop offset="1" style="stop-color:#F7FCFF;stop-opacity:0"/>
		</radialGradient>
		<path class="st2" d="M21.6,132.6c0,44.2,44.2,59.8,68.4,59.8c23.9,0,68.4-14.1,68.4-59.8H21.6z" style="opacity: 0.6; fill: url('#SVGID_3_');"/>
		
			<linearGradient id="SVGID_4_" gradientUnits="userSpaceOnUse" x1="-252.27" y1="98.6499" x2="906.27" y2="98.6499" gradientTransform="matrix(1 0 0 1 0 66.0001)">
			<stop offset="0.1" style="stop-color:#FFFFFF;stop-opacity:0"/>
			<stop offset="0.2" style="stop-color:#FFFFFF;stop-opacity:0.17"/>
			<stop offset="0.39" style="stop-color:#FFFFFF;stop-opacity:0.46"/>
			<stop offset="0.55" style="stop-color:#FFFFFF;stop-opacity:0.69"/>
			<stop offset="0.69" style="stop-color:#FFFFFF;stop-opacity:0.86"/>
			<stop offset="0.8" style="stop-color:#FFFFFF;stop-opacity:0.96"/>
			<stop offset="0.87" style="stop-color:#FFFFFF"/>
		</linearGradient>
		<path d="M 335.79998779296875 159.89999389648438 L 0.30000001192092896 163.1999969482422 L 0.30000001192092896 167.39999389648438 L 335.79998779296875 169.39999389648438 Z" class="st3" style="opacity: 0.21; fill: url('#SVGID_4_');"/>
		
			<linearGradient id="SVGID_5_" gradientUnits="userSpaceOnUse" x1="-252.27" y1="152.7999" x2="906.27" y2="152.7999" gradientTransform="matrix(1 0 0 1 0 66.0001)">
			<stop offset="0.1" style="stop-color:#FFFFFF;stop-opacity:0"/>
			<stop offset="0.2" style="stop-color:#FFFFFF;stop-opacity:0.17"/>
			<stop offset="0.39" style="stop-color:#FFFFFF;stop-opacity:0.46"/>
			<stop offset="0.55" style="stop-color:#FFFFFF;stop-opacity:0.69"/>
			<stop offset="0.69" style="stop-color:#FFFFFF;stop-opacity:0.86"/>
			<stop offset="0.8" style="stop-color:#FFFFFF;stop-opacity:0.96"/>
			<stop offset="0.87" style="stop-color:#FFFFFF"/>
		</linearGradient>
		<path d="M 335.79998779296875 214 L 0.30000001192092896 217.39999389648438 L 0.30000001192092896 221.60000610351562 L 335.79998779296875 223.60000610351562 Z" class="st4" style="opacity: 0.21; fill: url('#SVGID_5_');"/>
		
			<linearGradient id="SVGID_6_" gradientUnits="userSpaceOnUse" x1="76.31" y1="-45.35" x2="1234.8501" y2="-45.35" gradientTransform="matrix(-1 0 0 -1 664.61 136.5)">
			<stop offset="0.1" style="stop-color:#FFFFFF;stop-opacity:0"/>
			<stop offset="0.2" style="stop-color:#FFFFFF;stop-opacity:0.17"/>
			<stop offset="0.39" style="stop-color:#FFFFFF;stop-opacity:0.46"/>
			<stop offset="0.55" style="stop-color:#FFFFFF;stop-opacity:0.69"/>
			<stop offset="0.69" style="stop-color:#FFFFFF;stop-opacity:0.86"/>
			<stop offset="0.8" style="stop-color:#FFFFFF;stop-opacity:0.96"/>
			<stop offset="0.87" style="stop-color:#FFFFFF"/>
		</linearGradient>
		<path d="M 0.30000001192092896 186.60000610351562 L 335.79998779296875 184.8000030517578 L 335.79998779296875 179.10000610351562 L 0.30000001192092896 177.10000610351562 Z" class="st5" style="opacity: 0.21; fill: url('#SVGID_6_');"/>
		
			<linearGradient id="SVGID_7_" gradientUnits="userSpaceOnUse" x1="-594.14" y1="136.0499" x2="814.1901" y2="136.0499" gradientTransform="matrix(1 0 0 1 0 66.0001)">
			<stop offset="0.1" style="stop-color:#FFFFFF;stop-opacity:0"/>
			<stop offset="0.2" style="stop-color:#FFFFFF;stop-opacity:0.17"/>
			<stop offset="0.39" style="stop-color:#FFFFFF;stop-opacity:0.46"/>
			<stop offset="0.55" style="stop-color:#FFFFFF;stop-opacity:0.69"/>
			<stop offset="0.69" style="stop-color:#FFFFFF;stop-opacity:0.86"/>
			<stop offset="0.8" style="stop-color:#FFFFFF;stop-opacity:0.96"/>
			<stop offset="0.87" style="stop-color:#FFFFFF"/>
		</linearGradient>
		<path d="M 0 195.60000610351562 L 0 208.5 L 285.3999938964844 202.1999969482422 Z" class="st6" style="opacity: 0.21; fill: url('#SVGID_7_');"/>
		
			<linearGradient id="SVGID_8_" gradientUnits="userSpaceOnUse" x1="-201.85" y1="-23.85" x2="1072.73" y2="-23.85" gradientTransform="matrix(-1 0 0 -1 671.21 149.65)">
			<stop offset="0.1" style="stop-color:#FFFFFF;stop-opacity:0"/>
			<stop offset="0.2" style="stop-color:#FFFFFF;stop-opacity:0.17"/>
			<stop offset="0.39" style="stop-color:#FFFFFF;stop-opacity:0.46"/>
			<stop offset="0.55" style="stop-color:#FFFFFF;stop-opacity:0.69"/>
			<stop offset="0.69" style="stop-color:#FFFFFF;stop-opacity:0.86"/>
			<stop offset="0.8" style="stop-color:#FFFFFF;stop-opacity:0.96"/>
			<stop offset="0.87" style="stop-color:#FFFFFF"/>
		</linearGradient>
		<path d="M 335.29998779296875 175.8000030517578 L 335.29998779296875 171.1999969482422 L 77.0999984741211 173.39999389648438 Z" class="st7" style="opacity: 0.21; fill: url('#SVGID_8_');"/>
		
			<linearGradient id="SVGID_9_" gradientUnits="userSpaceOnUse" x1="-201.85" y1="-60.85" x2="1072.73" y2="-60.85" gradientTransform="matrix(-1 0 0 -1 671.21 149.65)">
			<stop offset="0.1" style="stop-color:#FFFFFF;stop-opacity:0"/>
			<stop offset="0.2" style="stop-color:#FFFFFF;stop-opacity:0.17"/>
			<stop offset="0.39" style="stop-color:#FFFFFF;stop-opacity:0.46"/>
			<stop offset="0.55" style="stop-color:#FFFFFF;stop-opacity:0.69"/>
			<stop offset="0.69" style="stop-color:#FFFFFF;stop-opacity:0.86"/>
			<stop offset="0.8" style="stop-color:#FFFFFF;stop-opacity:0.96"/>
			<stop offset="0.87" style="stop-color:#FFFFFF"/>
		</linearGradient>
		<path d="M 335.29998779296875 212.8000030517578 L 335.29998779296875 208.1999969482422 L 77.0999984741211 210.5 Z" class="st8" style="opacity: 0.21; fill: url('#SVGID_9_');"/>
		<path d="M 0.2 0 H 336.300006 V 133.100006 H 0.2 V 0 Z" class="st9" style="fill: none;"/>
		<path id="_Csoport_" class="st10" d="M125,26.1c0-0.3-0.3-0.6-0.6-0.6l-0.1-2l-0.1,2c-0.3,0-0.6,0.3-0.6,0.6l-2,0.1l2,0.1&#10;&#9;&#9;&#9;c0,0.3,0.3,0.6,0.6,0.6l0.1,2l0.1-2c0.3,0,0.6-0.3,0.6-0.6l14.7-0.1L125,26.1z" style="fill: rgb(255, 255, 255);"/>
		<path d="M 22 57.700001 A 0.6 0.6 0 0 1 21.4 58.300001 A 0.6 0.6 0 0 1 20.8 57.700001 A 0.6 0.6 0 0 1 21.4 57.100001 A 0.6 0.6 0 0 1 22 57.700001 Z" class="st10" style="fill: rgb(255, 255, 255);"/>
		<path d="M 54.6 57.700001 A 0.6 0.6 0 0 1 54 58.300001 A 0.6 0.6 0 0 1 53.4 57.700001 A 0.6 0.6 0 0 1 54 57.100001 A 0.6 0.6 0 0 1 54.6 57.700001 Z" class="st10" style="fill: rgb(255, 255, 255);"/>
		<g id="snowflakes" class="st11" style="opacity: 0.6;">
			<g class="st11" style="opacity: 0.6;">
				<path class="st10" d="M63.9,64.2c0-0.4,0.3-0.7,0.6-0.7c0.4,0,0.7,0.3,0.7,0.6c0,0.4-0.3,0.7-0.6,0.7l0,0&#10;&#9;&#9;&#9;&#9;&#9;C64.2,64.8,63.9,64.5,63.9,64.2z" style="fill: rgb(255, 255, 255);"/>
				<path class="st10" d="M121.2,52.6c0-0.4,0.3-0.7,0.6-0.7c0.4,0,0.7,0.3,0.7,0.6c0,0.4-0.3,0.7-0.6,0.7l0,0&#10;&#9;&#9;&#9;&#9;&#9;C121.5,53.2,121.2,53,121.2,52.6L121.2,52.6z" style="fill: rgb(255, 255, 255);"/>
				<path class="st10" d="M198.3,68.5c0-0.4,0.3-0.7,0.6-0.7c0.4,0,0.7,0.3,0.7,0.6c0,0.4-0.3,0.7-0.6,0.7l0,0&#10;&#9;&#9;&#9;&#9;&#9;C198.6,69.1,198.3,68.8,198.3,68.5L198.3,68.5z" style="fill: rgb(255, 255, 255);"/>
				<path class="st10" d="M152.2,72.7c0-0.4,0.4-0.6,0.7-0.6s0.5,0.3,0.6,0.6c0,0.4-0.4,0.6-0.7,0.6C152.4,73.3,152.2,73,152.2,72.7&#10;&#9;&#9;&#9;&#9;&#9;z" style="fill: rgb(255, 255, 255);"/>
				<path class="st10" d="M132.8,29.2c0-0.4,0.3-0.7,0.6-0.7l0,0c0.4,0,0.7,0.3,0.7,0.6c0,0.4-0.3,0.7-0.6,0.7l0,0&#10;&#9;&#9;&#9;&#9;&#9;C133.1,29.8,132.8,29.5,132.8,29.2L132.8,29.2z" style="fill: rgb(255, 255, 255);"/>
				<path class="st10" d="M86.6,33.4c0-0.4,0.3-0.7,0.6-0.7c0.4,0,0.7,0.3,0.7,0.6c0,0.4-0.3,0.7-0.6,0.7l0,0&#10;&#9;&#9;&#9;&#9;&#9;C86.9,34.1,86.6,33.8,86.6,33.4z" style="fill: rgb(255, 255, 255);"/>
				<path class="st10" d="M25.6,46.4c0-0.4,0.3-0.7,0.6-0.7c0.4,0,0.7,0.3,0.7,0.6S26.7,47,26.3,47l0,0C26,47,25.7,46.7,25.6,46.4&#10;&#9;&#9;&#9;&#9;&#9;C25.7,46.4,25.6,46.4,25.6,46.4z" style="fill: rgb(255, 255, 255);"/>
				<path class="st10" d="M183.4,47.3c0-0.4,0.3-0.7,0.6-0.7c0.4,0,0.7,0.3,0.7,0.6s-0.3,0.7-0.6,0.7l0,0&#10;&#9;&#9;&#9;&#9;&#9;C183.7,47.9,183.4,47.6,183.4,47.3L183.4,47.3z" style="fill: rgb(255, 255, 255);"/>
				<path class="st10" d="M167.8,29.8c0-0.4,0.3-0.7,0.7-0.7l0,0c0.4,0,0.7,0.3,0.7,0.6c0,0.4-0.3,0.7-0.6,0.7l0,0&#10;&#9;&#9;&#9;&#9;&#9;C168.1,30.5,167.8,30.2,167.8,29.8L167.8,29.8z" style="fill: rgb(255, 255, 255);"/>
				<path class="st10" d="M76.7,22.3c0-0.4,0.3-0.7,0.7-0.7l0,0c0.4,0,0.7,0.3,0.7,0.6c0,0.4-0.3,0.7-0.6,0.7l0,0&#10;&#9;&#9;&#9;&#9;&#9;C77,22.9,76.7,22.6,76.7,22.3L76.7,22.3z" style="fill: rgb(255, 255, 255);"/>
				<path class="st10" d="M46.6,72.1c0-0.4,0.3-0.7,0.6-0.7c0.4,0,0.7,0.3,0.7,0.6c0,0.4-0.3,0.7-0.6,0.7l0,0&#10;&#9;&#9;&#9;&#9;&#9;C46.9,72.7,46.6,72.4,46.6,72.1z" style="fill: rgb(255, 255, 255);"/>
				<path class="st10" d="M203.5,100.5c0-0.4,0.3-0.7,0.6-0.7l0,0c0.4,0,0.6,0.3,0.6,0.7s-0.3,0.7-0.6,0.7S203.5,100.9,203.5,100.5&#10;&#9;&#9;&#9;&#9;&#9;L203.5,100.5z" style="fill: rgb(255, 255, 255);"/>
				<path class="st10" d="M233.6,74.4c0-0.4,0.3-0.7,0.6-0.7l0,0c0.4,0,0.7,0.3,0.7,0.7s-0.3,0.7-0.7,0.7&#10;&#9;&#9;&#9;&#9;&#9;C233.9,75,233.6,74.7,233.6,74.4L233.6,74.4z" style="fill: rgb(255, 255, 255);"/>
			</g>
			<g class="st11" style="opacity: 0.6;">
				<path class="st10" d="M26.3,77.6c0-0.4,0.3-0.7,0.6-0.7c0.4,0,0.7,0.3,0.7,0.6s-0.3,0.7-0.6,0.7l0,0&#10;&#9;&#9;&#9;&#9;&#9;C26.6,78.2,26.3,77.9,26.3,77.6z" style="fill: rgb(255, 255, 255);"/>
				<path class="st10" d="M37.8,30.3c0-0.4,0.3-0.7,0.6-0.7c0.4,0,0.7,0.3,0.7,0.6c0,0.4-0.3,0.7-0.6,0.7l0,0&#10;&#9;&#9;&#9;&#9;&#9;C38.1,30.9,37.8,30.6,37.8,30.3z" style="fill: rgb(255, 255, 255);"/>
				<path class="st10" d="M86.9,79.3c0-0.4,0.3-0.7,0.7-0.7l0,0c0.4,0,0.7,0.3,0.7,0.7S88,80,87.6,80C87.3,79.9,87,79.6,86.9,79.3&#10;&#9;&#9;&#9;&#9;&#9;L86.9,79.3z" style="fill: rgb(255, 255, 255);"/>
				<path class="st10" d="M115,46.2c0-0.4,0.3-0.7,0.6-0.7c0.4,0,0.7,0.3,0.7,0.6c0,0.4-0.3,0.7-0.6,0.7l0,0&#10;&#9;&#9;&#9;&#9;&#9;C115.3,46.8,115,46.5,115,46.2z" style="fill: rgb(255, 255, 255);"/>
				<path class="st10" d="M68.8,50.4c0-0.4,0.3-0.7,0.6-0.7c0.4,0,0.7,0.3,0.7,0.6c0,0.4-0.3,0.7-0.6,0.7l0,0&#10;&#9;&#9;&#9;&#9;&#9;C69.1,51.1,68.8,50.8,68.8,50.4z" style="fill: rgb(255, 255, 255);"/>
				<path class="st10" d="M7.3,91.7C7.3,91.3,7.6,91,8,91c0.4,0,0.7,0.3,0.7,0.6c0,0.4-0.3,0.7-0.6,0.7l0,0&#10;&#9;&#9;&#9;&#9;&#9;C7.6,92.4,7.3,92.1,7.3,91.7L7.3,91.7z" style="fill: rgb(255, 255, 255);"/>
				<path class="st10" d="M100,25c0-0.4,0.4-0.6,0.7-0.6c0.3,0,0.5,0.3,0.6,0.6c0,0.4-0.4,0.6-0.7,0.6C100.3,25.5,100,25.3,100,25z" style="fill: rgb(255, 255, 255);"/>
				<path class="st10" d="M84.4,7.5c0-0.4,0.3-0.7,0.6-0.7s0.7,0.3,0.7,0.6c0,0.4-0.3,0.7-0.6,0.7l0,0C84.7,8.2,84.4,7.9,84.4,7.5z" style="fill: rgb(255, 255, 255);"/>
				<path class="st10" d="M281.8,25.4c0-0.4,0.3-0.7,0.6-0.7c0.4,0,0.7,0.3,0.7,0.6s-0.3,0.7-0.6,0.7l0,0&#10;&#9;&#9;&#9;&#9;&#9;C282.1,26.1,281.8,25.8,281.8,25.4L281.8,25.4z" style="fill: rgb(255, 255, 255);"/>
				<path class="st10" d="M120.1,78.2c0-0.4,0.3-0.7,0.7-0.7c0.4,0,0.6,0.3,0.6,0.7c0,0.4-0.3,0.6-0.7,0.6&#10;&#9;&#9;&#9;&#9;&#9;C120.4,78.9,120.1,78.6,120.1,78.2z" style="fill: rgb(255, 255, 255);"/>
				<path class="st10" d="M150.2,52c0-0.4,0.3-0.7,0.6-0.7c0.4,0,0.7,0.3,0.7,0.6s-0.3,0.7-0.6,0.7l0,0&#10;&#9;&#9;&#9;&#9;&#9;C150.5,52.7,150.2,52.4,150.2,52L150.2,52z" style="fill: rgb(255, 255, 255);"/>
				<path class="st10" d="M140.6,6.2c0-0.4,0.3-0.7,0.7-0.7s0.6,0.3,0.6,0.7c0,0.4-0.3,0.6-0.7,0.6C140.8,6.9,140.6,6.6,140.6,6.2z" style="fill: rgb(255, 255, 255);"/>
			</g>
			<g class="st11" style="opacity: 0.6;">
				<path class="st10" d="M176.2,71.3c0-0.2,0.1-0.3,0.2-0.3c0.2,0,0.3,0.1,0.3,0.2v0.1c0,0.2-0.2,0.3-0.3,0.2&#10;&#9;&#9;&#9;&#9;&#9;C176.3,71.5,176.2,71.4,176.2,71.3z" style="fill: rgb(255, 255, 255);"/>
				<path class="st10" d="M211.6,41.1c0-0.1,0.1-0.3,0.3-0.3l0,0c0.1,0,0.3,0.1,0.3,0.3s-0.1,0.3-0.3,0.3&#10;&#9;&#9;&#9;&#9;&#9;C211.8,41.3,211.6,41.2,211.6,41.1L211.6,41.1z" style="fill: rgb(255, 255, 255);"/>
				<path class="st10" d="M239.9,89.4c0-0.2,0.1-0.3,0.3-0.3s0.3,0.1,0.3,0.3s-0.1,0.3-0.3,0.3l0,0C240.1,89.7,240,89.6,239.9,89.4&#10;&#9;&#9;&#9;&#9;&#9;C240,89.4,239.9,89.4,239.9,89.4z" style="fill: rgb(255, 255, 255);"/>
				<path d="M 114.499997 79.900002 A 0.3 0.3 0 0 1 114.199997 80.200002 A 0.3 0.3 0 0 1 113.899997 79.900002 A 0.3 0.3 0 0 1 114.199997 79.600002 A 0.3 0.3 0 0 1 114.499997 79.900002 Z" class="st10" style="fill: rgb(255, 255, 255);"/>
				<path class="st10" d="M155.1,45c0-0.2,0.1-0.3,0.3-0.3s0.3,0.1,0.3,0.3s-0.1,0.3-0.3,0.3l0,0C155.2,45.3,155.1,45.2,155.1,45z" style="fill: rgb(255, 255, 255);"/>
				<path class="st10" d="M268.3,34.4c0-0.2,0.1-0.3,0.3-0.3s0.3,0.1,0.3,0.3s-0.1,0.3-0.3,0.3l0,0&#10;&#9;&#9;&#9;&#9;&#9;C268.4,34.7,268.3,34.6,268.3,34.4z" style="fill: rgb(255, 255, 255);"/>
				<path class="st10" d="M208.2,86.3c0-0.2,0.1-0.3,0.3-0.3s0.3,0.1,0.3,0.3s-0.1,0.3-0.3,0.3l0,0&#10;&#9;&#9;&#9;&#9;&#9;C208.3,86.6,208.2,86.5,208.2,86.3z" style="fill: rgb(255, 255, 255);"/>
				<path class="st10" d="M325.2,55.3c0-0.2,0.1-0.3,0.3-0.3c0.1,0,0.3,0.1,0.3,0.3s-0.1,0.3-0.3,0.3&#10;&#9;&#9;&#9;&#9;&#9;C325.3,55.6,325.2,55.4,325.2,55.3z" style="fill: rgb(255, 255, 255);"/>
				<path class="st10" d="M310.5,18c0-0.2,0.1-0.3,0.2-0.3c0.2,0,0.3,0.1,0.3,0.2V18c0,0.2-0.2,0.3-0.3,0.2&#10;&#9;&#9;&#9;&#9;&#9;C310.6,18.2,310.6,18.1,310.5,18z" style="fill: rgb(255, 255, 255);"/>
				<path class="st10" d="M38.3,31.7c0-0.1,0.1-0.3,0.3-0.3l0,0c0.1,0,0.3,0.1,0.3,0.3S38.8,32,38.6,32&#10;&#9;&#9;&#9;&#9;&#9;C38.4,31.9,38.3,31.8,38.3,31.7L38.3,31.7z" style="fill: rgb(255, 255, 255);"/>
				<path class="st10" d="M4.9,102.8c0-0.2,0.1-0.3,0.2-0.3s0.3,0.1,0.3,0.2c0,0.2-0.1,0.3-0.2,0.3l0,0C5,103,4.9,102.9,4.9,102.8&#10;&#9;&#9;&#9;&#9;&#9;L4.9,102.8z" style="fill: rgb(255, 255, 255);"/>
				<path class="st10" d="M150.9,81.7c0-0.2,0.1-0.3,0.3-0.3s0.3,0.1,0.3,0.3c0,0.1-0.1,0.3-0.2,0.3C151,82,150.9,81.9,150.9,81.7&#10;&#9;&#9;&#9;&#9;&#9;L150.9,81.7z" style="fill: rgb(255, 255, 255);"/>
				<path class="st10" d="M94.4,8.3c0-0.1,0.1-0.3,0.2-0.3l0,0C94.9,8,95,8.1,95,8.3c0,0.1-0.1,0.3-0.3,0.3l0,0&#10;&#9;&#9;&#9;&#9;&#9;C94.6,8.5,94.5,8.4,94.4,8.3z" style="fill: rgb(255, 255, 255);"/>
				<path class="st10" d="M127.5,39.7c0-0.2,0.2-0.3,0.3-0.2c0.1,0,0.2,0.1,0.2,0.2c0,0.2-0.1,0.3-0.2,0.3&#10;&#9;&#9;&#9;&#9;&#9;C127.6,40,127.5,39.9,127.5,39.7C127.5,39.7,127.5,39.7,127.5,39.7z" style="fill: rgb(255, 255, 255);"/>
				<path class="st10" d="M88.5,41.6c0-0.2,0.1-0.3,0.3-0.3c0.2,0,0.3,0.1,0.3,0.2c0,0.2-0.1,0.3-0.2,0.3h-0.1&#10;&#9;&#9;&#9;&#9;&#9;C88.6,41.9,88.5,41.8,88.5,41.6z" style="fill: rgb(255, 255, 255);"/>
				<path class="st10" d="M83.9,76.5c0-0.2,0.1-0.3,0.3-0.3s0.3,0.1,0.3,0.3c0,0.2-0.1,0.3-0.3,0.3l0,0C84,76.8,83.9,76.7,83.9,76.5&#10;&#9;&#9;&#9;&#9;&#9;z" style="fill: rgb(255, 255, 255);"/>
				<path class="st10" d="M188.2,20.3c0-0.2,0.1-0.3,0.3-0.3s0.3,0.1,0.3,0.3s-0.1,0.3-0.3,0.3l0,0&#10;&#9;&#9;&#9;&#9;&#9;C188.4,20.6,188.2,20.4,188.2,20.3z" style="fill: rgb(255, 255, 255);"/>
				<path class="st10" d="M250.7,14c0-0.1,0.1-0.3,0.3-0.3l0,0c0.2,0,0.3,0.1,0.3,0.3s-0.1,0.3-0.3,0.3S250.7,14.2,250.7,14z" style="fill: rgb(255, 255, 255);"/>
				<path class="st10" d="M165.1,83.6c0-0.2,0.1-0.3,0.3-0.3s0.3,0.1,0.3,0.3c0,0.1-0.1,0.3-0.3,0.3l0,0&#10;&#9;&#9;&#9;&#9;&#9;C165.2,83.9,165.1,83.8,165.1,83.6z" style="fill: rgb(255, 255, 255);"/>
			</g>
			<g class="st11" style="opacity: 0.6;">
				<path class="st10" d="M227.4,70.2c0-0.2,0.1-0.3,0.3-0.3s0.3,0.1,0.3,0.3s-0.1,0.3-0.3,0.3l0,0&#10;&#9;&#9;&#9;&#9;&#9;C227.5,70.5,227.4,70.4,227.4,70.2z" style="fill: rgb(255, 255, 255);"/>
				<path class="st10" d="M262.8,40.1c0-0.2,0.1-0.3,0.3-0.3s0.3,0.1,0.3,0.3l0,0c0,0.2-0.1,0.3-0.3,0.3&#10;&#9;&#9;&#9;&#9;&#9;C262.9,40.3,262.8,40.2,262.8,40.1z" style="fill: rgb(255, 255, 255);"/>
				<path class="st10" d="M291.2,88.4c0-0.1,0.1-0.3,0.3-0.3l0,0c0.1,0,0.3,0.1,0.3,0.3c0,0.1-0.1,0.3-0.3,0.3&#10;&#9;&#9;&#9;&#9;&#9;C291.3,88.7,291.2,88.5,291.2,88.4L291.2,88.4z" style="fill: rgb(255, 255, 255);"/>
				<path class="st10" d="M165.1,78.9c0-0.2,0.1-0.3,0.3-0.3s0.3,0.1,0.3,0.3c0,0.2-0.1,0.3-0.3,0.3C165.2,79.1,165.1,79,165.1,78.9&#10;&#9;&#9;&#9;&#9;&#9;z" style="fill: rgb(255, 255, 255);"/>
				<path class="st10" d="M206.3,44c0-0.2,0.2-0.3,0.3-0.2c0.1,0,0.2,0.1,0.2,0.2c0,0.2-0.1,0.3-0.2,0.3&#10;&#9;&#9;&#9;&#9;&#9;C206.4,44.3,206.3,44.2,206.3,44L206.3,44z" style="fill: rgb(255, 255, 255);"/>
				<path class="st10" d="M319.5,33.4c0-0.2,0.1-0.3,0.3-0.3s0.3,0.1,0.3,0.3s-0.1,0.3-0.3,0.3l0,0&#10;&#9;&#9;&#9;&#9;&#9;C319.6,33.7,319.5,33.6,319.5,33.4L319.5,33.4z" style="fill: rgb(255, 255, 255);"/>
				<path class="st10" d="M89.4,30.7c0-0.2,0.1-0.3,0.3-0.3c0.2,0,0.3,0.1,0.3,0.3c0,0.2-0.1,0.3-0.3,0.3l0,0&#10;&#9;&#9;&#9;&#9;&#9;C89.6,30.9,89.4,30.8,89.4,30.7z" style="fill: rgb(255, 255, 255);"/>
				<path class="st10" d="M56.1,101.7c0-0.2,0.1-0.3,0.3-0.3s0.3,0.1,0.3,0.3c0,0.2-0.1,0.3-0.3,0.3l0,0&#10;&#9;&#9;&#9;&#9;&#9;C56.2,102,56.1,101.9,56.1,101.7z" style="fill: rgb(255, 255, 255);"/>
				<path class="st10" d="M202.1,80.7c0-0.2,0.1-0.3,0.3-0.3s0.3,0.1,0.3,0.3s-0.1,0.3-0.3,0.3l0,0C202.2,81,202.1,80.9,202.1,80.7&#10;&#9;&#9;&#9;&#9;&#9;L202.1,80.7z" style="fill: rgb(255, 255, 255);"/>
				<path class="st10" d="M145.6,7.3c0-0.2,0.1-0.3,0.3-0.3s0.3,0.1,0.3,0.3s-0.1,0.3-0.3,0.3l0,0C145.7,7.6,145.6,7.4,145.6,7.3z" style="fill: rgb(255, 255, 255);"/>
				<path class="st10" d="M178.7,38.7c0-0.2,0.1-0.3,0.3-0.3s0.3,0.1,0.3,0.3S179.2,39,179,39l0,0C178.8,38.9,178.7,38.8,178.7,38.7&#10;&#9;&#9;&#9;&#9;&#9;z" style="fill: rgb(255, 255, 255);"/>
				<path class="st10" d="M139.6,40.6c0-0.2,0.1-0.3,0.3-0.3s0.3,0.1,0.3,0.3s-0.1,0.3-0.3,0.3l0,0&#10;&#9;&#9;&#9;&#9;&#9;C139.8,40.9,139.6,40.7,139.6,40.6z" style="fill: rgb(255, 255, 255);"/>
				<path class="st10" d="M135.1,75.5c0-0.2,0.1-0.3,0.3-0.3c0.1,0,0.3,0.1,0.3,0.3c0,0.1-0.1,0.3-0.3,0.3&#10;&#9;&#9;&#9;&#9;&#9;C135.2,75.8,135.1,75.6,135.1,75.5z" style="fill: rgb(255, 255, 255);"/>
				<path class="st10" d="M239.4,19.3c0-0.2,0.1-0.3,0.3-0.3s0.3,0.1,0.3,0.3c0,0.2-0.1,0.3-0.3,0.3l0,0&#10;&#9;&#9;&#9;&#9;&#9;C239.5,19.6,239.4,19.4,239.4,19.3L239.4,19.3z" style="fill: rgb(255, 255, 255);"/>
				<path class="st10" d="M301.9,13c0-0.2,0.1-0.3,0.3-0.3s0.3,0.1,0.3,0.3s-0.1,0.3-0.3,0.3l0,0C302,13.3,301.9,13.2,301.9,13z" style="fill: rgb(255, 255, 255);"/>
				<path class="st10" d="M52.8,42.7c0-0.2,0.1-0.3,0.3-0.3s0.3,0.1,0.3,0.3S53.2,43,53,43l0,0C52.9,43,52.8,42.9,52.8,42.7z" style="fill: rgb(255, 255, 255);"/>
				<path class="st10" d="M31.6,65.8c0-0.2,0.1-0.3,0.3-0.3s0.3,0.1,0.3,0.3l0,0c0,0.2-0.1,0.3-0.3,0.3C31.7,66,31.6,65.9,31.6,65.8&#10;&#9;&#9;&#9;&#9;&#9;z" style="fill: rgb(255, 255, 255);"/>
				<path class="st10" d="M216.3,82.6c0-0.2,0.1-0.3,0.3-0.3s0.3,0.1,0.3,0.3s-0.1,0.3-0.3,0.3l0,0&#10;&#9;&#9;&#9;&#9;&#9;C216.4,82.9,216.3,82.7,216.3,82.6L216.3,82.6z" style="fill: rgb(255, 255, 255);"/>
			</g>
		</g>
		<path d="M 16 20.299999 A 0.6 0.6 0 0 1 15.4 20.899999 A 0.6 0.6 0 0 1 14.8 20.299999 A 0.6 0.6 0 0 1 15.4 19.699999 A 0.6 0.6 0 0 1 16 20.299999 Z" class="st10" style="fill: rgb(255, 255, 255);"/>
		<path d="M 79.6 95.800003 A 0.6 0.6 0 0 1 79 96.400003 A 0.6 0.6 0 0 1 78.4 95.800003 A 0.6 0.6 0 0 1 79 95.200003 A 0.6 0.6 0 0 1 79.6 95.800003 Z" class="st10" style="fill: rgb(255, 255, 255);"/>
		<path d="M 79.6 4.4 A 0.6 0.6 0 0 1 79 5 A 0.6 0.6 0 0 1 78.4 4.4 A 0.6 0.6 0 0 1 79 3.8 A 0.6 0.6 0 0 1 79.6 4.4 Z" class="st10" style="fill: rgb(255, 255, 255);"/>
		<path d="M 25.5 4.4 A 0.6 0.6 0 0 1 24.9 5 A 0.6 0.6 0 0 1 24.3 4.4 A 0.6 0.6 0 0 1 24.9 3.8 A 0.6 0.6 0 0 1 25.5 4.4 Z" class="st10" style="fill: rgb(255, 255, 255);"/>
		<path d="M 110.299997 69.300003 A 0.6 0.6 0 0 1 109.699997 69.900003 A 0.6 0.6 0 0 1 109.099997 69.300003 A 0.6 0.6 0 0 1 109.699997 68.700003 A 0.6 0.6 0 0 1 110.299997 69.300003 Z" class="st10" style="fill: rgb(255, 255, 255);"/>
		<path id="star" class="st10" d="M105.5,73.5c0-0.3-0.3-0.6-0.6-0.6l-0.1-2.1l-0.1,2.1c-0.3,0-0.6,0.3-0.6,0.6l-2.1,0.1l2.1,0.1&#10;&#9;&#9;&#9;c0,0.3,0.3,0.6,0.6,0.6l0.1,2.1l0.1-2.1c0.3,0,0.6-0.3,0.6-0.6l2.1-0.1L105.5,73.5z" style="fill: rgb(255, 255, 255);"/>
		<path id="star-2" class="st10" d="M45.5,26c0-0.3-0.3-0.6-0.6-0.6l-0.1-2.1l-0.1,2.1c-0.3,0-0.6,0.3-0.6,0.6L42,26.1l2.1,0.1&#10;&#9;&#9;&#9;c0,0.3,0.3,0.6,0.6,0.6l0.1,2.1l0.1-2.1c0.3,0,0.6-0.3,0.6-0.6l2.1-0.1L45.5,26z" style="fill: rgb(255, 255, 255);"/>
		<path d="M 206.6 26.6 A 0.6 0.6 0 0 1 206 27.2 A 0.6 0.6 0 0 1 205.4 26.6 A 0.6 0.6 0 0 1 206 26 A 0.6 0.6 0 0 1 206.6 26.6 Z" class="st10" style="fill: rgb(255, 255, 255);"/>
		<path d="M 274.200006 57.700001 A 0.6 0.6 0 0 1 273.600006 58.300001 A 0.6 0.6 0 0 1 273.000006 57.700001 A 0.6 0.6 0 0 1 273.600006 57.100001 A 0.6 0.6 0 0 1 274.200006 57.700001 Z" class="st10" style="fill: rgb(255, 255, 255);"/>
		<path d="M 312.800012 20.299999 A 0.6 0.6 0 0 1 312.200012 20.899999 A 0.6 0.6 0 0 1 311.600012 20.299999 A 0.6 0.6 0 0 1 312.200012 19.699999 A 0.6 0.6 0 0 1 312.800012 20.299999 Z" class="st10" style="fill: rgb(255, 255, 255);"/>
		<path d="M 294.800012 95.800003 A 0.6 0.6 0 0 1 294.200012 96.400003 A 0.6 0.6 0 0 1 293.600012 95.800003 A 0.6 0.6 0 0 1 294.200012 95.200003 A 0.6 0.6 0 0 1 294.800012 95.800003 Z" class="st10" style="fill: rgb(255, 255, 255);"/>
		<path d="M 249.200006 46.599998 A 0.6 0.6 0 0 1 248.600006 47.199998 A 0.6 0.6 0 0 1 248.000006 46.599998 A 0.6 0.6 0 0 1 248.600006 45.999998 A 0.6 0.6 0 0 1 249.200006 46.599998 Z" class="st10" style="fill: rgb(255, 255, 255);"/>
		<path d="M 249.200006 4.4 A 0.6 0.6 0 0 1 248.600006 5 A 0.6 0.6 0 0 1 248.000006 4.4 A 0.6 0.6 0 0 1 248.600006 3.8 A 0.6 0.6 0 0 1 249.200006 4.4 Z" class="st10" style="fill: rgb(255, 255, 255);"/>
		<path d="M 213.200006 95.800003 A 0.6 0.6 0 0 1 212.600006 96.400003 A 0.6 0.6 0 0 1 212.000006 95.800003 A 0.6 0.6 0 0 1 212.600006 95.200003 A 0.6 0.6 0 0 1 213.200006 95.800003 Z" class="st10" style="fill: rgb(255, 255, 255);"/>
		<path d="M 218.499994 69.300003 A 0.6 0.6 0 0 1 217.899994 69.900003 A 0.6 0.6 0 0 1 217.299994 69.300003 A 0.6 0.6 0 0 1 217.899994 68.700003 A 0.6 0.6 0 0 1 218.499994 69.300003 Z" class="st10" style="fill: rgb(255, 255, 255);"/>
		<path id="star-3" class="st10" d="M222.1,73.5c0-0.3,0.3-0.6,0.6-0.6l0.1-2.1l0.1,2.1c0.3,0,0.6,0.3,0.6,0.6l2.1,0.1l-2.1,0.1&#10;&#9;&#9;&#9;c0,0.3-0.3,0.6-0.6,0.6l-0.1,2.1l-0.1-2.1c-0.3,0-0.6-0.3-0.6-0.6l-2.1-0.1L222.1,73.5z" style="fill: rgb(255, 255, 255);"/>
		<path id="star-4" class="st10" d="M164.5,16c0-0.3,0.3-0.6,0.6-0.6l0.1-2.1l0.1,2.1c0.3,0,0.6,0.3,0.6,0.6l2.1,0.1l-2.1,0.1&#10;&#9;&#9;&#9;c0,0.3-0.3,0.6-0.6,0.6l-0.1,2.1l-0.1-2c-0.3,0-0.6-0.3-0.6-0.6l-2.1-0.1L164.5,16z" style="fill: rgb(255, 255, 255);"/>
		<path id="star-5" class="st10" d="M282.1,26c0-0.3,0.3-0.6,0.6-0.6l0.1-2.1l0.1,2.1c0.3,0,0.6,0.3,0.6,0.6l2.1,0.1l-2.1,0.1&#10;&#9;&#9;&#9;c0,0.3-0.3,0.6-0.6,0.6l-0.1,2.1l-0.1-2.1c-0.3,0-0.6-0.3-0.6-0.6l-2.1-0.1L282.1,26z" style="fill: rgb(255, 255, 255);"/>
		<path class="st12" d="M0.2,91.3c0,0,16.1,7,16.9,7.1l3.6-1.2l18.5,7.3l2.5-1.6c0,0,30,12.9,30.7,13.2s8.4,0.1,9.3,0.1&#10;&#9;&#9;&#9;s44.8,17.2,44.8,17.2H0.2V91.3z" style="fill: rgb(0, 22, 29);"/>
		
			<linearGradient id="SVGID_10_" gradientUnits="userSpaceOnUse" x1="91.73" y1="-21.1" x2="91.73" y2="18.23" gradientTransform="matrix(1 0 0 1 0.17 66.0001)">
			<stop offset="0.3" style="stop-color:#FDFDF3"/>
			<stop offset="0.39" style="stop-color:#F5FAF0"/>
			<stop offset="0.53" style="stop-color:#DEF0E8"/>
			<stop offset="0.72" style="stop-color:#B8E1DC"/>
			<stop offset="0.92" style="stop-color:#85CCCA"/>
			<stop offset="1" style="stop-color:#70C4C3"/>
		</linearGradient>
		<path class="st13" d="M110.1,64.2c0,10-8.1,18.2-18.2,18.2s-18.2-8.1-18.2-18.2c0-10,8.1-18.2,18.2-18.2l0,0&#10;&#9;&#9;&#9;C101.9,46,110.1,54.2,110.1,64.2L110.1,64.2z" style="fill: url('#SVGID_10_');"/>
		<path class="st14" d="M42.7,235.1c0.4-0.4,0.8-0.8,1.2-1.2c0,0-6.6-4.8-5.9-6.1s5.2,4.1,12.3-0.2s14.3-11.6,21.7-20&#10;&#9;&#9;&#9;c0,0-6-6.1-4.3-7.3c0,0,4.6,4.2,8.2,2.8c-0.3-0.3,16.5-13.1,20.3-17.8c0,0-5.9-3.9-5.7-5.5c0,0,6.6,3.8,9.1,2.5&#10;&#9;&#9;&#9;c1.9-1.1,8-8.6,11.2-14.6l0,0v-0.1c0,0,0-0.1,0.1-0.1l0,0l-0.1-0.1h-0.1l0,0c-5.9-3.4-16.3-4.9-18.8-4.1c-3.2,0.9-5.1,8.6-5.1,8.6&#10;&#9;&#9;&#9;c-1.5-0.8-0.1-8,0-8c-6.9-1.2-30.5,8.6-30.3,9c-3.5,3.3-1.4,9.2-1.4,9.2c-2,1.3-5.4-6.5-5.4-6.5C36.9,181,26,189.5,20.4,198.2&#10;&#9;&#9;&#9;s0.7,12.5-0.7,13.5s-6.9-5-6.9-5c-8.4,11.4-11.8,21-12.7,28.5L42.7,235.1z" style="fill: rgb(12, 90, 103);"/>
		
			<linearGradient id="SVGID_11_" gradientUnits="userSpaceOnUse" x1="108.69" y1="160.9999" x2="139.05" y2="160.9999" gradientTransform="matrix(1 0 0 1 0.17 66.0001)">
			<stop offset="0" style="stop-color:#03100C"/>
			<stop offset="1" style="stop-color:#083345"/>
		</linearGradient>
		<path class="st15" d="M124.7,232.6c3-3.3,6.6-6,10.7-7.8c-4.9,0.2-9.7,1.5-14,4c2.5-4.4,6.2-7.8,10.7-10&#10;&#9;&#9;&#9;c-12.5,0-23.2,16.4-23.2,16.4h19.4c3-2.3,7.6-3.8,11-4.8C134.3,230,129.3,230.8,124.7,232.6z" style="fill: url('#SVGID_11_');"/>
		<path class="st16" d="M20.5,228.7c-1.6,2.1-3.1,4.3-4.6,6.5h1.4c1.6-2.2,3.3-4.3,5-6.4l-0.7,0.9c1.7,1,3.5,1.9,5.4,2.6&#10;&#9;&#9;&#9;c1.9,0.7,3.8,1.3,5.8,1.8c-1.8-0.8-3.5-1.7-5.1-2.8c-1.6-1-3.1-2.2-4.4-3.6c0.5-0.6,1-1.2,1.5-1.7c6.6-7.8,13.8-15,21.5-21.6&#10;&#9;&#9;&#9;c0.9,0.8,1.8,1.5,2.8,2.2c1.1,0.7,2.2,1.3,3.4,1.8c2.4,1,4.8,1.8,7.3,2.3c-2.3-0.8-4.5-2-6.6-3.4c-1-0.7-1.9-1.4-2.8-2.2&#10;&#9;&#9;&#9;c-0.8-0.7-1.5-1.5-2.1-2.4c7.5-6.2,15.4-11.9,23.7-16.9c0.9-0.5,1.8-1.1,2.6-1.6c1.2,1.5,2.8,2.7,4.6,3.4c1.8,0.8,3.7,1.3,5.6,1.6&#10;&#9;&#9;&#9;c-1.7-0.6-3.3-1.5-4.8-2.5c-1.3-0.9-2.4-2.2-3.1-3.7l-1.5,0.8c7.9-4.6,16.1-8.6,24.6-12.1c-8.2,2.7-16.1,6.1-23.8,10&#10;&#9;&#9;&#9;c-0.8-1.3-1.2-2.8-1.2-4.3c0-1.9,0.2-3.7,0.8-5.5c-1,1.8-1.7,3.7-2.1,5.7c-0.4,1.8-0.3,3.6,0.3,5.3c-0.9,0.5-1.9,1-2.8,1.5&#10;&#9;&#9;&#9;c-8.5,4.9-16.6,10.5-24.2,16.8c-0.6-0.7-1.2-1.4-1.7-2.2c-0.6-1-1.2-2.1-1.6-3.2c-0.9-2.4-1.5-4.9-1.6-7.4c-0.3,2.7-0.2,5.4,0.4,8&#10;&#9;&#9;&#9;c0.3,1.3,0.6,2.5,1.1,3.7c0.4,1,0.9,1.9,1.5,2.7c-7.8,6.7-15,14.1-21.5,22.2c-0.5,0.6-1,1.2-1.5,1.8c-1.5-1-2.8-2.1-4.1-3.3&#10;&#9;&#9;&#9;c-1.4-1.4-2.7-2.9-3.7-4.5c0.7,1.9,1.7,3.7,2.8,5.4C18,225.9,19.2,227.3,20.5,228.7z" style="fill: rgb(8, 51, 69);"/>
		<path class="st16" d="M131.6,211.2l-0.1-0.1c0,0,0,0,0-0.1l0,0c-3.9-4.8-12.3-9.6-14.7-9.7c-3.1-0.2-7.2,5.6-7.2,5.6&#10;&#9;&#9;&#9;c-1-1.2,2.6-6.9,2.6-6.9c-5.5-3.3-28.9-2.7-28.9-2.3c-4.1,1.6-4.2,7.4-4.2,7.4c-2.1,0.5-2.5-7.4-2.4-7.4&#10;&#9;&#9;&#9;c-12.7,0.4-24.9,4.1-32.5,9.7s-3.5,10.9-5,11.3s-4.2-6.5-4.2-6.5c-12.6,8-18.6,16.1-21.5,22.8H80c1.6-0.8,3.3-1.6,5-2.5&#10;&#9;&#9;&#9;c0,0-3.1-7.2-1.2-7.6c0,0,2.5,5.1,6.1,5.1c-0.2-0.3,18.4-5.8,23.3-8.5c0,0-3.8-5.3-3.1-6.6c0,0,4.4,5.4,7,5.1&#10;&#9;&#9;&#9;c2-0.3,9.7-4.7,14.4-8.8l0,0l0,0H131.6L131.6,211.2L131.6,211.2z" style="fill: rgb(8, 51, 69);"/>
		<path class="st12" d="M33.9,233.7c-0.8,0.5-1.5,1-2.3,1.5h2.3l1.5-0.9l-0.9,0.5c0.1,0.1,0.2,0.2,0.3,0.4h2.6&#10;&#9;&#9;&#9;c-0.3-0.5-0.5-1-0.8-1.6l1.8-1c8.2-4.5,16.8-8.3,25.6-11.4c0.5,1,1,1.9,1.7,2.8c0.7,0.9,1.5,1.8,2.3,2.6c1.7,1.7,3.5,3.2,5.5,4.4&#10;&#9;&#9;&#9;c-1.7-1.5-3.2-3.2-4.6-5.1c-0.6-0.9-1.2-1.8-1.7-2.8c-0.4-0.9-0.8-1.8-1-2.8c8.4-2.9,17.1-5.1,25.9-6.7c0.9-0.2,1.8-0.3,2.8-0.5&#10;&#9;&#9;&#9;c0.5,1.7,1.5,3.2,2.8,4.4s2.7,2.3,4.2,3.2c-1.3-1.1-2.3-2.4-3.2-3.8c-0.8-1.2-1.3-2.7-1.4-4.2l-1.6,0.2c8.3-1.3,16.7-2.1,25.1-2.3&#10;&#9;&#9;&#9;c-7.9-0.4-15.8-0.1-23.7,0.8c-0.2-1.4-0.1-2.8,0.4-4.1c0.6-1.6,1.4-3.1,2.5-4.4c-1.4,1.2-2.7,2.6-3.7,4.2c-0.9,1.4-1.4,3-1.5,4.7&#10;&#9;&#9;&#9;c-1,0.1-1.9,0.2-2.9,0.4c-8.9,1.3-17.7,3.5-26.2,6.4c-0.3-0.8-0.6-1.6-0.7-2.4c-0.2-1.1-0.3-2.2-0.3-3.3c0-2.3,0.3-4.6,1.1-6.9&#10;&#9;&#9;&#9;c-1.1,2.2-1.9,4.6-2.3,7c-0.2,1.2-0.3,2.3-0.2,3.5c0,0.9,0.1,1.9,0.3,2.8c-8.9,3.2-17.5,7.1-25.7,11.9l-1.8,1.1&#10;&#9;&#9;&#9;c-0.9-1.3-1.7-2.7-2.4-4.2c-0.7-1.6-1.3-3.3-1.7-5.1c0,1.9,0.2,3.7,0.6,5.6C32.7,230.5,33.2,232.1,33.9,233.7z" style="fill: rgb(0, 22, 29);"/>
		<path class="st14" d="M75.7,226.2c3.5,2.4,6.5,5.4,8.9,8.9h4.2l0,0c-4.3-13.7-14.3-22.3-28.8-24.2&#10;&#9;&#9;&#9;C66.7,214.3,72.2,219.6,75.7,226.2z" style="fill: rgb(12, 90, 103);"/>
		<path class="st14" d="M108.9,235.2c4.7-6.7,11-12,18.4-15.4c-15.3,1-24.2,7.4-29.6,15.4H108.9z" style="fill: rgb(12, 90, 103);"/>
		<path class="st12" d="M54.9,219.8c5.9,2.7,11.1,6.6,15.4,11.5c-5.8-2.5-12.8-3.6-20.9-3.3c5,1.5,9.7,4,13.8,7.1h21.4&#10;&#9;&#9;&#9;C79.2,227.2,70.2,220.8,54.9,219.8z" style="fill: rgb(0, 22, 29);"/>
		<path class="st12" d="M122.7,210.9c-12.5,1.7-21.5,6.3-26.6,16.8l0,0c-0.7-9.4-2.3-15.3-4.7-20.3c-3.3,6.3-5.2,13.3-5.7,20.4&#10;&#9;&#9;&#9;c1.2,2.4,2.2,4.9,3.1,7.4l0,0l0,0h8.9c2.5-3.8,5.8-7,9.6-9.4C110.7,219.3,116.1,214.1,122.7,210.9z" style="fill: rgb(0, 22, 29);"/>
		
			<linearGradient id="SVGID_12_" gradientUnits="userSpaceOnUse" x1="164.18" y1="169.18" x2="164.18" y2="152.82" gradientTransform="matrix(1 0 0 1 0.17 66.0001)">
			<stop offset="0" style="stop-color:#03100C"/>
			<stop offset="1" style="stop-color:#083345"/>
		</linearGradient>
		<path class="st17" d="M176.9,232.9c2.6-2.9,5.7-5.2,9.2-6.8c-4.2,0.1-8.4,1.4-12,3.5c2.1-3.8,5.3-6.9,9.2-8.8&#10;&#9;&#9;&#9;c-7.5,1-12.9,4.9-15.9,11.1l0,0c-0.4-5.6-1.4-10.2-2.9-13.1c-1.5,2.9-2.4,7.5-2.9,13c-3.1-6.1-8.5-10-15.9-10.9&#10;&#9;&#9;&#9;c4,1.9,7.3,5.1,9.4,9l0,0c-3.7-2.4-8-3.7-12.5-3.8c3.5,1.6,6.7,3.9,9.2,6.8c-4-1.6-8.3-2.2-12.5-1.9c3,0.9,5.8,2.3,8.3,4.2H175&#10;&#9;&#9;&#9;c0.2-0.3,0.5-0.6,0.7-0.9c-0.2,0.3-0.5,0.6-0.7,0.9h6.1c2.5-1.9,5.3-3.3,8.3-4.2C185.2,230.7,180.9,231.3,176.9,232.9z" style="fill: url('#SVGID_12_');"/>
		<path class="st12" d="M13.4,231.4c-0.6,0.3-1.2,0.7-1.7,1c1.3-1.1,2.7-2.3,4.2-3.6c9-7.8,18.6-14.8,28.7-21.1&#10;&#9;&#9;&#9;c9-5.6,16-8.8,15.9-8.8c-5.9,1.8-11.6,3.9-17.2,6.5c-11.1,5.1-21.5,11.6-30.8,19.5c-1.5,1.2-2.8,2.4-4.1,3.6&#10;&#9;&#9;&#9;c1.3-1.5,2.8-3.1,4.4-4.9c6.9-7.6,14.5-14.5,22.8-20.5c4.2-3.1,8.7-5.8,13.3-8.3c-5,1.8-9.8,4-14.3,6.7&#10;&#9;&#9;&#9;c-9.1,5.3-17.4,11.8-24.6,19.5c-1,1.1-2,2.2-2.8,3.2c1.3-2.1,2.6-4.4,4.1-6.7c3.4-5.5,7.2-11.1,11.2-16.5c3.8-5,7.9-9.9,12.2-14.4&#10;&#9;&#9;&#9;c4.6-4.8,9.5-9.3,14.6-13.4c-5.9,3.2-11.4,7-16.6,11.3c-5,4.1-9.7,8.6-14,13.5c-4.6,5.1-8.7,10.6-12.4,16.4&#10;&#9;&#9;&#9;c-0.5,0.8-1,1.6-1.5,2.4c1.2-3.2,2.6-6.9,4.1-11.1c4.2-11.7,9.1-25,13.8-35.1s8.7-17.1,8.7-17.1c-4.1,5-7.8,10.3-11.2,15.8&#10;&#9;&#9;&#9;c-6.7,10.9-12.3,22.5-16.7,34.6c-1.3,3.8-2.4,7.2-3.3,10.3v21.2h16.5c9.3-5.3,20.3-10.6,28.9-15c8.9-4.5,15-8.2,15-8.2&#10;&#9;&#9;&#9;s-6.6,2.6-16,6S23.2,225.7,13.4,231.4z" style="fill: rgb(0, 22, 29);"/>
		
			<radialGradient id="SVGID_13_" cx="106.298" cy="-191.3875" r="45.79" gradientTransform="matrix(0.998 -6.383562e-02 6.383562e-02 0.998 -1.4788 261.941)" gradientUnits="userSpaceOnUse">
			<stop offset="0" style="stop-color:#FFFFFF;stop-opacity:0.96"/>
			<stop offset="0.13" style="stop-color:#FFFFFF;stop-opacity:0.95"/>
			<stop offset="0.25" style="stop-color:#FFFFFF;stop-opacity:0.9"/>
			<stop offset="0.37" style="stop-color:#FEFFFF;stop-opacity:0.83"/>
			<stop offset="0.49" style="stop-color:#FDFEFF;stop-opacity:0.72"/>
			<stop offset="0.61" style="stop-color:#FCFEFF;stop-opacity:0.58"/>
			<stop offset="0.72" style="stop-color:#FAFDFF;stop-opacity:0.42"/>
			<stop offset="0.84" style="stop-color:#F9FDFF;stop-opacity:0.22"/>
			<stop offset="0.95" style="stop-color:#F7FCFF;stop-opacity:0"/>
		</radialGradient>
		<path class="st18" d="M134.4,82.4c-10.1,23.2-37.1,33.8-60.3,23.7s-33.8-37-23.7-60.2s37.1-33.8,60.3-23.7l0,0&#10;&#9;&#9;&#9;C133.8,32.3,144.5,59.3,134.4,82.4z" style="opacity: 0.3; fill: url('#SVGID_13_');"/>
		
			<linearGradient id="SVGID_14_" gradientUnits="userSpaceOnUse" x1="149.45" y1="86.2399" x2="149.45" y2="46.3399" gradientTransform="matrix(1 0 0 1 0 66.0001)">
			<stop offset="0" style="stop-color:#536A7E"/>
			<stop offset="1" style="stop-color:#28576D"/>
		</linearGradient>
		<path d="M 108.199997 112.300003 H 190.699997 V 152.200005 H 108.199997 V 112.300003 Z" class="st19" style="fill: url('#SVGID_14_');"/>
		<path d="M 109.599998 112.099998 H 109.999998 V 152.299999 H 109.599998 V 112.099998 Z" class="st20" style="opacity: 0.1;"/>
		<path d="M 112 112.099998 H 112.4 V 152.299999 H 112 V 112.099998 Z" class="st20" style="opacity: 0.1;"/>
		<path d="M 114.5 112.099998 H 114.9 V 152.299999 H 114.5 V 112.099998 Z" class="st20" style="opacity: 0.1;"/>
		<path d="M 117 112.099998 H 117.4 V 152.299999 H 117 V 112.099998 Z" class="st20" style="opacity: 0.1;"/>
		<path d="M 119.400002 112.099998 H 119.800002 V 152.299999 H 119.400002 V 112.099998 Z" class="st20" style="opacity: 0.1;"/>
		<path d="M 121.900002 112.099998 H 122.300002 V 152.299999 H 121.900002 V 112.099998 Z" class="st20" style="opacity: 0.1;"/>
		<path d="M 124.400002 112.099998 H 124.800002 V 152.299999 H 124.400002 V 112.099998 Z" class="st20" style="opacity: 0.1;"/>
		<path d="M 126.800003 112.099998 H 127.200003 V 152.299999 H 126.800003 V 112.099998 Z" class="st20" style="opacity: 0.1;"/>
		<path d="M 129.300003 112.099998 H 129.700003 V 152.299999 H 129.300003 V 112.099998 Z" class="st20" style="opacity: 0.1;"/>
		<path d="M 131.800003 112.099998 H 132.200003 V 152.299999 H 131.800003 V 112.099998 Z" class="st20" style="opacity: 0.1;"/>
		<path d="M 134.199997 112.099998 H 134.599997 V 152.299999 H 134.199997 V 112.099998 Z" class="st20" style="opacity: 0.1;"/>
		<path d="M 136.699997 112.099998 H 137.099997 V 152.299999 H 136.699997 V 112.099998 Z" class="st20" style="opacity: 0.1;"/>
		<path d="M 139.199997 112.099998 H 139.599997 V 152.299999 H 139.199997 V 112.099998 Z" class="st20" style="opacity: 0.1;"/>
		<path d="M 141.600006 112.099998 H 142.000006 V 152.299999 H 141.600006 V 112.099998 Z" class="st20" style="opacity: 0.1;"/>
		<path d="M 144.100006 112.099998 H 144.500006 V 152.299999 H 144.100006 V 112.099998 Z" class="st20" style="opacity: 0.1;"/>
		<path d="M 146.600006 112.099998 H 147.000006 V 152.299999 H 146.600006 V 112.099998 Z" class="st20" style="opacity: 0.1;"/>
		<path d="M 149 112.099998 H 149.4 V 152.299999 H 149 V 112.099998 Z" class="st20" style="opacity: 0.1;"/>
		<path d="M 151.5 112.099998 H 151.9 V 152.299999 H 151.5 V 112.099998 Z" class="st20" style="opacity: 0.1;"/>
		<path d="M 154 112.099998 H 154.4 V 152.299999 H 154 V 112.099998 Z" class="st20" style="opacity: 0.1;"/>
		<path d="M 156.5 112.099998 H 156.9 V 152.299999 H 156.5 V 112.099998 Z" class="st20" style="opacity: 0.1;"/>
		<path d="M 158.899994 112.099998 H 159.299994 V 152.299999 H 158.899994 V 112.099998 Z" class="st20" style="opacity: 0.1;"/>
		<path d="M 161.399994 112.099998 H 161.799994 V 152.299999 H 161.399994 V 112.099998 Z" class="st20" style="opacity: 0.1;"/>
		<path d="M 163.899994 112.099998 H 164.299994 V 152.299999 H 163.899994 V 112.099998 Z" class="st20" style="opacity: 0.1;"/>
		<path d="M 166.300003 112.099998 H 166.700003 V 152.299999 H 166.300003 V 112.099998 Z" class="st20" style="opacity: 0.1;"/>
		<path d="M 168.800003 112.099998 H 169.200003 V 152.299999 H 168.800003 V 112.099998 Z" class="st20" style="opacity: 0.1;"/>
		<path d="M 171.199997 112.099998 H 171.599997 V 152.299999 H 171.199997 V 112.099998 Z" class="st20" style="opacity: 0.1;"/>
		<path d="M 173.699997 112.099998 H 174.099997 V 152.299999 H 173.699997 V 112.099998 Z" class="st20" style="opacity: 0.1;"/>
		<path d="M 176.199997 112.099998 H 176.599997 V 152.299999 H 176.199997 V 112.099998 Z" class="st20" style="opacity: 0.1;"/>
		<path d="M 178.600006 112.099998 H 179.000006 V 152.299999 H 178.600006 V 112.099998 Z" class="st20" style="opacity: 0.1;"/>
		<path d="M 181.100006 112.099998 H 181.500006 V 152.299999 H 181.100006 V 112.099998 Z" class="st20" style="opacity: 0.1;"/>
		<path d="M 183.600006 112.099998 H 184.000006 V 152.299999 H 183.600006 V 112.099998 Z" class="st20" style="opacity: 0.1;"/>
		<path d="M 186 112.099998 H 186.4 V 152.299999 H 186 V 112.099998 Z" class="st20" style="opacity: 0.1;"/>
		<path d="M 188.5 112.099998 H 188.9 V 152.299999 H 188.5 V 112.099998 Z" class="st20" style="opacity: 0.1;"/>
		
			<linearGradient id="SVGID_15_" gradientUnits="userSpaceOnUse" x1="117.3" y1="93.57" x2="117.3" y2="86.24" gradientTransform="matrix(1 0 0 1 0 66.0001)">
			<stop offset="0" style="stop-color:#083345"/>
			<stop offset="1" style="stop-color:#03100C"/>
		</linearGradient>
		<path d="M 115.800003 152.199997 H 118.800003 V 159.499997 H 115.800003 V 152.199997 Z" class="st21" style="fill: url('#SVGID_15_');"/>
		
			<linearGradient id="SVGID_16_" gradientUnits="userSpaceOnUse" x1="139.3" y1="93.57" x2="139.3" y2="86.24" gradientTransform="matrix(1 0 0 1 0 66.0001)">
			<stop offset="0" style="stop-color:#083345"/>
			<stop offset="1" style="stop-color:#03100C"/>
		</linearGradient>
		<path d="M 137.800003 152.199997 H 140.800003 V 159.499997 H 137.800003 V 152.199997 Z" class="st22" style="fill: url('#SVGID_16_');"/>
		
			<linearGradient id="SVGID_17_" gradientUnits="userSpaceOnUse" x1="101.83" y1="60.0499" x2="195.59" y2="60.0499" gradientTransform="matrix(1 0 0 1 0.17 66.0001)">
			<stop offset="0" style="stop-color:#083345"/>
			<stop offset="1" style="stop-color:#03100C"/>
		</linearGradient>
		<path class="st23" d="M182.6,126.5v-14.1h-3.4l-9.4,6.4l-9-6.4l-0.4,0.6l8.8,6.2l-8.9,6.1v-12.9h-2.4v14.1h-17.6v-14.1H137&#10;&#9;&#9;&#9;l-9.4,6.4l-9-6.4l-0.2,0.3v-0.4h-3v14.1H102v13.4h13.2l0,0h3l0,0h8l0,0h3l0,0h8l0,0h3l0,0h17.7h-0.6h3l0,0h8l0,0h3l0,0h8.4l0,0h3&#10;&#9;&#9;&#9;l0,0H196v-13.4L182.6,126.5z M111.4,137.4h-7.5v-8.7h7.5V137.4z M115.2,137.4h-1.9v-8.7h1.9V137.4z M118.2,113l8.6,6.1l-8.7,5.9&#10;&#9;&#9;&#9;L118.2,113z M118.2,125.9l9.2-6.3l9.7,6.9h-19L118.2,125.9z M122.1,137.4h-3.9v-8.7h3.8L122.1,137.4z M131.5,137.4H124v-8.7h7.5&#10;&#9;&#9;&#9;V137.4z M137.2,137.4h-3.9v-8.7h3.8L137.2,137.4z M137.2,125.6l-9.1-6.4l9.1-6.1V125.6z M142.8,137.4h-2.6v-8.7h2.6V137.4z&#10;&#9;&#9;&#9; M152.2,137.4h-7.5v-8.7h7.5V137.4z M157.9,137.4h-3.8v-8.7h3.8V137.4z M160.3,126.1l9.5-6.5l9.7,6.9h-19.2V126.1z M164.1,137.4&#10;&#9;&#9;&#9;h-3.8v-8.7h3.8V137.4z M173.4,137.4h-7.5v-8.7h7.5V137.4z M179.6,137.4h-4.3v-8.7h4.3V137.4z M179.6,125.6l-9.2-6.5l9.2-6.3V125.6&#10;&#9;&#9;&#9;z M184.6,137.4h-2v-8.7h2V137.4z M194,137.4h-7.5v-8.7h7.5V137.4z" style="fill: url('#SVGID_17_');"/>
		
			<linearGradient id="SVGID_18_" gradientUnits="userSpaceOnUse" x1="149.1181" y1="49.04" x2="149.1181" y2="14.16" gradientTransform="matrix(1 0 0 1 0.17 66.0001)">
			<stop offset="0" style="stop-color:#03100C"/>
			<stop offset="1" style="stop-color:#083345"/>
		</linearGradient>
		<path class="st24" d="M194.8,107.1l-41.2-25.7c-1.3-0.7-2.7-1.1-4.2-1.2l0,0c-1.5,0-2.9,0.4-4.2,1.2L104,107.1&#10;&#9;&#9;&#9;c-2,1.3-1.5,2.6-1.5,5.3l0,0l1,2.6l1-2.6l0,0l1,2.6l1-2.6l0,0l1,2.6l1-2.6l0,0l1,2.6l1-2.6l0,0l1,2.6l1-2.6l0,0l1,2.6l1-2.6l0,0&#10;&#9;&#9;&#9;l1,2.6l1-2.6l0,0l1,2.6l1-2.6l0,0l1,2.6l1-2.6l0,0l1,2.6l1-2.6l0,0l1,2.6l1-2.6l0,0l1,2.6l1-2.6l0,0l1,2.6l1-2.6l0,0l1,2.6l1-2.6&#10;&#9;&#9;&#9;l0,0l1,2.6l1-2.6l0,0l1,2.6l1-2.6l0,0l1,2.6l1-2.6l0,0l1,2.6l1-2.6l0,0l1,2.6l1-2.6l0,0l1,2.6l1-2.6l0,0l1,2.6l1-2.6l0,0l1,2.6&#10;&#9;&#9;&#9;l1-2.6l0,0l1,2.6l1-2.6l0,0l1,2.6l1-2.6l0,0l1,2.6l1-2.6l0,0l1,2.6l1-2.6l0,0l1,2.6l1-2.6l0,0l1,2.6l1-2.6l0,0l1,2.6l1-2.6l0,0&#10;&#9;&#9;&#9;l1,2.6l1-2.6l0,0l1,2.6l1-2.6l0,0l1,2.6l1-2.6l0,0l1,2.6l1-2.6l0,0l1,2.6l1-2.6l0,0l1,2.6l1-2.6l0,0l1,2.6l1-2.6l0,0l1,2.6l1-2.6&#10;&#9;&#9;&#9;l0,0l1,2.6l1-2.6l0,0l1,2.6l1-2.6l0,0l1,2.6l1-2.6l0,0l1,2.6l1-2.6l0,0l1,2.6l1-2.6l0,0l1,2.6l1-2.6l0,0l1,2.6l1-2.6l0,0l1,2.6&#10;&#9;&#9;&#9;l1-2.6l0,0l1,2.6l1-2.6l0,0C196.3,109.7,196.9,108.3,194.8,107.1z" style="fill: url('#SVGID_18_');"/>
		<path d="M 108.199997 139.899994 H 190.699997 V 141.899994 H 108.199997 V 139.899994 Z" class="st20" style="opacity: 0.1;"/>
		<path d="M 108.199997 150.199997 H 190.699997 V 152.199997 H 108.199997 V 150.199997 Z" class="st20" style="opacity: 0.1;"/>
		<path d="M 108.199997 128.800003 H 190.699997 V 130.800003 H 108.199997 V 128.800003 Z" class="st20" style="opacity: 0.1;"/>
		<path d="M 157.699997 105.800003 H 277.199997 V 163.600002 H 157.699997 V 105.800003 Z" class="st14" style="fill: rgb(12, 90, 103);"/>
		<path d="M 159.899994 105.199997 H 160.499994 V 163.599998 H 159.899994 V 105.199997 Z" class="st20" style="opacity: 0.1;"/>
		<path d="M 163.399994 105.199997 H 163.999994 V 163.599998 H 163.399994 V 105.199997 Z" class="st20" style="opacity: 0.1;"/>
		<path d="M 167 105.199997 H 167.6 V 163.599998 H 167 V 105.199997 Z" class="st20" style="opacity: 0.1;"/>
		<path d="M 170.5 105.199997 H 171.1 V 163.599998 H 170.5 V 105.199997 Z" class="st20" style="opacity: 0.1;"/>
		<path d="M 174.100006 105.199997 H 174.700006 V 163.599998 H 174.100006 V 105.199997 Z" class="st20" style="opacity: 0.1;"/>
		<path d="M 177.600006 105.199997 H 178.200006 V 163.599998 H 177.600006 V 105.199997 Z" class="st20" style="opacity: 0.1;"/>
		<path d="M 181.199997 105.199997 H 181.799997 V 163.599998 H 181.199997 V 105.199997 Z" class="st20" style="opacity: 0.1;"/>
		<path d="M 184.800003 105.199997 H 185.400003 V 163.599998 H 184.800003 V 105.199997 Z" class="st20" style="opacity: 0.1;"/>
		<path d="M 188.300003 105.199997 H 188.900003 V 163.599998 H 188.300003 V 105.199997 Z" class="st20" style="opacity: 0.1;"/>
		<path d="M 191.899994 105.199997 H 192.499994 V 163.599998 H 191.899994 V 105.199997 Z" class="st20" style="opacity: 0.1;"/>
		<path d="M 195.399994 105.199997 H 195.999994 V 163.599998 H 195.399994 V 105.199997 Z" class="st20" style="opacity: 0.1;"/>
		<path d="M 199 105.199997 H 199.6 V 163.599998 H 199 V 105.199997 Z" class="st20" style="opacity: 0.1;"/>
		<path d="M 202.600006 105.199997 H 203.200006 V 163.599998 H 202.600006 V 105.199997 Z" class="st20" style="opacity: 0.1;"/>
		<path d="M 206.199997 105.199997 H 206.799997 V 163.599998 H 206.199997 V 105.199997 Z" class="st20" style="opacity: 0.1;"/>
		<path d="M 209.699997 105.199997 H 210.299997 V 163.599998 H 209.699997 V 105.199997 Z" class="st20" style="opacity: 0.1;"/>
		<path d="M 213.300003 105.199997 H 213.900003 V 163.599998 H 213.300003 V 105.199997 Z" class="st20" style="opacity: 0.1;"/>
		<path d="M 216.800003 105.199997 H 217.400003 V 163.599998 H 216.800003 V 105.199997 Z" class="st20" style="opacity: 0.1;"/>
		<path d="M 220.5 105.199997 H 221.1 V 163.599998 H 220.5 V 105.199997 Z" class="st20" style="opacity: 0.1;"/>
		<path d="M 224 105.199997 H 224.6 V 163.599998 H 224 V 105.199997 Z" class="st20" style="opacity: 0.1;"/>
		<path d="M 227.600006 105.199997 H 228.200006 V 163.599998 H 227.600006 V 105.199997 Z" class="st20" style="opacity: 0.1;"/>
		<path d="M 231.100006 105.199997 H 231.700006 V 163.599998 H 231.100006 V 105.199997 Z" class="st20" style="opacity: 0.1;"/>
		<path d="M 234.699997 105.199997 H 235.299997 V 163.599998 H 234.699997 V 105.199997 Z" class="st20" style="opacity: 0.1;"/>
		<path d="M 238.300003 105.199997 H 238.900003 V 163.599998 H 238.300003 V 105.199997 Z" class="st20" style="opacity: 0.1;"/>
		<path d="M 241.800003 105.199997 H 242.400003 V 163.599998 H 241.800003 V 105.199997 Z" class="st20" style="opacity: 0.1;"/>
		<path d="M 245.399994 105.199997 H 245.999994 V 163.599998 H 245.399994 V 105.199997 Z" class="st20" style="opacity: 0.1;"/>
		<path d="M 248.899994 105.199997 H 249.499994 V 163.599998 H 248.899994 V 105.199997 Z" class="st20" style="opacity: 0.1;"/>
		<path d="M 252.5 105.199997 H 253.1 V 163.599998 H 252.5 V 105.199997 Z" class="st20" style="opacity: 0.1;"/>
		<path d="M 256.100006 105.199997 H 256.700006 V 163.599998 H 256.100006 V 105.199997 Z" class="st20" style="opacity: 0.1;"/>
		<path d="M 259.600006 105.199997 H 260.200006 V 163.599998 H 259.600006 V 105.199997 Z" class="st20" style="opacity: 0.1;"/>
		<path d="M 263.200012 105.199997 H 263.800012 V 163.599998 H 263.200012 V 105.199997 Z" class="st20" style="opacity: 0.1;"/>
		<path d="M 266.799988 105.199997 H 267.399988 V 163.599998 H 266.799988 V 105.199997 Z" class="st20" style="opacity: 0.1;"/>
		<path d="M 270.299988 105.199997 H 270.899988 V 163.599998 H 270.299988 V 105.199997 Z" class="st20" style="opacity: 0.1;"/>
		<path d="M 273.899994 105.199997 H 274.499994 V 163.599998 H 273.899994 V 105.199997 Z" class="st20" style="opacity: 0.1;"/>
		
			<linearGradient id="SVGID_19_" gradientUnits="userSpaceOnUse" x1="170.75" y1="108.25" x2="170.75" y2="97.63" gradientTransform="matrix(1 0 0 1 0 66.0001)">
			<stop offset="0" style="stop-color:#083345"/>
			<stop offset="1" style="stop-color:#03100C"/>
		</linearGradient>
		<path d="M 168.600006 163.600006 H 172.900006 V 174.200006 H 168.600006 V 163.600006 Z" class="st25" style="fill: url('#SVGID_19_');"/>
		
			<linearGradient id="SVGID_20_" gradientUnits="userSpaceOnUse" x1="202.55" y1="108.25" x2="202.55" y2="97.63" gradientTransform="matrix(1 0 0 1 0 66.0001)">
			<stop offset="0" style="stop-color:#083345"/>
			<stop offset="1" style="stop-color:#03100C"/>
		</linearGradient>
		<path d="M 200.399994 163.600006 H 204.699994 V 174.200006 H 200.399994 V 163.600006 Z" class="st26" style="fill: url('#SVGID_20_');"/>
		<path class="st12" d="M266.2,126.3v-20.5h-4.9l-13.6,9.3l-13.1-9.2l-0.6,0.8l12.7,9l-12.9,8.8v-18.7h-4.3v20.5h-24.8v-20.5H200&#10;&#9;&#9;&#9;l-13.6,9.3l-13-9.2l-0.4,0.5v-0.6h-4.3v20.5h-19.1v19.4h19.1l0,0h4.3l0,0h11.5l0,0h4.3l0,0h11.6l0,0h4.3l0,0h24.8l0,0h4.3l0,0&#10;&#9;&#9;&#9;h11.5l0,0h4.3l0,0h12.2l0,0h4.3l0,0h19.2v-19.4L266.2,126.3L266.2,126.3z M163.2,142.3h-10.9v-12.6h10.9V142.3z M168.7,142.3h-2.8&#10;&#9;&#9;&#9;v-12.6h2.8V142.3z M173,106.9l12.5,8.8l-12.5,8.5V106.9z M173,125.5l13.4-9.1l14,9.9h-27.5L173,125.5z M178.6,142.3H173v-12.6h5.6&#10;&#9;&#9;&#9;V142.3z M192.2,142.3h-10.9v-12.6h10.9V142.3z M200.5,142.3h-5.6v-12.6h5.6V142.3z M200.5,125.1l-13.2-9.3l13.2-9V125.1z&#10;&#9;&#9;&#9; M208.6,142.3h-3.8v-12.6h3.8V142.3z M222.2,142.3h-10.9v-12.6h10.9V142.3z M229.6,142.3h-4.7v-12.6h4.7V142.3z M233.9,125.8&#10;&#9;&#9;&#9;l13.8-9.4l14,9.9h-27.9L233.9,125.8z M239.4,142.3h-5.5v-12.6h5.5V142.3z M252.9,142.3H242v-12.6h10.9V142.3z M261.9,142.3h-6.2&#10;&#9;&#9;&#9;v-12.6h6.2V142.3z M261.9,125.1l-13.3-9.4l13.3-9.1V125.1z M269.1,142.3h-2.9v-12.6h2.9V142.3z M282.7,142.3h-10.9v-12.6h10.9&#10;&#9;&#9;&#9;V142.3z" style="fill: rgb(0, 22, 29);"/>
		<path class="st12" d="M283.1,98.2L223.5,61c-1.8-1.1-3.9-1.7-6-1.7l0,0c-2.1,0-4.2,0.6-6,1.7l-59.6,37.2c-3,1.9-2.1,3.8-2.1,7.7&#10;&#9;&#9;&#9;l0,0l1.5,3.8l1.4-3.8l0,0l1.5,3.8l1.4-3.8l0,0l1.5,3.8l1.4-3.8l0,0l1.5,3.8l1.4-3.8l0,0l1.5,3.8l1.4-3.8l0,0l1.5,3.8l1.4-3.8l0,0&#10;&#9;&#9;&#9;l1.5,3.8l1.4-3.8l0,0l1.5,3.8l1.4-3.8l0,0l1.5,3.8l1.5-3.8l0,0l1.5,3.8l1.4-3.8l0,0l1.5,3.8l1.4-3.8l0,0l1.5,3.8l1.4-3.8l0,0&#10;&#9;&#9;&#9;l1.5,3.8l1.4-3.8l0,0l1.5,3.8l1.5-3.8l0,0l1.5,3.8l1.4-3.8l0,0l1.5,3.8l1.5-3.8l0,0l1.5,3.8l1.4-3.8l0,0l1.5,3.8l1.4-3.8l0,0&#10;&#9;&#9;&#9;l1.5,3.8l1.4-3.8l0,0l1.5,3.8l1.4-3.8l0,0l1.5,3.8l1.4-3.8l0,0l1.5,3.8l1.4-3.8l0,0l1.5,3.8l1.4-3.8l0,0l1.4,3.8l1.5-3.8l0,0&#10;&#9;&#9;&#9;l1.4,3.8l1.5-3.8l0,0l1.4,3.8l1.5-3.8l0,0l1.4,3.8l1.9-3.8l0,0l1.4,3.8l1.6-3.8l0,0l1.4,3.8l1.5-3.8l0,0l1.4,3.8l1.5-3.8l0,0&#10;&#9;&#9;&#9;l1.4,3.8l1.5-3.8l0,0l1.4,3.8l1.5-3.8l0,0l1.4,3.8l1.5-3.8l0,0l1.4,3.8l1.5-3.8l0,0l1.4,3.8l1.5-3.8l0,0l1.4,3.8l1.5-3.8l0,0&#10;&#9;&#9;&#9;l1.4,3.8l1.5-3.8l0,0l1.4,3.8l1.5-3.8l0,0l1.4,3.8l1.5-3.8l0,0l1.4,3.8l1.5-3.8l0,0l1.4,3.8l1.5-3.8l0,0l1.4,3.8l1.5-3.8l0,0&#10;&#9;&#9;&#9;l1.4,3.8l1.5-3.8l0,0l1.4,3.8l1.5-3.8l0,0l1.4,3.8l1.5-3.8l0,0l1.4,3.8l1.5-3.8l0,0C285.2,102,286,100.1,283.1,98.2z" style="fill: rgb(0, 22, 29);"/>
		<path d="M 157.899994 145.699997 H 277.199997 V 148.599997 H 157.899994 V 145.699997 Z" class="st20" style="opacity: 0.1;"/>
		<path d="M 157.899994 160.699997 H 277.199997 V 163.599997 H 157.899994 V 160.699997 Z" class="st20" style="opacity: 0.1;"/>
		<path d="M 157.899994 129.699997 H 277.199997 V 132.599997 H 157.899994 V 129.699997 Z" class="st20" style="opacity: 0.1;"/>
		
			<linearGradient id="SVGID_21_" gradientUnits="userSpaceOnUse" x1="248.95" y1="132.32" x2="248.95" y2="116.36" gradientTransform="matrix(1 0 0 1 0 66.0001)">
			<stop offset="0" style="stop-color:#083345"/>
			<stop offset="1" style="stop-color:#03100C"/>
		</linearGradient>
		<path d="M 245.699997 182.399994 H 252.199997 V 198.399994 H 245.699997 V 182.399994 Z" class="st27" style="fill: url('#SVGID_21_');"/>
		
			<linearGradient id="SVGID_22_" gradientUnits="userSpaceOnUse" x1="296.65" y1="132.32" x2="296.65" y2="116.36" gradientTransform="matrix(1 0 0 1 0 66.0001)">
			<stop offset="0" style="stop-color:#083345"/>
			<stop offset="1" style="stop-color:#03100C"/>
		</linearGradient>
		<path d="M 293.399994 182.399994 H 299.899994 V 198.399994 H 293.399994 V 182.399994 Z" class="st28" style="fill: url('#SVGID_22_');"/>
		
			<linearGradient id="SVGID_23_" gradientUnits="userSpaceOnUse" x1="282.7934" y1="116.4868" x2="282.7934" y2="29.4999" gradientTransform="matrix(1 0 0 1 0 66.0001)">
			<stop offset="0" style="stop-color:#536A7E"/>
			<stop offset="1" style="stop-color:#28576D"/>
		</linearGradient>
		<path d="M 229.199997 95.5 H 336.399994 V 182.400002 H 229.199997 V 95.5 Z" class="st29" style="fill: url('#SVGID_23_');"/>
		<path d="M 235.100006 95.5 H 236.100006 V 182.300003 H 235.100006 V 95.5 Z" class="st20" style="opacity: 0.1;"/>
		<path d="M 241.199997 95.5 H 242.199997 V 182.300003 H 241.199997 V 95.5 Z" class="st20" style="opacity: 0.1;"/>
		<path d="M 247.399994 95.5 H 248.399994 V 182.300003 H 247.399994 V 95.5 Z" class="st20" style="opacity: 0.1;"/>
		<path d="M 253.600006 95.5 H 254.600006 V 182.300003 H 253.600006 V 95.5 Z" class="st20" style="opacity: 0.1;"/>
		<path d="M 259.700012 95.5 H 260.700012 V 182.300003 H 259.700012 V 95.5 Z" class="st20" style="opacity: 0.1;"/>
		<path d="M 265.899994 95.5 H 266.899994 V 182.300003 H 265.899994 V 95.5 Z" class="st20" style="opacity: 0.1;"/>
		<path d="M 272 95.5 H 273 V 182.300003 H 272 V 95.5 Z" class="st20" style="opacity: 0.1;"/>
		<path d="M 278.200012 95.5 H 279.200012 V 182.300003 H 278.200012 V 95.5 Z" class="st20" style="opacity: 0.1;"/>
		<path d="M 284.399994 95.5 H 285.399994 V 182.300003 H 284.399994 V 95.5 Z" class="st20" style="opacity: 0.1;"/>
		<path d="M 290.5 95.5 H 291.5 V 182.300003 H 290.5 V 95.5 Z" class="st20" style="opacity: 0.1;"/>
		<path d="M 296.700012 95.5 H 297.700012 V 182.300003 H 296.700012 V 95.5 Z" class="st20" style="opacity: 0.1;"/>
		<path d="M 302.899994 95.5 H 303.899994 V 182.300003 H 302.899994 V 95.5 Z" class="st20" style="opacity: 0.1;"/>
		<path d="M 309.100006 95.5 H 310.100006 V 182.300003 H 309.100006 V 95.5 Z" class="st20" style="opacity: 0.1;"/>
		<path d="M 315.200012 95.5 H 316.200012 V 182.300003 H 315.200012 V 95.5 Z" class="st20" style="opacity: 0.1;"/>
		<path d="M 321.399994 95.5 H 322.399994 V 182.300003 H 321.399994 V 95.5 Z" class="st20" style="opacity: 0.1;"/>
		<path d="M 327.5 95.5 H 328.5 V 182.300003 H 327.5 V 95.5 Z" class="st20" style="opacity: 0.1;"/>
		<path d="M 333.700012 95.5 H 334.700012 V 182.300003 H 333.700012 V 95.5 Z" class="st20" style="opacity: 0.1;"/>
		<path d="M 229.199997 153.5 H 336 V 158 H 229.199997 V 153.5 Z" class="st20" style="opacity: 0.1;"/>
		<path d="M 229.199997 177.899994 H 336 V 182.399994 H 229.199997 V 177.899994 Z" class="st20" style="opacity: 0.1;"/>
		<path d="M 229.199997 130.600006 H 336 V 135.100006 H 229.199997 V 130.600006 Z" class="st20" style="opacity: 0.1;"/>
		<path class="st16" d="M238.1,217.2L238.1,217.2L238.1,217.2L238.1,217.2c3-3.7,9.3-7.2,11.1-7.3c2.3-0.2,5.4,4.2,5.4,4.2&#10;&#9;&#9;&#9;c0.7-0.9-1.9-5.1-2-5.1c4.1-2.4,21.7-2,21.7-1.7c3,1.2,3.1,5.5,3.1,5.5c1.6,0.3,1.8-5.5,1.8-5.5c9.5,0.3,18.6,3.1,24.3,7.2&#10;&#9;&#9;&#9;s2.6,8.2,3.8,8.5s3.2-4.9,3.2-4.9c9.4,6,14,12.1,16.1,17.1h-49.8c-1.2-0.6-2.5-1.2-3.7-1.9c0,0,2.3-5.4,0.9-5.7&#10;&#9;&#9;&#9;c0,0-1.9,3.8-4.5,3.8c0.1-0.2-13.8-4.3-17.4-6.4c0,0,2.8-4,2.3-4.9c0,0-3.3,4.1-5.2,3.8c-1.5-0.2-7.2-3.5-10.8-6.6l0,0l0,0&#10;&#9;&#9;&#9;C238.2,217.4,238.2,217.3,238.1,217.2L238.1,217.2L238.1,217.2z" style="fill: rgb(8, 51, 69);"/>
		<path class="st12" d="M311.2,234c0.6,0.4,1.1,0.7,1.7,1.1h-1.7l-1.1-0.6l0.6,0.4l-0.2,0.3h-1.9c0.2-0.4,0.4-0.8,0.6-1.2&#10;&#9;&#9;&#9;c-0.5-0.3-0.9-0.5-1.4-0.8c-6.1-3.3-12.5-6.2-19.1-8.5c-0.3,0.7-0.8,1.4-1.2,2.1c-0.5,0.7-1.1,1.4-1.7,2c-1.2,1.3-2.6,2.4-4.1,3.3&#10;&#9;&#9;&#9;c1.3-1.1,2.4-2.4,3.4-3.8c0.5-0.7,0.9-1.4,1.2-2.1c0.3-0.7,0.6-1.3,0.8-2.1c-6.3-2.1-12.8-3.8-19.4-5l-2.1-0.4&#10;&#9;&#9;&#9;c-0.4,1.3-1.1,2.4-2.1,3.3c-1,0.9-2,1.7-3.2,2.4c0.9-0.8,1.8-1.8,2.4-2.8c0.6-0.9,1-2,1-3.1l1.2,0.2c-6.2-1-12.5-1.5-18.8-1.7&#10;&#9;&#9;&#9;c5.9-0.3,11.8-0.1,17.7,0.6c0.2-1,0.1-2-0.3-3c-0.4-1.2-1.1-2.3-1.9-3.3c1.1,0.9,2,1.9,2.8,3.1c0.7,1,1.1,2.2,1.1,3.4&#10;&#9;&#9;&#9;c0.7,0.1,1.4,0.2,2.2,0.3c6.7,1,13.2,2.6,19.6,4.8c0.2-0.6,0.4-1.2,0.5-1.8c0.2-0.8,0.2-1.6,0.2-2.4c0-1.7-0.3-3.5-0.8-5.1&#10;&#9;&#9;&#9;c0.8,1.6,1.4,3.4,1.7,5.2c0.1,0.9,0.2,1.8,0.2,2.6c0,0.7-0.1,1.4-0.3,2.1c6.7,2.4,13.1,5.3,19.2,8.9l1.4,0.8c0.7-1,1.3-2,1.8-3.1&#10;&#9;&#9;&#9;c0.6-1.2,1-2.5,1.3-3.8C312.7,228.9,312.2,231.5,311.2,234z" style="fill: rgb(0, 22, 29);"/>
		<path class="st12" d="M323.2,231.4c0.6,0.3,1.2,0.7,1.7,1c-1.3-1.1-2.7-2.3-4.2-3.6c-9-7.8-18.6-14.8-28.7-21.1&#10;&#9;&#9;&#9;c-9-5.6-16-8.8-15.9-8.8c5.9,1.8,11.6,3.9,17.2,6.5c11.1,5.1,21.5,11.6,30.8,19.4c1.5,1.2,2.8,2.4,4.1,3.6&#10;&#9;&#9;&#9;c-1.3-1.5-2.8-3.1-4.4-4.9c-6.9-7.6-14.5-14.4-22.8-20.5c-4.2-3.1-8.7-5.8-13.3-8.3c5,1.8,9.8,4,14.3,6.7&#10;&#9;&#9;&#9;c9.1,5.3,17.4,11.9,24.5,19.6c1,1.1,2,2.2,2.9,3.2c-1.2-2.1-2.6-4.4-4.1-6.7c-3.4-5.4-7.2-11.1-11.2-16.4&#10;&#9;&#9;&#9;c-3.8-5-7.9-9.9-12.2-14.4c-4.6-4.8-9.4-9.3-14.6-13.4c5.9,3.2,11.4,7,16.6,11.3c5,4.1,9.7,8.6,14,13.5&#10;&#9;&#9;&#9;c4.6,5.1,8.7,10.6,12.4,16.4c0.5,0.8,1,1.6,1.5,2.4c-1.2-3.2-2.6-6.9-4-11.1c-4.1-11.7-9.1-25-13.8-35.1s-8.7-17.1-8.7-17.1&#10;&#9;&#9;&#9;c4.1,5,7.8,10.3,11.2,15.8c6.7,10.9,12.3,22.5,16.7,34.6c1.4,3.8,2.4,7.2,3.3,10.3v21.2H320c-9.3-5.3-20.3-10.6-28.9-15&#10;&#9;&#9;&#9;c-8.9-4.5-15-8.2-15-8.2s6.6,2.6,16,6S313.3,225.7,323.2,231.4z" style="fill: rgb(0, 22, 29);"/>
		
			<linearGradient id="SVGID_24_" gradientUnits="userSpaceOnUse" x1="278.7734" y1="87.5999" x2="278.7734" y2="28.8999" gradientTransform="matrix(1 0 0 1 0.17 66.0001)">
			<stop offset="0" style="stop-color:#083345"/>
			<stop offset="1" style="stop-color:#03100C"/>
		</linearGradient>
		<path class="st30" d="M336.4,153.6V95l0,0v30.8l-35.7-0.1V94.9h-6.8l-19.6,14.8L255.6,95l-0.5-0.1h-6.2v30.8h-27.4v27.9h27.4l0,0&#10;&#9;&#9;&#9;h6.2l0,0h16.6l0,0h6.2l0,0h16.7l0,0h6.2l0,0L336.4,153.6L336.4,153.6L336.4,153.6z M241,148.6h-15.6v-18.1H241V148.6z&#10;&#9;&#9;&#9; M248.9,148.6h-4v-18.1h4V148.6z M255.1,96.4l17.9,14.1l-17.9,12.2V96.4z M255.1,124.5l19.2-13.1l20.1,14.2h-39.3L255.1,124.5z&#10;&#9;&#9;&#9; M263.1,148.6h-8v-18.1h8V148.6z M282.6,148.6H267v-18.1h15.6V148.6z M294.5,148.6h-8v-18.1h8V148.6z M294.5,123.9l-18.9-13.4&#10;&#9;&#9;&#9;l18.9-14.3V123.9z M306.2,148.6h-5.5v-18.1h5.5V148.6z M325.7,148.6h-15.6v-18.1h15.6V148.6z M329.6,148.6v-18.1h6.7v18.1H329.6z" style="fill: url('#SVGID_24_');"/>
		<path class="st16" d="M336.3,33.2l-8.2-5.1c-2.8-1.6-5.9-2.5-9.1-2.5l0,0c-3.2,0.1-6.3,0.9-9.1,2.5l-89.6,56&#10;&#9;&#9;&#9;c-4.5,2.8-3.2,5.7-3.2,11.6l0,0l2.3,5.8l2.1-5.7l0,0l2.3,5.7l2.1-5.7l0,0l2.3,5.7l2.1-5.7l0,0l2.3,5.7l2.1-5.7l0,0l2.3,5.7&#10;&#9;&#9;&#9;l2.1-5.7l0,0l2.3,5.7l2.1-5.7l0,0l2.3,5.7l2.1-5.7l0,0l2.3,5.7l2.1-5.7l0,0l2.2,5.7l2.2-5.7l0,0l2.2,5.7l2.1-5.7l0,0l2.2,5.7&#10;&#9;&#9;&#9;l2.1-5.7l0,0l2.2,5.7l2.1-5.7l0,0l2.2,5.7l2.1-5.7l0,0l2.2,5.7l2.1-5.7l0,0l2.2,5.7l2.1-5.7l0,0l2.2,5.7l2.1-5.7l0,0l2.2,5.7&#10;&#9;&#9;&#9;l2.1-5.7l0,0l2.2,5.7l2.1-5.7l0,0l2.2,5.7l2.1-5.7h0.1l2.2,5.7l2.1-5.7h0.1l2.2,5.7l2.1-5.7h0.6l2.2,5.7l2.1-5.7h0.1l2.2,5.7&#10;&#9;&#9;&#9;l2.1-5.7l0,0l2.1,5.7l2.2-5.7h0.1l2.1,5.7l2.2-5.7h0.1l2.1,5.7l2.2-5.7l0,0l3.3,5.7l2.2-4.7L336.3,33.2z" style="fill: rgb(8, 51, 69);"/>
		<g id="_Csoport_2">
			<path class="st10" d="M176.1,69.2c-0.8-0.1-1.6-0.3-2.4-0.6c-0.8-0.1-1.6,0.1-2.3,0.5c-0.1-0.2-0.3-0.3-0.5-0.3s-0.4,0.1-0.5,0.2&#10;&#9;&#9;&#9;&#9;c-0.7-0.4-1.6-0.6-2.4-0.5c-0.8,0.3-1.6,0.4-2.4,0.6h-0.2h0.2c0.4,0.1,0.8,0.1,1.1,0.1c0.4,0,0.9-0.1,1.3-0.1&#10;&#9;&#9;&#9;&#9;c0.4,0,0.8,0.1,1.2,0.3c0.4,0.2,0.8,0.5,1.1,0.7c0.4,0.2,0.8,0.2,1.2,0c0.3-0.2,0.7-0.4,1.1-0.6c0.4-0.2,0.8-0.3,1.2-0.3&#10;&#9;&#9;&#9;&#9;s0.9,0,1.3,0.1C175.3,69.2,175.7,69.2,176.1,69.2l0.2,0.1L176.1,69.2z" style="fill: rgb(255, 255, 255);"/>
			<path class="st10" d="M30.7,33.1c-0.8-0.1-1.6-0.3-2.4-0.6c-0.8-0.1-1.6,0.1-2.3,0.5c-0.1-0.2-0.3-0.3-0.5-0.3S25.1,32.8,25,33&#10;&#9;&#9;&#9;&#9;c-0.7-0.4-1.6-0.6-2.4-0.5c-0.8,0.3-1.6,0.4-2.4,0.6H20h0.2c0.4,0.1,0.8,0.1,1.1,0.1c0.4,0,0.9-0.1,1.3-0.1s0.8,0.1,1.2,0.3&#10;&#9;&#9;&#9;&#9;c0.4,0.2,0.8,0.5,1.1,0.7c0.4,0.2,0.8,0.2,1.2,0c0.3-0.2,0.7-0.4,1.1-0.6c0.4-0.2,0.8-0.3,1.2-0.3c0.5,0,0.9,0.1,1.3,0.1&#10;&#9;&#9;&#9;&#9;C29.9,33.2,30.3,33.2,30.7,33.1l0.2,0.1L30.7,33.1z" style="fill: rgb(255, 255, 255);"/>
		</g>
	</g>
</svg>