<?xml version="1.0" encoding="utf-8"?>
<svg id="master-artboard" viewBox="0 0 336.52 235.47" xmlns="http://www.w3.org/2000/svg" width="336.5199890136719px" height="235.47000122070312px" xmlns:xlink="http://www.w3.org/1999/xlink"><defs><linearGradient id="Névtelen_színátmenet_81" x1="168.39" y1="129.6" x2="168.39" gradientUnits="userSpaceOnUse"><stop offset="0" stop-color="#fcf6c3"/><stop offset="0.03" stop-color="#fbf4b7"/><stop offset="0.08" stop-color="#f9f2a4"/><stop offset="0.14" stop-color="#f8f099"/><stop offset="0.19" stop-color="#f8f095"/><stop offset="1" stop-color="#ee7661"/></linearGradient><linearGradient id="linear-gradient" x1="-253.16" y1="23.44" x2="907.48" y2="23.44" gradientTransform="translate(335.92 121.92) rotate(180)" gradientUnits="userSpaceOnUse"><stop offset="0.1" stop-color="#fff" stop-opacity="0"/><stop offset="0.2" stop-color="#fff" stop-opacity="0.17"/><stop offset="0.39" stop-color="#fff" stop-opacity="0.46"/><stop offset="0.55" stop-color="#fff" stop-opacity="0.69"/><stop offset="0.69" stop-color="#fff" stop-opacity="0.86"/><stop offset="0.8" stop-color="#fff" stop-opacity="0.96"/><stop offset="0.87" stop-color="#fff"/></linearGradient><linearGradient id="linear-gradient-2" x1="-253.16" y1="98.49" x2="907.48" y2="98.49" xlink:href="#linear-gradient"/><linearGradient id="linear-gradient-3" x1="-252.5" y1="23.26" x2="908.14" y2="23.26" gradientTransform="translate(-0.51 51.42)" xlink:href="#linear-gradient"/><linearGradient id="linear-gradient-4" x1="-595.64" y1="74.62" x2="815.23" y2="74.62" xlink:href="#linear-gradient"/><linearGradient id="linear-gradient-5" x1="-531.17" y1="48" x2="745.71" y2="48" gradientTransform="translate(-7.11 38.27)" xlink:href="#linear-gradient"/><linearGradient id="linear-gradient-6" x1="-531.17" y1="-3.33" x2="745.71" y2="-3.33" gradientTransform="translate(-7.11 38.27)" xlink:href="#linear-gradient"/><linearGradient id="Névtelen_színátmenet_80" x1="168.42" y1="177.46" x2="168.42" y2="129.83" gradientUnits="userSpaceOnUse"><stop offset="0" stop-color="#ee7661"/><stop offset="0.15" stop-color="#ef7d64"/><stop offset="0.35" stop-color="#f08f6c"/><stop offset="0.6" stop-color="#f3ae79"/><stop offset="0.86" stop-color="#f6d78b"/><stop offset="1" stop-color="#f8f095"/></linearGradient><linearGradient id="Névtelen_színátmenet_680" x1="0.43" y1="182.02" x2="336.42" y2="182.02" gradientUnits="userSpaceOnUse"><stop offset="0" stop-color="#8b6267"/><stop offset="1" stop-color="#b87a65"/></linearGradient><radialGradient id="Névtelen_színátmenet_26" cx="245.43" cy="-28.18" r="22.94" gradientTransform="matrix(-1, 0.06, -0.06, -1.01, 343.59, 48.6)" gradientUnits="userSpaceOnUse"><stop offset="0.74" stop-color="#fff" stop-opacity="0.8"/><stop offset="0.95" stop-color="#fff" stop-opacity="0"/></radialGradient><radialGradient id="Névtelen_színátmenet_26-2" cx="174.09" cy="1.2" r="36.09" xlink:href="#Névtelen_színátmenet_26"/><radialGradient id="Névtelen_színátmenet_26-3" cx="121.8" cy="-76.01" r="22.94" xlink:href="#Névtelen_színátmenet_26"/><radialGradient id="Névtelen_színátmenet_26-4" cx="93.59" cy="-116.78" r="32.4" xlink:href="#Névtelen_színátmenet_26"/><radialGradient id="Névtelen_színátmenet_26-5" cx="150.64" cy="-70.89" r="22.94" xlink:href="#Névtelen_színátmenet_26"/><radialGradient id="Névtelen_színátmenet_26-6" cx="279.76" cy="-55.07" r="22.94" xlink:href="#Névtelen_színátmenet_26"/><radialGradient id="Névtelen_színátmenet_346" cx="311.41" cy="-91.48" r="29.7" gradientTransform="matrix(-1, 0.06, -0.06, -1.01, 343.59, 48.6)" gradientUnits="userSpaceOnUse"><stop offset="0.6" stop-color="#fff" stop-opacity="0.3"/><stop offset="0.95" stop-color="#fff" stop-opacity="0"/></radialGradient><radialGradient id="Névtelen_színátmenet_26-7" cx="297.83" cy="-12.1" r="31.9" xlink:href="#Névtelen_színátmenet_26"/><radialGradient id="Névtelen_színátmenet_26-8" cx="30.96" cy="5.19" r="22.94" xlink:href="#Névtelen_színátmenet_26"/></defs><title>eezy_20</title><g id="Layer" transform="matrix(1, 0, 0, 1, 2.842170943040401e-14, 7.105427357601002e-15)" style="isolation: isolate;"><path d="M 0.43 0 H 336.350013 V 129.600006 H 0.43 V 0 Z" class="cls-2" style="fill: url('#Névtelen_színátmenet_81');"/><path class="cls-3" d="M330.39,122a2.59,2.59,0,0,0-1-1.17,2.46,2.46,0,0,0-2.48-.15,5.4,5.4,0,0,0-2.26-3.27,5.19,5.19,0,0,0-7.28,1.59h0a2.87,2.87,0,0,0-3.92,1l-.05.09a2.29,2.29,0,0,0-2.19-.8,4.65,4.65,0,0,0-2.05-4.06,4.45,4.45,0,0,0-6.24,1.37,4.72,4.72,0,0,0-.65,1.7,3,3,0,0,0-3.62.71,6.75,6.75,0,0,0-2.92-4.52,6.51,6.51,0,0,0-8.84,1.56h0a4.45,4.45,0,0,0-6.24,1.37,4.58,4.58,0,0,0-.69,2,6.64,6.64,0,0,0-11.49.46,6.36,6.36,0,0,0-7.68.71,4.67,4.67,0,0,0-1.58.15,3.86,3.86,0,0,0-1.32-.23,4,4,0,0,0-1.38.25,4.66,4.66,0,0,0-4-2.34h-.12a5.28,5.28,0,0,0-1.06-.93,5.14,5.14,0,0,0-4.4-.63,7.07,7.07,0,0,0-9.1,1.51,4.65,4.65,0,0,0-2-3.08,4.45,4.45,0,0,0-6.24,1.37,4.72,4.72,0,0,0-.65,1.7,3,3,0,0,0-3.62.71,6.79,6.79,0,0,0-2.92-4.52,6.51,6.51,0,0,0-8.84,1.56h0a4.45,4.45,0,0,0-6.24,1.37,4.58,4.58,0,0,0-.69,2,6.65,6.65,0,0,0-11.5.46,6.35,6.35,0,0,0-8.28,1.35,4,4,0,0,0-2.29-.72,4,4,0,0,0-1.38.25,4.66,4.66,0,0,0-4-2.34,4.58,4.58,0,0,0-3,1.12,7.09,7.09,0,0,0-11.25-1.63,4.93,4.93,0,0,0-.51-.42,5.19,5.19,0,0,0-7.28,1.59h0a2.87,2.87,0,0,0-3.92,1l-.05.09a2.79,2.79,0,0,0-.51-.46,2.26,2.26,0,0,0-1.68-.34,4.64,4.64,0,0,0-2.06-4.06,4.44,4.44,0,0,0-6.23,1.37,4.54,4.54,0,0,0-.65,1.7,3,3,0,0,0-3.62.71,6.79,6.79,0,0,0-2.92-4.52,6.51,6.51,0,0,0-8.84,1.56h0a4.44,4.44,0,0,0-6.23,1.37,4.59,4.59,0,0,0-.7,2,6.64,6.64,0,0,0-11.49.46,6.34,6.34,0,0,0-7.67.71,4.65,4.65,0,0,0-1.58.15,3.9,3.9,0,0,0-1.32-.23,4,4,0,0,0-1.38.25,4.66,4.66,0,0,0-4-2.34h-.12a5.57,5.57,0,0,0-1.06-.93,5.16,5.16,0,0,0-4.41-.63,7,7,0,0,0-3.66-1,7.14,7.14,0,0,0-5.44,2.54,4.61,4.61,0,0,0-2-3.08,4.44,4.44,0,0,0-6.23,1.37,4.74,4.74,0,0,0-.66,1.7,3,3,0,0,0-3.61.71,6.79,6.79,0,0,0-2.92-4.52A6.51,6.51,0,0,0,53.3,116h0A4.45,4.45,0,0,0,47,117.39a4.71,4.71,0,0,0-.69,2,6.64,6.64,0,0,0-11.49.46,6.35,6.35,0,0,0-8.28,1.35,4,4,0,0,0-2.29-.72,3.93,3.93,0,0,0-1.38.25,4.67,4.67,0,0,0-4-2.34,4.6,4.6,0,0,0-3,1.12,7.11,7.11,0,0,0-12.33-.28,6.47,6.47,0,0,0-3.34-1.32V130H335.93V121A4.59,4.59,0,0,0,330.39,122Z" transform="translate(0.43)" style="fill: rgb(255, 255, 255); opacity: 0.6;"/><path class="cls-4" d="M134.05,40a.85.85,0,1,0-.85-.85.85.85,0,0,0,.85.85Z" transform="translate(0.43)" style="fill: rgb(255, 255, 255); fill-rule: evenodd;"/><path class="cls-4" d="M258.94,12.13a.85.85,0,1,0-.85-.85.85.85,0,0,0,.85.85Z" transform="translate(0.43)" style="fill: rgb(255, 255, 255); fill-rule: evenodd;"/><path class="cls-4" d="M320.81,45.13a.85.85,0,1,0-.85-.85.85.85,0,0,0,.85.85Z" transform="translate(0.43)" style="fill: rgb(255, 255, 255); fill-rule: evenodd;"/><path class="cls-4" d="M219.63,67.93a.85.85,0,1,0,0-1.69.84.84,0,0,0-.84.85.83.83,0,0,0,.84.84Z" transform="translate(0.43)" style="fill: rgb(255, 255, 255); fill-rule: evenodd;"/><path class="cls-4" d="M90.56,24.26a.85.85,0,0,0,.85-.84.85.85,0,1,0-1.7,0,.85.85,0,0,0,.85.84Z" transform="translate(0.43)" style="fill: rgb(255, 255, 255); fill-rule: evenodd;"/><path class="cls-4" d="M41.06,66a.85.85,0,0,0,.85-.85.85.85,0,0,0-1.7,0,.85.85,0,0,0,.85.85Z" transform="translate(0.43)" style="fill: rgb(255, 255, 255); fill-rule: evenodd;"/><path class="cls-4" d="M209.32,75.69a.43.43,0,0,0,.43-.43.43.43,0,1,0-.85,0,.43.43,0,0,0,.42.43Z" transform="translate(0.43)" style="fill: rgb(255, 255, 255); fill-rule: evenodd;"/><path class="cls-4" d="M186.88,46a.42.42,0,0,0,.43-.42.42.42,0,0,0-.43-.42.42.42,0,0,0-.43.42.43.43,0,0,0,.43.42Z" transform="translate(0.43)" style="fill: rgb(255, 255, 255); fill-rule: evenodd;"/><path class="cls-4" d="M220.12,27.82a.42.42,0,0,0,.43-.42.43.43,0,0,0-.86,0,.42.42,0,0,0,.43.42Z" transform="translate(0.43)" style="fill: rgb(255, 255, 255); fill-rule: evenodd;"/><path class="cls-4" d="M239.53,53.79a.44.44,0,0,0,.43-.43.43.43,0,0,0-.86,0,.44.44,0,0,0,.43.43Z" transform="translate(0.43)" style="fill: rgb(255, 255, 255); fill-rule: evenodd;"/><path class="cls-4" d="M285.14,20.31a.43.43,0,1,0-.42-.43.43.43,0,0,0,.42.43Z" transform="translate(0.43)" style="fill: rgb(255, 255, 255); fill-rule: evenodd;"/><path class="cls-4" d="M323.73,10.11a.41.41,0,0,0,.41-.42.41.41,0,0,0-.41-.42.42.42,0,0,0-.43.42.42.42,0,0,0,.43.42Z" transform="translate(0.43)" style="fill: rgb(255, 255, 255); fill-rule: evenodd;"/><path class="cls-4" d="M296.55,51.61a.43.43,0,0,0,0-.86.43.43,0,0,0,0,.86Z" transform="translate(0.43)" style="fill: rgb(255, 255, 255); fill-rule: evenodd;"/><path class="cls-4" d="M329.54,70.77a.43.43,0,1,0-.42-.42.42.42,0,0,0,.42.42Z" transform="translate(0.43)" style="fill: rgb(255, 255, 255); fill-rule: evenodd;"/><path class="cls-4" d="M310.2,86.24a.43.43,0,0,0,0-.85.43.43,0,1,0,0,.85Z" transform="translate(0.43)" style="fill: rgb(255, 255, 255); fill-rule: evenodd;"/><path class="cls-4" d="M209.75,11.75a.43.43,0,1,0-.43-.43.43.43,0,0,0,.43.43Z" transform="translate(0.43)" style="fill: rgb(255, 255, 255); fill-rule: evenodd;"/><path class="cls-4" d="M190.34,95.7a.42.42,0,0,0,.42-.42.43.43,0,0,0-.42-.43.44.44,0,0,0-.43.43.43.43,0,0,0,.43.42Z" transform="translate(0.43)" style="fill: rgb(255, 255, 255); fill-rule: evenodd;"/><path class="cls-4" d="M81.88,59.43a.43.43,0,1,0,0-.85.43.43,0,0,0,0,.85Z" transform="translate(0.43)" style="fill: rgb(255, 255, 255); fill-rule: evenodd;"/><path class="cls-4" d="M11,87.58a.43.43,0,1,0-.42-.43.43.43,0,0,0,.42.43Z" transform="translate(0.43)" style="fill: rgb(255, 255, 255); fill-rule: evenodd;"/><path class="cls-4" d="M7.93,60.19a.26.26,0,1,0-.26-.26.26.26,0,0,0,.26.26Z" transform="translate(0.43)" style="fill: rgb(255, 255, 255); fill-rule: evenodd;"/><path class="cls-4" d="M5.2,22.54a.26.26,0,0,0,.26-.26.26.26,0,0,0-.51,0,.26.26,0,0,0,.25.26Z" transform="translate(0.43)" style="fill: rgb(255, 255, 255); fill-rule: evenodd;"/><path class="cls-4" d="M23.16,9.92a.26.26,0,1,0-.25-.25.25.25,0,0,0,.25.25Z" transform="translate(0.43)" style="fill: rgb(255, 255, 255); fill-rule: evenodd;"/><path class="cls-4" d="M78.24,30.06A.26.26,0,1,0,78,29.8a.25.25,0,0,0,.26.26Z" transform="translate(0.43)" style="fill: rgb(255, 255, 255); fill-rule: evenodd;"/><path class="cls-4" d="M114.63,12.35a.26.26,0,1,0-.26-.26.26.26,0,0,0,.26.26Z" transform="translate(0.43)" style="fill: rgb(255, 255, 255); fill-rule: evenodd;"/><path class="cls-4" d="M122.64,39a.26.26,0,0,0,.25-.26.26.26,0,0,0-.51,0,.26.26,0,0,0,.26.26Z" transform="translate(0.43)" style="fill: rgb(255, 255, 255); fill-rule: evenodd;"/><path class="cls-4" d="M105.9,64a.26.26,0,0,0,0-.52.26.26,0,1,0,0,.52Z" transform="translate(0.43)" style="fill: rgb(255, 255, 255); fill-rule: evenodd;"/><path class="cls-4" d="M68.52,86.34a.26.26,0,0,0,0-.52.26.26,0,0,0,0,.52Z" transform="translate(0.43)" style="fill: rgb(255, 255, 255); fill-rule: evenodd;"/><path class="cls-4" d="M151.75,53.35a.26.26,0,1,0,0-.51.26.26,0,0,0,0,.51Z" transform="translate(0.43)" style="fill: rgb(255, 255, 255); fill-rule: evenodd;"/><path class="cls-4" d="M189.12,79.56a.26.26,0,1,0-.26-.26.26.26,0,0,0,.26.26Z" transform="translate(0.43)" style="fill: rgb(255, 255, 255); fill-rule: evenodd;"/><path class="cls-4" d="M234.25,88.29a.25.25,0,0,0,.25-.25.26.26,0,1,0-.51,0,.26.26,0,0,0,.26.25Z" transform="translate(0.43)" style="fill: rgb(255, 255, 255); fill-rule: evenodd;"/><path class="cls-4" d="M234.73,69.85a.26.26,0,1,0-.26-.25.26.26,0,0,0,.26.25Z" transform="translate(0.43)" style="fill: rgb(255, 255, 255); fill-rule: evenodd;"/><path class="cls-4" d="M212.89,43.65a.26.26,0,1,0-.25-.26.26.26,0,0,0,.25.26Z" transform="translate(0.43)" style="fill: rgb(255, 255, 255); fill-rule: evenodd;"/><path class="cls-4" d="M253.66,31.52a.26.26,0,0,0,0-.52.26.26,0,1,0,0,.52Z" transform="translate(0.43)" style="fill: rgb(255, 255, 255); fill-rule: evenodd;"/><path class="cls-4" d="M305.09,26.18a.26.26,0,0,0,.26-.25.26.26,0,1,0-.52,0,.26.26,0,0,0,.26.25Z" transform="translate(0.43)" style="fill: rgb(255, 255, 255); fill-rule: evenodd;"/><path class="cls-4" d="M331.3,36.37a.26.26,0,1,0-.26-.26.25.25,0,0,0,.26.26Z" transform="translate(0.43)" style="fill: rgb(255, 255, 255); fill-rule: evenodd;"/><path class="cls-4" d="M297.81,79.56a.26.26,0,1,0,0-.52.26.26,0,0,0,0,.52Z" transform="translate(0.43)" style="fill: rgb(255, 255, 255); fill-rule: evenodd;"/><path class="cls-4" d="M317.23,102.85a.26.26,0,0,0,.25-.26.25.25,0,0,0-.25-.25.26.26,0,0,0-.27.25.27.27,0,0,0,.27.26Z" transform="translate(0.43)" style="fill: rgb(255, 255, 255); fill-rule: evenodd;"/><path class="cls-4" d="M299.27,11.14a.26.26,0,1,0-.26-.26.26.26,0,0,0,.26.26Z" transform="translate(0.43)" style="fill: rgb(255, 255, 255); fill-rule: evenodd;"/><path class="cls-4" d="M177,15a.26.26,0,1,0,0-.52.26.26,0,0,0,0,.52Z" transform="translate(0.43)" style="fill: rgb(255, 255, 255); fill-rule: evenodd;"/><path class="cls-4" d="M148.35,7.74a.26.26,0,0,0,.26-.26.25.25,0,0,0-.26-.25.25.25,0,0,0-.25.25.26.26,0,0,0,.25.26Z" transform="translate(0.43)" style="fill: rgb(255, 255, 255); fill-rule: evenodd;"/><path class="cls-4" d="M46.94,47.05a.26.26,0,1,0-.26-.26.26.26,0,0,0,.26.26Z" transform="translate(0.43)" style="fill: rgb(255, 255, 255); fill-rule: evenodd;"/><path class="cls-4" d="M59.07,13.56a.26.26,0,1,0-.26-.26.26.26,0,0,0,.26.26Z" transform="translate(0.43)" style="fill: rgb(255, 255, 255); fill-rule: evenodd;"/><path class="cls-4" d="M151.52,76.53a.42.42,0,0,0,.42-.42.43.43,0,1,0-.42.42Z" transform="translate(0.43)" style="fill: rgb(255, 255, 255); fill-rule: evenodd;"/><path class="cls-4" d="M108.08,86.72a.42.42,0,0,0,.43-.42.43.43,0,1,0-.43.42Z" transform="translate(0.43)" style="fill: rgb(255, 255, 255); fill-rule: evenodd;"/><path class="cls-4" d="M125.55,87.08a.26.26,0,0,0,.26-.26.26.26,0,0,0-.52,0,.26.26,0,0,0,.26.26Z" transform="translate(0.43)" style="fill: rgb(255, 255, 255); fill-rule: evenodd;"/><path class="cls-4" d="M101.06,112.05a.26.26,0,0,0,.26-.25.26.26,0,0,0-.52,0,.26.26,0,0,0,.26.25Z" transform="translate(0.43)" style="fill: rgb(255, 255, 255); fill-rule: evenodd;"/><path d="M 0 105.11000061035156 L 336.07000732421875 100.47000122070312 L 336.07000732421875 94.68000030517578 L 0 91.86000061035156 L 0 105.11000061035156 Z" class="cls-5" style="opacity: 0.21; fill: url('#linear-gradient');"/><path d="M 0 30.059999465942383 L 336.07000732421875 25.420000076293945 L 336.07000732421875 19.6299991607666 L 0 16.809999465942383 L 0 30.059999465942383 Z" class="cls-6" style="opacity: 0.21; fill: url('#linear-gradient-2');"/><path d="M 336.07000732421875 68.05999755859375 L 0 70.61000061035156 L 0 78.44000244140625 L 336.07000732421875 81.30000305175781 L 336.07000732421875 68.05999755859375 Z" class="cls-7" style="opacity: 0.21; fill: url('#linear-gradient-3');"/><path d="M 336.3500061035156 51.650001525878906 L 336.3500061035156 42.959999084472656 L 50.47999954223633 49.11000061035156 L 336.3500061035156 51.650001525878906 Z" class="cls-8" style="opacity: 0.21; fill: url('#linear-gradient-4');"/><path d="M 0.4099999964237213 83.08000183105469 L 0.4099999964237213 89.47000122070312 L 259.1300048828125 86.36000061035156 L 0.4099999964237213 83.08000183105469 Z" class="cls-9" style="opacity: 0.21; mix-blend-mode: overlay; fill: url('#linear-gradient-5');"/><path d="M 0.4099999964237213 31.75 L 0.4099999964237213 38.150001525878906 L 259.1300048828125 35.029998779296875 L 0.4099999964237213 31.75 Z" class="cls-10" style="opacity: 0.21; fill: url('#linear-gradient-6');"/><path d="M 0.43 129.830002 H 336.41999 V 177.450001 H 0.43 V 129.830002 Z" class="cls-11" style="fill: url('#Névtelen_színátmenet_80');"/><path d="M 0.8300000429153442 143.00999450683594 L 0.8300000429153442 140.0399932861328 L 172.75 141.50999450683594 L 0.8300000429153442 143.00999450683594 Z" class="cls-12" style="fill: rgb(255, 255, 255); opacity: 0.2;"/><path d="M 0.8300000429153442 136.52000427246094 L 0.8300000429153442 133.5500030517578 L 303.9200134277344 135.00999450683594 L 0.8300000429153442 136.52000427246094 Z" class="cls-13" style="fill: rgb(255, 255, 255); opacity: 0.29;"/><path d="M 201.42999267578125 147.0500030517578 L 185.2899932861328 156.6199951171875 L 185.30999755859375 166.8300018310547 L 218.72000122070312 163.47999572753906 L 218.6199951171875 157.47999572753906 L 201.42999267578125 147.0500030517578 Z" class="cls-14" style="fill: rgb(234, 235, 239);"/><path d="M 62.79999923706055 93.51000213623047 L 127.19000244140625 93.51000213623047 L 124.58999633789062 92.5999984741211 L 121.19000244140625 92.93000030517578 L 120.22000122070312 91.36000061035156 L 117.26000213623047 92.13999938964844 L 116.83999633789062 91.08000183105469 L 115.31999969482422 91.58000183105469 L 113.0999984741211 89.36000061035156 L 107.8499984741211 90.5199966430664 L 106.58999633789062 88.51000213623047 L 104.0199966430664 89.7699966430664 L 101.05999755859375 87.06999969482422 L 93.18000030517578 84.06999969482422 L 88.16000366210938 89.31999969482422 L 84.52999877929688 88.44000244140625 L 83.41000366210938 90.30999755859375 L 79.95999908447266 89.66999816894531 L 78.97000122070312 91.22000122070312 L 77.23999786376953 90.7300033569336 L 76.7300033569336 91.87999725341797 L 73.93000030517578 91.26000213623047 L 72 92.45999908447266 L 67.80000305175781 92.01000213623047 L 62.79999923706055 93.51000213623047 Z" class="cls-15" style="fill: rgb(255, 253, 241);"/><path d="M 54.93000030517578 154.63999938964844 L 55.40999984741211 162.9199981689453 L 23.440000534057617 161.97999572753906 L 21.860000610351562 153.61000061035156 L 27.190000534057617 147.91000366210938 L 54.93000030517578 154.63999938964844 Z" class="cls-16" style="fill: rgb(77, 31, 19);"/><path class="cls-17" d="M315.88,150.87c-.15-2.29,2.66-13.31,2.66-13.31s3.07,11.65,2.92,13.53-2.8,4.27-2.8,4.27S316,153.17,315.88,150.87Z" transform="translate(0.43)" style="fill: rgb(80, 57, 20);"/><path class="cls-18" d="M277,151.24c-.14-2.29,2.66-13.31,2.66-13.31s3.08,11.65,2.92,13.53-2.8,4.27-2.8,4.27S277.1,153.53,277,151.24Z" transform="translate(0.43)" style="fill: rgb(97, 77, 20);"/><path d="M 292.1700134277344 144.69000244140625 L 290.8599853515625 144.69000244140625 L 302.4700012207031 137.69000244140625 L 318.2099914550781 137.27000427246094 L 329.44000244140625 144.91000366210938 L 313.04998779296875 145.55999755859375 L 302.4800109863281 138.47000122070312 L 292.1700134277344 144.69000244140625 Z" class="cls-19" style="fill: rgb(89, 22, 63);"/><path d="M 307.489990234375 137.55999755859375 L 319.19000244140625 145.32000732421875 L 329.44000244140625 144.91000366210938 L 318.2099914550781 137.27000427246094 L 307.489990234375 137.55999755859375 Z" class="cls-20" style="fill: rgb(61, 21, 57);"/><path d="M 313.04998779296875 154.00999450683594 L 313.04998779296875 145.55999755859375 L 302.4800109863281 138.47000122070312 L 292.1700134277344 144.69000244140625 L 292.1700134277344 156.10000610351562 L 313.04998779296875 154.00999450683594 Z" class="cls-14" style="fill: rgb(234, 235, 239);"/><path d="M 328.010009765625 152.52000427246094 L 328.010009765625 144.97000122070312 L 313.04998779296875 145.55999755859375 L 313.04998779296875 154.00999450683594 L 328.010009765625 152.52000427246094 Z" class="cls-21" style="fill: rgb(198, 200, 203);"/><path d="M 255.61000061035156 159.77999877929688 L 255.61000061035156 137.77000427246094 L 243.2100067138672 126.51000213623047 L 231.1300048828125 136.3800048828125 L 231.1300048828125 162.24000549316406 L 255.61000061035156 159.77999877929688 Z" class="cls-14" style="fill: rgb(234, 235, 239);"/><path d="M 273.1400146484375 158.02000427246094 L 273.1400146484375 136.82000732421875 L 255.61000061035156 137.77000427246094 L 255.61000061035156 159.77999877929688 L 273.1400146484375 158.02000427246094 Z" class="cls-21" style="fill: rgb(198, 200, 203);"/><path d="M 195.24000549316406 165.83999633789062 L 195.22000122070312 160.25 L 207.41000366210938 160.32000732421875 L 207.3699951171875 164.6199951171875 L 207.8699951171875 164.57000732421875 L 207.9199981689453 159.8300018310547 L 194.72000122070312 159.75 L 194.74000549316406 165.88999938964844 L 195.24000549316406 165.83999633789062 Z" class="cls-22" style="fill: rgb(157, 164, 170);"/><path d="M 207.6199951171875 164.60000610351562 L 207.6699981689453 160.07000732421875 L 194.97000122070312 160 L 194.99000549316406 165.86000061035156 L 207.6199951171875 164.60000610351562 Z" class="cls-23" style="fill: rgb(215, 218, 224);"/><path d="M 218.67999267578125 157.50999450683594 L 253.92999267578125 154.72000122070312 L 237.52999877929688 144.4199981689453 L 200.88999938964844 145.63999938964844 L 182.97000122070312 156.6199951171875 L 185.2899932861328 156.6199951171875 L 201.42999267578125 147.0500030517578 L 218.67999267578125 157.50999450683594 Z" class="cls-19" style="fill: rgb(89, 22, 63);"/><path d="M 218.67999267578125 157.50999450683594 L 218.6199951171875 157.47999572753906 L 218.74000549316406 163.47999572753906 L 252.5 160.08999633789062 L 252.30999755859375 154.85000610351562 L 218.67999267578125 157.50999450683594 Z" class="cls-21" style="fill: rgb(198, 200, 203);"/><path d="M 237.52999877929688 144.4199981689453 L 221.22000122070312 145 L 237.8800048828125 155.99000549316406 L 253.92999267578125 154.72000122070312 L 237.52999877929688 144.4199981689453 Z" class="cls-20" style="fill: rgb(61, 21, 57);"/><path class="cls-24" d="M63.87,144.59c-8,19.33,0,21.4,0,21.4S71.86,163.92,63.87,144.59Z" transform="translate(0.43)" style="fill: rgb(102, 82, 101);"/><path class="cls-24" d="M172.32,149.08c-8,19.33,0,21.41,0,21.41S180.31,168.41,172.32,149.08Z" transform="translate(0.43)" style="fill: rgb(102, 82, 101);"/><path class="cls-25" d="M182.54,140.37c-10.5,25.42,0,28.15,0,28.15S193.05,165.79,182.54,140.37Z" transform="translate(0.43)" style="fill: rgb(184, 122, 101);"/><path class="cls-26" d="M279.74,136.4c-10.5,25.42,0,28.15,0,28.15S290.25,161.82,279.74,136.4Z" transform="translate(0.43)" style="fill: rgb(76, 37, 76);"/><path class="cls-26" d="M329,129.6c-6.43,25.42,0,28.15,0,28.15S335.44,155,329,129.6Z" transform="translate(0.43)" style="fill: rgb(76, 37, 76);"/><path class="cls-25" d="M9,137.14c-4.93,19.48,0,21.58,0,21.58S13.92,156.62,9,137.14Z" transform="translate(0.43)" style="fill: rgb(184, 122, 101);"/><path class="cls-24" d="M218,145.31c-4.93,19.49,0,21.59,0,21.59S223,164.8,218,145.31Z" transform="translate(0.43)" style="fill: rgb(102, 82, 101);"/><path class="cls-24" d="M274.39,134.23c-6.43,25.42,0,28.15,0,28.15S280.82,159.65,274.39,134.23Z" transform="translate(0.43)" style="fill: rgb(102, 82, 101);"/><path class="cls-25" d="M150.7,156c-6.26,15.16,0,16.79,0,16.79S157,171.15,150.7,156Z" transform="translate(0.43)" style="fill: rgb(184, 122, 101);"/><path class="cls-24" d="M128.51,156c-6.26,15.16,0,16.79,0,16.79S134.77,171.15,128.51,156Z" transform="translate(0.43)" style="fill: rgb(102, 82, 101);"/><path class="cls-24" d="M134.51,162.5c-3.83,9.28,0,10.28,0,10.28S138.35,171.78,134.51,162.5Z" transform="translate(0.43)" style="fill: rgb(102, 82, 101);"/><path class="cls-25" d="M74,155.91c-3.83,9.28,0,10.28,0,10.28S77.84,165.19,74,155.91Z" transform="translate(0.43)" style="fill: rgb(184, 122, 101);"/><path class="cls-24" d="M114.42,160c-3.83,9.28,0,10.27,0,10.27S118.26,169.28,114.42,160Z" transform="translate(0.43)" style="fill: rgb(102, 82, 101);"/><path class="cls-26" d="M68.33,150.28c-6.22,15,0,16.66,0,16.66S74.54,165.32,68.33,150.28Z" transform="translate(0.43)" style="fill: rgb(76, 37, 76);"/><path class="cls-24" d="M14.07,147.05c-4.82,11.66,0,12.91,0,12.91S18.89,158.71,14.07,147.05Z" transform="translate(0.43)" style="fill: rgb(102, 82, 101);"/><path d="M 27.309999465942383 145.94000244140625 L 50.310001373291016 145.8699951171875 L 58.36000061035156 155.75999450683594 L 33.2599983215332 155.6199951171875 L 27.440000534057617 147.47000122070312 L 20.649999618530273 155.52000427246094 L 20.100000381469727 154.88999938964844 L 27.309999465942383 145.94000244140625 Z" class="cls-19" style="fill: rgb(89, 22, 63);"/><path d="M 33.2599983215332 155.6199951171875 L 33.029998779296875 155.2899932861328 L 33.2400016784668 159.69000244140625 L 55.36000061035156 162.1300048828125 L 54.9900016784668 155.75 L 33.2599983215332 155.6199951171875 Z" class="cls-21" style="fill: rgb(198, 200, 203);"/><path d="M 33.2400016784668 159.69000244140625 L 33.029998779296875 155.2899932861328 L 27.440000534057617 147.47000122070312 L 21.8799991607666 154.05999755859375 L 22.06999969482422 158.4600067138672 L 33.2400016784668 159.69000244140625 Z" class="cls-14" style="fill: rgb(234, 235, 239);"/><path d="M 25.709999084472656 157.3300018310547 L 25.709999084472656 154.55999755859375 L 27.969999313354492 154.72999572753906 L 27.969999313354492 157.5 L 25.709999084472656 157.3300018310547 Z" class="cls-27" style="fill-rule: evenodd; fill: rgb(95, 66, 103);"/><path d="M 235.72999572753906 142.47999572753906 L 235.72999572753906 137.77999877929688 L 239.55999755859375 138.07000732421875 L 239.55999755859375 142.77000427246094 L 235.72999572753906 142.47999572753906 Z" class="cls-27" style="fill-rule: evenodd; fill: rgb(95, 66, 103);"/><path d="M 238.91000366210938 142.72000122070312 L 239.55999755859375 142.77000427246094 L 239.55999755859375 138.07000732421875 L 238.91000366210938 138.02000427246094 L 238.91000366210938 142.72000122070312 Z" class="cls-28" style="fill-rule: evenodd; fill: rgb(61, 21, 57);"/><path d="M 245.25999450683594 143.33999633789062 L 245.25999450683594 138.6300048828125 L 249.10000610351562 138.9199981689453 L 249.10000610351562 143.6199951171875 L 245.25999450683594 143.33999633789062 Z" class="cls-29" style="fill-rule: evenodd; fill: rgb(89, 22, 63);"/><path d="M 248.4499969482422 143.57000732421875 L 249.10000610351562 143.6300048828125 L 249.10000610351562 138.9199981689453 L 248.4499969482422 138.8699951171875 L 248.4499969482422 143.57000732421875 Z" class="cls-30" style="fill-rule: evenodd; fill: rgb(48, 25, 63);"/><path d="M 231.1300048828125 136.3800048828125 L 229.58999633789062 136.3800048828125 L 243.1999969482422 125.2699966430664 L 261.6499938964844 124.58999633789062 L 274.82000732421875 136.72999572753906 L 255.61000061035156 137.77000427246094 L 243.2100067138672 126.51000213623047 L 231.1300048828125 136.3800048828125 Z" class="cls-19" style="fill: rgb(89, 22, 63);"/><path d="M 254.5500030517578 124.8499984741211 L 267.94000244140625 137.10000610351562 L 274.82000732421875 136.72999572753906 L 261.6499938964844 124.58999633789062 L 254.5500030517578 124.8499984741211 Z" class="cls-20" style="fill: rgb(61, 21, 57);"/><path d="M 303.2900085449219 155 L 303.2900085449219 149.44000244140625 L 300.29998779296875 149.44000244140625 L 300.29998779296875 155.3000030517578 L 303.2900085449219 155 Z" class="cls-31" style="fill-rule: evenodd; fill: rgb(157, 164, 170);"/><path d="M 336.4200134277344 151.67999267578125 L 0.4300000071525574 185.2899932861328 L 0.4300000071525574 212.32000732421875 L 336.4200134277344 212.3699951171875 L 336.4200134277344 151.67999267578125 Z" class="cls-32" style="fill: url('#Névtelen_színátmenet_680');"/><g class="cls-33" style="opacity: 0.2;"><path class="cls-34" d="M78.49,83.6a23,23,0,0,1,30.29-12,23.26,23.26,0,0,1,11.92,30.52,23,23,0,0,1-30.29,12A23.25,23.25,0,0,1,78.49,83.6Z" transform="translate(0.43)" style="opacity: 0.6; fill: url('#Névtelen_színátmenet_26');"/><path class="cls-35" d="M136,44.06a36.11,36.11,0,0,1,47.65-18.89,36.59,36.59,0,0,1,18.75,48A36.12,36.12,0,0,1,154.7,92.07,36.59,36.59,0,0,1,136,44.06Z" transform="translate(0.43)" style="opacity: 0.3; fill: url('#Névtelen_színátmenet_26-2');"/><path class="cls-36" d="M205.36,123.9a23,23,0,0,1,30.3-12,23.26,23.26,0,0,1,11.91,30.52,23,23,0,0,1-30.29,12A23.27,23.27,0,0,1,205.36,123.9Z" transform="translate(0.43)" style="opacity: 0.3; fill: url('#Névtelen_színátmenet_26-3');"/><path class="cls-37" d="M227.53,159.39a32.41,32.41,0,0,1,42.77-16.95,32.84,32.84,0,0,1,16.83,43.1,32.4,32.4,0,0,1-42.77,17A32.84,32.84,0,0,1,227.53,159.39Z" transform="translate(0.43)" style="opacity: 0.2; fill: url('#Névtelen_színátmenet_26-4');"/><path class="cls-38" d="M176.15,120.58a23,23,0,0,1,30.3-12,23.24,23.24,0,0,1,11.91,30.51,22.94,22.94,0,0,1-30.29,12A23.26,23.26,0,0,1,176.15,120.58Z" transform="translate(0.43)" style="opacity: 0.2; fill: url('#Névtelen_színátmenet_26-5');"/><path class="cls-39" d="M45.83,113a23,23,0,0,1,30.29-12A23.26,23.26,0,0,1,88,131.47a23,23,0,0,1-30.29,12A23.26,23.26,0,0,1,45.83,113Z" transform="translate(0.43)" style="opacity: 0.2; fill: url('#Névtelen_színátmenet_26-6');"/><path class="cls-40" d="M10.24,149a29.72,29.72,0,0,1,39.22-15.55A30.11,30.11,0,0,1,64.88,173a29.7,29.7,0,0,1-39.21,15.54A30.1,30.1,0,0,1,10.24,149Z" transform="translate(0.43)" style="opacity: 0.6; fill: url('#Névtelen_színátmenet_346');"/><path class="cls-41" d="M16.73,67.15A31.92,31.92,0,0,1,58.86,50.46,32.33,32.33,0,0,1,75.42,92.89,31.91,31.91,0,0,1,33.3,109.58,32.34,32.34,0,0,1,16.73,67.15Z" transform="translate(0.43)" style="opacity: 0.3; fill: url('#Névtelen_színátmenet_26-7');"/><path class="cls-42" d="M291.14,36.11a23,23,0,0,1,30.3-12,23.26,23.26,0,0,1,11.91,30.52,23,23,0,0,1-30.29,12A23.26,23.26,0,0,1,291.14,36.11Z" transform="translate(0.43)" style="opacity: 0.6; fill: url('#Névtelen_színátmenet_26-8');"/></g><path d="M 336.3399963378906 182.92999267578125 L 139.55999755859375 171.44000244140625 L 336.4200134277344 184.5399932861328 L 336.3399963378906 182.92999267578125 Z" class="cls-43" style="fill: rgb(255, 255, 255);"/><path d="M 336.30999755859375 187.52000427246094 L 139.55999755859375 171.44000244140625 L 336.3900146484375 189.1199951171875 L 336.30999755859375 187.52000427246094 Z" class="cls-43" style="fill: rgb(255, 255, 255);"/><path d="M 331.57000732421875 192.52000427246094 L 331.739990234375 177.52000427246094 L 329.07000732421875 177.25999450683594 L 329.0299987792969 192.19000244140625 L 331.57000732421875 192.52000427246094 Z" class="cls-43" style="fill: rgb(255, 255, 255);"/><path d="M 312.57000732421875 190.47000122070312 L 312.57000732421875 178.22000122070312 L 310.4599914550781 178.17999267578125 L 310.44000244140625 190.19000244140625 L 312.57000732421875 190.47000122070312 Z" class="cls-43" style="fill: rgb(255, 255, 255);"/><path d="M 293.3800048828125 188.42999267578125 L 293.5199890136719 177.8800048828125 L 291.7300109863281 177.77000427246094 L 291.7699890136719 188.22000122070312 L 293.3800048828125 188.42999267578125 Z" class="cls-43" style="fill: rgb(255, 255, 255);"/><path d="M 274.3500061035156 186.4600067138672 L 274.4700012207031 176.9499969482422 L 273.17999267578125 176.86000061035156 L 273.0199890136719 186.27000427246094 L 274.3500061035156 186.4600067138672 Z" class="cls-43" style="fill: rgb(255, 255, 255);"/><path d="M 255.35000610351562 184.27000427246094 L 255.44000244140625 176.64999389648438 L 254.35000610351562 176.57000732421875 L 254.27999877929688 184.11000061035156 L 255.35000610351562 184.27000427246094 Z" class="cls-43" style="fill: rgb(255, 255, 255);"/><path d="M 236.38999938964844 182.02000427246094 L 236.38999938964844 175.07000732421875 L 235.57000732421875 175 L 235.58999633789062 181.8800048828125 L 236.38999938964844 182.02000427246094 Z" class="cls-43" style="fill: rgb(255, 255, 255);"/><path d="M 217.38999938964844 179.92999267578125 L 217.4499969482422 173.9199981689453 L 216.77999877929688 173.86000061035156 L 216.75 179.8000030517578 L 217.38999938964844 179.92999267578125 Z" class="cls-43" style="fill: rgb(255, 255, 255);"/><path d="M 198.50999450683594 177.89999389648438 L 198.57000732421875 172.16000366210938 L 197.97000122070312 172.10000610351562 L 197.8699951171875 177.7899932861328 L 198.50999450683594 177.89999389648438 Z" class="cls-43" style="fill: rgb(255, 255, 255);"/><path d="M 179.58999633789062 175.7899932861328 L 179.63999938964844 170.85000610351562 L 179.05999755859375 170.8000030517578 L 179.02999877929688 175.69000244140625 L 179.58999633789062 175.7899932861328 Z" class="cls-43" style="fill: rgb(255, 255, 255);"/><path d="M 336.4200134277344 235.19000244140625 L 336.4200134277344 193.13999938964844 L 0.5 156.0800018310547 L 0.5 235.19000244140625 L 336.4200134277344 235.19000244140625 Z" class="cls-44" style="fill: rgb(90, 26, 64);"/><path d="M 0.5 156.0800018310547 L 0.5 166.72000122070312 L 336.3500061035156 193.13999938964844 L 0.5 156.0800018310547 Z" class="cls-45" style="fill: rgb(255, 255, 255); opacity: 0.1;"/><path d="M 336.3500061035156 235.19000244140625 L 0.5 199.99000549316406 L 0.4300000071525574 235.19000244140625 L 336.3500061035156 235.19000244140625 Z" class="cls-46" style="fill: rgb(48, 25, 63);"/><path class="cls-47" d="M269,61.87a1.54,1.54,0,0,0-.3,0,1.33,1.33,0,0,0-1.05-.41h-.19a2.44,2.44,0,0,0-1.91-.7l-.3,0v0c0-.67-.78-1.22-1.74-1.22-.14-.6-1-1.06-2-1.06a2.92,2.92,0,0,0-1.35.31,1.14,1.14,0,0,0-.86-.42,1.35,1.35,0,0,0-1.23-.61,1.39,1.39,0,0,0-1.22.59.58.58,0,0,0-.18,0,.47.47,0,0,0-.4.19.5.5,0,0,0-.13,0c0-.19-.23-.35-.52-.37,0,0,0,0,0,0,0-.43-.56-.77-1.24-.77l-.27,0a.41.41,0,0,0-.3-.21.35.35,0,0,0,.12-.25c0-.25-.3-.44-.68-.44h-.16a.57.57,0,0,0-.59-.37.71.71,0,0,0-.52.21.93.93,0,0,0-.29,0,.62.62,0,0,0-.64.4h0c-.25,0-.44.12-.44.28v0a2.25,2.25,0,0,0-.46,0c-.81,0-1.47.38-1.54.86a.92.92,0,0,0-.88.47l-.17.06a2.24,2.24,0,0,0-1.26-.35,1.72,1.72,0,0,0-1.61.75.55.55,0,0,0-.59.43.47.47,0,0,0-.17,0c-.27,0-.48.11-.51.27a2.55,2.55,0,0,0-1-.19,2.32,2.32,0,0,0-.46,0,1.14,1.14,0,0,0-.75-.25,1.22,1.22,0,0,0-.59.14,3.4,3.4,0,0,0-.88-.12l-.37,0a1.81,1.81,0,0,0-1.28-.5l-.29,0a1.94,1.94,0,0,0-1.71-.88A1.79,1.79,0,0,0,234.19,59h-.12c-.79,0-1.43.46-1.43,1,0,0,0,.06,0,.09-.42,0-.74.25-.74.51a0,0,0,0,0,0,0,2.13,2.13,0,0,0-.78-.14c-.76,0-1.38.35-1.38.78a.24.24,0,0,0,0,.08,1.67,1.67,0,0,0-.52-.08c-.55,0-1,.24-1,.54a.77.77,0,0,0-.62.35c-.38.51.26.65.56.65h40.7c.47,0,.91-.17.91-.44S269.43,61.87,269,61.87Z" transform="translate(0.43)" style="fill: rgb(250, 250, 251); opacity: 0.5;"/><path class="cls-43" d="M127.18,91.81a2.24,2.24,0,0,0-.46,0,2.13,2.13,0,0,0-1.64-.63l-.31,0a3.83,3.83,0,0,0-3-1.1l-.47,0v0c0-1.05-1.21-1.9-2.72-1.91-.21-.94-1.53-1.66-3.13-1.66a4.41,4.41,0,0,0-2.11.5,1.75,1.75,0,0,0-1.34-.67,2.14,2.14,0,0,0-1.93-1,2.17,2.17,0,0,0-1.91.93.64.64,0,0,0-.28,0,.73.73,0,0,0-.62.29.65.65,0,0,0-.21-.05c0-.3-.35-.55-.8-.59v0c0-.66-.86-1.2-1.93-1.2a2.73,2.73,0,0,0-.41,0,.73.73,0,0,0-.48-.33.54.54,0,0,0,.19-.39c0-.38-.47-.69-1.06-.69a1,1,0,0,0-.25,0,.9.9,0,0,0-.93-.58,1,1,0,0,0-.8.33,1.39,1.39,0,0,0-.46-.08,1,1,0,0,0-1,.62h0c-.38,0-.69.19-.69.43,0,0,0,0,0,.07a4,4,0,0,0-.71-.07c-1.27,0-2.31.59-2.42,1.34a1.49,1.49,0,0,0-1.38.74l-.25.1a3.49,3.49,0,0,0-2-.55,2.72,2.72,0,0,0-2.52,1.17.87.87,0,0,0-.91.67,1.27,1.27,0,0,0-.28,0c-.4,0-.74.18-.79.42a3.9,3.9,0,0,0-1.53-.3,4.18,4.18,0,0,0-.72.07,1.73,1.73,0,0,0-1.17-.39,1.83,1.83,0,0,0-.91.22,5.06,5.06,0,0,0-1.38-.18,5.49,5.49,0,0,0-.58,0,2.82,2.82,0,0,0-2-.79,3.15,3.15,0,0,0-.44,0,3.06,3.06,0,0,0-2.69-1.37,2.8,2.8,0,0,0-2.9,2l-.19,0c-1.23,0-2.23.73-2.23,1.61a.59.59,0,0,0,0,.14c-.66.07-1.16.4-1.16.8,0,0,0,0,0,0a3.48,3.48,0,0,0-1.21-.21c-1.19,0-2.15.55-2.15,1.22A.5.5,0,0,0,66,91a2.55,2.55,0,0,0-.81-.12c-.86,0-1.57.37-1.57.84a1.17,1.17,0,0,0-1,.55c-.6.79.4,1,.87,1h63.61c.73,0,1.42-.27,1.42-.68S127.92,91.81,127.18,91.81Z" transform="translate(0.43)" style="fill: rgb(255, 255, 255);"/><path class="cls-43" d="M117.65,46.24a2.08,2.08,0,0,0,.14-.7c0-1.52-1.75-2.76-3.9-2.76a4.81,4.81,0,0,0-.77.06,2.19,2.19,0,0,0,.11-.67,2.69,2.69,0,0,0-2.86-2.49,3.06,3.06,0,0,0-2.07.78,5.71,5.71,0,0,0-4.55-2A5.61,5.61,0,0,0,99,40.7a3.35,3.35,0,0,0-3.2-1.86,4.14,4.14,0,0,0-1.28.21,2,2,0,0,0,.08-.54,2.67,2.67,0,0,0-2.21-2.32,1.9,1.9,0,0,0,.17-.79,2.18,2.18,0,0,0-2.27-2.07,2.37,2.37,0,0,0-.61.08c0-.06,0-.12,0-.18a2.9,2.9,0,0,0-2.94-2.86,3.11,3.11,0,0,0-1,.18A4.31,4.31,0,0,0,81.69,28a4.38,4.38,0,0,0-4,2.28,3.94,3.94,0,0,0-2.7-.95,4.61,4.61,0,0,0-1.31.19,1,1,0,0,0,0-.25c0-.63-.75-1.14-1.67-1.14a2,2,0,0,0-.5.05.78.78,0,0,0,0-.26,1.13,1.13,0,0,0-1.24-1h0a1.35,1.35,0,0,0-1.44-1.15,1.74,1.74,0,0,0-.61.11,2.52,2.52,0,0,0-2-.84,2.37,2.37,0,0,0-2.19,1.17A2.81,2.81,0,0,0,61.4,28a3.57,3.57,0,0,0-.59-.06c-1.1,0-2,.65-2,1.44a1.15,1.15,0,0,0-.57-.15,1.2,1.2,0,0,0-.68.22,1.62,1.62,0,0,0-1-.34,1.45,1.45,0,0,0-1.44,1l-.24,0A1.72,1.72,0,0,0,53,31.65h0a2.67,2.67,0,0,0-1.4.44,2.35,2.35,0,0,0-2-1,2.41,2.41,0,0,0-1.84.81,3.2,3.2,0,0,0-.63-.07,2.35,2.35,0,0,0-2.37,1.58h-.19a1.83,1.83,0,0,0-2,1.68,1.41,1.41,0,0,0,.11.54,1.12,1.12,0,0,0-.89.71,3.35,3.35,0,0,0-.79-.09,2.83,2.83,0,0,0-2.92,2,3.56,3.56,0,0,0-1.42.29A4.43,4.43,0,0,0,33.31,37a4.64,4.64,0,0,0-1.12.14,4.65,4.65,0,0,0-3.74-1.81,4.59,4.59,0,0,0-4.11,2.42,3.18,3.18,0,0,0-.62-.06,3.54,3.54,0,0,0-3.66,3.4c0,.09,0,.18,0,.28a2.66,2.66,0,0,0-2.53,2.43,2.1,2.1,0,0,0,.2.89c-2.05.05-3.68,1.13-3.68,2.46s1.71,2.46,3.83,2.46h97.69C119.4,48.57,118.92,46.94,117.65,46.24Z" transform="translate(0.43)" style="fill: rgb(255, 255, 255);"/><path class="cls-48" d="M99.06,235.47c2.06-25.92,10.39-35.55,10.39-35.55-7.7,8.28-10.52,26.17-11.49,35.55Z" transform="translate(0.43)" style="fill: rgb(95, 66, 103);"/><path class="cls-48" d="M96.6,235.47h1.26c.2-10.68-.51-31.41-8.12-41.87C89.74,193.6,97.9,205.69,96.6,235.47Z" transform="translate(0.43)" style="fill: rgb(95, 66, 103);"/><path class="cls-49" d="M98.16,235.47c-2.4-10.94-9.18-36.78-21.52-47,0,0,13.08,11.7,20,47Z" transform="translate(0.43)" style="fill: rgb(139, 98, 103);"/><path class="cls-48" d="M96.75,235.47c-3.21-9.19-11.73-30.69-23.41-38.24,0,0,12.42,8.68,22,38.24Z" transform="translate(0.43)" style="fill: rgb(95, 66, 103);"/><path class="cls-50" d="M50.4,101.46a.41.41,0,0,0,0-.19c0-.42-.48-.76-1.07-.76l-.21,0a.57.57,0,0,0,0-.18.74.74,0,0,0-.78-.69.86.86,0,0,0-.57.22,1.57,1.57,0,0,0-1.25-.55,1.55,1.55,0,0,0-1.29.61.92.92,0,0,0-.88-.51,1,1,0,0,0-.35.06.39.39,0,0,0,0-.15.71.71,0,0,0-.6-.63.54.54,0,0,0,0-.22.6.6,0,0,0-.63-.57l-.17,0a.06.06,0,0,0,0,0,.8.8,0,0,0-.81-.79.81.81,0,0,0-.27,0,1.25,1.25,0,0,0-2.21-.07,1.09,1.09,0,0,0-.74-.26,1.36,1.36,0,0,0-.36,0s0,0,0-.07-.21-.31-.46-.31h-.14a.15.15,0,0,0,0-.07.31.31,0,0,0-.34-.27h0a.37.37,0,0,0-.39-.31.47.47,0,0,0-.17,0,.7.7,0,0,0-.55-.24.63.63,0,0,0-.59.33.77.77,0,0,0-.75.49l-.16,0c-.3,0-.55.18-.55.4a.29.29,0,0,0-.16,0,.31.31,0,0,0-.19.06.43.43,0,0,0-.27-.1.4.4,0,0,0-.4.28h-.07a.47.47,0,0,0-.51.42h0a.78.78,0,0,0-.38.12.63.63,0,0,0-.55-.28.67.67,0,0,0-.5.22l-.18,0a.64.64,0,0,0-.64.43h-.06a.5.5,0,0,0-.53.47.32.32,0,0,0,0,.14.31.31,0,0,0-.24.2.78.78,0,0,0-.22,0,.77.77,0,0,0-.8.56,1,1,0,0,0-.39.08,1.23,1.23,0,0,0-.93-.43A1.55,1.55,0,0,0,27,99a1.27,1.27,0,0,0-1-.5,1.25,1.25,0,0,0-1.13.67l-.17,0a1,1,0,0,0-1,.93v.08a.73.73,0,0,0-.69.66A.7.7,0,0,0,23,101c-.56,0-1,.31-1,.67s.47.68,1.06.68H49.84C50.88,102.1,50.75,101.65,50.4,101.46Z" transform="translate(0.43)" style="fill: rgb(250, 250, 251); opacity: 0.8;"/><path class="cls-49" d="M336.09,230.28a12.83,12.83,0,0,1-.77-3.33,19.11,19.11,0,0,1,.77-5.54V219.8a18.68,18.68,0,0,0-3.52,7.57c-.3,1.81-.47,3.45-.56,4.76a38.51,38.51,0,0,1,1.53-14.71c.89-3,1.76-5.51,2.55-7.63v-3c-3.35,5.05-8.25,12.94-9.59,17.63a18.44,18.44,0,0,0-.74,7.22,21.14,21.14,0,0,1-1.69-3.47,41.74,41.74,0,0,1-2-9,48.73,48.73,0,0,0-1.16,5.68c-.13-.77-.28-1.58-.47-2.44a33.08,33.08,0,0,0-7.51-15.09s4.47,9.21,3.8,15.41c-.43,4.09-2.77,8.24-4.32,10.59a30.63,30.63,0,0,0,.73-3.88c.48-3.7-1.33-10.27-1.33-10.27a41.74,41.74,0,0,1-2,9A22.3,22.3,0,0,1,307.3,233a56.88,56.88,0,0,1,.24-8.3c.66-7.22,5.13-16.1,5.13-16.1s-7.13,11.38-8.18,17.16a16,16,0,0,1-2.77,6.33,71.23,71.23,0,0,0,1.59-12.51c.58-11.18-1.52-17.51-1.52-17.51s.29,14.81-3.13,23.83a54.7,54.7,0,0,1-3.18,7.15,35.7,35.7,0,0,1-1.65-6.68,25.77,25.77,0,0,1,1.42-12s-4.85,6-5.13,12.36c-.08,1.85-.09,3.35-.05,4.56a35.89,35.89,0,0,1-2.57-7.66c-1.33-6.53-1.81-11.71-1.81-11.71a41.1,41.1,0,0,0-1.6,7.16,32.24,32.24,0,0,0-2.82-7.72s2,7.73.57,14.49a19.25,19.25,0,0,1-3.53,8,19.32,19.32,0,0,1-1.56-3.87,41.08,41.08,0,0,1-1.13-6.78,35.07,35.07,0,0,0-.75,7.75,31,31,0,0,0,.52,3.44,32,32,0,0,1-2.19-8,25.77,25.77,0,0,1,1.42-12,28.6,28.6,0,0,0-4,7.15,41.5,41.5,0,0,0-1.85-9.6s-.48,5.18-1.81,11.71a36.4,36.4,0,0,1-3,8.62c-.92-2.74-2.33-7.2-3.86-13-2.66-10.09-8.83-14-8.83-14s3.51,5.09,5.31,14.31a27.06,27.06,0,0,1-.75,13.59c.1-.62.21-1.37.29-2.23a35.07,35.07,0,0,0-.75-7.75,41.08,41.08,0,0,1-1.13,6.78,19.07,19.07,0,0,1-.8,2.29,9,9,0,0,1-1.9-4.69c-.38-4.86,1.14-13.19,1.14-13.19a36.81,36.81,0,0,0-4.27,10.23,50.28,50.28,0,0,0-1.11-5.37,42.08,42.08,0,0,1-2,9c-.08.21-.16.42-.25.63a20.14,20.14,0,0,0-.39-3.78,36.22,36.22,0,0,0-4.38-10.69s1.53,8.33,1.15,13.19a9.59,9.59,0,0,1-2.76,5.71c.1-.64.21-1.43.3-2.34a35.07,35.07,0,0,0-.75-7.75,41.71,41.71,0,0,1-1.12,6.78,18.33,18.33,0,0,1-1.12,3c.07-2,.1-5.17-.12-9.07a32.08,32.08,0,0,0-3.52-12.5s2,7.73.57,14.49a20.41,20.41,0,0,1-2.33,6.21c-.9-3.34-2.39-9.13-4-16.81-2.66-12.58-8.83-17.43-8.83-17.43s3.5,6.35,5.31,17.86a41.5,41.5,0,0,1-.9,17.51,22,22,0,0,1-2.68-5,41.74,41.74,0,0,1-2-9s-1.81,6.57-1.33,10.27c.05.45.12.87.18,1.26a22.44,22.44,0,0,1-2.75-8c-.67-6.2,3.8-15.41,3.8-15.41a33.08,33.08,0,0,0-7.51,15.09c0,.18-.07.36-.11.54a28,28,0,0,0-4.49-8.64,25.7,25.7,0,0,1,1.43,12,38.81,38.81,0,0,1-.94,4.4c-.58-1.25-1.25-2.84-2-4.87-3.42-9-3.14-23.83-3.14-23.83s-2.09,6.33-1.52,17.51q0,.75.09,1.47c-3.55-7.78-11.52-19-11.52-19a98.76,98.76,0,0,1,5.8,15.37A39,39,0,0,1,195,231.65,29.64,29.64,0,0,0,192.22,221a45,45,0,0,0-10.17-13.59s6.42,9.49,7.89,17.82a20.34,20.34,0,0,1,.13,6.18c-.1-1.19-.25-2.58-.51-4.1-.76-4.58-4.32-8.58-4.32-8.58s1.76,4.79,1.57,8.17a16.32,16.32,0,0,1-1.45,5c0-2,0-4.76-.15-8.06a32.16,32.16,0,0,0-3.51-12.5s2,7.73.57,14.49a20.11,20.11,0,0,1-2.69,6.79,18.69,18.69,0,0,1-1.31-3.37,40.51,40.51,0,0,1-1.12-6.78,42.44,42.44,0,0,0-.79,6.32,8.36,8.36,0,0,1-.21-1.25c-.38-4.86,1.14-13.19,1.14-13.19a36.34,36.34,0,0,0-4.37,10.69,19.6,19.6,0,0,0-.39,4.35,27.57,27.57,0,0,1,.16-9.84c1.81-9.22,5.31-14.31,5.31-14.31s-6.17,3.88-8.83,14c-1,3.66-1.88,6.78-2.65,9.27q0-.83-.06-1.77c-.28-6.34-5.13-12.36-5.13-12.36a25.77,25.77,0,0,1,1.42,12c-.05.36-.11.72-.18,1.06A29.79,29.79,0,0,0,161,222.6c-3.14-7.54-10-16-10-16a125,125,0,0,1,6.09,14.76,24.38,24.38,0,0,1,.87,12,53.78,53.78,0,0,0-.63-6c-.76-4.58-4.33-8.58-4.33-8.58s1.76,4.79,1.57,8.17a18.81,18.81,0,0,1-1.9,6.06,21.78,21.78,0,0,1-2.49-4.72,42.08,42.08,0,0,1-2-9,49.79,49.79,0,0,0-1.27,6.6c-.72-2.94-1.54-6.49-2.41-10.58-2.66-12.58-8.83-17.43-8.83-17.43s3.51,6.35,5.32,17.86a41.06,41.06,0,0,1-1.14,18.27,19.1,19.1,0,0,1-3.61-8.1c-1.43-6.76.57-14.49.57-14.49a32.08,32.08,0,0,0-3.52,12.5,100.06,100.06,0,0,0-.08,10.14c-.74-1.49-1.76-4.45-2.27-10-.86-9.21,1.56-19.62,1.56-19.62s-2.89,3.7-4.32,12a68.86,68.86,0,0,0-.27,16.4,16.44,16.44,0,0,1-3.35-7.1c-1-5.78-8.17-17.16-8.17-17.16s4.46,8.88,5.13,16.1a58.51,58.51,0,0,1,.25,8c-.91-2.69-2.39-7.31-4-13.44-2.67-10.09-8.84-14-8.84-14s3.51,5.09,5.32,14.31a27.38,27.38,0,0,1-.32,12.12,20.12,20.12,0,0,1-1.69-3.48,42.08,42.08,0,0,1-2-9s-1.64,6-1.38,9.74c-.18-.79-.34-1.66-.49-2.61a25.77,25.77,0,0,1,1.42-12s-4.84,6-5.13,12.36A36.21,36.21,0,0,0,105,235a30,30,0,0,1-2.5-8.66,25.7,25.7,0,0,1,1.43-12,27.49,27.49,0,0,0-4.65,9.25,32.3,32.3,0,0,0-3.5-12.26s2,7.73.57,14.49a19.38,19.38,0,0,1-3.53,8A19.32,19.32,0,0,1,91.27,230a41.08,41.08,0,0,1-1.13-6.78,35.07,35.07,0,0,0-.75,7.75,31,31,0,0,0,.52,3.44,32.31,32.31,0,0,1-2.2-8,25.7,25.7,0,0,1,1.43-12,26.83,26.83,0,0,0-4.9,10.37,21.44,21.44,0,0,0-2-7.27,25.48,25.48,0,0,1-1.71,10.6,21.15,21.15,0,0,1-2.8,5c.06-2,.1-5.22-.12-9.23a32.08,32.08,0,0,0-3.52-12.5s2,7.73.57,14.49a21.08,21.08,0,0,1-2,5.65c-.92-2.77-2.21-7-3.62-12.27-2.66-10.09-8.83-14-8.83-14s3.51,5.09,5.32,14.31a27.17,27.17,0,0,1-.74,13.54,50.69,50.69,0,0,0-.62-5.83c-.76-4.58-4.33-8.58-4.33-8.58s1.76,4.79,1.57,8.17a19.38,19.38,0,0,1-2,6.31A18.08,18.08,0,0,1,58.11,230,40.51,40.51,0,0,1,57,223.17a35.07,35.07,0,0,0-.75,7.75c0,.19,0,.38,0,.56-.16-.45-.32-.93-.46-1.44a40.87,40.87,0,0,1-1.13-6.77,40.3,40.3,0,0,0-.79,6.9c-.27-1.07-.54-2.31-.76-3.72a25.7,25.7,0,0,1,1.43-12s-4.85,6-5.14,12.36c-.09,2.09-.08,3.74,0,5a22,22,0,0,1-1.86-3.68,25.4,25.4,0,0,1-1.72-10.6,21.71,21.71,0,0,0-2.07,7.54c-.51-1.74-1.05-3.67-1.6-5.78-2.67-10.09-8.84-14-8.84-14s3.51,5.09,5.32,14.32a27.38,27.38,0,0,1-.37,12.3,19.57,19.57,0,0,1-.65-1.92,40.31,40.31,0,0,1-1.12-6.77,41.23,41.23,0,0,0-.8,6.78A17.37,17.37,0,0,1,35,228.3a42.08,42.08,0,0,1-2-9s-1.8,6.57-1.33,10.27c.15,1.2.35,2.23.54,3.08a37.13,37.13,0,0,1-1.5-6.22,25.7,25.7,0,0,1,1.43-12,28.13,28.13,0,0,0-4.39,8.3c.08-1,.15-2,.21-3.1.57-11.18-1.52-17.51-1.52-17.51S26.68,217,23.26,226a41,41,0,0,1-3.94,8.38,51.78,51.78,0,0,1,.14-9.58c.67-7.22,5.13-16.1,5.13-16.1s-7.13,11.38-8.17,17.16a17,17,0,0,1-4.09,8,38.07,38.07,0,0,1,1.33-16.31,98.85,98.85,0,0,1,5.8-15.36s-10.37,14.57-12.72,22A40.45,40.45,0,0,0,4.82,212S4.34,217.19,3,223.72a35.62,35.62,0,0,1-2.8,8.14v3.56H336.09Z" transform="translate(0.43)" style="fill: rgb(139, 98, 103);"/><path class="cls-48" d="M336.09,232.58c-.09.41-.19.79-.29,1.11a31.79,31.79,0,0,0-.35-3.16,12,12,0,0,0-2.6-5.15,15.43,15.43,0,0,1,.95,4.9,7.89,7.89,0,0,1-.44,1.94c-.06-.76-.15-1.52-.28-2.24-.85-5-2.59-7.22-2.59-7.22a43.3,43.3,0,0,1,.94,11.77l0,.3a10.26,10.26,0,0,1-.7-1.85,25.38,25.38,0,0,1-.68-4.06,28.78,28.78,0,0,0-.46,3.45,15.55,15.55,0,0,1,.86-7.16s-2.83,3.52-3.07,7.27a5,5,0,0,1-.46-1.72,40.68,40.68,0,0,1,.68-7.91,22.08,22.08,0,0,0-2.44,5.64,24.66,24.66,0,0,0-1.16-7.12,71,71,0,0,1-1.08,7,22.21,22.21,0,0,1-2.25,6,42.17,42.17,0,0,0-.12-10.31c-.85-5-2.59-7.21-2.59-7.21a43.3,43.3,0,0,1,.94,11.77,25.18,25.18,0,0,1-.58,3.66c-.05-.53-.13-1.11-.23-1.72a12,12,0,0,0-2.6-5.15,15.24,15.24,0,0,1,.94,4.9,11.25,11.25,0,0,1-1.18,3.74,12.53,12.53,0,0,1-1.69-3,15.43,15.43,0,0,1-1-4.46,75.44,75.44,0,0,1,3.51-8.42,48.08,48.08,0,0,0-6,9.61c-.25.6-.45,1.18-.62,1.73-.09-.56-.19-1.16-.34-1.82a19.86,19.86,0,0,0-4.5-9s2.68,5.53,2.28,9.25a13.48,13.48,0,0,1-1.63,4.73c-.06-.62-.14-1.3-.26-2a12,12,0,0,0-2.6-5.15,15.24,15.24,0,0,1,.94,4.9,12,12,0,0,1-1.27,3.93,5.82,5.82,0,0,1-1.74-3.51,40.68,40.68,0,0,1,.68-7.91,21.75,21.75,0,0,0-2.62,6.41,12.3,12.3,0,0,0-.23,2.67c-.51-1.58-1.13-3.67-1.79-6.17-1.59-6-5.3-8.38-5.3-8.38a24.46,24.46,0,0,1,3.19,8.59,16.14,16.14,0,0,1-.58,8.54c.05-1.13.09-3.25-.06-6a19.11,19.11,0,0,0-2.11-7.5,22.17,22.17,0,0,1,.35,8.69,12.75,12.75,0,0,1-1,2.92c-.05-.15-.09-.3-.14-.45a25,25,0,0,1-.67-4.07,21.21,21.21,0,0,0-.45,4.65c0,.45.09.84.15,1.19a13.21,13.21,0,0,1-1.49-2.82,25,25,0,0,1-1.19-5.39,24.42,24.42,0,0,0-.85,5.54c-.51-2-1.15-4.68-1.84-7.93-1.6-7.55-5.3-10.46-5.3-10.46a35.21,35.21,0,0,1,3.19,10.72,25.09,25.09,0,0,1-.48,10.28c0-1.21.05-3.08-.07-5.37a19.3,19.3,0,0,0-2.11-7.5,22.26,22.26,0,0,1,.34,8.69,12.52,12.52,0,0,1-1.58,4,29.26,29.26,0,0,0-.36-3.17,12,12,0,0,0-2.59-5.15,15.54,15.54,0,0,1,.94,4.9,12.14,12.14,0,0,1-1.29,3.95,11.83,11.83,0,0,1-.82-2.09,25,25,0,0,1-.67-4.07,21.21,21.21,0,0,0-.45,4.65c0,.48.1.9.16,1.26a13.58,13.58,0,0,1-1.54-2.89,25,25,0,0,1-1.19-5.39,25.19,25.19,0,0,0-.85,5.19c-.05-.29-.11-.59-.16-.91a15.39,15.39,0,0,1,.86-7.19s-2.91,3.6-3.08,7.41c-.06,1.26-.05,2.25,0,3a14.09,14.09,0,0,1-1.12-2.21,15.14,15.14,0,0,1-1-6.35,12.88,12.88,0,0,0-1.25,4.52c-.3-1-.63-2.2-1-3.47-1.6-6-5.3-8.38-5.3-8.38a24.46,24.46,0,0,1,3.19,8.59,16.33,16.33,0,0,1-.22,7.37,10.12,10.12,0,0,1-.39-1.14,24.36,24.36,0,0,1-.68-4.07,24.74,24.74,0,0,0-.47,4.07,9,9,0,0,1-.45-1,24.68,24.68,0,0,1-1.2-5.39s-1.09,3.94-.8,6.16c.09.72.21,1.34.32,1.85a23,23,0,0,1-.9-3.73,15.39,15.39,0,0,1,.86-7.19,17,17,0,0,0-2.63,5c0-.58.09-1.2.12-1.85a31.65,31.65,0,0,0-.91-10.51s.17,8.88-1.88,14.3a24.1,24.1,0,0,1-2.37,5,30.26,30.26,0,0,1,.09-5.74c.4-4.33,3.07-9.67,3.07-9.67s-4.27,6.83-4.9,10.31a10.12,10.12,0,0,1-2.45,4.78,22.73,22.73,0,0,1,.8-9.78,58.66,58.66,0,0,1,3.48-9.22s-6.23,8.75-7.63,13.21a24.5,24.5,0,0,0-1.16-7.3,71,71,0,0,1-1.08,7,22.45,22.45,0,0,1-2.67,6.73,11.86,11.86,0,0,1-.4-5.79c.88-5,4.73-10.69,4.73-10.69a27.06,27.06,0,0,0-6.1,8.15,16.71,16.71,0,0,0-1.66,8,14.46,14.46,0,0,1,.39-7.78,75.25,75.25,0,0,1,3.66-8.86,48.08,48.08,0,0,0-6,9.61,17.58,17.58,0,0,0-1,3.42c0-.8,0-1.7-.09-2.67a19.3,19.3,0,0,0-2.11-7.5,22.26,22.26,0,0,1,.34,8.69,11.77,11.77,0,0,1-1.89,4.48,41.24,41.24,0,0,0-.13-10.12c-.85-5-2.59-7.21-2.59-7.21a43.3,43.3,0,0,1,.94,11.77,18.08,18.08,0,0,1-1.28,5.78,12.27,12.27,0,0,1-.89-2.23,25,25,0,0,1-.67-4.07,21.21,21.21,0,0,0-.45,4.65c0,.46.1.87.15,1.22a22.13,22.13,0,0,1-1-4,15.39,15.39,0,0,1,.86-7.19,16.13,16.13,0,0,0-2.85,5.8c-.06-.31-.12-.62-.19-1a19.92,19.92,0,0,0-4.51-9s2.68,5.53,2.28,9.25a14.87,14.87,0,0,1-2.25,5.81c0-1.21,0-3-.08-5.17a19.11,19.11,0,0,0-2.11-7.5,22.17,22.17,0,0,1,.35,8.69,11.87,11.87,0,0,1-1.82,4.38,5.69,5.69,0,0,1-1.6-3.37,40.81,40.81,0,0,1,.68-7.92,21.58,21.58,0,0,0-2.62,6.42c-.06.28-.11.57-.14.84,0-.49,0-1-.07-1.54a19.3,19.3,0,0,0-2.11-7.5,22,22,0,0,1,.34,8.69,12.18,12.18,0,0,1-1.33,3.61c-.54-2-1.42-5.45-2.37-10-1.6-7.55-5.3-10.46-5.3-10.46a35.56,35.56,0,0,1,3.19,10.72,25.14,25.14,0,0,1-.43,10.09,13.68,13.68,0,0,1-1.32-2.57,25.37,25.37,0,0,1-1.2-5.39s-.32,1.18-.57,2.6a19.42,19.42,0,0,0-2.09-7.32,22.26,22.26,0,0,1,.34,8.69,13.09,13.09,0,0,1-1.28,3.52c-.55-1.66-1.35-4.22-2.21-7.49-1.6-6-5.3-8.38-5.3-8.38A24.46,24.46,0,0,1,188.2,226a16.46,16.46,0,0,1-.18,7.23c-.06-.74-.16-1.63-.32-2.61a12,12,0,0,0-2.59-5.15,15.54,15.54,0,0,1,.94,4.9,10.45,10.45,0,0,1-1,3.31c0-1.21,0-3-.08-5.11a19.3,19.3,0,0,0-2.11-7.5,22,22,0,0,1,.34,8.69,12.47,12.47,0,0,1-1.33,3.61c-.55-2-1.42-5.45-2.37-10-1.6-7.55-5.3-10.46-5.3-10.46a35.56,35.56,0,0,1,3.19,10.72,25.33,25.33,0,0,1-.43,10.09,13.11,13.11,0,0,1-1.32-2.57,15.93,15.93,0,0,1-.49-1.58c.12-1,.22-2.24.29-3.6a31.65,31.65,0,0,0-.91-10.51s.17,8.88-1.88,14.3a36.62,36.62,0,0,1-1.69,3.88,22.7,22.7,0,0,1-.85-3.6,15.39,15.39,0,0,1,.86-7.19s-2.91,3.6-3.08,7.41c-.06,1.3-.05,2.32,0,3.09a23.22,23.22,0,0,1,.93-8.67,60,60,0,0,1,3.48-9.22s-6.44,9-7.7,13.44a15.54,15.54,0,0,0-.36,1.65l-.09-.51a15.39,15.39,0,0,1,.86-7.19s-2.91,3.6-3.08,7.41c-.06,1.26,0,2.25,0,3a14.09,14.09,0,0,1-1.12-2.21,15.14,15.14,0,0,1-1-6.35,12.88,12.88,0,0,0-1.25,4.52c-.3-1-.63-2.2-1-3.47-1.6-6-5.3-8.38-5.3-8.38a24.46,24.46,0,0,1,3.19,8.59,16.33,16.33,0,0,1-.22,7.37,10.12,10.12,0,0,1-.39-1.14,25.59,25.59,0,0,1-.68-4.07,24.74,24.74,0,0,0-.47,4.07,11,11,0,0,1-.45-1,24.68,24.68,0,0,1-1.2-5.39s-1.09,3.94-.8,6.16c.09.72.21,1.34.32,1.85a23,23,0,0,1-.9-3.73,15.39,15.39,0,0,1,.86-7.19,17.56,17.56,0,0,0-2.23,3.85c0-.24,0-.48.05-.73a31.45,31.45,0,0,0-.92-10.51s.17,8.88-1.88,14.3a24.3,24.3,0,0,1-2.36,5,30.85,30.85,0,0,1,.08-5.74c.4-4.33,3.08-9.67,3.08-9.67s-4.28,6.83-4.91,10.31a10.12,10.12,0,0,1-2.45,4.78,22.89,22.89,0,0,1,.8-9.78,60,60,0,0,1,3.48-9.22,89.53,89.53,0,0,0-6.86,11.29,25.18,25.18,0,0,0-1.08-5.38s-.29,3.11-1.09,7a22.51,22.51,0,0,1-2.66,6.73,11.82,11.82,0,0,1-.41-5.79c.88-5,4.74-10.69,4.74-10.69a26.88,26.88,0,0,0-6.1,8.15,16.76,16.76,0,0,0-1.67,8,14.59,14.59,0,0,1,.4-7.78,74.23,74.23,0,0,1,3.65-8.86,48.08,48.08,0,0,0-6,9.61,17.49,17.49,0,0,0-1,3.42c0-.8,0-1.7-.1-2.67a19.3,19.3,0,0,0-2.11-7.5,22,22,0,0,1,.34,8.69,11.79,11.79,0,0,1-1.88,4.48,42.26,42.26,0,0,0-.13-10.12c-.86-5-2.6-7.21-2.6-7.21a43.3,43.3,0,0,1,.94,11.77,23.23,23.23,0,0,1-.82,4.58,21.4,21.4,0,0,0-5-14.58s2.68,5.53,2.28,9.25a13.47,13.47,0,0,1-1.62,4.73q-.09-.93-.27-2a12,12,0,0,0-2.59-5.15,15.54,15.54,0,0,1,.94,4.9,12,12,0,0,1-1.28,3.93,5.82,5.82,0,0,1-1.74-3.51,40.38,40.38,0,0,1,.69-7.91,21.63,21.63,0,0,0-2.63,6.41,12.3,12.3,0,0,0-.23,2.67c-.5-1.58-1.12-3.67-1.78-6.17-1.6-6-5.3-8.38-5.3-8.38a24.7,24.7,0,0,1,3.19,8.59,16.11,16.11,0,0,1-.59,8.54c.05-1.13.1-3.25,0-6a19.3,19.3,0,0,0-2.11-7.5,22,22,0,0,1,.34,8.69,12.44,12.44,0,0,1-1.53,4,11.54,11.54,0,0,1-.53-1.48,24.36,24.36,0,0,1-.68-4.07,21.21,21.21,0,0,0-.45,4.65c0,.45.1.84.15,1.19a13.68,13.68,0,0,1-1.48-2.82,25.37,25.37,0,0,1-1.2-5.39,24,24,0,0,0-.84,5.54c-.51-2-1.16-4.68-1.85-7.93-1.59-7.55-5.29-10.46-5.29-10.46a35.41,35.41,0,0,1,3.18,10.72A24.91,24.91,0,0,1,91,233.91c0-1.21.06-3.08-.07-5.37a19.3,19.3,0,0,0-2.11-7.5,22,22,0,0,1,.34,8.69,12.29,12.29,0,0,1-1.58,4,29.26,29.26,0,0,0-.36-3.17,11.9,11.9,0,0,0-2.59-5.15,15.54,15.54,0,0,1,.94,4.9,12.65,12.65,0,0,1-1.4,4.18c0-1.13.1-3.25,0-6A19.3,19.3,0,0,0,82,221a22.26,22.26,0,0,1,.34,8.69,13.09,13.09,0,0,1-1.28,3.52c-.55-1.66-1.35-4.22-2.21-7.49-1.6-6-5.3-8.38-5.3-8.38A24.46,24.46,0,0,1,76.75,226a16.42,16.42,0,0,1-.27,7.57,10.84,10.84,0,0,1-.74-1.93,24.16,24.16,0,0,1-.68-4.06,21.12,21.12,0,0,0-.45,4.65l.06.52a4.94,4.94,0,0,1-.59-2,40.38,40.38,0,0,1,.69-7.91,21.63,21.63,0,0,0-2.63,6.41,12.24,12.24,0,0,0-.18,3.59,14.07,14.07,0,0,1-.79-1.7,23.46,23.46,0,0,1-1.06-4.4,37.73,37.73,0,0,1,2.69-7.38s-4.28,6.83-4.9,10.31A9.83,9.83,0,0,1,66,233.83a12.18,12.18,0,0,1,0-4.49c.88-5,4.73-10.69,4.73-10.69a27.06,27.06,0,0,0-6.1,8.15A18.58,18.58,0,0,0,63.16,231c-.44-1.45-1-3.22-1.5-5.28-1.6-6-5.3-8.38-5.3-8.38A24.7,24.7,0,0,1,59.55,226a16.42,16.42,0,0,1-.2,7.27,9,9,0,0,1-.35-1,25.59,25.59,0,0,1-.68-4.07,21.21,21.21,0,0,0-.45,4.65c.05.45.1.84.15,1.19a13.68,13.68,0,0,1-1.48-2.82,25.37,25.37,0,0,1-1.2-5.39,24,24,0,0,0-.84,5.54c-.51-2-1.16-4.68-1.84-7.93-1.6-7.55-5.3-10.46-5.3-10.46a35.56,35.56,0,0,1,3.19,10.72,25.27,25.27,0,0,1-.48,10.28c0-1.21,0-3.08-.08-5.37a19.3,19.3,0,0,0-2.11-7.5,22,22,0,0,1,.34,8.69,12.29,12.29,0,0,1-1.58,4,31.63,31.63,0,0,0-.35-3.17,12,12,0,0,0-2.6-5.15,15.24,15.24,0,0,1,.94,4.9,10.63,10.63,0,0,1-1.05,3.45c-.55-1.61-1.43-4.38-2.39-8-1.6-6-5.3-8.38-5.3-8.38A24.46,24.46,0,0,1,39.08,226a16.12,16.12,0,0,1-.72,8.9A19.26,19.26,0,0,1,37,230a15.46,15.46,0,0,1,.85-7.19s-2.9,3.6-3.07,7.4a12.28,12.28,0,0,0-2.53-4.81,15.54,15.54,0,0,1,.94,4.9,8.5,8.5,0,0,1-.63,2.46c-.55-2.06-1.36-5.29-2.24-9.43-1.59-7.55-5.29-10.46-5.29-10.46a35.41,35.41,0,0,1,3.18,10.72,25.5,25.5,0,0,1,.1,7.37c0-.74,0-1.57-.09-2.46a19.3,19.3,0,0,0-2.11-7.5,22,22,0,0,1,.34,8.69,11.45,11.45,0,0,1-2.05,4.7,42.32,42.32,0,0,0-.11-10.34c-.86-5-2.6-7.21-2.6-7.21a43.1,43.1,0,0,1,1,11.77,24,24,0,0,1-.71,4.17,12.24,12.24,0,0,1-.77-1.67,25.37,25.37,0,0,1-1.2-5.39s-1.08,3.94-.8,6.16c.08.63.18,1.18.28,1.65a13.37,13.37,0,0,1-1.31-2.51,14.87,14.87,0,0,1-1-4,22.32,22.32,0,0,1,.59-2.42,60,60,0,0,1,3.48-9.22s-5.89,8.27-7.5,12.83c-.23-.79-.46-1.63-.7-2.53-1.59-6-5.29-8.38-5.29-8.38A24.59,24.59,0,0,1,11,226a16.39,16.39,0,0,1-.25,7.51c-.06-.8-.16-1.79-.34-2.89a12,12,0,0,0-2.59-5.15,15.54,15.54,0,0,1,.94,4.9A11.51,11.51,0,0,1,7.57,234c0-1.21,0-3.11-.08-5.47A19.11,19.11,0,0,0,5.38,221a22.17,22.17,0,0,1,.35,8.69,13,13,0,0,1-1.29,3.54A22.91,22.91,0,0,1,3.7,230a15.39,15.39,0,0,1,.86-7.19s-2.91,3.6-3.08,7.41a31.6,31.6,0,0,0,0,3.41A11.37,11.37,0,0,1,1,232.2a23.63,23.63,0,0,1-.65-3.86,34.88,34.88,0,0,1,3-9S1.62,222,.21,224.89v10.53H336.09Z" transform="translate(0.43)" style="fill: rgb(95, 66, 103);"/><path class="cls-49" d="M290.49,175a4.62,4.62,0,0,1,1.11,0,5.28,5.28,0,0,1-.7-.83c-.5-.77-.5-1.33-.19-1.53s.82,0,1.33.79a3.46,3.46,0,0,1,.61,1.69h0l.07,0s.91.45,2.39,1.31c-.08-.13-.16-.27-.23-.41-.52-1-.46-1.69-.05-1.91s1,.14,1.52,1.14a4.18,4.18,0,0,1,.54,2.15v.09c1.18.73,2.58,1.64,4.12,2.72-.1-.21-.2-.42-.29-.64-.49-1.29-.33-2.13.19-2.34s1.2.29,1.69,1.58a5.07,5.07,0,0,1,.38,2.68.51.51,0,0,1,0,.13c1.42,1,2.92,2.22,4.48,3.52-.09-.23-.18-.46-.25-.7-.46-1.56-.19-2.54.44-2.74s1.38.45,1.84,2a6.32,6.32,0,0,1,.2,3.19l0,.14c.92.82,1.85,1.67,2.78,2.58.51.48,1,1,1.54,1.52-.13-.32-.25-.65-.35-1-.52-1.81-.2-2.93.53-3.16s1.59.53,2.11,2.34a7.32,7.32,0,0,1,.2,3.68,1,1,0,0,1-.21.52c1.35,1.46,2.71,3.05,4.07,4.75a11,11,0,0,1-.23-1.74c-.1-2.14.54-3.31,1.39-3.38s1.6,1,1.7,3.13a8.29,8.29,0,0,1-.73,4.14,1.81,1.81,0,0,1-.2.37c1.3,1.76,2.58,3.63,3.82,5.62a11.87,11.87,0,0,1-.11-1.58c0-2.4.77-3.67,1.73-3.7s1.73,1.19,1.73,3.58a9.37,9.37,0,0,1-1,4.6,1.43,1.43,0,0,1-.32.48c1.07,1.91,2.08,3.92,3,6a14.48,14.48,0,0,1,0-1.61c.23-2.64,1.2-4,2.26-3.92s1.78,1.47,1.55,4.12a10.37,10.37,0,0,1-1.58,5,1.38,1.38,0,0,1-.53.58q1.29,3.34,2.31,7l-.76-.08q-1-3.43-2.21-6.6a2.28,2.28,0,0,1-.46,0,10.2,10.2,0,0,1-5-1.49c-2.29-1.3-3-2.71-2.49-3.62s2.18-1,4.48.33a14,14,0,0,1,2.09,1.48c-1-2.38-2.17-4.64-3.37-6.78a1.8,1.8,0,0,1-.5.06,9.23,9.23,0,0,1-4.6-1c-2.18-1-3-2.21-2.54-3.07s1.9-1,4.08,0a12.56,12.56,0,0,1,1.83,1c-1.3-2.12-2.66-4.12-4-6a1.58,1.58,0,0,1-.48.09,8.5,8.5,0,0,1-4.16-.66c-2-.8-2.75-1.85-2.4-2.64s1.65-1,3.65-.2a10.15,10.15,0,0,1,1.2.57q-1.91-2.37-3.8-4.42l-.12,0a7.51,7.51,0,0,1-3.76.25c-1.89-.29-2.76-1-2.61-1.78s1.24-1.18,3.12-.89a11.19,11.19,0,0,1,1.44.34c-.61-.63-1.22-1.23-1.81-1.8-.91-.88-1.82-1.72-2.71-2.51a1.3,1.3,0,0,1-.33.14,6.45,6.45,0,0,1-3.25.24c-1.64-.23-2.4-.88-2.28-1.51s1.06-1,2.7-.8a9,9,0,0,1,1.27.28c-1.68-1.41-3.29-2.67-4.8-3.79a.6.6,0,0,1-.16.08,5.67,5.67,0,0,1-2.73.41c-1.4-.1-2.09-.59-2-1.14s.84-.93,2.24-.84c.25,0,.5.05.74.09-1.55-1.08-2.94-2-4.12-2.72a4.65,4.65,0,0,1-2.21.57c-1.15,0-1.75-.3-1.75-.75s.59-.83,1.75-.87h.45c-1.45-.84-2.3-1.26-2.33-1.27l-.07-.06a3.79,3.79,0,0,1-1.69.6c-.93.13-1.45-.1-1.49-.46S289.56,175.1,290.49,175Z" transform="translate(0.43)" style="fill: rgb(139, 98, 103);"/><path class="cls-48" d="M280.91,193.56a4.89,4.89,0,0,1,1.09-.25,4.09,4.09,0,0,1-.86-.67c-.64-.64-.76-1.19-.5-1.46s.81-.14,1.46.51a3.33,3.33,0,0,1,.94,1.53h.08s1,.26,2.61.8a3.38,3.38,0,0,1-.31-.35c-.71-.87-.8-1.57-.44-1.86s1-.07,1.72.81a4.07,4.07,0,0,1,1,2s0,.06,0,.08c1.31.48,2.86,1.09,4.59,1.83a4.57,4.57,0,0,1-.41-.57c-.75-1.16-.76-2-.29-2.32s1.23,0,2,1.2a5.27,5.27,0,0,1,.91,2.55v.13c1.6.73,3.31,1.58,5.1,2.54-.13-.21-.26-.42-.38-.64-.77-1.43-.71-2.44-.13-2.77s1.44.16,2.21,1.6a6.19,6.19,0,0,1,.84,3.07.38.38,0,0,1,0,.15c1.07.62,2.15,1.27,3.25,2,.59.38,1.2.77,1.81,1.18-.19-.28-.37-.58-.54-.89-.87-1.66-.78-2.83-.12-3.19s1.66.19,2.54,1.86A7.14,7.14,0,0,1,310,206a1,1,0,0,1-.1.55q2.43,1.74,4.95,3.83a11.22,11.22,0,0,1-.58-1.66c-.53-2.07-.14-3.35.68-3.59s1.77.65,2.3,2.72a8.29,8.29,0,0,1,.12,4.2,1.83,1.83,0,0,1-.12.41c1.63,1.46,3.26,3,4.88,4.73a12.79,12.79,0,0,1-.43-1.53c-.49-2.35,0-3.75.94-4s1.94.81,2.43,3.16a9.34,9.34,0,0,1-.09,4.71,1.51,1.51,0,0,1-.22.54q2.14,2.48,4.19,5.27a12.34,12.34,0,0,1-.29-1.59c-.31-2.63.37-4.14,1.41-4.3s2.05,1.08,2.36,3.72a10.48,10.48,0,0,1-.54,5.2,1.44,1.44,0,0,1-.4.68q1.93,3,3.68,6.36l-.77.07c-1.1-2.11-2.27-4.11-3.49-6a1.85,1.85,0,0,1-.45.11,10.23,10.23,0,0,1-5.18-.45c-2.5-.81-3.52-2-3.17-3s2-1.39,4.46-.58a13,13,0,0,1,2.35,1c-1.51-2.12-3.08-4.11-4.68-6a1.61,1.61,0,0,1-.47.16,9.38,9.38,0,0,1-4.71,0c-2.33-.54-3.35-1.57-3.11-2.49s1.66-1.4,4-.87a13.11,13.11,0,0,1,2,.65c-1.71-1.81-3.44-3.5-5.17-5.05a1.52,1.52,0,0,1-.46.19,8.32,8.32,0,0,1-4.2.19c-2.11-.38-3.07-1.26-2.89-2.09s1.42-1.32,3.54-.94a11.57,11.57,0,0,1,1.29.32c-1.56-1.29-3.11-2.48-4.62-3.57a.41.41,0,0,1-.11.07,7.51,7.51,0,0,1-3.63,1c-1.91.1-2.91-.45-2.92-1.2s1-1.41,2.88-1.51a10.37,10.37,0,0,1,1.48,0c-.73-.49-1.44-1-2.14-1.4-1.07-.68-2.13-1.31-3.16-1.91a1.45,1.45,0,0,1-.29.21,6.55,6.55,0,0,1-3.14.89c-1.65.1-2.52-.37-2.54-1s.83-1.23,2.49-1.33a9.41,9.41,0,0,1,1.3,0c-1.93-1-3.76-2-5.47-2.75l-.14.11a5.58,5.58,0,0,1-2.59.95c-1.4.2-2.17-.15-2.22-.7s.63-1.08,2-1.27a6.37,6.37,0,0,1,.74-.07c-1.73-.74-3.28-1.35-4.58-1.82a4.72,4.72,0,0,1-2,1c-1.12.27-1.78.06-1.87-.38s.42-.94,1.54-1.21a3.43,3.43,0,0,1,.44-.09c-1.58-.53-2.5-.77-2.53-.77l-.08,0a4.1,4.1,0,0,1-1.54.93c-.89.31-1.44.19-1.55-.15S280,193.87,280.91,193.56Z" transform="translate(0.43)" style="fill: rgb(95, 66, 103);"/><path class="cls-49" d="M.12,224.39V229C2,227.61,2.56,226.2,2,225.24A2,2,0,0,0,.12,224.39Z" transform="translate(0.43)" style="fill: rgb(139, 98, 103);"/><path class="cls-49" d="M45.64,173.25a6.89,6.89,0,0,0-1.43,0,5.6,5.6,0,0,0,.9-1.07c.65-1,.66-1.72.26-2s-1.07,0-1.72,1a4.43,4.43,0,0,0-.8,2.19v0l-.09,0s-1.17.58-3.09,1.69c.1-.17.21-.34.3-.52.67-1.3.59-2.2.06-2.47s-1.3.17-2,1.47a5.49,5.49,0,0,0-.7,2.79s0,.07,0,.11c-1.54.95-3.34,2.12-5.34,3.52a8.84,8.84,0,0,0,.38-.83c.64-1.67.43-2.75-.25-3s-1.55.37-2.19,2a6.77,6.77,0,0,0-.49,3.47l0,.17c-1.83,1.35-3.78,2.87-5.8,4.56.12-.3.23-.6.32-.91.61-2,.26-3.28-.56-3.55s-1.79.59-2.38,2.61a8,8,0,0,0-.26,4.12l0,.19q-1.77,1.58-3.59,3.33c-.66.63-1.32,1.29-2,2,.17-.41.32-.84.45-1.27.67-2.34.25-3.79-.69-4.08s-2,.68-2.72,3a9.27,9.27,0,0,0-.26,4.76,1.36,1.36,0,0,0,.26.67c-1.74,1.9-3.5,3.95-5.26,6.16a14,14,0,0,0,.3-2.26c.13-2.77-.7-4.28-1.8-4.37s-2.07,1.28-2.21,4.05a10.83,10.83,0,0,0,.95,5.35,2.46,2.46,0,0,0,.26.49c-1.51,2-3,4.22-4.44,6.51v1.72c1.67-2.72,3.41-5.28,5.18-7.68a1.8,1.8,0,0,0,.62.12,10.91,10.91,0,0,0,5.38-.86c2.58-1,3.56-2.4,3.11-3.41s-2.14-1.3-4.72-.26a13.07,13.07,0,0,0-1.56.74c1.64-2.05,3.29-4,4.92-5.73l.16.05a9.74,9.74,0,0,0,4.86.33c2.45-.38,3.57-1.34,3.39-2.3s-1.61-1.53-4.05-1.15a12.6,12.6,0,0,0-1.86.44c.79-.81,1.57-1.59,2.34-2.33,1.18-1.14,2.35-2.22,3.51-3.26a1.26,1.26,0,0,0,.42.19,8.47,8.47,0,0,0,4.21.32c2.12-.31,3.1-1.14,2.95-2s-1.38-1.34-3.5-1a11.44,11.44,0,0,0-1.64.37c2.17-1.83,4.26-3.46,6.21-4.91a1,1,0,0,0,.21.1,7.24,7.24,0,0,0,3.53.53c1.82-.12,2.7-.76,2.63-1.47s-1.08-1.21-2.9-1.09a7.47,7.47,0,0,0-1,.12c2-1.4,3.8-2.57,5.33-3.52a6,6,0,0,0,2.85.74c1.5.05,2.27-.39,2.28-1s-.78-1.08-2.28-1.14h-.57c1.87-1.09,3-1.63,3-1.65a.28.28,0,0,0,.09-.07,5,5,0,0,0,2.19.78c1.2.16,1.87-.13,1.92-.6S46.85,173.41,45.64,173.25Z" transform="translate(0.43)" style="fill: rgb(139, 98, 103);"/><path class="cls-49" d="M2.44,213.63A15.47,15.47,0,0,0,.12,215v3.94a15.34,15.34,0,0,0,4.32-1.24c2.81-1.29,3.83-2.86,3.28-4S5.26,212.34,2.44,213.63Z" transform="translate(0.43)" style="fill: rgb(139, 98, 103);"/><path class="cls-51" d="M58,197.29a6.09,6.09,0,0,0-1.4-.31,5.92,5.92,0,0,0,1.1-.87c.84-.84,1-1.55.66-1.89s-1.06-.18-1.89.65a4.46,4.46,0,0,0-1.23,2h-.09s-1.27.32-3.38,1c.14-.15.28-.3.4-.45.92-1.14,1-2,.57-2.41s-1.31-.1-2.23,1a5.45,5.45,0,0,0-1.25,2.59s0,.07,0,.11c-1.69.62-3.7,1.4-5.94,2.37.19-.24.38-.49.54-.74,1-1.5,1-2.61.37-3s-1.59.05-2.56,1.55a6.76,6.76,0,0,0-1.18,3.3v.17c-2.07.95-4.28,2-6.6,3.29.17-.27.34-.54.49-.83,1-1.85.92-3.16.17-3.58s-1.87.2-2.86,2.06a8.1,8.1,0,0,0-1.09,4v.19q-2.07,1.19-4.2,2.54c-.77.48-1.55,1-2.34,1.52.25-.37.48-.76.69-1.15,1.13-2.15,1-3.66.16-4.14s-2.15.26-3.28,2.41a9.31,9.31,0,0,0-1.22,4.61,1.3,1.3,0,0,0,.12.71c-2.09,1.51-4.23,3.16-6.4,5a14.39,14.39,0,0,0,.75-2.15c.69-2.69.19-4.34-.88-4.65s-2.28.83-3,3.52a10.66,10.66,0,0,0-.16,5.43,1.75,1.75,0,0,0,.16.53q-3.18,2.84-6.32,6.12a14.77,14.77,0,0,0,.56-2c.63-3,0-4.86-1.23-5.15s-2.5,1.05-3.13,4.09a12.11,12.11,0,0,0,.11,6.1,2.31,2.31,0,0,0,.28.7c-.4.46-.8.94-1.2,1.42v1.48c.62-.77,1.24-1.54,1.88-2.27a2.17,2.17,0,0,0,.61.21,12,12,0,0,0,6.09,0c3-.7,4.34-2,4-3.23s-2.14-1.81-5.16-1.12a15.82,15.82,0,0,0-2.6.85c2.21-2.36,4.46-4.53,6.7-6.54a1.75,1.75,0,0,0,.58.24,10.78,10.78,0,0,0,5.44.25c2.74-.49,4-1.62,3.74-2.71s-1.84-1.7-4.57-1.21a13.28,13.28,0,0,0-1.68.41c2-1.67,4-3.21,6-4.61l.15.08a9.7,9.7,0,0,0,4.69,1.3c2.47.13,3.76-.59,3.78-1.56s-1.26-1.82-3.73-2a13.46,13.46,0,0,0-1.91.05c.94-.63,1.86-1.23,2.77-1.81,1.38-.87,2.75-1.7,4.09-2.47a2,2,0,0,0,.37.27,8.63,8.63,0,0,0,4.06,1.16c2.14.13,3.27-.49,3.29-1.33s-1.08-1.59-3.22-1.72a11.75,11.75,0,0,0-1.68,0c2.5-1.35,4.87-2.53,7.07-3.54l.19.14a7.21,7.21,0,0,0,3.35,1.23c1.81.25,2.8-.2,2.87-.91s-.81-1.4-2.61-1.65a7.77,7.77,0,0,0-1-.08c2.24-1,4.24-1.75,5.93-2.37a5.86,5.86,0,0,0,2.64,1.3c1.46.36,2.31.08,2.43-.49s-.54-1.21-2-1.57l-.56-.11c2.05-.68,3.24-1,3.28-1l.1,0a5.09,5.09,0,0,0,2,1.2c1.15.4,1.86.25,2-.19S59.19,197.7,58,197.29Z" transform="translate(0.43)" style="fill: rgb(109, 52, 83);"/><path class="cls-51" d="M336.09,199.4c-1.23-2.39-2.49-4.65-3.76-6.76a1.28,1.28,0,0,0,.39-.6,9.15,9.15,0,0,0,.69-4.67c-.18-2.4-1.07-3.57-2-3.48s-1.66,1.43-1.47,3.83a11.63,11.63,0,0,0,.18,1.32c-.52-.79-1-1.56-1.54-2.31-.94-1.37-1.89-2.69-2.83-3.94l.08-.18a8.18,8.18,0,0,0,.56-4.05c-.18-2.08-1-3.09-1.8-3s-1.43,1.25-1.25,3.33c0,.31.08.63.13,1-1.62-2-3.21-3.9-4.72-5.58a.76.76,0,0,0,.06-.16,6.62,6.62,0,0,0,.22-3.46c-.29-1.74-1-2.54-1.73-2.41s-1.12,1.14-.83,2.88a8.63,8.63,0,0,0,.2.88c-1.67-1.75-3.18-3.25-4.48-4.47a.43.43,0,0,0,0-.11,5.43,5.43,0,0,0-.12-2.85c-.39-1.39-1.06-2-1.62-1.81s-.82,1-.43,2.41c.05.19.12.38.19.57-1.64-1.47-2.64-2.24-2.67-2.26l-.08,0v0a4.35,4.35,0,0,0-.34-2.28c-.43-1.09-1-1.51-1.46-1.33s-.58.88-.15,2a5.45,5.45,0,0,0,.67,1.21,6.81,6.81,0,0,0-1.4-.26c-1.2-.08-1.87.26-1.91.72s.54.88,1.75,1a5,5,0,0,0,2.28-.32.27.27,0,0,0,.07.08s1,.78,2.59,2.2a5.59,5.59,0,0,0-.56-.12c-1.46-.24-2.31.09-2.43.65s.55,1.14,2,1.39a6,6,0,0,0,2.91-.15c1.3,1.22,2.81,2.72,4.48,4.47-.3-.11-.6-.21-.91-.3-1.74-.48-2.81-.18-3,.49s.52,1.46,2.26,1.94a7.18,7.18,0,0,0,3.53.19l.22-.05c1.61,1.78,3.31,3.78,5,6a11,11,0,0,0-1.52-.69c-2-.71-3.29-.46-3.6.31s.48,1.77,2.48,2.49a8.33,8.33,0,0,0,4.15.53,1.36,1.36,0,0,0,.44-.1c.92,1.23,1.84,2.52,2.76,3.85.6.88,1.2,1.79,1.81,2.73a12.24,12.24,0,0,0-1.72-.79c-2.29-.85-3.79-.57-4.15.32s.53,2,2.83,2.9a9.63,9.63,0,0,0,4.78.64h.16c1.23,2,2.45,4.22,3.64,6.53a13.49,13.49,0,0,0-1.36-1c-2.3-1.52-4-1.58-4.64-.68s.05,2.41,2.34,3.92a11.94,11.94,0,0,0,4.6,1.88Z" transform="translate(0.43)" style="fill: rgb(109, 52, 83);"/></g></svg>