<?xml version="1.0" encoding="utf-8"?>
<svg id="master-artboard" viewBox="0 0 1400 980" version="1.1" xmlns="http://www.w3.org/2000/svg" x="0px" y="0px" width="1400px" height="980px" enable-background="new 0 0 1400 980" xmlns:xlink="http://www.w3.org/1999/xlink">
<g transform="matrix(1, 0, 0, 1, 0, 7.105427357601002e-15)">
		<defs>
			<path d="M 0 0 H 1401.900024 V 980 H 0 V 0 Z" id="XMLID_2_"/>
		</defs>
		<clipPath id="XMLID_23_">
			<use overflow="visible" xlink:href="#XMLID_2_"/>
		</clipPath>
		<linearGradient id="XMLID_24_" gradientUnits="userSpaceOnUse" x1="700.9581" y1="625.0837" x2="700.9581" y2="-155.121">
			<stop offset="4.366812e-003" style="stop-color:#FFFFFF"/>
			<stop offset="5.420907e-002" style="stop-color:#FEF0F0"/>
			<stop offset="0.1551" style="stop-color:#FBD9D9"/>
			<stop offset="0.2713" style="stop-color:#F9C7C7"/>
			<stop offset="0.4099" style="stop-color:#F8BABA"/>
			<stop offset="0.5934" style="stop-color:#F7B3B3"/>
			<stop offset="1" style="stop-color:#F7B1B1"/>
		</linearGradient>
		<path d="M 0 0 H 1401.900024 V 980 H 0 V 0 Z" id="XMLID_21_" clip-path="url(#XMLID_23_)" fill="url(#XMLID_24_)"/>
		<linearGradient id="XMLID_25_" gradientUnits="userSpaceOnUse" x1="852.3708" y1="528.9073" x2="852.3708" y2="994.8508">
			<stop offset="4.366812e-003" style="stop-color:#FFFFFF"/>
			<stop offset="5.420907e-002" style="stop-color:#FEF0F0"/>
			<stop offset="0.1551" style="stop-color:#FBD9D9"/>
			<stop offset="0.2713" style="stop-color:#F9C7C7"/>
			<stop offset="0.4099" style="stop-color:#F8BABA"/>
			<stop offset="0.5934" style="stop-color:#F7B3B3"/>
			<stop offset="1" style="stop-color:#F7B1B1"/>
		</linearGradient>
		<path id="XMLID_892_" clip-path="url(#XMLID_23_)" fill="url(#XMLID_25_)" d="M1108.7,760.2l-17.9-90.4l-13.7,68.9&#10;&#9;&#9;&#9;c-18.3-12.5-37.5-25.5-57-38.8l-7.6-38.2l-5.8,29.1c-21.4-14.6-43.2-29.4-65-44.3l-14.5-73l-9.9,49.9l-16.1-81l-13.4,67.4&#10;&#9;&#9;&#9;c-40.3-27.5-79.3-54.1-114.2-78l-9.9-50l-7.6,38.1c-2.8-1.9-5.6-3.9-8.4-5.8L733,439.3l-11.3,56.9c-54.2-37-89.8-61.4-89.8-61.4&#10;&#9;&#9;&#9;l-59,51.4l-13.5-67.9l-19.1,96.2l-87.4,76.1l466.5,394.5l181.5-18l150.9-110.5C1250.9,856.7,1190.9,816.1,1108.7,760.2z"/>
		<g id="XMLID_432_" clip-path="url(#XMLID_23_)">
			<linearGradient id="XMLID_26_" gradientUnits="userSpaceOnUse" x1="366.9075" y1="484.1563" x2="-24.5729" y2="971.6319">
				<stop offset="4.366812e-003" style="stop-color:#FFFFFF"/>
				<stop offset="0.4367" style="stop-color:#F7B1B1"/>
			</linearGradient>
			<path id="XMLID_2137_" fill="url(#XMLID_26_)" d="M661,676.3l2.5,0c-6.8,4.8-13.5,9.8-19.9,15.1c-14.9,12.3-29.4,27.5-32.1,46.7&#10;&#9;&#9;&#9;&#9;c-1.8,12.8,2,25.7,5.1,38.3c5.6,22.8,9.1,46.8,3.8,69.6c-5.4,23.3-19.3,43.5-34,62.3c-20.1,25.5-42.2,49.5-66,71.6H-1.9V245.9&#10;&#9;&#9;&#9;&#9;L661,676.3z"/>
			<linearGradient id="XMLID_27_" gradientUnits="userSpaceOnUse" x1="1075.1422" y1="548.5989" x2="1438.124" y2="973.0777">
				<stop offset="4.366812e-003" style="stop-color:#FFFFFF"/>
				<stop offset="0.4367" style="stop-color:#F7B1B1"/>
			</linearGradient>
			<path id="XMLID_2138_" fill="url(#XMLID_27_)" d="M1400,337.4V980H938.6c-0.3-19.1-2.5-38.4-5.3-57.2&#10;&#9;&#9;&#9;&#9;c-5.1-33.7-12.4-67.8-29.5-97.4c-16-27.7-39.8-50.1-65-69.8c-18.4-14.4-37.7-27.6-57.8-39.5c-5.8-3.5-12.2-7.4-14.2-13.9&#10;&#9;&#9;&#9;&#9;c-1.4-4.7-0.2-9.8,1.5-14.4c1.2-3.4,2.6-6.7,4.2-10l3,0L1400,337.4z"/>
		</g>
		<g id="XMLID_495_" clip-path="url(#XMLID_23_)">
			<linearGradient id="XMLID_28_" gradientUnits="userSpaceOnUse" x1="1269.2004" y1="350.916" x2="1269.2004" y2="489.719">
				<stop offset="0" style="stop-color:#5C5270"/>
				<stop offset="0.5066" style="stop-color:#E77B8A"/>
				<stop offset="1" style="stop-color:#F8D7D7"/>
			</linearGradient>
			<path id="XMLID_497_" fill="url(#XMLID_28_)" d="M1273.2,453.8h-8c-0.5,0-0.8-0.4-0.8-0.8v-41.3c0-0.5,0.4-0.8,0.8-0.8h8&#10;&#9;&#9;&#9;&#9;c0.5,0,0.8,0.4,0.8,0.8v41.3C1274,453.4,1273.7,453.8,1273.2,453.8z"/>
			<path id="XMLID_496_" fill="#FFFFFF" d="M1301.2,415.4h-64.1c-0.5,0-0.9-0.5-0.8-1l3.1-18.4c0-0.2,0.1-0.3,0.2-0.4l14.7-15&#10;&#9;&#9;&#9;&#9;c0.6-0.7-0.1-1.7-0.9-1.3l-10.7,4.9c-0.6,0.3-1.3-0.2-1.2-0.9l5.7-34.6c0-0.1,0.1-0.3,0.2-0.4c2.1-2.7,4.1-5.3,5.6-7.3&#10;&#9;&#9;&#9;&#9;c0.6-0.8-0.4-1.7-1.1-1.2c-0.6,0.5-1.3,1-2,1.5c-0.6,0.4-1.4-0.1-1.3-0.8l0.3-1.7c0-0.1,0.1-0.3,0.2-0.4&#10;&#9;&#9;&#9;&#9;c3.8-4.9,8.5-10.9,11.5-15c0.6-0.8-0.4-1.7-1.1-1.2c-2.2,1.6-4.9,3.6-7.3,5.6c-0.6,0.5-1.4,0-1.3-0.8l7.1-42.7&#10;&#9;&#9;&#9;&#9;c0-0.1,0.1-0.3,0.2-0.4l3.2-4c0.6-0.7-0.3-1.7-1.1-1.2l0,0c-0.6,0.4-1.4-0.1-1.2-0.8l9.3-56.2c0.2-0.9,1.5-0.9,1.6,0l12.1,72.9&#10;&#9;&#9;&#9;&#9;c0.1,0.6-0.5,1.2-1.1,0.9l-5.7-2.5c-0.9-0.4-1.6,0.8-0.9,1.4l8.6,7.2c0.2,0.1,0.3,0.3,0.3,0.5l4.5,26.9c0.1,0.6-0.5,1.2-1.1,0.9&#10;&#9;&#9;&#9;&#9;l-6-2.6c-0.9-0.4-1.6,0.8-0.9,1.4l9,7.5c0.2,0.1,0.3,0.3,0.3,0.5l2.5,15.2c0.1,0.7-0.6,1.2-1.2,0.8l-12-7.4&#10;&#9;&#9;&#9;&#9;c-0.8-0.5-1.7,0.5-1.1,1.2l16.8,20.9c0.1,0.1,0.1,0.2,0.2,0.4l0.3,1.6c0.1,0.7-0.6,1.2-1.2,0.8l-6.6-4.1&#10;&#9;&#9;&#9;&#9;c-0.8-0.5-1.7,0.5-1.1,1.2l10.7,13.4c0.1,0.1,0.1,0.2,0.2,0.4l5.5,33.4C1302.1,414.9,1301.8,415.4,1301.2,415.4z"/>
		</g>
		<g id="XMLID_455_" clip-path="url(#XMLID_23_)">
			<linearGradient id="XMLID_29_" gradientUnits="userSpaceOnUse" x1="992.4913" y1="525.8109" x2="992.4913" y2="689.8763">
				<stop offset="0" style="stop-color:#00364F"/>
				<stop offset="0.2519" style="stop-color:#0F4666"/>
				<stop offset="0.6812" style="stop-color:#E77B8A"/>
				<stop offset="1" style="stop-color:#F8D7D7"/>
			</linearGradient>
			<path d="M 986.799988 596.700012 H 998.199987 V 647.400013 H 986.799988 V 596.700012 Z" id="XMLID_457_" fill="url(#XMLID_29_)"/>
			<path id="XMLID_456_" fill="#FFFFFF" d="M1031.5,602h-78l3.8-23.1l21.2-21.7l-19.1,8.7l7.1-42.9c5.6-7.3,10.7-14,10.8-14.2&#10;&#9;&#9;&#9;&#9;c-0.2,0.1-4.7,3.4-9.7,7.1l0.8-4.7c7.5-9.5,17.6-22.9,17.8-23.2c-0.2,0.2-9.6,6.8-16,12.1l8.9-53.3l7.5-9.4l-6.6,4.1l12.4-74.4&#10;&#9;&#9;&#9;&#9;l15.6,93.7l-14.6-6.4l15.7,13.1l5.6,34l-15-6.5l16.1,13.5l3.4,20.4l-20.8-12.8l23.5,29.3l0.7,4.2l-14.5-8.9l16.4,20.4L1031.5,602&#10;&#9;&#9;&#9;&#9;z"/>
		</g>
		<g id="XMLID_458_" clip-path="url(#XMLID_23_)">
			<linearGradient id="XMLID_30_" gradientUnits="userSpaceOnUse" x1="821.4737" y1="596.915" x2="821.4737" y2="709.8135">
				<stop offset="0" style="stop-color:#5C5270"/>
				<stop offset="0.5066" style="stop-color:#E77B8A"/>
				<stop offset="1" style="stop-color:#F8D7D7"/>
			</linearGradient>
			<path d="M 817.5 645.700012 H 825.4 V 680.600014 H 817.5 V 645.700012 Z" id="XMLID_460_" fill="url(#XMLID_30_)"/>
			<path id="XMLID_459_" fill="#FFFFFF" d="M848.3,649.4h-53.7l2.6-15.9l14.6-14.9l-13.1,6l4.9-29.5c3.9-5,7.3-9.6,7.4-9.7&#10;&#9;&#9;&#9;&#9;c-0.1,0.1-3.3,2.3-6.6,4.9l0.5-3.2c5.1-6.5,12.1-15.7,12.3-15.9c-0.2,0.1-6.6,4.7-11,8.3l6.1-36.7l5.2-6.4L813,539l8.5-51.2&#10;&#9;&#9;&#9;&#9;l10.7,64.5l-10-4.4l10.8,9l3.9,23.4l-10.3-4.5l11.1,9.3l2.3,14l-14.3-8.8l16.2,20.2l0.5,2.9l-9.9-6.1l11.3,14L848.3,649.4z"/>
		</g>
		<g id="XMLID_524_" clip-path="url(#XMLID_23_)">
			<linearGradient id="XMLID_31_" gradientUnits="userSpaceOnUse" x1="494.0747" y1="554.0875" x2="494.0747" y2="724.7798">
				<stop offset="0" style="stop-color:#5C5270"/>
				<stop offset="0.5066" style="stop-color:#E77B8A"/>
				<stop offset="1" style="stop-color:#F8D7D7"/>
			</linearGradient>
			<path d="M 488.100006 627.799988 H 500.000006 V 680.599987 H 488.100006 V 627.799988 Z" id="XMLID_526_" fill="url(#XMLID_31_)"/>
			<path id="XMLID_525_" fill="#FFFFFF" d="M534.7,633.4h-81.2l4-24.1l22.1-22.6l-19.8,9l7.4-44.6c5.8-7.6,11.1-14.5,11.3-14.7&#10;&#9;&#9;&#9;&#9;c-0.2,0.1-4.9,3.5-10,7.4l0.8-4.9c7.8-9.9,18.3-23.8,18.5-24.1c-0.2,0.2-10,7.1-16.6,12.6l9.2-55.5l7.8-9.7l-6.9,4.3l12.9-77.4&#10;&#9;&#9;&#9;&#9;l16.2,97.5l-15.2-6.6l16.3,13.6l5.9,35.3l-15.6-6.8l16.8,14l3.5,21.2L500.4,544l24.5,30.5l0.7,4.4l-15-9.3l17,21.2L534.7,633.4z"/>
		</g>
		<g id="XMLID_434_" clip-path="url(#XMLID_23_)">
			<linearGradient id="XMLID_32_" gradientUnits="userSpaceOnUse" x1="414.076" y1="485.6609" x2="414.076" y2="733.7132">
				<stop offset="0" style="stop-color:#00364F"/>
				<stop offset="0.2519" style="stop-color:#0F4666"/>
				<stop offset="0.6812" style="stop-color:#E77B8A"/>
				<stop offset="1" style="stop-color:#F8D7D7"/>
			</linearGradient>
			<path d="M 405.399994 592.799988 H 422.699993 V 669.499985 H 405.399994 V 592.799988 Z" id="XMLID_441_" fill="url(#XMLID_32_)"/>
			<linearGradient id="XMLID_33_" gradientUnits="userSpaceOnUse" x1="414.0772" y1="922.4792" x2="414.0772" y2="380.9046">
				<stop offset="0" style="stop-color:#0F4666"/>
				<stop offset="1" style="stop-color:#E77B8A"/>
			</linearGradient>
			<path id="XMLID_435_" fill="url(#XMLID_33_)" d="M473.1,600.9h-118l5.8-35l32.1-32.8l-28.8,13.1l10.8-64.9&#10;&#9;&#9;&#9;&#9;c8.5-11,16.1-21.1,16.4-21.4c-0.2,0.2-7.2,5.1-14.6,10.8l1.2-7.1c11.3-14.4,26.6-34.6,26.9-35c-0.3,0.2-14.5,10.3-24.2,18.3&#10;&#9;&#9;&#9;&#9;l13.4-80.6l11.4-14.2l-10,6.2l18.7-112.4l23.6,141.7l-22-9.6l23.7,19.8l8.5,51.4l-22.6-9.9l24.4,20.3l5.1,30.8L423.3,471&#10;&#9;&#9;&#9;&#9;l35.6,44.4l1.1,6.4l-21.9-13.5l24.7,30.8L473.1,600.9z"/>
		</g>
		<g id="XMLID_421_" clip-path="url(#XMLID_23_)">
			<linearGradient id="XMLID_34_" gradientUnits="userSpaceOnUse" x1="422.728" y1="685.7537" x2="422.728" y2="933.8059">
				<stop offset="0" style="stop-color:#00364F"/>
				<stop offset="0.2519" style="stop-color:#0F4666"/>
				<stop offset="0.6812" style="stop-color:#E77B8A"/>
				<stop offset="1" style="stop-color:#F8D7D7"/>
			</linearGradient>
			<path d="M 414.100006 792.900024 H 431.400005 V 869.600021 H 414.100006 V 792.900024 Z" id="XMLID_431_" fill="url(#XMLID_34_)"/>
			<path id="XMLID_422_" fill="#FFFFFF" d="M481.7,801h-118l5.8-35l32.1-32.8l-28.8,13.1l10.8-64.9c8.5-11,16.1-21.1,16.4-21.4&#10;&#9;&#9;&#9;&#9;c-0.2,0.2-7.2,5.1-14.6,10.8l1.2-7.1c11.3-14.4,26.6-34.6,26.9-35c-0.3,0.2-14.5,10.3-24.2,18.3l13.4-80.6l11.4-14.2l-10,6.2&#10;&#9;&#9;&#9;&#9;L422.7,446l23.6,141.7l-22-9.6l23.7,19.8l8.5,51.4l-22.6-9.9l24.4,20.3l5.1,30.8l-31.4-19.4l35.6,44.4l1.1,6.4l-21.9-13.5&#10;&#9;&#9;&#9;&#9;l24.7,30.8L481.7,801z"/>
		</g>
		<g id="XMLID_467_" clip-path="url(#XMLID_23_)">
			<linearGradient id="XMLID_35_" gradientUnits="userSpaceOnUse" x1="553.0739" y1="628.8708" x2="553.0739" y2="876.9231">
				<stop offset="0" style="stop-color:#00364F"/>
				<stop offset="0.2519" style="stop-color:#0F4666"/>
				<stop offset="0.6812" style="stop-color:#E77B8A"/>
				<stop offset="1" style="stop-color:#F8D7D7"/>
			</linearGradient>
			<path d="M 544.400024 736 H 561.700024 V 812.699997 H 544.400024 V 736 Z" id="XMLID_485_" fill="url(#XMLID_35_)"/>
			<linearGradient id="XMLID_36_" gradientUnits="userSpaceOnUse" x1="553.0751" y1="1065.6891" x2="553.0751" y2="524.1145">
				<stop offset="0" style="stop-color:#0F4666"/>
				<stop offset="1" style="stop-color:#E77B8A"/>
			</linearGradient>
			<path id="XMLID_468_" fill="url(#XMLID_36_)" d="M612.1,744.1h-118l5.8-35l32.1-32.8l-28.8,13.1l10.8-64.9&#10;&#9;&#9;&#9;&#9;c8.5-11,16.1-21.1,16.4-21.4c-0.2,0.2-7.2,5.1-14.6,10.8l1.2-7.1c11.3-14.4,26.6-34.6,26.9-35c-0.3,0.2-14.5,10.3-24.2,18.3&#10;&#9;&#9;&#9;&#9;l13.4-80.6l11.4-14.2l-10,6.2l18.7-112.4l23.6,141.7l-22-9.6l23.7,19.8l8.5,51.4l-22.6-9.9l24.4,20.3l5.1,30.8l-31.4-19.4&#10;&#9;&#9;&#9;&#9;l35.6,44.4l1.1,6.4l-21.9-13.5l24.7,30.8L612.1,744.1z"/>
		</g>
		<g id="XMLID_486_" clip-path="url(#XMLID_23_)">
			<linearGradient id="XMLID_37_" gradientUnits="userSpaceOnUse" x1="138.4951" y1="338.8708" x2="138.4951" y2="586.9231">
				<stop offset="0" style="stop-color:#5C5270"/>
				<stop offset="0.5066" style="stop-color:#E77B8A"/>
				<stop offset="1" style="stop-color:#F8D7D7"/>
			</linearGradient>
			<path d="M 129.800003 446 H 147.100002 V 522.699997 H 129.800003 V 446 Z" id="XMLID_488_" fill="url(#XMLID_37_)"/>
			<path id="XMLID_487_" fill="#FFFFFF" d="M197.5,454.1h-118l5.8-35l32.1-32.8l-28.8,13.1l10.8-64.9c8.5-11,16.1-21.1,16.4-21.4&#10;&#9;&#9;&#9;&#9;c-0.2,0.2-7.2,5.1-14.6,10.8l1.2-7.1c11.3-14.4,26.6-34.6,26.9-35c-0.3,0.2-14.5,10.3-24.2,18.3l13.4-80.6l11.4-14.2l-10,6.2&#10;&#9;&#9;&#9;&#9;l18.7-112.4L162,240.8l-22-9.6l23.7,19.8l8.5,51.4l-22.6-9.9l24.4,20.3l5.1,30.8l-31.4-19.4l35.6,44.4l1.1,6.4l-21.9-13.5&#10;&#9;&#9;&#9;&#9;l24.7,30.8L197.5,454.1z"/>
		</g>
		<g id="XMLID_489_" clip-path="url(#XMLID_23_)">
			<linearGradient id="XMLID_38_" gradientUnits="userSpaceOnUse" x1="919.493" y1="586.4745" x2="919.493" y2="834.5268">
				<stop offset="0" style="stop-color:#00364F"/>
				<stop offset="0.2519" style="stop-color:#0F4666"/>
				<stop offset="0.6812" style="stop-color:#E77B8A"/>
				<stop offset="1" style="stop-color:#F8D7D7"/>
			</linearGradient>
			<path d="M 910.799988 693.599976 H 928.099987 V 770.299973 H 910.799988 V 693.599976 Z" id="XMLID_491_" fill="url(#XMLID_38_)"/>
			<linearGradient id="XMLID_39_" gradientUnits="userSpaceOnUse" x1="919.4943" y1="1023.2928" x2="919.4943" y2="481.7181">
				<stop offset="0" style="stop-color:#0F4666"/>
				<stop offset="1" style="stop-color:#E77B8A"/>
			</linearGradient>
			<path id="XMLID_490_" fill="url(#XMLID_39_)" d="M978.5,701.7h-118l5.8-35l32.1-32.8l-28.8,13.1l10.8-64.9&#10;&#9;&#9;&#9;&#9;c8.5-11,16.1-21.1,16.4-21.4c-0.2,0.2-7.2,5.1-14.6,10.8l1.2-7.1c11.3-14.4,26.6-34.6,26.9-35c-0.3,0.2-14.5,10.3-24.2,18.3&#10;&#9;&#9;&#9;&#9;l13.4-80.6l11.4-14.2l-10,6.2l18.7-112.4L943,488.4l-22-9.6l23.7,19.8l8.5,51.4l-22.6-9.9l24.4,20.3l5.1,30.8l-31.4-19.4&#10;&#9;&#9;&#9;&#9;l35.6,44.4l1.1,6.4l-21.9-13.5l24.7,30.8L978.5,701.7z"/>
		</g>
		<g id="XMLID_492_" clip-path="url(#XMLID_23_)">
			<linearGradient id="XMLID_40_" gradientUnits="userSpaceOnUse" x1="1139.2874" y1="455.1413" x2="1139.2874" y2="703.1935">
				<stop offset="0" style="stop-color:#00364F"/>
				<stop offset="0.2519" style="stop-color:#0F4666"/>
				<stop offset="0.6812" style="stop-color:#E77B8A"/>
				<stop offset="1" style="stop-color:#F8D7D7"/>
			</linearGradient>
			<path d="M 1130.599976 562.299988 H 1147.899975 V 638.999985 H 1130.599976 V 562.299988 Z" id="XMLID_494_" fill="url(#XMLID_40_)"/>
			<linearGradient id="XMLID_41_" gradientUnits="userSpaceOnUse" x1="1139.2886" y1="891.9596" x2="1139.2886" y2="350.3849">
				<stop offset="0" style="stop-color:#00364F"/>
				<stop offset="0.2519" style="stop-color:#0F4666"/>
				<stop offset="0.6812" style="stop-color:#E77B8A"/>
				<stop offset="1" style="stop-color:#F8D7D7"/>
			</linearGradient>
			<path id="XMLID_493_" fill="url(#XMLID_41_)" d="M1198.3,570.4h-118l5.8-35l32.1-32.8l-28.8,13.1l10.8-64.9&#10;&#9;&#9;&#9;&#9;c8.5-11,16.1-21.1,16.4-21.4c-0.2,0.2-7.2,5.1-14.6,10.8l1.2-7.1c11.3-14.4,26.6-34.6,26.9-35c-0.3,0.2-14.5,10.3-24.2,18.3&#10;&#9;&#9;&#9;&#9;l13.4-80.6l11.4-14.2l-10,6.2l18.7-112.4l23.6,141.7l-22-9.6l23.7,19.8l8.5,51.4l-22.6-9.9l24.4,20.3l5.1,30.8l-31.4-19.4&#10;&#9;&#9;&#9;&#9;l35.6,44.4l1.1,6.4l-21.9-13.5l24.7,30.8L1198.3,570.4z"/>
		</g>
		<g id="XMLID_498_" clip-path="url(#XMLID_23_)">
			<linearGradient id="XMLID_42_" gradientUnits="userSpaceOnUse" x1="1236.3347" y1="473.95" x2="1236.3347" y2="722.0022">
				<stop offset="0" style="stop-color:#00364F"/>
				<stop offset="0.2519" style="stop-color:#0F4666"/>
				<stop offset="0.6812" style="stop-color:#E77B8A"/>
				<stop offset="1" style="stop-color:#F8D7D7"/>
			</linearGradient>
			<path d="M 1227.699951 581.099976 H 1244.99995 V 657.799973 H 1227.699951 V 581.099976 Z" id="XMLID_520_" fill="url(#XMLID_42_)"/>
			<linearGradient id="XMLID_43_" gradientUnits="userSpaceOnUse" x1="1236.3359" y1="910.7682" x2="1236.3359" y2="369.1936">
				<stop offset="0" style="stop-color:#00364F"/>
				<stop offset="0.2519" style="stop-color:#0F4666"/>
				<stop offset="0.6812" style="stop-color:#E77B8A"/>
				<stop offset="1" style="stop-color:#F8D7D7"/>
			</linearGradient>
			<path id="XMLID_513_" fill="url(#XMLID_43_)" d="M1295.3,589.2h-118l5.8-35l32.1-32.8l-28.8,13.1l10.8-64.9&#10;&#9;&#9;&#9;&#9;c8.5-11,16.1-21.1,16.4-21.4c-0.2,0.2-7.2,5.1-14.6,10.8l1.2-7.1c11.3-14.4,26.6-34.6,26.9-35c-0.3,0.2-14.5,10.3-24.2,18.3&#10;&#9;&#9;&#9;&#9;l13.4-80.6l11.4-14.2l-10,6.2l18.7-112.4l23.6,141.7l-22-9.6l23.7,19.8l8.5,51.4l-22.6-9.9l24.4,20.3l5.1,30.8l-31.4-19.4&#10;&#9;&#9;&#9;&#9;l35.6,44.4l1.1,6.4l-21.9-13.5l24.7,30.8L1295.3,589.2z"/>
		</g>
		<g id="XMLID_461_" clip-path="url(#XMLID_23_)">
			<linearGradient id="XMLID_44_" gradientUnits="userSpaceOnUse" x1="1198.2853" y1="630.008" x2="1198.2853" y2="878.0603">
				<stop offset="0" style="stop-color:#00364F"/>
				<stop offset="0.2519" style="stop-color:#0F4666"/>
				<stop offset="0.6812" style="stop-color:#E77B8A"/>
				<stop offset="1" style="stop-color:#F8D7D7"/>
			</linearGradient>
			<path d="M 1189.599976 737.099976 H 1206.899975 V 813.799973 H 1189.599976 V 737.099976 Z" id="XMLID_463_" fill="url(#XMLID_44_)"/>
			<path id="XMLID_462_" fill="#FFFFFF" d="M1257.3,745.2h-118l5.8-35l32.1-32.8l-28.8,13.1l10.8-64.9c8.5-11,16.1-21.1,16.4-21.4&#10;&#9;&#9;&#9;&#9;c-0.2,0.2-7.2,5.1-14.6,10.8l1.2-7.1c11.3-14.4,26.6-34.6,26.9-35c-0.3,0.2-14.5,10.3-24.2,18.3l13.4-80.6l11.4-14.2l-10,6.2&#10;&#9;&#9;&#9;&#9;l18.7-112.4l23.6,141.7l-22-9.6l23.7,19.8l8.5,51.4l-22.6-9.9l24.4,20.3l5.1,30.8l-31.4-19.4l35.6,44.4l1.1,6.4l-21.9-13.5&#10;&#9;&#9;&#9;&#9;l24.7,30.8L1257.3,745.2z"/>
		</g>
		<g id="XMLID_464_" clip-path="url(#XMLID_23_)">
			<linearGradient id="XMLID_45_" gradientUnits="userSpaceOnUse" x1="1355.1656" y1="555.2142" x2="1355.1656" y2="1183.3716">
				<stop offset="0" style="stop-color:#00364F"/>
				<stop offset="0.2519" style="stop-color:#0F4666"/>
				<stop offset="0.6812" style="stop-color:#E77B8A"/>
				<stop offset="1" style="stop-color:#F8D7D7"/>
			</linearGradient>
			<path d="M 1333.300049 826.5 H 1377.100048 V 1020.699997 H 1333.300049 V 826.5 Z" id="XMLID_466_" fill="url(#XMLID_45_)"/>
			<linearGradient id="XMLID_46_" gradientUnits="userSpaceOnUse" x1="1355.1687" y1="1661.395" x2="1355.1687" y2="289.9335">
				<stop offset="0" style="stop-color:#0F4666"/>
				<stop offset="1" style="stop-color:#E77B8A"/>
			</linearGradient>
			<path id="XMLID_465_" fill="url(#XMLID_46_)" d="M1504.6,847h-298.8l14.7-88.6l81.3-83l-73,33.3l27.3-164.3&#10;&#9;&#9;&#9;&#9;c21.4-27.8,40.9-53.4,41.4-54.2c-0.6,0.4-18.1,12.9-37,27.2l3-18c28.6-36.4,67.4-87.6,68.2-88.6c-0.8,0.6-36.7,26.1-61.2,46.3&#10;&#9;&#9;&#9;&#9;l33.9-204.1l28.8-35.9l-25.4,15.7L1355.2-52l59.6,358.9l-55.8-24.3l60.1,50.2l21.6,130.1l-57.3-25l61.7,51.5l13,78.1l-79.6-49.1&#10;&#9;&#9;&#9;&#9;l90.1,112.4l2.7,16.2l-55.4-34.2l62.6,78.1L1504.6,847z"/>
		</g>
		<g id="XMLID_514_" clip-path="url(#XMLID_23_)">
			<linearGradient id="XMLID_47_" gradientUnits="userSpaceOnUse" x1="207.724" y1="516.4077" x2="207.724" y2="843.8635">
				<stop offset="0" style="stop-color:#00364F"/>
				<stop offset="0.2519" style="stop-color:#0F4666"/>
				<stop offset="0.6812" style="stop-color:#E77B8A"/>
				<stop offset="1" style="stop-color:#F8D7D7"/>
			</linearGradient>
			<path d="M 196.300003 657.799988 H 219.100002 V 758.999985 H 196.300003 V 657.799988 Z" id="XMLID_516_" fill="url(#XMLID_47_)"/>
			<linearGradient id="XMLID_48_" gradientUnits="userSpaceOnUse" x1="207.7256" y1="1093.0551" x2="207.7256" y2="378.118">
				<stop offset="0" style="stop-color:#00364F"/>
				<stop offset="0.2519" style="stop-color:#0F4666"/>
				<stop offset="0.6812" style="stop-color:#E77B8A"/>
				<stop offset="1" style="stop-color:#F8D7D7"/>
			</linearGradient>
			<path id="XMLID_515_" fill="url(#XMLID_48_)" d="M285.6,668.5H129.8l7.7-46.2l42.4-43.3l-38.1,17.3l14.2-85.6&#10;&#9;&#9;&#9;&#9;c11.2-14.5,21.3-27.9,21.6-28.3c-0.3,0.2-9.4,6.7-19.3,14.2l1.6-9.4c14.9-19,35.1-45.7,35.6-46.2c-0.4,0.3-19.1,13.6-31.9,24.1&#10;&#9;&#9;&#9;&#9;l17.7-106.4l15-18.7l-13.2,8.2l24.7-148.4l31.1,187.1l-29.1-12.7l31.3,26.1l11.3,67.8l-29.9-13l32.2,26.8l6.8,40.7l-41.5-25.6&#10;&#9;&#9;&#9;&#9;l47,58.6l1.4,8.4l-28.9-17.8l32.7,40.7L285.6,668.5z"/>
		</g>
		<g id="XMLID_517_" clip-path="url(#XMLID_23_)">
			<linearGradient id="XMLID_49_" gradientUnits="userSpaceOnUse" x1="1109.3962" y1="678.7624" x2="1109.3962" y2="1006.2182">
				<stop offset="0" style="stop-color:#00364F"/>
				<stop offset="0.2519" style="stop-color:#0F4666"/>
				<stop offset="0.6812" style="stop-color:#E77B8A"/>
				<stop offset="1" style="stop-color:#F8D7D7"/>
			</linearGradient>
			<path d="M 1098 820.200012 H 1120.799999 V 921.400009 H 1098 V 820.200012 Z" id="XMLID_519_" fill="url(#XMLID_49_)"/>
			<linearGradient id="XMLID_50_" gradientUnits="userSpaceOnUse" x1="1109.3978" y1="1255.4097" x2="1109.3978" y2="540.4727">
				<stop offset="0" style="stop-color:#0F4666"/>
				<stop offset="1" style="stop-color:#E77B8A"/>
			</linearGradient>
			<path id="XMLID_518_" fill="url(#XMLID_50_)" d="M1187.3,830.9h-155.8l7.7-46.2l42.4-43.3l-38.1,17.3l14.2-85.6&#10;&#9;&#9;&#9;&#9;c11.2-14.5,21.3-27.9,21.6-28.3c-0.3,0.2-9.4,6.7-19.3,14.2l1.6-9.4c14.9-19,35.1-45.7,35.6-46.2c-0.4,0.3-19.1,13.6-31.9,24.1&#10;&#9;&#9;&#9;&#9;l17.7-106.4l15-18.7l-13.2,8.2l24.7-148.4l31.1,187.1l-29.1-12.7l31.3,26.1l11.3,67.8l-29.9-13l32.2,26.8l6.8,40.7l-41.5-25.6&#10;&#9;&#9;&#9;&#9;l47,58.6l1.4,8.4l-28.9-17.8l32.7,40.7L1187.3,830.9z"/>
		</g>
		<g id="XMLID_521_" clip-path="url(#XMLID_23_)">
			<linearGradient id="XMLID_51_" gradientUnits="userSpaceOnUse" x1="1028.6959" y1="749.7976" x2="1028.6959" y2="1116.3204">
				<stop offset="0" style="stop-color:#00364F"/>
				<stop offset="0.2519" style="stop-color:#0F4666"/>
				<stop offset="0.6812" style="stop-color:#E77B8A"/>
				<stop offset="1" style="stop-color:#F8D7D7"/>
			</linearGradient>
			<path d="M 1015.900024 908.099976 H 1041.500025 V 1021.399979 H 1015.900024 V 908.099976 Z" id="XMLID_523_" fill="url(#XMLID_51_)"/>
			<linearGradient id="XMLID_52_" gradientUnits="userSpaceOnUse" x1="1028.6978" y1="1395.2418" x2="1028.6978" y2="595.0093">
				<stop offset="0" style="stop-color:#00364F"/>
				<stop offset="0.2519" style="stop-color:#0F4666"/>
				<stop offset="0.6812" style="stop-color:#E77B8A"/>
				<stop offset="1" style="stop-color:#F8D7D7"/>
			</linearGradient>
			<path id="XMLID_522_" fill="url(#XMLID_52_)" d="M1115.9,920.1H941.5l8.6-51.7l47.4-48.4l-42.6,19.4l15.9-95.9&#10;&#9;&#9;&#9;&#9;c12.5-16.2,23.8-31.2,24.2-31.6c-0.3,0.2-10.6,7.5-21.6,15.9l1.7-10.5c16.7-21.3,39.3-51.1,39.8-51.7c-0.5,0.3-21.4,15.2-35.7,27&#10;&#9;&#9;&#9;&#9;l19.8-119.1l16.8-20.9l-14.8,9.1l27.6-166.1l34.8,209.4l-32.6-14.2L1066,620l12.6,75.9l-33.4-14.6l36,30.1l7.6,45.6l-46.5-28.7&#10;&#9;&#9;&#9;&#9;l52.6,65.6l1.6,9.4l-32.3-19.9l36.6,45.6L1115.9,920.1z"/>
		</g>
		<linearGradient id="XMLID_53_" gradientUnits="userSpaceOnUse" x1="621.6201" y1="1034.0719" x2="621.6201" y2="644.1784">
			<stop offset="0" style="stop-color:#595270"/>
			<stop offset="0.4236" style="stop-color:#E77B8A"/>
			<stop offset="1" style="stop-color:#F8D7D7"/>
		</linearGradient>
		<path id="XMLID_20_" clip-path="url(#XMLID_23_)" fill="url(#XMLID_53_)" d="M716.2,839c-19-36-49-61-71-96&#10;&#9;&#9;&#9;c-10.5-16.7-10.9-33.4-5.4-48.7c-13.9,11.8-26.8,26.2-29.3,43.9c-1.8,12.8,2,25.7,5.2,38.3c5.7,22.8,9.3,46.8,3.9,69.6&#10;&#9;&#9;&#9;c-5.5,23.3-19.7,43.5-34.7,62.3c-20.4,25.5-42.9,49.5-67.2,71.6h156c12.3-17.3,24.3-35.4,36.4-54C728.2,900,730.2,866,716.2,839z"/>
		<linearGradient id="XMLID_54_" gradientUnits="userSpaceOnUse" x1="723.7864" y1="1141.0579" x2="723.7864" y2="726.7499">
			<stop offset="0" style="stop-color:#595270"/>
			<stop offset="0.4236" style="stop-color:#E77B8A"/>
			<stop offset="1" style="stop-color:#F8D7D7"/>
		</linearGradient>
		<path id="XMLID_19_" clip-path="url(#XMLID_23_)" fill="url(#XMLID_54_)" d="M771.7,793.3c-8-3.9-15.9-8.2-23.5-13.3&#10;&#9;&#9;&#9;c-16-11-28-24-34-42c-6.8-22.9,1.7-43.4,15.5-60.8l-66.3-0.9c-7,4.8-13.7,9.8-20.3,15.1c-1.1,0.9-2.2,1.8-3.3,2.8&#10;&#9;&#9;&#9;c-5.5,15.3-5.1,32,5.4,48.7c22,35,52,60,71,96c14,27,12,61-6,87c-12.1,18.6-24.1,36.7-36.4,54h77.3c21.9-16.6,40.4-37,52.1-63&#10;&#9;&#9;&#9;C822.5,873.1,805,826.9,771.7,793.3z"/>
		<linearGradient id="XMLID_55_" gradientUnits="userSpaceOnUse" x1="814.1695" y1="1085.7489" x2="814.1695" y2="737.3591">
			<stop offset="0" style="stop-color:#595270"/>
			<stop offset="0.4236" style="stop-color:#E77B8A"/>
			<stop offset="1" style="stop-color:#F8D7D7"/>
		</linearGradient>
		<path id="XMLID_18_" clip-path="url(#XMLID_23_)" fill="url(#XMLID_55_)" d="M872.2,870c-18.3-46.6-60.8-57.2-100.5-76.7&#10;&#9;&#9;&#9;c33.3,33.6,50.8,79.8,31.5,123.7c-11.7,26-30.2,46.4-52.1,63h80.6c1.8-1.7,3.7-3.3,5.5-5C866.2,947,887.2,908,872.2,870z"/>
		<linearGradient id="XMLID_56_" gradientUnits="userSpaceOnUse" x1="826.6797" y1="1071.6946" x2="826.6797" y2="658.5732">
			<stop offset="0" style="stop-color:#595270"/>
			<stop offset="0.4236" style="stop-color:#E77B8A"/>
			<stop offset="1" style="stop-color:#F8D7D7"/>
		</linearGradient>
		<path id="XMLID_17_" clip-path="url(#XMLID_23_)" fill="url(#XMLID_56_)" d="M936.1,922.8c-5.2-33.7-12.6-67.8-30-97.4&#10;&#9;&#9;&#9;c-16.3-27.7-40.5-50.1-66.2-69.8c-18.7-14.4-38.4-27.6-58.9-39.5c-5.9-3.5-12.4-7.4-14.4-13.9c-1.5-4.7-0.2-9.8,1.5-14.4&#10;&#9;&#9;&#9;c1.2-3.4,2.7-6.7,4.3-10l-42.7-0.6c-13.8,17.3-22.3,37.9-15.5,60.8c6,18,18,31,34,42c45,30,102,34,124,90c15,38-6,77-35,105&#10;&#9;&#9;&#9;c-1.8,1.7-3.7,3.3-5.5,5h109.8C941.2,960.9,939,941.6,936.1,922.8z"/>
		<g id="XMLID_397_" clip-path="url(#XMLID_23_)">
			<linearGradient id="XMLID_57_" gradientUnits="userSpaceOnUse" x1="283.9888" y1="613.2646" x2="283.9888" y2="1065.2823">
				<stop offset="0" style="stop-color:#00364F"/>
				<stop offset="0.2519" style="stop-color:#0F4666"/>
				<stop offset="0.6812" style="stop-color:#E77B8A"/>
				<stop offset="1" style="stop-color:#F8D7D7"/>
			</linearGradient>
			<path d="M 268.200012 808.5 H 299.700012 V 948.300003 H 268.200012 V 808.5 Z" id="XMLID_420_" fill="url(#XMLID_57_)"/>
			<linearGradient id="XMLID_58_" gradientUnits="userSpaceOnUse" x1="283.991" y1="1409.2646" x2="283.991" y2="422.3705">
				<stop offset="0" style="stop-color:#00364F"/>
				<stop offset="0.2519" style="stop-color:#0F4666"/>
				<stop offset="0.6812" style="stop-color:#E77B8A"/>
				<stop offset="1" style="stop-color:#F8D7D7"/>
			</linearGradient>
			<path id="XMLID_398_" fill="url(#XMLID_58_)" d="M391.5,823.2h-215l10.6-63.8l58.5-59.7L193,723.7l19.6-118.2&#10;&#9;&#9;&#9;&#9;c15.4-20,29.4-38.5,29.8-39c-0.4,0.3-13,9.3-26.6,19.6l2.2-13c20.6-26.2,48.5-63,49.1-63.8c-0.6,0.4-26.4,18.8-44,33.3&#10;&#9;&#9;&#9;&#9;l24.4-146.9l20.7-25.8l-18.3,11.3l34-204.9l42.9,258.3L286.7,417l43.3,36.1l15.6,93.6l-41.3-18l44.4,37.1l9.3,56.2l-57.3-35.4&#10;&#9;&#9;&#9;&#9;l64.9,80.9l1.9,11.6l-39.8-24.6l45.1,56.2L391.5,823.2z"/>
		</g>
		<g id="XMLID_389_" clip-path="url(#XMLID_23_)">
			<linearGradient id="XMLID_59_" gradientUnits="userSpaceOnUse" x1="48.9862" y1="561.0594" x2="48.9862" y2="1189.2169">
				<stop offset="0" style="stop-color:#00364F"/>
				<stop offset="0.2519" style="stop-color:#0F4666"/>
				<stop offset="0.6812" style="stop-color:#E77B8A"/>
				<stop offset="1" style="stop-color:#F8D7D7"/>
			</linearGradient>
			<path d="M 27.1 832.299988 H 70.9 V 1026.499985 H 27.1 V 832.299988 Z" id="XMLID_391_" fill="url(#XMLID_59_)"/>
			<linearGradient id="XMLID_60_" gradientUnits="userSpaceOnUse" x1="48.9892" y1="1667.2402" x2="48.9892" y2="295.7788">
				<stop offset="0" style="stop-color:#0F4666"/>
				<stop offset="1" style="stop-color:#E77B8A"/>
			</linearGradient>
			<path id="XMLID_390_" fill="url(#XMLID_60_)" d="M198.4,852.8h-298.8l14.7-88.6l81.3-83l-73,33.3l27.3-164.3&#10;&#9;&#9;&#9;&#9;c21.4-27.8,40.9-53.4,41.4-54.2c-0.6,0.4-18.1,12.9-37,27.2l3-18c28.6-36.4,67.4-87.6,68.2-88.6c-0.8,0.6-36.7,26.1-61.2,46.3&#10;&#9;&#9;&#9;&#9;l33.9-204.1l28.8-35.9L1.7,238.6L49-46.2l59.6,358.9l-55.8-24.3l60.1,50.2l21.6,130.1l-57.3-25l61.7,51.5l13,78.1L72.3,524&#10;&#9;&#9;&#9;&#9;l90.1,112.4l2.7,16.2l-55.4-34.2l62.6,78.1L198.4,852.8z"/>
		</g>
		<g clip-path="url(#XMLID_23_)">
			<g>
				<path d="M 813.900024 135 A 4.5 4.5 0 0 1 809.400024 139.5 A 4.5 4.5 0 0 1 804.900024 135 A 4.5 4.5 0 0 1 809.400024 130.5 A 4.5 4.5 0 0 1 813.900024 135 Z" id="XMLID_751_" fill="#FFFFFF"/>
				<path d="M 822.900024 196.5 A 4.5 4.5 0 0 1 818.400024 201 A 4.5 4.5 0 0 1 813.900024 196.5 A 4.5 4.5 0 0 1 818.400024 192 A 4.5 4.5 0 0 1 822.900024 196.5 Z" id="XMLID_750_" fill="#FFFFFF"/>
				<path d="M 962.099988 58.299999 A 5.8 5.8 0 0 1 956.299988 64.099999 A 5.8 5.8 0 0 1 950.499988 58.299999 A 5.8 5.8 0 0 1 956.299988 52.499999 A 5.8 5.8 0 0 1 962.099988 58.299999 Z" id="XMLID_749_" fill="#FFFFFF"/>
				<path d="M 991.900024 292.899994 A 3.5 3.5 0 0 1 988.400024 296.399994 A 3.5 3.5 0 0 1 984.900024 292.899994 A 3.5 3.5 0 0 1 988.400024 289.399994 A 3.5 3.5 0 0 1 991.900024 292.899994 Z" id="XMLID_748_" fill="#FFFFFF"/>
				<path d="M 1213.800025 241.300003 A 7.4 7.4 0 0 1 1206.400024 248.700003 A 7.4 7.4 0 0 1 1199.000024 241.300003 A 7.4 7.4 0 0 1 1206.400024 233.900003 A 7.4 7.4 0 0 1 1213.800025 241.300003 Z" id="XMLID_747_" fill="#FFFFFF"/>
				<path d="M 574.099976 343.100006 A 6 6 0 0 1 568.099976 349.100006 A 6 6 0 0 1 562.099976 343.100006 A 6 6 0 0 1 568.099976 337.100006 A 6 6 0 0 1 574.099976 343.100006 Z" id="XMLID_746_" fill="#FFFFFF"/>
				<path d="M 648.399976 142.800003 A 3.3 3.3 0 0 1 645.099976 146.100003 A 3.3 3.3 0 0 1 641.799976 142.800003 A 3.3 3.3 0 0 1 645.099976 139.500003 A 3.3 3.3 0 0 1 648.399976 142.800003 Z" id="XMLID_745_" fill="#FFFFFF"/>
				<path d="M 795.200012 310.399994 A 3.5 3.5 0 0 1 791.700012 313.899994 A 3.5 3.5 0 0 1 788.200012 310.399994 A 3.5 3.5 0 0 1 791.700012 306.899994 A 3.5 3.5 0 0 1 795.200012 310.399994 Z" id="XMLID_744_" fill="#FFFFFF"/>
				<path d="M 1417 -0.7 A 6 6 0 0 1 1411 5.3 A 6 6 0 0 1 1405 -0.7 A 6 6 0 0 1 1411 -6.7 A 6 6 0 0 1 1417 -0.7 Z" id="XMLID_743_" fill="#FFFFFF"/>
				<path d="M 1389.699975 35.799999 A 4.1 4.1 0 0 1 1385.599976 39.899999 A 4.1 4.1 0 0 1 1381.499976 35.799999 A 4.1 4.1 0 0 1 1385.599976 31.699999 A 4.1 4.1 0 0 1 1389.699975 35.799999 Z" id="XMLID_742_" fill="#FFFFFF"/>
				<path d="M 1484.900049 101.5 A 4.1 4.1 0 0 1 1480.800049 105.6 A 4.1 4.1 0 0 1 1476.700049 101.5 A 4.1 4.1 0 0 1 1480.800049 97.4 A 4.1 4.1 0 0 1 1484.900049 101.5 Z" id="XMLID_741_" fill="#FFFFFF"/>
				<path d="M 831.000024 923.5 A 4.1 4.1 0 0 1 826.900024 927.6 A 4.1 4.1 0 0 1 822.800025 923.5 A 4.1 4.1 0 0 1 826.900024 919.4 A 4.1 4.1 0 0 1 831.000024 923.5 Z" id="XMLID_740_" fill="#FFFFFF"/>
				<path d="M 1373.099976 365.299988 A 6.5 6.5 0 0 1 1366.599976 371.799988 A 6.5 6.5 0 0 1 1360.099976 365.299988 A 6.5 6.5 0 0 1 1366.599976 358.799988 A 6.5 6.5 0 0 1 1373.099976 365.299988 Z" id="XMLID_739_" fill="#FFFFFF"/>
				<path d="M 759.799988 -10.4 A 6 6 0 0 1 753.799988 -4.4 A 6 6 0 0 1 747.799988 -10.4 A 6 6 0 0 1 753.799988 -16.4 A 6 6 0 0 1 759.799988 -10.4 Z" id="XMLID_738_" fill="#FFFFFF"/>
				<path d="M 1146 2.3 A 3 3 0 0 1 1143 5.3 A 3 3 0 0 1 1140 2.3 A 3 3 0 0 1 1143 -0.7 A 3 3 0 0 1 1146 2.3 Z" id="XMLID_737_" fill="#FFFFFF"/>
				<path d="M 588.4 -8.5 A 1.9 1.9 0 0 1 586.5 -6.6 A 1.9 1.9 0 0 1 584.6 -8.5 A 1.9 1.9 0 0 1 586.5 -10.4 A 1.9 1.9 0 0 1 588.4 -8.5 Z" id="XMLID_736_" fill="#FFFFFF"/>
				<path d="M 574.399988 37.900002 A 2.1 2.1 0 0 1 572.299988 40.000001 A 2.1 2.1 0 0 1 570.199988 37.900002 A 2.1 2.1 0 0 1 572.299988 35.800002 A 2.1 2.1 0 0 1 574.399988 37.900002 Z" id="XMLID_735_" fill="#FFFFFF"/>
				<path d="M 1283.300025 130.800003 A 4.9 4.9 0 0 1 1278.400024 135.700003 A 4.9 4.9 0 0 1 1273.500024 130.800003 A 4.9 4.9 0 0 1 1278.400024 125.900003 A 4.9 4.9 0 0 1 1283.300025 130.800003 Z" id="XMLID_734_" fill="#FFFFFF"/>
				<path d="M 523.100024 117.699997 A 2.7 2.7 0 0 1 520.400024 120.399997 A 2.7 2.7 0 0 1 517.700024 117.699997 A 2.7 2.7 0 0 1 520.400024 114.999997 A 2.7 2.7 0 0 1 523.100024 117.699997 Z" id="XMLID_733_" fill="#FFFFFF"/>
				<path d="M 428.600006 188.800003 A 4.5 4.5 0 0 1 424.100006 193.300003 A 4.5 4.5 0 0 1 419.600006 188.800003 A 4.5 4.5 0 0 1 424.100006 184.300003 A 4.5 4.5 0 0 1 428.600006 188.800003 Z" id="XMLID_732_" fill="#FFFFFF"/>
				<path d="M 437.600006 250.300003 A 4.5 4.5 0 0 1 433.100006 254.800003 A 4.5 4.5 0 0 1 428.600006 250.300003 A 4.5 4.5 0 0 1 433.100006 245.800003 A 4.5 4.5 0 0 1 437.600006 250.300003 Z" id="XMLID_731_" fill="#FFFFFF"/>
				<path d="M 263.099988 196.600006 A 3.3 3.3 0 0 1 259.799988 199.900006 A 3.3 3.3 0 0 1 256.499988 196.600006 A 3.3 3.3 0 0 1 259.799988 193.300006 A 3.3 3.3 0 0 1 263.099988 196.600006 Z" id="XMLID_730_" fill="#FFFFFF"/>
				<path d="M 374.5 43.299999 A 6 6 0 0 1 368.5 49.299999 A 6 6 0 0 1 362.5 43.299999 A 6 6 0 0 1 368.5 37.299999 A 6 6 0 0 1 374.5 43.299999 Z" id="XMLID_729_" fill="#FFFFFF"/>
				<path d="M 1339.199951 531.900024 A 6 6 0 0 1 1333.199951 537.900024 A 6 6 0 0 1 1327.199951 531.900024 A 6 6 0 0 1 1333.199951 525.900024 A 6 6 0 0 1 1339.199951 531.900024 Z" id="XMLID_728_" fill="#FFFFFF"/>
				<path d="M 203.000006 45.299999 A 1.9 1.9 0 0 1 201.100006 47.199999 A 1.9 1.9 0 0 1 199.200006 45.299999 A 1.9 1.9 0 0 1 201.100006 43.399999 A 1.9 1.9 0 0 1 203.000006 45.299999 Z" id="XMLID_727_" fill="#FFFFFF"/>
				<path d="M 189.1 91.699997 A 2.1 2.1 0 0 1 187 93.799997 A 2.1 2.1 0 0 1 184.9 91.699997 A 2.1 2.1 0 0 1 187 89.599997 A 2.1 2.1 0 0 1 189.1 91.699997 Z" id="XMLID_726_" fill="#FFFFFF"/>
				<path d="M 137.800006 171.5 A 2.7 2.7 0 0 1 135.100006 174.2 A 2.7 2.7 0 0 1 132.400006 171.5 A 2.7 2.7 0 0 1 135.100006 168.8 A 2.7 2.7 0 0 1 137.800006 171.5 Z" id="XMLID_725_" fill="#FFFFFF"/>
				<path d="M 1142.400024 135 A 4.5 4.5 0 0 1 1137.900024 139.5 A 4.5 4.5 0 0 1 1133.400024 135 A 4.5 4.5 0 0 1 1137.900024 130.5 A 4.5 4.5 0 0 1 1142.400024 135 Z" id="XMLID_724_" fill="#FFFFFF"/>
				<path d="M 1032.7 9.5 A 4.2 4.2 0 0 1 1028.5 13.7 A 4.2 4.2 0 0 1 1024.3 9.5 A 4.2 4.2 0 0 1 1028.5 5.3 A 4.2 4.2 0 0 1 1032.7 9.5 Z" id="XMLID_723_" fill="#FFFFFF"/>
				<path d="M 1321.7 202.899994 A 2.2 2.2 0 0 1 1319.5 205.099994 A 2.2 2.2 0 0 1 1317.3 202.899994 A 2.2 2.2 0 0 1 1319.5 200.699994 A 2.2 2.2 0 0 1 1321.7 202.899994 Z" id="XMLID_722_" fill="#FFFFFF"/>
				<path d="M 1278.399951 497.399994 A 7.2 7.2 0 0 1 1271.199951 504.599994 A 7.2 7.2 0 0 1 1263.999951 497.399994 A 7.2 7.2 0 0 1 1271.199951 490.199994 A 7.2 7.2 0 0 1 1278.399951 497.399994 Z" id="XMLID_721_" fill="#FFFFFF"/>
				<path d="M 1342.4 439.399994 A 3.4 3.4 0 0 1 1339 442.799994 A 3.4 3.4 0 0 1 1335.6 439.399994 A 3.4 3.4 0 0 1 1339 435.999994 A 3.4 3.4 0 0 1 1342.4 439.399994 Z" id="XMLID_720_" fill="#FFFFFF"/>
				<path d="M 1447.6 511.299988 A 5.6 5.6 0 0 1 1442 516.899988 A 5.6 5.6 0 0 1 1436.4 511.299988 A 5.6 5.6 0 0 1 1442 505.699988 A 5.6 5.6 0 0 1 1447.6 511.299988 Z" id="XMLID_719_" fill="#FFFFFF"/>
				<path d="M 1058.299975 317.100006 A 6.7 6.7 0 0 1 1051.599976 323.800006 A 6.7 6.7 0 0 1 1044.899976 317.100006 A 6.7 6.7 0 0 1 1051.599976 310.400006 A 6.7 6.7 0 0 1 1058.299975 317.100006 Z" id="XMLID_718_" fill="#FFFFFF"/>
				<path d="M 612.9 511.5 A 5.9 5.9 0 0 1 607 517.4 A 5.9 5.9 0 0 1 601.1 511.5 A 5.9 5.9 0 0 1 607 505.6 A 5.9 5.9 0 0 1 612.9 511.5 Z" id="XMLID_717_" fill="#FFFFFF"/>
				<path d="M 588.4 558.900024 A 1.9 1.9 0 0 1 586.5 560.800024 A 1.9 1.9 0 0 1 584.6 558.900024 A 1.9 1.9 0 0 1 586.5 557.000024 A 1.9 1.9 0 0 1 588.4 558.900024 Z" id="XMLID_716_" fill="#FFFFFF"/>
				<path d="M 944.400024 642.5 A 7 7 0 0 1 937.400024 649.5 A 7 7 0 0 1 930.400024 642.5 A 7 7 0 0 1 937.400024 635.5 A 7 7 0 0 1 944.400024 642.5 Z" id="XMLID_715_" fill="#FFFFFF"/>
				<path d="M 1172.1 712 A 4.6 4.6 0 0 1 1167.5 716.6 A 4.6 4.6 0 0 1 1162.9 712 A 4.6 4.6 0 0 1 1167.5 707.4 A 4.6 4.6 0 0 1 1172.1 712 Z" id="XMLID_714_" fill="#FFFFFF"/>
				<path d="M 762.1 391.700012 A 8.1 8.1 0 0 1 754 399.800013 A 8.1 8.1 0 0 1 745.9 391.700012 A 8.1 8.1 0 0 1 754 383.600012 A 8.1 8.1 0 0 1 762.1 391.700012 Z" id="XMLID_713_" fill="#FFFFFF"/>
				<path d="M 818.400024 494.700012 A 4.5 4.5 0 0 1 813.900024 499.200012 A 4.5 4.5 0 0 1 809.400024 494.700012 A 4.5 4.5 0 0 1 813.900024 490.200012 A 4.5 4.5 0 0 1 818.400024 494.700012 Z" id="XMLID_712_" fill="#FFFFFF"/>
				<path d="M 678.400024 616.700012 A 6 6 0 0 1 672.400024 622.700012 A 6 6 0 0 1 666.400024 616.700012 A 6 6 0 0 1 672.400024 610.700012 A 6 6 0 0 1 678.400024 616.700012 Z" id="XMLID_711_" fill="#FFFFFF"/>
				<path d="M 559.400024 839.400024 A 7 7 0 0 1 552.400024 846.400024 A 7 7 0 0 1 545.400024 839.400024 A 7 7 0 0 1 552.400024 832.400024 A 7 7 0 0 1 559.400024 839.400024 Z" id="XMLID_710_" fill="#FFFFFF"/>
				<path d="M 1399.300024 806.099976 A 8.9 8.9 0 0 1 1390.400024 814.999975 A 8.9 8.9 0 0 1 1381.500025 806.099976 A 8.9 8.9 0 0 1 1390.400024 797.199976 A 8.9 8.9 0 0 1 1399.300024 806.099976 Z" id="XMLID_709_" fill="#FFFFFF"/>
				<path d="M 1471.700049 712.400024 A 4.9 4.9 0 0 1 1466.800049 717.300025 A 4.9 4.9 0 0 1 1461.900049 712.400024 A 4.9 4.9 0 0 1 1466.800049 707.500024 A 4.9 4.9 0 0 1 1471.700049 712.400024 Z" id="XMLID_596_" fill="#FFFFFF"/>
				<path d="M 1283.399976 900.700012 A 8.3 8.3 0 0 1 1275.099976 909.000012 A 8.3 8.3 0 0 1 1266.799975 900.700012 A 8.3 8.3 0 0 1 1275.099976 892.400012 A 8.3 8.3 0 0 1 1283.399976 900.700012 Z" id="XMLID_595_" fill="#FFFFFF"/>
				<path d="M 1471.700049 905.599976 A 4.9 4.9 0 0 1 1466.800049 910.499976 A 4.9 4.9 0 0 1 1461.900049 905.599976 A 4.9 4.9 0 0 1 1466.800049 900.699975 A 4.9 4.9 0 0 1 1471.700049 905.599976 Z" id="XMLID_594_" fill="#FFFFFF"/>
				<path d="M 1306.699975 657.099976 A 7.6 7.6 0 0 1 1299.099976 664.699975 A 7.6 7.6 0 0 1 1291.499976 657.099976 A 7.6 7.6 0 0 1 1299.099976 649.499976 A 7.6 7.6 0 0 1 1306.699975 657.099976 Z" id="XMLID_593_" fill="#FFFFFF"/>
				<path d="M 1471.699951 624.900024 H 1471.699951 V 624.900024 H 1471.699951 V 624.900024 Z" id="XMLID_592_" fill="#FFFFFF"/>
				<path d="M 1454.199975 411.399994 A 6.1 6.1 0 0 1 1448.099976 417.499994 A 6.1 6.1 0 0 1 1441.999976 411.399994 A 6.1 6.1 0 0 1 1448.099976 405.299994 A 6.1 6.1 0 0 1 1454.199975 411.399994 Z" id="XMLID_591_" fill="#FFFFFF"/>
				<path d="M 1491.499951 339.600006 A 3.3 0 0 0 1 1488.199951 339.600006 A 3.3 0 0 0 1 1484.899951 339.600006 A 3.3 0 0 0 1 1488.199951 339.600006 A 3.3 0 0 0 1 1491.499951 339.600006 Z" id="XMLID_590_" fill="#FFFFFF"/>
				<path d="M 607.000012 872.099976 A 10.3 10.3 0 0 1 596.700012 882.399976 A 10.3 10.3 0 0 1 586.400012 872.099976 A 10.3 10.3 0 0 1 596.700012 861.799975 A 10.3 10.3 0 0 1 607.000012 872.099976 Z" id="XMLID_589_" fill="#FFFFFF"/>
				<path d="M 937.500012 218.600006 A 4.3 4.3 0 0 1 933.200012 222.900006 A 4.3 4.3 0 0 1 928.900012 218.600006 A 4.3 4.3 0 0 1 933.200012 214.300006 A 4.3 4.3 0 0 1 937.500012 218.600006 Z" id="XMLID_588_" fill="#FFFFFF"/>
				<path d="M 1137.899976 286.799988 A 3.8 3.8 0 0 1 1134.099976 290.599988 A 3.8 3.8 0 0 1 1130.299976 286.799988 A 3.8 3.8 0 0 1 1134.099976 282.999988 A 3.8 3.8 0 0 1 1137.899976 286.799988 Z" id="XMLID_587_" fill="#FFFFFF"/>
				<path d="M 993.500012 448.100006 A 4.3 4.3 0 0 1 989.200012 452.400006 A 4.3 4.3 0 0 1 984.900012 448.100006 A 4.3 4.3 0 0 1 989.200012 443.800006 A 4.3 4.3 0 0 1 993.500012 448.100006 Z" id="XMLID_586_" fill="#FFFFFF"/>
				<path d="M 634.200024 416.399994 A 2.8 2.8 0 0 1 631.400024 419.199994 A 2.8 2.8 0 0 1 628.600024 416.399994 A 2.8 2.8 0 0 1 631.400024 413.599994 A 2.8 2.8 0 0 1 634.200024 416.399994 Z" id="XMLID_585_" fill="#FFFFFF"/>
				<path d="M 541.500024 436.799988 A 3.1 3.1 0 0 1 538.400024 439.899988 A 3.1 3.1 0 0 1 535.300025 436.799988 A 3.1 3.1 0 0 1 538.400024 433.699988 A 3.1 3.1 0 0 1 541.500024 436.799988 Z" id="XMLID_584_" fill="#FFFFFF"/>
			</g>
			<g>
				<path d="M 654.400024 780.799988 A 4.5 4.5 0 0 1 649.900024 785.299988 A 4.5 4.5 0 0 1 645.400024 780.799988 A 4.5 4.5 0 0 1 649.900024 776.299988 A 4.5 4.5 0 0 1 654.400024 780.799988 Z" id="XMLID_583_" fill="#FFFFFF"/>
				<path d="M 645.400024 719.299988 A 4.5 4.5 0 0 1 640.900024 723.799988 A 4.5 4.5 0 0 1 636.400024 719.299988 A 4.5 4.5 0 0 1 640.900024 714.799988 A 4.5 4.5 0 0 1 645.400024 719.299988 Z" id="XMLID_582_" fill="#FFFFFF"/>
				<path d="M 508.900006 857.599976 A 5.8 5.8 0 0 1 503.100006 863.399976 A 5.8 5.8 0 0 1 497.300006 857.599976 A 5.8 5.8 0 0 1 503.100006 851.799975 A 5.8 5.8 0 0 1 508.900006 857.599976 Z" id="XMLID_581_" fill="#FFFFFF"/>
				<path d="M 474.5 623 A 3.5 3.5 0 0 1 471 626.5 A 3.5 3.5 0 0 1 467.5 623 A 3.5 3.5 0 0 1 471 619.5 A 3.5 3.5 0 0 1 474.5 623 Z" id="XMLID_580_" fill="#FFFFFF"/>
				<path d="M 260.299994 674.5 A 7.4 7.4 0 0 1 252.899994 681.9 A 7.4 7.4 0 0 1 245.499994 674.5 A 7.4 7.4 0 0 1 252.899994 667.1 A 7.4 7.4 0 0 1 260.299994 674.5 Z" id="XMLID_578_" fill="#FFFFFF"/>
				<path d="M 897.200012 572.799988 A 6 6 0 0 1 891.200012 578.799988 A 6 6 0 0 1 885.200012 572.799988 A 6 6 0 0 1 891.200012 566.799988 A 6 6 0 0 1 897.200012 572.799988 Z" id="XMLID_577_" fill="#FFFFFF"/>
				<path d="M 817.500012 773.099976 A 3.3 3.3 0 0 1 814.200012 776.399976 A 3.3 3.3 0 0 1 810.900012 773.099976 A 3.3 3.3 0 0 1 814.200012 769.799976 A 3.3 3.3 0 0 1 817.500012 773.099976 Z" id="XMLID_576_" fill="#FFFFFF"/>
				<path d="M 671.099976 605.5 A 3.5 3.5 0 0 1 667.599976 609 A 3.5 3.5 0 0 1 664.099976 605.5 A 3.5 3.5 0 0 1 667.599976 602 A 3.5 3.5 0 0 1 671.099976 605.5 Z" id="XMLID_575_" fill="#FFFFFF"/>
				<path d="M 54.299999 916.5 A 6 6 0 0 1 48.299999 922.5 A 6 6 0 0 1 42.299999 916.5 A 6 6 0 0 1 48.299999 910.5 A 6 6 0 0 1 54.299999 916.5 Z" id="XMLID_574_" fill="#FFFFFF"/>
				<path d="M 77.900003 880.099976 A 4.1 4.1 0 0 1 73.800003 884.199975 A 4.1 4.1 0 0 1 69.700003 880.099976 A 4.1 4.1 0 0 1 73.800003 875.999976 A 4.1 4.1 0 0 1 77.900003 880.099976 Z" id="XMLID_573_" fill="#FFFFFF"/>
				<path d="M -17.3 814.299988 A 4.1 4.1 0 0 1 -21.4 818.399988 A 4.1 4.1 0 0 1 -25.5 814.299988 A 4.1 4.1 0 0 1 -21.4 810.199988 A 4.1 4.1 0 0 1 -17.3 814.299988 Z" id="XMLID_572_" fill="#FFFFFF"/>
				<path d="M 636.6 -7.6 A 4.1 4.1 0 0 1 632.5 -3.5 A 4.1 4.1 0 0 1 628.4 -7.6 A 4.1 4.1 0 0 1 632.5 -11.7 A 4.1 4.1 0 0 1 636.6 -7.6 Z" id="XMLID_571_" fill="#FFFFFF"/>
				<path d="M 99.199997 550.5 A 6.5 6.5 0 0 1 92.699997 557 A 6.5 6.5 0 0 1 86.199997 550.5 A 6.5 6.5 0 0 1 92.699997 544 A 6.5 6.5 0 0 1 99.199997 550.5 Z" id="XMLID_570_" fill="#FFFFFF"/>
				<path d="M 711.599976 926.299988 A 6 6 0 0 1 705.599976 932.299988 A 6 6 0 0 1 699.599976 926.299988 A 6 6 0 0 1 705.599976 920.299988 A 6 6 0 0 1 711.599976 926.299988 Z" id="XMLID_569_" fill="#FFFFFF"/>
				<path d="M 319.399994 913.599976 A 3 3 0 0 1 316.399994 916.599976 A 3 3 0 0 1 313.399994 913.599976 A 3 3 0 0 1 316.399994 910.599976 A 3 3 0 0 1 319.399994 913.599976 Z" id="XMLID_568_" fill="#FFFFFF"/>
				<path d="M 874.800024 924.400024 A 1.9 1.9 0 0 1 872.900024 926.300024 A 1.9 1.9 0 0 1 871.000024 924.400024 A 1.9 1.9 0 0 1 872.900024 922.500024 A 1.9 1.9 0 0 1 874.800024 924.400024 Z" id="XMLID_567_" fill="#FFFFFF"/>
				<path d="M 889.199975 878 A 2.1 2.1 0 0 1 887.099976 880.1 A 2.1 2.1 0 0 1 884.999976 878 A 2.1 2.1 0 0 1 887.099976 875.9 A 2.1 2.1 0 0 1 889.199975 878 Z" id="XMLID_566_" fill="#FFFFFF"/>
				<path d="M 185.799994 785.099976 A 4.9 4.9 0 0 1 180.899994 789.999976 A 4.9 4.9 0 0 1 175.999994 785.099976 A 4.9 4.9 0 0 1 180.899994 780.199975 A 4.9 4.9 0 0 1 185.799994 785.099976 Z" id="XMLID_565_" fill="#FFFFFF"/>
				<path d="M 941.600024 798.200012 A 2.7 2.7 0 0 1 938.900024 800.900012 A 2.7 2.7 0 0 1 936.200024 798.200012 A 2.7 2.7 0 0 1 938.900024 795.500012 A 2.7 2.7 0 0 1 941.600024 798.200012 Z" id="XMLID_564_" fill="#FFFFFF"/>
				<path d="M 1039.699951 727 A 4.5 4.5 0 0 1 1035.199951 731.5 A 4.5 4.5 0 0 1 1030.699951 727 A 4.5 4.5 0 0 1 1035.199951 722.5 A 4.5 4.5 0 0 1 1039.699951 727 Z" id="XMLID_563_" fill="#FFFFFF"/>
				<path d="M 1030.699951 665.5 A 4.5 4.5 0 0 1 1026.199951 670 A 4.5 4.5 0 0 1 1021.699951 665.5 A 4.5 4.5 0 0 1 1026.199951 661 A 4.5 4.5 0 0 1 1030.699951 665.5 Z" id="XMLID_562_" fill="#FFFFFF"/>
				<path d="M 1202.8 719.299988 A 3.3 3.3 0 0 1 1199.5 722.599988 A 3.3 3.3 0 0 1 1196.2 719.299988 A 3.3 3.3 0 0 1 1199.5 715.999988 A 3.3 3.3 0 0 1 1202.8 719.299988 Z" id="XMLID_561_" fill="#FFFFFF"/>
				<path d="M 1096.900024 872.5 A 6 6 0 0 1 1090.900024 878.5 A 6 6 0 0 1 1084.900024 872.5 A 6 6 0 0 1 1090.900024 866.5 A 6 6 0 0 1 1096.900024 872.5 Z" id="XMLID_560_" fill="#FFFFFF"/>
				<path d="M 132.099998 384 A 6 6 0 0 1 126.099998 390 A 6 6 0 0 1 120.099998 384 A 6 6 0 0 1 126.099998 378 A 6 6 0 0 1 132.099998 384 Z" id="XMLID_559_" fill="#FFFFFF"/>
				<path d="M 1260.099951 870.599976 A 1.9 1.9 0 0 1 1258.199951 872.499976 A 1.9 1.9 0 0 1 1256.299951 870.599976 A 1.9 1.9 0 0 1 1258.199951 868.699976 A 1.9 1.9 0 0 1 1260.099951 870.599976 Z" id="XMLID_558_" fill="#FFFFFF"/>
				<path d="M 1274.500024 824.200012 A 2.1 2.1 0 0 1 1272.400024 826.300012 A 2.1 2.1 0 0 1 1270.300025 824.200012 A 2.1 2.1 0 0 1 1272.400024 822.100012 A 2.1 2.1 0 0 1 1274.500024 824.200012 Z" id="XMLID_557_" fill="#FFFFFF"/>
				<path d="M 1326.899951 744.400024 A 2.7 2.7 0 0 1 1324.199951 747.100024 A 2.7 2.7 0 0 1 1321.499951 744.400024 A 2.7 2.7 0 0 1 1324.199951 741.700024 A 2.7 2.7 0 0 1 1326.899951 744.400024 Z" id="XMLID_556_" fill="#FFFFFF"/>
				<path d="M 325.899994 780.799988 A 4.5 4.5 0 0 1 321.399994 785.299988 A 4.5 4.5 0 0 1 316.899994 780.799988 A 4.5 4.5 0 0 1 321.399994 776.299988 A 4.5 4.5 0 0 1 325.899994 780.799988 Z" id="XMLID_555_" fill="#FFFFFF"/>
				<path d="M 434.999988 906.400024 A 4.2 4.2 0 0 1 430.799988 910.600024 A 4.2 4.2 0 0 1 426.599988 906.400024 A 4.2 4.2 0 0 1 430.799988 902.200025 A 4.2 4.2 0 0 1 434.999988 906.400024 Z" id="XMLID_554_" fill="#FFFFFF"/>
				<path d="M 142.000003 713 A 2.2 2.2 0 0 1 139.800003 715.2 A 2.2 2.2 0 0 1 137.600003 713 A 2.2 2.2 0 0 1 139.800003 710.8 A 2.2 2.2 0 0 1 142.000003 713 Z" id="XMLID_553_" fill="#FFFFFF"/>
				<path d="M 195.399997 418.399994 A 7.2 7.2 0 0 1 188.199997 425.599994 A 7.2 7.2 0 0 1 180.999997 418.399994 A 7.2 7.2 0 0 1 188.199997 411.199994 A 7.2 7.2 0 0 1 195.399997 418.399994 Z" id="XMLID_552_" fill="#FFFFFF"/>
				<path d="M 123.800002 476.5 A 3.4 3.4 0 0 1 120.400002 479.9 A 3.4 3.4 0 0 1 117.000001 476.5 A 3.4 3.4 0 0 1 120.400002 473.1 A 3.4 3.4 0 0 1 123.800002 476.5 Z" id="XMLID_551_" fill="#FFFFFF"/>
				<path d="M 22.899999 404.600006 A 5.6 5.6 0 0 1 17.299999 410.200006 A 5.6 5.6 0 0 1 11.699999 404.600006 A 5.6 5.6 0 0 1 17.299999 399.000006 A 5.6 5.6 0 0 1 22.899999 404.600006 Z" id="XMLID_550_" fill="#FFFFFF"/>
				<path d="M 414.499988 598.799988 A 6.7 6.7 0 0 1 407.799988 605.499988 A 6.7 6.7 0 0 1 401.099988 598.799988 A 6.7 6.7 0 0 1 407.799988 592.099988 A 6.7 6.7 0 0 1 414.499988 598.799988 Z" id="XMLID_549_" fill="#FFFFFF"/>
				<path d="M 858.300025 404.299988 A 5.9 5.9 0 0 1 852.400024 410.199988 A 5.9 5.9 0 0 1 846.500024 404.299988 A 5.9 5.9 0 0 1 852.400024 398.399988 A 5.9 5.9 0 0 1 858.300025 404.299988 Z" id="XMLID_548_" fill="#FFFFFF"/>
				<path d="M 874.800024 357 A 1.9 1.9 0 0 1 872.900024 358.9 A 1.9 1.9 0 0 1 871.000024 357 A 1.9 1.9 0 0 1 872.900024 355.1 A 1.9 1.9 0 0 1 874.800024 357 Z" id="XMLID_547_" fill="#FFFFFF"/>
				<path d="M 528.900024 273.299988 A 7 7 0 0 1 521.900024 280.299988 A 7 7 0 0 1 514.900024 273.299988 A 7 7 0 0 1 521.900024 266.299988 A 7 7 0 0 1 528.900024 273.299988 Z" id="XMLID_546_" fill="#FFFFFF"/>
				<path d="M 296.499994 203.899994 A 4.6 4.6 0 0 1 291.899994 208.499994 A 4.6 4.6 0 0 1 287.299994 203.899994 A 4.6 4.6 0 0 1 291.899994 199.299994 A 4.6 4.6 0 0 1 296.499994 203.899994 Z" id="XMLID_545_" fill="#FFFFFF"/>
				<path d="M 713.500025 524.200012 A 8.1 8.1 0 0 1 705.400024 532.300013 A 8.1 8.1 0 0 1 697.300024 524.200012 A 8.1 8.1 0 0 1 705.400024 516.100012 A 8.1 8.1 0 0 1 713.500025 524.200012 Z" id="XMLID_544_" fill="#FFFFFF"/>
				<path d="M 649.900024 421.200012 A 4.5 4.5 0 0 1 645.400024 425.700012 A 4.5 4.5 0 0 1 640.900024 421.200012 A 4.5 4.5 0 0 1 645.400024 416.700012 A 4.5 4.5 0 0 1 649.900024 421.200012 Z" id="XMLID_543_" fill="#FFFFFF"/>
				<path d="M 792.900024 299.200012 A 6 6 0 0 1 786.900024 305.200012 A 6 6 0 0 1 780.900024 299.200012 A 6 6 0 0 1 786.900024 293.200012 A 6 6 0 0 1 792.900024 299.200012 Z" id="XMLID_542_" fill="#FFFFFF"/>
				<path d="M 913.900024 76.5 A 7 7 0 0 1 906.900024 83.5 A 7 7 0 0 1 899.900024 76.5 A 7 7 0 0 1 906.900024 69.5 A 7 7 0 0 1 913.900024 76.5 Z" id="XMLID_541_" fill="#FFFFFF"/>
				<path d="M 77.9 109.800003 A 8.9 8.9 0 0 1 69 118.700003 A 8.9 8.9 0 0 1 60.1 109.800003 A 8.9 8.9 0 0 1 69 100.900003 A 8.9 8.9 0 0 1 77.9 109.800003 Z" id="XMLID_540_" fill="#FFFFFF"/>
				<path d="M -2.6 203.5 A 4.9 4.9 0 0 1 -7.5 208.4 A 4.9 4.9 0 0 1 -12.4 203.5 A 4.9 4.9 0 0 1 -7.5 198.6 A 4.9 4.9 0 0 1 -2.6 203.5 Z" id="XMLID_539_" fill="#FFFFFF"/>
				<path d="M 192.499997 15.2 A 8.3 8.3 0 0 1 184.199997 23.5 A 8.3 8.3 0 0 1 175.899997 15.2 A 8.3 8.3 0 0 1 184.199997 6.9 A 8.3 8.3 0 0 1 192.499997 15.2 Z" id="XMLID_538_" fill="#FFFFFF"/>
				<path d="M -2.6 10.2 A 4.9 4.9 0 0 1 -7.5 15.1 A 4.9 4.9 0 0 1 -12.4 10.2 A 4.9 4.9 0 0 1 -7.5 5.3 A 4.9 4.9 0 0 1 -2.6 10.2 Z" id="XMLID_537_" fill="#FFFFFF"/>
				<path d="M 167.900003 258.700012 A 7.6 7.6 0 0 1 160.300003 266.300012 A 7.6 7.6 0 0 1 152.700003 258.700012 A 7.6 7.6 0 0 1 160.300003 251.100012 A 7.6 7.6 0 0 1 167.900003 258.700012 Z" id="XMLID_536_" fill="#FFFFFF"/>
				<path d="M -12.4 291 H -12.4 V 291 H -12.4 V 291 Z" id="XMLID_535_" fill="#FFFFFF"/>
				<path d="M 17.3 504.5 A 6.1 6.1 0 0 1 11.2 510.6 A 6.1 6.1 0 0 1 5.1 504.5 A 6.1 6.1 0 0 1 11.2 498.4 A 6.1 6.1 0 0 1 17.3 504.5 Z" id="XMLID_534_" fill="#FFFFFF"/>
				<path d="M -25.499999 576.299988 A 3.3 0 0 0 1 -28.799999 576.299988 A 3.3 0 0 0 1 -32.099999 576.299988 A 3.3 0 0 0 1 -28.799999 576.299988 A 3.3 0 0 0 1 -25.499999 576.299988 Z" id="XMLID_533_" fill="#FFFFFF"/>
				<path d="M 872.899976 43.700001 A 10.3 10.3 0 0 1 862.599976 54.000001 A 10.3 10.3 0 0 1 852.299975 43.700001 A 10.3 10.3 0 0 1 862.599976 33.400001 A 10.3 10.3 0 0 1 872.899976 43.700001 Z" id="XMLID_532_" fill="#FFFFFF"/>
				<path d="M 530.500012 697.299988 A 4.3 4.3 0 0 1 526.200012 701.599988 A 4.3 4.3 0 0 1 521.900012 697.299988 A 4.3 4.3 0 0 1 526.200012 692.999988 A 4.3 4.3 0 0 1 530.500012 697.299988 Z" id="XMLID_531_" fill="#FFFFFF"/>
				<path d="M 329.099988 629 A 3.8 3.8 0 0 1 325.299988 632.8 A 3.8 3.8 0 0 1 321.499988 629 A 3.8 3.8 0 0 1 325.299988 625.2 A 3.8 3.8 0 0 1 329.099988 629 Z" id="XMLID_530_" fill="#FFFFFF"/>
				<path d="M 474.500012 467.700012 A 4.3 4.3 0 0 1 470.200012 472.000012 A 4.3 4.3 0 0 1 465.900012 467.700012 A 4.3 4.3 0 0 1 470.200012 463.400012 A 4.3 4.3 0 0 1 474.500012 467.700012 Z" id="XMLID_529_" fill="#FFFFFF"/>
				<path d="M 830.8 499.399994 A 2.8 2.8 0 0 1 828 502.199994 A 2.8 2.8 0 0 1 825.2 499.399994 A 2.8 2.8 0 0 1 828 496.599994 A 2.8 2.8 0 0 1 830.8 499.399994 Z" id="XMLID_528_" fill="#FFFFFF"/>
				<path d="M 924.1 479 A 3.1 3.1 0 0 1 921 482.1 A 3.1 3.1 0 0 1 917.9 479 A 3.1 3.1 0 0 1 921 475.9 A 3.1 3.1 0 0 1 924.1 479 Z" id="XMLID_527_" fill="#FFFFFF"/>
			</g>
			<path d="M 409.400012 170.600006 A 11.7 11.7 0 0 1 397.700012 182.300006 A 11.7 11.7 0 0 1 386.000012 170.600006 A 11.7 11.7 0 0 1 397.700012 158.900006 A 11.7 11.7 0 0 1 409.400012 170.600006 Z" id="XMLID_16_" fill="#FFFFFF"/>
			<path d="M 452.600006 57.700001 A 7.5 7.5 0 0 1 445.100006 65.200001 A 7.5 7.5 0 0 1 437.600006 57.700001 A 7.5 7.5 0 0 1 445.100006 50.200001 A 7.5 7.5 0 0 1 452.600006 57.700001 Z" id="XMLID_15_" fill="#FFFFFF"/>
			<path d="M 316.400012 351.799988 A 8.7 8.7 0 0 1 307.700012 360.499988 A 8.7 8.7 0 0 1 299.000012 351.799988 A 8.7 8.7 0 0 1 307.700012 343.099988 A 8.7 8.7 0 0 1 316.400012 351.799988 Z" id="XMLID_14_" fill="#FFFFFF"/>
			<path d="M 419.6 372.100006 A 2.6 2.6 0 0 1 417 374.700006 A 2.6 2.6 0 0 1 414.4 372.100006 A 2.6 2.6 0 0 1 417 369.500006 A 2.6 2.6 0 0 1 419.6 372.100006 Z" id="XMLID_13_" fill="#FFFFFF"/>
			<path d="M 313.400006 499 A 2.3 2.3 0 0 1 311.100006 501.3 A 2.3 2.3 0 0 1 308.800006 499 A 2.3 2.3 0 0 1 311.100006 496.7 A 2.3 2.3 0 0 1 313.400006 499 Z" id="XMLID_12_" fill="#FFFFFF"/>
			<path d="M 1437.899951 257.200012 A 6.2 6.2 0 0 1 1431.699951 263.400012 A 6.2 6.2 0 0 1 1425.499951 257.200012 A 6.2 6.2 0 0 1 1431.699951 251.000012 A 6.2 6.2 0 0 1 1437.899951 257.200012 Z" id="XMLID_11_" fill="#FFFFFF"/>
			<path d="M 1001.600024 83.699997 A 7.2 7.2 0 0 1 994.400024 90.899997 A 7.2 7.2 0 0 1 987.200025 83.699997 A 7.2 7.2 0 0 1 994.400024 76.499997 A 7.2 7.2 0 0 1 1001.600024 83.699997 Z" id="XMLID_10_" fill="#FFFFFF"/>
			<path d="M 489.399994 564.900024 A 6 6 0 0 1 483.399994 570.900024 A 6 6 0 0 1 477.399994 564.900024 A 6 6 0 0 1 483.399994 558.900024 A 6 6 0 0 1 489.399994 564.900024 Z" id="XMLID_9_" fill="#FFFFFF"/>
			<path d="M 601.100012 596.200012 A 6.4 6.4 0 0 1 594.700012 602.600012 A 6.4 6.4 0 0 1 588.300012 596.200012 A 6.4 6.4 0 0 1 594.700012 589.800012 A 6.4 6.4 0 0 1 601.100012 596.200012 Z" id="XMLID_8_" fill="#FFFFFF"/>
			<path d="M 508.900012 720.900024 A 6.7 6.7 0 0 1 502.200012 727.600024 A 6.7 6.7 0 0 1 495.500012 720.900024 A 6.7 6.7 0 0 1 502.200012 714.200025 A 6.7 6.7 0 0 1 508.900012 720.900024 Z" id="XMLID_7_" fill="#FFFFFF"/>
			<path d="M 195.399997 603.400024 A 7.2 7.2 0 0 1 188.199997 610.600024 A 7.2 7.2 0 0 1 180.999997 603.400024 A 7.2 7.2 0 0 1 188.199997 596.200025 A 7.2 7.2 0 0 1 195.399997 603.400024 Z" id="XMLID_6_" fill="#FFFFFF"/>
			<g>
				<path id="XMLID_5_" fill="#FFFFFF" d="M429.4,99.7c6.3,0,6.3-9.8,0-9.8C423.1,89.9,423.1,99.7,429.4,99.7L429.4,99.7z"/>
			</g>
			<g>
				<path id="XMLID_4_" fill="#FFFFFF" d="M372.4,123.4c3.9,0,3.9-6.1,0-6.1C368.5,117.3,368.5,123.4,372.4,123.4L372.4,123.4z"/>
			</g>
			<g>
				<path id="XMLID_3_" fill="#FFFFFF" d="M432.4,306.3c3.9,0,3.9-6.1,0-6.1C428.5,300.3,428.5,306.3,432.4,306.3L432.4,306.3z"/>
			</g>
		</g>
	</g>
</svg>