<svg xmlns="http://www.w3.org/2000/svg" id="master-artboard" width="800" height="600" x="0" y="0" enable-background="new 0 0 800 600" version="1.1" viewBox="0 0 800 600"><path fill="#89CEE4" d="M 0 0 H 800 V 600 H 0 V 0 Z" transform="matrix(1, 0, 0, 1, 0, 7.105427357601002e-15)"/><path fill="#A7D8E9" d="M0,225c0,0,41-44,136-31s156-63,271.5-55c88.4,6.1,99.5,34.5,180.5-0.2S715,29,800,49v316.3H0L0,225z" transform="matrix(1, 0, 0, 1, 0, 7.105427357601002e-15)"/><path fill="#FFF" d="M361,42.7c-14.3,9,27,25.3,55,30.3s39.2,50,77.1,49s57.1,13.7,98.8,31s53.3-3.2,85.7,7.9 C710,172,749,205.1,800,194.1V94.8c0,0-46-14.8-71-11.8s-40,11-89-5s-57.6-8-94.8-6S386,27,361,42.7z" transform="matrix(1, 0, 0, 1, 0, 1.4210854715202004e-14)"/><path fill="#FFF" d="M0,63.3c0,0,8.6,25.7,53.9,21.4s42.8,24.7,84.7,33.7s59.5-15.1,87.3,0s39.3,37.3,75.3,30.4 s41.9,17.2,73.6,17.2s29.1-11.1,59.9-10.3s21.8-18-14.8-16.3s-47.7-16.5-84-31.3s-50-13.1-67.1-44.8S207,46.5,182.2,39.1 S129.2,0,129.2,0H0V63.3z" transform="matrix(1, 0, 0, 1, 0, 1.4210854715202004e-14)"/><path fill="#FFF" d="M410.3,200c16.2-0.9,36.5,3.7,54.4,4c17.9,0.2,29.5-8.6,55.9-3.4c26.4,5.2,34.9,21.9,55.1,18.6 c20.2-3.3,30.6,13,55.3,16.5s14.6,17.9,5.3,18.8c-9.3,1-24.1-8.1-62.1-5.5s-55.1-16.5-87.7-8.9s-46.6-20.7-67.6-20.9 c-21-0.2-49.7-9.8-46.6-18.6C375.3,191.8,387.8,201.3,410.3,200z" transform="matrix(1, 0, 0, 1, 0, 1.4210854715202004e-14)"/><path fill="#44652F" d="M671.4,130.6l-18,51.5c0,0-4.6-9.7-2.2-22.5c2.4-12.8,17.1-29.7,17.1-29.7l-34.7,40.5 c0,0-1.2-15.6,4.9-26.4s28.7-17.7,28.7-17.7l-51.7,20.7c0,0,3.2-16.9,15-23.3c11.9-6.3,35,0.1,35,0.1s-22.3-17.8-41.3-23.9 c0,0,12.4-4.5,25.3,0.9c12.9,5.4,21.1,23.2,21.1,23.2l-1.9-29c0,0,14.8,5.1,4.7,29.9c0,0,14.8-8.4,25.5-6.4 c10.7,2,18.3,14.1,18.3,14.1l-43.6-4.3c0,0,25,5.9,29.5,16.2c4.5,10.2,2.5,23.5,2.5,23.5L671.4,130.6z" transform="matrix(1, 0, 0, 1, 0, 1.4210854715202004e-14)"/><path fill="#44652F" d="M669.8,128.7c0,0,1,97.7,30.7,187.6h19.4c0,0-29.2-34.8-46.7-189.9L669.8,128.7z" transform="matrix(1, 0, 0, 1, 0, 1.4210854715202004e-14)"/><path fill="#44652F" d="M516,322.1c0,0,25-24.9,37-28.8c12-3.9,36,2.3,43,2c7-0.3,27-27.3,43-28.9c16-1.6,28,0,28,0 s21-18.1,39-20.9s44,17.8,44,17.8s19-18,50-18v76.9H516z" transform="matrix(1, 0, 0, 1, 0, 7.105427357601002e-15)"/><path fill="#44652F" d="M541.3,218.8l-5.9,38.5c0,0-4.5-6.2-4.5-15.6s8.1-23.1,8.1-23.1l-19.1,33c0,0-2.9-10.8,0-19.2 c2.9-8.4,17.9-16.2,17.9-16.2l-33.6,21.3c0,0,0-12.3,7.5-18.3c7.5-6,24.6-4.5,24.6-4.5s-18-9.6-32.1-11.4c0,0,8.1-4.8,17.9-2.7 c9.8,2.1,17.9,13.5,17.9,13.5l-5.1-20.1c0,0,11.1,1.6,7.2,20.4c0,0,9.3-7.8,17.1-7.8c7.8,0,14.7,7.5,14.7,7.5l-31.2,2.7 c0,0,18.3,0.9,22.8,7.5c4.5,6.6,4.8,16.2,4.8,16.2L541.3,218.8z" transform="matrix(1, 0, 0, 1, 0, 1.4210854715202004e-14)"/><path fill="#44652F" d="M539,216.1c0,0,4.2,78.1,46.6,106l6.3-4.5c0,0-22.2-9.2-37.2-52c-15-42.8-13.5-51.1-13.5-51.1L539,216.1z" transform="matrix(1, 0, 0, 1, 0, 1.4210854715202004e-14)"/><path fill="#44652F" d="M518.6,264.1l4.7,26.7c0,0-4.4-3.1-6.4-9.2s0.2-17,0.2-17l-5.2,26c0,0-4.3-6.5-4.3-12.7 c0-6.2,8.2-14.7,8.2-14.7l-17.4,21.5c0,0-2.7-8.1,0.9-13.7s15.2-8.4,15.2-8.4s-14-2.3-23.7-0.4c0,0,4.3-5,11.2-5.8 c6.9-0.8,14.8,4.9,14.8,4.9l-7.8-12.1c0,0,7.7-1.4,9.3,11.8c0,0,4.4-7.2,9.5-8.9c5.1-1.7,11.4,1.7,11.4,1.7l-20,8.7 c0,0,12.3-3.5,16.7-0.1c4.4,3.3,6.8,9.6,6.8,9.6L518.6,264.1z" transform="matrix(1, 0, 0, 1, 0, 1.4210854715202004e-14)"/><path fill="#44652F" d="M516.5,262.8c0,0,20.1,50.5,54.2,59.5l3.2-4.4c0,0-16.7-1.1-36.1-25.9c-19.4-24.8-20.2-30.6-20.2-30.6 L516.5,262.8z" transform="matrix(1, 0, 0, 1, 0, 1.4210854715202004e-14)"/><path fill="#3A5225" d="M622,318.8c0,0,26-18.3,36-18.8s26,6.5,28.5,5s17.5-9.5,25.5-11s20.5,0,20.5,0s12.5-13.5,18-14 s14.5,6,14.5,6s12.5-19.5,35-19.5v52.3H622z" transform="matrix(1, 0, 0, 1, 0, 7.105427357601002e-15)"/><path fill="#FFF2D4" d="M294,332.5c0,0,88-14.3,200.5-17.3S800,305,800,305v27.5H294z" transform="matrix(1, 0, 0, 1, 0, 7.105427357601002e-15)"/><path fill="#7ECBB7" d="M 0 328 H 800 V 600 H 0 V 328 Z" transform="matrix(1, 0, 0, 1, 0, 7.105427357601002e-15)"/><path fill="#6DB2A1" d="M0,453c0,0,26-18.7,67-18.7s26,3.3,20-7.5c-6-10.8,60-3.2,72-7.5c12-4.3-6-12.3,11-18.3 s74,8,87,0s26-14.8,59-10.9s34,19.9,0,25.9s-34,35-56,48s-63,22-63,27s59-3.1,56.5,12.4s-63.5,26-74.5,37.8 C168,553,197,562,198,576s-10,24-10,24H0V453z" opacity=".75" transform="matrix(1, 0, 0, 1, 0, 1.4210854715202004e-14)"/><path fill="#6DB2A1" d="M634.2,362c19.3,0,19.8,11.3,33.1,13.4s33.2,5.6,39.6,13.5c6.4,7.9,25,4.1,23.5,14.5s-41.8,12.3-53.7,12.5 c-11.9,0.2-6.2-9-18.3-10.1c-12.1-1.1-41.4,3.6-48.9-2.3c-7.5-5.9-21.7-0.2-27.4-5.9c-5.7-5.7,27.9-2.7,37.1-7.8 c9.2-5-14.3-5.7-22.9-10.7s-27.1,0-33.5-8.6C556.5,361.9,600,362,634.2,362z" transform="matrix(1, 0, 0, 1, 0, 1.4210854715202004e-14)"/><path fill="#6DB2A1" d="M579,448c-37,0-36.8-17.2-74.8-13.7c-38.1,3.4-36.5,27-6.3,27.4C528,462,527,476.5,552,477.8 c25,1.2,79,3.2,82,16.7s-49.4,29.7-38,46.7c11.4,17,42,13.4,57,26.1s23,32.7,23,32.7h124v-96.6c0,0-24-4.5-41-9s-25-19-48-20.7 c-23-1.7-73,3.7-89,0C606,470,605.1,448,579,448z" transform="matrix(1, 0, 0, 1, 0, 1.4210854715202004e-14)"/><path fill="#FFF2D4" d="M400,325.5c0,0,119.1-1.1,179,5.5c60,6.5,221,7.8,221,7.8v-16.6L400,325.5z" transform="matrix(1, 0, 0, 1, 0, 7.105427357601002e-15)"/><path fill="#98D4C4" d="M400,409.3c-65.5,0-187.5,142.2-259.7,190.7h71c52.9-46.9,141-180.7,188.6-180.7 c47.6,0,136.2,133.8,189,180.7h70.6C587.4,551.5,465.5,409.3,400,409.3z" opacity=".75" transform="matrix(1, 0, 0, 1, 0, 7.105427357601002e-15)"/><g><path fill="#EE2B61" d="M400,382c-87.1,78.7-120,218-120,218h120h120C520,600,487.1,460.7,400,382z" transform="matrix(1, 0, 0, 1, 0, 1.4210854715202004e-14)"/><path fill="#D42457" d="M400,382v218h120C520,600,487.1,460.7,400,382z" transform="matrix(1, 0, 0, 1, 0, 1.4210854715202004e-14)"/></g><path fill="#414042" d="M473,547.6c0-10.9-32.7-19.7-73-19.7s-73,8.8-73,19.7c0,3.6,0,16.1,0,19.7c0,10.9,32.7,19.7,73,19.7 s73-8.8,73-19.7C473,563.7,473,551.2,473,547.6z" transform="matrix(1, 0, 0, 1, 0, 2.1316282072803006e-14)"/><path fill="#4A4B4C" d="M 473 547.599976 A 73 19.700001 0 0 1 400 567.299976 A 73 19.700001 0 0 1 327 547.599976 A 73 19.700001 0 0 1 400 527.899975 A 73 19.700001 0 0 1 473 547.599976 Z" transform="matrix(1, 0, 0, 1, 0, 2.1316282072803006e-14)"/><path fill="#6D6E71" d="M 428 547.599976 A 28 6.4 0 0 1 400 553.999976 A 28 6.4 0 0 1 372 547.599976 A 28 6.4 0 0 1 400 541.199975 A 28 6.4 0 0 1 428 547.599976 Z" transform="matrix(1, 0, 0, 1, 0, 2.1316282072803006e-14)"/><path fill="none" stroke="#FFDE17" stroke-linecap="round" stroke-miterlimit="10" stroke-width="3" d="M454.3,447.4 c-90.7,0-147.4,74.1-147.4,74.1S347,485,400,485s93.1,36.5,93.1,36.5s-56.7-74.1-147.4-74.1c0,0,18.3-13.4,54.3-13.4 S454.3,447.4,454.3,447.4z" transform="matrix(1, 0, 0, 1, 0, 2.1316282072803006e-14)"/><path fill="none" stroke="#FFDE17" stroke-linecap="round" stroke-miterlimit="10" stroke-width="3" d="M 407.5 426.799988 A 7.5 7.5 0 0 1 400 434.299988 A 7.5 7.5 0 0 1 392.5 426.799988 A 7.5 7.5 0 0 1 400 419.299988 A 7.5 7.5 0 0 1 407.5 426.799988 Z" transform="matrix(1, 0, 0, 1, 0, 1.4210854715202004e-14)"/></svg>