<svg xmlns="http://www.w3.org/2000/svg" id="master-artboard" width="1400" height="980" x="0" y="0" enable-background="new 0 0 1400 980" version="1.1" viewBox="0 0 1400 980"><g id="object"><path fill="#F78B3C" fill-rule="evenodd" d="M 0 0 H 1400 V 610.799988 H 0 V 0 Z" clip-rule="evenodd"/><path fill="#F79654" fill-rule="evenodd" d="M54.7,374.6c0,0,142.9-9,160.9-24c18-15-31.5-60,16.5-67.5 s217.4,0,231-9c13.5-9-34.5-57,7.5-63c42-6,302,0,341.5,0s117-5.2,121.7,31.9c4.7,37.1-5.3,50.9,79.2,48.5 c84.5-2.4,139.4-7.3,132.9,13.9s-16.9,49.7,41.6,49.7s77.2,19.5,77.2,19.5l-12.7,63l-81.7,59.6c0,0-723.8,77.1-888,47 S54.7,490,54.7,490V374.6z" clip-rule="evenodd"/><path fill="#703318" fill-rule="evenodd" d="M700,552.6l-73.9-18c0,0,94.9-56.5,113.7-58 c18.8-1.5,29.1,29.8,62.2,13.4s45.3-89.9,61-86.9s24.6,68.4,36.6,74.7c12,6.3,45-158.7,66-152.7c21,6,17.1,48,28.1,60 c10.9,12,27.4,7.5,45.4,16.5c18,9,4.5,28.5,24,30c19.5,1.5,87-22.5,107.2-57c20.3-34.5,27.7-57,44.2-63s35.4-4.5,57.5-22.5 c22-18,40-55.5,49-58.5c9-3,78.9-19.5,78.9-19.5V745L700,552.6z" clip-rule="evenodd"/><path fill="#5B3217" fill-rule="evenodd" d="M717,552.7c-5-9.3-115-49.7-122-53.7s-47-4-56.7-5 c-9.7-1-61.3-15-75.2-17S443,467,413,452s-177-4-182-7s-30-6-39-8s-30-16-48-27c-10.7-6.5-18.9-42.5-23.8-70.8 c-1.3-7.6-11.8-8.5-14.4-1.3c-5.2,14.3-12.3,27.5-20.7,26C67.2,361,37.3,246,32,243S0,334,0,334v353l723-120.5 C723,566.5,722,562,717,552.7z" clip-rule="evenodd"/><path fill="#472411" fill-rule="evenodd" d="M259.9,625.2c-0.3-2.6,337.7-58.8,337.7-58.8L709,557 c0,0-67.7-22-98.5-30.7s-57.4-18-63.1-18S516.9,497,516.9,497s-49.9-7-49.9-7l-54-38c0,0-42.7-6.3-47.3-0.3c-4.7,6-10,10.1-26,13.4 s-23.3-1.4-34,4c-10.7,5.3-53.4,4.7-56.7,0c-3.3-4.7-22-24.4-24.3-22.9c-2.3,1.5-28.3,0-28.3,0s-56.3-25.1-57.5-30.5 c-0.4-1.9-3.3-12.9-6.8-26.3c-3.2-9.4-6.1-20.7-8.4-32.1c-3.3-12.7-5.9-22.4-5.9-22.5c0,0,0,0,0,0c0,0-4.7,2.2-4.7,11.5 c0,9.3-2.6,13.3-3.6,22.7c-1,9.3-3.7,22-3.7,28.7c0,6.7-0.7,19.3-5.3,15.3c-4.7-4-15.2-32.7-15.2-32.7L82,362.5 C67.2,351.1,46.4,279.7,36.6,253L32,243c0,0,1.7,47.3,0,58c-1.7,10.7-4.3,10-4.3,18s0.7,14,0,20c-0.7,6-1.3,33.3-4,41.3 c-2.7,8-4.4,14.7-5.9,18.7C16.3,403,0,448.3,0,448.3v200.9c0,0,109-10.3,112.3-10.9C115.7,637.7,260.2,627.9,259.9,625.2z" clip-rule="evenodd"/><path fill="#EAA978" fill-rule="evenodd" d="M0,649.3c0,0,285.1-87.2,691.1-96.2 c405.9-9,708.9,110.6,708.9,110.6V980H0V649.3z" clip-rule="evenodd"/><path fill="#EFBE97" fill-rule="evenodd" d="M1004.8,658.8c0,0,32.2,27.2,63.2,20.7s24-24.4,69-9 c45,15.4,137,31.4,135,23.4s-76-52-106-57s-63,8-95,4s-131-21-119-11S1004.8,658.8,1004.8,658.8z" clip-rule="evenodd"/><path fill="#EFBE97" fill-rule="evenodd" d="M29.7,692c15-8.9,42.7-14.8,68.7-11.6c26,3.2,25.3,15.6,46.7,9 c21.3-6.5,121.7-23.1,114.6-11.5c-7.1,11.6-65.9,16.3-87.2,31.3s-43.3,19-56,13s-36-12-48.7-7.3C55,719.5-8,714.4,29.7,692z" clip-rule="evenodd"/><path fill="#EFBE97" fill-rule="evenodd" d="M0,869.2c0,0,164.6-40.2,202.1-68.6s-63-40.7-9-55.6 c54-14.9,151.5-20.1,168-45.6c16.5-25.5,83.7-22.8,130.3-37.4c46.7-14.6-2.8-38.7,25.5-44.1c28.3-5.4,127.5-18.2,128.3-33.2 c0.8-15,69.8-8.7,74.3,7.7c4.5,16.3-1,17.8,55.5,25.5c108,14.8,61.5,27.4,60,36.9c-1.5,9.4,109,25.9,180.5,44.7 c71.5,18.7,169,30.5,163,45.6c-6,15.1-82.5,42.1-31.5,55.6c51,13.5,181.5,10.6,175.5,34.6s-28.1,33,0.2,49.5 c28.3,16.5,77.2,28.8,77.2,28.8V980H0V869.2z" clip-rule="evenodd"/><path fill="#F9D2AF" fill-rule="evenodd" d="M658.1,643.3c0,0-161.2,28.9-148,41.6c13.2,12.7,45,27,6.9,39.1 c-38.2,12.1-122.8,35-113.8,46.8c9,11.8,33.6,16-0.5,34.2c-34,18.1-215.5,31.7-203.5,51.2c12,19.4,81-8.4,54,16 C226.1,896.6,14.6,980,14.6,980h1339.4c0,0-157.5-49.8-183-66.6c-25.5-16.8,82.5-7.2,3-41.2c-79.5-34.1-168-56.6-186-71.6 s82.5,12,45-19.5c-37.5-31.5-143.8-54-170.1-67.5s50.3-6.3,0-28.6c-50.3-22.4-88.3-41.4-125.6-41.7S658.1,643.3,658.1,643.3z" clip-rule="evenodd"/><path fill="#FFECD9" fill-rule="evenodd" d="M626.1,770.8c0,0-105.2,13.6-109.2,22.9 c-3.9,9.3,42.1,8.6,34.1,18c-8,9.3-115.3,22-121.3,34.7c-6,12.7,70.7,1.3,57.3,12.7s-164.7,66.7-160.7,75.3c4,8.7,72.7-2,66.7,8 S282.3,980,282.3,980h793.3c0,0-160.7-51.6-167.3-66.6c-6.7-15,120,23,96.7,0c-23.3-23-126.7-34.4-132.7-46.4s98,6,82-5.3 c-16-11.3-140-46.8-155.3-56.7c-15.3-9.9,62,7.8,59.3-4.4c-2.7-12.2-96.6-32.2-116.3-35.5C722.3,761.7,626.1,770.8,626.1,770.8z" clip-rule="evenodd"/><path fill="#F9D2AF" fill-rule="evenodd" d="M 1013.7000122070312 965.2000122070312 L 1047 980 L 1013.7000122070312 980 L 1004.7999877929688 967.2999877929688 Z" clip-rule="evenodd"/><path fill="#FC9" fill-rule="evenodd" d="M587.2,632.7c-2.2,2-3.8,5.5-4.8,10.6c-0.2,1.1-0.4,2.3-0.6,3.5 c3.6,7.5,10.5,14.6,20.7,21.1c12.4-2.9,18.8-11.1,22.1-22.2c4.4-14.6-3.7-24.6-16.2-29.8c-5-2.1-17.4-4.4-17,4 c0.1,3.1-0.8,6.4-2.5,9.7C588.5,630.7,587.9,631.7,587.2,632.7" clip-rule="evenodd"/><path fill="#FC9" fill-rule="evenodd" d="M641.7,671.5c-7.3-3.5-10,2.9-8.9,10.6c1,7.3,5.5,15.7,12.4,17.2 c-0.1-4-0.4-8.5-1.1-13.3C643.5,681.5,642.5,676.6,641.7,671.5" clip-rule="evenodd"/><path fill="#D9B367" fill-rule="evenodd" d="M582.4,643.3c1-5.1,2.6-8.7,4.8-10.6c0.7-1,1.3-2,1.8-3 c-31-24.3-47.6-37.4-47.6-37.4c-0.2,0.6-0.5,1.2-0.9,1.9c-1.6,2.8-5.2,6.5-7,8.4c-1,1-1.4,1.5-2.1,1.5 C548.8,617.5,566,630.7,582.4,643.3" clip-rule="evenodd"/><path fill="#963" fill-rule="evenodd" d="M533.5,602.6c1.8-1.9,5.4-5.6,7-8.4c0.4-0.7,0.7-1.3,0.9-1.9 c0.6-1.8,0.2-3.1-0.5-4.3c-0.9-1.5-2.3-2.7-3.5-4.2c-1.2-1.5-2.2-3.4-3.2-7.2c-1-3.8-1.9-9.6-3.5-14.6c-1.6-5.1-3.9-9.5-18.6-24 c-14.7-14.5-41.7-39.1-56.7-51.6c-15-12.5-17.8-12.9-20.9-14c-3.1-1.1-6.4-2.8-9.1-4.2c-2.7-1.4-4.9-2.6-8.3-2.9 c-3.4-0.4-8,0.1-12.9,2.8c-5,2.7-10.3,7.8-13.8,13.6c-3.5,5.8-5.2,12.4-5.7,17.2c-0.5,4.7,0.2,7.6,0.7,9.9c0.5,2.3,0.8,4,1.4,7 c0.6,2.9,1.4,7.1,4.1,11.2s7.1,8.1,21.1,18.7c14,10.6,37.6,27.9,53.3,38.5c15.7,10.6,23.6,14.7,28.7,16.2c5.1,1.6,7.4,0.7,10.3,0.1 c2.9-0.6,6.3-1.1,11-0.4c4.7,0.7,10.6,2.6,13.6,3.5c1.3,0.4,2.1,0.6,2.6,0.6C532.1,604.1,532.6,603.6,533.5,602.6" clip-rule="evenodd"/><path fill="#1A1A1A" fill-rule="evenodd" d="M645.2,638.3c-1.5,2.5-3.4,5.4-4.2,10.2 c-0.9,4.8-0.7,11.6,0.1,18.2c0.2,1.6,0.4,3.2,0.7,4.8c0.8,5,1.8,9.9,2.4,14.5c0.7,4.8,1,9.3,1.1,13.3c0,1,0,2,0,3 c0,4.8-0.3,9,1,13.1c1.3,4.1,4.1,8.2,6.9,12.3c12.5-2.5,25.2-3.2,37.9-2.2c4.5-0.4,18.7,0.7,33.3,3c1.3-1.8,2.6-3.6,3.4-5.4 c0.7-1.8,0.9-3.7,2-5.6c1.1-1.9,3.1-4,4.2-6c1.1-2.1,1.2-4.2,2.2-6.8c0.7-1.7,1.8-3.6,2.8-5.5c0.5-0.9,0.9-1.8,1.3-2.7 c1.2-2.8,1.8-5.5,1.8-8.1c0-2.6-0.6-5-0.6-8c-0.1-2.4,0.2-5.3,0.4-8.9c0.1-0.9,0.1-1.8,0.1-2.7c0.2-5,0.2-11.5-0.5-15.7 c-0.7-4.2-2.2-6-4-9.8c-1.9-3.8-4.2-9.6-7.3-13.8c-3.2-4.2-7.2-7-12.4-9.2c-5.2-2.2-11.5-3.9-16.2-6c-4.7-2.1-7.9-4.5-11.7-5.6 c-3.8-1.1-8.3-0.8-12.4,0.6c-4.2,1.4-8,3.8-11.1,6c-3,2.2-5.2,4-7.5,5.6c-2.4,1.6-5,2.9-6.6,4.6c-1.7,1.7-2.4,3.9-3.3,6 C647.9,633.6,646.7,635.7,645.2,638.3" clip-rule="evenodd"/><path fill="#999" fill-rule="evenodd" d="M691.1,725.6c-12.8-1.1-25.4-0.3-37.9,2.2 c-12.1,2.4-24.1,6.5-36,12.2c-1.6,1.3,7.5,10.8,6.2,29c-0.8,10.9-1.8,21.6-2.8,32.2c-2.2,22.9-4.3,45.2-3.3,68.1 c0.2,5.1,0.6,10.3,1.2,15.5c27.6,8.9,52,14.8,72.7,13.3c20.7,1.5,45.1-4.4,72.7-13.3c2.4-21.9,1.4-43-0.4-64.4 c-1.4-16.8-3.4-33.7-4.6-51.3c-0.8-11.3,3.4-18.9,4.6-24c1.7-7.7-19.1-13.2-39-16.4C709.7,726.2,695.6,725.2,691.1,725.6" clip-rule="evenodd"/><path fill="#FC9" fill-rule="evenodd" d="M741.3,680.4c0.1,3,0.6,5.5,0.6,8c0,2.6-0.6,5.3-1.8,8.1 c-0.4,0.9-0.9,1.8-1.3,2.7c14.1-3.1,17.3-34.7,2.9-27.8C741.5,675.2,741.3,678,741.3,680.4" clip-rule="evenodd"/><path fill="#B3B3B3" fill-rule="evenodd" d="M763.4,745c-1.1,5.1-5.4,12.6-4.6,24c1.2,17.6,3.2,34.5,4.6,51.3 c12.6,10.2,61.2,48.6,75.6,31.7c5.4-7.1,7.3-12.7,5.7-16.8c-0.4-1-0.9-1.8-1.7-2.6l-15.5-16.6c-3.3-4.1-6.6-8.2-10-12.2 c-7.7-9.2-15.4-18.1-23.2-26.7C784.1,765.8,773.8,755.1,763.4,745" clip-rule="evenodd"/><path fill="#CCC" fill-rule="evenodd" d="M823.2,803.4c-1.7-0.9-3.6-0.9-5.7,0.3c3.3,4,6.7,8.1,10,12.2 l15.5,16.6c0.7,0.8,1.3,1.7,1.7,2.6c-0.7-2.3-1.7-4.7-2.8-7.1c-3.6-7.6-9.3-15.3-17.1-23.1C824.3,804.4,823.8,803.9,823.2,803.4" clip-rule="evenodd"/><path fill="#FC9" fill-rule="evenodd" d="M817.5,803.7c2.1-1.1,3.9-1.2,5.7-0.3c0.5,0.5,1,1,1.6,1.5 c9.2-16.5,5.7-23.4-8.3-31.5c-6.6-4.5-14-3.3-22.1,3.6C802.1,785.6,809.9,794.5,817.5,803.7" clip-rule="evenodd"/><path fill="#B3B3B3" fill-rule="evenodd" d="M620.5,801.1c1-10.6,2.1-21.2,2.8-32.2c1.3-18.2-7.8-27.7-6.2-29 c-18.7,1.6-35.9,3.3-51.7,5.2c17-29.3,29.4-55,37.1-77.1c-10.2-6.5-17.1-13.6-20.7-21.1c-26.9,37.8-49.1,73.4-66.8,106.7 c-13.1,24.8,1.5,30.5,23.6,36.6c24.5,6.7,48.4,10.4,71.6,10.9C613.7,801.1,617.1,801.2,620.5,801.1" clip-rule="evenodd"/><path fill="#D9B367" fill-rule="evenodd" d="M610.5,665l22.3,17.2c-1.1-7.6,1.6-14.1,8.9-10.6 c0-0.2-0.1-0.4-0.1-0.6c-7.3-5.7-14.3-11.2-20.8-16.3C618.3,658.9,615,662.5,610.5,665" clip-rule="evenodd"/><path fill="#D9B367" fill-rule="evenodd" d="M841.9,828c1.1,2.4,2.1,4.7,2.8,7.1c0.9,2.5,0.6,5.5-1,9.1 c102.2,78.6,153.5,117.9,153.5,117.9c22.4,16.5,24.8,7.4,4.7-8.6L841.9,828z" clip-rule="evenodd"/><path fill="#1A1A1A" fill-rule="evenodd" d="M691.1,898c-20.7,1.5-45.1-4.4-72.7-13.3 c-0.6-5.2-0.9-10.3-1.2-15.5c-19.2,4.7-31,11.2-31,18.4c0,14.3,46.9,25.9,104.7,25.9c57.8,0,104.7-11.6,104.7-25.9 c0-7.1-11.7-13.6-30.7-18.3c-0.2,5.1-0.6,10.2-1.2,15.4C736.2,893.5,711.8,899.5,691.1,898" clip-rule="evenodd"/><path fill="#F16A44" fill-rule="evenodd" d="M862.9,980c-20.9-46.6-44-92.3-69.8-138.2 c-12.8-8-24.4-17.3-29.7-21.6c1.4,16.3,2.3,32.5,1.6,49c18.9,4.7,30.7,11.1,30.7,18.3c0,14.3-46.9,25.9-104.7,25.9 c-57.8,0-104.7-11.6-104.7-25.9c0-7.2,11.8-13.7,31-18.4c-1-22.9,1.1-45.2,3.3-68.1c-3.4,0.1-6.8,0-10.3,0 c-35.4,59.1-66.1,118.4-93.3,178.9H862.9z" clip-rule="evenodd"/><path fill="#F6DA69" fill-rule="evenodd" d="M690.9,913.4c-57.8,0-104.7-11.6-104.7-25.9 c0-7.2,11.8-13.7,31-18.4c-0.9-20.8,0.8-41.1,2.7-61.8c-9.7,19.1-21,47.8-36.5,79.1c-12.4,25.1-26.7,65.4-36,93.5h143.8v-66.6 C691.1,913.4,691,913.4,690.9,913.4z" clip-rule="evenodd"/><path fill="#E2C64D" fill-rule="evenodd" d="M799,886.5c-10.9-22-19.7-42.7-27.3-59.7 c-3.5-2.7-6.3-4.9-8.3-6.5c1.4,16.3,2.3,32.5,1.6,49c18.9,4.7,30.7,11.1,30.7,18.3c0,14.3-46.7,25.8-104.4,25.9V980H835 C825.7,951.9,811.4,911.6,799,886.5z" clip-rule="evenodd"/><path fill="#FFECD9" fill-rule="evenodd" d="M177.3,860.1c0,0,49.8-9.3,84.2-11.9s39.4-2,59.5,3 c20.1,5,26.1,7,34.2,5.5s5.5,5.5-9.5,8s-65.3-5.3-88.4,0.9c-23.1,6.1-60.8,8.9-70.8,4.3C176.3,865.3,161,863,177.3,860.1z" clip-rule="evenodd"/><path fill="#FFECD9" fill-rule="evenodd" d="M789.2,652.4c0,0,20.3-2.4,34.3-2.5c13.9-0.1,16,0.2,23.9,2.8 c8,2.6,10.4,3.5,13.6,3.1c3.3-0.4,2.1,2.4-4.1,3c-6.2,0.6-26.2-3.9-35.7-2s-24.8,2-28.7-0.2C788.7,654.4,782.6,653.1,789.2,652.4z" clip-rule="evenodd"/><path fill="#FFECD9" fill-rule="evenodd" d="M938.5,819.1c0,0,31.3-6.9,53-8.8s24.8-1.5,37.5,2.2 c12.7,3.7,16.4,5.2,21.5,4.1c5.1-1.1,3.5,4.1-6,5.9c-9.5,1.9-41.1-3.9-55.7,0.7c-14.6,4.5-38.3,6.6-44.6,3.1 S928.3,821.2,938.5,819.1z" clip-rule="evenodd"/><path fill="#FFECD9" fill-rule="evenodd" d="M21.8,945.9c0,0,49.8-9.3,84.2-11.9s39.4-2,59.5,3 c20.1,5,26.1,7,34.2,5.5c8-1.5,5.5,5.5-9.5,8c-15.1,2.5-65.3-5.3-88.4,0.9s-60.8,8.9-70.8,4.3S5.5,948.7,21.8,945.9z" clip-rule="evenodd"/><path fill="#FFECD9" fill-rule="evenodd" d="M1229.2,898.4c0,0-50.3,6.3-84.7,6.8c-34.5,0.5-39.5-0.3-59.2-6.6 s-25.7-8.6-33.8-7.6c-8.1,1-5.2-5.8,10-7.4c15.2-1.6,64.9,9.2,88.3,4.4c23.4-4.7,61.2-5.2,71,0S1245.6,896.5,1229.2,898.4z" clip-rule="evenodd"/><path fill="#FFECD9" fill-rule="evenodd" d="M0,723.5c0,0,11.9,3.2,27.3,1.6c15.4-1.6,23.8-3.8,36-1.6 c12.2,2.2,13.8,7.7,25.1,7.7s23.5-2.6,20.6,0s-17,7.1-27.6,4.5s-15.7-6.6-25.1-6.2c-9.3,0.4-21.5,5.2-28.6,5.2S0,733.1,0,733.1 V723.5z" clip-rule="evenodd"/><path fill="#FFECD9" fill-rule="evenodd" d="M0,795.6c0,0,18.5,5,42.5,2.5s37-6,56-2.5c19,3.5,21.5,12,39,12 s36.5-4,32,0s-26.5,11-43,7s-24.5-10.3-39-9.6C73,805.6,54,813.1,43,813.1s-43-2.5-43-2.5V795.6z" clip-rule="evenodd"/><path fill="#FFECD9" fill-rule="evenodd" d="M1022,954l93,26h31C1146,980,999.1,938.2,1022,954z" clip-rule="evenodd"/><path fill="#F9D2AF" fill-rule="evenodd" d="M541.7,865L413,980h31C444,980,567.5,842,541.7,865z" clip-rule="evenodd"/><path fill="#F9D2AF" fill-rule="evenodd" d="M906,980c0,0-85.9-113-71-103s93.7,103,93.7,103H906z" clip-rule="evenodd"/><path fill="#FFECD9" fill-rule="evenodd" d="M300,787.9c0,0,24,4.9,38,0s14.2-5.9,21.6-5.9 c7.4,0-6.6-6.9-19.6-4s-14,7.3-24,5.6C306,782,288,789.2,300,787.9z" clip-rule="evenodd"/><path fill="#FFECD9" fill-rule="evenodd" d="M772.7,726.7c0,0,22.2,6.6,35.7,3.2c13.6-3.4,13.9-4.3,20.8-3.7 c6.9,0.6-5.7-7-18.1-5.4s-13.8,5.7-23,3.3C778.8,721.7,761.2,727,772.7,726.7z" clip-rule="evenodd"/><path fill="#FFECD9" fill-rule="evenodd" d="M1275.8,721.6c0,0,22.2,6.6,35.7,3.2s13.9-4.3,20.8-3.7 c6.9,0.6-5.7-7-18.1-5.4c-12.5,1.7-13.8,5.7-23,3.3C1281.9,716.6,1264.4,721.9,1275.8,721.6z" clip-rule="evenodd"/><path fill="#FFECD9" fill-rule="evenodd" d="M227.5,682.7c0,0,17,6,27.8,3.9s11-2.8,16.4-2.1 c5.4,0.8-4.1-5.7-13.9-4.9c-9.8,0.8-11,3.9-18.1,1.6S218.6,682.4,227.5,682.7z" clip-rule="evenodd"/><path fill="#FFECD9" fill-rule="evenodd" d="M415.9,606.4c0,0,17,6,27.8,3.9c10.7-2.1,11-2.8,16.4-2.1 c5.4,0.8-4.1-5.7-13.9-4.9s-11,3.9-18.1,1.6C420.9,602.8,407,606.2,415.9,606.4z" clip-rule="evenodd"/><path fill="#FFECD9" fill-rule="evenodd" d="M492.6,682.7c0,0,17,6,27.8,3.9c10.7-2.1,11-2.8,16.4-2.1 c5.4,0.8-4.1-5.7-13.9-4.9c-9.8,0.8-11,3.9-18.1,1.6C497.5,679,483.6,682.4,492.6,682.7z" clip-rule="evenodd"/><path fill="#FFECD9" fill-rule="evenodd" d="M1124.6,765.7c0,0,17,6,27.8,3.9c10.7-2.1,11-2.8,16.4-2.1 c5.4,0.8-4.1-5.7-13.9-4.9c-9.8,0.8-11,3.9-18.1,1.6S1115.7,765.4,1124.6,765.7z" clip-rule="evenodd"/><path fill="#FFECD9" fill-rule="evenodd" d="M959.1,617.2c0,0,17,6,27.8,3.9c10.7-2.1,11-2.8,16.4-2.1 c5.4,0.8-4.1-5.7-13.9-4.9c-9.8,0.8-11,3.9-18.1,1.6C964.1,613.5,950.2,616.9,959.1,617.2z" clip-rule="evenodd"/><path fill="#EFBE97" fill-rule="evenodd" d="M194.3,617.8c0,0,136.7-24.3,161.3-25.5c24.7-1.3,34,4.7,52,3.4 c18-1.3,42-12.2,42-3.4c0,8.7-13.3,24.1-33.3,21.8s-35.3-5.6-47.3,0s-8.7,11.6-26.7,10.9s-14.6-13.7-46.3-7.2 C264.3,624.3,161,630.6,194.3,617.8z" clip-rule="evenodd"/><path fill="#EFBE97" fill-rule="evenodd" d="M745,571c0,0,18.6,23.7,41.3,17.9c22.7-5.9,35.6-5.1,55.6,0 c20.1,5.1,46.1,10.7,39.1,0.9c-7-9.8-28.9-18.8-46-18.8s-30.5,5-48.7,0C768,566,724.9,564,745,571z" clip-rule="evenodd"/><path fill="#472411" fill-rule="evenodd" d="M862.9,403.1c0,0,6.7,26.6,6.7,35.9s0.7,19.3,0,26 c-0.7,6.7,3.3,13.4,0.3,17.4s-6.9,12-3,15.3c4,3.3,0.4,11.3-4.1,15.3c-4.6,4-12.6,22-12.6,22l-5.1,8c0,0,21.8,2.7,23.8,0 s17.3-18.7,24-19.3c6.7-0.7,6-7.3,6-12s0.6-33.9,0.6-33.9S882.2,402.5,862.9,403.1z" clip-rule="evenodd"/><path fill="#472411" fill-rule="evenodd" d="M970.3,365c-2,19.3-10,34-8,42s12,10,15.3,10 c3.3,0,5,7.3,2.9,15.3c-2.2,8-2.9,36.7,4.5,36.7s11-10.1,19.8-4s8.8,17.4,32.8,22c24,4.7,44.7,3.3,58,0 c13.3-3.3,36.7-18.7,43.3-26.7s10-18,13.3-25.3c3.3-7.3,4.7-12.7,0-12.7c-4.7,0-40,8-47.3,5.3c-1-0.4-3-1.8-5.7-4 c-15.4,5.6-29.1,8.5-36.2,7.9c-19.5-1.5-6-21-24-30c-18-9-34.5-4.5-45.4-16.5c-10.9-12-7.1-54-28.1-60 C965.6,325.1,972.3,345.7,970.3,365z" clip-rule="evenodd"/><g><path fill="#9E5228" fill-rule="evenodd" d="M738.8,483.7c3.6-2,5.5-4.3,6.7-6.5c-1.9-0.5-3.8-0.7-5.8-0.6 c-11.6,0.9-52,22.7-81.4,39.3c5,1.3,9.9,2.2,13.3,1.8c10-1.3,28.7-12.7,32.7-14.7S729,489,738.8,483.7z" clip-rule="evenodd"/><path fill="#9E5228" fill-rule="evenodd" d="M1400,211.1c0,0-69.9,16.5-78.9,19.5c-9,3-27,40.5-49,58.5 c-22,18-41,16.5-57.5,22.5c-16.5,6-24,28.5-44.2,63c-8.1,13.8-23.8,25.9-40.9,35.4h0c2.7-1.5,35.6-9,47.6-14.5s12-20.5,19-24.5 s26-10,40-20s7-9,16-17s13-5,26-4s-7,50-6,60s9,4,19,0s10-8,12.2-15c2.2-7,12.8-17,31.1-30s13.7-72,19.7-76s11.9-6,29.9-8 c5.2-0.6,10.8-3.4,16-7.2V211.1z" clip-rule="evenodd"/><path fill="#9E5228" fill-rule="evenodd" d="M956.2,344l2.9-16.1C942.8,345,921.9,431.7,908.6,465 c0,0,21.8-24.6,27.8-39.3C942.3,411,956.2,344,956.2,344z" clip-rule="evenodd"/><path fill="#9E5228" fill-rule="evenodd" d="M802,490c-2.9,1.4-5.7,2.5-8.2,3.3c5.7,1.4,12.7,2.4,13.9,2.4 c2,0,2.7-6,13.3-9.3s32-46,33.3-56c1.3-10,8.6-27.2,8.6-27.2C847.3,400.1,835.1,473.6,802,490z" clip-rule="evenodd"/></g><path fill="#FFCE55" fill-rule="evenodd" d="M 723 252.600006 A 130 130 0 0 1 593 382.600006 A 130 130 0 0 1 463 252.600006 A 130 130 0 0 1 593 122.600006 A 130 130 0 0 1 723 252.600006 Z" clip-rule="evenodd"/></g></svg>