<?xml version="1.0" encoding="utf-8"?>
<svg id="master-artboard" viewBox="0 0 336 235.2" version="1.1" xmlns="http://www.w3.org/2000/svg" x="0px" y="0px" style="enable-background:new 0 0 336 235.2;" width="336px" height="235.1999969482422px">

<g>
	<path id="sea" class="st0" d="M251.6,138.8l0.1,0c-1.2,0-10.8,0-70.9,0c-59.6,0-75.1,5.1-79.1,7.6c-1,0.4-1.4,0.8-1.4,1.2l0,0&#10;&#9;&#9;c-5.1,8.7,82.7,14.2,83.3,14.3c30.6,3.7,55.4,9.1,69.4,12.6c26.5,5.9,43.8,15.7,43.8,26.8c0,17.2-41.5,31.3-94.3,32.6&#10;&#9;&#9;c-11.8,0.8-23.6,1.1-33.5,1.3H336v-96.3H251.6z" style="fill: rgb(112, 121, 134);"/>
	<path id="sand" class="st1" d="M176.8,235c0.1,0,0.2,0,0.3,0c2.5-0.1,5.2-0.1,7.8-0.2c0.2,0,0.4,0,0.5,0c1.3,0,2.6-0.1,3.9-0.2&#10;&#9;&#9;c0.2,0,0.3,0,0.5,0c1.2-0.1,2.4-0.1,3.7-0.2c0.2,0,0.3,0,0.5,0c1.3-0.1,2.6-0.1,3.9-0.2c0.3,0,0.6,0,0.8,0c1.3-0.1,2.6-0.2,4-0.2&#10;&#9;&#9;c52.8-1.4,94.3-15.5,94.3-32.6c0-11.1-17.3-20.9-43.8-26.8c-0.5-0.1-1-0.2-1.5-0.4c-0.2,0-0.3-0.1-0.5-0.1&#10;&#9;&#9;c-0.4-0.1-0.7-0.2-1.1-0.3c-0.2,0-0.4-0.1-0.6-0.2c-0.3-0.1-0.7-0.2-1-0.2c-0.2-0.1-0.4-0.1-0.7-0.2c-0.4-0.1-0.7-0.2-1.1-0.3&#10;&#9;&#9;c-0.2-0.1-0.5-0.1-0.7-0.2c-0.4-0.1-0.8-0.2-1.2-0.3c-0.4-0.1-0.7-0.2-1.1-0.2c-0.4-0.1-0.9-0.2-1.3-0.3c-0.3-0.1-0.6-0.1-0.9-0.2&#10;&#9;&#9;c-0.3-0.1-0.7-0.1-1-0.2c-0.4-0.1-0.7-0.2-1.1-0.2c-0.3-0.1-0.5-0.1-0.8-0.2c-0.4-0.1-0.8-0.2-1.2-0.3c-0.2-0.1-0.5-0.1-0.8-0.2&#10;&#9;&#9;c-0.5-0.1-0.9-0.2-1.4-0.3c-0.1,0-0.3-0.1-0.4-0.1c-1.8-0.4-3.6-0.7-5.5-1.1c-0.1,0-0.3-0.1-0.4-0.1c-0.6-0.1-1.2-0.2-1.8-0.4&#10;&#9;&#9;c-0.1,0-0.3-0.1-0.4-0.1c-0.6-0.1-1.3-0.2-1.9-0.4c-0.1,0-0.1,0-0.2,0c-3.6-0.7-7.5-1.4-11.5-2.1c0,0,0,0,0,0&#10;&#9;&#9;c-4.9-0.8-10-1.6-15.3-2.4c0,0,0,0-0.1,0c-0.9-0.1-1.8-0.3-2.7-0.4c0,0,0,0,0,0c-3.6-0.5-7.3-1-11.1-1.5c0,0,0,0,0,0&#10;&#9;&#9;c-0.6,0-88.4-5.6-83.3-14.3l0,0c0,0,0,0,0,0c0-0.1,0-0.2,0.1-0.3c0,0,0,0,0-0.1c0.2-0.3,0.6-0.6,1.3-0.9c3.8-2.3,17.9-7,70.2-7.5H0&#10;&#9;&#9;v96.3h132c0,0,4.6,0.1,10.7-0.1l0.8,0.1c0,0,10.7,0.2,25.7,0C171.6,235.2,174.2,235.1,176.8,235z" style="fill: rgb(239, 229, 212);"/>
	<path class="st2" d="M302.6,201.3c0-11.1-17.3-20.9-43.8-26.8c-14-3.4-38.8-8.8-69.4-12.6c-0.6,0-88.4-5.6-83.3-14.3v0&#10;&#9;&#9;c0-0.4,0.4-0.8,1.4-1.2c4-2.4,19.5-7.6,79.1-7.6c-1.8,0-3.7,0-5.6,0c-59.6,0-75.1,5.1-79.1,7.6c-1,0.4-1.4,0.8-1.4,1.2v0&#10;&#9;&#9;c-5.1,8.7,82.7,14.2,83.3,14.3c30.6,3.7,55.4,9.1,69.4,12.6c26.5,5.9,43.8,15.7,43.8,26.8c0,17.2-41.5,31.3-94.3,32.6&#10;&#9;&#9;c-11.8,0.8-23.6,1.1-33.5,1.3h5.6c9.9-0.2,21.7-0.5,33.5-1.3C261.1,232.5,302.6,218.4,302.6,201.3z" style="fill: rgb(255, 255, 255);"/>
</g>
<path d="M 0 0 H 336 V 138.800003 H 0 V 0 Z" id="sky" class="st3" style="fill: rgb(234, 187, 189);"/>
<g id="sun">
	<path d="M 305.400005 52.5 A 31.299999 31.299999 0 0 1 274.100006 83.799999 A 31.299999 31.299999 0 0 1 242.800007 52.5 A 31.299999 31.299999 0 0 1 274.100006 21.200001 A 31.299999 31.299999 0 0 1 305.400005 52.5 Z" class="st4" style="opacity: 0.5; fill: rgb(255, 255, 255);"/>
	<path d="M 295.100006 52.5 A 21 21 0 0 1 274.100006 73.5 A 21 21 0 0 1 253.100006 52.5 A 21 21 0 0 1 274.100006 31.5 A 21 21 0 0 1 295.100006 52.5 Z" class="st5" style="fill: rgb(208, 95, 114);"/>
</g>
<g id="palm_2_">
	<g>
		<path d="M 163.399994 112.800003 H 164.999994 V 138.800003 H 163.399994 V 112.800003 Z" class="st6" style="fill: rgb(194, 178, 167);"/>
	</g>
	<g>
		<g>
			<g>
				<g>
					<path class="st7" d="M164.2,112.8c0,0-9.2,0.8-8.4,10.3c0,0,0.9-1,1.2-1.8c0,0,0.3,0.4,0.2,1c0,0,0.8-0.9,0.9-1.9&#10;&#9;&#9;&#9;&#9;&#9;&#9;c0,0,0.2,0.3,0.1,0.8c0,0,0.8-0.8,1-1.5c0,0,0.2,0.2,0,0.6c0,0,0.8-0.8,0.9-1.9c0,0,0.3,0.2,0.3,0.8c0,0,0.9-1.3,0.9-2&#10;&#9;&#9;&#9;&#9;&#9;&#9;c0,0,0.4,0.1,0.2,0.7C161.4,117.9,163.7,115.7,164.2,112.8z" style="fill: rgb(115, 143, 147);"/>
				</g>
			</g>
			<g>
				<g>
					<path class="st7" d="M164.2,112.8c0,0-0.2-9.7-9.4-9.5c0,0,0.9,1.1,1.7,1.4c0,0-0.5,0.3-1,0.1c0,0,0.9,0.9,1.8,1.1&#10;&#9;&#9;&#9;&#9;&#9;&#9;c0,0-0.3,0.2-0.8,0c0,0,0.8,0.9,1.4,1.1c0,0-0.3,0.2-0.6,0c0,0,0.8,0.9,1.8,1c0,0-0.2,0.3-0.8,0.2c0,0,1.2,1,1.9,1.1&#10;&#9;&#9;&#9;&#9;&#9;&#9;c0,0-0.1,0.4-0.6,0.2C159.4,109.5,161.4,112.1,164.2,112.8z" style="fill: rgb(115, 143, 147);"/>
				</g>
			</g>
			<g>
				<path class="st7" d="M164.2,112.8c0,0-7.8-7-15.1,1c0,0,1.5,0,2.4-0.4c0,0-0.2,0.6-0.7,0.9c0,0,1.4-0.1,2.2-0.7&#10;&#9;&#9;&#9;&#9;&#9;c0,0-0.1,0.4-0.6,0.7c0,0,1.3,0,2-0.3c0,0-0.1,0.3-0.5,0.5c0,0,1.3,0,2.3-0.8c0,0,0,0.4-0.4,0.8c0,0,1.8-0.3,2.4-0.8&#10;&#9;&#9;&#9;&#9;&#9;c0,0,0.2,0.4-0.4,0.7C157.8,114.5,161.3,114.7,164.2,112.8z" style="fill: rgb(115, 143, 147);"/>
			</g>
		</g>
		<g>
			<g>
				<g>
					<path class="st7" d="M166.9,117.9c-0.1-0.5,0.2-0.7,0.2-0.7c0,0.7,0.9,2,0.9,2c0-0.6,0.3-0.8,0.3-0.8c0.1,1.1,0.9,1.9,0.9,1.9&#10;&#9;&#9;&#9;&#9;&#9;&#9;c-0.2-0.4,0-0.6,0-0.6c0.2,0.6,1,1.5,1,1.5c-0.1-0.5,0.1-0.8,0.1-0.8c0.1,1,0.9,1.9,0.9,1.9c-0.1-0.5,0.2-1,0.2-1&#10;&#9;&#9;&#9;&#9;&#9;&#9;c0.3,0.8,1.2,1.8,1.2,1.8c0.8-9.5-8.4-10.3-8.4-10.3C164.7,115.7,166.9,117.9,166.9,117.9z" style="fill: rgb(115, 143, 147);"/>
				</g>
			</g>
			<g class="st8" style="opacity: 0.2;">
				<g>
					<path class="st9" d="M164.2,112.8c0,0-9.2,0.8-8.4,10.3c0,0,0.9-1,1.2-1.8c0,0,0.3,0.4,0.2,1c0,0,0.8-0.9,0.9-1.9&#10;&#9;&#9;&#9;&#9;&#9;&#9;c0,0,0.2,0.3,0.1,0.8c0,0,0.8-0.8,1-1.5c0,0,0.2,0.2,0,0.6c0,0,0.8-0.8,0.9-1.9c0,0,0.3,0.2,0.3,0.8c0,0,0.9-1.3,0.9-2&#10;&#9;&#9;&#9;&#9;&#9;&#9;c0,0,0.4,0.1,0.2,0.7C161.4,117.9,163.7,115.7,164.2,112.8z" style="fill: rgb(29, 29, 27);"/>
				</g>
			</g>
			<g class="st8" style="opacity: 0.2;">
				<g>
					<path class="st9" d="M166.9,117.9c-0.1-0.5,0.2-0.7,0.2-0.7c0,0.7,0.9,2,0.9,2c0-0.6,0.3-0.8,0.3-0.8c0.1,1.1,0.9,1.9,0.9,1.9&#10;&#9;&#9;&#9;&#9;&#9;&#9;c-0.2-0.4,0-0.6,0-0.6c0.2,0.6,1,1.5,1,1.5c-0.1-0.5,0.1-0.8,0.1-0.8c0.1,1,0.9,1.9,0.9,1.9c-0.1-0.5,0.2-1,0.2-1&#10;&#9;&#9;&#9;&#9;&#9;&#9;c0.3,0.8,1.2,1.8,1.2,1.8c0.8-9.5-8.4-10.3-8.4-10.3C164.7,115.7,166.9,117.9,166.9,117.9z" style="fill: rgb(29, 29, 27);"/>
				</g>
			</g>
			<g>
				<g>
					<path class="st7" d="M168.9,109.5c-0.5,0.2-0.6-0.2-0.6-0.2c0.7-0.1,1.9-1.1,1.9-1.1c-0.5,0-0.8-0.2-0.8-0.2c1-0.2,1.8-1,1.8-1&#10;&#9;&#9;&#9;&#9;&#9;&#9;c-0.4,0.2-0.6,0-0.6,0c0.6-0.2,1.4-1.1,1.4-1.1c-0.5,0.1-0.8,0-0.8,0c0.9-0.2,1.8-1.1,1.8-1.1c-0.5,0.2-1-0.1-1-0.1&#10;&#9;&#9;&#9;&#9;&#9;&#9;c0.8-0.3,1.7-1.4,1.7-1.4c-9.2-0.1-9.4,9.5-9.4,9.5C167,112.1,168.9,109.5,168.9,109.5z" style="fill: rgb(115, 143, 147);"/>
				</g>
			</g>
			<g class="st10" style="opacity: 0.3;">
				<g>
					<path class="st2" d="M164.2,112.8c0,0-0.2-9.7-9.4-9.5c0,0,0.9,1.1,1.7,1.4c0,0-0.5,0.3-1,0.1c0,0,0.9,0.9,1.8,1.1&#10;&#9;&#9;&#9;&#9;&#9;&#9;c0,0-0.3,0.2-0.8,0c0,0,0.8,0.9,1.4,1.1c0,0-0.3,0.2-0.6,0c0,0,0.8,0.9,1.8,1c0,0-0.2,0.3-0.8,0.2c0,0,1.2,1,1.9,1.1&#10;&#9;&#9;&#9;&#9;&#9;&#9;c0,0-0.1,0.4-0.6,0.2C159.4,109.5,161.4,112.1,164.2,112.8z" style="fill: rgb(255, 255, 255);"/>
				</g>
			</g>
			<g class="st10" style="opacity: 0.3;">
				<g>
					<path class="st2" d="M168.9,109.5c-0.5,0.2-0.6-0.2-0.6-0.2c0.7-0.1,1.9-1.1,1.9-1.1c-0.5,0-0.8-0.2-0.8-0.2c1-0.2,1.8-1,1.8-1&#10;&#9;&#9;&#9;&#9;&#9;&#9;c-0.4,0.2-0.6,0-0.6,0c0.6-0.2,1.4-1.1,1.4-1.1c-0.5,0.1-0.8,0-0.8,0c0.9-0.2,1.8-1.1,1.8-1.1c-0.5,0.2-1-0.1-1-0.1&#10;&#9;&#9;&#9;&#9;&#9;&#9;c0.8-0.3,1.7-1.4,1.7-1.4c-9.2-0.1-9.4,9.5-9.4,9.5C167,112.1,168.9,109.5,168.9,109.5z" style="fill: rgb(255, 255, 255);"/>
				</g>
			</g>
			<g>
				<path class="st7" d="M170.5,114.5c-0.6-0.3-0.4-0.7-0.4-0.7c0.6,0.5,2.4,0.8,2.4,0.8c-0.5-0.4-0.4-0.8-0.4-0.8&#10;&#9;&#9;&#9;&#9;&#9;c1,0.8,2.3,0.8,2.3,0.8c-0.5-0.2-0.5-0.5-0.5-0.5c0.7,0.3,2,0.3,2,0.3c-0.5-0.3-0.6-0.7-0.6-0.7c0.9,0.6,2.2,0.7,2.2,0.7&#10;&#9;&#9;&#9;&#9;&#9;c-0.5-0.3-0.7-0.9-0.7-0.9c0.9,0.4,2.4,0.4,2.4,0.4c-7.3-8-15.1-1-15.1-1C167,114.7,170.5,114.5,170.5,114.5z" style="fill: rgb(115, 143, 147);"/>
			</g>
		</g>
	</g>
</g>
<g id="clouds">
	<g class="st11" style="opacity: 0.5;">
		<path class="st2" d="M159.9,72.3c0.1-4.8,4-8.7,8.9-8.7c1.1,0,2.1,0.2,3.1,0.6c1.2-1.8,3.2-3.1,5.6-3.1c0.6,0,1.1,0.1,1.6,0.2&#10;&#9;&#9;&#9;c1.8-2.9,4.9-4.8,8.6-4.8c4.8,0,8.8,3.3,9.8,7.8c1-0.4,2.2-0.7,3.3-0.7c4.8,0,8.8,3.9,8.9,8.7H159.9z" style="fill: rgb(255, 255, 255);"/>
	</g>
	<g>
		<path class="st2" d="M240.9,28.9c0.1-6.6,5.5-11.9,12.1-11.9c1.5,0,2.9,0.3,4.2,0.8c1.6-2.5,4.4-4.2,7.6-4.2&#10;&#9;&#9;&#9;c0.8,0,1.5,0.1,2.3,0.3c2.4-4,6.7-6.6,11.7-6.6c6.5,0,12,4.5,13.3,10.6c1.4-0.6,2.9-0.9,4.6-0.9c6.6,0,12,5.3,12.1,11.9H240.9z" style="fill: rgb(255, 255, 255);"/>
	</g>
	<g class="st11" style="opacity: 0.5;">
		<path class="st2" d="M43.5,26.3c0.1-5.3,4.4-9.5,9.7-9.5c1.2,0,2.3,0.2,3.4,0.6c1.3-2,3.6-3.4,6.1-3.4c0.6,0,1.2,0.1,1.8,0.2&#10;&#9;&#9;&#9;C66.5,11,70,8.9,74,8.9c5.2,0,9.6,3.7,10.7,8.6c1.1-0.5,2.4-0.7,3.7-0.7c5.3,0,9.6,4.2,9.7,9.5H43.5z" style="fill: rgb(255, 255, 255);"/>
	</g>
	<g>
		<path class="st2" d="M220.1,83.8c0-1.5,1.3-2.7,2.8-2.7c0.3,0,0.7,0.1,1,0.2c0.4-0.6,1-1,1.8-1c0.2,0,0.4,0,0.5,0.1&#10;&#9;&#9;&#9;c0.6-0.9,1.6-1.5,2.7-1.5c1.5,0,2.8,1.1,3.1,2.5c0.3-0.1,0.7-0.2,1.1-0.2c1.5,0,2.8,1.2,2.8,2.7H220.1z" style="fill: rgb(255, 255, 255);"/>
	</g>
	<g>
		<path class="st2" d="M191,20.1c0-1.5,1.3-2.7,2.8-2.7c0.3,0,0.7,0.1,1,0.2c0.4-0.6,1-1,1.8-1c0.2,0,0.4,0,0.5,0.1&#10;&#9;&#9;&#9;c0.6-0.9,1.6-1.5,2.7-1.5c1.5,0,2.8,1.1,3.1,2.5c0.3-0.1,0.7-0.2,1.1-0.2c1.5,0,2.8,1.2,2.8,2.7H191z" style="fill: rgb(255, 255, 255);"/>
	</g>
	<g>
		<path class="st2" d="M110.9,83.8c0-1.5,1.3-2.7,2.8-2.7c0.3,0,0.7,0.1,1,0.2c0.4-0.6,1-1,1.8-1c0.2,0,0.4,0,0.5,0.1&#10;&#9;&#9;&#9;c0.6-0.9,1.6-1.5,2.7-1.5c1.5,0,2.8,1.1,3.1,2.5c0.3-0.1,0.7-0.2,1.1-0.2c1.5,0,2.8,1.2,2.8,2.7H110.9z" style="fill: rgb(255, 255, 255);"/>
	</g>
	<g>
		<path class="st2" d="M242.6,54.1c0.1-2.6,2.2-4.7,4.8-4.7c0.6,0,1.1,0.1,1.7,0.3c0.6-1,1.8-1.7,3-1.7c0.3,0,0.6,0,0.9,0.1&#10;&#9;&#9;&#9;c1-1.6,2.7-2.6,4.6-2.6c2.6,0,4.7,1.8,5.3,4.2c0.6-0.2,1.2-0.4,1.8-0.4c2.6,0,4.7,2.1,4.8,4.7H242.6z" style="fill: rgb(255, 255, 255);"/>
	</g>
	<g class="st10" style="opacity: 0.3;">
		<path class="st2" d="M300.2,69.4c0.1-3.1,2.6-5.5,5.7-5.5c0.7,0,1.4,0.1,2,0.4c0.8-1.2,2.1-2,3.6-2c0.4,0,0.7,0.1,1.1,0.1&#10;&#9;&#9;&#9;c1.1-1.9,3.2-3.1,5.5-3.1c3,0,5.6,2.1,6.2,5c0.7-0.3,1.4-0.4,2.1-0.4c3.1,0,5.6,2.5,5.7,5.5H300.2z" style="fill: rgb(255, 255, 255);"/>
	</g>
	<g>
		<path class="st2" d="M4.8,38c0-1.9,1.6-3.4,3.5-3.4c0.4,0,0.8,0.1,1.2,0.2c0.5-0.7,1.3-1.2,2.2-1.2c0.2,0,0.4,0,0.6,0.1&#10;&#9;&#9;&#9;c0.7-1.1,1.9-1.9,3.4-1.9c1.9,0,3.4,1.3,3.8,3.1c0.4-0.2,0.8-0.3,1.3-0.3c1.9,0,3.4,1.5,3.5,3.4H4.8z" style="fill: rgb(255, 255, 255);"/>
	</g>
</g>
<g id="palm">
	<g>
		<path d="M 65.400002 55.700001 H 70.300002 V 172.500004 H 65.400002 V 55.700001 Z" class="st6" style="fill: rgb(194, 178, 167);"/>
	</g>
	<g>
		<g>
			<g>
				<g>
					<path class="st7" d="M67.8,55.7c0,0-41.4,3.7-37.9,46.2c0,0,4.2-4.3,5.5-8.1c0,0,1.3,2,0.8,4.3c0,0,3.4-4.2,3.9-8.5&#10;&#9;&#9;&#9;&#9;&#9;&#9;c0,0,0.9,1.5,0.5,3.8c0,0,3.6-3.8,4.4-6.5c0,0,0.8,1.1,0.1,2.9c0,0,3.4-3.8,3.8-8.6c0,0,1.3,0.9,1.3,3.5c0,0,3.9-6,4-9.1&#10;&#9;&#9;&#9;&#9;&#9;&#9;c0,0,1.6,0.5,1,2.9C55.3,78.5,65.5,68.9,67.8,55.7z" style="fill: rgb(115, 143, 147);"/>
				</g>
			</g>
			<g>
				<g>
					<path class="st7" d="M67.8,55.7c0,0-0.8-43.4-42.3-42.8c0,0,3.9,4.7,7.5,6.3c0,0-2.1,1.2-4.3,0.5c0,0,3.8,3.9,8,4.7&#10;&#9;&#9;&#9;&#9;&#9;&#9;c0,0-1.5,0.8-3.7,0.2c0,0,3.4,4.1,6.1,5.1c0,0-1.1,0.7-2.8-0.1c0,0,3.4,3.8,8.1,4.6c0,0-1,1.3-3.5,1.1c0,0,5.5,4.5,8.6,4.9&#10;&#9;&#9;&#9;&#9;&#9;&#9;c0,0-0.6,1.7-2.9,0.9C46.5,41.1,55.1,52.4,67.8,55.7z" style="fill: rgb(115, 143, 147);"/>
				</g>
			</g>
			<g>
				<path class="st7" d="M67.8,55.7c0,0-35-31.3-67.7,4.6c0,0,6.9,0.1,10.9-1.8c0,0-0.7,2.7-3,4.1c0,0,6.1-0.4,10.1-3.3&#10;&#9;&#9;&#9;&#9;&#9;c0,0-0.5,1.9-2.8,3.3c0,0,6,0.1,8.9-1.4c0,0-0.3,1.5-2.3,2.3c0,0,5.8-0.1,10.1-3.5c0,0,0.2,1.8-1.9,3.8c0,0,8-1.4,10.7-3.8&#10;&#9;&#9;&#9;&#9;&#9;c0,0,0.9,1.7-1.7,3.1C39.2,63.1,55.1,64.1,67.8,55.7z" style="fill: rgb(115, 143, 147);"/>
			</g>
		</g>
		<g>
			<g>
				<g>
					<path class="st7" d="M80.3,78.5c-0.6-2.5,1-2.9,1-2.9c0.1,3.2,4,9.1,4,9.1c0-2.5,1.3-3.5,1.3-3.5c0.4,4.8,3.8,8.6,3.8,8.6&#10;&#9;&#9;&#9;&#9;&#9;&#9;c-0.7-1.8,0.1-2.9,0.1-2.9c0.8,2.8,4.4,6.5,4.4,6.5c-0.4-2.3,0.5-3.8,0.5-3.8c0.5,4.3,3.9,8.5,3.9,8.5&#10;&#9;&#9;&#9;&#9;&#9;&#9;c-0.5-2.3,0.8-4.3,0.8-4.3c1.2,3.7,5.5,8.1,5.5,8.1c3.5-42.5-37.9-46.2-37.9-46.2C70,68.9,80.3,78.5,80.3,78.5z" style="fill: rgb(115, 143, 147);"/>
				</g>
			</g>
			<g class="st8" style="opacity: 0.2;">
				<g>
					<path class="st9" d="M67.8,55.7c0,0-41.4,3.7-37.9,46.2c0,0,4.2-4.3,5.5-8.1c0,0,1.3,2,0.8,4.3c0,0,3.4-4.2,3.9-8.5&#10;&#9;&#9;&#9;&#9;&#9;&#9;c0,0,0.9,1.5,0.5,3.8c0,0,3.6-3.8,4.4-6.5c0,0,0.8,1.1,0.1,2.9c0,0,3.4-3.8,3.8-8.6c0,0,1.3,0.9,1.3,3.5c0,0,3.9-6,4-9.1&#10;&#9;&#9;&#9;&#9;&#9;&#9;c0,0,1.6,0.5,1,2.9C55.3,78.5,65.5,68.9,67.8,55.7z" style="fill: rgb(29, 29, 27);"/>
				</g>
			</g>
			<g class="st8" style="opacity: 0.2;">
				<g>
					<path class="st9" d="M80.3,78.5c-0.6-2.5,1-2.9,1-2.9c0.1,3.2,4,9.1,4,9.1c0-2.5,1.3-3.5,1.3-3.5c0.4,4.8,3.8,8.6,3.8,8.6&#10;&#9;&#9;&#9;&#9;&#9;&#9;c-0.7-1.8,0.1-2.9,0.1-2.9c0.8,2.8,4.4,6.5,4.4,6.5c-0.4-2.3,0.5-3.8,0.5-3.8c0.5,4.3,3.9,8.5,3.9,8.5&#10;&#9;&#9;&#9;&#9;&#9;&#9;c-0.5-2.3,0.8-4.3,0.8-4.3c1.2,3.7,5.5,8.1,5.5,8.1c3.5-42.5-37.9-46.2-37.9-46.2C70,68.9,80.3,78.5,80.3,78.5z" style="fill: rgb(29, 29, 27);"/>
				</g>
			</g>
			<g>
				<g>
					<path class="st7" d="M89.1,41.1c-2.3,0.8-2.9-0.9-2.9-0.9c3.1-0.3,8.6-4.9,8.6-4.9c-2.5,0.2-3.5-1.1-3.5-1.1&#10;&#9;&#9;&#9;&#9;&#9;&#9;c4.7-0.8,8.1-4.6,8.1-4.6c-1.7,0.9-2.8,0.1-2.8,0.1c2.6-1,6.1-5.1,6.1-5.1c-2.2,0.6-3.7-0.2-3.7-0.2c4.1-0.9,8-4.7,8-4.7&#10;&#9;&#9;&#9;&#9;&#9;&#9;c-2.2,0.7-4.3-0.5-4.3-0.5c3.5-1.5,7.5-6.3,7.5-6.3c-41.6-0.6-42.3,42.8-42.3,42.8C80.4,52.4,89.1,41.1,89.1,41.1z" style="fill: rgb(115, 143, 147);"/>
				</g>
			</g>
			<g class="st10" style="opacity: 0.3;">
				<g>
					<path class="st2" d="M67.8,55.7c0,0-0.8-43.4-42.3-42.8c0,0,3.9,4.7,7.5,6.3c0,0-2.1,1.2-4.3,0.5c0,0,3.8,3.9,8,4.7&#10;&#9;&#9;&#9;&#9;&#9;&#9;c0,0-1.5,0.8-3.7,0.2c0,0,3.4,4.1,6.1,5.1c0,0-1.1,0.7-2.8-0.1c0,0,3.4,3.8,8.1,4.6c0,0-1,1.3-3.5,1.1c0,0,5.5,4.5,8.6,4.9&#10;&#9;&#9;&#9;&#9;&#9;&#9;c0,0-0.6,1.7-2.9,0.9C46.5,41.1,55.1,52.4,67.8,55.7z" style="fill: rgb(255, 255, 255);"/>
				</g>
			</g>
			<g class="st10" style="opacity: 0.3;">
				<g>
					<path class="st2" d="M89.1,41.1c-2.3,0.8-2.9-0.9-2.9-0.9c3.1-0.3,8.6-4.9,8.6-4.9c-2.5,0.2-3.5-1.1-3.5-1.1&#10;&#9;&#9;&#9;&#9;&#9;&#9;c4.7-0.8,8.1-4.6,8.1-4.6c-1.7,0.9-2.8,0.1-2.8,0.1c2.6-1,6.1-5.1,6.1-5.1c-2.2,0.6-3.7-0.2-3.7-0.2c4.1-0.9,8-4.7,8-4.7&#10;&#9;&#9;&#9;&#9;&#9;&#9;c-2.2,0.7-4.3-0.5-4.3-0.5c3.5-1.5,7.5-6.3,7.5-6.3c-41.6-0.6-42.3,42.8-42.3,42.8C80.4,52.4,89.1,41.1,89.1,41.1z" style="fill: rgb(255, 255, 255);"/>
				</g>
			</g>
			<g>
				<path class="st7" d="M96.4,63.1c-2.5-1.4-1.7-3.1-1.7-3.1c2.7,2.4,10.7,3.8,10.7,3.8c-2.1-2-1.9-3.8-1.9-3.8&#10;&#9;&#9;&#9;&#9;&#9;c4.3,3.4,10.1,3.5,10.1,3.5c-2-0.8-2.3-2.3-2.3-2.3c2.9,1.5,8.9,1.4,8.9,1.4c-2.3-1.5-2.8-3.3-2.8-3.3c4,2.9,10.1,3.3,10.1,3.3&#10;&#9;&#9;&#9;&#9;&#9;c-2.3-1.4-3-4.1-3-4.1c4.1,1.9,10.9,1.8,10.9,1.8c-32.7-35.9-67.7-4.6-67.7-4.6C80.5,64.1,96.4,63.1,96.4,63.1z" style="fill: rgb(115, 143, 147);"/>
			</g>
		</g>
	</g>
</g>
<g id="sunshade">
	<g>
		<path d="M 27.299999 167.399994 H 28.299999 V 204.399994 H 27.299999 V 167.399994 Z" class="st0" style="fill: rgb(112, 121, 134);"/>
	</g>
	<path d="M 5.900000095367432 167.39999389648438 L 51.20000076293945 167.39999389648438 L 27.899999618530273 151.39999389648438 Z" class="st5" style="fill: rgb(208, 95, 114);"/>
	<path d="M 27.899999618530273 167.39999389648438 L 51.20000076293945 167.39999389648438 L 27.899999618530273 151.39999389648438 Z" class="st12" style="opacity: 0.2; fill: rgb(29, 29, 27);"/>
</g>
<g id="sunshade_1_">
	<g>
		<path d="M 15.2 133.800003 H 15.7 V 151.700003 H 15.2 V 133.800003 Z" class="st0" style="fill: rgb(112, 121, 134);"/>
	</g>
	<path d="M 4.800000190734863 133.8000030517578 L 26.700000762939453 133.8000030517578 L 15.399999618530273 126 Z" class="st13" style="fill: rgb(109, 78, 111);"/>
	<path d="M 15.399999618530273 133.8000030517578 L 26.700000762939453 133.8000030517578 L 15.399999618530273 126 Z" class="st14" style="fill: rgb(90, 48, 95);"/>
</g>
<g id="sunshade_2_">
	<g>
		<path d="M 266.200012 167.300003 H 267.300012 V 204.900002 H 266.200012 V 167.300003 Z" class="st7" style="fill: rgb(115, 143, 147);"/>
	</g>
	<path d="M 244.39999389648438 167.3000030517578 L 290.5 167.3000030517578 L 266.79998779296875 151 Z" class="st6" style="fill: rgb(194, 178, 167);"/>
	<path d="M 266.79998779296875 167.3000030517578 L 290.5 167.3000030517578 L 266.79998779296875 151 Z" class="st12" style="opacity: 0.2; fill: rgb(29, 29, 27);"/>
</g>
<g id="ship">
	<path d="M 207.399994 129.100006 H 296.799995 V 131.000006 H 207.399994 V 129.100006 Z" class="st2" style="fill: rgb(255, 255, 255);"/>
	<path d="M 215.300003 122.5 H 249.700005 V 129.1 H 215.300003 V 122.5 Z" class="st0" style="fill: rgb(112, 121, 134);"/>
	<g>
		<path d="M 221.600003 125.900002 A 1.3 1.3 0 0 1 220.300003 127.200001 A 1.3 1.3 0 0 1 219.000003 125.900002 A 1.3 1.3 0 0 1 220.300003 124.600002 A 1.3 1.3 0 0 1 221.600003 125.900002 Z" class="st1" style="fill: rgb(239, 229, 212);"/>
		<path d="M 229.3 125.900002 A 1.3 1.3 0 0 1 228 127.200001 A 1.3 1.3 0 0 1 226.7 125.900002 A 1.3 1.3 0 0 1 228 124.600002 A 1.3 1.3 0 0 1 229.3 125.900002 Z" class="st1" style="fill: rgb(239, 229, 212);"/>
		<path d="M 236.900006 125.900002 A 1.3 1.3 0 0 1 235.600006 127.200001 A 1.3 1.3 0 0 1 234.300006 125.900002 A 1.3 1.3 0 0 1 235.600006 124.600002 A 1.3 1.3 0 0 1 236.900006 125.900002 Z" class="st1" style="fill: rgb(239, 229, 212);"/>
		<path d="M 244.499997 125.900002 A 1.3 1.3 0 0 1 243.199997 127.200001 A 1.3 1.3 0 0 1 241.899997 125.900002 A 1.3 1.3 0 0 1 243.199997 124.600002 A 1.3 1.3 0 0 1 244.499997 125.900002 Z" class="st1" style="fill: rgb(239, 229, 212);"/>
	</g>
	<g>
		<path class="st14" d="M296.8,131c-11.6,0-89.4,0-89.4,0c0,1.2,0.3,2.3,0.7,3.3h85.1C294.3,133.3,295.4,132.3,296.8,131z" style="fill: rgb(90, 48, 95);"/>
		<path class="st14" d="M215.5,139h70.3c0,0,1.3,0.3,5.8-3.4h-82.7C210.3,137.7,212.7,139,215.5,139z" style="fill: rgb(90, 48, 95);"/>
		<path class="st1" d="M208.1,134.2c0.2,0.5,0.5,0.9,0.8,1.4h82.7c0.5-0.4,1-0.9,1.6-1.4H208.1z" style="fill: rgb(239, 229, 212);"/>
	</g>
</g>


<g id="palm_1_">
	<g>
		<path d="M 84.400002 138.5 H 90.400002 V 235 H 84.400002 V 138.5 Z" class="st6" style="fill: rgb(194, 178, 167);"/>
	</g>
	<g>
		<g>
			<g>
				<g>
					<path class="st7" d="M86.6,143.1c0,0-36.1,3.3-33,40.3c0,0,3.7-3.8,4.8-7c0,0,1.1,1.8,0.7,3.8c0,0,3-3.7,3.4-7.4&#10;&#9;&#9;&#9;&#9;&#9;&#9;c0,0,0.8,1.3,0.4,3.3c0,0,3.2-3.3,3.9-5.7c0,0,0.7,1,0.1,2.5c0,0,3-3.3,3.3-7.5c0,0,1.1,0.8,1.1,3c0,0,3.4-5.2,3.5-8&#10;&#9;&#9;&#9;&#9;&#9;&#9;c0,0,1.4,0.4,0.9,2.5C75.7,163,84.7,154.6,86.6,143.1z" style="fill: rgb(115, 143, 147);"/>
				</g>
			</g>
			<g>
				<g>
					<path class="st7" d="M86.6,143.1c0,0-0.7-37.8-36.9-37.3c0,0,3.4,4.1,6.5,5.5c0,0-1.8,1.1-3.7,0.5c0,0,3.4,3.4,6.9,4.1&#10;&#9;&#9;&#9;&#9;&#9;&#9;c0,0-1.3,0.7-3.2,0.2c0,0,3,3.5,5.3,4.4c0,0-1,0.7-2.4-0.1c0,0,3,3.4,7.1,4c0,0-0.9,1.1-3,1c0,0,4.8,3.9,7.5,4.2&#10;&#9;&#9;&#9;&#9;&#9;&#9;c0,0-0.5,1.5-2.5,0.7C68,130.3,75.6,140.2,86.6,143.1z" style="fill: rgb(115, 143, 147);"/>
				</g>
			</g>
			<g>
				<path class="st7" d="M86.6,143.1c0,0-30.5-27.3-59,4c0,0,6,0.1,9.5-1.5c0,0-0.6,2.3-2.6,3.5c0,0,5.3-0.4,8.8-2.9&#10;&#9;&#9;&#9;&#9;&#9;c0,0-0.5,1.6-2.4,2.9c0,0,5.2,0.1,7.7-1.2c0,0-0.3,1.3-2,2c0,0,5-0.1,8.8-3.1c0,0,0.2,1.6-1.7,3.3c0,0,7-1.2,9.3-3.3&#10;&#9;&#9;&#9;&#9;&#9;c0,0,0.8,1.5-1.4,2.7C61.7,149.6,75.5,150.4,86.6,143.1z" style="fill: rgb(115, 143, 147);"/>
			</g>
		</g>
		<g>
			<g>
				<g>
					<path class="st7" d="M97.5,163c-0.5-2.1,0.9-2.5,0.9-2.5c0.1,2.8,3.5,8,3.5,8c0-2.2,1.1-3,1.1-3c0.4,4.2,3.3,7.5,3.3,7.5&#10;&#9;&#9;&#9;&#9;&#9;&#9;c-0.6-1.5,0.1-2.5,0.1-2.5c0.7,2.4,3.9,5.7,3.9,5.7c-0.4-2,0.4-3.3,0.4-3.3c0.5,3.7,3.4,7.4,3.4,7.4c-0.4-2,0.7-3.8,0.7-3.8&#10;&#9;&#9;&#9;&#9;&#9;&#9;c1.1,3.3,4.8,7,4.8,7c3.1-37-33-40.3-33-40.3C88.6,154.6,97.5,163,97.5,163z" style="fill: rgb(115, 143, 147);"/>
				</g>
			</g>
			<g class="st8" style="opacity: 0.2;">
				<g>
					<path class="st9" d="M86.6,143.1c0,0-36.1,3.3-33,40.3c0,0,3.7-3.8,4.8-7c0,0,1.1,1.8,0.7,3.8c0,0,3-3.7,3.4-7.4&#10;&#9;&#9;&#9;&#9;&#9;&#9;c0,0,0.8,1.3,0.4,3.3c0,0,3.2-3.3,3.9-5.7c0,0,0.7,1,0.1,2.5c0,0,3-3.3,3.3-7.5c0,0,1.1,0.8,1.1,3c0,0,3.4-5.2,3.5-8&#10;&#9;&#9;&#9;&#9;&#9;&#9;c0,0,1.4,0.4,0.9,2.5C75.7,163,84.7,154.6,86.6,143.1z" style="fill: rgb(29, 29, 27);"/>
				</g>
			</g>
			<g class="st8" style="opacity: 0.2;">
				<g>
					<path class="st9" d="M97.5,163c-0.5-2.1,0.9-2.5,0.9-2.5c0.1,2.8,3.5,8,3.5,8c0-2.2,1.1-3,1.1-3c0.4,4.2,3.3,7.5,3.3,7.5&#10;&#9;&#9;&#9;&#9;&#9;&#9;c-0.6-1.5,0.1-2.5,0.1-2.5c0.7,2.4,3.9,5.7,3.9,5.7c-0.4-2,0.4-3.3,0.4-3.3c0.5,3.7,3.4,7.4,3.4,7.4c-0.4-2,0.7-3.8,0.7-3.8&#10;&#9;&#9;&#9;&#9;&#9;&#9;c1.1,3.3,4.8,7,4.8,7c3.1-37-33-40.3-33-40.3C88.6,154.6,97.5,163,97.5,163z" style="fill: rgb(29, 29, 27);"/>
				</g>
			</g>
			<g>
				<g>
					<path class="st7" d="M105.2,130.3c-2,0.7-2.5-0.7-2.5-0.7c2.7-0.3,7.5-4.2,7.5-4.2c-2.1,0.2-3-1-3-1c4.1-0.7,7.1-4,7.1-4&#10;&#9;&#9;&#9;&#9;&#9;&#9;c-1.5,0.8-2.4,0.1-2.4,0.1c2.3-0.9,5.3-4.4,5.3-4.4c-1.9,0.5-3.2-0.2-3.2-0.2c3.6-0.7,6.9-4.1,6.9-4.1&#10;&#9;&#9;&#9;&#9;&#9;&#9;c-1.9,0.6-3.7-0.5-3.7-0.5c3.1-1.3,6.5-5.5,6.5-5.5c-36.2-0.5-36.9,37.3-36.9,37.3C97.6,140.2,105.2,130.3,105.2,130.3z" style="fill: rgb(115, 143, 147);"/>
				</g>
			</g>
			<g class="st10" style="opacity: 0.3;">
				<g>
					<path class="st2" d="M86.6,143.1c0,0-0.7-37.8-36.9-37.3c0,0,3.4,4.1,6.5,5.5c0,0-1.8,1.1-3.7,0.5c0,0,3.4,3.4,6.9,4.1&#10;&#9;&#9;&#9;&#9;&#9;&#9;c0,0-1.3,0.7-3.2,0.2c0,0,3,3.5,5.3,4.4c0,0-1,0.7-2.4-0.1c0,0,3,3.4,7.1,4c0,0-0.9,1.1-3,1c0,0,4.8,3.9,7.5,4.2&#10;&#9;&#9;&#9;&#9;&#9;&#9;c0,0-0.5,1.5-2.5,0.7C68,130.3,75.6,140.2,86.6,143.1z" style="fill: rgb(255, 255, 255);"/>
				</g>
			</g>
			<g class="st10" style="opacity: 0.3;">
				<g>
					<path class="st2" d="M105.2,130.3c-2,0.7-2.5-0.7-2.5-0.7c2.7-0.3,7.5-4.2,7.5-4.2c-2.1,0.2-3-1-3-1c4.1-0.7,7.1-4,7.1-4&#10;&#9;&#9;&#9;&#9;&#9;&#9;c-1.5,0.8-2.4,0.1-2.4,0.1c2.3-0.9,5.3-4.4,5.3-4.4c-1.9,0.5-3.2-0.2-3.2-0.2c3.6-0.7,6.9-4.1,6.9-4.1&#10;&#9;&#9;&#9;&#9;&#9;&#9;c-1.9,0.6-3.7-0.5-3.7-0.5c3.1-1.3,6.5-5.5,6.5-5.5c-36.2-0.5-36.9,37.3-36.9,37.3C97.6,140.2,105.2,130.3,105.2,130.3z" style="fill: rgb(255, 255, 255);"/>
				</g>
			</g>
			<g>
				<path class="st7" d="M111.6,149.6c-2.2-1.2-1.4-2.7-1.4-2.7c2.4,2.1,9.3,3.3,9.3,3.3c-1.8-1.7-1.7-3.3-1.7-3.3&#10;&#9;&#9;&#9;&#9;&#9;c3.8,3,8.8,3.1,8.8,3.1c-1.8-0.7-2-2-2-2c2.6,1.3,7.7,1.2,7.7,1.2c-2-1.3-2.4-2.9-2.4-2.9c3.5,2.5,8.8,2.9,8.8,2.9&#10;&#9;&#9;&#9;&#9;&#9;c-2-1.2-2.6-3.5-2.6-3.5c3.5,1.6,9.5,1.5,9.5,1.5c-28.5-31.3-59-4-59-4C97.7,150.4,111.6,149.6,111.6,149.6z" style="fill: rgb(115, 143, 147);"/>
			</g>
		</g>
	</g>
</g>
<g id="ball_1_">
	<g>
		<g>
			<g>
				<path class="st2" d="M247.9,205c-1.4,1.4-2.3,3.4-2.3,5.6h8L247.9,205z" style="fill: rgb(255, 255, 255);"/>
			</g>
		</g>
	</g>
	<g>
		<g>
			<g>
				<path class="st2" d="M259.2,205c-1.4-1.4-3.4-2.3-5.6-2.3v8L259.2,205z" style="fill: rgb(255, 255, 255);"/>
			</g>
		</g>
	</g>
	<g>
		<g>
			<g>
				<path class="st5" d="M253.5,202.7c-2.2,0-4.2,0.9-5.6,2.3l5.6,5.6V202.7z" style="fill: rgb(208, 95, 114);"/>
			</g>
		</g>
	</g>
	<g>
		<g>
			<g>
				<path class="st5" d="M261.5,210.7c0-2.2-0.9-4.2-2.3-5.6l-5.6,5.6H261.5z" style="fill: rgb(208, 95, 114);"/>
			</g>
		</g>
	</g>
	<g>
		<g>
			<g>
				<path class="st2" d="M253.5,210.7l5.6,5.6c1.4-1.4,2.3-3.4,2.3-5.6H253.5z" style="fill: rgb(255, 255, 255);"/>
			</g>
		</g>
	</g>
	<g>
		<g>
			<g>
				<path class="st5" d="M253.5,218.7c2.2,0,4.2-0.9,5.6-2.3l-5.6-5.6V218.7z" style="fill: rgb(208, 95, 114);"/>
			</g>
		</g>
	</g>
	<g>
		<g>
			<g>
				<path class="st2" d="M247.9,216.3c1.4,1.4,3.4,2.3,5.6,2.3v-8L247.9,216.3z" style="fill: rgb(255, 255, 255);"/>
			</g>
		</g>
	</g>
	<g>
		<g>
			<g>
				<path class="st5" d="M245.6,210.7c0,2.2,0.9,4.2,2.3,5.6l5.6-5.6H245.6z" style="fill: rgb(208, 95, 114);"/>
			</g>
		</g>
	</g>
</g>
<g id="ball">
	<path d="M 58.099998 208 A 11.5 11.5 0 0 1 46.599998 219.5 A 11.5 11.5 0 0 1 35.099998 208 A 11.5 11.5 0 0 1 46.599998 196.5 A 11.5 11.5 0 0 1 58.099998 208 Z" class="st2" style="fill: rgb(255, 255, 255);"/>
	<g>
		<path d="M 44.29999923706055 203.8000030517578 L 44.29999923706055 203.8000030517578 L 44.29999923706055 203.8000030517578 Z" class="st15" style="fill: rgb(55, 78, 122);"/>
		<g>
			<path class="st14" d="M35.5,205.4c-0.2,0.8-0.3,1.7-0.3,2.6c0,3.1,1.3,6,3.3,8.1c0,0,1.2-5.7,5.8-12.3&#10;&#9;&#9;&#9;&#9;C38.7,203.9,35.5,205.4,35.5,205.4L35.5,205.4z" style="fill: rgb(90, 48, 95);"/>
			<path class="st14" d="M50.2,197.1L50.2,197.1c-1.1-0.4-2.3-0.6-3.6-0.6c-1.3,0-2.5,0.2-3.6,0.6v0c0,0,0.5,4.5,1.3,6.7&#10;&#9;&#9;&#9;&#9;C45.1,202.7,48.5,198.4,50.2,197.1z" style="fill: rgb(90, 48, 95);"/>
			<path class="st14" d="M57.9,206.1l0-0.1c-5.4-1.8-9.9-2.3-13.5-2.2c0,0,0,0,0,0c0.2,1,3.9,9.5,8.5,13.8l0.1-0.1&#10;&#9;&#9;&#9;&#9;c3.1-2.1,5.1-5.6,5.1-9.5C58.1,207.4,58,206.7,57.9,206.1z" style="fill: rgb(90, 48, 95);"/>
		</g>
	</g>
</g>
<g id="waves_5_">
	<g id="waves">
		<path class="st16" d="M201.1,151.3c-4.7,2.7-5-1.6-9.3,0.3C196,150.9,196.5,155.4,201.1,151.3z" style="opacity: 0.6; fill-rule: evenodd; clip-rule: evenodd; fill: rgb(255, 255, 255);"/>
		<path class="st17" d="M320.1,153.4c-3.5,2-3.8-1.2-7.1,0.2C316.3,153.1,316.6,156.5,320.1,153.4z" style="opacity: 0.8; fill-rule: evenodd; clip-rule: evenodd; fill: rgb(255, 255, 255);"/>
		<path class="st18" d="M256.9,148.9c-3.5,2-3.8-1.2-7.1,0.2C253.1,148.6,253.4,152,256.9,148.9z" style="fill-rule: evenodd; clip-rule: evenodd; fill: rgb(255, 255, 255);"/>
		<path class="st18" d="M173.7,150.5c-3.5,2-3.8-1.2-7.1,0.2C169.8,150.2,170.2,153.6,173.7,150.5z" style="fill-rule: evenodd; clip-rule: evenodd; fill: rgb(255, 255, 255);"/>
		<path d="M 179.999994 147.800003 A 0.6 0.6 0 0 1 179.399994 148.400003 A 0.6 0.6 0 0 1 178.799994 147.800003 A 0.6 0.6 0 0 1 179.399994 147.200003 A 0.6 0.6 0 0 1 179.999994 147.800003 Z" class="st19" style="opacity: 0.3; fill: rgb(255, 255, 255);"/>
		<path d="M 249.499994 151.800003 A 0.6 0.6 0 0 1 248.899994 152.400003 A 0.6 0.6 0 0 1 248.299994 151.800003 A 0.6 0.6 0 0 1 248.899994 151.200003 A 0.6 0.6 0 0 1 249.499994 151.800003 Z" class="st4" style="opacity: 0.5; fill: rgb(255, 255, 255);"/>
		<path d="M 291.999994 144.600006 A 0.6 0.6 0 0 1 291.399994 145.200006 A 0.6 0.6 0 0 1 290.799994 144.600006 A 0.6 0.6 0 0 1 291.399994 144.000006 A 0.6 0.6 0 0 1 291.999994 144.600006 Z" class="st2" style="fill: rgb(255, 255, 255);"/>
		<path d="M 202.3 155 A 0.3 0.3 0 0 1 202 155.3 A 0.3 0.3 0 0 1 201.7 155 A 0.3 0.3 0 0 1 202 154.7 A 0.3 0.3 0 0 1 202.3 155 Z" class="st2" style="fill: rgb(255, 255, 255);"/>
		<path d="M 210.8 145.600006 A 0.3 0.2 0 0 1 210.5 145.800006 A 0.3 0.2 0 0 1 210.2 145.600006 A 0.3 0.2 0 0 1 210.5 145.400006 A 0.3 0.2 0 0 1 210.8 145.600006 Z" class="st2" style="fill: rgb(255, 255, 255);"/>
		<path d="M 222.3 151.100006 A 0.3 0.2 0 0 1 222 151.300006 A 0.3 0.2 0 0 1 221.7 151.100006 A 0.3 0.2 0 0 1 222 150.900006 A 0.3 0.2 0 0 1 222.3 151.100006 Z" class="st2" style="fill: rgb(255, 255, 255);"/>
		<path d="M 176.699994 150.399994 A 0.3 0.2 0 0 1 176.399994 150.599994 A 0.3 0.2 0 0 1 176.099994 150.399994 A 0.3 0.2 0 0 1 176.399994 150.199994 A 0.3 0.2 0 0 1 176.699994 150.399994 Z" class="st2" style="fill: rgb(255, 255, 255);"/>
		<path d="M 180.600003 153.300003 A 0.3 0.2 0 0 1 180.300003 153.500003 A 0.3 0.2 0 0 1 180.000003 153.300003 A 0.3 0.2 0 0 1 180.300003 153.100003 A 0.3 0.2 0 0 1 180.600003 153.300003 Z" class="st2" style="fill: rgb(255, 255, 255);"/>
		<path d="M 232.499997 144.899994 A 0.3 0.3 0 0 1 232.199997 145.199994 A 0.3 0.3 0 0 1 231.899997 144.899994 A 0.3 0.3 0 0 1 232.199997 144.599994 A 0.3 0.3 0 0 1 232.499997 144.899994 Z" class="st2" style="fill: rgb(255, 255, 255);"/>
		<path d="M 300.599988 154.300003 A 0.3 0.3 0 0 1 300.299988 154.600003 A 0.3 0.3 0 0 1 299.999988 154.300003 A 0.3 0.3 0 0 1 300.299988 154.000003 A 0.3 0.3 0 0 1 300.599988 154.300003 Z" class="st2" style="fill: rgb(255, 255, 255);"/>
		<path d="M 284.500012 154.699997 A 0.3 0.3 0 0 1 284.200012 154.999997 A 0.3 0.3 0 0 1 283.900012 154.699997 A 0.3 0.3 0 0 1 284.200012 154.399997 A 0.3 0.3 0 0 1 284.500012 154.699997 Z" class="st2" style="fill: rgb(255, 255, 255);"/>
		<path d="M 282.599988 149.5 A 0.3 0.3 0 0 1 282.299988 149.8 A 0.3 0.3 0 0 1 281.999988 149.5 A 0.3 0.3 0 0 1 282.299988 149.2 A 0.3 0.3 0 0 1 282.599988 149.5 Z" class="st2" style="fill: rgb(255, 255, 255);"/>
		<path d="M 324.000012 151.300003 A 0.3 0.3 0 0 1 323.700012 151.600003 A 0.3 0.3 0 0 1 323.400012 151.300003 A 0.3 0.3 0 0 1 323.700012 151.000003 A 0.3 0.3 0 0 1 324.000012 151.300003 Z" class="st2" style="fill: rgb(255, 255, 255);"/>
		<path d="M 317.199994 145.399994 A 0.3 0.3 0 0 1 316.899994 145.699994 A 0.3 0.3 0 0 1 316.599994 145.399994 A 0.3 0.3 0 0 1 316.899994 145.099994 A 0.3 0.3 0 0 1 317.199994 145.399994 Z" class="st2" style="fill: rgb(255, 255, 255);"/>
		<path d="M 327.900006 145.600006 A 0.3 0.3 0 0 1 327.600006 145.900006 A 0.3 0.3 0 0 1 327.300006 145.600006 A 0.3 0.3 0 0 1 327.600006 145.300006 A 0.3 0.3 0 0 1 327.900006 145.600006 Z" class="st2" style="fill: rgb(255, 255, 255);"/>
	</g>
	<g id="waves_1_">
		<path class="st16" d="M329.6,166.6c-4.7,2.7-5-1.6-9.3,0.3C324.5,166.2,325,170.6,329.6,166.6z" style="opacity: 0.6; fill-rule: evenodd; clip-rule: evenodd; fill: rgb(255, 255, 255);"/>
		<path class="st18" d="M302.2,165.8c-3.5,2-3.8-1.2-7.1,0.2C298.3,165.5,298.7,168.8,302.2,165.8z" style="fill-rule: evenodd; clip-rule: evenodd; fill: rgb(255, 255, 255);"/>
		<path d="M 308.499994 163.100006 A 0.6 0.6 0 0 1 307.899994 163.700006 A 0.6 0.6 0 0 1 307.299994 163.100006 A 0.6 0.6 0 0 1 307.899994 162.500006 A 0.6 0.6 0 0 1 308.499994 163.100006 Z" class="st19" style="opacity: 0.3; fill: rgb(255, 255, 255);"/>
		<path d="M 330.8 170.300003 A 0.3 0.3 0 0 1 330.5 170.600003 A 0.3 0.3 0 0 1 330.2 170.300003 A 0.3 0.3 0 0 1 330.5 170.000003 A 0.3 0.3 0 0 1 330.8 170.300003 Z" class="st2" style="fill: rgb(255, 255, 255);"/>
		<path d="M 305.199994 165.600006 A 0.3 0.2 0 0 1 304.899994 165.800006 A 0.3 0.2 0 0 1 304.599994 165.600006 A 0.3 0.2 0 0 1 304.899994 165.400006 A 0.3 0.2 0 0 1 305.199994 165.600006 Z" class="st2" style="fill: rgb(255, 255, 255);"/>
		<path d="M 309.099988 168.5 A 0.3 0.2 0 0 1 308.799988 168.7 A 0.3 0.2 0 0 1 308.499988 168.5 A 0.3 0.2 0 0 1 308.799988 168.3 A 0.3 0.2 0 0 1 309.099988 168.5 Z" class="st2" style="fill: rgb(255, 255, 255);"/>
	</g>
	<g id="waves_2_">
		<path d="M 305.699994 180.899994 A 0.3 0.2 0 0 1 305.399994 181.099994 A 0.3 0.2 0 0 1 305.099994 180.899994 A 0.3 0.2 0 0 1 305.399994 180.699994 A 0.3 0.2 0 0 1 305.699994 180.899994 Z" class="st2" style="fill: rgb(255, 255, 255);"/>
		<path d="M 317.199994 186.399994 A 0.3 0.2 0 0 1 316.899994 186.599994 A 0.3 0.2 0 0 1 316.599994 186.399994 A 0.3 0.2 0 0 1 316.899994 186.199994 A 0.3 0.2 0 0 1 317.199994 186.399994 Z" class="st2" style="fill: rgb(255, 255, 255);"/>
		<path d="M 327.400006 180.100006 A 0.3 0.3 0 0 1 327.100006 180.400006 A 0.3 0.3 0 0 1 326.800006 180.100006 A 0.3 0.3 0 0 1 327.100006 179.800006 A 0.3 0.3 0 0 1 327.400006 180.100006 Z" class="st2" style="fill: rgb(255, 255, 255);"/>
	</g>
	<g id="waves_3_">
		<path class="st17" d="M325,228.4c-3.5,2-3.8-1.2-7.1,0.2C321.2,228.1,321.6,231.4,325,228.4z" style="opacity: 0.8; fill-rule: evenodd; clip-rule: evenodd; fill: rgb(255, 255, 255);"/>
		<path d="M 296.999994 219.5 A 0.6 0.6 0 0 1 296.399994 220.1 A 0.6 0.6 0 0 1 295.799994 219.5 A 0.6 0.6 0 0 1 296.399994 218.9 A 0.6 0.6 0 0 1 296.999994 219.5 Z" class="st2" style="fill: rgb(255, 255, 255);"/>
		<path d="M 305.500012 229.199997 A 0.3 0.3 0 0 1 305.200012 229.499997 A 0.3 0.3 0 0 1 304.900012 229.199997 A 0.3 0.3 0 0 1 305.200012 228.899997 A 0.3 0.3 0 0 1 305.500012 229.199997 Z" class="st2" style="fill: rgb(255, 255, 255);"/>
		<path d="M 289.400006 229.699997 A 0.3 0.3 0 0 1 289.100006 229.999997 A 0.3 0.3 0 0 1 288.800006 229.699997 A 0.3 0.3 0 0 1 289.100006 229.399997 A 0.3 0.3 0 0 1 289.400006 229.699997 Z" class="st2" style="fill: rgb(255, 255, 255);"/>
		<path d="M 287.500012 224.399994 A 0.3 0.3 0 0 1 287.200012 224.699994 A 0.3 0.3 0 0 1 286.900012 224.399994 A 0.3 0.3 0 0 1 287.200012 224.099994 A 0.3 0.3 0 0 1 287.500012 224.399994 Z" class="st2" style="fill: rgb(255, 255, 255);"/>
		<path d="M 328.900006 226.300003 A 0.3 0.3 0 0 1 328.600006 226.600003 A 0.3 0.3 0 0 1 328.300006 226.300003 A 0.3 0.3 0 0 1 328.600006 226.000003 A 0.3 0.3 0 0 1 328.900006 226.300003 Z" class="st2" style="fill: rgb(255, 255, 255);"/>
		<path d="M 322.099988 220.399994 A 0.3 0.3 0 0 1 321.799988 220.699994 A 0.3 0.3 0 0 1 321.499988 220.399994 A 0.3 0.3 0 0 1 321.799988 220.099994 A 0.3 0.3 0 0 1 322.099988 220.399994 Z" class="st2" style="fill: rgb(255, 255, 255);"/>
		<path d="M 332.8 220.600006 A 0.3 0.3 0 0 1 332.5 220.900006 A 0.3 0.3 0 0 1 332.2 220.600006 A 0.3 0.3 0 0 1 332.5 220.300006 A 0.3 0.3 0 0 1 332.8 220.600006 Z" class="st2" style="fill: rgb(255, 255, 255);"/>
	</g>
	<g id="waves_4_">
		<path class="st18" d="M315.6,204.9c-3.5,2-3.8-1.2-7.1,0.2C311.7,204.6,312.1,208,315.6,204.9z" style="fill-rule: evenodd; clip-rule: evenodd; fill: rgb(255, 255, 255);"/>
		<path d="M 321.899988 202.199997 A 0.6 0.6 0 0 1 321.299988 202.799997 A 0.6 0.6 0 0 1 320.699988 202.199997 A 0.6 0.6 0 0 1 321.299988 201.599997 A 0.6 0.6 0 0 1 321.899988 202.199997 Z" class="st19" style="opacity: 0.3; fill: rgb(255, 255, 255);"/>
		<path d="M 318.599988 204.800003 A 0.3 0.2 0 0 1 318.299988 205.000003 A 0.3 0.2 0 0 1 317.999988 204.800003 A 0.3 0.2 0 0 1 318.299988 204.600003 A 0.3 0.2 0 0 1 318.599988 204.800003 Z" class="st2" style="fill: rgb(255, 255, 255);"/>
		<path d="M 322.500012 207.699997 A 0.3 0.2 0 0 1 322.200012 207.899997 A 0.3 0.2 0 0 1 321.900012 207.699997 A 0.3 0.2 0 0 1 322.200012 207.499997 A 0.3 0.2 0 0 1 322.500012 207.699997 Z" class="st2" style="fill: rgb(255, 255, 255);"/>
	</g>
</g>
</svg>