<svg xmlns="http://www.w3.org/2000/svg" xmlns:xlink="http://www.w3.org/1999/xlink" id="master-artboard" width="335.99" height="235.19" viewBox="0 0 335.99 235.19"><defs><linearGradient id="Névtelen_színátmenet_398" x1="168.04" x2="168.04" y1="233.65" y2="121.35" gradientTransform="matrix(1, 0, 0, -1, 0, 236.49)" gradientUnits="userSpaceOnUse"><stop offset="0" stop-color="#3383a4"/><stop offset=".51" stop-color="#a9cbdb"/><stop offset="1" stop-color="#f1f8f3"/></linearGradient><radialGradient id="Névtelen_színátmenet_26" cx="274.87" cy="33.9" r=".97" gradientUnits="userSpaceOnUse"><stop offset=".74" stop-color="#fff" stop-opacity=".8"/><stop offset=".95" stop-color="#fff" stop-opacity="0"/></radialGradient><radialGradient id="Névtelen_színátmenet_26-2" cx="251.95" cy="17.23" r=".97" xlink:href="#Névtelen_színátmenet_26"/><radialGradient id="Névtelen_színátmenet_26-3" cx="143.17" cy="29.94" r=".97" xlink:href="#Névtelen_színátmenet_26"/><radialGradient id="Névtelen_színátmenet_26-4" cx="317.94" cy="63.61" r=".97" xlink:href="#Névtelen_színátmenet_26"/><radialGradient id="Névtelen_színátmenet_26-5" cx="202.9" cy="46.19" r=".97" xlink:href="#Névtelen_színátmenet_26"/><radialGradient id="Névtelen_színátmenet_26-6" cx="61.15" cy="46.19" r=".97" xlink:href="#Névtelen_színátmenet_26"/><radialGradient id="Névtelen_színátmenet_26-7" cx="227.83" cy="28.95" r=".61" xlink:href="#Névtelen_színátmenet_26"/><radialGradient id="Névtelen_színátmenet_26-8" cx="107.52" cy="12.12" r=".61" xlink:href="#Névtelen_színátmenet_26"/><radialGradient id="Névtelen_színátmenet_26-9" cx="8.01" cy="45.78" r=".61" xlink:href="#Névtelen_színátmenet_26"/><radialGradient id="Névtelen_színátmenet_26-10" cx="330.32" cy="22.51" r=".61" xlink:href="#Névtelen_színátmenet_26"/><radialGradient id="Névtelen_színátmenet_26-11" cx="249.62" cy="69.05" r=".61" xlink:href="#Névtelen_színátmenet_26"/><radialGradient id="Névtelen_színátmenet_26-12" cx="281.3" cy="98.26" r=".61" xlink:href="#Névtelen_színátmenet_26"/><radialGradient id="Névtelen_színátmenet_26-13" cx="40.06" cy="51.7" r=".61" xlink:href="#Névtelen_színátmenet_26"/><radialGradient id="Névtelen_színátmenet_26-14" cx="250.97" cy="51.7" r=".61" xlink:href="#Névtelen_színátmenet_26"/><radialGradient id="Névtelen_színátmenet_26-15" cx="168.07" cy="11.72" r=".61" xlink:href="#Névtelen_színátmenet_26"/><radialGradient id="Névtelen_színátmenet_26-16" cx="317.8" cy="11.72" r=".61" xlink:href="#Névtelen_színátmenet_26"/><radialGradient id="Névtelen_színátmenet_26-17" cx="40.68" cy="20.53" r=".61" xlink:href="#Névtelen_színátmenet_26"/><radialGradient id="Névtelen_színátmenet_26-18" cx="179.31" cy="18.55" r=".61" xlink:href="#Névtelen_színátmenet_26"/><radialGradient id="Névtelen_színátmenet_451" cx="174.13" cy="-62.34" r="63.63" gradientTransform="translate(-1.98 185.48) rotate(-3.66)" gradientUnits="userSpaceOnUse"><stop offset=".76" stop-color="#fff" stop-opacity=".96"/><stop offset=".95" stop-color="#fff" stop-opacity="0"/></radialGradient><radialGradient id="Névtelen_színátmenet_457" cx="167.5" cy="112.16" r="52.16" gradientUnits="userSpaceOnUse"><stop offset=".91" stop-color="#fff"/><stop offset="1" stop-color="#fff" stop-opacity="0"/></radialGradient><linearGradient id="Névtelen_színátmenet_397" x1="168.06" x2="168.06" y1=".52" y2="119.46" gradientTransform="matrix(1, 0, 0, -1, 0, 236.49)" gradientUnits="userSpaceOnUse"><stop offset="0" stop-color="#004d65"/><stop offset=".63" stop-color="#aacfe2"/><stop offset="1" stop-color="#c8d5c0"/></linearGradient><linearGradient id="Névtelen_színátmenet_411" x1="79.09" x2="79.09" y1="235.23" y2="182.84" gradientUnits="userSpaceOnUse"><stop offset=".56" stop-color="#141f29" stop-opacity="0"/><stop offset="1" stop-color="#141f29" stop-opacity=".2"/></linearGradient><linearGradient id="Névtelen_színátmenet_543" x1="865.16" x2="1110.98" y1="301.01" y2="212.06" gradientTransform="translate(-790.77 -117.16)" gradientUnits="userSpaceOnUse"><stop offset="0" stop-color="#fff" stop-opacity="0"/><stop offset="1" stop-color="#fff"/></linearGradient><linearGradient id="Névtelen_színátmenet_543-2" x1="928.77" x2="1115.64" y1="361.52" y2="293.9" xlink:href="#Névtelen_színátmenet_543"/><linearGradient id="Névtelen_színátmenet_543-3" x1="-598.86" x2="-412.03" y1="318.13" y2="250.53" gradientTransform="matrix(-1, 0, 0, 1, -400.77, -117.16)" xlink:href="#Névtelen_színátmenet_543"/><linearGradient id="Névtelen_színátmenet_543-4" x1="947.54" x2="1116.23" y1="319.09" y2="258.05" xlink:href="#Névtelen_színátmenet_543"/><linearGradient id="Névtelen_színátmenet_543-5" x1="947.9" x2="1116.69" y1="323.42" y2="262.35" xlink:href="#Névtelen_színátmenet_543"/><linearGradient id="Névtelen_színátmenet_543-6" x1="810.31" x2="1107.42" y1="373.57" y2="266.06" xlink:href="#Névtelen_színátmenet_543"/><linearGradient id="Névtelen_színátmenet_358" x1="290.64" x2="311.21" y1="163.81" y2="128.17" gradientUnits="userSpaceOnUse"><stop offset=".2" stop-color="#141f29" stop-opacity="0"/><stop offset="1" stop-color="#141f29" stop-opacity=".6"/></linearGradient><linearGradient id="Névtelen_színátmenet_358-2" x1="123.41" x2="123.41" y1="132.14" y2="127.7" xlink:href="#Névtelen_színátmenet_358"/><linearGradient id="Névtelen_színátmenet_362" x1="216.66" x2="216.66" y1="152.86" y2="142.74" gradientUnits="userSpaceOnUse"><stop offset=".2" stop-color="#141f29" stop-opacity="0"/><stop offset="1" stop-color="#141f29" stop-opacity=".3"/></linearGradient><linearGradient id="Névtelen_színátmenet_359" x1="193.53" x2="193.53" y1="158.91" y2="126.72" gradientUnits="userSpaceOnUse"><stop offset=".2" stop-color="#141f29" stop-opacity="0"/><stop offset=".86" stop-color="#141f29" stop-opacity=".48"/><stop offset="1" stop-color="#141f29" stop-opacity=".6"/></linearGradient><linearGradient id="Névtelen_színátmenet_358-3" x1="123.61" x2="123.61" y1="134.07" y2="133.95" xlink:href="#Névtelen_színátmenet_358"/><linearGradient id="Névtelen_színátmenet_364" x1="37.07" x2="69.22" y1="113.22" y2="168.9" gradientUnits="userSpaceOnUse"><stop offset="0" stop-color="#141f29" stop-opacity=".6"/><stop offset="1" stop-color="#141f29" stop-opacity="0"/></linearGradient><linearGradient id="Névtelen_színátmenet_359-2" x1="290.04" x2="290.04" y1="134.32" y2="126.38" xlink:href="#Névtelen_színátmenet_359"/><radialGradient id="Névtelen_színátmenet_26-19" cx="231.11" cy="-67.67" r="20.87" gradientTransform="matrix(1, -0.06, 0.06, 1.01, -0.06, 191.53)" xlink:href="#Névtelen_színátmenet_26"/><radialGradient id="Névtelen_színátmenet_26-20" cx="120.4" cy="-63.72" r="32.84" gradientTransform="matrix(1, -0.06, 0.06, 1.01, -0.06, 191.53)" xlink:href="#Névtelen_színátmenet_26"/><radialGradient id="Névtelen_színátmenet_31" cx="69.64" cy="-30.83" r="27.66" gradientTransform="matrix(1, -0.06, 0.06, 1.01, -0.06, 191.53)" gradientUnits="userSpaceOnUse"><stop offset=".85" stop-color="#fff" stop-opacity=".6"/><stop offset=".95" stop-color="#fff" stop-opacity="0"/></radialGradient><radialGradient id="Névtelen_színátmenet_26-21" cx="102.58" cy="-84.18" r="14.9" gradientTransform="matrix(1, -0.06, 0.06, 1.01, -0.06, 191.53)" xlink:href="#Névtelen_színátmenet_26"/><radialGradient id="Névtelen_színátmenet_31-2" cx="56.4" cy="-98.74" r="20.87" xlink:href="#Névtelen_színátmenet_31"/><radialGradient id="Névtelen_színátmenet_26-22" cx="239.19" cy="-7.19" r="28.38" gradientTransform="matrix(1, -0.06, 0.06, 1.01, -0.06, 191.53)" xlink:href="#Névtelen_színátmenet_26"/><radialGradient id="Névtelen_színátmenet_26-23" cx="136.94" cy="17.5" r="20.87" gradientTransform="matrix(1, -0.06, 0.06, 1.01, -0.06, 191.53)" xlink:href="#Névtelen_színátmenet_26"/><radialGradient id="Névtelen_színátmenet_26-24" cx="118.62" cy="-111.2" r="20.87" gradientTransform="matrix(1, -0.06, 0.06, 1.01, -0.06, 191.53)" xlink:href="#Névtelen_színátmenet_26"/><radialGradient id="Névtelen_színátmenet_26-25" cx="76.63" cy="-139.58" r="29.48" gradientTransform="matrix(1, -0.06, 0.06, 1.01, -0.06, 191.53)" xlink:href="#Névtelen_színátmenet_26"/><radialGradient id="Névtelen_színátmenet_26-26" cx="54.52" cy="-.23" r="20.87" gradientTransform="matrix(1, -0.06, 0.06, 1.01, -0.06, 191.53)" xlink:href="#Névtelen_színátmenet_26"/><radialGradient id="Névtelen_színátmenet_26-27" cx="144.86" cy="-106.53" r="20.87" gradientTransform="matrix(1, -0.06, 0.06, 1.01, -0.06, 191.53)" xlink:href="#Névtelen_színátmenet_26"/><radialGradient id="Névtelen_színátmenet_26-28" cx="262.34" cy="-92.14" r="20.87" gradientTransform="matrix(1, -0.06, 0.06, 1.01, -0.06, 191.53)" xlink:href="#Névtelen_színátmenet_26"/><radialGradient id="Névtelen_színátmenet_31-3" cx="291.14" cy="-125.27" r="27.02" xlink:href="#Névtelen_színátmenet_31"/><radialGradient id="Névtelen_színátmenet_26-29" cx="278.79" cy="-53.04" r="29.02" gradientTransform="matrix(1, -0.06, 0.06, 1.01, -0.06, 191.53)" xlink:href="#Névtelen_színátmenet_26"/><radialGradient id="Névtelen_színátmenet_26-30" cx="284.24" cy="20.5" r="20.87" gradientTransform="matrix(1, -0.06, 0.06, 1.01, -0.06, 191.53)" xlink:href="#Névtelen_színátmenet_26"/><radialGradient id="Névtelen_színátmenet_26-31" cx="35.97" cy="-37.31" r="20.87" gradientTransform="matrix(1, -0.06, 0.06, 1.01, -0.06, 191.53)" xlink:href="#Névtelen_színátmenet_26"/><linearGradient id="Névtelen_színátmenet_2" x1="89.64" x2="31.84" y1="150.39" y2="215.79" gradientUnits="userSpaceOnUse"><stop offset="0" stop-color="#335079"/><stop offset="1" stop-color="#004469"/></linearGradient></defs><title>Artboard 1</title><g id="Layer" transform="matrix(1, 0, 0, 1, 0, 0)" style="isolation:isolate"><path d="M 0.11 -0.03 H 335.969985 V 117.419997 H 0.11 V -0.03 Z" class="cls-2" style="fill:url(#Névtelen_színátmenet_398)"/><path d="M274.87,32.91a1,1,0,0,0,0,2A1,1,0,0,0,274.87,32.91Z" class="cls-3" style="fill:url(#Névtelen_színátmenet_26)"/><path d="M252,16.25a1,1,0,0,0,0,2A1,1,0,0,0,252,16.25Z" class="cls-4" style="fill:url(#Névtelen_színátmenet_26-2)"/><path d="M143.17,29a1,1,0,0,0,0,2A1,1,0,0,0,143.17,29Z" class="cls-5" style="fill:url(#Névtelen_színátmenet_26-3)"/><path d="M317.94,62.62a1,1,0,0,0,0,2A1,1,0,0,0,317.94,62.62Z" class="cls-6" style="fill:url(#Névtelen_színátmenet_26-4)"/><path d="M202.9,45.2a1,1,0,0,0,0,2A1,1,0,0,0,202.9,45.2Z" class="cls-7" style="fill:url(#Névtelen_színátmenet_26-5)"/><path d="M61.15,45.2a1,1,0,0,0,0,2A1,1,0,0,0,61.15,45.2Z" class="cls-8" style="fill:url(#Névtelen_színátmenet_26-6)"/><path d="M227.83,28.33a.62.62,0,0,0,0,1.24A.62.62,0,0,0,227.83,28.33Z" class="cls-9" style="fill:url(#Névtelen_színátmenet_26-7)"/><path d="M107.52,11.5a.62.62,0,0,0,0,1.23A.62.62,0,0,0,107.52,11.5Z" class="cls-10" style="fill:url(#Névtelen_színátmenet_26-8)"/><path d="M8,45.16A.62.62,0,0,0,8,46.4.62.62,0,0,0,8,45.16Z" class="cls-11" style="fill:url(#Névtelen_színátmenet_26-9)"/><path d="M330.32,21.89a.62.62,0,0,0,0,1.24A.62.62,0,0,0,330.32,21.89Z" class="cls-12" style="fill:url(#Névtelen_színátmenet_26-10)"/><path d="M249.62,68.43a.62.62,0,0,0,0,1.24A.62.62,0,0,0,249.62,68.43Z" class="cls-13" style="fill:url(#Névtelen_színátmenet_26-11)"/><path d="M281.3,97.64a.62.62,0,0,0,0,1.24A.62.62,0,0,0,281.3,97.64Z" class="cls-14" style="fill:url(#Névtelen_színátmenet_26-12)"/><path d="M40.06,51.09a.62.62,0,0,0,0,1.23A.62.62,0,0,0,40.06,51.09Z" class="cls-15" style="fill:url(#Névtelen_színátmenet_26-13)"/><path d="M251,51.09a.62.62,0,0,0,0,1.23A.62.62,0,0,0,251,51.09Z" class="cls-16" style="fill:url(#Névtelen_színátmenet_26-14)"/><path d="M168.07,11.1a.62.62,0,0,0,0,1.24A.62.62,0,0,0,168.07,11.1Z" class="cls-17" style="fill:url(#Névtelen_színátmenet_26-15)"/><path d="M317.8,11.1a.62.62,0,0,0,0,1.24A.62.62,0,0,0,317.8,11.1Z" class="cls-18" style="fill:url(#Névtelen_színátmenet_26-16)"/><path d="M40.68,19.91a.62.62,0,0,0,0,1.24A.62.62,0,0,0,40.68,19.91Z" class="cls-19" style="fill:url(#Névtelen_színátmenet_26-17)"/><path d="M179.31,17.93a.62.62,0,0,0,0,1.24A.62.62,0,0,0,179.31,17.93Z" class="cls-20" style="fill:url(#Névtelen_színátmenet_26-18)"/><path d="M326.08,65.69a10,10,0,0,0-1.68,9.59,5.4,5.4,0,0,0-2.9.93,5.86,5.86,0,0,0-1-1,4.27,4.27,0,0,0,.24-1.18,4.15,4.15,0,0,0-6.35-3.7,4.15,4.15,0,0,0-2.59-1.24,6.17,6.17,0,0,0-.64-2.74,4.69,4.69,0,0,0-7.89-4.28,6.44,6.44,0,0,0-6.77-2.84,8.08,8.08,0,0,0-1.8-1.07,8.25,8.25,0,0,0-9.46,13,3,3,0,0,0-.67-.06,4.18,4.18,0,0,0-2.81,1.18,8,8,0,0,0-1.33-1.21,2.83,2.83,0,0,0,0-.41,4.68,4.68,0,0,0-8.34-2.85,4.65,4.65,0,0,0-7.51-4.29,4.68,4.68,0,0,0-1.73,3.57,4.64,4.64,0,0,0-4.28,4.14.53.53,0,0,0-.13,0A5.59,5.59,0,0,0,253,76.91a5.47,5.47,0,0,0,.48,2.1,4.18,4.18,0,0,0-1.07-.14,4.27,4.27,0,0,0-3.71,2.33,6.47,6.47,0,0,0-8.84,6.13,6.44,6.44,0,0,0,1.46,4l-.43,0a6.9,6.9,0,0,0-6.9,6.9,6.53,6.53,0,0,0,.26,1.83,6.92,6.92,0,0,0-5.28.11,6.83,6.83,0,0,0-1.39-3.33,6.91,6.91,0,0,0-9.7-1.22,6.8,6.8,0,0,0-.63.56A6.91,6.91,0,0,0,205,100.37l.45.63a4.75,4.75,0,0,0-3.15,1.34,6.46,6.46,0,0,0-6.76-2.84,8.12,8.12,0,0,0-1.81-1.06,8.24,8.24,0,0,0-9.45,13,3,3,0,0,0-.68-.06,4.16,4.16,0,0,0-2.81,1.18,7.66,7.66,0,0,0-1.33-1.21c0-.14,0-.27,0-.41a4.7,4.7,0,0,0-4.78-4.61,4.65,4.65,0,0,0-3.57,1.76,4.58,4.58,0,0,0-1-3.56,4.64,4.64,0,0,0-8.27,2.84,4.64,4.64,0,0,0-4.28,4.13h-.14c-3.08.06-5.54,1.92-5.48,5v.1l183.85.25V65.46C333.38,62.56,327.74,63.63,326.08,65.69Z" class="cls-21" style="fill:#fafafb;opacity:.4"/><path d="M130.68,107a6.63,6.63,0,0,0,.3-2c0-4.21-4-7.63-8.86-7.63a10.23,10.23,0,0,0-1.77.15,7.14,7.14,0,0,0,.27-1.86,6.7,6.7,0,0,0-6.49-6.9,6.28,6.28,0,0,0-4.72,2.2,12.33,12.33,0,0,0-21,.65,7.63,7.63,0,0,0-7.29-5.15,7.86,7.86,0,0,0-2.92.56,5.71,5.71,0,0,0,.2-1.5,7,7,0,0,0-5-6.42,6.26,6.26,0,0,0,.39-2.19,5.48,5.48,0,0,0-5.18-5.73,4.61,4.61,0,0,0-1.39.24c0-.17,0-.34,0-.51,0-4.37-3-7.91-6.68-7.91a5.63,5.63,0,0,0-2.3.5,9.64,9.64,0,0,0-18.33-.73,8.1,8.1,0,0,0-6.13-2.63,9,9,0,0,0-3,.52,2.61,2.61,0,0,0,.1-.69c0-1.75-1.71-3.17-3.81-3.17a4.6,4.6,0,0,0-1.13.16,2.85,2.85,0,0,0,.11-.72,2.8,2.8,0,0,0-2.83-2.76l-.12,0a3.26,3.26,0,0,0-4.65-2.87,5.35,5.35,0,0,0-4.51-2.35,5.2,5.2,0,0,0-5,3.28,6.53,6.53,0,0,0-6.19,5,5.21,5.21,0,0,0-1.33-.19,5.05,5.05,0,0,0-1.89.37v59.47H126C134.66,113.42,133.57,108.89,130.68,107Z" class="cls-21" style="fill:#fafafb;opacity:.4"/><path d="M226.16,137.55a63.62,63.62,0,1,1-32.94-83.73A63.63,63.63,0,0,1,226.16,137.55Z" class="cls-22" style="opacity:.6;fill:url(#Névtelen_színátmenet_451)"/><path d="M 219.66 112.160004 A 52.16 52.16 0 0 1 167.5 164.320004 A 52.16 52.16 0 0 1 115.34 112.160004 A 52.16 52.16 0 0 1 167.5 60.000004 A 52.16 52.16 0 0 1 219.66 112.160004 Z" class="cls-23" style="fill:url(#Névtelen_színátmenet_457)"/><path d="M -0.05 117.300003 H 336.170001 V 235.190002 H -0.05 V 117.300003 Z" class="cls-24" style="fill:url(#Névtelen_színátmenet_397)"/><path d="M65.91,188.7H80.38l-1.07,6.41c-3.46-.24-7.27-.2-12.34-.1,0,0,7.38,26.05,11.42,40.23h5.9c4-14.18,11.42-40.23,11.42-40.23-4.76-.09-8.8-.14-12.22.06l-1.59-6.37H99l.73-1.78h2.6l-1.54-4.08h-32l-1.75.11a23.61,23.61,0,0,0-5.16.88,12.8,12.8,0,0,0-1.3.49c-.86.36-4.74,2.7-4.74,2.7s3,0,7.24-.05Z" class="cls-25" style="isolation:isolate;opacity:.5;fill:url(#Névtelen_színátmenet_411)"/><g class="cls-26" style="opacity:.78"><g class="cls-27" style="opacity:.53"><path d="M 335.989990234375 140.5 L 57.97999954223633 138.47999572753906 L 335.989990234375 138.47999572753906 L 335.989990234375 140.5 Z" class="cls-28" style="fill:url(#Névtelen_színátmenet_543)"/></g><g class="cls-29" style="opacity:.28"><path d="M 335.989990234375 211.72000122070312 L 125.5199966430664 209.8699951171875 L 335.989990234375 207.44000244140625 L 335.989990234375 211.72000122070312 Z" class="cls-30" style="fill:url(#Névtelen_színátmenet_543-2)"/></g><g class="cls-31" style="opacity:.32"><path d="M -0.2800000011920929 166.97000122070312 L 210.17999267578125 167.57000732421875 L -0.2800000011920929 165.3000030517578 L -0.2800000011920929 166.97000122070312 Z" class="cls-32" style="fill:url(#Névtelen_színátmenet_543-3)"/></g><g class="cls-33" style="opacity:.13"><path d="M 335.989990234375 171.5 L 145.75999450683594 171.5 L 335.989990234375 169.97000122070312 L 335.989990234375 171.5 Z" class="cls-34" style="fill:url(#Névtelen_színátmenet_543-4)"/></g><g class="cls-29" style="opacity:.28"><path d="M 335.989990234375 177.08999633789062 L 145.75999450683594 174.8300018310547 L 335.989990234375 172.97999572753906 L 335.989990234375 177.08999633789062 Z" class="cls-35" style="fill:url(#Névtelen_színátmenet_543-5)"/></g><g class="cls-36" style="opacity:.3"><path d="M 335.989990234375 203.83999633789062 L 0.21000000834465027 202.99000549316406 L 0.21000000834465027 201.4600067138672 L 335.989990234375 202.30999755859375 L 335.989990234375 203.83999633789062 Z" class="cls-37" style="fill:url(#Névtelen_színátmenet_543-6)"/></g></g><path d="M0,134.65s123.05.07,123.7-.72-24.76-23.4-26.46-23.66-19.11.48-20.15-.44S33.92,70.4,33.53,70.14a1.79,1.79,0,0,0-1.75,0c-.39.31-23.27,22.58-24.71,21.14S0,80.88,0,80.88Z" class="cls-38" style="fill:#07293c"/><path d="M77,109.83c1,.92,18.45.17,20.15.44,1.15.17,13,10.47,20.48,17.43h11.49C125.81,124,90.3,92.81,89.84,92.81c-.2,0-2.72,2.15-2.83,2.15s-2.69-2.77-2.93-2.77-6.69,5.43-13.81,11.47C74.14,107.19,76.78,109.61,77,109.83Z" class="cls-39" style="fill:#00507e"/><path d="M30.32,71.48c-4.45-4.16-7.42-6.82-7.68-6.82-.61,0-1.42,1.12-2.27,1.12-1.11,0-6.67-5.6-7.84-5.6C11,60.18,0,71.33,0,71.33v9.55s5.68,8.91,7.12,10.35C8.3,92.46,25.19,76.37,30.32,71.48Z" class="cls-40" style="fill:#004168"/><path d="M255.89,126.79a2.76,2.76,0,0,0-1.11-1.11c-.29-.19-48.6-29.24-50.15-29.24-.75,0-2.43,2-2.88,1.78s-6.8-3.57-7.66-3.58l-4.71,0c-.57,0-2.52,1.61-3.51,2.17a1.52,1.52,0,0,1-.73.18l-1.77,0c-.42,0-5.46,5-6.36,5h-7.08a2.8,2.8,0,0,0-1.74.62c-2.95,2.37-13.45,10.79-13.81,11a44.85,44.85,0,0,1-5.58.28c-.69,0-11.49,8.34-17.63,12.9Z" class="cls-41" style="fill:#0a3455"/><path d="M335.94,114c-7.81,5.48-19.77,14.72-21.33,14.72-3.09,0-15.3.12-16.76.12s-39.8,12.08-44.2,13.5h82.29Z" class="cls-38" style="fill:#07293c"/><path d="M335.94,170.78c-7.81-5.47-19.77-14.71-21.33-14.71-3.09,0-15.3-.13-16.76-.13s-39.8-12.07-44.2-13.49h82.29Z" class="cls-42" style="isolation:isolate;opacity:.5;fill:url(#Névtelen_színátmenet_358)"/><path d="M335.94,88.46c-5.47,4-37.75,28.86-39.17,28.86-3.53,0-6.87-.06-9.79-.06-.57,0-25.6,8.91-26,9.35-.2.22,36.34-.09,75-.49Z" class="cls-43" style="fill:#0d2c47"/><path d="M 122.47000122070312 132.1300048828125 L 129.16000366210938 127.69999694824219 L 117.66999816894531 127.69999694824219 L 122.47000122070312 132.1300048828125 Z" class="cls-44" style="isolation:isolate;opacity:.5;fill:url(#Névtelen_színátmenet_358-2)"/><path d="M191,142.64s8.39-4.28,10-4.41,2.5.11,4.32-.82c2.4-1.22,8.08-4.89,9.32-4.89,1.57,0,7.31,4.21,9.23,4.08,1,0,3.57-.13,3.82-.13,1.57,0,2.55,1.24,3.62,1.24,2.19,0,11,4.93,11,4.93Z" class="cls-38" style="fill:#07293c"/><path d="M242.32,142.74s-8.84,4.93-11,4.93c-1.07,0-2,1.24-3.62,1.24-.25,0-2.8-.13-3.82-.13-1.92-.13-7.66,4.08-9.23,4.08-1.24,0-6.92-3.67-9.32-4.89-1.82-.93-2.73-.69-4.32-.82s-10-4.41-10-4.41Z" class="cls-45" style="isolation:isolate;opacity:.5;fill:url(#Névtelen_színátmenet_362)"/><path d="M131.17,126.72c6.14,4.56,16.94,12.91,17.63,12.91a44.85,44.85,0,0,1,5.58.28c.36.16,10.86,8.58,13.81,10.94a2.74,2.74,0,0,0,1.74.62l7.08,0c.9,0,5.94,5,6.36,5,.19,0,1,0,1.77,0a1.42,1.42,0,0,1,.73.19c1,.56,2.94,2.17,3.51,2.17l4.71,0c.86,0,7.21-3.37,7.66-3.58s2.13,1.79,2.88,1.79c.39,0,3.8-1.87,8.66-4.67-2.19-1-6.1-3.48-8-4.44s-2.73-.69-4.32-.82-10-4.41-10-4.41h38.82c12.43-7.36,24.82-14.81,25-14.9a2.74,2.74,0,0,0,1.11-1.12Z" class="cls-46" style="isolation:isolate;opacity:.5;fill:url(#Névtelen_színátmenet_359)"/><path d="M123.56,134s.06.09.07.12,0-.08,0-.1Z" class="cls-47" style="isolation:isolate;opacity:.5;fill:url(#Névtelen_színátmenet_358-3)"/><path d="M0,134.65v43.16s11.05,7.86,12.58,7.86c1.17,0,6.73-3.94,7.84-3.94.85,0,1.66.79,2.27.79a86.83,86.83,0,0,0,7.68-4.81c.86.58,1.4.95,1.46,1a2.46,2.46,0,0,0,1.75,0c.39-.18,42.46-27.33,43.51-28s22.42-.12,24.12-.3,22.49-16.44,22.3-16.39C118.29,134.71,0,134.65,0,134.65Z" class="cls-48" style="isolation:isolate;opacity:.5;fill:url(#Névtelen_színátmenet_364)"/><path d="M 260.9599914550781 126.61000061035156 L 279.7300109863281 134.32000732421875 L 297.8500061035156 128.82000732421875 L 315.2200012207031 128.6300048828125 L 319.1199951171875 126.37999725341797 L 260.9599914550781 126.61000061035156 Z" class="cls-49" style="opacity:.7;fill:url(#Névtelen_színátmenet_359-2)"/><g class="cls-50" style="opacity:.2"><path d="M246.27,116.77a20.89,20.89,0,0,1-27.56,10.92,21.17,21.17,0,0,1-10.85-27.77A20.9,20.9,0,0,1,235.43,89,21.16,21.16,0,0,1,246.27,116.77Z" class="cls-51" style="opacity:.6;fill:url(#Névtelen_színátmenet_26-19)"/><path d="M146.66,132.72A32.86,32.86,0,0,1,103.3,149.9a33.28,33.28,0,0,1-17.06-43.68A32.86,32.86,0,0,1,129.6,89,33.3,33.3,0,0,1,146.66,132.72Z" class="cls-52" style="opacity:.3;fill:url(#Névtelen_színátmenet_26-20)"/><path d="M93.16,167.09a27.67,27.67,0,0,1-36.52,14.47,28,28,0,0,1-14.36-36.79A27.66,27.66,0,0,1,78.79,130.3,28,28,0,0,1,93.16,167.09Z" class="cls-53" style="opacity:.6;fill:url(#Névtelen_színátmenet_31)"/><path d="M111,106a14.92,14.92,0,0,1-19.69,7.8A15.12,15.12,0,0,1,83.57,94a14.91,14.91,0,0,1,19.68-7.8A15.11,15.11,0,0,1,111,106Z" class="cls-54" style="opacity:.6;fill:url(#Névtelen_színátmenet_26-21)"/><path d="M69.31,96.69a20.89,20.89,0,0,1-27.56,10.92A21.15,21.15,0,0,1,30.91,79.84,20.88,20.88,0,0,1,58.47,68.92,21.16,21.16,0,0,1,69.31,96.69Z" class="cls-55" style="opacity:.6;fill:url(#Névtelen_színátmenet_31-2)"/><path d="M265.14,180.3a28.4,28.4,0,0,1-37.47,14.85,28.76,28.76,0,0,1-14.74-37.75,28.38,28.38,0,0,1,37.47-14.85A28.76,28.76,0,0,1,265.14,180.3Z" class="cls-56" style="opacity:.8;fill:url(#Névtelen_színátmenet_26-22)"/><path d="M157.41,208.78a20.89,20.89,0,0,1-27.57,10.92A21.16,21.16,0,0,1,119,191.93,20.89,20.89,0,0,1,146.56,181,21.17,21.17,0,0,1,157.41,208.78Z" class="cls-57" style="opacity:.3;fill:url(#Névtelen_színátmenet_26-23)"/><path d="M130.83,80.1A20.88,20.88,0,0,1,103.27,91,21.16,21.16,0,0,1,92.43,63.26,20.89,20.89,0,0,1,120,52.33,21.17,21.17,0,0,1,130.83,80.1Z" class="cls-58" style="opacity:.3;fill:url(#Névtelen_színátmenet_26-24)"/><path d="M94.87,57.65A29.49,29.49,0,0,1,56,73.07,29.87,29.87,0,0,1,40.64,33.86,29.5,29.5,0,0,1,79.56,18.43,29.89,29.89,0,0,1,94.87,57.65Z" class="cls-59" style="opacity:.2;fill:url(#Névtelen_színátmenet_26-25)"/><path d="M73.73,196.2a20.87,20.87,0,0,1-27.56,10.92,21.15,21.15,0,0,1-10.84-27.76,20.88,20.88,0,0,1,27.56-10.93A21.16,21.16,0,0,1,73.73,196.2Z" class="cls-60" style="opacity:.6;fill:url(#Névtelen_színátmenet_26-26)"/><path d="M157.41,83.12A20.89,20.89,0,0,1,129.84,94,21.15,21.15,0,0,1,119,66.28a20.88,20.88,0,0,1,27.56-10.93A21.17,21.17,0,0,1,157.41,83.12Z" class="cls-61" style="opacity:.2;fill:url(#Névtelen_színátmenet_26-27)"/><path d="M276,90.06A20.88,20.88,0,0,1,248.42,101a21.16,21.16,0,0,1-10.84-27.77,20.89,20.89,0,0,1,27.56-10.92A21.15,21.15,0,0,1,276,90.06Z" class="cls-62" style="opacity:.2;fill:url(#Névtelen_színátmenet_26-28)"/><path d="M308.36,57.26A27,27,0,0,1,272.68,71.4a27.4,27.4,0,0,1-14-35.95,27,27,0,0,1,35.68-14.14A27.39,27.39,0,0,1,308.36,57.26Z" class="cls-63" style="opacity:.6;fill:url(#Névtelen_színátmenet_31-3)"/><path d="M302.46,131.74a29,29,0,0,1-38.33,15.18,29.42,29.42,0,0,1-15.07-38.61,29,29,0,0,1,38.32-15.18A29.42,29.42,0,0,1,302.46,131.74Z" class="cls-64" style="opacity:.3;fill:url(#Névtelen_színátmenet_26-29)"/><path d="M305.12,202.31a20.89,20.89,0,0,1-27.56,10.92,21.15,21.15,0,0,1-10.84-27.77,20.88,20.88,0,0,1,27.56-10.92A21.16,21.16,0,0,1,305.12,202.31Z" class="cls-65" style="opacity:.2;fill:url(#Névtelen_színátmenet_26-30)"/><path d="M52.78,160A20.87,20.87,0,0,1,25.22,170.9a21.15,21.15,0,0,1-10.84-27.76,20.88,20.88,0,0,1,27.56-10.93A21.16,21.16,0,0,1,52.78,160Z" class="cls-66" style="opacity:.6;fill:url(#Névtelen_színátmenet_26-31)"/></g><path d="M65.87,212.81s-3,5.53-3.62,19.26c-1.06-7.85-3.54-18.48-9.29-23.66a75.93,75.93,0,0,1,4.69,26.49h7.91C64.28,228.9,63.11,219.7,65.87,212.81Z" class="cls-41" style="fill:#0a3455"/><path d="M88.63,212.81s1.19,13.31-.4,22.09h3.21C92,228.32,92.2,218.27,88.63,212.81Z" class="cls-41" style="fill:#0a3455"/><path d="M85.06,234.9h2.47c-.52-3.5-.87-8.2.15-11.66A36.45,36.45,0,0,0,85.06,234.9Z" class="cls-41" style="fill:#0a3455"/><path d="M69.55,216.28A39.9,39.9,0,0,1,75.2,234.9H85c-.72-11.63-1.14-30.76,2.87-40.2,0,0-6.83,9.6-7.91,37.92C78.39,227.11,75.25,219.47,69.55,216.28Z" class="cls-41" style="fill:#0a3455"/><path d="M112,234.9c.2-14.46,4.81-21,4.81-21-4.74,5.1-6.67,13.09-7.25,21Z" class="cls-39" style="fill:#00507e"/><path d="M94.9,208.29c2.08,4.88,3,12.22,3.37,19.88a30.07,30.07,0,0,0-6.71-8.35c3.19,3.49,5.22,9.2,6.53,15.08h4.14C99.9,215.3,94.9,208.29,94.9,208.29Z" class="cls-39" style="fill:#00507e"/><path d="M249.16,212.81s3,5.53,3.61,19.26c1.07-7.85,3.54-18.48,9.29-23.66a75.93,75.93,0,0,0-4.69,26.49h-7.9C250.75,228.9,251.91,219.7,249.16,212.81Z" class="cls-43" style="fill:#0d2c47"/><path d="M226.4,212.81s-1.2,13.31.39,22.09h-3.2C223,228.32,222.82,218.27,226.4,212.81Z" class="cls-43" style="fill:#0d2c47"/><path d="M230,234.9h-2.48c.52-3.5.88-8.2-.14-11.66A36.77,36.77,0,0,1,230,234.9Z" class="cls-43" style="fill:#0d2c47"/><path d="M245.48,216.28a40,40,0,0,0-5.66,18.62H230c.72-11.63,1.15-30.76-2.87-40.2,0,0,6.83,9.6,7.91,37.92C236.63,227.11,239.77,219.47,245.48,216.28Z" class="cls-43" style="fill:#0d2c47"/><g id="grass"><path d="M182.31,225.56c.78-4.64,3.8-11.75,3.8-11.75s-3.4,5.9-6,11a23.43,23.43,0,0,0-2.5,10h3.94A62.16,62.16,0,0,1,182.31,225.56Z" class="cls-40" style="fill:#004168"/><path d="M222.79,234.83h2.52a48.43,48.43,0,0,1-.12-6.3c.18-3,2.59-7.56,2.59-7.56a55.83,55.83,0,0,0-5,7.23c0-3.92-.09-9.31-.25-15.47a225.66,225.66,0,0,0-2.11-24.46s.63,12.65.2,25.07a131,131,0,0,1-2.44,21.49h4.61Z" class="cls-38" style="fill:#07293c"/><path d="M258.13,226.61a45.71,45.71,0,0,0-10.8,5.86A64.48,64.48,0,0,1,252.1,222s-4.56,5.9-8,11a19,19,0,0,0-1.1,1.84h4.48c.11-.22.21-.44.33-.66C250.08,229.86,258.13,226.61,258.13,226.61Z" class="cls-38" style="fill:#07293c"/><path d="M186.71,233.46c1-4.64,5.1-11.75,5.1-11.75s-4.57,5.89-8.06,11c-.47.71-.88,1.41-1.24,2.09h3.91C186.51,234.37,186.6,233.92,186.71,233.46Z" class="cls-38" style="fill:#07293c"/><path d="M192.84,234.48c2.3-4.31,10.35-7.56,10.35-7.56a45.23,45.23,0,0,0-12.94,7.56l-.41.35h2.81Z" class="cls-38" style="fill:#07293c"/><path d="M175.51,234.83s-1.17-3.71-.39-14.41,6.74-21.12,6.74-21.12-6.9,7.37-9,16.48a58.49,58.49,0,0,0-1.33,11.92c-1.2-4.59-2.62-9-2.62-9s1,7.34.21,12a42,42,0,0,1-1,4.14h7.36Z" class="cls-40" style="fill:#004168"/><path d="M162.67,234.83a69.93,69.93,0,0,0-2.85-12c-2.1-6.24-9.06-13.31-9.06-13.31A41.47,41.47,0,0,1,157,222.42a24.63,24.63,0,0,1,1.07,5.59,30.33,30.33,0,0,0-9.1-7.73s6.63,3.94,7.22,8.38a16.53,16.53,0,0,1-.34,6.17h6.83Z" class="cls-38" style="fill:#07293c"/><path d="M212.2,234.45A139.06,139.06,0,0,0,208.69,210s.69,8.39.56,18.22c-1.59-4.8-3.5-9.56-3.5-9.56s1.49,7.38.79,12a37.7,37.7,0,0,1-.89,4.14h6.57C212.21,234.7,212.2,234.58,212.2,234.45Z" class="cls-38" style="fill:#07293c"/><path d="M233.53,234.83a26.8,26.8,0,0,1,1.26-7.56c1.32-4.3,5.93-7.56,5.93-7.56a26.9,26.9,0,0,0-7.42,7.56,22.45,22.45,0,0,0-2,3.55,12.53,12.53,0,0,0-2-5.89,9.91,9.91,0,0,1,.62,8.17c-.24.6-.5,1.18-.76,1.73h4.38Z" class="cls-40" style="fill:#004168"/><path d="M115.13,234.83s1.18-3.71.39-14.41-6.73-21.12-6.73-21.12,6.89,7.37,9,16.48a57.84,57.84,0,0,1,1.34,11.92c1.2-4.59,2.61-9,2.61-9s-1,7.34-.21,12c.26,1.44.61,2.86,1,4.14h-7.37Z" class="cls-40" style="fill:#004168"/><path d="M284.43,234.83h-2.52a48.43,48.43,0,0,0,.12-6.3c-.18-3-2.59-7.56-2.59-7.56a55.83,55.83,0,0,1,5,7.23c0-3.92.09-9.31.25-15.47a225.66,225.66,0,0,1,2.11-24.46s-.63,12.65-.2,25.07A131.76,131.76,0,0,0,289,234.83h-4.6Z" class="cls-38" style="fill:#07293c"/><path d="M70.09,234.83s-1.18-3.71-.4-14.41,6.74-21.12,6.74-21.12-6.89,7.37-9,16.48a58.49,58.49,0,0,0-1.33,11.92c-1.2-4.59-2.61-9-2.61-9s1,7.34.21,12c-.26,1.44-.61,2.86-1,4.14h7.37Z" class="cls-38" style="fill:#07293c"/><path d="M133,234.83a26.37,26.37,0,0,1,1.26-7.56c1.32-4.3,5.93-7.56,5.93-7.56a26.9,26.9,0,0,0-7.42,7.56,22.45,22.45,0,0,0-2,3.55,12.53,12.53,0,0,0-2-5.89,9.91,9.91,0,0,1,.62,8.17c-.25.6-.5,1.18-.76,1.73H133Z" class="cls-38" style="fill:#07293c"/><path d="M52.44,213.34c-.43-12.42.2-25.07.2-25.07a225.66,225.66,0,0,0-2.11,24.46c0,.92,0,1.81-.06,2.69v19.41h4.4A131.76,131.76,0,0,1,52.44,213.34Z" class="cls-38" style="fill:#07293c"/></g><path d="M166.47,113.43l.14,16.9a42.76,42.76,0,0,0,8.18-.2C173.07,125.41,168.76,117.89,166.47,113.43Z" class="cls-67" style="fill:#fff"/><path d="M159.78,134.57h10.93l.59,0a8.62,8.62,0,0,0,1.77-.3l.44-.17c.3-.13,1.62-.92,1.62-.92s-15.73,0-15.88,0Z" class="cls-68" style="fill:#b6cfd4"/><path d="M 160.13999938964844 133.1699981689453 L 172.66000366210938 133.14999389648438 L 171.6999969482422 132.55999755859375 L 160.38999938964844 132.55999755859375 L 160.13999938964844 133.1699981689453 Z" class="cls-69" style="fill:#9f7464"/><path d="M166.4,132.56l-.15-20.34s.06-.06.15-.06.14,0,.14.06l.15,20.34Z" class="cls-69" style="fill:#9f7464"/><path d="M166.68,130.33l-.13-16.75c0,.08,4.79,16.83,4.79,16.83A41.83,41.83,0,0,1,166.68,130.33Z" class="cls-70" style="opacity:.2;fill:#c1cac7;mix-blend-mode:multiply"/><path d="M100.77,183h-32l-1.75-.1A23.61,23.61,0,0,1,61.9,182c-.44-.14-.87-.31-1.3-.49-.86-.36-4.74-2.7-4.74-2.7.36.08,46,.12,46.45.1Z" class="cls-68" style="fill:#b6cfd4"/><path d="M 99.69999694824219 178.91000366210938 L 63.09000015258789 178.8699951171875 L 65.91000366210938 177.1300048828125 L 98.9800033569336 177.13999938964844 L 99.69999694824219 178.91000366210938 Z" class="cls-69" style="fill:#9f7464"/><path d="M81.4,177.14l.44-59.5c0-.1-.19-.18-.43-.18s-.42.08-.42.18l-.45,59.5Z" class="cls-69" style="fill:#9f7464"/><path d="M80.59,170.62l.37-49c-.12.23-14,49.19-14,49.19A122.59,122.59,0,0,0,80.59,170.62Z" class="cls-67" style="fill:#fff"/><path d="M81.52,170.62l.2-49c.12.23,14,49.19,14,49.19A133.48,133.48,0,0,1,81.52,170.62Z" class="cls-67" style="fill:#fff"/><path d="M295.1,34.58a11.68,11.68,0,0,1-2-.51,3.19,3.19,0,0,0-1.94.39.55.55,0,0,0-.42-.23.49.49,0,0,0-.41.21,3.32,3.32,0,0,0-2-.44,12.94,12.94,0,0,1-2,.47h-.19l.19,0a4.85,4.85,0,0,0,.95.06,9.64,9.64,0,0,1,1.08-.06,2.34,2.34,0,0,1,1,.28,7.88,7.88,0,0,1,1,.59,1.18,1.18,0,0,0,1,0,8.9,8.9,0,0,1,.88-.53,2.38,2.38,0,0,1,1-.25,9.81,9.81,0,0,1,1.09.07,4.27,4.27,0,0,0,1,0l.18,0Z" class="cls-71" style="fill:#00507e;fill-rule:evenodd"/><path d="M103.48,41.19a6.67,6.67,0,0,1-1.13-.28,1.85,1.85,0,0,0-1.09.21A.29.29,0,0,0,101,41a.31.31,0,0,0-.23.12,1.89,1.89,0,0,0-1.11-.25,6.82,6.82,0,0,1-1.14.27h-.1l.1,0a2.29,2.29,0,0,0,.53,0c.2,0,.4,0,.6,0a1.33,1.33,0,0,1,.55.16,5.34,5.34,0,0,1,.53.33.69.69,0,0,0,.55,0,4.53,4.53,0,0,1,.49-.29,1.35,1.35,0,0,1,.55-.15,5.82,5.82,0,0,1,.6.05,2.29,2.29,0,0,0,.53,0l.11,0Z" class="cls-71" style="fill:#00507e;fill-rule:evenodd"/><path d="M57.84,35.87a15.81,15.81,0,0,1-2.42-.61,3.85,3.85,0,0,0-2.31.46.6.6,0,0,0-1,0,4,4,0,0,0-2.37-.53,13.92,13.92,0,0,1-2.42.56h-.22l.22,0a5.22,5.22,0,0,0,1.13.06,10.94,10.94,0,0,1,1.29-.06,2.73,2.73,0,0,1,1.15.32,10.72,10.72,0,0,1,1.14.71,1.43,1.43,0,0,0,1.18,0,11,11,0,0,1,1-.62,2.86,2.86,0,0,1,1.16-.3c.44,0,.86.06,1.29.08a5.27,5.27,0,0,0,1.13,0l.22,0Z" class="cls-72" style="fill:#fff;fill-rule:evenodd"/><path d="M238.13,64.37c-1.69-.12-2.48-.69-3.88-1a6.1,6.1,0,0,0-3.71.74,1.05,1.05,0,0,0-.8-.45,1,1,0,0,0-.78.41,6.35,6.35,0,0,0-3.8-.84c-1.4.25-2.21.81-3.89.89h-.35l.35.08a8.9,8.9,0,0,0,1.81.11,20.2,20.2,0,0,1,2.07-.11,4.5,4.5,0,0,1,1.85.52,19.26,19.26,0,0,1,1.83,1.14,2.3,2.3,0,0,0,1.88,0,16.21,16.21,0,0,1,1.68-1,4.65,4.65,0,0,1,1.86-.49c.71,0,1.38.11,2.06.15a9,9,0,0,0,1.82-.08l.35-.07Z" class="cls-72" style="fill:#fff;fill-rule:evenodd"/><path d="M90.76,51.24a9.7,9.7,0,0,1-1.65-.41,2.59,2.59,0,0,0-1.59.32.4.4,0,0,0-.34-.19.38.38,0,0,0-.33.17,2.73,2.73,0,0,0-1.62-.36,10.17,10.17,0,0,1-1.66.38h-.15l.15,0a3.26,3.26,0,0,0,.77,0,8.7,8.7,0,0,1,.89,0,2,2,0,0,1,.79.22,7.41,7.41,0,0,1,.78.49,1,1,0,0,0,.8,0,6.66,6.66,0,0,1,.71-.42,2,2,0,0,1,.79-.21,8.29,8.29,0,0,1,.88.06,4,4,0,0,0,.78,0l.15,0Z" class="cls-71" style="fill:#00507e;fill-rule:evenodd"/><path d="M60.8,235.19A78.31,78.31,0,0,0,38,230.05c-11.81-.78-25.9,2.54-33.12,5.14Z" class="cls-73" style="fill:#07293c;fill-rule:evenodd"/><path d="M3.52,235.08l.59-.85c8.84-12.66,46.06-59.45,46.06-59.45a164.35,164.35,0,0,0-49.08,36.3c-.37.4-.73.8-1.09,1.21v22.79Z" class="cls-74" style="fill-rule:evenodd;fill:#08203e"/><path d="M48.4,176.22l1-.61A4.51,4.51,0,0,0,48.4,176.22Z" class="cls-75" style="fill:#054e7b"/><path d="M0,224.93v2.36q2.07-2.83,4-5.55c15.17-21.64,39.3-41.81,44.36-45.52C43.76,179.27,23,193.74,0,224.93Z" class="cls-75" style="fill:#054e7b"/><path d="M0,198.78v30.58c.83-2.28,1.58-4.3,2.19-5.91,4.29-11.32,23.64-54,23.64-54A127.54,127.54,0,0,0,0,198.78Z" class="cls-76" style="fill-rule:evenodd;fill:#0d3057"/><path d="M0,213.31c7.45-19.13,21.63-38.65,24.74-42.43-2.7,2.94-14,15.91-24.74,39.93Z" class="cls-75" style="fill:#054e7b"/><path d="M24.74,170.88l.62-.66A3.62,3.62,0,0,0,24.74,170.88Z" class="cls-75" style="fill:#054e7b"/><path d="M15.87,235.08c14.06-7.13,50.07-23.75,50.07-23.75a128.91,128.91,0,0,0-47.17,8.11A116.91,116.91,0,0,0,0,228.74v6.34Z" class="cls-73" style="fill:#07293c;fill-rule:evenodd"/><path d="M1.56,235.08h2c4.6-2.58,9.27-4.92,13.55-7.13,18.25-9.81,42.26-15.42,47.11-16.23C59.27,212.28,34.49,215.84,1.56,235.08Z" class="cls-75" style="fill:#054e7b"/><path d="M14.26,235.08c4.5-3.85,8.51-7.27,11.37-9.64,11.89-9.84,60.24-45,60.24-45a164.48,164.48,0,0,0-57,21.9C18.65,208.68,8.67,217.29,0,226v9.05Z" class="cls-77" style="fill-rule:evenodd;fill:url(#Névtelen_színátmenet_2)"/><path d="M1.63,235.08h2l2.78-2.74c7.19-7,15.36-13.24,22.52-19,20.39-16.82,49-29.81,54.89-32C77.25,183.45,42.24,195.8,1.63,235.08Z" class="cls-75" style="fill:#054e7b"/><path d="M276,235.19a77.6,77.6,0,0,1,22.59-5.09c11.69-.77,25.63,2.52,32.77,5.09Z" class="cls-76" style="fill-rule:evenodd;fill:#0d3057"/><path d="M332.63,235.08l-.59-.84c-8.74-12.52-45.57-58.81-45.57-58.81A162.71,162.71,0,0,1,335,211.34l1.08,1.19v22.55Z" class="cls-74" style="fill-rule:evenodd;fill:#08203e"/><path d="M288.22,176.85l-.94-.61A4.54,4.54,0,0,1,288.22,176.85Z" class="cls-75" style="fill:#054e7b"/><path d="M336.11,225v2.33c-1.37-1.87-2.71-3.7-4-5.48-15-21.42-38.88-41.36-43.89-45C292.81,179.87,313.4,194.18,336.11,225Z" class="cls-75" style="fill:#054e7b"/><path d="M336.11,199.17v30.26c-.83-2.26-1.56-4.27-2.17-5.86-4.25-11.19-23.38-53.43-23.38-53.43A126.27,126.27,0,0,1,336.11,199.17Z" class="cls-76" style="fill-rule:evenodd;fill:#0d3057"/><path d="M336.11,213.55c-7.38-18.93-21.4-38.25-24.48-42,2.67,2.91,13.85,15.74,24.48,39.51Z" class="cls-75" style="fill:#054e7b"/><path d="M311.63,171.57c-.36-.38-.58-.61-.61-.66A3.81,3.81,0,0,1,311.63,171.57Z" class="cls-75" style="fill:#054e7b"/><path d="M320.41,235.08c-13.91-7.06-49.54-23.49-49.54-23.49a127.52,127.52,0,0,1,46.67,8,115.67,115.67,0,0,1,18.57,9.2v6.27Z" class="cls-76" style="fill-rule:evenodd;fill:#0d3057"/><path d="M334.57,235.08h-2c-4.55-2.55-9.16-4.86-13.4-7.05-18.06-9.71-41.81-15.25-46.61-16.06C277.47,212.53,302,216.05,334.57,235.08Z" class="cls-75" style="fill:#054e7b"/><path d="M322,235.08c-4.45-3.81-8.42-7.19-11.25-9.54C299,215.81,251.15,181,251.15,181a162.59,162.59,0,0,1,56.38,21.66c10.12,6.29,20,14.8,28.58,23.45v9Z" class="cls-73" style="fill:#07293c;fill-rule:evenodd"/><path d="M334.49,235.08h-1.93l-2.75-2.71c-7.11-6.92-15.2-13.09-22.28-18.75C287.35,197,259,184.13,253.22,181.92,259.69,184,294.32,196.22,334.49,235.08Z" class="cls-75" style="fill:#054e7b"/></g></svg>