<svg xmlns="http://www.w3.org/2000/svg" xmlns:xlink="http://www.w3.org/1999/xlink" id="master-artboard" width="720" height="503.999" x="0" y="0" enable-background="new 0 0 720 503.999" version="1.1" viewBox="0 0 720 503.999"><symbol id="New_Symbol" viewBox="-0.763 -0.763 1.526 1.525"><path fill="#FFF" d="M0.763,0c0-0.421-0.342-0.762-0.763-0.762S-0.763-0.421-0.763,0S-0.421,0.763,0,0.763S0.763,0.42,0.763,0z"/></symbol><linearGradient id="SVGID_1_" x1="360" x2="360" y1="503.987" y2="-.01" gradientUnits="userSpaceOnUse"><stop offset=".032" style="stop-color:#efe5b4"/><stop offset=".1" style="stop-color:#eae4b8"/><stop offset=".183" style="stop-color:#dbe3c5"/><stop offset=".238" style="stop-color:#cde1d1"/><stop offset=".352" style="stop-color:#c1dcce"/><stop offset=".468" style="stop-color:#bcd9cc"/><stop offset=".54" style="stop-color:#b7d9d2"/><stop offset=".728" style="stop-color:#aed8dd"/><stop offset=".935" style="stop-color:#abd8e1"/></linearGradient><path fill="url(#SVGID_1_)" d="M 0 -0.011 H 720.000977 V 503.986986 H 0 V -0.011 Z"/><g><path fill="#FFF" d="M50.817-0.052l37.75,0.011c0,0-36.254,36.333,65.079,45.666S321.681,32.85,336.664,16.399 s14.982-16.451,14.982-16.451l37.333,0.011c0,0-44.411,16.44-58.666,41.729c-11.028,19.563-84.113,52.729-142,53.278 C62.312,96.161,48.118-0.052,50.817-0.052z" opacity=".2"/><path fill="#FFF" d="M0,71.333C0,72.09,41.69,122.568,77,128s154.874,44.241,249-7.5 c84.352-46.369,8.314-41.841,31.848-81.307C373.209,13.434,493.63,0,562,0s158.001,0,158.001,0v33.574 c0,0-68.367,6.948-91.001,54.926c-22.635,47.978-146.428,20.915-188.126,23.631c-41.697,2.716-114.822,47.232-152.577,67.803 s-94.643,4.365-115.466-2.294C152.007,170.98,15.448,138.057,0,151.239V71.333z" opacity=".3"/></g><path fill="#BCD9CC" d="M 0 274.85101318359375 L 385.00799560546875 275.5260009765625 L 720 274.85101318359375 L 720 495.5350036621094 L 0 492.5950012207031 Z"/><path fill="#3A516E" d="M0,0v136.25c0,0,64,17.852,81-28.699s26.169-9.871,40.478-12.544c22.566-4.215,31.865-47.133,18.193-64.07	s31.416,17.38,49.33-3.406c9.043-10.493,15.624-27.583,15.624-27.583L0,0z"/><g><g><g><path fill="#CFE4D3" d="M 340.5409851074219 235.25 L 392.1860046386719 273.2179870605469 L 402.22900390625 267.0509948730469 Z"/><path fill="#CFE4D3" d="M256.291,211.219l76.346,26.343l-36.471,10.157c0,0-35.375-21.75-34.625-21.75s18.276,1.057,18.276,1.057 L256.291,211.219z"/><path fill="#7AB0B6" d="M 83.84200286865234 274.25 L 219.67100524902344 208.718994140625 L 226.17100524902344 215.468994140625 L 221.92100524902344 215.718994140625 L 227.67100524902344 222.468994140625 L 237.75799560546875 248.718994140625 L 205.17100524902344 231.468994140625 L 206.92100524902344 238.718994140625 L 204.67100524902344 238.718994140625 L 221.9029998779297 276.468994140625 Z"/><path fill="#CFE4D3" d="M 219.67100524902344 208.718994140625 L 242.9320068359375 216.74600219726562 L 227.67100524902344 222.468994140625 L 221.92100524902344 215.718994140625 L 226.92100524902344 215.593994140625 Z"/><path fill="#CFE4D3" d="M 221.9029998779297 276.468994140625 L 257.6709899902344 276.468994140625 L 237.75799560546875 248.718994140625 L 205.17100524902344 231.468994140625 L 206.92100524902344 238.718994140625 L 204.67100524902344 238.718994140625 Z"/><g><path fill="#4F769A" d="M 0 260.0090026855469 L 53.82600021362305 237.67599487304688 L 111.85299682617188 266.3009948730469 L 192.39300537109375 275.6180114746094 L 191.06100463867188 275.82598876953125 L 0 275.82598876953125 Z"/><path fill="#7AB0B6" d="M 53.82600021362305 237.67599487304688 L 110 273 L 197.83299255371094 275.82598876953125 Z"/></g></g><g><path fill="#4F769A" d="M492.083,276.469L720,275.826l0.001-21.555l-51.529-24.914l14.362,14.362l-20.225-12.896 c0,0-40.742-24.036-41.915-24.329c-1.172-0.293,5.569,10.552,5.569,10.552l-71.665-26.233l-35.174,26.38l18.319-6.595 l-33.414,28.725l38.104-13.483l-47.484,29.312L492.083,276.469z"/><path fill="#7DB1BA" d="M 385.00799560546875 276.468994140625 L 541.6320190429688 190.81300354003906 L 535.916015625 199.6060028076172 L 555.114990234375 190.81300354003906 L 519.9409790039062 217.1929931640625 L 537.6480102539062 210.81900024414062 L 504.84698486328125 239.322998046875 L 542.9509887695312 225.83999633789062 L 495.4670104980469 255.1510009765625 L 492.0830078125 276.468994140625 Z"/><path fill="#7DB1BA" d="M599.525,207.259c0.775,0.283,21.169-0.765,21.169-0.765l5.569,10.552L599.525,207.259z"/><path fill="#7DB1BA" d="M 661.656005859375 230.26100158691406 L 668.4719848632812 229.35699462890625 L 682.833984375 243.72000122070312 Z"/><path fill="#4F769A" d="M 554.5989990234375 190.81300354003906 L 541.114990234375 190.81300354003906 L 535.3989868164062 199.6060028076172 Z"/></g></g><path fill="#7AB0B6" d="M297.546,247.719c0.75-0.125,44.375-12.375,44.375-12.375l54.579,41.125l-96.204-0.002L297.546,247.719z"/><path fill="#7AB0B6" d="M 227.67100524902344 222.468994140625 L 257.6709899902344 211.218994140625 L 281.197998046875 227.02499389648438 L 264.37799072265625 227.02499389648438 L 297.5459899902344 247.718994140625 L 300.2959899902344 276.4670104980469 L 248.42100524902344 276.468994140625 Z"/></g><g opacity=".2"><g><g><path fill="#CFE4D3" d="M 340.5409851074219 299.489013671875 L 392.1860046386719 276.6679992675781 L 402.22900390625 280.3739929199219 Z"/><path fill="#CFE4D3" d="M256.291,313.935l76.346-15.835l-36.471-6.104c0,0-35.375,13.073-34.625,13.073 s18.276-0.635,18.276-0.635L256.291,313.935z"/><path fill="#7AB0B6" d="M 83.84200286865234 276.0469970703125 L 219.6719970703125 315.43798828125 L 226.1719970703125 311.3800048828125 L 221.9219970703125 311.22900390625 L 227.6719970703125 307.1719970703125 L 237.75799560546875 291.3949890136719 L 205.1719970703125 301.76300048828125 L 206.9219970703125 297.40399169921875 L 204.6719970703125 297.40399169921875 L 221.9029998779297 274.7139892578125 Z"/><path fill="#CFE4D3" d="M 219.6719970703125 315.43798828125 L 242.9320068359375 310.61199951171875 L 227.6719970703125 307.1719970703125 L 221.9219970703125 311.22900390625 L 226.9219970703125 311.3039855957031 Z"/><path fill="#CFE4D3" d="M 221.9029998779297 274.7139892578125 L 257.6719970703125 274.7139892578125 L 237.75799560546875 291.3949890136719 L 205.1719970703125 301.76300048828125 L 206.9219970703125 297.40399169921875 L 204.6719970703125 297.40399169921875 Z"/><g><path fill="#4F769A" d="M 0 284.60699462890625 L 53.82600021362305 298.031005859375 L 111.85299682617188 280.8240051269531 L 192.39300537109375 275.2250061035156 L 191.06100463867188 275.10101318359375 L 0 275.10101318359375 Z"/><path fill="#7AB0B6" d="M 53.82600021362305 298.031005859375 L 110 276.79901123046875 L 197.83399963378906 275.10101318359375 Z"/></g></g><g><path fill="#4F769A" d="M492.083,274.714L720,275.101l0.001,12.956l-51.529,14.976l14.362-8.635l-20.225,7.753 c0,0-40.742,14.448-41.915,14.623c-1.172,0.177,5.569-6.342,5.569-6.342L554.599,326.2l-35.174-15.857l18.319,3.965 l-33.414-17.267l38.104,8.105l-47.484-17.619L492.083,274.714z"/><path fill="#7DB1BA" d="M 385.00799560546875 274.7139892578125 L 541.6320190429688 326.20001220703125 L 535.916015625 320.91400146484375 L 555.114990234375 326.20001220703125 L 519.9409790039062 310.3429870605469 L 537.6480102539062 314.17498779296875 L 504.84698486328125 297.0409851074219 L 542.9509887695312 305.14599609375 L 495.4670104980469 287.5270080566406 L 492.0830078125 274.7139892578125 Z"/><path fill="#7DB1BA" d="M599.525,316.315c0.775-0.171,21.169,0.458,21.169,0.458l5.569-6.342L599.525,316.315z"/><path fill="#7DB1BA" d="M 661.656005859375 302.4880065917969 L 668.4719848632812 303.0320129394531 L 682.833984375 294.3970031738281 Z"/><path fill="#4F769A" d="M 554.5989990234375 326.20001220703125 L 541.114990234375 326.20001220703125 L 535.3989868164062 320.91400146484375 Z"/></g></g><path fill="#7AB0B6" d="M297.547,291.995c0.75,0.074,44.375,7.438,44.375,7.438l54.579-24.72l-96.203,0.001L297.547,291.995z"/><path fill="#7AB0B6" d="M 227.6719970703125 307.1719970703125 L 257.6719970703125 313.93499755859375 L 281.1969909667969 304.4339904785156 L 264.3789978027344 304.4339904785156 L 297.5469970703125 291.9949951171875 L 300.2969970703125 274.7149963378906 L 248.4219970703125 274.7139892578125 Z"/></g><path fill="#F7EBBC" d="M 399.859985 133.5 A 45 45 0 0 1 354.859985 178.5 A 45 45 0 0 1 309.859985 133.5 A 45 45 0 0 1 354.859985 88.5 A 45 45 0 0 1 399.859985 133.5 Z"/><path fill="#F7EBBC" d="M 347.024986 365.964996 A 37.165001 37.165001 0 0 1 309.859985 403.129997 A 37.165001 37.165001 0 0 1 272.694984 365.964996 A 37.165001 37.165001 0 0 1 309.859985 328.799995 A 37.165001 37.165001 0 0 1 347.024986 365.964996 Z" opacity=".5"/><path fill="#3E3155" d="M 0 369.635986328125 L 0 503.97698974609375 L 22.58099937438965 503.97698974609375 L 32.33300018310547 411.635986328125 L 40.185001373291016 316.3219909667969 L 47.66699981689453 225.5 L 75.25 62.125 L 126 -0.01100000087171793 L 118.03500366210938 -0.01100000087171793 L 72.33300018310547 43.03200149536133 L 48.17100143432617 -0.01100000087171793 L 39.58300018310547 -0.01100000087171793 L 57.573001861572266 56.970001220703125 Z"/><path fill="#1F1F2A" d="M 45.74800109863281 123.02400207519531 L 0 17.704999923706055 L 0 29.236000061035156 L 42.415000915527344 141.35699462890625 Z"/><path fill="#1F1F2A" d="M 21.1 66.041 L 27.605 0 L 21.59 0.097 L 14.354 51.696999 L 20.974001 67.322998"/><path fill="#1F1F2A" d="M 0 369.635986328125 L 0 481.6669921875 L 22.58099937438965 316.3330078125 L 46.13199996948242 166.85899353027344 L 66.83300018310547 57 L 44.625 -0.01100000087171793 L 44.625 -0.01100000087171793 L 39.58300018310547 -0.01100000087171793 L 57.573001861572266 56.970001220703125 Z"/><path fill="#7C7496" d="M 70.16699981689453 63.33300018310547 L 75.25 62.125 L 126 -0.01100000087171793 L 124 0.09700000286102295 Z"/><path fill="#7C7496" d="M 33.41699981689453 298.3340148925781 L 31.082000732421875 323.885986328125 L 38.50199890136719 336.75 L 40.44300079345703 310.3680114746094 Z"/><path fill="#7C7496" d="M 29 339.25 L 37.185001373291016 352.7460021972656 L 36.6609992980957 359.10699462890625 L 29 347 Z"/><path fill="#7C7496" d="M 56.30099868774414 174.36199951171875 L 55.36000061035156 179.9340057373047 L 48.625 175.25 L 49.51499938964844 169.35499572753906 Z"/><path fill="#7C7496" d="M 54.36899948120117 186.20799255371094 L 53.73099899291992 189.58099365234375 L 47.25 185 L 48.01300048828125 181.00900268554688 Z"/><g><g><path fill="#1F1F2A" d="M0.238,489.434c-0.088-0.694-8.218-69.647,50.829-100.336l0.653,1.257 C-6.458,420.594,1.557,488.57,1.645,489.254L0.238,489.434z"/></g><g><g><g><path fill="#3E3155" d="M232.631,358.781c0,0,24.676,11.508,30.2,9.35c5.523-2.156-7.734,2.538-17.953-12.929 c-4.1-6.206-9.001-10.365-14.061-13.018c-7.55-3.954-15.451-4.547-21.57-3.556c-2.184,0.354-4.911,0.357-7.871,0.086 c-10.888-1.002-24.916-5.685-26.654-10.029c-2.208-5.524-5.8,11.878-5.8,11.878V326.2c0,0-29.83-6.353-47.783,3.593 c-8.634,4.782-2.485,22.646-2.485,22.646l-10.772-20.716c0,0-22.372,3.039-32.04,14.087 c-9.667,11.048-20.439,5.801-24.582,6.076c-4.144,0.277-13.811,21.267,0,32.592c13.81,11.324,43.916-20.2,80.375-23.908 C168.094,356.858,215.132,355.818,232.631,358.781z"/></g></g><g><g><path fill="#7C7496" d="M212.496,347.371c3.533-4.144,12.751-5.756,20.551-3.595l0.148-0.531 c-7.988-2.214-17.46-0.523-21.12,3.767L212.496,347.371z"/></g></g><g><g><path fill="#7C7496" d="M192.933,347.252c1.055-4.737,4.224-7.826,8.471-8.264l-0.057-0.551 c-5.294,0.549-8.096,4.849-8.954,8.693L192.933,347.252z"/></g></g><g><g><path fill="#7C7496" d="M175.544,348.539l0.545-0.1c-1.868-10.354,5.438-14.466,5.513-14.505l-0.263-0.486 C181.262,333.489,173.604,337.779,175.544,348.539z"/></g></g><g><g><image width="27" height="96" overflow="visible" transform="matrix(0.24 0 0 0.24 147.9326 323.9717)" xlink:href="39811EFC7DDEAB35.png"/></g></g><g><g><path fill="#7C7496" d="M228.341,357.334c0.184-0.346,4.66-8.439,15.736-2.879l0.249-0.496 c-11.568-5.807-16.425,3.027-16.473,3.118L228.341,357.334z"/></g></g><g><g><image width="26" height="90" overflow="visible" transform="matrix(0.24 0 0 0.24 127.1294 325.2139)" xlink:href="39811EFC7DDEAB37.png"/></g></g><g><g><path fill="#7C7496" d="M97.067,353.486l0.369-0.412c-11.265-10.021-7.533-16.15-7.493-16.211l-0.465-0.302 C89.309,336.824,85.417,343.12,97.067,353.486z"/></g></g><g><g><path fill="#7C7496" d="M83.599,362.335l0.243-0.495c-5.595-2.742-8.831-5.886-9.615-9.342 c-0.753-3.316,1.115-5.729,1.134-5.755l-0.434-0.34c-0.083,0.104-2.05,2.646-1.239,6.217 C74.511,356.247,77.846,359.516,83.599,362.335z"/></g></g><g><g><path fill="#7C7496" d="M61.548,372.829l0.322-0.451c-6.559-4.683-8.303-9.871-8.61-13.399 c-0.334-3.826,0.899-6.588,0.912-6.615l-0.502-0.23C53.617,352.246,48.625,363.601,61.548,372.829z"/></g></g><g><g><path fill="#1F1F2A" d="M237.277,360.625c0,0-11.75-4.405-24.991-13.434c-12.435-8.477-15.466,6.076-15.466,6.076v-6.627 c0,0-22.096,3.312-31.211,1.104c-9.115-2.211-55.794-2.565-56.621,3.551c-0.829,6.116,8.563,9.274,8.563,9.274l-19.611-8.661 c0,0-2.485,6.571-10.221,8.661c-7.732,2.089-11.323,0.984-15.19,1.812c-3.866,0.83-11.66,12.983-16.878,15.192 c-5.218,2.211-6.322,6.904-7.703,13.259c-1.381,6.351,27.896-10.497,53.306-18.507c25.41-8.009,34.734-11.264,69.327-13.256 C202.891,357.205,226.636,355.324,237.277,360.625z"/></g></g></g></g><g><g><path fill="#2E2442" d="M680.315,390.527c0,0-24.67-37.864-36.197-42.564c-11.67-4.757-19.052-5.886-42.39-4.757 c0,0,13.336-4.242,34.53-4.396c21.194-0.154,22.624,2.279,26.673,4.396c4.047,2.117,13.098,11.006,19.052,12.116 c5.953,1.111,12.382,7.039,7.145,14.938c-4.699,7.085-10.319,12.189-9.113,18.69C680.154,389.7,679.972,389.714,680.315,390.527z"/></g><g><path fill="#7C7496" d="M580.771,338.804c0,0,18.575,4.689,22.386,4.402c5.589-0.422,41.684-5.567,48.824-3.759 s-29.005-7.402-38.822-3.553C599.823,341.127,585.534,341.666,580.771,338.804z"/></g><g><path fill="#2E2442" d="M701.882,481.883l-1.22-0.042c1.876-58.329-21.69-93.358-21.924-93.689l1.276,0.8 C680.253,389.285,703.774,423.086,701.882,481.883z"/></g></g><g><path fill="#1F1F2A" d="M118.954,35.267c0,0,2.941,2.753,7.601,2.91c4.66,0.158,8.48-0.952,8.827-1.89 c0.346-0.939-14.941-1.542-20.336-5.67C113.834,29.69,118.168,34.677,118.954,35.267z"/><path fill="#3E3155" d="M104.464,27.037c0,0,9.229,15.11,17.86,14.189c2.141-0.229-6.81-9.878-6.81-9.878s4.573,2.567,8.252,3.879 c2.969,1.059,8.007,1.656,11.616,1.06c0,0-6.802-10.156-12.644-10.587c0,0,2.65-3.455,4.029-5.053 c0.459-0.531-9.085-1.659-11.043-1.184C113.767,19.938,108.544,20.789,104.464,27.037z"/><path fill="#1F1F2A" d="M104.464,27.037c0,0,2.043-6.485,7.753-8.978c5.712-2.493,12.866,1.134,14.55,2.588 c1.684,1.454-9.027-1.995-13.924,0.271C107.944,23.186,105.458,26.244,104.464,27.037z"/></g><g><path fill="#1F1F2A" d="M21.667,48.488c-0.078,0.294,7.633,2.115,16.603-6.834c0.206-0.205-3.814-0.377-3.814-0.377 s5.396-4.113,6.041-10.251c0.112-1.069-11.311,7.249-12.562,11.09c0,0,2.022-2.63,2.488-7.428 C30.535,33.537,23.964,39.845,21.667,48.488z"/><path fill="#1F1F2A" d="M28.197,41.902c0,0,0.042-3.161,4.939-7.196c3.731-3.075,7.323-3.769,7.323-3.769 c-0.329,0.078-4.603,3.11-6.883,4.913C31.334,37.624,28.085,41.046,28.197,41.902"/><path fill="#1F1F2A" d="M38.27,41.654c-0.001-0.039-2.976,3.021-7.172,4.934c-7.36,3.354-9.431,1.901-9.431,1.901 s2.322,1.503,6.019,0.708c3.445-0.741,6.19-2.81,8.212-4.856S38.27,41.654,38.27,41.654z"/></g><g><path fill="#3E3155" d="M84.862,26.974c-0.126,0.319-9.655-2.071-12.843-15.286c-0.074-0.303,4.339,1.676,4.339,1.676 s-2.824-6.751,0.865-12.882c0.644-1.067,6.9,12.857,5.496,17.146c0,0-0.283-3.556,2.643-8.328 C86.063,8.156,88.576,17.603,84.862,26.974z"/><path fill="#1F1F2A" d="M82.591,17.287c0,0,2.209-3.003-0.139-9.415c-1.789-4.886-5.126-7.453-5.126-7.453 c0.296,0.249,2.695,5.383,3.842,8.297C82.295,11.583,83.32,16.54,82.591,17.287"/><path fill="#1F1F2A" d="M72.02,11.688c0.029-0.036,1.021,4.433,4.134,8.471c5.461,7.082,8.708,6.815,8.708,6.815 s-3.55,0.181-6.929-2.538c-3.148-2.534-4.601-5.946-5.298-8.953C71.938,12.478,72.02,11.688,72.02,11.688z"/></g><g><path fill="#3E3155" d="M99.345,33.284c-0.253-0.228-6.013,6.494-1.726,19.985c0.098,0.31,2.33-3.593,2.33-3.593 s1.318,7.465,7.082,11.251c1.003,0.659-1.399-14.944-4.572-18.155c0,0,1.574,3.355,6.099,6.277 C109.643,49.751,106.748,39.995,99.345,33.284z"/><path fill="#1F1F2A" d="M102.536,43.143c0,0,3.116,1.662,4.612,8.591c1.14,5.28-0.012,9.202-0.012,9.202 c0.091-0.367-0.728-6.164-1.349-9.352C105.176,48.449,103.443,43.471,102.536,43.143"/><path fill="#1F1F2A" d="M97.62,53.27c0.039,0.019-1.474-4.503-1.222-9.648c0.442-9.026,2.948-10.337,2.948-10.337 s-2.684,1.535-3.789,5.612c-1.03,3.8-0.383,7.585,0.612,10.642S97.62,53.27,97.62,53.27z"/></g><g><path fill="#1F1F2A" d="M48.602,23.364c0.014,0.205-5.353,0.433-10.179-6.672c-0.111-0.163,2.585,0.235,2.585,0.235 s-3.064-3.427-2.71-7.595c0.062-0.727,6.604,6.27,6.946,8.988c0,0-1.01-2.009-0.708-5.264 C44.609,12.277,48.176,17.316,48.602,23.364z"/><path fill="#1F1F2A" d="M45.097,18.144c0,0,0.376-2.11-2.369-5.421c-2.091-2.524-4.394-3.446-4.394-3.446 c0.209,0.095,2.668,2.659,3.954,4.151C43.555,14.895,45.281,17.589,45.097,18.144"/><path fill="#1F1F2A" d="M38.423,16.692c0.004-0.026,1.594,2.392,4.143,4.201c4.471,3.174,6.036,2.471,6.036,2.471 s-1.738,0.704-4.098-0.299c-2.198-0.932-3.763-2.662-4.846-4.282C38.573,17.162,38.423,16.692,38.423,16.692z"/></g><g><path fill="#1F1F2A" d="M17.95,79.792c0.07-0.251-6.504-1.901-14.284,5.647c-0.179,0.173,3.258,0.368,3.258,0.368 s-4.665,3.454-5.29,8.697c-0.109,0.913,9.762-6.065,10.878-9.336c0,0-1.761,2.226-2.217,6.324 C10.185,92.476,15.882,87.158,17.95,79.792z"/><path fill="#1F1F2A" d="M12.285,85.348c0,0-0.074,2.704-4.312,6.096C4.745,94.03,1.665,94.58,1.665,94.58 c0.282-0.062,3.975-2.604,5.948-4.12C9.551,88.97,12.37,86.082,12.285,85.348"/><path fill="#1F1F2A" d="M3.666,85.439c0,0.034,2.582-2.548,6.194-4.134c6.336-2.781,8.09-1.513,8.09-1.513 s-1.969-1.314-5.141-0.678c-2.956,0.593-5.328,2.329-7.083,4.056C3.973,84.896,3.666,85.439,3.666,85.439z"/></g><g><path fill="#1F1F2A" d="M10.113,147.449c0.033,0.219,5.502-1.069,8.714-9.841c0.074-0.202-2.556,0.98-2.556,0.98 s2.293-4.442,0.96-8.686c-0.232-0.739-5.199,8.409-4.909,11.338c0,0,0.55-2.38-0.517-5.685 C11.551,134.763,9.127,141.027,10.113,147.449z"/><path fill="#1F1F2A" d="M12.431,141.016c0,0-0.873-2.092,1.124-6.322c1.52-3.224,3.629-4.837,3.629-4.837 c-0.189,0.157-2.071,3.527-3.022,5.448C13.227,137.192,12.116,140.488,12.431,141.016"/><path fill="#1F1F2A" d="M18.827,137.608c-0.012-0.026-1.051,2.944-3.2,5.553c-3.771,4.577-5.514,4.288-5.514,4.288 s1.918,0.24,4.066-1.473c2.001-1.597,3.174-3.841,3.89-5.839C18.785,138.141,18.827,137.608,18.827,137.608z"/></g><g><path fill="#1F1F2A" d="M20.917,181.169c0.127-0.181-4.722-3.019-13.097,1.121c-0.193,0.095,2.527,1.052,2.527,1.052 s-4.724,1.637-6.684,5.63c-0.341,0.695,9.564-2.507,11.373-4.829c0,0-2.039,1.345-3.545,4.474 C11.128,189.367,17.204,186.5,20.917,181.169z"/><path fill="#1F1F2A" d="M14.802,184.231c0,0-0.811,2.117-5.172,3.804c-3.323,1.287-5.963,1.002-5.963,1.002 c0.245,0.017,3.932-1.127,5.945-1.863C11.59,186.452,14.667,184.83,14.802,184.231"/><path fill="#1F1F2A" d="M7.82,182.29c-0.01,0.027,2.791-1.408,6.146-1.816c5.887-0.715,6.951,0.696,6.951,0.696 s-1.224-1.497-3.961-1.736c-2.55-0.223-4.947,0.594-6.843,1.548C8.218,181.933,7.82,182.29,7.82,182.29z"/></g><path fill="#3A516E" d="M720,107.344c0,0,1.531,8.188-23.41-3.035c-26.02-11.707-41.863-54.678-50.551-71.145	S593.194-0.052,599.751,0s120.25-0.011,120.25-0.011L720,107.344z"/><g><path fill="#1F1F2A" d="M16.337,26.242c0.229,0.126,3.337-5.898-2.233-15.197c-0.128-0.213-1.103,3.087-1.103,3.087 s-2.297-5.33-7.258-7.137c-0.864-0.315,3.674,10.89,6.604,12.724c0,0-1.764-2.223-5.65-3.604 C5.764,15.784,9.639,22.545,16.337,26.242z"/><path fill="#1F1F2A" d="M12.224,19.458c0,0-2.616-0.69-4.95-5.59c-1.78-3.734-1.611-6.859-1.611-6.859 C5.659,7.297,7.29,11.473,8.314,13.74C9.322,15.968,11.49,19.373,12.224,19.458"/><path fill="#1F1F2A" d="M14.104,11.045c-0.033-0.008,1.891,3.096,2.609,6.975c1.26,6.804-0.376,8.222-0.376,8.222 s1.729-1.617,1.835-4.85c0.099-3.013-1.05-5.719-2.331-7.822C14.562,11.468,14.104,11.045,14.104,11.045z"/></g><g><path fill="#3E3155" d="M676.576,38.459c0.109,0.322,8.416-2.736,11.255-16.605c0.066-0.317-3.785,2-3.785,2 s2.489-7.159-0.695-13.275c-0.552-1.065-6.068,13.727-4.863,18.079c0,0,0.262-3.697-2.263-8.455 C675.619,19.062,673.388,28.989,676.576,38.459z"/><path fill="#1F1F2A" d="M678.601,28.296c0,0-1.911-2.971,0.165-9.75c1.579-5.167,4.499-8.026,4.499-8.026 c-0.26,0.275-2.373,5.735-3.385,8.821C678.884,22.377,677.969,27.568,678.601,28.296"/><path fill="#1F1F2A" d="M687.831,21.854c-0.024-0.036-0.909,4.651-3.64,9.02c-4.789,7.664-7.615,7.585-7.615,7.585 s3.092-0.031,6.046-3.051c2.752-2.815,4.034-6.435,4.655-9.588C687.899,22.667,687.831,21.854,687.831,21.854z"/></g><g><path fill="#1F1F2A" d="M662.381,36.673c0.298-0.163-4.156-7.812-18.308-8.198c-0.324-0.01,2.627,3.38,2.627,3.38 s-7.482-1.209-12.953,2.989c-0.952,0.731,14.573,3.592,18.649,1.651c0,0-3.688,0.384-7.934,3.696 C643.444,40.986,653.609,41.458,662.381,36.673z"/><path fill="#1F1F2A" d="M652.021,36.446c0,0-2.594,2.397-9.63,1.531c-5.361-0.659-8.686-3.036-8.686-3.036 c0.315,0.208,6.06,1.34,9.274,1.801C646.142,37.195,651.413,37.195,652.021,36.446"/><path fill="#1F1F2A" d="M644.073,28.475c-0.03,0.03,4.737,0.087,9.514,2.017c8.38,3.385,8.794,6.181,8.794,6.181 s-0.568-3.039-4.055-5.423c-3.251-2.221-7.038-2.855-10.252-2.919C644.86,28.266,644.073,28.475,644.073,28.475z"/></g><path fill="#3E3155" d="M 720 77.72000122070312 L 682.6680297851562 54.71900177001953 L 660.1229858398438 0 L 655.3330078125 0 L 672.2440185546875 65.5530014038086 L 720 97.64299774169922 Z"/><g><g><path fill="#1F1F2A" d="M575.479,56.946c0,0-3.178-2.475-7.833-2.208c-4.654,0.266-8.358,1.717-8.619,2.683 c-0.26,0.966,15.02,0.18,20.768,3.801C581.085,62.035,576.315,57.462,575.479,56.946z"/><path fill="#3E3155" d="M590.656,63.827c0,0-10.562-14.21-19.073-12.51c-2.111,0.422,7.679,9.219,7.679,9.219 s-4.788-2.141-8.571-3.115c-3.053-0.785-8.124-0.922-11.664-0.001c0,0,7.696,9.497,13.553,9.396c0,0-2.326,3.681-3.554,5.398 c-0.409,0.571,9.198,0.828,11.104,0.177C582.036,71.741,587.159,70.419,590.656,63.827z"/><path fill="#1F1F2A" d="M590.656,63.827c0,0-1.446,6.644-6.906,9.645c-5.463,3.001-12.916,0.038-14.725-1.257 c-1.809-1.295,9.171,1.168,13.842-1.534C587.539,67.979,589.739,64.707,590.656,63.827z"/></g><g><path fill="#3E3155" d="M620.456,61.596c0.219,0.261,6.848-5.605,4.456-19.559c-0.054-0.32-2.801,3.238-2.801,3.238 s-0.28-7.574-5.469-12.116c-0.901-0.792-0.669,14.993,2.034,18.61c0,0-1.099-3.54-5.179-7.056 C612.52,43.871,614.046,53.931,620.456,61.596z"/><path fill="#1F1F2A" d="M618.651,51.392c0,0-2.859-2.074-3.387-9.144c-0.405-5.387,1.276-9.112,1.276-9.112 c-0.142,0.351-0.128,6.206,0.05,9.448C616.766,45.774,617.798,50.943,618.651,51.392"/><path fill="#1F1F2A" d="M624.912,42.038c-0.036-0.024,0.842,4.664-0.115,9.726c-1.679,8.88-4.341,9.833-4.341,9.833 s2.869-1.151,4.525-5.038c1.541-3.623,1.422-7.46,0.855-10.624C625.271,42.77,624.912,42.038,624.912,42.038z"/></g><path fill="#3E3155" d="M 720.0009765625 163.16799926757812 L 611.25 97.08999633789062 L 579.8359985351562 -0.01100000087171793 L 573.8070068359375 0 L 603.0789794921875 103.83399963378906 L 720.0009765625 192.5 Z"/><path fill="#3E3155" d="M 634.7310180664062 111.28700256347656 L 634.7310180664062 82.83300018310547 L 611.8389892578125 54.16699981689453 L 614.0070190429688 54.16699981689453 L 639.3400268554688 80.5 L 640.68798828125 114.90599822998047 Z"/><path fill="#3E3155" d="M 587.0070190429688 46.12900161743164 L 562.9509887695312 22.145999908447266 L 562.9509887695312 24.812000274658203 L 589.72802734375 55.78099822998047 Z"/><path fill="#1F1F2A" d="M 720.0009765625 163.16799926757812 L 720.0009765625 172.5 L 611.8389892578125 101 L 611.25 97.08999633789062 Z"/><path fill="#7C7496" d="M 697.2520141601562 175.24899291992188 L 701.9530029296875 178.81300354003906 L 701.9530029296875 163.125 L 698.0009765625 159.25 Z"/><path fill="#7C7496" d="M 691.7139892578125 171.0489959716797 L 694.35302734375 172.81199645996094 L 694.35302734375 158.31199645996094 L 692.3209838867188 155.80499267578125 Z"/><path fill="#7C7496" d="M 661.656005859375 148.2550048828125 L 661.656005859375 136.33299255371094 L 659.3350219726562 134.7949981689453 L 658.593017578125 145.93299865722656 Z"/><path fill="#7C7496" d="M 652.1320190429688 141.0330047607422 L 653.7459716796875 142.2570037841797 L 653.9180297851562 132.79200744628906 L 653.0239868164062 131.75 Z"/><g><path fill="#3E3155" d="M572.956,37.056c0.304-0.153-3.89-7.949-18.02-8.814c-0.324-0.02,2.511,3.468,2.511,3.468 s-7.437-1.461-13.046,2.55c-0.978,0.697,14.442,4.083,18.582,2.28c0,0-3.697,0.259-8.054,3.426 C553.885,40.725,564.027,41.542,572.956,37.056z"/><path fill="#1F1F2A" d="M562.609,36.478c0,0-2.673,2.309-9.676,1.204c-5.337-0.838-8.578-3.328-8.578-3.328 c0.309,0.218,6.012,1.544,9.208,2.114C556.709,37.028,561.978,37.206,562.609,36.478"/><path fill="#1F1F2A" d="M554.937,28.242c-0.032,0.03,4.732,0.248,9.44,2.338c8.26,3.667,8.579,6.476,8.579,6.476 s-0.464-3.057-3.869-5.558c-3.173-2.33-6.937-3.092-10.146-3.264C555.731,28.061,554.937,28.242,554.937,28.242z"/></g></g><g><path fill="#1F1F2A" d="M212.459,55.819c0,0,3.413-2.139,8.017-1.4c4.604,0.738,8.141,2.559,8.302,3.546 c0.16,0.988-14.96-1.348-21.047,1.669C206.364,60.312,211.574,56.248,212.459,55.819z"/><path fill="#3E3155" d="M196.66,61.121c0,0,11.952-13.062,20.247-10.505c2.057,0.634-8.577,8.39-8.577,8.39 s4.981-1.643,8.844-2.227c3.117-0.47,8.175-0.091,11.604,1.185c0,0-8.623,8.665-14.438,7.969c0,0,1.94,3.898,2.986,5.731 c0.349,0.61-9.234-0.111-11.064-0.954C204.43,69.871,199.468,68.035,196.66,61.121z"/><path fill="#1F1F2A" d="M196.66,61.121c0,0,0.763,6.756,5.89,10.297c5.129,3.542,12.845,1.352,14.776,0.247 c1.931-1.104-9.242,0.229-13.614-2.934C199.338,65.568,197.482,62.089,196.66,61.121z"/></g><g><path fill="#3E3155" d="M157.918,71.13c-0.229,0.252-6.624-5.868-3.691-19.718c0.066-0.317,2.673,3.345,2.673,3.345 s0.574-7.558,5.936-11.895c0.932-0.756,0.085,15.008-2.757,18.518c0,0,1.235-3.495,5.449-6.849 C166.539,53.727,164.622,63.72,157.918,71.13z"/><path fill="#1F1F2A" d="M160.119,61.003c0,0,2.938-1.96,3.74-9.004c0.615-5.368-0.921-9.155-0.921-9.155 c0.128,0.356-0.114,6.206-0.417,9.438C162.222,55.463,160.989,60.588,160.119,61.003"/><path fill="#1F1F2A" d="M154.227,51.412c0.037-0.022-1.022,4.628-0.264,9.723c1.332,8.938,3.955,9.995,3.955,9.995 s-2.822-1.262-4.326-5.21c-1.398-3.68-1.13-7.51-0.441-10.649C153.84,52.13,154.227,51.412,154.227,51.412z"/></g><path fill="#3E3155" d="M 59.284000396728516 146.7270050048828 L 174.19200134277344 92.0530014038086 L 215.6790008544922 -0.16899999976158142 L 221.9029998779297 0 L 181.63499450683594 99.59300231933594 L 56.30099868774414 175.90699768066406 Z"/><path fill="#3E3155" d="M 149.38800048828125 103.78800201416016 L 151.1020050048828 87.0270004272461 L 175.12600708007812 51.92399978637695 L 175.81500244140625 49.07099914550781 L 146.8159942626953 87.0270004272461 L 140.39599609375 108.13300323486328 Z"/><path fill="#3E3155" d="M 202.7790069580078 43.599998474121094 L 229.14999389648438 22.187999725341797 L 228.8780059814453 24.84000015258789 L 199.09100341796875 52.92499923706055 Z"/><path fill="#1F1F2A" d="M 61.112998962402344 145.85699462890625 L 58.334999084472656 156.01100158691406 L 173.20799255371094 95.88200378417969 L 174.19200134277344 92.0530014038086 Z"/><path fill="#7C7496" d="M 80.68699645996094 161.0590057373047 L 75.64700317382812 164.1269989013672 L 77.24299621582031 148.52000427246094 L 81.56800079345703 145.06700134277344 Z"/><path fill="#7C7496" d="M 86.62300109863281 157.44400024414062 L 83.81900024414062 158.92999267578125 L 85.29299926757812 144.50399780273438 L 87.56900024414062 142.21800231933594 Z"/><path fill="#7C7496" d="M 118.84300231933594 137.8260040283203 L 120.05599975585938 125.96600341796875 L 122.52100372314453 124.6709976196289 L 122.12699890136719 135.82699584960938 Z"/><path fill="#7C7496" d="M 129.05299377441406 131.60899353027344 L 127.3219985961914 132.66299438476562 L 128.11399841308594 123.2300033569336 L 129.10899353027344 122.28399658203125 Z"/><g><path fill="#3E3155" d="M218.958,34.892c-0.256-0.224,5.74-6.736,19.643-4.069c0.319,0.061-3.292,2.737-3.292,2.737 s7.566,0.429,12.006,5.706c0.774,0.917-15.004,0.373-18.567-2.4c0,0,3.518,1.167,6.953,5.316 C236.523,43.177,226.495,41.452,218.958,34.892z"/><path fill="#1F1F2A" d="M229.124,36.898c0,0,2.017,2.9,9.075,3.566c5.378,0.512,9.135-1.096,9.135-1.096 c-0.353,0.134-6.207,0.005-9.445-0.236C234.704,38.895,229.556,37.76,229.124,36.898"/><path fill="#1F1F2A" d="M238.6,30.823c0.024,0.037-4.646-0.934-9.725-0.076c-8.911,1.504-9.917,4.146-9.917,4.146 s1.208-2.846,5.126-4.424c3.652-1.47,7.487-1.274,10.64-0.646C237.875,30.45,238.6,30.823,238.6,30.823z"/></g><path fill="#1F1F2A" d="M 720 97.64299774169922 L 672.2440185546875 65.5530014038086 L 655.3330078125 0 L 656.8330078125 0 L 676.3610229492188 61.09700012207031 L 720.0189819335938 88.52200317382812 Z"/><path fill="#1F1F2A" d="M664.412,35.142l-17.58-18.475V20c0,0,19.844,23.912,19.924,24.225S664.412,35.142,664.412,35.142z"/><path fill="#1F1F2A" d="M 35.19499969482422 178.49899291992188 L 17.406999588012695 164.8090057373047 L 0.4650000035762787 109.25299835205078 L 0 119.75 L 12.286999702453613 174.64500427246094 L 32.525001525878906 193 Z"/><path fill="#3E3155" d="M27.072,457.051c0,0,83.775,6.899,124.791,20.686s156.683,2.214,182.114,0	c25.43-2.214,55.001-4.968,55.001-4.968s18.828,1.617,40.978,3.853c22.148,2.235,71.202-4.739,81.046-8.274s54.16,0,54.16,0	s50.357,1.755,72.506,4.422c22.149,2.667,82.332-6.056,82.332-6.056v33.055L7.5,502.791L27.072,457.051z"/><path fill="#3E3155" d="M 68.0780029296875 103.19200134277344 L 77.93599700927734 94.58000183105469 L 77.93599700927734 101.75 L 65.76699829101562 118.29499816894531 Z"/><g><g><g><path fill="#2E2442" d="M662.991,431.671c0,0,17.841,4.808,16.914-7.599c-0.927-12.402-4.273-30.824-10.009-27.927 c-7.926,3.998-33.347,10.017-27.707,16.36C647.83,418.85,655.703,417.404,662.991,431.671z"/></g><g><path fill="#7C7496" d="M667.471,394.673c0,0-23.009,1.647-33.011-10.773c-9.999-12.428-14.676,6.398-22.305,17.456 c-7.629,11.062-12.238,15.501-13.065,21.604c-0.827,6.104-4.763,20.188-2.293,35.454c2.47,15.269,2.759,24.199,2.759,24.199 s10.197-30.733,17.52-37.019c7.32-6.286,10.369-13.342,10.369-13.342l0.842-6.348l3.056,0.236c0,0,6.722-11.979,11.326-12.571 c4.604-0.588,17.22-15.207,26.343-15.955C678.133,396.868,667.471,394.673,667.471,394.673z"/></g><g><path fill="#9F9BB2" d="M643.447,390.871c0,0-15.354,7.481-23.689,19.396c-7.668,10.971-17.862,29.468-19.941,51.578 c-0.984,10.488,0.324-5.351,4.438-18.501c3.963-12.67,10.252-23.852,13.865-29.144c12.729-18.66,27.587-22.61,27.587-22.61 L643.447,390.871z"/></g><g><path fill="#2E2442" d="M674.206,432.146c0,0,13.871,22.599,16.981,46.937l2.722,0.21c0,0-5.614-25.675-17.55-47.941 L674.206,432.146z"/></g></g><g><path fill="#9F9BB2" d="M627.691,401.946c-0.006-0.034-0.676-3.377-3.454-4.834c-2.462-1.292-5.807-0.775-9.94,1.526l-0.363-0.781 c4.373-2.437,7.958-2.952,10.659-1.531c3.137,1.651,3.855,5.288,3.885,5.442L627.691,401.946z"/></g><g><path fill="#9F9BB2" d="M629.24,426.012l-0.792-0.13c0.416-3.071-0.121-5.578-1.596-7.453c-2.936-3.733-8.678-3.789-8.733-3.789 v-0.877c0.25,0,6.157,0.053,9.338,4.091C629.093,419.93,629.692,422.675,629.24,426.012z"/></g><g><path fill="#9F9BB2" d="M597.687,433.269l-0.768-0.25c1.03-3.769,2.83-6.354,5.344-7.689c4.017-2.129,8.358-0.293,8.54-0.216 l-0.294,0.814c-0.041-0.019-4.207-1.771-7.901,0.193C600.305,427.346,598.65,429.75,597.687,433.269z"/></g><g><path fill="#9F9BB2" d="M611.817,453.819l-0.755-0.298c1.618-4.884,1.648-8.516,0.09-10.795c-1.91-2.794-5.621-2.587-5.662-2.575 l-0.05-0.876c0.168-0.004,4.186-0.245,6.354,2.926C613.524,444.732,613.532,448.642,611.817,453.819z"/></g><g><path fill="#9F9BB2" d="M641.4,414.209l-0.802-0.017c0.109-6.214-1.111-10.416-3.627-12.487c-2.698-2.221-6.025-1.136-6.059-1.125 l-0.238-0.836c0.15-0.053,3.736-1.236,6.771,1.254C640.186,403.246,641.515,407.69,641.4,414.209z"/></g></g><g><g><path fill="#2E2442" d="M71.775,328.861c0,0-24.511,2.919-22.177-7.587c2.335-10.502,8.462-25.969,15.955-23.124 c10.353,3.926,44.154,10.727,35.984,15.759C93.367,318.94,82.863,317.189,71.775,328.861z"/></g><g><path fill="#7C7496" d="M68.955,297.058c0,0,30.929,2.918,45.519-7.003c14.59-9.923,19.259,6.419,28.597,16.338 c9.335,9.924,15.172,14.008,15.756,19.26c0.583,5.254,4.669,17.508,0,30.346c-4.669,12.841-5.836,20.429-5.836,20.429 s-11.088-26.846-20.425-32.683c-9.338-5.836-12.838-12.046-12.838-12.046l-0.584-5.461h-4.146c0,0-8.032-10.646-14.198-11.452 c-6.167-0.805-21.923-14.087-34.179-15.323C54.365,298.224,68.955,297.058,68.955,297.058z"/></g><g><path fill="#9F9BB2" d="M101.729,295.401c0,0,20.083,7.383,30.295,18.081c9.4,9.847,21.55,26.272,22.426,45.239 c0.415,8.997,0.029-4.578-4.377-16.048c-4.246-11.052-11.762-20.991-16.178-25.735c-15.563-16.73-35.28-21.074-35.28-21.074 L101.729,295.401z"/></g><g><path fill="#2E2442" d="M59.036,322.781c-18.334,17.18-36.688,34.133-49.301,56.158C4.857,387.456,3.041,390.976,0,400.375v10.689 c3.137-12.704,5.893-19.161,12.266-30.646c12.152-21.898,30.796-38.654,48.843-55.565C62.49,323.559,60.414,321.49,59.036,322.781 z"/></g></g><path fill="#1F1F2A" d="M0,464.17c0-0.76,0,39.784,0,39.784h720v-37.241c0,0-34.468-0.869-56.171,11.294	c0,0-109.787,13.88-127.659,9.372s-45.957-4.412-65.105,0c-19.149,4.412-178.724-2.791-215.746,0	c-37.021,2.791-109.787,6.129-144.255,0C76.596,481.25,0,464.17,0,464.17z"/><path fill="#1F1F2A" d="M234.745,500.768c0,0-13-56-56-78c0,0,41.5,8.5,64,78"/><path fill="#1F1F2A" d="M720,357.741c-20.014-51.25-61.635-59.991-61.635-59.991c43,22,61.635,83.016,61.635,83.016V357.741z"/><path fill="#1F1F2A" d="M2.025,418.487c20.014-51.25,62.135-61.25,62.135-61.25c-43,22-61.635,83.016-61.635,83.016L2.025,418.487z"/><path fill="#1F1F2A" d="M720.001,451.073c-20.014-51.25-61.636-59.993-61.636-59.993c43,22,61.635,83.016,61.635,83.016	L720.001,451.073z"/><path fill="#1F1F2A" d="M720.001,408.734c-20.014-51.25-61.636-59.992-61.636-59.992c43,22,61.635,83.016,61.635,83.016	L720.001,408.734z"/><path fill="#1F1F2A" d="M2.35,455.993c20.014-51.25,62.135-61.25,62.135-61.25c-43,22-62.459,103.876-62.459,103.876L2.35,455.993z"/><path fill="#1F1F2A" d="M0,338.467c13.435-34.403,41.71-41.116,41.71-41.116C12.845,312.118,0,353.75,0,353.75V338.467z"/><path fill="#1F1F2A" d="M247.334,454.25c0,0,14,17,11,41.5h6C264.334,495.75,268.834,472.75,247.334,454.25z"/><path fill="#1F1F2A" d="M116.295,452.721c0,0,3.341,21.769-11.764,41.29l5.157,3.067	C109.688,497.078,125.314,479.612,116.295,452.721z"/><path fill="#1F1F2A" d="M24.269,426.821c0,0,3.341,21.769-11.764,41.29l5.157,3.067C17.662,471.179,33.288,453.713,24.269,426.821z"/><path fill="#1F1F2A" d="M607.559,452.721c0,0,3.341,21.769-11.764,41.29l5.156,3.067	C600.951,497.078,616.578,479.612,607.559,452.721z"/><path fill="#1F1F2A" d="M660.767,448.665c0,0,2.962,19.299-10.429,36.606l4.571,2.719	C654.909,487.99,668.764,472.506,660.767,448.665z"/><path fill="#1F1F2A" d="M705.661,424.91c0,0,11.574,18.736,5.291,42.606l5.945,0.811	C716.897,468.327,724.464,446.146,705.661,424.91z"/><path fill="#1F1F2A" d="M60.018,451.497c0,0-10.312,8.408-14.606,31.435l-2.735-2.824C42.676,480.107,45.941,457.698,60.018,451.497	z"/><path fill="#1F1F2A" d="M21.176,441.334c0,0-10.312,8.408-14.606,31.435l-2.735-2.824C3.834,469.944,7.099,447.535,21.176,441.334z"/><path fill="#1F1F2A" d="M79.161,501.779h8.605c0,0-0.258-59.149,62.5-78.804c14.625-4.581-25.815,4.076-43.025,20.38	C83.508,465.839,78.708,494.985,79.161,501.779z"/><path fill="#1F1F2A" d="M712.004,484.435h-8.605c0,0,0.258-59.149-62.5-78.804c-14.625-4.581,25.815,4.076,43.025,20.38	C707.656,448.494,712.456,477.641,712.004,484.435z"/><path fill="#FFF" d="M223.074,388.151c0,0.334-0.873,0.604-1.95,0.604H59.67c-1.078,0-1.951-0.27-1.951-0.604l0,0	c0-0.334,0.873-0.604,1.951-0.604h161.454C222.201,387.548,223.074,387.817,223.074,388.151L223.074,388.151z" opacity=".3"/><path fill="#1F1F2A" d="M447.201,502.791h-4.919c0,0,0.147-33.809-35.724-45.043c-8.359-2.618,14.756,2.33,24.593,11.648	C444.716,482.248,447.46,498.907,447.201,502.791z"/><path fill="#1F1F2A" d="M467.83,495.632h-3.379c0,0,0.101-23.226-24.541-30.942c-5.742-1.799,10.137,1.601,16.895,8.002	C466.122,481.52,468.008,492.964,467.83,495.632z"/><path fill="#1F1F2A" d="M193.313,499.768h-3.379c0,0,0.101-23.226-24.541-30.942c-5.742-1.799,10.137,1.601,16.895,8.002	C191.605,485.655,193.491,497.1,193.313,499.768z"/><path fill="#1F1F2A" d="M196.297,493.214h5c0,0,0.25-34.25,37.5-52C238.797,441.214,201.797,448.464,196.297,493.214z"/><path fill="#1F1F2A" d="M630.771,487.768h5c0,0,0.25-34.25,37.5-52C673.271,435.768,636.271,443.018,630.771,487.768z"/><path fill="#1F1F2A" d="M474.485,501h8.334c0,0,35.999-48,73.333-52C556.152,449,512.152,448.712,474.485,501z"/><g><g><g><path fill="#1F1F2A" d="M57.466,434.736l-0.664-1.26c-17.096,9.008-32.246,40.939-43.036,70.273h1.509 C32.791,456.179,47.723,439.871,57.466,434.736z"/></g><g><path fill="#3E3155" d="M53.697,436.251c0,0-17.231-1.75-14.387-9.915c2.846-8.164,24.511-24.928,34.877-23.812 C84.555,403.64,69.138,431.272,53.697,436.251z"/></g><g><path fill="#1F1F2A" d="M185.027,438.104c0,0-29.028-21.642-64.275-16.51c-35.248,5.133-62.538,12.776-62.538,12.776 s-1.149-7.021,5.782-15.537c6.931-8.512,4.165-12.044,4.165-12.044s2.925,7.569,2.466,9.458 c-0.459,1.888,0.469-11.316,5.354-16.125c4.886-4.812,8.312-9.406,16.574-11.111c8.261-1.701,38.972,12.348,44.724,16.036 c5.753,3.687,2.654,3.503,2.654,3.503l-10.463,6.594l16.937-5.018C146.407,410.127,167.796,417.335,185.027,438.104z"/></g></g><g><path fill="#7C7496" d="M58.958,427.869c-0.112-0.031-11.276-2.965-11.278-12.224l0.711-0.002 c0.003,8.715,10.634,11.508,10.741,11.535L58.958,427.869z"/></g><g><path fill="#7C7496" d="M66.536,415.427c-0.191-0.063-4.678-1.591-6.25-4.753c-0.621-1.252-0.699-2.588-0.231-3.972l0.674,0.231 c-0.405,1.193-0.341,2.348,0.193,3.422c1.439,2.896,5.794,4.381,5.838,4.396L66.536,415.427z"/></g></g><g><g><g><path fill="#1F1F2A" d="M707.812,388.355l-1.065-0.401c-5.757,15.298,3.403,44.775,13.155,68.858v-3.071 C704.453,414.832,704.665,396.721,707.812,388.355z"/></g><g><path fill="#3E3155" d="M706.362,391.263c0,0-11.234,8.1-13.867,1.706c-2.632-6.393,1.427-27.919,8.219-32.754 C707.507,355.378,712.954,380.089,706.362,391.263z"/></g><g><path fill="#1F1F2A" d="M700.294,366.455c-0.531-0.412-0.92-0.49-0.92-0.49S699.737,366.152,700.294,366.455z"/><path fill="#1F1F2A" d="M705.87,370.312c-0.116-0.219-0.369-0.48-0.697-0.762C705.741,370.342,706.065,370.681,705.87,370.312z"/><path fill="#1F1F2A" d="M704.745,342.383c-4.035,5.406-3.646,9.973-4.014,15.443c-0.271,4.002,3.111,9.564,4.661,11.725 c0.328,0.281,0.581,0.543,0.697,0.762c0.195,0.368-0.129,0.029-0.697-0.762c-1.215-1.043-3.573-2.386-4.879-3.096 c1.072,0.833,2.732,3.055,2.982,8.923c0.375,8.773,4.789,12.362,4.789,12.362s4.352-6.761,11.748-16.83v-36.636 C713.067,336.887,706.602,339.898,704.745,342.383z"/></g></g><g><path fill="#7C7496" d="M705.06,383.457c-0.084,0.041-8.317,4.212-13.233-1.325l0.425-0.378 c4.627,5.211,12.468,1.238,12.546,1.197L705.06,383.457z"/></g><g><path fill="#7C7496" d="M702.986,371.993c-0.147,0.062-3.642,1.531-6.261,0.475c-1.036-0.419-1.792-1.177-2.246-2.253l0.526-0.219 c0.392,0.928,1.042,1.584,1.932,1.943c2.399,0.969,5.79-0.455,5.825-0.469L702.986,371.993z"/></g></g><path fill="#FFF" d="M361.684,310.557c0,0.539-0.914,0.976-2.042,0.976H190.375c-1.127,0-2.042-0.437-2.042-0.976	l0,0c0-0.539,0.915-0.976,2.042-0.976h169.266C360.77,309.581,361.684,310.018,361.684,310.557L361.684,310.557z" opacity=".3"/><path fill="#FFF" d="M381.139,322.373c0,0.539-0.457,0.976-1.021,0.976h-84.632c-0.564,0-1.021-0.437-1.021-0.976	l0,0c0-0.539,0.457-0.976,1.021-0.976h84.632C380.682,321.397,381.139,321.834,381.139,322.373L381.139,322.373z" opacity=".3"/><path fill="#FFF" d="M382.16,338.438c0,0.539-0.325,0.976-0.728,0.976h-60.292c-0.402,0-0.728-0.437-0.728-0.976	l0,0c0-0.539,0.326-0.976,0.728-0.976h60.292C381.835,337.462,382.16,337.898,382.16,338.438L382.16,338.438z" opacity=".3"/><path fill="#FFF" d="M228.707,380.766c0,0.539-0.325,0.976-0.728,0.976h-60.292c-0.402,0-0.728-0.437-0.728-0.976	l0,0c0-0.539,0.326-0.976,0.728-0.976h60.292C228.382,379.79,228.707,380.227,228.707,380.766L228.707,380.766z" opacity=".3"/><path fill="#FFF" d="M235.545,398.745c0,0.539-0.163,0.976-0.364,0.976h-30.146c-0.201,0-0.364-0.437-0.364-0.976	l0,0c0-0.539,0.163-0.976,0.364-0.976h30.146C235.383,397.77,235.545,398.206,235.545,398.745L235.545,398.745z" opacity=".3"/><path fill="#FFF" d="M549.355,303.032c0,0.539-0.735,0.976-1.644,0.976H411.567c-0.908,0-1.644-0.437-1.644-0.976	l0,0c0-0.539,0.735-0.976,1.644-0.976h136.145C548.62,302.057,549.355,302.493,549.355,303.032L549.355,303.032z" opacity=".3"/><path fill="#FFF" d="M196.312,285.591c0,0.539-0.735,0.976-1.644,0.976H58.524c-0.908,0-1.644-0.437-1.644-0.976	l0,0c0-0.539,0.735-0.976,1.644-0.976h136.145C195.577,284.615,196.312,285.052,196.312,285.591L196.312,285.591z" opacity=".3"/><path fill="#FFF" d="M509.311,321.397c0,0.539-0.23,0.976-0.515,0.976h-42.598c-0.284,0-0.515-0.437-0.515-0.976	l0,0c0-0.539,0.23-0.976,0.515-0.976h42.598C509.08,320.422,509.311,320.858,509.311,321.397L509.311,321.397z" opacity=".3"/><path fill="#FFF" d="M210.147,299.434c0,0.539-0.23,0.976-0.515,0.976h-42.598c-0.284,0-0.515-0.437-0.515-0.976	l0,0c0-0.539,0.23-0.976,0.515-0.976h42.598C209.917,298.458,210.147,298.895,210.147,299.434L210.147,299.434z" opacity=".3"/><path fill="#FFF" d="M571.169,322.373c0,0.539-0.23,0.976-0.515,0.976h-42.598c-0.284,0-0.515-0.437-0.515-0.976	l0,0c0-0.539,0.23-0.976,0.515-0.976h42.598C570.938,321.397,571.169,321.834,571.169,322.373L571.169,322.373z" opacity=".3"/><path fill="#FFF" d="M627.855,321.397c0,0.539-0.23,0.976-0.515,0.976h-42.598c-0.284,0-0.515-0.437-0.515-0.976	l0,0c0-0.539,0.23-0.976,0.515-0.976h42.598C627.625,320.422,627.855,320.858,627.855,321.397L627.855,321.397z" opacity=".3"/><path fill="#FFF" d="M543.51,338.581c0,0.276-0.23,0.5-0.515,0.5h-42.598c-0.284,0-0.515-0.224-0.515-0.5l0,0	c0-0.275,0.23-0.499,0.515-0.499h42.598C543.279,338.082,543.51,338.306,543.51,338.581L543.51,338.581z" opacity=".3"/><path fill="#FFF" d="M494.094,335.443c0,0.276-0.23,0.5-0.515,0.5h-42.598c-0.284,0-0.515-0.224-0.515-0.5l0,0	c0-0.275,0.23-0.499,0.515-0.499h42.598C493.863,334.944,494.094,335.168,494.094,335.443L494.094,335.443z" opacity=".3"/><path fill="#FFF" d="M576.885,351.983c0,0.539-0.65,0.976-1.452,0.976H455.207c-0.803,0-1.453-0.437-1.453-0.976	l0,0c0-0.539,0.65-0.976,1.453-0.976h120.226C576.234,351.008,576.885,351.444,576.885,351.983L576.885,351.983z" opacity=".3"/><path fill="#FFF" d="M581.23,415.796c0,0.334-1.434,0.604-3.2,0.604H313.062c-1.769,0-3.203-0.27-3.203-0.604l0,0	c0-0.334,1.434-0.604,3.203-0.604H578.03C579.797,415.192,581.23,415.462,581.23,415.796L581.23,415.796z" opacity=".3"/><path fill="#FFF" d="M719.914,288.078c0,0.334-1.434,0.604-3.2,0.604H451.746c-1.77,0-3.203-0.27-3.203-0.604l0,0	c0-0.334,1.434-0.604,3.203-0.604h264.968C718.48,287.475,719.914,287.744,719.914,288.078L719.914,288.078z" opacity=".3"/><path fill="#FFF" d="M548.361,404.411c0,0.334-0.873,0.604-1.95,0.604H384.957c-1.078,0-1.951-0.27-1.951-0.604	l0,0c0-0.334,0.873-0.604,1.951-0.604h161.454C547.488,403.808,548.361,404.077,548.361,404.411L548.361,404.411z" opacity=".2"/><path fill="#FFF" d="M541.027,441.334c0,0.334-0.873,0.604-1.95,0.604H377.623c-1.078,0-1.951-0.27-1.951-0.604	l0,0c0-0.334,0.873-0.604,1.951-0.604h161.454C540.154,440.73,541.027,441,541.027,441.334L541.027,441.334z" opacity=".3"/><path fill="#FFF" d="M590.896,428.786c0,0.539-1.96,0.976-4.376,0.976H224.2c-2.419,0-4.379-0.437-4.379-0.976l0,0	c0-0.539,1.96-0.976,4.379-0.976h362.32C588.936,427.811,590.896,428.247,590.896,428.786L590.896,428.786z" opacity=".2"/><g opacity=".7"><path fill="#3E3155" d="M259.658,159.212c0,0-1.352-5.775-6.836-8.562C247.337,147.864,262.963,149.765,259.658,159.212z"/><path fill="#3E3155" d="M259.658,159.212c0,0,4.948-0.119,8.349,3.727C271.406,166.784,266.595,154.562,259.658,159.212z"/></g><g opacity=".7"><path fill="#3E3155" d="M618.37,152.673c0,0,5.848-0.997,10.544,2.975C633.611,159.621,625.792,145.958,618.37,152.673z"/><path fill="#3E3155" d="M618.37,152.673c0,0-1.812-4.606-6.676-6.247C606.83,144.786,619.962,144.475,618.37,152.673z"/></g><g opacity=".5"><path fill="#3E3155" d="M443.838,191.002c0,0,4.782-0.815,8.622,2.433C456.301,196.683,449.907,185.511,443.838,191.002z"/><path fill="#3E3155" d="M443.838,191.002c0,0-1.48-3.767-5.458-5.108S445.141,184.298,443.838,191.002z"/></g><g opacity=".6"><path fill="#3E3155" d="M388.021,89.898c0,0,4.72-0.804,8.51,2.401C400.322,95.506,394.012,84.479,388.021,89.898z"/><path fill="#3E3155" d="M388.021,89.898c0,0-1.463-3.718-5.389-5.042S389.307,83.281,388.021,89.898z"/></g><g opacity=".7"><path fill="#3E3155" d="M389.718,108.155c0,0-3.371-2.74-7.797-1.896S387.399,101.201,389.718,108.155z"/><path fill="#3E3155" d="M389.718,108.155c0,0,2.813-2.286,6.506-1.583C399.917,107.276,391.652,102.352,389.718,108.155z"/></g><g><path fill="#FFF" d="M485.948,245.32l0.034,0.021C485.98,245.326,485.973,245.316,485.948,245.32z"/><path fill="#F4F3E9" d="M516.446,184.037l-14.833,59.449c5.038,3.662,10.009,7.392,14.833,11.267V184.037z"/><path fill="#E5D8E1" d="M516.446,284.566c-6.955-5.382-14.112-10.56-21.118-15.89l-1.63,6.531 c7.953,4.521,15.588,9.617,22.748,15.296V284.566z"/><path fill="#F4F3E9" d="M493.698,275.208l-10.378,41.596h33.126v-26.3C509.286,284.825,501.651,279.729,493.698,275.208z"/><path fill="#F4F3E9" d="M516.446,265.216c-5.677-4.103-11.531-8.027-17.235-12.103l-3.883,15.563 c7.006,5.33,14.163,10.508,21.118,15.89V265.216z"/><path fill="#E5D8E1" d="M516.446,254.752c-4.824-3.875-9.795-7.604-14.833-11.267l-2.402,9.628c5.704,4.075,11.559,8,17.235,12.103 V254.752z"/><path fill="#F4F3E9" d="M516.446,322.851c-0.39,1.255,40.75,0,40.75,0s-34.44-111.209-39.173-126.983 C513.291,180.093,531.957,272.898,516.446,322.851z"/><path fill="#ACB4BF" d="M489.104,326.662v3.55l53.107-0.789c0,0-0.658-1.183-3.812-2.761 C535.244,325.085,489.104,326.662,489.104,326.662z"/><path fill="#C6C5BE" d="M479.64,329.043v5.901h73.613c0,0,9.464-2.104,11.567-4.732S479.64,329.043,479.64,329.043z"/></g><path fill="#E5E4E1" d="M544.999,334.944h10.938c0,0,1.259-0.956,0-1.562c-0.563-0.271-2.938,0-3.062,0.781	s-0.854-0.101-0.854-0.101s-1.116-1.499-1.771-0.881C549.355,334.026,546.999,334.882,544.999,334.944z"/><path fill="#E5E4E1" d="M475.999,334.944h10.938c0,0,1.259-0.956,0-1.562c-0.563-0.271-2.938,0-3.062,0.781	s-0.854-0.101-0.854-0.101s-1.116-1.499-1.771-0.881C480.355,334.026,477.999,334.882,475.999,334.944z"/><path fill="#E5E4E1" d="M517.437,334.944h18.078c0,0,2.08-0.647,0-1.058c-0.931-0.184-4.854,0-5.062,0.529	c-0.207,0.528-1.412-0.068-1.412-0.068s-1.845-1.015-2.926-0.596C524.636,334.323,520.741,334.902,517.437,334.944z"/></svg>