<?xml version="1.0" encoding="utf-8"?>
<svg id="master-artboard" viewBox="0 0 720 503.999" version="1.1" xmlns="http://www.w3.org/2000/svg" x="0px" y="0px" width="720px" height="503.9989929199219px" enable-background="new 0 0 720 503.999">
<symbol id="New_Symbol" viewBox="-0.763 -0.763 1.526 1.525">
	<path fill="#FFFFFF" d="M0.763,0c0-0.421-0.342-0.762-0.763-0.762S-0.763-0.421-0.763,0S-0.421,0.763,0,0.763S0.763,0.42,0.763,0z"/>
</symbol>
<path d="M 0 0 H 720 V 267.044006 H 0 V 0 Z" fill="#DFEAE4"/>
<path fill="#E4AB90" d="M388.64,234.156c0,0,58.849-2.385,83.419-13.044c13.609-5.904,75.551,13.53,101.66,13.263&#10;&#9;s50.512-11.695,60.07-10.896s34.059,8.292,44.723,9.067c9.566,0.696,41.488-3.434,41.488-3.434l-0.021,19.788l-331.339-2.904&#10;&#9;V234.156z"/>
<path d="M 253.078995 205.697006 A 66.589996 66.589996 0 0 1 186.488998 272.287003 A 66.589996 66.589996 0 0 1 119.899002 205.697006 A 66.589996 66.589996 0 0 1 186.488998 139.10701 A 66.589996 66.589996 0 0 1 253.078995 205.697006 Z" fill="#FCF7F2"/>
<g>
	<path fill="#E4AB90" d="M153.149,260.252c-2.711-3.432,7.001-6.062,8.967-6.471c4.655-0.973,16.561-2.131,40.649-3.197&#10;&#9;&#9;c24.087-1.065,26.432-7.104,23.589-7.887c-2.843-0.782-18.584-7.34-21.417-8.41c-2.833-1.068-12.043-4.011-12.043-4.011&#10;&#9;&#9;c4.174,2.658,1.882,6.583-3.464,8.576c-5.349,1.995-30.966,7.887-30.966,7.887c-12.217,3.763-15.5,8.14-10.635,13.044&#10;&#9;&#9;c0.148,0.15,0.399,0.408,0.729,0.75c1.771,0.168,3.545,0.324,5.322,0.467C153.574,260.727,153.327,260.473,153.149,260.252z"/>
	<path fill="#FBE6C8" d="M147.481,253.205c4.352-3.47,14.473-7.478,22.398-9.275c7.928-1.797,22.815-5.236,24.444-7.663&#10;&#9;&#9;c1.627-2.427,2.128-6.676-5.164-6.387c0,0-15.312,8.169-25.892,11.302c-4.458,1.319-36.695,8.539-54.444,11.515&#10;&#9;&#9;c13.515,4.795,27.689,6.786,42.091,8.051C147.525,257.842,145.339,254.914,147.481,253.205z"/>
</g>
<path fill="#F8D4B0" d="M719.989,238.651c0,0-82.757,4.364-108.105-0.351c-9.564-1.779-30.255-8.248-35.011-8.467&#10;&#9;c-12.707-0.584-23.438,4.789-38.605,6.87c-6.986,0.958-41.514,1.677-87.796-1.581c-6.833-0.481-23.022-4.09-29.708-5.289&#10;&#9;c-9-1.614-21.5-3.492-31.86,0c-36.806,12.406-58.638-0.215-58.638-0.215l-59.086,11.99c0,0-55.64,6.891-32.034,22.322H0.264V503.84&#10;&#9;L720,503.999L719.989,238.651z"/>
<path fill="#E4AB90" d="M616.976,341.113c-78.093-6.189-169.519-7.609-240.306-24.9c-34.75-8.488-82.906-32.248-88.42-34.463&#10;&#9;c-20.292-8.15-45.196-20.078-48.911-24.414s8.824-8.266,11.368-8.901c6.024-1.506,21.5-3.625,52.875-6.25s34.125-10.625,30.375-11.5&#10;&#9;s-24.625-8.625-28.375-9.875s-15.918-4.619-15.918-4.619c5.582,3.256,2.793,8.494-4.082,11.369s-40,11.875-40,11.875&#10;&#9;c-15.747,5.536-19.807,11.415-13.207,17.565c3.68,3.43,52.481,50.761,28.625,53.365c-74.659,8.152-96.395-1.501-96.395,28.561&#10;&#9;c0,46.07,100.16,38.127,79.206,34.269c-31.524-5.805-35.396-25.393-5.811-30.062C339.092,327.173,720,362,720,362v-23.009&#10;&#9;C719.937,339.823,717.005,349.041,616.976,341.113z"/>
<path fill="#E4AB90" d="M0.001,425.434L0,438.898c0,0,21.842-17.852,73-21.234c58.919-3.896,152.577,10.335,236.667,22.234&#10;&#9;c35.955,5.088,142.702,12.954,124.666,20.746c-8.788,3.797-50.745,8.064-93.667,13.418c-45.167,5.635-101.078,12.674-111.333,29.937&#10;&#9;h55c0,0,162.965-5.195,163.307-47.028c0.189-23.159-211.974-47.404-272.641-50.688S5.002,402.533,0.001,425.434z"/>
<path fill="#FBE6C8" d="M236,372.049c-53.998-6.951-66.283-26.118-61.7-42.614c4.035-14.523,28.002-10.49,55.867-7.595&#10;&#9;c38.5,4,67.416-1.905,69.416-15.905s-40.956-34.323-48.5-38.5c-6.96-3.854-25-14.25-19.5-19s18.5-10.5,28.75-13.25&#10;&#9;s29.5-8,31.5-11.25s2.436-8.819-7.064-8.069c0,0-19.561,11.444-33.204,16.072c-7.212,2.446-70.981,19.247-83.481,19.997&#10;&#9;c-11.025,0.661-155,4.5-160.5,4.5s-7.582,0-7.582,0V327v2.435v100.541c54-42.024,409.83,9.895,435,22.928&#10;&#9;c22.235,11.514-33.001,20.281-115,29.944c-63.542,7.488-72,21.151-72,21.151h472v-56.921C494,431.156,290,379,236,372.049z"/>
<path opacity="0.6" fill="#FFFFFF" d="M619.347,58.073C619.323,57.601,619.293,57.677,619.347,58.073L619.347,58.073z"/>
<path opacity="0.6" fill="#FCF7F2" d="M675.558,25.515c-12,1.75-17.5,5-24.5,10s-8.434-5.63-16.25-5.25&#10;&#9;c-6.557,0.319-4.5,9.75-12,9.5c-7.001-0.233-5.25-5.25-11.943-5.319c-5.385-0.055-7.5,6-6.5,8s-7.5-8-15-7.5s-9,8.5-4.5,10.5&#10;&#9;s-17-3.5-22.5,0s2.461,15.042,23.5,13.5c11.726-0.859,10.709,2.849,13,4.5c10.495,7.562,20.5,0,20.5-4.5&#10;&#9;c0-0.396-0.008-0.678-0.018-0.873c-0.054-0.396-0.023-0.472,0,0c0.175,1.293,1.257,5.989,6.518,6.148c9.693,0.293,8-6.775,8-6.775&#10;&#9;s6.362,5.813,10.193,7.069c7.453,2.443,62.416,14.083,60.807-4.069c-0.373-4.21,5.806-4.676,13.136-3.854V26.803&#10;&#9;C706.714,26.57,687.755,23.736,675.558,25.515z"/>
<path opacity="0.6" fill="#FCF7F2" d="M0,42.031v77.362c0,0,4.999,13.437,17.805,4.737c5.452-3.704,14.279-6.762,18.194-4.3&#10;&#9;c11.5,7.231,35.471,3.511,38.432-2.805c2.961-6.315,13.927-0.142,18.568,1.805c15.5,6.5,32.135-3.383,24.363-9.699&#10;&#9;c-7.772-6.315,9.623-3.158,10.733-0.395c1.11,2.763,11.473,3.552,13.323,0.395c1.851-3.158,7.992-0.528,8.882,1.184&#10;&#9;c1.698,3.265,17.777,2.765,17.765-5.131c-0.006-4.357-8.118-7.619-12.56-6.829c-4.441,0.789-1.257-5.025-7.056-5.802&#10;&#9;c-4.833-0.647-3.331,6.71-8.512,6.315c-5.182-0.395-0.689-7.789-8.439-8.289c-5.961-0.385-6.735,4.342-8.215,5.526&#10;&#9;c-1.48,1.185,1.477-8.543-6.535-8.276c-7.5,0.25-5.309,5.908-6.049,7.881c0,0-16.201-26.881-31.458-17.762&#10;&#9;c-6.646,3.973-0.243-7.242-8.142-14.604c-8.601-8.016-23.687-9.473-28.498-0.395c-4.812,9.078-7.032-12.236-17.765-10.657&#10;&#9;s-11.473-0.79-12.954-3.552C10.403,45.978,9.211,38.083,0,42.031z"/>
<path opacity="0.6" fill="#FCF7F2" d="M719.673,123.432v77.362c0,0-6.688,13.437-23.823,4.737c-7.295-3.704-19.105-6.762-24.345-4.3&#10;&#9;c-15.387,7.231-47.46,3.511-51.422-2.805c-3.962-6.315-18.635-0.142-24.845,1.805c-20.739,6.5-42.999-3.383-32.599-9.699&#10;&#9;c10.399-6.315-12.875-3.158-14.362-0.395c-1.484,2.763-15.351,3.552-17.825,0.395c-2.478-3.158-10.693-0.528-11.886,1.184&#10;&#9;c-2.272,3.265-23.786,2.765-23.771-5.131c0.009-4.357,10.863-7.619,16.807-6.829c5.942,0.789,1.682-5.025,9.439-5.802&#10;&#9;c6.467-0.647,4.458,6.71,11.39,6.315c6.934-0.395,0.923-7.789,11.292-8.289c7.978-0.385,9.013,4.342,10.993,5.526&#10;&#9;c1.981,1.185-1.976-8.543,8.743-8.276c10.035,0.25,7.103,5.908,8.094,7.881c0,0,21.677-26.881,42.091-17.762&#10;&#9;c8.894,3.973,0.325-7.242,10.896-14.604c11.508-8.016,31.693-9.473,38.131-0.395c6.437,9.078,9.408-12.236,23.769-10.657&#10;&#9;c14.361,1.579,15.352-0.79,17.333-3.552C705.753,127.378,707.347,119.484,719.673,123.432z"/>
<path fill="#FCF7F2" d="M235.009,127.097c2.954-1.476,4.021-2.881,3.282-6.257c-0.183-0.837-0.633-2.637-0.21-5.063&#10;&#9;c0.113-0.649-8.018,3.27-7.304,7.701c0.245,1.524-9.362,2.109-7.799,9.389c0.038,0.175,0.078,0.33,0.117,0.494&#10;&#9;c-9.989,1.381-9.855-0.52-9.855-0.52c0.632,2.11,10.076,5.803,13.502,5.563c3.467-0.241,9.705-2.531,9.705-2.531&#10;&#9;s-1.6-1.851-5.577-3.484C231.317,131.234,232.655,128.275,235.009,127.097z"/>
<path fill="#FCF7F2" d="M272.674,163.673c2.659-1.329,3.62-2.594,2.955-5.632c-0.165-0.754-0.57-2.374-0.189-4.558&#10;&#9;c0.102-0.584-7.217,2.943-6.575,6.932c0.221,1.372-8.427,1.898-7.021,8.451c0.034,0.158,0.07,0.297,0.105,0.444&#10;&#9;c-8.991,1.244-8.871-0.468-8.871-0.468c0.569,1.899,9.07,5.223,12.153,5.008c3.121-0.218,8.736-2.279,8.736-2.279&#10;&#9;s-1.44-1.666-5.02-3.136C269.352,167.396,270.556,164.733,272.674,163.673z"/>
<path fill="#FCF7F2" d="M285.088,127.084c1.923-0.961,2.62-1.876,2.137-4.075c-0.118-0.546-0.412-1.719-0.137-3.299&#10;&#9;c0.075-0.423-5.222,2.13-4.757,5.017c0.159,0.993-6.099,1.374-5.082,6.116c0.025,0.115,0.051,0.214,0.077,0.322&#10;&#9;c-6.507,0.898-6.42-0.339-6.42-0.339c0.413,1.375,6.563,3.78,8.796,3.623c2.259-0.156,6.321-1.648,6.321-1.648&#10;&#9;s-1.042-1.207-3.632-2.27C282.684,129.78,283.555,127.852,285.088,127.084z"/>
<g>
	<path opacity="0.6" fill="#E2BFA1" d="M81.361,386.116c-0.65-1.979-22.12-0.574-26.295-0.782s-3.414,11.095,4.455,11.281&#10;&#9;&#9;C63.941,396.72,83.614,392.976,81.361,386.116z"/>
	<g>
		<path fill="#457480" d="M71.251,361.304c1.812,0.871,3.689,1.602,5.667,2.114v25.355c-1.793,0.719-3.717,1.197-5.667,1.623&#10;&#9;&#9;&#9;V361.304z"/>
		<path fill="#2A4252" d="M68.361,386.603v-26.831c0.94,0.559,1.908,1.06,2.89,1.532v29.093c-0.472,0.104-0.945,0.204-1.419,0.304&#10;&#9;&#9;&#9;C68.918,389.581,68.361,388.16,68.361,386.603z"/>
		<path fill="#5C99A3" d="M76.918,363.418c1.432,0.371,2.906,0.646,4.443,0.782v21.916c-1.327,1.17-2.832,2.012-4.443,2.657V363.418&#10;&#9;&#9;&#9;z"/>
		<path fill="#7AD3D6" d="M81.361,260.603V364.2c-1.537-0.136-3.012-0.411-4.443-0.782V254.44&#10;&#9;&#9;&#9;C79.499,255.301,81.361,257.732,81.361,260.603z"/>
		<path fill="#5C99A3" d="M74.861,254.103c0.72,0,1.41,0.122,2.057,0.338v108.978c-1.978-0.513-3.855-1.243-5.667-2.114V255.198&#10;&#9;&#9;&#9;C72.284,254.507,73.525,254.103,74.861,254.103z"/>
		<path fill="#365864" d="M68.361,260.603c0-2.254,1.147-4.238,2.89-5.404v106.105c-0.981-0.473-1.949-0.974-2.89-1.532V260.603z"/>
		<g>
			<path fill="#457480" d="M59.521,340.573c1.522-1.356,2.836-2.96,3.896-4.828c1.993,0.189,3.771,0.2,4.944,0.175v5.238&#10;&#9;&#9;&#9;&#9;C66.482,341.19,63.024,341.145,59.521,340.573z"/>
			<path fill="#5C99A3" d="M63.417,335.745c0.891-1.568,1.619-3.303,2.112-5.259c1.503,0.032,2.634-0.051,2.832-0.051v5.484&#10;&#9;&#9;&#9;&#9;C67.188,335.945,65.41,335.935,63.417,335.745z"/>
			<path fill="#2A4252" d="M68.361,341.158v3.944c0,0-4.928,0.469-12.907-1.676c1.477-0.79,2.831-1.751,4.067-2.854&#10;&#9;&#9;&#9;&#9;C63.024,341.145,66.482,341.19,68.361,341.158z"/>
			<path fill="#5C99A3" d="M52.168,331.359c2.447,2.92,7.266,4.008,11.249,4.386c-1.06,1.868-2.373,3.472-3.896,4.828&#10;&#9;&#9;&#9;&#9;c-2.915-0.476-5.857-1.314-7.937-2.782c-5.666-4-7.126-9.349-7.292-12.682c-0.127-2.543-0.073-16.694-0.041-23.265&#10;&#9;&#9;&#9;&#9;c0.69-0.187,1.459-0.308,2.354-0.306c0.748,0.002,1.4,0.08,1.978,0.211c0.001,2.966,0.001,8.092,0.001,11.081&#10;&#9;&#9;&#9;&#9;C48.585,317.219,47.559,325.859,52.168,331.359z"/>
			<path fill="#7AD3D6" d="M52.168,331.359c-4.609-5.5-3.583-14.141-3.583-18.528c0-2.989,0-8.115-0.001-11.081&#10;&#9;&#9;&#9;&#9;c4.258,0.961,4.193,4.936,4.193,4.936s-0.083,11.917,0.251,14.417s1.438,5.541,4.938,7.708c2.112,1.308,5.274,1.627,7.563,1.676&#10;&#9;&#9;&#9;&#9;c-0.493,1.956-1.222,3.69-2.112,5.259C59.434,335.367,54.615,334.279,52.168,331.359z"/>
			<path fill="#365864" d="M40.525,306.248c0-1.916,1.194-3.717,3.727-4.403c-0.032,6.57-0.086,20.722,0.041,23.265&#10;&#9;&#9;&#9;&#9;c0.166,3.333,1.626,8.682,7.292,12.682c2.079,1.468,5.021,2.307,7.937,2.782c-1.236,1.103-2.591,2.063-4.067,2.854&#10;&#9;&#9;&#9;&#9;c-0.198-0.053-0.391-0.101-0.593-0.157c-8.333-2.333-14.423-10.584-14.333-17C40.58,322.601,40.525,309.25,40.525,306.248z"/>
		</g>
		<g>
			<path fill="#457480" d="M89.417,311.04c-1.388-1.236-2.585-2.697-3.55-4.399c-1.816,0.173-3.437,0.183-4.506,0.159v4.773&#10;&#9;&#9;&#9;&#9;C83.074,311.603,86.225,311.561,89.417,311.04z"/>
			<path fill="#2A4252" d="M81.361,311.573v3.594c0,0,4.49,0.428,11.762-1.526c-1.346-0.721-2.58-1.596-3.706-2.601&#10;&#9;&#9;&#9;&#9;C86.225,311.561,83.074,311.603,81.361,311.573z"/>
			<path fill="#5C99A3" d="M96.117,302.645c-2.23,2.66-6.62,3.651-10.25,3.996c0.965,1.702,2.162,3.163,3.55,4.399&#10;&#9;&#9;&#9;&#9;c2.655-0.434,5.337-1.197,7.231-2.535c5.162-3.645,6.493-8.519,6.645-11.556c0.115-2.316,0.066-15.211,0.037-21.198&#10;&#9;&#9;&#9;&#9;c-0.629-0.17-1.329-0.28-2.146-0.278c-0.682,0.002-1.276,0.073-1.802,0.192c-0.001,2.702-0.001,7.373-0.001,10.097&#10;&#9;&#9;&#9;&#9;C99.382,289.76,100.317,297.633,96.117,302.645z"/>
			<path fill="#7AD3D6" d="M96.117,302.645c4.2-5.012,3.265-12.885,3.265-16.883c0-2.724,0-7.395,0.001-10.097&#10;&#9;&#9;&#9;&#9;c-3.88,0.875-3.821,4.497-3.821,4.497s0.076,10.858-0.229,13.137c-0.305,2.277-1.31,5.049-4.499,7.023&#10;&#9;&#9;&#9;&#9;c-1.925,1.191-4.806,1.482-6.892,1.526c0.449,1.783,1.113,3.363,1.925,4.792C89.497,306.296,93.887,305.305,96.117,302.645z"/>
			<path fill="#365864" d="M106.726,279.764c0-1.746-1.088-3.387-3.396-4.013c0.029,5.987,0.078,18.882-0.037,21.198&#10;&#9;&#9;&#9;&#9;c-0.151,3.037-1.482,7.911-6.645,11.556c-1.895,1.338-4.576,2.102-7.231,2.535c1.126,1.005,2.36,1.88,3.706,2.601&#10;&#9;&#9;&#9;&#9;c0.181-0.049,0.355-0.092,0.54-0.144c7.593-2.126,13.142-9.645,13.06-15.49C106.676,294.664,106.726,282.499,106.726,279.764z"/>
			<path fill="#5C99A3" d="M85.867,306.641c-0.812-1.429-0.784-3.059-0.388-4.869c-1.446,0.099-3.937,0.031-4.118,0.031v4.997&#10;&#9;&#9;&#9;&#9;C82.431,306.823,84.051,306.813,85.867,306.641z"/>
		</g>
	</g>
</g>
<path fill="#F8D4B0" d="M488.202,301.383c19.5,0.932,27.604,0.15,36.5-1.103c8.896-1.252,11.083-3.085,31.32-1.876&#10;&#9;c19.356,1.156,25.329,11.988,47.338,10.969c0,0-47.158,3.7-77.408,0.971S488.202,301.383,488.202,301.383z"/>
<g>
	<path d="M 634.1209716796875 478.55999755859375 L 549.0919799804688 478.55999755859375 L 448.0169982910156 480.93798828125 L 580.6199951171875 487.2120056152344 L 616.9240112304688 487.2120056152344 L 719.833984375 480.52099609375 L 719.833984375 478.55999755859375 Z" opacity="0.6" fill="#E2BFA1"/>
	<g>
		<path fill="#2A4252" d="M628.862,368.114l-10.328,36.058l25.871-36.058c0,0,3.129-8.17,7.074-18.764&#10;&#9;&#9;&#9;c-4.652,1.304-9.304,2.198-13.956,3.906L628.862,368.114z"/>
		<path fill="#355563" d="M667.307,302.171l-29.783,51.086c4.652-1.708,9.304-2.603,13.956-3.906&#10;&#9;&#9;&#9;C658.446,330.649,667.96,304.39,667.307,302.171z"/>
		<g>
			<path fill="#1B2C34" d="M517.865,449.762l35.36,12.508l-34.412-28.021c0,0-7.965-3.621-18.297-8.206&#10;&#9;&#9;&#9;&#9;c1.018,4.722,1.625,9.42,3.047,14.168L517.865,449.762z"/>
			<path fill="#1C3944" d="M454.39,407.366l49.174,32.844c-1.422-4.748-2.029-9.446-3.047-14.168&#10;&#9;&#9;&#9;&#9;C482.273,417.947,456.644,406.851,454.39,407.366z"/>
		</g>
		<g>
			<path d="M 557.6939697265625 277.63299560546875 L 557.7750244140625 278.64898681640625 L 563.7659912109375 353.3760070800781 L 570.3140258789062 346.4830017089844 Z" fill="#1C3944"/>
			<path fill="#142C34" d="M570.314,346.483l-6.549,6.893l0.54,6.729c0,0,13.984,36.613,16.365,43.928&#10;&#9;&#9;&#9;&#9;c-1.818-8.435-10.139-56.36-10.139-56.36L570.314,346.483z"/>
			<path fill="#1D434D" d="M580.529,356.651l-4.614-16.062l-5.703,6.003l0.111,0.614c0,0,8.922,49.195,10.156,57.967&#10;&#9;&#9;&#9;&#9;C580.164,397.247,580.529,356.651,580.529,356.651z"/>
			<path d="M 557.9639892578125 278.11199951171875 L 557.6820068359375 277.1310119628906 L 570.2119750976562 346.5920104980469 L 575.9149780273438 340.5889892578125 Z" fill="#285563"/>
		</g>
		<g>
			<path fill="#345662" d="M590.12,339.862l-1.977-65.709c0,0-1.273-2.045-1.474,3.886c-0.091,2.669-2.564,27.029-4.545,53.318&#10;&#9;&#9;&#9;&#9;c-1.06,14.055-2.039,28.634-2.806,40.59c3.395,9.996,7.474,19.645,10.801,29.52V339.862z"/>
			<path fill="#1B3C47" d="M579.319,371.947c-0.987,15.382-1.621,26.422-1.621,26.422l12.422,43.855v-40.758&#10;&#9;&#9;&#9;&#9;C586.793,391.592,582.714,381.943,579.319,371.947z"/>
			<path fill="#59949B" d="M596.849,369.953c-0.154-6.677-3.682-53.138-3.682-53.138s-3.681-35.965-3.987-38.955&#10;&#9;&#9;&#9;&#9;c-0.307-2.991-1.036-3.707-1.036-3.707l1.343,59.55l0.042,58.737l0.118,9.942c2.479-3.497,5.08-6.927,7.714-10.47&#10;&#9;&#9;&#9;&#9;C597.138,382.372,596.916,372.933,596.849,369.953z"/>
			<path fill="#1E3E4E" d="M589.646,402.383l0.474,39.842l7.799-26.479c0,0-0.281-11.995-0.559-23.833&#10;&#9;&#9;&#9;&#9;C594.727,395.456,592.126,398.886,589.646,402.383z"/>
			<path fill="#7AD3D6" d="M589.22,321.878c0,0-0.324,16.841-0.465,18.879s0.133,25.751,0.593,29.841&#10;&#9;&#9;&#9;&#9;c0.459,4.089,0.364-26.302,0.507-29.085C589.999,338.729,589.22,321.878,589.22,321.878z"/>
		</g>
		<g>
			<path fill="#2A4252" d="M545.999,366.055l-27.88-62.185c-1.856,0.986,20.2,68.202,21.899,73.938&#10;&#9;&#9;&#9;&#9;c0.85,2.86,6.281,16.708,11.514,29.873l11.88,2.04L545.999,366.055z"/>
			<path fill="#2A4252" d="M585.501,465.113l-22.089-55.392l-11.88-2.04c5.26,13.234,10.319,25.78,10.319,25.78L585.501,465.113z"/>
			<path fill="#355563" d="M547.555,357.211c-8.166-15.276-26.44-51.317-29.535-53.58c-1.854-1.358,23.445,58.231,44,106.161&#10;&#9;&#9;&#9;&#9;l7.657-5.413C561.52,386.31,551.864,365.274,547.555,357.211z"/>
			<path fill="#355563" d="M583.078,434.345c0,0-7.614-17.145-14.914-33.314l-6.145,8.762&#10;&#9;&#9;&#9;&#9;c13.722,31.997,25.327,58.796,25.327,58.796L583.078,434.345z"/>
		</g>
		<g>
			<path fill="#365864" d="M538.392,380.46l-38.403-56.298c-1.653,1.299,31.904,63.575,34.59,68.922&#10;&#9;&#9;&#9;&#9;c1.34,2.666,9.126,15.339,16.598,27.376l12.054-0.085L538.392,380.46z"/>
			<path fill="#2A4252" d="M594.735,471.006l-31.506-50.631l-12.054,0.085c7.511,12.101,14.702,23.558,14.702,23.558&#10;&#9;&#9;&#9;&#9;L594.735,471.006z"/>
			<path fill="#457480" d="M538.365,371.481c-10.731-13.6-35.072-45.854-38.517-47.537c-2.065-1.01,33.342,53.188,62.022,96.745&#10;&#9;&#9;&#9;&#9;l6.583-6.679C557.239,397.661,544.028,378.658,538.365,371.481z"/>
			<path fill="#355563" d="M586.928,441.146c0,0-10.518-15.534-20.554-30.164l-4.503,9.708&#10;&#9;&#9;&#9;&#9;c19.146,29.076,35.294,53.411,35.294,53.411L586.928,441.146z"/>
		</g>
		<path d="M 705.166015625 323.39801025390625 L 679.1950073242188 347.93798828125 L 646.885986328125 381.8840026855469 L 627.0499877929688 413.78399658203125 L 658.3369750976562 389.0409851074219 Z" fill="#1C3945"/>
		<g>
			<path fill="#5C99A3" d="M696.644,361.369c-14.318,9.92-28.52,20.544-28.834,20.858c-0.613,0.613-36.809,28.22-36.809,28.22&#10;&#9;&#9;&#9;&#9;l-7.187,7.864l-1.515,7.94l42.033-34.004l55.501-45.617v-0.753C714.717,349.19,705.647,355.132,696.644,361.369z"/>
			<path fill="#69B2BA" d="M622.3,426.252l-2.009,15.043c0,0,74.308-68.883,77.784-71.95c2.524-2.228,15.074-15.02,21.759-21.859&#10;&#9;&#9;&#9;&#9;v-0.877L622.3,426.252z"/>
		</g>
		<g>
			<path d="M 539.8920288085938 304.7170104980469 L 538.47802734375 305.70599365234375 L 540.2269897460938 307.33599853515625 Z" fill="#5C99A3"/>
			<path d="M 540.4219970703125 307.9949951171875 L 539.0089721679688 308.9840087890625 L 540.7579956054688 310.614990234375 Z" fill="#5C99A3"/>
			<path d="M 541.1329956054688 311.5459899902344 L 539.7260131835938 312.5450134277344 L 541.4869995117188 314.1619873046875 Z" fill="#5C99A3"/>
			<path d="M 541.698974609375 314.9490051269531 L 540.3289794921875 315.9989929199219 L 542.14697265625 317.552001953125 Z" fill="#5C99A3"/>
			<path d="M 542.3289794921875 318.2929992675781 L 540.9650268554688 319.3500061035156 L 542.7919921875 320.8940124511719 Z" fill="#5C99A3"/>
			<path d="M 542.93798828125 321.64599609375 L 541.5549926757812 322.67498779296875 L 543.3519897460938 324.25299072265625 Z" fill="#5C99A3"/>
			<path d="M 543.5079956054688 325.6210021972656 L 542.1859741210938 326.7279968261719 L 544.0700073242188 328.20098876953125 Z" fill="#5C99A3"/>
			<path d="M 544.3270263671875 329.4219970703125 L 542.97900390625 330.49700927734375 L 544.8270263671875 332.0150146484375 Z" fill="#5C99A3"/>
			<path d="M 545.0170288085938 333.4219970703125 L 543.677978515625 334.5119934082031 L 545.5419921875 336.010986328125 Z" fill="#5C99A3"/>
			<g>
				<path d="M 587 454.04901123046875 L 596.7999877929688 456.05999755859375 L 568.4169921875 366.23699951171875 L 536.2440185546875 285.8869934082031 L 563.4340209960938 375.9800109863281 Z" fill="#69B2BA"/>
				<path fill="#5C99A3" d="M581.09,453.481l5.91,0.567l-50.771-168.184c0,0,11.948,70.605,17.67,90.561&#10;&#9;&#9;&#9;&#9;&#9;C559.62,396.381,571.08,434.531,581.09,453.481z"/>
				<path d="M 545.6820068359375 336.83599853515625 L 544.2620239257812 337.8160095214844 L 546.0009765625 339.4570007324219 Z" fill="#5C99A3"/>
				<path d="M 546.2589721679688 340.7650146484375 L 544.9600219726562 341.8999938964844 L 546.8759765625 343.3320007324219 Z" fill="#5C99A3"/>
				<path d="M 547.0280151367188 344.46099853515625 L 545.7009887695312 345.56298828125 L 547.5780029296875 347.0450134277344 Z" fill="#5C99A3"/>
				<path d="M 547.7650146484375 348.156005859375 L 546.43798828125 349.260009765625 L 548.3189697265625 350.73699951171875 Z" fill="#5C99A3"/>
			</g>
			<g>
				<path d="M 548.3469848632812 351.9320068359375 L 547.0419921875 353.06201171875 L 548.9520263671875 354.50299072265625 Z" fill="#5C99A3"/>
				<path d="M 549.0910034179688 355.45599365234375 L 547.802001953125 356.60198974609375 L 549.72802734375 358.0190124511719 Z" fill="#5C99A3"/>
				<path d="M 549.781982421875 358.6289978027344 L 548.4630126953125 359.74200439453125 L 550.35302734375 361.2070007324219 Z" fill="#5C99A3"/>
				<path d="M 550.4429931640625 362.01300048828125 L 549.2160034179688 363.22698974609375 L 551.2139892578125 364.53900146484375 Z" fill="#5C99A3"/>
			</g>
			<path d="M 551.7559814453125 366.01300048828125 L 550.43798828125 367.1260070800781 L 552.3270263671875 368.5920104980469 Z" fill="#5C99A3"/>
			<path d="M 552.5130004882812 369.5270080566406 L 551.22900390625 370.6820068359375 L 553.1640014648438 372.0870056152344 Z" fill="#5C99A3"/>
			<path d="M 553.3300170898438 373.23199462890625 L 552.0430297851562 374.3810119628906 L 553.9730224609375 375.7929992675781 Z" fill="#5C99A3"/>
			<path d="M 554.1420288085938 376.5480041503906 L 552.89697265625 377.7439880371094 L 554.8790283203125 379.0840148925781 Z" fill="#5C99A3"/>
			<path d="M 555.1199951171875 379.718994140625 L 553.8939819335938 380.93499755859375 L 555.89599609375 382.2439880371094 Z" fill="#5C99A3"/>
			<path d="M 556.02099609375 382.9389953613281 L 554.822998046875 384.1820068359375 L 556.8519897460938 385.4460144042969 Z" fill="#5C99A3"/>
			<path d="M 556.9420166015625 385.927001953125 L 555.7000122070312 387.1239929199219 L 557.6820068359375 388.4630126953125 Z" fill="#5C99A3"/>
			<path d="M 558.0139770507812 389.3280029296875 L 556.7899780273438 390.54400634765625 L 558.7919921875 391.8529968261719 Z" fill="#5C99A3"/>
			<path d="M 558.9550170898438 392.54998779296875 L 557.7369995117188 393.77099609375 L 559.7470092773438 395.0679931640625 Z" fill="#5C99A3"/>
			<path d="M 559.9210205078125 395.6940002441406 L 558.7050170898438 396.91900634765625 L 560.7160034179688 398.2130126953125 Z" fill="#5C99A3"/>
			<path d="M 560.8989868164062 399.0159912109375 L 559.6610107421875 400.218994140625 L 561.6489868164062 401.5480041503906 Z" fill="#5C99A3"/>
			<path d="M 561.7999877929688 402.0820007324219 L 560.6389770507812 403.3590087890625 L 562.7039794921875 404.5639953613281 Z" fill="#5C99A3"/>
			<path d="M 562.6799926757812 405.06500244140625 L 561.4749755859375 406.29901123046875 L 563.4949951171875 407.5769958496094 Z" fill="#5C99A3"/>
			<path d="M 563.7239990234375 408.06201171875 L 562.5180053710938 409.2969970703125 L 564.5380249023438 410.57501220703125 Z" fill="#5C99A3"/>
			<path d="M 564.8599853515625 411.1969909667969 L 563.656005859375 412.4330139160156 L 565.6790161132812 413.7080078125 Z" fill="#5C99A3"/>
			<path d="M 565.7119750976562 414.02899169921875 L 564.5670166015625 415.3210144042969 L 566.6489868164062 416.49798583984375 Z" fill="#5C99A3"/>
			<path d="M 566.8569946289062 417.05499267578125 L 565.6489868164062 418.2869873046875 L 567.6669921875 419.5679931640625 Z" fill="#5C99A3"/>
			<path d="M 567.6950073242188 419.8179931640625 L 566.52001953125 421.08099365234375 L 568.5709838867188 422.3110046386719 Z" fill="#5C99A3"/>
			<path d="M 568.5750122070312 422.5669860839844 L 567.4660034179688 423.8890075683594 L 569.5780029296875 425.010986328125 Z" fill="#5C99A3"/>
			<path d="M 569.6019897460938 425.30999755859375 L 568.4829711914062 426.62200927734375 L 570.5869750976562 427.760009765625 Z" fill="#5C99A3"/>
			<path d="M 570.6500244140625 428.25 L 569.47802734375 429.5159912109375 L 571.5330200195312 430.7380065917969 Z" fill="#5C99A3"/>
			<path d="M 572.8519897460938 434.02099609375 L 571.6790161132812 435.2879943847656 L 573.7349853515625 436.510986328125 Z" fill="#5C99A3"/>
			<path d="M 573.89501953125 436.9159851074219 L 572.77001953125 438.2250061035156 L 574.8690185546875 439.3699951171875 Z" fill="#5C99A3"/>
			<path d="M 575.3400268554688 440.38299560546875 L 574.2750244140625 441.7409973144531 L 576.4249877929688 442.7919921875 Z" fill="#5C99A3"/>
			<path d="M 576.60400390625 443.5199890136719 L 575.5469970703125 444.8840026855469 L 577.7030029296875 445.9219970703125 Z" fill="#5C99A3"/>
			<path d="M 578.0469970703125 446.6319885253906 L 577.02099609375 448.02099609375 L 579.197998046875 449.00799560546875 Z" fill="#5C99A3"/>
			<path d="M 571.6389770507812 431.0379943847656 L 570.4669799804688 432.30499267578125 L 572.52099609375 433.5270080566406 Z" fill="#5C99A3"/>
		</g>
		<path fill="#4D7A87" d="M614.698,407.742l-9.031,36.558l20.812-35.726v-17.258C619.456,401.107,614.698,407.742,614.698,407.742z"/>
		<path fill="#5F9AA3" d="M687.339,307.963c0,0-0.817,0.146-3.271,3.298c-1.8,2.31-38.271,53.125-57.589,80.056v17.258&#10;&#9;&#9;&#9;l15.596-26.771L687.339,307.963z"/>
		<path d="M 604.7470092773438 445.4209899902344 L 604.9580078125 451.3139953613281 L 632.4520263671875 407.9949951171875 L 626.7059936523438 407.9949951171875 Z" fill="#5A99A2"/>
		<path fill="#6CB7BF" d="M686.419,309.083c1.022-3.571-29.199,46.908-29.199,46.908l-30.514,52.004h5.746l10.001-15.757&#10;&#9;&#9;&#9;C642.453,392.238,685.396,312.656,686.419,309.083z"/>
		<path fill="#2A4252" d="M478.663,372.623c0,0,28.979,31.035,33.407,36.356c5.749,6.909,27.394,27.937,27.394,27.937l25.831,10.811&#10;&#9;&#9;&#9;l-38.354-42.129C526.94,405.598,485.616,375.84,478.663,372.623z"/>
		<path fill="#7AD3D6" d="M660.032,351.266c0,0-8.557,14.087-9.719,15.768c-1.162,1.68-13.047,22.201-14.742,25.95&#10;&#9;&#9;&#9;c-1.695,3.75,13.756-22.42,15.302-24.738C652.42,365.926,660.032,351.266,660.032,351.266z"/>
		<g>
			<path fill="#285563" d="M509.368,446.303c-8.103-2.835-60.228-16.353-60.228-16.353c4.701,4.839,57.413,25.173,83.488,35.102&#10;&#9;&#9;&#9;&#9;c6.483-1.492,12.67-3.894,18.994-5.642C533.401,453.092,513.872,447.879,509.368,446.303z"/>
			<path fill="#2A4252" d="M588.331,479.753c0,0,0,0-3.869-4.382c-4.562-5.166-18.283-10.916-32.839-15.961&#10;&#9;&#9;&#9;&#9;c-6.324,1.748-12.511,4.149-18.994,5.642c4.108,1.565,7.562,2.874,10.055,3.821c8.817,3.348,28.268,8.983,37.209,10.827&#10;&#9;&#9;&#9;&#9;C579.893,479.7,584.092,479.145,588.331,479.753z"/>
		</g>
		<g>
			<path fill="#1B2C34" d="M648.704,446.743l-34.967,13.57l33.551-29.049c0,0,7.851-3.859,18.04-8.755&#10;&#9;&#9;&#9;&#9;c-0.874,4.751-1.339,9.466-2.618,14.254L648.704,446.743z"/>
			<path fill="#1C3945" d="M710.87,402.449l-48.16,34.314c1.279-4.788,1.744-9.503,2.618-14.254&#10;&#9;&#9;&#9;&#9;C683.319,413.868,708.601,402.002,710.87,402.449z"/>
		</g>
		<g>
			<path fill="#1C3944" d="M682.54,446.109c-4.504,1.575-24.033,6.789-42.254,13.107c6.323,1.748,12.51,4.148,18.994,5.642&#10;&#9;&#9;&#9;&#9;c15.919-6.062,41.765-16.001,60.554-23.926v-5.162C704.746,439.766,686.994,444.551,682.54,446.109z"/>
			<path fill="#1B2C34" d="M603.577,479.56c0,0,0,0,3.869-4.382c4.562-5.166,18.283-10.916,32.84-15.961&#10;&#9;&#9;&#9;&#9;c6.323,1.748,12.51,4.148,18.994,5.642c-4.109,1.565-7.562,2.874-10.056,3.82c-8.817,3.348-28.268,8.984-37.209,10.828&#10;&#9;&#9;&#9;&#9;C612.016,479.507,607.817,478.95,603.577,479.56z"/>
		</g>
		<path fill="#7AD3D6" d="M552.636,338.975c0,0,4.477,15.863,4.914,17.858c0.438,1.996,7.354,24.679,8.942,28.476&#10;&#9;&#9;&#9;c1.589,3.795-7.031-25.347-7.675-28.059C558.174,354.537,552.636,338.975,552.636,338.975z"/>
		<g>
			<g>
				<path d="M 491.3269958496094 354.2749938964844 L 490.4070129394531 355.7349853515625 L 492.6510009765625 356.5610046386719 Z" fill="#5C99A3"/>
				<path d="M 493.0870056152344 357.0920104980469 L 492.1669921875 358.552001953125 L 494.4110107421875 359.3760070800781 Z" fill="#5C99A3"/>
				<path d="M 495.1180114746094 360.0889892578125 L 494.2090148925781 361.5559997558594 L 496.4590148925781 362.3630065917969 Z" fill="#5C99A3"/>
				<path d="M 496.96099853515625 363.0069885253906 L 496.10400390625 364.5050048828125 L 498.38299560546875 365.2309875488281 Z" fill="#5C99A3"/>
				<path d="M 498.8389892578125 365.8450012207031 L 497.989990234375 367.3479919433594 L 500.2720031738281 368.06201171875 Z" fill="#5C99A3"/>
				<path d="M 500.697998046875 368.6969909667969 L 499.8219909667969 370.1839904785156 L 502.0920104980469 370.9410095214844 Z" fill="#5C99A3"/>
				<path d="M 502.7659912109375 372.1419982910156 L 501.97601318359375 373.6759948730469 L 504.28399658203125 374.302001953125 Z" fill="#5C99A3"/>
				<path d="M 504.9939880371094 375.3269958496094 L 504.16900634765625 376.8429870605469 L 506.46099853515625 377.52398681640625 Z" fill="#5C99A3"/>
				<path d="M 507.1809997558594 378.74700927734375 L 506.3689880371094 380.27099609375 L 508.66900634765625 380.92999267578125 Z" fill="#5C99A3"/>
				<g>
					<path fill="#69B2BB" d="M541.476,399.922l-60.812-61.59l59.997,72.504l17.802,21.509c1.04-2.994,1.945-5.852,3.018-8.877&#10;&#9;&#9;&#9;&#9;&#9;&#9;L541.476,399.922z"/>
					<path fill="#528893" d="M557.854,431.611c-4.374-0.541-8.747-0.463-13.121-1.17c13.262,15.891,30.111,35.033,42.252,44.984&#10;&#9;&#9;&#9;&#9;&#9;&#9;l5.669-1.769L557.854,431.611z"/>
					<path fill="#5C99A3" d="M480.641,338.318c0,0,38.392,60.448,51.403,76.624c3.48,4.327,7.848,9.698,12.689,15.499&#10;&#9;&#9;&#9;&#9;&#9;&#9;c4.374,0.707,8.747,0.629,13.121,1.17L480.641,338.318z"/>
					<path d="M 509.1180114746094 381.6369934082031 L 508.1889953613281 383.09100341796875 L 510.4289855957031 383.9289855957031 Z" fill="#5C99A3"/>
					<path d="M 511.17401123046875 385.03399658203125 L 510.4169921875 386.5849914550781 L 512.7379760742188 387.1610107421875 Z" fill="#5C99A3"/>
					<path d="M 513.3159790039062 388.14300537109375 L 512.52099609375 389.67401123046875 L 514.823974609375 390.31201171875 Z" fill="#5C99A3"/>
					<path d="M 515.427001953125 391.2640075683594 L 514.6329956054688 392.7950134277344 L 516.9390258789062 393.4280090332031 Z" fill="#5C99A3"/>
					<path fill="#365864" d="M602.621,471.712l-41.142-48.244c-1.072,3.025-1.978,5.883-3.018,8.877L596.38,479.7L602.621,471.712z"/>
				</g>
				<g>
					<path d="M 517.427978515625 394.51800537109375 L 516.6640014648438 396.06500244140625 L 518.9829711914062 396.65301513671875 Z" fill="#5C99A3"/>
					<path d="M 519.47998046875 397.4779968261719 L 518.7360229492188 399.03399658203125 L 521.0609741210938 399.5929870605469 Z" fill="#5C99A3"/>
					<path d="M 521.3489990234375 400.135009765625 L 520.56298828125 401.6719970703125 L 522.8740234375 402.28900146484375 Z" fill="#5C99A3"/>
					<path d="M 523.27099609375 402.9960021972656 L 522.6079711914062 404.5920104980469 L 524.9600219726562 405.0270080566406 Z" fill="#5C99A3"/>
				</g>
				<path d="M 526.030029296875 406.1759948730469 L 525.2470092773438 407.7130126953125 L 527.5579833984375 408.33099365234375 Z" fill="#5C99A3"/>
				<path d="M 528.0910034179688 409.1210021972656 L 527.35498046875 410.6830139160156 L 529.6849975585938 411.22900390625 Z" fill="#5C99A3"/>
				<path d="M 530.281005859375 412.2200012207031 L 529.5399780273438 413.7770080566406 L 531.8660278320312 414.33099365234375 Z" fill="#5C99A3"/>
				<path d="M 532.3140258789062 414.96099853515625 L 531.6320190429688 416.5469970703125 L 533.97900390625 417.01300048828125 Z" fill="#5C99A3"/>
				<path d="M 534.4450073242188 417.5060119628906 L 533.7869873046875 419.10101318359375 L 536.1400146484375 419.5320129394531 Z" fill="#5C99A3"/>
				<path d="M 536.5250244140625 420.125 L 535.9019775390625 421.7330017089844 L 538.2630004882812 422.1130065917969 Z" fill="#5C99A3"/>
				<path d="M 538.531982421875 422.52099609375 L 537.85302734375 424.1059875488281 L 540.197021484375 424.5710144042969 Z" fill="#5C99A3"/>
				<path d="M 540.8410034179688 425.239990234375 L 540.1829833984375 426.8349914550781 L 542.5349731445312 427.2650146484375 Z" fill="#5C99A3"/>
				<path d="M 542.9559936523438 427.843994140625 L 542.3079833984375 429.4429931640625 L 544.6630249023438 429.8580017089844 Z" fill="#5C99A3"/>
				<path d="M 545.0650024414062 430.3689880371094 L 544.4190063476562 431.968994140625 L 546.7750244140625 432.3819885253906 Z" fill="#528893"/>
				<path d="M 547.2559814453125 433.0509948730469 L 546.5809936523438 434.6400146484375 L 548.9299926757812 435.093994140625 Z" fill="#528893"/>
				<path d="M 549.2750244140625 435.52801513671875 L 548.7000122070312 437.15399169921875 L 551.0709838867188 437.4649963378906 Z" fill="#528893"/>
				<path d="M 551.2420043945312 437.9360046386719 L 550.6099853515625 439.5409851074219 L 552.968017578125 439.93701171875 Z" fill="#528893"/>
				<path d="M 553.3670043945312 440.2950134277344 L 552.7340087890625 441.89898681640625 L 555.093017578125 442.2950134277344 Z" fill="#528893"/>
				<path d="M 555.6309814453125 442.7430114746094 L 555 444.3489990234375 L 557.3579711914062 444.739990234375 Z" fill="#528893"/>
				<path d="M 557.5130004882812 445.02398681640625 L 556.958984375 446.6579895019531 L 559.333984375 446.9360046386719 Z" fill="#528893"/>
				<path d="M 559.7429809570312 447.3680114746094 L 559.1060180664062 448.9729919433594 L 561.4639892578125 449.37298583984375 Z" fill="#5C99A3"/>
				<path d="M 561.5869750976562 449.59100341796875 L 560.9920043945312 451.21099853515625 L 563.3599853515625 451.5469970703125 Z" fill="#5C99A3"/>
				<path d="M 563.4639892578125 451.7829895019531 L 562.9530029296875 453.4309997558594 L 565.3359985351562 453.64599609375 Z" fill="#5C99A3"/>
				<path d="M 565.4739990234375 453.9119873046875 L 564.9520263671875 455.5570068359375 L 567.3309936523438 455.78900146484375 Z" fill="#5C99A3"/>
				<path d="M 567.5800170898438 456.21600341796875 L 566.989013671875 457.8380126953125 L 569.3579711914062 458.1669921875 Z" fill="#5C99A3"/>
				<path d="M 571.8469848632812 460.6830139160156 L 571.2579956054688 462.30499267578125 L 573.6259765625 462.635986328125 Z" fill="#5C99A3"/>
				<path d="M 573.9299926757812 462.94500732421875 L 573.4000244140625 464.5880126953125 L 575.781005859375 464.8299865722656 Z" fill="#5C99A3"/>
				<path d="M 576.6069946289062 465.5820007324219 L 576.1519775390625 467.2460021972656 L 578.541015625 467.38299560546875 Z" fill="#5C99A3"/>
				<path d="M 578.9879760742188 467.98199462890625 L 578.5440063476562 469.6499938964844 L 580.9329833984375 469.77099609375 Z" fill="#5C99A3"/>
				<path d="M 581.5239868164062 470.2919921875 L 581.1179809570312 471.968994140625 L 583.5089721679688 472.0360107421875 Z" fill="#5C99A3"/>
				<path d="M 569.5709838867188 458.40301513671875 L 568.9829711914062 460.0249938964844 L 571.3519897460938 460.3550109863281 Z" fill="#5C99A3"/>
			</g>
			<path fill="#7AD3D6" d="M508.619,372.115c0,0,15.327,19.779,17.079,22.228c1.753,2.45,24.291,29.126,28.645,33.332&#10;&#9;&#9;&#9;&#9;c4.354,4.205-24.245-30.225-26.692-33.523C525.202,390.852,508.619,372.115,508.619,372.115z"/>
		</g>
		<g>
			<g>
				<g>
					<path fill="#69B2BB" d="M687.152,422.75l-27.438,14.205c-0.154,3.206-0.399,6.193-0.572,9.359l24.627-13.155l36.064-19.27&#10;&#9;&#9;&#9;&#9;&#9;&#9;v-5.07L687.152,422.75z"/>
					<path fill="#528893" d="M659.982,445.865c4.253,1.157,8.27,2.887,12.585,3.892c-18.295,9.677-41.145,21.004-56.151,25.61&#10;&#9;&#9;&#9;&#9;&#9;&#9;l-4.575-3.786L659.982,445.865z"/>
					<path fill="#5C99A3" d="M659.982,445.865c4.253,1.157,8.27,2.887,12.585,3.892c6.68-3.532,12.757-6.848,17.617-9.532&#10;&#9;&#9;&#9;&#9;&#9;&#9;c6.36-3.513,17.655-10.866,29.649-18.94v-7.391L659.982,445.865z"/>
					<path d="M 718.5809936523438 421.83599853515625 L 719.833984375 422.0190124511719 L 719.833984375 421.0710144042969 Z" fill="#5C99A3"/>
					<path d="M 717.6749877929688 422.52398681640625 L 717.8309936523438 424.2430114746094 L 715.4580078125 423.96099853515625 Z" fill="#5C99A3"/>
					<path d="M 714.5380249023438 424.6130065917969 L 714.6929931640625 426.33099365234375 L 712.3179931640625 426.0409851074219 Z" fill="#5C99A3"/>
					<path fill="#365864" d="M603.356,466.003l56.358-29.048c-0.154,3.206-0.399,6.193-0.572,9.359l-53.04,29.446L603.356,466.003z"/>
				</g>
				<g>
					<path d="M 711.4530029296875 426.864990234375 L 711.572998046875 428.5870056152344 L 709.2050170898438 428.25201416015625 Z" fill="#5C99A3"/>
					<path d="M 708.4329833984375 428.82598876953125 L 708.531005859375 430.54901123046875 L 706.1680297851562 430.18499755859375 Z" fill="#5C99A3"/>
					<path d="M 705.6959838867188 430.5769958496094 L 705.8389892578125 432.2969970703125 L 703.468017578125 431.9930114746094 Z" fill="#5C99A3"/>
					<path d="M 702.8330078125 432.4960021972656 L 702.8400268554688 434.2239990234375 L 700.4990234375 433.7349853515625 Z" fill="#5C99A3"/>
				</g>
				<path d="M 699.072998046875 434.39300537109375 L 699.2160034179688 436.1109924316406 L 696.843994140625 435.8080139160156 Z" fill="#5C99A3"/>
				<path d="M 696.0499877929688 436.33599853515625 L 696.1400146484375 438.0610046386719 L 693.7769775390625 437.6820068359375 Z" fill="#5C99A3"/>
				<path d="M 692.8489990234375 438.3739929199219 L 692.9429931640625 440.09600830078125 L 690.5809936523438 439.72698974609375 Z" fill="#5C99A3"/>
				<path d="M 689.9290161132812 440.1400146484375 L 689.9580078125 441.8659973144531 L 687.6099853515625 441.4070129394531 Z" fill="#5C99A3"/>
				<path d="M 686.9910278320312 441.68701171875 L 686.9970092773438 443.4110107421875 L 684.655029296875 442.91900634765625 Z" fill="#5C99A3"/>
				<path d="M 684.0750122070312 443.3210144042969 L 684.041015625 445.0469970703125 L 681.7119750976562 444.50299072265625 Z" fill="#5C99A3"/>
				<path d="M 681.3079833984375 444.7770080566406 L 681.3369750976562 446.50299072265625 L 678.989990234375 446.04400634765625 Z" fill="#5C99A3"/>
				<path d="M 678.1430053710938 446.41900634765625 L 678.14599609375 448.1449890136719 L 675.8060302734375 447.6499938964844 Z" fill="#5C99A3"/>
				<path d="M 675.197021484375 448.0270080566406 L 675.1900024414062 449.75201416015625 L 672.85400390625 449.2439880371094 Z" fill="#5C99A3"/>
				<path d="M 672.2880249023438 449.56298828125 L 672.280029296875 451.2900085449219 L 669.9420166015625 450.77801513671875 Z" fill="#528893"/>
				<path d="M 669.2449951171875 451.2149963378906 L 669.2670288085938 452.9410095214844 L 666.9210205078125 452.47100830078125 Z" fill="#528893"/>
				<path d="M 666.43701171875 452.74200439453125 L 666.35302734375 454.46600341796875 L 664.0399780273438 453.85400390625 Z" fill="#528893"/>
				<path d="M 663.7030029296875 454.2239990234375 L 663.6810302734375 455.95001220703125 L 661.3489990234375 455.4219970703125 Z" fill="#528893"/>
				<path d="M 660.843994140625 455.60198974609375 L 660.8209838867188 457.3269958496094 L 658.4879760742188 456.79901123046875 Z" fill="#528893"/>
				<path d="M 657.8200073242188 457.0090026855469 L 657.7960205078125 458.7340087890625 L 655.4650268554688 458.2030029296875 Z" fill="#528893"/>
				<path d="M 655.2139892578125 458.406005859375 L 655.1060180664062 460.1289978027344 L 652.8049926757812 459.4840087890625 Z" fill="#528893"/>
				<path d="M 652.2620239257812 459.7300109863281 L 652.2429809570312 461.45599365234375 L 649.9089965820312 460.9330139160156 Z" fill="#5C99A3"/>
				<path d="M 649.7139892578125 461.0880126953125 L 649.6489868164062 462.81201171875 L 647.3300170898438 462.22698974609375 Z" fill="#5C99A3"/>
				<path d="M 647.14599609375 462.406005859375 L 646.9929809570312 464.12298583984375 L 644.7059936523438 463.4200134277344 Z" fill="#5C99A3"/>
				<path d="M 644.47900390625 463.6130065917969 L 644.3380126953125 465.3330078125 L 642.0479736328125 464.64599609375 Z" fill="#5C99A3"/>
				<path d="M 641.656005859375 464.9460144042969 L 641.5869750976562 466.6719970703125 L 639.27099609375 466.0780029296875 Z" fill="#5C99A3"/>
				<path d="M 636.0150146484375 467.4620056152344 L 635.9439697265625 469.18798828125 L 633.6270141601562 468.5950012207031 Z" fill="#5C99A3"/>
				<path d="M 633.22900390625 468.76800537109375 L 633.094970703125 470.48699951171875 L 630.802001953125 469.80999755859375 Z" fill="#5C99A3"/>
				<path d="M 629.7520141601562 470.1910095214844 L 629.5419921875 471.90399169921875 L 627.280029296875 471.125 Z" fill="#5C99A3"/>
				<path d="M 626.6380004882812 471.510986328125 L 626.4169921875 473.2229919433594 L 624.1610107421875 472.4280090332031 Z" fill="#5C99A3"/>
				<path d="M 623.416015625 472.68701171875 L 623.156005859375 474.3919982910156 L 620.9190063476562 473.5480041503906 Z" fill="#5C99A3"/>
				<path d="M 638.9829711914062 466.21600341796875 L 638.9130249023438 467.94000244140625 L 636.5969848632812 467.3479919433594 Z" fill="#5C99A3"/>
			</g>
			<path fill="#7AD3D6" d="M702.133,422.651c-3.515,2.125-43.031,23.144-37.408,20.902c5.623-2.242,36.591-18.382,39.142-19.985&#10;&#9;&#9;&#9;&#9;c1.493-0.938,9.548-5.611,15.968-9.323v-0.677C713.049,416.947,704.229,421.384,702.133,422.651z"/>
		</g>
		<g>
			<path fill="#243944" d="M617.151,280.779c0,0-4.492,20.763-6.658,27.562c-2.54,7.976-6.272,27.639-9.169,44.04l13.825-13.825&#10;&#9;&#9;&#9;&#9;C616.634,313.734,618.151,284.053,617.151,280.779z"/>
			<path fill="#1B2C34" d="M601.324,352.381c-2.467,13.967-4.327,25.569-4.327,25.569l0.203,42.223l15.747-47.168&#10;&#9;&#9;&#9;&#9;c0,0,1.091-15.862,2.202-34.449L601.324,352.381z"/>
		</g>
		<g>
			<path d="M 640.35302734375 308.0740051269531 L 638.6279907226562 308.06201171875 L 639.1090087890625 310.40301513671875 Z" fill="#5C99A3"/>
			<path d="M 638.8880004882812 311.05499267578125 L 637.1619873046875 311.0419921875 L 637.64501953125 313.385009765625 Z" fill="#5C99A3"/>
			<path d="M 637.4099731445312 314.3599853515625 L 635.6849975585938 314.3599853515625 L 636.1849975585938 316.6990051269531 Z" fill="#5C99A3"/>
			<path d="M 635.9019775390625 317.4639892578125 L 634.177978515625 317.5249938964844 L 634.760986328125 319.84600830078125 Z" fill="#5C99A3"/>
			<path d="M 634.47900390625 320.55499267578125 L 632.7550048828125 320.62701416015625 L 633.3519897460938 322.9419860839844 Z" fill="#5C99A3"/>
			<path d="M 633.0360107421875 323.6409912109375 L 631.3109741210938 323.6789855957031 L 631.8619995117188 326.0060119628906 Z" fill="#5C99A3"/>
			<path d="M 631.197998046875 327.21099853515625 L 629.47900390625 327.3500061035156 L 630.1630249023438 329.6419982910156 Z" fill="#5C99A3"/>
			<path d="M 629.666015625 330.78399658203125 L 627.9429931640625 330.8819885253906 L 628.572021484375 333.1889953613281 Z" fill="#5C99A3"/>
			<path d="M 627.9110107421875 334.44500732421875 L 626.18798828125 334.55999755859375 L 626.8410034179688 336.8590087890625 Z" fill="#5C99A3"/>
			<g>
				<path d="M 591.989990234375 459.3800048828125 L 598.2490234375 466.5780029296875 L 627.989990234375 374.75 L 648.281982421875 290.6090087890625 L 618.2860107421875 379.8089904785156 Z" fill="#69B2BB"/>
				<path fill="#5C99A3" d="M587.653,454.184l4.337,5.196l56.292-168.797c0,0-31.138,64.485-38.027,84.068&#10;&#9;&#9;&#9;&#9;&#9;C603.365,394.232,590.465,432.938,587.653,454.184z"/>
				<path d="M 626.47802734375 337.614013671875 L 624.7520141601562 337.5920104980469 L 625.219970703125 339.93701171875 Z" fill="#5C99A3"/>
				<path d="M 624.6719970703125 341.1510009765625 L 622.9569702148438 341.3269958496094 L 623.6900024414062 343.6029968261719 Z" fill="#5C99A3"/>
				<path d="M 623.1599731445312 344.6109924316406 L 621.4400024414062 344.7409973144531 L 622.1110229492188 347.0360107421875 Z" fill="#5C99A3"/>
				<path d="M 621.6209716796875 348.04998779296875 L 619.9000244140625 348.1820068359375 L 620.5780029296875 350.47698974609375 Z" fill="#5C99A3"/>
			</g>
			<g>
				<path d="M 619.9089965820312 351.46600341796875 L 618.1909790039062 351.6319885253906 L 618.9140014648438 353.9119873046875 Z" fill="#5C99A3"/>
				<path d="M 618.4760131835938 354.7699890136719 L 616.760986328125 354.9570007324219 L 617.510986328125 357.2279968261719 Z" fill="#5C99A3"/>
				<path d="M 617.2030029296875 357.75799560546875 L 615.4829711914062 357.8999938964844 L 616.1749877929688 360.18798828125 Z" fill="#5C99A3"/>
				<path d="M 615.781982421875 360.89801025390625 L 614.0789794921875 361.177001953125 L 614.947998046875 363.4049987792969 Z" fill="#5C99A3"/>
			</g>
			<path d="M 614.5360107421875 364.9200134277344 L 612.8170166015625 365.0639953613281 L 613.510009765625 367.35400390625 Z" fill="#5C99A3"/>
			<path d="M 613.1199951171875 368.2239990234375 L 611.405029296875 368.4219970703125 L 612.1680297851562 370.68798828125 Z" fill="#5C99A3"/>
			<path d="M 611.6400146484375 371.7179870605469 L 609.9249877929688 371.90899658203125 L 610.6810302734375 374.1780090332031 Z" fill="#5C99A3"/>
			<path d="M 610.3820190429688 374.8909912109375 L 608.6749877929688 375.14599609375 L 609.5150146484375 377.3869934082031 Z" fill="#5C99A3"/>
			<path d="M 609.343017578125 378.0429992675781 L 607.6400146484375 378.3240051269531 L 608.5130004882812 380.5509948730469 Z" fill="#5C99A3"/>
			<path d="M 608.2139892578125 381.19000244140625 L 606.5180053710938 381.510009765625 L 607.43798828125 383.7149963378906 Z" fill="#5C99A3"/>
			<path d="M 607.2340087890625 384.1600036621094 L 605.5289916992188 384.4159851074219 L 606.3690185546875 386.6549987792969 Z" fill="#5C99A3"/>
			<path d="M 606.1400146484375 387.5530090332031 L 604.43798828125 387.8349914550781 L 605.31201171875 390.06201171875 Z" fill="#5C99A3"/>
			<path d="M 605.0419921875 390.7250061035156 L 603.3419799804688 391.0159912109375 L 604.22900390625 393.23699951171875 Z" fill="#5C99A3"/>
			<path d="M 604.0079956054688 393.84698486328125 L 602.3090209960938 394.1419982910156 L 603.198974609375 396.3609924316406 Z" fill="#5C99A3"/>
			<path d="M 602.8829956054688 397.12200927734375 L 601.177001953125 397.3869934082031 L 602.0280151367188 399.62200927734375 Z" fill="#5C99A3"/>
			<path d="M 601.8419799804688 400.1449890136719 L 600.155029296875 400.51300048828125 L 601.1430053710938 402.6910095214844 Z" fill="#5C99A3"/>
			<path d="M 600.8319702148438 403.08599853515625 L 599.135986328125 403.39300537109375 L 600.0419921875 405.6050109863281 Z" fill="#5C99A3"/>
			<path d="M 599.947998046875 406.1340026855469 L 598.2490234375 406.4410095214844 L 599.156005859375 408.65399169921875 Z" fill="#5C99A3"/>
			<path d="M 599.0599975585938 409.3479919433594 L 597.3619995117188 409.6570129394531 L 598.27197265625 411.8680114746094 Z" fill="#5C99A3"/>
			<path d="M 598.114013671875 412.1499938964844 L 596.4320068359375 412.5400085449219 L 597.447998046875 414.7049865722656 Z" fill="#5C99A3"/>
			<path d="M 597.2960205078125 415.2799987792969 L 595.5980224609375 415.5849914550781 L 596.5 417.79901123046875 Z" fill="#5C99A3"/>
			<path d="M 596.3800048828125 418.0190124511719 L 594.68798828125 418.36700439453125 L 595.6500244140625 420.5580139160156 Z" fill="#5C99A3"/>
			<path d="M 595.5050048828125 420.7699890136719 L 593.8350219726562 421.2040100097656 L 594.9080200195312 423.3429870605469 Z" fill="#5C99A3"/>
			<path d="M 594.7550048828125 423.6000061035156 L 593.0819702148438 424.0220031738281 L 594.1389770507812 426.1679992675781 Z" fill="#5C99A3"/>
			<path d="M 593.906982421875 426.60400390625 L 592.218017578125 426.9570007324219 L 593.1859741210938 429.1440124511719 Z" fill="#5C99A3"/>
			<path d="M 592.3590087890625 432.5840148925781 L 590.6710205078125 432.93701171875 L 591.6389770507812 435.125 Z" fill="#5C99A3"/>
			<path d="M 591.5339965820312 435.5480041503906 L 589.8579711914062 435.9639892578125 L 590.906982421875 438.1130065917969 Z" fill="#5C99A3"/>
			<path d="M 590.7059936523438 439.21099853515625 L 589.051025390625 439.7019958496094 L 590.1939697265625 441.8039855957031 Z" fill="#5C99A3"/>
			<path d="M 589.9199829101562 442.5 L 588.2680053710938 443.00201416015625 L 589.4249877929688 445.09600830078125 Z" fill="#5C99A3"/>
			<path d="M 589.2940063476562 445.8739929199219 L 587.6530151367188 446.4119873046875 L 588.8560180664062 448.47900390625 Z" fill="#5C99A3"/>
			<path d="M 593.0980224609375 429.4490051269531 L 591.4089965820312 429.8039855957031 L 592.3770141601562 431.989990234375 Z" fill="#5C99A3"/>
		</g>
		<g>
			<path d="M 467.3580017089844 386.5469970703125 L 466.7959899902344 388.0790100097656 L 469.0360107421875 388.39801025390625 Z" fill="#5C99A3"/>
			<path d="M 469.54400634765625 388.8039855957031 L 468.9830017089844 390.3370056152344 L 471.2250061035156 390.6549987792969 Z" fill="#5C99A3"/>
			<path d="M 472.0199890136719 391.17498779296875 L 471.4679870605469 392.7130126953125 L 473.71099853515625 393.0140075683594 Z" fill="#5C99A3"/>
			<path d="M 474.302001953125 393.5090026855469 L 473.8070068359375 395.06500244140625 L 476.05999755859375 395.2869873046875 Z" fill="#5C99A3"/>
			<path d="M 476.60198974609375 395.7640075683594 L 476.114990234375 397.322998046875 L 478.3689880371094 397.531005859375 Z" fill="#5C99A3"/>
			<path d="M 478.8900146484375 398.0350036621094 L 478.37200927734375 399.5849914550781 L 480.62200927734375 399.83599853515625 Z" fill="#5C99A3"/>
			<path d="M 481.4830017089844 400.81201171875 L 481.0589904785156 402.38800048828125 L 483.3190002441406 402.510986328125 Z" fill="#5C99A3"/>
			<path d="M 484.1789855957031 403.3169860839844 L 483.7149963378906 404.885009765625 L 485.97100830078125 405.0610046386719 Z" fill="#5C99A3"/>
			<path d="M 486.8800048828125 406.0509948730469 L 486.4320068359375 407.6210021972656 L 488.6889953613281 407.7749938964844 Z" fill="#5C99A3"/>
			<g>
				<path d="M 588.3309936523438 479.75299072265625 L 601.8419799804688 479.70001220703125 L 522.81298828125 418.8489990234375 L 454.3299865722656 373.9049987792969 L 524.2210083007812 429.1099853515625 Z" fill="#69B2BB"/>
				<path fill="#5C99A3" d="M579.893,479.7l10.027,0.053L454.307,373.897c0,0,47.509,48.33,62.755,60.721&#10;&#9;&#9;&#9;&#9;&#9;C532.308,447.008,561.862,470.413,579.893,479.7z"/>
				<path d="M 489.2449951171875 408.3399963378906 L 488.67401123046875 409.8699951171875 L 490.9119873046875 410.20098876953125 Z" fill="#5C99A3"/>
				<path d="M 491.82000732421875 411.0780029296875 L 491.4280090332031 412.6619873046875 L 493.6889953613281 412.7340087890625 Z" fill="#5C99A3"/>
				<path d="M 494.41900634765625 413.52801513671875 L 493.98699951171875 415.10400390625 L 496.2449951171875 415.2380065917969 Z" fill="#5C99A3"/>
				<path d="M 496.9909973144531 415.99798583984375 L 496.55999755859375 417.5740051269531 L 498.8190002441406 417.7019958496094 Z" fill="#5C99A3"/>
			</g>
			<g>
				<path d="M 499.4880065917969 418.6130065917969 L 499.0880126953125 420.1969909667969 L 501.35101318359375 420.281005859375 Z" fill="#5C99A3"/>
				<path d="M 501.9739990234375 420.9460144042969 L 501.5950012207031 422.5329895019531 L 503.8550109863281 422.5899963378906 Z" fill="#5C99A3"/>
				<path d="M 504.22900390625 423.03399658203125 L 503.8080139160156 424.6109924316406 L 506.0669860839844 424.72601318359375 Z" fill="#5C99A3"/>
				<path d="M 506.5740051269531 425.302001953125 L 506.27899169921875 426.90899658203125 L 508.5409851074219 426.84698486328125 Z" fill="#5C99A3"/>
			</g>
			<path d="M 509.760009765625 427.6960144042969 L 509.3389892578125 429.27398681640625 L 511.6000061035156 429.38800048828125 Z" fill="#5C99A3"/>
			<path d="M 512.25 430.0140075683594 L 511.8800048828125 431.60400390625 L 514.1420288085938 431.64801025390625 Z" fill="#5C99A3"/>
			<path d="M 514.8909912109375 432.4469909667969 L 514.5139770507812 434.0369873046875 L 516.7750244140625 434.0870056152344 Z" fill="#5C99A3"/>
			<path d="M 517.3150024414062 434.58099365234375 L 516.9990234375 436.1839904785156 L 519.2630004882812 436.1499938964844 Z" fill="#5C99A3"/>
			<path d="M 519.7919921875 436.51300048828125 L 519.4990234375 438.1199951171875 L 521.7620239257812 438.0530090332031 Z" fill="#5C99A3"/>
			<path d="M 522.2349853515625 438.5249938964844 L 521.97900390625 440.1369934082031 L 524.2369995117188 440.02099609375 Z" fill="#5C99A3"/>
			<path d="M 524.5689697265625 440.343994140625 L 524.2529907226562 441.9460144042969 L 526.5159912109375 441.9119873046875 Z" fill="#5C99A3"/>
			<path d="M 527.2420043945312 442.40301513671875 L 526.948974609375 444.010009765625 L 529.2130126953125 443.9419860839844 Z" fill="#5C99A3"/>
			<path d="M 529.7169799804688 444.3949890136719 L 529.4349975585938 446.00201416015625 L 531.6959838867188 445.9209899902344 Z" fill="#5C99A3"/>
			<path d="M 532.1690063476562 446.31201171875 L 531.8889770507812 447.9209899902344 L 534.1500244140625 447.8349914550781 Z" fill="#5C99A3"/>
			<path d="M 534.72802734375 448.3599853515625 L 534.4169921875 449.9649963378906 L 536.6820068359375 449.9200134277344 Z" fill="#5C99A3"/>
			<path d="M 537.0880126953125 450.25299072265625 L 536.8770141601562 451.87200927734375 L 539.1339721679688 451.6889953613281 Z" fill="#5C99A3"/>
			<path d="M 539.385986328125 452.09100341796875 L 539.1179809570312 453.70098876953125 L 541.3779907226562 453.6000061035156 Z" fill="#5C99A3"/>
			<path d="M 541.8179931640625 453.8529968261719 L 541.5499877929688 455.4639892578125 L 543.81201171875 455.36199951171875 Z" fill="#5C99A3"/>
			<path d="M 544.3980102539062 455.6700134277344 L 544.1320190429688 457.281005859375 L 546.3939819335938 457.177001953125 Z" fill="#5C99A3"/>
			<path d="M 546.593994140625 457.406005859375 L 546.4030151367188 459.0299987792969 L 548.656982421875 458.81500244140625 Z" fill="#5C99A3"/>
			<path d="M 549.1199951171875 459.135986328125 L 548.8499755859375 460.7449951171875 L 551.1099853515625 460.64801025390625 Z" fill="#5C99A3"/>
			<path d="M 551.2670288085938 460.82501220703125 L 551.0380249023438 462.4429931640625 L 553.2960205078125 462.2860107421875 Z" fill="#5C99A3"/>
			<path d="M 553.43798828125 462.4830017089844 L 553.2940063476562 464.1099853515625 L 555.5419921875 463.8370056152344 Z" fill="#5C99A3"/>
			<path d="M 555.7219848632812 464.05499267578125 L 555.56298828125 465.6809997558594 L 557.81298828125 465.42401123046875 Z" fill="#5C99A3"/>
			<path d="M 558.1259765625 465.7699890136719 L 557.9010009765625 467.38800048828125 L 560.1589965820312 467.2239990234375 Z" fill="#5C99A3"/>
			<path d="M 562.9609985351562 469.0589904785156 L 562.7349853515625 470.67498779296875 L 564.9940185546875 470.510986328125 Z" fill="#5C99A3"/>
			<path d="M 565.3369750976562 470.739013671875 L 565.1729736328125 472.364990234375 L 567.4229736328125 472.11700439453125 Z" fill="#5C99A3"/>
			<path d="M 568.3369750976562 472.64801025390625 L 568.2459716796875 474.27801513671875 L 570.4829711914062 473.9320068359375 Z" fill="#5C99A3"/>
			<path d="M 571.0159912109375 474.3970031738281 L 570.93701171875 476.02899169921875 L 573.1710205078125 475.6679992675781 Z" fill="#5C99A3"/>
			<path d="M 573.8209838867188 476.0320129394531 L 573.7769775390625 477.6650085449219 L 576.0029907226562 477.25299072265625 Z" fill="#5C99A3"/>
			<path d="M 560.4030151367188 467.39898681640625 L 560.1799926757812 469.0169982910156 L 562.43798828125 468.8529968261719 Z" fill="#5C99A3"/>
		</g>
		<path fill="#5F9AA3" d="M719.101,371.954l-1.016-0.681l-0.632,1.584c-0.39,0.214-0.778,0.427-1.17,0.642l-1.007-0.703l-0.69,1.638&#10;&#9;&#9;&#9;c-0.524,0.289-1.051,0.579-1.577,0.87l-1.183-0.728l-0.612,1.719c-0.488,0.27-0.979,0.541-1.468,0.812l-1.067-0.693l-0.625,1.631&#10;&#9;&#9;&#9;c-0.548,0.304-1.096,0.609-1.644,0.914l-1.128-0.716l-0.628,1.694c-0.368,0.206-0.736,0.411-1.104,0.616l-1.06-0.798l-0.873,1.88&#10;&#9;&#9;&#9;c-0.432,0.242-0.864,0.484-1.295,0.727l-1.291-0.759l-0.604,1.826c-0.413,0.232-0.825,0.466-1.235,0.697l-1.228-0.762&#10;&#9;&#9;&#9;l-0.662,1.833c-0.407,0.23-0.812,0.461-1.215,0.69l-1.222-0.757l-0.655,1.827c-0.397,0.228-0.792,0.454-1.185,0.68l-1.393-0.827&#10;&#9;&#9;&#9;l-0.682,2.021c-0.298,0.172-0.596,0.345-0.891,0.515l-1.38-0.794l-0.636,1.965c-0.219,0.128-0.437,0.256-0.653,0.382l-1.33-0.814&#10;&#9;&#9;&#9;l-0.708,2.013c-0.251,0.146-0.501,0.295-0.747,0.44l-1.451-0.735l-0.504,1.899c-0.555,0.332-1.097,0.658-1.626,0.979l-1.006-0.614&#10;&#9;&#9;&#9;l-0.547,1.559c-0.459,0.281-0.903,0.555-1.338,0.824l-1.07-0.607l-0.506,1.595c-0.49,0.31-0.966,0.612-1.416,0.903l-1.158-0.663&#10;&#9;&#9;&#9;l-0.576,1.804c-0.242,0.162-0.479,0.321-0.703,0.476c-0.073,0.05-0.151,0.104-0.226,0.155l-1.259-0.659l-0.527,1.886&#10;&#9;&#9;&#9;c-0.273,0.188-0.55,0.378-0.83,0.572l-1.208-0.611l-0.466,1.768c-0.304,0.21-0.61,0.423-0.92,0.637l-1.252-0.599l-0.424,1.765&#10;&#9;&#9;&#9;c-0.252,0.174-0.506,0.352-0.761,0.529l-1.195-0.626l-0.509,1.818c-0.36,0.253-0.72,0.505-1.087,0.763l-1.148-0.582l-0.45,1.707&#10;&#9;&#9;&#9;c-0.326,0.229-0.657,0.465-0.986,0.698l-1.178-0.586l-0.448,1.738c-0.303,0.216-0.609,0.435-0.916,0.652l-1.173-0.581&#10;&#9;&#9;&#9;l-0.443,1.736c-0.342,0.244-0.683,0.487-1.027,0.735l-1.207-0.627l-0.512,1.865c-0.242,0.175-0.483,0.349-0.725,0.523l-1.29-0.572&#10;&#9;&#9;&#9;l-0.374,1.779c-0.228,0.166-0.455,0.333-0.684,0.499l-1.332-0.647l-0.49,1.98c-0.21,0.154-0.42,0.31-0.631,0.465l-1.26-0.612&#10;&#9;&#9;&#9;l-0.467,1.887c-0.284,0.211-0.568,0.422-0.852,0.633l-1.156-0.561l-0.429,1.741c-0.212,0.159-0.425,0.318-0.637,0.478&#10;&#9;&#9;&#9;l-1.257-0.537l-0.338,1.737c-0.295,0.222-0.59,0.444-0.884,0.667l-1.116-0.545l-0.431,1.723c-0.197,0.151-0.396,0.303-0.593,0.453&#10;&#9;&#9;&#9;l-1.226-0.559l-0.402,1.812c-0.173,0.133-0.345,0.266-0.517,0.398l-1.32-0.521l-0.299,1.781c-0.196,0.153-0.394,0.307-0.589,0.461&#10;&#9;&#9;&#9;l-1.261-0.512l-0.308,1.749c-0.244,0.192-0.491,0.387-0.733,0.58l-1.261-0.57l-0.418,1.915c-0.163,0.131-0.329,0.264-0.492,0.395&#10;&#9;&#9;&#9;l-1.297-0.588l-0.438,2c-0.219,0.179-0.437,0.357-0.653,0.536l-1.225-0.555l-0.419,1.916c-0.194,0.162-0.381,0.321-0.572,0.481&#10;&#9;&#9;&#9;l-1.321-0.541l-0.353,1.958c-0.356,0.304-0.71,0.607-1.059,0.909l-1.296-0.463l-0.243,1.806c-0.284,0.251-0.568,0.502-0.848,0.75&#10;&#9;&#9;&#9;l-1.352-0.473l-0.243,1.91c-0.283,0.26-0.56,0.516-0.836,0.771l-1.295-0.421l-0.191,1.816c-1.249,1.191-2.427,2.354-3.495,3.47&#10;&#9;&#9;&#9;l-2.433,8.069l-0.012,0.008l-0.252,0.866l-0.199,0.657l0.009-0.006l-3.341,11.453l80.773-58.518l35.638-30.163v-8.229&#10;&#9;&#9;&#9;C719.59,371.686,719.347,371.818,719.101,371.954z"/>
		<g>
			<path fill="#1C3747" d="M602.907,451.043c-4.462,13.419-9.845,28.71-9.845,28.71h21.868l4.824-32.081&#10;&#9;&#9;&#9;&#9;c-4.05,3.561-8.408,6.656-13.785,8.15C604.892,455.822,604.286,452.981,602.907,451.043z"/>
			<path fill="#345662" d="M616.909,415.549c-4.712,8.926-9.889,23.129-14.002,35.494c1.379,1.938,1.984,4.779,3.062,4.779&#10;&#9;&#9;&#9;&#9;c5.377-1.494,9.735-4.59,13.785-8.15l3.972-25.612l33.415-10.056C645.684,411.255,617.714,414.025,616.909,415.549z"/>
		</g>
		<g>
			<path fill="#528893" d="M592.588,468.867c3.063,5.101,6.761,10.913,6.761,10.913H587l-4.687-12.318&#10;&#9;&#9;&#9;&#9;c2.781,1.354,4.479,2.653,8.172,3.222C591.225,470.684,591.641,469.604,592.588,468.867z"/>
			<path fill="#7AD3D6" d="M584.72,457.009c0,0,5.044,7.158,7.868,11.858c-0.947,0.736-1.363,1.816-2.103,1.816&#10;&#9;&#9;&#9;&#9;c-3.693-0.568-4.776-0.867-7.558-2.221l-3.189-6.193L555.7,450.427C564.145,451.454,584.72,457.009,584.72,457.009z"/>
		</g>
	</g>
</g>
<g>
	<g>
		<g>
			<path fill="#DFD2C6" d="M459.368,177.49c-11.915,0-21.608-10.62-21.608-23.675c0-13.054,9.693-23.675,21.608-23.675&#10;&#9;&#9;&#9;&#9;s21.608,10.621,21.608,23.675C480.977,166.87,471.283,177.49,459.368,177.49z M459.368,130.618&#10;&#9;&#9;&#9;&#9;c-11.651,0-21.13,10.406-21.13,23.197s9.479,23.197,21.13,23.197s21.13-10.406,21.13-23.197S471.02,130.618,459.368,130.618z"/>
		</g>
		<g>
			<path d="M 441.7130126953125 212.97999572753906 L 440.8810119628906 212.51199340820312 L 460.531005859375 177.49000549316406 L 460.88800048828125 178.87399291992188 Z" fill="#9C819D"/>
		</g>
		<g>
			
				<path d="M 424.188995 239.947998 H 482.315994 V 240.903998 H 424.188995 V 239.947998 Z" transform="matrix(0.4114 0.9115 -0.9115 0.4114 485.9361 -271.6038)" fill="#9C819D"/>
		</g>
		<g>
			<path d="M 464.64300537109375 267.989990234375 L 432.0780029296875 267.3789978027344 L 460.9119873046875 215.0590057373047 L 446.5509948730469 175.22799682617188 L 447.45001220703125 174.9029998779297 L 461.9580078125 215.14100646972656 L 433.67999267578125 266.4530029296875 L 464.6600036621094 267.0350036621094 Z" fill="#9C819D"/>
		</g>
		<g>
			
				<path d="M 464.308014 267.812012 H 479.586014 V 268.767012 H 464.308014 V 267.812012 Z" transform="matrix(0.994 0.1096 -0.1096 0.994 32.2354 -50.092)" fill="#9C819D"/>
		</g>
		<g>
			<path d="M 458.561005 121.310997 H 462.502005 V 142.094997 H 458.561005 V 121.310997 Z" fill="#FDF5DE"/>
		</g>
		<path opacity="0.6" fill="#E2BFA1" d="M482.369,279.943c0,2.234-1.812,1.812-4.047,1.812l-34.324,2.082&#10;&#9;&#9;&#9;c-7.503,0-21.352-9.006-13.849-9.006l34.057,1.246C466.441,276.078,482.369,279.943,482.369,279.943z"/>
		<g>
			
				<path d="M 449.575012 123.341003 H 453.517012 V 144.125004 H 449.575012 V 123.341003 Z" transform="matrix(0.9003 -0.4352 0.4352 0.9003 -13.1982 209.8322)" fill="#FFFAEE"/>
		</g>
		<g>
			
				<path d="M 443.278015 128.835999 H 447.220015 V 149.618999 H 443.278015 V 128.835999 Z" transform="matrix(0.6647 -0.7471 0.7471 0.6647 45.2679 379.3234)" fill="#FFFAEE"/>
		</g>
		<g>
			
				<path d="M 439.325989 135.744995 H 443.267989 V 156.527996 H 439.325989 V 135.744995 Z" transform="matrix(0.3379 -0.9412 0.9412 0.3379 154.6337 512.0911)" fill="#FEFFEC"/>
		</g>
		<g>
			<path fill="#D6CAC1" d="M430.047,274.447c-0.156,0.977,0.258,1.855,0.923,1.963l0,0c0.666,0.104,1.331-0.602,1.487-1.578&#10;&#9;&#9;&#9;&#9;l16.931-106.17c0.155-0.977-0.258-1.854-0.923-1.96l0,0c-0.666-0.106-1.332,0.601-1.487,1.577L430.047,274.447z"/>
		</g>
		<g>
			<path fill="#DFD2C6" d="M480.192,280.225c0.175,0.953,0.853,1.627,1.516,1.508l0,0c0.663-0.123,1.06-0.994,0.886-1.947&#10;&#9;&#9;&#9;&#9;l-18.905-103.633c-0.174-0.953-0.853-1.627-1.516-1.507l0,0c-0.663,0.121-1.06,0.993-0.886,1.945L480.192,280.225z"/>
		</g>
		<g>
			<path fill="#9C819D" d="M458.917,180.709l4.824,96.527c0.048,0.943,0.632,1.682,1.306,1.65c0.672-0.037,1.18-0.828,1.133-1.773&#10;&#9;&#9;&#9;&#9;l-4.949-99.043C460.376,178.866,459.596,179.737,458.917,180.709z"/>
		</g>
		<g>
			
				<path d="M 437.923004 143.867996 H 441.865004 V 164.650997 H 437.923004 V 143.867996 Z" transform="matrix(-0.0518 -0.9987 0.9987 -0.0518 308.6183 601.55)" fill="#FEFFEC"/>
		</g>
		<g>
			
				<path d="M 440.131989 152.770004 H 444.073988 V 173.554005 H 440.131989 V 152.770004 Z" transform="matrix(-0.4457 -0.8952 0.8952 -0.4457 493.1018 631.644)" fill="#FFFAEE"/>
		</g>
		<g>
			
				<path d="M 445.029999 159.164993 H 448.971999 V 179.948994 H 445.029999 V 159.164993 Z" transform="matrix(-0.7482 -0.6635 0.6635 -0.7482 668.9507 592.9921)" fill="#FFFAEE"/>
		</g>
		<g>
			
				<path d="M 466.990997 162.584 H 470.932997 V 183.367001 H 466.990997 V 162.584 Z" transform="matrix(-0.9134 0.407 -0.407 -0.9134 967.7255 140.0888)" fill="#FDF5DE"/>
		</g>
		<g>
			
				<path d="M 432.734985 240.865997 H 495.675987 V 241.820997 H 432.734985 V 240.865997 Z" transform="matrix(0.4698 0.8828 -0.8828 0.4698 459.1685 -281.8276)" fill="#DFD2C6"/>
		</g>
		<g>
			
				<path d="M 472.755005 158.141006 H 476.697005 V 178.162006 H 472.755005 V 158.141006 Z" transform="matrix(-0.7095 0.7047 -0.7047 -0.7095 930.0474 -47.0744)" fill="#FDF5DE"/>
		</g>
		<g>
			
				<path d="M 477.019989 151.294998 H 480.960989 V 171.051998 H 477.019989 V 151.294998 Z" transform="matrix(-0.3404 0.9403 -0.9403 -0.3404 793.6003 -234.3398)" fill="#F4EAD3"/>
		</g>
		<g>
			
				<path d="M 478.220001 143.134995 H 482.162001 V 162.116995 H 478.220001 V 143.134995 Z" transform="matrix(0.0431 0.9991 -0.9991 0.0431 611.9741 -333.6984)" fill="#F4EAD3"/>
		</g>
		<g>
			
				<path d="M 476.514008 135.662994 H 480.456007 V 154.643995 H 476.514008 V 135.662994 Z" transform="matrix(0.3951 0.9186 -0.9186 0.3951 422.7796 -351.7508)" fill="#F4EAD3"/>
		</g>
		<g>
			<path d="M 449.43499755859375 213.08399963378906 L 442.4159851074219 212.3780059814453 L 442.2640075683594 213.33799743652344 L 449.37298583984375 214.03799438476562 L 449.406005859375 214.04200744628906 L 467.9809875488281 213.26499938964844 L 467.7950134277344 212.26699829101562 Z" fill="#EADFD6"/>
			<path d="M 468.2340087890625 213.25399780273438 L 444.6600036621094 270.17401123046875 L 432.27899169921875 267.04901123046875 L 432.0459899902344 267.97698974609375 L 445.22698974609375 271.3030090332031 L 469.69000244140625 212.23699951171875 L 468.97900390625 212.26699829101562 Z" fill="#EADFD6"/>
		</g>
		<g>
			
				<path d="M 472.144012 128.201996 H 476.086012 V 147.891996 H 472.144012 V 128.201996 Z" transform="matrix(0.7271 0.6866 -0.6866 0.7271 224.1791 -287.8334)" fill="#FDF5DE"/>
		</g>
		<g>
			
				<path d="M 466.134003 123.315002 H 470.075003 V 143.665003 H 466.134003 V 123.315002 Z" transform="matrix(0.9268 0.3757 -0.3757 0.9268 84.4317 -166.0704)" fill="#FDF5DE"/>
		</g>
		<g>
			<path fill="#FDF5DE" d="M460.471,164.908c-5.729,0-10.391-5.171-10.391-11.526c0-6.356,4.661-11.527,10.391-11.527&#10;&#9;&#9;&#9;&#9;c5.73,0,10.393,5.171,10.393,11.527C470.863,159.737,466.201,164.908,460.471,164.908z M460.471,142.333&#10;&#9;&#9;&#9;&#9;c-5.466,0-9.913,4.957-9.913,11.049s4.447,11.048,9.913,11.048c5.467,0,9.914-4.956,9.914-11.048&#10;&#9;&#9;&#9;&#9;S465.938,142.333,460.471,142.333z"/>
		</g>
		<g>
			
				<path d="M 452.868988 147.518005 H 462.040988 V 147.996005 H 452.868988 V 147.518005 Z" transform="matrix(0.6577 0.7533 -0.7533 0.6577 267.9148 -294.0256)" fill="#FDF5DE"/>
		</g>
		<g>
			
				<path d="M 455.878998 154.257996 H 456.355998 V 162.173995 H 455.878998 V 154.257996 Z" transform="matrix(0.5706 0.8212 -0.8212 0.5706 325.7634 -306.6313)" fill="#FDF5DE"/>
		</g>
		<g>
			
				<path d="M 461.802002 158.641998 H 468.615002 V 159.118998 H 461.802002 V 158.641998 Z" transform="matrix(0.5141 0.8577 -0.8577 0.5141 362.3008 -321.8192)" fill="#EADFD6"/>
		</g>
		<g>
			
				<path d="M 466.204987 146.511993 H 466.682987 V 153.720994 H 466.204987 V 146.511993 Z" transform="matrix(0.6953 0.7188 -0.7188 0.6953 250.047 -289.5162)" fill="#EADFD6"/>
		</g>
		<g>
			
				<path d="M 461.980988 253.233994 H 462.935988 V 287.404995 H 461.980988 V 253.233994 Z" transform="matrix(0.0245 0.9997 -0.9997 0.0245 721.3512 -198.6316)" fill="#DFD2C6"/>
		</g>
		<g>
			<path d="M 449.43499755859375 213.08399963378906 L 448.40399169921875 212.97999572753906 L 462.73699951171875 178.46099853515625 L 463.62298583984375 178.8179931640625 Z" fill="#DFD2C6"/>
		</g>
		<g>
			<path fill="#DFD2C6" d="M468.13,212.088c-6.088-12.687-14.768-30.684-15.399-31.523c0.058,0.076,0.308-1.104,0.308-1.104&#10;&#9;&#9;&#9;&#9;s0.336-0.062,8.435,16.633c3.936,8.114,7.529,15.602,7.568,15.684L468.13,212.088z"/>
		</g>
		<g>
			
				<path d="M 460.423004 164.673996 H 464.364004 V 185.456997 H 460.423004 V 164.673996 Z" transform="matrix(-0.9998 0.0182 -0.0182 -0.9998 927.8988 341.6799)" fill="#FDF5DE"/>
		</g>
		<g>
			<path fill="#EADFD6" d="M442.773,281.678c-0.077,0.967,0.404,1.791,1.076,1.848l0,0c0.672,0.053,1.279-0.688,1.357-1.652&#10;&#9;&#9;&#9;&#9;l8.461-105.003c0.078-0.965-0.403-1.792-1.075-1.847l0,0c-0.672-0.055-1.28,0.686-1.357,1.651L442.773,281.678z"/>
		</g>
		<g>
			
				<path d="M 451.269012 163.166 H 455.211012 V 183.950001 H 451.269012 V 163.166 Z" transform="matrix(-0.9314 -0.364 0.364 -0.9314 812.2086 500.1934)" fill="#FDF5DE"/>
		</g>
		<g>
			<path d="M 464.412997 153.815002 A 2.978 3.568 0 0 1 461.434998 157.383003 A 2.978 3.568 0 0 1 458.456998 153.815002 A 2.978 3.568 0 0 1 461.434998 150.247002 A 2.978 3.568 0 0 1 464.412997 153.815002 Z" fill="#FDF5DE"/>
		</g>
	</g>
	<g>
		<path opacity="0.8" fill="#E2BFA1" d="M496.229,285.494c0.323-0.508-2.033-1.047-5.188,0.051&#10;&#9;&#9;&#9;c-1.142,0.396-8.951,1.217-5.554,3.965C486.723,290.51,492.887,290.76,496.229,285.494z"/>
		<g>
			<path fill="#457480" d="M493.305,278.318c0.524,0.252,1.067,0.463,1.639,0.611v7.332c-0.519,0.209-1.074,0.346-1.639,0.469&#10;&#9;&#9;&#9;&#9;V278.318z"/>
			<path fill="#2A4252" d="M492.47,285.635v-7.76c0.271,0.162,0.552,0.307,0.835,0.443v8.412c-0.137,0.031-0.273,0.061-0.41,0.088&#10;&#9;&#9;&#9;&#9;C492.631,286.496,492.47,286.084,492.47,285.635z"/>
			<path fill="#5C99A3" d="M494.943,278.93c0.414,0.107,0.841,0.188,1.285,0.227v6.338c-0.384,0.338-0.818,0.58-1.285,0.768V278.93z&#10;&#9;&#9;&#9;&#9;"/>
			<path fill="#7AD3D6" d="M496.229,249.199v29.958c-0.444-0.039-0.871-0.119-1.285-0.227v-31.512&#10;&#9;&#9;&#9;&#9;C495.69,247.666,496.229,248.369,496.229,249.199z"/>
			<path fill="#5C99A3" d="M494.349,247.32c0.209,0,0.408,0.035,0.595,0.098v31.512c-0.571-0.148-1.114-0.359-1.639-0.611v-30.682&#10;&#9;&#9;&#9;&#9;C493.604,247.437,493.963,247.32,494.349,247.32z"/>
			<path fill="#365864" d="M492.47,249.199c0-0.651,0.331-1.225,0.835-1.562v30.682c-0.283-0.137-0.563-0.281-0.835-0.443V249.199z"/>
			<g>
				<path fill="#457480" d="M489.913,272.324c0.44-0.393,0.82-0.855,1.127-1.396c0.576,0.055,1.09,0.059,1.43,0.051v1.514&#10;&#9;&#9;&#9;&#9;&#9;C491.926,272.502,490.926,272.488,489.913,272.324z"/>
				<path fill="#5C99A3" d="M491.04,270.928c0.257-0.453,0.468-0.955,0.61-1.521c0.435,0.01,0.762-0.014,0.819-0.014v1.586&#10;&#9;&#9;&#9;&#9;&#9;C492.13,270.986,491.616,270.982,491.04,270.928z"/>
				<path fill="#2A4252" d="M492.47,272.492v1.141c0,0-1.425,0.137-3.732-0.484c0.427-0.229,0.818-0.506,1.176-0.824&#10;&#9;&#9;&#9;&#9;&#9;C490.926,272.488,491.926,272.502,492.47,272.492z"/>
				<path fill="#5C99A3" d="M487.787,269.66c0.707,0.844,2.101,1.158,3.253,1.268c-0.307,0.541-0.687,1.004-1.127,1.396&#10;&#9;&#9;&#9;&#9;&#9;c-0.843-0.139-1.693-0.381-2.295-0.805c-1.639-1.156-2.061-2.703-2.108-3.668c-0.037-0.734-0.021-4.826-0.012-6.727&#10;&#9;&#9;&#9;&#9;&#9;c0.199-0.053,0.422-0.088,0.681-0.088c0.216,0,0.404,0.023,0.571,0.061c0.001,0.857,0.001,2.34,0.001,3.203&#10;&#9;&#9;&#9;&#9;&#9;C486.751,265.57,486.454,268.068,487.787,269.66z"/>
				<path fill="#7AD3D6" d="M487.787,269.66c-1.333-1.592-1.036-4.09-1.036-5.359c0-0.863,0-2.346-0.001-3.203&#10;&#9;&#9;&#9;&#9;&#9;c1.231,0.277,1.213,1.428,1.213,1.428s-0.023,3.445,0.072,4.168c0.097,0.723,0.416,1.602,1.428,2.229&#10;&#9;&#9;&#9;&#9;&#9;c0.611,0.379,1.525,0.471,2.188,0.484c-0.143,0.566-0.354,1.068-0.61,1.521C489.888,270.818,488.494,270.504,487.787,269.66z"/>
				<path fill="#365864" d="M484.42,262.398c0-0.555,0.346-1.074,1.078-1.273c-0.01,1.9-0.025,5.992,0.012,6.727&#10;&#9;&#9;&#9;&#9;&#9;c0.048,0.965,0.47,2.512,2.108,3.668c0.602,0.424,1.452,0.666,2.295,0.805c-0.357,0.318-0.749,0.596-1.176,0.824&#10;&#9;&#9;&#9;&#9;&#9;c-0.058-0.016-0.113-0.029-0.172-0.045c-2.409-0.676-4.171-3.061-4.145-4.916C484.436,267.127,484.42,263.268,484.42,262.398z"/>
			</g>
			<g>
				<path fill="#457480" d="M498.559,263.785c-0.401-0.357-0.748-0.781-1.027-1.273c-0.524,0.051-0.993,0.053-1.303,0.047v1.381&#10;&#9;&#9;&#9;&#9;&#9;C496.724,263.947,497.635,263.936,498.559,263.785z"/>
				<path fill="#2A4252" d="M496.229,263.939v1.037c0,0,1.299,0.123,3.401-0.441c-0.39-0.209-0.746-0.461-1.071-0.75&#10;&#9;&#9;&#9;&#9;&#9;C497.635,263.936,496.724,263.947,496.229,263.939z"/>
				<path fill="#5C99A3" d="M500.496,261.357c-0.646,0.768-1.915,1.055-2.965,1.154c0.279,0.492,0.626,0.916,1.027,1.273&#10;&#9;&#9;&#9;&#9;&#9;c0.768-0.125,1.543-0.348,2.091-0.734c1.493-1.053,1.878-2.463,1.921-3.342c0.034-0.67,0.02-4.398,0.012-6.129&#10;&#9;&#9;&#9;&#9;&#9;c-0.183-0.049-0.385-0.082-0.621-0.08c-0.197,0-0.369,0.021-0.521,0.055c-0.001,0.781-0.001,2.133-0.001,2.92&#10;&#9;&#9;&#9;&#9;&#9;C501.439,257.631,501.71,259.908,500.496,261.357z"/>
				<path fill="#7AD3D6" d="M500.496,261.357c1.214-1.449,0.943-3.727,0.943-4.883c0-0.787,0-2.139,0.001-2.92&#10;&#9;&#9;&#9;&#9;&#9;c-1.122,0.254-1.105,1.301-1.105,1.301s0.022,3.141-0.066,3.799c-0.088,0.658-0.378,1.459-1.301,2.031&#10;&#9;&#9;&#9;&#9;&#9;c-0.557,0.344-1.39,0.428-1.993,0.441c0.131,0.516,0.322,0.973,0.557,1.385C498.581,262.412,499.851,262.125,500.496,261.357z"/>
				<path fill="#365864" d="M503.563,254.74c0-0.504-0.314-0.979-0.981-1.16c0.008,1.73,0.022,5.459-0.012,6.129&#10;&#9;&#9;&#9;&#9;&#9;c-0.043,0.879-0.428,2.289-1.921,3.342c-0.548,0.387-1.323,0.609-2.091,0.734c0.325,0.289,0.682,0.541,1.071,0.75&#10;&#9;&#9;&#9;&#9;&#9;c0.052-0.014,0.103-0.025,0.156-0.041c2.195-0.613,3.8-2.789,3.776-4.479C503.549,259.049,503.563,255.531,503.563,254.74z"/>
				<path fill="#5C99A3" d="M497.531,262.512c-0.234-0.412-0.227-0.885-0.111-1.408c-0.419,0.029-1.139,0.01-1.191,0.01v1.445&#10;&#9;&#9;&#9;&#9;&#9;C496.538,262.564,497.007,262.562,497.531,262.512z"/>
			</g>
		</g>
	</g>
	<g>
		<path opacity="0.6" fill="#E2BFA1" d="M423.262,275.691c-0.136-0.404-8.581-0.311-9.459-0.24&#10;&#9;&#9;&#9;c-2.509,0.201,1.543,2.307,3.201,2.346C417.935,277.818,423.736,277.092,423.262,275.691z"/>
		<g>
			<path fill="#457480" d="M421.133,270.623c0.382,0.178,0.777,0.328,1.193,0.434v5.178c-0.378,0.146-0.782,0.244-1.193,0.332&#10;&#9;&#9;&#9;&#9;V270.623z"/>
			<path fill="#2A4252" d="M420.524,275.791v-5.48c0.197,0.115,0.401,0.217,0.608,0.312v5.943c-0.1,0.021-0.199,0.041-0.299,0.061&#10;&#9;&#9;&#9;&#9;C420.642,276.4,420.524,276.109,420.524,275.791z"/>
			<path fill="#5C99A3" d="M422.326,271.057c0.302,0.076,0.612,0.131,0.936,0.158v4.477c-0.278,0.238-0.596,0.41-0.936,0.543&#10;&#9;&#9;&#9;&#9;V271.057z"/>
			<path fill="#7AD3D6" d="M423.262,250.056v21.159c-0.323-0.027-0.634-0.082-0.936-0.158v-22.258&#10;&#9;&#9;&#9;&#9;C422.87,248.974,423.262,249.47,423.262,250.056z"/>
			<path fill="#5C99A3" d="M421.894,248.73c0.151,0,0.297,0.024,0.433,0.068v22.258c-0.416-0.105-0.812-0.256-1.193-0.434v-21.67&#10;&#9;&#9;&#9;&#9;C421.351,248.812,421.612,248.73,421.894,248.73z"/>
			<path fill="#365864" d="M420.524,250.056c0-0.459,0.24-0.865,0.608-1.104v21.67c-0.207-0.096-0.411-0.197-0.608-0.312V250.056z"/>
			<g>
				<path fill="#457480" d="M418.662,266.391c0.32-0.277,0.598-0.605,0.82-0.986c0.42,0.037,0.794,0.041,1.042,0.035v1.07&#10;&#9;&#9;&#9;&#9;&#9;C420.128,266.516,419.399,266.506,418.662,266.391z"/>
				<path fill="#5C99A3" d="M419.482,265.404c0.188-0.32,0.341-0.676,0.444-1.074c0.316,0.006,0.556-0.01,0.598-0.01v1.119&#10;&#9;&#9;&#9;&#9;&#9;C420.276,265.445,419.902,265.441,419.482,265.404z"/>
				<path fill="#2A4252" d="M420.524,266.51v0.805c0,0-1.038,0.096-2.72-0.342c0.312-0.162,0.597-0.357,0.857-0.582&#10;&#9;&#9;&#9;&#9;&#9;C419.399,266.506,420.128,266.516,420.524,266.51z"/>
				<path fill="#5C99A3" d="M417.113,264.508c0.515,0.596,1.529,0.82,2.369,0.896c-0.223,0.381-0.5,0.709-0.82,0.986&#10;&#9;&#9;&#9;&#9;&#9;c-0.614-0.098-1.234-0.27-1.672-0.568c-1.193-0.816-1.501-1.91-1.536-2.59c-0.027-0.52-0.017-3.41-0.008-4.752&#10;&#9;&#9;&#9;&#9;&#9;c0.145-0.039,0.307-0.062,0.495-0.062c0.157,0,0.294,0.016,0.416,0.043c0.001,0.605,0.001,1.652,0.001,2.264&#10;&#9;&#9;&#9;&#9;&#9;C416.358,261.621,416.142,263.385,417.113,264.508z"/>
				<path fill="#7AD3D6" d="M417.113,264.508c-0.972-1.123-0.755-2.887-0.755-3.783c0-0.611,0-1.658-0.001-2.264&#10;&#9;&#9;&#9;&#9;&#9;c0.897,0.195,0.883,1.008,0.883,1.008s-0.017,2.434,0.053,2.943c0.07,0.512,0.304,1.133,1.041,1.576&#10;&#9;&#9;&#9;&#9;&#9;c0.445,0.266,1.11,0.332,1.593,0.342c-0.104,0.398-0.257,0.754-0.444,1.074C418.643,265.328,417.628,265.104,417.113,264.508z"/>
				<path fill="#365864" d="M414.66,259.379c0-0.391,0.252-0.758,0.786-0.898c-0.009,1.342-0.02,4.232,0.008,4.752&#10;&#9;&#9;&#9;&#9;&#9;c0.035,0.68,0.343,1.773,1.536,2.59c0.438,0.299,1.058,0.471,1.672,0.568c-0.261,0.225-0.546,0.42-0.857,0.582&#10;&#9;&#9;&#9;&#9;&#9;c-0.041-0.012-0.082-0.02-0.125-0.031c-1.754-0.477-3.039-2.162-3.019-3.473C414.671,262.719,414.66,259.992,414.66,259.379z"/>
			</g>
			<g>
				<path fill="#457480" d="M424.959,260.357c-0.292-0.252-0.545-0.551-0.748-0.898c-0.382,0.035-0.724,0.037-0.949,0.033v0.975&#10;&#9;&#9;&#9;&#9;&#9;C423.623,260.473,424.286,260.465,424.959,260.357z"/>
				<path fill="#2A4252" d="M423.262,260.467v0.734c0,0,0.947,0.088,2.479-0.312c-0.284-0.146-0.543-0.326-0.781-0.531&#10;&#9;&#9;&#9;&#9;&#9;C424.286,260.465,423.623,260.473,423.262,260.467z"/>
				<path fill="#5C99A3" d="M426.371,258.645c-0.47,0.541-1.395,0.744-2.16,0.814c0.203,0.348,0.456,0.646,0.748,0.898&#10;&#9;&#9;&#9;&#9;&#9;c0.561-0.088,1.124-0.244,1.524-0.518c1.088-0.744,1.368-1.738,1.399-2.359c0.024-0.473,0.014-3.107,0.008-4.33&#10;&#9;&#9;&#9;&#9;&#9;c-0.133-0.035-0.28-0.057-0.452-0.057c-0.145,0-0.27,0.016-0.379,0.039c-0.001,0.553-0.001,1.506-0.001,2.062&#10;&#9;&#9;&#9;&#9;&#9;C427.059,256.012,427.256,257.621,426.371,258.645z"/>
				<path fill="#7AD3D6" d="M426.371,258.645c0.885-1.023,0.688-2.633,0.688-3.449c0-0.557,0-1.51,0.001-2.062&#10;&#9;&#9;&#9;&#9;&#9;c-0.818,0.18-0.806,0.918-0.806,0.918s0.016,2.219-0.049,2.684c-0.063,0.465-0.274,1.031-0.947,1.436&#10;&#9;&#9;&#9;&#9;&#9;c-0.405,0.242-1.013,0.303-1.452,0.311c0.095,0.365,0.235,0.688,0.405,0.979C424.977,259.389,425.901,259.186,426.371,258.645z"/>
				<path fill="#365864" d="M428.605,253.971c0-0.357-0.229-0.691-0.715-0.82c0.006,1.223,0.017,3.857-0.008,4.33&#10;&#9;&#9;&#9;&#9;&#9;c-0.031,0.621-0.312,1.615-1.399,2.359c-0.4,0.273-0.964,0.43-1.524,0.518c0.238,0.205,0.497,0.385,0.781,0.531&#10;&#9;&#9;&#9;&#9;&#9;c0.038-0.01,0.074-0.018,0.113-0.029c1.6-0.434,2.769-1.969,2.751-3.164C428.595,257.014,428.605,254.529,428.605,253.971z"/>
				<path fill="#5C99A3" d="M424.211,259.459c-0.17-0.291-0.164-0.625-0.081-0.994c-0.305,0.02-0.829,0.006-0.868,0.006v1.021&#10;&#9;&#9;&#9;&#9;&#9;C423.487,259.496,423.829,259.494,424.211,259.459z"/>
			</g>
		</g>
	</g>
</g>
</svg>