<?xml version="1.0" encoding="utf-8"?>
<svg id="master-artboard" viewBox="0 0 2850 2005.158" version="1.1" xmlns="http://www.w3.org/2000/svg" x="0px" y="0px" width="2850px" height="2005.157958984375px" enable-background="new 0 0 2850 2005.158" xmlns:xlink="http://www.w3.org/1999/xlink">
<defs>
		<path d="M 0 0 H 2850 V 2005.157959 H 0 V 0 Z" id="SVGID_1_"/>
	</defs><clipPath id="SVGID_2_">
		<use overflow="visible" xlink:href="#SVGID_1_"/>
	</clipPath><linearGradient id="SVGID_3_" gradientUnits="userSpaceOnUse" x1="1424.9995" y1="-25.1191" x2="1424.9995" y2="1194.7983">
		<stop offset="0" style="stop-color:#2F3A80"/>
		<stop offset="1" style="stop-color:#4E82CC"/>
	</linearGradient><path d="M 0 0 H 2850 V 2005.157959 H 0 V 0 Z" clip-path="url(#SVGID_2_)" fill="url(#SVGID_3_)" transform="matrix(1, 0, 0, 1, 2.842170943040401e-14, 7.105427357601002e-15)"/><path d="M 613.737 117.720001 L 721.268005 117.720001" opacity="0.42" fill="none" stroke="#FFFFFF" stroke-width="0.5749" stroke-linecap="round" stroke-miterlimit="10" transform="matrix(1, 0, 0, 1, 5.684341886080802e-14, 1.4210854715202004e-14)"/><path d="M 865.229004 117.720001 L 1272.472046 117.720001" opacity="0.42" fill="none" stroke="#FFFFFF" stroke-width="0.5749" stroke-linecap="round" stroke-miterlimit="10" transform="matrix(1, 0, 0, 1, 5.684341886080802e-14, 1.4210854715202004e-14)"/><path d="M 1457.412964 117.720001 L 1600.920044 117.720001" opacity="0.42" fill="none" stroke="#FFFFFF" stroke-width="0.5749" stroke-linecap="round" stroke-miterlimit="10" transform="matrix(1, 0, 0, 1, 5.684341886080802e-14, 1.4210854715202004e-14)"/><path d="M 2332.850098 117.720001 L 2489.486084 117.720001" opacity="0.42" fill="none" stroke="#FFFFFF" stroke-width="0.5749" stroke-linecap="round" stroke-miterlimit="10" transform="matrix(1, 0, 0, 1, 5.684341886080802e-14, 1.4210854715202004e-14)"/><path d="M 2591.217041 117.720001 L 2640.190918 117.720001" opacity="0.42" fill="none" stroke="#FFFFFF" stroke-width="0.5749" stroke-linecap="round" stroke-miterlimit="10" transform="matrix(1, 0, 0, 1, 5.684341886080802e-14, 1.4210854715202004e-14)"/><path d="M 149.863007 117.720001 L 198.837006 117.720001" opacity="0.42" fill="none" stroke="#FFFFFF" stroke-width="0.5749" stroke-linecap="round" stroke-miterlimit="10" transform="matrix(1, 0, 0, 1, 5.684341886080802e-14, 1.4210854715202004e-14)"/><path d="M 310.049988 117.720001 L 485.973999 117.720001" opacity="0.42" fill="none" stroke="#FFFFFF" stroke-width="0.5749" stroke-linecap="round" stroke-miterlimit="10" transform="matrix(1, 0, 0, 1, 5.684341886080802e-14, 1.4210854715202004e-14)"/><path d="M 919.007019 189.787994 L 956.632019 189.787994" opacity="0.42" fill="none" stroke="#FFFFFF" stroke-width="0.5749" stroke-linecap="round" stroke-miterlimit="10" transform="matrix(1, 0, 0, 1, 5.684341886080802e-14, 1.4210854715202004e-14)"/><path d="M 1258.621948 189.787994 L 1365.199951 189.787994" opacity="0.42" fill="none" stroke="#FFFFFF" stroke-width="0.5749" stroke-linecap="round" stroke-miterlimit="10" transform="matrix(1, 0, 0, 1, 5.684341886080802e-14, 1.4210854715202004e-14)"/><path d="M 1578.322021 189.787994 L 1623.500977 189.787994" opacity="0.42" fill="none" stroke="#FFFFFF" stroke-width="0.5749" stroke-linecap="round" stroke-miterlimit="10" transform="matrix(1, 0, 0, 1, 5.684341886080802e-14, 1.4210854715202004e-14)"/><path d="M 546.04303 65.775002 L 591.213989 65.775002" opacity="0.42" fill="none" stroke="#FFFFFF" stroke-width="0.5749" stroke-linecap="round" stroke-miterlimit="10" transform="matrix(1, 0, 0, 1, 5.684341886080802e-14, 1.4210854715202004e-14)"/><path d="M 2052.729004 90.394997 L 2097.891113 90.394997" opacity="0.42" fill="none" stroke="#FFFFFF" stroke-width="0.5749" stroke-linecap="round" stroke-miterlimit="10" transform="matrix(1, 0, 0, 1, 5.684341886080802e-14, 1.4210854715202004e-14)"/><path d="M 2411.129883 189.787994 L 2455.125 189.787994" opacity="0.42" fill="none" stroke="#FFFFFF" stroke-width="0.5749" stroke-linecap="round" stroke-miterlimit="10" transform="matrix(1, 0, 0, 1, 5.684341886080802e-14, 1.4210854715202004e-14)"/><path d="M 1075.420044 261.856995 L 1125.370972 261.856995" opacity="0.42" fill="none" stroke="#FFFFFF" stroke-width="0.5749" stroke-linecap="round" stroke-miterlimit="10" transform="matrix(1, 0, 0, 1, 5.684341886080802e-14, 1.4210854715202004e-14)"/><path d="M 1856.041016 261.856995 L 1891.014038 261.856995" opacity="0.42" fill="none" stroke="#FFFFFF" stroke-width="0.5749" stroke-linecap="round" stroke-miterlimit="10" transform="matrix(1, 0, 0, 1, 5.684341886080802e-14, 1.4210854715202004e-14)"/><path opacity="0.42" fill="none" stroke="#FFFFFF" stroke-width="0.5749" stroke-linecap="round" stroke-miterlimit="10" d="&#10;&#9;&#9;&#9;M2198.787,261.857c10.006,0,20.013,0,30.019,0" transform="matrix(1, 0, 0, 1, 5.684341886080802e-14, 1.4210854715202004e-14)"/><path d="M 2622.065918 261.856995 L 2708.827881 261.856995" opacity="0.42" fill="none" stroke="#FFFFFF" stroke-width="0.5749" stroke-linecap="round" stroke-miterlimit="10" transform="matrix(1, 0, 0, 1, 5.684341886080802e-14, 1.4210854715202004e-14)"/><path d="M 1074.69104 534.812012 L 913.34198 534.812012" opacity="0.42" fill="none" stroke="#FFFFFF" stroke-width="0.5749" stroke-linecap="round" stroke-miterlimit="10" transform="matrix(1, 0, 0, 1, 5.684341886080802e-14, 1.4210854715202004e-14)"/><path d="M 927.969971 606.880981 L 891.473022 606.880981" opacity="0.42" fill="none" stroke="#FFFFFF" stroke-width="0.5749" stroke-linecap="round" stroke-miterlimit="10" transform="matrix(1, 0, 0, 1, 5.684341886080802e-14, 1.4210854715202004e-14)"/><path d="M 819.156006 606.880981 L 700.103027 606.880981" opacity="0.42" fill="none" stroke="#FFFFFF" stroke-width="0.5749" stroke-linecap="round" stroke-miterlimit="10" transform="matrix(1, 0, 0, 1, 5.684341886080802e-14, 1.4210854715202004e-14)"/><path d="M 891.473022 678.958008 L 812.893982 678.958008" opacity="0.42" fill="none" stroke="#FFFFFF" stroke-width="0.5749" stroke-linecap="round" stroke-miterlimit="10" transform="matrix(1, 0, 0, 1, 5.684341886080802e-14, 1.4210854715202004e-14)"/><path d="M 1172 614.791016 L 1062.985962 614.791016" opacity="0.42" fill="none" stroke="#FFFFFF" stroke-width="0.5749" stroke-linecap="round" stroke-miterlimit="10" transform="matrix(1, 0, 0, 1, 5.684341886080802e-14, 1.4210854715202004e-14)"/><path d="M 1333.505981 422.553986 L 1224.493042 422.553986" opacity="0.42" fill="none" stroke="#FFFFFF" stroke-width="0.5749" stroke-linecap="round" stroke-miterlimit="10" transform="matrix(1, 0, 0, 1, 5.684341886080802e-14, 1.4210854715202004e-14)"/><path d="M 1583.67395 309.122986 L 1474.660034 309.122986" opacity="0.42" fill="none" stroke="#FFFFFF" stroke-width="0.5749" stroke-linecap="round" stroke-miterlimit="10" transform="matrix(1, 0, 0, 1, 5.684341886080802e-14, 1.4210854715202004e-14)"/><path d="M 2120.299072 189.787994 L 1890.352051 189.787994" opacity="0.42" fill="none" stroke="#FFFFFF" stroke-width="0.5749" stroke-linecap="round" stroke-miterlimit="10" transform="matrix(1, 0, 0, 1, 5.684341886080802e-14, 1.4210854715202004e-14)"/><path d="M 955.025024 331.178009 L 793.674988 331.178009" opacity="0.42" fill="none" stroke="#FFFFFF" stroke-width="0.5749" stroke-linecap="round" stroke-miterlimit="10" transform="matrix(1, 0, 0, 1, 5.684341886080802e-14, 1.4210854715202004e-14)"/><path d="M 808.304993 403.247009 L 771.807007 403.247009" opacity="0.42" fill="none" stroke="#FFFFFF" stroke-width="0.5749" stroke-linecap="round" stroke-miterlimit="10" transform="matrix(1, 0, 0, 1, 5.684341886080802e-14, 1.4210854715202004e-14)"/><path d="M 699.491028 403.247009 L 580.437012 403.247009" opacity="0.42" fill="none" stroke="#FFFFFF" stroke-width="0.5749" stroke-linecap="round" stroke-miterlimit="10" transform="matrix(1, 0, 0, 1, 5.684341886080802e-14, 1.4210854715202004e-14)"/><path d="M 771.807007 475.324005 L 693.228027 475.324005" opacity="0.42" fill="none" stroke="#FFFFFF" stroke-width="0.5749" stroke-linecap="round" stroke-miterlimit="10" transform="matrix(1, 0, 0, 1, 5.684341886080802e-14, 1.4210854715202004e-14)"/><path d="M 1052.333984 411.156006 L 943.320007 411.156006" opacity="0.42" fill="none" stroke="#FFFFFF" stroke-width="0.5749" stroke-linecap="round" stroke-miterlimit="10" transform="matrix(1, 0, 0, 1, 5.684341886080802e-14, 1.4210854715202004e-14)"/><path opacity="0.42" fill="none" stroke="#FFFFFF" stroke-width="0.5749" stroke-linecap="round" stroke-miterlimit="10" d="&#10;&#9;&#9;&#9;M2468.693,687.05c11.846,0,23.699,0,35.544,0" transform="matrix(1, 0, 0, 1, 5.684341886080802e-14, 1.4210854715202004e-14)"/><path opacity="0.42" fill="none" stroke="#FFFFFF" stroke-width="0.5749" stroke-linecap="round" stroke-miterlimit="10" d="&#10;&#9;&#9;&#9;M2703.079,670.507c8.118,0,16.236,0,24.364,0" transform="matrix(1, 0, 0, 1, 5.684341886080802e-14, 1.4210854715202004e-14)"/><path opacity="0.42" fill="none" stroke="#FFFFFF" stroke-width="0.5749" stroke-linecap="round" stroke-miterlimit="10" d="&#10;&#9;&#9;&#9;M2567.253,333.934c16.46,0,32.896,0,49.354,0" transform="matrix(1, 0, 0, 1, 5.684341886080802e-14, 1.4210854715202004e-14)"/><path d="M 2429.022949 583.859009 L 2320.01001 583.859009" opacity="0.42" fill="none" stroke="#FFFFFF" stroke-width="0.5749" stroke-linecap="round" stroke-miterlimit="10" transform="matrix(1, 0, 0, 1, 5.684341886080802e-14, 1.4210854715202004e-14)"/><path opacity="0.42" fill="none" stroke="#FFFFFF" stroke-width="0.5749" stroke-linecap="round" stroke-miterlimit="10" d="&#10;&#9;&#9;&#9;M2251.827,454.102c57.248,0,114.505,0,171.753,0" transform="matrix(1, 0, 0, 1, 5.684341886080802e-14, 1.4210854715202004e-14)"/><path opacity="0.42" fill="none" stroke="#FFFFFF" stroke-width="0.5749" stroke-linecap="round" stroke-miterlimit="10" d="&#10;&#9;&#9;&#9;M2598.424,406.011c35.984,0,71.953,0,107.938,0" transform="matrix(1, 0, 0, 1, 5.684341886080802e-14, 1.4210854715202004e-14)"/><path opacity="0.42" fill="none" stroke="#FFFFFF" stroke-width="0.5749" stroke-linecap="round" stroke-miterlimit="10" d="&#10;&#9;&#9;&#9;M1137.581,65.775c35.968,0,71.953,0,107.937,0" transform="matrix(1, 0, 0, 1, 5.684341886080802e-14, 1.4210854715202004e-14)"/><path opacity="0.42" fill="none" stroke="#FFFFFF" stroke-width="0.5749" stroke-linecap="round" stroke-miterlimit="10" d="&#10;&#9;&#9;&#9;M680.503,188.381c35.985,0,71.952,0,107.937,0" transform="matrix(1, 0, 0, 1, 5.684341886080802e-14, 1.4210854715202004e-14)"/><path d="M 1505.343018 608.961975 L 1542.984009 608.961975" opacity="0.42" fill="none" stroke="#FFFFFF" stroke-width="0.5749" stroke-linecap="round" stroke-miterlimit="10" transform="matrix(1, 0, 0, 1, 5.684341886080802e-14, 1.4210854715202004e-14)"/><path d="M 1541.369019 750.351013 L 1380.019043 750.351013" opacity="0.42" fill="none" stroke="#FFFFFF" stroke-width="0.5749" stroke-linecap="round" stroke-miterlimit="10" transform="matrix(1, 0, 0, 1, 5.684341886080802e-14, 1.4210854715202004e-14)"/><path opacity="0.42" fill="none" stroke="#FFFFFF" stroke-width="0.5749" stroke-linecap="round" stroke-miterlimit="10" d="&#10;&#9;&#9;&#9;M1266.848,607.555c35.976,0,71.96,0,107.937,0" transform="matrix(1, 0, 0, 1, 5.684341886080802e-14, 1.4210854715202004e-14)"/><path opacity="0.42" fill="none" stroke="#FFFFFF" stroke-width="0.5749" stroke-linecap="round" stroke-miterlimit="10" d="&#10;&#9;&#9;&#9;M2391.829,494.623c14.058,0,28.116,0,42.173,0" transform="matrix(1, 0, 0, 1, 5.684341886080802e-14, 1.4210854715202004e-14)"/><path d="M 2685.336914 478.079987 L 2771.419922 478.079987" opacity="0.42" fill="none" stroke="#FFFFFF" stroke-width="0.5749" stroke-linecap="round" stroke-miterlimit="10" transform="matrix(1, 0, 0, 1, 5.684341886080802e-14, 1.4210854715202004e-14)"/><path opacity="0.42" fill="none" stroke="#FFFFFF" stroke-width="0.5749" stroke-linecap="round" stroke-miterlimit="10" d="&#10;&#9;&#9;&#9;M263.408,225.822c35.976,0,71.956,0,107.937,0" transform="matrix(1, 0, 0, 1, 5.684341886080802e-14, 1.4210854715202004e-14)"/><path d="M 350.31601 297.890991 L 436.395996 297.890991" opacity="0.42" fill="none" stroke="#FFFFFF" stroke-width="0.5749" stroke-linecap="round" stroke-miterlimit="10" transform="matrix(1, 0, 0, 1, 5.684341886080802e-14, 1.4210854715202004e-14)"/><path opacity="0.42" fill="none" stroke="#FFFFFF" stroke-width="0.5749" stroke-linecap="round" stroke-miterlimit="10" d="&#10;&#9;&#9;&#9;M1549.644,478.08c14.323,0,28.646,0,42.977,0" transform="matrix(1, 0, 0, 1, 5.684341886080802e-14, 1.4210854715202004e-14)"/><path opacity="0.1" clip-path="url(#SVGID_2_)" fill="#C6C6C6" d="M2251.487,651.148c0-183.984-148.394-333.117-331.431-333.117&#10;&#9;&#9;c-31.726,0-62.376,4.562-91.418,12.939c0.066-0.058,0.132-0.117,0.199-0.167c-1.376,0.4-2.734,0.858-4.109,1.274&#10;&#9;&#9;c-1.938,0.59-3.868,1.174-5.781,1.789c-3.049,0.983-6.057,2.016-9.063,3.082c-1.723,0.616-3.463,1.199-5.185,1.84&#10;&#9;&#9;c-3.936,1.474-7.829,3.022-11.697,4.637c-0.854,0.358-1.715,0.692-2.568,1.049c-4.34,1.866-8.623,3.813-12.864,5.846&#10;&#9;&#9;c-1.615,0.782-3.197,1.598-4.796,2.397c-2.842,1.432-5.674,2.864-8.466,4.363c-1.765,0.949-3.513,1.915-5.261,2.896&#10;&#9;&#9;c-2.608,1.465-5.202,2.964-7.77,4.488c-1.724,1.041-3.446,2.056-5.145,3.114c-2.684,1.665-5.326,3.389-7.952,5.128&#10;&#9;&#9;c-1.482,0.974-2.981,1.94-4.448,2.939c-3.951,2.697-7.861,5.478-11.688,8.343c-0.871,0.657-1.707,1.365-2.577,2.014&#10;&#9;&#9;c-3.024,2.315-6.021,4.663-8.954,7.078c-1.482,1.216-2.933,2.473-4.391,3.713c-2.286,1.948-4.557,3.914-6.793,5.912&#10;&#9;&#9;c-1.524,1.382-3.031,2.772-4.539,4.17c-2.146,1.999-4.258,4.03-6.346,6.078c-1.441,1.416-2.883,2.822-4.291,4.263&#10;&#9;&#9;c-2.236,2.273-4.415,4.604-6.585,6.944c-1.168,1.257-2.36,2.489-3.513,3.772c-3.181,3.538-6.287,7.143-9.319,10.815&#10;&#9;&#9;c-0.936,1.14-1.83,2.322-2.759,3.471c-2.145,2.681-4.273,5.379-6.345,8.126c-1.185,1.565-2.319,3.164-3.472,4.746&#10;&#9;&#9;c-1.756,2.415-3.486,4.846-5.176,7.31c-1.16,1.698-2.304,3.397-3.438,5.112c-1.642,2.498-3.239,5.021-4.822,7.56&#10;&#9;&#9;c-1.035,1.682-2.088,3.347-3.098,5.045c-1.756,2.947-3.446,5.937-5.119,8.941c-0.729,1.316-1.5,2.614-2.212,3.939&#10;&#9;&#9;c-2.287,4.254-4.473,8.55-6.577,12.913c-0.704,1.465-1.358,2.956-2.047,4.429c-1.408,3.047-2.808,6.111-4.133,9.191&#10;&#9;&#9;c-0.771,1.816-1.516,3.647-2.253,5.479c-1.168,2.839-2.295,5.703-3.372,8.584c-0.712,1.907-1.408,3.796-2.087,5.703&#10;&#9;&#9;c-1.062,2.98-2.055,5.978-3.032,8.992c-0.58,1.798-1.176,3.597-1.731,5.412c-1.143,3.771-2.203,7.577-3.223,11.407&#10;&#9;&#9;c-0.281,1.065-0.604,2.115-0.877,3.18c-1.227,4.83-2.337,9.709-3.355,14.621c-0.339,1.648-0.621,3.314-0.944,4.979&#10;&#9;&#9;c-0.646,3.38-1.268,6.777-1.806,10.19c-0.315,1.965-0.597,3.947-0.87,5.928c-0.455,3.197-0.861,6.412-1.227,9.642&#10;&#9;&#9;c-0.215,2.015-0.438,4.03-0.629,6.061c-0.314,3.397-0.563,6.819-0.779,10.25c-0.107,1.823-0.248,3.639-0.339,5.47&#10;&#9;&#9;c-0.224,4.887-0.356,9.808-0.373,14.761c0,0.326-0.017,0.643-0.017,0.958c0,183.969,148.377,333.102,331.43,333.102&#10;&#9;&#9;c5.203,0,10.372-0.15,15.517-0.383c1.59-0.074,3.163-0.191,4.746-0.283c3.645-0.225,7.265-0.499,10.868-0.832&#10;&#9;&#9;c1.707-0.167,3.404-0.325,5.103-0.517c3.786-0.408,7.546-0.899,11.291-1.44c1.3-0.183,2.609-0.342,3.901-0.55&#10;&#9;&#9;c4.986-0.774,9.949-1.657,14.861-2.665c0.91-0.191,1.821-0.407,2.733-0.607c4.009-0.85,7.993-1.782,11.944-2.773&#10;&#9;&#9;c1.558-0.391,3.09-0.807,4.631-1.223c3.412-0.917,6.81-1.882,10.181-2.897c1.499-0.45,2.999-0.908,4.498-1.383&#10;&#9;&#9;c3.984-1.265,7.944-2.614,11.862-4.029c0.721-0.267,1.458-0.5,2.179-0.766c4.647-1.715,9.228-3.546,13.767-5.461&#10;&#9;&#9;c1.169-0.483,2.312-1.016,3.479-1.516c3.38-1.481,6.743-2.997,10.065-4.58c1.433-0.683,2.857-1.382,4.282-2.081&#10;&#9;&#9;c3.182-1.573,6.337-3.197,9.46-4.871c1.251-0.666,2.51-1.314,3.744-1.989c4.283-2.364,8.517-4.796,12.675-7.327&#10;&#9;&#9;c0.182-0.117,0.348-0.233,0.521-0.333c3.969-2.431,7.862-4.962,11.722-7.551c1.243-0.841,2.478-1.707,3.712-2.572&#10;&#9;&#9;c1.607-1.108,3.247-2.182,4.829-3.331c-0.083,0.025-0.166,0.033-0.248,0.066C2196.55,861.944,2251.487,763.023,2251.487,651.148z" transform="matrix(1, 0, 0, 1, 2.842170943040401e-14, 7.105427357601002e-15)"/><path fill="#EDEDED" d="M1920.057,390.767c143.076,0,259.056,116.57,259.056,260.382c0,143.797-115.979,260.366-259.056,260.366&#10;&#9;&#9;&#9;c-143.075,0-259.062-116.569-259.062-260.366C1660.994,507.336,1776.981,390.767,1920.057,390.767z" transform="matrix(1, 0, 0, 1, 5.684341886080802e-14, 1.4210854715202004e-14)"/><path fill="#DADADA" d="M2070.572,863.076c-42.421,30.506-94.385,48.439-150.516,48.439&#10;&#9;&#9;&#9;c-143.075,0-259.062-116.569-259.062-260.366c0-118.951,79.373-219.27,187.766-250.391&#10;&#9;&#9;&#9;c-65.698,47.24-108.525,124.554-108.525,211.934c0,143.805,115.989,260.375,259.072,260.375&#10;&#9;&#9;&#9;C2024.018,873.067,2047.932,869.586,2070.572,863.076z" transform="matrix(1, 0, 0, 1, 5.684341886080802e-14, 1.4210854715202004e-14)"/><path fill="#DADADA" d="M1786.052,559.181c-13.428-12.08-7.596-40.638,13.014-63.767c20.618-23.122,48.212-32.081,61.631-20.008&#10;&#9;&#9;&#9;c13.42,12.09,7.597,40.639-13.022,63.776C1827.057,562.304,1799.472,571.263,1786.052,559.181z" transform="matrix(1, 0, 0, 1, 5.684341886080802e-14, 1.4210854715202004e-14)"/><path fill="#C6C6C6" d="M1858.327,524.671c-2.932,4.929-6.486,9.833-10.653,14.512c-20.617,23.121-48.202,32.071-61.63,19.998&#10;&#9;&#9;&#9;c-13.42-12.08-7.588-40.638,13.005-63.767c2.27-2.541,4.631-4.921,7.033-7.103c-11.539,19.5-13.088,39.631-2.378,49.264&#10;&#9;&#9;&#9;C1815.649,548.342,1838.836,542.422,1858.327,524.671z" transform="matrix(1, 0, 0, 1, 5.684341886080802e-14, 1.4210854715202004e-14)"/><path fill="#DADADA" d="M1734.81,707.623c-13.71-0.141-24.628-19.391-24.388-43.003c0.232-23.628,11.539-42.661,25.249-42.512&#10;&#9;&#9;&#9;c13.71,0.134,24.627,19.383,24.387,43.011C1759.826,688.732,1748.519,707.766,1734.81,707.623z" transform="matrix(1, 0, 0, 1, 5.684341886080802e-14, 1.4210854715202004e-14)"/><path fill="#C6C6C6" d="M1760.066,665.086c-0.24,23.613-11.548,42.654-25.249,42.512c-13.718-0.133-24.636-19.407-24.396-43.011&#10;&#9;&#9;&#9;c0.042-3.946,0.39-7.759,1.002-11.373c2.602,18.383,12.152,32.037,23.684,32.154c11.432,0.117,21.189-13.088,24.246-31.139&#10;&#9;&#9;&#9;C1759.851,657.693,1760.1,661.34,1760.066,665.086z" transform="matrix(1, 0, 0, 1, 5.684341886080802e-14, 1.4210854715202004e-14)"/><path fill="#DADADA" d="M2105.098,655.862c14.878,6.793,19.053,29.723,9.336,51.237c-9.717,21.506-29.646,33.436-44.525,26.643&#10;&#9;&#9;&#9;c-14.859-6.785-19.043-29.724-9.327-51.22C2070.307,660.998,2090.237,649.076,2105.098,655.862z" transform="matrix(1, 0, 0, 1, 5.684341886080802e-14, 1.4210854715202004e-14)"/><path fill="#C6C6C6" d="M2114.442,707.107c-9.726,21.506-29.655,33.445-44.517,26.667c-13.734-6.277-18.349-26.334-11.315-46.3&#10;&#9;&#9;&#9;c0.488,11.981,5.566,21.939,14.521,26.036c14.878,6.777,34.809-5.146,44.525-26.659c0.737-1.649,1.399-3.297,1.979-4.93&#10;&#9;&#9;&#9;C2119.959,689.806,2118.285,698.573,2114.442,707.107z" transform="matrix(1, 0, 0, 1, 5.684341886080802e-14, 1.4210854715202004e-14)"/><path fill="#DADADA" d="M1983.842,476.623c16.882-17.251,54.406-7.634,83.806,21.457c29.415,29.098,39.562,66.647,22.672,83.891&#10;&#9;&#9;&#9;c-16.873,17.243-54.398,7.627-83.797-21.455C1977.115,531.415,1966.959,493.865,1983.842,476.623z" transform="matrix(1, 0, 0, 1, 5.684341886080802e-14, 1.4210854715202004e-14)"/><path fill="#C6C6C6" d="M2094.719,539.217c-4.531-6.945-10.073-13.771-16.576-20.19c-29.407-29.099-66.932-38.69-83.813-21.464&#10;&#9;&#9;&#9;c-9.395,9.608-10.413,25.527-4.382,42.753c-16.013-24.495-19.269-50.264-6.105-63.702c16.882-17.243,54.406-7.634,83.797,21.456&#10;&#9;&#9;&#9;C2080.678,510.975,2089.923,525.512,2094.719,539.217z" transform="matrix(1, 0, 0, 1, 5.684341886080802e-14, 1.4210854715202004e-14)"/><path fill="#DADADA" d="M1881.505,605.257c8.251,5.086,7.919,20.748-0.746,34.969c-8.681,14.237-22.398,21.647-30.657,16.568&#10;&#9;&#9;&#9;c-8.259-5.087-7.928-20.749,0.754-34.985C1859.52,607.589,1873.246,600.178,1881.505,605.257z" transform="matrix(1, 0, 0, 1, 5.684341886080802e-14, 1.4210854715202004e-14)"/><path fill="#C6C6C6" d="M1886.027,628.336c-1.117,3.896-2.883,7.977-5.285,11.923c-8.681,14.229-22.398,21.647-30.657,16.569&#10;&#9;&#9;&#9;c-8.259-5.096-7.919-20.749,0.754-34.978c1.052-1.723,2.178-3.355,3.355-4.862c-2.908,10.174-1.418,19.366,4.548,23.03&#10;&#9;&#9;&#9;C1865.989,644.488,1877.463,639.302,1886.027,628.336z" transform="matrix(1, 0, 0, 1, 5.684341886080802e-14, 1.4210854715202004e-14)"/><path opacity="0.05" clip-path="url(#SVGID_2_)" fill="#FFFFFF" d="M1781.703,90.237&#10;&#9;&#9;c-130.525,11.38-748.016,132.297-619.354,241.408c128.662,109.118-0.845,105.089-473.603,76.315&#10;&#9;&#9;C215.988,379.21-47.702,402.548-440.97,530.708C-834.238,658.867-123.133,648.052-28.786,696.483&#10;&#9;&#9;c94.351,48.432-749.81,132.664-749.81,132.664l-77.233,115.038c5.903,29.249,462.487-68.422,1026.385-225.563&#10;&#9;&#9;c563.899-157.133-49.714-45.901-376.576-153.304c-326.862-107.404,759.874-134.921,589.719-120.317&#10;&#9;&#9;C31.627,475.241,273.916,582.469,555.677,548.333c329.02-39.857,378.357-38.458,727.117-75.433&#10;&#9;&#9;c564.475-59.862,183.31-111.85,6.021-170.439c-177.287-58.589,666.307-122.748,666.307-122.748s673.993-58.28,786.161-174.942&#10;&#9;&#9;l-11.762-176.591C2729.521-171.82,2318.842,43.404,1781.703,90.237z" transform="matrix(1, 0, 0, 1, 2.842170943040401e-14, 7.105427357601002e-15)"/><path opacity="0.05" clip-path="url(#SVGID_2_)" fill="#FFFFFF" d="M-8.056,294.637c29.734-0.325,60.707-2.074,92.16-5.579&#10;&#9;&#9;c329.818-36.742,379.355-34.902,729.021-68.597c565.933-54.534,182.871-109.876,4.358-169.922&#10;&#9;&#9;C638.986-9.507,1484.998-65.799,1484.998-65.799s727.97-71.811,839.386-187.131l-65.623-156.401&#10;&#9;&#9;c0,0-410.059,210.911-948.681,252.707C1179.19-146.468,560.64-31.504,690.842,78.497c130.203,109.993,0.198,104.781-474.56,71.786&#10;&#9;&#9;c-84.9-5.904-162.981-10.05-236.367-12.223L-8.056,294.637z" transform="matrix(1, 0, 0, 1, 2.842170943040401e-14, 7.105427357601002e-15)"/><path d="M -0.224 1068.791016 H 2850.000121 V 2005.15802 H -0.224 V 1068.791016 Z" clip-path="url(#SVGID_2_)" fill="#3A3278" transform="matrix(1, 0, 0, 1, 2.842170943040401e-14, 7.105427357601002e-15)"/><path opacity="0.5" clip-path="url(#SVGID_2_)" fill="#A1A8C7" d="M1965.99,1746.59c15.54,4.355,56.486,23.53,56.486,23.53&#10;&#9;&#9;l101.003,3.788l-43.539-18.509l-62.625-15.319L1965.99,1746.59z" transform="matrix(1, 0, 0, 1, 2.842170943040401e-14, 7.105427357601002e-15)"/><path d="M 1682.655029296875 1330.4639892578125 L 1815.5419921875 1378.77099609375 L 1965.989990234375 1469.7139892578125 L 2188.77099609375 1536.969970703125 L 2499.799072265625 1589.073974609375 L 2663.791015625 1740.0799560546875 L 2850 1763.43505859375 L 2850 318.031005859375 L 2750.47900390625 372.7489929199219 L 2619.18408203125 504.1809997558594 L 2578.97509765625 470.0369873046875 L 2501.388916015625 504.1809997558594 L 2445.888916015625 554.6270141601562 L 2331.093017578125 878.1530151367188 L 2301.256103515625 937.5339965820312 L 2192.342041015625 994.864990234375 L 2122.236083984375 1060.906005859375 L 2022.2860107421875 1173.197021484375 L 1981.9859619140625 1164.7550048828125 L 1848.5780029296875 1270.7840576171875 Z" fill="#2A2458" transform="matrix(1, 0, 0, 1, 5.684341886080802e-14, 1.4210854715202004e-14)"/><path d="M 2850 318.031005859375 L 2750.47900390625 372.7489929199219 L 2619.18408203125 504.1809997558594 L 2578.97509765625 470.0369873046875 L 2501.388916015625 504.1809997558594 L 2445.888916015625 554.6270141601562 L 2301.256103515625 937.5339965820312 L 2192.342041015625 994.864990234375 L 2118.0869140625 1064.9200439453125 L 2022.2860107421875 1173.197021484375 L 1974.6800537109375 1165.3370361328125 L 1804.343017578125 1293.08203125 L 1987.68505859375 1222.7769775390625 L 2055.345947265625 1217.3409423828125 L 2123.47900390625 1122.31005859375 L 2179.112060546875 1063.5369873046875 L 2267.126953125 1044.9210205078125 L 2280.4140625 988.0139770507812 L 2378.35205078125 909.6920166015625 L 2370.424072265625 977.5969848632812 L 2407.7099609375 924.31201171875 L 2418.833984375 847.7310180664062 L 2434.4990234375 820.572021484375 L 2434.4990234375 735.6480102539062 L 2472.547119140625 623.9650268554688 L 2501.388916015625 735.6729736328125 L 2485.666015625 842.6099853515625 L 2537.092041015625 694.801025390625 L 2537.092041015625 590.5289916992188 L 2588.31103515625 564.5609741210938 L 2641.135009765625 590.5289916992188 L 2641.135009765625 723.9420166015625 L 2715.827880859375 637.7020263671875 L 2741.282958984375 554.6270141601562 L 2715.827880859375 488.31201171875 Z" clip-path="url(#SVGID_2_)" fill="#342872" transform="matrix(1, 0, 0, 1, 2.842170943040401e-14, 7.105427357601002e-15)"/><path d="M 2850 637.702026 L 2771.239014 699.564026 L 2741.282959 820.572021 L 2663.799072 787.41803 L 2604.138916 847.731018 L 2551.291016 1009.710999 L 2501.388916 945.633972 L 2496.906982 1025.805054 L 2381.591064 1183.787964 L 2371.699951 1369.595947 L 2551.291016 1503.092041 L 2850 1625.465942" clip-path="url(#SVGID_2_)" fill="#272152" transform="matrix(1, 0, 0, 1, 2.842170943040401e-14, 7.105427357601002e-15)"/><path d="M 2850 2005.157959 L 1565.822021 1329.922974 L 1951.667969 1068.791016 L 1786.001953 1068.791016 L 915.976013 1364.56604 L 1374.453003 2005.157959" clip-path="url(#SVGID_2_)" fill="#2A2457" transform="matrix(1, 0, 0, 1, 2.842170943040401e-14, 7.105427357601002e-15)"/><path clip-path="url(#SVGID_2_)" fill="#2F2861" d="M1565.822,1329.923c-223.17,5.512-425.955,22.371-648.778,36.135&#10;&#9;&#9;l457.409,639.101H2850L1565.822,1329.923z" transform="matrix(1, 0, 0, 1, 2.842170943040401e-14, 7.105427357601002e-15)"/><path d="M 1786.001953125 1068.791015625 L 907.9320068359375 1369.595947265625 L 937.8280029296875 1395.0899658203125 Z" clip-path="url(#SVGID_2_)" fill="#261B45" transform="matrix(1, 0, 0, 1, 2.842170943040401e-14, 7.105427357601002e-15)"/><path clip-path="url(#SVGID_2_)" fill="#2A2457" d="M1816.817,1540.875c-236.407,31.82-475.143,54.51-711.891,87.696&#10;&#9;&#9;l269.527,376.587H2850l-913.972-480.576C1896.283,1530.01,1856.562,1535.529,1816.817,1540.875z" transform="matrix(1, 0, 0, 1, 2.842170943040401e-14, 7.105427357601002e-15)"/><path clip-path="url(#SVGID_2_)" fill="#26204F" d="M1217.303,1785.588l157.15,219.57H2850l-468.326-246.254&#10;&#9;&#9;C1993.566,1769.104,1605.518,1782.025,1217.303,1785.588z" transform="matrix(1, 0, 0, 1, 2.842170943040401e-14, 7.105427357601002e-15)"/><path d="M 29.601999282836914 1068.791015625 L 23.145000457763672 935.802001953125 L 312.1700134277344 838.1060180664062 L 379.40899658203125 884.9979858398438 L 465.5840148925781 811.7130126953125 L 549.0590209960938 670.2239990234375 L 625.4010009765625 711.5449829101562 L 744.156005859375 890.6840209960938 L 872.8099975585938 803.7369995117188 L 965.469970703125 886.4210205078125 L 1044.77099609375 820.3469848632812 L 1105.0179443359375 865.1069946289062 L 1269.3079833984375 670.2239990234375 L 1340.5560302734375 803.7369995117188 L 1477.8909912109375 886.4210205078125 L 1580.26904296875 1068.791015625 Z" clip-path="url(#SVGID_2_)" fill="#325494" transform="matrix(1, 0, 0, 1, 2.842170943040401e-14, 7.105427357601002e-15)"/><path d="M 467.8949890136719 1068.791015625 L 379.2919921875 1068.791015625 L 349.7330017089844 1005.2059936523438 L 549.0590209960938 670.2239990234375 L 523.8179931640625 823.9439697265625 L 565.7420043945312 993.0670166015625 Z" opacity="0.12" clip-path="url(#SVGID_2_)" fill="#FFFFFF" transform="matrix(1, 0, 0, 1, 2.842170943040401e-14, 7.105427357601002e-15)"/><path d="M 1162.1009521484375 1025.8050537109375 L 1105.116943359375 1068.791015625 L 1055.1839599609375 925.4940185546875 L 1269.010009765625 670.2239990234375 L 1241.5579833984375 931.93798828125 L 1206.219970703125 835.9000244140625 Z" clip-path="url(#SVGID_2_)" fill="#304F8C" transform="matrix(1, 0, 0, 1, 2.842170943040401e-14, 7.105427357601002e-15)"/><path d="M 871.4929809570312 1068.791015625 L 664.343017578125 1068.791015625 L 604.8579711914062 977.1060180664062 L 873.5139770507812 806.2849731445312 L 821.5590209960938 907.7349853515625 Z" clip-path="url(#SVGID_2_)" fill="#304F8C" transform="matrix(1, 0, 0, 1, 2.842170943040401e-14, 7.105427357601002e-15)"/><path d="M 10.404 1887.904053 L 304.992004 1839.524048 L 724.133972 1373.093994 L 999.807007 1185.545044 L 1011.122009 1128.678955 L 1115.744995 1095.699951 L 1006.880981 1070.081055 L 877.755005 1068.791016 L 796.002991 977.596985 L 685.507996 945.633972 L 575.598999 727.271973 L 560.208008 564.560974 L 426.307007 470.036987 L 144.645004 263.080994 L -0.224 239.177002 L -0.224 352.141998" fill="#2A2458" transform="matrix(1, 0, 0, 1, 5.684341886080802e-14, 1.4210854715202004e-14)"/><path d="M 65.22599792480469 590.5289916992188 L 102.24500274658203 787.4180297851562 L 145.89999389648438 740.0780029296875 L 258.60400390625 616.9879760742188 L 320.0429992675781 759.2429809570312 L 382.0060119628906 769.1929931640625 L 382.0060119628906 787.4180297851562 L 457.7349853515625 723.9420166015625 L 475.31298828125 861.4940185546875 L 529.9639892578125 924.31201171875 L 517.9329833984375 983.7589721679688 L 542.0009765625 1076.875 L 616.8690185546875 1115.0579833984375 L 773.5869750976562 1196.7430419921875 L 882.5009765625 1233.5760498046875 L 169.9429931640625 1604.0260009765625 L 23.145000457763672 1566.18701171875 L -0.2239999920129776 1503.092041015625 L 0 540.3159790039062 Z" clip-path="url(#SVGID_2_)" fill="#272152" transform="matrix(1, 0, 0, 1, 2.842170943040401e-14, 7.105427357601002e-15)"/><path d="M -0.224 239.177002 L 144.645004 263.080994 L 560.208008 564.560974 L 575.598999 727.271973 L 685.507996 945.633972 L 796.002991 977.596985 L 877.755005 1068.791016 L 1006.880981 1070.081055 L 1115.744995 1095.699951 L 992.468018 1095.699951 L 920.267029 1093.352051 L 894.007996 1112.618042 L 869.776978 1088.105957 L 801.710999 1030.25 L 807.078979 1105.399048 L 780.687012 1052.015015 L 759.47998 1040.074951 L 766.098999 1022.747986 L 710.432983 994.86499 L 652.025024 984.25 L 659.098999 954.684998 L 623.76001 949.348022 L 604.857971 879.635986 L 594.270996 1037.942993 L 564.002014 869.510986 L 575.598999 816.077026 L 557.757019 762.083008 L 549.008972 821.763 L 525.513 760.658997 L 539.067993 598.671021 L 500.760986 590.14502 L 483.79599 554.627014 L 395.312988 505.747009 L 388.082001 695.658997 L 332.377991 547.442017 L 356.55899 526.435974 L 319.799011 463.684998 L 269.68399 390.766998 L 185.612 409.69101 L 158.632004 590.528992 L 139.261002 451.136993 L 137.425995 382.690002 L 175.597 342.901001 L 145.899994 303.119995 L -0.224 244.856003" clip-path="url(#SVGID_2_)" fill="#342872" transform="matrix(1, 0, 0, 1, 2.842170943040401e-14, 7.105427357601002e-15)"/><g transform="matrix(1, 0, 0, 1, 5.684341886080802e-14, 1.4210854715202004e-14)">
			<path d="M 1256.9150390625 954.6849975585938 L 1228.7760009765625 1079.64697265625 L 1235.06298828125 1093.0439453125 L 1227.7569580078125 1084.10302734375 L 1221.0799560546875 1111.0450439453125 L 1256.9150390625 1136.52099609375 L 1292.75 1111.0450439453125 L 1282.529052734375 1066.4420166015625 L 1268.4959716796875 1077.5579833984375 L 1281.2359619140625 1060.822998046875 L 1278.8170166015625 1050.281982421875 L 1271.7760009765625 1055.4859619140625 L 1277.9560546875 1046.51904296875 Z" fill="#2A1E4B"/>
			<path d="M 1264.4620361328125 1153.239990234375 L 1249.3699951171875 1153.239990234375 L 1256.9150390625 1076.875 Z" fill="#2A1E4B"/>
		</g><path d="M 1276.447998 1067.125977 L 1273.185059 1054.687012 L 1278.817017 1050.281982 L 1279.008057 1051.105957 L 1281.235962 1060.822998" fill="#F9CF79" transform="matrix(1, 0, 0, 1, 8.526512829121202e-14, 2.1316282072803006e-14)"/><path d="M 1277.956055 1046.519043 L 1256.915039 954.684998 L 1253.668945 969.122009 L 1273.185059 1053.404053" fill="#F9CF79" transform="matrix(1, 0, 0, 1, 8.526512829121202e-14, 2.1316282072803006e-14)"/><path d="M 1276.621948 1071.338989 L 1287.118042 1115.057983 L 1292.75 1111.045044 L 1282.529053 1066.442017" fill="#F9CF79" transform="matrix(1, 0, 0, 1, 8.526512829121202e-14, 2.1316282072803006e-14)"/><g transform="matrix(1, 0, 0, 1, 5.684341886080802e-14, 1.4210854715202004e-14)">
			<path d="M 1166.988037109375 949.6649780273438 L 1141.218017578125 1064.10400390625 L 1146.9739990234375 1076.3759765625 L 1140.281005859375 1068.1829833984375 L 1134.16796875 1092.8599853515625 L 1166.988037109375 1116.18896484375 L 1199.8079833984375 1092.8599853515625 L 1190.447998046875 1052.0150146484375 L 1177.5909423828125 1062.18798828125 L 1189.262939453125 1046.8690185546875 L 1187.051025390625 1037.2110595703125 L 1180.5980224609375 1041.9730224609375 L 1186.2559814453125 1033.7640380859375 Z" fill="#2A1E4B"/>
			<path d="M 1173.89599609375 1131.5009765625 L 1160.0799560546875 1131.5009765625 L 1166.988037109375 1061.572021484375 Z" fill="#2A1E4B"/>
		</g><path d="M 1184.880005 1052.639038 L 1181.881958 1041.248047 L 1187.051025 1037.21106 L 1187.217041 1037.968994 L 1189.262939 1046.869019" fill="#F9CF79" transform="matrix(1, 0, 0, 1, 8.526512829121202e-14, 2.1316282072803006e-14)"/><path d="M 1186.255981 1033.764038 L 1166.988037 949.664978 L 1164.005981 962.885986 L 1181.881958 1040.074951" fill="#F9CF79" transform="matrix(1, 0, 0, 1, 8.526512829121202e-14, 2.1316282072803006e-14)"/><path d="M 1185.030029 1056.494019 L 1194.639038 1096.531982 L 1199.807983 1092.859985 L 1190.447998 1052.015015" fill="#F9CF79" transform="matrix(1, 0, 0, 1, 8.526512829121202e-14, 2.1316282072803006e-14)"/><path d="M 1084.416016 1290 L 975.783997 1237.598022 L 1183.60498 1154.265015 L 1311.968994 1096.73999 L 1538.709961 1095.699951 L 1615.937988 1106.11499" opacity="0.7" fill="#2A2458" transform="matrix(1, 0, 0, 1, 5.684341886080802e-14, 1.4210854715202004e-14)"/><path d="M 1528.015991 1128.562012 L 1533.159058 1013.507996 L 1581.213013 931.937988 L 1616.542969 1013.515991 L 1615.797974 1107.11499" clip-path="url(#SVGID_2_)" fill="#3D2871" transform="matrix(1, 0, 0, 1, 2.842170943040401e-14, 7.105427357601002e-15)"/><path d="M 1533.159058 1013.507996 L 1316.110962 1011.482971 L 1315.034058 1126.623047 L 1532.082031 1128.678955" clip-path="url(#SVGID_2_)" fill="#211C45" transform="matrix(1, 0, 0, 1, 2.842170943040401e-14, 7.105427357601002e-15)"/><path d="M 1532.878052 1025.805054 L 1315.828979 1023.755981 L 1315.953003 1010.268005 L 1533.001953 1012.301025" clip-path="url(#SVGID_2_)" fill="#121026" transform="matrix(1, 0, 0, 1, 2.842170943040401e-14, 7.105427357601002e-15)"/><path d="M 1580.947021484375 932.3309936523438 L 1533.1590576171875 1013.5159912109375 L 1316.1109619140625 1011.4829711914062 L 1367.1710205078125 907.7020263671875 L 1578.654052734375 909.6920166015625 L 1616.54296875 1013.5159912109375 L 1616.54296875 1013.5159912109375 Z" clip-path="url(#SVGID_2_)" fill="#2A2458" transform="matrix(1, 0, 0, 1, 2.842170943040401e-14, 7.105427357601002e-15)"/><path d="M 1533.159058 1013.515991 L 1316.110962 1011.482971 L 1367.171021 907.702026" clip-path="url(#SVGID_2_)" fill="#272152" transform="matrix(1, 0, 0, 1, 2.842170943040401e-14, 7.105427357601002e-15)"/><path d="M 1578.654052734375 909.6920166015625 L 1533.1590576171875 1013.5079956054688 L 1578.93603515625 941.0549926757812 L 1615.135009765625 1010.2680053710938 Z" clip-path="url(#SVGID_2_)" fill="#493087" transform="matrix(1, 0, 0, 1, 2.842170943040401e-14, 7.105427357601002e-15)"/><path d="M 1429.97900390625 1100.89599609375 L 1490.7060546875 1101.469970703125 L 1491.31103515625 1038.3759765625 L 1430.5660400390625 1037.7939453125 Z" clip-path="url(#SVGID_2_)" fill="#FFDA77" transform="matrix(1, 0, 0, 1, 2.842170943040401e-14, 7.105427357601002e-15)"/><path d="M 1491.260986328125 1043.35498046875 L 1437.0360107421875 1042.8389892578125 L 1436.488037109375 1100.969970703125 L 1429.97900390625 1100.89599609375 L 1430.5660400390625 1037.7939453125 L 1491.31103515625 1038.3759765625 Z" fill="#1D193D" transform="matrix(1, 0, 0, 1, 5.684341886080802e-14, 1.4210854715202004e-14)"/><path d="M 1349.27001953125 1101.0360107421875 L 1409.998046875 1101.6109619140625 L 1410.60302734375 1038.510986328125 L 1349.8580322265625 1037.9429931640625 Z" clip-path="url(#SVGID_2_)" fill="#FFD775" transform="matrix(1, 0, 0, 1, 2.842170943040401e-14, 7.105427357601002e-15)"/><path d="M 1410.56103515625 1043.4969482421875 L 1356.3280029296875 1042.989013671875 L 1355.7900390625 1101.1109619140625 L 1349.27001953125 1101.0360107421875 L 1349.8580322265625 1037.9429931640625 L 1410.60302734375 1038.510986328125 Z" fill="#1D193D" transform="matrix(1, 0, 0, 1, 5.684341886080802e-14, 1.4210854715202004e-14)"/><path clip-path="url(#SVGID_2_)" fill="#2E380B" d="M1429.979,1127.713" transform="matrix(1, 0, 0, 1, 2.842170943040401e-14, 7.105427357601002e-15)"/><linearGradient id="SVGID_4_" gradientUnits="userSpaceOnUse" x1="1369.6797" y1="1097.6455" x2="1366.6334" y2="1249.4771">
		<stop offset="0.1324" style="stop-color:#FFD775"/>
		<stop offset="0.2553" style="stop-color:#CBAC6E;stop-opacity:0.8654"/>
		<stop offset="0.3887" style="stop-color:#9B8367;stop-opacity:0.7193"/>
		<stop offset="0.5214" style="stop-color:#726162;stop-opacity:0.574"/>
		<stop offset="0.6507" style="stop-color:#53465E;stop-opacity:0.4324"/>
		<stop offset="0.7756" style="stop-color:#3C335A;stop-opacity:0.2957"/>
		<stop offset="0.8942" style="stop-color:#2F2859;stop-opacity:0.1658"/>
		<stop offset="1" style="stop-color:#2A2458;stop-opacity:0.05"/>
	</linearGradient><path d="M 1349.27001953125 1126.947021484375 L 1491.31103515625 1128.678955078125 L 1611.323974609375 1244.1419677734375 L 1122.4549560546875 1229.2220458984375 Z" clip-path="url(#SVGID_2_)" fill="url(#SVGID_4_)" transform="matrix(1, 0, 0, 1, 2.842170943040401e-14, 7.105427357601002e-15)"/><g transform="matrix(1, 0, 0, 1, 5.684341886080802e-14, 1.4210854715202004e-14)">
			<path d="M 1210.9749755859375 977.5969848632812 L 1182.8260498046875 1102.56103515625 L 1189.1219482421875 1115.95703125 L 1181.8160400390625 1107.0150146484375 L 1175.1390380859375 1133.95703125 L 1210.9749755859375 1159.43505859375 L 1246.81005859375 1133.95703125 L 1236.5870361328125 1089.35498046875 L 1222.5550537109375 1100.4720458984375 L 1235.2950439453125 1083.7349853515625 L 1232.8759765625 1073.1949462890625 L 1225.8349609375 1078.39794921875 L 1232.0150146484375 1069.4320068359375 Z" fill="#2A1E4B"/>
			<path d="M 1218.512939453125 1176.1519775390625 L 1203.4189453125 1176.1519775390625 L 1210.9749755859375 1099.7879638671875 Z" fill="#2A1E4B"/>
		</g><path d="M 1230.506958 1090.037964 L 1227.234985 1077.599976 L 1232.875977 1073.194946 L 1233.05896 1074.02002 L 1235.295044 1083.734985" fill="#F9CF79" transform="matrix(1, 0, 0, 1, 8.526512829121202e-14, 2.1316282072803006e-14)"/><path d="M 1232.015015 1069.432007 L 1210.974976 977.596985 L 1207.718994 992.034973 L 1227.234985 1076.317017" fill="#F9CF79" transform="matrix(1, 0, 0, 1, 8.526512829121202e-14, 2.1316282072803006e-14)"/><path d="M 1230.672974 1094.250977 L 1241.167969 1137.970947 L 1246.810059 1133.957031 L 1236.587036 1089.35498" fill="#F9CF79" transform="matrix(1, 0, 0, 1, 8.526512829121202e-14, 2.1316282072803006e-14)"/><g transform="matrix(1, 0, 0, 1, 5.684341886080802e-14, 1.4210854715202004e-14)">
			<path d="M 1131.1529541015625 988.0139770507812 L 1094.8199462890625 1149.35205078125 L 1102.93798828125 1166.64501953125 L 1093.511962890625 1155.10400390625 L 1084.887939453125 1189.8900146484375 L 1131.1529541015625 1222.7769775390625 L 1177.4169921875 1189.8900146484375 L 1164.220947265625 1132.3089599609375 L 1146.10498046875 1146.654052734375 L 1162.5560302734375 1125.0479736328125 L 1159.4329833984375 1111.43603515625 L 1150.3370361328125 1118.154052734375 L 1158.322998046875 1106.58203125 Z" fill="#2A1E4B"/>
			<path d="M 1140.89404296875 1244.365966796875 L 1121.4110107421875 1244.365966796875 L 1131.1529541015625 1145.77099609375 Z" fill="#2A1E4B"/>
		</g><path d="M 1156.376953 1133.18396 L 1152.151978 1117.121948 L 1159.432983 1111.436035 L 1159.682007 1112.501953 L 1162.55603 1125.047974" opacity="0.4" fill="#F9CF79" transform="matrix(1, 0, 0, 1, 5.684341886080802e-14, 1.4210854715202004e-14)"/><path d="M 1158.322998 1106.582031 L 1131.152954 988.013977 L 1126.953003 1006.653992 L 1152.151978 1115.473999" opacity="0.4" fill="#F9CF79" transform="matrix(1, 0, 0, 1, 5.684341886080802e-14, 1.4210854715202004e-14)"/><path d="M 1156.599976 1138.619995 L 1170.135986 1195.06897 L 1177.416992 1189.890015 L 1164.220947 1132.30896" opacity="0.4" fill="#F9CF79" transform="matrix(1, 0, 0, 1, 5.684341886080802e-14, 1.4210854715202004e-14)"/><g transform="matrix(1, 0, 0, 1, 5.684341886080802e-14, 1.4210854715202004e-14)">
			<path d="M 1042.7989501953125 954.6849975585938 L 1003.2689819335938 1130.2110595703125 L 1012.0999755859375 1149.01904296875 L 1001.843994140625 1136.4639892578125 L 992.468017578125 1174.31201171875 L 1042.7989501953125 1210.0889892578125 L 1093.1300048828125 1174.31201171875 L 1078.7669677734375 1111.6689453125 L 1059.06005859375 1127.27099609375 L 1076.9599609375 1103.7679443359375 L 1073.56396484375 1088.9560546875 L 1063.666015625 1096.2659912109375 L 1072.35498046875 1083.677978515625 Z" fill="#2A1E4B"/>
			<path d="M 1053.39404296875 1233.5760498046875 L 1032.196044921875 1233.5760498046875 L 1042.7989501953125 1126.31396484375 Z" fill="#2A1E4B"/>
		</g><path d="M 1070.234985 1112.618042 L 1065.645996 1095.142944 L 1073.563965 1088.956055 L 1073.829956 1090.113037 L 1076.959961 1103.767944" fill="#DEC89B" transform="matrix(1, 0, 0, 1, 8.526512829121202e-14, 2.1316282072803006e-14)"/><path d="M 1072.35498 1083.677979 L 1042.79895 954.684998 L 1038.227051 974.966003 L 1065.645996 1093.352051" fill="#DEC89B" transform="matrix(1, 0, 0, 1, 8.526512829121202e-14, 2.1316282072803006e-14)"/><path d="M 1070.474976 1118.529053 L 1085.21106 1179.94104 L 1093.130005 1174.312012 L 1078.766968 1111.668945" fill="#DEC89B" transform="matrix(1, 0, 0, 1, 8.526512829121202e-14, 2.1316282072803006e-14)"/><g transform="matrix(1, 0, 0, 1, 5.684341886080802e-14, 1.4210854715202004e-14)">
			<path d="M 1738.991943359375 1001.1510009765625 L 1778.52197265625 1176.677978515625 L 1769.6910400390625 1195.4849853515625 L 1779.947021484375 1182.9300537109375 L 1789.323974609375 1220.779052734375 L 1738.991943359375 1256.5560302734375 L 1688.6610107421875 1220.779052734375 L 1703.0169677734375 1158.135986328125 L 1722.7239990234375 1173.738037109375 L 1704.8310546875 1150.2340087890625 L 1708.22705078125 1135.4229736328125 L 1718.116943359375 1142.7330322265625 L 1709.43701171875 1130.14404296875 Z" fill="#2A1E4B"/>
			<path d="M 1728.3900146484375 1280.04296875 L 1749.595947265625 1280.04296875 L 1738.991943359375 1172.780029296875 Z" fill="#2A1E4B"/>
		</g><path d="M 1711.557007 1159.084961 L 1716.145996 1141.609009 L 1708.227051 1135.422974 L 1707.96106 1136.578979 L 1704.831055 1150.234009" fill="#DEC89B" transform="matrix(1, 0, 0, 1, 8.526512829121202e-14, 2.1316282072803006e-14)"/><path d="M 1709.437012 1130.144043 L 1738.991943 1001.151001 L 1743.564941 1021.434021 L 1716.145996 1139.81897" fill="#DEC89B" transform="matrix(1, 0, 0, 1, 8.526512829121202e-14, 2.1316282072803006e-14)"/><path d="M 1711.30896 1164.995972 L 1696.579956 1226.406982 L 1688.661011 1220.779053 L 1703.016968 1158.135986" fill="#DEC89B" transform="matrix(1, 0, 0, 1, 8.526512829121202e-14, 2.1316282072803006e-14)"/><g transform="matrix(1, 0, 0, 1, 5.684341886080802e-14, 1.4210854715202004e-14)">
			<path d="M 1680.178955078125 1083.3280029296875 L 1719.7080078125 1258.85400390625 L 1710.8780517578125 1277.6619873046875 L 1721.133056640625 1265.10498046875 L 1730.510009765625 1302.9560546875 L 1680.178955078125 1338.7320556640625 L 1629.8470458984375 1302.9560546875 L 1644.2020263671875 1240.31201171875 L 1663.9090576171875 1255.9139404296875 L 1646.0169677734375 1232.4100341796875 L 1649.4119873046875 1217.5989990234375 L 1659.303955078125 1224.9090576171875 L 1650.6219482421875 1212.3199462890625 Z" fill="#2A1E4B"/>
			<path d="M 1669.574951171875 1362.218994140625 L 1690.781005859375 1362.218994140625 L 1680.178955078125 1254.95703125 Z" fill="#2A1E4B"/>
		</g><path d="M 1652.743042 1241.260986 L 1657.332031 1223.784058 L 1649.411987 1217.598999 L 1649.147949 1218.755981 L 1646.016968 1232.410034" fill="#DEC89B" transform="matrix(1, 0, 0, 1, 8.526512829121202e-14, 2.1316282072803006e-14)"/><path d="M 1650.621948 1212.319946 L 1680.178955 1083.328003 L 1684.750977 1103.609009 L 1657.332031 1221.994995" fill="#DEC89B" transform="matrix(1, 0, 0, 1, 8.526512829121202e-14, 2.1316282072803006e-14)"/><path d="M 1652.494019 1247.172974 L 1637.765991 1308.583984 L 1629.847046 1302.956055 L 1644.202026 1240.312012" fill="#DEC89B" transform="matrix(1, 0, 0, 1, 8.526512829121202e-14, 2.1316282072803006e-14)"/><g transform="matrix(1, 0, 0, 1, 5.684341886080802e-14, 1.4210854715202004e-14)">
			<path d="M 1804.3509521484375 1084.0860595703125 L 1852.47900390625 1297.8179931640625 L 1841.72705078125 1320.7239990234375 L 1854.218017578125 1305.43701171875 L 1865.634033203125 1351.529052734375 L 1804.3509521484375 1395.0899658203125 L 1743.06103515625 1351.529052734375 L 1760.5379638671875 1275.2469482421875 L 1784.5360107421875 1294.2469482421875 L 1762.741943359375 1265.6219482421875 L 1766.883056640625 1247.5880126953125 L 1778.93603515625 1256.488037109375 L 1768.3499755859375 1241.1610107421875 Z" fill="#2A1E4B"/>
			<path d="M 1791.4449462890625 1423.68798828125 L 1817.2569580078125 1423.68798828125 L 1804.343017578125 1293.08203125 Z" fill="#2A1E4B"/>
		</g><path d="M 1770.93396 1276.395996 L 1776.526001 1255.11499 L 1766.883057 1247.588013 L 1766.561035 1248.994995 L 1762.741943 1265.621948" fill="#DEC89B" transform="matrix(1, 0, 0, 1, 8.526512829121202e-14, 2.1316282072803006e-14)"/><path d="M 1768.349976 1241.161011 L 1804.350952 1084.08606 L 1809.909058 1108.780029 L 1776.526001 1252.93396" fill="#DEC89B" transform="matrix(1, 0, 0, 1, 8.526512829121202e-14, 2.1316282072803006e-14)"/><path d="M 1770.636963 1283.598022 L 1752.692993 1358.373047 L 1743.061035 1351.529053 L 1760.537964 1275.246948" fill="#DEC89B" transform="matrix(1, 0, 0, 1, 8.526512829121202e-14, 2.1316282072803006e-14)"/><g transform="matrix(1, 0, 0, 1, 5.684341886080802e-14, 1.4210854715202004e-14)">
			<path d="M 1969.113037109375 1110.2449951171875 L 2017.25 1323.97900390625 L 2006.489013671875 1346.883056640625 L 2018.988037109375 1331.5970458984375 L 2030.404052734375 1377.68798828125 L 1969.113037109375 1421.2490234375 L 1907.8310546875 1377.68798828125 L 1925.3089599609375 1301.406982421875 L 1949.31494140625 1320.406005859375 L 1927.512939453125 1291.781982421875 L 1931.654052734375 1273.748046875 L 1943.698974609375 1282.64794921875 L 1933.1199951171875 1267.321044921875 Z" fill="#2A1E4B"/>
			<path d="M 1956.20703125 1449.8489990234375 L 1982.02001953125 1449.8489990234375 L 1969.113037109375 1319.240966796875 Z" fill="#2A1E4B"/>
		</g><path d="M 1935.704956 1302.55603 L 1941.296997 1281.275024 L 1931.654053 1273.748047 L 1931.322998 1275.156006 L 1927.512939 1291.781982" fill="#5E43A6" transform="matrix(1, 0, 0, 1, 8.526512829121202e-14, 2.1316282072803006e-14)"/><path d="M 1933.119995 1267.321045 L 1969.113037 1110.244995 L 1974.680054 1134.938965 L 1941.296997 1279.093994" fill="#5E43A6" transform="matrix(1, 0, 0, 1, 8.526512829121202e-14, 2.1316282072803006e-14)"/><path d="M 1935.415039 1309.756958 L 1917.463989 1384.531982 L 1907.831055 1377.687988 L 1925.30896 1301.406982" fill="#5E43A6" transform="matrix(1, 0, 0, 1, 8.526512829121202e-14, 2.1316282072803006e-14)"/><g transform="matrix(1, 0, 0, 1, 5.684341886080802e-14, 1.4210854715202004e-14)">
			<path d="M 2033.0880126953125 1088.10595703125 L 2097.916015625 1375.9739990234375 L 2083.427978515625 1406.8199462890625 L 2100.260009765625 1386.239013671875 L 2115.635009765625 1448.3160400390625 L 2033.0880126953125 1506.988037109375 L 1950.541015625 1448.3160400390625 L 1974.0830078125 1345.574951171875 L 2006.4150390625 1371.1700439453125 L 1977.0489501953125 1332.612060546875 L 1982.633056640625 1308.3160400390625 L 1998.85205078125 1320.31396484375 L 1984.60400390625 1299.666015625 Z" fill="#2A1E4B"/>
			<path d="M 2015.708984375 1545.512939453125 L 2050.467041015625 1545.512939453125 L 2033.0799560546875 1369.595947265625 Z" fill="#2A1E4B"/>
		</g><path d="M 1988.083008 1347.125 L 1995.620972 1318.467041 L 1982.633057 1308.31604 L 1982.185059 1310.215942 L 1977.04895 1332.612061" fill="#5E43A6" transform="matrix(1, 0, 0, 1, 8.526512829121202e-14, 2.1316282072803006e-14)"/><path d="M 1984.604004 1299.666016 L 2033.088013 1088.105957 L 2040.57605 1121.369019 L 1995.620972 1315.526978" fill="#5E43A6" transform="matrix(1, 0, 0, 1, 8.526512829121202e-14, 2.1316282072803006e-14)"/><path d="M 1987.685059 1356.822998 L 1963.514038 1457.532959 L 1950.541016 1448.31604 L 1974.083008 1345.574951" fill="#5E43A6" transform="matrix(1, 0, 0, 1, 8.526512829121202e-14, 2.1316282072803006e-14)"/><g transform="matrix(1, 0, 0, 1, 5.684341886080802e-14, 1.4210854715202004e-14)">
			<path d="M 873.5139770507812 1128.0460205078125 L 808.6859741210938 1415.9119873046875 L 823.1729736328125 1446.760009765625 L 806.3499755859375 1426.177978515625 L 790.9669799804688 1488.2559814453125 L 873.5139770507812 1546.928955078125 L 956.0609741210938 1488.2559814453125 L 932.5180053710938 1385.5150146484375 L 900.18798828125 1411.1070556640625 L 929.5440063476562 1372.552001953125 L 923.97802734375 1348.2569580078125 L 907.7420043945312 1360.2540283203125 L 921.9979858398438 1339.60498046875 Z" fill="#2A1E4B"/>
			<path d="M 890.8930053710938 1585.4530029296875 L 856.135009765625 1585.4530029296875 L 873.52197265625 1409.5350341796875 Z" fill="#2A1E4B"/>
		</g><path d="M 918.518982 1387.062988 L 910.989014 1358.406006 L 923.978027 1348.256958 L 924.408997 1350.154053 L 929.544006 1372.552002" fill="#5E43A6" transform="matrix(1, 0, 0, 1, 8.526512829121202e-14, 2.1316282072803006e-14)"/><path d="M 921.997986 1339.60498 L 873.513977 1128.046021 L 866.025024 1161.307007 L 910.989014 1355.467041" fill="#5E43A6" transform="matrix(1, 0, 0, 1, 8.526512829121202e-14, 2.1316282072803006e-14)"/><path d="M 918.90802 1396.762939 L 943.080017 1497.473022 L 956.060974 1488.255981 L 932.518005 1385.515015" fill="#5E43A6" transform="matrix(1, 0, 0, 1, 8.526512829121202e-14, 2.1316282072803006e-14)"/><g transform="matrix(1, 0, 0, 1, 5.684341886080802e-14, 1.4210854715202004e-14)">
			<path d="M 773.5869750976562 1196.7430419921875 L 708.760009765625 1484.6080322265625 L 723.2479858398438 1515.45703125 L 706.416015625 1494.8759765625 L 691.041015625 1556.9520263671875 L 773.5869750976562 1615.625 L 856.135009765625 1556.9520263671875 L 832.593017578125 1454.2120361328125 L 800.260986328125 1479.8050537109375 L 829.6259765625 1441.248046875 L 824.0430297851562 1416.9530029296875 L 807.823974609375 1428.9510498046875 L 822.072021484375 1408.302978515625 Z" fill="#2A1E4B"/>
			<path d="M 790.9669799804688 1654.14697265625 L 756.2080078125 1654.14697265625 L 773.5960083007812 1478.23095703125 Z" fill="#2A1E4B"/>
		</g><path d="M 818.593018 1455.76001 L 811.054993 1427.103027 L 824.04303 1416.953003 L 824.491028 1418.852051 L 829.625977 1441.248047" fill="#5E43A6" transform="matrix(1, 0, 0, 1, 8.526512829121202e-14, 2.1316282072803006e-14)"/><path d="M 822.072021 1408.302979 L 773.586975 1196.743042 L 766.098999 1230.004028 L 811.054993 1424.162964" fill="#5E43A6" transform="matrix(1, 0, 0, 1, 8.526512829121202e-14, 2.1316282072803006e-14)"/><path d="M 818.98999 1465.459961 L 843.161987 1566.170044 L 856.13501 1556.952026 L 832.593018 1454.212036" fill="#5E43A6" transform="matrix(1, 0, 0, 1, 8.526512829121202e-14, 2.1316282072803006e-14)"/><g transform="matrix(1, 0, 0, 1, 5.684341886080802e-14, 1.4210854715202004e-14)">
			<path d="M 815.469970703125 1257.9119873046875 L 742.85498046875 1580.3489990234375 L 759.0830078125 1614.9000244140625 L 740.22900390625 1591.85400390625 L 723.0159912109375 1661.383056640625 L 815.469970703125 1727.0999755859375 L 907.9320068359375 1661.383056640625 L 881.5650024414062 1546.302978515625 L 845.3489990234375 1574.969970703125 L 878.2360229492188 1531.782958984375 L 871.989990234375 1504.56494140625 L 853.8150024414062 1518.0040283203125 L 869.7769775390625 1494.883056640625 Z" fill="#231940"/>
			<path d="M 834.93701171875 1770.251953125 L 796.0029907226562 1770.251953125 L 815.47900390625 1573.2049560546875 Z" fill="#231940"/>
		</g><path d="M 865.875977 1548.035034 L 857.44397 1515.938965 L 871.98999 1504.564941 L 872.487 1506.697021 L 878.236023 1531.782959" fill="#5E43A6" transform="matrix(1, 0, 0, 1, 8.526512829121202e-14, 2.1316282072803006e-14)"/><path d="M 869.776978 1494.883057 L 815.469971 1257.911987 L 807.078979 1295.171021 L 857.44397 1512.642944" fill="#5E43A6" transform="matrix(1, 0, 0, 1, 8.526512829121202e-14, 2.1316282072803006e-14)"/><path d="M 866.322998 1558.900024 L 893.39502 1671.707031 L 907.932007 1661.383057 L 881.565002 1546.302979" fill="#5E43A6" transform="matrix(1, 0, 0, 1, 8.526512829121202e-14, 2.1316282072803006e-14)"/><g transform="matrix(1, 0, 0, 1, 5.684341886080802e-14, 1.4210854715202004e-14)">
			<path d="M 937.47998046875 1279.4930419921875 L 864.864990234375 1601.928955078125 L 881.1019897460938 1636.47998046875 L 862.2479858398438 1613.43603515625 L 845.0260009765625 1682.9649658203125 L 937.47998046875 1748.6810302734375 L 1029.9429931640625 1682.9649658203125 L 1003.5759887695312 1567.885009765625 L 967.3599853515625 1596.550048828125 L 1000.2540283203125 1553.364013671875 L 994.0079956054688 1526.14697265625 L 975.833984375 1539.5860595703125 L 991.7880249023438 1516.4649658203125 Z" fill="#231940"/>
			<path d="M 956.947021484375 1791.8330078125 L 918.0139770507812 1791.8330078125 L 937.4970092773438 1594.7860107421875 Z" fill="#231940"/>
		</g><path d="M 987.89502 1569.616943 L 979.460999 1537.52002 L 994.007996 1526.146973 L 994.497009 1528.276978 L 1000.254028 1553.364014" fill="#5E43A6" transform="matrix(1, 0, 0, 1, 8.526512829121202e-14, 2.1316282072803006e-14)"/><path d="M 991.788025 1516.464966 L 937.47998 1279.493042 L 929.096985 1316.750977 L 979.460999 1534.223999" fill="#5E43A6" transform="matrix(1, 0, 0, 1, 8.526512829121202e-14, 2.1316282072803006e-14)"/><path d="M 988.333008 1580.480957 L 1015.414001 1693.286987 L 1029.942993 1682.964966 L 1003.575989 1567.88501" fill="#5E43A6" transform="matrix(1, 0, 0, 1, 8.526512829121202e-14, 2.1316282072803006e-14)"/><g transform="matrix(1, 0, 0, 1, 5.684341886080802e-14, 1.4210854715202004e-14)">
			<path d="M 890.8930053710938 1437.1180419921875 L 818.2780151367188 1759.5550537109375 L 834.5059814453125 1794.10595703125 L 815.6519775390625 1771.06103515625 L 798.4299926757812 1840.5889892578125 L 890.8930053710938 1906.3060302734375 L 983.35498046875 1840.5889892578125 L 956.97998046875 1725.509033203125 L 920.7639770507812 1754.176025390625 L 953.6489868164062 1710.989013671875 L 947.4039916992188 1683.77099609375 L 929.22998046875 1697.208984375 L 945.2009887695312 1674.0880126953125 Z" fill="#231940"/>
			<path d="M 910.3599853515625 1949.4580078125 L 871.427001953125 1949.4580078125 L 890.8930053710938 1752.4110107421875 Z" fill="#231940"/>
		</g><path d="M 941.299011 1727.240967 L 932.856995 1695.145996 L 947.403992 1683.770996 L 947.901001 1685.901978 L 953.648987 1710.989014" fill="#5E43A6" transform="matrix(1, 0, 0, 1, 8.526512829121202e-14, 2.1316282072803006e-14)"/><path d="M 945.200989 1674.088013 L 890.893005 1437.118042 L 882.500977 1474.376953 L 932.856995 1691.848999" fill="#5E43A6" transform="matrix(1, 0, 0, 1, 8.526512829121202e-14, 2.1316282072803006e-14)"/><path d="M 941.737976 1738.105957 L 968.817017 1850.912964 L 983.35498 1840.588989 L 956.97998 1725.509033" fill="#5E43A6" transform="matrix(1, 0, 0, 1, 8.526512829121202e-14, 2.1316282072803006e-14)"/><g transform="matrix(1, 0, 0, 1, 5.684341886080802e-14, 1.4210854715202004e-14)">
			<path d="M 617.9710083007812 1170.6240234375 L 545.3560180664062 1493.06005859375 L 561.5830078125 1527.6109619140625 L 542.72900390625 1504.56494140625 L 525.5130004882812 1574.095947265625 L 617.9710083007812 1639.81201171875 L 710.4329833984375 1574.095947265625 L 684.0659790039062 1459.0159912109375 L 647.8499755859375 1487.6820068359375 L 680.7349853515625 1444.4940185546875 L 674.489990234375 1417.2779541015625 L 656.3159790039062 1430.717041015625 L 672.2780151367188 1407.594970703125 Z" fill="#231940"/>
			<path d="M 637.43701171875 1682.9649658203125 L 598.5040283203125 1682.9649658203125 L 617.97900390625 1485.916015625 Z" fill="#231940"/>
		</g><path d="M 668.377014 1460.748047 L 659.942993 1428.650024 L 674.48999 1417.277954 L 674.987 1419.410034 L 680.734985 1444.494019" fill="#5E43A6" transform="matrix(1, 0, 0, 1, 8.526512829121202e-14, 2.1316282072803006e-14)"/><path d="M 672.278015 1407.594971 L 617.971008 1170.624023 L 609.578979 1207.883057 L 659.942993 1425.354004" fill="#5E43A6" transform="matrix(1, 0, 0, 1, 8.526512829121202e-14, 2.1316282072803006e-14)"/><path d="M 668.823975 1471.612061 L 695.895996 1584.420044 L 710.432983 1574.095947 L 684.065979 1459.015991" fill="#5E43A6" transform="matrix(1, 0, 0, 1, 8.526512829121202e-14, 2.1316282072803006e-14)"/><g transform="matrix(1, 0, 0, 1, 5.684341886080802e-14, 1.4210854715202004e-14)">
			<path d="M 539.0679931640625 1244.282958984375 L 460.2330017089844 1594.343017578125 L 477.85198974609375 1631.8590087890625 L 457.38299560546875 1606.842041015625 L 438.68701171875 1682.3310546875 L 539.0679931640625 1753.676025390625 L 639.4500122070312 1682.3310546875 L 610.822021484375 1557.385009765625 L 571.5079956054688 1588.508056640625 L 607.2100219726562 1541.625 L 600.4340209960938 1512.0670166015625 L 580.7030029296875 1526.6619873046875 L 598.031982421875 1501.56103515625 Z" fill="#231940"/>
			<path d="M 560.2080078125 1800.5250244140625 L 517.9329833984375 1800.5250244140625 L 539.0770263671875 1586.593017578125 Z" fill="#231940"/>
		</g><path d="M 593.799011 1559.267944 L 584.637024 1524.42395 L 600.434021 1512.067017 L 600.963989 1514.384033 L 607.210022 1541.625" fill="#5E43A6" transform="matrix(1, 0, 0, 1, 8.526512829121202e-14, 2.1316282072803006e-14)"/><path d="M 598.031982 1501.561035 L 539.067993 1244.282959 L 529.963989 1284.738037 L 584.637024 1520.843018" fill="#5E43A6" transform="matrix(1, 0, 0, 1, 8.526512829121202e-14, 2.1316282072803006e-14)"/><path d="M 594.270996 1571.064941 L 623.677979 1693.53894 L 639.450012 1682.331055 L 610.822021 1557.38501" fill="#5E43A6" transform="matrix(1, 0, 0, 1, 8.526512829121202e-14, 2.1316282072803006e-14)"/><g transform="matrix(1, 0, 0, 1, 5.684341886080802e-14, 1.4210854715202004e-14)">
			<path d="M 332.3739929199219 1236.77294921875 L 259.760009765625 1559.208984375 L 275.9909973144531 1593.761962890625 L 257.13800048828125 1570.7159423828125 L 239.91600036621094 1640.2440185546875 L 332.3739929199219 1705.9610595703125 L 424.83599853515625 1640.2440185546875 L 398.4649963378906 1525.1650390625 L 362.2489929199219 1553.8299560546875 L 395.1400146484375 1510.64501953125 L 388.8940124511719 1483.427001953125 L 370.718994140625 1496.864013671875 L 386.6820068359375 1473.7440185546875 Z" fill="#231940"/>
			<path d="M 351.84100341796875 1749.113037109375 L 312.9079895019531 1749.113037109375 L 332.3819885253906 1552.06396484375 Z" fill="#231940"/>
		</g><path d="M 382.783997 1526.895996 L 374.347992 1494.800049 L 388.894012 1483.427002 L 389.386993 1485.560059 L 395.140015 1510.64502" fill="#5E43A6" transform="matrix(1, 0, 0, 1, 8.526512829121202e-14, 2.1316282072803006e-14)"/><path d="M 386.682007 1473.744019 L 332.373993 1236.772949 L 323.987 1274.031006 L 374.347992 1491.504028" fill="#5E43A6" transform="matrix(1, 0, 0, 1, 8.526512829121202e-14, 2.1316282072803006e-14)"/><path d="M 383.222992 1537.761963 L 410.303009 1650.56897 L 424.835999 1640.244019 L 398.464996 1525.165039" fill="#5E43A6" transform="matrix(1, 0, 0, 1, 8.526512829121202e-14, 2.1316282072803006e-14)"/><g transform="matrix(1, 0, 0, 1, 5.684341886080802e-14, 1.4210854715202004e-14)">
			<path d="M 304.826996 1717.517944 L 277.018005 1829.781982 L 426.307007 1935.880005 L 575.598999 1829.781982 L 533.018005 1643.974976 L 474.541992 1690.258057 L 527.648987 1620.520996 L 517.559998 1576.57605 L 488.218994 1598.272949 L 513.984985 1560.94104 L 426.307007 1178.333984 L 309.062988 1698.949951" fill="#1F1638"/>
			<path d="M 457.7349853515625 2005.5670166015625 L 394.875 2005.5670166015625 L 426.31500244140625 1687.4189453125 Z" fill="#1F1638"/>
		</g><path d="M 507.697998 1646.770996 L 494.079987 1594.952026 L 517.559998 1576.57605 L 518.354004 1580.031006 L 527.648987 1620.520996" fill="#5E43A6" transform="matrix(1, 0, 0, 1, 8.526512829121202e-14, 2.1316282072803006e-14)"/><path d="M 513.984985 1560.94104 L 426.307007 1178.333984 L 412.763 1238.496948 L 494.079987 1589.640015" fill="#5E43A6" transform="matrix(1, 0, 0, 1, 8.526512829121202e-14, 2.1316282072803006e-14)"/><path d="M 508.407013 1664.313965 L 552.124023 1846.45105 L 575.598999 1829.781982 L 533.018005 1643.974976" fill="#5E43A6" transform="matrix(1, 0, 0, 1, 8.526512829121202e-14, 2.1316282072803006e-14)"/><g transform="matrix(1, 0, 0, 1, 5.684341886080802e-14, 1.4210854715202004e-14)">
			<path d="M 102.24500274658203 1074.9940185546875 L -35.84400177001953 1688.16796875 L -4.979000091552734 1753.8580322265625 L -40.83100128173828 1710.031982421875 L -73.58399963378906 1842.2540283203125 L 102.24500274658203 1967.217041015625 L 278.0740051269531 1842.2540283203125 L 227.9250030517578 1623.4189453125 L 159.05499267578125 1677.927978515625 L 221.60400390625 1595.7919921875 L 209.7209930419922 1544.0389404296875 L 175.16700744628906 1569.5899658203125 L 205.50999450683594 1525.6209716796875 Z" fill="#1F1638"/>
			<path d="M 139.26100158691406 2049.29296875 L 65.22599792480469 2049.29296875 L 102.25299835205078 1674.5880126953125 Z" fill="#1F1638"/>
		</g><path d="M 198.104004 1626.714966 L 182.067001 1565.678955 L 209.720993 1544.03894 L 210.658005 1548.103027 L 221.604004 1595.791992" fill="#5E43A6" transform="matrix(1, 0, 0, 1, 8.526512829121202e-14, 2.1316282072803006e-14)"/><path d="M 205.509995 1525.620972 L 102.245003 1074.994019 L 86.293999 1145.85498 L 182.067001 1559.426025" fill="#5E43A6" transform="matrix(1, 0, 0, 1, 8.526512829121202e-14, 2.1316282072803006e-14)"/><path d="M 198.940994 1647.371948 L 250.436996 1861.885986 L 278.074005 1842.254028 L 227.925003 1623.418945" fill="#5E43A6" transform="matrix(1, 0, 0, 1, 8.526512829121202e-14, 2.1316282072803006e-14)"/><g transform="matrix(1, 0, 0, 1, 5.684341886080802e-14, 1.4210854715202004e-14)">
			<path d="M 2099.85400390625 1029.343994140625 L 2167.85498046875 1331.31298828125 L 2152.6630859375 1363.677001953125 L 2170.31494140625 1342.0789794921875 L 2186.443115234375 1407.2030029296875 L 2099.85400390625 1468.748046875 L 2013.2650146484375 1407.2030029296875 L 2037.958984375 1299.425048828125 L 2071.8720703125 1326.2679443359375 L 2041.073974609375 1285.8289794921875 L 2046.9219970703125 1260.343994140625 L 2063.944091796875 1272.925048828125 L 2049.0009765625 1251.26904296875 Z" fill="#2A1E4B"/>
			<path d="M 2081.6220703125 1509.1529541015625 L 2118.0869140625 1509.1529541015625 L 2099.846923828125 1324.6190185546875 Z" fill="#2A1E4B"/>
		</g><path d="M 2052.645996 1301.04895 L 2060.549072 1270.984009 L 2046.921997 1260.343994 L 2046.465942 1262.333984 L 2041.073975 1285.828979" fill="#5E43A6" transform="matrix(1, 0, 0, 1, 8.526512829121202e-14, 2.1316282072803006e-14)"/><path d="M 2049.000977 1251.269043 L 2099.854004 1029.343994 L 2107.716064 1064.235962 L 2060.549072 1267.902954" fill="#5E43A6" transform="matrix(1, 0, 0, 1, 8.526512829121202e-14, 2.1316282072803006e-14)"/><path d="M 2052.230957 1311.223022 L 2026.875 1416.869019 L 2013.265015 1407.203003 L 2037.958984 1299.425049" fill="#5E43A6" transform="matrix(1, 0, 0, 1, 8.526512829121202e-14, 2.1316282072803006e-14)"/><g transform="matrix(1, 0, 0, 1, 5.684341886080802e-14, 1.4210854715202004e-14)">
			<path d="M 2242.508056640625 1017.2780151367188 L 2300.534912109375 1274.9639892578125 L 2287.571044921875 1302.572021484375 L 2302.631103515625 1284.14697265625 L 2316.39697265625 1339.7230224609375 L 2242.508056640625 1392.241943359375 L 2168.616943359375 1339.7230224609375 L 2189.69091796875 1247.7550048828125 L 2218.6259765625 1270.6510009765625 L 2192.342041015625 1236.1490478515625 L 2197.3369140625 1214.4010009765625 L 2211.85693359375 1225.135009765625 L 2199.10888671875 1206.657958984375 Z" fill="#271B45"/>
			<path d="M 2226.950927734375 1426.718994140625 L 2258.06396484375 1426.718994140625 L 2242.5 1269.2530517578125 Z" fill="#2A1E4B"/>
		</g><path d="M 2202.216064 1249.137939 L 2208.958984 1223.477051 L 2197.336914 1214.401001 L 2196.947021 1216.099976 L 2192.342041 1236.149048" fill="#5E43A6" transform="matrix(1, 0, 0, 1, 8.526512829121202e-14, 2.1316282072803006e-14)"/><path d="M 2199.108887 1206.657959 L 2242.508057 1017.278015 L 2249.208984 1047.061035 L 2208.958984 1220.854004" fill="#5E43A6" transform="matrix(1, 0, 0, 1, 8.526512829121202e-14, 2.1316282072803006e-14)"/><path d="M 2201.86792 1257.812012 L 2180.22998 1347.964966 L 2168.616943 1339.723022 L 2189.690918 1247.755005" fill="#5E43A6" transform="matrix(1, 0, 0, 1, 8.526512829121202e-14, 2.1316282072803006e-14)"/><g transform="matrix(1, 0, 0, 1, 5.684341886080802e-14, 1.4210854715202004e-14)">
			<path d="M 2147.485107421875 1105.3990478515625 L 2215.486083984375 1407.3699951171875 L 2200.2939453125 1439.7320556640625 L 2217.946044921875 1418.135986328125 L 2234.073974609375 1483.260986328125 L 2147.485107421875 1544.8060302734375 L 2060.89599609375 1483.260986328125 L 2085.590087890625 1375.4820556640625 L 2119.5029296875 1402.324951171875 L 2088.705078125 1361.885986328125 L 2094.552978515625 1336.4000244140625 L 2111.575927734375 1348.97998046875 L 2096.633056640625 1327.324951171875 Z" fill="#271B45"/>
			<path d="M 2129.25390625 1585.2110595703125 L 2165.718017578125 1585.2110595703125 L 2147.47802734375 1400.677001953125 Z" fill="#271B45"/>
		</g><path d="M 2100.275879 1377.10498 L 2108.179932 1347.041016 L 2094.552979 1336.400024 L 2094.0979 1338.390991 L 2088.705078 1361.885986" fill="#5E43A6" transform="matrix(1, 0, 0, 1, 8.526512829121202e-14, 2.1316282072803006e-14)"/><path d="M 2096.633057 1327.324951 L 2147.485107 1105.399048 L 2155.346924 1140.293945 L 2108.179932 1343.96106" fill="#5E43A6" transform="matrix(1, 0, 0, 1, 8.526512829121202e-14, 2.1316282072803006e-14)"/><path d="M 2099.863037 1387.279053 L 2074.50708 1492.927002 L 2060.895996 1483.260986 L 2085.590088 1375.482056" fill="#5E43A6" transform="matrix(1, 0, 0, 1, 8.526512829121202e-14, 2.1316282072803006e-14)"/><g transform="matrix(1, 0, 0, 1, 5.684341886080802e-14, 1.4210854715202004e-14)">
			<path d="M 2324.39208984375 1000.0440063476562 L 2382.4189453125 1257.72900390625 L 2369.446044921875 1285.3380126953125 L 2384.514892578125 1266.9129638671875 L 2398.27294921875 1322.487060546875 L 2324.39208984375 1375.008056640625 L 2250.501953125 1322.487060546875 L 2271.56689453125 1230.52099609375 L 2300.510009765625 1253.4169921875 L 2274.23388671875 1218.9139404296875 L 2279.221923828125 1197.1669921875 L 2293.7509765625 1207.8990478515625 L 2280.993896484375 1189.4239501953125 Z" fill="#2A1E4B"/>
			<path d="M 2308.826904296875 1409.4840087890625 L 2339.947998046875 1409.4840087890625 L 2324.384033203125 1252.01904296875 Z" fill="#2A1E4B"/>
		</g><path d="M 2284.10791 1231.901978 L 2290.852051 1206.241943 L 2279.221924 1197.166992 L 2278.822998 1198.86499 L 2274.233887 1218.91394" fill="#5E43A6" transform="matrix(1, 0, 0, 1, 8.526512829121202e-14, 2.1316282072803006e-14)"/><path d="M 2280.993896 1189.42395 L 2324.39209 1000.044006 L 2331.093018 1029.82605 L 2290.852051 1203.619019" fill="#5E43A6" transform="matrix(1, 0, 0, 1, 8.526512829121202e-14, 2.1316282072803006e-14)"/><path d="M 2283.751953 1240.578003 L 2262.11499 1330.72998 L 2250.501953 1322.487061 L 2271.566895 1230.520996" fill="#5E43A6" transform="matrix(1, 0, 0, 1, 8.526512829121202e-14, 2.1316282072803006e-14)"/><g transform="matrix(1, 0, 0, 1, 5.684341886080802e-14, 1.4210854715202004e-14)">
			<path d="M 2257.284912109375 1160.7740478515625 L 2325.285888671875 1462.7459716796875 L 2310.0859375 1495.1080322265625 L 2327.74609375 1473.510986328125 L 2343.865966796875 1538.636962890625 L 2257.284912109375 1600.1800537109375 L 2170.68798828125 1538.636962890625 L 2195.389892578125 1430.8570556640625 L 2229.302978515625 1457.699951171875 L 2198.5048828125 1417.261962890625 L 2204.35302734375 1391.7760009765625 L 2221.367919921875 1404.35595703125 L 2206.424072265625 1382.7010498046875 Z" fill="#271B45"/>
			<path d="M 2239.044921875 1640.5860595703125 L 2275.510009765625 1640.5860595703125 L 2257.26904296875 1456.051025390625 Z" fill="#271B45"/>
		</g><path d="M 2210.068115 1432.480957 L 2217.971924 1402.416016 L 2204.353027 1391.776001 L 2203.888916 1393.765991 L 2198.504883 1417.261963" fill="#5E43A6" transform="matrix(1, 0, 0, 1, 8.526512829121202e-14, 2.1316282072803006e-14)"/><path d="M 2206.424072 1382.70105 L 2257.284912 1160.774048 L 2265.138916 1195.667969 L 2217.971924 1399.33606" fill="#5E43A6" transform="matrix(1, 0, 0, 1, 8.526512829121202e-14, 2.1316282072803006e-14)"/><path d="M 2209.654053 1442.655029 L 2184.306885 1548.302002 L 2170.687988 1538.636963 L 2195.389893 1430.857056" fill="#5E43A6" transform="matrix(1, 0, 0, 1, 8.526512829121202e-14, 2.1316282072803006e-14)"/><g transform="matrix(1, 0, 0, 1, 5.684341886080802e-14, 1.4210854715202004e-14)">
			<path d="M 2410.98095703125 945.6339721679688 L 2478.98193359375 1247.60498046875 L 2463.781005859375 1279.967041015625 L 2481.44189453125 1258.3699951171875 L 2497.56201171875 1323.4949951171875 L 2410.98095703125 1385.0400390625 L 2324.384033203125 1323.4949951171875 L 2349.0859375 1215.718017578125 L 2382.9990234375 1242.56005859375 L 2352.199951171875 1202.1209716796875 L 2358.049072265625 1176.635986328125 L 2375.06201171875 1189.2159423828125 L 2360.118896484375 1167.56005859375 Z" fill="#2A1E4B"/>
			<path d="M 2392.739990234375 1425.446044921875 L 2429.2041015625 1425.446044921875 L 2410.965087890625 1240.9110107421875 Z" fill="#2A1E4B"/>
		</g><path d="M 2363.763916 1217.340942 L 2371.666992 1187.275024 L 2358.049072 1176.635986 L 2357.584961 1178.625 L 2352.199951 1202.120972" fill="#5E43A6" transform="matrix(1, 0, 0, 1, 8.526512829121202e-14, 2.1316282072803006e-14)"/><path d="M 2360.118896 1167.560059 L 2410.980957 945.633972 L 2418.833984 980.528015 L 2371.666992 1184.194946" fill="#5E43A6" transform="matrix(1, 0, 0, 1, 8.526512829121202e-14, 2.1316282072803006e-14)"/><path d="M 2363.350098 1227.515991 L 2338.001953 1333.161987 L 2324.384033 1323.494995 L 2349.085938 1215.718018" fill="#5E43A6" transform="matrix(1, 0, 0, 1, 8.526512829121202e-14, 2.1316282072803006e-14)"/><g transform="matrix(1, 0, 0, 1, 5.684341886080802e-14, 1.4210854715202004e-14)">
			<path d="M 2429.2041015625 1159.426025390625 L 2497.214111328125 1461.39599609375 L 2482.02197265625 1493.759033203125 L 2499.666015625 1472.1619873046875 L 2515.802978515625 1537.2869873046875 L 2429.2041015625 1598.83203125 L 2342.6240234375 1537.2869873046875 L 2367.31005859375 1429.509033203125 L 2401.22412109375 1456.35205078125 L 2370.424072265625 1415.9119873046875 L 2376.27197265625 1390.427001953125 L 2393.303955078125 1403.0069580078125 L 2378.35205078125 1381.35205078125 Z" fill="#231940"/>
			<path d="M 2410.98095703125 1639.237060546875 L 2447.445068359375 1639.237060546875 L 2429.2041015625 1454.7030029296875 Z" fill="#231940"/>
		</g><path d="M 2382.004883 1431.131958 L 2389.906982 1401.067017 L 2376.271973 1390.427002 L 2375.815918 1392.416992 L 2370.424072 1415.911987" fill="#5E43A6" transform="matrix(1, 0, 0, 1, 8.526512829121202e-14, 2.1316282072803006e-14)"/><path d="M 2378.352051 1381.352051 L 2429.204102 1159.426025 L 2437.064941 1194.319946 L 2389.906982 1397.987061" fill="#4D388A" transform="matrix(1, 0, 0, 1, 8.526512829121202e-14, 2.1316282072803006e-14)"/><path d="M 2381.591064 1441.307007 L 2356.226074 1546.953003 L 2342.624023 1537.286987 L 2367.310059 1429.509033" fill="#5E43A6" transform="matrix(1, 0, 0, 1, 8.526512829121202e-14, 2.1316282072803006e-14)"/><g transform="matrix(1, 0, 0, 1, 5.684341886080802e-14, 1.4210854715202004e-14)">
			<path d="M 975.7839965820312 980.64501953125 L 927.9299926757812 1193.14599609375 L 938.6229858398438 1215.9169921875 L 926.197998046875 1200.7139892578125 L 914.8489990234375 1246.531005859375 L 975.7839965820312 1289.842041015625 L 1036.7099609375 1246.531005859375 L 1019.3319702148438 1170.68994140625 L 995.4660034179688 1189.5830078125 L 1017.135986328125 1161.133056640625 L 1013.0269775390625 1143.198974609375 L 1001.0490112304688 1152.050048828125 L 1011.5700073242188 1136.8050537109375 Z" fill="#2A1E4B"/>
			<path d="M 988.6069946289062 1318.2750244140625 L 962.9439697265625 1318.2750244140625 L 975.7839965820312 1188.425048828125 Z" fill="#2A1E4B"/>
		</g><path d="M 1009.000977 1171.839966 L 1003.434998 1150.692017 L 1013.026978 1143.198975 L 1013.351013 1144.598022 L 1017.135986 1161.133057" fill="#DEC89B" transform="matrix(1, 0, 0, 1, 8.526512829121202e-14, 2.1316282072803006e-14)"/><path d="M 1011.570007 1136.805054 L 975.783997 980.64502 L 970.25 1005.205994 L 1003.434998 1148.52002" fill="#DEC89B" transform="matrix(1, 0, 0, 1, 8.526512829121202e-14, 2.1316282072803006e-14)"/><path d="M 1009.291992 1179.000977 L 1027.125977 1253.349976 L 1036.709961 1246.531006 L 1019.33197 1170.689941" fill="#DEC89B" transform="matrix(1, 0, 0, 1, 8.526512829121202e-14, 2.1316282072803006e-14)"/><g transform="matrix(1, 0, 0, 1, 5.684341886080802e-14, 1.4210854715202004e-14)">
			<path d="M 1627.31201171875 910.9910278320312 L 1599.1810302734375 1035.9530029296875 L 1605.458984375 1049.3499755859375 L 1598.1529541015625 1040.407958984375 L 1591.47705078125 1067.3509521484375 L 1627.31201171875 1092.8280029296875 L 1663.14697265625 1067.3509521484375 L 1652.925048828125 1022.7479858398438 L 1638.8929443359375 1033.864013671875 L 1651.6419677734375 1017.1300048828125 L 1649.2230224609375 1006.5880126953125 L 1642.1729736328125 1011.7919921875 L 1648.3599853515625 1002.8250122070312 Z" fill="#2A1E4B"/>
			<path d="M 1634.865966796875 1109.5460205078125 L 1619.7740478515625 1109.5460205078125 L 1627.3199462890625 1033.1820068359375 Z" fill="#2A1E4B"/>
		</g><path d="M 1646.854004 1023.432007 L 1643.581055 1010.992004 L 1649.223022 1006.588013 L 1649.411987 1007.411987 L 1651.641968 1017.130005" fill="#5E43A6" transform="matrix(1, 0, 0, 1, 8.526512829121202e-14, 2.1316282072803006e-14)"/><path d="M 1648.359985 1002.825012 L 1627.312012 910.991028 L 1624.064941 925.427979 L 1643.581055 1009.710999" fill="#5E43A6" transform="matrix(1, 0, 0, 1, 8.526512829121202e-14, 2.1316282072803006e-14)"/><path d="M 1647.026001 1027.64502 L 1657.515015 1071.364014 L 1663.146973 1067.350952 L 1652.925049 1022.747986" fill="#5E43A6" transform="matrix(1, 0, 0, 1, 8.526512829121202e-14, 2.1316282072803006e-14)"/><g transform="matrix(1, 0, 0, 1, 5.684341886080802e-14, 1.4210854715202004e-14)">
			<path d="M 2352.199951171875 1183.7879638671875 L 2424.946044921875 1506.822021484375 L 2408.68798828125 1541.4410400390625 L 2427.572021484375 1518.3370361328125 L 2444.8291015625 1588.008056640625 L 2352.199951171875 1653.8409423828125 L 2259.572021484375 1588.008056640625 L 2285.97998046875 1472.7120361328125 L 2322.262939453125 1501.427001953125 L 2289.31103515625 1458.166015625 L 2295.572998046875 1430.8990478515625 L 2313.780029296875 1444.362060546875 L 2297.79296875 1421.1910400390625 Z" fill="#231940"/>
			<path d="M 2332.69189453125 1697.0679931640625 L 2371.699951171875 1697.0679931640625 L 2352.18408203125 1499.6629638671875 Z" fill="#231940"/>
		</g><path d="M 2301.694092 1474.452026 L 2310.1521 1442.280029 L 2295.572998 1430.899048 L 2295.075928 1433.030029 L 2289.311035 1458.166016" fill="#4D388A" transform="matrix(1, 0, 0, 1, 8.526512829121202e-14, 2.1316282072803006e-14)"/><path d="M 2297.792969 1421.19104 L 2352.199951 1183.787964 L 2360.600098 1221.112061 L 2310.1521 1438.990967" fill="#4D388A" transform="matrix(1, 0, 0, 1, 8.526512829121202e-14, 2.1316282072803006e-14)"/><path d="M 2301.256104 1485.333008 L 2274.125977 1598.348999 L 2259.572021 1588.008057 L 2285.97998 1472.712036" fill="#4D388A" transform="matrix(1, 0, 0, 1, 8.526512829121202e-14, 2.1316282072803006e-14)"/><path d="M 1554.3990478515625 1403.48095703125 L 1805.4940185546875 1525.4300537109375 L 2111.376953125 1700.6820068359375 L 1916.6109619140625 1634.2490234375 L 1799.3719482421875 1584.6280517578125 L 1717.35498046875 1506.6739501953125 L 1570.7430419921875 1468.3909912109375 Z" opacity="0.5" clip-path="url(#SVGID_2_)" fill="#25204D" transform="matrix(1, 0, 0, 1, 2.842170943040401e-14, 7.105427357601002e-15)"/><path d="M 1209.963013 1311.140015 L 990.869019 1389.661987 L 1148.383057 1621.729004 L 1198.166992 1654.371948 L 1313.442993 1861.870972 L 1287.125977 1642.475952 L 1295.484985 1603.859985 L 1198.166992 1562.531006 L 1173.18396 1481.895996 L 1083.28894 1415.729004 L 1218.446045 1308.891968" opacity="0.5" clip-path="url(#SVGID_2_)" fill="#25204D" transform="matrix(1, 0, 0, 1, 2.842170943040401e-14, 7.105427357601002e-15)"/><g transform="matrix(1, 0, 0, 1, 5.684341886080802e-14, 1.4210854715202004e-14)">
			<path d="M 2526.340087890625 1116.18896484375 L 2619.406982421875 1529.4530029296875 L 2598.60693359375 1573.7449951171875 L 2622.760986328125 1544.18798828125 L 2644.845947265625 1633.3089599609375 L 2526.340087890625 1717.551025390625 L 2407.8330078125 1633.3089599609375 L 2441.6298828125 1485.81494140625 L 2488.034912109375 1522.550048828125 L 2445.888916015625 1467.2080078125 L 2453.89208984375 1432.3399658203125 L 2477.193115234375 1449.5400390625 L 2456.73095703125 1419.9010009765625 Z" fill="#231940"/>
			<path d="M 2501.388916015625 1772.842041015625 L 2551.291015625 1772.842041015625 L 2526.322021484375 1520.2939453125 Z" fill="#231940"/>
		</g><path d="M 2461.727051 1488.031006 L 2472.547119 1446.894043 L 2453.89209 1432.339966 L 2453.260986 1435.055054 L 2445.888916 1467.208008" fill="#4D388A" transform="matrix(1, 0, 0, 1, 8.526512829121202e-14, 2.1316282072803006e-14)"/><path d="M 2456.730957 1419.901001 L 2526.340088 1116.188965 L 2537.092041 1163.947021 L 2472.547119 1442.671997" fill="#4D388A" transform="matrix(1, 0, 0, 1, 8.526512829121202e-14, 2.1316282072803006e-14)"/><path d="M 2461.164063 1501.959961 L 2426.455078 1646.546997 L 2407.833008 1633.30896 L 2441.629883 1485.814941" fill="#4D388A" transform="matrix(1, 0, 0, 1, 8.526512829121202e-14, 2.1316282072803006e-14)"/><g transform="matrix(1, 0, 0, 1, 5.684341886080802e-14, 1.4210854715202004e-14)">
			<path d="M 2715.827880859375 986.7979736328125 L 2845.054931640625 1560.6070556640625 L 2816.177001953125 1622.1109619140625 L 2849.718017578125 1581.072998046875 L 2880.365966796875 1704.81103515625 L 2715.827880859375 1821.77294921875 L 2551.291015625 1704.81103515625 L 2598.2099609375 1500.02001953125 L 2662.64794921875 1551.0240478515625 L 2604.138916015625 1474.18603515625 L 2615.248046875 1425.761962890625 L 2647.596923828125 1449.656982421875 L 2619.18408203125 1408.4940185546875 Z" fill="#1F1638"/>
			<path d="M 2681.177978515625 1898.5460205078125 L 2750.47900390625 1898.5460205078125 L 2715.81201171875 1547.89501953125 Z" fill="#1F1638"/>
		</g><path d="M 2626.124023 1503.092041 L 2641.13501 1445.977051 L 2615.248047 1425.761963 L 2614.378906 1429.541992 L 2604.138916 1474.186035" fill="#5E43A6" transform="matrix(1, 0, 0, 1, 8.526512829121202e-14, 2.1316282072803006e-14)"/><path d="M 2619.184082 1408.494019 L 2715.827881 986.797974 L 2730.756104 1053.113037 L 2641.13501 1440.11499" fill="#5E43A6" transform="matrix(1, 0, 0, 1, 8.526512829121202e-14, 2.1316282072803006e-14)"/><path d="M 2625.337891 1522.442017 L 2577.1521 1723.194946 L 2551.291016 1704.811035 L 2598.209961 1500.02002" fill="#5E43A6" transform="matrix(1, 0, 0, 1, 8.526512829121202e-14, 2.1316282072803006e-14)"/><g transform="matrix(1, 0, 0, 1, 5.684341886080802e-14, 1.4210854715202004e-14)">
			<path d="M 576.966003 1771.884033 L 549.008972 1884.791016 L 699.125977 1991.504028 L 849.25 1884.791016 L 806.432983 1697.93396 L 747.651001 1744.477051 L 801.031982 1674.370972 L 790.893005 1630.203003 L 761.385986 1651.984009 L 787.30603 1614.435059 L 699.125977 1229.687988 L 581.223999 1753.218018" fill="#1F1638"/>
			<path d="M 730.7360229492188 2061.541015625 L 667.5150146484375 2061.541015625 L 699.1420288085938 1741.6109619140625 Z" fill="#1F1638"/>
		</g><path d="M 780.97699 1700.739014 L 767.275024 1648.64502 L 790.893005 1630.203003 L 791.695984 1633.634033 L 801.031982 1674.370972" fill="#5E43A6" transform="matrix(1, 0, 0, 1, 8.526512829121202e-14, 2.1316282072803006e-14)"/><path d="M 787.30603 1614.435059 L 699.125977 1229.687988 L 685.507996 1290.20105 L 767.275024 1643.282959" fill="#5E43A6" transform="matrix(1, 0, 0, 1, 8.526512829121202e-14, 2.1316282072803006e-14)"/><path d="M 781.697998 1718.399048 L 825.651001 1901.552979 L 849.25 1884.791016 L 806.432983 1697.93396" fill="#5E43A6" transform="matrix(1, 0, 0, 1, 8.526512829121202e-14, 2.1316282072803006e-14)"/><g transform="matrix(1, 0, 0, 1, 5.684341886080802e-14, 1.4210854715202004e-14)">
			<path d="M 1028.053955078125 1338.2249755859375 L 941.572998046875 1722.2120361328125 L 960.906982421875 1763.3590087890625 L 938.4580078125 1735.9000244140625 L 917.947021484375 1818.708984375 L 1028.053955078125 1896.9720458984375 L 1138.1610107421875 1818.708984375 L 1106.7569580078125 1681.666015625 L 1063.6409912109375 1715.802001953125 L 1102.7889404296875 1664.3809814453125 L 1095.366943359375 1631.97705078125 L 1073.7139892578125 1647.9620361328125 L 1092.7239990234375 1620.4210205078125 Z" fill="#1F1638"/>
			<path d="M 1051.2320556640625 1948.35205078125 L 1004.8759765625 1948.35205078125 L 1028.071044921875 1713.7039794921875 Z" fill="#1F1638"/>
		</g><path d="M 1088.084961 1683.729004 L 1078.036987 1645.499023 L 1095.366943 1631.977051 L 1095.947021 1634.499023 L 1102.78894 1664.380981" fill="#5E43A6" transform="matrix(1, 0, 0, 1, 8.526512829121202e-14, 2.1316282072803006e-14)"/><path d="M 1092.723999 1620.421021 L 1028.053955 1338.224976 L 1018.062988 1382.600952 L 1078.036987 1641.584961" fill="#5E43A6" transform="matrix(1, 0, 0, 1, 8.526512829121202e-14, 2.1316282072803006e-14)"/><path d="M 1088.608032 1696.667969 L 1120.855957 1831.015015 L 1138.161011 1818.708984 L 1106.756958 1681.666016" fill="#5E43A6" transform="matrix(1, 0, 0, 1, 8.526512829121202e-14, 2.1316282072803006e-14)"/><path d="M 1565.822021484375 1329.9229736328125 L 1588.626953125 1369.595947265625 L 2730.756103515625 2005.157958984375 L 2850 2005.157958984375 Z" clip-path="url(#SVGID_2_)" fill="#231940" transform="matrix(1, 0, 0, 1, 2.842170943040401e-14, 7.105427357601002e-15)"/>
</svg>