<?xml version="1.0" encoding="utf-8"?>
<svg id="master-artboard" viewBox="0 0 720 503.999" version="1.1" xmlns="http://www.w3.org/2000/svg" x="0px" y="0px" width="720px" height="503.9989929199219px" enable-background="new 0 0 720 503.999">








<g id="Layer_7">
	<g>
		<linearGradient id="SVGID_1_" gradientUnits="userSpaceOnUse" x1="298.002" y1="-68.7993" x2="421.9992" y2="468.2917">
			<stop offset="0" style="stop-color:#001117"/>
			<stop offset="0.1119" style="stop-color:#052D3B"/>
			<stop offset="0.2296" style="stop-color:#0A465A"/>
			<stop offset="0.2952" style="stop-color:#0C4F66"/>
			<stop offset="0.5783" style="stop-color:#539093"/>
			<stop offset="1" style="stop-color:#C4F6DA"/>
		</linearGradient>
		<path d="M 0 0 H 720 V 399.492004 H 0 V 0 Z" fill="url(#SVGID_1_)"/>
		<g>
			<path d="M 0 264.0920104980469 L 261.7510070800781 206.31399536132812 L 296.5929870605469 211.50399780273438 L 372.5780029296875 168.5070037841797 L 395.9309997558594 198.9010009765625 L 382.5870056152344 214.0989990234375 L 435.22100830078125 235.96800231933594 L 321.7980041503906 302.47601318359375 L 0 365.23199462890625 Z" fill="#72A6BD"/>
			<path d="M 720 293.5 L 372.5780029296875 168.5070037841797 L 394.1130065917969 196.53700256347656 L 382.5870056152344 214.0989990234375 L 435.22100830078125 235.96800231933594 L 286.2149963378906 306.14599609375 L 381 326.4460144042969 L 719.9869995117188 333.74200439453125 Z" fill="#A3D8E3"/>
		</g>
		<g>
			<path fill="#467A59" d="M168.33,271.123C93.563,260.12,0,328.313,0,328.313v72.191v47.571l282.729-9.786&#10;&#9;&#9;&#9;&#9;c29.859-37.806,53.339-79.121,72.374-123.176C308.648,306.475,234.314,280.833,168.33,271.123z"/>
			<path fill="#62A079" d="M720,429.611l-437.271,8.679c29.859-37.806,53.339-79.121,72.374-123.176&#10;&#9;&#9;&#9;&#9;c6.182,1.149,11.877,2.002,16.987,2.472c43.499,3.999,70.821-38.594,112.657-46.463c41.836-7.87,204.883,34.68,235.241,39.898&#10;&#9;&#9;&#9;&#9;v121.268"/>
		</g>
		<g>
			<path d="M 352.116985 96.098 A 56.523998 56.523998 0 0 1 295.592987 152.621998 A 56.523998 56.523998 0 0 1 239.068989 96.098 A 56.523998 56.523998 0 0 1 295.592987 39.574001 A 56.523998 56.523998 0 0 1 352.116985 96.098 Z" fill="#F8FFEB"/>
			<path d="M 322.446 62.737 A 5.89 5.89 0 0 1 316.556 68.626999 A 5.89 5.89 0 0 1 310.666 62.737 A 5.89 5.89 0 0 1 316.556 56.847 A 5.89 5.89 0 0 1 322.446 62.737 Z" opacity="0.1" fill="#3E463E"/>
			<path d="M 335.555012 72.482002 A 3.855 3.855 0 0 1 331.700012 76.337002 A 3.855 3.855 0 0 1 327.845012 72.482002 A 3.855 3.855 0 0 1 331.700012 68.627002 A 3.855 3.855 0 0 1 335.555012 72.482002 Z" opacity="0.1" fill="#3E463E"/>
		</g>
		<g>
			<path opacity="0.3" fill="#E0F8FF" d="M284.093,148.169H458.76c0,0-8.621-11.193-28.055-6.335&#10;&#9;&#9;&#9;&#9;c-12.67,3.167-10.439-13.759-33.938-16.743c-25.34-3.217-29.414,11.313-39.369,9.502c-9.955-1.81-19.911-13.576-35.295-12.67&#10;&#9;&#9;&#9;&#9;C306.719,122.829,290.429,131.879,284.093,148.169z"/>
			<path opacity="0.2" fill="#E0F8FF" d="M278.985,61.242h174.667c0,0-8.621-11.193-28.055-6.335&#10;&#9;&#9;&#9;&#9;c-12.67,3.167-10.439-13.759-33.938-16.743c-25.34-3.217-29.414,11.313-39.368,9.502c-9.955-1.81-19.912-13.576-35.295-12.67&#10;&#9;&#9;&#9;&#9;C301.611,35.902,285.321,44.952,278.985,61.242z"/>
			<path opacity="0.3" fill="#E0F8FF" d="M537.957,207.901h174.667c0,0-8.621-11.193-28.055-6.335&#10;&#9;&#9;&#9;&#9;c-12.67,3.167-10.439-13.759-33.938-16.743c-25.34-3.217-29.414,11.313-39.368,9.502c-9.955-1.81-19.912-13.576-35.295-12.67&#10;&#9;&#9;&#9;&#9;C560.584,182.562,544.293,191.611,537.957,207.901z"/>
			<path opacity="0.4" fill="#E0F8FF" d="M141.548,206.559c-12.67,3.167-10.439-13.759-33.937-16.743&#10;&#9;&#9;&#9;&#9;c-25.341-3.217-29.415,11.313-39.369,9.502c-9.955-1.81-19.911-13.576-35.295-12.67c-11.975,0.705-24.497,6.346-32.448,16.493&#10;&#9;&#9;&#9;&#9;v9.752h169.104C169.604,212.894,160.983,201.701,141.548,206.559z"/>
			<path opacity="0.2" fill="#FFFFFF" d="M713.03,117.074c-7.559-7.183-21.544-3.779-24.946-1.472&#10;&#9;&#9;&#9;&#9;c-1.545,1.049-4.652,0.82-7.582,0.262c-1.38-3.754-6.252-6.535-12.07-6.535c-5.317,0-9.846,2.324-11.64,5.592&#10;&#9;&#9;&#9;&#9;c-9.183,1.934-14.681-0.368-17.624-2.594c1.062-1.857,1.672-3.852,1.672-5.941c0-9.082-10.956-16.539-24.953-17.383&#10;&#9;&#9;&#9;&#9;c0-0.027,0.005-0.055,0.005-0.084c0-9.646-8.97-17.467-20.031-17.467c-2.771,0-5.408,0.49-7.809,1.378&#10;&#9;&#9;&#9;&#9;c-10.89-12.166-29.56-20.195-50.773-20.195c-31.129,0-56.778,17.278-60.399,39.563c-2.695-0.939-5.628-1.47-8.706-1.47&#10;&#9;&#9;&#9;&#9;c-9.004,0-16.815,4.421-20.763,10.905l-0.006-0.004c0,0-7.643,11.102-18.982,12.613c-11.338,1.512-20.41,3.023-20.41,3.023&#10;&#9;&#9;&#9;&#9;s0.82,2.522,7.406,4.535l-1.749,0.115c0,0,15.025,7.559,48.886,4.256c22.076-2.154,18.194,9.292,59.139,11.286&#10;&#9;&#9;&#9;&#9;c44.154,2.15,51.248-7.676,68.591-6.462c17.346,1.214,34.7,9.159,61.501,8.531c26.764-0.625,55.091-6.741,66.164-17.725h1.908&#10;&#9;&#9;&#9;&#9;C717.925,120.96,715.619,119.534,713.03,117.074z"/>
			<path opacity="0.2" fill="#FFFFFF" d="M0,123.725c-0.17,0.024-0.332,0.048-0.5,0.072v9.283c0.167,0.04,0.328,0.08,0.5,0.119&#10;&#9;&#9;&#9;&#9;V123.725z"/>
			<path opacity="0.2" fill="#FFFFFF" d="M290.942,125.681c-7.559-7.183-21.544-3.779-24.946-1.472&#10;&#9;&#9;&#9;&#9;c-1.545,1.049-4.652,0.82-7.582,0.262c-1.38-3.754-6.252-6.535-12.07-6.535c-5.317,0-9.846,2.324-11.64,5.592&#10;&#9;&#9;&#9;&#9;c-9.183,1.934-14.681-0.368-17.624-2.594c1.062-1.857,1.672-3.852,1.672-5.941c0-9.082-10.956-16.539-24.953-17.383&#10;&#9;&#9;&#9;&#9;c0-0.027,0.005-0.055,0.005-0.084c0-9.646-8.97-17.467-20.031-17.467c-2.771,0-5.408,0.49-7.809,1.378&#10;&#9;&#9;&#9;&#9;c-10.89-12.166-29.56-20.195-50.773-20.195c-31.129,0-56.778,17.278-60.399,39.563c-2.695-0.939-5.628-1.47-8.706-1.47&#10;&#9;&#9;&#9;&#9;c-9.004,0-16.815,4.421-20.763,10.905l-0.006-0.004c0,0-7.643,11.102-18.982,12.613c-2.216,0.295-4.342,0.591-6.334,0.875v9.474&#10;&#9;&#9;&#9;&#9;c7.735,1.784,20.974,3.482,40.467,1.581c22.076-2.154,18.194,9.292,59.139,11.286c44.154,2.15,51.248-7.676,68.591-6.462&#10;&#9;&#9;&#9;&#9;c17.346,1.214,34.7,9.159,61.501,8.531c26.764-0.625,55.091-6.741,66.164-17.725h1.908&#10;&#9;&#9;&#9;&#9;C295.837,129.568,293.531,128.141,290.942,125.681z"/>
		</g>
		<g>
			<g opacity="0.8">
				<g>
					<path fill="#B6BE8E" d="M77.952,299.924c0,0,4.718,27.84,13.447,38.93l-1.96,0.118c-5.893-11.774-10.475-24.687-11.599-38.025&#10;&#9;&#9;&#9;&#9;&#9;&#9;C77.879,300.606,77.921,300.26,77.952,299.924z"/>
				</g>
				<g>
					<path fill="#5D7352" d="M77.559,303.205c0.106-0.769,0.198-1.517,0.28-2.259c1.124,13.339,5.706,26.251,11.599,38.025&#10;&#9;&#9;&#9;&#9;&#9;&#9;l-18.774,1.144C78.451,330.787,77.254,315.443,77.559,303.205z"/>
				</g>
				<g>
					<path fill="#3E463E" d="M77.559,303.205c-0.305,12.238,1.573,25.029-5.861,36.91l-4.834,0.231&#10;&#9;&#9;&#9;&#9;&#9;&#9;C69.061,337.565,75.474,318.174,77.559,303.205z"/>
				</g>
				<g>
					<path fill="#B6BE8E" d="M86.6,339.146c0,0,6.689,17.244,16.598,27.468l-4.825,0.291c-6.258-8.015-9.313-18.323-13.312-27.667&#10;&#9;&#9;&#9;&#9;&#9;&#9;L86.6,339.146z"/>
				</g>
				<g>
					<path fill="#5D7352" d="M71.165,340.085l13.896-0.847c3.999,9.344,7.054,19.652,13.312,27.667l-32.707,1.963&#10;&#9;&#9;&#9;&#9;&#9;&#9;C71.501,361.011,72.176,349.785,71.165,340.085z"/>
				</g>
				<g>
					<g>
						<path fill="#3E463E" d="M70.077,340.152l2.136-0.132l0,0c1.01,9.698-0.712,20.99-6.547,28.848l-4.828,0.29l-2.152,0.131&#10;&#9;&#9;&#9;&#9;&#9;&#9;&#9;C58.885,368.941,69.227,350.982,70.077,340.152z"/>
					</g>
					<g>
						<path fill="#4B5E21" d="M58.686,369.289L58.686,369.289C58.68,369.295,58.68,369.298,58.686,369.289z"/>
					</g>
				</g>
				<g>
					<path fill="#5D7352" d="M59.513,397.617l48.408-2.316c0.575,8.617,4.917,15.597,10.512,21.707l-60.538,2.865&#10;&#9;&#9;&#9;&#9;&#9;&#9;C59.948,412.846,61.007,405.112,59.513,397.617z"/>
				</g>
				<g>
					<path fill="#B6BE8E" d="M111.212,395.143c0,0,6.49,16.647,14.511,21.522l-11.165,0.22c-5.592-6.114-7.957-12.967-8.531-21.584&#10;&#9;&#9;&#9;&#9;&#9;&#9;L111.212,395.143z"/>
				</g>
				<g>
					<path fill="#3E463E" d="M54.527,397.857l4.986-0.24c1.495,7.495,0.436,15.229-1.618,22.256l-17.927,0.846&#10;&#9;&#9;&#9;&#9;&#9;&#9;C39.968,420.719,52.168,409.652,54.527,397.857z"/>
				</g>
				<g>
					<path fill="#303029" d="M39.495,420.893c0.012,0.293,19.428-0.401,43.365-1.551c23.937-1.147,42.877-2.384,42.863-2.677&#10;&#9;&#9;&#9;&#9;&#9;&#9;c-0.015-0.291-18.978,0.468-42.914,1.618C58.873,419.431,39.481,420.599,39.495,420.893z"/>
				</g>
				<g>
					<path fill="#303029" d="M84.791,418.264c0,0-0.622,12.014,2.206,17.024h-7.864c0.215-0.955,3.148-10.52,2.282-17.024H84.791z"/>
				</g>
				<g>
					<path fill="#5D7352" d="M65.911,368.771l31.158-1.795c1.549,10.405,5.935,20.797,13.403,28.367l-51.019,2.295&#10;&#9;&#9;&#9;&#9;&#9;&#9;C64.005,388.883,65.806,378.181,65.911,368.771z"/>
				</g>
				<g>
					<path fill="#B6BE8E" d="M97.069,366.976l1.728-0.097c0,0,7.703,18.765,17.452,28.203l-5.776,0.261&#10;&#9;&#9;&#9;&#9;&#9;&#9;C103.004,387.772,98.619,377.381,97.069,366.976z"/>
				</g>
				<g>
					<path fill="#3E463E" d="M62.381,368.971l3.53-0.2c-0.105,9.41-1.906,20.112-6.457,28.867l-9.578,0.432&#10;&#9;&#9;&#9;&#9;&#9;&#9;C52.708,393.825,62.381,368.971,62.381,368.971z"/>
				</g>
				<g>
					<path fill="#5C7C2A" d="M66.864,340.347"/>
				</g>
				<g>
					<path fill="#3E463E" d="M91.399,338.877l-24.535,1.493l3.086,0.984l0.074-0.67c0,0,5.492,0.196,9.107-0.079&#10;&#9;&#9;&#9;&#9;&#9;&#9;c3.618-0.273,7.705-0.854,7.705-0.854l0.254,0.619L91.399,338.877z"/>
				</g>
				<g>
					<path fill="#3E463E" d="M103.198,366.614l-44.512,2.675l2.375,3.041l0.752-1.912c0,0,8.851,0.697,19.219,0.051&#10;&#9;&#9;&#9;&#9;&#9;&#9;c6.648-0.417,18.265-1.698,18.265-1.698l1.151,1.836L103.198,366.614z"/>
				</g>
				<g>
					<path fill="#3E463E" d="M116.193,395.025l-66.317,3.044l3.138,4.68l0.917-2.556c0,0,14.339,0.937,29.63,0.074&#10;&#9;&#9;&#9;&#9;&#9;&#9;c9.806-0.554,28.521-3.057,28.521-3.057l1.423,3.077L116.193,395.025z"/>
				</g>
			</g>
			<g opacity="0.8">
				<g>
					<path fill="#B6BE8E" d="M160.387,324.965c0,0,4.718,27.84,13.447,38.93l-1.96,0.118c-5.893-11.774-10.475-24.687-11.599-38.025&#10;&#9;&#9;&#9;&#9;&#9;&#9;C160.313,325.647,160.356,325.301,160.387,324.965z"/>
				</g>
				<g>
					<path fill="#5D7352" d="M159.994,328.246c0.106-0.769,0.198-1.517,0.28-2.259c1.124,13.339,5.706,26.251,11.599,38.025&#10;&#9;&#9;&#9;&#9;&#9;&#9;l-18.774,1.144C160.886,355.828,159.688,340.484,159.994,328.246z"/>
				</g>
				<g>
					<path fill="#3E463E" d="M159.994,328.246c-0.305,12.238,1.573,25.029-5.861,36.91l-4.834,0.231&#10;&#9;&#9;&#9;&#9;&#9;&#9;C151.495,362.606,157.909,343.215,159.994,328.246z"/>
				</g>
				<g>
					<path fill="#B6BE8E" d="M169.034,364.188c0,0,6.689,17.244,16.598,27.468l-4.825,0.291&#10;&#9;&#9;&#9;&#9;&#9;&#9;c-6.258-8.015-9.313-18.323-13.312-27.667L169.034,364.188z"/>
				</g>
				<g>
					<path fill="#5D7352" d="M153.6,365.126l13.896-0.847c3.999,9.344,7.054,19.652,13.312,27.667l-32.707,1.963&#10;&#9;&#9;&#9;&#9;&#9;&#9;C153.936,386.052,154.611,374.826,153.6,365.126z"/>
				</g>
				<g>
					<g>
						<path fill="#3E463E" d="M152.512,365.193l2.136-0.132l0,0c1.01,9.698-0.712,20.99-6.547,28.848l-4.828,0.29l-2.152,0.131&#10;&#9;&#9;&#9;&#9;&#9;&#9;&#9;C141.319,393.982,151.661,376.023,152.512,365.193z"/>
					</g>
					<g>
						<path fill="#4B5E21" d="M141.121,394.33L141.121,394.33C141.115,394.336,141.115,394.339,141.121,394.33z"/>
					</g>
				</g>
				<g>
					<path fill="#5D7352" d="M141.947,422.658l48.408-2.316c0.575,8.617,4.917,15.597,10.512,21.707l-60.538,2.865&#10;&#9;&#9;&#9;&#9;&#9;&#9;C142.383,437.887,143.442,430.153,141.947,422.658z"/>
				</g>
				<g>
					<path fill="#B6BE8E" d="M193.647,420.184c0,0,6.49,16.647,14.511,21.522l-11.165,0.22c-5.592-6.114-7.957-12.967-8.531-21.584&#10;&#9;&#9;&#9;&#9;&#9;&#9;L193.647,420.184z"/>
				</g>
				<g>
					<path fill="#3E463E" d="M136.961,422.898l4.986-0.24c1.495,7.495,0.436,15.229-1.618,22.256l-17.927,0.846&#10;&#9;&#9;&#9;&#9;&#9;&#9;C122.402,445.76,134.603,434.693,136.961,422.898z"/>
				</g>
				<g>
					<path fill="#303029" d="M121.93,445.934c0.012,0.293,19.428-0.401,43.365-1.551c23.937-1.147,42.877-2.384,42.863-2.677&#10;&#9;&#9;&#9;&#9;&#9;&#9;c-0.015-0.291-18.978,0.468-42.914,1.618C141.308,444.472,121.916,445.64,121.93,445.934z"/>
				</g>
				<g>
					<path fill="#303029" d="M167.225,443.305c0,0-0.622,12.014,2.206,17.024h-7.864c0.215-0.955,3.148-10.52,2.282-17.024H167.225z&#10;&#9;&#9;&#9;&#9;&#9;&#9;"/>
				</g>
				<g>
					<path fill="#5D7352" d="M148.346,393.812l31.158-1.795c1.549,10.405,5.935,20.797,13.403,28.367l-51.019,2.295&#10;&#9;&#9;&#9;&#9;&#9;&#9;C146.439,413.924,148.24,403.222,148.346,393.812z"/>
				</g>
				<g>
					<path fill="#B6BE8E" d="M179.504,392.017l1.728-0.097c0,0,7.703,18.765,17.452,28.203l-5.776,0.261&#10;&#9;&#9;&#9;&#9;&#9;&#9;C185.439,412.813,181.053,402.422,179.504,392.017z"/>
				</g>
				<g>
					<path fill="#3E463E" d="M144.815,394.012l3.53-0.2c-0.105,9.41-1.906,20.112-6.457,28.867l-9.578,0.432&#10;&#9;&#9;&#9;&#9;&#9;&#9;C135.143,418.866,144.815,394.012,144.815,394.012z"/>
				</g>
				<g>
					<path fill="#5C7C2A" d="M149.298,365.388"/>
				</g>
				<g>
					<path fill="#3E463E" d="M173.833,363.918l-24.535,1.493l3.086,0.984l0.074-0.67c0,0,5.492,0.196,9.107-0.079&#10;&#9;&#9;&#9;&#9;&#9;&#9;c3.618-0.273,7.705-0.854,7.705-0.854l0.254,0.619L173.833,363.918z"/>
				</g>
				<g>
					<path fill="#3E463E" d="M185.632,391.655l-44.512,2.675l2.375,3.041l0.752-1.912c0,0,8.851,0.697,19.219,0.051&#10;&#9;&#9;&#9;&#9;&#9;&#9;c6.648-0.417,18.265-1.698,18.265-1.698l1.151,1.836L185.632,391.655z"/>
				</g>
				<g>
					<path fill="#3E463E" d="M198.628,420.066l-66.317,3.044l3.138,4.68l0.917-2.556c0,0,14.339,0.937,29.63,0.074&#10;&#9;&#9;&#9;&#9;&#9;&#9;c9.806-0.554,28.521-3.057,28.521-3.057l1.423,3.077L198.628,420.066z"/>
				</g>
			</g>
			<g>
				<g>
					<path fill="#B6BE8E" d="M641.632,259.139c0,0-5.472,32.289-15.596,45.151l2.273,0.137&#10;&#9;&#9;&#9;&#9;&#9;&#9;c6.835-13.656,12.149-28.632,13.453-44.102C641.717,259.93,641.668,259.527,641.632,259.139z"/>
				</g>
				<g>
					<path fill="#5D7352" d="M642.088,262.943c-0.123-0.891-0.229-1.758-0.325-2.618c-1.304,15.47-6.618,30.445-13.453,44.102&#10;&#9;&#9;&#9;&#9;&#9;&#9;l21.774,1.327C641.054,294.935,642.442,277.139,642.088,262.943z"/>
				</g>
				<g>
					<path fill="#3E463E" d="M642.088,262.943c0.354,14.195-1.824,29.031,6.798,42.811l5.607,0.269&#10;&#9;&#9;&#9;&#9;&#9;&#9;C651.945,302.797,644.506,280.305,642.088,262.943z"/>
				</g>
				<g>
					<path fill="#B6BE8E" d="M631.603,304.63c0,0-7.759,20.001-19.251,31.858l5.596,0.338c7.259-9.297,10.802-21.253,15.44-32.089&#10;&#9;&#9;&#9;&#9;&#9;&#9;L631.603,304.63z"/>
				</g>
				<g>
					<path fill="#5D7352" d="M649.504,305.719l-16.116-0.981c-4.639,10.836-8.182,22.792-15.44,32.089l37.935,2.275&#10;&#9;&#9;&#9;&#9;&#9;&#9;C649.114,329.988,648.331,316.97,649.504,305.719z"/>
				</g>
				<g>
					<g>
						<path fill="#3E463E" d="M650.766,305.796l-2.477-0.152l0,0c-1.172,11.249,0.825,24.345,7.593,33.458l5.6,0.337l2.496,0.151&#10;&#9;&#9;&#9;&#9;&#9;&#9;&#9;C663.747,339.188,651.752,318.358,650.766,305.796z"/>
					</g>
					<g>
						<path fill="#4B5E21" d="M663.978,339.59L663.978,339.59C663.984,339.598,663.984,339.601,663.978,339.59z"/>
					</g>
				</g>
				<g>
					<path fill="#5D7352" d="M663.019,372.446l-56.146-2.687c-0.667,9.995-5.702,18.09-12.191,25.177l70.214,3.323&#10;&#9;&#9;&#9;&#9;&#9;&#9;C662.514,390.109,661.285,381.14,663.019,372.446z"/>
				</g>
				<g>
					<path fill="#B6BE8E" d="M603.056,369.577c0,0-7.527,19.308-16.83,24.962l12.948,0.254c6.486-7.091,9.229-15.038,9.895-25.033&#10;&#9;&#9;&#9;&#9;&#9;&#9;L603.056,369.577z"/>
				</g>
				<g>
					<path fill="#3E463E" d="M668.802,372.726l-5.783-0.279c-1.733,8.693-0.505,17.663,1.877,25.813l20.792,0.98&#10;&#9;&#9;&#9;&#9;&#9;&#9;C685.688,399.24,671.537,386.404,668.802,372.726z"/>
				</g>
				<g>
					<path fill="#303029" d="M686.235,399.442c-0.014,0.34-22.532-0.466-50.296-1.799c-27.763-1.331-49.73-2.765-49.714-3.104&#10;&#9;&#9;&#9;&#9;&#9;&#9;c0.017-0.338,22.011,0.542,49.772,1.876C663.761,397.747,686.252,399.102,686.235,399.442z"/>
				</g>
				<g>
					<path fill="#303029" d="M633.701,396.393c0,0,0.721,13.935-2.559,19.746h9.121c-0.249-1.107-3.651-12.202-2.646-19.746H633.701&#10;&#9;&#9;&#9;&#9;&#9;&#9;z"/>
				</g>
				<g>
					<path fill="#5D7352" d="M655.598,338.989l-36.139-2.082c-1.797,12.068-6.884,24.121-15.545,32.9l59.173,2.663&#10;&#9;&#9;&#9;&#9;&#9;&#9;C657.809,362.315,655.72,349.903,655.598,338.989z"/>
				</g>
				<g>
					<path fill="#B6BE8E" d="M619.459,336.907l-2.004-0.112c0,0-8.934,21.765-20.241,32.711l6.7,0.302&#10;&#9;&#9;&#9;&#9;&#9;&#9;C612.575,361.028,617.662,348.976,619.459,336.907z"/>
				</g>
				<g>
					<path fill="#3E463E" d="M659.692,339.222l-4.095-0.232c0.122,10.914,2.211,23.326,7.489,33.481l11.108,0.501&#10;&#9;&#9;&#9;&#9;&#9;&#9;C670.911,368.048,659.692,339.222,659.692,339.222z"/>
				</g>
				<g>
					<path fill="#5C7C2A" d="M654.493,306.022"/>
				</g>
				<g>
					<path fill="#3E463E" d="M626.036,304.316l28.457,1.733l-3.58,1.141l-0.086-0.776c0,0-6.37,0.228-10.563-0.092&#10;&#9;&#9;&#9;&#9;&#9;&#9;c-4.196-0.317-8.937-0.991-8.937-0.991l-0.295,0.719L626.036,304.316z"/>
				</g>
				<g>
					<path fill="#3E463E" d="M612.352,336.488l51.626,3.102l-2.755,3.528l-0.873-2.218c0,0-10.266,0.809-22.291,0.058&#10;&#9;&#9;&#9;&#9;&#9;&#9;c-7.711-0.483-21.185-1.969-21.185-1.969l-1.335,2.129L612.352,336.488z"/>
				</g>
				<g>
					<path fill="#3E463E" d="M597.278,369.44l76.917,3.531l-3.639,5.427l-1.063-2.964c0,0-16.631,1.087-34.366,0.086&#10;&#9;&#9;&#9;&#9;&#9;&#9;c-11.374-0.643-33.079-3.545-33.079-3.545l-1.65,3.569L597.278,369.44z"/>
				</g>
			</g>
			<g>
				<g>
					<path fill="#B6BE8E" d="M21.46,239.896c0,0,7.841,46.274,22.351,64.708l-3.258,0.196c-9.795-19.571-17.412-41.033-19.28-63.204&#10;&#9;&#9;&#9;&#9;&#9;&#9;C21.338,241.029,21.408,240.453,21.46,239.896z"/>
				</g>
				<g>
					<path fill="#5D7352" d="M20.806,245.349c0.176-1.276,0.329-2.52,0.466-3.753c1.868,22.171,9.484,43.633,19.28,63.204&#10;&#9;&#9;&#9;&#9;&#9;&#9;l-31.206,1.901C22.289,291.196,20.298,265.692,20.806,245.349z"/>
				</g>
				<g>
					<path fill="#3E463E" d="M20.806,245.349c-0.508,20.344,2.614,41.605-9.742,61.353l-8.036,0.385&#10;&#9;&#9;&#9;&#9;&#9;&#9;C6.679,302.464,17.341,270.229,20.806,245.349z"/>
				</g>
				<g>
					<path fill="#B6BE8E" d="M35.833,305.091c0,0,11.12,28.664,27.589,45.657l-8.02,0.484C45,337.908,39.922,320.773,33.275,305.244&#10;&#9;&#9;&#9;&#9;&#9;&#9;L35.833,305.091z"/>
				</g>
				<g>
					<path fill="#5D7352" d="M10.178,306.651l23.097-1.407c6.647,15.529,11.725,32.664,22.128,45.988l-54.365,3.261&#10;&#9;&#9;&#9;&#9;&#9;&#9;C10.737,341.433,11.859,322.775,10.178,306.651z"/>
				</g>
				<g>
					<g>
						<path fill="#3E463E" d="M11.919,306.543l-3.549,0.219c-0.628,8.002-4.374,18.342-8.37,27.414v20.38l1.038-0.062&#10;&#9;&#9;&#9;&#9;&#9;&#9;&#9;C10.737,341.433,13.599,322.664,11.919,306.543z"/>
					</g>
				</g>
				<g>
					<path fill="#5D7352" d="M71.273,398.43L0,401.841v36.871l88.746-4.2C79.446,424.355,72.229,412.754,71.273,398.43z"/>
				</g>
				<g>
					<path fill="#B6BE8E" d="M76.745,398.168c0,0,10.788,27.671,24.12,35.774l-18.557,0.363&#10;&#9;&#9;&#9;&#9;&#9;&#9;c-9.296-10.162-13.227-21.552-14.18-35.876L76.745,398.168z"/>
				</g>
				<g>
					<path fill="#303029" d="M100.864,433.942c-0.024-0.484-31.544,0.776-71.331,2.688c-10.53,0.505-20.52,1.012-29.534,1.494v1.61&#10;&#9;&#9;&#9;&#9;&#9;&#9;c9.038-0.385,19.058-0.838,29.618-1.345C69.405,436.483,100.888,434.429,100.864,433.942z"/>
				</g>
				<g>
					<path fill="#5D7352" d="M53.236,351.348l-51.792,2.984c-0.065,5.79-0.519,11.875-1.445,17.98v29.585l75.514-3.398&#10;&#9;&#9;&#9;&#9;&#9;&#9;C63.102,385.917,55.812,368.644,53.236,351.348z"/>
				</g>
				<g>
					<path fill="#B6BE8E" d="M53.236,351.348l2.872-0.16c0,0,12.803,31.191,29.008,46.879l-9.603,0.433&#10;&#9;&#9;&#9;&#9;&#9;&#9;C63.102,385.917,55.812,368.644,53.236,351.348z"/>
				</g>
				<g>
					<path fill="#3E463E" d="M0,354.414v17.898c0.926-6.105,1.38-12.19,1.445-17.98L0,354.414z"/>
				</g>
				<g>
					<path fill="#5C7C2A" d="M3.028,307.086"/>
				</g>
				<g>
					<path fill="#3E463E" d="M43.811,304.642l-40.783,2.483l5.131,1.635l0.123-1.112c0,0,9.129,0.326,15.139-0.132&#10;&#9;&#9;&#9;&#9;&#9;&#9;c6.014-0.454,12.808-1.42,12.808-1.42l0.422,1.029L43.811,304.642z"/>
				</g>
				<g>
					<path fill="#3E463E" d="M0,354.558v2.813c5.799,0.249,15.683,0.463,26.581-0.218c11.051-0.692,30.36-2.821,30.36-2.821&#10;&#9;&#9;&#9;&#9;&#9;&#9;l1.913,3.051l4.568-6.635L0,354.558z"/>
				</g>
				<g>
					<path fill="#3E463E" d="M0,401.876v5.352c8.684,0.142,19.577,0.091,30.782-0.542c16.3-0.921,47.407-5.08,47.407-5.08&#10;&#9;&#9;&#9;&#9;&#9;&#9;l2.365,5.115l4.47-8.748L0,401.876z"/>
				</g>
			</g>
			<g>
				<g>
					<path fill="#B6BE8E" d="M118.959,284.298c0,0,5.74,33.874,16.361,47.367l-2.385,0.144&#10;&#9;&#9;&#9;&#9;&#9;&#9;c-7.17-14.326-12.746-30.037-14.113-46.267C118.87,285.128,118.922,284.706,118.959,284.298z"/>
				</g>
				<g>
					<path fill="#5D7352" d="M118.481,288.29c0.129-0.935,0.241-1.845,0.341-2.748c1.368,16.229,6.943,31.94,14.113,46.267&#10;&#9;&#9;&#9;&#9;&#9;&#9;l-22.843,1.392C119.566,321.851,118.109,303.182,118.481,288.29z"/>
				</g>
				<g>
					<path fill="#3E463E" d="M118.481,288.29c-0.372,14.892,1.914,30.455-7.131,44.91l-5.882,0.282&#10;&#9;&#9;&#9;&#9;&#9;&#9;C108.14,330.099,115.944,306.503,118.481,288.29z"/>
				</g>
				<g>
					<path fill="#B6BE8E" d="M129.481,332.021c0,0,8.14,20.982,20.196,33.422l-5.871,0.354&#10;&#9;&#9;&#9;&#9;&#9;&#9;c-7.615-9.753-11.332-22.296-16.198-33.664L129.481,332.021z"/>
				</g>
				<g>
					<path fill="#5D7352" d="M110.701,333.164l16.907-1.03c4.866,11.368,8.583,23.911,16.198,33.664l-39.796,2.388&#10;&#9;&#9;&#9;&#9;&#9;&#9;C111.11,358.625,111.932,344.967,110.701,333.164z"/>
				</g>
				<g>
					<g>
						<path fill="#3E463E" d="M109.377,333.245l2.599-0.16l0,0c1.229,11.801-0.866,25.54-7.966,35.101l-5.875,0.353l-2.619,0.159&#10;&#9;&#9;&#9;&#9;&#9;&#9;&#9;C95.759,368.275,108.343,346.424,109.377,333.245z"/>
					</g>
					<g>
						<path fill="#4B5E21" d="M95.517,368.697L95.517,368.697C95.51,368.705,95.51,368.708,95.517,368.697z"/>
					</g>
				</g>
				<g>
					<path fill="#5D7352" d="M96.523,403.166l58.9-2.818c0.7,10.485,5.982,18.978,12.79,26.412l-73.66,3.486&#10;&#9;&#9;&#9;&#9;&#9;&#9;C97.053,421.695,98.342,412.286,96.523,403.166z"/>
				</g>
				<g>
					<path fill="#B6BE8E" d="M159.429,400.155c0,0,7.897,20.256,17.656,26.188l-13.584,0.267&#10;&#9;&#9;&#9;&#9;&#9;&#9;c-6.805-7.439-9.682-15.776-10.38-26.262L159.429,400.155z"/>
				</g>
				<g>
					<path fill="#3E463E" d="M90.457,403.459l6.067-0.293c1.818,9.12,0.53,18.529-1.969,27.08l-21.812,1.029&#10;&#9;&#9;&#9;&#9;&#9;&#9;C72.742,431.275,87.586,417.81,90.457,403.459z"/>
				</g>
				<g>
					<path fill="#303029" d="M72.167,431.486c0.015,0.356,23.638-0.488,52.764-1.887c29.125-1.396,52.171-2.9,52.154-3.257&#10;&#9;&#9;&#9;&#9;&#9;&#9;c-0.018-0.354-23.091,0.568-52.215,1.969C95.745,429.708,72.15,431.129,72.167,431.486z"/>
				</g>
				<g>
					<path fill="#303029" d="M127.28,428.287c0,0-0.757,14.618,2.684,20.715h-9.568c0.261-1.162,3.83-12.8,2.776-20.715H127.28z"/>
				</g>
				<g>
					<path fill="#5D7352" d="M104.308,368.067l37.912-2.185c1.885,12.66,7.222,25.305,16.308,34.516l-62.077,2.793&#10;&#9;&#9;&#9;&#9;&#9;&#9;C101.989,392.538,104.18,379.517,104.308,368.067z"/>
				</g>
				<g>
					<path fill="#B6BE8E" d="M142.22,365.883l2.103-0.117c0,0,9.372,22.832,21.234,34.315l-7.029,0.317&#10;&#9;&#9;&#9;&#9;&#9;&#9;C149.442,391.188,144.105,378.543,142.22,365.883z"/>
				</g>
				<g>
					<path fill="#3E463E" d="M100.013,368.311l4.295-0.243c-0.128,11.449-2.319,24.471-7.856,35.124l-11.654,0.525&#10;&#9;&#9;&#9;&#9;&#9;&#9;C88.244,398.552,100.013,368.311,100.013,368.311z"/>
				</g>
				<g>
					<path fill="#5C7C2A" d="M105.467,333.482"/>
				</g>
				<g>
					<path fill="#3E463E" d="M135.321,331.693l-29.854,1.817l3.756,1.197l0.09-0.814c0,0,6.683,0.238,11.082-0.097&#10;&#9;&#9;&#9;&#9;&#9;&#9;c4.402-0.332,9.375-1.039,9.375-1.039l0.309,0.753L135.321,331.693z"/>
				</g>
				<g>
					<path fill="#3E463E" d="M149.677,365.443l-54.16,3.254l2.891,3.701l0.916-2.327c0,0,10.769,0.849,23.385,0.062&#10;&#9;&#9;&#9;&#9;&#9;&#9;c8.089-0.507,22.224-2.065,22.224-2.065l1.4,2.233L149.677,365.443z"/>
				</g>
				<g>
					<path fill="#3E463E" d="M165.489,400.013l-80.691,3.704l3.817,5.693l1.116-3.109c0,0,17.447,1.14,36.053,0.09&#10;&#9;&#9;&#9;&#9;&#9;&#9;c11.932-0.674,34.703-3.719,34.703-3.719l1.731,3.744L165.489,400.013z"/>
				</g>
			</g>
			<g>
				<g>
					<path fill="#B6BE8E" d="M195.598,280.927c0,0,5.74,33.874,16.361,47.367l-2.385,0.144&#10;&#9;&#9;&#9;&#9;&#9;&#9;c-7.17-14.326-12.746-30.037-14.113-46.267C195.508,281.757,195.56,281.335,195.598,280.927z"/>
				</g>
				<g>
					<path fill="#5D7352" d="M195.119,284.919c0.129-0.935,0.241-1.845,0.341-2.748c1.368,16.229,6.943,31.94,14.113,46.267&#10;&#9;&#9;&#9;&#9;&#9;&#9;l-22.843,1.392C196.205,318.479,194.748,299.811,195.119,284.919z"/>
				</g>
				<g>
					<path fill="#3E463E" d="M195.119,284.919c-0.372,14.892,1.914,30.455-7.131,44.91l-5.882,0.282&#10;&#9;&#9;&#9;&#9;&#9;&#9;C184.778,326.728,192.583,303.132,195.119,284.919z"/>
				</g>
				<g>
					<path fill="#B6BE8E" d="M206.119,328.65c0,0,8.14,20.982,20.196,33.422l-5.871,0.354c-7.615-9.753-11.332-22.296-16.198-33.664&#10;&#9;&#9;&#9;&#9;&#9;&#9;L206.119,328.65z"/>
				</g>
				<g>
					<path fill="#5D7352" d="M187.339,329.793l16.907-1.03c4.866,11.368,8.583,23.911,16.198,33.664l-39.796,2.388&#10;&#9;&#9;&#9;&#9;&#9;&#9;C187.748,355.254,188.57,341.596,187.339,329.793z"/>
				</g>
				<g>
					<g>
						<path fill="#3E463E" d="M186.016,329.874l2.599-0.16l0,0c1.229,11.801-0.866,25.54-7.966,35.101l-5.875,0.353l-2.619,0.159&#10;&#9;&#9;&#9;&#9;&#9;&#9;&#9;C172.397,364.904,184.981,343.053,186.016,329.874z"/>
					</g>
					<g>
						<path fill="#4B5E21" d="M172.155,365.326L172.155,365.326C172.148,365.334,172.148,365.337,172.155,365.326z"/>
					</g>
				</g>
				<g>
					<path fill="#5D7352" d="M173.162,399.795l58.9-2.818c0.7,10.485,5.982,18.978,12.79,26.412l-73.66,3.486&#10;&#9;&#9;&#9;&#9;&#9;&#9;C173.691,418.324,174.98,408.915,173.162,399.795z"/>
				</g>
				<g>
					<path fill="#B6BE8E" d="M236.067,396.784c0,0,7.897,20.256,17.656,26.188l-13.584,0.267&#10;&#9;&#9;&#9;&#9;&#9;&#9;c-6.805-7.439-9.682-15.776-10.38-26.262L236.067,396.784z"/>
				</g>
				<g>
					<path fill="#3E463E" d="M167.095,400.088l6.067-0.293c1.818,9.12,0.53,18.529-1.969,27.08l-21.812,1.029&#10;&#9;&#9;&#9;&#9;&#9;&#9;C149.38,427.904,164.225,414.438,167.095,400.088z"/>
				</g>
				<g>
					<path fill="#303029" d="M148.805,428.115c0.015,0.356,23.638-0.488,52.764-1.887c29.125-1.396,52.171-2.9,52.154-3.257&#10;&#9;&#9;&#9;&#9;&#9;&#9;c-0.018-0.354-23.091,0.568-52.215,1.969C172.383,426.337,148.788,427.758,148.805,428.115z"/>
				</g>
				<g>
					<path fill="#303029" d="M203.918,424.916c0,0-0.757,14.618,2.684,20.715h-9.568c0.261-1.162,3.83-12.8,2.776-20.715H203.918z"/>
				</g>
				<g>
					<path fill="#5D7352" d="M180.946,364.696l37.912-2.185c1.885,12.66,7.222,25.305,16.308,34.516l-62.077,2.793&#10;&#9;&#9;&#9;&#9;&#9;&#9;C178.627,389.167,180.818,376.146,180.946,364.696z"/>
				</g>
				<g>
					<path fill="#B6BE8E" d="M218.858,362.512l2.103-0.117c0,0,9.372,22.832,21.234,34.315l-7.029,0.317&#10;&#9;&#9;&#9;&#9;&#9;&#9;C226.08,387.816,220.744,375.172,218.858,362.512z"/>
				</g>
				<g>
					<path fill="#3E463E" d="M176.651,364.939l4.295-0.243c-0.128,11.449-2.319,24.471-7.856,35.124l-11.654,0.525&#10;&#9;&#9;&#9;&#9;&#9;&#9;C164.882,395.181,176.651,364.939,176.651,364.939z"/>
				</g>
				<g>
					<path fill="#5C7C2A" d="M182.105,330.111"/>
				</g>
				<g>
					<path fill="#3E463E" d="M211.959,328.322l-29.854,1.817l3.756,1.197l0.09-0.814c0,0,6.683,0.238,11.082-0.097&#10;&#9;&#9;&#9;&#9;&#9;&#9;c4.402-0.332,9.375-1.039,9.375-1.039l0.309,0.753L211.959,328.322z"/>
				</g>
				<g>
					<path fill="#3E463E" d="M226.315,362.072l-54.16,3.254l2.891,3.701l0.916-2.327c0,0,10.769,0.849,23.385,0.062&#10;&#9;&#9;&#9;&#9;&#9;&#9;c8.089-0.507,22.224-2.065,22.224-2.065l1.4,2.233L226.315,362.072z"/>
				</g>
				<g>
					<path fill="#3E463E" d="M242.127,396.642l-80.691,3.704l3.817,5.693l1.116-3.109c0,0,17.447,1.14,36.053,0.09&#10;&#9;&#9;&#9;&#9;&#9;&#9;c11.932-0.674,34.703-3.719,34.703-3.719l1.731,3.744L242.127,396.642z"/>
				</g>
			</g>
			<g>
				<g>
					<path fill="#B6BE8E" d="M483.59,197.502c0,0-8.573,50.604-24.441,70.762l3.563,0.217&#10;&#9;&#9;&#9;&#9;&#9;&#9;c10.713-21.404,19.042-44.875,21.084-69.119C483.726,198.742,483.648,198.112,483.59,197.502z"/>
				</g>
				<g>
					<path fill="#5D7352" d="M484.308,203.463c-0.195-1.395-0.361-2.753-0.512-4.102c-2.042,24.244-10.371,47.715-21.084,69.119&#10;&#9;&#9;&#9;&#9;&#9;&#9;l34.127,2.078C482.686,253.603,484.862,225.711,484.308,203.463z"/>
				</g>
				<g>
					<path fill="#3E463E" d="M484.308,203.463c0.555,22.248-2.861,45.5,10.65,67.096l8.789,0.421&#10;&#9;&#9;&#9;&#9;&#9;&#9;C499.755,265.924,488.096,230.675,484.308,203.463z"/>
				</g>
				<g>
					<path fill="#B6BE8E" d="M467.873,268.798c0,0-12.158,31.345-30.17,49.93l8.769,0.527c11.378-14.568,16.93-33.307,24.199-50.291&#10;&#9;&#9;&#9;&#9;&#9;&#9;L467.873,268.798z"/>
				</g>
				<g>
					<path fill="#5D7352" d="M495.928,270.505l-25.257-1.541c-7.27,16.984-12.821,35.723-24.199,50.291l59.454,3.568&#10;&#9;&#9;&#9;&#9;&#9;&#9;C495.318,308.54,494.09,288.136,495.928,270.505z"/>
				</g>
				<g>
					<g>
						<path fill="#3E463E" d="M497.906,270.624l-3.881-0.238l0,0c-1.838,17.631,1.293,38.154,11.9,52.438l8.774,0.527l3.913,0.238&#10;&#9;&#9;&#9;&#9;&#9;&#9;&#9;C518.252,322.958,499.452,290.312,497.906,270.624z"/>
					</g>
					<g>
						<path fill="#4B5E21" d="M518.613,323.589L518.613,323.589C518.623,323.6,518.623,323.605,518.613,323.589z"/>
					</g>
				</g>
				<g>
					<path fill="#5D7352" d="M517.109,375.082l-87.992-4.21c-1.046,15.664-8.938,28.35-19.107,39.456l110.042,5.209&#10;&#9;&#9;&#9;&#9;&#9;&#9;C516.317,402.763,514.393,388.707,517.109,375.082z"/>
				</g>
				<g>
					<path fill="#B6BE8E" d="M423.135,370.585c0,0-11.797,30.259-26.377,39.12l20.293,0.399&#10;&#9;&#9;&#9;&#9;&#9;&#9;c10.164-11.114,14.465-23.568,15.505-39.232L423.135,370.585z"/>
				</g>
				<g>
					<path fill="#3E463E" d="M526.175,375.517l-9.065-0.435c-2.717,13.625-0.792,27.681,2.942,40.455l32.586,1.536&#10;&#9;&#9;&#9;&#9;&#9;&#9;C552.638,417.073,530.46,396.958,526.175,375.517z"/>
				</g>
				<g>
					<path fill="#303029" d="M553.495,417.39c-0.021,0.534-35.312-0.729-78.825-2.817c-43.51-2.086-77.939-4.334-77.912-4.867&#10;&#9;&#9;&#9;&#9;&#9;&#9;c0.025-0.529,34.494,0.851,78.005,2.941C518.272,414.734,553.521,416.857,553.495,417.39z"/>
				</g>
				<g>
					<path fill="#303029" d="M471.162,412.61c0,0,1.131,21.839-4.011,30.948h14.295c-0.389-1.736-5.72-19.124-4.146-30.948H471.162z&#10;&#9;&#9;&#9;&#9;&#9;&#9;"/>
				</g>
				<g>
					<path fill="#5D7352" d="M505.479,322.646l-56.636-3.261c-2.818,18.913-10.79,37.802-24.362,51.563l92.736,4.171&#10;&#9;&#9;&#9;&#9;&#9;&#9;C508.944,359.204,505.671,339.752,505.479,322.646z"/>
				</g>
				<g>
					<path fill="#B6BE8E" d="M448.843,319.385l-3.141-0.178c0,0-14.003,34.11-31.725,51.267l10.503,0.475&#10;&#9;&#9;&#9;&#9;&#9;&#9;C438.053,357.187,446.024,338.298,448.843,319.385z"/>
				</g>
				<g>
					<path fill="#3E463E" d="M511.897,323.012l-6.419-0.366c0.192,17.106,3.466,36.559,11.738,52.474l17.409,0.786&#10;&#9;&#9;&#9;&#9;&#9;&#9;C529.479,368.188,511.897,323.012,511.897,323.012z"/>
				</g>
				<g>
					<path fill="#5C7C2A" d="M503.747,270.979"/>
				</g>
				<g>
					<path fill="#3E463E" d="M459.148,268.306l44.599,2.717l-5.61,1.789l-0.135-1.218c0,0-9.982,0.356-16.556-0.146&#10;&#9;&#9;&#9;&#9;&#9;&#9;c-6.575-0.494-14.004-1.551-14.004-1.551l-0.463,1.125L459.148,268.306z"/>
				</g>
				<g>
					<path fill="#3E463E" d="M437.703,318.728l80.91,4.861l-4.317,5.529l-1.369-3.477c0,0-16.088,1.267-34.937,0.092&#10;&#9;&#9;&#9;&#9;&#9;&#9;c-12.083-0.76-33.199-3.088-33.199-3.088l-2.092,3.336L437.703,318.728z"/>
				</g>
				<g>
					<path fill="#3E463E" d="M414.079,370.37l120.547,5.535l-5.702,8.506l-1.666-4.647c0,0-26.064,1.705-53.859,0.137&#10;&#9;&#9;&#9;&#9;&#9;&#9;c-17.828-1.008-51.843-5.558-51.843-5.558l-2.587,5.596L414.079,370.37z"/>
				</g>
			</g>
			<g>
				<g>
					<path fill="#B6BE8E" d="M704.949,237.76c0,0-6.882,40.609-19.614,56.786l2.859,0.172c8.597-17.175,15.28-36.01,16.92-55.466&#10;&#9;&#9;&#9;&#9;&#9;&#9;C705.057,238.754,704.995,238.249,704.949,237.76z"/>
				</g>
				<g>
					<path fill="#5D7352" d="M705.523,242.544c-0.155-1.12-0.289-2.209-0.409-3.292c-1.64,19.456-8.323,38.291-16.92,55.466&#10;&#9;&#9;&#9;&#9;&#9;&#9;l27.386,1.669C704.223,282.78,705.969,260.397,705.523,242.544z"/>
				</g>
				<g>
					<path fill="#3E463E" d="M705.523,242.544c0.445,17.854-2.295,36.513,8.549,53.843l5.915,0.283v-1.873&#10;&#9;&#9;&#9;&#9;&#9;&#9;C716.107,287.056,708.259,262.192,705.523,242.544z"/>
				</g>
				<g>
					<path fill="#B6BE8E" d="M692.336,294.974c0,0-9.758,25.154-24.212,40.068l7.037,0.424c9.13-11.692,13.586-26.729,19.42-40.357&#10;&#9;&#9;&#9;&#9;&#9;&#9;L692.336,294.974z"/>
				</g>
				<g>
					<path fill="#5D7352" d="M714.85,296.343l-20.269-1.234c-5.834,13.628-10.29,28.665-19.42,40.357l44.826,2.689v-4.413&#10;&#9;&#9;&#9;&#9;&#9;&#9;C714.152,322.746,713.562,308.698,714.85,296.343z"/>
					<path fill="#5D7352" d="M719.987,333.742v4.413"/>
				</g>
				<g>
					<g>
						<path fill="#3E463E" d="M716.437,296.439l-3.114-0.191c-1.292,12.399,0.479,26.58,6.665,37.612v-22.839&#10;&#9;&#9;&#9;&#9;&#9;&#9;&#9;C718.158,305.875,716.776,300.768,716.437,296.439z"/>
						<path fill="#3E463E" d="M719.987,311.021v22.839"/>
					</g>
				</g>
				<g>
					<path fill="#5D7352" d="M661.234,376.887c-0.84,12.57-7.172,22.751-15.334,31.664l74.087,3.507v-32.359L661.234,376.887z"/>
				</g>
				<g>
					<path fill="#B6BE8E" d="M656.433,376.657c0,0-9.467,24.282-21.167,31.394l16.285,0.32c8.157-8.919,11.607-18.914,12.443-31.484&#10;&#9;&#9;&#9;&#9;&#9;&#9;L656.433,376.657z"/>
				</g>
				<g>
					<path fill="#303029" d="M697.864,410.41c-34.916-1.677-62.578-2.784-62.599-2.359c-0.021,0.428,27.607,2.231,62.524,3.905&#10;&#9;&#9;&#9;&#9;&#9;&#9;c7.812,0.375,15.289,0.717,22.197,1.017v-1.452C713.102,411.159,705.649,410.784,697.864,410.41z"/>
				</g>
				<g>
					<path fill="#303029" d="M694.976,410.382c0,0,0.906,17.526-3.219,24.835h11.472c-0.312-1.393-4.592-15.347-3.328-24.835&#10;&#9;&#9;&#9;&#9;&#9;&#9;H694.976z"/>
				</g>
				<g>
					<path fill="#5D7352" d="M677.063,335.568c-2.261,15.179-8.658,30.337-19.551,41.379l62.475,2.812v-41.718L677.063,335.568z"/>
				</g>
				<g>
					<path fill="#B6BE8E" d="M677.063,335.568l-2.521-0.142c0,0-11.236,27.373-25.458,41.141l8.428,0.38&#10;&#9;&#9;&#9;&#9;&#9;&#9;C668.405,365.905,674.803,350.747,677.063,335.568z"/>
				</g>
				<g>
					<path fill="#3E463E" d="M685.335,294.579l6.283,2.181l0.371-0.904c0,0,5.962,0.848,11.239,1.246&#10;&#9;&#9;&#9;&#9;&#9;&#9;c5.274,0.401,13.286,0.116,13.286,0.116l0.107,0.977l3.365-1.072v-0.432L685.335,294.579z"/>
					<path fill="#3E463E" d="M719.987,297.122"/>
				</g>
				<g>
					<path fill="#3E463E" d="M668.124,335.042l4.009,5.822l1.679-2.678c0,0,16.946,1.868,26.644,2.477&#10;&#9;&#9;&#9;&#9;&#9;&#9;c7.486,0.468,14.428,0.454,19.532,0.322v-2.828L668.124,335.042z"/>
					<path fill="#3E463E" d="M719.987,338.157v2.828"/>
				</g>
				<g>
					<path fill="#3E463E" d="M649.166,376.484l3.924,7.679l2.075-4.49c0,0,27.298,3.65,41.604,4.459&#10;&#9;&#9;&#9;&#9;&#9;&#9;c8.262,0.466,16.33,0.572,23.219,0.521v-4.916L649.166,376.484z"/>
				</g>
			</g>
		</g>
		<linearGradient id="SVGID_2_" gradientUnits="userSpaceOnUse" x1="333.6309" y1="352.5859" x2="386.3698" y2="581.0234">
			<stop offset="0" style="stop-color:#422526"/>
			<stop offset="0.0992" style="stop-color:#3F2D2C"/>
			<stop offset="0.5639" style="stop-color:#324D44"/>
			<stop offset="1" style="stop-color:#40272C"/>
		</linearGradient>
		<path d="M 0 429.610992 H 720 V 503.998993 H 0 V 429.610992 Z" fill="url(#SVGID_2_)"/>
		<g>
			<g>
				<path fill="#435E43" d="M597.239,408.192c0-26.74-21.677-48.417-48.417-48.417s-48.417,21.677-48.417,48.417&#10;&#9;&#9;&#9;&#9;&#9;c0,1.286,0.064,2.556,0.163,3.815h96.508C597.175,410.748,597.239,409.479,597.239,408.192z"/>
				<path fill="#435E43" d="M636.443,408.192c0-21.652-17.553-39.204-39.204-39.204c-21.65,0-39.203,17.552-39.203,39.204&#10;&#9;&#9;&#9;&#9;&#9;c0,1.288,0.066,2.559,0.188,3.815h78.032C636.377,410.751,636.443,409.48,636.443,408.192z"/>
				<path fill="#435E43" d="M672.046,408.192c0-15.636-12.675-28.309-28.31-28.309c-15.634,0-28.309,12.673-28.309,28.309&#10;&#9;&#9;&#9;&#9;&#9;c0,1.295,0.095,2.567,0.264,3.815h56.091C671.95,410.76,672.046,409.487,672.046,408.192z"/>
			</g>
			<g>
				<path fill="#4D6641" d="M648.447,428.894c0-24.723-20.041-44.764-44.764-44.764c-24.722,0-44.763,20.041-44.763,44.764&#10;&#9;&#9;&#9;&#9;&#9;c0,1.188,0.06,2.362,0.15,3.527h89.226C648.388,431.256,648.447,430.082,648.447,428.894z"/>
				<path fill="#4D6641" d="M684.693,428.894c0-20.019-16.229-36.246-36.246-36.246c-20.017,0-36.244,16.228-36.244,36.246&#10;&#9;&#9;&#9;&#9;&#9;c0,1.19,0.061,2.365,0.173,3.527h72.144C684.632,431.259,684.693,430.084,684.693,428.894z"/>
				<path fill="#4D6641" d="M717.609,428.894c0-14.456-11.719-26.173-26.174-26.173c-14.453,0-26.172,11.717-26.172,26.173&#10;&#9;&#9;&#9;&#9;&#9;c0,1.197,0.088,2.373,0.244,3.527h51.857C717.521,431.267,717.609,430.091,717.609,428.894z"/>
			</g>
			<g>
				<path fill="#3E463E" d="M494.976,428.474c0-26.74-21.677-48.417-48.417-48.417s-48.417,21.677-48.417,48.417&#10;&#9;&#9;&#9;&#9;&#9;c0,1.286,0.064,2.556,0.163,3.815h96.508C494.911,431.029,494.976,429.76,494.976,428.474z"/>
				<path fill="#3E463E" d="M534.18,428.474c0-21.652-17.553-39.204-39.204-39.204c-21.65,0-39.203,17.552-39.203,39.204&#10;&#9;&#9;&#9;&#9;&#9;c0,1.288,0.066,2.559,0.188,3.815h78.032C534.113,431.032,534.18,429.762,534.18,428.474z"/>
				<path fill="#3E463E" d="M569.782,428.474c0-15.636-12.675-28.309-28.31-28.309c-15.634,0-28.309,12.673-28.309,28.309&#10;&#9;&#9;&#9;&#9;&#9;c0,1.295,0.095,2.567,0.264,3.815h56.091C569.687,431.041,569.782,429.769,569.782,428.474z"/>
			</g>
			<g>
				<path fill="#3E463E" d="M55.118,421.2c6,3,11,7,18,8c15,1,32-10,44,6c2,2,7,2,9,1c20.524-7.33,36.204,4.151,45.087,20.254h0.172&#10;&#9;&#9;&#9;&#9;&#9;c0.168-1.248,0.263-2.521,0.263-3.815c0-15.636-12.674-28.309-28.309-28.309c-5.656,0-10.919,1.665-15.34,4.522&#10;&#9;&#9;&#9;&#9;&#9;c-7.164-9.369-18.452-15.418-31.156-15.418c-5.651,0-11.018,1.205-15.871,3.357c-8.598-7.811-20.016-12.57-32.546-12.57&#10;&#9;&#9;&#9;&#9;&#9;C21.677,404.222,0,425.898,0,452.639c0,0.979,0.045,1.948,0.107,2.911C7.273,431.764,28.48,408.832,55.118,421.2z"/>
				<path fill="#4D6641" d="M126.118,436.2c-2,1-7,1-9-1c-12-16-29-5-44-6c-7-1-12-5-18-8C28.48,408.832,7.273,431.764,0.107,455.55&#10;&#9;&#9;&#9;&#9;&#9;c0.02,0.302,0.033,0.604,0.057,0.904h57.655h38.853h18.615h20.564h35.354C162.322,440.352,146.642,428.87,126.118,436.2z"/>
			</g>
			<g>
				<path fill="#435E43" d="M714.119,403.337c-5.651,0-11.018,1.205-15.871,3.357c-8.598-7.811-20.016-12.57-32.547-12.57&#10;&#9;&#9;&#9;&#9;&#9;c-26.74,0-48.417,21.677-48.417,48.417c0,0.979,0.046,1.948,0.106,2.911c7.167-23.786,28.373-46.718,55.012-34.35c6,3,11,7,18,8&#10;&#9;&#9;&#9;&#9;&#9;c9.66,0.645,20.148-3.68,29.598-2.573v-12.736C718.08,403.503,716.12,403.337,714.119,403.337z"/>
				<path fill="#5D7352" d="M690.402,419.103c-7-1-12-5-18-8c-26.639-12.368-47.845,10.563-55.012,34.35&#10;&#9;&#9;&#9;&#9;&#9;c0.02,0.302,0.033,0.604,0.057,0.904h57.656h38.852H720v-29.827C710.551,415.423,700.062,419.747,690.402,419.103z"/>
			</g>
		</g>
		<g>
			<g>
				<path d="M 258.23699951171875 303.7569885253906 L 240.17999267578125 444.5530090332031 L 175.6929931640625 444.5530090332031 Z" fill="#8C1025"/>
			</g>
			<g>
				<path d="M 434.2869873046875 336.21600341796875 L 430.6340026855469 335.7850036621094 L 429.343994140625 314.7200012207031 L 436.6520080566406 314.7200012207031 Z" fill="#AF1731"/>
			</g>
			<g>
				<path d="M 258.23699951171875 303.7569885253906 L 276.2929992675781 444.5530090332031 L 342.7139892578125 444.5530090332031 Z" fill="#AF1731"/>
			</g>
			<g>
				<path d="M 258.23699951171875 303.7569885253906 L 433.6409912109375 330.4100036621094 L 515.5390014648438 444.5530090332031 L 342.7139892578125 444.5530090332031 Z" fill="#D42C39"/>
			</g>
			<g>
				<path d="M 258.23699951171875 302.7130126953125 L 240.17999267578125 444.5530090332031 L 276.2929992675781 444.5530090332031 Z" fill="#421A10"/>
			</g>
			<g>
				<path d="M 260.60198974609375 307.4100036621094 L 256.947998046875 306.97900390625 L 255.65899658203125 285.9129943847656 L 262.9670104980469 285.9150085449219 Z" fill="#9B1229"/>
			</g>
			<g>
				<path d="M 162.4739990234375 420.6919860839844 L 167.63299560546875 420.6919860839844 L 167.63299560546875 444.5530090332031 L 165.05299377441406 444.5530090332031 Z" fill="#4C1E12"/>
			</g>
			<g>
				<path d="M 529.9420166015625 420.6919860839844 L 536.3909912109375 420.6919860839844 L 533.166015625 444.5530090332031 L 529.9420166015625 444.5530090332031 Z" fill="#4C1E12"/>
			</g>
			<g>
				
					<path d="M 410.013 379.744995 H 552.927994 V 380.493995 H 410.013 V 379.744995 Z" transform="matrix(0.6783 0.7348 -0.7348 0.6783 434.1705 -231.4912)" fill="#4C1E12"/>
			</g>
			<g>
				<path d="M 352.3909912109375 444.5530090332031 L 349.0570068359375 420.6919860839844 L 356.7239990234375 420.6919860839844 L 356.7239990234375 444.5530090332031 Z" fill="#4C1E12"/>
			</g>
		</g>
		<g>
			
				<path d="M 211.712006 286.971985 H 212.463006 V 448.23999 H 211.712006 V 286.971985 Z" transform="matrix(0.834 0.5517 -0.5517 0.834 238.0025 -56.0017)" fill="#4C1E12"/>
		</g>
		<g>
			<path fill="#4C1E12" d="M352.686,435.193c-14.734-9.609-88.525-129.256-91.659-134.345l-0.427-0.693l0.805,0.127l171.654,26.963&#10;&#9;&#9;&#9;&#9;l-0.117,0.74l-170.847-26.836c6.205,10.042,76.98,124.271,91.002,133.415L352.686,435.193z"/>
		</g>
	</g>
</g>
</svg>