<svg xmlns="http://www.w3.org/2000/svg" xmlns:xlink="http://www.w3.org/1999/xlink" id="master-artboard" width="2850" height="1800" x="0" y="0" enable-background="new 0 0 2850 1800" version="1.1" viewBox="0 0 2850 1800"><switch><g><linearGradient id="SVGID_1_" x1="1425" x2="1425" y1="31.477" y2="1380.346" gradientUnits="userSpaceOnUse"><stop offset="0" style="stop-color:#251d4c"/><stop offset=".277" style="stop-color:#563875"/><stop offset=".905" style="stop-color:#d17bdb"/><stop offset="1" style="stop-color:#e485eb"/></linearGradient><path fill="url(#SVGID_1_)" d="M 0 0 H 2850 V 1800 H 0 V 0 Z"/><g opacity=".4"><path fill="#FFF" d="M 2715.427978515625 977.9420166015625 L 2698.032958984375 963.5059814453125 L 2679.85205078125 977.156005859375 L 2694.2880859375 959.760986328125 L 2680.637939453125 941.5800170898438 L 2698.656982421875 955.3909912109375 L 2716.214111328125 942.3660278320312 L 2702.402099609375 959.1370239257812 Z" opacity=".4"/><path fill="#FFF" d="M 2163.237060546875 644.2550048828125 L 2149.866943359375 633.1610107421875 L 2135.89404296875 643.6510009765625 L 2146.989013671875 630.281982421875 L 2136.498046875 616.3090209960938 L 2150.346923828125 626.9240112304688 L 2163.841064453125 616.9130249023438 L 2153.22607421875 629.802001953125 Z" opacity=".6"/><path fill="#FFF" d="M 2688.81201171875 609.1190185546875 L 2678.294921875 600.3909912109375 L 2667.303955078125 608.6439819335938 L 2676.031005859375 598.1270141601562 L 2667.779052734375 587.135009765625 L 2678.673095703125 595.4849853515625 L 2689.2880859375 587.6099853515625 L 2680.93701171875 597.75 Z" opacity=".6"/><path fill="#FFF" d="M 2172.158935546875 921.5709838867188 L 2164.739990234375 915.4140014648438 L 2156.985107421875 921.2360229492188 L 2163.14208984375 913.8159790039062 L 2157.320068359375 906.0609741210938 L 2165.006103515625 911.9530029296875 L 2172.4951171875 906.39697265625 L 2166.60400390625 913.5499877929688 Z" opacity=".6"/><path fill="#FFF" d="M 2346.02294921875 1023.739990234375 L 2332.653076171875 1012.64599609375 L 2318.679931640625 1023.135986328125 L 2329.77490234375 1009.7670288085938 L 2319.283935546875 995.7940063476562 L 2333.133056640625 1006.4089965820312 L 2346.626953125 996.3980102539062 L 2336.011962890625 1009.2869873046875 Z" opacity=".6"/><path fill="#FFF" d="M 2336.906982421875 395.7430114746094 L 2323.5380859375 384.64801025390625 L 2309.56494140625 395.1390075683594 L 2320.659912109375 381.7699890136719 L 2310.1689453125 367.7959899902344 L 2324.01806640625 378.4119873046875 L 2337.511962890625 368.4010009765625 L 2326.89599609375 381.2900085449219 Z" opacity=".4"/><path fill="#FFF" d="M 2346 642.3380126953125 L 2342.72802734375 639.6220092773438 L 2339.30810546875 642.1900024414062 L 2342.02392578125 638.9180297851562 L 2339.4560546875 635.4979858398438 L 2342.845947265625 638.0960083007812 L 2346.14794921875 635.64599609375 L 2343.550048828125 638.7999877929688 Z" opacity=".93"/><path fill="#FFF" d="M 2630.43408203125 752.958984375 L 2624.156982421875 747.7490234375 L 2617.595947265625 752.6749877929688 L 2622.804931640625 746.3980102539062 L 2617.87890625 739.8369750976562 L 2624.382080078125 744.8209838867188 L 2630.718017578125 740.1199951171875 L 2625.73388671875 746.1729736328125 Z" opacity=".93"/><path fill="#FFF" d="M 2283.77490234375 816.2860107421875 L 2280.5029296875 813.5700073242188 L 2277.0830078125 816.1380004882812 L 2279.798095703125 812.8660278320312 L 2277.23095703125 809.4459838867188 L 2280.6201171875 812.0440063476562 L 2283.923095703125 809.593994140625 L 2281.324951171875 812.7479858398438 Z" opacity=".93"/><path fill="#FFF" d="M 2475.40087890625 1231.3580322265625 L 2472.12890625 1228.6419677734375 L 2468.708984375 1231.2099609375 L 2471.424072265625 1227.93798828125 L 2468.85693359375 1224.5179443359375 L 2472.24609375 1227.115966796875 L 2475.549072265625 1224.666015625 L 2472.950927734375 1227.8199462890625 Z" opacity=".93"/><path fill="#FFF" d="M 2490.458984375 857.5800170898438 L 2485.56396484375 853.5180053710938 L 2480.447998046875 857.3590087890625 L 2484.510009765625 852.4639892578125 L 2480.6689453125 847.3480224609375 L 2485.739990234375 851.2340087890625 L 2490.679931640625 847.5689697265625 L 2486.79296875 852.2880249023438 Z" opacity=".93"/><path fill="#FFF" d="M 2603.827880859375 203.67100524902344 L 2595.386962890625 196.66600036621094 L 2586.56494140625 203.2899932861328 L 2593.570068359375 194.8489990234375 L 2586.947021484375 186.02699279785156 L 2595.68994140625 192.72900390625 L 2604.208984375 186.4080047607422 L 2597.508056640625 194.54600524902344 Z" opacity=".93"/><path fill="#FFF" d="M 2050.0400390625 308.31201171875 L 2032.64599609375 293.8760070800781 L 2014.4649658203125 307.5260009765625 L 2028.9000244140625 290.1310119628906 L 2015.2509765625 271.95001220703125 L 2033.27001953125 285.760986328125 L 2050.825927734375 272.7359924316406 L 2037.0150146484375 289.5069885253906 Z" opacity=".4"/><path fill="#FFF" d="M 1024.6939697265625 954.0910034179688 L 1011.3250122070312 942.9959716796875 L 997.3510131835938 953.4869995117188 L 1008.4459838867188 940.1170043945312 L 997.9559936523438 926.1439819335938 L 1011.8049926757812 936.7589721679688 L 1025.2979736328125 926.7479858398438 L 1014.6829833984375 939.6380004882812 Z" opacity=".6"/><path fill="#FFF" d="M 1493.425048828125 151.48899841308594 L 1482.907958984375 142.76100158691406 L 1471.916015625 151.01400756835938 L 1480.64404296875 140.4969940185547 L 1472.3909912109375 129.5050048828125 L 1483.2860107421875 137.85499572753906 L 1493.9000244140625 129.97999572753906 L 1485.550048828125 140.1199951171875 Z" opacity=".6"/><path fill="#FFF" d="M 1693.2060546875 587.906005859375 L 1682.68896484375 579.177978515625 L 1671.697021484375 587.4299926757812 L 1680.425048828125 576.9140014648438 L 1672.1719970703125 565.9219970703125 L 1683.0670166015625 574.27197265625 L 1693.6810302734375 566.39697265625 L 1685.3310546875 576.5360107421875 Z" opacity=".6"/><path fill="#FFF" d="M 1485.3790283203125 257.5559997558594 L 1496.4739990234375 244.18600463867188 L 1485.9830322265625 230.21299743652344 L 1499.35205078125 241.30799865722656 L 1513.3260498046875 230.81700134277344 L 1502.7099609375 244.66600036621094 L 1512.7220458984375 258.1600036621094 L 1499.83203125 247.54400634765625 Z" opacity=".6"/><path fill="#FFF" d="M 1935.9010009765625 824.3359985351562 L 1922.531005859375 813.2410278320312 L 1908.5579833984375 823.7319946289062 L 1919.6529541015625 810.3629760742188 L 1909.1619873046875 796.3889770507812 L 1923.010986328125 807.0050048828125 L 1936.5050048828125 796.9940185546875 L 1925.8900146484375 809.8829956054688 Z" opacity=".6"/><path fill="#FFF" d="M 1198.364990234375 705.5789794921875 L 1184.9949951171875 694.4840087890625 L 1171.02197265625 704.9739990234375 L 1182.116943359375 691.60498046875 L 1171.6259765625 677.6320190429688 L 1185.4749755859375 688.2470092773438 L 1198.968994140625 678.2360229492188 L 1188.35400390625 691.125 Z" opacity=".4"/><path fill="#FFF" d="M 1150.613037109375 184.70799255371094 L 1147.3409423828125 181.99200439453125 L 1143.9210205078125 184.55999755859375 L 1146.635986328125 181.28799438476562 L 1144.0689697265625 177.8679962158203 L 1147.4580078125 180.46600341796875 L 1150.760986328125 178.01499938964844 L 1148.1629638671875 181.1699981689453 Z" opacity=".93"/><path fill="#FFF" d="M 1840.595947265625 195.052001953125 L 1834.3179931640625 189.8419952392578 L 1827.7569580078125 194.76800537109375 L 1832.967041015625 188.49099731445312 L 1828.041015625 181.92999267578125 L 1834.5439453125 186.91400146484375 L 1840.8800048828125 182.21299743652344 L 1835.89501953125 188.26499938964844 Z" opacity=".93"/><path fill="#FFF" d="M 1618.386962890625 146.656005859375 L 1615.114990234375 143.94000244140625 L 1611.6949462890625 146.50799560546875 L 1614.4110107421875 143.23599243164062 L 1611.843017578125 139.8159942626953 L 1615.2330322265625 142.41400146484375 L 1618.5350341796875 139.96400451660156 L 1615.93701171875 143.1179962158203 Z" opacity=".93"/><path fill="#FFF" d="M 1859.510986328125 509.4010009765625 L 1856.239013671875 506.6860046386719 L 1852.8189697265625 509.2539978027344 L 1855.5340576171875 505.98199462890625 L 1852.967041015625 502.56201171875 L 1856.35595703125 505.1600036621094 L 1859.6590576171875 502.7099914550781 L 1857.06103515625 505.864013671875 Z" opacity=".93"/><path fill="#FFF" d="M 2252.1640625 282.7019958496094 L 2247.26904296875 278.6400146484375 L 2242.153076171875 282.4809875488281 L 2246.215087890625 277.58599853515625 L 2242.3740234375 272.4700012207031 L 2247.445068359375 276.35699462890625 L 2252.385009765625 272.6910095214844 L 2248.498046875 277.4100036621094 Z" opacity=".93"/><path fill="#FFF" d="M 2282.43994140625 135.04100036621094 L 2274 128.03599548339844 L 2265.177978515625 134.66000366210938 L 2272.18310546875 126.21900177001953 L 2265.55908203125 117.39700317382812 L 2274.302978515625 124.0989990234375 L 2282.822021484375 117.77799987792969 L 2276.1201171875 125.91600036621094 Z" opacity=".93"/><path fill="#FFF" d="M 2188.79296875 1464.72900390625 L 2190.05810546875 1478.3360595703125 L 2203.666015625 1480.2740478515625 L 2190.05810546875 1481.5389404296875 L 2188.12109375 1495.14599609375 L 2186.322021484375 1481.5389404296875 L 2173.248046875 1479.6009521484375 L 2186.322021484375 1478.3360595703125 Z" opacity=".6"/><path fill="#FFF" d="M 1879.7550048828125 1148.5159912109375 L 1878.14697265625 1131.217041015625 L 1860.8480224609375 1128.7550048828125 L 1878.14697265625 1127.14599609375 L 1880.6090087890625 1109.8470458984375 L 1882.89599609375 1127.14599609375 L 1899.5159912109375 1129.6090087890625 L 1882.89599609375 1131.217041015625 Z" opacity=".4"/><path fill="#FFF" d="M 2331.782958984375 1404.2979736328125 L 2332.5380859375 1412.4200439453125 L 2340.659912109375 1413.5770263671875 L 2332.5380859375 1414.33203125 L 2331.381103515625 1422.4539794921875 L 2330.30810546875 1414.33203125 L 2322.50390625 1413.176025390625 L 2330.30810546875 1412.4200439453125 Z" opacity=".93"/><path fill="#FFF" d="M 2143.9169921875 1143.301025390625 L 2144.93310546875 1154.2220458984375 L 2155.85400390625 1155.7769775390625 L 2144.93310546875 1156.7919921875 L 2143.3779296875 1167.7139892578125 L 2141.93408203125 1156.7919921875 L 2131.44091796875 1155.238037109375 L 2141.93408203125 1154.2220458984375 Z" opacity=".93"/><path fill="#FFF" d="M 1649.708984375 923.3410034179688 L 1644.81396484375 919.2789916992188 L 1639.697998046875 923.1199951171875 L 1643.760009765625 918.2249755859375 L 1639.9189453125 913.1090087890625 L 1644.989990234375 916.9949951171875 L 1649.9300537109375 913.3300170898438 L 1646.04296875 918.0490112304688 Z" opacity=".93"/><path fill="#FFF" d="M 1472.095947265625 741.739013671875 L 1463.656005859375 734.7340087890625 L 1454.8330078125 741.3569946289062 L 1461.8380126953125 732.9169921875 L 1455.2149658203125 724.093994140625 L 1463.9580078125 730.7960205078125 L 1472.47802734375 724.4760131835938 L 1465.7760009765625 732.614013671875 Z" opacity=".93"/><path fill="#FFF" d="M 901.3779907226562 655.5449829101562 L 915.81298828125 638.1500244140625 L 902.1640014648438 619.968994140625 L 919.5590209960938 634.405029296875 L 937.739990234375 620.7550048828125 L 923.927978515625 638.7739868164062 L 936.9539794921875 656.3309936523438 L 920.1829833984375 642.5189819335938 Z" opacity=".4"/><path fill="#FFF" d="M 384.76300048828125 322.6449890136719 L 371.39300537109375 311.54998779296875 L 357.4200134277344 322.0400085449219 L 368.5150146484375 308.6709899902344 L 358.02398681640625 294.697998046875 L 371.87298583984375 305.31298828125 L 385.36700439453125 295.302001953125 L 374.7510070800781 308.1910095214844 Z" opacity=".6"/><path fill="#FFF" d="M 910.3380126953125 287.50799560546875 L 899.8209838867188 278.7799987792969 L 888.8289794921875 287.0329895019531 L 897.5570068359375 276.5159912109375 L 889.3049926757812 265.52398681640625 L 900.198974609375 273.8739929199219 L 910.81298828125 265.9989929199219 L 902.4630126953125 276.1390075683594 Z" opacity=".6"/><path fill="#FFF" d="M 393.68499755859375 599.9600219726562 L 386.2659912109375 593.802978515625 L 378.510986328125 599.625 L 384.6679992675781 592.2050170898438 L 378.84600830078125 584.4500122070312 L 386.5320129394531 590.3410034179688 L 394.0199890136719 584.7860107421875 L 388.1289978027344 591.9390258789062 Z" opacity=".6"/><path fill="#FFF" d="M 567.5490112304688 702.1290283203125 L 554.1790161132812 691.0339965820312 L 540.2059936523438 701.5250244140625 L 551.301025390625 688.156005859375 L 540.8099975585938 674.1820068359375 L 554.6589965820312 684.7979736328125 L 568.1530151367188 674.7869873046875 L 557.5369873046875 687.676025390625 Z" opacity=".6"/><path fill="#FFF" d="M 558.4329833984375 74.13200378417969 L 545.0640258789062 63.0369987487793 L 531.0900268554688 73.52799987792969 L 542.1849975585938 60.159000396728516 L 531.6950073242188 46.185001373291016 L 545.5440063476562 56.80099868774414 L 559.0369873046875 46.790000915527344 L 548.4219970703125 59.67900085449219 Z" opacity=".4"/><path fill="#FFF" d="M 567.5260009765625 320.72698974609375 L 564.2540283203125 318.010986328125 L 560.833984375 320.5790100097656 L 563.5490112304688 317.3070068359375 L 560.9819946289062 313.8869934082031 L 564.3709716796875 316.4849853515625 L 567.6740112304688 314.0350036621094 L 565.0759887695312 317.1889953613281 Z" opacity=".93"/><path fill="#FFF" d="M 851.9600219726562 431.3479919433594 L 845.6820068359375 426.13800048828125 L 839.1220092773438 431.0639953613281 L 844.3309936523438 424.7869873046875 L 839.405029296875 418.22601318359375 L 845.9080200195312 423.2099914550781 L 852.2440185546875 418.5090026855469 L 847.2589721679688 424.56201171875 Z" opacity=".93"/><path fill="#FFF" d="M 505.3009948730469 494.67498779296875 L 502.02899169921875 491.9590148925781 L 498.6090087890625 494.5270080566406 L 501.3240051269531 491.2550048828125 L 498.7569885253906 487.8349914550781 L 502.14599609375 490.4330139160156 L 505.4490051269531 487.9830017089844 L 502.85101318359375 491.13800048828125 Z" opacity=".93"/><path fill="#FFF" d="M 696.927001953125 909.7470092773438 L 693.655029296875 907.031005859375 L 690.2349853515625 909.5989990234375 L 692.9500122070312 906.3270263671875 L 690.3820190429688 902.906982421875 L 693.77197265625 905.5050048828125 L 697.0750122070312 903.0549926757812 L 694.4769897460938 906.208984375 Z" opacity=".93"/><path fill="#FFF" d="M 711.9849853515625 535.968994140625 L 707.0900268554688 531.906982421875 L 701.9730224609375 535.7479858398438 L 706.0360107421875 530.85302734375 L 702.1950073242188 525.7369995117188 L 707.2650146484375 529.6229858398438 L 712.2059936523438 525.9580078125 L 708.3189697265625 530.677001953125 Z" opacity=".93"/><path fill="#FFF" d="M 1169.35400390625 483.05999755859375 L 1160.9129638671875 476.05499267578125 L 1152.0909423828125 482.6789855957031 L 1159.095947265625 474.2380065917969 L 1152.4730224609375 465.4159851074219 L 1161.2159423828125 472.1180114746094 L 1169.7349853515625 465.7969970703125 L 1163.032958984375 473.93499755859375 Z" opacity=".93"/><path fill="#FFF" d="M 1325.3719482421875 37.07099914550781 L 1310.93701171875 54.465999603271484 L 1324.5860595703125 72.64700317382812 L 1307.1920166015625 58.21200180053711 L 1289.010986328125 71.86100006103516 L 1302.822021484375 53.84199905395508 L 1289.7969970703125 36.28499984741211 L 1306.5670166015625 50.09700012207031 Z" opacity=".4"/><path fill="#FFF" d="M 1346.1300048828125 905.3599853515625 L 1357.2239990234375 891.9910278320312 L 1346.7340087890625 878.0170288085938 L 1360.10302734375 889.1119995117188 L 1374.0760498046875 878.6220092773438 L 1363.4610595703125 892.4710083007812 L 1373.4720458984375 905.9639892578125 L 1360.5830078125 895.3489990234375 Z" opacity=".6"/><path fill="#FFF" d="M 109.2239990234375 297.0719909667969 L 100.49600219726562 307.5889892578125 L 108.74800109863281 318.58099365234375 L 98.23200225830078 309.8529968261719 L 87.23999786376953 318.1059875488281 L 95.58999633789062 307.2120056152344 L 87.71499633789062 296.59698486328125 L 97.85399627685547 304.9469909667969 Z" opacity=".6"/><path fill="#FFF" d="M 730.989990234375 992.3359985351562 L 722.2630004882812 1002.85302734375 L 730.5150146484375 1013.844970703125 L 719.9979858398438 1005.1170043945312 L 709.0070190429688 1013.3699951171875 L 717.3569946289062 1002.4760131835938 L 709.4819946289062 991.8610229492188 L 719.6209716796875 1000.2109985351562 Z" opacity=".6"/><path fill="#FFF" d="M 1617.89501953125 702.7760009765625 L 1606.800048828125 716.14501953125 L 1617.2900390625 730.1179809570312 L 1603.9210205078125 719.0230102539062 L 1589.947998046875 729.5139770507812 L 1600.56298828125 715.6649780273438 L 1590.552001953125 702.1710205078125 L 1603.4410400390625 712.7869873046875 Z" opacity=".6"/><path fill="#FFF" d="M 157.427001953125 502.7250061035156 L 144.0570068359375 491.6300048828125 L 130.08399963378906 502.1210021972656 L 141.1790008544922 488.75201416015625 L 130.68800354003906 474.77801513671875 L 144.53700256347656 485.3940124511719 L 158.031005859375 475.38299560546875 L 147.4149932861328 488.2720031738281 Z" opacity=".6"/><path fill="#FFF" d="M 1296.7530517578125 397.864990234375 L 1283.384033203125 386.7699890136719 L 1269.4110107421875 397.260009765625 L 1280.5050048828125 383.8909912109375 L 1270.0150146484375 369.9179992675781 L 1283.864013671875 380.5329895019531 L 1297.3570556640625 370.5220031738281 L 1286.741943359375 383.4110107421875 Z" opacity=".4"/><path fill="#FFF" d="M 1305.845947265625 644.458984375 L 1302.573974609375 641.7440185546875 L 1299.154052734375 644.3109741210938 L 1301.8699951171875 641.0390014648438 L 1299.302001953125 637.6190185546875 L 1302.6920166015625 640.2169799804688 L 1305.9940185546875 637.7670288085938 L 1303.39599609375 640.9219970703125 Z" opacity=".93"/><path fill="#FFF" d="M 1554.7860107421875 374.9010009765625 L 1549.5770263671875 381.1789855957031 L 1554.5030517578125 387.739990234375 L 1548.2249755859375 382.5299987792969 L 1541.6639404296875 387.45599365234375 L 1546.6490478515625 380.9530029296875 L 1541.947998046875 374.6180114746094 L 1548 379.60198974609375 Z" opacity=".93"/><path fill="#FFF" d="M 1506.3909912109375 597.1099853515625 L 1503.675048828125 600.3820190429688 L 1506.2430419921875 603.802001953125 L 1502.970947265625 601.0859985351562 L 1499.551025390625 603.6539916992188 L 1502.1490478515625 600.2639770507812 L 1499.697998046875 596.9619750976562 L 1502.85302734375 599.5599975585938 Z" opacity=".93"/><path fill="#FFF" d="M 2566.095947265625 467.7380065917969 L 2557.656005859375 460.7340087890625 L 2548.8330078125 467.35699462890625 L 2555.837890625 458.9169921875 L 2549.215087890625 450.0950012207031 L 2557.9580078125 456.7959899902344 L 2566.47802734375 450.47601318359375 L 2559.77587890625 458.614013671875 Z" opacity=".93"/><path fill="#FFF" d="M 2711.89501953125 428.7760009765625 L 2700.800048828125 442.1449890136719 L 2711.2900390625 456.1180114746094 L 2697.9208984375 445.02301025390625 L 2683.947998046875 455.5140075683594 L 2694.56298828125 441.6650085449219 L 2684.552001953125 428.1709899902344 L 2697.44091796875 438.7869873046875 Z" opacity=".6"/><path fill="#FFF" d="M 2600.39111328125 323.1099853515625 L 2597.675048828125 326.3819885253906 L 2600.242919921875 329.802001953125 L 2596.970947265625 327.08599853515625 L 2593.551025390625 329.65399169921875 L 2596.14892578125 326.2640075683594 L 2593.697998046875 322.9620056152344 L 2596.85302734375 325.55999755859375 Z" opacity=".93"/><path fill="#FFF" d="M 2766.39111328125 108.11000061035156 L 2763.675048828125 111.38200378417969 L 2766.242919921875 114.802001953125 L 2762.970947265625 112.08599853515625 L 2759.551025390625 114.65399932861328 L 2762.14892578125 111.26399993896484 L 2759.697998046875 107.96199798583984 L 2762.85302734375 110.55999755859375 Z" opacity=".93"/><path fill="#FFF" d="M 2036.3909912109375 84.11000061035156 L 2033.675048828125 87.38200378417969 L 2036.2430419921875 90.802001953125 L 2032.970947265625 88.08599853515625 L 2029.551025390625 90.65399932861328 L 2032.1490478515625 87.26399993896484 L 2029.697998046875 83.96199798583984 L 2032.85302734375 86.55999755859375 Z" opacity=".93"/><path fill="#FFF" d="M 2167.39111328125 480.1099853515625 L 2164.675048828125 483.3819885253906 L 2167.242919921875 486.802001953125 L 2163.970947265625 484.08599853515625 L 2160.551025390625 486.65399169921875 L 2163.14892578125 483.2640075683594 L 2160.697998046875 479.9620056152344 L 2163.85302734375 482.55999755859375 Z" opacity=".93"/><path fill="#FFF" d="M 1799.3909912109375 688.1099853515625 L 1796.675048828125 691.3820190429688 L 1799.2430419921875 694.802001953125 L 1795.970947265625 692.0859985351562 L 1792.551025390625 694.6539916992188 L 1795.1490478515625 691.2639770507812 L 1792.697998046875 687.9619750976562 L 1795.85302734375 690.5599975585938 Z" opacity=".93"/><path fill="#FFF" d="M 2134.39111328125 774.1099853515625 L 2131.675048828125 777.3820190429688 L 2134.242919921875 780.802001953125 L 2130.970947265625 778.0859985351562 L 2127.551025390625 780.6539916992188 L 2130.14892578125 777.2639770507812 L 2127.697998046875 773.9619750976562 L 2130.85302734375 776.5599975585938 Z" opacity=".93"/><path fill="#FFF" d="M 2692.39111328125 1263.1099853515625 L 2689.675048828125 1266.3819580078125 L 2692.242919921875 1269.802001953125 L 2688.970947265625 1267.0860595703125 L 2685.551025390625 1269.654052734375 L 2688.14892578125 1266.2640380859375 L 2685.697998046875 1262.9620361328125 L 2688.85302734375 1265.56005859375 Z" opacity=".93"/><path fill="#FFF" d="M 1558.3909912109375 1052.1099853515625 L 1555.675048828125 1055.3819580078125 L 1558.2430419921875 1058.802001953125 L 1554.970947265625 1056.0860595703125 L 1551.551025390625 1058.654052734375 L 1554.1490478515625 1055.2640380859375 L 1551.697998046875 1051.9620361328125 L 1554.85302734375 1054.56005859375 Z" opacity=".93"/><path fill="#FFF" d="M 847.8690185546875 958.4949951171875 L 843.635009765625 958.8889770507812 L 843.031982421875 963.1229858398438 L 842.6389770507812 958.8889770507812 L 838.405029296875 958.2860107421875 L 842.6389770507812 957.7269897460938 L 843.2420043945312 953.6589965820312 L 843.635009765625 957.7269897460938 Z" opacity=".93"/><path fill="#FFF" d="M 762.6900024414062 122.09100341796875 L 757.7949829101562 118.02899932861328 L 752.677978515625 121.87000274658203 L 756.7410278320312 116.9749984741211 L 752.8989868164062 111.85900115966797 L 757.969970703125 115.74600219726562 L 762.9110107421875 112.08000183105469 L 759.0239868164062 116.79900360107422 Z" opacity=".93"/><path fill="#FFF" d="M 304.7760009765625 38.05699920654297 L 297.77099609375 46.49700164794922 L 304.3940124511719 55.319000244140625 L 295.9540100097656 48.314998626708984 L 287.1319885253906 54.9379997253418 L 293.8330078125 46.194000244140625 L 287.51300048828125 37.67499923706055 L 295.6510009765625 44.37699890136719 Z" opacity=".93"/><path fill="#FFF" d="M 473.6390075683594 1265.9739990234375 L 484.156005859375 1274.7010498046875 L 495.1470031738281 1266.448974609375 L 486.4200134277344 1276.9659423828125 L 494.6719970703125 1287.9580078125 L 483.77801513671875 1279.6070556640625 L 473.16400146484375 1287.4820556640625 L 481.5140075683594 1277.343017578125 Z" opacity=".6"/><path fill="#FFF" d="M 132.06199645996094 733.1220092773438 L 143.15699768066406 719.7529907226562 L 132.66600036621094 705.780029296875 L 146.03500366210938 716.875 L 160.00900268554688 706.3839721679688 L 149.39300537109375 720.2329711914062 L 159.4040069580078 733.7269897460938 L 146.51499938964844 723.1110229492188 Z" opacity=".4"/><path fill="#FFF" d="M 532.0170288085938 1122.134033203125 L 538.2940063476562 1127.343017578125 L 544.8560180664062 1122.4169921875 L 539.64599609375 1128.6949462890625 L 544.572021484375 1135.2559814453125 L 538.0689697265625 1130.27099609375 L 531.7329711914062 1134.9720458984375 L 536.718017578125 1128.9200439453125 Z" opacity=".93"/><path fill="#FFF" d="M 322.5400085449219 916.2260131835938 L 315.5360107421875 924.666015625 L 322.15899658203125 933.4879760742188 L 313.7179870605469 926.4840087890625 L 304.89599609375 933.1069946289062 L 311.5979919433594 924.3629760742188 L 305.27801513671875 915.843994140625 L 313.4150085449219 922.5460205078125 Z" opacity=".93"/><path fill="#FFF" d="M 1735.2349853515625 374.7300109863281 L 1730.3399658203125 370.6679992675781 L 1725.2230224609375 374.5090026855469 L 1729.2860107421875 369.614013671875 L 1725.4439697265625 364.49700927734375 L 1730.5150146484375 368.3840026855469 L 1735.4560546875 364.718994140625 L 1731.5689697265625 369.43798828125 Z" opacity=".93"/><path fill="#FFF" d="M 99.77100372314453 582.333984375 L 88.8489990234375 583.3489990234375 L 87.29499816894531 594.27001953125 L 86.27899932861328 583.3489990234375 L 75.35800170898438 581.7940063476562 L 86.27899932861328 580.3499755859375 L 87.83399963378906 569.8569946289062 L 88.8489990234375 580.3499755859375 Z" opacity=".93"/></g><g><defs><path id="SVGID_2_" d="M 0 0 H 2029.551025 V 1536.954956 H 0 V 0 Z"/></defs><clipPath id="SVGID_3_"><use overflow="visible" xlink:href="#SVGID_2_"/></clipPath><g clip-path="url(#SVGID_3_)"><path fill="#E5EDD4" d="M 1877.328064 329.802002 A 1069.456055 1069.456055 0 0 1 807.872009 1399.258057 A 1069.456055 1069.456055 0 0 1 -261.584045 329.802002 A 1069.456055 1069.456055 0 0 1 807.872009 -739.654053 A 1069.456055 1069.456055 0 0 1 1877.328064 329.802002 Z" opacity=".15"/><path fill="#E5EDD4" d="M 1689.087036 329.802002 A 881.215027 881.215027 0 0 1 807.872009 1211.017029 A 881.215027 881.215027 0 0 1 -73.343018 329.802002 A 881.215027 881.215027 0 0 1 807.872009 -551.413025 A 881.215027 881.215027 0 0 1 1689.087036 329.802002 Z" opacity=".15"/><g><path fill="#FFF" d="M 1532.082031 329.802002 A 724.210022 724.210022 0 0 1 807.872009 1054.012024 A 724.210022 724.210022 0 0 1 83.661987 329.802002 A 724.210022 724.210022 0 0 1 807.872009 -394.40802 A 724.210022 724.210022 0 0 1 1532.082031 329.802002 Z"/></g><path fill="#EFEFF0" d="M888.829,841.607c-399.97,0-724.21-324.24-724.21-724.21c0-50.909,5.264-100.587,15.257-148.53 C118.674,75.124,83.662,198.374,83.662,329.802c0,399.97,324.24,724.21,724.21,724.21 c349.061,0,640.433-246.957,708.953-575.681C1391.773,695.443,1157.372,841.607,888.829,841.607z"/><g><g><path fill="#F6F6F6" d="M1132.745,280.233c-32.007-24.029-76.661-29.315-114.058-15.054 c-33.673,12.841-60.68,39.688-94.609,51.836c-18.975,6.794-40.391,9.193-56.722,20.384c-3.315,2.272-6.053,5.29-8.076,8.762h0 c-1.614,2.769-2.76,5.793-3.315,8.949c-11.675,66.367,36.648,136.155,101.608,155.481 c66.578,19.808,142.24-9.037,186.462-62.604c14.858-17.998,26.808-38.961,31.054-61.91 C1182.371,346.724,1164.752,304.263,1132.745,280.233z"/></g><g><path fill="#F6F6F6" d="M939.226-134.148c17.309,17.333,43.906,24.405,67.799,19.006 c21.514-4.861,40.204-18.786,61.813-23.206c12.085-2.472,25.268-2.069,36.132-7.434c2.206-1.089,4.126-2.68,5.653-4.609v0 c1.218-1.538,2.174-3.271,2.784-5.135c12.825-39.198-10.403-85.668-48.085-103.007c-38.62-17.771-86.962-6.853-118.397,21.768 c-10.562,9.616-19.619,21.282-24.18,34.817C914.922-178.733,921.916-151.481,939.226-134.148z"/></g><g><path fill="#F6F6F6" d="M1251.443,125.08c-10.862,1.632-17.971,13.103-18.677,24.064 c-1.228,19.058,14.326,37.669,33.299,39.843s38.334-12.436,41.449-31.277c3.115-18.841-10.514-38.905-29.177-42.953 c-6.17-1.338-14.056-0.212-16.488,5.614"/></g><g><path fill="#F6F6F6" d="M261.69,35.005c-8.281,1.244-13.7,9.989-14.239,18.346c-0.936,14.529,10.922,28.717,25.386,30.375 c14.464,1.658,29.225-9.48,31.599-23.844s-8.016-29.66-22.244-32.746c-4.704-1.02-10.716-0.162-12.57,4.28"/></g><g><path fill="#F6F6F6" d="M1315.988,575.418c-14.279,6.446-27.299,17.192-33.033,31.771s-2.564,33.161,9.917,42.63 s33.738,5.737,39.824-8.699c5.394-12.793-0.929-30.086,8.988-39.802c2.212-2.167,5.089-3.718,6.741-6.336 c3.697-5.859-1.033-14.08-7.518-16.518c-6.485-2.438-13.712-0.848-20.433,0.833"/></g><g><path fill="#F6F6F6" d="M580.521-249.025c-31.491,14.216-60.206,37.915-72.85,70.069s-5.654,73.133,21.871,94.016 c27.526,20.883,74.406,12.652,87.829-19.185c11.895-28.213-2.05-66.353,19.822-87.779c4.878-4.779,11.223-8.199,14.867-13.974 c8.154-12.922-2.278-31.052-16.58-36.43c-14.302-5.378-30.24-1.87-45.063,1.837"/></g><g><path fill="#F6F6F6" d="M620.882,169.614c-9.325-21.85-23.141-44.974-46.145-50.908c-14.276-3.683-29.312,0.122-43.466,4.249 c-76.785,22.387-143.645,31.307-222.152,46.595c-57.329,11.164-53.029,103.977-40.853,151.624 c5.218,20.421,12.576,40.766,25.748,57.22c17.568,21.944,44.496,35.255,72.264,39.626c27.768,4.37,56.349,0.367,83.251-7.783 c74.094-22.447,137.622-77.608,170.241-147.82c7.177-15.447,12.998-32.018,12.626-49.046 C632.064,198.197,626.839,183.573,620.882,169.614z"/></g><g><path fill="#F6F6F6" d="M943.032,96.975c-0.893-8.539-8.06-15.075-15.542-19.285c-16.639-9.361-37.321-11.214-55.358-4.958 l-14.234,3.47c-10.895-1.144-22.592-0.008-31.497,6.372c-8.905,6.38-13.832,19.096-8.795,28.824 c4.548,8.784,15.005,12.399,24.485,15.222c17.337,5.162,35.122,10.338,53.177,9.231s36.735-9.77,44.877-25.923 C942.163,105.922,943.498,101.435,943.032,96.975z"/></g><g><path fill="#F6F6F6" d="M961.063,962.008c-11.343-2.466-17.866-14.414-20.947-25.606c-2.821-10.249-4.027-20.94-3.559-31.56 c0.427-9.707,2.745-20.223,10.331-26.294c8.361-6.691,20.338-5.887,30.85-3.843c3.596,0.699,7.307,1.565,10.188,3.828 c5.374,4.22,6.302,11.817,8.947,18.118c2.895,6.898,8.133,12.605,11.091,19.477c4.85,11.268,2.666,25.231-5.395,34.48 c-8.061,9.248-21.594,13.32-33.42,10.054"/></g></g></g></g><g><g opacity=".04"><path fill="#FFF" d="M2381.199,391.683c-175.193,27.31-353.746,23.004-530.665,11.455 c-153.189-10-308.622-25.237-458.977,5.861c-126.953,26.258-244.654,84.444-363.96,135.308 C701.344,683.402,353.151,770.38,0.069,801.485v113.699c307.324,29.23,618.153-68.043,905.896-187.32 c150.19-62.258,299.819-131.402,460.165-157.815c98.565-16.236,199.051-15.909,298.893-13.035 c247.893,7.137,496.996,29.66,743.114-0.91c151.503-18.818,300.441-57.967,441.863-115.663V211.349 C2712.722,309.633,2548.068,365.671,2381.199,391.683z"/></g><g><g opacity=".04"><path fill="#FFF" d="M1844.473,0c-151.652,63.71-304.339,124.028-463.583,164.026 c-214.871,53.97-440.71,70.716-644.245,158.425C626.57,369.886,525.971,436.935,417.776,488.545 C285.331,551.723,143.598,590.853,0.069,622.841v6.032c125.516,10.588,253.624-19.492,372.73-63.568 c141.075-52.206,274.49-123.795,416.076-174.589c352.401-126.426,736.183-118.367,1107.317-166.569 C2193.041,185.593,2485.1,110.076,2763.613,0H1844.473z"/></g></g><g opacity=".04"><path fill="#FFF" d="M2105.781,808.341c-257.252-46.922-517.942-109.115-777.271-75.643 c-135.559,17.497-266.258,60.735-398.528,95.287C626.936,907.147,313.397,940.971,0.069,943.051v71.976 c266.39,25.996,535.426,41.355,796.074-14.927c178.17-38.473,424.448-65.233,605.555-44.818 c356.152,40.147,971.855,465.123,1448.303,345.348V804.208C2613.183,883.359,2352.511,853.344,2105.781,808.341z"/></g><g opacity=".04"><path fill="#FFF" d="M688.531,0c-167.27,93.685-335.085,186.392-503.446,278.087 c-61.417,33.45-122.981,66.793-185.017,99.172V533.89C296.19,405.688,554.895,186.503,853.212,55.574 C898.844,35.546,945.344,17.618,991.971,0H688.531z"/></g></g><g><path fill="#5D4E7D" d="M 1923.9720458984375 1502.9029541015625 L 1663.487060546875 1218.3089599609375 L 1375.887939453125 1483.802001953125 Z"/><path fill="#493C63" d="M 1976.47705078125 1134.8900146484375 L 1925.8310546875 1097.176025390625 L 1876.1400146484375 1142.4320068359375 L 1853.2060546875 1142.4320068359375 L 1720.3790283203125 1268.14404296875 L 1577.9959716796875 1334.77197265625 L 1540.72802734375 1454.197998046875 L 2028.8819580078125 1434.083984375 L 2053.201904296875 1198.9830322265625 Z"/><path fill="#9377D0" d="M 1925.8310546875 1097.176025390625 L 1890.449951171875 1175.4959716796875 L 1835.9549560546875 1196.8360595703125 L 1732.9229736328125 1333.1180419921875 L 1644.81396484375 1364.656005859375 L 1654.8470458984375 1413.3759765625 L 1641.384033203125 1454.197998046875 L 1540.72802734375 1454.197998046875 L 1577.9959716796875 1334.77197265625 L 1720.3790283203125 1268.14404296875 L 1853.2060546875 1142.4320068359375 L 1876.1400146484375 1142.4320068359375 Z"/><path fill="#5D4E7D" d="M 2155.208984375 1081.5040283203125 L 2024.822021484375 1206.8270263671875 L 1973.58203125 1175.4959716796875 L 1875.4310302734375 1269.489013671875 L 1768.6199951171875 1301.76904296875 L 1654.8470458984375 1454.197998046875 L 2605.572021484375 1454.197998046875 Z"/><path fill="#9377D0" d="M 2155.208984375 1081.5040283203125 L 2155.208984375 1175.4959716796875 L 2115.697998046875 1224.39794921875 L 2130.208984375 1314.8470458984375 L 2101.076904296875 1492.7640380859375 L 1959.741943359375 1474.1829833984375 L 1982.02099609375 1291.0889892578125 L 2037.7060546875 1261.77294921875 L 2024.822021484375 1206.8270263671875 Z"/><path fill="#9377D0" d="M 1973.58203125 1175.4959716796875 L 1945.947998046875 1259.3270263671875 L 1891.8570556640625 1287.468994140625 L 1887.696044921875 1315.8900146484375 L 1793.3819580078125 1355.1190185546875 L 1769.6600341796875 1440.260009765625 L 1754.970947265625 1454.197998046875 L 1654.8470458984375 1454.197998046875 L 1768.6199951171875 1301.76904296875 L 1875.4310302734375 1269.489013671875 Z"/><path fill="#493C63" d="M 2320.820068359375 1404.0870361328125 L 2033.3060302734375 1322.9630126953125 L 1988.77001953125 1298.9000244140625 L 1976.0460205078125 1310.407958984375 L 1891.7459716796875 1245.5419921875 L 1564.0909423828125 1556.4329833984375 L 2399.43896484375 1556.4329833984375 Z"/><path fill="#9377D0" d="M 1891.7459716796875 1245.5419921875 L 1878.178955078125 1339.6710205078125 L 1828.4620361328125 1370.81494140625 L 1860.10400390625 1395.73095703125 L 1750.927978515625 1474.3719482421875 L 1729.6209716796875 1556.4329833984375 L 1564.0909423828125 1556.4329833984375 Z"/><path fill="#9377D0" d="M 1988.77001953125 1298.9000244140625 L 1931.1209716796875 1349.489990234375 L 1959.946044921875 1345.5870361328125 L 1955.2249755859375 1419.5860595703125 Z"/><path fill="#9377D0" d="M 2006.248046875 1419.5860595703125 L 1897.56298828125 1475.4730224609375 L 1886.6090087890625 1538.1800537109375 L 1923.9429931640625 1483.18603515625 Z"/></g><g><path fill="#9377D0" d="M 2433.794921875 1167.7139892578125 L 2356.657958984375 1210.862060546875 L 2332.386962890625 1250.0780029296875 L 2313.22705078125 1244.22900390625 L 2263.491943359375 1294.27197265625 L 2207.864013671875 1270.81396484375 L 2156.85009765625 1340.39501953125 L 2087.8779296875 1399.428955078125 L 1961.6190185546875 1498.52294921875 L 2447.7080078125 1498.52294921875 L 2477.24609375 1246.468994140625 Z"/><path fill="#5D4E7D" d="M 2313.22705078125 1244.22900390625 L 2316.18994140625 1276.3409423828125 L 2309.905029296875 1350.8409423828125 L 2332.386962890625 1250.0780029296875 Z"/><path fill="#5D4E7D" d="M 2433.794921875 1167.7139892578125 L 2417.97900390625 1206.5439453125 L 2460.5859375 1263.5689697265625 L 2430.2060546875 1334.9119873046875 L 2438.952880859375 1380.553955078125 L 2406.125 1411.73095703125 L 2447.7080078125 1498.52294921875 L 2867 1494.9010009765625 L 2716.7890625 1361.0140380859375 L 2496.924072265625 1207.6219482421875 L 2485.06494140625 1223.2659912109375 Z"/><path fill="#9377D0" d="M 2496.924072265625 1207.6219482421875 L 2485.06494140625 1223.2659912109375 L 2556.923095703125 1276.884033203125 L 2598.989013671875 1278.8289794921875 Z"/><path fill="#5D4E7D" d="M 2207.864013671875 1270.81396484375 L 2223.093994140625 1333.0350341796875 L 2263.491943359375 1294.27197265625 Z"/></g><path fill="#B4AFE5" d="M 0 1438.963989 H 2847.808105 V 1800 H 0 V 1438.963989 Z"/><g><path fill="#FFF" d="M1627.236,1800h125.571c-53.875-40.164-116.841-57.662-179.807-77.036 c-56-18-114-3-170,15c-16,5-31,13-47,20c-23.048,9.878-42.776,24.281-59.364,42.036h129.238 c16.823-14.881,36.735-25.041,59.126-26.036C1530.228,1771.497,1595.058,1764.984,1627.236,1800z" opacity=".16"/><path fill="#FFF" d="M2092,1790.964c-11-3-21-9-31-12c-68-24-134-45-198-78c-70-37-147-46-224-66 c-33-9-65-15-98-17c-84-6-172-17-250,22c-5,2-13,7-13,12c-1,23,0,50-22,63c-39,24-75,48-120,60c-5,2-10,6-15,8 c-18.212,6.45-36.712,11.891-55.281,17.036h75.774c19.45-6.719,38.586-14.575,57.507-24.036c55-26,103-57,155-92 c37-25,78-29,120-26c35,3,69,9,103,18c30,8,57,17,87,26c25,7,49,19,72,31c17,9,34,15,51,22c9,5,17,11,26,15 c30.475,13.714,62.691,19.307,93.995,30.036h216.513C2112.996,1797.193,2102.494,1794.186,2092,1790.964z" opacity=".16"/><path fill="#FFF" d="M2830,1487.964c-21,13-42,17-64,26c-22,10-45,14-70,20c-6,1-13-1-19,0 c-79,15-154,16-232,22c-36,3-72,0-108,4c-44,3-87-5-131-4c-9,1-17-3-26-2c-29,0-56-4-86-8c-10-2-20,0-30-1c-53-7-104-13-157-18 c-18-2-35-6-53-8c-126-9-251-10-377-6c-28,1-57,2-86,4c-89,8-179,8-262,44c-5,2-9,8-11,14c-6,25,24,32,32,50c5,10,3,24,2,36 c0,0-3,0-4,0c0,1,0,3,0,4c-5,1-10-1-15,0c-102,18-194,45-295,59c-80,11-156,14-236,25 c-133.24,18.288-261.363,33.165-391.609,51.036h381.067c109.655-16.06,215.87-28.406,328.542-46.036c68-11,129-30,198-45 c10-3,21-7,29-11c23-12,43-25,64-40c0-1,0-3,0-4c1,0,3,0,4,0c1-6,1-13,0-19c-1,0-3,0-4,0c0-1,0-3,0-4c-3-3-4-5-3-7c-1,0-3,0-4,0 c-1-2-1-6,0-7c7-6,2-10,4-11c14-7,25-21,41-19c0-1,0-3,0-4c3-1,7,1,11,0c3-1,5-3,8-4c4-1,8,1,11,0c17-6,34-7,52-7c4,0,7-4,11-4 c75-1,150-1,225,0c6,1,12,3,18,4c6,0,13-1,19,0c14,3,27,3,41,4c13,1,25,5,38,7c7,1,15-1,22,0c14,3,27,3,41,5c44,5,87,17,131,20 c26,1,50,6,75,8c7,0,15-1,22,0c34,5,67,11,101,14c33,2,65,6,97,15c112,28,221,27,333,24c6-1,13-3,19-4c32-1,65,1,97,0 c9-1,17-4,26-3c70.584,1.988,133.264-27.645,200.808-46.66v-139.122C2841.942,1480.198,2835.972,1484.082,2830,1487.964z" opacity=".16"/><path fill="#FFF" d="M800,1611.964c-7,17,14,34,31,36c58,9,114,3,172-11c5-1,10,0,15,0c23-1,37-15,52-31 c9-11,11-26,4-37c-8-14-10-30-1-41c15-20,40-22,63-26c7-2,14-1,21-3c20-8,40-11,61-15c12-2,24-2,36-4c9-1,18-4,28-5 c41-4,81-10,121-14c78-6,154-17,233-8c30,3,59,8,89,11c79,7,158,14,236,21c138.667,10.785,284.451,6.721,413.13-46H1089.21 c-47.799,11.103-94.64,24.407-141.21,42C886,1504.964,825,1547.964,800,1611.964z" opacity=".16"/></g><path fill="#B4AFE5" d="M2374.13,1438.964c-128.679,52.721-274.463,56.785-413.13,46c-78-7-157-14-236-21c-30-3-59-8-89-11 c-79-9-155,2-233,8c-40,4-80,10-121,14c-10,1-19,4-28,5c-12,2-24,2-36,4c-21,4-41,7-61,15c-7,2-14,1-21,3c-23,4-48,6-63,26 c-9,11-7,27,1,41c7,11,5,26-4,37c-15,16-29,30-52,31c-5,0-10-1-15,0c-58,14-114,20-172,11c-17-2-38-19-31-36c25-64,86-107,148-131 c46.571-17.593,93.411-30.897,141.21-42H0V1800h210.391c130.246-17.871,258.369-32.748,391.609-51.036c80-11,156-14,236-25 c101-14,193-41,295-59c5-1,10,1,15,0c0-1,0-3,0-4c1,0,4,0,4,0c1-12,3-26-2-36c-8-18-38-25-32-50c2-6,6-12,11-14 c83-36,173-36,262-44c29-2,58-3,86-4c126-4,251-3,377,6c18,2,35,6,53,8c53,5,104,11,157,18c10,1,20-1,30,1c30,4,57,8,86,8 c9-1,17,3,26,2c44-1,87,7,131,4c36-4,72-1,108-4c78-6,153-7,232-22c6-1,13,1,19,0c25-6,48-10,70-20c22-9,43-13,64-26 c5.972-3.882,11.942-7.767,17.808-11.782v-37.218H2374.13z"/><g><path fill="none" stroke="#FFF" stroke-linecap="round" stroke-miterlimit="10" stroke-width="4" d="M 619.572021 1467.876953 L 704.307983 1467.876953" opacity=".42"/><path fill="none" stroke="#FFF" stroke-linecap="round" stroke-miterlimit="10" stroke-width="4" d="M 817.744019 1467.876953 L 1138.636963 1467.876953" opacity=".42"/><path fill="none" stroke="#FFF" stroke-linecap="round" stroke-miterlimit="10" stroke-width="4" d="M 1284.359985 1467.876953 L 1397.442017 1467.876953" opacity=".42"/><path fill="none" stroke="#FFF" stroke-linecap="round" stroke-miterlimit="10" stroke-width="4" d="M 1566.777954 1467.876953 L 1763 1467.876953" opacity=".42"/><path fill="none" stroke="#FFF" stroke-linecap="round" stroke-miterlimit="10" stroke-width="4" d="M 1974.186035 1467.876953 L 2097.614014 1467.876953" opacity=".42"/><path fill="none" stroke="#FFF" stroke-linecap="round" stroke-miterlimit="10" stroke-width="4" d="M 2177.7771 1467.876953 L 2216.364014 1467.876953" opacity=".42"/><path fill="none" stroke="#FFF" stroke-linecap="round" stroke-miterlimit="10" stroke-width="4" d="M 254.052994 1467.876953 L 292.640015 1467.876953" opacity=".42"/><path fill="none" stroke="#FFF" stroke-linecap="round" stroke-miterlimit="10" stroke-width="4" d="M 380.274994 1467.876953 L 518.896973 1467.876953" opacity=".42"/><path fill="none" stroke="#FFF" stroke-linecap="round" stroke-miterlimit="10" stroke-width="4" d="M 475.196991 1505.744995 L 602.338013 1505.744995" opacity=".42"/><path fill="none" stroke="#FFF" stroke-linecap="round" stroke-miterlimit="10" stroke-width="4" d="M 860.112 1505.744995 L 889.767029 1505.744995" opacity=".42"/><path fill="none" stroke="#FFF" stroke-linecap="round" stroke-miterlimit="10" stroke-width="4" d="M 1127.724976 1505.744995 L 1211.707031 1505.744995" opacity=".42"/><path fill="none" stroke="#FFF" stroke-linecap="round" stroke-miterlimit="10" stroke-width="4" d="M 1379.645996 1505.744995 L 1415.237061 1505.744995" opacity=".42"/><path fill="none" stroke="#FFF" stroke-linecap="round" stroke-miterlimit="10" stroke-width="4" d="M 1717.352051 1505.744995 L 1858.02002 1505.744995" opacity=".42"/><path fill="none" stroke="#FFF" stroke-linecap="round" stroke-miterlimit="10" stroke-width="4" d="M 2035.869995 1505.744995 L 2070.533936 1505.744995" opacity=".42"/><path fill="none" stroke="#FFF" stroke-linecap="round" stroke-miterlimit="10" stroke-width="4" d="M 590.80603 1543.614014 L 619.572021 1543.614014" opacity=".42"/><path fill="none" stroke="#FFF" stroke-linecap="round" stroke-miterlimit="10" stroke-width="4" d="M 676.552979 1543.614014 L 770.359009 1543.614014" opacity=".42"/><path fill="none" stroke="#FFF" stroke-linecap="round" stroke-miterlimit="10" stroke-width="4" d="M 983.372009 1543.614014 L 1022.724976 1543.614014" opacity=".42"/><path fill="none" stroke="#FFF" stroke-linecap="round" stroke-miterlimit="10" stroke-width="4" d="M 1338.171021 1543.614014 L 1470.994995 1543.614014" opacity=".42"/><path fill="none" stroke="#FFF" stroke-linecap="round" stroke-miterlimit="10" stroke-width="4" d="M 1598.475952 1543.614014 L 1626.036987 1543.614014" opacity=".42"/><path fill="none" stroke="#FFF" stroke-linecap="round" stroke-miterlimit="10" stroke-width="4" d="M 1823.834961 1543.614014 L 1892.203979 1543.614014" opacity=".42"/><path fill="none" stroke="#FFF" stroke-linecap="round" stroke-miterlimit="10" stroke-width="4" d="M 619.572021 1581.483032 L 681.491028 1581.483032" opacity=".42"/><path fill="none" stroke="#FFF" stroke-linecap="round" stroke-miterlimit="10" stroke-width="4" d="M 1456.454956 1581.483032 L 1542.35498 1581.483032" opacity=".42"/><path fill="none" stroke="#FFF" stroke-linecap="round" stroke-miterlimit="10" stroke-width="4" d="M 1717.259033 1581.483032 L 1753.036011 1581.483032" opacity=".42"/><path fill="none" stroke="#FFF" stroke-linecap="round" stroke-miterlimit="10" stroke-width="4" d="M 1310.395996 1581.483032 L 1346.172974 1581.483032" opacity=".42"/><path fill="none" stroke="#FFF" stroke-linecap="round" stroke-miterlimit="10" stroke-width="4" d="M 934.622009 1581.483032 L 1216.185059 1581.483032" opacity=".42"/><path fill="none" stroke="#FFF" stroke-linecap="round" stroke-miterlimit="10" stroke-width="4" d="M 749.518005 1619.352051 L 950.250977 1619.352051" opacity=".42"/><path fill="none" stroke="#FFF" stroke-linecap="round" stroke-miterlimit="10" stroke-width="4" d="M 1010.322998 1619.352051 L 1077.177979 1619.352051" opacity=".42"/><path fill="none" stroke="#FFF" stroke-linecap="round" stroke-miterlimit="10" stroke-width="4" d="M 1602.962036 1619.352051 L 1619.243042 1619.352051" opacity=".42"/><path fill="none" stroke="#FFF" stroke-linecap="round" stroke-miterlimit="10" stroke-width="4" d="M 1174.046021 1619.352051 L 1482.522949 1619.352051" opacity=".42"/><path fill="none" stroke="#FFF" stroke-linecap="round" stroke-miterlimit="10" stroke-width="4" d="M 891.362 1657.220947 L 1216.185059 1657.220947" opacity=".42"/><path fill="none" stroke="#FFF" stroke-linecap="round" stroke-miterlimit="10" stroke-width="4" d="M 1270.343018 1657.220947 L 1338.171021 1657.220947" opacity=".42"/><path fill="none" stroke="#FFF" stroke-linecap="round" stroke-miterlimit="10" stroke-width="4" d="M 1459.468018 1657.220947 L 1482.522949 1657.220947" opacity=".42"/></g><g><path fill="none" stroke="#FFF" stroke-linecap="round" stroke-miterlimit="10" stroke-width="4" d="M 476.578003 1743.619995 L 561.315002 1743.619995" opacity=".42"/><path fill="none" stroke="#FFF" stroke-linecap="round" stroke-miterlimit="10" stroke-width="4" d="M 674.75 1743.619995 L 995.643005 1743.619995" opacity=".42"/><path fill="none" stroke="#FFF" stroke-linecap="round" stroke-miterlimit="10" stroke-width="4" d="M 1141.366943 1743.619995 L 1254.447998 1743.619995" opacity=".42"/><path fill="none" stroke="#FFF" stroke-linecap="round" stroke-miterlimit="10" stroke-width="4" d="M 1423.784058 1743.619995 L 1620.005981 1743.619995" opacity=".42"/><path fill="none" stroke="#FFF" stroke-linecap="round" stroke-miterlimit="10" stroke-width="4" d="M 1831.192993 1743.619995 L 1954.619995 1743.619995" opacity=".42"/><path fill="none" stroke="#FFF" stroke-linecap="round" stroke-miterlimit="10" stroke-width="4" d="M 2034.782959 1743.619995 L 2073.371094 1743.619995" opacity=".42"/><path fill="none" stroke="#FFF" stroke-linecap="round" stroke-miterlimit="10" stroke-width="4" d="M 111.059998 1743.619995 L 149.647003 1743.619995" opacity=".42"/><path fill="none" stroke="#FFF" stroke-linecap="round" stroke-miterlimit="10" stroke-width="4" d="M 237.281006 1743.619995 L 375.903992 1743.619995" opacity=".42"/><path fill="none" stroke="#FFF" stroke-linecap="round" stroke-miterlimit="10" stroke-width="4" d="M 332.203003 1781.489014 L 459.345001 1781.489014" opacity=".42"/><path fill="none" stroke="#FFF" stroke-linecap="round" stroke-miterlimit="10" stroke-width="4" d="M 717.119019 1781.489014 L 746.77301 1781.489014" opacity=".42"/><path fill="none" stroke="#FFF" stroke-linecap="round" stroke-miterlimit="10" stroke-width="4" d="M 984.731018 1781.489014 L 1068.713989 1781.489014" opacity=".42"/><path fill="none" stroke="#FFF" stroke-linecap="round" stroke-miterlimit="10" stroke-width="4" d="M 1236.651978 1781.489014 L 1272.244019 1781.489014" opacity=".42"/><path fill="none" stroke="#FFF" stroke-linecap="round" stroke-miterlimit="10" stroke-width="4" d="M 1574.359009 1781.489014 L 1715.026001 1781.489014" opacity=".42"/><path fill="none" stroke="#FFF" stroke-linecap="round" stroke-miterlimit="10" stroke-width="4" d="M 1892.875977 1781.489014 L 1927.541016 1781.489014" opacity=".42"/><path fill="none" stroke="#FFF" stroke-linecap="round" stroke-miterlimit="10" stroke-width="4" d="M 1974.186035 1584.515991 L 2107.010986 1584.515991" opacity=".42"/><path fill="none" stroke="#FFF" stroke-linecap="round" stroke-miterlimit="10" stroke-width="4" d="M 2234.491943 1584.515991 L 2262.052979 1584.515991" opacity=".42"/><path fill="none" stroke="#FFF" stroke-linecap="round" stroke-miterlimit="10" stroke-width="4" d="M 2459.850098 1584.515991 L 2528.219971 1584.515991" opacity=".42"/><path fill="none" stroke="#FFF" stroke-linecap="round" stroke-miterlimit="10" stroke-width="4" d="M 2258.379883 1648.323975 L 2344.281006 1648.323975" opacity=".42"/><path fill="none" stroke="#FFF" stroke-linecap="round" stroke-miterlimit="10" stroke-width="4" d="M 2519.184082 1648.323975 L 2554.960938 1648.323975" opacity=".42"/><path fill="none" stroke="#FFF" stroke-linecap="round" stroke-miterlimit="10" stroke-width="4" d="M 2112.321045 1648.323975 L 2148.0979 1648.323975" opacity=".42"/><path fill="none" stroke="#FFF" stroke-linecap="round" stroke-miterlimit="10" stroke-width="4" d="M 1136.447021 1703.665039 L 1222.347046 1703.665039" opacity=".42"/><path fill="none" stroke="#FFF" stroke-linecap="round" stroke-miterlimit="10" stroke-width="4" d="M 1397.250977 1703.665039 L 1433.026978 1703.665039" opacity=".42"/><path fill="none" stroke="#FFF" stroke-linecap="round" stroke-miterlimit="10" stroke-width="4" d="M 990.388 1703.665039 L 1026.16394 1703.665039" opacity=".42"/><path fill="none" stroke="#FFF" stroke-linecap="round" stroke-miterlimit="10" stroke-width="4" d="M 1736.546997 1648.323975 L 2018.109985 1648.323975" opacity=".42"/><path fill="none" stroke="#FFF" stroke-linecap="round" stroke-miterlimit="10" stroke-width="4" d="M 1551.442993 1686.192993 L 1752.176025 1686.192993" opacity=".42"/><path fill="none" stroke="#FFF" stroke-linecap="round" stroke-miterlimit="10" stroke-width="4" d="M 1812.248047 1686.192993 L 1879.103027 1686.192993" opacity=".42"/><path fill="none" stroke="#FFF" stroke-linecap="round" stroke-miterlimit="10" stroke-width="4" d="M 2404.886963 1686.192993 L 2421.167969 1686.192993" opacity=".42"/><path fill="none" stroke="#FFF" stroke-linecap="round" stroke-miterlimit="10" stroke-width="4" d="M 1975.970947 1686.192993 L 2284.447998 1686.192993" opacity=".42"/></g><g><g><path fill="#272348" d="M184.66,1397.783L184.904,1800h543.391c0.329-0.543,1.623-2.49,1.941-3.046 c18.643-32.554,12.935-78.979,42.24-102.401c12.213-9.761,28.169-13.167,43.491-16.284 c56.032-11.4,112.065-22.799,168.097-34.199c43.423-59.959,111.146-157.573,111.146-157.573l163.551-28.701l178.025-109.617 l8.503-23.083C1445.289,1325.098,604.869,1373.554,184.66,1397.783z"/></g><path fill="#080A23" d="M 754.6320190429688 1584.5159912109375 L 707.0889892578125 1800.0369873046875 L 605.6290283203125 1800.0369873046875 L 615.125 1717.7030029296875 L 479.3349914550781 1744.261962890625 L 462.2430114746094 1800.0369873046875 L 184.9040069580078 1800 L 184.9040069580078 1692.2760009765625 L 315.1579895019531 1758.199951171875 L 348.0530090332031 1662.14697265625 Z"/><path fill="#080A23" d="M1215.883,1379.362l1.445,69.055c0,0-15.383,19.371-15.156,19.31l56.589-9.931l66.577-40.994 l5.603-52.147L1215.883,1379.362z"/><path fill="#080A23" d="M 1342.6190185546875 1344.759033203125 L 1337.012939453125 1396.9620361328125 L 1323.137939453125 1411.1669921875 L 1325.3380126953125 1416.802978515625 L 1436.7860107421875 1348.1800537109375 L 1445.2889404296875 1325.0980224609375 Z"/><path fill="#080A23" d="M 1202.1719970703125 1406.7679443359375 L 1202.1719970703125 1427.876953125 L 1160.9189453125 1450.6920166015625 L 1153.9129638671875 1476.196044921875 L 1095.2099609375 1486.498046875 L 1058.56201171875 1539.029052734375 L 931.385986328125 1547.9949951171875 L 951.8359985351562 1513.6390380859375 L 996.8259887695312 1490.0240478515625 L 1008.2119750976562 1420.6810302734375 Z"/><path fill="#080A23" d="M 889.1710205078125 1601.7769775390625 L 896.5479736328125 1528.010009765625 L 799.676025390625 1545.0360107421875 L 800.426025390625 1610.6510009765625 L 727.8159790039062 1637.2750244140625 L 626.968994140625 1800.0369873046875 L 728.2949829101562 1800 L 759.280029296875 1680.0340576171875 L 984.06298828125 1644.071044921875 L 1024.0050048828125 1588.1419677734375 Z"/><linearGradient id="SVGID_4_" x1="0" x2="1445.289" y1="1550.318" y2="1550.318" gradientUnits="userSpaceOnUse"><stop offset="0" style="stop-color:#000020"/><stop offset=".467" style="stop-color:#2e315e"/><stop offset=".818" style="stop-color:#4c5086"/><stop offset="1" style="stop-color:#575c95"/></linearGradient><path fill="url(#SVGID_4_)" d="M 0 1321.8380126953125 L 942.1420288085938 1300.5989990234375 L 1024.0050048828125 1319.3929443359375 L 1347.6669921875 1307.5830078125 L 1437.345947265625 1312.3179931640625 L 1445.2889404296875 1325.0980224609375 L 1342.6190185546875 1344.759033203125 L 1330.93994140625 1364.656005859375 L 1215.883056640625 1379.362060546875 L 1202.1719970703125 1406.7679443359375 L 1008.2119750976562 1420.6810302734375 L 965.656005859375 1451.780029296875 L 821.4219970703125 1477.3809814453125 L 754.6320190429688 1584.5159912109375 L 348.0530090332031 1662.14697265625 L 315.1579895019531 1758.199951171875 L 210.36900329589844 1800.0369873046875 L 0 1800 Z"/><path fill="#080A23" d="M 897.239013671875 1521.0989990234375 L 956.9400024414062 1496.89599609375 L 965.656005859375 1451.780029296875 L 629.7559814453125 1509.0860595703125 L 789.7509765625 1498.3409423828125 L 775.3280029296875 1509.02294921875 L 799.3090209960938 1512.85205078125 L 799.676025390625 1545.0360107421875 L 896.5479736328125 1528.010009765625 Z"/><g><path fill="#080A23" d="M909.438,1401.521c-3.672-5.764-11.434-6.961-18.238-7.601c-12.158-1.143-24.315-2.287-36.473-3.43 c-12.051-1.133-27.812-6.374-26.806-18.437c0.335-4.012,2.721-7.654,2.949-11.674c0.563-9.954-11.223-15.474-20.973-17.557 c-37.231-7.955-75.747-6.491-113.789-4.988c-102.925,4.065-580.91,14.159-696.039,18.558v251.44 c74.668-5.945,303.21-30.939,371.324-45.283c6.988-1.472,498.982-113.416,525.314-133.512 C905.582,1422.264,915.436,1410.936,909.438,1401.521z"/></g><g><path fill="#080A23" d="M1071.608,1539.786l-195.309,32.564c-18.364,5.35-50.063,10.442-68.426,15.792 c-2.674,0.779-77.523,86.406-110.369,129.561c36.467-12.754,72.934-25.723,109.4-40.739c15-6,33-6,45-16c8-8,13-27,19-29 c55.6-25.947,117.211-33.009,176.875-49.023c7.839-10.13,14.665-19.114,15.553-20.392 C1063.333,1562.549,1070.877,1551.952,1071.608,1539.786z"/></g><g><path fill="#272348" d="M851.904,1660.964c-12,10-30,10-45,16c-36.467,15.016-72.934,27.985-109.4,40.739 c-2.828,3.715-5.347,7.118-7.479,10.123c50.246-19.549,102.419-34.139,155.517-43.489c7.579-1.335,15.323-2.61,22.149-6.164 c10.056-5.235,17.354-15.461,19.035-26.673c0.389-2.594,0.573-5.421,2.282-7.411c1.693-1.971,4.438-2.593,6.986-3.103 c38.62-7.737,77.24-15.474,115.86-23.212c3.7-0.741,7.504-1.524,10.651-3.606c1.786-1.182,14.489-17.288,25.275-31.227 c-59.665,16.015-121.275,23.076-176.875,49.023C864.904,1633.964,859.904,1652.964,851.904,1660.964z"/></g><g><linearGradient id="SVGID_5_" x1="749.249" x2="1012.984" y1="1562.549" y2="1562.549" gradientUnits="userSpaceOnUse"><stop offset="0" style="stop-color:#000020"/><stop offset=".467" style="stop-color:#2e315e"/><stop offset=".818" style="stop-color:#4c5086"/><stop offset="1" style="stop-color:#575c95"/></linearGradient><path fill="url(#SVGID_5_)" d="M851.761,1542.722L851.761,1542.722c-14.563,14.39-29.326,31.03-43.889,45.42 c75.946-2.866,150.93-17.431,226.566-24.859c8.016-0.787,16.238-1.548,23.493-5.045s13.452-10.401,13.675-18.452 C998.392,1535.204,924.829,1536.186,851.761,1542.722z"/></g></g><g><g><path fill="#090C2F" d="M870.695,838.144c-7.762-22.409-32.109-36.275-55.82-36.703c7.617-30.575,15.488-61.591,14.658-93.089 C824.802,528.71,685.76,475.737,597.086,462.778c-91.345-13.349-188.579,28.065-242.246,103.178 c-17.967-15.36-49.874-8.602-60.07,12.724c-53.065-15.145-113.678-0.075-153.472,38.157 c-39.795,38.232-57.279,98.193-44.271,151.822c8.99,37.063,35.873,73.16,73.61,78.678c-13.691,19.121-14.317,44.785-9.92,67.888 c4.293,22.555,13.579,45.269,31.499,59.623c17.92,14.353,45.895,17.702,63.524,2.993c48.091,46.337,133.371,45.987,181.08-0.742 c3.42,12.521,15.245,22.271,28.188,23.24c12.944,0.969,26.089-6.909,31.336-18.782c13.753,28.755,41.12,49.759,71.46,59.529 c30.34,9.77,63.376,9.034,94.466,2.006c49.588-11.209,97.477-40.761,118.849-86.89c16.492,16.079,46.248,15.465,62.063-1.281 c15.815-16.746,14.728-46.488-2.267-62.035C864.378,889.434,878.457,860.553,870.695,838.144z"/></g><g><path fill="#080A23" d="M331.252,937.154c-8.866-16.926-14.508-34.658-23.374-50.779c-20.956,18.538-51.585,28.21-77.377,11.284 c-24.18-15.314-30.628-52.391-13.702-74.959c-16.926-0.806-32.24-10.478-41.107-24.986 c-28.21-45.137-4.03-99.139,31.434-132.186c62.869-58.839,162.008-58.839,228.907-9.672 c-25.792-20.15-29.016-58.033-15.314-86.243c32.712-67.605,106.072-97.836,177.508-106.665c-0.38-0.057-0.762-0.115-1.141-0.17 c-91.345-13.349-188.579,28.065-242.246,103.178c-17.967-15.36-49.874-8.602-60.07,12.724 c-53.065-15.145-113.678-0.075-153.472,38.157c-39.795,38.232-57.279,98.193-44.271,151.822 c8.99,37.063,35.873,73.16,73.609,78.678c-13.691,19.121-14.317,44.785-9.92,67.888c4.293,22.555,13.579,45.27,31.499,59.623 c17.92,14.353,45.895,17.702,63.524,2.993c38.397,36.997,100.502,44.229,148.262,21.856c-8.429-2.273-16.662-5.438-24.39-10.958 C359.462,974.231,342.536,958.11,331.252,937.154z"/></g><g><path fill="#333A61" d="M870.695,838.144c-7.762-22.409-32.109-36.275-55.82-36.703c7.617-30.575,15.488-61.591,14.658-93.089 c-2.102-79.802-30.709-134.605-69.63-172.01c16.747,22.804,27.874,49.461,34,79.215c13.702,66.093,18.538,139.44-30.628,189.412 c30.628,10.478,69.317,12.09,85.437,44.331c8.866,18.538-8.866,31.435-20.956,42.719c20.15,14.508,20.15,42.719,12.09,63.675 c-0.487,1.182-0.993,2.371-1.519,3.559c1.729-1.298,3.356-2.741,4.857-4.33c15.815-16.746,14.728-46.488-2.267-62.035 C864.378,889.434,878.457,860.553,870.695,838.144z"/></g><g><path fill="#090C2F" d="M807.477,1033.188c-6.692-5.473-15.776-7.119-24.419-6.984c-3.37,0.053-7.192,0.182-9.565-2.212 c-2.495-2.517-2.17-6.554-2.319-10.095c-0.898-21.359-23.653-34.542-44.218-40.383c-25.834-7.338-53.069-9.711-79.783-6.955 c-1.837-21.775-14.475-42.373-33.054-53.877c-18.579-11.503-42.652-13.633-62.962-5.571l-62.053-14.735 c-44.527,9.935-86.912,29.364-123.503,56.614c-12.198,9.084-24.804,21.214-24.368,36.418 c0.414,14.472,13.281,26.162,27.225,30.059c13.943,3.897,28.773,1.75,43.086-0.424c9.076,22.022,27.787,39.869,50.213,47.897 c22.425,8.027,48.212,6.108,69.202-5.152c3.634-1.95,7.397-4.233,11.518-4.052c4.649,0.204,8.497,3.469,12.226,6.252 c24.943,18.617,58.24,20.653,89.364,20.455c48.797-0.31,97.569-4.345,145.753-12.056c9.102-1.457,19.424-3.901,23.739-12.047 C817.604,1048.702,814.168,1038.661,807.477,1033.188z"/></g><g><path fill="#080A23" d="M666.552,1046.772c-24.18,10.478-50.779,6.448-74.959-4.03c-20.956-9.672-34.658-31.434-33.852-55.615 c-36.271,20.15-80.601,29.822-118.484,8.06c-19.344-11.284-32.24-32.241-33.046-54.003c-0.326-5.21-1.045-11.341-1.097-17.383 c-13.753,7.434-26.973,15.853-39.512,25.191c-12.198,9.084-24.804,21.214-24.368,36.418 c0.414,14.472,13.281,26.162,27.225,30.059c13.943,3.897,28.773,1.75,43.086-0.424c9.076,22.022,27.787,39.869,50.213,47.897 c22.425,8.027,48.212,6.108,69.202-5.152c3.634-1.95,7.397-4.233,11.518-4.052c4.649,0.204,8.497,3.469,12.226,6.252 c24.943,18.617,58.24,20.653,89.364,20.455c20.453-0.13,40.901-0.923,61.304-2.359 C689.877,1071.466,676.216,1061.268,666.552,1046.772z"/></g><g><path fill="#333A61" d="M807.477,1033.188c-6.692-5.473-15.776-7.119-24.419-6.984c-3.37,0.053-7.192,0.182-9.565-2.212 c-2.495-2.517-2.17-6.554-2.319-10.095c-0.898-21.359-23.653-34.542-44.218-40.383c-25.834-7.338-53.069-9.711-79.783-6.955 c-1.837-21.775-14.475-42.373-33.054-53.877c-1.518-0.94-3.076-1.811-4.663-2.625c20.267,13.747,30.704,41.775,31.304,65.784 c33.852-3.224,70.123-4.03,101.557,15.314c13.702,9.672,11.284,28.21,17.732,39.494c3.224,6.448,17.732,4.836,27.404,10.478 c8.866,4.836,8.06,17.732,3.224,25.792c-0.281,0.498-0.573,0.984-0.867,1.468c0.003,0,0.006-0.001,0.009-0.001 c9.102-1.457,19.424-3.901,23.739-12.047C817.604,1048.702,814.168,1038.661,807.477,1033.188z"/></g><g><path fill="#080A23" d="M465.914,865.602c-16.524-11.096-40.432-11.61-55.6,1.276c0.435-27.542-15.018-54.777-38.883-68.53 c-23.866-13.753-55.178-13.468-78.789,0.718l5.416-2.027c26.04-3.186,53.334,6.25,71.846,24.838 c18.512,18.588,27.837,45.92,24.545,71.947c17.041-9.226,36.697-14.918,55.843-11.933c19.147,2.985,37.399,15.945,42.973,34.504 C491.783,896.545,482.437,876.697,465.914,865.602z"/></g><g><path fill="#080A23" d="M537.014,1261.83c-34.039-46.484-73.262-89.099-105.579-136.796 c-5.644-8.33-11.144-16.962-13.943-26.626c-2.768-9.555-2.767-19.662-2.745-29.609c0.096-42.353,0.192-84.706,0.288-127.059 l-16.873,12.158c-6.568,59.468-13.136,118.936-19.704,178.404c-0.697,6.315-1.38,12.827,0.402,18.926 c1.91,6.541,6.45,11.93,10.78,17.192c64.039,77.837,106.215,173.471,120.507,273.248c33.853-3.243,67.219-11.531,98.654-24.505 C600.397,1360.164,571.053,1308.315,537.014,1261.83z"/></g><g><path fill="#333A61" d="M537.014,1261.83c-34.039-46.484-73.262-89.099-105.579-136.796 c-5.644-8.33-11.144-16.962-13.943-26.626c-2.768-9.555-2.767-19.662-2.745-29.609c0.041-18.106,0.069-30.496,0.11-48.602 c0,0-5.398-5.983-7.84-6.471c0,11.284,0,21.762-0.806,33.046c-2.418,24.18-4.836,49.167,7.254,70.929 c23.374,44.331,59.645,74.153,89.467,115.26c16.926,23.374,33.852,42.719,49.167,67.705 c24.363,38.206,34.651,80.215,39.228,123.154c5.883-2.061,11.711-4.278,17.473-6.656 C600.397,1360.164,571.053,1308.315,537.014,1261.83z"/></g><g><path fill="#080A23" d="M564.862,1062.693c-1.349,20.136-11.72,63.955-13.377,65.473c-1.796,1.646-138.821-5.355-138.821-5.355 s18.632,39.644,18.581,46.528c43.384-7.117,87.347-10.695,131.311-10.687c5.135-36.165,10.27-72.331,15.405-108.496 L564.862,1062.693z"/></g><g><path fill="#333A61" d="M566.607,1106.416c-1.612,16.12-6.448,31.434-9.672,46.749c-23.471,0.602-46.043,4.35-68.723,8.894 c24.712-2.272,49.528-3.412,74.345-3.408c2.495-17.574,5.069-36.024,7.565-53.598 C569.042,1105.48,568.427,1105.896,566.607,1106.416z"/></g><g><path fill="#333A61" d="M572.817,1071.359c-1.266,7.992-2.432,16.138-3.792,25.385c0,0.409,0.918,0.852,2.259,0.443 c1.199-8.444,2.435-17.148,3.667-25.828H572.817z"/></g><g><g><path fill="#080A23" d="M614.187,1074.439c-1.592,5.042-3.185,10.085-4.777,15.127c-0.164,0.519-0.347,1.068-0.766,1.416 c-0.393,0.327-0.925,0.419-1.43,0.499c-13.725,2.18-27.45,4.359-41.175,6.539c-0.005,2.625-0.009,5.251-0.014,7.876 c14.886-2.384,29.65-5.537,44.211-9.443c0.838-0.225,1.714-0.474,2.336-1.079c0.825-0.804,1.012-2.04,1.156-3.182 c0.753-6.002,1.505-12.004,2.258-18.005L614.187,1074.439z"/></g></g><g><path fill="#333A61" d="M614.552,1079.585c-1.154,6.45-2.866,14.266-2.866,14.266s-28.479,7.071-42.661,11.545 c13.869-2.32,27.628-5.299,41.21-8.943c0.838-0.225,1.714-0.474,2.336-1.079c0.825-0.804,1.012-2.04,1.156-3.182 c0.527-4.202,1.054-8.404,1.581-12.606H614.552z"/></g><g><path fill="#080A23" d="M280.099,1042.094c-2.024-21.98-4.049-43.96-6.073-65.94l-5.13-9.525 c-1.388,25.785-2.776,51.57-4.164,77.354c-0.157,2.912-0.266,6.025,1.242,8.52c1.71,2.828,5.05,4.148,8.158,5.271 c37.999,13.738,76.475,26.158,115.335,37.23c4.091-9.512,6.75-19.639,7.859-29.935 C358.409,1056.63,319.322,1048.97,280.099,1042.094z"/></g><g><path fill="#333A61" d="M276.443,1043.548c35.465,12.09,72.541,14.508,108.811,23.374c0-1.529,0-2.996,0-4.438 c-34.927-7.423-69.985-14.224-105.156-20.39c-1.57-17.049-3.14-34.099-4.711-51.148c-0.611-0.357-1.301-0.594-2.169-0.594 C274.025,1008.083,275.637,1025.815,276.443,1043.548z"/></g></g><g><g><g><path fill="#090C2F" d="M809.782,1198.839c-13.768,15.267-25.505,36.854-28.011,66.922c0,0,16.704-0.877,34.974-12.657 c20.87-21.963,36.342-48.985,38.155-79.804C838.065,1179.192,823.2,1187.714,809.782,1198.839z"/><path fill="#333A61" d="M862.25,1165.265c0,0-29.148,7.715-52.468,33.575c13.418-11.126,28.283-19.647,45.118-25.539 c-1.813,30.819-17.285,57.841-38.155,79.804C836.33,1240.476,857.713,1215.318,862.25,1165.265z"/></g><g><path fill="#090C2F" d="M855.983,1287.019c-26.338-5.853-51.795,3.233-74.002,16.965c-2.549,2.411-5.058,5.063-7.503,8.004 c0,0,10.074,6.289,25.496,6.872c14.042,0.531,32.519-3.676,51.867-21.664C853.156,1292.989,857.012,1288.048,855.983,1287.019z"/><path fill="#333A61" d="M862.193,1286.286c0,0-20.095-7.375-44.185-1.824c-11.682,2.692-24.302,8.433-36.027,19.522 c22.207-13.732,47.664-22.818,74.002-16.965c1.029,1.029-2.827,5.97-4.143,10.177 C855.271,1294.007,858.728,1290.392,862.193,1286.286z"/></g><g><path fill="#090C2F" d="M746.727,1268.477c2.077,10.39,7.392,21.885,19.054,32.171c0,0,4.777-7.177,5.526-18.356 c-2.661-15.386-9.074-30.098-21.26-40.329C747.305,1250.737,746.255,1259.505,746.727,1268.477z"/><path fill="#333A61" d="M748.986,1236.452c0,0-5.777,14.426-2.259,32.025c-0.472-8.971,0.577-17.74,3.32-26.514 c12.186,10.231,18.599,24.943,21.26,40.329C772.111,1270.309,768.287,1253.727,748.986,1236.452z"/></g><g><g><path fill="#080A23" d="M859.04,1166.532c-47.493,45.644-85.437,102.735-106.853,165.167 c-5.939,17.313-10.487,35.077-13.405,53.149c-0.33,2.046,2.8,2.926,3.133,0.864c10.451-64.731,41.552-125.643,82.4-176.442 c11.465-14.258,23.832-27.764,37.023-40.441C862.848,1167.378,860.548,1165.082,859.04,1166.532L859.04,1166.532z"/></g></g><g><g><path fill="#080A23" d="M859.86,1285.68c-21.047,2.461-41.166,8.945-61.068,15.975c-16.862,5.956-34.602,12.293-45.033,27.781 c-1.171,1.739,1.642,3.367,2.805,1.64c10.609-15.752,29.594-21.574,46.635-27.534c18.447-6.451,37.18-12.335,56.661-14.613 C861.912,1288.689,861.937,1285.437,859.86,1285.68L859.86,1285.68z"/></g></g></g><g><g><path fill="#090C2F" d="M820.798,1330.835c-10.053,1.122-21.423,5.233-32.165,15.481c0,0,6.434,5.133,17.005,6.764 c14.854-1.267,29.373-6.159,40.106-16.909C837.624,1332.841,829.37,1331.123,820.798,1330.835z"/><path fill="#333A61" d="M851.073,1335.614c0,0-13.247-6.68-30.275-4.779c8.572,0.288,16.826,2.006,24.946,5.336 c-10.733,10.75-25.252,15.642-40.106,16.909C816.97,1354.829,833.056,1352.554,851.073,1335.614z"/></g><g><path fill="#090C2F" d="M809.002,1378.377c-7.782-10.756-20.118-15.726-32.776-17.925c-1.725,0.055-3.515,0.212-5.376,0.495 c0,0,1.654,5.604,7.139,10.856c4.994,4.782,13.169,9.268,26.164,8.967C806.012,1379.651,809.045,1379.092,809.002,1378.377z"/><path fill="#333A61" d="M811.527,1380.135c0,0-4.987-9.277-15.666-15.102c-5.179-2.825-11.698-4.833-19.635-4.582 c12.658,2.199,24.994,7.169,32.776,17.925c0.043,0.715-2.99,1.274-4.848,2.393 C806.458,1380.716,808.911,1380.515,811.527,1380.135z"/></g><g><path fill="#090C2F" d="M774.848,1335.87c-2.629,4.502-4.427,10.469-3.494,18.063c0,0,4.102-1.081,8.029-4.951 c4.046-6.532,6.49-14.041,5.347-21.786C780.854,1329.53,777.604,1332.414,774.848,1335.87z"/><path fill="#333A61" d="M786.139,1324.822c0,0-6.838,3.422-11.291,11.049c2.756-3.456,6.006-6.34,9.881-8.674 c1.143,7.745-1.301,15.254-5.347,21.786C783.592,1344.835,787.6,1337.483,786.139,1324.822z"/></g><g><g><path fill="#080A23" d="M849.525,1335.031c-41.214,1.723-83.455,14.958-115.738,41.178c-0.799,0.649,0.338,1.774,1.13,1.13 c31.932-25.935,73.853-39.006,114.607-40.71C850.55,1336.587,850.556,1334.988,849.525,1335.031L849.525,1335.031z"/></g></g><g><g><path fill="#080A23" d="M810.739,1379.058c-8.226-5.672-17.278-9.757-26.494-13.531c-8.601-3.522-17.281-7.107-26.683-4.936 c-1.002,0.231-0.578,1.773,0.425,1.542c9.672-2.234,18.749,1.993,27.495,5.62c8.528,3.536,16.83,7.433,24.449,12.687 C810.781,1381.024,811.582,1379.639,810.739,1379.058L810.739,1379.058z"/></g></g></g><g><g><path fill="#090C2F" d="M709.408,1266.873c-0.592,10.098,1.54,21.999,9.827,34.318c0,0,6.146-5.475,9.539-15.619 c1.26-14.854-1.11-29.991-9.894-42.385C714.227,1250.627,711.139,1258.472,709.408,1266.873z"/><path fill="#333A61" d="M719.231,1237.839c0,0-8.821,11.929-9.823,29.033c1.731-8.4,4.819-16.245,9.472-23.687 c8.783,12.394,11.153,27.531,9.894,42.385C732.411,1274.697,732.885,1258.458,719.231,1237.839z"/></g><g><path fill="#090C2F" d="M754.275,1286.527c-11.915,5.854-18.898,17.174-23.203,29.278c-0.237,1.71-0.385,3.5-0.42,5.382 c0,0,5.803-0.683,11.905-5.203c5.556-4.115,11.358-11.415,13.256-24.274C755.026,1289.69,754.987,1286.606,754.275,1286.527z"/><path fill="#333A61" d="M756.435,1284.335c0,0-9.986,3.349-17.531,12.89c-3.659,4.627-6.739,10.714-7.832,18.58 c4.305-12.104,11.287-23.425,23.203-29.278c0.712,0.079,0.751,3.163,1.539,5.183 C756.151,1289.43,756.367,1286.979,756.435,1284.335z"/></g><g><path fill="#090C2F" d="M706.611,1313.012c3.994,3.351,9.571,6.131,17.214,6.495c0,0-0.373-4.226-3.524-8.75 c-5.755-5.091-12.743-8.768-20.57-8.949C701.376,1306.022,703.67,1309.712,706.611,1313.012z"/><path fill="#333A61" d="M697.628,1300.018c0,0,2.219,7.318,8.983,12.994c-2.941-3.3-5.235-6.991-6.88-11.204 c7.827,0.181,14.815,3.858,20.57,8.949C716.924,1305.908,710.355,1300.716,697.628,1300.018z"/></g><g><g><path fill="#080A23" d="M718.383,1239.401c-5.247,40.819,0.673,84.669,21.016,120.836c0.504,0.897,1.886,0.092,1.38-0.807 c-20.216-35.941-26.012-79.473-20.798-120.029C720.113,1238.384,718.513,1238.393,718.383,1239.401L718.383,1239.401z"/></g></g><g><g><path fill="#080A23" d="M755.287,1284.879c-6.979,7.149-12.547,15.368-17.825,23.815c-4.912,7.863-9.96,15.826-9.408,25.45 c0.059,1.023,1.658,1.03,1.599,0c-0.569-9.93,5.082-18.133,10.145-26.166c4.919-7.806,10.156-15.347,16.62-21.969 C757.137,1285.273,756.007,1284.141,755.287,1284.879L755.287,1284.879z"/></g></g></g></g><g><g><g><path fill="#090C2F" d="M424.733,1272.469c18.083,9.779,36.368,26.193,48.791,53.689c0,0-16.035,4.764-37.193-0.223 c-27.016-13.712-50.639-33.999-62.661-62.434C391.506,1263.42,408.365,1266.475,424.733,1272.469z"/><path fill="#333A61" d="M364.055,1258.388c0,0,30.049-2.484,60.678,14.081c-16.368-5.994-33.228-9.049-51.063-8.968 c12.022,28.435,35.645,48.722,62.661,62.434C413.65,1320.589,385.08,1304.038,364.055,1258.388z"/></g><g><path fill="#090C2F" d="M410.705,1371.026c22.861-14.329,49.891-14.287,75.413-8.778c3.209,1.419,6.461,3.079,9.749,5.032 c0,0-7.388,9.297-21.726,15.008c-13.055,5.2-31.874,7.418-56.127-3.058C415.367,1375.705,410.08,1372.34,410.705,1371.026z"/><path fill="#333A61" d="M404.608,1372.413c0,0,16.468-13.675,41.027-16.506c11.91-1.373,25.723-0.186,40.483,6.34 c-25.522-5.509-52.552-5.551-75.413,8.778c-0.625,1.314,4.662,4.68,7.309,8.204 C413.715,1377.372,409.247,1375.123,404.608,1372.413z"/></g><g><path fill="#090C2F" d="M507.457,1316.99c1.52,10.486,0.358,23.097-7.19,36.693c0,0-6.903-5.165-11.35-15.448 c-2.642-15.39-1.521-31.399,6.538-45.119C500.976,1300.466,504.899,1308.378,507.457,1316.99z"/><path fill="#333A61" d="M494.611,1287.567c0,0,10.272,11.661,12.846,29.422c-2.557-8.612-6.481-16.524-12.002-23.874 c-8.059,13.719-9.18,29.729-6.538,45.119C484.149,1327.211,482.203,1310.305,494.611,1287.567z"/></g><g><g><path fill="#080A23" d="M365.986,1261.378c59.616,26.928,114.081,67.672,154.899,118.964 c11.344,14.256,21.514,29.423,30.27,45.402c1.005,1.834,3.812,0.197,2.805-1.64 c-31.482-57.458-81.038-104.432-136.334-138.835c-16.059-9.992-32.763-18.911-49.999-26.696 C365.735,1257.719,364.081,1260.518,365.986,1261.378L365.986,1261.378z"/></g></g><g><g><path fill="#080A23" d="M407.579,1374.159c19.071-4.358,38.592-5.124,58.086-5.222c18.333-0.092,38.2-0.935,53.698,10.495 c1.684,1.242,3.306-1.576,1.64-2.806c-15.43-11.38-35.101-11.006-53.404-10.947c-20.424,0.066-40.899,0.78-60.883,5.346 C404.678,1371.491,405.54,1374.625,407.579,1374.159L407.579,1374.159z"/></g></g></g><g><g><path fill="#090C2F" d="M458.525,1400.54c9.849-2.307,21.939-2.238,35.492,3.824c0,0-4.345,6.99-13.761,12.065 c-14.421,3.777-29.741,4.026-43.452-2.513C443.341,1408.062,450.544,1403.68,458.525,1400.54z"/><path fill="#333A61" d="M431.595,1415.176c0,0,10.248-10.728,26.93-14.635c-7.981,3.14-15.184,7.522-21.722,13.377 c13.711,6.539,29.031,6.29,43.452,2.513C470.162,1421.87,454.242,1425.109,431.595,1415.176z"/></g><g><path fill="#090C2F" d="M485.551,1441.394c3.734-12.74,13.695-21.552,24.887-27.86c1.644-0.526,3.383-0.977,5.232-1.332 c0,0,0.317,5.835-3.094,12.619c-3.106,6.177-9.308,13.14-21.655,17.205C488.795,1441.594,485.75,1442.082,485.551,1441.394z"/><path fill="#333A61" d="M483.76,1443.896c0,0,1.595-10.411,9.708-19.474c3.935-4.395,9.406-8.469,16.97-10.889 c-11.192,6.308-21.154,15.12-24.887,27.86c0.199,0.688,3.244,0.2,5.37,0.632 C488.731,1442.746,486.352,1443.378,483.76,1443.896z"/></g><g><path fill="#090C2F" d="M503.51,1389.908c3.984,3.363,7.675,8.384,9.338,15.852c0,0-4.227,0.354-9.223-1.978 c-5.998-4.801-10.815-11.059-12.329-18.74C495.729,1385.943,499.757,1387.574,503.51,1389.908z"/><path fill="#333A61" d="M489.173,1383.275c0,0,7.589,0.937,14.337,6.633c-3.754-2.334-7.782-3.965-12.214-4.867 c1.515,7.681,6.331,13.939,12.329,18.74C498.271,1401.282,492.033,1395.696,489.173,1383.275z"/></g><g><g><path fill="#080A23" d="M433.338,1415.632c39.079-12.058,82.94-13.738,121.809,0.041c0.972,0.344,1.39-1.2,0.425-1.542 c-39.12-13.867-83.327-12.177-122.659-0.041C431.933,1414.393,432.351,1415.937,433.338,1415.632L433.338,1415.632z"/></g></g><g><g><path fill="#080A23" d="M485.443,1443.536c5.243-7.253,11.543-13.517,18.154-19.513c7.15-6.485,14.471-13.852,24.532-15.007 c1.01-0.116,1.022-1.716,0-1.599c-9.353,1.073-16.212,7.03-22.987,13.074c-7.658,6.831-15.049,13.895-21.079,22.238 C483.459,1443.564,484.845,1444.363,485.443,1443.536L485.443,1443.536z"/></g></g></g><g><g><path fill="#090C2F" d="M542.087,1302.989c3.937,9.318,5.91,21.246,2.224,35.628c0,0-7.624-3.103-14.216-11.526 c-6.158-13.576-8.991-28.634-4.861-43.252C532.109,1289.293,537.645,1295.652,542.087,1302.989z"/><path fill="#333A61" d="M523.114,1278.917c0,0,12.305,8.289,18.973,24.072c-4.442-7.337-9.978-13.696-16.853-19.151 c-4.129,14.619-1.297,29.676,4.861,43.252C523.029,1318.061,517.148,1302.916,523.114,1278.917z"/></g><g><path fill="#090C2F" d="M506.384,1336.526c13.187,1.528,23.555,9.859,31.663,19.825c0.796,1.532,1.534,3.17,2.197,4.931 c0,0-5.697,1.298-12.96-0.919c-6.613-2.019-14.523-6.955-20.615-18.439C506.735,1339.757,505.74,1336.838,506.384,1336.526z"/><path fill="#333A61" d="M503.616,1335.183c0,0,10.531-0.186,20.834,6.281c4.996,3.136,9.936,7.841,13.598,14.887 c-8.107-9.966-18.475-18.297-31.663-19.825c-0.645,0.312,0.351,3.231,0.284,5.399 C505.588,1339.889,504.564,1337.651,503.616,1335.183z"/></g><g><path fill="#090C2F" d="M560.163,1345.533c-2.642,4.495-6.967,8.98-14.048,11.881c0,0-1.062-4.107,0.393-9.424 c3.719-6.723,9.074-12.527,16.389-15.317C562.757,1337.193,561.83,1341.439,560.163,1345.533z"/><path fill="#333A61" d="M564.28,1330.282c0,0,0.358,7.638-4.117,15.251c1.667-4.094,2.594-8.339,2.734-12.86 c-7.315,2.79-12.67,8.594-16.389,15.317C548.068,1342.289,552.521,1335.198,564.28,1330.282z"/></g><g><g><path fill="#080A23" d="M522.993,1280.776c18.44,36.39,27.524,79.329,20.521,119.869c-0.174,1.006,1.366,1.438,1.542,0.425 c7.081-40.991-2.033-84.3-20.682-121.101C523.908,1279.051,522.528,1279.859,522.993,1280.776L522.993,1280.776z"/></g></g><g><g><path fill="#080A23" d="M504.132,1336.723c8.581,4.211,16.251,9.775,23.73,15.682c7.202,5.689,15.002,11.459,17.643,20.697 c0.282,0.987,1.825,0.568,1.542-0.425c-2.558-8.951-9.628-14.692-16.647-20.284c-8.021-6.391-16.22-12.516-25.46-17.05 C504.019,1334.891,503.208,1336.269,504.132,1336.723L504.132,1336.723z"/></g></g></g></g><g><g><path fill="#090C2F" d="M727.647,1415.545c-20.578,7.581-46.571,3.249-57.401-17.329 c-16.245,18.411-42.238,25.993-63.899,14.079c-9.181-4.943-13.754-14.032-15.527-24.261 c-5.247,13.842-4.921,29.858,1.531,43.224l0.443-2.585c3.752,8.439,12.142,14.158,21.049,16.6c8.907,2.442,18.344,2,27.516,0.92 c14.25-1.678,30.118-6.156,36.712-18.899c15.242,10.389,35.83,8.328,53.279,2.346c8.477-2.906,16.949-6.831,22.82-13.6 c5.715-6.589,8.367-16.421,4.701-24.275C750.304,1401.62,740.244,1410.358,727.647,1415.545z"/></g><g><path fill="#090C2F" d="M728.73,1388.469c6.498-16.246,6.498-42.239-16.245-44.405c-23.827-2.166-45.488,11.913-55.235,32.491 c-8.38-10.056-20.007-16.848-32.864-18.915c-10.124,1.997-19.187,8.256-25.633,16.351c-3.371,4.234-6.019,8.995-7.932,14.043 c1.773,10.229,6.346,19.318,15.527,24.261c21.661,11.913,47.654,4.332,63.899-14.079c10.83,20.578,36.823,24.91,57.401,17.329 c11.097-4.569,20.224-11.896,28.098-20.313C751.683,1385.279,738.157,1385.64,728.73,1388.469z"/></g><g><path fill="#333A61" d="M758.575,1391.116c-4.127-7.954-16.153-11.308-22.6-5.084c10.905-12.966,4.709-34.849-9.735-43.704 c-14.443-8.855-33.631-6.55-48.46,1.643c-9.783,5.405-18.49,13.54-22.362,24.025c-6.838-8.497-18.602-12.262-29.388-10.65 c-0.552,0.083-1.099,0.186-1.645,0.294c12.857,2.067,24.484,8.859,32.864,18.915c9.747-20.578,31.408-34.657,55.235-32.491 c22.744,2.166,22.744,28.159,16.245,44.405c9.427-2.828,22.953-3.19,27.015,6.762c1.064-1.138,2.107-2.294,3.127-3.467 C758.771,1391.548,758.685,1391.329,758.575,1391.116z"/></g></g><g><path fill="#575C95" d="M 2335.035888671875 1039.133056640625 L 2376.7490234375 1119.926025390625 L 2525.2451171875 1183.7110595703125 L 2525.2451171875 1260.251953125 L 2350.052001953125 1400.5780029296875 L 2310.009033203125 1387.821044921875 L 2123.508056640625 1800.0369873046875 L 2850 1800.0369873046875 L 2850 964.718017578125 L 2203.22509765625 964.718017578125 L 2218.240966796875 1011.4929809570312 Z"/><path fill="#322D5C" d="M 2335.035888671875 1039.133056640625 L 2376.7490234375 1119.926025390625 L 2525.2451171875 1183.7110595703125 L 2525.2451171875 1260.251953125 L 2350.052001953125 1400.5780029296875 L 2310.009033203125 1387.821044921875 L 2123.508056640625 1800.0369873046875 L 2850 1800.0369873046875 L 2850 1153.8179931640625 L 2756.159912109375 1147.302978515625 L 2704.09912109375 1083.3740234375 L 2520.375 1073.1519775390625 L 2501.955078125 1048.490966796875 L 2396.4150390625 1048.490966796875 L 2388.344970703125 1024.85498046875 L 2441.672119140625 1004.1729736328125 L 2211.216064453125 989.6099853515625 L 2218.240966796875 1011.4929809570312 Z"/><path fill="#3B3D69" d="M 2704.09912109375 1083.3740234375 L 2722.1708984375 1264.6209716796875 L 2764.60888671875 1285.6319580078125 L 2756.159912109375 1147.302978515625 Z"/><path fill="#272348" d="M 2850 1800.0369873046875 L 2850 1453.81494140625 L 2764.60888671875 1285.6319580078125 L 2722.1708984375 1264.6209716796875 L 2717.666015625 1219.43896484375 L 2509.97998046875 1144.010986328125 L 2499.946044921875 1103.60595703125 L 2400.006103515625 1080.5909423828125 L 2376.7490234375 1119.926025390625 L 2525.2451171875 1183.7110595703125 L 2525.2451171875 1260.251953125 L 2350.052001953125 1400.5780029296875 L 2310.009033203125 1387.821044921875 L 2123.508056640625 1800.0369873046875 Z"/><path fill="#242042" d="M 2382.52392578125 1594.998046875 L 2347.291015625 1800.0369873046875 L 2850 1800.0369873046875 L 2850 1464.81201171875 L 2525.2451171875 1260.251953125 L 2610.501953125 1327.802978515625 L 2529.7939453125 1542.9940185546875 Z"/><path fill="#3B3D69" d="M 2388.344970703125 1024.85498046875 L 2400.006103515625 1080.5909423828125 L 2396.4150390625 1048.490966796875 Z"/><path fill="#3B3D69" d="M 2501.955078125 1048.490966796875 L 2499.946044921875 1103.60595703125 L 2509.97998046875 1144.010986328125 L 2520.375 1073.1519775390625 Z"/><g><path fill="#3B3D69" d="M 2850 1469.9820556640625 L 2850 1384.48095703125 L 2474.97509765625 1375.1409912109375 L 2474.97509765625 1419.657958984375 L 2573.7041015625 1442.6219482421875 L 2560.033935546875 1469.9820556640625 Z"/><path fill="#322D5C" d="M 2474.97509765625 1419.657958984375 L 2510.159912109375 1503.7110595703125 L 2549.52490234375 1514.156005859375 L 2558.541015625 1562.199951171875 L 2625.75 1652.02197265625 L 2679.02587890625 1574.7330322265625 L 2695.218017578125 1469.9820556640625 L 2560.033935546875 1469.9820556640625 L 2573.7041015625 1442.6219482421875 Z"/><path fill="#2E2954" d="M 2850 1469.9820556640625 L 2654.94189453125 1469.9820556640625 L 2633.3330078125 1577.6219482421875 L 2572.236083984375 1580.5030517578125 L 2625.75 1652.02197265625 L 2809.15087890625 1574.7330322265625 L 2850 1487.509033203125 Z"/><path fill="#2E2954" d="M 2560.033935546875 1469.9820556640625 L 2572.236083984375 1580.5030517578125 L 2558.541015625 1562.199951171875 L 2549.52490234375 1514.156005859375 L 2510.159912109375 1503.7110595703125 L 2474.97509765625 1419.657958984375 L 2573.7041015625 1442.6219482421875 Z"/></g><path fill="#242042" d="M 2572.236083984375 1580.5030517578125 L 2625.75 1652.02197265625 L 2633.3330078125 1577.623046875 Z"/><path fill="#272348" d="M 2739.625 1800.0369873046875 L 2850 1800.0369873046875 L 2850 1487.509033203125 L 2809.15087890625 1574.7330322265625 L 2625.75 1652.02197265625 L 2657.555908203125 1735.6800537109375 Z"/></g></g></switch></svg>