<?xml version="1.0" encoding="utf-8"?>
<svg id="master-artboard" viewBox="0 0 335.99 235.19" xmlns="http://www.w3.org/2000/svg" width="335.989990234375px" height="235.19000244140625px" xmlns:xlink="http://www.w3.org/1999/xlink"><defs><linearGradient id="Névtelen_színátmenet_163" x1="167.99" y1="-2.25" x2="167.99" y2="222.76" gradientUnits="userSpaceOnUse"><stop offset="0.01" stop-color="#f8d6d8"/><stop offset="0.16" stop-color="#f6d1d2"/><stop offset="0.35" stop-color="#f0c2c3"/><stop offset="0.42" stop-color="#edbbbb"/><stop offset="0.56" stop-color="#efc3c3"/><stop offset="0.78" stop-color="#f6d7d9"/><stop offset="1" stop-color="#fef2f6"/></linearGradient><linearGradient id="linear-gradient" x1="168.04" y1="181.99" x2="168.04" y2="249.33" gradientUnits="userSpaceOnUse"><stop offset="0" stop-color="#973860"/><stop offset="0.29" stop-color="#80335f"/><stop offset="0.91" stop-color="#44275c"/><stop offset="1" stop-color="#3a255c"/></linearGradient><radialGradient id="radial-gradient" cx="164.59" cy="234.57" fy="219.520491561954" r="67.71" gradientTransform="matrix(1, 0, 0, 0.29, -0.46, 121.85)" gradientUnits="userSpaceOnUse"><stop offset="0.35" stop-color="#fff" stop-opacity="0.8"/><stop offset="0.95" stop-color="#fff" stop-opacity="0"/></radialGradient><radialGradient id="Névtelen_színátmenet_26" cx="226.75" cy="-62.17" r="20.87" gradientTransform="matrix(-1, 0.06, -0.06, -1.01, 329.39, 47.2)" gradientUnits="userSpaceOnUse"><stop offset="0.74" stop-color="#fff" stop-opacity="0.8"/><stop offset="0.95" stop-color="#fff" stop-opacity="0"/></radialGradient><radialGradient id="Névtelen_színátmenet_26-2" cx="116.05" cy="-58.22" r="32.84" xlink:href="#Névtelen_színátmenet_26"/><radialGradient id="Névtelen_színátmenet_31" cx="65.29" cy="-25.33" r="27.66" gradientTransform="matrix(-1, 0.06, -0.06, -1.01, 329.39, 47.2)" gradientUnits="userSpaceOnUse"><stop offset="0.85" stop-color="#fff" stop-opacity="0.6"/><stop offset="0.95" stop-color="#fff" stop-opacity="0"/></radialGradient><radialGradient id="Névtelen_színátmenet_26-3" cx="98.22" cy="-78.68" r="14.9" xlink:href="#Névtelen_színátmenet_26"/><radialGradient id="Névtelen_színátmenet_31-2" cx="34.48" cy="-104.27" r="20.87" xlink:href="#Névtelen_színátmenet_31"/><radialGradient id="Névtelen_színátmenet_26-4" cx="234.84" cy="-1.69" r="28.38" xlink:href="#Névtelen_színátmenet_26"/><radialGradient id="Névtelen_színátmenet_26-5" cx="132.58" cy="23" r="20.87" xlink:href="#Névtelen_színátmenet_26"/><radialGradient id="Névtelen_színátmenet_26-6" cx="114.27" cy="-105.7" r="20.87" xlink:href="#Névtelen_színátmenet_26"/><radialGradient id="Névtelen_színátmenet_26-7" cx="72.27" cy="-134.08" r="29.48" xlink:href="#Névtelen_színátmenet_26"/><radialGradient id="Névtelen_színátmenet_26-8" cx="50.17" cy="5.27" r="20.87" xlink:href="#Névtelen_színátmenet_26"/><radialGradient id="Névtelen_színátmenet_26-9" cx="140.51" cy="-101.03" r="20.87" xlink:href="#Névtelen_színátmenet_26"/><radialGradient id="Névtelen_színátmenet_26-10" cx="257.99" cy="-86.64" r="20.87" xlink:href="#Névtelen_színátmenet_26"/><radialGradient id="Névtelen_színátmenet_31-3" cx="286.79" cy="-119.77" r="27.02" xlink:href="#Névtelen_színátmenet_31"/><radialGradient id="Névtelen_színátmenet_26-11" cx="274.44" cy="-47.55" r="29.02" xlink:href="#Névtelen_színátmenet_26"/><radialGradient id="Névtelen_színátmenet_26-12" cx="279.88" cy="26" r="20.87" xlink:href="#Névtelen_színátmenet_26"/><radialGradient id="Névtelen_színátmenet_26-13" cx="31.62" cy="-31.82" r="20.87" xlink:href="#Névtelen_színátmenet_26"/><linearGradient id="Névtelen_színátmenet_151" x1="-305.06" y1="564.56" x2="-304.33" y2="564.56" gradientTransform="matrix(0, -1, -1, 0, 700.93, -270.44)" gradientUnits="userSpaceOnUse"><stop offset="0" stop-color="#d0d0d4"/><stop offset="1" stop-color="#595961"/></linearGradient><linearGradient id="Névtelen_színátmenet_143" x1="315.53" y1="33.65" x2="317.39" y2="33.65" gradientTransform="matrix(-1, 0, 0, 1, 453.64, 0)" gradientUnits="userSpaceOnUse"><stop offset="0" stop-color="#58757a"/><stop offset="1" stop-color="#d1d3d4"/></linearGradient><linearGradient id="linear-gradient-2" x1="320.17" y1="24.57" x2="320.17" y2="33.53" gradientTransform="matrix(-1, 0, 0, 1, 453.64, 0)" gradientUnits="userSpaceOnUse"><stop offset="0" stop-color="#f0ced4"/><stop offset="1" stop-color="#dca6b9"/></linearGradient><linearGradient id="linear-gradient-3" x1="133.76" y1="97.95" x2="133.76" y2="97.8" gradientUnits="userSpaceOnUse"><stop offset="0" stop-color="#cda0ca"/><stop offset="1" stop-color="#b2729a"/></linearGradient><linearGradient id="linear-gradient-4" x1="319.36" y1="24.03" x2="319.36" y2="33.28" xlink:href="#linear-gradient-2"/><linearGradient id="linear-gradient-5" x1="134.87" y1="97.95" x2="134.87" y2="97.8" xlink:href="#linear-gradient-3"/><linearGradient id="linear-gradient-6" x1="317.89" y1="23.84" x2="317.89" y2="33.09" xlink:href="#linear-gradient-2"/><linearGradient id="linear-gradient-7" x1="136.96" y1="97.95" x2="136.96" y2="97.8" xlink:href="#linear-gradient-3"/><linearGradient id="linear-gradient-8" x1="315.8" y1="23.95" x2="315.8" y2="33.19" xlink:href="#linear-gradient-2"/><linearGradient id="linear-gradient-9" x1="138.44" y1="97.95" x2="138.44" y2="97.8" xlink:href="#linear-gradient-3"/><linearGradient id="linear-gradient-10" x1="314.68" y1="24.2" x2="314.68" y2="33.38" xlink:href="#linear-gradient-2"/><linearGradient id="linear-gradient-11" x1="139.25" y1="97.95" x2="139.25" y2="97.8" xlink:href="#linear-gradient-3"/><linearGradient id="Névtelen_színátmenet_151-2" x1="138.44" y1="172.82" x2="138.87" y2="172.82" gradientTransform="matrix(0, 1, 1, 0, -36.45, -103.46)" xlink:href="#Névtelen_színátmenet_151"/><linearGradient id="Névtelen_színátmenet_151-3" x1="316.75" y1="35.21" x2="316.75" y2="35.21" gradientTransform="matrix(-1, 0, 0, 1, 453.64, 0)" xlink:href="#Névtelen_színátmenet_151"/><linearGradient id="Névtelen_színátmenet_151-4" x1="316.74" y1="35.59" x2="316.99" y2="35.59" gradientTransform="matrix(-1, 0, 0, 1, 453.64, 0)" xlink:href="#Névtelen_színátmenet_151"/><linearGradient id="Névtelen_színátmenet_151-5" x1="-413.56" y1="488.44" x2="-411.05" y2="488.44" xlink:href="#Névtelen_színátmenet_151"/><linearGradient id="Névtelen_színátmenet_143-2" x1="235.12" y1="139.76" x2="241.55" y2="139.76" xlink:href="#Névtelen_színátmenet_143"/><linearGradient id="linear-gradient-12" x1="251.16" y1="108.41" x2="251.16" y2="139.36" xlink:href="#linear-gradient-2"/><linearGradient id="linear-gradient-13" x1="203.47" y1="361.89" x2="203.47" y2="361.39" xlink:href="#linear-gradient-3"/><linearGradient id="linear-gradient-14" x1="248.37" y1="106.54" x2="248.37" y2="138.48" xlink:href="#linear-gradient-2"/><linearGradient id="linear-gradient-15" x1="207.33" y1="361.89" x2="207.33" y2="361.39" xlink:href="#linear-gradient-3"/><linearGradient id="linear-gradient-16" x1="243.28" y1="105.9" x2="243.28" y2="137.86" xlink:href="#linear-gradient-2"/><linearGradient id="linear-gradient-17" x1="214.55" y1="361.89" x2="214.55" y2="361.39" xlink:href="#linear-gradient-3"/><linearGradient id="linear-gradient-18" x1="236.05" y1="106.26" x2="236.05" y2="138.19" xlink:href="#linear-gradient-2"/><linearGradient id="linear-gradient-19" x1="219.64" y1="361.89" x2="219.64" y2="361.39" xlink:href="#linear-gradient-3"/><linearGradient id="linear-gradient-20" x1="232.19" y1="107.14" x2="232.19" y2="138.85" xlink:href="#linear-gradient-2"/><linearGradient id="linear-gradient-21" x1="222.46" y1="361.89" x2="222.46" y2="361.39" xlink:href="#linear-gradient-3"/><linearGradient id="Névtelen_színátmenet_151-6" x1="247.83" y1="248.95" x2="249.34" y2="248.95" gradientTransform="matrix(0, 1, 1, 0, -36.45, -103.46)" xlink:href="#Névtelen_színátmenet_151"/><linearGradient id="Névtelen_színátmenet_151-7" x1="239.35" y1="145.17" x2="239.35" y2="145.17" gradientTransform="matrix(-1, 0, 0, 1, 453.64, 0)" xlink:href="#Névtelen_színátmenet_151"/><linearGradient id="Névtelen_színátmenet_151-8" x1="239.32" y1="146.47" x2="240.16" y2="146.49" gradientTransform="matrix(-1, 0, 0, 1, 453.64, 0)" xlink:href="#Névtelen_színátmenet_151"/><linearGradient id="linear-gradient-22" x1="212.61" y1="353.61" x2="212.61" y2="343.29" gradientTransform="translate(424.91 537.13) rotate(180)" gradientUnits="userSpaceOnUse"><stop offset="0" stop-color="#2d1e22"/><stop offset="0.91" stop-color="#37252f" stop-opacity="0"/></linearGradient><linearGradient id="linear-gradient-23" x1="197.6" y1="331.79" x2="197.6" y2="325.32" xlink:href="#linear-gradient-22"/><linearGradient id="linear-gradient-24" x1="178.68" y1="345.01" x2="178.68" y2="337.48" xlink:href="#linear-gradient-22"/><linearGradient id="Névtelen_színátmenet_151-9" x1="-335.68" y1="471.4" x2="-334.23" y2="471.4" xlink:href="#Névtelen_színátmenet_151"/><linearGradient id="Névtelen_színátmenet_143-3" x1="220.6" y1="63.29" x2="224.34" y2="63.29" xlink:href="#Névtelen_színátmenet_143"/><linearGradient id="linear-gradient-25" x1="229.93" y1="63.06" x2="229.93" y2="45.06" gradientTransform="matrix(-1, 0, 0, 1, 453.64, 0)" gradientUnits="userSpaceOnUse"><stop offset="0" stop-color="#4f2c68"/><stop offset="0.34" stop-color="#4b2a63"/><stop offset="0.72" stop-color="#402456"/><stop offset="1" stop-color="#341d47"/></linearGradient><linearGradient id="linear-gradient-26" x1="229.35" y1="62.78" x2="229.35" y2="44.32" gradientTransform="matrix(-1, 0, 0, 1, 453.64, 0)" gradientUnits="userSpaceOnUse"><stop offset="0" stop-color="#9c6fa6"/><stop offset="1" stop-color="#63366d"/></linearGradient><linearGradient id="linear-gradient-27" x1="228.31" y1="62.55" x2="228.31" y2="43.97" xlink:href="#linear-gradient-25"/><linearGradient id="linear-gradient-28" x1="227.11" y1="62.38" x2="227.11" y2="43.8" xlink:href="#linear-gradient-26"/><linearGradient id="linear-gradient-29" x1="225.35" y1="62.18" x2="225.35" y2="43.6" xlink:href="#linear-gradient-25"/><linearGradient id="linear-gradient-30" x1="222.91" y1="62.18" x2="222.91" y2="43.6" xlink:href="#linear-gradient-26"/><linearGradient id="linear-gradient-31" x1="221.15" y1="62.38" x2="221.15" y2="43.8" xlink:href="#linear-gradient-25"/><linearGradient id="linear-gradient-32" x1="219.95" y1="62.54" x2="219.95" y2="43.97" xlink:href="#linear-gradient-26"/><linearGradient id="linear-gradient-33" x1="218.9" y1="62.76" x2="218.9" y2="44.32" xlink:href="#linear-gradient-25"/><linearGradient id="linear-gradient-34" x1="218.31" y1="63" x2="218.31" y2="45.06" xlink:href="#linear-gradient-26"/><linearGradient id="Névtelen_színátmenet_151-10" x1="169.43" y1="265.98" x2="170.31" y2="265.98" gradientTransform="matrix(0, 1, 1, 0, -36.45, -103.46)" xlink:href="#Névtelen_színátmenet_151"/><linearGradient id="Névtelen_színátmenet_151-11" x1="223.06" y1="66.44" x2="223.06" y2="66.44" gradientTransform="matrix(-1, 0, 0, 1, 453.64, 0)" xlink:href="#Névtelen_színátmenet_151"/><linearGradient id="Névtelen_színátmenet_151-12" x1="223.05" y1="67.19" x2="223.54" y2="67.2" gradientTransform="matrix(-1, 0, 0, 1, 453.64, 0)" xlink:href="#Névtelen_színátmenet_151"/><linearGradient id="Névtelen_színátmenet_421" x1="-373.22" y1="453.68" x2="-371.54" y2="453.68" gradientTransform="matrix(0, -1, -1, 0, 700.93, -270.44)" gradientUnits="userSpaceOnUse"><stop offset="0" stop-color="#d0cfd3"/><stop offset="1" stop-color="#5a5a61"/></linearGradient><linearGradient id="Névtelen_színátmenet_422" x1="202.35" y1="100.53" x2="206.66" y2="100.53" gradientTransform="matrix(-1, 0, 0, 1, 453.64, 0)" gradientUnits="userSpaceOnUse"><stop offset="0" stop-color="#58757b"/><stop offset="1" stop-color="#d2d3d3"/></linearGradient><linearGradient id="linear-gradient-35" x1="240.53" y1="79.51" x2="240.53" y2="100.26" gradientUnits="userSpaceOnUse"><stop offset="0" stop-color="#f0daea"/><stop offset="0.72" stop-color="#e2c7e0"/><stop offset="1" stop-color="#dbbedb"/></linearGradient><linearGradient id="linear-gradient-36" x1="242.4" y1="78.26" x2="242.4" y2="99.67" xlink:href="#linear-gradient-35"/><linearGradient id="linear-gradient-37" x1="245.82" y1="77.83" x2="245.82" y2="99.26" xlink:href="#linear-gradient-35"/><linearGradient id="linear-gradient-38" x1="250.66" y1="78.07" x2="250.66" y2="99.48" xlink:href="#linear-gradient-35"/><linearGradient id="linear-gradient-39" x1="253.25" y1="78.66" x2="253.25" y2="99.92" xlink:href="#linear-gradient-35"/><linearGradient id="Névtelen_színátmenet_421-2" x1="207.08" y1="283.7" x2="208.09" y2="283.7" gradientTransform="matrix(0, 1, 1, 0, -36.45, -103.46)" xlink:href="#Névtelen_színátmenet_421"/><linearGradient id="Névtelen_színátmenet_421-3" x1="205.19" y1="104.16" x2="205.19" y2="104.16" gradientTransform="matrix(-1, 0, 0, 1, 453.64, 0)" xlink:href="#Névtelen_színátmenet_421"/><linearGradient id="Névtelen_színátmenet_421-4" x1="205.17" y1="105.03" x2="205.74" y2="105.04" gradientTransform="matrix(-1, 0, 0, 1, 453.64, 0)" xlink:href="#Névtelen_színátmenet_421"/><linearGradient id="linear-gradient-40" x1="167.9" y1="160.34" x2="167.9" y2="182.66" gradientUnits="userSpaceOnUse"><stop offset="0" stop-color="#7c2f57"/><stop offset="1" stop-color="#461d47"/></linearGradient><linearGradient id="linear-gradient-41" x1="231.01" y1="153.19" x2="336.04" y2="153.19" gradientTransform="matrix(1, 0, 0, 1, 0, 0)" xlink:href="#linear-gradient-25"/><linearGradient id="linear-gradient-42" x1="52.32" y1="169.09" x2="52.32" y2="136.74" gradientTransform="matrix(1, 0, 0, 1, 0, 0)" xlink:href="#linear-gradient-25"/><linearGradient id="linear-gradient-43" x1="-0.21" y1="170.07" x2="104.71" y2="170.07" gradientUnits="userSpaceOnUse"><stop offset="0.09" stop-color="#2d1e22"/><stop offset="1" stop-color="#37252f" stop-opacity="0"/></linearGradient><linearGradient id="linear-gradient-44" x1="231.38" y1="170.07" x2="336.31" y2="170.07" gradientTransform="matrix(-1, 0, 0, 1, 567.37, 0)" xlink:href="#linear-gradient-43"/><radialGradient id="Névtelen_színátmenet_93" cx="150.91" cy="-105.3" r="22.53" gradientTransform="translate(349.22 93.15) rotate(-138.66)" gradientUnits="userSpaceOnUse"><stop offset="0.88" stop-color="#fff" stop-opacity="0.96"/><stop offset="0.95" stop-color="#f6fcfe" stop-opacity="0"/></radialGradient><radialGradient id="Névtelen_színátmenet_74" cx="4477.09" cy="72.76" r="35.97" gradientTransform="matrix(-1, 0, 0, 1, 4642.99, 0)" gradientUnits="userSpaceOnUse"><stop offset="0" stop-color="#fff" stop-opacity="0.8"/><stop offset="0.22" stop-color="#fff" stop-opacity="0.64"/><stop offset="0.7" stop-color="#fff" stop-opacity="0.25"/><stop offset="1" stop-color="#fff" stop-opacity="0"/></radialGradient><linearGradient id="Névtelen_színátmenet_96" x1="79.59" y1="184.64" x2="79.89" y2="184.64" gradientUnits="userSpaceOnUse"><stop offset="0.04" stop-color="#37252f"/><stop offset="0.91" stop-color="#2d1e22"/></linearGradient><linearGradient id="linear-gradient-45" x1="78.48" y1="174.3" x2="80.99" y2="174.3" gradientTransform="matrix(1, 0, 0, 1, 0, 0)" xlink:href="#linear-gradient-25"/><linearGradient id="linear-gradient-46" x1="71.13" y1="190.08" x2="71.13" y2="185.35" gradientUnits="userSpaceOnUse"><stop offset="0" stop-color="#37252f" stop-opacity="0"/><stop offset="0.91" stop-color="#2d1e22"/></linearGradient><linearGradient id="Névtelen_színátmenet_96-2" x1="131.18" y1="192.74" x2="131.65" y2="192.74" xlink:href="#Névtelen_színátmenet_96"/><linearGradient id="linear-gradient-47" x1="129.46" y1="176.62" x2="133.37" y2="176.62" gradientTransform="matrix(1, 0, 0, 1, 0, 0)" xlink:href="#linear-gradient-25"/><linearGradient id="linear-gradient-48" x1="122.76" y1="201.23" x2="122.76" y2="193.85" xlink:href="#linear-gradient-46"/><linearGradient id="Névtelen_színátmenet_96-3" x1="90.14" y1="207.64" x2="91" y2="207.64" xlink:href="#Névtelen_színátmenet_96"/><linearGradient id="linear-gradient-49" x1="86.98" y1="178.03" x2="94.16" y2="178.03" gradientTransform="matrix(1, 0, 0, 1, 0, 0)" xlink:href="#linear-gradient-25"/><linearGradient id="linear-gradient-50" x1="77.24" y1="220.57" x2="77.24" y2="209.67" xlink:href="#linear-gradient-46"/><linearGradient id="Névtelen_színátmenet_96-4" x1="292.6" y1="192.74" x2="293.07" y2="192.74" gradientTransform="matrix(1, 0, 0, -1, -93.2, 385.49)" xlink:href="#Névtelen_színátmenet_96"/><linearGradient id="linear-gradient-51" x1="197.68" y1="176.62" x2="201.58" y2="176.62" gradientTransform="matrix(1, 0, 0, 1, 0, 0)" xlink:href="#linear-gradient-25"/><linearGradient id="linear-gradient-52" x1="284.18" y1="201.23" x2="284.18" y2="193.85" gradientTransform="matrix(-1, 0, 0, 1, 492.46, 0)" xlink:href="#linear-gradient-46"/><linearGradient id="Névtelen_színátmenet_96-5" x1="251.55" y1="207.64" x2="252.42" y2="207.64" gradientTransform="matrix(1, 0, 0, -1, -11.51, 415.28)" xlink:href="#Névtelen_színátmenet_96"/><linearGradient id="linear-gradient-53" x1="236.89" y1="178.03" x2="244.07" y2="178.03" gradientTransform="matrix(1, 0, 0, 1, 0, 0)" xlink:href="#linear-gradient-25"/><linearGradient id="linear-gradient-54" x1="238.01" y1="221.09" x2="238.01" y2="209.67" gradientTransform="matrix(-1, 0, 0, 1, 492.46, 0)" xlink:href="#linear-gradient-46"/><linearGradient id="Névtelen_színátmenet_96-6" x1="51.92" y1="201.23" x2="52.59" y2="201.23" xlink:href="#Névtelen_színátmenet_96"/><linearGradient id="linear-gradient-55" x1="49.47" y1="178.22" x2="55.05" y2="178.22" gradientTransform="matrix(1, 0, 0, 1, 0, 0)" xlink:href="#linear-gradient-25"/><linearGradient id="linear-gradient-56" x1="35.92" y1="212.79" x2="35.92" y2="202.8" xlink:href="#linear-gradient-46"/><linearGradient id="Névtelen_színátmenet_96-7" x1="164.46" y1="201.23" x2="165.13" y2="201.23" xlink:href="#Névtelen_színátmenet_96"/><linearGradient id="linear-gradient-57" x1="162.01" y1="178.22" x2="167.59" y2="178.22" gradientTransform="matrix(1, 0, 0, 1, 0, 0)" xlink:href="#linear-gradient-25"/><linearGradient id="linear-gradient-58" x1="164.8" y1="202.8" x2="164.8" y2="221.82" xlink:href="#linear-gradient-43"/><linearGradient id="Névtelen_színátmenet_96-8" x1="206.55" y1="184.64" x2="206.86" y2="184.64" gradientTransform="matrix(1, 0, 0, -1, 43.56, 369.28)" xlink:href="#Névtelen_színátmenet_96"/><linearGradient id="linear-gradient-59" x1="249.01" y1="174.3" x2="251.51" y2="174.3" gradientTransform="matrix(1, 0, 0, 1, 0, 0)" xlink:href="#linear-gradient-25"/><linearGradient id="linear-gradient-60" x1="198.1" y1="190.08" x2="198.1" y2="185.35" gradientTransform="matrix(-1, 0, 0, 1, 456.97, 0)" xlink:href="#linear-gradient-46"/><linearGradient id="Névtelen_színátmenet_96-9" x1="178.89" y1="201.23" x2="179.56" y2="201.23" gradientTransform="matrix(1, 0, 0, -1, 98.51, 402.45)" xlink:href="#Névtelen_színátmenet_96"/><linearGradient id="linear-gradient-61" x1="274.95" y1="178.22" x2="280.53" y2="178.22" gradientTransform="matrix(1, 0, 0, 1, 0, 0)" xlink:href="#linear-gradient-25"/><linearGradient id="linear-gradient-62" x1="162.89" y1="212.79" x2="162.89" y2="202.8" gradientTransform="matrix(-1, 0, 0, 1, 456.97, 0)" xlink:href="#linear-gradient-46"/></defs><title>eezy_11</title><g id="Layer" transform="matrix(1, 0, 0, 1, 2.842170943040401e-14, 7.105427357601002e-15)" style="isolation: isolate;"><path d="M -0.05 0 H 336.039996 V 175.509995 H -0.05 V 0 Z" class="cls-2" style="fill: url('#Névtelen_színátmenet_163');"/><g id="cloud" class="cls-3" style="opacity: 0.7;"><path class="cls-4" d="M206,158.73a4.65,4.65,0,0,1,1.72.32,3,3,0,0,1,2.6-1.47,3.07,3.07,0,0,1,.74.1,3.3,3.3,0,0,1-.31-1.36,3.76,3.76,0,0,1,3.88-3.61h.09a3,3,0,0,1,1.23-2,3.42,3.42,0,0,1,1.8-.62,2.92,2.92,0,0,1,1.24-2.29,3.41,3.41,0,0,1,4.54.54,2.87,2.87,0,0,1,.63,2.32,3.33,3.33,0,0,1,2.5-1.11,3.16,3.16,0,0,1,3.26,3c0,.09,0,.17,0,.26a5.33,5.33,0,0,1,.91.8,3,3,0,0,1,2-.74,2.42,2.42,0,0,1,.47.05,5.05,5.05,0,0,1-.85-5.59,5.92,5.92,0,0,1,7.57-2.7,5.56,5.56,0,0,1,1.24.71,4.73,4.73,0,0,1,2.67.28,4.39,4.39,0,0,1,2,1.63,3.46,3.46,0,0,1,2.21-.84l-.31-.41a4.39,4.39,0,0,1,1.92-3.4,5.06,5.06,0,0,1,6.63.78l.44-.35a5,5,0,0,1,6.73.89,4.2,4.2,0,0,1,.53,4.52,4.15,4.15,0,0,1,.22,2.43,5.11,5.11,0,0,1,3.64,1.05,4.38,4.38,0,0,1,1.92-3.47,5.11,5.11,0,0,1,5.27-.3,4.38,4.38,0,0,1,.88-.41,3.58,3.58,0,0,1,.72-3l-.11-.12a3.56,3.56,0,0,1-.78-2.57,4.29,4.29,0,0,1-3.64-4.11,4.35,4.35,0,0,1,4.49-4.18,4.87,4.87,0,0,1,1.72.32,3,3,0,0,1,2.6-1.46,3.66,3.66,0,0,1,.75.09,3.27,3.27,0,0,1-.31-1.36,3.76,3.76,0,0,1,3.88-3.61h.09a2.92,2.92,0,0,1,1.23-2,3.3,3.3,0,0,1,1.79-.62,2.94,2.94,0,0,1,1.24-2.29,3.39,3.39,0,0,1,4.54.54,2.78,2.78,0,0,1,.63,2.31,3.34,3.34,0,0,1,2.5-1.1,3.16,3.16,0,0,1,3.27,3,2.3,2.3,0,0,1,0,.26,5.86,5.86,0,0,1,.91.8,3.06,3.06,0,0,1,2-.73,3.73,3.73,0,0,1,.47,0,5,5,0,0,1-.85-5.58,5.93,5.93,0,0,1,7.57-2.71,6.25,6.25,0,0,1,1.24.71,4.84,4.84,0,0,1,2.67.29,4.37,4.37,0,0,1,2,1.62,3.43,3.43,0,0,1,3.57-.57,3,3,0,0,1,1.87,3.42,4,4,0,0,1,.41,1.78,2.91,2.91,0,0,1,1.78.83,3,3,0,0,1,1.66-.38,2.76,2.76,0,0,1,2.72,2.83,2.72,2.72,0,0,1-.18.76,4.19,4.19,0,0,1,.69.64,4,4,0,0,1,2-.57,6.1,6.1,0,0,1,1.28-6.17,5.78,5.78,0,0,1,3.91-2.26l0,39.45H201.53A4.42,4.42,0,0,1,206,158.73Z" style="fill: rgb(255, 255, 255);"/></g><path d="M 0 182.660004 H 336.089996 V 235.190002 H 0 V 182.660004 Z" class="cls-5" style="fill: url('#linear-gradient');"/><path class="cls-6" d="M222.68,182.65H106.9c-5.9,2.68-9.3,5.81-9.3,9.15,0,9.87,29.48,17.87,65.85,17.87h2.69c36.36,0,65.84-8,65.84-17.87C232,188.46,228.58,185.33,222.68,182.65Z" style="opacity: 0.3; fill: url('#radial-gradient');"/><g class="cls-7" style="opacity: 0.2;"><path class="cls-8" d="M87.07,116.13a20.89,20.89,0,0,1,27.57-10.93A21.17,21.17,0,0,1,125.48,133,20.89,20.89,0,0,1,97.91,143.9,21.17,21.17,0,0,1,87.07,116.13Z" style="opacity: 0.6; fill: url('#Névtelen_színátmenet_26');"/><path class="cls-9" d="M186.68,100.18A32.86,32.86,0,0,1,230.05,83a33.29,33.29,0,0,1,17,43.69,32.85,32.85,0,0,1-43.36,17.18A33.29,33.29,0,0,1,186.68,100.18Z" style="opacity: 0.3; fill: url('#Névtelen_színátmenet_26-2');"/><path class="cls-10" d="M240.18,65.81A27.68,27.68,0,0,1,276.7,51.33a28,28,0,0,1,14.36,36.79,27.66,27.66,0,0,1-36.51,14.48A28,28,0,0,1,240.18,65.81Z" style="opacity: 0.6; fill: url('#Névtelen_színátmenet_31');"/><path class="cls-11" d="M222.35,126.91a14.91,14.91,0,0,1,19.68-7.8,15.11,15.11,0,0,1,7.74,19.83,14.92,14.92,0,0,1-19.68,7.8A15.11,15.11,0,0,1,222.35,126.91Z" style="opacity: 0.6; fill: url('#Névtelen_színátmenet_26-3');"/><path class="cls-12" d="M282.33,146.21a20.88,20.88,0,0,1,27.56-10.93,21.17,21.17,0,0,1,10.85,27.77A20.89,20.89,0,0,1,293.17,174,21.16,21.16,0,0,1,282.33,146.21Z" style="opacity: 0.6; fill: url('#Névtelen_színátmenet_31-2');"/><path class="cls-13" d="M68.2,52.6a28.39,28.39,0,0,1,37.47-14.85A28.76,28.76,0,0,1,120.41,75.5,28.4,28.4,0,0,1,82.94,90.35,28.78,28.78,0,0,1,68.2,52.6Z" style="opacity: 0.8; fill: url('#Névtelen_színátmenet_26-4');"/><path class="cls-14" d="M175.93,24.12A20.89,20.89,0,0,1,203.5,13.19,21.16,21.16,0,0,1,214.34,41a20.89,20.89,0,0,1-27.56,10.93A21.17,21.17,0,0,1,175.93,24.12Z" style="opacity: 0.3; fill: url('#Névtelen_színátmenet_26-5');"/><path class="cls-15" d="M202.51,152.79a20.89,20.89,0,0,1,27.56-10.92,21.17,21.17,0,0,1,10.85,27.77,20.9,20.9,0,0,1-27.57,10.92A21.17,21.17,0,0,1,202.51,152.79Z" style="opacity: 0.3; fill: url('#Névtelen_színátmenet_26-6');"/><path class="cls-16" d="M238.47,175.25a29.49,29.49,0,0,1,38.92-15.43A29.89,29.89,0,0,1,292.7,199a29.49,29.49,0,0,1-38.92,15.42A29.88,29.88,0,0,1,238.47,175.25Z" style="opacity: 0.2; fill: url('#Névtelen_színátmenet_26-7');"/><path class="cls-17" d="M259.61,36.69a20.89,20.89,0,0,1,27.56-10.92A21.15,21.15,0,0,1,298,53.54a20.88,20.88,0,0,1-27.56,10.92A21.16,21.16,0,0,1,259.61,36.69Z" style="opacity: 0.6; fill: url('#Névtelen_színátmenet_26-8');"/><path class="cls-18" d="M175.93,149.78a20.89,20.89,0,0,1,27.57-10.93,21.16,21.16,0,0,1,10.84,27.77,20.88,20.88,0,0,1-27.56,10.92A21.16,21.16,0,0,1,175.93,149.78Z" style="opacity: 0.2; fill: url('#Névtelen_színátmenet_26-9');"/><path class="cls-19" d="M57.36,142.84a20.88,20.88,0,0,1,27.56-10.93,21.16,21.16,0,0,1,10.84,27.77A20.89,20.89,0,0,1,68.2,170.61,21.16,21.16,0,0,1,57.36,142.84Z" style="opacity: 0.2; fill: url('#Névtelen_színátmenet_26-10');"/><path class="cls-20" d="M25,175.64A27,27,0,0,1,60.66,161.5a27.38,27.38,0,0,1,14,35.94A27,27,0,0,1,39,211.58,27.38,27.38,0,0,1,25,175.64Z" style="opacity: 0.6; fill: url('#Névtelen_színátmenet_31-3');"/><path class="cls-21" d="M30.88,101.16A29,29,0,0,1,69.21,86a29.42,29.42,0,0,1,15.07,38.61A29,29,0,0,1,46,139.77,29.44,29.44,0,0,1,30.88,101.16Z" style="opacity: 0.3; fill: url('#Névtelen_színátmenet_26-11');"/><path class="cls-22" d="M28.22,30.59A20.88,20.88,0,0,1,55.78,19.66,21.17,21.17,0,0,1,66.63,47.43,20.89,20.89,0,0,1,39.06,58.36,21.17,21.17,0,0,1,28.22,30.59Z" style="opacity: 0.2; fill: url('#Névtelen_színátmenet_26-12');"/><path class="cls-23" d="M280.56,72.91A20.88,20.88,0,0,1,308.12,62,21.16,21.16,0,0,1,319,89.76a20.88,20.88,0,0,1-27.56,10.92A21.15,21.15,0,0,1,280.56,72.91Z" style="opacity: 0.6; fill: url('#Névtelen_színátmenet_26-13');"/></g><path class="cls-24" d="M285.49,61.46A.49.49,0,0,0,285,62a.49.49,0,0,0,1,0A.49.49,0,0,0,285.49,61.46Z" style="fill: rgb(254, 241, 246);"/><path class="cls-24" d="M238.43,59.57a.28.28,0,0,0,.29-.28.29.29,0,1,0-.58,0A.28.28,0,0,0,238.43,59.57Z" style="fill: rgb(254, 241, 246);"/><path class="cls-24" d="M250.4,88.21a.29.29,0,1,0-.29-.28A.29.29,0,0,0,250.4,88.21Z" style="fill: rgb(254, 241, 246);"/><path class="cls-24" d="M308.65,75.62a.29.29,0,1,0,.29.29A.29.29,0,0,0,308.65,75.62Z" style="fill: rgb(254, 241, 246);"/><path class="cls-24" d="M325.81,39.17a.29.29,0,1,0-.29-.29A.29.29,0,0,0,325.81,39.17Z" style="fill: rgb(254, 241, 246);"/><path class="cls-25" d="M324.13,59.69a.48.48,0,0,0-.49.48.49.49,0,1,0,1,0A.48.48,0,0,0,324.13,59.69Z" style="fill: rgb(254, 241, 246); opacity: 0.5;"/><path class="cls-26" d="M309,57.85a.74.74,0,1,0,.74.74A.74.74,0,0,0,309,57.85Z" style="fill: rgb(254, 241, 246); opacity: 0.1;"/><path class="cls-27" d="M281.9,97a.74.74,0,1,0,.74.74A.74.74,0,0,0,281.9,97Z" style="fill: rgb(254, 241, 246); opacity: 0.25;"/><path class="cls-24" d="M330,55.72a.49.49,0,0,0,.49-.49.48.48,0,0,0-.49-.48.47.47,0,0,0-.48.48A.48.48,0,0,0,330,55.72Z" style="fill: rgb(254, 241, 246);"/><path class="cls-25" d="M302.59,90.09a.49.49,0,1,0,.49.49A.49.49,0,0,0,302.59,90.09Z" style="fill: rgb(254, 241, 246); opacity: 0.5;"/><path class="cls-24" d="M278.41,91a.74.74,0,1,0,.74.74A.74.74,0,0,0,278.41,91Z" style="fill: rgb(254, 241, 246);"/><path class="cls-26" d="M296.24,74.13a.74.74,0,0,0-.74.74.75.75,0,0,0,.74.75.76.76,0,0,0,.75-.75A.75.75,0,0,0,296.24,74.13Z" style="fill: rgb(254, 241, 246); opacity: 0.1;"/><path class="cls-27" d="M333.61,20.17a.74.74,0,1,0-.74-.74A.74.74,0,0,0,333.61,20.17Z" style="fill: rgb(254, 241, 246); opacity: 0.25;"/><path class="cls-24" d="M207,58.36a.49.49,0,1,0,.48.48A.49.49,0,0,0,207,58.36Z" style="fill: rgb(254, 241, 246);"/><path class="cls-25" d="M203.37,53.74a.49.49,0,0,0,0,1,.49.49,0,1,0,0-1Z" style="fill: rgb(254, 241, 246); opacity: 0.5;"/><path class="cls-26" d="M235.33,79.1a.74.74,0,0,0,0-1.48.74.74,0,1,0,0,1.48Z" style="fill: rgb(254, 241, 246); opacity: 0.1;"/><path class="cls-27" d="M325.66,93.26a.74.74,0,1,0,.74.74A.74.74,0,0,0,325.66,93.26Z" style="fill: rgb(254, 241, 246); opacity: 0.25;"/><path class="cls-24" d="M260,29a.49.49,0,0,0,0,1,.49.49,0,1,0,0-1Z" style="fill: rgb(254, 241, 246);"/><path class="cls-25" d="M304.53,41.63a.49.49,0,0,0,0,1,.49.49,0,1,0,0-1Z" style="fill: rgb(254, 241, 246); opacity: 0.5;"/><path class="cls-24" d="M280.35,42.53a.75.75,0,0,0-.74.75.74.74,0,1,0,1.48,0A.75.75,0,0,0,280.35,42.53Z" style="fill: rgb(254, 241, 246);"/><path class="cls-26" d="M283.6,25.41a.75.75,0,0,0-.75.74.76.76,0,0,0,.75.75.75.75,0,0,0,.74-.75A.74.74,0,0,0,283.6,25.41Z" style="fill: rgb(254, 241, 246); opacity: 0.1;"/><path class="cls-27" d="M331.67,68.64a.75.75,0,1,0-.74-.75A.75.75,0,0,0,331.67,68.64Z" style="fill: rgb(254, 241, 246); opacity: 0.25;"/><path class="cls-24" d="M328.08,89.31a.49.49,0,0,0-.48.49.49.49,0,0,0,1,0A.49.49,0,0,0,328.08,89.31Z" style="fill: rgb(254, 241, 246);"/><path class="cls-25" d="M202.21,85.34a.49.49,0,1,0,0,1,.49.49,0,0,0,0-1Z" style="fill: rgb(254, 241, 246); opacity: 0.5;"/><path d="M 240.480006 29.639999 A 0.74 0.74 0 0 1 239.740005 30.379999 A 0.74 0.74 0 0 1 239.000005 29.639999 A 0.74 0.74 0 0 1 239.740005 28.899999 A 0.74 0.74 0 0 1 240.480006 29.639999 Z" class="cls-24" style="fill: rgb(254, 241, 246);"/><path class="cls-26" d="M236.49,47.51a.74.74,0,0,0,.74-.74.74.74,0,1,0-1.48,0A.74.74,0,0,0,236.49,47.51Z" style="fill: rgb(254, 241, 246); opacity: 0.1;"/><path class="cls-27" d="M263.63,8.35a.74.74,0,1,0-.74-.74A.74.74,0,0,0,263.63,8.35Z" style="fill: rgb(254, 241, 246); opacity: 0.25;"/><path class="cls-24" d="M19,84.43a.29.29,0,0,0,0-.57.29.29,0,1,0,0,.57Z" style="fill: rgb(254, 241, 246);"/><path class="cls-24" d="M94.38,35.39a.29.29,0,0,0,0-.58.29.29,0,0,0,0,.58Z" style="fill: rgb(254, 241, 246);"/><path class="cls-25" d="M26.73,55.36a.47.47,0,0,0,.48-.48.48.48,0,1,0-1,0A.47.47,0,0,0,26.73,55.36Z" style="fill: rgb(254, 241, 246); opacity: 0.5;"/><path class="cls-27" d="M74.8,32.42a.74.74,0,1,0-.74-.74A.75.75,0,0,0,74.8,32.42Z" style="fill: rgb(254, 241, 246); opacity: 0.25;"/><path class="cls-24" d="M98.6,51.94a.48.48,0,0,0,.48-.49.48.48,0,0,0-1,0A.48.48,0,0,0,98.6,51.94Z" style="fill: rgb(254, 241, 246);"/><path class="cls-24" d="M78.29,38.43a.74.74,0,1,0,0-1.48.74.74,0,1,0,0,1.48Z" style="fill: rgb(254, 241, 246);"/><path d="M 102.930002 15.65 A 0.74 0.74 0 0 1 102.190002 16.39 A 0.74 0.74 0 0 1 101.450002 15.65 A 0.74 0.74 0 0 1 102.190002 14.91 A 0.74 0.74 0 0 1 102.930002 15.65 Z" class="cls-27" style="fill: rgb(254, 241, 246); opacity: 0.25;"/><path d="M 27.939999 71.220001 A 0.48 0.48 0 0 1 27.459999 71.700001 A 0.48 0.48 0 0 1 26.979999 71.220001 A 0.48 0.48 0 0 1 27.459999 70.740001 A 0.48 0.48 0 0 1 27.939999 71.220001 Z" class="cls-24" style="fill: rgb(254, 241, 246);"/><path class="cls-27" d="M31,36.17a.75.75,0,0,0,.75-.74.76.76,0,0,0-.75-.75.75.75,0,0,0-.74.75A.74.74,0,0,0,31,36.17Z" style="fill: rgb(254, 241, 246); opacity: 0.25;"/><path class="cls-24" d="M96.66,100.4a.49.49,0,1,0,0-1,.49.49,0,0,0,0,1Z" style="fill: rgb(254, 241, 246);"/><path class="cls-25" d="M38.42,8.07a.49.49,0,0,0,0-1,.49.49,0,1,0,0,1Z" style="fill: rgb(254, 241, 246); opacity: 0.5;"/><path class="cls-24" d="M62.6,7.17a.75.75,0,0,0,.74-.75.74.74,0,1,0-1.48,0A.75.75,0,0,0,62.6,7.17Z" style="fill: rgb(254, 241, 246);"/><path class="cls-26" d="M59.35,24.29a.75.75,0,0,0,.75-.74.76.76,0,0,0-.75-.75.75.75,0,0,0-.74.75A.74.74,0,0,0,59.35,24.29Z" style="fill: rgb(254, 241, 246); opacity: 0.1;"/><path class="cls-27" d="M100.25,64.86a.74.74,0,0,0,.74-.74.74.74,0,1,0-1.48,0A.74.74,0,0,0,100.25,64.86Z" style="fill: rgb(254, 241, 246); opacity: 0.25;"/><path class="cls-24" d="M28.62,40.11a.49.49,0,1,0-.48-.48A.48.48,0,0,0,28.62,40.11Z" style="fill: rgb(254, 241, 246);"/><path class="cls-27" d="M32.21,4.57a.74.74,0,1,0,0-1.48.74.74,0,1,0,0,1.48Z" style="fill: rgb(254, 241, 246); opacity: 0.25;"/><path class="cls-24" d="M136.21,61.06a.48.48,0,0,1-.34-.59.48.48,0,1,1,.34.59Z" style="fill: rgb(254, 241, 246);"/><path class="cls-24" d="M216.36,50.9a.29.29,0,0,1,.21.35.29.29,0,0,1-.36.2.28.28,0,0,1-.2-.35A.29.29,0,0,1,216.36,50.9Z" style="fill: rgb(254, 241, 246);"/><path class="cls-24" d="M182.5,90.35a.29.29,0,0,1-.21-.35.3.3,0,0,1,.36-.2.28.28,0,0,1,.2.35A.29.29,0,0,1,182.5,90.35Z" style="fill: rgb(254, 241, 246);"/><path class="cls-24" d="M162.23,53.3A.29.29,0,0,1,162,53a.29.29,0,0,1,.36-.2.28.28,0,0,1,.2.35A.29.29,0,0,1,162.23,53.3Z" style="fill: rgb(254, 241, 246);"/><path class="cls-24" d="M122.15,23.64a.29.29,0,1,1,.15-.55.28.28,0,0,1,.21.35A.29.29,0,0,1,122.15,23.64Z" style="fill: rgb(254, 241, 246);"/><path class="cls-25" d="M182.44,60.26a.48.48,0,1,1,.25-.93.48.48,0,1,1-.25.93Z" style="fill: rgb(254, 241, 246); opacity: 0.5;"/><path class="cls-26" d="M158.05,70.58a.74.74,0,1,1,.91-.52A.73.73,0,0,1,158.05,70.58Z" style="fill: rgb(254, 241, 246); opacity: 0.1;"/><path class="cls-27" d="M141.84,25.78a.74.74,0,1,1,.91-.52A.75.75,0,0,1,141.84,25.78Z" style="fill: rgb(254, 241, 246); opacity: 0.25;"/><path class="cls-24" d="M113.84,38.56a.49.49,0,0,1,.25-.94.49.49,0,1,1-.25.94Z" style="fill: rgb(254, 241, 246);"/><path class="cls-25" d="M160.08,37.76a.48.48,0,1,1,.59-.34A.48.48,0,0,1,160.08,37.76Z" style="fill: rgb(254, 241, 246); opacity: 0.5;"/><path class="cls-24" d="M136.93,30.7a.74.74,0,1,1,.91-.53A.74.74,0,0,1,136.93,30.7Z" style="fill: rgb(254, 241, 246);"/><path class="cls-26" d="M149.85,51.57a.74.74,0,1,1,.91-.53A.74.74,0,0,1,149.85,51.57Z" style="fill: rgb(254, 241, 246); opacity: 0.1;"/><path class="cls-27" d="M119.47,3.28a.74.74,0,1,1,.91-.52A.73.73,0,0,1,119.47,3.28Z" style="fill: rgb(254, 241, 246); opacity: 0.25;"/><path class="cls-24" d="M144.3,84.15a.49.49,0,1,1,.25-.94.48.48,0,0,1,.34.59A.48.48,0,0,1,144.3,84.15Z" style="fill: rgb(254, 241, 246);"/><path class="cls-25" d="M199.46,30.34a.49.49,0,0,1,.34.59.49.49,0,0,1-.94-.25A.49.49,0,0,1,199.46,30.34Z" style="fill: rgb(254, 241, 246); opacity: 0.5;"/><path class="cls-26" d="M218.36,31.22a.74.74,0,0,1-.38,1.44.74.74,0,0,1,.38-1.44Z" style="fill: rgb(254, 241, 246); opacity: 0.1;"/><path class="cls-27" d="M183.19,40.61a.74.74,0,1,1,.9-.53A.74.74,0,0,1,183.19,40.61Z" style="fill: rgb(254, 241, 246); opacity: 0.25;"/><path class="cls-24" d="M103.32,85.9a.48.48,0,1,1,.59-.34A.48.48,0,0,1,103.32,85.9Z" style="fill: rgb(254, 241, 246);"/><path class="cls-25" d="M130.6,62.44a.49.49,0,0,1-.34-.6.48.48,0,1,1,.34.6Z" style="fill: rgb(254, 241, 246); opacity: 0.5;"/><path class="cls-24" d="M126.4,78.05a.76.76,0,0,1-.53-.91.74.74,0,0,1,1.44.38A.76.76,0,0,1,126.4,78.05Z" style="fill: rgb(254, 241, 246);"/><path class="cls-26" d="M125.16,95.43a.74.74,0,1,1,.38-1.44.74.74,0,1,1-.38,1.44Z" style="fill: rgb(254, 241, 246); opacity: 0.1;"/><path class="cls-27" d="M108.94,50.63a.74.74,0,1,1,.91-.53A.74.74,0,0,1,108.94,50.63Z" style="fill: rgb(254, 241, 246); opacity: 0.25;"/><path class="cls-24" d="M184.52,45a.49.49,0,1,1,.25-.94.49.49,0,0,1-.25.94Z" style="fill: rgb(254, 241, 246);"/><path class="cls-25" d="M230.75,44.24a.48.48,0,1,1,.59-.34A.47.47,0,0,1,230.75,44.24Z" style="fill: rgb(254, 241, 246); opacity: 0.5;"/><path class="cls-24" d="M183.19,26a.74.74,0,1,1,.91-.52A.73.73,0,0,1,183.19,26Z" style="fill: rgb(254, 241, 246);"/><path class="cls-26" d="M211.4,62.07a.74.74,0,1,1-.91.52A.74.74,0,0,1,211.4,62.07Z" style="fill: rgb(254, 241, 246); opacity: 0.1;"/><path class="cls-27" d="M190.15,9.76a.74.74,0,1,1,.38-1.43.75.75,0,0,1,.53.91A.74.74,0,0,1,190.15,9.76Z" style="fill: rgb(254, 241, 246); opacity: 0.25;"/><path class="cls-24" d="M97.56,40.88a.28.28,0,0,1-.29-.28.29.29,0,0,1,.58,0A.28.28,0,0,1,97.56,40.88Z" style="fill: rgb(254, 241, 246);"/><path class="cls-24" d="M85.59,69.52a.29.29,0,1,1,.29-.29A.29.29,0,0,1,85.59,69.52Z" style="fill: rgb(254, 241, 246);"/><path class="cls-24" d="M10.18,20.48a.29.29,0,1,1,.29-.29A.29.29,0,0,1,10.18,20.48Z" style="fill: rgb(254, 241, 246);"/><path class="cls-25" d="M11.86,41a.48.48,0,0,1,.49.48.49.49,0,0,1-.49.49.48.48,0,0,1-.48-.49A.47.47,0,0,1,11.86,41Z" style="fill: rgb(254, 241, 246); opacity: 0.5;"/><path d="M 54.83 79.059998 A 0.74 0.74 0 0 1 54.09 79.799998 A 0.74 0.74 0 0 1 53.35 79.059998 A 0.74 0.74 0 0 1 54.09 78.319998 A 0.74 0.74 0 0 1 54.83 79.059998 Z" class="cls-27" style="fill: rgb(254, 241, 246); opacity: 0.25;"/><path class="cls-24" d="M6,37a.49.49,0,0,1-.48-.49.49.49,0,0,1,1,0A.49.49,0,0,1,6,37Z" style="fill: rgb(254, 241, 246);"/><path class="cls-25" d="M33.39,71.4a.49.49,0,1,1-.48.48A.49.49,0,0,1,33.39,71.4Z" style="fill: rgb(254, 241, 246); opacity: 0.5;"/><path class="cls-24" d="M57.58,72.31a.74.74,0,1,1,0,1.48.74.74,0,1,1,0-1.48Z" style="fill: rgb(254, 241, 246);"/><path class="cls-27" d="M2.38,1.48A.74.74,0,1,1,3.12.74.74.74,0,0,1,2.38,1.48Z" style="fill: rgb(254, 241, 246); opacity: 0.25;"/><path class="cls-24" d="M129,39.67a.49.49,0,1,1,0,1,.49.49,0,0,1,0-1Z" style="fill: rgb(254, 241, 246);"/><path d="M 133.099995 35.529999 A 0.48 0.48 0 0 1 132.619995 36.009999 A 0.48 0.48 0 0 1 132.139995 35.529999 A 0.48 0.48 0 0 1 132.619995 35.049999 A 0.48 0.48 0 0 1 133.099995 35.529999 Z" class="cls-25" style="fill: rgb(254, 241, 246); opacity: 0.5;"/><path class="cls-26" d="M100.66,60.41a.74.74,0,1,1,.74-.74A.74.74,0,0,1,100.66,60.41Z" style="fill: rgb(254, 241, 246); opacity: 0.1;"/><path class="cls-27" d="M10.33,74.57a.74.74,0,1,1,0,1.48.74.74,0,1,1,0-1.48Z" style="fill: rgb(254, 241, 246); opacity: 0.25;"/><path class="cls-24" d="M75.94,10.34a.48.48,0,0,1,.49.48.49.49,0,1,1-1,0A.48.48,0,0,1,75.94,10.34Z" style="fill: rgb(254, 241, 246);"/><path class="cls-25" d="M31.46,22.94a.48.48,0,0,1,.48.48.49.49,0,1,1-1,0A.48.48,0,0,1,31.46,22.94Z" style="fill: rgb(254, 241, 246); opacity: 0.5;"/><path class="cls-24" d="M55.64,23.84a.75.75,0,0,1,.74.75.74.74,0,1,1-1.48,0A.75.75,0,0,1,55.64,23.84Z" style="fill: rgb(254, 241, 246);"/><path class="cls-26" d="M52.39,6.72a.74.74,0,0,1,.74.74.74.74,0,1,1-1.48,0A.74.74,0,0,1,52.39,6.72Z" style="fill: rgb(254, 241, 246); opacity: 0.1;"/><path class="cls-27" d="M4.32,50a.76.76,0,0,1-.75-.75.75.75,0,0,1,.75-.74.74.74,0,0,1,.74.74A.75.75,0,0,1,4.32,50Z" style="fill: rgb(254, 241, 246); opacity: 0.25;"/><path class="cls-24" d="M7.9,70.62a.49.49,0,0,1,.49.49.49.49,0,0,1-1,0A.49.49,0,0,1,7.9,70.62Z" style="fill: rgb(254, 241, 246);"/><path class="cls-25" d="M133.78,66.65a.47.47,0,0,1,.48.48.48.48,0,0,1-.48.49.49.49,0,0,1-.49-.49A.48.48,0,0,1,133.78,66.65Z" style="fill: rgb(254, 241, 246); opacity: 0.5;"/><path class="cls-24" d="M96.25,11.69A.74.74,0,1,1,97,11,.74.74,0,0,1,96.25,11.69Z" style="fill: rgb(254, 241, 246);"/><path class="cls-26" d="M99.5,28.82a.75.75,0,1,1,0-1.49.75.75,0,0,1,0,1.49Z" style="fill: rgb(254, 241, 246); opacity: 0.1;"/><path class="cls-24" d="M317,65.74a.29.29,0,1,1,.29-.28A.29.29,0,0,1,317,65.74Z" style="fill: rgb(254, 241, 246);"/><path class="cls-24" d="M241.6,16.7a.29.29,0,0,1,0-.58.29.29,0,0,1,0,.58Z" style="fill: rgb(254, 241, 246);"/><path class="cls-25" d="M309.26,36.67a.48.48,0,0,1-.49-.48.49.49,0,1,1,1,0A.48.48,0,0,1,309.26,36.67Z" style="fill: rgb(254, 241, 246); opacity: 0.5;"/><path class="cls-27" d="M261.18,13.73a.74.74,0,1,1,.74-.74A.74.74,0,0,1,261.18,13.73Z" style="fill: rgb(254, 241, 246); opacity: 0.25;"/><path class="cls-24" d="M237.39,33.25a.49.49,0,0,1-.49-.49.49.49,0,0,1,1,0A.49.49,0,0,1,237.39,33.25Z" style="fill: rgb(254, 241, 246);"/><path class="cls-24" d="M257.69,19.74a.74.74,0,1,1,.74-.74A.74.74,0,0,1,257.69,19.74Z" style="fill: rgb(254, 241, 246);"/><path class="cls-24" d="M308.53,53a.49.49,0,1,1,0-1,.49.49,0,0,1,0,1Z" style="fill: rgb(254, 241, 246);"/><path class="cls-27" d="M304.94,17.48a.74.74,0,0,1-.74-.74.75.75,0,0,1,.74-.75.76.76,0,0,1,.75.75A.75.75,0,0,1,304.94,17.48Z" style="fill: rgb(254, 241, 246); opacity: 0.25;"/><path class="cls-24" d="M239.32,81.71a.49.49,0,1,1,.49-.49A.49.49,0,0,1,239.32,81.71Z" style="fill: rgb(254, 241, 246);"/><path class="cls-26" d="M276.63,5.6a.74.74,0,0,1-.74-.74.75.75,0,0,1,.74-.75.76.76,0,0,1,.75.75A.75.75,0,0,1,276.63,5.6Z" style="fill: rgb(254, 241, 246); opacity: 0.1;"/><path d="M 236.480006 45.43 A 0.74 0.74 0 0 1 235.740005 46.17 A 0.74 0.74 0 0 1 235.000005 45.43 A 0.74 0.74 0 0 1 235.740005 44.69 A 0.74 0.74 0 0 1 236.480006 45.43 Z" class="cls-27" style="fill: rgb(254, 241, 246); opacity: 0.25;"/><path class="cls-24" d="M307.37,21.42a.49.49,0,1,1,.48-.48A.49.49,0,0,1,307.37,21.42Z" style="fill: rgb(254, 241, 246);"/><path class="cls-24" d="M199.77,42.37a.49.49,0,1,0-.59-.35A.48.48,0,0,0,199.77,42.37Z" style="fill: rgb(254, 241, 246);"/><path class="cls-24" d="M119.62,32.21a.28.28,0,0,0-.2.35.29.29,0,0,0,.35.2.28.28,0,0,0,.21-.35A.29.29,0,0,0,119.62,32.21Z" style="fill: rgb(254, 241, 246);"/><path class="cls-24" d="M153.49,71.66a.29.29,0,0,0,.2-.35.28.28,0,0,0-.35-.2.29.29,0,1,0,.15.55Z" style="fill: rgb(254, 241, 246);"/><path class="cls-24" d="M173.76,34.61a.29.29,0,1,0-.15-.55.29.29,0,0,0,.15.55Z" style="fill: rgb(254, 241, 246);"/><path class="cls-24" d="M213.83,5A.29.29,0,0,0,214,4.6a.29.29,0,0,0-.36-.2.28.28,0,0,0-.2.35A.29.29,0,0,0,213.83,5Z" style="fill: rgb(254, 241, 246);"/><path class="cls-25" d="M153.54,41.57a.48.48,0,0,0,.35-.59.49.49,0,0,0-.94.25A.48.48,0,0,0,153.54,41.57Z" style="fill: rgb(254, 241, 246); opacity: 0.5;"/><path class="cls-26" d="M177.93,51.89a.74.74,0,1,0-.38-1.43.74.74,0,1,0,.38,1.43Z" style="fill: rgb(254, 241, 246); opacity: 0.1;"/><path class="cls-27" d="M194.15,7.09a.74.74,0,1,0-.91-.52A.73.73,0,0,0,194.15,7.09Z" style="fill: rgb(254, 241, 246); opacity: 0.25;"/><path class="cls-24" d="M222.14,19.87a.48.48,0,0,0,.35-.59.49.49,0,1,0-.94.24A.48.48,0,0,0,222.14,19.87Z" style="fill: rgb(254, 241, 246);"/><path class="cls-25" d="M175.91,19.07a.48.48,0,1,0-.59-.34A.47.47,0,0,0,175.91,19.07Z" style="fill: rgb(254, 241, 246); opacity: 0.5;"/><path class="cls-24" d="M199.06,12a.74.74,0,0,0-.38-1.43.73.73,0,0,0-.53.9A.74.74,0,0,0,199.06,12Z" style="fill: rgb(254, 241, 246);"/><path class="cls-26" d="M186.13,32.88a.74.74,0,0,0-.38-1.44.74.74,0,1,0,.38,1.44Z" style="fill: rgb(254, 241, 246); opacity: 0.1;"/><path class="cls-24" d="M191.69,65.46a.49.49,0,1,0-.6-.35A.49.49,0,0,0,191.69,65.46Z" style="fill: rgb(254, 241, 246);"/><path class="cls-25" d="M136.53,11.65a.48.48,0,1,0,.59.34A.48.48,0,0,0,136.53,11.65Z" style="fill: rgb(254, 241, 246); opacity: 0.5;"/><path class="cls-26" d="M117.62,12.53a.74.74,0,1,0,.91.53A.74.74,0,0,0,117.62,12.53Z" style="fill: rgb(254, 241, 246); opacity: 0.1;"/><path class="cls-27" d="M152.8,21.92a.74.74,0,1,0-.91-.53A.75.75,0,0,0,152.8,21.92Z" style="fill: rgb(254, 241, 246); opacity: 0.25;"/><path class="cls-24" d="M232.67,67.21a.48.48,0,1,0-.25-.93.48.48,0,0,0,.25.93Z" style="fill: rgb(254, 241, 246);"/><path class="cls-25" d="M205.39,43.75a.49.49,0,0,0,.34-.6.48.48,0,0,0-.59-.34.49.49,0,0,0-.35.59A.5.5,0,0,0,205.39,43.75Z" style="fill: rgb(254, 241, 246); opacity: 0.5;"/><path class="cls-24" d="M209.59,59.35a.74.74,0,1,0-.91-.52A.73.73,0,0,0,209.59,59.35Z" style="fill: rgb(254, 241, 246);"/><path class="cls-26" d="M210.83,76.74a.76.76,0,0,0,.53-.91.74.74,0,1,0-.53.91Z" style="fill: rgb(254, 241, 246); opacity: 0.1;"/><path class="cls-27" d="M227,31.94a.74.74,0,0,0-.38-1.44.74.74,0,1,0,.38,1.44Z" style="fill: rgb(254, 241, 246); opacity: 0.25;"/><path class="cls-24" d="M151.47,26.35a.49.49,0,0,0-.25-.94.49.49,0,1,0,.25.94Z" style="fill: rgb(254, 241, 246);"/><path class="cls-25" d="M105.24,25.55a.48.48,0,1,0-.6-.34A.49.49,0,0,0,105.24,25.55Z" style="fill: rgb(254, 241, 246); opacity: 0.5;"/><path class="cls-24" d="M152.79,7.31a.74.74,0,1,0-.91-.52A.75.75,0,0,0,152.79,7.31Z" style="fill: rgb(254, 241, 246);"/><path class="cls-26" d="M124.59,43.38a.74.74,0,1,0,.38,1.43.74.74,0,0,0-.38-1.43Z" style="fill: rgb(254, 241, 246); opacity: 0.1;"/><path class="cls-28" d="M136.36,34c-.47,0-.86.09-.86.2s.39.2.86.2.87-.09.87-.2S136.84,34,136.36,34Z" style="fill: url('#Névtelen_színátmenet_151');"/><path class="cls-29" d="M137.23,34.23c0-.11-.39-.2-.87-.2s-.86.09-.86.2h0a2.65,2.65,0,0,0-.33-.73,1.67,1.67,0,0,1,1.12-.45h.16a1.72,1.72,0,0,1,1.11.45,3,3,0,0,0-.33.74h0Z" style="fill: url('#Névtelen_színátmenet_143');"/><path class="cls-30" d="M133.49,24.57c-3.08,2.45-.6,6.34,1.79,8.82l-.11.11,0,0h0C131.4,30.13,130.37,26.29,133.49,24.57Z" style="fill: url('#linear-gradient-2');"/><path class="cls-31" d="M135.45,33.28l-.17.11c-2.42-2.51-4.93-6.46-1.68-8.9a1.43,1.43,0,0,1,.74-.29C131.73,26.16,133.11,29.56,135.45,33.28Z" style="fill: url('#linear-gradient-3');"/><path class="cls-32" d="M135.62,33.19l-.17.09c-2.34-3.72-3.72-7.12-1.11-9.08h0a.74.74,0,0,1,.7-.15C133,25.4,133.68,28.83,135.62,33.19Z" style="fill: url('#linear-gradient-4');"/><path class="cls-33" d="M135.93,33.09l-.31.1c-1.94-4.37-2.58-7.79-.61-9.14a.69.69,0,0,1,.6-.07C134.74,25.75,135,29,135.93,33.09Z" style="fill: url('#linear-gradient-5');"/><path class="cls-34" d="M136.29,33.05a2.2,2.2,0,0,0-.36,0c-1-4.14-1.19-7.34-.32-9.11a.73.73,0,0,1,.74-.07c.07,1.09.1,6.91.06,9.14Z" style="fill: url('#linear-gradient-6');"/><path class="cls-35" d="M136.45,33.05h-.15c0-2.23,0-8,.06-9.14a.75.75,0,0,1,.75.07c.86,1.77.63,5-.33,9.12A1.32,1.32,0,0,0,136.45,33.05Z" style="fill: url('#linear-gradient-7');"/><path class="cls-36" d="M136.78,33.1c1-4.15,1.19-7.35.32-9.12a.69.69,0,0,1,.6.07c2,1.35,1.33,4.77-.61,9.14A1.58,1.58,0,0,0,136.78,33.1Z" style="fill: url('#linear-gradient-8');"/><path class="cls-37" d="M137.09,33.19c1.94-4.37,2.58-7.79.61-9.13a.74.74,0,0,1,.7.15h0c2.61,2,1.23,5.35-1.11,9.07Z" style="fill: url('#linear-gradient-9');"/><path class="cls-38" d="M137.26,33.27c2.34-3.72,3.72-7.11,1.11-9.07a1.43,1.43,0,0,1,.74.29c3.24,2.44.74,6.38-1.67,8.89A.78.78,0,0,0,137.26,33.27Z" style="fill: url('#linear-gradient-10');"/><path class="cls-39" d="M137.56,33.5a.68.68,0,0,0-.12-.12c2.39-2.48,4.86-6.36,1.78-8.81,3.11,1.72,2.1,5.54-1.66,8.93Z" style="fill: url('#linear-gradient-11');"/><path class="cls-40" d="M136.86,35.22h0a1.79,1.79,0,0,1,0-.86h0A1.71,1.71,0,0,0,136.86,35.22Z" style="fill: rgb(142, 150, 156);"/><path class="cls-40" d="M135.87,35.24h0a2,2,0,0,0,0-.87h0A1.91,1.91,0,0,1,135.87,35.24Z" style="fill: rgb(142, 150, 156);"/><path class="cls-41" d="M136.37,35.33c-.29,0-.52,0-.52-.12s.23-.12.52-.12.52.06.52.12S136.65,35.33,136.37,35.33Z" style="fill: url('#Névtelen_színátmenet_151-2');"/><path d="M 136.88999938964844 35.209999084472656 L 136.88999938964844 35.209999084472656 L 136.88999938964844 35.209999084472656 L 136.88999938964844 35.209999084472656 Z" class="cls-42" style="fill: url('#Névtelen_színátmenet_151-3');"/><path class="cls-43" d="M135.85,35.87h0v-.64c0,.06.24.11.52.11s.52,0,.52-.12v.66h0c0,.06-.24.12-.52.12s-.5-.05-.52-.11h0Z" style="fill: url('#Névtelen_színátmenet_151-4');"/><path class="cls-44" d="M212.49,141.09c-1.66,0-3,.31-3,.7s1.34.69,3,.69,3-.31,3-.69S214.14,141.09,212.49,141.09Z" style="fill: url('#Névtelen_színátmenet_151-5');"/><path class="cls-45" d="M215.48,141.79c0-.39-1.34-.7-3-.7s-3,.31-3,.7h0a9.3,9.3,0,0,0-1.13-2.55,5.61,5.61,0,0,1,3.85-1.53h.57a6,6,0,0,1,3.85,1.53,9.51,9.51,0,0,0-1.14,2.58h0Z" style="fill: url('#Névtelen_színátmenet_143-2');"/><path class="cls-46" d="M202.57,108.41c-10.65,8.47-2.08,21.91,6.18,30.47l-.39.36.07.11h0C195.34,127.62,191.77,114.36,202.57,108.41Z" style="fill: url('#linear-gradient-12');"/><path class="cls-47" d="M209.34,138.48a5.08,5.08,0,0,0-.59.4c-8.36-8.66-17-22.31-5.8-30.76a4.84,4.84,0,0,1,2.53-1C196.47,113.91,201.25,125.63,209.34,138.48Z" style="fill: url('#linear-gradient-13');"/><path class="cls-48" d="M209.93,138.19a6.45,6.45,0,0,0-.59.29c-8.09-12.85-12.87-24.57-3.86-31.34l-.09,0a2.67,2.67,0,0,1,2.42-.53C201,111.27,203.22,123.11,209.93,138.19Z" style="fill: url('#linear-gradient-14');"/><path class="cls-49" d="M211,137.86a6.71,6.71,0,0,0-1,.33c-6.71-15.09-8.92-26.93-2.11-31.57a2.42,2.42,0,0,1,2.05-.25C206.87,112.47,207.67,123.54,211,137.86Z" style="fill: url('#linear-gradient-15');"/><path class="cls-50" d="M212.21,137.71a5.37,5.37,0,0,0-1.23.15c-3.3-14.31-4.11-25.37-1.12-31.48a2.54,2.54,0,0,1,2.58-.24c.24,3.76.35,23.85.21,31.57Z" style="fill: url('#linear-gradient-16');"/><path class="cls-51" d="M212.78,137.71h-.52c-.14-7.72,0-27.81.21-31.57a2.54,2.54,0,0,1,2.58.24c3,6.11,2.19,17.17-1.12,31.48A4.85,4.85,0,0,0,212.78,137.71Z" style="fill: url('#linear-gradient-17');"/><path class="cls-52" d="M213.93,137.86c3.31-14.32,4.11-25.39,1.11-31.49a2.42,2.42,0,0,1,2.05.25c6.81,4.64,4.61,16.48-2.11,31.57A6.4,6.4,0,0,0,213.93,137.86Z" style="fill: url('#linear-gradient-18');"/><path class="cls-53" d="M215,138.19c6.71-15.08,8.92-26.92,2.12-31.56a2.67,2.67,0,0,1,2.42.53l-.09,0c9,6.76,4.24,18.48-3.85,31.32A5.46,5.46,0,0,0,215,138.19Z" style="fill: url('#linear-gradient-19');"/><path class="cls-54" d="M215.58,138.46c8.09-12.84,12.86-24.56,3.85-31.32a4.9,4.9,0,0,1,2.54,1c11.2,8.43,2.57,22.06-5.77,30.73A4.11,4.11,0,0,0,215.58,138.46Z" style="fill: url('#linear-gradient-20');"/><path class="cls-55" d="M216.63,139.24a2.74,2.74,0,0,0-.43-.39c8.25-8.57,16.77-22,6.14-30.44,10.77,5.93,7.25,19.14-5.73,30.85Z" style="fill: url('#linear-gradient-21');"/><path class="cls-40" d="M214.2,145.21h.06a6.26,6.26,0,0,1,.06-3h-.07A6.34,6.34,0,0,0,214.2,145.21Z" style="fill: rgb(142, 150, 156);"/><path class="cls-40" d="M210.79,145.27l-.06,0a6.47,6.47,0,0,0-.06-3h.06A6.59,6.59,0,0,1,210.79,145.27Z" style="fill: rgb(142, 150, 156);"/><path class="cls-56" d="M212.49,145.59c-1,0-1.8-.18-1.8-.41s.81-.42,1.8-.42,1.8.18,1.8.42S213.49,145.59,212.49,145.59Z" style="fill: url('#Névtelen_színátmenet_151-6');"/><path class="cls-57" d="M214.29,145.16v0Z" style="fill: url('#Névtelen_színátmenet_151-7');"/><path class="cls-58" d="M210.7,147.46a0,0,0,0,0,0,0V145.2c.05.22.84.39,1.79.39s1.8-.18,1.8-.41v2.25h0c0,.23-.8.41-1.8.41s-1.71-.17-1.79-.38h0Z" style="fill: url('#Névtelen_színátmenet_151-8');"/><g class="cls-59" style="opacity: 0.4;"><path class="cls-60" d="M208.4,193.23l-.12-.06.26.13a2.72,2.72,0,0,0,1,.24h0a1.59,1.59,0,0,0,1,.13l-.19-.1.19.1a1.45,1.45,0,0,0,.81.06h0a1.5,1.5,0,0,0,1,.06.25.25,0,0,1,0-.08v.08a1.5,1.5,0,0,0,1-.06h0a1.45,1.45,0,0,0,.81-.06,1.39,1.39,0,0,0,.21-.11,1.39,1.39,0,0,1-.21.11,1.59,1.59,0,0,0,1-.13h0a2.71,2.71,0,0,0,1-.24l.26-.13-.11.06c4.27-1.46,2.86-4.73-2.31-7.62h0a2.05,2.05,0,0,1-.42-.6h0c0-.06-.19-.11-.47-.14a1,1,0,0,1,0-.67l0,0h0v-.55h0a1.58,1.58,0,0,0-.71-.1c-.39,0-.71,0-.71.11h0v.55l0,0a1,1,0,0,1,0,.67c-.29,0-.47.08-.47.14h0a2.16,2.16,0,0,1-.45.63C205.53,188.52,204.13,191.77,208.4,193.23Zm3.23-9a3.15,3.15,0,0,0,1.32,0,1.07,1.07,0,0,0,0,.66q-.3,0-.69,0c-.25,0-.49,0-.69,0A.94.94,0,0,0,211.63,184.22Z" style="fill: url('#linear-gradient-22');"/></g><g class="cls-59" style="opacity: 0.4;"><path class="cls-61" d="M224.86,211.42l-.07,0,.16.08a1.71,1.71,0,0,0,.63.15h0a1.08,1.08,0,0,0,.6.08l-.12-.06.12.06a1,1,0,0,0,.51,0h0a1,1,0,0,0,.63,0v0a1,1,0,0,0,.64,0h0a1,1,0,0,0,.51,0l.13-.07-.13.07a1.09,1.09,0,0,0,.6-.08h0a1.61,1.61,0,0,0,.62-.15l.17-.08-.07,0c2.67-.91,1.79-3-1.45-4.77h0a1.13,1.13,0,0,1-.27-.37h0s-.11-.07-.29-.08a.64.64,0,0,1,0-.43h0v-.34h0a1,1,0,0,0-.44-.06c-.25,0-.45,0-.45.07h0v.35h0a.64.64,0,0,1,0,.43c-.18,0-.29.05-.29.08h0a1.46,1.46,0,0,1-.28.4C223.06,208.47,222.19,210.51,224.86,211.42Zm2-5.64a1.65,1.65,0,0,0,.41,0,1.35,1.35,0,0,0,.41,0,.64.64,0,0,0,0,.41l-.43,0-.43,0A.71.71,0,0,0,226.89,205.78Z" style="fill: url('#linear-gradient-23');"/></g><g class="cls-59" style="opacity: 0.4;"><path class="cls-62" d="M243.38,199.2l-.09,0,.2.09a1.83,1.83,0,0,0,.73.18h0a1.19,1.19,0,0,0,.7.09l-.14-.07.14.07a1.05,1.05,0,0,0,.59,0h0a1.21,1.21,0,0,0,.75,0v0a1.18,1.18,0,0,0,.74,0h0a1,1,0,0,0,.59,0l.15-.08a.71.71,0,0,1-.15.08,1.18,1.18,0,0,0,.7-.09h0a1.87,1.87,0,0,0,.74-.18l.19-.09-.09,0c3.12-1.07,2.09-3.45-1.68-5.56h0a1.64,1.64,0,0,1-.3-.44h0s-.14-.08-.35-.1a.75.75,0,0,1,0-.49s0,0,0,0h0v-.4h0a1.12,1.12,0,0,0-.52-.07c-.29,0-.52,0-.52.07h0v.41s0,0,0,0a.69.69,0,0,1,0,.49c-.21,0-.34.06-.34.1h0a1.71,1.71,0,0,1-.33.46C241.29,195.76,240.27,198.14,243.38,199.2Zm2.36-6.57a1.63,1.63,0,0,0,.48.05,1.68,1.68,0,0,0,.48-.05.79.79,0,0,0,0,.48,4.18,4.18,0,0,0-1,0A.79.79,0,0,0,245.74,192.63Z" style="fill: url('#linear-gradient-24');"/></g><path class="cls-63" d="M229.53,64.07c-1,0-1.75.18-1.75.4s.78.4,1.75.4,1.74-.18,1.74-.4S230.49,64.07,229.53,64.07Z" style="fill: url('#Névtelen_színátmenet_151-9');"/><path class="cls-64" d="M231.27,64.47c0-.22-.78-.4-1.74-.4s-1.75.18-1.75.4h0a5.52,5.52,0,0,0-.65-1.48,3.28,3.28,0,0,1,2.24-.89h.33a3.46,3.46,0,0,1,2.23.89,5.86,5.86,0,0,0-.66,1.5h0Z" style="fill: url('#Névtelen_színátmenet_143-3');"/><path class="cls-65" d="M223.76,45.06c-6.2,4.92-1.21,12.74,3.59,17.72l-.22.21,0,.07h0C219.55,56.23,217.48,48.52,223.76,45.06Z" style="fill: url('#linear-gradient-25');"/><path class="cls-66" d="M227.7,62.55l-.35.23c-4.86-5-9.9-13-3.37-17.89a2.68,2.68,0,0,1,1.47-.57C220.21,48.25,223,55.07,227.7,62.55Z" style="fill: url('#linear-gradient-26');"/><path class="cls-67" d="M228,62.38a3.59,3.59,0,0,0-.34.17c-4.71-7.48-7.49-14.3-2.25-18.23h0a1.55,1.55,0,0,1,1.41-.31C222.85,46.72,224.14,53.6,228,62.38Z" style="fill: url('#linear-gradient-27');"/><path class="cls-68" d="M228.65,62.18a4.35,4.35,0,0,0-.61.2c-3.91-8.78-5.19-15.67-1.23-18.36a1.4,1.4,0,0,1,1.19-.15C226.26,47.42,226.73,53.85,228.65,62.18Z" style="fill: url('#linear-gradient-28');"/><path class="cls-69" d="M229.37,62.1a3.61,3.61,0,0,0-.72.08c-1.92-8.32-2.39-14.75-.65-18.31a1.48,1.48,0,0,1,1.5-.14c.14,2.19.2,13.88.12,18.37Z" style="fill: url('#linear-gradient-29');"/><path class="cls-70" d="M229.7,62.1h-.31c-.08-4.49,0-16.18.13-18.37a1.48,1.48,0,0,1,1.5.14c1.74,3.56,1.27,10-.65,18.31A3.38,3.38,0,0,0,229.7,62.1Z" style="fill: url('#linear-gradient-30');"/><path class="cls-71" d="M230.37,62.18c1.92-8.33,2.39-14.76.64-18.31a1.39,1.39,0,0,1,1.19.15c4,2.69,2.68,9.58-1.22,18.36A4.82,4.82,0,0,0,230.37,62.18Z" style="fill: url('#linear-gradient-31');"/><path class="cls-72" d="M231,62.38c3.9-8.78,5.19-15.66,1.23-18.36a1.56,1.56,0,0,1,1.41.31h-.05c5.24,3.93,2.46,10.75-2.24,18.22Z" style="fill: url('#linear-gradient-32');"/><path class="cls-73" d="M231.33,62.54c4.7-7.47,7.48-14.29,2.24-18.22a2.68,2.68,0,0,1,1.47.57c6.52,4.9,1.5,12.83-3.36,17.87A2.33,2.33,0,0,0,231.33,62.54Z" style="fill: url('#linear-gradient-33');"/><path class="cls-74" d="M231.93,63a1.12,1.12,0,0,0-.25-.23c4.8-5,9.76-12.79,3.58-17.7,6.26,3.45,4.21,11.13-3.33,17.94Z" style="fill: url('#linear-gradient-34');"/><path class="cls-40" d="M230.52,66.46h0a3.62,3.62,0,0,1,0-1.73h0A3.79,3.79,0,0,0,230.52,66.46Z" style="fill: rgb(142, 150, 156);"/><path class="cls-40" d="M228.54,66.49h0a3.74,3.74,0,0,0,0-1.76h0A3.92,3.92,0,0,1,228.54,66.49Z" style="fill: rgb(142, 150, 156);"/><path class="cls-75" d="M229.53,66.68c-.58,0-1.05-.1-1.05-.24s.47-.24,1.05-.24,1.05.11,1.05.24S230.11,66.68,229.53,66.68Z" style="fill: url('#Névtelen_színátmenet_151-10');"/><path d="M 230.57000732421875 66.43000030517578 L 230.57000732421875 66.44000244140625 L 230.57000732421875 66.43000030517578 L 230.57000732421875 66.43000030517578 Z" class="cls-76" style="fill: url('#Névtelen_színátmenet_151-11');"/><path class="cls-77" d="M228.49,67.77h0v-1.3c0,.12.48.22,1,.22s1.05-.1,1.05-.24v1.31h0c0,.13-.47.24-1.05.24s-1-.1-1-.22Z" style="fill: url('#Névtelen_színátmenet_151-12');"/><path class="cls-78" d="M247.24,101.43c-1.11,0-2,.2-2,.46s.9.46,2,.46,2-.21,2-.46S248.35,101.43,247.24,101.43Z" style="fill: url('#Névtelen_színátmenet_421');"/><path class="cls-79" d="M249.25,101.89c0-.26-.9-.46-2-.46s-2,.2-2,.46h0a6.6,6.6,0,0,0-.75-1.71,3.78,3.78,0,0,1,2.58-1h.38a4,4,0,0,1,2.58,1,6.3,6.3,0,0,0-.76,1.73h0Z" style="fill: url('#Névtelen_színátmenet_422');"/><path class="cls-80" d="M240.59,79.51c-7.13,5.68-1.39,14.69,4.15,20.43a3.08,3.08,0,0,0-.26.24l0,.08h0C235.75,92.4,233.35,83.5,240.59,79.51Z" style="fill: url('#linear-gradient-35');"/><path class="cls-81" d="M245.13,99.67a3.83,3.83,0,0,0-.39.27c-5.61-5.8-11.42-15-3.89-20.62a3.22,3.22,0,0,1,1.69-.66C236.5,83.2,239.71,91.06,245.13,99.67Z" style="fill: rgb(99, 41, 119);"/><path class="cls-82" d="M245.53,99.48l-.4.19c-5.42-8.61-8.63-16.47-2.59-21h-.06a1.79,1.79,0,0,1,1.63-.35C239.55,81.43,241,89.37,245.53,99.48Z" style="fill: url('#linear-gradient-36');"/><path class="cls-81" d="M246.23,99.26a3.55,3.55,0,0,0-.7.22c-4.5-10.12-6-18-1.42-21.16a1.65,1.65,0,0,1,1.38-.18C243.48,82.24,244,89.65,246.23,99.26Z" style="fill: rgb(99, 41, 119);"/><path class="cls-83" d="M247.06,99.15a4.12,4.12,0,0,0-.83.11c-2.21-9.6-2.75-17-.75-21.11a1.72,1.72,0,0,1,1.73-.16c.16,2.52.23,16,.14,21.16Z" style="fill: url('#linear-gradient-37');"/><path class="cls-81" d="M247.44,99.15h-.35c-.09-5.17,0-18.64.14-21.16a1.72,1.72,0,0,1,1.73.16c2,4.1,1.47,11.51-.75,21.11A3.75,3.75,0,0,0,247.44,99.15Z" style="fill: rgb(99, 41, 119);"/><path class="cls-84" d="M248.21,99.26c2.22-9.61,2.76-17,.74-21.12a1.65,1.65,0,0,1,1.38.18c4.56,3.11,3.09,11-1.41,21.16A4.48,4.48,0,0,0,248.21,99.26Z" style="fill: url('#linear-gradient-38');"/><path class="cls-81" d="M248.92,99.48c4.49-10.11,6-18,1.41-21.16a1.78,1.78,0,0,1,1.63.35h-.06c6,4.54,2.84,12.39-2.58,21A3.52,3.52,0,0,0,248.92,99.48Z" style="fill: rgb(99, 41, 119);"/><path class="cls-85" d="M249.32,99.66c5.42-8.61,8.62-16.46,2.58-21a3.28,3.28,0,0,1,1.7.66c7.51,5.65,1.72,14.79-3.87,20.6A3.21,3.21,0,0,0,249.32,99.66Z" style="fill: url('#linear-gradient-39');"/><path class="cls-81" d="M250,100.18a1.84,1.84,0,0,0-.29-.26c5.53-5.74,11.25-14.74,4.12-20.41,7.22,4,4.86,12.83-3.84,20.69Z" style="fill: rgb(99, 41, 119);"/><path class="cls-86" d="M248.39,104.19h0a4.23,4.23,0,0,1,0-2h0A4.18,4.18,0,0,0,248.39,104.19Z" style="fill: rgb(142, 150, 155);"/><path class="cls-86" d="M246.1,104.22h0a4.36,4.36,0,0,0,0-2h0A4.44,4.44,0,0,1,246.1,104.22Z" style="fill: rgb(142, 150, 155);"/><path class="cls-87" d="M247.24,104.44c-.66,0-1.2-.12-1.2-.28s.54-.28,1.2-.28,1.21.13,1.21.28S247.91,104.44,247.24,104.44Z" style="fill: url('#Névtelen_színátmenet_421-2');"/><path class="cls-88" d="M248.45,104.15h0Z" style="fill: url('#Névtelen_színátmenet_421-3');"/><path class="cls-89" d="M246,105.69h0v-1.5c0,.14.56.26,1.2.26s1.21-.12,1.21-.28v1.52h0c0,.15-.54.28-1.21.28s-1.15-.12-1.2-.26h0Z" style="fill: url('#Névtelen_színátmenet_421-4');"/><path class="cls-90" d="M336,169.1s-74.48-8.69-168.93-8.76h-1C73.19,160.41-.19,169.1-.19,169.1l-.09,13.56H336.08Z" style="fill: url('#linear-gradient-40');"/><path class="cls-91" d="M336,169.1l0-23.4h-.31a.43.43,0,0,0,0-.16.94.94,0,0,0-1.05-.82h0a1.61,1.61,0,0,0-1.32-1.12,1.1,1.1,0,0,0-1.17-.74l-.21.05a1,1,0,0,0,0-.24,1.1,1.1,0,0,0-1.23-.95h0a1.15,1.15,0,0,0-1-.38h-.05a1.19,1.19,0,0,0-.9.64h0a1.07,1.07,0,0,0-.85.66.72.72,0,0,0-.58-.19l-.14,0v-.16a.73.73,0,0,0-.82-.63h0a.77.77,0,0,0-.68-.26h0a.79.79,0,0,0-.6.42h0a.78.78,0,0,0-.49.29.6.6,0,0,0-.42-.1h0a1.09,1.09,0,0,0-.88-.75.73.73,0,0,0-.78-.49l-.14,0a.43.43,0,0,0,0-.16.73.73,0,0,0-.82-.63h0a.83.83,0,0,0-.69-.26h0a.8.8,0,0,0-.6.42h0a.73.73,0,0,0-.46.25,1,1,0,0,0-.73-.19l-.2,0a.88.88,0,0,0,0-.23,1,1,0,0,0-1.16-.9h0a1.11,1.11,0,0,0-1-.37h0a1.16,1.16,0,0,0-.86.6h0a1,1,0,0,0-.51.21,1.18,1.18,0,0,0-1.24-.72h0a1.3,1.3,0,0,0-1.12-.42h0a1.24,1.24,0,0,0-1,.69h0l-.18,0a1,1,0,0,0-1-.64l-.19.05a.81.81,0,0,0,0-.22,1,1,0,0,0-1.09-.84h0a1,1,0,0,0-.92-.34h0a1,1,0,0,0-.8.57h0a1,1,0,0,0-.84,1.08.79.79,0,0,0,.06.22h-.19a1,1,0,0,0-.78.63,2.1,2.1,0,0,0-1.63-.49h-.08a2.13,2.13,0,0,0-1.64,1.15h0a2,2,0,0,0-1.73,2.23,2,2,0,0,0,.06.23,1,1,0,0,0-.46.24.86.86,0,0,0-.23.05,1.58,1.58,0,0,0-1-.2h0a1.67,1.67,0,0,0-1.47-.55h-.06a1.65,1.65,0,0,0-1.28.9h0a1.5,1.5,0,0,0-.75.32,1.79,1.79,0,0,0-1.86-1.08h-.05a1.87,1.87,0,0,0-1.67-.63h-.07a1.91,1.91,0,0,0-1.47,1h0a1.78,1.78,0,0,0-1.54,2,1.86,1.86,0,0,0,.1.39,1.36,1.36,0,0,0-.35,0,1.76,1.76,0,0,0-1.53,1.49,1.37,1.37,0,0,0-.45,0l-.28.07a1.82,1.82,0,0,0,0-.33,1.47,1.47,0,0,0-1.63-1.26h0a1.58,1.58,0,0,0-1.37-.51H283a1.56,1.56,0,0,0-1.19.84h0a1.45,1.45,0,0,0-1.26,1.62,1.67,1.67,0,0,0,.08.32.88.88,0,0,0-.28,0,1.39,1.39,0,0,0-.57.2,1.61,1.61,0,0,0-.44,0l-.27.06a1.6,1.6,0,0,0,0-.31,1.41,1.41,0,0,0-1.56-1.21h0a1.48,1.48,0,0,0-1.31-.49H276a1.48,1.48,0,0,0-1.14.81h0a1.41,1.41,0,0,0-1.21,1.56,1.57,1.57,0,0,0,.08.31.89.89,0,0,0-.28,0,1.35,1.35,0,0,0-.74.35.78.78,0,0,0-.22,0h0a1.11,1.11,0,0,0-1-.37h0a1.11,1.11,0,0,0-.85.61h0a1,1,0,0,0-.51.21,1.18,1.18,0,0,0-1.24-.72h0a1.28,1.28,0,0,0-1.12-.43h0a1.28,1.28,0,0,0-1,.69h0l-.18,0a1,1,0,0,0-1-.63.58.58,0,0,0-.19,0,.81.81,0,0,0,0-.22,1,1,0,0,0-1.09-.84h0a1.06,1.06,0,0,0-.91-.35h0a1,1,0,0,0-.8.56h0a1,1,0,0,0-.84,1.09.54.54,0,0,0,.05.21h-.19a1,1,0,0,0-.85.89,1.47,1.47,0,0,0-.88,1.26h0a.88.88,0,0,0-.51.27,1,1,0,0,0-.73-.21h0a1,1,0,0,0-.92-.34h0a1,1,0,0,0-.79.57h0a1,1,0,0,0-.84,1.08.65.65,0,0,0,.06.21h-.2a1,1,0,0,0-.81.76.82.82,0,0,0-.68-.24h0a.8.8,0,0,0-.63.44h0a.77.77,0,0,0-.66.86,1,1,0,0,0,0,.17.38.38,0,0,0-.15,0,.78.78,0,0,0-.67.71,1.12,1.12,0,0,0-.69,1h0a.67.67,0,0,0-.56.51c-10.8,2.35-17.7,4.27-19.69,4.83C293,164.1,336,169.1,336,169.1Z" style="fill: url('#linear-gradient-41');"/><path class="cls-92" d="M-.08,169.09c2.36-.28,44.69-5.15,104.79-7.5-2.29-.65-9.19-2.55-19.74-4.83a.54.54,0,0,0,.09-.25.65.65,0,0,0-.57-.74h0a1.15,1.15,0,0,0-.7-1,.77.77,0,0,0-.67-.7H83a.47.47,0,0,0,0-.16.76.76,0,0,0-.66-.86h0a.83.83,0,0,0-.63-.45h0a.85.85,0,0,0-.68.24,1,1,0,0,0-.81-.76H80a1.6,1.6,0,0,0,0-.21,1,1,0,0,0-.84-1.09h0a1.1,1.1,0,0,0-.8-.56h0a1,1,0,0,0-.91.34h0a.91.91,0,0,0-.73.21.76.76,0,0,0-.51-.27h0a1.44,1.44,0,0,0-.88-1.26,1,1,0,0,0-.84-.89h-.19a1.08,1.08,0,0,0,0-.21,1,1,0,0,0-.84-1.08h0a1,1,0,0,0-.79-.57h0a1,1,0,0,0-.92.34h0a1,1,0,0,0-1.09.84,1.62,1.62,0,0,0,0,.22l-.18-.05a1,1,0,0,0-1,.64l-.18,0h0a1.24,1.24,0,0,0-1-.69h0a1.3,1.3,0,0,0-1.12.42h0a1.18,1.18,0,0,0-1.24.72,1,1,0,0,0-.51-.21h0a1.16,1.16,0,0,0-.86-.6h0a1.13,1.13,0,0,0-1,.36h0a.86.86,0,0,0-.23,0,1.4,1.4,0,0,0-.74-.36,1.31,1.31,0,0,0-.28,0,1.57,1.57,0,0,0,.08-.31,1.4,1.4,0,0,0-1.21-1.56h0a1.52,1.52,0,0,0-1.15-.81h-.06a1.51,1.51,0,0,0-1.31.5h0a1.39,1.39,0,0,0-1.56,1.21,1.09,1.09,0,0,0,0,.31,1.1,1.1,0,0,0-.26-.06,1.34,1.34,0,0,0-.45,0,1.51,1.51,0,0,0-.56-.21h-.29a1.67,1.67,0,0,0,.08-.32A1.46,1.46,0,0,0,54,145.17h0a1.59,1.59,0,0,0-1.2-.84h-.06a1.56,1.56,0,0,0-1.36.52h0a1.45,1.45,0,0,0-1.62,1.26,1.16,1.16,0,0,0,0,.32,1.27,1.27,0,0,0-.28-.06,1.36,1.36,0,0,0-.45,0,1.78,1.78,0,0,0-1.52-1.49h-.35a2.34,2.34,0,0,0,.09-.38,1.77,1.77,0,0,0-1.54-2h0a1.94,1.94,0,0,0-1.47-1h-.07a1.91,1.91,0,0,0-1.67.64h0a1.76,1.76,0,0,0-1.86,1.08,1.48,1.48,0,0,0-.76-.32h0a1.7,1.7,0,0,0-1.28-.9h-.06a1.7,1.7,0,0,0-1.47.56h0a1.54,1.54,0,0,0-1,.2,1.55,1.55,0,0,0-.23-.06.91.91,0,0,0-.46-.23,2.1,2.1,0,0,0,.06-.24,2,2,0,0,0-1.72-2.22h-.05a2.16,2.16,0,0,0-1.64-1.16h-.08a2.16,2.16,0,0,0-1.62.49,1,1,0,0,0-.78-.62h-.19a1.08,1.08,0,0,0,.05-.21,1,1,0,0,0-.84-1.08h0a1.06,1.06,0,0,0-.79-.56h0a1,1,0,0,0-.92.34h0a1,1,0,0,0-1.08.84,1.48,1.48,0,0,0,0,.21l-.18,0a1,1,0,0,0-1,.64.58.58,0,0,0-.18,0h0a1.25,1.25,0,0,0-1-.68h0a1.28,1.28,0,0,0-1.12.42h0a1.18,1.18,0,0,0-1.24.72,1.07,1.07,0,0,0-.51-.22h0a1.12,1.12,0,0,0-.86-.6h0a1.14,1.14,0,0,0-1,.37h0a1.05,1.05,0,0,0-1.17.9.88.88,0,0,0,0,.23.65.65,0,0,0-.2,0,1,1,0,0,0-.73.19.7.7,0,0,0-.45-.25h0a.76.76,0,0,0-.6-.42h0a.8.8,0,0,0-.69.26h0a.73.73,0,0,0-.82.63v.16a.58.58,0,0,0-.14,0,.72.72,0,0,0-.78.49,1.06,1.06,0,0,0-.87.74h0a.62.62,0,0,0-.42.1.68.68,0,0,0-.49-.29h0a.78.78,0,0,0-.6-.43h0a.78.78,0,0,0-.68.26h0a.72.72,0,0,0-.81.63.86.86,0,0,0,0,.16.32.32,0,0,0-.14,0,.69.69,0,0,0-.57.19,1.11,1.11,0,0,0-.86-.67H7a1.18,1.18,0,0,0-.9-.63h0a1.16,1.16,0,0,0-1,.39H5a1.12,1.12,0,0,0-1.23,1.19l-.21,0a1.09,1.09,0,0,0-1.17.73,1.63,1.63,0,0,0-1.31,1.12h0A.94.94,0,0,0,0,145a.87.87,0,0,0,.2.7H-.08Z" style="fill: url('#linear-gradient-42');"/><path class="cls-93" d="M-.19,169.1l0,3.38H0a.51.51,0,0,0-.2.47,1,1,0,0,0,1.05.56h0a1.56,1.56,0,0,0,1.31.76,1.18,1.18,0,0,0,1.17.5,1.18,1.18,0,0,0,.21,0,1,1,0,0,0,0,.17c.07.4.62.69,1.22.64h0a1.55,1.55,0,0,0,1,.27h0a1.23,1.23,0,0,0,.9-.43h0a1.1,1.1,0,0,0,.85-.45,1,1,0,0,0,.58.13l.14,0a.21.21,0,0,0,0,.11c.05.27.41.46.81.43h0a1.07,1.07,0,0,0,.68.17h0a.86.86,0,0,0,.6-.29h0a.79.79,0,0,0,.49-.2.83.83,0,0,0,.42.07h0a1,1,0,0,0,.87.5.8.8,0,0,0,.78.34l.14,0a.37.37,0,0,0,0,.11.71.71,0,0,0,.81.43h0a.94.94,0,0,0,.68.17h0a.82.82,0,0,0,.6-.28h0a1,1,0,0,0,.45-.17,1.45,1.45,0,0,0,.73.13l.2,0a.26.26,0,0,0,0,.15c.07.39.59.66,1.16.61h0a1.47,1.47,0,0,0,1,.25h0a1.23,1.23,0,0,0,.86-.41h0a1.28,1.28,0,0,0,.5-.15,1.32,1.32,0,0,0,1.24.49h0a1.63,1.63,0,0,0,1.12.28h.05a1.39,1.39,0,0,0,1-.47h0a.84.84,0,0,0,.18,0,1.07,1.07,0,0,0,1,.43l.18,0a.71.71,0,0,0,0,.14,1,1,0,0,0,1.08.57h0a1.32,1.32,0,0,0,.91.23h0a1.15,1.15,0,0,0,.8-.38h0c.53,0,.91-.38.84-.74a.58.58,0,0,0-.05-.14h.19a1,1,0,0,0,.78-.42,2.85,2.85,0,0,0,1.63.33h.07a2.3,2.3,0,0,0,1.64-.79h.05c1.09-.09,1.86-.77,1.72-1.51a.94.94,0,0,0-.06-.15,1.19,1.19,0,0,0,.46-.16l.23,0a2.2,2.2,0,0,0,1,.13h0a2.18,2.18,0,0,0,1.47.37h.06a1.8,1.8,0,0,0,1.28-.61h0a1.93,1.93,0,0,0,.76-.21,2,2,0,0,0,1.86.73h0a2.45,2.45,0,0,0,1.68.43H44a2.06,2.06,0,0,0,1.46-.7h0c1-.09,1.67-.69,1.54-1.35a.86.86,0,0,0-.09-.27h.35a1.61,1.61,0,0,0,1.52-1,1.76,1.76,0,0,0,.46,0l.27,0a.55.55,0,0,0,0,.22c.1.54.83.92,1.62.85h0a2.05,2.05,0,0,0,1.37.35h.05a1.65,1.65,0,0,0,1.2-.57h0c.8-.07,1.36-.56,1.26-1.1a.58.58,0,0,0-.08-.22,1.41,1.41,0,0,0,.29,0,1.92,1.92,0,0,0,.56-.14,1.68,1.68,0,0,0,.45,0l.26,0a.74.74,0,0,0,0,.21c.1.52.79.89,1.56.82h0a1.92,1.92,0,0,0,1.32.33h0a1.64,1.64,0,0,0,1.15-.55h0c.77-.07,1.31-.54,1.21-1.06a.86.86,0,0,0-.07-.21h.27a1.8,1.8,0,0,0,.74-.24,1.77,1.77,0,0,0,.23,0h0a1.47,1.47,0,0,0,1,.25h0a1.21,1.21,0,0,0,.86-.4h0a1.27,1.27,0,0,0,.51-.14,1.34,1.34,0,0,0,1.24.49h0a1.61,1.61,0,0,0,1.12.29h0a1.35,1.35,0,0,0,1-.47h0l.18,0a1.09,1.09,0,0,0,1,.43.57.57,0,0,0,.18,0,.76.76,0,0,0,0,.15c.06.36.55.61,1.08.57h0a1.37,1.37,0,0,0,.92.23h0a1.12,1.12,0,0,0,.8-.39h0c.53,0,.91-.37.84-.73a.88.88,0,0,0,0-.15h.19c.46,0,.81-.3.84-.6.51-.15.86-.48.88-.85h0a.89.89,0,0,0,.51-.18,1.33,1.33,0,0,0,.73.15h0a1.33,1.33,0,0,0,.91.24h0A1.13,1.13,0,0,0,79,169h0c.53,0,.91-.37.84-.73a.88.88,0,0,0,0-.15H80a.88.88,0,0,0,.81-.52,1,1,0,0,0,.68.16h0a.86.86,0,0,0,.63-.3h0c.42,0,.72-.3.66-.58a.28.28,0,0,0,0-.12h.15c.37,0,.65-.23.67-.48a.85.85,0,0,0,.7-.67h0c.37,0,.62-.26.58-.5a.61.61,0,0,0-.09-.18c10.54-1.54,17.61-2.94,19.9-3.38C42.85,164-.19,169.1-.19,169.1Z" style="opacity: 0.3; fill: url('#linear-gradient-43');"/><path class="cls-94" d="M336,169.1v3.38h-.25a.48.48,0,0,1,.19.47c-.06.35-.53.6-1.05.56h0a1.59,1.59,0,0,1-1.32.76,1.18,1.18,0,0,1-1.17.5l-.21,0a.48.48,0,0,1,0,.17c-.08.4-.63.69-1.23.64h0a1.55,1.55,0,0,1-1,.27h-.05a1.23,1.23,0,0,1-.9-.43h0a1.12,1.12,0,0,1-.86-.45,1,1,0,0,1-.57.13l-.14,0v.11a.74.74,0,0,1-.82.43h0a1,1,0,0,1-.68.17h0a.86.86,0,0,1-.6-.29h0a.81.81,0,0,1-.49-.2.83.83,0,0,1-.42.07h0a1.06,1.06,0,0,1-.88.5.8.8,0,0,1-.78.34l-.14,0a.2.2,0,0,1,0,.11c-.05.27-.42.47-.82.43h0a1,1,0,0,1-.69.17h0a.85.85,0,0,1-.6-.28h0a1,1,0,0,1-.46-.17,1.43,1.43,0,0,1-.73.13l-.2,0a.38.38,0,0,1,0,.15c-.07.39-.6.66-1.16.61h0a1.47,1.47,0,0,1-1,.25h0a1.28,1.28,0,0,1-.86-.41h0a1.45,1.45,0,0,0-1.75.34h0a1.61,1.61,0,0,1-1.12.28h0a1.35,1.35,0,0,1-1-.47h0l-.18,0a1.06,1.06,0,0,1-1,.43l-.18,0a.33.33,0,0,1,0,.14c-.07.36-.56.62-1.09.57h0a1.35,1.35,0,0,1-.92.23h0a1.11,1.11,0,0,1-.8-.38h0c-.53,0-.9-.38-.84-.74a.35.35,0,0,1,.06-.14h-.2a1,1,0,0,1-.77-.42,2.87,2.87,0,0,1-1.63.33h-.08a2.3,2.3,0,0,1-1.64-.79h-.05c-1.08-.09-1.85-.77-1.72-1.51a.94.94,0,0,1,.06-.15,1.25,1.25,0,0,1-.46-.16l-.23,0a2.16,2.16,0,0,1-1,.13h0a2.18,2.18,0,0,1-1.47.37h-.06a1.8,1.8,0,0,1-1.28-.61h0a2.21,2.21,0,0,0-2.61.52h-.05a2.43,2.43,0,0,1-1.67.43h-.07a2.06,2.06,0,0,1-1.47-.7h0c-1-.09-1.66-.69-1.54-1.35a.88.88,0,0,1,.1-.27h-.35a1.62,1.62,0,0,1-1.53-1,1.7,1.7,0,0,1-.45,0l-.28,0a.55.55,0,0,1,0,.22c-.1.54-.82.92-1.62.85h0a2.09,2.09,0,0,1-1.37.35h-.06a1.63,1.63,0,0,1-1.19-.57h0c-.8-.07-1.36-.56-1.26-1.1a.83.83,0,0,1,.08-.22,1.4,1.4,0,0,1-.29,0,2,2,0,0,1-.56-.14,1.61,1.61,0,0,1-.44,0l-.27,0a.5.5,0,0,1,0,.21c-.09.52-.79.89-1.56.82h0a1.91,1.91,0,0,1-1.31.33h-.06a1.59,1.59,0,0,1-1.14-.55h0c-.76-.07-1.3-.54-1.21-1.06a.9.9,0,0,1,.08-.21h-.28a1.85,1.85,0,0,1-.74-.24,1.62,1.62,0,0,1-.22,0h0a1.47,1.47,0,0,1-1,.25h0a1.23,1.23,0,0,1-.86-.4h0a1.37,1.37,0,0,1-.51-.14,1.34,1.34,0,0,1-1.24.49h0a1.61,1.61,0,0,1-1.12.29h0a1.35,1.35,0,0,1-1-.47h0l-.18,0a1.07,1.07,0,0,1-1,.43.58.58,0,0,1-.19,0,.38.38,0,0,1,0,.15c-.07.36-.56.61-1.09.57h0a1.35,1.35,0,0,1-.92.23h0a1.08,1.08,0,0,1-.8-.39h0c-.53,0-.9-.37-.84-.73a.47.47,0,0,1,.06-.15h-.19c-.47,0-.82-.3-.85-.6a1.1,1.1,0,0,1-.88-.85h0a.92.92,0,0,1-.51-.18,1.33,1.33,0,0,1-.73.15h0a1.35,1.35,0,0,1-.92.24h0a1.1,1.1,0,0,1-.79-.38h0c-.53,0-.91-.37-.84-.73a.88.88,0,0,1,.05-.15h-.19a.88.88,0,0,1-.81-.52,1,1,0,0,1-.68.16h0a.86.86,0,0,1-.63-.3h0c-.42,0-.72-.3-.66-.58a.56.56,0,0,1,0-.12h-.15c-.37,0-.64-.23-.67-.48a.84.84,0,0,1-.69-.67h0c-.36,0-.62-.26-.57-.5A.34.34,0,0,1,251,165c-10.55-1.54-17.62-2.94-19.91-3.38C292.92,164,336,169.1,336,169.1Z" style="opacity: 0.3; fill: url('#linear-gradient-44');"/><path class="cls-95" d="M158.11,51.56a22.53,22.53,0,1,1-12.72,29.22A22.53,22.53,0,0,1,158.11,51.56Z" style="opacity: 0.6; fill: url('#Névtelen_színátmenet_93');"/><path d="M 184.910002 72.610001 A 18.469999 18.469999 0 0 1 166.440002 91.08 A 18.469999 18.469999 0 0 1 147.970003 72.610001 A 18.469999 18.469999 0 0 1 166.440002 54.140001 A 18.469999 18.469999 0 0 1 184.910002 72.610001 Z" class="cls-4" style="fill: rgb(255, 255, 255);"/><g class="cls-96" style="opacity: 0.4; mix-blend-mode: multiply;"><path d="M 182.190004 60.029999 A 0.42 0.42 0 0 1 181.770004 60.449999 A 0.42 0.42 0 0 1 181.350004 60.029999 A 0.42 0.42 0 0 1 181.770004 59.609999 A 0.42 0.42 0 0 1 182.190004 60.029999 Z" class="cls-97" style="fill: rgb(180, 193, 191);"/><path d="M 173.580004 88.080002 A 0.42 0.42 0 0 1 173.160004 88.500002 A 0.42 0.42 0 0 1 172.740004 88.080002 A 0.42 0.42 0 0 1 173.160004 87.660002 A 0.42 0.42 0 0 1 173.580004 88.080002 Z" class="cls-97" style="fill: rgb(180, 193, 191);"/></g><path d="M 156.51 73.699997 A 2.51 2.51 0 0 1 154 76.209997 A 2.51 2.51 0 0 1 151.49 73.699997 A 2.51 2.51 0 0 1 154 71.189997 A 2.51 2.51 0 0 1 156.51 73.699997 Z" class="cls-98" style="opacity: 0.2; fill: rgb(142, 150, 156);"/><path d="M 160.480001 62.619999 A 2.51 2.51 0 0 1 157.970001 65.129999 A 2.51 2.51 0 0 1 155.460001 62.619999 A 2.51 2.51 0 0 1 157.970001 60.109999 A 2.51 2.51 0 0 1 160.480001 62.619999 Z" class="cls-98" style="opacity: 0.2; fill: rgb(142, 150, 156);"/><path d="M 166.060003 71.220001 A 1.26 1.26 0 0 1 164.800003 72.480001 A 1.26 1.26 0 0 1 163.540003 71.220001 A 1.26 1.26 0 0 1 164.800003 69.960001 A 1.26 1.26 0 0 1 166.060003 71.220001 Z" class="cls-98" style="opacity: 0.2; fill: rgb(142, 150, 156);"/><path class="cls-99" d="M129.92,72.71a36,36,0,1,0,36-35.9A36,36,0,0,0,129.92,72.71Z" style="fill: url('#Névtelen_színátmenet_74');"/><path d="M 79.589996 183.929993 H 79.889996 V 185.339993 H 79.589996 V 183.929993 Z" class="cls-100" style="fill: url('#Névtelen_színátmenet_96');"/><path class="cls-101" d="M79.77,164.39s-.06,0-.06,0a109.47,109.47,0,0,0-1.23,13.69c0,4.69.77,6.16,1.23,6.16h.05c.37,0,1.23-1,1.23-6.16A112,112,0,0,0,79.77,164.39Z" style="fill: url('#linear-gradient-45');"/><path class="cls-102" d="M77.34,186.93c-3.9,1.13-12.86,2.79-14.74,3.14h-.22a24.81,24.81,0,0,1,7.48-3,41.82,41.82,0,0,1,8.33-1.45l1.4-.26h.3l-.92.26C79.88,185.66,80.76,185.93,77.34,186.93Z" style="opacity: 0.4; fill: url('#linear-gradient-46');"/><path d="M 131.179993 191.639999 H 131.649993 V 193.849999 H 131.179993 V 191.639999 Z" class="cls-103" style="fill: url('#Névtelen_színátmenet_96-2');"/><path class="cls-104" d="M131.46,161.16a0,0,0,0,0-.09,0,171.4,171.4,0,0,0-1.91,21.34c0,7.32,1.2,9.62,1.91,9.62h.08c.59,0,1.92-1.53,1.92-9.62A171.4,171.4,0,0,0,131.46,161.16Z" style="fill: url('#linear-gradient-47');"/><path class="cls-105" d="M129.06,196.31c-4,1.77-13.06,4.35-15,4.9h-.23a22.47,22.47,0,0,1,7.6-4.71,30,30,0,0,1,8.45-2.26l1.42-.4h.31l-.93.39C131.64,194.33,132.53,194.75,129.06,196.31Z" style="opacity: 0.4; fill: url('#linear-gradient-48');"/><path d="M 90.139999 205.610001 H 90.999999 V 209.660001 H 90.139999 V 205.610001 Z" class="cls-106" style="fill: url('#Névtelen_színátmenet_96-3');"/><path class="cls-107" d="M90.65,149.64a.09.09,0,0,0-.17,0c-.56,4-3.5,24-3.5,39.19,0,13.43,2.19,17.66,3.51,17.66h.15c1.07,0,3.52-2.8,3.52-17.66C94.16,173.6,91.21,153.65,90.65,149.64Z" style="fill: url('#linear-gradient-49');"/><path class="cls-108" d="M87,213.3c-6.12,2.62-20.21,6.44-23.16,7.24a1.73,1.73,0,0,1-.35,0c.63-.66,4.31-4.07,11.76-7a48,48,0,0,1,13.09-3.34l1.47-.59H91l-1.44.59C91,210.38,92.37,211,87,213.3Z" style="opacity: 0.4; fill: url('#linear-gradient-50');"/><path d="M 199.399994 191.639999 H 199.869994 V 193.849999 H 199.399994 V 191.639999 Z" class="cls-109" transform="translate(399.26 385.49) rotate(180)" style="fill: url('#Névtelen_színátmenet_96-4');"/><path class="cls-110" d="M199.59,161.16s.08,0,.09,0c.3,2.18,1.9,13.05,1.9,21.34,0,7.32-1.19,9.62-1.91,9.62h-.08c-.58,0-1.91-1.53-1.91-9.62A171.4,171.4,0,0,1,199.59,161.16Z" style="fill: url('#linear-gradient-51');"/><path class="cls-111" d="M202,196.31c4,1.77,13.06,4.35,15,4.9h.22a22.22,22.22,0,0,0-7.6-4.71,30,30,0,0,0-8.45-2.26l-1.42-.4h-.3l.93.39C199.41,194.33,198.51,194.75,202,196.31Z" style="opacity: 0.4; fill: url('#linear-gradient-52');"/><path d="M 240.050003 205.610001 H 240.910003 V 209.660001 H 240.050003 V 205.610001 Z" class="cls-112" transform="translate(480.95 415.28) rotate(180)" style="fill: url('#Névtelen_színátmenet_96-5');"/><path class="cls-113" d="M240.39,149.64a.09.09,0,0,1,.17,0c.56,4,3.51,24,3.51,39.19,0,13.43-2.2,17.66-3.52,17.66h-.14c-1.07,0-3.52-2.8-3.52-17.66C236.89,173.6,239.83,153.65,240.39,149.64Z" style="fill: url('#linear-gradient-53');"/><path class="cls-114" d="M244.24,213.47c6.41,2.74,21.17,6.75,24.26,7.59a1.2,1.2,0,0,0,.36,0c-.65-.68-4.51-4.26-12.32-7.3a49.83,49.83,0,0,0-13.7-3.49l-1.54-.62h-1.25l1.5.61C240.06,210.41,238.61,211.06,244.24,213.47Z" style="opacity: 0.4; fill: url('#linear-gradient-54');"/><path d="M 51.919998 199.649994 H 52.589998 V 202.799994 H 51.919998 V 199.649994 Z" class="cls-115" style="fill: url('#Névtelen_színátmenet_96-6');"/><path class="cls-116" d="M52.32,156.15a.07.07,0,0,0-.13,0c-.43,3.12-2.72,18.63-2.72,30.46,0,10.44,1.71,13.72,2.73,13.72h.11c.84,0,2.74-2.18,2.74-13.72C55.05,174.78,52.76,159.27,52.32,156.15Z" style="fill: url('#linear-gradient-55');"/><path class="cls-117" d="M47.74,206.31c-7.42,2.33-24.5,5.74-28.08,6.45a1.63,1.63,0,0,1-.42,0c.76-.58,5.23-3.62,14.26-6.21a76.23,76.23,0,0,1,15.86-3l2.56-.8h.67l-1.74.81C52.57,203.7,54.25,204.26,47.74,206.31Z" style="opacity: 0.4; fill: url('#linear-gradient-56');"/><path d="M 164.460007 199.649994 H 165.130007 V 202.799994 H 164.460007 V 199.649994 Z" class="cls-118" style="fill: url('#Névtelen_színátmenet_96-7');"/><path class="cls-119" d="M164.86,156.15a.07.07,0,0,0-.13,0c-.44,3.12-2.72,18.63-2.72,30.46,0,10.44,1.7,13.72,2.73,13.72h.11c.83,0,2.74-2.18,2.74-13.72C167.59,174.78,165.3,159.27,164.86,156.15Z" style="fill: url('#linear-gradient-57');"/><path class="cls-120" d="M165.13,203.84v-1h-.67v1c-.91.18-2.45,1.32-2.45,5.55,0,4.82,2.28,11.14,2.72,12.41,0,0,.12,0,.13,0,.44-1.27,2.73-7.59,2.73-12.41C167.59,205.51,166.16,204.06,165.13,203.84Z" style="opacity: 0.4; fill: url('#linear-gradient-58');"/><path d="M 250.110001 183.929993 H 250.410001 V 185.339993 H 250.110001 V 183.929993 Z" class="cls-121" transform="translate(500.52 369.28) rotate(180)" style="fill: url('#Névtelen_színátmenet_96-8');"/><path class="cls-122" d="M250.23,164.39s.06,0,.06,0a110,110,0,0,1,1.22,13.69c0,4.69-.76,6.16-1.22,6.16h0c-.38,0-1.23-1-1.23-6.16A112,112,0,0,1,250.23,164.39Z" style="fill: url('#linear-gradient-59');"/><path class="cls-123" d="M252.66,186.93c3.89,1.13,12.86,2.79,14.74,3.14h.22a24.81,24.81,0,0,0-7.48-3,41.82,41.82,0,0,0-8.33-1.45l-1.4-.26h-.3l.92.26C250.12,185.66,249.24,185.93,252.66,186.93Z" style="opacity: 0.4; fill: url('#linear-gradient-60');"/><path d="M 277.399994 199.649994 H 278.069994 V 202.799994 H 277.399994 V 199.649994 Z" class="cls-124" transform="translate(555.48 402.45) rotate(180)" style="fill: url('#Névtelen_színátmenet_96-9');"/><path class="cls-125" d="M277.68,156.15a.06.06,0,0,1,.12,0c.44,3.12,2.73,18.63,2.73,30.46,0,10.44-1.71,13.72-2.73,13.72h-.12c-.83,0-2.73-2.18-2.73-13.72C275,174.78,277.24,159.27,277.68,156.15Z" style="fill: url('#linear-gradient-61');"/><path class="cls-126" d="M282.26,206.31c7.42,2.33,24.5,5.74,28.07,6.45a1.7,1.7,0,0,0,.43,0c-.76-.58-5.23-3.62-14.26-6.21a76.46,76.46,0,0,0-15.86-3l-2.56-.8h-.68l1.75.81C277.42,203.7,275.75,204.26,282.26,206.31Z" style="opacity: 0.4; fill: url('#linear-gradient-62');"/><path class="cls-127" d="M0,222.21H174.22S100.49,218.82,0,218.82H336v16.37H0Z" style="opacity: 0.3; fill: rgb(48, 17, 21);"/><g id="cloud-2" data-name="cloud" class="cls-3" style="opacity: 0.7;"><path class="cls-4" d="M121,112.24a4.27,4.27,0,0,0-1.6.32A2.72,2.72,0,0,0,117,111.1a3.1,3.1,0,0,0-.69.09,3.58,3.58,0,0,0-3.32-5h-.09a3,3,0,0,0-1.14-2,2.94,2.94,0,0,0-1.67-.62,3,3,0,1,0-6,.56,3,3,0,0,0-2.32-1.1,3,3,0,0,0-3,3c0,.09,0,.18,0,.26a5.3,5.3,0,0,0-.84.8,2.73,2.73,0,0,0-1.83-.73,3,3,0,0,0-.43,0,5.32,5.32,0,0,0-6.25-8.28,5.52,5.52,0,0,0-1.15.7,4.23,4.23,0,0,0-2.49.29A4.18,4.18,0,0,0,84,100.8a3,3,0,0,0-2-.83l.28-.42a4.46,4.46,0,0,0-7.94-2.62,4.71,4.71,0,0,0-.41-.35A4.47,4.47,0,0,0,67.1,102a4.49,4.49,0,0,0-.2,2.43,4.47,4.47,0,0,0-3.38,1A4.42,4.42,0,0,0,61.74,102a4.49,4.49,0,0,0-4.9-.31,4.49,4.49,0,0,0-.82-.41,3.73,3.73,0,0,0-.67-3,1.27,1.27,0,0,0,.1-.12,3.69,3.69,0,0,0,.73-2.57,4.18,4.18,0,0,0-.79-8.28,4,4,0,0,0-1.6.32,2.73,2.73,0,0,0-2.41-1.47,2.63,2.63,0,0,0-.7.1A3.45,3.45,0,0,0,51,84.92a3.6,3.6,0,0,0-3.61-3.61h-.08a3,3,0,0,0-2.81-2.62,3,3,0,0,0-5.37-1.75,3,3,0,0,0-.59,2.32,3,3,0,0,0-2.32-1.11,3,3,0,0,0-3,3,2.28,2.28,0,0,0,0,.26,5.34,5.34,0,0,0-.85.8,2.65,2.65,0,0,0-1.82-.74,2.2,2.2,0,0,0-.44,0,5.32,5.32,0,0,0-6.24-8.29,5.22,5.22,0,0,0-1.16.71,4.13,4.13,0,0,0-4.33,1.91,3,3,0,0,0-5.06,2.84,4.28,4.28,0,0,0-.38,1.78,2.73,2.73,0,0,0-1.66.83A2.65,2.65,0,0,0,9.71,81a2.65,2.65,0,0,0-2.36,3.6,3.53,3.53,0,0,0-.64.64,3.5,3.5,0,0,0-1.88-.57,6.48,6.48,0,0,0-1.19-6.18A5.31,5.31,0,0,0,0,76.2l0,39.44H125.12A4.18,4.18,0,0,0,121,112.24Z" style="fill: rgb(255, 255, 255);"/></g><path class="cls-4" d="M324.8,113.57a2.22,2.22,0,0,0-3.29-1.92,1.71,1.71,0,0,0-.4-.21,1.88,1.88,0,0,0-.31-1.49l.05-.06a1.82,1.82,0,0,0,.38-1.27,2.08,2.08,0,0,0-.32-4.12,2,2,0,0,0-.8.14,1.34,1.34,0,0,0-1.18-.75,2,2,0,0,0-.35,0,1.83,1.83,0,0,0,.16-.67,1.8,1.8,0,0,0-1.77-1.82h0a1.47,1.47,0,0,0-.55-1,1.51,1.51,0,0,0-.82-.33,1.49,1.49,0,1,0-3,.24,1.5,1.5,0,0,0-2.68.91s0,.09,0,.13a2.66,2.66,0,0,0-.43.39,1.35,1.35,0,0,0-.9-.38l-.21,0a2.64,2.64,0,0,0-1.25-4.26,2.53,2.53,0,0,0-2.47.42,2,2,0,0,0-2.07.93,1.47,1.47,0,0,0-2.33.3,2.33,2.33,0,0,0-.25-.07,2,2,0,0,0-.21-.88,1.5,1.5,0,0,0-2.53-1.37,2.08,2.08,0,0,0-.93-.8,2,2,0,0,0-1.24-.11,2.42,2.42,0,0,0-.58-.35,2.64,2.64,0,0,0-3,4.17l-.22,0a1.39,1.39,0,0,0-.9.38,2.66,2.66,0,0,0-.43-.39.28.28,0,0,0,0-.13,1.5,1.5,0,0,0-2.67-.91,1.48,1.48,0,0,0-.31-1.15,1.49,1.49,0,0,0-2.1-.23,1.46,1.46,0,0,0-.55,1.14,1.57,1.57,0,0,0-.83.33,1.49,1.49,0,0,0-.55,1h0a1.79,1.79,0,0,0-1.76,1.82,1.73,1.73,0,0,0,.15.68,1.27,1.27,0,0,0-.34,0,1.38,1.38,0,0,0-1.19.75,1.88,1.88,0,0,0-.79-.14,2.08,2.08,0,0,0-.33,4.12,1.87,1.87,0,0,0,.38,1.27l.05.06a1.84,1.84,0,0,0-.3,1.49,1.77,1.77,0,0,0-.41.21,2.21,2.21,0,0,0-3.28,1.92,2.21,2.21,0,0,0-1.69-.48,2.28,2.28,0,0,0-.12-1.21,2.22,2.22,0,0,0-3.4-2.64l-.2.18a2.21,2.21,0,0,0-3.06-.33,2.19,2.19,0,0,0-.86,1.7l.14.2a1.59,1.59,0,0,0-1,.43,2,2,0,0,0-.93-.79,2.13,2.13,0,0,0-1.24-.12,2.53,2.53,0,0,0-.58-.34,2.64,2.64,0,0,0-3,4.17l-.22,0a1.3,1.3,0,0,0-.9.38,2.21,2.21,0,0,0-.42-.39s0-.09,0-.13a1.5,1.5,0,0,0-2.68-.91,1.48,1.48,0,0,0-.31-1.15,1.49,1.49,0,0,0-2.65.91,1.5,1.5,0,0,0-.82.32,1.52,1.52,0,0,0-.56,1h0a1.61,1.61,0,0,0-1.76,1.6v0l43.38.06v0H325v-.57Z" style="fill: rgb(255, 255, 255);"/><path class="cls-81" d="M90.69,139.62a8.09,8.09,0,0,1-.67.7h0v0a.28.28,0,0,0-.29-.28h0a.3.3,0,0,0-.26.27s-.42-.09-1-.8a1.64,1.64,0,0,0-.41-.37,2.68,2.68,0,0,0-1.6-.57,9.67,9.67,0,0,1,.76.89c.1.15.21.31.33.51l.08.12h0a1.88,1.88,0,0,0,1,.59c.33.12.35.28.29.4a.66.66,0,0,1-.38.33s1.1.17,1.45-.51a1.72,1.72,0,0,0,1.43-.55l.14-.17v0l.08-.1c.67-1,.91-1.21,1-1.27A2.85,2.85,0,0,0,90.69,139.62Z" style="fill: rgb(99, 41, 119);"/><path class="cls-81" d="M98.88,138.18a9.43,9.43,0,0,1-.66.71h0a.28.28,0,0,0-.29-.28h0a.29.29,0,0,0-.26.26s-.42-.08-1-.79a1.48,1.48,0,0,0-.41-.37,2.68,2.68,0,0,0-1.6-.57,8.32,8.32,0,0,1,.76.89c.1.15.21.31.33.51l.08.12h0a1.82,1.82,0,0,0,1,.6c.33.12.35.28.3.4a.71.71,0,0,1-.39.32s1.1.18,1.46-.51a1.67,1.67,0,0,0,1.42-.54l.14-.18h0a.76.76,0,0,0,.08-.11c.67-1,.91-1.21,1-1.27A2.87,2.87,0,0,0,98.88,138.18Z" style="fill: rgb(99, 41, 119);"/><path class="cls-81" d="M111.94,133.83a9.43,9.43,0,0,1-.66.71h0v0a.29.29,0,0,0-.29-.28h0a.26.26,0,0,0-.25.26s-.43-.09-1-.8a1.92,1.92,0,0,0-.42-.37,2.7,2.7,0,0,0-1.6-.56,8.32,8.32,0,0,1,.76.89q.15.21.33.51l.08.11h0a1.82,1.82,0,0,0,1,.59c.32.13.34.29.29.41a.64.64,0,0,1-.39.32s1.1.18,1.46-.51a1.69,1.69,0,0,0,1.42-.55l.15-.17v0a.86.86,0,0,0,.07-.1c.67-1,.91-1.21,1-1.27A2.88,2.88,0,0,0,111.94,133.83Z" style="fill: rgb(99, 41, 119);"/><path class="cls-81" d="M189.33,97.46a8,8,0,0,1-.67.71h0a.29.29,0,0,0-.29-.29h0a.28.28,0,0,0-.26.26s-.42-.08-.95-.79a1.47,1.47,0,0,0-.41-.37,2.68,2.68,0,0,0-1.6-.57,8.32,8.32,0,0,1,.76.89c.1.15.21.31.33.51l.08.11h0a1.76,1.76,0,0,0,1,.59c.33.13.35.29.29.41a.65.65,0,0,1-.38.32s1.1.18,1.45-.51a1.68,1.68,0,0,0,1.43-.55l.14-.17v0l.08-.1c.67-1,.91-1.21,1-1.27A2.87,2.87,0,0,0,189.33,97.46Z" style="fill: rgb(99, 41, 119);"/><path class="cls-81" d="M130.38,129.15a9.43,9.43,0,0,1-.66.71h0a.28.28,0,0,0-.29-.28h0a.27.27,0,0,0-.25.26s-.43-.08-.95-.79a1.69,1.69,0,0,0-.42-.37,2.68,2.68,0,0,0-1.6-.57,8.32,8.32,0,0,1,.76.89c.1.15.21.31.33.51l.08.12h0a1.86,1.86,0,0,0,1,.6c.32.12.34.28.29.4a.64.64,0,0,1-.39.32s1.1.18,1.46-.51a1.66,1.66,0,0,0,1.42-.55,2,2,0,0,0,.15-.17h0l.07-.11c.67-1,.91-1.21,1-1.27A2.88,2.88,0,0,0,130.38,129.15Z" style="fill: rgb(99, 41, 119);"/><path class="cls-81" d="M174.89,123.82a9.43,9.43,0,0,1-.66.71h0v0a.29.29,0,0,0-.29-.28h0a.26.26,0,0,0-.25.26s-.43-.09-.95-.8a1.92,1.92,0,0,0-.42-.37,2.7,2.7,0,0,0-1.6-.56,8.32,8.32,0,0,1,.76.89q.15.21.33.51l.08.11h0a1.82,1.82,0,0,0,1,.59c.32.13.34.29.29.41a.67.67,0,0,1-.39.32s1.1.18,1.46-.51a1.69,1.69,0,0,0,1.42-.55l.14-.17,0,0a.86.86,0,0,0,.07-.1c.67-1,.91-1.21,1-1.27A2.88,2.88,0,0,0,174.89,123.82Z" style="fill: rgb(99, 41, 119);"/><path class="cls-81" d="M137.56,123.82a8,8,0,0,1-.67.71s0,0,0,0v0a.29.29,0,0,0-.29-.28h0a.28.28,0,0,0-.26.26s-.42-.09-1-.8a1.85,1.85,0,0,0-.41-.37,2.7,2.7,0,0,0-1.6-.56,8.32,8.32,0,0,1,.76.89q.15.21.33.51l.08.11h0a1.82,1.82,0,0,0,1,.59c.33.13.35.29.29.41a.65.65,0,0,1-.38.32s1.1.18,1.45-.51a1.72,1.72,0,0,0,1.43-.55l.14-.17v0l.08-.1c.67-1,.91-1.21,1-1.27A2.87,2.87,0,0,0,137.56,123.82Z" style="fill: rgb(99, 41, 119);"/><path class="cls-81" d="M154.91,126.29a9.55,9.55,0,0,1-.66.7h0v0a.29.29,0,0,0-.29-.28h0a.26.26,0,0,0-.25.26s-.43-.09-1-.8a1.48,1.48,0,0,0-.41-.37,2.68,2.68,0,0,0-1.6-.57,9.67,9.67,0,0,1,.76.89c.1.15.21.31.33.51l.08.12h0a1.88,1.88,0,0,0,1,.59c.32.12.34.28.29.4a.65.65,0,0,1-.39.33s1.1.17,1.46-.51a1.7,1.7,0,0,0,1.42-.55l.14-.17,0,0,.07-.1c.67-1,.91-1.21,1-1.27A2.87,2.87,0,0,0,154.91,126.29Z" style="fill: rgb(99, 41, 119);"/><path class="cls-81" d="M117.43,127.72a9.43,9.43,0,0,1-.66.71h0v0a.28.28,0,0,0-.28-.28h0a.28.28,0,0,0-.26.26s-.42-.09-1-.8a1.85,1.85,0,0,0-.41-.37,2.7,2.7,0,0,0-1.6-.56,8.32,8.32,0,0,1,.76.89c.1.14.2.31.32.51l.09.11h0a1.82,1.82,0,0,0,1,.59c.33.13.34.29.29.41a.65.65,0,0,1-.38.32s1.1.18,1.45-.51a1.69,1.69,0,0,0,1.42-.55l.15-.17v0l.08-.1c.67-1,.91-1.21,1-1.27A2.88,2.88,0,0,0,117.43,127.72Z" style="fill: rgb(99, 41, 119);"/><path class="cls-81" d="M104.12,132.4a9.55,9.55,0,0,1-.66.7h0v0a.28.28,0,0,0-.28-.28h0a.28.28,0,0,0-.26.26s-.42-.09-1-.8a1.64,1.64,0,0,0-.41-.37,2.68,2.68,0,0,0-1.6-.57,9.67,9.67,0,0,1,.76.89l.32.51a1,1,0,0,0,.09.12h0a2,2,0,0,0,1,.59c.33.12.34.28.29.4a.63.63,0,0,1-.38.33s1.1.17,1.45-.51a1.69,1.69,0,0,0,1.42-.55L105,133v0l.08-.1c.67-1,.91-1.21,1-1.27A2.88,2.88,0,0,0,104.12,132.4Z" style="fill: rgb(99, 41, 119);"/></g></svg>