<svg xmlns="http://www.w3.org/2000/svg" id="master-artboard" width="1400" height="980" x="0" y="0" version="1.1" viewBox="0 0 1400 980" style="enable-background:new 0 0 1400 980"><linearGradient id="SVGID_1_" x1="1564.05" x2="162.916" y1="1176.43" y2="63.322" gradientUnits="userSpaceOnUse"><stop offset="0" style="stop-color:#d94e9c"/><stop offset=".498" style="stop-color:#521663"/><stop offset=".988" style="stop-color:#00002d"/></linearGradient><path d="M 0 0 H 1400 V 980 H 0 V 0 Z" class="st0" style="fill:url(#SVGID_1_)"/><linearGradient id="SVGID_2_" x1="283.159" x2="1642.295" y1="338.7" y2="905.757" gradientUnits="userSpaceOnUse"><stop offset="0" style="stop-color:#d94e9c"/><stop offset=".498" style="stop-color:#521663"/><stop offset=".988" style="stop-color:#00002d"/></linearGradient><path d="M1400,432.8c-192.4,259.4-465.6,375.1-465.6,375.1C1227.2,573.5,1281.5,154.4,1291.6,0h-21.1	c-208.1,486.5-729.7,777.3-729.7,777.3C834.8,557.6,779,162.8,779,162.8C555.2,573.8,81.8,715.5,81.8,715.5	c261-143.3,307.7-494.6,307.7-494.6C277.3,351.6,123.1,416.1,0,448v532h1400V432.8z" class="st1" style="fill:url(#SVGID_2_)"/><linearGradient id="SVGID_3_" x1="1244.316" x2="943.812" y1="722.333" y2="483.603" gradientUnits="userSpaceOnUse"><stop offset="0" style="stop-color:#f389b8"/><stop offset=".988" style="stop-color:#ec0083"/></linearGradient><path d="M1400,0h-32.1C1274,154,882,772.6,503.7,980h21.5C730.9,899.1,1160,707.8,1400,439.9V0z" class="st2" style="fill:url(#SVGID_3_)"/><linearGradient id="SVGID_4_" x1="1274.157" x2="760.369" y1="880.662" y2="472.491" gradientUnits="userSpaceOnUse"><stop offset="0" style="stop-color:#f389b8"/><stop offset=".988" style="stop-color:#ec0083"/></linearGradient><path d="M1400,574.5V90.7C1268.2,269.5,801.5,857.4,279,980h346C625,980,1180.4,817.4,1400,574.5z" class="st3" style="fill:url(#SVGID_4_)"/><linearGradient id="SVGID_5_" x1="777.309" x2="1223.311" y1="336.457" y2="862.458" gradientUnits="userSpaceOnUse"><stop offset="0" style="stop-color:#ae8bc0"/><stop offset="1" style="stop-color:#1e1760"/></linearGradient><path d="M1400,152.3V0h-125c0,0-196,663-860,980C415,980,998.3,802.8,1400,152.3z" class="st4" style="fill:url(#SVGID_5_)"/><linearGradient id="SVGID_6_" x1="755.138" x2="1648.668" y1="565.837" y2="1619.641" gradientUnits="userSpaceOnUse"><stop offset="0" style="stop-color:#f389b8"/><stop offset=".988" style="stop-color:#ec0083"/></linearGradient><path d="M1400,574.5c0,0-337.1,304.6-931.2,405.5H1400V574.5z" class="st5" style="fill:url(#SVGID_6_)"/><defs><filter id="Adobe_OpacityMaskFilter" width="720.3" height="635" x="455" y="0" filterUnits="userSpaceOnUse"><feFlood style="flood-color:white;flood-opacity:1" result="back"/><feBlend in="SourceGraphic" in2="back" mode="normal"/></filter></defs><mask id="SVGID_7_" width="720.3" height="635" x="455" y="0" maskUnits="userSpaceOnUse"><g class="st6" style="filter:url(#Adobe_OpacityMaskFilter)"><defs><filter id="Adobe_OpacityMaskFilter_1_" width="720.3" height="635" x="455" y="0" filterUnits="userSpaceOnUse"><feFlood style="flood-color:white;flood-opacity:1" result="back"/><feBlend in="SourceGraphic" in2="back" mode="normal"/></filter></defs><linearGradient id="SVGID_8_" x1="929.193" x2="699.194" y1="369.072" y2="265.072" gradientUnits="userSpaceOnUse"><stop offset="0" style="stop-color:#fff"/><stop offset=".864" style="stop-color:#000"/></linearGradient><path d="M819.8,0c-2.4,6.7-4.6,13.7-6.8,21c-92,312-358,614-358,614C836.4,439.1,1112.2,85.5,1175.3,0H819.8z" class="st8" style="mask:url(#SVGID_7_);fill:url(#SVGID_8_)"/></g></mask><linearGradient id="SVGID_9_" x1="929.193" x2="699.194" y1="369.072" y2="265.072" gradientUnits="userSpaceOnUse"><stop offset="0" style="stop-color:#8b2890"/><stop offset=".864" style="stop-color:#1e1760"/></linearGradient><path d="M819.8,0c-2.4,6.7-4.6,13.7-6.8,21c-92,312-358,614-358,614C836.4,439.1,1112.2,85.5,1175.3,0H819.8z" class="st9" style="fill:url(#SVGID_9_)"/><defs><filter id="Adobe_OpacityMaskFilter_2_" width="700" height="638" x="0" y="211" filterUnits="userSpaceOnUse"><feFlood style="flood-color:white;flood-opacity:1" result="back"/><feBlend in="SourceGraphic" in2="back" mode="normal"/></filter></defs><mask id="SVGID_10_" width="700" height="638" x="0" y="211" maskUnits="userSpaceOnUse"><g class="st10" style="filter:url(#Adobe_OpacityMaskFilter_2_)"><defs><filter id="Adobe_OpacityMaskFilter_3_" width="700" height="638" x="0" y="211" filterUnits="userSpaceOnUse"><feFlood style="flood-color:white;flood-opacity:1" result="back"/><feBlend in="SourceGraphic" in2="back" mode="normal"/></filter></defs><linearGradient id="SVGID_11_" x1="219.6" x2="399.601" y1="335.849" y2="603.85" gradientUnits="userSpaceOnUse"><stop offset="0" style="stop-color:#fff"/><stop offset=".864" style="stop-color:#000"/></linearGradient><path d="M0,635c0,0,465-148,700-424c0,0-259,494-700,638V635z" class="st12" style="mask:url(#SVGID_10_);fill:url(#SVGID_11_)"/></g></mask><linearGradient id="SVGID_12_" x1="219.6" x2="399.601" y1="335.849" y2="603.85" gradientUnits="userSpaceOnUse"><stop offset="0" style="stop-color:#67a4d9"/><stop offset=".864" style="stop-color:#00ade0"/></linearGradient><path d="M0,635c0,0,465-148,700-424c0,0-259,494-700,638V635z" class="st13" style="fill:url(#SVGID_12_)"/><defs><filter id="Adobe_OpacityMaskFilter_4_" width="779" height="949" x="0" y="0" filterUnits="userSpaceOnUse"><feFlood style="flood-color:white;flood-opacity:1" result="back"/><feBlend in="SourceGraphic" in2="back" mode="normal"/></filter></defs><mask id="SVGID_13_" width="779" height="949" x="0" y="0" maskUnits="userSpaceOnUse"><g class="st14" style="filter:url(#Adobe_OpacityMaskFilter_4_)"><defs><filter id="Adobe_OpacityMaskFilter_5_" width="779" height="949" x="0" y="0" filterUnits="userSpaceOnUse"><feFlood style="flood-color:white;flood-opacity:1" result="back"/><feBlend in="SourceGraphic" in2="back" mode="normal"/></filter></defs><linearGradient id="SVGID_14_" x1="173.061" x2="411.061" y1="154.389" y2="506.389" gradientUnits="userSpaceOnUse"><stop offset="0" style="stop-color:#fff"/><stop offset=".864" style="stop-color:#000"/></linearGradient><path d="M723,0c0,0-206,365-723,479v470c0,0,671-84,779-949H723z" class="st16" style="mask:url(#SVGID_13_);fill:url(#SVGID_14_)"/></g></mask><linearGradient id="SVGID_15_" x1="173.061" x2="411.061" y1="154.389" y2="506.389" gradientUnits="userSpaceOnUse"><stop offset="0" style="stop-color:#a8228e"/><stop offset=".864" style="stop-color:#938eb8"/></linearGradient><path d="M723,0c0,0-206,365-723,479v470c0,0,671-84,779-949H723z" class="st17" style="fill:url(#SVGID_15_)"/><defs><filter id="Adobe_OpacityMaskFilter_6_" width="279" height="261.6" x="0" y="0" filterUnits="userSpaceOnUse"><feFlood style="flood-color:white;flood-opacity:1" result="back"/><feBlend in="SourceGraphic" in2="back" mode="normal"/></filter></defs><mask id="SVGID_16_" width="279" height="261.6" x="0" y="0" maskUnits="userSpaceOnUse"><g class="st18" style="filter:url(#Adobe_OpacityMaskFilter_6_)"><defs><filter id="Adobe_OpacityMaskFilter_7_" width="279" height="261.6" x="0" y="0" filterUnits="userSpaceOnUse"><feFlood style="flood-color:white;flood-opacity:1" result="back"/><feBlend in="SourceGraphic" in2="back" mode="normal"/></filter></defs><linearGradient id="SVGID_17_" x1="9.449" x2="169.467" y1="9.901" y2="158.651" gradientUnits="userSpaceOnUse"><stop offset="0" style="stop-color:#fff"/><stop offset=".864" style="stop-color:#000"/></linearGradient><path d="M0,0h279c0,0-108.3,200.7-279,261.6V0z" class="st20" style="mask:url(#SVGID_16_);fill:url(#SVGID_17_)"/></g></mask><linearGradient id="SVGID_18_" x1="9.449" x2="169.467" y1="9.901" y2="158.651" gradientUnits="userSpaceOnUse"><stop offset="0" style="stop-color:#67a4d9"/><stop offset=".864" style="stop-color:#00ade0"/></linearGradient><path d="M0,0h279c0,0-108.3,200.7-279,261.6V0z" class="st21" style="fill:url(#SVGID_18_)"/><defs><filter id="Adobe_OpacityMaskFilter_8_" width="615.8" height="441.9" x="0" y="0" filterUnits="userSpaceOnUse"><feFlood style="flood-color:white;flood-opacity:1" result="back"/><feBlend in="SourceGraphic" in2="back" mode="normal"/></filter></defs><mask id="SVGID_19_" width="615.8" height="441.9" x="0" y="0" maskUnits="userSpaceOnUse"><g class="st22" style="filter:url(#Adobe_OpacityMaskFilter_8_)"><defs><filter id="Adobe_OpacityMaskFilter_9_" width="615.8" height="441.9" x="0" y="0" filterUnits="userSpaceOnUse"><feFlood style="flood-color:white;flood-opacity:1" result="back"/><feBlend in="SourceGraphic" in2="back" mode="normal"/></filter></defs><linearGradient id="SVGID_20_" x1="212.738" x2="298.381" y1="128.272" y2="211.661" gradientUnits="userSpaceOnUse"><stop offset="0" style="stop-color:#fff"/><stop offset=".864" style="stop-color:#000"/></linearGradient><path d="M307.9,0h307.9C455.8,283.8,0,441.9,0,441.9v-47.3C182,279.6,318.3,0,318.3,0" class="st24" style="mask:url(#SVGID_19_);fill:url(#SVGID_20_)"/></g></mask><linearGradient id="SVGID_21_" x1="212.738" x2="298.381" y1="128.272" y2="211.661" gradientUnits="userSpaceOnUse"><stop offset="0" style="stop-color:#8b2890"/><stop offset=".864" style="stop-color:#1e1760"/></linearGradient><path d="M307.9,0h307.9C455.8,283.8,0,441.9,0,441.9v-47.3C182,279.6,318.3,0,318.3,0" class="st25" style="fill:url(#SVGID_21_)"/><path d="M827.6,0c0,0-102.7,389.9-827.6,635" class="st26" style="fill:none;stroke:#00c2f3;stroke-miterlimit:10"/><path d="M1275,0c0,0-205.2,767.9-996,980" class="st26" style="fill:none;stroke:#00c2f3;stroke-miterlimit:10"/><path d="M0,394.6C0,394.6,153.3,314,318.3,0" class="st27" style="fill:none;stroke:#ee3d96;stroke-miterlimit:10"/><path d="M723,0c0,0-220.2,377.9-723,479" class="st27" style="fill:none;stroke:#ee3d96;stroke-miterlimit:10"/><g><defs><filter id="Adobe_OpacityMaskFilter_10_" width="720.9" height="640.8" x="454.8" y="-.3" filterUnits="userSpaceOnUse"><feFlood style="flood-color:white;flood-opacity:1" result="back"/><feBlend in="SourceGraphic" in2="back" mode="normal"/></filter></defs><mask id="SVGID_22_" width="720.9" height="640.8" x="454.8" y="-.3" maskUnits="userSpaceOnUse"><g class="st28" style="filter:url(#Adobe_OpacityMaskFilter_10_)"><defs><filter id="Adobe_OpacityMaskFilter_11_" width="720.9" height="640.8" x="454.8" y="-.3" filterUnits="userSpaceOnUse"><feFlood style="flood-color:white;flood-opacity:1" result="back"/><feBlend in="SourceGraphic" in2="back" mode="normal"/></filter></defs><linearGradient id="SVGID_23_" x1="1002.734" x2="594.754" y1="160.854" y2="555.333" gradientUnits="userSpaceOnUse"><stop offset=".181" style="stop-color:#fff"/><stop offset=".584" style="stop-color:#000"/></linearGradient><path d="M455.2,640.5l-0.4-0.9C641.1,556,827,386.4,950.1,259C1083.5,120.8,1174,0.9,1174.9-0.3l0.8,0.6 c-0.9,1.2-91.4,121.1-224.9,259.3c-78.4,81.2-156,152.7-230.7,212.5C626.7,546.9,537.6,603.6,455.2,640.5z" class="st30" style="mask:url(#SVGID_22_);fill:url(#SVGID_23_)"/></g></mask><linearGradient id="SVGID_24_" x1="1002.734" x2="594.754" y1="160.854" y2="555.333" gradientUnits="userSpaceOnUse"><stop offset=".181" style="stop-color:#ee3d96"/><stop offset=".584" style="stop-color:#ee3d96"/></linearGradient><path d="M455.2,640.5l-0.4-0.9C641.1,556,827,386.4,950.1,259C1083.5,120.8,1174,0.9,1174.9-0.3l0.8,0.6 c-0.9,1.2-91.4,121.1-224.9,259.3c-78.4,81.2-156,152.7-230.7,212.5C626.7,546.9,537.6,603.6,455.2,640.5z" class="st31" style="fill:url(#SVGID_24_)"/></g><g><defs><filter id="Adobe_OpacityMaskFilter_12_" width="895.1" height="547.9" x="503.5" y="441.6" filterUnits="userSpaceOnUse"><feFlood style="flood-color:white;flood-opacity:1" result="back"/><feBlend in="SourceGraphic" in2="back" mode="normal"/></filter></defs><mask id="SVGID_25_" width="895.1" height="547.9" x="503.5" y="441.6" maskUnits="userSpaceOnUse"><g class="st32" style="filter:url(#Adobe_OpacityMaskFilter_12_)"><defs><filter id="Adobe_OpacityMaskFilter_13_" width="895.1" height="547.9" x="503.5" y="441.6" filterUnits="userSpaceOnUse"><feFlood style="flood-color:white;flood-opacity:1" result="back"/><feBlend in="SourceGraphic" in2="back" mode="normal"/></filter></defs><linearGradient id="SVGID_26_" x1="1319.603" x2="583.723" y1="360.481" y2="1072.011" gradientUnits="userSpaceOnUse"><stop offset=".181" style="stop-color:#fff"/><stop offset=".584" style="stop-color:#000"/></linearGradient><path d="M503.9,989.5l-0.4-0.9c333-129.1,558.4-271,688.9-367.2c141.4-104.3,204.8-179,205.4-179.8l0.8,0.6 c-0.6,0.7-64.1,75.5-205.6,179.9c-83.1,61.3-176.4,120.6-277.3,176.4C789.5,868.2,651,932.4,503.9,989.5z" class="st34" style="mask:url(#SVGID_25_);fill:url(#SVGID_26_)"/></g></mask><linearGradient id="SVGID_27_" x1="1319.603" x2="583.723" y1="360.481" y2="1072.011" gradientUnits="userSpaceOnUse"><stop offset=".181" style="stop-color:#ee3d96"/><stop offset=".584" style="stop-color:#ee3d96"/></linearGradient><path d="M503.9,989.5l-0.4-0.9c333-129.1,558.4-271,688.9-367.2c141.4-104.3,204.8-179,205.4-179.8l0.8,0.6 c-0.6,0.7-64.1,75.5-205.6,179.9c-83.1,61.3-176.4,120.6-277.3,176.4C789.5,868.2,651,932.4,503.9,989.5z" class="st35" style="fill:url(#SVGID_27_)"/></g></svg>