<?xml version="1.0" encoding="utf-8"?>
<svg id="master-artboard" viewBox="0 0 1400 980" version="1.1" xmlns="http://www.w3.org/2000/svg" x="0px" y="0px" style="enable-background:new 0 0 1400 980;" width="1400px" height="980px">

<linearGradient id="SVGID_1_" gradientUnits="userSpaceOnUse" x1="246.1468" y1="1041.0677" x2="214.1468" y2="815.0677">
		<stop offset="0" style="stop-color:#FFD63C"/>
		<stop offset="0.25" style="stop-color:#F4E33B"/>
		<stop offset="1" style="stop-color:#D59337"/>
	</linearGradient><path d="M 475 980 L 0 980 L 258.8999938964844 788.0999755859375 Z" class="st0" style="fill: url('#SVGID_1_');" transform="matrix(1, 0, 0, 1, 2.842170943040401e-14, 7.105427357601002e-15)"/><linearGradient id="SVGID_2_" gradientUnits="userSpaceOnUse" x1="174.5883" y1="-5.1823" x2="208.5883" y2="422.8177">
		<stop offset="0" style="stop-color:#FFD63C"/>
		<stop offset="0.25" style="stop-color:#F4E33B"/>
		<stop offset="1" style="stop-color:#D59337"/>
	</linearGradient><path d="M 350 0 L 315.29998779296875 416.70001220703125 L 0 0 Z" class="st1" style="fill: url('#SVGID_2_');" transform="matrix(1, 0, 0, 1, 2.842170943040401e-14, 7.105427357601002e-15)"/><linearGradient id="SVGID_3_" gradientUnits="userSpaceOnUse" x1="643.1912" y1="1087.2012" x2="837.1912" y2="843.2012">
		<stop offset="0" style="stop-color:#FFD63C"/>
		<stop offset="0.25" style="stop-color:#F4E33B"/>
		<stop offset="1" style="stop-color:#D59337"/>
	</linearGradient><path d="M 981.7999877929688 980 L 475 980 L 682 771.5999755859375 Z" class="st2" style="fill: url('#SVGID_3_');" transform="matrix(1, 0, 0, 1, 2.842170943040401e-14, 7.105427357601002e-15)"/><linearGradient id="SVGID_4_" gradientUnits="userSpaceOnUse" x1="599.1725" y1="244.0122" x2="395.1725" y2="14.0122">
		<stop offset="0" style="stop-color:#FFD63C"/>
		<stop offset="0.25" style="stop-color:#F4E33B"/>
		<stop offset="1" style="stop-color:#D59337"/>
	</linearGradient><path d="M 819.7999877929688 0 L 315.29998779296875 416.70001220703125 L 315.29998779296875 416.70001220703125 L 350 0 Z" class="st3" style="fill: url('#SVGID_4_');" transform="matrix(1, 0, 0, 1, 2.842170943040401e-14, 7.105427357601002e-15)"/><linearGradient id="SVGID_5_" gradientUnits="userSpaceOnUse" x1="1172.4611" y1="457.3255" x2="872.4311" y2="-16.7219">
		<stop offset="0" style="stop-color:#FFD63C"/>
		<stop offset="0.25" style="stop-color:#F4E33B"/>
		<stop offset="1" style="stop-color:#D59337"/>
	</linearGradient><path d="M 1149.9000244140625 0 L 891.7999877929688 435.6000061035156 L 819.7999877929688 0 Z" class="st4" style="fill: url('#SVGID_5_');" transform="matrix(1, 0, 0, 1, 2.842170943040401e-14, 7.105427357601002e-15)"/><linearGradient id="SVGID_6_" gradientUnits="userSpaceOnUse" x1="1276.0876" y1="225.5045" x2="1549.115" y2="831.5651">
		<stop offset="0" style="stop-color:#FFD63C"/>
		<stop offset="0.25" style="stop-color:#F4E33B"/>
		<stop offset="1" style="stop-color:#D59337"/>
	</linearGradient><path d="M 1400 0 L 1400 980 L 1180.5999755859375 514.0999755859375 L 1180.5999755859375 514.0999755859375 Z" class="st5" style="fill: url('#SVGID_6_');" transform="matrix(1, 0, 0, 1, 2.842170943040401e-14, 7.105427357601002e-15)"/><linearGradient id="SVGID_7_" gradientUnits="userSpaceOnUse" x1="1210.535" y1="1062.7979" x2="1102.5242" y2="606.7523">
		<stop offset="0" style="stop-color:#FFD63C"/>
		<stop offset="0.25" style="stop-color:#F4E33B"/>
		<stop offset="1" style="stop-color:#D59337"/>
	</linearGradient><path d="M 1400 980 L 981.7999877929688 980 L 1180.5999755859375 514.0999755859375 Z" class="st6" style="fill: url('#SVGID_7_');" transform="matrix(1, 0, 0, 1, 2.842170943040401e-14, 7.105427357601002e-15)"/><linearGradient id="SVGID_8_" gradientUnits="userSpaceOnUse" x1="245.2119" y1="540.5355" x2="59.2119" y2="326.5355">
		<stop offset="0" style="stop-color:#FFD63C"/>
		<stop offset="0.25" style="stop-color:#F4E33B"/>
		<stop offset="1" style="stop-color:#D59337"/>
	</linearGradient><path d="M 315.29998779296875 416.70001220703125 L 315.29998779296875 416.70001220703125 L 0 516.7999877929688 L 0 0 Z" class="st7" style="fill: url('#SVGID_8_');" transform="matrix(1, 0, 0, 1, 2.842170943040401e-14, 7.105427357601002e-15)"/><linearGradient id="SVGID_9_" gradientUnits="userSpaceOnUse" x1="485.1298" y1="437.7678" x2="255.1298" y2="653.7678">
		<stop offset="0" style="stop-color:#FFD63C"/>
		<stop offset="0.25" style="stop-color:#F4E33B"/>
		<stop offset="1" style="stop-color:#D59337"/>
	</linearGradient><path d="M 475 627.7999877929688 L 258.8999938964844 788.0999755859375 L 315.29998779296875 416.70001220703125 Z" class="st8" style="fill: url('#SVGID_9_');" transform="matrix(1, 0, 0, 1, 2.842170943040401e-14, 7.105427357601002e-15)"/><linearGradient id="SVGID_10_" gradientUnits="userSpaceOnUse" x1="1103.3435" y1="72.2542" x2="455.2787" y2="453.2923">
		<stop offset="0" style="stop-color:#FFD63C"/>
		<stop offset="1" style="stop-color:#D59337"/>
	</linearGradient><path d="M 891.7999877929688 435.6000061035156 L 475 627.7999877929688 L 819.7999877929688 0 Z" class="st9" style="fill: url('#SVGID_10_');" transform="matrix(1, 0, 0, 1, 2.842170943040401e-14, 7.105427357601002e-15)"/><linearGradient id="SVGID_11_" gradientUnits="userSpaceOnUse" x1="295.5621" y1="788.6412" x2="-34.4379" y2="572.6412">
		<stop offset="0" style="stop-color:#FFD63C"/>
		<stop offset="0.25" style="stop-color:#F4E33B"/>
		<stop offset="1" style="stop-color:#D59337"/>
	</linearGradient><path d="M 315.29998779296875 416.70001220703125 L 258.8999938964844 788.0999755859375 L 0 980 L 0 516.7999877929688 Z" class="st10" style="fill: url('#SVGID_11_');" transform="matrix(1, 0, 0, 1, 2.842170943040401e-14, 7.105427357601002e-15)"/><linearGradient id="SVGID_12_" gradientUnits="userSpaceOnUse" x1="492.7409" y1="560.7925" x2="459.7376" y2="884.825">
		<stop offset="0" style="stop-color:#FFD63C"/>
		<stop offset="0.25" style="stop-color:#F4E33B"/>
		<stop offset="1" style="stop-color:#D59337"/>
	</linearGradient><path d="M 682 771.5999755859375 L 475 980 L 258.8999938964844 788.0999755859375 L 475 627.7999877929688 Z" class="st11" style="fill: url('#SVGID_12_');" transform="matrix(1, 0, 0, 1, 2.842170943040401e-14, 7.105427357601002e-15)"/><linearGradient id="SVGID_13_" gradientUnits="userSpaceOnUse" x1="315.28" y1="313.915" x2="819.83" y2="313.915">
		<stop offset="0" style="stop-color:#FFD63C"/>
		<stop offset="0.25" style="stop-color:#F4E33B"/>
		<stop offset="1" style="stop-color:#D59337"/>
	</linearGradient><path d="M 819.7999877929688 0 L 475 627.7999877929688 L 315.29998779296875 416.70001220703125 Z" class="st12" style="fill: url('#SVGID_13_');" transform="matrix(1, 0, 0, 1, 2.842170943040401e-14, 7.105427357601002e-15)"/><linearGradient id="SVGID_14_" gradientUnits="userSpaceOnUse" x1="584.9443" y1="884.9606" x2="1062.9442" y2="614.9606">
		<stop offset="0" style="stop-color:#FFD63C"/>
		<stop offset="0.25" style="stop-color:#F4E33B"/>
		<stop offset="1" style="stop-color:#D59337"/>
	</linearGradient><path d="M 981.7999877929688 980 L 682 771.5999755859375 L 475 627.7999877929688 L 891.7999877929688 435.6000061035156 Z" class="st13" style="fill: url('#SVGID_14_');" transform="matrix(1, 0, 0, 1, 2.842170943040401e-14, 7.105427357601002e-15)"/><linearGradient id="SVGID_15_" gradientUnits="userSpaceOnUse" x1="1337.4314" y1="-81.8984" x2="989.3966" y2="374.1472">
		<stop offset="0" style="stop-color:#FFD63C"/>
		<stop offset="0.25" style="stop-color:#F4E33B"/>
		<stop offset="1" style="stop-color:#D59337"/>
	</linearGradient><path d="M 1400 0 L 891.7999877929688 435.6000061035156 L 1149.9000244140625 0 Z" class="st14" style="fill: url('#SVGID_15_');" transform="matrix(1, 0, 0, 1, 2.842170943040401e-14, 7.105427357601002e-15)"/><linearGradient id="SVGID_16_" gradientUnits="userSpaceOnUse" x1="794.2004" y1="444.5157" x2="1265.2474" y2="498.5211">
		<stop offset="0" style="stop-color:#FFD63C"/>
		<stop offset="0.25" style="stop-color:#F4E33B"/>
		<stop offset="1" style="stop-color:#D59337"/>
	</linearGradient><path d="M 1400 0 L 1180.5999755859375 514.0999755859375 L 1180.5999755859375 514.0999755859375 L 981.7999877929688 980 L 891.7999877929688 435.6000061035156 Z" class="st15" style="fill: url('#SVGID_16_');" transform="matrix(1, 0, 0, 1, 2.842170943040401e-14, 7.105427357601002e-15)"/><linearGradient id="SVGID_17_" gradientUnits="userSpaceOnUse" x1="1318.4208" y1="1054.2683" x2="796.3686" y2="580.2209">
		<stop offset="0" style="stop-color:#FFFFFF;stop-opacity:0.2"/>
		<stop offset="1" style="stop-color:#FF553C"/>
	</linearGradient><path d="M 1400 980 L 891.7999877929688 435.6000061035156 L 981.7999877929688 980 Z" class="st16" style="fill: url('#SVGID_17_');" transform="matrix(1, 0, 0, 1, 2.842170943040401e-14, 7.105427357601002e-15)"/><linearGradient id="SVGID_18_" gradientUnits="userSpaceOnUse" x1="1137.1986" y1="-40.345" x2="573.1423" y2="793.7385">
		<stop offset="0" style="stop-color:#FFFFFF;stop-opacity:0.2"/>
		<stop offset="1" style="stop-color:#FF553C"/>
	</linearGradient><path d="M 819.7999877929688 0 L 682 771.5999755859375 L 1400 0 Z" class="st17" style="fill: url('#SVGID_18_');" transform="matrix(1, 0, 0, 1, 2.842170943040401e-14, 7.105427357601002e-15)"/><linearGradient id="SVGID_19_" gradientUnits="userSpaceOnUse" x1="838.7654" y1="-91.488" x2="350.604" y2="630.3677">
		<stop offset="0" style="stop-color:#FFFFFF;stop-opacity:0.2"/>
		<stop offset="1" style="stop-color:#FF553C"/>
	</linearGradient><path d="M 350 0 L 682 771.5999755859375 L 1149.9000244140625 0 Z" class="st18" style="fill: url('#SVGID_19_');" transform="matrix(1, 0, 0, 1, 2.842170943040401e-14, 7.105427357601002e-15)"/><linearGradient id="SVGID_20_" gradientUnits="userSpaceOnUse" x1="-271.8113" y1="775.0332" x2="658.2817" y2="375.9933">
		<stop offset="0" style="stop-color:#FFFFFF;stop-opacity:0.2"/>
		<stop offset="0.8909" style="stop-color:#FF6851;stop-opacity:0.9127"/>
		<stop offset="1" style="stop-color:#FF553C"/>
	</linearGradient><path d="M 0 980 L 588.7999877929688 0 L 682 771.5999755859375 Z" class="st19" style="fill: url('#SVGID_20_');" transform="matrix(1, 0, 0, 1, 2.842170943040401e-14, 7.105427357601002e-15)"/><linearGradient id="SVGID_21_" gradientUnits="userSpaceOnUse" x1="563.9673" y1="-120.1938" x2="173.9283" y2="941.9124">
		<stop offset="0" style="stop-color:#FFFFFF;stop-opacity:0.2"/>
		<stop offset="1" style="stop-color:#FF553C"/>
	</linearGradient><path d="M 204.8000030517578 0 L 475 980 L 749.9000244140625 0 Z" class="st20" style="fill: url('#SVGID_21_');" transform="matrix(1, 0, 0, 1, 2.842170943040401e-14, 7.105427357601002e-15)"/><linearGradient id="SVGID_22_" gradientUnits="userSpaceOnUse" x1="1333.1013" y1="528.9274" x2="427.0107" y2="531.9277">
		<stop offset="0" style="stop-color:#FFFFFF;stop-opacity:0.2"/>
		<stop offset="1" style="stop-color:#FF553C"/>
	</linearGradient><path d="M 1400 385.79998779296875 L 315.29998779296875 416.70001220703125 L 1113 672.5 Z" class="st21" style="fill: url('#SVGID_22_');" transform="matrix(1, 0, 0, 1, 2.842170943040401e-14, 7.105427357601002e-15)"/><linearGradient id="SVGID_23_" gradientUnits="userSpaceOnUse" x1="758.0357" y1="517.0507" x2="1085.0684" y2="478.0468">
		<stop offset="0" style="stop-color:#FFFFFF;stop-opacity:0.2"/>
		<stop offset="1" style="stop-color:#FF553C"/>
	</linearGradient><path d="M 819.7999877929688 0 L 1149.9000244140625 980 L 1113 672.5 Z" class="st22" style="fill: url('#SVGID_23_');" transform="matrix(1, 0, 0, 1, 2.842170943040401e-14, 7.105427357601002e-15)"/><linearGradient id="SVGID_24_" gradientUnits="userSpaceOnUse" x1="-56.1507" y1="-210.2533" x2="270.882" y2="452.813">
		<stop offset="0" style="stop-color:#FFFFFF;stop-opacity:0.2"/>
		<stop offset="1" style="stop-color:#FF553C"/>
	</linearGradient><path d="M 0 0 L 0 516.7999877929688 L 350 0 Z" class="st23" style="fill: url('#SVGID_24_');" transform="matrix(1, 0, 0, 1, 2.842170943040401e-14, 7.105427357601002e-15)"/><linearGradient id="SVGID_25_" gradientUnits="userSpaceOnUse" x1="-67.4299" y1="-70.312" x2="374.2292" y2="825.1621">
		<stop offset="0" style="stop-color:#FFFFFF;stop-opacity:0.2"/>
		<stop offset="1" style="stop-color:#FF553C"/>
	</linearGradient><path d="M 0 217.8000030517578 L 184.6999969482422 244.10000610351562 L 258.8999938964844 788.0999755859375 Z" class="st24" style="fill: url('#SVGID_25_');" transform="matrix(1, 0, 0, 1, 2.842170943040401e-14, 7.105427357601002e-15)"/>
</svg>