<svg xmlns="http://www.w3.org/2000/svg" id="master-artboard" width="1400" height="980" x="0" y="0" version="1.1" viewBox="0 0 1400 980" style="enable-background:new 0 0 1400 980"><linearGradient id="SVGID_1_" x1="246.147" x2="214.147" y1="1041.068" y2="815.068" gradientUnits="userSpaceOnUse"><stop offset="0" style="stop-color:#ffd63c"/><stop offset=".25" style="stop-color:#f4e33b"/><stop offset="1" style="stop-color:#d59337"/></linearGradient><path d="M 475 980 L 0 980 L 258.8999938964844 788.0999755859375 Z" class="st0" transform="matrix(1, 0, 0, 1, 2.842170943040401e-14, 7.105427357601002e-15)" style="fill:url(#SVGID_1_)"/><linearGradient id="SVGID_2_" x1="174.588" x2="208.588" y1="-5.182" y2="422.818" gradientUnits="userSpaceOnUse"><stop offset="0" style="stop-color:#ffd63c"/><stop offset=".25" style="stop-color:#f4e33b"/><stop offset="1" style="stop-color:#d59337"/></linearGradient><path d="M 350 0 L 315.29998779296875 416.70001220703125 L 0 0 Z" class="st1" transform="matrix(1, 0, 0, 1, 2.842170943040401e-14, 7.105427357601002e-15)" style="fill:url(#SVGID_2_)"/><linearGradient id="SVGID_3_" x1="643.191" x2="837.191" y1="1087.201" y2="843.201" gradientUnits="userSpaceOnUse"><stop offset="0" style="stop-color:#ffd63c"/><stop offset=".25" style="stop-color:#f4e33b"/><stop offset="1" style="stop-color:#d59337"/></linearGradient><path d="M 981.7999877929688 980 L 475 980 L 682 771.5999755859375 Z" class="st2" transform="matrix(1, 0, 0, 1, 2.842170943040401e-14, 7.105427357601002e-15)" style="fill:url(#SVGID_3_)"/><linearGradient id="SVGID_4_" x1="599.173" x2="395.173" y1="244.012" y2="14.012" gradientUnits="userSpaceOnUse"><stop offset="0" style="stop-color:#ffd63c"/><stop offset=".25" style="stop-color:#f4e33b"/><stop offset="1" style="stop-color:#d59337"/></linearGradient><path d="M 819.7999877929688 0 L 315.29998779296875 416.70001220703125 L 315.29998779296875 416.70001220703125 L 350 0 Z" class="st3" transform="matrix(1, 0, 0, 1, 2.842170943040401e-14, 7.105427357601002e-15)" style="fill:url(#SVGID_4_)"/><linearGradient id="SVGID_5_" x1="1172.461" x2="872.431" y1="457.325" y2="-16.722" gradientUnits="userSpaceOnUse"><stop offset="0" style="stop-color:#ffd63c"/><stop offset=".25" style="stop-color:#f4e33b"/><stop offset="1" style="stop-color:#d59337"/></linearGradient><path d="M 1149.9000244140625 0 L 891.7999877929688 435.6000061035156 L 819.7999877929688 0 Z" class="st4" transform="matrix(1, 0, 0, 1, 2.842170943040401e-14, 7.105427357601002e-15)" style="fill:url(#SVGID_5_)"/><linearGradient id="SVGID_6_" x1="1276.088" x2="1549.115" y1="225.505" y2="831.565" gradientUnits="userSpaceOnUse"><stop offset="0" style="stop-color:#ffd63c"/><stop offset=".25" style="stop-color:#f4e33b"/><stop offset="1" style="stop-color:#d59337"/></linearGradient><path d="M 1400 0 L 1400 980 L 1180.5999755859375 514.0999755859375 L 1180.5999755859375 514.0999755859375 Z" class="st5" transform="matrix(1, 0, 0, 1, 2.842170943040401e-14, 7.105427357601002e-15)" style="fill:url(#SVGID_6_)"/><linearGradient id="SVGID_7_" x1="1210.535" x2="1102.524" y1="1062.798" y2="606.752" gradientUnits="userSpaceOnUse"><stop offset="0" style="stop-color:#ffd63c"/><stop offset=".25" style="stop-color:#f4e33b"/><stop offset="1" style="stop-color:#d59337"/></linearGradient><path d="M 1400 980 L 981.7999877929688 980 L 1180.5999755859375 514.0999755859375 Z" class="st6" transform="matrix(1, 0, 0, 1, 2.842170943040401e-14, 7.105427357601002e-15)" style="fill:url(#SVGID_7_)"/><linearGradient id="SVGID_8_" x1="245.212" x2="59.212" y1="540.535" y2="326.536" gradientUnits="userSpaceOnUse"><stop offset="0" style="stop-color:#ffd63c"/><stop offset=".25" style="stop-color:#f4e33b"/><stop offset="1" style="stop-color:#d59337"/></linearGradient><path d="M 315.29998779296875 416.70001220703125 L 315.29998779296875 416.70001220703125 L 0 516.7999877929688 L 0 0 Z" class="st7" transform="matrix(1, 0, 0, 1, 2.842170943040401e-14, 7.105427357601002e-15)" style="fill:url(#SVGID_8_)"/><linearGradient id="SVGID_9_" x1="485.13" x2="255.13" y1="437.768" y2="653.768" gradientUnits="userSpaceOnUse"><stop offset="0" style="stop-color:#ffd63c"/><stop offset=".25" style="stop-color:#f4e33b"/><stop offset="1" style="stop-color:#d59337"/></linearGradient><path d="M 475 627.7999877929688 L 258.8999938964844 788.0999755859375 L 315.29998779296875 416.70001220703125 Z" class="st8" transform="matrix(1, 0, 0, 1, 2.842170943040401e-14, 7.105427357601002e-15)" style="fill:url(#SVGID_9_)"/><linearGradient id="SVGID_10_" x1="1103.343" x2="455.279" y1="72.254" y2="453.292" gradientUnits="userSpaceOnUse"><stop offset="0" style="stop-color:#ffd63c"/><stop offset="1" style="stop-color:#d59337"/></linearGradient><path d="M 891.7999877929688 435.6000061035156 L 475 627.7999877929688 L 819.7999877929688 0 Z" class="st9" transform="matrix(1, 0, 0, 1, 2.842170943040401e-14, 7.105427357601002e-15)" style="fill:url(#SVGID_10_)"/><linearGradient id="SVGID_11_" x1="295.562" x2="-34.438" y1="788.641" y2="572.641" gradientUnits="userSpaceOnUse"><stop offset="0" style="stop-color:#ffd63c"/><stop offset=".25" style="stop-color:#f4e33b"/><stop offset="1" style="stop-color:#d59337"/></linearGradient><path d="M 315.29998779296875 416.70001220703125 L 258.8999938964844 788.0999755859375 L 0 980 L 0 516.7999877929688 Z" class="st10" transform="matrix(1, 0, 0, 1, 2.842170943040401e-14, 7.105427357601002e-15)" style="fill:url(#SVGID_11_)"/><linearGradient id="SVGID_12_" x1="492.741" x2="459.738" y1="560.793" y2="884.825" gradientUnits="userSpaceOnUse"><stop offset="0" style="stop-color:#ffd63c"/><stop offset=".25" style="stop-color:#f4e33b"/><stop offset="1" style="stop-color:#d59337"/></linearGradient><path d="M 682 771.5999755859375 L 475 980 L 258.8999938964844 788.0999755859375 L 475 627.7999877929688 Z" class="st11" transform="matrix(1, 0, 0, 1, 2.842170943040401e-14, 7.105427357601002e-15)" style="fill:url(#SVGID_12_)"/><linearGradient id="SVGID_13_" x1="315.28" x2="819.83" y1="313.915" y2="313.915" gradientUnits="userSpaceOnUse"><stop offset="0" style="stop-color:#ffd63c"/><stop offset=".25" style="stop-color:#f4e33b"/><stop offset="1" style="stop-color:#d59337"/></linearGradient><path d="M 819.7999877929688 0 L 475 627.7999877929688 L 315.29998779296875 416.70001220703125 Z" class="st12" transform="matrix(1, 0, 0, 1, 2.842170943040401e-14, 7.105427357601002e-15)" style="fill:url(#SVGID_13_)"/><linearGradient id="SVGID_14_" x1="584.944" x2="1062.944" y1="884.961" y2="614.961" gradientUnits="userSpaceOnUse"><stop offset="0" style="stop-color:#ffd63c"/><stop offset=".25" style="stop-color:#f4e33b"/><stop offset="1" style="stop-color:#d59337"/></linearGradient><path d="M 981.7999877929688 980 L 682 771.5999755859375 L 475 627.7999877929688 L 891.7999877929688 435.6000061035156 Z" class="st13" transform="matrix(1, 0, 0, 1, 2.842170943040401e-14, 7.105427357601002e-15)" style="fill:url(#SVGID_14_)"/><linearGradient id="SVGID_15_" x1="1337.431" x2="989.397" y1="-81.898" y2="374.147" gradientUnits="userSpaceOnUse"><stop offset="0" style="stop-color:#ffd63c"/><stop offset=".25" style="stop-color:#f4e33b"/><stop offset="1" style="stop-color:#d59337"/></linearGradient><path d="M 1400 0 L 891.7999877929688 435.6000061035156 L 1149.9000244140625 0 Z" class="st14" transform="matrix(1, 0, 0, 1, 2.842170943040401e-14, 7.105427357601002e-15)" style="fill:url(#SVGID_15_)"/><linearGradient id="SVGID_16_" x1="794.2" x2="1265.247" y1="444.516" y2="498.521" gradientUnits="userSpaceOnUse"><stop offset="0" style="stop-color:#ffd63c"/><stop offset=".25" style="stop-color:#f4e33b"/><stop offset="1" style="stop-color:#d59337"/></linearGradient><path d="M 1400 0 L 1180.5999755859375 514.0999755859375 L 1180.5999755859375 514.0999755859375 L 981.7999877929688 980 L 891.7999877929688 435.6000061035156 Z" class="st15" transform="matrix(1, 0, 0, 1, 2.842170943040401e-14, 7.105427357601002e-15)" style="fill:url(#SVGID_16_)"/><linearGradient id="SVGID_17_" x1="1318.421" x2="796.369" y1="1054.268" y2="580.221" gradientUnits="userSpaceOnUse"><stop offset="0" style="stop-color:#fff;stop-opacity:.2"/><stop offset="1" style="stop-color:#ff553c"/></linearGradient><path d="M 1400 980 L 891.7999877929688 435.6000061035156 L 981.7999877929688 980 Z" class="st16" transform="matrix(1, 0, 0, 1, 2.842170943040401e-14, 7.105427357601002e-15)" style="fill:url(#SVGID_17_)"/><linearGradient id="SVGID_18_" x1="1137.199" x2="573.142" y1="-40.345" y2="793.739" gradientUnits="userSpaceOnUse"><stop offset="0" style="stop-color:#fff;stop-opacity:.2"/><stop offset="1" style="stop-color:#ff553c"/></linearGradient><path d="M 819.7999877929688 0 L 682 771.5999755859375 L 1400 0 Z" class="st17" transform="matrix(1, 0, 0, 1, 2.842170943040401e-14, 7.105427357601002e-15)" style="fill:url(#SVGID_18_)"/><linearGradient id="SVGID_19_" x1="838.765" x2="350.604" y1="-91.488" y2="630.368" gradientUnits="userSpaceOnUse"><stop offset="0" style="stop-color:#fff;stop-opacity:.2"/><stop offset="1" style="stop-color:#ff553c"/></linearGradient><path d="M 350 0 L 682 771.5999755859375 L 1149.9000244140625 0 Z" class="st18" transform="matrix(1, 0, 0, 1, 2.842170943040401e-14, 7.105427357601002e-15)" style="fill:url(#SVGID_19_)"/><linearGradient id="SVGID_20_" x1="-271.811" x2="658.282" y1="775.033" y2="375.993" gradientUnits="userSpaceOnUse"><stop offset="0" style="stop-color:#fff;stop-opacity:.2"/><stop offset=".891" style="stop-color:#ff6851;stop-opacity:.9127"/><stop offset="1" style="stop-color:#ff553c"/></linearGradient><path d="M 0 980 L 588.7999877929688 0 L 682 771.5999755859375 Z" class="st19" transform="matrix(1, 0, 0, 1, 2.842170943040401e-14, 7.105427357601002e-15)" style="fill:url(#SVGID_20_)"/><linearGradient id="SVGID_21_" x1="563.967" x2="173.928" y1="-120.194" y2="941.912" gradientUnits="userSpaceOnUse"><stop offset="0" style="stop-color:#fff;stop-opacity:.2"/><stop offset="1" style="stop-color:#ff553c"/></linearGradient><path d="M 204.8000030517578 0 L 475 980 L 749.9000244140625 0 Z" class="st20" transform="matrix(1, 0, 0, 1, 2.842170943040401e-14, 7.105427357601002e-15)" style="fill:url(#SVGID_21_)"/><linearGradient id="SVGID_22_" x1="1333.101" x2="427.011" y1="528.927" y2="531.928" gradientUnits="userSpaceOnUse"><stop offset="0" style="stop-color:#fff;stop-opacity:.2"/><stop offset="1" style="stop-color:#ff553c"/></linearGradient><path d="M 1400 385.79998779296875 L 315.29998779296875 416.70001220703125 L 1113 672.5 Z" class="st21" transform="matrix(1, 0, 0, 1, 2.842170943040401e-14, 7.105427357601002e-15)" style="fill:url(#SVGID_22_)"/><linearGradient id="SVGID_23_" x1="758.036" x2="1085.068" y1="517.051" y2="478.047" gradientUnits="userSpaceOnUse"><stop offset="0" style="stop-color:#fff;stop-opacity:.2"/><stop offset="1" style="stop-color:#ff553c"/></linearGradient><path d="M 819.7999877929688 0 L 1149.9000244140625 980 L 1113 672.5 Z" class="st22" transform="matrix(1, 0, 0, 1, 2.842170943040401e-14, 7.105427357601002e-15)" style="fill:url(#SVGID_23_)"/><linearGradient id="SVGID_24_" x1="-56.151" x2="270.882" y1="-210.253" y2="452.813" gradientUnits="userSpaceOnUse"><stop offset="0" style="stop-color:#fff;stop-opacity:.2"/><stop offset="1" style="stop-color:#ff553c"/></linearGradient><path d="M 0 0 L 0 516.7999877929688 L 350 0 Z" class="st23" transform="matrix(1, 0, 0, 1, 2.842170943040401e-14, 7.105427357601002e-15)" style="fill:url(#SVGID_24_)"/><linearGradient id="SVGID_25_" x1="-67.43" x2="374.229" y1="-70.312" y2="825.162" gradientUnits="userSpaceOnUse"><stop offset="0" style="stop-color:#fff;stop-opacity:.2"/><stop offset="1" style="stop-color:#ff553c"/></linearGradient><path d="M 0 217.8000030517578 L 184.6999969482422 244.10000610351562 L 258.8999938964844 788.0999755859375 Z" class="st24" transform="matrix(1, 0, 0, 1, 2.842170943040401e-14, 7.105427357601002e-15)" style="fill:url(#SVGID_25_)"/></svg>