<?xml version="1.0" encoding="utf-8"?>
<svg id="master-artboard" viewBox="0 0 336 235.2" version="1.1" xmlns="http://www.w3.org/2000/svg" x="0px" y="0px" style="enable-background:new 0 0 336 235.2;" width="336px" height="235.1999969482422px" xmlns:xlink="http://www.w3.org/1999/xlink">

<path id="sand_1_" class="st0" d="M336,132.9c-28.7-8.6-45.9-2.6-75.2,4.6c-29.3,7.2-71.1-0.7-75.9-2.4c-32.1-7.2-53.5-5.8-74.5-1.4&#10;&#9;c-21,4.3-41.7,4.1-59.3,1.2c-34.2-5.8-51-5.3-51-5.3v105.8h336V132.9z" style="fill: rgb(239, 229, 212);"/>
<path id="wave" class="st1" d="M260.8,130.7c-29.3,7.2-71.1-0.7-75.9-2.4c-32.1-7.2-53.5-5.8-74.5-1.4c-21,4.3-41.7,4.1-59.3,1.2&#10;&#9;c-34.2-5.8-51-5.3-51-5.3v6.6c0,0,16.9-0.5,51,5.3c17.6,2.9,38.3,3.1,59.3-1.2c21-4.3,42.4-5.8,74.5,1.4c4.8,1.7,46.6,9.6,75.9,2.4&#10;&#9;c29.3-7.2,46.5-13.2,75.2-4.6v-6.6C307.3,117.5,290.1,123.5,260.8,130.7z" style="fill: rgb(255, 255, 255);"/>
<g id="sea">
	<path class="st2" d="M0,60.5v62.3c0,0,16.9-0.5,51,5.3c17.6,2.9,38.3,3.1,59.3-1.2c21-4.3,42.4-5.8,74.5,1.4&#10;&#9;&#9;c4.8,1.7,46.6,9.6,75.9,2.4c29.3-7.2,46.5-13.2,75.2-4.6V60.5H0z" style="fill: rgb(115, 143, 147);"/>
</g>
<g id="sand">
	<g id="sand_3_">
		<path d="M 249.999997 155.5 A 0.8 0.8 0 0 1 249.199997 156.3 A 0.8 0.8 0 0 1 248.399997 155.5 A 0.8 0.8 0 0 1 249.199997 154.7 A 0.8 0.8 0 0 1 249.999997 155.5 Z" class="st3" style="fill: rgb(242, 211, 198);"/>
		<path d="M 208.999997 212.100006 A 0.8 0.8 0 0 1 208.199997 212.900006 A 0.8 0.8 0 0 1 207.399997 212.100006 A 0.8 0.8 0 0 1 208.199997 211.300006 A 0.8 0.8 0 0 1 208.999997 212.100006 Z" class="st1" style="fill: rgb(255, 255, 255);"/>
		<path d="M 149.400006 211.899994 A 0.8 0.8 0 0 1 148.600006 212.699994 A 0.8 0.8 0 0 1 147.800006 211.899994 A 0.8 0.8 0 0 1 148.600006 211.099994 A 0.8 0.8 0 0 1 149.400006 211.899994 Z" class="st1" style="fill: rgb(255, 255, 255);"/>
		<path d="M 309.699994 230.5 A 0.8 0.8 0 0 1 308.899994 231.3 A 0.8 0.8 0 0 1 308.099994 230.5 A 0.8 0.8 0 0 1 308.899994 229.7 A 0.8 0.8 0 0 1 309.699994 230.5 Z" class="st3" style="fill: rgb(242, 211, 198);"/>
		<path d="M 159.8 166.399994 A 0.8 0.8 0 0 1 159 167.199994 A 0.8 0.8 0 0 1 158.2 166.399994 A 0.8 0.8 0 0 1 159 165.599994 A 0.8 0.8 0 0 1 159.8 166.399994 Z" class="st3" style="fill: rgb(242, 211, 198);"/>
		<path d="M 191.400006 148 A 0.8 0.8 0 0 1 190.600006 148.8 A 0.8 0.8 0 0 1 189.800006 148 A 0.8 0.8 0 0 1 190.600006 147.2 A 0.8 0.8 0 0 1 191.400006 148 Z" class="st3" style="fill: rgb(242, 211, 198);"/>
		<path d="M 243.700006 157.600006 A 0.6 0.6 0 0 1 243.100006 158.200006 A 0.6 0.6 0 0 1 242.500006 157.600006 A 0.6 0.6 0 0 1 243.100006 157.000006 A 0.6 0.6 0 0 1 243.700006 157.600006 Z" class="st4" style="fill: rgb(179, 128, 97);"/>
		<path d="M 325.499994 229.100006 A 0.6 0.6 0 0 1 324.899994 229.700006 A 0.6 0.6 0 0 1 324.299994 229.100006 A 0.6 0.6 0 0 1 324.899994 228.500006 A 0.6 0.6 0 0 1 325.499994 229.100006 Z" class="st4" style="fill: rgb(179, 128, 97);"/>
		<path d="M 310.300006 204.600006 A 0.7 0.7 0 0 1 309.600006 205.300006 A 0.7 0.7 0 0 1 308.900006 204.600006 A 0.7 0.7 0 0 1 309.600006 203.900006 A 0.7 0.7 0 0 1 310.300006 204.600006 Z" class="st4" style="fill: rgb(179, 128, 97);"/>
		<path d="M 321.299988 171.100006 A 1 1 0 0 1 320.299988 172.100006 A 1 1 0 0 1 319.299988 171.100006 A 1 1 0 0 1 320.299988 170.100006 A 1 1 0 0 1 321.299988 171.100006 Z" class="st4" style="fill: rgb(179, 128, 97);"/>
		<path d="M 42 178 A 0.5 0.5 0 0 1 41.5 178.5 A 0.5 0.5 0 0 1 41 178 A 0.5 0.5 0 0 1 41.5 177.5 A 0.5 0.5 0 0 1 42 178 Z" class="st4" style="fill: rgb(179, 128, 97);"/>
		<path d="M 67.1 154.699997 A 1.1 1.1 0 0 1 66 155.799997 A 1.1 1.1 0 0 1 64.9 154.699997 A 1.1 1.1 0 0 1 66 153.599997 A 1.1 1.1 0 0 1 67.1 154.699997 Z" class="st3" style="fill: rgb(242, 211, 198);"/>
		<path d="M 16.1 176.699997 A 0.4 0.4 0 0 1 15.7 177.099997 A 0.4 0.4 0 0 1 15.3 176.699997 A 0.4 0.4 0 0 1 15.7 176.299997 A 0.4 0.4 0 0 1 16.1 176.699997 Z" class="st4" style="fill: rgb(179, 128, 97);"/>
		<path d="M 126.699997 147 A 1 1 0 0 1 125.699997 148 A 1 1 0 0 1 124.699997 147 A 1 1 0 0 1 125.699997 146 A 1 1 0 0 1 126.699997 147 Z" class="st4" style="fill: rgb(179, 128, 97);"/>
		<path d="M 131.000006 172.199997 A 0.4 0.4 0 0 1 130.600006 172.599997 A 0.4 0.4 0 0 1 130.200006 172.199997 A 0.4 0.4 0 0 1 130.600006 171.799997 A 0.4 0.4 0 0 1 131.000006 172.199997 Z" class="st4" style="fill: rgb(179, 128, 97);"/>
		<path d="M 128.199998 175 A 0.6 0.6 0 0 1 127.599998 175.6 A 0.6 0.6 0 0 1 126.999998 175 A 0.6 0.6 0 0 1 127.599998 174.4 A 0.6 0.6 0 0 1 128.199998 175 Z" class="st3" style="fill: rgb(242, 211, 198);"/>
		<path d="M 134.400006 166.699997 A 0.3 0.3 0 0 1 134.100006 166.999997 A 0.3 0.3 0 0 1 133.800006 166.699997 A 0.3 0.3 0 0 1 134.100006 166.399997 A 0.3 0.3 0 0 1 134.400006 166.699997 Z" class="st4" style="fill: rgb(179, 128, 97);"/>
		<path d="M 186.200003 223.899994 A 0.4 0.4 0 0 1 185.800003 224.299994 A 0.4 0.4 0 0 1 185.400003 223.899994 A 0.4 0.4 0 0 1 185.800003 223.499994 A 0.4 0.4 0 0 1 186.200003 223.899994 Z" class="st4" style="fill: rgb(179, 128, 97);"/>
		<path d="M 135.299994 224.100006 A 0.4 0.4 0 0 1 134.899994 224.500006 A 0.4 0.4 0 0 1 134.499994 224.100006 A 0.4 0.4 0 0 1 134.899994 223.700006 A 0.4 0.4 0 0 1 135.299994 224.100006 Z" class="st4" style="fill: rgb(179, 128, 97);"/>
		<path d="M 171.900003 224.699997 A 0.6 0.6 0 0 1 171.300003 225.299997 A 0.6 0.6 0 0 1 170.700003 224.699997 A 0.6 0.6 0 0 1 171.300003 224.099997 A 0.6 0.6 0 0 1 171.900003 224.699997 Z" class="st3" style="fill: rgb(242, 211, 198);"/>
		<path d="M 177.999997 216.399994 A 0.3 0.3 0 0 1 177.699997 216.699994 A 0.3 0.3 0 0 1 177.399997 216.399994 A 0.3 0.3 0 0 1 177.699997 216.099994 A 0.3 0.3 0 0 1 177.999997 216.399994 Z" class="st4" style="fill: rgb(179, 128, 97);"/>
		<path d="M 79.300002 165.600006 A 0.9 0.9 0 0 1 78.400002 166.500006 A 0.9 0.9 0 0 1 77.500002 165.600006 A 0.9 0.9 0 0 1 78.400002 164.700006 A 0.9 0.9 0 0 1 79.300002 165.600006 Z" class="st4" style="fill: rgb(179, 128, 97);"/>
		<path d="M 109.099997 225.699997 A 0.9 0.9 0 0 1 108.199997 226.599997 A 0.9 0.9 0 0 1 107.299997 225.699997 A 0.9 0.9 0 0 1 108.199997 224.799997 A 0.9 0.9 0 0 1 109.099997 225.699997 Z" class="st4" style="fill: rgb(179, 128, 97);"/>
		<path d="M 207.4 178.300003 A 0.9 0.9 0 0 1 206.5 179.200003 A 0.9 0.9 0 0 1 205.6 178.300003 A 0.9 0.9 0 0 1 206.5 177.400003 A 0.9 0.9 0 0 1 207.4 178.300003 Z" class="st3" style="fill: rgb(242, 211, 198);"/>
		<path d="M 221.900003 184.699997 A 0.6 0.6 0 0 1 221.300003 185.299997 A 0.6 0.6 0 0 1 220.700003 184.699997 A 0.6 0.6 0 0 1 221.300003 184.099997 A 0.6 0.6 0 0 1 221.900003 184.699997 Z" class="st4" style="fill: rgb(179, 128, 97);"/>
		<path d="M 83.900003 233.899994 A 0.6 0.6 0 0 1 83.300003 234.499994 A 0.6 0.6 0 0 1 82.700003 233.899994 A 0.6 0.6 0 0 1 83.300003 233.299994 A 0.6 0.6 0 0 1 83.900003 233.899994 Z" class="st4" style="fill: rgb(179, 128, 97);"/>
		<path d="M 316.300012 158.899994 A 0.6 0.6 0 0 1 315.700012 159.499994 A 0.6 0.6 0 0 1 315.100012 158.899994 A 0.6 0.6 0 0 1 315.700012 158.299994 A 0.6 0.6 0 0 1 316.300012 158.899994 Z" class="st4" style="fill: rgb(179, 128, 97);"/>
		<path d="M 277.1 145.100006 A 0.6 0.6 0 0 1 276.5 145.700006 A 0.6 0.6 0 0 1 275.9 145.100006 A 0.6 0.6 0 0 1 276.5 144.500006 A 0.6 0.6 0 0 1 277.1 145.100006 Z" class="st3" style="fill: rgb(242, 211, 198);"/>
		<path d="M 10.1 187.5 A 1.1 1.1 0 0 1 9 188.6 A 1.1 1.1 0 0 1 7.9 187.5 A 1.1 1.1 0 0 1 9 186.4 A 1.1 1.1 0 0 1 10.1 187.5 Z" class="st3" style="fill: rgb(242, 211, 198);"/>
		<path d="M 174.900003 184.100006 A 0.6 0.6 0 0 1 174.300003 184.700006 A 0.6 0.6 0 0 1 173.700003 184.100006 A 0.6 0.6 0 0 1 174.300003 183.500006 A 0.6 0.6 0 0 1 174.900003 184.100006 Z" class="st4" style="fill: rgb(179, 128, 97);"/>
		<path d="M 186.900003 163.899994 A 1.1 1.1 0 0 1 185.800003 164.999994 A 1.1 1.1 0 0 1 184.700003 163.899994 A 1.1 1.1 0 0 1 185.800003 162.799994 A 1.1 1.1 0 0 1 186.900003 163.899994 Z" class="st4" style="fill: rgb(179, 128, 97);"/>
		<path d="M 316.999988 180.899994 A 0.7 0.7 0 0 1 316.299988 181.599994 A 0.7 0.7 0 0 1 315.599988 180.899994 A 0.7 0.7 0 0 1 316.299988 180.199994 A 0.7 0.7 0 0 1 316.999988 180.899994 Z" class="st3" style="fill: rgb(242, 211, 198);"/>
	</g>
</g>
<linearGradient id="sky_1_" gradientUnits="userSpaceOnUse" x1="168.0069" y1="175.7837" x2="168.0069" y2="236.0395" gradientTransform="matrix(-1 0 0 -1 336 236)">
	<stop offset="0" style="stop-color:#FFFFFF"/>
	<stop offset="0.2382" style="stop-color:#FAFDFD"/>
	<stop offset="0.511" style="stop-color:#ECF7F6"/>
	<stop offset="0.7997" style="stop-color:#D6EDEB"/>
	<stop offset="1" style="stop-color:#C1E5E2"/>
</linearGradient>
<path d="M 0 0 H 335.899994 V 60.299999 H 0 V 0 Z" id="sky" class="st5" style="fill: url('#sky_1_');"/>
<g id="waves">
	<g>
		<g id="waves_2_">
			<path class="st6" d="M146.8,70.3c5.3-3,5.6,1.8,10.6-0.4C152.5,70.7,152,65.7,146.8,70.3z" style="opacity: 0.6; fill-rule: evenodd; clip-rule: evenodd; fill: rgb(255, 255, 255);"/>
			<path class="st7" d="M11.7,67.9c4-2.3,4.3,1.4,8-0.3C16.1,68.3,15.7,64.4,11.7,67.9z" style="opacity: 0.8; fill-rule: evenodd; clip-rule: evenodd; fill: rgb(255, 255, 255);"/>
			<path class="st8" d="M83.4,73c4-2.3,4.3,1.4,8-0.3C87.8,73.3,87.4,69.5,83.4,73z" style="fill-rule: evenodd; clip-rule: evenodd; fill: rgb(255, 255, 255);"/>
			<path d="M 172.099994 74.300003 A 0.7 0.7 0 0 1 171.399994 75.000003 A 0.7 0.7 0 0 1 170.699994 74.300003 A 0.7 0.7 0 0 1 171.399994 73.600003 A 0.7 0.7 0 0 1 172.099994 74.300003 Z" class="st9" style="opacity: 0.3; fill: rgb(255, 255, 255);"/>
			<path d="M 93.2 69.699997 A 0.7 0.7 0 0 1 92.5 70.399997 A 0.7 0.7 0 0 1 91.8 69.699997 A 0.7 0.7 0 0 1 92.5 68.999997 A 0.7 0.7 0 0 1 93.2 69.699997 Z" class="st10" style="opacity: 0.5; fill: rgb(255, 255, 255);"/>
			<path d="M 44.999999 78 A 0.7 0.7 0 0 1 44.299999 78.7 A 0.7 0.7 0 0 1 43.599999 78 A 0.7 0.7 0 0 1 44.299999 77.3 A 0.7 0.7 0 0 1 44.999999 78 Z" class="st1" style="fill: rgb(255, 255, 255);"/>
			<path d="M 146.100003 66.099998 A 0.3 0.3 0 0 1 145.800003 66.399998 A 0.3 0.3 0 0 1 145.500003 66.099998 A 0.3 0.3 0 0 1 145.800003 65.799998 A 0.3 0.3 0 0 1 146.100003 66.099998 Z" class="st1" style="fill: rgb(255, 255, 255);"/>
			<path d="M 136.400006 76.699997 A 0.3 0.3 0 0 1 136.100006 76.999997 A 0.3 0.3 0 0 1 135.800006 76.699997 A 0.3 0.3 0 0 1 136.100006 76.399997 A 0.3 0.3 0 0 1 136.400006 76.699997 Z" class="st1" style="fill: rgb(255, 255, 255);"/>
			<path d="M 123.3 70.5 A 0.3 0.3 0 0 1 123 70.8 A 0.3 0.3 0 0 1 122.7 70.5 A 0.3 0.3 0 0 1 123 70.2 A 0.3 0.3 0 0 1 123.3 70.5 Z" class="st1" style="fill: rgb(255, 255, 255);"/>
			<path d="M 175.100003 71.400002 A 0.3 0.3 0 0 1 174.800003 71.700002 A 0.3 0.3 0 0 1 174.500003 71.400002 A 0.3 0.3 0 0 1 174.800003 71.100002 A 0.3 0.3 0 0 1 175.100003 71.400002 Z" class="st1" style="fill: rgb(255, 255, 255);"/>
			<path d="M 170.699994 68.099998 A 0.3 0.3 0 0 1 170.399994 68.399998 A 0.3 0.3 0 0 1 170.099994 68.099998 A 0.3 0.3 0 0 1 170.399994 67.799998 A 0.3 0.3 0 0 1 170.699994 68.099998 Z" class="st1" style="fill: rgb(255, 255, 255);"/>
			<path d="M 111.8 77.599998 A 0.3 0.3 0 0 1 111.5 77.899998 A 0.3 0.3 0 0 1 111.2 77.599998 A 0.3 0.3 0 0 1 111.5 77.299998 A 0.3 0.3 0 0 1 111.8 77.599998 Z" class="st1" style="fill: rgb(255, 255, 255);"/>
			<path d="M 34.500001 67 A 0.3 0.3 0 0 1 34.200001 67.3 A 0.3 0.3 0 0 1 33.900001 67 A 0.3 0.3 0 0 1 34.200001 66.7 A 0.3 0.3 0 0 1 34.500001 67 Z" class="st1" style="fill: rgb(255, 255, 255);"/>
			<path d="M 52.8 66.400002 A 0.3 0.3 0 0 1 52.5 66.700002 A 0.3 0.3 0 0 1 52.2 66.400002 A 0.3 0.3 0 0 1 52.5 66.100002 A 0.3 0.3 0 0 1 52.8 66.400002 Z" class="st1" style="fill: rgb(255, 255, 255);"/>
			<path d="M 55.000001 72.400002 A 0.3 0.3 0 0 1 54.700001 72.700002 A 0.3 0.3 0 0 1 54.400001 72.400002 A 0.3 0.3 0 0 1 54.700001 72.100002 A 0.3 0.3 0 0 1 55.000001 72.400002 Z" class="st1" style="fill: rgb(255, 255, 255);"/>
			<path d="M 7.9 70.300003 A 0.3 0.3 0 0 1 7.6 70.600003 A 0.3 0.3 0 0 1 7.3 70.300003 A 0.3 0.3 0 0 1 7.6 70.000003 A 0.3 0.3 0 0 1 7.9 70.300003 Z" class="st1" style="fill: rgb(255, 255, 255);"/>
			<path d="M 15.7 77 A 0.3 0.3 0 0 1 15.4 77.3 A 0.3 0.3 0 0 1 15.1 77 A 0.3 0.3 0 0 1 15.4 76.7 A 0.3 0.3 0 0 1 15.7 77 Z" class="st1" style="fill: rgb(255, 255, 255);"/>
			<path d="M 3.5 76.699997 A 0.3 0.3 0 0 1 3.2 76.999997 A 0.3 0.3 0 0 1 2.9 76.699997 A 0.3 0.3 0 0 1 3.2 76.399997 A 0.3 0.3 0 0 1 3.5 76.699997 Z" class="st1" style="fill: rgb(255, 255, 255);"/>
		</g>
		<g id="waves_1_">
			<path class="st6" d="M70.2,88.6c-5.3,3-5.6-1.8-10.6,0.4C64.5,88.1,65,93.1,70.2,88.6z" style="opacity: 0.6; fill-rule: evenodd; clip-rule: evenodd; fill: rgb(255, 255, 255);"/>
			<path class="st8" d="M133.6,85.9c-4,2.3-4.3-1.4-8,0.3C129.2,85.5,129.6,89.3,133.6,85.9z" style="fill-rule: evenodd; clip-rule: evenodd; fill: rgb(255, 255, 255);"/>
			<path class="st8" d="M39.1,87.7c-4,2.3-4.3-1.4-8,0.3C34.8,87.3,35.2,91.2,39.1,87.7z" style="fill-rule: evenodd; clip-rule: evenodd; fill: rgb(255, 255, 255);"/>
			<path d="M 46.400001 84.599998 A 0.7 0.7 0 0 1 45.700001 85.299998 A 0.7 0.7 0 0 1 45.000001 84.599998 A 0.7 0.7 0 0 1 45.700001 83.899998 A 0.7 0.7 0 0 1 46.400001 84.599998 Z" class="st9" style="opacity: 0.3; fill: rgb(255, 255, 255);"/>
			<path d="M 125.2 89.199997 A 0.7 0.7 0 0 1 124.5 89.899997 A 0.7 0.7 0 0 1 123.8 89.199997 A 0.7 0.7 0 0 1 124.5 88.499997 A 0.7 0.7 0 0 1 125.2 89.199997 Z" class="st10" style="opacity: 0.5; fill: rgb(255, 255, 255);"/>
			<path d="M 173.500003 80.900002 A 0.7 0.7 0 0 1 172.800003 81.600002 A 0.7 0.7 0 0 1 172.100003 80.900002 A 0.7 0.7 0 0 1 172.800003 80.200002 A 0.7 0.7 0 0 1 173.500003 80.900002 Z" class="st1" style="fill: rgb(255, 255, 255);"/>
			<path d="M 71.499997 92.699997 A 0.3 0.3 0 0 1 71.199997 92.999997 A 0.3 0.3 0 0 1 70.899997 92.699997 A 0.3 0.3 0 0 1 71.199997 92.399997 A 0.3 0.3 0 0 1 71.499997 92.699997 Z" class="st1" style="fill: rgb(255, 255, 255);"/>
			<path d="M 81.200002 82.099998 A 0.3 0.3 0 0 1 80.900002 82.399998 A 0.3 0.3 0 0 1 80.600002 82.099998 A 0.3 0.3 0 0 1 80.900002 81.799998 A 0.3 0.3 0 0 1 81.200002 82.099998 Z" class="st1" style="fill: rgb(255, 255, 255);"/>
			<path d="M 94.3 88.300003 A 0.3 0.3 0 0 1 94 88.600003 A 0.3 0.3 0 0 1 93.7 88.300003 A 0.3 0.3 0 0 1 94 88.000003 A 0.3 0.3 0 0 1 94.3 88.300003 Z" class="st1" style="fill: rgb(255, 255, 255);"/>
			<path d="M 42.599999 87.5 A 0.3 0.3 0 0 1 42.299999 87.8 A 0.3 0.3 0 0 1 41.999999 87.5 A 0.3 0.3 0 0 1 42.299999 87.2 A 0.3 0.3 0 0 1 42.599999 87.5 Z" class="st1" style="fill: rgb(255, 255, 255);"/>
			<path d="M 47.000001 90.800003 A 0.3 0.3 0 0 1 46.700001 91.100003 A 0.3 0.3 0 0 1 46.400001 90.800003 A 0.3 0.3 0 0 1 46.700001 90.500003 A 0.3 0.3 0 0 1 47.000001 90.800003 Z" class="st1" style="fill: rgb(255, 255, 255);"/>
			<path d="M 105.8 81.199997 A 0.3 0.3 0 0 1 105.5 81.499997 A 0.3 0.3 0 0 1 105.2 81.199997 A 0.3 0.3 0 0 1 105.5 80.899997 A 0.3 0.3 0 0 1 105.8 81.199997 Z" class="st1" style="fill: rgb(255, 255, 255);"/>
			<path d="M 183.100003 91.900002 A 0.3 0.3 0 0 1 182.800003 92.200002 A 0.3 0.3 0 0 1 182.500003 91.900002 A 0.3 0.3 0 0 1 182.800003 91.600002 A 0.3 0.3 0 0 1 183.100003 91.900002 Z" class="st1" style="fill: rgb(255, 255, 255);"/>
			<path d="M 164.900006 92.400002 A 0.3 0.3 0 0 1 164.600006 92.700002 A 0.3 0.3 0 0 1 164.300006 92.400002 A 0.3 0.3 0 0 1 164.600006 92.100002 A 0.3 0.3 0 0 1 164.900006 92.400002 Z" class="st1" style="fill: rgb(255, 255, 255);"/>
			<path d="M 162.699994 86.5 A 0.3 0.3 0 0 1 162.399994 86.8 A 0.3 0.3 0 0 1 162.099994 86.5 A 0.3 0.3 0 0 1 162.399994 86.2 A 0.3 0.3 0 0 1 162.699994 86.5 Z" class="st1" style="fill: rgb(255, 255, 255);"/>
			<path d="M 103.700002 88.199997 A 0.3 0.3 0 0 1 103.400002 88.499997 A 0.3 0.3 0 0 1 103.100002 88.199997 A 0.3 0.3 0 0 1 103.400002 87.899997 A 0.3 0.3 0 0 1 103.700002 88.199997 Z" class="st1" style="fill: rgb(255, 255, 255);"/>
		</g>
	</g>
	<g>
		<g id="waves_4_">
			<path class="st7" d="M205.3,67.9c4-2.3,4.3,1.4,8-0.3C209.7,68.3,209.3,64.4,205.3,67.9z" style="opacity: 0.8; fill-rule: evenodd; clip-rule: evenodd; fill: rgb(255, 255, 255);"/>
			<path class="st8" d="M277.1,73c4-2.3,4.3,1.4,8-0.3C281.4,73.3,281,69.5,277.1,73z" style="fill-rule: evenodd; clip-rule: evenodd; fill: rgb(255, 255, 255);"/>
			<path d="M 286.800006 69.699997 A 0.7 0.7 0 0 1 286.100006 70.399997 A 0.7 0.7 0 0 1 285.400006 69.699997 A 0.7 0.7 0 0 1 286.100006 68.999997 A 0.7 0.7 0 0 1 286.800006 69.699997 Z" class="st10" style="opacity: 0.5; fill: rgb(255, 255, 255);"/>
			<path d="M 238.599994 78 A 0.7 0.7 0 0 1 237.899994 78.7 A 0.7 0.7 0 0 1 237.199994 78 A 0.7 0.7 0 0 1 237.899994 77.3 A 0.7 0.7 0 0 1 238.599994 78 Z" class="st1" style="fill: rgb(255, 255, 255);"/>
			<path d="M 330.000012 76.699997 A 0.3 0.3 0 0 1 329.700012 76.999997 A 0.3 0.3 0 0 1 329.400012 76.699997 A 0.3 0.3 0 0 1 329.700012 76.399997 A 0.3 0.3 0 0 1 330.000012 76.699997 Z" class="st1" style="fill: rgb(255, 255, 255);"/>
			<path d="M 317.000012 70.5 A 0.3 0.3 0 0 1 316.700012 70.8 A 0.3 0.3 0 0 1 316.400012 70.5 A 0.3 0.3 0 0 1 316.700012 70.2 A 0.3 0.3 0 0 1 317.000012 70.5 Z" class="st1" style="fill: rgb(255, 255, 255);"/>
			<path d="M 305.400006 77.599998 A 0.3 0.3 0 0 1 305.100006 77.899998 A 0.3 0.3 0 0 1 304.800006 77.599998 A 0.3 0.3 0 0 1 305.100006 77.299998 A 0.3 0.3 0 0 1 305.400006 77.599998 Z" class="st1" style="fill: rgb(255, 255, 255);"/>
			<path d="M 228.100003 67 A 0.3 0.3 0 0 1 227.800003 67.3 A 0.3 0.3 0 0 1 227.500003 67 A 0.3 0.3 0 0 1 227.800003 66.7 A 0.3 0.3 0 0 1 228.100003 67 Z" class="st1" style="fill: rgb(255, 255, 255);"/>
			<path d="M 246.400006 66.400002 A 0.3 0.3 0 0 1 246.100006 66.700002 A 0.3 0.3 0 0 1 245.800006 66.400002 A 0.3 0.3 0 0 1 246.100006 66.100002 A 0.3 0.3 0 0 1 246.400006 66.400002 Z" class="st1" style="fill: rgb(255, 255, 255);"/>
			<path d="M 248.600003 72.400002 A 0.3 0.3 0 0 1 248.300003 72.700002 A 0.3 0.3 0 0 1 248.000003 72.400002 A 0.3 0.3 0 0 1 248.300003 72.100002 A 0.3 0.3 0 0 1 248.600003 72.400002 Z" class="st1" style="fill: rgb(255, 255, 255);"/>
			<path d="M 201.499997 70.300003 A 0.3 0.3 0 0 1 201.199997 70.600003 A 0.3 0.3 0 0 1 200.899997 70.300003 A 0.3 0.3 0 0 1 201.199997 70.000003 A 0.3 0.3 0 0 1 201.499997 70.300003 Z" class="st1" style="fill: rgb(255, 255, 255);"/>
			<path d="M 209.3 77 A 0.3 0.3 0 0 1 209 77.3 A 0.3 0.3 0 0 1 208.7 77 A 0.3 0.3 0 0 1 209 76.7 A 0.3 0.3 0 0 1 209.3 77 Z" class="st1" style="fill: rgb(255, 255, 255);"/>
			<path d="M 197.100003 76.699997 A 0.3 0.3 0 0 1 196.800003 76.999997 A 0.3 0.3 0 0 1 196.500003 76.699997 A 0.3 0.3 0 0 1 196.800003 76.399997 A 0.3 0.3 0 0 1 197.100003 76.699997 Z" class="st1" style="fill: rgb(255, 255, 255);"/>
		</g>
		<g id="waves_3_">
			<path class="st8" d="M232.7,87.7c-4,2.3-4.3-1.4-8,0.3C228.4,87.3,228.8,91.2,232.7,87.7z" style="fill-rule: evenodd; clip-rule: evenodd; fill: rgb(255, 255, 255);"/>
			<path d="M 240.000003 84.599998 A 0.7 0.7 0 0 1 239.300003 85.299998 A 0.7 0.7 0 0 1 238.600003 84.599998 A 0.7 0.7 0 0 1 239.300003 83.899998 A 0.7 0.7 0 0 1 240.000003 84.599998 Z" class="st9" style="opacity: 0.3; fill: rgb(255, 255, 255);"/>
			<path d="M 318.900012 89.199997 A 0.7 0.7 0 0 1 318.200012 89.899997 A 0.7 0.7 0 0 1 317.500012 89.199997 A 0.7 0.7 0 0 1 318.200012 88.499997 A 0.7 0.7 0 0 1 318.900012 89.199997 Z" class="st10" style="opacity: 0.5; fill: rgb(255, 255, 255);"/>
			<path d="M 265.199994 92.699997 A 0.3 0.3 0 0 1 264.899994 92.999997 A 0.3 0.3 0 0 1 264.599994 92.699997 A 0.3 0.3 0 0 1 264.899994 92.399997 A 0.3 0.3 0 0 1 265.199994 92.699997 Z" class="st1" style="fill: rgb(255, 255, 255);"/>
			<path d="M 274.8 82.099998 A 0.3 0.3 0 0 1 274.5 82.399998 A 0.3 0.3 0 0 1 274.2 82.099998 A 0.3 0.3 0 0 1 274.5 81.799998 A 0.3 0.3 0 0 1 274.8 82.099998 Z" class="st1" style="fill: rgb(255, 255, 255);"/>
			<path d="M 287.900006 88.300003 A 0.3 0.3 0 0 1 287.600006 88.600003 A 0.3 0.3 0 0 1 287.300006 88.300003 A 0.3 0.3 0 0 1 287.600006 88.000003 A 0.3 0.3 0 0 1 287.900006 88.300003 Z" class="st1" style="fill: rgb(255, 255, 255);"/>
			<path d="M 236.199994 87.5 A 0.3 0.3 0 0 1 235.899994 87.8 A 0.3 0.3 0 0 1 235.599994 87.5 A 0.3 0.3 0 0 1 235.899994 87.2 A 0.3 0.3 0 0 1 236.199994 87.5 Z" class="st1" style="fill: rgb(255, 255, 255);"/>
			<path d="M 240.600003 90.800003 A 0.3 0.2 0 0 1 240.300003 91.000003 A 0.3 0.2 0 0 1 240.000003 90.800003 A 0.3 0.2 0 0 1 240.300003 90.600003 A 0.3 0.2 0 0 1 240.600003 90.800003 Z" class="st1" style="fill: rgb(255, 255, 255);"/>
			<path d="M 299.400006 81.199997 A 0.3 0.3 0 0 1 299.100006 81.499997 A 0.3 0.3 0 0 1 298.800006 81.199997 A 0.3 0.3 0 0 1 299.100006 80.899997 A 0.3 0.3 0 0 1 299.400006 81.199997 Z" class="st1" style="fill: rgb(255, 255, 255);"/>
			<path d="M 309.500012 88.5 A 0.3 0.3 0 0 1 309.200012 88.8 A 0.3 0.3 0 0 1 308.900012 88.5 A 0.3 0.3 0 0 1 309.200012 88.2 A 0.3 0.3 0 0 1 309.500012 88.5 Z" class="st1" style="fill: rgb(255, 255, 255);"/>
		</g>
	</g>
	<g>
		<g id="waves_8_">
			<path class="st7" d="M11.7,98.5c4-2.3,4.3,1.4,8-0.3C16.1,98.8,15.7,95,11.7,98.5z" style="opacity: 0.8; fill-rule: evenodd; clip-rule: evenodd; fill: rgb(255, 255, 255);"/>
			<path class="st8" d="M177.9,101.8c4-2.3,4.3,1.4,8-0.3C182.2,102.1,181.8,98.3,177.9,101.8z" style="fill-rule: evenodd; clip-rule: evenodd; fill: rgb(255, 255, 255);"/>
			<path d="M 172.099994 104.800003 A 0.7 0.7 0 0 1 171.399994 105.500003 A 0.7 0.7 0 0 1 170.699994 104.800003 A 0.7 0.7 0 0 1 171.399994 104.100003 A 0.7 0.7 0 0 1 172.099994 104.800003 Z" class="st9" style="opacity: 0.3; fill: rgb(255, 255, 255);"/>
			<path d="M 93.2 100.300003 A 0.7 0.7 0 0 1 92.5 101.000003 A 0.7 0.7 0 0 1 91.8 100.300003 A 0.7 0.7 0 0 1 92.5 99.600003 A 0.7 0.7 0 0 1 93.2 100.300003 Z" class="st10" style="opacity: 0.5; fill: rgb(255, 255, 255);"/>
			<path d="M 44.999999 108.5 A 0.7 0.7 0 0 1 44.299999 109.2 A 0.7 0.7 0 0 1 43.599999 108.5 A 0.7 0.7 0 0 1 44.299999 107.8 A 0.7 0.7 0 0 1 44.999999 108.5 Z" class="st1" style="fill: rgb(255, 255, 255);"/>
			<path d="M 146.100003 96.699997 A 0.3 0.3 0 0 1 145.800003 96.999997 A 0.3 0.3 0 0 1 145.500003 96.699997 A 0.3 0.3 0 0 1 145.800003 96.399997 A 0.3 0.3 0 0 1 146.100003 96.699997 Z" class="st1" style="fill: rgb(255, 255, 255);"/>
			<path d="M 136.400006 107.300003 A 0.3 0.3 0 0 1 136.100006 107.600003 A 0.3 0.3 0 0 1 135.800006 107.300003 A 0.3 0.3 0 0 1 136.100006 107.000003 A 0.3 0.3 0 0 1 136.400006 107.300003 Z" class="st1" style="fill: rgb(255, 255, 255);"/>
			<path d="M 123.3 101.099998 A 0.3 0.3 0 0 1 123 101.399998 A 0.3 0.3 0 0 1 122.7 101.099998 A 0.3 0.3 0 0 1 123 100.799998 A 0.3 0.3 0 0 1 123.3 101.099998 Z" class="st1" style="fill: rgb(255, 255, 255);"/>
			<path d="M 175.100003 101.900002 A 0.3 0.3 0 0 1 174.800003 102.200002 A 0.3 0.3 0 0 1 174.500003 101.900002 A 0.3 0.3 0 0 1 174.800003 101.600002 A 0.3 0.3 0 0 1 175.100003 101.900002 Z" class="st1" style="fill: rgb(255, 255, 255);"/>
			<path d="M 170.699994 98.699997 A 0.3 0.3 0 0 1 170.399994 98.999997 A 0.3 0.3 0 0 1 170.099994 98.699997 A 0.3 0.3 0 0 1 170.399994 98.399997 A 0.3 0.3 0 0 1 170.699994 98.699997 Z" class="st1" style="fill: rgb(255, 255, 255);"/>
			<path d="M 111.8 108.199997 A 0.3 0.3 0 0 1 111.5 108.499997 A 0.3 0.3 0 0 1 111.2 108.199997 A 0.3 0.3 0 0 1 111.5 107.899997 A 0.3 0.3 0 0 1 111.8 108.199997 Z" class="st1" style="fill: rgb(255, 255, 255);"/>
			<path d="M 34.500001 97.5 A 0.3 0.3 0 0 1 34.200001 97.8 A 0.3 0.3 0 0 1 33.900001 97.5 A 0.3 0.3 0 0 1 34.200001 97.2 A 0.3 0.3 0 0 1 34.500001 97.5 Z" class="st1" style="fill: rgb(255, 255, 255);"/>
			<path d="M 52.8 97 A 0.3 0.3 0 0 1 52.5 97.3 A 0.3 0.3 0 0 1 52.2 97 A 0.3 0.3 0 0 1 52.5 96.7 A 0.3 0.3 0 0 1 52.8 97 Z" class="st1" style="fill: rgb(255, 255, 255);"/>
			<path d="M 55.000001 102.900002 A 0.3 0.3 0 0 1 54.700001 103.200002 A 0.3 0.3 0 0 1 54.400001 102.900002 A 0.3 0.3 0 0 1 54.700001 102.600002 A 0.3 0.3 0 0 1 55.000001 102.900002 Z" class="st1" style="fill: rgb(255, 255, 255);"/>
			<path d="M 7.9 100.900002 A 0.3 0.3 0 0 1 7.6 101.200002 A 0.3 0.3 0 0 1 7.3 100.900002 A 0.3 0.3 0 0 1 7.6 100.600002 A 0.3 0.3 0 0 1 7.9 100.900002 Z" class="st1" style="fill: rgb(255, 255, 255);"/>
			<path d="M 15.7 107.599998 A 0.3 0.3 0 0 1 15.4 107.899998 A 0.3 0.3 0 0 1 15.1 107.599998 A 0.3 0.3 0 0 1 15.4 107.299998 A 0.3 0.3 0 0 1 15.7 107.599998 Z" class="st1" style="fill: rgb(255, 255, 255);"/>
			<path d="M 3.5 107.300003 A 0.3 0.3 0 0 1 3.2 107.600003 A 0.3 0.3 0 0 1 2.9 107.300003 A 0.3 0.3 0 0 1 3.2 107.000003 A 0.3 0.3 0 0 1 3.5 107.300003 Z" class="st1" style="fill: rgb(255, 255, 255);"/>
		</g>
		<g id="waves_7_">
			<path class="st6" d="M70.2,119.1c-5.3,3-5.6-1.8-10.6,0.4C64.5,118.7,65,123.7,70.2,119.1z" style="opacity: 0.6; fill-rule: evenodd; clip-rule: evenodd; fill: rgb(255, 255, 255);"/>
			<path class="st11" d="M11,121.5c-4,2.3-4.3-1.4-8,0.3C6.7,121.2,7.1,125,11,121.5z" style="opacity: 0.4; fill-rule: evenodd; clip-rule: evenodd; fill: rgb(255, 255, 255);"/>
			<path d="M 46.400001 115.199997 A 0.7 0.7 0 0 1 45.700001 115.899997 A 0.7 0.7 0 0 1 45.000001 115.199997 A 0.7 0.7 0 0 1 45.700001 114.499997 A 0.7 0.7 0 0 1 46.400001 115.199997 Z" class="st9" style="opacity: 0.3; fill: rgb(255, 255, 255);"/>
			<path d="M 125.2 119.699997 A 0.7 0.7 0 0 1 124.5 120.399997 A 0.7 0.7 0 0 1 123.8 119.699997 A 0.7 0.7 0 0 1 124.5 118.999997 A 0.7 0.7 0 0 1 125.2 119.699997 Z" class="st10" style="opacity: 0.5; fill: rgb(255, 255, 255);"/>
			<path d="M 173.500003 111.5 A 0.7 0.7 0 0 1 172.800003 112.2 A 0.7 0.7 0 0 1 172.100003 111.5 A 0.7 0.7 0 0 1 172.800003 110.8 A 0.7 0.7 0 0 1 173.500003 111.5 Z" class="st1" style="fill: rgb(255, 255, 255);"/>
			<path d="M 71.499997 123.300003 A 0.3 0.3 0 0 1 71.199997 123.600003 A 0.3 0.3 0 0 1 70.899997 123.300003 A 0.3 0.3 0 0 1 71.199997 123.000003 A 0.3 0.3 0 0 1 71.499997 123.300003 Z" class="st1" style="fill: rgb(255, 255, 255);"/>
			<path d="M 81.200002 112.699997 A 0.3 0.3 0 0 1 80.900002 112.999997 A 0.3 0.3 0 0 1 80.600002 112.699997 A 0.3 0.3 0 0 1 80.900002 112.399997 A 0.3 0.3 0 0 1 81.200002 112.699997 Z" class="st1" style="fill: rgb(255, 255, 255);"/>
			<path d="M 94.3 118.900002 A 0.3 0.3 0 0 1 94 119.200002 A 0.3 0.3 0 0 1 93.7 118.900002 A 0.3 0.3 0 0 1 94 118.600002 A 0.3 0.3 0 0 1 94.3 118.900002 Z" class="st1" style="fill: rgb(255, 255, 255);"/>
			<path d="M 42.599999 118.099998 A 0.3 0.3 0 0 1 42.299999 118.399998 A 0.3 0.3 0 0 1 41.999999 118.099998 A 0.3 0.3 0 0 1 42.299999 117.799998 A 0.3 0.3 0 0 1 42.599999 118.099998 Z" class="st1" style="fill: rgb(255, 255, 255);"/>
			<path d="M 47.000001 121.300003 A 0.3 0.3 0 0 1 46.700001 121.600003 A 0.3 0.3 0 0 1 46.400001 121.300003 A 0.3 0.3 0 0 1 46.700001 121.000003 A 0.3 0.3 0 0 1 47.000001 121.300003 Z" class="st1" style="fill: rgb(255, 255, 255);"/>
			<path d="M 183.100003 122.5 A 0.3 0.3 0 0 1 182.800003 122.8 A 0.3 0.3 0 0 1 182.500003 122.5 A 0.3 0.3 0 0 1 182.800003 122.2 A 0.3 0.3 0 0 1 183.100003 122.5 Z" class="st1" style="fill: rgb(255, 255, 255);"/>
			<path d="M 164.900006 123 A 0.3 0.3 0 0 1 164.600006 123.3 A 0.3 0.3 0 0 1 164.300006 123 A 0.3 0.3 0 0 1 164.600006 122.7 A 0.3 0.3 0 0 1 164.900006 123 Z" class="st1" style="fill: rgb(255, 255, 255);"/>
			<path d="M 162.699994 117.099998 A 0.3 0.3 0 0 1 162.399994 117.399998 A 0.3 0.3 0 0 1 162.099994 117.099998 A 0.3 0.3 0 0 1 162.399994 116.799998 A 0.3 0.3 0 0 1 162.699994 117.099998 Z" class="st1" style="fill: rgb(255, 255, 255);"/>
			<path d="M 103.700002 118.800003 A 0.3 0.3 0 0 1 103.400002 119.100003 A 0.3 0.3 0 0 1 103.100002 118.800003 A 0.3 0.3 0 0 1 103.400002 118.500003 A 0.3 0.3 0 0 1 103.700002 118.800003 Z" class="st1" style="fill: rgb(255, 255, 255);"/>
		</g>
	</g>
	<g>
		<g id="waves_6_">
			<path class="st8" d="M277.1,103.6c4-2.3,4.3,1.4,8-0.3C281.4,103.9,281,100.1,277.1,103.6z" style="fill-rule: evenodd; clip-rule: evenodd; fill: rgb(255, 255, 255);"/>
			<path d="M 286.800006 100.300003 A 0.7 0.7 0 0 1 286.100006 101.000003 A 0.7 0.7 0 0 1 285.400006 100.300003 A 0.7 0.7 0 0 1 286.100006 99.600003 A 0.7 0.7 0 0 1 286.800006 100.300003 Z" class="st10" style="opacity: 0.5; fill: rgb(255, 255, 255);"/>
			<path d="M 238.599994 108.5 A 0.7 0.7 0 0 1 237.899994 109.2 A 0.7 0.7 0 0 1 237.199994 108.5 A 0.7 0.7 0 0 1 237.899994 107.8 A 0.7 0.7 0 0 1 238.599994 108.5 Z" class="st1" style="fill: rgb(255, 255, 255);"/>
			<path d="M 330.000012 107.300003 A 0.3 0.3 0 0 1 329.700012 107.600003 A 0.3 0.3 0 0 1 329.400012 107.300003 A 0.3 0.3 0 0 1 329.700012 107.000003 A 0.3 0.3 0 0 1 330.000012 107.300003 Z" class="st1" style="fill: rgb(255, 255, 255);"/>
			<path d="M 317.000012 101.099998 A 0.3 0.3 0 0 1 316.700012 101.399998 A 0.3 0.3 0 0 1 316.400012 101.099998 A 0.3 0.3 0 0 1 316.700012 100.799998 A 0.3 0.3 0 0 1 317.000012 101.099998 Z" class="st1" style="fill: rgb(255, 255, 255);"/>
			<path d="M 228.100003 97.5 A 0.3 0.3 0 0 1 227.800003 97.8 A 0.3 0.3 0 0 1 227.500003 97.5 A 0.3 0.3 0 0 1 227.800003 97.2 A 0.3 0.3 0 0 1 228.100003 97.5 Z" class="st1" style="fill: rgb(255, 255, 255);"/>
			<path d="M 246.400006 97 A 0.3 0.3 0 0 1 246.100006 97.3 A 0.3 0.3 0 0 1 245.800006 97 A 0.3 0.3 0 0 1 246.100006 96.7 A 0.3 0.3 0 0 1 246.400006 97 Z" class="st1" style="fill: rgb(255, 255, 255);"/>
			<path d="M 248.600003 102.900002 A 0.3 0.3 0 0 1 248.300003 103.200002 A 0.3 0.3 0 0 1 248.000003 102.900002 A 0.3 0.3 0 0 1 248.300003 102.600002 A 0.3 0.3 0 0 1 248.600003 102.900002 Z" class="st1" style="fill: rgb(255, 255, 255);"/>
			<path d="M 201.499997 100.900002 A 0.3 0.3 0 0 1 201.199997 101.200002 A 0.3 0.3 0 0 1 200.899997 100.900002 A 0.3 0.3 0 0 1 201.199997 100.600002 A 0.3 0.3 0 0 1 201.499997 100.900002 Z" class="st1" style="fill: rgb(255, 255, 255);"/>
			<path d="M 209.3 107.599998 A 0.3 0.3 0 0 1 209 107.899998 A 0.3 0.3 0 0 1 208.7 107.599998 A 0.3 0.3 0 0 1 209 107.299998 A 0.3 0.3 0 0 1 209.3 107.599998 Z" class="st1" style="fill: rgb(255, 255, 255);"/>
			<path d="M 197.100003 107.300003 A 0.3 0.3 0 0 1 196.800003 107.600003 A 0.3 0.3 0 0 1 196.500003 107.300003 A 0.3 0.3 0 0 1 196.800003 107.000003 A 0.3 0.3 0 0 1 197.100003 107.300003 Z" class="st1" style="fill: rgb(255, 255, 255);"/>
		</g>
		<g id="waves_5_">
			<path class="st6" d="M263.9,119.1c-5.3,3-5.6-1.8-10.6,0.4C258.1,118.7,258.7,123.7,263.9,119.1z" style="opacity: 0.6; fill-rule: evenodd; clip-rule: evenodd; fill: rgb(255, 255, 255);"/>
			<path class="st8" d="M327.2,116.4c-4,2.3-4.3-1.4-8,0.3C322.9,116.1,323.3,119.9,327.2,116.4z" style="fill-rule: evenodd; clip-rule: evenodd; fill: rgb(255, 255, 255);"/>
			<path d="M 240.000003 115.199997 A 0.7 0.7 0 0 1 239.300003 115.899997 A 0.7 0.7 0 0 1 238.600003 115.199997 A 0.7 0.7 0 0 1 239.300003 114.499997 A 0.7 0.7 0 0 1 240.000003 115.199997 Z" class="st9" style="opacity: 0.3; fill: rgb(255, 255, 255);"/>
			<path d="M 318.900012 119.699997 A 0.7 0.7 0 0 1 318.200012 120.399997 A 0.7 0.7 0 0 1 317.500012 119.699997 A 0.7 0.7 0 0 1 318.200012 118.999997 A 0.7 0.7 0 0 1 318.900012 119.699997 Z" class="st10" style="opacity: 0.5; fill: rgb(255, 255, 255);"/>
			<path d="M 265.199994 123.300003 A 0.3 0.3 0 0 1 264.899994 123.600003 A 0.3 0.3 0 0 1 264.599994 123.300003 A 0.3 0.3 0 0 1 264.899994 123.000003 A 0.3 0.3 0 0 1 265.199994 123.300003 Z" class="st1" style="fill: rgb(255, 255, 255);"/>
			<path d="M 274.8 112.699997 A 0.3 0.3 0 0 1 274.5 112.999997 A 0.3 0.3 0 0 1 274.2 112.699997 A 0.3 0.3 0 0 1 274.5 112.399997 A 0.3 0.3 0 0 1 274.8 112.699997 Z" class="st1" style="fill: rgb(255, 255, 255);"/>
			<path d="M 287.900006 118.900002 A 0.3 0.3 0 0 1 287.600006 119.200002 A 0.3 0.3 0 0 1 287.300006 118.900002 A 0.3 0.3 0 0 1 287.600006 118.600002 A 0.3 0.3 0 0 1 287.900006 118.900002 Z" class="st1" style="fill: rgb(255, 255, 255);"/>
			<path d="M 236.199994 118.099998 A 0.3 0.3 0 0 1 235.899994 118.399998 A 0.3 0.3 0 0 1 235.599994 118.099998 A 0.3 0.3 0 0 1 235.899994 117.799998 A 0.3 0.3 0 0 1 236.199994 118.099998 Z" class="st1" style="fill: rgb(255, 255, 255);"/>
			<path d="M 240.600003 121.300003 A 0.3 0.2 0 0 1 240.300003 121.500003 A 0.3 0.2 0 0 1 240.000003 121.300003 A 0.3 0.2 0 0 1 240.300003 121.100003 A 0.3 0.2 0 0 1 240.600003 121.300003 Z" class="st1" style="fill: rgb(255, 255, 255);"/>
			<path d="M 299.400006 111.800003 A 0.3 0.3 0 0 1 299.100006 112.100003 A 0.3 0.3 0 0 1 298.800006 111.800003 A 0.3 0.3 0 0 1 299.100006 111.500003 A 0.3 0.3 0 0 1 299.400006 111.800003 Z" class="st1" style="fill: rgb(255, 255, 255);"/>
		</g>
	</g>
</g>
<g id="kite">
	<g>
		<path d="M 218.60000610351562 12.100000381469727 L 198.89999389648438 44.70000076293945 L 218.60000610351562 44.70000076293945 Z" class="st12" style="fill: rgb(90, 48, 95);"/>
		<path d="M 218.60000610351562 87.0999984741211 L 238.39999389648438 44.70000076293945 L 218.60000610351562 44.70000076293945 Z" class="st12" style="fill: rgb(90, 48, 95);"/>
	</g>
	<g>
		<g>
			<path d="M 218.60000610351562 12.100000381469727 L 238.39999389648438 44.70000076293945 L 218.60000610351562 44.70000076293945 Z" class="st13" style="fill: rgb(208, 95, 114);"/>
			<path d="M 218.60000610351562 87.0999984741211 L 198.89999389648438 44.70000076293945 L 218.60000610351562 44.70000076293945 Z" class="st13" style="fill: rgb(208, 95, 114);"/>
		</g>
		<g>
			<path class="st14" d="M180.8,195.1h-1c0-17.7,4.4-24.4,19.2-46.5c1.2-1.7,2.4-3.6,3.7-5.5c17.7-26.7,15.5-57.1,15.5-57.4l1-0.1&#10;&#9;&#9;&#9;&#9;c0,0.3,2.2,31-15.7,58c-1.3,1.9-2.5,3.8-3.7,5.5C185.2,171.1,180.8,177.7,180.8,195.1z" style="fill: rgb(112, 121, 134);"/>
		</g>
	</g>
</g>
<g id="clouds">
	<path class="st1" d="M114.2,46.1c-0.1-3.4-2.9-6.2-6.4-6.1c-0.1,0-0.2,0-0.2,0c-1.5-2.5-4.3-4.1-7.4-4.1c-3.8,0-7.1,2.5-8.2,6&#10;&#9;&#9;c-2.3,0.1-4.2,2-4.2,4.3H114.2z" style="fill: rgb(255, 255, 255);"/>
	<defs>
		<filter id="Adobe_OpacityMaskFilter" filterUnits="userSpaceOnUse" x="110.6" y="28.8" width="10.4" height="4">
			<feFlood style="flood-color:white;flood-opacity:1" result="back"/>
			<feBlend in="SourceGraphic" in2="back" mode="normal"/>
		</filter>
	</defs>
	<mask maskUnits="userSpaceOnUse" x="110.6" y="28.8" width="10.4" height="4" id="SVGID_1_">
		<g class="st15" style="filter: url('#Adobe_OpacityMaskFilter');">
			<defs>
				<filter id="Adobe_OpacityMaskFilter_1_" filterUnits="userSpaceOnUse" x="110.6" y="28.8" width="10.4" height="4">
					<feFlood style="flood-color:white;flood-opacity:1" result="back"/>
					<feBlend in="SourceGraphic" in2="back" mode="normal"/>
				</filter>
			</defs>
			<mask maskUnits="userSpaceOnUse" x="110.6" y="28.8" width="10.4" height="4" id="SVGID_1_">
				<g class="st16" style="filter: url('#Adobe_OpacityMaskFilter_1_');">
				</g>
			</mask>
			<linearGradient id="SVGID_2_" gradientUnits="userSpaceOnUse" x1="110.6303" y1="30.8335" x2="121.0034" y2="30.8335">
				<stop offset="0" style="stop-color:#808080"/>
				<stop offset="1" style="stop-color:#FFFFFF"/>
			</linearGradient>
			<path class="st17" d="M121,32.8c0-1.3-1.2-2.4-2.5-2.4c0,0-0.1,0-0.1,0c-0.6-1-1.7-1.6-2.9-1.6c-1.5,0-2.8,1-3.2,2.3&#10;&#9;&#9;&#9;&#9;c-0.9,0-1.6,0.8-1.6,1.7H121z" style="mask: url('#SVGID_1_'); fill: url('#SVGID_2_');"/>
		</g>
	</mask>
	<linearGradient id="SVGID_3_" gradientUnits="userSpaceOnUse" x1="110.6303" y1="30.8335" x2="121.0034" y2="30.8335">
		<stop offset="0" style="stop-color:#FFFFFF"/>
		<stop offset="1" style="stop-color:#FFFFFF"/>
	</linearGradient>
	<path class="st18" d="M121,32.8c0-1.3-1.2-2.4-2.5-2.4c0,0-0.1,0-0.1,0c-0.6-1-1.7-1.6-2.9-1.6c-1.5,0-2.8,1-3.2,2.3&#10;&#9;&#9;c-0.9,0-1.6,0.8-1.6,1.7H121z" style="fill: url('#SVGID_3_');"/>
	<defs>
		<filter id="Adobe_OpacityMaskFilter_2_" filterUnits="userSpaceOnUse" x="222.9" y="14" width="10.4" height="4">
			<feFlood style="flood-color:white;flood-opacity:1" result="back"/>
			<feBlend in="SourceGraphic" in2="back" mode="normal"/>
		</filter>
	</defs>
	<mask maskUnits="userSpaceOnUse" x="222.9" y="14" width="10.4" height="4" id="SVGID_4_">
		<g class="st19" style="filter: url('#Adobe_OpacityMaskFilter_2_');">
			<defs>
				<filter id="Adobe_OpacityMaskFilter_3_" filterUnits="userSpaceOnUse" x="222.9" y="14" width="10.4" height="4">
					<feFlood style="flood-color:white;flood-opacity:1" result="back"/>
					<feBlend in="SourceGraphic" in2="back" mode="normal"/>
				</filter>
			</defs>
			<mask maskUnits="userSpaceOnUse" x="222.9" y="14" width="10.4" height="4" id="SVGID_4_">
				<g class="st20" style="filter: url('#Adobe_OpacityMaskFilter_3_');">
				</g>
			</mask>
			<linearGradient id="SVGID_5_" gradientUnits="userSpaceOnUse" x1="222.9453" y1="15.9991" x2="233.3183" y2="15.9991">
				<stop offset="0" style="stop-color:#808080"/>
				<stop offset="1" style="stop-color:#FFFFFF"/>
			</linearGradient>
			<path class="st21" d="M233.3,18c0-1.3-1.2-2.4-2.5-2.4c0,0-0.1,0-0.1,0c-0.6-1-1.7-1.6-2.9-1.6c-1.5,0-2.8,1-3.2,2.3&#10;&#9;&#9;&#9;&#9;c-0.9,0-1.6,0.8-1.6,1.7H233.3z" style="mask: url('#SVGID_4_'); fill: url('#SVGID_5_');"/>
		</g>
	</mask>
	<linearGradient id="SVGID_6_" gradientUnits="userSpaceOnUse" x1="222.9453" y1="15.9991" x2="233.3183" y2="15.9991">
		<stop offset="0" style="stop-color:#FFFFFF"/>
		<stop offset="1" style="stop-color:#FFFFFF"/>
	</linearGradient>
	<path class="st22" d="M233.3,18c0-1.3-1.2-2.4-2.5-2.4c0,0-0.1,0-0.1,0c-0.6-1-1.7-1.6-2.9-1.6c-1.5,0-2.8,1-3.2,2.3&#10;&#9;&#9;c-0.9,0-1.6,0.8-1.6,1.7H233.3z" style="fill: url('#SVGID_6_');"/>
	<path class="st1" d="M334.1,45.1c-0.1-2.8-2.4-5.1-5.3-5.1c-0.1,0-0.1,0-0.2,0c-1.3-2.1-3.5-3.4-6.1-3.4c-3.2,0-5.9,2.1-6.8,4.9&#10;&#9;&#9;c-1.9,0.1-3.4,1.6-3.4,3.5H334.1z" style="fill: rgb(255, 255, 255);"/>
	<path class="st1" d="M24.2,16.5c-0.1-1.8-1.6-3.3-3.4-3.3c0,0-0.1,0-0.1,0c-0.8-1.3-2.3-2.2-4-2.2c-2.1,0-3.8,1.3-4.4,3.2&#10;&#9;&#9;c-1.2,0-2.2,1-2.2,2.3H24.2z" style="fill: rgb(255, 255, 255);"/>
	<path class="st10" d="M312.1,36c-0.5-7.3-6.6-13.1-14.1-13.1c-1.4,0-2.7,0.2-3.9,0.6c-2.6-3.3-6.6-5.5-11.2-5.5&#10;&#9;&#9;c-2.9,0-5.5,0.8-7.7,2.3C272,17.6,268,16,263.5,16c-8.1,0-14.9,5.3-17.3,12.5c-4.3,0.1-7.9,3.3-8.6,7.5H312.1z" style="opacity: 0.5; fill: rgb(255, 255, 255);"/>
	<defs>
		<filter id="Adobe_OpacityMaskFilter_4_" filterUnits="userSpaceOnUse" x="0" y="17.5" width="71.5" height="19.2">
			<feFlood style="flood-color:white;flood-opacity:1" result="back"/>
			<feBlend in="SourceGraphic" in2="back" mode="normal"/>
		</filter>
	</defs>
	<mask maskUnits="userSpaceOnUse" x="0" y="17.5" width="71.5" height="19.2" id="SVGID_7_">
		<g class="st23" style="filter: url('#Adobe_OpacityMaskFilter_4_');">
			<defs>
				<filter id="Adobe_OpacityMaskFilter_5_" filterUnits="userSpaceOnUse" x="0" y="17.5" width="71.5" height="19.2">
					<feFlood style="flood-color:white;flood-opacity:1" result="back"/>
					<feBlend in="SourceGraphic" in2="back" mode="normal"/>
				</filter>
			</defs>
			<mask maskUnits="userSpaceOnUse" x="0" y="17.5" width="71.5" height="19.2" id="SVGID_7_">
				<g class="st24" style="filter: url('#Adobe_OpacityMaskFilter_5_');">
				</g>
			</mask>
			<linearGradient id="SVGID_8_" gradientUnits="userSpaceOnUse" x1="4.290425e-02" y1="27.1072" x2="71.5268" y2="27.1072">
				<stop offset="0" style="stop-color:#808080"/>
				<stop offset="1" style="stop-color:#FFFFFF"/>
			</linearGradient>
			<path class="st25" d="M71.5,36.7c-0.5-7-6.4-12.6-13.5-12.6c-1.3,0-2.6,0.2-3.8,0.5c-2.5-3.2-6.4-5.3-10.7-5.3&#10;&#9;&#9;&#9;&#9;c-2.7,0-5.3,0.8-7.4,2.2c-3-2.5-6.9-4.1-11.2-4.1c-7.8,0-14.3,5-16.6,12c-4.2,0.1-7.6,3.2-8.3,7.2H71.5z" style="mask: url('#SVGID_7_'); fill: url('#SVGID_8_');"/>
		</g>
	</mask>
	<linearGradient id="SVGID_9_" gradientUnits="userSpaceOnUse" x1="4.290425e-02" y1="27.1072" x2="71.5268" y2="27.1072">
		<stop offset="0" style="stop-color:#FFFFFF"/>
		<stop offset="1" style="stop-color:#FFFFFF"/>
	</linearGradient>
	<path class="st26" d="M71.5,36.7c-0.5-7-6.4-12.6-13.5-12.6c-1.3,0-2.6,0.2-3.8,0.5c-2.5-3.2-6.4-5.3-10.7-5.3&#10;&#9;&#9;c-2.7,0-5.3,0.8-7.4,2.2c-3-2.5-6.9-4.1-11.2-4.1c-7.8,0-14.3,5-16.6,12c-4.2,0.1-7.6,3.2-8.3,7.2H71.5z" style="fill: url('#SVGID_9_');"/>
	<path class="st1" d="M63.2,28.3c-0.3,0-1.1-0.1-1.1-0.1s-0.5-0.8-0.5-0.9c0-0.1-0.1-0.1-0.1-0.1c-0.1,0-0.1,0.1-0.1,0.1&#10;&#9;&#9;c-0.1,0.2-0.4,0.7-0.5,0.9c0,0-0.8,0.1-1.1,0.1c-0.3,0-0.1,0.2,0,0.3c0.1,0.1,0.7,0.7,0.7,0.7s-0.1,0.9-0.2,1.1&#10;&#9;&#9;c0,0.2,0.1,0.2,0.2,0.1c0.1-0.1,1-0.5,1-0.5l0.1,0l0.1,0c0,0,0.8,0.5,1,0.5c0.1,0.1,0.2,0,0.2-0.1c0-0.2-0.2-1.1-0.2-1.1&#10;&#9;&#9;s0.7-0.6,0.7-0.7C63.3,28.5,63.4,28.3,63.2,28.3z" style="fill: rgb(255, 255, 255);"/>
	<path class="st27" d="M137.4,51.6c-0.3,0-1.1-0.1-1.1-0.1s-0.5-0.8-0.5-0.9c0-0.1-0.1-0.1-0.1-0.1c-0.1,0-0.1,0.1-0.1,0.1&#10;&#9;&#9;c-0.1,0.2-0.4,0.7-0.5,0.9c0,0-0.8,0.1-1.1,0.1c-0.3,0-0.1,0.2,0,0.3c0.1,0.1,0.7,0.7,0.7,0.7s-0.1,0.9-0.2,1.1&#10;&#9;&#9;c0,0.2,0.1,0.2,0.2,0.1c0.1-0.1,1-0.5,1-0.5l0.1,0l0.1,0c0,0,0.8,0.5,1,0.5c0.1,0.1,0.2,0,0.2-0.1c0-0.2-0.2-1.1-0.2-1.1&#10;&#9;&#9;s0.7-0.6,0.7-0.7C137.6,51.7,137.7,51.6,137.4,51.6z" style="fill: rgb(235, 251, 255);"/>
	<path class="st27" d="M184.4,44.1c-0.3,0-1.1-0.1-1.1-0.1s-0.5-0.8-0.5-0.9c0-0.1-0.1-0.1-0.1-0.1c-0.1,0-0.1,0.1-0.1,0.1&#10;&#9;&#9;c-0.1,0.2-0.4,0.7-0.5,0.9c0,0-0.8,0.1-1.1,0.1c-0.3,0-0.1,0.2,0,0.3c0.1,0.1,0.7,0.7,0.7,0.7s-0.1,0.9-0.2,1.1&#10;&#9;&#9;c0,0.2,0.1,0.2,0.2,0.1c0.1-0.1,0.9-0.5,0.9-0.5l0.1,0l0.1,0c0,0,0.8,0.5,0.9,0.5c0.1,0.1,0.2,0,0.2-0.1c0-0.2-0.2-1.1-0.2-1.1&#10;&#9;&#9;s0.7-0.6,0.7-0.7C184.5,44.3,184.6,44.2,184.4,44.1z" style="fill: rgb(235, 251, 255);"/>
	<path class="st1" d="M148.2,41.7c-0.3,0-1.1-0.1-1.1-0.1s-0.5-0.8-0.5-0.9c0-0.1-0.1-0.1-0.1-0.1c-0.1,0-0.1,0.1-0.1,0.1&#10;&#9;&#9;c-0.1,0.2-0.4,0.7-0.5,0.9c0,0-0.8,0.1-1.1,0.1c-0.3,0-0.1,0.2,0,0.3c0.1,0.1,0.7,0.7,0.7,0.7s-0.1,0.9-0.2,1.1&#10;&#9;&#9;c0,0.2,0.1,0.2,0.2,0.1c0.1-0.1,1-0.5,1-0.5l0.1,0l0.1,0c0,0,0.8,0.5,1,0.5c0.1,0.1,0.2,0,0.2-0.1c0-0.2-0.2-1.1-0.2-1.1&#10;&#9;&#9;s0.7-0.6,0.7-0.7C148.3,41.9,148.5,41.8,148.2,41.7z" style="fill: rgb(255, 255, 255);"/>
	<path class="st27" d="M18.4,43.1c-0.2,0-0.8-0.1-0.8-0.1s-0.3-0.6-0.4-0.7c0,0,0-0.1-0.1-0.1c0,0-0.1,0-0.1,0.1&#10;&#9;&#9;c-0.1,0.1-0.3,0.5-0.4,0.7c0,0-0.6,0.1-0.8,0.1c-0.2,0-0.1,0.1,0,0.2c0.1,0.1,0.5,0.5,0.5,0.5s-0.1,0.7-0.1,0.8&#10;&#9;&#9;c0,0.1,0,0.1,0.1,0.1c0.1,0,0.7-0.4,0.7-0.4l0,0l0,0c0,0,0.6,0.4,0.7,0.4c0.1,0,0.1,0,0.1-0.1c0-0.1-0.1-0.8-0.1-0.8&#10;&#9;&#9;s0.5-0.5,0.5-0.5C18.5,43.2,18.6,43.1,18.4,43.1z" style="fill: rgb(235, 251, 255);"/>
	<path class="st1" d="M39.6,7.6c-0.2,0-0.9-0.1-0.9-0.1s-0.4-0.7-0.4-0.7c0,0,0-0.1-0.1-0.1c0,0-0.1,0-0.1,0.1&#10;&#9;&#9;c-0.1,0.1-0.3,0.5-0.4,0.7c0,0-0.7,0.1-0.9,0.1c-0.2,0-0.1,0.1,0,0.2c0.1,0.1,0.6,0.6,0.6,0.6s-0.1,0.7-0.1,0.8&#10;&#9;&#9;c0,0.1,0,0.2,0.1,0.1c0.1,0,0.7-0.4,0.7-0.4l0,0l0,0c0,0,0.7,0.4,0.7,0.4c0.1,0,0.2,0,0.1-0.1c0-0.1-0.1-0.8-0.1-0.8&#10;&#9;&#9;s0.5-0.5,0.6-0.6C39.7,7.7,39.8,7.6,39.6,7.6z" style="fill: rgb(255, 255, 255);"/>
	<path class="st1" d="M192.3,14.7c-0.2,0-0.9-0.1-0.9-0.1s-0.4-0.7-0.4-0.7c0,0,0-0.1-0.1-0.1c0,0-0.1,0-0.1,0.1&#10;&#9;&#9;c-0.1,0.1-0.3,0.5-0.4,0.7c0,0-0.7,0.1-0.9,0.1c-0.2,0-0.1,0.1,0,0.2c0.1,0.1,0.6,0.6,0.6,0.6s-0.1,0.7-0.1,0.8&#10;&#9;&#9;c0,0.1,0,0.2,0.1,0.1c0.1,0,0.8-0.4,0.8-0.4l0,0l0,0c0,0,0.7,0.4,0.8,0.4c0.1,0,0.2,0,0.1-0.1c0-0.1-0.1-0.8-0.1-0.8&#10;&#9;&#9;s0.5-0.5,0.6-0.6C192.4,14.8,192.5,14.7,192.3,14.7z" style="fill: rgb(255, 255, 255);"/>
	<path class="st1" d="M247.8,48.7c-0.2,0-0.9-0.1-0.9-0.1s-0.4-0.7-0.4-0.7c0,0,0-0.1-0.1-0.1c0,0-0.1,0-0.1,0.1&#10;&#9;&#9;c-0.1,0.1-0.3,0.5-0.4,0.7c0,0-0.7,0.1-0.9,0.1c-0.2,0-0.1,0.1,0,0.2c0.1,0.1,0.6,0.6,0.6,0.6s-0.1,0.7-0.1,0.8&#10;&#9;&#9;c0,0.1,0,0.2,0.1,0.1c0.1,0,0.8-0.4,0.8-0.4l0,0l0,0c0,0,0.7,0.4,0.8,0.4c0.1,0,0.2,0,0.1-0.1c0-0.1-0.1-0.8-0.1-0.8&#10;&#9;&#9;s0.5-0.5,0.6-0.6C247.8,48.8,248,48.7,247.8,48.7z" style="fill: rgb(255, 255, 255);"/>
	<path class="st27" d="M168,10.3c-0.2,0-0.9-0.1-0.9-0.1s-0.4-0.7-0.4-0.7c0,0,0-0.1-0.1-0.1c0,0-0.1,0-0.1,0.1&#10;&#9;&#9;c-0.1,0.1-0.3,0.5-0.4,0.7c0,0-0.7,0.1-0.9,0.1c-0.2,0-0.1,0.1,0,0.2c0.1,0.1,0.6,0.6,0.6,0.6s-0.1,0.7-0.1,0.8&#10;&#9;&#9;c0,0.1,0,0.2,0.1,0.1c0.1,0,0.7-0.4,0.7-0.4l0,0l0,0c0,0,0.7,0.4,0.7,0.4c0.1,0,0.2,0,0.1-0.1c0-0.1-0.1-0.8-0.1-0.8&#10;&#9;&#9;s0.5-0.5,0.6-0.6C168.1,10.4,168.2,10.3,168,10.3z" style="fill: rgb(235, 251, 255);"/>
</g>
<g id="birds">
	<path class="st28" d="M262.6,44.2c-1.6-0.1-2.4-0.7-3.7-0.9c-1.5-0.3-2.7,0.4-3.6,0.7c-0.2-0.3-0.5-0.4-0.8-0.4&#10;&#9;&#9;c-0.3,0-0.6,0.1-0.8,0.4c-0.9-0.4-2.1-1.1-3.7-0.8c-1.3,0.2-2.1,0.8-3.7,0.9c-0.2,0-0.3,0-0.3,0s0.2,0,0.3,0.1&#10;&#9;&#9;c0.6,0.1,1.1,0.1,1.7,0.1c0.7,0,1.3-0.1,2-0.1c0.8,0,1.4,0.3,1.8,0.5c0.7,0.3,1.2,0.7,1.8,1.1c0.3,0.1,1,0.4,1.8,0&#10;&#9;&#9;c0.5-0.3,1-0.7,1.6-1c0.4-0.2,1-0.4,1.8-0.5c0.7,0,1.3,0.1,2,0.1C261.5,44.4,262.1,44.4,262.6,44.2c0.2,0,0.3,0,0.3,0&#10;&#9;&#9;S262.8,44.2,262.6,44.2z" style="fill-rule: evenodd; clip-rule: evenodd; fill: rgb(194, 178, 167);"/>
	<path class="st29" d="M72.2,16.5c-1-0.1-1.5-0.4-2.4-0.6c-1-0.2-1.8,0.2-2.3,0.5c-0.1-0.2-0.3-0.3-0.5-0.3c-0.2,0-0.4,0.1-0.5,0.3&#10;&#9;&#9;c-0.6-0.2-1.4-0.7-2.4-0.5c-0.9,0.2-1.4,0.5-2.4,0.6c-0.1,0-0.2,0-0.2,0s0.1,0,0.2,0c0.4,0.1,0.7,0.1,1.1,0.1&#10;&#9;&#9;c0.4,0,0.8-0.1,1.3-0.1c0.5,0,0.9,0.2,1.2,0.3c0.4,0.2,0.8,0.5,1.1,0.7c0.2,0.1,0.7,0.2,1.2,0c0.3-0.2,0.6-0.4,1-0.6&#10;&#9;&#9;c0.3-0.1,0.6-0.3,1.2-0.3c0.4,0,0.9,0.1,1.3,0.1C71.5,16.7,71.9,16.7,72.2,16.5c0.1,0,0.2,0,0.2,0S72.3,16.6,72.2,16.5z" style="fill-rule: evenodd; clip-rule: evenodd; fill: rgb(90, 48, 95);"/>
</g>
<path id="hill" class="st30" d="M147.5,53.2c-5.3-2.3-11.8-6.3-17.5-6.3c-5.7,0-12.2,4-17.5,6.3c-5.3,2.3-20,7.6-20,7.6H130h37.5&#10;&#9;C167.5,60.8,152.9,55.5,147.5,53.2z" style="fill-rule: evenodd; clip-rule: evenodd; fill: rgb(109, 78, 111);"/>
<path id="hill_1_" class="st29" d="M80.3,56.4c-3.1-1.3-6.8-3.6-10.1-3.6c-3.3,0-7,2.3-10.1,3.6c-3.1,1.3-11.5,4.4-11.5,4.4h21.6&#10;&#9;h21.6C91.9,60.8,83.4,57.8,80.3,56.4z" style="fill-rule: evenodd; clip-rule: evenodd; fill: rgb(90, 48, 95);"/>
<path id="hill_2_" class="st29" d="M303.9,58.6c-1.5-0.7-3.4-1.8-5-1.8c-1.6,0-3.5,1.2-5,1.8c-1.5,0.7-5.8,2.2-5.8,2.2h10.8h10.8&#10;&#9;C309.6,60.8,305.4,59.3,303.9,58.6z" style="fill-rule: evenodd; clip-rule: evenodd; fill: rgb(90, 48, 95);"/>
<path id="starfish_2_" class="st13" d="M50.1,219.8c-1.3-0.9,2.2-4.5,1.7-6c-0.5-1.5-5.4-2.3-4.9-3.8c0.5-1.5,5,0.7,6.2-0.2&#10;&#9;c1.3-0.9,0.6-5.8,2.1-5.8c1.6,0,0.9,4.9,2.1,5.8c1.3,0.9,5.7-1.3,6.2,0.2c0.5,1.5-4.4,2.4-4.9,3.8c-0.5,1.5,3,5,1.7,6&#10;&#9;c-1.3,0.9-3.6-3.5-5.2-3.5C53.7,216.3,51.4,220.7,50.1,219.8" style="fill: rgb(208, 95, 114);"/>
<path id="starfish_4_" class="st1" d="M285.4,173.5c-1.3-0.9,2.2-4.5,1.7-6c-0.5-1.5-5.4-2.3-4.9-3.8c0.5-1.5,5,0.7,6.2-0.2&#10;&#9;c1.3-0.9,0.6-5.8,2.1-5.8c1.6,0,0.9,4.9,2.1,5.8c1.3,0.9,5.7-1.3,6.2,0.2c0.5,1.5-4.4,2.4-4.9,3.8c-0.5,1.5,3,5,1.7,6&#10;&#9;c-1.3,0.9-3.6-3.5-5.2-3.5C289,170,286.7,174.4,285.4,173.5" style="fill: rgb(255, 255, 255);"/>
<path id="starfish_1_" class="st31" d="M288.7,220.4c-0.7-0.5,1.1-2.4,0.9-3.1c-0.3-0.8-2.8-1.2-2.6-2c0.2-0.8,2.6,0.4,3.3-0.1&#10;&#9;c0.7-0.5,0.3-3.1,1.1-3.1c0.8,0,0.5,2.6,1.1,3.1c0.7,0.5,3-0.7,3.3,0.1c0.3,0.8-2.3,1.2-2.6,2c-0.2,0.8,1.6,2.6,0.9,3.1&#10;&#9;c-0.7,0.5-1.9-1.8-2.7-1.8C290.6,218.6,289.4,220.9,288.7,220.4" style="fill: rgb(194, 178, 167);"/>
<path id="starfish_3_" class="st31" d="M209.4,167c-0.7-0.5,1.1-2.4,0.9-3.1c-0.3-0.8-2.8-1.2-2.6-2c0.2-0.8,2.6,0.4,3.3-0.1&#10;&#9;c0.7-0.5,0.3-3.1,1.1-3.1c0.8,0,0.5,2.6,1.1,3.1c0.7,0.5,3-0.7,3.3,0.1c0.3,0.8-2.3,1.2-2.6,2c-0.2,0.8,1.6,2.6,0.9,3.1&#10;&#9;c-0.7,0.5-1.9-1.8-2.7-1.8C211.3,165.2,210.1,167.5,209.4,167" style="fill: rgb(194, 178, 167);"/>

<g id="yacht_1_">
	<path class="st1" d="M119.6,94h-58l-3.4,5.7h60.2C119.1,97.8,119.6,95.9,119.6,94L119.6,94z M119.6,94" style="fill: rgb(255, 255, 255);"/>
	<path class="st33" d="M58.1,99.6l-1.7,2.8l-3.4,5.7h53.8c4,0,7.6-2.3,10-5.7c0.6-0.9,1.1-1.8,1.6-2.8H58.1z" style="fill: rgb(109, 78, 111);"/>
	<path class="st0" d="M91.3,82.6V30.3L60.1,82.6h15H91.3z" style="fill: rgb(239, 229, 212);"/>
	<path class="st0" d="M111.5,82.6h15.1L95.4,30v52.6H111.5z" style="fill: rgb(239, 229, 212);"/>
	<path d="M 93.699997 30 H 95.299997 V 94 H 93.699997 V 30 Z" class="st31" style="fill: rgb(194, 178, 167);"/>
</g>
<g id="yacht">
	<path class="st1" d="M262.2,71.4c0,0.8,0.2,1.6,0.5,2.4h25.6l-1.4-2.4H262.2L262.2,71.4z M262.2,71.4" style="fill: rgb(255, 255, 255);"/>
	<path class="st13" d="M288.4,73.8l0.7,1.2l1.4,2.4h-22.9c-1.7,0-3.2-1-4.2-2.4c-0.3-0.4-0.5-0.8-0.7-1.2H288.4z" style="fill: rgb(208, 95, 114);"/>
	<path class="st0" d="M281.1,66.6h6.4l-13.2-22.3v22.3H281.1z" style="fill: rgb(239, 229, 212);"/>
	<path class="st0" d="M272.5,66.6V44.2l-13.3,22.4h6.4H272.5z" style="fill: rgb(239, 229, 212);"/>
	<path d="M 272.5 44.200001 H 273.2 V 71.400002 H 272.5 V 44.200001 Z" class="st31" style="fill: rgb(194, 178, 167);"/>
</g>
<g id="sunshade_1_">
	<path d="M 253.800003 82.5 H 256.800003 V 196.5 H 253.800003 V 82.5 Z" class="st31" style="fill: rgb(194, 178, 167);"/>
	<path d="M 319.8999938964844 113.5 L 193.39999389648438 113.5 L 256.3999938964844 79.5999984741211 Z" class="st1" style="fill: rgb(255, 255, 255);"/>
	<linearGradient id="SVGID_10_" gradientUnits="userSpaceOnUse" x1="246.5703" y1="96.5679" x2="266.8047" y2="96.5679">
		<stop offset="0" style="stop-color:#C1E5E2"/>
		<stop offset="1" style="stop-color:#C1E5E2"/>
	</linearGradient>
	<path d="M 266.79998779296875 113.5 L 246.60000610351562 113.5 L 256.6000061035156 79.5999984741211 Z" class="st34" style="fill: url('#SVGID_10_');"/>
	<linearGradient id="SVGID_11_" gradientUnits="userSpaceOnUse" x1="256.6435" y1="96.5679" x2="305.4472" y2="96.5679">
		<stop offset="0" style="stop-color:#C1E5E2"/>
		<stop offset="1" style="stop-color:#C1E5E2"/>
	</linearGradient>
	<path d="M 305.3999938964844 113.5 L 285.20001220703125 113.5 L 256.6000061035156 79.5999984741211 Z" class="st35" style="fill: url('#SVGID_11_');"/>
	<linearGradient id="SVGID_12_" gradientUnits="userSpaceOnUse" x1="205.8095" y1="96.5679" x2="256.6435" y2="96.5679">
		<stop offset="0" style="stop-color:#C1E5E2"/>
		<stop offset="1" style="stop-color:#C1E5E2"/>
	</linearGradient>
	<path d="M 226 113.5 L 205.8000030517578 113.5 L 256.6000061035156 79.5999984741211 Z" class="st36" style="fill: url('#SVGID_12_');"/>
</g>
<g id="sunshade">
	<defs>
		<path d="M 0 129.5 H 100.5 V 234.5 H 0 V 129.5 Z" id="SVGID_13_"/>
	</defs>
	<clipPath id="SVGID_14_">
		<use style="overflow:visible;" xlink:href="#SVGID_13_"/>
	</clipPath>
	<g class="st37" style="clip-path: url('#SVGID_14_');">
		<path d="M 27.799999 134.5 H 30.799999 V 258.5 H 27.799999 V 134.5 Z" class="st31" style="fill: rgb(194, 178, 167);"/>
		<path d="M 99.5999984741211 168.5 L -38.29999923706055 168.5 L 30.399999618530273 131.5 Z" class="st13" style="fill: rgb(208, 95, 114);"/>
		<linearGradient id="SVGID_15_" gradientUnits="userSpaceOnUse" x1="19.6601" y1="150.0415" x2="41.7148" y2="150.0415">
			<stop offset="0" style="stop-color:#C1E5E2"/>
			<stop offset="1" style="stop-color:#C1E5E2"/>
		</linearGradient>
		<path d="M 41.70000076293945 168.5 L 19.700000762939453 168.5 L 30.600000381469727 131.5 Z" class="st38" style="fill: url('#SVGID_15_');"/>
		<linearGradient id="SVGID_16_" gradientUnits="userSpaceOnUse" x1="30.6396" y1="150.0415" x2="83.8344" y2="150.0415">
			<stop offset="0" style="stop-color:#C1E5E2"/>
			<stop offset="1" style="stop-color:#C1E5E2"/>
		</linearGradient>
		<path d="M 83.80000305175781 168.5 L 61.79999923706055 168.5 L 30.600000381469727 131.5 Z" class="st39" style="fill: url('#SVGID_16_');"/>
		<linearGradient id="SVGID_17_" gradientUnits="userSpaceOnUse" x1="-24.7676" y1="150.0415" x2="30.6396" y2="150.0415">
			<stop offset="0" style="stop-color:#C1E5E2"/>
			<stop offset="1" style="stop-color:#C1E5E2"/>
		</linearGradient>
		<path d="M -2.700000047683716 168.5 L -24.799999237060547 168.5 L 30.600000381469727 131.5 Z" class="st40" style="fill: url('#SVGID_17_');"/>
	</g>
</g>
</svg>