<?xml version="1.0" encoding="utf-8"?>
<svg id="master-artboard" viewBox="0 0 841.9 595.3" version="1.1" xmlns="http://www.w3.org/2000/svg" x="0px" y="0px" width="841.9000244140625px" height="595.2999877929688px" enable-background="new 0 0 841.9 595.3">
<g transform="matrix(1, 0, 0, 1, 2.842170943040401e-14, 7.105427357601002e-15)">
		<linearGradient id="SVGID_1_" gradientUnits="userSpaceOnUse" x1="420.945" y1="-30" x2="420.945" y2="482.0156">
			<stop offset="0" style="stop-color:#19516D"/>
			<stop offset="1" style="stop-color:#66BDA5"/>
		</linearGradient>
		<path d="M 0 0 H 841.900024 V 595.299988 H 0 V 0 Z" fill="url(#SVGID_1_)"/>
		<g>
			<path fill="#66BDA5" d="M0,178.6c0,0,21.1-6.6,35.1,0s36,45.6,52,47.6s51-12,67-12s76,41.2,98,44.6s50-19.7,75-25.1&#10;&#9;&#9;&#9;&#9;c25-5.5,161,14.9,191,10.7c30-4.2,57-10.3,69-10.7c12-0.5,29,13.5,46,14.5s85-51,108-51s58,33.9,74,36.5&#10;&#9;&#9;&#9;&#9;c16,2.5,26.8-16.3,26.8-16.3v215.1H0L0,178.6z"/>
			<path fill="#86C8B5" d="M0,234.3c0,0,71.1,10.2,121.1,5c45.3-4.7,91.1,40,130,39c75-2,97.1-21.8,177-26.8&#10;&#9;&#9;&#9;&#9;c50-3.2,155,21.8,190,17.2c26.8-3.6,66-30.3,97-34.3s63,15.4,82,17.2c19,1.8,44.8-8.2,44.8-8.2v189.3H0L0,234.3z"/>
			<path fill="#DEEEE8" d="M729.1,274.9c-19-0.3-103,29.3-125,29.2s-81-23.8-105-23.8s-101,37-126,36s-47-19-62-19s-77,14-110,6.8&#10;&#9;&#9;&#9;&#9;s-67-44.8-93-45.3C82.1,258.5,0,264.8,0,264.8v167.8h841.9v-145C841.9,287.6,748.1,275.3,729.1,274.9z M173.1,301.9&#10;&#9;&#9;&#9;&#9;c3.2-6.3,9.8,4.8,6.8,5.7S172.1,303.9,173.1,301.9z M141.9,286c-0.6-5,20.5,10.3,20,12s-13.3-0.5-17-3.5S141.9,286,141.9,286z&#10;&#9;&#9;&#9;&#9; M109.2,266.3c2.3-1,7.8,0.9,10.2,2c2.1,0.9,8.8,4.5,6.8,6.5S106.9,267.3,109.2,266.3z M6.6,277.4c-3.3,0-1.3-5.3,1.3-6.8&#10;&#9;&#9;&#9;&#9;c2.5-1.5,16.6-3.6,22.3-3.5C43,267.4,9.9,277.4,6.6,277.4z M77.1,271.8c-0.8,1.8-10-1.5-10.5-3.5s7.1-4.6,8.5-2.3&#10;&#9;&#9;&#9;&#9;C75.9,267.3,77.9,270,77.1,271.8z M82.6,269c0.5-2.8,28,2.5,37.8,7.5s18.9,13.8,14,13c-8.2-1.3-25.5-4-32.8-5.8&#10;&#9;&#9;&#9;&#9;S82.1,271.8,82.6,269z M154.6,312.8c-11-2.8-32.4-14-40.8-22c-7.5-7.2,68.3,20.8,68,22S165.6,315.5,154.6,312.8z M192.6,315.8&#10;&#9;&#9;&#9;&#9;c-3.3-1.3-5.5-4-5.5-7.8c0-1.7,24,3,24.8,3.9C214.1,314.3,195.9,317,192.6,315.8z M497.9,285.8c2.3-0.3,5.5,4.3,1.8,6s-7,0.1-9-1&#10;&#9;&#9;&#9;&#9;C485.8,288,495.6,286,497.9,285.8z M305.8,312.4c2.3-0.5,9.2,3.5,7.7,4.5s-6.9,1.2-9.2,1.3C300,318.5,303.4,312.9,305.8,312.4z&#10;&#9;&#9;&#9;&#9; M246.1,320.3c-1,2.5-14.3-3.4-18.5-6C221.2,310.5,247.1,317.8,246.1,320.3z M252.8,313.4c0-2,24.3-5.7,31.3-5.5&#10;&#9;&#9;&#9;&#9;c7,0.2,16,5.8,14.8,7.4c-1.2,1.6-17.7-1.9-25.2-1.9S252.8,315.4,252.8,313.4z M285.9,326.1c-2,0.3-23.8-4.9-18.5-5.8&#10;&#9;&#9;&#9;&#9;c4.3-0.8,15.3-0.7,17.3,0C286.8,320.9,287.9,325.8,285.9,326.1z M328.8,338.9c0-3,5-7.4,7.7-8.3c3.7-1.3,16-1.3,15.7,2.5&#10;&#9;&#9;&#9;&#9;C351.8,337,328.8,341.9,328.8,338.9z M330.8,324.6c-7.7,2-2.3,9.3-12.3,8.5s-30.7-8.2-27.7-10.9c3-2.7,19.5,0.7,27-1.7&#10;&#9;&#9;&#9;&#9;c4.2-1.3-4.7-9.7,0-10.3c4.7-0.7,25.3,7.7,33,12C362.1,328.6,333.4,323.9,330.8,324.6z M360.6,326.8c0.7-2.8,18-5.1,24.2-4.8&#10;&#9;&#9;&#9;&#9;c1.2,0.1,3.8,0.7,3.7,3.2C388.3,327.6,359.9,329.6,360.6,326.8z M424.9,313.5c-10.3,0,11.8-12.7,12.8-9.4c0.4,1.3,0,2.7,4,3.9&#10;&#9;&#9;&#9;&#9;S435.1,313.5,424.9,313.5z M453.6,304.1c-1.7,0.8-11.2,1.5-10.2-0.8c1-2.3,8.4-4.9,11.5-5.3C457.7,297.5,455.3,303.3,453.6,304.1&#10;&#9;&#9;&#9;&#9;z M501.9,310.5c-3.3,1-11.8-5.5-17-6.4s-25,1.9-24.8-1.1s14.2-8.7,19.8-8.8C492.6,294.3,505.1,309.5,501.9,310.5z M519.1,316.9&#10;&#9;&#9;&#9;&#9;c-11-3.3-17-19.9-13-24.3c3.3-3.7,38.3,6.7,40.7,16C547.7,312.2,530.1,320.3,519.1,316.9z M546.8,325.9c-3-2.3,0-7.6,2-8.2&#10;&#9;&#9;&#9;&#9;c2.1-0.7,8,2.2,8,4.1S549.8,328.3,546.8,325.9z M552.8,313.6c-1.7-2.7,0.6-5.2,2-5.7c1.2-0.4,4.3,0,4.3,2.8&#10;&#9;&#9;&#9;&#9;C559.1,313.6,554.4,316.3,552.8,313.6z M569.9,323.5c-6.5,0-5-6,0-9.3s23.5-1.8,31,0C607.3,315.8,576.4,323.5,569.9,323.5z&#10;&#9;&#9;&#9;&#9; M727.1,288.5c1.1-0.7,4.3-0.8,4.8,1.3s-5.3,6-6.8,4.8S725.8,289.3,727.1,288.5z M658.9,308.8c-6,4.3-29.6,8.1-29.3,2.3&#10;&#9;&#9;&#9;&#9;c0.3-3.8,18.9-9.8,25.8-9.6C657.4,301.4,664.9,304.5,658.9,308.8z M690.4,317c-0.8,1.5-20-1.8-18.8-4.5c1.3-2.7,8.1-3.1,10.8-2.3&#10;&#9;&#9;&#9;&#9;C684.9,311,691.1,315.5,690.4,317z M718.3,320.7c-1.1,4.6-23.3,7-22.2,3.1s9.9-5.6,13.5-6.2C711.9,317.2,719.5,316.1,718.3,320.7&#10;&#9;&#9;&#9;&#9;z M701.1,312.5c-6.8-0.5-12.5-4.8-16.8-6.3s-17.5,0.5-16-3.3s35.5-8.8,42.3-8.3s8.1,2.8,9,5.3C721.3,304.6,707.9,313,701.1,312.5&#10;&#9;&#9;&#9;&#9;z M740.6,307.9c-4.5,6.3-20.4,8.2-19,2.1c1.4-6.1,11.4-11.5,15.9-13.7C749,290.6,745.1,301.6,740.6,307.9z M832.4,322.3&#10;&#9;&#9;&#9;&#9;c-8-1.3-38.7-20-35.7-23.3c3-3.3,25.2-4.6,31.7,0C833.3,302.4,840.4,323.6,832.4,322.3z"/>
			<path fill="#F4C799" d="M0,432.5V291.3c0,0,47.1-18.7,66.1-16.3c19,2.3,56,37.3,83,43.3s81,0,103,7s57,19.9,75,20.4&#10;&#9;&#9;&#9;&#9;c18,0.6,116-34.4,136-34.4s60,19.7,85,21.9c25,2.1,82-15.9,102-15.9s31,15.9,50,15.9s49-26.2,64-29c15-2.8,77.8,41.6,77.8,41.6&#10;&#9;&#9;&#9;&#9;v86.9H0z"/>
			<path fill="#F7E1A7" d="M0,595.3V305.6c0,0,47.1-16.8,66.1-14.7s56,33.6,83,39c27,5.4,81,0,103,6.3s57,17.8,75,18.4&#10;&#9;&#9;&#9;&#9;c18,0.5,116-30.9,136-30.9s60,17.7,85,19.7s82-14.3,102-14.3s31,14.3,50,14.3s49-23.5,64-26.1s77.8,37.4,77.8,37.4v240.8H0z"/>
		</g>
		<path d="M 0 408.5 H 841.900024 V 493.699997 H 0 V 408.5 Z" fill="#BCBEC0"/>
		<path d="M 0 425.299988 H 841.900024 V 476.999989 H 0 V 425.299988 Z" fill="#282F39"/>
		<g>
			<g>
				<path d="M 0 449.200012 H 20.1 V 453.000012 H 0 V 449.200012 Z" fill="#FFFFFF"/>
			</g>
			<path d="M 775.400024 449.200012 H 799.800024 V 453.000012 H 775.400024 V 449.200012 Z" fill="#FFFFFF"/>
			<path d="M 726.700012 449.200012 H 751.100012 V 453.000012 H 726.700012 V 449.200012 Z" fill="#FFFFFF"/>
			<path d="M 677.900024 449.200012 H 702.300024 V 453.000012 H 677.900024 V 449.200012 Z" fill="#FFFFFF"/>
			<path d="M 629.200012 449.200012 H 653.600012 V 453.000012 H 629.200012 V 449.200012 Z" fill="#FFFFFF"/>
			<path d="M 580.5 449.200012 H 604.9 V 453.000012 H 580.5 V 449.200012 Z" fill="#FFFFFF"/>
			<path d="M 531.700012 449.200012 H 556.100012 V 453.000012 H 531.700012 V 449.200012 Z" fill="#FFFFFF"/>
			<path d="M 483 449.200012 H 507.4 V 453.000012 H 483 V 449.200012 Z" fill="#FFFFFF"/>
			<path d="M 434.299988 449.200012 H 458.699987 V 453.000012 H 434.299988 V 449.200012 Z" fill="#FFFFFF"/>
			<path d="M 385.600006 449.200012 H 410.000006 V 453.000012 H 385.600006 V 449.200012 Z" fill="#FFFFFF"/>
			<path d="M 336.799988 449.200012 H 361.199987 V 453.000012 H 336.799988 V 449.200012 Z" fill="#FFFFFF"/>
			<path d="M 288.100006 449.200012 H 312.500006 V 453.000012 H 288.100006 V 449.200012 Z" fill="#FFFFFF"/>
			<path d="M 239.399994 449.200012 H 263.799994 V 453.000012 H 239.399994 V 449.200012 Z" fill="#FFFFFF"/>
			<path d="M 190.699997 449.200012 H 215.099997 V 453.000012 H 190.699997 V 449.200012 Z" fill="#FFFFFF"/>
			<path d="M 141.899994 449.200012 H 166.299994 V 453.000012 H 141.899994 V 449.200012 Z" fill="#FFFFFF"/>
			<g>
				<path d="M 93.199997 428.700012 H 117.599997 V 432.500012 H 93.199997 V 428.700012 Z" fill="#FFFFFF"/>
				<path d="M 93.199997 437 H 117.599997 V 440.8 H 93.199997 V 437 Z" fill="#FFFFFF"/>
				<path d="M 93.199997 445.299988 H 117.599997 V 449.099988 H 93.199997 V 445.299988 Z" fill="#FFFFFF"/>
				<path d="M 93.199997 453.600006 H 117.599997 V 457.400006 H 93.199997 V 453.600006 Z" fill="#FFFFFF"/>
				<path d="M 93.199997 461.899994 H 117.599997 V 465.699994 H 93.199997 V 461.899994 Z" fill="#FFFFFF"/>
				<path d="M 93.199997 470.200012 H 117.599997 V 474.000012 H 93.199997 V 470.200012 Z" fill="#FFFFFF"/>
			</g>
			<path d="M 44.5 449.200012 H 68.9 V 453.000012 H 44.5 V 449.200012 Z" fill="#FFFFFF"/>
			<g>
				<path d="M 824.099976 449.200012 H 841.899975 V 453.000012 H 824.099976 V 449.200012 Z" fill="#FFFFFF"/>
			</g>
		</g>
		<g>
			<g>
				<path fill="#828434" d="M28.7,393.5c0,0,3.7-9.1,3.4-16.3c-0.3-7.3-3.5-13.9-3.5-13.9s-4,7.9-3.8,14.9&#10;&#9;&#9;&#9;&#9;&#9;C25,385.1,28.7,393.5,28.7,393.5z"/>
				<path fill="#828434" d="M28.7,393.5c0,0-3.7-9-8.1-12c-4.4-3-13.8-3.4-13.8-3.4s5.6,6.6,9.4,9.7&#10;&#9;&#9;&#9;&#9;&#9;C20.1,390.9,28.7,393.5,28.7,393.5z"/>
				<path fill="#828434" d="M28.7,393.5c0,0-8.6-2.2-13-1.8c-4.4,0.3-12.3,5-12.3,5s6.5,1.9,12.5,1.9&#10;&#9;&#9;&#9;&#9;&#9;C21.9,398.4,28.7,393.5,28.7,393.5z"/>
				<path fill="#828434" d="M28.7,393.5c0,0-8.5,5.8-10.7,10.4c-2.2,4.5-6.1,13.2-6.1,13.2s2.3-1.6,4.9-3.7c2.7-2.1,5.7-4.7,7.1-6.6&#10;&#9;&#9;&#9;&#9;&#9;C26.9,402.8,28.7,393.5,28.7,393.5z"/>
				<path fill="#828434" d="M28.7,393.5c0,0-1.4,13.3,1.3,19.6c1.4,3.1,2.8,5.5,4,7.2c1.1,1.6,1.9,2.5,1.9,2.5s0.9-8.1-0.4-13.2&#10;&#9;&#9;&#9;&#9;&#9;C34.2,404.4,28.7,393.5,28.7,393.5z"/>
				<path fill="#828434" d="M28.7,393.5c0,0,6.6,9.4,10.9,11.6c2.2,1,5.3,1.8,7.9,2.4c2.6,0.6,4.6,0.9,4.6,0.9s-3.8-6.5-9.8-10.2&#10;&#9;&#9;&#9;&#9;&#9;C36.3,394.3,28.7,393.5,28.7,393.5z"/>
				<path fill="#828434" d="M28.7,393.5c0,0,3.1-9.2,6.3-12.8c3.2-3.6,11.1-9.2,11.1-9.2s-3.5,9-6.4,13.6&#10;&#9;&#9;&#9;&#9;&#9;C36.8,389.7,28.7,393.5,28.7,393.5z"/>
				<path fill="#828434" d="M28.7,393.5c0,0,8.6-5.5,14.9-6.2c3.1-0.4,6.5-0.4,9.1-0.2c2.6,0.1,4.4,0.4,4.4,0.4s-2.1,0.9-4.9,2&#10;&#9;&#9;&#9;&#9;&#9;c-2.8,1.1-6.3,2.6-9.1,3.7C37.6,395.3,28.7,393.5,28.7,393.5z"/>
			</g>
			<g>
				<path fill="#828434" d="M116.7,394.4c0,0-3.8-9-9.2-13.9c-5.3-4.9-12.3-7.4-12.3-7.4s2.8,8.4,7.8,13.2&#10;&#9;&#9;&#9;&#9;&#9;C108.2,391.1,116.7,394.4,116.7,394.4z"/>
				<path fill="#828434" d="M116.7,394.4c0,0-9-3.7-14.2-2.7c-5.2,1-12.2,7.3-12.2,7.3s8.6,0.7,13.6,0.2&#10;&#9;&#9;&#9;&#9;&#9;C108.8,398.7,116.7,394.4,116.7,394.4z"/>
				<path fill="#828434" d="M116.7,394.4c0,0-7.7,4.6-10.5,7.9c-2.9,3.4-5.1,12.2-5.1,12.2s6-3.2,10.1-7.5&#10;&#9;&#9;&#9;&#9;&#9;C115.4,402.8,116.7,394.4,116.7,394.4z"/>
				<path fill="#828434" d="M116.7,394.4c0,0-1.9,10.1-0.3,14.9c1.6,4.8,5.1,13.7,5.1,13.7s0.5-2.7,0.9-6.1c0.4-3.4,0.7-7.3,0.4-9.7&#10;&#9;&#9;&#9;&#9;&#9;C122,402.3,116.7,394.4,116.7,394.4z"/>
				<path fill="#828434" d="M116.7,394.4c0,0,8.4,10.4,14.7,12.9c3.2,1.3,5.9,1.9,7.9,2.3c1.9,0.4,3.1,0.4,3.1,0.4s-5.1-6.4-9.6-9.1&#10;&#9;&#9;&#9;&#9;&#9;C128.3,398.2,116.7,394.4,116.7,394.4z"/>
				<path fill="#828434" d="M116.7,394.4c0,0,11.4,2,15.9,0.5c2.3-0.8,5.1-2.5,7.3-3.9c2.2-1.4,3.9-2.7,3.9-2.7s-7.2-1.9-14.2-0.3&#10;&#9;&#9;&#9;&#9;&#9;C122.7,389.6,116.7,394.4,116.7,394.4z"/>
				<path fill="#828434" d="M116.7,394.4c0,0-4.3-8.7-4.6-13.5c-0.3-4.8,1.3-14.4,1.3-14.4s3.9,8.9,5.1,14.2&#10;&#9;&#9;&#9;&#9;&#9;C119.7,386,116.7,394.4,116.7,394.4z"/>
				<path fill="#828434" d="M116.7,394.4c0,0,2.2-9.9,6.2-14.9c2-2.5,4.3-4.9,6.3-6.6c1.9-1.7,3.4-2.9,3.4-2.9s-0.9,2.1-2,4.9&#10;&#9;&#9;&#9;&#9;&#9;c-1.2,2.8-2.6,6.3-3.8,9C124.3,389.5,116.7,394.4,116.7,394.4z"/>
			</g>
			<g>
				<path fill="#828434" d="M204.2,393.7c0,0,9,3.8,13.9,9.2c4.9,5.3,7.4,12.3,7.4,12.3s-8.4-2.8-13.2-7.8&#10;&#9;&#9;&#9;&#9;&#9;C207.5,402.3,204.2,393.7,204.2,393.7z"/>
				<path fill="#828434" d="M204.2,393.7c0,0,3.7,9,2.7,14.2c-1,5.2-7.3,12.2-7.3,12.2s-0.7-8.6-0.2-13.6&#10;&#9;&#9;&#9;&#9;&#9;C199.9,401.6,204.2,393.7,204.2,393.7z"/>
				<path fill="#828434" d="M204.2,393.7c0,0-4.6,7.7-7.9,10.5c-3.4,2.9-12.2,5.1-12.2,5.1s3.2-6,7.5-10.1&#10;&#9;&#9;&#9;&#9;&#9;C195.9,395,204.2,393.7,204.2,393.7z"/>
				<path fill="#828434" d="M204.2,393.7c0,0-10.1,1.9-14.9,0.3c-4.8-1.6-13.7-5.1-13.7-5.1s2.7-0.5,6.1-0.9&#10;&#9;&#9;&#9;&#9;&#9;c3.4-0.4,7.3-0.7,9.7-0.4C196.3,388.4,204.2,393.7,204.2,393.7z"/>
				<path fill="#828434" d="M204.2,393.7c0,0-10.4-8.4-12.9-14.7c-1.3-3.2-1.9-5.9-2.3-7.9c-0.4-1.9-0.4-3.1-0.4-3.1&#10;&#9;&#9;&#9;&#9;&#9;s6.4,5.1,9.1,9.6C200.4,382.1,204.2,393.7,204.2,393.7z"/>
				<path fill="#828434" d="M204.2,393.7c0,0-2-11.4-0.5-15.9c0.8-2.3,2.5-5.1,3.9-7.3c1.4-2.2,2.7-3.9,2.7-3.9s1.9,7.2,0.3,14.2&#10;&#9;&#9;&#9;&#9;&#9;C209.1,387.8,204.2,393.7,204.2,393.7z"/>
				<path fill="#828434" d="M204.2,393.7c0,0,8.7,4.3,13.5,4.6c4.8,0.3,14.4-1.3,14.4-1.3s-8.9-3.9-14.2-5.1&#10;&#9;&#9;&#9;&#9;&#9;C212.6,390.7,204.2,393.7,204.2,393.7z"/>
				<path fill="#828434" d="M204.2,393.7c0,0,9.9-2.2,14.9-6.2c2.5-2,4.9-4.3,6.6-6.3c1.7-1.9,2.9-3.4,2.9-3.4s-2.1,0.9-4.9,2&#10;&#9;&#9;&#9;&#9;&#9;c-2.8,1.2-6.3,2.6-9,3.8C209.2,386.2,204.2,393.7,204.2,393.7z"/>
			</g>
			<g>
				<path fill="#828434" d="M290.2,391.4c0,0,9.1,3.7,16.3,3.4c7.3-0.3,13.9-3.5,13.9-3.5s-7.9-4-14.9-3.8&#10;&#9;&#9;&#9;&#9;&#9;C298.6,387.7,290.2,391.4,290.2,391.4z"/>
				<path fill="#828434" d="M290.2,391.4c0,0,9-3.7,12-8.1c3-4.4,3.4-13.8,3.4-13.8s-6.6,5.6-9.7,9.4&#10;&#9;&#9;&#9;&#9;&#9;C292.8,382.8,290.2,391.4,290.2,391.4z"/>
				<path fill="#828434" d="M290.2,391.4c0,0,2.2-8.6,1.8-13c-0.3-4.4-5-12.3-5-12.3s-1.9,6.5-1.9,12.5&#10;&#9;&#9;&#9;&#9;&#9;C285.2,384.6,290.2,391.4,290.2,391.4z"/>
				<path fill="#828434" d="M290.2,391.4c0,0-5.8-8.5-10.4-10.7c-4.5-2.2-13.2-6.1-13.2-6.1s1.6,2.3,3.7,4.9&#10;&#9;&#9;&#9;&#9;&#9;c2.1,2.7,4.7,5.7,6.6,7.1C280.8,389.6,290.2,391.4,290.2,391.4z"/>
				<path fill="#828434" d="M290.2,391.4c0,0-13.3-1.4-19.6,1.3c-3.1,1.4-5.5,2.8-7.2,4c-1.6,1.1-2.5,1.9-2.5,1.9s8.1,0.9,13.2-0.4&#10;&#9;&#9;&#9;&#9;&#9;C279.3,397,290.2,391.4,290.2,391.4z"/>
				<path fill="#828434" d="M290.2,391.4c0,0-9.4,6.6-11.6,10.9c-1,2.2-1.8,5.3-2.4,7.9c-0.6,2.6-0.9,4.6-0.9,4.6s6.5-3.8,10.2-9.8&#10;&#9;&#9;&#9;&#9;&#9;C289.4,399.1,290.2,391.4,290.2,391.4z"/>
				<path fill="#828434" d="M290.2,391.4c0,0,9.2,3.1,12.8,6.3c3.6,3.2,9.2,11.1,9.2,11.1s-9-3.5-13.6-6.4&#10;&#9;&#9;&#9;&#9;&#9;C294,399.5,290.2,391.4,290.2,391.4z"/>
				<path fill="#828434" d="M290.2,391.4c0,0,5.5,8.6,6.2,14.9c0.4,3.1,0.4,6.5,0.2,9.1c-0.1,2.6-0.4,4.4-0.4,4.4s-0.9-2.1-2-4.9&#10;&#9;&#9;&#9;&#9;&#9;c-1.1-2.8-2.6-6.3-3.7-9.1C288.4,400.3,290.2,391.4,290.2,391.4z"/>
			</g>
			<g>
				<path fill="#828434" d="M377.2,392.2c0,0-9-3.8-13.9-9.2c-4.9-5.3-7.4-12.3-7.4-12.3s8.4,2.8,13.2,7.8&#10;&#9;&#9;&#9;&#9;&#9;C373.9,383.7,377.2,392.2,377.2,392.2z"/>
				<path fill="#828434" d="M377.2,392.2c0,0-3.7-9-2.7-14.2c1-5.2,7.3-12.2,7.3-12.2s0.7,8.6,0.2,13.6&#10;&#9;&#9;&#9;&#9;&#9;C381.5,384.3,377.2,392.2,377.2,392.2z"/>
				<path fill="#828434" d="M377.2,392.2c0,0,4.6-7.7,7.9-10.5c3.4-2.9,12.2-5.1,12.2-5.1s-3.2,6-7.5,10.1&#10;&#9;&#9;&#9;&#9;&#9;C385.5,390.9,377.2,392.2,377.2,392.2z"/>
				<path fill="#828434" d="M377.2,392.2c0,0,10.1-1.9,14.9-0.3c4.8,1.6,13.7,5.1,13.7,5.1s-2.7,0.5-6.1,0.9&#10;&#9;&#9;&#9;&#9;&#9;c-3.4,0.4-7.3,0.7-9.7,0.4C385.1,397.6,377.2,392.2,377.2,392.2z"/>
				<path fill="#828434" d="M377.2,392.2c0,0,10.4,8.4,12.9,14.7c1.3,3.2,1.9,5.9,2.3,7.9c0.4,1.9,0.4,3.1,0.4,3.1s-6.4-5.1-9.1-9.6&#10;&#9;&#9;&#9;&#9;&#9;C381,403.9,377.2,392.2,377.2,392.2z"/>
				<path fill="#828434" d="M377.2,392.2c0,0,2,11.4,0.5,15.9c-0.8,2.3-2.5,5.1-3.9,7.3c-1.4,2.2-2.7,3.9-2.7,3.9s-1.9-7.2-0.3-14.2&#10;&#9;&#9;&#9;&#9;&#9;C372.3,398.2,377.2,392.2,377.2,392.2z"/>
				<path fill="#828434" d="M377.2,392.2c0,0-8.7-4.3-13.5-4.6c-4.8-0.3-14.4,1.3-14.4,1.3s8.9,3.9,14.2,5.1&#10;&#9;&#9;&#9;&#9;&#9;C368.8,395.2,377.2,392.2,377.2,392.2z"/>
				<path fill="#828434" d="M377.2,392.2c0,0-9.9,2.2-14.9,6.2c-2.5,2-4.9,4.3-6.6,6.3c-1.7,1.9-2.9,3.4-2.9,3.4s2.1-0.9,4.9-2&#10;&#9;&#9;&#9;&#9;&#9;c2.8-1.2,6.3-2.6,9-3.8C372.2,399.8,377.2,392.2,377.2,392.2z"/>
			</g>
			<g>
				<path fill="#828434" d="M464,394.4c0,0-3.8-9-9.2-13.9c-5.3-4.9-12.3-7.4-12.3-7.4s2.8,8.4,7.8,13.2&#10;&#9;&#9;&#9;&#9;&#9;C455.5,391.1,464,394.4,464,394.4z"/>
				<path fill="#828434" d="M464,394.4c0,0-9-3.7-14.2-2.7c-5.2,1-12.2,7.3-12.2,7.3s8.6,0.7,13.6,0.2&#10;&#9;&#9;&#9;&#9;&#9;C456.1,398.7,464,394.4,464,394.4z"/>
				<path fill="#828434" d="M464,394.4c0,0-7.7,4.6-10.5,7.9c-2.9,3.4-5.1,12.2-5.1,12.2s6-3.2,10.1-7.5&#10;&#9;&#9;&#9;&#9;&#9;C462.7,402.8,464,394.4,464,394.4z"/>
				<path fill="#828434" d="M464,394.4c0,0-1.9,10.1-0.3,14.9c1.6,4.8,5.1,13.7,5.1,13.7s0.5-2.7,0.9-6.1c0.4-3.4,0.7-7.3,0.4-9.7&#10;&#9;&#9;&#9;&#9;&#9;C469.3,402.3,464,394.4,464,394.4z"/>
				<path fill="#828434" d="M464,394.4c0,0,8.4,10.4,14.7,12.9c3.2,1.3,5.9,1.9,7.9,2.3c1.9,0.4,3.1,0.4,3.1,0.4s-5.1-6.4-9.6-9.1&#10;&#9;&#9;&#9;&#9;&#9;C475.6,398.2,464,394.4,464,394.4z"/>
				<path fill="#828434" d="M464,394.4c0,0,11.4,2,15.9,0.5c2.3-0.8,5.1-2.5,7.3-3.9c2.2-1.4,3.9-2.7,3.9-2.7s-7.2-1.9-14.2-0.3&#10;&#9;&#9;&#9;&#9;&#9;C470,389.6,464,394.4,464,394.4z"/>
				<path fill="#828434" d="M464,394.4c0,0-4.3-8.7-4.6-13.5c-0.3-4.8,1.3-14.4,1.3-14.4s3.9,8.9,5.1,14.2&#10;&#9;&#9;&#9;&#9;&#9;C467,386,464,394.4,464,394.4z"/>
				<path fill="#828434" d="M464,394.4c0,0,2.2-9.9,6.2-14.9c2-2.5,4.3-4.9,6.3-6.6c1.9-1.7,3.4-2.9,3.4-2.9s-0.9,2.1-2,4.9&#10;&#9;&#9;&#9;&#9;&#9;c-1.2,2.8-2.6,6.3-3.8,9C471.6,389.5,464,394.4,464,394.4z"/>
			</g>
			<g>
				<path fill="#828434" d="M551.5,391.5c0,0,3.8,9,9.2,13.9c5.3,4.9,12.3,7.4,12.3,7.4s-2.8-8.4-7.8-13.2&#10;&#9;&#9;&#9;&#9;&#9;C560.1,394.8,551.5,391.5,551.5,391.5z"/>
				<path fill="#828434" d="M551.5,391.5c0,0,9,3.7,14.2,2.7c5.2-1,12.2-7.3,12.2-7.3s-8.6-0.7-13.6-0.2&#10;&#9;&#9;&#9;&#9;&#9;C559.4,387.2,551.5,391.5,551.5,391.5z"/>
				<path fill="#828434" d="M551.5,391.5c0,0,7.7-4.6,10.5-7.9c2.9-3.4,5.1-12.2,5.1-12.2s-6,3.2-10.1,7.5&#10;&#9;&#9;&#9;&#9;&#9;C552.9,383.2,551.5,391.5,551.5,391.5z"/>
				<path fill="#828434" d="M551.5,391.5c0,0,1.9-10.1,0.3-14.9c-1.6-4.8-5.1-13.7-5.1-13.7s-0.5,2.7-0.9,6.1&#10;&#9;&#9;&#9;&#9;&#9;c-0.4,3.4-0.7,7.3-0.4,9.7C546.2,383.6,551.5,391.5,551.5,391.5z"/>
				<path fill="#828434" d="M551.5,391.5c0,0-8.4-10.4-14.7-12.9c-3.2-1.3-5.9-1.9-7.9-2.3c-1.9-0.4-3.1-0.4-3.1-0.4&#10;&#9;&#9;&#9;&#9;&#9;s5.1,6.4,9.6,9.1C539.9,387.7,551.5,391.5,551.5,391.5z"/>
				<path fill="#828434" d="M551.5,391.5c0,0-11.4-2-15.9-0.5c-2.3,0.8-5.1,2.5-7.3,3.9c-2.2,1.4-3.9,2.7-3.9,2.7s7.2,1.9,14.2,0.3&#10;&#9;&#9;&#9;&#9;&#9;C545.6,396.4,551.5,391.5,551.5,391.5z"/>
				<path fill="#828434" d="M551.5,391.5c0,0,4.3,8.7,4.6,13.5c0.3,4.8-1.3,14.4-1.3,14.4s-3.9-8.9-5.1-14.2&#10;&#9;&#9;&#9;&#9;&#9;C548.5,399.9,551.5,391.5,551.5,391.5z"/>
				<path fill="#828434" d="M551.5,391.5c0,0-2.2,9.9-6.2,14.9c-2,2.5-4.3,4.9-6.3,6.6c-1.9,1.7-3.4,2.9-3.4,2.9s0.9-2.1,2-4.9&#10;&#9;&#9;&#9;&#9;&#9;c1.2-2.8,2.6-6.3,3.8-9C544,396.5,551.5,391.5,551.5,391.5z"/>
			</g>
			<g>
				<path fill="#828434" d="M639.6,393.5c0,0-3.7-9.1-3.4-16.3c0.3-7.3,3.5-13.9,3.5-13.9s4,7.9,3.8,14.9&#10;&#9;&#9;&#9;&#9;&#9;C643.3,385.1,639.6,393.5,639.6,393.5z"/>
				<path fill="#828434" d="M639.6,393.5c0,0,3.7-9,8.1-12c4.4-3,13.8-3.4,13.8-3.4s-5.6,6.6-9.4,9.7&#10;&#9;&#9;&#9;&#9;&#9;C648.2,390.9,639.6,393.5,639.6,393.5z"/>
				<path fill="#828434" d="M639.6,393.5c0,0,8.6-2.2,13-1.8c4.4,0.3,12.3,5,12.3,5s-6.5,1.9-12.5,1.9&#10;&#9;&#9;&#9;&#9;&#9;C646.4,398.4,639.6,393.5,639.6,393.5z"/>
				<path fill="#828434" d="M639.6,393.5c0,0,8.5,5.8,10.7,10.4c2.2,4.5,6.1,13.2,6.1,13.2s-2.3-1.6-4.9-3.7&#10;&#9;&#9;&#9;&#9;&#9;c-2.7-2.1-5.7-4.7-7.1-6.6C641.4,402.8,639.6,393.5,639.6,393.5z"/>
				<path fill="#828434" d="M639.6,393.5c0,0,1.4,13.3-1.3,19.6c-1.4,3.1-2.8,5.5-4,7.2c-1.1,1.6-1.9,2.5-1.9,2.5s-0.9-8.1,0.4-13.2&#10;&#9;&#9;&#9;&#9;&#9;C634,404.4,639.6,393.5,639.6,393.5z"/>
				<path fill="#828434" d="M639.6,393.5c0,0-6.6,9.4-10.9,11.6c-2.2,1-5.3,1.8-7.9,2.4c-2.6,0.6-4.6,0.9-4.6,0.9s3.8-6.5,9.8-10.2&#10;&#9;&#9;&#9;&#9;&#9;C631.9,394.3,639.6,393.5,639.6,393.5z"/>
				<path fill="#828434" d="M639.6,393.5c0,0-3.1-9.2-6.3-12.8c-3.2-3.6-11.1-9.2-11.1-9.2s3.5,9,6.4,13.6&#10;&#9;&#9;&#9;&#9;&#9;C631.5,389.7,639.6,393.5,639.6,393.5z"/>
				<path fill="#828434" d="M639.6,393.5c0,0-8.6-5.5-14.9-6.2c-3.1-0.4-6.5-0.4-9.1-0.2c-2.6,0.1-4.4,0.4-4.4,0.4s2.1,0.9,4.9,2&#10;&#9;&#9;&#9;&#9;&#9;c2.8,1.1,6.3,2.6,9.1,3.7C630.7,395.3,639.6,393.5,639.6,393.5z"/>
			</g>
			<g>
				<path fill="#828434" d="M725.2,392.2c0,0,9-3.8,13.9-9.2c4.9-5.3,7.4-12.3,7.4-12.3s-8.4,2.8-13.2,7.8&#10;&#9;&#9;&#9;&#9;&#9;C728.5,383.7,725.2,392.2,725.2,392.2z"/>
				<path fill="#828434" d="M725.2,392.2c0,0,3.7-9,2.7-14.2c-1-5.2-7.3-12.2-7.3-12.2s-0.7,8.6-0.2,13.6&#10;&#9;&#9;&#9;&#9;&#9;C720.9,384.3,725.2,392.2,725.2,392.2z"/>
				<path fill="#828434" d="M725.2,392.2c0,0-4.6-7.7-7.9-10.5c-3.4-2.9-12.2-5.1-12.2-5.1s3.2,6,7.5,10.1&#10;&#9;&#9;&#9;&#9;&#9;C716.8,390.9,725.2,392.2,725.2,392.2z"/>
				<path fill="#828434" d="M725.2,392.2c0,0-10.1-1.9-14.9-0.3c-4.8,1.6-13.7,5.1-13.7,5.1s2.7,0.5,6.1,0.9&#10;&#9;&#9;&#9;&#9;&#9;c3.4,0.4,7.3,0.7,9.7,0.4C717.2,397.6,725.2,392.2,725.2,392.2z"/>
				<path fill="#828434" d="M725.2,392.2c0,0-10.4,8.4-12.9,14.7c-1.3,3.2-1.9,5.9-2.3,7.9c-0.4,1.9-0.4,3.1-0.4,3.1&#10;&#9;&#9;&#9;&#9;&#9;s6.4-5.1,9.1-9.6C721.4,403.9,725.2,392.2,725.2,392.2z"/>
				<path fill="#828434" d="M725.2,392.2c0,0-2,11.4-0.5,15.9c0.8,2.3,2.5,5.1,3.9,7.3c1.4,2.2,2.7,3.9,2.7,3.9s1.9-7.2,0.3-14.2&#10;&#9;&#9;&#9;&#9;&#9;C730,398.2,725.2,392.2,725.2,392.2z"/>
				<path fill="#828434" d="M725.2,392.2c0,0,8.7-4.3,13.5-4.6c4.8-0.3,14.4,1.3,14.4,1.3s-8.9,3.9-14.2,5.1&#10;&#9;&#9;&#9;&#9;&#9;C733.6,395.2,725.2,392.2,725.2,392.2z"/>
				<path fill="#828434" d="M725.2,392.2c0,0,9.9,2.2,14.9,6.2c2.5,2,4.9,4.3,6.6,6.3c1.7,1.9,2.9,3.4,2.9,3.4s-2.1-0.9-4.9-2&#10;&#9;&#9;&#9;&#9;&#9;c-2.8-1.2-6.3-2.6-9-3.8C730.1,399.8,725.2,392.2,725.2,392.2z"/>
			</g>
			<g>
				<path fill="#828434" d="M810.1,393.5c0,0,3.7-9.1,3.4-16.3c-0.3-7.3-3.5-13.9-3.5-13.9s-4,7.9-3.8,14.9&#10;&#9;&#9;&#9;&#9;&#9;C806.4,385.1,810.1,393.5,810.1,393.5z"/>
				<path fill="#828434" d="M810.1,393.5c0,0-3.7-9-8.1-12c-4.4-3-13.8-3.4-13.8-3.4s5.6,6.6,9.4,9.7&#10;&#9;&#9;&#9;&#9;&#9;C801.5,390.9,810.1,393.5,810.1,393.5z"/>
				<path fill="#828434" d="M810.1,393.5c0,0-8.6-2.2-13-1.8c-4.4,0.3-12.3,5-12.3,5s6.5,1.9,12.5,1.9&#10;&#9;&#9;&#9;&#9;&#9;C803.3,398.4,810.1,393.5,810.1,393.5z"/>
				<path fill="#828434" d="M810.1,393.5c0,0-8.5,5.8-10.7,10.4c-2.2,4.5-6.1,13.2-6.1,13.2s2.3-1.6,4.9-3.7&#10;&#9;&#9;&#9;&#9;&#9;c2.7-2.1,5.7-4.7,7.1-6.6C808.3,402.8,810.1,393.5,810.1,393.5z"/>
				<path fill="#828434" d="M810.1,393.5c0,0-1.4,13.3,1.3,19.6c1.4,3.1,2.8,5.5,4,7.2c1.1,1.6,1.9,2.5,1.9,2.5s0.9-8.1-0.4-13.2&#10;&#9;&#9;&#9;&#9;&#9;C815.6,404.4,810.1,393.5,810.1,393.5z"/>
				<path fill="#828434" d="M810.1,393.5c0,0,6.6,9.4,10.9,11.6c2.2,1,5.3,1.8,7.9,2.4c2.6,0.6,4.6,0.9,4.6,0.9s-3.8-6.5-9.8-10.2&#10;&#9;&#9;&#9;&#9;&#9;C817.7,394.3,810.1,393.5,810.1,393.5z"/>
				<path fill="#828434" d="M810.1,393.5c0,0,3.1-9.2,6.3-12.8c3.2-3.6,11.1-9.2,11.1-9.2s-3.5,9-6.4,13.6&#10;&#9;&#9;&#9;&#9;&#9;C818.2,389.7,810.1,393.5,810.1,393.5z"/>
				<path fill="#828434" d="M810.1,393.5c0,0,8.6-5.5,14.9-6.2c3.1-0.4,6.5-0.4,9.1-0.2c2.6,0.1,4.4,0.4,4.4,0.4s-2.1,0.9-4.9,2&#10;&#9;&#9;&#9;&#9;&#9;c-2.8,1.1-6.3,2.6-9.1,3.7C819,395.3,810.1,393.5,810.1,393.5z"/>
			</g>
		</g>
		<g>
			<g>
				<g>
					<path d="M 9 525 H 97.699997 V 585.5 H 9 V 525 Z" fill="#D25127"/>
					<path d="M 97.699997 525 H 186.399994 V 585.5 H 97.699997 V 525 Z" fill="#B73C25"/>
				</g>
			</g>
			<g>
				<g>
					<path d="M 655.5 525 H 744.199997 V 585.5 H 655.5 V 525 Z" fill="#52B0E3"/>
					<path d="M 744.200012 525 H 832.900009 V 585.5 H 744.200012 V 525 Z" fill="#488ECC"/>
				</g>
			</g>
			<g>
				<g>
					<path d="M 53.299999 501.600006 H 97.599998 V 531.800007 H 53.299999 V 501.600006 Z" fill="#D25127"/>
					<path d="M 97.699997 501.600006 H 141.999996 V 531.800007 H 97.699997 V 501.600006 Z" fill="#B73C25"/>
				</g>
			</g>
			<g>
				<g>
					<path d="M 268.200012 501.600006 H 285.000011 V 531.800007 H 268.200012 V 501.600006 Z" fill="#D25127"/>
					<path d="M 285 501.600006 H 301.799999 V 531.800007 H 285 V 501.600006 Z" fill="#B73C25"/>
				</g>
			</g>
			<g>
				<g>
					<path d="M 210.300003 525 H 260.200005 V 585.5 H 210.300003 V 525 Z" fill="#D25127"/>
					<path d="M 260.100006 525 H 310.000008 V 585.5 H 260.100006 V 525 Z" fill="#B73C25"/>
				</g>
			</g>
			<g>
				<g>
					<path d="M 330.100006 525 H 380.000008 V 585.5 H 330.100006 V 525 Z" fill="#52B0E3"/>
					<path d="M 379.899994 525 H 429.799995 V 585.5 H 379.899994 V 525 Z" fill="#488ECC"/>
				</g>
			</g>
			<g>
				<g>
					<path d="M 449.899994 552.5 H 476.999994 V 585.400002 H 449.899994 V 552.5 Z" fill="#F4805F"/>
					<path d="M 477 552.5 H 504.1 V 585.400002 H 477 V 552.5 Z" fill="#F26222"/>
				</g>
			</g>
			<g>
				<g>
					<path d="M 515.900024 552.5 H 543.000025 V 585.400002 H 515.900024 V 552.5 Z" fill="#F4805F"/>
					<path d="M 543.099976 552.5 H 570.199976 V 585.400002 H 543.099976 V 552.5 Z" fill="#F26222"/>
				</g>
			</g>
			<g>
				<g>
					<path d="M 582 552.5 H 609.1 V 585.400002 H 582 V 552.5 Z" fill="#F4805F"/>
					<path d="M 609.099976 552.5 H 636.199976 V 585.400002 H 609.099976 V 552.5 Z" fill="#F26222"/>
				</g>
			</g>
		</g>
		<g>
			<path fill="#828434" d="M509.3,519.1c0,0,3.8,9,9.2,13.9c5.3,4.9,12.3,7.4,12.3,7.4s-2.8-8.4-7.8-13.2&#10;&#9;&#9;&#9;&#9;C517.8,522.4,509.3,519.1,509.3,519.1z"/>
			<path fill="#828434" d="M509.3,519.1c0,0,9,3.7,14.2,2.7c5.2-1,12.2-7.3,12.2-7.3s-8.6-0.7-13.6-0.2&#10;&#9;&#9;&#9;&#9;C517.2,514.8,509.3,519.1,509.3,519.1z"/>
			<path fill="#828434" d="M509.3,519.1c0,0,7.7-4.6,10.5-7.9c2.9-3.4,5.1-12.2,5.1-12.2s-6,3.2-10.1,7.5&#10;&#9;&#9;&#9;&#9;C510.6,510.8,509.3,519.1,509.3,519.1z"/>
			<path fill="#828434" d="M509.3,519.1c0,0,1.9-10.1,0.3-14.9c-1.6-4.8-5.1-13.7-5.1-13.7s-0.5,2.7-0.9,6.1&#10;&#9;&#9;&#9;&#9;c-0.4,3.4-0.7,7.3-0.4,9.7C504,511.2,509.3,519.1,509.3,519.1z"/>
			<path fill="#828434" d="M509.3,519.1c0,0-8.4-10.4-14.7-12.9c-3.2-1.3-5.9-1.9-7.9-2.3c-1.9-0.4-3.1-0.4-3.1-0.4s5.1,6.4,9.6,9.1&#10;&#9;&#9;&#9;&#9;C497.7,515.4,509.3,519.1,509.3,519.1z"/>
			<path fill="#828434" d="M509.3,519.1c0,0-11.4-2-15.9-0.5c-2.3,0.8-5.1,2.5-7.3,3.9c-2.2,1.4-3.9,2.7-3.9,2.7s7.2,1.9,14.2,0.3&#10;&#9;&#9;&#9;&#9;C503.3,524,509.3,519.1,509.3,519.1z"/>
			<path fill="#828434" d="M509.3,519.1c0,0,4.3,8.7,4.6,13.5c0.3,4.8-1.3,14.4-1.3,14.4s-3.9-8.9-5.1-14.2&#10;&#9;&#9;&#9;&#9;C506.3,527.5,509.3,519.1,509.3,519.1z"/>
			<path fill="#828434" d="M509.3,519.1c0,0-2.2,9.9-6.2,14.9c-2,2.5-4.3,4.9-6.3,6.6c-1.9,1.7-3.4,2.9-3.4,2.9s0.9-2.1,2-4.9&#10;&#9;&#9;&#9;&#9;c1.2-2.8,2.6-6.3,3.8-9C501.7,524.1,509.3,519.1,509.3,519.1z"/>
		</g>
		<g>
			<path fill="#828434" d="M582.1,521.7c0,0-9.1-3.7-16.3-3.4c-7.3,0.3-13.9,3.5-13.9,3.5s7.9,4,14.9,3.8&#10;&#9;&#9;&#9;&#9;C573.7,525.4,582.1,521.7,582.1,521.7z"/>
			<path fill="#828434" d="M582.1,521.7c0,0-9,3.7-12,8.1c-3,4.4-3.4,13.8-3.4,13.8s6.6-5.6,9.7-9.4&#10;&#9;&#9;&#9;&#9;C579.6,530.3,582.1,521.7,582.1,521.7z"/>
			<path fill="#828434" d="M582.1,521.7c0,0-2.2,8.6-1.8,13c0.3,4.4,5,12.3,5,12.3s1.9-6.5,1.9-12.5&#10;&#9;&#9;&#9;&#9;C587.1,528.6,582.1,521.7,582.1,521.7z"/>
			<path fill="#828434" d="M582.1,521.7c0,0,5.8,8.5,10.4,10.7c4.5,2.2,13.2,6.1,13.2,6.1s-1.6-2.3-3.7-4.9&#10;&#9;&#9;&#9;&#9;c-2.1-2.7-4.7-5.7-6.6-7.1C591.5,523.6,582.1,521.7,582.1,521.7z"/>
			<path fill="#828434" d="M582.1,521.7c0,0,13.3,1.4,19.6-1.3c3.1-1.4,5.5-2.8,7.2-4c1.6-1.1,2.5-1.9,2.5-1.9s-8.1-0.9-13.2,0.4&#10;&#9;&#9;&#9;&#9;C593,516.2,582.1,521.7,582.1,521.7z"/>
			<path fill="#828434" d="M582.1,521.7c0,0,9.4-6.6,11.6-10.9c1-2.2,1.8-5.3,2.4-7.9c0.6-2.6,0.9-4.6,0.9-4.6s-6.5,3.8-10.2,9.8&#10;&#9;&#9;&#9;&#9;C582.9,514.1,582.1,521.7,582.1,521.7z"/>
			<path fill="#828434" d="M582.1,521.7c0,0-9.2-3.1-12.8-6.3c-3.6-3.2-9.2-11.1-9.2-11.1s9,3.5,13.6,6.4&#10;&#9;&#9;&#9;&#9;C578.3,513.6,582.1,521.7,582.1,521.7z"/>
			<path fill="#828434" d="M582.1,521.7c0,0-5.5-8.6-6.2-14.9c-0.4-3.1-0.4-6.5-0.2-9.1c0.1-2.6,0.4-4.4,0.4-4.4s0.9,2.1,2,4.9&#10;&#9;&#9;&#9;&#9;c1.1,2.8,2.6,6.3,3.7,9.1C583.9,512.9,582.1,521.7,582.1,521.7z"/>
		</g>
		<g>
			<path d="M 196.699997 501.600006 H 199.699997 V 595.200005 H 196.699997 V 501.600006 Z" fill="#FFFFFF"/>
		</g>
		<g>
			<path d="M 318.899994 501.600006 H 321.899994 V 595.200005 H 318.899994 V 501.600006 Z" fill="#FFFFFF"/>
		</g>
		<g>
			<path d="M 438.600006 501.600006 H 441.600006 V 595.200005 H 438.600006 V 501.600006 Z" fill="#FFFFFF"/>
		</g>
		<g>
			<path d="M 644.099976 501.600006 H 647.099976 V 595.200005 H 644.099976 V 501.600006 Z" fill="#FFFFFF"/>
		</g>
	</g><path fill="#FFFFFF" d="M162.2,343.1l0,13.5l-9.5-9.5c1.6-0.3,3.3-0.8,5-1.4C159.3,344.9,160.8,344.1,162.2,343.1z" transform="matrix(1, 0, 0, 1, 5.684341886080802e-14, 1.4210854715202004e-14)"/><path fill="#92278F" d="M171.7,347l-9.5,9.5l0-13.5c1.3,1,2.9,1.8,4.5,2.5C168.4,346.3,170.1,346.8,171.7,347z" transform="matrix(1, 0, 0, 1, 5.684341886080802e-14, 1.4210854715202004e-14)"/><path fill="#FFFFFF" d="M162.2,356.6l9.5-9.5c0.3,1.6,0.8,3.3,1.4,5c0.7,1.7,1.5,3.2,2.5,4.5L162.2,356.6z" transform="matrix(1, 0, 0, 1, 5.684341886080802e-14, 1.4210854715202004e-14)"/><path fill="#92278F" d="M162.2,356.6l13.5,0c-1,1.3-1.8,2.9-2.5,4.5c-0.7,1.7-1.2,3.4-1.4,5L162.2,356.6z" transform="matrix(1, 0, 0, 1, 5.684341886080802e-14, 1.4210854715202004e-14)"/><path fill="#FFFFFF" d="M162.2,356.6l9.5,9.5c-1.6,0.3-3.3,0.8-5,1.4c-1.7,0.7-3.2,1.5-4.5,2.5L162.2,356.6z" transform="matrix(1, 0, 0, 1, 5.684341886080802e-14, 1.4210854715202004e-14)"/><path fill="#92278F" d="M162.2,356.6l0,13.5c-1.3-1-2.9-1.8-4.5-2.5c-1.7-0.7-3.4-1.2-5-1.4L162.2,356.6z" transform="matrix(1, 0, 0, 1, 5.684341886080802e-14, 1.4210854715202004e-14)"/><path fill="#FFFFFF" d="M162.2,356.6l-9.5,9.5c-0.3-1.6-0.8-3.3-1.4-5c-0.7-1.7-1.5-3.2-2.5-4.5L162.2,356.6z" transform="matrix(1, 0, 0, 1, 5.684341886080802e-14, 1.4210854715202004e-14)"/><path fill="#92278F" d="M152.6,347l9.5,9.5l-13.5,0c1-1.3,1.8-2.9,2.5-4.5C151.9,350.4,152.4,348.7,152.6,347z" transform="matrix(1, 0, 0, 1, 5.684341886080802e-14, 1.4210854715202004e-14)"/><path d="M 573.5 370.600006 H 604.799999 V 385.600006 H 573.5 V 370.600006 Z" transform="matrix(-0.7071000337600708, -0.7071000337600708, 0.7071000337600708, -0.7071000337600708, 738.2919921875, 1062.0029296875)" fill="#FFDE17"/><path d="M 589.0999755859375 375.8999938964844 L 589.0999755859375 388.70001220703125 L 594.7999877929688 394.5 L 601.7999877929688 387.5 Z" fill="#FBB040" transform="matrix(1, 0, 0, 1, 5.684341886080802e-14, 1.4210854715202004e-14)"/><path d="M 581.599976 363.600006 H 582.599976 V 378.600006 H 581.599976 V 363.600006 Z" transform="matrix(0.7071000337600708, 0.7071000337600708, -0.7071000337600708, 0.7071000337600708, 432.9184875488282, -302.9202880859375)" fill="#FBB040"/><path fill="#FFFFFF" d="M602.6,362.4l0,13.5l-9.5-9.5c1.6-0.3,3.3-0.8,5-1.4C599.7,364.3,601.3,363.4,602.6,362.4z" transform="matrix(1, 0, 0, 1, 5.684341886080802e-14, 1.4210854715202004e-14)"/><path fill="#F26522" d="M612.1,366.4l-9.5,9.5l0-13.5c1.3,1,2.9,1.8,4.5,2.5C608.8,365.6,610.5,366.1,612.1,366.4z" transform="matrix(1, 0, 0, 1, 5.684341886080802e-14, 1.4210854715202004e-14)"/><path fill="#FFFFFF" d="M602.6,375.9l9.5-9.5c0.3,1.6,0.8,3.3,1.4,5c0.7,1.7,1.5,3.2,2.5,4.5L602.6,375.9z" transform="matrix(1, 0, 0, 1, 5.684341886080802e-14, 1.4210854715202004e-14)"/><path fill="#F26522" d="M602.6,375.9l13.5,0c-1,1.3-1.8,2.9-2.5,4.5c-0.7,1.7-1.2,3.4-1.4,5L602.6,375.9z" transform="matrix(1, 0, 0, 1, 5.684341886080802e-14, 1.4210854715202004e-14)"/><path fill="#FFFFFF" d="M602.6,375.9l9.5,9.5c-1.6,0.3-3.3,0.8-5,1.4c-1.7,0.7-3.2,1.5-4.5,2.5L602.6,375.9z" transform="matrix(1, 0, 0, 1, 5.684341886080802e-14, 1.4210854715202004e-14)"/><path fill="#F26522" d="M602.6,375.9l0,13.5c-1.3-1-2.9-1.8-4.5-2.5c-1.7-0.7-3.4-1.2-5-1.4L602.6,375.9z" transform="matrix(1, 0, 0, 1, 5.684341886080802e-14, 1.4210854715202004e-14)"/><path fill="#FFFFFF" d="M602.6,375.9l-9.5,9.5c-0.3-1.6-0.8-3.3-1.4-5c-0.7-1.7-1.5-3.2-2.5-4.5L602.6,375.9z" transform="matrix(1, 0, 0, 1, 5.684341886080802e-14, 1.4210854715202004e-14)"/><path fill="#F26522" d="M593,366.4l9.5,9.5l-13.5,0c1-1.3,1.8-2.9,2.5-4.5C592.3,369.7,592.8,368,593,366.4z" transform="matrix(1, 0, 0, 1, 5.684341886080802e-14, 1.4210854715202004e-14)"/>
</svg>