<svg xmlns="http://www.w3.org/2000/svg" xmlns:xlink="http://www.w3.org/1999/xlink" id="master-artboard" width="1400" height="1100" x="0" y="0" enable-background="new 0 0 1400 1100" version="1.1" viewBox="0 0 1400 1100"><defs><path id="SVGID_1_" d="M 0 0 H 1400 V 1100 H 0 V 0 Z"/></defs><clipPath id="SVGID_2_"><use overflow="visible" xlink:href="#SVGID_1_"/></clipPath><g><path fill="#87D2DD" d="M80.4,494.6c25.3,22.1,44.5,50.1,67.8,74.3c23.3,24.2,52.9,45.2,86.4,46.7c47.3,2.1,95.9-34.5,138.7-14.4 c27.2,12.8,40.5,44.2,65,61.6c36.8,26.2,88.5,14.1,128.3-7.2c39.8-21.4,76.3-51.3,120.5-60.5c72.7-15.2,145.4,29.4,219.6,26.5 c53.9-2.1,102.2-28.6,147-60c26.8-18.7,57.6-30.9,89.9-35.4c21.5-3,42.8-6.3,65.7-7.7c37.8-2.4,76.2-5,112.1-17.2 c31.1-10.6,60.6-29.5,78.6-56.6v-65.4c-34.1,45.5-98,63.3-156.4,67c-65.2,4.1-133-3.4-193.8,20.4 c-51.5,20.1-94.7,61.6-149.3,70.3c-61.4,9.8-123.3-24.3-184.9-15.7c-77.4,10.8-141.2,86.9-218.4,74.9 c-58.1-9-103.8-67.1-162.5-62.8c-39.1,2.9-76.1,33.9-113.6,22.7c-34.3-10.2-48.9-49.2-66.3-80.5C122.6,417.6,64.6,374.7,0,359.7 v102.5C29,460.5,58.1,475.1,80.4,494.6z" transform="matrix(1, 0, 0, 1, 0, 0)"/><path fill="#58C7D7" d="M162.7,465.4c15,30.1,27.5,67,59.1,78.3c37.1,13.3,74.8-17.3,113.8-22.2c71.3-8.9,132.1,68.1,203.5,59.8 c51.1-5.9,87.1-53.4,135.4-71.1c67.7-24.8,142.6,13.2,214.3,5.6c59.1-6.2,110.3-42.6,166.6-61.7c66.5-22.5,138.5-20.2,207.8-31.8 c49.3-8.2,100.5-26.3,136.8-59V223c-8.4,6.1-16.4,12.9-23.8,19.9c-28.1,26.5-52.9,57.6-86.9,76.1 c-49.7,27.1-109.8,22.5-166.4,21.3c-41.6-0.9-86,1.1-124,19.7c-38.4,18.7-65.6,51.4-112,52.4c-47.7,1.1-89.6-34.7-137.2-37.8 c-71.8-4.7-126.6,63.3-195.3,84.6c-46,14.2-95.6,6.6-143.1-1.2c-45.3-7.4-91-14.9-133.5-32.1c-41-16.5-77.9-41.6-114.4-66.4 C108.9,322.5,54.5,285.4,0,248.4v87.9C69.4,353.1,130.8,401.4,162.7,465.4z" transform="matrix(1, 0, 0, 1, 0, 0)"/><path fill="#E3F4F8" d="M154.9,475.6c17.4,31.2,32,70.3,66.3,80.5c37.6,11.2,74.5-19.9,113.6-22.7 c58.7-4.3,104.3,53.8,162.5,62.8c77.2,11.9,141-64.2,218.4-74.9c61.6-8.6,123.5,25.5,184.9,15.7c54.6-8.7,97.8-50.2,149.3-70.3 c60.8-23.8,128.6-16.3,193.8-20.4c58.4-3.6,122.3-21.5,156.4-67v-15.8c-36.3,32.7-87.5,50.8-136.8,59 c-69.3,11.5-141.3,9.3-207.8,31.8c-56.3,19-107.5,55.4-166.6,61.7c-71.7,7.6-146.6-30.4-214.3-5.6 c-48.3,17.7-84.3,65.2-135.4,71.1c-71.4,8.3-132.1-68.7-203.5-59.8c-39.1,4.9-76.8,35.5-113.8,22.2 c-31.7-11.3-44.1-48.2-59.1-78.3c-31.9-64-93.3-112.3-162.7-129v23.4C64.6,374.7,122.6,417.6,154.9,475.6z" transform="matrix(1, 0, 0, 1, 0, 0)"/><path fill="#31C1D4" d="M277.8,425.9c42.5,17.2,88.2,24.7,133.5,32.1c47.5,7.8,97.1,15.4,143.1,1.2 c68.7-21.2,123.5-89.2,195.3-84.6c47.7,3.1,89.5,38.9,137.2,37.8c46.3-1.1,73.6-33.7,112-52.4c38.1-18.6,82.5-20.6,124-19.7 c56.6,1.2,116.7,5.8,166.4-21.3c33.9-18.5,58.8-49.6,86.9-76.1c7.4-7,15.4-13.8,23.8-19.9V110c-43,25.1-99.1,31.4-150.4,30.2 c-71.7-1.6-146.7-12.3-212.4,16.3c-45.6,19.9-83,57.5-131.2,69.7c-79,20-164.2-33.8-241.8-8.9c-38.3,12.3-68,41.8-99.9,66.2 c-31.9,24.4-71.9,45.2-110.9,35.5c-46.6-11.6-73.7-61.9-117.8-80.9c-42.5-18.3-92.6-4.4-137.2-16.7 c-42.8-11.8-75.1-45.8-109.9-73.5C63,127.6,31.5,109.6,0,107.4v141c54.5,37,108.9,74.1,163.4,111.1 C199.9,384.4,236.8,409.4,277.8,425.9z" transform="matrix(1, 0, 0, 1, 0, 0)"/><path fill="#0CBDD3" d="M198.4,221.5c44.7,12.3,94.7-1.7,137.2,16.7c44.1,19,71.2,69.3,117.8,80.9c39,9.7,79-11,110.9-35.5 c31.9-24.4,61.6-54,99.9-66.2c77.6-24.9,162.8,28.9,241.8,8.9c48.2-12.2,85.7-49.8,131.2-69.7c65.7-28.7,140.8-18,212.4-16.3 c51.3,1.2,107.4-5.2,150.4-30.2V0H0v107.4c31.5,2.2,63,20.1,88.5,40.5C123.2,175.7,155.5,209.7,198.4,221.5z" transform="matrix(1, 0, 0, 1, 0, 0)"/><path fill="#FFCB2B" d="M238.5,1059.4c-34.2-5.7-66.3-19.7-98-33.7C93.3,1004.9,46,984.1,0,960.8V1100h469.1 c-23.9-12.7-48-24.7-74.1-30.9C344.1,1056.9,290.2,1068,238.5,1059.4z" transform="matrix(1, 0, 0, 1, 0, 0)"/><path fill="#FEE283" d="M194.1,862c46.1,8.1,94.1,6.6,138.5,21.3c69.5,22.9,123.8,83.1,195.6,97.1c105.3,20.6,205.9-64.4,313-59 c41.9,2.1,84,18.1,124.8,8.2c35.6-8.6,63.7-35.4,96.9-50.7c60.4-27.9,130.5-15.5,196.8-10.8c47.3,3.3,99.6,0.1,140.1-21.4V674.8 c-26,10.1-55.5,13.5-83.7,13.9c-45.2,0.6-91-5-135.1,5c-68.7,15.5-125.8,67.1-195.2,78.6c-93.5,15.5-193.1-44.3-281.1-9 c-44.6,17.9-79.4,58.6-126.7,66.8c-82.4,14.4-148.8-74-231.9-83.8c-47.6-5.7-96.1,15.3-142.9,5.1c-44.1-9.6-77.3-44.4-112.1-73 C65.1,656.9,32.5,637.8,0,636.1v116.3C50,809.2,119.5,848.8,194.1,862z" transform="matrix(1, 0, 0, 1, 0, 0)"/><path fill="#FFCB2B" d="M1366.9,1043.1c-76.6-1.2-154-19.6-229-4.2c-41.1,8.4-80.1,26.8-121.9,31.1c-42.3,4.4-84.9-6-127.4-3.7 c-42.8,2.3-84,17.3-124.8,33.7H1400v-57.9C1388.9,1043,1377.8,1043.3,1366.9,1043.1z" transform="matrix(1, 0, 0, 1, 0, 0)"/><path fill="#E3F4F8" d="M112.1,550.5c33.6,36,69.8,78.4,119,80.8c41.7,2.1,82.3-26.3,123.1-17.3c47.2,10.4,72.1,65.3,117.4,82.1 c43.9,16.3,92.1-7.9,130-35.5s76.1-60.5,122.8-64.1c42.8-3.3,82.7,18.9,121.3,37.8c38.5,18.9,83.2,35.2,123.4,20.1 c45.1-17,67.9-67.2,107.1-95.2c48.4-34.6,113.1-30.6,172.6-31.1c55.3-0.5,118.1-10.9,151.3-53.3v-30.3 c-18,27.1-47.5,46-78.6,56.6c-35.9,12.2-74.2,14.8-112.1,17.2c-22.9,1.5-44.2,4.7-65.7,7.7c-32.4,4.5-63.2,16.7-89.9,35.4 c-44.9,31.4-93.2,57.9-147,60c-74.2,2.9-146.9-41.6-219.6-26.5c-44.2,9.2-80.7,39.2-120.5,60.5C526.7,677,475,689,438.2,662.8 c-24.5-17.4-37.8-48.8-65-61.6c-42.9-20.1-91.4,16.5-138.7,14.4c-33.5-1.5-63.1-22.5-86.4-46.7c-23.3-24.2-42.5-52.2-67.8-74.3 C58.1,475.1,29,460.5,0,462.3v29.6C41.3,487.3,82.3,518.6,112.1,550.5z" transform="matrix(1, 0, 0, 1, 0, 0)"/><path fill="#FDD649" d="M1259.9,868.1c-66.3-4.7-136.4-17.1-196.8,10.8c-33.2,15.3-61.3,42.2-96.9,50.7 c-40.8,9.8-82.9-6.1-124.8-8.2c-107.1-5.4-207.7,79.5-313,59c-71.8-14-126.2-74.2-195.6-97.1c-44.4-14.6-92.4-13.1-138.5-21.3 C119.5,848.8,50,809.2,0,752.4v208.4c46,23.3,93.3,44.1,140.6,64.9c31.7,13.9,63.8,28,98,33.7c51.7,8.6,105.5-2.4,156.5,9.7 c26.1,6.2,50.2,18.3,74.1,30.9h294.7c40.8-16.3,82-31.3,124.8-33.7c42.5-2.3,85.1,8.1,127.4,3.7c41.8-4.3,80.8-22.7,121.9-31.1 c75-15.4,152.4,2.9,229,4.2c10.9,0.2,22-0.1,33.1-1V846.7C1359.5,868.2,1307.2,871.4,1259.9,868.1z" transform="matrix(1, 0, 0, 1, 0, 0)"/><path fill="#FFEEB3" d="M203.4,751.3c46.8,10.2,95.4-10.8,142.9-5.1c83.1,9.9,149.5,98.3,231.9,83.8 c47.3-8.3,82.1-48.9,126.7-66.8c88-35.3,187.6,24.5,281.1,9c69.5-11.5,126.5-63.1,195.2-78.6c44.1-9.9,89.9-4.4,135.1-5 c28.2-0.4,57.7-3.7,83.7-13.9V544.5c-10.8,9.3-23,17-35.8,22.8c-41.1,18.6-87.4,21.1-132.4,23.4c-45.1,2.2-91.3,4.7-132.4,23.3 c-58.4,26.4-105.6,84.5-169.7,84.9c-54,0.3-100.5-41.7-154.4-45.4C681,647,606,757.2,512.6,744c-55.1-7.8-98.4-57.8-153.9-61.1 c-34.6-2-68.1,14.7-102.7,13c-35.9-1.7-67.8-23-95.3-46.1c-27.5-23.1-53.4-49.3-86-64.4c-23-10.7-50.9-14.5-74.6-7.2v58 c32.5,1.7,65.1,20.8,91.3,42.3C126.1,707,159.3,741.8,203.4,751.3z" transform="matrix(1, 0, 0, 1, 0, 0)"/><path fill="#B9E3EA" d="M74.6,585.3c32.6,15.1,58.5,41.3,86,64.4c27.5,23.1,59.4,44.4,95.3,46.1c34.6,1.7,68.1-15,102.7-13 c55.5,3.3,98.8,53.3,153.9,61.1c93.5,13.3,168.5-97,262.6-90.5c53.9,3.7,100.4,45.8,154.4,45.4c64.1-0.4,111.3-58.5,169.7-84.9 c41.1-18.6,87.4-21.1,132.4-23.3c45.1-2.2,91.3-4.7,132.4-23.4c12.8-5.8,25-13.5,35.8-22.8v-69.6c-33.2,42.4-96,52.7-151.3,53.3 c-59.5,0.6-124.2-3.5-172.6,31.1c-39.2,28-62,78.2-107.1,95.2c-40.1,15.1-84.8-1.2-123.4-20.1c-38.5-18.9-78.5-41.1-121.3-37.8 c-46.7,3.6-84.9,36.6-122.8,64.1s-86.1,51.8-130,35.5c-45.3-16.8-70.2-71.8-117.4-82.1c-40.8-9-81.4,19.4-123.1,17.3 c-49.2-2.5-85.4-44.8-119-80.8C82.3,518.6,41.3,487.3,0,491.9v86.2C23.7,570.8,51.6,574.6,74.6,585.3z" transform="matrix(1, 0, 0, 1, 0, 0)"/></g><path fill="#36A6DD" d="M 507 945.599976 H 536 V 1073.399979 H 507 V 945.599976 Z" transform="matrix(0.5165999531745911, -0.8561999797821045, 0.8561999797821045, 0.5165999531745911, -612.2766723632812, 934.5010986328125)"/><path fill="#FFF" d="M 382.700012 1119.199951 H 510.500015 V 1148.199951 H 382.700012 V 1119.199951 Z" transform="matrix(-0.8561999797821045, -0.5165999531745911, 0.5165999531745911, -0.8561999797821045, 243.30599975585938, 2335.091796875)"/><path fill="#FFF" d="M 472.600006 970.200012 H 600.400009 V 999.200012 H 472.600006 V 970.200012 Z" transform="matrix(0.8561999797821045, 0.5165999531745911, -0.5165999531745911, 0.8561999797821045, 585.9000854492188, -135.58949279785156)"/><path fill="#FFF" d="M 442.600006 1019.900024 H 570.400009 V 1048.900024 H 442.600006 V 1019.900024 Z" transform="matrix(-0.8561999797821045, -0.5165999531745911, 0.5165999531745911, -0.8561999797821045, 405.86309814453125, 2181.69970703125)"/><path fill="#36A6DD" d="M 397.700012 1094.400024 H 525.500015 V 1123.400024 H 397.700012 V 1094.400024 Z" transform="matrix(-0.8561999797821045, -0.5165999531745911, 0.5165999531745911, -0.8561999797821045, 283.9453125, 2296.74365234375)"/><path fill="#FFF" d="M 412.700012 1069.5 H 540.500015 V 1098.5 H 412.700012 V 1069.5 Z" transform="matrix(-0.8561999797821045, -0.5165999531745911, 0.5165999531745911, -0.8561999797821045, 324.5845947265625, 2258.3955078125)"/><path fill="#36A6DD" d="M 427.700012 1044.699951 H 555.500015 V 1073.699951 H 427.700012 V 1044.699951 Z" transform="matrix(-0.8561999797821045, -0.5165999531745911, 0.5165999531745911, -0.8561999797821045, 365.2239074707031, 2220.047607421875)"/><path fill="#C2B59B" d="M 1276.300049 1101.199951 H 1387.000046 V 1126.299952 H 1276.300049 V 1101.199951 Z" transform="matrix(-0.983500063419342, 0.18080000579357147, -0.18080000579357147, -0.983500063419342, 2842.86865234375, 1968.41015625)"/><path fill="#C2B59B" d="M 1291.900024 910.200012 H 1317.000025 V 1020.900009 H 1291.900024 V 910.200012 Z" transform="matrix(-0.18080000579357147, -0.983500063419342, 0.983500063419342, -0.18080000579357147, 590.7105712890625, 2423.064697265625)"/><path fill="#726658" d="M 1271.800049 1076.5 H 1382.500046 V 1101.6 H 1271.800049 V 1076.5 Z" transform="matrix(-0.983500063419342, 0.18080000579357147, -0.18080000579357147, -0.983500063419342, 2829.39111328125, 1920.2216796875)"/><path fill="#726658" d="M 1244.5 928.299988 H 1355.199997 V 953.399988 H 1244.5 V 928.299988 Z" transform="matrix(0.983500063419342, -0.18080000579357147, 0.18080000579357147, 0.983500063419342, -148.68209838867188, 250.54209899902344)"/><path fill="#726658" d="M 1253.599976 977.700012 H 1364.299973 V 1002.800013 H 1253.599976 V 977.700012 Z" transform="matrix(-0.983500063419342, 0.18080000579357147, -0.18080000579357147, -0.983500063419342, 2775.482177734375, 1727.4677734375)"/><path fill="#C2B59B" d="M 1267.300049 1051.800049 H 1378.000046 V 1076.900049 H 1267.300049 V 1051.800049 Z" transform="matrix(-0.983500063419342, 0.18080000579357147, -0.18080000579357147, -0.983500063419342, 2815.913818359375, 1872.033203125)"/><path fill="#726658" d="M 1262.699951 1027.099976 H 1373.399948 V 1052.199976 H 1262.699951 V 1027.099976 Z" transform="matrix(-0.983500063419342, 0.18080000579357147, -0.18080000579357147, -0.983500063419342, 2802.4365234375, 1823.8447265625)"/><path fill="#C2B59B" d="M 1258.199951 1002.400024 H 1368.899948 V 1027.500025 H 1258.199951 V 1002.400024 Z" transform="matrix(-0.983500063419342, 0.18080000579357147, -0.18080000579357147, -0.983500063419342, 2788.95947265625, 1775.65625)"/><path fill="#7ECAC2" d="M -11.5 839 H 143.800003 V 1092.5 H -11.5 V 839 Z" transform="matrix(0.9498000741004944, 0.31290000677108765, -0.31290000677108765, 0.9498000741004944, 305.4783020019531, 27.77910041809082)"/><path fill="#048A7B" d="M 18.700001 863.799988 H 174.000004 V 884.399988 H 18.700001 V 863.799988 Z" transform="matrix(0.9498000741004944, 0.31290000677108765, -0.31290000677108765, 0.9498000741004944, 278.3183898925781, 13.741600036621094)"/><path fill="#048A7B" d="M -42.299999 1049 H 113.000004 V 1069.6 H -42.299999 V 1049 Z" transform="matrix(0.9498000741004944, 0.31290000677108765, -0.31290000677108765, 0.9498000741004944, 333.2025146484375, 42.128299713134766)"/><path fill="#FBB217" d="M 860.299988 795.799988 H 980.999985 V 1073.899994 H 860.299988 V 795.799988 Z" transform="matrix(0.8651999831199646, -0.5015000104904175, 0.5015000104904175, 0.8651999831199646, -344.64788818359375, 587.7178955078125)"/><path fill="#EF592C" d="M 807.200012 831.900024 H 927.900009 V 854.500025 H 807.200012 V 831.900024 Z" transform="matrix(0.8651999831199646, -0.5015000104904175, 0.5015000104904175, 0.8651999831199646, -305.8922119140625, 548.74951171875)"/><path fill="#EF592C" d="M 914.5 1017 H 1035.199997 V 1039.6 H 914.5 V 1017 Z" transform="matrix(0.8651999831199646, -0.5015000104904175, 0.5015000104904175, 0.8651999831199646, -384.23651123046875, 627.49169921875)"/><g><path fill="#EE6393" d="M425.1,961.4c-2.4-4.7-8.1-6.5-12.8-4.1l-22.2,11.5c-4.7,2.4-6.5,8.1-4.1,12.8c2.4,4.7,8.1,6.5,12.8,4.1 l22.2-11.5C425.7,971.8,427.5,966.1,425.1,961.4z" transform="matrix(1, 0, 0, 1, 0, 0)"/><path fill="#FFF" d="M418,967.2l3.4-1.8c0.5-0.3,0.7-0.9,0.4-1.3c-0.3-0.5-0.9-0.7-1.3-0.4l-3.2,1.7 c-3.2-3.5-10.6-3.2-13.4-2.4c-0.5,0.1-0.8,0.7-0.7,1.2c0,0.1,0,0.1,0.1,0.2c0.2,0.4,0.7,0.6,1.2,0.5c3-0.8,9.5-0.6,11.6,2.1 c0.3,3.8-2.6,7.8-5.4,9.6c-0.4,0.3-0.6,0.8-0.4,1.3c0,0,0,0.1,0,0.1c0.3,0.5,0.9,0.6,1.4,0.3C415,976.2,418.1,971.7,418,967.2z" transform="matrix(1, 0, 0, 1, 0, 0)"/></g><path fill="#EE6393" d="M433.9,980.2c3.6,3.9,3.3,9.9-0.5,13.4l-18.4,17c-3.9,3.6-9.9,3.3-13.4-0.5c-3.6-3.9-3.3-9.9,0.5-13.4 l18.4-17C424.4,976.1,430.4,976.4,433.9,980.2z" transform="matrix(1, 0, 0, 1, 0, 0)"/><path fill="#FFF" d="M426.1,984.9l2.8-2.6c0.4-0.4,1-0.3,1.4,0.1c0.4,0.4,0.3,1-0.1,1.4l-2.7,2.5c2.1,4.2-0.6,11.1-2.3,13.4 c-0.3,0.5-0.9,0.6-1.4,0.2c-0.1,0-0.1-0.1-0.2-0.1c-0.3-0.3-0.4-0.9-0.1-1.3c1.8-2.5,3.8-8.7,1.9-11.6 c-3.5-1.6-8.2-0.3-10.9,1.8c-0.4,0.3-1,0.3-1.3-0.1c0,0,0,0-0.1-0.1c-0.3-0.4-0.3-1.1,0.2-1.4 C416.7,984.7,421.9,983.2,426.1,984.9z" transform="matrix(1, 0, 0, 1, 0, 0)"/><g><path fill="#3BB2E6" d="M1230.3,984.5c-4.8-2.1-10.4,0.2-12.5,5l-9.8,23c-2.1,4.8,0.2,10.4,5,12.5c4.8,2.1,10.4-0.2,12.5-5 l9.8-23C1237.4,992.1,1235.1,986.6,1230.3,984.5z" transform="matrix(1, 0, 0, 1, 0, 0)"/><path fill="#FFF" d="M1228.5,993.4l1.5-3.5c0.2-0.5,0-1.1-0.5-1.3s-1.1,0-1.3,0.5l-1.4,3.3c-4.7-0.6-10.2,4.3-11.9,6.6 c-0.3,0.5-0.2,1.1,0.2,1.4c0.1,0,0.1,0.1,0.2,0.1c0.4,0.2,0.9,0,1.2-0.3c1.8-2.5,6.9-6.5,10.3-5.7c2.6,2.8,3,7.6,1.9,10.8 c-0.2,0.5,0.1,1,0.6,1.2c0,0,0.1,0,0.1,0c0.5,0.2,1.1-0.1,1.3-0.6C1231.9,1002.3,1231.5,996.9,1228.5,993.4z" transform="matrix(1, 0, 0, 1, 0, 0)"/></g><path fill="#3BB2E6" d="M1237.3,1024.5c5.2,0.7,8.8,5.5,8.1,10.7l-3.4,24.8c-0.7,5.2-5.5,8.8-10.7,8.1 c-5.2-0.7-8.8-5.5-8.1-10.7l3.4-24.8C1227.3,1027.4,1232.1,1023.8,1237.3,1024.5z" transform="matrix(1, 0, 0, 1, 0, 0)"/><path fill="#FFF" d="M1234.2,1033.1l0.5-3.8c0.1-0.5,0.6-0.9,1.1-0.9c0.5,0.1,0.9,0.6,0.9,1.1l-0.5,3.6 c4.3,1.9,6.6,9,6.8,11.8c0,0.6-0.4,1-0.9,1.1c-0.1,0-0.1,0-0.2,0c-0.5-0.1-0.8-0.4-0.9-0.9c-0.2-3.1-2.6-9.1-5.9-10.2 c-3.7,1-6.5,5-7.2,8.3c-0.1,0.5-0.6,0.8-1.1,0.8c0,0-0.1,0-0.1,0c-0.5-0.1-0.9-0.7-0.8-1.2 C1226.8,1038.9,1229.9,1034.5,1234.2,1033.1z" transform="matrix(1, 0, 0, 1, 0, 0)"/><g opacity=".17"><path fill="#754C29" d="M 80.30000305175781 850 L -9.199999809265137 880.9000244140625 L -50.599998474121094 965.9000244140625 L -19.799999237060547 1055.4000244140625 L 65.30000305175781 1096.800048828125 L 154.6999969482422 1066 L 196.1999969482422 980.9000244140625 L 165.3000030517578 891.5 Z" transform="matrix(1, 0, 0, 1, 0, 0)"/><path fill="#754C29" d="M 1436.0999755859375 986.2000122070312 L 1355.9000244140625 936 L 1263.699951171875 957.2999877929688 L 1213.5 1037.5 L 1234.800048828125 1129.699951171875 L 1315 1179.9000244140625 L 1407.199951171875 1158.5999755859375 L 1457.4000244140625 1078.4000244140625 Z" transform="matrix(1, 0, 0, 1, 0, 0)"/><path fill="#754C29" d="M 951.7999877929688 831.5 L 860 854.5 L 811.2999877929688 935.5999755859375 L 834.2999877929688 1027.4000244140625 L 915.5 1076.0999755859375 L 1007.2000122070312 1053.0999755859375 L 1055.9000244140625 971.9000244140625 L 1032.9000244140625 880.0999755859375 Z" transform="matrix(1, 0, 0, 1, 0, 0)"/><path fill="#754C29" d="M 579.299988 1158.599976 A 122 122 0 0 1 457.299988 1280.599976 A 122 122 0 0 1 335.299988 1158.599976 A 122 122 0 0 1 457.299988 1036.599976 A 122 122 0 0 1 579.299988 1158.599976 Z" transform="matrix(1, 0, 0, 1, 0, 0)"/></g><path fill="#FFF" d="M 155.60000610351562 822.5 L 66.19999694824219 853.2999877929688 L 148.10000610351562 945.9000244140625 Z" transform="matrix(1, 0, 0, 1, 0, 0)"/><path fill="#F27049" d="M 66.19999694824219 853.2999877929688 L 24.700000762939453 938.4000244140625 L 148.10000610351562 945.9000244140625 Z" transform="matrix(1, 0, 0, 1, 0, 0)"/><path fill="#FFF" d="M 271.5 953.2999877929688 L 240.6999969482422 863.9000244140625 L 148.10000610351562 945.9000244140625 Z" transform="matrix(1, 0, 0, 1, 0, 0)"/><path fill="#F27049" d="M 240.6999969482422 863.9000244140625 L 155.60000610351562 822.5 L 148.10000610351562 945.9000244140625 Z" transform="matrix(1, 0, 0, 1, 0, 0)"/><path fill="#F27049" d="M 55.599998474121094 1027.800048828125 L 140.6999969482422 1069.300048828125 L 148.10000610351562 945.9000244140625 Z" transform="matrix(1, 0, 0, 1, 0, 0)"/><path fill="#F27049" d="M 148.10000610351562 945.9000244140625 L 230.10000610351562 1038.4000244140625 L 271.5 953.2999877929688 Z" transform="matrix(1, 0, 0, 1, 0, 0)"/><path fill="#FFF" d="M 24.700000762939453 938.4000244140625 L 55.599998474121094 1027.800048828125 L 148.10000610351562 945.9000244140625 Z" transform="matrix(1, 0, 0, 1, 0, 0)"/><path fill="#FFF" d="M 140.6999969482422 1069.300048828125 L 230.10000610351562 1038.4000244140625 L 148.10000610351562 945.9000244140625 Z" transform="matrix(1, 0, 0, 1, 0, 0)"/><path fill="#FFF" d="M 1431.199951171875 908.5 L 1339 929.7000122070312 L 1410.800048828125 1030.4000244140625 Z" transform="matrix(1, 0, 0, 1, 0, 0)"/><path fill="#FFF" d="M 1288.9000244140625 1010 L 1310.0999755859375 1102.199951171875 L 1410.800048828125 1030.4000244140625 Z" transform="matrix(1, 0, 0, 1, 0, 0)"/><path fill="#FFF" d="M 1410.800048828125 1030.4000244140625 L 1390.4000244140625 1152.300048828125 L 1482.5999755859375 1131.0999755859375 Z" transform="matrix(1, 0, 0, 1, 0, 0)"/><path fill="#0CB9A6" d="M 1339 929.7000122070312 L 1288.9000244140625 1010 L 1410.800048828125 1030.4000244140625 Z" transform="matrix(1, 0, 0, 1, 0, 0)"/><path fill="#0CB9A6" d="M 1310.0999755859375 1102.199951171875 L 1390.4000244140625 1152.300048828125 L 1410.800048828125 1030.4000244140625 Z" transform="matrix(1, 0, 0, 1, 0, 0)"/><path fill="#3BB2E6" d="M 1115.199951171875 942 L 1099.0999755859375 939.5999755859375 L 1063.300048828125 999.4000244140625 L 1072.9000244140625 1012.5 L 1082.5999755859375 1025.5 L 1131.300048828125 944.4000244140625 Z" transform="matrix(1, 0, 0, 1, 0, 0)"/><path fill="#D8362C" d="M 954.7000122070312 853 L 954.7000122070312 853 L 1022.4000244140625 836 L 1024.699951171875 820 L 1027.0999755859375 803.9000244140625 L 935.2999877929688 826.9000244140625 L 945 839.9000244140625 Z" transform="matrix(1, 0, 0, 1, 0, 0)"/><path fill="#3BB2E6" d="M 1022.4000244140625 836 L 1022.4000244140625 836 L 1082.199951171875 871.9000244140625 L 1082.199951171875 871.9000244140625 L 1095.199951171875 862.2000122070312 L 1108.300048828125 852.5999755859375 L 1027.0999755859375 803.9000244140625 L 1024.699951171875 820 Z" transform="matrix(1, 0, 0, 1, 0, 0)"/><path fill="#3BB2E6" d="M 918.7999877929688 912.7999877929688 L 954.7000122070312 853 L 945 839.9000244140625 L 935.2999877929688 826.9000244140625 L 886.7000122070312 908 L 902.7000122070312 910.4000244140625 Z" transform="matrix(1, 0, 0, 1, 0, 0)"/><path fill="#D8362C" d="M 1082.199951171875 871.9000244140625 L 1099.0999755859375 939.5999755859375 L 1099.0999755859375 939.5999755859375 L 1115.199951171875 942 L 1131.300048828125 944.4000244140625 L 1108.300048828125 852.5999755859375 L 1095.199951171875 862.2000122070312 Z" transform="matrix(1, 0, 0, 1, 0, 0)"/><path fill="#D8362C" d="M 935.7000122070312 980.5 L 918.7999877929688 912.7999877929688 L 918.7999877929688 912.7999877929688 L 902.7000122070312 910.4000244140625 L 886.7000122070312 908 L 909.7000122070312 999.7999877929688 L 922.7000122070312 990.2000122070312 Z" transform="matrix(1, 0, 0, 1, 0, 0)"/><path fill="#D8362C" d="M 1063.300048828125 999.4000244140625 L 1063.300048828125 999.4000244140625 L 995.5999755859375 1016.4000244140625 L 993.2000122070312 1032.4000244140625 L 990.7999877929688 1048.5 L 1082.5999755859375 1025.5 L 1072.9000244140625 1012.5 Z" transform="matrix(1, 0, 0, 1, 0, 0)"/><path fill="#3BB2E6" d="M 995.5999755859375 1016.4000244140625 L 995.5999755859375 1016.4000244140625 L 935.7000122070312 980.5 L 935.7000122070312 980.5 L 922.7000122070312 990.2000122070312 L 909.7000122070312 999.7999877929688 L 990.7999877929688 1048.5 L 993.2000122070312 1032.4000244140625 Z" transform="matrix(1, 0, 0, 1, 0, 0)"/><path fill="#E84D41" d="M 1082.199951171875 871.9000244140625 L 1069.0999755859375 881.5999755859375 L 1056.0999755859375 891.2000122070312 L 1056.0999755859375 891.2000122070312 L 1067 934.7999877929688 L 1067 934.7999877929688 L 1083.0999755859375 937.2000122070312 L 1099.0999755859375 939.5999755859375 L 1099.0999755859375 939.5999755859375 Z" transform="matrix(1, 0, 0, 1, 0, 0)"/><path fill="#5AC2EF" d="M 950.9000244140625 917.5999755859375 L 974 879.0999755859375 L 964.2999877929688 866 L 954.7000122070312 853 L 918.7999877929688 912.7999877929688 L 934.9000244140625 915.2000122070312 Z" transform="matrix(1, 0, 0, 1, 0, 0)"/><path fill="#E84D41" d="M 974 879.0999755859375 L 974 879.0999755859375 L 1017.5999755859375 868.2000122070312 L 1020 852.0999755859375 L 1022.4000244140625 836 L 954.7000122070312 853 L 954.7000122070312 853 L 964.2999877929688 866 Z" transform="matrix(1, 0, 0, 1, 0, 0)"/><path fill="#5AC2EF" d="M 1000.4000244140625 984.2000122070312 L 961.7999877929688 961.2000122070312 L 961.7999877929688 961.2000122070312 L 948.7999877929688 970.7999877929688 L 935.7000122070312 980.5 L 935.7000122070312 980.5 L 995.5999755859375 1016.4000244140625 L 995.5999755859375 1016.4000244140625 L 998 1000.2999877929688 Z" transform="matrix(1, 0, 0, 1, 0, 0)"/><path fill="#E84D41" d="M 961.7999877929688 961.2000122070312 L 950.9000244140625 917.5999755859375 L 950.9000244140625 917.5999755859375 L 934.9000244140625 915.2000122070312 L 918.7999877929688 912.7999877929688 L 918.7999877929688 912.7999877929688 L 935.7000122070312 980.5 L 948.7999877929688 970.7999877929688 Z" transform="matrix(1, 0, 0, 1, 0, 0)"/><path fill="#5AC2EF" d="M 1067 934.7999877929688 L 1043.9000244140625 973.2999877929688 L 1053.5999755859375 986.4000244140625 L 1063.300048828125 999.4000244140625 L 1099.0999755859375 939.5999755859375 L 1083.0999755859375 937.2000122070312 Z" transform="matrix(1, 0, 0, 1, 0, 0)"/><path fill="#5AC2EF" d="M 1017.5999755859375 868.2000122070312 L 1017.5999755859375 868.2000122070312 L 1056.0999755859375 891.2000122070312 L 1069.0999755859375 881.5999755859375 L 1082.199951171875 871.9000244140625 L 1082.199951171875 871.9000244140625 L 1022.4000244140625 836 L 1022.4000244140625 836 L 1020 852.0999755859375 Z" transform="matrix(1, 0, 0, 1, 0, 0)"/><path fill="#E84D41" d="M 1043.9000244140625 973.2999877929688 L 1043.9000244140625 973.2999877929688 L 1000.4000244140625 984.2000122070312 L 1000.4000244140625 984.2000122070312 L 998 1000.2999877929688 L 995.5999755859375 1016.4000244140625 L 1063.300048828125 999.4000244140625 L 1063.300048828125 999.4000244140625 L 1053.5999755859375 986.4000244140625 Z" transform="matrix(1, 0, 0, 1, 0, 0)"/><path fill="#86D2F4" d="M 1017.5999755859375 868.2000122070312 L 1015.2000122070312 884.2000122070312 L 1012.7999877929688 900.2999877929688 L 1030 910.5999755859375 L 1043.0999755859375 900.9000244140625 L 1056.0999755859375 891.2000122070312 L 1017.5999755859375 868.2000122070312 Z" transform="matrix(1, 0, 0, 1, 0, 0)"/><path fill="#86D2F4" d="M 1005.0999755859375 952.0999755859375 L 987.9000244140625 941.7999877929688 L 974.9000244140625 951.5 L 961.7999877929688 961.2000122070312 L 961.7999877929688 961.2000122070312 L 1000.4000244140625 984.2000122070312 L 1002.7000122070312 968.2000122070312 Z" transform="matrix(1, 0, 0, 1, 0, 0)"/><path fill="#86D2F4" d="M 1034.9000244140625 930 L 1024.5999755859375 947.2999877929688 L 1034.300048828125 960.2999877929688 L 1043.9000244140625 973.2999877929688 L 1067 934.7999877929688 L 1051 932.4000244140625 Z" transform="matrix(1, 0, 0, 1, 0, 0)"/><path fill="#EF6B60" d="M 1024.5999755859375 947.2999877929688 L 1024.5999755859375 947.2999877929688 L 1005.0999755859375 952.0999755859375 L 1005.0999755859375 952.0999755859375 L 1002.7000122070312 968.2000122070312 L 1000.4000244140625 984.2000122070312 L 1000.4000244140625 984.2000122070312 L 1043.9000244140625 973.2999877929688 L 1043.9000244140625 973.2999877929688 L 1034.300048828125 960.2999877929688 Z" transform="matrix(1, 0, 0, 1, 0, 0)"/><path fill="#EF6B60" d="M 987.9000244140625 941.7999877929688 L 987.9000244140625 941.7999877929688 L 983 922.4000244140625 L 983 922.4000244140625 L 967 920 L 950.9000244140625 917.5999755859375 L 950.9000244140625 917.5999755859375 L 961.7999877929688 961.2000122070312 L 974.9000244140625 951.5 Z" transform="matrix(1, 0, 0, 1, 0, 0)"/><path fill="#EF6B60" d="M 993.4000244140625 905.0999755859375 L 993.4000244140625 905.0999755859375 L 1012.7999877929688 900.2999877929688 L 1012.7999877929688 900.2999877929688 L 1015.2000122070312 884.2000122070312 L 1017.5999755859375 868.2000122070312 L 974 879.0999755859375 L 974 879.0999755859375 L 983.7000122070312 892.0999755859375 Z" transform="matrix(1, 0, 0, 1, 0, 0)"/><path fill="#EF6B60" d="M 1030 910.5999755859375 L 1030 910.5999755859375 L 1034.9000244140625 930 L 1034.9000244140625 930 L 1051 932.4000244140625 L 1067 934.7999877929688 L 1067 934.7999877929688 L 1056.0999755859375 891.2000122070312 L 1056.0999755859375 891.2000122070312 L 1043.0999755859375 900.9000244140625 Z" transform="matrix(1, 0, 0, 1, 0, 0)"/><path fill="#86D2F4" d="M 983 922.4000244140625 L 993.4000244140625 905.0999755859375 L 983.7000122070312 892.0999755859375 L 974 879.0999755859375 L 950.9000244140625 917.5999755859375 L 967 920 Z" transform="matrix(1, 0, 0, 1, 0, 0)"/><path fill="#F69A89" d="M 993.4000244140625 905.0999755859375 L 993.4000244140625 905.0999755859375 L 1003 918.2000122070312 L 1009 926.2000122070312 L 1010.4000244140625 916.2999877929688 L 1012.7999877929688 900.2999877929688 L 1012.7999877929688 900.2999877929688 Z" transform="matrix(1, 0, 0, 1, 0, 0)"/><path fill="#F69A89" d="M 1009 926.2000122070312 L 1018.7999877929688 927.7000122070312 L 1034.9000244140625 930 L 1034.9000244140625 930 L 1030 910.5999755859375 L 1030 910.5999755859375 L 1017 920.2999877929688 Z" transform="matrix(1, 0, 0, 1, 0, 0)"/><path fill="#F69A89" d="M 1009 926.2000122070312 L 1007.5 936.0999755859375 L 1005.0999755859375 952.0999755859375 L 1005.0999755859375 952.0999755859375 L 1024.5999755859375 947.2999877929688 L 1024.5999755859375 947.2999877929688 L 1014.9000244140625 934.2000122070312 Z" transform="matrix(1, 0, 0, 1, 0, 0)"/><path fill="#B8E5F7" d="M 1009 926.2000122070312 L 1017 920.2999877929688 L 1030 910.5999755859375 L 1012.7999877929688 900.2999877929688 L 1010.4000244140625 916.2999877929688 Z" transform="matrix(1, 0, 0, 1, 0, 0)"/><path fill="#B8E5F7" d="M 1009 926.2000122070312 L 1014.9000244140625 934.2000122070312 L 1024.5999755859375 947.2999877929688 L 1034.9000244140625 930 L 1018.7999877929688 927.7000122070312 Z" transform="matrix(1, 0, 0, 1, 0, 0)"/><path fill="#B8E5F7" d="M 1009 926.2000122070312 L 1001 932.0999755859375 L 987.9000244140625 941.7999877929688 L 1005.0999755859375 952.0999755859375 L 1007.5 936.0999755859375 Z" transform="matrix(1, 0, 0, 1, 0, 0)"/><path fill="#F69A89" d="M 1009 926.2000122070312 L 999.0999755859375 924.7000122070312 L 983 922.4000244140625 L 983 922.4000244140625 L 987.9000244140625 941.7999877929688 L 987.9000244140625 941.7999877929688 L 1001 932.0999755859375 Z" transform="matrix(1, 0, 0, 1, 0, 0)"/><path fill="#B8E5F7" d="M 1009 926.2000122070312 L 1003 918.2000122070312 L 993.4000244140625 905.0999755859375 L 983 922.4000244140625 L 999.0999755859375 924.7000122070312 Z" transform="matrix(1, 0, 0, 1, 0, 0)"/><path fill="#EC6D24" d="M 654.700012 1131.099976 A 122 122 0 0 1 532.700012 1253.099976 A 122 122 0 0 1 410.700012 1131.099976 A 122 122 0 0 1 532.700012 1009.099976 A 122 122 0 0 1 654.700012 1131.099976 Z" transform="matrix(1, 0, 0, 1, 0, 0)"/><path fill="#F27C21" d="M532.7,1231.1c-55.1,0-100-44.9-100-100s44.9-100,100-100s100,44.9,100,100S587.8,1231.1,532.7,1231.1z" transform="matrix(1, 0, 0, 1, 0, 0)"/><path fill="#F68C20" d="M532.7,1209.1c-43,0-78-35-78-78s35-78,78-78s78,35,78,78S575.7,1209.1,532.7,1209.1z" transform="matrix(1, 0, 0, 1, 0, 0)"/><path fill="#F79920" d="M532.7,1187.1c-30.9,0-56-25.1-56-56s25.1-56,56-56s56,25.1,56,56S563.6,1187.1,532.7,1187.1z" transform="matrix(1, 0, 0, 1, 0, 0)"/><path fill="#FAA62C" d="M532.7,1165.1c-18.8,0-34-15.3-34-34s15.3-34,34-34s34,15.3,34,34S551.5,1165.1,532.7,1165.1z" transform="matrix(1, 0, 0, 1, 0, 0)"/><path fill="#D8362C" d="M609,939.6c0-13.1,10.7-23.7,23.7-23.7v-26c-27.4,0-49.7,22.3-49.7,49.7c0,0.3,0,0.5,0,0.7h26 C609,940.1,609,939.8,609,939.6z" transform="matrix(1, 0, 0, 1, 0, 0)"/><path fill="#D8362C" d="M656.4,940.3c-0.4,12.7-10.9,23-23.7,23v26c27.2,0,49.3-21.9,49.7-49H656.4z" transform="matrix(1, 0, 0, 1, 0, 0)"/><path fill="#E84D41" d="M656.5,939.6c0,0.3,0,0.5,0,0.7h26c0-0.2,0-0.5,0-0.7c0-27.4-22.3-49.7-49.7-49.7v26 C645.8,915.8,656.5,926.5,656.5,939.6z" transform="matrix(1, 0, 0, 1, 0, 0)"/><path fill="#E84D41" d="M609,940.3h-26c0.4,27.1,22.5,49,49.7,49v-26C619.9,963.3,609.4,953.1,609,940.3z" transform="matrix(1, 0, 0, 1, 0, 0)"/><path fill="#FFCB2B" d="M 470.299988 858.400024 A 5.5 5.5 0 0 1 464.799988 863.900024 A 5.5 5.5 0 0 1 459.299988 858.400024 A 5.5 5.5 0 0 1 464.799988 852.900024 A 5.5 5.5 0 0 1 470.299988 858.400024 Z" transform="matrix(1, 0, 0, 1, 0, 0)"/><path fill="#FFCB2B" d="M 508.899988 894.400024 A 5.1 5.1 0 0 1 503.799988 899.500024 A 5.1 5.1 0 0 1 498.699988 894.400024 A 5.1 5.1 0 0 1 503.799988 889.300025 A 5.1 5.1 0 0 1 508.899988 894.400024 Z" transform="matrix(1, 0, 0, 1, 0, 0)"/><path fill="#FFCB2B" d="M 530 843 A 7 7 0 0 1 523 850 A 7 7 0 0 1 516 843 A 7 7 0 0 1 523 836 A 7 7 0 0 1 530 843 Z" transform="matrix(1, 0, 0, 1, 0, 0)"/><path fill="#FFCB2B" d="M 99.999997 759.200012 A 6.8 6.8 0 0 1 93.199997 766.000012 A 6.8 6.8 0 0 1 86.399997 759.200012 A 6.8 6.8 0 0 1 93.199997 752.400012 A 6.8 6.8 0 0 1 99.999997 759.200012 Z" transform="matrix(1, 0, 0, 1, 0, 0)"/><path fill="#FFCB2B" d="M 108.299997 780.099976 A 4.1 4.1 0 0 1 104.199997 784.199975 A 4.1 4.1 0 0 1 100.099997 780.099976 A 4.1 4.1 0 0 1 104.199997 775.999976 A 4.1 4.1 0 0 1 108.299997 780.099976 Z" transform="matrix(1, 0, 0, 1, 0, 0)"/><path fill="#FFCB2B" d="M 113.300002 764.099976 A 1.9 1.9 0 0 1 111.400002 765.999976 A 1.9 1.9 0 0 1 109.500002 764.099976 A 1.9 1.9 0 0 1 111.400002 762.199976 A 1.9 1.9 0 0 1 113.300002 764.099976 Z" transform="matrix(1, 0, 0, 1, 0, 0)"/><path fill="#FFCB2B" d="M 118.300002 737.900024 A 4.4 4.4 0 0 1 113.900002 742.300025 A 4.4 4.4 0 0 1 109.500001 737.900024 A 4.4 4.4 0 0 1 113.900002 733.500024 A 4.4 4.4 0 0 1 118.300002 737.900024 Z" transform="matrix(1, 0, 0, 1, 0, 0)"/><path fill="#FFCB2B" d="M 121.300003 760.700012 A 1.5 1.5 0 0 1 119.800003 762.200012 A 1.5 1.5 0 0 1 118.300003 760.700012 A 1.5 1.5 0 0 1 119.800003 759.200012 A 1.5 1.5 0 0 1 121.300003 760.700012 Z" transform="matrix(1, 0, 0, 1, 0, 0)"/><path fill="#FFCB2B" d="M 501.700006 868.900024 A 5.1 5.1 0 0 1 496.600006 874.000024 A 5.1 5.1 0 0 1 491.500006 868.900024 A 5.1 5.1 0 0 1 496.600006 863.800025 A 5.1 5.1 0 0 1 501.700006 868.900024 Z" transform="matrix(1, 0, 0, 1, 0, 0)"/><path fill="#FFCB2B" d="M 486.299994 882.400024 A 2.9 2.9 0 0 1 483.399994 885.300025 A 2.9 2.9 0 0 1 480.499994 882.400024 A 2.9 2.9 0 0 1 483.399994 879.500024 A 2.9 2.9 0 0 1 486.299994 882.400024 Z" transform="matrix(1, 0, 0, 1, 0, 0)"/><path fill="#FFCB2B" d="M 495.600006 901.5 A 2 2 0 0 1 493.600006 903.5 A 2 2 0 0 1 491.600006 901.5 A 2 2 0 0 1 493.600006 899.5 A 2 2 0 0 1 495.600006 901.5 Z" transform="matrix(1, 0, 0, 1, 0, 0)"/><path fill="#FFCB2B" d="M 511.199994 912.799988 A 4.8 4.8 0 0 1 506.399994 917.599988 A 4.8 4.8 0 0 1 501.599994 912.799988 A 4.8 4.8 0 0 1 506.399994 907.999988 A 4.8 4.8 0 0 1 511.199994 912.799988 Z" transform="matrix(1, 0, 0, 1, 0, 0)"/><path fill="#FFCB2B" d="M 523.800025 882.400024 A 2.9 2.9 0 0 1 520.900024 885.300025 A 2.9 2.9 0 0 1 518.000024 882.400024 A 2.9 2.9 0 0 1 520.900024 879.500024 A 2.9 2.9 0 0 1 523.800025 882.400024 Z" transform="matrix(1, 0, 0, 1, 0, 0)"/><path fill="#FFCB2B" d="M 530 867.400024 A 3.5 3.5 0 0 1 526.5 870.900024 A 3.5 3.5 0 0 1 523 867.400024 A 3.5 3.5 0 0 1 526.5 863.900024 A 3.5 3.5 0 0 1 530 867.400024 Z" transform="matrix(1, 0, 0, 1, 0, 0)"/><path fill="#FFCB2B" d="M 777.000024 810.5 A 6.6 6.6 0 0 1 770.400024 817.1 A 6.6 6.6 0 0 1 763.800025 810.5 A 6.6 6.6 0 0 1 770.400024 803.9 A 6.6 6.6 0 0 1 777.000024 810.5 Z" transform="matrix(1, 0, 0, 1, 0, 0)"/><path fill="#FFCB2B" d="M 801.800025 791.599976 A 7.4 7.4 0 0 1 794.400024 798.999976 A 7.4 7.4 0 0 1 787.000024 791.599976 A 7.4 7.4 0 0 1 794.400024 784.199975 A 7.4 7.4 0 0 1 801.800025 791.599976 Z" transform="matrix(1, 0, 0, 1, 0, 0)"/><path fill="#FFCB2B" d="M 787 833.400024 A 5 5 0 0 1 782 838.400024 A 5 5 0 0 1 777 833.400024 A 5 5 0 0 1 782 828.400024 A 5 5 0 0 1 787 833.400024 Z" transform="matrix(1, 0, 0, 1, 0, 0)"/><path fill="#FFCB2B" d="M 784.000012 856.799988 A 6.8 6.8 0 0 1 777.200012 863.599988 A 6.8 6.8 0 0 1 770.400012 856.799988 A 6.8 6.8 0 0 1 777.200012 849.999988 A 6.8 6.8 0 0 1 784.000012 856.799988 Z" transform="matrix(1, 0, 0, 1, 0, 0)"/><path fill="#FFCB2B" d="M 1201 767 A 7 7 0 0 1 1194 774 A 7 7 0 0 1 1187 767 A 7 7 0 0 1 1194 760 A 7 7 0 0 1 1201 767 Z" transform="matrix(1, 0, 0, 1, 0, 0)"/><path fill="#FFCB2B" d="M 1217.699975 782.099976 A 2.1 2.1 0 0 1 1215.599976 784.199975 A 2.1 2.1 0 0 1 1213.499976 782.099976 A 2.1 2.1 0 0 1 1215.599976 779.999976 A 2.1 2.1 0 0 1 1217.699975 782.099976 Z" transform="matrix(1, 0, 0, 1, 0, 0)"/><path fill="#FFCB2B" d="M 1228.100049 759.700012 A 7.3 7.3 0 0 1 1220.800049 767.000012 A 7.3 7.3 0 0 1 1213.500049 759.700012 A 7.3 7.3 0 0 1 1220.800049 752.400012 A 7.3 7.3 0 0 1 1228.100049 759.700012 Z" transform="matrix(1, 0, 0, 1, 0, 0)"/><path fill="#FFCB2B" d="M 1239 731 A 8 8 0 0 1 1231 739 A 8 8 0 0 1 1223 731 A 8 8 0 0 1 1231 723 A 8 8 0 0 1 1239 731 Z" transform="matrix(1, 0, 0, 1, 0, 0)"/><path fill="#FFCB2B" d="M 1250 763.5 A 3.5 3.5 0 0 1 1246.5 767 A 3.5 3.5 0 0 1 1243 763.5 A 3.5 3.5 0 0 1 1246.5 760 A 3.5 3.5 0 0 1 1250 763.5 Z" transform="matrix(1, 0, 0, 1, 0, 0)"/><path fill="#FFCB2B" d="M 1243.199975 782.099976 A 2.1 2.1 0 0 1 1241.099976 784.199975 A 2.1 2.1 0 0 1 1238.999976 782.099976 A 2.1 2.1 0 0 1 1241.099976 779.999976 A 2.1 2.1 0 0 1 1243.199975 782.099976 Z" transform="matrix(1, 0, 0, 1, 0, 0)"/><path fill="#FBB217" d="M 737 987.599976 A 5 5 0 0 1 732 992.599976 A 5 5 0 0 1 727 987.599976 A 5 5 0 0 1 732 982.599976 A 5 5 0 0 1 737 987.599976 Z" transform="matrix(1, 0, 0, 1, 0, 0)"/><path fill="#FBB217" d="M 746 1009.200012 A 4.5 4.5 0 0 1 741.5 1013.700012 A 4.5 4.5 0 0 1 737 1009.200012 A 4.5 4.5 0 0 1 741.5 1004.700012 A 4.5 4.5 0 0 1 746 1009.200012 Z" transform="matrix(1, 0, 0, 1, 0, 0)"/><path fill="#FBB217" d="M 755 992.299988 A 3 3 0 0 1 752 995.299988 A 3 3 0 0 1 749 992.299988 A 3 3 0 0 1 752 989.299988 A 3 3 0 0 1 755 992.299988 Z" transform="matrix(1, 0, 0, 1, 0, 0)"/><path fill="#FBB217" d="M 759 980.5 A 2 2 0 0 1 757 982.5 A 2 2 0 0 1 755 980.5 A 2 2 0 0 1 757 978.5 A 2 2 0 0 1 759 980.5 Z" transform="matrix(1, 0, 0, 1, 0, 0)"/><path fill="#FBB217" d="M 757 1007.200012 A 2.5 2.5 0 0 1 754.5 1009.700012 A 2.5 2.5 0 0 1 752 1007.200012 A 2.5 2.5 0 0 1 754.5 1004.700012 A 2.5 2.5 0 0 1 757 1007.200012 Z" transform="matrix(1, 0, 0, 1, 0, 0)"/><path fill="#FBB217" d="M 741.499988 1026.699951 A 2.2 2.2 0 0 1 739.299988 1028.899951 A 2.2 2.2 0 0 1 737.099988 1026.699951 A 2.2 2.2 0 0 1 739.299988 1024.499951 A 2.2 2.2 0 0 1 741.499988 1026.699951 Z" transform="matrix(1, 0, 0, 1, 0, 0)"/><path fill="#FBB217" d="M 742.600024 1044.699951 A 1.7 1.7 0 0 1 740.900024 1046.399951 A 1.7 1.7 0 0 1 739.200024 1044.699951 A 1.7 1.7 0 0 1 740.900024 1042.999951 A 1.7 1.7 0 0 1 742.600024 1044.699951 Z" transform="matrix(1, 0, 0, 1, 0, 0)"/><path fill="#FBB217" d="M 641.5 1019.400024 A 3 3 0 0 1 638.5 1022.400024 A 3 3 0 0 1 635.5 1019.400024 A 3 3 0 0 1 638.5 1016.400024 A 3 3 0 0 1 641.5 1019.400024 Z" transform="matrix(1, 0, 0, 1, 0, 0)"/><path fill="#FBB217" d="M 649 1030.800049 A 2.5 2.5 0 0 1 646.5 1033.300049 A 2.5 2.5 0 0 1 644 1030.800049 A 2.5 2.5 0 0 1 646.5 1028.300049 A 2.5 2.5 0 0 1 649 1030.800049 Z" transform="matrix(1, 0, 0, 1, 0, 0)"/><path fill="#FBB217" d="M 652.099988 1016.5 A 2.8 2.8 0 0 1 649.299988 1019.3 A 2.8 2.8 0 0 1 646.499988 1016.5 A 2.8 2.8 0 0 1 649.299988 1013.7 A 2.8 2.8 0 0 1 652.099988 1016.5 Z" transform="matrix(1, 0, 0, 1, 0, 0)"/><path fill="#FBB217" d="M 646.900012 1002.099976 A 2.7 2.7 0 0 1 644.200012 1004.799976 A 2.7 2.7 0 0 1 641.500012 1002.099976 A 2.7 2.7 0 0 1 644.200012 999.399976 A 2.7 2.7 0 0 1 646.900012 1002.099976 Z" transform="matrix(1, 0, 0, 1, 0, 0)"/><path fill="#FBB217" d="M 655 1041.599976 A 3 3 0 0 1 652 1044.599976 A 3 3 0 0 1 649 1041.599976 A 3 3 0 0 1 652 1038.599976 A 3 3 0 0 1 655 1041.599976 Z" transform="matrix(1, 0, 0, 1, 0, 0)"/><path fill="#FBB217" d="M 296 998.599976 A 3.5 3.5 0 0 1 292.5 1002.099976 A 3.5 3.5 0 0 1 289 998.599976 A 3.5 3.5 0 0 1 292.5 995.099976 A 3.5 3.5 0 0 1 296 998.599976 Z" transform="matrix(1, 0, 0, 1, 0, 0)"/><path fill="#FBB217" d="M 299 1008.799988 A 1.5 1.5 0 0 1 297.5 1010.299988 A 1.5 1.5 0 0 1 296 1008.799988 A 1.5 1.5 0 0 1 297.5 1007.299988 A 1.5 1.5 0 0 1 299 1008.799988 Z" transform="matrix(1, 0, 0, 1, 0, 0)"/><path fill="#FBB217" d="M 306.599988 994.799988 A 3.8 3.8 0 0 1 302.799988 998.599988 A 3.8 3.8 0 0 1 298.999988 994.799988 A 3.8 3.8 0 0 1 302.799988 990.999988 A 3.8 3.8 0 0 1 306.599988 994.799988 Z" transform="matrix(1, 0, 0, 1, 0, 0)"/><path fill="#FBB217" d="M 303.899994 974.400024 A 4 4 0 0 1 299.899994 978.400024 A 4 4 0 0 1 295.899994 974.400024 A 4 4 0 0 1 299.899994 970.400024 A 4 4 0 0 1 303.899994 974.400024 Z" transform="matrix(1, 0, 0, 1, 0, 0)"/><path fill="#FBB217" d="M 289.600006 980.099976 A 3 3 0 0 1 286.600006 983.099976 A 3 3 0 0 1 283.600006 980.099976 A 3 3 0 0 1 286.600006 977.099976 A 3 3 0 0 1 289.600006 980.099976 Z" transform="matrix(1, 0, 0, 1, 0, 0)"/><path fill="#FBB217" d="M 299.899994 955.299988 A 2 2 0 0 1 297.899994 957.299988 A 2 2 0 0 1 295.899994 955.299988 A 2 2 0 0 1 297.899994 953.299988 A 2 2 0 0 1 299.899994 955.299988 Z" transform="matrix(1, 0, 0, 1, 0, 0)"/><path fill="#FBB217" d="M 317.900006 943.099976 A 2.8 2.8 0 0 1 315.100006 945.899976 A 2.8 2.8 0 0 1 312.300006 943.099976 A 2.8 2.8 0 0 1 315.100006 940.299976 A 2.8 2.8 0 0 1 317.900006 943.099976 Z" transform="matrix(1, 0, 0, 1, 0, 0)"/><path fill="#FBB217" d="M 332 991.799988 A 3.5 3.5 0 0 1 328.5 995.299988 A 3.5 3.5 0 0 1 325 991.799988 A 3.5 3.5 0 0 1 328.5 988.299988 A 3.5 3.5 0 0 1 332 991.799988 Z" transform="matrix(1, 0, 0, 1, 0, 0)"/><path fill="#FBB217" d="M 341.100006 1014.799988 A 4.5 4.5 0 0 1 336.600006 1019.299988 A 4.5 4.5 0 0 1 332.100006 1014.799988 A 4.5 4.5 0 0 1 336.600006 1010.299988 A 4.5 4.5 0 0 1 341.100006 1014.799988 Z" transform="matrix(1, 0, 0, 1, 0, 0)"/><path fill="#FBB217" d="M 347.000006 959.200012 A 2.9 2.9 0 0 1 344.100006 962.100012 A 2.9 2.9 0 0 1 341.200006 959.200012 A 2.9 2.9 0 0 1 344.100006 956.300012 A 2.9 2.9 0 0 1 347.000006 959.200012 Z" transform="matrix(1, 0, 0, 1, 0, 0)"/><path fill="#FBB217" d="M 1205.3 926.200012 A 3.8 3.8 0 0 1 1201.5 930.000012 A 3.8 3.8 0 0 1 1197.7 926.200012 A 3.8 3.8 0 0 1 1201.5 922.400012 A 3.8 3.8 0 0 1 1205.3 926.200012 Z" transform="matrix(1, 0, 0, 1, 0, 0)"/><path fill="#FBB217" d="M 1208.300049 945.799988 A 1.5 1.5 0 0 1 1206.800049 947.299988 A 1.5 1.5 0 0 1 1205.300049 945.799988 A 1.5 1.5 0 0 1 1206.800049 944.299988 A 1.5 1.5 0 0 1 1208.300049 945.799988 Z" transform="matrix(1, 0, 0, 1, 0, 0)"/><path fill="#FBB217" d="M 1190.800025 943.700012 A 2.9 2.9 0 0 1 1187.900024 946.600012 A 2.9 2.9 0 0 1 1185.000024 943.700012 A 2.9 2.9 0 0 1 1187.900024 940.800012 A 2.9 2.9 0 0 1 1190.800025 943.700012 Z" transform="matrix(1, 0, 0, 1, 0, 0)"/><path fill="#FBB217" d="M 1226.600049 926.200012 A 3.8 3.8 0 0 1 1222.800049 930.000012 A 3.8 3.8 0 0 1 1219.000049 926.200012 A 3.8 3.8 0 0 1 1222.800049 922.400012 A 3.8 3.8 0 0 1 1226.600049 926.200012 Z" transform="matrix(1, 0, 0, 1, 0, 0)"/><path fill="#FBB217" d="M 1218.5 903.200012 A 2.5 2.5 0 0 1 1216 905.700012 A 2.5 2.5 0 0 1 1213.5 903.200012 A 2.5 2.5 0 0 1 1216 900.700012 A 2.5 2.5 0 0 1 1218.5 903.200012 Z" transform="matrix(1, 0, 0, 1, 0, 0)"/><path fill="#FBB217" d="M 1182.300049 907.200012 A 4 4 0 0 1 1178.300049 911.200012 A 4 4 0 0 1 1174.300049 907.200012 A 4 4 0 0 1 1178.300049 903.200012 A 4 4 0 0 1 1182.300049 907.200012 Z" transform="matrix(1, 0, 0, 1, 0, 0)"/><path fill="#FBB217" d="M 1205.100024 957.5 A 3.7 3.7 0 0 1 1201.400024 961.2 A 3.7 3.7 0 0 1 1197.700024 957.5 A 3.7 3.7 0 0 1 1201.400024 953.8 A 3.7 3.7 0 0 1 1205.100024 957.5 Z" transform="matrix(1, 0, 0, 1, 0, 0)"/><path fill="#FBB217" d="M 1197.700049 980.400024 A 3.4 3.4 0 0 1 1194.300049 983.800025 A 3.4 3.4 0 0 1 1190.900049 980.400024 A 3.4 3.4 0 0 1 1194.300049 977.000024 A 3.4 3.4 0 0 1 1197.700049 980.400024 Z" transform="matrix(1, 0, 0, 1, 0, 0)"/><path fill="#FBB217" d="M 1188.899976 991.599976 A 3.3 3.3 0 0 1 1185.599976 994.899976 A 3.3 3.3 0 0 1 1182.299976 991.599976 A 3.3 3.3 0 0 1 1185.599976 988.299976 A 3.3 3.3 0 0 1 1188.899976 991.599976 Z" transform="matrix(1, 0, 0, 1, 0, 0)"/><path fill="#FBB217" d="M 1178.300049 973.400024 A 4 4 0 0 1 1174.300049 977.400024 A 4 4 0 0 1 1170.300049 973.400024 A 4 4 0 0 1 1174.300049 969.400024 A 4 4 0 0 1 1178.300049 973.400024 Z" transform="matrix(1, 0, 0, 1, 0, 0)"/><path fill="#FBB217" d="M 1337.699951 888.299988 A 3 3 0 0 1 1334.699951 891.299988 A 3 3 0 0 1 1331.699951 888.299988 A 3 3 0 0 1 1334.699951 885.299988 A 3 3 0 0 1 1337.699951 888.299988 Z" transform="matrix(1, 0, 0, 1, 0, 0)"/><path fill="#FBB217" d="M 1356.599951 882.5 A 3.4 3.4 0 0 1 1353.199951 885.9 A 3.4 3.4 0 0 1 1349.799951 882.5 A 3.4 3.4 0 0 1 1353.199951 879.1 A 3.4 3.4 0 0 1 1356.599951 882.5 Z" transform="matrix(1, 0, 0, 1, 0, 0)"/><path fill="#FBB217" d="M 1318.099976 893.900024 A 4.5 4.5 0 0 1 1313.599976 898.400024 A 4.5 4.5 0 0 1 1309.099976 893.900024 A 4.5 4.5 0 0 1 1313.599976 889.400024 A 4.5 4.5 0 0 1 1318.099976 893.900024 Z" transform="matrix(1, 0, 0, 1, 0, 0)"/><path fill="#FBB217" d="M 1327.199951 906.200012 A 0 1 0 0 1 1327.199951 907.200012 A 0 1 0 0 1 1327.199951 906.200012 A 0 1 0 0 1 1327.199951 905.200012 A 0 1 0 0 1 1327.199951 906.200012 Z" transform="matrix(1, 0, 0, 1, 0, 0)"/><path fill="#754C29" d="M 1495.099976 766.200012 A 122 122 0 0 1 1373.099976 888.200012 A 122 122 0 0 1 1251.099976 766.200012 A 122 122 0 0 1 1373.099976 644.200012 A 122 122 0 0 1 1495.099976 766.200012 Z" opacity=".17" transform="matrix(1, 0, 0, 1, 0, 0)"/><path fill="#533E98" d="M 1570.5 738.599976 A 122 122 0 0 1 1448.5 860.599976 A 122 122 0 0 1 1326.5 738.599976 A 122 122 0 0 1 1448.5 616.599976 A 122 122 0 0 1 1570.5 738.599976 Z" transform="matrix(1, 0, 0, 1, 0, 0)"/><path fill="#5C469C" d="M1448.5,838.6c-55.1,0-100-44.9-100-100s44.9-100,100-100s100,44.9,100,100S1503.6,838.6,1448.5,838.6z" transform="matrix(1, 0, 0, 1, 0, 0)"/><path fill="#654B9E" d="M1448.5,816.6c-43,0-78-35-78-78s35-78,78-78s78,35,78,78S1491.5,816.6,1448.5,816.6z" transform="matrix(1, 0, 0, 1, 0, 0)"/><path fill="#785CA7" d="M1448.5,794.6c-30.9,0-56-25.1-56-56s25.1-56,56-56s56,25.1,56,56S1479.4,794.6,1448.5,794.6z" transform="matrix(1, 0, 0, 1, 0, 0)"/><path fill="#F0592C" d="M330.5,819.6l-4.5-4.4c-0.5-0.5-0.7-1.2-0.6-1.8l1.1-6.2c0.3-1.7-1.5-3-3-2.2l-5.6,2.9 c-0.6,0.3-1.3,0.3-1.9,0l-5.6-2.9c-1.5-0.8-3.3,0.5-3,2.2l1.1,6.2c0.1,0.7-0.1,1.4-0.6,1.8l-4.5,4.4c-1.2,1.2-0.6,3.3,1.1,3.5 l6.2,0.9c0.7,0.1,1.3,0.5,1.6,1.1l2.8,5.6c0.8,1.5,3,1.5,3.7,0l2.8-5.6c0.3-0.6,0.9-1,1.6-1.1l6.2-0.9 C331.1,822.9,331.8,820.8,330.5,819.6z" transform="matrix(1, 0, 0, 1, 0, 0)"/><path fill="#F27049" d="M315.9,823.4c-0.9-1.8-2.6-3-4.6-3.3l-2.3-0.3l1.7-1.7c1.4-1.4,2.1-3.4,1.7-5.4l-0.4-2.3l2.1,1.1 c0.9,0.5,1.8,0.7,2.8,0.7c1,0,2-0.2,2.8-0.7l2.1-1.1l-0.4,2.3c-0.3,2,0.3,4,1.7,5.4l1.7,1.7l-2.3,0.3c-2,0.3-3.7,1.5-4.6,3.3 l-1,2.1L315.9,823.4z" transform="matrix(1, 0, 0, 1, 0, 0)"/><path fill="#F0592C" d="M776.4,912.4l-6-1.8c-0.7-0.2-1.2-0.7-1.4-1.4l-1.9-6c-0.5-1.6-2.7-2-3.7-0.6l-3.6,5.2 c-0.4,0.6-1,0.9-1.7,0.9l-6.3,0c-1.7,0-2.7,2-1.7,3.3l3.8,5c0.4,0.5,0.5,1.3,0.3,1.9l-2,6c-0.5,1.6,1,3.2,2.6,2.6l5.9-2.1 c0.6-0.2,1.4-0.1,1.9,0.3l5.1,3.7c1.4,1,3.3,0,3.3-1.7l-0.1-6.3c0-0.7,0.3-1.3,0.9-1.7l5.1-3.7 C778.4,915.1,778.1,912.9,776.4,912.4z" transform="matrix(1, 0, 0, 1, 0, 0)"/><path fill="#F27049" d="M765.2,922.5c-1.6-1.2-3.7-1.5-5.6-0.8l-2.2,0.8l0.7-2.3c0.6-1.9,0.3-4-0.9-5.6l-1.4-1.9l2.4,0 c1,0,2-0.2,2.8-0.7c0.9-0.5,1.6-1.1,2.2-1.9l1.4-1.9l0.7,2.3c0.6,1.9,2.1,3.4,4,4l2.3,0.7l-1.9,1.4c-1.6,1.2-2.6,3.1-2.5,5.1 l0,2.4L765.2,922.5z" transform="matrix(1, 0, 0, 1, 0, 0)"/><path fill="#F0592C" d="M1111.7,788.2l-6-1.8c-0.7-0.2-1.2-0.7-1.4-1.4l-1.9-6c-0.5-1.6-2.7-2-3.7-0.6l-3.6,5.2 c-0.4,0.6-1,0.9-1.7,0.9l-6.3,0c-1.7,0-2.7,2-1.7,3.3l3.8,5c0.4,0.5,0.5,1.3,0.3,1.9l-2,6c-0.5,1.6,1,3.2,2.6,2.6l5.9-2.1 c0.6-0.2,1.4-0.1,1.9,0.3l5.1,3.7c1.4,1,3.3,0,3.3-1.7l-0.1-6.3c0-0.7,0.3-1.3,0.9-1.7l5.1-3.7 C1113.7,790.9,1113.4,788.7,1111.7,788.2z" transform="matrix(1, 0, 0, 1, 0, 0)"/><path fill="#F27049" d="M1100.5,798.3c-1.6-1.2-3.7-1.5-5.6-0.8l-2.2,0.8l0.7-2.3c0.6-1.9,0.3-4-0.9-5.6l-1.4-1.9l2.4,0 c1,0,2-0.2,2.8-0.7c0.9-0.5,1.6-1.1,2.2-1.9l1.4-1.9l0.7,2.3c0.6,1.9,2.1,3.4,4,4l2.3,0.7l-1.9,1.4c-1.6,1.2-2.6,3.1-2.5,5.1 l0,2.4L1100.5,798.3z" transform="matrix(1, 0, 0, 1, 0, 0)"/><path fill="#F0592C" d="M1270.8,614l-6.3,2.6c-0.7,0.3-1.5,0.2-2.1-0.2l-5.7-3.7c-1.6-1-3.6,0.2-3.4,2.1l0.5,6.8 c0.1,0.7-0.2,1.5-0.8,1.9l-5.3,4.3c-1.4,1.2-0.9,3.5,0.9,3.9l6.6,1.6c0.7,0.2,1.3,0.7,1.6,1.4l2.4,6.3c0.7,1.7,3,1.9,4,0.4 l3.5-5.8c0.4-0.6,1.1-1,1.8-1.1l6.8-0.4c1.9-0.1,2.8-2.3,1.6-3.7l-4.4-5.2c-0.5-0.6-0.7-1.3-0.5-2l1.7-6.6 C1274.3,614.8,1272.5,613.3,1270.8,614z" transform="matrix(1, 0, 0, 1, 0, 0)"/><path fill="#F27049" d="M1268.4,630.1c-2.2,0.1-4.1,1.3-5.2,3.1l-1.3,2.2l-0.9-2.4c-0.8-2-2.5-3.5-4.6-4l-2.5-0.6l2-1.6 c0.8-0.7,1.5-1.5,1.9-2.5c0.4-1,0.6-2,0.5-3.1l-0.2-2.6l2.1,1.4c1.8,1.2,4.1,1.4,6.1,0.6l2.4-1l-0.7,2.5c-0.6,2.1,0,4.3,1.4,6 l1.7,1.9L1268.4,630.1z" transform="matrix(1, 0, 0, 1, 0, 0)"/><path fill="#F0592C" d="M1278.3,851.7l-7.4-2.2c-0.8-0.2-1.4-0.9-1.7-1.7l-2.4-7.4c-0.6-2-3.3-2.4-4.5-0.7l-4.4,6.4 c-0.5,0.7-1.3,1.1-2.1,1.1l-7.7,0c-2.1,0-3.3,2.4-2,4.1l4.7,6.2c0.5,0.7,0.7,1.5,0.4,2.3l-2.4,7.3c-0.7,2,1.3,3.9,3.3,3.2 l7.3-2.5c0.8-0.3,1.7-0.1,2.4,0.4l6.2,4.6c1.7,1.3,4.1,0,4.1-2.1l-0.2-7.7c0-0.8,0.4-1.6,1.1-2.1l6.3-4.5 C1280.8,854.9,1280.4,852.3,1278.3,851.7z" transform="matrix(1, 0, 0, 1, 0, 0)"/><path fill="#F27049" d="M1264.5,864.1c-2-1.5-4.6-1.8-6.9-1l-2.8,1l0.9-2.8c0.8-2.3,0.3-4.9-1.1-6.9l-1.8-2.3l2.9,0 c1.2,0,2.4-0.3,3.5-0.8c1.1-0.6,2-1.4,2.7-2.4l1.7-2.4l0.9,2.8c0.8,2.3,2.6,4.2,5,4.9l2.8,0.8l-2.4,1.7c-2,1.4-3.2,3.8-3.1,6.2 l0.1,2.9L1264.5,864.1z" transform="matrix(1, 0, 0, 1, 0, 0)"/><path fill="#F0592C" d="M638,808.2l-5.5,1.6c-0.6,0.2-1.2,0.1-1.7-0.3l-4.5-3.6c-1.2-1-3.1-0.1-3.1,1.4l-0.1,5.7 c0,0.6-0.3,1.2-0.9,1.5l-4.8,3.1c-1.3,0.9-1.1,2.9,0.4,3.4l5.4,1.9c0.6,0.2,1,0.7,1.2,1.3l1.5,5.5c0.4,1.5,2.4,1.9,3.3,0.7 l3.5-4.6c0.4-0.5,1-0.8,1.6-0.7l5.7,0.3c1.6,0.1,2.6-1.7,1.7-3l-3.3-4.7c-0.4-0.5-0.4-1.2-0.2-1.8l2-5.4 C640.8,809.3,639.5,807.8,638,808.2z" transform="matrix(1, 0, 0, 1, 0, 0)"/><path fill="#F27049" d="M634.5,821.6c-1.8-0.1-3.6,0.7-4.7,2.2l-1.3,1.7l-0.6-2.1c-0.5-1.8-1.8-3.2-3.5-3.8l-2-0.7l1.8-1.2 c0.8-0.5,1.4-1.2,1.8-2c0.4-0.8,0.7-1.7,0.7-2.6l0.1-2.2l1.7,1.4c1.4,1.1,3.3,1.5,5.1,1l2.1-0.6l-0.8,2c-0.7,1.7-0.4,3.6,0.6,5.1 l1.2,1.8L634.5,821.6z" transform="matrix(1, 0, 0, 1, 0, 0)"/><path fill="#F0592C" d="M806.6,695.5l-9.1,2.7c-1,0.3-2.1,0.1-2.9-0.6l-7.4-6c-2-1.6-5-0.2-5.1,2.4l-0.2,9.5c0,1-0.6,2-1.4,2.6 l-8,5.2c-2.2,1.4-1.8,4.7,0.7,5.6l9,3.2c1,0.3,1.7,1.1,2,2.1l2.5,9.2c0.7,2.5,3.9,3.2,5.5,1.1l5.8-7.6c0.6-0.8,1.6-1.3,2.7-1.2 l9.5,0.5c2.6,0.1,4.2-2.8,2.7-4.9l-5.4-7.8c-0.6-0.9-0.7-1.9-0.4-2.9l3.4-8.9C811.3,697.2,809.1,694.8,806.6,695.5z" transform="matrix(1, 0, 0, 1, 0, 0)"/><path fill="#F27049" d="M800.8,717.6c-3-0.1-5.9,1.2-7.8,3.6l-2.2,2.9l-0.9-3.5c-0.8-2.9-3-5.3-5.8-6.3l-3.4-1.2l3-2 c1.2-0.8,2.3-1.9,3-3.2c0.7-1.3,1.1-2.8,1.2-4.3l0.1-3.6l2.8,2.3c2.4,1.9,5.5,2.5,8.4,1.7l3.4-1l-1.3,3.4c-1.1,2.8-0.7,6,1,8.5 l2,3L800.8,717.6z" transform="matrix(1, 0, 0, 1, 0, 0)"/><path fill="#F0592C" d="M65.1,658.5l-8.1,5c-0.9,0.5-2,0.6-2.9,0.2l-8.7-3.8c-2.4-1-4.9,1.1-4.3,3.6l2.3,9.2c0.2,1,0,2.1-0.7,2.8 l-6.3,7.1c-1.7,1.9-0.5,5,2.1,5.2l9.5,0.7c1,0.1,2,0.7,2.5,1.5l4.8,8.2c1.3,2.2,4.6,2,5.6-0.4l3.6-8.8c0.4-1,1.2-1.7,2.2-1.9 l9.3-2c2.5-0.6,3.3-3.8,1.4-5.5l-7.3-6.1c-0.8-0.7-1.2-1.7-1.1-2.7l0.9-9.5C70.2,658.8,67.3,657.1,65.1,658.5z" transform="matrix(1, 0, 0, 1, 0, 0)"/><path fill="#F27049" d="M65.4,681.3c-3,0.6-5.4,2.7-6.6,5.5l-1.4,3.3l-1.8-3.1c-1.5-2.6-4.2-4.3-7.3-4.5l-3.6-0.3l2.4-2.7 c1-1.1,1.7-2.5,2.1-3.9c0.4-1.4,0.4-3,0-4.4l-0.9-3.5l3.3,1.4c2.8,1.2,6,1,8.5-0.6l3.1-1.9l-0.4,3.6c-0.3,3,0.9,6,3.2,7.9 l2.7,2.3L65.4,681.3z" transform="matrix(1, 0, 0, 1, 0, 0)"/></svg>