<svg xmlns="http://www.w3.org/2000/svg" id="master-artboard" width="1400" height="980" x="0" y="0" version="1.1" viewBox="0 0 1400 980" style="enable-background:new 0 0 1400 980"><metadata/><linearGradient id="SVGID_1_" x1="616.608" x2="814.628" y1="-79.78" y2="1273.356" gradientTransform="matrix(-1 0 0 -1 1400 980.0628)" gradientUnits="userSpaceOnUse"><stop offset="0" style="stop-color:#ee2b6a"/><stop offset=".952" style="stop-color:#751f2c"/></linearGradient><path d="M 0 0 H 1400 V 980 H 0 V 0 Z" transform="matrix(1, 0, 0, 1, 2.842170943040401e-14, 7.105427357601002e-15)" style="fill:url(#SVGID_1_)"/><linearGradient id="SVGID_2_" x1="1071.093" x2="177.093" y1="1011.577" y2="185.577" gradientUnits="userSpaceOnUse"><stop offset="0" style="stop-color:#ee2b6a"/><stop offset=".952" style="stop-color:#751f2c"/></linearGradient><path style="fill:url(#SVGID_2_)" d="M584,762c31-68,105-102,175-108c82-8,169-34,211-110c34.2-62,43.3-144.5-1.7-203.9 c-44.2-58.3-113.6-95.6-186.2-106.9c-50-7.8-106.6-5.3-154.2,12.9c-57.7,22-77.2,68.3-83.9,126.1c-3.3,28.6-4.7,60.2-19,85.9 c-15,26-50,38-79,29c-80-24-167-29-234,27c-54,44-47,116-32,177c11,40,40,67,75,90c23,14,50,16,69,35c36,33,77,65,85,117 c2.7,16.4,1.3,31.9-1.8,47h188.4c-6.2-10.5-11.7-21.2-16.7-32C551,889,558,820,584,762z" transform="matrix(1, 0, 0, 1, 2.842170943040401e-14, 7.105427357601002e-15)"/><linearGradient id="SVGID_3_" x1="1302.542" x2="934.975" y1="941.511" y2="452.461" gradientTransform="matrix(-1 0 0 -1 1400 980.0628)" gradientUnits="userSpaceOnUse"><stop offset="0" style="stop-color:#ee2b6a"/><stop offset=".952" style="stop-color:#751f2c"/></linearGradient><path style="fill:url(#SVGID_3_)" d="M84.9,495.2c14.5-17.6,34.2-25.9,57-30c31.1-5.2,62.1,13.5,91.1-3.1 c24.9-14.5,37.3-39.4,46.6-67.3c6.2-18.6,22.8-33.1,41.4-37.3c52.8-13.5,112.9-6.2,151.2-51.8c20.7-24.9,28-57,21.8-89.1 c-7.3-29-19.7-54.9-13.5-84.9c4.1-14.5,15.5-25.9,28-34.2c32.1-20.7,65.3-31.1,86-63.2c7.2-10.9,12.4-22.5,15.6-34.2H0v629.5 c13.3-28.6,31.5-55.7,49.6-83.6C61,528.3,71.4,510.7,84.9,495.2z" transform="matrix(1, 0, 0, 1, 2.842170943040401e-14, 7.105427357601002e-15)"/><linearGradient id="SVGID_4_" x1="1305.882" x2="950.979" y1="942.853" y2="470.652" gradientTransform="matrix(-1 0 0 -1 1400 980.0628)" gradientUnits="userSpaceOnUse"><stop offset="0" style="stop-color:#f6861f"/><stop offset=".26" style="stop-color:#ee2b6a"/><stop offset=".327" style="stop-color:#ec2e6b"/><stop offset=".404" style="stop-color:#e44172"/><stop offset=".547" style="stop-color:#d06185"/><stop offset=".742" style="stop-color:#ab82a5"/><stop offset=".979" style="stop-color:#5ea4d9"/><stop offset=".985" style="stop-color:#5ba5db"/></linearGradient><path style="fill:url(#SVGID_4_)" d="M82,478.1c14-17,33-25,55-29c30-5,60,13,88-3c24-14,36-38,45-65c6-18,22-32,40-36 c51-13,109-6,146-50c20-24,27-55,21-86c-7-28-19-53-13-82c4-14,15-25,27-33c31-20,63-30,83-61c6.9-10.6,12-21.7,15.1-33.1H0v607.7 c12.9-27.6,30.5-53.7,48-80.7C59,510.1,69,493.1,82,478.1z" transform="matrix(1, 0, 0, 1, 2.842170943040401e-14, 7.105427357601002e-15)"/><linearGradient id="SVGID_5_" x1="977.576" x2="1251.268" y1="504.431" y2="997.678" gradientTransform="matrix(-1 0 0 -1 1400 980.0628)" gradientUnits="userSpaceOnUse"><stop offset="0" style="stop-color:#f6861f"/><stop offset=".515" style="stop-color:#ee2b6a"/><stop offset=".985" style="stop-color:#7b2030"/></linearGradient><path style="fill:url(#SVGID_5_)" d="M185,330.1c18-10,33-21,52-26c32-7,64,0,96-8c33-9,49-43,59-72c14-41-4-87,24-126 c27-40,70-51,110-69c12.7-6,25.9-16.2,35-29.1H0v439.7c45.8-1.5,92-14.5,129-46.7C151,373.1,159,344.1,185,330.1z" transform="matrix(1, 0, 0, 1, 2.842170943040401e-14, 7.105427357601002e-15)"/><path style="fill:#ed2c69" d="M73.4,275c87.9,11.8,111.1,43.3,171.7,31.6c49.5-9.5,89-43.2,114.8-87.4 c23.8-40,10.3-84.3,18.6-129.6c2.1-12.6,5.2-26.3,15.5-35.8c0-1.1,0-3.2,0-4.2c20.7-29.5,53.8-29.5,84.8-31.6 c20.8-0.8,39.3-7.4,54.9-18H0v292.5C21.5,279.2,48.9,271.7,73.4,275z" transform="matrix(1, 0, 0, 1, 5.684341886080802e-14, 1.4210854715202004e-14)"/><path style="fill:#cf2a5b" d="M72.6,272c79.8,10.5,109.8,42.6,169.9,31.3c48.9-9.3,87.8-42.8,113.6-86.5 c23.4-39.7,10.6-83.3,18.4-128.2c2.2-12.5,5.1-26.1,15.3-35.4c0-1,0-3.1,0-4.2c20.5-29.2,53.2-29.6,83.9-31.3 c20.5-1.1,38.9-7.3,54.3-17.8H0v289.4C21.3,276.1,48.4,268.9,72.6,272z" transform="matrix(1, 0, 0, 1, 5.684341886080802e-14, 1.4210854715202004e-14)"/><path style="fill:#b6274f" d="M71.8,269.1c71.7,9.1,108.5,42,168,30.9c48.4-9,86.9-42.3,112.3-85.5 c23.1-39.2,10.5-82.4,18.2-126.8c2.1-12.3,5.1-25.8,15.2-35c0-1,0-3.1,0-4.1c20.2-28.9,52.6-29.3,83-30.9 c20.3-1.1,38.5-7.2,53.7-17.6H0v286.2C21,273.1,47.8,266,71.8,269.1z" transform="matrix(1, 0, 0, 1, 5.684341886080802e-14, 1.4210854715202004e-14)"/><path style="fill:#a02444" d="M71,266.1c63.6,7.8,107.1,41.4,166.1,30.6c47.9-8.8,85.9-41.9,111.1-84.6 c22.9-38.8,10.4-81.5,18-125.4c2.1-12.2,5-25.5,15-34.7c0-1,0-3.1,0-4.1c20-28.5,52-29,82.1-30.6c20.1-1.1,38-7.2,53.2-17.4H0v283 C20.8,270,47.3,263.1,71,266.1z" transform="matrix(1, 0, 0, 1, 5.684341886080802e-14, 1.4210854715202004e-14)"/><path style="fill:#8a2139" d="M70.3,263.1c55.4,7.1,105.9,41.3,164.3,30.2c47.5-8.1,85.1-41.3,109.8-83.6 c22.8-38.3,9.9-80.6,17.8-123.9c2-12.1,4.9-25.2,14.8-34.3c0-1,0-3,0-4c19.8-28.2,51.5-28.2,81.1-30.2 c19.9-0.7,37.6-7.1,52.6-17.2H0v279.8C20.5,267,46.8,260.5,70.3,263.1z" transform="matrix(1, 0, 0, 1, 5.684341886080802e-14, 1.4210854715202004e-14)"/><linearGradient id="SVGID_6_" x1="1357.095" x2="1114.709" y1="313.27" y2="1064.467" gradientTransform="matrix(-1 0 0 -1 1400 980.0628)" gradientUnits="userSpaceOnUse"><stop offset="0" style="stop-color:#f6861f"/><stop offset=".26" style="stop-color:#ee2b6a"/><stop offset=".327" style="stop-color:#ec2e6b"/><stop offset=".404" style="stop-color:#e44172"/><stop offset=".547" style="stop-color:#d06185"/><stop offset=".742" style="stop-color:#ab82a5"/><stop offset=".979" style="stop-color:#5ea4d9"/><stop offset=".985" style="stop-color:#5ba5db"/></linearGradient><path style="fill:url(#SVGID_6_)" d="M71,261.1c56,7,107,41,166,30c48-8,86-41,111-83c23-38,10-80,18-123c2-12,5-25,15-34 c0-1,0-3,0-4c20-28,52-28,82-30c20.1-0.7,38-7,53.1-17.1H0v277.7C20.8,265,47.2,258.5,71,261.1z" transform="matrix(1, 0, 0, 1, 2.842170943040401e-14, 7.105427357601002e-15)"/><linearGradient id="SVGID_7_" x1="816.924" x2="261.002" y1="688.639" y2="370.684" gradientTransform="matrix(-1 0 0 -1 1400 980.0628)" gradientUnits="userSpaceOnUse"><stop offset="0" style="stop-color:#ee2b6a"/><stop offset=".952" style="stop-color:#751f2c"/></linearGradient><path style="fill:url(#SVGID_7_)" d="M766,70.1c30.4-5.4,60.3-25.1,89.8-16c53.4,16.5,21.3,80.3,44.2,115.9c26,40,77,23,118,24 c33,1,67,7,89,35c29,37,50,84,30,128c-13,29-35,53-67,60c-53,12-116,3-142,57c-24,51-66,88-117,110c-26,11-41,44-31,72 c21,63-3,144-70,157c-50,9-98,3-146,19c-35,12-53,43-73,74c-14.5,23.2-10.6,48.4-5.5,73.9H1375c0,0,0-980,0-980 c-118.3,0-236.7,0-355,0C902.5,0,784.9,0.1,667.4,0c9.1,15.8,18.2,31.9,30.7,45.2s28.8,23.9,47,25.9C752.1,71.9,759,71.4,766,70.1z" transform="matrix(1, 0, 0, 1, 2.842170943040401e-14, 7.105427357601002e-15)"/><linearGradient id="SVGID_8_" x1="0" x2="892.107" y1="490.063" y2="490.063" gradientTransform="matrix(-1 0 0 -1 1400 980.0628)" gradientUnits="userSpaceOnUse"><stop offset="0" style="stop-color:#f6861f"/><stop offset=".995" style="stop-color:#ee2b6a"/></linearGradient><path style="fill:url(#SVGID_8_)" d="M793,70.1c29.7-6.9,76.3-31,104.6-9.9c19.2,14.3,14.6,32.6,14.6,52.9c0,19.6,4,40.3,14.7,57 c26,40,77,23,118,24c33,1,67,7,89,35c29,37,50,84,30,128c-13,29-35,53-67,60c-53,12-116,3-142,57c-24,51-66,88-117,110 c-26,11-41,44-31,72c21,63-3,144-70,157c-50,9-98,3-146,19c-35,12-53,43-73,74c-14.5,23.2-10.6,48.4-5.5,73.9H1400V0H694.2 c9.8,17.4,21.7,33.7,33.8,48.1C744,66.1,768,76.1,793,70.1z" transform="matrix(1, 0, 0, 1, 2.842170943040401e-14, 7.105427357601002e-15)"/><path style="fill:#ee3666" d="M1072.4,136.8c40,11.9,83,21.8,111,53.5c26,28.7,51,59.4,56,98c11,85.2-47,162.4-121,200 c-53,26.7-111,25.7-166,44.6c-53,17.8-116,59.4-107,123.8c9,52.5,11,111.9-30,148.5c-37,32.7-89,28.7-135,30.7 c-26,0-46,14.9-60,35.6c-13,18.8-8,42.6-22,62.4c-10.5,14.3-22.5,36.4-36,46.2h827V0H964.8c1.3,7.6,2.8,15.3,4.6,22.9 C982.4,76.4,1021.4,120,1072.4,136.8z" transform="matrix(1, 0, 0, 1, 5.684341886080802e-14, 1.4210854715202004e-14)"/><path style="fill:#d2315b" d="M1074.8,137.1c39.8,12.5,82.8,22,111,53.6c25.8,28.9,51,59.6,56,98.3c11,85.4-47,162.8-121,200.5 c-53,26.8-111,26-166,44.7c-53,18-117,59.7-107,124.1c8.2,52.7,11.1,112.3-30,148.9c-36.9,32.9-89,28.8-135,30.8 c-26,0-45.9,15-60,35.7c-12.9,18.9-7.8,42.8-22,62.5c-10.4,14.4-22.5,34-36,43.8h827.2V0H967.2c1.3,7.6,2.8,15.3,4.6,23 C984.8,76.6,1023.6,121,1074.8,137.1z" transform="matrix(1, 0, 0, 1, 5.684341886080802e-14, 1.4210854715202004e-14)"/><path style="fill:#bc2c51" d="M1077.2,137.4c39.8,12.5,82.8,22.1,111,53.7c25.8,29,51,59.7,56,98.5c11,85.6-47,163.2-121,201 c-53,26.9-111,26-166,44.8c-53,18-117,59.9-107,124.4c8.2,52.9,11.1,112.6-30,149.3c-36.9,32.9-89,28.9-135,30.8 c-26,0-45.9,15-60,35.8c-12.9,19-7.8,42.9-22,62.7c-10.4,14.4-22.5,31.7-36,41.5h827.5V0H969.6c1.3,7.6,2.8,15.3,4.6,23 C987.2,76.7,1026,121.3,1077.2,137.4z" transform="matrix(1, 0, 0, 1, 5.684341886080802e-14, 1.4210854715202004e-14)"/><path style="fill:#a72847" d="M1079.6,137.7c39.8,12.6,82.8,22.1,111,53.9c25.8,29.1,51,59.9,56,98.8c11,85.8-47,163.6-121,201.5 c-53,26.9-111,26.1-166,44.9c-53,18.1-117,60-107,124.7c8.2,53,11.1,112.8-30,149.6c-36.9,33-89,28.9-135,30.9 c-26,0-45.9,15-60,35.9c-12.9,19-7.8,43-22,62.8c-10.4,14.5-22.5,29.4-36,39.2h827.8V0H972c1.3,7.6,2.8,15.4,4.6,23 C989.6,76.9,1028.4,121.6,1079.6,137.7z" transform="matrix(1, 0, 0, 1, 5.684341886080802e-14, 1.4210854715202004e-14)"/><path style="fill:#94233e" d="M1082,138.1c40,12,83,22,111,54c26,29,51,60,56,99c11,86-47,164-121,202c-53,27-111,26-166,45 c-53,18-116,60-107,125c9,53,11,113-30,150c-37,33-89,29-135,31c-26,0-46,15-60,36c-13,19-8,43-22,63c-10.5,14.4-22.5,27-36,36.9 h828V0H974.3c1.3,7.6,2.8,15.4,4.6,23.1C992,77.1,1031,121.1,1082,138.1z" transform="matrix(1, 0, 0, 1, 5.684341886080802e-14, 1.4210854715202004e-14)"/><linearGradient id="SVGID_9_" x1="70.484" x2="519.64" y1="284.852" y2="554.346" gradientTransform="matrix(-1 0 0 -1 1400 980.0628)" gradientUnits="userSpaceOnUse"><stop offset="0" style="stop-color:#f6861f"/><stop offset=".995" style="stop-color:#ee2b6a"/></linearGradient><path style="fill:url(#SVGID_9_)" d="M1085,138.1c40,12,83,22,111,54c26,29,51,60,56,99c11,86-47,164-121,202 c-53,27-111,26-166,45c-53,18-116,60-107,125c9,53,11,113-30,150c-37,33-89,29-135,31c-26,0-46,15-60,36c-13,19-8,43-22,63 c-10.5,14.4-22.5,27-36,36.9h825V0H977.4c1.3,7.6,2.8,15.4,4.6,23.1C995,77.1,1034,121.1,1085,138.1z" transform="matrix(1, 0, 0, 1, 2.842170943040401e-14, 7.105427357601002e-15)"/><path style="fill:#f26f43" d="M1360,427.3c-32.8,82-138.4,132.3-222.5,89.2c-22.6-11.3-55.4-10.3-75.9,8.2 c-24.6,21.5-43.1,48.2-71.8,62.6c-27.7,14.4-65.6-2.1-88.2,23.6c-30.8,35.9-19.5,85.1-8.2,128.2c12.3,45.1-28.7,80-66.7,93.3 c-42,14.4-85.1,16.4-129.2,19.5c-31.8,3.1-43.1,41-53.3,68.7c-8.2,25.2-27.3,46.9-51.2,59.4H1400V394.2 C1384.8,402,1372.6,412.9,1360,427.3z" transform="matrix(1, 0, 0, 1, 5.684341886080802e-14, 1.4210854715202004e-14)"/><path style="fill:#d85d43" d="M1360.2,430.1c-32.7,81.6-137.5,131.2-221.4,88.8c-22.4-11.3-55-10.1-75.5,8.2 c-24.3,21.6-43,47.8-71.4,62.2c-27.7,14.1-65.5-2.2-87.8,23.5c-30.8,35.5-19.6,84.8-8.2,127.6c12,45-28.5,79.8-66.3,92.9 c-41.8,14.5-84.7,15.7-128.6,19.4c-31.7,2.6-42.9,40.8-53.1,68.4c-8.2,25.1-27.1,46.7-51,59.1H1400V397.1 C1384.9,404.9,1372.7,415.7,1360.2,430.1z" transform="matrix(1, 0, 0, 1, 5.684341886080802e-14, 1.4210854715202004e-14)"/><path style="fill:#c44e42" d="M1360.4,432.8c-32.5,81.2-136.9,130.6-220.3,88.3c-22.3-11.3-54.7-10-75.1,8.1 c-24.2,21.5-42.7,47.5-71.1,61.9c-27.5,14-65.1-2.2-87.3,23.4c-30.7,35.3-19.5,84.3-8.1,126.9c12,44.7-28.4,79.4-66,92.4 c-41.6,14.4-84.3,15.7-127.9,19.3c-31.5,2.6-42.6,40.6-52.8,68c-8.1,25-27,46.4-50.7,58.8H1400V400 C1384.9,407.7,1372.9,418.5,1360.4,432.8z" transform="matrix(1, 0, 0, 1, 5.684341886080802e-14, 1.4210854715202004e-14)"/><path style="fill:#b13f40" d="M1360.6,435.6c-32.3,80.8-136.2,129.9-219.2,87.9c-22.2-11.2-54.4-10-74.8,8.1 c-24.1,21.4-42.5,47.3-70.7,61.6c-27.4,13.9-64.8-2.2-86.9,23.2c-30.5,35.2-19.4,83.9-8.1,126.3c11.9,44.5-28.2,79-65.7,91.9 c-41.4,14.3-83.9,15.6-127.3,19.2c-31.4,2.6-42.4,40.4-52.5,67.7c-8.1,24.9-26.9,46.2-50.5,58.5h795V402.9 C1385,410.6,1373,421.3,1360.6,435.6z" transform="matrix(1, 0, 0, 1, 5.684341886080802e-14, 1.4210854715202004e-14)"/><path style="fill:#9f303e" d="M1360.8,438.3c-32.2,80.4-135.5,129.3-218.1,87.4c-22.1-11.2-54.1-9.9-74.4,8 c-24,21.3-42.3,47-70.4,61.3c-27.2,13.9-64.5-2.2-86.4,23.1c-30.4,35-19.3,83.5-8,125.6c11.8,44.3-28.1,78.6-65.3,91.5 c-41.1,14.3-83.5,15.5-126.6,19.1c-31.2,2.6-42.2,40.2-52.3,67.3c-8,24.7-26.7,46-50.2,58.2h791V405.8 C1385.1,413.5,1373.2,424.2,1360.8,438.3z" transform="matrix(1, 0, 0, 1, 5.684341886080802e-14, 1.4210854715202004e-14)"/><path style="fill:#8e213b" d="M1361,441.1c-32,80-135,129-217,87c-22-11-54-10-74,8c-24,21-42,47-70,61c-27,14-64-2-86,23 c-30,35-19,83-8,125c12,44-28,78-65,91c-41,14-83,16-126,19c-31,3-42,40-52,67c-8,24.6-26.6,45.7-50,57.9h787V408.8 C1385.2,416.4,1373.3,427,1361,441.1z" transform="matrix(1, 0, 0, 1, 5.684341886080802e-14, 1.4210854715202004e-14)"/><linearGradient id="SVGID_10_" x1="152.636" x2="452.03" y1="-44.279" y2="365.89" gradientTransform="matrix(-1 0 0 -1 1400 980.0628)" gradientUnits="userSpaceOnUse"><stop offset="0" style="stop-color:#f6861f"/><stop offset=".995" style="stop-color:#ee2b6a"/></linearGradient><path style="fill:url(#SVGID_10_)" d="M1361,441.1c-32,80-135,129-217,87c-22-11-54-10-74,8c-24,21-42,47-70,61c-27,14-64-2-86,23 c-30,35-19,83-8,125c12,44-28,78-65,91c-41,14-83,16-126,19c-31,3-42,40-52,67c-8,24.6-26.6,45.7-50,57.9h787V408.8 C1385.2,416.4,1373.3,427,1361,441.1z" transform="matrix(1, 0, 0, 1, 2.842170943040401e-14, 7.105427357601002e-15)"/><path style="fill:#ef3a66" d="M1204.4,564.7c-51.2-22.8-114-43.6-161-1c-66.9,62.3-37.6,155.8-16.7,233.6 c7.3,27,1.2,56.3-19.9,78.9c-21.1,22.6-50.3,25.3-85.8,22.8c-53.4-3.8-93.3-20.6-146.7-32c-50.2-9.3-97,39.3-120,80.9 c-5.6,10.3-8.4,21.1-10.3,32.1H1400V558.7c-23.5,11.6-48.2,17.6-74.3,21.6C1283.8,587.6,1243.1,582.4,1204.4,564.7z" transform="matrix(1, 0, 0, 1, 5.684341886080802e-14, 1.4210854715202004e-14)"/><path style="fill:#d4345b" d="M1206.5,568.6c-50.6-22.9-113-43.5-159.3-1c-66.6,61.3-37.2,154.3-16.5,231.5 c7.2,26.7,1.4,55.9-19.7,78.2c-21.1,22.4-49.5,29-84.1,26.3c-52.8-4.1-94.1-22.1-147-32.8c-49.5-9.9-94.8,36.2-117.5,77.4 c-5.6,10.2-8.3,20.9-10.2,31.8H1400V562.6c-23.2,11.5-47.7,17.2-73.5,21.4C1285.1,590.8,1244.9,585.9,1206.5,568.6z" transform="matrix(1, 0, 0, 1, 5.684341886080802e-14, 1.4210854715202004e-14)"/><path style="fill:#bf2e52" d="M1208.7,572.4c-50-22.6-111.8-43.1-157.5-1c-65.9,60.7-36.8,152.9-16.4,229.3 c7.2,26.5,1.5,55.5-19.4,77.5c-21.2,22.2-48.7,32.6-82.4,29.9c-52.2-4.4-95-23-147.3-33.5c-49-9.8-92.6,33.1-115,73.9 c-5.5,10.1-8.2,20.7-10.1,31.5H1400V566.5c-23,11.4-47.2,17-72.7,21.2C1286.4,594.4,1246.6,589.6,1208.7,572.4z" transform="matrix(1, 0, 0, 1, 5.684341886080802e-14, 1.4210854715202004e-14)"/><path style="fill:#ac2949" d="M1210.8,576.2c-49.5-22.4-110.5-42.7-155.8-1c-65.2,60.1-36.4,151.4-16.2,227.2 c7.1,26.2,1.6,55.1-19.2,76.7c-21.2,22-47.8,36.3-80.7,33.4c-51.6-4.7-95.9-23.8-147.7-34.3c-48.4-9.7-90.4,30-112.5,70.5 c-5.5,10-8.1,20.5-9.9,31.2H1400V570.4c-22.7,11.3-46.6,16.8-71.8,21C1287.6,598.1,1248.3,593.2,1210.8,576.2z" transform="matrix(1, 0, 0, 1, 5.684341886080802e-14, 1.4210854715202004e-14)"/><path style="fill:#9a2541" d="M1213,580.1c-49-22-109-42-154-1c-64,60-36,150-16,225c7,26,2,55-19,76c-21,22-47,40-79,37 c-51-5-97-24-148-35c-48-9-88,27-110,67c-5.4,9.9-8,20.3-9.8,30.9H1400V574.3c-22.4,11.2-46,16.9-71,20.8 C1289,602.1,1250,597.1,1213,580.1z" transform="matrix(1, 0, 0, 1, 5.684341886080802e-14, 1.4210854715202004e-14)"/><linearGradient id="SVGID_11_" x1="0" x2="722.833" y1="212.407" y2="212.407" gradientTransform="matrix(-1 0 0 -1 1400 980.0628)" gradientUnits="userSpaceOnUse"><stop offset="0" style="stop-color:#f6861f"/><stop offset=".995" style="stop-color:#ee2b6a"/></linearGradient><path style="fill:url(#SVGID_11_)" d="M1213,580.1c-49-22-109-42-154-1c-64,60-36,150-16,225c7,26,2,55-19,76c-21,22-47,40-79,37 c-51-5-97-24-148-35c-48-9-88,27-110,67c-5.4,9.9-8,20.3-9.8,30.9H1400V574.3c-22.4,11.2-46,16.9-71,20.8 C1289,602.1,1250,597.1,1213,580.1z" transform="matrix(1, 0, 0, 1, 2.842170943040401e-14, 7.105427357601002e-15)"/></svg>