<?xml version="1.0" encoding="utf-8"?>
<svg id="master-artboard" viewBox="0 0 335.99 235.19" version="1.1" xmlns="http://www.w3.org/2000/svg" x="0px" y="0px" style="enable-background:new 0 0 335.99 235.19;" width="335.989990234375px" height="235.19000244140625px">

<linearGradient id="Group_52_" gradientUnits="userSpaceOnUse" x1="167.9931" y1="207.2582" x2="167.9931" y2="-9.094947e-13">
	<stop offset="0" style="stop-color:#FFFFFF"/>
	<stop offset="1" style="stop-color:#75C7CB"/>
</linearGradient>
<path d="M 0 0 H 335.98999 V 207.259995 H 0 V 0 Z" id="Group_21_" class="st0" style="fill: url('#Group_52_');"/>
<path id="Group_12_" class="st1" d="M247.88,152.37c-3.96-10.92-14.42-18.74-26.72-18.74c-4.03,0-7.87,0.84-11.34,2.36&#10;&#9;c-1.05-5.74-6.07-10.07-12.12-10.07c-4.45,0-8.35,2.37-10.52,5.91c-3.43-5.46-9.26-9.27-16.02-9.95c0.27-1.23,0.41-2.5,0.41-3.82&#10;&#9;c0-9.96-8.09-18.05-18.08-18.05c-5.19,0-9.86,2.2-13.16,5.7c0.86-2.48,1.33-5.14,1.33-7.92c0-13.4-10.89-24.27-24.32-24.27&#10;&#9;c-5.67,0-10.91,1.95-15.05,5.22C98,69.25,88.47,62.65,77.38,62.65c-14.67,0-26.63,11.54-27.27,26.02c-0.88-0.13-1.77-0.22-2.68-0.22&#10;&#9;c-4.81,0-9.17,1.89-12.41,4.95c-4.88-7.84-13.57-13.06-23.49-13.06c-3.9,0-7.6,0.81-10.97,2.27v69.75H247.88z" style="opacity: 0.3; fill: rgb(255, 255, 255);"/>
<linearGradient id="Group_53_" gradientUnits="userSpaceOnUse" x1="167.9931" y1="235.1899" x2="167.9931" y2="151.7704">
	<stop offset="0" style="stop-color:#508D8F"/>
	<stop offset="0.4215" style="stop-color:#62AAAD"/>
	<stop offset="0.7791" style="stop-color:#70BFC3"/>
	<stop offset="1" style="stop-color:#75C7CB"/>
</linearGradient>
<path d="M 0 151.770004 H 335.98999 V 235.190002 H 0 V 151.770004 Z" id="Group_22_" class="st2" style="fill: url('#Group_53_');"/>
<g id="Group_23_">
	<g id="_x3C_Group_x3E_">
		<g>
			<g id="waves_2_">
				<path class="st3" d="M148.77,156.93c5.29-3.01,5.63,1.83,10.55-0.36C154.5,157.36,153.98,152.34,148.77,156.93z" style="opacity: 0.6; fill-rule: evenodd; clip-rule: evenodd; fill: rgb(255, 255, 255);"/>
				<path class="st4" d="M13.69,154.54c4.01-2.28,4.27,1.38,8-0.28C18.04,154.87,17.64,151.06,13.69,154.54z" style="opacity: 0.8; fill-rule: evenodd; clip-rule: evenodd; fill: rgb(255, 255, 255);"/>
				<path class="st5" d="M85.43,159.63c4.01-2.28,4.27,1.38,8-0.28C89.77,159.96,89.37,156.15,85.43,159.63z" style="fill-rule: evenodd; clip-rule: evenodd; fill: rgb(255, 255, 255);"/>
				<path class="st1" d="M172.62,160.89c0-0.4,0.33-0.73,0.73-0.73c0.4,0,0.73,0.33,0.73,0.73s-0.33,0.73-0.73,0.73&#10;&#9;&#9;&#9;&#9;&#9;C172.95,161.62,172.62,161.3,172.62,160.89z" style="opacity: 0.3; fill: rgb(255, 255, 255);"/>
				<path class="st6" d="M93.75,156.32c0-0.4,0.33-0.73,0.73-0.73c0.4,0,0.73,0.33,0.73,0.73c0,0.41-0.33,0.73-0.73,0.73&#10;&#9;&#9;&#9;&#9;&#9;C94.07,157.06,93.75,156.73,93.75,156.32z" style="opacity: 0.5; fill: rgb(255, 255, 255);"/>
				<path class="st7" d="M45.5,164.57c0-0.4,0.33-0.73,0.73-0.73c0.4,0,0.73,0.33,0.73,0.73c0,0.4-0.33,0.73-0.73,0.73&#10;&#9;&#9;&#9;&#9;&#9;C45.83,165.3,45.5,164.97,45.5,164.57z" style="fill: rgb(255, 255, 255);"/>
				<path class="st7" d="M147.45,152.74c0-0.17,0.14-0.31,0.31-0.31c0.17,0,0.31,0.14,0.31,0.31c0,0.17-0.14,0.31-0.31,0.31&#10;&#9;&#9;&#9;&#9;&#9;C147.59,153.05,147.45,152.91,147.45,152.74z" style="fill: rgb(255, 255, 255);"/>
				<path class="st7" d="M137.77,163.36c0-0.14,0.14-0.25,0.31-0.25s0.31,0.11,0.31,0.25c0,0.14-0.14,0.25-0.31,0.25&#10;&#9;&#9;&#9;&#9;&#9;S137.77,163.5,137.77,163.36z" style="fill: rgb(255, 255, 255);"/>
				<path class="st7" d="M124.72,157.15c0-0.14,0.14-0.25,0.31-0.25c0.17,0,0.31,0.11,0.31,0.25c0,0.14-0.14,0.25-0.31,0.25&#10;&#9;&#9;&#9;&#9;&#9;C124.86,157.4,124.72,157.29,124.72,157.15z" style="fill: rgb(255, 255, 255);"/>
				<path class="st7" d="M176.46,157.98c0-0.14,0.14-0.25,0.31-0.25c0.17,0,0.31,0.11,0.31,0.25c0,0.14-0.14,0.25-0.31,0.25&#10;&#9;&#9;&#9;&#9;&#9;C176.6,158.23,176.46,158.12,176.46,157.98z" style="fill: rgb(255, 255, 255);"/>
				<path class="st7" d="M172.04,154.71c0-0.14,0.14-0.25,0.31-0.25c0.17,0,0.31,0.11,0.31,0.25c0,0.14-0.14,0.25-0.31,0.25&#10;&#9;&#9;&#9;&#9;&#9;C172.19,154.96,172.04,154.85,172.04,154.71z" style="fill: rgb(255, 255, 255);"/>
				<path class="st7" d="M113.17,164.26c0-0.17,0.14-0.31,0.31-0.31c0.17,0,0.31,0.14,0.31,0.31c0,0.17-0.14,0.31-0.31,0.31&#10;&#9;&#9;&#9;&#9;&#9;C113.31,164.57,113.17,164.43,113.17,164.26z" style="fill: rgb(255, 255, 255);"/>
				<path class="st7" d="M35.87,153.57c0-0.17,0.14-0.31,0.31-0.31c0.17,0,0.31,0.14,0.31,0.31c0,0.17-0.14,0.31-0.31,0.31&#10;&#9;&#9;&#9;&#9;&#9;C36.01,153.88,35.87,153.74,35.87,153.57z" style="fill: rgb(255, 255, 255);"/>
				<path class="st7" d="M54.14,153.05c0-0.17,0.14-0.31,0.31-0.31c0.17,0,0.31,0.14,0.31,0.31c0,0.17-0.14,0.31-0.31,0.31&#10;&#9;&#9;&#9;&#9;&#9;C54.28,153.37,54.14,153.23,54.14,153.05z" style="fill: rgb(255, 255, 255);"/>
				<path class="st7" d="M56.32,158.97c0-0.17,0.14-0.31,0.31-0.31c0.17,0,0.31,0.14,0.31,0.31c0,0.17-0.14,0.31-0.31,0.31&#10;&#9;&#9;&#9;&#9;&#9;C56.46,159.28,56.32,159.15,56.32,158.97z" style="fill: rgb(255, 255, 255);"/>
				<path class="st7" d="M9.29,156.9c0-0.17,0.14-0.31,0.31-0.31c0.17,0,0.31,0.14,0.31,0.31c0,0.17-0.14,0.31-0.31,0.31&#10;&#9;&#9;&#9;&#9;&#9;C9.44,157.21,9.29,157.07,9.29,156.9z" style="fill: rgb(255, 255, 255);"/>
				<path class="st7" d="M17.07,163.61c0-0.17,0.14-0.31,0.31-0.31c0.17,0,0.31,0.14,0.31,0.31c0,0.17-0.14,0.31-0.31,0.31&#10;&#9;&#9;&#9;&#9;&#9;C17.21,163.92,17.07,163.78,17.07,163.61z" style="fill: rgb(255, 255, 255);"/>
				<path class="st7" d="M4.89,163.36c0-0.17,0.14-0.31,0.31-0.31c0.17,0,0.31,0.14,0.31,0.31c0,0.17-0.14,0.31-0.31,0.31&#10;&#9;&#9;&#9;&#9;&#9;C5.03,163.67,4.89,163.53,4.89,163.36z" style="fill: rgb(255, 255, 255);"/>
			</g>
			<g id="waves_1_">
				<path class="st3" d="M72.23,175.17c-5.29,3.01-5.63-1.82-10.55,0.36C66.5,174.74,67.02,179.75,72.23,175.17z" style="opacity: 0.6; fill-rule: evenodd; clip-rule: evenodd; fill: rgb(255, 255, 255);"/>
				<path class="st5" d="M135.57,172.47c-4.01,2.28-4.27-1.38-8,0.28C131.23,172.14,131.62,175.94,135.57,172.47z" style="fill-rule: evenodd; clip-rule: evenodd; fill: rgb(255, 255, 255);"/>
				<path class="st5" d="M41.12,174.29c-4.01,2.28-4.27-1.38-8,0.28C36.77,173.96,37.17,177.76,41.12,174.29z" style="fill-rule: evenodd; clip-rule: evenodd; fill: rgb(255, 255, 255);"/>
				<path class="st1" d="M48.39,171.21c0,0.4-0.33,0.73-0.73,0.73c-0.4,0-0.73-0.33-0.73-0.73c0-0.41,0.33-0.73,0.73-0.73&#10;&#9;&#9;&#9;&#9;&#9;C48.06,170.47,48.39,170.8,48.39,171.21z" style="opacity: 0.3; fill: rgb(255, 255, 255);"/>
				<path class="st6" d="M127.25,175.77c0,0.4-0.33,0.73-0.73,0.73c-0.4,0-0.73-0.33-0.73-0.73c0-0.41,0.33-0.73,0.73-0.73&#10;&#9;&#9;&#9;&#9;&#9;C126.92,175.04,127.25,175.37,127.25,175.77z" style="opacity: 0.5; fill: rgb(255, 255, 255);"/>
				<path class="st7" d="M175.51,167.53c0,0.4-0.33,0.73-0.73,0.73s-0.73-0.33-0.73-0.73s0.33-0.73,0.73-0.73&#10;&#9;&#9;&#9;&#9;&#9;S175.51,167.12,175.51,167.53z" style="fill: rgb(255, 255, 255);"/>
				<path class="st7" d="M73.54,179.36c0,0.17-0.14,0.31-0.31,0.31c-0.17,0-0.31-0.14-0.31-0.31c0-0.17,0.14-0.31,0.31-0.31&#10;&#9;&#9;&#9;&#9;&#9;C73.4,179.04,73.54,179.18,73.54,179.36z" style="fill: rgb(255, 255, 255);"/>
				<path class="st7" d="M83.23,168.74c0,0.14-0.14,0.25-0.31,0.25c-0.17,0-0.31-0.11-0.31-0.25c0-0.14,0.14-0.25,0.31-0.25&#10;&#9;&#9;&#9;&#9;&#9;C83.09,168.49,83.23,168.6,83.23,168.74z" style="fill: rgb(255, 255, 255);"/>
				<path class="st7" d="M96.28,174.95c0,0.14-0.14,0.25-0.31,0.25c-0.17,0-0.31-0.11-0.31-0.25c0-0.14,0.14-0.25,0.31-0.25&#10;&#9;&#9;&#9;&#9;&#9;C96.14,174.7,96.28,174.81,96.28,174.95z" style="fill: rgb(255, 255, 255);"/>
				<path class="st7" d="M44.55,174.12c0,0.14-0.14,0.25-0.31,0.25c-0.17,0-0.31-0.11-0.31-0.25c0-0.14,0.14-0.25,0.31-0.25&#10;&#9;&#9;&#9;&#9;&#9;C44.41,173.87,44.55,173.98,44.55,174.12z" style="fill: rgb(255, 255, 255);"/>
				<path class="st7" d="M48.96,177.39c0,0.14-0.14,0.25-0.31,0.25c-0.17,0-0.31-0.11-0.31-0.25c0-0.14,0.14-0.25,0.31-0.25&#10;&#9;&#9;&#9;&#9;&#9;C48.82,177.14,48.96,177.25,48.96,177.39z" style="fill: rgb(255, 255, 255);"/>
				<path class="st7" d="M107.83,167.84c0,0.17-0.14,0.31-0.31,0.31c-0.17,0-0.31-0.14-0.31-0.31c0-0.17,0.14-0.31,0.31-0.31&#10;&#9;&#9;&#9;&#9;&#9;C107.69,167.53,107.83,167.67,107.83,167.84z" style="fill: rgb(255, 255, 255);"/>
				<path class="st7" d="M185.13,178.53c0,0.17-0.14,0.31-0.31,0.31c-0.17,0-0.31-0.14-0.31-0.31s0.14-0.31,0.31-0.31&#10;&#9;&#9;&#9;&#9;&#9;C184.99,178.22,185.13,178.36,185.13,178.53z" style="fill: rgb(255, 255, 255);"/>
				<path class="st7" d="M166.86,179.04c0,0.17-0.14,0.31-0.31,0.31c-0.18,0-0.31-0.14-0.31-0.31c0-0.17,0.14-0.31,0.31-0.31&#10;&#9;&#9;&#9;&#9;&#9;C166.72,178.73,166.86,178.87,166.86,179.04z" style="fill: rgb(255, 255, 255);"/>
				<path class="st7" d="M164.67,173.13c0,0.17-0.14,0.31-0.31,0.31c-0.17,0-0.31-0.14-0.31-0.31c0-0.17,0.14-0.31,0.31-0.31&#10;&#9;&#9;&#9;&#9;&#9;C164.53,172.81,164.67,172.95,164.67,173.13z" style="fill: rgb(255, 255, 255);"/>
				<path class="st7" d="M105.74,174.86c0,0.17-0.14,0.31-0.31,0.31c-0.17,0-0.31-0.14-0.31-0.31c0-0.17,0.14-0.31,0.31-0.31&#10;&#9;&#9;&#9;&#9;&#9;C105.6,174.55,105.74,174.69,105.74,174.86z" style="fill: rgb(255, 255, 255);"/>
			</g>
		</g>
		<g>
			<g id="waves_4_">
				<path class="st4" d="M207.32,154.54c4.01-2.28,4.27,1.38,8-0.28C211.66,154.87,211.27,151.06,207.32,154.54z" style="opacity: 0.8; fill-rule: evenodd; clip-rule: evenodd; fill: rgb(255, 255, 255);"/>
				<path class="st5" d="M279.05,159.63c4.01-2.28,4.27,1.38,8-0.28C283.4,159.96,283,156.15,279.05,159.63z" style="fill-rule: evenodd; clip-rule: evenodd; fill: rgb(255, 255, 255);"/>
				<path class="st6" d="M287.37,156.32c0-0.4,0.33-0.73,0.73-0.73s0.73,0.33,0.73,0.73c0,0.41-0.33,0.73-0.73,0.73&#10;&#9;&#9;&#9;&#9;&#9;S287.37,156.73,287.37,156.32z" style="opacity: 0.5; fill: rgb(255, 255, 255);"/>
				<path class="st7" d="M239.13,164.57c0-0.4,0.33-0.73,0.73-0.73c0.4,0,0.73,0.33,0.73,0.73c0,0.4-0.33,0.73-0.73,0.73&#10;&#9;&#9;&#9;&#9;&#9;C239.45,165.3,239.13,164.97,239.13,164.57z" style="fill: rgb(255, 255, 255);"/>
				<path class="st7" d="M331.39,163.36c0-0.14,0.14-0.25,0.31-0.25c0.17,0,0.31,0.11,0.31,0.25c0,0.14-0.14,0.25-0.31,0.25&#10;&#9;&#9;&#9;&#9;&#9;C331.53,163.61,331.39,163.5,331.39,163.36z" style="fill: rgb(255, 255, 255);"/>
				<path class="st7" d="M318.34,157.15c0-0.14,0.14-0.25,0.31-0.25c0.17,0,0.31,0.11,0.31,0.25c0,0.14-0.14,0.25-0.31,0.25&#10;&#9;&#9;&#9;&#9;&#9;C318.48,157.4,318.34,157.29,318.34,157.15z" style="fill: rgb(255, 255, 255);"/>
				<path class="st7" d="M306.79,164.26c0-0.17,0.14-0.31,0.31-0.31c0.17,0,0.31,0.14,0.31,0.31c0,0.17-0.14,0.31-0.31,0.31&#10;&#9;&#9;&#9;&#9;&#9;C306.93,164.57,306.79,164.43,306.79,164.26z" style="fill: rgb(255, 255, 255);"/>
				<path class="st7" d="M229.5,153.57c0-0.17,0.14-0.31,0.31-0.31c0.17,0,0.31,0.14,0.31,0.31c0,0.17-0.14,0.31-0.31,0.31&#10;&#9;&#9;&#9;&#9;&#9;C229.64,153.88,229.5,153.74,229.5,153.57z" style="fill: rgb(255, 255, 255);"/>
				<path class="st7" d="M247.77,153.05c0-0.17,0.14-0.31,0.31-0.31c0.17,0,0.31,0.14,0.31,0.31c0,0.17-0.14,0.31-0.31,0.31&#10;&#9;&#9;&#9;&#9;&#9;C247.91,153.37,247.77,153.23,247.77,153.05z" style="fill: rgb(255, 255, 255);"/>
				<path class="st7" d="M249.95,158.97c0-0.17,0.14-0.31,0.31-0.31c0.17,0,0.31,0.14,0.31,0.31c0,0.17-0.14,0.31-0.31,0.31&#10;&#9;&#9;&#9;&#9;&#9;C250.09,159.28,249.95,159.15,249.95,158.97z" style="fill: rgb(255, 255, 255);"/>
				<path class="st7" d="M202.92,156.9c0-0.17,0.14-0.31,0.31-0.31c0.17,0,0.31,0.14,0.31,0.31c0,0.17-0.14,0.31-0.31,0.31&#10;&#9;&#9;&#9;&#9;&#9;C203.06,157.21,202.92,157.07,202.92,156.9z" style="fill: rgb(255, 255, 255);"/>
				<path class="st7" d="M210.69,163.61c0-0.17,0.14-0.31,0.31-0.31c0.17,0,0.31,0.14,0.31,0.31c0,0.17-0.14,0.31-0.31,0.31&#10;&#9;&#9;&#9;&#9;&#9;C210.83,163.92,210.69,163.78,210.69,163.61z" style="fill: rgb(255, 255, 255);"/>
				<path class="st7" d="M198.51,163.36c0-0.17,0.14-0.31,0.31-0.31c0.17,0,0.31,0.14,0.31,0.31c0,0.17-0.14,0.31-0.31,0.31&#10;&#9;&#9;&#9;&#9;&#9;C198.65,163.67,198.51,163.53,198.51,163.36z" style="fill: rgb(255, 255, 255);"/>
			</g>
			<g id="waves_3_">
				<path class="st5" d="M234.74,174.29c-4.01,2.28-4.27-1.38-8,0.28C230.4,173.96,230.79,177.76,234.74,174.29z" style="fill-rule: evenodd; clip-rule: evenodd; fill: rgb(255, 255, 255);"/>
				<path class="st1" d="M242.02,171.21c0,0.4-0.33,0.73-0.73,0.73c-0.4,0-0.73-0.33-0.73-0.73c0-0.41,0.33-0.73,0.73-0.73&#10;&#9;&#9;&#9;&#9;&#9;C241.69,170.47,242.02,170.8,242.02,171.21z" style="opacity: 0.3; fill: rgb(255, 255, 255);"/>
				<path class="st6" d="M320.88,175.77c0,0.4-0.33,0.73-0.73,0.73s-0.73-0.33-0.73-0.73c0-0.41,0.33-0.73,0.73-0.73&#10;&#9;&#9;&#9;&#9;&#9;S320.88,175.37,320.88,175.77z" style="opacity: 0.5; fill: rgb(255, 255, 255);"/>
				<path class="st7" d="M267.17,179.36c0,0.17-0.14,0.31-0.31,0.31c-0.17,0-0.31-0.14-0.31-0.31c0-0.17,0.14-0.31,0.31-0.31&#10;&#9;&#9;&#9;&#9;&#9;C267.03,179.04,267.17,179.18,267.17,179.36z" style="fill: rgb(255, 255, 255);"/>
				<path class="st7" d="M276.85,168.74c0,0.14-0.14,0.25-0.31,0.25s-0.31-0.11-0.31-0.25c0-0.14,0.14-0.25,0.31-0.25&#10;&#9;&#9;&#9;&#9;&#9;S276.85,168.6,276.85,168.74z" style="fill: rgb(255, 255, 255);"/>
				<path class="st7" d="M289.91,174.95c0,0.14-0.14,0.25-0.31,0.25c-0.17,0-0.31-0.11-0.31-0.25c0-0.14,0.14-0.25,0.31-0.25&#10;&#9;&#9;&#9;&#9;&#9;C289.77,174.7,289.91,174.81,289.91,174.95z" style="fill: rgb(255, 255, 255);"/>
				<path class="st7" d="M238.18,174.12c0,0.14-0.14,0.25-0.31,0.25c-0.17,0-0.31-0.11-0.31-0.25c0-0.14,0.14-0.25,0.31-0.25&#10;&#9;&#9;&#9;&#9;&#9;C238.04,173.87,238.18,173.98,238.18,174.12z" style="fill: rgb(255, 255, 255);"/>
				<path class="st7" d="M242.59,177.39c0,0.14-0.14,0.25-0.31,0.25s-0.31-0.11-0.31-0.25c0-0.14,0.14-0.25,0.31-0.25&#10;&#9;&#9;&#9;&#9;&#9;S242.59,177.25,242.59,177.39z" style="fill: rgb(255, 255, 255);"/>
				<path class="st7" d="M301.45,167.84c0,0.17-0.14,0.31-0.31,0.31c-0.17,0-0.31-0.14-0.31-0.31c0-0.17,0.14-0.31,0.31-0.31&#10;&#9;&#9;&#9;&#9;&#9;C301.31,167.53,301.45,167.67,301.45,167.84z" style="fill: rgb(255, 255, 255);"/>
				<path class="st7" d="M311.54,175.12c0,0.17-0.14,0.31-0.31,0.31c-0.17,0-0.31-0.14-0.31-0.31c0-0.17,0.14-0.31,0.31-0.31&#10;&#9;&#9;&#9;&#9;&#9;C311.4,174.8,311.54,174.94,311.54,175.12z" style="fill: rgb(255, 255, 255);"/>
			</g>
		</g>
		<g>
			<g id="waves_8_">
				<path class="st4" d="M13.69,185.1c4.01-2.28,4.27,1.38,8-0.28C18.04,185.43,17.64,181.63,13.69,185.1z" style="opacity: 0.8; fill-rule: evenodd; clip-rule: evenodd; fill: rgb(255, 255, 255);"/>
				<path class="st6" d="M93.75,186.89c0-0.4,0.33-0.73,0.73-0.73c0.4,0,0.73,0.33,0.73,0.73c0,0.41-0.33,0.73-0.73,0.73&#10;&#9;&#9;&#9;&#9;&#9;C94.07,187.62,93.75,187.29,93.75,186.89z" style="opacity: 0.5; fill: rgb(255, 255, 255);"/>
				<path class="st7" d="M147.45,183.31c0-0.17,0.14-0.31,0.31-0.31c0.17,0,0.31,0.14,0.31,0.31c0,0.17-0.14,0.31-0.31,0.31&#10;&#9;&#9;&#9;&#9;&#9;C147.59,183.62,147.45,183.48,147.45,183.31z" style="fill: rgb(255, 255, 255);"/>
				<path class="st7" d="M124.72,187.72c0-0.14,0.14-0.25,0.31-0.25c0.17,0,0.31,0.11,0.31,0.25c0,0.14-0.14,0.25-0.31,0.25&#10;&#9;&#9;&#9;&#9;&#9;C124.86,187.97,124.72,187.86,124.72,187.72z" style="fill: rgb(255, 255, 255);"/>
				<path class="st7" d="M172.04,185.27c0-0.14,0.14-0.25,0.31-0.25c0.17,0,0.31,0.11,0.31,0.25c0,0.14-0.14,0.25-0.31,0.25&#10;&#9;&#9;&#9;&#9;&#9;C172.19,185.52,172.04,185.41,172.04,185.27z" style="fill: rgb(255, 255, 255);"/>
				<path class="st7" d="M35.87,184.13c0-0.17,0.14-0.31,0.31-0.31c0.17,0,0.31,0.14,0.31,0.31c0,0.17-0.14,0.31-0.31,0.31&#10;&#9;&#9;&#9;&#9;&#9;C36.01,184.45,35.87,184.31,35.87,184.13z" style="fill: rgb(255, 255, 255);"/>
				<path class="st7" d="M54.14,183.62c0-0.17,0.14-0.31,0.31-0.31c0.17,0,0.31,0.14,0.31,0.31c0,0.17-0.14,0.31-0.31,0.31&#10;&#9;&#9;&#9;&#9;&#9;C54.28,183.93,54.14,183.79,54.14,183.62z" style="fill: rgb(255, 255, 255);"/>
				<path class="st7" d="M9.29,187.46c0-0.17,0.14-0.31,0.31-0.31c0.17,0,0.31,0.14,0.31,0.31c0,0.17-0.14,0.31-0.31,0.31&#10;&#9;&#9;&#9;&#9;&#9;C9.44,187.78,9.29,187.64,9.29,187.46z" style="fill: rgb(255, 255, 255);"/>
			</g>
		</g>
		<g>
			<g id="waves_6_">
				<path class="st6" d="M287.37,186.89c0-0.4,0.33-0.73,0.73-0.73s0.73,0.33,0.73,0.73c0,0.41-0.33,0.73-0.73,0.73&#10;&#9;&#9;&#9;&#9;&#9;S287.37,187.29,287.37,186.89z" style="opacity: 0.5; fill: rgb(255, 255, 255);"/>
				<path class="st7" d="M318.34,187.72c0-0.14,0.14-0.25,0.31-0.25c0.17,0,0.31,0.11,0.31,0.25c0,0.14-0.14,0.25-0.31,0.25&#10;&#9;&#9;&#9;&#9;&#9;C318.48,187.97,318.34,187.86,318.34,187.72z" style="fill: rgb(255, 255, 255);"/>
				<path class="st7" d="M229.5,184.13c0-0.17,0.14-0.31,0.31-0.31c0.17,0,0.31,0.14,0.31,0.31c0,0.17-0.14,0.31-0.31,0.31&#10;&#9;&#9;&#9;&#9;&#9;C229.64,184.45,229.5,184.31,229.5,184.13z" style="fill: rgb(255, 255, 255);"/>
				<path class="st7" d="M247.77,183.62c0-0.17,0.14-0.31,0.31-0.31c0.17,0,0.31,0.14,0.31,0.31c0,0.17-0.14,0.31-0.31,0.31&#10;&#9;&#9;&#9;&#9;&#9;C247.91,183.93,247.77,183.79,247.77,183.62z" style="fill: rgb(255, 255, 255);"/>
				<path class="st7" d="M202.92,187.46c0-0.17,0.14-0.31,0.31-0.31c0.17,0,0.31,0.14,0.31,0.31c0,0.17-0.14,0.31-0.31,0.31&#10;&#9;&#9;&#9;&#9;&#9;C203.06,187.78,202.92,187.64,202.92,187.46z" style="fill: rgb(255, 255, 255);"/>
			</g>
		</g>
	</g>
	<g id="_x3C_Group_x3E__1_">
		<g>
			<g id="waves_12_">
				<path class="st3" d="M148.77,196.66c5.29-3.01,5.63,1.83,10.55-0.36C154.5,197.09,153.98,192.07,148.77,196.66z" style="opacity: 0.6; fill-rule: evenodd; clip-rule: evenodd; fill: rgb(255, 255, 255);"/>
				<path class="st4" d="M13.69,194.27c4.01-2.28,4.27,1.38,8-0.28C18.04,194.6,17.64,190.79,13.69,194.27z" style="opacity: 0.8; fill-rule: evenodd; clip-rule: evenodd; fill: rgb(255, 255, 255);"/>
				<path class="st5" d="M85.43,199.36c4.01-2.28,4.27,1.38,8-0.28C89.77,199.69,89.37,195.88,85.43,199.36z" style="fill-rule: evenodd; clip-rule: evenodd; fill: rgb(255, 255, 255);"/>
				<path class="st1" d="M172.62,200.62c0-0.4,0.33-0.73,0.73-0.73c0.4,0,0.73,0.33,0.73,0.73s-0.33,0.73-0.73,0.73&#10;&#9;&#9;&#9;&#9;&#9;C172.95,201.35,172.62,201.03,172.62,200.62z" style="opacity: 0.3; fill: rgb(255, 255, 255);"/>
				<path class="st6" d="M93.75,196.05c0-0.4,0.33-0.73,0.73-0.73c0.4,0,0.73,0.33,0.73,0.73c0,0.41-0.33,0.73-0.73,0.73&#10;&#9;&#9;&#9;&#9;&#9;C94.07,196.79,93.75,196.46,93.75,196.05z" style="opacity: 0.5; fill: rgb(255, 255, 255);"/>
				<path class="st7" d="M45.5,204.3c0-0.4,0.33-0.73,0.73-0.73c0.4,0,0.73,0.33,0.73,0.73s-0.33,0.73-0.73,0.73&#10;&#9;&#9;&#9;&#9;&#9;C45.83,205.03,45.5,204.7,45.5,204.3z" style="fill: rgb(255, 255, 255);"/>
				<path class="st7" d="M147.45,192.47c0-0.17,0.14-0.31,0.31-0.31c0.17,0,0.31,0.14,0.31,0.31c0,0.17-0.14,0.31-0.31,0.31&#10;&#9;&#9;&#9;&#9;&#9;C147.59,192.78,147.45,192.64,147.45,192.47z" style="fill: rgb(255, 255, 255);"/>
				<path class="st7" d="M137.77,203.09c0-0.14,0.14-0.25,0.31-0.25s0.31,0.11,0.31,0.25c0,0.14-0.14,0.25-0.31,0.25&#10;&#9;&#9;&#9;&#9;&#9;S137.77,203.23,137.77,203.09z" style="fill: rgb(255, 255, 255);"/>
				<path class="st7" d="M124.72,196.88c0-0.14,0.14-0.25,0.31-0.25c0.17,0,0.31,0.11,0.31,0.25c0,0.14-0.14,0.25-0.31,0.25&#10;&#9;&#9;&#9;&#9;&#9;C124.86,197.13,124.72,197.02,124.72,196.88z" style="fill: rgb(255, 255, 255);"/>
				<path class="st7" d="M176.46,197.71c0-0.14,0.14-0.25,0.31-0.25c0.17,0,0.31,0.11,0.31,0.25c0,0.14-0.14,0.25-0.31,0.25&#10;&#9;&#9;&#9;&#9;&#9;C176.6,197.96,176.46,197.85,176.46,197.71z" style="fill: rgb(255, 255, 255);"/>
				<path class="st7" d="M172.04,194.44c0-0.14,0.14-0.25,0.31-0.25c0.17,0,0.31,0.11,0.31,0.25c0,0.14-0.14,0.25-0.31,0.25&#10;&#9;&#9;&#9;&#9;&#9;C172.19,194.69,172.04,194.58,172.04,194.44z" style="fill: rgb(255, 255, 255);"/>
				<path class="st7" d="M113.17,203.99c0-0.17,0.14-0.31,0.31-0.31c0.17,0,0.31,0.14,0.31,0.31c0,0.17-0.14,0.31-0.31,0.31&#10;&#9;&#9;&#9;&#9;&#9;C113.31,204.3,113.17,204.16,113.17,203.99z" style="fill: rgb(255, 255, 255);"/>
				<path class="st7" d="M35.87,193.3c0-0.17,0.14-0.31,0.31-0.31c0.17,0,0.31,0.14,0.31,0.31c0,0.17-0.14,0.31-0.31,0.31&#10;&#9;&#9;&#9;&#9;&#9;C36.01,193.61,35.87,193.47,35.87,193.3z" style="fill: rgb(255, 255, 255);"/>
				<path class="st7" d="M54.14,192.78c0-0.17,0.14-0.31,0.31-0.31c0.17,0,0.31,0.14,0.31,0.31c0,0.17-0.14,0.31-0.31,0.31&#10;&#9;&#9;&#9;&#9;&#9;C54.28,193.1,54.14,192.96,54.14,192.78z" style="fill: rgb(255, 255, 255);"/>
				<path class="st7" d="M56.32,198.7c0-0.17,0.14-0.31,0.31-0.31c0.17,0,0.31,0.14,0.31,0.31c0,0.17-0.14,0.31-0.31,0.31&#10;&#9;&#9;&#9;&#9;&#9;C56.46,199.01,56.32,198.88,56.32,198.7z" style="fill: rgb(255, 255, 255);"/>
				<path class="st7" d="M9.29,196.63c0-0.17,0.14-0.31,0.31-0.31c0.17,0,0.31,0.14,0.31,0.31c0,0.17-0.14,0.31-0.31,0.31&#10;&#9;&#9;&#9;&#9;&#9;C9.44,196.94,9.29,196.8,9.29,196.63z" style="fill: rgb(255, 255, 255);"/>
				<path class="st7" d="M17.07,203.34c0-0.17,0.14-0.31,0.31-0.31c0.17,0,0.31,0.14,0.31,0.31c0,0.17-0.14,0.31-0.31,0.31&#10;&#9;&#9;&#9;&#9;&#9;C17.21,203.65,17.07,203.51,17.07,203.34z" style="fill: rgb(255, 255, 255);"/>
				<path class="st7" d="M4.89,203.09c0-0.17,0.14-0.31,0.31-0.31c0.17,0,0.31,0.14,0.31,0.31c0,0.17-0.14,0.31-0.31,0.31&#10;&#9;&#9;&#9;&#9;&#9;C5.03,203.4,4.89,203.26,4.89,203.09z" style="fill: rgb(255, 255, 255);"/>
			</g>
			<g id="waves_11_">
				<path class="st3" d="M72.23,214.9c-5.29,3.01-5.63-1.82-10.55,0.36C66.5,214.47,67.02,219.48,72.23,214.9z" style="opacity: 0.6; fill-rule: evenodd; clip-rule: evenodd; fill: rgb(255, 255, 255);"/>
				<path class="st5" d="M135.57,212.2c-4.01,2.28-4.27-1.38-8,0.28C131.23,211.87,131.62,215.67,135.57,212.2z" style="fill-rule: evenodd; clip-rule: evenodd; fill: rgb(255, 255, 255);"/>
				<path class="st5" d="M41.12,214.02c-4.01,2.28-4.27-1.38-8,0.28C36.77,213.69,37.17,217.49,41.12,214.02z" style="fill-rule: evenodd; clip-rule: evenodd; fill: rgb(255, 255, 255);"/>
				<path class="st1" d="M48.39,210.94c0,0.4-0.33,0.73-0.73,0.73c-0.4,0-0.73-0.33-0.73-0.73c0-0.41,0.33-0.73,0.73-0.73&#10;&#9;&#9;&#9;&#9;&#9;C48.06,210.2,48.39,210.53,48.39,210.94z" style="opacity: 0.3; fill: rgb(255, 255, 255);"/>
				<path class="st6" d="M127.25,215.5c0,0.4-0.33,0.73-0.73,0.73c-0.4,0-0.73-0.33-0.73-0.73c0-0.41,0.33-0.73,0.73-0.73&#10;&#9;&#9;&#9;&#9;&#9;C126.92,214.77,127.25,215.1,127.25,215.5z" style="opacity: 0.5; fill: rgb(255, 255, 255);"/>
				<path class="st7" d="M175.51,207.26c0,0.4-0.33,0.73-0.73,0.73s-0.73-0.33-0.73-0.73c0-0.4,0.33-0.73,0.73-0.73&#10;&#9;&#9;&#9;&#9;&#9;S175.51,206.85,175.51,207.26z" style="fill: rgb(255, 255, 255);"/>
				<path class="st7" d="M73.54,219.09c0,0.17-0.14,0.31-0.31,0.31c-0.17,0-0.31-0.14-0.31-0.31c0-0.17,0.14-0.31,0.31-0.31&#10;&#9;&#9;&#9;&#9;&#9;C73.4,218.77,73.54,218.91,73.54,219.09z" style="fill: rgb(255, 255, 255);"/>
				<path class="st7" d="M83.23,208.47c0,0.14-0.14,0.25-0.31,0.25c-0.17,0-0.31-0.11-0.31-0.25c0-0.14,0.14-0.25,0.31-0.25&#10;&#9;&#9;&#9;&#9;&#9;C83.09,208.22,83.23,208.33,83.23,208.47z" style="fill: rgb(255, 255, 255);"/>
				<path class="st7" d="M96.28,214.68c0,0.14-0.14,0.25-0.31,0.25c-0.17,0-0.31-0.11-0.31-0.25c0-0.14,0.14-0.25,0.31-0.25&#10;&#9;&#9;&#9;&#9;&#9;C96.14,214.43,96.28,214.54,96.28,214.68z" style="fill: rgb(255, 255, 255);"/>
				<path class="st7" d="M44.55,213.85c0,0.14-0.14,0.25-0.31,0.25c-0.17,0-0.31-0.11-0.31-0.25c0-0.14,0.14-0.25,0.31-0.25&#10;&#9;&#9;&#9;&#9;&#9;C44.41,213.6,44.55,213.71,44.55,213.85z" style="fill: rgb(255, 255, 255);"/>
				<path class="st7" d="M48.96,217.12c0,0.14-0.14,0.25-0.31,0.25c-0.17,0-0.31-0.11-0.31-0.25c0-0.14,0.14-0.25,0.31-0.25&#10;&#9;&#9;&#9;&#9;&#9;C48.82,216.87,48.96,216.98,48.96,217.12z" style="fill: rgb(255, 255, 255);"/>
				<path class="st7" d="M107.83,207.57c0,0.17-0.14,0.31-0.31,0.31c-0.17,0-0.31-0.14-0.31-0.31c0-0.17,0.14-0.31,0.31-0.31&#10;&#9;&#9;&#9;&#9;&#9;C107.69,207.26,107.83,207.4,107.83,207.57z" style="fill: rgb(255, 255, 255);"/>
				<path class="st7" d="M185.13,218.26c0,0.17-0.14,0.31-0.31,0.31c-0.17,0-0.31-0.14-0.31-0.31c0-0.17,0.14-0.31,0.31-0.31&#10;&#9;&#9;&#9;&#9;&#9;C184.99,217.95,185.13,218.09,185.13,218.26z" style="fill: rgb(255, 255, 255);"/>
				<path class="st7" d="M166.86,218.77c0,0.17-0.14,0.31-0.31,0.31c-0.18,0-0.31-0.14-0.31-0.31c0-0.17,0.14-0.31,0.31-0.31&#10;&#9;&#9;&#9;&#9;&#9;C166.72,218.46,166.86,218.6,166.86,218.77z" style="fill: rgb(255, 255, 255);"/>
				<path class="st7" d="M164.67,212.86c0,0.17-0.14,0.31-0.31,0.31c-0.17,0-0.31-0.14-0.31-0.31c0-0.17,0.14-0.31,0.31-0.31&#10;&#9;&#9;&#9;&#9;&#9;C164.53,212.54,164.67,212.68,164.67,212.86z" style="fill: rgb(255, 255, 255);"/>
				<path class="st7" d="M105.74,214.59c0,0.17-0.14,0.31-0.31,0.31c-0.17,0-0.31-0.14-0.31-0.31c0-0.17,0.14-0.31,0.31-0.31&#10;&#9;&#9;&#9;&#9;&#9;C105.6,214.28,105.74,214.42,105.74,214.59z" style="fill: rgb(255, 255, 255);"/>
			</g>
		</g>
		<g>
			<g id="waves_10_">
				<path class="st4" d="M207.32,194.27c4.01-2.28,4.27,1.38,8-0.28C211.66,194.6,211.27,190.79,207.32,194.27z" style="opacity: 0.8; fill-rule: evenodd; clip-rule: evenodd; fill: rgb(255, 255, 255);"/>
				<path class="st5" d="M279.05,199.36c4.01-2.28,4.27,1.38,8-0.28C283.4,199.69,283,195.88,279.05,199.36z" style="fill-rule: evenodd; clip-rule: evenodd; fill: rgb(255, 255, 255);"/>
				<path class="st6" d="M287.37,196.05c0-0.4,0.33-0.73,0.73-0.73s0.73,0.33,0.73,0.73c0,0.41-0.33,0.73-0.73,0.73&#10;&#9;&#9;&#9;&#9;&#9;S287.37,196.46,287.37,196.05z" style="opacity: 0.5; fill: rgb(255, 255, 255);"/>
				<path class="st7" d="M239.13,204.3c0-0.4,0.33-0.73,0.73-0.73c0.4,0,0.73,0.33,0.73,0.73s-0.33,0.73-0.73,0.73&#10;&#9;&#9;&#9;&#9;&#9;C239.45,205.03,239.13,204.7,239.13,204.3z" style="fill: rgb(255, 255, 255);"/>
				<path class="st7" d="M331.39,203.09c0-0.14,0.14-0.25,0.31-0.25c0.17,0,0.31,0.11,0.31,0.25c0,0.14-0.14,0.25-0.31,0.25&#10;&#9;&#9;&#9;&#9;&#9;C331.53,203.34,331.39,203.23,331.39,203.09z" style="fill: rgb(255, 255, 255);"/>
				<path class="st7" d="M318.34,196.88c0-0.14,0.14-0.25,0.31-0.25c0.17,0,0.31,0.11,0.31,0.25c0,0.14-0.14,0.25-0.31,0.25&#10;&#9;&#9;&#9;&#9;&#9;C318.48,197.13,318.34,197.02,318.34,196.88z" style="fill: rgb(255, 255, 255);"/>
				<path class="st7" d="M306.79,203.99c0-0.17,0.14-0.31,0.31-0.31c0.17,0,0.31,0.14,0.31,0.31c0,0.17-0.14,0.31-0.31,0.31&#10;&#9;&#9;&#9;&#9;&#9;C306.93,204.3,306.79,204.16,306.79,203.99z" style="fill: rgb(255, 255, 255);"/>
				<path class="st7" d="M229.5,193.3c0-0.17,0.14-0.31,0.31-0.31c0.17,0,0.31,0.14,0.31,0.31c0,0.17-0.14,0.31-0.31,0.31&#10;&#9;&#9;&#9;&#9;&#9;C229.64,193.61,229.5,193.47,229.5,193.3z" style="fill: rgb(255, 255, 255);"/>
				<path class="st7" d="M247.77,192.78c0-0.17,0.14-0.31,0.31-0.31c0.17,0,0.31,0.14,0.31,0.31c0,0.17-0.14,0.31-0.31,0.31&#10;&#9;&#9;&#9;&#9;&#9;C247.91,193.1,247.77,192.96,247.77,192.78z" style="fill: rgb(255, 255, 255);"/>
				<path class="st7" d="M249.95,198.7c0-0.17,0.14-0.31,0.31-0.31c0.17,0,0.31,0.14,0.31,0.31c0,0.17-0.14,0.31-0.31,0.31&#10;&#9;&#9;&#9;&#9;&#9;C250.09,199.01,249.95,198.88,249.95,198.7z" style="fill: rgb(255, 255, 255);"/>
				<path class="st7" d="M202.92,196.63c0-0.17,0.14-0.31,0.31-0.31c0.17,0,0.31,0.14,0.31,0.31c0,0.17-0.14,0.31-0.31,0.31&#10;&#9;&#9;&#9;&#9;&#9;C203.06,196.94,202.92,196.8,202.92,196.63z" style="fill: rgb(255, 255, 255);"/>
				<path class="st7" d="M210.69,203.34c0-0.17,0.14-0.31,0.31-0.31c0.17,0,0.31,0.14,0.31,0.31c0,0.17-0.14,0.31-0.31,0.31&#10;&#9;&#9;&#9;&#9;&#9;C210.83,203.65,210.69,203.51,210.69,203.34z" style="fill: rgb(255, 255, 255);"/>
				<path class="st7" d="M198.51,203.09c0-0.17,0.14-0.31,0.31-0.31c0.17,0,0.31,0.14,0.31,0.31c0,0.17-0.14,0.31-0.31,0.31&#10;&#9;&#9;&#9;&#9;&#9;C198.65,203.4,198.51,203.26,198.51,203.09z" style="fill: rgb(255, 255, 255);"/>
			</g>
			<g id="waves_9_">
				<path class="st5" d="M234.74,214.02c-4.01,2.28-4.27-1.38-8,0.28C230.4,213.69,230.79,217.49,234.74,214.02z" style="fill-rule: evenodd; clip-rule: evenodd; fill: rgb(255, 255, 255);"/>
				<path class="st1" d="M242.02,210.94c0,0.4-0.33,0.73-0.73,0.73c-0.4,0-0.73-0.33-0.73-0.73c0-0.41,0.33-0.73,0.73-0.73&#10;&#9;&#9;&#9;&#9;&#9;C241.69,210.2,242.02,210.53,242.02,210.94z" style="opacity: 0.3; fill: rgb(255, 255, 255);"/>
				<path class="st6" d="M320.88,215.5c0,0.4-0.33,0.73-0.73,0.73s-0.73-0.33-0.73-0.73c0-0.41,0.33-0.73,0.73-0.73&#10;&#9;&#9;&#9;&#9;&#9;S320.88,215.1,320.88,215.5z" style="opacity: 0.5; fill: rgb(255, 255, 255);"/>
				<path class="st7" d="M267.17,219.09c0,0.17-0.14,0.31-0.31,0.31c-0.17,0-0.31-0.14-0.31-0.31c0-0.17,0.14-0.31,0.31-0.31&#10;&#9;&#9;&#9;&#9;&#9;C267.03,218.77,267.17,218.91,267.17,219.09z" style="fill: rgb(255, 255, 255);"/>
				<path class="st7" d="M276.85,208.47c0,0.14-0.14,0.25-0.31,0.25s-0.31-0.11-0.31-0.25c0-0.14,0.14-0.25,0.31-0.25&#10;&#9;&#9;&#9;&#9;&#9;S276.85,208.33,276.85,208.47z" style="fill: rgb(255, 255, 255);"/>
				<path class="st7" d="M289.91,214.68c0,0.14-0.14,0.25-0.31,0.25c-0.17,0-0.31-0.11-0.31-0.25c0-0.14,0.14-0.25,0.31-0.25&#10;&#9;&#9;&#9;&#9;&#9;C289.77,214.43,289.91,214.54,289.91,214.68z" style="fill: rgb(255, 255, 255);"/>
				<path class="st7" d="M238.18,213.85c0,0.14-0.14,0.25-0.31,0.25c-0.17,0-0.31-0.11-0.31-0.25c0-0.14,0.14-0.25,0.31-0.25&#10;&#9;&#9;&#9;&#9;&#9;C238.04,213.6,238.18,213.71,238.18,213.85z" style="fill: rgb(255, 255, 255);"/>
				<path class="st7" d="M242.59,217.12c0,0.14-0.14,0.25-0.31,0.25s-0.31-0.11-0.31-0.25c0-0.14,0.14-0.25,0.31-0.25&#10;&#9;&#9;&#9;&#9;&#9;S242.59,216.98,242.59,217.12z" style="fill: rgb(255, 255, 255);"/>
				<path class="st7" d="M301.45,207.57c0,0.17-0.14,0.31-0.31,0.31c-0.17,0-0.31-0.14-0.31-0.31c0-0.17,0.14-0.31,0.31-0.31&#10;&#9;&#9;&#9;&#9;&#9;C301.31,207.26,301.45,207.4,301.45,207.57z" style="fill: rgb(255, 255, 255);"/>
				<path class="st7" d="M311.54,214.85c0,0.17-0.14,0.31-0.31,0.31c-0.17,0-0.31-0.14-0.31-0.31c0-0.17,0.14-0.31,0.31-0.31&#10;&#9;&#9;&#9;&#9;&#9;C311.4,214.53,311.54,214.67,311.54,214.85z" style="fill: rgb(255, 255, 255);"/>
			</g>
		</g>
		<g>
			<g id="waves_7_">
				<path class="st4" d="M13.69,224.83c4.01-2.28,4.27,1.38,8-0.28C18.04,225.16,17.64,221.36,13.69,224.83z" style="opacity: 0.8; fill-rule: evenodd; clip-rule: evenodd; fill: rgb(255, 255, 255);"/>
				<path class="st6" d="M93.75,226.62c0-0.4,0.33-0.73,0.73-0.73c0.4,0,0.73,0.33,0.73,0.73c0,0.41-0.33,0.73-0.73,0.73&#10;&#9;&#9;&#9;&#9;&#9;C94.07,227.35,93.75,227.02,93.75,226.62z" style="opacity: 0.5; fill: rgb(255, 255, 255);"/>
				<path class="st7" d="M147.45,223.04c0-0.17,0.14-0.31,0.31-0.31c0.17,0,0.31,0.14,0.31,0.31c0,0.17-0.14,0.31-0.31,0.31&#10;&#9;&#9;&#9;&#9;&#9;C147.59,223.35,147.45,223.21,147.45,223.04z" style="fill: rgb(255, 255, 255);"/>
				<path class="st7" d="M124.72,227.45c0-0.14,0.14-0.25,0.31-0.25c0.17,0,0.31,0.11,0.31,0.25c0,0.14-0.14,0.25-0.31,0.25&#10;&#9;&#9;&#9;&#9;&#9;C124.86,227.7,124.72,227.59,124.72,227.45z" style="fill: rgb(255, 255, 255);"/>
				<path class="st7" d="M172.04,225c0-0.14,0.14-0.25,0.31-0.25c0.17,0,0.31,0.11,0.31,0.25c0,0.14-0.14,0.25-0.31,0.25&#10;&#9;&#9;&#9;&#9;&#9;C172.19,225.25,172.04,225.14,172.04,225z" style="fill: rgb(255, 255, 255);"/>
				<path class="st7" d="M35.87,223.86c0-0.17,0.14-0.31,0.31-0.31c0.17,0,0.31,0.14,0.31,0.31c0,0.17-0.14,0.31-0.31,0.31&#10;&#9;&#9;&#9;&#9;&#9;C36.01,224.18,35.87,224.04,35.87,223.86z" style="fill: rgb(255, 255, 255);"/>
				<path class="st7" d="M54.14,223.35c0-0.17,0.14-0.31,0.31-0.31c0.17,0,0.31,0.14,0.31,0.31c0,0.17-0.14,0.31-0.31,0.31&#10;&#9;&#9;&#9;&#9;&#9;C54.28,223.66,54.14,223.52,54.14,223.35z" style="fill: rgb(255, 255, 255);"/>
				<path class="st7" d="M9.29,227.19c0-0.17,0.14-0.31,0.31-0.31c0.17,0,0.31,0.14,0.31,0.31c0,0.17-0.14,0.31-0.31,0.31&#10;&#9;&#9;&#9;&#9;&#9;C9.44,227.51,9.29,227.37,9.29,227.19z" style="fill: rgb(255, 255, 255);"/>
			</g>
		</g>
		<g>
			<g id="waves_5_">
				<path class="st6" d="M287.37,226.62c0-0.4,0.33-0.73,0.73-0.73s0.73,0.33,0.73,0.73c0,0.41-0.33,0.73-0.73,0.73&#10;&#9;&#9;&#9;&#9;&#9;S287.37,227.02,287.37,226.62z" style="opacity: 0.5; fill: rgb(255, 255, 255);"/>
				<path class="st7" d="M318.34,227.45c0-0.14,0.14-0.25,0.31-0.25c0.17,0,0.31,0.11,0.31,0.25c0,0.14-0.14,0.25-0.31,0.25&#10;&#9;&#9;&#9;&#9;&#9;C318.48,227.7,318.34,227.59,318.34,227.45z" style="fill: rgb(255, 255, 255);"/>
				<path class="st7" d="M229.5,223.86c0-0.17,0.14-0.31,0.31-0.31c0.17,0,0.31,0.14,0.31,0.31c0,0.17-0.14,0.31-0.31,0.31&#10;&#9;&#9;&#9;&#9;&#9;C229.64,224.18,229.5,224.04,229.5,223.86z" style="fill: rgb(255, 255, 255);"/>
				<path class="st7" d="M247.77,223.35c0-0.17,0.14-0.31,0.31-0.31c0.17,0,0.31,0.14,0.31,0.31c0,0.17-0.14,0.31-0.31,0.31&#10;&#9;&#9;&#9;&#9;&#9;C247.91,223.66,247.77,223.52,247.77,223.35z" style="fill: rgb(255, 255, 255);"/>
				<path class="st7" d="M202.92,227.19c0-0.17,0.14-0.31,0.31-0.31c0.17,0,0.31,0.14,0.31,0.31c0,0.17-0.14,0.31-0.31,0.31&#10;&#9;&#9;&#9;&#9;&#9;C203.06,227.51,202.92,227.37,202.92,227.19z" style="fill: rgb(255, 255, 255);"/>
			</g>
		</g>
	</g>
</g>
<g id="Group_24_">
	<g id="Group_27_">
		<path class="st8" d="M197.29,73.41c-5.16,9.44-7.99,24.18-7.99,34.89c0,9.29,2.87,20.64,2.87,20.64h5.12h5.12&#10;&#9;&#9;&#9;c0,0,2.87-11.35,2.87-20.64C205.28,97.59,202.44,82.85,197.29,73.41z" style="fill: rgb(45, 146, 72);"/>
		<path class="st9" d="M216.17,87.18c-3.88,7.1-6.01,18.18-6.01,26.25c0,6.99,2.16,15.53,2.16,15.53h3.85h3.85&#10;&#9;&#9;&#9;c0,0,2.16-8.54,2.16-15.53C222.18,105.36,220.05,94.27,216.17,87.18z" style="fill: rgb(23, 85, 41);"/>
		<path class="st10" d="M178.16,87.18c-3.88,7.1-6.01,18.18-6.01,26.25c0,6.99,2.16,15.53,2.16,15.53h3.85h3.85&#10;&#9;&#9;&#9;c0,0,2.16-8.54,2.16-15.53C184.17,105.36,182.04,94.27,178.16,87.18z" style="fill: rgb(205, 225, 173);"/>
	</g>
</g>
<linearGradient id="Group_54_" gradientUnits="userSpaceOnUse" x1="218.4694" y1="151.7704" x2="218.4694" y2="110.6086">
	<stop offset="0" style="stop-color:#2D9248"/>
	<stop offset="0.3234" style="stop-color:#79AE6A"/>
	<stop offset="0.6288" style="stop-color:#A9C98D"/>
	<stop offset="0.8638" style="stop-color:#C3DBA4"/>
	<stop offset="1" style="stop-color:#CDE1AD"/>
</linearGradient>
<path id="Group_25_" class="st11" d="M100.95,151.77c0,0,86.7-41.16,235.03-41.16c0,41.16,0,41.16,0,41.16H100.95L100.95,151.77z" style="fill: url('#Group_54_');"/>
<g id="Group_26_">
	<path class="st7" d="M63.25,146.12c-0.34-0.58-0.7-1.13-1.08-1.65c0.64,0.05,1.3,0.08,1.97,0.07c5.74-0.05,10.36-3.87,10.35-5.01&#10;&#9;&#9;c-0.01-1.13-4.7-4.87-10.44-4.82c-0.67,0.01-1.33,0.04-1.97,0.11c0.36-0.53,0.72-1.09,1.05-1.67c2.83-5,1.83-10.91,0.84-11.46&#10;&#9;&#9;c-0.99-0.56-6.57,1.63-9.39,6.63c-0.33,0.59-0.63,1.17-0.89,1.76c-0.28-0.58-0.58-1.16-0.92-1.74c-2.91-4.95-8.53-7.04-9.51-6.47&#10;&#9;&#9;c-0.98,0.58-1.87,6.5,1.04,11.45c0.34,0.58,0.7,1.13,1.08,1.65c-0.64-0.05-1.29-0.08-1.97-0.07c-5.74,0.05-10.36,3.87-10.35,5&#10;&#9;&#9;c0.01,1.13,4.69,4.87,10.43,4.82c0.67-0.01,1.33-0.04,1.97-0.11c-0.36,0.53-0.72,1.08-1.05,1.67c-2.82,4.99-1.83,10.91-0.84,11.46&#10;&#9;&#9;c0.99,0.56,6.57-1.63,9.39-6.63c0.33-0.59,0.63-1.18,0.9-1.76c0.27,0.58,0.58,1.16,0.92,1.75c2.91,4.94,8.53,7.03,9.51,6.46&#10;&#9;&#9;C65.27,157,66.16,151.07,63.25,146.12z" style="fill: rgb(255, 255, 255);"/>
	<path class="st12" d="M59.91,143.19c-0.31,0.54-1.2,0.62-1.62,1.03c-0.42,0.42-0.49,1.31-0.99,1.6c-0.53,0.3-1.34-0.08-1.93,0.07&#10;&#9;&#9;c-0.55,0.14-1.04,0.88-1.62,0.88c-0.57,0-1.06-0.74-1.63-0.89c-0.54-0.15-1.31,0.26-1.82-0.03c-0.54-0.31-0.62-1.2-1.04-1.62&#10;&#9;&#9;c-0.42-0.42-1.31-0.48-1.59-0.99c-0.31-0.53,0.08-1.34-0.07-1.93c-0.15-0.55-0.88-1.05-0.88-1.62c0-0.57,0.73-1.06,0.89-1.63&#10;&#9;&#9;c0.14-0.54-0.26-1.31,0.03-1.82c0.31-0.54,1.2-0.62,1.62-1.04c0.42-0.42,0.48-1.3,0.99-1.6c0.53-0.3,1.34,0.08,1.93-0.07&#10;&#9;&#9;c0.55-0.14,1.04-0.88,1.62-0.88c0.57,0,1.06,0.74,1.62,0.89c0.54,0.14,1.32-0.26,1.82,0.02c0.54,0.31,0.62,1.2,1.04,1.62&#10;&#9;&#9;c0.42,0.42,1.31,0.48,1.6,0.99c0.3,0.52-0.08,1.34,0.07,1.93c0.14,0.56,0.88,1.05,0.88,1.63c0,0.57-0.74,1.06-0.89,1.62&#10;&#9;&#9;C59.79,141.91,60.2,142.69,59.91,143.19z" style="fill: rgb(255, 228, 123);"/>
	<path class="st13" d="M57.28,141.7c-1.1,1.94-3.55,2.62-5.49,1.52c-1.94-1.1-2.62-3.55-1.52-5.49c1.1-1.94,3.55-2.62,5.49-1.52&#10;&#9;&#9;C57.69,137.31,58.38,139.77,57.28,141.7z" style="fill: rgb(252, 195, 90);"/>
</g>
<g id="Group_28_">
	<path class="st9" d="M41.72,169.35c1.24-0.71,2.15-3.24,2.57-4.58c0,0,0,0,0,0c0.01-0.04,0.02-0.08,0.04-0.11&#10;&#9;&#9;c0.01-0.02,0.01-0.05,0.02-0.07c0.02-0.07,0.04-0.14,0.06-0.22c0.02-0.07,0.04-0.13,0.05-0.2c0.02-0.07,0.04-0.14,0.05-0.21&#10;&#9;&#9;c0.05-0.21,0.09-0.42,0.13-0.63c0.09-0.52,0.15-1.04,0.18-1.56c0.04-0.61,0.05-1.23,0.05-1.84c0.06-0.02,0.1-0.06,0.1-0.14&#10;&#9;&#9;c-0.02-2.05-0.03-4.18,0.3-6.22c0,0,0-0.01,0-0.01c0.32-1.96,0.94-3.83,2.15-5.48c0.37,1.97,1.23,3.78,1.84,5.68&#10;&#9;&#9;c0.63,1.93,0.91,3.93,0.55,5.94c-0.37,2.07-1.27,4.08-2.7,5.64C45.58,167.01,43.68,168.23,41.72,169.35z" style="fill: rgb(23, 85, 41);"/>
	<path class="st9" d="M30.02,173.18c0.03,0,0.06,0,0.08-0.01c1.09,0.09,2.17,0.14,3.25,0.09c0.07,0,0.15-0.01,0.22-0.01&#10;&#9;&#9;c2.27-0.15,4.45-0.96,6.31-2.24c-1.33,1.82-2.75,3.58-4.58,4.92c-1.7,1.25-3.8,1.92-5.9,2.07c-2.04,0.14-3.99-0.36-5.85-1.19&#10;&#9;&#9;c-1.82-0.82-3.53-1.87-5.44-2.45c1.76-1.03,3.7-1.44,5.68-1.54c0,0,0.01,0,0.01,0c0.1-0.01,0.2-0.01,0.31-0.01&#10;&#9;&#9;c1.79-0.06,3.59,0.17,5.38,0.33C29.67,173.13,29.85,173.15,30.02,173.18z" style="fill: rgb(23, 85, 41);"/>
	<path class="st12" d="M26.22,165.9c-1.84-2.35-2.24-5.09-2.07-7.96c-0.5,0.01-1,0.05-1.5,0.13c-1.28,0.21-2.43,0.65-3.6,1.2&#10;&#9;&#9;c-0.93,0.43-1.87,0.82-2.91,0.75c0.16,1.35,0.55,2.61,1.12,3.77c0.08,0.03,0.13,0.12,0.11,0.2c1.76,3.37,5.06,5.88,8.6,7.35&#10;&#9;&#9;c2.33,0.97,4.82,1.76,7.36,1.59c1.92-0.13,3.76-0.68,5.41-1.61C34.21,172.41,28.94,169.37,26.22,165.9z" style="fill: rgb(255, 228, 123);"/>
	<path class="st12" d="M43.59,155.56c-1.08-3.67-3.21-7.24-6.37-9.35c-0.08,0.01-0.17-0.05-0.19-0.13c-1.09-0.7-2.3-1.23-3.63-1.53&#10;&#9;&#9;c-0.04,1.04-0.53,1.93-1.06,2.81c-0.67,1.1-1.23,2.2-1.58,3.44c-0.14,0.48-0.23,0.98-0.29,1.48c2.87,0.15,5.55,0.84,7.69,2.93&#10;&#9;&#9;c3.16,3.08,5.6,8.66,4.02,13.05c1.11-1.54,1.85-3.31,2.19-5.2C44.82,160.54,44.3,157.98,43.59,155.56z" style="fill: rgb(255, 228, 123);"/>
	<g>
		<path class="st12" d="M24.16,157.69c0.15-2.19,0.38-4.33-0.34-6.44c0-0.01,0-0.02,0-0.03c0,0,0-0.01,0-0.01c0,0,0.01,0,0.01,0&#10;&#9;&#9;&#9;c0.01,0,0.02,0,0.03,0c2.02,0.94,4.17,0.95,6.36,1.04c2.97,0.12,5.73,0.79,7.93,2.94c3.38,3.3,5.94,9.46,3.63,13.95&#10;&#9;&#9;&#9;c0,0.01,0,0.01-0.01,0.01c-0.04,0.04-0.06,0.09-0.07,0.14c-0.17,0.31-0.36,0.61-0.58,0.91c-0.09,0.12-0.06,0.23,0.01,0.31&#10;&#9;&#9;&#9;l-0.01,0.01c-0.07-0.08-0.18-0.12-0.31-0.04c-0.31,0.18-0.64,0.34-0.96,0.47c-0.05,0-0.1,0.02-0.15,0.05c0,0,0,0-0.01,0&#10;&#9;&#9;&#9;c-4.73,1.81-10.56-1.41-13.47-5.13C24.33,163.48,23.96,160.65,24.16,157.69z" style="fill: rgb(255, 228, 123);"/>
		<path class="st12" d="M26.22,165.9c-1.84-2.35-2.24-5.09-2.07-7.96c-0.5,0.01-1,0.05-1.5,0.13c-1.28,0.21-2.43,0.65-3.6,1.2&#10;&#9;&#9;&#9;c-0.93,0.43-1.87,0.82-2.91,0.75c0.16,1.35,0.55,2.61,1.12,3.77c0.08,0.03,0.13,0.12,0.11,0.2c1.76,3.37,5.06,5.88,8.6,7.35&#10;&#9;&#9;&#9;c2.33,0.97,4.82,1.76,7.36,1.59c1.92-0.13,3.76-0.68,5.41-1.61C34.21,172.41,28.94,169.37,26.22,165.9z" style="fill: rgb(255, 228, 123);"/>
		<path class="st12" d="M43.59,155.56c-1.08-3.67-3.21-7.24-6.37-9.35c-0.08,0.01-0.17-0.05-0.19-0.13c-1.09-0.7-2.3-1.23-3.63-1.53&#10;&#9;&#9;&#9;c-0.04,1.04-0.53,1.93-1.06,2.81c-0.67,1.1-1.23,2.2-1.58,3.44c-0.14,0.48-0.23,0.98-0.29,1.48c2.87,0.15,5.55,0.84,7.69,2.93&#10;&#9;&#9;&#9;c3.16,3.08,5.6,8.66,4.02,13.05c1.11-1.54,1.85-3.31,2.19-5.2C44.82,160.54,44.3,157.98,43.59,155.56z" style="fill: rgb(255, 228, 123);"/>
	</g>
</g>
<g id="Group_29_">
	<path class="st9" d="M253.27,172.78c1.06-0.61,1.83-2.76,2.19-3.91c0,0,0,0,0,0c0.01-0.03,0.02-0.07,0.03-0.1&#10;&#9;&#9;c0.01-0.02,0.01-0.04,0.02-0.06c0.02-0.06,0.04-0.12,0.05-0.19c0.02-0.06,0.03-0.11,0.04-0.17c0.02-0.06,0.03-0.12,0.04-0.18&#10;&#9;&#9;c0.04-0.18,0.08-0.36,0.11-0.53c0.08-0.44,0.13-0.89,0.15-1.33c0.04-0.52,0.04-1.05,0.05-1.57c0.05-0.01,0.08-0.05,0.08-0.12&#10;&#9;&#9;c-0.02-1.75-0.02-3.57,0.26-5.31c0,0,0-0.01,0-0.01c0.27-1.67,0.8-3.27,1.84-4.68c0.31,1.68,1.05,3.22,1.57,4.85&#10;&#9;&#9;c0.53,1.65,0.78,3.36,0.47,5.07c-0.32,1.77-1.08,3.49-2.3,4.82C256.56,170.78,254.94,171.83,253.27,172.78z" style="fill: rgb(23, 85, 41);"/>
	<path class="st9" d="M243.28,176.05c0.03,0,0.05,0,0.07-0.01c0.93,0.08,1.85,0.12,2.78,0.07c0.06,0,0.13-0.01,0.19-0.01&#10;&#9;&#9;c1.94-0.13,3.8-0.82,5.39-1.92c-1.13,1.56-2.35,3.05-3.91,4.2c-1.45,1.07-3.24,1.64-5.04,1.76c-1.74,0.12-3.41-0.31-4.99-1.02&#10;&#9;&#9;c-1.56-0.7-3.01-1.6-4.65-2.09c1.51-0.88,3.16-1.23,4.85-1.32c0,0,0.01,0,0.01,0c0.09,0,0.17-0.01,0.26-0.01&#10;&#9;&#9;c1.53-0.05,3.06,0.14,4.59,0.28C242.98,176.01,243.13,176.03,243.28,176.05z" style="fill: rgb(23, 85, 41);"/>
	<path class="st12" d="M240.03,169.84c-1.57-2.01-1.91-4.35-1.77-6.8c-0.43,0.01-0.86,0.04-1.28,0.11&#10;&#9;&#9;c-1.09,0.18-2.07,0.56-3.07,1.02c-0.8,0.37-1.6,0.7-2.48,0.64c0.13,1.16,0.47,2.23,0.96,3.22c0.07,0.02,0.11,0.11,0.09,0.17&#10;&#9;&#9;c1.5,2.88,4.32,5.02,7.34,6.28c1.99,0.83,4.11,1.5,6.29,1.36c1.64-0.11,3.21-0.58,4.62-1.38&#10;&#9;&#9;C246.86,175.4,242.35,172.8,240.03,169.84z" style="fill: rgb(255, 228, 123);"/>
	<path class="st12" d="M254.87,161.01c-0.92-3.14-2.74-6.18-5.44-7.98c-0.07,0.01-0.15-0.04-0.17-0.11c-0.93-0.6-1.96-1.05-3.1-1.31&#10;&#9;&#9;c-0.04,0.89-0.45,1.65-0.91,2.4c-0.57,0.94-1.05,1.88-1.35,2.94c-0.12,0.41-0.19,0.84-0.25,1.26c2.45,0.12,4.74,0.72,6.57,2.5&#10;&#9;&#9;c2.7,2.63,4.78,7.39,3.43,11.14c0.94-1.32,1.58-2.83,1.87-4.44C255.91,165.26,255.47,163.08,254.87,161.01z" style="fill: rgb(255, 228, 123);"/>
	<g>
		<path class="st12" d="M238.28,162.83c0.13-1.87,0.32-3.69-0.29-5.49c0-0.01,0-0.02,0-0.03c0,0,0-0.01,0-0.01c0,0,0,0,0.01,0&#10;&#9;&#9;&#9;c0.01,0,0.02,0,0.03,0c1.72,0.8,3.56,0.81,5.43,0.89c2.53,0.1,4.9,0.68,6.77,2.51c2.89,2.82,5.07,8.07,3.1,11.91&#10;&#9;&#9;&#9;c0,0,0,0.01-0.01,0.01c-0.03,0.04-0.05,0.08-0.06,0.12c-0.14,0.27-0.31,0.52-0.49,0.77c-0.07,0.1-0.05,0.2,0.01,0.27l-0.01,0.01&#10;&#9;&#9;&#9;c-0.06-0.07-0.16-0.1-0.26-0.04c-0.27,0.16-0.54,0.29-0.82,0.4c-0.04,0-0.09,0.01-0.13,0.04c0,0,0,0-0.01,0&#10;&#9;&#9;&#9;c-4.03,1.54-9.02-1.2-11.5-4.38C238.42,167.77,238.1,165.36,238.28,162.83z" style="fill: rgb(255, 228, 123);"/>
		<path class="st12" d="M240.03,169.84c-1.57-2.01-1.91-4.35-1.77-6.8c-0.43,0.01-0.86,0.04-1.28,0.11&#10;&#9;&#9;&#9;c-1.09,0.18-2.07,0.56-3.07,1.02c-0.8,0.37-1.6,0.7-2.48,0.64c0.13,1.16,0.47,2.23,0.96,3.22c0.07,0.02,0.11,0.11,0.09,0.17&#10;&#9;&#9;&#9;c1.5,2.88,4.32,5.02,7.34,6.28c1.99,0.83,4.11,1.5,6.29,1.36c1.64-0.11,3.21-0.58,4.62-1.38&#10;&#9;&#9;&#9;C246.86,175.4,242.35,172.8,240.03,169.84z" style="fill: rgb(255, 228, 123);"/>
		<path class="st12" d="M254.87,161.01c-0.92-3.14-2.74-6.18-5.44-7.98c-0.07,0.01-0.15-0.04-0.17-0.11&#10;&#9;&#9;&#9;c-0.93-0.6-1.96-1.05-3.1-1.31c-0.04,0.89-0.45,1.65-0.91,2.4c-0.57,0.94-1.05,1.88-1.35,2.94c-0.12,0.41-0.19,0.84-0.25,1.26&#10;&#9;&#9;&#9;c2.45,0.12,4.74,0.72,6.57,2.5c2.7,2.63,4.78,7.39,3.43,11.14c0.94-1.32,1.58-2.83,1.87-4.44&#10;&#9;&#9;&#9;C255.91,165.26,255.47,163.08,254.87,161.01z" style="fill: rgb(255, 228, 123);"/>
	</g>
</g>
<path id="Group_30_" class="st14" d="M35.76,225.68c-0.87-6.61-3.02-15.44-7-24.02c-3.32-7.17-6.63-12.56-10.85-18.31&#10;&#9;c-4.27-5.72-9.48-11.8-17.91-19.81c6.74,7.86,11.44,14.32,15.4,20.56c3.92,6.24,7.11,12.22,9.98,19.21&#10;&#9;c2.76,6.84,4.91,13.78,6.27,20.93c0.74,3.54,1.26,7.15,1.59,10.79h0.47h0.45h0.01h1.13h0.05h0.61h0.56&#10;&#9;C36.49,233.16,36.33,229.88,35.76,225.68z" style="fill: rgb(23, 85, 41); stroke: rgb(85, 132, 47); stroke-width: 0.0157; stroke-miterlimit: 10;"/>
<path id="Group_31_" class="st15" d="M220.85,227.09c-0.75-5.65-2.58-13.18-5.97-20.51c-2.84-6.12-5.66-10.72-9.26-15.63&#10;&#9;c-3.65-4.89-8.09-10.07-15.3-16.91c5.75,6.71,9.77,12.23,13.15,17.55c3.35,5.32,6.07,10.43,8.53,16.4&#10;&#9;c2.36,5.84,4.2,11.77,5.36,17.87c0.63,3.02,1.08,6.1,1.36,9.21h0.4h0.39h0.01h0.96h0.05h0.52h0.48&#10;&#9;C221.48,233.48,221.34,230.68,220.85,227.09z" style="fill: rgb(23, 85, 41); stroke: rgb(85, 132, 47); stroke-width: 0.0134; stroke-miterlimit: 10;"/>
<path id="Group_32_" class="st16" d="M253.4,229.3c-0.54-4.08-1.87-9.53-4.32-14.82c-2.05-4.43-4.09-7.75-6.7-11.3&#10;&#9;c-2.64-3.53-5.85-7.28-11.06-12.23c4.16,4.85,7.06,8.84,9.5,12.69c2.42,3.85,4.39,7.54,6.16,11.85c1.7,4.22,3.03,8.51,3.87,12.92&#10;&#9;c0.46,2.19,0.78,4.41,0.98,6.66h0.29h0.28h0.01h0.7h0.03h0.38h0.35C253.85,233.92,253.75,231.89,253.4,229.3z" style="fill: rgb(23, 85, 41); stroke: rgb(85, 132, 47); stroke-width: 0.00967257; stroke-miterlimit: 10;"/>
<path id="Group_33_" class="st8" d="M48.31,209.66c3.81-20.76,10.38-32.14,18.77-39.43c0.14-0.13,0.27-0.27,0.41-0.4&#10;&#9;c1.16-1.11,2.35-2.07,3.57-2.96c0.95-0.68,1.92-1.31,2.91-1.85c1.86-1.05,0.5,0.45-0.05,0.91c-0.01,0-0.01,0.01-0.02,0.01&#10;&#9;c-1.68,1.71-3.12,3.71-4.17,5.62c-2.79,5.05-4.26,9.94-5.43,15.45c-2.3,10.84-4.32,18.16-10.13,28.59&#10;&#9;c-1.85,3.32-2.42,4.48-4.32,8.91c-0.86,2.21-1.58,3.92-2.16,5.9c-0.36,1.49-0.7,3.06-1.01,4.76c-0.02-0.09-0.02-0.2-0.03-0.3&#10;&#9;c0-0.02,0-0.03,0-0.05c-0.15-1.9-0.25-3.49-0.28-5.06c0,0.03-0.01,0.06-0.01,0.09c0-0.04,0.01-0.08,0.01-0.12&#10;&#9;c0-0.1,0-0.21-0.01-0.31c0-0.01,0-0.01,0-0.02c0,0,0-0.01,0-0.01c-0.04-2.24,0.04-4.51,0.24-7.71&#10;&#9;C46.85,217.67,47.5,214.08,48.31,209.66z" style="fill: rgb(45, 146, 72);"/>
<path id="Group_34_" class="st10" d="M307.62,213.51c3.25-17.72,8.86-27.44,16.03-33.67c0.12-0.11,0.23-0.23,0.35-0.34&#10;&#9;c0.99-0.95,2-1.77,3.05-2.53c0.81-0.58,1.64-1.12,2.48-1.58c1.59-0.9,0.42,0.39-0.04,0.78c0,0-0.01,0.01-0.01,0.01&#10;&#9;c-1.43,1.46-2.67,3.17-3.56,4.8c-2.38,4.31-3.64,8.48-4.64,13.19c-1.97,9.25-3.69,15.5-8.65,24.41c-1.58,2.83-2.07,3.83-3.68,7.61&#10;&#9;c-0.73,1.88-1.35,3.35-1.85,5.04c-0.31,1.27-0.6,2.61-0.86,4.06c-0.01-0.08-0.01-0.17-0.03-0.25c0-0.01,0-0.03,0-0.04&#10;&#9;c-0.13-1.63-0.21-2.98-0.24-4.32c0,0.03-0.01,0.05-0.01,0.08c0-0.03,0.01-0.07,0.01-0.1c0-0.09,0-0.18-0.01-0.27&#10;&#9;c0-0.01,0-0.01,0-0.02c0,0,0-0.01,0-0.01c-0.03-1.91,0.04-3.85,0.2-6.59C306.37,220.35,306.93,217.29,307.62,213.51z" style="fill: rgb(205, 225, 173);"/>
<path id="Group_35_" class="st8" d="M258.93,210.82c7.44,7.78,10.17,13.89,10.68,19.54c0.01,0.1,0.03,0.19,0.04,0.29&#10;&#9;c0.11,0.81,0.16,1.59,0.16,2.36c0,0.59-0.03,1.18-0.11,1.75c-0.12,1.08-0.34,0.07-0.36-0.29c0,0,0-0.01,0-0.01&#10;&#9;c-0.2-1.2-0.6-2.4-1.07-3.4c-1.25-2.66-2.83-4.73-4.76-6.86c-3.79-4.19-6.21-7.21-8.78-12.73c-0.82-1.75-1.13-2.34-2.39-4.45&#10;&#9;c-0.66-1.01-1.15-1.82-1.79-2.66c-0.51-0.59-1.06-1.21-1.66-1.84c0.04,0.02,0.09,0.05,0.13,0.08c0.01,0.01,0.01,0.01,0.02,0.02&#10;&#9;c0.83,0.51,1.51,0.94,2.17,1.4c-0.01-0.01-0.02-0.02-0.03-0.03c0.02,0.01,0.03,0.03,0.04,0.04c0.04,0.03,0.09,0.06,0.13,0.09&#10;&#9;c0,0,0.01,0,0.01,0.01c0,0,0,0,0,0c0.94,0.65,1.85,1.37,3.11,2.4C256.06,207.82,257.35,209.17,258.93,210.82z" style="fill: rgb(45, 146, 72);"/>
<path id="Group_36_" class="st8" d="M304.44,206.47c-4.29-23.38-11.69-36.19-21.14-44.41c-0.15-0.15-0.31-0.3-0.46-0.45&#10;&#9;c-1.31-1.25-2.64-2.34-4.02-3.34c-1.07-0.76-2.16-1.47-3.28-2.08c-2.09-1.18-0.56,0.51,0.06,1.03c0.01,0.01,0.01,0.01,0.02,0.02&#10;&#9;c1.89,1.92,3.52,4.18,4.7,6.33c3.14,5.69,4.8,11.19,6.11,17.4c2.59,12.2,4.87,20.45,11.41,32.2c2.08,3.73,2.73,5.05,4.86,10.03&#10;&#9;c0.97,2.48,1.78,4.42,2.44,6.64c0.41,1.68,0.79,3.45,1.13,5.36c0.02-0.1,0.02-0.23,0.04-0.33c0-0.02,0-0.03,0-0.05&#10;&#9;c0.17-2.14,0.28-3.93,0.31-5.7c0,0.03,0.01,0.07,0.01,0.1c0-0.05-0.01-0.09-0.01-0.13c0-0.12,0.01-0.24,0.01-0.35&#10;&#9;c0-0.01,0-0.01,0-0.02c0,0,0-0.01,0-0.01c0.04-2.52-0.05-5.08-0.27-8.69C306.08,215.49,305.36,211.45,304.44,206.47z" style="fill: rgb(45, 146, 72);"/>
<g id="Group_37_">
	<path class="st7" d="M88.43,190.78c-0.28-0.47-0.57-0.92-0.88-1.34c0.52,0.04,1.06,0.06,1.61,0.06c4.67-0.04,8.44-3.15,8.43-4.08&#10;&#9;&#9;c-0.01-0.92-3.83-3.97-8.5-3.93c-0.55,0-1.08,0.04-1.6,0.09c0.3-0.43,0.58-0.88,0.85-1.36c2.3-4.07,1.49-8.88,0.69-9.34&#10;&#9;&#9;c-0.8-0.46-5.35,1.33-7.65,5.4c-0.27,0.48-0.51,0.96-0.73,1.43c-0.22-0.47-0.47-0.95-0.75-1.42c-2.37-4.03-6.95-5.74-7.74-5.27&#10;&#9;&#9;c-0.8,0.47-1.53,5.3,0.85,9.33c0.28,0.47,0.57,0.92,0.88,1.35c-0.52-0.04-1.05-0.06-1.6-0.06c-4.68,0.04-8.44,3.15-8.43,4.08&#10;&#9;&#9;c0.01,0.92,3.82,3.97,8.5,3.93c0.55-0.01,1.08-0.03,1.6-0.09c-0.3,0.43-0.58,0.88-0.85,1.36c-2.3,4.07-1.49,8.88-0.69,9.34&#10;&#9;&#9;c0.8,0.45,5.35-1.33,7.65-5.4c0.27-0.48,0.51-0.96,0.73-1.43c0.22,0.47,0.47,0.95,0.75,1.42c2.37,4.03,6.95,5.73,7.74,5.26&#10;&#9;&#9;C90.08,199.64,90.8,194.81,88.43,190.78z" style="fill: rgb(255, 255, 255);"/>
	<path class="st12" d="M85.71,188.39c-0.25,0.44-0.98,0.5-1.32,0.84c-0.35,0.34-0.4,1.07-0.81,1.3c-0.43,0.25-1.09-0.07-1.57,0.06&#10;&#9;&#9;c-0.45,0.12-0.85,0.71-1.32,0.71c-0.47,0-0.87-0.6-1.33-0.72c-0.44-0.12-1.07,0.21-1.48-0.02c-0.44-0.25-0.5-0.98-0.84-1.32&#10;&#9;&#9;c-0.34-0.34-1.06-0.39-1.3-0.8c-0.25-0.43,0.06-1.09-0.06-1.57c-0.12-0.45-0.72-0.85-0.71-1.32c0-0.47,0.6-0.87,0.72-1.33&#10;&#9;&#9;c0.12-0.44-0.21-1.07,0.02-1.48c0.25-0.44,0.98-0.5,1.32-0.85c0.34-0.34,0.39-1.06,0.8-1.3c0.43-0.25,1.1,0.07,1.57-0.06&#10;&#9;&#9;c0.45-0.12,0.85-0.71,1.32-0.71c0.47,0,0.86,0.6,1.32,0.72c0.44,0.12,1.07-0.21,1.48,0.02c0.44,0.25,0.5,0.98,0.84,1.32&#10;&#9;&#9;c0.34,0.34,1.07,0.39,1.3,0.8c0.25,0.43-0.07,1.09,0.06,1.57c0.12,0.45,0.71,0.85,0.71,1.32c0,0.46-0.6,0.86-0.72,1.32&#10;&#9;&#9;C85.62,187.34,85.94,187.98,85.71,188.39z" style="fill: rgb(255, 228, 123);"/>
	<path class="st13" d="M83.57,187.18c-0.89,1.58-2.89,2.13-4.47,1.24c-1.58-0.89-2.13-2.89-1.24-4.47c0.89-1.58,2.89-2.13,4.47-1.24&#10;&#9;&#9;C83.91,183.6,84.46,185.6,83.57,187.18z" style="fill: rgb(252, 195, 90);"/>
</g>
<path id="Group_38_" class="st9" d="M41.25,170.48c2.08,5.09,3.4,10.43,4.58,15.79c1.12,5.37,1.97,10.8,2.65,16.24&#10;&#9;c0.69,5.44,1.34,10.9,1.45,16.39c0.02,2.74,0,5.49-0.09,8.23c-0.13,2.74-0.35,5.48-0.65,8.22h-0.25c-0.36-2.73-0.64-5.46-0.83-8.18&#10;&#9;c-0.27-2.72-0.45-5.44-0.64-8.16c-0.46-5.42-0.47-10.88-0.95-16.3c-0.42-5.43-1.02-10.85-1.9-16.22c-0.85-5.37-1.85-10.76-3.6-15.92&#10;&#9;L41.25,170.48z" style="fill: rgb(23, 85, 41);"/>
<path id="Group_39_" class="st10" d="M276.12,168.08c2.05,0.8,3.53,2.59,4.45,4.55c0.91,1.98,1.3,4.17,1.38,6.33&#10;&#9;c0.07,1.09-0.03,2.17-0.08,3.24l-0.26,3.17c-0.17,2.11-0.32,4.22-0.44,6.33c-0.24,4.22-0.11,8.41,0.05,12.55&#10;&#9;c0.11,2.07,0.32,4.14,0.63,6.2c0.36,2.05,0.82,4.09,1.44,6.13l-0.19,0.09c-1.14-1.81-2.04-3.81-2.68-5.88&#10;&#9;c-0.63-2.08-1.02-4.22-1.28-6.37c-0.48-4.31-0.06-8.62,0.37-12.85c0.22-2.12,0.48-4.23,0.75-6.34c0.26-2.12,0.62-4.2,0.64-6.26&#10;&#9;c0.05-2.07-0.18-4.16-0.91-6.09c-0.73-1.9-2.05-3.71-3.94-4.6L276.12,168.08z" style="fill: rgb(205, 225, 173);"/>
<path id="Group_40_" class="st8" d="M308.41,166.09c-2.28,0.71-3.95,2.76-4.52,5c-0.62,2.26-0.42,4.68,0.09,6.98&#10;&#9;c1,4.75,1.76,9.53,2.41,14.34c0.63,4.8,1.28,9.62,1.38,14.48c0.1,4.85-0.05,9.73-0.82,14.54l-0.21-0.01l-1.07-14.42&#10;&#9;c-0.4-4.79-0.52-9.6-0.96-14.4c-0.43-4.79-0.98-9.58-1.77-14.32c-0.39-2.42-0.46-4.98,0.34-7.36c0.76-2.37,2.66-4.42,5.08-5.02&#10;&#9;L308.41,166.09z" style="fill: rgb(45, 146, 72);"/>
<g id="Group_41_">
	<path class="st7" d="M239.99,185.48c0.12-0.45,0.21-0.9,0.28-1.34c0.29,0.34,0.6,0.68,0.93,1.01c2.85,2.8,7,3.19,7.55,2.63&#10;&#9;&#9;c0.55-0.56,0.08-4.7-2.76-7.5c-0.33-0.33-0.67-0.63-1.02-0.92c0.44-0.08,0.89-0.18,1.34-0.31c3.85-1.07,6.26-4.46,6.05-5.22&#10;&#9;&#9;c-0.21-0.76-4.03-2.43-7.88-1.36c-0.45,0.12-0.89,0.27-1.3,0.43c0.15-0.42,0.29-0.86,0.4-1.31c1-3.87-0.73-7.66-1.5-7.85&#10;&#9;&#9;c-0.76-0.2-4.12,2.28-5.12,6.14c-0.12,0.45-0.21,0.9-0.28,1.34c-0.29-0.34-0.6-0.68-0.93-1.01c-2.85-2.8-7-3.19-7.55-2.63&#10;&#9;&#9;c-0.55,0.56-0.09,4.7,2.76,7.5c0.33,0.33,0.68,0.63,1.02,0.92c-0.44,0.08-0.88,0.18-1.34,0.31c-3.84,1.07-6.26,4.46-6.05,5.22&#10;&#9;&#9;c0.21,0.76,4.03,2.43,7.88,1.36c0.45-0.12,0.89-0.27,1.31-0.42c-0.15,0.42-0.29,0.86-0.41,1.31c-1,3.86,0.74,7.65,1.5,7.85&#10;&#9;&#9;C235.63,191.82,238.99,189.35,239.99,185.48z" style="fill: rgb(255, 255, 255);"/>
	<path class="st12" d="M239.79,182.4c-0.42,0.12-0.89-0.29-1.3-0.29c-0.42,0-0.88,0.4-1.27,0.3c-0.41-0.11-0.62-0.7-0.98-0.91&#10;&#9;&#9;c-0.34-0.2-0.94-0.08-1.23-0.37c-0.28-0.28-0.16-0.88-0.36-1.24c-0.19-0.34-0.77-0.52-0.88-0.91c-0.11-0.42,0.29-0.9,0.29-1.31&#10;&#9;&#9;c0-0.41-0.4-0.88-0.3-1.27c0.11-0.41,0.7-0.62,0.91-0.98c0.2-0.34,0.08-0.95,0.37-1.23c0.28-0.28,0.88-0.16,1.24-0.36&#10;&#9;&#9;c0.33-0.19,0.52-0.77,0.91-0.88c0.42-0.12,0.9,0.29,1.31,0.29c0.41,0,0.88-0.4,1.27-0.3c0.41,0.11,0.62,0.7,0.98,0.92&#10;&#9;&#9;c0.34,0.2,0.94,0.08,1.23,0.37c0.28,0.28,0.16,0.88,0.36,1.24c0.19,0.33,0.78,0.52,0.88,0.91c0.11,0.41-0.29,0.9-0.29,1.31&#10;&#9;&#9;c0,0.41,0.41,0.88,0.3,1.27c-0.11,0.41-0.7,0.62-0.91,0.98c-0.2,0.34-0.08,0.95-0.37,1.23c-0.28,0.28-0.88,0.16-1.24,0.36&#10;&#9;&#9;C240.36,181.71,240.17,182.29,239.79,182.4z" style="fill: rgb(255, 228, 123);"/>
	<path class="st13" d="M239.22,180.37c-1.49,0.41-3.03-0.46-3.45-1.95c-0.41-1.49,0.46-3.03,1.95-3.45&#10;&#9;&#9;c1.49-0.41,3.03,0.46,3.45,1.95C241.59,178.42,240.71,179.96,239.22,180.37z" style="fill: rgb(252, 195, 90);"/>
</g>
<g id="Group_42_">
	<path class="st7" d="M269.92,171.58c0.4-0.24,0.79-0.49,1.15-0.75c-0.04,0.45-0.05,0.9-0.05,1.37c0.04,3.99,2.69,7.2,3.48,7.2&#10;&#9;&#9;c0.79-0.01,3.39-3.27,3.35-7.26c0-0.47-0.03-0.92-0.07-1.37c0.37,0.25,0.75,0.5,1.16,0.73c3.47,1.97,7.59,1.27,7.97,0.59&#10;&#9;&#9;c0.39-0.69-1.13-4.57-4.61-6.53c-0.41-0.23-0.82-0.44-1.22-0.62c0.4-0.19,0.81-0.41,1.21-0.64c3.44-2.03,4.9-5.93,4.5-6.61&#10;&#9;&#9;c-0.4-0.68-4.52-1.3-7.96,0.72c-0.4,0.24-0.79,0.49-1.15,0.75c0.04-0.44,0.06-0.9,0.05-1.37c-0.04-3.99-2.69-7.21-3.48-7.2&#10;&#9;&#9;c-0.79,0.01-3.39,3.26-3.36,7.26c0,0.47,0.03,0.93,0.07,1.37c-0.37-0.25-0.75-0.5-1.16-0.73c-3.47-1.96-7.59-1.27-7.97-0.59&#10;&#9;&#9;c-0.39,0.69,1.14,4.57,4.61,6.53c0.41,0.23,0.82,0.44,1.22,0.62c-0.4,0.19-0.81,0.4-1.21,0.64c-3.44,2.03-4.89,5.93-4.49,6.61&#10;&#9;&#9;C262.36,172.99,266.48,173.61,269.92,171.58z" style="fill: rgb(255, 255, 255);"/>
	<path class="st12" d="M271.96,169.26c-0.38-0.21-0.43-0.84-0.72-1.13c-0.29-0.29-0.91-0.34-1.11-0.69&#10;&#9;&#9;c-0.21-0.37,0.06-0.93-0.05-1.34c-0.1-0.39-0.61-0.73-0.61-1.13c0-0.4,0.51-0.74,0.62-1.13c0.1-0.37-0.18-0.91,0.02-1.27&#10;&#9;&#9;c0.21-0.38,0.84-0.43,1.13-0.72c0.29-0.29,0.34-0.91,0.69-1.11c0.37-0.21,0.93,0.05,1.34-0.05c0.39-0.1,0.73-0.61,1.13-0.61&#10;&#9;&#9;c0.4,0,0.74,0.51,1.13,0.62c0.37,0.1,0.91-0.18,1.26,0.02c0.38,0.21,0.43,0.84,0.72,1.13c0.29,0.29,0.91,0.34,1.11,0.69&#10;&#9;&#9;c0.21,0.37-0.06,0.94,0.05,1.34c0.1,0.38,0.61,0.73,0.61,1.13c0,0.4-0.51,0.74-0.62,1.13c-0.1,0.37,0.18,0.92-0.02,1.27&#10;&#9;&#9;c-0.21,0.37-0.84,0.43-1.13,0.72c-0.29,0.29-0.34,0.91-0.69,1.11c-0.36,0.21-0.93-0.06-1.34,0.05c-0.39,0.1-0.73,0.61-1.13,0.61&#10;&#9;&#9;c-0.4,0-0.74-0.51-1.13-0.62C272.85,169.18,272.31,169.46,271.96,169.26z" style="fill: rgb(255, 228, 123);"/>
	<path class="st13" d="M272.99,167.43c-1.35-0.76-1.82-2.47-1.06-3.82c0.76-1.35,2.47-1.82,3.82-1.06c1.35,0.76,1.82,2.47,1.06,3.82&#10;&#9;&#9;C276.05,167.72,274.34,168.19,272.99,167.43z" style="fill: rgb(252, 195, 90);"/>
</g>
<g id="Group_43_">
	<g id="flower_8_">
		<path class="st9" d="M306.81,138.54c1.06-0.61,1.83-2.76,2.19-3.91c0,0,0,0,0,0c0.01-0.03,0.02-0.07,0.03-0.1&#10;&#9;&#9;&#9;c0.01-0.02,0.01-0.04,0.02-0.06c0.02-0.06,0.04-0.12,0.05-0.19c0.02-0.06,0.03-0.11,0.04-0.17c0.02-0.06,0.03-0.12,0.04-0.18&#10;&#9;&#9;&#9;c0.04-0.18,0.08-0.36,0.11-0.53c0.08-0.44,0.13-0.89,0.15-1.33c0.04-0.52,0.04-1.05,0.05-1.57c0.05-0.01,0.08-0.05,0.08-0.12&#10;&#9;&#9;&#9;c-0.02-1.75-0.02-3.57,0.26-5.31c0,0,0-0.01,0-0.01c0.27-1.67,0.8-3.27,1.84-4.68c0.31,1.68,1.05,3.22,1.57,4.85&#10;&#9;&#9;&#9;c0.53,1.65,0.78,3.36,0.47,5.07c-0.32,1.77-1.08,3.49-2.3,4.82C310.1,136.54,308.48,137.58,306.81,138.54z" style="fill: rgb(23, 85, 41);"/>
		<path class="st9" d="M296.82,141.81c0.03,0,0.05,0,0.07-0.01c0.93,0.08,1.85,0.12,2.78,0.07c0.06,0,0.13-0.01,0.19-0.01&#10;&#9;&#9;&#9;c1.94-0.13,3.8-0.82,5.39-1.92c-1.13,1.56-2.35,3.05-3.91,4.2c-1.45,1.07-3.24,1.64-5.04,1.76c-1.74,0.12-3.41-0.31-4.99-1.02&#10;&#9;&#9;&#9;c-1.56-0.7-3.01-1.6-4.65-2.09c1.51-0.88,3.16-1.23,4.85-1.32c0,0,0.01,0,0.01,0c0.09,0,0.17-0.01,0.26-0.01&#10;&#9;&#9;&#9;c1.53-0.05,3.06,0.14,4.59,0.28C296.52,141.77,296.67,141.79,296.82,141.81z" style="fill: rgb(23, 85, 41);"/>
		<path class="st12" d="M293.58,135.59c-1.57-2.01-1.91-4.35-1.77-6.8c-0.43,0.01-0.86,0.04-1.28,0.11&#10;&#9;&#9;&#9;c-1.09,0.18-2.07,0.56-3.07,1.02c-0.8,0.37-1.6,0.7-2.48,0.64c0.13,1.16,0.47,2.23,0.96,3.22c0.07,0.02,0.11,0.11,0.09,0.17&#10;&#9;&#9;&#9;c1.5,2.88,4.32,5.02,7.34,6.28c1.99,0.83,4.11,1.5,6.29,1.36c1.64-0.11,3.21-0.58,4.62-1.38&#10;&#9;&#9;&#9;C300.4,141.15,295.9,138.56,293.58,135.59z" style="fill: rgb(255, 228, 123);"/>
		<path class="st12" d="M308.41,126.76c-0.92-3.14-2.74-6.18-5.44-7.98c-0.07,0.01-0.15-0.04-0.17-0.11&#10;&#9;&#9;&#9;c-0.93-0.6-1.96-1.05-3.1-1.31c-0.04,0.89-0.45,1.65-0.91,2.4c-0.57,0.94-1.05,1.88-1.35,2.94c-0.12,0.41-0.19,0.84-0.25,1.26&#10;&#9;&#9;&#9;c2.45,0.12,4.74,0.72,6.57,2.5c2.7,2.63,4.78,7.39,3.43,11.14c0.94-1.32,1.58-2.83,1.87-4.44&#10;&#9;&#9;&#9;C309.45,131.02,309.02,128.83,308.41,126.76z" style="fill: rgb(255, 228, 123);"/>
		<g>
			<path class="st12" d="M291.82,128.59c0.13-1.87,0.32-3.69-0.29-5.49c0-0.01,0-0.02,0-0.03c0,0,0-0.01,0-0.01c0,0,0,0,0.01,0&#10;&#9;&#9;&#9;&#9;c0.01,0,0.02,0,0.03,0c1.72,0.8,3.56,0.81,5.43,0.89c2.53,0.1,4.9,0.68,6.77,2.51c2.89,2.82,5.07,8.07,3.1,11.91&#10;&#9;&#9;&#9;&#9;c0,0,0,0.01-0.01,0.01c-0.03,0.04-0.05,0.08-0.06,0.12c-0.14,0.27-0.31,0.52-0.49,0.77c-0.07,0.1-0.05,0.2,0.01,0.27l-0.01,0.01&#10;&#9;&#9;&#9;&#9;c-0.06-0.07-0.16-0.1-0.26-0.04c-0.27,0.16-0.54,0.29-0.82,0.4c-0.04,0-0.09,0.01-0.13,0.04c0,0,0,0-0.01,0&#10;&#9;&#9;&#9;&#9;c-4.03,1.54-9.02-1.2-11.5-4.38C291.96,133.53,291.65,131.11,291.82,128.59z" style="fill: rgb(255, 228, 123);"/>
			<path class="st12" d="M293.58,135.59c-1.57-2.01-1.91-4.35-1.77-6.8c-0.43,0.01-0.86,0.04-1.28,0.11&#10;&#9;&#9;&#9;&#9;c-1.09,0.18-2.07,0.56-3.07,1.02c-0.8,0.37-1.6,0.7-2.48,0.64c0.13,1.16,0.47,2.23,0.96,3.22c0.07,0.02,0.11,0.11,0.09,0.17&#10;&#9;&#9;&#9;&#9;c1.5,2.88,4.32,5.02,7.34,6.28c1.99,0.83,4.11,1.5,6.29,1.36c1.64-0.11,3.21-0.58,4.62-1.38&#10;&#9;&#9;&#9;&#9;C300.4,141.15,295.9,138.56,293.58,135.59z" style="fill: rgb(255, 228, 123);"/>
			<path class="st12" d="M308.41,126.76c-0.92-3.14-2.74-6.18-5.44-7.98c-0.07,0.01-0.15-0.04-0.17-0.11&#10;&#9;&#9;&#9;&#9;c-0.93-0.6-1.96-1.05-3.1-1.31c-0.04,0.89-0.45,1.65-0.91,2.4c-0.57,0.94-1.05,1.88-1.35,2.94c-0.12,0.41-0.19,0.84-0.25,1.26&#10;&#9;&#9;&#9;&#9;c2.45,0.12,4.74,0.72,6.57,2.5c2.7,2.63,4.78,7.39,3.43,11.14c0.94-1.32,1.58-2.83,1.87-4.44&#10;&#9;&#9;&#9;&#9;C309.45,131.02,309.02,128.83,308.41,126.76z" style="fill: rgb(255, 228, 123);"/>
		</g>
	</g>
	<g>
		<path class="st9" d="M311.88,159.52l-1.01-0.26c2.59-9.93-5.15-19.3-5.23-19.4l0.8-0.67C306.78,139.58,314.6,149.07,311.88,159.52&#10;&#9;&#9;&#9;z" style="fill: rgb(23, 85, 41);"/>
	</g>
</g>
<g id="Group_44_">
	<path class="st7" d="M307.23,168.86c0.54-0.32,1.05-0.65,1.53-1c-0.05,0.59-0.07,1.2-0.07,1.83c0.05,5.31,3.58,9.59,4.63,9.58&#10;&#9;&#9;c1.05-0.01,4.51-4.35,4.46-9.66c-0.01-0.62-0.04-1.23-0.1-1.82c0.49,0.34,1,0.66,1.55,0.97c4.63,2.62,10.1,1.69,10.61,0.78&#10;&#9;&#9;c0.52-0.91-1.51-6.08-6.13-8.7c-0.54-0.31-1.09-0.58-1.63-0.82c0.54-0.25,1.08-0.54,1.61-0.86c4.58-2.7,6.52-7.9,5.99-8.8&#10;&#9;&#9;c-0.53-0.91-6.02-1.73-10.6,0.96c-0.54,0.32-1.05,0.65-1.53,1c0.05-0.59,0.07-1.2,0.07-1.82c-0.05-5.31-3.58-9.59-4.63-9.58&#10;&#9;&#9;c-1.05,0.01-4.51,4.35-4.47,9.66c0.01,0.62,0.04,1.23,0.1,1.82c-0.49-0.34-1-0.66-1.55-0.97c-4.62-2.62-10.1-1.69-10.61-0.78&#10;&#9;&#9;c-0.52,0.91,1.51,6.08,6.13,8.7c0.54,0.31,1.09,0.58,1.63,0.83c-0.54,0.25-1.08,0.54-1.62,0.85c-4.58,2.7-6.51,7.9-5.98,8.8&#10;&#9;&#9;C297.16,170.73,302.65,171.56,307.23,168.86z" style="fill: rgb(255, 255, 255);"/>
	<path class="st12" d="M309.94,165.77c-0.5-0.28-0.57-1.11-0.96-1.5c-0.39-0.39-1.21-0.45-1.48-0.91c-0.28-0.49,0.07-1.24-0.07-1.79&#10;&#9;&#9;c-0.13-0.51-0.81-0.97-0.81-1.5c0-0.53,0.68-0.98,0.82-1.51c0.14-0.5-0.24-1.22,0.03-1.68c0.28-0.5,1.11-0.57,1.5-0.96&#10;&#9;&#9;c0.39-0.39,0.45-1.21,0.91-1.48c0.49-0.28,1.24,0.07,1.79-0.07c0.51-0.13,0.97-0.81,1.5-0.81c0.53,0,0.98,0.68,1.51,0.82&#10;&#9;&#9;c0.5,0.13,1.22-0.24,1.68,0.02c0.5,0.28,0.57,1.12,0.96,1.5c0.39,0.39,1.21,0.45,1.48,0.91c0.28,0.49-0.08,1.25,0.06,1.79&#10;&#9;&#9;c0.13,0.51,0.81,0.97,0.81,1.5c0,0.53-0.68,0.98-0.82,1.5c-0.13,0.5,0.24,1.22-0.02,1.69c-0.28,0.5-1.12,0.57-1.5,0.96&#10;&#9;&#9;c-0.39,0.39-0.45,1.21-0.91,1.48c-0.49,0.28-1.24-0.08-1.78,0.06c-0.51,0.13-0.97,0.81-1.5,0.81c-0.53,0-0.98-0.68-1.5-0.82&#10;&#9;&#9;C311.13,165.66,310.41,166.03,309.94,165.77z" style="fill: rgb(255, 228, 123);"/>
	<path class="st13" d="M311.32,163.33c-1.79-1.01-2.42-3.29-1.41-5.08c1.01-1.79,3.29-2.42,5.08-1.41c1.79,1.02,2.42,3.29,1.41,5.08&#10;&#9;&#9;C315.39,163.72,313.11,164.35,311.32,163.33z" style="fill: rgb(252, 195, 90);"/>
</g>
<path id="Group_45_" class="st17" d="M294.1,235.07c-0.45-6.3,0.02-12.66,1.41-19.08c5.88-27.31,37.2-41.2,37.2-41.2&#10;&#9;c-18.63,5.27-32.81,19.17-38.9,38.11c-2.29,7.13-3.25,14.63-2.98,22.17H294.1z" style="fill-rule: evenodd; clip-rule: evenodd; fill: rgb(45, 146, 72);"/>
<path id="Group_46_" class="st10" d="M256.67,184.4c2.29,3.81,2.85,4.88,4.33,8.05c4.66,9.99,9.04,15.47,15.91,23.06&#10;&#9;c3.49,3.86,6.35,7.6,8.62,12.42c0.86,1.82,1.58,3.98,1.94,6.16c0,0.01,0,0.01,0,0.02c0.02,0.24,0.08,0.64,0.17,0.95h0.43&#10;&#9;c0.02-0.12,0.04-0.25,0.06-0.42c0.13-1.03,0.18-2.1,0.19-3.18c0-1.39-0.08-2.8-0.28-4.27c-0.02-0.17-0.05-0.35-0.08-0.52&#10;&#9;c-0.92-10.23-5.87-21.3-19.34-35.39c-2.87-3-5.21-5.43-8.07-7.78c-2.29-1.88-3.95-3.17-5.64-4.35c0,0,0,0-0.01-0.01&#10;&#9;c-0.01,0-0.01-0.01-0.01-0.01c-0.08-0.06-0.16-0.11-0.24-0.17c-0.03-0.02-0.05-0.05-0.08-0.07c0.02,0.02,0.04,0.04,0.06,0.06&#10;&#9;c-1.19-0.82-2.43-1.61-3.94-2.53c-0.01-0.01-0.02-0.02-0.03-0.03c-0.08-0.04-0.16-0.1-0.24-0.14c1.1,1.14,2.09,2.25,3.01,3.33&#10;&#9;C254.6,181.09,255.49,182.56,256.67,184.4z" style="fill: rgb(205, 225, 173);"/>
<path id="Group_47_" class="st17" d="M252.32,202.24c12.07,6.84,19.69,17.81,22.69,32.83h4.07c-3.22-16.76-13.13-29.78-27.36-35.8&#10;&#9;c-15.26-6.44-33.25-4.23-49.36,6.07C202.36,205.34,232.35,190.89,252.32,202.24z" style="fill-rule: evenodd; clip-rule: evenodd; fill: rgb(45, 146, 72);"/>
<path id="Group_48_" class="st8" d="M249.16,190.14l-0.05,0.36c-1.35,9.78-2.52,18.23,11.22,44.56h1.12l0.05-0.02&#10;&#9;c-13.85-26.4-12.75-34.34-11.35-44.39l0.05-0.37c1.44-10.43-4.35-12.53-4.59-12.61l-0.34,0.99&#10;&#9;C245.48,178.74,250.48,180.62,249.16,190.14z" style="fill: rgb(45, 146, 72);"/>
<path id="Group_49_" class="st18" d="M229.09,220.81c3.74,6.07,4.89,11.03,5.24,14.25h2.33c-0.03-0.92-0.1-2.02-0.33-3.34&#10;&#9;c-0.56-3.49-2.22-8.03-5.07-12.05c-2.41-3.35-4.72-5.69-7.62-7.95c-2.94-2.17-6.47-4.43-12.19-6.05c4.74,1.92,7.92,4.33,10.66,6.77&#10;&#9;C224.81,214.93,227.05,217.55,229.09,220.81z" style="fill: rgb(23, 85, 41); stroke: rgb(85, 132, 47); stroke-width: 0.0225; stroke-miterlimit: 10;"/>
<path id="Group_50_" class="st19" d="M231.46,214.51c5.55,8.78,7.23,15.95,7.72,20.56h3.42c-0.03-1.34-0.14-2.97-0.48-4.93&#10;&#9;c-0.82-5-3.27-11.5-7.45-17.26c-3.54-4.79-6.94-8.14-11.2-11.38c-4.32-3.11-9.51-6.34-17.93-8.66c6.97,2.75,11.65,6.2,15.68,9.69&#10;&#9;C225.15,206.09,228.45,209.84,231.46,214.51z" style="fill: rgb(23, 85, 41); stroke: rgb(85, 132, 47); stroke-width: 0.0327; stroke-miterlimit: 10;"/>
<path id="Group_51_" class="st20" d="M204.35,207.61c7.52,4.26,12.15,11.21,13.76,20.8c0.33,1.98,0.36,4.24,0.15,6.65h2.35&#10;&#9;c0.23-2.53,0.21-4.92-0.15-7.05c-1.74-10.4-7.75-18.48-16.47-22.17c-9.09-3.84-19.82-2.52-29.42,3.62&#10;&#9;C174.57,209.46,192.45,200.85,204.35,207.61z" style="fill-rule: evenodd; clip-rule: evenodd; fill: rgb(205, 225, 173);"/>
<path id="Group_20_" class="st20" d="M114.63,235.02c2.48-3.15,5.54-5.77,9.2-7.85c13.94-7.92,34.88,2.16,34.88,2.16&#10;&#9;c-11.24-7.19-23.8-8.73-34.46-4.24c-5.06,2.14-9.34,5.55-12.62,9.92H114.63z" style="fill-rule: evenodd; clip-rule: evenodd; fill: rgb(205, 225, 173);"/>
<path id="Group_19_" class="st17" d="M96.75,235.02c4.09-15.2,12.64-26.46,25.48-33.74c23.39-13.29,58.52,3.63,58.52,3.63&#10;&#9;c-18.87-12.07-39.94-14.65-57.81-7.11c-15.31,6.48-26.35,19.87-30.97,37.22H96.75z" style="fill-rule: evenodd; clip-rule: evenodd; fill: rgb(45, 146, 72);"/>
<path id="Group_18_" class="st21" d="M87.75,235.02c0.41-3.77,1.76-9.59,6.13-16.7c2.4-3.82,5.02-6.89,8.17-9.8&#10;&#9;c3.21-2.86,6.94-5.68,12.48-7.93c-6.7,1.9-10.83,4.54-14.28,7.08c-3.4,2.65-6.1,5.39-8.92,9.31c-3.33,4.71-5.28,10.03-5.94,14.12&#10;&#9;c-0.26,1.55-0.35,2.84-0.38,3.91H87.75z" style="fill: rgb(23, 85, 41); stroke: rgb(85, 132, 47); stroke-width: 0.0264; stroke-miterlimit: 10;"/>
<g id="Group_17_">
	<path class="st17" d="M78.87,235.02c8.37-30.1,42.86-45.4,42.86-45.4c-21.82,6.17-38.43,22.45-45.56,44.64&#10;&#9;&#9;c-0.08,0.25-0.14,0.51-0.22,0.77H78.87z" style="fill-rule: evenodd; clip-rule: evenodd; fill: rgb(45, 146, 72);"/>
</g>
<path id="Group_15_" class="st20" d="M69.56,235.02c4.29-9.71,11.08-17.19,20.3-22.41c21.31-12.11,53.3,3.31,53.3,3.31&#10;&#9;c-17.18-10.99-36.38-13.34-52.66-6.48c-11.39,4.82-20.17,13.84-25.31,25.58H69.56z" style="fill-rule: evenodd; clip-rule: evenodd; fill: rgb(205, 225, 173);"/>
<path id="Group_13_" class="st22" d="M62.56,221.28c-1.35,5.99-3.33,10.46-5.27,13.74h3.92c1.94-3.47,3.63-7.92,4.4-12.75&#10;&#9;c0.79-5.27,0.76-9.53,0.11-14.27c-0.77-4.7-2.01-10.02-5.86-16.81c2.66,6.14,3.45,11.28,3.78,16.04&#10;&#9;C63.89,211.96,63.61,216.42,62.56,221.28z" style="fill: rgb(23, 85, 41); stroke: rgb(85, 132, 47); stroke-width: 0.0292; stroke-miterlimit: 10;"/>
<path id="Group_11_" class="st23" d="M52.04,235.02c0.52-4.9,2.25-12.5,7.98-21.8c3.11-4.97,6.53-8.95,10.61-12.73&#10;&#9;c4.17-3.72,9.01-7.38,16.22-10.3c-8.71,2.47-14.08,5.9-18.55,9.2c-4.42,3.44-7.93,7-11.59,12.09c-4.33,6.13-6.86,13.04-7.71,18.35&#10;&#9;c-0.35,2.06-0.46,3.77-0.5,5.19H52.04z" style="fill: rgb(23, 85, 41); stroke: rgb(85, 132, 47); stroke-width: 0.0343; stroke-miterlimit: 10;"/>
<path id="Group_10_" class="st24" d="M49.34,235.02c0.53-5.06,1.96-14.01,7.71-25.61c2.8-5.46,5.81-9.93,9.56-14.22&#10;&#9;c3.77-4.25,8.23-8.5,14.92-12.26c-8.13,3.38-13.1,7.38-17.18,11.22c-4.03,3.94-7.19,7.95-10.44,13.55&#10;&#9;c-3.86,6.75-6.1,14.13-6.99,19.74c-0.55,3.36-0.7,5.98-0.74,7.58H49.34z" style="fill: rgb(23, 85, 41); stroke: rgb(85, 132, 47); stroke-width: 0.0258; stroke-miterlimit: 10;"/>
<path id="Group_9_" class="st8" d="M43.54,223.27c0.55,3.17,0.99,5.39,1.54,7.56c0,0,0,0.01,0,0.01c0,0.01,0,0.01,0.01,0.02&#10;&#9;c0.03,0.1,0.05,0.2,0.08,0.3c0.01,0.04,0.01,0.08,0.02,0.12c0-0.03-0.01-0.06-0.01-0.09c0.32,1.22,0.68,2.46,1.11,3.84h0.38&#10;&#9;c-0.04-1.21-0.07-2.39-0.06-3.51c0.11-2.06,0.42-3.9,0.75-6.24c0.82-4.74,1.12-6.01,2.15-9.66c3.25-11.49,3.54-19.08,3.28-30.15&#10;&#9;c-0.13-5.63,0.18-10.72,1.73-16.28c0.58-2.1,1.53-4.38,2.77-6.43c0-0.01,0.01-0.01,0.01-0.02c0.42-0.57,1.41-2.35-0.16-0.9&#10;&#9;c-0.84,0.75-1.64,1.59-2.41,2.47c-0.98,1.14-1.92,2.35-2.79,3.7c-0.1,0.16-0.2,0.32-0.31,0.48c-6.49,9.03-10.26,21.61-9.19,42.69&#10;&#9;C42.66,215.67,42.86,219.31,43.54,223.27z" style="fill: rgb(45, 146, 72);"/>
<path id="Group_8_" class="st21" d="M23.1,235.02c0.41-3.77,1.76-9.59,6.13-16.7c2.4-3.82,5.02-6.89,8.17-9.8&#10;&#9;c3.21-2.86,6.94-5.68,12.48-7.93c-6.7,1.9-10.83,4.54-14.28,7.08c-3.4,2.65-6.1,5.39-8.92,9.31c-3.33,4.71-5.28,10.03-5.94,14.12&#10;&#9;c-0.26,1.55-0.35,2.84-0.38,3.91H23.1z" style="fill: rgb(23, 85, 41); stroke: rgb(85, 132, 47); stroke-width: 0.0264; stroke-miterlimit: 10;"/>
<g id="Group_14_">
	<g id="clouds">
		<path class="st7" d="M130.43,62.38c-1.98-5.38-7.14-9.21-13.2-9.21c-1.17,0-2.31,0.14-3.4,0.42c-0.99-4.93-5.35-8.64-10.57-8.64&#10;&#9;&#9;&#9;c-4.82,0-8.9,3.16-10.28,7.53l0,0c-1.94-2.75-5.13-4.55-8.75-4.55c-1.52,0-2.96,0.31-4.27,0.89c0,0,0,0,0,0&#10;&#9;&#9;&#9;c-0.81-1.24-1.86-2.32-3.09-3.16c0.03-0.27,0.04-0.54,0.04-0.82c0-4.61-3.73-8.34-8.34-8.34c-3.42,0-6.35,2.06-7.64,5&#10;&#9;&#9;&#9;c-2.03-3.01-5.48-5-9.39-5c-6.25,0-11.31,5.06-11.31,11.31c0,0.06,0,0.11,0,0.17c-0.27-0.02-0.55-0.04-0.82-0.04&#10;&#9;&#9;&#9;c-5.08,0-9.19,4.11-9.19,9.19c0,1.29,0.27,2.52,0.75,3.63c-1.33,0.19-2.53,0.78-3.48,1.64c-1.32,1.2-2.15,2.93-2.15,4.85h2.62&#10;&#9;&#9;&#9;h10.5h39.44h12.62h12.63h18h10.13C131.29,65.52,130.98,63.89,130.43,62.38z" style="fill: rgb(255, 255, 255);"/>
		<g>
			<path class="st25" d="M145.26,51.22c0-1.19-0.37-2.31-1-3.25c-1.17-1.75-3.27-2.92-5.66-2.92c-0.41,0-0.8,0.03-1.18,0.1v0&#10;&#9;&#9;&#9;&#9;c0.02-0.2,0.03-0.41,0.03-0.62c0-3.7-3.24-6.69-7.23-6.69c-0.32,0-0.64,0.02-0.95,0.06c-1.64-3.04-5.06-5.12-8.98-5.07&#10;&#9;&#9;&#9;&#9;c-4.16,0.05-7.68,2.47-9.1,5.85c-1.48,0.56-2.7,1.56-3.48,2.83l0,0c-0.3-0.04-0.6-0.05-0.91-0.05c-3.61,0-6.59,2.52-6.98,5.77&#10;&#9;&#9;&#9;&#9;c-0.41-0.12-0.85-0.18-1.3-0.18c-1.06,0-2.04,0.34-2.82,0.92C94.66,48.72,94,49.9,94,51.22H145.26z" style="opacity: 0.7; fill: rgb(255, 255, 255);"/>
		</g>
	</g>
</g>
<g id="Group_1_">
	<g id="clouds_1_">
		<path class="st7" d="M251.71,67.23h7.42h13.19h9.25h9.24h28.9h7.69h1.92c0-1.41-0.61-2.68-1.57-3.55&#10;&#9;&#9;&#9;c-0.69-0.63-1.57-1.06-2.55-1.2c0.35-0.82,0.55-1.72,0.55-2.66c0-3.72-3.01-6.73-6.73-6.73c-0.2,0-0.4,0.01-0.6,0.03&#10;&#9;&#9;&#9;c0-0.04,0-0.08,0-0.12c0-4.58-3.71-8.29-8.29-8.29c-2.86,0-5.39,1.45-6.88,3.66c-0.94-2.15-3.1-3.66-5.6-3.66&#10;&#9;&#9;&#9;c-3.38,0-6.11,2.74-6.11,6.11c0,0.2,0.01,0.4,0.03,0.6c-0.9,0.62-1.67,1.4-2.26,2.32c0,0,0,0,0,0c-0.96-0.42-2.01-0.65-3.13-0.65&#10;&#9;&#9;&#9;c-2.65,0-4.99,1.32-6.41,3.34l0,0c-1.01-3.2-4-5.51-7.53-5.51c-3.83,0-7.02,2.72-7.74,6.33c-0.8-0.2-1.63-0.3-2.49-0.3&#10;&#9;&#9;&#9;c-4.44,0-8.23,2.81-9.67,6.75C251.93,64.78,251.71,65.98,251.71,67.23z" style="fill: rgb(255, 255, 255);"/>
	</g>
</g>
<g id="Group">
	<g>
		<g>
			<g>
				<g>
					<g>
						<path class="st12" d="M255.72,103.03c-2.68-2.47-5.44-5.01-8.17-7.56c-2.73,2.55-5.49,5.09-8.17,7.56&#10;&#9;&#9;&#9;&#9;&#9;&#9;&#9;c-1.04,0.96-2.08,1.91-3.12,2.87l-0.33,0.33l11.62,0.03l11.62-0.03l-0.33-0.33C257.8,104.95,256.76,103.99,255.72,103.03z" style="fill: rgb(255, 228, 123);"/>
						<g>
							<path d="M 259.0199890136719 106.2300033569336 L 247.5500030517578 106.26000213623047 L 236.07000732421875 106.2300033569336 L 236.07000732421875 106.2300033569336 L 236.0800018310547 120.6500015258789 L 247.5500030517578 120.66999816894531 L 259.010009765625 120.6500015258789 L 259.0199890136719 106.2300033569336 Z" class="st7" style="fill: rgb(255, 255, 255);"/>
						</g>
						<g>
							<path d="M 281.8800048828125 106.2300033569336 L 270.4100036621094 106.26000213623047 L 258.94000244140625 106.2300033569336 L 258.92999267578125 106.2300033569336 L 258.94000244140625 120.6500015258789 L 270.4100036621094 120.66999816894531 L 281.8699951171875 120.6500015258789 L 281.8800048828125 106.2300033569336 Z" class="st26" style="fill: rgb(216, 227, 220);"/>
						</g>
					</g>
					<path class="st13" d="M282.78,104.66l-13.57-12.53l-0.03-0.02c-0.27-0.25-0.65-0.39-1.03-0.42h-20.61&#10;&#9;&#9;&#9;&#9;&#9;&#9;c-0.39,0.02-0.76,0.17-1.03,0.42l-0.03,0.02l-13.57,12.53c-0.47,0.44-0.62,1.06-0.37,1.63c0.26,0.59,0.88,1,1.54,1.01&#10;&#9;&#9;&#9;&#9;&#9;&#9;c0.43,0.01,0.84-0.15,1.16-0.45l0.02-0.02c0.02-0.02,0.03-0.03,0.04-0.05c1.36-1.25,2.71-2.5,4.07-3.75&#10;&#9;&#9;&#9;&#9;&#9;&#9;c2.68-2.47,5.44-5.01,8.17-7.56c2.73,2.55,5.49,5.09,8.17,7.56c1.36,1.25,2.71,2.5,4.07,3.75c0.01,0.01,0.03,0.03,0.04,0.05&#10;&#9;&#9;&#9;&#9;&#9;&#9;l0.02,0.02c0.32,0.3,0.73,0.45,1.16,0.45h20.61c0.66-0.01,1.28-0.42,1.54-1.01C283.4,105.72,283.26,105.1,282.78,104.66z" style="fill: rgb(252, 195, 90);"/>
					<g>
						<path class="st9" d="M249.67,112.61c0-1.56-1.28-2.82-2.85-2.82c-1.58,0-2.85,1.26-2.85,2.82v8.01h5.7V112.61z" style="fill: rgb(23, 85, 41);"/>
						<path class="st13" d="M249.91,120.67h-6.19v-8.07c0-1.69,1.39-3.07,3.09-3.07c1.71,0,3.1,1.38,3.1,3.07V120.67z&#10;&#9;&#9;&#9;&#9;&#9;&#9;&#9; M244.21,120.55h5.21v-7.95c0-1.42-1.17-2.58-2.6-2.58c-1.44,0-2.6,1.16-2.6,2.58V120.55z" style="fill: rgb(252, 195, 90);"/>
					</g>
				</g>
			</g>
		</g>
	</g>
	<g>
		<g>
			<path class="st7" d="M265.84,111.92c-0.01-1.1-0.91-1.98-2-1.97l-0.55,0.01c-1.1,0.01-1.98,0.91-1.97,2v3.99h4.52V111.92z" style="fill: rgb(255, 255, 255);"/>
		</g>
	</g>
	<g>
		<g>
			<path class="st7" d="M272.84,111.92c-0.01-1.1-0.91-1.98-2-1.97l-0.55,0.01c-1.1,0.01-1.98,0.91-1.97,2v3.99h4.52V111.92z" style="fill: rgb(255, 255, 255);"/>
		</g>
	</g>
	<g>
		<g>
			<path class="st27" d="M279.65,111.92c-0.01-1.1-0.91-1.98-2-1.97l-0.55,0.01c-1.1,0.01-1.98,0.91-1.97,2v3.99h4.52V111.92z" style="fill: rgb(250, 226, 195);"/>
		</g>
	</g>
</g>
<g id="Group_2_">
	<path class="st26" d="M295.09,102.44c-2.8-2.58-5.69-5.24-8.54-7.9c-2.85,2.66-5.74,5.32-8.54,7.9c-1.09,1-2.17,2-3.26,3&#10;&#9;&#9;l-0.35,0.34l12.15,0.03l12.15-0.03l-0.35-0.34C297.26,104.44,296.18,103.43,295.09,102.44z" style="fill: rgb(216, 227, 220);"/>
	<g>
		<path d="M 298.5400085449219 105.77999877929688 L 286.54998779296875 105.80999755859375 L 274.55999755859375 105.77999877929688 L 274.55999755859375 105.77999877929688 L 274.57000732421875 120.8499984741211 L 286.54998779296875 120.87000274658203 L 298.5299987792969 120.8499984741211 L 298.5400085449219 105.77999877929688 Z" class="st7" style="fill: rgb(255, 255, 255);"/>
	</g>
	<path class="st28" d="M301.84,104.13l-14.18-13.1l-0.03-0.02c-0.29-0.26-0.67-0.41-1.08-0.44c-0.41,0.03-0.79,0.18-1.08,0.44&#10;&#9;&#9;l-0.03,0.02l-14.18,13.1c-0.5,0.46-0.64,1.11-0.39,1.7c0.27,0.62,0.92,1.04,1.61,1.05c0.45,0.01,0.87-0.16,1.21-0.47l0.02-0.02&#10;&#9;&#9;c0.02-0.02,0.03-0.03,0.04-0.05c1.42-1.31,2.83-2.61,4.25-3.92c2.8-2.58,5.69-5.24,8.54-7.9c2.85,2.66,5.74,5.32,8.54,7.9&#10;&#9;&#9;c1.42,1.3,2.83,2.61,4.25,3.92c0.01,0.02,0.03,0.03,0.04,0.05l0.02,0.02c0.33,0.31,0.76,0.47,1.21,0.47&#10;&#9;&#9;c0.69-0.01,1.34-0.44,1.61-1.05C302.48,105.24,302.34,104.59,301.84,104.13z" style="fill: rgb(80, 141, 143);"/>
	<g>
		<g>
			<path d="M 276.440002 109.419998 H 281.970003 V 114.949998 H 276.440002 V 109.419998 Z" class="st7" style="fill: rgb(255, 255, 255);"/>
		</g>
		<g>
			<path class="st13" d="M282.22,115.21h-6.04v-6.04h6.04V115.21z M276.7,114.69h5.01v-5.01h-5.01V114.69z" style="fill: rgb(252, 195, 90);"/>
		</g>
	</g>
	<g>
		<g>
			<path d="M 283.790009 109.419998 H 289.320009 V 114.949998 H 283.790009 V 109.419998 Z" class="st12" style="fill: rgb(255, 228, 123);"/>
		</g>
		<g>
			<path class="st13" d="M289.57,115.21h-6.04v-6.04h6.04V115.21z M284.04,114.69h5.01v-5.01h-5.01V114.69z" style="fill: rgb(252, 195, 90);"/>
		</g>
	</g>
	<g>
		<g>
			<path d="M 291.130005 109.419998 H 296.660005 V 114.949998 H 291.130005 V 109.419998 Z" class="st7" style="fill: rgb(255, 255, 255);"/>
		</g>
		<g>
			<path class="st13" d="M296.92,115.21h-6.04v-6.04h6.04V115.21z M291.39,114.69h5.01v-5.01h-5.01V114.69z" style="fill: rgb(252, 195, 90);"/>
		</g>
	</g>
	<g>
		<path d="M 278.950012 109.68 H 279.460012 V 114.95 H 278.950012 V 109.68 Z" class="st13" style="fill: rgb(252, 195, 90);"/>
	</g>
	<g>
		<path d="M 286.290009 109.68 H 286.800009 V 114.95 H 286.290009 V 109.68 Z" class="st13" style="fill: rgb(252, 195, 90);"/>
	</g>
	<g>
		<path d="M 293.640015 109.68 H 294.150015 V 114.95 H 293.640015 V 109.68 Z" class="st13" style="fill: rgb(252, 195, 90);"/>
	</g>
</g>
<path id="Group_16_" class="st8" d="M315.15,78.93c-3.8,7.13-5.9,18.26-5.9,26.36c0,7.02,2.12,15.59,2.12,15.59h3.78h3.78&#10;&#9;c0,0,2.12-8.57,2.12-15.59C321.05,97.19,318.96,86.05,315.15,78.93z" style="fill: rgb(45, 146, 72);"/>
<g id="Group_3_">
	<g>
		<path class="st8" d="M280.02,121.16c-0.03,0-0.06,0-0.08,0c-0.73-2.02-2.45-3.45-4.48-3.48c-2.71-0.04-4.94,2.45-4.97,5.57&#10;&#9;&#9;&#9;l7.57,0.11l2.26,0.03l1.63,0.02C281.96,122.19,281.1,121.18,280.02,121.16z" style="fill: rgb(45, 146, 72);"/>
	</g>
	<g>
		<path class="st9" d="M274.17,120.91c-0.23,0-0.45,0.04-0.66,0.12c-0.53-0.7-1.31-1.14-2.19-1.16c-1.64-0.02-2.98,1.48-3,3.35&#10;&#9;&#9;&#9;l3.73,0.05l2.19,0.03l1.99,0.03C276.25,122.01,275.33,120.93,274.17,120.91z" style="fill: rgb(23, 85, 41);"/>
	</g>
</g>
<g id="Group_4_">
	<g>
		<path class="st9" d="M178.32,128.33c-0.04,0-0.08,0-0.12,0c-1.04-2.88-3.5-4.92-6.39-4.96c-3.87-0.05-7.05,3.5-7.09,7.94&#10;&#9;&#9;&#9;l10.8,0.15l3.22,0.04l2.32,0.03C181.07,129.79,179.84,128.35,178.32,128.33z" style="fill: rgb(23, 85, 41);"/>
	</g>
	<g>
		<path class="st8" d="M169.97,127.97c-0.33,0-0.65,0.06-0.95,0.16c-0.76-1-1.88-1.63-3.12-1.65c-2.33-0.03-4.25,2.11-4.28,4.79&#10;&#9;&#9;&#9;l5.33,0.07l3.12,0.04l2.84,0.04C172.93,129.55,171.61,128,169.97,127.97z" style="fill: rgb(45, 146, 72);"/>
	</g>
</g>
<path id="Group_5_" class="st9" d="M328.03,128.33c-0.04,0-0.08,0-0.12,0c-1.04-2.88-3.5-4.92-6.39-4.96&#10;&#9;c-2.3-0.03-4.34,1.21-5.64,3.15c-0.09-0.01-0.18-0.04-0.27-0.04c-2.33-0.03-4.25,2.11-4.28,4.79l3.09,0.04c0,0,0,0,0,0l10.8,0.15&#10;&#9;l3.22,0.04l2.32,0.03C330.78,129.79,329.55,128.35,328.03,128.33z" style="fill: rgb(23, 85, 41);"/>
<path id="Group_6_" class="st8" d="M204.69,132.72c15.04-0.07,31.71,0.27,49.16,0.9c0.04-0.26,0.05-0.53,0.03-0.8&#10;&#9;c-0.12-2.05-1.8-3.64-3.81-3.7c-0.37-1.26-1.58-2.15-2.95-2.07c-0.35,0.02-0.69,0.11-0.99,0.24c-0.12-1.08-1.06-1.88-2.15-1.81&#10;&#9;c-0.04,0-0.07,0.01-0.1,0.01c-0.22-2.08-2.04-3.64-4.15-3.51c-1.6,0.1-2.92,1.13-3.45,2.54c-0.06,0-0.13,0-0.19,0&#10;&#9;c-1.36,0.08-2.4,1.25-2.32,2.61c0.01,0.2,0.05,0.4,0.11,0.59c-0.13,0.04-0.27,0.1-0.4,0.15c-0.19-0.99-1.09-1.71-2.12-1.64&#10;&#9;c-0.03,0-0.07,0-0.1,0.01c-0.23-2.08-2.04-3.64-4.15-3.51c-1.6,0.09-2.92,1.13-3.45,2.54c-0.06,0-0.13,0-0.19,0&#10;&#9;c-0.63,0.04-1.19,0.31-1.6,0.73c-0.17-1.01-1.08-1.75-2.13-1.69c-0.04,0-0.07,0-0.1,0.01c-0.22-2.08-2.04-3.64-4.15-3.51&#10;&#9;c-1.6,0.1-2.91,1.13-3.45,2.54c-0.06,0-0.13,0-0.19,0c-1.36,0.08-2.4,1.25-2.32,2.61c0.01,0.21,0.05,0.4,0.11,0.59&#10;&#9;c-1.04,0.34-1.89,1.08-2.35,2.04c-0.18-0.04-0.36-0.05-0.55-0.04c-1.12,0.07-1.98,1.04-1.91,2.16c0.01,0.23,0.06,0.44,0.15,0.64&#10;&#9;C204.59,132.02,204.69,132.72,204.69,132.72z" style="fill: rgb(45, 146, 72);"/>
<g id="Group_7_">
	<radialGradient id="SVGID_1_" cx="219.1491" cy="50.5359" r="20.0462" gradientUnits="userSpaceOnUse">
		<stop offset="0" style="stop-color:#FCC35A"/>
		<stop offset="0.528" style="stop-color:#FCC45B"/>
		<stop offset="0.7181" style="stop-color:#FDCA61"/>
		<stop offset="0.8537" style="stop-color:#FFD269"/>
		<stop offset="0.9626" style="stop-color:#FFDE75"/>
		<stop offset="1" style="stop-color:#FFE47B"/>
	</radialGradient>
	<path class="st29" d="M239.2,50.54c0,11.07-8.97,20.05-20.05,20.05c-11.07,0-20.05-8.97-20.05-20.05&#10;&#9;&#9;c0-11.07,8.97-20.05,20.05-20.05C230.22,30.49,239.2,39.46,239.2,50.54z" style="fill: url('#SVGID_1_');"/>
	<path class="st13" d="M234.34,50.54c0,8.39-6.8,15.19-15.19,15.19c-8.39,0-15.19-6.8-15.19-15.19c0-8.39,6.8-15.19,15.19-15.19&#10;&#9;&#9;C227.54,35.35,234.34,42.15,234.34,50.54z" style="fill: rgb(252, 195, 90);"/>
</g>
</svg>