<?xml version="1.0" encoding="utf-8"?>
<svg id="master-artboard" viewBox="0 0 335.99 235.19" version="1.1" xmlns="http://www.w3.org/2000/svg" x="0px" y="0px" style="enable-background:new 0 0 335.99 235.19;" width="335.989990234375px" height="235.19000244140625px">

<linearGradient id="Group_25_" gradientUnits="userSpaceOnUse" x1="167.9667" y1="11.1312" x2="167.9667" y2="102.9837">
	<stop offset="0" style="stop-color:#9CCCEF"/>
	<stop offset="1" style="stop-color:#EFF8FB"/>
</linearGradient>
<path d="M 0 -0.01 H 335.929993 V 235.189997 H 0 V -0.01 Z" id="Group_24_" class="st0" style="fill: url('#Group_25_');"/>
<radialGradient id="Group_26_" cx="58.2871" cy="53.2842" r="37.6153" gradientUnits="userSpaceOnUse">
	<stop offset="0" style="stop-color:#FCC35A"/>
	<stop offset="1" style="stop-color:#FFE47B"/>
</radialGradient>
<path id="Group_23_" class="st1" d="M95.9,53.28c0-20.77-16.84-37.61-37.62-37.61c-20.77,0-37.62,16.84-37.62,37.61&#10;&#9;c0,20.77,16.84,37.62,37.62,37.62C79.06,90.9,95.9,74.06,95.9,53.28z" style="fill: url('#Group_26_');"/>
<path id="Group_22_" class="st2" d="M335.96,81.83c-0.25-0.01-0.51-0.04-0.77-0.04c-3.28,0-6.3,1.16-8.66,3.08&#10;&#9;c-2.65-4.65-7.66-7.79-13.4-7.79c-8.51,0-15.4,6.88-15.4,15.37c0,2.51,0.6,4.87,1.67,6.95c-1.13-0.43-2.35-0.67-3.63-0.67&#10;&#9;c-4.49,0-8.3,2.9-9.66,6.92c-2.05-0.99-4.35-1.55-6.79-1.55c-8.61,0-15.58,6.97-15.58,15.55c0,2.85,0.77,5.51,2.11,7.81&#10;&#9;c-0.67-0.17-1.37-0.27-2.09-0.27c-2.8,0-5.28,1.34-6.85,3.41c-2.25-2.45-5.48-4-9.08-4c-6.8,0-12.3,5.5-12.3,12.28&#10;&#9;c0,3.41,1.4,6.49,3.64,8.71h96.79V81.83z" style="opacity: 0.5; fill: rgb(250, 253, 254);"/>
<path id="Group_21_" class="st3" d="M82.12,138.33c0.27-0.74,0.43-1.54,0.43-2.37c0-1.97-0.83-3.73-2.15-4.98&#10;&#9;c2.29-2.22,3.72-5.33,3.72-8.78c0-6.77-5.49-12.25-12.27-12.25c-1.74,0-3.4,0.36-4.89,1.02c-0.46-2.48-2.62-4.35-5.23-4.35&#10;&#9;c-1.93,0-3.61,1.02-4.54,2.55c-1.48-2.36-4-4-6.91-4.3c0.12-0.53,0.18-1.08,0.18-1.65c0-4.3-3.5-7.79-7.81-7.79&#10;&#9;c-2.24,0-4.26,0.95-5.68,2.46c0.37-1.07,0.57-2.22,0.57-3.42c0-5.78-4.7-10.47-10.49-10.47c-2.45,0-4.71,0.84-6.5,2.25&#10;&#9;c-1.84-4.09-5.96-6.94-10.74-6.94c-4.12,0-7.73,2.11-9.83,5.3v60.92h87.08C86.75,142.39,84.83,139.7,82.12,138.33z" style="fill: rgb(255, 255, 255);"/>
<g id="Group_20_">
	<path class="st4" d="M184.81,103.17c-0.45,0-0.88,0.07-1.29,0.19c-1.4-2.12-3.8-3.52-6.53-3.52c-0.07,0-0.14,0.01-0.21,0.01&#10;&#9;&#9;c-0.07,0-0.14-0.01-0.21-0.01c-2.73,0-5.13,1.4-6.53,3.52c-0.41-0.12-0.84-0.19-1.29-0.19c-2.47,0-4.48,2.01-4.48,4.48h4.48h0.42&#10;&#9;&#9;h4.07h7.08h4.07h0.42h4.48C189.29,105.18,187.28,103.17,184.81,103.17z" style="fill: rgb(47, 116, 48);"/>
	<path class="st4" d="M318.41,135.91c-0.34-0.12-0.69-0.18-1.04-0.19c-0.53-1.99-2.01-3.69-4.1-4.4c-0.05-0.02-0.11-0.03-0.16-0.05&#10;&#9;&#9;c-0.05-0.02-0.1-0.04-0.16-0.06c-2.1-0.71-4.3-0.25-5.93,1.02c-0.28-0.2-0.6-0.36-0.94-0.48c-1.9-0.64-3.96,0.38-4.6,2.28&#10;&#9;&#9;l3.44,1.16l0.32,0.11l3.12,1.05l5.44,1.83l3.12,1.05l0.32,0.11l3.44,1.16C321.33,138.61,320.31,136.55,318.41,135.91z" style="fill: rgb(47, 116, 48);"/>
	<path class="st5" d="M234.81,109.86c-0.41-0.08-0.81-0.09-1.21-0.05c-0.91-2.19-2.85-3.89-5.35-4.37c-1.77-0.34-3.51,0-4.96,0.83&#10;&#9;&#9;c-0.67-1.03-1.75-1.79-3.06-2.05c-2.04-0.39-4.01,0.58-4.97,2.27c-0.08-0.02-0.16-0.06-0.24-0.07c-1.38-0.26-2.72,0.64-2.98,2.02&#10;&#9;&#9;c-0.09,0.46-0.04,0.91,0.11,1.32l2.8,0.54l1.51,0.29l3.29,0.63l3.16,0.6l7.03,1.35l4.1,0.78l4.09,0.78&#10;&#9;&#9;C238.55,112.48,237.07,110.29,234.81,109.86z" style="fill: rgb(255, 228, 123);"/>
	<path class="st6" d="M212.83,106.96c-0.22-0.03-0.44-0.01-0.66,0.04c-0.54-1.37-1.64-2.36-3-2.52c-0.97-0.12-1.9,0.2-2.67,0.82&#10;&#9;&#9;c-0.39-0.63-0.99-1.06-1.71-1.15c-0.76-0.09-1.48,0.23-2.02,0.8c-0.45-0.64-1.15-1.09-1.98-1.19c-1.58-0.19-3.03,0.97-3.22,2.59&#10;&#9;&#9;c-0.07,0.54,0.02,1.06,0.22,1.52l2.75,0.33l1.53,0.19l0.66,0.08l0.17,0.02l1.8,0.22l1.73,0.21l3.84,0.47l2.24,0.27l2.24,0.27&#10;&#9;&#9;C214.92,108.44,214.06,107.11,212.83,106.96z" style="fill: rgb(23, 85, 41);"/>
	<path class="st6" d="M286.1,124.52c-0.22-0.06-0.44-0.08-0.65-0.06c-0.33-1.43-1.26-2.58-2.58-2.95c-0.94-0.26-1.91-0.09-2.76,0.4&#10;&#9;&#9;c-0.29-0.68-0.82-1.2-1.51-1.4c-0.74-0.21-1.5,0-2.12,0.49c-0.35-0.7-0.97-1.25-1.77-1.48c-1.53-0.43-3.14,0.49-3.58,2.07&#10;&#9;&#9;c-0.15,0.52-0.14,1.05-0.02,1.54l2.66,0.75l1.49,0.42l0.64,0.18l0.16,0.05l1.75,0.49l1.67,0.47l3.73,1.05l2.17,0.61l2.17,0.61&#10;&#9;&#9;C287.94,126.31,287.3,124.86,286.1,124.52z" style="fill: rgb(23, 85, 41);"/>
	<linearGradient id="SVGID_1_" gradientUnits="userSpaceOnUse" x1="167.9667" y1="106.4935" x2="167.9667" y2="177.4521">
		<stop offset="0" style="stop-color:#FFE47B"/>
		<stop offset="0.2317" style="stop-color:#FBE483"/>
		<stop offset="0.609" style="stop-color:#E8E396"/>
		<stop offset="1" style="stop-color:#CDE1AD"/>
	</linearGradient>
	<path class="st7" d="M335.93,147.06c0,0-77.74-39.77-166.61-40.75v-0.02c-0.45,0-0.9,0.01-1.35,0.01c-0.45,0-0.9-0.01-1.35-0.01&#10;&#9;&#9;v0.02C77.74,107.29,0,147.06,0,147.06v27.9l166.61,0.36v0.01l1.35,0l1.35,0v-0.01l166.61-0.36V147.06z" style="fill: url('#SVGID_1_');"/>
</g>
<g id="Group_19_">
	<path class="st8" d="M140.19,135.97c-0.68,0.03-1.33,0.16-1.94,0.38c-2.28-3.13-6.02-5.1-10.18-4.9c-2.94,0.14-5.58,1.34-7.57,3.21&#10;&#9;&#9;c-1.47-1.38-3.48-2.19-5.66-2.08c-3.39,0.16-6.16,2.46-7.05,5.52c-0.14-0.01-0.28-0.03-0.42-0.02c-2.3,0.11-4.08,2.06-3.97,4.36&#10;&#9;&#9;c0.04,0.76,0.29,1.46,0.67,2.06l4.67-0.22l2.51-0.12l5.48-0.26l5.26-0.25l11.7-0.55l6.82-0.32l6.81-0.32&#10;&#9;&#9;C147.15,138.7,143.95,135.79,140.19,135.97z" style="fill: rgb(45, 146, 72);"/>
	<path class="st6" d="M107.79,139.35c-0.41,0.02-0.81,0.12-1.18,0.28c-1.43-2.31-3.74-3.75-6.27-3.61c-1.79,0.1-3.39,0.98-4.59,2.35&#10;&#9;&#9;c-0.91-1.01-2.15-1.61-3.48-1.54c-1.41,0.08-2.62,0.9-3.41,2.11c-1.03-1.02-2.44-1.61-3.98-1.53c-2.94,0.16-5.18,2.74-5.02,5.75&#10;&#9;&#9;c0.05,1,0.39,1.91,0.89,2.69l5.09-0.28l2.85-0.16l1.22-0.07l0.31-0.02l3.34-0.18l3.2-0.18l7.14-0.39l4.16-0.23l4.16-0.23&#10;&#9;&#9;C112.07,141.37,110.09,139.22,107.79,139.35z" style="fill: rgb(23, 85, 41);"/>
	<path class="st8" d="M147.46,136.89c0.42,0,0.82,0.09,1.19,0.23c1.33-2.36,3.57-3.91,6.11-3.88c1.8,0.02,3.43,0.83,4.68,2.15&#10;&#9;&#9;c0.87-1.05,2.08-1.7,3.41-1.68c1.41,0.02,2.65,0.78,3.5,1.96c0.98-1.06,2.37-1.71,3.91-1.7c2.94,0.03,5.3,2.51,5.26,5.53&#10;&#9;&#9;c-0.01,1-0.3,1.93-0.77,2.73l-5.1-0.06l-2.85-0.03l-1.22-0.01l-0.31,0l-3.35-0.04l-3.21-0.04l-7.15-0.08l-4.16-0.05l-4.16-0.05&#10;&#9;&#9;C143.27,139.1,145.16,136.87,147.46,136.89z" style="fill: rgb(45, 146, 72);"/>
	<linearGradient id="SVGID_2_" gradientUnits="userSpaceOnUse" x1="167.9667" y1="141.085" x2="167.9667" y2="238.0998">
		<stop offset="0" style="stop-color:#AECC4E"/>
		<stop offset="1" style="stop-color:#175529"/>
	</linearGradient>
	<path class="st9" d="M335.93,161.7c-45.54-12.98-106.03-20.89-172.42-20.89c-62.15,0-119.13,6.93-163.51,18.47v75.92h335.93V161.7z&#10;&#9;&#9;" style="fill: url('#SVGID_2_');"/>
</g>
<linearGradient id="Group_27_" gradientUnits="userSpaceOnUse" x1="233.0897" y1="80.4838" x2="233.0897" y2="26.7734">
	<stop offset="0" style="stop-color:#FFFFFF;stop-opacity:0.1"/>
	<stop offset="1" style="stop-color:#FFFFFF"/>
</linearGradient>
<path id="Group_18_" class="st10" d="M289.45,60.91c1.62-2.17,2.57-4.87,2.57-7.78c0-7.24-5.89-13.11-13.14-13.11&#10;&#9;c-4.96,0-9.29,2.74-11.51,6.78c-0.96-3.5-4.14-6.08-7.92-6.13c0.21-0.86,0.33-1.76,0.33-2.69c0-6.19-5.03-11.21-11.25-11.21&#10;&#9;c-5.44,0-9.98,3.87-11,9c-1.44-1.19-3.3-1.91-5.34-1.91c-2.66,0-5.03,1.25-6.56,3.2c-2.3-3.37-6.18-5.59-10.57-5.59&#10;&#9;c-7.04,0-12.76,5.7-12.76,12.74c0,2.42,0.68,4.69,1.86,6.63c-0.52-0.12-1.04-0.19-1.59-0.19c-3.74,0-6.8,2.92-7.02,6.61&#10;&#9;c-1.79-2.7-4.89-4.48-8.38-4.48c-5.56,0-10.08,4.5-10.08,10.05c0,0.16,0.01,0.32,0.01,0.48c-4.41,0.36-7.89,4.07-7.89,8.57&#10;&#9;c0,4.76,3.86,8.6,8.62,8.6c1.87,0,3.62-0.6,5.02-1.61c0.8,0.43,1.68,0.9,2.63,1.45c25.14,0,73.34,0,101.1,0c0-0.08,0-0.16,0-0.23&#10;&#9;c0.2,0.01,0.4,0.02,0.61,0.02c5.38,0,9.75-4.36,9.75-9.74C296.96,65.79,293.75,61.92,289.45,60.91z" style="opacity: 0.8; fill: url('#Group_27_');"/>
<path id="Group_17_" class="st11" d="M76.44,67.95c-0.93-1.26-1.49-2.83-1.49-4.52c0-4.21,3.42-7.61,7.63-7.61&#10;&#9;c2.88,0,5.38,1.59,6.68,3.94c0.56-2.03,2.4-3.53,4.6-3.56c-0.12-0.5-0.19-1.02-0.19-1.56c0-3.59,2.92-6.51,6.52-6.51&#10;&#9;c3.16,0,5.8,2.25,6.4,5.22c0.84-0.69,1.91-1.11,3.09-1.11c1.55,0,2.92,0.73,3.81,1.86c1.33-1.96,3.58-3.25,6.13-3.25&#10;&#9;c4.09,0,7.41,3.31,7.41,7.39c0,1.41-0.39,2.72-1.08,3.85c0.3-0.07,0.6-0.11,0.92-0.11c2.17,0,3.95,1.7,4.07,3.83&#10;&#9;c1.05-1.56,2.83-2.59,4.86-2.59c3.23,0,5.85,2.61,5.85,5.83c0,0.1,0,0.19-0.01,0.28c2.57,0.21,4.58,2.36,4.58,4.97&#10;&#9;c0,2.76-2.24,5-5.01,5c-1.09,0-2.1-0.35-2.92-0.94c-0.47,0.25-0.98,0.53-1.52,0.84c-14.6,0-42.57,0-58.69,0c0-0.04,0-0.09,0-0.13&#10;&#9;c-0.12,0.01-0.24,0.01-0.35,0.01c-3.13,0-5.66-2.53-5.66-5.65C72.09,70.77,73.95,68.54,76.44,67.95z" style="opacity: 0.7; fill: rgb(255, 255, 255);"/>
<g id="Group_15_">
	<path class="st12" d="M274.9,72.83c0.61-2,1.79-3.68,3.37-4.79c2.95-2.05,6.08-1.68,9.04,0.27c-1.27-1.78-3.17-2.73-5.11-2.91&#10;&#9;&#9;c-2.79-0.27-5.83,0.95-7.44,3.74c-1.78-2.67-4.91-3.66-7.7-3.17c-1.92,0.32-3.74,1.43-4.85,3.28c2.78-2.15,5.9-2.79,9-0.92&#10;&#9;&#9;C272.87,69.3,274.18,70.88,274.9,72.83z" style="fill-rule: evenodd; clip-rule: evenodd; fill: rgb(255, 255, 255);"/>
	<path class="st12" d="M183.59,48.69c0.26-0.84,0.75-1.54,1.41-2.01c1.24-0.86,2.55-0.71,3.79,0.12c-0.53-0.75-1.33-1.15-2.14-1.22&#10;&#9;&#9;c-1.17-0.11-2.45,0.4-3.12,1.57c-0.75-1.12-2.06-1.54-3.23-1.33c-0.81,0.13-1.57,0.6-2.03,1.37c1.17-0.9,2.47-1.17,3.77-0.39&#10;&#9;&#9;C182.74,47.21,183.29,47.88,183.59,48.69z" style="fill-rule: evenodd; clip-rule: evenodd; fill: rgb(255, 255, 255);"/>
	<path class="st12" d="M47.48,58.9c-1.02-2.93-2.86-5.32-5.25-6.87c-4.49-2.91-9.12-2.16-13.36,0.92c1.74-2.7,4.49-4.22,7.36-4.61&#10;&#9;&#9;c4.13-0.56,8.69,1.08,11.23,5.11c2.51-4.04,7.06-5.69,11.21-5.15c2.88,0.4,5.63,1.89,7.39,4.59c-4.25-3.03-8.91-3.77-13.36-0.87&#10;&#9;&#9;C50.3,53.58,48.44,55.98,47.48,58.9z" style="fill-rule: evenodd; clip-rule: evenodd; fill: rgb(255, 255, 255);"/>
	<path class="st12" d="M231.18,57.56c-0.75-2.17-2.16-3.96-3.94-5.11c-3.34-2.15-6.8-1.57-9.97,0.71c1.29-2.02,3.33-3.17,5.5-3.46&#10;&#9;&#9;c3.07-0.42,6.5,0.78,8.38,3.78c1.86-3.03,5.28-4.27,8.35-3.89c2.16,0.27,4.21,1.39,5.54,3.4c-3.18-2.27-6.64-2.79-9.96-0.59&#10;&#9;&#9;C233.3,53.57,231.91,55.39,231.18,57.56z" style="fill-rule: evenodd; clip-rule: evenodd; fill: rgb(255, 255, 255);"/>
</g>
<path id="Group_14_" class="st4" d="M210.63,151.53c-0.47,0-0.93,0.07-1.36,0.2c-1.48-2.24-4.01-3.73-6.9-3.73&#10;&#9;c-4.56,0-8.26,3.7-8.26,8.26h11.78h4.74h4.74C215.37,153.65,213.25,151.53,210.63,151.53z" style="fill: rgb(47, 116, 48);"/>
<path id="Group_13_" class="st6" d="M88.48,196.45c-0.68,0-1.34,0.1-1.96,0.29c-2.13-3.24-5.78-5.37-9.94-5.37&#10;&#9;c-2.95,0-5.64,1.08-7.71,2.85c-1.4-1.44-3.37-2.34-5.55-2.34c-3.39,0-6.27,2.17-7.3,5.18c-0.14-0.01-0.27-0.04-0.42-0.04&#10;&#9;c-2.3,0-4.17,1.87-4.17,4.17c0,0.76,0.22,1.47,0.58,2.09h4.67h2.51h5.49h5.26h11.71h6.82h6.82&#10;&#9;C95.3,199.51,92.25,196.45,88.48,196.45z" style="fill: rgb(23, 85, 41);"/>
<path id="Group_12_" class="st13" d="M302.5,196.45c-0.68,0-1.34,0.1-1.96,0.29c-2.13-3.24-5.78-5.37-9.94-5.37&#10;&#9;c-2.95,0-5.64,1.08-7.71,2.85c-1.4-1.44-3.37-2.34-5.55-2.34c-3.39,0-6.27,2.17-7.3,5.18c-0.14-0.01-0.27-0.04-0.42-0.04&#10;&#9;c-2.3,0-4.17,1.87-4.17,4.17c0,0.76,0.22,1.47,0.58,2.09h4.67h2.51h5.49h5.26h11.71h6.82h6.82&#10;&#9;C309.32,199.51,306.27,196.45,302.5,196.45z" style="fill: rgb(205, 225, 173);"/>
<path id="Group_11_" class="st5" d="M266.18,196.45c-0.68,0-1.34,0.1-1.96,0.29c-2.13-3.24-5.78-5.37-9.94-5.37&#10;&#9;c-2.95,0-5.64,1.08-7.71,2.85c-1.4-1.44-3.37-2.34-5.55-2.34c-3.39,0-6.27,2.17-7.3,5.18c-0.14-0.01-0.27-0.04-0.42-0.04&#10;&#9;c-2.3,0-4.17,1.87-4.17,4.17c0,0.76,0.22,1.47,0.58,2.09h4.67h2.51h5.49h5.26h11.71h6.82h6.82&#10;&#9;C272.99,199.51,269.94,196.45,266.18,196.45z" style="fill: rgb(255, 228, 123);"/>
<path id="Group_10_" class="st13" d="M50.56,198.9c-0.37,0-0.72,0.07-1.06,0.19c-1.15-2.11-3.13-3.5-5.38-3.5&#10;&#9;c-1.59,0-3.05,0.7-4.17,1.86c-0.76-0.94-1.82-1.53-3.01-1.53c-1.25,0-2.36,0.67-3.13,1.71c-0.86-0.95-2.09-1.55-3.45-1.55&#10;&#9;c-2.61,0-4.72,2.17-4.72,4.85c0,0.89,0.25,1.71,0.65,2.43h4.53h2.53h1.08h0.28h2.97h2.85h6.34h3.69h3.69&#10;&#9;C54.25,200.9,52.59,198.9,50.56,198.9z" style="fill: rgb(205, 225, 173);"/>
<path id="Group_9_" class="st6" d="M230.6,198.9c-0.37,0-0.72,0.07-1.06,0.19c-1.15-2.11-3.13-3.5-5.38-3.5&#10;&#9;c-1.59,0-3.05,0.7-4.17,1.86c-0.76-0.94-1.82-1.53-3.01-1.53c-1.25,0-2.36,0.67-3.13,1.71c-0.86-0.95-2.09-1.55-3.45-1.55&#10;&#9;c-2.61,0-4.72,2.17-4.72,4.85c0,0.89,0.25,1.71,0.65,2.43h4.53h2.53h1.08h0.28h2.97h2.85h6.34h3.69h3.69&#10;&#9;C234.29,200.9,232.64,198.9,230.6,198.9z" style="fill: rgb(23, 85, 41);"/>
<g id="Group_16_">
	<g>
		<g>
			<radialGradient id="SVGID_3_" cx="66.0526" cy="141.881" r="24.7324" gradientUnits="userSpaceOnUse">
				<stop offset="0" style="stop-color:#2D9248"/>
				<stop offset="1" style="stop-color:#175529"/>
			</radialGradient>
			<path class="st14" d="M90.24,136.74c2.84,13.36-5.68,26.49-19.04,29.33c-13.36,2.84-26.49-5.69-29.33-19.05&#10;&#9;&#9;&#9;&#9;c-2.84-13.35,5.69-26.49,19.05-29.33C74.27,114.86,87.4,123.38,90.24,136.74z" style="fill: url('#SVGID_3_');"/>
		</g>
	</g>
	<path class="st15" d="M90.25,136.74c-2.59-12.19-13.75-20.35-25.83-19.53c10.76,0.71,20.18,8.46,22.53,19.53&#10;&#9;&#9;c2.84,13.36-5.69,26.49-19.04,29.33c-1.17,0.25-2.34,0.4-3.5,0.48c2.22,0.15,4.5,0,6.79-0.48&#10;&#9;&#9;C84.56,163.23,93.09,150.09,90.25,136.74z" style="fill: rgb(237, 237, 237);"/>
	<path class="st16" d="M77.55,151.42c2.79-2.34,1.61-7.28,1.61-7.28c0.32,6.76-3.33,7.41-3.33,7.41c-2.12-0.24-4.35,1.1-4.35,1.1&#10;&#9;&#9;c1.08-1.75,1.66-9.03,1.66-9.03c0.86-4.94,6.77-5.85,6.77-5.85c-3.44-0.84-6.77,3.25-6.77,3.25c0.21-3.51-0.97-7.28-0.97-7.28&#10;&#9;&#9;c1.18,16.29-3.18,19.96-3.18,19.96c1.94-9.66-1.33-19.18-1.33-19.18c-0.97-4.29,1.29-8.06,1.29-8.06&#10;&#9;&#9;c-1.83,0.39-2.36,5.85-2.36,5.85c-0.86-2.08-3.87-5.33-3.87-5.33c5.69,8.58,5.69,17.82,5.69,17.82&#10;&#9;&#9;c-0.22,10.98-2.91,16.13-2.91,16.13c0.21-1.04-1.61-3.59-1.61-3.59c-4.42-7.18,0.33-18.79,0.33-18.79&#10;&#9;&#9;c-3.44,4.03-2.95,12.98-2.95,12.98c-1.46-2.85-1.6-5.47-1.6-5.47c-0.97-5.2,1.01-13.1,1.01-13.1c-2.79,4.7-1.79,14.14-1.79,14.14&#10;&#9;&#9;c-4.12-6.73-8.31-6.46-8.31-6.46c7.83,2.51,11.8,15.9,11.8,15.9c-0.63-1.42-3.32-3.19-5.17-3.27c-4.81-0.25-6.09-4.96-6.09-4.96&#10;&#9;&#9;c-0.11,3.51,3.87,5.33,3.87,5.33c-1.83,0.78-3.33,4.03-3.33,4.03c4.08-7.15,9.78-1.04,9.78-1.04c2.51,3.01,3.27,5.14,3.41,6.62&#10;&#9;&#9;v17.19h2.36v-17.3c1.39-4.44,2.88-7.54,2.88-7.54c3.28-5.57,11.45-2.59,11.45-2.59C80.04,151.46,77.55,151.42,77.55,151.42z" style="fill: rgb(252, 195, 90);"/>
</g>
<g id="Group_1_">
	<g>
		<g>
			<radialGradient id="SVGID_4_" cx="219.9872" cy="154.0771" r="31.4803" gradientUnits="userSpaceOnUse">
				<stop offset="0" style="stop-color:#2D9248"/>
				<stop offset="1" style="stop-color:#175529"/>
			</radialGradient>
			<path class="st17" d="M250.77,147.53c3.62,17-7.24,33.72-24.24,37.33c-17,3.61-33.72-7.24-37.33-24.24&#10;&#9;&#9;&#9;&#9;c-3.61-17,7.24-33.71,24.24-37.33C230.45,119.68,247.16,130.53,250.77,147.53z" style="fill: url('#SVGID_4_');"/>
		</g>
	</g>
	<path class="st15" d="M250.78,147.53c-3.3-15.51-17.5-25.9-32.88-24.86c13.69,0.91,25.69,10.77,28.68,24.86&#10;&#9;&#9;c3.62,17-7.24,33.72-24.24,37.33c-1.49,0.32-2.98,0.51-4.45,0.61c2.83,0.19,5.73,0,8.65-0.61&#10;&#9;&#9;C243.54,181.25,254.4,164.53,250.78,147.53z" style="fill: rgb(237, 237, 237);"/>
	<path class="st16" d="M205.56,166.38c2.69-0.31,5.54,1.4,5.54,1.4c-1.37-2.23-2.12-11.5-2.12-11.5c-1.09-6.29-8.61-7.45-8.61-7.45&#10;&#9;&#9;c4.37-1.06,8.61,4.14,8.61,4.14c-0.27-4.47,1.23-9.27,1.23-9.27c-1.5,20.73,4.05,25.4,4.05,25.4c-2.48-11.93,1.13-21.1,1.41-24.41&#10;&#9;&#9;c0.88-5.5-1.36-10.26-1.36-10.26c5.36,6.98,0.78,15.7,0.78,24.38c0.28,13.97,3.61,19.5,3.61,19.5c-0.27-1.32,2.05-5.42,2.05-5.42&#10;&#9;&#9;c9.27-17.38,4.09-30.18,4.09-30.18c3.55,5.98,2.28,17.99,2.28,17.99c5.24-8.56,10.58-8.23,10.58-8.23&#10;&#9;&#9;c-9.97,3.19-15.02,20.24-15.02,20.24c0.8-1.81,4.23-4.06,6.58-4.16c6.12-0.31,7.76-6.32,7.76-6.32c0.14,4.47-4.92,6.79-4.92,6.79&#10;&#9;&#9;c2.32,0.99,4.24,5.13,4.24,5.13c-5.2-9.1-12.44-1.32-12.44-1.32c-3.19,3.83-4.16,6.54-4.33,8.42v21.89h-3v-22.02&#10;&#9;&#9;c-1.77-5.66-3.66-9.6-3.66-9.6c-4.17-7.09-14.57-3.3-14.57-3.3C200.2,166.27,205.56,166.38,205.56,166.38z" style="fill: rgb(252, 195, 90);"/>
</g>
<g id="Group_2_">
	<g>
		<g>
			<radialGradient id="SVGID_5_" cx="105.2013" cy="108.9448" r="14.3781" gradientUnits="userSpaceOnUse">
				<stop offset="0" style="stop-color:#2D9248"/>
				<stop offset="1" style="stop-color:#175529"/>
			</radialGradient>
			<path class="st18" d="M119.26,105.96c1.65,7.76-3.3,15.4-11.07,17.05c-7.76,1.65-15.4-3.31-17.05-11.07&#10;&#9;&#9;&#9;&#9;c-1.65-7.76,3.31-15.4,11.07-17.05C109.98,93.23,117.61,98.19,119.26,105.96z" style="fill: url('#SVGID_5_');"/>
		</g>
	</g>
	<path class="st15" d="M119.27,105.96c-1.51-7.08-7.99-11.83-15.02-11.35c6.25,0.42,11.73,4.92,13.1,11.35&#10;&#9;&#9;c1.65,7.76-3.31,15.4-11.07,17.05c-0.68,0.14-1.36,0.23-2.03,0.28c1.29,0.09,2.62,0,3.95-0.28&#10;&#9;&#9;C115.96,121.36,120.92,113.72,119.27,105.96z" style="fill: rgb(237, 237, 237);"/>
	<path class="st16" d="M98.61,114.56c1.23-0.14,2.53,0.64,2.53,0.64c-0.63-1.02-0.97-5.25-0.97-5.25c-0.5-2.87-3.93-3.4-3.93-3.4&#10;&#9;&#9;c2-0.49,3.93,1.89,3.93,1.89c-0.12-2.04,0.56-4.23,0.56-4.23c-0.68,9.47,1.85,11.6,1.85,11.6c-1.13-5.45,0.52-9.64,0.65-11.15&#10;&#9;&#9;c0.4-2.51-0.62-4.69-0.62-4.69c2.45,3.19,0.35,7.17,0.35,11.13c0.13,6.38,1.65,8.9,1.65,8.9c-0.12-0.6,0.94-2.47,0.94-2.47&#10;&#9;&#9;c4.24-7.94,1.87-13.78,1.87-13.78c1.62,2.73,1.04,8.22,1.04,8.22c2.39-3.91,4.83-3.76,4.83-3.76c-4.55,1.46-6.86,9.25-6.86,9.25&#10;&#9;&#9;c0.37-0.83,1.93-1.86,3-1.9c2.79-0.14,3.54-2.88,3.54-2.88c0.06,2.04-2.25,3.1-2.25,3.1c1.06,0.45,1.94,2.34,1.94,2.34&#10;&#9;&#9;c-2.37-4.16-5.68-0.6-5.68-0.6c-1.46,1.75-1.9,2.99-1.98,3.85v10h-1.37V121.3c-0.81-2.58-1.67-4.38-1.67-4.38&#10;&#9;&#9;c-1.91-3.24-6.66-1.51-6.66-1.51C96.16,114.51,98.61,114.56,98.61,114.56z" style="fill: rgb(252, 195, 90);"/>
</g>
<g id="Group_6_">
	<path class="st6" d="M276.06,146.85c0,13.04-4.74,13.21-7.72,13.21c-2.99,0-7.72-0.17-7.72-13.21c0-13.04,5.7-34.02,7.72-34.02&#10;&#9;&#9;S276.06,133.81,276.06,146.85z" style="fill: rgb(23, 85, 41);"/>
	<path d="M 267.25 160.070007 H 269.41 V 168.130008 H 267.25 V 160.070007 Z" class="st16" style="fill: rgb(252, 195, 90);"/>
	<path class="st19" d="M269.68,159.22c-3.06,0-7.03-0.11-7.03-13.48c0-10.86,2.98-27.15,5.53-32.87&#10;&#9;&#9;c-2.14,0.97-7.57,21.25-7.57,33.98c0,13.04,4.74,13.21,7.72,13.21c1.35,0,3.07-0.04,4.53-1.29&#10;&#9;&#9;C271.77,159.2,270.64,159.22,269.68,159.22z" style="fill: rgb(207, 210, 211);"/>
</g>
<g id="Group_5_">
	<radialGradient id="SVGID_6_" cx="135.4489" cy="109.556" r="11.1492" gradientUnits="userSpaceOnUse">
		<stop offset="0" style="stop-color:#2D9248"/>
		<stop offset="1" style="stop-color:#175529"/>
	</radialGradient>
	<path class="st20" d="M140.35,116.16c0,8.28-3.01,8.38-4.9,8.38c-1.89,0-4.9-0.11-4.9-8.38s3.62-21.59,4.9-21.59&#10;&#9;&#9;C136.73,94.57,140.35,107.88,140.35,116.16z" style="fill: url('#SVGID_6_');"/>
	<path d="M 134.759995 124.540001 H 136.129995 V 129.650001 H 134.759995 V 124.540001 Z" class="st16" style="fill: rgb(252, 195, 90);"/>
	<path class="st19" d="M136.31,124c-1.94,0-4.46-0.07-4.46-8.55c0-6.89,1.89-17.23,3.51-20.86c-1.36,0.62-4.8,13.48-4.8,21.57&#10;&#9;&#9;c0,8.28,3.01,8.38,4.9,8.38c0.86,0,1.95-0.02,2.87-0.82C137.63,123.99,136.91,124,136.31,124z" style="fill: rgb(207, 210, 211);"/>
</g>
<g id="Group_4_">
	<radialGradient id="SVGID_7_" cx="28.8709" cy="151.5965" r="28.5908" gradientUnits="userSpaceOnUse">
		<stop offset="0" style="stop-color:#2D9248"/>
		<stop offset="1" style="stop-color:#175529"/>
	</radialGradient>
	<path class="st21" d="M41.44,168.53c0,21.23-7.71,21.5-12.57,21.5c-4.86,0-12.57-0.27-12.57-21.5s9.28-55.36,12.57-55.36&#10;&#9;&#9;S41.44,147.3,41.44,168.53z" style="fill: url('#SVGID_7_');"/>
	<path d="M 27.110001 190.029999 H 30.620001 V 203.149999 H 27.110001 V 190.029999 Z" class="st16" style="fill: rgb(252, 195, 90);"/>
	<path class="st19" d="M31.07,188.64c-4.98,0-11.45-0.17-11.45-21.93c0-17.67,4.84-44.18,9-53.49c-3.48,1.58-12.31,34.58-12.31,55.3&#10;&#9;&#9;c0,21.23,7.71,21.5,12.57,21.5c2.2,0,4.99-0.06,7.37-2.1C34.46,188.62,32.62,188.64,31.07,188.64z" style="fill: rgb(207, 210, 211);"/>
</g>
<g id="Group_3_">
	<g>
		<g>
			<radialGradient id="SVGID_8_" cx="288.6383" cy="151.1111" r="18.8104" gradientUnits="userSpaceOnUse">
				<stop offset="0" style="stop-color:#2D9248"/>
				<stop offset="1" style="stop-color:#175529"/>
			</radialGradient>
			<path class="st22" d="M307.03,147.2c2.16,10.16-4.32,20.15-14.48,22.31c-10.16,2.16-20.15-4.33-22.31-14.49&#10;&#9;&#9;&#9;&#9;c-2.16-10.16,4.33-20.15,14.49-22.31C294.89,130.56,304.87,137.04,307.03,147.2z" style="fill: url('#SVGID_8_');"/>
		</g>
	</g>
	<path class="st15" d="M307.04,147.2c-1.97-9.27-10.46-15.48-19.64-14.85c8.18,0.54,15.35,6.43,17.14,14.85&#10;&#9;&#9;c2.16,10.16-4.32,20.15-14.48,22.31c-0.89,0.19-1.78,0.31-2.66,0.37c1.69,0.11,3.43,0,5.17-0.37&#10;&#9;&#9;C302.71,167.35,309.2,157.36,307.04,147.2z" style="fill: rgb(237, 237, 237);"/>
	<path class="st16" d="M297.38,158.36c2.12-1.78,1.23-5.54,1.23-5.54c0.25,5.14-2.53,5.64-2.53,5.64c-1.61-0.18-3.31,0.84-3.31,0.84&#10;&#9;&#9;c0.82-1.33,1.26-6.87,1.26-6.87c0.65-3.76,5.15-4.45,5.15-4.45c-2.61-0.64-5.15,2.47-5.15,2.47c0.16-2.67-0.74-5.54-0.74-5.54&#10;&#9;&#9;c0.89,12.39-2.42,15.18-2.42,15.18c1.48-7.35-1.01-14.58-1.01-14.58c-0.74-3.26,0.98-6.13,0.98-6.13c-1.39,0.3-1.8,4.45-1.8,4.45&#10;&#9;&#9;c-0.65-1.58-2.94-4.05-2.94-4.05c4.33,6.53,4.33,13.55,4.33,13.55c-0.17,8.35-2.21,12.27-2.21,12.27c0.16-0.79-1.23-2.73-1.23-2.73&#10;&#9;&#9;c-3.36-5.46,0.25-14.29,0.25-14.29c-2.61,3.07-2.25,9.87-2.25,9.87c-1.11-2.16-1.22-4.16-1.22-4.16c-0.74-3.96,0.77-9.96,0.77-9.96&#10;&#9;&#9;c-2.12,3.57-1.36,10.75-1.36,10.75c-3.13-5.12-6.32-4.92-6.32-4.92c5.96,1.91,8.97,12.1,8.97,12.1c-0.48-1.08-2.53-2.43-3.93-2.49&#10;&#9;&#9;c-3.66-0.19-4.64-3.77-4.64-3.77c-0.08,2.67,2.94,4.06,2.94,4.06c-1.39,0.59-2.53,3.07-2.53,3.07c3.1-5.44,7.43-0.79,7.43-0.79&#10;&#9;&#9;c1.91,2.29,2.49,3.91,2.59,5.03v13.08h1.79v-13.16c1.06-3.38,2.19-5.74,2.19-5.74c2.49-4.24,8.71-1.97,8.71-1.97&#10;&#9;&#9;C299.28,158.39,297.38,158.36,297.38,158.36z" style="fill: rgb(252, 195, 90);"/>
</g>
<g id="Group">
	<radialGradient id="SVGID_9_" cx="159.3822" cy="140.1684" r="26.3856" gradientUnits="userSpaceOnUse">
		<stop offset="0" style="stop-color:#2D9248"/>
		<stop offset="1" style="stop-color:#175529"/>
	</radialGradient>
	<path class="st23" d="M141.9,142.89c-2.63-5.59,1.97-8.1,4.93-8.32c-2.85-9.31,4.16-10.51,6.68-10.51&#10;&#9;&#9;c-3.44-8.55,4.49-11.57,5.55-11.19c1.28-0.34,9.65,2.64,6.21,11.19c2.52,0,9.53,1.2,6.68,10.51c2.96,0.22,7.56,2.74,4.93,8.32&#10;&#9;&#9;c2.74,0.98,12.04,6.57,5.8,17.63c-5.36,6.35-14.23,2.52-14.23,2.52s-3.64,3.55-7,4.33l-3.07,0.14c-3.6-0.13-8.05-4.47-8.05-4.47&#10;&#9;&#9;s-8.86,3.83-14.23-2.52C129.86,149.46,139.16,143.87,141.9,142.89z" style="fill: url('#SVGID_9_');"/>
	<g>
		<path d="M 157.910004 167.5 H 160.850004 V 190.16 H 157.910004 V 167.5 Z" class="st16" style="fill: rgb(252, 195, 90);"/>
	</g>
</g>
<g id="Group_7_">
	<radialGradient id="SVGID_10_" cx="251.0609" cy="110.0515" r="12.6688" gradientUnits="userSpaceOnUse">
		<stop offset="0" style="stop-color:#2D9248"/>
		<stop offset="1" style="stop-color:#175529"/>
	</radialGradient>
	<path class="st24" d="M242.67,111.36c-1.26-2.68,0.95-3.89,2.37-4c-1.37-4.47,2-5.05,3.21-5.05c-1.65-4.11,2.16-5.56,2.67-5.37&#10;&#9;&#9;c0.61-0.17,4.63,1.27,2.98,5.37c1.21,0,4.57,0.58,3.21,5.05c1.42,0.11,3.63,1.32,2.37,4c1.32,0.47,5.78,3.15,2.79,8.46&#10;&#9;&#9;c-2.58,3.05-6.83,1.21-6.83,1.21s-1.75,1.7-3.36,2.08l-1.47,0.07c-1.73-0.06-3.86-2.15-3.86-2.15s-4.26,1.84-6.83-1.21&#10;&#9;&#9;C236.88,114.51,241.35,111.83,242.67,111.36z" style="fill: url('#SVGID_10_');"/>
	<g>
		<path d="M 250.360001 123.18 H 251.770001 V 134.06 H 250.360001 V 123.18 Z" class="st16" style="fill: rgb(252, 195, 90);"/>
	</g>
</g>
<g id="Group_8_">
	<path d="M 100.529999 181.240005 H 142.02 V 188.750006 H 100.529999 V 181.240005 Z" class="st16" style="fill: rgb(252, 195, 90);"/>
	<path d="M 100.529999 192.710007 H 142.02 V 195.700007 H 100.529999 V 192.710007 Z" class="st16" style="fill: rgb(252, 195, 90);"/>
	<path d="M 134.789993 186.25 H 136.779993 V 203.82 H 134.789993 V 186.25 Z" class="st25" style="fill: rgb(216, 227, 220);"/>
	<path d="M 105.510002 185.460007 H 107.510002 V 203.030006 H 105.510002 V 185.460007 Z" class="st25" style="fill: rgb(216, 227, 220);"/>
</g>
</svg>