<svg xmlns="http://www.w3.org/2000/svg" id="master-artboard" width="2000" height="2000" x="0" y="0" version="1.1" viewBox="0 0 2000 2000" style="enable-background:new 0 0 2000 2000"><linearGradient id="SVGID_1_" x1="1005.853" x2="991.763" y1="96.25" y2="1338.88" gradientUnits="userSpaceOnUse"><stop offset="0" style="stop-color:#372d52"/><stop offset="1" style="stop-color:#61b5bc"/></linearGradient><path d="M 0 0 H 2000 V 1224.800049 H 0 V 0 Z" class="st0" transform="matrix(1, 0, 0, 1, 0, 0)" style="fill:url(#SVGID_1_)"/><linearGradient id="SVGID_2_" x1="680.281" x2="681.781" y1="1520.75" y2="1280.762" gradientUnits="userSpaceOnUse"><stop offset="0" style="stop-color:#554b63"/><stop offset="1" style="stop-color:#79bfbd"/></linearGradient><path d="M682.4,919.6c-143.4,0-259.6,116.2-259.6,259.6c0,15.6,1.4,30.8,4,45.6h511.3c2.6-14.8,4-30.1,4-45.6 C942.1,1035.8,825.8,919.6,682.4,919.6z" class="st1" transform="matrix(1, 0, 0, 1, 0, 0)" style="fill:url(#SVGID_2_)"/><path d="M 866.100021 1179.199951 A 183.699997 183.699997 0 0 1 682.400024 1362.899948 A 183.699997 183.699997 0 0 1 498.700027 1179.199951 A 183.699997 183.699997 0 0 1 682.400024 995.499954 A 183.699997 183.699997 0 0 1 866.100021 1179.199951 Z" class="st2" transform="matrix(1, 0, 0, 1, 0, 0)" style="fill:#fff6c3"/><linearGradient id="SVGID_3_" x1="1005.091" x2="997.248" y1="1163.458" y2="1855.121" gradientUnits="userSpaceOnUse"><stop offset="0" style="stop-color:#61b5bc"/><stop offset="1" style="stop-color:#2d2647"/></linearGradient><path d="M 0 1224.800049 H 2000 V 2000.000061 H 0 V 1224.800049 Z" class="st3" transform="matrix(1, 0, 0, 1, 0, 0)" style="fill:url(#SVGID_3_)"/><linearGradient id="SVGID_4_" x1="682.356" x2="682.356" y1="1185.457" y2="1739.689" gradientUnits="userSpaceOnUse"><stop offset="0" style="stop-color:#79c6c5"/><stop offset=".162" style="stop-color:#71b4b7"/><stop offset=".489" style="stop-color:#5d8492"/><stop offset=".947" style="stop-color:#3c3857"/><stop offset="1" style="stop-color:#382f50"/></linearGradient><path d="M503.1,1224.8c-0.7,6.5-1.1,13.2-1.1,19.9c0,99.6,80.7,180.3,180.3,180.3c99.6,0,180.3-80.7,180.3-180.3 c0-6.7-0.4-13.4-1.1-19.9H503.1z" class="st4" transform="matrix(1, 0, 0, 1, 0, 0)" style="fill:url(#SVGID_4_)"/><linearGradient id="SVGID_5_" x1="1524.06" x2="1523.399" y1="1130.747" y2="1189.071" gradientUnits="userSpaceOnUse"><stop offset="0" style="stop-color:#372d52"/><stop offset="1" style="stop-color:#2d2647"/></linearGradient><path d="M1852.2,998c-58.8,54.6-64.5,40.6-105.1,47.6c-40.6,7-61.6,49-77.1,64.5c-15.4,15.4-40.6,57.4-68.7,50.1 c-28-7.3-54.6-30.5-110.7-38.9c-56-8.4-108.9-40.3-145.7-22.4c-12,5.8-84.1,46.2-107.9,37.8s-96.7,8.4-102.3,16.8 s-37.8,26.6-65.9,29.4c-28,2.8-22.4,41.9-22.4,41.9H2000V995.7C2000,995.7,1911,943.3,1852.2,998z" class="st5" transform="matrix(1, 0, 0, 1, 0, 0)" style="fill:url(#SVGID_5_)"/><linearGradient id="SVGID_6_" x1="159.375" x2="159.375" y1="1172.457" y2="1205.293" gradientUnits="userSpaceOnUse"><stop offset="0" style="stop-color:#372d52"/><stop offset="1" style="stop-color:#2d2647"/></linearGradient><path d="M239,1169.6c-60-6.6-100-30.6-106-42.6s-24-58-56-50s-77,14-77,14v133.8h318.8 C318.8,1224.8,299,1176.2,239,1169.6z" class="st6" transform="matrix(1, 0, 0, 1, 0, 0)" style="fill:url(#SVGID_6_)"/><linearGradient id="SVGID_7_" x1="-4624.746" x2="11489.516" y1="1265.559" y2="1265.559" gradientUnits="userSpaceOnUse"><stop offset="0" style="stop-color:#91d7ce"/><stop offset=".123" style="stop-color:#8cccc6"/><stop offset=".338" style="stop-color:#7eb0b1"/><stop offset=".619" style="stop-color:#67818f"/><stop offset=".952" style="stop-color:#484160"/><stop offset="1" style="stop-color:#433759"/></linearGradient><path d="M502,1265.6c-22-2-47.3-3.1-74.1-3.1c-26.8,0-52.1,1.1-74.1,3.1c22,2,47.3,3.1,74.1,3.1 C454.7,1268.7,480,1267.6,502,1265.6z" class="st7" transform="matrix(1, 0, 0, 1, 0, 0)" style="fill:url(#SVGID_7_)"/><linearGradient id="SVGID_8_" x1="-4170.735" x2="11943.42" y1="1313.522" y2="1313.522" gradientUnits="userSpaceOnUse"><stop offset="0" style="stop-color:#91d7ce"/><stop offset=".123" style="stop-color:#8cccc6"/><stop offset=".338" style="stop-color:#7eb0b1"/><stop offset=".619" style="stop-color:#67818f"/><stop offset=".952" style="stop-color:#484160"/><stop offset="1" style="stop-color:#433759"/></linearGradient><path d="M807.8,1313.5c22,2,47.3,3.1,74.1,3.1c26.8,0,52.1-1.1,74.1-3.1c-22-2-47.3-3.1-74.1-3.1 C855.1,1310.4,829.8,1311.5,807.8,1313.5z" class="st8" transform="matrix(1, 0, 0, 1, 0, 0)" style="fill:url(#SVGID_8_)"/><linearGradient id="SVGID_9_" x1="-4550.605" x2="11563.55" y1="1319.815" y2="1319.815" gradientUnits="userSpaceOnUse"><stop offset="0" style="stop-color:#91d7ce"/><stop offset=".123" style="stop-color:#8cccc6"/><stop offset=".338" style="stop-color:#7eb0b1"/><stop offset=".619" style="stop-color:#67818f"/><stop offset=".952" style="stop-color:#484160"/><stop offset="1" style="stop-color:#433759"/></linearGradient><path d="M427.9,1319.8c22,2,47.3,3.1,74.1,3.1c26.8,0,52.1-1.1,74.1-3.1c-22-2-47.3-3.1-74.1-3.1 C475.2,1316.7,449.9,1317.8,427.9,1319.8z" class="st9" transform="matrix(1, 0, 0, 1, 0, 0)" style="fill:url(#SVGID_9_)"/><linearGradient id="SVGID_10_" x1="-1790.496" x2="5089.641" y1="1296.572" y2="1296.572" gradientUnits="userSpaceOnUse"><stop offset="0" style="stop-color:#91d7ce"/><stop offset=".123" style="stop-color:#8cccc6"/><stop offset=".338" style="stop-color:#7eb0b1"/><stop offset=".619" style="stop-color:#67818f"/><stop offset=".952" style="stop-color:#484160"/><stop offset="1" style="stop-color:#433759"/></linearGradient><path d="M366.8,1293.4c-11.5,0-22.2,1.1-31.6,3.1c9.4,2,20.2,3.1,31.6,3.1s22.2-1.1,31.6-3.1 C389,1294.6,378.2,1293.4,366.8,1293.4z" class="st10" transform="matrix(1, 0, 0, 1, 0, 0)" style="fill:url(#SVGID_10_)"/><linearGradient id="SVGID_11_" x1="-1228.611" x2="5651.632" y1="1277.742" y2="1277.742" gradientUnits="userSpaceOnUse"><stop offset="0" style="stop-color:#91d7ce"/><stop offset=".123" style="stop-color:#8cccc6"/><stop offset=".338" style="stop-color:#7eb0b1"/><stop offset=".619" style="stop-color:#67818f"/><stop offset=".952" style="stop-color:#484160"/><stop offset="1" style="stop-color:#433759"/></linearGradient><path d="M 960.300013 1277.699951 A 31.6 3.1 0 0 1 928.700012 1280.799951 A 31.6 3.1 0 0 1 897.100012 1277.699951 A 31.6 3.1 0 0 1 928.700012 1274.599951 A 31.6 3.1 0 0 1 960.300013 1277.699951 Z" class="st11" transform="matrix(1, 0, 0, 1, 0, 0)" style="fill:url(#SVGID_11_)"/><linearGradient id="SVGID_12_" x1="-1294.546" x2="5585.458" y1="1351.48" y2="1351.48" gradientUnits="userSpaceOnUse"><stop offset="0" style="stop-color:#91d7ce"/><stop offset=".123" style="stop-color:#8cccc6"/><stop offset=".338" style="stop-color:#7eb0b1"/><stop offset=".619" style="stop-color:#67818f"/><stop offset=".952" style="stop-color:#484160"/><stop offset="1" style="stop-color:#433759"/></linearGradient><path d="M831.1,1351.5c9.4,2,20.2,3.1,31.6,3.1s22.2-1.1,31.6-3.1c-9.4-2-20.2-3.1-31.6-3.1 S840.5,1349.5,831.1,1351.5z" class="st12" transform="matrix(1, 0, 0, 1, 0, 0)" style="fill:url(#SVGID_12_)"/><linearGradient id="SVGID_13_" x1="-2430.484" x2="8308.109" y1="1249.719" y2="1249.719" gradientUnits="userSpaceOnUse"><stop offset="0" style="stop-color:#91d7ce"/><stop offset=".123" style="stop-color:#8cccc6"/><stop offset=".338" style="stop-color:#7eb0b1"/><stop offset=".619" style="stop-color:#67818f"/><stop offset=".952" style="stop-color:#484160"/><stop offset="1" style="stop-color:#433759"/></linearGradient><path d="M986,1249.7c-14.7-2-31.5-3.1-49.4-3.1c-17.9,0-34.7,1.1-49.4,3.1c14.7,2,31.5,3.1,49.4,3.1 C954.5,1252.9,971.3,1251.7,986,1249.7z" class="st13" transform="matrix(1, 0, 0, 1, 0, 0)" style="fill:url(#SVGID_13_)"/><linearGradient id="SVGID_14_" x1="-3391.83" x2="8862.992" y1="1374.072" y2="1374.072" gradientUnits="userSpaceOnUse"><stop offset="0" style="stop-color:#91d7ce"/><stop offset=".123" style="stop-color:#8cccc6"/><stop offset=".338" style="stop-color:#7eb0b1"/><stop offset=".619" style="stop-color:#67818f"/><stop offset=".952" style="stop-color:#484160"/><stop offset="1" style="stop-color:#433759"/></linearGradient><path d="M394.3,1374.1c16.8,2,36,3.1,56.4,3.1c20.4,0,39.6-1.1,56.4-3.1c-16.8-2-36-3.1-56.4-3.1 C430.3,1370.9,411.1,1372.1,394.3,1374.1z" class="st14" transform="matrix(1, 0, 0, 1, 0, 0)" style="fill:url(#SVGID_14_)"/><path d="M732.8,995.3l-42.2-63.5c-36.2-54.5-105.3-77.3-166.3-53.9c-2,0.8-4,1.6-6,2.4c7.4-12.2,9.7-23.1,9.7-23.1 c-4.1,0.3-11.2-9.4-11.2-9.4c28.1,2.6,63.6-41.9,63.6-41.9c-10.9-1-23.8-8.7-23.8-8.7s15.3,4.1,34.7,2c19.4-2,69.5-38.8,58.2-39.3 c-0.8,0-1.7-0.1-2.5-0.3c-10.6-1.7-21.9-10.5-21.9-10.5c43,11.7,77.5-12.6,77.5-12.6s-103.7-39.6-170.1,7 c-37.3,26.2-56.1,76.3-65.4,115.3c-1.6-47.1-14.8-102.5-65.2-118.5c-20.6-6.5-43-4.6-62.6,4.7l-152,72.4c0,0,64.7,1.4,79-4.8 s32-17,32-17s-8.2,16.3-14.3,17c0,0,70.1-7.5,81-17c0,0-2,6.3-12.9,12.9c0,0,26.6,19.7,40.5,19.7c0,0-6.1,3.4-11.2,3.4l22.5,28.1 c-22.4-9.1-51.8-12.1-90.2-1.4c-121.3,34-192.7,82.3-192.7,82.3s92.3-3.6,113.9-22c0,0-1.8,10.5-8.7,12.6c0,0,42.8,4.6,75.4-13.2 c0,0-3.8,11-10.7,11.8c0,0,81.6,9.7,100.2-6.4c0,0-4,5.2-5.8,6.2l51.1-1.3c-289.8,412.1-267.1,777.1-267.1,777.1l89.6,23.7 c-55.6-431.8,208.5-787.7,208.5-787.7l-0.6-1.6l25.7,24.8c-0.4-1.4,0-6,0-6c2,17.3,49.2,51.2,49.2,51.2c-3.2-3.7,0-11.3,0-11.3 c8.5,24.9,33,42.9,33,42.9c-2.6-4.3,1.5-10.7,1.5-10.7c2.5,19.9,48.9,65.9,48.9,65.9s-14.1-59.4-61.2-135.1 c-6.8-10.9-13.9-19.4-21.2-26c12.4-1.1,20.6-3,20.6-3c-10.4-7-5.9-15.3-5.9-15.3c17.3,25.3,60.7,24.6,60.7,24.6 c-5.8-16.1,1.3-27.7,1.3-27.7s4.9,20.6,10.7,40c5.9,19.4,56.3,19.6,56.3,19.6c-3.3-2.6-1.2-13.7-1.2-13.7 C689.2,979.5,732.8,995.3,732.8,995.3z" class="st15" transform="matrix(1, 0, 0, 1, 0, 0)" style="fill:#2d2647"/><path d="M305.5,1564.6c-67.1,17.3-64.8,132.8-64.8,132.8l16.4,15.5C236.1,1658.3,305.5,1564.6,305.5,1564.6z" class="st15" transform="matrix(1, 0, 0, 1, 0, 0)" style="fill:#2d2647"/><path d="M131.4,1507.8c0,0,33.9,55.7,24.5,134.9l24.5-4.3C180.3,1638.3,181.8,1526.6,131.4,1507.8z" class="st15" transform="matrix(1, 0, 0, 1, 0, 0)" style="fill:#2d2647"/><path d="M320.7,1617.4c-85.5,19.1-86.4,105.5-86.4,105.5H258C251.6,1674.7,320.7,1617.4,320.7,1617.4z" class="st15" transform="matrix(1, 0, 0, 1, 0, 0)" style="fill:#2d2647"/><path d="M828,1407.5c0-1.2,0.1-2.3,0.1-3.5c0,0,0,0,0,0c0.5-9.5,1-20.4,1.7-31.4c0.1-1,0.1-2,0.2-3 c1.2-20,3-39.8,6-51.2c4.9-18.2-4.9-62.9-19.7-80.5c-0.2-0.3-0.5-0.6-0.7-0.9c-1.5-1.8-2.9-3.5-4.2-5.1l-10.1-12.9 c-0.4-0.6-0.8-1.1-1.2-1.6c0.5-0.4,0.9-1,0.8-1.9c-0.8-11,7.1-19.6,8.8-29.8c1.7-9.9,2.1-21.1-3.2-29.5 c-5.3-8.5-11-11.7-19.8-16.1c-9.3-4.7-14.3-5.4-24.9-5.4c-2.8,0-5.6,0.3-8.3,0.9c-1.4,0.3-2.8,0.1-4-0.7l0,0 c-3.8-2.4-7.9-4.3-12.5-1.4c-5.1,3.2-5.4,12.8-1.4,17.5c0.3,0.3,0.5,0.7,0.7,1.1c1.5,3.5,2.8,4,4.9,4.1c-2.4,3.8-4.4,8.5-5.8,14.2 c-0.5,2-0.9,4-1.3,5.9c-2.5,4.9-10.2,20.1-9,21.3c1.2,1.2,5.4,2.1,6.8,2.4c0,0.3,0,0.5,0,0.8c-0.4,0.4-0.7,1-0.9,1.8 c-0.9,3.9-0.1,6,1.1,9.4c1.7,4.5,2.9,9.1,5,13.5c1.4,3,1.8,3.8,5.2,5.2c3.8,1.6,7.6,1.4,11.1-0.2c0.9-0.4,1.7-0.7,2.4-0.9 c1.2-0.1,2.5-0.2,3.9-0.4c0.8,1.6,1.8,3.5,2.9,5.7l6,19.3c0,0,0,0,0,0c-0.7,1.3-2.5,4.1-4.7,8c0,0,0,0,0,0 c-0.2,0.4-0.5,0.9-0.7,1.3c0,0,0,0.1,0,0.1c-0.2,0.5-0.5,0.9-0.7,1.4c0,0,0,0.1-0.1,0.1c-0.2,0.5-0.5,0.9-0.7,1.4 c0,0.1-0.1,0.1-0.1,0.2c-0.2,0.5-0.5,1-0.7,1.5c0,0.1-0.1,0.1-0.1,0.2c-0.2,0.5-0.5,1-0.7,1.5c0,0.1-0.1,0.2-0.1,0.2 c-0.2,0.5-0.5,1-0.7,1.6c0,0.1-0.1,0.2-0.1,0.3c-0.2,0.5-0.5,1.1-0.7,1.6c0,0.1-0.1,0.2-0.1,0.3c-0.2,0.5-0.5,1.1-0.7,1.6 c0,0.1-0.1,0.2-0.1,0.3c-0.2,0.5-0.5,1.1-0.7,1.7c-0.1,0.1-0.1,0.3-0.2,0.4c-0.2,0.6-0.4,1.1-0.7,1.7c-0.1,0.1-0.1,0.3-0.2,0.4 c-0.2,0.6-0.4,1.1-0.6,1.7c-0.1,0.2-0.1,0.3-0.2,0.5c-0.2,0.6-0.4,1.1-0.6,1.7c-0.1,0.2-0.1,0.3-0.2,0.5c-0.2,0.6-0.4,1.2-0.5,1.7 c-0.1,0.2-0.1,0.4-0.2,0.6c-0.2,0.6-0.3,1.2-0.5,1.7c-0.1,0.2-0.1,0.4-0.2,0.6c-0.2,0.6-0.3,1.2-0.5,1.7c-0.1,0.2-0.1,0.4-0.2,0.7 c-0.1,0.6-0.3,1.1-0.4,1.7c-0.1,0.2-0.1,0.5-0.2,0.7c-0.1,0.6-0.2,1.2-0.4,1.7c-0.1,0.3-0.1,0.5-0.2,0.8c-0.1,0.6-0.2,1.2-0.3,1.8 c0,0.3-0.1,0.5-0.1,0.8c-0.1,0.6-0.2,1.2-0.3,1.8c0,0.3-0.1,0.6-0.1,0.8c-0.1,0.6-0.1,1.2-0.2,1.8c0,0.3-0.1,0.6-0.1,0.9 c-0.1,0.6-0.1,1.2-0.2,1.8c0,0.3-0.1,0.6-0.1,0.9c0,0.7-0.1,1.3-0.1,2c0,0.2,0,0.4,0,0.7c0,0.9,0,1.8,0,2.7c0,0.6,0,1.2,0,1.8 c0,0,0,0,0,0c0,13.4-0.3,39.9-0.6,66.2c-11.3,3.8-24.7,7.8-36.4,11.5v0c-1.1,0.4-2.2,0.7-3.3,1c0,0,0,0,0,0 c-3.8-1.4-8.2-1.1-10.7,2.4c-0.3,0.5-0.6,0.9-0.8,1.4c-5,1.7-9,3.2-11.3,4.4c-4.9,2.5-9.8,6.8-14.1,11.6c-0.2-0.1-0.5-0.2-0.7-0.2 c-4.4-1.2-14.9-4.9-26.3-9c0-1.2-0.6-2.4-1.4-3.2c-4-4.2-10.3-2.4-15.8-3c-1.8-0.7-3.5-1.3-5.2-1.9c0,0,0,0,0,0 c-0.5-0.4-1-0.5-1.4-0.5c-0.7-0.3-1.4-0.5-2.1-0.8c-1-3.4-1.9-5.7-2.3-6.9c-1-3.5-2-6.9-2.9-10.2c-0.1-0.2-0.1-0.4-0.2-0.6 c-0.1-0.3-0.2-0.6-0.2-0.9c-0.1-0.3-0.1-0.5-0.2-0.8c-0.1-0.3-0.1-0.5-0.2-0.8c-0.1-0.3-0.2-0.7-0.3-1c-0.1-0.3-0.1-0.5-0.2-0.8 c-0.1-0.4-0.2-0.8-0.3-1.2c-0.1-0.2-0.1-0.4-0.2-0.6c-0.1-0.3-0.2-0.6-0.3-1c-0.1-0.2-0.1-0.4-0.2-0.6c-0.1-0.3-0.2-0.6-0.3-1 c0-0.2-0.1-0.4-0.1-0.5c-0.1-0.4-0.2-0.9-0.3-1.3c0-0.1,0-0.1,0-0.2c-0.1-0.5-0.2-0.9-0.3-1.4c0-0.2-0.1-0.3-0.1-0.5 c-0.1-0.3-0.2-0.6-0.2-0.9c0-0.2-0.1-0.3-0.1-0.5c-0.1-0.3-0.1-0.6-0.2-0.9c0-0.1-0.1-0.3-0.1-0.4c-0.1-0.4-0.2-0.8-0.3-1.3 c0,0,0,0,0,0c-0.1-0.4-0.2-0.8-0.3-1.2c0-0.1,0-0.3-0.1-0.4c-0.1-0.3-0.1-0.6-0.2-0.8c0-0.1-0.1-0.3-0.1-0.4 c0-0.3-0.1-0.5-0.1-0.8c0-0.1,0-0.2-0.1-0.4c-0.1-0.4-0.1-0.7-0.2-1.1c-2.8-20.3,9.4-24,9.5-44.1c0-0.3,0-0.5,0-0.8 c0-0.1,0-0.2,0-0.3c0-0.2,0-0.4,0-0.6c0-0.1,0-0.2,0-0.3c0-0.2,0-0.3-0.1-0.5c0-0.1,0-0.2-0.1-0.3c0-0.2-0.1-0.3-0.1-0.5 c0-0.1,0-0.2-0.1-0.3c0-0.2-0.1-0.3-0.1-0.5c0-0.1-0.1-0.2-0.1-0.3c0-0.2-0.1-0.4-0.2-0.5c0-0.1-0.1-0.2-0.1-0.3 c-0.1-0.2-0.1-0.4-0.2-0.7c0-0.1,0-0.1-0.1-0.2c-0.1-0.3-0.2-0.6-0.3-0.8c0-0.1,0-0.1-0.1-0.2c-0.1-0.2-0.2-0.4-0.3-0.7 c0-0.1-0.1-0.2-0.1-0.3c-0.1-0.2-0.2-0.4-0.3-0.6c0-0.1-0.1-0.2-0.1-0.3c-0.1-0.2-0.2-0.4-0.3-0.5c-0.1-0.1-0.1-0.2-0.2-0.3 c-0.1-0.2-0.2-0.4-0.3-0.5c-0.1-0.1-0.1-0.2-0.2-0.3c-0.1-0.2-0.2-0.4-0.3-0.6c-0.1-0.1-0.1-0.2-0.2-0.3c-0.1-0.2-0.3-0.4-0.4-0.7 c0-0.1-0.1-0.1-0.1-0.2c-0.4-0.6-0.7-1.1-1.1-1.7c0-0.1-0.1-0.1-0.1-0.2c-0.2-0.2-0.3-0.5-0.5-0.7c-0.1-0.1-0.1-0.2-0.2-0.2 c-0.1-0.2-0.3-0.4-0.4-0.6c-0.1-0.1-0.1-0.2-0.2-0.2c-0.2-0.2-0.3-0.4-0.5-0.6c-0.1-0.1-0.1-0.2-0.2-0.2c-0.2-0.2-0.3-0.4-0.5-0.6 c-0.1-0.1-0.1-0.1-0.2-0.2c-0.2-0.2-0.4-0.5-0.6-0.7c0,0,0-0.1-0.1-0.1c-0.2-0.2-0.3-0.4-0.5-0.6c5.9-7.5,8.2-17.3,5.6-26.6 c-0.3-1.2-0.8-2.4-1.2-3.6c-0.3-1.4-0.7-2.8-1.4-4.2c-2.2-4.8-5.8-8.5-10-11.6c-2.2-2.5-4.4-5.3-5.5-8.3c1.4,0,2.7-0.1,3.8-0.2 c8.1-0.9,9.6-11.6,9.6-24.8c1.5-0.2,5.2-1.3,5.2-2.9c0-1.5-4.1-9.5-5.6-12.4c-0.1-2.5-0.1-5.1-0.1-7.6c2.1-2.2,3.6-4.7,4.5-7.5 c3.3-5.2,1.7-13-1.6-17.9c-4.7-7.2-12.7-10.7-20.8-12.7c-0.5-0.1-0.9-0.1-1.3-0.1h0c0,0-53.5-9.4-55.2,49.6 c-1.3,46.8-11.1,52-10.2,67.1c0.3,5.2,3.3,10.8,7.7,15.1c-2.4,7.6-3.2,14.6-2.9,21.3c0.1,1.4,0.2,2.8,0.4,4.2 c0.2,1.4,0.4,2.8,0.7,4.1c0.3,1.4,0.6,2.7,0.9,4c0.5,2,1.1,4,1.8,5.9c0.5,1.3,0.9,2.6,1.4,3.8c0.3,0.6,0.5,1.3,0.8,1.9 c0.5,1.3,1.1,2.5,1.7,3.7c0.6,1.2,1.2,2.5,1.8,3.7c0.6,1.2,1.2,2.4,1.8,3.6c0.3,0.6,0.6,1.2,0.9,1.8c2.2,4.2,4.4,8.3,6.5,12.4 c0.3,0.6,0.6,1.2,0.9,1.8c0.9,1.8,1.7,3.5,2.5,5.3c0.3,0.6,0.5,1.2,0.8,1.8c0.8,1.8,1.5,3.5,2.1,5.3c0.2,0.6,0.4,1.2,0.6,1.8 c0.4,1.2,0.7,2.4,1,3.6c1.1,4.4,1.7,8.9,1.5,13.5c-27.8,34.5-32.6,84.7-35.2,133.4h0c0,0,17.6,5.5,31.5,3c0,0,2.6,27.4,4.5,47.2 c2.4,25.3-2.7,50.5-0.7,81.9c0.9,12.1,1.8,23.7,2.1,34.1c0,0.1,0,0.1,0,0.2c0,1.6,0.1,3.1,0.1,4.6c0,0,0,0.1,0,0.1 c0,0.7,0,1.3,0,2c0,0.1,0,0.2,0,0.3c0,1.4,0,2.8-0.1,4.1c0,0.1,0,0.2,0,0.4c0,0.6,0,1.1-0.1,1.7c0,0.1,0,0.2,0,0.3 c0,0.7-0.1,1.3-0.1,1.9c0,0,0,0.1,0,0.1c0,0.6-0.1,1.1-0.1,1.7c0,0.1,0,0.3,0,0.4c0,0.5-0.1,1-0.2,1.5c0,0.1,0,0.2,0,0.3 c-0.1,0.6-0.1,1.2-0.2,1.7c0,0.1,0,0.2,0,0.3c-0.1,0.5-0.1,0.9-0.2,1.3c0,0.1,0,0.3-0.1,0.4c-0.2,1.1-0.4,2.1-0.6,3.1 c0,0.1-0.1,0.3-0.1,0.4c-0.1,0.4-0.2,0.8-0.3,1.2c0,0.1-0.1,0.2-0.1,0.4c-0.1,0.5-0.3,0.9-0.4,1.4c0,0.1,0,0.1-0.1,0.2 c-0.1,0.4-0.2,0.8-0.4,1.1c0,0.1-0.1,0.3-0.1,0.4c-0.1,0.4-0.3,0.7-0.4,1c0,0.1-0.1,0.2-0.1,0.2c-0.2,0.4-0.3,0.8-0.5,1.2 c0,0.1-0.1,0.2-0.1,0.3c-0.1,0.3-0.3,0.6-0.5,0.9c-0.1,0.1-0.1,0.2-0.2,0.3c-0.2,0.4-0.4,0.7-0.6,1.1c-7.7,12-5.1,25.2-5.1,25.2 h71.4v-2c0-0.2-0.1-0.3-0.2-0.5c0,0,0-0.1,0-0.1c-0.1-0.1-0.1-0.2-0.2-0.4c0,0,0-0.1,0-0.1c0,0,0,0,0,0c-0.1-0.1-0.1-0.3-0.2-0.4 c0,0,0-0.1-0.1-0.1c-0.1-0.1-0.2-0.2-0.2-0.4c0,0,0-0.1-0.1-0.1c-0.1-0.1-0.2-0.3-0.3-0.4c0,0,0,0,0,0c-0.1-0.1-0.2-0.3-0.4-0.4 c0,0-0.1-0.1-0.1-0.1c-0.3-0.2-0.5-0.5-0.9-0.7c0,0-0.1-0.1-0.1-0.1c0,0-0.1,0-0.1-0.1c-0.1-0.1-0.1-0.1-0.2-0.2 c-0.1-0.1-0.2-0.1-0.3-0.2c0,0,0,0,0,0c-0.2-0.1-0.4-0.3-0.7-0.4c0,0,0,0,0,0c-0.1-0.1-0.3-0.2-0.4-0.3c-0.1-0.1-0.2-0.1-0.3-0.2 c0,0-0.1,0-0.1,0c-0.5-0.3-1.1-0.6-1.8-0.9c0,0-0.1,0-0.1,0c-0.4-0.2-0.7-0.4-1.1-0.5c-0.3-0.2-0.7-0.3-1.1-0.5c0,0,0,0,0,0 c-1.6-0.8-3.6-1.6-5.9-2.5c-2-0.8-4.3-1.8-6.8-2.8c-3.1-1.3-5.7-2.7-8-4.4c-0.8-0.6-1.5-1.1-2.2-1.7c-0.8-0.7-1.6-1.4-2.3-2.2 c2.3-1.3,3.1-4.1,0.5-9.6c-5.8-12.3,3.2-56.2,9.3-82.4c3.4-14.4,5.3-29.1,5.8-43.9l2.3-69.7l-0.7-0.4c3.7,0.2,7.9,0.8,11.6,1.5 c8.6,1.8,17.2-4.7,17.2-4.7c0.1-28.3-1.3-51.3-3.4-69.8c-0.5-8.5-1.9-17.3-3.7-26.1c0.2,0.1,0.4,0.2,0.6,0.3 c3,1.7,6.4,4.3,10.1,4.1c2-0.1,4-1.2,5-2.8c5.9,1.2,11.3,2.4,15.5,3.2c2,0.4,3.8,1.2,5.5,2.2c-1.8,3.3-2.7,5.8-2.5,7 c1.1,6.8,5.3,6.5,14.6,15.4c0.9,0.9,1.8,1.3,2.8,1.4c0.3,0.3,0.7,0.5,1,0.6c2.5,0.9,5.3-2.1,7.6-6c6.8-8.1,13-22.6,14-24.4 c0.2-0.3,1.6-0.8,3.9-1.5c0.3,1.2,1,2.3,2.4,3.3c3.8,2.7,7.9,0.1,11.6-1.5c3.8-1.7,7.7-3.4,11.5-5.1c4.7-2.1,9.4-4.1,14.1-6.2 c1.7-0.4,3.5-0.8,5.2-1.2c0,2-0.1,3.9-0.1,5.8c-1.6,6.4-3.1,12.9-4.6,19.3c-1.1,4.6-0.1,9.2,4.2,11.2c0,2.1-0.1,3.7-0.1,4.8 c0,0,0,0.1,0,0.1c0,0.3,0,0.6,0,0.8c0,0,0,0.1,0,0.1c0,0.1,0,0.2,0,0.3c0,0.1,0,0.2,0,0.3c0,0,0,0,0,0s1.3,19.5,3.2,44.3 c0.1,1.5,0.2,3.1,0.4,4.6c0.1,1,0.2,2.1,0.2,3.1c0.2,3.2,0.5,6.4,0.8,9.6c0.4,4.9,0.8,9.8,1.2,14.7c0.1,1.1,0.2,2.2,0.3,3.3 c2.5,28.9,5.3,56.5,7.6,64.9c0.2,0.6,0.3,1.2,0.5,1.6c5.1,12.5,18,103.8,19,110.9c0,0.2,0,0.3,0.1,0.4c0,0,0,0.1,0,0.1 s-0.9,0.8-2.3,2.2c-0.6,0.6-1.3,1.2-2.1,1.9c-0.2,0.1-0.3,0.3-0.5,0.4c-0.5,0.4-1,0.9-1.5,1.4c-0.2,0.2-0.4,0.3-0.5,0.5 c-7.7,7-19.2,17.2-21.9,17.5c-3.6,0.4-22.2,2-26.6,7.6c-0.5,0.7-0.9,1.4-0.9,2.1v5.1h94.2h0c0,0,0.9-9-0.9-19 c-0.9-5.3-2.6-11-5.6-15.7c-0.1-0.2-0.2-0.4-0.3-0.6c0,0,0-0.1-0.1-0.2c-0.1-0.2-0.1-0.3-0.2-0.5c0-0.1,0-0.1-0.1-0.2 c-0.1-0.2-0.1-0.4-0.2-0.6c0,0,0-0.1,0-0.1c-0.1-0.2-0.1-0.5-0.2-0.8c0,0,0-0.1,0-0.1c-0.1-0.3-0.1-0.6-0.2-0.9c0,0,0,0,0-0.1 c-0.1-0.3-0.1-0.7-0.1-1c0,0,0,0,0,0c0-0.2,0-0.4-0.1-0.6c0-0.2,0-0.4-0.1-0.7c0-0.2,0-0.3,0-0.5c-1-14,3.1-44.1,5-71.4 c0,0,0-0.1,0-0.1c0.1-0.7,0.1-1.5,0.2-2.2c0-0.1,0-0.1,0-0.2c0.1-0.7,0.1-1.5,0.1-2.2c0,0,0-0.1,0-0.1c0.2-3.1,0.4-6.1,0.5-9.1 c0-0.1,0-0.2,0-0.3c0-0.6,0-1.2,0.1-1.8c0-0.2,0-0.4,0-0.6c0-0.5,0-1,0-1.5c0-0.2,0-0.4,0-0.6c0-0.5,0-1,0-1.4c0-0.2,0-0.4,0-0.7 c0-0.5,0-0.9,0-1.4c0-0.2,0-0.4,0-0.7c0-0.5,0-0.9,0-1.4c0-0.2,0-0.4,0-0.6c0-0.5,0-1,0-1.5c0-0.2,0-0.3,0-0.5 c0-1.3-0.1-2.5-0.1-3.8c0-0.2,0-0.3,0-0.4c0-0.5,0-0.9-0.1-1.3c0-0.2,0-0.4,0-0.6c0-0.4,0-0.8-0.1-1.1c0-0.2,0-0.4-0.1-0.7 c0-0.3-0.1-0.7-0.1-1c0-0.2,0-0.4-0.1-0.7c0-0.3-0.1-0.6-0.1-1c0-0.2,0-0.4-0.1-0.7c0-0.3-0.1-0.6-0.1-0.9c0-0.2-0.1-0.4-0.1-0.6 c0-0.3-0.1-0.6-0.1-0.9c0-0.2-0.1-0.4-0.1-0.6c-0.1-0.3-0.1-0.6-0.2-1c0-0.2-0.1-0.3-0.1-0.5c-0.1-0.5-0.2-0.9-0.3-1.4 c-0.1-0.5-0.2-1.1-0.3-1.7c-0.2-1.2-0.3-2.7-0.3-4.4c0-1.2,0-2.6,0-4.1c0-0.5,0-1,0.1-1.6c0-1,0.1-2,0.2-3c0-0.6,0.1-1.2,0.1-1.9 c0.1-1.7,0.3-3.4,0.4-5.2c0.1-1.2,0.2-2.5,0.4-3.8c0.1-1.2,0.3-2.5,0.4-3.8c0-0.1,0-0.3,0.1-0.4c0.4-3.3,0.8-6.7,1.3-10.3 c0.1-0.7,0.2-1.5,0.3-2.2c0.2-1.5,0.4-2.9,0.6-4.4c0.7-5.2,1.6-10.5,2.4-15.8c0.2-1.5,0.5-3,0.7-4.5c2.9-18,6.1-34.9,7.9-44.6 c0.2-1.2,0.4-2.3,0.6-3.3c0.1-0.4,0.2-0.9,0.2-1.4c0-0.1,0-0.3,0.1-0.4c0-0.3,0.1-0.7,0.1-1c0-0.2,0-0.3,0.1-0.5 c0-0.4,0.1-0.8,0.1-1.2c0-0.1,0-0.2,0-0.3c0-0.5,0.1-1,0.1-1.6c0-0.1,0-0.2,0-0.4c0-0.4,0-0.8,0-1.3c0-0.2,0-0.3,0-0.5 c0-0.4,0-0.8,0-1.3c0-0.1,0-0.3,0-0.4c0-1.2,0-2.4,0-3.6c0-0.1,0-0.3,0-0.4c0-0.5,0-1-0.1-1.5c0-0.1,0-0.3,0-0.4 c-0.1-2-0.2-4.1-0.3-6.2c0,0,0,0,0,0c-0.5-7.4-1.3-15.5-1.8-24l-0.6-17.5c0-1.2,0-2.4,0.1-3.5C828,1408,828,1407.7,828,1407.5z M611.3,1184.1c0.1-0.1,0.1-0.1,0.2-0.2c-0.6,1.1-1.3,2.2-2.2,3.2c0-0.2,0-0.4,0-0.7c0-0.4,0-0.8,0-1.2 C610,1185,610.7,1184.6,611.3,1184.1z M612,1261.1c0.4,2.1,0.5,4.2,0.1,6.2c-0.6-3.8-1.4-7.4-2.8-10.9 C610.4,1257.9,611.3,1259.5,612,1261.1z M606.5,1250.8c0,0,0-0.1-0.1-0.1c0.2,0.2,0.4,0.5,0.6,0.7 C606.8,1251.2,606.6,1251,606.5,1250.8z M607.6,1289.6c4.5-4.4,5.9-10.3,5.2-16.8c-0.1-0.8-0.2-1.6-0.3-2.4c0.6-1.5,0.9-3,1-4.5 c2,8.5-0.1,17.4-5.5,24.4C607.9,1290,607.7,1289.8,607.6,1289.6z" class="st15" transform="matrix(1, 0, 0, 1, 0, 0)" style="fill:#2d2647"/><path d="M1743,2000c-16.1-29-39.5-59.9-65.9-74.1c-30-16-22-44-46-60c-7-4.7-21.1-4.7-37.4-2.5 c-4.3-16.8-9.8-31.5-16.5-42.2c-34-53.7-142.2-9.3-287.4-55.6c-145.3-46.4-197.8-71.1-197.8-71.1s-46.4-18.5-61.6-27.4 c-15.3-8.9-21.8-12.7-68.2,0c-46.4,12.7-105.1,42.9-176.2,21.3s-166.9,9.3-200.9,18.5s-148.4,15.5-179.3,24.7 c-30.9,9.3-160.7-46.4-191.6-89.6s-86.5-64.9-108.2-77.3C84.2,1552.4,0,1586.4,0,1586.4V2000H1743z" class="st15" transform="matrix(1, 0, 0, 1, 0, 0)" style="fill:#2d2647"/><path d="M167.3,161.5c0,7.5-10.3,10.3-10.3,10.3s10.3,2.8,10.3,10.3c0-7.5,10.3-10.3,10.3-10.3S167.3,169,167.3,161.5 z" class="st16" transform="matrix(1, 0, 0, 1, 0, 0)" style="fill:#746cb2"/><path d="M255.8,214.2c0,14.6-19.9,19.9-19.9,19.9s19.9,5.3,19.9,19.9c0-14.6,19.9-19.9,19.9-19.9 S255.8,228.8,255.8,214.2z" class="st17" transform="matrix(1, 0, 0, 1, 0, 0)" style="fill:#7879bc"/><path d="M606.4,479.5c0,14.6-19.9,19.9-19.9,19.9s19.9,5.3,19.9,19.9c0-14.6,19.9-19.9,19.9-19.9 S606.4,494.1,606.4,479.5z" class="st18" transform="matrix(1, 0, 0, 1, 0, 0)" style="fill:#89b2e9"/><path d="M881.9,77.7c0,14.6-19.9,19.9-19.9,19.9s19.9,5.3,19.9,19.9c0-14.6,19.9-19.9,19.9-19.9 S881.9,92.3,881.9,77.7z" class="st19" transform="matrix(1, 0, 0, 1, 0, 0)" style="fill:#6e5aa4"/><path d="M1772.8,198.6c0,14.6-19.9,19.9-19.9,19.9s19.9,5.3,19.9,19.9c0-14.6,19.9-19.9,19.9-19.9 S1772.8,213.2,1772.8,198.6z" class="st20" transform="matrix(1, 0, 0, 1, 0, 0)" style="fill:#7573b7"/><path d="M1097.3,499.5c0,14.6-19.9,19.9-19.9,19.9s19.9,5.3,19.9,19.9c0-14.6,19.9-19.9,19.9-19.9 S1097.3,514,1097.3,499.5z" class="st21" transform="matrix(1, 0, 0, 1, 0, 0)" style="fill:#8ab4ea"/><path d="M1167.3,933.2c0,14.6-19.9,19.9-19.9,19.9s19.9,5.3,19.9,19.9c0-14.6,19.9-19.9,19.9-19.9 S1167.3,947.8,1167.3,933.2z" class="st22" transform="matrix(1, 0, 0, 1, 0, 0)" style="fill:#a8ffff"/><path d="M1813.2,628.9c0,14.6-19.9,19.9-19.9,19.9s19.9,5.3,19.9,19.9c0-14.6,19.9-19.9,19.9-19.9 S1813.2,643.5,1813.2,628.9z" class="st23" transform="matrix(1, 0, 0, 1, 0, 0)" style="fill:#93d0fe"/><path d="M240.7,669.3c0,14.6-19.9,19.9-19.9,19.9s19.9,5.3,19.9,19.9c0-14.6,19.9-19.9,19.9-19.9 S240.7,683.9,240.7,669.3z" class="st24" transform="matrix(1, 0, 0, 1, 0, 0)" style="fill:#97dfff"/><path d="M443.9,441.4c0,7.5-10.3,10.3-10.3,10.3s10.3,2.8,10.3,10.3c0-7.5,10.3-10.3,10.3-10.3 S443.9,448.9,443.9,441.4z" class="st25" transform="matrix(1, 0, 0, 1, 0, 0)" style="fill:#87a9e1"/><path d="M110.8,668.8c0,7.5-10.3,10.3-10.3,10.3s10.3,2.8,10.3,10.3c0-7.5,10.3-10.3,10.3-10.3 S110.8,676.3,110.8,668.8z" class="st26" transform="matrix(1, 0, 0, 1, 0, 0)" style="fill:#95dbff"/><path d="M881.9,336.8c0,7.5-10.3,10.3-10.3,10.3s10.3,2.8,10.3,10.3c0-7.5,10.3-10.3,10.3-10.3 S881.9,344.3,881.9,336.8z" class="st27" transform="matrix(1, 0, 0, 1, 0, 0)" style="fill:#6185ec"/><path d="M1407,554.5c0,7.5-10.3,10.3-10.3,10.3s10.3,2.8,10.3,10.3c0-7.5,10.3-10.3,10.3-10.3S1407,562,1407,554.5z" class="st28" transform="matrix(1, 0, 0, 1, 0, 0)" style="fill:#8dc1f3"/><path d="M1783,376.5c0,7.5-10.3,10.3-10.3,10.3s10.3,2.8,10.3,10.3c0-7.5,10.3-10.3,10.3-10.3S1783,384,1783,376.5z" class="st29" transform="matrix(1, 0, 0, 1, 0, 0)" style="fill:#8096d4"/><path d="M1459,218.5c0,7.5-10.3,10.3-10.3,10.3s10.3,2.8,10.3,10.3c0-7.5,10.3-10.3,10.3-10.3S1459,226,1459,218.5z" class="st30" transform="matrix(1, 0, 0, 1, 0, 0)" style="fill:#7675b9"/><path d="M1087,858.5c0,7.5-10.3,10.3-10.3,10.3s10.3,2.8,10.3,10.3c0-7.5,10.3-10.3,10.3-10.3S1087,866,1087,858.5z" class="st31" transform="matrix(1, 0, 0, 1, 0, 0)" style="fill:#a2ffff"/><path d="M1577,794.5c0,7.5-10.3,10.3-10.3,10.3s10.3,2.8,10.3,10.3c0-7.5,10.3-10.3,10.3-10.3S1577,802,1577,794.5z" class="st32" transform="matrix(1, 0, 0, 1, 0, 0)" style="fill:#9df3ff"/></svg>