<svg xmlns="http://www.w3.org/2000/svg" id="master-artboard" width="548" height="390" x="0" y="0" version="1.1" viewBox="0 0 548 390" style="enable-background:new 0 0 548 390"><linearGradient id="sky_1_" x1="271.369" x2="271.369" y1="-57" y2="358.003" gradientTransform="matrix(1.1241 0 0 1 -31.0462 0)" gradientUnits="userSpaceOnUse"><stop offset="0" style="stop-color:#bb9b78"/><stop offset="1" style="stop-color:#fff584"/></linearGradient><path id="sky" d="M 0 0 H 548 V 390 H 0 V 0 Z" class="st0" transform="matrix(1, 0, 0, 1, 0, 0)" style="fill:url(#sky_1_)"/><linearGradient id="sun_1_" x1="274" x2="274" y1="137.002" y2="528.046" gradientUnits="userSpaceOnUse"><stop offset="0" style="stop-color:#fff3bf"/><stop offset="1" style="stop-color:#ffca05"/></linearGradient><path id="sun" d="M 399 251 A 125 125 0 0 1 274 376 A 125 125 0 0 1 149 251 A 125 125 0 0 1 274 126 A 125 125 0 0 1 399 251 Z" class="st1" transform="matrix(1, 0, 0, 1, 0, 0)" style="fill:url(#sun_1_)"/><path d="M428,280.7c-16.7-3.1-29.3,2.6-44.7,6c-20.2,4.5-42.2,11.6-65.4,9.6c-20.2-1.7-36.7-9.2-50.5-15.7 c-14.6-6.9-24.9,1.4-36.4,7c-17,8.3-33.8,10-53.9,3.8c-13.1-4.1-26.8-7.8-39.3-12.3c-16.3-5.9-44.2,26.8-76.8,35 c43.6-0.4,108.4,8.2,167,9c136.6,1.8,259.7,7.6,320,17.5V303c-28.1-0.6-56.7-8.4-81.5-13.9C453.8,286.2,441.1,283.1,428,280.7z" class="st2" transform="matrix(1, 0, 0, 1, 0, 0)" style="fill:#d8cc5d"/><path d="M226.7,322.3C167,324.4,117.1,296,73.5,297c-28.4,0.6-54.7,6.4-73.5,12.8v68.6c10.8-1.2,29.9,8.5,52.5-3.8 c31.7-17.2,265.6,14.9,220.9-25.8c8.8,5.5,16.7,10.1,22.6,11.5c22.4,5.7,59,11.1,78.5-1.6c14.8-9.7,18.4-25.3,34.5-16.6 c12.7,6.9,17.7-5.5,30,2.6c23.6,15.5,77.7,5.2,107,4.8l2-18C487.7,306,367.5,317.4,226.7,322.3z" class="st3" transform="matrix(1, 0, 0, 1, 0, 0)" style="fill:#b7b745"/><path d="M548,390v-51.6c-29.3,0.1-84.9,2.5-108.5-1.5c-12.3-2.1-17.4,1.8-30.1,0.1c-16.1-2.2-35.5-4.3-50.3-1.8 c-19.5,3.2-40.8,8.3-63.2,6.9c-16.9-1.1-51.7-6-74.4-6.4c-3.5-0.1-6.7,0-9.5,0.1c-2.7,0.2-5.7,0.6-8.9,1.1 c-10.4,1.6-23.1,4.2-36.2,2.8c-2.3-0.3-4.7-0.6-7-1.2c-12.7-2.9-28.5-5.4-39.8-5.2c-20.9,0.4-33.6,6.6-70.4,11.7 c-22.6,3.1-38.8,4.4-49.6,4.7V390L548,390z" class="st4" transform="matrix(1, 0, 0, 1, 0, 0)" style="fill:#7b8b38"/><g><path d="M323.1,171.1c-0.9-0.1,0.4,1.6-0.6,1.7c1.6,4.3,7.5,4.3,8.7,8.9c-0.4,0.9-1.7,1.8-1.3,2.8 c2.8-1.3,4.6-4.4,8.5-4c0.1-1-0.2-1.4-0.6-1.9c2-1.5,5.9-1.2,6.1-4.6c-0.3-0.3-0.7,0.1-1.3-0.2c-1.2,2.5-4.6,2.9-6.6,4.6 c-2.1,0.1-2.5-2.1-3.8-3.2c-1.6-1.4-4-1-5.7-2.7c0-0.5-0.3-0.8-0.4-1.3c-0.4,1-0.9,0-1.1,0c-0.2,0-0.2,0.5-0.4,0.6 c-0.4,0.1-0.9-0.9-1.1-0.2C323.3,171.6,323.1,171.5,323.1,171.1z" class="st5" transform="matrix(1, 0, 0, 1, 0, 0)" style="fill-rule:evenodd;clip-rule:evenodd;fill:#c4aa68"/><path d="M360.9,191.7c-1.2-2.1-4.1-2.7-4.4-5.7c-1.7,2.4,1.5,3.9,2.6,5.2c-0.5,0.5-1.1,0.9-2.1,0.8 c2,0.9,4,1.7,6.8,1.8c-0.6-0.4-1-0.9-1.6-1.3c0.8-1.6,3.8-0.9,5.2-1.8C367.3,191,362.1,190.8,360.9,191.7z" class="st5" transform="matrix(1, 0, 0, 1, 0, 0)" style="fill-rule:evenodd;clip-rule:evenodd;fill:#c4aa68"/></g><path d="M253.5,285.4c1-0.3,1.3-0.5,1.2-0.8c0-0.3,0.4-0.3,0.4-0.3s0.3,0.5,0.2,0.9c-0.2,0.4,1.8,0.5,2.8,0.1 c1-0.4-0.1-1.1-0.9-1.7c-0.8-0.6-0.8-1.1-0.8-1.9c0-0.9-0.2-7.6,0.7-10.3c0.8-2.6,2.9-7.4,3.1-8.2c0.2-0.8,1.1-1,1.1-1.2 c0-0.1,2.7,0.5,3.3,0c0.2,1,0.6,2,0.6,3.7c0.1,1.7,0.4,3.2,0,4.3c-0.4,1.1-0.1,1.6,0.1,2.2c0.2,0.5,0.1,7.1-0.4,8.4 c-0.5,1.3-0.5,1.6-0.3,2c0.1,0.3,0,0.5-0.1,1.2c-0.1,0.6,0.8,0.8,1.9,0.7c1.1-0.1,2-0.4,1.2-1.4c-0.8-1-0.9-1.1-0.9-1.3 s0-1.2-0.2-1.4c-0.2-0.3,0-6.4,0.6-7.3c0.5-0.9,0.7-2.6,0.4-3.6c-0.4-1,0.6-6.3,0.9-7.3c0.3,0.2,0.5,5.5,0.1,6.7 c-0.3,1.1-0.5,2.2-0.2,3.3c0.3,1.1,0.6,8,0.5,8.9c-0.1,0.9,0,1.3,0.2,1.5c0.2,0.2,0.1,1.1,0.2,1.6c0.1,0.4,1.6,0.7,3,0.1 c0.2-0.5-0.9-1-1.2-1.3c-0.2-0.3-0.7-1-0.7-1.6c0.1-0.6-0.7-7.1-0.3-8.2c0.4-1.1,0.8-2.2,0.8-3.3c0-1.1,1.1-6.3,1.6-7.9 c0.5-1.6,0.6-4.6,0.8-5.2c0.2-0.6,1-2.8,0.2-4.6c-0.8-1.8-1.5-3.7-0.5-4.9c1-1.2,4-9.5,3.7-14.4c0-3.3,0.6-5.9,1.3-6.5 c0.7-0.6,1.3-0.5,1.7-0.2c0.4,0.3,2.3,0.4,3.1,0.1c0.5,0.2,1.2,0.8,1.5,0.7c0.3,0,0.4-0.3,0.4-0.3s0.5,0.4,0.6,0.2 c0,0,0.1-1.4-1-2.3c-0.6-1-1.5-2.3-2-2.6c-0.6-0.3-1.9-1.8-2.3-1.5c-0.3-0.6-0.5-2.5-1.2-2.5c-0.7,0-0.9,0.3-0.9,0.3 s0.2-1-1.1,0.2c0.2,0.6,0.9,1.6,0.4,1.9c-0.5,0.2-1.1-0.7-1.7-0.7c-0.6-0.1,0.1,0.9,0.2,1.6c0.1,0.6-3,4.5-3.7,7.4 c-0.8,2.9-2.7,7.7-4.1,9.3c-1.3,1.6-5.5,6.1-5.5,6.8c0,0.8-0.2,1.8-1.1,2.7c-1,0.8-4.4,2-5.7,2.7c-1.4,0.7-2.6,1.9-3.7,3.9 c-1,2-1.9,4.3-0.4,10.1c0.6,4,0.8,5.4,0.3,6.4c0.2,1.1,1.1,5.5,1,7.1c-0.1,1.6,0.4,4.4,0,4.9c-0.3,0.5-0.6,1-0.4,1.3 c0.1,0.3-0.6,0.6-0.6,1.2C251.6,285.4,252.5,285.7,253.5,285.4z M254.6,271.4c0.7,2.2,0.4,9.6,0.3,10.1c-0.1,0.5-0.2,1-0.3,2.1 C253.1,280.4,254.6,271.4,254.6,271.4z" class="st6" transform="matrix(1, 0, 0, 1, 0, 0)" style="fill:#c4aa68"/><path d="M290.6,288.4c0.2,1.2,0.4,2.4,0.7,3.6c0,0,0,0.2,0,0.4c0,0.2,0,0.3,0,0.4c-0.3,0-0.5-0.1-0.7-0.4 c0,0-0.1,0.1-0.1,0.2c-0.1,0.1-0.1,0.1-0.2,0.1c-0.1,0-0.1,0-0.2,0c0,0-0.1,0-0.2,0l-0.3-0.3c-0.1,0-0.1,0-0.2,0c0,0-0.1,0-0.2,0 l-0.3,0.3c0,0-0.1,0-0.2,0c-0.1,0-0.2,0-0.2,0c0-0.4,0.1-0.7,0.2-1.1c0.1-0.3,0.2-0.7,0.2-1.1c0-0.3-0.1-0.6-0.2-0.8 c-0.1-0.2-0.2-0.5-0.2-0.8c0-1,0.1-2.1,0.2-3.1c0.1-1,0.2-2.1,0.2-3.1c0-2.1-0.1-4.3-0.4-6.4c-0.3-2.1-0.7-4.2-1.2-6.3 c-0.1,0-0.2,0-0.4-0.1c-0.2,0-0.3,0-0.4,0c-0.4,0-0.7,0.1-0.9,0.3c-0.2,0.2-0.3,0.5-0.4,0.8c-0.1,0.3-0.1,0.6-0.2,1 c0,0.3-0.1,0.7-0.3,0.9c-0.4,0.9-0.8,1.7-1.2,2.5c-0.4,0.8-0.7,1.5-1,2.3c-0.3,0.8-0.6,1.5-0.8,2.3c-0.2,0.8-0.3,1.7-0.3,2.7 c0,1.2,0.1,2.3,0.3,3.4c0.2,1.1,0.6,2.2,1,3.2c0.1,0.3,0.3,0.6,0.5,0.8c0.2,0.2,0.3,0.5,0.3,0.9c-0.1,0-0.3,0-0.6-0.1 c-0.4,0-0.7-0.1-1.1-0.2c-0.4-0.1-0.8-0.2-1.1-0.3c-0.3-0.1-0.5-0.2-0.5-0.3c0-0.2,0.1-0.3,0.2-0.4c0.1-0.1,0.2-0.2,0.2-0.4 c0-0.1,0-0.2,0-0.4c0-0.1-0.1-0.2-0.3-0.3c0.1-0.9,0.1-1.8,0-2.6c-0.1-0.8-0.1-1.6-0.2-2.4c-0.1-0.8-0.2-1.6-0.3-2.4 c-0.1-0.8-0.1-1.7-0.1-2.7v-0.2c0.4-0.7,0.7-1.4,1.1-2c0.3-0.6,0.6-1.2,0.8-1.8c0.2-0.6,0.4-1.2,0.5-1.8c0.1-0.6,0.2-1.4,0.2-2.2 v-0.3c0-0.1-0.1-0.3-0.1-0.5c-0.1-0.2-0.1-0.4-0.2-0.5c-0.3,0.2-0.7,0.6-1,1.2c-0.3,0.6-0.6,1.3-0.9,2.1 c-0.3,0.8-0.6,1.7-0.8,2.6c-0.3,0.9-0.5,1.8-0.8,2.7c-0.2,0.9-0.5,1.7-0.7,2.4c-0.2,0.7-0.4,1.2-0.7,1.6l-0.3,0.3 c-0.4,1-0.8,2-1,3.1c-0.2,1.1-0.3,2.2-0.3,3.2c0,0.3,0,0.6,0,0.8c0,0.3,0.2,0.5,0.6,0.6c-0.1,0.2-0.2,0.3-0.3,0.3 c-0.1,0-0.2,0-0.4,0c-0.1,0-0.3,0-0.4,0c-0.1,0-0.2-0.1-0.3-0.3c0,0-0.1,0.1-0.1,0.2c-0.1,0.1-0.1,0.1-0.2,0.1 c-0.1,0-0.3,0-0.7,0.1c-0.3,0-0.6,0-0.7,0c0-0.8,0.1-1.6,0.3-2.3c0.2-0.8,0.5-1.5,0.7-2.3c0.3-0.8,0.5-1.5,0.8-2.3 c0.2-0.8,0.4-1.5,0.5-2.3V281v-0.6v-0.6v-0.4c0.1-0.6,0.2-1.1,0.4-1.5c0.2-0.4,0.3-0.9,0.5-1.3c0.2-0.4,0.3-0.9,0.5-1.4 c0.1-0.5,0.2-1.1,0.2-1.8c0,0-0.1,0-0.1-0.1c-0.1,0-0.1-0.1-0.1,0c0,0-0.2,0.1-0.3,0.3c-0.2,0.2-0.3,0.3-0.3,0.3 c-0.1,0.1-0.2,0.3-0.4,0.6c-0.2,0.3-0.4,0.6-0.6,0.9c-0.2,0.3-0.4,0.6-0.6,0.9c-0.2,0.3-0.3,0.5-0.4,0.6c0.1-0.2,0-0.4-0.2-0.5 c-0.2-0.1-0.4-0.2-0.6-0.3c-0.2-0.1-0.4-0.1-0.6-0.1c-0.2,0-0.3,0-0.3,0c0,0,0,0,0,0c0,0,0.1,0,0.1,0c0.3-0.3,0.5-0.5,0.7-0.6 c0.2-0.1,0.3-0.2,0.4-0.3c0.1-0.1,0.3-0.3,0.4-0.4c0.2-0.2,0.4-0.5,0.7-0.9c0.1-0.2,0.3-0.4,0.5-0.5c0.2-0.1,0.4-0.3,0.7-0.4 c0.2-0.1,0.4-0.3,0.6-0.5c0.2-0.2,0.4-0.3,0.4-0.5c0.3-0.6,0.5-1.3,0.6-2c0.1-0.7,0.2-1.5,0.2-2.2c0.1-0.7,0.1-1.5,0.2-2.2 c0.1-0.7,0.2-1.4,0.5-2.1c0.2-0.6,0.6-1.2,1-1.7c0.5-0.5,1.1-0.8,1.9-1.1c0.5-0.1,1-0.3,1.5-0.5c0.5-0.2,1.1-0.4,1.6-0.7 c0.5-0.2,1-0.5,1.5-0.7c0.5-0.2,0.9-0.5,1.2-0.6c1.2-1,2.1-2,2.9-3.1c0.8-1.1,1.3-2.3,1.8-3.6c0.4-1.3,0.7-2.6,0.9-3.9 c0.2-1.4,0.3-2.8,0.3-4.2c0-0.7,0-1.4,0-2c0-0.6,0-1.2,0-1.8c0-0.6-0.1-1.2-0.1-1.9c-0.1-0.6-0.1-1.4-0.2-2.2h-0.2 c-0.4,0-0.7,0.1-0.9,0.3c-0.2,0.2-0.4,0.4-0.6,0.6c-0.2,0.2-0.3,0.4-0.5,0.6c-0.2,0.2-0.5,0.3-0.9,0.3c-0.3,0-0.5-0.1-0.7-0.2 c-0.1-0.1-0.2-0.3-0.2-0.7c0-0.5,0.1-1,0.4-1.6c0.3-0.5,0.5-1.1,0.9-1.7c0.3-0.6,0.6-1.1,0.9-1.7c0.3-0.6,0.4-1.2,0.4-1.7 c0.3,0,0.5,0,0.6-0.1c0.1-0.1,0.2-0.2,0.2-0.3c0.1-0.1,0.1-0.2,0.2-0.3c0.1-0.1,0.2-0.1,0.4-0.1c0.3,0,0.5,0.1,0.6,0.3 c0.1,0.2,0.1,0.5,0.1,0.7c0,0.3,0,0.5,0,0.7c0,0.2,0.2,0.3,0.5,0.2v-2.4c0.4,0,0.7,0.1,0.8,0.1c0.2,0,0.3,0.1,0.3,0.2 c0,0.1,0,0.2,0,0.4c0,0,0,0.1,0,0.2c0,0.1,0,0.1,0,0.2c0,0.1-0.1,0.3-0.1,0.6c-0.1,0.3-0.1,0.5-0.2,0.6c0,0,0,0,0.1,0 c0,0,0.1,0,0.1,0c0.2,0,0.3-0.1,0.5-0.2c0.1-0.1,0.3-0.3,0.4-0.4c0.1-0.2,0.3-0.3,0.4-0.5c0.2-0.1,0.3-0.2,0.5-0.3v2.3 c0,0.1-0.1,0.2-0.2,0.3c-0.1,0.1-0.2,0.2-0.4,0.3c-0.1,0.1-0.3,0.2-0.4,0.2c-0.1,0.1-0.2,0.1-0.3,0.1c0,1.3,0.1,2.6,0.2,3.9 c0.1,1.3,0.3,2.6,0.4,3.9c0.2,1.3,0.3,2.6,0.5,3.9c0.1,1.3,0.2,2.6,0.2,3.9c0,1.5-0.1,3-0.3,4.5c-0.2,1.5-0.3,2.9-0.3,4.5 c0,0.5,0.1,1,0.2,1.5c0.1,0.5,0.3,1,0.5,1.4c0.2,0.5,0.3,1,0.5,1.4c0.1,0.5,0.2,1,0.2,1.5c0,0.1,0,0.2,0,0.3c0,0.1,0,0.2,0,0.2 c-0.2,1.1-0.4,2.2-0.6,3.4c-0.3,1.2-0.5,2.3-0.6,3.4l-0.3,1.3c-0.3,1.2-0.7,2.5-1.1,3.7c-0.4,1.3-0.7,2.5-1,3.8 c-0.3,1.3-0.6,2.6-0.8,3.9c-0.2,1.3-0.3,2.6-0.3,3.9c0,0.6,0,1.3,0.1,1.9c0.1,0.6,0.3,1.2,0.5,1.8c0.1,0.2,0.2,0.3,0.4,0.5 c0.2,0.2,0.3,0.3,0.5,0.5c0.2,0.2,0.3,0.3,0.4,0.5c0.1,0.2,0.2,0.4,0.2,0.5c-1.2,0-2.1-0.4-2.7-1.1c-0.6-0.7-0.9-1.7-0.9-2.9 v-0.3c0.2-1.5,0.4-3,0.6-4.4c0.2-1.4,0.3-2.8,0.4-4.3c0.1-1.4,0.2-2.9,0.3-4.4c0.1-1.5,0.2-3,0.3-4.7c0,0,0-0.1,0-0.3 c0-0.1,0-0.2,0-0.3c-0.3-0.1-0.5-0.1-0.7-0.2c-0.2,0-0.4,0-0.5,0c-0.2,0-0.3,0.1-0.3,0.3c-0.3,2.1-0.4,4.3-0.4,6.4 c0,2.1-0.1,4.3-0.2,6.4v0.3c0,0.2,0,0.4,0,0.6c0,0.2,0,0.4,0,0.7v0.5C290.3,286,290.4,287.2,290.6,288.4z" class="st6" transform="matrix(1, 0, 0, 1, 0, 0)" style="fill:#c4aa68"/><g><path d="M352,268.3c3.9,11.3,16.5,12.9,29,10.2c12.5-2.7,38.8-0.9,51.7,0.4c12.9,1.3,18.3,4,32.5,5.8 c14.3,1.8,36.5,1.3,53.9-1.3c17.4-2.7,33-2.2,29.4-14.7c-3.6-12.5-27.6-10.2-54.8-14.7c-27.2-4.5-53.9-11.6-80.7-10.7 c-26.7,0.9-49-1.3-56.6,7.6C348.8,259.8,348.4,258.1,352,268.3z" class="st7" transform="matrix(1, 0, 0, 1, 0, 0)" style="fill:#5c6836"/><g><path d="M434.1,274c-3.3,6.2-7.7,11.5-11.2,17.7c-3.5,6.2-6.8,14.5-6.8,14.5s-0.6-8.9,2.4-16.6 c3-7.7,12.4-35.8,12.1-39.6l-1.8-0.6c0,0-1.8,6.2-4.7,17.2c-3,10.9-6.5,17.2-8.6,25.7c-2.1,8.6-2.1,9.2-2.1,12.7 c0,3.5-0.9,6.2-0.9,6.2l-1.9,5.9c-0.6-2.4-1.3-4.7-2.3-7.2c1.4-9.9,1-15.4,3.3-27.9c2.4-13.3,4.8-37.3,4.8-37.3l-1.2,0 c0,0-4.2,31.1-6,41.2c-1.2,6.6-2.2,14.6-2.8,19.4c-2.8-6.9-6.9-18.7-9.1-23.8c-0.5-6.2-0.7-14,0.9-20.5 c2.1-8.6,4.4-16.3,4.4-16.3l-1.2-1.2c0,0-3.3,6.2-4.7,16.6c-1.1,7.4-1.5,14.1-1.7,17.2c-2.4-3.7-6.6-9.3-11.3-15.8 c-5.9-8-5.6-11.2-5.6-11.2l-2.1,0.6c2.7,10.4,16.3,23.7,18.3,29.6c1.5,4.3,4.1,13.4,6.6,22.9c-5.8-4.9-23.8-21.1-27.9-25 c-4.7-4.4-27.5-24-27.5-24l-2.4,0.3c0,0,23.4,20.1,31.9,28.1c8.6,8,24.4,21.4,28.2,30.3l-0.1-1.1c0.2,0.7,0.4,1.5,0.6,2.2 c3.3,12.7,2.1,44.9,2.1,44.9c3,2.1,7.1,0.9,7.1,0.9s0-22.8-0.9-32.2c1.2-10.3,4.4-16.3,6.8-22.2c2.4-5.9,11.2-23.7,16.3-30.5 c5-6.8,7.7-20.4,7.7-20.4S437.4,267.8,434.1,274z" class="st8" transform="matrix(1, 0, 0, 1, 0, 0)" style="fill:#76614a"/><path d="M435.4,274c-3.3,6.2-7.7,11.5-11.2,17.7c-3.5,6.2-6.8,14.5-6.8,14.5s-0.6-8.9,2.4-16.6 c3-7.7,12.4-35.8,12.1-39.6l-1.8-0.6c0,0-1.8,6.2-4.7,17.2c-3,10.9-6.5,17.2-8.6,25.7c-2.1,8.6-2.1,9.2-2.1,12.7 c0,3.5-0.9,6.2-0.9,6.2l-1.9,5.9c-0.6-2.4-1.3-4.7-2.3-7.2c1.4-9.9,1-15.4,3.3-27.9c2.4-13.3,4.8-37.3,4.8-37.3l-1.2,0 c0,0-4.2,31.1-5.9,41.2c-1.2,6.6-2.2,14.6-2.8,19.4c-2.8-6.9-6.9-18.7-9.1-23.8c-0.5-6.2-0.7-14,0.9-20.5 c2.1-8.6,4.4-16.3,4.4-16.3l-1.2-1.2c0,0-3.3,6.2-4.7,16.6c-1.1,7.4-1.5,14.1-1.7,17.2c-2.4-3.7-6.6-9.3-11.3-15.8 c-5.9-8-5.6-11.2-5.6-11.2l-2.1,0.6c2.7,10.4,16.3,23.7,18.3,29.6c1.5,4.3,4.1,13.4,6.6,22.9c-5.8-4.9-23.8-21.1-27.9-25 c-4.7-4.4-27.5-24-27.5-24l-2.4,0.3c0,0,23.4,20.1,31.9,28.1c8.6,8,24.4,21.4,28.2,30.3l-0.1-1.1c0.2,0.7,0.4,1.5,0.6,2.2 c3.3,12.7,2.1,44.9,2.1,44.9c3,2.1,7.1,0.9,7.1,0.9s0-22.8-0.9-32.2c1.2-10.3,4.4-16.3,6.8-22.2c2.4-5.9,11.2-23.7,16.3-30.5 c5-6.8,7.7-20.4,7.7-20.4S438.7,267.8,435.4,274z" class="st9" transform="matrix(1, 0, 0, 1, 0, 0)" style="fill:#574633"/></g><path d="M342.2,267.4c17.4,0,18.7-2.3,33-3.1c14.7-0.9,25.8-4,37.4-0.4c11.6,3.6,17.4-0.4,33,0.9 c15.6,1.3,19.6,2.2,24.5,0c4.9-2.2,19.2-4.5,6.7-14.7c-12.5-10.2-42.8-5.3-65.5-4.5c-22.7,0.9-23.2-2.7-36.5,0.9 c-13.4,3.6-34.8,1.8-38.3,9.8C332.8,264.3,337.2,267.4,342.2,267.4z" class="st7" transform="matrix(1, 0, 0, 1, 0, 0)" style="fill:#5c6836"/><path d="M334.1,263.4c1.9,6.4,12.5,6.7,19.6,2.2c7.1-4.5,0.4-4.9,15.2-6.2c5.2-0.5,10.3,1.6,13.8,1.3 c6.4-0.5,10.6-3.3,21.8-4.5c17.4-1.8,33,1.8,37.9-4.9c4.9-6.7-0.9-15.2-18.7-14.7c-17.8,0.4-14.7,4-20.1,4.5 c-5.3,0.4-17.8-1.8-25.4,0.9c-7.6,2.7-14.7,7.6-21.8,7.6C349.2,249.6,330.9,252.7,334.1,263.4z" class="st10" transform="matrix(1, 0, 0, 1, 0, 0)" style="fill:#65723c"/><g><path d="M478.3,359.7c-0.9-3.6,3.3-27.9,7.8-38.3c4.5-10.5,21.2-32.5,26.7-39.9c5.6-7.4,13.6-17.8,13.6-17.8 l-1.6-0.4c0,0-20.9,25.4-28.5,36.3c-7.6,10.9-20.3,29.1-21.4,37.8c-0.7,5.4,2.6,8.2-1.1,22.8L478.3,359.7z" class="st8" transform="matrix(1, 0, 0, 1, 0, 0)" style="fill:#76614a"/><path d="M464.5,359.3c-4.5-18-10-39.7-14.9-49.2c-4.9-9.6-29.9-34.5-36.3-39.2c-6.5-4.7-13.6-9.6-13.6-9.6 s12.3,7.1,17.2,10c4.9,2.9,26.3,24.7,31.4,31.2c5.1,6.5,7.8,17.6,9.8,21.8c2,4.2,8.2,21.8,9.4,27c1.1,5.1,1.6,8.2,1.6,8.2 L464.5,359.3z" class="st8" transform="matrix(1, 0, 0, 1, 0, 0)" style="fill:#76614a"/><path d="M480.8,332.8c-2.7-6.2-1.8-14,0.2-18.3c2-4.2,11.1-12.7,12.9-20.9c1.8-8.2,0-29,0-29s1.6,25.4-2,30.5 c-3.6,5.1-10.7,13.6-13.4,18.7c-2.7,5.1-2.9,7.1-2.2,13.4c0.7,6.2,2.9,10.5,2.9,10.5L480.8,332.8z" class="st8" transform="matrix(1, 0, 0, 1, 0, 0)" style="fill:#76614a"/><path d="M478.6,316.3c-0.2-6,2.5-12.5,5.3-19.6c2.9-7.1,0-11.8-1.1-15.2c-1.1-3.3-8-16-8-16s10.5,20.5,8.7,26.5 c-1.8,6-7.4,15.8-7.4,21.2c0,5.4,0.4,9.6,0.4,9.6L478.6,316.3z" class="st8" transform="matrix(1, 0, 0, 1, 0, 0)" style="fill:#76614a"/><path d="M480.3,336.4c8-8.2,20.9-20.8,30.5-27.9c9.6-7.1,11.9-8.5,16.2-14.3c4.2-5.8,18.9-15.4,18.9-15.4 s-15.2,8.2-19.6,13.4c-4.5,5.1-14.3,12.5-18,16.3c-3.8,3.8-24.3,18-24.3,18L480.3,336.4z" class="st8" transform="matrix(1, 0, 0, 1, 0, 0)" style="fill:#76614a"/><path d="M524.9,294.4c0,0-1.3-1.1,0-6c1.3-4.9,4.7-10.5,4.7-10.5s-4.9,6.2-5.8,9.4c-0.9,3.1-2.5,11.1-2.5,11.1 L524.9,294.4z" class="st8" transform="matrix(1, 0, 0, 1, 0, 0)" style="fill:#76614a"/><path d="M472,360c-0.7-7.5-4.8-32-4.1-39.5c0.7-7.5,0.3-17.4,0.3-21.8c0-4.4-2-23.5-2-23.5l1.4-0.7 c0,0,3.1,13.3,3.7,20.8c0.7,7.5,0.7,18,2,29.3c1.4,11.2,3.4,25.9,3.4,25.9l-0.3,9.9L472,360z" class="st8" transform="matrix(1, 0, 0, 1, 0, 0)" style="fill:#76614a"/><path d="M468.6,314.1c-2.4-7.8-6.1-15.3-7.5-23.2c-1.4-7.8-2.4-20.1-2.4-20.1l-2.7,0.7c0,0-0.3,15.3,1.7,22.5 c2,7.2,10.2,26.6,10.2,26.6L468.6,314.1z" class="st8" transform="matrix(1, 0, 0, 1, 0, 0)" style="fill:#76614a"/></g><g><path d="M479.6,359.7c-0.9-3.6,3.3-27.9,7.8-38.3c4.5-10.5,21.2-32.5,26.7-39.9c5.6-7.4,13.6-17.8,13.6-17.8 l-1.6-0.4c0,0-20.9,25.4-28.5,36.3c-7.6,10.9-20.3,29.1-21.4,37.8c-0.7,5.4,2.6,8.2-1.1,22.8L479.6,359.7z" class="st9" transform="matrix(1, 0, 0, 1, 0, 0)" style="fill:#574633"/><path d="M465.7,359.3c-4.5-18-10-39.7-14.9-49.2c-4.9-9.6-29.9-34.5-36.3-39.2c-6.5-4.7-13.6-9.6-13.6-9.6 s12.3,7.1,17.2,10c4.9,2.9,26.3,24.7,31.4,31.2c5.1,6.5,7.8,17.6,9.8,21.8c2,4.2,8.2,21.8,9.4,27c1.1,5.1,1.6,8.2,1.6,8.2 L465.7,359.3z" class="st9" transform="matrix(1, 0, 0, 1, 0, 0)" style="fill:#574633"/><path d="M482,332.8c-2.7-6.2-1.8-14,0.2-18.3c2-4.2,11.1-12.7,12.9-20.9c1.8-8.2,0-29,0-29s1.6,25.4-2,30.5 c-3.6,5.1-10.7,13.6-13.4,18.7c-2.7,5.1-2.9,7.1-2.2,13.4c0.7,6.2,2.9,10.5,2.9,10.5L482,332.8z" class="st9" transform="matrix(1, 0, 0, 1, 0, 0)" style="fill:#574633"/><path d="M479.8,316.3c-0.2-6,2.5-12.5,5.3-19.6c2.9-7.1,0-11.8-1.1-15.2c-1.1-3.3-8-16-8-16s10.5,20.5,8.7,26.5 c-1.8,6-7.4,15.8-7.4,21.2c0,5.4,0.4,9.6,0.4,9.6L479.8,316.3z" class="st9" transform="matrix(1, 0, 0, 1, 0, 0)" style="fill:#574633"/><path d="M481.5,336.4c8-8.2,20.9-20.8,30.5-27.9c9.6-7.1,11.9-8.5,16.2-14.3c4.2-5.8,18.9-15.4,18.9-15.4 s-15.2,8.2-19.6,13.4c-4.5,5.1-14.3,12.5-18.1,16.3c-3.8,3.8-24.3,18-24.3,18L481.5,336.4z" class="st9" transform="matrix(1, 0, 0, 1, 0, 0)" style="fill:#574633"/><path d="M526.1,294.4c0,0-1.3-1.1,0-6c1.3-4.9,4.7-10.5,4.7-10.5s-4.9,6.2-5.8,9.4c-0.9,3.1-2.5,11.1-2.5,11.1 L526.1,294.4z" class="st9" transform="matrix(1, 0, 0, 1, 0, 0)" style="fill:#574633"/><path d="M473.2,360c-0.7-7.5-4.8-32-4.1-39.5c0.7-7.5,0.3-17.4,0.3-21.8c0-4.4-2-23.5-2-23.5l1.4-0.7 c0,0,3.1,13.3,3.7,20.8c0.7,7.5,0.7,18,2,29.3c1.4,11.2,3.4,25.9,3.4,25.9l-0.3,9.9L473.2,360z" class="st9" transform="matrix(1, 0, 0, 1, 0, 0)" style="fill:#574633"/><path d="M469.8,314.1c-2.4-7.8-6.1-15.3-7.5-23.2c-1.4-7.8-2.4-20.1-2.4-20.1l-2.7,0.7c0,0-0.3,15.3,1.7,22.5 c2,7.2,10.2,26.6,10.2,26.6L469.8,314.1z" class="st9" transform="matrix(1, 0, 0, 1, 0, 0)" style="fill:#574633"/></g><g><path d="M502.1,272.7c-1.7,0-3.3,0.2-5.1,0.5c-2.7,3.7,16.3,4.9,24.2,4.4c8.3-0.4,8.5,7.2,27.3,9.7v-13.4 c-3.6-0.1-7.3-0.3-11.2-0.3C522.6,273.6,516.9,272.3,502.1,272.7z" class="st7" transform="matrix(1, 0, 0, 1, 0, 0)" style="fill:#5c6836"/><path d="M492.8,254.5c-8,0.9-6.7-3.6-12-7.6c-5.3-4-28.8-5.2-45.9,1.3c-15.8,6-23.1,17.3-10.7,25 c5.1,3.1,28.7,7.2,32.5,7.6c11.9,1.2,26.9-5.7,40.4-7.6c1.7-0.2,3.4-0.4,5.1-0.5c14.7-0.4,20.5,0.9,35.2,0.9 c3.9,0,7.7,0.2,11.2,0.3v-20.3c-11.4-3.2-23.8-3.7-35.3-4.1C498.1,249.1,500.8,253.6,492.8,254.5z" class="st10" transform="matrix(1, 0, 0, 1, 0, 0)" style="fill:#65723c"/></g></g><g><path d="M171.7,317c-0.2-0.7,0.6-5.3,1.5-7.3c0.9-2,4.1-6.2,5.1-7.6c1.1-1.4,2.6-3.4,2.6-3.4l-0.3-0.1 c0,0-4,4.9-5.5,7c-1.5,2.1-3.9,5.6-4.1,7.2c-0.1,1,0.5,1.6-0.2,4.4L171.7,317z" class="st11" transform="matrix(1, 0, 0, 1, 0, 0)" style="fill:#4c3c2a"/><path d="M169.1,316.9c-0.9-3.5-1.9-7.6-2.9-9.4c-0.9-1.8-5.7-6.6-7-7.5c-1.2-0.9-2.6-1.8-2.6-1.8s2.3,1.4,3.3,1.9 c0.9,0.6,5,4.7,6,6c1,1.2,1.5,3.4,1.9,4.2c0.4,0.8,1.6,4.2,1.8,5.2c0.2,1,0.3,1.6,0.3,1.6L169.1,316.9z" class="st11" transform="matrix(1, 0, 0, 1, 0, 0)" style="fill:#4c3c2a"/><path d="M154,300.4c0.6,2.2,2.6,2.5,4.6,2c2-0.5,6.1-0.2,8.2,0.1c2,0.3,2.9,0.8,5.1,1.1c2.3,0.3,5.8,0.3,8.5-0.3 c2.7-0.5,5.2-0.4,4.6-2.8c-0.6-2.4-4.4-2-8.7-2.8c-4.3-0.9-8.5-2.2-12.7-2c-4.2,0.2-7.7-0.3-8.9,1.4 C153.5,298.8,153.4,298.4,154,300.4z" class="st7" transform="matrix(1, 0, 0, 1, 0, 0)" style="fill:#5c6836"/><path d="M172.2,311.8c-0.5-1.2-0.3-2.7,0-3.5c0.4-0.8,2.1-2.4,2.5-4c0.3-1.6,0-5.5,0-5.5s0.3,4.9-0.4,5.8 c-0.7,1-2,2.6-2.6,3.6c-0.5,1-0.6,1.4-0.4,2.6c0.1,1.2,0.6,2,0.6,2L172.2,311.8z" class="st11" transform="matrix(1, 0, 0, 1, 0, 0)" style="fill:#4c3c2a"/><path d="M171.8,308.6c0-1.2,0.5-2.4,1-3.8c0.6-1.4,0-2.3-0.2-2.9c-0.2-0.6-1.5-3.1-1.5-3.1s2,3.9,1.7,5.1 c-0.3,1.2-1.4,3-1.4,4c0,1,0.1,1.8,0.1,1.8L171.8,308.6z" class="st11" transform="matrix(1, 0, 0, 1, 0, 0)" style="fill:#4c3c2a"/><path d="M172.1,312.5c1.5-1.6,4-4,5.8-5.3c1.8-1.4,2.3-1.6,3.1-2.7c0.8-1.1,3.6-2.9,3.6-2.9s-2.9,1.6-3.8,2.6 c-0.9,1-2.7,2.4-3.5,3.1c-0.7,0.7-4.6,3.5-4.6,3.5L172.1,312.5z" class="st11" transform="matrix(1, 0, 0, 1, 0, 0)" style="fill:#4c3c2a"/><path d="M180.6,304.5c0,0-0.3-0.2,0-1.2c0.3-0.9,0.9-2,0.9-2s-0.9,1.2-1.1,1.8c-0.2,0.6-0.5,2.1-0.5,2.1 L180.6,304.5z" class="st11" transform="matrix(1, 0, 0, 1, 0, 0)" style="fill:#4c3c2a"/><path d="M186.1,300.1c1.6,0.6,3.8,0.9,2.9,2c-0.9,1.1,0.1,2.4-3.8,2c-3.8-0.4-3.8-2-5.5-1.9c-1.6,0.1-5.7-0.2-4.4-1 C176.7,300.3,184.5,299.5,186.1,300.1z" class="st7" transform="matrix(1, 0, 0, 1, 0, 0)" style="fill:#5c6836"/><path d="M170.5,317c-0.1-1.4-0.9-6.1-0.8-7.6c0.1-1.4,0.1-3.3,0.1-4.2c0-0.8-0.4-4.5-0.4-4.5l0.3-0.1 c0,0,0.6,2.5,0.7,4c0.1,1.4,0.1,3.5,0.4,5.6c0.3,2.2,0.7,5,0.7,5l-0.1,1.9L170.5,317z" class="st11" transform="matrix(1, 0, 0, 1, 0, 0)" style="fill:#4c3c2a"/><path d="M169.9,308.2c-0.5-1.5-1.2-2.9-1.4-4.4c-0.3-1.5-0.5-3.8-0.5-3.8l-0.5,0.1c0,0-0.1,2.9,0.3,4.3 c0.4,1.4,2,5.1,2,5.1L169.9,308.2z" class="st11" transform="matrix(1, 0, 0, 1, 0, 0)" style="fill:#4c3c2a"/><path d="M161.1,300.4c-2.4-1.5-1-3.6,2-4.8c3.3-1.2,7.8-1,8.8-0.3c1,0.8,0.8,1.6,2.3,1.4c1.5-0.2,1-1,3.9-0.9 c2.9,0.1,6.1,0.3,8.8,1.5c2.6,1.3,4.3,3.3,2.4,4.3c-1.9,1-3.8-1.2-6.6-1.2c-2.8,0-3.9-0.3-6.7-0.2c-2.8,0.1-6.1,1.8-8.7,1.5 C166.6,301.8,162.1,301,161.1,300.4z" class="st10" transform="matrix(1, 0, 0, 1, 0, 0)" style="fill:#65723c"/></g><path d="M162.8,310.4c0.4-2.5,0.3-3.7,0.8-6.6c0.5-3,1.1-8.3,1.1-8.3h-0.3c0,0-0.9,6.9-1.3,9.1 c-0.4,2.2-0.7,5.2-0.7,5.2L162.8,310.4z" class="st11" transform="matrix(1, 0, 0, 1, 0, 0)" style="fill:#4c3c2a"/><path d="M163.8,313.9c0.3-2.3,1-3.6,1.5-4.9c0.5-1.3,2.5-5.2,3.6-6.8c1.1-1.5,1.7-4.5,1.7-4.5s-1.2,2.9-2,4.3 c-0.7,1.4-1.7,2.6-2.5,3.9c-0.8,1.4-1.5,3.2-1.5,3.2s-0.1-2,0.5-3.7c0.7-1.7,2.8-7.9,2.7-8.8l-0.4-0.1c0,0-0.4,1.4-1,3.8 c-0.7,2.4-1.4,3.8-1.9,5.7c-0.5,1.9-0.5,2-0.5,2.8c0,0.8-0.2,1.4-0.2,1.4l-0.7,2L163.8,313.9z" class="st11" transform="matrix(1, 0, 0, 1, 0, 0)" style="fill:#4c3c2a"/><path d="M162.4,320.9c0,0,0.3-7.1-0.5-10c-0.7-2.8-1.6-6.2-2.1-7.5c-0.5-1.3-3.5-4.3-4.1-6.6l0.5-0.1 c0,0-0.1,0.7,1.2,2.5c1.3,1.8,2.4,3.3,2.8,4c0.4,0.7,1.6,4.2,2.3,5.9c0.7,1.7,1,2.7,1.2,4.8c0.2,2.1,0.2,7.1,0.2,7.1 S163,321.4,162.4,320.9z" class="st11" transform="matrix(1, 0, 0, 1, 0, 0)" style="fill:#4c3c2a"/><path d="M160.6,304.9c-0.2-1.4-0.4-3.9,0.1-5.8c0.5-1.9,1-3.6,1-3.6l-0.3-0.3c0,0-0.7,1.4-1,3.7 c-0.3,2.3-0.4,4.3-0.4,4.3L160.6,304.9z" class="st11" transform="matrix(1, 0, 0, 1, 0, 0)" style="fill:#4c3c2a"/><path d="M161.8,310.7c-0.9-2-4.4-4.9-6.3-6.7c-1.9-1.8-7.1-6.2-7.1-6.2l0.5-0.1c0,0,5.1,4.3,6.1,5.3 c1.1,1,6.1,5.5,6.6,5.8L161.8,310.7z" class="st11" transform="matrix(1, 0, 0, 1, 0, 0)" style="fill:#4c3c2a"/><path d="M147.4,301.1c4.2,0,4.5-0.5,7.9-0.7c3.5-0.2,6.2-1,9-0.1c2.8,0.9,4.2-0.1,7.9,0.2c3.7,0.3,4.7,0.5,5.9,0 c1.2-0.5,4.6-1.1,1.6-3.5c-3-2.5-10.2-1.3-15.7-1.1c-5.4,0.2-5.6-0.6-8.8,0.2c-3.2,0.9-8.3,0.4-9.2,2.3 C145.1,300.4,146.2,301.1,147.4,301.1z" class="st10" transform="matrix(1, 0, 0, 1, 0, 0)" style="fill:#65723c"/><path d="M145.2,298.2c0.2,2.1,2.9,2.5,4.9,1.3c2-1.2,0.3-1.5,4.1-1.5c1.3,0,2.6,0.8,3.5,0.9c1.7,0,2.8-0.7,5.8-0.7 c4.5,0,8.4,1.6,9.9-0.3c1.5-1.9,0.4-4.7-4.2-5.2c-4.6-0.4-3.9,0.8-5.3,0.7c-1.4,0-4.5-1.1-6.5-0.5c-2,0.6-4.1,1.9-5.9,1.7 C149.6,294.4,144.8,294.7,145.2,298.2z" class="st10" transform="matrix(1, 0, 0, 1, 0, 0)" style="fill:#65723c"/><g><path d="M28.1,291.3c1.9,6.5,7.8,7.4,13.8,5.9c5.9-1.5,18.4-0.5,24.6,0.3c6.1,0.8,8.7,2.3,15.5,3.3 c6.8,1,17.4,0.8,25.6-0.8c8.3-1.5,15.7-1.3,14-8.5c-1.7-7.2-13.1-5.9-26-8.5c-12.9-2.6-25.6-6.7-38.3-6.2 c-12.7,0.5-23.3-0.8-26.9,4.4C26.7,286.4,26.4,285.4,28.1,291.3z" class="st7" transform="matrix(1, 0, 0, 1, 0, 0)" style="fill:#5c6836"/><path d="M108.3,303.5c0,0-0.8-0.6,0-3.5c0.8-2.8,2.7-6,2.7-6s-2.8,3.6-3.3,5.4c-0.5,1.8-1.4,6.4-1.4,6.4 L108.3,303.5z" class="st9" transform="matrix(1, 0, 0, 1, 0, 0)" style="fill:#574633"/><path d="M124.8,290.2c4.9,1.8,11.3,2.8,8.7,6.2c-2.6,3.3,0.3,7.2-11.3,5.9c-11.5-1.3-11.5-5.9-16.4-5.6 c-4.9,0.3-17.2-0.5-13.3-3.1C96.3,291,119.9,288.4,124.8,290.2z" class="st7" transform="matrix(1, 0, 0, 1, 0, 0)" style="fill:#5c6836"/><g><path d="M70.9,320.6c-1.2-2.4-2.7-8.8-5.6-12.6c-2.9-3.7-15.3-16.3-18.1-17.9c-2.8-1.7-9.9-5.8-9.9-5.8 s4.1,2.8,7.8,5.5c3.7,2.7,18.1,17.1,20.9,22.6c2.8,5.5,6,17.9,8.6,28.3l2.6,0.1c0,0-0.3-1.8-0.9-4.7 C75.6,333.2,72,323.1,70.9,320.6z" class="st8" transform="matrix(1, 0, 0, 1, 0, 0)" style="fill:#76614a"/><path d="M110.1,302.2c-2.6,2.9-8.2,7.2-10.4,9.4c-2,2-11.9,8.9-13.7,10.2c0.3-1,0.7-2,1-2.8 c2.6-6,12.2-18.7,15.4-22.9c3.2-4.2,7.8-10.3,7.8-10.3l-0.9-0.3c0,0-12.1,14.6-16.4,20.9c-2.9,4.2-7.2,10.3-9.9,15.4 c-0.2-2.6,0.2-5.2,1-6.8c1.2-2.4,6.4-7.3,7.4-12.1c1-4.7,0-16.7,0-16.7s0.9,14.6-1.2,17.6c-2,2.9-6.1,7.7-7.6,10.7 c0.3-3,1.6-6.3,3-9.8c1.7-4.1,0-6.8-0.6-8.7c-0.6-1.9-4.6-9.2-4.6-9.2s6,11.8,5,15.3c-1,3.5-4.2,9.1-4.2,12.2 c0,1.4,0.1,2.7,0.1,3.7c-0.2,1.2-0.2,2.4,0,4.4c0.1,0.8,0.2,1.5,0.4,2.2c-0.6,1.4-1,2.6-1.1,3.6c-0.3-2.4-0.6-4.9-0.9-7.3 c-0.8-6.5-0.8-12.5-1.2-16.8c-0.4-4.3-2.2-12-2.2-12l-0.8,0.4c0,0,1.2,11,1.2,13.5c0,1.8,0.1,5,0,8.3 c-1.4-4.3-3.4-8.5-4.1-12.8c-0.8-4.5-1.4-11.6-1.4-11.6l-1.6,0.4c0,0-0.2,8.8,1,12.9c1.2,4.1,5.9,15.3,5.9,15.3 c-0.4,4.3,2,18.4,2.4,22.7l2.5,0.2l0-0.3l1.1-0.1c-0.3-1.4,0.7-8.3,2.2-14.5c4.6-4.7,11.4-11.2,16.5-15 c5.5-4.1,6.9-4.9,9.3-8.2c2.4-3.3,10.9-8.8,10.9-8.8S112.7,299.2,110.1,302.2z" class="st8" transform="matrix(1, 0, 0, 1, 0, 0)" style="fill:#76614a"/></g><g><path d="M69.8,320.6c-1.2-2.4-2.7-8.8-5.6-12.6c-2.9-3.7-15.3-16.3-18.1-17.9c-2.8-1.7-9.9-5.8-9.9-5.8 s4.1,2.8,7.8,5.5c3.7,2.7,18.1,17.1,20.9,22.6c2.8,5.5,6,17.9,8.6,28.3l2.6,0.1c0,0-0.3-1.8-0.9-4.7 C74.5,333.2,71,323.1,69.8,320.6z" class="st9" transform="matrix(1, 0, 0, 1, 0, 0)" style="fill:#574633"/><path d="M109,302.2c-2.6,2.9-8.2,7.2-10.4,9.4c-2,2-11.9,8.9-13.7,10.2c0.3-1,0.7-2,1-2.8 c2.6-6,12.2-18.7,15.4-22.9c3.2-4.2,7.8-10.3,7.8-10.3l-0.9-0.3c0,0-12.1,14.6-16.4,20.9c-2.9,4.2-7.2,10.3-9.9,15.4 c-0.2-2.6,0.2-5.2,1-6.8c1.2-2.4,6.4-7.3,7.4-12.1c1-4.7,0-16.7,0-16.7s0.9,14.6-1.2,17.6c-2,2.9-6.1,7.7-7.6,10.7 c0.3-3,1.6-6.3,3-9.8c1.7-4.1,0-6.8-0.6-8.7c-0.6-1.9-4.6-9.2-4.6-9.2s6,11.8,5,15.3c-1,3.5-4.2,9.1-4.2,12.2 c0,1.4,0.1,2.7,0.1,3.7c-0.2,1.2-0.2,2.4,0,4.4c0.1,0.8,0.2,1.5,0.4,2.2c-0.6,1.4-1,2.6-1.1,3.6c-0.3-2.4-0.6-4.9-0.9-7.3 c-0.8-6.5-0.8-12.5-1.2-16.8c-0.4-4.3-2.2-12-2.2-12l-0.8,0.4c0,0,1.2,11,1.2,13.5c0,1.8,0.1,5,0,8.3 c-1.4-4.3-3.4-8.5-4.1-12.8c-0.8-4.5-1.4-11.6-1.4-11.6l-1.6,0.4c0,0-0.2,8.8,1,12.9c1.2,4.1,5.9,15.3,5.9,15.3 c-0.4,4.3,2,18.4,2.4,22.7l2.5,0.2l0-0.3l1.1-0.1c-0.3-1.4,0.7-8.3,2.2-14.5c4.6-4.7,11.4-11.2,16.5-15 c5.5-4.1,6.9-4.9,9.3-8.2c2.4-3.3,10.9-8.8,10.9-8.8S111.6,299.2,109,302.2z" class="st9" transform="matrix(1, 0, 0, 1, 0, 0)" style="fill:#574633"/></g><path d="M49.6,291.3c-7.2-4.4-2.9-10.9,6.2-14.4c9.9-3.7,23.3-3.1,26.4-0.8c3.1,2.3,2.3,4.9,6.9,4.4 c4.6-0.5,3.1-3.1,11.8-2.8c8.7,0.3,18.5,0.8,26.4,4.6c7.9,3.8,12.8,9.9,7.2,12.9c-5.6,3.1-11.3-3.7-19.8-3.7 c-8.5,0-11.8-0.8-20.3-0.5c-8.5,0.3-18.5,5.4-26.2,4.6C66.1,295.4,52.5,293.1,49.6,291.3z" class="st10" transform="matrix(1, 0, 0, 1, 0, 0)" style="fill:#65723c"/></g><path d="M81.8,296.1c-2.2,4.1-5.1,7.7-7.5,11.8c-2.4,4.1-4.5,9.7-4.5,9.7s-0.4-5.9,1.6-11c2-5.1,8.3-23.9,8.1-26.4 l-1.2-0.4c0,0-1.2,4.1-3.2,11.4c-2,7.3-4.3,11.4-5.7,17.2c-1.4,5.7-1.4,6.1-1.4,8.5c0,2.4-0.6,4.1-0.6,4.1l-1.3,3.9 c-0.4-1.6-0.9-3.1-1.5-4.8c0.9-6.6,0.7-10.3,2.2-18.6c1.6-8.9,3.2-24.9,3.2-24.9h-0.8c0,0-2.8,20.8-4,27.5 c-0.8,4.4-1.5,9.8-1.8,13c-1.9-4.6-4.6-12.5-6.1-15.9c-0.4-4.2-0.4-9.4,0.6-13.7c1.4-5.7,3-10.8,3-10.8l-0.8-0.8 c0,0-2.2,4.1-3.2,11c-0.7,5-1,9.4-1.1,11.5c-1.6-2.4-4.4-6.2-7.6-10.5c-3.9-5.3-3.7-7.5-3.7-7.5l-1.4,0.4 c1.8,6.9,10.8,15.8,12.2,19.7c1,2.9,2.7,8.9,4.4,15.3c-3.9-3.3-15.9-14.1-18.6-16.7c-3.2-3-18.3-16-18.3-16l-1.6,0.2 c0,0,15.6,13.4,21.3,18.7c5.7,5.3,16.3,14.3,18.8,20.2l-0.1-0.8c0.1,0.5,0.3,1,0.4,1.5c2.2,8.5,1.4,30,1.4,30 c2,1.4,4.7,0.6,4.7,0.6s0-15.2-0.6-21.5c0.8-6.9,3-10.8,4.5-14.8c1.6-3.9,7.5-15.8,10.8-20.3c3.4-4.5,5.1-13.6,5.1-13.6 S84,291.9,81.8,296.1z" class="st8" transform="matrix(1, 0, 0, 1, 0, 0)" style="fill:#76614a"/><path d="M80.7,296.1c-2.2,4.1-5.1,7.7-7.5,11.8c-2.4,4.1-4.5,9.7-4.5,9.7s-0.4-5.9,1.6-11c2-5.1,8.3-23.9,8.1-26.4 l-1.2-0.4c0,0-1.2,4.1-3.2,11.4c-2,7.3-4.3,11.4-5.7,17.2c-1.4,5.7-1.4,6.1-1.4,8.5c0,2.4-0.6,4.1-0.6,4.1l-1.3,3.9 c-0.4-1.6-0.9-3.1-1.5-4.8c0.9-6.6,0.7-10.3,2.2-18.6c1.6-8.9,3.2-24.9,3.2-24.9h-0.8c0,0-2.8,20.8-4,27.5 c-0.8,4.4-1.5,9.8-1.8,13c-1.9-4.6-4.6-12.5-6.1-15.9c-0.4-4.2-0.4-9.4,0.6-13.7c1.4-5.7,3-10.8,3-10.8l-0.8-0.8 c0,0-2.2,4.1-3.2,11c-0.7,5-1,9.4-1.1,11.5c-1.6-2.4-4.4-6.2-7.6-10.5c-3.9-5.3-3.7-7.5-3.7-7.5l-1.4,0.4 c1.8,6.9,10.8,15.8,12.2,19.7c1,2.9,2.7,8.9,4.4,15.3c-3.9-3.3-15.9-14.1-18.6-16.7c-3.2-3-18.3-16-18.3-16l-1.6,0.2 c0,0,15.6,13.4,21.3,18.7c5.7,5.3,16.3,14.3,18.8,20.2l-0.1-0.8c0.1,0.5,0.3,1,0.4,1.5c2.2,8.5,1.4,30,1.4,30 c2,1.4,4.7,0.6,4.7,0.6s0-15.2-0.6-21.5c0.8-6.9,3-10.8,4.5-14.8c1.6-3.9,7.5-15.8,10.8-20.3c3.4-4.5,5.1-13.6,5.1-13.6 S82.9,291.9,80.7,296.1z" class="st9" transform="matrix(1, 0, 0, 1, 0, 0)" style="fill:#574633"/><path d="M16.8,293.4c12.6,0,13.5-1.6,23.8-2.2c10.6-0.6,18.6-2.9,27-0.3c8.3,2.6,12.5-0.3,23.8,0.6 c11.2,1,14.1,1.6,17.7,0c3.5-1.6,13.8-3.2,4.8-10.6c-9-7.4-30.8-3.9-47.2-3.2c-16.4,0.6-16.7-1.9-26.3,0.6 c-9.6,2.6-25,1.3-27.6,7.1C10.1,291.1,13.3,293.4,16.8,293.4z" class="st10" transform="matrix(1, 0, 0, 1, 0, 0)" style="fill:#65723c"/><path d="M10.2,284.6c0.7,6.2,8.8,7.5,14.8,4c6-3.5,0.9-4.5,12.4-4.4c4,0.1,7.7,2.5,10.5,2.6c5,0.2,8.5-2.1,17.3-2 c13.6,0,25.1,4.9,29.7-0.9c4.6-5.8,1.1-14.3-12.7-15.6c-13.8-1.3-11.8,2.3-15.9,2.2c-4.2-0.1-13.5-3.4-19.6-1.6 c-6.1,1.8-12.2,5.7-17.7,5C23.5,273.1,9.1,274.3,10.2,284.6z" class="st10" transform="matrix(1, 0, 0, 1, 0, 0)" style="fill:#65723c"/></svg>