<svg xmlns="http://www.w3.org/2000/svg" xmlns:xlink="http://www.w3.org/1999/xlink" id="master-artboard" width="1400" height="980" x="0" y="0" enable-background="new 0 0 1400 980" version="1.1" viewBox="0 0 1400 980"><g><linearGradient id="SVGID_1_" x1="700" x2="700" y1="791" y2="0" gradientUnits="userSpaceOnUse"><stop offset="0" style="stop-color:#f49fc6"/><stop offset="1" style="stop-color:#6f45c6"/></linearGradient><path fill="url(#SVGID_1_)" d="M 0 0 H 1400 V 791 H 0 V 0 Z"/><g><defs><path id="XMLID_1_" d="M0,707.6l82.3-16.7c9.2-1.9,18.7-2,28-0.5l56.5,9.5c19.4,3.3,39.3-1,55.7-12c0,0,78.1-48,82.8-54.4 L394.6,482l109.8-123.6c1.8-2.5,3.2-5.2,4.2-8.2l39.8-121c2.1-6.3,2-13.1-0.3-19.4l0.5-48.2c0.1-12.1,11.3-21.2,23.2-18.8 l30.4,6.2c41.3,8.4,78,31.9,102.7,66.1l27.5,38c1.6,2.3,3,4.8,3.9,7.4l45,125.5c3.4,9.4,11.2,16.4,20.8,18.8l110.9,44.5 c9.9-1,19.8,2.6,26.7,9.8l41,42.6l112,59.5l147,165.7c8.7,8.2,18.9,14.7,30,19.1l130.1,76.1V980H0V707.6z"/></defs><linearGradient id="XMLID_3_" x1="700" x2="700" y1="980" y2="142.513" gradientUnits="userSpaceOnUse"><stop offset="0" style="stop-color:#9baadf"/><stop offset="1" style="stop-color:#beb8df"/></linearGradient><use fill="url(#XMLID_3_)" overflow="visible" xlink:href="#XMLID_1_"/><clipPath id="XMLID_4_"><use overflow="visible" xlink:href="#XMLID_1_"/></clipPath><linearGradient id="SVGID_2_" x1="661.524" x2="661.524" y1="980" y2="125.037" gradientUnits="userSpaceOnUse"><stop offset="0" style="stop-color:#aaafdf"/><stop offset="1" style="stop-color:#bec3df"/></linearGradient><path fill="url(#SVGID_2_)" d="M 566.4000244140625 125 L 653.4000244140625 213.89999389648438 L 700 423.20001220703125 L 829.4000244140625 545.4000244140625 L 916.4000244140625 773.2000122070312 L 1007.9000244140625 876.4000244140625 L 1245 911 L 1323 980 L 0 980 L 0 688 L 292.29998779296875 628.7000122070312 L 492.29998779296875 341.70001220703125 L 531.2000122070312 226.89999389648438 L 529.4000244140625 130.60000610351562 Z" clip-path="url(#XMLID_4_)"/><path fill="#ABAAD4" d="M269,601l-63.8,114.6c-9.2,16.5-23.4,29.8-40.5,37.8L3,829V617L269,601z" clip-path="url(#XMLID_4_)"/><path fill="#ABAAD4" d="M 1293.9000244140625 762.7999877929688 L 1400 729.7999877929688 L 1400 822.0999755859375 Z" clip-path="url(#XMLID_4_)"/><linearGradient id="SVGID_3_" x1="543.622" x2="543.622" y1="527.999" y2="247.24" gradientUnits="userSpaceOnUse"><stop offset="0" style="stop-color:#bebedf"/><stop offset="1" style="stop-color:#c1e4f7"/></linearGradient><path fill="url(#SVGID_3_)" d="M598,423c7-4,15-4,22-2c13,3,14,17,17,29c1,4,6,9,7,9 c20.5-7.5,38-19.2,55.1-32.4l-12.2-13.4c-2.5-2.8-4.1-6.2-4.6-9.9l-18.5-140.2c-1.5-11.1-12.5-18.3-23.2-15.1l-68.9,20.2 c-9.3,2.7-14.9,12.3-12.7,21.7l2.4,10.1c1.1,4.6,3.8,8.5,7.8,11.1l0,0c11.6,7.6,10.8,25-1.5,31.4l-43.7,23 c-3.2,1.7-5.8,4.3-7.5,7.4l-3.3,6c-5,9.1-1.4,20.5,7.9,25.1l2.1,1l-111.7,82.6c-2.1,1.6-3.9,3.6-5.2,6l-17.9,33.1 c4.2,2.6,12.8,1,16.9-0.6c24-13,42-42,68-40c3,0,3,19,11,19C535,509,556,448,598,423z" clip-path="url(#XMLID_4_)" opacity=".6"/><linearGradient id="SVGID_4_" x1="704.543" x2="704.543" y1="787.243" y2="582.81" gradientUnits="userSpaceOnUse"><stop offset="0" style="stop-color:#bebedf"/><stop offset="1" style="stop-color:#c1e4f7"/></linearGradient><path fill="url(#SVGID_4_)" d="M848.9,637.2L828,582.8c-8,14.9-18,29.1-28,43.2 c-6,10-17,20-27,14c-9-6-6-21-15-28c-13-10-25,10-33,20c-18,22-32,50-59,57c-28,8-38-25-55-41c-1,0-3,0-4,0 c-9.6,26.9-23,55.7-48,69.4L734.9,786c3.4,1.3,7,1.6,10.5,0.8l52.5-11.5c13.3-2.9,18.9-18.9,10.2-29.4l-30.3-37 c-12.3-15,4.2-36.3,21.8-28.1l3.4,1.6c7.1,3.3,15.6,1.7,21-4l21-22.1C849.9,651.3,851.4,643.8,848.9,637.2z" clip-path="url(#XMLID_4_)" opacity=".6"/><linearGradient id="SVGID_5_" x1="518.417" x2="518.417" y1="671.9" y2="419.686" gradientUnits="userSpaceOnUse"><stop offset="0" style="stop-color:#bebedf"/><stop offset="1" style="stop-color:#c1e4f7"/></linearGradient><path fill="url(#SVGID_5_)" d="M467,631c29-11,45-38,65-62c9-10,17-22,29-26 c18-7,22,15,32,25c4,4,11-2,14-6c36.5-41.3,68.4-84,98.8-128l-6.7-7.4C682,439.8,664.5,451.5,644,459c-1,0-6-5-7-9 c-3-12-4-26-17-29c-7-2-15-2-22,2c-42,25-63,86-114,82c-8,0-8-19-11-19c-26-2-44,27-68,40c-4,1.6-12.7,3.2-16.9,0.6l-54.9,101.3 c-4.6,8.5-1.8,19.1,6.4,24.2l31.8,19.8c16.7-14.6,33.4-29.3,53.6-36.9C438,631,454,636,467,631z" clip-path="url(#XMLID_4_)" opacity=".6"/><linearGradient id="SVGID_6_" x1="599.669" x2="599.669" y1="736.655" y2="434.008" gradientUnits="userSpaceOnUse"><stop offset="0" style="stop-color:#bebedf"/><stop offset="1" style="stop-color:#c1e4f7"/></linearGradient><path fill="url(#SVGID_6_)" d="M816.4,552.5c-0.9-2.3-2.3-4.5-4-6.3L757,490l-51.2-56 c-30.5,44-62.4,86.6-98.8,128c-3,4-10,10-14,6c-10-10-14-32-32-25c-12,4-20,16-29,26c-20,24-36,51-65,62c-13,5-29,0-42,4 c-20.2,7.6-36.9,22.3-53.6,36.9l99.4,62c5.1,3.2,11.5,3.7,17,1.2l10.1-4.5c0.2-0.1,0.5-0.2,0.7-0.4c-5.6,0.1-11.1-0.1-16.7-0.3 c5.5,0.2,11.1,0.3,16.7,0.3c8.1-4,12.1-13.3,9.3-21.9l-4-12.3l55,21.4c25-13.7,38.4-42.5,48-69.4c1,0,3,0,4,0c17,16,27,49,55,41 c27-7,41-35,59-57c8-10,20-30,33-20c9,7,6,22,15,28c10,6,21-4,27-14c10-14.1,20-28.3,28-43.2L816.4,552.5z" clip-path="url(#XMLID_4_)" opacity=".6"/><linearGradient id="SVGID_7_" x1="291.111" x2="291.111" y1="981.608" y2="743.106" gradientUnits="userSpaceOnUse"><stop offset="0" style="stop-color:#9b9bdf"/><stop offset="1" style="stop-color:#bdd2ec"/></linearGradient><path fill="url(#SVGID_7_)" d="M411,852c2-1,7-1,8,1c9,10,22,12,31,6c19-12,25-38,46-46 c18-8,18,20,25,33c1,2,9,2,13,0c17.8-13.1,32.1-27.9,45.4-43.7c-1.9-1.3-3.1-3.5-2.8-6.1l5.6-44.6c0.5-3.6-2.2-6.9-5.8-7.1 l-17.7-1.4c-1.1-0.1-2.1,0.1-3.1,0.5l-119.8,54.1c-1.7,0.8-3.7,0.8-5.3,0l-66.1-31.2c-2-0.9-4.3-0.8-6.2,0.4l-46.7,30.5 c-1.5,1-3.3,1.3-5,0.8L207,773.5c-1.3-0.3-2.7-0.2-3.9,0.3L6.9,851.4c-2.4,0.9-4,3.2-4,5.8L0,980l211.9,1.6 C236.4,971,260.5,960,285,949C335,928,366,885,411,852z" clip-path="url(#XMLID_4_)" opacity=".5"/><linearGradient id="SVGID_8_" x1="517.632" x2="517.632" y1="929.732" y2="781.719" gradientUnits="userSpaceOnUse"><stop offset="0" style="stop-color:#9b9bdf"/><stop offset="1" style="stop-color:#bdd2ec"/></linearGradient><path fill="url(#SVGID_8_)" d="M393,912c24-10,41-31,65-42c8,19,0,45,21,57 c18,10,32-10,49-19c11-6,20-15,31-21c37-21,66-46,102-68c4.5-2.5,9.6-4.8,14.7-5.9l-17.8-17.2c-0.6-0.6-1.3-1-2-1.3l-30-12.3 c-1.8-0.8-3.9-0.6-5.6,0.4l-34.2,19.9c-2.3,1.3-4.8,1.1-6.7-0.2c-13.3,15.8-27.6,30.6-45.4,43.7c-4,2-12,2-13,0c-7-13-7-41-25-33 c-21,8-27,34-46,46c-9,6-22,4-31-6c-1-2-6-2-8-1c-18.8,13.8-35.1,29.3-51.4,44.2c0.1,0.3,0.3,0.5,0.4,0.8C366,908,381,917,393,912 z" clip-path="url(#XMLID_4_)" opacity=".5"/><linearGradient id="SVGID_9_" x1="528.616" x2="528.616" y1="985" y2="813.065" gradientUnits="userSpaceOnUse"><stop offset="0" style="stop-color:#9b9bdf"/><stop offset="1" style="stop-color:#bdd2ec"/></linearGradient><path fill="url(#SVGID_9_)" d="M837.4,849.1l-45.3,10.7c-1.7,0.4-3.5,0.1-5-0.9l-12-7.9 c-3.2-2.1-3.8-6.6-1.3-9.5l7.8-8.8c3.6-4.1,0.7-10.6-4.8-10.6h-89.3c-1.7,0-3.2-0.6-4.4-1.8l-7.5-7.2c-5.1,1.1-10.1,3.5-14.7,5.9 c-36,22-65,47-102,68c-11,6-20,15-31,21c-17,9-31,29-49,19c-21-12-13-38-21-57c-24,11-41,32-65,42c-12,5-27-4-33-15 c-0.1-0.3-0.3-0.5-0.4-0.8c-22.8,20.8-45.4,40.6-74.6,52.8c-24.5,11-48.6,22-73.1,32.6L659,985l21.2-28.2 c3.3-4.5-0.3-10.8-5.8-10.1h0c-7.6,0.8-10-9.9-2.8-12.3l153.6-52.7c1.2-0.4,2.2-1.1,3-2.1l15.8-20.3 C847.6,854.5,843.3,847.8,837.4,849.1z" clip-path="url(#XMLID_4_)" opacity=".5"/><linearGradient id="SVGID_10_" x1="1064.126" x2="1064.126" y1="692.927" y2="515.396" gradientUnits="userSpaceOnUse"><stop offset="0" style="stop-color:#aca7d2"/><stop offset="1" style="stop-color:#acc2e3"/></linearGradient><path fill="url(#SVGID_10_)" d="M1059,653c5-1-3-11,0-17c2-6,11-9,18-4 c43,33,92,72,146,58c-0.1-3.3-0.8-6.3-1.9-9.3l-96.8-53c-0.9-0.5-1.6-1.1-2.3-1.9l-51.9-63.1c-0.8-1-1.8-1.7-2.9-2.2l-104-44.5 c-6.6-2.8-13.2,4.2-9.9,10.6l16.6,32.5c0.7,1.4,1,2.9,0.8,4.4l-4.5,38.6c-0.6,5.3-6.2,8.4-11,6.1l-43-20.7 c-0.8-0.4-1.6-0.6-2.5-0.7l-4.4-0.5C953.7,618.5,998.3,659.8,1059,653z" clip-path="url(#XMLID_4_)" opacity=".5"/><linearGradient id="SVGID_11_" x1="939.141" x2="939.141" y1="680.885" y2="679.233" gradientUnits="userSpaceOnUse"><stop offset="0" style="stop-color:#aca7d2"/><stop offset="1" style="stop-color:#acc2e3"/></linearGradient><path fill="url(#SVGID_11_)" d="M940.1,680.9c-0.6-0.5-1.2-1.1-1.8-1.7 C938.7,679.8,939.3,680.4,940.1,680.9z" clip-path="url(#XMLID_4_)" opacity=".5"/><linearGradient id="SVGID_12_" x1="1220.424" x2="1220.424" y1="856.755" y2="695.626" gradientUnits="userSpaceOnUse"><stop offset="0" style="stop-color:#aca7d2"/><stop offset="1" style="stop-color:#acc2e3"/></linearGradient><path fill="url(#SVGID_12_)" d="M1415.3,831.4l-60.4-58.8c-12.7,5.7-27.3-6.7-40.9-12.6 c-17-7-8,23-12,23c-62,11-117-29-169-67c-14-10-31-25-47-19c-11,4-12,18-15,29c-13-4-22-17-38-13c-7,1-11,6-9,13 c-0.3,0.1-0.5,0.1-0.7,0.1l38.1,20.7c4.1,2.2,9.1,0.4,10.9-3.9l4.9-12.1c1.9-4.9,8-6.4,12.1-3.1L1175,798c3.3,2.7,3.8,7.6,1,10.9 l-5.3,6.3c-3,3.6-2.2,9,1.8,11.5l20.9,13.2c1.1,0.7,2.3,1.1,3.5,1.2l199.7,15.6c2.2,0.2,4.3-0.6,5.9-2.1l12.7-12.1 C1418.4,839.5,1418.4,834.5,1415.3,831.4z" clip-path="url(#XMLID_4_)" opacity=".5"/><linearGradient id="SVGID_13_" x1="1122.548" x2="1122.548" y1="784.852" y2="585.598" gradientUnits="userSpaceOnUse"><stop offset="0" style="stop-color:#aca7d2"/><stop offset="1" style="stop-color:#acc2e3"/></linearGradient><path fill="url(#SVGID_13_)" d="M1033,713c16-4,25,9,38,13c3-11,4-25,15-29 c16-6,33,9,47,19c52,38,107,78,169,67c4,0-5-30,12-23c13.6,5.8,28.1,18.2,40.9,12.6l-43.1-42c-0.5-0.5-1.1-0.9-1.7-1.2l-88.9-48.6 c1,3,1.7,6.1,1.9,9.3c-54,14-103-25-146-58c-7-5-16-2-18,4c-3,6,5,16,0,17c-60.7,6.8-105.3-34.5-153.7-66.6l-6.4-0.7 c-7.5-0.8-11.6,8.4-6,13.4l60.7,54.7c6,5.4,0.7,15.3-7.1,13.2h0c-7.7-2-12.3,7-8.1,12.2c0.6,0.6,1.2,1.1,1.8,1.7 c0.2,0.1,0.4,0.3,0.6,0.4l82.6,44.9c0.2-0.1,0.5-0.1,0.7-0.1C1022,719,1026,714,1033,713z" clip-path="url(#XMLID_4_)" opacity=".5"/><linearGradient id="SVGID_14_" x1="323.341" x2="323.341" y1="684.419" y2="659.639" gradientUnits="userSpaceOnUse"><stop offset="0" style="stop-color:#bebedf"/><stop offset="1" style="stop-color:#c1e4f7"/></linearGradient><path fill="url(#SVGID_14_)" d="M328.3,659.7c0,0,18-1.3,16.7,14.7s-44,8.7-43.3,6.7 C302.3,679,296.3,671,328.3,659.7z" clip-path="url(#XMLID_4_)" opacity=".6"/><linearGradient id="SVGID_15_" x1="445.951" x2="445.951" y1="783.009" y2="759.951" gradientUnits="userSpaceOnUse"><stop offset="0" style="stop-color:#bebedf"/><stop offset="1" style="stop-color:#c1e4f7"/></linearGradient><path fill="url(#SVGID_15_)" d="M425,775.5l9.4,6.8c1.2,0.9,2.9,1,4.3,0.4l30.5-14.4 c2.6-1.2,3.2-4.7,1.2-6.7l-0.2-0.2c-0.9-1-2.3-1.4-3.7-1.2l-42.3,6.6c-4.5,0.7-4.8,7-0.4,8.2h0C424.1,774.9,424.5,775.2,425,775.5 z" clip-path="url(#XMLID_4_)" opacity=".6"/><linearGradient id="SVGID_16_" x1="826.68" x2="826.68" y1="750.021" y2="715.918" gradientUnits="userSpaceOnUse"><stop offset="0" style="stop-color:#bebedf"/><stop offset="1" style="stop-color:#c1e4f7"/></linearGradient><path fill="url(#SVGID_16_)" d="M811,716c0,0,15,35,27,34S836,714,811,716z" clip-path="url(#XMLID_4_)" opacity=".6"/><linearGradient id="SVGID_17_" x1="835.482" x2="835.482" y1="697.811" y2="678.367" gradientUnits="userSpaceOnUse"><stop offset="0" style="stop-color:#bebedf"/><stop offset="1" style="stop-color:#c1e4f7"/></linearGradient><path fill="url(#SVGID_17_)" d="M820,696c0,0,11-24,26-16S839,703,820,696z" clip-path="url(#XMLID_4_)" opacity=".6"/><linearGradient id="SVGID_18_" x1="859.607" x2="859.607" y1="955.14" y2="859.795" gradientUnits="userSpaceOnUse"><stop offset="0" style="stop-color:#9b9bdf"/><stop offset="1" style="stop-color:#bdd2ec"/></linearGradient><path fill="url(#SVGID_18_)" d="M863,863c0,0-70,65-60,68s86,38,99,18s25-37,3-43 s-41-34-16-29S876.9,849.8,863,863z" clip-path="url(#XMLID_4_)" opacity=".5"/><linearGradient id="SVGID_19_" x1="213.467" x2="213.467" y1="770.562" y2="734" gradientUnits="userSpaceOnUse"><stop offset="0" style="stop-color:#9b9bdf"/><stop offset="1" style="stop-color:#bdd2ec"/></linearGradient><path fill="url(#SVGID_19_)" d="M234,734c0,0-66,9-40,29s45-6,45-6L234,734z" clip-path="url(#XMLID_4_)" opacity=".5"/><linearGradient id="SVGID_20_" x1="333.164" x2="333.164" y1="707.069" y2="691" gradientUnits="userSpaceOnUse"><stop offset="0" style="stop-color:#bebedf"/><stop offset="1" style="stop-color:#c1e4f7"/></linearGradient><path fill="url(#SVGID_20_)" d="M340,691l-17,6c0,0-1,9,5,10S350.4,697.9,340,691z" clip-path="url(#XMLID_4_)" opacity=".6"/><linearGradient id="SVGID_21_" x1="551.105" x2="551.105" y1="343.96" y2="331" gradientUnits="userSpaceOnUse"><stop offset="0" style="stop-color:#bebedf"/><stop offset="1" style="stop-color:#c1e4f7"/></linearGradient><path fill="url(#SVGID_21_)" d="M558,331c0,0-20,0-17,8S571,346,558,331z" clip-path="url(#XMLID_4_)" opacity=".6"/><linearGradient id="SVGID_22_" x1="1139.21" x2="1139.21" y1="786.021" y2="769" gradientUnits="userSpaceOnUse"><stop offset="0" style="stop-color:#aca7d2"/><stop offset="1" style="stop-color:#acc2e3"/></linearGradient><path fill="url(#SVGID_22_)" d="M1130,769c0,0,22,6,22,14S1115,782,1130,769z" clip-path="url(#XMLID_4_)" opacity=".5"/></g><linearGradient id="SVGID_23_" x1="468.5" x2="468.5" y1="980" y2="822.074" gradientUnits="userSpaceOnUse"><stop offset="0" style="stop-color:#656fbf"/><stop offset=".307" style="stop-color:#7579bf"/><stop offset="1" style="stop-color:#978ebf"/></linearGradient><path fill="url(#SVGID_23_)" d="M0,831l262.5-8.8c22.7-0.8,45.3,3.5,66.2,12.5L543,927h157c0,0,197,10,237,53H0V831z"/><path fill="#9F9EC6" d="M 1293.9000244140625 762.7999877929688 L 1400 729.7999877929688 L 1400 822.0999755859375 Z"/><linearGradient id="SVGID_24_" x1="1209.787" x2="1209.787" y1="449.592" y2="209.604" gradientUnits="userSpaceOnUse"><stop offset="0" style="stop-color:#aaafdf;stop-opacity:0"/><stop offset="1" style="stop-color:#bec3df"/></linearGradient><path fill="url(#SVGID_24_)" d="M1228,394c8,1,14,1,21,2c29,5,49,22,68,43c-9-13-9-36,5-44c6-3,15-1,23-1c-8-17-16-37-3-53 c14.1-19.3,36.4-24.2,58-19.4v-112c-127.9,0-107.4,75.7-94.9,104.5c6,5.7,5.4,11,5.4,11s-2.5-4.2-5.4-11 c-7.3-6.9-24.2-14.5-63.6-14.5c-72,0-40.5,55.5-40.5,55.5s0,0-40.5-9c-40.5-9-43.5,49.4-43.5,49.4c-91.5-7.6-97.5,54.1-97.5,54.1 h75C1123.6,408.1,1177.2,386.3,1228,394z"/><linearGradient id="SVGID_25_" x1="1307.854" x2="1307.854" y1="325.099" y2="314.119" gradientUnits="userSpaceOnUse"><stop offset="0" style="stop-color:#aaafdf;stop-opacity:0"/><stop offset="1" style="stop-color:#bec3df"/></linearGradient><path fill="url(#SVGID_25_)" d="M1305.1,314.1c2.9,6.8,5.4,11,5.4,11S1311.2,319.9,1305.1,314.1z"/><linearGradient id="SVGID_26_" x1="1247.297" x2="1247.297" y1="449.592" y2="319.854" gradientUnits="userSpaceOnUse"><stop offset="0" style="stop-color:#aaafdf;stop-opacity:0"/><stop offset="1" style="stop-color:#bec3df"/></linearGradient><path fill="url(#SVGID_26_)" d="M1400,321.6c-21.6-4.8-43.9,0.2-58,19.4c-13,16-5,36,3,53c-8,0-17-2-23,1c-14,8-14,31-5,44 c-19-21-39-38-68-43c-7-1-13-1-21-2c-50.8-7.7-104.4,14.1-133.4,55.6H1400V321.6z"/><linearGradient id="SVGID_27_" x1="129.715" x2="129.715" y1="587" y2="580.199" gradientUnits="userSpaceOnUse"><stop offset="0" style="stop-color:#aaafdf;stop-opacity:0"/><stop offset="1" style="stop-color:#bec3df"/></linearGradient><path fill="url(#SVGID_27_)" d="M129,587c0,0,0.7-2.7,1.4-6.8C129.4,584.4,129,587,129,587z"/><linearGradient id="SVGID_28_" x1="63.185" x2="63.185" y1="592.389" y2="414.297" gradientUnits="userSpaceOnUse"><stop offset="0" style="stop-color:#aaafdf;stop-opacity:0"/><stop offset="1" style="stop-color:#bec3df"/></linearGradient><path fill="url(#SVGID_28_)" d="M15,549c5,15,2,37,17,42c25.9,8.6,46.2-25,64.6-43.6C82.4,553.5,69,561.3,69,561.3 s62-48.3,36-111.7c-8.2-20-21.6-30.4-36.2-35.3c0.8,0.9,1.5,1.8,2.2,2.7c13,20,7,42,3,64c-2,9-16,12-26,17c10,7,19,14,13,27 C54,544,32,546,15,549z"/><linearGradient id="SVGID_29_" x1="175.655" x2="175.655" y1="720.556" y2="524.78" gradientUnits="userSpaceOnUse"><stop offset="0" style="stop-color:#aaafdf;stop-opacity:0"/><stop offset="1" style="stop-color:#bec3df"/></linearGradient><path fill="url(#SVGID_29_)" d="M275,643c0,0,17.3-14.3,10-30c-7.3-15.7-40,0-40,0s68.4-64.6-9.6-88.2c4,6.6,4.7,15.7,2.6,24.2 c-6,19-29,19-41,31c-6,6,6,13,6,21c-1,22-24,39-44,46c-19,7-40-1-58,6c-11,5-16,20-12,32c-13,2-27-7-38-2 c-13,6.5-21.4,19.8-24.7,34.6c77.4,1.7,298.7,6,298.7-0.6C325,709,275,643,275,643z"/><linearGradient id="SVGID_30_" x1="119.588" x2="119.588" y1="717.605" y2="410.515" gradientUnits="userSpaceOnUse"><stop offset="0" style="stop-color:#aaafdf;stop-opacity:0"/><stop offset="1" style="stop-color:#bec3df"/></linearGradient><path fill="url(#SVGID_30_)" d="M51,683c11-5,25,4,38,2c-4-12,1-27,12-32c18-7,39,1,58-6c20-7,43-24,44-46c0-8-12-15-6-21 c12-12,35-12,41-31c2.1-8.5,1.4-17.6-2.6-24.2c-2-0.6-4.2-1.2-6.4-1.8c-72.7-18.2-93.5,37.3-98.6,57.2c-0.8,4.1-1.4,6.8-1.4,6.8 s0.4-2.6,1.4-6.8c1.9-10.1,4.3-28.7-1.4-37.2c-3.9-5.9-18.6-1.6-32.4,4.4C78.2,566,57.9,599.6,32,591c-15-5-12-27-17-42 c17-3,39-5,46-24c6-13-3-20-13-27c10-5,24-8,26-17c4-22,10-44-3-64c-0.7-0.9-1.4-1.8-2.2-2.7C37.1,403.6,0,419,0,419v298 c0,0,9.9,0.2,26.3,0.6C29.6,702.8,38,689.5,51,683z"/><linearGradient id="SVGID_31_" x1="886.468" x2="886.468" y1="339.725" y2="267.686" gradientUnits="userSpaceOnUse"><stop offset="0" style="stop-color:#bed7df;stop-opacity:.4"/><stop offset=".98" style="stop-color:#d1eefc"/></linearGradient><path fill="url(#SVGID_31_)" d="M873,319c-6,4-5,17,0,19c8.1,3.6,14.9,1.1,21.5-3.3c-0.5,0.1-0.5,0.1-0.5,0.1s26.8-49.1-7-67.1 C897.6,286.2,891.4,305.4,873,319z"/><linearGradient id="SVGID_32_" x1="800.496" x2="800.496" y1="353.802" y2="261.407" gradientUnits="userSpaceOnUse"><stop offset="0" style="stop-color:#bed7df;stop-opacity:.4"/><stop offset=".98" style="stop-color:#d1eefc"/></linearGradient><path fill="url(#SVGID_32_)" d="M916,330.8c-15.8,2.9-20.2,3.7-21.5,3.9c-6.6,4.4-13.4,6.9-21.5,3.3c-5-2-6-15,0-19 c18.4-13.6,24.6-32.8,14-51.3c-5.4-2.9-12.2-4.9-21-5.9c0,0-74-8-83,48c0,0-58-13-54,20l-65,24h273C937,353.8,938,326.8,916,330.8z"/></g><linearGradient id="SVGID_33_" x1="315.059" x2="315.059" y1="980" y2="558.553" gradientUnits="userSpaceOnUse"><stop offset=".01" style="stop-color:#333f76"/><stop offset=".99" style="stop-color:#656fbf"/></linearGradient><path fill="url(#SVGID_33_)" d="M230.4,693.7c-2.6,2.7-4.1,6.4-4.1,10.2v20.7c0,6.4,4.1,12.1,10.2,14.1l-15.1,16	c-2.6,2.8-4.1,6.4-4.1,10.2v74c0,8.2,6.6,14.8,14.8,14.8H257V980h31.6V852.1c7.5-3.5,9-11.8,17.3-14.8	c17.9,34.7,29.2,77.8,2.9,142.7h33.8c10.5-29.5,14.8-57.1,12.9-83.5c-1.9-26.4-9.8-49.1-18.8-68c2.1-2,3-3.5,3-3.5l-1.6-47.8	c11.2,11.1,25.9,21.1,44.6,26.4l2.1-7.3c1.7,1.7,6.1,6,10.8,9.3l-3.5,15.7l-0.8,3.6l1.2,8.5L360.1,980h4.6l32.1-145.1l5.3-5.9l1-4.3	l3.3-14.9c0.6-0.1,1.2-0.3,1.7-0.7c6.8-4.9,4.5-10.9,4.5-10.9s7.1-3,7.5-6.8c0.3-2.9-2.5-6.6-7.5-9.8l1.8-8.2	c0.6-2.8-0.9-5.7-3.7-6.6c-3.2-1.2-6.8,0.8-7.5,4.2l-1.4,6.3c-6.1-1.3-11.2-0.8-11.2-0.8l-1,2.8l1.8-6.1	c-38.4-11.1-53.7-52.2-55.3-56.8l-0.2-6.5c-0.2-4.9-2.9-9.4-7.1-11.9l-3.9-2.2c0,0,11.3-8.5-9.6-27.6c-1.7-1.5-3.6-2.8-5.6-3.9	c0.1,0,0.2,0,0.4,0c16.4,0,29.6-15.1,29.6-33.8c0-5.2-1-10.1-2.9-14.6c0.4-1.9,0.7-3.9,0.8-6c0.1-1.8-0.5-3.5-1.7-4.7	c-5.1-5.3-20.9-18.4-46.4-10.6c-10.2,3.1-15.8,5.3-18.4,7c-1.3-3.4-4.6-5.7-8.4-5.7c-5,0-9.1,4.1-9.1,9.1s4.1,9.1,9.1,9.1	c4.4,0,8-3.1,8.9-7.2c1.5,1,3.4,2.1,4.7,3.6c4.8,5.3-8.3,13.9,0.3,36.5c1,2.7,3.7,4.3,6.5,4c0.9-0.1,2-0.2,3.1-0.4	c0.7,1.1,1.5,2.2,2.3,3.1l0,0l-3,6c-12.1,0.2-24.5,3-32.8,5.3c-0.7,0.2-1.5,0.5-2.1,0.8c-10.5-20.8-12-42.2-4.4-63.8l-8-2.8	c1.2-1.7,5.7-7.1,13.2-6.7c1.9,0.1,3.6-1,4.3-2.8v0c0.8-1.7,0.4-3.8-1-5.1l-2.4-2.4c-1.3-1.3-1.7-3.2-1.1-4.8l4.3-11.7	c0.9-2.4-0.4-5.1-2.8-5.9c-8.1-2.7-25.6-3.6-32.5,33.2l-3.8-1.3c-11.6,33-7.7,66.9,11.2,97.9C228.5,690.9,229.4,692.3,230.4,693.7z"/><g><linearGradient id="SVGID_34_" x1="241.553" x2="241.553" y1="267.569" y2="181.105" gradientUnits="userSpaceOnUse"><stop offset=".01" style="stop-color:#fff;stop-opacity:0"/><stop offset=".99" style="stop-color:#fff;stop-opacity:.7"/></linearGradient><path fill="url(#SVGID_34_)" d="M252,203c-19-5-41-2-54-16c-1.9-1.9-3.6-3.9-5.2-5.9c7.9,47.6,48.2,84.2,97.4,86.5 c-0.1-8.1-1.3-16.3-3.3-24.6C283,224,270,208,252,203z"/><linearGradient id="SVGID_35_" x1="264.656" x2="264.656" y1="267.686" y2="73.43" gradientUnits="userSpaceOnUse"><stop offset=".01" style="stop-color:#fff;stop-opacity:0"/><stop offset=".99" style="stop-color:#fff;stop-opacity:.7"/></linearGradient><path fill="url(#SVGID_35_)" d="M336,214c2-4,3-11,0-14c-20-28-52-27-83-30c-18-2-23-24-17-41c4-14,10-27,20-39c1-2,1-5,0-6 c-3.7-3.5-7.6-7.1-11.5-10.6c-31.7,17.8-53.1,51.6-53.1,90.5c0,5.8,0.5,11.6,1.4,17.2c1.6,2,3.3,4,5.2,5.9c13,14,35,11,54,16 c18,5,31,21,35,40c2,8.2,3.1,16.5,3.3,24.6c1.6,0.1,3.2,0.1,4.9,0.1c10.9,0,21.5-1.7,31.4-4.8c-1.5-0.3-3-0.6-4.5-0.8 C321,244,329,229,336,214z"/><linearGradient id="SVGID_36_" x1="375.994" x2="375.994" y1="249.976" y2="151.937" gradientUnits="userSpaceOnUse"><stop offset=".01" style="stop-color:#fff;stop-opacity:0"/><stop offset=".99" style="stop-color:#fff;stop-opacity:.7"/></linearGradient><path fill="url(#SVGID_36_)" d="M376,152c-9,1-22,11-16,21c14.4,24.9,12.1,58.1-6.9,77c27.6-18.6,45.8-50.2,45.8-86 c0-2-0.1-3.9-0.2-5.9C391.6,153.9,383.8,151.5,376,152z"/><linearGradient id="SVGID_37_" x1="316.149" x2="316.149" y1="262.845" y2="60.221" gradientUnits="userSpaceOnUse"><stop offset=".01" style="stop-color:#fff;stop-opacity:0"/><stop offset=".99" style="stop-color:#fff;stop-opacity:.7"/></linearGradient><path fill="url(#SVGID_37_)" d="M382,115c-25-4-46,9-67,24c-12,9-44,5-41-15c3-21,17-37,23-56c0.9-2.7,1.2-5.3,1-7.7 c-1,0-1.9,0-2.9,0c-18.4,0-35.7,4.8-50.7,13.2c3.9,3.5,7.8,7,11.5,10.6c1,1,1,4,0,6c-10,12-16,25-20,39c-6,17-1,39,17,41 c31,3,63,2,83,30c3,3,2,10,0,14c-7,15-15,30-14,48c1.5,0.2,3,0.5,4.5,0.8c9.5-3,18.4-7.4,26.6-12.9c19-18.9,21.3-52.1,6.9-77 c-6-10,7-20,16-21c7.8-0.5,15.6,1.9,22.7,6.1c-0.8-14.8-4.8-28.8-11.2-41.3C385.8,115.9,384,115.3,382,115z"/><linearGradient id="SVGID_38_" x1="330.675" x2="330.675" y1="143.556" y2="60.262" gradientUnits="userSpaceOnUse"><stop offset=".015" style="stop-color:#fff;stop-opacity:.3"/><stop offset=".99" style="stop-color:#fff;stop-opacity:.7"/></linearGradient><path fill="url(#SVGID_38_)" d="M298,60.3c0.2,2.5-0.1,5.1-1,7.7c-6,19-20,35-23,56c-3,20,29,24,41,15c21-15,42-28,67-24 c2,0.3,3.8,0.9,5.5,1.8C370.8,84,337.1,61.3,298,60.3z"/></g></svg>