<?xml version="1.0" encoding="utf-8"?>
<svg id="master-artboard" viewBox="0 0 1400 980" version="1.1" xmlns="http://www.w3.org/2000/svg" x="0px" y="0px" enable-background="new 0 0 1400 980" width="1400px" height="980px" xmlns:xlink="http://www.w3.org/1999/xlink">
<g>
	<defs>
		<path d="M 0 0 H 1400 V 795 H 0 V 0 Z" id="XMLID_2_"/>
	</defs>
	<linearGradient id="XMLID_4_" gradientUnits="userSpaceOnUse" x1="700" y1="795" x2="700" y2="-3.142668e-008">
		<stop offset="0" style="stop-color:#DBF1C0"/>
		<stop offset="0.5153" style="stop-color:#33C9CB"/>
		<stop offset="1" style="stop-color:#339CCB"/>
	</linearGradient>
	<use overflow="visible" fill="url(#XMLID_4_)" xlink:href="#XMLID_2_"/>
	<clipPath id="XMLID_5_">
		<use overflow="visible" xlink:href="#XMLID_2_"/>
	</clipPath>
	<linearGradient id="SVGID_1_" gradientUnits="userSpaceOnUse" x1="365" y1="1088.3726" x2="365" y2="301.183">
		<stop offset="0" style="stop-color:#DBF1C0"/>
		<stop offset="1" style="stop-color:#FFFFFF"/>
	</linearGradient>
	<path d="M 758.600006 694.799988 A 393.600006 393.600006 0 0 1 365 1088.399994 A 393.600006 393.600006 0 0 1 -28.600006 694.799988 A 393.600006 393.600006 0 0 1 365 301.199982 A 393.600006 393.600006 0 0 1 758.600006 694.799988 Z" opacity="0.3" clip-path="url(#XMLID_5_)" fill="url(#SVGID_1_)"/>
	<linearGradient id="SVGID_2_" gradientUnits="userSpaceOnUse" x1="431.2306" y1="967.6652" x2="431.2306" y2="175.4755">
		<stop offset="0" style="stop-color:#DBF1C0"/>
		<stop offset="1" style="stop-color:#FFFFFF"/>
	</linearGradient>
	
		<path d="M 824.800018 571.599976 A 393.600006 393.600006 0 0 1 431.200012 965.199982 A 393.600006 393.600006 0 0 1 37.600006 571.599976 A 393.600006 393.600006 0 0 1 431.200012 177.999969 A 393.600006 393.600006 0 0 1 824.800018 571.599976 Z" opacity="0.3" clip-path="url(#XMLID_5_)" fill="none" stroke="url(#SVGID_2_)" stroke-width="5" stroke-miterlimit="10"/>
	<linearGradient id="SVGID_3_" gradientUnits="userSpaceOnUse" x1="365" y1="998.6965" x2="365" y2="374.4985">
		<stop offset="0" style="stop-color:#DBF1C0"/>
		<stop offset="1" style="stop-color:#FFFFFF"/>
	</linearGradient>
	
		<path d="M 674.600006 686.599976 A 309.600006 309.600006 0 0 1 365 996.199982 A 309.600006 309.600006 0 0 1 55.399994 686.599976 A 309.600006 309.600006 0 0 1 365 376.999969 A 309.600006 309.600006 0 0 1 674.600006 686.599976 Z" opacity="0.3" clip-path="url(#XMLID_5_)" fill="none" stroke="url(#SVGID_3_)" stroke-width="5" stroke-miterlimit="10"/>
	<linearGradient id="SVGID_4_" gradientUnits="userSpaceOnUse" x1="388.7603" y1="947" x2="388.7603" y2="441.5494">
		<stop offset="0" style="stop-color:#DBF1C0"/>
		<stop offset="1" style="stop-color:#FFFFFF"/>
	</linearGradient>
	<path d="M 641.499985 694.299988 A 252.699997 252.699997 0 0 1 388.799988 946.999985 A 252.699997 252.699997 0 0 1 136.099991 694.299988 A 252.699997 252.699997 0 0 1 388.799988 441.599991 A 252.699997 252.699997 0 0 1 641.499985 694.299988 Z" opacity="0.3" clip-path="url(#XMLID_5_)" fill="url(#SVGID_4_)"/>
	<linearGradient id="SVGID_5_" gradientUnits="userSpaceOnUse" x1="390.2908" y1="876.6301" x2="390.2908" y2="533.3428">
		<stop offset="0" style="stop-color:#DBF1C0"/>
		<stop offset="1" style="stop-color:#FFFFFF"/>
	</linearGradient>
	<path d="M 561.899994 705 A 171.600006 171.600006 0 0 1 390.299988 876.600006 A 171.600006 171.600006 0 0 1 218.699982 705 A 171.600006 171.600006 0 0 1 390.299988 533.399994 A 171.600006 171.600006 0 0 1 561.899994 705 Z" opacity="0.3" clip-path="url(#XMLID_5_)" fill="url(#SVGID_5_)"/>
</g>
<g>
	<defs>
		<path id="XMLID_1_" d="M0,785l357-142l155.7-53.7c12-4.1,22.6-11.4,30.9-21l115.7-134.7c3.8-4.4,7-9.2,9.6-14.3l86.2-170.7&#10;&#9;&#9;&#9;c7.7-15.2,20.6-27.2,36.3-33.7l0,0c15.3-6.4,27.9-17.8,35.6-32.4l48.3-90.8c4.1-7.6,14-9.8,20.9-4.6l90.4,68.5&#10;&#9;&#9;&#9;c13.2,10,22.6,24.4,26.4,40.5l39.9,169.1c2.8,11.8,8.5,22.6,16.6,31.6l137.9,152.2c2.5,2.8,5.3,5.4,8.2,7.7L1400,705v275H0V785z"/>
	</defs>
	<linearGradient id="XMLID_6_" gradientUnits="userSpaceOnUse" x1="0" y1="532.0585" x2="1400" y2="532.0585">
		<stop offset="0" style="stop-color:#33B5B7"/>
		<stop offset="0.3223" style="stop-color:#36B6B9"/>
		<stop offset="0.5364" style="stop-color:#3FBBBF"/>
		<stop offset="0.7191" style="stop-color:#4EC2CA"/>
		<stop offset="0.8832" style="stop-color:#63CDD9"/>
		<stop offset="1" style="stop-color:#77D7E7"/>
	</linearGradient>
	<use overflow="visible" fill="url(#XMLID_6_)" xlink:href="#XMLID_1_"/>
	<clipPath id="XMLID_7_">
		<use overflow="visible" xlink:href="#XMLID_1_"/>
	</clipPath>
	<linearGradient id="SVGID_6_" gradientUnits="userSpaceOnUse" x1="444.6145" y1="980" x2="444.6145" y2="63">
		<stop offset="0" style="stop-color:#33A6B7"/>
		<stop offset="0.2396" style="stop-color:#35ABB8"/>
		<stop offset="0.5307" style="stop-color:#3ABABC"/>
		<stop offset="0.8473" style="stop-color:#42D2C2"/>
		<stop offset="1" style="stop-color:#47E1C5"/>
	</linearGradient>
	<path clip-path="url(#XMLID_7_)" fill="url(#SVGID_6_)" d="M867,63l17.6,64.4c11.5,42.3,1.4,87.6-27.1,120.9l0,0&#10;&#9;&#9;c-16,18.8-26.5,41.6-30.2,66l-34.2,223.2c-4,25.8-15.4,49.8-32.9,69.1L571.6,813.9c-3.1,3.4-6.3,6.6-9.7,9.6L387,980H0V785l539-236&#10;&#9;&#9;l112-130l92-242c0,0,38,8,46,0S867,63,867,63z"/>
	<linearGradient id="SVGID_7_" gradientUnits="userSpaceOnUse" x1="382.1302" y1="780.5447" x2="382.1302" y2="592.1383">
		<stop offset="0" style="stop-color:#80DCEB"/>
		<stop offset="1" style="stop-color:#B9F2F0"/>
	</linearGradient>
	<path clip-path="url(#XMLID_7_)" fill="url(#SVGID_7_)" d="M711.3,592.8c-1.3-0.4-2.2-0.7-2.8-0.7c-5.2,0-118,26.4-159.5,36.1&#10;&#9;&#9;c-9.7,2.3-19.9,0.8-28.5-4.1l-37.8-21.5c-10.4-5.9-23-6.8-34.1-2.4L26.3,762.6C45,767.6,63.9,772.4,83,777c27,6,53,3,80,1&#10;&#9;&#9;c3,0,7-4,10-4c86-6,172-28,248-75c33-20,71-33,104-13c14,8,20,44,42,40c6-1,11-2,16-4c6-3,10-1,14-4c11-7,23-11,32-21c1-1,4,1,6,0&#10;&#9;&#9;c29-19,55-37,88-45c3.1-0.7,6.2-1.1,9.2-1.4C744.8,630.1,736.2,601.1,711.3,592.8z"/>
	<linearGradient id="SVGID_8_" gradientUnits="userSpaceOnUse" x1="524.0892" y1="831.0264" x2="524.0892" y2="733.183">
		<stop offset="0" style="stop-color:#80DCEB"/>
		<stop offset="1" style="stop-color:#B9F2F0"/>
	</linearGradient>
	<path clip-path="url(#XMLID_7_)" fill="url(#SVGID_8_)" d="M573,776c-26,13-42-25-64-32c-7-2-14-6-22-2c-33,17-54,47-88,62&#10;&#9;&#9;c-0.5,0.2-1,0.4-1.4,0.7l75.9,24.4c8.4,2.7,17.5,2.5,25.7-0.5l116.7-43.1c10.5-3.9,18.9-12.1,23-22.5l11.8-29.8&#10;&#9;&#9;C633,749.9,614.9,763.5,593,774C587,777,579,773,573,776z"/>
	<linearGradient id="SVGID_9_" gradientUnits="userSpaceOnUse" x1="366.0993" y1="867" x2="366.0993" y2="650.5854">
		<stop offset="0" style="stop-color:#80DCEB"/>
		<stop offset="1" style="stop-color:#B9F2F0"/>
	</linearGradient>
	<path clip-path="url(#XMLID_7_)" fill="url(#SVGID_9_)" d="M667.7,704.6l55.2-43.5c3.9-3,7-6.6,9.3-10.4c-3,0.3-6.1,0.8-9.2,1.4&#10;&#9;&#9;c-33,8-59,26-88,45c-2,1-5-1-6,0c-9,10-21,14-32,21c-4,3-8,1-14,4c-5,2-10,3-16,4c-22,4-28-32-42-40c-33-20-71-7-104,13&#10;&#9;&#9;c-76,47-162,69-248,75c-3,0-7,4-10,4c-27,2-53,5-80-1c-19.1-4.6-38-9.4-56.7-14.4L0,772.8V867l338.8-76.5&#10;&#9;&#9;c6.3-1.1,12.7-0.6,18.8,1.3l40,12.9c0.5-0.3,1-0.5,1.4-0.7c34-15,55-45,88-62c8-4,15,0,22,2c22,7,38,45,64,32c6-3,14,1,20-2&#10;&#9;&#9;c21.9-10.5,40-24.1,57.6-40.8l4.8-12.2C658,714.5,662.2,708.9,667.7,704.6z"/>
	<linearGradient id="SVGID_10_" gradientUnits="userSpaceOnUse" x1="1200.5" y1="980" x2="1200.5" y2="841.7987">
		<stop offset="0" style="stop-color:#80DCEB"/>
		<stop offset="1" style="stop-color:#B9F2F0"/>
	</linearGradient>
	<path clip-path="url(#XMLID_7_)" fill="url(#SVGID_10_)" d="M1385,892c-2-1-1-6-3-9c-8-12-7-25-9-38c-1-1-3-4-4-3c-13,2-27-3-37,3&#10;&#9;&#9;c-14,8-26,18-36,30c-25,29-52,53-84,70c-18.3,10.1-23.2-12.6-32.4-26.5c-1.4,0-2.8-0.1-4.2-0.1l-3.3-0.2&#10;&#9;&#9;c-12.6-0.8-25.1,1.3-36.8,6.1L1001,980h399v-92c-1.7,1.3-3.4,2.6-5,4C1392,894,1388,894,1385,892z"/>
	<linearGradient id="SVGID_11_" gradientUnits="userSpaceOnUse" x1="1289.8063" y1="947.5063" x2="1289.8063" y2="674.2614">
		<stop offset="0" style="stop-color:#80DCEB"/>
		<stop offset="1" style="stop-color:#B9F2F0"/>
	</linearGradient>
	<path clip-path="url(#XMLID_7_)" fill="url(#SVGID_11_)" d="M1391,688.8c-46.9-32.2-111.6-8.5-126.6,46.5L1253,777l8.6,42.4&#10;&#9;&#9;c10.5,51.9-29.7,99.8-82,99.2c9.2,13.9,14.1,36.6,32.4,26.5c32-17,59-41,84-70c10-12,22-22,36-30c10-6,24-1,37-3c1-1,3,2,4,3&#10;&#9;&#9;c2,13,1,26,9,38c2,3,1,8,3,9c3,2,7,2,10,0c1.6-1.3,3.3-2.7,5-4V695L1391,688.8z"/>
	<linearGradient id="SVGID_12_" gradientUnits="userSpaceOnUse" x1="1087.2933" y1="659.0817" x2="1087.2933" y2="365.0804">
		<stop offset="0" style="stop-color:#33A6B7"/>
		<stop offset="1" style="stop-color:#47E1C5"/>
	</linearGradient>
	<path clip-path="url(#XMLID_7_)" fill="url(#SVGID_12_)" d="M1052.8,365.1l30.4,136.6c0.4,2,0.1,4.1-0.9,5.8l-53.1,89.4&#10;&#9;&#9;c-1.4,2.4-4.1,3.9-6.9,3.9h-43.5c-8.2,0-11.1,10.9-4,14.9l73.1,42.2c2.9,1.7,6.6,1.4,9.2-0.8l146.8-125.1L1052.8,365.1z"/>
	<linearGradient id="SVGID_13_" gradientUnits="userSpaceOnUse" x1="964.0137" y1="344.3789" x2="964.0137" y2="39.2812">
		<stop offset="0" style="stop-color:#80DCEB"/>
		<stop offset="1" style="stop-color:#B9F2F0"/>
	</linearGradient>
	<path clip-path="url(#XMLID_7_)" fill="url(#SVGID_13_)" d="M875.3,91.6l51.8,93.8c0.5,1,0.9,2,1,3.1l4.1,31.4&#10;&#9;&#9;c7.1,0,13.9,0.9,19.8,4.1c9,5,17,6,25,11c25,19,30,48,40,75c4,14,13,27,28,32c2.7,0.7,5,1.4,7.8,2.4v-82.6&#10;&#9;&#9;C1052.8,261.8,954.7-90.6,875.3,91.6z"/>
	<linearGradient id="SVGID_14_" gradientUnits="userSpaceOnUse" x1="1001.418" y1="450.4852" x2="1001.4181" y2="335.75">
		<stop offset="0" style="stop-color:#80DCEB"/>
		<stop offset="1" style="stop-color:#B9F2F0"/>
	</linearGradient>
	<path clip-path="url(#XMLID_7_)" fill="url(#SVGID_14_)" d="M986,338c-3-3-10-3-12,0c-4.6,5.6-9.7,11-15.2,15.3l42.1,92.1&#10;&#9;&#9;c3.1,6.8,12.7,6.7,15.8,0l27.3-60.8C1022.6,373.3,1006.9,352.4,986,338z"/>
	<linearGradient id="SVGID_15_" gradientUnits="userSpaceOnUse" x1="992.465" y1="384.6213" x2="992.465" y2="219.8656">
		<stop offset="0" style="stop-color:#80DCEB"/>
		<stop offset="1" style="stop-color:#B9F2F0"/>
	</linearGradient>
	<path clip-path="url(#XMLID_7_)" fill="url(#SVGID_15_)" d="M974,338c2-3,9-3,12,0c20.9,14.4,36.6,35.3,58,46.6l8.8-19.5v-20.7&#10;&#9;&#9;c-2.8-1-5-1.7-7.8-2.4c-15-5-24-18-28-32c-10-27-15-56-40-75c-8-5-16-6-25-11c-6-3.2-12.8-4.1-19.8-4.1l13.7,104.9l13,28.5&#10;&#9;&#9;C964.3,349,969.4,343.6,974,338z"/>
	<linearGradient id="SVGID_16_" gradientUnits="userSpaceOnUse" x1="1053.8229" y1="365.0804" x2="1053.8229" y2="365.0804">
		<stop offset="0" style="stop-color:#80DCEB"/>
		<stop offset="1" style="stop-color:#B9F2F0"/>
	</linearGradient>
	<path clip-path="url(#XMLID_7_)" fill="url(#SVGID_16_)" d="M1053.8,365.1"/>
	<linearGradient id="SVGID_17_" gradientUnits="userSpaceOnUse" x1="948.9362" y1="948.3108" x2="948.9362" y2="855.195">
		<stop offset="0" style="stop-color:#80DCEB"/>
		<stop offset="1" style="stop-color:#B9F2F0"/>
	</linearGradient>
	<path clip-path="url(#XMLID_7_)" fill="url(#SVGID_17_)" d="M1107,866.2l-73-10.9c-1.2-0.2-2.5-0.1-3.7,0.3l-246,84.5&#10;&#9;&#9;c1.8,1.2,3.7,2.2,5.7,2.9c25,11,52,2,79-5c7-2,13-3,20-4c17,0,29-14,46-17c5,0,12-1,13,1c3,6,0,15,2,23c1.3,4.4,4.3,6.5,8,7.3&#10;&#9;&#9;l117-62.9c0.7-0.3,1.4-0.5,2.2-0.6l29.5-3.3C1115.7,880.6,1116,867.5,1107,866.2z"/>
	<linearGradient id="SVGID_18_" gradientUnits="userSpaceOnUse" x1="813.0162" y1="980" x2="813.0162" y2="916.75">
		<stop offset="0" style="stop-color:#80DCEB"/>
		<stop offset="1" style="stop-color:#B9F2F0"/>
	</linearGradient>
	<path clip-path="url(#XMLID_7_)" fill="url(#SVGID_18_)" d="M950,941c-2-8,1-17-2-23c-1-2-8-1-13-1c-17,3-29,17-46,17&#10;&#9;&#9;c-7,1-13,2-20,4c-27,7-54,16-79,5c-2-0.7-3.9-1.7-5.7-2.9L668,980h231l59-31.7C954.3,947.5,951.3,945.4,950,941z"/>
	<linearGradient id="SVGID_19_" gradientUnits="userSpaceOnUse" x1="967.3016" y1="473.7565" x2="967.3016" y2="392.0364">
		<stop offset="0" style="stop-color:#80DCEB"/>
		<stop offset="1" style="stop-color:#B9F2F0"/>
	</linearGradient>
	<path clip-path="url(#XMLID_7_)" fill="url(#SVGID_19_)" d="M973,459c1-2-1-6,0-8c1-1,5-1,6,0c4,5,4,13,9,17&#10;&#9;&#9;c2.1,1.9,4.2,3.9,6.3,5.8c1-2.7,0.8-5.7-0.5-8.4L960.1,398c-3.3-6.6-12-8-17.2-2.8c-2.5,2.5-3.6,6.1-3,9.5l6.8,36.8&#10;&#9;&#9;c5.6,4.9,11.3,9.8,17.3,14.5C965,457,970,461,973,459z"/>
	<linearGradient id="SVGID_20_" gradientUnits="userSpaceOnUse" x1="970.4954" y1="498.5568" x2="970.4954" y2="441.5486">
		<stop offset="0" style="stop-color:#80DCEB"/>
		<stop offset="1" style="stop-color:#B9F2F0"/>
	</linearGradient>
	<path clip-path="url(#XMLID_7_)" fill="url(#SVGID_20_)" d="M988,468c-5-4-5-12-9-17c-1-1-5-1-6,0c-1,2,1,6,0,8c-3,2-8-2-9-3&#10;&#9;&#9;c-6-4.7-11.7-9.5-17.3-14.5l6.2,33.2c0.3,1.9,1.2,3.6,2.5,5.1l13.1,15c5.2,5.9,14.8,4.5,17.9-2.8l7.7-17.6c0.1-0.2,0.2-0.5,0.3-0.7&#10;&#9;&#9;C992.2,471.9,990.1,469.9,988,468z"/>
	<linearGradient id="SVGID_21_" gradientUnits="userSpaceOnUse" x1="630.1823" y1="791.2708" x2="630.1823" y2="783.7501">
		<stop offset="0" style="stop-color:#80DCEB"/>
		<stop offset="1" style="stop-color:#B9F2F0"/>
	</linearGradient>
	<path clip-path="url(#XMLID_7_)" fill="url(#SVGID_21_)" d="M628.1,788c-1.4,0.8-2.4,2-3,3.3c3.7-1.8,7-4.6,10.2-7.5L628.1,788z"/>
	<linearGradient id="SVGID_22_" gradientUnits="userSpaceOnUse" x1="650.54" y1="811.9023" x2="650.54" y2="768.6758">
		<stop offset="0" style="stop-color:#80DCEB"/>
		<stop offset="1" style="stop-color:#B9F2F0"/>
	</linearGradient>
	<path clip-path="url(#XMLID_7_)" fill="url(#SVGID_22_)" d="M670,770c-4-3-15-1-21,7c-0.5,0.5-1.4,0.3-2.5,0l-11.3,6.7&#10;&#9;&#9;c-3.2,3-6.4,5.8-10.2,7.5c-1.7,3.4-0.8,7.9,2.8,10.2l14.3,9.2c2.6,1.7,6,1.7,8.6-0.1l21.4-14c1.9-1.3,3.2-3.3,3.5-5.5l1.1-7.9&#10;&#9;&#9;C673,780.3,672.6,772.6,670,770z"/>
	<linearGradient id="SVGID_23_" gradientUnits="userSpaceOnUse" x1="665.6435" y1="783.0821" x2="665.6435" y2="716.7497">
		<stop offset="0" style="stop-color:#80DCEB"/>
		<stop offset="1" style="stop-color:#B9F2F0"/>
	</linearGradient>
	<path clip-path="url(#XMLID_7_)" fill="url(#SVGID_23_)" d="M676.8,716.7c-3.4,0-6.4,2.2-7.5,5.4l-16.9,49.2&#10;&#9;&#9;c-0.6,1.8-1.8,3.3-3.4,4.2l-2.4,1.5c1.1,0.2,2,0.4,2.5,0c6-8,17-10,21-7c2.6,2.6,3,10.3,6.8,13.1l7.8-57.3&#10;&#9;&#9;C685.3,721,681.6,716.7,676.8,716.7z"/>
</g>
<linearGradient id="SVGID_24_" gradientUnits="userSpaceOnUse" x1="1052.7737" y1="365.0804" x2="1052.7737" y2="365.0804">
	<stop offset="0" style="stop-color:#80DCEB"/>
	<stop offset="1" style="stop-color:#B9F2F0"/>
</linearGradient>
<path fill="url(#SVGID_24_)" d="M1052.8,365.1"/>
<linearGradient id="SVGID_25_" gradientUnits="userSpaceOnUse" x1="456.9379" y1="357" x2="456.9379" y2="280.545">
	<stop offset="0" style="stop-color:#B4EBFF"/>
	<stop offset="0.1926" style="stop-color:#ADE8FC"/>
	<stop offset="0.465" style="stop-color:#9BE0F5"/>
	<stop offset="0.7833" style="stop-color:#7DD4E9"/>
	<stop offset="1" style="stop-color:#64C9DF"/>
</linearGradient>
<path fill="url(#SVGID_25_)" d="M591.1,337c-2-2-1-6-3-7c-10-8-23-3-33,5c0-3,1-8-1-9c-7-5-8-16-12-17c-21-6-43,9-65,15&#10;&#9;c-1,0-4,4-5,3c-8.6-15.9-22-27-37-34.6c1.1,3,2,4.6,2,4.6s-10-22.8-24-14.8s-17.8,16.3-22,22.8c-14.9,22.6-1.9,29.2-0.2,29.9&#10;&#9;c0.1,0,0.2,0.1,0.2,0.1s-0.1,0-0.2-0.1c-4.1-1.7-79.8-32.4-79.8,22.1h206h85.7C600.8,349.5,597,342.6,591.1,337z"/>
<linearGradient id="SVGID_26_" gradientUnits="userSpaceOnUse" x1="330.9095" y1="335" x2="330.9095" y2="334.9244">
	<stop offset="0" style="stop-color:#33C9CB"/>
	<stop offset="1" style="stop-color:#339CCB"/>
</linearGradient>
<path fill="url(#SVGID_26_)" d="M330.8,334.9c0.1,0.1,0.2,0.1,0.2,0.1S330.9,335,330.8,334.9z"/>
<linearGradient id="SVGID_27_" gradientUnits="userSpaceOnUse" x1="600.1537" y1="357" x2="600.1537" y2="193.8593">
	<stop offset="0" style="stop-color:#B4EBFF"/>
	<stop offset="0.1926" style="stop-color:#ADE8FC"/>
	<stop offset="0.465" style="stop-color:#9BE0F5"/>
	<stop offset="0.7833" style="stop-color:#7DD4E9"/>
	<stop offset="1" style="stop-color:#64C9DF"/>
</linearGradient>
<path fill="url(#SVGID_27_)" d="M699.1,267c-68,20-80,43.8-80,43.8s-24-145.8-120-111.8c-80.5,28.5-69.6,78.1-64,93.4&#10;&#9;c15,7.6,28.3,18.8,37,34.6c1,1,4-3,5-3c22-6,44-21,65-15c4,1,5,12,12,17c2,1,1,6,1,9c10-8,23-13,33-5c2,1,1,5,3,7&#10;&#9;c5.9,5.6,9.7,12.5,11.7,20h166.3C769.1,357,767.1,247,699.1,267z"/>
<linearGradient id="SVGID_28_" gradientUnits="userSpaceOnUse" x1="1087.8611" y1="571.5703" x2="1087.8611" y2="495.1154" gradientTransform="matrix(-1 0 0 1 2342 0)">
	<stop offset="0" style="stop-color:#33B5CB"/>
	<stop offset="7.123619e-002" style="stop-color:#4EC0D6"/>
	<stop offset="0.1714" style="stop-color:#6ECDE3"/>
	<stop offset="0.281" style="stop-color:#87D8ED"/>
	<stop offset="0.4016" style="stop-color:#9BE1F5"/>
	<stop offset="0.5392" style="stop-color:#A9E7FB"/>
	<stop offset="0.7081" style="stop-color:#B2EAFE"/>
	<stop offset="1" style="stop-color:#B4EBFF"/>
</linearGradient>
<path fill="url(#SVGID_28_)" d="M1120,551.6c2-2,1-6,3-7c10-8,23-3,33,5c0-3-1-8,1-9c7-5,8-16,12-17c21-6,43,9,65,15c1,0,4,4,5,3&#10;&#9;c8.6-15.9,22-27,37-34.6c-1.1,3-2,4.6-2,4.6s10-22.8,24-14.8s17.8,16.3,22,22.7c14.9,22.6,1.9,29.2,0.2,29.9c-0.1,0-0.2,0.1-0.2,0.1&#10;&#9;s0.1,0,0.2-0.1c4.1-1.7,79.8-32.4,79.8,22.1h-206h-85.7C1110.3,564.1,1114.1,557.1,1120,551.6z"/>
<linearGradient id="SVGID_29_" gradientUnits="userSpaceOnUse" x1="1231.0769" y1="571.5703" x2="1231.0769" y2="408.4297" gradientTransform="matrix(-1 0 0 1 2342 0)">
	<stop offset="0" style="stop-color:#33B5CB"/>
	<stop offset="7.123619e-002" style="stop-color:#4EC0D6"/>
	<stop offset="0.1714" style="stop-color:#6ECDE3"/>
	<stop offset="0.281" style="stop-color:#87D8ED"/>
	<stop offset="0.4016" style="stop-color:#9BE1F5"/>
	<stop offset="0.5392" style="stop-color:#A9E7FB"/>
	<stop offset="0.7081" style="stop-color:#B2EAFE"/>
	<stop offset="1" style="stop-color:#B4EBFF"/>
</linearGradient>
<path fill="url(#SVGID_29_)" d="M1012,481.6c68,20,80,43.8,80,43.8s24-145.8,120-111.8c80.5,28.5,69.6,78.1,64,93.4&#10;&#9;c-15,7.6-28.3,18.8-37,34.6c-1,1-4-3-5-3c-22-6-44-21-65-15c-4,1-5,12-12,17c-2,1-1,6-1,9c-10-8-23-13-33-5c-2,1-1,5-3,7&#10;&#9;c-5.9,5.6-9.7,12.5-11.7,20H942C942,571.6,944,461.6,1012,481.6z"/>
<linearGradient id="SVGID_30_" gradientUnits="userSpaceOnUse" x1="82.1351" y1="799" x2="82.1351" y2="590.5555">
	<stop offset="0" style="stop-color:#33B5CB"/>
	<stop offset="7.123619e-002" style="stop-color:#4EC0D6"/>
	<stop offset="0.1714" style="stop-color:#6ECDE3"/>
	<stop offset="0.281" style="stop-color:#87D8ED"/>
	<stop offset="0.4016" style="stop-color:#9BE1F5"/>
	<stop offset="0.5392" style="stop-color:#A9E7FB"/>
	<stop offset="0.7081" style="stop-color:#B2EAFE"/>
	<stop offset="1" style="stop-color:#B4EBFF"/>
</linearGradient>
<path fill="url(#SVGID_30_)" d="M57,777c13,0,21,17,34,22c0-7-1-15,0-22c1-2,4-4,4-6c-1-12,2-26,14-29c11-3,22-3,32,2c6,3,11,3,16,3&#10;&#9;c-1.9-18.4-0.6-40.8,7.3-58.8c-7.3-7.8-22-24.9-51.3-61.2c-66-82-113,0-113,0v145.8C19.1,772.5,39.4,776.5,57,777z"/>
<linearGradient id="SVGID_31_" gradientUnits="userSpaceOnUse" x1="182.5" y1="817" x2="182.5" y2="656.1136">
	<stop offset="0" style="stop-color:#33B5CB"/>
	<stop offset="7.123619e-002" style="stop-color:#4EC0D6"/>
	<stop offset="0.1714" style="stop-color:#6ECDE3"/>
	<stop offset="0.281" style="stop-color:#87D8ED"/>
	<stop offset="0.4016" style="stop-color:#9BE1F5"/>
	<stop offset="0.5392" style="stop-color:#A9E7FB"/>
	<stop offset="0.7081" style="stop-color:#B2EAFE"/>
	<stop offset="1" style="stop-color:#B4EBFF"/>
</linearGradient>
<path fill="url(#SVGID_31_)" d="M365,817c-4-36-53.9-22-53.9-22s9.9-18,0-58c-9.9-40-60.1,0-60.1,0s8-48-24-74s-56,30-56,30&#10;&#9;s2.5,5-6.7-4.8c-7.8,18-9.2,40.4-7.3,58.8c-5,0-10,0-16-3c-10-5-21-5-32-2c-12,3-15,17-14,29c0,2-3,4-4,6c-1,7,0,15,0,22&#10;&#9;c-13-5-21-22-34-22c-17.6-0.5-37.9-4.5-57-4.2V817H365z"/>
<linearGradient id="SVGID_32_" gradientUnits="userSpaceOnUse" x1="718" y1="408.4297" x2="718" y2="357">
	<stop offset="0" style="stop-color:#86B0D4;stop-opacity:0"/>
	<stop offset="0.1886" style="stop-color:#7EACD0;stop-opacity:0.132"/>
	<stop offset="0.4738" style="stop-color:#6AA1C4;stop-opacity:0.3316"/>
	<stop offset="0.8184" style="stop-color:#488EB0;stop-opacity:0.5729"/>
	<stop offset="1" style="stop-color:#3383A4;stop-opacity:0.7"/>
</linearGradient>
<path fill="url(#SVGID_32_)" d="M675,408.4l25-51.4h61C761,357,727,404.9,675,408.4z"/>
<linearGradient id="SVGID_33_" gradientUnits="userSpaceOnUse" x1="1110.9231" y1="612.5555" x2="1110.9231" y2="571.5703">
	<stop offset="0" style="stop-color:#86B0D4;stop-opacity:0"/>
	<stop offset="0.1886" style="stop-color:#7EACD0;stop-opacity:0.132"/>
	<stop offset="0.4738" style="stop-color:#6AA1C4;stop-opacity:0.3316"/>
	<stop offset="0.8184" style="stop-color:#488EB0;stop-opacity:0.5729"/>
	<stop offset="1" style="stop-color:#3383A4;stop-opacity:0.7"/>
</linearGradient>
<path fill="url(#SVGID_33_)" d="M942,571.6h294l43.8,37.4c0,0-57.8,8-73.8,0s-35-21-35-21s-10,43.1-79,4.1&#10;&#9;C1092,592.1,971,601.1,942,571.6z"/>
<linearGradient id="SVGID_34_" gradientUnits="userSpaceOnUse" x1="182.5" y1="897.8599" x2="182.5" y2="817">
	<stop offset="0" style="stop-color:#86B0D4;stop-opacity:0"/>
	<stop offset="0.1886" style="stop-color:#7EACD0;stop-opacity:0.132"/>
	<stop offset="0.4738" style="stop-color:#6AA1C4;stop-opacity:0.3316"/>
	<stop offset="0.8184" style="stop-color:#488EB0;stop-opacity:0.5729"/>
	<stop offset="1" style="stop-color:#3383A4;stop-opacity:0.7"/>
</linearGradient>
<path fill="url(#SVGID_34_)" d="M365,817H0v80.9c0,0,70.5,0,82.1-40.4c0,0,48.1,40.4,100.4,0C182.5,857.4,339.2,874.2,365,817z"/>
</svg>