<?xml version="1.0" encoding="utf-8"?>
<svg id="master-artboard" viewBox="0 0 1400 980" version="1.1" xmlns="http://www.w3.org/2000/svg" x="0px" y="0px" style="enable-background:new 0 0 1400 980;" width="1400px" height="980px" xmlns:xlink="http://www.w3.org/1999/xlink">

<radialGradient id="SVGID_1_" cx="700" cy="490" r="1003.0098" gradientUnits="userSpaceOnUse">
	<stop offset="0" style="stop-color:#D6B8E9"/>
	<stop offset="0.3707" style="stop-color:#C4D2F4"/>
	<stop offset="0.678" style="stop-color:#B3EAFF"/>
	<stop offset="0.7493" style="stop-color:#BEEDFF"/>
	<stop offset="0.8745" style="stop-color:#DBF5FF"/>
	<stop offset="1" style="stop-color:#FFFFFF"/>
</radialGradient>
<path d="M 0 0 H 1400 V 980 H 0 V 0 Z" class="st0" style="fill: url('#SVGID_1_');"/>
<g>
	<defs>
		<path d="M 0 0 H 1400 V 980 H 0 V 0 Z" id="SVGID_2_"/>
	</defs>
	<clipPath id="SVGID_3_">
		<use style="overflow:visible;" xlink:href="#SVGID_2_"/>
	</clipPath>
	<radialGradient id="SVGID_4_" cx="1159.9104" cy="245.0805" r="230.5457" gradientUnits="userSpaceOnUse">
		<stop offset="0" style="stop-color:#FF4272"/>
		<stop offset="0.1199" style="stop-color:#FF4772"/>
		<stop offset="0.2676" style="stop-color:#FF5673"/>
		<stop offset="0.4299" style="stop-color:#FF6F75"/>
		<stop offset="0.6027" style="stop-color:#FF9277"/>
		<stop offset="0.7838" style="stop-color:#FFBF7A"/>
		<stop offset="0.9693" style="stop-color:#FFF57D"/>
		<stop offset="1" style="stop-color:#FFFF7E"/>
	</radialGradient>
	<path d="M 1303.500031 245.100006 A 143.600006 143.600006 0 0 1 1159.900024 388.700012 A 143.600006 143.600006 0 0 1 1016.300018 245.100006 A 143.600006 143.600006 0 0 1 1159.900024 101.5 A 143.600006 143.600006 0 0 1 1303.500031 245.100006 Z" class="st1" style="clip-path: url('#SVGID_3_'); fill: url('#SVGID_4_');"/>
	<linearGradient id="SVGID_5_" gradientUnits="userSpaceOnUse" x1="1220.5" y1="980" x2="1220.5" y2="525">
		<stop offset="0" style="stop-color:#A5F1FE"/>
		<stop offset="1" style="stop-color:#FFFFFF"/>
	</linearGradient>
	<path d="M 1051 767 L 1223 525 L 1400 708.5 L 1400 980 L 1041 977" class="st2" style="clip-path: url('#SVGID_3_'); fill: url('#SVGID_5_');"/>
	<linearGradient id="SVGID_6_" gradientUnits="userSpaceOnUse" x1="1310.25" y1="980" x2="1310.25" y2="528.5174">
		<stop offset="0" style="stop-color:#A5F1FE"/>
		<stop offset="2.518517e-02" style="stop-color:#AAF2FE"/>
		<stop offset="0.1912" style="stop-color:#C9F7FE"/>
		<stop offset="0.3657" style="stop-color:#E1FAFF"/>
		<stop offset="0.5501" style="stop-color:#F2FDFF"/>
		<stop offset="0.7512" style="stop-color:#FCFEFF"/>
		<stop offset="1" style="stop-color:#FFFFFF"/>
	</linearGradient>
	<path d="M 1220.5 528.5 L 1400 890.5999755859375 L 1400 980 L 1240.0999755859375 980 Z" class="st3" style="clip-path: url('#SVGID_3_'); fill: url('#SVGID_6_');"/>
	<linearGradient id="SVGID_7_" gradientUnits="userSpaceOnUse" x1="1065" y1="980" x2="1065" y2="437">
		<stop offset="0" style="stop-color:#A5F1FE"/>
		<stop offset="1" style="stop-color:#FFFFFF"/>
	</linearGradient>
	<path d="M 847 980 L 1024 437 L 1283 980 Z" class="st4" style="clip-path: url('#SVGID_3_'); fill: url('#SVGID_7_');"/>
	<linearGradient id="SVGID_8_" gradientUnits="userSpaceOnUse" x1="741.25" y1="980" x2="741.25" y2="170">
		<stop offset="0" style="stop-color:#A5F1FE"/>
		<stop offset="1" style="stop-color:#FFFFFF"/>
	</linearGradient>
	<path d="M 329.20001220703125 782.5 L 626 170 L 741 247 L 861 263 L 1187 980 L 295.5 980 Z" class="st5" style="clip-path: url('#SVGID_3_'); fill: url('#SVGID_8_');"/>
	<linearGradient id="SVGID_9_" gradientUnits="userSpaceOnUse" x1="246.5" y1="980" x2="246.5" y2="419">
		<stop offset="0" style="stop-color:#A5F1FE"/>
		<stop offset="0.5848" style="stop-color:#DCFAFF"/>
		<stop offset="1" style="stop-color:#FFFFFF"/>
	</linearGradient>
	<path d="M 0 835 L 211.5 419 L 493 980" class="st6" style="clip-path: url('#SVGID_3_'); fill: url('#SVGID_9_');"/>
	<path class="st7" d="M572.3,383.5c-1.6,0-3.2,0.1-4.9,0.1c-15.5-9.7-33.8-15.3-53.4-15.3c-32.9,0-62.2,15.7-80.6,40.1&#10;&#9;&#9;c-1.4-0.1-2.8-0.2-4.2-0.2c-33.8,0-61.2,27.4-61.2,61.2h44.9h73.4h4.1h124.8h43.2C658.3,422.1,619.8,383.5,572.3,383.5z" style="opacity: 0.2; clip-path: url('#SVGID_3_'); fill: rgb(166, 241, 254);"/>
	<linearGradient id="SVGID_10_" gradientUnits="userSpaceOnUse" x1="203.25" y1="980" x2="203.25" y2="419">
		<stop offset="0" style="stop-color:#A5F1FE"/>
		<stop offset="7.033563e-02" style="stop-color:#B7F4FE"/>
		<stop offset="0.1976" style="stop-color:#D1F8FE"/>
		<stop offset="0.3381" style="stop-color:#E6FBFF"/>
		<stop offset="0.4963" style="stop-color:#F4FDFF"/>
		<stop offset="0.6873" style="stop-color:#FCFFFF"/>
		<stop offset="1" style="stop-color:#FFFFFF"/>
	</linearGradient>
	<path d="M 211.5 419 L 111 980 L 295.5 980 Z" class="st8" style="clip-path: url('#SVGID_3_'); fill: url('#SVGID_10_');"/>
	<linearGradient id="SVGID_11_" gradientUnits="userSpaceOnUse" x1="329.17" y1="980" x2="329.17" y2="490">
		<stop offset="0" style="stop-color:#A5F1FE"/>
		<stop offset="0.5848" style="stop-color:#DCFAFF"/>
		<stop offset="1" style="stop-color:#FFFFFF"/>
	</linearGradient>
	<path d="M 62.900001525878906 675.5999755859375 L 393 490 L 658.2999877929688 980 L 0 980 Z" class="st9" style="clip-path: url('#SVGID_3_'); fill: url('#SVGID_11_');"/>
	<linearGradient id="SVGID_12_" gradientUnits="userSpaceOnUse" x1="309" y1="980" x2="309" y2="490">
		<stop offset="0" style="stop-color:#A5F1FE"/>
		<stop offset="7.033563e-02" style="stop-color:#B7F4FE"/>
		<stop offset="0.1976" style="stop-color:#D1F8FE"/>
		<stop offset="0.3381" style="stop-color:#E6FBFF"/>
		<stop offset="0.4963" style="stop-color:#F4FDFF"/>
		<stop offset="0.6873" style="stop-color:#FCFFFF"/>
		<stop offset="1" style="stop-color:#FFFFFF"/>
	</linearGradient>
	<path d="M 393 490 L 111 980 L 507 980 Z" class="st10" style="clip-path: url('#SVGID_3_'); fill: url('#SVGID_12_');"/>
	<linearGradient id="SVGID_13_" gradientUnits="userSpaceOnUse" x1="295.5" y1="980" x2="295.5" y2="585">
		<stop offset="0" style="stop-color:#A5F1FE"/>
		<stop offset="0.5848" style="stop-color:#DCFAFF"/>
		<stop offset="1" style="stop-color:#FFFFFF"/>
	</linearGradient>
	<path d="M 0 701 L 287 585 L 591 980 L 0 980 Z" class="st11" style="clip-path: url('#SVGID_3_'); fill: url('#SVGID_13_');"/>
	<linearGradient id="SVGID_14_" gradientUnits="userSpaceOnUse" x1="211.5" y1="980" x2="211.5" y2="585">
		<stop offset="0" style="stop-color:#A5F1FE"/>
		<stop offset="7.033563e-02" style="stop-color:#B7F4FE"/>
		<stop offset="0.1976" style="stop-color:#D1F8FE"/>
		<stop offset="0.3381" style="stop-color:#E6FBFF"/>
		<stop offset="0.4963" style="stop-color:#F4FDFF"/>
		<stop offset="0.6873" style="stop-color:#FCFFFF"/>
		<stop offset="1" style="stop-color:#FFFFFF"/>
	</linearGradient>
	<path d="M 0 871 L 287 585 L 423 980 L 0 980 Z" class="st12" style="clip-path: url('#SVGID_3_'); fill: url('#SVGID_14_');"/>
	<linearGradient id="SVGID_15_" gradientUnits="userSpaceOnUse" x1="667" y1="980" x2="667" y2="247">
		<stop offset="0" style="stop-color:#A5F1FE"/>
		<stop offset="2.518517e-02" style="stop-color:#AAF2FE"/>
		<stop offset="0.1912" style="stop-color:#C9F7FE"/>
		<stop offset="0.3657" style="stop-color:#E1FAFF"/>
		<stop offset="0.5501" style="stop-color:#F2FDFF"/>
		<stop offset="0.7512" style="stop-color:#FCFEFF"/>
		<stop offset="1" style="stop-color:#FFFFFF"/>
	</linearGradient>
	<path d="M 741 247 L 549 980 L 785 980 Z" class="st13" style="clip-path: url('#SVGID_3_'); fill: url('#SVGID_15_');"/>
	<linearGradient id="SVGID_16_" gradientUnits="userSpaceOnUse" x1="1063.2791" y1="980" x2="1063.2791" y2="437">
		<stop offset="0" style="stop-color:#A5F1FE"/>
		<stop offset="2.518517e-02" style="stop-color:#AAF2FE"/>
		<stop offset="0.1912" style="stop-color:#C9F7FE"/>
		<stop offset="0.3657" style="stop-color:#E1FAFF"/>
		<stop offset="0.5501" style="stop-color:#F2FDFF"/>
		<stop offset="0.7512" style="stop-color:#FCFEFF"/>
		<stop offset="1" style="stop-color:#FFFFFF"/>
	</linearGradient>
	<path d="M 1024 437 L 1129 980 L 997.5999755859375 972.5 Z" class="st14" style="clip-path: url('#SVGID_3_'); fill: url('#SVGID_16_');"/>
	<linearGradient id="SVGID_17_" gradientUnits="userSpaceOnUse" x1="1024" y1="980" x2="1024" y2="263">
		<stop offset="0" style="stop-color:#A5F1FE"/>
		<stop offset="2.518517e-02" style="stop-color:#AAF2FE"/>
		<stop offset="0.1912" style="stop-color:#C9F7FE"/>
		<stop offset="0.3657" style="stop-color:#E1FAFF"/>
		<stop offset="0.5501" style="stop-color:#F2FDFF"/>
		<stop offset="0.7512" style="stop-color:#FCFEFF"/>
		<stop offset="1" style="stop-color:#FFFFFF"/>
	</linearGradient>
	<path d="M 999 980 L 861 263 L 1187 980 Z" class="st15" style="clip-path: url('#SVGID_3_'); fill: url('#SVGID_17_');"/>
	<path class="st16" d="M533.5,362c-1.6,0-3.2,0.1-4.9,0.1c-15.5-9.7-33.8-15.3-53.4-15.3c-32.9,0-62.2,15.7-80.6,40.1&#10;&#9;&#9;c-1.4-0.1-2.8-0.2-4.2-0.2c-33.8,0-61.2,27.4-61.2,61.2h44.9h73.4h4.1h124.8h43.2C619.5,400.5,581,362,533.5,362z" style="clip-path: url('#SVGID_3_'); fill: rgb(255, 255, 255);"/>
	<path class="st7" d="M1332.3,280.2c-1.3,0-2.5,0-3.8,0.1c-12-7.5-26.2-11.8-41.4-11.8c-25.5,0-48.2,12.2-62.5,31.1&#10;&#9;&#9;c-1.1-0.1-2.2-0.1-3.2-0.1c-26.2,0-47.4,21.2-47.4,47.4h34.8h56.9h3.2h96.7h33.5C1399,310.1,1369.1,280.2,1332.3,280.2z" style="opacity: 0.2; clip-path: url('#SVGID_3_'); fill: rgb(166, 241, 254);"/>
	<path class="st16" d="M1302.2,263.5c-1.3,0-2.5,0-3.8,0.1c-12-7.5-26.2-11.8-41.4-11.8c-25.5,0-48.2,12.2-62.5,31.1&#10;&#9;&#9;c-1.1-0.1-2.2-0.1-3.2-0.1c-26.2,0-47.4,21.2-47.4,47.4h34.8h56.9h3.2h96.7h33.5C1368.9,293.4,1339,263.5,1302.2,263.5z" style="clip-path: url('#SVGID_3_'); fill: rgb(255, 255, 255);"/>
	<path class="st7" d="M207.5,515.9c-0.7,0-1.5,0-2.2,0.1c-7-4.4-15.3-6.9-24.2-6.9c-14.9,0-28.2,7.1-36.6,18.2&#10;&#9;&#9;c-0.6,0-1.3-0.1-1.9-0.1c-15.3,0-27.8,12.4-27.8,27.8h20.4h33.3h1.9h56.6h19.6C246.5,533.3,229,515.9,207.5,515.9z" style="opacity: 0.2; clip-path: url('#SVGID_3_'); fill: rgb(166, 241, 254);"/>
	<path class="st16" d="M183.2,495.5c-0.8,0-1.7,0-2.5,0.1c-7.9-4.9-17.2-7.8-27.2-7.8c-16.7,0-31.6,8-41,20.4&#10;&#9;&#9;c-0.7,0-1.4-0.1-2.1-0.1c-17.2,0-31.1,13.9-31.1,31.1h22.8h37.3h2.1h63.4h22C226.9,515.1,207.3,495.5,183.2,495.5z" style="clip-path: url('#SVGID_3_'); fill: rgb(255, 255, 255);"/>
	<path class="st7" d="M746.4,976.1c-2.2,0-4.5,0.1-6.7,0.3c-29.5-38.9-76.1-64-128.6-64c-30.6,0-59.2,8.6-83.5,23.4&#10;&#9;&#9;c-34.5-33.3-81.4-53.8-133.1-53.8c-3.6,0-7.2,0.1-10.8,0.3c-34.6-21.5-75.4-34-119.1-34c-73.4,0-138.6,35.1-179.8,89.4&#10;&#9;&#9;c-3.1-0.2-6.2-0.4-9.3-0.4C0.1,937.3-61,998.4-61,1073.7H39h163.6h9.2h169h68.9H490h96.2h62.5h6.6h117.1H844&#10;&#9;&#9;C844,1019.8,800.3,976.1,746.4,976.1z" style="opacity: 0.2; clip-path: url('#SVGID_3_'); fill: rgb(166, 241, 254);"/>
	<path class="st16" d="M696.6,926.3c-2.2,0-4.5,0.1-6.7,0.3c-29.5-38.9-76.1-64-128.6-64c-30.6,0-59.2,8.6-83.5,23.4&#10;&#9;&#9;c-34.5-33.3-81.4-53.8-133.1-53.8c-3.6,0-7.2,0.1-10.8,0.3c-34.6-21.5-75.4-34-119.1-34c-73.4,0-138.6,35.1-179.8,89.4&#10;&#9;&#9;c-3.1-0.2-6.2-0.4-9.3-0.4c-75.4,0-136.5,61.1-136.5,136.5h100.1h163.6h9.2h169H400h40.3h96.2H599h6.6h117.1h71.6&#10;&#9;&#9;C794.3,970,750.6,926.3,696.6,926.3z" style="clip-path: url('#SVGID_3_'); fill: rgb(255, 255, 255);"/>
	<path class="st7" d="M1598.4,951.5c-2.3,0-4.5,0.1-6.8,0.3c-30-39.6-77.6-65.2-131.1-65.2c-31.2,0-60.3,8.7-85.1,23.8&#10;&#9;&#9;c-35.1-33.9-82.9-54.8-135.6-54.8c-3.7,0-7.4,0.1-11,0.3c-35.2-21.9-76.8-34.6-121.3-34.6c-74.8,0-141.2,35.7-183.1,91&#10;&#9;&#9;c-3.1-0.2-6.3-0.4-9.5-0.4c-76.8,0-139,62.2-139,139h101.9h166.7h9.4H1226h70.2h41h98h63.7h6.7h119.3h73&#10;&#9;&#9;C1697.9,996,1653.4,951.5,1598.4,951.5z" style="opacity: 0.2; clip-path: url('#SVGID_3_'); fill: rgb(166, 241, 254);"/>
	<path class="st16" d="M1547.7,900.8c-2.3,0-4.5,0.1-6.8,0.3c-30-39.6-77.6-65.2-131.1-65.2c-31.2,0-60.3,8.7-85.1,23.8&#10;&#9;&#9;c-35.1-33.9-82.9-54.8-135.6-54.8c-3.7,0-7.4,0.1-11,0.3c-35.2-21.9-76.8-34.6-121.3-34.6c-74.8,0-141.2,35.7-183.1,91&#10;&#9;&#9;c-3.1-0.2-6.3-0.4-9.5-0.4c-76.8,0-139,62.2-139,139h101.9h166.7h9.4h172.2h70.2h41h98h63.7h6.7h119.3h73&#10;&#9;&#9;C1647.2,945.3,1602.7,900.8,1547.7,900.8z" style="clip-path: url('#SVGID_3_'); fill: rgb(255, 255, 255);"/>
	<path class="st7" d="M1134.4,595.4c-0.6,0-1.2,0-1.7,0.1c-7.7-10.1-19.9-16.7-33.5-16.7c-8,0-15.4,2.2-21.8,6.1&#10;&#9;&#9;c-9-8.7-21.2-14-34.7-14c-0.9,0-1.9,0-2.8,0.1c-9-5.6-19.7-8.9-31.1-8.9c-19.1,0-36.1,9.1-46.9,23.3c-0.8-0.1-1.6-0.1-2.4-0.1&#10;&#9;&#9;c-19.7,0-35.6,15.9-35.6,35.6H950h42.7h2.4h44.1h18h10.5h25.1h16.3h1.7h30.5h18.7C1159.9,606.8,1148.5,595.4,1134.4,595.4z" style="opacity: 0.2; clip-path: url('#SVGID_3_'); fill: rgb(166, 241, 254);"/>
	<path class="st16" d="M1121.5,582.4c-0.6,0-1.2,0-1.7,0.1c-7.7-10.1-19.9-16.7-33.5-16.7c-8,0-15.4,2.2-21.8,6.1&#10;&#9;&#9;c-9-8.7-21.2-14-34.7-14c-0.9,0-1.9,0-2.8,0.1c-9-5.6-19.7-8.9-31.1-8.9c-19.1,0-36.1,9.1-46.9,23.3c-0.8-0.1-1.6-0.1-2.4-0.1&#10;&#9;&#9;c-19.7,0-35.6,15.9-35.6,35.6H937h42.7h2.4h44.1h18h10.5h25.1h16.3h1.7h30.5h18.7C1146.9,593.8,1135.5,582.4,1121.5,582.4z" style="clip-path: url('#SVGID_3_'); fill: rgb(255, 255, 255);"/>
	<path class="st7" d="M1271.1,627.5c0.3,0,0.7,0,1,0c4.4-5.9,11.5-9.6,19.4-9.6c4.6,0,8.9,1.3,12.6,3.5c5.2-5,12.3-8.1,20-8.1&#10;&#9;&#9;c0.5,0,1.1,0,1.6,0c5.2-3.2,11.4-5.1,17.9-5.1c11.1,0,20.9,5.3,27.1,13.5c0.5,0,0.9-0.1,1.4-0.1c11.3,0,20.6,9.2,20.6,20.6h-15.1&#10;&#9;&#9;h-24.6h-1.4h-25.4h-10.4h-6.1h-14.5h-9.4h-1h-17.6h-10.8C1256.4,634.1,1262.9,627.5,1271.1,627.5z" style="opacity: 0.2; clip-path: url('#SVGID_3_'); fill: rgb(166, 241, 254);"/>
	<path class="st16" d="M1260.6,620c0.3,0,0.7,0,1,0c4.4-5.9,11.5-9.6,19.4-9.6c4.6,0,8.9,1.3,12.6,3.5c5.2-5,12.3-8.1,20-8.1&#10;&#9;&#9;c0.5,0,1.1,0,1.6,0c5.2-3.2,11.4-5.1,17.9-5.1c11.1,0,20.9,5.3,27.1,13.5c0.5,0,0.9-0.1,1.4-0.1c11.3,0,20.6,9.2,20.6,20.6h-15.1&#10;&#9;&#9;h-24.6h-1.4h-25.4h-10.4h-6.1h-14.5h-9.4h-1h-17.6h-10.8C1245.8,626.6,1252.4,620,1260.6,620z" style="clip-path: url('#SVGID_3_'); fill: rgb(255, 255, 255);"/>
	<path class="st7" d="M938.3,214.8c0.5,0,1,0,1.4,0.1c6.4-8.4,16.4-13.8,27.8-13.8c6.6,0,12.8,1.8,18,5c7.4-7.2,17.6-11.6,28.7-11.6&#10;&#9;&#9;c0.8,0,1.6,0,2.3,0.1c7.5-4.6,16.3-7.3,25.7-7.3c15.8,0,29.9,7.6,38.8,19.3c0.7,0,1.3-0.1,2-0.1c16.3,0,29.5,13.2,29.5,29.5h-21.6&#10;&#9;&#9;h-35.3h-2h-36.5h-14.9h-8.7h-20.8h-13.5h-1.4h-25.3h-15.5C917.2,224.2,926.6,214.8,938.3,214.8z" style="opacity: 0.2; clip-path: url('#SVGID_3_'); fill: rgb(166, 241, 254);"/>
	<path class="st16" d="M926.7,204.1c0.5,0,1,0,1.4,0.1c6.4-8.4,16.4-13.8,27.8-13.8c6.6,0,12.8,1.8,18,5&#10;&#9;&#9;c7.4-7.2,17.6-11.6,28.7-11.6c0.8,0,1.6,0,2.3,0.1c7.5-4.6,16.3-7.3,25.7-7.3c15.8,0,29.9,7.6,38.8,19.3c0.7,0,1.3-0.1,2-0.1&#10;&#9;&#9;c16.3,0,29.5,13.2,29.5,29.5h-21.6h-35.3h-2h-36.5h-14.9h-8.7h-20.8h-13.5h-1.4h-25.3h-15.5C905.7,213.5,915.1,204.1,926.7,204.1z" style="clip-path: url('#SVGID_3_'); fill: rgb(255, 255, 255);"/>
</g>
</svg>