<svg xmlns="http://www.w3.org/2000/svg" id="master-artboard" width="1400" height="980" x="0" y="0" version="1.1" viewBox="0 0 1400 980" style="enable-background:new 0 0 1400 980"><linearGradient id="SVGID_1_" x1="700" x2="700" y1="980" y2="0" gradientUnits="userSpaceOnUse"><stop offset="0" style="stop-color:#53b6f9"/><stop offset=".169" style="stop-color:#81c9fb"/><stop offset=".36" style="stop-color:#aedcfc"/><stop offset=".545" style="stop-color:#d1ebfd"/><stop offset=".718" style="stop-color:#eaf6fe"/><stop offset=".874" style="stop-color:#fafdff"/><stop offset="1" style="stop-color:#fff"/></linearGradient><path d="M 0 0 H 1400 V 980 H 0 V 0 Z" class="st0" transform="matrix(1, 0, 0, 1, 0, 0)" style="fill:url(#SVGID_1_)"/><g><g><g><g><path d="M 821.900024 281.899994 A 0.5 0.5 0 0 1 821.400024 282.399994 A 0.5 0.5 0 0 1 820.900024 281.899994 A 0.5 0.5 0 0 1 821.400024 281.399994 A 0.5 0.5 0 0 1 821.900024 281.899994 Z" class="st1" transform="matrix(1, 0, 0, 1, 0, 0)" style="fill:#ff3939"/><g><path d="M821.5,282.4c0,0.1,0,0.1,0,0.2c-0.5-0.1-1-0.5-1.1-1.1c0.1,0,0.1,0,0.2,0 C820.6,282,821,282.3,821.5,282.4z" class="st2" transform="matrix(1, 0, 0, 1, 0, 0)" style="fill:#051928"/><path d="M821.4,282.4c0,0.1,0,0.1,0,0.2c0.5-0.1,1-0.5,1.1-1.1c-0.1,0-0.1,0-0.2,0 C822.2,282,821.8,282.3,821.4,282.4z" class="st2" transform="matrix(1, 0, 0, 1, 0, 0)" style="fill:#051928"/></g><g><path d="M 821.200012 282.899994 H 821.400012 V 283.799994 H 821.200012 V 282.899994 Z" class="st2" transform="matrix(1, 0, 0, 1, 0, 0)" style="fill:#051928"/><path d="M 821.5 282.899994 H 821.7 V 283.799994 H 821.5 V 282.899994 Z" class="st2" transform="matrix(1, 0, 0, 1, 0, 0)" style="fill:#051928"/></g><path d="M 821.5999755859375 281.8999938964844 L 821.5 281.8999938964844 L 821.4000244140625 281.8999938964844 L 821.2000122070312 281.8999938964844 L 821.0999755859375 283.1000061035156 L 821.7999877929688 283.1000061035156 Z" class="st1" transform="matrix(1, 0, 0, 1, 0, 0)" style="fill:#ff3939"/><path d="M 821.800024 282.100006 A 0.4 0.4 0 0 1 821.400024 282.500006 A 0.4 0.4 0 0 1 821.000024 282.100006 A 0.4 0.4 0 0 1 821.400024 281.700006 A 0.4 0.4 0 0 1 821.800024 282.100006 Z" class="st3" transform="matrix(1, 0, 0, 1, 0, 0)" style="fill:#f4aa4a"/></g></g><path d="M 823.4000244140625 280.70001220703125 L 822.2999877929688 281.29998779296875 L 822.2000122070312 280.29998779296875 L 823.2999877929688 280.1000061035156 Z" class="st1" transform="matrix(1, 0, 0, 1, 0, 0)" style="fill:#ff3939"/><path d="M 822.200012 280.200012 H 822.300012 V 282.700012 H 822.200012 V 280.200012 Z" class="st2" transform="matrix(1, 0, 0, 1, 0, 0) matrix(0.9912 -0.1327 0.1327 0.9912 -30.0688 111.5988)" style="fill:#051928"/><path d="M 820.7 281.600006 A 0.2 0.2 0 0 1 820.5 281.800006 A 0.2 0.2 0 0 1 820.3 281.600006 A 0.2 0.2 0 0 1 820.5 281.400006 A 0.2 0.2 0 0 1 820.7 281.600006 Z" class="st3" transform="matrix(1, 0, 0, 1, 0, 0)" style="fill:#f4aa4a"/><path d="M 822.600024 281.600006 A 0.2 0.2 0 0 1 822.400024 281.800006 A 0.2 0.2 0 0 1 822.200024 281.600006 A 0.2 0.2 0 0 1 822.400024 281.400006 A 0.2 0.2 0 0 1 822.600024 281.600006 Z" class="st3" transform="matrix(1, 0, 0, 1, 0, 0)" style="fill:#f4aa4a"/></g><path d="M 821.300012 282 A 0.1 0.1 0 0 1 821.200012 282.1 A 0.1 0.1 0 0 1 821.100012 282 A 0.1 0.1 0 0 1 821.200012 281.9 A 0.1 0.1 0 0 1 821.300012 282 Z" class="st2" transform="matrix(1, 0, 0, 1, 0, 0)" style="fill:#051928"/><path d="M 821.699976 282 A 0.1 0.1 0 0 1 821.599976 282.1 A 0.1 0.1 0 0 1 821.499976 282 A 0.1 0.1 0 0 1 821.599976 281.9 A 0.1 0.1 0 0 1 821.699976 282 Z" class="st2" transform="matrix(1, 0, 0, 1, 0, 0)" style="fill:#051928"/></g><path d="M 389 519.5 L 104.30000305175781 980 L 215.5 980 L 330.5 980 L 649.2000122070312 845.4000244140625 Z" class="st4" transform="matrix(1, 0, 0, 1, 0, 0)" style="opacity:.3;fill:#43b1ed"/><path d="M 104.30000305175781 421 L 0 567.0999755859375 L 0 980 L 44 980 L 506.6000061035156 877.0999755859375 Z" class="st4" transform="matrix(1, 0, 0, 1, 0, 0)" style="opacity:.3;fill:#43b1ed"/><path d="M376.8,771H-38c-1.8-6.9-2.8-14-2.8-21.5c0-46.3,37.5-83.8,83.8-83.8c38.8,0,71.5,26.4,81,62.3 c15.2-15.7,36.6-25.6,60.2-25.6c30.5,0,57.2,16.3,71.8,40.6c13.2-6.4,27.9-9.9,43.5-9.9c31,0,58.6,14,77,36.1V771z" class="st5" transform="matrix(1, 0, 0, 1, 0, 0)" style="fill:#fff"/><path d="M 232 622.0999755859375 L 412.1000061035156 980 L 104.30000305175781 980 Z" class="st6" transform="matrix(1, 0, 0, 1, 0, 0)" style="fill:#3aa6d6"/><path d="M 232 622.0999755859375 L 278.5 714.5999755859375 L 255.3000030517578 703 L 225 746.2999877929688 L 216.3000030517578 705.7000122070312 L 197.6999969482422 718.2999877929688 Z" class="st5" transform="matrix(1, 0, 0, 1, 0, 0)" style="fill:#fff"/><path d="M 232 980 L 412.1000061035156 980 L 338 832.5999755859375 Z" class="st7" transform="matrix(1, 0, 0, 1, 0, 0)" style="fill:#2187aa"/><path d="M 232 622.0999755859375 L 0 844.0999755859375 L 0 980 L 104.30000305175781 980 Z" class="st8" transform="matrix(1, 0, 0, 1, 0, 0)" style="fill:#1d7ea0"/><path d="M 197.6999969482422 718.2999877929688 L 186.3000030517578 695.7000122070312 L 143.3000030517578 707 L 232 622.0999755859375 Z" class="st9" transform="matrix(1, 0, 0, 1, 0, 0)" style="fill:#d6d7d8"/><path d="M 952.7000122070312 443 L 530.9000244140625 980 L 808.9000244140625 980 L 966.9000244140625 980 L 1240.300048828125 859 Z" class="st4" transform="matrix(1, 0, 0, 1, 0, 0)" style="opacity:.3;fill:#43b1ed"/><path d="M 685 347 L 327 980 L 479.8999938964844 980 L 637.9000244140625 980 L 965 825 Z" class="st4" transform="matrix(1, 0, 0, 1, 0, 0)" style="opacity:.3;fill:#43b1ed"/><path d="M 1400 814 L 1216.5 548.5999755859375 L 877.7000122070312 980 L 1400 980 Z" class="st4" transform="matrix(1, 0, 0, 1, 0, 0)" style="opacity:.3;fill:#43b1ed"/><path d="M 1400 859 L 1400 510 L 1007.7000122070312 938.7999877929688 L 1400 938.7999877929688 Z" class="st4" transform="matrix(1, 0, 0, 1, 0, 0)" style="opacity:.3;fill:#43b1ed"/><path d="M 1301 510 L 1400 673.0999755859375 L 1400 980 L 1400 980 Z" class="st6" transform="matrix(1, 0, 0, 1, 0, 0)" style="fill:#3aa6d6"/><path d="M 1301 510 L 1400 859 L 1400 980 L 1105.0999755859375 980 Z" class="st10" transform="matrix(1, 0, 0, 1, 0, 0)" style="fill:#2085a8"/><path d="M 824.7999877929688 283.6000061035156 L 820.7000122070312 283.6000061035156 L 727.5999755859375 980 L 1163.5999755859375 980 Z" class="st11" transform="matrix(1, 0, 0, 1, 0, 0)" style="fill:#176f96"/><path d="M 822.2000122070312 283.6000061035156 L 818 283.6000061035156 L 449.6000061035156 980 L 885.5999755859375 980 Z" class="st6" transform="matrix(1, 0, 0, 1, 0, 0)" style="fill:#3aa6d6"/><path d="M 525.7999877929688 533 L 282 980 L 575.7999877929688 980 Z" class="st6" transform="matrix(1, 0, 0, 1, 0, 0)" style="fill:#3aa6d6"/><path d="M 1097.5999755859375 605.9000244140625 L 1279.5999755859375 980 L 1047.5999755859375 980 Z" class="st6" transform="matrix(1, 0, 0, 1, 0, 0)" style="fill:#3aa6d6"/><path d="M 1097.5999755859375 605.9000244140625 L 939.2000122070312 980 L 1047.5999755859375 980 Z" class="st7" transform="matrix(1, 0, 0, 1, 0, 0)" style="fill:#2187aa"/><path d="M 822.2000122070312 283.6000061035156 L 818 283.6000061035156 L 711.7999877929688 484.3999938964844 L 758.2999877929688 461.70001220703125 L 752.2999877929688 550.2999877929688 L 805.0999755859375 486.70001220703125 L 849.9000244140625 587.5 Z" class="st5" transform="matrix(1, 0, 0, 1, 0, 0)" style="fill:#fff"/><path d="M 824.7999877929688 283.6000061035156 L 822.2000122070312 283.6000061035156 L 849.9000244140625 587.5 L 879.7000122070312 531.2999877929688 L 905.2999877929688 564.2999877929688 L 915.7000122070312 515.7000122070312 L 952.7000122070312 546.4000244140625 Z" class="st9" transform="matrix(1, 0, 0, 1, 0, 0)" style="fill:#d6d7d8"/><path d="M 1097.5999755859375 605.9000244140625 L 1070.199951171875 811.2000122070312 L 1058.9000244140625 741.7000122070312 L 1021.5999755859375 785.2999877929688 Z" class="st9" transform="matrix(1, 0, 0, 1, 0, 0)" style="fill:#d6d7d8"/><path d="M 1097.5999755859375 605.9000244140625 L 1186.800048828125 789.4000244140625 L 1163.5999755859375 773 L 1150.300048828125 840.2999877929688 L 1097.5999755859375 766.2999877929688 L 1070.199951171875 811.2000122070312 Z" class="st5" transform="matrix(1, 0, 0, 1, 0, 0)" style="fill:#fff"/><path d="M 1301 510 L 1230.300048828125 679.5999755859375 L 1279.5999755859375 655 L 1292.300048828125 737.7000122070312 L 1326.300048828125 664.2999877929688 L 1351.4000244140625 687.5999755859375 Z" class="st9" transform="matrix(1, 0, 0, 1, 0, 0)" style="fill:#d6d7d8"/><path d="M 1351.4000244140625 687.5999755859375 L 1361 657 L 1396.800048828125 667.7999877929688 L 1301 510 Z" class="st5" transform="matrix(1, 0, 0, 1, 0, 0)" style="fill:#fff"/><path d="M1400,878.3c-16.8-20.1-42-32.9-70.3-32.9c-39.6,0-73.4,25.2-86.1,60.4c-6.1-1.6-12.6-2.4-19.2-2.4 c-15.7,0-30.2,4.7-42.4,12.8c-9.1-8-21.1-12.8-34.1-12.8c-22.2,0-41.2,14-48.6,33.6c-1.2-0.1-2.5-0.1-3.8-0.1 c-30.3,0-56.4,17.6-68.8,43.1H1400V878.3z" class="st5" transform="matrix(1, 0, 0, 1, 0, 0)" style="fill:#fff"/><path d="M546.7,876c-17.2-20.6-43-33.7-71.9-33.7c-40.6,0-75.1,25.8-88.1,61.9c-6.3-1.6-12.9-2.5-19.7-2.5 c-16,0-30.9,4.8-43.4,13.1c-9.4-8.2-21.6-13.1-34.9-13.1c-22.8,0-42.2,14.3-49.8,34.4c-1.3-0.1-2.6-0.1-3.8-0.1 c-31,0-57.7,18-70.4,44.1h382.1V876z" class="st5" transform="matrix(1, 0, 0, 1, 0, 0)" style="fill:#fff"/><path d="M 525.7999877929688 533 L 693.7999877929688 980 L 561.7999877929688 980 Z" class="st11" transform="matrix(1, 0, 0, 1, 0, 0)" style="fill:#176f96"/><path d="M 630.4000244140625 746.2999877929688 L 438.3999938964844 980 L 674.7000122070312 980 Z" class="st6" transform="matrix(1, 0, 0, 1, 0, 0)" style="fill:#3aa6d6"/><path d="M 630.4000244140625 746.2999877929688 L 779.7999877929688 980 L 665.0999755859375 980 Z" class="st8" transform="matrix(1, 0, 0, 1, 0, 0)" style="fill:#1d7ea0"/><path d="M 454.5 663.7000122070312 L 525.7999877929688 533 L 537.9000244140625 684.2000122070312 L 515.0999755859375 645 L 499.79998779296875 663.7000122070312 L 486.3999938964844 639 Z" class="st5" transform="matrix(1, 0, 0, 1, 0, 0)" style="fill:#fff"/><path d="M 537.9000244140625 684.2000122070312 L 549.7999877929688 659.7000122070312 L 578.7000122070312 673.9000244140625 L 525.7999877929688 533 Z" class="st9" transform="matrix(1, 0, 0, 1, 0, 0)" style="fill:#d6d7d8"/><path d="M516,819.6h209.5c0.9-3.5,1.4-7.1,1.4-10.8c0-23.4-19-42.4-42.4-42.4c-19.6,0-36.1,13.3-40.9,31.5 c-7.7-8-18.5-12.9-30.4-12.9c-15.4,0-28.9,8.2-36.3,20.5c-6.7-3.2-14.1-5-22-5c-15.6,0-29.6,7.1-38.9,18.2V819.6z" class="st5" transform="matrix(1, 0, 0, 1, 0, 0)" style="fill:#fff"/><path d="M1033.4,406h209.5c0.9-3.5,1.4-7.1,1.4-10.8c0-23.4-19-42.4-42.4-42.4c-19.6,0-36.1,13.3-40.9,31.5 c-7.7-8-18.5-12.9-30.4-12.9c-15.4,0-28.9,8.2-36.3,20.5c-6.7-3.2-14.1-5-22-5c-15.6,0-29.6,7.1-38.9,18.2V406z" class="st5" transform="matrix(1, 0, 0, 1, 0, 0)" style="fill:#fff"/><path d="M181.9,352.8h151.7c0.7-2.5,1-5.1,1-7.8c0-16.9-13.7-30.7-30.7-30.7c-14.2,0-26.1,9.7-29.6,22.8 c-5.6-5.8-13.4-9.3-22-9.3c-11.1,0-20.9,6-26.3,14.9c-4.8-2.3-10.2-3.6-15.9-3.6c-11.3,0-21.4,5.1-28.2,13.2V352.8z" class="st5" transform="matrix(1, 0, 0, 1, 0, 0)" style="fill:#fff"/><path d="M 805.0999755859375 277.1000061035156 L 786.4000244140625 259.79998779296875 L 789.0999755859375 256.79998779296875 L 807.9000244140625 274.1000061035156 Z" class="st2" transform="matrix(1, 0, 0, 1, 0, 0)" style="fill:#051928"/><path d="M 805.099976 254.300003 H 826.799976 V 258.400003 H 805.099976 V 254.300003 Z" class="st2" transform="matrix(0.22059999406337738, 0.9754000306129456, -0.9754000306129456, 0.22059999406337738, 885.9949951171874, -596.0695190429688)" style="fill:#051928"/><path d="M 836.5 250.100006 H 840.6 V 271.300007 H 836.5 V 250.100006 Z" class="st2" transform="matrix(0.8079000115394592, 0.5892999768257141, -0.5892999768257141, 0.8079000115394592, 314.7578125, -444.0845947265625)" style="fill:#051928"/><path d="M887,921.6c-9.4,0-18.3,2.1-26.3,5.7c-10.9-13.3-27.4-21.8-45.9-21.8c-27.5,0-50.6,18.7-57.3,44.1 c-10.8-11.1-25.9-18.1-42.6-18.1c-21.6,0-40.5,11.5-50.8,28.7c-9.3-4.5-19.8-7-30.8-7c-21.9,0-41.5,9.9-54.5,25.5v1.3h245.5h48 h77.7C947.5,947.3,920.3,921.6,887,921.6z" class="st5" transform="matrix(1, 0, 0, 1, 0, 0)" style="fill:#fff"/><path d="M568,149.4c-4.7,0-9.1,1-13.1,2.9c-5.4-6.7-13.7-10.9-23-10.9c-13.7,0-25.3,9.3-28.7,22 c-5.4-5.6-12.9-9-21.3-9c-10.8,0-20.2,5.8-25.4,14.4c-4.7-2.2-9.9-3.5-15.4-3.5c-11,0-20.7,5-27.3,12.8v0.6h122.7h24h38.8 C598.2,162.3,584.6,149.4,568,149.4z" class="st5" transform="matrix(1, 0, 0, 1, 0, 0)" style="fill:#fff"/><path d="M1116.1,122.8c-6.4-8.7-16.7-14.3-28.3-14.3c-0.6,0-1.2,0-1.7,0c-3.4-9-12.2-15.5-22.4-15.5 c-6,0-11.5,2.2-15.7,5.9c-5.6-3.7-12.3-5.9-19.5-5.9c-3.1,0-6,0.4-8.8,1.1c-5.9-16.2-21.4-27.9-39.7-27.9c-8.2,0-15.9,2.4-22.4,6.4 c-6-4-13.2-6.4-20.9-6.4c-20.6,0-37.4,16.7-37.4,37.4c0,7,1.9,13.5,5.3,19.1H1116.1z" class="st5" transform="matrix(1, 0, 0, 1, 0, 0)" style="fill:#fff"/><path d="M1084.9,980c0-1,0.1-2.1,0.1-3.1c0-53.6-43.4-97-97-97c-53.6,0-97,43.4-97,97c0,1,0,2.1,0.1,3.1H1084.9z" class="st5" transform="matrix(1, 0, 0, 1, 0, 0)" style="fill:#fff"/></svg>