<?xml version="1.0" encoding="utf-8"?>
<svg id="master-artboard" viewBox="0 0 2850 2005.158" version="1.1" xmlns="http://www.w3.org/2000/svg" x="0px" y="0px" width="2850px" height="2005.157958984375px" enable-background="new 0 0 2850 2005.158" xmlns:xlink="http://www.w3.org/1999/xlink">
<defs>
		<path d="M 0 0 H 2850 V 2005.157959 H 0 V 0 Z" id="SVGID_1_"/>
	</defs><clipPath id="SVGID_2_">
		<use overflow="visible" xlink:href="#SVGID_1_"/>
	</clipPath><path d="M 0 0 H 2850 V 2005.157959 H 0 V 0 Z" clip-path="url(#SVGID_2_)" fill="#C8EBD4" transform="matrix(1, 0, 0, 1, 0, 0)"/><defs>
			<filter id="Adobe_OpacityMaskFilter" filterUnits="userSpaceOnUse" x="-96.208" y="0" width="1854.471" height="811.312">
				<feFlood style="flood-color:white;flood-opacity:1" result="back"/>
				<feBlend in="SourceGraphic" in2="back" mode="normal"/>
			</filter>
		</defs><mask maskUnits="userSpaceOnUse" x="-96.208" y="0" width="1854.471" height="811.312" id="SVGID_3_">
			<g filter="url(#Adobe_OpacityMaskFilter)">
				<defs>
					<filter id="Adobe_OpacityMaskFilter_1_" filterUnits="userSpaceOnUse" x="-96.208" y="0" width="1854.471" height="811.312">
						<feFlood style="flood-color:white;flood-opacity:1" result="back"/>
						<feBlend in="SourceGraphic" in2="back" mode="normal"/>
					</filter>
				</defs>
				<mask maskUnits="userSpaceOnUse" x="-96.208" y="0" width="1854.471" height="811.312" id="SVGID_3_">
					<g filter="url(#Adobe_OpacityMaskFilter_1_)">
					</g>
				</mask>
				<linearGradient id="SVGID_4_" gradientUnits="userSpaceOnUse" x1="831.0283" y1="1117.3604" x2="831.0283" y2="-2.3638">
					<stop offset="0" style="stop-color:#0D0D0D"/>
					<stop offset="0.9991" style="stop-color:#FFFFFF"/>
				</linearGradient>
				<path mask="url(#SVGID_3_)" fill="url(#SVGID_4_)" d="M-96.208,709.758C-69.283,692.973,1332.923,0,1332.923,0h425.341&#10;&#9;&#9;&#9;&#9;&#9;L127.403,811.312"/>
			</g>
		</mask><linearGradient id="SVGID_5_" gradientUnits="userSpaceOnUse" x1="831.0283" y1="1117.3604" x2="831.0283" y2="-2.3638">
			<stop offset="0" style="stop-color:#FFFFFF"/>
			<stop offset="0.9991" style="stop-color:#6A9C33"/>
		</linearGradient><path opacity="0.2" fill="url(#SVGID_5_)" d="M-96.208,709.758C-69.283,692.973,1332.923,0,1332.923,0h425.341L127.403,811.312" transform="matrix(1, 0, 0, 1, 0, 0)"/><defs>
			
				<filter id="Adobe_OpacityMaskFilter_2_" filterUnits="userSpaceOnUse" x="1222.031" y="137.168" width="2187.731" height="995.87">
				<feFlood style="flood-color:white;flood-opacity:1" result="back"/>
				<feBlend in="SourceGraphic" in2="back" mode="normal"/>
			</filter>
		</defs><mask maskUnits="userSpaceOnUse" x="1222.031" y="137.168" width="2187.731" height="995.87" id="SVGID_6_">
			<g filter="url(#Adobe_OpacityMaskFilter_2_)">
				<defs>
					
						<filter id="Adobe_OpacityMaskFilter_3_" filterUnits="userSpaceOnUse" x="1222.031" y="137.168" width="2187.731" height="995.87">
						<feFlood style="flood-color:white;flood-opacity:1" result="back"/>
						<feBlend in="SourceGraphic" in2="back" mode="normal"/>
					</filter>
				</defs>
				<mask maskUnits="userSpaceOnUse" x="1222.031" y="137.168" width="2187.731" height="995.87" id="SVGID_6_">
					<g filter="url(#Adobe_OpacityMaskFilter_3_)">
					</g>
				</mask>
				<linearGradient id="SVGID_7_" gradientUnits="userSpaceOnUse" x1="2315.8965" y1="1340.333" x2="2315.8965" y2="-34.1064">
					<stop offset="0" style="stop-color:#0D0D0D"/>
					<stop offset="0.9991" style="stop-color:#FFFFFF"/>
				</linearGradient>
				<path mask="url(#SVGID_6_)" fill="url(#SVGID_7_)" d="M1222.031,1031.482c26.924-16.785,1762.389-894.314,1762.389-894.314&#10;&#9;&#9;&#9;&#9;&#9;h425.342l-1964.121,995.87"/>
			</g>
		</mask><linearGradient id="SVGID_8_" gradientUnits="userSpaceOnUse" x1="2315.8965" y1="1340.333" x2="2315.8965" y2="-34.1064">
			<stop offset="0" style="stop-color:#FFFFFF"/>
			<stop offset="0.9991" style="stop-color:#6A9C33"/>
		</linearGradient><path opacity="0.2" fill="url(#SVGID_8_)" d="M1222.031,1031.482c26.924-16.785,1762.389-894.314,1762.389-894.314h425.342&#10;&#9;&#9;&#9;l-1964.121,995.87" transform="matrix(1, 0, 0, 1, 0, 0)"/><defs>
			<filter id="Adobe_OpacityMaskFilter_4_" filterUnits="userSpaceOnUse" x="1376.731" y="0" width="1630.861" height="811.312">
				<feFlood style="flood-color:white;flood-opacity:1" result="back"/>
				<feBlend in="SourceGraphic" in2="back" mode="normal"/>
			</filter>
		</defs><mask maskUnits="userSpaceOnUse" x="1376.731" y="0" width="1630.861" height="811.312" id="SVGID_9_">
			<g filter="url(#Adobe_OpacityMaskFilter_4_)">
				<defs>
					<filter id="Adobe_OpacityMaskFilter_5_" filterUnits="userSpaceOnUse" x="1376.731" y="0" width="1630.861" height="811.312">
						<feFlood style="flood-color:white;flood-opacity:1" result="back"/>
						<feBlend in="SourceGraphic" in2="back" mode="normal"/>
					</filter>
				</defs>
				<mask maskUnits="userSpaceOnUse" x="1376.731" y="0" width="1630.861" height="811.312" id="SVGID_9_">
					<g filter="url(#Adobe_OpacityMaskFilter_5_)">
					</g>
				</mask>
				<linearGradient id="SVGID_10_" gradientUnits="userSpaceOnUse" x1="2192.1611" y1="1117.3604" x2="2192.1611" y2="-2.3638">
					<stop offset="0" style="stop-color:#0D0D0D"/>
					<stop offset="0.9991" style="stop-color:#FFFFFF"/>
				</linearGradient>
				<path mask="url(#SVGID_9_)" fill="url(#SVGID_10_)" d="M1402.82,709.758C1429.745,692.973,2831.951,0,2831.951,0h175.641&#10;&#9;&#9;&#9;&#9;&#9;L1376.731,811.312"/>
			</g>
		</mask><linearGradient id="SVGID_11_" gradientUnits="userSpaceOnUse" x1="2192.1611" y1="1117.3604" x2="2192.1611" y2="-2.3638">
			<stop offset="0" style="stop-color:#FFFFFF"/>
			<stop offset="0.9991" style="stop-color:#6A9C33"/>
		</linearGradient><path opacity="0.2" fill="url(#SVGID_11_)" d="M1402.82,709.758C1429.745,692.973,2831.951,0,2831.951,0h175.641L1376.731,811.312&#10;&#9;&#9;&#9;" transform="matrix(1, 0, 0, 1, 0, 0)"/><defs>
			<filter id="Adobe_OpacityMaskFilter_6_" filterUnits="userSpaceOnUse" x="223.234" y="0" width="2418.872" height="948.991">
				<feFlood style="flood-color:white;flood-opacity:1" result="back"/>
				<feBlend in="SourceGraphic" in2="back" mode="normal"/>
			</filter>
		</defs><mask maskUnits="userSpaceOnUse" x="223.234" y="0" width="2418.872" height="948.991" id="SVGID_12_">
			<g filter="url(#Adobe_OpacityMaskFilter_6_)">
				<defs>
					<filter id="Adobe_OpacityMaskFilter_7_" filterUnits="userSpaceOnUse" x="223.234" y="0" width="2418.872" height="948.991">
						<feFlood style="flood-color:white;flood-opacity:1" result="back"/>
						<feBlend in="SourceGraphic" in2="back" mode="normal"/>
					</filter>
				</defs>
				<mask maskUnits="userSpaceOnUse" x="223.234" y="0" width="2418.872" height="948.991" id="SVGID_12_">
					<g filter="url(#Adobe_OpacityMaskFilter_7_)">
					</g>
				</mask>
				<linearGradient id="SVGID_13_" gradientUnits="userSpaceOnUse" x1="1432.6699" y1="1117.3613" x2="1432.6699" y2="-2.3628">
					<stop offset="0" style="stop-color:#0D0D0D"/>
					<stop offset="0.9991" style="stop-color:#FFFFFF"/>
				</linearGradient>
				<path mask="url(#SVGID_12_)" fill="url(#SVGID_13_)" d="M223.234,830.202C254.729,810.568,1894.886,0,1894.886,0h747.221&#10;&#9;&#9;&#9;&#9;&#9;L734.492,948.992"/>
			</g>
		</mask><linearGradient id="SVGID_14_" gradientUnits="userSpaceOnUse" x1="1432.6699" y1="1117.3613" x2="1432.6699" y2="-2.3628">
			<stop offset="0" style="stop-color:#FFFFFF"/>
			<stop offset="0.9991" style="stop-color:#6A9C33"/>
		</linearGradient><path opacity="0.2" fill="url(#SVGID_14_)" d="M223.234,830.202C254.729,810.568,1894.886,0,1894.886,0h747.221L734.492,948.992" transform="matrix(1, 0, 0, 1, 0, 0)"/><path opacity="0.4" clip-path="url(#SVGID_2_)" fill="#FFFFFF" d="M1826.152,661.786c-138.298,0-250.41,112.683-250.41,251.686&#10;&#9;&#9;c0,139.002,112.112,251.686,250.41,251.686c138.301,0,250.413-112.684,250.413-251.686&#10;&#9;&#9;C2076.565,774.469,1964.453,661.786,1826.152,661.786z" transform="matrix(1, 0, 0, 1, 0, 0)"/><path opacity="0.22" clip-path="url(#SVGID_2_)" fill="#FFFFFF" d="M1826.151,530.353c-210.519,0-381.177,171.528-381.177,383.12&#10;&#9;&#9;c0,211.591,170.658,383.118,381.177,383.118c210.522,0,381.182-171.527,381.182-383.118&#10;&#9;&#9;C2207.333,701.88,2036.674,530.353,1826.151,530.353z" transform="matrix(1, 0, 0, 1, 0, 0)"/><path opacity="0.15" clip-path="url(#SVGID_2_)" fill="#FFFFFF" d="M1826.15,385.746c-289.977,0-525.049,236.271-525.049,527.727&#10;&#9;&#9;c0,291.455,235.073,527.726,525.049,527.726c289.983,0,525.057-236.271,525.057-527.726&#10;&#9;&#9;C2351.207,622.017,2116.134,385.746,1826.15,385.746z" transform="matrix(1, 0, 0, 1, 0, 0)"/><path clip-path="url(#SVGID_2_)" fill="#9DCCA1" d="M0,848.247c0,0,698.547-1.561,930.561,26.71&#10;&#9;&#9;c232.015,28.272,851.044,157.242,851.044,157.242l203.611,8.992l233.767-48.516l257.306-43.684l372.558-8.231v215.068H0" transform="matrix(1, 0, 0, 1, 0, 0)"/><path clip-path="url(#SVGID_2_)" fill="#68915C" d="M2850,1276.53c0,0-628.857-159.036-2850-374.136v733.27l2826.719-161.988" transform="matrix(1, 0, 0, 1, 0, 0)"/><path opacity="0.22" clip-path="url(#SVGID_2_)" fill="#3E5737" d="M1683.486,1521.343&#10;&#9;&#9;c-181.363-209.335-406.507-403.96-665.66-507.764c-4.53-1.814-8.876-3.93-13.06-6.249C713.204,974.335,379.906,939.186,0,902.395&#10;&#9;&#9;v733.269l1702.943-97.589C1696.201,1533.95,1689.656,1528.464,1683.486,1521.343z" transform="matrix(1, 0, 0, 1, 0, 0)"/><path opacity="0.22" clip-path="url(#SVGID_2_)" fill="#3E5737" d="M1417.56,1055.896&#10;&#9;&#9;c140.332,101.008,267.649,221.353,379.889,350.904c38.679,44.645,18.391,101.139-18.824,126.938l1048.095-60.063L2850,1276.53&#10;&#9;&#9;C2850,1276.53,2503.731,1188.96,1417.56,1055.896z" transform="matrix(1, 0, 0, 1, 0, 0)"/><path clip-path="url(#SVGID_2_)" fill="#597D4F" d="M258.863,1387.595c0,0,860.623-218.747,2591.141-374.136v733.27&#10;&#9;&#9;L280.029,1584.74" transform="matrix(1, 0, 0, 1, 0, 0)"/><path opacity="0.22" fill="#3E5737" d="M668.68,1554.79c17.084-23.195,35.607-45.109,56.72-64.695&#10;&#9;&#9;&#9;c41.851-38.827,90.286-71.429,138.194-102.153c95.13-61.007,197.976-108.538,294.011-167.937c2.126-1.886,4.155-3.868,6.323-5.714&#10;&#9;&#9;&#9;c-603.887,94.659-905.064,171.171-905.064,171.171l21.166,197.147l356.896,22.495&#10;&#9;&#9;&#9;C647.814,1588.612,657.193,1570.385,668.68,1554.79z" transform="matrix(1, 0, 0, 1, 0, 0)"/><path opacity="0.22" fill="#3E5737" d="M2850.002,1153.696v-142.37c-99.574,8.941-196.107,18.101-289.866,27.409&#10;&#9;&#9;&#9;C2659.539,1070.16,2756.856,1107.895,2850.002,1153.696z" transform="matrix(1, 0, 0, 1, 0, 0)"/><path opacity="0.22" fill="#3E5737" d="M2496.391,1378.538c-120.584-110.137-254.121-203.882-391.722-291.048&#10;&#9;&#9;&#9;c-178.249,20.551-343.568,41.392-495.945,62.009c-4.335,4.627-9.059,8.983-14.198,12.93&#10;&#9;&#9;&#9;c-119.653,91.879-233.231,196.677-324.59,317.479c-38.149,50.444-72.372,103.543-103.127,158.597l1636.815,103.17&#10;&#9;&#9;&#9;C2716.703,1608.071,2614.616,1486.516,2496.391,1378.538z" transform="matrix(1, 0, 0, 1, 0, 0)"/><defs>
		
			<filter id="Adobe_OpacityMaskFilter_8_" filterUnits="userSpaceOnUse" x="2572.772" y="1491.811" width="276.074" height="319.264">
			<feFlood style="flood-color:white;flood-opacity:1" result="back"/>
			<feBlend in="SourceGraphic" in2="back" mode="normal"/>
		</filter>
	</defs><mask maskUnits="userSpaceOnUse" x="2572.772" y="1491.811" width="276.074" height="319.264" id="SVGID_15_">
		<g filter="url(#Adobe_OpacityMaskFilter_8_)">
		</g>
	</mask><path opacity="0.2" clip-path="url(#SVGID_2_)" mask="url(#SVGID_15_)" d="M2848.847,1811.074v-124.514&#10;&#9;&#9;c-12.738-11.864-22.47-25.895-39.851-37.967c2.71,1.505,5.777,0.518,8.922-1.766c12.541-9.108,12.25-14.993-1.206-22.67&#10;&#9;&#9;c-20.933-11.942-43.863-32.173-65.275-48.693c1.962,0.359,4.143-0.058,6.453-0.92c16.547-6.175,3.705-14.94-9.806-26.353&#10;&#9;&#9;c-16.596-14.021-38.637-33.025-62.289-38.512c-31.448-7.295-53.662-6.305-72.433,3.879l-18.864-21.749l-21.726,21.497&#10;&#9;&#9;l23.515,19.361c-3.547,9.304-4.314,20.061-2.298,33.416c0.321,9.177,1.592,19.179,4.001,30.478&#10;&#9;&#9;c5.088,23.856,23.649,46.304,37.338,63.202c11.145,13.755,19.662,26.797,26.062,10.268c0.896-2.311,1.346-4.497,1.018-6.471&#10;&#9;&#9;c16.102,21.773,52.996,68.855,64.551,90.079c7.426,13.644,13.275,14.027,22.532,1.566c2.322-3.127,3.351-6.192,1.896-8.938&#10;&#9;&#9;C2751.387,1746.27,2803.992,1793.514,2848.847,1811.074z" transform="matrix(1, 0, 0, 1, 0, 0)"/><path opacity="0.31" clip-path="url(#SVGID_2_)" fill="#6CE075" d="M1680.743,1558.93l201.073-176.697&#10;&#9;&#9;c8.556-12.082,0.542-28.049-15.244-30.375l-629.466-147.268l163.063-23.778l738.847,112.352&#10;&#9;&#9;c18.233,1.809,29.304,18.868,22.003,33.907l-229.585,263.035" transform="matrix(1, 0, 0, 1, 0, 0)"/><path opacity="0.2" d="M1889.442,1372.072l-4.018-0.593c0.027,3.635-0.943,7.342-3.358,10.753l-201.072,176.698l37.119,4.065&#10;&#9;&#9;&#9;l186.573-160.55C1913.242,1390.364,1905.229,1374.397,1889.442,1372.072z" transform="matrix(1, 0, 0, 1, 0, 0)"/><path opacity="0.2" d="M1422.788,1201.026l739.098,112.352c0.407,0.04,0.757,0.188,1.156,0.241&#10;&#9;&#9;&#9;c-1.847-10.343-10.959-19.185-23.774-20.456l-739.098-112.352" transform="matrix(1, 0, 0, 1, 0, 0)"/><path opacity="0.31" clip-path="url(#SVGID_2_)" fill="#73F07D" d="M816.953,1274.417l-107.339-114.89&#10;&#9;&#9;c-9.101-9.742-8.125-25.184,2.128-33.689l166.911-138.471l61.451,6.814l-107.896,119.775c-8.236,9.145-7.005,23.396,2.675,30.976&#10;&#9;&#9;l132.031,103.387" transform="matrix(1, 0, 0, 1, 0, 0)"/><g opacity="0.68" transform="matrix(1, 0, 0, 1, 0, 0)">
			<path opacity="0.2" d="M878.553,987.367l-166.911,138.471c-7.108,5.896-9.643,15.104-7.567,23.459&#10;&#9;&#9;&#9;&#9;c1.197-4.462,3.73-8.617,7.567-11.799l166.911-138.472"/>
		</g><path opacity="0.2" d="M825.34,1156.592l121.583,95.205l19.99-3.479l-132.031-103.386c-8.254-6.464-10.302-17.758-5.637-26.62&#10;&#9;&#9;&#9;&#9;l-6.58,7.306C814.429,1134.76,815.66,1149.011,825.34,1156.592z" transform="matrix(1, 0, 0, 1, 0, 0)"/><path opacity="0.2" d="M829.246,1118.312l101.315-112.471l-0.873-0.098l-97.48,108.213&#10;&#9;&#9;&#9;&#9;C830.995,1115.304,830.051,1116.781,829.246,1118.312z" transform="matrix(1, 0, 0, 1, 0, 0)"/><path opacity="0.2" clip-path="url(#SVGID_2_)" d="M2533.937,1622.922c-7.151-26.459-23.416-50.338-45.374-66.608&#10;&#9;&#9;c2.85,1.93,5.765,2.377,8.739,1.926c13.216-1.996,22.902-12.125,1.521-25.103c-21.867-13.27-31.354-33.181-54.84-49.493&#10;&#9;&#9;c2.709,1.505,5.775,0.518,8.921-1.766c12.54-9.108,12.25-14.993-1.205-22.67c-20.935-11.943-43.864-32.174-65.276-48.693&#10;&#9;&#9;c1.961,0.359,4.142-0.058,6.454-0.92c16.545-6.176,3.704-14.94-9.806-26.354c-16.598-14.021-38.639-33.025-62.29-38.511&#10;&#9;&#9;c-31.449-7.296-53.662-6.305-72.434,3.88l-18.863-21.749l-21.725,21.496l23.513,19.36c-3.546,9.305-4.312,20.062-2.298,33.417&#10;&#9;&#9;c0.322,9.177,1.593,19.179,4.002,30.478c5.088,23.856,23.649,46.303,37.339,63.202c11.143,13.755,19.66,26.797,26.062,10.267&#10;&#9;&#9;c0.895-2.311,1.345-4.496,1.017-6.471c16.102,21.774,52.997,68.856,64.551,90.08c7.427,13.643,13.277,14.025,22.532,1.566&#10;&#9;&#9;c2.322-3.127,3.353-6.192,1.896-8.938c0,0,92.293,82.915,136.614,69.907c2.175-0.638,4.949-2.758,7.006-4.645l0.05,0.05&#10;&#9;&#9;c0.205-0.19,0.351-0.432,0.547-0.629c0.334-0.323,0.709-0.665,0.979-0.951l-0.083-0.079c1.369-1.578,2.559-3.304,3.237-5.358&#10;&#9;&#9;C2536.498,1634.251,2535.413,1628.378,2533.937,1622.922z" transform="matrix(1, 0, 0, 1, 0, 0)"/><defs>
		
			<filter id="Adobe_OpacityMaskFilter_9_" filterUnits="userSpaceOnUse" x="266.473" y="1591.941" width="327.885" height="325.751">
			<feFlood style="flood-color:white;flood-opacity:1" result="back"/>
			<feBlend in="SourceGraphic" in2="back" mode="normal"/>
		</filter>
	</defs><mask maskUnits="userSpaceOnUse" x="266.473" y="1591.941" width="327.885" height="325.751" id="SVGID_16_">
		<g filter="url(#Adobe_OpacityMaskFilter_9_)">
		</g>
	</mask><path opacity="0.2" clip-path="url(#SVGID_2_)" mask="url(#SVGID_16_)" d="M355.091,1770.162c0.895-2.311,1.345-4.497,1.017-6.472&#10;&#9;&#9;c16.101,21.774,52.996,68.856,64.55,90.08c7.426,13.644,13.276,14.026,22.533,1.565c2.322-3.127,3.352-6.191,1.896-8.938&#10;&#9;&#9;c0,0,92.292,82.916,136.613,69.909c2.796-0.82,5.103-2.53,7.056-4.596l-50.153-51.203l0,0l50.153,51.203&#10;&#9;&#9;c2.082-1.927,3.763-4.24,4.681-7.018c1.774-5.363,0.688-11.235-0.787-16.692c-7.151-26.458-23.417-50.337-45.375-66.607&#10;&#9;&#9;c2.85,1.93,5.765,2.376,8.74,1.926c13.216-1.996,22.902-12.126,1.521-25.103c-21.867-13.271-31.354-33.181-54.84-49.495&#10;&#9;&#9;c2.709,1.506,5.776,0.519,8.922-1.765c12.54-9.108,12.25-14.992-1.205-22.67c-20.934-11.942-43.865-32.173-65.276-48.692&#10;&#9;&#9;c1.961,0.358,4.142-0.059,6.454-0.92c16.545-6.177,3.705-14.941-9.806-26.354c-16.597-14.021-38.638-33.025-62.291-38.512&#10;&#9;&#9;c-31.448-7.295-53.661-6.305-72.432,3.881l-18.865-21.75l-21.725,21.496l23.514,19.361c-3.546,9.303-4.313,20.061-2.298,33.416&#10;&#9;&#9;c0.322,9.178,1.593,19.179,4.002,30.478c5.087,23.856,23.649,46.304,37.339,63.202&#10;&#9;&#9;C340.172,1773.65,348.69,1786.691,355.091,1770.162z" transform="matrix(1, 0, 0, 1, 0, 0)"/><path opacity="0.2" d="M254.99,990.945l-7.965-11.242l-10.06,8.166c-7.534-5.993-17.309-8.177-31.827-7.413&#10;&#9;&#9;&#9;c-10.917,0.576-22.173,7.273-30.624,12.189c-6.882,4-13.258,6.88-6.399,10.919c0.958,0.564,1.893,0.92,2.791,0.917&#10;&#9;&#9;&#9;c-10.782,5.645-22.527,12.817-32.74,16.47c-6.566,2.348-7.153,4.936-2.299,9.961c1.218,1.26,2.502,1.938,3.821,1.483&#10;&#9;&#9;&#9;c-11.687,5.392-17.443,13.478-28.175,17.647c-10.493,4.075-6.984,9.328-1.278,11.254c1.285,0.433,2.613,0.464,4.027-0.168&#10;&#9;&#9;&#9;c-11.005,5.492-20.076,14.806-25.307,25.979c-1.079,2.305-2.017,4.824-1.647,7.343c0.192,1.305,0.758,2.461,1.531,3.48&#10;&#9;&#9;&#9;c0.706,1.069,1.596,2.01,2.773,2.593c18.647,9.252,66.033-20.277,66.033-20.277c-0.858,1.104-0.64,2.545,0.147,4.114&#10;&#9;&#9;&#9;c3.136,6.254,5.761,6.544,10.116,1.075c6.776-8.506,26.802-26.492,35.638-34.885c-0.299,0.85-0.27,1.854-0.053,2.949&#10;&#9;&#9;&#9;c1.555,7.836,6.347,2.72,12.359-2.506c7.387-6.421,17.365-14.919,21.478-25.103c1.946-4.822,3.289-9.158,4.145-13.204&#10;&#9;&#9;&#9;c1.933-5.767,2.429-10.597,1.579-15.004L254.99,990.945z" transform="matrix(1, 0, 0, 1, 0, 0)"/><path opacity="0.2" d="M351.619,1028.305c1.405,7.08,5.735,2.457,11.169-2.267c6.677-5.802,15.696-13.483,19.412-22.687&#10;&#9;&#9;&#9;c1.76-4.358,2.973-8.279,3.748-11.934c1.746-5.212,2.195-9.579,1.427-13.561l10.787-6.092l-7.198-10.16l-9.091,7.379&#10;&#9;&#9;&#9;c-6.809-5.416-15.646-7.389-28.766-6.698c-9.868,0.521-20.041,6.573-27.679,11.018c-6.218,3.616-11.982,6.217-5.784,9.869&#10;&#9;&#9;&#9;c0.866,0.51,1.711,0.832,2.523,0.828c-9.745,5.102-20.36,11.584-29.591,14.885c-5.934,2.123-6.464,4.461-2.077,9.003&#10;&#9;&#9;&#9;c1.1,1.14,2.261,1.753,3.452,1.341c-10.562,4.873-15.765,12.182-25.464,15.949c-9.483,3.684-6.312,8.434-1.154,10.172&#10;&#9;&#9;&#9;c1.16,0.391,2.36,0.42,3.64-0.153c-9.947,4.965-18.146,13.383-22.873,23.482c-0.976,2.083-1.823,4.36-1.489,6.638&#10;&#9;&#9;&#9;c0.173,1.178,0.685,2.225,1.384,3.145c0.637,0.967,1.443,1.816,2.505,2.344c16.855,8.361,59.684-18.327,59.684-18.327&#10;&#9;&#9;&#9;c-0.776,0.998-0.58,2.3,0.131,3.717c2.835,5.653,5.208,5.916,9.145,0.974c6.124-7.688,24.223-23.944,32.209-31.531&#10;&#9;&#9;&#9;C351.396,1026.405,351.423,1027.314,351.619,1028.305z" transform="matrix(1, 0, 0, 1, 0, 0)"/><path opacity="0.2" d="M600.225,1018.535c1.759-4.358,2.972-8.277,3.747-11.935c1.746-5.211,2.195-9.578,1.427-13.559&#10;&#9;&#9;&#9;l10.787-6.093l-7.198-10.162l-9.092,7.381c-6.809-5.417-15.646-7.39-28.765-6.698c-9.869,0.519-20.041,6.572-27.68,11.016&#10;&#9;&#9;&#9;c-6.22,3.616-11.982,6.218-5.784,9.869c0.867,0.51,1.711,0.831,2.522,0.826c-9.745,5.104-20.36,11.586-29.592,14.887&#10;&#9;&#9;&#9;c-5.934,2.123-6.463,4.461-2.077,9.002c1.102,1.139,2.261,1.753,3.453,1.343c-1.72,0.793-3.263,1.665-4.742,2.562l-4.41-6.224&#10;&#9;&#9;&#9;l-10.059,8.166c-7.534-5.993-17.31-8.179-31.827-7.413c-10.918,0.575-22.173,7.272-30.625,12.189&#10;&#9;&#9;&#9;c-6.881,4-13.257,6.88-6.398,10.919c0.958,0.564,1.893,0.921,2.791,0.915c-10.782,5.646-22.527,12.816-32.742,16.47&#10;&#9;&#9;&#9;c-6.565,2.349-7.151,4.937-2.298,9.962c1.218,1.26,2.502,1.938,3.821,1.484c-11.687,5.392-17.443,13.477-28.174,17.646&#10;&#9;&#9;&#9;c-10.494,4.076-6.986,9.33-1.278,11.254c1.285,0.434,2.611,0.465,4.025-0.167c-11.004,5.492-20.075,14.806-25.307,25.98&#10;&#9;&#9;&#9;c-1.077,2.305-2.015,4.823-1.646,7.342c0.192,1.306,0.758,2.462,1.531,3.48c0.706,1.069,1.596,2.009,2.773,2.593&#10;&#9;&#9;&#9;c18.647,9.253,66.033-20.277,66.033-20.277c-0.858,1.104-0.641,2.545,0.147,4.113c3.135,6.254,5.761,6.545,10.116,1.076&#10;&#9;&#9;&#9;c6.775-8.507,26.802-26.492,35.638-34.886c-0.299,0.851-0.271,1.855-0.053,2.95c1.554,7.835,6.347,2.72,12.359-2.507&#10;&#9;&#9;&#9;c1.6-1.391,3.331-2.896,5.086-4.477c19.57-0.055,51.468-19.903,51.468-19.903c-0.776,0.997-0.58,2.299,0.131,3.717&#10;&#9;&#9;&#9;c2.836,5.653,5.208,5.915,9.144,0.973c6.125-7.688,24.224-23.944,32.21-31.53c-0.27,0.768-0.243,1.677-0.047,2.667&#10;&#9;&#9;&#9;c1.405,7.08,5.735,2.458,11.169-2.267C587.489,1035.42,596.508,1027.738,600.225,1018.535z" transform="matrix(1, 0, 0, 1, 0, 0)"/><path opacity="0.2" d="M751.429,1034.154l-7.963-11.242l-10.059,8.166c-7.534-5.993-17.311-8.177-31.827-7.412&#10;&#9;&#9;&#9;c-10.918,0.575-22.172,7.273-30.625,12.188c-6.881,4.001-13.258,6.88-6.399,10.92c0.958,0.563,1.893,0.92,2.79,0.916&#10;&#9;&#9;&#9;c-10.781,5.645-22.525,12.816-32.741,16.469c-6.564,2.35-7.15,4.937-2.297,9.962c1.218,1.259,2.502,1.938,3.82,1.483&#10;&#9;&#9;&#9;c-11.686,5.392-17.442,13.478-28.174,17.647c-10.493,4.075-6.984,9.328-1.277,11.253c1.284,0.434,2.611,0.466,4.025-0.167&#10;&#9;&#9;&#9;c-11.005,5.491-20.076,14.805-25.307,25.98c-1.079,2.304-2.017,4.822-1.646,7.341c0.19,1.306,0.757,2.463,1.53,3.481&#10;&#9;&#9;&#9;c0.707,1.069,1.597,2.01,2.773,2.593c18.647,9.252,66.034-20.277,66.034-20.277c-0.859,1.104-0.64,2.545,0.146,4.113&#10;&#9;&#9;&#9;c3.137,6.255,5.762,6.544,10.118,1.077c6.775-8.507,26.801-26.492,35.635-34.888c-0.297,0.852-0.269,1.856-0.051,2.952&#10;&#9;&#9;&#9;c1.555,7.835,6.347,2.719,12.359-2.507c7.386-6.421,17.365-14.919,21.478-25.102c1.946-4.823,3.289-9.159,4.145-13.205&#10;&#9;&#9;&#9;c1.932-5.766,2.429-10.597,1.58-15.003L751.429,1034.154z" transform="matrix(1, 0, 0, 1, 0, 0)"/><g transform="matrix(1, 0, 0, 1, 0, 0)">
			<g>
				<path fill="#2F753D" d="M258.355,710.294c7.418,13.257,10.234,29.058,7.854,44.08c0.379-1.877,1.359-3.195,2.709-4.18&#10;&#9;&#9;&#9;&#9;&#9;c5.998-4.38,13.749-4.165,10.321,9.329c-3.506,13.799,0.453,25.38-2.513,41.016c0.487-1.654,2.082-2.464,4.21-2.792&#10;&#9;&#9;&#9;&#9;&#9;c8.484-1.305,10.647,1.136,8.301,9.433c-3.651,12.909-4.883,29.875-6.951,44.781c0.636-0.909,1.661-1.597,2.908-2.161&#10;&#9;&#9;&#9;&#9;&#9;c8.932-4.03,7.249,4.457,6.328,14.253c-1.131,12.035-2.486,28.169-9.711,39.589c-10.725,16.951-20.874,25.368-34.175,27.795&#10;&#9;&#9;&#9;&#9;&#9;V702.445c1.57-0.053,3.13,0.204,4.568,0.943C254.981,704.815,256.826,707.561,258.355,710.294z"/>
			</g>
			<g>
				<path fill="#2F753D" d="M210.075,849.8c1.249,0.563,2.273,1.251,2.908,2.161c-2.066-14.906-5.711-47.95-9.362-60.858&#10;&#9;&#9;&#9;&#9;&#9;c-2.347-8.298-0.183-10.738,8.301-9.433c2.129,0.327,3.722,1.137,4.211,2.791c0,0,4.377-68.877,26.935-81.072&#10;&#9;&#9;&#9;&#9;&#9;c1.422-0.769,2.997-0.996,4.568-0.943l-0.001,228.992c-13.301-2.427-23.451-10.844-34.175-27.795&#10;&#9;&#9;&#9;&#9;&#9;c-7.226-11.42-8.58-27.554-9.712-39.589C202.827,854.257,201.145,845.77,210.075,849.8z"/>
			</g>
		</g><g transform="matrix(1, 0, 0, 1, 0, 0)">
				<path fill="#2D703A" d="M250.891,747.122c-0.974-2.346-2.469-4.566-4.501-5.756c-1.053-0.616-2.194-0.83-3.343-0.786v179.499&#10;&#9;&#9;&#9;&#9;&#9;c0,6.164,7.144,9.458,11.856,5.513c4.565-3.822,8.793-9.475,13.151-17.32c4.354-7.836,8.083-31.145,6.454-43.992&#10;&#9;&#9;&#9;&#9;&#9;c-0.406-3.201-2.862-5.513-5.979-6.289c-2.606-0.649-4.147-9.714-1.791-19.053c4.189-16.602-4.418-14.149-4.576-29.844&#10;&#9;&#9;&#9;&#9;&#9;c-0.156-15.694,8.85-33.281-3.19-31.771C258.972,777.323,256.152,759.794,250.891,747.122z"/>
			</g><path fill="#2D703A" d="M239.704,741.366c1.089-0.553,2.193-0.83,3.342-0.786v190.857c-9.734-2.022-17.16-9.038-25.007-23.166&#10;&#9;&#9;&#9;&#9;&#9;c-5.288-9.519-6.279-22.966-7.106-32.996c0,0-0.341-11.825,5.751-11.825c6.094,0-11.501-53.93,1.456-55.961&#10;&#9;&#9;&#9;&#9;&#9;c6.104-0.957,1.292-15.591,3.4-21.554c1.8-5.09,11.049-2.058,10.976-7.459C232.346,766.169,234.241,744.141,239.704,741.366z" transform="matrix(1, 0, 0, 1, 0, 0)"/><path d="M 238.0780029296875 991.1820068359375 L 254.98899841308594 991.1820068359375 L 246.531005859375 845.218994140625 Z" fill="#495912" transform="matrix(1, 0, 0, 1, 0, 0)"/><path d="M 244.1840057373047 901.2420043945312 L 264.36199951171875 870.0670166015625 L 246.65199279785156 905.5869750976562 Z" fill="#495912" transform="matrix(1, 0, 0, 1, 0, 0)"/><path d="M 249.82400512695312 912.177001953125 L 221.2550048828125 877.72802734375 L 246.3280029296875 916.9840087890625 Z" fill="#495912" transform="matrix(1, 0, 0, 1, 0, 0)"/><g transform="matrix(1, 0, 0, 1, 0, 0)">
			<g>
				<path fill="#378A48" d="M399.927,719.846c6.666,11.913,9.197,26.112,7.058,39.611c0.341-1.688,1.221-2.871,2.435-3.757&#10;&#9;&#9;&#9;&#9;&#9;c5.39-3.936,12.355-3.743,9.275,8.384c-3.15,12.4,0.406,22.808-2.26,36.859c0.438-1.487,1.871-2.214,3.783-2.508&#10;&#9;&#9;&#9;&#9;&#9;c7.625-1.173,9.569,1.02,7.46,8.477c-3.281,11.601-4.388,26.847-6.246,40.242c0.572-0.816,1.492-1.435,2.612-1.941&#10;&#9;&#9;&#9;&#9;&#9;c8.027-3.622,6.515,4.005,5.687,12.809c-1.017,10.814-2.234,25.313-8.728,35.576c-9.637,15.233-18.757,22.798-30.71,24.978&#10;&#9;&#9;&#9;&#9;&#9;V712.792c1.411-0.048,2.812,0.183,4.104,0.847C396.895,714.921,398.552,717.389,399.927,719.846z"/>
			</g>
			<g>
				<path fill="#378A48" d="M356.54,845.212c1.122,0.506,2.043,1.125,2.613,1.941c-1.857-13.395-5.133-43.088-8.414-54.689&#10;&#9;&#9;&#9;&#9;&#9;c-2.108-7.457-0.163-9.649,7.46-8.477c1.913,0.295,3.345,1.022,3.784,2.509c0,0,3.934-61.897,24.205-72.855&#10;&#9;&#9;&#9;&#9;&#9;c1.278-0.691,2.693-0.895,4.106-0.847l-0.001,205.782c-11.954-2.18-21.074-9.745-30.712-24.978&#10;&#9;&#9;&#9;&#9;&#9;c-6.493-10.262-7.71-24.761-8.727-35.576C350.026,849.217,348.514,841.59,356.54,845.212z"/>
			</g>
		</g><g transform="matrix(1, 0, 0, 1, 0, 0)">
				<path fill="#327D40" d="M393.219,752.941c-0.875-2.108-2.219-4.104-4.046-5.173c-0.946-0.553-1.971-0.746-3.004-0.707v161.306&#10;&#9;&#9;&#9;&#9;&#9;c0,5.539,6.419,8.499,10.654,4.954c4.103-3.435,7.902-8.514,11.818-15.565c3.912-7.041,7.264-27.988,5.8-39.533&#10;&#9;&#9;&#9;&#9;&#9;c-0.365-2.877-2.572-4.954-5.373-5.651c-2.343-0.583-3.727-8.729-1.609-17.123c3.766-14.919-3.97-12.715-4.111-26.819&#10;&#9;&#9;&#9;&#9;&#9;c-0.141-14.103,7.953-29.907-2.867-28.551C400.481,780.08,397.947,764.329,393.219,752.941z"/>
			</g><path fill="#327D40" d="M383.166,747.768c0.979-0.497,1.97-0.746,3.003-0.707v171.513c-8.747-1.817-15.421-8.123-22.473-20.818&#10;&#9;&#9;&#9;&#9;&#9;c-4.752-8.554-5.643-20.637-6.386-29.651c0,0-0.306-10.627,5.169-10.627c5.477,0-10.336-48.462,1.308-50.289&#10;&#9;&#9;&#9;&#9;&#9;c5.486-0.859,1.161-14.011,3.056-19.37c1.618-4.574,9.93-1.849,9.863-6.703C376.555,770.057,378.256,750.261,383.166,747.768z" transform="matrix(1, 0, 0, 1, 0, 0)"/><path d="M 381.7049865722656 972.2639770507812 L 396.9020080566406 972.2639770507812 L 389.29998779296875 841.093994140625 Z" fill="#576915" transform="matrix(1, 0, 0, 1, 0, 0)"/><path d="M 387.1919860839844 891.4400024414062 L 405.32501220703125 863.4249877929688 L 389.4100036621094 895.344970703125 Z" fill="#576915" transform="matrix(1, 0, 0, 1, 0, 0)"/><path d="M 392.260009765625 901.2659912109375 L 366.5870056152344 870.3090209960938 L 389.1189880371094 905.5859985351562 Z" fill="#576915" transform="matrix(1, 0, 0, 1, 0, 0)"/><g transform="matrix(1, 0, 0, 1, 0, 0)">
			<g>
				<path fill="#2F753D" d="M514.87,751.312c7.418,13.256,10.234,29.058,7.854,44.079c0.379-1.877,1.359-3.194,2.709-4.179&#10;&#9;&#9;&#9;&#9;&#9;c5.998-4.381,13.749-4.166,10.321,9.328c-3.506,13.799,0.453,25.381-2.514,41.017c0.488-1.654,2.083-2.464,4.21-2.792&#10;&#9;&#9;&#9;&#9;&#9;c8.485-1.305,10.648,1.135,8.302,9.432c-3.651,12.91-4.882,29.875-6.951,44.781c0.636-0.908,1.661-1.597,2.908-2.16&#10;&#9;&#9;&#9;&#9;&#9;c8.932-4.031,7.25,4.457,6.328,14.253c-1.131,12.035-2.486,28.168-9.711,39.589c-10.725,16.95-20.874,25.368-34.175,27.794&#10;&#9;&#9;&#9;&#9;&#9;V743.463c1.569-0.052,3.129,0.205,4.568,0.943C511.496,745.833,513.341,748.578,514.87,751.312z"/>
			</g>
			<g>
				<path fill="#2F753D" d="M466.589,890.818c1.249,0.562,2.272,1.251,2.908,2.16c-2.066-14.906-5.712-47.949-9.363-60.858&#10;&#9;&#9;&#9;&#9;&#9;c-2.346-8.297-0.182-10.738,8.302-9.433c2.129,0.328,3.722,1.137,4.211,2.791c0,0,4.377-68.877,26.935-81.072&#10;&#9;&#9;&#9;&#9;&#9;c1.422-0.77,2.997-0.996,4.568-0.943l-0.001,228.992c-13.301-2.426-23.451-10.844-34.175-27.794&#10;&#9;&#9;&#9;&#9;&#9;c-7.226-11.421-8.58-27.554-9.712-39.589C459.341,895.275,457.659,886.787,466.589,890.818z"/>
			</g>
		</g><g transform="matrix(1, 0, 0, 1, 0, 0)">
				<path fill="#2D703A" d="M507.405,788.14c-0.974-2.346-2.469-4.567-4.501-5.756c-1.053-0.616-2.194-0.831-3.343-0.786v179.499&#10;&#9;&#9;&#9;&#9;&#9;c0,6.164,7.143,9.457,11.856,5.512c4.565-3.821,8.794-9.474,13.151-17.319c4.354-7.836,8.083-31.145,6.454-43.992&#10;&#9;&#9;&#9;&#9;&#9;c-0.406-3.202-2.862-5.513-5.979-6.289c-2.606-0.649-4.147-9.714-1.791-19.053c4.189-16.603-4.418-14.149-4.576-29.844&#10;&#9;&#9;&#9;&#9;&#9;c-0.157-15.695,8.849-33.282-3.191-31.771C515.486,818.34,512.667,800.812,507.405,788.14z"/>
			</g><path fill="#2D703A" d="M496.218,782.384c1.09-0.554,2.194-0.831,3.343-0.786v190.856c-9.734-2.021-17.16-9.038-25.007-23.166&#10;&#9;&#9;&#9;&#9;&#9;c-5.288-9.519-6.279-22.965-7.106-32.996c0,0-0.342-11.826,5.752-11.826c6.094,0-11.501-53.929,1.456-55.96&#10;&#9;&#9;&#9;&#9;&#9;c6.104-0.958,1.291-15.592,3.4-21.555c1.8-5.09,11.049-2.057,10.976-7.459C488.861,807.187,490.754,785.158,496.218,782.384z" transform="matrix(1, 0, 0, 1, 0, 0)"/><path d="M 494.5929870605469 1032.198974609375 L 511.5039978027344 1032.198974609375 L 503.0450134277344 886.2360229492188 Z" fill="#495912" transform="matrix(1, 0, 0, 1, 0, 0)"/><path d="M 500.697998046875 942.2589721679688 L 520.8759765625 911.0850219726562 L 503.1669921875 946.60400390625 Z" fill="#495912" transform="matrix(1, 0, 0, 1, 0, 0)"/><path d="M 506.3380126953125 953.1939697265625 L 477.7699890136719 918.7449951171875 L 502.8429870605469 958.0009765625 Z" fill="#495912" transform="matrix(1, 0, 0, 1, 0, 0)"/><g transform="matrix(1, 0, 0, 1, 0, 0)">
			<g>
				<path fill="#378A48" d="M617.007,735.276c6.666,11.913,9.197,26.113,7.059,39.611c0.34-1.688,1.22-2.87,2.434-3.756&#10;&#9;&#9;&#9;&#9;&#9;c5.389-3.937,12.355-3.744,9.275,8.383c-3.15,12.4,0.407,22.809-2.259,36.859c0.438-1.487,1.87-2.214,3.782-2.508&#10;&#9;&#9;&#9;&#9;&#9;c7.625-1.173,9.569,1.02,7.46,8.477c-3.281,11.601-4.388,26.847-6.246,40.242c0.572-0.816,1.492-1.435,2.612-1.94&#10;&#9;&#9;&#9;&#9;&#9;c8.027-3.623,6.515,4.005,5.687,12.808c-1.017,10.814-2.234,25.313-8.728,35.577c-9.637,15.232-18.757,22.797-30.711,24.977&#10;&#9;&#9;&#9;&#9;&#9;V728.223c1.411-0.048,2.812,0.183,4.105,0.847C613.975,730.353,615.632,732.819,617.007,735.276z"/>
			</g>
			<g>
				<path fill="#378A48" d="M573.62,860.644c1.123,0.505,2.043,1.125,2.613,1.94c-1.857-13.395-5.133-43.089-8.413-54.69&#10;&#9;&#9;&#9;&#9;&#9;c-2.108-7.457-0.164-9.649,7.459-8.476c1.914,0.294,3.346,1.021,3.784,2.508c0,0,3.934-61.896,24.205-72.855&#10;&#9;&#9;&#9;&#9;&#9;c1.278-0.691,2.693-0.895,4.105-0.847l0,205.782c-11.954-2.18-21.074-9.745-30.711-24.977&#10;&#9;&#9;&#9;&#9;&#9;c-6.493-10.263-7.71-24.762-8.728-35.577C567.106,864.648,565.595,857.021,573.62,860.644z"/>
			</g>
		</g><g transform="matrix(1, 0, 0, 1, 0, 0)">
				<path fill="#327D40" d="M610.299,768.371c-0.875-2.107-2.219-4.104-4.045-5.172c-0.945-0.553-1.972-0.746-3.004-0.707v161.306&#10;&#9;&#9;&#9;&#9;&#9;c0,5.539,6.42,8.499,10.655,4.954c4.102-3.435,7.902-8.514,11.818-15.565c3.912-7.041,7.264-27.988,5.8-39.533&#10;&#9;&#9;&#9;&#9;&#9;c-0.365-2.877-2.572-4.954-5.373-5.652c-2.342-0.583-3.727-8.729-1.608-17.122c3.765-14.919-3.971-12.715-4.112-26.818&#10;&#9;&#9;&#9;&#9;&#9;c-0.141-14.104,7.953-29.908-2.867-28.552C617.561,795.51,615.027,779.76,610.299,768.371z"/>
			</g><path fill="#327D40" d="M600.246,763.199c0.979-0.497,1.97-0.746,3.003-0.707v171.513c-8.747-1.817-15.42-8.123-22.473-20.818&#10;&#9;&#9;&#9;&#9;&#9;c-4.752-8.553-5.643-20.637-6.386-29.651c0,0-0.306-10.626,5.169-10.626c5.477,0-10.336-48.463,1.308-50.29&#10;&#9;&#9;&#9;&#9;&#9;c5.486-0.859,1.161-14.011,3.056-19.37c1.618-4.574,9.93-1.848,9.863-6.703C593.634,785.487,595.336,765.693,600.246,763.199z" transform="matrix(1, 0, 0, 1, 0, 0)"/><path d="M 598.7849731445312 987.6950073242188 L 613.9819946289062 987.6950073242188 L 606.3809814453125 856.5250244140625 Z" fill="#576915" transform="matrix(1, 0, 0, 1, 0, 0)"/><path d="M 604.27099609375 906.8709716796875 L 622.405029296875 878.8560180664062 L 606.489013671875 910.7750244140625 Z" fill="#576915" transform="matrix(1, 0, 0, 1, 0, 0)"/><path d="M 609.3400268554688 916.697021484375 L 583.6669921875 885.739990234375 L 606.198974609375 921.0170288085938 Z" fill="#576915" transform="matrix(1, 0, 0, 1, 0, 0)"/><g transform="matrix(1, 0, 0, 1, 0, 0)">
			<g>
				<path fill="#2F753D" d="M754.753,753.699c7.417,13.256,10.234,29.058,7.854,44.079c0.379-1.877,1.359-3.194,2.709-4.179&#10;&#9;&#9;&#9;&#9;&#9;c5.997-4.38,13.749-4.165,10.321,9.328c-3.506,13.798,0.453,25.381-2.514,41.016c0.487-1.654,2.082-2.464,4.209-2.792&#10;&#9;&#9;&#9;&#9;&#9;c8.485-1.305,10.648,1.135,8.302,9.433c-3.65,12.909-4.882,29.875-6.95,44.78c0.636-0.908,1.661-1.597,2.908-2.16&#10;&#9;&#9;&#9;&#9;&#9;c8.932-4.03,7.249,4.458,6.328,14.253c-1.132,12.035-2.486,28.169-9.712,39.589c-10.724,16.95-20.874,25.368-34.175,27.794&#10;&#9;&#9;&#9;&#9;&#9;V745.85c1.57-0.053,3.129,0.204,4.567,0.943C751.379,748.219,753.224,750.964,754.753,753.699z"/>
			</g>
			<g>
				<path fill="#2F753D" d="M706.473,893.205c1.249,0.563,2.272,1.251,2.908,2.16c-2.066-14.905-5.712-47.949-9.363-60.858&#10;&#9;&#9;&#9;&#9;&#9;c-2.347-8.297-0.182-10.737,8.302-9.432c2.129,0.327,3.722,1.137,4.21,2.791c0,0,4.378-68.877,26.936-81.072&#10;&#9;&#9;&#9;&#9;&#9;c1.422-0.769,2.997-0.996,4.568-0.943l-0.001,228.991c-13.301-2.426-23.451-10.844-34.175-27.794&#10;&#9;&#9;&#9;&#9;&#9;c-7.225-11.42-8.58-27.554-9.711-39.589C699.224,897.662,697.542,889.174,706.473,893.205z"/>
			</g>
		</g><g transform="matrix(1, 0, 0, 1, 0, 0)">
				<path fill="#2D703A" d="M747.289,790.526c-0.974-2.346-2.469-4.567-4.501-5.756c-1.053-0.616-2.195-0.831-3.343-0.786v179.499&#10;&#9;&#9;&#9;&#9;&#9;c0,6.164,7.143,9.458,11.856,5.513c4.565-3.822,8.794-9.475,13.151-17.32c4.353-7.836,8.083-31.146,6.454-43.993&#10;&#9;&#9;&#9;&#9;&#9;c-0.406-3.202-2.862-5.513-5.979-6.289c-2.607-0.649-4.147-9.714-1.791-19.053c4.189-16.602-4.418-14.149-4.576-29.843&#10;&#9;&#9;&#9;&#9;&#9;c-0.157-15.694,8.849-33.281-3.191-31.772C755.369,820.726,752.55,803.199,747.289,790.526z"/>
			</g><path fill="#2D703A" d="M736.102,784.771c1.089-0.553,2.192-0.831,3.342-0.786v190.856c-9.733-2.021-17.16-9.038-25.007-23.165&#10;&#9;&#9;&#9;&#9;&#9;c-5.288-9.518-6.279-22.966-7.107-32.996c0,0-0.341-11.825,5.752-11.825c6.094,0-11.501-53.93,1.456-55.961&#10;&#9;&#9;&#9;&#9;&#9;c6.104-0.958,1.291-15.592,3.401-21.555c1.8-5.089,11.049-2.058,10.975-7.458C728.744,809.573,730.638,787.545,736.102,784.771z&#10;&#9;&#9;&#9;&#9;&#9;" transform="matrix(1, 0, 0, 1, 0, 0)"/><path d="M 734.4760131835938 1034.5849609375 L 751.3870239257812 1034.5849609375 L 742.9290161132812 888.6220092773438 Z" fill="#495912" transform="matrix(1, 0, 0, 1, 0, 0)"/><path d="M 740.5809936523438 944.64599609375 L 760.760009765625 913.4719848632812 L 743.0499877929688 948.9920043945312 Z" fill="#495912" transform="matrix(1, 0, 0, 1, 0, 0)"/><path d="M 746.2219848632812 955.5800170898438 L 717.6519775390625 921.1320190429688 L 742.7260131835938 960.3889770507812 Z" fill="#495912" transform="matrix(1, 0, 0, 1, 0, 0)"/><linearGradient id="SVGID_17_" gradientUnits="userSpaceOnUse" x1="252.9507" y1="721.6753" x2="240.1623" y2="953.9987">
			<stop offset="0" style="stop-color:#F2F2F2"/>
			<stop offset="1" style="stop-color:#000000"/>
		</linearGradient><path fill="url(#SVGID_17_)" d="M285.195,849.8c-1.248,0.563-2.271,1.251-2.908,2.16c2.067-14.905,3.299-31.871,6.951-44.78&#10;&#9;&#9;&#9;c2.346-8.298,0.181-10.737-8.303-9.432c-2.126,0.327-3.721,1.136-4.209,2.792c2.966-15.636-0.993-27.218,2.512-41.017&#10;&#9;&#9;&#9;c3.429-13.494-4.322-13.71-10.319-9.329c-1.35,0.985-2.33,2.303-2.71,4.18c2.381-15.021-0.436-30.823-7.854-44.08&#10;&#9;&#9;&#9;c-1.53-2.734-3.374-5.479-6.152-6.907c-1.437-0.738-2.998-0.995-4.568-0.942v40.071c0,0,0.001,0,0,0v-40.07&#10;&#9;&#9;&#9;c-1.57-0.053-3.146,0.175-4.568,0.942c-22.558,12.196-26.935,81.073-26.935,81.073c-0.489-1.655-2.083-2.464-4.211-2.791&#10;&#9;&#9;&#9;c-8.482-1.305-10.647,1.135-8.301,9.433c3.651,12.909,7.296,45.952,9.362,60.857c-0.634-0.908-1.66-1.597-2.907-2.16&#10;&#9;&#9;&#9;c-8.931-4.03-7.25,4.457-6.328,14.253c1.132,12.035,2.487,28.169,9.712,39.588c3.421,5.41,6.793,9.86,10.218,13.616&#10;&#9;&#9;&#9;c5.514,7.646,11.17,11.96,17.884,13.762l-3.484,60.162h16.912l-3.519-60.69c11.457-3.277,20.676-11.575,30.339-26.849&#10;&#9;&#9;&#9;c7.226-11.419,8.58-27.553,9.71-39.588C292.443,854.257,294.127,845.77,285.195,849.8z" transform="matrix(1, 0, 0, 1, 0, 0)"/><linearGradient id="SVGID_18_" gradientUnits="userSpaceOnUse" x1="510.9375" y1="735.9492" x2="498.1491" y2="968.2726">
			<stop offset="0" style="stop-color:#F2F2F2"/>
			<stop offset="1" style="stop-color:#000000"/>
		</linearGradient><path fill="url(#SVGID_18_)" d="M541.709,890.818c-1.248,0.562-2.272,1.25-2.908,2.16c2.066-14.905,3.299-31.872,6.95-44.781&#10;&#9;&#9;&#9;c2.346-8.297,0.182-10.737-8.302-9.432c-2.127,0.327-3.722,1.137-4.209,2.792c2.966-15.636-0.993-27.218,2.512-41.017&#10;&#9;&#9;&#9;c3.429-13.494-4.322-13.708-10.319-9.328c-1.35,0.985-2.33,2.302-2.71,4.179c2.38-15.021-0.436-30.822-7.854-44.08&#10;&#9;&#9;&#9;c-1.53-2.733-3.374-5.478-6.152-6.906c-1.438-0.739-2.998-0.995-4.568-0.943v40.071c0,0,0.001-0.001,0-0.001v-40.07&#10;&#9;&#9;&#9;c-1.571-0.052-3.146,0.174-4.569,0.943c-22.557,12.195-26.934,81.073-26.934,81.073c-0.489-1.655-2.082-2.465-4.211-2.792&#10;&#9;&#9;&#9;c-8.482-1.305-10.648,1.134-8.302,9.432c3.652,12.909,7.297,45.954,9.363,60.858c-0.634-0.909-1.66-1.598-2.908-2.16&#10;&#9;&#9;&#9;c-8.93-4.031-7.249,4.457-6.327,14.252c1.132,12.036,2.487,28.169,9.712,39.589c3.421,5.41,6.793,9.86,10.218,13.615&#10;&#9;&#9;&#9;c5.515,7.647,11.17,11.96,17.884,13.762l-3.484,60.163h16.912l-3.518-60.691c11.456-3.277,20.676-11.574,30.338-26.848&#10;&#9;&#9;&#9;c7.225-11.419,8.58-27.553,9.71-39.589C548.958,895.275,550.641,886.787,541.709,890.818z" transform="matrix(1, 0, 0, 1, 0, 0)"/><linearGradient id="SVGID_19_" gradientUnits="userSpaceOnUse" x1="750.2241" y1="749.1875" x2="737.4358" y2="981.5104">
			<stop offset="0" style="stop-color:#F2F2F2"/>
			<stop offset="1" style="stop-color:#000000"/>
		</linearGradient><path fill="url(#SVGID_19_)" d="M781.593,893.205c-1.248,0.563-2.272,1.251-2.908,2.16c2.066-14.905,3.299-31.872,6.95-44.781&#10;&#9;&#9;&#9;c2.347-8.296,0.183-10.738-8.301-9.432c-2.128,0.329-3.723,1.137-4.21,2.792c2.967-15.635-0.992-27.218,2.514-41.016&#10;&#9;&#9;&#9;c3.428-13.493-4.323-13.708-10.32-9.328c-1.351,0.985-2.33,2.302-2.71,4.179c2.38-15.021-0.436-30.821-7.854-44.078&#10;&#9;&#9;&#9;c-1.53-2.735-3.374-5.481-6.153-6.907c-1.437-0.739-2.997-0.996-4.567-0.943v40.071l0,0V745.85&#10;&#9;&#9;&#9;c-1.571-0.053-3.145,0.173-4.568,0.943c-22.558,12.194-26.936,81.072-26.936,81.072c-0.488-1.654-2.083-2.464-4.21-2.791&#10;&#9;&#9;&#9;c-8.482-1.306-10.648,1.136-8.3,9.432c3.65,12.91,7.296,45.953,9.361,60.858c-0.634-0.908-1.659-1.597-2.908-2.16&#10;&#9;&#9;&#9;c-8.931-4.031-7.249,4.458-6.328,14.252c1.133,12.036,2.488,28.169,9.713,39.59c3.421,5.408,6.79,9.856,10.215,13.61&#10;&#9;&#9;&#9;c5.516,7.649,11.172,11.964,17.887,13.768l-3.485,60.16h16.913l-3.519-60.69c11.457-3.277,20.676-11.575,30.338-26.848&#10;&#9;&#9;&#9;c7.226-11.421,8.58-27.554,9.711-39.59C788.842,897.662,790.524,889.174,781.593,893.205z" transform="matrix(1, 0, 0, 1, 0, 0)"/><g transform="matrix(1, 0, 0, 1, 0, 0)">
			<g>
				<path fill="#255C30" d="M1456.579,1052.612c-13.346,25.585-17.813,55.741-12.46,84.125c-0.824-3.543-2.758-5.987-5.375-7.782&#10;&#9;&#9;&#9;&#9;&#9;c-11.63-7.979-26.334-7.136-19.076,18.289c7.422,26,0.55,48.211,7.053,77.728c-1.018-3.112-4.09-4.56-8.148-5.062&#10;&#9;&#9;&#9;&#9;&#9;c-16.18-2.002-20.152,2.753-15.235,18.374c7.648,24.304,10.931,56.445,15.685,84.626c-1.258-1.688-3.241-2.938-5.64-3.938&#10;&#9;&#9;&#9;&#9;&#9;c-17.181-7.149-13.515,8.87-11.221,27.416c2.817,22.784,6.286,53.339,20.639,74.614c21.303,31.578,41.039,46.99,66.428,50.848&#10;&#9;&#9;&#9;&#9;&#9;l-12.733-434.741c-2.983-0.012-5.931,0.563-8.62,2.048C1462.68,1042.02,1459.331,1047.336,1456.579,1052.612z"/>
			</g>
			<g>
				<path fill="#255C30" d="M1555.997,1314.753c-2.339,1.139-4.245,2.504-5.399,4.264c3.093-28.414,8.177-91.353,14.391-116.065&#10;&#9;&#9;&#9;&#9;&#9;c3.992-15.885-0.252-20.396-16.285-17.441c-4.024,0.741-7.004,2.368-7.84,5.536c0,0-12.141-130.519-55.644-152.403&#10;&#9;&#9;&#9;&#9;&#9;c-2.743-1.381-5.745-1.722-8.725-1.534l12.733,434.741c25.119-5.353,43.919-21.905,63.337-54.688&#10;&#9;&#9;&#9;&#9;&#9;c13.083-22.087,14.758-52.793,16.236-75.705C1570.006,1322.808,1572.729,1306.599,1555.997,1314.753z"/>
			</g>
		</g><g transform="matrix(1, 0, 0, 1, 0, 0)">
				<path fill="#205428" d="M1472.799,1122.11c1.717-4.508,4.433-8.809,8.226-11.181c1.964-1.229,4.119-1.699,6.303-1.681&#10;&#9;&#9;&#9;&#9;&#9;l9.981,340.779c0.343,11.702-13.036,18.355-22.202,11.131c-8.88-6.999-17.222-17.493-25.931-32.143&#10;&#9;&#9;&#9;&#9;&#9;c-8.7-14.633-17.077-58.675-14.698-83.157c0.593-6.1,5.127-10.626,11.001-12.274c4.912-1.378,7.333-18.676,2.339-36.273&#10;&#9;&#9;&#9;&#9;&#9;c-8.876-31.284,7.603-27.11,7.027-56.915s-18.651-62.688,4.291-60.498C1459.136,1179.898,1463.514,1146.465,1472.799,1122.11z"/>
			</g><path fill="#205428" d="M1493.717,1110.555c-2.1-0.99-4.21-1.453-6.39-1.306l10.613,362.343&#10;&#9;&#9;&#9;&#9;&#9;c18.366-4.385,32.075-18.123,46.188-45.385c9.509-18.367,10.643-43.953,11.657-63.043c0,0-0.011-22.47-11.579-22.127&#10;&#9;&#9;&#9;&#9;&#9;c-11.569,0.342,18.837-103.031-5.875-106.16c-11.641-1.474-3.318-29.527-7.654-40.729c-3.701-9.562-21.092-3.286-21.251-13.544&#10;&#9;&#9;&#9;&#9;&#9;C1509.063,1157.229,1504.244,1115.515,1493.717,1110.555z" transform="matrix(1, 0, 0, 1, 0, 0)"/><path d="M 1505.5989990234375 1526.4000244140625 L 1480.3919677734375 1522.635009765625 L 1486.530029296875 1308.1009521484375 Z" fill="#39450D" transform="matrix(1, 0, 0, 1, 0, 0)"/><path d="M 1494.10302734375 1414.3299560546875 L 1454.06005859375 1356.279052734375 L 1489.656982421875 1422.718994140625 Z" fill="#39450D" transform="matrix(1, 0, 0, 1, 0, 0)"/><path d="M 1484.001953125 1435.406005859375 L 1536.323974609375 1368.4000244140625 L 1490.906005859375 1444.3380126953125 Z" fill="#39450D" transform="matrix(1, 0, 0, 1, 0, 0)"/><g transform="matrix(1, 0, 0, 1, 0, 0)">
			<g>
				<path fill="#255C30" d="M2594.581,906.165c-17.427,27.917-25.159,61.822-21.563,94.582c-0.627-4.104-2.611-7.055-5.432-9.331&#10;&#9;&#9;&#9;&#9;&#9;c-12.526-10.108-29.325-10.453-23.305,19.111c6.158,30.232-3.609,54.886,1.193,89.037c-0.885-3.632-4.252-5.551-8.822-6.482&#10;&#9;&#9;&#9;&#9;&#9;c-18.229-3.713-23.164,1.343-18.944,19.548c6.564,28.321,7.473,65.173,10.404,97.65c-1.282-2.033-3.429-3.631-6.07-4.979&#10;&#9;&#9;&#9;&#9;&#9;c-18.914-9.659-16.151,8.888-15.171,30.187c1.202,26.167,2.463,61.229,16.919,86.702c21.455,37.81,42.55,57.091,71.089,63.733&#10;&#9;&#9;&#9;&#9;&#9;l23.719-495.625c-3.393-0.278-6.795,0.114-9.984,1.563C2602.452,894.657,2598.175,900.406,2594.581,906.165z"/>
			</g>
			<g>
				<path fill="#255C30" d="M2684.63,1213.159c-2.761,1.088-5.05,2.471-6.518,4.371c6.017-32.044,17.328-103.182,26.567-130.74&#10;&#9;&#9;&#9;&#9;&#9;c5.938-17.714,1.506-23.223-16.99-21.284c-4.642,0.485-8.174,2.071-9.403,5.601c0,0-2.341-149.535-49.899-178.29&#10;&#9;&#9;&#9;&#9;&#9;c-3-1.813-6.383-2.469-9.789-2.52l-23.718,495.625c29.041-3.858,51.88-21.017,76.847-56.582&#10;&#9;&#9;&#9;&#9;&#9;c16.822-23.961,21.426-58.739,25.121-84.669C2699.856,1223.565,2704.376,1205.37,2684.63,1213.159z"/>
			</g>
		</g><g transform="matrix(1, 0, 0, 1, 0, 0)">
				<path fill="#205429" d="M2606.923,986.654c2.351-4.974,5.816-9.626,10.341-11.987c2.341-1.223,4.834-1.566,7.316-1.352&#10;&#9;&#9;&#9;&#9;&#9;l-18.594,388.503c-0.638,13.341-16.439,19.722-26.23,10.689c-9.485-8.749-18.051-21.426-26.671-38.861&#10;&#9;&#9;&#9;&#9;&#9;c-8.61-17.416-14.269-68.255-9.411-95.891c1.211-6.888,6.766-11.633,13.592-12.986c5.709-1.132,9.981-20.592,5.848-41.051&#10;&#9;&#9;&#9;&#9;&#9;c-7.348-36.371,11.03-30.162,12.994-64.114c1.965-33.952-15.705-72.96,10.197-68.433&#10;&#9;&#9;&#9;&#9;&#9;C2586.305,1051.172,2594.223,1013.532,2606.923,986.654z"/>
			</g><path fill="#205429" d="M2631.732,975.367c-2.301-1.312-4.661-2.025-7.152-2.051l-19.77,413.087&#10;&#9;&#9;&#9;&#9;&#9;c21.277-3.357,38.078-17.767,56.525-47.522c12.43-20.049,15.969-49.05,18.799-70.673c0,0,1.964-25.559-11.226-26.196&#10;&#9;&#9;&#9;&#9;&#9;c-13.188-0.638,30.479-115.521,2.646-121.273c-13.11-2.709-1.18-33.881-5.127-47.007c-3.369-11.205-23.702-5.609-22.981-17.292&#10;&#9;&#9;&#9;&#9;&#9;C2645.087,1029.818,2643.271,981.943,2631.732,975.367z" transform="matrix(1, 0, 0, 1, 0, 0)"/><path d="M 2609.375 1516.2320556640625 L 2572.77197265625 1514.4620361328125 L 2606.198974609375 1199.427978515625 Z" fill="#2E380B" transform="matrix(1, 0, 0, 1, 0, 0)"/><path d="M 2605.47802734375 1320.928955078125 L 2565.031005859375 1251.345947265625 L 2599.68505859375 1330.0760498046875 Z" fill="#2E380B" transform="matrix(1, 0, 0, 1, 0, 0)"/><path d="M 2592.136962890625 1344.0059814453125 L 2657.5390625 1272.43505859375 L 2599.205078125 1354.7769775390625 Z" fill="#2E380B" transform="matrix(1, 0, 0, 1, 0, 0)"/><path opacity="0.2" clip-path="url(#SVGID_2_)" d="M2687.689,1065.506c-4.642,0.485-8.174,2.071-9.404,5.602&#10;&#9;&#9;c0,0-2.34-149.535-49.898-178.291c-3-1.813-6.383-2.469-9.789-2.52l-4.129,86.268c0,0,0.001,0,0,0l4.129-86.268&#10;&#9;&#9;c-3.393-0.279-6.795,0.115-9.984,1.563c-6.161,2.797-10.438,8.545-14.032,14.304c-17.427,27.916-25.16,61.822-21.563,94.582&#10;&#9;&#9;c-0.627-4.104-2.611-7.056-5.432-9.331c-12.526-10.108-29.325-10.453-23.304,19.11c6.158,30.233-3.609,54.887,1.192,89.038&#10;&#9;&#9;c-0.885-3.632-4.251-5.551-8.822-6.482c-18.229-3.713-23.164,1.342-18.944,19.547c6.564,28.322,7.473,65.173,10.403,97.65&#10;&#9;&#9;c-1.282-2.032-3.428-3.631-6.068-4.979c-18.915-9.658-16.152,8.889-15.172,30.188c1.201,26.167,2.463,61.229,16.919,86.701&#10;&#9;&#9;c19.333,34.069,38.425,52.994,62.882,61.285l-13.899,130.989l36.603,1.77l-1.309-130.577c14.717-3.197,27.406-11.943,40.134-27.919&#10;&#9;&#9;c7.805-7.766,15.56-17.046,23.526-28.396c16.822-23.962,21.426-58.739,25.121-84.669c3.009-21.105,7.528-39.301-12.219-31.512&#10;&#9;&#9;c-2.76,1.088-5.049,2.471-6.518,4.371c6.018-32.045,17.33-103.182,26.568-130.739&#10;&#9;&#9;C2710.618,1069.076,2706.186,1063.567,2687.689,1065.506z" transform="matrix(1, 0, 0, 1, 0, 0)"/><g transform="matrix(1, 0, 0, 1, 0, 0)">
			<g>
				<path fill="#255C30" d="M1585.35,1008.625c-15.104,28.958-20.161,63.091-14.102,95.217c-0.934-4.01-3.122-6.777-6.085-8.81&#10;&#9;&#9;&#9;&#9;&#9;c-13.162-9.031-29.805-8.076-21.59,20.701c8.401,29.428,0.624,54.566,7.982,87.976c-1.151-3.523-4.629-5.161-9.222-5.73&#10;&#9;&#9;&#9;&#9;&#9;c-18.313-2.265-22.809,3.115-17.244,20.797c8.658,27.507,12.372,63.887,17.753,95.784c-1.424-1.912-3.668-3.327-6.384-4.457&#10;&#9;&#9;&#9;&#9;&#9;c-19.446-8.093-15.297,10.038-12.699,31.029c3.188,25.789,7.114,60.372,23.359,84.452&#10;&#9;&#9;&#9;&#9;&#9;c24.111,35.741,46.449,53.185,75.185,57.551l-14.411-492.058c-3.377-0.014-6.713,0.638-9.757,2.317&#10;&#9;&#9;&#9;&#9;&#9;C1592.256,996.636,1588.466,1002.652,1585.35,1008.625z"/>
			</g>
			<g>
				<path fill="#255C30" d="M1697.876,1305.327c-2.647,1.288-4.806,2.833-6.112,4.825c3.502-32.16,9.255-103.396,16.288-131.367&#10;&#9;&#9;&#9;&#9;&#9;c4.52-17.979-0.285-23.085-18.432-19.741c-4.554,0.84-7.927,2.681-8.873,6.267c0,0-13.742-147.727-62.979-172.497&#10;&#9;&#9;&#9;&#9;&#9;c-3.105-1.563-6.503-1.95-9.875-1.737l14.413,492.058c28.43-6.058,49.708-24.792,71.686-61.896&#10;&#9;&#9;&#9;&#9;&#9;c14.809-25,16.704-59.755,18.377-85.688C1713.732,1314.443,1716.812,1296.098,1697.876,1305.327z"/>
			</g>
		</g><g transform="matrix(1, 0, 0, 1, 0, 0)">
				<path fill="#1F5228" d="M1603.708,1087.285c1.944-5.102,5.019-9.97,9.312-12.653c2.223-1.391,4.661-1.924,7.133-1.902&#10;&#9;&#9;&#9;&#9;&#9;l11.298,385.707c0.388,13.245-14.755,20.776-25.13,12.599c-10.051-7.922-19.492-19.799-29.35-36.38&#10;&#9;&#9;&#9;&#9;&#9;c-9.846-16.562-19.328-66.411-16.636-94.12c0.671-6.905,5.803-12.028,12.452-13.894c5.56-1.56,8.299-21.138,2.646-41.056&#10;&#9;&#9;&#9;&#9;&#9;c-10.046-35.408,8.605-30.685,7.954-64.419s-21.11-70.952,4.856-68.474C1588.244,1152.693,1593.199,1114.852,1603.708,1087.285z&#10;&#9;&#9;&#9;&#9;&#9;"/>
			</g><path fill="#1F5228" d="M1627.385,1074.206c-2.377-1.119-4.765-1.644-7.232-1.477l12.014,410.114&#10;&#9;&#9;&#9;&#9;&#9;c20.787-4.964,36.304-20.512,52.277-51.368c10.763-20.79,12.046-49.747,13.193-71.354c0,0-0.011-25.432-13.105-25.045&#10;&#9;&#9;&#9;&#9;&#9;c-13.094,0.388,21.322-116.614-6.649-120.156c-13.176-1.668-3.756-33.421-8.663-46.099c-4.188-10.823-23.873-3.72-24.054-15.33&#10;&#9;&#9;&#9;&#9;&#9;C1644.755,1127.034,1639.3,1079.821,1627.385,1074.206z" transform="matrix(1, 0, 0, 1, 0, 0)"/><path d="M 1640.8330078125 1544.8780517578125 L 1612.302978515625 1540.614990234375 L 1619.2509765625 1297.7979736328125 Z" fill="#39450D" transform="matrix(1, 0, 0, 1, 0, 0)"/><path d="M 1627.821044921875 1418.031982421875 L 1582.4990234375 1352.3280029296875 L 1622.7900390625 1427.5260009765625 Z" fill="#39450D" transform="matrix(1, 0, 0, 1, 0, 0)"/><path d="M 1616.3890380859375 1441.886962890625 L 1675.6090087890625 1366.0479736328125 L 1624.2030029296875 1451.9959716796875 Z" fill="#39450D" transform="matrix(1, 0, 0, 1, 0, 0)"/><path opacity="0.2" clip-path="url(#SVGID_2_)" d="M1697.876,1305.326c-2.648,1.289-4.806,2.834-6.112,4.827&#10;&#9;&#9;c3.502-32.161,9.255-103.397,16.288-131.368c4.521-17.979-0.285-23.085-18.432-19.74c-4.554,0.839-7.928,2.679-8.873,6.266&#10;&#9;&#9;c0,0-13.741-147.727-62.979-172.498c-3.106-1.562-6.503-1.949-9.875-1.736l2.509,85.647c0,0,0-0.001,0,0l-2.509-85.647&#10;&#9;&#9;c-3.377-0.014-6.713,0.639-9.757,2.316c-5.88,3.242-9.671,9.259-12.785,15.231c-15.104,28.957-20.162,63.091-14.102,95.216&#10;&#9;&#9;c-0.935-4.01-3.123-6.776-6.085-8.809c-13.163-9.031-29.806-8.076-21.591,20.701c8.401,29.428,0.624,54.566,7.982,87.976&#10;&#9;&#9;c-1.151-3.523-4.628-5.162-9.222-5.73c-18.312-2.266-22.809,3.115-17.244,20.796c8.658,27.508,12.371,63.887,17.754,95.784&#10;&#9;&#9;c-1.425-1.912-3.668-3.325-6.385-4.456c-19.445-8.093-15.297,10.038-12.699,31.028c3.188,25.79,7.114,60.372,23.36,84.452&#10;&#9;&#9;c21.724,32.204,42.057,49.449,66.88,55.763l-1.697,59.27l28.531,4.263l-5.506-63.024c14.313-4.3,26.197-13.929,37.565-30.716&#10;&#9;&#9;c7.124-8.284,14.086-18.062,21.099-29.899c14.807-25,16.703-59.755,18.377-85.688&#10;&#9;&#9;C1713.731,1314.443,1716.812,1296.097,1697.876,1305.326z" transform="matrix(1, 0, 0, 1, 0, 0)"/><path clip-path="url(#SVGID_2_)" fill="#435E3C" d="M0.001,1293.558c0,0,428.508,77.347,1425,221.161&#10;&#9;&#9;c616.968,89.041,1425,164.085,1425,164.085L2850,2005.158H0" transform="matrix(1, 0, 0, 1, 0, 0)"/><path clip-path="url(#SVGID_2_)" fill="#3E5737" d="M881.023,1544.316c-181.982,116.651-381.176,272.027-519.453,460.842h1747.834&#10;&#9;&#9;c-70.257-153.062-153.232-299.687-256.502-433.918c-144.766-17.707-291.034-36.769-427.902-56.521&#10;&#9;&#9;c-143.987-20.78-276.042-40.164-396.733-58.137C978.272,1484.229,929.148,1513.469,881.023,1544.316z" transform="matrix(1, 0, 0, 1, 0, 0)"/><path clip-path="url(#SVGID_2_)" fill="#3E5737" d="M437.842,1366.029C137.68,1318.397,0,1293.558,0,1293.558v711.601h0.137&#10;&#9;&#9;C79.578,1757.367,240.267,1538.315,437.842,1366.029z" transform="matrix(1, 0, 0, 1, 0, 0)"/><path clip-path="url(#SVGID_2_)" fill="#3E5737" d="M2632.208,2005.158H2850v-326.354c0,0-271.735-25.241-620.336-63.806&#10;&#9;&#9;C2382.598,1719.651,2513.145,1858.439,2632.208,2005.158z" transform="matrix(1, 0, 0, 1, 0, 0)"/><path opacity="0.31" clip-path="url(#SVGID_2_)" fill="#76BA5D" d="M705.604,2005.158l457.881-212.805&#10;&#9;&#9;c0.221-0.102,0.441-0.205,0.661-0.31c34.563-16.29,50.483-56.993,38.254-93.341l-81.054-228.312l259.81,37.991l133.096,274.604&#10;&#9;&#9;c13.429,27.706,6.572,61.029-16.689,81.108l0,0l-164.211,141.064" transform="matrix(1, 0, 0, 1, 0, 0)"/><path opacity="0.2" d="M1381.226,1546.747l133.097,274.604c1.608,3.319,2.889,6.726,3.922,10.175&#10;&#9;&#9;&#9;c4.549-15.748,3.611-32.999-3.922-48.54l-133.097-274.604" transform="matrix(1, 0, 0, 1, 0, 0)"/><path opacity="0.2" d="M1164.216,1830.41c32.76-15.44,48.727-52.81,39.894-87.617c-5.307,21.036-19.236,39.514-39.894,49.251&#10;&#9;&#9;&#9;c-0.22,0.104-0.441,0.207-0.662,0.311l-457.881,212.804h82.55l375.331-174.438&#10;&#9;&#9;&#9;C1163.775,1830.616,1163.996,1830.514,1164.216,1830.41z" transform="matrix(1, 0, 0, 1, 0, 0)"/><g transform="matrix(1, 0, 0, 1, 0, 0)">
			<g>
				<path fill="#244A30" d="M531.815,1085.41c33.831,60.462,46.675,132.529,35.821,201.036c1.73-8.562,6.198-14.566,12.355-19.062&#10;&#9;&#9;&#9;&#9;&#9;c27.353-19.979,62.705-18.996,47.072,42.545c-15.988,62.936,2.066,115.758-11.465,187.068c2.224-7.544,9.496-11.237,19.2-12.73&#10;&#9;&#9;&#9;&#9;&#9;c38.695-5.953,48.563,5.176,37.862,43.02c-16.651,58.877-22.269,136.259-31.699,204.239c2.901-4.144,7.572-7.283,13.262-9.852&#10;&#9;&#9;&#9;&#9;&#9;c40.736-18.382,33.062,20.329,28.859,65.007c-5.16,54.89-11.337,128.473-44.294,180.56&#10;&#9;&#9;&#9;&#9;&#9;c-48.911,77.308-95.2,115.702-155.866,126.765V1049.612c7.16-0.241,14.274,0.931,20.833,4.301&#10;&#9;&#9;&#9;&#9;&#9;C516.427,1060.419,524.839,1072.94,531.815,1085.41z"/>
			</g>
			<g>
				<path fill="#244A30" d="M311.615,1721.674c5.694,2.568,10.367,5.708,13.262,9.852c-9.424-67.98-26.05-218.688-42.7-277.564&#10;&#9;&#9;&#9;&#9;&#9;c-10.702-37.844-0.83-48.974,37.861-43.021c9.71,1.494,16.977,5.188,19.205,12.731c0,0,19.966-314.141,122.845-369.759&#10;&#9;&#9;&#9;&#9;&#9;c6.488-3.508,13.668-4.542,20.834-4.301l-0.003,1044.393c-60.667-11.062-106.955-49.457-155.866-126.765&#10;&#9;&#9;&#9;&#9;&#9;c-32.956-52.087-39.133-125.67-44.293-180.56C278.556,1742.003,270.884,1703.292,311.615,1721.674z"/>
			</g>
		</g><g transform="matrix(1, 0, 0, 1, 0, 0)">
				<path fill="#21432B" d="M497.771,1253.375c-4.441-10.697-11.26-20.83-20.533-26.252c-4.8-2.81-10.006-3.785-15.245-3.585&#10;&#9;&#9;&#9;&#9;&#9;v818.663c0,28.113,32.58,43.134,54.072,25.142c20.822-17.431,40.105-43.21,59.981-78.991&#10;&#9;&#9;&#9;&#9;&#9;c19.853-35.741,36.864-142.047,29.433-200.642c-1.852-14.603-13.053-25.144-27.268-28.683&#10;&#9;&#9;&#9;&#9;&#9;c-11.889-2.96-18.913-44.305-8.166-86.897c19.108-75.721-20.153-64.533-20.868-136.113&#10;&#9;&#9;&#9;&#9;&#9;c-0.714-71.579,40.36-151.79-14.553-144.905C534.626,1391.111,521.768,1311.173,497.771,1253.375z"/>
			</g><path fill="#21432B" d="M446.748,1227.123c4.971-2.523,10.002-3.785,15.246-3.585l-0.002,870.467&#10;&#9;&#9;&#9;&#9;&#9;c-44.392-9.221-78.263-41.221-114.054-105.653c-24.115-43.413-28.635-104.743-32.411-150.491c0,0-1.556-53.934,26.236-53.934&#10;&#9;&#9;&#9;&#9;&#9;s-52.458-245.962,6.638-255.228c27.838-4.365,5.889-71.111,15.508-98.306c8.211-23.214,50.396-9.384,50.057-34.02&#10;&#9;&#9;&#9;&#9;&#9;C413.194,1340.243,421.83,1239.777,446.748,1227.123z" transform="matrix(1, 0, 0, 1, 0, 0)"/><path d="M 439.3330078125 2366.489990234375 L 516.4639892578125 2366.489990234375 L 477.8840026855469 1700.7750244140625 Z" fill="#2E380B" transform="matrix(1, 0, 0, 1, 0, 0)"/><path d="M 467.1780090332031 1956.2889404296875 L 559.2100219726562 1814.1090087890625 L 478.43798828125 1976.1080322265625 Z" fill="#2E380B" transform="matrix(1, 0, 0, 1, 0, 0)"/><path d="M 492.90399169921875 2006.1610107421875 L 362.6059875488281 1849.0469970703125 L 476.96099853515625 2028.0899658203125 Z" fill="#2E380B" transform="matrix(1, 0, 0, 1, 0, 0)"/><g transform="matrix(1, 0, 0, 1, 0, 0)">
			<g>
				<path fill="#244A30" d="M209.544,1015.327c40.181,71.81,55.436,157.404,42.544,238.771c2.055-10.17,7.361-17.302,14.675-22.641&#10;&#9;&#9;&#9;&#9;&#9;c32.486-23.729,74.475-22.562,55.907,50.529c-18.991,74.749,2.454,137.485-13.617,222.181&#10;&#9;&#9;&#9;&#9;&#9;c2.641-8.96,11.278-13.346,22.803-15.12c45.959-7.071,57.678,6.148,44.968,51.096c-19.776,69.927-26.449,161.833-37.648,242.573&#10;&#9;&#9;&#9;&#9;&#9;c3.445-4.921,8.994-8.65,15.751-11.7c48.382-21.832,39.268,24.145,34.275,77.208c-6.129,65.191-13.466,152.587-52.607,214.45&#10;&#9;&#9;&#9;&#9;&#9;c-58.092,91.817-113.069,137.418-185.123,150.558V972.809c8.503-0.286,16.953,1.106,24.744,5.109&#10;&#9;&#9;&#9;&#9;&#9;C191.268,985.646,201.258,1000.517,209.544,1015.327z"/>
			</g>
			<g>
				<path fill="#244A30" d="M-51.986,1771.016c6.763,3.05,12.311,6.779,15.751,11.7c-11.194-80.74-30.94-259.735-50.716-329.662&#10;&#9;&#9;&#9;&#9;&#9;c-12.71-44.947-0.985-58.166,44.967-51.095c11.532,1.773,20.163,6.159,22.81,15.12c0,0,23.714-373.104,145.903-439.161&#10;&#9;&#9;&#9;&#9;&#9;c7.707-4.167,16.235-5.395,24.745-5.109l-0.003,1240.422c-72.054-13.14-127.031-58.74-185.122-150.558&#10;&#9;&#9;&#9;&#9;&#9;c-39.142-61.863-46.479-149.259-52.607-214.45C-91.252,1795.16-100.363,1749.184-51.986,1771.016z"/>
			</g>
		</g><g transform="matrix(1, 0, 0, 1, 0, 0)">
				<path fill="#21432B" d="M169.109,1214.818c-5.274-12.705-13.374-24.739-24.386-31.18c-5.701-3.336-11.884-4.496-18.107-4.258&#10;&#9;&#9;&#9;&#9;&#9;v972.324c0,33.391,38.696,51.229,64.222,29.86c24.73-20.703,47.634-51.321,71.24-93.819&#10;&#9;&#9;&#9;&#9;&#9;c23.579-42.447,43.783-168.707,34.956-238.301c-2.199-17.342-15.501-29.862-32.385-34.065&#10;&#9;&#9;&#9;&#9;&#9;c-14.121-3.515-22.462-52.621-9.697-103.208c22.693-89.933-23.937-76.646-24.785-161.66&#10;&#9;&#9;&#9;&#9;&#9;c-0.849-85.016,47.936-180.281-17.285-172.104C212.882,1378.407,197.61,1283.464,169.109,1214.818z"/>
			</g><path fill="#21432B" d="M108.511,1183.639c5.903-2.998,11.879-4.496,18.105-4.258l-0.001,1033.851&#10;&#9;&#9;&#9;&#9;&#9;c-52.725-10.951-92.954-48.958-135.462-125.485c-28.641-51.56-34.01-124.401-38.495-178.736c0,0-1.848-64.057,31.16-64.057&#10;&#9;&#9;&#9;&#9;&#9;c33.009,0-62.304-292.129,7.885-303.134c33.062-5.184,6.994-84.457,18.419-116.757c9.752-27.571,59.854-11.146,59.452-40.404&#10;&#9;&#9;&#9;&#9;&#9;C68.658,1317.991,78.914,1198.669,108.511,1183.639z" transform="matrix(1, 0, 0, 1, 0, 0)"/><path d="M 99.7040023803711 2536.862060546875 L 191.31199645996094 2536.862060546875 L 145.49000549316406 1746.1939697265625 Z" fill="#2E380B" transform="matrix(1, 0, 0, 1, 0, 0)"/><path d="M 132.77499389648438 2049.66796875 L 242.08200073242188 1880.801025390625 L 146.14700317382812 2073.20703125 Z" fill="#2E380B" transform="matrix(1, 0, 0, 1, 0, 0)"/><path d="M 163.3300018310547 2108.89990234375 L 8.574000358581543 1922.2950439453125 L 144.39300537109375 2134.943115234375 Z" fill="#2E380B" transform="matrix(1, 0, 0, 1, 0, 0)"/><path opacity="0.2" clip-path="url(#SVGID_2_)" d="M354.928,1771.016c-6.757,3.049-12.307,6.779-15.75,11.7&#10;&#9;&#9;c11.2-80.74,17.872-172.646,37.647-242.572c12.712-44.948,0.993-58.167-44.966-51.097c-11.526,1.773-20.164,6.159-22.804,15.119&#10;&#9;&#9;c16.071-84.694-5.374-147.432,13.617-222.18c18.567-73.092-23.42-74.259-55.907-50.529c-7.312,5.338-12.62,12.471-14.674,22.64&#10;&#9;&#9;c12.891-81.365-2.364-166.96-42.545-238.769c-8.286-14.812-18.276-29.683-33.326-37.41c-7.791-4.003-16.241-5.394-24.744-5.109&#10;&#9;&#9;v215.82l0,0v-215.82c-8.51-0.285-17.038,0.941-24.744,5.109c-122.19,66.057-145.904,439.16-145.904,439.16&#10;&#9;&#9;c-2.647-8.96-11.278-13.346-22.81-15.119c-45.953-7.071-57.678,6.146-44.967,51.095c19.777,69.927,39.522,248.922,50.716,329.662&#10;&#9;&#9;c-3.439-4.921-8.987-8.651-15.751-11.7c-48.377-21.832-39.265,24.145-34.273,77.208c6.129,65.19,13.467,152.587,52.607,214.449&#10;&#9;&#9;c18.917,29.9,37.513,54.818,56.467,75.392c29.541,40.512,59.791,63.581,95.744,73.205l-18.853,325.594h91.606l-19.042-328.575&#10;&#9;&#9;c62.088-17.737,111.965-62.852,164.327-145.615c39.142-61.862,46.479-149.259,52.607-214.449&#10;&#9;&#9;C394.196,1795.16,403.309,1749.184,354.928,1771.016z" transform="matrix(1, 0, 0, 1, 0, 0)"/><path opacity="0.2" clip-path="url(#SVGID_2_)" d="M649.696,2088.237c9.219-34.109,30.187-64.893,58.495-85.868&#10;&#9;&#9;c-3.674,2.488-7.432,3.063-11.267,2.482c-17.038-2.573-29.525-15.63-1.961-32.361c28.189-17.105,40.42-42.774,70.697-63.803&#10;&#9;&#9;c-3.494,1.939-7.446,0.666-11.501-2.277c-16.167-11.741-15.793-19.327,1.554-29.225c26.987-15.396,56.547-41.476,84.151-62.772&#10;&#9;&#9;c-2.528,0.463-5.339-0.075-8.32-1.186c-21.33-7.962-4.776-19.261,12.641-33.974c21.397-18.075,49.811-42.575,80.301-49.646&#10;&#9;&#9;c40.543-9.405,69.178-8.129,93.377,5.001l24.318-28.037l28.007,27.712l-30.312,24.959c4.572,11.993,5.56,25.861,2.962,43.079&#10;&#9;&#9;c-0.415,11.829-2.053,24.724-5.159,39.289c-6.559,30.755-30.487,59.691-48.136,81.478c-14.364,17.731-25.345,34.545-33.597,13.236&#10;&#9;&#9;c-1.153-2.979-1.734-5.798-1.312-8.344c-20.756,28.071-68.32,88.767-83.215,116.127c-9.574,17.588-17.116,18.081-29.048,2.019&#10;&#9;&#9;c-2.994-4.03-4.321-7.982-2.444-11.522c0,0-118.979,106.893-176.117,90.123c-2.802-0.823-6.38-3.556-9.031-5.987l-0.064,0.063&#10;&#9;&#9;c-0.264-0.245-0.45-0.557-0.704-0.812c-0.432-0.416-0.914-0.857-1.263-1.226l0.106-0.101c-1.765-2.036-3.297-4.261-4.173-6.909&#10;&#9;&#9;C646.394,2102.841,647.792,2095.271,649.696,2088.237z" transform="matrix(1, 0, 0, 1, 0, 0)"/><path clip-path="url(#SVGID_2_)" fill="#FFFFFF" d="M200.185,501.953c-22.48,0-40.133-21.377-33.871-43.078&#10;&#9;&#9;c3.416-11.837,17.384-48.358,36.419-34.938c40.312,28.419,13.204-104.448,84.401-63.943c37.464,21.314,23.127-107.11,123.219-53.04&#10;&#9;&#9;c69.251,37.41,31.002,167.255,69.251,90.799c19.956-39.89,95.145-21.278,104.062,7.904c5.151,16.858,39.145,8.628,63.829,43.967&#10;&#9;&#9;c34.861,49.911-50.993,52.329-50.993,52.329H200.185z" transform="matrix(1, 0, 0, 1, 0, 0)"/><path clip-path="url(#SVGID_2_)" fill="#FFFFFF" d="M1113.51,356.543c-22.481,0-40.134-21.378-33.872-43.079&#10;&#9;&#9;c3.416-11.837,17.384-48.358,36.42-34.938c40.312,28.419,13.204-104.448,84.401-63.943c37.463,21.314,23.127-107.11,123.22-53.04&#10;&#9;&#9;c69.25,37.409,31.002,167.255,69.25,90.799c19.956-39.89,95.144-21.278,104.061,7.903c5.152,16.859,39.146,8.629,63.829,43.968&#10;&#9;&#9;c34.861,49.91-50.992,52.329-50.992,52.329H1113.51z" transform="matrix(1, 0, 0, 1, 0, 0)"/><path clip-path="url(#SVGID_2_)" fill="#FFFFFF" d="M2589.418,682.896c22.48,0,40.134-21.378,33.871-43.079&#10;&#9;&#9;c-3.416-11.837-17.384-48.357-36.42-34.938c-40.312,28.419-13.203-104.448-84.4-63.943c-37.465,21.314-23.127-107.11-123.22-53.04&#10;&#9;&#9;c-69.25,37.409-31.002,167.254-69.25,90.798c-19.956-39.89-95.146-21.277-104.062,7.903c-5.152,16.86-39.146,8.629-63.829,43.968&#10;&#9;&#9;c-34.861,49.91,50.991,52.329,50.991,52.329H2589.418z" transform="matrix(1, 0, 0, 1, 0, 0)"/><path clip-path="url(#SVGID_2_)" fill="#FFFFFF" d="M773.472,659.756c-14.584,0-26.037-13.87-21.974-27.948&#10;&#9;&#9;c2.216-7.679,11.278-31.372,23.628-22.667c26.152,18.438,8.565-67.761,54.755-41.482c24.305,13.827,15.004-69.489,79.94-34.411&#10;&#9;&#9;c44.926,24.27,20.113,108.507,44.926,58.907c12.947-25.879,61.727-13.804,67.511,5.127c3.342,10.938,25.396,5.598,41.409,28.524&#10;&#9;&#9;c22.617,32.38-33.081,33.95-33.081,33.95H773.472z" transform="matrix(1, 0, 0, 1, 0, 0)"/><path clip-path="url(#SVGID_2_)" fill="#FFFFFF" d="M2227.15,345.621c14.585,0,26.037-13.87,21.975-27.947&#10;&#9;&#9;c-2.217-7.68-11.278-31.373-23.628-22.667c-26.153,18.437-8.565-67.762-54.755-41.483c-24.307,13.828-15.005-69.489-79.94-34.411&#10;&#9;&#9;c-44.927,24.271-20.112,108.508-44.927,58.907c-12.947-25.879-61.726-13.804-67.511,5.128c-3.342,10.937-25.396,5.597-41.41,28.523&#10;&#9;&#9;c-22.616,32.38,33.082,33.949,33.082,33.949H2227.15z" transform="matrix(1, 0, 0, 1, 0, 0)"/><defs>
		
			<filter id="Adobe_OpacityMaskFilter_10_" filterUnits="userSpaceOnUse" x="1209.605" y="385.472" width="546.565" height="316.274">
			<feFlood style="flood-color:white;flood-opacity:1" result="back"/>
			<feBlend in="SourceGraphic" in2="back" mode="normal"/>
		</filter>
	</defs><mask maskUnits="userSpaceOnUse" x="1209.605" y="385.472" width="546.565" height="316.274" id="SVGID_20_">
		<g filter="url(#Adobe_OpacityMaskFilter_10_)">
			<defs>
				
					<filter id="Adobe_OpacityMaskFilter_11_" filterUnits="userSpaceOnUse" x="1209.605" y="385.472" width="546.565" height="316.274">
					<feFlood style="flood-color:white;flood-opacity:1" result="back"/>
					<feBlend in="SourceGraphic" in2="back" mode="normal"/>
				</filter>
			</defs>
			<mask maskUnits="userSpaceOnUse" x="1209.605" y="385.472" width="546.565" height="316.274" id="SVGID_20_">
				<g filter="url(#Adobe_OpacityMaskFilter_11_)">
				</g>
			</mask>
			<linearGradient id="SVGID_21_" gradientUnits="userSpaceOnUse" x1="1243.4512" y1="648.7422" x2="1737.1403" y2="420.9948">
				<stop offset="0" style="stop-color:#0D0D0D"/>
				<stop offset="0.9675" style="stop-color:#FFFFFF"/>
			</linearGradient>
			<path clip-path="url(#SVGID_2_)" mask="url(#SVGID_20_)" fill="url(#SVGID_21_)" d="M1636.627,385.472l-427.021,192.652&#10;&#9;&#9;&#9;&#9;l80.583,123.623c0,0,476.292-195.755,465.811-211.694c-4.223-6.423-18.359-61.018-18.359-61.018"/>
		</g>
	</mask><linearGradient id="SVGID_22_" gradientUnits="userSpaceOnUse" x1="1243.4512" y1="648.7422" x2="1737.1403" y2="420.9948">
		<stop offset="0" style="stop-color:#FFFFFF"/>
		<stop offset="0.9675" style="stop-color:#FFFFFF"/>
	</linearGradient><path opacity="0.2" clip-path="url(#SVGID_2_)" fill="url(#SVGID_22_)" d="M1636.627,385.472l-427.021,192.652l80.583,123.623&#10;&#9;&#9;c0,0,476.292-195.755,465.811-211.694c-4.223-6.423-18.359-61.018-18.359-61.018" transform="matrix(1, 0, 0, 1, 0, 0)"/><defs>
		
			<filter id="Adobe_OpacityMaskFilter_12_" filterUnits="userSpaceOnUse" x="1209.605" y="385.472" width="546.565" height="316.274">
			<feFlood style="flood-color:white;flood-opacity:1" result="back"/>
			<feBlend in="SourceGraphic" in2="back" mode="normal"/>
		</filter>
	</defs><mask maskUnits="userSpaceOnUse" x="1209.605" y="385.472" width="546.565" height="316.274" id="SVGID_23_">
		<g filter="url(#Adobe_OpacityMaskFilter_12_)">
			<defs>
				
					<filter id="Adobe_OpacityMaskFilter_13_" filterUnits="userSpaceOnUse" x="1209.605" y="385.472" width="546.565" height="316.274">
					<feFlood style="flood-color:white;flood-opacity:1" result="back"/>
					<feBlend in="SourceGraphic" in2="back" mode="normal"/>
				</filter>
			</defs>
			<mask maskUnits="userSpaceOnUse" x="1209.605" y="385.472" width="546.565" height="316.274" id="SVGID_23_">
				<g filter="url(#Adobe_OpacityMaskFilter_13_)">
				</g>
			</mask>
			<linearGradient id="SVGID_24_" gradientUnits="userSpaceOnUse" x1="1243.4512" y1="648.7422" x2="1737.1403" y2="420.9948">
				<stop offset="0" style="stop-color:#0D0D0D"/>
				<stop offset="0.9675" style="stop-color:#FFFFFF"/>
			</linearGradient>
			<path clip-path="url(#SVGID_2_)" mask="url(#SVGID_23_)" fill="url(#SVGID_24_)" d="M1636.627,385.472l-427.021,192.652&#10;&#9;&#9;&#9;&#9;l80.583,123.623c0,0,476.292-195.755,465.811-211.694c-4.223-6.423-18.359-61.018-18.359-61.018"/>
		</g>
	</mask><linearGradient id="SVGID_25_" gradientUnits="userSpaceOnUse" x1="1243.4512" y1="648.7422" x2="1737.1403" y2="420.9948">
		<stop offset="0" style="stop-color:#FFFFFF"/>
		<stop offset="0.9675" style="stop-color:#FFFFFF"/>
	</linearGradient><path opacity="0.2" clip-path="url(#SVGID_2_)" fill="url(#SVGID_25_)" d="M1636.627,385.472l-427.021,192.652l80.583,123.623&#10;&#9;&#9;c0,0,476.292-195.755,465.811-211.694c-4.223-6.423-18.359-61.018-18.359-61.018" transform="matrix(1, 0, 0, 1, 0, 0)"/><defs>
		
			<filter id="Adobe_OpacityMaskFilter_14_" filterUnits="userSpaceOnUse" x="1102.16" y="385.472" width="653.963" height="419.989">
			<feFlood style="flood-color:white;flood-opacity:1" result="back"/>
			<feBlend in="SourceGraphic" in2="back" mode="normal"/>
		</filter>
	</defs><mask maskUnits="userSpaceOnUse" x="1102.16" y="385.472" width="653.963" height="419.989" id="SVGID_26_">
		<g filter="url(#Adobe_OpacityMaskFilter_14_)">
			<defs>
				
					<filter id="Adobe_OpacityMaskFilter_15_" filterUnits="userSpaceOnUse" x="1102.16" y="385.472" width="653.963" height="419.989">
					<feFlood style="flood-color:white;flood-opacity:1" result="back"/>
					<feBlend in="SourceGraphic" in2="back" mode="normal"/>
				</filter>
			</defs>
			<mask maskUnits="userSpaceOnUse" x="1102.16" y="385.472" width="653.963" height="419.989" id="SVGID_26_">
				<g filter="url(#Adobe_OpacityMaskFilter_15_)">
				</g>
			</mask>
			<linearGradient id="SVGID_27_" gradientUnits="userSpaceOnUse" x1="1069.9849" y1="731.9858" x2="1739.3066" y2="423.216">
				<stop offset="0" style="stop-color:#0D0D0D"/>
				<stop offset="0.9675" style="stop-color:#FFFFFF"/>
			</linearGradient>
			<path clip-path="url(#SVGID_2_)" mask="url(#SVGID_26_)" fill="url(#SVGID_27_)" d="M1636.627,385.472l-427.021,192.652&#10;&#9;&#9;&#9;&#9;L1102.16,805.461c0,0,664.32-299.47,653.84-315.409c-4.223-6.423-18.359-61.018-18.359-61.018"/>
		</g>
	</mask><linearGradient id="SVGID_28_" gradientUnits="userSpaceOnUse" x1="1069.9849" y1="731.9858" x2="1739.3066" y2="423.216">
		<stop offset="0" style="stop-color:#FFFFFF"/>
		<stop offset="0.9675" style="stop-color:#FFFFFF"/>
	</linearGradient><path opacity="0.2" clip-path="url(#SVGID_2_)" fill="url(#SVGID_28_)" d="M1636.627,385.472l-427.021,192.652L1102.16,805.461&#10;&#9;&#9;c0,0,664.32-299.47,653.84-315.409c-4.223-6.423-18.359-61.018-18.359-61.018" transform="matrix(1, 0, 0, 1, 0, 0)"/><path fill="#798C64" d="M1614.896,464.595c6.858-9.079,67.024-46.148,67.024-46.148l81.421-25.241l18.336-6.252&#10;&#9;&#9;&#9;c8.302-2.831,24.084,1.882,24.973,10.648c0.419,4.134-4.509,9.063-8.524,12.429l-32.638,19.286l-83.762,32.185l-59.307,10.437&#10;&#9;&#9;&#9;L1614.896,464.595z" transform="matrix(1, 0, 0, 1, 0, 0)"/><path fill="#798C64" d="M1630.074,462.25c-0.751-2.266-19.904-27.41-19.904-27.41l4.632-8.34l52.842,17.875l26.17-20.438&#10;&#9;&#9;&#9;l-60.602-27.391l3.415-11.074l47.547,1.223l61.978,25.71l19.336,16.912l2.986,42.835v11.464L1756,490.053l-36.032-52.291" transform="matrix(1, 0, 0, 1, 0, 0)"/><path d="M 1913.2230224609375 1142.2569580078125 L 1834.739013671875 1152.8409423828125 L 1870.6009521484375 1192.2230224609375 L 1969.491943359375 1250.31298828125 L 2220.916015625 1251.345947265625 L 2205.200927734375 1191.9520263671875 L 2143.64501953125 1143.31396484375 Z" fill="#2E380B" transform="matrix(1, 0, 0, 1, 0, 0)"/><path d="M 1924.089966 1175.654053 L 1923.156006 1075.499023 L 1870.025024 975.835999 L 1834.125977 1072.760986 L 1834.883057 1153.855957" fill="#EBA849" transform="matrix(1, 0, 0, 1, 0, 0)"/><path d="M 1923.156006 1075.499023 L 2154.479004 1073.31897 L 2155.413086 1173.474976 L 1924.089966 1175.654053" fill="#CF9440" transform="matrix(1, 0, 0, 1, 0, 0)"/><path d="M 1923.284058 1089.21106 L 2154.606934 1087.031006 L 2154.479004 1073.31897 L 1923.156006 1075.499023" fill="#B38038" transform="matrix(1, 0, 0, 1, 0, 0)"/><path d="M 1872.135986328125 979.7960205078125 L 1923.156005859375 1075.4990234375 L 2154.47900390625 1073.3189697265625 L 2099.950927734375 951.0139770507812 L 1874.5589599609375 953.1380004882812 L 1834.1259765625 1072.760986328125 L 1834.1259765625 1072.760986328125 Z" fill="#A84E34" transform="matrix(1, 0, 0, 1, 0, 0)"/><path d="M 1923.156006 1075.499023 L 2154.479004 1073.31897 L 2099.950928 951.013977" fill="#A14B31" transform="matrix(1, 0, 0, 1, 0, 0)"/><path d="M 1834.125977 1072.760986 L 1834.125977 1072.760986" fill="#96462E" transform="matrix(1, 0, 0, 1, 0, 0)"/><path d="M 1874.5589599609375 953.1380004882812 L 1923.156005859375 1075.4990234375 L 1874.251953125 985.0089721679688 L 1840.3060302734375 1059.248046875 Z" fill="#C95D3E" transform="matrix(1, 0, 0, 1, 0, 0)"/><path d="M 2001.5389404296875 1147.89599609375 L 1961.9959716796875 1148.26904296875 L 1961.491943359375 1094.2249755859375 L 2001.0340576171875 1093.85205078125 Z" fill="#99472F" transform="matrix(1, 0, 0, 1, 0, 0)"/><path d="M 2059.27099609375 1147.35302734375 L 2019.72900390625 1147.7249755859375 L 2019.2249755859375 1093.6800537109375 L 2058.76611328125 1093.3070068359375 Z" fill="#99472F" transform="matrix(1, 0, 0, 1, 0, 0)"/><path d="M 2117.0029296875 1146.8079833984375 L 2077.4609375 1147.1800537109375 L 2076.9560546875 1093.135986328125 L 2116.4990234375 1092.762939453125 Z" fill="#99472F" transform="matrix(1, 0, 0, 1, 0, 0)"/><path d="M 1961.531982421875 1098.4859619140625 L 1996.8330078125 1098.154052734375 L 1997.2979736328125 1147.93701171875 L 2001.5389404296875 1147.89599609375 L 2001.0340576171875 1093.8509521484375 L 1961.491943359375 1094.2239990234375 Z" fill="#803C27" transform="matrix(1, 0, 0, 1, 0, 0)"/><path d="M 2019.2650146484375 1097.9420166015625 L 2054.56494140625 1097.6099853515625 L 2055.030029296875 1147.3929443359375 L 2059.27099609375 1147.35302734375 L 2058.76806640625 1093.3070068359375 L 2019.2249755859375 1093.6800537109375 Z" fill="#803C27" transform="matrix(1, 0, 0, 1, 0, 0)"/><path d="M 2116.4990234375 1092.762939453125 L 2076.9560546875 1093.135986328125 L 2076.99609375 1097.39794921875 L 2112.298095703125 1097.0660400390625 L 2112.761962890625 1146.8489990234375 L 2117.0029296875 1146.8089599609375 Z" fill="#803C27" transform="matrix(1, 0, 0, 1, 0, 0)"/><path d="M 1855.75 1159.186035 L 1855.109985 1077.996948 L 1885.375 1082.712036 L 1886.156006 1166.473999" clip-path="url(#SVGID_2_)" fill="#99472F" transform="matrix(1, 0, 0, 1, 0, 0)"/><path d="M 1885.4139404296875 1087.0050048828125 L 1885.375 1082.7110595703125 L 1855.1099853515625 1077.9969482421875 L 1855.75 1159.18603515625 L 1860.031005859375 1160.197021484375 L 1859.427001953125 1082.9560546875 Z" fill="#803C27" transform="matrix(1, 0, 0, 1, 0, 0)"/><g transform="matrix(1, 0, 0, 1, 0, 0)">
			<g>
				<path fill="#255C30" d="M1804.886,879.394c-8.577,15.331-11.834,33.604-9.082,50.975c-0.438-2.171-1.571-3.694-3.132-4.834&#10;&#9;&#9;&#9;&#9;&#9;c-6.937-5.065-15.9-4.816-11.937,10.788c4.054,15.958-0.524,29.351,2.907,47.433c-0.564-1.913-2.407-2.85-4.868-3.228&#10;&#9;&#9;&#9;&#9;&#9;c-9.812-1.51-12.313,1.312-9.601,10.909c4.222,14.928,5.646,34.548,8.038,51.786c-0.736-1.05-1.92-1.847-3.363-2.498&#10;&#9;&#9;&#9;&#9;&#9;c-10.328-4.661-8.383,5.155-7.317,16.483c1.309,13.918,2.875,32.575,11.231,45.783c12.402,19.601,24.139,29.336,39.521,32.142&#10;&#9;&#9;&#9;&#9;&#9;V870.317c-1.816-0.062-3.619,0.236-5.283,1.09C1808.788,873.058,1806.655,876.232,1804.886,879.394z"/>
			</g>
			<g>
				<path fill="#255C30" d="M1860.721,1040.724c-1.445,0.651-2.629,1.448-3.363,2.498c2.39-17.237,6.605-55.45,10.828-70.378&#10;&#9;&#9;&#9;&#9;&#9;c2.713-9.596,0.21-12.417-9.602-10.908c-2.461,0.378-4.304,1.314-4.869,3.228c0,0-5.062-79.653-31.148-93.755&#10;&#9;&#9;&#9;&#9;&#9;c-1.645-0.89-3.465-1.152-5.282-1.09l0.001,264.814c15.382-2.806,27.119-12.541,39.521-32.142&#10;&#9;&#9;&#9;&#9;&#9;c8.356-13.208,9.923-31.865,11.231-45.783C1869.103,1045.879,1871.048,1036.062,1860.721,1040.724z"/>
			</g>
		</g><g transform="matrix(1, 0, 0, 1, 0, 0)">
				<path fill="#21582B" d="M1813.519,921.983c1.127-2.713,2.855-5.281,5.207-6.657c1.216-0.712,2.537-0.959,3.865-0.909v207.58&#10;&#9;&#9;&#9;&#9;&#9;c0,7.128-8.261,10.937-13.711,6.374c-5.279-4.419-10.169-10.956-15.208-20.029c-5.035-9.062-9.349-36.017-7.463-50.873&#10;&#9;&#9;&#9;&#9;&#9;c0.469-3.703,3.309-6.376,6.914-7.273c3.014-0.75,4.795-11.233,2.069-22.034c-4.845-19.199,5.11-16.362,5.291-34.512&#10;&#9;&#9;&#9;&#9;&#9;c0.182-18.149-10.233-38.488,3.69-36.743C1804.174,956.907,1807.435,936.638,1813.519,921.983z"/>
			</g><path fill="#21582B" d="M1826.456,915.326c-1.261-0.639-2.536-0.959-3.865-0.909v220.714&#10;&#9;&#9;&#9;&#9;&#9;c11.256-2.338,19.845-10.452,28.919-26.79c6.115-11.007,7.262-26.558,8.219-38.157c0,0,0.395-13.675-6.652-13.675&#10;&#9;&#9;&#9;&#9;&#9;s13.301-62.367-1.684-64.716c-7.058-1.107-1.492-18.03-3.932-24.926c-2.082-5.886-12.778-2.379-12.692-8.625&#10;&#9;&#9;&#9;&#9;&#9;C1834.964,944.009,1832.774,918.535,1826.456,915.326z" transform="matrix(1, 0, 0, 1, 0, 0)"/><path d="M 1828.3360595703125 1204.2230224609375 L 1808.779052734375 1204.2230224609375 L 1818.56201171875 1035.425048828125 Z" fill="#2E380B" transform="matrix(1, 0, 0, 1, 0, 0)"/><path d="M 1821.2760009765625 1100.2130126953125 L 1797.93896484375 1064.1619873046875 L 1818.4210205078125 1105.238037109375 Z" fill="#2E380B" transform="matrix(1, 0, 0, 1, 0, 0)"/><path d="M 1814.7530517578125 1112.8580322265625 L 1847.791015625 1073.02099609375 L 1818.7960205078125 1118.4189453125 Z" fill="#2E380B" transform="matrix(1, 0, 0, 1, 0, 0)"/><path d="M 1855.749023 1159.063965 L 1855.109985 1077.996948" clip-path="url(#SVGID_2_)" fill="#99472F" transform="matrix(1, 0, 0, 1, 0, 0)"/><path d="M 1923.503052 1112.741943 L 1941.751953 1112.741943 L 1941.751953 1120.349976 L 1923.573975 1120.349976" clip-path="url(#SVGID_2_)" fill="#C48C3D" transform="matrix(1, 0, 0, 1, 0, 0)"/><path d="M 1934.370972 1124.485962 L 1952.620972 1124.485962 L 1952.620972 1132.094971 L 1934.442017 1132.094971" clip-path="url(#SVGID_2_)" fill="#C48C3D" transform="matrix(1, 0, 0, 1, 0, 0)"/><path d="M 2010.100952 1147.937012 L 2028.349976 1147.937012 L 2028.349976 1155.543945 L 2010.171021 1155.543945" clip-path="url(#SVGID_2_)" fill="#C48C3D" transform="matrix(1, 0, 0, 1, 0, 0)"/><path d="M 2065.500977 1162.670044 L 2083.75 1162.670044 L 2083.75 1170.276978 L 2065.572021 1170.276978" clip-path="url(#SVGID_2_)" fill="#C48C3D" transform="matrix(1, 0, 0, 1, 0, 0)"/><path d="M 2120.98999 1128.291016 L 2139.239014 1128.291016 L 2139.239014 1135.897949 L 2121.062012 1135.897949" clip-path="url(#SVGID_2_)" fill="#C48C3D" transform="matrix(1, 0, 0, 1, 0, 0)"/><path d="M 1943.495972 1158.86499 L 1961.744019 1158.86499 L 1961.744019 1166.473999 L 1943.56604 1166.473999" clip-path="url(#SVGID_2_)" fill="#C48C3D" transform="matrix(1, 0, 0, 1, 0, 0)"/><path d="M 1874.458984 1073.31897 L 1891.838989 1075.987061 L 1891.838989 1083.594971 L 1874.530029 1080.927002" clip-path="url(#SVGID_2_)" fill="#DEA045" transform="matrix(1, 0, 0, 1, 0, 0)"/><path d="M 1863.324951 1025.150024 L 1880.706055 1027.817017 L 1880.706055 1035.425049 L 1863.395996 1032.758057" clip-path="url(#SVGID_2_)" fill="#DEA045" transform="matrix(1, 0, 0, 1, 0, 0)"/><path d="M 1875.265991 1034.491943 L 1892.645996 1037.160034 L 1892.645996 1044.767944 L 1875.338013 1042.099976" clip-path="url(#SVGID_2_)" fill="#DEA045" transform="matrix(1, 0, 0, 1, 0, 0)"/><path d="M 1895.015015 1107.604004 L 1912.39502 1110.271973 L 1912.39502 1117.880005 L 1895.08606 1115.212036" clip-path="url(#SVGID_2_)" fill="#DEA045" transform="matrix(1, 0, 0, 1, 0, 0)"/><path d="M 1906.501953 1146.602051 L 1923.881958 1149.27002 L 1923.881958 1156.876953 L 1906.572021 1154.21106" clip-path="url(#SVGID_2_)" fill="#DEA045" transform="matrix(1, 0, 0, 1, 0, 0)"/><path d="M 2154.47998046875 1073.3189697265625 L 2099.950927734375 951.0139770507812 L 1874.56005859375 953.1370239257812 L 1834.126953125 1072.761962890625 L 1834.883056640625 1153.85595703125 L 1924.0899658203125 1175.655029296875 L 2155.4140625 1173.4739990234375 Z" opacity="0.1" clip-path="url(#SVGID_2_)" transform="matrix(1, 0, 0, 1, 0, 0)"/><g opacity="0.2" transform="matrix(1, 0, 0, 1, 0, 0)">
			<path d="M 1102.989990234375 1058.116943359375 L 1156.35498046875 1065.31396484375 L 1113.3360595703125 1089.2110595703125 L 991.0360107421875 1150.9659423828125 L 892.0590209960938 1119.823974609375 L 892.0590209960938 1093.3070068359375 L 946.31201171875 1058.8370361328125 Z" fill="#2E380B"/>
		</g><path d="M 1095.600952 1080.82605 L 1096.235962 1012.724976 L 1132.362061 944.958984 L 1156.770996 1010.862976 L 1156.256958 1066.004028" fill="#EBA849" transform="matrix(1, 0, 0, 1, 0, 0)"/><path d="M 1096.235962 1012.724976 L 938.945007 1011.242981 L 938.309998 1079.343994 L 1095.600952 1080.82605" fill="#CF9440" transform="matrix(1, 0, 0, 1, 0, 0)"/><path d="M 1096.149048 1022.049011 L 938.859009 1020.565002 L 938.945007 1011.242981 L 1096.235962 1012.724976" fill="#B38038" transform="matrix(1, 0, 0, 1, 0, 0)"/><path d="M 1130.927001953125 947.6500244140625 L 1096.2359619140625 1012.7249755859375 L 938.9450073242188 1011.2429809570312 L 976.02197265625 928.0800170898438 L 1129.280029296875 929.5250244140625 L 1156.77099609375 1010.8629760742188 L 1156.77099609375 1010.8629760742188 Z" fill="#A84E34" transform="matrix(1, 0, 0, 1, 0, 0)"/><path d="M 1096.235962 1012.724976 L 938.945007 1011.242981 L 976.021973 928.080017" fill="#A14B31" transform="matrix(1, 0, 0, 1, 0, 0)"/><path d="M 1156.770996 1010.862976 L 1156.770996 1010.862976" fill="#96462E" transform="matrix(1, 0, 0, 1, 0, 0)"/><path d="M 1129.280029296875 929.5250244140625 L 1096.2359619140625 1012.7249755859375 L 1129.488037109375 951.1959838867188 L 1152.5699462890625 1001.6740112304688 Z" fill="#C95D3E" transform="matrix(1, 0, 0, 1, 0, 0)"/><path d="M 1043.109985 1025.328979 H 1069.997986 V 1062.078979 H 1043.109985 V 1025.328979 Z" transform="matrix(-1, -0.009400000795722008, 0.009400000795722008, -1, 2103.20458984375, 2097.3388671875)" fill="#99472F"/><path d="M 1003.853027 1024.959961 H 1030.742027 V 1061.709961 H 1003.853027 V 1024.959961 Z" transform="matrix(-1, -0.009400000795722008, 0.009400000795722008, -1, 2024.736572265625, 2096.192138671875)" fill="#99472F"/><path d="M 964.598999 1024.588989 H 991.487999 V 1061.338989 H 964.598999 V 1024.588989 Z" transform="matrix(-1, -0.009400000795722008, 0.009400000795722008, -1, 1946.23193359375, 2095.08251953125)" fill="#99472F"/><path d="M 1070.1419677734375 1028.35498046875 L 1046.137939453125 1028.1290283203125 L 1045.822021484375 1061.97900390625 L 1042.93896484375 1061.9520263671875 L 1043.281982421875 1025.2039794921875 L 1070.16796875 1025.45703125 Z" fill="#803C27" transform="matrix(1, 0, 0, 1, 0, 0)"/><path d="M 1030.885986328125 1027.9849853515625 L 1006.8820190429688 1027.759033203125 L 1006.5670166015625 1061.6090087890625 L 1003.6829833984375 1061.58203125 L 1004.0250244140625 1024.833984375 L 1030.9129638671875 1025.0870361328125 Z" fill="#803C27" transform="matrix(1, 0, 0, 1, 0, 0)"/><path d="M 964.77099609375 1024.4639892578125 L 991.6580200195312 1024.717041015625 L 991.6309814453125 1027.614990234375 L 967.6270141601562 1027.3890380859375 L 967.31201171875 1061.239013671875 L 964.427978515625 1061.2120361328125 Z" fill="#803C27" transform="matrix(1, 0, 0, 1, 0, 0)"/><path d="M 1142.06897 1069.628052 L 1142.504028 1014.422974 L 1121.925049 1017.630005 L 1121.39502 1074.583984" fill="#99472F" transform="matrix(1, 0, 0, 1, 0, 0)"/><path d="M 1121.89794921875 1020.5490112304688 L 1121.925048828125 1017.6290283203125 L 1142.5040283203125 1014.4229736328125 L 1142.0689697265625 1069.6280517578125 L 1139.156982421875 1070.31494140625 L 1139.5689697265625 1017.7949829101562 Z" fill="#803C27" transform="matrix(1, 0, 0, 1, 0, 0)"/><path d="M 1142.06897 1069.546021 L 1142.504028 1014.422974" fill="#99472F" transform="matrix(1, 0, 0, 1, 0, 0)"/><path d="M 1096 1038.04895 L 1083.590942 1038.04895 L 1083.590942 1043.220947 L 1095.95105 1043.220947" fill="#C48C3D" transform="matrix(1, 0, 0, 1, 0, 0)"/><path d="M 1088.609009 1046.034058 L 1076.20105 1046.034058 L 1076.20105 1051.207031 L 1088.561035 1051.207031" fill="#C48C3D" transform="matrix(1, 0, 0, 1, 0, 0)"/><path d="M 1037.116943 1061.979004 L 1024.708008 1061.979004 L 1024.708008 1067.151978 L 1037.06897 1067.151978" fill="#C48C3D" transform="matrix(1, 0, 0, 1, 0, 0)"/><path d="M 999.447021 1071.996948 L 987.039001 1071.996948 L 987.039001 1077.170044 L 999.39801 1077.170044" fill="#C48C3D" transform="matrix(1, 0, 0, 1, 0, 0)"/><path d="M 961.71698 1048.619995 L 949.307983 1048.619995 L 949.307983 1053.793945 L 961.66803 1053.793945" fill="#C48C3D" transform="matrix(1, 0, 0, 1, 0, 0)"/><path d="M 1082.405029 1069.410034 L 1069.996948 1069.410034 L 1069.996948 1074.583984 L 1082.357056 1074.583984" fill="#C48C3D" transform="matrix(1, 0, 0, 1, 0, 0)"/><path d="M 1129.348022 1011.242981 L 1117.530029 1013.057007 L 1117.530029 1018.229004 L 1129.29895 1016.416016" fill="#DEA045" transform="matrix(1, 0, 0, 1, 0, 0)"/><path d="M 1136.917969 978.48999 L 1125.099976 980.302979 L 1125.099976 985.47699 L 1136.869995 983.661987" fill="#DEA045" transform="matrix(1, 0, 0, 1, 0, 0)"/><path d="M 1128.79895 984.84198 L 1116.97998 986.656006 L 1116.97998 991.828979 L 1128.75 990.015015" fill="#DEA045" transform="matrix(1, 0, 0, 1, 0, 0)"/><path d="M 1115.369995 1034.555054 L 1103.552002 1036.369019 L 1103.552002 1041.541992 L 1115.322021 1039.729004" fill="#DEA045" transform="matrix(1, 0, 0, 1, 0, 0)"/><path d="M 1107.560059 1061.072021 L 1095.741943 1062.885986 L 1095.741943 1068.05896 L 1107.510986 1066.244995" fill="#DEA045" transform="matrix(1, 0, 0, 1, 0, 0)"/><path d="M 938.9450073242188 1011.2429809570312 L 976.02197265625 928.0809936523438 L 1129.279052734375 929.5239868164062 L 1156.77099609375 1010.8629760742188 L 1156.2569580078125 1066.0040283203125 L 1095.6009521484375 1080.8260498046875 L 938.3099975585938 1079.343017578125 Z" opacity="0.2" transform="matrix(1, 0, 0, 1, 0, 0)"/><g transform="matrix(1, 0, 0, 1, 0, 0)">
			<g>
				<path fill="#255C30" d="M2200.399,840.149c-13.372,23.897-18.449,52.382-14.158,79.46c-0.685-3.385-2.45-5.758-4.884-7.535&#10;&#9;&#9;&#9;&#9;&#9;c-10.812-7.896-24.785-7.509-18.605,16.816c6.319,24.875-0.816,45.754,4.531,73.939c-0.879-2.982-3.753-4.441-7.589-5.032&#10;&#9;&#9;&#9;&#9;&#9;c-15.294-2.353-19.194,2.046-14.965,17.005c6.581,23.271,8.802,53.855,12.529,80.726c-1.146-1.638-2.993-2.879-5.242-3.894&#10;&#9;&#9;&#9;&#9;&#9;c-16.101-7.266-13.067,8.035-11.406,25.693c2.04,21.695,4.481,50.78,17.507,71.367c19.332,30.556,37.629,45.731,61.607,50.104&#10;&#9;&#9;&#9;&#9;&#9;V825.999c-2.83-0.095-5.643,0.368-8.234,1.701C2206.482,830.271,2203.156,835.22,2200.399,840.149z"/>
			</g>
			<g>
				<path fill="#255C30" d="M2287.434,1091.635c-2.25,1.015-4.097,2.256-5.241,3.894c3.725-26.87,10.296-86.438,16.878-109.708&#10;&#9;&#9;&#9;&#9;&#9;c4.229-14.958,0.327-19.358-14.965-17.005c-3.838,0.591-6.71,2.051-7.592,5.032c0,0-7.892-124.165-48.554-146.147&#10;&#9;&#9;&#9;&#9;&#9;c-2.565-1.387-5.403-1.796-8.235-1.701l0.001,412.801c23.979-4.373,42.274-19.549,61.606-50.104&#10;&#9;&#9;&#9;&#9;&#9;c13.026-20.587,15.468-49.672,17.507-71.367C2300.501,1099.67,2303.533,1084.369,2287.434,1091.635z"/>
			</g>
		</g><g transform="matrix(1, 0, 0, 1, 0, 0)">
				<path fill="#21582B" d="M2213.855,906.537c1.755-4.228,4.451-8.232,8.115-10.376c1.897-1.11,3.955-1.496,6.026-1.417v323.58&#10;&#9;&#9;&#9;&#9;&#9;c0,11.111-12.878,17.048-21.373,9.938c-8.23-6.891-15.852-17.079-23.707-31.223c-7.848-14.126-14.571-56.145-11.634-79.304&#10;&#9;&#9;&#9;&#9;&#9;c0.732-5.771,5.159-9.938,10.777-11.337c4.699-1.17,7.475-17.512,3.227-34.347c-7.552-29.929,7.967-25.507,8.249-53.799&#10;&#9;&#9;&#9;&#9;&#9;s-15.952-59.996,5.752-57.274C2199.288,960.979,2204.371,929.383,2213.855,906.537z"/>
			</g><path fill="#21582B" d="M2234.022,896.161c-1.965-0.997-3.953-1.496-6.025-1.417l0.001,344.055&#10;&#9;&#9;&#9;&#9;&#9;c17.546-3.645,30.933-16.293,45.08-41.761c9.53-17.158,11.318-41.398,12.811-59.482c0,0,0.614-21.316-10.37-21.316&#10;&#9;&#9;&#9;&#9;&#9;c-10.985,0,20.734-97.218-2.624-100.88c-11.003-1.726-2.327-28.107-6.129-38.855c-3.246-9.175-19.92-3.709-19.785-13.447&#10;&#9;&#9;&#9;&#9;&#9;C2247.284,940.873,2243.872,901.164,2234.022,896.161z" transform="matrix(1, 0, 0, 1, 0, 0)"/><path d="M 2236.952880859375 1346.5009765625 L 2206.467041015625 1346.5009765625 L 2221.716064453125 1083.375 Z" fill="#2E380B" transform="matrix(1, 0, 0, 1, 0, 0)"/><path d="M 2225.947021484375 1184.366943359375 L 2189.571044921875 1128.1700439453125 L 2221.4970703125 1192.2010498046875 Z" fill="#2E380B" transform="matrix(1, 0, 0, 1, 0, 0)"/><path d="M 2215.779052734375 1204.0789794921875 L 2267.280029296875 1141.97900390625 L 2222.080078125 1212.7459716796875 Z" fill="#2E380B" transform="matrix(1, 0, 0, 1, 0, 0)"/><g transform="matrix(1, 0, 0, 1, 0, 0)">
			<g>
				<path fill="#274F32" d="M1026.596,1125.051c-15.945,28.499-22,62.468-16.884,94.758c-0.815-4.035-2.921-6.865-5.824-8.985&#10;&#9;&#9;&#9;&#9;&#9;c-12.893-9.416-29.556-8.953-22.187,20.054c7.537,29.664-0.974,54.562,5.404,88.175c-1.048-3.557-4.476-5.298-9.05-6.002&#10;&#9;&#9;&#9;&#9;&#9;c-18.239-2.806-22.89,2.44-17.847,20.278c7.849,27.751,10.497,64.225,14.941,96.268c-1.368-1.953-3.569-3.434-6.251-4.645&#10;&#9;&#9;&#9;&#9;&#9;c-19.201-8.664-15.584,9.582-13.603,30.641c2.433,25.872,5.344,60.556,20.878,85.106c23.054,36.438,44.872,54.535,73.467,59.751&#10;&#9;&#9;&#9;&#9;&#9;v-492.271c-3.374-0.113-6.728,0.438-9.819,2.027C1033.849,1113.271,1029.884,1119.173,1026.596,1125.051z"/>
			</g>
			<g>
				<path fill="#274F32" d="M1130.387,1424.951c-2.684,1.211-4.886,2.691-6.251,4.645c4.442-32.043,12.278-103.078,20.127-130.83&#10;&#9;&#9;&#9;&#9;&#9;c5.043-17.837,0.39-23.083-17.846-20.277c-4.577,0.705-8.002,2.444-9.053,6.001c0,0-9.411-148.068-57.902-174.284&#10;&#9;&#9;&#9;&#9;&#9;c-3.058-1.654-6.442-2.141-9.82-2.027l0.002,492.271c28.595-5.216,50.412-23.312,73.467-59.751&#10;&#9;&#9;&#9;&#9;&#9;c15.534-24.551,18.445-59.234,20.878-85.106C1145.969,1434.533,1149.585,1416.287,1130.387,1424.951z"/>
			</g>
		</g><g transform="matrix(1, 0, 0, 1, 0, 0)">
				<path fill="#23472D" d="M1042.643,1204.221c2.093-5.042,5.307-9.817,9.677-12.374c2.263-1.323,4.716-1.784,7.187-1.689v385.874&#10;&#9;&#9;&#9;&#9;&#9;c0,13.252-15.356,20.331-25.487,11.851c-9.814-8.216-18.903-20.367-28.272-37.233c-9.357-16.845-17.375-66.952-13.873-94.571&#10;&#9;&#9;&#9;&#9;&#9;c0.873-6.882,6.152-11.851,12.853-13.52c5.604-1.395,8.914-20.883,3.849-40.959c-9.006-35.69,9.5-30.417,9.836-64.155&#10;&#9;&#9;&#9;&#9;&#9;c0.337-33.739-19.023-71.546,6.86-68.302C1025.271,1269.142,1031.333,1231.464,1042.643,1204.221z"/>
			</g><path fill="#23472D" d="M1066.692,1191.847c-2.343-1.189-4.714-1.784-7.186-1.689l0.001,410.292&#10;&#9;&#9;&#9;&#9;&#9;c20.924-4.347,36.889-19.43,53.759-49.801c11.366-20.462,13.497-49.369,15.277-70.933c0,0,0.734-25.421-12.366-25.421&#10;&#9;&#9;&#9;&#9;&#9;c-13.101,0,24.726-115.934-3.129-120.302c-13.122-2.057-2.775-33.518-7.31-46.336c-3.87-10.941-23.753-4.423-23.594-16.034&#10;&#9;&#9;&#9;&#9;&#9;C1082.508,1245.166,1078.438,1197.812,1066.692,1191.847z" transform="matrix(1, 0, 0, 1, 0, 0)"/><path d="M 1070.18798828125 1728.885009765625 L 1033.83203125 1728.885009765625 L 1052.0169677734375 1415.1009521484375 Z" fill="#2E380B" transform="matrix(1, 0, 0, 1, 0, 0)"/><path d="M 1057.06201171875 1535.5369873046875 L 1013.6840209960938 1468.52099609375 L 1051.7559814453125 1544.8780517578125 Z" fill="#2E380B" transform="matrix(1, 0, 0, 1, 0, 0)"/><path d="M 1044.93798828125 1559.0439453125 L 1106.35302734375 1484.988037109375 L 1052.4520263671875 1569.3800048828125 Z" fill="#2E380B" transform="matrix(1, 0, 0, 1, 0, 0)"/>
</svg>