<?xml version="1.0" encoding="utf-8"?>
<svg id="master-artboard" viewBox="0 0 1400 980" version="1.1" xmlns="http://www.w3.org/2000/svg" x="0px" y="0px" style="enable-background:new 0 0 1400 980;" width="1400px" height="980px"><g id="Background" transform="matrix(1, 0, 0, 1, -0.000018957327455382256, 0)">
	<g>
		<linearGradient id="SVGID_1_" gradientUnits="userSpaceOnUse" x1="1755.8136" y1="1107.6377" x2="1179.8124" y2="599.6366">
			<stop offset="0" style="stop-color:#7FEBFF"/>
			<stop offset="1" style="stop-color:#3774FF"/>
		</linearGradient>
		<path fill="url(#SVGID_1_)" d="M1400,0v980H711c0,0-39.3-145-24.7-174.3c14.7-29.3,159.3-26.7,200-63.3&#10;&#9;&#9;&#9;C927,705.7,1285.2,0,1285.2,0H1400z"/>
		<g>
			<path fill="#FFFFFF" d="M1400,658v3.5c-5.8,3.5-17.5,10-32.2,15.1c-19.3,6.8-47.8,12.6-73.6,1.6c-44.6-19.1-48.2-19-76.3-18.9&#10;&#9;&#9;&#9;&#9;c-2.6,0-5.5,0-8.6,0c-12,0-33.7,5.6-61.1,12.8c-46.7,12.1-107.9,28-165.2,28c-10.9,0-21.6-0.6-32.1-1.9l0.4-3&#10;&#9;&#9;&#9;&#9;c65.1,8,140.9-11.7,196.2-26.1c27.7-7.2,49.6-12.9,61.9-12.9c3.1,0,6,0,8.6,0c28-0.2,32.3-0.2,77.5,19.1&#10;&#9;&#9;&#9;&#9;C1337.9,693.6,1388.9,664.8,1400,658z"/>
		</g>
		<g>
			<path fill="#FFFFFF" d="M1400,814.4v3.1c-15.7-3.6-94.8-21.1-111.3-13.3c-3.3,1.6-60.8,28.3-127.9,28.3&#10;&#9;&#9;&#9;&#9;c-25.5,0-52.5-3.9-78.3-14.5c-86.3-35.5-233.4-41.9-314.7,5.1l-1.5-2.6c38.1-22,93.2-34.1,155.4-34.1c0.7,0,1.4,0,2.1,0&#10;&#9;&#9;&#9;&#9;c57.6,0.2,115.9,10.8,159.9,28.8c92.5,38,199.3-11.6,203.8-13.7C1304.8,793.3,1382.5,810.4,1400,814.4z"/>
		</g>
		<g>
			<path fill="#FFFFFF" d="M1400,744.3v3.2c-13.2-4.8-75.5-26-110.4-12.1l-3.8,1.5c-30.3,12.2-75.7,30.4-121.8,30.4&#10;&#9;&#9;&#9;&#9;c-16.3,0-32.6-2.3-48.5-7.9l1-2.8c59.5,21.1,127.5-6.1,168.1-22.4l3.8-1.5C1324,718.4,1384.5,738.6,1400,744.3z"/>
		</g>
		<g>
			<path fill="#FFFFFF" d="M1400,883.4v3.2c-11.3,4.2-48.2,17.1-93.9,25.7c-24.2,4.6-53.4,8.4-83.5,8.4c-33.1,0-67.2-4.6-97.1-17.7&#10;&#9;&#9;&#9;&#9;c-56.5-24.8-134.2-18.8-189.4-9.4c-59.9,10.3-107,26.6-107.5,26.8l-1-2.8c0.5-0.2,47.8-16.6,108-26.9&#10;&#9;&#9;&#9;&#9;c55.6-9.5,133.9-15.6,191.1,9.6c56.5,24.8,128.4,18.7,178.8,9.2C1352.6,900.5,1390.2,887.1,1400,883.4z"/>
		</g>
		<linearGradient id="SVGID_2_" gradientUnits="userSpaceOnUse" x1="1212.2651" y1="582.7064" x2="1419.2548" y2="-209.254">
			<stop offset="0" style="stop-color:#7FEBFF"/>
			<stop offset="0.1893" style="stop-color:#71D4FF"/>
			<stop offset="1" style="stop-color:#3774FF"/>
		</linearGradient>
		<path d="M 1054.0999755859375 623.2000122070312 L 1400 623.2000122070312 L 1400 0 L 1166.199951171875 0 Z" fill="url(#SVGID_2_)"/>
		<linearGradient id="SVGID_3_" gradientUnits="userSpaceOnUse" x1="1022.8487" y1="882.3475" x2="386.8499" y2="104.3479">
			<stop offset="0" style="stop-color:#7FEBFF"/>
			<stop offset="1" style="stop-color:#3774FF"/>
		</linearGradient>
		<path d="M 355 43.099998 H 940.299988 V 803.599998 H 355 V 43.099998 Z" fill="url(#SVGID_3_)"/>
		<linearGradient id="SVGID_4_" gradientUnits="userSpaceOnUse" x1="877.5204" y1="712.4514" x2="186.0559" y2="10.4877">
			<stop offset="0" style="stop-color:#7FEBFF"/>
			<stop offset="1" style="stop-color:#3774FF"/>
		</linearGradient>
		<path fill="url(#SVGID_4_)" d="M355,331.7c0,0,2.7-49.3,20-66.7c17.3-17.3,12.7-48.9,34-58.8c21.3-9.9,48-25.9,72.7-26.6&#10;&#9;&#9;&#9;c24.7-0.7,80.7-24,102-24s99.3,46.7,106,57.3c6.7,10.7,24,4.9,23.3,14.8c-0.7,9.9,22.7,66.5,22.7,95.2s-35,166.2-32,202.1&#10;&#9;&#9;&#9;c3,35.9-34.4,23.4-57.7,21.2c-23.3-2.2-26.7-9.9-30.5,3.9S567.2,616,501.4,623S354.3,467.3,355,331.7z"/>
		<linearGradient id="SVGID_5_" gradientUnits="userSpaceOnUse" x1="551.2473" y1="495.1013" x2="107.2704" y2="-11.8726">
			<stop offset="0" style="stop-color:#7FEBFF"/>
			<stop offset="1" style="stop-color:#3774FF"/>
		</linearGradient>
		<path fill="url(#SVGID_5_)" d="M355,360.3c0,0,3.3-74,18-84.7c14.7-10.7,26.7-34.7,45.3-27.3c18.7,7.3,8,20.7,30,18&#10;&#9;&#9;&#9;c22-2.7,56.7,2,60,17.3c3.3,15.3-9.3,23.3,17.3,45.3c26.7,22,38,26.7,49.3,54s44.3,83.3,40.5,95.3s-22.1,6.5-26.3,25.6&#10;&#9;&#9;&#9;c-4.2,19.1,12.7,30.4-21.5,47.1c-34.2,16.6-144-14-168-69.3C375.7,426.3,355,360.3,355,360.3z"/>
		<linearGradient id="SVGID_6_" gradientUnits="userSpaceOnUse" x1="441.0511" y1="394.3687" x2="-116.9204" y2="-271.5986">
			<stop offset="0" style="stop-color:#7FEBFF"/>
			<stop offset="1" style="stop-color:#3774FF"/>
		</linearGradient>
		<path fill="url(#SVGID_6_)" d="M362.3,325.7c0,0,19.3-48,32.7-51.3c13.3-3.3,34,2.7,36,14.7s-10,22.7,7.3,27.3&#10;&#9;&#9;&#9;c17.3,4.7,30,10,30.7,20c0.7,10-15.3,20-2.7,36.3c12.7,16.3,10.8,15,35.1,36.3c24.3,21.3,31.6,24,33.6,41.3&#10;&#9;&#9;&#9;c2,17.3-76.8,56.7-76.8,56.7S372.3,432.3,362.3,325.7z"/>
		<linearGradient id="SVGID_7_" gradientUnits="userSpaceOnUse" x1="580.136" y1="601.1575" x2="1238.136" y2="1074.1575">
			<stop offset="0" style="stop-color:#EFE9B6"/>
			<stop offset="1" style="stop-color:#CF8343"/>
		</linearGradient>
		<path fill="url(#SVGID_7_)" d="M460.3,472.3c0,0,328.7,149.3,421.3,210.7c76.9,50.9,126.3,168.5,140.8,206.9&#10;&#9;&#9;&#9;c2.2,5.9-2.4,12.1-8.7,11.7c-45.5-3-200-17.8-316.4-83.6C559.5,740,440,540.7,460.3,472.3z"/>
		<linearGradient id="SVGID_8_" gradientUnits="userSpaceOnUse" x1="905.2222" y1="825.3248" x2="284.138" y2="378.6276">
			<stop offset="0" style="stop-color:#EFE9B6"/>
			<stop offset="1" style="stop-color:#CF8343"/>
		</linearGradient>
		<path fill="url(#SVGID_8_)" d="M467.4,472c0,0,296.9,134.9,380.6,190.3c69.5,46,114.1,152.2,127.2,186.9c2,5.3-2.1,10.9-7.8,10.6&#10;&#9;&#9;&#9;c-41.1-2.7-180.6-16.1-285.8-75.5C557,713.8,449.1,533.7,467.4,472z"/>
		<linearGradient id="SVGID_9_" gradientUnits="userSpaceOnUse" x1="1070.5247" y1="964.8337" x2="339.681" y2="349.0717">
			<stop offset="0" style="stop-color:#EFE9B6"/>
			<stop offset="1" style="stop-color:#CF8343"/>
		</linearGradient>
		<path fill="url(#SVGID_9_)" d="M511,497.3c0,0,250.7,131.8,253,150.4c2.3,18.7-5.1,69.8-50.9,62.7&#10;&#9;&#9;&#9;c-45.7-7.2-231.5-190.7-231.5-203.3C481.7,494.3,485.5,490.9,511,497.3z"/>
		<linearGradient id="SVGID_10_" gradientUnits="userSpaceOnUse" x1="1277.4733" y1="1.0139" x2="-252.5363" y2="905.0194">
			<stop offset="0" style="stop-color:#7FEBFF"/>
			<stop offset="1" style="stop-color:#3774FF"/>
		</linearGradient>
		<path fill="url(#SVGID_10_)" d="M1374.7,311.5c-17.5,9.5-12.5,74.5-19.5,79.5s-8.5,15.5-11.5,21.5s-4.5,11.5-12,20.5&#10;&#9;&#9;&#9;s-12,11-16.5,17.5s-7.5,19-21.5,22.5s-53,52.1-53,52.1s-11.5,10.9-21,16.4s-16.5,13-26.5,18.5s-9.5,18-22.5,15s-66.5,59-79,70.5&#10;&#9;&#9;&#9;s-31.5,22-56.5,22.5c-25,0.5-20.5,12-38,16s-20.5,17.5-30.5,15c-0.5-0.1-1-0.2-1.5-0.2c-0.3,0-0.6,0-0.9,0.1&#10;&#9;&#9;&#9;c-1.4,0.1-2.8,0.6-4.4,1.4c-0.2,0.1-0.4,0.2-0.6,0.3c-0.3,0.2-0.6,0.3-0.9,0.5c-0.2,0.1-0.4,0.2-0.6,0.3c-0.7,0.4-1.4,0.8-2.1,1.3&#10;&#9;&#9;&#9;c-0.5,0.3-1,0.6-1.4,1c-0.4,0.3-0.8,0.6-1.2,0.9c-2.2,1.7-4.5,3.5-6.8,5.3c-1.1,0.9-2.2,1.7-3.2,2.5c-0.3,0.2-0.6,0.5-0.9,0.7&#10;&#9;&#9;&#9;c0,0-0.1,0.1-0.1,0.1c-0.5,0.4-1,0.7-1.4,1.1c-0.4,0.3-0.7,0.5-1.1,0.8c-0.3,0.3-0.7,0.5-1,0.7c-0.3,0.3-0.7,0.5-1,0.7&#10;&#9;&#9;&#9;c-0.3,0.2-0.7,0.4-1,0.6c0,0,0,0,0,0c-0.3,0.2-0.6,0.4-1,0.6c-0.2,0.1-0.4,0.2-0.6,0.4c0,0,0,0,0,0c-0.2,0.1-0.4,0.2-0.6,0.3&#10;&#9;&#9;&#9;c-0.7,0.4-1.4,0.7-2.1,0.9c-0.1,0-0.2,0.1-0.3,0.1c0,0-0.1,0-0.1,0c-0.1,0-0.2,0-0.3,0.1c-0.1,0-0.1,0-0.2,0&#10;&#9;&#9;&#9;c-0.2,0.1-0.4,0.1-0.6,0.1c-0.1,0-0.2,0-0.3,0c-0.4,0.1-0.9,0.1-1.3,0c-0.2,0-0.4-0.1-0.5-0.1c-0.7-0.2-1.5-0.2-2.4-0.2&#10;&#9;&#9;&#9;c-0.4,0-0.9,0-1.3,0.1c-0.8,0.1-1.6,0.2-2.4,0.3c-0.2,0-0.5,0.1-0.7,0.1c-2.7,0.6-5.5,1.5-8.3,2.5c-3.8,1.4-7.4,2.8-10.2,3.5&#10;&#9;&#9;&#9;c0,0,0,0,0,0c-0.6,0.2-1.2,0.3-1.7,0.4c-1.3,0.2-2.4,0.1-3-0.4c-0.1,0-0.1-0.1-0.1-0.2c-2.9-4,9.7-39.1,12.6-52.8&#10;&#9;&#9;&#9;c3-14-16-30.5-1.5-47.5s6-20.5,2-35.5s9.5-70,13-100s6.5-17.5-6.5-36s-4.5-16.5,2-21s-22-64-23-75.6c-1-11.6-5-10.9-13-30.4&#10;&#9;&#9;&#9;s2-17.5,3-33s-38.5-51-57.5-62s-11-14.5-11.5-22.5s-10-21.5-28-31.5s-51-68-61.5-76s-23-13-33.5-11.5s-27-12-33-16s-84-7.5-96-5.5&#10;&#9;&#9;&#9;s-27,8-38,4.5s-7,3.5-15.5,10.5s-62,31.5-70.5,36.5s-6.5,7-10,16s-0.5,3-11,8.5s-3,1.5-10,8.5s2.5,16.5-4,30.2&#10;&#9;&#9;&#9;c-6.5,13.7-38.5,62.3-40.5,74.6s-1.5,7.7-5,25.2s0,8.5,7,16.5s3,53.5,3,63s7.5,21,17.1,28.5c9.6,7.5,5.9,9.5,7.4,21s9,11,25,23&#10;&#9;&#9;&#9;s20,13.5,39.5,30.5s0,0,11.5,37.9c11.5,37.9,4,7.6,18,18.1s31.5,29.7,38.2,39.7c6.7,10,11.3,9.3,28,12&#10;&#9;&#9;&#9;C573,576.3,577,597,586.5,607c9.5,10,11.8,11.3,17.8,24.7c6,13.3,6,22.7,20.7,35.3c14.7,12.7,14,16.7,36.7,32&#10;&#9;&#9;&#9;c22.7,15.3,18.7,23.3,20.2,48c1.5,24.7,3.8,9.3,22.5,16c18.7,6.7,54,63.3,56.7,71.3s9.3,1.3,18,8.7c8.7,7.3,7.3,13.3,10,25.3&#10;&#9;&#9;&#9;s10,10,30,15.3c20,5.3,80.8,96.3,80.8,96.3H0V0h1320.7c0,0,11,47.5,25,62s6.5,11.5,13.5,36s7.5,17.5,18.5,29.5s12,39,12,39&#10;&#9;&#9;&#9;s0,16-2.5,32.5s1,16.5,2.5,40s2,16,4.5,32S1392.2,302,1374.7,311.5z"/>
		<linearGradient id="SVGID_11_" gradientUnits="userSpaceOnUse" x1="636.9574" y1="307.6277" x2="-215.6604" y2="811.3966">
			<stop offset="0" style="stop-color:#7FEBFF"/>
			<stop offset="1" style="stop-color:#3774FF"/>
		</linearGradient>
		<path fill="url(#SVGID_11_)" d="M656.6,980c0,0-36.3-96.9-57.1-96.9c-20.8,0-37.9,1.4-54.1-23.3s-11.6-60.7-43.9-69.7&#10;&#9;&#9;&#9;s-54.8-12-90.8-42c-36-30-60.5-45.7-48.3-61.1c12.3-15.4,48.3,2.6,36.3-31.9c-12-34.5-22.5-55.5-25.5-42&#10;&#9;&#9;&#9;c-3,13.5,25.5,63-19.5,22.5c-45-40.5-61.5-147.2-45-145.6s46.5,14.5,4.5-37.7s-49.5-35-48-79.6c1.5-44.6-6-72.9,9-99.3&#10;&#9;&#9;&#9;c15-26.3,19.5-7.7,21-57.5c1.5-49.8,84-171.3,121.5-171.3s63-44.6,63-44.6H0v980H656.6z"/>
		<linearGradient id="SVGID_12_" gradientUnits="userSpaceOnUse" x1="211.5689" y1="733.5231" x2="-636.431" y2="1533.5231">
			<stop offset="0" style="stop-color:#7FEBFF"/>
			<stop offset="1" style="stop-color:#3774FF"/>
		</linearGradient>
		<path fill="url(#SVGID_12_)" d="M583.7,980c0,0-131.1-152.4-158.1-153.9c-27-1.5-45,54-87,0c-42-54-24-75-48-88.5&#10;&#9;&#9;&#9;c-24-13.5-40.5-6-64.5-34.5c-24-28.5-21-8.4-30-37.2c-9-28.8-10.5,2-10.5-42.7c0-44.6,1.5-62.7-33-81.4&#10;&#9;&#9;&#9;c-34.5-18.7-75-72.6-70.5-98.9C86.6,416.6,0,335.6,0,335.6V980H583.7z"/>
		<linearGradient id="SVGID_13_" gradientUnits="userSpaceOnUse" x1="919.4572" y1="149.4398" x2="1334.9364" y2="615.9165">
			<stop offset="0" style="stop-color:#7FEBFF"/>
			<stop offset="1" style="stop-color:#FFFFFF"/>
		</linearGradient>
		<path fill="url(#SVGID_13_)" d="M1374.7,311.5c-17.5,9.5-12.5,74.5-19.5,79.5s-8.5,15.5-11.5,21.5s-4.5,11.5-12,20.5&#10;&#9;&#9;&#9;s-12,11-16.5,17.5s-7.5,19-21.5,22.5s-53,52.1-53,52.1s-11.5,10.9-21,16.4s-16.5,13-26.5,18.5s-9.5,18-22.5,15s-66.5,59-79,70.5&#10;&#9;&#9;&#9;s-31.5,22-56.5,22.5c-25,0.5-20.5,12-38,16s-20.5,17.5-30.5,15s-29,22.7-38,20.7c-4-0.9-9.7,0.9-15.1,2.8&#10;&#9;&#9;&#9;c-3.8,1.4-7.4,2.8-10.2,3.5c0,0,0,0,0,0c-3.1,0-4.7,0-4.7,0S983,631,995,604s-7-46.4,0-62.2c7-15.8,27.2-24.8,28.1-47.8&#10;&#9;&#9;&#9;c0.9-23,4.9-95.5,12.9-92.8c8,2.8,27,0.8,26-24.2s-22-54-34-76s26-80.5,19-94.8s-19-64.2-35-72.2s-28.5,23-36.3-9&#10;&#9;&#9;&#9;C968,93,984,84,958,71s-16-3-44-19S861,0,861,0h459.7c0,0,11,47.5,25,62s6.5,11.5,13.5,36s7.5,17.5,18.5,29.5s12,39,12,39&#10;&#9;&#9;&#9;s0,16-2.5,32.5s1,16.5,2.5,40s2,16,4.5,32S1392.2,302,1374.7,311.5z"/>
		<linearGradient id="SVGID_14_" gradientUnits="userSpaceOnUse" x1="687.4178" y1="-27.0823" x2="1326.3859" y2="550.3889">
			<stop offset="0" style="stop-color:#7FEBFF"/>
			<stop offset="1" style="stop-color:#FFFFFF"/>
		</linearGradient>
		<path fill="url(#SVGID_14_)" d="M1374.7,311.5c-17.5,9.5-12.5,74.5-19.5,79.5s-8.5,15.5-11.5,21.5s-4.5,11.5-12,20.5&#10;&#9;&#9;&#9;s-12,11-16.5,17.5s-7.5,19-21.5,22.5s-53,52.1-53,52.1s-11.5,10.9-21,16.4s-16.5,13-26.5,18.5s-9.5,18-22.5,15s-66.5,59-79,70.5&#10;&#9;&#9;&#9;s-31.5,22-56.5,22.5c-25,0.5-20.5,12-38,16s-20.5,17.5-30.5,15c-0.5-0.1-1-0.2-1.5-0.2c-0.3,0-0.6,0-0.9,0.1&#10;&#9;&#9;&#9;c-1.4,0.1-2.8,0.6-4.4,1.4c-0.2,0.1-0.4,0.2-0.6,0.3c-0.3,0.2-0.6,0.3-0.9,0.5c-0.2,0.1-0.4,0.2-0.6,0.3c-0.7,0.4-1.4,0.8-2.1,1.3&#10;&#9;&#9;&#9;c-0.5,0.3-1,0.6-1.4,1c-0.4,0.3-0.8,0.6-1.2,0.9c-2.2,1.7-4.5,3.5-6.8,5.3c-1.1,0.9-2.2,1.7-3.2,2.5c-0.3,0.2-0.6,0.5-0.9,0.7&#10;&#9;&#9;&#9;c0,0-0.1,0.1-0.1,0.1c-0.5,0.4-1,0.7-1.4,1.1c-0.4,0.3-0.7,0.5-1.1,0.8c-0.3,0.3-0.7,0.5-1,0.7c-0.3,0.3-0.7,0.5-1,0.7&#10;&#9;&#9;&#9;c-0.3,0.2-0.7,0.4-1,0.6c0,0,0,0,0,0c-0.3,0.2-0.6,0.4-1,0.6c-0.2,0.1-0.4,0.2-0.6,0.4c0,0,0,0,0,0c-0.2,0.1-0.4,0.2-0.6,0.3&#10;&#9;&#9;&#9;c-0.7,0.4-1.4,0.7-2.1,0.9c-0.1,0-0.2,0.1-0.3,0.1c0,0-0.1,0-0.1,0c-0.1,0-0.2,0-0.3,0.1c-0.1,0-0.1,0-0.2,0&#10;&#9;&#9;&#9;c-0.2,0.1-0.4,0.1-0.6,0.1c-0.1,0-0.2,0-0.3,0c-0.4,0.1-0.9,0.1-1.3,0c-0.2,0-0.4-0.1-0.5-0.1c-0.7-0.2-1.5-0.2-2.4-0.2&#10;&#9;&#9;&#9;c-0.4,0-0.9,0-1.3,0.1c-0.8,0.1-1.6,0.2-2.4,0.3c-0.2,0-0.5,0.1-0.7,0.1c-2.7,0.6-5.5,1.5-8.3,2.5C919.1,699,1009,638,1023.1,615&#10;&#9;&#9;&#9;c14.1-23,53-48.4,58.9-73.2c5.2-21.8,27.4-39.8,49.7-60.5c1.3-1.2,2.6-2.5,3.9-3.7c1.8-1.7,3.6-3.5,5.4-5.2&#10;&#9;&#9;&#9;c25-24.7,48-98.3,48-124.6s18-13.7,32-36.1s17-142.6,17-155.9c0-13.3,18-15.7,23.5-31.7s-4.5-37-14.5-63s30.6-61,30.6-61h43.1&#10;&#9;&#9;&#9;c0,0,11,47.5,25,62s6.5,11.5,13.5,36s7.5,17.5,18.5,29.5s12,39,12,39s0,16-2.5,32.5s1,16.5,2.5,40s2,16,4.5,32&#10;&#9;&#9;&#9;S1392.2,302,1374.7,311.5z"/>
		<g>
			<path fill="#FFFFFF" d="M614.9,980h-3.4c-28.5-57.2-67.8-90.8-94-113.2c-16.2-13.9-28-23.9-31.1-33.7&#10;&#9;&#9;&#9;&#9;c-3.8-12.1-39.7-28.8-77.7-46.5c-40.7-19-82.9-38.6-96.8-57.2c-18.1-24.1-13.8-33.3-9.2-43.2c2.4-5.1,4.9-10.5,4.4-18.5&#10;&#9;&#9;&#9;&#9;c-0.9-14.5-26-39.4-48.2-61.3c-13.1-13-25.5-25.2-31.2-33.8c-13.6-20.5-5.8-67.2-1.6-92.3c0.6-3.4,1-6.3,1.4-8.6&#10;&#9;&#9;&#9;&#9;c1.5-9.8-6.2-17.5-14.2-25.6c-7-7-14.2-14.3-15.7-23.5c-3.2-20.2,26.9-56.1,35.1-64.6c3.5-3.6-0.2-11.6-5.8-23.7&#10;&#9;&#9;&#9;&#9;c-7-15.1-16.6-35.7-19.4-63.3c-3.4-34.2,9.3-61.7,20.5-86c5.5-11.8,10.6-23,13.1-33.5c6.7-28.3-2.4-36.8-22.3-55.4&#10;&#9;&#9;&#9;&#9;c-1.8-1.7-3.7-3.5-5.7-5.4c-3.5-3.3-5.4-7.8-5.5-13.4c-0.6-24,31.3-62.5,44.7-77.6h4c-11.8,13.1-46.4,53.7-45.8,77.5&#10;&#9;&#9;&#9;&#9;c0.1,4.8,1.6,8.5,4.6,11.3c2,1.9,3.9,3.7,5.7,5.4c20.2,18.8,30.3,28.3,23.2,58.3c-2.5,10.8-7.8,22.1-13.3,34.1&#10;&#9;&#9;&#9;&#9;c-11.1,23.9-23.6,51.1-20.2,84.5c2.7,27,12.2,47.4,19.1,62.3c6.1,13.2,10.2,22,5.2,27.1c-11.9,12.3-37,44.9-34.3,62&#10;&#9;&#9;&#9;&#9;c1.3,8.2,8.2,15.1,14.8,21.8c8.2,8.3,16.7,16.9,15.1,28.2c-0.3,2.4-0.8,5.3-1.4,8.7c-3.8,22.9-11.8,70.6,1.2,90.1&#10;&#9;&#9;&#9;&#9;c5.5,8.3,17.8,20.4,30.8,33.3c22.5,22.3,48.1,47.6,49.1,63.3c0.5,8.8-2.2,14.7-4.6,19.9c-4.4,9.4-8.2,17.5,8.8,40.1&#10;&#9;&#9;&#9;&#9;c13.5,17.9,57.1,38.3,95.7,56.2c40.3,18.8,75.1,35,79.3,48.3c2.9,9,14.3,18.8,30.2,32.3C546.1,887.3,586.1,921.4,614.9,980z"/>
			<path fill="#FFFFFF" d="M989.8,416.7c-1.6,14.3-5.5,39-13.2,43.9c-9.2,5.8-7.2,21.4-4.8,41.2c1.5,12.2,3.2,26.1,2.7,40.6&#10;&#9;&#9;&#9;&#9;c-1,28.4-13.2,53.2-35.2,71.7c-3.5,3-5.4,6.2-5.7,9.8c-0.3,4.8,2.2,10.1,7.8,16.4c1.3,1.5,4.5,5-18.4,47.9&#10;&#9;&#9;&#9;&#9;c-8.6,16.1-17.7,32-21.4,38.3c-1.3,0.2-2.4,0.1-3-0.4c-0.1,0-0.1-0.1-0.1-0.2c3.2-5.5,12.8-21.9,21.7-38.8&#10;&#9;&#9;&#9;&#9;c20.7-38.9,19.4-44.1,19-44.8c-6.2-6.9-9-13-8.6-18.6c0.3-4.4,2.6-8.3,6.7-11.8c21.7-18.3,33.2-41.7,34.1-69.5&#10;&#9;&#9;&#9;&#9;c0.5-14.3-1.2-28-2.7-40.2c-2.6-20.8-4.6-37.2,6.2-44.1c4.8-3,9.3-19,11.8-41.7c4.8-42.7,1.5-97.2-12.1-111&#10;&#9;&#9;&#9;&#9;c-8.9-9-15.9-8.5-22.1-8.1c-10.3,0.7-16.2-0.3-19.8-29.2c-6.5-53.5-27-121.9-41.5-125.4c-6.2-1.5-9.8,0.4-13,2&#10;&#9;&#9;&#9;&#9;c-5.9,3-9.9,4.2-18.6-8.7c-5.3-7.9-7.4-14.9-9.3-21.1c-3.1-10.3-5.6-18.5-21.4-26.2c-6.4-3.1-13.7-6.5-21.5-10.1&#10;&#9;&#9;&#9;&#9;c-23.8-11-50.8-23.6-61.6-33.9C735,34.2,676.5,9.5,653.3,0h7.9c26.4,11,76.3,32.5,86.8,42.5c10.4,10,37.1,22.4,60.7,33.4&#10;&#9;&#9;&#9;&#9;c7.8,3.6,15.1,7,21.5,10.2c17,8.3,19.7,17.5,23,28c1.8,6,3.9,12.8,9,20.3c7.6,11.4,10.2,10.1,14.7,7.7c3.5-1.8,7.8-4,15-2.3&#10;&#9;&#9;&#9;&#9;c17.7,4.3,37.8,78.7,43.8,128c3.3,27.5,8.3,27.1,16.6,26.6c6.1-0.4,14.5-1,24.4,8.9C992.7,319.3,994,379.3,989.8,416.7z"/>
			<path fill="#FFFFFF" d="M1131.7,408.9c3.2,28.9,6.3,56.2,3.9,68.6c0,0.2-0.1,0.4-0.1,0.6c-6,27.2-17.9,48-33.6,58.5&#10;&#9;&#9;&#9;&#9;c-14.4,9.7-35.4,48.5-42.4,70c-7.5,22.7-17.8,36.4-48.3,39.4c-23.7,2.3-53.3,45.6-64.8,63.8c-1.1,0.9-2.2,1.7-3.2,2.5&#10;&#9;&#9;&#9;&#9;c-0.3,0.2-0.6,0.5-0.9,0.7c0,0-0.1,0.1-0.1,0.1c-0.5,0.4-1,0.7-1.4,1.1c-0.4,0.3-0.7,0.5-1.1,0.8c5.7-9.7,41.7-69.1,71.2-72&#10;&#9;&#9;&#9;&#9;c29-2.8,38.5-15.3,45.7-37.4c7.1-21.6,28.1-61.1,43.6-71.5c14.4-9.7,25.5-28.4,31.5-53c0.3-1.2,0.6-2.5,0.9-3.7&#10;&#9;&#9;&#9;&#9;c2.5-11.6-0.6-39.1-3.8-68.3c-4.3-38.5-9.2-82.2-2.2-100.1c2.2-5.5,4.6-11.3,7.1-17c11.1-26,22.6-52.9,9.4-66.1&#10;&#9;&#9;&#9;&#9;c-6.7-6.7-16.4-10.1-25.9-13.5c-14.2-5-27.6-9.8-27.6-24.7c0-7.2,1.7-15.3,3.6-23.8c4.1-19,8.7-40.5-6.2-56.1&#10;&#9;&#9;&#9;&#9;c-7.6-8-13.2-20.4-19.6-34.7c-11.4-25.1-25.3-55.9-56.4-73.3h5.9c28.9,18.2,42.3,47.8,53.3,72.1c6.3,14.1,11.8,26.2,19.1,33.8&#10;&#9;&#9;&#9;&#9;c15.9,16.8,11.1,39.1,6.9,58.8c-1.8,8.4-3.5,16.3-3.5,23.2c0,12.8,11.8,17,25.6,21.8c9.8,3.5,19.9,7,27,14.2&#10;&#9;&#9;&#9;&#9;c14.7,14.7,2.8,42.5-8.7,69.4c-2.4,5.6-4.9,11.4-7,16.9C1122.6,327.5,1127.4,370.7,1131.7,408.9z"/>
		</g>
	</g>
</g><g transform="matrix(1, 0, 0, 1, -0.00001895732930279337, 0)">
		<linearGradient id="SVGID_15_" gradientUnits="userSpaceOnUse" x1="564.7142" y1="536.9443" x2="466.463" y2="452.813">
			<stop offset="0" style="stop-color:#E8AF7C"/>
			<stop offset="1" style="stop-color:#BA8356"/>
		</linearGradient>
		<path fill="url(#SVGID_15_)" d="M562.9,497.3c0,0-28.8,46-34.6,44.5c-5.8-1.5-40.8-32.6-40.4-35.2c0.4-2.5,7.6-4.4,18.5,0&#10;&#9;&#9;&#9;C517.3,510.9,562.9,497.3,562.9,497.3z"/>
		<linearGradient id="SVGID_16_" gradientUnits="userSpaceOnUse" x1="574.778" y1="432.6292" x2="478.1113" y2="513.2958">
			<stop offset="0" style="stop-color:#E8AF7C"/>
			<stop offset="1" style="stop-color:#BA8356"/>
		</linearGradient>
		<path fill="url(#SVGID_16_)" d="M584.6,360.7c0,0-80.7,120-82.9,129.5c-2.2,9.5,8.7,37.1,15.6,38.2c6.9,1.1,87-51.3,115.4-82.5&#10;&#9;&#9;&#9;c0,0,80.5-60.6,62-78.3C676.2,349.8,584.6,360.7,584.6,360.7z"/>
		<linearGradient id="SVGID_17_" gradientUnits="userSpaceOnUse" x1="527.0502" y1="430.5233" x2="685.6402" y2="430.5233">
			<stop offset="0" style="stop-color:#4A6DC6"/>
			<stop offset="1" style="stop-color:#460AC6"/>
		</linearGradient>
		<path fill="url(#SVGID_17_)" d="M584.6,360.7c0,0-34.4,46-57.1,80.2c-0.7,1.1-0.5,2.5,0.5,3.3c6.8,5.3,30.7,25.5,39,54.9&#10;&#9;&#9;&#9;c0.3,1.1,1.6,1.5,2.5,0.8l49.8-39c0,0,76.8-85.8,65-93.5S584.6,360.7,584.6,360.7z"/>
		<linearGradient id="SVGID_18_" gradientUnits="userSpaceOnUse" x1="700.1204" y1="470.8986" x2="779.4538" y2="659.5652">
			<stop offset="0" style="stop-color:#E8AF7C"/>
			<stop offset="1" style="stop-color:#BA8356"/>
		</linearGradient>
		<path fill="url(#SVGID_18_)" d="M750.2,395.1c0,0-18.5,45.3-76.4,68.7c0,0,29,22,30.1,30.2c1.1,8.2,22.2,95.8,39.7,153.1&#10;&#9;&#9;&#9;c0,0,0.5,23.7-6.8,27.3c-7.4,3.5-16.1-0.3-13.9-5.2c2.2-4.9,13.4-20.2,13.4-20.2s-106.1-155.2-117-174.8&#10;&#9;&#9;&#9;c-10.9-19.6-3.9-40.8,0-48.4c6-11.6,66.7-60,66.7-60s20-25.5,36.4-16S750.2,395.1,750.2,395.1z"/>
		<linearGradient id="SVGID_19_" gradientUnits="userSpaceOnUse" x1="632.4059" y1="400.9621" x2="750.2368" y2="400.9621">
			<stop offset="0" style="stop-color:#4A6DC6"/>
			<stop offset="1" style="stop-color:#460AC6"/>
		</linearGradient>
		<path fill="url(#SVGID_19_)" d="M699.3,451c-4.9-9.7-26.4-46.2-65.2-41.4c-1.4,0.2-2.2-1.6-1.2-2.5c9.5-8.5,34.6-30.7,45.3-37.9&#10;&#9;&#9;&#9;c0,0,27.8-25.8,46.5-18.3s25.6,50.5,25.6,50.5s-15.2,29.1-47.6,50.4C701.5,452.7,699.9,452.3,699.3,451z"/>
		<linearGradient id="SVGID_20_" gradientUnits="userSpaceOnUse" x1="693.2073" y1="347.9578" x2="391.2076" y2="173.9577">
			<stop offset="0" style="stop-color:#E8AF7C"/>
			<stop offset="1" style="stop-color:#BA8356"/>
		</linearGradient>
		<path fill="url(#SVGID_20_)" d="M841,520.7c-4.7,6.2-12.7,5.5-17.1,0c-4.4-5.5-3.3-14.9-9.1-16c-5.8-1.1-4.7,9.1-9.5,4.4&#10;&#9;&#9;&#9;c-4.7-4.7,2.2-5.5-2.2-14.2c-4.4-8.7-44.2-81.8-90-138.5l0,0c-0.3,0.3-5.6,5.3-17,9.8c-11,4.5-27.8,8.6-51.3,7.8&#10;&#9;&#9;&#9;c-46.6-1.6-59.5-7.4-60.5-12.8c-1.4-7.1-6.1-40.1-6.1-40.1s-22.3-24.5-39.7-62.8c0,0-48-10.6-83.6-15c-35.6-4.4-48.7,0.5-52.3-0.9&#10;&#9;&#9;&#9;c-3.5-1.4-15-13.4-13.6-16.1c1.4-2.7,13.4,7.4,19.9,7.9c6.5,0.6,123.5-13.1,145.9-13.9c3.9-0.1,8.2,0,12.6,0.3&#10;&#9;&#9;&#9;c20.8,1.5,44.2,7.2,44.2,7.2s17.4,4.9,38.1,11.2c26.6,8.1,58.6,18.3,65.6,23.3c12.4,8.7,76.4,164,98.5,230.2&#10;&#9;&#9;&#9;C813.7,492.4,845.7,514.6,841,520.7z"/>
		<linearGradient id="SVGID_21_" gradientUnits="userSpaceOnUse" x1="615.0438" y1="296.8805" x2="604.7938" y2="192.3806">
			<stop offset="0" style="stop-color:#E8AF7C"/>
			<stop offset="1" style="stop-color:#BA8356"/>
		</linearGradient>
		<path fill="url(#SVGID_21_)" d="M649.6,238.9c-8.3,6.8-24.6,20.1-28.2,20.8c-4.8,1-22.5,0.6-25.3-1.5c-2-1.5-19.5-25.1-28.8-37.7&#10;&#9;&#9;&#9;c20.8,1.5,44.2,7.2,44.2,7.2S628.9,232.7,649.6,238.9z"/>
		<linearGradient id="SVGID_22_" gradientUnits="userSpaceOnUse" x1="580.6738" y1="259.7828" x2="588.6737" y2="138.0328">
			<stop offset="0" style="stop-color:#E8AF7C"/>
			<stop offset="1" style="stop-color:#BA8356"/>
		</linearGradient>
		<path fill="url(#SVGID_22_)" d="M589.2,209.5c0,0-1.9-3.4-5.7-3.3c-3.8,0.1-6.8,13.4-4.5,17.5c2.3,4.1,8.6,4.1,8.6,4.1&#10;&#9;&#9;&#9;L589.2,209.5z"/>
		<linearGradient id="SVGID_23_" gradientUnits="userSpaceOnUse" x1="637.8578" y1="263.5404" x2="645.8578" y2="141.7903">
			<stop offset="0" style="stop-color:#E8AF7C"/>
			<stop offset="1" style="stop-color:#BA8356"/>
		</linearGradient>
		<path fill="url(#SVGID_23_)" d="M638.3,217.3c0,0,5.9-1.1,7.1,1c1.2,2,0.3,13.4-3.5,16c-2.3,1.6-7.5,0-7.5,0L638.3,217.3z"/>
		<linearGradient id="SVGID_24_" gradientUnits="userSpaceOnUse" x1="628.8384" y1="246.8857" x2="590.1719" y2="161.5527">
			<stop offset="0" style="stop-color:#E8AF7C"/>
			<stop offset="1" style="stop-color:#BA8356"/>
		</linearGradient>
		<path fill="url(#SVGID_24_)" d="M591,193.7c0,0-5.2,19.8-4.4,41.8c0,0,11.1,18.7,14.4,20.4c3.3,1.6,16.9,3.1,19.6,2.2&#10;&#9;&#9;&#9;c2.7-0.9,14.8-17,17.1-25c3.5-11.9,6.7-33.5,6.7-33.5S621.1,185.5,591,193.7z"/>
		<linearGradient id="SVGID_25_" gradientUnits="userSpaceOnUse" x1="584.4199" y1="183.6978" x2="680.9716" y2="183.6978">
			<stop offset="0" style="stop-color:#4A6DC6"/>
			<stop offset="1" style="stop-color:#460AC6"/>
		</linearGradient>
		<path fill="url(#SVGID_25_)" d="M588.8,204.5c0,0,9.8-13.4,30.4-7.9c20.6,5.5,39.4,22.2,54.8-3.5c15.4-25.8,1.6-38-6.8-41&#10;&#9;&#9;&#9;c-8.5-3-19.4,7.6-19.2,17.7c0,0-12.8-13.6-37-10.2c-24.1,3.4-26.6,25.5-26.6,33c0,7.5,2.8,23.5,2.8,23.5L588.8,204.5z"/>
		<linearGradient id="SVGID_26_" gradientUnits="userSpaceOnUse" x1="664.7393" y1="308.0291" x2="724.2392" y2="383.029">
			<stop offset="0" style="stop-color:#E8AF7C"/>
			<stop offset="1" style="stop-color:#BA8356"/>
		</linearGradient>
		<path fill="url(#SVGID_26_)" d="M713.1,356.4L713.1,356.4c-0.3,0.3-5.6,5.3-17,9.9l-8.5-47.9L713.1,356.4z"/>
	</g></svg>