<?xml version="1.0" encoding="utf-8"?>
<svg id="master-artboard" viewBox="0 0 3000 2000" version="1.1" xmlns="http://www.w3.org/2000/svg" x="0px" y="0px" width="3000px" height="2000px" style="enable-background:new 0 0 3000 2000;">

<g transform="matrix(1, 0, 0, 1, 2.842170943040401e-14, 7.105427357601002e-15)">
		<path d="M 0 0 H 3000 V 940.200012 H 0 V 0 Z" class="st0" style="fill: rgb(200, 252, 250);"/>
		<path class="st1" d="M0,272v551.8h3000V272C2571.1,160,2055.1,94.7,1500,94.7S428.9,160,0,272z" style="fill: rgb(211, 255, 254);"/>
		<path class="st2" d="M2630.2,579.2c0,0-63-87.7-345-87.7s-447,386.6-798.1,8.7S602,467,602,467C320,122,0,395.5,0,395.5v448.3&#10;&#9;&#9;&#9;h3000V572C2832.7,350,2630.2,579.2,2630.2,579.2z" style="fill: rgb(229, 255, 255);"/>
		<path class="st2" d="M2179.3,186.7c-15.9-28.3-501.3-14.9-501.3-14.9s69.6-312.3-716.2,14.6c0,0-801.9,19.4-961.8,5.4l0,29.8&#10;&#9;&#9;&#9;l3000,88.2v-52.4l-852.5-24.5C2147.5,232.8,2195.2,215,2179.3,186.7z" style="fill: rgb(229, 255, 255);"/>
	</g><path d="M 0 706.200012 H 3000 V 1761.700012 H 0 V 706.200012 Z" class="st3" style="fill: rgb(105, 231, 217);" transform="matrix(1, 0, 0, 1, 5.684341886080802e-14, 1.4210854715202004e-14)"/><path class="st4" d="M2632.1,1185.2c-47.7,0-99.5,6-155.1,20.4c-155,40.1-506.4,55.5-875.4,55.5c-411.9,0-845.8-19.2-1052.6-44.5&#10;&#9;&#9;&#9;c-63.5-7.8-120.9-11-172.4-11c-266.4,0-376.6,87.2-376.6,87.2v161.7h3000v-125.8C3000,1328.7,2865.6,1185.2,2632.1,1185.2z" style="fill: rgb(215, 226, 186);" transform="matrix(1, 0, 0, 1, 5.684341886080802e-14, 1.4210854715202004e-14)"/><path class="st5" d="M2381,1264.7c-764,117.3-1416,22.7-1844,2.7s-537,76-537,76v418.2h3000v-360.1&#10;&#9;&#9;&#9;C2823.4,1293.9,2614.9,1228.8,2381,1264.7z" style="fill: rgb(252, 224, 176);" transform="matrix(1, 0, 0, 1, 5.684341886080802e-14, 1.4210854715202004e-14)"/><path class="st6" d="M2381,1339.4c-764,117.3-1416,22.7-1844,2.7s-537,76-537,76v418.2h3000v-360.1&#10;&#9;&#9;&#9;C2823.4,1368.6,2614.9,1303.5,2381,1339.4z" style="fill: rgb(242, 209, 160);" transform="matrix(1, 0, 0, 1, 5.684341886080802e-14, 1.4210854715202004e-14)"/><path d="M 165.899998 1389.5 A 27.700001 9 0 0 1 138.199997 1398.5 A 27.700001 9 0 0 1 110.499996 1389.5 A 27.700001 9 0 0 1 138.199997 1380.5 A 27.700001 9 0 0 1 165.899998 1389.5 Z" class="st7" style="fill: rgb(229, 196, 147);" transform="matrix(1, 0, 0, 1, 5.684341886080802e-14, 1.4210854715202004e-14)"/><path d="M 221.499997 1376.400024 A 12.8 4.1 0 0 1 208.699997 1380.500024 A 12.8 4.1 0 0 1 195.899997 1376.400024 A 12.8 4.1 0 0 1 208.699997 1372.300025 A 12.8 4.1 0 0 1 221.499997 1376.400024 Z" class="st7" style="fill: rgb(229, 196, 147);" transform="matrix(1, 0, 0, 1, 5.684341886080802e-14, 1.4210854715202004e-14)"/><path d="M 163.600003 1466.800049 A 12.8 4.1 0 0 1 150.800003 1470.900049 A 12.8 4.1 0 0 1 138.000003 1466.800049 A 12.8 4.1 0 0 1 150.800003 1462.700049 A 12.8 4.1 0 0 1 163.600003 1466.800049 Z" class="st7" style="fill: rgb(229, 196, 147);" transform="matrix(1, 0, 0, 1, 5.684341886080802e-14, 1.4210854715202004e-14)"/><path d="M 260.3 1481.699951 A 12.8 4.1 0 0 1 247.5 1485.799951 A 12.8 4.1 0 0 1 234.7 1481.699951 A 12.8 4.1 0 0 1 247.5 1477.599951 A 12.8 4.1 0 0 1 260.3 1481.699951 Z" class="st7" style="fill: rgb(229, 196, 147);" transform="matrix(1, 0, 0, 1, 5.684341886080802e-14, 1.4210854715202004e-14)"/><path d="M 513.900006 1341.900024 A 12.8 4.1 0 0 1 501.100006 1346.000024 A 12.8 4.1 0 0 1 488.300006 1341.900024 A 12.8 4.1 0 0 1 501.100006 1337.800025 A 12.8 4.1 0 0 1 513.900006 1341.900024 Z" class="st7" style="fill: rgb(229, 196, 147);" transform="matrix(1, 0, 0, 1, 5.684341886080802e-14, 1.4210854715202004e-14)"/><path d="M 763.000012 1489.300049 A 12.8 4.1 0 0 1 750.200012 1493.400049 A 12.8 4.1 0 0 1 737.400012 1489.300049 A 12.8 4.1 0 0 1 750.200012 1485.200049 A 12.8 4.1 0 0 1 763.000012 1489.300049 Z" class="st7" style="fill: rgb(229, 196, 147);" transform="matrix(1, 0, 0, 1, 5.684341886080802e-14, 1.4210854715202004e-14)"/><path d="M 996.399976 1360.900024 A 12.8 4.1 0 0 1 983.599976 1365.000024 A 12.8 4.1 0 0 1 970.799975 1360.900024 A 12.8 4.1 0 0 1 983.599976 1356.800025 A 12.8 4.1 0 0 1 996.399976 1360.900024 Z" class="st7" style="fill: rgb(229, 196, 147);" transform="matrix(1, 0, 0, 1, 5.684341886080802e-14, 1.4210854715202004e-14)"/><path d="M 1517.200025 1337.699951 A 12.8 4.1 0 0 1 1504.400024 1341.799951 A 12.8 4.1 0 0 1 1491.600024 1337.699951 A 12.8 4.1 0 0 1 1504.400024 1333.599951 A 12.8 4.1 0 0 1 1517.200025 1337.699951 Z" class="st7" style="fill: rgb(229, 196, 147);" transform="matrix(1, 0, 0, 1, 5.684341886080802e-14, 1.4210854715202004e-14)"/><path d="M 1158.899976 1432.699951 A 12.8 4.1 0 0 1 1146.099976 1436.799951 A 12.8 4.1 0 0 1 1133.299975 1432.699951 A 12.8 4.1 0 0 1 1146.099976 1428.599951 A 12.8 4.1 0 0 1 1158.899976 1432.699951 Z" class="st7" style="fill: rgb(229, 196, 147);" transform="matrix(1, 0, 0, 1, 5.684341886080802e-14, 1.4210854715202004e-14)"/><path d="M 1763.999951 1466 A 12.8 4.1 0 0 1 1751.199951 1470.1 A 12.8 4.1 0 0 1 1738.399951 1466 A 12.8 4.1 0 0 1 1751.199951 1461.9 A 12.8 4.1 0 0 1 1763.999951 1466 Z" class="st7" style="fill: rgb(229, 196, 147);" transform="matrix(1, 0, 0, 1, 5.684341886080802e-14, 1.4210854715202004e-14)"/><path d="M 1807.499951 1355 A 12.8 4.1 0 0 1 1794.699951 1359.1 A 12.8 4.1 0 0 1 1781.899951 1355 A 12.8 4.1 0 0 1 1794.699951 1350.9 A 12.8 4.1 0 0 1 1807.499951 1355 Z" class="st7" style="fill: rgb(229, 196, 147);" transform="matrix(1, 0, 0, 1, 5.684341886080802e-14, 1.4210854715202004e-14)"/><path d="M 2331.900098 1389.5 A 12.8 4.1 0 0 1 2319.100098 1393.6 A 12.8 4.1 0 0 1 2306.300097 1389.5 A 12.8 4.1 0 0 1 2319.100098 1385.4 A 12.8 4.1 0 0 1 2331.900098 1389.5 Z" class="st7" style="fill: rgb(229, 196, 147);" transform="matrix(1, 0, 0, 1, 5.684341886080802e-14, 1.4210854715202004e-14)"/><path d="M 2640.8 1337.699951 A 12.8 4.1 0 0 1 2628 1341.799951 A 12.8 4.1 0 0 1 2615.2 1337.699951 A 12.8 4.1 0 0 1 2628 1333.599951 A 12.8 4.1 0 0 1 2640.8 1337.699951 Z" class="st7" style="fill: rgb(229, 196, 147);" transform="matrix(1, 0, 0, 1, 5.684341886080802e-14, 1.4210854715202004e-14)"/><path d="M 2750.999951 1410.5 A 12.8 4.1 0 0 1 2738.199951 1414.6 A 12.8 4.1 0 0 1 2725.399951 1410.5 A 12.8 4.1 0 0 1 2738.199951 1406.4 A 12.8 4.1 0 0 1 2750.999951 1410.5 Z" class="st7" style="fill: rgb(229, 196, 147);" transform="matrix(1, 0, 0, 1, 5.684341886080802e-14, 1.4210854715202004e-14)"/><path d="M 2194.999951 1380.5 A 12.8 4.1 0 0 1 2182.199951 1384.6 A 12.8 4.1 0 0 1 2169.399951 1380.5 A 12.8 4.1 0 0 1 2182.199951 1376.4 A 12.8 4.1 0 0 1 2194.999951 1380.5 Z" class="st7" style="fill: rgb(229, 196, 147);" transform="matrix(1, 0, 0, 1, 5.684341886080802e-14, 1.4210854715202004e-14)"/><path d="M 2445.999951 1358.5 A 12.8 4.1 0 0 1 2433.199951 1362.6 A 12.8 4.1 0 0 1 2420.399951 1358.5 A 12.8 4.1 0 0 1 2433.199951 1354.4 A 12.8 4.1 0 0 1 2445.999951 1358.5 Z" class="st7" style="fill: rgb(229, 196, 147);" transform="matrix(1, 0, 0, 1, 5.684341886080802e-14, 1.4210854715202004e-14)"/><path d="M 302.999989 1433 A 27.700001 9 0 0 1 275.299988 1442 A 27.700001 9 0 0 1 247.599987 1433 A 27.700001 9 0 0 1 275.299988 1424 A 27.700001 9 0 0 1 302.999989 1433 Z" class="st7" style="fill: rgb(229, 196, 147);" transform="matrix(1, 0, 0, 1, 5.684341886080802e-14, 1.4210854715202004e-14)"/><path d="M 884.600025 1423.699951 A 27.700001 9 0 0 1 856.900024 1432.699951 A 27.700001 9 0 0 1 829.200024 1423.699951 A 27.700001 9 0 0 1 856.900024 1414.699951 A 27.700001 9 0 0 1 884.600025 1423.699951 Z" class="st7" style="fill: rgb(229, 196, 147);" transform="matrix(1, 0, 0, 1, 5.684341886080802e-14, 1.4210854715202004e-14)"/><path d="M 670.700001 1351.900024 A 27.700001 9 0 0 1 643 1360.900024 A 27.700001 9 0 0 1 615.299999 1351.900024 A 27.700001 9 0 0 1 643 1342.900024 A 27.700001 9 0 0 1 670.700001 1351.900024 Z" class="st7" style="fill: rgb(229, 196, 147);" transform="matrix(1, 0, 0, 1, 5.684341886080802e-14, 1.4210854715202004e-14)"/><path d="M 1696.399952 1360.900024 A 27.700001 9 0 0 1 1668.699951 1369.900024 A 27.700001 9 0 0 1 1640.99995 1360.900024 A 27.700001 9 0 0 1 1668.699951 1351.900024 A 27.700001 9 0 0 1 1696.399952 1360.900024 Z" class="st7" style="fill: rgb(229, 196, 147);" transform="matrix(1, 0, 0, 1, 5.684341886080802e-14, 1.4210854715202004e-14)"/><path d="M 1306.899952 1448.5 A 27.700001 9 0 0 1 1279.199951 1457.5 A 27.700001 9 0 0 1 1251.49995 1448.5 A 27.700001 9 0 0 1 1279.199951 1439.5 A 27.700001 9 0 0 1 1306.899952 1448.5 Z" class="st7" style="fill: rgb(229, 196, 147);" transform="matrix(1, 0, 0, 1, 5.684341886080802e-14, 1.4210854715202004e-14)"/><path d="M 2025.100025 1376.400024 A 27.700001 9 0 0 1 1997.400024 1385.400024 A 27.700001 9 0 0 1 1969.700024 1376.400024 A 27.700001 9 0 0 1 1997.400024 1367.400024 A 27.700001 9 0 0 1 2025.100025 1376.400024 Z" class="st7" style="fill: rgb(229, 196, 147);" transform="matrix(1, 0, 0, 1, 5.684341886080802e-14, 1.4210854715202004e-14)"/><path d="M 2521.599903 1389.5 A 27.700001 9 0 0 1 2493.899902 1398.5 A 27.700001 9 0 0 1 2466.199902 1389.5 A 27.700001 9 0 0 1 2493.899902 1380.5 A 27.700001 9 0 0 1 2521.599903 1389.5 Z" class="st7" style="fill: rgb(229, 196, 147);" transform="matrix(1, 0, 0, 1, 5.684341886080802e-14, 1.4210854715202004e-14)"/><path d="M 2319.00005 1423.699951 A 27.700001 9 0 0 1 2291.300049 1432.699951 A 27.700001 9 0 0 1 2263.600048 1423.699951 A 27.700001 9 0 0 1 2291.300049 1414.699951 A 27.700001 9 0 0 1 2319.00005 1423.699951 Z" class="st7" style="fill: rgb(229, 196, 147);" transform="matrix(1, 0, 0, 1, 5.684341886080802e-14, 1.4210854715202004e-14)"/><path d="M 2894.599903 1448.5 A 27.700001 9 0 0 1 2866.899902 1457.5 A 27.700001 9 0 0 1 2839.199902 1448.5 A 27.700001 9 0 0 1 2866.899902 1439.5 A 27.700001 9 0 0 1 2894.599903 1448.5 Z" class="st7" style="fill: rgb(229, 196, 147);" transform="matrix(1, 0, 0, 1, 5.684341886080802e-14, 1.4210854715202004e-14)"/><path class="st8" d="M3000,706.2H0v481.7c82.8-63.1,266.7-160.6,553-86.9c404,104,766.9,84,1143.5,8s592.5-88,896.5-12&#10;&#9;&#9;&#9;c179.9,45,316.4,15.2,407-36.4V706.2z" style="fill: rgb(91, 217, 209);" transform="matrix(1, 0, 0, 1, 5.684341886080802e-14, 1.4210854715202004e-14)"/><path class="st9" d="M0,1045c0,0,61-175.9,437-98s560,210,960,70s669.2-172,866.6-108s597.4,156,741.4,12l-5-214.8H0V1045z" style="fill: rgb(68, 195, 197);" transform="matrix(1, 0, 0, 1, 5.684341886080802e-14, 1.4210854715202004e-14)"/><path class="st10" d="M0,892.3c0,0,179.6-149.7,466.3-48.5s579.6,173.2,785.1,81.2S2017,722.5,2245,823.7s556,150.9,760,20.1&#10;&#9;&#9;&#9;l-5-137.6H0V892.3z" style="fill: rgb(58, 186, 186);" transform="matrix(1, 0, 0, 1, 5.684341886080802e-14, 1.4210854715202004e-14)"/><g transform="matrix(1, 0, 0, 1, 5.684341886080802e-14, 1.4210854715202004e-14)">
			<path class="st11" d="M1485.8,201.5c0.4-0.1,0.6-0.2,0.4-0.4L1485.8,201.5z" style="fill: rgb(113, 223, 212);"/>
			<path class="st11" d="M1339.2,201.5l-0.4-0.4C1338.7,201.3,1338.8,201.4,1339.2,201.5z" style="fill: rgb(113, 223, 212);"/>
			<path class="st11" d="M1412.5,259.2c-2.5-11.4-7.7-26.1-18.8-37.1c-19.1-19.1-50.4-19.4-54.5-20.6l71.3,71.3l2,2l2-2l71.3-71.3&#10;&#9;&#9;&#9;&#9;c-4.1,1.2-35.4,1.5-54.5,20.6C1420.2,233.1,1415,247.8,1412.5,259.2z" style="fill: rgb(113, 223, 212);"/>
		</g><path class="st11" d="M1338.9,339.4c0.2-0.1,0.3-0.1,0.2-0.2L1338.9,339.4z" style="fill: rgb(113, 223, 212);" transform="matrix(1, 0, 0, 1, 8.526512829121202e-14, 2.1316282072803006e-14)"/><path class="st11" d="M1251.6,339.4l-0.2-0.2C1251.3,339.2,1251.4,339.3,1251.6,339.4z" style="fill: rgb(113, 223, 212);" transform="matrix(1, 0, 0, 1, 8.526512829121202e-14, 2.1316282072803006e-14)"/><path class="st11" d="M1295.3,373.7c-1.5-6.8-4.6-15.5-11.2-22.1c-11.4-11.4-30-11.5-32.5-12.3l42.4,42.4l1.2,1.2l1.2-1.2&#10;&#9;&#9;&#9;&#9;l42.4-42.4c-2.5,0.7-21.1,0.9-32.5,12.3C1299.9,358.2,1296.8,366.9,1295.3,373.7z" style="fill: rgb(113, 223, 212);" transform="matrix(1, 0, 0, 1, 8.526512829121202e-14, 2.1316282072803006e-14)"/><path class="st11" d="M1480.1,328.5c0.2-0.1,0.2-0.1,0.2-0.2L1480.1,328.5z" style="fill: rgb(113, 223, 212);" transform="matrix(1, 0, 0, 1, 8.526512829121202e-14, 2.1316282072803006e-14)"/><path class="st11" d="M1416,328.5l-0.2-0.2C1415.8,328.4,1415.8,328.4,1416,328.5z" style="fill: rgb(113, 223, 212);" transform="matrix(1, 0, 0, 1, 8.526512829121202e-14, 2.1316282072803006e-14)"/><path class="st11" d="M1448,353.7c-1.1-5-3.4-11.4-8.2-16.2c-8.3-8.3-22-8.5-23.8-9l31.1,31.1l0.9,0.9l0.9-0.9l31.1-31.1&#10;&#9;&#9;&#9;&#9;c-1.8,0.5-15.5,0.7-23.8,9C1451.4,342.3,1449.1,348.7,1448,353.7z" style="fill: rgb(113, 223, 212);" transform="matrix(1, 0, 0, 1, 8.526512829121202e-14, 2.1316282072803006e-14)"/><g transform="matrix(1, 0, 0, 1, 5.684341886080802e-14, 1.4210854715202004e-14)">
			<path class="st11" d="M338.5,202.1c0.4-0.1,0.6-0.2,0.4-0.4L338.5,202.1z" style="fill: rgb(113, 223, 212);"/>
			<path class="st11" d="M191.9,202.1l-0.4-0.4C191.3,201.8,191.5,202,191.9,202.1z" style="fill: rgb(113, 223, 212);"/>
			<path class="st11" d="M265.2,259.8c-2.5-11.4-7.7-26.1-18.8-37.1c-19.1-19.1-50.4-19.4-54.5-20.6l71.3,71.3l2,2l2-2l71.3-71.3&#10;&#9;&#9;&#9;&#9;c-4.1,1.2-35.4,1.5-54.5,20.6C272.9,233.7,267.7,248.4,265.2,259.8z" style="fill: rgb(113, 223, 212);"/>
		</g><path class="st11" d="M434.6,129.8c0.2-0.1,0.3-0.1,0.2-0.2L434.6,129.8z" style="fill: rgb(113, 223, 212);" transform="matrix(1, 0, 0, 1, 8.526512829121202e-14, 2.1316282072803006e-14)"/><path class="st11" d="M347.3,129.8l-0.2-0.2C347,129.7,347.1,129.8,347.3,129.8z" style="fill: rgb(113, 223, 212);" transform="matrix(1, 0, 0, 1, 8.526512829121202e-14, 2.1316282072803006e-14)"/><path class="st11" d="M391,164.2c-1.5-6.8-4.6-15.5-11.2-22.1c-11.4-11.4-30-11.5-32.5-12.3l42.4,42.4l1.2,1.2l1.2-1.2l42.4-42.4&#10;&#9;&#9;&#9;&#9;c-2.5,0.7-21.1,0.9-32.5,12.3C395.6,148.7,392.5,157.4,391,164.2z" style="fill: rgb(113, 223, 212);" transform="matrix(1, 0, 0, 1, 8.526512829121202e-14, 2.1316282072803006e-14)"/><path class="st11" d="M252.4,317.4c0.2-0.1,0.3-0.1,0.2-0.2L252.4,317.4z" style="fill: rgb(113, 223, 212);" transform="matrix(1, 0, 0, 1, 8.526512829121202e-14, 2.1316282072803006e-14)"/><path class="st11" d="M165.1,317.4l-0.2-0.2C164.7,317.3,164.8,317.4,165.1,317.4z" style="fill: rgb(113, 223, 212);" transform="matrix(1, 0, 0, 1, 8.526512829121202e-14, 2.1316282072803006e-14)"/><path class="st11" d="M208.7,351.8c-1.5-6.8-4.6-15.5-11.2-22.1c-11.4-11.4-30-11.5-32.5-12.3l42.4,42.4l1.2,1.2l1.2-1.2&#10;&#9;&#9;&#9;&#9;l42.4-42.4c-2.5,0.7-21.1,0.9-32.5,12.3C213.3,336.3,210.2,345,208.7,351.8z" style="fill: rgb(113, 223, 212);" transform="matrix(1, 0, 0, 1, 8.526512829121202e-14, 2.1316282072803006e-14)"/><path class="st11" d="M403.2,258.9c0.2-0.1,0.2-0.1,0.2-0.2L403.2,258.9z" style="fill: rgb(113, 223, 212);" transform="matrix(1, 0, 0, 1, 8.526512829121202e-14, 2.1316282072803006e-14)"/><path class="st11" d="M339.1,258.9l-0.2-0.2C338.9,258.8,339,258.8,339.1,258.9z" style="fill: rgb(113, 223, 212);" transform="matrix(1, 0, 0, 1, 8.526512829121202e-14, 2.1316282072803006e-14)"/><path class="st11" d="M371.2,284.1c-1.1-5-3.4-11.4-8.2-16.2c-8.3-8.3-22-8.5-23.8-9l31.1,31.1l0.9,0.9l0.9-0.9l31.1-31.1&#10;&#9;&#9;&#9;&#9;c-1.8,0.5-15.5,0.7-23.8,9C374.5,272.7,372.3,279.1,371.2,284.1z" style="fill: rgb(113, 223, 212);" transform="matrix(1, 0, 0, 1, 8.526512829121202e-14, 2.1316282072803006e-14)"/><g transform="matrix(1, 0, 0, 1, 5.684341886080802e-14, 1.4210854715202004e-14)">
			<path class="st11" d="M2795.9,158.8c0.4-0.1,0.6-0.2,0.4-0.4L2795.9,158.8z" style="fill: rgb(113, 223, 212);"/>
			<path class="st11" d="M2649.3,158.8l-0.4-0.4C2648.8,158.6,2648.9,158.7,2649.3,158.8z" style="fill: rgb(113, 223, 212);"/>
			<path class="st11" d="M2722.6,216.5c-2.5-11.4-7.7-26.1-18.8-37.1c-19.1-19.1-50.4-19.4-54.5-20.6l71.3,71.3l2,2l2-2l71.3-71.3&#10;&#9;&#9;&#9;&#9;c-4.1,1.2-35.4,1.5-54.5,20.6C2730.3,190.4,2725.1,205.1,2722.6,216.5z" style="fill: rgb(113, 223, 212);"/>
		</g><path class="st11" d="M2692.5,238.9c0.2-0.1,0.3-0.1,0.2-0.2L2692.5,238.9z" style="fill: rgb(113, 223, 212);" transform="matrix(1, 0, 0, 1, 8.526512829121202e-14, 2.1316282072803006e-14)"/><path class="st11" d="M2605.2,238.9l-0.2-0.2C2604.9,238.8,2605,238.8,2605.2,238.9z" style="fill: rgb(113, 223, 212);" transform="matrix(1, 0, 0, 1, 8.526512829121202e-14, 2.1316282072803006e-14)"/><path class="st11" d="M2648.9,273.3c-1.5-6.8-4.6-15.5-11.2-22.1c-11.4-11.4-30-11.5-32.5-12.3l42.4,42.4l1.2,1.2l1.2-1.2&#10;&#9;&#9;&#9;&#9;l42.4-42.4c-2.5,0.7-21.1,0.9-32.5,12.3C2653.5,257.7,2650.3,266.5,2648.9,273.3z" style="fill: rgb(113, 223, 212);" transform="matrix(1, 0, 0, 1, 8.526512829121202e-14, 2.1316282072803006e-14)"/><path class="st11" d="M2766.3,318.3c0.2-0.1,0.3-0.1,0.2-0.2L2766.3,318.3z" style="fill: rgb(113, 223, 212);" transform="matrix(1, 0, 0, 1, 8.526512829121202e-14, 2.1316282072803006e-14)"/><path class="st11" d="M2679,318.3l-0.2-0.2C2678.6,318.1,2678.7,318.2,2679,318.3z" style="fill: rgb(113, 223, 212);" transform="matrix(1, 0, 0, 1, 8.526512829121202e-14, 2.1316282072803006e-14)"/><path class="st11" d="M2722.6,352.6c-1.5-6.8-4.6-15.5-11.2-22.1c-11.4-11.4-30-11.5-32.5-12.3l42.4,42.4l1.2,1.2l1.2-1.2&#10;&#9;&#9;&#9;&#9;l42.4-42.4c-2.5,0.7-21.1,0.9-32.5,12.3C2727.2,337.1,2724.1,345.8,2722.6,352.6z" style="fill: rgb(113, 223, 212);" transform="matrix(1, 0, 0, 1, 8.526512829121202e-14, 2.1316282072803006e-14)"/><path class="st11" d="M2896.9,144c0.2-0.1,0.2-0.1,0.2-0.2L2896.9,144z" style="fill: rgb(113, 223, 212);" transform="matrix(1, 0, 0, 1, 8.526512829121202e-14, 2.1316282072803006e-14)"/><path class="st11" d="M2832.8,144l-0.2-0.2C2832.6,143.8,2832.7,143.9,2832.8,144z" style="fill: rgb(113, 223, 212);" transform="matrix(1, 0, 0, 1, 8.526512829121202e-14, 2.1316282072803006e-14)"/><path class="st11" d="M2864.9,169.2c-1.1-5-3.4-11.4-8.2-16.2c-8.3-8.3-22-8.5-23.8-9l31.1,31.1l0.9,0.9l0.9-0.9l31.1-31.1&#10;&#9;&#9;&#9;&#9;c-1.8,0.5-15.5,0.7-23.8,9C2868.2,157.8,2866,164.2,2864.9,169.2z" style="fill: rgb(113, 223, 212);" transform="matrix(1, 0, 0, 1, 8.526512829121202e-14, 2.1316282072803006e-14)"/><g transform="matrix(1, 0, 0, 1, 5.684341886080802e-14, 1.4210854715202004e-14)">
			<path class="st12" d="M2092.9,509.1l-20.5,18.5l15.9,32.8l34.6-12.5l-28,26.2l49.4,101.7c0,0,68.4-194.5-153.5-316.3l77.2,159.1&#10;&#9;&#9;&#9;&#9;L2092.9,509.1z" style="fill: rgb(26, 137, 92);"/>
			<path class="st13" d="M2212.9,511.6l26.6,7.2l19-31.1l-29.2-22.4l37.2,9.4l58.9-96.5c0,0-200.7,47.5-183.2,300l92.2-151&#10;&#9;&#9;&#9;&#9;L2212.9,511.6z" style="fill: rgb(55, 183, 131);"/>
			<path class="st13" d="M2234.1,796.5l-18.1,16.4l14.1,29l30.7-11.1l-24.8,23.2l43.7,90.1c0,0,60.6-172.3-136-280.2l68.4,141&#10;&#9;&#9;&#9;&#9;L2234.1,796.5z" style="fill: rgb(55, 183, 131);"/>
			<path class="st13" d="M2058.3,793.8l18.1,16.4l-14.1,29l-30.7-11.1l24.8,23.2l-43.7,90.1c0,0-60.6-172.3,136-280.2l-68.4,141&#10;&#9;&#9;&#9;&#9;L2058.3,793.8z" style="fill: rgb(55, 183, 131);"/>
			<g>
				<path class="st14" d="M2164.7,664.1c5.5,42.6,7.7,85.6,6.7,128.5c-1.6,42.9-6,85.7-12.9,128.1c-7.4,42.2-17,84.1-28.6,125.4&#10;&#9;&#9;&#9;&#9;&#9;c-12,41.1-25.7,81.7-41,121.7c-31.1,79.7-68.1,157.1-110.1,231.6c-21,37.3-43.1,73.9-66.4,109.9c-11.7,17.9-23.6,35.8-35.9,53.4&#10;&#9;&#9;&#9;&#9;&#9;c-6.2,8.8-12.4,17.6-18.8,26.3l-9.7,13.1c-3.3,4.4-6.5,8.6-10.2,13.4l-62.3-51.9c2.9-3.3,6.3-7.4,9.5-11.2l9.7-11.8&#10;&#9;&#9;&#9;&#9;&#9;c6.4-7.9,12.8-16,19.1-24.1c12.7-16.2,24.9-32.8,37.1-49.4c24.1-33.4,47.3-67.7,69.4-102.6c44.3-69.8,83.7-142.6,117.7-217.9&#10;&#9;&#9;&#9;&#9;&#9;c16.7-37.7,31.9-76.1,45.5-115.1c13.2-39.1,24.4-78.7,33.6-118.9c8.7-40.2,15-81,18.7-122c3-41,3.1-82.2-0.1-123.3L2164.7,664.1&#10;&#9;&#9;&#9;&#9;&#9;z" style="fill: rgb(168, 124, 79);"/>
				<path class="st15" d="M2164.7,664.1l-15.7,1.8c5,41,7,82.3,6.1,123.6c-1.6,42.9-6,85.7-12.9,128.1c-7.4,42.2-17,84.1-28.6,125.4&#10;&#9;&#9;&#9;&#9;&#9;c-12,41.1-25.7,81.7-41,121.7c-31.1,79.7-68.1,157.1-110.1,231.6c-21,37.3-43.1,73.9-66.4,109.9c-11.7,17.9-23.6,35.8-35.9,53.4&#10;&#9;&#9;&#9;&#9;&#9;c-6.2,8.8-12.4,17.6-18.8,26.3l-9.7,13.1c-1.8,2.4-3.5,4.7-5.3,7.1l11.4,9.5c3.8-4.8,6.9-9,10.2-13.4l9.7-13.1&#10;&#9;&#9;&#9;&#9;&#9;c6.4-8.7,12.6-17.5,18.8-26.3c12.4-17.6,24.2-35.5,35.9-53.4c23.3-36,45.4-72.6,66.4-109.9c42-74.5,79-151.9,110.1-231.6&#10;&#9;&#9;&#9;&#9;&#9;c15.3-40,29-80.6,41-121.7c11.6-41.3,21.2-83.1,28.6-125.4c6.9-42.4,11.3-85.1,12.9-128C2172.4,749.6,2170.2,706.7,2164.7,664.1&#10;&#9;&#9;&#9;&#9;&#9;z" style="fill: rgb(149, 108, 69);"/>
				<g>
					<path class="st16" d="M2138,726.9c10.9,1.8,21.8,3.7,32.6,5.6c-0.1-2.9-0.3-5.8-0.4-8.7c-10.7-1.9-21.5-3.7-32.3-5.5&#10;&#9;&#9;&#9;&#9;&#9;&#9;C2138,721.2,2138,724,2138,726.9z" style="fill: rgb(122, 87, 60);"/>
					<path class="st16" d="M2150.6,961.5c0.6-2.8,1.2-5.6,1.8-8.5c-15.3,0-30.5,0.5-45.8,1.5c-0.8,2.9-1.5,5.7-2.3,8.6&#10;&#9;&#9;&#9;&#9;&#9;&#9;C2119.7,962,2135.1,961.5,2150.6,961.5z" style="fill: rgb(122, 87, 60);"/>
					<path class="st16" d="M1944.6,1425.4c-13.5-11.8-26.7-24-40.9-34.9c-1.5,2.3-3.1,4.6-4.6,7c16,12.2,30.8,26.3,45.9,39.5&#10;&#9;&#9;&#9;&#9;&#9;&#9;c2.7,2.4,5.4,4.7,8.1,7.1c1.5-2.5,2.9-4.9,4.4-7.4L1944.6,1425.4z" style="fill: rgb(122, 87, 60);"/>
					<path class="st16" d="M2123.7,879.6c13.4,1.6,26.7,3.3,40,5.3c0.4-2.8,0.7-5.6,1-8.4c-13.2-1.9-26.4-3.6-39.7-5.2&#10;&#9;&#9;&#9;&#9;&#9;&#9;C2124.6,874.1,2124.2,876.8,2123.7,879.6z" style="fill: rgb(122, 87, 60);"/>
					<path class="st16" d="M1956.7,1304.4c-1.5,2.5-2.9,5.1-4.4,7.6c21.6,5.3,43.2,10.5,64.9,15.5c1.3-2.6,2.6-5.2,4-7.8&#10;&#9;&#9;&#9;&#9;&#9;&#9;C1999.7,1314.8,1978.2,1309.7,1956.7,1304.4z" style="fill: rgb(122, 87, 60);"/>
					<path class="st16" d="M2132.1,1037.8c0.7-2.7,1.5-5.4,2.2-8.2c-15.9-2.3-31.7-5.1-47.2-9.3c-0.9,2.7-1.7,5.4-2.6,8.1&#10;&#9;&#9;&#9;&#9;&#9;&#9;C2100.1,1032.7,2116.1,1035.5,2132.1,1037.8z" style="fill: rgb(122, 87, 60);"/>
					<path class="st16" d="M2100.5,1136.6c1-2.7,1.8-5.3,2.8-8c-16.9-5.2-33.8-10.6-50.7-16c-1.1,2.6-2.2,5.2-3.3,7.8&#10;&#9;&#9;&#9;&#9;&#9;&#9;C2066.3,1125.9,2083.4,1131.3,2100.5,1136.6z" style="fill: rgb(122, 87, 60);"/>
					<path class="st16" d="M2134.4,803.4c-0.3,2.8-0.6,5.7-0.9,8.5c12.4-0.6,24.7-1.2,37.1-2c0.2-2.8,0.3-5.7,0.4-8.5&#10;&#9;&#9;&#9;&#9;&#9;&#9;C2158.8,802.1,2146.6,802.8,2134.4,803.4z" style="fill: rgb(122, 87, 60);"/>
					<path class="st16" d="M1839.1,1483.2c21.8,12.7,43.6,25.4,65.4,38.1c1.6-2.4,3.1-4.7,4.7-7.1c-21.7-12.6-43.4-25.3-65.1-37.9&#10;&#9;&#9;&#9;&#9;&#9;&#9;C1842.4,1478.6,1840.7,1480.9,1839.1,1483.2z" style="fill: rgb(122, 87, 60);"/>
					<path class="st16" d="M2057.5,1242.8c1.2-2.6,2.3-5.2,3.5-7.8c-16.7-10.5-33.2-21.2-49.6-32.2c-1.3,2.5-2.6,5.1-3.8,7.6&#10;&#9;&#9;&#9;&#9;&#9;&#9;C2024.1,1221.4,2040.7,1232.3,2057.5,1242.8z" style="fill: rgb(122, 87, 60);"/>
				</g>
			</g>
			<path class="st12" d="M2355.6,723.2l-21,43.2l20.3,10.3l35.9-62.2l-21.3,69.6l64.2,32.6l27.4-46l-8.6,55.5l87.2,44.3&#10;&#9;&#9;&#9;&#9;c-58.4-152.3-159.7-252.6-412.1-209.5l194.6,98.9L2355.6,723.2z" style="fill: rgb(26, 137, 92);"/>
			<path class="st17" d="M1934.1,731.5l24.6,41.3l19.7-11.3l-32.3-64.2l46.5,56l62.5-35.8l-23.4-48.1l41.7,37.6l84.9-48.5&#10;&#9;&#9;&#9;&#9;c-159.3-34.7-298.8-5.1-401.3,229.5l189.5-108.4L1934.1,731.5z" style="fill: rgb(31, 163, 116);"/>
			<path class="st17" d="M2392.2,527.7l21.3,60l28.5-9.6l-25.4-91.7l46,84.8l90.5-30.3l-17.9-68.6l44.4,59.7l122.8-41.1&#10;&#9;&#9;&#9;&#9;c-198-86.3-386.8-83.9-580.7,194.4l274.2-91.8L2392.2,527.7z" style="fill: rgb(31, 163, 116);"/>
			<path class="st17" d="M1932.2,515.9l-20.5,50.2l23.5,10.1l35.9-72.6l-18.9,79.9l74.6,32.1l27.5-53.7l-5.6,63.1l101.2,43.5&#10;&#9;&#9;&#9;&#9;c-76.7-167-197.9-272.5-478.6-205.8l226,97.2L1932.2,515.9z" style="fill: rgb(31, 163, 116);"/>
			<g>
				<path class="st12" d="M2216.1,711.5c5.2,19.2-4.7,44.3-23.9,49.5c-19.2,5.2-40.4-11.5-45.6-30.7c-5.2-19.2,7.3-34.7,26.5-39.9&#10;&#9;&#9;&#9;&#9;&#9;C2192.3,685.3,2210.9,692.3,2216.1,711.5z" style="fill: rgb(26, 137, 92);"/>
				<path class="st18" d="M2190.4,689.2c6.2,3.8,10.9,9.7,13.1,18c5.2,19.2-4.7,44.3-23.9,49.5c-3.8,1-7.6,1.2-11.4,0.6&#10;&#9;&#9;&#9;&#9;&#9;c7.5,4.2,15.9,5.9,24.1,3.7c19.2-5.2,29.1-30.3,23.9-49.5C2212.5,698.3,2202.6,690.8,2190.4,689.2z" style="fill: rgb(20, 114, 73);"/>
				
					<path d="M 2175.699903 717.400024 A 13.8 11.2 0 0 1 2161.899902 728.600024 A 13.8 11.2 0 0 1 2148.099902 717.400024 A 13.8 11.2 0 0 1 2161.899902 706.200025 A 13.8 11.2 0 0 1 2175.699903 717.400024 Z" transform="matrix(9.739155e-02 -0.9952 0.9952 9.739155e-02 1237.3489 2799.1306)" class="st19" style="fill: rgb(44, 155, 107);"/>
			</g>
			<g>
				<path class="st12" d="M2149.8,723.9c1.3,19.8-13.3,42.6-33.2,43.9c-19.8,1.3-37.4-19.2-38.7-39.1c-1.3-19.8,14-32.6,33.8-33.9&#10;&#9;&#9;&#9;&#9;&#9;C2131.7,693.5,2148.5,704,2149.8,723.9z" style="fill: rgb(26, 137, 92);"/>
				<path class="st18" d="M2129,696.9c5.3,4.9,8.8,11.7,9.3,20.2c1.3,19.8-13.3,42.6-33.2,43.9c-3.9,0.3-7.7-0.4-11.3-1.6&#10;&#9;&#9;&#9;&#9;&#9;c6.5,5.6,14.5,8.9,22.9,8.4c19.8-1.3,34.5-24,33.2-43.9C2148.9,710.2,2140.6,700.9,2129,696.9z" style="fill: rgb(20, 114, 73);"/>
				
					<path d="M 2109.3 719 A 13.8 11.2 0 0 1 2095.5 730.2 A 13.8 11.2 0 0 1 2081.7 719 A 13.8 11.2 0 0 1 2095.5 707.8 A 13.8 11.2 0 0 1 2109.3 719 Z" transform="matrix(0.2908 -0.9568 0.9568 0.2908 798.1879 2514.8096)" class="st19" style="fill: rgb(44, 155, 107);"/>
			</g>
			<g>
				<path class="st13" d="M2185.9,700c0,19.9-16.1,41.6-36,41.6c-19.9,0-36-21.7-36-41.6c0-19.9,16.1-31.5,36-31.5&#10;&#9;&#9;&#9;&#9;&#9;C2169.8,668.5,2185.9,680.1,2185.9,700z" style="fill: rgb(55, 183, 131);"/>
				<path class="st17" d="M2166.9,671.7c5,5.2,8,12.2,8,20.8c0,19.9-16.1,41.6-36,41.6c-3.9,0-7.7-0.9-11.2-2.4&#10;&#9;&#9;&#9;&#9;&#9;c6.1,6,13.8,9.9,22.3,9.9c19.9,0,36-21.7,36-41.6C2185.9,686.3,2178.2,676.5,2166.9,671.7z" style="fill: rgb(31, 163, 116);"/>
				
					<path d="M 2145.8 691.5 A 13.8 11.2 0 0 1 2132 702.7 A 13.8 11.2 0 0 1 2118.2 691.5 A 13.8 11.2 0 0 1 2132 680.3 A 13.8 11.2 0 0 1 2145.8 691.5 Z" transform="matrix(0.354 -0.9352 0.9352 0.354 730.562 2440.709)" class="st20" style="fill: rgb(79, 198, 147);"/>
			</g>
		</g><path class="st12" d="M967.8,476.3l12.4,24.2l-25.8,25.4l-27.4-23.4l16.7,34l-80.2,79c0,0,4.1-205.6,249.4-245.5L987.3,493.5&#10;&#9;&#9;&#9;&#9;L967.8,476.3z" style="fill: rgb(26, 137, 92);" transform="matrix(1, 0, 0, 1, 8.526512829121202e-14, 2.1316282072803006e-14)"/><path class="st13" d="M793.5,458.1L768,467l-20.5-29.8l27-24.2L739,424.8l-63.7-92.6c0,0,198.6,34.6,198.1,287.7l-99.7-144.8&#10;&#9;&#9;&#9;&#9;L793.5,458.1z" style="fill: rgb(55, 183, 131);" transform="matrix(1, 0, 0, 1, 8.526512829121202e-14, 2.1316282072803006e-14)"/><path class="st13" d="M750.5,702.7l11.8,21.1l-22.1,23.3l-25-19.8l15.8,29.5l-68.5,72.5c0,0-3-182.2,212.9-225.4L768.2,717.4&#10;&#9;&#9;&#9;&#9;L750.5,702.7z" style="fill: rgb(55, 183, 131);" transform="matrix(1, 0, 0, 1, 8.526512829121202e-14, 2.1316282072803006e-14)"/><path class="st13" d="M914.6,753.2l-21.9,10.1l4.1,31.9l31.9-1.3l-30.2,14.6l12.8,98.9c0,0,109.6-145.6-39.7-307.5l20,154.7&#10;&#9;&#9;&#9;&#9;L914.6,753.2z" style="fill: rgb(55, 183, 131);" transform="matrix(1, 0, 0, 1, 8.526512829121202e-14, 2.1316282072803006e-14)"/><path class="st14" d="M855.8,597.7c-18.2,38.8-33.6,79.1-45.9,120.2c-11.7,41.3-21,83.3-27.6,125.7&#10;&#9;&#9;&#9;&#9;&#9;c-6.2,42.4-10.3,85.1-12.2,127.9c-1.6,42.7-1.4,85.5,0.4,128.1c4.3,85.2,14.6,170,30.6,253.5c7.9,41.8,17.2,83.3,27.6,124.5&#10;&#9;&#9;&#9;&#9;&#9;c5.4,20.6,10.8,41.2,16.9,61.6c3,10.2,6.1,20.5,9.3,30.7l4.9,15.4c1.7,5.2,3.3,10.1,5.4,15.8l73.9-30.6c-1.7-4-3.6-8.9-5.4-13.5&#10;&#9;&#9;&#9;&#9;&#9;l-5.3-14.1c-3.5-9.5-6.9-19.1-10.3-28.7c-6.8-19.2-13-38.7-19.1-58.2c-12.1-39.1-23-78.6-32.7-118.5&#10;&#9;&#9;&#9;&#9;&#9;c-19.5-79.7-33.7-160.9-41.9-242.8c-3.8-40.9-6.1-82-6.6-123.2c-0.2-41.1,1.7-82.2,5.5-123.2c4.3-40.9,11.1-81.5,20.4-121.6&#10;&#9;&#9;&#9;&#9;&#9;c9.9-39.9,22.6-79.1,38.2-117.2L855.8,597.7z" style="fill: rgb(168, 124, 79);" transform="matrix(1, 0, 0, 1, 1.1368683772161603e-13, 2.842170943040401e-14)"/><path class="st15" d="M855.8,597.7l14,6.4c-17.3,37.4-32,76.1-43.9,115.7c-11.7,41.3-21,83.3-27.6,125.7&#10;&#9;&#9;&#9;&#9;&#9;c-6.2,42.4-10.3,85.1-12.2,127.9c-1.6,42.7-1.4,85.5,0.4,128.1c4.3,85.2,14.6,170,30.6,253.5c7.9,41.8,17.2,83.3,27.6,124.5&#10;&#9;&#9;&#9;&#9;&#9;c5.4,20.6,10.8,41.2,16.9,61.6c3,10.2,6.1,20.5,9.3,30.7l4.9,15.4c0.9,2.8,1.8,5.5,2.8,8.3l-13.5,5.6c-2-5.7-3.6-10.6-5.4-15.8&#10;&#9;&#9;&#9;&#9;&#9;l-4.9-15.4c-3.2-10.2-6.3-20.5-9.3-30.7c-6-20.5-11.5-41-16.9-61.6c-10.5-41.2-19.7-82.7-27.6-124.5&#10;&#9;&#9;&#9;&#9;&#9;c-16-83.5-26.4-168.3-30.6-253.5c-1.8-42.6-2-85.4-0.4-128.1c2-42.7,6-85.4,12.2-127.9c6.6-42.4,15.9-84.4,27.6-125.7&#10;&#9;&#9;&#9;&#9;&#9;C822.2,676.8,837.6,636.6,855.8,597.7z" style="fill: rgb(149, 108, 69);" transform="matrix(1, 0, 0, 1, 1.1368683772161603e-13, 2.842170943040401e-14)"/><path class="st16" d="M861.2,665.5c-10.7-1.6-21.3-3.1-32-4.5c1-2.7,2-5.4,3.1-8.1c10.6,1.4,21.1,3,31.6,4.5&#10;&#9;&#9;&#9;&#9;&#9;&#9;C863,660.1,862.1,662.8,861.2,665.5z" style="fill: rgb(122, 87, 60);" transform="matrix(1, 0, 0, 1, 1.4210854715202004e-13, 3.552713678800501e-14)"/><path class="st16" d="M777,884.8c0.3-2.9,0.6-5.7,0.9-8.6c14.2,4.6,28.2,9.7,42,15.2c-0.2,3-0.4,5.9-0.5,8.9&#10;&#9;&#9;&#9;&#9;&#9;&#9;C805.5,894.7,791.3,889.5,777,884.8z" style="fill: rgb(122, 87, 60);" transform="matrix(1, 0, 0, 1, 1.4210854715202004e-13, 3.552713678800501e-14)"/><path class="st16" d="M824.9,1388.2c16.2-7.1,32.3-14.8,48.8-20.8c0.7,2.7,1.4,5.3,2.1,8c-18.6,6.8-36.7,15.7-54.8,23.7&#10;&#9;&#9;&#9;&#9;&#9;&#9;c-3.2,1.4-6.5,2.9-9.7,4.3c-0.6-2.8-1.2-5.6-1.8-8.3L824.9,1388.2z" style="fill: rgb(122, 87, 60);" transform="matrix(1, 0, 0, 1, 1.4210854715202004e-13, 3.552713678800501e-14)"/><path class="st16" d="M827.3,815.1c-12.9-2.5-25.9-4.9-38.8-7.1c0.5-2.8,1.1-5.5,1.6-8.3c12.9,2.2,25.7,4.5,38.5,7&#10;&#9;&#9;&#9;&#9;&#9;&#9;C828.2,809.6,827.7,812.3,827.3,815.1z" style="fill: rgb(122, 87, 60);" transform="matrix(1, 0, 0, 1, 1.4210854715202004e-13, 3.552713678800501e-14)"/><path class="st16" d="M851,1269.5c0.6,2.9,1.1,5.7,1.7,8.6c-21.7-1.5-43.4-3.1-65-4.8c-0.4-2.9-0.9-5.7-1.3-8.6&#10;&#9;&#9;&#9;&#9;&#9;&#9;C807.9,1266.4,829.5,1268,851,1269.5z" style="fill: rgb(122, 87, 60);" transform="matrix(1, 0, 0, 1, 1.4210854715202004e-13, 3.552713678800501e-14)"/><path class="st16" d="M770.6,963c0.1-2.8,0.3-5.6,0.5-8.4c15.5,2.6,31,4.7,46.7,5.4c0,2.8-0.1,5.6-0.1,8.5&#10;&#9;&#9;&#9;&#9;&#9;&#9;C801.8,967.8,786.2,965.7,770.6,963z" style="fill: rgb(122, 87, 60);" transform="matrix(1, 0, 0, 1, 1.4210854715202004e-13, 3.552713678800501e-14)"/><path class="st16" d="M769.4,1066.5c-0.1-2.8-0.1-5.6-0.1-8.5c17.3,0.1,34.7,0.1,52.1,0.1c0.2,2.8,0.4,5.6,0.6,8.4&#10;&#9;&#9;&#9;&#9;&#9;&#9;C804.4,1066.6,786.9,1066.6,769.4,1066.5z" style="fill: rgb(122, 87, 60);" transform="matrix(1, 0, 0, 1, 1.4210854715202004e-13, 3.552713678800501e-14)"/><path class="st16" d="M840.9,739.3c-0.6,2.8-1.2,5.6-1.8,8.4c-11.3-4.3-22.6-8.6-33.8-13.1c0.7-2.7,1.5-5.5,2.2-8.2&#10;&#9;&#9;&#9;&#9;&#9;&#9;C818.6,730.8,829.7,735.1,840.9,739.3z" style="fill: rgb(122, 87, 60);" transform="matrix(1, 0, 0, 1, 1.4210854715202004e-13, 3.552713678800501e-14)"/><path class="st16" d="M905,1475c-24.2,5.5-48.4,11-72.6,16.5c-0.7-2.7-1.4-5.4-2.2-8.1c24-5.5,48.1-10.9,72.1-16.4&#10;&#9;&#9;&#9;&#9;&#9;&#9;C903.3,1469.7,904.1,1472.3,905,1475z" style="fill: rgb(122, 87, 60);" transform="matrix(1, 0, 0, 1, 1.4210854715202004e-13, 3.552713678800501e-14)"/><path class="st16" d="M776.4,1180.5c-0.3-2.8-0.5-5.7-0.8-8.5c18.7-4.9,37.4-10.1,56-15.7c0.4,2.8,0.8,5.6,1.2,8.4&#10;&#9;&#9;&#9;&#9;&#9;&#9;C814.1,1170.3,795.3,1175.5,776.4,1180.5z" style="fill: rgb(122, 87, 60);" transform="matrix(1, 0, 0, 1, 1.4210854715202004e-13, 3.552713678800501e-14)"/><path class="st12" d="M649.2,633.4l15.2,45.4l-20.9,7.9l-27.4-65.9l12.3,71.6l-66.2,24.9l-21.1-48.8l1.7,56.1l-89.8,33.9&#10;&#9;&#9;&#9;&#9;C528,614,638.1,526.2,877.7,598.4L677.3,674L649.2,633.4z" style="fill: rgb(26, 137, 92);" transform="matrix(1, 0, 0, 1, 8.526512829121202e-14, 2.1316282072803006e-14)"/><path class="st17" d="M1049.1,731.4l-35.6,31.9l-14.8-16.7l49.8-51.3l-60.5,39.2l-47-52.9l36.6-38.7l-50.4,23.2l-63.8-71.8&#10;&#9;&#9;&#9;&#9;c158.7,15.1,279,85.3,301.7,339.4l-142.5-160.2L1049.1,731.4z" style="fill: rgb(31, 163, 116);" transform="matrix(1, 0, 0, 1, 8.526512829121202e-14, 2.1316282072803006e-14)"/><path class="st17" d="M643.3,504.1l-17.8,58.4l-25.3-6.1L621,468l-39.1,84.1l-80.4-19.3l14.7-66.1L478,527.2l-109.1-26.1&#10;&#9;&#9;&#9;&#9;c173.3-100.9,339.9-117.7,515.6,123.5L641,566.3L643.3,504.1z" style="fill: rgb(31, 163, 116);" transform="matrix(1, 0, 0, 1, 8.526512829121202e-14, 2.1316282072803006e-14)"/><path class="st17" d="M1048.5,545.5l-2.5,53.7l-20.4,1.4l-0.8-79.8l-13.9,80.8l-64.5,4.4l-1.2-59.3l-17.7,60.6l-87.6,6&#10;&#9;&#9;&#9;&#9;c112.5-129.3,235.7-186.2,414-28.5l-195.5,13.4L1048.5,545.5z" style="fill: rgb(31, 163, 116);" transform="matrix(1, 0, 0, 1, 8.526512829121202e-14, 2.1316282072803006e-14)"/><path class="st17" d="M788,639.5c1.9,19.7,19.6,39.5,39,37.3c19.4-2.2,33-25.5,31.2-45.2c-1.9-19.7-18.7-29.5-38-27.3&#10;&#9;&#9;&#9;&#9;&#9;C800.8,606.5,786.1,619.8,788,639.5z" style="fill: rgb(31, 163, 116);" transform="matrix(1, 0, 0, 1, 1.1368683772161603e-13, 2.842170943040401e-14)"/><path class="st12" d="M803.9,609.4c-4.3,5.7-6.6,13-5.8,21.5c1.9,19.7,19.6,39.5,39,37.3c3.8-0.4,7.4-1.7,10.7-3.6&#10;&#9;&#9;&#9;&#9;&#9;c-5.4,6.6-12.6,11.3-20.7,12.2c-19.4,2.2-37.1-17.6-39-37.3C786.7,625.9,793.3,615.3,803.9,609.4z" style="fill: rgb(26, 137, 92);" transform="matrix(1, 0, 0, 1, 1.1368683772161603e-13, 2.842170943040401e-14)"/><path class="st13" d="M829.9,630.3c3.3,6.8,10.4,10,15.8,7.2c5.4-2.8,7.1-10.6,3.8-17.3c-3.3-6.8-10.4-10-15.8-7.2&#10;&#9;&#9;&#9;&#9;&#9;C828.3,615.7,826.6,623.5,829.9,630.3z" style="fill: rgb(55, 183, 131);" transform="matrix(1, 0, 0, 1, 1.1368683772161603e-13, 2.842170943040401e-14)"/><path class="st17" d="M840.1,615.8c-6.1,18.9,2.1,44.4,20.6,50.4c18.5,6,40.1-9.8,46.3-28.7c6.1-18.9-5.2-34.9-23.7-40.9&#10;&#9;&#9;&#9;&#9;&#9;C864.8,590.7,846.2,596.9,840.1,615.8z" style="fill: rgb(31, 163, 116);" transform="matrix(1, 0, 0, 1, 1.1368683772161603e-13, 2.842170943040401e-14)"/><path class="st12" d="M866.4,594.6c-6.2,3.5-11.2,9.2-13.8,17.4c-6.1,18.9,2.1,44.4,20.6,50.4c3.6,1.2,7.4,1.5,11.1,1.1&#10;&#9;&#9;&#9;&#9;&#9;c-7.5,3.8-15.9,5.2-23.7,2.7c-18.5-6-26.7-31.5-20.6-50.4C844.3,602.7,854.5,595.7,866.4,594.6z" style="fill: rgb(26, 137, 92);" transform="matrix(1, 0, 0, 1, 1.1368683772161603e-13, 2.842170943040401e-14)"/><path class="st13" d="M881.8,624.6c0.3,7.6,5.4,13.5,11.5,13.1c6-0.3,10.7-6.8,10.4-14.4c-0.3-7.6-5.4-13.5-11.5-13.1&#10;&#9;&#9;&#9;&#9;&#9;C886.2,610.6,881.5,617,881.8,624.6z" style="fill: rgb(55, 183, 131);" transform="matrix(1, 0, 0, 1, 1.1368683772161603e-13, 2.842170943040401e-14)"/><path class="st21" d="M923.9,1231.5l83.6,102l429.8,102l390.6-78.3l122.8-125.8c0,0-198.6,70.2-513.4,70.2&#10;&#9;&#9;&#9;&#9;S923.9,1231.5,923.9,1231.5z" style="fill: rgb(188, 42, 77);" transform="matrix(1, 0, 0, 1, 8.526512829121202e-14, 2.1316282072803006e-14)"/><path class="st22" d="M1437.3,1357.3c-408.9,0-513.4-125.8-513.4-125.8c0,80,198.1,251.5,513.4,251.5s513.4-171.5,513.4-251.5&#10;&#9;&#9;&#9;&#9;C1950.7,1231.5,1846.2,1357.3,1437.3,1357.3z" style="fill: rgb(252, 71, 98);" transform="matrix(1, 0, 0, 1, 8.526512829121202e-14, 2.1316282072803006e-14)"/><path class="st23" d="M1732.4,1329.2c-70.7,65.8-201,133.8-374.4,150.1c25.5,2.4,51.9,3.7,79.2,3.7&#10;&#9;&#9;&#9;&#9;c315.3,0,513.4-171.5,513.4-251.5C1950.7,1231.5,1900.2,1292.2,1732.4,1329.2z" style="fill: rgb(229, 56, 89);" transform="matrix(1, 0, 0, 1, 8.526512829121202e-14, 2.1316282072803006e-14)"/><path class="st24" d="M923.9,1231.5c0,25.9,20.8,61.5,59.7,97.7c73.8,16.3,170.3,28,295.2,28c27.8,0,54.2-0.6,79.2-1.7&#10;&#9;&#9;&#9;&#9;C1014.7,1340.7,923.9,1231.5,923.9,1231.5z" style="fill: rgb(249, 98, 127);" transform="matrix(1, 0, 0, 1, 8.526512829121202e-14, 2.1316282072803006e-14)"/><path class="st25" d="M1963.5,1189.3c-17.4,0-31.5,14.1-31.5,31.5c0,17.4,14.1,31.5,31.5,31.5c17.4,0,31.5-14.1,31.5-31.5&#10;&#9;&#9;&#9;&#9;C1995,1203.4,1980.9,1189.3,1963.5,1189.3z M1963.5,1234.8c-7.8,0-14.1-6.3-14.1-14.1c0-7.8,6.3-14.1,14.1-14.1&#10;&#9;&#9;&#9;&#9;c7.7,0,14.1,6.3,14.1,14.1C1977.6,1228.5,1971.3,1234.8,1963.5,1234.8z" style="fill: rgb(241, 242, 242);" transform="matrix(1, 0, 0, 1, 8.526512829121202e-14, 2.1316282072803006e-14)"/><path class="st25" d="M911,1189.3c-17.4,0-31.5,14.1-31.5,31.5c0,17.4,14.1,31.5,31.5,31.5s31.5-14.1,31.5-31.5&#10;&#9;&#9;&#9;&#9;C942.5,1203.4,928.4,1189.3,911,1189.3z M911,1234.8c-7.7,0-14.1-6.3-14.1-14.1c0-7.8,6.3-14.1,14.1-14.1&#10;&#9;&#9;&#9;&#9;c7.8,0,14.1,6.3,14.1,14.1C925.1,1228.5,918.8,1234.8,911,1234.8z" style="fill: rgb(241, 242, 242);" transform="matrix(1, 0, 0, 1, 8.526512829121202e-14, 2.1316282072803006e-14)"/><path class="st25" d="M771.3,1074c0.1,5.3,0.5,13,0.6,20l62.9,62.9l54,54l12.3-12.3l-58.5-58.5L771.3,1074z" style="fill: rgb(241, 242, 242);" transform="matrix(1, 0, 0, 1, 8.526512829121202e-14, 2.1316282072803006e-14)"/><path d="M 2015.5 1616.5 L 2053.89990234375 1623.699951171875 L 2015.5 1616.5 Z" class="st26" style="fill: rgb(150, 126, 98);" transform="matrix(1, 0, 0, 1, 8.526512829121202e-14, 2.1316282072803006e-14)"/><path d="M 2015.5 1616.5 L 2015.5 1616.5 L 2015.5 1616.5 Z" class="st26" style="fill: rgb(150, 126, 98);" transform="matrix(1, 0, 0, 1, 8.526512829121202e-14, 2.1316282072803006e-14)"/><path d="M 2053.89990234375 1623.699951171875 L 2055 1623.9000244140625 L 2015.5 1616.5 Z" class="st26" style="fill: rgb(150, 126, 98);" transform="matrix(1, 0, 0, 1, 8.526512829121202e-14, 2.1316282072803006e-14)"/><path class="st25" d="M2032,1140l-7.8,7.8l-50.7,50.7l12.3,12.3l41.4-41.4l12.6-12.6l73.7-57.8c4.3-12.2,10.2-30.1,12.7-40.3&#10;&#9;&#9;&#9;&#9;L2032,1140z" style="fill: rgb(241, 242, 242);" transform="matrix(1, 0, 0, 1, 8.526512829121202e-14, 2.1316282072803006e-14)"/><path d="M 0 1526.5 H 3000 V 2000 H 0 V 1526.5 Z" class="st27" style="fill: rgb(214, 159, 99);" transform="matrix(1, 0, 0, 1, 5.684341886080802e-14, 1.4210854715202004e-14)"/><path class="st28" d="M138.2,1526.5c40.8,166.2,634.9,298,1361.8,298s1321-131.8,1361.8-298H138.2z" style="fill: rgb(221, 167, 114);" transform="matrix(1, 0, 0, 1, 5.684341886080802e-14, 1.4210854715202004e-14)"/><path class="st29" d="M228.2,1526.5c42.3,63.7,302.3,112.8,616.7,112.8s574.5-49,616.7-112.8H228.2z" style="fill: rgb(229, 179, 133);" transform="matrix(1, 0, 0, 1, 5.684341886080802e-14, 1.4210854715202004e-14)"/><path d="M 0 1608.699951 H 3000 V 1614.999951 H 0 V 1608.699951 Z" class="st30" style="fill: rgb(173, 124, 83);" transform="matrix(1, 0, 0, 1, 5.684341886080802e-14, 1.4210854715202004e-14)"/><path d="M 0 1709.099976 H 3000 V 1715.399976 H 0 V 1709.099976 Z" class="st30" style="fill: rgb(173, 124, 83);" transform="matrix(1, 0, 0, 1, 5.684341886080802e-14, 1.4210854715202004e-14)"/><path d="M 0 1824.5 H 3000 V 1830.8 H 0 V 1824.5 Z" class="st30" style="fill: rgb(173, 124, 83);" transform="matrix(1, 0, 0, 1, 5.684341886080802e-14, 1.4210854715202004e-14)"/>
</svg>